<svg xmlns="http://www.w3.org/2000/svg" xmlns:xlink="http://www.w3.org/1999/xlink" width="384" height="60" version="1.1" viewBox="0 0 384 60"><title>large</title><desc>Created with Sketch.</desc><g id="Page-1" fill="none" fill-rule="evenodd" stroke="none" stroke-width="1"><g id="banner" transform="translate(-684.000000, -410.000000)"><g id="large" transform="translate(684.000000, 399.000000)"><text id="microlink" fill="#313B53" font-family="Lato-Regular, Lato" font-size="66" font-weight="normal" letter-spacing=".64"><tspan x="109.486" y="65">microlink</tspan></text><g id="logo" transform="translate(0.000000, 11.000000)"><g id="Path"><path fill="#EA407B" fill-rule="nonzero" d="M73.9275822,0 L35.5697928,0 C30.0134619,0 25.4935151,4.37516834 25.4935151,9.75223838 L25.4935151,14.7242002 L31.8623556,14.7242002 L31.8623556,9.75223838 C31.8623556,7.98359535 33.5259739,6.54694342 35.5697928,6.54694342 L73.9275822,6.54694342 C75.973331,6.54694342 77.6350194,7.98557149 77.6350194,9.75223838 L77.6350194,33.6160744 C77.6350194,35.3827413 75.971401,36.8193932 73.9295122,36.8193932 L35.5678628,36.8193932 C33.522114,36.8193932 31.8584957,35.3827413 31.8584957,33.6160744 L31.8584957,25.9921361 L25.4896552,25.9921361 L25.4896552,33.6160744 C25.4896552,38.9911683 30.0115319,43.3663366 35.5678628,43.3663366 L73.9256523,43.3663366 C79.4819831,43.3663366 84,38.9911683 84,33.6160744 L84,9.75223838 C84,4.37319221 79.4819831,1.04212782e-15 73.9256523,1.04212782e-15 L73.9275822,0 Z"/><path fill="#654EA3" fill-rule="nonzero" d="M58.5103448,50.2486503 L58.5103448,45.2751656 L52.1415043,45.2751656 L52.1415043,50.2486503 C52.1415043,52.0171322 50.477886,53.4536532 48.4321372,53.4536532 L10.0762777,53.4536532 C8.03245886,53.4536532 6.36884052,52.0151562 6.36884052,50.2486503 L6.36884052,26.385013 C6.36884052,24.6185071 8.03245886,23.1819861 10.0762777,23.1819861 L48.4321372,23.1819861 C50.477886,23.1819861 52.1415043,24.6185071 52.1415043,26.385013 L52.1415043,34.0082566 L58.5103448,34.0082566 L58.5103448,26.385013 C58.5103448,21.010409 53.9884681,16.6336634 48.4321372,16.6336634 L10.0743477,16.6336634 C4.52187677,16.6336634 0,21.010409 0,26.385013 L0,50.2486503 C0,55.6252304 4.52187677,60 10.0762777,60 L48.4321372,60 C53.990398,60 58.5103448,55.6272063 58.5103448,50.2486503 Z"/></g></g></g></g></g></svg>