<?xml version="1.0" encoding="utf-8"?>
<!-- Generator: Adobe Illustrator 22.0.1, SVG Export Plug-In . SVG Version: 6.00 Build 0)  -->
<svg version="1.1" id="Layer_1" xmlns="http://www.w3.org/2000/svg" xmlns:xlink="http://www.w3.org/1999/xlink" x="0px" y="0px" viewBox="0 0 1920 1080" style="enable-background:new 0 0 1920 1080;" xml:space="preserve">

<rect y="0" width="1920" height="1080" style="fill:#7FD6C2;"/>
<g>
	<path d="M903.3,155.7c-0.7-2-2.6-3.4-4.7-3.4H643.2c-2.8,0-5,2.2-5,5v296.4c0,1.5,0.7,3,1.9,3.9c0.9,0.7,2,1.1,3.1,1.1
		c0.4,0,0.7,0,1.1-0.1c1.3-0.3,32.4-7.5,65-26.1c43.8-25,69-58.6,72.9-97.3c4.5-45.3,36.6-90.1,62.7-119.6
		c28.6-32.3,56.4-54.1,56.7-54.3C903.3,159.9,904,157.7,903.3,155.7z" style="fill:#F3F6E6;"/>
	<g>
		<polygon points="1153,143.4 1162.1,166.3 1185.7,159.1 1173.4,180.5 1193.7,194.5 1169.3,198.2 1171.1,222.8 
			1153,206.1 1134.9,222.8 1136.6,198.2 1112.2,194.5 1132.6,180.5 1120.3,159.1 1143.9,166.3 		" style="fill:#F6E049;"/>
		<path d="M1171.1,227.8c-1.2,0-2.5-0.5-3.4-1.3l-14.7-13.6l-14.7,13.6c-1.5,1.4-3.7,1.7-5.6,0.8
			c-1.8-0.9-3-2.8-2.8-4.9l1.5-20l-19.8-3c-2-0.3-3.7-1.8-4.1-3.8c-0.5-2,0.4-4.1,2-5.2L1126,179l-10-17.4c-1-1.8-0.9-4,0.4-5.6
			s3.4-2.3,5.4-1.7l19.2,5.9l7.4-18.7c0.8-1.9,2.6-3.2,4.7-3.2s3.9,1.3,4.7,3.2l7.4,18.7l19.2-5.9c2-0.6,4.1,0.1,5.4,1.7
			c1.3,1.6,1.4,3.8,0.4,5.6l-10,17.4l16.6,11.3c1.7,1.2,2.5,3.2,2,5.2s-2.1,3.5-4.1,3.8l-19.8,3l1.5,20c0.1,2-1,4-2.8,4.9
			C1172.6,227.6,1171.9,227.8,1171.1,227.8z M1153,201.1c1.2,0,2.4,0.4,3.4,1.3l8.8,8.2l-0.9-12c-0.2-2.6,1.7-4.9,4.2-5.3l11.9-1.8
			l-9.9-6.8c-2.2-1.5-2.8-4.4-1.5-6.6l6-10.4l-11.5,3.5c-2.5,0.8-5.2-0.5-6.1-2.9L1153,157l-4.4,11.2c-1,2.4-3.6,3.7-6.1,2.9
			l-11.5-3.5l6,10.4c1.3,2.3,0.6,5.1-1.5,6.6l-9.9,6.8l11.9,1.8c2.6,0.4,4.4,2.7,4.2,5.3l-0.9,12l8.8-8.2
			C1150.6,201.5,1151.8,201.1,1153,201.1z" style="fill:#F6E049;"/>
	</g>
	<g>
		<g>
			<path d="M892.2,325.7c-2.8,0-5-2.2-5-5v-18.8c0-2.8,2.2-5,5-5s5,2.2,5,5v18.8C897.2,323.5,894.9,325.7,892.2,325.7z" style="fill:#383A48;"/>
		</g>
		<g>
			<path d="M892.2,393c-2.8,0-5-2.2-5-5v-18.8c0-2.8,2.2-5,5-5s5,2.2,5,5V388C897.2,390.8,894.9,393,892.2,393z" style="fill:#383A48;"/>
		</g>
		<g>
			<line x1="849.1" y1="345" x2="867.9" y2="345" style="fill:none;"/>
			<path d="M867.9,350h-18.8c-2.8,0-5-2.2-5-5s2.2-5,5-5h18.8c2.8,0,5,2.2,5,5S870.6,350,867.9,350z" style="fill:#383A48;"/>
		</g>
		<g>
			<line x1="916.4" y1="345" x2="935.2" y2="345" style="fill:none;"/>
			<path d="M935.2,350h-18.8c-2.8,0-5-2.2-5-5s2.2-5,5-5h18.8c2.8,0,5,2.2,5,5S938,350,935.2,350z" style="fill:#383A48;"/>
		</g>
		<g>
			<line x1="861.7" y1="314.5" x2="875" y2="327.8" style="fill:none;"/>
			<path d="M875,332.8c-1.3,0-2.6-0.5-3.5-1.5L858.2,318c-2-2-2-5.1,0-7.1s5.1-2,7.1,0l13.3,13.3c2,2,2,5.1,0,7.1
				C877.6,332.3,876.3,332.8,875,332.8z" style="fill:#383A48;"/>
		</g>
		<g>
			<line x1="909.3" y1="362.1" x2="922.6" y2="375.4" style="fill:none;"/>
			<path d="M922.6,380.4c-1.3,0-2.6-0.5-3.5-1.5l-13.3-13.3c-2-2-2-5.1,0-7.1s5.1-2,7.1,0l13.3,13.3c2,2,2,5.1,0,7.1
				C925.2,379.9,923.9,380.4,922.6,380.4z" style="fill:#383A48;"/>
		</g>
		<g>
			<line x1="861.7" y1="375.4" x2="875" y2="362.1" style="fill:none;"/>
			<path d="M861.7,380.4c-1.3,0-2.6-0.5-3.5-1.5c-2-2-2-5.1,0-7.1l13.3-13.3c2-2,5.1-2,7.1,0s2,5.1,0,7.1L865.3,379
				C864.3,379.9,863,380.4,861.7,380.4z" style="fill:#383A48;"/>
		</g>
		<g>
			<line x1="909.3" y1="327.8" x2="922.6" y2="314.5" style="fill:none;"/>
			<path d="M909.3,332.8c-1.3,0-2.6-0.5-3.5-1.5c-2-2-2-5.1,0-7.1l13.3-13.3c2-2,5.1-2,7.1,0s2,5.1,0,7.1l-13.3,13.3
				C911.9,332.3,910.6,332.8,909.3,332.8z" style="fill:#383A48;"/>
		</g>
	</g>
	<path d="M1632.6,152.6h-0.8c-41.7,0-82.5,11.6-118.1,33.7c-35.4,21.9-64.1,53.3-83.1,90.6c-5.6,11-12,22.1-19.5,33.7
		c-15.9,24.7-34.1,47.7-51.7,70c-48.5,61.3-94.2,119.2-79.8,197c10.2,54.9,27.1,94.4,42.1,129.3c3.3,7.8,6.5,15.2,9.5,22.5
		c12.2,29.9,20.1,56,18.9,86.1c-1.4,33.4-13.9,69.8-39.5,114.8c-0.9,1.5-0.9,3.4,0,5s2.5,2.5,4.3,2.5h317.7c2.8,0,5-2.2,5-5v-775
		C1637.6,154.9,1635.4,152.6,1632.6,152.6z" style="fill:#F3F6E6;"/>
	<path d="M1457.2,308.3h-42c-1.7,0-3.3,0.9-4.2,2.3c-15.9,24.7-34.1,47.7-51.7,70c-48.5,61.3-94.2,119.2-79.8,197
		c10.2,54.9,27.1,94.4,42.1,129.3c3.3,7.8,6.5,15.2,9.5,22.5c0.8,1.9,2.6,3.1,4.6,3.1h121.5c2.8,0,5-2.2,5-5V313.3
		C1462.2,310.6,1460,308.3,1457.2,308.3z" style="fill:#383A48;"/>
	<path d="M587.4,796.1c-12.4-24.9-26.4-53.1-33.6-116c-6-52.6-24.7-96.5-57.2-134.2c-28.5-33-63.3-57-96.9-80.1
		C353.4,434,309.6,403.9,292.1,355c-0.8-2.3-3.2-3.7-5.6-3.2c-2.4,0.4-4.1,2.5-4.1,4.9v468.8c0,61.9,50.3,112.2,112.2,112.2h207.2
		c2.5,0,4.7-1.9,5-4.4C615.8,853.3,603.3,828.1,587.4,796.1z" style="fill:#F3F6E6;"/>
	<g>
		<g>
			<g>
				<circle cx="521.5" cy="748.4" r="5" style="fill:#383A48;"/>
			</g>
		</g>
		<g>
			<g>
				<circle cx="521.5" cy="773" r="5" style="fill:#383A48;"/>
			</g>
		</g>
		<g>
			<g>
				<circle cx="521.5" cy="797.7" r="5" style="fill:#383A48;"/>
			</g>
		</g>
		<g>
			<g>
				<circle cx="496.8" cy="748.4" r="5" style="fill:#383A48;"/>
			</g>
		</g>
		<g>
			<g>
				<circle cx="496.8" cy="773" r="5" style="fill:#383A48;"/>
			</g>
		</g>
		<g>
			<g>
				<circle cx="496.8" cy="797.7" r="5" style="fill:#383A48;"/>
			</g>
		</g>
		<g>
			<g>
				<circle cx="472.1" cy="748.4" r="5" style="fill:#383A48;"/>
			</g>
		</g>
		<g>
			<g>
				<circle cx="472.1" cy="773" r="5" style="fill:#383A48;"/>
			</g>
		</g>
		<g>
			<g>
				<circle cx="472.1" cy="797.7" r="5" style="fill:#383A48;"/>
			</g>
		</g>
		<g>
			<g>
				<circle cx="447.5" cy="748.4" r="5" style="fill:#383A48;"/>
			</g>
		</g>
		<g>
			<g>
				<circle cx="447.5" cy="773" r="5" style="fill:#383A48;"/>
			</g>
		</g>
		<g>
			<g>
				<circle cx="447.5" cy="797.7" r="5" style="fill:#383A48;"/>
			</g>
		</g>
		<g>
			<g>
				<circle cx="422.8" cy="748.4" r="5" style="fill:#383A48;"/>
			</g>
		</g>
		<g>
			<g>
				<circle cx="422.8" cy="773" r="5" style="fill:#383A48;"/>
			</g>
		</g>
		<g>
			<g>
				<circle cx="422.8" cy="797.7" r="5" style="fill:#383A48;"/>
			</g>
		</g>
		<g>
			<g>
				<circle cx="398.1" cy="748.4" r="5" style="fill:#383A48;"/>
			</g>
		</g>
		<g>
			<g>
				<circle cx="398.1" cy="773" r="5" style="fill:#383A48;"/>
			</g>
		</g>
		<g>
			<g>
				<circle cx="398.1" cy="797.7" r="5" style="fill:#383A48;"/>
			</g>
		</g>
		<g>
			<g>
				<circle cx="373.5" cy="748.4" r="5" style="fill:#383A48;"/>
			</g>
		</g>
		<g>
			<g>
				<circle cx="373.5" cy="773" r="5" style="fill:#383A48;"/>
			</g>
		</g>
		<g>
			<g>
				<circle cx="373.5" cy="797.7" r="5" style="fill:#383A48;"/>
			</g>
		</g>
		<g>
			<g>
				<circle cx="348.8" cy="748.4" r="5" style="fill:#383A48;"/>
			</g>
		</g>
		<g>
			<g>
				<circle cx="348.8" cy="773" r="5" style="fill:#383A48;"/>
			</g>
		</g>
		<g>
			<g>
				<circle cx="348.8" cy="797.7" r="5" style="fill:#383A48;"/>
			</g>
		</g>
		<g>
			<g>
				<circle cx="324.1" cy="748.4" r="5" style="fill:#383A48;"/>
			</g>
		</g>
		<g>
			<g>
				<circle cx="324.1" cy="773" r="5" style="fill:#383A48;"/>
			</g>
		</g>
		<g>
			<g>
				<circle cx="324.1" cy="797.7" r="5" style="fill:#383A48;"/>
			</g>
		</g>
		<g>
			<g>
				<circle cx="299.5" cy="748.4" r="5" style="fill:#383A48;"/>
			</g>
		</g>
		<g>
			<g>
				<circle cx="299.5" cy="773" r="5" style="fill:#383A48;"/>
			</g>
		</g>
		<g>
			<g>
				<circle cx="299.5" cy="797.7" r="5" style="fill:#383A48;"/>
			</g>
		</g>
	</g>
	<g>
		<g>
			<rect x="1034.8" y="256.3" width="465" height="414.1" style="fill:#F3F6E6;"/>
			<path d="M1499.8,675.4h-465c-2.8,0-5-2.2-5-5V256.3c0-2.8,2.2-5,5-5h465c2.8,0,5,2.2,5,5v414.1
				C1504.8,673.2,1502.6,675.4,1499.8,675.4z M1039.8,665.4h455V261.3h-455V665.4z" style="fill:#383A48;"/>
		</g>
		<g>
			<g>
				<rect x="1034.8" y="256.3" width="465" height="123.2" style="fill:#7FD6C2;"/>
			</g>
			<g>
				<path d="M1499.8,384.5h-465c-2.8,0-5-2.2-5-5V256.3c0-2.8,2.2-5,5-5h465c2.8,0,5,2.2,5,5v123.2
					C1504.8,382.2,1502.6,384.5,1499.8,384.5z M1039.8,374.5h455V261.3h-455V374.5z" style="fill:#383A48;"/>
			</g>
		</g>
		<g>
			<g>
				<circle cx="1273.8" cy="522.4" r="140.4" style="fill:#F6E049;"/>
				<path d="M1273.8,667.8c-80.2,0-145.4-65.2-145.4-145.4S1193.6,377,1273.8,377s145.4,65.2,145.4,145.4
					S1353.9,667.8,1273.8,667.8z M1273.8,387.1c-74.7,0-135.4,60.7-135.4,135.4s60.7,135.4,135.4,135.4s135.4-60.7,135.4-135.4
					C1409.1,447.8,1348.4,387.1,1273.8,387.1z" style="fill:#383A48;"/>
			</g>
			<g>
				<path d="M1228.6,536.5c7.8,29,25.1,40.9,45.2,40.9s37.3-11.9,45.2-40.9H1228.6z" style="fill:#383A48;"/>
				<path d="M1273.8,582.5c-24.5,0-42.2-15.8-50-44.6c-0.4-1.5-0.1-3.1,0.9-4.3c0.9-1.2,2.4-2,4-2h90.4c1.6,0,3,0.7,4,2
					c0.9,1.2,1.3,2.8,0.9,4.3C1316,566.6,1298.2,582.5,1273.8,582.5z M1235.4,541.5c7.2,20.3,20.4,30.9,38.4,30.9
					s31.2-10.7,38.4-30.9H1235.4z" style="fill:#383A48;"/>
			</g>
			<g>
				<path d="M1240.3,561.3h67c8.3-9.7,11.7-24.8,11.7-24.8h-90.4C1228.6,536.5,1232.8,552.8,1240.3,561.3z" style="fill:#F3F6E6;"/>
				<path d="M1307.3,566.3h-67c-1.4,0-2.8-0.6-3.8-1.7c-8.2-9.3-12.6-26.1-12.8-26.8c-0.4-1.5-0.1-3.1,0.9-4.3
					c0.9-1.2,2.4-1.9,4-1.9h90.4c1.5,0,3,0.7,3.9,1.9s1.3,2.7,1,4.2c-0.1,0.7-3.8,16.3-12.8,26.9
					C1310.1,565.6,1308.7,566.3,1307.3,566.3z M1242.7,556.3h62.2c3.5-4.7,5.9-10.5,7.4-14.8h-76.9
					C1237,546,1239.5,551.9,1242.7,556.3z" style="fill:#383A48;"/>
			</g>
			<g>
				<path d="M1304.5,508.1c0-8,6.5-14.5,14.5-14.5s14.5,6.5,14.5,14.5" style="fill:#F6E049;"/>
				<path d="M1333.4,513.1c-2.8,0-5-2.2-5-5c0-5.2-4.3-9.5-9.5-9.5s-9.5,4.3-9.5,9.5c0,2.8-2.2,5-5,5s-5-2.2-5-5
					c0-10.7,8.7-19.5,19.5-19.5s19.5,8.7,19.5,19.5C1338.4,510.9,1336.2,513.1,1333.4,513.1z" style="fill:#383A48;"/>
			</g>
			<g>
				<path d="M1243.1,508.1c0-8-6.5-14.5-14.5-14.5s-14.5,6.5-14.5,14.5" style="fill:#F6E049;"/>
				<path d="M1243.1,513.1c-2.8,0-5-2.2-5-5c0-5.2-4.3-9.5-9.5-9.5s-9.5,4.3-9.5,9.5c0,2.8-2.2,5-5,5s-5-2.2-5-5
					c0-10.7,8.7-19.5,19.5-19.5s19.5,8.7,19.5,19.5C1248.1,510.9,1245.8,513.1,1243.1,513.1z" style="fill:#383A48;"/>
			</g>
		</g>
		<g>
			<g>
				<g>
					<line x1="1426.6" y1="306.2" x2="1449.9" y2="329.5" style="fill:none;"/>
					
						<rect x="1433.3" y="301.4" transform="matrix(0.7071 -0.7071 0.7071 0.7071 196.49 1110.1384)" width="10" height="33" style="fill:#383A48;"/>
				</g>
				<g>
					<line x1="1426.6" y1="329.5" x2="1449.9" y2="306.2" style="fill:none;"/>
					
						<rect x="1421.9" y="312.8" transform="matrix(0.7071 -0.7072 0.7072 0.7071 196.6192 1110.2607)" width="33" height="10" style="fill:#383A48;"/>
				</g>
			</g>
			<g>
				<path d="M1406.8,335.6h-35.5v-35.5h35.5V335.6z M1381.4,325.6h15.5v-15.5h-15.5V325.6z" style="fill:#383A48;"/>
			</g>
			<g>
				<rect x="1325.7" y="325.6" width="25.5" height="10" style="fill:#383A48;"/>
			</g>
		</g>
	</g>
	<g>
		<g>
			<rect x="287.4" y="157.3" width="355.8" height="567.1" style="fill:#F3F6E6;"/>
			<path d="M643.2,729.4H287.4c-2.8,0-5-2.2-5-5V157.3c0-2.8,2.2-5,5-5h355.8c2.8,0,5,2.2,5,5v567.1
				C648.2,727.1,646,729.4,643.2,729.4z M292.4,719.4h345.8V162.3H292.4V719.4z" style="fill:#383A48;"/>
		</g>
		<g>
			<g>
				<g>
					<rect x="393.1" y="330.6" width="152.1" height="134.8" style="fill:#7FD6C2;"/>
				</g>
				<g>
					<path d="M545.2,470.4H393.1c-2.8,0-5-2.2-5-5V330.6c0-2.8,2.2-5,5-5h152.1c2.8,0,5,2.2,5,5v134.8
						C550.2,468.2,548,470.4,545.2,470.4z M398.1,460.4h142.1V335.6H398.1V460.4z" style="fill:#383A48;"/>
				</g>
			</g>
			<g>
				<polyline points="429.9,383.3 468,432.7 513.7,369.2 				" style="fill:#7FD6C2;"/>
				<path d="M468,437.7c-1.5,0-3-0.7-4-1.9l-38.1-49.4c-1.7-2.2-1.3-5.3,0.9-7c2.2-1.7,5.3-1.3,7,0.9l34,44.1l41.8-58.1
					c1.6-2.2,4.7-2.8,7-1.1c2.2,1.6,2.8,4.7,1.1,7L472,435.6C471.1,436.9,469.6,437.7,468,437.7L468,437.7z" style="fill:#383A48;"/>
			</g>
		</g>
		<g>
			<rect x="287.4" y="157.3" width="355.8" height="107.7" style="fill:#E0719E;"/>
			<path d="M643.2,270H287.4c-2.8,0-5-2.2-5-5V157.3c0-2.8,2.2-5,5-5h355.8c2.8,0,5,2.2,5,5V265
				C648.2,267.8,646,270,643.2,270z M292.4,260h345.8v-97.7H292.4V260z" style="fill:#383A48;"/>
		</g>
		<g>
			<g>
				<g>
					
						<rect x="582.5" y="194.7" transform="matrix(0.7071 -0.7071 0.7071 0.7071 22.7654 477.2794)" width="10" height="33" style="fill:#F3F6E6;"/>
				</g>
				<g>
					
						<rect x="571" y="206.1" transform="matrix(0.7071 -0.7072 0.7072 0.7071 22.808 477.3434)" width="33" height="10" style="fill:#F3F6E6;"/>
				</g>
			</g>
			<g>
				<path d="M556,228.9h-35.5v-35.5H556V228.9z M530.6,218.9H546v-15.5h-15.5L530.6,218.9L530.6,218.9z" style="fill:#F3F6E6;"/>
			</g>
			<g>
				<rect x="474.9" y="218.9" width="25.5" height="10" style="fill:#F3F6E6;"/>
			</g>
		</g>
	</g>
	<g>
		<g>
			<polygon points="545.2,463.4 1034.8,463.4 1034.8,786.2 941.4,868 954.5,936.2 545.2,936.2 			" style="fill:#F3F6E6;"/>
			<path d="M954.5,941.2H545.2c-2.8,0-5-2.2-5-5V463.4c0-2.8,2.2-5,5-5h489.6c2.8,0,5,2.2,5,5v322.9
				c0,1.4-0.6,2.8-1.7,3.8L946.9,870l12.5,65.4c0.3,1.5-0.1,3-1.1,4.1C957.4,940.6,956,941.2,954.5,941.2z M550.2,931.2h398.3
				l-12-62.2c-0.3-1.7,0.3-3.5,1.6-4.7l91.7-80.3V468.4H550.2V931.2z" style="fill:#383A48;"/>
		</g>
		<g>
			<rect x="545.2" y="463.4" width="489.6" height="114.1" style="fill:#F6E049;"/>
			<path d="M1034.8,582.5H545.2c-2.8,0-5-2.2-5-5V463.4c0-2.8,2.2-5,5-5h489.6c2.8,0,5,2.2,5,5v114.1
				C1039.8,580.2,1037.6,582.5,1034.8,582.5z M550.2,572.5h479.6V468.4H550.2V572.5z" style="fill:#383A48;"/>
		</g>
		<path d="M1032.8,458.4h-28c-2.8,0-5,2.2-5,5v242.3c0,2.8,2.2,5,5,5h28c2.8,0,5-2.2,5-5V463.4
			C1037.8,460.6,1035.6,458.4,1032.8,458.4z" style="fill:#383A48;"/>
		<g>
			<g>
				<g>
					
						<rect x="955.5" y="503.9" transform="matrix(0.7071 -0.7071 0.7071 0.7071 -86.6473 831.5751)" width="10" height="33" style="fill:#383A48;"/>
				</g>
				<g>
					
						<rect x="944" y="515.4" transform="matrix(0.7071 -0.7072 0.7072 0.7071 -86.5869 831.6942)" width="33" height="10" style="fill:#383A48;"/>
				</g>
			</g>
			<g>
				<path d="M929,538.1h-35.5v-35.5H929V538.1z M903.6,528.1H919v-15.5h-15.5L903.6,528.1L903.6,528.1z" style="fill:#383A48;"/>
			</g>
			<g>
				<rect x="847.9" y="528.1" width="25.5" height="10" style="fill:#383A48;"/>
			</g>
		</g>
		<g>
			<g>
				<path d="M795.3,666.1L795.3,666.1c-19.1-19.1-50.2-19.1-69.3,0l-15.6,15.6l-15.6-15.6c-19.1-19.1-50.2-19.1-69.3,0
					l0,0c-19.1,19.1-19.1,50.2,0,69.3l85,85l69.3-69.3l15.6-15.6C814.4,716.3,814.4,685.3,795.3,666.1z" style="fill:#E0719E;"/>
				<path d="M710.3,825.4c-1.3,0-2.6-0.5-3.5-1.5l-85-85c-21.1-21.1-21.1-55.3,0-76.4c10.2-10.2,23.8-15.8,38.2-15.8
					s28,5.6,38.2,15.8l12.1,12.1l12.1-12.1c10.2-10.2,23.8-15.8,38.2-15.8s28,5.6,38.2,15.8c21.1,21.1,21.1,55.3,0,76.4l-85,85
					C712.9,824.9,711.6,825.4,710.3,825.4z M660,656.8c-11.8,0-22.8,4.6-31.1,12.9c-17.2,17.2-17.2,45.1,0,62.3l81.4,81.4l81.4-81.4
					c17.2-17.2,17.2-45.1,0-62.3l0,0c-8.3-8.3-19.4-12.9-31.1-12.9c-11.8,0-22.8,4.6-31.1,12.9l-15.6,15.6c-2,2-5.1,2-7.1,0
					l-15.6-15.6C682.8,661.4,671.8,656.8,660,656.8z" style="fill:#383A48;"/>
			</g>
		</g>
	</g>
	<g>
		<g>
			<g>
				<path d="M1309.2,936.6h-150c0-62.8-51.1-114-114-114s-114,51.1-114,114h-150c0-70.5,27.5-136.8,77.3-186.6
					s116.1-77.3,186.6-77.3s136.8,27.5,186.6,77.3C1281.7,799.9,1309.2,866.1,1309.2,936.6z" style="fill:#E0719E;"/>
				<path d="M1309.2,941.6h-150c-2.8,0-5-2.2-5-5c0-60.1-48.9-109-109-109s-109,48.9-109,109c0,2.8-2.2,5-5,5h-150
					c-2.8,0-5-2.2-5-5c0-71.8,28-139.4,78.8-190.2s118.3-78.8,190.2-78.8c71.8,0,139.4,28,190.2,78.8
					c50.8,50.8,78.8,118.3,78.8,190.2C1314.2,939.4,1311.9,941.6,1309.2,941.6z M1164.1,931.6h140.1
					c-1.3-67.3-28.1-130.4-75.8-178.1c-48.9-48.9-113.9-75.8-183.1-75.8s-134.2,26.9-183.1,75.8c-47.7,47.7-74.5,110.8-75.8,178.1
					h140.1c2.6-63.3,54.9-114,118.8-114S1161.4,868.4,1164.1,931.6z" style="fill:#383A48;"/>
			</g>
		</g>
		<g>
			<g>
				<path d="M1134.5,936.4v-0.2c-0.1-49.5-40.4-89.8-90-89.8c-49.5,0-89.9,40.2-90,89.8v0.2H836.1
					c0-55.7,21.7-108,61-147.4c39.4-39.4,91.7-61,147.4-61c55.7,0,108,21.7,147.4,61c39.4,39.4,61,91.7,61,147.4H1134.5z" style="fill:#F6E049;"/>
				<path d="M1252.9,941.4h-118.4c-2.8,0-5-2.2-5-5v-0.2c-0.1-46.7-38.2-84.8-85-84.8c-46.7,0-84.9,38-85,84.8v0.2
					c0,2.8-2.2,5-5,5H836.1c-2.8,0-5-2.2-5-5c0-57,22.2-110.6,62.5-150.9c40.3-40.3,93.9-62.5,150.9-62.5s110.6,22.2,150.9,62.5
					s62.5,93.9,62.5,150.9C1257.9,939.2,1255.7,941.4,1252.9,941.4z M1139.3,931.4h108.5c-1.3-52.5-22.3-101.6-59.5-138.8
					c-38.4-38.4-89.5-59.6-143.8-59.6c-54.3,0-105.4,21.2-143.8,59.6c-37.2,37.2-58.3,86.4-59.5,138.8h108.5c2.6-50,44.2-90,94.8-90
					C1095.1,841.5,1136.7,881.4,1139.3,931.4z" style="fill:#383A48;"/>
			</g>
		</g>
		<g>
			<g>
				<path d="M1193.7,936.2h-59.3c-0.1-49.5-40.4-89.8-90-89.8c-49.5,0-89.9,40.2-90,89.8h-60.8
					c0-40.1,15.6-77.7,43.9-106c28.3-28.3,66-43.9,106-43.9c40.1,0,77.7,15.6,106.1,43.9C1178.1,858.5,1193.7,896.2,1193.7,936.2z" style="fill:#AAC6FC;"/>
				<path d="M1193.7,941.2h-59.3c-2.8,0-5-2.2-5-5c-0.1-46.7-38.2-84.8-85-84.8c-46.7,0-84.9,38-85,84.8
					c0,2.8-2.2,5-5,5h-60.8c-2.8,0-5-2.2-5-5c0-41.4,16.1-80.3,45.4-109.6c29.3-29.3,68.2-45.4,109.6-45.4s80.3,16.1,109.6,45.4
					c29.3,29.3,45.4,68.2,45.4,109.6C1198.7,939,1196.5,941.2,1193.7,941.2z M1139.3,931.2h49.3c-1.2-36.8-16.2-71.3-42.4-97.5
					c-27.4-27.4-63.8-42.5-102.5-42.5c-38.7,0-75.1,15.1-102.5,42.5c-26.2,26.2-41.1,60.7-42.4,97.5h50.8
					c2.7-49.9,44.3-89.8,94.8-89.8C1095.1,841.5,1136.6,881.3,1139.3,931.2z" style="fill:#383A48;"/>
			</g>
		</g>
	</g>
	<g>
		<line x1="1472.4" y1="637.1" x2="1576.1" y2="740.8" style="fill:none;"/>
		<path d="M1576.1,745.8c-1.3,0-2.6-0.5-3.5-1.5l-103.7-103.7c-2-2-2-5.1,0-7.1s5.1-2,7.1,0l103.7,103.7
			c2,2,2,5.1,0,7.1C1578.6,745.3,1577.4,745.8,1576.1,745.8z" style="fill:#383A48;"/>
	</g>
	<g>
		<g>
			<rect x="400.5" y="857.7" width="10" height="33" style="fill:#383A48;"/>
		</g>
		<g>
			<line x1="389" y1="874.2" x2="421.9" y2="874.2" style="fill:none;"/>
			<rect x="389" y="869.2" width="33" height="10" style="fill:#383A48;"/>
		</g>
	</g>
	<g>
		<g>
			<rect x="1384.1" y="165.7" width="10" height="33" style="fill:#383A48;"/>
		</g>
		<g>
			<line x1="1372.6" y1="182.2" x2="1405.6" y2="182.2" style="fill:none;"/>
			<rect x="1372.6" y="177.2" width="33" height="10" style="fill:#383A48;"/>
		</g>
	</g>
</g>
</svg>
