<?xml version="1.0" encoding="UTF-8"?>
<svg width="1356px" height="804px" viewBox="0 0 1356 804" version="1.1" xmlns="http://www.w3.org/2000/svg" xmlns:xlink="http://www.w3.org/1999/xlink">
    <!-- Generator: Sketch 59.1 (86144) - https://sketch.com -->
    <title>abstract-success</title>
    <desc>Created with Sketch.</desc>
    <g id="Page-1" stroke="none" stroke-width="1" fill="none" fill-rule="evenodd">
        <g id="abstract-success" transform="translate(-282.000000, -138.000000)">
            <g id="Group" transform="translate(282.000000, 138.000000)">
                <path d="M621.3,17.7 C620.6,15.7 618.7,14.3 616.6,14.3 L361.2,14.3 C358.4,14.3 356.2,16.5 356.2,19.3 L356.2,315.7 C356.2,317.2 356.9,318.7 358.1,319.6 C359,320.3 360.1,320.7 361.2,320.7 C361.6,320.7 361.9,320.7 362.3,320.6 C363.6,320.3 394.7,313.1 427.3,294.5 C471.1,269.5 496.3,235.9 500.2,197.2 C504.7,151.9 536.8,107.1 562.9,77.6 C591.5,45.3 619.3,23.5 619.6,23.3 C621.3,21.9 622,19.7 621.3,17.7 Z" id="Path" fill="#F3F6E6" fill-rule="nonzero"></path>
                <g transform="translate(825.000000, 0.000000)" fill="#F6E049" fill-rule="nonzero">
                    <polygon id="Path" points="46 5.4 55.1 28.3 78.7 21.1 66.4 42.5 86.7 56.5 62.3 60.2 64.1 84.8 46 68.1 27.9 84.8 29.6 60.2 5.2 56.5 25.6 42.5 13.3 21.1 36.9 28.3"></polygon>
                    <path d="M64.1,89.8 C62.9,89.8 61.6,89.3 60.7,88.5 L46,74.9 L31.3,88.5 C29.8,89.9 27.6,90.2 25.7,89.3 C23.9,88.4 22.7,86.5 22.9,84.4 L24.4,64.4 L4.6,61.4 C2.6,61.1 0.9,59.6 0.5,57.6 C-3.88578059e-16,55.6 0.9,53.5 2.5,52.4 L19,41 L9,23.6 C8,21.8 8.1,19.6 9.4,18 C10.7,16.4 12.8,15.7 14.8,16.3 L34,22.2 L41.4,3.5 C42.2,1.6 44,0.3 46.1,0.3 C48.2,0.3 50,1.6 50.8,3.5 L58.2,22.2 L77.4,16.3 C79.4,15.7 81.5,16.4 82.8,18 C84.1,19.6 84.2,21.8 83.2,23.6 L73.2,41 L89.8,52.3 C91.5,53.5 92.3,55.5 91.8,57.5 C91.3,59.5 89.7,61 87.7,61.3 L67.9,64.3 L69.4,84.3 C69.5,86.3 68.4,88.3 66.6,89.2 C65.6,89.6 64.9,89.8 64.1,89.8 Z M46,63.1 C47.2,63.1 48.4,63.5 49.4,64.4 L58.2,72.6 L57.3,60.6 C57.1,58 59,55.7 61.5,55.3 L73.4,53.5 L63.5,46.7 C61.3,45.2 60.7,42.3 62,40.1 L68,29.7 L56.5,33.2 C54,34 51.3,32.7 50.4,30.3 L46,19 L41.6,30.2 C40.6,32.6 38,33.9 35.5,33.1 L24,29.6 L30,40 C31.3,42.3 30.6,45.1 28.5,46.6 L18.6,53.4 L30.5,55.2 C33.1,55.6 34.9,57.9 34.7,60.5 L33.8,72.5 L42.6,64.3 C43.6,63.5 44.8,63.1 46,63.1 Z" id="Shape"></path>
                </g>
                <g transform="translate(562.000000, 158.000000)" id="Path">
                    <path d="M48.2,29.7 C45.4,29.7 43.2,27.5 43.2,24.7 L43.2,5.9 C43.2,3.1 45.4,0.9 48.2,0.9 C51,0.9 53.2,3.1 53.2,5.9 L53.2,24.7 C53.2,27.5 50.9,29.7 48.2,29.7 Z" fill="#383A48" fill-rule="nonzero"></path>
                    <path d="M48.2,97 C45.4,97 43.2,94.8 43.2,92 L43.2,73.2 C43.2,70.4 45.4,68.2 48.2,68.2 C51,68.2 53.2,70.4 53.2,73.2 L53.2,92 C53.2,94.8 50.9,97 48.2,97 Z" fill="#383A48" fill-rule="nonzero"></path>
                    <g transform="translate(0.000000, 44.000000)">
                        <line x1="5.1" y1="5" x2="23.9" y2="5"></line>
                        <path d="M23.9,10 L5.1,10 C2.3,10 0.1,7.8 0.1,5 C0.1,2.2 2.3,0 5.1,0 L23.9,0 C26.7,0 28.9,2.2 28.9,5 C28.9,7.8 26.6,10 23.9,10 Z" fill="#383A48" fill-rule="nonzero"></path>
                    </g>
                    <g transform="translate(67.000000, 44.000000)">
                        <line x1="5.4" y1="5" x2="24.2" y2="5"></line>
                        <path d="M24.2,10 L5.4,10 C2.6,10 0.4,7.8 0.4,5 C0.4,2.2 2.6,0 5.4,0 L24.2,0 C27,0 29.2,2.2 29.2,5 C29.2,7.8 27,10 24.2,10 Z" fill="#383A48" fill-rule="nonzero"></path>
                    </g>
                    <g transform="translate(12.000000, 13.000000)">
                        <line x1="5.7" y1="5.5" x2="19" y2="18.8"></line>
                        <path d="M19,23.8 C17.7,23.8 16.4,23.3 15.5,22.3 L2.2,9 C0.2,7 0.2,3.9 2.2,1.9 C4.2,-0.1 7.3,-0.1 9.3,1.9 L22.6,15.2 C24.6,17.2 24.6,20.3 22.6,22.3 C21.6,23.3 20.3,23.8 19,23.8 Z" fill="#383A48" fill-rule="nonzero"></path>
                    </g>
                    <g transform="translate(60.000000, 61.000000)">
                        <line x1="5.3" y1="5.1" x2="18.6" y2="18.4"></line>
                        <path d="M18.6,23.4 C17.3,23.4 16,22.9 15.1,21.9 L1.8,8.6 C-0.2,6.6 -0.2,3.5 1.8,1.5 C3.8,-0.5 6.9,-0.5 8.9,1.5 L22.2,14.8 C24.2,16.8 24.2,19.9 22.2,21.9 C21.2,22.9 19.9,23.4 18.6,23.4 Z" fill="#383A48" fill-rule="nonzero"></path>
                    </g>
                    <g transform="translate(12.000000, 61.000000)">
                        <line x1="5.7" y1="18.4" x2="19" y2="5.1"></line>
                        <path d="M5.7,23.4 C4.4,23.4 3.1,22.9 2.2,21.9 C0.2,19.9 0.2,16.8 2.2,14.8 L15.5,1.5 C17.5,-0.5 20.6,-0.5 22.6,1.5 C24.6,3.5 24.6,6.6 22.6,8.6 L9.3,22 C8.3,22.9 7,23.4 5.7,23.4 Z" fill="#383A48" fill-rule="nonzero"></path>
                    </g>
                    <g transform="translate(60.000000, 13.000000)">
                        <line x1="5.3" y1="18.8" x2="18.6" y2="5.5"></line>
                        <path d="M5.3,23.8 C4,23.8 2.7,23.3 1.8,22.3 C-0.2,20.3 -0.2,17.2 1.8,15.2 L15.1,1.9 C17.1,-0.1 20.2,-0.1 22.2,1.9 C24.2,3.9 24.2,7 22.2,9 L8.9,22.3 C7.9,23.3 6.6,23.8 5.3,23.8 Z" fill="#383A48" fill-rule="nonzero"></path>
                    </g>
                </g>
                <path d="M1350.6,14.6 L1349.8,14.6 C1308.1,14.6 1267.3,26.2 1231.7,48.3 C1196.3,70.2 1167.6,101.6 1148.6,138.9 C1143,149.9 1136.6,161 1129.1,172.6 C1113.2,197.3 1095,220.3 1077.4,242.6 C1028.9,303.9 983.2,361.8 997.6,439.6 C1007.8,494.5 1024.7,534 1039.7,568.9 C1043,576.7 1046.2,584.1 1049.2,591.4 C1061.4,621.3 1069.3,647.4 1068.1,677.5 C1066.7,710.9 1054.2,747.3 1028.6,792.3 C1027.7,793.8 1027.7,795.7 1028.6,797.3 C1029.5,798.9 1031.1,799.8 1032.9,799.8 L1350.6,799.8 C1353.4,799.8 1355.6,797.6 1355.6,794.8 L1355.6,19.8 C1355.6,16.9 1353.4,14.6 1350.6,14.6 Z" id="Path" fill="#F3F6E6" fill-rule="nonzero"></path>
                <path d="M1175.2,170.3 L1133.2,170.3 C1131.5,170.3 1129.9,171.2 1129,172.6 C1113.1,197.3 1094.9,220.3 1077.3,242.6 C1028.8,303.9 983.1,361.8 997.5,439.6 C1007.7,494.5 1024.6,534 1039.6,568.9 C1042.9,576.7 1046.1,584.1 1049.1,591.4 C1049.9,593.3 1051.7,594.5 1053.7,594.5 L1175.2,594.5 C1178,594.5 1180.2,592.3 1180.2,589.5 L1180.2,175.3 C1180.2,172.6 1178,170.3 1175.2,170.3 Z" id="Path" fill="#383A48" fill-rule="nonzero"></path>
                <path d="M305.4,658.1 C293,633.2 279,605 271.8,542.1 C265.8,489.5 247.1,445.6 214.6,407.9 C186.1,374.9 151.3,350.9 117.7,327.8 C71.4,296 27.6,265.9 10.1,217 C9.3,214.7 6.9,213.3 4.5,213.8 C2.1,214.2 0.4,216.3 0.4,218.7 L0.4,687.5 C0.4,749.4 50.7,799.7 112.6,799.7 L319.8,799.7 C322.3,799.7 324.5,797.8 324.8,795.3 C333.8,715.3 321.3,690.1 305.4,658.1 Z" id="Path" fill="#F3F6E6" fill-rule="nonzero"></path>
                <g transform="translate(12.000000, 605.000000)" fill="#383A48" fill-rule="nonzero" id="Oval">
                    <circle cx="227.5" cy="5.4" r="5"></circle>
                    <circle cx="227.5" cy="30" r="5"></circle>
                    <circle cx="227.5" cy="54.7" r="5"></circle>
                    <circle cx="202.8" cy="5.4" r="5"></circle>
                    <circle cx="202.8" cy="30" r="5"></circle>
                    <circle cx="202.8" cy="54.7" r="5"></circle>
                    <circle cx="178.1" cy="5.4" r="5"></circle>
                    <circle cx="178.1" cy="30" r="5"></circle>
                    <circle cx="178.1" cy="54.7" r="5"></circle>
                    <circle cx="153.5" cy="5.4" r="5"></circle>
                    <circle cx="153.5" cy="30" r="5"></circle>
                    <circle cx="153.5" cy="54.7" r="5"></circle>
                    <circle cx="128.8" cy="5.4" r="5"></circle>
                    <circle cx="128.8" cy="30" r="5"></circle>
                    <circle cx="128.8" cy="54.7" r="5"></circle>
                    <circle cx="104.1" cy="5.4" r="5"></circle>
                    <circle cx="104.1" cy="30" r="5"></circle>
                    <circle cx="104.1" cy="54.7" r="5"></circle>
                    <circle cx="79.5" cy="5.4" r="5"></circle>
                    <circle cx="79.5" cy="30" r="5"></circle>
                    <circle cx="79.5" cy="54.7" r="5"></circle>
                    <circle cx="54.8" cy="5.4" r="5"></circle>
                    <circle cx="54.8" cy="30" r="5"></circle>
                    <circle cx="54.8" cy="54.7" r="5"></circle>
                    <circle cx="30.1" cy="5.4" r="5"></circle>
                    <circle cx="30.1" cy="30" r="5"></circle>
                    <circle cx="30.1" cy="54.7" r="5"></circle>
                    <circle cx="5.5" cy="5.4" r="5"></circle>
                    <circle cx="5.5" cy="30" r="5"></circle>
                    <circle cx="5.5" cy="54.7" r="5"></circle>
                </g>
                <g transform="translate(747.000000, 113.000000)">
                    <g fill-rule="nonzero">
                        <rect id="Rectangle" fill="#F3F6E6" x="5.8" y="5.3" width="465" height="414.1"></rect>
                        <path d="M470.8,424.4 L5.8,424.4 C3,424.4 0.8,422.2 0.8,419.4 L0.8,5.3 C0.8,2.5 3,0.3 5.8,0.3 L470.8,0.3 C473.6,0.3 475.8,2.5 475.8,5.3 L475.8,419.4 C475.8,422.2 473.6,424.4 470.8,424.4 Z M10.8,414.4 L465.8,414.4 L465.8,10.3 L10.8,10.3 L10.8,414.4 Z" id="Shape" fill="#383A48"></path>
                    </g>
                    <g fill-rule="nonzero">
                        <rect id="Rectangle" fill="#7FD6C2" x="5.8" y="5.3" width="465" height="123.2"></rect>
                        <path d="M470.8,133.5 L5.8,133.5 C3,133.5 0.8,131.3 0.8,128.5 L0.8,5.3 C0.8,2.5 3,0.3 5.8,0.3 L470.8,0.3 C473.6,0.3 475.8,2.5 475.8,5.3 L475.8,128.5 C475.8,131.2 473.6,133.5 470.8,133.5 Z M10.8,123.5 L465.8,123.5 L465.8,10.3 L10.8,10.3 L10.8,123.5 Z" id="Shape" fill="#383A48"></path>
                    </g>
                    <g transform="translate(99.000000, 126.000000)" fill-rule="nonzero">
                        <g>
                            <circle id="Oval" fill="#F6E049" cx="145.8" cy="145.4" r="140.4"></circle>
                            <path d="M145.8,290.8 C65.6,290.8 0.4,225.6 0.4,145.4 C0.4,65.2 65.6,0 145.8,0 C226,0 291.2,65.2 291.2,145.4 C291.2,225.6 225.9,290.8 145.8,290.8 Z M145.8,10.1 C71.1,10.1 10.4,70.8 10.4,145.5 C10.4,220.2 71.1,280.9 145.8,280.9 C220.5,280.9 281.2,220.2 281.2,145.5 C281.1,70.8 220.4,10.1 145.8,10.1 Z" id="Shape" fill="#383A48"></path>
                        </g>
                        <g transform="translate(95.000000, 154.000000)" fill="#383A48">
                            <path d="M5.6,5.5 C13.4,34.5 30.7,46.4 50.8,46.4 C70.9,46.4 88.1,34.5 96,5.5 L5.6,5.5 Z" id="Path"></path>
                            <path d="M50.8,51.5 C26.3,51.5 8.6,35.7 0.8,6.9 C0.4,5.4 0.7,3.8 1.7,2.6 C2.6,1.4 4.1,0.6 5.7,0.6 L96.1,0.6 C97.7,0.6 99.1,1.3 100.1,2.6 C101,3.8 101.4,5.4 101,6.9 C93,35.6 75.2,51.5 50.8,51.5 Z M12.4,10.5 C19.6,30.8 32.8,41.4 50.8,41.4 C68.8,41.4 82,30.7 89.2,10.5 L12.4,10.5 Z" id="Shape"></path>
                        </g>
                        <g transform="translate(95.000000, 154.000000)">
                            <path d="M17.3,30.3 L84.3,30.3 C92.6,20.6 96,5.5 96,5.5 L5.6,5.5 C5.6,5.5 9.8,21.8 17.3,30.3 Z" id="Path" fill="#F3F6E6"></path>
                            <path d="M84.3,35.3 L17.3,35.3 C15.9,35.3 14.5,34.7 13.5,33.6 C5.3,24.3 0.9,7.5 0.7,6.8 C0.3,5.3 0.6,3.7 1.6,2.5 C2.5,1.3 4,0.6 5.6,0.6 L96,0.6 C97.5,0.6 99,1.3 99.9,2.5 C100.8,3.7 101.2,5.2 100.9,6.7 C100.8,7.4 97.1,23 88.1,33.6 C87.1,34.6 85.7,35.3 84.3,35.3 Z M19.7,25.3 L81.9,25.3 C85.4,20.6 87.8,14.8 89.3,10.5 L12.4,10.5 C14,15 16.5,20.9 19.7,25.3 Z" id="Shape" fill="#383A48"></path>
                        </g>
                        <g transform="translate(171.000000, 111.000000)" id="Path">
                            <path d="M5.5,20.1 C5.5,12.1 12,5.6 20,5.6 C28,5.6 34.5,12.1 34.5,20.1" fill="#F6E049"></path>
                            <path d="M34.4,25.1 C31.6,25.1 29.4,22.9 29.4,20.1 C29.4,14.9 25.1,10.6 19.9,10.6 C14.7,10.6 10.4,14.9 10.4,20.1 C10.4,22.9 8.2,25.1 5.4,25.1 C2.6,25.1 0.4,22.9 0.4,20.1 C0.4,9.4 9.1,0.6 19.9,0.6 C30.7,0.6 39.4,9.3 39.4,20.1 C39.4,22.9 37.2,25.1 34.4,25.1 Z" fill="#383A48"></path>
                        </g>
                        <g transform="translate(81.000000, 111.000000)" id="Path">
                            <path d="M34.1,20.1 C34.1,12.1 27.6,5.6 19.6,5.6 C11.6,5.6 5.1,12.1 5.1,20.1" fill="#F6E049"></path>
                            <path d="M34.1,25.1 C31.3,25.1 29.1,22.9 29.1,20.1 C29.1,14.9 24.8,10.6 19.6,10.6 C14.4,10.6 10.1,14.9 10.1,20.1 C10.1,22.9 7.9,25.1 5.1,25.1 C2.3,25.1 0.1,22.9 0.1,20.1 C0.1,9.4 8.8,0.6 19.6,0.6 C30.4,0.6 39.1,9.3 39.1,20.1 C39.1,22.9 36.8,25.1 34.1,25.1 Z" fill="#383A48"></path>
                        </g>
                    </g>
                    <g transform="translate(296.000000, 49.000000)">
                        <g transform="translate(98.000000, 2.000000)">
                            <g>
                                <line x1="3.6" y1="4.2" x2="26.9" y2="27.5" id="Path"></line>
                                <rect id="Rectangle" fill="#383A48" fill-rule="nonzero" transform="translate(15.299020, 15.903560) rotate(-45.000000) translate(-15.299020, -15.903560) " x="10.299068" y="-0.596281764" width="9.9999041" height="32.9996835"></rect>
                            </g>
                            <g>
                                <line x1="3.6" y1="27.5" x2="26.9" y2="4.2" id="Path"></line>
                                <rect id="Rectangle" fill="#383A48" fill-rule="nonzero" transform="translate(15.460000, 15.740600) rotate(-45.004051) translate(-15.460000, -15.740600) " x="-1.04100853" y="10.7402944" width="33.0020171" height="10.0006112"></rect>
                            </g>
                        </g>
                        <path d="M81.8,35.6 L46.3,35.6 L46.3,0.1 L81.8,0.1 L81.8,35.6 Z M56.4,25.6 L71.9,25.6 L71.9,10.1 L56.4,10.1 L56.4,25.6 Z" id="Shape" fill="#383A48" fill-rule="nonzero"></path>
                        <rect id="Rectangle" fill="#383A48" fill-rule="nonzero" x="0.7" y="25.6" width="25.5" height="10"></rect>
                    </g>
                </g>
                <g transform="translate(0.000000, 14.000000)" fill-rule="nonzero">
                    <g>
                        <rect id="Rectangle" fill="#F3F6E6" x="5.4" y="5.3" width="355.8" height="567.1"></rect>
                        <path d="M361.2,577.4 L5.4,577.4 C2.6,577.4 0.4,575.2 0.4,572.4 L0.4,5.3 C0.4,2.5 2.6,0.3 5.4,0.3 L361.2,0.3 C364,0.3 366.2,2.5 366.2,5.3 L366.2,572.4 C366.2,575.1 364,577.4 361.2,577.4 Z M10.4,567.4 L356.2,567.4 L356.2,10.3 L10.4,10.3 L10.4,567.4 Z" id="Shape" fill="#383A48"></path>
                    </g>
                    <g transform="translate(106.000000, 173.000000)">
                        <g>
                            <rect id="Rectangle" fill="#7FD6C2" x="5.1" y="5.6" width="152.1" height="134.8"></rect>
                            <path d="M157.2,145.4 L5.1,145.4 C2.3,145.4 0.1,143.2 0.1,140.4 L0.1,5.6 C0.1,2.8 2.3,0.6 5.1,0.6 L157.2,0.6 C160,0.6 162.2,2.8 162.2,5.6 L162.2,140.4 C162.2,143.2 160,145.4 157.2,145.4 Z M10.1,135.4 L152.2,135.4 L152.2,10.6 L10.1,10.6 L10.1,135.4 Z" id="Shape" fill="#383A48"></path>
                        </g>
                        <g transform="translate(36.000000, 39.000000)" id="Path">
                            <polyline fill="#7FD6C2" points="5.9 19.3 44 68.7 89.7 5.2"></polyline>
                            <path d="M44,73.7 C42.5,73.7 41,73 40,71.8 L1.9,22.4 C0.2,20.2 0.6,17.1 2.8,15.4 C5,13.7 8.1,14.1 9.8,16.3 L43.8,60.4 L85.6,2.3 C87.2,0.1 90.3,-0.5 92.6,1.2 C94.8,2.8 95.4,5.9 93.7,8.2 L48,71.6 C47.1,72.9 45.6,73.7 44,73.7 L44,73.7 Z" fill="#383A48"></path>
                        </g>
                    </g>
                    <g>
                        <rect id="Rectangle" fill="#E0719E" x="5.4" y="5.3" width="355.8" height="107.7"></rect>
                        <path d="M361.2,118 L5.4,118 C2.6,118 0.4,115.8 0.4,113 L0.4,5.3 C0.4,2.5 2.6,0.3 5.4,0.3 L361.2,0.3 C364,0.3 366.2,2.5 366.2,5.3 L366.2,113 C366.2,115.8 364,118 361.2,118 Z M10.4,108 L356.2,108 L356.2,10.3 L10.4,10.3 L10.4,108 Z" id="Shape" fill="#383A48"></path>
                    </g>
                    <g transform="translate(192.000000, 41.000000)" fill="#F3F6E6">
                        <g transform="translate(98.000000, 2.000000)" id="Rectangle">
                            <rect transform="translate(15.526170, 16.197670) rotate(-45.000000) translate(-15.526170, -16.197670) " x="10.526218" y="-0.302171764" width="9.9999041" height="32.9996835"></rect>
                            <rect transform="translate(15.519170, 16.132210) rotate(-45.004051) translate(-15.519170, -16.132210) " x="-0.981838532" y="11.1319044" width="33.0020171" height="10.0006112"></rect>
                        </g>
                        <path d="M82,35.9 L46.5,35.9 L46.5,0.4 L82,0.4 L82,35.9 Z M56.6,25.9 L72,25.9 L72,10.4 L56.5,10.4 L56.6,25.9 L56.6,25.9 Z" id="Shape"></path>
                        <rect id="Rectangle" x="0.9" y="25.9" width="25.5" height="10"></rect>
                    </g>
                </g>
                <g transform="translate(258.000000, 320.000000)" fill-rule="nonzero">
                    <g>
                        <polygon id="Path" fill="#F3F6E6" points="5.2 5.4 494.8 5.4 494.8 328.2 401.4 410 414.5 478.2 5.2 478.2"></polygon>
                        <path d="M414.5,483.2 L5.2,483.2 C2.4,483.2 0.2,481 0.2,478.2 L0.2,5.4 C0.2,2.6 2.4,0.4 5.2,0.4 L494.8,0.4 C497.6,0.4 499.8,2.6 499.8,5.4 L499.8,328.3 C499.8,329.7 499.2,331.1 498.1,332.1 L406.9,412 L419.4,477.4 C419.7,478.9 419.3,480.4 418.3,481.5 C417.4,482.6 416,483.2 414.5,483.2 Z M10.2,473.2 L408.5,473.2 L396.5,411 C396.2,409.3 396.8,407.5 398.1,406.3 L489.8,326 L489.8,10.4 L10.2,10.4 L10.2,473.2 Z" id="Shape" fill="#383A48"></path>
                    </g>
                    <g>
                        <rect id="Rectangle" fill="#F6E049" x="5.2" y="5.4" width="489.6" height="114.1"></rect>
                        <path d="M494.8,124.5 L5.2,124.5 C2.4,124.5 0.2,122.3 0.2,119.5 L0.2,5.4 C0.2,2.6 2.4,0.4 5.2,0.4 L494.8,0.4 C497.6,0.4 499.8,2.6 499.8,5.4 L499.8,119.5 C499.8,122.2 497.6,124.5 494.8,124.5 Z M10.2,114.5 L489.8,114.5 L489.8,10.4 L10.2,10.4 L10.2,114.5 Z" id="Shape" fill="#383A48"></path>
                    </g>
                    <path d="M492.8,0.4 L464.8,0.4 C462,0.4 459.8,2.6 459.8,5.4 L459.8,247.7 C459.8,250.5 462,252.7 464.8,252.7 L492.8,252.7 C495.6,252.7 497.8,250.5 497.8,247.7 L497.8,5.4 C497.8,2.6 495.6,0.4 492.8,0.4 Z" id="Path" fill="#383A48"></path>
                    <g transform="translate(307.000000, 44.000000)" fill="#383A48">
                        <g transform="translate(98.000000, 3.000000)" id="Rectangle">
                            <rect transform="translate(15.497090, 15.380390) rotate(-45.000000) translate(-15.497090, -15.380390) " x="10.497138" y="-1.11945176" width="9.9999041" height="32.9996835"></rect>
                            <rect transform="translate(15.609530, 15.403440) rotate(-45.004051) translate(-15.609530, -15.403440) " x="-0.891478532" y="10.4031344" width="33.0020171" height="10.0006112"></rect>
                        </g>
                        <path d="M82,36.1 L46.5,36.1 L46.5,0.6 L82,0.6 L82,36.1 Z M56.6,26.1 L72,26.1 L72,10.6 L56.5,10.6 L56.6,26.1 L56.6,26.1 Z" id="Shape"></path>
                        <rect id="Rectangle" x="0.9" y="26.1" width="25.5" height="10"></rect>
                    </g>
                    <g transform="translate(65.000000, 188.000000)">
                        <path d="M190.3,20.1 L190.3,20.1 C171.2,1 140.1,1 121,20.1 L105.4,35.7 L89.8,20.1 C70.7,1 39.6,1 20.5,20.1 L20.5,20.1 C1.4,39.2 1.4,70.3 20.5,89.4 L105.5,174.4 L174.8,105.1 L190.4,89.5 C209.4,70.3 209.4,39.3 190.3,20.1 Z" id="Path" fill="#E0719E"></path>
                        <path d="M105.3,179.4 C104,179.4 102.7,178.9 101.8,177.9 L16.8,92.9 C-4.3,71.8 -4.3,37.6 16.8,16.5 C27,6.3 40.6,0.7 55,0.7 C69.4,0.7 83,6.3 93.2,16.5 L105.3,28.6 L117.4,16.5 C127.6,6.3 141.2,0.7 155.6,0.7 C170,0.7 183.6,6.3 193.8,16.5 C214.9,37.6 214.9,71.8 193.8,92.9 L108.8,177.9 C107.9,178.9 106.6,179.4 105.3,179.4 Z M55,10.8 C43.2,10.8 32.2,15.4 23.9,23.7 C6.7,40.9 6.7,68.8 23.9,86 L105.3,167.4 L186.7,86 C203.9,68.8 203.9,40.9 186.7,23.7 L186.7,23.7 C178.4,15.4 167.3,10.8 155.6,10.8 C143.8,10.8 132.8,15.4 124.5,23.7 L108.9,39.3 C106.9,41.3 103.8,41.3 101.8,39.3 L86.2,23.7 C77.8,15.4 66.8,10.8 55,10.8 Z" id="Shape" fill="#383A48"></path>
                    </g>
                </g>
                <g transform="translate(494.000000, 529.000000)" fill-rule="nonzero">
                    <g>
                        <path d="M533.2,269.6 L383.2,269.6 C383.2,206.8 332.1,155.6 269.2,155.6 C206.3,155.6 155.2,206.7 155.2,269.6 L5.2,269.6 C5.2,199.1 32.7,132.8 82.5,83 C132.3,33.2 198.6,5.7 269.1,5.7 C339.6,5.7 405.9,33.2 455.7,83 C505.7,132.9 533.2,199.1 533.2,269.6 Z" id="Path" fill="#E0719E"></path>
                        <path d="M533.2,274.6 L383.2,274.6 C380.4,274.6 378.2,272.4 378.2,269.6 C378.2,209.5 329.3,160.6 269.2,160.6 C209.1,160.6 160.2,209.5 160.2,269.6 C160.2,272.4 158,274.6 155.2,274.6 L5.2,274.6 C2.4,274.6 0.2,272.4 0.2,269.6 C0.2,197.8 28.2,130.2 79,79.4 C129.8,28.6 197.3,0.6 269.2,0.6 C341,0.6 408.6,28.6 459.4,79.4 C510.2,130.2 538.2,197.7 538.2,269.6 C538.2,272.4 535.9,274.6 533.2,274.6 Z M388.1,264.6 L528.2,264.6 C526.9,197.3 500.1,134.2 452.4,86.5 C403.5,37.6 338.5,10.7 269.3,10.7 C200.1,10.7 135.1,37.6 86.2,86.5 C38.5,134.2 11.7,197.3 10.4,264.6 L150.5,264.6 C153.1,201.3 205.4,150.6 269.3,150.6 C333.2,150.6 385.4,201.4 388.1,264.6 Z" id="Shape" fill="#383A48"></path>
                    </g>
                    <g transform="translate(55.000000, 56.000000)">
                        <path d="M303.5,213.4 L303.5,213.2 C303.4,163.7 263.1,123.4 213.5,123.4 C164,123.4 123.6,163.6 123.5,213.2 L123.5,213.4 L5.1,213.4 C5.1,157.7 26.8,105.4 66.1,66 C105.5,26.6 157.8,5 213.5,5 C269.2,5 321.5,26.7 360.9,66 C400.3,105.4 421.9,157.7 421.9,213.4 L303.5,213.4 Z" id="Path" fill="#F6E049"></path>
                        <path d="M421.9,218.4 L303.5,218.4 C300.7,218.4 298.5,216.2 298.5,213.4 L298.5,213.2 C298.4,166.5 260.3,128.4 213.5,128.4 C166.8,128.4 128.6,166.4 128.5,213.2 L128.5,213.4 C128.5,216.2 126.3,218.4 123.5,218.4 L5.1,218.4 C2.3,218.4 0.1,216.2 0.1,213.4 C0.1,156.4 22.3,102.8 62.6,62.5 C102.9,22.2 156.5,0 213.5,0 C270.5,0 324.1,22.2 364.4,62.5 C404.7,102.8 426.9,156.4 426.9,213.4 C426.9,216.2 424.7,218.4 421.9,218.4 Z M308.3,208.4 L416.8,208.4 C415.5,155.9 394.5,106.8 357.3,69.6 C318.9,31.2 267.8,10 213.5,10 C159.2,10 108.1,31.2 69.7,69.6 C32.5,106.8 11.4,156 10.2,208.4 L118.7,208.4 C121.3,158.4 162.9,118.4 213.5,118.4 C264.1,118.5 305.7,158.4 308.3,208.4 Z" id="Shape" fill="#383A48"></path>
                    </g>
                    <g transform="translate(112.000000, 114.000000)">
                        <path d="M305.7,155.2 L246.4,155.2 C246.3,105.7 206,65.4 156.4,65.4 C106.9,65.4 66.5,105.6 66.4,155.2 L5.6,155.2 C5.6,115.1 21.2,77.5 49.5,49.2 C77.8,20.9 115.5,5.3 155.5,5.3 C195.6,5.3 233.2,20.9 261.6,49.2 C290.1,77.5 305.7,115.2 305.7,155.2 Z" id="Path" fill="#AAC6FC"></path>
                        <path d="M305.7,160.2 L246.4,160.2 C243.6,160.2 241.4,158 241.4,155.2 C241.3,108.5 203.2,70.4 156.4,70.4 C109.7,70.4 71.5,108.4 71.4,155.2 C71.4,158 69.2,160.2 66.4,160.2 L5.6,160.2 C2.8,160.2 0.6,158 0.6,155.2 C0.6,113.8 16.7,74.9 46,45.6 C75.3,16.3 114.2,0.2 155.6,0.2 C197,0.2 235.9,16.3 265.2,45.6 C294.5,74.9 310.6,113.8 310.6,155.2 C310.7,158 308.5,160.2 305.7,160.2 Z M251.3,150.2 L300.6,150.2 C299.4,113.4 284.4,78.9 258.2,52.7 C230.8,25.3 194.4,10.2 155.7,10.2 C117,10.2 80.6,25.3 53.2,52.7 C27,78.9 12.1,113.4 10.8,150.2 L61.6,150.2 C64.3,100.3 105.9,60.4 156.4,60.4 C207.1,60.5 248.6,100.3 251.3,150.2 Z" id="Shape" fill="#383A48"></path>
                    </g>
                </g>
                <g transform="translate(1185.000000, 494.000000)" id="Path">
                    <line x1="5.4" y1="5.1" x2="109.1" y2="108.8"></line>
                    <path d="M109.1,113.8 C107.8,113.8 106.5,113.3 105.6,112.3 L1.9,8.6 C-0.1,6.6 -0.1,3.5 1.9,1.5 C3.9,-0.5 7,-0.5 9,1.5 L112.7,105.2 C114.7,107.2 114.7,110.3 112.7,112.3 C111.6,113.3 110.4,113.8 109.1,113.8 Z" fill="#383A48" fill-rule="nonzero"></path>
                </g>
                <g transform="translate(107.000000, 719.000000)">
                    <rect id="Rectangle" fill="#383A48" fill-rule="nonzero" x="11.5" y="0.7" width="10" height="33"></rect>
                    <g transform="translate(0.000000, 12.000000)">
                        <line x1="0" y1="5.2" x2="32.9" y2="5.2" id="Path"></line>
                        <rect id="Rectangle" fill="#383A48" fill-rule="nonzero" x="0" y="0.2" width="33" height="10"></rect>
                    </g>
                </g>
                <g transform="translate(1090.000000, 27.000000)">
                    <rect id="Rectangle" fill="#383A48" fill-rule="nonzero" x="12.1" y="0.7" width="10" height="33"></rect>
                    <g transform="translate(0.000000, 12.000000)">
                        <line x1="0.6" y1="5.2" x2="33.6" y2="5.2" id="Path"></line>
                        <rect id="Rectangle" fill="#383A48" fill-rule="nonzero" x="0.6" y="0.2" width="33" height="10"></rect>
                    </g>
                </g>
            </g>
        </g>
    </g>
</svg>