<svg xmlns="http://www.w3.org/2000/svg" xmlns:xlink="http://www.w3.org/1999/xlink" width="1589" height="922" version="1.1" viewBox="0 0 1589 922"><title>abstract-page-not-found</title><desc>Created with Sketch.</desc><g id="Page-1" fill="none" fill-rule="evenodd" stroke="none" stroke-width="1"><g id="abstract-page-not-found" transform="translate(-118.000000, -69.000000)"><g id="Group" transform="translate(118.000000, 69.000000)"><rect id="Rectangle" width="501.8" height="372.5" x=".5" y="544" fill="#F6E049" fill-rule="nonzero"/><rect id="Rectangle" width="415.5" height="471" x="1173" y="0" fill="#F6E049" fill-rule="nonzero"/><g fill-rule="nonzero"><g transform="translate(795.000000, 292.000000) translate(0.000000, 153.000000)"><g><rect id="Rectangle" width="466" height="466" x="5" y="5.5" fill="#F3F6E6"/><path id="Shape" fill="#383A48" d="M476,476.5 L0,476.5 L0,0.5 L476,0.5 L476,476.5 Z M10,466.5 L466,466.5 L466,10.5 L10,10.5 L10,466.5 Z"/></g><rect id="Rectangle" width="466" height="119" x="5" y="5.5" fill="#383A48"/><path id="Path" fill="#383A48" d="M414.9,5.5 C402.2,26.1 391.2,51.1 383.2,82.9 C316,348.8 141.3,192.7 5,283.6 L5,5.5 L414.9,5.5 Z"/></g><g transform="translate(795.000000, 292.000000) translate(52.000000, 128.000000)"><g><rect id="Rectangle" width="466" height="466" x="5.9" y="5" fill="#F3F6E6"/><path id="Shape" fill="#383A48" d="M476.9,476 L0.9,476 L0.9,0 L476.9,0 L476.9,476 Z M10.9,466 L466.9,466 L466.9,10 L10.9,10 L10.9,466 L10.9,466 Z"/></g><rect id="Rectangle" width="466" height="119" x="5.9" y="5" fill="#383A48"/><path id="Path" fill="#383A48" d="M369.1,5 C353.7,27.3 340.5,55.1 331.2,91.9 C272.4,324.3 131.6,234.2 6,268.7 L6,5 L369.1,5 Z"/></g><g transform="translate(795.000000, 292.000000) translate(105.000000, 102.000000)"><g><rect id="Rectangle" width="466" height="466" x="5.8" y="5.5" fill="#F3F6E6"/><path id="Shape" fill="#383A48" d="M476.8,476.5 L0.8,476.5 L0.8,0.5 L476.8,0.5 L476.8,476.5 Z M10.8,466.5 L466.8,466.5 L466.8,10.5 L10.8,10.5 L10.8,466.5 Z"/></g><rect id="Rectangle" width="466" height="119" x="5.8" y="5.5" fill="#383A48"/><path id="Path" fill="#383A48" d="M329.4,5.5 C308.4,30.5 290.1,62.8 278.2,109.9 C227.6,310.1 116,271 5.8,278.3 L5.8,5.5 L329.4,5.5 Z"/></g><g transform="translate(795.000000, 292.000000) translate(158.000000, 77.000000)"><g><rect id="Rectangle" width="466" height="466" x="5.8" y="5" fill="#F3F6E6"/><path id="Shape" fill="#383A48" d="M476.8,476 L0.8,476 L0.8,0 L476.8,0 L476.8,476 Z M10.8,466 L466.8,466 L466.8,10 L10.8,10 L10.8,466 Z"/></g><rect id="Rectangle" width="466" height="119" x="5.8" y="5" fill="#383A48"/><path id="Path" fill="#383A48" d="M287,5 C261.6,31.6 239,66.3 225.1,121.3 C182.6,289.3 97.2,288.8 5.7,288.6 L5.7,5 L287,5 Z"/></g><g transform="translate(795.000000, 292.000000) translate(211.000000, 51.000000)"><g><rect id="Rectangle" width="466" height="466" x="5.7" y="5.5" fill="#F3F6E6"/><path id="Shape" fill="#383A48" d="M476.7,476.5 L0.7,476.5 L0.7,0.5 L476.7,0.5 L476.7,476.5 Z M10.7,466.5 L466.7,466.5 L466.7,10.5 L10.7,10.5 L10.7,466.5 Z"/></g><rect id="Rectangle" width="466" height="119" x="5.7" y="5.5" fill="#383A48"/><path id="Path" fill="#383A48" d="M242.5,5.5 C213.7,33.2 187.6,69.3 172.2,130.3 C138.1,265.3 76.2,291.5 5.7,296.5 L5.7,5.5 L242.5,5.5 Z"/></g><g transform="translate(795.000000, 292.000000) translate(264.000000, 26.000000)"><g><rect id="Rectangle" width="466" height="466" x="5.6" y="5" fill="#F3F6E6"/><path id="Shape" fill="#383A48" d="M476.6,476 L0.6,476 L0.6,0 L476.6,0 L476.6,476 Z M10.6,466 L466.6,466 L466.6,10 L10.6,10 L10.6,466 Z"/></g><rect id="Rectangle" width="466" height="119" x="5.6" y="5" fill="#383A48"/><path id="Path" fill="#383A48" d="M204.4,5 C169.9,34.7 137.2,71.9 119.2,143.3 C93.9,243.2 53.5,283.5 5.6,299.8 L5.6,5 L204.4,5 Z"/></g><g transform="translate(795.000000, 292.000000) translate(317.000000, 0.000000)"><g><rect id="Rectangle" width="466" height="466" x="5.5" y="5.5" fill="#F3F6E6"/><path id="Path" fill="#383A48" d="M174.8,5.5 C135.3,37.5 111.4,76 91,157 C73.8,224.8 47,266 5.5,287.7 L5.5,5.5 L174.8,5.5 Z"/><path id="Shape" fill="#383A48" d="M476.5,476.5 L0.5,476.5 L0.5,0.5 L476.5,0.5 L476.5,476.5 Z M10.5,466.5 L466.5,466.5 L466.5,10.5 L10.5,10.5 L10.5,466.5 Z"/></g><rect id="Rectangle" width="466" height="119" x="5.5" y="5.5" fill="#383A48"/></g></g><g transform="translate(221.000000, 0.000000)"><path id="Path" d="M910.3,289.9 L868.4,289.9 L826.5,289.9 L784.6,289.9 L742.7,289.9 L700.8,289.9 L658.9,289.9 L617,289.9 L575.1,289.9 L533.2,289.9 L511.8,289.9 C511.8,289.9 511.8,289.9 511.8,290 L533.2,290 L575.1,290 L617,290 L658.9,290 L700.8,290 L742.7,290 L784.6,290 L826.5,290 L868.4,290 L910.3,289.9 L952.2,290 L981.5,290 C981.5,290 981.5,290 981.5,289.9 L952.2,289.9 L910.3,289.9 Z"/><path id="Path" d="M868.3,373.5 L826.4,373.5 L784.5,373.5 L742.6,373.5 L700.7,373.5 L658.8,373.5 L616.9,373.5 L575,373.5 L533.1,373.5 L491.2,373.5 L475,373.5 C475,373.5 475,373.5 475,373.6 L490.9,373.6 L532.8,373.6 L574.7,373.6 L616.6,373.6 L658.5,373.6 L700.4,373.6 L742.3,373.6 L784.2,373.6 L826.1,373.6 L868.3,373.5 L910.2,373.6 L944.9,373.6 C944.9,373.6 944.9,373.6 944.9,373.5 L910.1,373.5 L868.3,373.5 Z"/><path id="Path" d="M1078,122.8 L1036.1,122.8 L994.2,122.8 L952.3,122.8 L910.4,122.8 L868.5,122.8 L826.6,122.8 L784.7,122.8 L742.8,122.8 L700.9,122.8 L667.1,122.8 C667.1,122.8 667.1,122.8 667.1,122.9 L700.9,122.9 L742.8,122.9 L784.7,122.9 L826.6,122.9 L868.5,122.9 L910.4,122.9 L952.3,122.9 L994.2,122.9 L1036.1,122.9 L1078,122.8 L1119.9,122.9 L1136.8,122.9 C1136.8,122.9 1136.8,122.9 1136.8,122.8 L1119.9,122.8 L1078,122.8 Z"/><path id="Path" d="M994.1,206.4 L952.2,206.4 L910.3,206.4 L868.4,206.4 L826.5,206.4 L784.6,206.4 L742.7,206.4 L700.8,206.4 L658.9,206.4 L617,206.4 L597.9,206.4 C597.9,206.4 597.8,206.4 597.8,206.5 L616.9,206.5 L658.8,206.5 L700.7,206.5 L742.6,206.5 L784.5,206.5 L826.4,206.5 L868.3,206.5 L910.2,206.5 L952.1,206.5 L994.1,206.4 L1036,206.5 L1067.5,206.5 C1067.5,206.5 1067.6,206.5 1067.6,206.4 L1036,206.4 L994.1,206.4 Z"/><path id="Path" d="M868.3,457 L826.4,457 L784.5,457 L742.6,457 L700.7,457 L658.8,457 L616.9,457 L575,457 L533.1,457 L491.2,457 L449,457 L444.4,457 C444.4,457 444.4,457 444.4,457.1 L449.1,457.1 L491,457.1 L532.9,457.1 L574.8,457.1 L616.7,457.1 L658.6,457.1 L700.5,457.1 L742.4,457.1 L784.3,457.1 L826.2,457.1 L868.3,457 L910.2,457.1 L914.3,457.1 C914.3,457.1 914.3,457.1 914.3,457 L910.2,457 L868.3,457 Z"/><path id="Path" d="M407.1,707.7 L365.2,707.7 L323.3,707.7 L281.4,707.7 L239.5,707.7 L197.6,707.7 L155.7,707.7 L113.8,707.7 L71.9,707.7 L30,707.7 L16.4,707.7 C16.4,707.7 16.4,707.7 16.4,707.8 L30,707.8 L71.9,707.8 L113.8,707.8 L155.7,707.8 L197.6,707.8 L239.5,707.8 L281.4,707.8 L323.3,707.8 L365.2,707.8 L407.1,707.7 L449,707.8 L486.1,707.8 C486.1,707.8 486.1,707.8 486.1,707.7 L449,707.7 L407.1,707.7 Z"/><path id="Path" d="M407.1,791.2 L365.2,791.2 L323.3,791.2 L281.4,791.2 L239.5,791.2 L197.6,791.2 L155.7,791.2 L113.8,791.2 L71.9,791.2 L30,791.2 L18.6,791.2 C18.6,791.2 18.6,791.2 18.6,791.3 L30,791.3 L71.9,791.3 L113.8,791.3 L155.7,791.3 L197.6,791.3 L239.5,791.3 L281.4,791.3 L323.3,791.3 L365.2,791.3 L407.1,791.2 L449,791.3 L488.2,791.3 C488.2,791.3 488.2,791.3 488.2,791.2 L449,791.2 L407.1,791.2 Z"/><path id="Path" d="M1078,39.3 L1036.1,39.3 L994.2,39.3 L952.3,39.3 L910.4,39.3 L868.5,39.3 L826.6,39.3 L784.7,39.3 L742.8,39.3 L700.9,39.3 L686.8,39.3 C686.8,39.3 686.8,39.3 686.8,39.4 L700.9,39.4 L742.8,39.4 L784.7,39.4 L826.6,39.4 L868.5,39.4 L910.4,39.4 L952.3,39.4 L994.2,39.4 L1036.1,39.4 L1078,39.3 L1119.9,39.4 L1156.4,39.4 C1156.4,39.4 1156.4,39.4 1156.4,39.3 L1119.9,39.3 L1078,39.3 Z"/><path id="Path" d="M742.5,540.6 L700.6,540.6 L658.7,540.6 L616.8,540.6 L574.9,540.6 L533,540.6 L491.1,540.6 L449,540.6 L407.1,540.6 L365.2,540.6 L323.3,540.6 L320.3,540.6 C320.1,540.6 319.9,540.6 319.7,540.7 L323.3,540.7 L365.2,540.7 L407.1,540.7 L449,540.7 L490.9,540.7 L532.8,540.7 L574.7,540.7 L616.6,540.7 L658.5,540.7 L700.4,540.7 L742.5,540.6 L784.4,540.7 L789.6,540.7 C789.8,540.7 790,540.7 790.2,540.6 L784.4,540.6 L742.5,540.6 Z"/><path id="Path" d="M449,624.1 L407.1,624.1 L365.2,624.1 L323.3,624.1 L281.4,624.1 L239.5,624.1 L197.6,624.1 L155.7,624.1 L113.8,624.1 L71.9,624.1 L45.2,624.1 C45.2,624.1 45.2,624.1 45.2,624.2 L71.9,624.2 L113.8,624.2 L155.7,624.2 L197.6,624.2 L239.5,624.2 L281.4,624.2 L323.3,624.2 L365.2,624.2 L407.1,624.2 L449,624.1 L490.9,624.2 L514.9,624.2 C514.9,624.2 514.9,624.2 514.9,624.1 L490.9,624.1 L449,624.1 Z"/><path id="Path" d="M407.1,874.8 L365.2,874.8 L323.3,874.8 L281.4,874.8 L239.5,874.8 L197.6,874.8 L155.7,874.8 L113.8,874.8 L71.9,874.8 L30,874.8 L13.8,874.8 C13.8,874.8 13.8,874.8 13.8,874.9 L30,874.9 L71.9,874.9 L113.8,874.9 L155.7,874.9 L197.6,874.9 L239.5,874.9 L281.4,874.9 L323.3,874.9 L365.2,874.9 L407.1,874.8 L449,874.9 L483.5,874.9 C483.5,874.9 483.5,874.9 483.5,874.8 L449,874.8 L407.1,874.8 Z"/><path id="Path" fill="#F3F6E6" fill-rule="nonzero" d="M13.5,874.9 C10.6,888.6 6.3,902.5 0,916.5 L29.7,916.5 L29.7,874.9 L13.5,874.9 Z"/><rect id="Rectangle" width="41.9" height="41.6" x="29.7" y="874.9" fill="#BEBFC3" fill-rule="nonzero"/><rect id="Rectangle" width="41.9" height="41.6" x="71.6" y="874.9" fill="#F3F6E6" fill-rule="nonzero"/><rect id="Rectangle" width="41.9" height="41.6" x="113.6" y="874.9" fill="#BEBFC3" fill-rule="nonzero"/><rect id="Rectangle" width="41.9" height="41.6" x="155.5" y="874.9" fill="#F3F6E6" fill-rule="nonzero"/><rect id="Rectangle" width="41.9" height="41.6" x="197.4" y="874.9" fill="#BEBFC3" fill-rule="nonzero"/><rect id="Rectangle" width="41.9" height="41.6" x="239.3" y="874.9" fill="#F3F6E6" fill-rule="nonzero"/><rect id="Rectangle" width="41.9" height="41.6" x="281.3" y="874.9" fill="#BEBFC3" fill-rule="nonzero"/><rect id="Rectangle" width="41.9" height="41.6" x="323.2" y="874.9" fill="#F3F6E6" fill-rule="nonzero"/><rect id="Rectangle" width="41.9" height="41.6" x="365.1" y="874.9" fill="#BEBFC3" fill-rule="nonzero"/><rect id="Rectangle" width="41.9" height="41.6" x="407.1" y="874.9" fill="#F3F6E6" fill-rule="nonzero"/><path id="Path" fill="#BEBFC3" fill-rule="nonzero" d="M449,916.5 L470,916.5 C476.3,902.4 480.6,888.6 483.5,874.9 L449,874.9 L449,916.5 Z"/><path id="Path" fill="#F3F6E6" fill-rule="nonzero" d="M29.7,791.3 L18.3,791.3 C18.9,805 19.3,818.9 18.6,833 L29.7,833 L29.7,791.3 L29.7,791.3 Z"/><rect id="Rectangle" width="41.9" height="41.7" x="29.7" y="791.3" fill="#BEBFC3" fill-rule="nonzero"/><rect id="Rectangle" width="41.9" height="41.7" x="71.6" y="791.3" fill="#F3F6E6" fill-rule="nonzero"/><rect id="Rectangle" width="41.9" height="41.7" x="113.6" y="791.3" fill="#BEBFC3" fill-rule="nonzero"/><rect id="Rectangle" width="41.9" height="41.7" x="155.5" y="791.3" fill="#F3F6E6" fill-rule="nonzero"/><rect id="Rectangle" width="41.9" height="41.7" x="197.4" y="791.3" fill="#BEBFC3" fill-rule="nonzero"/><rect id="Rectangle" width="41.9" height="41.7" x="239.3" y="791.3" fill="#F3F6E6" fill-rule="nonzero"/><rect id="Rectangle" width="41.9" height="41.7" x="281.3" y="791.3" fill="#BEBFC3" fill-rule="nonzero"/><rect id="Rectangle" width="41.9" height="41.7" x="323.2" y="791.3" fill="#F3F6E6" fill-rule="nonzero"/><rect id="Rectangle" width="41.9" height="41.7" x="365.1" y="791.3" fill="#BEBFC3" fill-rule="nonzero"/><rect id="Rectangle" width="41.9" height="41.7" x="407.1" y="791.3" fill="#F3F6E6" fill-rule="nonzero"/><path id="Path" fill="#BEBFC3" fill-rule="nonzero" d="M449,833.1 L488.6,833.1 C489.2,819 488.9,805.1 488.3,791.4 L449,791.4 L449,833.1 Z"/><path id="Path" fill="#BEBFC3" fill-rule="nonzero" d="M29.7,833.1 L18.6,833.1 C18,846.8 16.5,860.7 13.5,874.8 L29.7,874.8 L29.7,833.1 L29.7,833.1 Z"/><rect id="Rectangle" width="41.9" height="41.7" x="29.7" y="833.1" fill="#F3F6E6" fill-rule="nonzero"/><rect id="Rectangle" width="41.9" height="41.7" x="71.6" y="833.1" fill="#BEBFC3" fill-rule="nonzero"/><rect id="Rectangle" width="41.9" height="41.7" x="113.6" y="833.1" fill="#F3F6E6" fill-rule="nonzero"/><rect id="Rectangle" width="41.9" height="41.7" x="155.5" y="833.1" fill="#BEBFC3" fill-rule="nonzero"/><rect id="Rectangle" width="41.9" height="41.7" x="197.4" y="833.1" fill="#F3F6E6" fill-rule="nonzero"/><rect id="Rectangle" width="41.9" height="41.7" x="239.3" y="833.1" fill="#BEBFC3" fill-rule="nonzero"/><rect id="Rectangle" width="41.9" height="41.7" x="281.3" y="833.1" fill="#F3F6E6" fill-rule="nonzero"/><rect id="Rectangle" width="41.9" height="41.7" x="323.2" y="833.1" fill="#BEBFC3" fill-rule="nonzero"/><rect id="Rectangle" width="41.9" height="41.7" x="365.1" y="833.1" fill="#F3F6E6" fill-rule="nonzero"/><rect id="Rectangle" width="41.9" height="41.7" x="407.1" y="833.1" fill="#BEBFC3" fill-rule="nonzero"/><path id="Path" fill="#F3F6E6" fill-rule="nonzero" d="M449,874.8 L483.5,874.8 C486.5,860.7 488,846.8 488.6,833.1 L449,833.1 L449,874.8 Z"/><path id="Path" fill="#F3F6E6" fill-rule="nonzero" d="M29.7,707.8 L16.1,707.8 C15.2,721.5 15.4,735.4 16,749.5 L29.7,749.5 L29.7,707.8 L29.7,707.8 Z"/><rect id="Rectangle" width="41.9" height="41.7" x="29.7" y="707.8" fill="#BEBFC3" fill-rule="nonzero"/><rect id="Rectangle" width="41.9" height="41.7" x="71.6" y="707.8" fill="#F3F6E6" fill-rule="nonzero"/><rect id="Rectangle" width="41.9" height="41.7" x="113.6" y="707.8" fill="#BEBFC3" fill-rule="nonzero"/><rect id="Rectangle" width="41.9" height="41.7" x="155.5" y="707.8" fill="#F3F6E6" fill-rule="nonzero"/><rect id="Rectangle" width="41.9" height="41.7" x="197.4" y="707.8" fill="#BEBFC3" fill-rule="nonzero"/><rect id="Rectangle" width="41.9" height="41.7" x="239.3" y="707.8" fill="#F3F6E6" fill-rule="nonzero"/><rect id="Rectangle" width="41.9" height="41.7" x="281.3" y="707.8" fill="#BEBFC3" fill-rule="nonzero"/><rect id="Rectangle" width="41.9" height="41.7" x="323.2" y="707.8" fill="#F3F6E6" fill-rule="nonzero"/><rect id="Rectangle" width="41.9" height="41.7" x="365.1" y="707.8" fill="#BEBFC3" fill-rule="nonzero"/><rect id="Rectangle" width="41.9" height="41.7" x="407.1" y="707.8" fill="#F3F6E6" fill-rule="nonzero"/><path id="Path" fill="#BEBFC3" fill-rule="nonzero" d="M449,749.5 L486,749.5 C485.4,735.4 485.1,721.4 486.1,707.8 L449,707.8 L449,749.5 Z"/><path id="Path" fill="#BEBFC3" fill-rule="nonzero" d="M29.7,749.5 L16,749.5 C16.6,763.2 17.6,777.1 18.3,791.2 L29.7,791.2 L29.7,749.5 L29.7,749.5 Z"/><rect id="Rectangle" width="41.9" height="41.7" x="29.7" y="749.5" fill="#F3F6E6" fill-rule="nonzero"/><rect id="Rectangle" width="41.9" height="41.7" x="71.6" y="749.5" fill="#BEBFC3" fill-rule="nonzero"/><rect id="Rectangle" width="41.9" height="41.7" x="113.6" y="749.5" fill="#F3F6E6" fill-rule="nonzero"/><rect id="Rectangle" width="41.9" height="41.7" x="155.5" y="749.5" fill="#BEBFC3" fill-rule="nonzero"/><rect id="Rectangle" width="41.9" height="41.7" x="197.4" y="749.5" fill="#F3F6E6" fill-rule="nonzero"/><rect id="Rectangle" width="41.9" height="41.7" x="239.3" y="749.5" fill="#BEBFC3" fill-rule="nonzero"/><rect id="Rectangle" width="41.9" height="41.7" x="281.3" y="749.5" fill="#F3F6E6" fill-rule="nonzero"/><rect id="Rectangle" width="41.9" height="41.7" x="323.2" y="749.5" fill="#BEBFC3" fill-rule="nonzero"/><rect id="Rectangle" width="41.9" height="41.7" x="365.1" y="749.5" fill="#F3F6E6" fill-rule="nonzero"/><rect id="Rectangle" width="41.9" height="41.7" x="407.1" y="749.5" fill="#BEBFC3" fill-rule="nonzero"/><path id="Path" fill="#F3F6E6" fill-rule="nonzero" d="M449,791.2 L488.2,791.2 C487.5,777.1 486.6,763.2 485.9,749.5 L448.9,749.5 L449,791.2 L449,791.2 Z"/><path id="Path" fill="#F3F6E6" fill-rule="nonzero" d="M29.7,650.2 C27.3,655.4 25.3,660.7 23.7,666 L29.7,666 L29.7,650.2 Z"/><path id="Path" fill="#BEBFC3" fill-rule="nonzero" d="M71.6,665.9 L71.6,624.2 L44.9,624.2 C38.6,632.8 33.7,641.4 29.7,650.2 L29.7,666 L71.6,665.9 L71.6,665.9 Z"/><rect id="Rectangle" width="41.9" height="41.7" x="71.6" y="624.2" fill="#F3F6E6" fill-rule="nonzero"/><rect id="Rectangle" width="41.9" height="41.7" x="113.6" y="624.2" fill="#BEBFC3" fill-rule="nonzero"/><rect id="Rectangle" width="41.9" height="41.7" x="155.5" y="624.2" fill="#F3F6E6" fill-rule="nonzero"/><rect id="Rectangle" width="41.9" height="41.7" x="197.4" y="624.2" fill="#BEBFC3" fill-rule="nonzero"/><rect id="Rectangle" width="41.9" height="41.7" x="239.3" y="624.2" fill="#F3F6E6" fill-rule="nonzero"/><rect id="Rectangle" width="41.9" height="41.7" x="281.3" y="624.2" fill="#BEBFC3" fill-rule="nonzero"/><rect id="Rectangle" width="41.9" height="41.7" x="323.2" y="624.2" fill="#F3F6E6" fill-rule="nonzero"/><rect id="Rectangle" width="41.9" height="41.7" x="365.1" y="624.2" fill="#BEBFC3" fill-rule="nonzero"/><rect id="Rectangle" width="41.9" height="41.7" x="407.1" y="624.2" fill="#F3F6E6" fill-rule="nonzero"/><rect id="Rectangle" width="41.9" height="41.7" x="449" y="624.2" fill="#BEBFC3" fill-rule="nonzero"/><path id="Path" fill="#F3F6E6" fill-rule="nonzero" d="M490.9,665.9 L493.6,665.9 C498.1,651.7 504.9,637.8 514.8,624.2 L490.8,624.2 L490.9,665.9 L490.9,665.9 Z"/><path id="Path" fill="#BEBFC3" fill-rule="nonzero" d="M29.7,665.9 L23.7,665.9 C19.4,679.6 17.1,693.5 16.1,707.6 L29.7,707.6 L29.7,665.9 Z"/><rect id="Rectangle" width="41.9" height="41.7" x="29.7" y="665.9" fill="#F3F6E6" fill-rule="nonzero"/><rect id="Rectangle" width="41.9" height="41.7" x="71.6" y="665.9" fill="#BEBFC3" fill-rule="nonzero"/><rect id="Rectangle" width="41.9" height="41.7" x="113.6" y="665.9" fill="#F3F6E6" fill-rule="nonzero"/><rect id="Rectangle" width="41.9" height="41.7" x="155.5" y="665.9" fill="#BEBFC3" fill-rule="nonzero"/><rect id="Rectangle" width="41.9" height="41.7" x="197.4" y="665.9" fill="#F3F6E6" fill-rule="nonzero"/><rect id="Rectangle" width="41.9" height="41.7" x="239.3" y="665.9" fill="#BEBFC3" fill-rule="nonzero"/><rect id="Rectangle" width="41.9" height="41.7" x="281.3" y="665.9" fill="#F3F6E6" fill-rule="nonzero"/><rect id="Rectangle" width="41.9" height="41.7" x="323.2" y="665.9" fill="#BEBFC3" fill-rule="nonzero"/><rect id="Rectangle" width="41.9" height="41.7" x="365.1" y="665.9" fill="#F3F6E6" fill-rule="nonzero"/><rect id="Rectangle" width="41.9" height="41.7" x="407.1" y="665.9" fill="#BEBFC3" fill-rule="nonzero"/><path id="Path" fill="#F3F6E6" fill-rule="nonzero" d="M449,665.9 L449,707.6 L486.1,707.6 C486.9,696.7 488.3,686 491,675.5 L491,665.9 L449,665.9 L449,665.9 Z"/><path id="Path" fill="#BEBFC3" fill-rule="nonzero" d="M490.9,675.5 C491.7,672.3 492.6,669.1 493.6,665.9 L490.9,665.9 L490.9,675.5 Z"/><path id="Path" fill="#F3F6E6" fill-rule="nonzero" d="M113.6,566.1 C106.2,569.9 98.8,574.4 91.5,579.5 C90.2,580.5 88.8,581.4 87.5,582.4 L113.5,582.4 L113.5,566.1 L113.6,566.1 Z"/><path id="Path" fill="#BEBFC3" fill-rule="nonzero" d="M155.5,582.4 L155.5,550.7 C141.3,554.1 127.3,559 113.6,566.1 L113.6,582.4 L155.5,582.4 L155.5,582.4 Z"/><path id="Path" fill="#F3F6E6" fill-rule="nonzero" d="M197.4,582.4 L197.4,544.3 C183.3,545.4 169.3,547.3 155.5,550.7 L155.5,582.4 L197.4,582.4 L197.4,582.4 Z"/><path id="Path" fill="#BEBFC3" fill-rule="nonzero" d="M239.3,582.4 L239.3,542.8 C225.4,542.9 211.4,543.2 197.4,544.3 L197.4,582.4 L239.3,582.4 Z"/><path id="Path" fill="#F3F6E6" fill-rule="nonzero" d="M281.3,582.4 L281.3,542.7 C267.5,542.9 253.5,542.7 239.4,542.8 L239.4,582.4 L281.3,582.4 L281.3,582.4 Z"/><path id="Path" fill="#BEBFC3" fill-rule="nonzero" d="M323.2,582.4 L323.2,540.7 L319.6,540.7 C307.1,542.1 294.3,542.6 281.2,542.8 L281.2,582.5 L323.2,582.4 L323.2,582.4 Z"/><rect id="Rectangle" width="41.9" height="41.7" x="323.2" y="540.6" fill="#F3F6E6" fill-rule="nonzero"/><rect id="Rectangle" width="41.9" height="41.7" x="365.1" y="540.6" fill="#BEBFC3" fill-rule="nonzero"/><rect id="Rectangle" width="41.9" height="41.7" x="407.1" y="540.6" fill="#F3F6E6" fill-rule="nonzero"/><rect id="Rectangle" width="41.9" height="41.7" x="449" y="540.6" fill="#BEBFC3" fill-rule="nonzero"/><rect id="Rectangle" width="41.9" height="41.7" x="490.9" y="540.6" fill="#F3F6E6" fill-rule="nonzero"/><path id="Path" fill="#BEBFC3" fill-rule="nonzero" d="M532.9,540.6 L532.9,582.3 L557.6,582.3 C558.9,581.3 560.2,580.4 561.6,579.4 C566,576.3 570.4,573.4 574.9,570.8 L574.9,540.6 L532.9,540.6 Z"/><path id="Path" fill="#F3F6E6" fill-rule="nonzero" d="M574.8,540.6 L574.8,570.8 C588.5,562.8 602.5,557 616.7,552.9 L616.7,540.6 L574.8,540.6 L574.8,540.6 Z"/><path id="Path" fill="#BEBFC3" fill-rule="nonzero" d="M616.7,540.6 L616.7,553 C630.5,549 644.5,546.6 658.6,545.1 L658.6,540.7 L616.7,540.6 L616.7,540.6 Z"/><path id="Path" fill="#F3F6E6" fill-rule="nonzero" d="M658.7,540.6 L658.7,545 C672.7,543.5 686.7,543 700.6,542.8 L700.6,540.6 L658.7,540.6 L658.7,540.6 Z"/><path id="Path" fill="#BEBFC3" fill-rule="nonzero" d="M700.6,540.6 L700.6,542.8 C714.7,542.6 728.7,542.8 742.5,542.7 L742.5,540.5 L700.6,540.6 L700.6,540.6 Z"/><path id="Path" fill="#F3F6E6" fill-rule="nonzero" d="M742.5,540.6 L742.5,542.8 C756.7,542.7 770.8,542.4 784.4,541.2 L784.4,540.7 L742.5,540.7 L742.5,540.6 Z"/><path id="Path" fill="#BEBFC3" fill-rule="nonzero" d="M784.5,541.2 C786.2,541 787.9,540.9 789.7,540.7 L784.5,540.7 L784.5,541.2 Z"/><path id="Path" fill="#F3F6E6" fill-rule="nonzero" d="M71.6,595.3 C60.8,604.8 52.1,614.4 44.9,624.2 L71.6,624.2 L71.6,595.3 Z"/><path id="Path" fill="#BEBFC3" fill-rule="nonzero" d="M113.6,624.1 L113.6,582.4 L87.6,582.4 C81.9,586.7 76.6,590.9 71.7,595.3 L71.7,624.2 L113.6,624.2 L113.6,624.1 Z"/><rect id="Rectangle" width="41.9" height="41.7" x="113.6" y="582.4" fill="#F3F6E6" fill-rule="nonzero"/><rect id="Rectangle" width="41.9" height="41.7" x="155.5" y="582.4" fill="#BEBFC3" fill-rule="nonzero"/><rect id="Rectangle" width="41.9" height="41.7" x="197.4" y="582.4" fill="#F3F6E6" fill-rule="nonzero"/><rect id="Rectangle" width="41.9" height="41.7" x="239.3" y="582.4" fill="#BEBFC3" fill-rule="nonzero"/><rect id="Rectangle" width="41.9" height="41.7" x="281.3" y="582.4" fill="#F3F6E6" fill-rule="nonzero"/><rect id="Rectangle" width="41.9" height="41.7" x="323.2" y="582.4" fill="#BEBFC3" fill-rule="nonzero"/><rect id="Rectangle" width="41.9" height="41.7" x="365.1" y="582.4" fill="#F3F6E6" fill-rule="nonzero"/><rect id="Rectangle" width="41.9" height="41.7" x="407.1" y="582.4" fill="#BEBFC3" fill-rule="nonzero"/><rect id="Rectangle" width="41.9" height="41.7" x="449" y="582.4" fill="#F3F6E6" fill-rule="nonzero"/><path id="Path" fill="#BEBFC3" fill-rule="nonzero" d="M490.9,582.4 L490.9,624.1 L514.9,624.1 C520,617.1 525.9,610.2 532.8,603.4 L532.8,582.4 L490.9,582.4 Z"/><path id="Path" fill="#F3F6E6" fill-rule="nonzero" d="M532.9,603.4 C540,596.3 548.2,589.3 557.6,582.4 L532.9,582.4 L532.9,603.4 Z"/><path id="Path" fill="#F3F6E6" fill-rule="nonzero" d="M449,457.1 L444.3,457.1 C435.1,474.2 424.9,487.9 414.1,498.8 L449,498.8 L449,457.1 Z"/><rect id="Rectangle" width="41.9" height="41.7" x="449" y="457.1" fill="#BEBFC3" fill-rule="nonzero"/><rect id="Rectangle" width="41.9" height="41.7" x="490.9" y="457.1" fill="#F3F6E6" fill-rule="nonzero"/><rect id="Rectangle" width="41.9" height="41.7" x="532.9" y="457.1" fill="#BEBFC3" fill-rule="nonzero"/><rect id="Rectangle" width="41.9" height="41.7" x="574.8" y="457.1" fill="#F3F6E6" fill-rule="nonzero"/><rect id="Rectangle" width="41.9" height="41.7" x="616.7" y="457.1" fill="#BEBFC3" fill-rule="nonzero"/><rect id="Rectangle" width="41.9" height="41.7" x="658.7" y="457.1" fill="#F3F6E6" fill-rule="nonzero"/><rect id="Rectangle" width="41.9" height="41.7" x="700.6" y="457.1" fill="#BEBFC3" fill-rule="nonzero"/><rect id="Rectangle" width="41.9" height="41.7" x="742.5" y="457.1" fill="#F3F6E6" fill-rule="nonzero"/><rect id="Rectangle" width="41.9" height="41.7" x="784.5" y="457.1" fill="#BEBFC3" fill-rule="nonzero"/><rect id="Rectangle" width="41.9" height="41.7" x="826.4" y="457.1" fill="#F3F6E6" fill-rule="nonzero"/><path id="Path" fill="#BEBFC3" fill-rule="nonzero" d="M868.3,457.1 L868.3,498.8 L884.1,498.8 C893.4,489.4 902.1,478.1 910.3,464.3 L910.3,457.1 L868.3,457.1 Z"/><path id="Path" fill="#F3F6E6" fill-rule="nonzero" d="M910.3,464.3 C911.7,462 913,459.6 914.4,457.1 L910.3,457.1 L910.3,464.3 Z"/><path id="Path" fill="#F3F6E6" fill-rule="nonzero" d="M323.2,540.2 C322.2,540.3 321.2,540.4 320.2,540.5 L323.2,540.5 L323.2,540.2 Z"/><path id="Path" fill="#BEBFC3" fill-rule="nonzero" d="M365.1,540.6 L365.1,530.5 C351.7,535.5 337.6,538.5 323.2,540.3 L323.2,540.6 L365.1,540.6 L365.1,540.6 Z"/><path id="Path" fill="#F3F6E6" fill-rule="nonzero" d="M407.1,540.6 L407.1,505.5 C394,517 380,525 365.2,530.5 L365.2,540.6 L407.1,540.6 Z"/><path id="Path" fill="#BEBFC3" fill-rule="nonzero" d="M449,540.6 L449,498.9 L414.1,498.9 C411.8,501.2 409.4,503.4 407.1,505.5 L407.1,540.6 L449,540.6 L449,540.6 Z"/><rect id="Rectangle" width="41.9" height="41.7" x="449" y="498.8" fill="#F3F6E6" fill-rule="nonzero"/><rect id="Rectangle" width="41.9" height="41.7" x="490.9" y="498.8" fill="#BEBFC3" fill-rule="nonzero"/><rect id="Rectangle" width="41.9" height="41.7" x="532.9" y="498.8" fill="#F3F6E6" fill-rule="nonzero"/><rect id="Rectangle" width="41.9" height="41.7" x="574.8" y="498.8" fill="#BEBFC3" fill-rule="nonzero"/><rect id="Rectangle" width="41.9" height="41.7" x="616.7" y="498.8" fill="#F3F6E6" fill-rule="nonzero"/><rect id="Rectangle" width="41.9" height="41.7" x="658.7" y="498.8" fill="#BEBFC3" fill-rule="nonzero"/><rect id="Rectangle" width="41.9" height="41.7" x="700.6" y="498.8" fill="#F3F6E6" fill-rule="nonzero"/><rect id="Rectangle" width="41.9" height="41.7" x="742.5" y="498.8" fill="#BEBFC3" fill-rule="nonzero"/><path id="Path" fill="#F3F6E6" fill-rule="nonzero" d="M784.5,498.8 L784.5,540.5 L790.3,540.5 C802.7,539.1 814.8,536.9 826.5,533.3 L826.5,498.7 L784.5,498.8 L784.5,498.8 Z"/><path id="Path" fill="#BEBFC3" fill-rule="nonzero" d="M826.4,498.8 L826.4,533.4 C841.1,528.9 855.2,522.3 868.3,512.5 L868.3,498.8 L826.4,498.8 L826.4,498.8 Z"/><path id="Path" fill="#F3F6E6" fill-rule="nonzero" d="M868.3,512.5 C873.7,508.5 879,503.9 884.1,498.8 L868.3,498.8 L868.3,512.5 Z"/><path id="Path" fill="#BEBFC3" fill-rule="nonzero" d="M490.9,373.5 L475,373.5 C474.8,374.2 474.7,374.8 474.5,375.5 C470.8,390 466.9,403.2 462.6,415.3 L491,415.3 L490.9,373.5 L490.9,373.5 Z"/><rect id="Rectangle" width="41.9" height="41.7" x="490.9" y="373.5" fill="#F3F6E6" fill-rule="nonzero"/><rect id="Rectangle" width="41.9" height="41.7" x="532.9" y="373.5" fill="#BEBFC3" fill-rule="nonzero"/><rect id="Rectangle" width="41.9" height="41.7" x="574.8" y="373.5" fill="#F3F6E6" fill-rule="nonzero"/><rect id="Rectangle" width="41.9" height="41.7" x="616.7" y="373.5" fill="#BEBFC3" fill-rule="nonzero"/><rect id="Rectangle" width="41.9" height="41.7" x="658.7" y="373.5" fill="#F3F6E6" fill-rule="nonzero"/><rect id="Rectangle" width="41.9" height="41.7" x="700.6" y="373.5" fill="#BEBFC3" fill-rule="nonzero"/><rect id="Rectangle" width="41.9" height="41.7" x="742.5" y="373.5" fill="#F3F6E6" fill-rule="nonzero"/><rect id="Rectangle" width="41.9" height="41.7" x="784.5" y="373.5" fill="#BEBFC3" fill-rule="nonzero"/><rect id="Rectangle" width="41.9" height="41.7" x="826.4" y="373.5" fill="#F3F6E6" fill-rule="nonzero"/><rect id="Rectangle" width="41.9" height="41.7" x="868.3" y="373.5" fill="#BEBFC3" fill-rule="nonzero"/><path id="Path" fill="#F3F6E6" fill-rule="nonzero" d="M910.3,415.3 L932.6,415.3 C936.9,403.2 940.9,390 944.5,375.5 C944.7,374.8 944.8,374.2 945,373.5 L910.3,373.5 L910.3,415.3 L910.3,415.3 Z"/><path id="Path" fill="#BEBFC3" fill-rule="nonzero" d="M449,448 C447.5,451.1 445.9,454.1 444.4,457 L449,457 L449,448 Z"/><path id="Path" fill="#F3F6E6" fill-rule="nonzero" d="M490.9,457 L490.9,415.3 L462.5,415.3 C458.3,427.3 453.7,438.2 448.9,448 L448.9,457 L490.9,457 Z"/><rect id="Rectangle" width="41.9" height="41.7" x="490.9" y="415.3" fill="#BEBFC3" fill-rule="nonzero"/><rect id="Rectangle" width="41.9" height="41.7" x="532.9" y="415.3" fill="#F3F6E6" fill-rule="nonzero"/><rect id="Rectangle" width="41.9" height="41.7" x="574.8" y="415.3" fill="#BEBFC3" fill-rule="nonzero"/><rect id="Rectangle" width="41.9" height="41.7" x="616.7" y="415.3" fill="#F3F6E6" fill-rule="nonzero"/><rect id="Rectangle" width="41.9" height="41.7" x="658.7" y="415.3" fill="#BEBFC3" fill-rule="nonzero"/><rect id="Rectangle" width="41.9" height="41.7" x="700.6" y="415.3" fill="#F3F6E6" fill-rule="nonzero"/><rect id="Rectangle" width="41.9" height="41.7" x="742.5" y="415.3" fill="#BEBFC3" fill-rule="nonzero"/><rect id="Rectangle" width="41.9" height="41.7" x="784.5" y="415.3" fill="#F3F6E6" fill-rule="nonzero"/><rect id="Rectangle" width="41.9" height="41.7" x="826.4" y="415.3" fill="#BEBFC3" fill-rule="nonzero"/><rect id="Rectangle" width="41.9" height="41.7" x="868.3" y="415.3" fill="#F3F6E6" fill-rule="nonzero"/><path id="Path" fill="#BEBFC3" fill-rule="nonzero" d="M910.3,457 L914.4,457 C920.9,444.9 927,431 932.6,415.3 L910.3,415.3 L910.3,457 L910.3,457 Z"/><path id="Path" fill="#BEBFC3" fill-rule="nonzero" d="M490.9,327.2 C490.2,328.7 489.6,330.2 488.9,331.8 L490.9,331.8 L490.9,327.2 Z"/><path id="Path" fill="#F3F6E6" fill-rule="nonzero" d="M532.9,331.7 L532.9,290 L511.5,290 C504.1,300.9 497.2,313.2 491,327.2 L491,331.8 L532.9,331.8 L532.9,331.7 Z"/><rect id="Rectangle" width="41.9" height="41.7" x="532.9" y="290" fill="#BEBFC3" fill-rule="nonzero"/><rect id="Rectangle" width="41.9" height="41.7" x="574.8" y="290" fill="#F3F6E6" fill-rule="nonzero"/><rect id="Rectangle" width="41.9" height="41.7" x="616.7" y="290" fill="#BEBFC3" fill-rule="nonzero"/><rect id="Rectangle" width="41.9" height="41.7" x="658.7" y="290" fill="#F3F6E6" fill-rule="nonzero"/><rect id="Rectangle" width="41.9" height="41.7" x="700.6" y="290" fill="#BEBFC3" fill-rule="nonzero"/><rect id="Rectangle" width="41.9" height="41.7" x="742.5" y="290" fill="#F3F6E6" fill-rule="nonzero"/><rect id="Rectangle" width="41.9" height="41.7" x="784.5" y="290" fill="#BEBFC3" fill-rule="nonzero"/><rect id="Rectangle" width="41.9" height="41.7" x="826.4" y="290" fill="#F3F6E6" fill-rule="nonzero"/><rect id="Rectangle" width="41.9" height="41.7" x="868.3" y="290" fill="#BEBFC3" fill-rule="nonzero"/><rect id="Rectangle" width="41.9" height="41.7" x="910.3" y="290" fill="#F3F6E6" fill-rule="nonzero"/><path id="Path" fill="#BEBFC3" fill-rule="nonzero" d="M952.2,331.7 L959,331.7 C965.7,315.8 973.3,302.1 981.5,290 L952.2,290 L952.2,331.7 Z"/><path id="Path" fill="#F3F6E6" fill-rule="nonzero" d="M490.9,331.7 L488.9,331.7 C483.6,344.2 479,358 475,373.4 L490.9,373.4 L490.9,331.7 Z"/><rect id="Rectangle" width="41.9" height="41.7" x="490.9" y="331.7" fill="#BEBFC3" fill-rule="nonzero"/><rect id="Rectangle" width="41.9" height="41.7" x="532.9" y="331.7" fill="#F3F6E6" fill-rule="nonzero"/><rect id="Rectangle" width="41.9" height="41.7" x="574.8" y="331.7" fill="#BEBFC3" fill-rule="nonzero"/><rect id="Rectangle" width="41.9" height="41.7" x="616.7" y="331.7" fill="#F3F6E6" fill-rule="nonzero"/><rect id="Rectangle" width="41.9" height="41.7" x="658.7" y="331.7" fill="#BEBFC3" fill-rule="nonzero"/><rect id="Rectangle" width="41.9" height="41.7" x="700.6" y="331.7" fill="#F3F6E6" fill-rule="nonzero"/><rect id="Rectangle" width="41.9" height="41.7" x="742.5" y="331.7" fill="#BEBFC3" fill-rule="nonzero"/><rect id="Rectangle" width="41.9" height="41.7" x="784.5" y="331.7" fill="#F3F6E6" fill-rule="nonzero"/><rect id="Rectangle" width="41.9" height="41.7" x="826.4" y="331.7" fill="#BEBFC3" fill-rule="nonzero"/><rect id="Rectangle" width="41.9" height="41.7" x="868.3" y="331.7" fill="#F3F6E6" fill-rule="nonzero"/><path id="Path" fill="#BEBFC3" fill-rule="nonzero" d="M910.3,331.7 L910.3,373.4 L945.1,373.4 C947.3,364.9 949.7,357 952.3,349.4 L952.3,331.6 L910.3,331.7 L910.3,331.7 Z"/><path id="Path" fill="#F3F6E6" fill-rule="nonzero" d="M952.2,349.5 C954.3,343.3 956.6,337.4 959,331.7 L952.2,331.7 L952.2,349.5 Z"/><path id="Path" fill="#BEBFC3" fill-rule="nonzero" d="M574.8,224.7 C565.6,232.1 556.5,239.8 547.5,248.2 L574.8,248.2 L574.8,224.7 Z"/><path id="Path" fill="#F3F6E6" fill-rule="nonzero" d="M616.7,248.2 L616.7,206.5 L597.6,206.5 C590.1,212.6 582.5,218.6 574.8,224.8 L574.8,248.3 L616.7,248.2 L616.7,248.2 Z"/><rect id="Rectangle" width="41.9" height="41.7" x="616.7" y="206.4" fill="#BEBFC3" fill-rule="nonzero"/><rect id="Rectangle" width="41.9" height="41.7" x="658.7" y="206.4" fill="#F3F6E6" fill-rule="nonzero"/><rect id="Rectangle" width="41.9" height="41.7" x="700.6" y="206.4" fill="#BEBFC3" fill-rule="nonzero"/><rect id="Rectangle" width="41.9" height="41.7" x="742.5" y="206.4" fill="#F3F6E6" fill-rule="nonzero"/><rect id="Rectangle" width="41.9" height="41.7" x="784.5" y="206.4" fill="#BEBFC3" fill-rule="nonzero"/><rect id="Rectangle" width="41.9" height="41.7" x="826.4" y="206.4" fill="#F3F6E6" fill-rule="nonzero"/><rect id="Rectangle" width="41.9" height="41.7" x="868.3" y="206.4" fill="#BEBFC3" fill-rule="nonzero"/><rect id="Rectangle" width="41.9" height="41.7" x="910.3" y="206.4" fill="#F3F6E6" fill-rule="nonzero"/><rect id="Rectangle" width="41.9" height="41.7" x="952.2" y="206.4" fill="#BEBFC3" fill-rule="nonzero"/><path id="Path" fill="#F3F6E6" fill-rule="nonzero" d="M994.1,206.4 L994.1,248.1 L1017.5,248.1 C1023.6,242.4 1029.8,237 1036,231.8 L1036,206.4 L994.1,206.4 L994.1,206.4 Z"/><path id="Path" fill="#BEBFC3" fill-rule="nonzero" d="M1036.1,231.9 C1046.6,223.1 1057.3,214.9 1067.6,206.5 L1036.1,206.5 L1036.1,231.9 Z"/><path id="Path" fill="#BEBFC3" fill-rule="nonzero" d="M532.9,263 C525.5,271.1 518.3,280 511.5,289.9 L532.9,289.9 L532.9,263 Z"/><path id="Path" fill="#F3F6E6" fill-rule="nonzero" d="M574.8,289.9 L574.8,248.2 L547.5,248.2 C542.5,252.9 537.6,257.8 532.8,263 L532.8,289.9 L574.8,289.9 L574.8,289.9 Z"/><rect id="Rectangle" width="41.9" height="41.7" x="574.8" y="248.2" fill="#BEBFC3" fill-rule="nonzero"/><rect id="Rectangle" width="41.9" height="41.7" x="616.7" y="248.2" fill="#F3F6E6" fill-rule="nonzero"/><rect id="Rectangle" width="41.9" height="41.7" x="658.7" y="248.2" fill="#BEBFC3" fill-rule="nonzero"/><rect id="Rectangle" width="41.9" height="41.7" x="700.6" y="248.2" fill="#F3F6E6" fill-rule="nonzero"/><rect id="Rectangle" width="41.9" height="41.7" x="742.5" y="248.2" fill="#BEBFC3" fill-rule="nonzero"/><rect id="Rectangle" width="41.9" height="41.7" x="784.5" y="248.2" fill="#F3F6E6" fill-rule="nonzero"/><rect id="Rectangle" width="41.9" height="41.7" x="826.4" y="248.2" fill="#BEBFC3" fill-rule="nonzero"/><rect id="Rectangle" width="41.9" height="41.7" x="868.3" y="248.2" fill="#F3F6E6" fill-rule="nonzero"/><rect id="Rectangle" width="41.9" height="41.7" x="910.3" y="248.2" fill="#BEBFC3" fill-rule="nonzero"/><path id="Path" fill="#F3F6E6" fill-rule="nonzero" d="M952.2,248.2 L952.2,289.9 L981.5,289.9 C985.6,283.9 989.8,278.3 994.1,273 L994.1,248.1 L952.2,248.2 L952.2,248.2 Z"/><path id="Path" fill="#BEBFC3" fill-rule="nonzero" d="M994.1,273.1 C1001.6,264 1009.5,255.8 1017.5,248.2 L994.1,248.2 L994.1,273.1 Z"/><path id="Path" fill="#BEBFC3" fill-rule="nonzero" d="M658.7,139 C653.4,148.4 647.5,156.8 641.2,164.6 L658.7,164.6 L658.7,139 Z"/><path id="Path" fill="#F3F6E6" fill-rule="nonzero" d="M700.6,164.6 L700.6,122.9 L666.8,122.9 C664.3,128.6 661.6,134 658.7,139.1 L658.7,164.7 L700.6,164.7 L700.6,164.6 Z"/><rect id="Rectangle" width="41.9" height="41.7" x="700.6" y="122.9" fill="#BEBFC3" fill-rule="nonzero"/><rect id="Rectangle" width="41.9" height="41.7" x="742.5" y="122.9" fill="#F3F6E6" fill-rule="nonzero"/><rect id="Rectangle" width="41.9" height="41.7" x="784.5" y="122.9" fill="#BEBFC3" fill-rule="nonzero"/><rect id="Rectangle" width="41.9" height="41.7" x="826.4" y="122.9" fill="#F3F6E6" fill-rule="nonzero"/><rect id="Rectangle" width="41.9" height="41.7" x="868.3" y="122.9" fill="#BEBFC3" fill-rule="nonzero"/><rect id="Rectangle" width="41.9" height="41.7" x="910.3" y="122.9" fill="#F3F6E6" fill-rule="nonzero"/><rect id="Rectangle" width="41.9" height="41.7" x="952.2" y="122.9" fill="#BEBFC3" fill-rule="nonzero"/><rect id="Rectangle" width="41.9" height="41.7" x="994.1" y="122.9" fill="#F3F6E6" fill-rule="nonzero"/><rect id="Rectangle" width="41.9" height="41.7" x="1036.1" y="122.9" fill="#BEBFC3" fill-rule="nonzero"/><path id="Path" fill="#F3F6E6" fill-rule="nonzero" d="M1078,122.9 L1078,164.6 L1111.2,164.6 C1114.2,160.9 1117.2,157 1120,152.9 L1120,122.8 L1078,122.8 L1078,122.9 Z"/><path id="Path" fill="#BEBFC3" fill-rule="nonzero" d="M1119.9,153 C1126.1,144 1131.8,134.1 1136.8,122.9 L1119.9,122.9 L1119.9,153 Z"/><path id="Path" fill="#BEBFC3" fill-rule="nonzero" d="M616.7,190.1 C610.5,195.7 604.1,201.1 597.6,206.4 L616.7,206.4 L616.7,190.1 Z"/><path id="Path" fill="#F3F6E6" fill-rule="nonzero" d="M658.7,206.4 L658.7,164.7 L641.2,164.7 C633.6,174 625.4,182.3 616.8,190.2 L616.8,206.5 L658.7,206.5 L658.7,206.4 Z"/><rect id="Rectangle" width="41.9" height="41.7" x="658.7" y="164.6" fill="#BEBFC3" fill-rule="nonzero"/><rect id="Rectangle" width="41.9" height="41.7" x="700.6" y="164.6" fill="#F3F6E6" fill-rule="nonzero"/><rect id="Rectangle" width="41.9" height="41.7" x="742.5" y="164.6" fill="#BEBFC3" fill-rule="nonzero"/><rect id="Rectangle" width="41.9" height="41.7" x="784.5" y="164.6" fill="#F3F6E6" fill-rule="nonzero"/><rect id="Rectangle" width="41.9" height="41.7" x="826.4" y="164.6" fill="#BEBFC3" fill-rule="nonzero"/><rect id="Rectangle" width="41.9" height="41.7" x="868.3" y="164.6" fill="#F3F6E6" fill-rule="nonzero"/><rect id="Rectangle" width="41.9" height="41.7" x="910.3" y="164.6" fill="#BEBFC3" fill-rule="nonzero"/><rect id="Rectangle" width="41.9" height="41.7" x="952.2" y="164.6" fill="#F3F6E6" fill-rule="nonzero"/><rect id="Rectangle" width="41.9" height="41.7" x="994.1" y="164.6" fill="#BEBFC3" fill-rule="nonzero"/><path id="Path" fill="#F3F6E6" fill-rule="nonzero" d="M1036.1,164.6 L1036.1,206.3 L1067.7,206.3 C1071.2,203.5 1074.6,200.6 1078,197.7 L1078,164.5 L1036.1,164.6 L1036.1,164.6 Z"/><path id="Path" fill="#BEBFC3" fill-rule="nonzero" d="M1078,197.8 C1089.8,187.7 1101,177.1 1111.2,164.6 L1078,164.6 L1078,197.8 Z"/><path id="Path" fill="#F3F6E6" fill-rule="nonzero" d="M700.6,39.3 L686.5,39.3 C685.2,54.6 683.1,68.5 680.3,81 L700.6,81 L700.6,39.3 Z"/><rect id="Rectangle" width="41.9" height="41.7" x="700.6" y="39.3" fill="#BEBFC3" fill-rule="nonzero"/><rect id="Rectangle" width="41.9" height="41.7" x="742.5" y="39.3" fill="#F3F6E6" fill-rule="nonzero"/><rect id="Rectangle" width="41.9" height="41.7" x="784.5" y="39.3" fill="#BEBFC3" fill-rule="nonzero"/><rect id="Rectangle" width="41.9" height="41.7" x="826.4" y="39.3" fill="#F3F6E6" fill-rule="nonzero"/><rect id="Rectangle" width="41.9" height="41.7" x="868.3" y="39.3" fill="#BEBFC3" fill-rule="nonzero"/><rect id="Rectangle" width="41.9" height="41.7" x="910.3" y="39.3" fill="#F3F6E6" fill-rule="nonzero"/><rect id="Rectangle" width="41.9" height="41.7" x="952.2" y="39.3" fill="#BEBFC3" fill-rule="nonzero"/><rect id="Rectangle" width="41.9" height="41.7" x="994.1" y="39.3" fill="#F3F6E6" fill-rule="nonzero"/><rect id="Rectangle" width="41.9" height="41.7" x="1036.1" y="39.3" fill="#BEBFC3" fill-rule="nonzero"/><rect id="Rectangle" width="41.9" height="41.7" x="1078" y="39.3" fill="#F3F6E6" fill-rule="nonzero"/><path id="Path" fill="#BEBFC3" fill-rule="nonzero" d="M1119.9,81.1 L1150.3,81.1 C1153.1,68.5 1155.2,54.7 1156.5,39.4 L1120,39.4 L1119.9,81.1 L1119.9,81.1 Z"/><path id="Path" fill="#BEBFC3" fill-rule="nonzero" d="M700.6,81.1 L680.3,81.1 C676.8,96.8 672.3,110.6 666.8,122.8 L700.6,122.8 L700.6,81.1 Z"/><rect id="Rectangle" width="41.9" height="41.7" x="700.6" y="81.1" fill="#F3F6E6" fill-rule="nonzero"/><rect id="Rectangle" width="41.9" height="41.7" x="742.5" y="81.1" fill="#BEBFC3" fill-rule="nonzero"/><rect id="Rectangle" width="41.9" height="41.7" x="784.5" y="81.1" fill="#F3F6E6" fill-rule="nonzero"/><rect id="Rectangle" width="41.9" height="41.7" x="826.4" y="81.1" fill="#BEBFC3" fill-rule="nonzero"/><rect id="Rectangle" width="41.9" height="41.7" x="868.3" y="81.1" fill="#F3F6E6" fill-rule="nonzero"/><rect id="Rectangle" width="41.9" height="41.7" x="910.3" y="81.1" fill="#BEBFC3" fill-rule="nonzero"/><rect id="Rectangle" width="41.9" height="41.7" x="952.2" y="81.1" fill="#F3F6E6" fill-rule="nonzero"/><rect id="Rectangle" width="41.9" height="41.7" x="994.1" y="81.1" fill="#BEBFC3" fill-rule="nonzero"/><rect id="Rectangle" width="41.9" height="41.7" x="1036.1" y="81.1" fill="#F3F6E6" fill-rule="nonzero"/><rect id="Rectangle" width="41.9" height="41.7" x="1078" y="81.1" fill="#BEBFC3" fill-rule="nonzero"/><path id="Path" fill="#F3F6E6" fill-rule="nonzero" d="M1119.9,122.8 L1136.8,122.8 C1142.2,110.6 1146.8,96.8 1150.3,81.1 L1119.9,81.1 L1119.9,122.8 Z"/><path id="Path" fill="#BEBFC3" fill-rule="nonzero" d="M700.6,0 L688,0 C688,14.1 687.5,27.1 686.5,39.3 L700.6,39.3 L700.6,0 Z"/><rect id="Rectangle" width="41.9" height="39.3" x="700.6" y="0" fill="#F3F6E6" fill-rule="nonzero"/><rect id="Rectangle" width="41.9" height="39.3" x="742.5" y="0" fill="#BEBFC3" fill-rule="nonzero"/><rect id="Rectangle" width="41.9" height="39.3" x="784.5" y="0" fill="#F3F6E6" fill-rule="nonzero"/><rect id="Rectangle" width="41.9" height="39.3" x="826.4" y="0" fill="#BEBFC3" fill-rule="nonzero"/><rect id="Rectangle" width="41.9" height="39.3" x="868.3" y="0" fill="#F3F6E6" fill-rule="nonzero"/><rect id="Rectangle" width="41.9" height="39.3" x="910.3" y="0" fill="#BEBFC3" fill-rule="nonzero"/><rect id="Rectangle" width="41.9" height="39.3" x="952.2" y="0" fill="#F3F6E6" fill-rule="nonzero"/><rect id="Rectangle" width="41.9" height="39.3" x="994.1" y="0" fill="#BEBFC3" fill-rule="nonzero"/><rect id="Rectangle" width="41.9" height="39.3" x="1036.1" y="0" fill="#F3F6E6" fill-rule="nonzero"/><rect id="Rectangle" width="41.9" height="39.3" x="1078" y="0" fill="#BEBFC3" fill-rule="nonzero"/><path id="Path" fill="#F3F6E6" fill-rule="nonzero" d="M1119.9,39.3 L1156.4,39.3 C1157.4,27.2 1158,14.1 1157.9,0 L1119.8,0 L1119.9,39.3 L1119.9,39.3 Z"/></g><g id="Path" fill="#383A48" fill-rule="nonzero"><path d="M52.8,52.3 C69.2,35.9 88.8,22.8 110.2,13.9 C131.6,5 154.8,0.4 177.9,0.4 C201.1,0.4 224.2,5 245.6,13.9 C267,22.7 286.6,35.9 303,52.3 C319.4,68.7 332.5,88.3 341.4,109.7 C350.3,131.1 354.9,154.3 354.9,177.4 C354.9,200.6 350.3,223.7 341.4,245.1 C332.6,266.5 319.4,286.1 303,302.5 L295.9,295.4 C311.4,279.9 323.8,261.4 332.1,241.2 C340.5,221 344.8,199.2 344.8,177.3 C344.8,155.4 340.5,133.6 332.1,113.4 C323.8,93.2 311.4,74.7 295.9,59.2 C280.4,43.7 261.9,31.3 241.7,23 C221.5,14.6 199.7,10.3 177.8,10.3 C155.9,10.3 134.1,14.6 113.9,23 C93.7,31.3 75.2,43.7 59.7,59.2 L52.8,52.3 Z" transform="translate(170.000000, 55.000000)"/><path d="M303.1,302.7 C234,371.8 121.9,371.8 52.8,302.7 C-16.3,233.6 -16.3,121.5 52.8,52.4" transform="translate(170.000000, 55.000000)"/></g><polygon id="Path" fill="#383A48" fill-rule="nonzero" points="1554.5 89.9 1525.1 60.5 1487.5 98.2 1449.9 60.5 1420.5 89.9 1458.2 127.5 1420.5 165.1 1449.9 194.5 1487.5 156.8 1525.1 194.5 1554.5 165.1 1516.8 127.5"/><path id="XMLID_2_" fill="#383A48" fill-rule="nonzero" d="M1389,0 L1388.8,11.8 L1388.7,17.7 C1388.7,19.7 1388.5,21.6 1388.4,23.6 L1387.8,35.4 L1386.7,47.2 C1385,62.9 1382.5,78.6 1378.4,94.1 C1374.2,109.6 1368.6,124.8 1361,139.2 C1353.5,153.6 1343.9,166.9 1333.1,178.9 C1327.8,185 1322,190.5 1316.2,196 C1313.3,198.6 1310.3,201.3 1307.3,203.9 C1304.3,206.4 1301.3,209 1298.3,211.5 C1286.3,221.4 1274.1,230.8 1262.5,240.5 C1239.3,259.9 1218.5,281 1204,306.9 L1195.4,301.7 L1201.4,291.8 L1202.1,290.6 L1202.9,289.4 L1204.6,287 L1207.9,282.3 C1210.2,279.2 1212.6,276.2 1215,273.2 C1217.5,270.3 1220,267.3 1222.5,264.5 C1232.8,253.1 1244.2,242.7 1256,232.8 C1267.8,222.9 1280,213.5 1291.9,203.8 C1294.9,201.4 1297.8,198.9 1300.7,196.4 C1303.6,193.9 1306.5,191.3 1309.3,188.7 C1314.9,183.4 1320.4,178.1 1325.5,172.3 C1335.8,160.9 1344.9,148.3 1352,134.6 C1359.2,121 1364.6,106.5 1368.6,91.6 C1372.6,76.7 1375,61.5 1376.6,46.2 L1377.7,34.7 L1378.3,23.2 C1378.4,21.3 1378.5,19.4 1378.6,17.4 L1378.7,11.6 L1379,0 L1389,0 Z"/><g id="Oval" fill="#383A48" fill-rule="nonzero" transform="translate(1281.000000, 533.000000)"><circle cx="5.8" cy="5" r="5"/><circle cx="50.8" cy="5" r="5"/><circle cx="95.8" cy="5" r="5"/><circle cx="140.8" cy="5" r="5"/></g><g id="Oval" fill="#383A48" fill-rule="nonzero" transform="translate(1281.000000, 576.000000)"><circle cx="5.8" cy="5.5" r="5"/><circle cx="50.8" cy="5.5" r="5"/><circle cx="95.8" cy="5.5" r="5"/><circle cx="140.8" cy="5.5" r="5"/></g><g id="Oval" fill="#383A48" fill-rule="nonzero" transform="translate(1281.000000, 620.000000)"><circle cx="5.8" cy="5" r="5"/><circle cx="50.8" cy="5" r="5"/><circle cx="95.8" cy="5" r="5"/><circle cx="140.8" cy="5" r="5"/></g><g id="Oval" fill="#383A48" fill-rule="nonzero" transform="translate(1281.000000, 663.000000)"><circle cx="5.8" cy="5.5" r="5"/><circle cx="50.8" cy="5.5" r="5"/><circle cx="95.8" cy="5.5" r="5"/><circle cx="140.8" cy="5.5" r="5"/></g><g id="Shape" fill="#383A48" fill-rule="nonzero"><path d="M145.2,195.2 L131.4,261 L114.3,261 L128.1,195.2 L0.1,195.2 L3.8,178.1 L167.3,0.9 L186.6,0.9 L148.5,178.9 L175.3,178.9 L171.8,195.3 L145.2,195.3 L145.2,195.2 L145.2,195.2 Z M22.4,179.2 L131.4,179.2 L164.1,24.5 L22.4,179.2 Z" transform="translate(34.000000, 626.000000)"/><path d="M375.3,219.1 L324.6,261 L243.5,261 L210.4,219.2 L247.8,42.7 L298.4,0.9 L379.5,0.9 L412.8,42.7 L375.3,219.1 Z M228.2,215.2 L251.4,245 L318.2,245 L360,210.4 L389.8,70.5 L228.2,215.2 Z M263,51.6 L233.2,191.3 L394.6,46.6 L371.4,16.8 L304.8,16.8 L263,51.6 Z" transform="translate(34.000000, 626.000000)"/><path d="M561.2,195.2 L547.5,261 L530.4,261 L544.2,195.2 L416.2,195.2 L419.9,178.1 L583.4,0.9 L602.7,0.9 L564.6,178.9 L591.4,178.9 L587.9,195.3 L561.2,195.3 L561.2,195.2 L561.2,195.2 Z M438.5,179.2 L547.5,179.2 L580.2,24.5 L438.5,179.2 Z" transform="translate(34.000000, 626.000000)"/></g><line id="Path" x1="694.8" x2="977.1" y1="55.5" y2="337.8" stroke="#383A48" stroke-linecap="round" stroke-width="10"/><polygon id="Path" fill="#F3F6E6" fill-rule="nonzero" points="99.5 310.5 .5 310.5 .5 409.5"/></g></g></g></svg>