<?xml version="1.0" encoding="UTF-8"?>
<svg width="1298px" height="724px" viewBox="0 0 1298 724" version="1.1" xmlns="http://www.w3.org/2000/svg" xmlns:xlink="http://www.w3.org/1999/xlink">
    <!-- Generator: Sketch 59.1 (86144) - https://sketch.com -->
    <title>abstract</title>
    <desc>Created with Sketch.</desc>
    <g id="Page-1" stroke="none" stroke-width="1" fill="none" fill-rule="evenodd">
        <g id="abstract" transform="translate(-311.000000, -178.000000)" fill-rule="nonzero">
            <g id="Group" transform="translate(311.000000, 104.000000)">
                <path d="M733.2,390.2 C732.4,388.3 730.6,387.1 728.6,387.1 L662.9,387.1 C660.1,387.1 657.9,389.3 657.9,392.1 L657.9,457.8 C657.9,459.8 659.1,461.6 661,462.4 C661.6,462.7 662.3,462.8 662.9,462.8 C664.2,462.8 665.5,462.3 666.4,461.3 L732.1,395.6 C733.5,394.3 733.9,392.1 733.2,390.2 Z" id="Path" fill="#4053FA"></path>
                <path d="M520.6,279.4 C481.1,266.6 440.1,280.2 416.2,314.1 C414.8,316.1 415,318.9 416.8,320.6 L575.1,471 C576,471.9 577.3,472.4 578.5,472.4 C579.2,472.4 579.8,472.3 580.4,472 C582.2,471.2 583.4,469.4 583.5,467.5 L584.7,368.8 C585.2,327.3 560,292.2 520.6,279.4 Z" id="Path" fill="#F3F6E6"></path>
                <path d="M1294.4,280.2 C1292.7,279.3 1290.7,279.5 1289.2,280.6 C1229.4,323.4 1194,387.7 1162.7,444.4 C1123.3,515.9 1089.3,577.6 1019.1,582.6 C889.4,591.8 840.4,636.4 788.5,683.7 C743.9,724.4 697.7,766.4 594.4,788 C591.9,788.5 590.2,790.9 590.4,793.4 C590.6,795.9 592.8,797.9 595.4,797.9 L1292.1,797.9 C1294.9,797.9 1297.1,795.7 1297.1,792.9 L1297.1,284.6 C1297.1,282.7 1296.1,281 1294.4,280.2 Z" id="Path" fill="#F3F6E6"></path>
                <path d="M414.9,74.1 L5.9,74.1 C3.1,74.1 0.9,76.3 0.9,79.1 L0.9,471.4 C0.9,473.5 2.2,475.3 4.1,476.1 C4.7,476.3 5.3,476.4 5.9,476.4 C7.3,476.4 8.6,475.8 9.6,474.8 C10.5,473.8 103.9,372.8 203.7,288.4 C233.4,263.3 247.8,231.1 261.8,199.9 C286.5,144.7 309.8,92.6 415.4,84.2 C418.1,84 420.1,81.7 420.003591,79 C419.8,76.2 417.6,74.1 414.9,74.1 Z" id="Path" fill="#F3F6E6"></path>
                <circle id="Oval" fill="#383A48" cx="565.4" cy="499.3" r="4.2"></circle>
                <circle id="Oval" fill="#383A48" cx="565.4" cy="536.1" r="4.2"></circle>
                <circle id="Oval" fill="#383A48" cx="565.4" cy="572.9" r="4.2"></circle>
                <circle id="Oval" fill="#383A48" cx="565.4" cy="609.7" r="4.2"></circle>
                <circle id="Oval" fill="#383A48" cx="565.4" cy="646.5" r="4.2"></circle>
                <circle id="Oval" fill="#383A48" cx="565.4" cy="683.3" r="4.2"></circle>
                <circle id="Oval" fill="#383A48" cx="565.4" cy="720.1" r="4.2"></circle>
                <circle id="Oval" fill="#383A48" cx="565.4" cy="757" r="4.2"></circle>
                <g transform="translate(325.000000, 211.000000)" fill="#F3F6E6" id="Rectangle">
                    <rect x="12.3" y="0.6" width="10" height="33"></rect>
                    <rect x="0.9" y="12.1" width="33" height="10"></rect>
                </g>
                <g transform="translate(712.000000, 95.000000)" fill="#F3F6E6" id="Rectangle">
                    <rect x="11.5" y="0.5" width="10" height="33"></rect>
                    <rect x="0.1" y="12" width="33" height="10"></rect>
                </g>
                <g transform="translate(657.000000, 533.000000)" fill="#383A48" id="Shape">
                    <path d="M237.7,264.9 C215.3,264.9 194,255.5 175.8,237.9 C157.6,255.5 136.3,264.9 113.9,264.9 C83.3,264.9 54.6,247.1 33.3,214.7 C12.3,182.9 0.8,140.8 0.8,96.1 C0.8,93.3 3,91.1 5.8,91.1 C8.6,91.1 10.8,93.3 10.8,96.1 C10.8,183.7 57.1,255 113.9,255 C134.1,255 152.9,246.1 168.8,230.7 C164.7,226 160.7,220.9 157,215.3 C136,183.8 124.5,141.8 124.5,97.2 C124.5,37.2 151.1,0.1 175.7,0.1 C200.4,0.1 227,37.2 227,97.2 C227,141.9 215.5,183.8 194.5,215.3 C190.8,220.9 186.8,226 182.7,230.7 C198.6,246.1 217.5,255 237.6,255 C240.4,255 242.6,257.2 242.6,260 C242.6,262.8 240.5,264.9 237.7,264.9 Z M175.8,9.9 C156.3,9.9 134.6,45.7 134.6,97 C134.6,148.5 150.8,194.4 175.8,223.2 C200.8,194.4 217.000343,148.5 217.000343,97 C217.1,45.7 195.3,9.9 175.8,9.9 Z"></path>
                    <path d="M485.3,264.9 C462.9,264.9 441.6,255.5 423.4,237.9 C405.2,255.5 383.9,264.9 361.5,264.9 C358.7,264.9 356.5,262.7 356.5,259.9 C356.5,257.1 358.7,254.9 361.5,254.9 C381.7,254.9 400.5,246 416.4,230.6 C412.3,225.9 408.3,220.8 404.6,215.2 C383.6,183.7 372.1,141.7 372.1,97.1 C372.1,37.1 398.7,0 423.4,0 C448,0 474.6,37.1 474.6,97.1 C474.6,141.8 463.1,183.7 442.1,215.2 C438.4,220.8 434.4,225.9 430.3,230.6 C446.2,246 465.1,254.9 485.2,254.9 C542.1,254.9 588.3,183.6 588.3,96 C588.3,93.2 590.5,91 593.3,91 C596.1,91 598.3,93.2 598.3,96 C598.3,140.7 586.8,182.9 565.8,214.6 C544.5,247 515.9,264.9 485.3,264.9 Z M423.4,9.9 C403.9,9.9 382.1,45.7 382.1,97 C382.1,148.5 398.3,194.4 423.3,223.2 C448.3,194.4 464.5,148.5 464.5,97 C464.5,72.1 459.5,49.2 450.3,32.5 C442.8,18.4 432.7,9.9 423.4,9.9 Z"></path>
                    <path d="M361.5,264.9 C339.1,264.9 317.8,255.5 299.6,237.9 C281.4,255.5 260.1,264.9 237.7,264.9 C234.9,264.9 232.7,262.7 232.7,259.9 C232.7,257.1 234.9,254.9 237.7,254.9 C257.9,254.9 276.7,246 292.6,230.6 C288.5,225.9 284.5,220.8 280.8,215.2 C259.8,183.7 248.3,141.7 248.3,97.1 C248.3,37.1 274.9,0 299.5,0 C324.2,0 350.8,37.1 350.8,97.1 C350.8,141.8 339.3,183.7 318.3,215.2 C314.6,220.8 310.6,225.9 306.5,230.6 C322.4,246 341.3,254.9 361.4,254.9 C364.2,254.9 366.4,257.1 366.4,259.9 C366.4,262.7 364.3,264.9 361.5,264.9 Z M299.5,9.9 C280,9.9 258.3,45.7 258.3,97 C258.3,148.5 274.5,194.4 299.5,223.2 C324.5,194.4 340.7,148.5 340.7,97 C340.9,45.7 319.1,9.9 299.5,9.9 Z"></path>
                </g>
                <g transform="translate(0.000000, 311.000000)">
                    <g transform="translate(252.000000, 155.000000)">
                        <rect id="Rectangle" fill="#F3F6E6" x="5.4" y="5.4" width="325.7" height="321.5"></rect>
                        <path d="M331.1,331.9 L5.4,331.9 C2.6,331.9 0.4,329.7 0.4,326.9 L0.4,5.4 C0.4,2.6 2.6,0.4 5.4,0.4 L331.1,0.4 C333.9,0.4 336.1,2.6 336.1,5.4 L336.1,326.9 C336.1,329.6 333.8,331.9 331.1,331.9 Z M10.4,321.9 L326.1,321.9 L326.1,10.4 L10.4,10.4 L10.4,321.9 Z" id="Shape" fill="#383A48"></path>
                    </g>
                    <circle id="Oval" fill="#383A48" cx="528.6" cy="188.3" r="4.2"></circle>
                    <circle id="Oval" fill="#383A48" cx="528.6" cy="225.1" r="4.2"></circle>
                    <circle id="Oval" fill="#383A48" cx="528.6" cy="261.9" r="4.2"></circle>
                    <circle id="Oval" fill="#383A48" cx="528.6" cy="298.7" r="4.2"></circle>
                    <circle id="Oval" fill="#383A48" cx="528.6" cy="335.5" r="4.2"></circle>
                    <circle id="Oval" fill="#383A48" cx="528.6" cy="372.3" r="4.2"></circle>
                    <circle id="Oval" fill="#383A48" cx="528.6" cy="409.1" r="4.2"></circle>
                    <circle id="Oval" fill="#383A48" cx="528.6" cy="446" r="4.2"></circle>
                    <circle id="Oval" fill="#383A48" cx="491.8" cy="188.3" r="4.2"></circle>
                    <circle id="Oval" fill="#383A48" cx="491.8" cy="225.1" r="4.2"></circle>
                    <circle id="Oval" fill="#383A48" cx="491.8" cy="261.9" r="4.2"></circle>
                    <circle id="Oval" fill="#383A48" cx="491.8" cy="298.7" r="4.2"></circle>
                    <circle id="Oval" fill="#383A48" cx="491.8" cy="335.5" r="4.2"></circle>
                    <circle id="Oval" fill="#383A48" cx="491.8" cy="372.3" r="4.2"></circle>
                    <circle id="Oval" fill="#383A48" cx="491.8" cy="409.1" r="4.2"></circle>
                    <circle id="Oval" fill="#383A48" cx="491.8" cy="446" r="4.2"></circle>
                    <circle id="Oval" fill="#383A48" cx="455" cy="188.3" r="4.2"></circle>
                    <circle id="Oval" fill="#383A48" cx="455" cy="225.1" r="4.2"></circle>
                    <circle id="Oval" fill="#383A48" cx="455" cy="261.9" r="4.2"></circle>
                    <circle id="Oval" fill="#383A48" cx="455" cy="298.7" r="4.2"></circle>
                    <circle id="Oval" fill="#383A48" cx="455" cy="335.5" r="4.2"></circle>
                    <circle id="Oval" fill="#383A48" cx="455" cy="372.3" r="4.2"></circle>
                    <circle id="Oval" fill="#383A48" cx="455" cy="409.1" r="4.2"></circle>
                    <circle id="Oval" fill="#383A48" cx="455" cy="446" r="4.2"></circle>
                    <circle id="Oval" fill="#383A48" cx="418.2" cy="188.3" r="4.2"></circle>
                    <circle id="Oval" fill="#383A48" cx="418.2" cy="225.1" r="4.2"></circle>
                    <circle id="Oval" fill="#383A48" cx="418.2" cy="261.9" r="4.2"></circle>
                    <circle id="Oval" fill="#383A48" cx="418.2" cy="298.7" r="4.2"></circle>
                    <circle id="Oval" fill="#383A48" cx="418.2" cy="335.5" r="4.2"></circle>
                    <circle id="Oval" fill="#383A48" cx="418.2" cy="372.3" r="4.2"></circle>
                    <circle id="Oval" fill="#383A48" cx="418.2" cy="409.1" r="4.2"></circle>
                    <circle id="Oval" fill="#383A48" cx="418.2" cy="446" r="4.2"></circle>
                    <circle id="Oval" fill="#383A48" cx="381.4" cy="188.3" r="4.2"></circle>
                    <circle id="Oval" fill="#383A48" cx="381.4" cy="225.1" r="4.2"></circle>
                    <circle id="Oval" fill="#383A48" cx="381.4" cy="261.9" r="4.2"></circle>
                    <circle id="Oval" fill="#383A48" cx="381.4" cy="298.7" r="4.2"></circle>
                    <circle id="Oval" fill="#383A48" cx="381.4" cy="335.5" r="4.2"></circle>
                    <circle id="Oval" fill="#383A48" cx="381.4" cy="372.3" r="4.2"></circle>
                    <circle id="Oval" fill="#383A48" cx="381.4" cy="409.1" r="4.2"></circle>
                    <circle id="Oval" fill="#383A48" cx="381.4" cy="446" r="4.2"></circle>
                    <circle id="Oval" fill="#383A48" cx="344.5" cy="188.3" r="4.2"></circle>
                    <circle id="Oval" fill="#383A48" cx="344.5" cy="225.1" r="4.2"></circle>
                    <circle id="Oval" fill="#383A48" cx="344.5" cy="261.9" r="4.2"></circle>
                    <circle id="Oval" fill="#383A48" cx="344.5" cy="298.7" r="4.2"></circle>
                    <circle id="Oval" fill="#383A48" cx="344.5" cy="335.5" r="4.2"></circle>
                    <circle id="Oval" fill="#383A48" cx="344.5" cy="372.3" r="4.2"></circle>
                    <circle id="Oval" fill="#383A48" cx="344.5" cy="409.1" r="4.2"></circle>
                    <circle id="Oval" fill="#383A48" cx="344.5" cy="446" r="4.2"></circle>
                    <g transform="translate(163.000000, 0.000000)">
                        <polygon id="Path" fill="#EEBED3" points="94.4 160.4 5.8 5.9 257.2 5.9 420.1 160.4"></polygon>
                        <path d="M420.1,165.4 L94.4,165.4 C92.6,165.4 91,164.4 90.1,162.9 L1.5,8.4 C0.6,6.9 0.6,4.9 1.5,3.4 C2.4,1.9 4,0.9 5.8,0.9 L257.3,0.9 C258.6,0.9 259.8,1.4 260.7,2.3 L423.6,156.8 C425.1,158.2 425.6,160.4 424.8,162.3 C424,164.1 422.1,165.4 420.1,165.4 Z M97.3,155.4 L407.6,155.4 L255.2,10.9 L14.4,10.9 L97.3,155.4 Z" id="Shape" fill="#383A48"></path>
                    </g>
                    <g transform="translate(211.000000, 13.000000)" fill="#383A48" id="Oval">
                        <circle cx="306.9" cy="118.3" r="4.3"></circle>
                        <circle cx="269.2" cy="80.5" r="4.3"></circle>
                        <circle cx="269.2" cy="118.3" r="4.3"></circle>
                        <circle cx="231.4" cy="42.8" r="4.3"></circle>
                        <circle cx="231.4" cy="80.5" r="4.3"></circle>
                        <circle cx="231.4" cy="118.3" r="4.3"></circle>
                        <circle cx="193.7" cy="5" r="4.3"></circle>
                        <circle cx="193.7" cy="42.8" r="4.3"></circle>
                        <circle cx="193.7" cy="80.5" r="4.3"></circle>
                        <circle cx="193.7" cy="118.3" r="4.3"></circle>
                        <circle cx="155.9" cy="5" r="4.3"></circle>
                        <circle cx="155.9" cy="42.8" r="4.3"></circle>
                        <circle cx="155.9" cy="80.5" r="4.3"></circle>
                        <circle cx="155.9" cy="118.3" r="4.3"></circle>
                        <circle cx="118.2" cy="5" r="4.3"></circle>
                        <circle cx="118.2" cy="42.8" r="4.3"></circle>
                        <circle cx="118.2" cy="80.5" r="4.3"></circle>
                        <circle cx="118.2" cy="118.3" r="4.3"></circle>
                        <circle cx="80.4" cy="5" r="4.3"></circle>
                        <circle cx="80.4" cy="42.8" r="4.3"></circle>
                        <circle cx="80.4" cy="80.5" r="4.3"></circle>
                        <circle cx="42.7" cy="5" r="4.3"></circle>
                        <circle cx="42.7" cy="42.8" r="4.3"></circle>
                        <circle cx="5" cy="5" r="4.3"></circle>
                    </g>
                    <g transform="translate(0.000000, 155.000000)">
                        <rect id="Rectangle" fill="#F3F6E6" x="5.9" y="5.4" width="325.7" height="321.5"></rect>
                        <path d="M331.6,331.9 L5.9,331.9 C3.1,331.9 0.9,329.7 0.9,326.9 L0.9,5.4 C0.9,2.6 3.1,0.4 5.9,0.4 L331.6,0.4 C334.4,0.4 336.6,2.6 336.6,5.4 L336.6,326.9 C336.6,329.6 334.4,331.9 331.6,331.9 Z M10.9,321.9 L326.6,321.9 L326.6,10.4 L10.9,10.4 L10.9,321.9 Z" id="Shape" fill="#383A48"></path>
                    </g>
                    <g>
                        <polygon id="Path" fill="#EEBED3" points="5.9 160.4 168.8 5.9 331.6 160.4"></polygon>
                        <path d="M331.6,165.4 L5.9,165.4 C3.9,165.4 2,164.2 1.3,162.3 C0.5,160.4 1,158.2 2.5,156.8 L165.4,2.3 C167.3,0.5 170.4,0.5 172.3,2.3 L335.2,156.8 C336.7,158.2 337.2,160.4 336.4,162.3 C335.5,164.1 333.7,165.4 331.6,165.4 Z M18.4,155.4 L319,155.4 L168.8,12.8 L18.4,155.4 Z" id="Shape" fill="#383A48"></path>
                    </g>
                    <path d="M222.4,277.3 L115.1,277.3 C112.3,277.3 110.1,279.5 110.1,282.3 L110.1,481.8 C110.1,484.6 112.3,486.8 115.1,486.8 L222.5,486.8 C225.3,486.8 227.5,484.6 227.5,481.8 L227.5,282.3 C227.4,279.6 225.2,277.3 222.4,277.3 Z" id="Path" fill="#383A48"></path>
                </g>
                <circle id="Oval" fill="#383A48" transform="translate(1025.667310, 279.380470) rotate(-45.000000) translate(-1025.667310, -279.380470) " cx="1025.66731" cy="279.38047" r="197.498106"></circle>
                <g transform="translate(761.000000, 83.000000)">
                    <g>
                        <circle id="Oval" fill="#F6E049" cx="196.9" cy="196.4" r="191.3"></circle>
                        <path d="M196.9,392.7 C88.7,392.7 0.6,304.7 0.6,196.4 C0.6,88.2 88.6,0.1 196.9,0.1 C305.2,0.1 393.2,88.1 393.2,196.4 C393.2,304.7 305.1,392.7 196.9,392.7 Z M196.9,10.2 C94.2,10.2 10.6,93.8 10.6,196.5 C10.6,299.2 94.2,382.8 196.9,382.8 C299.6,382.8 383.2,299.2 383.2,196.5 C383.2,93.8 299.6,10.2 196.9,10.2 Z" id="Shape" fill="#383A48"></path>
                    </g>
                    <g transform="translate(233.000000, 152.000000)" id="Path">
                        <path d="M5.7,24.9 C5.7,14 14.5,5.2 25.4,5.2 C36.3,5.2 45.1,14 45.1,24.9" fill="#F6E049"></path>
                        <path d="M45.2,29.9 C42.4,29.9 40.2,27.7 40.2,24.9 C40.2,16.8 33.6,10.2 25.5,10.2 C17.4,10.2 10.8,16.8 10.8,24.9 C10.8,27.7 8.6,29.9 5.8,29.9 C3,29.9 0.8,27.7 0.8,24.9 C0.8,11.3 11.9,0.2 25.5,0.2 C39.1,0.2 50.2,11.3 50.2,24.9 C50.2,27.7 48,29.9 45.2,29.9 Z" fill="#383A48"></path>
                    </g>
                    <g transform="translate(110.000000, 152.000000)" id="Path">
                        <path d="M45.1,24.9 C45.1,14 36.3,5.2 25.4,5.2 C14.5,5.2 5.7,14 5.7,24.9" fill="#F6E049"></path>
                        <path d="M45.1,29.9 C42.3,29.9 40.1,27.7 40.1,24.9 C40.1,16.8 33.5,10.2 25.4,10.2 C17.3,10.2 10.7,16.8 10.7,24.9 C10.7,27.7 8.5,29.9 5.7,29.9 C2.9,29.9 0.7,27.7 0.7,24.9 C0.7,11.3 11.8,0.2 25.4,0.2 C39,0.2 50.1,11.3 50.1,24.9 C50.1,27.7 47.8,29.9 45.1,29.9 Z" fill="#383A48"></path>
                    </g>
                    <path d="M196.9,267.5 C168.7,267.5 142.8,250.9 131,225.2 C129.8,222.7 131,219.7 133.5,218.6 C136,217.4 139,218.6 140.1,221.1 C150.2,243.2 172.5,257.5 196.9,257.5 C221.2,257.5 243.5,243.2 253.7,221.1 C254.9,218.6 257.8,217.5 260.3,218.6 C262.8,219.8 263.9,222.7 262.8,225.2 C251,250.9 225.1,267.5 196.9,267.5 Z" id="Path" fill="#383A48"></path>
                </g>
                <g transform="translate(475.000000, 151.000000)" fill="#383A48" id="Rectangle">
                    <rect transform="translate(13.567620, 18.988140) rotate(-26.718796) translate(-13.567620, -18.988140) " x="8.567754" y="0.488635807" width="9.999732" height="36.9990084"></rect>
                    <rect transform="translate(142.475750, 47.478950) rotate(-35.939329) translate(-142.475750, -47.478950) " x="123.97664" y="42.4791906" width="36.9982197" height="9.99951884"></rect>
                    <rect transform="translate(81.699210, 18.053910) rotate(-76.332003) translate(-81.699210, -18.053910) " x="64.6988821" y="13.0538136" width="34.0006559" height="10.0001929"></rect>
                </g>
                <path d="M111,74.1 L5.9,74.1 C3.1,74.1 0.9,76.3 0.9,79.1 L0.9,184.2 C0.9,187 3.1,189.2 5.9,189.2 C66.6,189.2 116,139.8 116,79.1 C116,76.4 113.8,74.1 111,74.1 Z" id="Path" fill="#4053FA"></path>
            </g>
        </g>
    </g>
</svg>