<?xml version="1.0" encoding="utf-8"?>
<!-- Generator: Adobe Illustrator 22.0.1, SVG Export Plug-In . SVG Version: 6.00 Build 0)  -->
<svg version="1.1" id="Layer_1" xmlns="http://www.w3.org/2000/svg" xmlns:xlink="http://www.w3.org/1999/xlink" x="0px" y="0px" viewBox="0 0 1920 1080" style="enable-background:new 0 0 1920 1080;" xml:space="preserve">

<rect y="0" width="1920" height="1080" style="fill:#7FD6C2;"/>
<g>
	<path d="M785.3,910.7c-30.6,0-55.3-8.8-77.8-27.7c-20.3-17-36.1-40-52.8-64.3c-28.3-41.1-57.6-83.5-112.3-103.5
		c-20.8-7.6-48.7-10.7-78.2-14c-97.5-10.8-218.8-24.2-223.8-203.7c-0.1-2.7-2.3-4.9-5.1-4.9c-2.7,0-4.9,2.3-4.9,5v417.9
		c0,2.8,2.2,5,5,5h549.9c2.8,0,5-2.2,5-5S788,910.7,785.3,910.7z" style="fill:#F3F6E6;"/>
	<path d="M1726.2,159.9H489.4c-2.6,0-4.8,2-5,4.6s1.6,4.9,4.1,5.4C625.2,194,699.2,248,770.8,300.2
		c55,40.1,107,78,183.3,99.7c85.5,24.3,188.8,24.3,324.9,0c68.2-12.1,123.3-6.2,168.6,18.2c39.2,21.1,70.4,55.9,95.5,106.4
		c16.9,34.1,44.2,55.9,73,78.9c51.7,41.2,105.1,83.8,105.1,205.2c0,2.8,2.2,5,5,5s5-2.2,5-5V164.9
		C1731.2,162.1,1729,159.9,1726.2,159.9z" style="fill:#F3F6E6;"/>
	<g>
		<g>
			<rect x="671.9" y="236.3" width="762.3" height="572.1" style="fill:#F3F6E6;"/>
			<path d="M1434.1,813.4H671.9c-2.8,0-5-2.2-5-5V236.3c0-2.8,2.2-5,5-5h762.3c2.8,0,5,2.2,5,5v572.1
				C1439.1,811.1,1436.9,813.4,1434.1,813.4z M676.9,803.4h752.3V241.3H676.9V803.4z" style="fill:#383A48;"/>
		</g>
		<g>
			<rect x="671.9" y="236.3" width="762.3" height="178.7" style="fill:#AAC6FC;"/>
			<path d="M1434.1,420H671.9c-2.8,0-5-2.2-5-5V236.3c0-2.8,2.2-5,5-5h762.3c2.8,0,5,2.2,5,5V415
				C1439.1,417.7,1436.9,420,1434.1,420z M676.9,410h752.3V241.3H676.9V410z" style="fill:#383A48;"/>
		</g>
	</g>
	<g>
		<g>
			<rect x="733.3" y="291.3" width="762.3" height="572.1" style="fill:#F3F6E6;"/>
			<path d="M1495.5,868.4H733.3c-2.8,0-5-2.2-5-5V291.3c0-2.8,2.2-5,5-5h762.3c2.8,0,5,2.2,5,5v572.1
				C1500.5,866.1,1498.3,868.4,1495.5,868.4z M738.3,858.4h752.3V296.3H738.3V858.4z" style="fill:#383A48;"/>
		</g>
		<g>
			<rect x="733.3" y="291.3" width="762.3" height="178.7" style="fill:#E0719E;"/>
			<path d="M1495.5,475H733.3c-2.8,0-5-2.2-5-5V291.3c0-2.8,2.2-5,5-5h762.3c2.8,0,5,2.2,5,5V470
				C1500.5,472.7,1498.3,475,1495.5,475z M738.3,465h752.3V296.3H738.3V465z" style="fill:#383A48;"/>
		</g>
	</g>
	<g>
		<g>
			<rect x="785.3" y="343.6" width="762.3" height="572.1" style="fill:#F3F6E6;"/>
			<path d="M1547.5,920.7H785.3c-2.8,0-5-2.2-5-5V343.6c0-2.8,2.2-5,5-5h762.3c2.8,0,5,2.2,5,5v572.1
				C1552.5,918.5,1550.3,920.7,1547.5,920.7z M790.3,910.7h752.3V348.6H790.3V910.7z" style="fill:#383A48;"/>
		</g>
		<g>
			<path d="M1547.5,522.3H785.3V343.6h583.6C1368.8,442.3,1448.8,522.3,1547.5,522.3z" style="fill:#F6E049;"/>
			<path d="M1547.5,527.3H780.3V338.6h593.6v5c0,95.8,77.9,173.7,173.7,173.7L1547.5,527.3L1547.5,527.3z M790.3,517.3
				h697.4c-70.5-24.4-121.7-90.5-123.8-168.7H790.3V517.3z" style="fill:#383A48;"/>
		</g>
		<g>
			<g>
				<path d="M862.6,453.1c-11.1,0-20.2-9-20.2-20.2s9-20.2,20.2-20.2s20.2,9,20.2,20.2S873.7,453.1,862.6,453.1z
					 M862.6,422.8c-5.6,0-10.2,4.6-10.2,10.2s4.6,10.2,10.2,10.2c5.6,0,10.2-4.6,10.2-10.2S868.2,422.8,862.6,422.8z" style="fill:#383A48;"/>
			</g>
			<g>
				<path d="M913,453.1c-11.1,0-20.2-9-20.2-20.2s9-20.2,20.2-20.2s20.2,9,20.2,20.2S924.1,453.1,913,453.1z M913,422.8
					c-5.6,0-10.2,4.6-10.2,10.2s4.6,10.2,10.2,10.2c5.6,0,10.2-4.6,10.2-10.2S918.6,422.8,913,422.8z" style="fill:#383A48;"/>
			</g>
			<g>
				<path d="M963.4,453.1c-11.1,0-20.2-9-20.2-20.2s9-20.2,20.2-20.2s20.2,9,20.2,20.2S974.5,453.1,963.4,453.1z
					 M963.4,422.8c-5.6,0-10.2,4.6-10.2,10.2s4.6,10.2,10.2,10.2c5.6,0,10.2-4.6,10.2-10.2S969,422.8,963.4,422.8z" style="fill:#383A48;"/>
			</g>
		</g>
		<g>
			<g>
				<rect x="1214.1" y="612.1" width="100.9" height="215.7" style="fill:#E0719E;"/>
				<path d="M1315,832.8h-100.9c-2.8,0-5-2.2-5-5V612.1c0-2.8,2.2-5,5-5H1315c2.8,0,5,2.2,5,5v215.7
					C1320,830.5,1317.8,832.8,1315,832.8z M1219.1,822.8h90.9V617.1h-90.9V822.8z" style="fill:#383A48;"/>
			</g>
			<g>
				<g>
					<rect x="1090.6" y="685.4" width="87.9" height="142.3" style="fill:#7FD6C2;"/>
				</g>
				<g>
					<path d="M1178.5,832.8h-87.9c-2.8,0-5-2.2-5-5V685.4c0-2.8,2.2-5,5-5h87.9c2.8,0,5,2.2,5,5v142.3
						C1183.5,830.5,1181.3,832.8,1178.5,832.8z M1095.6,822.8h77.9V690.4h-77.9V822.8z" style="fill:#383A48;"/>
				</g>
			</g>
			<g>
				<rect x="990.7" y="655.5" width="62.2" height="172.3" style="fill:#F3F6E6;"/>
				<path d="M1053,832.8h-62.2c-2.8,0-5-2.2-5-5V655.5c0-2.8,2.2-5,5-5h62.2c2.8,0,5,2.2,5,5v172.3
					C1058,830.5,1055.8,832.8,1053,832.8z M995.7,822.8h52.2V660.5h-52.2V822.8z" style="fill:#383A48;"/>
			</g>
			<g>
				<rect x="950.4" y="822.8" width="423.2" height="10" style="fill:#383A48;"/>
			</g>
		</g>
	</g>
	<g>
		<path d="M1547.5,343.6v178.7c-98.7,0-178.7-80-178.7-178.7L1547.5,343.6L1547.5,343.6z" style="fill:#F3F6E6;"/>
		<path d="M1547.5,527.3c-101.3,0-183.7-82.4-183.7-183.7c0-2.8,2.2-5,5-5h178.7c2.8,0,5,2.2,5,5v178.7
			C1552.5,525.1,1550.3,527.3,1547.5,527.3z M1373.9,348.6c2.6,91.8,76.8,166,168.6,168.6V348.6H1373.9z" style="fill:#383A48;"/>
	</g>
	<path d="M1434.1,231.3h-81.5c-1.6,0-3.1,0.7-4,2c-24.1,32-36.8,70.2-36.8,110.3c0,2.8,2.2,5,5,5h117.3c2.8,0,5-2.2,5-5
		V236.3C1439.1,233.5,1436.9,231.3,1434.1,231.3z" style="fill:#383A48;"/>
	<g>
		<path d="M1726.2,343.6c0,98.7-80,178.7-178.7,178.7V343.6h-178.7c0-98.7,80-178.7,178.7-178.7
			C1646.2,164.9,1726.2,244.9,1726.2,343.6z" style="fill:#E0719E;"/>
		<path d="M1547.5,527.3c-2.8,0-5-2.2-5-5V348.6h-173.7c-2.8,0-5-2.2-5-5c0-101.3,82.4-183.7,183.7-183.7
			c101.3,0,183.7,82.4,183.7,183.7S1648.8,527.3,1547.5,527.3z M1373.9,338.6h173.6c2.8,0,5,2.2,5,5v173.6
			c93.5-2.7,168.7-79.5,168.7-173.6c0-95.8-77.9-173.7-173.7-173.7C1453.4,169.9,1376.6,245.1,1373.9,338.6z" style="fill:#383A48;"/>
	</g>
	<path d="M789.1,519.6c-1.3-1.6-3.5-2.2-5.4-1.5L462,625.6c-1.8,0.6-3.1,2.2-3.4,4.1c-0.3,1.9,0.6,3.8,2.2,4.8
		l76.8,51.4l-101.9,87.8c-2.1,1.8-2.3,4.9-0.6,7l43.5,51.3c0.9,1,2.1,1.6,3.4,1.8c0.1,0,0.3,0,0.4,0c1.2,0,2.4-0.4,3.3-1.2l102.2-88
		l33.9,79.8c0.8,1.8,2.5,3,4.4,3c1.9,0.1,3.7-0.9,4.6-2.7l159-299.6C790.7,523.4,790.4,521.1,789.1,519.6z" style="fill:#383A48;"/>
	<g>
		<g>
			<g>
				<path d="M420.9,607.5H268.7c-18.4,0-33.4-14.9-33.4-33.4V216.3c0-18.4,14.9-33.4,33.4-33.4h152.2
					c18.4,0,33.4,14.9,33.4,33.4v357.8C454.3,592.5,439.4,607.5,420.9,607.5z" style="fill:#383A48;"/>
			</g>
			<g>
				<path d="M420.9,612.5H268.7c-21.2,0-38.4-17.2-38.4-38.4V216.3c0-21.2,17.2-38.4,38.4-38.4h152.2
					c21.2,0,38.4,17.2,38.4,38.4v357.8C459.3,595.3,442.1,612.5,420.9,612.5z M268.7,188c-15.7,0-28.4,12.7-28.4,28.4v357.8
					c0,15.7,12.7,28.4,28.4,28.4h152.2c15.7,0,28.4-12.7,28.4-28.4V216.3c0-15.7-12.7-28.4-28.4-28.4L268.7,188L268.7,188z" style="fill:#383A48;"/>
			</g>
		</g>
		<g>
			<g>
				<polygon points="264.5,175.7 245.6,192.3 268.4,210.5 				" style="fill:#383A48;"/>
			</g>
			<g>
				<path d="M268.4,215.5c-1.1,0-2.2-0.4-3.1-1.1l-22.8-18.2c-1.2-0.9-1.9-2.3-1.9-3.8s0.6-2.9,1.7-3.9l19-16.6
					c1.4-1.2,3.4-1.6,5.1-0.9c1.7,0.7,3,2.3,3.2,4.1l3.9,34.8c0.2,2-0.8,4-2.5,4.9C270.1,215.3,269.2,215.5,268.4,215.5z
					 M253.4,192.1l8.7,7l-1.5-13.3L253.4,192.1z" style="fill:#383A48;"/>
			</g>
		</g>
		<g>
			<polygon points="441,600.8 461.1,583.3 425.7,563.8 			" style="fill:#383A48;"/>
			<path d="M441,605.8c-0.4,0-0.8,0-1.1-0.1c-1.6-0.4-2.9-1.5-3.5-3l-15.3-37c-0.8-2-0.3-4.2,1.3-5.6
				c1.6-1.4,3.9-1.7,5.8-0.6l35.3,19.6c1.4,0.8,2.4,2.2,2.5,3.8c0.2,1.6-0.5,3.2-1.7,4.3l-20,17.5
				C443.4,605.3,442.2,605.8,441,605.8z M435.8,575l7.2,17.4l9.4-8.2L435.8,575z" style="fill:#383A48;"/>
		</g>
		<g>
			<path d="M438.3,592.3H286.1c-18.4,0-33.4-14.9-33.4-33.4V201.2c0-18.4,14.9-33.4,33.4-33.4h152.2
				c18.4,0,33.4,14.9,33.4,33.4V559C471.6,577.4,456.7,592.3,438.3,592.3z" style="fill:#AAC6FC;"/>
			<path d="M438.3,597.3H286.1c-21.2,0-38.4-17.2-38.4-38.4V201.2c0-21.2,17.2-38.4,38.4-38.4h152.2
				c21.2,0,38.4,17.2,38.4,38.4V559C476.6,580.1,459.4,597.3,438.3,597.3z M286.1,172.8c-15.7,0-28.4,12.7-28.4,28.4V559
				c0,15.7,12.7,28.4,28.4,28.4h152.2c15.7,0,28.4-12.7,28.4-28.4V201.2c0-15.7-12.7-28.4-28.4-28.4H286.1z" style="fill:#383A48;"/>
		</g>
		<path d="M386,301.4h-47.7c-38.7,0-70.2,31.5-70.2,70.2v16.9c0,29.7,18.5,55.1,44.7,65.4v32.8c0,2.1,1.3,4,3.3,4.7
			c0.5,0.2,1.1,0.3,1.7,0.3c1.5,0,2.9-0.7,3.9-1.9l25.1-31.1H386c38.7,0,70.2-31.5,70.2-70.2v-16.9
			C456.2,332.9,424.7,301.4,386,301.4z" style="fill:#F3F6E6;"/>
		<g>
			<path d="M409.5,188.8h-94.7c-6.9,0-12.5-5.6-12.5-12.5V168h119.8v8.2C422.1,183.2,416.5,188.8,409.5,188.8z" style="fill:#383A48;"/>
			<path d="M409.5,193.8h-94.7c-9.7,0-17.5-7.9-17.5-17.5V168c0-2.8,2.2-5,5-5h119.8c2.8,0,5,2.2,5,5v8.2
				C427.1,185.9,419.2,193.8,409.5,193.8z M307.2,173v3.2c0,4.2,3.4,7.5,7.5,7.5h94.7c4.2,0,7.5-3.4,7.5-7.5V173H307.2z" style="fill:#383A48;"/>
		</g>
		<g>
			<circle cx="362.2" cy="380.1" r="48.8" style="fill:#F6E049;"/>
			<path d="M362.2,433.8c-29.7,0-53.8-24.1-53.8-53.8s24.1-53.8,53.8-53.8S416,350.3,416,380S391.8,433.8,362.2,433.8z
				 M362.2,336.3c-24.1,0-43.8,19.6-43.8,43.8s19.6,43.8,43.8,43.8s43.8-19.6,43.8-43.8S386.3,336.3,362.2,336.3z" style="fill:#383A48;"/>
		</g>
		<g>
			<circle cx="346.4" cy="370.6" r="5.3" style="fill:#383A48;"/>
		</g>
		<g>
			<circle cx="377.7" cy="370.6" r="5.3" style="fill:#383A48;"/>
		</g>
		<g>
			<path d="M362,402.8c-8.7,0-16.7-5.1-20.3-13c-1.2-2.5,0-5.5,2.5-6.6s5.5,0,6.6,2.5c2,4.4,6.4,7.2,11.2,7.2
				c4.8,0,9.2-2.8,11.2-7.2c1.2-2.5,4.1-3.6,6.6-2.5c2.5,1.2,3.6,4.1,2.5,6.6C378.7,397.7,370.8,402.8,362,402.8z" style="fill:#383A48;"/>
		</g>
	</g>
	<g>
		<path d="M1575.9,711.3c-25.9,0-41-27.8-57.1-57.2c-19.3-35.3-39.2-71.8-78.6-71.8c-2.8,0-5-2.2-5-5s2.2-5,5-5
			c45.4,0,67.7,40.9,87.4,77c15.2,27.9,28.4,52,48.3,52c22.6,0,36-17.2,50.1-35.4c15.7-20.3,32-41.2,62.1-41.2c2.8,0,5,2.2,5,5
			s-2.2,5-5,5c-25.3,0-39.3,18.1-54.2,37.4C1618.9,691.3,1603.4,711.3,1575.9,711.3z" style="fill:#4053FA;"/>
	</g>
	<g>
		<polygon points="1547.5,915.7 1726.2,915.7 1726.2,808.6 		" style="fill:#F6E049;"/>
		<path d="M1726.2,920.7h-178.7c-2.2,0-4.2-1.5-4.8-3.7c-0.6-2.2,0.3-4.5,2.2-5.6l178.7-107.1c1.5-0.9,3.5-0.9,5-0.1
			c1.6,0.9,2.5,2.5,2.5,4.4v107.1C1731.2,918.5,1729,920.7,1726.2,920.7z M1565.6,910.7h155.6v-93.3L1565.6,910.7z" style="fill:#383A48;"/>
	</g>
	<g>
		<g>
			<line x1="544.2" y1="486.7" x2="577.2" y2="486.7" style="fill:none;"/>
			<rect x="544.2" y="481.7" width="33" height="10" style="fill:#383A48;"/>
		</g>
		<g>
			<line x1="560.7" y1="503.2" x2="560.7" y2="470.2" style="fill:none;"/>
			<rect x="555.7" y="470.2" width="10" height="33" style="fill:#383A48;"/>
		</g>
	</g>
	<g>
		<g>
			<line x1="1616.4" y1="771.5" x2="1649.3" y2="771.5" style="fill:none;"/>
			<rect x="1616.4" y="766.5" width="33" height="10" style="fill:#383A48;"/>
		</g>
		<g>
			<line x1="1632.8" y1="788" x2="1632.8" y2="755" style="fill:none;"/>
			<rect x="1627.8" y="755" width="10" height="33" style="fill:#383A48;"/>
		</g>
	</g>
	<g>
		<g>
			<line x1="358.3" y1="788" x2="391.2" y2="788" style="fill:none;"/>
			<rect x="358.3" y="783" width="33" height="10" style="fill:#383A48;"/>
		</g>
		<g>
			<line x1="374.7" y1="804.5" x2="374.7" y2="771.5" style="fill:none;"/>
			<rect x="369.7" y="771.5" width="10" height="33" style="fill:#383A48;"/>
		</g>
	</g>
	<path d="M235.4,822.8h-5v97.9h97.9v-5C328.3,864.4,286.6,822.8,235.4,822.8z" style="fill:#AAC6FC;"/>
	<g>
		<g>
			
				<rect x="513.6" y="237.2" transform="matrix(0.7242 -0.6896 0.6896 0.7242 -20.267 433.7292)" width="37" height="10" style="fill:#F3F6E6;"/>
		</g>
		<g>
			
				<rect x="537.3" y="355.3" transform="matrix(0.6043 -0.7967 0.7967 0.6043 -83.2441 579.9962)" width="10" height="37" style="fill:#F3F6E6;"/>
		</g>
		<g>
			
				<rect x="535.7" y="302.2" transform="matrix(0.9984 -5.605569e-02 5.605569e-02 0.9984 -16.351 31.4643)" width="34" height="10" style="fill:#F3F6E6;"/>
		</g>
	</g>
</g>
</svg>
