<svg xmlns="http://www.w3.org/2000/svg" xmlns:xlink="http://www.w3.org/1999/xlink" width="1494" height="829" version="1.1" viewBox="0 0 1494 829"><title>abstract-expense-tracking</title><desc>Created with Sketch.</desc><g id="Page-1" fill="none" fill-rule="evenodd" stroke="none" stroke-width="1"><g id="abstract-expense-tracking" transform="translate(-213.000000, -126.000000)"><g id="Group" transform="translate(213.000000, 126.000000)"><path id="Path" fill="#F3F6E6" fill-rule="nonzero" d="M1488.9,208.1 C1486.5,207.7 1484.1,209.1 1483.3,211.4 C1483.2,211.8 1468.5,253.7 1437.7,306.1 C1417.5,340.4 1395,371.6 1370.7,398.8 C1306.1,471 1231.7,512.6 1149.6,522.4 C1113.7,526.7 1083.7,539.8 1055.2,563.6 C1030,584.7 1008.9,611.6 986.7,640.1 C973.7,656.8 960.2,674 945.2,690.9 C929.5,708.7 914.2,723.7 898.4,736.8 C846.2,780.2 782.7,806.8 704.4,818.1 C701.8,818.5 699.9,820.8 700.1,823.4 C700.3,826 702.5,828 705.1,828 L1488,828 C1490.8,828 1493.00397,825.8 1493.00397,823 L1493.00397,213 C1493.1,210.6 1491.3,208.5 1488.9,208.1 Z"/><path id="Path" fill="#383A48" fill-rule="nonzero" d="M1443.4,303.8 C1441.2,303.2 1438.9,304.1 1437.8,306.1 C1417.6,340.4 1395.1,371.6 1370.8,398.8 C1306.2,471 1231.8,512.6 1149.7,522.4 C1113.8,526.7 1083.8,539.8 1055.3,563.6 C1030.1,584.7 1009,611.6 986.8,640.1 C973.8,656.8 960.3,674 945.3,690.9 C929.6,708.7 914.3,723.7 898.5,736.8 C896.9,738.1 896.3,740.4 897,742.3 C897.7,744.3 899.6,745.6 901.7,745.6 L1442.1,745.6 C1444.9,745.6 1447.1,743.4 1447.1,740.6 L1447.1,308.6 C1447.1,306.4 1445.6,304.4 1443.4,303.8 Z"/><path id="Path" fill="#F3F6E6" fill-rule="nonzero" d="M557.1,818.5 C555.3,817.7 373.2,739.3 281.5,682.9 C242.1,658.6 203.4,618.9 166.4,564.7 C136.7,521.2 108,468.3 81.3,407.7 C35.7,304.2 11.1,212.7 10.8,211.8 C10.2,209.4 7.8,207.8 5.3,208.1 C2.8,208.4 0.9,210.5 0.9,213.1 L0.9,823.1 C0.9,825.9 3.1,828.1 5.9,828.1 L555.1,828.1 C557.5,828.1 559.5,826.4 560,824.1 C560.5,821.7 559.3,819.4 557.1,818.5 Z"/><g fill="#383A48" fill-rule="nonzero" transform="translate(0.000000, 36.000000)"><polygon id="Path" points="79.1 0 .9 78.3 .9 64.1 65 0"/><polygon id="Path" points="157.1 0 147.1 10 10.9 146.3 .9 156.3 .9 142.1 10.9 132.1 133 10 143 0"/><polygon id="Path" points="235.1 0 225.1 10 63.1 172 53.1 182 39 182 49 172 211 10 221 0"/><polygon id="Path" points="313.1 0 303.1 10 141.1 172 131.1 182 117 182 127 172 289 10 299 0"/><polygon id="Path" points="337.4 39.6 337.4 53.8 219.1 172 209.1 182 195 182"/><polygon id="Path" points="337.4 117.6 337.4 131.8 287.1 182 273 182"/><g id="XMLID_22_"><path id="Shape" d="M332.4,0 L5.9,0 C3.1,0 0.9,2.2 0.9,5 L0.9,177 C0.9,179.8 3.1,182 5.9,182 L332.4,182 C335.2,182 337.4,179.8 337.4,177 L337.4,5 C337.4,2.3 335.2,0 332.4,0 Z M327.4,172 L10.9,172 L10.9,10 L327.4,10 L327.4,172 Z"/></g></g><g id="Oval" fill="#383A48" fill-rule="nonzero" transform="translate(216.000000, 328.000000)"><circle cx="498.5" cy="153.7" r="5"/><circle cx="498.5" cy="178.4" r="5"/><circle cx="498.5" cy="203.1" r="5"/><circle cx="498.5" cy="227.7" r="5"/><circle cx="498.5" cy="252.4" r="5"/><circle cx="498.5" cy="277.1" r="5"/><circle cx="498.5" cy="301.7" r="5"/><circle cx="498.5" cy="326.4" r="5"/><circle cx="473.8" cy="104.4" r="5"/><circle cx="473.8" cy="129.1" r="5"/><circle cx="473.8" cy="153.7" r="5"/><circle cx="473.8" cy="178.4" r="5"/><circle cx="473.8" cy="203.1" r="5"/><circle cx="473.8" cy="227.7" r="5"/><circle cx="473.8" cy="252.4" r="5"/><circle cx="473.8" cy="277.1" r="5"/><circle cx="473.8" cy="301.7" r="5"/><circle cx="473.8" cy="326.4" r="5"/><circle cx="473.8" cy="351.1" r="5"/><circle cx="473.8" cy="375.7" r="5"/><circle cx="449.1" cy="79.7" r="5"/><circle cx="449.1" cy="104.4" r="5"/><circle cx="449.1" cy="129.1" r="5"/><circle cx="449.1" cy="153.7" r="5"/><circle cx="449.1" cy="178.4" r="5"/><circle cx="449.1" cy="203.1" r="5"/><circle cx="449.1" cy="227.7" r="5"/><circle cx="449.1" cy="252.4" r="5"/><circle cx="449.1" cy="277.1" r="5"/><circle cx="449.1" cy="301.7" r="5"/><circle cx="449.1" cy="326.4" r="5"/><circle cx="449.1" cy="351.1" r="5"/><circle cx="449.1" cy="375.7" r="5"/><circle cx="449.1" cy="400.4" r="5"/><circle cx="424.5" cy="55.1" r="5"/><circle cx="424.5" cy="79.7" r="5"/><circle cx="424.5" cy="104.4" r="5"/><circle cx="424.5" cy="129.1" r="5"/><circle cx="424.5" cy="153.7" r="5"/><circle cx="424.5" cy="178.4" r="5"/><circle cx="424.5" cy="203.1" r="5"/><circle cx="424.5" cy="227.7" r="5"/><circle cx="424.5" cy="252.4" r="5"/><circle cx="424.5" cy="277.1" r="5"/><circle cx="424.5" cy="301.7" r="5"/><circle cx="424.5" cy="326.4" r="5"/><circle cx="424.5" cy="351.1" r="5"/><circle cx="424.5" cy="375.7" r="5"/><circle cx="424.5" cy="400.4" r="5"/><circle cx="424.5" cy="425.1" r="5"/><circle cx="399.8" cy="30.4" r="5"/><circle cx="399.8" cy="55.1" r="5"/><circle cx="399.8" cy="79.7" r="5"/><circle cx="399.8" cy="104.4" r="5"/><circle cx="399.8" cy="129.1" r="5"/><circle cx="399.8" cy="153.7" r="5"/><circle cx="399.8" cy="178.4" r="5"/><circle cx="399.8" cy="203.1" r="5"/><circle cx="399.8" cy="227.7" r="5"/><circle cx="399.8" cy="252.4" r="5"/><circle cx="399.8" cy="277.1" r="5"/><circle cx="399.8" cy="301.7" r="5"/><circle cx="399.8" cy="326.4" r="5"/><circle cx="399.8" cy="351.1" r="5"/><circle cx="399.8" cy="375.7" r="5"/><circle cx="399.8" cy="400.4" r="5"/><circle cx="399.8" cy="425.1" r="5"/><circle cx="399.8" cy="449.7" r="5"/><circle cx="375.1" cy="30.4" r="5"/><circle cx="375.1" cy="55.1" r="5"/><circle cx="375.1" cy="79.7" r="5"/><circle cx="375.1" cy="104.4" r="5"/><circle cx="375.1" cy="129.1" r="5"/><circle cx="375.1" cy="153.7" r="5"/><circle cx="375.1" cy="178.4" r="5"/><circle cx="375.1" cy="203.1" r="5"/><circle cx="375.1" cy="227.7" r="5"/><circle cx="375.1" cy="252.4" r="5"/><circle cx="375.1" cy="277.1" r="5"/><circle cx="375.1" cy="301.7" r="5"/><circle cx="375.1" cy="326.4" r="5"/><circle cx="375.1" cy="351.1" r="5"/><circle cx="375.1" cy="375.7" r="5"/><circle cx="375.1" cy="400.4" r="5"/><circle cx="375.1" cy="425.1" r="5"/><circle cx="375.1" cy="449.7" r="5"/><circle cx="350.5" cy="5.7" r="5"/><circle cx="350.5" cy="30.4" r="5"/><circle cx="350.5" cy="55.1" r="5"/><circle cx="350.5" cy="79.7" r="5"/><circle cx="350.5" cy="104.4" r="5"/><circle cx="350.5" cy="129.1" r="5"/><circle cx="350.5" cy="153.7" r="5"/><circle cx="350.5" cy="178.4" r="5"/><circle cx="350.5" cy="203.1" r="5"/><circle cx="350.5" cy="227.7" r="5"/><circle cx="350.5" cy="252.4" r="5"/><circle cx="350.5" cy="277.1" r="5"/><circle cx="350.5" cy="301.7" r="5"/><circle cx="350.5" cy="326.4" r="5"/><circle cx="350.5" cy="351.1" r="5"/><circle cx="350.5" cy="375.7" r="5"/><circle cx="350.5" cy="400.4" r="5"/><circle cx="350.5" cy="425.1" r="5"/><circle cx="350.5" cy="449.7" r="5"/><circle cx="350.5" cy="474.4" r="5"/><circle cx="325.8" cy="5.7" r="5"/><circle cx="325.8" cy="30.4" r="5"/><circle cx="325.8" cy="55.1" r="5"/><circle cx="325.8" cy="79.7" r="5"/><circle cx="325.8" cy="104.4" r="5"/><circle cx="325.8" cy="129.1" r="5"/><circle cx="325.8" cy="153.7" r="5"/><circle cx="325.8" cy="178.4" r="5"/><circle cx="325.8" cy="203.1" r="5"/><circle cx="325.8" cy="227.7" r="5"/><circle cx="325.8" cy="252.4" r="5"/><circle cx="325.8" cy="277.1" r="5"/><circle cx="325.8" cy="301.7" r="5"/><circle cx="325.8" cy="326.4" r="5"/><circle cx="325.8" cy="351.1" r="5"/><circle cx="325.8" cy="375.7" r="5"/><circle cx="325.8" cy="400.4" r="5"/><circle cx="325.8" cy="425.1" r="5"/><circle cx="325.8" cy="449.7" r="5"/><circle cx="325.8" cy="474.4" r="5"/><circle cx="301.1" cy="5.7" r="5"/><circle cx="301.1" cy="30.4" r="5"/><circle cx="301.1" cy="55.1" r="5"/><circle cx="301.1" cy="79.7" r="5"/><circle cx="301.1" cy="104.4" r="5"/><circle cx="301.1" cy="129.1" r="5"/><circle cx="301.1" cy="153.7" r="5"/><circle cx="301.1" cy="178.4" r="5"/><circle cx="301.1" cy="203.1" r="5"/><circle cx="301.1" cy="227.7" r="5"/><circle cx="301.1" cy="252.4" r="5"/><circle cx="301.1" cy="277.1" r="5"/><circle cx="301.1" cy="301.7" r="5"/><circle cx="301.1" cy="326.4" r="5"/><circle cx="301.1" cy="351.1" r="5"/><circle cx="301.1" cy="375.7" r="5"/><circle cx="301.1" cy="400.4" r="5"/><circle cx="301.1" cy="425.1" r="5"/><circle cx="301.1" cy="449.7" r="5"/><circle cx="301.1" cy="474.4" r="5"/><circle cx="276.5" cy="5.7" r="5"/><circle cx="276.5" cy="30.4" r="5"/><circle cx="276.5" cy="55.1" r="5"/><circle cx="276.5" cy="79.7" r="5"/><circle cx="276.5" cy="104.4" r="5"/><circle cx="276.5" cy="129.1" r="5"/><circle cx="276.5" cy="153.7" r="5"/><circle cx="276.5" cy="178.4" r="5"/><circle cx="276.5" cy="203.1" r="5"/><circle cx="276.5" cy="227.7" r="5"/><circle cx="276.5" cy="252.4" r="5"/><circle cx="276.5" cy="277.1" r="5"/><circle cx="276.5" cy="301.7" r="5"/><circle cx="276.5" cy="326.4" r="5"/><circle cx="276.5" cy="351.1" r="5"/><circle cx="276.5" cy="375.7" r="5"/><circle cx="276.5" cy="400.4" r="5"/><circle cx="276.5" cy="425.1" r="5"/><circle cx="276.5" cy="449.7" r="5"/><circle cx="276.5" cy="474.4" r="5"/><circle cx="251.8" cy="5.7" r="5"/><circle cx="251.8" cy="30.4" r="5"/><circle cx="251.8" cy="55.1" r="5"/><circle cx="251.8" cy="79.7" r="5"/><circle cx="251.8" cy="104.4" r="5"/><circle cx="251.8" cy="129.1" r="5"/><circle cx="251.8" cy="153.7" r="5"/><circle cx="251.8" cy="178.4" r="5"/><circle cx="251.8" cy="203.1" r="5"/><circle cx="251.8" cy="227.7" r="5"/><circle cx="251.8" cy="252.4" r="5"/><circle cx="251.8" cy="277.1" r="5"/><circle cx="251.8" cy="301.7" r="5"/><circle cx="251.8" cy="326.4" r="5"/><circle cx="251.8" cy="351.1" r="5"/><circle cx="251.8" cy="375.7" r="5"/><circle cx="251.8" cy="400.4" r="5"/><circle cx="251.8" cy="425.1" r="5"/><circle cx="251.8" cy="449.7" r="5"/><circle cx="251.8" cy="474.4" r="5"/><circle cx="227.1" cy="5.7" r="5"/><circle cx="227.1" cy="30.4" r="5"/><circle cx="227.1" cy="55.1" r="5"/><circle cx="227.1" cy="79.7" r="5"/><circle cx="227.1" cy="104.4" r="5"/><circle cx="227.1" cy="129.1" r="5"/><circle cx="227.1" cy="153.7" r="5"/><circle cx="227.1" cy="178.4" r="5"/><circle cx="227.1" cy="203.1" r="5"/><circle cx="227.1" cy="227.7" r="5"/><circle cx="227.1" cy="252.4" r="5"/><circle cx="227.1" cy="277.1" r="5"/><circle cx="227.1" cy="301.7" r="5"/><circle cx="227.1" cy="326.4" r="5"/><circle cx="227.1" cy="351.1" r="5"/><circle cx="227.1" cy="375.7" r="5"/><circle cx="227.1" cy="400.4" r="5"/><circle cx="227.1" cy="425.1" r="5"/><circle cx="227.1" cy="449.7" r="5"/><circle cx="227.1" cy="474.4" r="5"/><circle cx="202.5" cy="5.7" r="5"/><circle cx="202.5" cy="30.4" r="5"/><circle cx="202.5" cy="55.1" r="5"/><circle cx="202.5" cy="79.7" r="5"/><circle cx="202.5" cy="104.4" r="5"/><circle cx="202.5" cy="129.1" r="5"/><circle cx="202.5" cy="153.7" r="5"/><circle cx="202.5" cy="178.4" r="5"/><circle cx="202.5" cy="203.1" r="5"/><circle cx="202.5" cy="227.7" r="5"/><circle cx="202.5" cy="252.4" r="5"/><circle cx="202.5" cy="277.1" r="5"/><circle cx="202.5" cy="301.7" r="5"/><circle cx="202.5" cy="326.4" r="5"/><circle cx="202.5" cy="351.1" r="5"/><circle cx="202.5" cy="375.7" r="5"/><circle cx="202.5" cy="400.4" r="5"/><circle cx="202.5" cy="425.1" r="5"/><circle cx="202.5" cy="449.7" r="5"/><circle cx="202.5" cy="474.4" r="5"/><circle cx="177.8" cy="5.7" r="5"/><circle cx="177.8" cy="30.4" r="5"/><circle cx="177.8" cy="55.1" r="5"/><circle cx="177.8" cy="79.7" r="5"/><circle cx="177.8" cy="104.4" r="5"/><circle cx="177.8" cy="129.1" r="5"/><circle cx="177.8" cy="153.7" r="5"/><circle cx="177.8" cy="178.4" r="5"/><circle cx="177.8" cy="203.1" r="5"/><circle cx="177.8" cy="227.7" r="5"/><circle cx="177.8" cy="252.4" r="5"/><circle cx="177.8" cy="277.1" r="5"/><circle cx="177.8" cy="301.7" r="5"/><circle cx="177.8" cy="326.4" r="5"/><circle cx="177.8" cy="351.1" r="5"/><circle cx="177.8" cy="375.7" r="5"/><circle cx="177.8" cy="400.4" r="5"/><circle cx="177.8" cy="425.1" r="5"/><circle cx="177.8" cy="449.7" r="5"/><circle cx="177.8" cy="474.4" r="5"/><circle cx="153.1" cy="5.7" r="5"/><circle cx="153.1" cy="30.4" r="5"/><circle cx="153.1" cy="55.1" r="5"/><circle cx="153.1" cy="79.7" r="5"/><circle cx="153.1" cy="104.4" r="5"/><circle cx="153.1" cy="129.1" r="5"/><circle cx="153.1" cy="153.7" r="5"/><circle cx="153.1" cy="178.4" r="5"/><circle cx="153.1" cy="203.1" r="5"/><circle cx="153.1" cy="227.7" r="5"/><circle cx="153.1" cy="252.4" r="5"/><circle cx="153.1" cy="277.1" r="5"/><circle cx="153.1" cy="301.7" r="5"/><circle cx="153.1" cy="326.4" r="5"/><circle cx="153.1" cy="351.1" r="5"/><circle cx="153.1" cy="375.7" r="5"/><circle cx="153.1" cy="400.4" r="5"/><circle cx="153.1" cy="425.1" r="5"/><circle cx="153.1" cy="449.7" r="5"/><circle cx="153.1" cy="474.4" r="5"/><circle cx="128.5" cy="30.4" r="5"/><circle cx="128.5" cy="55.1" r="5"/><circle cx="128.5" cy="79.7" r="5"/><circle cx="128.5" cy="104.4" r="5"/><circle cx="128.5" cy="129.1" r="5"/><circle cx="128.5" cy="153.7" r="5"/><circle cx="128.5" cy="178.4" r="5"/><circle cx="128.5" cy="203.1" r="5"/><circle cx="128.5" cy="227.7" r="5"/><circle cx="128.5" cy="252.4" r="5"/><circle cx="128.5" cy="277.1" r="5"/><circle cx="128.5" cy="301.7" r="5"/><circle cx="128.5" cy="326.4" r="5"/><circle cx="128.5" cy="351.1" r="5"/><circle cx="128.5" cy="375.7" r="5"/><circle cx="128.5" cy="400.4" r="5"/><circle cx="128.5" cy="425.1" r="5"/><circle cx="128.5" cy="449.7" r="5"/><circle cx="103.8" cy="30.4" r="5"/><circle cx="103.8" cy="55.1" r="5"/><circle cx="103.8" cy="79.7" r="5"/><circle cx="103.8" cy="104.4" r="5"/><circle cx="103.8" cy="129.1" r="5"/><circle cx="103.8" cy="153.7" r="5"/><circle cx="103.8" cy="178.4" r="5"/><circle cx="103.8" cy="203.1" r="5"/><circle cx="103.8" cy="227.7" r="5"/><circle cx="103.8" cy="252.4" r="5"/><circle cx="103.8" cy="277.1" r="5"/><circle cx="103.8" cy="301.7" r="5"/><circle cx="103.8" cy="326.4" r="5"/><circle cx="103.8" cy="351.1" r="5"/><circle cx="103.8" cy="375.7" r="5"/><circle cx="103.8" cy="400.4" r="5"/><circle cx="103.8" cy="425.1" r="5"/><circle cx="79.1" cy="55.1" r="5"/><circle cx="79.116" cy="79.703" r="5" transform="translate(79.115690, 79.702930) rotate(-80.781636) translate(-79.115690, -79.702930)"/><circle cx="79.116" cy="104.403" r="5" transform="translate(79.115960, 104.403370) rotate(-80.781636) translate(-79.115960, -104.403370)"/><circle cx="79.116" cy="129.104" r="5" transform="translate(79.116330, 129.103710) rotate(-80.781636) translate(-79.116330, -129.103710)"/><circle cx="79.117" cy="153.704" r="5" transform="translate(79.116590, 153.704230) rotate(-80.781636) translate(-79.116590, -153.704230)"/><circle cx="79.117" cy="178.405" r="5" transform="translate(79.116960, 178.404570) rotate(-80.781636) translate(-79.116960, -178.404570)"/><circle cx="79.117" cy="203.105" r="5" transform="translate(79.117330, 203.105110) rotate(-80.781636) translate(-79.117330, -203.105110)"/><circle cx="79.118" cy="227.706" r="5" transform="translate(79.117590, 227.705530) rotate(-80.781636) translate(-79.117590, -227.705530)"/><circle cx="79.118" cy="252.406" r="5" transform="translate(79.117860, 252.405870) rotate(-80.781636) translate(-79.117860, -252.405870)"/><circle cx="79.118" cy="277.106" r="5" transform="translate(79.118230, 277.106410) rotate(-80.781636) translate(-79.118230, -277.106410)"/><circle cx="79.118" cy="301.707" r="5" transform="translate(79.118490, 301.706830) rotate(-80.781636) translate(-79.118490, -301.706830)"/><circle cx="79.119" cy="326.407" r="5" transform="translate(79.118760, 326.407170) rotate(-80.781636) translate(-79.118760, -326.407170)"/><circle cx="79.119" cy="351.108" r="5" transform="translate(79.119130, 351.107610) rotate(-80.781636) translate(-79.119130, -351.107610)"/><circle cx="79.119" cy="375.708" r="5" transform="translate(79.119390, 375.708130) rotate(-80.781636) translate(-79.119390, -375.708130)"/><circle cx="79.12" cy="400.409" r="5" transform="translate(79.119660, 400.408570) rotate(-80.781636) translate(-79.119660, -400.408570)"/><circle cx="79.12" cy="425.109" r="5" transform="translate(79.120030, 425.108910) rotate(-80.781636) translate(-79.120030, -425.108910)"/><circle cx="54.5" cy="79.7" r="5"/><circle cx="54.5" cy="104.4" r="5"/><circle cx="54.5" cy="129.1" r="5"/><circle cx="54.5" cy="153.7" r="5"/><circle cx="54.5" cy="178.4" r="5"/><circle cx="54.5" cy="203.1" r="5"/><circle cx="54.5" cy="227.7" r="5"/><circle cx="54.5" cy="252.4" r="5"/><circle cx="54.5" cy="277.1" r="5"/><circle cx="54.5" cy="301.7" r="5"/><circle cx="54.5" cy="326.4" r="5"/><circle cx="54.5" cy="351.1" r="5"/><circle cx="54.5" cy="375.7" r="5"/><circle cx="54.5" cy="400.4" r="5"/><circle cx="29.8" cy="129.1" r="5"/><circle cx="29.8" cy="153.7" r="5"/><circle cx="29.8" cy="178.4" r="5"/><circle cx="29.8" cy="203.1" r="5"/><circle cx="29.8" cy="227.7" r="5"/><circle cx="29.8" cy="252.4" r="5"/><circle cx="29.8" cy="277.1" r="5"/><circle cx="29.8" cy="301.7" r="5"/><circle cx="29.8" cy="326.4" r="5"/><circle cx="29.8" cy="351.1" r="5"/><circle cx="5.1" cy="178.4" r="5"/><circle cx="5.1" cy="203.1" r="5"/><circle cx="5.1" cy="227.7" r="5"/><circle cx="5.1" cy="252.4" r="5"/><circle cx="5.1" cy="277.1" r="5"/></g><g transform="translate(408.000000, 262.000000)"><g fill-rule="nonzero"><rect id="Rectangle" width="992.5" height="434.6" x="5.9" y="5.6" fill="#7FD6C2"/><path id="Shape" fill="#383A48" d="M998.3,445.1 L5.9,445.1 C3.1,445.1 0.9,442.9 0.9,440.1 L0.9,5.6 C0.9,2.8 3.1,0.6 5.9,0.6 L998.4,0.6 C1001.2,0.6 1003.4,2.8 1003.4,5.6 L1003.4,440.2 C1003.3,442.9 1001.1,445.1 998.3,445.1 Z M10.9,435.1 L993.4,435.1 L993.4,10.6 L10.9,10.6 L10.9,435.1 Z"/></g><path id="Path" fill="#F3F6E6" fill-rule="nonzero" d="M901.6,158.9 L901.6,286.9 C858.6,286.9 823.7,321.8 823.7,364.8 L180.5,364.8 C180.5,321.8 145.6,286.9 102.6,286.9 L102.6,158.9 C145.6,158.9 180.5,124 180.5,81 L823.7,81 C823.7,124 858.6,158.9 901.6,158.9 Z"/><polygon id="Path" fill="#F3F6E6" fill-rule="nonzero" points="127.2 113.9 116.6 122.2 91.8 122.2 86.2 115.1 96.3 107.7 100.2 112.6 111.8 112.6 115.7 109.5 117.6 100.9 115.6 98.5 100.1 98.5 94.5 91.8 99.4 69.6 134.8 69.6 132.6 79.2 109.7 79.2 107.5 88.8 123.8 88.8 130.7 97.1"/><polygon id="Path" fill="#F3F6E6" fill-rule="nonzero" points="919.3 374.1 908.7 382.4 884 382.4 878.4 375.3 888.5 367.9 892.4 372.8 904 372.8 907.9 369.7 909.8 361.1 907.8 358.7 892.3 358.7 886.7 352 891.6 329.8 927 329.8 924.8 339.4 902 339.4 899.8 349 916.1 349 923 357.3"/><circle id="Oval" cx="502.088" cy="222.903" r="113.299" fill="#7FD6C2" fill-rule="nonzero" transform="translate(502.088300, 222.903480) rotate(-45.000000) translate(-502.088300, -222.903480)"/><g fill-rule="nonzero" transform="translate(440.000000, 151.000000)"><polygon id="Path" fill="#7FD6C2" points="118.6 118.5 5.6 118.5 62.1 5.4"/><path id="Shape" fill="#383A48" d="M118.6,123.5 L5.5,123.5 C3.8,123.5 2.2,122.6 1.2,121.1 C0.3,119.6 0.2,117.8 1,116.2 L57.5,3.1 C58.3,1.4 60.1,0.3 62,0.3 C63.9,0.3 65.6,1.4 66.5,3.1 L123,116.2 C123.8,117.7 123.7,119.6 122.8,121.1 C122,122.6 120.4,123.5 118.6,123.5 Z M13.7,113.5 L110.6,113.5 L62.2,16.6 L13.7,113.5 Z"/></g><path id="Path" fill="#7FD6C2" fill-rule="nonzero" d="M796.3,247.4 L698.3,247.4 C684.7,247.4 673.7,236.4 673.7,222.8 L673.7,222.8 C673.7,209.2 684.7,198.2 698.3,198.2 L796.3,198.2 C809.9,198.2 820.9,209.2 820.9,222.8 L820.9,222.8 C820.8,236.4 809.8,247.4 796.3,247.4 Z"/><path id="Path" fill="#7FD6C2" fill-rule="nonzero" d="M207.9,247.4 L305.9,247.4 C319.5,247.4 330.5,236.4 330.5,222.8 L330.5,222.8 C330.5,209.2 319.5,198.2 305.9,198.2 L207.9,198.2 C194.3,198.2 183.3,209.2 183.3,222.8 L183.3,222.8 C183.4,236.4 194.4,247.4 207.9,247.4 Z"/><path id="Path" fill="#383A48" fill-rule="nonzero" d="M524.6,206.5 L479.5,206.5 C476.7,206.5 474.5,204.3 474.5,201.5 C474.5,198.7 476.7,196.5 479.5,196.5 L524.6,196.5 C527.4,196.5 529.6,198.7 529.6,201.5 C529.6,204.3 527.4,206.5 524.6,206.5 Z"/><path id="Path" fill="#383A48" fill-rule="nonzero" d="M542.8,242.9 L461.3,242.9 C458.5,242.9 456.3,240.7 456.3,237.9 C456.3,235.1 458.5,232.9 461.3,232.9 L542.8,232.9 C545.6,232.9 547.8,235.1 547.8,237.9 C547.8,240.7 545.6,242.9 542.8,242.9 Z"/><path id="Path" fill="#383A48" fill-rule="nonzero" d="M502.1,242.9 C499.3,242.9 497.1,240.7 497.1,237.9 L497.1,201.5 C497.1,198.7 499.3,196.5 502.1,196.5 C504.9,196.5 507.1,198.7 507.1,201.5 L507.1,237.9 C507.1,240.6 504.9,242.9 502.1,242.9 Z"/><path id="Path" fill="#383A48" fill-rule="nonzero" d="M475.3,274.5 C472.5,274.5 470.3,272.3 470.3,269.5 L470.3,237.9 C470.3,235.1 472.5,232.9 475.3,232.9 C478.1,232.9 480.3,235.1 480.3,237.9 L480.3,269.5 C480.3,272.2 478,274.5 475.3,274.5 Z"/><g id="Path" transform="translate(523.000000, 232.000000)"><line x1="5.9" x2="5.9" y1="5.9" y2="37.5"/><path fill="#383A48" fill-rule="nonzero" d="M5.9,42.5 C3.1,42.5 0.9,40.3 0.9,37.5 L0.9,5.9 C0.9,3.1 3.1,0.9 5.9,0.9 C8.7,0.9 10.9,3.1 10.9,5.9 L10.9,37.5 C10.9,40.2 8.7,42.5 5.9,42.5 Z"/></g></g><g transform="translate(368.000000, 216.000000)"><g fill-rule="nonzero"><rect id="Rectangle" width="992.5" height="434.6" x="5.1" y="5" fill="#7FD6C2"/><path id="Shape" fill="#383A48" d="M997.6,444.5 L5.1,444.5 C2.3,444.5 0.1,442.3 0.1,439.5 L0.1,5 C0.1,2.2 2.3,0 5.1,0 L997.6,0 C1000.4,0 1002.6,2.2 1002.6,5 L1002.6,439.6 C1002.6,442.3 1000.4,444.5 997.6,444.5 Z M10.1,434.5 L992.6,434.5 L992.6,10 L10.1,10 L10.1,434.5 Z"/></g><path id="Path" fill="#F3F6E6" fill-rule="nonzero" d="M900.8,158.3 L900.8,286.3 C857.8,286.3 822.9,321.2 822.9,364.2 L179.8,364.2 C179.8,321.2 144.9,286.3 101.9,286.3 L101.9,158.3 C144.9,158.3 179.8,123.4 179.8,80.4 L823,80.4 C823,123.4 857.8,158.3 900.8,158.3 Z"/><polygon id="Path" fill="#F3F6E6" fill-rule="nonzero" points="126.5 113.3 115.9 121.6 91.1 121.6 85.5 114.5 95.6 107.1 99.5 112 111.1 112 115 108.9 116.9 100.3 114.9 97.9 99.4 97.9 93.8 91.2 98.7 69 134.1 69 131.9 78.6 109 78.6 106.8 88.2 123.1 88.2 130 96.5"/><polygon id="Path" fill="#F3F6E6" fill-rule="nonzero" points="918.6 373.5 908 381.8 883.2 381.8 877.6 374.7 887.7 367.3 891.6 372.2 903.2 372.2 907.1 369.1 909 360.5 907 358.1 891.5 358.1 885.9 351.4 890.8 329.2 926.2 329.2 924 338.8 901.1 338.8 898.9 348.4 915.2 348.4 922.1 356.7"/><circle id="Oval" cx="501.389" cy="222.303" r="113.299" fill="#7FD6C2" fill-rule="nonzero" transform="translate(501.388870, 222.303490) rotate(-45.000000) translate(-501.388870, -222.303490)"/><g fill-rule="nonzero" transform="translate(439.000000, 150.000000)"><polygon id="Path" fill="#7FD6C2" points="118.9 118.9 5.8 118.9 62.4 5.8"/><path id="Shape" fill="#383A48" d="M118.9,123.9 L5.8,123.9 C4.1,123.9 2.5,123 1.5,121.5 C0.6,120 0.5,118.2 1.3,116.6 L57.8,3.5 C58.6,1.8 60.4,0.7 62.3,0.7 C64.2,0.7 65.9,1.8 66.8,3.5 L123.3,116.6 C124.1,118.1 124,120 123.1,121.5 C122.2,123 120.6,123.9 118.9,123.9 Z M13.9,113.9 L110.8,113.9 L62.4,17 L13.9,113.9 Z"/></g><path id="Path" fill="#7FD6C2" fill-rule="nonzero" d="M795.5,246.8 L697.5,246.8 C683.9,246.8 672.9,235.8 672.9,222.2 L672.9,222.2 C672.9,208.6 683.9,197.6 697.5,197.6 L795.5,197.6 C809.1,197.6 820.1,208.6 820.1,222.2 L820.1,222.2 C820.1,235.8 809.1,246.8 795.5,246.8 Z"/><path id="Path" fill="#7FD6C2" fill-rule="nonzero" d="M207.2,246.8 L305.2,246.8 C318.8,246.8 329.8,235.8 329.8,222.2 L329.8,222.2 C329.8,208.6 318.8,197.6 305.2,197.6 L207.2,197.6 C193.6,197.6 182.6,208.6 182.6,222.2 L182.6,222.2 C182.6,235.8 193.6,246.8 207.2,246.8 Z"/><path id="Path" fill="#383A48" fill-rule="nonzero" d="M523.9,205.9 L478.8,205.9 C476,205.9 473.8,203.7 473.8,200.9 C473.8,198.1 476,195.9 478.8,195.9 L523.9,195.9 C526.7,195.9 528.9,198.1 528.9,200.9 C528.9,203.7 526.7,205.9 523.9,205.9 Z"/><path id="Path" fill="#383A48" fill-rule="nonzero" d="M542.1,242.3 L460.6,242.3 C457.8,242.3 455.6,240.1 455.6,237.3 C455.6,234.5 457.8,232.3 460.6,232.3 L542.1,232.3 C544.9,232.3 547.1,234.5 547.1,237.3 C547.1,240.1 544.9,242.3 542.1,242.3 Z"/><path id="Path" fill="#383A48" fill-rule="nonzero" d="M501.4,242.3 C498.6,242.3 496.4,240.1 496.4,237.3 L496.4,200.9 C496.4,198.1 498.6,195.9 501.4,195.9 C504.2,195.9 506.4,198.1 506.4,200.9 L506.4,237.3 C506.4,240 504.1,242.3 501.4,242.3 Z"/><path id="Path" fill="#383A48" fill-rule="nonzero" d="M474.5,273.9 C471.7,273.9 469.5,271.7 469.5,268.9 L469.5,237.3 C469.5,234.5 471.7,232.3 474.5,232.3 C477.3,232.3 479.5,234.5 479.5,237.3 L479.5,268.9 C479.5,271.6 477.3,273.9 474.5,273.9 Z"/><g id="Path" transform="translate(523.000000, 232.000000)"><line x1="5.2" x2="5.2" y1="5.3" y2="36.9"/><path fill="#383A48" fill-rule="nonzero" d="M5.2,41.9 C2.4,41.9 0.2,39.7 0.2,36.9 L0.2,5.3 C0.2,2.5 2.4,0.3 5.2,0.3 C8,0.3 10.2,2.5 10.2,5.3 L10.2,36.9 C10.2,39.6 8,41.9 5.2,41.9 Z"/></g></g><g transform="translate(327.000000, 0.000000)"><path id="Path" fill="#E0719E" fill-rule="nonzero" d="M997.9,0 C905.1,0 829.7,75.5 829.7,168.2 C829.7,171 831.9,173.2 834.7,173.2 L992.9,173.2 L992.9,331.4 C992.9,334.2 995.1,336.4 997.9,336.4 C1090.7,336.4 1166.1,260.9 1166.1,168.2 C1166.1,75.4 1090.6,0 997.9,0 Z"/><g fill-rule="nonzero" transform="translate(0.000000, 163.000000)"><path id="Path" fill="#7FD6C2" d="M997.9,168.4 L997.9,439.7 L5.4,439.7 L5.4,5.2 L834.6,5.2 C834.6,95.3 907.7,168.4 997.9,168.4 Z"/><path id="Shape" fill="#383A48" d="M997.9,444.7 L5.4,444.7 C2.6,444.7 0.4,442.5 0.4,439.7 L0.4,5.2 C0.4,2.4 2.6,0.2 5.4,0.2 L834.6,0.2 C837.4,0.2 839.6,2.4 839.6,5.2 C839.6,92.5 910.6,163.4 997.8,163.4 C1000.6,163.4 1002.80314,165.6 1002.80314,168.4 L1002.80314,439.7 C1002.9,442.5 1000.6,444.7 997.9,444.7 Z M10.4,434.7 L992.9,434.7 L992.9,173.3 C904.1,170.7 832.3,98.9 829.7,10.1 L10.4,10.1 L10.4,434.7 Z"/></g><path id="Path" fill="#F3F6E6" fill-rule="nonzero" d="M901.1,321.5 L901.1,449.5 C858.1,449.5 823.2,484.4 823.2,527.4 L180,527.4 C180,484.4 145.1,449.5 102.1,449.5 L102.1,321.5 C145.1,321.5 180,286.6 180,243.6 L823.2,243.6 C823.2,286.6 858.1,321.5 901.1,321.5 Z"/><polygon id="Path" fill="#F3F6E6" fill-rule="nonzero" points="126.8 276.5 116.2 284.8 91.4 284.8 85.8 277.7 95.9 270.3 99.8 275.2 111.4 275.2 115.3 272.1 117.2 263.5 115.2 261.1 99.7 261.1 94.1 254.4 99 232.2 134.4 232.2 132.2 241.8 109.3 241.8 107.1 251.4 123.4 251.4 130.3 259.7"/><polygon id="Path" fill="#F3F6E6" fill-rule="nonzero" points="918.9 536.7 908.3 545 883.5 545 877.9 537.9 888 530.5 891.9 535.4 903.5 535.4 907.4 532.3 909.3 523.7 907.3 521.3 891.8 521.3 886.2 514.6 891.1 492.4 926.5 492.4 924.3 502 901.4 502 899.2 511.6 915.5 511.6 922.4 519.9"/><circle id="Oval" cx="501.59" cy="385.504" r="113.299" fill="#7FD6C2" fill-rule="nonzero" transform="translate(501.589510, 385.503590) rotate(-45.000000) translate(-501.589510, -385.503590)"/><g fill-rule="nonzero" transform="translate(440.000000, 313.000000)"><polygon id="Path" fill="#7FD6C2" points="118.2 119.1 5.1 119.1 61.6 6"/><path id="Shape" fill="#383A48" d="M118.2,124.1 L5.1,124.1 C3.4,124.1 1.8,123.2 0.8,121.7 C-0.1,120.2 -0.2,118.4 0.6,116.8 L57.1,3.7 C57.9,2 59.7,0.9 61.6,0.9 C63.5,0.9 65.2,2 66.1,3.7 L122.6,116.8 C123.4,118.3 123.3,120.2 122.4,121.7 C121.5,123.2 119.9,124.1 118.2,124.1 Z M13.2,114.1 L110.1,114.1 L61.7,17.2 L13.2,114.1 Z"/></g><path id="Path" fill="#7FD6C2" fill-rule="nonzero" d="M795.8,410 L697.8,410 C684.2,410 673.2,399 673.2,385.4 L673.2,385.4 C673.2,371.8 684.2,360.8 697.8,360.8 L795.8,360.8 C809.4,360.8 820.4,371.8 820.4,385.4 L820.4,385.4 C820.4,399 809.4,410 795.8,410 Z"/><path id="Path" fill="#7FD6C2" fill-rule="nonzero" d="M207.5,410 L305.5,410 C319.1,410 330.1,399 330.1,385.4 L330.1,385.4 C330.1,371.8 319.1,360.8 305.5,360.8 L207.5,360.8 C193.9,360.8 182.9,371.8 182.9,385.4 L182.9,385.4 C182.9,399 193.9,410 207.5,410 Z"/><path id="Path" fill="#383A48" fill-rule="nonzero" d="M524.2,369.1 L479.1,369.1 C476.3,369.1 474.1,366.9 474.1,364.1 C474.1,361.3 476.3,359.1 479.1,359.1 L524.2,359.1 C527,359.1 529.2,361.3 529.2,364.1 C529.2,366.9 526.9,369.1 524.2,369.1 Z"/><path id="Path" fill="#383A48" fill-rule="nonzero" d="M542.4,405.5 L460.9,405.5 C458.1,405.5 455.9,403.3 455.9,400.5 C455.9,397.7 458.1,395.5 460.9,395.5 L542.4,395.5 C545.2,395.5 547.4,397.7 547.4,400.5 C547.4,403.3 545.1,405.5 542.4,405.5 Z"/><path id="Path" fill="#383A48" fill-rule="nonzero" d="M501.6,405.5 C498.8,405.5 496.6,403.3 496.6,400.5 L496.6,364.1 C496.6,361.3 498.8,359.1 501.6,359.1 C504.4,359.1 506.6,361.3 506.6,364.1 L506.6,400.5 C506.6,403.2 504.4,405.5 501.6,405.5 Z"/><path id="Path" fill="#383A48" fill-rule="nonzero" d="M474.8,437.1 C472,437.1 469.8,434.9 469.8,432.1 L469.8,400.5 C469.8,397.7 472,395.5 474.8,395.5 C477.6,395.5 479.8,397.7 479.8,400.5 L479.8,432.1 C479.8,434.8 477.6,437.1 474.8,437.1 Z"/><g id="Path" transform="translate(523.000000, 395.000000)"><line x1="5.5" x2="5.5" y1="5.5" y2="37.1"/><path fill="#383A48" fill-rule="nonzero" d="M5.5,42.1 C2.7,42.1 0.5,39.9 0.5,37.1 L0.5,5.5 C0.5,2.7 2.7,0.5 5.5,0.5 C8.3,0.5 10.5,2.7 10.5,5.5 L10.5,37.1 C10.5,39.8 8.2,42.1 5.5,42.1 Z"/></g></g><g fill-rule="nonzero" transform="translate(0.000000, 201.000000)"><path id="Path" fill="#F6E049" d="M660.7,261.9 C660.7,294.7 654.6,326 643.4,354.8 C638.5,367.3 632.7,379.4 626,390.8 C614.3,410.9 600,429.2 583.4,445.3 C537.2,490.4 474,518.2 404.4,518.2 C334.8,518.2 271.6,490.4 225.4,445.3 C218.2,438.3 211.5,430.9 205.2,423.2 C169.4,379.1 148,323 148,261.9 C148,200.8 169.4,144.6 205.1,100.6 C223.3,78.1 245.2,58.8 269.9,43.6 C283.4,35.3 297.7,28.2 312.6,22.5 C317.9,20.5 323.3,18.6 328.8,16.9 C334.9,15 341.1,13.4 347.3,12 C350.8,11.2 354.3,10.5 357.8,9.9 C372.9,7.1 388.4,5.7 404.2,5.7 C427,5.7 449.2,8.7 470.2,14.3 C579.9,43.3 660.7,143.1 660.7,261.9 Z"/><g transform="translate(200.000000, 0.000000)"><g><path id="Path" fill="#7FD6C2" d="M460.7,261.9 C460.7,294.7 454.6,326 443.4,354.8 C438.5,367.3 432.7,379.4 426,390.8 C414.3,410.9 400,429.2 383.4,445.3 L5.1,445.3 L5.1,100.6 C23.3,78.1 45.2,58.8 69.9,43.6 C83.4,35.3 97.7,28.2 112.6,22.5 C117.9,20.5 123.3,18.6 128.8,16.9 C134.9,15 141.1,13.4 147.3,12 C150.8,11.2 154.3,10.5 157.8,9.9 C172.9,7.1 188.4,5.7 204.2,5.7 C227,5.7 249.2,8.7 270.2,14.3 C379.9,43.3 460.7,143.1 460.7,261.9 Z"/><path id="Shape" fill="#383A48" d="M383.4,450.3 L5.1,450.3 C2.3,450.3 0.1,448.1 0.1,445.3 L0.1,100.6 C0.1,99.5 0.5,98.3 1.2,97.5 C19.9,74.5 42.1,54.9 67.3,39.4 C81.1,30.9 95.7,23.6 110.8,17.9 C116.2,15.8 121.7,13.9 127.3,12.2 C133.5,10.3 139.9,8.6 146.2,7.2 C149.8,6.4 153.4,5.6 156.9,5 C172.4,2.2 188.3,0.7 204.2,0.7 C227,0.7 249.7,3.6 271.5,9.5 C385.7,39.9 465.5,143.7 465.5,262.1 C465.5,294.7 459.5,326.6 447.8,356.8 C442.9,369.4 436.9,381.8 430.1,393.5 C418.2,413.9 403.6,432.6 386.7,449.1 C385.9,449.8 384.7,450.3 383.4,450.3 Z M10.1,440.3 L381.3,440.3 C397,424.8 410.5,407.3 421.6,388.3 C428.2,377 433.9,365.1 438.6,353 C449.9,324 455.6,293.3 455.6,261.9 C455.6,148.1 378.9,48.2 269,19 C248,13.4 226.2,10.6 204.3,10.6 C189,10.6 173.7,12 158.8,14.7 C155.4,15.3 152,16 148.5,16.8 C142.4,18.2 136.3,19.8 130.3,21.6 C124.9,23.3 119.6,25.1 114.4,27.1 C99.9,32.7 85.8,39.6 72.5,47.8 C48.8,62.4 27.8,80.8 10,102.3 L10,440.3 L10.1,440.3 L10.1,440.3 Z"/></g><g transform="translate(65.000000, 0.000000)"><path id="Path" fill="#7FD6C2" d="M395.7,261.9 C395.7,294.7 389.6,326 378.4,354.8 C373.5,367.3 367.7,379.4 361,390.8 L5,390.8 L5,43.6 C18.5,35.3 32.8,28.2 47.7,22.5 C53,20.5 58.4,18.6 63.9,16.9 C70,15 76.2,13.4 82.4,12 C85.9,11.2 89.4,10.5 92.9,9.9 C108,7.1 123.5,5.7 139.3,5.7 C162.1,5.7 184.3,8.7 205.3,14.3 C314.9,43.3 395.7,143.1 395.7,261.9 Z"/><path id="Shape" fill="#383A48" d="M360.9,395.8 L5,395.8 C2.2,395.8 0,393.6 0,390.8 L0,43.6 C0,41.9 0.9,40.3 2.4,39.3 C16.2,30.8 30.8,23.5 45.9,17.8 C51.3,15.7 56.8,13.8 62.4,12.1 C68.6,10.2 75,8.5 81.3,7.1 C84.9,6.3 88.5,5.5 92,4.9 C107.5,2.1 123.4,0.6 139.3,0.6 C162.1,0.6 184.8,3.5 206.6,9.4 C320.8,39.8 400.6,143.6 400.6,262 C400.6,294.6 394.6,326.5 382.9,356.7 C378,369.3 372,381.7 365.2,393.4 C364.4,394.9 362.7,395.8 360.9,395.8 Z M10,385.8 L358,385.8 C364,375.2 369.2,364.2 373.6,353 C384.9,324 390.6,293.3 390.6,261.9 C390.6,148.1 313.9,48.2 204,19 C183,13.4 161.2,10.6 139.3,10.6 C124,10.6 108.7,12 93.8,14.7 C90.4,15.3 87,16 83.5,16.8 C77.4,18.2 71.3,19.8 65.3,21.6 C59.9,23.3 54.6,25.1 49.4,27.1 C35.7,32.3 22.4,38.8 9.9,46.4 L9.9,385.8 L10,385.8 L10,385.8 Z"/></g><path id="Path" fill="#F3F6E6" d="M460.7,261.9 C460.7,294.7 454.6,326 443.4,354.8 L214.8,354.8 C214.8,303.2 172.9,261.3 121.3,261.3 L121.3,107.6 C172.9,107.6 214.8,65.8 214.8,14.1 L270.4,14.1 C379.9,43.3 460.7,143.1 460.7,261.9 Z"/><path id="Shape" fill="#F3F6E6" d="M147,23.5 L127.4,23.5 L128.9,16.9 C123.4,18.6 118,20.4 112.7,22.5 L111.7,27.1 L118.4,35.1 L137,35.1 L139.4,38 L137.1,48.4 L132.4,52.1 L118.5,52.1 L113.8,46.2 L101.7,55.1 L108.5,63.7 L138.3,63.7 L151,53.8 L155.4,33.5 L147,23.5 Z M147.4,11.9 L157.4,11.9 L157.9,9.8 C154.4,10.4 150.9,11.1 147.4,11.9 Z"/><path id="Path" fill="#7FD6C2" d="M247.7,214 L365.4,214 C381.7,214 394.9,200.8 394.9,184.5 L394.9,184.5 C394.9,168.2 381.7,155 365.4,155 L247.7,155 C231.4,155 218.2,168.2 218.2,184.5 L218.2,184.5 C218.2,200.8 231.4,214 247.7,214 Z"/></g><path id="Shape" fill="#383A48" d="M404.3,523.2 C334.5,523.2 268.9,496 219.5,446.7 C170.1,397.3 143,331.7 143,261.9 C143,192.1 170.2,126.5 219.5,77.1 C268.9,27.7 334.5,0.6 404.3,0.6 C474.1,0.6 539.7,27.8 589.1,77.1 C638.5,126.5 665.6,192.1 665.6,261.9 C665.6,331.7 638.4,397.3 589.1,446.7 C539.8,496 474.1,523.2 404.3,523.2 Z M404.3,10.6 C337.2,10.6 274.1,36.7 226.6,84.2 C179.2,131.6 153,194.8 153,261.9 C153,329 179.1,392.1 226.6,439.6 C274.1,487.1 337.2,513.2 404.3,513.2 C471.4,513.2 534.5,487.1 582,439.6 C629.5,392.1 655.6,329 655.6,261.9 C655.6,194.8 629.5,131.6 582,84.2 C534.6,36.7 471.5,10.6 404.3,10.6 Z"/><path id="Path" fill="#383A48" d="M236.4,451.9 L191.9,400.4 C183.1,390.2 167.6,389.1 157.4,397.9 C147.2,406.7 146.1,422.2 154.9,432.4 L155.3,432.9 L25,519 C12.1,527.5 3.5,541.2 1.4,556.5 C-0.7,571.8 3.9,587.3 14,599 C24.1,610.7 38.8,617.5 54.2,617.6 C54.4,617.6 54.5,617.6 54.7,617.6 C70,617.6 84.6,611.1 94.8,599.7 L199,483.4 L199.4,483.9 C203.7,488.8 209.6,491.8 216.1,492.3 C216.7,492.3 217.3,492.4 217.9,492.4 C223.8,492.4 229.4,490.3 233.8,486.5 C244.1,477.6 245.2,462.1 236.4,451.9 Z"/><path id="Path" fill="#FFF" d="M233.1,168.4 C229.3,168.4 225.5,167.3 222.1,165.1 C212.9,159 210.4,146.6 216.5,137.4 C235.9,108.2 262.3,83.5 292.7,66.1 C302.3,60.6 314.5,64 320,73.5 C325.5,83.1 322.1,95.3 312.6,100.8 C287.5,115.1 265.8,135.4 249.9,159.5 C246,165.3 239.6,168.4 233.1,168.4 Z"/></g><path id="Path" fill="#4053FA" fill-rule="nonzero" d="M1324.9,163.2 L1161.7,163.2 C1158.9,163.2 1156.7,165.4 1156.7,168.2 C1156.7,261 1232.2,336.4 1324.9,336.4 C1327.7,336.4 1329.9,334.2 1329.9,331.4 L1329.9,168.2 C1329.9,165.4 1327.6,163.2 1324.9,163.2 Z"/><path id="Path" fill="#383A48" fill-rule="nonzero" d="M1066.5,305.7 C1065.1,305.7 1063.8,305.2 1062.8,304.1 L824.9,44.4 C823,42.4 823.2,39.2 825.2,37.3 C827.2,35.4 830.4,35.6 832.3,37.6 L1070.2,297.3 C1072.1,299.3 1071.9,302.5 1069.9,304.4 C1068.9,305.3 1067.7,305.7 1066.5,305.7 Z"/><path id="Path" fill="#E0719E" fill-rule="nonzero" d="M609.1,127 L520,37.5 C518.6,36.1 516.4,35.6 514.5,36.4 C512.6,37.2 511.4,39 511.4,41 L511.4,118.4 L430.8,37.5 C429.4,36.1 427.2,35.6 425.3,36.4 C423.4,37.2 422.2,39 422.2,41 L422.2,130.5 C422.2,133.3 424.4,135.5 427.2,135.5 L516.3,135.5 L605.4,135.5 C607.4,135.5 609.2,134.3 610,132.4 C610.9,130.6 610.5,128.5 609.1,127 Z"/><path id="Path" fill="#383A48" fill-rule="nonzero" d="M1080.9,83.5 L1066.1,73.4 L1075,57.9 C1076,56.1 1075.9,53.9 1074.6,52.3 C1073.3,50.7 1071.2,50 1069.2,50.6 L1052.1,55.8 L1045.5,39.1 C1044.7,37.2 1042.9,35.9 1040.8,35.9 C1038.7,35.9 1036.9,37.2 1036.1,39.1 L1029.5,55.8 L1012.4,50.6 C1010.4,50 1008.3,50.7 1007,52.3 C1005.7,53.9 1005.6,56.1 1006.6,57.9 L1015.5,73.4 L1000.7,83.5 C999,84.7 998.2,86.7 998.7,88.7 C999.2,90.7 1000.8,92.2 1002.8,92.5 L1020.5,95.2 L1019.2,113.1 C1019.1,115.1 1020.2,117.1 1022,118 C1023.8,118.9 1026.1,118.6 1027.6,117.2 L1040.8,105 L1054,117.2 C1054.9,118.1 1056.2,118.5 1057.4,118.5 C1058.1,118.5 1058.9,118.3 1059.6,118 C1061.4,117.1 1062.6,115.2 1062.4,113.1 L1061.1,95.2 L1078.8,92.5 C1080.8,92.2 1082.5,90.7 1082.9,88.7 C1083.4,86.8 1082.6,84.7 1080.9,83.5 Z"/><g transform="translate(103.000000, 268.000000)"><rect id="Rectangle" width="10" height="33" x="11.9" y="0" fill="#383A48" fill-rule="nonzero"/><g transform="translate(0.000000, 11.000000)"><line id="Path" x1=".4" x2="33.4" y1="5.5" y2="5.5"/><rect id="Rectangle" width="33" height="10" x=".4" y=".5" fill="#383A48" fill-rule="nonzero"/></g></g><g transform="translate(739.000000, 730.000000)"><rect id="Rectangle" width="10" height="33" x="12.1" y=".3" fill="#383A48" fill-rule="nonzero"/><g transform="translate(0.000000, 11.000000)"><line id="Path" x1=".6" x2="33.6" y1="5.8" y2="5.8"/><rect id="Rectangle" width="33" height="10" x=".6" y=".8" fill="#383A48" fill-rule="nonzero"/></g></g></g></g></g></svg>