<?xml version="1.0" encoding="utf-8"?>
<!-- Generator: Adobe Illustrator 22.0.1, SVG Export Plug-In . SVG Version: 6.00 Build 0)  -->
<svg version="1.1" id="Layer_1" xmlns="http://www.w3.org/2000/svg" xmlns:xlink="http://www.w3.org/1999/xlink" x="0px" y="0px" viewBox="0 0 1920 1080" style="enable-background:new 0 0 1920 1080;" xml:space="preserve">

<rect y="0" width="1920" height="1080" style="fill:#EEBED3;"/>
<g>
	<g>
		<g>
			<g>
				<circle cx="888.5" cy="685.7" r="5" style="fill:#383A48;"/>
			</g>
		</g>
		<g>
			<g>
				<circle cx="888.5" cy="710.4" r="5" style="fill:#383A48;"/>
			</g>
		</g>
		<g>
			<g>
				<circle cx="888.5" cy="735.1" r="5" style="fill:#383A48;"/>
			</g>
		</g>
		<g>
			<g>
				<circle cx="888.5" cy="759.7" r="5" style="fill:#383A48;"/>
			</g>
		</g>
		<g>
			<g>
				<circle cx="888.5" cy="784.4" r="5" style="fill:#383A48;"/>
			</g>
		</g>
		<g>
			<g>
				<circle cx="888.5" cy="809.1" r="5" style="fill:#383A48;"/>
			</g>
		</g>
		<g>
			<g>
				<circle cx="888.5" cy="833.7" r="5" style="fill:#383A48;"/>
			</g>
		</g>
		<g>
			<g>
				<circle cx="888.5" cy="858.4" r="5" style="fill:#383A48;"/>
			</g>
		</g>
		<g>
			<g>
				<circle cx="888.5" cy="883.1" r="5" style="fill:#383A48;"/>
			</g>
		</g>
		<g>
			<g>
				<circle cx="863.8" cy="685.7" r="5" style="fill:#383A48;"/>
			</g>
		</g>
		<g>
			<g>
				<circle cx="863.8" cy="710.4" r="5" style="fill:#383A48;"/>
			</g>
		</g>
		<g>
			<g>
				<circle cx="863.8" cy="735.1" r="5" style="fill:#383A48;"/>
			</g>
		</g>
		<g>
			<g>
				<circle cx="863.8" cy="759.7" r="5" style="fill:#383A48;"/>
			</g>
		</g>
		<g>
			<g>
				<circle cx="863.8" cy="784.4" r="5" style="fill:#383A48;"/>
			</g>
		</g>
		<g>
			<g>
				<circle cx="863.8" cy="809.1" r="5" style="fill:#383A48;"/>
			</g>
		</g>
		<g>
			<g>
				<circle cx="863.8" cy="833.7" r="5" style="fill:#383A48;"/>
			</g>
		</g>
		<g>
			<g>
				<circle cx="863.8" cy="858.4" r="5" style="fill:#383A48;"/>
			</g>
		</g>
		<g>
			<g>
				<circle cx="863.8" cy="883.1" r="5" style="fill:#383A48;"/>
			</g>
		</g>
		<g>
			<g>
				<circle cx="839.1" cy="685.7" r="5" style="fill:#383A48;"/>
			</g>
		</g>
		<g>
			<g>
				<circle cx="839.1" cy="710.4" r="5" style="fill:#383A48;"/>
			</g>
		</g>
		<g>
			<g>
				<circle cx="839.1" cy="735.1" r="5" style="fill:#383A48;"/>
			</g>
		</g>
		<g>
			<g>
				<circle cx="839.1" cy="759.7" r="5" style="fill:#383A48;"/>
			</g>
		</g>
		<g>
			<g>
				<circle cx="839.1" cy="784.4" r="5" style="fill:#383A48;"/>
			</g>
		</g>
		<g>
			<g>
				<circle cx="839.1" cy="809.1" r="5" style="fill:#383A48;"/>
			</g>
		</g>
		<g>
			<g>
				<circle cx="839.1" cy="833.7" r="5" style="fill:#383A48;"/>
			</g>
		</g>
		<g>
			<g>
				<circle cx="839.1" cy="858.4" r="5" style="fill:#383A48;"/>
			</g>
		</g>
		<g>
			<g>
				<circle cx="839.1" cy="883.1" r="5" style="fill:#383A48;"/>
			</g>
		</g>
		<g>
			<g>
				<circle cx="814.5" cy="685.7" r="5" style="fill:#383A48;"/>
			</g>
		</g>
		<g>
			<g>
				<circle cx="814.5" cy="710.4" r="5" style="fill:#383A48;"/>
			</g>
		</g>
		<g>
			<g>
				<circle cx="814.5" cy="735.1" r="5" style="fill:#383A48;"/>
			</g>
		</g>
		<g>
			<g>
				<circle cx="814.5" cy="759.7" r="5" style="fill:#383A48;"/>
			</g>
		</g>
		<g>
			<g>
				<circle cx="814.5" cy="784.4" r="5" style="fill:#383A48;"/>
			</g>
		</g>
		<g>
			<g>
				<circle cx="814.5" cy="809.1" r="5" style="fill:#383A48;"/>
			</g>
		</g>
		<g>
			<g>
				<circle cx="814.5" cy="833.7" r="5" style="fill:#383A48;"/>
			</g>
		</g>
		<g>
			<g>
				<circle cx="814.5" cy="858.4" r="5" style="fill:#383A48;"/>
			</g>
		</g>
		<g>
			<g>
				<circle cx="814.5" cy="883.1" r="5" style="fill:#383A48;"/>
			</g>
		</g>
		<g>
			<g>
				<circle cx="789.8" cy="685.7" r="5" style="fill:#383A48;"/>
			</g>
		</g>
		<g>
			<g>
				<circle cx="789.8" cy="710.4" r="5" style="fill:#383A48;"/>
			</g>
		</g>
		<g>
			<g>
				<circle cx="789.8" cy="735.1" r="5" style="fill:#383A48;"/>
			</g>
		</g>
		<g>
			<g>
				<circle cx="789.8" cy="759.7" r="5" style="fill:#383A48;"/>
			</g>
		</g>
		<g>
			<g>
				<circle cx="789.8" cy="784.4" r="5" style="fill:#383A48;"/>
			</g>
		</g>
		<g>
			<g>
				<circle cx="789.8" cy="809.1" r="5" style="fill:#383A48;"/>
			</g>
		</g>
		<g>
			<g>
				<circle cx="789.8" cy="833.7" r="5" style="fill:#383A48;"/>
			</g>
		</g>
		<g>
			<g>
				<circle cx="789.8" cy="858.4" r="5" style="fill:#383A48;"/>
			</g>
		</g>
		<g>
			<g>
				<circle cx="789.8" cy="883.1" r="5" style="fill:#383A48;"/>
			</g>
		</g>
	</g>
	<path d="M777.3,186.4c-0.9-1.3-2.4-2-4-2H277.4c-2,0-3.9,1.2-4.6,3.1s-0.3,4.1,1.2,5.5c9.6,9.3,30.7,37.5,41.7,77.7
		c8,29.4,9.7,60.9,5,93.6c-5.9,41-21.9,84-47.5,127.9c-45.1,77.1-20.3,124.5,11,184.5c26.1,50,58.7,112.3,58.7,211.7
		c0,2.8,2.2,5,5,5h132.4c1.8,0,3.4-0.9,4.3-2.4l178.1-297.7c0.2-0.4,0.4-0.8,0.5-1.2l115-401.3C778.5,189.3,778.2,187.6,777.3,186.4
		z" style="fill:#F3F6E6;"/>
	<path d="M1726.5,262.7c-2.8,0-5,2.2-5,5c0,38.4-26.7,62.6-63.6,96.2c-31.8,28.9-71.3,64.8-103.5,121.3
		c-17,29.8-26.7,57.3-36.1,83.9c-19.5,55.1-37.9,107.2-119.2,170.7c-36.8,28.7-91.5,39.9-149.3,51.8c-78.2,16.1-159,32.6-194.2,96.6
		c-0.9,1.5-0.8,3.4,0.1,5c0.9,1.5,2.5,2.5,4.3,2.5h578.3c51.4,0,93.2-41.8,93.2-93.2V267.7C1731.5,265,1729.2,262.7,1726.5,262.7z" style="fill:#F3F6E6;"/>
	<g>
		<rect x="878.4" y="688" width="181.6" height="202.6" style="fill:#F3F6E6;"/>
		<path d="M1060,895.6H878.4c-2.8,0-5-2.2-5-5V688c0-2.8,2.2-5,5-5H1060c2.8,0,5,2.2,5,5v202.6
			C1065,893.4,1062.8,895.6,1060,895.6z M883.4,885.6H1055V693H883.4V885.6z" style="fill:#383A48;"/>
	</g>
	<path d="M1060,683H878.4c-2.2,0-4.2,1.5-4.8,3.6s0.2,4.4,2.1,5.6l181.6,116c0.8,0.5,1.8,0.8,2.7,0.8
		c0.8,0,1.7-0.2,2.4-0.6c1.6-0.9,2.6-2.6,2.6-4.4V688C1065,685.3,1062.8,683,1060,683z" style="fill:#E0719E;"/>
	<g>
		<path d="M1331.5,695.9H606.9c-21.6,0-39.1-17.5-39.1-39.1V228.5c0-21.6,17.5-39.1,39.1-39.1h724.7
			c21.6,0,39.1,17.5,39.1,39.1v428.2C1370.6,678.3,1353.1,695.9,1331.5,695.9z" style="fill:#AAC6FC;"/>
		<path d="M1331.5,700.9H606.9c-24.3,0-44.1-19.8-44.1-44.1V228.5c0-24.3,19.8-44.1,44.1-44.1h724.7
			c24.3,0,44.1,19.8,44.1,44.1v428.2C1375.6,681.1,1355.8,700.9,1331.5,700.9z M606.9,194.4c-18.8,0-34.1,15.3-34.1,34.1v428.2
			c0,18.8,15.3,34.1,34.1,34.1h724.7c18.8,0,34.1-15.3,34.1-34.1V228.5c0-18.8-15.3-34.1-34.1-34.1H606.9z" style="fill:#383A48;"/>
	</g>
	<path d="M1370.6,596.9H567.7c-2.8,0-5,2.2-5,5V656c0,24.7,20.1,44.8,44.8,44.8h723.3c24.7,0,44.8-20.1,44.8-44.8v-54.1
		C1375.6,599.2,1373.4,596.9,1370.6,596.9z" style="fill:#383A48;"/>
	<g>
		<rect x="341.8" y="885.6" width="797.9" height="10" style="fill:#383A48;"/>
	</g>
	<g>
		<g>
			<rect x="920.2" y="302.8" width="450.4" height="299.1" style="fill:#F3F6E6;"/>
			<path d="M1370.6,606.9H920.2c-2.8,0-5-2.2-5-5V302.8c0-2.8,2.2-5,5-5h450.4c2.8,0,5,2.2,5,5v299.1
				C1375.6,604.7,1373.4,606.9,1370.6,606.9z M925.2,596.9h440.4V307.8H925.2V596.9z" style="fill:#383A48;"/>
		</g>
		<g>
			<rect x="920.2" y="302.8" width="450.4" height="87.8" style="fill:#F6E049;"/>
			<path d="M1370.6,395.6H920.2c-2.8,0-5-2.2-5-5v-87.8c0-2.8,2.2-5,5-5h450.4c2.8,0,5,2.2,5,5v87.8
				C1375.6,393.4,1373.4,395.6,1370.6,395.6z M925.2,385.6h440.4v-77.8H925.2V385.6z" style="fill:#383A48;"/>
		</g>
		<g>
			<rect x="995.5" y="451.7" width="299.8" height="72" style="fill:#F3F6E6;"/>
			<path d="M1295.3,528.7H995.5c-2.8,0-5-2.2-5-5v-72c0-2.8,2.2-5,5-5h299.8c2.8,0,5,2.2,5,5v72
				C1300.3,526.5,1298.1,528.7,1295.3,528.7z M1000.5,518.7h289.8v-62h-289.8L1000.5,518.7L1000.5,518.7z" style="fill:#383A48;"/>
		</g>
	</g>
	<g>
		<polygon points="414,555.2 920.2,302.8 727.4,834.6 646.9,700.9 480.2,888.3 396.5,813.7 562.5,627 		" style="fill:#F3F6E6;"/>
		<path d="M480.2,893.3c-1.2,0-2.4-0.4-3.3-1.3l-83.7-74.7c-2.1-1.8-2.2-5-0.4-7.1l161.7-181.7l-142.6-68.9
			c-1.7-0.8-2.8-2.6-2.8-4.5s1.1-3.7,2.8-4.5L918,298.3c1.8-0.9,4-0.6,5.6,0.7c1.5,1.4,2.1,3.5,1.4,5.4L732.1,836.3
			c-0.7,1.8-2.3,3.1-4.2,3.3s-3.8-0.7-4.8-2.4l-76.9-127.9L483.9,891.7c-0.9,1-2.1,1.6-3.4,1.7C480.4,893.3,480.3,893.3,480.2,893.3
			z M403.5,813.3l76.3,68l163.4-183.7c1.1-1.2,2.6-1.8,4.2-1.7c1.6,0.1,3,1,3.8,2.4l75,124.7l185-510.2L425.3,555.1l139.4,67.4
			c1.4,0.7,2.4,2,2.7,3.5s-0.1,3.1-1.2,4.3L403.5,813.3z" style="fill:#383A48;"/>
	</g>
	<g>
		<g>
			<g>
				<circle cx="1551" cy="356.3" r="134.8" style="fill:#7FD6C2;"/>
			</g>
			<g>
				<path d="M1551,496.2c-77.1,0-139.8-62.7-139.8-139.8s62.7-139.8,139.8-139.8c77.1,0,139.8,62.7,139.8,139.8
					C1690.9,433.4,1628.1,496.2,1551,496.2z M1551,226.5c-71.6,0-129.8,58.2-129.8,129.8s58.2,129.8,129.8,129.8
					c71.6,0,129.8-58.2,129.8-129.8S1622.6,226.5,1551,226.5z" style="fill:#383A48;"/>
			</g>
		</g>
		<g>
			<g>
				<circle cx="1551" cy="319" r="35.2" style="fill:#F3F6E6;"/>
				<path d="M1551,359.2c-22.1,0-40.2-18-40.2-40.2c0-22.1,18-40.2,40.2-40.2c22.1,0,40.2,18,40.2,40.2
					S1573.2,359.2,1551,359.2z M1551,288.9c-16.6,0-30.2,13.5-30.2,30.2s13.5,30.2,30.2,30.2c16.6,0,30.2-13.5,30.2-30.2
					S1567.7,288.9,1551,288.9z" style="fill:#383A48;"/>
			</g>
			<g>
				<path d="M1606.4,422.8h-110.7v-13.2c0-30.6,24.8-55.3,55.3-55.3l0,0c30.6,0,55.3,24.8,55.3,55.3L1606.4,422.8
					L1606.4,422.8z" style="fill:#F3F6E6;"/>
				<path d="M1606.4,427.8h-110.7c-2.8,0-5-2.2-5-5v-13.2c0-33.3,27.1-60.3,60.3-60.3s60.3,27.1,60.3,60.3v13.2
					C1611.4,425.5,1609.1,427.8,1606.4,427.8z M1500.7,417.8h100.7v-8.2c0-27.8-22.6-50.3-50.3-50.3c-27.8,0-50.3,22.6-50.3,50.3
					L1500.7,417.8L1500.7,417.8z" style="fill:#383A48;"/>
			</g>
		</g>
	</g>
	<g>
		<g>
			<circle cx="379.9" cy="441.9" r="113" style="fill:#AAC6FC;"/>
			<path d="M379.9,559.8c-65,0-118-52.9-118-118s52.9-118,118-118s118,52.9,118,118S444.9,559.8,379.9,559.8z
				 M379.9,333.9c-59.5,0-108,48.4-108,108c0,59.5,48.4,108,108,108c59.5,0,108-48.4,108-108C487.8,382.3,439.4,333.9,379.9,333.9z" style="fill:#383A48;"/>
		</g>
		<g>
			<g>
				<circle cx="379.9" cy="410.6" r="29.4" style="fill:#F3F6E6;"/>
				<path d="M379.9,445c-19,0-34.4-15.5-34.4-34.4s15.5-34.4,34.4-34.4s34.4,15.5,34.4,34.4S398.9,445,379.9,445z
					 M379.9,386.1c-13.5,0-24.4,11-24.4,24.4s11,24.4,24.4,24.4s24.4-11,24.4-24.4S393.3,386.1,379.9,386.1z" style="fill:#383A48;"/>
			</g>
			<g>
				<path d="M426.2,497.5h-92.7v-11.1c0-25.6,20.8-46.4,46.4-46.4l0,0c25.6,0,46.4,20.8,46.4,46.4L426.2,497.5
					L426.2,497.5z" style="fill:#F3F6E6;"/>
				<path d="M426.2,502.5h-92.7c-2.8,0-5-2.2-5-5v-11.1c0-28.3,23-51.4,51.4-51.4c28.3,0,51.4,23,51.4,51.4v11.1
					C431.2,500.3,429,502.5,426.2,502.5z M338.5,492.5h82.7v-6.1c0-22.8-18.6-41.4-41.4-41.4s-41.4,18.6-41.4,41.4L338.5,492.5
					L338.5,492.5z" style="fill:#383A48;"/>
			</g>
		</g>
	</g>
	<g>
		<g>
			<circle cx="1639.9" cy="804.1" r="86.5" style="fill:#F6E049;"/>
			<path d="M1639.9,895.6c-50.5,0-91.5-41.1-91.5-91.5s41.1-91.5,91.5-91.5s91.5,41.1,91.5,91.5
				S1690.4,895.6,1639.9,895.6z M1639.9,722.5c-45,0-81.5,36.6-81.5,81.5s36.6,81.5,81.5,81.5c45,0,81.5-36.6,81.5-81.5
				S1684.9,722.5,1639.9,722.5z" style="fill:#383A48;"/>
		</g>
		<g>
			<g>
				<circle cx="1639.9" cy="780.1" r="22.6" style="fill:#F3F6E6;"/>
				<path d="M1639.9,807.7c-15.2,0-27.6-12.4-27.6-27.6c0-15.2,12.4-27.6,27.6-27.6s27.6,12.4,27.6,27.6
					S1655.1,807.7,1639.9,807.7z M1639.9,762.6c-9.7,0-17.6,7.9-17.6,17.6c0,9.7,7.9,17.6,17.6,17.6s17.6-7.9,17.6-17.6
					C1657.5,770.4,1649.6,762.6,1639.9,762.6z" style="fill:#383A48;"/>
			</g>
			<g>
				<path d="M1675.5,846.7h-71v-8.5c0-19.6,15.9-35.5,35.5-35.5l0,0c19.6,0,35.5,15.9,35.5,35.5V846.7z" style="fill:#F3F6E6;"/>
				<path d="M1675.5,851.7h-71c-2.8,0-5-2.2-5-5v-8.5c0-22.3,18.2-40.5,40.5-40.5s40.5,18.2,40.5,40.5v8.5
					C1680.5,849.5,1678.2,851.7,1675.5,851.7z M1609.4,841.7h61v-3.5c0-16.8-13.7-30.5-30.5-30.5s-30.5,13.7-30.5,30.5V841.7z" style="fill:#383A48;"/>
			</g>
		</g>
	</g>
	<g>
		<path d="M1551,606.9h-180.4v-10H1546V491.2h10V602C1556,604.7,1553.8,606.9,1551,606.9z" style="fill:#383A48;"/>
	</g>
	<g>
		<path d="M1644.9,717.5h-10V606.9H1551v-10h88.9c2.8,0,5,2.2,5,5V717.5z" style="fill:#383A48;"/>
	</g>
	<g>
		<circle cx="1551" cy="601.9" r="11.3" style="fill:#383A48;"/>
		<path d="M1551,618.2c-9,0-16.3-7.3-16.3-16.3s7.3-16.3,16.3-16.3s16.3,7.3,16.3,16.3S1560,618.2,1551,618.2z
			 M1551,595.6c-3.5,0-6.3,2.8-6.3,6.3s2.8,6.3,6.3,6.3s6.3-2.8,6.3-6.3S1554.5,595.6,1551,595.6z" style="fill:#383A48;"/>
	</g>
	<g>
		<circle cx="1639.9" cy="601.9" r="11.3" style="fill:#383A48;"/>
		<path d="M1639.9,618.2c-9,0-16.3-7.3-16.3-16.3s7.3-16.3,16.3-16.3s16.3,7.3,16.3,16.3
			C1656.2,610.9,1648.9,618.2,1639.9,618.2z M1639.9,595.6c-3.5,0-6.3,2.8-6.3,6.3s2.8,6.3,6.3,6.3s6.3-2.8,6.3-6.3
			S1643.4,595.6,1639.9,595.6z" style="fill:#383A48;"/>
	</g>
	<g>
		<circle cx="379.9" cy="259.9" r="11.3" style="fill:#383A48;"/>
		<path d="M379.9,276.2c-9,0-16.3-7.3-16.3-16.3c0-9,7.3-16.3,16.3-16.3s16.3,7.3,16.3,16.3
			C396.1,268.8,388.8,276.2,379.9,276.2z M379.9,253.6c-3.5,0-6.3,2.8-6.3,6.3s2.8,6.3,6.3,6.3s6.3-2.8,6.3-6.3
			S383.3,253.6,379.9,253.6z" style="fill:#383A48;"/>
	</g>
	<g>
		<path d="M384.9,328.9h-10v-69c0-2.8,2.2-5,5-5h187.9v10H384.9V328.9z" style="fill:#383A48;"/>
	</g>
	<g>
		<path d="M278.2,749.4l-6.4-7.7c31.1-25.7,49.7-47.4,55.8-64.7c-6.7-2.4-12.7-6.2-17.4-11.2
			c-5.9-6.3-7.9-13.5-5.6-19.7c1.9-5.1,6.5-8.7,12-9.4c6.5-0.7,13.1,2.8,17.5,9.5c4.6,7.1,6.5,14.8,5.5,23.4c1.5,0.2,3,0.3,4.5,0.3
			c15.8,0.3,42.1-6.9,78-42.8l7.1,7.1c-38.4,38.4-67.5,46-85.3,45.7c-2.2,0-4.4-0.2-6.6-0.5C330.9,698.9,311.2,722.1,278.2,749.4z
			 M318.5,646.5c-0.2,0-0.4,0-0.6,0c-1.8,0.2-3.2,1.3-3.8,2.9c-1,2.6,0.3,6.1,3.5,9.5c3.3,3.5,7.4,6.3,12.2,8.1
			c0.4-5.7-0.9-10.9-3.9-15.4C323.7,648.3,321.1,646.5,318.5,646.5z" style="fill:#383A48;"/>
	</g>
	<g>
		<g>
			<rect x="1417.5" y="791.7" width="10" height="33" style="fill:#383A48;"/>
		</g>
		<g>
			<line x1="1406" y1="808.2" x2="1439" y2="808.2" style="fill:none;"/>
			<rect x="1406" y="803.2" width="33" height="10" style="fill:#383A48;"/>
		</g>
	</g>
	<g>
		<g>
			<rect x="205" y="243.4" width="10" height="33" style="fill:#383A48;"/>
		</g>
		<g>
			<line x1="193.5" y1="259.9" x2="226.5" y2="259.9" style="fill:none;"/>
			<rect x="193.5" y="254.9" width="33" height="10" style="fill:#383A48;"/>
		</g>
	</g>
	<g>
		<g>
			<rect x="631" y="808.2" width="10" height="33" style="fill:#383A48;"/>
		</g>
		<g>
			<line x1="619.6" y1="824.7" x2="652.5" y2="824.7" style="fill:none;"/>
			<rect x="619.6" y="819.7" width="33" height="10" style="fill:#383A48;"/>
		</g>
	</g>
	<g>
		<g>
			
				<rect x="823.3" y="247.9" transform="matrix(0.6357 -0.772 0.772 0.6357 96.1069 736.4366)" width="10" height="37" style="fill:#F3F6E6;"/>
		</g>
		<g>
			
				<rect x="939.2" y="235.2" transform="matrix(0.5037 -0.8639 0.8639 0.5037 267.7566 946.5608)" width="37" height="10" style="fill:#F3F6E6;"/>
		</g>
		<g>
			
				<rect x="885.2" y="221" transform="matrix(0.9844 -0.1761 0.1761 0.9844 -27.9962 160.4825)" width="10" height="34" style="fill:#F3F6E6;"/>
		</g>
	</g>
</g>
</svg>
