<?xml version="1.0" encoding="utf-8"?>
<!-- Generator: Adobe Illustrator 22.0.1, SVG Export Plug-In . SVG Version: 6.00 Build 0)  -->
<svg version="1.1" id="Layer_1" xmlns="http://www.w3.org/2000/svg" xmlns:xlink="http://www.w3.org/1999/xlink" x="0px" y="0px" viewBox="0 0 1920 1080" style="enable-background:new 0 0 1920 1080;" xml:space="preserve">

<rect width="1920" height="1080" style="fill:#7FD6C2;"/>
<g>
	<path d="M1708,214.2c-11-4.2-23.3-1.2-31.4,7.8c-93.4,102.8-197.4,121.8-307.6,141.9
		c-113.9,20.8-231.6,42.2-347.1,157.5c-59,58.9-98.3,124.9-132.9,183.2c-34.1,57.4-66.4,111.6-111.7,150.4
		c-50.1,42.8-111.4,62.7-193.1,62.7c-2.8,0-5,2.2-5,5s2.2,5,5,5h1135.8c2.8,0,5-2.2,5-5V239.2C1724.9,227.8,1718.4,218.2,1708,214.2
		z" style="fill:#F3F6E6;"/>
	<g>
		<path d="M1350.1,819.3c-29.8,0-54.1,24.3-54.1,54.1s24.3,54.1,54.1,54.1c29.8,0,54.1-24.3,54.1-54.1
			S1380,819.3,1350.1,819.3z" style="fill:#383A48;"/>
		<path d="M900.7,817c-29.8,0-54.1,24.3-54.1,54.1s24.3,54.1,54.1,54.1c29.8,0,54.1-24.3,54.1-54.1S930.5,817,900.7,817
			z" style="fill:#383A48;"/>
		<g>
			<polygon points="1482.8,464.3 947,464.3 866.7,736.6 749.5,736.6 749.5,871.1 1482.8,871.1 			" style="fill:#F6E049;"/>
			<path d="M1482.8,876.1H749.5c-2.8,0-5-2.2-5-5V736.6c0-1.3,0.5-2.6,1.5-3.5c0.9-0.9,2.2-1.5,3.5-1.5l113.5,0
				l79.2-268.7c0.6-2.1,2.6-3.6,4.8-3.6h535.8c2.8,0,5,2.2,5,5v406.8C1487.8,873.9,1485.6,876.1,1482.8,876.1z M754.5,866.1h723.3
				V469.3H950.7l-79.2,268.7c-0.6,2.1-2.6,3.6-4.8,3.6l-112.2,0V866.1z" style="fill:#383A48;"/>
		</g>
		<g>
			<polygon points="1719.9,464.3 1184.1,464.3 1103.8,736.6 986.6,736.6 986.6,871.1 1719.9,871.1 			" style="fill:#F6E049;"/>
			<path d="M1719.9,876.1H986.6c-2.8,0-5-2.2-5-5V736.6c0-1.3,0.5-2.6,1.5-3.5c0.9-0.9,2.2-1.5,3.5-1.5l113.5,0
				l79.2-268.7c0.6-2.1,2.6-3.6,4.8-3.6h535.8c2.8,0,5,2.2,5,5v406.8C1724.9,873.9,1722.7,876.1,1719.9,876.1z M991.6,866.1h723.3
				V469.3h-527.1l-79.2,268.7c-0.6,2.1-2.6,3.6-4.8,3.6l-112.2,0V866.1z" style="fill:#383A48;"/>
		</g>
		<g>
			<g>
				<g>
					<g>
						<circle cx="1698.6" cy="480.2" r="5" style="fill:#383A48;"/>
					</g>
				</g>
				<g>
					<g>
						<circle cx="1698.6" cy="504.9" r="5" style="fill:#383A48;"/>
					</g>
				</g>
				<g>
					<g>
						<circle cx="1698.6" cy="529.5" r="5" style="fill:#383A48;"/>
					</g>
				</g>
				<g>
					<g>
						<circle cx="1698.6" cy="554.2" r="5" style="fill:#383A48;"/>
					</g>
				</g>
				<g>
					<g>
						<circle cx="1698.6" cy="578.9" r="5" style="fill:#383A48;"/>
					</g>
				</g>
				<g>
					<g>
						<circle cx="1698.6" cy="603.5" r="5" style="fill:#383A48;"/>
					</g>
				</g>
				<g>
					<g>
						<circle cx="1698.6" cy="628.2" r="5" style="fill:#383A48;"/>
					</g>
				</g>
				<g>
					<g>
						<circle cx="1698.6" cy="652.9" r="5" style="fill:#383A48;"/>
					</g>
				</g>
				<g>
					<g>
						<circle cx="1698.6" cy="677.5" r="5" style="fill:#383A48;"/>
					</g>
				</g>
				<g>
					<g>
						<circle cx="1698.6" cy="702.2" r="5" style="fill:#383A48;"/>
					</g>
				</g>
				<g>
					<g>
						<circle cx="1698.6" cy="726.9" r="5" style="fill:#383A48;"/>
					</g>
				</g>
				<g>
					<g>
						<circle cx="1698.6" cy="751.5" r="5" style="fill:#383A48;"/>
					</g>
				</g>
				<g>
					<g>
						<circle cx="1698.6" cy="776.2" r="5" style="fill:#383A48;"/>
					</g>
				</g>
				<g>
					<g>
						<circle cx="1698.6" cy="800.9" r="5" style="fill:#383A48;"/>
					</g>
				</g>
				<g>
					<g>
						<circle cx="1698.6" cy="825.5" r="5" style="fill:#383A48;"/>
					</g>
				</g>
				<g>
					<g>
						<circle cx="1698.6" cy="850.2" r="5" style="fill:#383A48;"/>
					</g>
				</g>
				<g>
					<g>
						<circle cx="1673.9" cy="480.2" r="5" style="fill:#383A48;"/>
					</g>
				</g>
				<g>
					<g>
						<circle cx="1673.9" cy="504.9" r="5" style="fill:#383A48;"/>
					</g>
				</g>
				<g>
					<g>
						<circle cx="1673.9" cy="529.5" r="5" style="fill:#383A48;"/>
					</g>
				</g>
				<g>
					<g>
						<circle cx="1673.9" cy="554.2" r="5" style="fill:#383A48;"/>
					</g>
				</g>
				<g>
					<g>
						<circle cx="1673.9" cy="578.9" r="5" style="fill:#383A48;"/>
					</g>
				</g>
				<g>
					<g>
						<circle cx="1673.9" cy="603.5" r="5" style="fill:#383A48;"/>
					</g>
				</g>
				<g>
					<g>
						<circle cx="1673.9" cy="628.2" r="5" style="fill:#383A48;"/>
					</g>
				</g>
				<g>
					<g>
						<circle cx="1673.9" cy="652.9" r="5" style="fill:#383A48;"/>
					</g>
				</g>
				<g>
					<g>
						<circle cx="1673.9" cy="677.5" r="5" style="fill:#383A48;"/>
					</g>
				</g>
				<g>
					<g>
						<circle cx="1673.9" cy="702.2" r="5" style="fill:#383A48;"/>
					</g>
				</g>
				<g>
					<g>
						<circle cx="1673.9" cy="726.9" r="5" style="fill:#383A48;"/>
					</g>
				</g>
				<g>
					<g>
						<circle cx="1673.9" cy="751.5" r="5" style="fill:#383A48;"/>
					</g>
				</g>
				<g>
					<g>
						<circle cx="1673.9" cy="776.2" r="5" style="fill:#383A48;"/>
					</g>
				</g>
				<g>
					<g>
						<circle cx="1673.9" cy="800.9" r="5" style="fill:#383A48;"/>
					</g>
				</g>
				<g>
					<g>
						<circle cx="1673.9" cy="825.5" r="5" style="fill:#383A48;"/>
					</g>
				</g>
				<g>
					<g>
						<circle cx="1673.9" cy="850.2" r="5" style="fill:#383A48;"/>
					</g>
				</g>
				<g>
					<g>
						<circle cx="1649.2" cy="480.2" r="5" style="fill:#383A48;"/>
					</g>
				</g>
				<g>
					<g>
						<circle cx="1649.2" cy="504.9" r="5" style="fill:#383A48;"/>
					</g>
				</g>
				<g>
					<g>
						<circle cx="1649.2" cy="529.5" r="5" style="fill:#383A48;"/>
					</g>
				</g>
				<g>
					<g>
						<circle cx="1649.2" cy="554.2" r="5" style="fill:#383A48;"/>
					</g>
				</g>
				<g>
					<g>
						<circle cx="1649.2" cy="578.9" r="5" style="fill:#383A48;"/>
					</g>
				</g>
				<g>
					<g>
						<circle cx="1649.2" cy="603.5" r="5" style="fill:#383A48;"/>
					</g>
				</g>
				<g>
					<g>
						<circle cx="1649.2" cy="628.2" r="5" style="fill:#383A48;"/>
					</g>
				</g>
				<g>
					<g>
						<circle cx="1649.2" cy="652.9" r="5" style="fill:#383A48;"/>
					</g>
				</g>
				<g>
					<g>
						<circle cx="1649.2" cy="677.5" r="5" style="fill:#383A48;"/>
					</g>
				</g>
				<g>
					<g>
						<circle cx="1649.2" cy="702.2" r="5" style="fill:#383A48;"/>
					</g>
				</g>
				<g>
					<g>
						<circle cx="1649.2" cy="726.9" r="5" style="fill:#383A48;"/>
					</g>
				</g>
				<g>
					<g>
						<circle cx="1649.2" cy="751.5" r="5" style="fill:#383A48;"/>
					</g>
				</g>
				<g>
					<g>
						<circle cx="1649.2" cy="776.2" r="5" style="fill:#383A48;"/>
					</g>
				</g>
				<g>
					<g>
						<circle cx="1649.2" cy="800.9" r="5" style="fill:#383A48;"/>
					</g>
				</g>
				<g>
					<g>
						<circle cx="1649.2" cy="825.5" r="5" style="fill:#383A48;"/>
					</g>
				</g>
				<g>
					<g>
						<circle cx="1649.2" cy="850.2" r="5" style="fill:#383A48;"/>
					</g>
				</g>
				<g>
					<g>
						<circle cx="1624.6" cy="480.2" r="5" style="fill:#383A48;"/>
					</g>
				</g>
				<g>
					<g>
						<circle cx="1624.6" cy="504.9" r="5" style="fill:#383A48;"/>
					</g>
				</g>
				<g>
					<g>
						<circle cx="1624.6" cy="529.5" r="5" style="fill:#383A48;"/>
					</g>
				</g>
				<g>
					<g>
						<circle cx="1624.6" cy="554.2" r="5" style="fill:#383A48;"/>
					</g>
				</g>
				<g>
					<g>
						<circle cx="1624.6" cy="578.9" r="5" style="fill:#383A48;"/>
					</g>
				</g>
				<g>
					<g>
						<circle cx="1624.6" cy="603.5" r="5" style="fill:#383A48;"/>
					</g>
				</g>
				<g>
					<g>
						<circle cx="1624.6" cy="628.2" r="5" style="fill:#383A48;"/>
					</g>
				</g>
				<g>
					<g>
						<circle cx="1624.6" cy="652.9" r="5" style="fill:#383A48;"/>
					</g>
				</g>
				<g>
					<g>
						<circle cx="1624.6" cy="677.5" r="5" style="fill:#383A48;"/>
					</g>
				</g>
				<g>
					<g>
						<circle cx="1624.6" cy="702.2" r="5" style="fill:#383A48;"/>
					</g>
				</g>
				<g>
					<g>
						<circle cx="1624.6" cy="726.9" r="5" style="fill:#383A48;"/>
					</g>
				</g>
				<g>
					<g>
						<circle cx="1624.6" cy="751.5" r="5" style="fill:#383A48;"/>
					</g>
				</g>
				<g>
					<g>
						<circle cx="1624.6" cy="776.2" r="5" style="fill:#383A48;"/>
					</g>
				</g>
				<g>
					<g>
						<circle cx="1624.6" cy="800.9" r="5" style="fill:#383A48;"/>
					</g>
				</g>
				<g>
					<g>
						<circle cx="1624.6" cy="825.5" r="5" style="fill:#383A48;"/>
					</g>
				</g>
				<g>
					<g>
						<circle cx="1624.6" cy="850.2" r="5" style="fill:#383A48;"/>
					</g>
				</g>
				<g>
					<g>
						<circle cx="1599.9" cy="776.2" r="5" style="fill:#383A48;"/>
					</g>
				</g>
				<g>
					<g>
						<circle cx="1599.9" cy="800.9" r="5" style="fill:#383A48;"/>
					</g>
				</g>
				<g>
					<g>
						<circle cx="1599.9" cy="825.5" r="5" style="fill:#383A48;"/>
					</g>
				</g>
				<g>
					<g>
						<circle cx="1599.9" cy="850.2" r="5" style="fill:#383A48;"/>
					</g>
				</g>
				<g>
					<g>
						<circle cx="1575.2" cy="776.2" r="5" style="fill:#383A48;"/>
					</g>
				</g>
				<g>
					<g>
						<circle cx="1575.2" cy="800.9" r="5" style="fill:#383A48;"/>
					</g>
				</g>
				<g>
					<g>
						<circle cx="1575.2" cy="825.5" r="5" style="fill:#383A48;"/>
					</g>
				</g>
				<g>
					<g>
						<circle cx="1575.2" cy="850.2" r="5" style="fill:#383A48;"/>
					</g>
				</g>
				<g>
					<g>
						<circle cx="1550.6" cy="776.2" r="5" style="fill:#383A48;"/>
					</g>
				</g>
				<g>
					<g>
						<circle cx="1550.6" cy="800.9" r="5" style="fill:#383A48;"/>
					</g>
				</g>
				<g>
					<g>
						<circle cx="1550.6" cy="825.5" r="5" style="fill:#383A48;"/>
					</g>
				</g>
				<g>
					<g>
						<circle cx="1550.6" cy="850.2" r="5" style="fill:#383A48;"/>
					</g>
				</g>
				<g>
					<g>
						<circle cx="1525.9" cy="776.2" r="5" style="fill:#383A48;"/>
					</g>
				</g>
				<g>
					<g>
						<circle cx="1525.9" cy="800.9" r="5" style="fill:#383A48;"/>
					</g>
				</g>
				<g>
					<g>
						<circle cx="1525.9" cy="825.5" r="5" style="fill:#383A48;"/>
					</g>
				</g>
				<g>
					<g>
						<circle cx="1525.9" cy="850.2" r="5" style="fill:#383A48;"/>
					</g>
				</g>
				<g>
					<g>
						<circle cx="1501.2" cy="776.2" r="5" style="fill:#383A48;"/>
					</g>
				</g>
				<g>
					<g>
						<circle cx="1501.2" cy="800.9" r="5" style="fill:#383A48;"/>
					</g>
				</g>
				<g>
					<g>
						<circle cx="1501.2" cy="825.5" r="5" style="fill:#383A48;"/>
					</g>
				</g>
				<g>
					<g>
						<circle cx="1501.2" cy="850.2" r="5" style="fill:#383A48;"/>
					</g>
				</g>
				<g>
					<g>
						<circle cx="1476.6" cy="776.2" r="5" style="fill:#383A48;"/>
					</g>
				</g>
				<g>
					<g>
						<circle cx="1476.6" cy="800.9" r="5" style="fill:#383A48;"/>
					</g>
				</g>
				<g>
					<g>
						<circle cx="1476.6" cy="825.5" r="5" style="fill:#383A48;"/>
					</g>
				</g>
				<g>
					<g>
						<circle cx="1476.6" cy="850.2" r="5" style="fill:#383A48;"/>
					</g>
				</g>
				<g>
					<g>
						<circle cx="1451.9" cy="776.2" r="5" style="fill:#383A48;"/>
					</g>
				</g>
				<g>
					<g>
						<circle cx="1451.9" cy="800.9" r="5" style="fill:#383A48;"/>
					</g>
				</g>
				<g>
					<g>
						<circle cx="1451.9" cy="825.5" r="5" style="fill:#383A48;"/>
					</g>
				</g>
				<g>
					<g>
						<circle cx="1451.9" cy="850.2" r="5" style="fill:#383A48;"/>
					</g>
				</g>
				<g>
					<g>
						<circle cx="1427.2" cy="776.2" r="5" style="fill:#383A48;"/>
					</g>
				</g>
				<g>
					<g>
						<circle cx="1427.2" cy="800.9" r="5" style="fill:#383A48;"/>
					</g>
				</g>
				<g>
					<g>
						<circle cx="1427.2" cy="825.5" r="5" style="fill:#383A48;"/>
					</g>
				</g>
				<g>
					<g>
						<circle cx="1427.2" cy="850.2" r="5" style="fill:#383A48;"/>
					</g>
				</g>
				<g>
					<g>
						<circle cx="1402.6" cy="776.2" r="5" style="fill:#383A48;"/>
					</g>
				</g>
				<g>
					<g>
						<circle cx="1402.6" cy="800.9" r="5" style="fill:#383A48;"/>
					</g>
				</g>
				<g>
					<g>
						<circle cx="1402.6" cy="825.5" r="5" style="fill:#383A48;"/>
					</g>
				</g>
				<g>
					<g>
						<circle cx="1402.6" cy="850.2" r="5" style="fill:#383A48;"/>
					</g>
				</g>
				<g>
					<g>
						<circle cx="1377.9" cy="776.2" r="5" style="fill:#383A48;"/>
					</g>
				</g>
				<g>
					<g>
						<circle cx="1377.9" cy="800.9" r="5" style="fill:#383A48;"/>
					</g>
				</g>
				<g>
					<g>
						<circle cx="1377.9" cy="825.5" r="5" style="fill:#383A48;"/>
					</g>
				</g>
				<g>
					<g>
						<circle cx="1377.9" cy="850.2" r="5" style="fill:#383A48;"/>
					</g>
				</g>
				<g>
					<g>
						<circle cx="1353.2" cy="776.2" r="5" style="fill:#383A48;"/>
					</g>
				</g>
				<g>
					<g>
						<circle cx="1353.2" cy="800.9" r="5" style="fill:#383A48;"/>
					</g>
				</g>
				<g>
					<g>
						<circle cx="1353.2" cy="825.5" r="5" style="fill:#383A48;"/>
					</g>
				</g>
				<g>
					<g>
						<circle cx="1353.2" cy="850.2" r="5" style="fill:#383A48;"/>
					</g>
				</g>
				<g>
					<g>
						<circle cx="1328.6" cy="776.2" r="5" style="fill:#383A48;"/>
					</g>
				</g>
				<g>
					<g>
						<circle cx="1328.6" cy="800.9" r="5" style="fill:#383A48;"/>
					</g>
				</g>
				<g>
					<g>
						<circle cx="1328.6" cy="825.5" r="5" style="fill:#383A48;"/>
					</g>
				</g>
				<g>
					<g>
						<circle cx="1328.6" cy="850.2" r="5" style="fill:#383A48;"/>
					</g>
				</g>
				<g>
					<g>
						<circle cx="1303.9" cy="776.2" r="5" style="fill:#383A48;"/>
					</g>
				</g>
				<g>
					<g>
						<circle cx="1303.9" cy="800.9" r="5" style="fill:#383A48;"/>
					</g>
				</g>
				<g>
					<g>
						<circle cx="1303.9" cy="825.5" r="5" style="fill:#383A48;"/>
					</g>
				</g>
				<g>
					<g>
						<circle cx="1303.9" cy="850.2" r="5" style="fill:#383A48;"/>
					</g>
				</g>
				<g>
					<g>
						<circle cx="1279.2" cy="776.2" r="5" style="fill:#383A48;"/>
					</g>
				</g>
				<g>
					<g>
						<circle cx="1279.2" cy="800.9" r="5" style="fill:#383A48;"/>
					</g>
				</g>
				<g>
					<g>
						<circle cx="1279.2" cy="825.5" r="5" style="fill:#383A48;"/>
					</g>
				</g>
				<g>
					<g>
						<circle cx="1279.2" cy="850.2" r="5" style="fill:#383A48;"/>
					</g>
				</g>
				<g>
					<g>
						<circle cx="1254.6" cy="776.2" r="5" style="fill:#383A48;"/>
					</g>
				</g>
				<g>
					<g>
						<circle cx="1254.6" cy="800.9" r="5" style="fill:#383A48;"/>
					</g>
				</g>
				<g>
					<g>
						<circle cx="1254.6" cy="825.5" r="5" style="fill:#383A48;"/>
					</g>
				</g>
				<g>
					<g>
						<circle cx="1254.6" cy="850.2" r="5" style="fill:#383A48;"/>
					</g>
				</g>
				<g>
					<g>
						<circle cx="1229.9" cy="776.2" r="5" style="fill:#383A48;"/>
					</g>
				</g>
				<g>
					<g>
						<circle cx="1229.9" cy="800.9" r="5" style="fill:#383A48;"/>
					</g>
				</g>
				<g>
					<g>
						<circle cx="1229.9" cy="825.5" r="5" style="fill:#383A48;"/>
					</g>
				</g>
				<g>
					<g>
						<circle cx="1229.9" cy="850.2" r="5" style="fill:#383A48;"/>
					</g>
				</g>
				<g>
					<g>
						<circle cx="1205.2" cy="776.2" r="5" style="fill:#383A48;"/>
					</g>
				</g>
				<g>
					<g>
						<circle cx="1205.2" cy="800.9" r="5" style="fill:#383A48;"/>
					</g>
				</g>
				<g>
					<g>
						<circle cx="1205.2" cy="825.5" r="5" style="fill:#383A48;"/>
					</g>
				</g>
				<g>
					<g>
						<circle cx="1205.2" cy="850.2" r="5" style="fill:#383A48;"/>
					</g>
				</g>
				<g>
					<g>
						<circle cx="1180.6" cy="776.2" r="5" style="fill:#383A48;"/>
					</g>
				</g>
				<g>
					<g>
						<circle cx="1180.6" cy="800.9" r="5" style="fill:#383A48;"/>
					</g>
				</g>
				<g>
					<g>
						<circle cx="1180.6" cy="825.5" r="5" style="fill:#383A48;"/>
					</g>
				</g>
				<g>
					<g>
						<circle cx="1180.6" cy="850.2" r="5" style="fill:#383A48;"/>
					</g>
				</g>
				<g>
					<g>
						<circle cx="1155.9" cy="776.2" r="5" style="fill:#383A48;"/>
					</g>
				</g>
				<g>
					<g>
						<circle cx="1155.9" cy="800.9" r="5" style="fill:#383A48;"/>
					</g>
				</g>
				<g>
					<g>
						<circle cx="1155.9" cy="825.5" r="5" style="fill:#383A48;"/>
					</g>
				</g>
				<g>
					<g>
						<circle cx="1155.9" cy="850.2" r="5" style="fill:#383A48;"/>
					</g>
				</g>
				<g>
					<g>
						<circle cx="1131.2" cy="776.2" r="5" style="fill:#383A48;"/>
					</g>
				</g>
				<g>
					<g>
						<circle cx="1131.2" cy="800.9" r="5" style="fill:#383A48;"/>
					</g>
				</g>
				<g>
					<g>
						<circle cx="1131.2" cy="825.5" r="5" style="fill:#383A48;"/>
					</g>
				</g>
				<g>
					<g>
						<circle cx="1131.2" cy="850.2" r="5" style="fill:#383A48;"/>
					</g>
				</g>
				<g>
					<g>
						<circle cx="1106.6" cy="776.2" r="5" style="fill:#383A48;"/>
					</g>
				</g>
				<g>
					<g>
						<circle cx="1106.6" cy="800.9" r="5" style="fill:#383A48;"/>
					</g>
				</g>
				<g>
					<g>
						<circle cx="1106.6" cy="825.5" r="5" style="fill:#383A48;"/>
					</g>
				</g>
				<g>
					<g>
						<circle cx="1106.6" cy="850.2" r="5" style="fill:#383A48;"/>
					</g>
				</g>
				<g>
					<g>
						<circle cx="1081.9" cy="776.2" r="5" style="fill:#383A48;"/>
					</g>
				</g>
				<g>
					<g>
						<circle cx="1081.9" cy="800.9" r="5" style="fill:#383A48;"/>
					</g>
				</g>
				<g>
					<g>
						<circle cx="1081.9" cy="825.5" r="5" style="fill:#383A48;"/>
					</g>
				</g>
				<g>
					<g>
						<circle cx="1081.9" cy="850.2" r="5" style="fill:#383A48;"/>
					</g>
				</g>
				<g>
					<g>
						<circle cx="1057.2" cy="776.2" r="5" style="fill:#383A48;"/>
					</g>
				</g>
				<g>
					<g>
						<circle cx="1057.2" cy="800.9" r="5" style="fill:#383A48;"/>
					</g>
				</g>
				<g>
					<g>
						<circle cx="1057.2" cy="825.5" r="5" style="fill:#383A48;"/>
					</g>
				</g>
				<g>
					<g>
						<circle cx="1057.2" cy="850.2" r="5" style="fill:#383A48;"/>
					</g>
				</g>
				<g>
					<g>
						<circle cx="1032.6" cy="776.2" r="5" style="fill:#383A48;"/>
					</g>
				</g>
				<g>
					<g>
						<circle cx="1032.6" cy="800.9" r="5" style="fill:#383A48;"/>
					</g>
				</g>
				<g>
					<g>
						<circle cx="1032.6" cy="825.5" r="5" style="fill:#383A48;"/>
					</g>
				</g>
				<g>
					<g>
						<circle cx="1032.6" cy="850.2" r="5" style="fill:#383A48;"/>
					</g>
				</g>
				<g>
					<g>
						<circle cx="1007.9" cy="776.2" r="5" style="fill:#383A48;"/>
					</g>
				</g>
				<g>
					<g>
						<circle cx="1007.9" cy="800.9" r="5" style="fill:#383A48;"/>
					</g>
				</g>
				<g>
					<g>
						<circle cx="1007.9" cy="825.5" r="5" style="fill:#383A48;"/>
					</g>
				</g>
				<g>
					<g>
						<circle cx="1007.9" cy="850.2" r="5" style="fill:#383A48;"/>
					</g>
				</g>
			</g>
		</g>
		<circle cx="1587.2" cy="873.4" r="54.1" style="fill:#383A48;"/>
		<circle cx="1137.8" cy="871.1" r="54.1" style="fill:#383A48;"/>
		<g>
			<polygon points="866.7,736.6 1103.8,736.6 1184.1,464.3 947,464.3 			" style="fill:#AAC6FC;"/>
			<path d="M1103.8,741.6H866.7c-1.6,0-3.1-0.7-4-2c-0.9-1.3-1.2-2.9-0.8-4.4l80.3-272.3c0.6-2.1,2.6-3.6,4.8-3.6h237.1
				c1.6,0,3.1,0.7,4,2c0.9,1.3,1.2,2.9,0.8,4.4l-80.3,272.3C1108,740.2,1106,741.6,1103.8,741.6z M873.4,731.6h226.7l77.3-262.3
				H950.7L873.4,731.6z" style="fill:#383A48;"/>
		</g>
		<g>
			<polygon points="1103.8,736.6 1323.1,736.6 1323.1,464.3 1184.1,464.3 			" style="fill:#AAC6FC;"/>
			<path d="M1323.1,741.6h-219.3c-1.6,0-3.1-0.7-4-2c-0.9-1.3-1.2-2.9-0.8-4.4l80.3-272.3c0.6-2.1,2.6-3.6,4.8-3.6h139
				c2.8,0,5,2.2,5,5v272.3C1328.1,739.4,1325.8,741.6,1323.1,741.6z M1110.5,731.6h207.6V469.3h-130.2L1110.5,731.6z" style="fill:#383A48;"/>
		</g>
		<g>
			<circle cx="926.5" cy="804.9" r="27.6" style="fill:#F6E049;"/>
			<path d="M926.5,837.6c-18,0-32.6-14.6-32.6-32.6s14.6-32.6,32.6-32.6s32.6,14.6,32.6,32.6S944.5,837.6,926.5,837.6z
				 M926.5,782.3c-12.5,0-22.6,10.1-22.6,22.6c0,12.5,10.1,22.6,22.6,22.6c12.5,0,22.6-10.1,22.6-22.6
				C949.1,792.5,938.9,782.3,926.5,782.3z" style="fill:#383A48;"/>
		</g>
		<g>
			<circle cx="792.5" cy="804.9" r="27.6" style="fill:#F6E049;"/>
			<path d="M792.5,837.6c-18,0-32.6-14.6-32.6-32.6s14.6-32.6,32.6-32.6s32.6,14.6,32.6,32.6S810.4,837.6,792.5,837.6z
				 M792.5,782.3c-12.5,0-22.6,10.1-22.6,22.6c0,12.5,10.1,22.6,22.6,22.6c12.5,0,22.6-10.1,22.6-22.6
				C815.1,792.5,804.9,782.3,792.5,782.3z" style="fill:#383A48;"/>
		</g>
	</g>
	<path d="M718.8,156.7H200.1c-2.8,0-5,2.2-5,5v726.4c0,2.6,2,4.8,4.6,5c0.1,0,0.3,0,0.4,0c2.4,0,4.6-1.8,4.9-4.2
		c21.1-137,38.4-196.6,137.3-279c110.9-92.4,147-192.9,176.1-273.6c17.8-49.4,33.1-92.1,61.3-122.1c30.5-32.4,74.7-47.4,139.1-47.4
		c2.8,0,5-2.2,5-5S721.6,156.7,718.8,156.7z" style="fill:#F3F6E6;"/>
	<g>
		<rect x="342" y="689.5" width="233.1" height="233.1" style="fill:#E0719E;"/>
		<path d="M575.1,927.6H342c-2.8,0-5-2.2-5-5V689.5c0-2.8,2.2-5,5-5h233.1c2.8,0,5,2.2,5,5v233.1
			C580.1,925.3,577.8,927.6,575.1,927.6z M347,917.6h223.1V694.5H347V917.6z" style="fill:#383A48;"/>
	</g>
	<g>
		<g>
			<g>
				<circle cx="552" cy="720.7" r="5" style="fill:#383A48;"/>
			</g>
		</g>
		<g>
			<g>
				<circle cx="552" cy="745.4" r="5" style="fill:#383A48;"/>
			</g>
		</g>
		<g>
			<g>
				<circle cx="552" cy="770" r="5" style="fill:#383A48;"/>
			</g>
		</g>
		<g>
			<g>
				<circle cx="552" cy="794.7" r="5" style="fill:#383A48;"/>
			</g>
		</g>
		<g>
			<g>
				<circle cx="552" cy="819.4" r="5" style="fill:#383A48;"/>
			</g>
		</g>
		<g>
			<g>
				<circle cx="552" cy="844" r="5" style="fill:#383A48;"/>
			</g>
		</g>
		<g>
			<g>
				<circle cx="552" cy="868.7" r="5" style="fill:#383A48;"/>
			</g>
		</g>
		<g>
			<g>
				<circle cx="552" cy="893.4" r="5" style="fill:#383A48;"/>
			</g>
		</g>
		<g>
			<g>
				<circle cx="527.3" cy="720.7" r="5" style="fill:#383A48;"/>
			</g>
		</g>
		<g>
			<g>
				<circle cx="527.3" cy="745.4" r="5" style="fill:#383A48;"/>
			</g>
		</g>
		<g>
			<g>
				<circle cx="527.3" cy="770" r="5" style="fill:#383A48;"/>
			</g>
		</g>
		<g>
			<g>
				<circle cx="527.3" cy="794.7" r="5" style="fill:#383A48;"/>
			</g>
		</g>
		<g>
			<g>
				<circle cx="527.3" cy="819.4" r="5" style="fill:#383A48;"/>
			</g>
		</g>
		<g>
			<g>
				<circle cx="527.3" cy="844" r="5" style="fill:#383A48;"/>
			</g>
		</g>
		<g>
			<g>
				<circle cx="527.3" cy="868.7" r="5" style="fill:#383A48;"/>
			</g>
		</g>
		<g>
			<g>
				<circle cx="527.3" cy="893.4" r="5" style="fill:#383A48;"/>
			</g>
		</g>
		<g>
			<g>
				<circle cx="502.6" cy="720.7" r="5" style="fill:#383A48;"/>
			</g>
		</g>
		<g>
			<g>
				<circle cx="502.6" cy="745.4" r="5" style="fill:#383A48;"/>
			</g>
		</g>
		<g>
			<g>
				<circle cx="502.6" cy="770" r="5" style="fill:#383A48;"/>
			</g>
		</g>
		<g>
			<g>
				<circle cx="502.6" cy="794.7" r="5" style="fill:#383A48;"/>
			</g>
		</g>
		<g>
			<g>
				<circle cx="502.6" cy="819.4" r="5" style="fill:#383A48;"/>
			</g>
		</g>
		<g>
			<g>
				<circle cx="502.6" cy="844" r="5" style="fill:#383A48;"/>
			</g>
		</g>
		<g>
			<g>
				<circle cx="502.6" cy="868.7" r="5" style="fill:#383A48;"/>
			</g>
		</g>
		<g>
			<g>
				<circle cx="502.6" cy="893.4" r="5" style="fill:#383A48;"/>
			</g>
		</g>
		<g>
			<g>
				<circle cx="478" cy="720.7" r="5" style="fill:#383A48;"/>
			</g>
		</g>
		<g>
			<g>
				<circle cx="478" cy="745.4" r="5" style="fill:#383A48;"/>
			</g>
		</g>
		<g>
			<g>
				<circle cx="478" cy="770" r="5" style="fill:#383A48;"/>
			</g>
		</g>
		<g>
			<g>
				<circle cx="478" cy="794.7" r="5" style="fill:#383A48;"/>
			</g>
		</g>
		<g>
			<g>
				<circle cx="478" cy="819.4" r="5" style="fill:#383A48;"/>
			</g>
		</g>
		<g>
			<g>
				<circle cx="478" cy="844" r="5" style="fill:#383A48;"/>
			</g>
		</g>
		<g>
			<g>
				<circle cx="478" cy="868.7" r="5" style="fill:#383A48;"/>
			</g>
		</g>
		<g>
			<g>
				<circle cx="478" cy="893.4" r="5" style="fill:#383A48;"/>
			</g>
		</g>
		<g>
			<g>
				<circle cx="453.3" cy="720.7" r="5" style="fill:#383A48;"/>
			</g>
		</g>
		<g>
			<g>
				<circle cx="453.3" cy="745.4" r="5" style="fill:#383A48;"/>
			</g>
		</g>
		<g>
			<g>
				<circle cx="453.3" cy="770" r="5" style="fill:#383A48;"/>
			</g>
		</g>
		<g>
			<g>
				<circle cx="453.3" cy="794.7" r="5" style="fill:#383A48;"/>
			</g>
		</g>
		<g>
			<g>
				<circle cx="453.3" cy="819.4" r="5" style="fill:#383A48;"/>
			</g>
		</g>
		<g>
			<g>
				<circle cx="453.3" cy="844" r="5" style="fill:#383A48;"/>
			</g>
		</g>
		<g>
			<g>
				<circle cx="453.3" cy="868.7" r="5" style="fill:#383A48;"/>
			</g>
		</g>
		<g>
			<g>
				<circle cx="453.3" cy="893.4" r="5" style="fill:#383A48;"/>
			</g>
		</g>
	</g>
	<g>
		<rect x="200.1" y="689.5" width="233.1" height="233.1" style="fill:#F6E049;"/>
		<path d="M433.1,927.6H200.1c-2.8,0-5-2.2-5-5V689.5c0-2.8,2.2-5,5-5h233.1c2.8,0,5,2.2,5,5v233.1
			C438.1,925.3,435.9,927.6,433.1,927.6z M205.1,917.6h223.1V694.5H205.1V917.6z" style="fill:#383A48;"/>
	</g>
	<g>
		<polygon points="348.3,812.3 316.6,782.5 285,812.3 285,689.8 348.3,689.8 		" style="fill:#F3F6E6;"/>
		<path d="M348.3,817.3c-1.2,0-2.5-0.5-3.4-1.4l-28.2-26.5l-28.2,26.5c-1.5,1.4-3.6,1.7-5.4,0.9c-1.8-0.8-3-2.6-3-4.6
			V689.8c0-2.8,2.2-5,5-5h63.3c2.8,0,5,2.2,5,5v122.5c0,2-1.2,3.8-3,4.6C349.6,817.1,348.9,817.3,348.3,817.3z M290,694.8v105.9
			l23.2-21.8c1.9-1.8,4.9-1.8,6.8,0l23.2,21.8V694.8H290z" style="fill:#383A48;"/>
	</g>
	<g>
		<polygon points="530,812.3 507.6,782.5 485.1,812.3 485.1,689.8 530,689.8 		" style="fill:#F3F6E6;"/>
		<path d="M530,817.3c-1.5,0-3-0.7-4-2l-18.4-24.4l-18.4,24.4c-1.3,1.7-3.5,2.4-5.6,1.7c-2-0.7-3.4-2.6-3.4-4.7V689.8
			c0-2.8,2.2-5,5-5H530c2.8,0,5,2.2,5,5v122.5c0,2.1-1.4,4.1-3.4,4.7C531,817.2,530.5,817.3,530,817.3z M507.6,777.5
			c1.6,0,3,0.7,4,2l13.4,17.8V694.8h-34.8v102.6l13.4-17.8C504.5,778.3,506,777.5,507.6,777.5z" style="fill:#383A48;"/>
	</g>
	<g>
		<g>
			<path d="M1133.8,309.1c-18.7-8.1-38.1-12.8-58.4-12.7c-14.5,0-71.3,0.5-142.5,1.1c-21.1-18.7-91.3-80.2-109.5-96.1
				c-2.9-2.5-6-4.7-9.4-6.5l-13.7-7.4c-7.7-4.2-16.4-6.2-25.1-6.1l-12.1,0.2c-6.3,0.1-10,7.2-6.4,12.5c17.9,26.2,59.3,86.9,72,104.2
				c-66.5,0.6-122.5,1-132.2,1.1c-6.5,0-12.1-2.1-16.2-7.3c-1.9-2.5-3.6-5.1-5.2-7.8c-5.8-10-11.4-20.2-17.2-30.2
				c-4.2-7.3-8.7-14.5-12.7-21.9c-1.9-3.5-4.1-6.6-7.2-8.9c-6.4-4.9-13.5-7.9-21.7-7.4c-7,0.5-11.2,5.2-11.1,12.2
				c0,2.3,0.2,4.5,0.3,6.7c0.6,20.7,1.4,76,2,114c0.3,21.4,17.6,38.7,39,38.9c69.3,1,206,0.8,206,0.8s-96.8,143.3-103,152.6
				c-1.9,2.9-3.6,6-4.8,9.3c-1.4,3.7,0.3,5.8,4.3,5.9c6.5,0.1,13,0.4,19.5,0.3c3.2,0,6.4-0.3,9.5-1.1c13.4-3.3,25-10,35.3-19.2
				c34.6-31.1,169.4-149.2,169.4-149.2l167.5,1.1c22.3,0,31.5-30.3,23.2-44.1C1165.5,331.2,1153.2,317.5,1133.8,309.1z" style="fill:#F3F6E6;"/>
			<path d="M765.8,561.3c-4.2,0-8.3-0.1-12.4-0.2c-1.6,0-3.2-0.1-4.7-0.1c-4.7-0.1-7.1-2.2-8.2-3.9
				c-0.9-1.4-2.2-4.3-0.6-8.7c1.3-3.4,3.1-6.8,5.4-10.3c5.3-8,77.5-114.8,97.8-144.8c-32.2,0-138.6,0-196.7-0.8
				c-24.3-0.3-43.6-19.6-43.9-43.9c-0.6-40.8-1.5-93.6-2-113.9c0-1-0.1-1.9-0.1-2.9c-0.1-1.3-0.1-2.6-0.1-3.9
				c-0.2-9.7,6.2-16.6,15.8-17.3c8.6-0.6,16.8,2.2,25.1,8.4c3.4,2.5,6.1,5.9,8.6,10.6c2.4,4.5,5.1,9,7.7,13.4c1.6,2.8,3.3,5.6,5,8.5
				c2.8,4.9,5.6,9.9,8.4,14.9c2.9,5.1,5.8,10.2,8.7,15.4c1.7,3,3.2,5.3,4.8,7.2c2.8,3.6,6.8,5.4,12.1,5.4c0,0,0.1,0,0.1,0
				c9.6,0,65.7-0.5,122.6-1c-16.6-23.5-51-73.9-66.4-96.4c-2.7-3.9-3-9-0.8-13.3c2.2-4.2,6.5-6.9,11.3-7l12.1-0.2
				c9.6-0.2,19.1,2.1,27.6,6.7l13.7,7.4c3.7,2,7.1,4.4,10.3,7.1c8.7,7.6,83.9,73.5,108.1,94.8l48-0.4c47.4-0.4,81.7-0.7,92.6-0.7
				c0.1,0,0.3,0,0.4,0c20.1,0,39.7,4.3,60.1,13.1l0,0c17.5,7.6,31.5,20,41.7,36.8c5.6,9.3,4.9,23.9-1.7,35.5
				c-5.8,10.3-15.2,16.1-25.8,16.1l-165.6-1.1c-14.6,12.8-135.7,118.9-168,147.9c-11.5,10.3-23.8,17-37.4,20.3
				c-3.2,0.8-6.6,1.2-10.6,1.2C767.5,561.3,766.6,561.3,765.8,561.3z M749.5,551.1c1.4,0,2.7,0.1,4.1,0.1c4.8,0.1,9.8,0.2,14.6,0.2
				c3.2,0,5.9-0.3,8.3-0.9c12-2.9,22.8-8.8,33.1-18.1c34.3-30.7,168.1-148,169.5-149.2c0.9-0.8,2.1-1.2,3.3-1.2c0,0,0,0,0,0
				l167.5,1.1c9.4,0,14.7-6.9,17.1-11.1c4.7-8.4,5.5-19.3,1.8-25.5c-9-15-21.5-26.1-37.1-32.8l0,0c-19.1-8.3-37.4-12.3-56.1-12.3
				c-0.1,0-0.2,0-0.3,0c-10.9,0-45.1,0.3-92.5,0.7l-49.9,0.4c-1.2,0-2.4-0.4-3.3-1.3c-22.5-19.8-100.6-88.3-109.5-96.1
				c-2.6-2.3-5.4-4.2-8.5-5.9l-13.7-7.4c-6.9-3.7-14.8-5.6-22.6-5.5l-12.1,0.2c-1.6,0-2.4,1.1-2.6,1.6c-0.2,0.5-0.7,1.7,0.2,3.1
				c17.4,25.5,59.2,86.8,71.9,104c1.1,1.5,1.3,3.5,0.4,5.2c-0.8,1.7-2.6,2.7-4.4,2.8c-60,0.5-122.1,1-132.3,1.1c-0.1,0-0.1,0-0.2,0
				c-8.4,0-15.2-3.1-19.9-9.2c-1.8-2.3-3.6-5-5.5-8.4c-2.9-5.1-5.8-10.3-8.7-15.4c-2.8-4.9-5.6-9.9-8.4-14.8
				c-1.6-2.8-3.3-5.6-4.9-8.3c-2.6-4.5-5.4-9.1-7.9-13.7c-1.8-3.4-3.6-5.7-5.9-7.3c-6.3-4.8-12.1-6.8-18.4-6.4
				c-5.4,0.4-6.5,4.1-6.4,7.1c0,1.2,0.1,2.4,0.1,3.6c0,1,0.1,2.1,0.1,3.1c0.5,20.3,1.4,73.2,2,114c0.3,18.8,15.3,33.8,34.1,34
				c68.5,0.9,204.6,0.8,205.9,0.8c0,0,0,0,0,0c1.8,0,3.5,1,4.4,2.7c0.9,1.6,0.8,3.6-0.3,5.1c-1,1.4-96.9,143.4-103,152.6
				C751.8,546.2,750.5,548.6,749.5,551.1z" style="fill:#383A48;"/>
		</g>
		<g>
			<path d="M1101.2,298.8l1.5,16.2c1.8,20.4,19.1,35.9,39.6,35.5l29.9-0.6C1172.2,350,1169.9,317,1101.2,298.8z" style="fill:#AAC6FC;"/>
			<path d="M1141.6,355.6c-22.6,0-41.8-17.5-43.9-40.1l-1.5-16.2c-0.1-1.6,0.5-3.2,1.8-4.3c1.2-1.1,2.9-1.4,4.5-1
				c71.3,18.9,74.6,54.2,74.7,55.7c0.1,1.4-0.4,2.7-1.3,3.7c-0.9,1-2.2,1.6-3.6,1.6l-29.9,0.6
				C1142.1,355.6,1141.8,355.6,1141.6,355.6z M1106.8,305.6l0.8,9c1.6,17.7,16.7,31.3,34.5,31l23.4-0.4
				C1161.6,336.3,1148.7,318.1,1106.8,305.6z" style="fill:#383A48;"/>
		</g>
		<g>
			<circle cx="1017.4" cy="353" r="14.5" style="fill:#AAC6FC;"/>
			<path d="M1017.4,372.5c-2.6,0-5.2-0.5-7.6-1.6c-4.8-2-8.5-5.8-10.4-10.7c-1.9-4.8-1.9-10.1,0.2-14.9
				c4.2-9.9,15.7-14.5,25.6-10.3c4.8,2,8.5,5.8,10.4,10.7c1.9,4.8,1.9,10.1-0.2,14.9l0,0c-2,4.8-5.8,8.5-10.7,10.4
				C1022.3,372.1,1019.8,372.5,1017.4,372.5z M1017.4,343.5c-3.7,0-7.2,2.2-8.7,5.8c-1,2.3-1,4.9-0.1,7.3c0.9,2.4,2.8,4.2,5.1,5.2
				c2.3,1,4.9,1,7.3,0.1c2.4-0.9,4.2-2.8,5.2-5.1c0,0,0,0,0,0c1-2.3,1-4.9,0.1-7.3c-0.9-2.4-2.8-4.2-5.1-5.2
				C1019.9,343.8,1018.6,343.5,1017.4,343.5z" style="fill:#383A48;"/>
		</g>
		<g>
			<circle cx="959.4" cy="352.8" r="14.5" style="fill:#AAC6FC;"/>
			<path d="M959.4,372.3c-2.6,0-5.2-0.5-7.6-1.6c-4.8-2-8.5-5.8-10.4-10.7c-1.9-4.8-1.9-10.1,0.2-14.9
				s5.8-8.5,10.7-10.4c4.8-1.9,10.1-1.9,14.9,0.2c9.9,4.2,14.5,15.7,10.3,25.6c-2,4.8-5.8,8.5-10.7,10.4
				C964.3,371.8,961.9,372.3,959.4,372.3z M959.4,343.3c-1.2,0-2.4,0.2-3.5,0.7c-2.4,0.9-4.2,2.8-5.2,5.1c-1,2.3-1,4.9-0.1,7.3
				c0.9,2.4,2.8,4.2,5.1,5.2c2.3,1,4.9,1,7.3,0.1c2.4-0.9,4.2-2.8,5.2-5.1l0,0c2.1-4.8-0.2-10.4-5-12.5
				C961.9,343.5,960.7,343.3,959.4,343.3z" style="fill:#383A48;"/>
		</g>
		<g>
			<circle cx="901.5" cy="352.5" r="14.5" style="fill:#AAC6FC;"/>
			<path d="M901.4,372c-2.5,0-5.1-0.5-7.6-1.6c-9.9-4.2-14.5-15.7-10.3-25.6c2-4.8,5.8-8.5,10.7-10.4
				c4.8-1.9,10.1-1.9,14.9,0.2c9.9,4.2,14.5,15.7,10.3,25.6c0,0,0,0,0,0C916.2,367.6,909,372,901.4,372z M901.5,343
				c-1.2,0-2.4,0.2-3.5,0.7c-2.4,0.9-4.2,2.8-5.2,5.1c-2.1,4.8,0.2,10.4,5,12.5c4.8,2.1,10.4-0.2,12.5-5l0,0
				c2.1-4.8-0.2-10.4-5-12.5C904,343.3,902.7,343,901.5,343z M914.8,358.2L914.8,358.2L914.8,358.2z" style="fill:#383A48;"/>
		</g>
		<g>
			<circle cx="843.5" cy="352.3" r="14.5" style="fill:#AAC6FC;"/>
			<path d="M843.5,371.8c-2.5,0-5.1-0.5-7.6-1.6c-9.9-4.2-14.5-15.7-10.3-25.6c2-4.8,5.8-8.5,10.7-10.4
				c4.8-1.9,10.1-1.9,14.9,0.2c4.8,2,8.5,5.8,10.4,10.7c1.9,4.8,1.9,10.1-0.2,14.9l0,0C858.3,367.3,851.1,371.8,843.5,371.8z
				 M843.5,342.8c-1.2,0-2.4,0.2-3.5,0.7c-2.4,0.9-4.2,2.8-5.2,5.1c-2.1,4.8,0.2,10.4,5,12.5c4.8,2.1,10.4-0.2,12.5-5v0
				c1-2.3,1-4.9,0.1-7.3c-0.9-2.4-2.8-4.2-5.1-5.2C846,343,844.8,342.8,843.5,342.8z" style="fill:#383A48;"/>
		</g>
		<g>
			<circle cx="785.6" cy="352" r="14.5" style="fill:#AAC6FC;"/>
			<path d="M785.5,371.5c-2.6,0-5.2-0.5-7.6-1.6c-4.8-2-8.5-5.8-10.4-10.7c-1.9-4.8-1.9-10.1,0.2-14.9
				c2-4.8,5.8-8.5,10.7-10.4c4.8-1.9,10.1-1.9,14.9,0.2c4.8,2,8.5,5.8,10.4,10.7c1.9,4.8,1.9,10.1-0.2,14.9l0,0
				c-2,4.8-5.8,8.5-10.7,10.4C790.5,371.1,788,371.5,785.5,371.5z M785.6,342.5c-1.2,0-2.4,0.2-3.5,0.7c-2.4,0.9-4.2,2.8-5.2,5.1
				c-1,2.3-1,4.9-0.1,7.3c0.9,2.4,2.8,4.2,5.1,5.2c2.3,1,4.9,1,7.3,0.1s4.2-2.8,5.2-5.1c0,0,0,0,0,0c1-2.3,1-4.9,0.1-7.3
				s-2.8-4.2-5.1-5.2C788.1,342.8,786.8,342.5,785.6,342.5z" style="fill:#383A48;"/>
		</g>
		<g>
			<line x1="828.5" y1="298.3" x2="932.8" y2="297.5" style="fill:#383A48;"/>
			
				<rect x="828.5" y="292.9" transform="matrix(1 -8.202849e-03 8.202849e-03 1 -2.414 7.2341)" width="104.3" height="10" style="fill:#383A48;"/>
		</g>
	</g>
	<g>
		<path d="M453,554.8c-23.3,0-47.4-6.5-70.2-19.1c-2.4-1.3-3.3-4.4-2-6.8c1.3-2.4,4.4-3.3,6.8-2
			c34.1,18.7,88,29.3,127.9-2.8c8.4-6.8,14.7-14.6,18.6-22.9c-9.1-3.1-17.8-8.3-22.9-17.1c-4.8-8.4-4.9-17.2-0.1-24.1
			c4.3-6.3,11.8-9.6,19-8.4c7.8,1.2,13.8,7.3,16.5,16.6c2.5,8.5,2.6,17.3,0.5,26c3.8,0.6,8,1.1,12.8,1.2
			c28.5,0.8,65.9-8.9,111.2-28.7c2.5-1.1,5.5,0,6.6,2.6c1.1,2.5,0,5.5-2.6,6.6c-46.7,20.4-85.5,30.4-115.5,29.6
			c-4.4-0.1-9.9-0.5-15.7-1.6c-4.4,10.2-12,19.9-22.1,28.1c-16.1,13-37.5,21-60.2,22.5C458.6,554.7,455.8,554.8,453,554.8z
			 M527.1,461.5c-3,0-6.1,1.6-7.9,4.3c-2.5,3.7-2.3,8.4,0.5,13.4c1.8,3.1,6.4,8.9,17.6,12.7c1.7-7,1.6-14.1-0.4-20.8
			c-1.6-5.5-4.6-8.9-8.5-9.5C528,461.5,527.6,461.5,527.1,461.5z" style="fill:#383A48;"/>
	</g>
	<g>
		<path d="M1489,441c-2.7,0-4.9-2.1-5-4.8c-1.3-26.8-7.9-48.8-19.6-65.7c-12-17.1-26.3-24.5-36.1-27.7
			c-2.2-0.7-4.4-1.3-6.6-1.7c-3,8.5-8.1,16-15.2,21.6c-10.9,8.6-20.9,7.4-25.9,2.4c-4.7-4.7-6.1-13.7,1.4-23.2
			c6.5-8.2,18.6-12.3,32.3-11.7c2-12.1-0.5-26.1-7.7-39.1c-16.2-29.2-56.9-52-122.2-28.2c-2.6,0.9-5.5-0.4-6.4-3s0.4-5.5,3-6.4
			c71.2-25.9,116.1,0,134.3,32.8c8.3,14.9,11.1,30.9,8.9,45.2c2.4,0.5,4.8,1.1,7.2,1.9c11.4,3.6,27.7,12.1,41.3,31.5
			c12.8,18.4,20,42.2,21.4,70.9c0.1,2.8-2,5.1-4.8,5.2C1489.1,441,1489,441,1489,441z M1411.4,340.2c-10.1,0-18,3.4-21.6,8
			c-3.5,4.4-3.7,8.3-2.1,9.9c1.9,1.9,6.8,1.4,12.7-3.2C1405.2,351.1,1408.9,346,1411.4,340.2z" style="fill:#383A48;"/>
	</g>
	<g>
		<g>
			<line x1="368.7" y1="324.7" x2="401.6" y2="324.7" style="fill:#383A48;"/>
			<rect x="368.7" y="319.7" width="33" height="10" style="fill:#383A48;"/>
		</g>
		<g>
			<line x1="385.2" y1="341.2" x2="385.2" y2="308.2" style="fill:#383A48;"/>
			<rect x="380.2" y="308.2" width="10" height="33" style="fill:#383A48;"/>
		</g>
	</g>
	<g>
		<g>
			<line x1="748" y1="667.7" x2="781" y2="667.7" style="fill:#383A48;"/>
			<rect x="748" y="662.7" width="33" height="10" style="fill:#383A48;"/>
		</g>
		<g>
			<line x1="764.5" y1="684.2" x2="764.5" y2="651.3" style="fill:#383A48;"/>
			<rect x="759.5" y="651.3" width="10" height="33" style="fill:#383A48;"/>
		</g>
	</g>
	<g>
		<g>
			<line x1="1466.3" y1="236.8" x2="1499.3" y2="236.8" style="fill:#383A48;"/>
			<rect x="1466.3" y="231.8" width="33" height="10" style="fill:#383A48;"/>
		</g>
		<g>
			<line x1="1482.8" y1="253.3" x2="1482.8" y2="220.3" style="fill:#383A48;"/>
			<rect x="1477.8" y="220.3" width="10" height="33" style="fill:#383A48;"/>
		</g>
	</g>
	<g>
		<g>
			<path d="M1719.9,236c0,18.9-6.7,36.2-17.8,49.8c-14.4-17.6-36.3-28.8-60.8-28.8c-24.5,0-46.4,11.2-60.8,28.8
				c-11.1-13.5-17.8-30.9-17.8-49.8c0-43.4,35.2-78.6,78.6-78.6C1684.7,157.4,1719.9,192.6,1719.9,236z" style="fill:#AAC6FC;"/>
			<path d="M1580.5,290.8c-1.5,0-2.9-0.7-3.9-1.8c-12.2-14.9-18.9-33.7-18.9-53c0-46.1,37.5-83.6,83.6-83.6
				c46.1,0,83.6,37.5,83.6,83.6c0,19.3-6.7,38.1-18.9,53c-1,1.2-2.4,1.8-3.9,1.8c0,0,0,0,0,0c-1.5,0-2.9-0.7-3.9-1.8
				c-14-17.2-34.8-27-57-27c-22.2,0-42.9,9.8-56.9,27C1583.4,290.1,1582,290.8,1580.5,290.8C1580.5,290.8,1580.5,290.8,1580.5,290.8
				z M1641.3,162.4c-40.6,0-73.6,33-73.6,73.6c0,15,4.6,29.7,13.1,41.9c15.7-16.6,37.5-25.9,60.5-25.9c23.1,0,44.8,9.4,60.5,25.9
				c8.5-12.2,13.1-26.9,13.1-41.9C1714.9,195.4,1681.9,162.4,1641.3,162.4z" style="fill:#383A48;"/>
		</g>
		<g>
			<path d="M1702.1,285.8c-14.4,17.6-36.3,28.8-60.8,28.8c-24.5,0-46.4-11.2-60.8-28.8c14.4-17.6,36.3-28.8,60.8-28.8
				C1665.8,257,1687.7,268.2,1702.1,285.8z" style="fill:#F6E049;"/>
			<path d="M1641.3,319.6c-25.1,0-48.7-11.2-64.7-30.6c-1.5-1.8-1.5-4.5,0-6.3c15.9-19.5,39.5-30.7,64.7-30.7
				c25.2,0,48.8,11.2,64.7,30.7c1.5,1.8,1.5,4.5,0,6.3C1690,308.4,1666.5,319.6,1641.3,319.6z M1587.1,285.8
				c13.9,15.2,33.5,23.8,54.2,23.8c20.7,0,40.3-8.6,54.2-23.8c-13.9-15.2-33.5-23.8-54.2-23.8C1620.6,262,1601,270.6,1587.1,285.8z" style="fill:#383A48;"/>
		</g>
		<g>
			<path d="M1719.9,335.6c0,43.4-35.2,78.6-78.6,78.6c-43.4,0-78.6-35.2-78.6-78.6c0-18.9,6.7-36.2,17.8-49.8
				c14.4,17.6,36.3,28.8,60.8,28.8c24.5,0,46.4-11.2,60.8-28.8C1713.2,299.4,1719.9,316.7,1719.9,335.6z" style="fill:#E0719E;"/>
			<path d="M1641.3,419.2c-46.1,0-83.6-37.5-83.6-83.6c0-19.3,6.7-38.1,18.9-52.9c0.9-1.2,2.4-1.8,3.9-1.8c0,0,0,0,0,0
				c1.5,0,2.9,0.7,3.9,1.8c14.1,17.1,34.8,27,56.9,27c22.1,0,42.9-9.8,57-27c0.9-1.2,2.4-1.8,3.9-1.8c1.5,0,2.9,0.7,3.9,1.8
				c12.2,14.9,18.9,33.7,18.9,52.9C1724.9,381.7,1687.4,419.2,1641.3,419.2z M1580.8,293.7c-8.5,12.2-13.1,26.9-13.1,41.9
				c0,40.6,33,73.6,73.6,73.6c40.6,0,73.6-33,73.6-73.6c0-15-4.6-29.6-13.1-41.9c-15.8,16.5-37.5,25.9-60.5,25.9
				C1618.3,319.6,1596.5,310.2,1580.8,293.7z" style="fill:#383A48;"/>
		</g>
	</g>
	<polygon points="943.3,459.3 901.2,601.9 1051.7,459.3 	" style="fill:#383A48;"/>
	<g>
		<path d="M1719.9,927.6H749.5c-2.8,0-5-2.2-5-5s2.2-5,5-5h970.4c2.8,0,5,2.2,5,5S1722.7,927.6,1719.9,927.6z" style="fill:#383A48;"/>
	</g>
</g>
</svg>
