<svg xmlns="http://www.w3.org/2000/svg" xmlns:xlink="http://www.w3.org/1999/xlink" width="1586" height="796" version="1.1" viewBox="0 0 1586 796"><title>abstract-waiting</title><desc>Created with Sketch.</desc><g id="Page-1" fill="none" fill-rule="evenodd" stroke="none" stroke-width="1"><g id="abstract-waiting" transform="translate(-167.000000, -142.000000)"><g id="Group" transform="translate(167.000000, 142.000000)"><path id="Path" fill="#F3F6E6" fill-rule="nonzero" d="M910.2,4.1 C909.6,1.9 907.6,0.5 905.4,0.5 L348.9,0.5 C319.3,0.5 290.2,8.6 264.9,23.9 C239.5,39.2 218.9,61.2 205.3,87.5 C199.3,99 193.3,111.4 187,125.5 C155.9,194.7 102.4,225.9 59.3,245.4 C23.4,261.6 0.3,297.6 0.3,337 L0.3,733.2 C0.3,736 2.5,738.2 5.3,738.2 C8.1,738.2 10.3,736 10.3,733.2 C10.3,659.1 29.3,607.3 70,570.3 C106.3,537.3 154.9,520.2 206.4,502.2 C287.6,473.8 371.6,444.3 414.9,348.2 C472.2,220.9 511.7,204 617.4,158.8 C683.3,130.6 773.5,92.1 908,9.7 C909.9,8.6 910.8,6.3 910.2,4.1 Z"/><path id="Path" fill="#4053FA" fill-rule="nonzero" d="M838.5,549.7 C837,548.8 835.1,548.8 833.5,549.6 L603.2,677.6 L407.8,786.1 C405.8,787.2 404.8,789.5 405.4,791.7 C406,793.9 408,795.4 410.2,795.4 L835.9,795.4 C838.7,795.4 840.9,793.2 840.9,790.4 L840.9,554 C840.9,552.2 840,550.6 838.5,549.7 Z"/><path id="Path" fill="#383A48" fill-rule="nonzero" d="M838.5,549.7 C837,548.8 835.1,548.8 833.5,549.6 L603.1,677.6 C602.1,678.2 601.3,679.1 600.9,680.1 C587.5,714 581,750.1 581,790.5 C581,793.3 583.2,795.5 586,795.5 L835.9,795.5 C838.7,795.5 840.9,793.3 840.9,790.5 L840.9,554 C840.9,552.2 840,550.6 838.5,549.7 Z"/><path id="Path" fill="#F3F6E6" fill-rule="nonzero" d="M1473.9,412.9 C1449.8,364.7 1457.5,304.3 1468.2,262.1 C1479.9,215.9 1497.7,180.8 1497.9,180.4 C1498.9,178.4 1498.5,176 1496.9,174.5 C1495.3,173 1492.9,172.7 1491,173.8 L1144.4,373.4 C1143.1,374.1 1142.3,375.4 1142,376.8 C1141.7,378.2 1142.1,379.7 1143,380.9 L1390.8,689.7 C1391.8,690.9 1393.2,691.6 1394.7,691.6 C1395.6,691.6 1396.4,691.4 1397.2,690.9 C1471.6,648 1508.9,604.2 1514.5,553.2 C1519.3,508.3 1499,463.1 1473.9,412.9 Z"/><g fill-rule="nonzero" transform="translate(683.000000, 0.000000)"><path id="Path" fill="#7FD6C2" stroke="#383A48" stroke-linecap="round" stroke-linejoin="round" stroke-width="10" d="M471.8,387.1 C471.8,493.3 531.2,545.5 531.2,790.5 L5.5,790.5 C5.5,545.5 259.5,518.1 259.5,411.9 C259.5,305.7 5.5,367.7 5.5,122.7 L209,5.5 L561.9,70.8 C561.9,315.8 471.8,173 471.8,387.1 Z"/><g id="Oval" fill="#383A48" transform="translate(45.000000, 59.000000)"><circle cx="365.5" cy="263" r="5"/><circle cx="365.5" cy="314.5" r="5"/><circle cx="314" cy="211.5" r="5"/><circle cx="314" cy="263" r="5"/><circle cx="314" cy="314.5" r="5"/><circle cx="314" cy="366" r="5"/><circle cx="262.5" cy="160" r="5"/><circle cx="262.5" cy="211.5" r="5"/><circle cx="262.5" cy="263" r="5"/><circle cx="262.5" cy="314.5" r="5"/><circle cx="262.5" cy="366" r="5"/><circle cx="211" cy="108.5" r="5"/><circle cx="211" cy="160" r="5"/><circle cx="211" cy="211.5" r="5"/><circle cx="211" cy="263" r="5"/><circle cx="211" cy="314.5" r="5"/><circle cx="211" cy="417.5" r="5"/><circle cx="159.5" cy="5.5" r="5"/><circle cx="159.5" cy="57" r="5"/><circle cx="159.5" cy="108.5" r="5"/><circle cx="159.5" cy="160" r="5"/><circle cx="159.5" cy="211.5" r="5"/><circle cx="159.5" cy="263" r="5"/><circle cx="159.5" cy="469" r="5"/><circle cx="159.5" cy="520.5" r="5"/><circle cx="159.5" cy="572" r="5"/><circle cx="108" cy="5.5" r="5"/><circle cx="108" cy="57" r="5"/><circle cx="108" cy="108.5" r="5"/><circle cx="108" cy="160" r="5"/><circle cx="108" cy="211.5" r="5"/><circle cx="108" cy="520.5" r="5"/><circle cx="108" cy="572" r="5"/><circle cx="108" cy="623.5" r="5"/><circle cx="56.5" cy="57" r="5"/><circle cx="56.5" cy="108.5" r="5"/><circle cx="56.5" cy="160" r="5"/><circle cx="56.5" cy="211.5" r="5"/><circle cx="56.5" cy="520.5" r="5"/><circle cx="56.5" cy="572" r="5"/><circle cx="56.5" cy="623.5" r="5"/><circle cx="5" cy="57" r="5"/><circle cx="5" cy="108.5" r="5"/><circle cx="5" cy="160" r="5"/><circle cx="5" cy="623.5" r="5"/><circle cx="5" cy="675" r="5"/></g><path id="Path" fill="#383A48" d="M739.5,672 C738.9,669.8 736.9,668.3 734.7,668.3 L209,668.3 C208.1,668.3 207.3,668.5 206.5,669 L3,786.2 C1,787.3 0.1,789.6 0.7,791.8 C1.3,794 3.3,795.5 5.5,795.5 L531.2,795.5 C532.1,795.5 532.9,795.3 533.7,794.8 L737.2,677.6 C739.1,676.5 740.1,674.2 739.5,672 Z"/><g transform="translate(204.000000, 0.000000)"><path id="Path" fill="#F6E049" d="M276.7,339.4 C276.7,445.6 530.7,428.3 530.7,673.3 L5,673.3 C5,428.3 259,445.7 259,339.4 C259,233.1 5,250.5 5,5.5 L530.7,5.5 C530.7,250.5 276.7,233.1 276.7,339.4 Z"/><path id="Shape" fill="#383A48" d="M530.7,678.3 L5,678.3 C2.2,678.3 0,676.1 0,673.3 C0,606.4 18.5,552.8 56.6,509.4 C89.4,472 131.3,448.3 168.2,427.3 C216.1,400.1 254,378.7 254,339.4 C254,300.1 216.1,278.7 168.2,251.5 C131.3,230.6 89.4,206.8 56.6,169.4 C18.5,126 0,72.4 0,5.5 C0,2.7 2.2,0.5 5,0.5 L530.7,0.5 C533.5,0.5 535.7,2.7 535.7,5.5 C535.7,72.4 517.2,126 479.1,169.4 C446.3,206.8 404.4,230.5 367.5,251.5 C319.6,278.7 281.7,300.1 281.7,339.4 C281.7,378.7 319.6,400.1 367.5,427.3 C404.4,448.2 446.3,472 479.1,509.4 C517.2,552.8 535.7,606.4 535.7,673.3 C535.7,676 533.4,678.3 530.7,678.3 Z M10,668.3 L525.6,668.3 C523.5,527.3 434.3,476.7 362.5,436 C313.7,408.4 271.6,384.5 271.6,339.4 C271.6,294.3 313.7,270.4 362.5,242.8 C434.3,202.1 523.5,151.5 525.6,10.5 L10,10.5 C12.1,151.5 101.3,202.1 173.1,242.8 C221.9,270.4 264,294.3 264,339.4 C264,384.5 221.9,408.4 173.1,436 C101.3,476.7 12.1,527.3 10,668.3 Z"/></g><path id="Shape" fill="#F3F6E6" d="M332,154.9 C317.1,154.9 310.7,173.9 322.7,182.8 C344,198.6 366.8,211.6 388,223.6 C421.2,242.4 452.7,260.3 471.9,285.8 C491,260.3 522.6,242.4 555.8,223.6 C577,211.6 599.9,198.6 621.1,182.8 C633.1,173.9 626.7,154.9 611.8,154.9 L332,154.9 Z M659,530.4 C629.8,497.1 590.4,474.8 555.7,455.1 C522.5,436.3 491,418.4 471.8,392.9 C452.7,418.4 421.1,436.3 387.9,455.1 C353.1,474.8 313.8,497.1 284.5,530.4 C265.3,552.3 251.9,577.3 244.1,606 C238.6,626.3 254.1,646.2 275.1,646.2 L668.2,646.2 C689.4,646.2 704.7,626 699.1,605.5 C691.4,577 678.1,552.2 659,530.4 Z"/></g><g id="Path" fill="#F3F6E6" fill-rule="nonzero"><path d="M87.2,49.9 C81.7,49.9 77.2,45.4 77.2,39.9 L77.2,10.5 C77.2,5 81.7,0.5 87.2,0.5 C92.7,0.5 97.2,5 97.2,10.5 L97.2,39.9 C97.2,45.4 92.7,49.9 87.2,49.9 Z" transform="translate(672.000000, 317.000000)"/><g opacity=".3"><path d="M10.6,40.8 C8,40.8 5.5,39.8 3.5,37.9 C-0.4,34 -0.4,27.7 3.5,23.8 L24.3,3 C28.2,-0.9 34.5,-0.9 38.4,3 C42.3,6.9 42.3,13.2 38.4,17.1 L17.6,37.9 C15.8,39.8 13.2,40.8 10.6,40.8 Z" transform="translate(672.000000, 317.000000) translate(110.000000, 23.000000)"/></g><g opacity=".4"><path d="M39.9,20.2 L10.5,20.2 C5,20.2 0.5,15.7 0.5,10.2 C0.5,4.7 5,0.2 10.5,0.2 L39.9,0.2 C45.4,0.2 49.9,4.7 49.9,10.2 C49.9,15.7 45.4,20.2 39.9,20.2 Z" transform="translate(672.000000, 317.000000) translate(124.000000, 77.000000)"/></g><g opacity=".5"><path d="M31.4,41.5 C28.8,41.5 26.3,40.5 24.3,38.6 L3.5,17.8 C-0.4,13.9 -0.4,7.6 3.5,3.7 C7.4,-0.2 13.7,-0.2 17.6,3.7 L38.4,24.5 C42.3,28.4 42.3,34.7 38.4,38.6 C36.6,40.5 34,41.5 31.4,41.5 Z" transform="translate(672.000000, 317.000000) translate(110.000000, 110.000000)"/></g><g opacity=".6"><path d="M10.2,50 C4.7,50 0.2,45.5 0.2,40 L0.2,10.6 C0.2,5.1 4.7,0.6 10.2,0.6 C15.7,0.6 20.2,5.1 20.2,10.6 L20.2,40 C20.2,45.5 15.7,50 10.2,50 Z" transform="translate(672.000000, 317.000000) translate(77.000000, 124.000000)"/></g><g opacity=".7"><path d="M10.9,41.5 C8.3,41.5 5.8,40.5 3.8,38.6 C-0.1,34.7 -0.1,28.4 3.8,24.5 L24.6,3.7 C28.5,-0.2 34.8,-0.2 38.7,3.7 C42.6,7.6 42.6,13.9 38.7,17.8 L18,38.6 C16,40.5 13.5,41.5 10.9,41.5 Z" transform="translate(672.000000, 317.000000) translate(22.000000, 110.000000)"/></g><g opacity=".8"><path d="M39.9,20.2 L10.5,20.2 C5,20.2 0.5,15.7 0.5,10.2 C0.5,4.7 5,0.2 10.5,0.2 L39.9,0.2 C45.4,0.2 49.9,4.7 49.9,10.2 C49.9,15.7 45.4,20.2 39.9,20.2 Z" transform="translate(672.000000, 317.000000) translate(0.000000, 77.000000)"/></g><g opacity=".9"><path d="M31.7,41.8 C29.1,41.8 26.6,40.8 24.6,38.9 L3.8,18 C-0.1,14.1 -0.1,7.8 3.8,3.9 C7.7,-5.68434189e-14 14,-1.11022302e-16 17.9,3.9 L38.7,24.7 C42.6,28.6 42.6,34.9 38.7,38.8 C36.8,40.8 34.3,41.8 31.7,41.8 Z" transform="translate(672.000000, 317.000000) translate(22.000000, 22.000000)"/></g></g><g fill-rule="nonzero" transform="translate(149.000000, 175.000000)"><polygon id="Path" fill="#F3F6E6" points="5.9 240.4 405.5 6 277.5 451.2 204.4 346.5 87 500.2 14.4 443.9 131.3 290.8"/><path id="Shape" fill="#383A48" d="M87,505.2 C85.9,505.2 84.8,504.8 83.9,504.1 L11.3,447.8 C9.1,446.1 8.7,443 10.4,440.8 L123.3,293 L4,245 C2.2,244.3 1,242.6 0.9,240.7 C0.8,238.8 1.7,237 3.4,236 L403,1.6 C404.8,0.6 407,0.7 408.6,2 C410.2,3.3 410.9,5.4 410.3,7.3 L282.3,452.6 C281.8,454.5 280.2,455.8 278.3,456.2 C276.4,456.5 274.5,455.7 273.4,454.1 L204.2,355 L91,503.3 C90.2,504.4 89,505.1 87.7,505.2 C87.4,505.2 87.2,505.2 87,505.2 Z M21.4,443 L86.1,493.2 L200.4,343.4 C201.4,342.1 202.9,341.4 204.5,341.4 C206.1,341.4 207.6,342.2 208.5,343.5 L275.7,439.7 L397.3,16.6 L17.3,239.5 L133.2,286.1 C134.6,286.7 135.7,287.9 136.2,289.4 C136.6,290.9 136.3,292.5 135.4,293.8 L21.4,443 Z"/></g><g id="Path" transform="translate(1363.000000, 236.000000)"><line x1="5.1" x2="217.7" y1="127.4" y2="5.1"/><path fill="#4053FA" fill-rule="nonzero" d="M5.1,132.4 C3.4,132.4 1.7,131.5 0.8,129.9 C-0.6,127.5 0.2,124.4 2.6,123.1 L215.3,0.8 C217.7,-0.6 220.8,0.2 222.1,2.6 C223.5,5 222.7,8.1 220.3,9.4 L7.6,131.7 C6.8,132.2 5.9,132.4 5.1,132.4 Z"/></g><path id="Path" fill="#383A48" fill-rule="nonzero" d="M1525.8,738.5 C1524.2,737.6 1522.3,737.6 1520.8,738.6 L1440.8,786.2 C1438.9,787.4 1437.9,789.7 1438.5,791.8 C1439.1,794 1441.1,795.5 1443.3,795.5 L1523.3,795.5 C1526.1,795.5 1528.3,793.3 1528.3,790.5 L1528.3,742.9 C1528.3,741.1 1527.3,739.4 1525.8,738.5 Z"/><g fill-rule="nonzero" transform="translate(6.000000, 0.000000)"><circle id="Oval" cx="52.3" cy="52.5" r="46.6" fill="#F6E049"/><path id="Shape" fill="#383A48" d="M52.3,104.1 C23.8,104.1 0.7,80.9 0.7,52.5 C0.7,24.1 23.9,0.9 52.3,0.9 C80.7,0.9 103.9,24.1 103.9,52.5 C103.9,80.9 80.8,104.1 52.3,104.1 Z M52.3,10.9 C29.4,10.9 10.7,29.6 10.7,52.5 C10.7,75.4 29.4,94.1 52.3,94.1 C75.2,94.1 93.9,75.4 93.9,52.5 C93.9,29.6 75.2,10.9 52.3,10.9 Z"/></g><g fill-rule="nonzero" transform="translate(6.000000, 47.000000)"><circle id="Oval" cx="52.3" cy="52.1" r="46.6" fill="#F6E049"/><path id="Shape" fill="#383A48" d="M52.3,103.7 C23.8,103.7 0.7,80.5 0.7,52.1 C0.7,23.7 23.9,0.5 52.3,0.5 C80.7,0.5 103.9,23.7 103.9,52.1 C103.9,80.5 80.8,103.7 52.3,103.7 Z M52.3,10.5 C29.4,10.5 10.7,29.2 10.7,52.1 C10.7,75 29.4,93.7 52.3,93.7 C75.2,93.7 93.9,75 93.9,52.1 C93.9,29.2 75.2,10.5 52.3,10.5 Z"/></g><g fill-rule="nonzero" transform="translate(6.000000, 94.000000)"><circle id="Oval" cx="52.3" cy="51.7" r="46.6" fill="#F6E049"/><path id="Shape" fill="#383A48" d="M52.3,103.4 C23.8,103.4 0.7,80.2 0.7,51.8 C0.7,23.3 23.9,0.2 52.3,0.2 C80.7,0.2 103.9,23.4 103.9,51.8 C103.9,80.2 80.8,103.4 52.3,103.4 Z M52.3,10.1 C29.4,10.1 10.7,28.8 10.7,51.7 C10.7,74.6 29.4,93.3 52.3,93.3 C75.2,93.3 93.9,74.6 93.9,51.7 C93.9,28.8 75.2,10.1 52.3,10.1 Z"/></g></g></g></g></svg>