<?xml version="1.0" encoding="utf-8"?>
<!-- Generator: Adobe Illustrator 22.0.1, SVG Export Plug-In . SVG Version: 6.00 Build 0)  -->
<svg version="1.1" id="Layer_1" xmlns="http://www.w3.org/2000/svg" xmlns:xlink="http://www.w3.org/1999/xlink" x="0px" y="0px" viewBox="0 0 1920 1080" style="enable-background:new 0 0 1920 1080;" xml:space="preserve">

<rect y="0" width="1920" height="1080" style="fill:#7FD6C2;"/>
<g>
	<path d="M631.4,181.2c-0.6-2.2-2.6-3.7-4.8-3.7H260.7c-2.8,0-5,2.2-5,5v298.1c0,1.4,0.6,2.8,1.6,3.7
		c0.9,0.8,2.1,1.3,3.4,1.3c0.2,0,0.3,0,0.5,0C336.5,478,391,458.5,433,424.3c37-30.3,59.2-68.6,80.7-105.8
		c27.3-47.3,55.6-96.3,115.5-131.8C631.1,185.6,632,183.3,631.4,181.2z" style="fill:#F3F6E6;"/>
	<path d="M1664.2,183.5v461c0,73.7-28.8,143.1-80.9,195.2c-52.1,52.2-121.5,80.9-195.2,80.9H260.6
		c-2.4,0-4.5-1.8-4.9-4.2c-0.4-2.4,1-4.8,3.3-5.6c38.2-13.4,93.4-42.2,157.2-75.5c86.4-45.1,193.9-101.2,300-139.7
		c124.5-45.3,223.6-58.2,302.8-39.5c51.4,12.2,99.5-3.6,151.5-49.6c14-12.4,27.7-26.5,41.3-41.8c1.1-1.2,2.2-2.5,3.3-3.7
		c1.1-1.2,2.2-2.5,3.2-3.8c29.5-34.3,58.3-74.2,88.2-115.6c4-5.5,7.9-11,11.9-16.5c1-1.3,2-2.7,2.9-4c1-1.4,2-2.8,3-4.2
		c42.5-58.4,86.8-116.7,136.5-161.1c64.8-57.7,129.8-83,198.8-77.2C1662.3,178.9,1664.3,181,1664.2,183.5z" style="fill:#F3F6E6;"/>
	<path d="M1659.7,178.6c-69-5.8-134,19.5-198.8,77.2c-56.7,50.6-106.4,119.4-154.4,185.8
		c-45.8,63.5-89.1,123.4-136,164.9c-52,46-100.1,61.8-151.5,49.6c-79.2-18.7-178.3-5.8-302.8,39.5c-106.1,38.5-213.6,94.6-300,139.7
		c-63.8,33.3-119,62.1-157.2,75.5c-2.3,0.8-3.7,3.2-3.3,5.6c0.4,2.4,2.5,4.2,4.9,4.2h1127.5c73.7,0,143.1-28.7,195.2-80.9
		c52.1-52.1,80.9-121.5,80.9-195.2v-461C1664.3,181,1662.3,178.9,1659.7,178.6z" style="fill:none;"/>
	<g>
		<path d="M1579.7,669l-128.3,128.3L1215.1,561c1.1-1.2,2.2-2.5,3.2-3.8c29.5-34.3,58.3-74.2,88.2-115.6
			c4-5.5,7.9-11,11.9-16.5c1-1.3,2-2.7,2.9-4L1579.7,669z" style="fill:#383A48;"/>
		<path d="M1583.3,665.3l-258.9-248.4c-1,1.4-2,2.8-3,4.2c-1,1.3-2,2.7-2.9,4l254.2,244l-121.2,121.2l-233.1-233.1
			c-1.1,1.3-2.2,2.5-3.2,3.8c-1.1,1.2-2.2,2.5-3.3,3.7l236.1,236.1c0.9,1,2.2,1.5,3.5,1.5c1.3,0,2.6-0.5,3.6-1.5l128.3-128.3
			c1-1,1.5-2.2,1.5-3.6C1584.8,667.5,1584.3,666.2,1583.3,665.3z" style="fill:#383A48;"/>
	</g>
	<g>
		<g>
			<line x1="1551.8" y1="387.3" x2="1575.1" y2="410.6" style="fill:none;"/>
			
				<rect x="1558.5" y="382.5" transform="matrix(0.7071 -0.7071 0.7071 0.7071 175.8312 1222.4154)" width="10" height="33" style="fill:#383A48;"/>
		</g>
		<g>
			<line x1="1551.8" y1="410.6" x2="1575.1" y2="387.3" style="fill:none;"/>
			
				<rect x="1547.1" y="393.9" transform="matrix(0.7071 -0.7072 0.7072 0.7071 175.9568 1222.5693)" width="33" height="10" style="fill:#383A48;"/>
		</g>
	</g>
	<g>
		<g>
			<line x1="673.9" y1="235.8" x2="697.2" y2="259.1" style="fill:none;"/>
			
				<rect x="680.6" y="230.9" transform="matrix(0.7071 -0.7071 0.7071 0.7071 25.8582 557.2388)" width="10" height="33" style="fill:#383A48;"/>
		</g>
		<g>
			<line x1="673.9" y1="259.1" x2="697.2" y2="235.8" style="fill:none;"/>
			
				<rect x="669.1" y="242.4" transform="matrix(0.7071 -0.7071 0.7071 0.7071 25.8638 557.2328)" width="33" height="10" style="fill:#383A48;"/>
		</g>
	</g>
	<g>
		<g>
			<rect x="346.6" y="381.8" width="378.9" height="378.9" style="fill:#F6E049;"/>
			<path d="M725.4,765.6H346.6c-2.8,0-5-2.2-5-5V381.8c0-2.8,2.2-5,5-5h378.9c2.8,0,5,2.2,5,5v378.9
				C730.4,763.4,728.2,765.6,725.4,765.6z M351.6,755.6h368.9V386.8H351.6V755.6z" style="fill:#383A48;"/>
		</g>
		<g>
			<polygon points="725.4,381.8 867.4,533.2 867.4,912.1 725.4,760.6 			" style="fill:#AAC6FC;"/>
			<path d="M867.4,917.1c-1.4,0-2.7-0.6-3.6-1.6l-142-151.4c-0.9-0.9-1.4-2.1-1.4-3.4V381.8c0-2.1,1.3-3.9,3.2-4.7
				c1.9-0.8,4.1-0.3,5.5,1.2L871,529.8c0.9,0.9,1.4,2.1,1.4,3.4v378.9c0,2.1-1.3,3.9-3.2,4.6C868.6,917,868,917.1,867.4,917.1z
				 M730.4,758.7l131.9,140.8V535.2L730.4,394.4V758.7z" style="fill:#383A48;"/>
		</g>
		<g>
			<circle cx="839.1" cy="529.4" r="5" style="fill:#383A48;"/>
		</g>
		<g>
			<circle cx="839.1" cy="573.4" r="5" style="fill:#383A48;"/>
		</g>
		<g>
			<circle cx="839.1" cy="617.4" r="5" style="fill:#383A48;"/>
		</g>
		<g>
			<circle cx="839.1" cy="661.4" r="5" style="fill:#383A48;"/>
		</g>
		<g>
			<circle cx="839.1" cy="705.4" r="5" style="fill:#383A48;"/>
		</g>
		<g>
			<circle cx="839.1" cy="749.4" r="5" style="fill:#383A48;"/>
		</g>
		<g>
			<circle cx="839.1" cy="793.4" r="5" style="fill:#383A48;"/>
		</g>
		<g>
			<circle cx="839.1" cy="837.4" r="5" style="fill:#383A48;"/>
		</g>
		<g>
			<circle cx="795.1" cy="485.4" r="5" style="fill:#383A48;"/>
		</g>
		<g>
			<circle cx="795.1" cy="529.4" r="5" style="fill:#383A48;"/>
		</g>
		<g>
			<circle cx="795.1" cy="573.4" r="5" style="fill:#383A48;"/>
		</g>
		<g>
			<circle cx="795.1" cy="617.4" r="5" style="fill:#383A48;"/>
		</g>
		<g>
			<circle cx="795.1" cy="661.4" r="5" style="fill:#383A48;"/>
		</g>
		<g>
			<circle cx="795.1" cy="705.4" r="5" style="fill:#383A48;"/>
		</g>
		<g>
			<circle cx="795.1" cy="749.4" r="5" style="fill:#383A48;"/>
		</g>
		<g>
			<circle cx="795.1" cy="793.4" r="5" style="fill:#383A48;"/>
		</g>
		<g>
			<circle cx="751.1" cy="441.4" r="5" style="fill:#383A48;"/>
		</g>
		<g>
			<circle cx="751.1" cy="485.4" r="5" style="fill:#383A48;"/>
		</g>
		<g>
			<circle cx="751.1" cy="529.4" r="5" style="fill:#383A48;"/>
		</g>
		<g>
			<circle cx="751.1" cy="573.4" r="5" style="fill:#383A48;"/>
		</g>
		<g>
			<circle cx="751.1" cy="617.4" r="5" style="fill:#383A48;"/>
		</g>
		<g>
			<circle cx="751.1" cy="661.4" r="5" style="fill:#383A48;"/>
		</g>
		<g>
			<circle cx="751.1" cy="705.4" r="5" style="fill:#383A48;"/>
		</g>
		<g>
			<circle cx="751.1" cy="749.4" r="5" style="fill:#383A48;"/>
		</g>
		<g>
			<polygon points="346.6,760.6 488.5,912.1 867.4,912.1 725.4,760.6 			" style="fill:#383A48;"/>
			<path d="M867.4,917.1H488.5c-1.4,0-2.7-0.6-3.6-1.6l-142-151.4c-1.4-1.5-1.7-3.6-0.9-5.4c0.8-1.8,2.6-3,4.6-3h378.9
				c1.4,0,2.7,0.6,3.6,1.6L871,908.7c1.4,1.5,1.7,3.6,0.9,5.4C871.2,915.9,869.4,917.1,867.4,917.1z M490.7,907.1h365.2L723.3,765.6
				H358.1L490.7,907.1z" style="fill:#383A48;"/>
		</g>
		<g>
			<path d="M575.6,518.6h-79.2c-6.6,0-11.9-5.3-11.9-11.9V386.9h102.9v119.9C587.5,513.3,582.1,518.6,575.6,518.6z" style="fill:#F3F6E6;"/>
		</g>
	</g>
	<g>
		<g>
			<g>
				<rect x="932.3" y="508.4" width="169.9" height="221.8" style="fill:#7FD6C2;"/>
			</g>
			<g>
				<path d="M1102.2,735.2H932.3c-2.8,0-5-2.2-5-5V508.4c0-2.8,2.2-5,5-5h169.9c2.8,0,5,2.2,5,5v221.8
					C1107.2,733,1104.9,735.2,1102.2,735.2z M937.3,725.2h159.9V513.4H937.3V725.2z" style="fill:#383A48;"/>
			</g>
		</g>
		<g>
			<polygon points="1102.2,508.4 1165.8,576.3 1165.8,798.1 1102.2,730.2 			" style="fill:#AAC6FC;"/>
			<path d="M1165.8,803.1c-1.4,0-2.7-0.6-3.6-1.6l-63.6-67.9c-0.9-0.9-1.4-2.1-1.4-3.4V508.4c0-2.1,1.3-3.9,3.2-4.6
				c1.9-0.8,4.1-0.3,5.5,1.2l63.6,67.9c0.9,0.9,1.4,2.1,1.4,3.4v221.8c0,2.1-1.3,3.9-3.2,4.6C1167,803,1166.4,803.1,1165.8,803.1z
				 M1107.2,728.3l53.6,57.2V578.3l-53.6-57.2V728.3z" style="fill:#383A48;"/>
		</g>
		<g>
			<polygon points="932.3,730.2 995.9,798.1 1165.8,798.1 1102.2,730.2 			" style="fill:#383A48;"/>
			<path d="M1165.8,803.1H995.9c-1.4,0-2.7-0.6-3.6-1.6l-63.6-67.9c-1.4-1.5-1.7-3.6-0.9-5.4c0.8-1.8,2.6-3,4.6-3h169.9
				c1.4,0,2.7,0.6,3.6,1.6l63.6,67.9c1.4,1.5,1.7,3.6,0.9,5.4C1169.6,802,1167.8,803.1,1165.8,803.1z M998.1,793.1h156.2l-54.3-57.9
				H943.8L998.1,793.1z" style="fill:#383A48;"/>
		</g>
		<g>
			<line x1="932.3" y1="508.4" x2="1102.2" y2="730.2" style="fill:none;"/>
			
				<rect x="1012.2" y="479.6" transform="matrix(0.794 -0.608 0.608 0.794 -166.9324 746.0589)" width="10" height="279.4" style="fill:#383A48;"/>
		</g>
		<g>
			<line x1="932.3" y1="730.2" x2="1102.2" y2="508.4" style="fill:none;"/>
			
				<rect x="877.5" y="614.4" transform="matrix(0.608 -0.7939 0.7939 0.608 -93.0266 1050.3372)" width="279.4" height="10" style="fill:#383A48;"/>
		</g>
	</g>
	<g>
		<g>
			<polygon points="1302.9,279.4 1367.6,209 1068.5,159.4 1118.1,469.3 1180.3,402 1460.5,682.2 1588.8,553.9 			" style="fill:#F3F6E6;"/>
		</g>
		<g>
			<g>
				<path d="M1307.2,288.6c-1.2,0-2.5-0.5-3.5-1.4l-4.3-4.2c-2-1.9-2.1-5-0.2-7l4.1-4.4c1.9-2,5-2.2,7.1-0.3
					s2.2,5,0.3,7.1l-0.8,0.8l0.8,0.8c2,1.9,2.1,5.1,0.1,7.1C1309.9,288.1,1308.6,288.6,1307.2,288.6z" style="fill:#383A48;"/>
			</g>
			<g>
				<path d="M1330.5,254.3c-1.2,0-2.4-0.4-3.4-1.3c-2-1.9-2.2-5-0.3-7.1l9.4-10.3c1.9-2,5-2.2,7.1-0.3
					c2,1.9,2.2,5,0.3,7.1l-9.4,10.3C1333.2,253.8,1331.9,254.3,1330.5,254.3z" style="fill:#383A48;"/>
			</g>
			<g>
				<path d="M1363.5,218.4c-1.2,0-2.4-0.4-3.4-1.3c-1.4-1.3-1.9-3.3-1.4-5c-1.5-1.1-2.3-2.9-2-4.9
					c0.5-2.7,3-4.6,5.8-4.1l5.9,1c1.8,0.3,3.3,1.6,3.9,3.3s0.2,3.7-1,5l-4.1,4.4C1366.2,217.9,1364.8,218.4,1363.5,218.4z" style="fill:#383A48;"/>
			</g>
			<g>
				<path d="M1331.1,207.9c-0.3,0-0.5,0-0.8-0.1l-12.2-2c-2.7-0.5-4.6-3-4.1-5.8c0.5-2.7,3-4.6,5.8-4.1l12.2,2
					c2.7,0.5,4.6,3,4.1,5.8C1335.6,206.2,1333.5,207.9,1331.1,207.9z M1288.3,200.8c-0.3,0-0.5,0-0.8-0.1l-12.2-2
					c-2.7-0.5-4.6-3-4.1-5.8c0.5-2.7,3-4.6,5.8-4.1l12.2,2c2.7,0.5,4.6,3,4.1,5.8C1292.8,199.1,1290.7,200.8,1288.3,200.8z
					 M1245.5,193.7c-0.3,0-0.5,0-0.8-0.1l-12.2-2c-2.7-0.5-4.6-3-4.1-5.8c0.5-2.7,3-4.6,5.8-4.1l12.2,2c2.7,0.5,4.6,3,4.1,5.8
					C1250,192,1247.9,193.7,1245.5,193.7z M1202.7,186.6c-0.3,0-0.5,0-0.8-0.1l-12.2-2c-2.7-0.5-4.6-3-4.1-5.8
					c0.5-2.7,3-4.6,5.8-4.1l12.2,2c2.7,0.5,4.6,3,4.1,5.8C1207.3,184.9,1205.1,186.6,1202.7,186.6z M1160,179.5
					c-0.3,0-0.5,0-0.8-0.1l-12.2-2c-2.7-0.5-4.6-3-4.1-5.8s3-4.6,5.8-4.1l12.2,2c2.7,0.5,4.6,3,4.1,5.8
					C1164.5,177.8,1162.4,179.5,1160,179.5z M1117.2,172.4c-0.3,0-0.5,0-0.8-0.1l-12.2-2c-2.7-0.5-4.6-3-4.1-5.8
					c0.5-2.7,3-4.6,5.8-4.1l12.2,2c2.7,0.5,4.6,3,4.1,5.8C1121.7,170.7,1119.6,172.4,1117.2,172.4z" style="fill:#383A48;"/>
			</g>
			<g>
				<path d="M1069.4,170.3c-2.4,0-4.5-1.8-4.9-4.2l-0.9-5.9c-0.3-1.6,0.3-3.2,1.4-4.3s2.8-1.7,4.3-1.4l5.9,1
					c2.7,0.5,4.6,3,4.1,5.8c-0.4,2.4-2.5,4.2-4.9,4.2c0,2.4-1.8,4.5-4.2,4.9C1069.9,170.3,1069.7,170.3,1069.4,170.3z" style="fill:#383A48;"/>
			</g>
			<g>
				<path d="M1112,436.6c-2.4,0-4.5-1.8-4.9-4.2l-2-12.7c-0.4-2.7,1.4-5.3,4.1-5.7c2.7-0.4,5.3,1.4,5.7,4.1l2,12.7
					c0.4,2.7-1.4,5.3-4.1,5.7C1112.6,436.6,1112.3,436.6,1112,436.6z M1104.9,392.2c-2.4,0-4.5-1.8-4.9-4.2l-2-12.7
					c-0.4-2.7,1.4-5.3,4.1-5.7c2.7-0.4,5.3,1.4,5.7,4.1l2,12.7c0.4,2.7-1.4,5.3-4.1,5.7C1105.5,392.2,1105.2,392.2,1104.9,392.2z
					 M1097.8,347.8c-2.4,0-4.5-1.8-4.9-4.2l-2-12.7c-0.4-2.7,1.4-5.3,4.1-5.7c2.7-0.4,5.3,1.4,5.7,4.1l2,12.7
					c0.4,2.7-1.4,5.3-4.1,5.7C1098.4,347.8,1098.1,347.8,1097.8,347.8z M1090.7,303.5c-2.4,0-4.5-1.8-4.9-4.2l-2-12.7
					c-0.4-2.7,1.4-5.3,4.1-5.7c2.7-0.4,5.3,1.4,5.7,4.1l2,12.7c0.4,2.7-1.4,5.3-4.1,5.7C1091.3,303.4,1091,303.5,1090.7,303.5z
					 M1083.6,259.1c-2.4,0-4.5-1.8-4.9-4.2l-2-12.7c-0.4-2.7,1.4-5.3,4.1-5.7s5.3,1.4,5.7,4.1l2,12.7c0.4,2.7-1.4,5.3-4.1,5.7
					C1084.1,259,1083.9,259.1,1083.6,259.1z M1076.5,214.7c-2.4,0-4.5-1.8-4.9-4.2l-2-12.7c-0.4-2.7,1.4-5.3,4.1-5.7
					s5.3,1.4,5.7,4.1l2,12.7c0.4,2.7-1.4,5.3-4.1,5.7C1077,214.7,1076.8,214.7,1076.5,214.7z" style="fill:#383A48;"/>
			</g>
			<g>
				<path d="M1118.1,474.3c-0.5,0-1-0.1-1.4-0.2c-1.8-0.6-3.2-2.1-3.5-4l-0.9-5.9c-0.4-2.7,1.4-5.3,4.1-5.7
					c1.8-0.3,3.4,0.4,4.5,1.6c1.6-0.4,3.4,0,4.7,1.2c2,1.9,2.1,5,0.3,7.1l-4.1,4.4C1120.8,473.7,1119.5,474.3,1118.1,474.3z" style="fill:#383A48;"/>
			</g>
			<g>
				<path d="M1144.7,445.5c-1.2,0-2.4-0.4-3.4-1.3c-2-1.9-2.1-5-0.3-7.1l9-9.7c1.9-2,5-2.1,7.1-0.3c2,1.9,2.1,5,0.3,7.1
					l-9,9.7C1147.4,445,1146,445.5,1144.7,445.5z" style="fill:#383A48;"/>
			</g>
			<g>
				<path d="M1176.3,411.4c-1.2,0-2.4-0.4-3.4-1.3c-2-1.9-2.1-5-0.3-7.1l4.1-4.4c0.9-1,2.2-1.6,3.6-1.6
					c1.4-0.1,2.7,0.5,3.6,1.5l4.2,4.2c2,2,2,5.1,0,7.1s-5.1,2-7.1,0l-0.6-0.6l-0.5,0.6C1178.9,410.9,1177.6,411.4,1176.3,411.4z" style="fill:#383A48;"/>
			</g>
			<g>
				<path d="M1434,660.7c-1.3,0-2.6-0.5-3.5-1.5l-8.9-8.9c-2-2-2-5.1,0-7.1s5.1-2,7.1,0l8.9,8.9c2,2,2,5.1,0,7.1
					C1436.5,660.2,1435.3,660.7,1434,660.7z M1402.8,629.5c-1.3,0-2.6-0.5-3.5-1.5l-8.9-8.9c-2-2-2-5.1,0-7.1s5.1-2,7.1,0l8.9,8.9
					c2,2,2,5.1,0,7.1C1405.4,629,1404.1,629.5,1402.8,629.5z M1371.6,598.3c-1.3,0-2.6-0.5-3.5-1.5l-8.9-8.9c-2-2-2-5.1,0-7.1
					s5.1-2,7.1,0l8.9,8.9c2,2,2,5.1,0,7.1C1374.2,597.8,1372.9,598.3,1371.6,598.3z M1340.5,567.1c-1.3,0-2.6-0.5-3.5-1.5l-8.9-8.9
					c-2-2-2-5.1,0-7.1s5.1-2,7.1,0l8.9,8.9c2,2,2,5.1,0,7.1C1343,566.6,1341.7,567.1,1340.5,567.1z M1309.3,535.9
					c-1.3,0-2.6-0.5-3.5-1.5l-8.9-8.9c-2-2-2-5.1,0-7.1s5.1-2,7.1,0l8.9,8.9c2,2,2,5.1,0,7.1
					C1311.8,535.5,1310.6,535.9,1309.3,535.9z M1278.1,504.8c-1.3,0-2.6-0.5-3.5-1.5l-8.9-8.9c-2-2-2-5.1,0-7.1s5.1-2,7.1,0l8.9,8.9
					c2,2,2,5.1,0,7.1C1280.7,504.3,1279.4,504.8,1278.1,504.8z M1246.9,473.6c-1.3,0-2.6-0.5-3.5-1.5l-8.9-8.9c-2-2-2-5.1,0-7.1
					s5.1-2,7.1,0l8.9,8.9c2,2,2,5.1,0,7.1C1249.5,473.1,1248.2,473.6,1246.9,473.6z M1215.8,442.4c-1.3,0-2.6-0.5-3.5-1.5l-8.9-8.9
					c-2-2-2-5.1,0-7.1s5.1-2,7.1,0l8.9,8.9c2,2,2,5.1,0,7.1C1218.3,441.9,1217,442.4,1215.8,442.4z" style="fill:#383A48;"/>
			</g>
			<g>
				<path d="M1460.5,687.2c-1.3,0-2.6-0.5-3.5-1.5l-4.2-4.2c-2-2-2-5.1,0-7.1s5.1-2,7.1,0l0.7,0.7l0.7-0.7
					c2-2,5.1-2,7.1,0s2,5.1,0,7.1l-4.2,4.2C1463.1,686.6,1461.8,687.2,1460.5,687.2z" style="fill:#383A48;"/>
			</g>
			<g>
				<path d="M1487.8,659.9c-1.3,0-2.6-0.5-3.5-1.5c-2-2-2-5.1,0-7.1l9.2-9.2c2-2,5.1-2,7.1,0s2,5.1,0,7.1l-9.2,9.2
					C1490.3,659.4,1489.1,659.9,1487.8,659.9z M1520,627.6c-1.3,0-2.6-0.5-3.5-1.5c-2-2-2-5.1,0-7.1l9.2-9.2c2-2,5.1-2,7.1,0
					s2,5.1,0,7.1l-9.2,9.2C1522.6,627.1,1521.3,627.6,1520,627.6z M1552.3,595.4c-1.3,0-2.6-0.5-3.5-1.5c-2-2-2-5.1,0-7.1l9.2-9.2
					c2-2,5.1-2,7.1,0s2,5.1,0,7.1l-9.2,9.2C1554.9,594.9,1553.6,595.4,1552.3,595.4z" style="fill:#383A48;"/>
			</g>
			<g>
				<path d="M1584.6,563.1c-1.3,0-2.6-0.5-3.5-1.5c-2-2-2-5.1,0-7.1l0.6-0.6l-0.6-0.6c-2-1.9-2.1-5.1-0.1-7.1
					c1.9-2,5.1-2.1,7.1-0.1l4.3,4.2c1,0.9,1.5,2.2,1.5,3.6s-0.5,2.6-1.5,3.6l-4.2,4.2C1587.1,562.6,1585.8,563.1,1584.6,563.1z" style="fill:#383A48;"/>
			</g>
			<g>
				<path d="M1561.7,532.9c-1.2,0-2.5-0.5-3.5-1.4l-9.1-8.7c-2-1.9-2.1-5.1-0.1-7.1c1.9-2,5.1-2.1,7.1-0.1l9.1,8.7
					c2,1.9,2.1,5.1,0.1,7.1C1564.4,532.4,1563.1,532.9,1561.7,532.9z M1529.9,502.3c-1.2,0-2.5-0.5-3.5-1.4l-9.1-8.7
					c-2-1.9-2.1-5.1-0.1-7.1c1.9-2,5.1-2.1,7.1-0.1l9.1,8.7c2,1.9,2.1,5.1,0.1,7.1C1532.6,501.8,1531.2,502.3,1529.9,502.3z
					 M1498.1,471.8c-1.2,0-2.5-0.5-3.5-1.4l-9.1-8.7c-2-1.9-2.1-5.1-0.1-7.1c1.9-2,5.1-2.1,7.1-0.1l9.1,8.7c2,1.9,2.1,5.1,0.1,7.1
					C1500.7,471.3,1499.4,471.8,1498.1,471.8z M1466.3,441.3c-1.2,0-2.5-0.5-3.5-1.4l-9.1-8.7c-2-1.9-2.1-5.1-0.1-7.1
					c1.9-2,5.1-2.1,7.1-0.1l9.1,8.7c2,1.9,2.1,5.1,0.1,7.1C1468.9,440.8,1467.6,441.3,1466.3,441.3z M1434.5,410.7
					c-1.2,0-2.5-0.5-3.5-1.4l-9.1-8.7c-2-1.9-2.1-5.1-0.1-7.1s5.1-2.1,7.1-0.1l9.1,8.7c2,1.9,2.1,5.1,0.1,7.1
					C1437.1,410.2,1435.8,410.7,1434.5,410.7z M1402.7,380.2c-1.2,0-2.5-0.5-3.5-1.4l-9.1-8.7c-2-1.9-2.1-5.1-0.1-7.1
					c1.9-2,5.1-2.1,7.1-0.1l9.1,8.7c2,1.9,2.1,5.1,0.1,7.1C1405.3,379.7,1404,380.2,1402.7,380.2z M1370.9,349.7
					c-1.2,0-2.5-0.5-3.5-1.4l-9.1-8.7c-2-1.9-2.1-5.1-0.1-7.1c1.9-2,5.1-2.1,7.1-0.1l9.1,8.7c2,1.9,2.1,5.1,0.1,7.1
					C1373.5,349.2,1372.2,349.7,1370.9,349.7z M1339.1,319.1c-1.2,0-2.5-0.5-3.5-1.4l-9.1-8.7c-2-1.9-2.1-5.1-0.1-7.1
					c1.9-2,5.1-2.1,7.1-0.1l9.1,8.7c2,1.9,2.1,5.1,0.1,7.1C1341.7,318.6,1340.4,319.1,1339.1,319.1z" style="fill:#383A48;"/>
			</g>
		</g>
	</g>
	<g>
		<line x1="1235.6" y1="739.7" x2="1367.6" y2="871.7" style="fill:none;"/>
		<path d="M1367.6,876.7c-1.3,0-2.6-0.5-3.5-1.5l-132-132c-2-2-2-5.1,0-7.1s5.1-2,7.1,0l132,132c2,2,2,5.1,0,7.1
			C1370.2,876.2,1368.9,876.7,1367.6,876.7z" style="fill:#383A48;"/>
	</g>
	<g>
		<line x1="1205.8" y1="827.9" x2="1244.8" y2="866.9" style="fill:none;"/>
		<path d="M1244.8,871.9c-1.3,0-2.6-0.5-3.5-1.5l-39-39c-2-2-2-5.1,0-7.1s5.1-2,7.1,0l39,39c2,2,2,5.1,0,7.1
			C1247.3,871.4,1246,871.9,1244.8,871.9z" style="fill:#383A48;"/>
	</g>
	<g>
		<line x1="367" y1="247.4" x2="423.3" y2="303.7" style="fill:none;"/>
		<path d="M423.3,308.7c-1.3,0-2.6-0.5-3.5-1.5L363.4,251c-2-2-2-5.1,0-7.1s5.1-2,7.1,0l56.3,56.3c2,2,2,5.1,0,7.1
			C425.8,308.2,424.6,308.7,423.3,308.7z" style="fill:#383A48;"/>
	</g>
	<g>
		<g>
			<path d="M885.1,363.7l-87.8-87.8l64.4-64.4l87.8,87.8c17.8,17.8,17.8,46.6,0,64.4l0,0
				C931.7,381.5,902.9,381.5,885.1,363.7z" style="fill:#383A48;"/>
			<path d="M917.3,382c-12.9,0-25.9-4.9-35.7-14.8l-87.8-87.8c-2-2-2-5.1,0-7.1l64.4-64.4c0.9-0.9,2.2-1.5,3.5-1.5
				s2.6,0.5,3.5,1.5l87.8,87.8c19.7,19.7,19.7,51.8,0,71.5C943.2,377.1,930.2,382,917.3,382z M888.6,360.2
				c15.8,15.8,41.5,15.8,57.3,0c7.7-7.7,11.9-17.8,11.9-28.7s-4.2-21-11.9-28.7l-84.3-84.3l-57.3,57.3L888.6,360.2z" style="fill:#383A48;"/>
		</g>
		<g>
			<circle cx="829.5" cy="243.7" r="45.5" style="fill:#F6E049;"/>
			<path d="M829.5,294.2c-12.9,0-25.9-4.9-35.7-14.8c-19.7-19.7-19.7-51.8,0-71.5s51.8-19.7,71.5,0s19.7,51.8,0,71.5
				l0,0C855.4,289.3,842.4,294.2,829.5,294.2z M829.5,203.2c-10.4,0-20.8,4-28.7,11.9c-15.8,15.8-15.8,41.5,0,57.3
				c15.8,15.8,41.5,15.8,57.3,0l0,0c15.8-15.8,15.8-41.5,0-57.3C850.3,207.2,839.9,203.2,829.5,203.2z" style="fill:#383A48;"/>
		</g>
	</g>
</g>
</svg>
