<?xml version="1.0" encoding="UTF-8"?>
<svg width="1380px" height="760px" viewBox="0 0 1380 760" version="1.1" xmlns="http://www.w3.org/2000/svg" xmlns:xlink="http://www.w3.org/1999/xlink">
    <!-- Generator: Sketch 59.1 (86144) - https://sketch.com -->
    <title>abstract-sign-in</title>
    <desc>Created with Sketch.</desc>
    <g id="Page-1" stroke="none" stroke-width="1" fill="none" fill-rule="evenodd">
        <g id="abstract-sign-in" transform="translate(-279.000000, -152.000000)">
            <g id="Group" transform="translate(279.000000, 152.000000)">
                <path d="M1265.2,644.3 C1253,611.1 1237.6,583.3 1219.4,561.7 C1196.4,534.4 1168.9,516.8 1137.6,509.5 C1136.1,509.2 1134.6,509.5 1133.4,510.5 C1132.2,511.4 1131.5,512.9 1131.5,514.4 L1131.5,754.5 C1131.5,757.3 1133.7,759.5 1136.5,759.5 L1285.3,759.5 C1286.7,759.5 1288,758.9 1289,757.9 C1289.9,756.9 1290.4,755.5 1290.3,754.1 C1290.2,753.6 1285.8,700.5 1265.2,644.3 Z" id="Path" fill="#383A48" fill-rule="nonzero"></path>
                <path d="M339.7,749.9 C263.5,722.3 246.7,653 231.8,591.8 C225.8,567.3 220.2,544.2 211.1,526 C200.7,505.2 186.5,493 167.7,488.9 C130.3,480.7 98.8,465.6 74,444 C54.2,426.8 38.7,405.3 27.8,380.3 C13,346.5 10.8,315 10.5,303.1 L10.5,297.8 C10.5,295.1 8.3,292.9 5.6,292.79672 C2.9,292.7 0.6,294.9 0.5,297.6 C0.5,298 0.4,300.4 0.5,304.3 L0.5,644.2 C0.5,707.8 52.2,759.5 115.8,759.5 L338,759.5 C340.4,759.5 342.5,757.8 342.9,755.4 C343.3,753 342,750.7 339.7,749.9 Z" id="Path" fill="#F3F6E6" fill-rule="nonzero"></path>
                <path d="M1285.2,89.7 L633.1,89.7 C631.2,89.7 629.5,90.8 628.6,92.5 C627.7,94.2 627.9,96.2 629.1,97.7 C671.5,154.2 713.5,197 757.6,228.7 C796.2,256.4 831.6,272.1 862.8,286 C914,308.7 958.1,328.3 1000.6,392 C1036.5,445.9 1078.9,472.6 1120,498.4 C1189.6,542.3 1255.4,583.7 1280.3,755.3 C1280.7,757.8 1282.8,759.6 1285.2,759.6 C1285.3,759.6 1285.4,759.6 1285.6,759.6 C1288.2,759.4 1290.2,757.2 1290.2,754.6 L1290.2,94.7 C1290.2,91.9 1288,89.7 1285.2,89.7 Z" id="Path" fill="#F3F6E6" fill-rule="nonzero"></path>
                <g transform="translate(1143.000000, 294.000000)">
                    <rect id="Rectangle" fill="#383A48" fill-rule="nonzero" x="11.7" y="0.3" width="10" height="33"></rect>
                    <g transform="translate(0.000000, 11.000000)">
                        <line x1="0.2" y1="5.8" x2="33.2" y2="5.8" id="Path"></line>
                        <rect id="Rectangle" fill="#383A48" fill-rule="nonzero" x="0.2" y="0.8" width="33" height="10"></rect>
                    </g>
                </g>
                <g transform="translate(514.000000, 122.000000)">
                    <rect id="Rectangle" fill="#383A48" fill-rule="nonzero" x="12.3" y="0.8" width="10" height="33"></rect>
                    <g transform="translate(0.000000, 12.000000)">
                        <line x1="0.8" y1="5.3" x2="33.7" y2="5.3" id="Path"></line>
                        <rect id="Rectangle" fill="#383A48" fill-rule="nonzero" x="0.8" y="0.3" width="33" height="10"></rect>
                    </g>
                </g>
                <g transform="translate(116.000000, 552.000000)">
                    <rect id="Rectangle" fill="#383A48" fill-rule="nonzero" x="11.9" y="0.1" width="10" height="33"></rect>
                    <g transform="translate(0.000000, 11.000000)">
                        <line x1="0.5" y1="5.6" x2="33.4" y2="5.6" id="Path"></line>
                        <rect id="Rectangle" fill="#383A48" fill-rule="nonzero" x="0.5" y="0.6" width="33" height="10"></rect>
                    </g>
                </g>
                <g transform="translate(2.000000, 89.000000)" fill-rule="nonzero">
                    <g>
                        <circle id="Oval" fill="#F6E049" cx="205.2" cy="205.8" r="200.1"></circle>
                        <path d="M205.2,410.9 C92.1,410.9 0.1,318.9 0.1,205.8 C0.1,92.7 92.1,0.7 205.2,0.7 C318.3,0.7 410.3,92.7 410.3,205.8 C410.3,318.9 318.3,410.9 205.2,410.9 Z M205.2,10.7 C97.6,10.7 10.1,98.2 10.1,205.8 C10.1,313.4 97.6,400.9 205.2,400.9 C312.8,400.9 400.3,313.4 400.3,205.8 C400.3,98.2 312.8,10.7 205.2,10.7 Z" id="Shape" fill="#383A48"></path>
                    </g>
                    <g transform="translate(100.000000, 218.000000)" fill="#383A48">
                        <path d="M5.9,87.5 L5.9,74.1 C5.9,36 36.7,5.2 74.8,5.2 L135.7,5.2 C173.8,5.2 204.6,36 204.6,74.1 L204.6,87.5 L5.9,87.5 Z" id="Path"></path>
                        <path d="M204.6,92.5 L5.9,92.5 C3.1,92.5 0.9,90.3 0.9,87.5 L0.9,74.1 C0.9,33.4 34.1,0.2 74.8,0.2 L135.7,0.2 C176.4,0.2 209.6,33.4 209.6,74.1 L209.6,87.5 C209.6,90.2 207.4,92.5 204.6,92.5 Z M10.9,82.5 L199.6,82.5 L199.6,74.1 C199.6,38.9 170.9,10.2 135.7,10.2 L74.8,10.2 C39.6,10.2 10.9,38.9 10.9,74.1 L10.9,82.5 L10.9,82.5 Z" id="Shape"></path>
                    </g>
                    <g transform="translate(149.000000, 85.000000)">
                        <path d="M56.2,138.2 L56.2,138.2 C28,138.2 5.1,115.3 5.1,87.1 L5.1,56.2 C5.1,28 28,5.1 56.2,5.1 L56.2,5.1 C84.4,5.1 107.3,28 107.3,56.2 L107.3,87.1 C107.3,115.3 84.4,138.2 56.2,138.2 Z" id="Path" fill="#F3F6E6"></path>
                        <path d="M56.2,143.2 C25.3,143.2 0.1,118 0.1,87.1 L0.1,56.2 C0.1,25.3 25.3,0.1 56.2,0.1 C87.1,0.1 112.3,25.3 112.3,56.2 L112.3,87.1 C112.3,118 87.1,143.2 56.2,143.2 Z M56.2,10.1 C30.8,10.1 10.1,30.8 10.1,56.2 L10.1,87.1 C10.1,112.5 30.8,133.2 56.2,133.2 C81.6,133.2 102.3,112.5 102.3,87.1 L102.3,56.2 C102.3,30.8 81.6,10.1 56.2,10.1 Z" id="Shape" fill="#383A48"></path>
                    </g>
                </g>
                <g transform="translate(333.000000, 402.000000)" fill-rule="nonzero">
                    <g>
                        <polygon id="Path" fill="#AAC6FC" points="649.9 5.7 649.9 352.6 5 352.6 5 236.9 121.3 236.9 121.3 121.3 237.5 121.3 237.5 5.7"></polygon>
                        <path d="M649.9,357.6 L5,357.6 C2.2,357.6 0,355.4 0,352.6 L0,236.9 C0,234.1 2.2,231.9 5,231.9 L116.2,231.9 L116.2,121.3 C116.2,118.5 118.4,116.3 121.2,116.3 L232.5,116.3 L232.5,5.7 C232.5,2.9 234.7,0.7 237.5,0.7 L649.8,0.7 C652.6,0.7 654.803143,2.9 654.803143,5.7 L654.803143,352.5 C654.9,355.3 652.6,357.6 649.9,357.6 Z M10,347.6 L644.9,347.6 L644.9,10.7 L242.5,10.7 L242.5,121.3 C242.5,124.1 240.3,126.3 237.5,126.3 L126.3,126.3 L126.3,236.9 C126.3,239.7 124.1,241.9 121.3,241.9 L10,241.9 L10,347.6 Z" id="Shape" fill="#383A48"></path>
                    </g>
                    <g transform="translate(345.000000, 0.000000)">
                        <polygon id="Path" fill="#AAC6FC" points="237.6 5.7 237.6 121.3 121.4 121.3 121.4 236.9 5.1 236.9 5.1 352.6 458.4 352.6 458.4 5.7"></polygon>
                        <path d="M458.4,357.6 L5.1,357.6 C2.3,357.6 0.1,355.4 0.1,352.6 L0.1,236.9 C0.1,234.1 2.3,231.9 5.1,231.9 L116.4,231.9 L116.4,121.3 C116.4,118.5 118.6,116.3 121.4,116.3 L232.7,116.3 L232.7,5.7 C232.7,2.9 234.9,0.7 237.7,0.7 L458.5,0.7 C461.3,0.7 463.5,2.9 463.5,5.7 L463.5,352.5 C463.4,355.3 461.2,357.6 458.4,357.6 Z M10.1,347.6 L453.4,347.6 L453.4,10.7 L242.6,10.7 L242.6,121.3 C242.6,124.1 240.4,126.3 237.6,126.3 L126.3,126.3 L126.3,236.9 C126.3,239.7 124.1,241.9 121.3,241.9 L10.1,241.9 L10.1,347.6 Z" id="Shape" fill="#383A48"></path>
                    </g>
                    <circle id="Oval" fill="#383A48" cx="787.9" cy="24.8" r="5"></circle>
                    <circle id="Oval" fill="#383A48" cx="787.9" cy="68.8" r="5"></circle>
                    <circle id="Oval" fill="#383A48" cx="787.9" cy="112.8" r="5"></circle>
                    <circle id="Oval" fill="#383A48" cx="787.9" cy="156.8" r="5"></circle>
                    <circle id="Oval" fill="#383A48" cx="787.9" cy="200.8" r="5"></circle>
                    <circle id="Oval" fill="#383A48" cx="787.9" cy="244.8" r="5"></circle>
                    <circle id="Oval" fill="#383A48" cx="787.9" cy="288.8" r="5"></circle>
                    <circle id="Oval" fill="#383A48" cx="787.9" cy="332.8" r="5"></circle>
                    <circle id="Oval" fill="#383A48" cx="743.9" cy="24.8" r="5"></circle>
                    <circle id="Oval" fill="#383A48" cx="743.9" cy="68.8" r="5"></circle>
                    <circle id="Oval" fill="#383A48" cx="743.9" cy="112.8" r="5"></circle>
                    <circle id="Oval" fill="#383A48" cx="743.9" cy="156.8" r="5"></circle>
                    <circle id="Oval" fill="#383A48" cx="743.9" cy="200.8" r="5"></circle>
                    <circle id="Oval" fill="#383A48" cx="743.9" cy="244.8" r="5"></circle>
                    <circle id="Oval" fill="#383A48" cx="743.9" cy="288.8" r="5"></circle>
                    <circle id="Oval" fill="#383A48" cx="743.9" cy="332.8" r="5"></circle>
                    <circle id="Oval" fill="#383A48" cx="699.9" cy="24.8" r="5"></circle>
                    <circle id="Oval" fill="#383A48" cx="699.9" cy="68.8" r="5"></circle>
                    <circle id="Oval" fill="#383A48" cx="699.9" cy="112.8" r="5"></circle>
                    <circle id="Oval" fill="#383A48" cx="699.9" cy="156.8" r="5"></circle>
                    <circle id="Oval" fill="#383A48" cx="699.9" cy="200.8" r="5"></circle>
                    <circle id="Oval" fill="#383A48" cx="699.9" cy="244.8" r="5"></circle>
                    <circle id="Oval" fill="#383A48" cx="699.9" cy="288.8" r="5"></circle>
                    <circle id="Oval" fill="#383A48" cx="699.9" cy="332.8" r="5"></circle>
                    <circle id="Oval" fill="#383A48" cx="655.9" cy="24.8" r="5"></circle>
                    <circle id="Oval" fill="#383A48" cx="655.9" cy="68.8" r="5"></circle>
                    <circle id="Oval" fill="#383A48" cx="655.9" cy="112.8" r="5"></circle>
                    <circle id="Oval" fill="#383A48" cx="655.9" cy="156.8" r="5"></circle>
                    <circle id="Oval" fill="#383A48" cx="655.9" cy="200.8" r="5"></circle>
                    <circle id="Oval" fill="#383A48" cx="655.9" cy="244.8" r="5"></circle>
                    <circle id="Oval" fill="#383A48" cx="655.9" cy="288.8" r="5"></circle>
                    <circle id="Oval" fill="#383A48" cx="655.9" cy="332.8" r="5"></circle>
                    <circle id="Oval" fill="#383A48" cx="611.9" cy="24.8" r="5"></circle>
                    <circle id="Oval" fill="#383A48" cx="611.9" cy="68.8" r="5"></circle>
                    <circle id="Oval" fill="#383A48" cx="611.9" cy="112.8" r="5"></circle>
                    <circle id="Oval" fill="#383A48" cx="611.9" cy="156.8" r="5"></circle>
                    <circle id="Oval" fill="#383A48" cx="611.9" cy="200.8" r="5"></circle>
                    <circle id="Oval" fill="#383A48" cx="611.9" cy="244.8" r="5"></circle>
                    <circle id="Oval" fill="#383A48" cx="611.9" cy="288.8" r="5"></circle>
                    <circle id="Oval" fill="#383A48" cx="611.9" cy="332.8" r="5"></circle>
                    <circle id="Oval" fill="#383A48" cx="567.9" cy="156.8" r="5"></circle>
                    <circle id="Oval" fill="#383A48" cx="567.9" cy="200.8" r="5"></circle>
                    <circle id="Oval" fill="#383A48" cx="567.9" cy="244.8" r="5"></circle>
                    <circle id="Oval" fill="#383A48" cx="567.9" cy="288.8" r="5"></circle>
                    <circle id="Oval" fill="#383A48" cx="567.9" cy="332.8" r="5"></circle>
                    <circle id="Oval" fill="#383A48" cx="523.9" cy="156.8" r="5"></circle>
                    <circle id="Oval" fill="#383A48" cx="523.9" cy="200.8" r="5"></circle>
                    <circle id="Oval" fill="#383A48" cx="523.9" cy="244.8" r="5"></circle>
                    <circle id="Oval" fill="#383A48" cx="523.9" cy="288.8" r="5"></circle>
                    <circle id="Oval" fill="#383A48" cx="523.9" cy="332.8" r="5"></circle>
                    <circle id="Oval" fill="#383A48" cx="479.9" cy="156.8" r="5"></circle>
                    <circle id="Oval" fill="#383A48" cx="479.9" cy="200.8" r="5"></circle>
                    <circle id="Oval" fill="#383A48" cx="479.9" cy="244.8" r="5"></circle>
                    <circle id="Oval" fill="#383A48" cx="479.9" cy="288.8" r="5"></circle>
                    <circle id="Oval" fill="#383A48" cx="479.9" cy="332.8" r="5"></circle>
                    <circle id="Oval" fill="#383A48" cx="435.9" cy="244.8" r="5"></circle>
                    <circle id="Oval" fill="#383A48" cx="435.9" cy="288.8" r="5"></circle>
                    <circle id="Oval" fill="#383A48" cx="435.9" cy="332.8" r="5"></circle>
                    <circle id="Oval" fill="#383A48" cx="391.9" cy="244.8" r="5"></circle>
                    <circle id="Oval" fill="#383A48" cx="391.9" cy="288.8" r="5"></circle>
                    <circle id="Oval" fill="#383A48" cx="391.9" cy="332.8" r="5"></circle>
                    <path d="M466.4,126.3 L237.5,126.3 C234.7,126.3 232.5,124.1 232.5,121.3 C232.5,118.5 234.7,116.3 237.5,116.3 L466.3,116.3 C469.1,116.3 471.3,118.5 471.3,121.3 C471.3,124.1 469.1,126.3 466.4,126.3 Z" id="Path" fill="#383A48"></path>
                    <path d="M350.1,241.9 L121.3,241.9 C118.5,241.9 116.3,239.7 116.3,236.9 C116.3,234.1 118.5,231.9 121.3,231.9 L350.1,231.9 C352.9,231.9 355.1,234.1 355.1,236.9 C355.1,239.7 352.9,241.9 350.1,241.9 Z" id="Path" fill="#383A48"></path>
                    <path d="M446.1,2.7 C445.2,1.4 443.7,0.7 442.1,0.7 L237.5,0.7 L237.5,0.7 C236.2,0.7 234.9,1.2 234,2.2 C233.1,3.1 232.5,4.4 232.5,5.7 L232.5,116.3 L169.6,116.3 C168.1,116.3 166.6,117 165.6,118.2 L131.3,162.5 C129.6,164.7 130,167.8 132.2,169.5 L202,223.7 C202.9,224.4 204,224.7 205.1,224.7 C205.3,224.7 205.5,224.7 205.7,224.7 C207,224.5 208.2,223.9 209,222.8 L325.7,72.1 L359.3,124 C360.2,125.4 361.8,126.3 363.5,126.3 L408.8,126.3 C411,126.3 413,124.8 413.6,122.7 L446.8,7.1 C447.4,5.6 447.1,4 446.1,2.7 Z" id="Path" fill="#383A48"></path>
                </g>
                <g transform="translate(449.000000, 88.000000)" fill-rule="nonzero">
                    <polygon id="Path" fill="#F3F6E6" points="5.3 230.5 389.7 5 266.6 433.3 196.2 332.5 75.2 488.8 5.4 434.6 125.9 279"></polygon>
                    <path d="M75.2,493.8 C74.1,493.8 73,493.4 72.1,492.8 L2.3,438.6 C0.1,436.9 -0.3,433.8 1.4,431.6 L117.9,281.2 L3.4,235.2 C1.6,234.5 0.4,232.8 0.3,230.9 C0.2,229 1.1,227.2 2.8,226.2 L387.2,0.7 C389,-0.3 391.2,-0.2 392.8,1.1 C394.4,2.4 395.1,4.5 394.5,6.4 L271.4,434.7 C270.9,436.6 269.3,437.9 267.4,438.3 C265.5,438.6 263.6,437.8 262.5,436.2 L196,341 L79.2,491.9 C78.4,492.9 77.2,493.6 75.9,493.8 C75.6,493.8 75.4,493.8 75.2,493.8 Z M12.4,433.7 L74.3,481.8 L192.3,329.5 C193.3,328.2 194.8,327.5 196.4,327.6 C198,327.6 199.5,328.4 200.4,329.7 L264.8,421.9 L381.5,15.7 L16.7,229.7 L127.9,274.4 C129.4,275 130.5,276.2 130.9,277.7 C131.3,279.2 131,280.8 130,282.1 L12.4,433.7 Z" id="Shape" fill="#383A48"></path>
                </g>
                <g transform="translate(977.000000, 160.000000)" fill="#AAC6FC" fill-rule="nonzero" id="Path">
                    <path d="M48.9,29.5 C46.1,29.5 43.9,27.3 43.9,24.5 L43.9,5.7 C43.9,2.9 46.1,0.7 48.9,0.7 C51.7,0.7 53.9,2.9 53.9,5.7 L53.9,24.5 C53.9,27.3 51.7,29.5 48.9,29.5 Z"></path>
                    <path d="M48.9,96.8 C46.1,96.8 43.9,94.6 43.9,91.8 L43.9,73 C43.9,70.2 46.1,68 48.9,68 C51.7,68 53.9,70.2 53.9,73 L53.9,91.8 C53.9,94.6 51.7,96.8 48.9,96.8 Z"></path>
                    <path d="M24.6,53.8 L5.8,53.8 C3,53.8 0.8,51.6 0.8,48.8 C0.8,46 3,43.8 5.8,43.8 L24.6,43.8 C27.4,43.8 29.6,46 29.6,48.8 C29.6,51.6 27.4,53.8 24.6,53.8 Z"></path>
                    <path d="M92,53.8 L73.2,53.8 C70.4,53.8 68.2,51.6 68.2,48.8 C68.2,46 70.4,43.8 73.2,43.8 L92,43.8 C94.8,43.8 97,46 97,48.8 C97,51.6 94.7,53.8 92,53.8 Z"></path>
                    <path d="M31.8,36.6 C30.5,36.6 29.2,36.1 28.3,35.1 L15,21.8 C13,19.8 13,16.7 15,14.7 C17,12.7 20.1,12.7 22.1,14.7 L35.4,28 C37.4,30 37.4,33.1 35.4,35.1 C34.3,36.1 33,36.6 31.8,36.6 Z"></path>
                    <path d="M79.4,84.2 C78.1,84.2 76.8,83.7 75.9,82.7 L62.6,69.4 C60.6,67.4 60.6,64.3 62.6,62.3 C64.6,60.3 67.7,60.3 69.7,62.3 L83,75.6 C85,77.6 85,80.7 83,82.7 C81.9,83.7 80.7,84.2 79.4,84.2 Z"></path>
                    <path d="M18.5,84.2 C17.2,84.2 15.9,83.7 15,82.7 C13,80.7 13,77.6 15,75.6 L28.3,62.3 C30.3,60.3 33.4,60.3 35.4,62.3 C37.4,64.3 37.4,67.4 35.4,69.4 L22.1,82.7 C21,83.7 19.8,84.2 18.5,84.2 Z"></path>
                    <path d="M66.1,36.6 C64.8,36.6 63.5,36.1 62.6,35.1 C60.6,33.1 60.6,30 62.6,28 L75.9,14.7 C77.9,12.7 81,12.7 83,14.7 C85,16.7 85,19.8 83,21.8 L69.7,35.1 C68.7,36.1 67.4,36.6 66.1,36.6 Z"></path>
                </g>
                <path d="M180.4,689 C179.1,689 177.8,688.5 176.9,687.5 C174.9,685.5 174.9,682.4 176.9,680.4 L328.4,529 C330.4,527 333.5,527 335.5,529 C337.5,531 337.5,534.1 335.5,536.1 L184,687.6 C183,688.5 181.7,689 180.4,689 Z" id="Path" fill="#383A48" fill-rule="nonzero"></path>
                <path d="M1285.2,0.4 C1233.2,0.4 1190.9,42.7 1190.9,94.7 C1190.9,97.5 1193.1,99.7 1195.9,99.7 L1280.2,99.7 L1280.2,184 C1280.2,186.8 1282.4,189 1285.2,189 C1337.2,189 1379.5,146.7 1379.5,94.7 C1379.5,42.7 1337.2,0.4 1285.2,0.4 Z" id="Path" fill="#AAC6FC" fill-rule="nonzero"></path>
                <path d="M1285.2,89.7 L1196,89.7 C1193.2,89.7 1191,91.9 1191,94.7 C1191,146.7 1233.3,189 1285.3,189 C1288.1,189 1290.3,186.8 1290.3,184 L1290.3,94.7 C1290.2,91.9 1288,89.7 1285.2,89.7 Z" id="Path" fill="#F6E049" fill-rule="nonzero"></path>
            </g>
        </g>
    </g>
</svg>