<svg xmlns="http://www.w3.org/2000/svg" xmlns:xlink="http://www.w3.org/1999/xlink" width="1487" height="718" version="1.1" viewBox="0 0 1487 718"><title>abstract-payment-error</title><desc>Created with Sketch.</desc><g id="Page-1" fill="none" fill-rule="evenodd" stroke="none" stroke-width="1"><g id="abstract-payment-error" transform="translate(-216.000000, -181.000000)"><g id="Group" stroke="#E498B9" stroke-linecap="round" stroke-linejoin="round" stroke-width="10" transform="translate(221.000000, 186.000000)"><rect id="Rectangle" width="118" height="118" x=".2" y="0"/><rect id="Rectangle" width="118" height="118" x="118.1" y="0"/><rect id="Rectangle" width="118" height="118" x="236.1" y="0"/><rect id="Rectangle" width="118" height="118" x="354.1" y="0"/><rect id="Rectangle" width="118" height="118" x="472" y="0"/><rect id="Rectangle" width="118" height="118" x="590" y="0"/><rect id="Rectangle" width="118" height="118" x=".2" y="118"/><rect id="Rectangle" width="118" height="118" x="118.1" y="118"/><rect id="Rectangle" width="118" height="118" x="236.1" y="118"/><rect id="Rectangle" width="118" height="118" x="354.1" y="118"/><rect id="Rectangle" width="118" height="118" x="472" y="118"/><rect id="Rectangle" width="118" height="118" x="590" y="118"/><rect id="Rectangle" width="118" height="118" x=".2" y="236"/><rect id="Rectangle" width="118" height="118" x="118.1" y="236"/><rect id="Rectangle" width="118" height="118" x="236.1" y="236"/><rect id="Rectangle" width="118" height="118" x="354.1" y="236"/><rect id="Rectangle" width="118" height="118" x="472" y="236"/><rect id="Rectangle" width="118" height="118" x="590" y="236"/><rect id="Rectangle" width="118" height="118" x=".2" y="353.9"/><rect id="Rectangle" width="118" height="118" x="118.1" y="353.9"/><rect id="Rectangle" width="118" height="118" x="236.1" y="353.9"/><rect id="Rectangle" width="118" height="118" x="354.1" y="353.9"/><rect id="Rectangle" width="118" height="118" x="472" y="353.9"/><rect id="Rectangle" width="118" height="118" x="590" y="353.9"/><rect id="Rectangle" width="118" height="118" x=".2" y="471.9"/><rect id="Rectangle" width="118" height="118" x="118.1" y="471.9"/><rect id="Rectangle" width="118" height="118" x="236.1" y="471.9"/><rect id="Rectangle" width="118" height="118" x="354.1" y="471.9"/><rect id="Rectangle" width="118" height="118" x="472" y="471.9"/><rect id="Rectangle" width="118" height="118" x="590" y="471.9"/><rect id="Rectangle" width="118" height="118" x="707.9" y="0"/><rect id="Rectangle" width="118" height="118" x="707.9" y="118"/><rect id="Rectangle" width="118" height="118" x="707.9" y="236"/><rect id="Rectangle" width="118" height="118" x="707.9" y="353.9"/><rect id="Rectangle" width="118" height="118" x="707.9" y="471.9"/><rect id="Rectangle" width="118" height="118" x=".2" y="589.8"/><rect id="Rectangle" width="118" height="118" x="118.1" y="589.8"/><rect id="Rectangle" width="118" height="118" x="236.1" y="589.8"/><rect id="Rectangle" width="118" height="118" x="354.1" y="589.8"/><rect id="Rectangle" width="118" height="118" x="472" y="589.8"/><rect id="Rectangle" width="118" height="118" x="590" y="589.8"/><rect id="Rectangle" width="118" height="118" x="707.9" y="589.8"/></g><g id="Group" transform="translate(216.000000, 181.000000)"><path id="Shape" fill="#E498B9" fill-rule="nonzero" d="M830.9,0 L712.9,0 L595,0 L477,0 L359,0 L241,0 L123,0 L5,0 C2.2,0 0,2.2 0,5 L0,123 L0,241 L0,359 L0,477 L0,595 L0,713 C0,715.8 2.2,718 5,718 L123,718 L241,718 L359,718 L477,718 L595,718 L713,718 L831,718 C833.8,718 836,715.8 836,713 L836,595 L836,477 L836,359 L836,241 L836,123 L836,5 C835.9,2.3 833.7,0 830.9,0 Z M825.9,236 L717.9,236 L717.9,128 L825.9,128 L825.9,236 Z M825.9,353.9 L717.9,353.9 L717.9,246 L825.9,246 L825.9,353.9 Z M825.9,471.9 L717.9,471.9 L717.9,363.9 L825.9,363.9 L825.9,471.9 Z M10.2,363.9 L118.2,363.9 L118.2,471.9 L10.2,471.9 L10.2,363.9 L10.2,363.9 Z M10.2,246 L118.2,246 L118.2,354 L10.2,354 L10.2,246 L10.2,246 Z M707.9,353.9 L600,353.9 L600,246 L708,246 L707.9,353.9 L707.9,353.9 Z M590,353.9 L482,353.9 L482,246 L590,246 L590,353.9 Z M472,353.9 L364,353.9 L364,246 L472,246 L472,353.9 Z M354.1,353.9 L246.1,353.9 L246.1,246 L354.1,246 L354.1,353.9 Z M236.1,353.9 L128.1,353.9 L128.1,246 L236.1,246 L236.1,353.9 Z M128.1,363.9 L236.1,363.9 L236.1,471.9 L128.1,471.9 L128.1,363.9 Z M246.1,363.9 L354.1,363.9 L354.1,471.9 L246.1,471.9 L246.1,363.9 L246.1,363.9 Z M364.1,363.9 L472.1,363.9 L472.1,471.9 L364.1,471.9 L364.1,363.9 Z M482,363.9 L590,363.9 L590,471.9 L482,471.9 L482,363.9 Z M600,363.9 L708,363.9 L708,471.9 L600,471.9 L600,363.9 Z M707.9,236 L600,236 L600,128 L708,128 L707.9,236 L707.9,236 Z M590,236 L482,236 L482,128 L590,128 L590,236 Z M472,236 L364,236 L364,128 L472,128 L472,236 Z M354.1,236 L246.1,236 L246.1,128 L354.1,128 L354.1,236 Z M236.1,236 L128.1,236 L128.1,128 L236.1,128 L236.1,236 Z M118.1,236 L10.1,236 L10.1,128 L118.1,128 L118.1,236 Z M10.2,481.9 L118.2,481.9 L118.2,589.9 L10.2,589.9 L10.2,481.9 L10.2,481.9 Z M128.1,481.9 L236.1,481.9 L236.1,589.9 L128.1,589.9 L128.1,481.9 Z M246.1,481.9 L354.1,481.9 L354.1,589.9 L246.1,589.9 L246.1,481.9 L246.1,481.9 Z M364.1,481.9 L472.1,481.9 L472.1,589.9 L364.1,589.9 L364.1,481.9 Z M482,481.9 L590,481.9 L590,589.9 L482,589.9 L482,481.9 Z M600,481.9 L708,481.9 L708,589.9 L600,589.9 L600,481.9 Z M717.9,481.9 L825.9,481.9 L825.9,589.9 L717.9,589.9 L717.9,481.9 L717.9,481.9 Z M825.9,118 L717.9,118 L717.9,10 L825.9,10 L825.9,118 Z M707.9,118 L600,118 L600,10 L708,10 L707.9,118 L707.9,118 Z M590,118 L482,118 L482,10 L590,10 L590,118 Z M472,118 L364,118 L364,10 L472,10 L472,118 Z M354.1,118 L246.1,118 L246.1,10 L354.1,10 L354.1,118 Z M236.1,118 L128.1,118 L128.1,10 L236.1,10 L236.1,118 Z M10.2,10 L118.2,10 L118.2,118 L10.2,118 L10.2,10 L10.2,10 Z M10.2,599.8 L118.2,599.8 L118.2,707.8 L10.2,707.8 L10.2,599.8 L10.2,599.8 Z M128.1,599.8 L236.1,599.8 L236.1,707.8 L128.1,707.8 L128.1,599.8 Z M246.1,599.8 L354.1,599.8 L354.1,707.8 L246.1,707.8 L246.1,599.8 L246.1,599.8 Z M364.1,599.8 L472.1,599.8 L472.1,707.8 L364.1,707.8 L364.1,599.8 Z M482,599.8 L590,599.8 L590,707.8 L482,707.8 L482,599.8 Z M600,599.8 L708,599.8 L708,707.8 L600,707.8 L600,599.8 Z M825.9,707.8 L717.9,707.8 L717.9,599.8 L825.9,599.8 L825.9,707.8 Z"/><path id="Path" fill="#F3F6E6" fill-rule="nonzero" d="M1478.6,0.5 C1475.8,0.5 1473.6,2.7 1473.6,5.5 C1473.6,45 1464.1,82.5 1445.5,116.9 C1427,151 1398.9,183.1 1362,212.3 C1325.4,241.3 1279.1,268.4 1224.3,292.8 C1170.2,316.9 1106.3,339.1 1034.2,358.8 C999.7,368.3 971.2,384.6 944.7,410.2 C921.2,432.9 902.2,460 882,488.6 C848.6,536.2 814,585.4 752.8,626.2 C682.6,673.1 589.1,699.8 467,707.8 C464.3,708 462.2,710.3 462.296572,713 C462.4,715.7 464.6,717.8 467.3,717.8 L1478.6,717.8 C1481.4,717.8 1483.6,715.6 1483.6,712.8 L1483.6,5.5 C1483.6,2.8 1481.4,0.5 1478.6,0.5 Z"/><g id="Oval" fill="#383A48" fill-rule="nonzero" transform="translate(140.000000, 263.000000)"><circle cx="474.3" cy="351.1" r="5"/><circle cx="474.3" cy="375.8" r="5"/><circle cx="474.3" cy="400.5" r="5"/><circle cx="474.3" cy="425.1" r="5"/><circle cx="449.6" cy="326.5" r="5"/><circle cx="449.6" cy="351.1" r="5"/><circle cx="449.6" cy="375.8" r="5"/><circle cx="449.6" cy="400.5" r="5"/><circle cx="449.6" cy="425.1" r="5"/><circle cx="425" cy="252.5" r="5"/><circle cx="425" cy="277.1" r="5"/><circle cx="425" cy="301.8" r="5"/><circle cx="425" cy="326.5" r="5"/><circle cx="425" cy="351.1" r="5"/><circle cx="425" cy="375.8" r="5"/><circle cx="425" cy="400.5" r="5"/><circle cx="425" cy="425.1" r="5"/><circle cx="425" cy="449.8" r="5"/><circle cx="400.3" cy="227.8" r="5"/><circle cx="400.3" cy="252.5" r="5"/><circle cx="400.3" cy="277.1" r="5"/><circle cx="400.3" cy="301.8" r="5"/><circle cx="400.3" cy="326.5" r="5"/><circle cx="400.3" cy="351.1" r="5"/><circle cx="400.3" cy="375.8" r="5"/><circle cx="400.3" cy="400.5" r="5"/><circle cx="400.3" cy="425.1" r="5"/><circle cx="400.3" cy="449.8" r="5"/><circle cx="375.6" cy="178.5" r="5"/><circle cx="375.6" cy="203.1" r="5"/><circle cx="375.6" cy="227.8" r="5"/><circle cx="375.6" cy="252.5" r="5"/><circle cx="375.6" cy="277.1" r="5"/><circle cx="375.6" cy="301.8" r="5"/><circle cx="375.6" cy="326.5" r="5"/><circle cx="375.6" cy="351.1" r="5"/><circle cx="375.6" cy="375.8" r="5"/><circle cx="375.6" cy="400.5" r="5"/><circle cx="375.6" cy="425.1" r="5"/><circle cx="375.6" cy="449.8" r="5"/><circle cx="351" cy="129.1" r="5"/><circle cx="351" cy="153.8" r="5"/><circle cx="351" cy="178.5" r="5"/><circle cx="351" cy="203.1" r="5"/><circle cx="351" cy="227.8" r="5"/><circle cx="351" cy="252.5" r="5"/><circle cx="351" cy="277.1" r="5"/><circle cx="351" cy="301.8" r="5"/><circle cx="351" cy="326.5" r="5"/><circle cx="351" cy="351.1" r="5"/><circle cx="351" cy="375.8" r="5"/><circle cx="351" cy="400.5" r="5"/><circle cx="351" cy="425.1" r="5"/><circle cx="351" cy="449.8" r="5"/><circle cx="326.3" cy="79.8" r="5"/><circle cx="326.3" cy="104.5" r="5"/><circle cx="326.3" cy="129.1" r="5"/><circle cx="326.3" cy="153.8" r="5"/><circle cx="326.3" cy="178.5" r="5"/><circle cx="326.3" cy="203.1" r="5"/><circle cx="326.3" cy="227.8" r="5"/><circle cx="326.3" cy="252.5" r="5"/><circle cx="326.3" cy="277.1" r="5"/><circle cx="326.3" cy="301.8" r="5"/><circle cx="326.3" cy="326.5" r="5"/><circle cx="326.3" cy="351.1" r="5"/><circle cx="326.3" cy="375.8" r="5"/><circle cx="326.3" cy="400.5" r="5"/><circle cx="326.3" cy="425.1" r="5"/><circle cx="326.3" cy="449.8" r="5"/><circle cx="301.6" cy="30.5" r="5"/><circle cx="301.6" cy="55.1" r="5"/><circle cx="301.6" cy="79.8" r="5"/><circle cx="301.6" cy="104.5" r="5"/><circle cx="301.6" cy="129.1" r="5"/><circle cx="301.6" cy="153.8" r="5"/><circle cx="301.6" cy="178.5" r="5"/><circle cx="301.6" cy="203.1" r="5"/><circle cx="301.6" cy="227.8" r="5"/><circle cx="301.6" cy="252.5" r="5"/><circle cx="301.6" cy="277.1" r="5"/><circle cx="301.6" cy="301.8" r="5"/><circle cx="301.6" cy="326.5" r="5"/><circle cx="301.6" cy="351.1" r="5"/><circle cx="301.6" cy="375.8" r="5"/><circle cx="301.6" cy="400.5" r="5"/><circle cx="301.6" cy="425.1" r="5"/><circle cx="301.6" cy="449.8" r="5"/><circle cx="277" cy="5.8" r="5"/><circle cx="277" cy="30.5" r="5"/><circle cx="277" cy="55.1" r="5"/><circle cx="277" cy="79.8" r="5"/><circle cx="277" cy="104.5" r="5"/><circle cx="277" cy="129.1" r="5"/><circle cx="277" cy="153.8" r="5"/><circle cx="277" cy="178.5" r="5"/><circle cx="277" cy="203.1" r="5"/><circle cx="277" cy="227.8" r="5"/><circle cx="277" cy="252.5" r="5"/><circle cx="277" cy="277.1" r="5"/><circle cx="277" cy="301.8" r="5"/><circle cx="277" cy="326.5" r="5"/><circle cx="277" cy="351.1" r="5"/><circle cx="277" cy="375.8" r="5"/><circle cx="277" cy="400.5" r="5"/><circle cx="277" cy="425.1" r="5"/><circle cx="277" cy="449.8" r="5"/><circle cx="252.3" cy="5.8" r="5"/><circle cx="252.3" cy="30.5" r="5"/><circle cx="252.3" cy="55.1" r="5"/><circle cx="252.3" cy="79.8" r="5"/><circle cx="252.3" cy="104.5" r="5"/><circle cx="252.3" cy="129.1" r="5"/><circle cx="252.3" cy="153.8" r="5"/><circle cx="252.3" cy="178.5" r="5"/><circle cx="252.3" cy="203.1" r="5"/><circle cx="252.3" cy="227.8" r="5"/><circle cx="252.3" cy="252.5" r="5"/><circle cx="252.3" cy="277.1" r="5"/><circle cx="252.3" cy="301.8" r="5"/><circle cx="252.3" cy="326.5" r="5"/><circle cx="252.3" cy="351.1" r="5"/><circle cx="252.3" cy="375.8" r="5"/><circle cx="252.3" cy="400.5" r="5"/><circle cx="252.3" cy="425.1" r="5"/><circle cx="252.3" cy="449.8" r="5"/><circle cx="227.6" cy="5.8" r="5"/><circle cx="227.6" cy="30.5" r="5"/><circle cx="227.6" cy="55.1" r="5"/><circle cx="227.6" cy="79.8" r="5"/><circle cx="227.6" cy="104.5" r="5"/><circle cx="227.6" cy="129.1" r="5"/><circle cx="227.6" cy="153.8" r="5"/><circle cx="227.6" cy="178.5" r="5"/><circle cx="227.6" cy="203.1" r="5"/><circle cx="227.6" cy="227.8" r="5"/><circle cx="227.6" cy="252.5" r="5"/><circle cx="227.6" cy="277.1" r="5"/><circle cx="227.6" cy="301.8" r="5"/><circle cx="227.6" cy="326.5" r="5"/><circle cx="227.6" cy="351.1" r="5"/><circle cx="227.6" cy="375.8" r="5"/><circle cx="227.6" cy="400.5" r="5"/><circle cx="227.6" cy="425.1" r="5"/><circle cx="227.6" cy="449.8" r="5"/><circle cx="203" cy="30.5" r="5"/><circle cx="203" cy="55.1" r="5"/><circle cx="203" cy="79.8" r="5"/><circle cx="203" cy="104.5" r="5"/><circle cx="203" cy="129.1" r="5"/><circle cx="203" cy="153.8" r="5"/><circle cx="203" cy="178.5" r="5"/><circle cx="203" cy="203.1" r="5"/><circle cx="203" cy="227.8" r="5"/><circle cx="203" cy="252.5" r="5"/><circle cx="203" cy="277.1" r="5"/><circle cx="203" cy="301.8" r="5"/><circle cx="203" cy="326.5" r="5"/><circle cx="203" cy="351.1" r="5"/><circle cx="203" cy="375.8" r="5"/><circle cx="203" cy="400.5" r="5"/><circle cx="203" cy="425.1" r="5"/><circle cx="203" cy="449.8" r="5"/><circle cx="178.3" cy="55.1" r="5"/><circle cx="178.3" cy="79.8" r="5"/><circle cx="178.3" cy="104.5" r="5"/><circle cx="178.3" cy="129.1" r="5"/><circle cx="178.3" cy="153.8" r="5"/><circle cx="178.3" cy="178.5" r="5"/><circle cx="178.3" cy="203.1" r="5"/><circle cx="178.3" cy="227.8" r="5"/><circle cx="178.3" cy="252.5" r="5"/><circle cx="178.3" cy="277.1" r="5"/><circle cx="178.3" cy="301.8" r="5"/><circle cx="178.3" cy="326.5" r="5"/><circle cx="178.3" cy="351.1" r="5"/><circle cx="178.3" cy="375.8" r="5"/><circle cx="178.3" cy="400.5" r="5"/><circle cx="178.3" cy="425.1" r="5"/><circle cx="178.3" cy="449.8" r="5"/><circle cx="153.616" cy="104.503" r="5" transform="translate(153.615870, 104.503140) rotate(-80.781636) translate(-153.615870, -104.503140)"/><circle cx="153.616" cy="129.104" r="5" transform="translate(153.616230, 129.103560) rotate(-80.781636) translate(-153.616230, -129.103560)"/><circle cx="153.617" cy="153.804" r="5" transform="translate(153.616500, 153.804000) rotate(-80.781636) translate(-153.616500, -153.804000)"/><circle cx="153.617" cy="178.505" r="5" transform="translate(153.616870, 178.504540) rotate(-80.781636) translate(-153.616870, -178.504540)"/><circle cx="153.617" cy="203.105" r="5" transform="translate(153.617230, 203.104860) rotate(-80.781636) translate(-153.617230, -203.104860)"/><circle cx="153.618" cy="227.805" r="5" transform="translate(153.617500, 227.805300) rotate(-80.781636) translate(-153.617500, -227.805300)"/><circle cx="153.618" cy="252.506" r="5" transform="translate(153.617770, 252.505740) rotate(-80.781636) translate(-153.617770, -252.505740)"/><circle cx="153.618" cy="277.106" r="5" transform="translate(153.618130, 277.106160) rotate(-80.781636) translate(-153.618130, -277.106160)"/><circle cx="153.618" cy="301.807" r="5" transform="translate(153.618400, 301.806600) rotate(-80.781636) translate(-153.618400, -301.806600)"/><circle cx="153.619" cy="326.507" r="5" transform="translate(153.618670, 326.507040) rotate(-80.781636) translate(-153.618670, -326.507040)"/><circle cx="153.619" cy="351.107" r="5" transform="translate(153.619030, 351.107360) rotate(-80.781636) translate(-153.619030, -351.107360)"/><circle cx="153.619" cy="375.808" r="5" transform="translate(153.619300, 375.807900) rotate(-80.781636) translate(-153.619300, -375.807900)"/><circle cx="153.62" cy="400.508" r="5" transform="translate(153.619670, 400.508340) rotate(-80.781636) translate(-153.619670, -400.508340)"/><circle cx="153.62" cy="425.109" r="5" transform="translate(153.619930, 425.108660) rotate(-80.781636) translate(-153.619930, -425.108660)"/><circle cx="153.62" cy="449.809" r="5" transform="translate(153.620300, 449.809200) rotate(-80.781636) translate(-153.620300, -449.809200)"/><circle cx="129" cy="153.8" r="5"/><circle cx="129" cy="178.5" r="5"/><circle cx="129" cy="203.1" r="5"/><circle cx="129" cy="227.8" r="5"/><circle cx="129" cy="252.5" r="5"/><circle cx="129" cy="277.1" r="5"/><circle cx="129" cy="301.8" r="5"/><circle cx="129" cy="326.5" r="5"/><circle cx="129" cy="351.1" r="5"/><circle cx="129" cy="375.8" r="5"/><circle cx="129" cy="400.5" r="5"/><circle cx="129" cy="425.1" r="5"/><circle cx="129" cy="449.8" r="5"/><circle cx="104.3" cy="203.1" r="5"/><circle cx="104.3" cy="227.8" r="5"/><circle cx="104.3" cy="252.5" r="5"/><circle cx="104.3" cy="277.1" r="5"/><circle cx="104.3" cy="301.8" r="5"/><circle cx="104.3" cy="326.5" r="5"/><circle cx="104.3" cy="351.1" r="5"/><circle cx="104.3" cy="375.8" r="5"/><circle cx="104.3" cy="400.5" r="5"/><circle cx="104.3" cy="425.1" r="5"/><circle cx="104.3" cy="449.8" r="5"/><circle cx="79.6" cy="227.8" r="5"/><circle cx="79.6" cy="252.5" r="5"/><circle cx="79.6" cy="277.1" r="5"/><circle cx="79.6" cy="301.8" r="5"/><circle cx="79.6" cy="326.5" r="5"/><circle cx="79.6" cy="351.1" r="5"/><circle cx="79.6" cy="375.8" r="5"/><circle cx="79.6" cy="400.5" r="5"/><circle cx="79.6" cy="425.1" r="5"/><circle cx="79.6" cy="449.8" r="5"/><circle cx="55" cy="277.1" r="5"/><circle cx="55" cy="301.8" r="5"/><circle cx="55" cy="326.5" r="5"/><circle cx="55" cy="351.1" r="5"/><circle cx="55" cy="375.8" r="5"/><circle cx="55" cy="400.5" r="5"/><circle cx="55" cy="425.1" r="5"/><circle cx="55" cy="449.8" r="5"/><circle cx="30.3" cy="326.5" r="5"/><circle cx="30.3" cy="351.1" r="5"/><circle cx="30.3" cy="375.8" r="5"/><circle cx="30.3" cy="400.5" r="5"/><circle cx="30.3" cy="425.1" r="5"/><circle cx="5.6" cy="375.8" r="5"/><circle cx="5.6" cy="400.5" r="5"/></g><g id="Oval" fill="#383A48" fill-rule="nonzero" transform="translate(854.000000, 57.000000)"><circle cx="622.2" cy="5.2" r="5"/><circle cx="622.2" cy="29.9" r="5"/><circle cx="622.2" cy="54.5" r="5"/><circle cx="622.2" cy="79.2" r="5"/><circle cx="622.2" cy="103.9" r="5"/><circle cx="622.2" cy="128.5" r="5"/><circle cx="622.2" cy="153.2" r="5"/><circle cx="622.2" cy="177.9" r="5"/><circle cx="622.2" cy="202.5" r="5"/><circle cx="622.2" cy="227.2" r="5"/><circle cx="622.2" cy="251.9" r="5"/><circle cx="622.2" cy="276.5" r="5"/><circle cx="622.2" cy="301.2" r="5"/><circle cx="622.2" cy="325.9" r="5"/><circle cx="622.2" cy="350.5" r="5"/><circle cx="622.2" cy="375.2" r="5"/><circle cx="622.2" cy="399.9" r="5"/><circle cx="622.2" cy="424.5" r="5"/><circle cx="622.2" cy="449.2" r="5"/><circle cx="622.2" cy="473.9" r="5"/><circle cx="622.2" cy="498.5" r="5"/><circle cx="622.2" cy="523.2" r="5"/><circle cx="622.2" cy="547.9" r="5"/><circle cx="622.2" cy="572.5" r="5"/><circle cx="597.5" cy="5.2" r="5"/><circle cx="597.5" cy="29.9" r="5"/><circle cx="597.5" cy="54.5" r="5"/><circle cx="597.5" cy="79.2" r="5"/><circle cx="597.5" cy="103.9" r="5"/><circle cx="597.5" cy="128.5" r="5"/><circle cx="597.5" cy="153.2" r="5"/><circle cx="597.5" cy="177.9" r="5"/><circle cx="597.5" cy="202.5" r="5"/><circle cx="597.5" cy="227.2" r="5"/><circle cx="597.5" cy="251.9" r="5"/><circle cx="597.5" cy="276.5" r="5"/><circle cx="597.5" cy="301.2" r="5"/><circle cx="597.5" cy="325.9" r="5"/><circle cx="597.5" cy="350.5" r="5"/><circle cx="597.5" cy="375.2" r="5"/><circle cx="597.5" cy="399.9" r="5"/><circle cx="597.5" cy="424.5" r="5"/><circle cx="597.5" cy="449.2" r="5"/><circle cx="597.5" cy="473.9" r="5"/><circle cx="597.5" cy="498.5" r="5"/><circle cx="597.5" cy="523.2" r="5"/><circle cx="597.5" cy="547.9" r="5"/><circle cx="597.5" cy="572.5" r="5"/><circle cx="572.8" cy="5.2" r="5"/><circle cx="572.8" cy="29.9" r="5"/><circle cx="572.8" cy="54.5" r="5"/><circle cx="572.8" cy="79.2" r="5"/><circle cx="572.8" cy="103.9" r="5"/><circle cx="572.8" cy="128.5" r="5"/><circle cx="572.8" cy="153.2" r="5"/><circle cx="572.8" cy="177.9" r="5"/><circle cx="572.8" cy="202.5" r="5"/><circle cx="572.8" cy="227.2" r="5"/><circle cx="572.8" cy="251.9" r="5"/><circle cx="572.8" cy="276.5" r="5"/><circle cx="572.8" cy="301.2" r="5"/><circle cx="572.8" cy="325.9" r="5"/><circle cx="572.8" cy="350.5" r="5"/><circle cx="572.8" cy="375.2" r="5"/><circle cx="572.8" cy="399.9" r="5"/><circle cx="572.8" cy="424.5" r="5"/><circle cx="572.8" cy="449.2" r="5"/><circle cx="572.8" cy="473.9" r="5"/><circle cx="572.8" cy="498.5" r="5"/><circle cx="572.8" cy="523.2" r="5"/><circle cx="572.8" cy="547.9" r="5"/><circle cx="572.8" cy="572.5" r="5"/><circle cx="548.2" cy="5.2" r="5"/><circle cx="548.2" cy="29.9" r="5"/><circle cx="548.2" cy="54.5" r="5"/><circle cx="548.2" cy="79.2" r="5"/><circle cx="548.2" cy="103.9" r="5"/><circle cx="548.2" cy="128.5" r="5"/><circle cx="548.2" cy="153.2" r="5"/><circle cx="548.2" cy="177.9" r="5"/><circle cx="548.2" cy="202.5" r="5"/><circle cx="548.2" cy="227.2" r="5"/><circle cx="548.2" cy="251.9" r="5"/><circle cx="548.2" cy="276.5" r="5"/><circle cx="548.2" cy="301.2" r="5"/><circle cx="548.2" cy="325.9" r="5"/><circle cx="548.2" cy="350.5" r="5"/><circle cx="548.2" cy="375.2" r="5"/><circle cx="548.2" cy="399.9" r="5"/><circle cx="548.2" cy="424.5" r="5"/><circle cx="548.2" cy="449.2" r="5"/><circle cx="548.2" cy="473.9" r="5"/><circle cx="548.2" cy="498.5" r="5"/><circle cx="548.2" cy="523.2" r="5"/><circle cx="548.2" cy="547.9" r="5"/><circle cx="548.2" cy="572.5" r="5"/><circle cx="523.5" cy="5.2" r="5"/><circle cx="523.5" cy="29.9" r="5"/><circle cx="523.5" cy="54.5" r="5"/><circle cx="523.5" cy="79.2" r="5"/><circle cx="523.5" cy="103.9" r="5"/><circle cx="523.5" cy="128.5" r="5"/><circle cx="523.5" cy="153.2" r="5"/><circle cx="523.5" cy="177.9" r="5"/><circle cx="523.5" cy="202.5" r="5"/><circle cx="523.5" cy="227.2" r="5"/><circle cx="523.5" cy="251.9" r="5"/><circle cx="523.5" cy="276.5" r="5"/><circle cx="523.5" cy="301.2" r="5"/><circle cx="523.5" cy="325.9" r="5"/><circle cx="523.5" cy="350.5" r="5"/><circle cx="523.5" cy="375.2" r="5"/><circle cx="523.5" cy="399.9" r="5"/><circle cx="523.5" cy="424.5" r="5"/><circle cx="523.5" cy="449.2" r="5"/><circle cx="523.5" cy="473.9" r="5"/><circle cx="523.5" cy="498.5" r="5"/><circle cx="523.5" cy="523.2" r="5"/><circle cx="523.5" cy="547.9" r="5"/><circle cx="523.5" cy="572.5" r="5"/><circle cx="498.8" cy="5.2" r="5"/><circle cx="498.8" cy="29.9" r="5"/><circle cx="498.8" cy="54.5" r="5"/><circle cx="498.8" cy="79.2" r="5"/><circle cx="498.8" cy="103.9" r="5"/><circle cx="498.8" cy="128.5" r="5"/><circle cx="498.8" cy="153.2" r="5"/><circle cx="498.8" cy="177.9" r="5"/><circle cx="498.8" cy="202.5" r="5"/><circle cx="498.8" cy="227.2" r="5"/><circle cx="498.8" cy="251.9" r="5"/><circle cx="498.8" cy="276.5" r="5"/><circle cx="498.8" cy="301.2" r="5"/><circle cx="498.8" cy="325.9" r="5"/><circle cx="498.8" cy="350.5" r="5"/><circle cx="498.8" cy="375.2" r="5"/><circle cx="498.8" cy="399.9" r="5"/><circle cx="498.8" cy="424.5" r="5"/><circle cx="498.8" cy="449.2" r="5"/><circle cx="498.8" cy="473.9" r="5"/><circle cx="498.8" cy="498.5" r="5"/><circle cx="498.8" cy="523.2" r="5"/><circle cx="498.8" cy="547.9" r="5"/><circle cx="498.8" cy="572.5" r="5"/><circle cx="474.2" cy="5.2" r="5"/><circle cx="474.2" cy="29.9" r="5"/><circle cx="474.2" cy="54.5" r="5"/><circle cx="474.2" cy="79.2" r="5"/><circle cx="474.2" cy="103.9" r="5"/><circle cx="474.2" cy="128.5" r="5"/><circle cx="474.2" cy="153.2" r="5"/><circle cx="474.2" cy="177.9" r="5"/><circle cx="474.2" cy="202.5" r="5"/><circle cx="474.2" cy="227.2" r="5"/><circle cx="474.2" cy="251.9" r="5"/><circle cx="474.2" cy="276.5" r="5"/><circle cx="474.2" cy="301.2" r="5"/><circle cx="474.2" cy="325.9" r="5"/><circle cx="474.2" cy="350.5" r="5"/><circle cx="474.2" cy="375.2" r="5"/><circle cx="474.2" cy="399.9" r="5"/><circle cx="474.2" cy="424.5" r="5"/><circle cx="474.2" cy="449.2" r="5"/><circle cx="474.2" cy="473.9" r="5"/><circle cx="474.2" cy="498.5" r="5"/><circle cx="474.2" cy="523.2" r="5"/><circle cx="474.2" cy="547.9" r="5"/><circle cx="474.2" cy="572.5" r="5"/><circle cx="449.5" cy="5.2" r="5"/><circle cx="449.5" cy="29.9" r="5"/><circle cx="449.5" cy="54.5" r="5"/><circle cx="449.5" cy="79.2" r="5"/><circle cx="449.5" cy="103.9" r="5"/><circle cx="449.5" cy="128.5" r="5"/><circle cx="449.5" cy="153.2" r="5"/><circle cx="449.5" cy="177.9" r="5"/><circle cx="449.5" cy="202.5" r="5"/><circle cx="449.5" cy="227.2" r="5"/><circle cx="449.5" cy="251.9" r="5"/><circle cx="449.5" cy="276.5" r="5"/><circle cx="449.5" cy="301.2" r="5"/><circle cx="449.5" cy="325.9" r="5"/><circle cx="449.5" cy="350.5" r="5"/><circle cx="449.5" cy="375.2" r="5"/><circle cx="449.5" cy="399.9" r="5"/><circle cx="449.5" cy="424.5" r="5"/><circle cx="449.5" cy="449.2" r="5"/><circle cx="449.5" cy="473.9" r="5"/><circle cx="449.5" cy="498.5" r="5"/><circle cx="449.5" cy="523.2" r="5"/><circle cx="449.5" cy="547.9" r="5"/><circle cx="449.5" cy="572.5" r="5"/><circle cx="424.8" cy="5.2" r="5"/><circle cx="424.8" cy="29.9" r="5"/><circle cx="424.8" cy="54.5" r="5"/><circle cx="424.8" cy="79.2" r="5"/><circle cx="424.8" cy="103.9" r="5"/><circle cx="424.8" cy="128.5" r="5"/><circle cx="424.8" cy="153.2" r="5"/><circle cx="424.8" cy="177.9" r="5"/><circle cx="424.8" cy="202.5" r="5"/><circle cx="424.8" cy="227.2" r="5"/><circle cx="424.8" cy="251.9" r="5"/><circle cx="424.8" cy="276.5" r="5"/><circle cx="424.8" cy="301.2" r="5"/><circle cx="424.8" cy="325.9" r="5"/><circle cx="424.8" cy="350.5" r="5"/><circle cx="424.8" cy="375.2" r="5"/><circle cx="424.8" cy="399.9" r="5"/><circle cx="424.8" cy="424.5" r="5"/><circle cx="424.8" cy="449.2" r="5"/><circle cx="424.8" cy="473.9" r="5"/><circle cx="424.8" cy="498.5" r="5"/><circle cx="424.8" cy="523.2" r="5"/><circle cx="424.8" cy="547.9" r="5"/><circle cx="424.8" cy="572.5" r="5"/><circle cx="400.2" cy="5.2" r="5"/><circle cx="400.2" cy="29.9" r="5"/><circle cx="400.2" cy="54.5" r="5"/><circle cx="400.2" cy="79.2" r="5"/><circle cx="400.2" cy="103.9" r="5"/><circle cx="400.2" cy="128.5" r="5"/><circle cx="400.2" cy="153.2" r="5"/><circle cx="400.2" cy="177.9" r="5"/><circle cx="400.2" cy="202.5" r="5"/><circle cx="400.2" cy="227.2" r="5"/><circle cx="400.2" cy="251.9" r="5"/><circle cx="400.2" cy="276.5" r="5"/><circle cx="400.2" cy="301.2" r="5"/><circle cx="400.2" cy="325.9" r="5"/><circle cx="400.2" cy="350.5" r="5"/><circle cx="400.2" cy="375.2" r="5"/><circle cx="400.2" cy="399.9" r="5"/><circle cx="400.2" cy="424.5" r="5"/><circle cx="400.2" cy="449.2" r="5"/><circle cx="400.2" cy="473.9" r="5"/><circle cx="400.2" cy="498.5" r="5"/><circle cx="400.2" cy="523.2" r="5"/><circle cx="400.2" cy="547.9" r="5"/><circle cx="400.2" cy="572.5" r="5"/><circle cx="375.5" cy="5.2" r="5"/><circle cx="375.5" cy="29.9" r="5"/><circle cx="375.5" cy="54.5" r="5"/><circle cx="375.5" cy="79.2" r="5"/><circle cx="375.5" cy="103.9" r="5"/><circle cx="375.5" cy="128.5" r="5"/><circle cx="375.5" cy="153.2" r="5"/><circle cx="375.5" cy="177.9" r="5"/><circle cx="375.5" cy="202.5" r="5"/><circle cx="375.5" cy="227.2" r="5"/><circle cx="375.5" cy="251.9" r="5"/><circle cx="375.5" cy="276.5" r="5"/><circle cx="375.5" cy="301.2" r="5"/><circle cx="375.5" cy="325.9" r="5"/><circle cx="375.5" cy="350.5" r="5"/><circle cx="375.5" cy="375.2" r="5"/><circle cx="375.5" cy="399.9" r="5"/><circle cx="375.5" cy="424.5" r="5"/><circle cx="375.5" cy="449.2" r="5"/><circle cx="375.5" cy="473.9" r="5"/><circle cx="375.5" cy="498.5" r="5"/><circle cx="375.5" cy="523.2" r="5"/><circle cx="375.5" cy="547.9" r="5"/><circle cx="375.5" cy="572.5" r="5"/><circle cx="350.8" cy="5.2" r="5"/><circle cx="350.8" cy="29.9" r="5"/><circle cx="350.8" cy="54.5" r="5"/><circle cx="350.8" cy="79.2" r="5"/><circle cx="350.8" cy="103.9" r="5"/><circle cx="350.8" cy="128.5" r="5"/><circle cx="350.8" cy="153.2" r="5"/><circle cx="350.8" cy="177.9" r="5"/><circle cx="350.8" cy="202.5" r="5"/><circle cx="350.8" cy="227.2" r="5"/><circle cx="350.8" cy="251.9" r="5"/><circle cx="350.8" cy="276.5" r="5"/><circle cx="350.8" cy="301.2" r="5"/><circle cx="350.8" cy="325.9" r="5"/><circle cx="350.8" cy="350.5" r="5"/><circle cx="350.8" cy="375.2" r="5"/><circle cx="350.8" cy="399.9" r="5"/><circle cx="350.8" cy="424.5" r="5"/><circle cx="350.8" cy="449.2" r="5"/><circle cx="350.8" cy="473.9" r="5"/><circle cx="350.8" cy="498.5" r="5"/><circle cx="350.8" cy="523.2" r="5"/><circle cx="350.8" cy="547.9" r="5"/><circle cx="350.8" cy="572.5" r="5"/><circle cx="326.2" cy="5.2" r="5"/><circle cx="326.2" cy="29.9" r="5"/><circle cx="326.2" cy="54.5" r="5"/><circle cx="326.2" cy="79.2" r="5"/><circle cx="326.2" cy="103.9" r="5"/><circle cx="326.2" cy="128.5" r="5"/><circle cx="326.2" cy="153.2" r="5"/><circle cx="326.2" cy="177.9" r="5"/><circle cx="326.2" cy="202.5" r="5"/><circle cx="326.2" cy="227.2" r="5"/><circle cx="326.2" cy="251.9" r="5"/><circle cx="326.2" cy="276.5" r="5"/><circle cx="326.2" cy="301.2" r="5"/><circle cx="326.2" cy="325.9" r="5"/><circle cx="326.2" cy="350.5" r="5"/><circle cx="326.2" cy="375.2" r="5"/><circle cx="326.2" cy="399.9" r="5"/><circle cx="326.2" cy="424.5" r="5"/><circle cx="326.2" cy="449.2" r="5"/><circle cx="326.2" cy="473.9" r="5"/><circle cx="326.2" cy="498.5" r="5"/><circle cx="326.2" cy="523.2" r="5"/><circle cx="326.2" cy="547.9" r="5"/><circle cx="326.2" cy="572.5" r="5"/><circle cx="301.5" cy="5.2" r="5"/><circle cx="301.5" cy="29.9" r="5"/><circle cx="301.5" cy="54.5" r="5"/><circle cx="301.5" cy="79.2" r="5"/><circle cx="301.5" cy="103.9" r="5"/><circle cx="301.5" cy="128.5" r="5"/><circle cx="301.5" cy="153.2" r="5"/><circle cx="301.5" cy="177.9" r="5"/><circle cx="301.5" cy="202.5" r="5"/><circle cx="301.5" cy="227.2" r="5"/><circle cx="301.5" cy="251.9" r="5"/><circle cx="301.5" cy="276.5" r="5"/><circle cx="301.5" cy="301.2" r="5"/><circle cx="301.5" cy="325.9" r="5"/><circle cx="301.5" cy="350.5" r="5"/><circle cx="301.5" cy="375.2" r="5"/><circle cx="301.5" cy="399.9" r="5"/><circle cx="301.5" cy="424.5" r="5"/><circle cx="301.5" cy="449.2" r="5"/><circle cx="301.5" cy="473.9" r="5"/><circle cx="301.5" cy="498.5" r="5"/><circle cx="301.5" cy="523.2" r="5"/><circle cx="301.5" cy="547.9" r="5"/><circle cx="301.5" cy="572.5" r="5"/><circle cx="276.8" cy="5.2" r="5"/><circle cx="276.8" cy="29.9" r="5"/><circle cx="276.8" cy="54.5" r="5"/><circle cx="276.8" cy="79.2" r="5"/><circle cx="276.8" cy="103.9" r="5"/><circle cx="276.8" cy="128.5" r="5"/><circle cx="276.8" cy="153.2" r="5"/><circle cx="276.8" cy="177.9" r="5"/><circle cx="276.8" cy="202.5" r="5"/><circle cx="276.8" cy="227.2" r="5"/><circle cx="276.8" cy="251.9" r="5"/><circle cx="276.8" cy="276.5" r="5"/><circle cx="276.8" cy="301.2" r="5"/><circle cx="276.8" cy="325.9" r="5"/><circle cx="276.8" cy="350.5" r="5"/><circle cx="276.8" cy="375.2" r="5"/><circle cx="276.8" cy="399.9" r="5"/><circle cx="276.8" cy="424.5" r="5"/><circle cx="276.8" cy="449.2" r="5"/><circle cx="276.8" cy="473.9" r="5"/><circle cx="276.8" cy="498.5" r="5"/><circle cx="276.8" cy="523.2" r="5"/><circle cx="276.8" cy="547.9" r="5"/><circle cx="276.8" cy="572.5" r="5"/><circle cx="252.2" cy="5.2" r="5"/><circle cx="252.2" cy="29.9" r="5"/><circle cx="252.2" cy="54.5" r="5"/><circle cx="252.2" cy="79.2" r="5"/><circle cx="252.2" cy="103.9" r="5"/><circle cx="252.2" cy="128.5" r="5"/><circle cx="252.2" cy="153.2" r="5"/><circle cx="252.2" cy="177.9" r="5"/><circle cx="252.2" cy="202.5" r="5"/><circle cx="252.2" cy="227.2" r="5"/><circle cx="252.2" cy="251.9" r="5"/><circle cx="252.2" cy="276.5" r="5"/><circle cx="252.2" cy="301.2" r="5"/><circle cx="252.2" cy="325.9" r="5"/><circle cx="252.2" cy="350.5" r="5"/><circle cx="252.2" cy="375.2" r="5"/><circle cx="252.2" cy="399.9" r="5"/><circle cx="252.2" cy="424.5" r="5"/><circle cx="252.2" cy="449.2" r="5"/><circle cx="252.2" cy="473.9" r="5"/><circle cx="252.2" cy="498.5" r="5"/><circle cx="252.2" cy="523.2" r="5"/><circle cx="252.2" cy="547.9" r="5"/><circle cx="252.2" cy="572.5" r="5"/><circle cx="227.5" cy="5.2" r="5"/><circle cx="227.5" cy="29.9" r="5"/><circle cx="227.5" cy="54.5" r="5"/><circle cx="227.5" cy="79.2" r="5"/><circle cx="227.5" cy="103.9" r="5"/><circle cx="227.5" cy="128.5" r="5"/><circle cx="227.5" cy="153.2" r="5"/><circle cx="227.5" cy="177.9" r="5"/><circle cx="227.5" cy="202.5" r="5"/><circle cx="227.5" cy="227.2" r="5"/><circle cx="227.5" cy="251.9" r="5"/><circle cx="227.5" cy="276.5" r="5"/><circle cx="227.5" cy="301.2" r="5"/><circle cx="227.5" cy="325.9" r="5"/><circle cx="227.5" cy="350.5" r="5"/><circle cx="227.5" cy="375.2" r="5"/><circle cx="227.5" cy="399.9" r="5"/><circle cx="227.5" cy="424.5" r="5"/><circle cx="227.5" cy="449.2" r="5"/><circle cx="227.5" cy="473.9" r="5"/><circle cx="227.5" cy="498.5" r="5"/><circle cx="227.5" cy="523.2" r="5"/><circle cx="227.5" cy="547.9" r="5"/><circle cx="227.5" cy="572.5" r="5"/><circle cx="202.8" cy="5.2" r="5"/><circle cx="202.8" cy="29.9" r="5"/><circle cx="202.8" cy="54.5" r="5"/><circle cx="202.8" cy="79.2" r="5"/><circle cx="202.8" cy="103.9" r="5"/><circle cx="202.8" cy="128.5" r="5"/><circle cx="202.8" cy="153.2" r="5"/><circle cx="202.8" cy="177.9" r="5"/><circle cx="202.8" cy="202.5" r="5"/><circle cx="202.8" cy="227.2" r="5"/><circle cx="202.8" cy="251.9" r="5"/><circle cx="202.8" cy="276.5" r="5"/><circle cx="202.8" cy="301.2" r="5"/><circle cx="202.8" cy="325.9" r="5"/><circle cx="202.8" cy="350.5" r="5"/><circle cx="202.8" cy="375.2" r="5"/><circle cx="202.8" cy="399.9" r="5"/><circle cx="202.8" cy="424.5" r="5"/><circle cx="202.8" cy="449.2" r="5"/><circle cx="202.8" cy="473.9" r="5"/><circle cx="202.8" cy="498.5" r="5"/><circle cx="202.8" cy="523.2" r="5"/><circle cx="202.8" cy="547.9" r="5"/><circle cx="202.8" cy="572.5" r="5"/><circle cx="178.2" cy="5.2" r="5"/><circle cx="178.2" cy="29.9" r="5"/><circle cx="178.2" cy="54.5" r="5"/><circle cx="178.2" cy="79.2" r="5"/><circle cx="178.2" cy="103.9" r="5"/><circle cx="178.2" cy="128.5" r="5"/><circle cx="178.2" cy="153.2" r="5"/><circle cx="178.2" cy="177.9" r="5"/><circle cx="178.2" cy="202.5" r="5"/><circle cx="178.2" cy="227.2" r="5"/><circle cx="178.2" cy="251.9" r="5"/><circle cx="178.2" cy="276.5" r="5"/><circle cx="178.2" cy="301.2" r="5"/><circle cx="178.2" cy="325.9" r="5"/><circle cx="178.2" cy="350.5" r="5"/><circle cx="178.2" cy="375.2" r="5"/><circle cx="178.2" cy="399.9" r="5"/><circle cx="178.2" cy="424.5" r="5"/><circle cx="178.2" cy="449.2" r="5"/><circle cx="178.2" cy="473.9" r="5"/><circle cx="178.2" cy="498.5" r="5"/><circle cx="178.2" cy="523.2" r="5"/><circle cx="178.2" cy="547.9" r="5"/><circle cx="178.2" cy="572.5" r="5"/><circle cx="153.5" cy="5.2" r="5"/><circle cx="153.5" cy="29.9" r="5"/><circle cx="153.5" cy="54.5" r="5"/><circle cx="153.5" cy="79.2" r="5"/><circle cx="153.5" cy="103.9" r="5"/><circle cx="153.5" cy="128.5" r="5"/><circle cx="153.5" cy="153.2" r="5"/><circle cx="153.5" cy="177.9" r="5"/><circle cx="153.5" cy="202.5" r="5"/><circle cx="153.5" cy="227.2" r="5"/><circle cx="153.5" cy="251.9" r="5"/><circle cx="153.5" cy="276.5" r="5"/><circle cx="153.5" cy="301.2" r="5"/><circle cx="153.5" cy="325.9" r="5"/><circle cx="153.5" cy="350.5" r="5"/><circle cx="153.5" cy="375.2" r="5"/><circle cx="153.5" cy="399.9" r="5"/><circle cx="153.5" cy="424.5" r="5"/><circle cx="153.5" cy="449.2" r="5"/><circle cx="153.5" cy="473.9" r="5"/><circle cx="153.5" cy="498.5" r="5"/><circle cx="153.5" cy="523.2" r="5"/><circle cx="153.5" cy="547.9" r="5"/><circle cx="153.5" cy="572.5" r="5"/><circle cx="128.8" cy="5.2" r="5"/><circle cx="128.8" cy="29.9" r="5"/><circle cx="128.8" cy="54.5" r="5"/><circle cx="128.8" cy="79.2" r="5"/><circle cx="128.8" cy="103.9" r="5"/><circle cx="128.8" cy="128.5" r="5"/><circle cx="128.8" cy="153.2" r="5"/><circle cx="128.8" cy="177.9" r="5"/><circle cx="128.8" cy="202.5" r="5"/><circle cx="128.8" cy="227.2" r="5"/><circle cx="128.8" cy="251.9" r="5"/><circle cx="128.8" cy="276.5" r="5"/><circle cx="128.8" cy="301.2" r="5"/><circle cx="128.8" cy="325.9" r="5"/><circle cx="128.8" cy="350.5" r="5"/><circle cx="128.8" cy="375.2" r="5"/><circle cx="128.8" cy="399.9" r="5"/><circle cx="128.8" cy="424.5" r="5"/><circle cx="128.8" cy="449.2" r="5"/><circle cx="128.8" cy="473.9" r="5"/><circle cx="128.8" cy="498.5" r="5"/><circle cx="128.8" cy="523.2" r="5"/><circle cx="128.8" cy="547.9" r="5"/><circle cx="128.8" cy="572.5" r="5"/><circle cx="104.2" cy="5.2" r="5"/><circle cx="104.2" cy="29.9" r="5"/><circle cx="104.2" cy="54.5" r="5"/><circle cx="104.2" cy="79.2" r="5"/><circle cx="104.2" cy="103.9" r="5"/><circle cx="104.2" cy="128.5" r="5"/><circle cx="104.2" cy="153.2" r="5"/><circle cx="104.2" cy="177.9" r="5"/><circle cx="104.2" cy="202.5" r="5"/><circle cx="104.2" cy="227.2" r="5"/><circle cx="104.2" cy="251.9" r="5"/><circle cx="104.2" cy="276.5" r="5"/><circle cx="104.2" cy="301.2" r="5"/><circle cx="104.2" cy="325.9" r="5"/><circle cx="104.2" cy="350.5" r="5"/><circle cx="104.2" cy="375.2" r="5"/><circle cx="104.2" cy="399.9" r="5"/><circle cx="104.2" cy="424.5" r="5"/><circle cx="104.2" cy="449.2" r="5"/><circle cx="104.2" cy="473.9" r="5"/><circle cx="104.2" cy="498.5" r="5"/><circle cx="104.2" cy="523.2" r="5"/><circle cx="104.2" cy="547.9" r="5"/><circle cx="104.2" cy="572.5" r="5"/><circle cx="79.5" cy="5.2" r="5"/><circle cx="79.5" cy="29.9" r="5"/><circle cx="79.5" cy="54.5" r="5"/><circle cx="79.5" cy="79.2" r="5"/><circle cx="79.5" cy="103.9" r="5"/><circle cx="79.5" cy="128.5" r="5"/><circle cx="79.5" cy="153.2" r="5"/><circle cx="79.5" cy="177.9" r="5"/><circle cx="79.5" cy="202.5" r="5"/><circle cx="79.5" cy="227.2" r="5"/><circle cx="79.5" cy="251.9" r="5"/><circle cx="79.5" cy="276.5" r="5"/><circle cx="79.5" cy="301.2" r="5"/><circle cx="79.5" cy="325.9" r="5"/><circle cx="79.5" cy="350.5" r="5"/><circle cx="79.5" cy="375.2" r="5"/><circle cx="79.5" cy="399.9" r="5"/><circle cx="79.5" cy="424.5" r="5"/><circle cx="79.5" cy="449.2" r="5"/><circle cx="79.5" cy="473.9" r="5"/><circle cx="79.5" cy="498.5" r="5"/><circle cx="79.5" cy="523.2" r="5"/><circle cx="79.5" cy="547.9" r="5"/><circle cx="79.5" cy="572.5" r="5"/><circle cx="54.8" cy="5.2" r="5"/><circle cx="54.8" cy="29.9" r="5"/><circle cx="54.8" cy="54.5" r="5"/><circle cx="54.8" cy="79.2" r="5"/><circle cx="54.8" cy="103.9" r="5"/><circle cx="54.8" cy="128.5" r="5"/><circle cx="54.8" cy="153.2" r="5"/><circle cx="54.8" cy="177.9" r="5"/><circle cx="54.8" cy="202.5" r="5"/><circle cx="54.8" cy="227.2" r="5"/><circle cx="54.8" cy="251.9" r="5"/><circle cx="54.8" cy="276.5" r="5"/><circle cx="54.8" cy="301.2" r="5"/><circle cx="54.8" cy="325.9" r="5"/><circle cx="54.8" cy="350.5" r="5"/><circle cx="54.8" cy="375.2" r="5"/><circle cx="54.8" cy="399.9" r="5"/><circle cx="54.8" cy="424.5" r="5"/><circle cx="54.8" cy="449.2" r="5"/><circle cx="54.8" cy="473.9" r="5"/><circle cx="54.8" cy="498.5" r="5"/><circle cx="54.8" cy="523.2" r="5"/><circle cx="54.8" cy="547.9" r="5"/><circle cx="54.8" cy="572.5" r="5"/><circle cx="30.2" cy="5.2" r="5"/><circle cx="30.2" cy="29.9" r="5"/><circle cx="30.2" cy="54.5" r="5"/><circle cx="30.2" cy="79.2" r="5"/><circle cx="30.2" cy="103.9" r="5"/><circle cx="30.2" cy="128.5" r="5"/><circle cx="30.2" cy="153.2" r="5"/><circle cx="30.2" cy="177.9" r="5"/><circle cx="30.2" cy="202.5" r="5"/><circle cx="30.2" cy="227.2" r="5"/><circle cx="30.2" cy="251.9" r="5"/><circle cx="30.2" cy="276.5" r="5"/><circle cx="30.2" cy="301.2" r="5"/><circle cx="30.2" cy="325.9" r="5"/><circle cx="30.2" cy="350.5" r="5"/><circle cx="30.2" cy="375.2" r="5"/><circle cx="30.2" cy="399.9" r="5"/><circle cx="30.2" cy="424.5" r="5"/><circle cx="30.2" cy="449.2" r="5"/><circle cx="30.2" cy="473.9" r="5"/><circle cx="30.2" cy="498.5" r="5"/><circle cx="30.2" cy="523.2" r="5"/><circle cx="30.2" cy="547.9" r="5"/><circle cx="30.2" cy="572.5" r="5"/><circle cx="5.5" cy="5.2" r="5"/><circle cx="5.5" cy="29.9" r="5"/><circle cx="5.5" cy="54.5" r="5"/><circle cx="5.5" cy="79.2" r="5"/><circle cx="5.5" cy="103.9" r="5"/><circle cx="5.5" cy="128.5" r="5"/><circle cx="5.5" cy="153.2" r="5"/><circle cx="5.5" cy="177.9" r="5"/><circle cx="5.5" cy="202.5" r="5"/><circle cx="5.5" cy="227.2" r="5"/><circle cx="5.5" cy="251.9" r="5"/><circle cx="5.5" cy="276.5" r="5"/><circle cx="5.5" cy="301.2" r="5"/><circle cx="5.5" cy="325.9" r="5"/><circle cx="5.5" cy="350.5" r="5"/><circle cx="5.5" cy="375.2" r="5"/><circle cx="5.5" cy="399.9" r="5"/><circle cx="5.5" cy="424.5" r="5"/><circle cx="5.5" cy="449.2" r="5"/><circle cx="5.5" cy="473.9" r="5"/><circle cx="5.5" cy="498.5" r="5"/><circle cx="5.5" cy="523.2" r="5"/><circle cx="5.5" cy="547.9" r="5"/><circle cx="5.5" cy="572.5" r="5"/></g><g transform="translate(818.000000, 2.000000)"><g fill-rule="nonzero"><rect id="Rectangle" width="658.4" height="558.6" x="5.1" y="5.6" fill="#F3F6E6"/><path id="Shape" fill="#383A48" d="M663.5,569.1 L5.1,569.1 C2.3,569.1 0.1,566.9 0.1,564.1 L0.1,5.6 C0.1,2.8 2.3,0.6 5.1,0.6 L663.5,0.6 C666.3,0.6 668.5,2.8 668.5,5.6 L668.5,564.2 C668.5,566.9 666.3,569.1 663.5,569.1 Z M10.1,559.1 L658.5,559.1 L658.5,10.6 L10.1,10.6 L10.1,559.1 Z"/></g><path id="Path" fill="#EEBED3" fill-rule="nonzero" d="M515.1,398.4 L202.8,398.4 C158.8,398.4 123.1,362.7 123.1,318.7 L123.1,318.7 C123.1,274.7 158.8,239 202.8,239 L515.1,239 C559.1,239 594.8,274.7 594.8,318.7 L594.8,318.7 C594.8,362.7 559.1,398.4 515.1,398.4 Z"/><g fill-rule="nonzero"><rect id="Rectangle" width="658.4" height="158.3" x="5.1" y="5.6" fill="#AAC6FC"/><path id="Shape" fill="#383A48" d="M663.5,168.9 L5.1,168.9 C2.3,168.9 0.1,166.7 0.1,163.9 L0.1,5.6 C0.1,2.8 2.3,0.6 5.1,0.6 L663.5,0.6 C666.3,0.6 668.5,2.8 668.5,5.6 L668.5,163.9 C668.5,166.6 666.3,168.9 663.5,168.9 Z M10.1,158.9 L658.5,158.9 L658.5,10.6 L10.1,10.6 L10.1,158.9 Z"/></g><g transform="translate(482.000000, 67.000000)"><g><g transform="translate(97.000000, 2.000000)"><line id="Path" x1="4.1" x2="27.4" y1="4.1" y2="27.4"/><rect id="Rectangle" width="10" height="33" x="10.774" y="-.808" fill="#383A48" fill-rule="nonzero" transform="translate(15.774350, 15.691790) rotate(-45.000000) translate(-15.774350, -15.691790)"/></g><g transform="translate(97.000000, 2.000000)"><line id="Path" x1="4.1" x2="27.4" y1="27.4" y2="4.1"/><rect id="Rectangle" width="33" height="10" x="-.725" y="10.692" fill="#383A48" fill-rule="nonzero" transform="translate(15.774350, 15.691790) rotate(-45.000000) translate(-15.774350, -15.691790)"/></g></g><path id="Shape" fill="#383A48" fill-rule="nonzero" d="M81.3,35.4 L45.8,35.4 L45.8,0 L81.3,0 L81.3,35.4 Z M55.9,25.4 L71.4,25.4 L71.4,10 L55.9,10 L55.9,25.4 Z"/><rect id="Rectangle" width="25.5" height="10" x=".2" y="25.4" fill="#383A48" fill-rule="nonzero"/></g><path id="Path" fill="#EEBED3" fill-rule="nonzero" d="M561.5,510.8 L474.9,510.8 C456.5,510.8 441.6,495.9 441.6,477.5 L441.6,477.5 C441.6,459.1 456.5,444.2 474.9,444.2 L561.5,444.2 C579.9,444.2 594.8,459.1 594.8,477.5 L594.8,477.5 C594.8,495.9 579.9,510.8 561.5,510.8 Z"/></g><path id="Path" fill="#383A48" fill-rule="nonzero" d="M1109,155.7 L823.1,155.7 C820.3,155.7 818.1,157.9 818.1,160.7 L818.1,514.6 C818.1,517.4 820.3,519.6 823.1,519.6 L1109,519.6 C1141.5,519.6 1168,493.1 1168,460.6 L1168,214.7 C1168,182.2 1141.5,155.7 1109,155.7 Z"/><g fill-rule="nonzero" transform="translate(470.000000, 118.000000)"><g><path id="Path" fill="#E0719E" d="M656.2,59 L656.2,304.9 C656.2,334.7 632,358.9 602.2,358.9 L75.9,358.9 L5.8,230.8 L5.8,59 C5.8,29.2 30,5 59.8,5 L602.3,5 C632.1,5 656.2,29.2 656.2,59 Z"/><path id="Shape" fill="#383A48" d="M602.3,363.9 L75.9,363.9 C74.1,363.9 72.4,362.9 71.5,361.3 L1.4,233.2 C1,232.5 0.8,231.6 0.8,230.8 L0.8,59 C0.8,26.5 27.3,0 59.8,0 L602.3,0 C634.8,0 661.3,26.5 661.3,59 L661.3,304.9 C661.2,337.4 634.8,363.9 602.3,363.9 Z M78.9,353.9 L602.3,353.9 C629.3,353.9 651.3,331.9 651.3,304.9 L651.3,59 C651.3,32 629.3,10 602.3,10 L59.8,10 C32.8,10 10.8,32 10.8,59 L10.8,229.5 L78.9,353.9 Z"/></g><g id="Shape" fill="#383A48"><path d="M51,101.8 C22.9,101.8 0.1,79 0.1,50.9 C0.1,22.8 22.9,5.68434189e-14 51,5.68434189e-14 C79.1,5.68434189e-14 101.9,22.8 101.9,50.9 C101.9,79 79.1,101.8 51,101.8 Z M51,10.1 C28.5,10.1 10.1,28.4 10.1,51 C10.1,73.6 28.4,91.9 51,91.9 C73.6,91.9 91.9,73.6 91.9,51 C91.9,28.4 73.5,10.1 51,10.1 Z" transform="translate(404.000000, 72.000000)"/><path d="M115.7,101.8 C87.6,101.8 64.8,79 64.8,50.9 C64.8,22.8 87.6,5.68434189e-14 115.7,5.68434189e-14 C143.8,5.68434189e-14 166.6,22.8 166.6,50.9 C166.6,79 143.7,101.8 115.7,101.8 Z M115.7,10.1 C93.2,10.1 74.8,28.4 74.8,51 C74.8,73.6 93.1,91.9 115.7,91.9 C138.3,91.9 156.6,73.6 156.6,51 C156.6,28.4 138.2,10.1 115.7,10.1 Z" transform="translate(404.000000, 72.000000)"/></g><g fill="#383A48" transform="translate(77.000000, 121.000000)"><path id="Shape" d="M88.2,113.4 L25.5,113.4 C11.7,113.4 0.4,102.1 0.4,88.3 L0.4,25.6 C0.4,11.8 11.7,0.5 25.5,0.5 L88.2,0.5 C102,0.5 113.3,11.8 113.3,25.6 L113.3,88.3 C113.3,102.1 102.1,113.4 88.2,113.4 Z M25.6,10.5 C17.3,10.5 10.5,17.3 10.5,25.6 L10.5,88.3 C10.5,96.6 17.3,103.4 25.6,103.4 L88.3,103.4 C96.6,103.4 103.4,96.6 103.4,88.3 L103.4,25.6 C103.4,17.3 96.6,10.5 88.3,10.5 L25.6,10.5 L25.6,10.5 Z"/><path id="Path" d="M108.3,80.9 L5.5,80.9 C2.7,80.9 0.5,78.7 0.5,75.9 C0.5,73.1 2.7,70.9 5.5,70.9 L108.4,70.9 C111.2,70.9 113.4,73.1 113.4,75.9 C113.4,78.7 111.1,80.9 108.3,80.9 Z"/><path id="Path" d="M31.4,80.9 C28.6,80.9 26.4,78.7 26.4,75.9 L26.4,5.5 C26.4,2.7 28.6,0.5 31.4,0.5 C34.2,0.5 36.4,2.7 36.4,5.5 L36.4,75.9 C36.4,78.6 34.2,80.9 31.4,80.9 Z"/><path id="Path" d="M82.4,80.9 C79.6,80.9 77.4,78.7 77.4,75.9 L77.4,5.5 C77.4,2.7 79.6,0.5 82.4,0.5 C85.2,0.5 87.4,2.7 87.4,5.5 L87.4,75.9 C87.4,78.6 85.2,80.9 82.4,80.9 Z"/><path id="Path" d="M31.4,36.4 L5.4,36.4 C2.6,36.4 0.4,34.2 0.4,31.4 C0.4,28.6 2.6,26.4 5.4,26.4 L31.4,26.4 C34.2,26.4 36.4,28.6 36.4,31.4 C36.4,34.2 34.2,36.4 31.4,36.4 Z"/><path id="Path" d="M31.4,59.1 L5.4,59.1 C2.6,59.1 0.4,56.9 0.4,54.1 C0.4,51.3 2.6,49.1 5.4,49.1 L31.4,49.1 C34.2,49.1 36.4,51.3 36.4,54.1 C36.4,56.9 34.2,59.1 31.4,59.1 Z"/><path id="Path" d="M108.3,36.4 L82.3,36.4 C79.5,36.4 77.3,34.2 77.3,31.4 C77.3,28.6 79.5,26.4 82.3,26.4 L108.3,26.4 C111.1,26.4 113.3,28.6 113.3,31.4 C113.3,34.2 111.1,36.4 108.3,36.4 Z"/><path id="Path" d="M108.3,59.1 L82.3,59.1 C79.5,59.1 77.3,56.9 77.3,54.1 C77.3,51.3 79.5,49.1 82.3,49.1 L108.3,49.1 C111.1,49.1 113.3,51.3 113.3,54.1 C113.3,56.9 111.1,59.1 108.3,59.1 Z"/></g><g fill="#383A48"><g transform="translate(93.000000, 284.000000)"><path id="Path" d="M86,15.9 L10.6,15.9 C7.8,15.9 5.5,13.6 5.5,10.8 L5.5,10.5 C5.5,7.7 7.8,5.4 10.6,5.4 L86,5.4 C88.8,5.4 91.1,7.7 91.1,10.5 L91.1,10.8 C91.1,13.6 88.8,15.9 86,15.9 Z"/><path id="Shape" d="M86,20.9 L10.6,20.9 C5,20.9 0.5,16.4 0.5,10.8 L0.5,10.5 C0.5,4.9 5,0.4 10.6,0.4 L86,0.4 C91.6,0.4 96.1,4.9 96.1,10.5 L96.1,10.8 C96.1,16.4 91.6,20.9 86,20.9 Z M10.5,10.4 C10.4,10.4 10.4,10.4 10.5,10.4 L10.4,10.8 C10.4,10.9 10.4,10.9 10.5,10.9 L86,10.9 C86.1,10.9 86.1,10.9 86.1,10.8 L86.1,10.5 C86.1,10.4 86.1,10.4 86,10.4 L10.5,10.4 Z"/></g><g transform="translate(93.000000, 284.000000) translate(126.000000, 0.000000)"><path id="Path" d="M86.5,15.9 L11,15.9 C8.2,15.9 5.9,13.6 5.9,10.8 L5.9,10.5 C5.9,7.7 8.2,5.4 11,5.4 L86.4,5.4 C89.2,5.4 91.5,7.7 91.5,10.5 L91.5,10.8 C91.6,13.6 89.3,15.9 86.5,15.9 Z"/><path id="Shape" d="M86.5,20.9 L11,20.9 C5.4,20.9 0.9,16.4 0.9,10.8 L0.9,10.5 C0.9,4.9 5.4,0.4 11,0.4 L86.4,0.4 C92,0.4 96.5,4.9 96.5,10.5 L96.5,10.8 C96.6,16.4 92.1,20.9 86.5,20.9 Z M11,10.4 C10.9,10.4 10.9,10.4 11,10.4 L10.9,10.8 C10.9,10.9 10.9,10.9 11,10.9 L86.4,10.9 C86.5,10.9 86.5,10.9 86.5,10.8 L86.5,10.5 C86.5,10.4 86.5,10.4 86.4,10.4 L11,10.4 Z"/></g><g transform="translate(93.000000, 284.000000) translate(253.000000, 0.000000)"><path id="Path" d="M86,15.9 L10.6,15.9 C7.8,15.9 5.5,13.6 5.5,10.8 L5.5,10.5 C5.5,7.7 7.8,5.4 10.6,5.4 L86,5.4 C88.8,5.4 91.1,7.7 91.1,10.5 L91.1,10.8 C91.1,13.6 88.8,15.9 86,15.9 Z"/><path id="Shape" d="M86,20.9 L10.6,20.9 C5,20.9 0.5,16.4 0.5,10.8 L0.5,10.5 C0.5,4.9 5,0.4 10.6,0.4 L86,0.4 C91.6,0.4 96.1,4.9 96.1,10.5 L96.1,10.8 C96.1,16.4 91.6,20.9 86,20.9 Z M10.5,10.4 C10.4,10.4 10.4,10.4 10.5,10.4 L10.4,10.8 C10.4,10.9 10.4,10.9 10.5,10.9 L85.9,10.9 C86,10.9 86,10.9 86,10.8 L86,10.5 C86,10.4 86,10.4 85.9,10.4 L10.5,10.4 Z"/></g><g transform="translate(93.000000, 284.000000) translate(379.000000, 0.000000)"><path id="Path" d="M86.5,15.9 L11,15.9 C8.2,15.9 5.9,13.6 5.9,10.8 L5.9,10.5 C5.9,7.7 8.2,5.4 11,5.4 L86.4,5.4 C89.2,5.4 91.5,7.7 91.5,10.5 L91.5,10.8 C91.6,13.6 89.3,15.9 86.5,15.9 Z"/><path id="Shape" d="M86.5,20.9 L11,20.9 C5.4,20.9 0.9,16.4 0.9,10.8 L0.9,10.5 C0.9,4.9 5.4,0.4 11,0.4 L86.4,0.4 C92,0.4 96.5,4.9 96.5,10.5 L96.5,10.8 C96.6,16.4 92.1,20.9 86.5,20.9 Z M11,10.4 C10.9,10.4 10.9,10.4 11,10.4 L10.9,10.8 C10.9,10.9 10.9,10.9 11,10.9 L86.4,10.9 C86.5,10.9 86.5,10.9 86.5,10.8 L86.5,10.5 C86.5,10.4 86.5,10.4 86.4,10.4 L11,10.4 Z"/></g></g></g><path id="Path" fill="#F3F6E6" fill-rule="nonzero" d="M477,0 L5.2,0 C2.4,0 0.2,2.2 0.2,5 L0.2,594.8 C0.2,597.4 2.2,599.6 4.8,599.8 C4.9,599.8 5.1,599.8 5.2,599.8 C7.6,599.8 9.7,598.1 10.1,595.7 C26,505.8 90.7,421.8 197.2,352.9 C253,316.8 276.3,250.5 298.9,186.3 C330.8,95.7 360.9,10 477,10 C479.8,10 482,7.8 482,5 C482,2.2 479.8,0 477,0 Z"/><g fill-rule="nonzero"><g transform="translate(102.000000, 186.000000)"><path id="Path" fill="#F6E049" d="M421.9,459.3 L73,459.3 C21.6,459.3 -11.1,404.2 13.6,359.1 L188.1,40.4 C213.8,-6.5 281.2,-6.5 306.8,40.4 L373.8,162.7 L373.8,236.8 C373.8,266.6 398,290.8 427.8,290.8 L444,290.8 L481.4,359.1 C506,404.2 473.4,459.3 421.9,459.3 Z"/><path id="Shape" fill="#383A48" d="M421.9,464.3 L73,464.3 C47.1,464.3 23.7,451 10.5,428.7 C-2.7,406.4 -3.2,379.5 9.3,356.8 L183.7,38 C196.7,14.3 220.5,0.2 247.5,0.2 C274.5,0.2 298.3,14.3 311.3,38 L378.3,160.3 C378.7,161 378.9,161.9 378.9,162.7 L378.9,236.9 C378.9,263.9 400.9,285.9 427.9,285.9 L444.1,285.9 C445.9,285.9 447.6,286.9 448.5,288.5 L485.9,356.8 C498.4,379.5 497.9,406.4 484.7,428.7 C471.2,451 447.9,464.3 421.9,464.3 Z M247.5,10.3 C224.2,10.3 203.7,22.5 192.5,42.9 L18,361.5 C7.3,381.1 7.7,404.3 19.1,423.5 C30.5,442.7 50.7,454.2 73,454.2 L421.9,454.2 C444.3,454.2 464.4,442.7 475.8,423.5 C487.2,404.3 487.6,381.1 476.9,361.5 L441,295.9 L427.8,295.9 C395.3,295.9 368.8,269.4 368.8,236.9 L368.8,164 L302.5,42.8 C291.3,22.4 270.7,10.3 247.5,10.3 Z"/></g><g fill="#383A48" transform="translate(102.000000, 186.000000) translate(216.000000, 123.000000)"><path id="Path" d="M31.5,176.9 L31.5,176.9 C21.8,176.9 13.8,169.4 13.2,159.7 L5.3,33.8 C4.3,18.6 16.4,5.8 31.6,5.8 L31.6,5.8 C46.8,5.8 58.8,18.6 57.9,33.8 L50,159.7 C49.2,169.4 41.2,176.9 31.5,176.9 Z"/><path id="Shape" d="M31.5,181.9 C19.2,181.9 9,172.3 8.2,160 L0.3,34.1 C-0.2,25.4 2.7,17.1 8.7,10.7 C14.7,4.3 22.8,0.8 31.5,0.8 C40.2,0.8 48.4,4.3 54.3,10.7 C60.3,17.1 63.3,25.4 62.7,34.1 L54.8,160 C54,172.3 43.8,181.9 31.5,181.9 Z M31.5,10.9 C25.5,10.9 20,13.3 16,17.6 C11.9,21.9 9.9,27.6 10.3,33.5 L18.2,159.4 C18.6,166.4 24.5,171.9 31.5,171.9 C38.5,171.9 44.4,166.4 44.8,159.4 L52.7,33.5 C53.1,27.6 51,21.9 47,17.6 C42.9,13.3 37.4,10.9 31.5,10.9 Z"/></g><g fill="#383A48" transform="translate(102.000000, 186.000000) translate(218.000000, 326.000000)"><circle id="Oval" cx="29.5" cy="29.4" r="23.6"/><path id="Shape" d="M29.5,58 C13.7,58 0.9,45.2 0.9,29.4 C0.9,13.6 13.7,0.8 29.5,0.8 C45.3,0.8 58.1,13.6 58.1,29.4 C58.1,45.2 45.2,58 29.5,58 Z M29.5,10.9 C19.3,10.9 10.9,19.2 10.9,29.5 C10.9,39.7 19.2,48.1 29.5,48.1 C39.7,48.1 48.1,39.8 48.1,29.5 C48,19.2 39.7,10.9 29.5,10.9 Z"/></g></g><path id="Path" fill="#4053FA" fill-rule="nonzero" d="M550.3,474.5 L480.2,346.4 C479.1,344.4 476.8,343.4 474.6,344 C472.4,344.6 470.8,346.6 470.8,348.8 L470.8,423 C470.8,455.5 497.3,482 529.8,482 L546,482 C547.8,482 549.4,481.1 550.3,479.5 C551.1,477.9 551.2,476 550.3,474.5 Z"/><g transform="translate(138.000000, 48.000000)"><g fill-rule="nonzero"><circle id="Oval" cx="71.2" cy="71.3" r="66.2" fill="#AAC6FC"/><path id="Shape" fill="#383A48" d="M71.2,142.5 C31.9,142.5 0,110.5 0,71.3 C0,32.1 32,0.1 71.2,0.1 C110.4,0.1 142.4,32.1 142.4,71.3 C142.4,110.5 110.5,142.5 71.2,142.5 Z M71.2,10 C37.4,10 10,37.5 10,71.2 C10,104.9 37.5,132.4 71.2,132.4 C105,132.4 132.4,104.9 132.4,71.2 C132.4,37.5 105,10 71.2,10 Z"/></g><g id="Path"><g transform="translate(46.000000, 46.000000)"><line x1="5" x2="45.4" y1="5.1" y2="45.5"/><path fill="#383A48" fill-rule="nonzero" d="M45.4,50.5 C44.1,50.5 42.8,50 41.9,49 L1.5,8.6 C-0.5,6.6 -0.5,3.5 1.5,1.5 C3.5,-0.5 6.6,-0.5 8.6,1.5 L49,41.9 C51,43.9 51,47 49,49 C48,50 46.7,50.5 45.4,50.5 Z"/></g><g transform="translate(46.000000, 46.000000)"><line x1="5" x2="45.4" y1="45.5" y2="5.1"/><path fill="#383A48" fill-rule="nonzero" d="M5,50.5 C3.7,50.5 2.4,50 1.5,49 C-0.5,47 -0.5,43.9 1.5,41.9 L41.9,1.5 C43.9,-0.5 47,-0.5 49,1.5 C51,3.5 51,6.6 49,8.6 L8.6,49 C7.6,50 6.3,50.5 5,50.5 Z"/></g></g></g><g transform="translate(519.000000, 47.000000)"><rect id="Rectangle" width="10" height="33" x="12" y=".5" fill="#383A48" fill-rule="nonzero"/><g transform="translate(0.000000, 12.000000)"><line id="Path" x1=".5" x2="33.5" y1="5" y2="5"/><rect id="Rectangle" width="33" height="10" x=".5" y="0" fill="#383A48" fill-rule="nonzero"/></g></g><g transform="translate(47.000000, 637.000000)"><rect id="Rectangle" width="10" height="33" x="12.2" y=".3" fill="#383A48" fill-rule="nonzero"/><g transform="translate(0.000000, 11.000000)"><line id="Path" x1=".7" x2="33.6" y1="5.8" y2="5.8"/><rect id="Rectangle" width="33" height="10" x=".7" y=".8" fill="#383A48" fill-rule="nonzero"/></g></g><g transform="translate(805.000000, 659.000000)"><rect id="Rectangle" width="10" height="33" x="11.4" y=".4" fill="#383A48" fill-rule="nonzero"/><g transform="translate(0.000000, 11.000000)"><line id="Path" x1="0" x2="32.9" y1="5.9" y2="5.9"/><rect id="Rectangle" width="33" height="10" x="0" y=".9" fill="#383A48" fill-rule="nonzero"/></g></g><path id="Path" fill="#383A48" fill-rule="nonzero" d="M268.4,355.3 C267.1,355.3 265.8,354.8 264.9,353.8 L104.9,194 C102.9,192 102.9,188.9 104.9,186.9 C106.9,184.9 110,184.9 112,186.9 L271.9,346.8 C273.9,348.8 273.9,351.9 271.9,353.9 C270.9,354.8 269.6,355.3 268.4,355.3 Z"/></g></g></g></svg>