<?xml version="1.0" encoding="utf-8"?>
<!-- Generator: Adobe Illustrator 22.0.1, SVG Export Plug-In . SVG Version: 6.00 Build 0)  -->
<svg version="1.1" id="Layer_1" xmlns="http://www.w3.org/2000/svg" xmlns:xlink="http://www.w3.org/1999/xlink" x="0px" y="0px" viewBox="0 0 1920 1080" style="enable-background:new 0 0 1920 1080;" xml:space="preserve">

<rect width="1920" height="1080" style="fill:#E0719E;"/>
<g>
	<path d="M911.7,169H223.2c-2.8,0-5,2.2-5,5v644.8c0,2.8,2.2,5,5,5s5-2.2,5-5c0-33.3,11.7-61,36.9-87.1
		c22.8-23.7,53.9-43.2,86.8-63.9c22.6-14.2,45.9-28.9,67.8-45.7c39.9-30.7,66.3-62,83-98.7c8.9-19.6,17.2-38.9,25.2-57.5
		c19.1-44.5,37.1-86.6,60.1-123.6c29.7-47.9,64.8-82,110.4-107.3c53.5-29.7,123.5-48,213.9-55.9c2.7-0.2,4.7-2.5,4.6-5.2
		C916.6,171.2,914.4,169,911.7,169z" style="fill:#F3F6E6;"/>
	<g>
		<g>
			<g>
				<g>
					<circle cx="535.2" cy="385.2" r="5" style="fill:#383A48;"/>
				</g>
			</g>
			<g>
				<g>
					<circle cx="535.2" cy="409.9" r="5" style="fill:#383A48;"/>
				</g>
			</g>
			<g>
				<g>
					<circle cx="535.2" cy="434.5" r="5" style="fill:#383A48;"/>
				</g>
			</g>
			<g>
				<g>
					<circle cx="510.6" cy="335.9" r="5" style="fill:#383A48;"/>
				</g>
			</g>
			<g>
				<g>
					<circle cx="510.6" cy="360.5" r="5" style="fill:#383A48;"/>
				</g>
			</g>
			<g>
				<g>
					<circle cx="510.6" cy="385.2" r="5" style="fill:#383A48;"/>
				</g>
			</g>
			<g>
				<g>
					<circle cx="510.6" cy="409.9" r="5" style="fill:#383A48;"/>
				</g>
			</g>
			<g>
				<g>
					<circle cx="510.6" cy="434.5" r="5" style="fill:#383A48;"/>
				</g>
			</g>
			<g>
				<g>
					<circle cx="510.6" cy="459.2" r="5" style="fill:#383A48;"/>
				</g>
			</g>
			<g>
				<g>
					<circle cx="510.6" cy="483.9" r="5" style="fill:#383A48;"/>
				</g>
			</g>
			<g>
				<g>
					<circle cx="485.9" cy="286.5" r="5" style="fill:#383A48;"/>
				</g>
			</g>
			<g>
				<g>
					<circle cx="485.9" cy="311.2" r="5" style="fill:#383A48;"/>
				</g>
			</g>
			<g>
				<g>
					<circle cx="485.9" cy="335.9" r="5" style="fill:#383A48;"/>
				</g>
			</g>
			<g>
				<g>
					<circle cx="485.9" cy="360.5" r="5" style="fill:#383A48;"/>
				</g>
			</g>
			<g>
				<g>
					<circle cx="485.9" cy="385.2" r="5" style="fill:#383A48;"/>
				</g>
			</g>
			<g>
				<g>
					<circle cx="485.9" cy="409.9" r="5" style="fill:#383A48;"/>
				</g>
			</g>
			<g>
				<g>
					<circle cx="485.9" cy="434.5" r="5" style="fill:#383A48;"/>
				</g>
			</g>
			<g>
				<g>
					<circle cx="485.9" cy="459.2" r="5" style="fill:#383A48;"/>
				</g>
			</g>
			<g>
				<g>
					<circle cx="485.9" cy="483.9" r="5" style="fill:#383A48;"/>
				</g>
			</g>
			<g>
				<g>
					<circle cx="485.9" cy="508.5" r="5" style="fill:#383A48;"/>
				</g>
			</g>
			<g>
				<g>
					<circle cx="485.9" cy="533.2" r="5" style="fill:#383A48;"/>
				</g>
			</g>
			<g>
				<g>
					<circle cx="461.2" cy="261.9" r="5" style="fill:#383A48;"/>
				</g>
			</g>
			<g>
				<g>
					<circle cx="461.2" cy="286.5" r="5" style="fill:#383A48;"/>
				</g>
			</g>
			<g>
				<g>
					<circle cx="461.2" cy="311.2" r="5" style="fill:#383A48;"/>
				</g>
			</g>
			<g>
				<g>
					<circle cx="461.2" cy="335.9" r="5" style="fill:#383A48;"/>
				</g>
			</g>
			<g>
				<g>
					<circle cx="461.2" cy="360.5" r="5" style="fill:#383A48;"/>
				</g>
			</g>
			<g>
				<g>
					<circle cx="461.2" cy="385.2" r="5" style="fill:#383A48;"/>
				</g>
			</g>
			<g>
				<g>
					<circle cx="461.2" cy="409.9" r="5" style="fill:#383A48;"/>
				</g>
			</g>
			<g>
				<g>
					<circle cx="461.2" cy="434.5" r="5" style="fill:#383A48;"/>
				</g>
			</g>
			<g>
				<g>
					<circle cx="461.2" cy="459.2" r="5" style="fill:#383A48;"/>
				</g>
			</g>
			<g>
				<g>
					<circle cx="461.2" cy="483.9" r="5" style="fill:#383A48;"/>
				</g>
			</g>
			<g>
				<g>
					<circle cx="461.2" cy="508.5" r="5" style="fill:#383A48;"/>
				</g>
			</g>
			<g>
				<g>
					<circle cx="461.2" cy="533.2" r="5" style="fill:#383A48;"/>
				</g>
			</g>
			<g>
				<g>
					<circle cx="461.2" cy="557.9" r="5" style="fill:#383A48;"/>
				</g>
			</g>
			<g>
				<g>
					<circle cx="436.6" cy="237.2" r="5" style="fill:#383A48;"/>
				</g>
			</g>
			<g>
				<g>
					<circle cx="436.6" cy="261.9" r="5" style="fill:#383A48;"/>
				</g>
			</g>
			<g>
				<g>
					<circle cx="436.6" cy="286.5" r="5" style="fill:#383A48;"/>
				</g>
			</g>
			<g>
				<g>
					<circle cx="436.6" cy="311.2" r="5" style="fill:#383A48;"/>
				</g>
			</g>
			<g>
				<g>
					<circle cx="436.6" cy="335.9" r="5" style="fill:#383A48;"/>
				</g>
			</g>
			<g>
				<g>
					<circle cx="436.6" cy="360.5" r="5" style="fill:#383A48;"/>
				</g>
			</g>
			<g>
				<g>
					<circle cx="436.6" cy="385.2" r="5" style="fill:#383A48;"/>
				</g>
			</g>
			<g>
				<g>
					<circle cx="436.6" cy="409.9" r="5" style="fill:#383A48;"/>
				</g>
			</g>
			<g>
				<g>
					<circle cx="436.6" cy="434.5" r="5" style="fill:#383A48;"/>
				</g>
			</g>
			<g>
				<g>
					<circle cx="436.6" cy="459.2" r="5" style="fill:#383A48;"/>
				</g>
			</g>
			<g>
				<g>
					<circle cx="436.6" cy="483.9" r="5" style="fill:#383A48;"/>
				</g>
			</g>
			<g>
				<g>
					<circle cx="436.6" cy="508.5" r="5" style="fill:#383A48;"/>
				</g>
			</g>
			<g>
				<g>
					<circle cx="436.6" cy="533.2" r="5" style="fill:#383A48;"/>
				</g>
			</g>
			<g>
				<g>
					<circle cx="436.6" cy="557.9" r="5" style="fill:#383A48;"/>
				</g>
			</g>
			<g>
				<g>
					<circle cx="436.6" cy="582.5" r="5" style="fill:#383A48;"/>
				</g>
			</g>
			<g>
				<g>
					<circle cx="411.9" cy="237.2" r="5" style="fill:#383A48;"/>
				</g>
			</g>
			<g>
				<g>
					<circle cx="411.9" cy="261.9" r="5" style="fill:#383A48;"/>
				</g>
			</g>
			<g>
				<g>
					<circle cx="411.9" cy="286.5" r="5" style="fill:#383A48;"/>
				</g>
			</g>
			<g>
				<g>
					<circle cx="411.9" cy="311.2" r="5" style="fill:#383A48;"/>
				</g>
			</g>
			<g>
				<g>
					<circle cx="411.9" cy="335.9" r="5" style="fill:#383A48;"/>
				</g>
			</g>
			<g>
				<g>
					<circle cx="411.9" cy="360.5" r="5" style="fill:#383A48;"/>
				</g>
			</g>
			<g>
				<g>
					<circle cx="411.9" cy="385.2" r="5" style="fill:#383A48;"/>
				</g>
			</g>
			<g>
				<g>
					<circle cx="411.9" cy="409.9" r="5" style="fill:#383A48;"/>
				</g>
			</g>
			<g>
				<g>
					<circle cx="411.9" cy="434.5" r="5" style="fill:#383A48;"/>
				</g>
			</g>
			<g>
				<g>
					<circle cx="411.9" cy="459.2" r="5" style="fill:#383A48;"/>
				</g>
			</g>
			<g>
				<g>
					<circle cx="411.9" cy="483.9" r="5" style="fill:#383A48;"/>
				</g>
			</g>
			<g>
				<g>
					<circle cx="411.9" cy="508.5" r="5" style="fill:#383A48;"/>
				</g>
			</g>
			<g>
				<g>
					<circle cx="411.9" cy="533.2" r="5" style="fill:#383A48;"/>
				</g>
			</g>
			<g>
				<g>
					<circle cx="411.9" cy="557.9" r="5" style="fill:#383A48;"/>
				</g>
			</g>
			<g>
				<g>
					<circle cx="411.9" cy="582.5" r="5" style="fill:#383A48;"/>
				</g>
			</g>
			<g>
				<g>
					<circle cx="411.9" cy="607.2" r="5" style="fill:#383A48;"/>
				</g>
			</g>
			<g>
				<g>
					<circle cx="387.2" cy="237.2" r="5" style="fill:#383A48;"/>
				</g>
			</g>
			<g>
				<g>
					<circle cx="387.2" cy="261.9" r="5" style="fill:#383A48;"/>
				</g>
			</g>
			<g>
				<g>
					<circle cx="387.2" cy="286.5" r="5" style="fill:#383A48;"/>
				</g>
			</g>
			<g>
				<g>
					<circle cx="387.2" cy="311.2" r="5" style="fill:#383A48;"/>
				</g>
			</g>
			<g>
				<g>
					<circle cx="387.2" cy="335.9" r="5" style="fill:#383A48;"/>
				</g>
			</g>
			<g>
				<g>
					<circle cx="387.2" cy="360.5" r="5" style="fill:#383A48;"/>
				</g>
			</g>
			<g>
				<g>
					<circle cx="387.2" cy="385.2" r="5" style="fill:#383A48;"/>
				</g>
			</g>
			<g>
				<g>
					<circle cx="387.2" cy="409.9" r="5" style="fill:#383A48;"/>
				</g>
			</g>
			<g>
				<g>
					<circle cx="387.2" cy="434.5" r="5" style="fill:#383A48;"/>
				</g>
			</g>
			<g>
				<g>
					<circle cx="387.2" cy="459.2" r="5" style="fill:#383A48;"/>
				</g>
			</g>
			<g>
				<g>
					<circle cx="387.2" cy="483.9" r="5" style="fill:#383A48;"/>
				</g>
			</g>
			<g>
				<g>
					<circle cx="387.2" cy="508.5" r="5" style="fill:#383A48;"/>
				</g>
			</g>
			<g>
				<g>
					<circle cx="387.2" cy="533.2" r="5" style="fill:#383A48;"/>
				</g>
			</g>
			<g>
				<g>
					<circle cx="387.2" cy="557.9" r="5" style="fill:#383A48;"/>
				</g>
			</g>
			<g>
				<g>
					<circle cx="387.2" cy="582.5" r="5" style="fill:#383A48;"/>
				</g>
			</g>
			<g>
				<g>
					<circle cx="387.2" cy="607.2" r="5" style="fill:#383A48;"/>
				</g>
			</g>
			<g>
				<g>
					<circle cx="362.6" cy="261.9" r="5" style="fill:#383A48;"/>
				</g>
			</g>
			<g>
				<g>
					<circle cx="362.6" cy="286.5" r="5" style="fill:#383A48;"/>
				</g>
			</g>
			<g>
				<g>
					<circle cx="362.6" cy="311.2" r="5" style="fill:#383A48;"/>
				</g>
			</g>
			<g>
				<g>
					<circle cx="362.6" cy="335.9" r="5" style="fill:#383A48;"/>
				</g>
			</g>
			<g>
				<g>
					<circle cx="362.6" cy="360.5" r="5" style="fill:#383A48;"/>
				</g>
			</g>
			<g>
				<g>
					<circle cx="362.6" cy="385.2" r="5" style="fill:#383A48;"/>
				</g>
			</g>
			<g>
				<g>
					<circle cx="362.6" cy="409.9" r="5" style="fill:#383A48;"/>
				</g>
			</g>
			<g>
				<g>
					<circle cx="362.6" cy="434.5" r="5" style="fill:#383A48;"/>
				</g>
			</g>
			<g>
				<g>
					<circle cx="362.6" cy="459.2" r="5" style="fill:#383A48;"/>
				</g>
			</g>
			<g>
				<g>
					<circle cx="362.6" cy="483.9" r="5" style="fill:#383A48;"/>
				</g>
			</g>
			<g>
				<g>
					<circle cx="362.6" cy="508.5" r="5" style="fill:#383A48;"/>
				</g>
			</g>
			<g>
				<g>
					<circle cx="362.6" cy="533.2" r="5" style="fill:#383A48;"/>
				</g>
			</g>
			<g>
				<g>
					<circle cx="362.6" cy="557.9" r="5" style="fill:#383A48;"/>
				</g>
			</g>
			<g>
				<g>
					<circle cx="362.6" cy="582.5" r="5" style="fill:#383A48;"/>
				</g>
			</g>
			<g>
				<g>
					<circle cx="362.6" cy="607.2" r="5" style="fill:#383A48;"/>
				</g>
			</g>
			<g>
				<g>
					<circle cx="337.9" cy="261.9" r="5" style="fill:#383A48;"/>
				</g>
			</g>
			<g>
				<g>
					<circle cx="337.9" cy="286.5" r="5" style="fill:#383A48;"/>
				</g>
			</g>
			<g>
				<g>
					<circle cx="337.9" cy="311.2" r="5" style="fill:#383A48;"/>
				</g>
			</g>
			<g>
				<g>
					<circle cx="337.9" cy="335.9" r="5" style="fill:#383A48;"/>
				</g>
			</g>
			<g>
				<g>
					<circle cx="337.9" cy="360.5" r="5" style="fill:#383A48;"/>
				</g>
			</g>
			<g>
				<g>
					<circle cx="337.9" cy="385.2" r="5" style="fill:#383A48;"/>
				</g>
			</g>
			<g>
				<g>
					<circle cx="337.9" cy="409.9" r="5" style="fill:#383A48;"/>
				</g>
			</g>
			<g>
				<g>
					<circle cx="337.9" cy="434.5" r="5" style="fill:#383A48;"/>
				</g>
			</g>
			<g>
				<g>
					<circle cx="337.9" cy="459.2" r="5" style="fill:#383A48;"/>
				</g>
			</g>
			<g>
				<g>
					<circle cx="337.9" cy="483.9" r="5" style="fill:#383A48;"/>
				</g>
			</g>
			<g>
				<g>
					<circle cx="337.9" cy="508.5" r="5" style="fill:#383A48;"/>
				</g>
			</g>
			<g>
				<g>
					<circle cx="337.9" cy="533.2" r="5" style="fill:#383A48;"/>
				</g>
			</g>
			<g>
				<g>
					<circle cx="337.9" cy="557.9" r="5" style="fill:#383A48;"/>
				</g>
			</g>
			<g>
				<g>
					<circle cx="337.9" cy="582.5" r="5" style="fill:#383A48;"/>
				</g>
			</g>
			<g>
				<g>
					<circle cx="337.9" cy="607.2" r="5" style="fill:#383A48;"/>
				</g>
			</g>
			<g>
				<g>
					<circle cx="313.2" cy="261.9" r="5" style="fill:#383A48;"/>
				</g>
			</g>
			<g>
				<g>
					<circle cx="313.2" cy="286.5" r="5" style="fill:#383A48;"/>
				</g>
			</g>
			<g>
				<g>
					<circle cx="313.2" cy="311.2" r="5" style="fill:#383A48;"/>
				</g>
			</g>
			<g>
				<g>
					<circle cx="313.2" cy="335.9" r="5" style="fill:#383A48;"/>
				</g>
			</g>
			<g>
				<g>
					<circle cx="313.2" cy="360.5" r="5" style="fill:#383A48;"/>
				</g>
			</g>
			<g>
				<g>
					<circle cx="313.2" cy="385.2" r="5" style="fill:#383A48;"/>
				</g>
			</g>
			<g>
				<g>
					<circle cx="313.2" cy="409.9" r="5" style="fill:#383A48;"/>
				</g>
			</g>
			<g>
				<g>
					<circle cx="313.2" cy="434.5" r="5" style="fill:#383A48;"/>
				</g>
			</g>
			<g>
				<g>
					<circle cx="313.2" cy="459.2" r="5" style="fill:#383A48;"/>
				</g>
			</g>
			<g>
				<g>
					<circle cx="313.2" cy="483.9" r="5" style="fill:#383A48;"/>
				</g>
			</g>
			<g>
				<g>
					<circle cx="313.2" cy="508.5" r="5" style="fill:#383A48;"/>
				</g>
			</g>
			<g>
				<g>
					<circle cx="313.2" cy="533.2" r="5" style="fill:#383A48;"/>
				</g>
			</g>
			<g>
				<g>
					<circle cx="313.2" cy="557.9" r="5" style="fill:#383A48;"/>
				</g>
			</g>
			<g>
				<g>
					<circle cx="313.2" cy="582.5" r="5" style="fill:#383A48;"/>
				</g>
			</g>
			<g>
				<g>
					<circle cx="288.6" cy="286.5" r="5" style="fill:#383A48;"/>
				</g>
			</g>
			<g>
				<g>
					<circle cx="288.6" cy="311.2" r="5" style="fill:#383A48;"/>
				</g>
			</g>
			<g>
				<g>
					<circle cx="288.6" cy="335.9" r="5" style="fill:#383A48;"/>
				</g>
			</g>
			<g>
				<g>
					<circle cx="288.6" cy="360.5" r="5" style="fill:#383A48;"/>
				</g>
			</g>
			<g>
				<g>
					<circle cx="288.6" cy="385.2" r="5" style="fill:#383A48;"/>
				</g>
			</g>
			<g>
				<g>
					<circle cx="288.6" cy="409.9" r="5" style="fill:#383A48;"/>
				</g>
			</g>
			<g>
				<g>
					<circle cx="288.6" cy="434.5" r="5" style="fill:#383A48;"/>
				</g>
			</g>
			<g>
				<g>
					<circle cx="288.6" cy="459.2" r="5" style="fill:#383A48;"/>
				</g>
			</g>
			<g>
				<g>
					<circle cx="288.6" cy="483.9" r="5" style="fill:#383A48;"/>
				</g>
			</g>
			<g>
				<g>
					<circle cx="288.6" cy="508.5" r="5" style="fill:#383A48;"/>
				</g>
			</g>
			<g>
				<g>
					<circle cx="288.6" cy="533.2" r="5" style="fill:#383A48;"/>
				</g>
			</g>
			<g>
				<g>
					<circle cx="288.6" cy="557.9" r="5" style="fill:#383A48;"/>
				</g>
			</g>
			<g>
				<g>
					<circle cx="263.9" cy="311.2" r="5" style="fill:#383A48;"/>
				</g>
			</g>
			<g>
				<g>
					<circle cx="263.9" cy="335.9" r="5" style="fill:#383A48;"/>
				</g>
			</g>
			<g>
				<g>
					<circle cx="263.9" cy="360.5" r="5" style="fill:#383A48;"/>
				</g>
			</g>
			<g>
				<g>
					<circle cx="263.9" cy="385.2" r="5" style="fill:#383A48;"/>
				</g>
			</g>
			<g>
				<g>
					<circle cx="263.9" cy="409.9" r="5" style="fill:#383A48;"/>
				</g>
			</g>
			<g>
				<g>
					<circle cx="263.9" cy="434.5" r="5" style="fill:#383A48;"/>
				</g>
			</g>
			<g>
				<g>
					<circle cx="263.9" cy="459.2" r="5" style="fill:#383A48;"/>
				</g>
			</g>
			<g>
				<g>
					<circle cx="263.9" cy="483.9" r="5" style="fill:#383A48;"/>
				</g>
			</g>
			<g>
				<g>
					<circle cx="263.9" cy="508.5" r="5" style="fill:#383A48;"/>
				</g>
			</g>
			<g>
				<g>
					<circle cx="263.9" cy="533.2" r="5" style="fill:#383A48;"/>
				</g>
			</g>
			<g>
				<g>
					<circle cx="239.2" cy="360.5" r="5" style="fill:#383A48;"/>
				</g>
			</g>
			<g>
				<g>
					<circle cx="239.2" cy="385.2" r="5" style="fill:#383A48;"/>
				</g>
			</g>
			<g>
				<g>
					<circle cx="239.2" cy="409.9" r="5" style="fill:#383A48;"/>
				</g>
			</g>
			<g>
				<g>
					<circle cx="239.2" cy="434.5" r="5" style="fill:#383A48;"/>
				</g>
			</g>
			<g>
				<g>
					<circle cx="239.2" cy="459.2" r="5" style="fill:#383A48;"/>
				</g>
			</g>
			<g>
				<g>
					<circle cx="239.2" cy="483.9" r="5" style="fill:#383A48;"/>
				</g>
			</g>
			<g>
				<g>
					<circle cx="239.2" cy="508.5" r="5" style="fill:#383A48;"/>
				</g>
			</g>
		</g>
	</g>
	<path d="M1700.7,302.9c-1.7-0.9-3.7-0.7-5.2,0.4c-38.9,27.8-63,65.9-86.4,102.8c-41.8,66-81.2,128.4-200,130.2
		c-144.5,2.2-223.8,53.4-355.2,138.1c-42.5,27.4-90.6,58.4-148.4,92.6c-36.6,21.7-82.2,29.2-134.9,37.8
		C694,817.4,598.6,833,496.9,901.8c-1.8,1.2-2.6,3.5-2,5.6s2.6,3.5,4.8,3.5h1198.7c2.8,0,5-2.2,5-5V307.4
		C1703.4,305.5,1702.4,303.8,1700.7,302.9z" style="fill:#F3F6E6;"/>
	<g>
		<path d="M1605.6,911h-196.3c-2.8,0-5-2.2-5-5s2.2-5,5-5h196.3c2.8,0,5,2.2,5,5S1608.4,911,1605.6,911z" style="fill:#383A48;"/>
	</g>
	<g>
		<g>
			<g>
				<g>
					<circle cx="1475.4" cy="548" r="5" style="fill:#383A48;"/>
				</g>
			</g>
			<g>
				<g>
					<circle cx="1475.4" cy="572.7" r="5" style="fill:#383A48;"/>
				</g>
			</g>
			<g>
				<g>
					<circle cx="1475.4" cy="597.4" r="5" style="fill:#383A48;"/>
				</g>
			</g>
			<g>
				<g>
					<circle cx="1475.4" cy="622" r="5" style="fill:#383A48;"/>
				</g>
			</g>
			<g>
				<g>
					<circle cx="1475.4" cy="646.7" r="5" style="fill:#383A48;"/>
				</g>
			</g>
			<g>
				<g>
					<circle cx="1475.4" cy="671.4" r="5" style="fill:#383A48;"/>
				</g>
			</g>
			<g>
				<g>
					<circle cx="1475.4" cy="696" r="5" style="fill:#383A48;"/>
				</g>
			</g>
			<g>
				<g>
					<circle cx="1475.4" cy="720.7" r="5" style="fill:#383A48;"/>
				</g>
			</g>
			<g>
				<g>
					<circle cx="1475.4" cy="745.4" r="5" style="fill:#383A48;"/>
				</g>
			</g>
			<g>
				<g>
					<circle cx="1475.4" cy="770" r="5" style="fill:#383A48;"/>
				</g>
			</g>
			<g>
				<g>
					<circle cx="1475.4" cy="794.7" r="5" style="fill:#383A48;"/>
				</g>
			</g>
			<g>
				<g>
					<circle cx="1475.4" cy="819.4" r="5" style="fill:#383A48;"/>
				</g>
			</g>
			<g>
				<g>
					<circle cx="1475.4" cy="844" r="5" style="fill:#383A48;"/>
				</g>
			</g>
			<g>
				<g>
					<circle cx="1475.4" cy="868.7" r="5" style="fill:#383A48;"/>
				</g>
			</g>
			<g>
				<g>
					<circle cx="1475.4" cy="893.4" r="5" style="fill:#383A48;"/>
				</g>
			</g>
			<g>
				<g>
					<circle cx="1450.7" cy="548" r="5" style="fill:#383A48;"/>
				</g>
			</g>
			<g>
				<g>
					<circle cx="1450.7" cy="572.7" r="5" style="fill:#383A48;"/>
				</g>
			</g>
			<g>
				<g>
					<circle cx="1450.7" cy="597.4" r="5" style="fill:#383A48;"/>
				</g>
			</g>
			<g>
				<g>
					<circle cx="1450.7" cy="622" r="5" style="fill:#383A48;"/>
				</g>
			</g>
			<g>
				<g>
					<circle cx="1450.7" cy="646.7" r="5" style="fill:#383A48;"/>
				</g>
			</g>
			<g>
				<g>
					<circle cx="1450.7" cy="671.4" r="5" style="fill:#383A48;"/>
				</g>
			</g>
			<g>
				<g>
					<circle cx="1450.7" cy="696" r="5" style="fill:#383A48;"/>
				</g>
			</g>
			<g>
				<g>
					<circle cx="1450.7" cy="720.7" r="5" style="fill:#383A48;"/>
				</g>
			</g>
			<g>
				<g>
					<circle cx="1450.7" cy="745.4" r="5" style="fill:#383A48;"/>
				</g>
			</g>
			<g>
				<g>
					<circle cx="1450.7" cy="770" r="5" style="fill:#383A48;"/>
				</g>
			</g>
			<g>
				<g>
					<circle cx="1450.7" cy="794.7" r="5" style="fill:#383A48;"/>
				</g>
			</g>
			<g>
				<g>
					<circle cx="1450.7" cy="819.4" r="5" style="fill:#383A48;"/>
				</g>
			</g>
			<g>
				<g>
					<circle cx="1450.7" cy="844" r="5" style="fill:#383A48;"/>
				</g>
			</g>
			<g>
				<g>
					<circle cx="1450.7" cy="868.7" r="5" style="fill:#383A48;"/>
				</g>
			</g>
			<g>
				<g>
					<circle cx="1450.7" cy="893.4" r="5" style="fill:#383A48;"/>
				</g>
			</g>
			<g>
				<g>
					<circle cx="1426.1" cy="548" r="5" style="fill:#383A48;"/>
				</g>
			</g>
			<g>
				<g>
					<circle cx="1426.1" cy="572.7" r="5" style="fill:#383A48;"/>
				</g>
			</g>
			<g>
				<g>
					<circle cx="1426.1" cy="597.4" r="5" style="fill:#383A48;"/>
				</g>
			</g>
			<g>
				<g>
					<circle cx="1426.1" cy="622" r="5" style="fill:#383A48;"/>
				</g>
			</g>
			<g>
				<g>
					<circle cx="1426.1" cy="646.7" r="5" style="fill:#383A48;"/>
				</g>
			</g>
			<g>
				<g>
					<circle cx="1426.1" cy="671.4" r="5" style="fill:#383A48;"/>
				</g>
			</g>
			<g>
				<g>
					<circle cx="1426.1" cy="696" r="5" style="fill:#383A48;"/>
				</g>
			</g>
			<g>
				<g>
					<circle cx="1426.1" cy="720.7" r="5" style="fill:#383A48;"/>
				</g>
			</g>
			<g>
				<g>
					<circle cx="1426.1" cy="745.4" r="5" style="fill:#383A48;"/>
				</g>
			</g>
			<g>
				<g>
					<circle cx="1426.1" cy="770" r="5" style="fill:#383A48;"/>
				</g>
			</g>
			<g>
				<g>
					<circle cx="1426.1" cy="794.7" r="5" style="fill:#383A48;"/>
				</g>
			</g>
			<g>
				<g>
					<circle cx="1426.1" cy="819.4" r="5" style="fill:#383A48;"/>
				</g>
			</g>
			<g>
				<g>
					<circle cx="1426.1" cy="844" r="5" style="fill:#383A48;"/>
				</g>
			</g>
			<g>
				<g>
					<circle cx="1426.1" cy="868.7" r="5" style="fill:#383A48;"/>
				</g>
			</g>
			<g>
				<g>
					<circle cx="1426.1" cy="893.4" r="5" style="fill:#383A48;"/>
				</g>
			</g>
			<g>
				<g>
					<circle cx="1401.4" cy="548" r="5" style="fill:#383A48;"/>
				</g>
			</g>
			<g>
				<g>
					<circle cx="1401.4" cy="572.7" r="5" style="fill:#383A48;"/>
				</g>
			</g>
			<g>
				<g>
					<circle cx="1401.4" cy="597.4" r="5" style="fill:#383A48;"/>
				</g>
			</g>
			<g>
				<g>
					<circle cx="1401.4" cy="622" r="5" style="fill:#383A48;"/>
				</g>
			</g>
			<g>
				<g>
					<circle cx="1401.4" cy="646.7" r="5" style="fill:#383A48;"/>
				</g>
			</g>
			<g>
				<g>
					<circle cx="1401.4" cy="671.4" r="5" style="fill:#383A48;"/>
				</g>
			</g>
			<g>
				<g>
					<circle cx="1401.4" cy="696" r="5" style="fill:#383A48;"/>
				</g>
			</g>
			<g>
				<g>
					<circle cx="1401.4" cy="720.7" r="5" style="fill:#383A48;"/>
				</g>
			</g>
			<g>
				<g>
					<circle cx="1401.4" cy="745.4" r="5" style="fill:#383A48;"/>
				</g>
			</g>
			<g>
				<g>
					<circle cx="1401.4" cy="770" r="5" style="fill:#383A48;"/>
				</g>
			</g>
			<g>
				<g>
					<circle cx="1401.4" cy="794.7" r="5" style="fill:#383A48;"/>
				</g>
			</g>
			<g>
				<g>
					<circle cx="1401.4" cy="819.4" r="5" style="fill:#383A48;"/>
				</g>
			</g>
			<g>
				<g>
					<circle cx="1401.4" cy="844" r="5" style="fill:#383A48;"/>
				</g>
			</g>
			<g>
				<g>
					<circle cx="1401.4" cy="868.7" r="5" style="fill:#383A48;"/>
				</g>
			</g>
			<g>
				<g>
					<circle cx="1401.4" cy="893.4" r="5" style="fill:#383A48;"/>
				</g>
			</g>
		</g>
	</g>
	<g>
		<g>
			<rect x="872.5" y="541.4" width="536.7" height="364.6" style="fill:#F3F6E6;"/>
			<path d="M1409.3,911H872.5c-2.8,0-5-2.2-5-5V541.4c0-2.8,2.2-5,5-5h536.7c2.8,0,5,2.2,5,5V906
				C1414.3,908.7,1412,911,1409.3,911z M877.5,901h526.7V546.4H877.5V901z" style="fill:#383A48;"/>
		</g>
		<g>
			<rect x="872.5" y="541.4" width="536.7" height="136" style="fill:#AAC6FC;"/>
			<path d="M1409.3,682.3H872.5c-2.8,0-5-2.2-5-5v-136c0-2.8,2.2-5,5-5h536.7c2.8,0,5,2.2,5,5v136
				C1414.3,680.1,1412,682.3,1409.3,682.3z M877.5,672.3h526.7v-126H877.5V672.3z" style="fill:#383A48;"/>
		</g>
	</g>
	<path d="M1322,536.4h-41.1c-2.8,0-5,2.2-5,5V906c0,2.8,2.2,5,5,5h41.1c2.8,0,5-2.2,5-5V541.4
		C1327,538.6,1324.7,536.4,1322,536.4z" style="fill:#383A48;"/>
	<g>
		<g>
			<rect x="744.2" y="408.2" width="536.7" height="497.7" style="fill:#F3F6E6;"/>
			<path d="M1280.9,911H744.2c-2.8,0-5-2.2-5-5V408.2c0-2.8,2.2-5,5-5h536.7c2.8,0,5,2.2,5,5V906
				C1285.9,908.7,1283.7,911,1280.9,911z M749.2,901h526.7V413.2H749.2V901z" style="fill:#383A48;"/>
		</g>
		<g>
			<rect x="744.2" y="408.2" width="536.7" height="133.1" style="fill:#F6E049;"/>
			<path d="M1285.9,546.4H739.2V403.2h546.7V546.4z M749.2,536.4h526.7V413.2H749.2V536.4z" style="fill:#383A48;"/>
		</g>
	</g>
	<g>
		<g>
			<path d="M1497.7,322.2c0,41.7-21.1,78.5-53.3,100.2c-0.6,0.4-1.1,0.8-1.7,1.1c-7.9,5.1-16.3,9.3-25.3,12.5
				c-5.7,2-11.6,3.6-17.6,4.8h0c-7.4,1.4-15,2.2-22.9,2.2c-0.4,0-0.8,0-1.2,0c-6.6-0.1-13.1-0.7-19.4-1.7c-3.6-0.6-7.2-1.4-10.8-2.4
				c-13.2-3.5-25.4-9.2-36.4-16.7c-13.1-8.9-24.4-20.3-33.1-33.5v0c-1.9-2.9-3.7-5.8-5.3-8.9c-9.3-17.1-14.6-36.7-14.6-57.6
				c0-38.1,17.7-72.2,45.3-94.3c1.8-1.4,3.6-2.8,5.4-4.1c7.4-5.3,15.4-9.7,23.9-13.3c3.9-1.6,7.8-3,11.9-4.2
				c10.9-3.2,22.4-4.9,34.3-4.9c0.7,0,1.3,0,2,0c1,0,2,0,3,0.1c10,0.4,19.6,2,28.8,4.7c19.8,5.7,37.5,16.4,51.7,30.7
				c0.3,0.3,0.6,0.6,0.9,0.9c9.3,9.5,17.1,20.6,22.8,32.8C1493.6,286.2,1497.7,303.7,1497.7,322.2z" style="fill:#AAC6FC;"/>
			<path d="M1376.9,448c-0.4,0-0.9,0-1.3,0c-6.7-0.1-13.5-0.7-20.1-1.8c-3.8-0.7-7.6-1.5-11.2-2.5
				c-13.5-3.6-26.3-9.5-37.9-17.4c-13.7-9.3-25.3-21.1-34.5-34.9c0-0.1-0.1-0.1-0.1-0.2c-2-3-3.8-6.1-5.4-9.1
				c-9.9-18.3-15.2-39-15.2-59.9c0-38.4,17.2-74.2,47.2-98.2c2-1.6,3.9-3,5.7-4.3c7.7-5.5,16.1-10.2,24.9-13.8
				c4-1.7,8.2-3.1,12.4-4.4c12.1-3.6,24.8-5.3,37.6-5.1l0.1,0c1,0,2.1,0,3.1,0.1c10.2,0.4,20.3,2,30,4.9
				c20.3,5.9,38.9,16.9,53.9,31.9c0.3,0.3,0.7,0.6,1,1c9.8,10,17.8,21.5,23.8,34.1c8,16.9,12,35,12,53.8
				c0,41.9-20.7,80.9-55.5,104.3c-0.6,0.4-1.2,0.8-1.8,1.2c-8.2,5.3-17.1,9.7-26.3,13c-6,2.1-12.1,3.8-18.3,5c0,0-0.1,0-0.1,0
				C1392.8,447.2,1384.9,448,1376.9,448z M1280.3,386.1c8.4,12.7,19.1,23.5,31.6,32c10.7,7.3,22.4,12.7,34.9,16
				c3.3,0.9,6.8,1.7,10.3,2.3c6.1,1,12.3,1.6,18.6,1.7c0.4,0,0.8,0,1.2,0c7.3,0,14.7-0.7,21.9-2.1c0,0,0.1,0,0.1,0
				c5.7-1.1,11.3-2.6,16.8-4.6c8.5-3,16.7-7.1,24.3-12c0.6-0.4,1.1-0.7,1.6-1.1c32-21.6,51.1-57.5,51.1-96c0-17.3-3.7-34-11.1-49.5
				c-5.5-11.6-12.9-22.2-21.9-31.4c-0.3-0.3-0.6-0.6-0.9-0.9c-13.9-13.9-31-24-49.6-29.4c-8.9-2.6-18.2-4.1-27.6-4.5
				c-0.9,0-1.9-0.1-2.9-0.1l-0.1,0c-11.8-0.2-23.5,1.4-34.6,4.7c-3.9,1.1-7.7,2.5-11.4,4c-8.1,3.4-15.8,7.6-22.9,12.7
				c-1.6,1.2-3.3,2.4-5.2,3.9c-27.6,22.1-43.4,55.1-43.4,90.4c0,19.3,4.8,38.4,14,55.2c1.5,2.8,3.2,5.7,5.1,8.5
				C1280.2,385.9,1280.3,386,1280.3,386.1z" style="fill:#383A48;"/>
		</g>
		<g>
			<g>
				<path d="M1338.3,250.4c-1.5,19.8-10.6,37.7-19.4,54.9c-16,31.6-32.6,64.2-9.8,116.8c-13.1-8.9-24.4-20.3-33.1-33.5
					v0c-1.9-2.9-3.7-5.8-5.3-8.9c-1.9-36,11.9-63.3,23.8-86.8c13-25.7,22.7-44.7,12.3-69.2c7.4-5.3,15.4-9.7,23.9-13.3
					C1336.9,223.8,1339.4,237,1338.3,250.4z" style="fill:#F3F6E6;"/>
			</g>
		</g>
		<g>
			<g>
				<path d="M1391.8,308.1c-18.8,37.1-38.2,75.3-16.1,134.9c-6.6-0.1-13.1-0.7-19.4-1.7c-3.6-0.6-7.2-1.4-10.8-2.4
					c-18.7-63.4,3.5-107,21.8-143.2c17-33.5,30.1-59.3,11.5-94.3c1,0,2,0,3,0.1c10,0.4,19.6,2,28.8,4.7
					C1423.6,245.3,1407.5,277.1,1391.8,308.1z" style="fill:#F3F6E6;"/>
			</g>
		</g>
		<g>
			<g>
				<path d="M1466.5,316.3c-15.7,31-31.9,62.8-23.8,107.2c-7.9,5.1-16.3,9.3-25.3,12.5c-13.1-57.4,7.5-98,24.8-132.1
					c12.3-24.3,22.6-44.5,20.2-67.1c0.3,0.3,0.6,0.6,0.9,0.9c9.3,9.5,17.1,20.6,22.8,32.8C1481.7,286.5,1474.1,301.5,1466.5,316.3z" style="fill:#F3F6E6;"/>
			</g>
		</g>
		<g>
			<path d="M1376.9,448c-0.4,0-0.9,0-1.3,0c-6.7-0.1-13.5-0.7-20.1-1.8c-3.8-0.7-7.6-1.5-11.2-2.5
				c-13.5-3.6-26.3-9.5-37.9-17.4c-13.7-9.3-25.3-21.1-34.5-34.9c0-0.1-0.1-0.1-0.1-0.2c-2-3-3.8-6.1-5.4-9.1
				c-9.9-18.3-15.2-39-15.2-59.9c0-38.4,17.2-74.2,47.2-98.2c2-1.6,3.9-3,5.7-4.3c7.7-5.5,16.1-10.2,24.9-13.8
				c4-1.7,8.2-3.1,12.4-4.4c12.1-3.6,24.8-5.3,37.6-5.1l0.1,0c1,0,2.1,0,3.1,0.1c10.2,0.4,20.3,2,30,4.9
				c20.3,5.9,38.9,16.9,53.9,31.9c0.3,0.3,0.7,0.6,1,1c9.8,10,17.8,21.5,23.8,34.1c8,16.9,12,35,12,53.8
				c0,41.9-20.7,80.9-55.5,104.3c-0.6,0.4-1.2,0.8-1.8,1.2c-8.2,5.3-17.1,9.7-26.3,13c-6,2.1-12.1,3.8-18.3,5c0,0-0.1,0-0.1,0
				C1392.8,447.2,1384.9,448,1376.9,448z M1280.3,386.1c8.4,12.7,19.1,23.5,31.6,32c10.7,7.3,22.4,12.7,34.9,16
				c3.3,0.9,6.8,1.7,10.3,2.3c6.1,1,12.3,1.6,18.6,1.7c0.4,0,0.8,0,1.2,0c7.3,0,14.7-0.7,21.9-2.1c0,0,0.1,0,0.1,0
				c5.7-1.1,11.3-2.6,16.8-4.6c8.5-3,16.7-7.1,24.3-12c0.6-0.4,1.1-0.7,1.6-1.1c32-21.6,51.1-57.5,51.1-96c0-17.3-3.7-34-11.1-49.5
				c-5.5-11.6-12.9-22.2-21.9-31.4c-0.3-0.3-0.6-0.6-0.9-0.9c-13.9-13.9-31-24-49.6-29.4c-8.9-2.6-18.2-4.1-27.6-4.5
				c-0.9,0-1.9-0.1-2.9-0.1l-0.1,0c-11.8-0.2-23.5,1.4-34.6,4.7c-3.9,1.1-7.7,2.5-11.4,4c-8.1,3.4-15.8,7.6-22.9,12.7
				c-1.6,1.2-3.3,2.4-5.2,3.9c-27.6,22.1-43.4,55.1-43.4,90.4c0,19.3,4.8,38.4,14,55.2c1.5,2.8,3.2,5.7,5.1,8.5
				C1280.2,385.9,1280.3,386,1280.3,386.1z" style="fill:#383A48;"/>
		</g>
		<g>
			<path d="M1494.6,427.8c-10.2,0-22.5-1.9-36.7-5.8c-32.8-8.9-72.3-27.3-111.2-51.8c-38.8-24.4-72.5-52.1-94.8-77.8
				c-23.9-27.6-31.9-49.5-23.1-63.4c11.6-18.4,51.7-10.3,68.4-5.9c2.7,0.7,4.3,3.4,3.6,6.1c-0.7,2.7-3.4,4.3-6.1,3.6
				c-29.5-7.7-52-7-57.4,1.6c-11.8,18.7,32.5,75.7,114.8,127.4c38,23.9,76.6,41.9,108.5,50.6c29.2,8,50.2,7.1,56.1-2.3
				c6-9.5-2.5-28.9-22.6-52.1c-1.8-2.1-1.6-5.2,0.5-7.1c2.1-1.8,5.2-1.6,7.1,0.5c24.2,27.8,32.4,49.9,23.6,63.9
				C1519.8,423.6,1509.5,427.8,1494.6,427.8z" style="fill:#383A48;"/>
		</g>
	</g>
	<g>
		<g>
			<path d="M552.9,366.5c0,91.5-74.2,165.7-165.7,165.7c-42.4,0-81.1-15.9-110.4-42.1c-15.3-13.7-28.1-30.2-37.4-48.7
				c-11.4-22.5-17.8-47.9-17.8-74.9c0-91.5,74.2-165.7,165.7-165.7C478.7,200.9,552.9,275,552.9,366.5z" style="fill:#EEBED3;"/>
			<path d="M387.2,537.2c-42,0-82.4-15.4-113.7-43.4c-15.9-14.3-28.9-31.1-38.6-50.1c-12.2-24-18.4-50-18.4-77.1
				c0-94.1,76.6-170.7,170.7-170.7c94.1,0,170.7,76.6,170.7,170.7S481.4,537.2,387.2,537.2z M387.2,205.9
				c-88.6,0-160.7,72.1-160.7,160.7c0,25.6,5.8,50,17.3,72.6c9.1,17.9,21.3,33.8,36.3,47.2c29.5,26.4,67.5,40.9,107.1,40.9
				c88.6,0,160.7-72.1,160.7-160.7S475.8,205.9,387.2,205.9z" style="fill:#383A48;"/>
		</g>
		<g>
			<circle cx="423.7" cy="275.7" r="42.4" style="fill:#EEBED3;"/>
			<path d="M423.7,323.1c-26.1,0-47.4-21.3-47.4-47.4s21.3-47.4,47.4-47.4s47.4,21.3,47.4,47.4S449.8,323.1,423.7,323.1
				z M423.7,238.3c-20.6,0-37.4,16.8-37.4,37.4s16.8,37.4,37.4,37.4s37.4-16.8,37.4-37.4S444.3,238.3,423.7,238.3z" style="fill:#F3F6E6;"/>
		</g>
		<g>
			<circle cx="393.6" cy="469.2" r="38.8" style="fill:#EEBED3;"/>
			<path d="M393.6,513c-24.2,0-43.8-19.7-43.8-43.8c0-24.2,19.7-43.8,43.8-43.8s43.8,19.7,43.8,43.8
				C437.4,493.3,417.8,513,393.6,513z M393.6,435.3c-18.7,0-33.8,15.2-33.8,33.8S375,503,393.6,503s33.8-15.2,33.8-33.8
				S412.3,435.3,393.6,435.3z" style="fill:#F3F6E6;"/>
		</g>
		<g>
			<circle cx="273.3" cy="345.1" r="27" style="fill:#EEBED3;"/>
			<path d="M273.4,377.1c-0.8,0-1.7,0-2.6-0.1c-8.5-0.7-16.3-4.6-21.8-11.1c-5.6-6.5-8.2-14.8-7.6-23.3
				c0.7-8.5,4.6-16.3,11.1-21.8c13.4-11.5,33.7-9.9,45.1,3.5c5.6,6.5,8.2,14.8,7.6,23.3c-0.7,8.5-4.6,16.3-11.1,21.8
				C288.2,374.4,281,377.1,273.4,377.1z M273.3,323.1c-5.1,0-10.1,1.7-14.3,5.3c-4.5,3.8-7.2,9.1-7.6,15c-0.5,5.9,1.4,11.5,5.2,16
				c3.8,4.5,9.1,7.2,15,7.6c5.9,0.5,11.5-1.4,16-5.2c4.5-3.8,7.2-9.1,7.6-15c0.5-5.9-1.4-11.5-5.2-16
				C285.7,325.7,279.5,323.1,273.3,323.1z" style="fill:#F3F6E6;"/>
		</g>
		<g>
			<circle cx="512.1" cy="401.3" r="27" style="fill:#EEBED3;"/>
			<path d="M512.1,433.3c-0.8,0-1.7,0-2.6-0.1c-8.5-0.7-16.3-4.6-21.8-11.1c-5.6-6.5-8.2-14.8-7.6-23.3
				c0.7-8.5,4.6-16.3,11.1-21.8c6.5-5.6,14.8-8.2,23.3-7.6c8.5,0.7,16.3,4.6,21.8,11.1c5.6,6.5,8.2,14.8,7.6,23.3
				c-0.7,8.5-4.6,16.3-11.1,21.8C527,430.7,519.7,433.3,512.1,433.3z M512,379.3c-5.2,0-10.2,1.8-14.3,5.3c-4.5,3.8-7.2,9.1-7.6,15
				c-0.5,5.9,1.4,11.5,5.2,16s9.1,7.2,15,7.6c5.9,0.5,11.5-1.4,16-5.2c4.5-3.8,7.2-9.1,7.6-15c0.5-5.9-1.4-11.5-5.2-16c0,0,0,0,0,0
				c-3.8-4.5-9.1-7.2-15-7.6C513.2,379.4,512.6,379.3,512,379.3z" style="fill:#F3F6E6;"/>
		</g>
		<g>
			<path d="M243.1,438.8c12.7-7.2,29.1-4.6,38.8,7c10.2,12.1,9.4,29.8-1.3,41" style="fill:#EEBED3;"/>
			<path d="M284.1,490.2l-7.2-6.9c9.1-9.5,9.6-24.2,1.1-34.3c-8-9.6-21.7-12-32.5-5.8l-5-8.7c15-8.6,34-5.2,45.1,8.1
				C297.4,456.5,296.7,477,284.1,490.2z" style="fill:#F3F6E6;"/>
		</g>
	</g>
	<g>
		<g>
			<path d="M637.4,769.3c0,2-0.1,4-0.2,6c-3.1,42.3-38.3,75.7-81.4,75.7c-4.1,0-8.2-0.3-12.1-0.9
				c-23.7-3.5-44.1-17.3-56.6-36.7c-8.2-12.7-12.9-27.8-12.9-44.1c0-45.1,36.5-81.6,81.6-81.6c22.3,0,42.6,9,57.3,23.5
				C628.1,726,637.4,746.5,637.4,769.3z" style="fill:#E0719E;"/>
			<path d="M555.7,855.9c-4.3,0-8.6-0.3-12.9-1c-24.6-3.7-46.5-17.9-60-38.9c-9-14-13.7-30.1-13.7-46.8
				c0-47.8,38.9-86.6,86.6-86.6c22.9,0,44.5,8.9,60.8,25c16.6,16.4,25.8,38.3,25.8,61.7c0,2.2-0.1,4.3-0.2,6.4
				C638.9,820.6,600.9,855.9,555.7,855.9z M555.7,692.6c-42.3,0-76.6,34.4-76.6,76.6c0,14.7,4.2,29,12.1,41.4
				c12,18.6,31.3,31.2,53.1,34.4c3.8,0.6,7.6,0.8,11.4,0.8c40,0,73.6-31.2,76.4-71c0.1-1.8,0.2-3.7,0.2-5.6c0-20.7-8.1-40-22.8-54.6
				C595.1,700.5,576,692.6,555.7,692.6z" style="fill:#383A48;"/>
		</g>
		<g>
			<path d="M613.1,711.2c-10.5,32.7-23.3,51-57.3,51.5c-36,0.5-59.4,15.1-68.7,50.7c-8.2-12.7-12.9-27.8-12.9-44.1
				c0-13.5,3.3-26.2,9-37.4c10-4.7,22-7,35.8-7.2c28.1-0.4,41.7-13,51.5-35.7C586.9,692,601.7,699.9,613.1,711.2z" style="fill:#F6E049;"/>
		</g>
		<g>
			<path d="M637.2,775.3c-3.1,42.3-38.3,75.7-81.4,75.7c-4.1,0-8.2-0.3-12.1-0.9v-0.8c0.1-24.1,19.6-43.6,43.7-44.2
				c0.4,0,0.8,0,1.2,0C614,804.6,627.5,794.2,637.2,775.3z" style="fill:#F6E049;"/>
		</g>
		<g>
			<path d="M555.7,855.9c-4.3,0-8.6-0.3-12.9-1c-24.6-3.7-46.5-17.9-60-38.9c-9-14-13.7-30.1-13.7-46.8
				c0-47.8,38.9-86.6,86.6-86.6c22.9,0,44.5,8.9,60.8,25c16.6,16.4,25.8,38.3,25.8,61.7c0,2.2-0.1,4.3-0.2,6.4
				C638.9,820.6,600.9,855.9,555.7,855.9z M555.7,692.6c-42.3,0-76.6,34.4-76.6,76.6c0,14.7,4.2,29,12.1,41.4
				c12,18.6,31.3,31.2,53.1,34.4c3.8,0.6,7.6,0.8,11.4,0.8c40,0,73.6-31.2,76.4-71c0.1-1.8,0.2-3.7,0.2-5.6c0-20.7-8.1-40-22.8-54.6
				C595.1,700.5,576,692.6,555.7,692.6z" style="fill:#383A48;"/>
		</g>
	</g>
	<path d="M1072.3,285.7l-30.5-20.9l18.4-32c1-1.8,0.9-4-0.4-5.6c-1.3-1.6-3.4-2.3-5.4-1.7l-35.3,10.8l-13.6-34.4
		c-0.8-1.9-2.6-3.2-4.7-3.2s-3.9,1.3-4.7,3.2l-13.6,34.4l-35.3-10.8c-2-0.6-4.1,0.1-5.4,1.7c-1.3,1.6-1.4,3.8-0.4,5.6l18.4,32
		l-30.5,20.9c-1.7,1.2-2.5,3.2-2,5.2c0.5,2,2.1,3.5,4.1,3.8l36.5,5.6l-2.7,36.9c-0.1,2,1,4,2.8,4.9c0.7,0.3,1.4,0.5,2.2,0.5
		c1.2,0,2.5-0.5,3.4-1.3l27.1-25.1l27.1,25.1c1.5,1.4,3.7,1.7,5.6,0.8c1.8-0.9,3-2.8,2.8-4.9l-2.7-36.9l36.5-5.6
		c2-0.3,3.7-1.8,4.1-3.8C1074.8,288.9,1074,286.8,1072.3,285.7z" style="fill:#F6E049;"/>
	<path d="M395.3,776.5c-12,0-13.3-11.4-13.3-16.3c0-2.8-2.2-5-5-5s-5,2.2-5,5c0,4.9-1.3,16.3-13.3,16.3
		c-2.8,0-5,2.2-5,5s2.2,5,5,5c12,0,13.3,11.4,13.3,16.3c0,2.8,2.2,5,5,5s5-2.2,5-5c0-4.9,1.3-16.3,13.3-16.3c2.8,0,5-2.2,5-5
		S398.1,776.5,395.3,776.5z" style="fill:#F3F6E6;"/>
	<path d="M615.9,535c-12,0-13.3-11.4-13.3-16.3c0-2.8-2.2-5-5-5s-5,2.2-5,5c0,4.9-1.3,16.3-13.3,16.3c-2.8,0-5,2.2-5,5
		s2.2,5,5,5c12,0,13.3,11.4,13.3,16.3c0,2.8,2.2,5,5,5s5-2.2,5-5c0-4.9,1.3-16.3,13.3-16.3c2.8,0,5-2.2,5-5S618.6,535,615.9,535z" style="fill:#F3F6E6;"/>
	<path d="M1177.4,324.9c-12,0-13.3-11.4-13.3-16.3c0-2.8-2.2-5-5-5s-5,2.2-5,5c0,4.9-1.3,16.3-13.3,16.3
		c-2.8,0-5,2.2-5,5s2.2,5,5,5c12,0,13.3,11.4,13.3,16.3c0,2.8,2.2,5,5,5s5-2.2,5-5c0-4.9,1.3-16.3,13.3-16.3c2.8,0,5-2.2,5-5
		S1180.2,324.9,1177.4,324.9z" style="fill:#F3F6E6;"/>
	<g>
		<ellipse cx="1613.7" cy="639.4" rx="18.3" ry="21.3" style="fill:#383A48;"/>
		<path d="M1613.7,665.7c-2.8,0-5-2.2-5-5c0-4.9-1.3-16.3-13.3-16.3c-2.8,0-5-2.2-5-5s2.2-5,5-5
			c12,0,13.3-11.4,13.3-16.3c0-2.8,2.2-5,5-5s5,2.2,5,5c0,4.9,1.3,16.3,13.3,16.3c2.8,0,5,2.2,5,5s-2.2,5-5,5
			c-12,0-13.3,11.4-13.3,16.3C1618.7,663.5,1616.5,665.7,1613.7,665.7z M1610.2,639.4c1.3,1.1,2.5,2.4,3.6,3.8
			c1-1.4,2.2-2.7,3.6-3.8c-1.3-1.1-2.5-2.4-3.6-3.8C1612.7,637,1611.5,638.3,1610.2,639.4z" style="fill:#383A48;"/>
	</g>
	<g>
		<g>
			<path d="M806.6,495c-11.1,0-20.2-9-20.2-20.2s9-20.2,20.2-20.2s20.2,9,20.2,20.2S817.7,495,806.6,495z M806.6,464.6
				c-5.6,0-10.2,4.6-10.2,10.2s4.6,10.2,10.2,10.2c5.6,0,10.2-4.6,10.2-10.2S812.2,464.6,806.6,464.6z" style="fill:#383A48;"/>
		</g>
		<g>
			<path d="M856.9,495c-11.1,0-20.2-9-20.2-20.2s9-20.2,20.2-20.2s20.2,9,20.2,20.2S868,495,856.9,495z M856.9,464.6
				c-5.6,0-10.2,4.6-10.2,10.2s4.6,10.2,10.2,10.2c5.6,0,10.2-4.6,10.2-10.2S862.5,464.6,856.9,464.6z" style="fill:#383A48;"/>
		</g>
		<g>
			<path d="M907.3,495c-11.1,0-20.2-9-20.2-20.2s9-20.2,20.2-20.2s20.2,9,20.2,20.2S918.4,495,907.3,495z M907.3,464.6
				c-5.6,0-10.2,4.6-10.2,10.2s4.6,10.2,10.2,10.2c5.6,0,10.2-4.6,10.2-10.2S912.9,464.6,907.3,464.6z" style="fill:#383A48;"/>
		</g>
	</g>
	<g>
		<g>
			<g>
				<circle cx="881.1" cy="640.9" r="74.6" style="fill:#7FD6C2;"/>
			</g>
			<g>
				<path d="M881.1,720.5c-43.9,0-79.6-35.7-79.6-79.6s35.7-79.6,79.6-79.6c43.9,0,79.6,35.7,79.6,79.6
					S925,720.5,881.1,720.5z M881.1,571.4c-38.4,0-69.6,31.2-69.6,69.6c0,38.4,31.2,69.6,69.6,69.6s69.6-31.2,69.6-69.6
					C950.7,602.6,919.5,571.4,881.1,571.4z" style="fill:#7FD6C2;"/>
			</g>
		</g>
		<g>
			<g>
				<circle cx="881.1" cy="620.3" r="19.4" style="fill:#F3F6E6;"/>
			</g>
			<g>
				<path d="M911.7,677.7h-61.2v-7.3c0-16.9,13.7-30.6,30.6-30.6h0c16.9,0,30.6,13.7,30.6,30.6V677.7z" style="fill:#F3F6E6;"/>
			</g>
		</g>
	</g>
	<g>
		<g>
			<g>
				<circle cx="970.3" cy="806.4" r="74.6" style="fill:#7FD6C2;"/>
			</g>
			<g>
				<path d="M970.3,885.9c-43.9,0-79.6-35.7-79.6-79.6s35.7-79.6,79.6-79.6c43.9,0,79.6,35.7,79.6,79.6
					S1014.2,885.9,970.3,885.9z M970.3,736.8c-38.4,0-69.6,31.2-69.6,69.6c0,38.4,31.2,69.6,69.6,69.6s69.6-31.2,69.6-69.6
					C1039.9,768,1008.7,736.8,970.3,736.8z" style="fill:#7FD6C2;"/>
			</g>
		</g>
		<g>
			<g>
				<circle cx="970.3" cy="785.7" r="19.4" style="fill:#F3F6E6;"/>
			</g>
			<g>
				<path d="M1000.9,843.1h-61.2v-7.3c0-16.9,13.7-30.6,30.6-30.6h0c16.9,0,30.6,13.7,30.6,30.6V843.1z" style="fill:#F3F6E6;"/>
			</g>
		</g>
	</g>
	<g>
		<g>
			<g>
				<circle cx="1150" cy="677.7" r="86.5" style="fill:#7FD6C2;"/>
			</g>
			<g>
				<path d="M1150,769.2c-50.5,0-91.5-41.1-91.5-91.5s41.1-91.5,91.5-91.5s91.5,41.1,91.5,91.5S1200.4,769.2,1150,769.2
					z M1150,596.1c-45,0-81.5,36.6-81.5,81.5s36.6,81.5,81.5,81.5c45,0,81.5-36.6,81.5-81.5S1194.9,596.1,1150,596.1z" style="fill:#7FD6C2;"/>
			</g>
		</g>
		<g>
			<g>
				<circle cx="1150" cy="653.7" r="22.6" style="fill:#F3F6E6;"/>
			</g>
			<g>
				<path d="M1185.5,720.3h-71v-8.5c0-19.6,15.9-35.5,35.5-35.5l0,0c19.6,0,35.5,15.9,35.5,35.5V720.3z" style="fill:#F3F6E6;"/>
			</g>
		</g>
	</g>
	<g>
		<g>
			<line x1="1037.8" y1="774.7" x2="1082.4" y2="738.5" style="fill:#E0719E;"/>
		</g>
		<g>
			<path d="M1037.8,779.7c-1.5,0-2.9-0.6-3.9-1.8c-1.7-2.1-1.4-5.3,0.7-7l44.6-36.2c2.1-1.7,5.3-1.4,7,0.7
				c1.7,2.1,1.4,5.3-0.7,7l-44.6,36.2C1040.1,779.3,1039,779.7,1037.8,779.7z" style="fill:#7FD6C2;"/>
		</g>
	</g>
	<g>
		<g>
			<line x1="911.7" y1="709" x2="931.7" y2="742.5" style="fill:#E0719E;"/>
		</g>
		<g>
			<path d="M931.7,747.5c-1.7,0-3.4-0.9-4.3-2.4l-20-33.6c-1.4-2.4-0.6-5.4,1.7-6.9c2.4-1.4,5.4-0.6,6.9,1.7l20,33.6
				c1.4,2.4,0.6,5.4-1.7,6.9C933.5,747.3,932.6,747.5,931.7,747.5z" style="fill:#7FD6C2;"/>
		</g>
	</g>
	<g>
		<g>
			<line x1="952.8" y1="620.3" x2="1074.1" y2="631.2" style="fill:#E0719E;"/>
		</g>
		<g>
			<path d="M1074.1,636.2c-0.1,0-0.3,0-0.5,0l-121.2-10.9c-2.8-0.2-4.8-2.7-4.5-5.4c0.2-2.8,2.7-4.8,5.4-4.5l121.2,10.9
				c2.8,0.2,4.8,2.7,4.5,5.4C1078.8,634.2,1076.6,636.2,1074.1,636.2z" style="fill:#7FD6C2;"/>
		</g>
	</g>
	<g>
		<g>
			<line x1="761.4" y1="278.8" x2="794.3" y2="278.8" style="fill:#383A48;"/>
			<rect x="761.4" y="273.8" width="33" height="10" style="fill:#383A48;"/>
		</g>
		<g>
			<line x1="777.8" y1="295.3" x2="777.8" y2="262.4" style="fill:#383A48;"/>
			<rect x="772.8" y="262.4" width="10" height="33" style="fill:#383A48;"/>
		</g>
	</g>
	<g>
		<g>
			<line x1="1579" y1="210.5" x2="1611.9" y2="210.5" style="fill:#383A48;"/>
			<rect x="1579" y="205.5" width="33" height="10" style="fill:#383A48;"/>
		</g>
		<g>
			<line x1="1595.5" y1="227" x2="1595.5" y2="194.1" style="fill:#383A48;"/>
			<rect x="1590.5" y="194.1" width="10" height="33" style="fill:#383A48;"/>
		</g>
	</g>
	<g>
		<g>
			<line x1="674.3" y1="698.3" x2="707.2" y2="698.3" style="fill:#383A48;"/>
			<rect x="674.3" y="693.3" width="33" height="10" style="fill:#383A48;"/>
		</g>
		<g>
			<line x1="690.8" y1="714.8" x2="690.8" y2="681.8" style="fill:#383A48;"/>
			<rect x="685.8" y="681.8" width="10" height="33" style="fill:#383A48;"/>
		</g>
	</g>
	<g>
		<line x1="597.6" y1="446.3" x2="756.4" y2="343" style="fill:#F3F6E6;"/>
		<path d="M597.6,451.3c-1.6,0-3.2-0.8-4.2-2.3c-1.5-2.3-0.8-5.4,1.5-6.9l158.8-103.3c2.3-1.5,5.4-0.9,6.9,1.5
			c1.5,2.3,0.8,5.4-1.5,6.9L600.3,450.5C599.5,451.1,598.6,451.3,597.6,451.3z" style="fill:#F3F6E6;"/>
	</g>
	<g>
		<circle cx="1605.6" cy="813.1" r="92.8" style="fill:#F6E049;"/>
		<path d="M1605.6,911c-53.9,0-97.8-43.9-97.8-97.8s43.9-97.8,97.8-97.8c53.9,0,97.8,43.9,97.8,97.8
			S1659.6,911,1605.6,911z M1605.6,725.3c-48.4,0-87.8,39.4-87.8,87.8s39.4,87.8,87.8,87.8s87.8-39.4,87.8-87.8
			S1654,725.3,1605.6,725.3z" style="fill:#383A48;"/>
	</g>
	<g>
		<line x1="1587.9" y1="358.5" x2="1656" y2="426.6" style="fill:#F3F6E6;"/>
		<path d="M1656,431.6c-1.3,0-2.6-0.5-3.5-1.5l-68.1-68.1c-2-2-2-5.1,0-7.1c2-2,5.1-2,7.1,0l68.1,68.1c2,2,2,5.1,0,7.1
			C1658.6,431.1,1657.3,431.6,1656,431.6z" style="fill:#383A48;"/>
	</g>
</g>
</svg>
