<?xml version="1.0" encoding="utf-8"?>
<!-- Generator: Adobe Illustrator 22.0.1, SVG Export Plug-In . SVG Version: 6.00 Build 0)  -->
<svg version="1.1" id="Layer_1" xmlns="http://www.w3.org/2000/svg" xmlns:xlink="http://www.w3.org/1999/xlink" x="0px" y="0px" viewBox="0 0 1920 1080" style="enable-background:new 0 0 1920 1080;" xml:space="preserve">

<rect y="0" width="1920" height="1080" style="fill:#AAC6FC;"/>
<g>
	<path d="M1663.8,576.2c-2.6-0.3-4.9,1.5-5.4,4c-0.1,0.3-5.4,26.8-22.3,57.5c-15.5,28.1-44.1,65.5-92.6,84.4
		c-60.7,23.6-74.9,60.9-88.6,97c-12.4,32.6-24.1,63.4-70.6,83.2c-2.2,0.9-3.4,3.3-2.9,5.6s2.5,4,4.9,4h277c2.8,0,5-2.2,5-5V581.2
		C1668.3,578.6,1666.4,576.4,1663.8,576.2z" style="fill:#F3F6E6;"/>
	<g>
		<path d="M842.9,756c0,50.9-50.6,150.8-143,150.8h143V756z" style="fill:#383A48;"/>
		<path d="M842.9,911.9H700c-2.8,0-5-2.2-5-5s2.2-5,5-5c49.7,0,83-29.6,102.2-54.4C820,824.4,838,787.2,838,756
			c0-2.8,2.2-5,5-5s5,2.2,5,5v150.8C847.9,909.6,845.7,911.9,842.9,911.9z M749.5,901.9h88.4v-98.3
			C823.5,841.7,793.5,883.2,749.5,901.9z" style="fill:#383A48;"/>
	</g>
	<g>
		<rect x="1381" y="173.1" width="282.4" height="399.4" style="fill:#AAC6FC;"/>
		<path d="M1663.3,577.5H1381c-2.8,0-5-2.2-5-5V173.1c0-2.8,2.2-5,5-5h282.4c2.8,0,5,2.2,5,5v399.4
			C1668.3,575.3,1666.1,577.5,1663.3,577.5z M1386,567.5h272.4V178.1H1386V567.5z" style="fill:#383A48;"/>
	</g>
	<g>
		<g>
			<g>
				<circle cx="1646" cy="189.7" r="5" style="fill:#383A48;"/>
			</g>
		</g>
		<g>
			<g>
				<circle cx="1646" cy="214.4" r="5" style="fill:#383A48;"/>
			</g>
		</g>
		<g>
			<g>
				<circle cx="1646" cy="239.1" r="5" style="fill:#383A48;"/>
			</g>
		</g>
		<g>
			<g>
				<circle cx="1646" cy="263.7" r="5" style="fill:#383A48;"/>
			</g>
		</g>
		<g>
			<g>
				<circle cx="1646" cy="288.4" r="5" style="fill:#383A48;"/>
			</g>
		</g>
		<g>
			<g>
				<circle cx="1646" cy="313.1" r="5" style="fill:#383A48;"/>
			</g>
		</g>
		<g>
			<g>
				<circle cx="1646" cy="337.7" r="5" style="fill:#383A48;"/>
			</g>
		</g>
		<g>
			<g>
				<circle cx="1646" cy="362.4" r="5" style="fill:#383A48;"/>
			</g>
		</g>
		<g>
			<g>
				<circle cx="1646" cy="387.1" r="5" style="fill:#383A48;"/>
			</g>
		</g>
		<g>
			<g>
				<circle cx="1646" cy="411.7" r="5" style="fill:#383A48;"/>
			</g>
		</g>
		<g>
			<g>
				<circle cx="1646" cy="436.4" r="5" style="fill:#383A48;"/>
			</g>
		</g>
		<g>
			<g>
				<circle cx="1646" cy="461.1" r="5" style="fill:#383A48;"/>
			</g>
		</g>
		<g>
			<g>
				<circle cx="1646" cy="485.7" r="5" style="fill:#383A48;"/>
			</g>
		</g>
		<g>
			<g>
				<circle cx="1646" cy="510.4" r="5" style="fill:#383A48;"/>
			</g>
		</g>
		<g>
			<g>
				<circle cx="1646" cy="535.1" r="5" style="fill:#383A48;"/>
			</g>
		</g>
		<g>
			<g>
				<circle cx="1646" cy="559.7" r="5" style="fill:#383A48;"/>
			</g>
		</g>
		<g>
			<g>
				<circle cx="1621.3" cy="189.7" r="5" style="fill:#383A48;"/>
			</g>
		</g>
		<g>
			<g>
				<circle cx="1621.3" cy="214.4" r="5" style="fill:#383A48;"/>
			</g>
		</g>
		<g>
			<g>
				<circle cx="1621.3" cy="239.1" r="5" style="fill:#383A48;"/>
			</g>
		</g>
		<g>
			<g>
				<circle cx="1621.3" cy="263.7" r="5" style="fill:#383A48;"/>
			</g>
		</g>
		<g>
			<g>
				<circle cx="1621.3" cy="288.4" r="5" style="fill:#383A48;"/>
			</g>
		</g>
		<g>
			<g>
				<circle cx="1621.3" cy="313.1" r="5" style="fill:#383A48;"/>
			</g>
		</g>
		<g>
			<g>
				<circle cx="1621.3" cy="337.7" r="5" style="fill:#383A48;"/>
			</g>
		</g>
		<g>
			<g>
				<circle cx="1621.3" cy="362.4" r="5" style="fill:#383A48;"/>
			</g>
		</g>
		<g>
			<g>
				<circle cx="1621.3" cy="387.1" r="5" style="fill:#383A48;"/>
			</g>
		</g>
		<g>
			<g>
				<circle cx="1621.3" cy="411.7" r="5" style="fill:#383A48;"/>
			</g>
		</g>
		<g>
			<g>
				<circle cx="1621.3" cy="436.4" r="5" style="fill:#383A48;"/>
			</g>
		</g>
		<g>
			<g>
				<circle cx="1621.3" cy="461.1" r="5" style="fill:#383A48;"/>
			</g>
		</g>
		<g>
			<g>
				<circle cx="1621.3" cy="485.7" r="5" style="fill:#383A48;"/>
			</g>
		</g>
		<g>
			<g>
				<circle cx="1621.3" cy="510.4" r="5" style="fill:#383A48;"/>
			</g>
		</g>
		<g>
			<g>
				<circle cx="1621.3" cy="535.1" r="5" style="fill:#383A48;"/>
			</g>
		</g>
		<g>
			<g>
				<circle cx="1621.3" cy="559.7" r="5" style="fill:#383A48;"/>
			</g>
		</g>
		<g>
			<g>
				<circle cx="1596.7" cy="189.7" r="5" style="fill:#383A48;"/>
			</g>
		</g>
		<g>
			<g>
				<circle cx="1596.7" cy="214.4" r="5" style="fill:#383A48;"/>
			</g>
		</g>
		<g>
			<g>
				<circle cx="1596.7" cy="239.1" r="5" style="fill:#383A48;"/>
			</g>
		</g>
		<g>
			<g>
				<circle cx="1596.7" cy="263.7" r="5" style="fill:#383A48;"/>
			</g>
		</g>
		<g>
			<g>
				<circle cx="1596.7" cy="288.4" r="5" style="fill:#383A48;"/>
			</g>
		</g>
		<g>
			<g>
				<circle cx="1596.7" cy="313.1" r="5" style="fill:#383A48;"/>
			</g>
		</g>
		<g>
			<g>
				<circle cx="1596.7" cy="337.7" r="5" style="fill:#383A48;"/>
			</g>
		</g>
		<g>
			<g>
				<circle cx="1596.7" cy="362.4" r="5" style="fill:#383A48;"/>
			</g>
		</g>
		<g>
			<g>
				<circle cx="1596.7" cy="387.1" r="5" style="fill:#383A48;"/>
			</g>
		</g>
		<g>
			<g>
				<circle cx="1596.7" cy="411.7" r="5" style="fill:#383A48;"/>
			</g>
		</g>
		<g>
			<g>
				<circle cx="1596.7" cy="436.4" r="5" style="fill:#383A48;"/>
			</g>
		</g>
		<g>
			<g>
				<circle cx="1596.7" cy="461.1" r="5" style="fill:#383A48;"/>
			</g>
		</g>
		<g>
			<g>
				<circle cx="1596.7" cy="485.7" r="5" style="fill:#383A48;"/>
			</g>
		</g>
		<g>
			<g>
				<circle cx="1596.7" cy="510.4" r="5" style="fill:#383A48;"/>
			</g>
		</g>
		<g>
			<g>
				<circle cx="1596.7" cy="535.1" r="5" style="fill:#383A48;"/>
			</g>
		</g>
		<g>
			<g>
				<circle cx="1596.7" cy="559.7" r="5" style="fill:#383A48;"/>
			</g>
		</g>
		<g>
			<g>
				<circle cx="1572" cy="189.7" r="5" style="fill:#383A48;"/>
			</g>
		</g>
		<g>
			<g>
				<circle cx="1572" cy="214.4" r="5" style="fill:#383A48;"/>
			</g>
		</g>
		<g>
			<g>
				<circle cx="1572" cy="239.1" r="5" style="fill:#383A48;"/>
			</g>
		</g>
		<g>
			<g>
				<circle cx="1572" cy="263.7" r="5" style="fill:#383A48;"/>
			</g>
		</g>
		<g>
			<g>
				<circle cx="1572" cy="288.4" r="5" style="fill:#383A48;"/>
			</g>
		</g>
		<g>
			<g>
				<circle cx="1572" cy="313.1" r="5" style="fill:#383A48;"/>
			</g>
		</g>
		<g>
			<g>
				<circle cx="1572" cy="337.7" r="5" style="fill:#383A48;"/>
			</g>
		</g>
		<g>
			<g>
				<circle cx="1572" cy="362.4" r="5" style="fill:#383A48;"/>
			</g>
		</g>
		<g>
			<g>
				<circle cx="1572" cy="387.1" r="5" style="fill:#383A48;"/>
			</g>
		</g>
		<g>
			<g>
				<circle cx="1572" cy="411.7" r="5" style="fill:#383A48;"/>
			</g>
		</g>
		<g>
			<g>
				<circle cx="1572" cy="436.4" r="5" style="fill:#383A48;"/>
			</g>
		</g>
		<g>
			<g>
				<circle cx="1572" cy="461.1" r="5" style="fill:#383A48;"/>
			</g>
		</g>
		<g>
			<g>
				<circle cx="1572" cy="485.7" r="5" style="fill:#383A48;"/>
			</g>
		</g>
		<g>
			<g>
				<circle cx="1572" cy="510.4" r="5" style="fill:#383A48;"/>
			</g>
		</g>
		<g>
			<g>
				<circle cx="1572" cy="535.1" r="5" style="fill:#383A48;"/>
			</g>
		</g>
		<g>
			<g>
				<circle cx="1572" cy="559.7" r="5" style="fill:#383A48;"/>
			</g>
		</g>
		<g>
			<g>
				<circle cx="1547.3" cy="189.7" r="5" style="fill:#383A48;"/>
			</g>
		</g>
		<g>
			<g>
				<circle cx="1547.3" cy="214.4" r="5" style="fill:#383A48;"/>
			</g>
		</g>
		<g>
			<g>
				<circle cx="1547.3" cy="239.1" r="5" style="fill:#383A48;"/>
			</g>
		</g>
		<g>
			<g>
				<circle cx="1547.3" cy="263.7" r="5" style="fill:#383A48;"/>
			</g>
		</g>
		<g>
			<g>
				<circle cx="1547.3" cy="288.4" r="5" style="fill:#383A48;"/>
			</g>
		</g>
		<g>
			<g>
				<circle cx="1547.3" cy="313.1" r="5" style="fill:#383A48;"/>
			</g>
		</g>
		<g>
			<g>
				<circle cx="1547.3" cy="337.7" r="5" style="fill:#383A48;"/>
			</g>
		</g>
		<g>
			<g>
				<circle cx="1547.3" cy="362.4" r="5" style="fill:#383A48;"/>
			</g>
		</g>
		<g>
			<g>
				<circle cx="1547.3" cy="387.1" r="5" style="fill:#383A48;"/>
			</g>
		</g>
		<g>
			<g>
				<circle cx="1547.3" cy="411.7" r="5" style="fill:#383A48;"/>
			</g>
		</g>
		<g>
			<g>
				<circle cx="1547.3" cy="436.4" r="5" style="fill:#383A48;"/>
			</g>
		</g>
		<g>
			<g>
				<circle cx="1547.3" cy="461.1" r="5" style="fill:#383A48;"/>
			</g>
		</g>
		<g>
			<g>
				<circle cx="1547.3" cy="485.7" r="5" style="fill:#383A48;"/>
			</g>
		</g>
		<g>
			<g>
				<circle cx="1547.3" cy="510.4" r="5" style="fill:#383A48;"/>
			</g>
		</g>
		<g>
			<g>
				<circle cx="1547.3" cy="535.1" r="5" style="fill:#383A48;"/>
			</g>
		</g>
		<g>
			<g>
				<circle cx="1547.3" cy="559.7" r="5" style="fill:#383A48;"/>
			</g>
		</g>
		<g>
			<g>
				<circle cx="1522.7" cy="189.7" r="5" style="fill:#383A48;"/>
			</g>
		</g>
		<g>
			<g>
				<circle cx="1522.7" cy="214.4" r="5" style="fill:#383A48;"/>
			</g>
		</g>
		<g>
			<g>
				<circle cx="1522.7" cy="239.1" r="5" style="fill:#383A48;"/>
			</g>
		</g>
		<g>
			<g>
				<circle cx="1522.7" cy="263.7" r="5" style="fill:#383A48;"/>
			</g>
		</g>
		<g>
			<g>
				<circle cx="1522.7" cy="288.4" r="5" style="fill:#383A48;"/>
			</g>
		</g>
		<g>
			<g>
				<circle cx="1522.7" cy="313.1" r="5" style="fill:#383A48;"/>
			</g>
		</g>
		<g>
			<g>
				<circle cx="1522.7" cy="337.7" r="5" style="fill:#383A48;"/>
			</g>
		</g>
		<g>
			<g>
				<circle cx="1522.7" cy="362.4" r="5" style="fill:#383A48;"/>
			</g>
		</g>
		<g>
			<g>
				<circle cx="1522.7" cy="387.1" r="5" style="fill:#383A48;"/>
			</g>
		</g>
		<g>
			<g>
				<circle cx="1522.7" cy="411.7" r="5" style="fill:#383A48;"/>
			</g>
		</g>
		<g>
			<g>
				<circle cx="1522.7" cy="436.4" r="5" style="fill:#383A48;"/>
			</g>
		</g>
		<g>
			<g>
				<circle cx="1522.7" cy="461.1" r="5" style="fill:#383A48;"/>
			</g>
		</g>
		<g>
			<g>
				<circle cx="1522.7" cy="485.7" r="5" style="fill:#383A48;"/>
			</g>
		</g>
		<g>
			<g>
				<circle cx="1522.7" cy="510.4" r="5" style="fill:#383A48;"/>
			</g>
		</g>
		<g>
			<g>
				<circle cx="1522.7" cy="535.1" r="5" style="fill:#383A48;"/>
			</g>
		</g>
		<g>
			<g>
				<circle cx="1522.7" cy="559.7" r="5" style="fill:#383A48;"/>
			</g>
		</g>
		<g>
			<g>
				<circle cx="1498" cy="189.7" r="5" style="fill:#383A48;"/>
			</g>
		</g>
		<g>
			<g>
				<circle cx="1498" cy="214.4" r="5" style="fill:#383A48;"/>
			</g>
		</g>
		<g>
			<g>
				<circle cx="1498" cy="239.1" r="5" style="fill:#383A48;"/>
			</g>
		</g>
		<g>
			<g>
				<circle cx="1498" cy="263.7" r="5" style="fill:#383A48;"/>
			</g>
		</g>
		<g>
			<g>
				<circle cx="1498" cy="288.4" r="5" style="fill:#383A48;"/>
			</g>
		</g>
		<g>
			<g>
				<circle cx="1498" cy="313.1" r="5" style="fill:#383A48;"/>
			</g>
		</g>
		<g>
			<g>
				<circle cx="1498" cy="337.7" r="5" style="fill:#383A48;"/>
			</g>
		</g>
		<g>
			<g>
				<circle cx="1498" cy="362.4" r="5" style="fill:#383A48;"/>
			</g>
		</g>
		<g>
			<g>
				<circle cx="1498" cy="387.1" r="5" style="fill:#383A48;"/>
			</g>
		</g>
		<g>
			<g>
				<circle cx="1498" cy="411.7" r="5" style="fill:#383A48;"/>
			</g>
		</g>
		<g>
			<g>
				<circle cx="1498" cy="436.4" r="5" style="fill:#383A48;"/>
			</g>
		</g>
		<g>
			<g>
				<circle cx="1498" cy="461.1" r="5" style="fill:#383A48;"/>
			</g>
		</g>
		<g>
			<g>
				<circle cx="1498" cy="485.7" r="5" style="fill:#383A48;"/>
			</g>
		</g>
		<g>
			<g>
				<circle cx="1498" cy="510.4" r="5" style="fill:#383A48;"/>
			</g>
		</g>
		<g>
			<g>
				<circle cx="1498" cy="535.1" r="5" style="fill:#383A48;"/>
			</g>
		</g>
		<g>
			<g>
				<circle cx="1498" cy="559.7" r="5" style="fill:#383A48;"/>
			</g>
		</g>
		<g>
			<g>
				<circle cx="1473.3" cy="189.7" r="5" style="fill:#383A48;"/>
			</g>
		</g>
		<g>
			<g>
				<circle cx="1473.3" cy="214.4" r="5" style="fill:#383A48;"/>
			</g>
		</g>
		<g>
			<g>
				<circle cx="1473.3" cy="239.1" r="5" style="fill:#383A48;"/>
			</g>
		</g>
		<g>
			<g>
				<circle cx="1473.3" cy="263.7" r="5" style="fill:#383A48;"/>
			</g>
		</g>
		<g>
			<g>
				<circle cx="1473.3" cy="288.4" r="5" style="fill:#383A48;"/>
			</g>
		</g>
		<g>
			<g>
				<circle cx="1473.3" cy="313.1" r="5" style="fill:#383A48;"/>
			</g>
		</g>
		<g>
			<g>
				<circle cx="1473.3" cy="337.7" r="5" style="fill:#383A48;"/>
			</g>
		</g>
		<g>
			<g>
				<circle cx="1473.3" cy="362.4" r="5" style="fill:#383A48;"/>
			</g>
		</g>
		<g>
			<g>
				<circle cx="1473.3" cy="387.1" r="5" style="fill:#383A48;"/>
			</g>
		</g>
		<g>
			<g>
				<circle cx="1473.3" cy="411.7" r="5" style="fill:#383A48;"/>
			</g>
		</g>
		<g>
			<g>
				<circle cx="1473.3" cy="436.4" r="5" style="fill:#383A48;"/>
			</g>
		</g>
		<g>
			<g>
				<circle cx="1473.3" cy="461.1" r="5" style="fill:#383A48;"/>
			</g>
		</g>
		<g>
			<g>
				<circle cx="1473.3" cy="485.7" r="5" style="fill:#383A48;"/>
			</g>
		</g>
		<g>
			<g>
				<circle cx="1473.3" cy="510.4" r="5" style="fill:#383A48;"/>
			</g>
		</g>
		<g>
			<g>
				<circle cx="1473.3" cy="535.1" r="5" style="fill:#383A48;"/>
			</g>
		</g>
		<g>
			<g>
				<circle cx="1473.3" cy="559.7" r="5" style="fill:#383A48;"/>
			</g>
		</g>
	</g>
	<path d="M1192.5,168.1h-116.6H959.3H842.7H726.2H609.6H493c-2.8,0-5,2.2-5,5v116.6v116.6v116.6v116.6V756
		c0,2.8,2.2,5,5,5h116.6h116.6h116.6h116.6H1076h116.6c2.8,0,5-2.2,5-5V639.5V522.9V406.3V289.7V173.1
		C1197.5,170.4,1195.2,168.1,1192.5,168.1z M1187.5,401.3h-106.6V294.7h106.6V401.3z M1187.5,517.9h-106.6V411.3h106.6V517.9z
		 M498,411.3h106.6v106.6H498V411.3z M614.6,411.3h106.6v106.6H614.6V411.3z M731.2,411.3h106.6v106.6H731.2V411.3z M847.7,411.3
		h106.6v106.6H847.7V411.3z M964.3,411.3h106.6v106.6H964.3V411.3z M1070.9,401.3H964.3V294.7h106.6V401.3z M954.3,401.3H847.7
		V294.7h106.6V401.3z M837.7,401.3H731.2V294.7h106.6L837.7,401.3L837.7,401.3z M721.2,401.3H614.6V294.7h106.6L721.2,401.3
		L721.2,401.3z M604.6,401.3H498V294.7h106.6V401.3z M498,527.9h106.6v106.6H498V527.9z M614.6,527.9h106.6v106.6H614.6V527.9z
		 M731.2,527.9h106.6v106.6H731.2V527.9z M847.7,527.9h106.6v106.6H847.7V527.9z M964.3,527.9h106.6v106.6H964.3V527.9z
		 M1080.9,527.9h106.6v106.6h-106.6V527.9z M1187.5,284.7h-106.6V178.1h106.6V284.7z M1070.9,284.7H964.3V178.1h106.6V284.7z
		 M954.3,284.7H847.7V178.1h106.6V284.7z M837.7,284.7H731.2V178.1h106.6L837.7,284.7L837.7,284.7z M721.2,284.7H614.6V178.1h106.6
		L721.2,284.7L721.2,284.7z M498,178.1h106.6v106.6H498V178.1z M498,644.5h106.6V751H498V644.5z M614.6,644.5h106.6V751H614.6V644.5
		z M731.2,644.5h106.6V751H731.2V644.5z M847.7,644.5h106.6V751H847.7V644.5z M964.3,644.5h106.6V751H964.3V644.5z M1187.5,751
		h-106.6V644.5h106.6V751z" style="fill:#7EA9EA;"/>
	<path d="M943.6,351.2L927,339.9l10-17.4c1-1.8,0.9-4-0.4-5.6c-1.3-1.6-3.4-2.3-5.4-1.7l-19.2,5.9l-7.4-18.7
		c-0.8-1.9-2.6-3.2-4.7-3.2s-3.9,1.3-4.7,3.2l-7.4,18.7l-19.2-5.9c-2-0.6-4.1,0.1-5.4,1.7c-1.3,1.6-1.4,3.8-0.4,5.6l10,17.4
		l-16.6,11.3c-1.7,1.2-2.5,3.2-2,5.2s2.1,3.5,4.1,3.8l19.8,3l-1.5,20c-0.1,2,1,4,2.8,4.9c0.7,0.3,1.4,0.5,2.2,0.5
		c1.2,0,2.5-0.5,3.4-1.3l14.7-13.6l14.7,13.6c1.5,1.4,3.7,1.7,5.6,0.8c1.8-0.9,3-2.8,2.8-4.9l-1.5-20l19.8-3c2-0.3,3.7-1.8,4.1-3.8
		C946.1,354.5,945.3,352.4,943.6,351.2z" style="fill:#F6E049;"/>
	<g>
		<path d="M699.2,908.3c-0.6,2.1-2.6,3.6-4.8,3.6H354.6c-2.2,0-4.2-1.5-4.8-3.6c-0.6-2.1,0.2-4.4,2.1-5.6
			c47-30.7,73.7-63.5,81.1-100.4c4.2-20.8,2.2-43-5.7-66.8c-5.4-16.2-15.9-32.8-27-50.2c-16.2-25.5-35.3-55.4-44.7-94.6
			c-3.7-15.4-5.9-32.1-5.9-50.6c0-65.6,28.1-109.8,50.7-145.2c11.1-17.5,21.6-34,27-50.2c22-66.1-1.9-119.2-75.4-167.2
			c-1.9-1.2-2.7-3.5-2.1-5.6s2.6-3.6,4.8-3.6h339.8c2.2,0,4.2,1.5,4.8,3.6s-0.2,4.4-2.1,5.6c-73.5,48-97.4,101.2-75.4,167.2
			c5.4,16.2,15.9,32.8,27,50.2c22.6,35.5,50.7,79.6,50.7,145.2s-28.1,109.8-50.7,145.2c-11.1,17.5-21.6,34-27,50.2
			c-22,66.1,1.9,119.2,75.4,167.2C699,903.9,699.8,906.2,699.2,908.3z" style="fill:#F3F6E6;"/>
	</g>
	<g>
		<polygon points="1591.3,372.8 1591.3,572.5 1391.6,572.5 		" style="fill:#383A48;"/>
		<path d="M1591.3,577.5h-199.7c-2,0-3.8-1.2-4.6-3.1c-0.8-1.9-0.3-4,1.1-5.4l199.7-199.7c1.4-1.4,3.6-1.9,5.4-1.1
			c1.9,0.8,3.1,2.6,3.1,4.6v199.7C1596.3,575.3,1594.1,577.5,1591.3,577.5z M1403.7,567.5h182.6V384.9L1403.7,567.5z" style="fill:#383A48;"/>
	</g>
	<g>
		<g>
			<circle cx="1391.6" cy="372.8" r="199.7" style="fill:#AAC6FC;"/>
			<path d="M1391.6,577.5c-112.9,0-204.7-91.8-204.7-204.7s91.8-204.7,204.7-204.7c112.9,0,204.7,91.8,204.7,204.7
				C1596.3,485.7,1504.5,577.5,1391.6,577.5z M1391.6,178.1c-107.4,0-194.7,87.3-194.7,194.7s87.3,194.7,194.7,194.7
				s194.7-87.3,194.7-194.7S1499,178.1,1391.6,178.1z" style="fill:#383A48;"/>
		</g>
		<g>
			<path d="M1591.3,372.8c0,0-89.4,96.7-199.7,96.7s-199.7-96.7-199.7-96.7s89.4-96.7,199.7-96.7
				S1591.3,372.8,1591.3,372.8z" style="fill:#F3F6E6;"/>
			<path d="M1391.6,474.5c-58.2,0-110.4-26.7-144-49.2c-36.2-24.2-58.5-48.1-59.4-49.1c-1.8-1.9-1.8-4.9,0-6.8
				c0.9-1,23.2-24.9,59.4-49.1c33.5-22.4,85.8-49.2,144-49.2s110.4,26.7,144,49.2c36.2,24.2,58.5,48.1,59.4,49.1
				c1.8,1.9,1.8,4.9,0,6.8c-0.9,1-23.2,24.9-59.4,49.1C1502.1,447.8,1449.9,474.5,1391.6,474.5z M1198.9,372.8
				c7.4,7.4,27,26,54.5,44.3c32.3,21.6,82.6,47.4,138.2,47.4s105.9-25.8,138.2-47.4c27.5-18.3,47-36.9,54.5-44.3
				c-7.4-7.4-27-26-54.5-44.3c-32.3-21.6-82.6-47.4-138.2-47.4c-55.7,0-106,25.8-138.4,47.5C1225.8,347,1206.3,365.4,1198.9,372.8z" style="fill:#383A48;"/>
		</g>
		<g>
			<circle cx="1391.6" cy="372.8" r="65.1" style="fill:#383A48;"/>
			<path d="M1391.6,443c-38.7,0-70.1-31.5-70.1-70.1s31.5-70.1,70.1-70.1s70.1,31.5,70.1,70.1S1430.3,443,1391.6,443z
				 M1391.6,312.7c-33.2,0-60.1,27-60.1,60.1s27,60.1,60.1,60.1s60.1-27,60.1-60.1S1424.8,312.7,1391.6,312.7z" style="fill:#383A48;"/>
		</g>
	</g>
	<g>
		<g>
			<rect x="842.7" y="572.5" width="538.2" height="334.3" style="fill:#F3F6E6;"/>
			<path d="M1381,911.9H842.7c-2.8,0-5-2.2-5-5V572.5c0-2.8,2.2-5,5-5H1381c2.8,0,5,2.2,5,5v334.3
				C1386,909.6,1383.7,911.9,1381,911.9z M847.7,901.9H1376V577.5H847.7V901.9z" style="fill:#383A48;"/>
		</g>
		<g>
			<rect x="842.7" y="572.5" width="538.2" height="67.5" style="fill:#AAC6FC;"/>
			<path d="M1381,645.1H842.7c-2.8,0-5-2.2-5-5v-67.5c0-2.8,2.2-5,5-5H1381c2.8,0,5,2.2,5,5v67.5
				C1386,642.8,1383.7,645.1,1381,645.1z M847.7,635.1H1376v-57.5H847.7V635.1z" style="fill:#383A48;"/>
		</g>
		<g>
			<g>
				<circle cx="1105.6" cy="763.9" r="43" style="fill:#AAC6FC;"/>
				<path d="M1105.6,811.9c-26.5,0-48-21.5-48-48s21.5-48,48-48s48,21.5,48,48S1132.1,811.9,1105.6,811.9z
					 M1105.6,725.9c-21,0-38,17-38,38s17,38,38,38s38-17,38-38S1126.5,725.9,1105.6,725.9z" style="fill:#383A48;"/>
			</g>
			<g>
				<line x1="1136" y1="794.3" x2="1171.1" y2="829.4" style="fill:none;"/>
				<path d="M1171.1,834.4c-1.3,0-2.6-0.5-3.5-1.5l-35.1-35.1c-2-2-2-5.1,0-7.1s5.1-2,7.1,0l35.1,35.1c2,2,2,5.1,0,7.1
					C1173.6,833.9,1172.4,834.4,1171.1,834.4z" style="fill:#383A48;"/>
			</g>
		</g>
	</g>
	<g>
		<path d="M530.1,505.5c-1.3,0-2.6-0.5-3.5-1.5L199.2,176.7c-2-2-2-5.1,0-7.1s5.1-2,7.1,0L533.6,497c2,2,2,5.1,0,7.1
			C532.7,505,531.4,505.5,530.1,505.5z" style="fill:#383A48;"/>
	</g>
	<g>
		<path d="M1629.3,742.6c-1.3,0-2.6-0.5-3.5-1.5l-79.7-79.7c-2-2-2-5.1,0-7.1s5.1-2,7.1,0l79.7,79.7c2,2,2,5.1,0,7.1
			C1631.8,742.1,1630.6,742.6,1629.3,742.6z" style="fill:#383A48;"/>
	</g>
	<g>
		<path d="M1017.6,268.5c-20.4,0-37-16.6-37-37s16.6-37,37-37s37,16.6,37,37S1038,268.5,1017.6,268.5z M1017.6,204.4
			c-14.9,0-27,12.1-27,27s12.1,27,27,27s27-12.1,27-27S1032.5,204.4,1017.6,204.4z" style="fill:#383A48;"/>
	</g>
	<g>
		<path d="M433,802.2c-13.1,5.3-27.3,8.2-42.3,8.2C328.5,810.5,278,760,278,697.7c0-50,32.5-92.4,77.5-107.1
			c9.4,39.2,28.5,69.1,44.7,94.6c11.1,17.5,21.6,34,27,50.2C435.2,759.3,437.2,781.4,433,802.2z" style="fill:#383A48;"/>
	</g>
	<g>
		<path d="M503.5,697.7c0,47.3-29.1,87.8-70.4,104.5c4.2-20.8,2.2-43-5.7-66.8c-5.4-16.2-15.9-32.8-27-50.2
			c-16.2-25.5-35.3-55.4-44.7-94.6c11.1-3.6,22.9-5.6,35.2-5.6C453,585,503.5,635.5,503.5,697.7z" style="fill:#F6E049;"/>
	</g>
	<g>
		<g>
			<rect x="519.5" y="292.6" width="10" height="33" style="fill:#383A48;"/>
		</g>
		<g>
			<line x1="508" y1="309" x2="541" y2="309" style="fill:none;"/>
			<rect x="508" y="304" width="33" height="10" style="fill:#383A48;"/>
		</g>
	</g>
	<g>
		<g>
			<rect x="1517.1" y="815.4" width="10" height="33" style="fill:#383A48;"/>
		</g>
		<g>
			<line x1="1505.7" y1="831.8" x2="1538.6" y2="831.8" style="fill:none;"/>
			<rect x="1505.7" y="826.8" width="33" height="10" style="fill:#383A48;"/>
		</g>
	</g>
</g>
</svg>
