<?xml version="1.0" encoding="UTF-8"?>
<svg width="1500px" height="790px" viewBox="0 0 1500 790" version="1.1" xmlns="http://www.w3.org/2000/svg" xmlns:xlink="http://www.w3.org/1999/xlink">
    <!-- Generator: Sketch 59.1 (86144) - https://sketch.com -->
    <title>abstract-5</title>
    <desc>Created with Sketch.</desc>
    <g id="Page-1" stroke="none" stroke-width="1" fill="none" fill-rule="evenodd">
        <g id="abstract-5" transform="translate(-201.000000, -145.000000)">
            <g id="Group" transform="translate(201.000000, 145.000000)">
                <path d="M631.1,649.9 C629.2,649.1 627,649.6 625.6,651.1 L501.8,780.9 C500.4,782.3 500,784.5 500.8,786.3 C501.6,788.1 503.4,789.3 505.4,789.3 L629.2,789.3 C632,789.3 634.2,787.1 634.2,784.3 L634.2,654.6 C634.2,652.5 633,650.7 631.1,649.9 Z" id="Path" fill="#4053FA" fill-rule="nonzero"></path>
                <path d="M1495.3,345.6 C1492.8,345.3 1490.5,346.8 1489.8,349.2 C1489.6,349.8 1474,406.7 1437.7,470.1 C1416.5,507.2 1392.4,539.2 1366.3,565.2 C1333.7,597.6 1297.8,620.7 1259.4,634 C1202.8,653.6 1150.2,664.6 1103.7,674.3 C1009.9,693.9 935.8,709.4 890.6,781.7 C889.6,783.2 889.6,785.2 890.5,786.8 C891.4,788.4 893.1,789.4 894.9,789.4 L1494.7,789.4 C1497.5,789.4 1499.7,787.2 1499.7,784.4 L1499.7,350.5 C1499.6,348 1497.7,345.9 1495.3,345.6 Z" id="Path" fill="#F3F6E6" fill-rule="nonzero"></path>
                <path d="M1496.5,649.9 C1494.6,649.1 1492.4,649.6 1491,651.1 L1367.2,780.9 C1365.8,782.3 1365.4,784.5 1366.2,786.3 C1367,788.1 1368.8,789.3 1370.8,789.3 L1494.6,789.3 C1497.4,789.3 1499.6,787.1 1499.6,784.3 L1499.6,654.6 C1499.6,652.5 1498.4,650.7 1496.5,649.9 Z" id="Path" fill="#F6E049" fill-rule="nonzero"></path>
                <path d="M888.8,0.7 L759,0.7 L629.2,0.7 C626.4,0.7 624.2,2.9 624.2,5.7 L624.2,135.5 L624.2,265.3 L624.2,395 L624.2,524.8 L624.2,654.6 L624.2,784.4 C624.2,787.2 626.4,789.4 629.2,789.4 L759,789.4 L888.8,789.4 C891.6,789.4 893.8,787.2 893.8,784.4 L893.8,654.6 L893.8,524.8 L893.8,395 L893.8,265.2 L893.8,135.4 L893.8,5.7 C893.8,2.9 891.5,0.7 888.8,0.7 Z M883.8,260.2 L764,260.2 L764,140.4 L883.8,140.4 L883.8,260.2 Z M883.8,390 L764,390 L764,270.2 L883.8,270.2 L883.8,390 Z M883.8,519.8 L764,519.8 L764,400 L883.8,400 L883.8,519.8 Z M634.2,400 L754,400 L754,519.8 L634.2,519.8 L634.2,400 Z M634.2,270.2 L754,270.2 L754,390 L634.2,390 L634.2,270.2 Z M754,260.2 L634.2,260.2 L634.2,140.4 L754,140.4 L754,260.2 Z M634.2,529.8 L754,529.8 L754,649.6 L634.2,649.6 L634.2,529.8 Z M764,529.8 L883.8,529.8 L883.8,649.6 L764,649.6 L764,529.8 Z M883.8,130.4 L764,130.4 L764,10.7 L883.8,10.7 L883.8,130.4 Z M634.2,10.7 L754,10.7 L754,130.5 L634.2,130.5 L634.2,10.7 Z M634.2,659.6 L754,659.6 L754,751 L754,779.3 L634.2,779.3 L634.2,659.6 Z M883.8,779.3 L764,779.3 L764,751 L764,659.5 L883.8,659.5 L883.8,779.3 Z" id="Shape" fill="#F3F6E6" fill-rule="nonzero"></path>
                <g transform="translate(18.000000, 220.000000)" fill-rule="nonzero">
                    <g transform="translate(0.000000, 25.000000)" fill="#383A48">
                        <g transform="translate(0.000000, 246.000000)">
                            <path d="M293.7,139.5 L159.3,5.1 L119.3,31.3 L119.3,31.3 C132.9,62.9 125.9,99.6 101.6,123.9 L5.4,195 L5.4,220 L78.7,293.3 L174.9,197.1 C199.2,172.8 235.9,165.8 267.5,179.4 L267.5,179.4 L293.7,139.5 Z" id="Path"></path>
                            <path d="M78.7,298.3 C77.4,298.3 76.1,297.8 75.2,296.8 L1.9,223.5 C1,222.6 0.4,221.3 0.4,220 L0.4,195 C0.4,193.4 1.2,191.9 2.4,191 L98.3,120.1 C121.1,97.1 127.5,63.1 114.7,33.3 C113.7,31.1 114.5,28.5 116.5,27.1 L156.5,0.9 C158.5,-0.4 161.1,-0.1 162.8,1.5 L297.2,136 C298.9,137.7 299.1,140.3 297.8,142.3 L271.6,182.3 C270.3,184.3 267.7,185.1 265.4,184.2 C235.5,171.3 201.4,177.9 178.3,200.9 L82.1,297.1 C81.3,297.9 80,298.3 78.7,298.3 Z M10.4,218 L78.7,286.3 L171.3,193.7 C196.2,168.8 232.8,161 265.5,173.3 L287.2,140.2 L158.6,11.5 L125.5,33.2 C137.8,65.9 130.1,102.4 105.1,127.4 C104.9,127.6 104.7,127.7 104.5,127.9 L10.4,197.5 L10.4,218 Z" id="Shape"></path>
                        </g>
                        <g transform="translate(106.000000, 0.000000)">
                            <path d="M370.4,370.7 C313.8,427.3 233.4,445.5 161.4,425.4 L13.3,277.3 C-6.8,205.3 11.4,124.9 68,68.3 C151.5,-15.2 286.9,-15.2 370.4,68.3 C453.9,151.8 453.9,287.2 370.4,370.7 Z" id="Path"></path>
                            <path d="M219,438.4 C199.3,438.4 179.5,435.8 160.1,430.3 C159.3,430.1 158.5,429.6 157.9,429 L9.8,280.8 C9.2,280.2 8.8,279.4 8.5,278.6 C-12.8,202.5 8.7,120.6 64.5,64.7 C105.8,23.4 160.8,0.6 219.2,0.6 C277.7,0.6 332.6,23.4 373.9,64.7 C415.2,106 438,161 438,219.4 C438,277.9 415.2,332.8 373.9,374.1 C332.4,415.8 276.3,438.4 219,438.4 Z M164.1,421 C236.4,440.7 314,420.2 366.9,367.2 C448.3,285.8 448.3,153.3 366.9,71.9 C285.5,-9.5 153,-9.5 71.6,71.9 C18.6,124.9 -1.9,202.5 17.8,274.7 L164.1,421 Z" id="Shape"></path>
                        </g>
                    </g>
                    <g>
                        <g transform="translate(0.000000, 245.000000)">
                            <path d="M293.7,140.4 L159.3,6 L119.3,32.2 L119.3,32.2 C132.9,63.8 125.9,100.5 101.6,124.8 L5.4,221 L78.7,294.3 L174.9,198.1 C199.2,173.8 235.9,166.8 267.5,180.4 L267.5,180.4 L293.7,140.4 Z" id="Path" fill="#F6E049"></path>
                            <path d="M78.7,299.3 C77.4,299.3 76.1,298.8 75.2,297.8 L1.9,224.5 C-0.1,222.5 -0.1,219.4 1.9,217.4 L98.1,121.2 C121.1,98.2 127.7,64 114.8,34.1 C113.8,31.9 114.6,29.3 116.7,27.9 L156.7,1.7 C158.7,0.4 161.3,0.7 163,2.3 L297.4,136.7 C299.1,138.4 299.3,141 298,143 L271.8,183 C270.5,185 267.9,185.8 265.6,184.9 C235.7,172 201.6,178.6 178.5,201.6 L82.3,297.8 C81.3,298.8 80,299.3 78.7,299.3 Z M12.5,221 L78.8,287.3 L171.4,194.7 C196.3,169.8 232.9,162 265.6,174.3 L287.3,141.2 L158.6,12.4 L125.5,34.1 C137.8,66.8 130.1,103.3 105.1,128.3 L12.5,221 Z" id="Shape" fill="#383A48"></path>
                        </g>
                        <g transform="translate(106.000000, 0.000000)">
                            <path d="M370.4,370.7 C313.8,427.3 233.4,445.5 161.4,425.4 L13.3,277.2 C-6.8,205.2 11.4,124.8 68,68.2 C151.5,-15.3 286.9,-15.3 370.4,68.2 C453.9,151.7 453.9,287.2 370.4,370.7 Z" id="Path" fill="#E0719E"></path>
                            <path d="M219,438.3 C199.3,438.3 179.5,435.7 160.1,430.2 C159.3,430 158.5,429.5 157.9,428.9 L9.8,280.8 C9.2,280.2 8.8,279.4 8.5,278.6 C-12.8,202.5 8.7,120.6 64.5,64.7 C105.8,23.4 160.8,0.6 219.2,0.6 C277.7,0.6 332.6,23.4 373.9,64.7 C415.2,106 438,161 438,219.4 C438,277.8 415.3,332.9 374,374.2 C332.4,415.8 276.3,438.3 219,438.3 Z M164.1,420.9 C236.4,440.6 314,420.1 366.9,367.1 C448.3,285.7 448.3,153.2 366.9,71.8 C285.5,-9.6 153,-9.6 71.6,71.8 C18.6,124.8 -1.9,202.4 17.8,274.6 L164.1,420.9 Z" id="Shape" fill="#383A48"></path>
                        </g>
                    </g>
                    <g transform="translate(175.000000, 68.000000)" fill="#383A48" id="Oval">
                        <circle cx="269.8" cy="93.7" r="5"></circle>
                        <circle cx="269.8" cy="137.7" r="5"></circle>
                        <circle cx="269.8" cy="181.7" r="5"></circle>
                        <circle cx="225.8" cy="49.7" r="5"></circle>
                        <circle cx="225.8" cy="93.7" r="5"></circle>
                        <circle cx="225.8" cy="137.7" r="5"></circle>
                        <circle cx="225.8" cy="181.7" r="5"></circle>
                        <circle cx="225.8" cy="225.7" r="5"></circle>
                        <circle cx="181.8" cy="5.7" r="5"></circle>
                        <circle cx="181.8" cy="49.7" r="5"></circle>
                        <circle cx="181.8" cy="93.7" r="5"></circle>
                        <circle cx="181.8" cy="137.7" r="5"></circle>
                        <circle cx="181.8" cy="181.7" r="5"></circle>
                        <circle cx="181.8" cy="225.7" r="5"></circle>
                        <circle cx="181.8" cy="269.7" r="5"></circle>
                        <circle cx="137.8" cy="5.7" r="5"></circle>
                        <circle cx="137.8" cy="49.7" r="5"></circle>
                        <circle cx="137.8" cy="93.7" r="5"></circle>
                        <circle cx="137.8" cy="137.7" r="5"></circle>
                        <circle cx="137.8" cy="181.7" r="5"></circle>
                        <circle cx="137.8" cy="225.7" r="5"></circle>
                        <circle cx="137.8" cy="269.7" r="5"></circle>
                        <circle cx="93.8" cy="49.7" r="5"></circle>
                        <circle cx="93.8" cy="93.7" r="5"></circle>
                        <circle cx="93.8" cy="137.7" r="5"></circle>
                        <circle cx="93.8" cy="181.7" r="5"></circle>
                        <circle cx="93.8" cy="225.7" r="5"></circle>
                        <circle cx="93.8" cy="269.7" r="5"></circle>
                        <circle cx="49.8" cy="49.7" r="5"></circle>
                        <circle cx="49.8" cy="93.7" r="5"></circle>
                        <circle cx="49.8" cy="137.7" r="5"></circle>
                        <circle cx="49.8" cy="181.7" r="5"></circle>
                        <circle cx="49.8" cy="225.7" r="5"></circle>
                        <circle cx="5.8" cy="137.7" r="5"></circle>
                        <circle cx="5.8" cy="181.7" r="5"></circle>
                    </g>
                </g>
                <g transform="translate(955.000000, 0.000000)" fill-rule="nonzero">
                    <g transform="translate(0.000000, 25.000000)" fill="#383A48" id="Path">
                        <path d="M542.3,49.8 L469,1.5 C467,0.2 464.4,0.5 462.7,2.1 L366.5,98.3 C343.5,121.3 309.3,127.9 279.4,115 C277.2,114 274.6,114.8 273.2,116.9 L247,156.9 C245.7,158.9 246,161.5 247.6,163.2 L382,297.6 C383,298.6 384.2,299.1 385.5,299.1 C386.4,299.1 387.4,298.8 388.2,298.3 L428.2,272.1 C430.2,270.8 431,268.2 430.1,265.9 C417.2,236 423.8,201.9 446.8,178.8 L543,82.6 C543.9,81.7 544.5,80.4 544.5,79.1 L544.5,54 C544.6,52.3 543.8,50.7 542.3,49.8 Z"></path>
                        <path d="M430.5,266.4 C430.3,265.6 429.8,264.8 429.2,264.2 L281,116 C280.4,115.4 279.6,115 278.8,114.7 C202.7,93.4 120.8,114.9 64.9,170.7 C23.6,212 0.8,267 0.8,325.4 C0.8,383.9 23.6,438.8 64.9,480.1 C106.2,521.4 161.2,544.2 219.6,544.2 C278,544.2 333,521.4 374.3,480.1 C430.3,424.5 451.8,342.5 430.5,266.4 Z"></path>
                    </g>
                    <g transform="translate(1.000000, 0.000000)">
                        <g transform="translate(245.000000, 0.000000)">
                            <path d="M5.3,159.5 L139.7,293.9 L179.7,267.7 L179.7,267.7 C166.1,236.1 173.1,199.4 197.4,175.1 L293.6,78.9 L220.3,5.6 L124.1,101.8 C99.8,126.1 63.1,133.1 31.5,119.5 L31.5,119.5 L5.3,159.5 Z" id="Path" fill="#AAC6FC"></path>
                            <path d="M139.7,298.9 C138.4,298.9 137.1,298.4 136.2,297.4 L1.8,163 C0.1,161.3 -0.1,158.7 1.2,156.7 L27.4,116.7 C28.7,114.7 31.3,113.9 33.6,114.8 C63.5,127.7 97.6,121.1 120.7,98.1 L216.9,1.9 C218.9,-0.1 222,-0.1 224,1.9 L297.3,75.2 C299.3,77.2 299.3,80.3 297.3,82.3 L201.1,178.5 C178.1,201.5 171.5,235.7 184.4,265.6 C185.4,267.8 184.6,270.4 182.5,271.8 L142.5,298 C141.6,298.6 140.7,298.9 139.7,298.9 Z M11.8,158.8 L140.4,287.4 L173.5,265.7 C161.2,233 168.9,196.5 193.9,171.5 L286.5,78.9 L220.2,12.6 L127.6,105.2 C110.5,122.3 87.9,131.3 64.9,131.3 C54.4,131.3 43.7,129.4 33.5,125.5 L11.8,158.8 Z" id="Shape" fill="#383A48"></path>
                        </g>
                        <g transform="translate(0.000000, 106.000000)">
                            <path d="M67.6,68.3 C124.2,11.7 204.6,-6.5 276.6,13.6 L424.8,161.8 C444.9,233.8 426.7,314.2 370.1,370.8 C286.6,454.3 151.2,454.3 67.7,370.8 C-15.8,287.3 -15.9,151.8 67.6,68.3 Z" id="Path" fill="#AAC6FC"></path>
                            <path d="M218.8,438.3 C160.3,438.3 105.4,415.5 64.1,374.2 C22.8,332.9 0,277.9 0,219.5 C0,161 22.8,106.1 64.1,64.8 L64.1,64.8 C119.9,9 201.9,-12.5 278,8.8 C278.8,9 279.6,9.5 280.2,10.1 L428.4,158.3 C429,158.9 429.4,159.7 429.7,160.5 C451,236.6 429.5,318.5 373.7,374.4 C332.2,415.5 277.2,438.3 218.8,438.3 Z M71.1,71.8 C-10.3,153.2 -10.3,285.7 71.1,367.1 C110.5,406.5 163,428.3 218.8,428.3 C274.6,428.3 327,406.6 366.5,367.1 C419.5,314.1 440,236.5 420.3,164.3 L273.9,18 C201.7,-1.7 124.1,18.8 71.1,71.8 L71.1,71.8 Z" id="Shape" fill="#383A48"></path>
                        </g>
                        <circle id="Oval" fill="#F3F6E6" cx="338.4" cy="272.3" r="5"></circle>
                        <circle id="Oval" fill="#F3F6E6" cx="338.4" cy="316.3" r="5"></circle>
                        <circle id="Oval" fill="#F3F6E6" cx="338.4" cy="360.3" r="5"></circle>
                        <circle id="Oval" fill="#F3F6E6" cx="338.4" cy="404.3" r="5"></circle>
                        <circle id="Oval" fill="#F3F6E6" cx="294.4" cy="228.3" r="5"></circle>
                        <circle id="Oval" fill="#F3F6E6" cx="294.4" cy="272.3" r="5"></circle>
                        <circle id="Oval" fill="#F3F6E6" cx="294.4" cy="316.3" r="5"></circle>
                        <circle id="Oval" fill="#F3F6E6" cx="294.4" cy="360.3" r="5"></circle>
                        <circle id="Oval" fill="#F3F6E6" cx="294.4" cy="404.3" r="5"></circle>
                        <circle id="Oval" fill="#F3F6E6" cx="294.4" cy="448.3" r="5"></circle>
                        <circle id="Oval" fill="#F3F6E6" cx="250.4" cy="184.3" r="5"></circle>
                        <circle id="Oval" fill="#F3F6E6" cx="250.4" cy="228.3" r="5"></circle>
                        <circle id="Oval" fill="#F3F6E6" cx="250.4" cy="272.3" r="5"></circle>
                        <circle id="Oval" fill="#F3F6E6" cx="250.4" cy="316.3" r="5"></circle>
                        <circle id="Oval" fill="#F3F6E6" cx="250.4" cy="360.3" r="5"></circle>
                        <circle id="Oval" fill="#F3F6E6" cx="250.4" cy="404.3" r="5"></circle>
                        <circle id="Oval" fill="#F3F6E6" cx="250.4" cy="448.3" r="5"></circle>
                        <circle id="Oval" fill="#F3F6E6" cx="206.4" cy="184.3" r="5"></circle>
                        <circle id="Oval" fill="#F3F6E6" cx="206.4" cy="228.3" r="5"></circle>
                        <circle id="Oval" fill="#F3F6E6" cx="206.4" cy="272.3" r="5"></circle>
                        <circle id="Oval" fill="#F3F6E6" cx="206.4" cy="316.3" r="5"></circle>
                        <circle id="Oval" fill="#F3F6E6" cx="206.4" cy="360.3" r="5"></circle>
                        <circle id="Oval" fill="#F3F6E6" cx="206.4" cy="404.3" r="5"></circle>
                        <circle id="Oval" fill="#F3F6E6" cx="206.4" cy="448.3" r="5"></circle>
                        <circle id="Oval" fill="#F3F6E6" cx="162.4" cy="228.3" r="5"></circle>
                        <circle id="Oval" fill="#F3F6E6" cx="162.4" cy="272.3" r="5"></circle>
                        <circle id="Oval" fill="#F3F6E6" cx="162.4" cy="316.3" r="5"></circle>
                        <circle id="Oval" fill="#F3F6E6" cx="162.4" cy="360.3" r="5"></circle>
                        <circle id="Oval" fill="#F3F6E6" cx="162.4" cy="404.3" r="5"></circle>
                        <circle id="Oval" fill="#F3F6E6" cx="162.4" cy="448.3" r="5"></circle>
                        <circle id="Oval" fill="#F3F6E6" cx="118.4" cy="228.3" r="5"></circle>
                        <circle id="Oval" fill="#F3F6E6" cx="118.4" cy="272.3" r="5"></circle>
                        <circle id="Oval" fill="#F3F6E6" cx="118.4" cy="316.3" r="5"></circle>
                        <circle id="Oval" fill="#F3F6E6" cx="118.4" cy="360.3" r="5"></circle>
                        <circle id="Oval" fill="#F3F6E6" cx="118.4" cy="404.3" r="5"></circle>
                        <circle id="Oval" fill="#F3F6E6" cx="118.4" cy="448.3" r="5"></circle>
                        <circle id="Oval" fill="#F3F6E6" cx="74.4" cy="316.3" r="5"></circle>
                        <circle id="Oval" fill="#F3F6E6" cx="74.4" cy="360.3" r="5"></circle>
                    </g>
                </g>
                <g transform="translate(489.000000, 50.000000)" fill-rule="nonzero">
                    <circle id="Oval" fill="#383A48" cx="5.5" cy="157.6" r="5"></circle>
                    <circle id="Oval" fill="#383A48" cx="23" cy="175" r="5"></circle>
                    <circle id="Oval" fill="#383A48" cx="40.4" cy="192.4" r="5"></circle>
                    <circle id="Oval" fill="#383A48" cx="57.9" cy="209.9" r="5"></circle>
                    <circle id="Oval" fill="#383A48" cx="5.5" cy="122.7" r="5"></circle>
                    <circle id="Oval" fill="#383A48" cx="23" cy="140.1" r="5"></circle>
                    <circle id="Oval" fill="#383A48" cx="40.4" cy="157.6" r="5"></circle>
                    <circle id="Oval" fill="#383A48" cx="57.9" cy="175" r="5"></circle>
                    <circle id="Oval" fill="#383A48" cx="75.3" cy="192.4" r="5"></circle>
                    <circle id="Oval" fill="#383A48" cx="92.7" cy="209.9" r="5"></circle>
                    <circle id="Oval" fill="#383A48" cx="23" cy="105.2" r="5"></circle>
                    <circle id="Oval" fill="#383A48" cx="40.4" cy="122.7" r="5"></circle>
                    <circle id="Oval" fill="#383A48" cx="57.9" cy="140.1" r="5"></circle>
                    <circle id="Oval" fill="#383A48" cx="75.3" cy="157.6" r="5"></circle>
                    <circle id="Oval" fill="#383A48" cx="92.7" cy="175" r="5"></circle>
                    <circle id="Oval" fill="#383A48" cx="110.2" cy="192.4" r="5"></circle>
                    <circle id="Oval" fill="#383A48" cx="40.4" cy="87.8" r="5"></circle>
                    <circle id="Oval" fill="#383A48" cx="57.9" cy="105.2" r="5"></circle>
                    <circle id="Oval" fill="#383A48" cx="75.3" cy="122.7" r="5"></circle>
                    <circle id="Oval" fill="#383A48" cx="92.7" cy="140.1" r="5"></circle>
                    <circle id="Oval" fill="#383A48" cx="110.2" cy="157.6" r="5"></circle>
                    <circle id="Oval" fill="#383A48" cx="127.6" cy="175" r="5"></circle>
                    <circle id="Oval" fill="#383A48" cx="57.9" cy="70.3" r="5"></circle>
                    <circle id="Oval" fill="#383A48" cx="75.3" cy="87.8" r="5"></circle>
                    <circle id="Oval" fill="#383A48" cx="92.7" cy="105.2" r="5"></circle>
                    <circle id="Oval" fill="#383A48" cx="110.2" cy="122.7" r="5"></circle>
                    <circle id="Oval" fill="#383A48" cx="127.6" cy="140.1" r="5"></circle>
                    <circle id="Oval" fill="#383A48" cx="145.1" cy="157.6" r="5"></circle>
                    <circle id="Oval" fill="#383A48" cx="75.3" cy="52.9" r="5"></circle>
                    <circle id="Oval" fill="#383A48" cx="92.7" cy="70.3" r="5"></circle>
                    <circle id="Oval" fill="#383A48" cx="110.2" cy="87.8" r="5"></circle>
                    <circle id="Oval" fill="#383A48" cx="127.6" cy="105.2" r="5"></circle>
                    <circle id="Oval" fill="#383A48" cx="145.1" cy="122.7" r="5"></circle>
                    <circle id="Oval" fill="#383A48" cx="162.5" cy="140.1" r="5"></circle>
                    <circle id="Oval" fill="#383A48" cx="92.7" cy="35.5" r="5"></circle>
                    <circle id="Oval" fill="#383A48" cx="110.2" cy="52.9" r="5"></circle>
                    <circle id="Oval" fill="#383A48" cx="127.6" cy="70.3" r="5"></circle>
                    <circle id="Oval" fill="#383A48" cx="145.1" cy="87.8" r="5"></circle>
                    <circle id="Oval" fill="#383A48" cx="162.5" cy="105.2" r="5"></circle>
                    <circle id="Oval" fill="#383A48" cx="179.9" cy="122.7" r="5"></circle>
                    <g transform="translate(55.000000, 0.000000)">
                        <circle id="Oval" fill="#F3F6E6" cx="85.2" cy="85.4" r="80.1"></circle>
                        <path d="M85.2,170.5 C38.3,170.5 0.1,132.3 0.1,85.4 C0.1,38.5 38.3,0.3 85.2,0.3 C132.1,0.3 170.3,38.5 170.3,85.4 C170.3,132.3 132.1,170.5 85.2,170.5 Z M85.2,10.4 C43.8,10.4 10.1,44.1 10.1,85.5 C10.1,126.9 43.8,160.6 85.2,160.6 C126.6,160.6 160.3,126.9 160.3,85.5 C160.3,44.1 126.6,10.4 85.2,10.4 Z" id="Shape" fill="#383A48"></path>
                    </g>
                </g>
                <g transform="translate(975.000000, 416.000000)" id="Path">
                    <line x1="199.8" y1="5.6" x2="5.9" y2="199.5"></line>
                    <path d="M5.9,204.5 C4.6,204.5 3.3,204 2.4,203 C0.4,201 0.4,197.9 2.4,195.9 L196.3,2 C198.3,0 201.4,0 203.4,2 C205.4,4 205.4,7.1 203.4,9.1 L9.4,203 C8.5,204 7.2,204.5 5.9,204.5 Z" fill="#E0719E" fill-rule="nonzero"></path>
                </g>
                <path d="M504.1,3.2 C503.2,1.6 501.5,0.6 499.7,0.6 L5.2,0.6 C2.4,0.6 0.2,2.8 0.2,5.6 L0.2,539.6 C0.2,542 2,544.1 4.4,544.5 C4.7,544.5 5,544.6 5.2,544.6 C7.3,544.6 9.2,543.3 9.9,541.2 C10.6,539.2 79.3,341.3 146.1,276.1 C208.7,215 267.1,184.9 323.5,155.8 C357.7,138.2 390,121.5 420.2,99.1 C454.2,73.9 480.7,45 503.8,8.2 C504.9,6.8 504.9,4.8 504.1,3.2 Z" id="Path" fill="#F3F6E6" fill-rule="nonzero"></path>
                <g transform="translate(1132.000000, 15.000000)" fill="#F3F6E6" fill-rule="nonzero" id="Rectangle">
                    <rect transform="translate(15.981570, 15.690970) rotate(-45.000000) translate(-15.981570, -15.690970) " x="-0.518271764" y="10.691018" width="32.9996835" height="9.9999041"></rect>
                    <rect transform="translate(15.976170, 15.700370) rotate(-45.000000) translate(-15.976170, -15.700370) " x="10.976218" y="-0.799471764" width="9.9999041" height="32.9996835"></rect>
                </g>
                <g transform="translate(114.000000, 120.000000)">
                    <g>
                        <line x1="27" y1="3.8" x2="3.7" y2="27.1" id="Path"></line>
                        <rect id="Rectangle" fill="#383A48" fill-rule="nonzero" transform="translate(15.389280, 15.374800) rotate(-45.000000) translate(-15.389280, -15.374800) " x="-1.11056176" y="10.374848" width="32.9996835" height="9.9999041"></rect>
                    </g>
                    <g>
                        <line x1="3.7" y1="3.8" x2="27" y2="27.1" id="Path"></line>
                        <rect id="Rectangle" fill="#383A48" fill-rule="nonzero" transform="translate(15.430690, 15.516210) rotate(-45.000000) translate(-15.430690, -15.516210) " x="10.430738" y="-0.983631764" width="9.9999041" height="32.9996835"></rect>
                    </g>
                </g>
            </g>
        </g>
    </g>
</svg>