<?xml version="1.0" encoding="UTF-8"?>
<svg width="1503px" height="660px" viewBox="0 0 1503 660" version="1.1" xmlns="http://www.w3.org/2000/svg" xmlns:xlink="http://www.w3.org/1999/xlink">
    <!-- Generator: Sketch 64 (93537) - https://sketch.com -->
    <title>abstract-6</title>
    <desc>Created with Sketch.</desc>
    <g id="Page-1" stroke="none" stroke-width="1" fill="none" fill-rule="evenodd">
        <g id="abstract-6" transform="translate(-177.000000, -210.000000)">
            <path d="M620,532.8 C617.2,532.8 615,530.6 615,527.8 L615,515.8 C615,513 617.2,510.8 620,510.8 C622.8,510.8 625,513 625,515.8 L625,527.8 C625,530.5 622.8,532.8 620,532.8 Z M620,490.8 C617.2,490.8 615,488.6 615,485.8 L615,473.8 C615,471 617.2,468.8 620,468.8 C622.8,468.8 625,471 625,473.8 L625,485.8 C625,488.5 622.8,490.8 620,490.8 Z M620,448.8 C617.2,448.8 615,446.6 615,443.8 L615,431.8 C615,429 617.2,426.8 620,426.8 C622.8,426.8 625,429 625,431.8 L625,443.8 C625,446.5 622.8,448.8 620,448.8 Z M620,406.8 C617.2,406.8 615,404.6 615,401.8 L615,389.8 C615,387 617.2,384.8 620,384.8 C622.8,384.8 625,387 625,389.8 L625,401.8 C625,404.5 622.8,406.8 620,406.8 Z M620,364.8 C617.2,364.8 615,362.6 615,359.8 L615,347.8 C615,345 617.2,342.8 620,342.8 C622.8,342.8 625,345 625,347.8 L625,359.8 C625,362.5 622.8,364.8 620,364.8 Z M620,322.8 C617.2,322.8 615,320.6 615,317.8 L615,305.8 C615,303 617.2,300.8 620,300.8 C622.8,300.8 625,303 625,305.8 L625,317.8 C625,320.5 622.8,322.8 620,322.8 Z M620,280.8 C617.2,280.8 615,278.6 615,275.8 L615,263.8 C615,261 617.2,258.8 620,258.8 C622.8,258.8 625,261 625,263.8 L625,275.8 C625,278.5 622.8,280.8 620,280.8 Z M620,238.8 C617.2,238.8 615,236.6 615,233.8 L615,221.8 C615,219 617.2,216.8 620,216.8 C622.8,216.8 625,219 625,221.8 L625,233.8 C625,236.5 622.8,238.8 620,238.8 Z M948.4,220.4 L937.7,220.4 C934.9,220.4 932.7,218.2 932.7,215.4 C932.7,212.6 934.9,210.4 937.7,210.4 L948.4,210.4 C951.2,210.4 953.4,212.6 953.4,215.4 C953.4,218.2 951.2,220.4 948.4,220.4 Z M907.7,220.4 L895.7,220.4 C892.9,220.4 890.7,218.2 890.7,215.4 C890.7,212.6 892.9,210.4 895.7,210.4 L907.7,210.4 C910.5,210.4 912.7,212.6 912.7,215.4 C912.7,218.2 910.4,220.4 907.7,220.4 Z M865.7,220.4 L853.7,220.4 C850.9,220.4 848.7,218.2 848.7,215.4 C848.7,212.6 850.9,210.4 853.7,210.4 L865.7,210.4 C868.5,210.4 870.7,212.6 870.7,215.4 C870.7,218.2 868.4,220.4 865.7,220.4 Z M823.7,220.4 L811.7,220.4 C808.9,220.4 806.7,218.2 806.7,215.4 C806.7,212.6 808.9,210.4 811.7,210.4 L823.7,210.4 C826.5,210.4 828.7,212.6 828.7,215.4 C828.7,218.2 826.4,220.4 823.7,220.4 Z M781.7,220.4 L769.7,220.4 C766.9,220.4 764.7,218.2 764.7,215.4 C764.7,212.6 766.9,210.4 769.7,210.4 L781.7,210.4 C784.5,210.4 786.7,212.6 786.7,215.4 C786.7,218.2 784.4,220.4 781.7,220.4 Z M739.7,220.4 L727.7,220.4 C724.9,220.4 722.7,218.2 722.7,215.4 C722.7,212.6 724.9,210.4 727.7,210.4 L739.7,210.4 C742.5,210.4 744.7,212.6 744.7,215.4 C744.7,218.2 742.4,220.4 739.7,220.4 Z M697.7,220.4 L685.7,220.4 C682.9,220.4 680.7,218.2 680.7,215.4 C680.7,212.6 682.9,210.4 685.7,210.4 L697.7,210.4 C700.5,210.4 702.7,212.6 702.7,215.4 C702.7,218.2 700.4,220.4 697.7,220.4 Z M655.7,220.4 L643.7,220.4 C640.9,220.4 638.7,218.2 638.7,215.4 C638.7,212.6 640.9,210.4 643.7,210.4 L655.7,210.4 C658.5,210.4 660.7,212.6 660.7,215.4 C660.7,218.2 658.4,220.4 655.7,220.4 Z" id="Shape" fill="#383A48" fill-rule="nonzero"></path>
            <g id="Group" transform="translate(177.000000, 210.000000)">
                <circle id="Oval" fill="#383A48" fill-rule="nonzero" cx="779.2" cy="326.4" r="5"></circle>
                <circle id="Oval" fill="#383A48" fill-rule="nonzero" cx="779.2" cy="351.1" r="5"></circle>
                <circle id="Oval" fill="#383A48" fill-rule="nonzero" cx="779.2" cy="375.8" r="5"></circle>
                <circle id="Oval" fill="#383A48" fill-rule="nonzero" cx="779.2" cy="400.4" r="5"></circle>
                <circle id="Oval" fill="#383A48" fill-rule="nonzero" cx="779.2" cy="425.1" r="5"></circle>
                <circle id="Oval" fill="#383A48" fill-rule="nonzero" cx="779.2" cy="449.8" r="5"></circle>
                <circle id="Oval" fill="#383A48" fill-rule="nonzero" cx="779.2" cy="474.4" r="5"></circle>
                <circle id="Oval" fill="#383A48" fill-rule="nonzero" cx="779.2" cy="499.1" r="5"></circle>
                <circle id="Oval" fill="#383A48" fill-rule="nonzero" cx="779.2" cy="523.8" r="5"></circle>
                <circle id="Oval" fill="#383A48" fill-rule="nonzero" cx="779.2" cy="548.4" r="5"></circle>
                <circle id="Oval" fill="#383A48" fill-rule="nonzero" cx="779.2" cy="573.1" r="5"></circle>
                <circle id="Oval" fill="#383A48" fill-rule="nonzero" cx="779.2" cy="597.8" r="5"></circle>
                <circle id="Oval" fill="#383A48" fill-rule="nonzero" cx="779.2" cy="622.4" r="5"></circle>
                <circle id="Oval" fill="#383A48" fill-rule="nonzero" cx="779.2" cy="647.1" r="5"></circle>
                <circle id="Oval" fill="#383A48" fill-rule="nonzero" cx="754.5" cy="326.4" r="5"></circle>
                <circle id="Oval" fill="#383A48" fill-rule="nonzero" cx="754.5" cy="351.1" r="5"></circle>
                <circle id="Oval" fill="#383A48" fill-rule="nonzero" cx="754.5" cy="375.8" r="5"></circle>
                <circle id="Oval" fill="#383A48" fill-rule="nonzero" cx="754.5" cy="400.4" r="5"></circle>
                <circle id="Oval" fill="#383A48" fill-rule="nonzero" cx="754.5" cy="425.1" r="5"></circle>
                <circle id="Oval" fill="#383A48" fill-rule="nonzero" cx="754.5" cy="449.8" r="5"></circle>
                <circle id="Oval" fill="#383A48" fill-rule="nonzero" cx="754.5" cy="474.4" r="5"></circle>
                <circle id="Oval" fill="#383A48" fill-rule="nonzero" cx="754.5" cy="499.1" r="5"></circle>
                <circle id="Oval" fill="#383A48" fill-rule="nonzero" cx="754.5" cy="523.8" r="5"></circle>
                <circle id="Oval" fill="#383A48" fill-rule="nonzero" cx="754.5" cy="548.4" r="5"></circle>
                <circle id="Oval" fill="#383A48" fill-rule="nonzero" cx="754.5" cy="573.1" r="5"></circle>
                <circle id="Oval" fill="#383A48" fill-rule="nonzero" cx="754.5" cy="597.8" r="5"></circle>
                <circle id="Oval" fill="#383A48" fill-rule="nonzero" cx="754.5" cy="622.4" r="5"></circle>
                <circle id="Oval" fill="#383A48" fill-rule="nonzero" cx="754.5" cy="647.1" r="5"></circle>
                <circle id="Oval" fill="#383A48" fill-rule="nonzero" cx="729.9" cy="326.4" r="5"></circle>
                <circle id="Oval" fill="#383A48" fill-rule="nonzero" cx="729.9" cy="351.1" r="5"></circle>
                <circle id="Oval" fill="#383A48" fill-rule="nonzero" cx="729.9" cy="375.8" r="5"></circle>
                <circle id="Oval" fill="#383A48" fill-rule="nonzero" cx="729.9" cy="400.4" r="5"></circle>
                <circle id="Oval" fill="#383A48" fill-rule="nonzero" cx="729.9" cy="425.1" r="5"></circle>
                <circle id="Oval" fill="#383A48" fill-rule="nonzero" cx="729.9" cy="449.8" r="5"></circle>
                <circle id="Oval" fill="#383A48" fill-rule="nonzero" cx="729.9" cy="474.4" r="5"></circle>
                <circle id="Oval" fill="#383A48" fill-rule="nonzero" cx="729.9" cy="499.1" r="5"></circle>
                <circle id="Oval" fill="#383A48" fill-rule="nonzero" cx="729.9" cy="523.8" r="5"></circle>
                <circle id="Oval" fill="#383A48" fill-rule="nonzero" cx="729.9" cy="548.4" r="5"></circle>
                <circle id="Oval" fill="#383A48" fill-rule="nonzero" cx="729.9" cy="573.1" r="5"></circle>
                <circle id="Oval" fill="#383A48" fill-rule="nonzero" cx="729.9" cy="597.8" r="5"></circle>
                <circle id="Oval" fill="#383A48" fill-rule="nonzero" cx="729.9" cy="622.4" r="5"></circle>
                <circle id="Oval" fill="#383A48" fill-rule="nonzero" cx="729.9" cy="647.1" r="5"></circle>
                <circle id="Oval" fill="#383A48" fill-rule="nonzero" cx="705.2" cy="326.4" r="5"></circle>
                <circle id="Oval" fill="#383A48" fill-rule="nonzero" cx="705.2" cy="351.1" r="5"></circle>
                <circle id="Oval" fill="#383A48" fill-rule="nonzero" cx="705.2" cy="375.8" r="5"></circle>
                <circle id="Oval" fill="#383A48" fill-rule="nonzero" cx="705.2" cy="400.4" r="5"></circle>
                <circle id="Oval" fill="#383A48" fill-rule="nonzero" cx="705.2" cy="425.1" r="5"></circle>
                <circle id="Oval" fill="#383A48" fill-rule="nonzero" cx="705.2" cy="449.8" r="5"></circle>
                <circle id="Oval" fill="#383A48" fill-rule="nonzero" cx="705.2" cy="474.4" r="5"></circle>
                <circle id="Oval" fill="#383A48" fill-rule="nonzero" cx="705.2" cy="499.1" r="5"></circle>
                <circle id="Oval" fill="#383A48" fill-rule="nonzero" cx="705.2" cy="523.8" r="5"></circle>
                <circle id="Oval" fill="#383A48" fill-rule="nonzero" cx="705.2" cy="548.4" r="5"></circle>
                <circle id="Oval" fill="#383A48" fill-rule="nonzero" cx="705.2" cy="573.1" r="5"></circle>
                <circle id="Oval" fill="#383A48" fill-rule="nonzero" cx="705.2" cy="597.8" r="5"></circle>
                <circle id="Oval" fill="#383A48" fill-rule="nonzero" cx="705.2" cy="622.4" r="5"></circle>
                <circle id="Oval" fill="#383A48" fill-rule="nonzero" cx="705.2" cy="647.1" r="5"></circle>
                <circle id="Oval" fill="#383A48" fill-rule="nonzero" cx="680.5" cy="326.4" r="5"></circle>
                <circle id="Oval" fill="#383A48" fill-rule="nonzero" cx="680.5" cy="351.1" r="5"></circle>
                <circle id="Oval" fill="#383A48" fill-rule="nonzero" cx="680.5" cy="375.8" r="5"></circle>
                <circle id="Oval" fill="#383A48" fill-rule="nonzero" cx="680.5" cy="400.4" r="5"></circle>
                <circle id="Oval" fill="#383A48" fill-rule="nonzero" cx="680.5" cy="425.1" r="5"></circle>
                <circle id="Oval" fill="#383A48" fill-rule="nonzero" cx="680.5" cy="449.8" r="5"></circle>
                <circle id="Oval" fill="#383A48" fill-rule="nonzero" cx="680.5" cy="474.4" r="5"></circle>
                <circle id="Oval" fill="#383A48" fill-rule="nonzero" cx="680.5" cy="499.1" r="5"></circle>
                <circle id="Oval" fill="#383A48" fill-rule="nonzero" cx="680.5" cy="523.8" r="5"></circle>
                <circle id="Oval" fill="#383A48" fill-rule="nonzero" cx="680.5" cy="548.4" r="5"></circle>
                <circle id="Oval" fill="#383A48" fill-rule="nonzero" cx="680.5" cy="573.1" r="5"></circle>
                <circle id="Oval" fill="#383A48" fill-rule="nonzero" cx="680.5" cy="597.8" r="5"></circle>
                <circle id="Oval" fill="#383A48" fill-rule="nonzero" cx="680.5" cy="622.4" r="5"></circle>
                <circle id="Oval" fill="#383A48" fill-rule="nonzero" cx="680.5" cy="647.1" r="5"></circle>
                <circle id="Oval" fill="#383A48" fill-rule="nonzero" cx="655.9" cy="326.4" r="5"></circle>
                <circle id="Oval" fill="#383A48" fill-rule="nonzero" cx="655.9" cy="351.1" r="5"></circle>
                <circle id="Oval" fill="#383A48" fill-rule="nonzero" cx="655.9" cy="375.8" r="5"></circle>
                <circle id="Oval" fill="#383A48" fill-rule="nonzero" cx="655.9" cy="400.4" r="5"></circle>
                <circle id="Oval" fill="#383A48" fill-rule="nonzero" cx="655.9" cy="425.1" r="5"></circle>
                <circle id="Oval" fill="#383A48" fill-rule="nonzero" cx="655.9" cy="449.8" r="5"></circle>
                <circle id="Oval" fill="#383A48" fill-rule="nonzero" cx="655.9" cy="474.4" r="5"></circle>
                <circle id="Oval" fill="#383A48" fill-rule="nonzero" cx="655.9" cy="499.1" r="5"></circle>
                <circle id="Oval" fill="#383A48" fill-rule="nonzero" cx="655.9" cy="523.8" r="5"></circle>
                <circle id="Oval" fill="#383A48" fill-rule="nonzero" cx="655.9" cy="548.4" r="5"></circle>
                <circle id="Oval" fill="#383A48" fill-rule="nonzero" cx="655.9" cy="573.1" r="5"></circle>
                <circle id="Oval" fill="#383A48" fill-rule="nonzero" cx="655.9" cy="597.8" r="5"></circle>
                <circle id="Oval" fill="#383A48" fill-rule="nonzero" cx="655.9" cy="622.4" r="5"></circle>
                <circle id="Oval" fill="#383A48" fill-rule="nonzero" cx="655.9" cy="647.1" r="5"></circle>
                <circle id="Oval" fill="#383A48" fill-rule="nonzero" cx="631.2" cy="326.4" r="5"></circle>
                <circle id="Oval" fill="#383A48" fill-rule="nonzero" cx="631.2" cy="351.1" r="5"></circle>
                <circle id="Oval" fill="#383A48" fill-rule="nonzero" cx="631.2" cy="375.8" r="5"></circle>
                <circle id="Oval" fill="#383A48" fill-rule="nonzero" cx="631.2" cy="400.4" r="5"></circle>
                <circle id="Oval" fill="#383A48" fill-rule="nonzero" cx="631.2" cy="425.1" r="5"></circle>
                <circle id="Oval" fill="#383A48" fill-rule="nonzero" cx="631.2" cy="449.8" r="5"></circle>
                <circle id="Oval" fill="#383A48" fill-rule="nonzero" cx="631.2" cy="474.4" r="5"></circle>
                <circle id="Oval" fill="#383A48" fill-rule="nonzero" cx="631.2" cy="499.1" r="5"></circle>
                <circle id="Oval" fill="#383A48" fill-rule="nonzero" cx="631.2" cy="523.8" r="5"></circle>
                <circle id="Oval" fill="#383A48" fill-rule="nonzero" cx="631.2" cy="548.4" r="5"></circle>
                <circle id="Oval" fill="#383A48" fill-rule="nonzero" cx="631.2" cy="573.1" r="5"></circle>
                <circle id="Oval" fill="#383A48" fill-rule="nonzero" cx="631.2" cy="597.8" r="5"></circle>
                <circle id="Oval" fill="#383A48" fill-rule="nonzero" cx="631.2" cy="622.4" r="5"></circle>
                <circle id="Oval" fill="#383A48" fill-rule="nonzero" cx="631.2" cy="647.1" r="5"></circle>
                <circle id="Oval" fill="#383A48" fill-rule="nonzero" cx="606.5" cy="326.4" r="5"></circle>
                <circle id="Oval" fill="#383A48" fill-rule="nonzero" cx="606.5" cy="351.1" r="5"></circle>
                <circle id="Oval" fill="#383A48" fill-rule="nonzero" cx="606.5" cy="375.8" r="5"></circle>
                <circle id="Oval" fill="#383A48" fill-rule="nonzero" cx="606.5" cy="400.4" r="5"></circle>
                <circle id="Oval" fill="#383A48" fill-rule="nonzero" cx="606.5" cy="425.1" r="5"></circle>
                <circle id="Oval" fill="#383A48" fill-rule="nonzero" cx="606.5" cy="449.8" r="5"></circle>
                <circle id="Oval" fill="#383A48" fill-rule="nonzero" cx="606.5" cy="474.4" r="5"></circle>
                <circle id="Oval" fill="#383A48" fill-rule="nonzero" cx="606.5" cy="499.1" r="5"></circle>
                <circle id="Oval" fill="#383A48" fill-rule="nonzero" cx="606.5" cy="523.8" r="5"></circle>
                <circle id="Oval" fill="#383A48" fill-rule="nonzero" cx="606.5" cy="548.4" r="5"></circle>
                <circle id="Oval" fill="#383A48" fill-rule="nonzero" cx="606.5" cy="573.1" r="5"></circle>
                <circle id="Oval" fill="#383A48" fill-rule="nonzero" cx="606.5" cy="597.8" r="5"></circle>
                <circle id="Oval" fill="#383A48" fill-rule="nonzero" cx="606.5" cy="622.4" r="5"></circle>
                <circle id="Oval" fill="#383A48" fill-rule="nonzero" cx="606.5" cy="647.1" r="5"></circle>
                <circle id="Oval" fill="#383A48" fill-rule="nonzero" cx="581.9" cy="326.4" r="5"></circle>
                <circle id="Oval" fill="#383A48" fill-rule="nonzero" cx="581.9" cy="351.1" r="5"></circle>
                <circle id="Oval" fill="#383A48" fill-rule="nonzero" cx="581.9" cy="375.8" r="5"></circle>
                <circle id="Oval" fill="#383A48" fill-rule="nonzero" cx="581.9" cy="400.4" r="5"></circle>
                <circle id="Oval" fill="#383A48" fill-rule="nonzero" cx="581.9" cy="425.1" r="5"></circle>
                <circle id="Oval" fill="#383A48" fill-rule="nonzero" cx="581.9" cy="449.8" r="5"></circle>
                <circle id="Oval" fill="#383A48" fill-rule="nonzero" cx="581.9" cy="474.4" r="5"></circle>
                <circle id="Oval" fill="#383A48" fill-rule="nonzero" cx="581.9" cy="499.1" r="5"></circle>
                <circle id="Oval" fill="#383A48" fill-rule="nonzero" cx="581.9" cy="523.8" r="5"></circle>
                <circle id="Oval" fill="#383A48" fill-rule="nonzero" cx="581.9" cy="548.4" r="5"></circle>
                <circle id="Oval" fill="#383A48" fill-rule="nonzero" cx="581.9" cy="573.1" r="5"></circle>
                <circle id="Oval" fill="#383A48" fill-rule="nonzero" cx="581.9" cy="597.8" r="5"></circle>
                <circle id="Oval" fill="#383A48" fill-rule="nonzero" cx="581.9" cy="622.4" r="5"></circle>
                <circle id="Oval" fill="#383A48" fill-rule="nonzero" cx="581.9" cy="647.1" r="5"></circle>
                <circle id="Oval" fill="#383A48" fill-rule="nonzero" cx="557.2" cy="326.4" r="5"></circle>
                <circle id="Oval" fill="#383A48" fill-rule="nonzero" cx="557.2" cy="351.1" r="5"></circle>
                <circle id="Oval" fill="#383A48" fill-rule="nonzero" cx="557.2" cy="375.8" r="5"></circle>
                <circle id="Oval" fill="#383A48" fill-rule="nonzero" cx="557.2" cy="400.4" r="5"></circle>
                <circle id="Oval" fill="#383A48" fill-rule="nonzero" cx="557.2" cy="425.1" r="5"></circle>
                <circle id="Oval" fill="#383A48" fill-rule="nonzero" cx="557.2" cy="449.8" r="5"></circle>
                <circle id="Oval" fill="#383A48" fill-rule="nonzero" cx="557.2" cy="474.4" r="5"></circle>
                <circle id="Oval" fill="#383A48" fill-rule="nonzero" cx="557.2" cy="499.1" r="5"></circle>
                <circle id="Oval" fill="#383A48" fill-rule="nonzero" cx="557.2" cy="523.8" r="5"></circle>
                <circle id="Oval" fill="#383A48" fill-rule="nonzero" cx="557.2" cy="548.4" r="5"></circle>
                <circle id="Oval" fill="#383A48" fill-rule="nonzero" cx="557.2" cy="573.1" r="5"></circle>
                <circle id="Oval" fill="#383A48" fill-rule="nonzero" cx="557.2" cy="597.8" r="5"></circle>
                <circle id="Oval" fill="#383A48" fill-rule="nonzero" cx="557.2" cy="622.4" r="5"></circle>
                <circle id="Oval" fill="#383A48" fill-rule="nonzero" cx="557.2" cy="647.1" r="5"></circle>
                <circle id="Oval" fill="#383A48" fill-rule="nonzero" cx="532.5" cy="326.4" r="5"></circle>
                <circle id="Oval" fill="#383A48" fill-rule="nonzero" cx="532.5" cy="351.1" r="5"></circle>
                <circle id="Oval" fill="#383A48" fill-rule="nonzero" cx="532.5" cy="375.8" r="5"></circle>
                <circle id="Oval" fill="#383A48" fill-rule="nonzero" cx="532.5" cy="400.4" r="5"></circle>
                <circle id="Oval" fill="#383A48" fill-rule="nonzero" cx="532.5" cy="425.1" r="5"></circle>
                <circle id="Oval" fill="#383A48" fill-rule="nonzero" cx="532.5" cy="449.8" r="5"></circle>
                <circle id="Oval" fill="#383A48" fill-rule="nonzero" cx="532.5" cy="474.4" r="5"></circle>
                <circle id="Oval" fill="#383A48" fill-rule="nonzero" cx="532.5" cy="499.1" r="5"></circle>
                <circle id="Oval" fill="#383A48" fill-rule="nonzero" cx="532.5" cy="523.8" r="5"></circle>
                <circle id="Oval" fill="#383A48" fill-rule="nonzero" cx="532.5" cy="548.4" r="5"></circle>
                <circle id="Oval" fill="#383A48" fill-rule="nonzero" cx="532.5" cy="573.1" r="5"></circle>
                <circle id="Oval" fill="#383A48" fill-rule="nonzero" cx="532.5" cy="597.8" r="5"></circle>
                <circle id="Oval" fill="#383A48" fill-rule="nonzero" cx="532.5" cy="622.4" r="5"></circle>
                <circle id="Oval" fill="#383A48" fill-rule="nonzero" cx="532.5" cy="647.1" r="5"></circle>
                <circle id="Oval" fill="#383A48" fill-rule="nonzero" cx="507.9" cy="326.4" r="5"></circle>
                <circle id="Oval" fill="#383A48" fill-rule="nonzero" cx="507.9" cy="351.1" r="5"></circle>
                <circle id="Oval" fill="#383A48" fill-rule="nonzero" cx="507.9" cy="375.8" r="5"></circle>
                <circle id="Oval" fill="#383A48" fill-rule="nonzero" cx="507.9" cy="400.4" r="5"></circle>
                <circle id="Oval" fill="#383A48" fill-rule="nonzero" cx="507.9" cy="425.1" r="5"></circle>
                <circle id="Oval" fill="#383A48" fill-rule="nonzero" cx="507.9" cy="449.8" r="5"></circle>
                <circle id="Oval" fill="#383A48" fill-rule="nonzero" cx="507.9" cy="474.4" r="5"></circle>
                <circle id="Oval" fill="#383A48" fill-rule="nonzero" cx="507.9" cy="499.1" r="5"></circle>
                <circle id="Oval" fill="#383A48" fill-rule="nonzero" cx="507.9" cy="523.8" r="5"></circle>
                <circle id="Oval" fill="#383A48" fill-rule="nonzero" cx="507.9" cy="548.4" r="5"></circle>
                <circle id="Oval" fill="#383A48" fill-rule="nonzero" cx="507.9" cy="573.1" r="5"></circle>
                <circle id="Oval" fill="#383A48" fill-rule="nonzero" cx="507.9" cy="597.8" r="5"></circle>
                <circle id="Oval" fill="#383A48" fill-rule="nonzero" cx="507.9" cy="622.4" r="5"></circle>
                <circle id="Oval" fill="#383A48" fill-rule="nonzero" cx="507.9" cy="647.1" r="5"></circle>
                <circle id="Oval" fill="#383A48" fill-rule="nonzero" cx="483.2" cy="326.4" r="5"></circle>
                <circle id="Oval" fill="#383A48" fill-rule="nonzero" cx="483.2" cy="351.1" r="5"></circle>
                <circle id="Oval" fill="#383A48" fill-rule="nonzero" cx="483.2" cy="375.8" r="5"></circle>
                <circle id="Oval" fill="#383A48" fill-rule="nonzero" cx="483.2" cy="400.4" r="5"></circle>
                <circle id="Oval" fill="#383A48" fill-rule="nonzero" cx="483.2" cy="425.1" r="5"></circle>
                <circle id="Oval" fill="#383A48" fill-rule="nonzero" cx="483.2" cy="449.8" r="5"></circle>
                <circle id="Oval" fill="#383A48" fill-rule="nonzero" cx="483.2" cy="474.4" r="5"></circle>
                <circle id="Oval" fill="#383A48" fill-rule="nonzero" cx="483.2" cy="499.1" r="5"></circle>
                <circle id="Oval" fill="#383A48" fill-rule="nonzero" cx="483.2" cy="523.8" r="5"></circle>
                <circle id="Oval" fill="#383A48" fill-rule="nonzero" cx="483.2" cy="548.4" r="5"></circle>
                <circle id="Oval" fill="#383A48" fill-rule="nonzero" cx="483.2" cy="573.1" r="5"></circle>
                <circle id="Oval" fill="#383A48" fill-rule="nonzero" cx="483.2" cy="597.8" r="5"></circle>
                <circle id="Oval" fill="#383A48" fill-rule="nonzero" cx="483.2" cy="622.4" r="5"></circle>
                <circle id="Oval" fill="#383A48" fill-rule="nonzero" cx="483.2" cy="647.1" r="5"></circle>
                <circle id="Oval" fill="#383A48" fill-rule="nonzero" cx="458.5" cy="326.4" r="5"></circle>
                <circle id="Oval" fill="#383A48" fill-rule="nonzero" cx="458.5" cy="351.1" r="5"></circle>
                <circle id="Oval" fill="#383A48" fill-rule="nonzero" cx="458.5" cy="375.8" r="5"></circle>
                <circle id="Oval" fill="#383A48" fill-rule="nonzero" cx="458.5" cy="400.4" r="5"></circle>
                <circle id="Oval" fill="#383A48" fill-rule="nonzero" cx="458.5" cy="425.1" r="5"></circle>
                <circle id="Oval" fill="#383A48" fill-rule="nonzero" cx="458.5" cy="449.8" r="5"></circle>
                <circle id="Oval" fill="#383A48" fill-rule="nonzero" cx="458.5" cy="474.4" r="5"></circle>
                <circle id="Oval" fill="#383A48" fill-rule="nonzero" cx="458.5" cy="499.1" r="5"></circle>
                <circle id="Oval" fill="#383A48" fill-rule="nonzero" cx="458.5" cy="523.8" r="5"></circle>
                <circle id="Oval" fill="#383A48" fill-rule="nonzero" cx="458.5" cy="548.4" r="5"></circle>
                <circle id="Oval" fill="#383A48" fill-rule="nonzero" cx="458.5" cy="573.1" r="5"></circle>
                <circle id="Oval" fill="#383A48" fill-rule="nonzero" cx="458.5" cy="597.8" r="5"></circle>
                <circle id="Oval" fill="#383A48" fill-rule="nonzero" cx="458.5" cy="622.4" r="5"></circle>
                <circle id="Oval" fill="#383A48" fill-rule="nonzero" cx="458.5" cy="647.1" r="5"></circle>
                <path d="M1345.3,137.2 C1333.3,137.2 1323.5,127.4 1323.5,115.4 C1323.5,103.4 1333.3,93.6 1345.3,93.6 C1357.3,93.6 1367.1,103.4 1367.1,115.4 C1367.1,127.4 1357.3,137.2 1345.3,137.2 Z M1345.3,103.7 C1338.8,103.7 1333.5,109 1333.5,115.5 C1333.5,122 1338.8,127.3 1345.3,127.3 C1351.8,127.3 1357.1,122 1357.1,115.5 C1357.1,109 1351.8,103.7 1345.3,103.7 Z" id="Shape" fill="#383A48" fill-rule="nonzero"></path>
                <g>
                    <path d="M415.8,649.6 L406.8,649.6 C394,649.3 368.8,647.7 341.6,640.2 C318.9,633.9 299.2,624.9 283.1,613.3 C263.1,599 248.6,580.6 239.8,558.8 C230.5,535.6 231.9,504.7 233.3,471.9 C235.3,426.9 237.3,380.4 210.1,351.7 C193.3,333.9 167.3,325.1 130.9,324.8 C94.2,324.5 31.1,325.3 5.2,326.2 C2.5,326.3 0.4,328.5 0.4,331.2 L0.4,654.7 C0.4,657.5 2.6,659.7 5.4,659.7 L405.6,659.7 C407.8,659.8 409.6,659.8 411.2,659.8 C414.1,659.8 415.8,659.7 416.1,659.7 C418.8,659.6 420.9,657.3 420.9,654.6 C420.8,651.8 418.5,649.6 415.8,649.6 Z" id="Path" fill-rule="nonzero"></path>
                    <path d="M1557,86 C1455.8,86 1388.7,147.8 1323.8,207.6 C1292,236.9 1259.1,267.2 1222.9,289.4 C1182.6,314.1 1142,326.1 1098.7,326.1 C1095.9,326.1 1093.7,328.3 1093.7,331.1 L1093.7,654.6 C1093.7,657.4 1095.9,659.6 1098.7,659.6 L1557,659.6 C1559.8,659.6 1562,657.4 1562,654.6 L1562,91 C1562,88.3 1559.7,86 1557,86 Z" id="Path" fill-rule="nonzero"></path>
                    <path d="M1092.2,335 C1089.4,335 1087.2,332.8 1087.2,330 C1087.2,327.2 1089.4,325 1092.2,325 C1135.6,325 1174.5,313.7 1214.6,289.4 C1250.2,267.8 1282.5,238.2 1313.8,209.5 C1380,148.8 1448.5,86 1557,86 C1559.8,86 1562,88.2 1562,91 C1562,93.8 1559.8,96 1557,96 C1510.2,96 1466.8,108.3 1424.5,133.6 C1386.6,156.3 1353,187.1 1320.6,216.8 C1289,245.8 1256.3,275.8 1219.8,297.9 C1178.7,322.9 1136.9,335 1092.2,335 Z" id="Path" fill-rule="nonzero"></path>
                    <path d="M5.4,574 C2.6,574 0.4,571.8 0.4,569 C0.4,566.2 2.6,564 5.4,564 C52.2,564 94,551.7 133.4,526.5 C168.7,503.8 198.7,473.1 227.7,443.4 C256.1,414.4 285.4,384.4 319.4,362.2 C357.8,337.2 398.2,325 443,325 C445.8,325 448,327.2 448,330 C448,332.8 445.8,335 443,335 C347.6,335 292.8,391 234.9,450.4 C175.5,511.2 114.1,574 5.4,574 Z" id="Path" fill-rule="nonzero"></path>
                    <g transform="translate(445.000000, 0.000000)" fill-rule="nonzero">
                        <g transform="translate(0.000000, 8.000000)">
                            <g>
                                <path d="M639.3,322 C639.3,147.1 497.5,5.3 322.6,5.3 C147.7,5.3 5.9,147.1 5.9,322 C5.9,496.9 147.7,646.6 322.6,646.6 C497.5,646.6 639.3,496.9 639.3,322 Z" id="Path" fill="#F6E049"></path>
                                <path d="M322.6,651.6 C279.3,651.6 237.1,642.7 197.3,625 C159.1,608.1 124.7,584 95.1,553.3 C65.6,522.8 42.4,487.5 26.2,448.4 C9.4,408 0.9,365.4 0.9,322 C0.9,236.1 34.4,155.3 95.1,94.5 C155.9,33.7 236.6,0.3 322.6,0.3 C408.6,0.3 489.3,33.8 550.1,94.5 C610.9,155.3 644.3,236 644.3,322 C644.3,365.5 635.8,408 619,448.4 C602.8,487.5 579.6,522.8 550.1,553.3 C520.5,584 486.1,608.1 447.9,625 C408.1,642.7 365.9,651.6 322.6,651.6 Z M322.6,10.3 C239.3,10.3 161.1,42.7 102.2,101.6 C43.3,160.5 10.9,238.7 10.9,322 C10.9,364.1 19.1,405.4 35.4,444.6 C51.2,482.6 73.6,516.8 102.2,546.4 C130.9,576.1 164.3,599.5 201.3,615.9 C239.8,633 280.6,641.6 322.5,641.6 C364.4,641.6 405.2,633 443.7,615.9 C480.7,599.5 514.1,576.1 542.8,546.4 C571.4,516.8 593.9,482.6 609.6,444.6 C625.9,405.4 634.1,364.2 634.1,322 C634.1,238.7 601.7,160.5 542.8,101.6 C483.9,42.7 405.9,10.3 322.6,10.3 Z" id="Shape" fill="#383A48"></path>
                            </g>
                            <g transform="translate(65.000000, 64.000000)">
                                <circle id="Oval" fill="#F6E049" cx="257.6" cy="258" r="250.9"></circle>
                                <path d="M257.6,515.4 C115.7,515.4 0.2,399.9 0.2,258 C0.2,116.1 115.7,0.6 257.6,0.6 C399.5,0.6 515,116.1 515,258 C515,399.9 399.5,515.4 257.6,515.4 Z M257.6,13.6 C122.8,13.6 13.2,123.2 13.2,258 C13.2,392.8 122.8,502.4 257.6,502.4 C392.4,502.4 502,392.8 502,258 C502,123.2 392.4,13.6 257.6,13.6 Z" id="Shape" fill="#F3F6E6"></path>
                            </g>
                        </g>
                        <path d="M635.8,659.6 L623.8,659.6 C621,659.6 618.8,657.4 618.8,654.6 C618.8,651.8 621,649.6 623.8,649.6 L635.8,649.6 C638.6,649.6 640.8,651.8 640.8,654.6 C640.8,657.4 638.6,659.6 635.8,659.6 Z M593.8,659.6 L581.8,659.6 C579,659.6 576.8,657.4 576.8,654.6 C576.8,651.8 579,649.6 581.8,649.6 L593.8,649.6 C596.6,649.6 598.8,651.8 598.8,654.6 C598.8,657.4 596.6,659.6 593.8,659.6 Z M551.8,659.6 L539.8,659.6 C537,659.6 534.8,657.4 534.8,654.6 C534.8,651.8 537,649.6 539.8,649.6 L551.8,649.6 C554.6,649.6 556.8,651.8 556.8,654.6 C556.8,657.4 554.6,659.6 551.8,659.6 Z M509.8,659.6 L497.8,659.6 C495,659.6 492.8,657.4 492.8,654.6 C492.8,651.8 495,649.6 497.8,649.6 L509.8,649.6 C512.6,649.6 514.8,651.8 514.8,654.6 C514.8,657.4 512.6,659.6 509.8,659.6 Z M467.8,659.6 L455.8,659.6 C453,659.6 450.8,657.4 450.8,654.6 C450.8,651.8 453,649.6 455.8,649.6 L467.8,649.6 C470.6,649.6 472.8,651.8 472.8,654.6 C472.8,657.4 470.6,659.6 467.8,659.6 Z M425.8,659.6 L413.8,659.6 C411,659.6 408.8,657.4 408.8,654.6 C408.8,651.8 411,649.6 413.8,649.6 L425.8,649.6 C428.6,649.6 430.8,651.8 430.8,654.6 C430.8,657.4 428.6,659.6 425.8,659.6 Z M383.8,659.6 L371.8,659.6 C369,659.6 366.8,657.4 366.8,654.6 C366.8,651.8 369,649.6 371.8,649.6 L383.8,649.6 C386.6,649.6 388.8,651.8 388.8,654.6 C388.8,657.4 386.6,659.6 383.8,659.6 Z M647.2,641 C644.4,641 642.2,638.8 642.2,636 L642.2,624 C642.2,621.2 644.4,619 647.2,619 C650,619 652.2,621.2 652.2,624 L652.2,636 C652.2,638.8 650,641 647.2,641 Z M647.2,599 C644.4,599 642.2,596.8 642.2,594 L642.2,582 C642.2,579.2 644.4,577 647.2,577 C650,577 652.2,579.2 652.2,582 L652.2,594 C652.2,596.8 650,599 647.2,599 Z M647.2,557 C644.4,557 642.2,554.8 642.2,552 L642.2,540 C642.2,537.2 644.4,535 647.2,535 C650,535 652.2,537.2 652.2,540 L652.2,552 C652.2,554.8 650,557 647.2,557 Z M647.2,515 C644.4,515 642.2,512.8 642.2,510 L642.2,498 C642.2,495.2 644.4,493 647.2,493 C650,493 652.2,495.2 652.2,498 L652.2,510 C652.2,512.8 650,515 647.2,515 Z M647.2,473 C644.4,473 642.2,470.8 642.2,468 L642.2,456 C642.2,453.2 644.4,451 647.2,451 C650,451 652.2,453.2 652.2,456 L652.2,468 C652.2,470.8 650,473 647.2,473 Z M647.2,431 C644.4,431 642.2,428.8 642.2,426 L642.2,414 C642.2,411.2 644.4,409 647.2,409 C650,409 652.2,411.2 652.2,414 L652.2,426 C652.2,428.8 650,431 647.2,431 Z M647.2,389 C644.4,389 642.2,386.8 642.2,384 L642.2,372 C642.2,369.2 644.4,367 647.2,367 C650,367 652.2,369.2 652.2,372 L652.2,384 C652.2,386.8 650,389 647.2,389 Z M647.2,347 C644.4,347 642.2,344.8 642.2,342 L642.2,330 C642.2,327.2 644.4,325 647.2,325 C650,325 652.2,327.2 652.2,330 L652.2,342 C652.2,344.8 650,347 647.2,347 Z" id="Shape" fill="#383A48"></path>
                        <path d="M322.6,659.6 C319.8,659.6 317.6,657.4 317.6,654.6 L317.6,535.8 C317.6,524.8 326,513.4 340.2,513.4 C347.3,513.4 353.9,516.8 358.1,522.7 C358.1,522.8 358.2,522.8 358.2,522.9 C364.1,531.7 372,536.6 380.5,536.6 C397.5,536.6 411.3,516.8 411.3,492.5 C411.3,468.2 397.5,448.4 380.5,448.4 C376.3,448.4 372.3,449.6 368.4,451.9 C364.6,454.2 361.1,457.7 358.2,462 C358.2,462.1 358.1,462.1 358.1,462.2 C352.3,470.2 342.5,473.4 333.1,470.3 C323.7,467.2 317.6,458.9 317.6,449 L317.6,330 C317.6,327.2 319.8,325 322.6,325 L441.5,325 C451.4,325 459.7,331.1 462.8,340.5 C465.9,349.9 462.7,359.7 454.7,365.5 C454.6,365.5 454.6,365.6 454.5,365.6 C450.1,368.5 446.7,372 444.4,375.8 C442,379.6 440.9,383.7 440.9,387.9 C440.9,404.9 460.7,418.7 485,418.7 C509.3,418.7 529.1,404.9 529.1,387.9 C529.1,379.5 524.2,371.6 515.4,365.6 C515.3,365.6 515.3,365.5 515.2,365.5 C509.3,361.2 505.9,354.7 505.9,347.6 C505.9,336.5 514.3,325 528.3,325 L639.2,325 C642,325 644.2,327.2 644.2,330 C644.2,332.8 642,335 639.2,335 L528.3,335 C520.5,335 515.9,341.4 515.9,347.6 C515.9,351.5 517.7,355 521,357.4 C532.5,365.1 539,376.2 539,387.9 C539,410.4 514.7,428.7 484.9,428.7 C455.1,428.7 430.8,410.4 430.8,387.9 C430.8,381.9 432.5,376 435.8,370.6 C438.9,365.6 443.3,361.1 448.8,357.4 C454.1,353.5 454.6,347.7 453.2,343.6 C451.9,339.5 448.1,335 441.4,335 L327.6,335 L327.6,448.9 C327.6,455.5 332,459.3 336.2,460.7 C340.3,462 346.1,461.6 350,456.3 C353.7,450.8 358.2,446.4 363.2,443.3 C368.6,440 374.4,438.3 380.5,438.3 C403,438.3 421.3,462.6 421.3,492.4 C421.3,522.2 403,546.5 380.5,546.5 C368.8,546.5 357.7,539.9 350,528.5 C347.6,525.2 344.1,523.4 340.2,523.4 C334,523.4 327.6,528 327.6,535.8 L327.6,654.7 C327.6,657.4 325.4,659.6 322.6,659.6 Z" id="Path" fill="#E0719E"></path>
                        <path d="M647.2,335 C644.4,335 642.2,332.8 642.2,330 L642.2,318 C642.2,315.2 644.4,313 647.2,313 C650,313 652.2,315.2 652.2,318 L652.2,330 C652.2,332.8 650,335 647.2,335 Z M647.2,293 C644.4,293 642.2,290.8 642.2,288 L642.2,276 C642.2,273.2 644.4,271 647.2,271 C650,271 652.2,273.2 652.2,276 L652.2,288 C652.2,290.8 650,293 647.2,293 Z M647.2,251 C644.4,251 642.2,248.8 642.2,246 L642.2,234 C642.2,231.2 644.4,229 647.2,229 C650,229 652.2,231.2 652.2,234 L652.2,246 C652.2,248.8 650,251 647.2,251 Z M647.2,209 C644.4,209 642.2,206.8 642.2,204 L642.2,192 C642.2,189.2 644.4,187 647.2,187 C650,187 652.2,189.2 652.2,192 L652.2,204 C652.2,206.8 650,209 647.2,209 Z M647.2,167 C644.4,167 642.2,164.8 642.2,162 L642.2,150 C642.2,147.2 644.4,145 647.2,145 C650,145 652.2,147.2 652.2,150 L652.2,162 C652.2,164.8 650,167 647.2,167 Z M647.2,125 C644.4,125 642.2,122.8 642.2,120 L642.2,108 C642.2,105.2 644.4,103 647.2,103 C650,103 652.2,105.2 652.2,108 L652.2,120 C652.2,122.8 650,125 647.2,125 Z M647.2,83 C644.4,83 642.2,80.8 642.2,78 L642.2,66 C642.2,63.2 644.4,61 647.2,61 C650,61 652.2,63.2 652.2,66 L652.2,78 C652.2,80.8 650,83 647.2,83 Z M647.2,41 C644.4,41 642.2,38.8 642.2,36 L642.2,24 C642.2,21.2 644.4,19 647.2,19 C650,19 652.2,21.2 652.2,24 L652.2,36 C652.2,38.8 650,41 647.2,41 Z M635.8,10.4 L623.8,10.4 C621,10.4 618.8,8.2 618.8,5.4 C618.8,2.6 621,0.4 623.8,0.4 L635.8,0.4 C638.6,0.4 640.8,2.6 640.8,5.4 C640.8,8.2 638.5,10.4 635.8,10.4 Z M593.8,10.4 L581.8,10.4 C579,10.4 576.8,8.2 576.8,5.4 C576.8,2.6 579,0.4 581.8,0.4 L593.8,0.4 C596.6,0.4 598.8,2.6 598.8,5.4 C598.8,8.2 596.5,10.4 593.8,10.4 Z M551.8,10.4 L539.8,10.4 C537,10.4 534.8,8.2 534.8,5.4 C534.8,2.6 537,0.4 539.8,0.4 L551.8,0.4 C554.6,0.4 556.8,2.6 556.8,5.4 C556.8,8.2 554.5,10.4 551.8,10.4 Z M509.8,10.4 L497.8,10.4 C495,10.4 492.8,8.2 492.8,5.4 C492.8,2.6 495,0.4 497.8,0.4 L509.8,0.4 C512.6,0.4 514.8,2.6 514.8,5.4 C514.8,8.2 512.5,10.4 509.8,10.4 Z M467.8,10.4 L455.8,10.4 C453,10.4 450.8,8.2 450.8,5.4 C450.8,2.6 453,0.4 455.8,0.4 L467.8,0.4 C470.6,0.4 472.8,2.6 472.8,5.4 C472.8,8.2 470.5,10.4 467.8,10.4 Z M425.8,10.4 L413.8,10.4 C411,10.4 408.8,8.2 408.8,5.4 C408.8,2.6 411,0.4 413.8,0.4 L425.8,0.4 C428.6,0.4 430.8,2.6 430.8,5.4 C430.8,8.2 428.5,10.4 425.8,10.4 Z M383.8,10.4 L371.8,10.4 C369,10.4 366.8,8.2 366.8,5.4 C366.8,2.6 369,0.4 371.8,0.4 L383.8,0.4 C386.6,0.4 388.8,2.6 388.8,5.4 C388.8,8.2 386.5,10.4 383.8,10.4 Z M341.8,10.4 L329.8,10.4 C327,10.4 324.8,8.2 324.8,5.4 C324.8,2.6 327,0.4 329.8,0.4 L341.8,0.4 C344.6,0.4 346.8,2.6 346.8,5.4 C346.8,8.2 344.5,10.4 341.8,10.4 Z" id="Shape" fill="#383A48"></path>
                        <path d="M264.7,123.6 C268.9,123.6 272.9,124.8 276.8,127.1 C280.6,129.4 284.1,132.9 287,137.2 C287,137.3 287.1,137.3 287.1,137.4 C292.9,145.4 302.7,148.6 312.1,145.5 C321.5,142.4 327.6,134.1 327.6,124.2 L327.6,66.4 C324.3,67 320.9,67.3 317.6,67.3 L317.6,124.2 C317.6,130.8 313.2,134.6 309,136 C304.9,137.3 299.1,136.9 295.2,131.6 C291.5,126.2 287,121.7 282,118.6 C276.6,115.3 270.8,113.6 264.7,113.6 C242.2,113.6 223.8,137.9 223.8,167.7 C223.8,197.5 242.1,221.8 264.7,221.8 C276.4,221.8 287.5,215.2 295.2,203.8 C297.6,200.5 301.1,198.7 305,198.7 C311.2,198.7 317.6,203.3 317.6,211.1 L317.6,325 L203.7,325 C189.7,325 181.3,336.5 181.3,347.6 C181.3,354.7 184.7,361.3 190.6,365.5 C190.7,365.5 190.7,365.6 190.8,365.6 C199.6,371.5 204.5,379.4 204.5,387.9 C204.5,404.9 184.7,418.7 160.4,418.7 C136.1,418.7 116.3,404.9 116.3,387.9 C116.3,383.7 117.5,379.7 119.8,375.8 C122.1,372 125.6,368.5 129.9,365.6 C130,365.6 130,365.5 130.1,365.5 C138.1,359.7 141.3,349.9 138.2,340.5 C135.1,331.1 126.8,325 116.9,325 L5.9,325 C3.1,325 0.9,327.2 0.9,330 C0.9,332.8 3.1,335 5.9,335 L116.9,335 C123.5,335 127.3,339.4 128.7,343.6 C130,347.7 129.6,353.5 124.3,357.4 C118.8,361.1 114.4,365.6 111.3,370.6 C108,376 106.3,381.8 106.3,387.9 C106.3,410.4 130.6,428.7 160.4,428.7 C190.2,428.7 214.5,410.4 214.5,387.9 C214.5,376.2 207.9,365.1 196.5,357.4 C193.2,355 191.4,351.5 191.4,347.6 C191.4,341.4 196,335 203.8,335 L322.7,335 C325.5,335 327.7,332.8 327.7,330 L327.7,211.1 C327.7,197.1 316.2,188.7 305.1,188.7 C298,188.7 291.4,192.1 287.2,198 C287.2,198.1 287.1,198.1 287.1,198.2 C281.2,207 273.3,211.9 264.8,211.9 C247.8,211.9 233.9,192.1 233.9,167.8 C233.9,143.5 247.7,123.6 264.7,123.6 Z" id="Path" fill="#E0719E"></path>
                        <g transform="translate(317.000000, 8.000000)" id="Path">
                            <path d="M5.6,5.3 C91.9,5.3 173.1,33.6 234.1,94.6 C295.1,155.6 322.3,236.8 322.3,323.1" fill="#E0719E"></path>
                            <path d="M322.3,328.2 C319.5,328.2 317.3,326 317.3,323.2 C317.3,232.7 287.3,154.9 230.6,98.2 C173.1,40.7 95.3,10.3 5.6,10.3 C2.8,10.3 0.6,8.1 0.6,5.3 C0.6,2.5 2.8,0.3 5.6,0.3 C98,0.3 178.3,31.7 237.7,91.1 C296.3,149.7 327.3,230 327.3,323.1 C327.3,325.9 325,328.2 322.3,328.2 Z" fill="#383A48"></path>
                        </g>
                        <g transform="translate(223.000000, 8.000000)" id="Path">
                            <path d="M416.3,323.2 L305.4,323.2 C294.7,323.2 288,331.9 288,340.8 C288,345.9 290.2,351.1 295.2,354.7 C305,361.3 311.1,370.7 311.1,381.1 C311.1,400.9 289.1,416.9 262,416.9 C234.9,416.9 212.9,400.9 212.9,381.1 C212.9,375.9 214.4,370.9 217.2,366.4 C220,361.9 223.9,357.9 228.8,354.7 C242.4,344.8 235.4,323.2 218.6,323.2 L99.6,323.2 L99.6,204.3 C99.6,193.6 90.9,186.9 82,186.9 C76.9,186.9 71.7,189.1 68.1,194.1 C61.5,203.9 52.1,210 41.7,210 C21.9,210 5.8,188 5.8,160.9 C5.8,133.8 21.9,111.8 41.7,111.8 C46.9,111.8 51.9,113.3 56.4,116.1 C60.9,118.9 64.9,122.8 68.1,127.7 C78,141.3 99.6,134.3 99.6,117.5 L99.6,5.3" fill="#E0719E"></path>
                            <path d="M261.9,421.9 C232.1,421.9 207.8,403.6 207.8,381.1 C207.8,375.1 209.5,369.3 212.8,363.8 C215.9,358.8 220.3,354.3 225.8,350.6 C231.1,346.7 231.6,340.9 230.2,336.8 C228.9,332.7 225,328.2 218.4,328.2 L99.6,328.2 C96.8,328.2 94.6,326 94.6,323.2 L94.6,204.3 C94.6,196.5 88.2,191.9 82,191.9 C78.1,191.9 74.6,193.7 72.2,197 C64.5,208.5 53.4,215 41.7,215 C19.2,215 0.8,190.7 0.8,160.9 C0.8,131.1 19.1,106.8 41.7,106.8 C47.7,106.8 53.6,108.5 59,111.8 C64.1,114.9 68.5,119.3 72.2,124.8 C76.1,130.1 81.9,130.6 86,129.2 C90.1,127.9 94.6,124 94.6,117.4 L94.6,5.3 C94.6,2.5 96.8,0.3 99.6,0.3 C102.4,0.3 104.6,2.5 104.6,5.3 L104.6,117.4 C104.6,127.3 98.5,135.6 89.1,138.7 C79.7,141.8 69.9,138.6 64.1,130.6 C64.1,130.5 64,130.5 64,130.4 C61.1,126.1 57.6,122.6 53.8,120.3 C50,118 45.9,116.8 41.7,116.8 C24.7,116.8 10.8,136.6 10.8,160.9 C10.8,185.2 24.6,205 41.7,205 C50.1,205 58,200.1 64,191.3 C64,191.2 64.1,191.2 64.1,191.1 C68.4,185.2 74.9,181.8 82,181.8 C93.1,181.8 104.6,190.2 104.6,204.2 L104.6,318.1 L218.5,318.1 C228.4,318.1 236.7,324.2 239.8,333.6 C242.9,343 239.7,352.8 231.7,358.6 C231.6,358.6 231.6,358.7 231.5,358.7 C227.1,361.6 223.7,365.1 221.4,368.9 C219,372.7 217.9,376.8 217.9,381 C217.9,398 237.7,411.8 262,411.8 C286.3,411.8 306.1,398 306.1,381 C306.1,372.6 301.2,364.7 292.4,358.7 C292.3,358.7 292.3,358.6 292.2,358.6 C286.3,354.3 282.9,347.8 282.9,340.7 C282.9,329.6 291.3,318.1 305.3,318.1 L416.2,318.1 C419,318.1 421.2,320.3 421.2,323.1 C421.2,325.9 419,328.1 416.2,328.1 L305.3,328.1 C297.5,328.1 292.9,334.5 292.9,340.7 C292.9,344.6 294.7,348.1 298,350.5 C309.4,358.2 316,369.3 316,381 C316,403.6 291.7,421.9 261.9,421.9 Z" fill="#383A48"></path>
                        </g>
                    </g>
                    <g fill-rule="nonzero">
                        <g>
                            <g>
                                <path d="M322.1,5.3 L322.1,116.3 C322.1,127 330.8,133.7 339.7,133.7 C344.8,133.7 350,131.5 353.6,126.5 C360.2,116.7 369.5,110.6 380,110.6 C399.8,110.6 415.9,132.6 415.9,159.7 C415.9,186.8 399.8,208.8 380,208.8 C374.8,208.8 369.8,207.3 365.3,204.5 C360.8,201.7 356.8,197.8 353.6,192.9 C343.7,179.3 322.1,186.3 322.1,203.1 L322.1,322 L203.2,322 C192.5,322 185.8,330.7 185.8,339.6 C185.8,344.7 188,349.9 193,353.5 C202.8,360 208.9,369.5 208.9,379.9 C208.9,399.7 186.9,415.8 159.8,415.8 C132.7,415.8 110.7,399.7 110.7,379.9 C110.7,374.7 112.2,369.7 115,365.2 C117.8,360.7 121.7,356.7 126.6,353.5 C140.2,343.6 133.2,322 116.4,322 L5.4,322 L5.4,322 C5.4,147.1 147.2,5.3 322.1,5.3 Z" id="Path" fill="#F6E049"></path>
                                <path d="M159.8,420.7 C130,420.7 105.7,402.4 105.7,379.8 C105.7,373.8 107.4,367.9 110.7,362.5 C113.8,357.4 118.2,353 123.7,349.3 C129,345.4 129.5,339.6 128.1,335.5 C126.8,331.4 123,326.9 116.3,326.9 L5.3,326.9 C2.5,326.9 0.3,324.7 0.3,321.9 C0.3,236 33.8,155.2 94.5,94.4 C155.3,33.6 236,0.2 322,0.2 C324.8,0.2 327,2.4 327,5.2 L327,116.2 C327,124 333.4,128.6 339.6,128.6 C343.5,128.6 347,126.8 349.4,123.5 C357.1,112 368.2,105.5 379.9,105.5 C402.4,105.5 420.8,129.8 420.8,159.6 C420.8,189.4 402.5,213.7 379.9,213.7 C373.9,213.7 368,212 362.6,208.7 C357.6,205.6 353.1,201.2 349.4,195.7 C345.5,190.4 339.7,189.9 335.6,191.3 C331.5,192.6 327,196.5 327,203.1 L327,322 C327,324.8 324.8,327 322,327 L203.2,327 C195.4,327 190.8,333.4 190.8,339.6 C190.8,343.5 192.6,347 195.9,349.4 C207.4,357.1 213.9,368.2 213.9,379.9 C213.9,402.4 189.6,420.7 159.8,420.7 Z M10.4,317 L116.3,317 C126.2,317 134.5,323.1 137.6,332.5 C140.7,341.9 137.5,351.7 129.5,357.5 C129.4,357.5 129.4,357.6 129.3,357.6 C125,360.5 121.5,364 119.2,367.8 C116.9,371.6 115.7,375.7 115.7,379.8 C115.7,396.8 135.5,410.7 159.8,410.7 C184.1,410.7 203.9,396.9 203.9,379.8 C203.9,371.4 199,363.5 190.2,357.5 C190.1,357.5 190.1,357.4 190,357.4 C184.1,353.1 180.7,346.6 180.7,339.5 C180.7,328.4 189.1,316.9 203.1,316.9 L317,316.9 L317,203.1 C317,193.2 323.1,184.9 332.5,181.8 C341.9,178.7 351.7,181.9 357.5,189.9 C357.5,190 357.6,190 357.6,190.1 C360.5,194.5 364,197.9 367.8,200.2 C371.6,202.6 375.7,203.7 379.9,203.7 C396.9,203.7 410.8,183.9 410.8,159.6 C410.8,135.3 397,115.5 379.9,115.5 C371.5,115.5 363.6,120.4 357.6,129.2 C357.6,129.3 357.5,129.3 357.5,129.4 C353.2,135.3 346.7,138.6 339.6,138.6 C328.5,138.6 317,130.2 317,116.2 L317,10.3 C235.6,11.6 159.3,43.9 101.6,101.5 C43.9,159.1 11.7,235.6 10.4,317 Z" id="Shape" fill="#383A48"></path>
                            </g>
                            <g transform="translate(64.000000, 64.000000)" id="Path">
                                <path d="M275.7,69.7 C280.8,69.7 286,67.5 289.6,62.5 C296.2,52.7 305.5,46.6 316,46.6 C335.8,46.6 351.9,68.6 351.9,95.7 C351.9,122.8 335.8,144.8 316,144.8 C310.8,144.8 305.8,143.3 301.3,140.5 C296.8,137.7 292.8,133.8 289.6,128.9 C279.7,115.3 258.1,122.3 258.1,139.1 L258.1,258 L139.2,258 C128.5,258 121.8,266.7 121.8,275.6 C121.8,280.7 124,285.9 129,289.5 C138.8,296 144.9,305.5 144.9,315.9 C144.9,335.7 122.9,351.8 95.8,351.8 C68.7,351.8 46.7,335.7 46.7,315.9 C46.7,310.7 48.2,305.7 51,301.2 C53.8,296.7 57.7,292.7 62.6,289.5 C76.2,279.6 69.2,258 52.4,258 L7.2,258 L7.2,258 C7.2,119.4 119.5,7.1 258.1,7.1 L258.1,52.3 C258.1,63 266.8,69.7 275.7,69.7 Z" fill="#F6E049"></path>
                                <path d="M0.7,258 L0.7,258 L13.7,258 L13.7,258 C13.7,123.2 123.3,13.6 258.1,13.6 L258.1,0.6 C116.2,0.6 0.7,116.1 0.7,258 Z" fill="#F3F6E6"></path>
                            </g>
                        </g>
                        <g transform="translate(317.000000, 0.000000)" id="Path">
                            <path d="M5.1,322 L5.1,203.1 C5.1,186.2 26.7,179.2 36.6,192.9 C39.9,197.8 43.9,201.8 48.3,204.5 C52.7,207.2 57.7,208.8 63,208.8 C82.8,208.8 98.9,186.8 98.9,159.7 C98.9,132.6 82.8,110.6 63,110.6 C52.5,110.6 43.1,116.7 36.6,126.5 C33,131.5 27.8,133.7 22.7,133.7 C13.8,133.7 5.1,127 5.1,116.3 L5.1,77.6 L5.1,71.1 L5.1,64.6 L5.1,5.3" fill="#F6E049"></path>
                            <path d="M5.1,327 C2.3,327 0.1,324.8 0.1,322 L0.1,203.1 C0.1,193.2 6.2,184.9 15.6,181.8 C25,178.7 34.8,181.9 40.6,189.9 C40.6,190 40.7,190 40.7,190.1 C43.6,194.5 47.1,197.9 50.9,200.2 C54.7,202.6 58.8,203.7 63,203.7 C80,203.7 93.9,183.9 93.9,159.6 C93.9,135.3 80.1,115.5 63,115.5 C54.6,115.5 46.7,120.4 40.7,129.2 C40.7,129.3 40.6,129.3 40.6,129.4 C36.3,135.3 29.8,138.6 22.7,138.6 C11.6,138.6 0.1,130.2 0.1,116.2 L0.1,5.2 C0.1,2.4 2.3,0.2 5.1,0.2 C7.9,0.2 10.1,2.4 10.1,5.2 L10.1,116.2 C10.1,124 16.5,128.6 22.7,128.6 C26.6,128.6 30.1,126.8 32.5,123.5 C40.2,112 51.3,105.5 63,105.5 C85.5,105.5 103.9,129.8 103.9,159.6 C103.9,189.4 85.6,213.7 63,213.7 C57,213.7 51.1,212 45.7,208.7 C40.7,205.6 36.2,201.2 32.5,195.7 C28.6,190.4 22.8,189.9 18.7,191.3 C14.6,192.6 10.1,196.5 10.1,203.1 L10.1,322 C10.1,324.8 7.9,327 5.1,327 Z" fill="#383A48"></path>
                        </g>
                        <g transform="translate(0.000000, 316.000000)">
                            <path d="M5.4,6 L64.7,6 L71.2,6 L77.7,6 L116.4,6 C133.2,6 140.2,27.5 126.6,37.4 C121.7,40.7 117.7,44.7 115,49.1 C112.2,53.6 110.7,58.5 110.7,63.8 C110.7,83.6 132.7,99.7 159.8,99.7 C186.9,99.7 208.9,83.6 208.9,63.8 C208.9,53.3 202.8,43.9 193,37.4 C188,33.8 185.8,28.6 185.8,23.5 C185.8,14.6 192.5,5.9 203.2,5.9 L322.1,5.9" id="Path" fill="#F6E049"></path>
                            <path d="M159.8,104.7 C130,104.7 105.7,86.4 105.7,63.8 C105.7,57.8 107.4,51.9 110.7,46.5 C113.8,41.4 118.2,37 123.7,33.3 C129,29.4 129.5,23.6 128.1,19.5 C126.8,15.4 123,10.9 116.3,10.9 L5.3,10.9 C2.5,10.9 0.3,8.7 0.3,5.9 C0.3,3.1 2.5,0.9 5.3,0.9 L116.3,0.9 C126.2,0.9 134.5,7 137.6,16.4 C140.7,25.8 137.5,35.6 129.5,41.4 C129.4,41.4 129.4,41.5 129.3,41.5 C125,44.4 121.5,47.9 119.2,51.7 C116.9,55.5 115.7,59.6 115.7,63.7 C115.7,80.7 135.5,94.6 159.8,94.6 C184.1,94.6 203.9,80.8 203.9,63.7 C203.9,55.3 199,47.4 190.2,41.4 C190.1,41.4 190.1,41.3 190,41.3 C184.1,37 180.7,30.5 180.7,23.4 C180.7,12.3 189.1,0.8 203.1,0.8 L322,0.8 C324.8,0.8 327,3 327,5.8 C327,8.6 324.8,10.8 322,10.8 L203.2,10.8 C195.4,10.8 190.8,17.2 190.8,23.4 C190.8,27.3 192.6,30.8 195.9,33.2 C207.4,40.9 213.9,52 213.9,63.7 C213.9,86.4 189.6,104.7 159.8,104.7 Z" id="Shape" fill="#383A48"></path>
                        </g>
                    </g>
                    <g transform="translate(305.000000, 517.000000)">
                        <rect id="Rectangle" fill="#383A48" fill-rule="nonzero" x="12.1" y="0.9" width="10" height="33"></rect>
                        <g transform="translate(0.000000, 12.000000)">
                            <line x1="0.6" y1="5.4" x2="33.6" y2="5.4" id="Path"></line>
                            <rect id="Rectangle" fill="#383A48" fill-rule="nonzero" x="0.6" y="0.4" width="33" height="10"></rect>
                        </g>
                    </g>
                    <g transform="translate(1469.000000, 161.000000)">
                        <rect id="Rectangle" fill="#383A48" fill-rule="nonzero" x="12" y="0.8" width="10" height="33"></rect>
                        <g transform="translate(0.000000, 12.000000)">
                            <line x1="0.5" y1="5.3" x2="33.5" y2="5.3" id="Path"></line>
                            <rect id="Rectangle" fill="#383A48" fill-rule="nonzero" x="0.5" y="0.3" width="33" height="10"></rect>
                        </g>
                    </g>
                    <g transform="translate(882.000000, 99.000000)" fill="#383A48" fill-rule="nonzero" id="Rectangle">
                        <rect x="11.8" y="0" width="10" height="33"></rect>
                        <rect x="0.3" y="11.5" width="33" height="10"></rect>
                    </g>
                    <path d="M1522.4,474.1 L1488.6,440.1 L1512.6,416.1 C1513.9,414.8 1514.6,413.1 1514.6,411.2 L1514.6,350.9 C1514.6,349.1 1513.9,347.3 1512.6,346 L1467.8,301.2 C1466.6,300 1465.1,299.3 1463.4,299.2 L1463.4,265.5 C1463.4,261.7 1460.3,258.6 1456.5,258.6 L1409,258.6 C1405.2,258.6 1402.1,261.7 1402.1,265.5 L1402.1,299.1 L1389.5,299.1 L1371.8,299.1 L1371.8,265.5 C1371.8,261.7 1368.7,258.6 1364.9,258.6 L1317.4,258.6 C1313.6,258.6 1310.5,261.7 1310.5,265.5 L1310.5,299.1 L1300.5,299.1 L1253.2,299.1 C1249.4,299.1 1246.3,302.2 1246.3,306 L1246.3,354 C1246.3,357.8 1249.4,360.9 1253.2,360.9 L1293.6,360.9 L1293.6,534.3 L1253.2,534.3 C1249.4,534.3 1246.3,537.4 1246.3,541.2 L1246.3,589.2 C1246.3,593 1249.4,596.1 1253.2,596.1 L1298.9,596.1 C1299.4,596.2 1299.9,596.3 1300.5,596.3 L1310.5,596.3 L1310.5,626.7 C1310.5,630.5 1313.6,633.6 1317.4,633.6 L1364.9,633.6 C1368.7,633.6 1371.8,630.5 1371.8,626.7 L1371.8,596.3 L1402.1,596.3 L1402.1,626.7 C1402.1,630.5 1405.2,633.6 1409,633.6 L1456.5,633.6 C1460.3,633.6 1463.4,630.5 1463.4,626.7 L1463.4,596.3 L1472.7,596.3 C1474.5,596.3 1476.3,595.6 1477.6,594.3 L1522.4,549.5 C1523.7,548.2 1524.4,546.5 1524.4,544.6 L1524.4,478.9 C1524.4,477.1 1523.6,475.4 1522.4,474.1 Z M1389.6,534.4 L1371.9,534.4 L1371.9,474.5 L1433.7,474.5 L1446.4,487.2 L1446.4,521.7 L1433.7,534.4 L1389.6,534.4 L1389.6,534.4 Z M1371.8,361 L1389.5,361 L1423.8,361 L1436.5,373.7 L1436.5,403.4 L1425,414.9 L1371.8,414.9 L1371.8,361 Z" id="Shape" fill-rule="nonzero"></path>
                    <path d="M1282,0.4 L1172,0.4 C1169.2,0.4 1167,2.6 1167,5.4 L1167,169.6 C1167,172.4 1169.2,174.6 1172,174.6 L1282,174.6 C1284.8,174.6 1287,172.4 1287,169.6 L1287,5.4 C1287,2.7 1284.7,0.4 1282,0.4 Z" id="Path" fill="#4053FA" fill-rule="nonzero"></path>
                    <path d="M1441.9,0.4 L1331.9,0.4 C1329.1,0.4 1326.9,2.6 1326.9,5.4 L1326.9,63.3 C1326.9,66.1 1329.1,68.3 1331.9,68.3 L1441.9,68.3 C1444.7,68.3 1446.9,66.1 1446.9,63.3 L1446.9,5.4 C1446.9,2.7 1444.7,0.4 1441.9,0.4 Z" id="Path" fill="#4053FA" fill-rule="nonzero"></path>
                </g>
                <g transform="translate(1237.000000, 356.000000)" fill-rule="nonzero" id="Path">
                    <path d="M194.269041,42.695264 C173.617273,15.5578416 142.283557,0 108.172534,0 C48.5672602,0 0,48.5205745 0,108.123447 C0,135.545031 10.3258838,161.758929 28.9836875,181.863354 C29.6958174,182.573758 30.6215863,183 31.6185682,183 C31.6897812,183 31.7609942,183 31.8322072,183 C32.9004021,182.92896 33.8973839,182.360637 34.5383009,181.508152 C65.3023132,137.463121 99.911827,117.074534 130.4622,99.0302795 C155.173108,84.4670031 178.53097,70.6141304 194.340254,46.8156056 C195.266023,45.5368789 195.19481,43.9029503 194.269041,42.695264 Z" fill="#4053FA"></path>
                    <path d="M194.8778,43.4204545 C194.166475,42.4971591 193.099488,42 191.961368,42 C190.823248,42.0710227 189.756261,42.6392045 189.116069,43.5625 C174.249381,66.0056818 152.625108,78.7897727 127.657609,93.5625 C96.5015838,111.957386 61.2198751,132.838068 29.6370553,178.079545 C28.7123331,179.428977 28.7834656,181.275568 29.9215852,182.553977 C50.2654737,204.428977 79.0741269,217 108.949767,217 C168.487651,217 217,168.491477 217,108.903409 C216.928868,84.96875 209.317692,62.3835227 194.8778,43.4204545 Z" fill="#E0719E"></path>
                </g>
            </g>
        </g>
    </g>
</svg>