<?xml version="1.0" encoding="UTF-8"?>
<svg width="1530px" height="776px" viewBox="0 0 1530 776" version="1.1" xmlns="http://www.w3.org/2000/svg" xmlns:xlink="http://www.w3.org/1999/xlink">
    <!-- Generator: Sketch 59.1 (86144) - https://sketch.com -->
    <title>abstract-shipping</title>
    <desc>Created with Sketch.</desc>
    <g id="Page-1" stroke="none" stroke-width="1" fill="none" fill-rule="evenodd">
        <g id="abstract-shipping" transform="translate(-195.000000, -152.000000)" fill-rule="nonzero">
            <g id="Group" transform="translate(195.000000, 152.000000)">
                <path d="M1513,62.2 C1502,58 1489.7,61 1481.6,70 C1388.2,172.8 1284.2,191.8 1174,211.9 C1060.1,232.7 942.4,254.1 826.9,369.4 C767.9,428.3 728.6,494.3 694,552.6 C659.9,610 627.6,664.2 582.3,703 C532.2,745.8 470.9,765.7 389.2,765.7 C386.4,765.7 384.2,767.9 384.2,770.7 C384.2,773.5 386.4,775.7 389.2,775.7 L1525,775.7 C1527.8,775.7 1530,773.5 1530,770.7 L1530,87.2 C1529.9,75.8 1523.4,66.2 1513,62.2 Z" id="Path" fill="#F3F6E6"></path>
                <g transform="translate(549.000000, 307.000000)">
                    <path d="M606.1,360.3 C576.3,360.3 552,384.6 552,414.4 C552,444.2 576.3,468.5 606.1,468.5 C635.9,468.5 660.2,444.2 660.2,414.4 C660.2,384.6 636,360.3 606.1,360.3 Z" id="Path" fill="#383A48"></path>
                    <path d="M156.7,358 C126.9,358 102.6,382.3 102.6,412.1 C102.6,441.9 126.9,466.2 156.7,466.2 C186.5,466.2 210.8,441.9 210.8,412.1 C210.8,382.3 186.5,358 156.7,358 Z" id="Path" fill="#383A48"></path>
                    <g>
                        <polygon id="Path" fill="#F6E049" points="738.8 5.3 203 5.3 122.7 277.6 5.5 277.6 5.5 412.1 738.8 412.1"></polygon>
                        <path d="M738.8,417.1 L5.5,417.1 C2.7,417.1 0.5,414.9 0.5,412.1 L0.5,277.6 C0.5,276.3 1,275 2,274.1 C2.9,273.2 4.2,272.6 5.5,272.6 L119,272.6 L198.2,3.9 C198.8,1.8 200.8,0.3 203,0.3 L738.8,0.3 C741.6,0.3 743.8,2.5 743.8,5.3 L743.8,412.1 C743.8,414.9 741.6,417.1 738.8,417.1 Z M10.5,407.1 L733.8,407.1 L733.8,10.3 L206.7,10.3 L127.5,279 C126.9,281.1 124.9,282.6 122.7,282.6 L10.5,282.6 L10.5,407.1 Z" id="Shape" fill="#383A48"></path>
                    </g>
                    <g transform="translate(237.000000, 0.000000)">
                        <polygon id="Path" fill="#F6E049" points="738.9 5.3 203.1 5.3 122.8 277.6 5.6 277.6 5.6 412.1 738.9 412.1"></polygon>
                        <path d="M738.9,417.1 L5.6,417.1 C2.8,417.1 0.6,414.9 0.6,412.1 L0.6,277.6 C0.6,276.3 1.1,275 2.1,274.1 C3,273.2 4.3,272.6 5.6,272.6 L119.1,272.6 L198.3,3.9 C198.9,1.8 200.9,0.3 203.1,0.3 L738.9,0.3 C741.7,0.3 743.9,2.5 743.9,5.3 L743.9,412.1 C743.9,414.9 741.7,417.1 738.9,417.1 Z M10.6,407.1 L733.9,407.1 L733.9,10.3 L206.8,10.3 L127.6,279 C127,281.1 125,282.6 122.8,282.6 L10.6,282.6 L10.6,407.1 Z" id="Shape" fill="#383A48"></path>
                    </g>
                    <g transform="translate(258.000000, 16.000000)" fill="#383A48" id="Oval">
                        <circle cx="696.6" cy="5.2" r="5"></circle>
                        <circle cx="696.6" cy="29.9" r="5"></circle>
                        <circle cx="696.6" cy="54.5" r="5"></circle>
                        <circle cx="696.6" cy="79.2" r="5"></circle>
                        <circle cx="696.6" cy="103.9" r="5"></circle>
                        <circle cx="696.6" cy="128.5" r="5"></circle>
                        <circle cx="696.6" cy="153.2" r="5"></circle>
                        <circle cx="696.6" cy="177.9" r="5"></circle>
                        <circle cx="696.6" cy="202.5" r="5"></circle>
                        <circle cx="696.6" cy="227.2" r="5"></circle>
                        <circle cx="696.6" cy="251.9" r="5"></circle>
                        <circle cx="696.6" cy="276.5" r="5"></circle>
                        <circle cx="696.6" cy="301.2" r="5"></circle>
                        <circle cx="696.6" cy="325.9" r="5"></circle>
                        <circle cx="696.6" cy="350.5" r="5"></circle>
                        <circle cx="696.6" cy="375.2" r="5"></circle>
                        <circle cx="671.9" cy="5.2" r="5"></circle>
                        <circle cx="671.9" cy="29.9" r="5"></circle>
                        <circle cx="671.9" cy="54.5" r="5"></circle>
                        <circle cx="671.9" cy="79.2" r="5"></circle>
                        <circle cx="671.9" cy="103.9" r="5"></circle>
                        <circle cx="671.9" cy="128.5" r="5"></circle>
                        <circle cx="671.9" cy="153.2" r="5"></circle>
                        <circle cx="671.9" cy="177.9" r="5"></circle>
                        <circle cx="671.9" cy="202.5" r="5"></circle>
                        <circle cx="671.9" cy="227.2" r="5"></circle>
                        <circle cx="671.9" cy="251.9" r="5"></circle>
                        <circle cx="671.9" cy="276.5" r="5"></circle>
                        <circle cx="671.9" cy="301.2" r="5"></circle>
                        <circle cx="671.9" cy="325.9" r="5"></circle>
                        <circle cx="671.9" cy="350.5" r="5"></circle>
                        <circle cx="671.9" cy="375.2" r="5"></circle>
                        <circle cx="647.2" cy="5.2" r="5"></circle>
                        <circle cx="647.2" cy="29.9" r="5"></circle>
                        <circle cx="647.2" cy="54.5" r="5"></circle>
                        <circle cx="647.2" cy="79.2" r="5"></circle>
                        <circle cx="647.2" cy="103.9" r="5"></circle>
                        <circle cx="647.2" cy="128.5" r="5"></circle>
                        <circle cx="647.2" cy="153.2" r="5"></circle>
                        <circle cx="647.2" cy="177.9" r="5"></circle>
                        <circle cx="647.2" cy="202.5" r="5"></circle>
                        <circle cx="647.2" cy="227.2" r="5"></circle>
                        <circle cx="647.2" cy="251.9" r="5"></circle>
                        <circle cx="647.2" cy="276.5" r="5"></circle>
                        <circle cx="647.2" cy="301.2" r="5"></circle>
                        <circle cx="647.2" cy="325.9" r="5"></circle>
                        <circle cx="647.2" cy="350.5" r="5"></circle>
                        <circle cx="647.2" cy="375.2" r="5"></circle>
                        <circle cx="622.6" cy="5.2" r="5"></circle>
                        <circle cx="622.6" cy="29.9" r="5"></circle>
                        <circle cx="622.6" cy="54.5" r="5"></circle>
                        <circle cx="622.6" cy="79.2" r="5"></circle>
                        <circle cx="622.6" cy="103.9" r="5"></circle>
                        <circle cx="622.6" cy="128.5" r="5"></circle>
                        <circle cx="622.6" cy="153.2" r="5"></circle>
                        <circle cx="622.6" cy="177.9" r="5"></circle>
                        <circle cx="622.6" cy="202.5" r="5"></circle>
                        <circle cx="622.6" cy="227.2" r="5"></circle>
                        <circle cx="622.6" cy="251.9" r="5"></circle>
                        <circle cx="622.6" cy="276.5" r="5"></circle>
                        <circle cx="622.6" cy="301.2" r="5"></circle>
                        <circle cx="622.6" cy="325.9" r="5"></circle>
                        <circle cx="622.6" cy="350.5" r="5"></circle>
                        <circle cx="622.6" cy="375.2" r="5"></circle>
                        <circle cx="597.9" cy="301.2" r="5"></circle>
                        <circle cx="597.9" cy="325.9" r="5"></circle>
                        <circle cx="597.9" cy="350.5" r="5"></circle>
                        <circle cx="597.9" cy="375.2" r="5"></circle>
                        <circle cx="573.2" cy="301.2" r="5"></circle>
                        <circle cx="573.2" cy="325.9" r="5"></circle>
                        <circle cx="573.2" cy="350.5" r="5"></circle>
                        <circle cx="573.2" cy="375.2" r="5"></circle>
                        <circle cx="548.6" cy="301.2" r="5"></circle>
                        <circle cx="548.6" cy="325.9" r="5"></circle>
                        <circle cx="548.6" cy="350.5" r="5"></circle>
                        <circle cx="548.6" cy="375.2" r="5"></circle>
                        <circle cx="523.9" cy="301.2" r="5"></circle>
                        <circle cx="523.9" cy="325.9" r="5"></circle>
                        <circle cx="523.9" cy="350.5" r="5"></circle>
                        <circle cx="523.9" cy="375.2" r="5"></circle>
                        <circle cx="499.2" cy="301.2" r="5"></circle>
                        <circle cx="499.2" cy="325.9" r="5"></circle>
                        <circle cx="499.2" cy="350.5" r="5"></circle>
                        <circle cx="499.2" cy="375.2" r="5"></circle>
                        <circle cx="474.6" cy="301.2" r="5"></circle>
                        <circle cx="474.6" cy="325.9" r="5"></circle>
                        <circle cx="474.6" cy="350.5" r="5"></circle>
                        <circle cx="474.6" cy="375.2" r="5"></circle>
                        <circle cx="449.9" cy="301.2" r="5"></circle>
                        <circle cx="449.9" cy="325.9" r="5"></circle>
                        <circle cx="449.9" cy="350.5" r="5"></circle>
                        <circle cx="449.9" cy="375.2" r="5"></circle>
                        <circle cx="425.2" cy="301.2" r="5"></circle>
                        <circle cx="425.2" cy="325.9" r="5"></circle>
                        <circle cx="425.2" cy="350.5" r="5"></circle>
                        <circle cx="425.2" cy="375.2" r="5"></circle>
                        <circle cx="400.6" cy="301.2" r="5"></circle>
                        <circle cx="400.6" cy="325.9" r="5"></circle>
                        <circle cx="400.6" cy="350.5" r="5"></circle>
                        <circle cx="400.6" cy="375.2" r="5"></circle>
                        <circle cx="375.9" cy="301.2" r="5"></circle>
                        <circle cx="375.9" cy="325.9" r="5"></circle>
                        <circle cx="375.9" cy="350.5" r="5"></circle>
                        <circle cx="375.9" cy="375.2" r="5"></circle>
                        <circle cx="351.2" cy="301.2" r="5"></circle>
                        <circle cx="351.2" cy="325.9" r="5"></circle>
                        <circle cx="351.2" cy="350.5" r="5"></circle>
                        <circle cx="351.2" cy="375.2" r="5"></circle>
                        <circle cx="326.6" cy="301.2" r="5"></circle>
                        <circle cx="326.6" cy="325.9" r="5"></circle>
                        <circle cx="326.6" cy="350.5" r="5"></circle>
                        <circle cx="326.6" cy="375.2" r="5"></circle>
                        <circle cx="301.9" cy="301.2" r="5"></circle>
                        <circle cx="301.9" cy="325.9" r="5"></circle>
                        <circle cx="301.9" cy="350.5" r="5"></circle>
                        <circle cx="301.9" cy="375.2" r="5"></circle>
                        <circle cx="277.2" cy="301.2" r="5"></circle>
                        <circle cx="277.2" cy="325.9" r="5"></circle>
                        <circle cx="277.2" cy="350.5" r="5"></circle>
                        <circle cx="277.2" cy="375.2" r="5"></circle>
                        <circle cx="252.6" cy="301.2" r="5"></circle>
                        <circle cx="252.6" cy="325.9" r="5"></circle>
                        <circle cx="252.6" cy="350.5" r="5"></circle>
                        <circle cx="252.6" cy="375.2" r="5"></circle>
                        <circle cx="227.9" cy="301.2" r="5"></circle>
                        <circle cx="227.9" cy="325.9" r="5"></circle>
                        <circle cx="227.9" cy="350.5" r="5"></circle>
                        <circle cx="227.9" cy="375.2" r="5"></circle>
                        <circle cx="203.2" cy="301.2" r="5"></circle>
                        <circle cx="203.2" cy="325.9" r="5"></circle>
                        <circle cx="203.2" cy="350.5" r="5"></circle>
                        <circle cx="203.2" cy="375.2" r="5"></circle>
                        <circle cx="178.6" cy="301.2" r="5"></circle>
                        <circle cx="178.6" cy="325.9" r="5"></circle>
                        <circle cx="178.6" cy="350.5" r="5"></circle>
                        <circle cx="178.6" cy="375.2" r="5"></circle>
                        <circle cx="153.9" cy="301.2" r="5"></circle>
                        <circle cx="153.9" cy="325.9" r="5"></circle>
                        <circle cx="153.9" cy="350.5" r="5"></circle>
                        <circle cx="153.9" cy="375.2" r="5"></circle>
                        <circle cx="129.2" cy="301.2" r="5"></circle>
                        <circle cx="129.2" cy="325.9" r="5"></circle>
                        <circle cx="129.2" cy="350.5" r="5"></circle>
                        <circle cx="129.2" cy="375.2" r="5"></circle>
                        <circle cx="104.6" cy="301.2" r="5"></circle>
                        <circle cx="104.6" cy="325.9" r="5"></circle>
                        <circle cx="104.6" cy="350.5" r="5"></circle>
                        <circle cx="104.6" cy="375.2" r="5"></circle>
                        <circle cx="79.9" cy="301.2" r="5"></circle>
                        <circle cx="79.9" cy="325.9" r="5"></circle>
                        <circle cx="79.9" cy="350.5" r="5"></circle>
                        <circle cx="79.9" cy="375.2" r="5"></circle>
                        <circle cx="55.2" cy="301.2" r="5"></circle>
                        <circle cx="55.2" cy="325.9" r="5"></circle>
                        <circle cx="55.2" cy="350.5" r="5"></circle>
                        <circle cx="55.2" cy="375.2" r="5"></circle>
                        <circle cx="30.6" cy="301.2" r="5"></circle>
                        <circle cx="30.6" cy="325.9" r="5"></circle>
                        <circle cx="30.6" cy="350.5" r="5"></circle>
                        <circle cx="30.6" cy="375.2" r="5"></circle>
                        <circle cx="5.9" cy="301.2" r="5"></circle>
                        <circle cx="5.9" cy="325.9" r="5"></circle>
                        <circle cx="5.9" cy="350.5" r="5"></circle>
                        <circle cx="5.9" cy="375.2" r="5"></circle>
                    </g>
                    <circle id="Oval" fill="#383A48" cx="843.2" cy="414.4" r="54.1"></circle>
                    <circle id="Oval" fill="#383A48" cx="393.8" cy="412.1" r="54.1"></circle>
                    <g transform="translate(117.000000, 0.000000)">
                        <polygon id="Path" fill="#AAC6FC" points="5.7 277.6 242.8 277.6 323.1 5.3 86 5.3"></polygon>
                        <path d="M242.8,282.6 L5.7,282.6 C4.1,282.6 2.6,281.9 1.7,280.6 C0.8,279.3 0.5,277.7 0.9,276.2 L81.2,3.9 C81.8,1.8 83.8,0.3 86,0.3 L323.1,0.3 C324.7,0.3 326.2,1 327.1,2.3 C328,3.6 328.3,5.2 327.9,6.7 L247.6,279 C247,281.2 245,282.6 242.8,282.6 Z M12.4,272.6 L239.1,272.6 L316.4,10.3 L89.7,10.3 L12.4,272.6 Z" id="Shape" fill="#383A48"></path>
                    </g>
                    <g transform="translate(354.000000, 0.000000)">
                        <polygon id="Path" fill="#AAC6FC" points="5.8 277.6 225.1 277.6 225.1 5.3 86.1 5.3"></polygon>
                        <path d="M225.1,282.6 L5.8,282.6 C4.2,282.6 2.7,281.9 1.8,280.6 C0.9,279.3 0.6,277.7 1,276.2 L81.3,3.9 C81.9,1.8 83.9,0.3 86.1,0.3 L225.1,0.3 C227.9,0.3 230.1,2.5 230.1,5.3 L230.1,277.6 C230.1,280.4 227.8,282.6 225.1,282.6 Z M12.5,272.6 L220.1,272.6 L220.1,10.3 L89.9,10.3 L12.5,272.6 Z" id="Shape" fill="#383A48"></path>
                    </g>
                    <g transform="translate(149.000000, 313.000000)">
                        <circle id="Oval" fill="#F6E049" cx="33.5" cy="32.9" r="27.6"></circle>
                        <path d="M33.5,65.6 C15.5,65.6 0.9,51 0.9,33 C0.9,15 15.5,0.4 33.5,0.4 C51.5,0.4 66.1,15 66.1,33 C66.1,51 51.5,65.6 33.5,65.6 Z M33.5,10.3 C21,10.3 10.9,20.4 10.9,32.9 C10.9,45.4 21,55.5 33.5,55.5 C46,55.5 56.1,45.4 56.1,32.9 C56.1,20.5 45.9,10.3 33.5,10.3 Z" id="Shape" fill="#383A48"></path>
                    </g>
                    <g transform="translate(15.000000, 313.000000)">
                        <circle id="Oval" fill="#F6E049" cx="33.5" cy="32.9" r="27.6"></circle>
                        <path d="M33.5,65.6 C15.5,65.6 0.9,51 0.9,33 C0.9,15 15.5,0.4 33.5,0.4 C51.5,0.4 66.1,15 66.1,33 C66.1,51 51.4,65.6 33.5,65.6 Z M33.5,10.3 C21,10.3 10.9,20.4 10.9,32.9 C10.9,45.4 21,55.5 33.5,55.5 C46,55.5 56.1,45.4 56.1,32.9 C56.1,20.5 45.9,10.3 33.5,10.3 Z" id="Shape" fill="#383A48"></path>
                    </g>
                </g>
                <path d="M523.8,4.7 L5.1,4.7 C2.3,4.7 0.1,6.9 0.1,9.7 L0.1,736.1 C0.1,738.7 2.1,740.9 4.7,741.1 C4.8,741.1 5,741.1 5.1,741.1 C7.5,741.1 9.7,739.3 10,736.9 C31.1,599.9 48.4,540.3 147.3,457.9 C258.2,365.5 294.3,265 323.4,184.3 C341.2,134.9 356.5,92.2 384.7,62.2 C415.2,29.8 459.4,14.8 523.8,14.8 C526.6,14.8 528.8,12.6 528.8,9.8 C528.8,7 526.6,4.7 523.8,4.7 Z" id="Path" fill="#F3F6E6"></path>
                <g transform="translate(142.000000, 532.000000)">
                    <rect id="Rectangle" fill="#E0719E" x="5" y="5.5" width="233.1" height="233.1"></rect>
                    <path d="M238.1,243.6 L5,243.6 C2.2,243.6 0,241.4 0,238.6 L0,5.5 C0,2.7 2.2,0.5 5,0.5 L238.1,0.5 C240.9,0.5 243.1,2.7 243.1,5.5 L243.1,238.6 C243.1,241.3 240.8,243.6 238.1,243.6 Z M10,233.6 L233.1,233.6 L233.1,10.5 L10,10.5 L10,233.6 Z" id="Shape" fill="#383A48"></path>
                </g>
                <g transform="translate(253.000000, 563.000000)" fill="#383A48" id="Oval">
                    <circle cx="104" cy="5.7" r="5"></circle>
                    <circle cx="104" cy="30.4" r="5"></circle>
                    <circle cx="104" cy="55" r="5"></circle>
                    <circle cx="104" cy="79.7" r="5"></circle>
                    <circle cx="104" cy="104.4" r="5"></circle>
                    <circle cx="104" cy="129" r="5"></circle>
                    <circle cx="104" cy="153.7" r="5"></circle>
                    <circle cx="104" cy="178.4" r="5"></circle>
                    <circle cx="79.3" cy="5.7" r="5"></circle>
                    <circle cx="79.3" cy="30.4" r="5"></circle>
                    <circle cx="79.3" cy="55" r="5"></circle>
                    <circle cx="79.3" cy="79.7" r="5"></circle>
                    <circle cx="79.3" cy="104.4" r="5"></circle>
                    <circle cx="79.3" cy="129" r="5"></circle>
                    <circle cx="79.3" cy="153.7" r="5"></circle>
                    <circle cx="79.3" cy="178.4" r="5"></circle>
                    <circle cx="54.6" cy="5.7" r="5"></circle>
                    <circle cx="54.6" cy="30.4" r="5"></circle>
                    <circle cx="54.6" cy="55" r="5"></circle>
                    <circle cx="54.6" cy="79.7" r="5"></circle>
                    <circle cx="54.6" cy="104.4" r="5"></circle>
                    <circle cx="54.6" cy="129" r="5"></circle>
                    <circle cx="54.6" cy="153.7" r="5"></circle>
                    <circle cx="54.6" cy="178.4" r="5"></circle>
                    <circle cx="30" cy="5.7" r="5"></circle>
                    <circle cx="30" cy="30.4" r="5"></circle>
                    <circle cx="30" cy="55" r="5"></circle>
                    <circle cx="30" cy="79.7" r="5"></circle>
                    <circle cx="30" cy="104.4" r="5"></circle>
                    <circle cx="30" cy="129" r="5"></circle>
                    <circle cx="30" cy="153.7" r="5"></circle>
                    <circle cx="30" cy="178.4" r="5"></circle>
                    <circle cx="5.3" cy="5.7" r="5"></circle>
                    <circle cx="5.3" cy="30.4" r="5"></circle>
                    <circle cx="5.3" cy="55" r="5"></circle>
                    <circle cx="5.3" cy="79.7" r="5"></circle>
                    <circle cx="5.3" cy="104.4" r="5"></circle>
                    <circle cx="5.3" cy="129" r="5"></circle>
                    <circle cx="5.3" cy="153.7" r="5"></circle>
                    <circle cx="5.3" cy="178.4" r="5"></circle>
                </g>
                <g transform="translate(0.000000, 532.000000)">
                    <rect id="Rectangle" fill="#F6E049" x="5.1" y="5.5" width="233.1" height="233.1"></rect>
                    <path d="M238.1,243.6 L5.1,243.6 C2.3,243.6 0.1,241.4 0.1,238.6 L0.1,5.5 C0.1,2.7 2.3,0.5 5.1,0.5 L238.2,0.5 C241,0.5 243.2,2.7 243.2,5.5 L243.2,238.6 C243.1,241.3 240.9,243.6 238.1,243.6 Z M10.1,233.6 L233.2,233.6 L233.2,10.5 L10.1,10.5 L10.1,233.6 Z" id="Shape" fill="#383A48"></path>
                </g>
                <g transform="translate(85.000000, 532.000000)">
                    <polygon id="Path" fill="#F3F6E6" points="68.3 128.3 36.6 98.5 5 128.3 5 5.8 68.3 5.8"></polygon>
                    <path d="M68.3,133.3 C67.1,133.3 65.8,132.8 64.9,131.9 L36.7,105.4 L8.5,131.9 C7,133.3 4.9,133.6 3.1,132.8 C1.3,132 0.1,130.2 0.1,128.2 L0.1,5.8 C0.1,3 2.3,0.8 5.1,0.8 L68.4,0.8 C71.2,0.8 73.4,3 73.4,5.8 L73.4,128.3 C73.4,130.3 72.2,132.1 70.4,132.9 C69.6,133.1 68.9,133.3 68.3,133.3 Z M10,10.8 L10,116.7 L33.2,94.9 C35.1,93.1 38.1,93.1 40,94.9 L63.2,116.7 L63.2,10.8 L10,10.8 Z" id="Shape" fill="#383A48"></path>
                </g>
                <g transform="translate(285.000000, 532.000000)">
                    <polygon id="Path" fill="#F3F6E6" points="50 128.3 27.6 98.5 5.1 128.3 5.1 5.8 50 5.8"></polygon>
                    <path d="M50,133.3 C48.5,133.3 47,132.6 46,131.3 L27.6,106.9 L9.2,131.3 C7.9,133 5.7,133.7 3.6,133 C1.6,132.3 0.2,130.4 0.2,128.3 L0.2,5.8 C0.2,3 2.4,0.8 5.2,0.8 L50,0.8 C52.8,0.8 55,3 55,5.8 L55,128.3 C55,130.4 53.6,132.4 51.6,133 C51,133.2 50.5,133.3 50,133.3 Z M27.6,93.5 C29.2,93.5 30.6,94.2 31.6,95.5 L45,113.3 L45,10.8 L10.2,10.8 L10.2,113.4 L23.6,95.6 C24.5,94.3 26,93.5 27.6,93.5 Z" id="Shape" fill="#383A48"></path>
                </g>
                <g transform="translate(405.000000, 24.000000)">
                    <g>
                        <path d="M533.8,133.1 C515.1,125 495.7,120.3 475.4,120.4 C460.9,120.4 404.1,120.9 332.9,121.5 C311.8,102.8 241.6,41.3 223.4,25.4 C220.5,22.9 217.4,20.7 214,18.9 L200.3,11.5 C192.6,7.3 183.9,5.3 175.2,5.39642992 L163.1,5.6 C156.8,5.7 153.1,12.8 156.7,18.1 C174.6,44.3 216,105 228.7,122.3 C162.2,122.9 106.2,123.3 96.5,123.4 C90,123.4 84.4,121.3 80.3,116.1 C78.4,113.6 76.7,111 75.1,108.3 C69.3,98.3 63.7,88.1 57.9,78.1 C53.7,70.8 49.2,63.6 45.2,56.2 C43.3,52.7 41.1,49.6 38,47.3 C31.6,42.4 24.5,39.4 16.3,39.9 C9.3,40.4 5.1,45.1 5.19825345,52.1 C5.19825345,54.4 5.4,56.6 5.5,58.8 C6.1,79.5 6.9,134.8 7.5,172.8 C7.8,194.2 25.1,211.5 46.5,211.7 C115.8,212.7 252.5,212.5 252.5,212.5 C252.5,212.5 155.7,355.8 149.5,365.1 C147.6,368 145.9,371.1 144.7,374.4 C143.3,378.1 145,380.2 149,380.3 C155.5,380.4 162,380.7 168.5,380.6 C171.7,380.6 174.9,380.3 178,379.5 C191.4,376.2 203,369.5 213.3,360.3 C247.9,329.2 382.7,211.1 382.7,211.1 L550.2,212.2 C572.5,212.2 581.7,181.9 573.4,168.1 C565.5,155.2 553.2,141.5 533.8,133.1 Z" id="Path" fill="#F3F6E6"></path>
                        <path d="M165.8,385.3 C161.6,385.3 157.5,385.2 153.4,385.1 C151.8,385.1 150.2,385 148.7,385 C144,384.9 141.6,382.8 140.5,381.1 C139.6,379.7 138.3,376.8 139.9,372.4 C141.2,369 143,365.6 145.3,362.1 C150.6,354.1 222.8,247.3 243.1,217.3 C210.9,217.3 104.5,217.3 46.4,216.5 C22.1,216.2 2.8,196.9 2.5,172.6 C1.9,131.8 1,79 0.5,58.7 C0.5,57.7 0.4,56.8 0.4,55.8 C0.295442649,54.5 0.295442649,53.2 0.295442649,51.9 C0.1,42.2 6.5,35.3 16.1,34.6 C24.7,34 32.9,36.8 41.2,43 C44.6,45.5 47.3,48.9 49.8,53.6 C52.2,58.1 54.9,62.6 57.5,67 C59.1,69.8 60.8,72.6 62.5,75.5 C65.3,80.4 68.1,85.4 70.9,90.4 C73.8,95.5 76.7,100.6 79.6,105.8 C81.3,108.8 82.8,111.1 84.4,113 C87.2,116.6 91.2,118.4 96.5,118.4 C96.5,118.4 96.6,118.4 96.6,118.4 C106.2,118.4 162.3,117.9 219.2,117.4 C202.6,93.9 168.2,43.5 152.8,21 C150.1,17.1 149.8,12 152,7.7 C154.2,3.5 158.5,0.8 163.3,0.7 L175.4,0.5 C185,0.3 194.5,2.6 203,7.2 L216.7,14.6 C220.4,16.6 223.8,19 227,21.7 C235.7,29.3 310.9,95.2 335.1,116.5 L383.1,116.1 C430.5,115.7 464.8,115.4 475.7,115.4 C475.8,115.4 476,115.4 476.1,115.4 C496.2,115.4 515.8,119.7 536.2,128.5 L536.2,128.5 C553.7,136.1 567.7,148.5 577.9,165.3 C583.5,174.6 582.8,189.2 576.2,200.8 C570.4,211.1 561,216.9 550.4,216.9 L384.8,215.8 C370.2,228.6 249.1,334.7 216.8,363.7 C205.3,374 193,380.7 179.4,384 C176.2,384.8 172.8,385.2 168.8,385.2 C167.5,385.3 166.6,385.3 165.8,385.3 Z M149.5,375.1 C150.9,375.1 152.2,375.2 153.6,375.2 C158.4,375.3 163.4,375.4 168.2,375.4 C171.4,375.4 174.1,375.1 176.5,374.5 C188.5,371.6 199.3,365.7 209.6,356.4 C243.9,325.7 377.7,208.4 379.1,207.2 C380,206.4 381.2,206 382.4,206 C382.4,206 382.4,206 382.4,206 L549.9,207.1 C559.3,207.1 564.6,200.2 567,196 C571.7,187.6 572.5,176.7 568.8,170.5 C559.8,155.5 547.3,144.4 531.7,137.7 L531.7,137.7 C512.6,129.4 494.3,125.4 475.6,125.4 C475.5,125.4 475.4,125.4 475.3,125.4 C464.4,125.4 430.2,125.7 382.8,126.1 L332.9,126.5 C331.7,126.5 330.5,126.1 329.6,125.2 C307.1,105.4 229,36.9 220.1,29.1 C217.5,26.8 214.7,24.9 211.6,23.2 L197.9,15.8 C191,12.1 183.1,10.2 175.3,10.3 L163.2,10.5 C161.6,10.5 160.8,11.6 160.6,12.1 C160.4,12.6 159.9,13.8 160.8,15.2 C178.2,40.7 220,102 232.7,119.2 C233.8,120.7 234,122.7 233.1,124.4 C232.3,126.1 230.5,127.1 228.7,127.2 C168.7,127.7 106.6,128.2 96.4,128.3 C96.3,128.3 96.3,128.3 96.2,128.3 C87.8,128.3 81,125.2 76.3,119.1 C74.5,116.8 72.7,114.1 70.8,110.7 C67.9,105.6 65,100.4 62.1,95.3 C59.3,90.4 56.5,85.4 53.7,80.5 C52.1,77.7 50.4,74.9 48.8,72.2 C46.2,67.7 43.4,63.1 40.9,58.5 C39.1,55.1 37.3,52.8 35,51.2 C28.7,46.4 22.9,44.4 16.6,44.8 C11.2,45.2 10.1,48.9 10.2,51.9 C10.2,53.1 10.3,54.3 10.3,55.5 C10.3,56.5 10.4,57.6 10.4,58.6 C10.9,78.9 11.8,131.8 12.4,172.6 C12.7,191.4 27.7,206.4 46.5,206.6 C115,207.5 251.1,207.4 252.4,207.4 C252.4,207.4 252.4,207.4 252.4,207.4 C254.2,207.4 255.9,208.4 256.8,210.1 C257.7,211.7 257.6,213.7 256.5,215.2 C255.5,216.6 159.6,358.6 153.5,367.8 C151.8,370.2 150.5,372.6 149.5,375.1 Z" id="Shape" fill="#383A48"></path>
                    </g>
                    <g transform="translate(496.000000, 117.000000)">
                        <path d="M5.2,5.8 L6.7,22 C8.5,42.4 25.8,57.9 46.3,57.5 L76.2,56.9 C76.2,57 73.9,24 5.2,5.8 Z" id="Path" fill="#AAC6FC"></path>
                        <path d="M45.6,62.6 C23,62.6 3.8,45.1 1.7,22.5 L0.2,6.3 C0.1,4.7 0.7,3.1 2,2 C3.2,0.9 4.9,0.6 6.5,1 C77.8,19.9 81.1,55.2 81.2,56.7 C81.3,58.1 80.8,59.4 79.9,60.4 C79,61.4 77.7,62 76.3,62 L46.4,62.6 C46.1,62.6 45.8,62.6 45.6,62.6 Z M10.8,12.6 L11.6,21.6 C13.2,39.3 28.3,52.9 46.1,52.6 L69.5,52.2 C65.6,43.3 52.7,25.1 10.8,12.6 Z" id="Shape" fill="#383A48"></path>
                    </g>
                    <g transform="translate(397.000000, 157.000000)">
                        <circle id="Oval" fill="#AAC6FC" cx="20.4" cy="20" r="14.5"></circle>
                        <path d="M20.4,39.5 C17.8,39.5 15.2,39 12.8,37.9 C8,35.9 4.3,32.1 2.4,27.2 C0.5,22.4 0.5,17.1 2.6,12.3 C6.8,2.4 18.3,-2.2 28.2,2 C33,4 36.7,7.8 38.6,12.7 C40.5,17.5 40.5,22.8 38.4,27.6 L38.4,27.6 C36.4,32.4 32.6,36.1 27.7,38 C25.3,39.1 22.8,39.5 20.4,39.5 Z M20.4,10.5 C16.7,10.5 13.2,12.7 11.7,16.3 C10.7,18.6 10.7,21.2 11.6,23.6 C12.5,26 14.4,27.8 16.7,28.8 C19,29.8 21.6,29.8 24,28.9 C26.4,28 28.2,26.1 29.2,23.8 C29.2,23.8 29.2,23.8 29.2,23.8 C30.2,21.5 30.2,18.9 29.3,16.5 C28.4,14.1 26.5,12.3 24.2,11.3 C22.9,10.8 21.6,10.5 20.4,10.5 Z" id="Shape" fill="#383A48"></path>
                    </g>
                    <g transform="translate(339.000000, 157.000000)">
                        <circle id="Oval" fill="#AAC6FC" cx="20.4" cy="19.8" r="14.5"></circle>
                        <path d="M20.4,39.3 C17.8,39.3 15.2,38.8 12.8,37.7 C8,35.7 4.3,31.9 2.4,27 C0.5,22.2 0.5,16.9 2.6,12.1 C4.7,7.3 8.4,3.6 13.3,1.7 C18.1,-0.2 23.4,-0.2 28.2,1.9 C38.1,6.1 42.7,17.6 38.5,27.5 C36.5,32.3 32.7,36 27.8,37.9 C25.3,38.8 22.9,39.3 20.4,39.3 Z M20.4,10.3 C19.2,10.3 18,10.5 16.9,11 C14.5,11.9 12.7,13.8 11.7,16.1 C10.7,18.4 10.7,21 11.6,23.4 C12.5,25.8 14.4,27.6 16.7,28.6 C19,29.6 21.6,29.6 24,28.7 C26.4,27.8 28.2,25.9 29.2,23.6 L29.2,23.6 C31.3,18.8 29,13.2 24.2,11.1 C22.9,10.5 21.7,10.3 20.4,10.3 Z" id="Shape" fill="#383A48"></path>
                    </g>
                    <g transform="translate(281.000000, 156.000000)">
                        <circle id="Oval" fill="#AAC6FC" cx="20.5" cy="20.5" r="14.5"></circle>
                        <path d="M20.4,40 C17.9,40 15.3,39.5 12.8,38.4 C2.9,34.2 -1.7,22.7 2.5,12.8 C4.5,8 8.3,4.3 13.2,2.4 C18,0.5 23.3,0.5 28.1,2.6 C38,6.8 42.6,18.3 38.4,28.2 C38.4,28.2 38.4,28.2 38.4,28.2 C35.2,35.6 28,40 20.4,40 Z M20.5,11 C19.3,11 18.1,11.2 17,11.7 C14.6,12.6 12.8,14.5 11.8,16.8 C9.7,21.6 12,27.2 16.8,29.3 C21.6,31.4 27.2,29.1 29.3,24.3 L29.3,24.3 C31.4,19.5 29.1,13.9 24.3,11.8 C23,11.3 21.7,11 20.5,11 Z" id="Shape" fill="#383A48"></path>
                    </g>
                    <g transform="translate(224.000000, 156.000000)">
                        <circle id="Oval" fill="#AAC6FC" cx="19.5" cy="20.3" r="14.5"></circle>
                        <path d="M19.5,39.8 C17,39.8 14.4,39.3 11.9,38.2 C2,34 -2.6,22.5 1.6,12.6 C3.6,7.8 7.4,4.1 12.3,2.2 C17.1,0.3 22.4,0.3 27.2,2.4 C32,4.4 35.7,8.2 37.6,13.1 C39.5,17.9 39.5,23.2 37.4,28 L37.4,28 C34.3,35.3 27.1,39.8 19.5,39.8 Z M19.5,10.8 C18.3,10.8 17.1,11 16,11.5 C13.6,12.4 11.8,14.3 10.8,16.6 C8.7,21.4 11,27 15.8,29.1 C20.6,31.2 26.2,28.9 28.3,24.1 L28.3,24.1 C29.3,21.8 29.3,19.2 28.4,16.8 C27.5,14.4 25.6,12.6 23.3,11.6 C22,11 20.8,10.8 19.5,10.8 Z" id="Shape" fill="#383A48"></path>
                    </g>
                    <g transform="translate(166.000000, 156.000000)">
                        <circle id="Oval" fill="#AAC6FC" cx="19.6" cy="20" r="14.5"></circle>
                        <path d="M19.5,39.5 C16.9,39.5 14.3,39 11.9,37.9 C7.1,35.9 3.4,32.1 1.5,27.2 C-0.4,22.4 -0.4,17.1 1.7,12.3 C3.7,7.5 7.5,3.8 12.4,1.9 C17.2,5.77315973e-14 22.5,5.77315973e-14 27.3,2.1 C32.1,4.1 35.8,7.9 37.7,12.8 C39.6,17.6 39.6,22.9 37.5,27.7 L37.5,27.7 C35.5,32.5 31.7,36.2 26.8,38.1 C24.5,39.1 22,39.5 19.5,39.5 Z M19.6,10.5 C18.4,10.5 17.2,10.7 16.1,11.2 C13.7,12.1 11.9,14 10.9,16.3 C9.9,18.6 9.9,21.2 10.8,23.6 C11.7,26 13.6,27.8 15.9,28.8 C18.2,29.8 20.8,29.8 23.2,28.9 C25.6,28 27.4,26.1 28.4,23.8 C28.4,23.8 28.4,23.8 28.4,23.8 C29.4,21.5 29.4,18.9 28.5,16.5 C27.6,14.1 25.7,12.3 23.4,11.3 C22.1,10.8 20.8,10.5 19.6,10.5 Z" id="Shape" fill="#383A48"></path>
                    </g>
                    <g transform="translate(228.000000, 116.000000)" fill="#383A48">
                        <line x1="0.5" y1="6.3" x2="104.8" y2="5.5" id="Path"></line>
                        <rect id="Rectangle" transform="translate(52.679629, 5.910261) rotate(-0.469978) translate(-52.679629, -5.910261) " x="0.527874245" y="0.910092814" width="104.303509" height="10.0003364"></rect>
                    </g>
                </g>
                <path d="M258,402.8 C234.7,402.8 210.6,396.3 187.8,383.7 C185.4,382.4 184.5,379.3 185.8,376.9 C187.1,374.5 190.2,373.6 192.6,374.9 C226.7,393.6 280.6,404.2 320.5,372.1 C328.9,365.3 335.2,357.5 339.1,349.2 C330,346.1 321.3,340.9 316.2,332.1 C311.4,323.7 311.3,314.9 316.1,308 C320.4,301.7 327.9,298.4 335.1,299.6 C342.9,300.8 348.9,306.9 351.6,316.2 C354.1,324.7 354.2,333.5 352.1,342.2 C355.9,342.8 360.1,343.3 364.9,343.4 C393.4,344.2 430.8,334.5 476.1,314.7 C478.6,313.6 481.6,314.7 482.7,317.3 C483.8,319.8 482.7,322.8 480.1,323.9 C433.4,344.3 394.6,354.3 364.6,353.5 C360.2,353.4 354.7,353 348.9,351.9 C344.5,362.1 336.9,371.8 326.8,380 C310.7,393 289.3,401 266.6,402.5 C263.6,402.7 260.8,402.8 258,402.8 Z M332.1,309.5 C329.1,309.5 326,311.1 324.2,313.8 C321.7,317.5 321.9,322.2 324.7,327.2 C326.5,330.3 331.1,336.1 342.3,339.9 C344,332.9 343.9,325.8 341.9,319.1 C340.3,313.6 337.3,310.2 333.4,309.6 C333,309.5 332.6,309.5 332.1,309.5 Z" id="Shape" fill="#383A48"></path>
                <path d="M1294,289 C1291.3,289 1289.1,286.9 1289,284.2 C1287.7,257.4 1281.1,235.4 1269.4,218.5 C1257.4,201.4 1243.1,194 1233.3,190.8 C1231.1,190.1 1228.9,189.5 1226.7,189.1 C1223.7,197.6 1218.6,205.1 1211.5,210.7 C1200.6,219.3 1190.6,218.1 1185.6,213.1 C1180.9,208.4 1179.5,199.4 1187,189.9 C1193.5,181.7 1205.6,177.6 1219.3,178.2 C1221.3,166.1 1218.8,152.1 1211.6,139.1 C1195.4,109.9 1154.7,87.1 1089.4,110.9 C1086.8,111.8 1083.9,110.5 1083,107.9 C1082.1,105.3 1083.4,102.4 1086,101.5 C1157.2,75.6 1202.1,101.5 1220.3,134.3 C1228.6,149.2 1231.4,165.2 1229.2,179.5 C1231.6,180 1234,180.6 1236.4,181.4 C1247.8,185 1264.1,193.5 1277.7,212.9 C1290.5,231.3 1297.7,255.1 1299.1,283.8 C1299.2,286.6 1297.1,288.9 1294.3,289 C1294.1,289 1294,289 1294,289 Z M1216.4,188.2 C1206.3,188.2 1198.4,191.6 1194.8,196.2 C1191.3,200.6 1191.1,204.5 1192.7,206.1 C1194.6,208 1199.5,207.5 1205.4,202.9 C1210.2,199.1 1213.9,194 1216.4,188.2 Z" id="Shape" fill="#383A48"></path>
                <g transform="translate(173.000000, 156.000000)" fill="#383A48">
                    <g transform="translate(0.000000, 11.000000)">
                        <line x1="0.7" y1="5.7" x2="33.6" y2="5.7" id="Path"></line>
                        <rect id="Rectangle" x="0.7" y="0.7" width="33" height="10"></rect>
                    </g>
                    <g transform="translate(12.000000, 0.000000)">
                        <line x1="5.2" y1="33.2" x2="5.2" y2="0.2" id="Path"></line>
                        <rect id="Rectangle" x="0.2" y="0.2" width="10" height="33"></rect>
                    </g>
                </g>
                <g transform="translate(553.000000, 499.000000)" fill="#383A48">
                    <g transform="translate(0.000000, 11.000000)">
                        <line x1="0" y1="5.7" x2="33" y2="5.7" id="Path"></line>
                        <rect id="Rectangle" x="0" y="0.7" width="33" height="10"></rect>
                    </g>
                    <g transform="translate(11.000000, 0.000000)">
                        <line x1="5.5" y1="33.2" x2="5.5" y2="0.3" id="Path"></line>
                        <rect id="Rectangle" x="0.5" y="0.3" width="10" height="33"></rect>
                    </g>
                </g>
                <g transform="translate(1271.000000, 68.000000)" fill="#383A48">
                    <g transform="translate(0.000000, 11.000000)">
                        <line x1="0.3" y1="5.8" x2="33.3" y2="5.8" id="Path"></line>
                        <rect id="Rectangle" x="0.3" y="0.8" width="33" height="10"></rect>
                    </g>
                    <g transform="translate(11.000000, 0.000000)">
                        <line x1="5.8" y1="33.3" x2="5.8" y2="0.3" id="Path"></line>
                        <rect id="Rectangle" x="0.8" y="0.3" width="10" height="33"></rect>
                    </g>
                </g>
                <g transform="translate(1362.000000, 0.000000)">
                    <g>
                        <path d="M162.9,84 C162.9,102.9 156.2,120.2 145.1,133.8 C130.7,116.2 108.8,105 84.3,105 C59.8,105 37.9,116.2 23.5,133.8 C12.4,120.3 5.7,102.9 5.7,84 C5.7,40.6 40.9,5.4 84.3,5.4 C127.7,5.4 162.9,40.6 162.9,84 Z" id="Path" fill="#AAC6FC"></path>
                        <path d="M23.5,138.8 C22,138.8 20.6,138.1 19.6,137 C7.4,122.1 0.7,103.3 0.7,84 C0.7,37.9 38.2,0.4 84.3,0.4 C130.4,0.4 167.9,37.9 167.9,84 C167.9,103.3 161.2,122.1 149,137 C148,138.2 146.6,138.8 145.1,138.8 C145.1,138.8 145.1,138.8 145.1,138.8 C143.6,138.8 142.2,138.1 141.2,137 C127.2,119.8 106.4,110 84.2,110 C62,110 41.3,119.8 27.3,137 C26.4,138.1 25,138.8 23.5,138.8 C23.5,138.8 23.5,138.8 23.5,138.8 Z M84.3,10.4 C43.7,10.4 10.7,43.4 10.7,84 C10.7,99 15.3,113.7 23.8,125.9 C39.5,109.3 61.3,100 84.3,100 C107.4,100 129.1,109.4 144.8,125.9 C153.3,113.7 157.9,99 157.9,84 C157.9,43.4 124.9,10.4 84.3,10.4 Z" id="Shape" fill="#383A48"></path>
                    </g>
                    <g transform="translate(18.000000, 100.000000)">
                        <path d="M127.1,33.8 C112.7,51.4 90.8,62.6 66.3,62.6 C41.8,62.6 19.9,51.4 5.5,33.8 C19.9,16.2 41.8,5 66.3,5 C90.8,5 112.7,16.2 127.1,33.8 Z" id="Path" fill="#F6E049"></path>
                        <path d="M66.3,67.6 C41.2,67.6 17.6,56.4 1.6,37 C0.1,35.2 0.1,32.5 1.6,30.7 C17.5,11.2 41.1,0 66.3,0 C91.5,0 115.1,11.2 131,30.7 C132.5,32.5 132.5,35.2 131,37 C115,56.4 91.5,67.6 66.3,67.6 Z M12.1,33.8 C26,49 45.6,57.6 66.3,57.6 C87,57.6 106.6,49 120.5,33.8 C106.6,18.6 87,10 66.3,10 C45.6,10 26,18.6 12.1,33.8 Z" id="Shape" fill="#383A48"></path>
                    </g>
                    <g transform="translate(0.000000, 128.000000)">
                        <path d="M162.9,55.6 C162.9,99 127.7,134.2 84.3,134.2 C40.9,134.2 5.7,99 5.7,55.6 C5.7,36.7 12.4,19.4 23.5,5.8 C37.9,23.4 59.8,34.6 84.3,34.6 C108.8,34.6 130.7,23.4 145.1,5.8 C156.2,19.4 162.9,36.7 162.9,55.6 Z" id="Path" fill="#E0719E"></path>
                        <path d="M84.3,139.2 C38.2,139.2 0.7,101.7 0.7,55.6 C0.7,36.3 7.4,17.5 19.6,2.7 C20.5,1.5 22,0.9 23.5,0.9 C23.5,0.9 23.5,0.9 23.5,0.9 C25,0.9 26.4,1.6 27.4,2.7 C41.5,19.8 62.2,29.7 84.3,29.7 C106.4,29.7 127.2,19.9 141.3,2.7 C142.2,1.5 143.7,0.9 145.2,0.9 C146.7,0.9 148.1,1.6 149.1,2.7 C161.3,17.6 168,36.4 168,55.6 C167.9,101.7 130.4,139.2 84.3,139.2 Z M23.8,13.7 C15.3,25.9 10.7,40.6 10.7,55.6 C10.7,96.2 43.7,129.2 84.3,129.2 C124.9,129.2 157.9,96.2 157.9,55.6 C157.9,40.6 153.3,26 144.8,13.7 C129,30.2 107.3,39.6 84.3,39.6 C61.3,39.6 39.5,30.2 23.8,13.7 Z" id="Shape" fill="#383A48"></path>
                    </g>
                </g>
                <polygon id="Path" fill="#383A48" points="748.3 307.3 706.2 449.9 856.7 307.3"></polygon>
                <path d="M1524.9,775.6 L554.5,775.6 C551.7,775.6 549.5,773.4 549.5,770.6 C549.5,767.8 551.7,765.6 554.5,765.6 L1524.9,765.6 C1527.7,765.6 1529.9,767.8 1529.9,770.6 C1529.9,773.4 1527.7,775.6 1524.9,775.6 Z" id="Path" fill="#383A48"></path>
            </g>
        </g>
    </g>
</svg>