<?xml version="1.0" encoding="UTF-8"?>
<svg width="1486px" height="845px" viewBox="0 0 1486 845" version="1.1" xmlns="http://www.w3.org/2000/svg" xmlns:xlink="http://www.w3.org/1999/xlink">
    <!-- Generator: Sketch 59.1 (86144) - https://sketch.com -->
    <title>abstract-online-shopping</title>
    <desc>Created with Sketch.</desc>
    <g id="Page-1" stroke="none" stroke-width="1" fill="none" fill-rule="evenodd">
        <g id="abstract-online-shopping" transform="translate(-217.000000, -114.000000)">
            <g id="Group" transform="translate(217.000000, 114.000000)">
                <g transform="translate(259.000000, 561.000000)" fill="#383A48" fill-rule="nonzero" id="Oval">
                    <circle cx="597.5" cy="5.5" r="5"></circle>
                    <circle cx="597.5" cy="30.2" r="5"></circle>
                    <circle cx="597.5" cy="54.8" r="5"></circle>
                    <circle cx="597.5" cy="79.5" r="5"></circle>
                    <circle cx="597.5" cy="104.2" r="5"></circle>
                    <circle cx="597.5" cy="128.8" r="5"></circle>
                    <circle cx="597.5" cy="153.5" r="5"></circle>
                    <circle cx="597.5" cy="178.2" r="5"></circle>
                    <circle cx="597.5" cy="202.8" r="5"></circle>
                    <circle cx="597.5" cy="227.5" r="5"></circle>
                    <circle cx="572.8" cy="5.5" r="5"></circle>
                    <circle cx="572.8" cy="30.2" r="5"></circle>
                    <circle cx="572.8" cy="54.8" r="5"></circle>
                    <circle cx="572.8" cy="79.5" r="5"></circle>
                    <circle cx="572.8" cy="104.2" r="5"></circle>
                    <circle cx="572.8" cy="128.8" r="5"></circle>
                    <circle cx="572.8" cy="153.5" r="5"></circle>
                    <circle cx="572.8" cy="178.2" r="5"></circle>
                    <circle cx="572.8" cy="202.8" r="5"></circle>
                    <circle cx="572.8" cy="227.5" r="5"></circle>
                    <circle cx="572.8" cy="252.2" r="5"></circle>
                    <circle cx="548.1" cy="5.5" r="5"></circle>
                    <circle cx="548.1" cy="30.2" r="5"></circle>
                    <circle cx="548.1" cy="54.8" r="5"></circle>
                    <circle cx="548.1" cy="79.5" r="5"></circle>
                    <circle cx="548.1" cy="104.2" r="5"></circle>
                    <circle cx="548.1" cy="128.8" r="5"></circle>
                    <circle cx="548.1" cy="153.5" r="5"></circle>
                    <circle cx="548.1" cy="178.2" r="5"></circle>
                    <circle cx="548.1" cy="202.8" r="5"></circle>
                    <circle cx="548.1" cy="227.5" r="5"></circle>
                    <circle cx="548.1" cy="252.2" r="5"></circle>
                    <circle cx="548.1" cy="276.8" r="5"></circle>
                    <circle cx="523.5" cy="5.5" r="5"></circle>
                    <circle cx="523.5" cy="30.2" r="5"></circle>
                    <circle cx="523.5" cy="54.8" r="5"></circle>
                    <circle cx="523.5" cy="79.5" r="5"></circle>
                    <circle cx="523.5" cy="104.2" r="5"></circle>
                    <circle cx="523.5" cy="128.8" r="5"></circle>
                    <circle cx="523.5" cy="153.5" r="5"></circle>
                    <circle cx="523.5" cy="178.2" r="5"></circle>
                    <circle cx="523.5" cy="202.8" r="5"></circle>
                    <circle cx="523.5" cy="227.5" r="5"></circle>
                    <circle cx="523.5" cy="252.2" r="5"></circle>
                    <circle cx="523.5" cy="276.8" r="5"></circle>
                    <circle cx="498.8" cy="5.5" r="5"></circle>
                    <circle cx="498.8" cy="30.2" r="5"></circle>
                    <circle cx="498.8" cy="54.8" r="5"></circle>
                    <circle cx="498.8" cy="79.5" r="5"></circle>
                    <circle cx="498.8" cy="104.2" r="5"></circle>
                    <circle cx="498.8" cy="128.8" r="5"></circle>
                    <circle cx="498.8" cy="153.5" r="5"></circle>
                    <circle cx="498.8" cy="178.2" r="5"></circle>
                    <circle cx="498.8" cy="202.8" r="5"></circle>
                    <circle cx="498.8" cy="227.5" r="5"></circle>
                    <circle cx="498.8" cy="252.2" r="5"></circle>
                    <circle cx="498.8" cy="276.8" r="5"></circle>
                    <circle cx="474.1" cy="5.5" r="5"></circle>
                    <circle cx="474.1" cy="30.2" r="5"></circle>
                    <circle cx="474.1" cy="54.8" r="5"></circle>
                    <circle cx="474.1" cy="79.5" r="5"></circle>
                    <circle cx="474.1" cy="104.2" r="5"></circle>
                    <circle cx="474.1" cy="128.8" r="5"></circle>
                    <circle cx="474.1" cy="153.5" r="5"></circle>
                    <circle cx="474.1" cy="178.2" r="5"></circle>
                    <circle cx="474.1" cy="202.8" r="5"></circle>
                    <circle cx="474.1" cy="227.5" r="5"></circle>
                    <circle cx="474.1" cy="252.2" r="5"></circle>
                    <circle cx="474.1" cy="276.8" r="5"></circle>
                    <circle cx="449.5" cy="5.5" r="5"></circle>
                    <circle cx="449.5" cy="30.2" r="5"></circle>
                    <circle cx="449.5" cy="54.8" r="5"></circle>
                    <circle cx="449.5" cy="79.5" r="5"></circle>
                    <circle cx="449.5" cy="104.2" r="5"></circle>
                    <circle cx="449.5" cy="128.8" r="5"></circle>
                    <circle cx="449.5" cy="153.5" r="5"></circle>
                    <circle cx="449.5" cy="178.2" r="5"></circle>
                    <circle cx="449.5" cy="202.8" r="5"></circle>
                    <circle cx="449.5" cy="227.5" r="5"></circle>
                    <circle cx="449.5" cy="252.2" r="5"></circle>
                    <circle cx="449.5" cy="276.8" r="5"></circle>
                    <circle cx="424.8" cy="5.5" r="5"></circle>
                    <circle cx="424.8" cy="30.2" r="5"></circle>
                    <circle cx="424.8" cy="54.8" r="5"></circle>
                    <circle cx="424.8" cy="79.5" r="5"></circle>
                    <circle cx="424.8" cy="104.2" r="5"></circle>
                    <circle cx="424.8" cy="128.8" r="5"></circle>
                    <circle cx="424.8" cy="153.5" r="5"></circle>
                    <circle cx="424.8" cy="178.2" r="5"></circle>
                    <circle cx="424.8" cy="202.8" r="5"></circle>
                    <circle cx="424.8" cy="227.5" r="5"></circle>
                    <circle cx="424.8" cy="252.2" r="5"></circle>
                    <circle cx="424.8" cy="276.8" r="5"></circle>
                    <circle cx="400.1" cy="5.5" r="5"></circle>
                    <circle cx="400.1" cy="30.2" r="5"></circle>
                    <circle cx="400.1" cy="54.8" r="5"></circle>
                    <circle cx="400.1" cy="79.5" r="5"></circle>
                    <circle cx="400.1" cy="104.2" r="5"></circle>
                    <circle cx="400.1" cy="128.8" r="5"></circle>
                    <circle cx="400.1" cy="153.5" r="5"></circle>
                    <circle cx="400.1" cy="178.2" r="5"></circle>
                    <circle cx="400.1" cy="202.8" r="5"></circle>
                    <circle cx="400.1" cy="227.5" r="5"></circle>
                    <circle cx="400.1" cy="252.2" r="5"></circle>
                    <circle cx="400.1" cy="276.8" r="5"></circle>
                    <circle cx="375.5" cy="5.5" r="5"></circle>
                    <circle cx="375.5" cy="30.2" r="5"></circle>
                    <circle cx="375.5" cy="54.8" r="5"></circle>
                    <circle cx="375.5" cy="79.5" r="5"></circle>
                    <circle cx="375.5" cy="104.2" r="5"></circle>
                    <circle cx="375.5" cy="128.8" r="5"></circle>
                    <circle cx="375.5" cy="153.5" r="5"></circle>
                    <circle cx="375.5" cy="178.2" r="5"></circle>
                    <circle cx="375.5" cy="202.8" r="5"></circle>
                    <circle cx="375.5" cy="227.5" r="5"></circle>
                    <circle cx="375.5" cy="252.2" r="5"></circle>
                    <circle cx="375.5" cy="276.8" r="5"></circle>
                    <circle cx="350.8" cy="5.5" r="5"></circle>
                    <circle cx="350.8" cy="30.2" r="5"></circle>
                    <circle cx="350.8" cy="54.8" r="5"></circle>
                    <circle cx="350.8" cy="79.5" r="5"></circle>
                    <circle cx="350.8" cy="104.2" r="5"></circle>
                    <circle cx="350.8" cy="128.8" r="5"></circle>
                    <circle cx="350.8" cy="153.5" r="5"></circle>
                    <circle cx="350.8" cy="178.2" r="5"></circle>
                    <circle cx="350.8" cy="202.8" r="5"></circle>
                    <circle cx="350.8" cy="227.5" r="5"></circle>
                    <circle cx="350.8" cy="252.2" r="5"></circle>
                    <circle cx="350.8" cy="276.8" r="5"></circle>
                    <circle cx="326.1" cy="5.5" r="5"></circle>
                    <circle cx="326.1" cy="30.2" r="5"></circle>
                    <circle cx="326.1" cy="54.8" r="5"></circle>
                    <circle cx="326.1" cy="79.5" r="5"></circle>
                    <circle cx="326.1" cy="104.2" r="5"></circle>
                    <circle cx="326.1" cy="128.8" r="5"></circle>
                    <circle cx="326.1" cy="153.5" r="5"></circle>
                    <circle cx="326.1" cy="178.2" r="5"></circle>
                    <circle cx="326.1" cy="202.8" r="5"></circle>
                    <circle cx="326.1" cy="227.5" r="5"></circle>
                    <circle cx="326.1" cy="252.2" r="5"></circle>
                    <circle cx="326.1" cy="276.8" r="5"></circle>
                    <circle cx="301.5" cy="5.5" r="5"></circle>
                    <circle cx="301.5" cy="30.2" r="5"></circle>
                    <circle cx="301.5" cy="54.8" r="5"></circle>
                    <circle cx="301.5" cy="79.5" r="5"></circle>
                    <circle cx="301.5" cy="104.2" r="5"></circle>
                    <circle cx="301.5" cy="128.8" r="5"></circle>
                    <circle cx="301.5" cy="153.5" r="5"></circle>
                    <circle cx="301.5" cy="178.2" r="5"></circle>
                    <circle cx="301.5" cy="202.8" r="5"></circle>
                    <circle cx="301.5" cy="227.5" r="5"></circle>
                    <circle cx="301.5" cy="252.2" r="5"></circle>
                    <circle cx="301.5" cy="276.8" r="5"></circle>
                    <circle cx="276.8" cy="5.5" r="5"></circle>
                    <circle cx="276.8" cy="30.2" r="5"></circle>
                    <circle cx="276.8" cy="54.8" r="5"></circle>
                    <circle cx="276.8" cy="79.5" r="5"></circle>
                    <circle cx="276.8" cy="104.2" r="5"></circle>
                    <circle cx="276.8" cy="128.8" r="5"></circle>
                    <circle cx="276.8" cy="153.5" r="5"></circle>
                    <circle cx="276.8" cy="178.2" r="5"></circle>
                    <circle cx="276.8" cy="202.8" r="5"></circle>
                    <circle cx="276.8" cy="227.5" r="5"></circle>
                    <circle cx="276.8" cy="252.2" r="5"></circle>
                    <circle cx="276.8" cy="276.8" r="5"></circle>
                    <circle cx="252.1" cy="5.5" r="5"></circle>
                    <circle cx="252.1" cy="30.2" r="5"></circle>
                    <circle cx="252.1" cy="54.8" r="5"></circle>
                    <circle cx="252.1" cy="79.5" r="5"></circle>
                    <circle cx="252.1" cy="104.2" r="5"></circle>
                    <circle cx="252.1" cy="128.8" r="5"></circle>
                    <circle cx="252.1" cy="153.5" r="5"></circle>
                    <circle cx="252.1" cy="178.2" r="5"></circle>
                    <circle cx="252.1" cy="202.8" r="5"></circle>
                    <circle cx="252.1" cy="227.5" r="5"></circle>
                    <circle cx="252.1" cy="252.2" r="5"></circle>
                    <circle cx="252.1" cy="276.8" r="5"></circle>
                    <circle cx="227.5" cy="5.5" r="5"></circle>
                    <circle cx="227.5" cy="30.2" r="5"></circle>
                    <circle cx="227.5" cy="54.8" r="5"></circle>
                    <circle cx="227.5" cy="79.5" r="5"></circle>
                    <circle cx="227.5" cy="104.2" r="5"></circle>
                    <circle cx="227.5" cy="128.8" r="5"></circle>
                    <circle cx="227.5" cy="153.5" r="5"></circle>
                    <circle cx="227.5" cy="178.2" r="5"></circle>
                    <circle cx="227.5" cy="202.8" r="5"></circle>
                    <circle cx="227.5" cy="227.5" r="5"></circle>
                    <circle cx="227.5" cy="252.2" r="5"></circle>
                    <circle cx="227.5" cy="276.8" r="5"></circle>
                    <circle cx="202.8" cy="5.5" r="5"></circle>
                    <circle cx="202.8" cy="30.2" r="5"></circle>
                    <circle cx="202.8" cy="54.8" r="5"></circle>
                    <circle cx="202.8" cy="79.5" r="5"></circle>
                    <circle cx="202.8" cy="104.2" r="5"></circle>
                    <circle cx="202.8" cy="128.8" r="5"></circle>
                    <circle cx="202.8" cy="153.5" r="5"></circle>
                    <circle cx="202.8" cy="178.2" r="5"></circle>
                    <circle cx="202.8" cy="202.8" r="5"></circle>
                    <circle cx="202.8" cy="227.5" r="5"></circle>
                    <circle cx="202.8" cy="252.2" r="5"></circle>
                    <circle cx="202.8" cy="276.8" r="5"></circle>
                    <circle cx="178.1" cy="5.5" r="5"></circle>
                    <circle cx="178.1" cy="30.2" r="5"></circle>
                    <circle cx="178.1" cy="54.8" r="5"></circle>
                    <circle cx="178.1" cy="79.5" r="5"></circle>
                    <circle cx="178.1" cy="104.2" r="5"></circle>
                    <circle cx="178.1" cy="128.8" r="5"></circle>
                    <circle cx="178.1" cy="153.5" r="5"></circle>
                    <circle cx="178.1" cy="178.2" r="5"></circle>
                    <circle cx="178.1" cy="202.8" r="5"></circle>
                    <circle cx="178.1" cy="227.5" r="5"></circle>
                    <circle cx="178.1" cy="252.2" r="5"></circle>
                    <circle cx="178.1" cy="276.8" r="5"></circle>
                    <circle cx="153.5" cy="5.5" r="5"></circle>
                    <circle cx="153.5" cy="30.2" r="5"></circle>
                    <circle cx="153.5" cy="54.8" r="5"></circle>
                    <circle cx="153.5" cy="79.5" r="5"></circle>
                    <circle cx="153.5" cy="104.2" r="5"></circle>
                    <circle cx="153.5" cy="128.8" r="5"></circle>
                    <circle cx="153.5" cy="153.5" r="5"></circle>
                    <circle cx="153.5" cy="178.2" r="5"></circle>
                    <circle cx="153.5" cy="202.8" r="5"></circle>
                    <circle cx="153.5" cy="227.5" r="5"></circle>
                    <circle cx="153.5" cy="252.2" r="5"></circle>
                    <circle cx="153.5" cy="276.8" r="5"></circle>
                    <circle cx="128.8" cy="5.5" r="5"></circle>
                    <circle cx="128.8" cy="30.2" r="5"></circle>
                    <circle cx="128.8" cy="54.8" r="5"></circle>
                    <circle cx="128.8" cy="79.5" r="5"></circle>
                    <circle cx="128.8" cy="104.2" r="5"></circle>
                    <circle cx="128.8" cy="128.8" r="5"></circle>
                    <circle cx="128.8" cy="153.5" r="5"></circle>
                    <circle cx="128.8" cy="178.2" r="5"></circle>
                    <circle cx="128.8" cy="202.8" r="5"></circle>
                    <circle cx="128.8" cy="227.5" r="5"></circle>
                    <circle cx="128.8" cy="252.2" r="5"></circle>
                    <circle cx="128.8" cy="276.8" r="5"></circle>
                    <circle cx="104.1" cy="5.5" r="5"></circle>
                    <circle cx="104.1" cy="30.2" r="5"></circle>
                    <circle cx="104.1" cy="54.8" r="5"></circle>
                    <circle cx="104.1" cy="79.5" r="5"></circle>
                    <circle cx="104.1" cy="104.2" r="5"></circle>
                    <circle cx="104.1" cy="128.8" r="5"></circle>
                    <circle cx="104.1" cy="153.5" r="5"></circle>
                    <circle cx="104.1" cy="178.2" r="5"></circle>
                    <circle cx="104.1" cy="202.8" r="5"></circle>
                    <circle cx="104.1" cy="227.5" r="5"></circle>
                    <circle cx="104.1" cy="252.2" r="5"></circle>
                    <circle cx="104.1" cy="276.8" r="5"></circle>
                    <circle cx="79.5" cy="5.5" r="5"></circle>
                    <circle cx="79.5" cy="30.2" r="5"></circle>
                    <circle cx="79.5" cy="54.8" r="5"></circle>
                    <circle cx="79.5" cy="79.5" r="5"></circle>
                    <circle cx="79.5" cy="104.2" r="5"></circle>
                    <circle cx="79.5" cy="128.8" r="5"></circle>
                    <circle cx="79.5" cy="153.5" r="5"></circle>
                    <circle cx="79.5" cy="178.2" r="5"></circle>
                    <circle cx="79.5" cy="202.8" r="5"></circle>
                    <circle cx="79.5" cy="227.5" r="5"></circle>
                    <circle cx="79.5" cy="252.2" r="5"></circle>
                    <circle cx="79.5" cy="276.8" r="5"></circle>
                    <circle cx="54.8" cy="5.5" r="5"></circle>
                    <circle cx="54.8" cy="30.2" r="5"></circle>
                    <circle cx="54.8" cy="54.8" r="5"></circle>
                    <circle cx="54.8" cy="79.5" r="5"></circle>
                    <circle cx="54.8" cy="104.2" r="5"></circle>
                    <circle cx="54.8" cy="128.8" r="5"></circle>
                    <circle cx="54.8" cy="153.5" r="5"></circle>
                    <circle cx="54.8" cy="178.2" r="5"></circle>
                    <circle cx="54.8" cy="202.8" r="5"></circle>
                    <circle cx="54.8" cy="227.5" r="5"></circle>
                    <circle cx="54.8" cy="252.2" r="5"></circle>
                    <circle cx="54.8" cy="276.8" r="5"></circle>
                    <circle cx="30.1" cy="5.5" r="5"></circle>
                    <circle cx="30.1" cy="30.2" r="5"></circle>
                    <circle cx="30.1" cy="54.8" r="5"></circle>
                    <circle cx="30.1" cy="79.5" r="5"></circle>
                    <circle cx="30.1" cy="104.2" r="5"></circle>
                    <circle cx="30.1" cy="128.8" r="5"></circle>
                    <circle cx="30.1" cy="153.5" r="5"></circle>
                    <circle cx="30.1" cy="178.2" r="5"></circle>
                    <circle cx="30.1" cy="202.8" r="5"></circle>
                    <circle cx="30.1" cy="227.5" r="5"></circle>
                    <circle cx="30.1" cy="252.2" r="5"></circle>
                    <circle cx="30.1" cy="276.8" r="5"></circle>
                    <circle cx="5.5" cy="5.5" r="5"></circle>
                    <circle cx="5.5" cy="30.2" r="5"></circle>
                    <circle cx="5.5" cy="54.8" r="5"></circle>
                    <circle cx="5.5" cy="79.5" r="5"></circle>
                    <circle cx="5.5" cy="104.2" r="5"></circle>
                    <circle cx="5.5" cy="128.8" r="5"></circle>
                    <circle cx="5.5" cy="153.5" r="5"></circle>
                    <circle cx="5.5" cy="178.2" r="5"></circle>
                    <circle cx="5.5" cy="202.8" r="5"></circle>
                    <circle cx="5.5" cy="227.5" r="5"></circle>
                    <circle cx="5.5" cy="252.2" r="5"></circle>
                    <circle cx="5.5" cy="276.8" r="5"></circle>
                </g>
                <path d="M1480.9,553.4 L1293.4,553.4 C1292,553.4 1290.6,554 1289.7,555.1 C1270.5,576.8 1253.7,599.1 1239.9,621.3 C1222.6,649 1199,668.6 1165.6,683.2 C1135.5,696.4 1101.3,703.7 1065.2,711.6 C986.1,728.7 896.4,748.1 830.3,836.7 C829.2,838.2 829,840.2 829.8,841.9 C830.6,843.6 832.4,844.7 834.3,844.7 L1481,844.7 C1483.8,844.7 1486,842.5 1486,839.7 L1486,558.4 C1485.9,555.6 1483.6,553.4 1480.9,553.4 Z" id="Path" fill="#F3F6E6" fill-rule="nonzero"></path>
                <g transform="translate(768.000000, 0.000000)" fill-rule="nonzero">
                    <g>
                        <path d="M712.9,5.3 L712.9,408.1 C712.9,408.1 608.7,464.1 525.4,558.4 L5.1,558.4 L5.1,5.3 L712.9,5.3 Z" id="Path" fill="#F3F6E6"></path>
                        <path d="M525.3,563.4 L5.1,563.4 C2.3,563.4 0.1,561.2 0.1,558.4 L0.1,5.3 C0.1,2.5 2.3,0.3 5.1,0.3 L712.8,0.3 C715.6,0.3 717.8,2.5 717.8,5.3 L717.8,408.1 C717.8,409.9 716.8,411.6 715.2,412.5 C714.2,413.1 610.7,469.2 529,561.7 C528.1,562.8 526.8,563.4 525.3,563.4 Z M10.1,553.4 L523.1,553.4 C598.4,468.8 691.2,414.6 707.9,405.2 L707.9,10.3 L10.1,10.3 L10.1,553.4 Z" id="Shape" fill="#383A48"></path>
                    </g>
                    <g>
                        <rect id="Rectangle" fill="#AAC6FC" x="5.1" y="5.3" width="707.7" height="204"></rect>
                        <path d="M712.9,214.3 L5.1,214.3 C2.3,214.3 0.1,212.1 0.1,209.3 L0.1,5.3 C0.1,2.5 2.3,0.3 5.1,0.3 L712.8,0.3 C715.6,0.3 717.803143,2.5 717.803143,5.3 L717.803143,209.3 C717.9,212.1 715.6,214.3 712.9,214.3 Z M10.1,204.3 L707.8,204.3 L707.8,10.3 L10.1,10.3 L10.1,204.3 Z" id="Shape" fill="#383A48"></path>
                    </g>
                    <g transform="translate(61.000000, 76.000000)">
                        <circle id="Oval" fill="#E0719E" cx="31.5" cy="31.3" r="26.3"></circle>
                        <path d="M31.5,62.6 C14.2,62.6 0.2,48.6 0.2,31.3 C0.2,14 14.2,-2.84217094e-14 31.5,-2.84217094e-14 C48.8,-2.84217094e-14 62.8,14 62.8,31.3 C62.8,48.6 48.7,62.6 31.5,62.6 Z M31.5,10 C19.8,10 10.2,19.6 10.2,31.3 C10.2,43 19.8,52.6 31.5,52.6 C43.2,52.6 52.8,43 52.8,31.3 C52.8,19.6 43.2,10 31.5,10 Z" id="Shape" fill="#383A48"></path>
                    </g>
                    <g transform="translate(141.000000, 76.000000)">
                        <circle id="Oval" fill="#F6E049" cx="32" cy="31.3" r="26.3"></circle>
                        <path d="M32,62.6 C14.7,62.6 0.7,48.6 0.7,31.3 C0.7,14 14.7,-2.84217094e-14 32,-2.84217094e-14 C49.3,-2.84217094e-14 63.3,14 63.3,31.3 C63.3,48.6 49.2,62.6 32,62.6 Z M32,10 C20.3,10 10.7,19.6 10.7,31.3 C10.7,43 20.3,52.6 32,52.6 C43.7,52.6 53.3,43 53.3,31.3 C53.3,19.6 43.7,10 32,10 Z" id="Shape" fill="#383A48"></path>
                    </g>
                    <g transform="translate(222.000000, 76.000000)">
                        <circle id="Oval" fill="#7FD6C2" cx="31.5" cy="31.3" r="26.3"></circle>
                        <path d="M31.5,62.6 C14.2,62.6 0.2,48.6 0.2,31.3 C0.2,14 14.2,-2.84217094e-14 31.5,-2.84217094e-14 C48.8,-2.84217094e-14 62.8,14 62.8,31.3 C62.8,48.6 48.7,62.6 31.5,62.6 Z M31.5,10 C19.8,10 10.2,19.6 10.2,31.3 C10.2,43 19.8,52.6 31.5,52.6 C43.2,52.6 52.8,43 52.8,31.3 C52.8,19.6 43.2,10 31.5,10 Z" id="Shape" fill="#383A48"></path>
                    </g>
                    <g transform="translate(237.000000, 262.000000)">
                        <g>
                            <circle id="Oval" fill="#F6E049" cx="122" cy="122.2" r="117"></circle>
                            <path d="M122,244.2 C54.7,244.2 0,189.5 0,122.2 C0,54.9 54.7,0.2 122,0.2 C189.3,0.2 244,54.9 244,122.2 C244,189.5 189.3,244.2 122,244.2 Z M122,10.2 C60.2,10.2 10,60.4 10,122.2 C10,184 60.2,234.2 122,234.2 C183.8,234.2 234,184 234,122.2 C234,60.4 183.7,10.2 122,10.2 Z" id="Shape" fill="#383A48"></path>
                        </g>
                        <g transform="translate(61.000000, 84.000000)" id="Path">
                            <polyline fill="#F6E049" points="6 21.1 56 86.7 116 5.6"></polyline>
                            <path d="M56,91.7 C54.4,91.7 53,91 52,89.7 L2,24.1 C0.3,21.9 0.7,18.8 2.9,17.1 C5.1,15.4 8.2,15.8 9.9,18 L55.8,78.3 L111.9,2.5 C113.5,0.3 116.7,-0.2 118.9,1.5 C121.1,3.1 121.6,6.3 119.9,8.5 L59.9,89.6 C59.1,90.9 57.6,91.7 56,91.7 L56,91.7 Z" fill="#383A48"></path>
                        </g>
                    </g>
                    <path d="M715.4,403.8 C713.9,402.9 712,402.9 710.5,403.7 C709.4,404.3 604.5,461.2 521.6,555.1 C520.3,556.6 520,558.7 520.8,560.5 C521.6,562.3 523.4,563.4 525.4,563.4 L712.9,563.4 C715.7,563.4 717.9,561.2 717.9,558.4 L717.9,408.1 C717.9,406.4 716.9,404.7 715.4,403.8 Z" id="Path" fill="#E0719E"></path>
                </g>
                <path d="M775.5,253.5 C773.9,252.6 772.1,252.7 770.5,253.6 C769,254.5 768,256.1 768,257.9 L768,558.4 C768,561.2 770.2,563.4 773,563.4 L897,563.4 C899.2,563.4 901.2,561.9 901.8,559.8 C908.9,535.7 912.500143,510.6 912.500143,485.2 C912.6,388.7 860.1,300 775.5,253.5 Z" id="Path" fill="#383A48" fill-rule="nonzero"></path>
                <g transform="translate(303.000000, 162.000000)" fill-rule="nonzero">
                    <g>
                        <path d="M587.5,265.2 C587.5,336.8 558.5,401.6 511.6,448.5 C464.7,495.4 399.8,524.5 328.2,524.5 L265.1,524.5 C245.3,524.5 226.1,522.3 207.6,518.1 C92.1,491.9 5.8,388.6 5.8,265.2 C5.8,255 6.4,244.8 7.6,234.9 C14.5,175.4 41.6,122 81.8,81.8 C128.7,34.9 193.5,5.8 265.1,5.8 L328.2,5.8 C471.4,5.9 587.5,122 587.5,265.2 Z" id="Path" fill="#F6E049"></path>
                        <path d="M328.2,529.5 L265.1,529.5 C245.3,529.5 225.6,527.3 206.5,523 C149,510 96.8,477.4 59.5,431.3 C40.9,408.3 26.4,382.6 16.4,354.8 C6.1,326.1 0.8,296 0.8,265.2 C0.8,254.9 1.4,244.5 2.6,234.3 C9.4,175.6 36.3,120.2 78.2,78.3 C128.1,28.4 194.5,0.9 265.1,0.9 L328.2,0.9 C398.8,0.9 465.2,28.4 515.1,78.3 C565,128.2 592.5,194.6 592.5,265.2 C592.5,335.8 565,402.2 515.1,452.1 C465.2,502 398.8,529.5 328.2,529.5 Z M265.1,10.9 C197.2,10.9 133.3,37.4 85.3,85.4 C44.9,125.8 19.1,179.1 12.5,235.5 C11.4,245.2 10.8,255.2 10.8,265.2 C10.8,294.8 15.8,323.8 25.8,351.4 C35.4,378.1 49.4,402.8 67.3,425 C103.2,469.4 153.4,500.7 208.7,513.2 C227.1,517.4 246.1,519.5 265.1,519.5 L328.2,519.5 C396.1,519.5 460,493 508,445 C556,397 582.5,333.1 582.5,265.2 C582.5,197.3 556,133.4 508,85.4 C460,37.4 396.1,10.9 328.2,10.9 L265.1,10.9 L265.1,10.9 Z" id="Shape" fill="#383A48"></path>
                    </g>
                    <rect id="Rectangle" fill="#383A48" x="171.5" y="121.7" width="250" height="10"></rect>
                    <rect id="Rectangle" fill="#383A48" x="171.5" y="193.7" width="208" height="10"></rect>
                    <rect id="Rectangle" fill="#383A48" x="171.5" y="265.7" width="140" height="10"></rect>
                    <g transform="translate(299.000000, 276.000000)">
                        <polygon id="Path" fill="#E0719E" points="81.9 5.2 105.4 52.8 157.9 60.4 119.9 97.5 128.9 149.8 81.9 125.1 34.9 149.8 43.9 97.5 5.9 60.4 58.4 52.8"></polygon>
                        <path d="M128.9,154.8 C128.1,154.8 127.3,154.6 126.6,154.2 L82,130.7 L37.4,154.2 C35.7,155.1 33.7,154.9 32.1,153.8 C30.6,152.7 29.8,150.8 30.1,148.9 L38.6,99.2 L2.4,64 C1,62.7 0.5,60.7 1.1,58.9 C1.7,57.1 3.3,55.8 5.1,55.5 L55,48.2 L77.3,3 C78.1,1.3 79.9,0.2 81.8,0.2 C83.7,0.2 85.4,1.3 86.3,3 L108.6,48.2 L158.5,55.5 C160.4,55.8 161.9,57.1 162.5,58.9 C163.1,60.7 162.6,62.7 161.2,64 L125.1,99.2 L133.6,148.9 C133.9,150.8 133.2,152.7 131.6,153.8 C130.9,154.5 129.9,154.8 128.9,154.8 Z M81.9,120.1 C82.7,120.1 83.5,120.3 84.2,120.7 L122.2,140.7 L114.9,98.4 C114.6,96.8 115.2,95.1 116.3,94 L147,64 L104.5,57.8 C102.9,57.6 101.5,56.5 100.7,55.1 L81.7,16.6 L62.7,55.1 C62,56.6 60.6,57.6 58.9,57.8 L16.4,64 L47.1,94 C48.3,95.1 48.8,96.8 48.5,98.4 L41.2,140.7 L79.2,120.7 C80.3,120.3 81.1,120.1 81.9,120.1 Z" id="Shape" fill="#383A48"></path>
                    </g>
                </g>
                <path d="M446.3,461.5 C409.3,424.5 362.7,400.5 311.4,391.9 C310.1,391.7 308.7,392 307.6,392.8 C306.5,393.6 305.8,394.9 305.6,396.2 C304.4,406.3 303.8,416.7 303.8,427.1 C303.8,457.9 309,488 319.4,516.7 C329.4,544.4 343.9,570.1 362.5,593.2 C399.8,639.3 452,671.9 509.5,684.9 C509.9,685 510.2,685 510.6,685 C511.6,685 512.5,684.7 513.4,684.2 C514.5,683.4 515.3,682.2 515.6,680.9 C518.1,666.7 519.4,652.1 519.4,637.6 C519.3,571.1 493.4,508.6 446.3,461.5 Z" id="Path" fill="#383A48" fill-rule="nonzero"></path>
                <g transform="translate(0.000000, 346.000000)" fill-rule="nonzero">
                    <g>
                        <path d="M493.3,249.6 C493.3,182.2 466,121.2 421.8,77 C377.6,32.8 316.6,5.5 249.2,5.5 C114.4,5.5 5.1,114.8 5.1,249.6 C5.1,384.4 114.4,493.7 249.2,493.7 C316.6,493.7 377.6,466.4 421.8,422.2 C466,378 493.3,317 493.3,249.6 Z" id="Path" fill="#E0719E"></path>
                        <path d="M249.2,498.7 C182.7,498.7 120.1,472.8 73.1,425.7 C26.1,378.7 0.1,316.1 0.1,249.6 C0.1,183.1 26,120.5 73.1,73.5 C120.1,26.5 182.7,0.5 249.2,0.5 C315.7,0.5 378.3,26.4 425.3,73.5 C472.3,120.5 498.3,183.1 498.3,249.6 C498.3,316.1 472.4,378.7 425.3,425.7 C378.3,472.8 315.7,498.7 249.2,498.7 Z M249.2,10.6 C185.3,10.6 125.3,35.5 80.2,80.6 C35,125.8 10.2,185.8 10.2,249.6 C10.2,313.5 35.1,373.5 80.2,418.6 C125.4,463.8 185.4,488.6 249.2,488.6 C313.1,488.6 373.1,463.7 418.2,418.6 C463.4,373.4 488.2,313.4 488.2,249.6 C488.2,185.8 463.3,125.7 418.2,80.6 C373.1,35.4 313.1,10.6 249.2,10.6 Z" id="Shape" fill="#383A48"></path>
                    </g>
                    <g transform="translate(50.000000, 51.000000)">
                        <circle id="Oval" fill="#F3F6E6" cx="199.2" cy="198.6" r="193.4"></circle>
                        <path d="M199.2,397 C89.8,397 0.8,308 0.8,198.6 C0.8,89.2 89.8,0.2 199.2,0.2 C308.6,0.2 397.6,89.2 397.6,198.6 C397.6,308 308.6,397 199.2,397 Z M199.2,10.2 C95.3,10.2 10.8,94.7 10.8,198.6 C10.8,302.5 95.3,387 199.2,387 C303.1,387 387.6,302.5 387.6,198.6 C387.6,94.8 303.1,10.2 199.2,10.2 Z" id="Shape" fill="#383A48"></path>
                    </g>
                    <g transform="translate(163.000000, 106.000000)">
                        <polygon id="Path" fill="#F6E049" points="106.5 75.3 69.2 75.3 58.4 86.1 58.4 114.3 69.2 124.9 130.2 124.9 163 157.9 163 216.1 130.2 248.9 105.7 248.9 105.7 281.9 64.4 281.9 64.4 248.9 33.6 248.9 5.9 220.6 37 191.3 57.9 211.9 105 211.9 115.6 201.3 115.6 172.9 105 161.9 44 161.9 11.2 129.1 11.2 71.2 44 38.2 64.3 38.2 64.3 5.4 105.6 5.4 105.6 38.2 131.9 38.2 158.2 65.8 126 95.1"></polygon>
                        <path d="M105.6,286.8 L64.3,286.8 C61.5,286.8 59.3,284.6 59.3,281.8 L59.3,253.8 L33.5,253.8 C32.2,253.8 30.9,253.3 29.9,252.3 L2.2,224 C1.3,223 0.7,221.7 0.8,220.4 C0.9,219.1 1.4,217.8 2.4,216.9 L33.5,187.6 C35.5,185.8 38.5,185.8 40.4,187.7 L59.8,206.8 L103,206.8 L110.7,199.1 L110.7,174.8 L103,167 L44,167 C42.7,167 41.4,166.5 40.5,165.5 L7.7,132.7 C6.8,131.8 6.2,130.5 6.2,129.2 L6.2,71.3 C6.2,70 6.7,68.7 7.7,67.8 L40.5,34.8 C41.4,33.9 42.7,33.3 44,33.3 L59.3,33.3 L59.3,5.5 C59.3,2.7 61.5,0.5 64.3,0.5 L105.6,0.5 C108.4,0.5 110.6,2.7 110.6,5.5 L110.6,33.3 L131.9,33.3 C133.3,33.3 134.6,33.9 135.5,34.9 L161.8,62.5 C162.7,63.5 163.2,64.8 163.2,66.1 C163.2,67.4 162.6,68.7 161.6,69.6 L129.4,98.9 C127.4,100.7 124.3,100.6 122.5,98.7 L104.6,80.4 L71.4,80.4 L63.5,88.3 L63.5,112.3 L71.3,120 L130.2,120 C131.5,120 132.8,120.5 133.7,121.5 L166.5,154.5 C167.4,155.4 168,156.7 168,158 L168,216.2 C168,217.5 167.5,218.8 166.5,219.7 L133.7,252.5 C132.8,253.4 131.5,254 130.2,254 L110.7,254 L110.7,282 C110.6,284.6 108.4,286.8 105.6,286.8 Z M69.3,276.8 L100.6,276.8 L100.6,248.8 C100.6,246 102.8,243.8 105.6,243.8 L128,243.8 L157.9,213.9 L157.9,159.8 L128,129.8 L69.1,129.8 C67.8,129.8 66.5,129.3 65.6,128.4 L54.8,117.8 C53.8,116.9 53.3,115.6 53.3,114.2 L53.3,86 C53.3,84.7 53.8,83.4 54.8,82.5 L65.6,71.7 C66.5,70.8 67.8,70.2 69.1,70.2 L106.4,70.2 C107.7,70.2 109,70.7 110,71.7 L126,88.1 L150.9,65.5 L129.6,43.2 L105.5,43.2 C102.7,43.2 100.5,41 100.5,38.2 L100.5,10.4 L69.2,10.4 L69.2,38.2 C69.2,41 67,43.2 64.2,43.2 L46,43.2 L16.1,73.2 L16.1,127 L46,156.9 L105,156.9 C106.3,156.9 107.6,157.4 108.6,158.4 L119.2,169.2 C120.1,170.1 120.6,171.4 120.6,172.7 L120.6,201.1 C120.6,202.4 120.1,203.7 119.1,204.6 L108.5,215.2 C107.6,216.1 106.3,216.7 105,216.7 L57.7,216.7 C56.4,216.7 55.1,216.2 54.2,215.3 L36.8,198.1 L13,220.7 L35.7,243.9 L64.4,243.9 C67.2,243.9 69.4,246.1 69.4,248.9 L69.4,276.8 L69.3,276.8 L69.3,276.8 Z" id="Shape" fill="#383A48"></path>
                    </g>
                </g>
                <path d="M567.4,4.4 C567,2 564.9,0.3 562.5,0.3 L5.1,0.3 C2.3,0.3 0.1,2.5 0.1,5.3 L0.1,392.1 C0.1,393.7 0.9,395.3 2.2,396.2 C3.1,396.8 4.1,397.1 5.1,397.1 C5.7,397.1 6.3,397 6.8,396.8 C7.3,396.6 53,379.6 110.1,348.1 C205.7,295.2 259.4,242.7 287.6,208 C342.2,140.7 414.4,90.5 465.4,60.2 C520.8,27.3 563.8,10.2 564.2,10 C566.6,9.1 567.8,6.7 567.4,4.4 Z" id="Path" fill="#F3F6E6" fill-rule="nonzero"></path>
                <g transform="translate(141.000000, 82.000000)" id="Path">
                    <line x1="5.5" y1="5.6" x2="171.3" y2="171.4"></line>
                    <path d="M171.3,176.4 C170,176.4 168.7,175.9 167.8,174.9 L1.9,9.1 C-0.1,7.1 -0.1,4 1.9,2 C3.9,0 7,0 9,2 L174.8,167.8 C176.8,169.8 176.8,172.9 174.8,174.9 C173.8,175.9 172.6,176.4 171.3,176.4 Z" fill="#383A48" fill-rule="nonzero"></path>
                </g>
                <g transform="translate(130.000000, 224.000000)">
                    <rect id="Rectangle" fill="#383A48" fill-rule="nonzero" x="11.5" y="0.9" width="10" height="33"></rect>
                    <g transform="translate(0.000000, 12.000000)">
                        <line x1="0" y1="5.4" x2="33" y2="5.4" id="Path"></line>
                        <rect id="Rectangle" fill="#383A48" fill-rule="nonzero" x="0" y="0.4" width="33" height="10"></rect>
                    </g>
                </g>
                <g transform="translate(1378.000000, 746.000000)">
                    <rect id="Rectangle" fill="#383A48" fill-rule="nonzero" x="12.2" y="0.9" width="10" height="33"></rect>
                    <g transform="translate(0.000000, 12.000000)">
                        <line x1="0.7" y1="5.4" x2="33.7" y2="5.4" id="Path"></line>
                        <rect id="Rectangle" fill="#383A48" fill-rule="nonzero" x="0.7" y="0.4" width="33" height="10"></rect>
                    </g>
                </g>
                <g transform="translate(650.000000, 72.000000)">
                    <rect id="Rectangle" fill="#383A48" fill-rule="nonzero" x="12.4" y="0.2" width="10" height="33"></rect>
                    <g transform="translate(0.000000, 11.000000)">
                        <line x1="0.9" y1="5.7" x2="33.9" y2="5.7" id="Path"></line>
                        <rect id="Rectangle" fill="#383A48" fill-rule="nonzero" x="0.9" y="0.7" width="33" height="10"></rect>
                    </g>
                </g>
                <g transform="translate(965.000000, 631.000000)" fill="#383A48" fill-rule="nonzero">
                    <circle id="Oval" cx="17.8" cy="18.5" r="12.8"></circle>
                    <path d="M17.8,36.3 C8,36.3 0,28.3 0,18.5 C0,8.7 8,0.7 17.8,0.7 C27.6,0.7 35.6,8.7 35.6,18.5 C35.6,28.3 27.6,36.3 17.8,36.3 Z M17.8,10.7 C13.5,10.7 10,14.2 10,18.5 C10,22.8 13.5,26.3 17.8,26.3 C22.1,26.3 25.6,22.8 25.6,18.5 C25.6,14.2 22.1,10.7 17.8,10.7 Z" id="Shape"></path>
                </g>
                <g transform="translate(1226.000000, 758.000000)" fill="#383A48" fill-rule="nonzero">
                    <circle id="Oval" cx="18" cy="18.2" r="12.8"></circle>
                    <path d="M18,36 C8.2,36 0.2,28 0.2,18.2 C0.2,8.4 8.2,0.4 18,0.4 C27.8,0.4 35.8,8.4 35.8,18.2 C35.8,28 27.8,36 18,36 Z M18,10.4 C13.7,10.4 10.2,13.9 10.2,18.2 C10.2,22.5 13.7,26 18,26 C22.3,26 25.8,22.5 25.8,18.2 C25.8,13.9 22.3,10.4 18,10.4 Z" id="Shape"></path>
                </g>
                <g transform="translate(1406.000000, 606.000000)" fill="#383A48" fill-rule="nonzero">
                    <circle id="Oval" cx="18.5" cy="17.9" r="12.8"></circle>
                    <path d="M18.5,35.7 C8.7,35.7 0.7,27.7 0.7,17.9 C0.7,8.1 8.7,0.1 18.5,0.1 C28.3,0.1 36.3,8.1 36.3,17.9 C36.3,27.7 28.3,35.7 18.5,35.7 Z M18.5,10.1 C14.2,10.1 10.7,13.6 10.7,17.9 C10.7,22.2 14.2,25.7 18.5,25.7 C22.8,25.7 26.3,22.2 26.3,17.9 C26.3,13.6 22.8,10.1 18.5,10.1 Z" id="Shape"></path>
                </g>
                <path d="M1244,781.2 C1243.3,781.2 1242.5,781 1241.8,780.7 L980.6,654 C978.1,652.8 977.1,649.8 978.3,647.3 C979.5,644.8 982.5,643.8 985,645 L1243.2,770.3 L1421.2,620.1 C1423.3,618.3 1426.5,618.6 1428.2,620.7 C1430,622.8 1429.7,626 1427.6,627.7 L1247.2,780 C1246.3,780.8 1245.1,781.2 1244,781.2 Z" id="Path" fill="#383A48" fill-rule="nonzero"></path>
            </g>
        </g>
    </g>
</svg>