<svg xmlns="http://www.w3.org/2000/svg" xmlns:xlink="http://www.w3.org/1999/xlink" width="1320" height="770" version="1.1" viewBox="0 0 1320 770"><title>abstract-unsubscribed</title><desc>Created with Sketch.</desc><g id="Page-1" fill="none" fill-rule="evenodd" stroke="none" stroke-width="1"><g id="abstract-unsubscribed" transform="translate(-300.000000, -155.000000)"><g id="Group" transform="translate(300.000000, 155.000000)"><path id="Shape" fill="#CC4F86" fill-rule="nonzero" d="M1042,174.3 L925.4,174.3 L808.8,174.3 L692.3,174.3 L575.7,174.3 L459.1,174.3 L342.5,174.3 C339.7,174.3 337.5,176.5 337.5,179.3 L337.5,295.9 L337.5,412.5 L337.5,529 L337.5,645.6 L337.5,762.2 C337.5,765 339.7,767.2 342.5,767.2 L459.1,767.2 L575.7,767.2 L692.3,767.2 L808.9,767.2 L925.5,767.2 L1042,767.2 C1044.8,767.2 1047,765 1047,762.2 L1047,645.6 L1047,529 L1047,412.4 L1047,295.8 L1047,179.3 C1047,176.5 1044.8,174.3 1042,174.3 Z M1037,407.4 L930.4,407.4 L930.4,300.8 L1037,300.8 L1037,407.4 Z M1037,524 L930.4,524 L930.4,417.4 L1037,417.4 L1037,524 Z M347.5,417.4 L454.1,417.4 L454.1,524 L347.5,524 L347.5,417.4 Z M464.1,417.4 L570.7,417.4 L570.7,524 L464.1,524 L464.1,417.4 Z M580.7,417.4 L687.3,417.4 L687.3,524 L580.7,524 L580.7,417.4 Z M697.3,417.4 L803.9,417.4 L803.9,524 L697.3,524 L697.3,417.4 Z M813.9,417.4 L920.5,417.4 L920.5,524 L813.9,524 L813.9,417.4 Z M920.4,407.4 L813.8,407.4 L813.8,300.8 L920.4,300.8 L920.4,407.4 Z M803.9,407.4 L697.3,407.4 L697.3,300.8 L803.9,300.8 L803.9,407.4 L803.9,407.4 Z M687.3,407.4 L580.7,407.4 L580.7,300.8 L687.3,300.8 L687.3,407.4 L687.3,407.4 Z M570.7,407.4 L464.1,407.4 L464.1,300.8 L570.7,300.8 L570.7,407.4 L570.7,407.4 Z M454.1,407.4 L347.5,407.4 L347.5,300.8 L454.1,300.8 L454.1,407.4 Z M347.5,534 L454.1,534 L454.1,640.6 L347.5,640.6 L347.5,534 Z M464.1,534 L570.7,534 L570.7,640.6 L464.1,640.6 L464.1,534 Z M580.7,534 L687.3,534 L687.3,640.6 L580.7,640.6 L580.7,534 Z M697.3,534 L803.9,534 L803.9,640.6 L697.3,640.6 L697.3,534 Z M813.9,534 L920.5,534 L920.5,640.6 L813.9,640.6 L813.9,534 Z M930.4,534 L1037,534 L1037,640.6 L930.4,640.6 L930.4,534 Z M1037,290.8 L930.4,290.8 L930.4,184.3 L1037,184.3 L1037,290.8 Z M920.4,290.8 L813.8,290.8 L813.8,184.3 L920.4,184.3 L920.4,290.8 Z M803.9,290.8 L697.3,290.8 L697.3,184.3 L803.9,184.3 L803.9,290.8 L803.9,290.8 Z M687.3,290.8 L580.7,290.8 L580.7,184.3 L687.3,184.3 L687.3,290.8 L687.3,290.8 Z M570.7,290.8 L464.1,290.8 L464.1,184.3 L570.7,184.3 L570.7,290.8 L570.7,290.8 Z M347.5,184.3 L454.1,184.3 L454.1,290.9 L347.5,290.9 L347.5,184.3 Z M347.5,650.6 L454.1,650.6 L454.1,757.2 L347.5,757.2 L347.5,650.6 Z M464.1,650.6 L570.7,650.6 L570.7,757.2 L464.1,757.2 L464.1,650.6 Z M580.7,650.6 L687.3,650.6 L687.3,757.2 L580.7,757.2 L580.7,650.6 Z M697.3,650.6 L803.9,650.6 L803.9,757.2 L697.3,757.2 L697.3,650.6 Z M813.9,650.6 L920.5,650.6 L920.5,757.2 L813.9,757.2 L813.9,650.6 Z M1037,757.2 L930.4,757.2 L930.4,650.6 L1037,650.6 L1037,757.2 Z"/><g fill="#383A48" fill-rule="nonzero" transform="translate(1052.000000, 511.000000)"><polygon id="Path" points="5.2 253.2 250.2 253.2 250.2 5.1"/><path id="Shape" d="M250.2,258.2 L5.2,258.2 C3.2,258.2 1.4,257 0.6,255.1 C-0.2,253.2 0.2,251.1 1.7,249.7 L246.7,1.6 C248.1,0.2 250.3,-0.3 252.2,0.5 C254.1,1.3 255.3,3.1 255.3,5.1 L255.3,253.2 C255.2,255.9 253,258.2 250.2,258.2 Z M17.2,248.2 L245.2,248.2 L245.2,17.2 L17.2,248.2 Z"/></g><path id="Path" fill="#F3F6E6" fill-rule="nonzero" d="M427,719.8 C407.8,712.6 381.8,710.3 354.2,707.8 C288.4,701.9 213.8,695.2 190.5,623.9 C167.6,554 126.5,534.4 90.2,517.2 C53.3,499.6 21.4,484.5 10.4,422.1 C9.9,419.5 7.6,417.7 5,418 C2.4,418.2 0.4,420.4 0.4,423 L0.4,764.1 C0.4,766.9 2.6,769.1 5.4,769.1 L455.4,769.1 C458.2,769.1 460.400676,766.9 460.400676,764.1 C460.5,742.8 449.5,728.3 427,719.8 Z"/><g><g transform="translate(973.000000, 89.000000) translate(0.000000, 12.000000)"><line id="Path" x1=".1" x2="33" y1="5.1" y2="5.1"/><rect id="Rectangle" width="33" height="10" x=".1" y=".1" fill="#383A48" fill-rule="nonzero"/></g><g transform="translate(973.000000, 89.000000) translate(11.000000, 0.000000)"><line id="Path" x1="5.6" x2="5.6" y1="33.6" y2=".6"/><rect id="Rectangle" width="10" height="33" x=".6" y=".6" fill="#383A48" fill-rule="nonzero"/></g></g><g><g transform="translate(505.000000, 679.000000) translate(0.000000, 12.000000)"><line id="Path" x1=".2" x2="33.2" y1="5" y2="5"/><rect id="Rectangle" width="33" height="10" x=".2" y="0" fill="#383A48" fill-rule="nonzero"/></g><g transform="translate(505.000000, 679.000000) translate(11.000000, 0.000000)"><line id="Path" x1="5.7" x2="5.7" y1="33.4" y2=".5"/><rect id="Rectangle" width="10" height="33" x=".7" y=".5" fill="#383A48" fill-rule="nonzero"/></g></g><g fill-rule="nonzero"><g transform="translate(117.000000, 108.000000)"><rect id="Rectangle" width="686.8" height="417.2" x="5.1" y="5.7" fill="#F3F6E6"/><path id="Shape" fill="#383A48" d="M691.9,427.9 L5.1,427.9 C2.3,427.9 0.1,425.7 0.1,422.9 L0.1,5.7 C0.1,2.9 2.3,0.7 5.1,0.7 L691.9,0.7 C694.7,0.7 696.9,2.9 696.9,5.7 L696.9,422.9 C696.9,425.7 694.6,427.9 691.9,427.9 Z M10.1,417.9 L686.9,417.9 L686.9,10.7 L10.1,10.7 L10.1,417.9 Z"/></g><g transform="translate(117.000000, 108.000000)"><rect id="Rectangle" width="686.8" height="148.8" x="5.1" y="5.7" fill="#F6E049"/><path id="Shape" fill="#383A48" d="M691.9,159.5 L5.1,159.5 C2.3,159.5 0.1,157.3 0.1,154.5 L0.1,5.7 C0.1,2.9 2.3,0.7 5.1,0.7 L691.9,0.7 C694.7,0.7 696.9,2.9 696.9,5.7 L696.9,154.5 C696.9,157.2 694.6,159.5 691.9,159.5 Z M10.1,149.5 L686.9,149.5 L686.9,10.7 L10.1,10.7 L10.1,149.5 Z"/></g><g fill="#383A48" transform="translate(117.000000, 108.000000) translate(484.000000, 61.000000)"><g id="Rectangle" transform="translate(98.000000, 2.000000)"><rect width="10" height="33" x="10.492" y="-.395" transform="translate(15.491960, 16.104960) rotate(-45.000000) translate(-15.491960, -16.104960)"/><rect width="33.002" height="10.001" x="-.826" y="11.037" transform="translate(15.675180, 16.037790) rotate(-45.004051) translate(-15.675180, -16.037790)"/></g><path id="Shape" d="M82.1,35.8 L46.6,35.8 L46.6,0.3 L82.1,0.3 L82.1,35.8 Z M56.6,25.8 L72.1,25.8 L72.1,10.3 L56.6,10.3 L56.6,25.8 Z"/><rect id="Rectangle" width="25.5" height="10" x=".9" y="25.8"/></g></g><g fill-rule="nonzero" transform="translate(784.000000, 246.000000)"><g><circle id="Oval" cx="261.9" cy="261.8" r="256.3" fill="#E0719E"/><path id="Shape" fill="#383A48" d="M261.9,523.2 C192.1,523.2 126.5,496 77.1,446.7 C27.7,397.3 0.6,331.7 0.6,261.9 C0.6,192.1 27.8,126.5 77.1,77.1 C126.5,27.7 192.1,0.6 261.9,0.6 C331.7,0.6 397.3,27.8 446.7,77.1 C496.1,126.5 523.2,192.1 523.2,261.9 C523.2,331.7 496,397.3 446.7,446.7 C397.3,496 331.7,523.2 261.9,523.2 Z M261.9,10.5 C194.8,10.5 131.7,36.6 84.2,84.1 C36.7,131.6 10.6,194.7 10.6,261.8 C10.6,328.9 36.7,392 84.2,439.5 C131.7,487 194.8,513.1 261.9,513.1 C329,513.1 392.1,487 439.6,439.5 C487.1,392 513.2,328.9 513.2,261.8 C513.2,194.7 487.1,131.6 439.6,84.1 C392.1,36.7 329,10.5 261.9,10.5 Z"/></g><circle id="Oval" cx="493.6" cy="178.9" r="5" fill="#383A48"/><circle id="Oval" cx="493.6" cy="203.6" r="5" fill="#383A48"/><circle id="Oval" cx="493.6" cy="228.3" r="5" fill="#383A48"/><circle id="Oval" cx="493.6" cy="252.9" r="5" fill="#383A48"/><circle id="Oval" cx="493.6" cy="277.6" r="5" fill="#383A48"/><circle id="Oval" cx="493.6" cy="302.3" r="5" fill="#383A48"/><circle id="Oval" cx="493.6" cy="326.9" r="5" fill="#383A48"/><circle id="Oval" cx="493.6" cy="351.6" r="5" fill="#383A48"/><circle id="Oval" cx="469" cy="129.6" r="5" fill="#383A48"/><circle id="Oval" cx="469" cy="154.3" r="5" fill="#383A48"/><circle id="Oval" cx="469" cy="178.9" r="5" fill="#383A48"/><circle id="Oval" cx="469" cy="203.6" r="5" fill="#383A48"/><circle id="Oval" cx="469" cy="228.3" r="5" fill="#383A48"/><circle id="Oval" cx="469" cy="252.9" r="5" fill="#383A48"/><circle id="Oval" cx="469" cy="277.6" r="5" fill="#383A48"/><circle id="Oval" cx="469" cy="302.3" r="5" fill="#383A48"/><circle id="Oval" cx="469" cy="326.9" r="5" fill="#383A48"/><circle id="Oval" cx="469" cy="351.6" r="5" fill="#383A48"/><circle id="Oval" cx="469" cy="376.3" r="5" fill="#383A48"/><circle id="Oval" cx="469" cy="400.9" r="5" fill="#383A48"/><circle id="Oval" cx="444.3" cy="104.9" r="5" fill="#383A48"/><circle id="Oval" cx="444.3" cy="326.9" r="5" fill="#383A48"/><circle id="Oval" cx="444.3" cy="351.6" r="5" fill="#383A48"/><circle id="Oval" cx="444.3" cy="376.3" r="5" fill="#383A48"/><circle id="Oval" cx="444.3" cy="400.9" r="5" fill="#383A48"/><circle id="Oval" cx="444.3" cy="425.6" r="5" fill="#383A48"/><circle id="Oval" cx="419.6" cy="351.6" r="5" fill="#383A48"/><circle id="Oval" cx="419.6" cy="376.3" r="5" fill="#383A48"/><circle id="Oval" cx="419.6" cy="400.9" r="5" fill="#383A48"/><circle id="Oval" cx="419.6" cy="425.6" r="5" fill="#383A48"/><circle id="Oval" cx="419.6" cy="450.3" r="5" fill="#383A48"/><circle id="Oval" cx="395" cy="376.3" r="5" fill="#383A48"/><circle id="Oval" cx="395" cy="400.9" r="5" fill="#383A48"/><circle id="Oval" cx="395" cy="425.6" r="5" fill="#383A48"/><circle id="Oval" cx="395" cy="450.3" r="5" fill="#383A48"/><circle id="Oval" cx="395" cy="474.9" r="5" fill="#383A48"/><circle id="Oval" cx="370.3" cy="400.9" r="5" fill="#383A48"/><circle id="Oval" cx="370.3" cy="425.6" r="5" fill="#383A48"/><circle id="Oval" cx="370.3" cy="450.3" r="5" fill="#383A48"/><circle id="Oval" cx="370.3" cy="474.9" r="5" fill="#383A48"/><circle id="Oval" cx="345.6" cy="425.6" r="5" fill="#383A48"/><circle id="Oval" cx="345.6" cy="450.3" r="5" fill="#383A48"/><circle id="Oval" cx="345.6" cy="474.9" r="5" fill="#383A48"/><circle id="Oval" cx="345.6" cy="499.6" r="5" fill="#383A48"/><circle id="Oval" cx="321" cy="450.3" r="5" fill="#383A48"/><circle id="Oval" cx="321" cy="474.9" r="5" fill="#383A48"/><circle id="Oval" cx="321" cy="499.6" r="5" fill="#383A48"/><circle id="Oval" cx="296.3" cy="450.3" r="5" fill="#383A48"/><circle id="Oval" cx="296.3" cy="474.9" r="5" fill="#383A48"/><circle id="Oval" cx="296.3" cy="499.6" r="5" fill="#383A48"/><circle id="Oval" cx="271.6" cy="450.3" r="5" fill="#383A48"/><circle id="Oval" cx="271.6" cy="474.9" r="5" fill="#383A48"/><circle id="Oval" cx="271.6" cy="499.6" r="5" fill="#383A48"/><circle id="Oval" cx="247" cy="450.3" r="5" fill="#383A48"/><circle id="Oval" cx="247" cy="474.9" r="5" fill="#383A48"/><circle id="Oval" cx="247" cy="499.6" r="5" fill="#383A48"/><circle id="Oval" cx="222.3" cy="450.3" r="5" fill="#383A48"/><circle id="Oval" cx="222.3" cy="474.9" r="5" fill="#383A48"/><circle id="Oval" cx="222.3" cy="499.6" r="5" fill="#383A48"/><circle id="Oval" cx="197.6" cy="450.3" r="5" fill="#383A48"/><circle id="Oval" cx="197.6" cy="474.9" r="5" fill="#383A48"/><circle id="Oval" cx="197.6" cy="499.6" r="5" fill="#383A48"/><circle id="Oval" cx="173" cy="450.3" r="5" fill="#383A48"/><circle id="Oval" cx="173" cy="474.9" r="5" fill="#383A48"/><circle id="Oval" cx="173" cy="499.6" r="5" fill="#383A48"/><circle id="Oval" cx="148.3" cy="450.3" r="5" fill="#383A48"/><circle id="Oval" cx="148.3" cy="474.9" r="5" fill="#383A48"/><circle id="Oval" cx="123.6" cy="450.3" r="5" fill="#383A48"/><circle id="Oval" cx="123.6" cy="474.9" r="5" fill="#383A48"/><circle id="Oval" cx="99" cy="450.3" r="5" fill="#383A48"/><circle id="Oval" cx="74.3" cy="425.6" r="5" fill="#383A48"/><circle id="Oval" cx="49.6" cy="400.9" r="5" fill="#383A48"/><path id="Path" fill="#383A48" d="M420,416.2 C403.6,416.2 385.5,413.4 366.3,407.6 C314.7,392.2 260.4,357.7 213.2,310.6 C166,263.4 131.5,209 116.2,157.5 C100.5,104.9 106.5,61.3 133,34.7 C135,32.7 138.1,32.7 140.1,34.7 C142.1,36.7 142.1,39.8 140.1,41.8 C116.3,65.6 111.2,105.7 125.8,154.6 C140.7,204.6 174.3,257.5 220.3,303.5 C266.3,349.5 319.2,383.1 369.2,398 C418.1,412.6 458.2,407.5 482,383.7 C484,381.7 487.1,381.7 489.1,383.7 C491.1,385.7 491.1,388.8 489.1,390.8 C472.2,407.7 448.5,416.2 420,416.2 Z"/><path id="Path" fill="#383A48" d="M400.1,264.4 C396.3,264.4 392.5,264.2 388.7,263.9 C357.2,260.9 326.5,245.9 302.3,221.6 C251.9,171.2 245,96.1 287,54.1 L329.1,12 C331.1,10 334.2,10 336.2,12 C338.2,14 338.2,17.1 336.2,19.1 L294.1,61.2 C275.8,79.5 267.2,105.5 270,134.2 C272.8,163.3 286.8,191.9 309.4,214.5 C332,237.1 360.6,251.2 389.7,253.9 C418.5,256.6 444.4,248.1 462.7,229.8 L504.8,187.7 C506.8,185.7 509.9,185.7 511.9,187.7 C513.9,189.7 513.9,192.8 511.9,194.8 L469.8,236.9 C451.7,254.8 427.3,264.4 400.1,264.4 Z"/><path id="Path" fill="#383A48" d="M190.4,513.1 C189.3,513.1 188.2,512.8 187.3,512 C185.1,510.3 184.7,507.2 186.4,505 C201.1,486.1 207.1,461 203.2,434.2 C199.3,406.9 185.5,380.3 164.4,359.2 C121.6,316.4 59.3,306.6 19.6,336.5 C17.4,338.2 14.3,337.7 12.6,335.5 C10.9,333.3 11.4,330.2 13.6,328.5 C57.3,295.6 125.1,305.8 171.5,352.2 C194.1,374.8 208.9,403.5 213.1,432.9 C217.3,462.4 210.6,490.2 194.3,511.3 C193.4,512.4 191.9,513.1 190.4,513.1 Z"/><path id="Path" fill="#383A48" d="M80.6,448.1 C79.3,448.1 78,447.6 77.1,446.6 C75.1,444.6 75.1,441.5 77.1,439.5 L439.6,77 C441.6,75 444.7,75 446.7,77 C448.7,79 448.7,82.1 446.7,84.1 L84.2,446.6 C83.2,447.6 81.9,448.1 80.6,448.1 Z"/><path id="Path" fill="#F3F6E6" d="M183.3,48 C172.5,48 163.6,56.8 163.6,67.7 C163.6,78.5 172.4,87.4 183.3,87.4 C194.2,87.4 203,78.6 203,67.7 C203,56.8 194.2,48 183.3,48 Z"/></g><path id="Path" fill="#F3F6E6" fill-rule="nonzero" d="M1249.2,0.9 L948.8,0.9 C946.2,0.9 944.1,2.8 943.8,5.4 C943.5,8 945.2,10.3 947.7,10.8 C1035.2,30 1144.8,72.2 1170.3,164 C1188.2,228.2 1225.9,268.2 1254.4,290.6 C1285.3,314.8 1311.8,323.8 1312.9,324.1 C1313.4,324.3 1313.9,324.4 1314.5,324.4 C1315.5,324.4 1316.6,324.1 1317.4,323.5 C1318.7,322.6 1319.5,321.1 1319.5,319.4 L1319.5,134.2 C1307.2,94.4 1288,0.9 1249.2,0.9 Z"/><g fill-rule="nonzero" transform="translate(1201.000000, 66.000000)"><circle id="Oval" cx="59.3" cy="59.9" r="54.2" fill="#AAC6FC"/><path id="Shape" fill="#383A48" d="M59.3,119.1 C26.7,119.1 0.1,92.6 0.1,59.9 C0.1,27.3 26.6,0.7 59.3,0.7 C92,0.7 118.5,27.2 118.5,59.9 C118.5,92.5 92,119.1 59.3,119.1 Z M59.3,10.7 C32.2,10.7 10.1,32.8 10.1,59.9 C10.1,87 32.2,109.1 59.3,109.1 C86.4,109.1 108.5,87 108.5,59.9 C108.5,32.8 86.5,10.7 59.3,10.7 Z"/></g><g fill-rule="nonzero" transform="translate(1201.000000, 0.000000)"><circle id="Oval" cx="59.3" cy="60" r="54.2" fill="#AAC6FC"/><path id="Shape" fill="#383A48" d="M59.3,119.2 C26.7,119.2 0.1,92.7 0.1,60 C0.1,27.4 26.6,0.8 59.3,0.8 C92,0.8 118.5,27.3 118.5,60 C118.5,92.6 92,119.2 59.3,119.2 Z M59.3,10.8 C32.2,10.8 10.1,32.9 10.1,60 C10.1,87.1 32.2,109.2 59.3,109.2 C86.4,109.2 108.5,87.1 108.5,60 C108.5,32.9 86.5,10.8 59.3,10.8 Z"/></g><g fill-rule="nonzero"><g transform="translate(60.000000, 55.000000)"><rect id="Rectangle" width="686.8" height="417.2" x="5.3" y="5.8" fill="#F3F6E6"/><path id="Shape" fill="#383A48" d="M692,428 L5.3,428 C2.5,428 0.3,425.8 0.3,423 L0.3,5.8 C0.3,3 2.5,0.8 5.3,0.8 L692,0.8 C694.8,0.8 697,3 697,5.8 L697,423 C697,425.8 694.8,428 692,428 Z M10.3,418 L687,418 L687,10.8 L10.3,10.8 L10.3,418 Z"/></g><g transform="translate(60.000000, 55.000000)"><rect id="Rectangle" width="686.8" height="148.8" x="5.3" y="5.8" fill="#F6E049"/><path id="Shape" fill="#383A48" d="M692,159.6 L5.3,159.6 C2.5,159.6 0.3,157.4 0.3,154.6 L0.3,5.8 C0.3,3 2.5,0.8 5.3,0.8 L692,0.8 C694.8,0.8 697,3 697,5.8 L697,154.6 C697,157.3 694.8,159.6 692,159.6 Z M10.3,149.6 L687,149.6 L687,10.8 L10.3,10.8 L10.3,149.6 Z"/></g><g fill="#383A48" transform="translate(60.000000, 55.000000) translate(508.000000, 61.000000)"><g id="Rectangle" transform="translate(98.000000, 2.000000)"><rect width="10" height="33" x="10.495" y="-.299" transform="translate(15.495170, 16.200470) rotate(-45.000000) translate(-15.495170, -16.200470)"/><rect width="33.002" height="10.001" x="-.83" y="11.132" transform="translate(15.670800, 16.132000) rotate(-45.004051) translate(-15.670800, -16.132000)"/></g><path id="Shape" d="M82.1,35.9 L46.6,35.9 L46.6,0.4 L82.1,0.4 L82.1,35.9 Z M56.6,25.9 L72.1,25.9 L72.1,10.4 L56.6,10.4 L56.6,25.9 Z"/><rect id="Rectangle" width="25.5" height="10" x=".9" y="25.9"/></g></g><g fill-rule="nonzero"><g><rect id="Rectangle" width="686.8" height="417.2" x="5.5" y="5.9" fill="#F3F6E6"/><path id="Shape" fill="#383A48" d="M692.3,428.1 L5.5,428.1 C2.7,428.1 0.5,425.9 0.5,423.1 L0.5,5.9 C0.5,3.1 2.7,0.9 5.5,0.9 L692.3,0.9 C695.1,0.9 697.3,3.1 697.3,5.9 L697.3,423.1 C697.3,425.8 695,428.1 692.3,428.1 Z M10.5,418.1 L687.3,418.1 L687.3,10.9 L10.5,10.9 L10.5,418.1 Z"/></g><g><rect id="Rectangle" width="686.8" height="148.8" x="5.5" y="5.9" fill="#F6E049"/><path id="Shape" fill="#383A48" d="M692.3,159.7 L5.5,159.7 C2.7,159.7 0.5,157.5 0.5,154.7 L0.5,5.9 C0.5,3.1 2.7,0.9 5.5,0.9 L692.3,0.9 C695.1,0.9 697.3,3.1 697.3,5.9 L697.3,154.7 C697.3,157.4 695,159.7 692.3,159.7 Z M10.5,149.7 L687.3,149.7 L687.3,10.9 L10.5,10.9 L10.5,149.7 Z"/></g><g fill="#383A48" transform="translate(506.000000, 61.000000)"><g id="Rectangle" transform="translate(97.000000, 2.000000)"><rect width="10" height="33" x="10.693" y="-.169" transform="translate(15.693000, 16.331060) rotate(-45.000000) translate(-15.693000, -16.331060)"/><rect width="33.002" height="10.001" x="-.567" y="11.143" transform="translate(15.933730, 16.143740) rotate(-45.004051) translate(-15.933730, -16.143740)"/></g><path id="Shape" d="M81.3,36 L45.8,36 L45.8,0.5 L81.3,0.5 L81.3,36 Z M55.8,26 L71.3,26 L71.3,10.5 L55.8,10.5 L55.8,26 Z"/><rect id="Rectangle" width="25.5" height="10" x=".2" y="26"/></g><g fill="#383A48" transform="translate(85.000000, 218.000000)"><polygon id="Path" points="16.8 54.1 20.5 36.5 80.9 36.5 85.3 53.6 29.7 114 29.6 114.5 71.7 114.5 67.9 132.1 3.4 132.1 .8 115.2 56.5 54.7 56.7 54.2 16.8 54.2 16.8 54.1"/><polygon id="Path" points="123.2 24.4 128.3 .1 211.7 .1 217.8 23.7 141 107.1 140.8 107.8 199 107.8 193.8 132.1 104.7 132.1 101.1 108.7 178 25.1 178.3 24.4 123.2 24.4"/><polygon id="Path" points="255.2 35.8 259.8 14.1 335.4 14.1 340.9 35.2 272.2 109.8 272 110.5 324 110.5 319.4 132.2 238.7 132.2 235.5 111.3 305.3 36.5 305.5 35.8 255.2 35.8"/><polygon id="Path" points="371.3 54.1 375 36.5 435.4 36.5 439.8 53.6 384.2 114 384.1 114.5 426.2 114.5 422.4 132.1 357.9 132.1 355.3 115.2 411 54.7 411.2 54.2 371.3 54.2 371.3 54.1"/><path id="Shape" d="M453.3,132.1 L457.2,114 L477.6,114 L473.7,132.1 L453.3,132.1 Z M484.3,132.1 L488.1,114 L508.5,114 L504.6,132.1 L484.3,132.1 Z M515.3,132.1 L519.1,114 L539.5,114 L535.7,132.1 L515.3,132.1 Z"/></g></g><path id="Path" fill="#383A48" fill-rule="nonzero" d="M680.9,642.8 L546.2,508.1 C544.2,506.1 544.2,503 546.2,501 L546.2,501 C548.2,499 551.3,499 553.3,501 L688,635.7 C690,637.7 690,640.8 688,642.8 L688,642.8 C686,644.7 682.9,644.7 680.9,642.8 Z"/></g></g></g></svg>