<?xml version="1.0" encoding="utf-8"?>
<!-- Generator: Adobe Illustrator 22.0.1, SVG Export Plug-In . SVG Version: 6.00 Build 0)  -->
<svg version="1.1" id="Layer_1" xmlns="http://www.w3.org/2000/svg" xmlns:xlink="http://www.w3.org/1999/xlink" x="0px" y="0px" viewBox="0 0 1920 1080" style="enable-background:new 0 0 1920 1080;" xml:space="preserve">

<rect y="0" width="1920" height="1080" style="fill:#7FD6C2;"/>
<g>
	<path d="M598.6,151.6c-0.4-2.4-2.5-4.2-4.9-4.2H215.3c-2.8,0-5,2.2-5,5v293.2c0,1.4,0.6,2.8,1.7,3.8
		c0.9,0.8,2.1,1.2,3.3,1.2c0.2,0,0.4,0,0.6,0c117.3-14.8,152.7-73.1,190.2-134.8c17.9-29.5,36.5-60,64.9-87.7
		c32.1-31.3,72.8-54.5,124.2-70.8C597.6,156.4,599,154.1,598.6,151.6z" style="fill:#F3F6E6;"/>
	<g>
		<g>
			<g>
				<path d="M1034.4,845.5L1034.4,845.5c-99.6,0-180.3-80.7-180.3-180.3l0,0c0-99.6,80.7-180.3,180.3-180.3l0,0
					c99.6,0,180.3,80.7,180.3,180.3l0,0C1214.7,764.8,1134,845.5,1034.4,845.5z" style="fill:#7FD6C2;"/>
				<path d="M1034.4,850.5c-102.2,0-185.3-83.1-185.3-185.3s83.1-185.3,185.3-185.3s185.3,83.1,185.3,185.3
					C1219.7,767.4,1136.6,850.5,1034.4,850.5z M1034.4,489.9c-96.7,0-175.3,78.7-175.3,175.3s78.7,175.3,175.3,175.3l0,0
					c96.7,0,175.3-78.7,175.3-175.3S1131.1,489.9,1034.4,489.9z" style="fill:#383A48;"/>
			</g>
		</g>
		<g>
			<g>
				<path d="M1117,764.1L1117,764.1c-99.6,0-180.3-80.7-180.3-180.3l0,0c0-99.6,80.7-180.3,180.3-180.3l0,0
					c99.6,0,180.3,80.7,180.3,180.3l0,0C1297.3,683.3,1216.6,764.1,1117,764.1z" style="fill:#A7D99A;"/>
				<path d="M1117,769.1c-102.2,0-185.3-83.1-185.3-185.3s83.1-185.3,185.3-185.3s185.3,83.1,185.3,185.3
					C1302.3,685.9,1219.2,769.1,1117,769.1z M1117,408.4c-96.7,0-175.3,78.7-175.3,175.3S1020.4,759,1117,759l0,0
					c96.7,0,175.3-78.7,175.3-175.3S1213.7,408.4,1117,408.4z" style="fill:#383A48;"/>
			</g>
		</g>
		<g>
			<g>
				<circle cx="1255.3" cy="454.5" r="5" style="fill:#383A48;"/>
			</g>
		</g>
		<g>
			<g>
				<circle cx="1255.3" cy="498.5" r="5" style="fill:#383A48;"/>
			</g>
		</g>
		<g>
			<g>
				<circle cx="1255.3" cy="542.5" r="5" style="fill:#383A48;"/>
			</g>
		</g>
		<g>
			<g>
				<circle cx="1255.3" cy="586.5" r="5" style="fill:#383A48;"/>
			</g>
		</g>
		<g>
			<g>
				<circle cx="1255.3" cy="630.5" r="5" style="fill:#383A48;"/>
			</g>
		</g>
		<g>
			<g>
				<circle cx="1255.3" cy="674.5" r="5" style="fill:#383A48;"/>
			</g>
		</g>
		<g>
			<g>
				<circle cx="1211.3" cy="454.5" r="5" style="fill:#383A48;"/>
			</g>
		</g>
		<g>
			<g>
				<circle cx="1211.3" cy="498.5" r="5" style="fill:#383A48;"/>
			</g>
		</g>
		<g>
			<g>
				<circle cx="1211.3" cy="542.5" r="5" style="fill:#383A48;"/>
			</g>
		</g>
		<g>
			<g>
				<circle cx="1211.3" cy="586.5" r="5" style="fill:#383A48;"/>
			</g>
		</g>
		<g>
			<g>
				<circle cx="1211.3" cy="630.5" r="5" style="fill:#383A48;"/>
			</g>
		</g>
		<g>
			<g>
				<circle cx="1211.3" cy="674.5" r="5" style="fill:#383A48;"/>
			</g>
		</g>
		<g>
			<g>
				<circle cx="1211.3" cy="718.5" r="5" style="fill:#383A48;"/>
			</g>
		</g>
		<g>
			<g>
				<circle cx="1167.3" cy="454.5" r="5" style="fill:#383A48;"/>
			</g>
		</g>
		<g>
			<g>
				<circle cx="1167.3" cy="498.5" r="5" style="fill:#383A48;"/>
			</g>
		</g>
		<g>
			<g>
				<circle cx="1167.3" cy="542.5" r="5" style="fill:#383A48;"/>
			</g>
		</g>
		<g>
			<g>
				<circle cx="1167.3" cy="586.5" r="5" style="fill:#383A48;"/>
			</g>
		</g>
		<g>
			<g>
				<circle cx="1167.3" cy="630.5" r="5" style="fill:#383A48;"/>
			</g>
		</g>
		<g>
			<g>
				<circle cx="1167.3" cy="674.5" r="5" style="fill:#383A48;"/>
			</g>
		</g>
		<g>
			<g>
				<circle cx="1167.3" cy="718.5" r="5" style="fill:#383A48;"/>
			</g>
		</g>
		<g>
			<g>
				<circle cx="1123.3" cy="454.5" r="5" style="fill:#383A48;"/>
			</g>
		</g>
		<g>
			<g>
				<circle cx="1123.3" cy="498.5" r="5" style="fill:#383A48;"/>
			</g>
		</g>
		<g>
			<g>
				<circle cx="1123.3" cy="542.5" r="5" style="fill:#383A48;"/>
			</g>
		</g>
		<g>
			<g>
				<circle cx="1123.3" cy="586.5" r="5" style="fill:#383A48;"/>
			</g>
		</g>
		<g>
			<g>
				<circle cx="1123.3" cy="630.5" r="5" style="fill:#383A48;"/>
			</g>
		</g>
		<g>
			<g>
				<circle cx="1123.3" cy="674.5" r="5" style="fill:#383A48;"/>
			</g>
		</g>
		<g>
			<g>
				<circle cx="1123.3" cy="718.5" r="5" style="fill:#383A48;"/>
			</g>
		</g>
		<g>
			<g>
				<circle cx="1079.3" cy="454.5" r="5" style="fill:#383A48;"/>
			</g>
		</g>
		<g>
			<g>
				<circle cx="1079.3" cy="498.5" r="5" style="fill:#383A48;"/>
			</g>
		</g>
		<g>
			<g>
				<circle cx="1079.3" cy="542.5" r="5" style="fill:#383A48;"/>
			</g>
		</g>
		<g>
			<g>
				<circle cx="1079.3" cy="586.5" r="5" style="fill:#383A48;"/>
			</g>
		</g>
		<g>
			<g>
				<circle cx="1079.3" cy="630.5" r="5" style="fill:#383A48;"/>
			</g>
		</g>
		<g>
			<g>
				<circle cx="1079.3" cy="674.5" r="5" style="fill:#383A48;"/>
			</g>
		</g>
		<g>
			<g>
				<circle cx="1079.3" cy="718.5" r="5" style="fill:#383A48;"/>
			</g>
		</g>
		<g>
			<g>
				<circle cx="1035.3" cy="454.5" r="5" style="fill:#383A48;"/>
			</g>
		</g>
		<g>
			<g>
				<circle cx="1035.3" cy="498.5" r="5" style="fill:#383A48;"/>
			</g>
		</g>
		<g>
			<g>
				<circle cx="1035.3" cy="542.5" r="5" style="fill:#383A48;"/>
			</g>
		</g>
		<g>
			<g>
				<circle cx="1035.3" cy="586.5" r="5" style="fill:#383A48;"/>
			</g>
		</g>
		<g>
			<g>
				<circle cx="1035.3" cy="630.5" r="5" style="fill:#383A48;"/>
			</g>
		</g>
		<g>
			<g>
				<circle cx="1035.3" cy="674.5" r="5" style="fill:#383A48;"/>
			</g>
		</g>
		<g>
			<g>
				<circle cx="1035.3" cy="718.5" r="5" style="fill:#383A48;"/>
			</g>
		</g>
		<g>
			<g>
				<circle cx="991.3" cy="498.5" r="5" style="fill:#383A48;"/>
			</g>
		</g>
		<g>
			<g>
				<circle cx="991.3" cy="542.5" r="5" style="fill:#383A48;"/>
			</g>
		</g>
		<g>
			<g>
				<circle cx="991.3" cy="586.5" r="5" style="fill:#383A48;"/>
			</g>
		</g>
		<g>
			<g>
				<circle cx="991.3" cy="630.5" r="5" style="fill:#383A48;"/>
			</g>
		</g>
		<g>
			<g>
				<circle cx="991.3" cy="674.5" r="5" style="fill:#383A48;"/>
			</g>
		</g>
		<g>
			<g>
				<circle cx="947.3" cy="542.5" r="5" style="fill:#383A48;"/>
			</g>
		</g>
		<g>
			<g>
				<circle cx="947.3" cy="586.5" r="5" style="fill:#383A48;"/>
			</g>
		</g>
		<g>
			<g>
				<path d="M1199.5,682.6L1199.5,682.6c-99.6,0-180.3-80.7-180.3-180.3l0,0c0-99.6,80.7-180.3,180.3-180.3l0,0
					c99.6,0,180.3,80.7,180.3,180.3l0,0C1379.9,601.9,1299.1,682.6,1199.5,682.6z" style="fill:#CEDD71;"/>
				<path d="M1199.5,687.6c-102.2,0-185.3-83.1-185.3-185.3S1097.3,317,1199.5,317s185.3,83.1,185.3,185.3
					S1301.7,687.6,1199.5,687.6z M1199.5,327c-96.7,0-175.3,78.7-175.3,175.3s78.7,175.3,175.3,175.3l0,0
					c96.7,0,175.3-78.7,175.3-175.3S1296.2,327,1199.5,327z" style="fill:#383A48;"/>
			</g>
		</g>
		<g>
			<g>
				<circle cx="1337.6" cy="367.5" r="5" style="fill:#383A48;"/>
			</g>
		</g>
		<g>
			<g>
				<circle cx="1337.6" cy="392.2" r="5" style="fill:#383A48;"/>
			</g>
		</g>
		<g>
			<g>
				<circle cx="1337.6" cy="416.8" r="5" style="fill:#383A48;"/>
			</g>
		</g>
		<g>
			<g>
				<circle cx="1337.6" cy="441.5" r="5" style="fill:#383A48;"/>
			</g>
		</g>
		<g>
			<g>
				<circle cx="1337.6" cy="466.2" r="5" style="fill:#383A48;"/>
			</g>
		</g>
		<g>
			<g>
				<circle cx="1337.6" cy="490.8" r="5" style="fill:#383A48;"/>
			</g>
		</g>
		<g>
			<g>
				<circle cx="1337.6" cy="515.5" r="5" style="fill:#383A48;"/>
			</g>
		</g>
		<g>
			<g>
				<circle cx="1337.6" cy="540.2" r="5" style="fill:#383A48;"/>
			</g>
		</g>
		<g>
			<g>
				<circle cx="1337.6" cy="564.8" r="5" style="fill:#383A48;"/>
			</g>
		</g>
		<g>
			<g>
				<circle cx="1337.6" cy="589.5" r="5" style="fill:#383A48;"/>
			</g>
		</g>
		<g>
			<g>
				<circle cx="1312.9" cy="367.5" r="5" style="fill:#383A48;"/>
			</g>
		</g>
		<g>
			<g>
				<circle cx="1312.9" cy="392.2" r="5" style="fill:#383A48;"/>
			</g>
		</g>
		<g>
			<g>
				<circle cx="1312.9" cy="416.8" r="5" style="fill:#383A48;"/>
			</g>
		</g>
		<g>
			<g>
				<circle cx="1312.9" cy="441.5" r="5" style="fill:#383A48;"/>
			</g>
		</g>
		<g>
			<g>
				<circle cx="1312.9" cy="466.2" r="5" style="fill:#383A48;"/>
			</g>
		</g>
		<g>
			<g>
				<circle cx="1312.9" cy="490.8" r="5" style="fill:#383A48;"/>
			</g>
		</g>
		<g>
			<g>
				<circle cx="1312.9" cy="515.5" r="5" style="fill:#383A48;"/>
			</g>
		</g>
		<g>
			<g>
				<circle cx="1312.9" cy="540.2" r="5" style="fill:#383A48;"/>
			</g>
		</g>
		<g>
			<g>
				<circle cx="1312.9" cy="564.8" r="5" style="fill:#383A48;"/>
			</g>
		</g>
		<g>
			<g>
				<circle cx="1312.9" cy="589.5" r="5" style="fill:#383A48;"/>
			</g>
		</g>
		<g>
			<g>
				<circle cx="1312.9" cy="614.2" r="5" style="fill:#383A48;"/>
			</g>
		</g>
		<g>
			<g>
				<circle cx="1288.3" cy="367.5" r="5" style="fill:#383A48;"/>
			</g>
		</g>
		<g>
			<g>
				<circle cx="1288.3" cy="392.2" r="5" style="fill:#383A48;"/>
			</g>
		</g>
		<g>
			<g>
				<circle cx="1288.3" cy="416.8" r="5" style="fill:#383A48;"/>
			</g>
		</g>
		<g>
			<g>
				<circle cx="1288.3" cy="441.5" r="5" style="fill:#383A48;"/>
			</g>
		</g>
		<g>
			<g>
				<circle cx="1288.3" cy="466.2" r="5" style="fill:#383A48;"/>
			</g>
		</g>
		<g>
			<g>
				<circle cx="1288.3" cy="490.8" r="5" style="fill:#383A48;"/>
			</g>
		</g>
		<g>
			<g>
				<circle cx="1288.3" cy="515.5" r="5" style="fill:#383A48;"/>
			</g>
		</g>
		<g>
			<g>
				<circle cx="1288.3" cy="540.2" r="5" style="fill:#383A48;"/>
			</g>
		</g>
		<g>
			<g>
				<circle cx="1288.3" cy="564.8" r="5" style="fill:#383A48;"/>
			</g>
		</g>
		<g>
			<g>
				<circle cx="1288.3" cy="589.5" r="5" style="fill:#383A48;"/>
			</g>
		</g>
		<g>
			<g>
				<circle cx="1288.3" cy="614.2" r="5" style="fill:#383A48;"/>
			</g>
		</g>
		<g>
			<g>
				<circle cx="1288.3" cy="638.8" r="5" style="fill:#383A48;"/>
			</g>
		</g>
		<g>
			<g>
				<circle cx="1263.6" cy="367.5" r="5" style="fill:#383A48;"/>
			</g>
		</g>
		<g>
			<g>
				<circle cx="1263.6" cy="392.2" r="5" style="fill:#383A48;"/>
			</g>
		</g>
		<g>
			<g>
				<circle cx="1263.6" cy="416.8" r="5" style="fill:#383A48;"/>
			</g>
		</g>
		<g>
			<g>
				<circle cx="1263.6" cy="441.5" r="5" style="fill:#383A48;"/>
			</g>
		</g>
		<g>
			<g>
				<circle cx="1263.6" cy="466.2" r="5" style="fill:#383A48;"/>
			</g>
		</g>
		<g>
			<g>
				<circle cx="1263.6" cy="490.8" r="5" style="fill:#383A48;"/>
			</g>
		</g>
		<g>
			<g>
				<circle cx="1263.6" cy="515.5" r="5" style="fill:#383A48;"/>
			</g>
		</g>
		<g>
			<g>
				<circle cx="1263.6" cy="540.2" r="5" style="fill:#383A48;"/>
			</g>
		</g>
		<g>
			<g>
				<circle cx="1263.6" cy="564.8" r="5" style="fill:#383A48;"/>
			</g>
		</g>
		<g>
			<g>
				<circle cx="1263.6" cy="589.5" r="5" style="fill:#383A48;"/>
			</g>
		</g>
		<g>
			<g>
				<circle cx="1263.6" cy="614.2" r="5" style="fill:#383A48;"/>
			</g>
		</g>
		<g>
			<g>
				<circle cx="1263.6" cy="638.8" r="5" style="fill:#383A48;"/>
			</g>
		</g>
		<g>
			<g>
				<circle cx="1263.6" cy="663.5" r="5" style="fill:#383A48;"/>
			</g>
		</g>
		<g>
			<g>
				<circle cx="1238.9" cy="367.5" r="5" style="fill:#383A48;"/>
			</g>
		</g>
		<g>
			<g>
				<circle cx="1238.9" cy="392.2" r="5" style="fill:#383A48;"/>
			</g>
		</g>
		<g>
			<g>
				<circle cx="1238.9" cy="416.8" r="5" style="fill:#383A48;"/>
			</g>
		</g>
		<g>
			<g>
				<circle cx="1238.9" cy="441.5" r="5" style="fill:#383A48;"/>
			</g>
		</g>
		<g>
			<g>
				<circle cx="1238.9" cy="466.2" r="5" style="fill:#383A48;"/>
			</g>
		</g>
		<g>
			<g>
				<circle cx="1238.9" cy="490.8" r="5" style="fill:#383A48;"/>
			</g>
		</g>
		<g>
			<g>
				<circle cx="1238.9" cy="515.5" r="5" style="fill:#383A48;"/>
			</g>
		</g>
		<g>
			<g>
				<circle cx="1238.9" cy="540.2" r="5" style="fill:#383A48;"/>
			</g>
		</g>
		<g>
			<g>
				<circle cx="1238.9" cy="564.8" r="5" style="fill:#383A48;"/>
			</g>
		</g>
		<g>
			<g>
				<circle cx="1238.9" cy="589.5" r="5" style="fill:#383A48;"/>
			</g>
		</g>
		<g>
			<g>
				<circle cx="1238.9" cy="614.2" r="5" style="fill:#383A48;"/>
			</g>
		</g>
		<g>
			<g>
				<circle cx="1238.9" cy="638.8" r="5" style="fill:#383A48;"/>
			</g>
		</g>
		<g>
			<g>
				<circle cx="1238.9" cy="663.5" r="5" style="fill:#383A48;"/>
			</g>
		</g>
		<g>
			<g>
				<circle cx="1214.3" cy="367.5" r="5" style="fill:#383A48;"/>
			</g>
		</g>
		<g>
			<g>
				<circle cx="1214.3" cy="392.2" r="5" style="fill:#383A48;"/>
			</g>
		</g>
		<g>
			<g>
				<circle cx="1214.3" cy="416.8" r="5" style="fill:#383A48;"/>
			</g>
		</g>
		<g>
			<g>
				<circle cx="1214.3" cy="441.5" r="5" style="fill:#383A48;"/>
			</g>
		</g>
		<g>
			<g>
				<circle cx="1214.3" cy="466.2" r="5" style="fill:#383A48;"/>
			</g>
		</g>
		<g>
			<g>
				<circle cx="1214.3" cy="490.8" r="5" style="fill:#383A48;"/>
			</g>
		</g>
		<g>
			<g>
				<circle cx="1214.3" cy="515.5" r="5" style="fill:#383A48;"/>
			</g>
		</g>
		<g>
			<g>
				<circle cx="1214.3" cy="540.2" r="5" style="fill:#383A48;"/>
			</g>
		</g>
		<g>
			<g>
				<circle cx="1214.3" cy="564.8" r="5" style="fill:#383A48;"/>
			</g>
		</g>
		<g>
			<g>
				<circle cx="1214.3" cy="589.5" r="5" style="fill:#383A48;"/>
			</g>
		</g>
		<g>
			<g>
				<circle cx="1214.3" cy="614.2" r="5" style="fill:#383A48;"/>
			</g>
		</g>
		<g>
			<g>
				<circle cx="1214.3" cy="638.8" r="5" style="fill:#383A48;"/>
			</g>
		</g>
		<g>
			<g>
				<circle cx="1214.3" cy="663.5" r="5" style="fill:#383A48;"/>
			</g>
		</g>
		<g>
			<g>
				<circle cx="1189.6" cy="367.5" r="5" style="fill:#383A48;"/>
			</g>
		</g>
		<g>
			<g>
				<circle cx="1189.6" cy="392.2" r="5" style="fill:#383A48;"/>
			</g>
		</g>
		<g>
			<g>
				<circle cx="1189.6" cy="416.8" r="5" style="fill:#383A48;"/>
			</g>
		</g>
		<g>
			<g>
				<circle cx="1189.6" cy="441.5" r="5" style="fill:#383A48;"/>
			</g>
		</g>
		<g>
			<g>
				<circle cx="1189.6" cy="466.2" r="5" style="fill:#383A48;"/>
			</g>
		</g>
		<g>
			<g>
				<circle cx="1189.6" cy="490.8" r="5" style="fill:#383A48;"/>
			</g>
		</g>
		<g>
			<g>
				<circle cx="1189.6" cy="515.5" r="5" style="fill:#383A48;"/>
			</g>
		</g>
		<g>
			<g>
				<circle cx="1189.6" cy="540.2" r="5" style="fill:#383A48;"/>
			</g>
		</g>
		<g>
			<g>
				<circle cx="1189.6" cy="564.8" r="5" style="fill:#383A48;"/>
			</g>
		</g>
		<g>
			<g>
				<circle cx="1189.6" cy="589.5" r="5" style="fill:#383A48;"/>
			</g>
		</g>
		<g>
			<g>
				<circle cx="1189.6" cy="614.2" r="5" style="fill:#383A48;"/>
			</g>
		</g>
		<g>
			<g>
				<circle cx="1189.6" cy="638.8" r="5" style="fill:#383A48;"/>
			</g>
		</g>
		<g>
			<g>
				<circle cx="1189.6" cy="663.5" r="5" style="fill:#383A48;"/>
			</g>
		</g>
		<g>
			<g>
				<circle cx="1164.9" cy="367.5" r="5" style="fill:#383A48;"/>
			</g>
		</g>
		<g>
			<g>
				<circle cx="1164.9" cy="392.2" r="5" style="fill:#383A48;"/>
			</g>
		</g>
		<g>
			<g>
				<circle cx="1164.9" cy="416.8" r="5" style="fill:#383A48;"/>
			</g>
		</g>
		<g>
			<g>
				<circle cx="1164.9" cy="441.5" r="5" style="fill:#383A48;"/>
			</g>
		</g>
		<g>
			<g>
				<circle cx="1164.9" cy="466.2" r="5" style="fill:#383A48;"/>
			</g>
		</g>
		<g>
			<g>
				<circle cx="1164.9" cy="490.8" r="5" style="fill:#383A48;"/>
			</g>
		</g>
		<g>
			<g>
				<circle cx="1164.9" cy="515.5" r="5" style="fill:#383A48;"/>
			</g>
		</g>
		<g>
			<g>
				<circle cx="1164.9" cy="540.2" r="5" style="fill:#383A48;"/>
			</g>
		</g>
		<g>
			<g>
				<circle cx="1164.9" cy="564.8" r="5" style="fill:#383A48;"/>
			</g>
		</g>
		<g>
			<g>
				<circle cx="1164.9" cy="589.5" r="5" style="fill:#383A48;"/>
			</g>
		</g>
		<g>
			<g>
				<circle cx="1164.9" cy="614.2" r="5" style="fill:#383A48;"/>
			</g>
		</g>
		<g>
			<g>
				<circle cx="1164.9" cy="638.8" r="5" style="fill:#383A48;"/>
			</g>
		</g>
		<g>
			<g>
				<circle cx="1164.9" cy="663.5" r="5" style="fill:#383A48;"/>
			</g>
		</g>
		<g>
			<g>
				<circle cx="1140.3" cy="367.5" r="5" style="fill:#383A48;"/>
			</g>
		</g>
		<g>
			<g>
				<circle cx="1140.3" cy="392.2" r="5" style="fill:#383A48;"/>
			</g>
		</g>
		<g>
			<g>
				<circle cx="1140.3" cy="416.8" r="5" style="fill:#383A48;"/>
			</g>
		</g>
		<g>
			<g>
				<circle cx="1140.3" cy="441.5" r="5" style="fill:#383A48;"/>
			</g>
		</g>
		<g>
			<g>
				<circle cx="1140.3" cy="466.2" r="5" style="fill:#383A48;"/>
			</g>
		</g>
		<g>
			<g>
				<circle cx="1140.3" cy="490.8" r="5" style="fill:#383A48;"/>
			</g>
		</g>
		<g>
			<g>
				<circle cx="1140.3" cy="515.5" r="5" style="fill:#383A48;"/>
			</g>
		</g>
		<g>
			<g>
				<circle cx="1140.3" cy="540.2" r="5" style="fill:#383A48;"/>
			</g>
		</g>
		<g>
			<g>
				<circle cx="1140.3" cy="564.8" r="5" style="fill:#383A48;"/>
			</g>
		</g>
		<g>
			<g>
				<circle cx="1140.3" cy="589.5" r="5" style="fill:#383A48;"/>
			</g>
		</g>
		<g>
			<g>
				<circle cx="1140.3" cy="614.2" r="5" style="fill:#383A48;"/>
			</g>
		</g>
		<g>
			<g>
				<circle cx="1140.3" cy="638.8" r="5" style="fill:#383A48;"/>
			</g>
		</g>
		<g>
			<g>
				<circle cx="1140.3" cy="663.5" r="5" style="fill:#383A48;"/>
			</g>
		</g>
		<g>
			<g>
				<circle cx="1115.6" cy="367.5" r="5" style="fill:#383A48;"/>
			</g>
		</g>
		<g>
			<g>
				<circle cx="1115.6" cy="392.2" r="5" style="fill:#383A48;"/>
			</g>
		</g>
		<g>
			<g>
				<circle cx="1115.6" cy="416.8" r="5" style="fill:#383A48;"/>
			</g>
		</g>
		<g>
			<g>
				<circle cx="1115.6" cy="441.5" r="5" style="fill:#383A48;"/>
			</g>
		</g>
		<g>
			<g>
				<circle cx="1115.6" cy="466.2" r="5" style="fill:#383A48;"/>
			</g>
		</g>
		<g>
			<g>
				<circle cx="1115.6" cy="490.8" r="5" style="fill:#383A48;"/>
			</g>
		</g>
		<g>
			<g>
				<circle cx="1115.6" cy="515.5" r="5" style="fill:#383A48;"/>
			</g>
		</g>
		<g>
			<g>
				<circle cx="1115.6" cy="540.2" r="5" style="fill:#383A48;"/>
			</g>
		</g>
		<g>
			<g>
				<circle cx="1115.6" cy="564.8" r="5" style="fill:#383A48;"/>
			</g>
		</g>
		<g>
			<g>
				<circle cx="1115.6" cy="589.5" r="5" style="fill:#383A48;"/>
			</g>
		</g>
		<g>
			<g>
				<circle cx="1115.6" cy="614.2" r="5" style="fill:#383A48;"/>
			</g>
		</g>
		<g>
			<g>
				<circle cx="1115.6" cy="638.8" r="5" style="fill:#383A48;"/>
			</g>
		</g>
		<g>
			<g>
				<circle cx="1090.9" cy="367.5" r="5" style="fill:#383A48;"/>
			</g>
		</g>
		<g>
			<g>
				<circle cx="1090.9" cy="392.2" r="5" style="fill:#383A48;"/>
			</g>
		</g>
		<g>
			<g>
				<circle cx="1090.9" cy="416.8" r="5" style="fill:#383A48;"/>
			</g>
		</g>
		<g>
			<g>
				<circle cx="1090.9" cy="441.5" r="5" style="fill:#383A48;"/>
			</g>
		</g>
		<g>
			<g>
				<circle cx="1090.9" cy="466.2" r="5" style="fill:#383A48;"/>
			</g>
		</g>
		<g>
			<g>
				<circle cx="1090.9" cy="490.8" r="5" style="fill:#383A48;"/>
			</g>
		</g>
		<g>
			<g>
				<circle cx="1090.9" cy="515.5" r="5" style="fill:#383A48;"/>
			</g>
		</g>
		<g>
			<g>
				<circle cx="1090.9" cy="540.2" r="5" style="fill:#383A48;"/>
			</g>
		</g>
		<g>
			<g>
				<circle cx="1090.9" cy="564.8" r="5" style="fill:#383A48;"/>
			</g>
		</g>
		<g>
			<g>
				<circle cx="1090.9" cy="589.5" r="5" style="fill:#383A48;"/>
			</g>
		</g>
		<g>
			<g>
				<circle cx="1090.9" cy="614.2" r="5" style="fill:#383A48;"/>
			</g>
		</g>
		<g>
			<g>
				<circle cx="1090.9" cy="638.8" r="5" style="fill:#383A48;"/>
			</g>
		</g>
		<g>
			<g>
				<circle cx="1066.3" cy="392.2" r="5" style="fill:#383A48;"/>
			</g>
		</g>
		<g>
			<g>
				<circle cx="1066.3" cy="416.8" r="5" style="fill:#383A48;"/>
			</g>
		</g>
		<g>
			<g>
				<circle cx="1066.3" cy="441.5" r="5" style="fill:#383A48;"/>
			</g>
		</g>
		<g>
			<g>
				<circle cx="1066.3" cy="466.2" r="5" style="fill:#383A48;"/>
			</g>
		</g>
		<g>
			<g>
				<circle cx="1066.3" cy="490.8" r="5" style="fill:#383A48;"/>
			</g>
		</g>
		<g>
			<g>
				<circle cx="1066.3" cy="515.5" r="5" style="fill:#383A48;"/>
			</g>
		</g>
		<g>
			<g>
				<circle cx="1066.3" cy="540.2" r="5" style="fill:#383A48;"/>
			</g>
		</g>
		<g>
			<g>
				<circle cx="1066.3" cy="564.8" r="5" style="fill:#383A48;"/>
			</g>
		</g>
		<g>
			<g>
				<circle cx="1066.3" cy="589.5" r="5" style="fill:#383A48;"/>
			</g>
		</g>
		<g>
			<g>
				<circle cx="1066.3" cy="614.2" r="5" style="fill:#383A48;"/>
			</g>
		</g>
		<g>
			<g>
				<circle cx="1041.6" cy="441.5" r="5" style="fill:#383A48;"/>
			</g>
		</g>
		<g>
			<g>
				<circle cx="1041.6" cy="466.2" r="5" style="fill:#383A48;"/>
			</g>
		</g>
		<g>
			<g>
				<circle cx="1041.6" cy="490.8" r="5" style="fill:#383A48;"/>
			</g>
		</g>
		<g>
			<g>
				<circle cx="1041.6" cy="515.5" r="5" style="fill:#383A48;"/>
			</g>
		</g>
		<g>
			<g>
				<circle cx="1041.6" cy="540.2" r="5" style="fill:#383A48;"/>
			</g>
		</g>
		<g>
			<g>
				<circle cx="1041.6" cy="564.8" r="5" style="fill:#383A48;"/>
			</g>
		</g>
	</g>
	<path d="M1290.1,924.7c-19.4-22.5-43.5-43.6-71.5-62.7c-34.8-23.7-75.9-44.4-122.3-61.6
		c-39.6-14.7-71.5-38.2-97.3-71.9c-24.9-32.4-42.7-72-58.2-109.9c-11.4-27.9-30.5-50.1-55.1-64.1c-22.7-12.9-48.9-18.3-75.7-15.7
		c-58.2,5.7-103.1,47.1-114.5,105.5c-4.6,23.4-10.9,45.7-19.3,68.3c-24.5,65.9-102.5,119.6-163.6,153
		c-66.7,36.5-128.4,57.4-129,57.6c-2.3,0.8-3.7,3.1-3.3,5.5c0.4,2.4,2.5,4.2,4.9,4.2h901.1c2,0,3.7-1.1,4.5-2.9
		C1291.7,928.2,1291.4,926.2,1290.1,924.7z" style="fill:#F3F6E6;"/>
	<path d="M1653.9,147.4h-568c-2.2,0-4.1,1.4-4.7,3.4c-0.7,2,0,4.3,1.7,5.6c85.1,64,126.5,140.9,155.7,207.8
		c8.8,20.2,16.9,40.3,24.6,59.7c17.6,44,34.2,85.5,57.1,120.9c25.9,40,56.4,67,96.1,84.8c5.4,2.4,11.2,4.8,17.2,6.9
		c53.7,19.3,128.3,54.3,178.4,111.1c29.9,33.9,36.9,59.9,37,60.2c0.6,2.2,2.6,3.8,4.8,3.8c0.2,0,0.4,0,0.6,0c2.5-0.3,4.4-2.4,4.4-5
		V152.4C1658.9,149.6,1656.6,147.4,1653.9,147.4z" style="fill:#F3F6E6;"/>
	<path d="M1421.1,380.6c-35-35-81.5-54.3-131.1-54.3c-19.9,0-39.5,3.1-58.2,9.3c-1.3,0.4-2.4,1.4-3,2.7
		c-0.6,1.3-0.6,2.8,0,4c9.7,22.2,18.6,44.3,27.1,65.7c19.3,48.4,36.2,95.5,61.4,134.5c28.5,44,63.4,72.1,106.9,91.6
		c0.7,0.3,1.4,0.4,2,0.4c1.4,0,2.8-0.6,3.8-1.7c29.2-33.6,45.2-76.7,45.2-121.3C1475.3,462.1,1456.1,415.6,1421.1,380.6z" style="fill:#383A48;"/>
	<g>
		<g>
			<line x1="1474.6" y1="830.6" x2="1507.5" y2="830.6" style="fill:none;"/>
			<rect x="1474.6" y="825.6" width="33" height="10" style="fill:#383A48;"/>
		</g>
		<g>
			<line x1="1491.1" y1="847.1" x2="1491.1" y2="814.1" style="fill:none;"/>
			<rect x="1486.1" y="814.1" width="10" height="33" style="fill:#383A48;"/>
		</g>
	</g>
	<g>
		<g>
			<line x1="610.9" y1="251.1" x2="643.8" y2="251.1" style="fill:none;"/>
			<rect x="610.9" y="246.1" width="33" height="10" style="fill:#383A48;"/>
		</g>
		<g>
			<line x1="627.4" y1="267.5" x2="627.4" y2="234.6" style="fill:none;"/>
			<rect x="622.4" y="234.6" width="10" height="33" style="fill:#383A48;"/>
		</g>
	</g>
	<g>
		<g>
			<polygon points="385.2,404.1 440.6,404.1 440.6,493.2 426.8,517.3 426.8,538.8 522.6,538.8 536.4,552.7 555.6,588.3 
				564.1,621.7 550.3,649.3 536.4,678.6 522.6,707.2 505.1,726.8 495.7,760.8 468.3,774.7 357.5,774.7 333.7,760.4 302.2,746.5 
				229.2,746.5 229.2,566.5 274.5,552.7 302.2,525 329.9,497.3 357.5,469.6 371.4,436.9 			" style="fill:#FFFFFF;"/>
		</g>
		<g>
			<g>
				<polygon points="274.5,552.7 215.3,552.7 215.3,560.7 215.3,580.4 215.3,732.7 215.3,737.8 215.3,760.4 
					333.7,760.4 333.7,732.7 243,732.7 243,580.4 274.5,580.4 274.5,552.7 302.2,552.7 302.2,525 274.5,525 				" style="fill:#4053FA;"/>
			</g>
			<g>
				<polygon points="440.6,525 440.6,493.2 412.9,493.2 412.9,525 412.9,525 412.9,552.7 536.4,552.7 536.4,525 				" style="fill:#4053FA;"/>
			</g>
			<g>
				<rect x="302.2" y="497.3" width="27.7" height="27.7" style="fill:#4053FA;"/>
			</g>
			<g>
				<rect x="329.9" y="469.6" width="27.7" height="27.7" style="fill:#4053FA;"/>
			</g>
			<g>
				<polygon points="412.9,376.4 385.2,376.4 385.2,404.1 412.9,404.1 440.6,404.1 440.6,376.4 				" style="fill:#4053FA;"/>
			</g>
			<g>
				<rect x="357.5" y="404.1" width="27.7" height="65.5" style="fill:#4053FA;"/>
			</g>
			<g>
				<polygon points="522.6,649.7 444.4,650.9 444.4,678.6 522.6,677.4 522.6,707.2 495.7,707.2 495.7,707.2 
					430.8,707.2 430.8,734.9 495.7,734.9 495.7,760.4 333.7,760.4 333.7,789 495.7,789 495.7,760.8 523.4,760.8 523.4,760.4 
					523.4,707.2 550.3,707.2 550.3,677 550.3,649.3 522.6,649.3 				" style="fill:#4053FA;"/>
			</g>
			<g>
				<polygon points="564.1,594.1 564.1,552.7 536.4,552.7 536.4,588.3 454.5,588.3 454.5,616 550.3,616 550.3,649.3 
					578,649.3 578,594.1 				" style="fill:#4053FA;"/>
			</g>
			<g>
				<rect x="440.6" y="404.1" width="27.7" height="89" style="fill:#4053FA;"/>
			</g>
		</g>
	</g>
	<g>
		<g>
			<path d="M904,360.1L904,360.1c-57.4,0-104-46.6-104-104l0,0c0-57.4,46.6-104,104-104l0,0c57.4,0,104,46.6,104,104
				l0,0C1008,313.5,961.5,360.1,904,360.1z" style="fill:#F6E049;"/>
			<path d="M904,365.1c-60.1,0-109-48.9-109-109s48.9-109,109-109s109,48.9,109,109S964.1,365.1,904,365.1z M904,157.1
				c-54.6,0-99,44.4-99,99s44.4,99,99,99l0,0c54.6,0,99-44.4,99-99S958.6,157.1,904,157.1z" style="fill:#383A48;"/>
		</g>
		<g>
			<polyline points="868.6,240.9 902.6,288.3 948.6,231.3 			" style="fill:#F6E049;"/>
			<path d="M902.6,293.3L902.6,293.3c-1.7,0-3.1-0.8-4-2.1l-34-47.4c-1.6-2.2-1.1-5.4,1.1-7c2.2-1.6,5.4-1.1,7,1.1
				l30.1,42l41.9-51.8c1.7-2.1,4.9-2.5,7-0.7c2.1,1.7,2.5,4.9,0.7,7l-46.1,56.9C905.5,292.6,904.1,293.3,902.6,293.3z" style="fill:#383A48;"/>
		</g>
	</g>
	<g>
		<path d="M763.2,348.1c-16.9-16.9-44.3-16.9-61.2,0l-79.1,79.1c-16.9,16.9-16.9,44.3,0,61.2
			c8.4,8.4,19.5,12.7,30.6,12.7s22.2-4.2,30.6-12.7l79.1-79.1c8.2-8.2,12.7-19,12.7-30.6C775.9,367.2,771.4,356.3,763.2,348.1z" style="fill:#383A48;"/>
		<g>
			<g>
				<circle cx="734.9" cy="376.4" r="38.3" style="fill:#7FD6C2;"/>
			</g>
			<g>
				<path d="M734.9,419.7c-11.1,0-22.2-4.2-30.6-12.7c-16.9-16.9-16.9-44.3,0-61.2l0,0c16.9-16.9,44.3-16.9,61.2,0
					s16.9,44.3,0,61.2C757,415.5,746,419.7,734.9,419.7z M711.4,352.9c-13,13-13,34.1,0,47.1s34.1,13,47.1,0s13-34.1,0-47.1
					S724.3,339.9,711.4,352.9L711.4,352.9z" style="fill:#383A48;"/>
			</g>
		</g>
	</g>
	<g>
		<path d="M834.9,874c-8.6,0-16.8-4.3-21.6-12c-5.1-8.1-10.5-26.7,8.1-61.8c-11.4-12.7-25.6-25.9-41.6-37.9
			c-45.1-34-94.6-53.5-135.9-53.5c-2.8,0-5-2.2-5-5s2.2-5,5-5c43.4,0,95.2,20.2,142,55.5c15.5,11.7,29.3,24.3,40.7,36.7
			c12.3-20.5,32.3-46.1,63.9-77.6c2-2,5.1-2,7.1,0s2,5.1,0,7.1c-31.3,31.3-51.7,57.4-64,78.5c14.7,17.6,24,34.4,25.5,47.5
			c1.4,11.9-4.7,22.1-15.5,26C840.7,873.5,837.8,874,834.9,874z M828.4,808.4c-11.6,23.1-12.3,39.1-6.6,48.2
			c4.6,7.3,12.8,8.4,18.5,6.4c6.4-2.3,9.7-8,8.9-15.3C847.9,837.1,840.3,823.3,828.4,808.4z" style="fill:#383A48;"/>
	</g>
	<g>
		<path d="M1603.1,446.1c-1.3,0-2.6-0.5-3.5-1.5c-2-2-2-5.1,0-7.1l101.6-101.6c2-2,5.1-2,7.1,0s2,5.1,0,7.1
			l-101.6,101.6C1605.6,445.6,1604.4,446.1,1603.1,446.1z" style="fill:#383A48;"/>
	</g>
	<path d="M1653.9,147.4h-99.7c-2.8,0-5,2.2-5,5c0,57.8,47,104.7,104.7,104.7c2.8,0,5-2.2,5-5v-99.7
		C1658.9,149.6,1656.6,147.4,1653.9,147.4z" style="fill:#4053FA;"/>
	<g>
		<g>
			<path d="M1282.1,597.5L1282.1,597.5c-99.6,0-180.3-80.7-180.3-180.3l0,0c0-99.6,80.7-180.3,180.3-180.3l0,0
				c99.6,0,180.3,80.7,180.3,180.3l0,0C1462.4,516.7,1381.7,597.5,1282.1,597.5z" style="fill:#F6E049;"/>
			<path d="M1282.1,602.5c-102.2,0-185.3-83.1-185.3-185.3s83.1-185.3,185.3-185.3s185.3,83.1,185.3,185.3
				C1467.4,519.3,1384.3,602.5,1282.1,602.5z M1282.1,241.8c-96.7,0-175.3,78.7-175.3,175.3s78.7,175.3,175.3,175.3l0,0
				c96.7,0,175.3-78.7,175.3-175.3S1378.8,241.8,1282.1,241.8z" style="fill:#383A48;"/>
		</g>
		<g>
			<polyline points="1220.6,390.9 1279.5,473 1359.4,374.2 			" style="fill:#F6E049;"/>
			<path d="M1279.5,483c-0.1,0-0.2,0-0.3,0c-3.1-0.1-6-1.6-7.8-4.2l-58.9-82.1c-3.2-4.5-2.2-10.7,2.3-14
				c4.5-3.2,10.7-2.2,14,2.3l51.2,71.4l71.6-88.5c3.5-4.3,9.8-5,14.1-1.5c4.3,3.5,5,9.8,1.5,14.1l-79.9,98.7
				C1285.4,481.6,1282.5,483,1279.5,483z" style="fill:#383A48;"/>
		</g>
	</g>
</g>
</svg>
