<?xml version="1.0" encoding="utf-8"?>
<!-- Generator: Adobe Illustrator 22.0.1, SVG Export Plug-In . SVG Version: 6.00 Build 0)  -->
<svg version="1.1" id="Layer_1" xmlns="http://www.w3.org/2000/svg" xmlns:xlink="http://www.w3.org/1999/xlink" x="0px" y="0px" viewBox="0 0 1920 1080" style="enable-background:new 0 0 1920 1080;" xml:space="preserve">

<rect y="0" width="1920" height="1080" style="fill:#AAC6FC;"/>
<g>
	<path d="M688.5,172.2c-0.4-2.5-2.5-4.3-4.9-4.3h-422c-2.8,0-5,2.2-5,5v506.2c0,2.5,1.8,4.6,4.3,5c0.2,0,0.5,0,0.7,0
		c2.2,0,4.2-1.5,4.8-3.6c0.1-0.5,13.6-47.8,43.2-102.1c17.3-31.8,36.7-59.7,57.5-83c25.9-29,54.3-50.8,84.2-64.8
		c63.2-29.7,81.6-75.8,99.4-120.4c10.3-25.7,20.9-52.4,40.2-75.4c32.2-38.3,32.2-38.3,94-57.1C687.4,177,688.9,174.6,688.5,172.2z" style="fill:#F3F6E6;"/>
	<path d="M1627,354.1h-404.3H953.1H548.8c-2.8,0-5,2.2-5,5v543c0,2.8,2.2,5,5,5h34.7h369.6h34.7H1188h34.7h369.6h34.7
		c2.8,0,5-2.2,5-5v-543C1632,356.4,1629.8,354.1,1627,354.1z M1352.5,364.1v128.6h-124.8V364.1H1352.5z M1622,627.5h-124.8V502.8
		h95.1h29.7L1622,627.5L1622,627.5z M1622,762.3h-124.8V637.5H1622V762.3z M1352.5,627.5h-124.8V502.8h124.8V627.5z M1227.7,637.5
		h124.8v124.8h-124.8V637.5z M948.1,637.5v124.8H823.4V637.5H948.1z M948.1,627.5H823.4V502.8h124.8v124.7H948.1z M958.1,637.5
		h124.8v124.8H958.1V637.5z M1092.9,637.5h124.8v124.8h-124.8V637.5z M1487.3,627.5h-124.8V502.8h124.8V627.5z M1217.7,627.5h-124.8
		V502.8h95.1h29.7L1217.7,627.5L1217.7,627.5z M1082.9,627.5H958.1V502.8h29.7h95.1V627.5z M813.4,502.8v124.8H688.6V502.8H813.4z
		 M688.6,637.5h124.8v124.8H688.6V637.5z M813.4,772.3v124.8H688.6V772.3H813.4z M823.4,772.3h124.8v124.8H823.4V772.3z
		 M1227.7,772.3h124.8v124.8h-124.8V772.3z M1362.5,772.3h124.8v124.8h-124.8V772.3z M1362.5,762.3V637.5h124.8v124.8H1362.5z
		 M1487.3,492.8h-124.8V364.1h124.8V492.8z M1082.9,492.8h-95.1h-29.7V364.1h124.8V492.8z M948.1,492.8H823.4V364.1h124.8v128.7
		H948.1z M813.4,492.8H688.6V364.1h124.8L813.4,492.8L813.4,492.8z M583.5,502.8h95.1v124.8H553.8V502.8H583.5z M678.6,637.5v124.8
		H553.8V637.5H678.6z M958.1,772.3h124.8v124.8h-95.1h-29.7L958.1,772.3L958.1,772.3z M1092.9,772.3h124.8v124.8H1188h-95.1V772.3z
		 M1622,492.8h-29.7h-95.1V364.1H1622V492.8z M1217.7,492.8H1188h-95.1V364.1h124.8L1217.7,492.8L1217.7,492.8z M678.6,364.1v128.6
		h-95.1h-29.7V364.1H678.6z M553.8,897.1V772.3h124.8v124.8h-95.1H553.8z M1592.3,897.1h-95.1V772.3H1622v124.8H1592.3z" style="fill:#F3F6E6;"/>
	<g>
		<path d="M1018.1,233.9c-8.4,0-16.7-3.2-23.1-9.6l-14.5-14.4c-8.9-8.9-23.3-8.8-32.1,0l-15.9,15.9c-2,2-5.1,2-7.1,0
			s-2-5.1,0-7.1l15.9-15.9c12.8-12.8,33.5-12.8,46.3,0l14.5,14.4c8.9,8.9,23.3,8.8,32.1,0l14.4-14.5c12.8-12.8,33.5-12.8,46.3,0
			l14.5,14.4c4.3,4.3,10,6.6,16.1,6.6l0,0c6.1,0,11.8-2.4,16.1-6.7l14.4-14.5c6.2-6.2,14.4-9.6,23.1-9.6l0,0
			c8.7,0,16.9,3.4,23.1,9.6l14.6,14.5c2,2,2,5.1,0,7.1s-5.1,2-7.1,0l-14.6-14.5c-4.3-4.3-10-6.6-16.1-6.6l0,0
			c-6.1,0-11.8,2.4-16.1,6.7l-14.4,14.5c-6.2,6.2-14.4,9.6-23.1,9.6l0,0c-8.7,0-16.9-3.4-23.1-9.6l-14.5-14.4
			c-8.9-8.9-23.3-8.8-32.1,0l-14.4,14.5C1034.8,230.7,1026.4,233.9,1018.1,233.9z" style="fill:#F6E049;"/>
	</g>
	<path d="M843.6,465c-42.7-42.7-99.6-66.3-160-66.3c-50.2,0-97.8,16.1-137.5,46.6c-1.2,0.9-2,2.4-2,4v351.4
		c0,1.6,0.7,3,2,4c39.8,30.5,87.3,46.6,137.5,46.6c60.4,0,117.3-23.5,160-66.3c42.7-42.7,66.3-99.5,66.3-160
		C909.8,564.6,886.3,507.8,843.6,465z" style="fill:#383A48;"/>
	<g>
		<g>
			<path d="M817.1,715.2L817.1,715.2c-86.3,86.3-226.2,86.3-312.5,0l-81.9-81.9c-86.3-86.3-86.3-226.2,0-312.5l0,0
				c86.3-86.3,226.2-86.3,312.5,0l81.9,81.9C903.4,489,903.4,628.9,817.1,715.2z" style="fill:#AAC6FC;"/>
			<path d="M660.9,784.9c-60.4,0-117.1-23.5-159.8-66.2l-81.9-81.9C376.5,594.1,353,537.4,353,477
				s23.5-117.1,66.2-159.8S518.6,251,579,251c60.4,0,117.1,23.5,159.8,66.2l81.9,81.9c42.7,42.7,66.2,99.4,66.2,159.8
				S863.4,676,820.7,718.7C778,761.4,721.2,784.9,660.9,784.9z M579,261.1c-57.7,0-111.9,22.5-152.7,63.3s-63.3,95-63.3,152.7
				s22.5,111.9,63.3,152.7l81.9,81.9c40.8,40.8,95,63.3,152.7,63.3s111.9-22.5,152.7-63.3l0,0c40.8-40.8,63.3-95,63.3-152.7
				s-22.5-111.9-63.3-152.7l-81.9-81.9C690.9,283.6,636.7,261.1,579,261.1z" style="fill:#383A48;"/>
		</g>
		<g>
			<g>
				<g>
					<circle cx="838.6" cy="438.1" r="5" style="fill:#383A48;"/>
				</g>
			</g>
			<g>
				<g>
					<circle cx="838.6" cy="482.1" r="5" style="fill:#383A48;"/>
				</g>
			</g>
			<g>
				<g>
					<circle cx="838.6" cy="526.1" r="5" style="fill:#383A48;"/>
				</g>
			</g>
			<g>
				<g>
					<circle cx="838.6" cy="570.1" r="5" style="fill:#383A48;"/>
				</g>
			</g>
			<g>
				<g>
					<circle cx="838.6" cy="614.1" r="5" style="fill:#383A48;"/>
				</g>
			</g>
			<g>
				<g>
					<circle cx="838.6" cy="658.1" r="5" style="fill:#383A48;"/>
				</g>
			</g>
			<g>
				<g>
					<circle cx="797.6" cy="396.1" r="5" style="fill:#383A48;"/>
				</g>
			</g>
			<g>
				<g>
					<circle cx="794.6" cy="438.1" r="5" style="fill:#383A48;"/>
				</g>
			</g>
			<g>
				<g>
					<circle cx="794.6" cy="482.1" r="5" style="fill:#383A48;"/>
				</g>
			</g>
			<g>
				<g>
					<circle cx="794.6" cy="526.1" r="5" style="fill:#383A48;"/>
				</g>
			</g>
			<g>
				<g>
					<circle cx="794.6" cy="570.1" r="5" style="fill:#383A48;"/>
				</g>
			</g>
			<g>
				<g>
					<circle cx="794.6" cy="614.1" r="5" style="fill:#383A48;"/>
				</g>
			</g>
			<g>
				<g>
					<circle cx="794.6" cy="658.1" r="5" style="fill:#383A48;"/>
				</g>
			</g>
			<g>
				<g>
					<circle cx="794.6" cy="702.1" r="5" style="fill:#383A48;"/>
				</g>
			</g>
			<g>
				<g>
					<circle cx="750.6" cy="614.1" r="5" style="fill:#383A48;"/>
				</g>
			</g>
			<g>
				<g>
					<circle cx="750.6" cy="658.1" r="5" style="fill:#383A48;"/>
				</g>
			</g>
			<g>
				<g>
					<circle cx="750.6" cy="702.1" r="5" style="fill:#383A48;"/>
				</g>
			</g>
			<g>
				<g>
					<circle cx="750.6" cy="746.1" r="5" style="fill:#383A48;"/>
				</g>
			</g>
			<g>
				<g>
					<circle cx="706.6" cy="658.1" r="5" style="fill:#383A48;"/>
				</g>
			</g>
			<g>
				<g>
					<circle cx="706.6" cy="702.1" r="5" style="fill:#383A48;"/>
				</g>
			</g>
			<g>
				<g>
					<circle cx="706.6" cy="746.1" r="5" style="fill:#383A48;"/>
				</g>
			</g>
			<g>
				<g>
					<circle cx="662.6" cy="702.1" r="5" style="fill:#383A48;"/>
				</g>
			</g>
			<g>
				<g>
					<circle cx="662.6" cy="746.1" r="5" style="fill:#383A48;"/>
				</g>
			</g>
			<g>
				<g>
					<circle cx="618.6" cy="702.1" r="5" style="fill:#383A48;"/>
				</g>
			</g>
			<g>
				<g>
					<circle cx="618.6" cy="746.1" r="5" style="fill:#383A48;"/>
				</g>
			</g>
			<g>
				<g>
					<circle cx="574.6" cy="702.1" r="5" style="fill:#383A48;"/>
				</g>
			</g>
			<g>
				<g>
					<circle cx="574.6" cy="746.1" r="5" style="fill:#383A48;"/>
				</g>
			</g>
			<g>
				<g>
					<circle cx="530.6" cy="702.1" r="5" style="fill:#383A48;"/>
				</g>
			</g>
		</g>
	</g>
	<g>
		<g>
			<circle cx="583.5" cy="475.1" r="221.3" style="fill:#E0719E;"/>
			<path d="M583.5,701.4c-60.4,0-117.3-23.5-160-66.3c-42.7-42.7-66.3-99.6-66.3-160s23.5-117.3,66.3-160
				s99.6-66.3,160-66.3s117.3,23.5,160,66.3s66.3,99.6,66.3,160s-23.5,117.3-66.3,160S643.9,701.4,583.5,701.4z M583.5,258.9
				c-57.8,0-112.1,22.5-152.9,63.3s-63.3,95.2-63.3,152.9s22.5,112.1,63.3,152.9s95.2,63.3,152.9,63.3s112.1-22.5,152.9-63.3
				s63.3-95.2,63.3-152.9S777.3,363,736.4,322.2C695.6,281.3,641.3,258.9,583.5,258.9z" style="fill:#383A48;"/>
		</g>
		<g>
			<path d="M642.5,354.1c47.1,22.9,78.5,72.4,75.6,128c-3.9,74.2-67.1,131.2-141.3,127.3s-131.2-67.1-127.3-141.3
				c2.6-50.6,32.9-93.2,75.5-114" style="fill:#E0719E;"/>
			<path d="M583.9,614.6c-2.5,0-5-0.1-7.4-0.2c-37.2-1.9-71.4-18.3-96.4-45.9s-37.6-63.4-35.7-100.6
				c2.6-50.7,32.6-96,78.3-118.2l4.4,9c-42.4,20.7-70.2,62.7-72.7,109.7c-1.8,34.5,10,67.7,33.1,93.4s54.9,40.8,89.5,42.7
				c34.5,1.8,67.7-10,93.4-33.1c25.7-23.2,40.8-54.9,42.7-89.5c2.7-52.1-25.8-100.5-72.8-123.3l4.4-9
				c50.5,24.6,81.3,76.7,78.4,132.8c-1.9,37.2-18.3,71.4-45.9,96.4C651.3,602,618.5,614.6,583.9,614.6z" style="fill:#383A48;"/>
		</g>
		<g>
			<rect x="578.8" y="304.2" width="10" height="171" style="fill:#383A48;"/>
		</g>
	</g>
	<path d="M1628.6,167.9c-135.5,0-157.3,86.3-176.6,162.4c-2.8,10.9-5.4,21.2-8.3,31.3c-23.4,81-61,119.9-154.8,159.9
		c-54.5,23.3-121,71.3-177.9,128.6c-51,51.3-120.5,136.4-162.6,250.3c-0.6,1.5-0.3,3.2,0.6,4.6c0.9,1.3,2.5,2.1,4.1,2.1h675.4
		c2.8,0,5-2.2,5-5V172.9C1633.6,170.1,1631.3,167.9,1628.6,167.9z" style="fill:#F3F6E6;"/>
	<g>
		<polygon points="1658.4,613.9 1370.4,445 1462.6,765.8 1515.3,690.4 1599.9,801.2 1652.2,760.6 1568,650.2 		" style="fill:#F3F6E6;"/>
		<path d="M1599.9,806.2c-0.2,0-0.4,0-0.6,0c-1.3-0.2-2.5-0.9-3.3-1.9l-80.4-105.4l-48.8,69.9c-1.1,1.6-3,2.4-4.9,2.1
			c-1.9-0.3-3.5-1.7-4-3.6l-92.2-320.8c-0.6-2,0.1-4.1,1.7-5.3c1.6-1.3,3.8-1.4,5.6-0.4l287.9,168.9c1.6,1,2.6,2.8,2.5,4.7
			s-1.4,3.6-3.1,4.3l-84.3,33.9l80.2,105.1c1.7,2.2,1.3,5.3-0.9,7l-52.3,40.6C1602.1,805.8,1601,806.2,1599.9,806.2z M1515.3,685.4
			c1.6,0,3,0.7,4,2l81.5,106.8l44.4-34.5L1564,653.3c-0.9-1.2-1.3-2.9-0.8-4.4c0.4-1.5,1.5-2.7,3-3.3l80.9-32.5l-268.3-157.4
			l85.8,298.7l46.7-66.9C1512.2,686.2,1513.7,685.4,1515.3,685.4L1515.3,685.4z" style="fill:#383A48;"/>
	</g>
	<g>
		<polygon points="415.1,907.1 261.6,907.1 261.6,750.6 		" style="fill:#F6E049;"/>
		<path d="M415.1,912.1H261.6c-2.8,0-5-2.2-5-5V750.6c0-2,1.2-3.9,3.1-4.6c1.9-0.8,4-0.3,5.5,1.1l153.4,156.5
			c1.4,1.4,1.8,3.6,1,5.4C418.9,910.9,417.1,912.1,415.1,912.1z M266.6,902.1h136.5L266.6,762.8V902.1z" style="fill:#383A48;"/>
	</g>
	<g>
		<path d="M1216.8,695.4c-33.3,0-65.6-8.9-92.9-26c-26.8-16.8-47.1-40.1-58.6-67.4c-4.6-10.9-7.6-22.1-9.2-33.5
			c-19,9.8-39,14-56.8,11.8c-27.7-3.3-63.2-23-75.4-97.7l9.9-1.6c8.8,54.3,31.9,85.2,66.7,89.4c14.3,1.7,35.9-3,54.6-12.8
			c-0.7-15.3,1.3-30.8,6-46c3.5-11.4,11-19.2,20-20.9c6.8-1.3,13.4,1.1,17.7,6.4c5.9,7.2,6.3,18.3,1.2,30.4
			c-5.1,12-18.1,25.4-34.4,35.7c1.2,12,4.1,23.7,8.9,35c10.7,25.4,29.6,47.1,54.7,62.8c31.6,19.7,70.4,27.9,109.5,23.1
			c44.7-5.5,89-27.9,128.2-64.6l6.8,7.3c-40.7,38.2-87,61.4-133.8,67.2C1232.3,694.9,1224.5,695.4,1216.8,695.4z M1084.8,500.4
			c-0.6,0-1.2,0.1-1.7,0.2c-5.3,1-9.9,6.3-12.3,14.1c-3.8,12.4-5.7,24.9-5.7,37.3c11.5-7.5,21-17.1,25.7-28.3
			c3.6-8.5,3.7-16,0.3-20.2C1089.5,501.4,1087.3,500.4,1084.8,500.4z" style="fill:#383A48;"/>
	</g>
	
		<ellipse transform="matrix(0.3827 -0.9239 0.9239 0.3827 318.9286 904.4196)" cx="836.2" cy="213.6" rx="22.8" ry="22.8" style="fill:#F3F6E6;"/>
	<path d="M1254.4,771.2c-12.6,0-22.8,10.2-22.8,22.8s10.2,22.8,22.8,22.8c12.6,0,22.8-10.2,22.8-22.8
		C1277.2,781.4,1267,771.2,1254.4,771.2z" style="fill:#383A48;"/>
	<g>
		<polygon points="1448.5,353 1448.5,172.9 1628.6,172.9 		" style="fill:#F6E049;"/>
		<path d="M1448.5,358c-0.6,0-1.3-0.1-1.9-0.4c-1.9-0.8-3.1-2.6-3.1-4.6V172.9c0-2.8,2.2-5,5-5h180.1
			c2,0,3.8,1.2,4.6,3.1c0.8,1.9,0.3,4-1.1,5.4L1452,356.5C1451.1,357.5,1449.8,358,1448.5,358z M1453.5,177.9v163l163-163H1453.5z" style="fill:#383A48;"/>
	</g>
</g>
</svg>
