<?xml version="1.0" encoding="utf-8"?>
<!-- Generator: Adobe Illustrator 22.0.1, SVG Export Plug-In . SVG Version: 6.00 Build 0)  -->
<svg version="1.1" id="Layer_1" xmlns="http://www.w3.org/2000/svg" xmlns:xlink="http://www.w3.org/1999/xlink" x="0px" y="0px" viewBox="0 0 1920 1080" style="enable-background:new 0 0 1920 1080;" xml:space="preserve">

<rect y="0" width="1920" height="1080" style="fill:#F6E049;"/>
<g>
	<g>
		<g>
			<g>
				<g>
					<circle cx="745.6" cy="880.7" r="5" style="fill:#383A48;"/>
				</g>
			</g>
			<g>
				<g>
					<circle cx="745.6" cy="905.4" r="5" style="fill:#383A48;"/>
				</g>
			</g>
			<g>
				<g>
					<circle cx="745.6" cy="930.1" r="5" style="fill:#383A48;"/>
				</g>
			</g>
			<g>
				<g>
					<circle cx="720.9" cy="831.4" r="5" style="fill:#383A48;"/>
				</g>
			</g>
			<g>
				<g>
					<circle cx="720.9" cy="856.1" r="5" style="fill:#383A48;"/>
				</g>
			</g>
			<g>
				<g>
					<circle cx="720.9" cy="880.7" r="5" style="fill:#383A48;"/>
				</g>
			</g>
			<g>
				<g>
					<circle cx="720.9" cy="905.4" r="5" style="fill:#383A48;"/>
				</g>
			</g>
			<g>
				<g>
					<circle cx="720.9" cy="930.1" r="5" style="fill:#383A48;"/>
				</g>
			</g>
			<g>
				<g>
					<circle cx="696.2" cy="806.7" r="5" style="fill:#383A48;"/>
				</g>
			</g>
			<g>
				<g>
					<circle cx="696.2" cy="831.4" r="5" style="fill:#383A48;"/>
				</g>
			</g>
			<g>
				<g>
					<circle cx="696.2" cy="856.1" r="5" style="fill:#383A48;"/>
				</g>
			</g>
			<g>
				<g>
					<circle cx="696.2" cy="880.7" r="5" style="fill:#383A48;"/>
				</g>
			</g>
			<g>
				<g>
					<circle cx="696.2" cy="905.4" r="5" style="fill:#383A48;"/>
				</g>
			</g>
			<g>
				<g>
					<circle cx="696.2" cy="930.1" r="5" style="fill:#383A48;"/>
				</g>
			</g>
			<g>
				<g>
					<circle cx="671.6" cy="658.7" r="5" style="fill:#383A48;"/>
				</g>
			</g>
			<g>
				<g>
					<circle cx="671.6" cy="683.4" r="5" style="fill:#383A48;"/>
				</g>
			</g>
			<g>
				<g>
					<circle cx="671.6" cy="708.1" r="5" style="fill:#383A48;"/>
				</g>
			</g>
			<g>
				<g>
					<circle cx="671.6" cy="732.7" r="5" style="fill:#383A48;"/>
				</g>
			</g>
			<g>
				<g>
					<circle cx="671.6" cy="757.4" r="5" style="fill:#383A48;"/>
				</g>
			</g>
			<g>
				<g>
					<circle cx="671.6" cy="806.7" r="5" style="fill:#383A48;"/>
				</g>
			</g>
			<g>
				<g>
					<circle cx="671.6" cy="831.4" r="5" style="fill:#383A48;"/>
				</g>
			</g>
			<g>
				<g>
					<circle cx="671.6" cy="856.1" r="5" style="fill:#383A48;"/>
				</g>
			</g>
			<g>
				<g>
					<circle cx="671.6" cy="880.7" r="5" style="fill:#383A48;"/>
				</g>
			</g>
			<g>
				<g>
					<circle cx="671.6" cy="905.4" r="5" style="fill:#383A48;"/>
				</g>
			</g>
			<g>
				<g>
					<circle cx="671.6" cy="930.1" r="5" style="fill:#383A48;"/>
				</g>
			</g>
			<g>
				<g>
					<circle cx="646.9" cy="634.1" r="5" style="fill:#383A48;"/>
				</g>
			</g>
			<g>
				<g>
					<circle cx="646.9" cy="658.7" r="5" style="fill:#383A48;"/>
				</g>
			</g>
			<g>
				<g>
					<circle cx="646.9" cy="683.4" r="5" style="fill:#383A48;"/>
				</g>
			</g>
			<g>
				<g>
					<circle cx="646.9" cy="708.1" r="5" style="fill:#383A48;"/>
				</g>
			</g>
			<g>
				<g>
					<circle cx="646.9" cy="732.7" r="5" style="fill:#383A48;"/>
				</g>
			</g>
			<g>
				<g>
					<circle cx="646.9" cy="757.4" r="5" style="fill:#383A48;"/>
				</g>
			</g>
			<g>
				<g>
					<circle cx="646.9" cy="782.1" r="5" style="fill:#383A48;"/>
				</g>
			</g>
			<g>
				<g>
					<circle cx="646.9" cy="806.7" r="5" style="fill:#383A48;"/>
				</g>
			</g>
			<g>
				<g>
					<circle cx="646.9" cy="831.4" r="5" style="fill:#383A48;"/>
				</g>
			</g>
			<g>
				<g>
					<circle cx="646.9" cy="856.1" r="5" style="fill:#383A48;"/>
				</g>
			</g>
			<g>
				<g>
					<circle cx="646.9" cy="880.7" r="5" style="fill:#383A48;"/>
				</g>
			</g>
			<g>
				<g>
					<circle cx="646.9" cy="905.4" r="5" style="fill:#383A48;"/>
				</g>
			</g>
			<g>
				<g>
					<circle cx="646.9" cy="930.1" r="5" style="fill:#383A48;"/>
				</g>
			</g>
			<g>
				<g>
					<circle cx="622.2" cy="609.4" r="5" style="fill:#383A48;"/>
				</g>
			</g>
			<g>
				<g>
					<circle cx="622.2" cy="634.1" r="5" style="fill:#383A48;"/>
				</g>
			</g>
			<g>
				<g>
					<circle cx="622.2" cy="658.7" r="5" style="fill:#383A48;"/>
				</g>
			</g>
			<g>
				<g>
					<circle cx="622.2" cy="683.4" r="5" style="fill:#383A48;"/>
				</g>
			</g>
			<g>
				<g>
					<circle cx="622.2" cy="708.1" r="5" style="fill:#383A48;"/>
				</g>
			</g>
			<g>
				<g>
					<circle cx="622.2" cy="732.7" r="5" style="fill:#383A48;"/>
				</g>
			</g>
			<g>
				<g>
					<circle cx="622.2" cy="757.4" r="5" style="fill:#383A48;"/>
				</g>
			</g>
			<g>
				<g>
					<circle cx="622.2" cy="782.1" r="5" style="fill:#383A48;"/>
				</g>
			</g>
			<g>
				<g>
					<circle cx="622.2" cy="806.7" r="5" style="fill:#383A48;"/>
				</g>
			</g>
			<g>
				<g>
					<circle cx="622.2" cy="831.4" r="5" style="fill:#383A48;"/>
				</g>
			</g>
			<g>
				<g>
					<circle cx="622.2" cy="856.1" r="5" style="fill:#383A48;"/>
				</g>
			</g>
			<g>
				<g>
					<circle cx="622.2" cy="880.7" r="5" style="fill:#383A48;"/>
				</g>
			</g>
			<g>
				<g>
					<circle cx="622.2" cy="905.4" r="5" style="fill:#383A48;"/>
				</g>
			</g>
			<g>
				<g>
					<circle cx="622.2" cy="930.1" r="5" style="fill:#383A48;"/>
				</g>
			</g>
			<g>
				<g>
					<circle cx="597.6" cy="609.4" r="5" style="fill:#383A48;"/>
				</g>
			</g>
			<g>
				<g>
					<circle cx="597.6" cy="634.1" r="5" style="fill:#383A48;"/>
				</g>
			</g>
			<g>
				<g>
					<circle cx="597.6" cy="658.7" r="5" style="fill:#383A48;"/>
				</g>
			</g>
			<g>
				<g>
					<circle cx="597.6" cy="683.4" r="5" style="fill:#383A48;"/>
				</g>
			</g>
			<g>
				<g>
					<circle cx="597.6" cy="708.1" r="5" style="fill:#383A48;"/>
				</g>
			</g>
			<g>
				<g>
					<circle cx="597.6" cy="732.7" r="5" style="fill:#383A48;"/>
				</g>
			</g>
			<g>
				<g>
					<circle cx="597.6" cy="757.4" r="5" style="fill:#383A48;"/>
				</g>
			</g>
			<g>
				<g>
					<circle cx="597.6" cy="782.1" r="5" style="fill:#383A48;"/>
				</g>
			</g>
			<g>
				<g>
					<circle cx="597.6" cy="806.7" r="5" style="fill:#383A48;"/>
				</g>
			</g>
			<g>
				<g>
					<circle cx="597.6" cy="831.4" r="5" style="fill:#383A48;"/>
				</g>
			</g>
			<g>
				<g>
					<circle cx="597.6" cy="856.1" r="5" style="fill:#383A48;"/>
				</g>
			</g>
			<g>
				<g>
					<circle cx="597.6" cy="880.7" r="5" style="fill:#383A48;"/>
				</g>
			</g>
			<g>
				<g>
					<circle cx="597.6" cy="905.4" r="5" style="fill:#383A48;"/>
				</g>
			</g>
			<g>
				<g>
					<circle cx="597.6" cy="930.1" r="5" style="fill:#383A48;"/>
				</g>
			</g>
			<g>
				<g>
					<circle cx="572.9" cy="609.4" r="5" style="fill:#383A48;"/>
				</g>
			</g>
			<g>
				<g>
					<circle cx="572.9" cy="634.1" r="5" style="fill:#383A48;"/>
				</g>
			</g>
			<g>
				<g>
					<circle cx="572.9" cy="658.7" r="5" style="fill:#383A48;"/>
				</g>
			</g>
			<g>
				<g>
					<circle cx="572.9" cy="683.4" r="5" style="fill:#383A48;"/>
				</g>
			</g>
			<g>
				<g>
					<circle cx="572.9" cy="708.1" r="5" style="fill:#383A48;"/>
				</g>
			</g>
			<g>
				<g>
					<circle cx="572.9" cy="732.7" r="5" style="fill:#383A48;"/>
				</g>
			</g>
			<g>
				<g>
					<circle cx="572.9" cy="757.4" r="5" style="fill:#383A48;"/>
				</g>
			</g>
			<g>
				<g>
					<circle cx="572.9" cy="782.1" r="5" style="fill:#383A48;"/>
				</g>
			</g>
			<g>
				<g>
					<circle cx="572.9" cy="806.7" r="5" style="fill:#383A48;"/>
				</g>
			</g>
			<g>
				<g>
					<circle cx="572.9" cy="831.4" r="5" style="fill:#383A48;"/>
				</g>
			</g>
			<g>
				<g>
					<circle cx="572.9" cy="856.1" r="5" style="fill:#383A48;"/>
				</g>
			</g>
			<g>
				<g>
					<circle cx="572.9" cy="880.7" r="5" style="fill:#383A48;"/>
				</g>
			</g>
			<g>
				<g>
					<circle cx="572.9" cy="905.4" r="5" style="fill:#383A48;"/>
				</g>
			</g>
			<g>
				<g>
					<circle cx="572.9" cy="930.1" r="5" style="fill:#383A48;"/>
				</g>
			</g>
			<g>
				<g>
					<circle cx="548.2" cy="634.1" r="5" style="fill:#383A48;"/>
				</g>
			</g>
			<g>
				<g>
					<circle cx="548.2" cy="658.7" r="5" style="fill:#383A48;"/>
				</g>
			</g>
			<g>
				<g>
					<circle cx="548.2" cy="683.4" r="5" style="fill:#383A48;"/>
				</g>
			</g>
			<g>
				<g>
					<circle cx="548.2" cy="708.1" r="5" style="fill:#383A48;"/>
				</g>
			</g>
			<g>
				<g>
					<circle cx="548.2" cy="732.7" r="5" style="fill:#383A48;"/>
				</g>
			</g>
			<g>
				<g>
					<circle cx="548.2" cy="757.4" r="5" style="fill:#383A48;"/>
				</g>
			</g>
			<g>
				<g>
					<circle cx="548.2" cy="782.1" r="5" style="fill:#383A48;"/>
				</g>
			</g>
			<g>
				<g>
					<circle cx="548.2" cy="806.7" r="5" style="fill:#383A48;"/>
				</g>
			</g>
			<g>
				<g>
					<circle cx="548.2" cy="831.4" r="5" style="fill:#383A48;"/>
				</g>
			</g>
			<g>
				<g>
					<circle cx="548.2" cy="856.1" r="5" style="fill:#383A48;"/>
				</g>
			</g>
			<g>
				<g>
					<circle cx="548.2" cy="880.7" r="5" style="fill:#383A48;"/>
				</g>
			</g>
			<g>
				<g>
					<circle cx="548.2" cy="905.4" r="5" style="fill:#383A48;"/>
				</g>
			</g>
			<g>
				<g>
					<circle cx="548.2" cy="930.1" r="5" style="fill:#383A48;"/>
				</g>
			</g>
			<g>
				<g>
					<circle cx="523.6" cy="658.7" r="5" style="fill:#383A48;"/>
				</g>
			</g>
			<g>
				<g>
					<circle cx="523.6" cy="683.4" r="5" style="fill:#383A48;"/>
				</g>
			</g>
			<g>
				<g>
					<circle cx="523.6" cy="708.1" r="5" style="fill:#383A48;"/>
				</g>
			</g>
			<g>
				<g>
					<circle cx="523.6" cy="732.7" r="5" style="fill:#383A48;"/>
				</g>
			</g>
			<g>
				<g>
					<circle cx="523.6" cy="806.7" r="5" style="fill:#383A48;"/>
				</g>
			</g>
			<g>
				<g>
					<circle cx="523.6" cy="831.4" r="5" style="fill:#383A48;"/>
				</g>
			</g>
			<g>
				<g>
					<circle cx="523.6" cy="856.1" r="5" style="fill:#383A48;"/>
				</g>
			</g>
			<g>
				<g>
					<circle cx="523.6" cy="880.7" r="5" style="fill:#383A48;"/>
				</g>
			</g>
			<g>
				<g>
					<circle cx="523.6" cy="905.4" r="5" style="fill:#383A48;"/>
				</g>
			</g>
			<g>
				<g>
					<circle cx="523.6" cy="930.1" r="5" style="fill:#383A48;"/>
				</g>
			</g>
			<g>
				<g>
					<circle cx="498.9" cy="806.7" r="5" style="fill:#383A48;"/>
				</g>
			</g>
			<g>
				<g>
					<circle cx="498.9" cy="831.4" r="5" style="fill:#383A48;"/>
				</g>
			</g>
			<g>
				<g>
					<circle cx="498.9" cy="856.1" r="5" style="fill:#383A48;"/>
				</g>
			</g>
			<g>
				<g>
					<circle cx="498.9" cy="880.7" r="5" style="fill:#383A48;"/>
				</g>
			</g>
			<g>
				<g>
					<circle cx="498.9" cy="905.4" r="5" style="fill:#383A48;"/>
				</g>
			</g>
			<g>
				<g>
					<circle cx="498.9" cy="930.1" r="5" style="fill:#383A48;"/>
				</g>
			</g>
			<g>
				<g>
					<circle cx="474.2" cy="831.4" r="5" style="fill:#383A48;"/>
				</g>
			</g>
			<g>
				<g>
					<circle cx="474.2" cy="856.1" r="5" style="fill:#383A48;"/>
				</g>
			</g>
			<g>
				<g>
					<circle cx="474.2" cy="880.7" r="5" style="fill:#383A48;"/>
				</g>
			</g>
			<g>
				<g>
					<circle cx="474.2" cy="905.4" r="5" style="fill:#383A48;"/>
				</g>
			</g>
			<g>
				<g>
					<circle cx="474.2" cy="930.1" r="5" style="fill:#383A48;"/>
				</g>
			</g>
			<g>
				<g>
					<circle cx="449.6" cy="880.7" r="5" style="fill:#383A48;"/>
				</g>
			</g>
			<g>
				<g>
					<circle cx="449.6" cy="905.4" r="5" style="fill:#383A48;"/>
				</g>
			</g>
			<g>
				<g>
					<circle cx="449.6" cy="930.1" r="5" style="fill:#383A48;"/>
				</g>
			</g>
		</g>
	</g>
	<path d="M991.4,163H191.1c-2.8,0-5,2.2-5,5v680.2c0,2.8,2.2,5,5,5s5-2.2,5-5c0-46.3,11-91.2,32.8-133.4
		c20.8-40.5,51-77.8,89.8-110.8c76.7-65.4,182.5-109.9,298.1-125.4c63.2-8.5,118.2-34.8,167.9-80.3c42.8-39.2,74.6-85.9,102.7-127.1
		c37.4-54.8,66.9-98.1,104.1-98.1c2.8,0,5-2.2,5-5C996.4,165.3,994.2,163,991.4,163z" style="fill:#F3F6E6;"/>
	<path d="M1731,304.7c-1.8-0.8-3.9-0.5-5.4,0.8c-60.1,52-86,103.5-101.9,142.5c-5.4,13.2-10,26.1-14.5,38.5
		c-9.6,26.8-18.7,52.1-33.1,74.1c-15.8,24.2-36.6,42.2-65.4,56.5c-54.1,26.9-112.5,28.5-168.9,30c-76.5,2.1-155.6,4.2-227.1,67.8
		c-40.9,36.4-58.7,71.3-74.4,102c-21.8,42.7-37.6,73.6-104.1,87.5c-2.5,0.5-4.2,2.9-4,5.4c0.3,2.5,2.4,4.5,5,4.5h791.5
		c2.8,0,5-2.2,5-5v-600C1733.9,307.3,1732.8,305.5,1731,304.7z" style="fill:#F3F6E6;"/>
	<path d="M1731,304.7c-1.8-0.8-3.9-0.5-5.4,0.8c-60.1,52-86,103.5-101.9,142.5c-0.6,1.5-0.4,3.3,0.5,4.7
		c0.9,1.4,2.5,2.2,4.1,2.2h14.1c43.9,0,82.3-31.2,91.3-74.1c0.1-0.3,0.1-0.7,0.1-1v-70.5C1733.9,307.3,1732.8,305.5,1731,304.7z" style="fill:#383A48;"/>
	<g>
		<path d="M1058.9,914.3h-254c-2.8,0-5-2.2-5-5s2.2-5,5-5h254c2.8,0,5,2.2,5,5S1061.7,914.3,1058.9,914.3z" style="fill:#383A48;"/>
	</g>
	<g>
		<g>
			<path d="M1150.3,470.9c0,67.9-30.9,128.6-79.3,168.8c-11.5,9.5-21.7,20.4-30.3,32.3c-19.6,26.9-31.3,59-32.9,92.8
				l-4.6,75.8c-0.5,9.6-2.8,18.7-6.6,27c-3.9,8.2-9.2,15.6-15.7,21.8c-13,12.4-30.5,19.9-49.8,19.9c-28.9,0-53.9-17-65.4-41.7
				c-3.8-8.2-6.2-17.4-6.6-27l-4.5-75.1c-1.6-34-13.1-66.5-32.7-93.5c-8.4-11.6-18.3-22.2-29.6-31.5C743,600,711.6,538.5,712,469.6
				c0.7-120.7,102.1-219.8,222.8-217.8C1054.1,253.7,1150.3,351.1,1150.3,470.9z" style="fill:#F6E049;"/>
			<path d="M931.2,914.3c-29.9,0-57.3-17.5-70-44.6c-4.2-9.1-6.6-18.8-7.1-28.8l-4.5-75.1
				c-1.6-33.1-12.6-64.5-31.7-90.9c-8.2-11.4-17.9-21.7-28.8-30.6c-52.6-43.1-82.5-106.8-82.1-174.7c0.4-59.7,24.5-115.9,67.9-158.4
				c21-20.6,45.4-36.7,72.4-47.8c28-11.5,57.4-17.1,87.6-16.6c59.1,1,114.5,24.7,156,66.8c41.6,42.2,64.4,98.1,64.4,157.3
				c0,66.9-29.6,129.8-81.1,172.6c-11.1,9.2-21,19.8-29.4,31.4c-19.3,26.6-30.4,57.8-32,90.2l-4.6,75.9c-0.5,10-2.9,19.7-7.1,28.8
				c-4.1,8.8-9.7,16.6-16.8,23.3C970,906.7,951.1,914.3,931.2,914.3z M931.2,256.8c-55.8,0-108.7,21.8-149.4,61.6
				c-41.5,40.6-64.5,94.3-64.9,151.3c-0.4,64.9,28.2,125.7,78.4,166.9c11.5,9.4,21.8,20.3,30.5,32.4c20.3,28,31.9,61.3,33.6,96.2
				l4.5,75.1c0.4,8.8,2.5,17.3,6.2,25.2c11,23.6,34.9,38.8,60.9,38.8c17.3,0,33.8-6.6,46.3-18.5c6.1-5.8,11-12.6,14.6-20.3
				c3.7-7.9,5.7-16.3,6.2-25.1l4.6-75.9c1.7-34.3,13.4-67.3,33.9-95.5c8.9-12.2,19.4-23.4,31.1-33.2c49.3-40.9,77.5-101,77.5-164.9
				c0-56.6-21.9-110-61.6-150.3s-92.6-62.9-149.1-63.9C933.5,256.8,932.4,256.8,931.2,256.8z" style="fill:#383A48;"/>
		</g>
		<ellipse cx="931.3" cy="519" rx="152.3" ry="152.3" style="fill:#F3F6E6;"/>
		<g>
			<g>
				<polygon points="931.2,671.9 871.2,485.8 931.3,485.8 				" style="fill:#F3F6E6;"/>
				<path d="M931.2,676.9c-2.1,0-4.1-1.4-4.8-3.5l-60-186.1c-0.5-1.5-0.2-3.2,0.7-4.5s2.4-2.1,4-2.1h60.1
					c1.3,0,2.6,0.5,3.5,1.5c0.9,0.9,1.5,2.2,1.5,3.5l-0.1,186.1c0,2.5-1.8,4.6-4.2,4.9C931.7,676.9,931.4,676.9,931.2,676.9z
					 M878,490.8l48.2,149.4l0.1-149.4L878,490.8L878,490.8z" style="fill:#383A48;"/>
			</g>
			<g>
				<polygon points="931.4,671.9 991.4,485.8 931.3,485.8 				" style="fill:#F3F6E6;"/>
				<path d="M931.4,676.9c-0.3,0-0.5,0-0.8-0.1c-2.4-0.4-4.2-2.5-4.2-4.9l-0.1-186.1c0-1.3,0.5-2.6,1.5-3.5
					c0.9-0.9,2.2-1.5,3.5-1.5h60.1c1.6,0,3.1,0.8,4,2.1c0.9,1.3,1.2,3,0.7,4.5l-60,186.1C935.5,675.6,933.6,676.9,931.4,676.9z
					 M936.3,490.8l0.1,149.4l48.2-149.4L936.3,490.8L936.3,490.8z" style="fill:#383A48;"/>
			</g>
		</g>
		<path d="M1045.1,669.7c-0.9-1.7-2.6-2.7-4.5-2.7H821.9c-1.9,0-3.6,1.1-4.5,2.7c-0.9,1.7-0.7,3.7,0.4,5.2
			c19.2,26.4,30.1,57.8,31.7,90.9l4.5,75.1c0.5,10.1,2.9,19.8,7.1,28.8c0.8,1.8,2.6,2.9,4.5,2.9h130.9c1.9,0,3.7-1.1,4.5-2.9
			c4.2-9.1,6.6-18.8,7.1-28.8l4.6-75.9c1.6-32.4,12.6-63.6,32-90.1C1045.8,673.4,1046,671.3,1045.1,669.7z" style="fill:#383A48;"/>
	</g>
	<g>
		<g>
			<path d="M931.2,203.5c-2.8,0-5-2.2-5-5V168c0-2.8,2.2-5,5-5s5,2.2,5,5v30.5C936.2,201.3,933.9,203.5,931.2,203.5z" style="fill:#383A48;"/>
		</g>
		<g>
			<path d="M1028.4,220.4c-0.6,0-1.1-0.1-1.7-0.3c-2.6-0.9-3.9-3.8-3-6.4L1034,185c0.9-2.6,3.8-3.9,6.4-3s3.9,3.8,3,6.4
				l-10.3,28.7C1032.4,219.2,1030.5,220.4,1028.4,220.4z" style="fill:#383A48;"/>
		</g>
		<g>
			<path d="M1114.2,269.3c-1.1,0-2.2-0.4-3.2-1.1c-2.1-1.8-2.4-4.9-0.7-7l19.4-23.5c1.8-2.1,4.9-2.4,7-0.7
				c2.1,1.8,2.4,4.9,0.7,7l-19.4,23.5C1117.1,268.6,1115.6,269.3,1114.2,269.3z" style="fill:#383A48;"/>
		</g>
		<g>
			<path d="M1178.4,344.2c-1.7,0-3.4-0.9-4.3-2.5c-1.4-2.4-0.6-5.4,1.8-6.9l26.2-15.5c2.4-1.4,5.4-0.6,6.9,1.8
				c1.4,2.4,0.6,5.4-1.8,6.9l-26.2,15.5C1180.1,344,1179.3,344.2,1178.4,344.2z" style="fill:#383A48;"/>
		</g>
		<g>
			<path d="M1213.4,436.5c-2.3,0-4.4-1.7-4.9-4.1c-0.5-2.7,1.3-5.3,4-5.9l29.9-5.7c2.7-0.5,5.3,1.3,5.9,4
				c0.5,2.7-1.3,5.3-4,5.9l-29.9,5.7C1214,436.5,1213.7,436.5,1213.4,436.5z" style="fill:#383A48;"/>
		</g>
		<g>
			<path d="M833.9,220.4c-2,0-4-1.3-4.7-3.3l-10.3-28.7c-0.9-2.6,0.4-5.5,3-6.4s5.5,0.4,6.4,3l10.3,28.7
				c0.9,2.6-0.4,5.5-3,6.4C835,220.3,834.5,220.4,833.9,220.4z" style="fill:#383A48;"/>
		</g>
		<g>
			<path d="M748.1,269.3c-1.4,0-2.9-0.6-3.9-1.8L724.8,244c-1.8-2.1-1.5-5.3,0.7-7c2.1-1.8,5.3-1.5,7,0.7l19.4,23.5
				c1.8,2.1,1.5,5.3-0.7,7C750.4,268.9,749.2,269.3,748.1,269.3z" style="fill:#383A48;"/>
		</g>
		<g>
			<path d="M683.9,344.2c-0.9,0-1.7-0.2-2.5-0.7L655.2,328c-2.4-1.4-3.2-4.5-1.8-6.9s4.5-3.2,6.9-1.8l26.2,15.5
				c2.4,1.4,3.2,4.5,1.8,6.9C687.3,343.4,685.6,344.2,683.9,344.2z" style="fill:#383A48;"/>
		</g>
		<g>
			<path d="M648.9,436.5c-0.3,0-0.6,0-0.9-0.1l-29.9-5.7c-2.7-0.5-4.5-3.1-4-5.9c0.5-2.7,3.1-4.5,5.9-4l29.9,5.7
				c2.7,0.5,4.5,3.1,4,5.9C653.4,434.9,651.3,436.5,648.9,436.5z" style="fill:#383A48;"/>
		</g>
	</g>
	<g>
		<g>
			<g>
				<g>
					<circle cx="1485.6" cy="720.2" r="5" style="fill:#383A48;"/>
				</g>
			</g>
			<g>
				<g>
					<circle cx="1485.6" cy="744.9" r="5" style="fill:#383A48;"/>
				</g>
			</g>
			<g>
				<g>
					<circle cx="1485.6" cy="769.6" r="5" style="fill:#383A48;"/>
				</g>
			</g>
			<g>
				<g>
					<circle cx="1460.9" cy="695.6" r="5" style="fill:#383A48;"/>
				</g>
			</g>
			<g>
				<g>
					<circle cx="1460.9" cy="720.2" r="5" style="fill:#383A48;"/>
				</g>
			</g>
			<g>
				<g>
					<circle cx="1460.9" cy="744.9" r="5" style="fill:#383A48;"/>
				</g>
			</g>
			<g>
				<g>
					<circle cx="1460.9" cy="769.6" r="5" style="fill:#383A48;"/>
				</g>
			</g>
			<g>
				<g>
					<circle cx="1436.2" cy="572.2" r="5" style="fill:#383A48;"/>
				</g>
			</g>
			<g>
				<g>
					<circle cx="1436.2" cy="596.9" r="5" style="fill:#383A48;"/>
				</g>
			</g>
			<g>
				<g>
					<circle cx="1436.2" cy="621.6" r="5" style="fill:#383A48;"/>
				</g>
			</g>
			<g>
				<g>
					<circle cx="1436.2" cy="646.2" r="5" style="fill:#383A48;"/>
				</g>
			</g>
			<g>
				<g>
					<circle cx="1436.2" cy="695.6" r="5" style="fill:#383A48;"/>
				</g>
			</g>
			<g>
				<g>
					<circle cx="1436.2" cy="720.2" r="5" style="fill:#383A48;"/>
				</g>
			</g>
			<g>
				<g>
					<circle cx="1436.2" cy="744.9" r="5" style="fill:#383A48;"/>
				</g>
			</g>
			<g>
				<g>
					<circle cx="1436.2" cy="769.6" r="5" style="fill:#383A48;"/>
				</g>
			</g>
			<g>
				<g>
					<circle cx="1411.6" cy="547.6" r="5" style="fill:#383A48;"/>
				</g>
			</g>
			<g>
				<g>
					<circle cx="1411.6" cy="572.2" r="5" style="fill:#383A48;"/>
				</g>
			</g>
			<g>
				<g>
					<circle cx="1411.6" cy="596.9" r="5" style="fill:#383A48;"/>
				</g>
			</g>
			<g>
				<g>
					<circle cx="1411.6" cy="621.6" r="5" style="fill:#383A48;"/>
				</g>
			</g>
			<g>
				<g>
					<circle cx="1411.6" cy="646.2" r="5" style="fill:#383A48;"/>
				</g>
			</g>
			<g>
				<g>
					<circle cx="1411.6" cy="670.9" r="5" style="fill:#383A48;"/>
				</g>
			</g>
			<g>
				<g>
					<circle cx="1411.6" cy="695.6" r="5" style="fill:#383A48;"/>
				</g>
			</g>
			<g>
				<g>
					<circle cx="1411.6" cy="720.2" r="5" style="fill:#383A48;"/>
				</g>
			</g>
			<g>
				<g>
					<circle cx="1411.6" cy="744.9" r="5" style="fill:#383A48;"/>
				</g>
			</g>
			<g>
				<g>
					<circle cx="1411.6" cy="769.6" r="5" style="fill:#383A48;"/>
				</g>
			</g>
			<g>
				<g>
					<circle cx="1386.9" cy="547.6" r="5" style="fill:#383A48;"/>
				</g>
			</g>
			<g>
				<g>
					<circle cx="1386.9" cy="572.2" r="5" style="fill:#383A48;"/>
				</g>
			</g>
			<g>
				<g>
					<circle cx="1386.9" cy="596.9" r="5" style="fill:#383A48;"/>
				</g>
			</g>
			<g>
				<g>
					<circle cx="1386.9" cy="621.6" r="5" style="fill:#383A48;"/>
				</g>
			</g>
			<g>
				<g>
					<circle cx="1386.9" cy="646.2" r="5" style="fill:#383A48;"/>
				</g>
			</g>
			<g>
				<g>
					<circle cx="1386.9" cy="670.9" r="5" style="fill:#383A48;"/>
				</g>
			</g>
			<g>
				<g>
					<circle cx="1386.9" cy="695.6" r="5" style="fill:#383A48;"/>
				</g>
			</g>
			<g>
				<g>
					<circle cx="1386.9" cy="720.2" r="5" style="fill:#383A48;"/>
				</g>
			</g>
			<g>
				<g>
					<circle cx="1386.9" cy="744.9" r="5" style="fill:#383A48;"/>
				</g>
			</g>
			<g>
				<g>
					<circle cx="1386.9" cy="769.6" r="5" style="fill:#383A48;"/>
				</g>
			</g>
			<g>
				<g>
					<circle cx="1362.2" cy="547.6" r="5" style="fill:#383A48;"/>
				</g>
			</g>
			<g>
				<g>
					<circle cx="1362.2" cy="572.2" r="5" style="fill:#383A48;"/>
				</g>
			</g>
			<g>
				<g>
					<circle cx="1362.2" cy="596.9" r="5" style="fill:#383A48;"/>
				</g>
			</g>
			<g>
				<g>
					<circle cx="1362.2" cy="621.6" r="5" style="fill:#383A48;"/>
				</g>
			</g>
			<g>
				<g>
					<circle cx="1362.2" cy="646.2" r="5" style="fill:#383A48;"/>
				</g>
			</g>
			<g>
				<g>
					<circle cx="1362.2" cy="670.9" r="5" style="fill:#383A48;"/>
				</g>
			</g>
			<g>
				<g>
					<circle cx="1362.2" cy="695.6" r="5" style="fill:#383A48;"/>
				</g>
			</g>
			<g>
				<g>
					<circle cx="1362.2" cy="720.2" r="5" style="fill:#383A48;"/>
				</g>
			</g>
			<g>
				<g>
					<circle cx="1362.2" cy="744.9" r="5" style="fill:#383A48;"/>
				</g>
			</g>
			<g>
				<g>
					<circle cx="1362.2" cy="769.6" r="5" style="fill:#383A48;"/>
				</g>
			</g>
			<g>
				<g>
					<circle cx="1337.6" cy="572.2" r="5" style="fill:#383A48;"/>
				</g>
			</g>
			<g>
				<g>
					<circle cx="1337.6" cy="596.9" r="5" style="fill:#383A48;"/>
				</g>
			</g>
			<g>
				<g>
					<circle cx="1337.6" cy="621.6" r="5" style="fill:#383A48;"/>
				</g>
			</g>
			<g>
				<g>
					<circle cx="1337.6" cy="646.2" r="5" style="fill:#383A48;"/>
				</g>
			</g>
			<g>
				<g>
					<circle cx="1337.6" cy="695.6" r="5" style="fill:#383A48;"/>
				</g>
			</g>
			<g>
				<g>
					<circle cx="1337.6" cy="720.2" r="5" style="fill:#383A48;"/>
				</g>
			</g>
			<g>
				<g>
					<circle cx="1337.6" cy="744.9" r="5" style="fill:#383A48;"/>
				</g>
			</g>
			<g>
				<g>
					<circle cx="1337.6" cy="769.6" r="5" style="fill:#383A48;"/>
				</g>
			</g>
			<g>
				<g>
					<circle cx="1312.9" cy="695.6" r="5" style="fill:#383A48;"/>
				</g>
			</g>
			<g>
				<g>
					<circle cx="1312.9" cy="720.2" r="5" style="fill:#383A48;"/>
				</g>
			</g>
			<g>
				<g>
					<circle cx="1312.9" cy="744.9" r="5" style="fill:#383A48;"/>
				</g>
			</g>
			<g>
				<g>
					<circle cx="1312.9" cy="769.6" r="5" style="fill:#383A48;"/>
				</g>
			</g>
			<g>
				<g>
					<circle cx="1288.2" cy="720.2" r="5" style="fill:#383A48;"/>
				</g>
			</g>
			<g>
				<g>
					<circle cx="1288.2" cy="744.9" r="5" style="fill:#383A48;"/>
				</g>
			</g>
			<g>
				<g>
					<circle cx="1288.2" cy="769.6" r="5" style="fill:#383A48;"/>
				</g>
			</g>
		</g>
	</g>
	<g>
		<g>
			<g>
				<path d="M1216.9,725.4v-15.7c0-44.5,36.1-80.6,80.6-80.6h71.3c44.5,0,80.6,36.1,80.6,80.6v15.7H1216.9z" style="fill:#7FD6C2;"/>
			</g>
			<g>
				<path d="M1449.3,730.4h-232.4c-2.8,0-5-2.2-5-5v-15.7c0-47.2,38.4-85.6,85.6-85.6h71.3c47.2,0,85.6,38.4,85.6,85.6
					v15.7C1454.3,728.2,1452.1,730.4,1449.3,730.4z M1221.9,720.4h222.4v-10.7c0-41.7-33.9-75.6-75.6-75.6h-71.3
					c-41.7,0-75.6,33.9-75.6,75.6L1221.9,720.4L1221.9,720.4z" style="fill:#383A48;"/>
			</g>
		</g>
		<g>
			<path d="M1333.1,629.2L1333.1,629.2c-33,0-59.7-26.7-59.7-59.7v-36.1c0-33,26.7-59.7,59.7-59.7l0,0
				c33,0,59.7,26.7,59.7,59.7v36.1C1392.9,602.5,1366.1,629.2,1333.1,629.2z" style="fill:#F3F6E6;"/>
			<path d="M1333.1,634.2c-35.7,0-64.7-29-64.7-64.7v-36.1c0-35.7,29-64.7,64.7-64.7s64.7,29,64.7,64.7v36.1
				C1397.9,605.2,1368.8,634.2,1333.1,634.2z M1333.1,478.6c-30.2,0-54.7,24.6-54.7,54.7v36.1c0,30.2,24.6,54.7,54.7,54.7
				c30.2,0,54.7-24.6,54.7-54.7v-36.1C1387.9,503.2,1363.3,478.6,1333.1,478.6z" style="fill:#383A48;"/>
		</g>
	</g>
	<g>
		<g>
			<path d="M367.2,912v-20.8c0-58.9,47.8-106.7,106.7-106.7h94.4c58.9,0,106.7,47.8,106.7,106.7V912H367.2z" style="fill:#AAC6FC;"/>
			<path d="M675,917H367.2c-2.8,0-5-2.2-5-5v-20.8c0-61.6,50.1-111.7,111.7-111.7h94.4c61.6,0,111.7,50.1,111.7,111.7
				V912C680,914.7,677.7,917,675,917z M372.2,907H670v-15.8c0-56.1-45.6-101.7-101.7-101.7h-94.4c-56.1,0-101.7,45.6-101.7,101.7
				V907z" style="fill:#383A48;"/>
		</g>
		<g>
			<path d="M521.1,784.5L521.1,784.5c-43.7,0-79.1-35.4-79.1-79.1v-47.8c0-43.7,35.4-79.1,79.1-79.1l0,0
				c43.7,0,79.1,35.4,79.1,79.1v47.8C600.2,749.1,564.8,784.5,521.1,784.5z" style="fill:#F3F6E6;"/>
			<path d="M521.1,789.5c-46.4,0-84.1-37.7-84.1-84.1v-47.8c0-46.4,37.7-84.1,84.1-84.1s84.1,37.7,84.1,84.1v47.8
				C605.2,751.8,567.5,789.5,521.1,789.5z M521.1,583.5c-40.9,0-74.1,33.2-74.1,74.1v47.8c0,40.9,33.2,74.1,74.1,74.1
				s74.1-33.2,74.1-74.1v-47.8C595.2,616.7,561.9,583.5,521.1,583.5z" style="fill:#383A48;"/>
		</g>
	</g>
	<g>
		<path d="M274.5,406L429,251.4l-69-69.1L205.4,336.9c-19.1,19.1-19.1,50,0,69.1l0,0C224.5,425,255.4,425,274.5,406z" style="fill:#F6E049;"/>
		<path d="M239.9,425.3c-14.4,0-27.9-5.6-38.1-15.8c-21-21-21-55.1,0-76.1l154.6-154.6c2-2,5.1-2,7.1,0l69.1,69.1
			c0.9,0.9,1.5,2.2,1.5,3.5s-0.5,2.6-1.5,3.5L278,409.5C267.8,419.7,254.3,425.3,239.9,425.3z M360,189.4l-151,151
			c-17.1,17.1-17.1,44.9,0,62c8.3,8.3,19.3,12.8,31,12.8s22.7-4.6,31-12.8l0,0l151-151L360,189.4z" style="fill:#383A48;"/>
		<g>
			<circle cx="394.5" cy="216.9" r="48.8" style="fill:#E0719E;"/>
			<path d="M394.5,270.7c-29.7,0-53.8-24.1-53.8-53.8s24.1-53.8,53.8-53.8s53.8,24.1,53.8,53.8S424.2,270.7,394.5,270.7
				z M394.5,173c-24.2,0-43.8,19.7-43.8,43.8s19.7,43.8,43.8,43.8s43.8-19.7,43.8-43.8S418.7,173,394.5,173z" style="fill:#383A48;"/>
		</g>
	</g>
	<g>
		<path d="M1728.9,742.1L1728.9,742.1v167.1h-167.1l0,0C1561.8,817,1636.6,742.1,1728.9,742.1z" style="fill:#E0719E;"/>
		<path d="M1728.9,914.3h-167.1c-2.8,0-5-2.2-5-5c0-94.9,77.2-172.1,172.1-172.1c2.8,0,5,2.2,5,5v167.1
			C1733.9,912,1731.7,914.3,1728.9,914.3z M1566.9,904.3h157v-157C1638.5,749.8,1569.5,818.8,1566.9,904.3z" style="fill:#383A48;"/>
	</g>
	<path d="M501.9,363.9l-1.8-0.5c-5.2-1.4-9.3-5.5-10.7-10.7l-0.5-1.8l0,0c-1-3.6-4.1-5.9-7.8-5.9l0,0
		c-3.7,0-6.8,2.4-7.8,5.9l-0.5,1.8c-1.4,5.2-5.5,9.3-10.7,10.7l-1.8,0.5c-3.6,1-5.9,4.1-5.9,7.8s2.4,6.8,5.9,7.8l1.8,0.5
		c5.2,1.4,9.3,5.5,10.7,10.7l0.5,1.8c1,3.6,4.1,5.9,7.8,5.9l0,0c3.7,0,6.8-2.4,7.8-5.9l0.5-1.8c1.4-5.2,5.5-9.3,10.7-10.7l1.8-0.5
		c3.6-1,5.9-4.1,5.9-7.8S505.5,364.9,501.9,363.9z" style="fill:#AAC6FC;"/>
	<path d="M1192.9,807.1l-1.8-0.5c-5.2-1.4-9.3-5.5-10.7-10.7l-0.5-1.8c-1-3.6-4.1-5.9-7.8-5.9l0,0
		c-3.7,0-6.8,2.4-7.8,5.9l-0.5,1.8c-1.4,5.2-5.5,9.3-10.7,10.7l-1.8,0.5c-3.6,1-5.9,4.1-5.9,7.8s2.4,6.8,5.9,7.8l1.8,0.5
		c5.2,1.4,9.3,5.5,10.7,10.7l0.5,1.8c1,3.6,4.1,5.9,7.8,5.9l0,0c3.7,0,6.8-2.4,7.8-5.9l0.5-1.8c1.4-5.2,5.5-9.3,10.7-10.7l1.8-0.5
		c3.6-1,5.9-4.1,5.9-7.8C1198.8,811.2,1196.4,808.1,1192.9,807.1z" style="fill:#AAC6FC;"/>
	<g>
		<path d="M1610.5,671.6c-11.8,0-20.2-6.3-22.7-17.5c-3.3-14.7,4.1-36.8,21.3-56.5c-3.4-5.2-7.4-10.5-12.1-15.9
			c-16.5-18.7-46.9-43.7-98.6-56.4c-2.7-0.7-4.3-3.4-3.7-6c0.7-2.7,3.4-4.3,6-3.7c57.2,14,95,44.3,115.5,74.5
			c12.9-12.3,29.9-23.1,50.8-29.7c2.6-0.8,5.4,0.6,6.3,3.3c0.8,2.6-0.6,5.4-3.3,6.3c-18.5,5.8-35.3,15.9-48.3,28.9
			c9.6,16.9,13.9,33.3,13.3,46.4c-0.7,14.7-8,24.4-19.3,25.9C1613.8,671.5,1612.1,671.6,1610.5,671.6z M1614.5,606.7
			c-0.8,1-1.6,2-2.4,3c-11.3,14.9-17,31.4-14.6,42.1c1.7,7.6,7.3,10.7,16.7,9.4c8.7-1.2,10.4-10.9,10.7-16.6
			C1625.4,635.4,1622.6,621.9,1614.5,606.7z" style="fill:#383A48;"/>
	</g>
	<g>
		<path d="M378.3,676.9c-0.5,0-1.1-0.1-1.6-0.3c-22.5-7.5-40.5-20.5-53.5-38.6c-10.8-15-17.9-33.6-20.6-53.6
			c-1.6-11.9-1.6-23.9-0.2-34.7c-3.1,0.2-6.3,0.1-9.4-0.2c-14.5-1.4-27.4-7.9-37.3-18.9c-11.7-13-19.1-32-21.9-56.4
			c-0.3-2.7,1.6-5.2,4.4-5.5c2.7-0.3,5.2,1.6,5.5,4.4c6.3,54.2,34.2,64.9,50.2,66.4c3.5,0.3,6.9,0.3,10.1,0
			c3.1-13.9,8.6-24.8,15.8-29.6c5-3.4,10.7-3.6,15.8-0.7c7.2,4.2,10.2,10.7,8,17.6c-2.1,6.6-8.9,12.9-18.6,17.3
			c-4,1.8-8.2,3.2-12.5,4.1c-1.6,10.3-1.9,22.4-0.2,34.8c3.3,24.1,16.4,67.1,67.4,84.1c2.6,0.9,4,3.7,3.2,6.3
			C382.4,675.6,380.4,676.9,378.3,676.9z M328.5,517.2c-0.9,0-1.8,0.3-2.8,1c-4.1,2.8-7.9,9.7-10.5,19.2
			c10.2-3.1,17.7-8.8,19.3-13.6c0.3-1,1.1-3.3-3.5-5.9C330,517.4,329.2,517.2,328.5,517.2z" style="fill:#383A48;"/>
	</g>
	<g>
		<g>
			<line x1="1251.7" y1="224.3" x2="1284.7" y2="224.3" style="fill:none;"/>
			<rect x="1251.7" y="219.3" width="33" height="10" style="fill:#383A48;"/>
		</g>
		<g>
			<line x1="1268.2" y1="240.8" x2="1268.2" y2="207.8" style="fill:none;"/>
			<rect x="1263.2" y="207.8" width="10" height="33" style="fill:#383A48;"/>
		</g>
	</g>
	<g>
		<g>
			<line x1="283.5" y1="772.3" x2="316.4" y2="772.3" style="fill:none;"/>
			<rect x="283.5" y="767.3" width="33" height="10" style="fill:#383A48;"/>
		</g>
		<g>
			<line x1="299.9" y1="788.8" x2="299.9" y2="755.8" style="fill:none;"/>
			<rect x="294.9" y="755.8" width="10" height="33" style="fill:#383A48;"/>
		</g>
	</g>
	<g>
		<path d="M1611.2,189.2h-127.9c-48.7,0-88.2,39.5-88.2,88.2v39.1c0,42.6,30.2,78.2,70.4,86.4l-42.5,70.9l99.1-69.1
			h89.1c48.7,0,88.2-39.5,88.2-88.2v-39.1C1699.4,228.7,1659.9,189.2,1611.2,189.2z" style="fill:#AAC6FC;"/>
		<path d="M1423,478.8c-1.2,0-2.5-0.5-3.4-1.3c-1.7-1.6-2.1-4.2-0.9-6.2l39-65.1c-39.6-11.3-67.7-47.9-67.7-89.7v-39.1
			c0-51.4,41.8-93.2,93.2-93.2h127.9c51.4,0,93.2,41.8,93.2,93.2v39.1c0,51.4-41.8,93.2-93.2,93.2h-87.5l-97.8,68.2
			C1425,478.5,1424,478.8,1423,478.8z M1483.3,194.2c-45.9,0-83.2,37.3-83.2,83.2v39.1c0,39.4,27.9,73.7,66.4,81.5
			c1.6,0.3,2.9,1.4,3.6,2.9s0.5,3.2-0.3,4.6l-30.5,50.9l80-55.7c0.8-0.6,1.8-0.9,2.9-0.9h89.1c45.9,0,83.2-37.3,83.2-83.2v-39.1
			c0-45.9-37.3-83.2-83.2-83.2L1483.3,194.2L1483.3,194.2z" style="fill:#383A48;"/>
		<path d="M1487.2,280.1c-10.1,0-18.3,8.2-18.3,18.3s8.2,18.3,18.3,18.3c10.1,0,18.3-8.2,18.3-18.3
			S1497.3,280.1,1487.2,280.1z" style="fill:#F3F6E6;"/>
		<path d="M1545.2,280.1c-10.1,0-18.3,8.2-18.3,18.3s8.2,18.3,18.3,18.3c10.1,0,18.3-8.2,18.3-18.3
			S1555.3,280.1,1545.2,280.1z" style="fill:#F3F6E6;"/>
		<path d="M1603.2,280.1c-10.1,0-18.3,8.2-18.3,18.3s8.2,18.3,18.3,18.3c10.1,0,18.3-8.2,18.3-18.3
			S1613.3,280.1,1603.2,280.1z" style="fill:#F3F6E6;"/>
	</g>
</g>
</svg>
