<?xml version="1.0" encoding="UTF-8"?>
<svg width="1472px" height="744px" viewBox="0 0 1472 744" version="1.1" xmlns="http://www.w3.org/2000/svg" xmlns:xlink="http://www.w3.org/1999/xlink">
    <!-- Generator: Sketch 59.1 (86144) - https://sketch.com -->
    <title>abstract-searching</title>
    <desc>Created with Sketch.</desc>
    <g id="Page-1" stroke="none" stroke-width="1" fill="none" fill-rule="evenodd">
        <g id="abstract-searching" transform="translate(-197.000000, -168.000000)">
            <g id="Group" transform="translate(197.000000, 168.000000)">
                <path d="M1466.8,408.2 C1464.2,407.9 1461.9,409.7 1461.4,412.2 C1461.3,412.5 1456,439 1439.1,469.7 C1423.6,497.8 1395,535.2 1346.5,554.1 C1285.8,577.7 1271.6,615 1257.9,651.1 C1245.5,683.7 1233.8,714.5 1187.3,734.3 C1185.1,735.2 1183.9,737.6 1184.4,739.9 C1184.9,742.2 1186.9,743.9 1189.3,743.9 L1466.3,743.9 C1469.1,743.9 1471.3,741.7 1471.3,738.9 L1471.3,413.2 C1471.3,410.6 1469.4,408.4 1466.8,408.2 Z" id="Path" fill="#F3F6E6" fill-rule="nonzero"></path>
                <g transform="translate(498.000000, 583.000000)" fill="#383A48" fill-rule="nonzero">
                    <path d="M147.9,5 C147.9,55.9 97.3,155.8 4.9,155.8 L147.9,155.8 L147.9,5 Z" id="Path"></path>
                    <path d="M147.9,160.9 L5,160.9 C2.2,160.9 0,158.7 0,155.9 C0,153.1 2.2,150.9 5,150.9 C54.7,150.9 88,121.3 107.2,96.5 C125,73.4 143,36.2 143,5 C143,2.2 145.2,0 148,0 C150.8,0 153,2.2 153,5 L153,155.8 C152.9,158.6 150.7,160.9 147.9,160.9 Z M54.5,150.9 L142.9,150.9 L142.9,52.6 C128.5,90.7 98.5,132.2 54.5,150.9 Z" id="Shape"></path>
                </g>
                <g transform="translate(1179.000000, 0.000000)" fill-rule="nonzero">
                    <rect id="Rectangle" fill="#AAC6FC" x="5" y="5.1" width="282.4" height="399.4"></rect>
                    <path d="M287.3,409.5 L5,409.5 C2.2,409.5 0,407.3 0,404.5 L0,5.1 C0,2.3 2.2,0.1 5,0.1 L287.4,0.1 C290.2,0.1 292.4,2.3 292.4,5.1 L292.4,404.5 C292.3,407.3 290.1,409.5 287.3,409.5 Z M10,399.5 L282.4,399.5 L282.4,10.1 L10,10.1 L10,399.5 Z" id="Shape" fill="#383A48"></path>
                </g>
                <g transform="translate(1271.000000, 16.000000)" fill="#383A48" fill-rule="nonzero" id="Oval">
                    <circle cx="178" cy="5.7" r="5"></circle>
                    <circle cx="178" cy="30.4" r="5"></circle>
                    <circle cx="178" cy="55.1" r="5"></circle>
                    <circle cx="178" cy="79.7" r="5"></circle>
                    <circle cx="178" cy="104.4" r="5"></circle>
                    <circle cx="178" cy="129.1" r="5"></circle>
                    <circle cx="178" cy="153.7" r="5"></circle>
                    <circle cx="178" cy="178.4" r="5"></circle>
                    <circle cx="178" cy="203.1" r="5"></circle>
                    <circle cx="178" cy="227.7" r="5"></circle>
                    <circle cx="178" cy="252.4" r="5"></circle>
                    <circle cx="178" cy="277.1" r="5"></circle>
                    <circle cx="178" cy="301.7" r="5"></circle>
                    <circle cx="178" cy="326.4" r="5"></circle>
                    <circle cx="178" cy="351.1" r="5"></circle>
                    <circle cx="178" cy="375.7" r="5"></circle>
                    <circle cx="153.3" cy="5.7" r="5"></circle>
                    <circle cx="153.3" cy="30.4" r="5"></circle>
                    <circle cx="153.3" cy="55.1" r="5"></circle>
                    <circle cx="153.3" cy="79.7" r="5"></circle>
                    <circle cx="153.3" cy="104.4" r="5"></circle>
                    <circle cx="153.3" cy="129.1" r="5"></circle>
                    <circle cx="153.3" cy="153.7" r="5"></circle>
                    <circle cx="153.3" cy="178.4" r="5"></circle>
                    <circle cx="153.3" cy="203.1" r="5"></circle>
                    <circle cx="153.3" cy="227.7" r="5"></circle>
                    <circle cx="153.3" cy="252.4" r="5"></circle>
                    <circle cx="153.3" cy="277.1" r="5"></circle>
                    <circle cx="153.3" cy="301.7" r="5"></circle>
                    <circle cx="153.3" cy="326.4" r="5"></circle>
                    <circle cx="153.3" cy="351.1" r="5"></circle>
                    <circle cx="153.3" cy="375.7" r="5"></circle>
                    <circle cx="128.7" cy="5.7" r="5"></circle>
                    <circle cx="128.7" cy="30.4" r="5"></circle>
                    <circle cx="128.7" cy="55.1" r="5"></circle>
                    <circle cx="128.7" cy="79.7" r="5"></circle>
                    <circle cx="128.7" cy="104.4" r="5"></circle>
                    <circle cx="128.7" cy="129.1" r="5"></circle>
                    <circle cx="128.7" cy="153.7" r="5"></circle>
                    <circle cx="128.7" cy="178.4" r="5"></circle>
                    <circle cx="128.7" cy="203.1" r="5"></circle>
                    <circle cx="128.7" cy="227.7" r="5"></circle>
                    <circle cx="128.7" cy="252.4" r="5"></circle>
                    <circle cx="128.7" cy="277.1" r="5"></circle>
                    <circle cx="128.7" cy="301.7" r="5"></circle>
                    <circle cx="128.7" cy="326.4" r="5"></circle>
                    <circle cx="128.7" cy="351.1" r="5"></circle>
                    <circle cx="128.7" cy="375.7" r="5"></circle>
                    <circle cx="104" cy="5.7" r="5"></circle>
                    <circle cx="104" cy="30.4" r="5"></circle>
                    <circle cx="104" cy="55.1" r="5"></circle>
                    <circle cx="104" cy="79.7" r="5"></circle>
                    <circle cx="104" cy="104.4" r="5"></circle>
                    <circle cx="104" cy="129.1" r="5"></circle>
                    <circle cx="104" cy="153.7" r="5"></circle>
                    <circle cx="104" cy="178.4" r="5"></circle>
                    <circle cx="104" cy="203.1" r="5"></circle>
                    <circle cx="104" cy="227.7" r="5"></circle>
                    <circle cx="104" cy="252.4" r="5"></circle>
                    <circle cx="104" cy="277.1" r="5"></circle>
                    <circle cx="104" cy="301.7" r="5"></circle>
                    <circle cx="104" cy="326.4" r="5"></circle>
                    <circle cx="104" cy="351.1" r="5"></circle>
                    <circle cx="104" cy="375.7" r="5"></circle>
                    <circle cx="79.3" cy="5.7" r="5"></circle>
                    <circle cx="79.3" cy="30.4" r="5"></circle>
                    <circle cx="79.3" cy="55.1" r="5"></circle>
                    <circle cx="79.3" cy="79.7" r="5"></circle>
                    <circle cx="79.3" cy="104.4" r="5"></circle>
                    <circle cx="79.3" cy="129.1" r="5"></circle>
                    <circle cx="79.3" cy="153.7" r="5"></circle>
                    <circle cx="79.3" cy="178.4" r="5"></circle>
                    <circle cx="79.3" cy="203.1" r="5"></circle>
                    <circle cx="79.3" cy="227.7" r="5"></circle>
                    <circle cx="79.3" cy="252.4" r="5"></circle>
                    <circle cx="79.3" cy="277.1" r="5"></circle>
                    <circle cx="79.3" cy="301.7" r="5"></circle>
                    <circle cx="79.3" cy="326.4" r="5"></circle>
                    <circle cx="79.3" cy="351.1" r="5"></circle>
                    <circle cx="79.3" cy="375.7" r="5"></circle>
                    <circle cx="54.7" cy="5.7" r="5"></circle>
                    <circle cx="54.7" cy="30.4" r="5"></circle>
                    <circle cx="54.7" cy="55.1" r="5"></circle>
                    <circle cx="54.7" cy="79.7" r="5"></circle>
                    <circle cx="54.7" cy="104.4" r="5"></circle>
                    <circle cx="54.7" cy="129.1" r="5"></circle>
                    <circle cx="54.7" cy="153.7" r="5"></circle>
                    <circle cx="54.7" cy="178.4" r="5"></circle>
                    <circle cx="54.7" cy="203.1" r="5"></circle>
                    <circle cx="54.7" cy="227.7" r="5"></circle>
                    <circle cx="54.7" cy="252.4" r="5"></circle>
                    <circle cx="54.7" cy="277.1" r="5"></circle>
                    <circle cx="54.7" cy="301.7" r="5"></circle>
                    <circle cx="54.7" cy="326.4" r="5"></circle>
                    <circle cx="54.7" cy="351.1" r="5"></circle>
                    <circle cx="54.7" cy="375.7" r="5"></circle>
                    <circle cx="30" cy="5.7" r="5"></circle>
                    <circle cx="30" cy="30.4" r="5"></circle>
                    <circle cx="30" cy="55.1" r="5"></circle>
                    <circle cx="30" cy="79.7" r="5"></circle>
                    <circle cx="30" cy="104.4" r="5"></circle>
                    <circle cx="30" cy="129.1" r="5"></circle>
                    <circle cx="30" cy="153.7" r="5"></circle>
                    <circle cx="30" cy="178.4" r="5"></circle>
                    <circle cx="30" cy="203.1" r="5"></circle>
                    <circle cx="30" cy="227.7" r="5"></circle>
                    <circle cx="30" cy="252.4" r="5"></circle>
                    <circle cx="30" cy="277.1" r="5"></circle>
                    <circle cx="30" cy="301.7" r="5"></circle>
                    <circle cx="30" cy="326.4" r="5"></circle>
                    <circle cx="30" cy="351.1" r="5"></circle>
                    <circle cx="30" cy="375.7" r="5"></circle>
                    <circle cx="5.3" cy="5.7" r="5"></circle>
                    <circle cx="5.3" cy="30.4" r="5"></circle>
                    <circle cx="5.3" cy="55.1" r="5"></circle>
                    <circle cx="5.3" cy="79.7" r="5"></circle>
                    <circle cx="5.3" cy="104.4" r="5"></circle>
                    <circle cx="5.3" cy="129.1" r="5"></circle>
                    <circle cx="5.3" cy="153.7" r="5"></circle>
                    <circle cx="5.3" cy="178.4" r="5"></circle>
                    <circle cx="5.3" cy="203.1" r="5"></circle>
                    <circle cx="5.3" cy="227.7" r="5"></circle>
                    <circle cx="5.3" cy="252.4" r="5"></circle>
                    <circle cx="5.3" cy="277.1" r="5"></circle>
                    <circle cx="5.3" cy="301.7" r="5"></circle>
                    <circle cx="5.3" cy="326.4" r="5"></circle>
                    <circle cx="5.3" cy="351.1" r="5"></circle>
                    <circle cx="5.3" cy="375.7" r="5"></circle>
                </g>
                <path d="M995.5,0.1 L878.9,0.1 L762.3,0.1 L645.7,0.1 L529.2,0.1 L412.6,0.1 L296,0.1 C293.2,0.1 291,2.3 291,5.1 L291,121.7 L291,238.3 L291,354.9 L291,471.5 L291,588 C291,590.8 293.2,593 296,593 L412.6,593 L529.2,593 L645.8,593 L762.4,593 L879,593 L995.6,593 C998.4,593 1000.6,590.8 1000.6,588 L1000.6,471.5 L1000.6,354.9 L1000.6,238.3 L1000.6,121.7 L1000.6,5.1 C1000.5,2.4 998.2,0.1 995.5,0.1 Z M990.5,233.3 L883.9,233.3 L883.9,126.7 L990.5,126.7 L990.5,233.3 Z M990.5,349.9 L883.9,349.9 L883.9,243.3 L990.5,243.3 L990.5,349.9 Z M301,243.3 L407.6,243.3 L407.6,349.9 L301,349.9 L301,243.3 Z M417.6,243.3 L524.2,243.3 L524.2,349.9 L417.6,349.9 L417.6,243.3 Z M534.2,243.3 L640.8,243.3 L640.8,349.9 L534.2,349.9 L534.2,243.3 Z M650.7,243.3 L757.3,243.3 L757.3,349.9 L650.7,349.9 L650.7,243.3 Z M767.3,243.3 L873.9,243.3 L873.9,349.9 L767.3,349.9 L767.3,243.3 Z M873.9,233.3 L767.3,233.3 L767.3,126.7 L873.9,126.7 L873.9,233.3 L873.9,233.3 Z M757.3,233.3 L650.7,233.3 L650.7,126.7 L757.3,126.7 L757.3,233.3 L757.3,233.3 Z M640.7,233.3 L534.2,233.3 L534.2,126.7 L640.8,126.7 L640.7,233.3 L640.7,233.3 Z M524.2,233.3 L417.6,233.3 L417.6,126.7 L524.2,126.7 L524.2,233.3 L524.2,233.3 Z M407.6,233.3 L301,233.3 L301,126.7 L407.6,126.7 L407.6,233.3 Z M301,359.9 L407.6,359.9 L407.6,466.5 L301,466.5 L301,359.9 Z M417.6,359.9 L524.2,359.9 L524.2,466.5 L417.6,466.5 L417.6,359.9 Z M534.2,359.9 L640.8,359.9 L640.8,466.5 L534.2,466.5 L534.2,359.9 Z M650.7,359.9 L757.3,359.9 L757.3,466.5 L650.7,466.5 L650.7,359.9 Z M767.3,359.9 L873.9,359.9 L873.9,466.5 L767.3,466.5 L767.3,359.9 Z M883.9,359.9 L990.5,359.9 L990.5,466.5 L883.9,466.5 L883.9,359.9 Z M990.5,116.7 L883.9,116.7 L883.9,10.1 L990.5,10.1 L990.5,116.7 Z M873.9,116.7 L767.3,116.7 L767.3,10.1 L873.9,10.1 L873.9,116.7 L873.9,116.7 Z M757.3,116.7 L650.7,116.7 L650.7,10.1 L757.3,10.1 L757.3,116.7 L757.3,116.7 Z M640.7,116.7 L534.2,116.7 L534.2,10.1 L640.8,10.1 L640.7,116.7 L640.7,116.7 Z M524.2,116.7 L417.6,116.7 L417.6,10.1 L524.2,10.1 L524.2,116.7 L524.2,116.7 Z M301,10.1 L407.6,10.1 L407.6,116.7 L301,116.7 L301,10.1 Z M301,476.5 L407.6,476.5 L407.6,583 L301,583 L301,476.5 Z M417.6,476.5 L524.2,476.5 L524.2,583 L417.6,583 L417.6,476.5 Z M534.2,476.5 L640.8,476.5 L640.8,583 L534.2,583 L534.2,476.5 Z M650.7,476.5 L757.3,476.5 L757.3,583 L650.7,583 L650.7,476.5 Z M767.3,476.5 L873.9,476.5 L873.9,583 L767.3,583 L767.3,476.5 Z M990.5,583 L883.9,583 L883.9,476.5 L990.5,476.5 L990.5,583 Z" id="Shape" fill="#7EA9EA" fill-rule="nonzero"></path>
                <path d="M746.6,183.2 L730,171.9 L740,154.5 C741,152.7 740.9,150.5 739.6,148.9 C738.3,147.3 736.2,146.6 734.2,147.2 L715,153.1 L707.6,134.4 C706.8,132.5 705,131.2 702.9,131.2 C700.8,131.2 699,132.5 698.2,134.4 L690.8,153.1 L671.6,147.2 C669.6,146.6 667.5,147.3 666.2,148.9 C664.9,150.5 664.8,152.7 665.8,154.5 L675.8,171.9 L659.2,183.2 C657.5,184.4 656.7,186.4 657.2,188.4 C657.7,190.4 659.3,191.9 661.3,192.2 L681.1,195.2 L679.6,215.2 C679.5,217.2 680.6,219.2 682.4,220.1 C683.1,220.4 683.8,220.6 684.6,220.6 C685.8,220.6 687.1,220.1 688,219.3 L702.7,205.7 L717.4,219.3 C718.9,220.7 721.1,221 723,220.1 C724.8,219.2 726,217.3 725.8,215.2 L724.3,195.2 L744.1,192.2 C746.1,191.9 747.8,190.4 748.2,188.4 C749.1,186.5 748.3,184.4 746.6,183.2 Z" id="Path" fill="#F6E049" fill-rule="nonzero"></path>
                <path d="M502.2,740.3 C501.6,742.4 499.6,743.9 497.4,743.9 L157.6,743.9 C155.4,743.9 153.4,742.4 152.8,740.3 C152.2,738.2 153,735.9 154.9,734.7 C201.9,704 228.6,671.2 236,634.3 C240.2,613.5 238.2,591.3 230.3,567.5 C224.9,551.3 214.4,534.7 203.3,517.3 C187.1,491.8 168,461.9 158.6,422.7 C154.9,407.3 152.7,390.6 152.7,372.1 C152.7,306.5 180.8,262.3 203.4,226.9 C214.5,209.4 225,192.9 230.4,176.7 C252.4,110.6 228.5,57.5 155,9.5 C153.1,8.3 152.3,6 152.9,3.9 C153.5,1.8 155.5,0.3 157.7,0.3 L497.5,0.3 C499.7,0.3 501.7,1.8 502.3,3.9 C502.9,6 502.1,8.3 500.2,9.5 C426.7,57.5 402.8,110.7 424.8,176.7 C430.2,192.9 440.7,209.5 451.8,226.9 C474.4,262.4 502.5,306.5 502.5,372.1 C502.5,437.7 474.4,481.9 451.8,517.3 C440.7,534.8 430.2,551.3 424.8,567.5 C402.8,633.6 426.7,686.7 500.2,734.7 C502,735.9 502.8,738.2 502.2,740.3 Z" id="Path" fill="#F3F6E6" fill-rule="nonzero"></path>
                <g transform="translate(1189.000000, 199.000000)" fill="#383A48" fill-rule="nonzero">
                    <polygon id="Path" points="205.3 5.8 205.3 205.5 5.6 205.5"></polygon>
                    <path d="M205.3,210.5 L5.6,210.5 C3.6,210.5 1.8,209.3 1,207.4 C0.2,205.5 0.7,203.4 2.1,202 L201.8,2.3 C203.2,0.9 205.4,0.4 207.2,1.2 C209.1,2 210.3,3.8 210.3,5.8 L210.3,205.5 C210.3,208.3 208.1,210.5 205.3,210.5 Z M17.7,200.5 L200.3,200.5 L200.3,17.9 L17.7,200.5 Z" id="Shape"></path>
                </g>
                <g transform="translate(989.000000, 0.000000)" fill-rule="nonzero">
                    <g>
                        <circle id="Oval" fill="#AAC6FC" cx="205.6" cy="204.8" r="199.7"></circle>
                        <path d="M205.6,409.5 C92.7,409.5 0.9,317.7 0.9,204.8 C0.9,91.9 92.7,0.1 205.6,0.1 C318.5,0.1 410.3,91.9 410.3,204.8 C410.3,317.7 318.5,409.5 205.6,409.5 Z M205.6,10.1 C98.2,10.1 10.9,97.4 10.9,204.8 C10.9,312.2 98.2,399.5 205.6,399.5 C313,399.5 400.3,312.2 400.3,204.8 C400.3,97.4 313,10.1 205.6,10.1 Z" id="Shape" fill="#383A48"></path>
                    </g>
                    <g transform="translate(0.000000, 103.000000)">
                        <path d="M405.3,101.8 C405.3,101.8 315.9,198.5 205.6,198.5 C95.3,198.5 5.9,101.8 5.9,101.8 C5.9,101.8 95.3,5.1 205.6,5.1 C315.9,5.1 405.3,101.8 405.3,101.8 Z" id="Path" fill="#F3F6E6"></path>
                        <path d="M205.6,203.5 C147.4,203.5 95.2,176.8 61.6,154.3 C25.4,130.1 3.1,106.2 2.2,105.2 C0.4,103.3 0.4,100.3 2.2,98.4 C3.1,97.4 25.4,73.5 61.6,49.3 C95.1,26.9 147.4,0.1 205.6,0.1 C263.8,0.1 316,26.8 349.6,49.3 C385.8,73.5 408.1,97.4 409,98.4 C410.8,100.3 410.8,103.3 409,105.2 C408.1,106.2 385.8,130.1 349.6,154.3 C316.1,176.8 263.9,203.5 205.6,203.5 Z M12.9,101.8 C20.3,109.2 39.9,127.8 67.4,146.1 C99.7,167.7 150,193.5 205.6,193.5 C261.2,193.5 311.5,167.7 343.8,146.1 C371.3,127.8 390.8,109.2 398.3,101.8 C390.9,94.4 371.3,75.8 343.8,57.5 C311.5,35.9 261.2,10.1 205.6,10.1 C149.9,10.1 99.6,35.9 67.2,57.6 C39.8,76 20.3,94.4 12.9,101.8 Z" id="Shape" fill="#383A48"></path>
                    </g>
                    <g transform="translate(135.000000, 134.000000)" fill="#383A48">
                        <circle id="Oval" cx="70.6" cy="70.8" r="65.1"></circle>
                        <path d="M70.6,141 C31.9,141 0.5,109.5 0.5,70.9 C0.5,32.3 32,0.8 70.6,0.8 C109.2,0.8 140.7,32.3 140.7,70.9 C140.7,109.5 109.3,141 70.6,141 Z M70.6,10.7 C37.4,10.7 10.5,37.7 10.5,70.8 C10.5,103.9 37.5,130.9 70.6,130.9 C103.7,130.9 130.7,103.9 130.7,70.8 C130.7,37.7 103.8,10.7 70.6,10.7 Z" id="Shape"></path>
                    </g>
                </g>
                <g transform="translate(640.000000, 399.000000)">
                    <g fill-rule="nonzero">
                        <rect id="Rectangle" fill="#F3F6E6" x="5.7" y="5.5" width="538.2" height="334.3"></rect>
                        <path d="M544,344.9 L5.7,344.9 C2.9,344.9 0.7,342.7 0.7,339.9 L0.7,5.5 C0.7,2.7 2.9,0.5 5.7,0.5 L544,0.5 C546.8,0.5 549,2.7 549,5.5 L549,339.8 C549,342.6 546.7,344.9 544,344.9 Z M10.7,334.9 L539,334.9 L539,10.5 L10.7,10.5 L10.7,334.9 Z" id="Shape" fill="#383A48"></path>
                    </g>
                    <g fill-rule="nonzero">
                        <rect id="Rectangle" fill="#AAC6FC" x="5.7" y="5.5" width="538.2" height="67.5"></rect>
                        <path d="M544,78.1 L5.7,78.1 C2.9,78.1 0.7,75.9 0.7,73.1 L0.7,5.6 C0.7,2.8 2.9,0.6 5.7,0.6 L544,0.6 C546.8,0.6 549,2.8 549,5.6 L549,73.1 C549,75.8 546.7,78.1 544,78.1 Z M10.7,68.1 L539,68.1 L539,10.6 L10.7,10.6 L10.7,68.1 Z" id="Shape" fill="#383A48"></path>
                    </g>
                    <g transform="translate(220.000000, 148.000000)">
                        <g fill-rule="nonzero">
                            <circle id="Oval" fill="#AAC6FC" cx="48.6" cy="48.9" r="43"></circle>
                            <path d="M48.6,96.9 C22.1,96.9 0.6,75.4 0.6,48.9 C0.6,22.4 22.1,0.9 48.6,0.9 C75.1,0.9 96.6,22.4 96.6,48.9 C96.6,75.4 75.1,96.9 48.6,96.9 Z M48.6,10.9 C27.6,10.9 10.6,27.9 10.6,48.9 C10.6,69.9 27.6,86.9 48.6,86.9 C69.6,86.9 86.6,69.9 86.6,48.9 C86.6,27.9 69.5,10.9 48.6,10.9 Z" id="Shape" fill="#383A48"></path>
                        </g>
                        <g transform="translate(74.000000, 74.000000)" id="Path">
                            <line x1="5" y1="5.3" x2="40.1" y2="40.4"></line>
                            <path d="M40.1,45.4 C38.8,45.4 37.5,44.9 36.6,43.9 L1.5,8.8 C-0.5,6.8 -0.5,3.7 1.5,1.7 C3.5,-0.3 6.6,-0.3 8.6,1.7 L43.7,36.8 C45.7,38.8 45.7,41.9 43.7,43.9 C42.6,44.9 41.4,45.4 40.1,45.4 Z" fill="#383A48" fill-rule="nonzero"></path>
                        </g>
                    </g>
                </g>
                <path d="M333.1,337.5 C331.8,337.5 330.5,337 329.6,336 L2.2,8.7 C0.2,6.7 0.2,3.6 2.2,1.6 C4.2,-0.4 7.3,-0.4 9.3,1.6 L336.6,329 C338.6,331 338.6,334.1 336.6,336.1 C335.7,337 334.4,337.5 333.1,337.5 Z" id="Path" fill="#383A48" fill-rule="nonzero"></path>
                <path d="M1432.3,574.6 C1431,574.6 1429.7,574.1 1428.8,573.1 L1349.1,493.4 C1347.1,491.4 1347.1,488.3 1349.1,486.3 C1351.1,484.3 1354.2,484.3 1356.2,486.3 L1435.9,566 C1437.9,568 1437.9,571.1 1435.9,573.1 C1434.8,574.1 1433.6,574.6 1432.3,574.6 Z" id="Path" fill="#383A48" fill-rule="nonzero"></path>
                <path d="M820.6,100.5 C800.2,100.5 783.6,83.9 783.6,63.5 C783.6,43.1 800.2,26.5 820.6,26.5 C841,26.5 857.6,43.1 857.6,63.5 C857.6,83.9 841,100.5 820.6,100.5 Z M820.6,36.4 C805.7,36.4 793.6,48.5 793.6,63.4 C793.6,78.3 805.7,90.4 820.6,90.4 C835.5,90.4 847.6,78.3 847.6,63.4 C847.6,48.5 835.5,36.4 820.6,36.4 Z" id="Shape" fill="#383A48" fill-rule="nonzero"></path>
                <path d="M236,634.2 C222.9,639.5 208.7,642.400148 193.7,642.400148 C131.5,642.5 81,592 81,529.7 C81,479.7 113.5,437.3 158.5,422.6 C167.9,461.8 187,491.7 203.2,517.2 C214.3,534.7 224.8,551.2 230.2,567.4 C238.2,591.3 240.2,613.4 236,634.2 Z" id="Path" fill="#383A48" fill-rule="nonzero"></path>
                <path d="M306.5,529.7 C306.5,577 277.4,617.5 236.1,634.2 C240.3,613.4 238.3,591.2 230.4,567.4 C225,551.2 214.5,534.6 203.4,517.2 C187.2,491.7 168.1,461.8 158.7,422.6 C169.8,419 181.6,417 193.9,417 C256,417 306.5,467.5 306.5,529.7 Z" id="Path" fill="#F6E049" fill-rule="nonzero"></path>
                <g transform="translate(311.000000, 124.000000)">
                    <rect id="Rectangle" fill="#383A48" fill-rule="nonzero" x="11.5" y="0.6" width="10" height="33"></rect>
                    <g transform="translate(0.000000, 12.000000)">
                        <line x1="0" y1="5" x2="33" y2="5" id="Path"></line>
                        <rect id="Rectangle" fill="#383A48" fill-rule="nonzero" x="0" y="0" width="33" height="10"></rect>
                    </g>
                </g>
                <g transform="translate(1308.000000, 647.000000)">
                    <rect id="Rectangle" fill="#383A48" fill-rule="nonzero" x="12.1" y="0.4" width="10" height="33"></rect>
                    <g transform="translate(0.000000, 11.000000)">
                        <line x1="0.7" y1="5.8" x2="33.6" y2="5.8" id="Path"></line>
                        <rect id="Rectangle" fill="#383A48" fill-rule="nonzero" x="0.7" y="0.8" width="33" height="10"></rect>
                    </g>
                </g>
            </g>
        </g>
    </g>
</svg>