<svg xmlns="http://www.w3.org/2000/svg" xmlns:xlink="http://www.w3.org/1999/xlink" width="1482" height="695" version="1.1" viewBox="0 0 1482 695"><title>abstract-customer-support</title><desc>Created with Sketch.</desc><g id="Page-1" fill="none" fill-rule="evenodd" stroke="none" stroke-width="1"><g id="abstract-customer-support" transform="translate(-219.000000, -190.000000)"><g id="Group" transform="translate(219.000000, 190.000000)"><path id="Path" fill="#F3F6E6" fill-rule="nonzero" d="M1476.4,0.8 L545.1,0.8 C543,0.8 541.2,2.1 540.4,4 C539.7,5.9 540.2,8.1 541.8,9.5 C625.4,82.7 701.8,130.8 775.4,156.4 C839.1,178.5 889.6,180.3 934.2,181.9 C972.2,183.2 1005.1,184.4 1036.2,198.5 C1070.1,213.8 1100,243.9 1130.3,293.2 C1140,309 1149.2,323.8 1158,338.1 C1201.9,409.1 1233.7,460.4 1255.6,510.3 C1268.1,538.8 1276.7,564.9 1282.5,592.5 C1288.6,621.8 1291.6,653.3 1291.6,689 C1291.6,691.8 1293.8,694 1296.6,694 L1476.3,694 C1479.1,694 1481.30328,691.8 1481.30328,689 L1481.30328,5.8 C1481.4,3 1479.2,0.8 1476.4,0.8 Z"/><path id="Path" fill="#383A48" fill-rule="nonzero" d="M1479.8,489.1 C1478.8,488.2 1477.4,487.7 1476,487.8 L1259.8,503.3 C1258.2,503.4 1256.7,504.3 1255.9,505.7 C1255.1,507.1 1255,508.8 1255.6,510.3 C1268.1,538.8 1276.7,564.9 1282.5,592.5 C1283,594.8 1285,596.5 1287.4,596.5 L1476.4,596.5 C1479.2,596.5 1481.4,594.3 1481.4,591.5 L1481.4,492.7 C1481.4,491.4 1480.9,490 1479.8,489.1 Z"/><path id="Path" fill="#F3F6E6" fill-rule="nonzero" d="M596.6,685 L357.6,511.7 C355.4,510.1 352.4,510.6 350.7,512.7 C350.5,512.9 335,532.3 310.2,530.8 C284,529.2 255.7,504.7 228.5,459.9 C200.1,413.1 162.3,396.7 125.7,380.8 C98.6,369 73,357.9 52.4,334.9 C29.1,308.8 15.8,271.4 10.4,217 C10.1,214.3 7.8,212.4 5.2,212.496231 C2.5,212.6 0.4,214.8 0.4,217.5 L0.4,689 C0.4,691.8 2.6,694 5.4,694 L593.5,694 C595.7,694 597.6,692.6 598.3,690.5 C599.1,688.5 598.4,686.3 596.6,685 Z"/><g id="Oval" fill="#383A48" fill-rule="nonzero" transform="translate(193.000000, 431.000000)"><circle cx="301.9" cy="251.8" r="5"/><circle cx="277.2" cy="227.1" r="5"/><circle cx="277.2" cy="251.8" r="5"/><circle cx="252.6" cy="202.4" r="5"/><circle cx="252.6" cy="227.1" r="5"/><circle cx="252.6" cy="251.8" r="5"/><circle cx="227.9" cy="177.8" r="5"/><circle cx="227.9" cy="202.4" r="5"/><circle cx="227.9" cy="227.1" r="5"/><circle cx="227.9" cy="251.8" r="5"/><circle cx="203.2" cy="153.1" r="5"/><circle cx="203.2" cy="177.8" r="5"/><circle cx="203.2" cy="202.4" r="5"/><circle cx="203.2" cy="227.1" r="5"/><circle cx="203.2" cy="251.8" r="5"/><circle cx="178.6" cy="128.4" r="5"/><circle cx="178.6" cy="153.1" r="5"/><circle cx="178.6" cy="177.8" r="5"/><circle cx="178.6" cy="202.4" r="5"/><circle cx="178.6" cy="227.1" r="5"/><circle cx="178.6" cy="251.8" r="5"/><circle cx="153.9" cy="103.8" r="5"/><circle cx="153.9" cy="128.4" r="5"/><circle cx="153.9" cy="153.1" r="5"/><circle cx="153.9" cy="177.8" r="5"/><circle cx="153.9" cy="202.4" r="5"/><circle cx="153.9" cy="227.1" r="5"/><circle cx="153.9" cy="251.8" r="5"/><circle cx="129.2" cy="103.8" r="5"/><circle cx="129.2" cy="128.4" r="5"/><circle cx="129.2" cy="153.1" r="5"/><circle cx="129.2" cy="177.8" r="5"/><circle cx="129.2" cy="202.4" r="5"/><circle cx="129.2" cy="227.1" r="5"/><circle cx="129.2" cy="251.8" r="5"/><circle cx="104.6" cy="79.1" r="5"/><circle cx="104.6" cy="103.8" r="5"/><circle cx="104.6" cy="128.4" r="5"/><circle cx="104.6" cy="153.1" r="5"/><circle cx="104.6" cy="177.8" r="5"/><circle cx="104.6" cy="202.4" r="5"/><circle cx="104.6" cy="227.1" r="5"/><circle cx="104.6" cy="251.8" r="5"/><circle cx="79.9" cy="54.4" r="5"/><circle cx="79.9" cy="79.1" r="5"/><circle cx="79.9" cy="103.8" r="5"/><circle cx="79.9" cy="128.4" r="5"/><circle cx="79.9" cy="153.1" r="5"/><circle cx="79.9" cy="177.8" r="5"/><circle cx="79.9" cy="202.4" r="5"/><circle cx="79.9" cy="227.1" r="5"/><circle cx="79.9" cy="251.8" r="5"/><circle cx="55.2" cy="29.8" r="5"/><circle cx="55.2" cy="54.4" r="5"/><circle cx="55.2" cy="79.1" r="5"/><circle cx="55.2" cy="103.8" r="5"/><circle cx="55.2" cy="128.4" r="5"/><circle cx="55.2" cy="153.1" r="5"/><circle cx="55.2" cy="177.8" r="5"/><circle cx="55.2" cy="202.4" r="5"/><circle cx="55.2" cy="227.1" r="5"/><circle cx="55.2" cy="251.8" r="5"/><circle cx="30.6" cy="5.1" r="5"/><circle cx="30.6" cy="29.8" r="5"/><circle cx="30.6" cy="54.4" r="5"/><circle cx="30.6" cy="79.1" r="5"/><circle cx="30.6" cy="103.8" r="5"/><circle cx="30.6" cy="128.4" r="5"/><circle cx="30.6" cy="153.1" r="5"/><circle cx="30.6" cy="177.8" r="5"/><circle cx="30.6" cy="202.4" r="5"/><circle cx="30.6" cy="227.1" r="5"/><circle cx="30.6" cy="251.8" r="5"/><circle cx="5.9" cy="5.1" r="5"/><circle cx="5.9" cy="29.8" r="5"/><circle cx="5.9" cy="54.4" r="5"/><circle cx="5.9" cy="79.1" r="5"/><circle cx="5.9" cy="103.8" r="5"/><circle cx="5.9" cy="128.4" r="5"/><circle cx="5.9" cy="153.1" r="5"/><circle cx="5.9" cy="177.8" r="5"/><circle cx="5.9" cy="202.4" r="5"/><circle cx="5.9" cy="227.1" r="5"/><circle cx="5.9" cy="251.8" r="5"/></g><g fill-rule="nonzero" transform="translate(114.000000, 43.000000)"><path id="Path" fill="#383A48" d="M588.6,493.7 L495.2,431.4 C487.2,426.1 477.9,423.9 468.9,424.7 L377,424.7 C376.3,424.7 375.7,424.8 375.1,425.1 C355.6,406.2 332.1,380.7 312.6,351.1 C276.4,296.1 259,232.7 255.2,217.5 L294,192.9 C308.1,184 315.3,167.6 312.4,151.2 L293.1,40.5 C289.7,20.9 274.1,5.9 254.4,3.3 L243.2,1.8 C235.2,0.7 227.3,0.4 219.3,0.7 C218.9,0.6 218.6,0.6 218.2,0.6 L125.6,0.6 C123.5,0.6 121.6,1.9 120.9,3.9 C120.2,5.9 120.8,8.1 122.5,9.5 L144.9,27.7 C119.5,47 102,74.6 95.4,105.9 C91.8,122.9 91.6,140.1 94.7,157.1 C102.8,201.3 129,315.9 198,424.9 C226.9,470.5 263.9,514.1 308.1,554.6 C336.8,580.9 367.3,604.9 401.6,628.2 C415.9,637.9 431.8,644.7 448.8,648.3 C457.9,650.2 467.1,651.2 476.3,651.2 C500.2,651.2 523.7,644.7 544.6,632.2 C573.4,614.9 594.4,587.5 603.8,555.2 L606.9,544.3 C612.6,525 605.1,504.8 588.6,493.7 Z"/><g fill="#383A48" transform="translate(377.000000, 570.000000)"><polygon id="Path" points="5.5 76 102.7 76 59.6 5.7"/><path id="Shape" d="M102.7,81 L5.5,81 C3.6,81 1.9,79.9 1,78.2 C0.2,76.5 0.4,74.5 1.5,72.9 L55.6,2.6 C56.6,1.3 58.2,0.6 59.8,0.7 C61.4,0.8 62.9,1.7 63.8,3.1 L106.9,73.4 C107.8,74.9 107.9,76.9 107,78.5 C106.2,80.1 104.5,81 102.7,81 Z M15.7,71 L93.8,71 L59.2,14.5 L15.7,71 Z"/></g><g><path id="Path" fill="#AAC6FC" d="M312.5,624 C326.2,633.3 341.6,639.9 357.9,643.3 L357.9,643.3 C423.4,657.1 488.5,618 507,553.7 L510.1,542.8 C515,525.9 508.3,507.7 493.7,497.9 L400.3,435.6 C388.2,427.5 372.4,427.5 360.3,435.6 L319.2,463.1 C319.2,463.1 258.8,418 216.5,353.7 C174.2,289.4 157.6,215 157.6,215 L199.4,188.5 C211.7,180.7 218.1,166.3 215.6,151.9 L196.3,41.2 C193.3,23.8 179.4,10.4 161.9,8 L150.7,6.5 C84.4,-2.5 22.3,41.2 8.5,106.7 L8.5,106.7 C5.1,123 4.8,139.7 7.8,156 C17.4,208.4 44.5,317.9 110.4,422 C176.3,526.1 268.5,594 312.5,624 Z"/><path id="Shape" fill="#383A48" d="M384.4,651 C375.2,651 366,650 356.9,648.1 C339.9,644.5 324.1,637.8 309.7,628 C275.5,604.8 244.9,580.7 216.2,554.4 C172,514 135,470.4 106.1,424.8 C37.1,315.8 10.8,201.2 2.8,157 C-0.3,140 -0.1,122.7 3.5,105.8 C10.4,72.9 29.4,44.1 56.9,24.7 C84.4,5.3 117.9,-2.8 151.2,1.7 L162.4,3.2 C182.1,5.9 197.6,20.9 201.1,40.4 L220.4,151.1 C223.3,167.5 216,183.9 202,192.8 L163.2,217.4 C167,232.6 184.4,296 220.6,351 C256.8,406 307.1,447.3 319.3,457 L357.4,431.5 C371.2,422.2 389.1,422.2 403,431.5 L496.4,493.8 C512.9,504.8 520.4,525.1 514.9,544.2 L511.8,555.1 C502.5,587.4 481.5,614.8 452.6,632.1 C431.8,644.6 408.3,651 384.4,651 Z M133.2,10.5 C108,10.5 83.5,18.2 62.6,32.9 C37.2,50.8 19.6,77.4 13.2,107.9 C9.9,123.6 9.7,139.5 12.6,155.3 C20.6,198.9 46.5,312 114.5,419.5 C142.9,464.3 179.4,507.3 223,547.2 C251.3,573.1 281.5,596.9 315.3,619.9 C328.6,628.9 343.2,635.1 358.9,638.4 C389.3,644.8 420.8,639.5 447.4,623.5 C474.1,607.5 493.5,582.2 502.1,552.3 L505.2,541.4 C509.5,526.5 503.7,510.7 490.8,502.1 L397.4,439.8 C386.9,432.8 373.4,432.8 362.9,439.8 L321.8,467.3 C320,468.5 317.7,468.4 316,467.2 C315.4,466.7 254.4,420.8 212.1,356.6 C169.8,292.3 152.6,217 152.5,216.3 C152,214.2 152.9,212.1 154.7,211 L196.5,184.5 C207.1,177.8 212.6,165.4 210.4,153 L191.1,42.3 C188.4,27 176.3,15.3 160.9,13.2 L149.7,11.7 C144.3,10.8 138.7,10.5 133.2,10.5 Z"/></g></g><g id="Shape" fill="#383A48" fill-rule="nonzero"><path d="M128.4,145.5 C116.5,145.5 105.3,140.8 95.5,132 C85.8,140.8 74.5,145.5 62.6,145.5 C45.5,145.5 29.6,135.6 17.8,117.8 C6.4,100.6 0.2,77.7 0.2,53.5 C0.2,50.7 2.4,48.5 5.2,48.5 C8,48.5 10.2,50.7 10.2,53.5 C10.2,98.7 33.7,135.5 62.6,135.5 C72,135.5 80.9,131.6 88.6,124.8 C86.9,122.7 85.2,120.5 83.6,118.1 C72.2,100.9 66,78.2 66,54 C66,20.3 81,0.1 95.5,0.1 C103.4,0.1 111,5.9 116.6,16.1 C122.1,26.1 125.1,39.6 125.1,54 C125.1,78.2 118.8,100.9 107.4,118.1 C105.8,120.5 104.1,122.7 102.4,124.8 C110.1,131.6 118.9,135.5 128.4,135.5 C131.2,135.5 133.4,137.7 133.4,140.5 C133.4,143.3 131.2,145.5 128.4,145.5 Z M95.5,10.1 C87.3,10.1 76,26.8 76,54 C76,79.6 83.6,102.5 95.6,117.5 C107.5,102.5 115.2,79.6 115.2,54 C115.1,26.8 103.7,10.1 95.5,10.1 Z" transform="translate(701.000000, 548.000000)"/><path d="M259.9,145.5 C248,145.5 236.8,140.8 227,132 C217.3,140.8 206,145.5 194.1,145.5 C191.3,145.5 189.1,143.3 189.1,140.5 C189.1,137.7 191.3,135.5 194.1,135.5 C203.5,135.5 212.4,131.6 220.1,124.8 C218.4,122.7 216.7,120.5 215.1,118.1 C203.7,101 197.4,78.2 197.4,54 C197.4,39.5 200.4,26 205.9,16.1 C211.5,6 219.2,0.1 227,0.1 C241.5,0.1 256.5,20.3 256.5,54 C256.5,78.2 250.2,100.9 238.8,118.1 C237.2,120.5 235.5,122.7 233.8,124.8 C241.5,131.6 250.3,135.5 259.8,135.5 C262.6,135.5 264.8,137.7 264.8,140.5 C264.8,143.3 262.6,145.5 259.9,145.5 Z M227,10.1 C218.8,10.1 207.4,26.8 207.4,54 C207.4,79.6 215,102.5 227,117.5 C238.9,102.5 246.6,79.6 246.6,54 C246.6,26.8 235.2,10.1 227,10.1 Z" transform="translate(701.000000, 548.000000)"/><path d="M194.1,145.5 C182.2,145.5 171,140.8 161.2,132 C151.5,140.8 140.2,145.5 128.3,145.5 C125.5,145.5 123.3,143.3 123.3,140.5 C123.3,137.7 125.5,135.5 128.3,135.5 C137.7,135.5 146.6,131.6 154.3,124.8 C152.6,122.7 150.9,120.5 149.3,118.1 C137.9,101 131.6,78.2 131.6,54 C131.6,20.3 146.6,0.1 161.1,0.1 C169,0.1 176.6,5.9 182.2,16.1 C187.7,26.1 190.7,39.6 190.7,54 C190.7,78.2 184.4,100.9 173,118.1 C171.4,120.5 169.7,122.7 168,124.8 C175.7,131.6 184.5,135.5 194,135.5 C196.8,135.5 199,137.7 199,140.5 C199,143.3 196.9,145.5 194.1,145.5 Z M161.2,10.1 C153,10.1 141.7,26.8 141.7,54 C141.7,79.6 149.3,102.5 161.3,117.5 C173.2,102.5 180.9,79.6 180.9,54 C180.8,26.8 169.4,10.1 161.2,10.1 Z" transform="translate(701.000000, 548.000000)"/></g><g fill-rule="nonzero" transform="translate(532.000000, 194.000000)"><g><path id="Path" fill="#F3F6E6" d="M200.9,5.1 L106.6,5.1 C51,5.1 5.9,50.2 5.9,105.8 L5.9,105.8 C5.9,147.4 31.1,183.1 67.1,198.4 L67.1,271.8 L130,206.5 L200.9,206.5 C256.5,206.5 301.6,161.4 301.6,105.8 L301.6,105.8 C301.5,50.1 256.5,5.1 200.9,5.1 Z"/><path id="Shape" fill="#383A48" d="M67.1,276.8 C66.5,276.8 65.8,276.7 65.2,276.4 C63.3,275.6 62.1,273.8 62.1,271.8 L62.1,201.7 C24.8,184.4 0.9,147.1 0.9,105.8 C0.9,47.5 48.3,0.1 106.6,0.1 L200.9,0.1 C259.2,0.1 306.6,47.5 306.6,105.8 C306.6,164.1 259.2,211.5 200.9,211.5 L132.2,211.5 L70.7,275.3 C69.7,276.2 68.4,276.8 67.1,276.8 Z M106.6,10.1 C53.8,10.1 10.9,53 10.9,105.8 C10.9,144.2 33.7,178.8 69.1,193.8 C70.9,194.6 72.1,196.4 72.1,198.4 L72.1,259.4 L126.4,203 C127.3,202 128.6,201.5 130,201.5 L200.9,201.5 C253.7,201.5 296.6,158.6 296.6,105.8 C296.6,53 253.7,10.1 200.9,10.1 L106.6,10.1 L106.6,10.1 Z"/></g><g id="Oval" fill="#383A48" transform="translate(75.000000, 89.000000)"><circle cx="16.7" cy="16.8" r="15.9"/><circle cx="74.1" cy="16.8" r="15.9"/><circle cx="131.5" cy="16.8" r="15.9"/></g></g><g transform="translate(49.000000, 61.000000)"><rect id="Rectangle" width="10" height="33" x="11.6" y=".7" fill="#383A48" fill-rule="nonzero"/><g transform="translate(0.000000, 12.000000)"><line id="Path" x1=".1" x2="33" y1="5.2" y2="5.2"/><rect id="Rectangle" width="33" height="10" x=".1" y=".2" fill="#383A48" fill-rule="nonzero"/></g></g><g transform="translate(776.000000, 50.000000)"><rect id="Rectangle" width="10" height="33" x="12.2" y=".8" fill="#383A48" fill-rule="nonzero"/><g transform="translate(0.000000, 12.000000)"><line id="Path" x1=".7" x2="33.7" y1="5.3" y2="5.3"/><rect id="Rectangle" width="33" height="10" x=".7" y=".3" fill="#383A48" fill-rule="nonzero"/></g></g><g transform="translate(1141.000000, 602.000000)"><rect id="Rectangle" width="10" height="33" x="11.5" y=".2" fill="#383A48" fill-rule="nonzero"/><g transform="translate(0.000000, 11.000000)"><line id="Path" x1=".1" x2="33" y1="5.7" y2="5.7"/><rect id="Rectangle" width="33" height="10" x=".1" y=".7" fill="#383A48" fill-rule="nonzero"/></g></g><g fill-rule="nonzero"><g transform="translate(1005.000000, 188.000000)"><rect id="Rectangle" width="465.7" height="331.6" x="5.8" y="5.8" fill="#F3F6E6"/><path id="Shape" fill="#383A48" d="M471.4,342.4 L5.7,342.4 C2.9,342.4 0.7,340.2 0.7,337.4 L0.7,5.8 C0.7,3 2.9,0.8 5.7,0.8 L471.4,0.8 C474.2,0.8 476.4,3 476.4,5.8 L476.4,337.4 C476.4,340.1 474.2,342.4 471.4,342.4 Z M10.8,332.4 L466.5,332.4 L466.5,10.8 L10.8,10.8 L10.8,332.4 Z"/></g><g transform="translate(1005.000000, 188.000000)"><rect id="Rectangle" width="465.7" height="94" x="5.8" y="5.8" fill="#F6E049"/><path id="Shape" fill="#383A48" d="M476.4,104.8 L0.7,104.8 L0.7,0.8 L476.4,0.8 L476.4,104.8 L476.4,104.8 Z M10.8,94.8 L466.5,94.8 L466.5,10.8 L10.8,10.8 L10.8,94.8 Z"/></g></g><g fill-rule="nonzero"><g transform="translate(941.000000, 94.000000)"><rect id="Rectangle" width="465.7" height="331.6" x="5.9" y="5.8" fill="#F3F6E6"/><path id="Shape" fill="#383A48" d="M471.6,342.3 L5.9,342.3 C3.1,342.3 0.9,340.1 0.9,337.3 L0.9,5.8 C0.9,3 3.1,0.8 5.9,0.8 L471.6,0.8 C474.4,0.8 476.6,3 476.6,5.8 L476.6,337.4 C476.6,340.1 474.4,342.3 471.6,342.3 Z M10.9,332.3 L466.6,332.3 L466.6,10.8 L10.9,10.8 L10.9,332.3 L10.9,332.3 Z"/></g><g transform="translate(941.000000, 94.000000)"><rect id="Rectangle" width="465.7" height="94" x="5.9" y="5.8" fill="#F6E049"/><path id="Shape" fill="#383A48" d="M476.6,104.8 L0.9,104.8 L0.9,0.8 L476.6,0.8 L476.6,104.8 L476.6,104.8 Z M10.9,94.8 L466.6,94.8 L466.6,10.8 L10.9,10.8 L10.9,94.8 L10.9,94.8 Z"/></g></g><g><g fill-rule="nonzero" transform="translate(878.000000, 0.000000)"><rect id="Rectangle" width="465.7" height="331.6" x="5.1" y="5.8" fill="#F3F6E6"/><path id="Shape" fill="#383A48" d="M470.8,342.3 L5.1,342.3 C2.3,342.3 0.1,340.1 0.1,337.3 L0.1,5.8 C0.1,3 2.3,0.8 5.1,0.8 L470.8,0.8 C473.6,0.8 475.8,3 475.8,5.8 L475.8,337.4 C475.8,340.1 473.5,342.3 470.8,342.3 Z M10.1,332.3 L465.8,332.3 L465.8,10.8 L10.1,10.8 L10.1,332.3 L10.1,332.3 Z"/></g><g fill-rule="nonzero" transform="translate(878.000000, 0.000000)"><rect id="Rectangle" width="465.7" height="94" x="5.1" y="5.8" fill="#F6E049"/><path id="Shape" fill="#383A48" d="M475.8,104.8 L0.1,104.8 L0.1,0.8 L475.8,0.8 L475.8,104.8 Z M10.1,94.8 L465.8,94.8 L465.8,10.8 L10.1,10.8 L10.1,94.8 L10.1,94.8 Z"/></g><g fill-rule="nonzero" transform="translate(878.000000, 0.000000) translate(73.000000, 155.000000)"><rect id="Rectangle" width="319.4" height="56.6" x="5.2" y="5.8" fill="#F3F6E6"/><path id="Shape" fill="#383A48" d="M324.6,67.5 L5.2,67.5 C2.4,67.5 0.2,65.3 0.2,62.5 L0.2,5.9 C0.2,3.1 2.4,0.9 5.2,0.9 L324.6,0.9 C327.4,0.9 329.6,3.1 329.6,5.9 L329.6,62.5 C329.6,65.2 327.4,67.5 324.6,67.5 Z M10.2,57.5 L319.6,57.5 L319.6,10.9 L10.2,10.9 L10.2,57.5 L10.2,57.5 Z"/></g><g transform="translate(878.000000, 0.000000) translate(306.000000, 35.000000)"><g><g transform="translate(97.000000, 2.000000)"><line id="Path" x1="4.1" x2="27.4" y1="4.1" y2="27.4"/><rect id="Rectangle" width="10" height="33" x="10.697" y="-.674" fill="#383A48" fill-rule="nonzero" transform="translate(15.696750, 15.825710) rotate(-45.000000) translate(-15.696750, -15.825710)"/></g><g transform="translate(97.000000, 2.000000)"><line id="Path" x1="4.1" x2="27.4" y1="27.4" y2="4.1"/><rect id="Rectangle" width="33.002" height="10.001" x="-.647" y="10.666" fill="#383A48" fill-rule="nonzero" transform="translate(15.854430, 15.665860) rotate(-44.995949) translate(-15.854430, -15.665860)"/></g></g><path id="Shape" fill="#383A48" fill-rule="nonzero" d="M81.3,35.5 L45.8,35.5 L45.8,0 L81.3,0 L81.3,35.5 Z M55.8,25.5 L71.3,25.5 L71.3,10 L55.8,10 L55.8,25.5 Z"/><rect id="Rectangle" width="25.5" height="10" x=".1" y="25.5" fill="#383A48" fill-rule="nonzero"/></g></g><g id="Path" transform="translate(959.000000, 258.000000)"><line x1="5" x2="215" y1="215.8" y2="5.7"/><path fill="#4053FA" fill-rule="nonzero" d="M5,220.8 C3.7,220.8 2.4,220.3 1.5,219.3 C-0.5,217.3 -0.5,214.2 1.5,212.2 L211.5,2.2 C213.5,0.2 216.6,0.2 218.6,2.2 C220.6,4.2 220.6,7.3 218.6,9.3 L8.6,219.3 C7.6,220.3 6.3,220.8 5,220.8 Z"/></g><g id="Rectangle" fill="#383A48" fill-rule="nonzero" transform="translate(485.000000, 110.000000)"><rect width="10" height="36.999" x="14.258" y="48.449" transform="translate(19.258350, 66.948450) rotate(-60.045466) translate(-19.258350, -66.948450)"/><rect width="37.002" height="10.001" x="124.102" y="14.708" transform="translate(142.603210, 19.708720) rotate(-69.268938) translate(-142.603210, -19.708720)"/><rect width="10" height="33.999" x="70.675" y="11.7" transform="translate(75.674770, 28.699410) rotate(-19.658064) translate(-75.674770, -28.699410)"/></g><path id="Path" fill="#F6E049" fill-rule="nonzero" d="M123.2,571.4 C102.3,550.5 72.3,544.5 45,555.8 C17.7,567.1 0.7,592.5 0.6,622.1 L0.6,694 L72.5,694 C102.1,694 127.5,677 138.8,649.7 C150.1,622.4 144.1,592.4 123.2,571.4 Z"/></g></g></g></svg>