<svg xmlns="http://www.w3.org/2000/svg" xmlns:xlink="http://www.w3.org/1999/xlink" width="1410" height="767" version="1.1" viewBox="0 0 1410 767"><title>abstract-delivery</title><desc>Created with Sketch.</desc><g id="Page-1" fill="none" fill-rule="evenodd" stroke="none" stroke-width="1"><g id="abstract-delivery" transform="translate(-255.000000, -154.000000)"><g id="Group" transform="translate(255.000000, 154.000000)"><path id="Path" fill="#7FD6C2" fill-rule="nonzero" d="M376.4,27.2 C375.8,25 373.8,23.5 371.6,23.5 L5.7,23.5 C2.9,23.5 0.7,25.7 0.7,28.5 L0.7,326.6 C0.7,328 1.3,329.4 2.3,330.3 C3.2,331.1 4.4,331.6 5.7,331.6 C5.9,331.6 6,331.6 6.2,331.6 C81.5,324 136,304.5 178,270.3 C215,240 237.2,201.7 258.7,164.5 C286,117.2 314.3,68.2 374.2,32.7 C376.1,31.6 377,29.3 376.4,27.2 Z"/><path id="Path" fill="#F3F6E6" fill-rule="nonzero" d="M1409.20359,29.5 L1409.20359,490.5 C1409.20359,564.2 1380.4,633.6 1328.3,685.7 C1276.2,737.9 1206.8,766.6 1133.1,766.6 L5.6,766.6 C3.2,766.6 1.1,764.8 0.7,762.4 C0.3,760 1.7,757.6 4,756.8 C42.2,743.4 97.4,714.6 161.2,681.3 C247.6,636.2 355.1,580.1 461.2,541.6 C585.7,496.3 684.8,483.4 764,502.1 C815.4,514.3 863.5,498.5 915.5,452.5 C929.5,440.1 943.2,426 956.8,410.7 C957.9,409.5 959,408.2 960.1,407 C961.2,405.8 962.3,404.5 963.3,403.2 C992.8,368.9 1021.6,329 1051.5,287.6 C1055.5,282.1 1059.4,276.6 1063.4,271.1 C1064.4,269.8 1065.4,268.4 1066.3,267.1 C1067.3,265.7 1068.3,264.3 1069.3,262.9 C1111.8,204.5 1156.1,146.2 1205.8,101.8 C1270.6,44.1 1335.6,18.8 1404.6,24.6 C1407.3,24.9 1409.3,27 1409.20359,29.5 Z"/><path id="Path" fill="#AAC6FC" d="M1404.7,24.6 C1335.7,18.8 1270.7,44.1 1205.9,101.8 C1149.2,152.4 1099.5,221.2 1051.5,287.6 C1005.7,351.1 962.4,411 915.5,452.5 C863.5,498.5 815.4,514.3 764,502.1 C684.8,483.4 585.7,496.3 461.2,541.6 C355.1,580.1 247.6,636.2 161.2,681.3 C97.4,714.6 42.2,743.4 4,756.8 C1.7,757.6 0.3,760 0.7,762.4 C1.1,764.8 3.2,766.6 5.6,766.6 L1133.1,766.6 C1206.8,766.6 1276.2,737.9 1328.3,685.7 C1380.4,633.6 1409.20359,564.2 1409.20359,490.5 L1409.20359,29.5 C1409.3,27 1407.3,24.9 1404.7,24.6 Z"/><g id="Path" fill="#383A48" fill-rule="nonzero"><path d="M368.7,253 L240.4,381.3 L4.1,145 C5.2,143.8 6.3,142.5 7.3,141.2 C36.8,106.9 65.6,67 95.5,25.6 C99.5,20.1 103.4,14.6 107.4,9.1 C108.4,7.8 109.4,6.4 110.3,5.1 L368.7,253 Z" transform="translate(956.000000, 262.000000)"/><path d="M372.3,249.3 L113.4,0.9 C112.4,2.3 111.4,3.7 110.4,5.1 C109.4,6.4 108.4,7.8 107.5,9.1 L361.7,253.1 L240.5,374.3 L7.4,141.2 C6.3,142.5 5.2,143.7 4.2,145 C3.1,146.2 2,147.5 0.9,148.7 L237,384.8 C237.9,385.8 239.2,386.3 240.5,386.3 C241.8,386.3 243.1,385.8 244.1,384.8 L372.4,256.5 C373.4,255.5 373.9,254.3 373.9,252.9 C373.8,251.5 373.3,250.2 372.3,249.3 Z" transform="translate(956.000000, 262.000000)"/></g><g><g transform="translate(1293.000000, 229.000000)"><line id="Path" x1="3.8" x2="27.1" y1="4.3" y2="27.6"/><rect id="Rectangle" width="10" height="33" x="10.515" y="-.502" fill="#383A48" fill-rule="nonzero" transform="translate(15.514950, 15.997450) rotate(-45.000000) translate(-15.514950, -15.997450)"/></g><g transform="translate(1293.000000, 229.000000)"><line id="Path" x1="3.8" x2="27.1" y1="27.6" y2="4.3"/><rect id="Rectangle" width="33.002" height="10.001" x="-.821" y="10.853" fill="#383A48" fill-rule="nonzero" transform="translate(15.680440, 15.853570) rotate(-45.004051) translate(-15.680440, -15.853570)"/></g></g><g><g transform="translate(415.000000, 78.000000)"><line id="Path" x1="3.9" x2="27.2" y1="3.8" y2="27.1"/><rect id="Rectangle" width="10" height="33" x="10.583" y="-1.112" fill="#383A48" fill-rule="nonzero" transform="translate(15.582500, 15.387580) rotate(-45.000000) translate(-15.582500, -15.387580)"/></g><g transform="translate(415.000000, 78.000000)"><line id="Path" x1="3.9" x2="27.2" y1="27.1" y2="3.8"/><rect id="Rectangle" width="33" height="10" x="-.912" y="10.382" fill="#383A48" fill-rule="nonzero" transform="translate(15.588100, 15.381580) rotate(-45.000000) translate(-15.588100, -15.381580)"/></g></g><g fill-rule="nonzero" transform="translate(86.000000, 222.000000)"><g><rect id="Rectangle" width="378.9" height="378.9" x="5.6" y="5.8" fill="#F6E049"/><path id="Shape" fill="#383A48" d="M384.4,389.6 L5.6,389.6 C2.8,389.6 0.6,387.4 0.6,384.6 L0.6,5.8 C0.6,3 2.8,0.8 5.6,0.8 L384.5,0.8 C387.3,0.8 389.5,3 389.5,5.8 L389.5,384.7 C389.4,387.4 387.2,389.6 384.4,389.6 Z M10.6,379.6 L379.5,379.6 L379.5,10.8 L10.6,10.8 L10.6,379.6 Z"/></g><g transform="translate(379.000000, 0.000000)"><polygon id="Path" fill="#AAC6FC" points="5.4 5.8 147.4 157.2 147.4 536.1 5.4 384.6"/><path id="Shape" fill="#383A48" d="M147.4,541.1 C146,541.1 144.7,540.5 143.8,539.5 L1.8,388.1 C0.9,387.2 0.4,386 0.4,384.7 L0.4,5.8 C0.4,3.7 1.7,1.9 3.6,1.1 C5.5,0.3 7.7,0.8 9.1,2.3 L151,153.8 C151.9,154.7 152.4,155.9 152.4,157.2 L152.4,536.1 C152.4,538.2 151.1,540 149.2,540.7 C148.6,541 148,541.1 147.4,541.1 Z M10.4,382.7 L142.3,523.5 L142.3,159.2 L10.4,18.4 L10.4,382.7 Z"/></g><circle id="Oval" cx="498.1" cy="153.4" r="5" fill="#383A48"/><circle id="Oval" cx="498.1" cy="197.4" r="5" fill="#383A48"/><circle id="Oval" cx="498.1" cy="241.4" r="5" fill="#383A48"/><circle id="Oval" cx="498.1" cy="285.4" r="5" fill="#383A48"/><circle id="Oval" cx="498.1" cy="329.4" r="5" fill="#383A48"/><circle id="Oval" cx="498.1" cy="373.4" r="5" fill="#383A48"/><circle id="Oval" cx="498.1" cy="417.4" r="5" fill="#383A48"/><circle id="Oval" cx="498.1" cy="461.4" r="5" fill="#383A48"/><circle id="Oval" cx="454.1" cy="109.4" r="5" fill="#383A48"/><circle id="Oval" cx="454.1" cy="153.4" r="5" fill="#383A48"/><circle id="Oval" cx="454.1" cy="197.4" r="5" fill="#383A48"/><circle id="Oval" cx="454.1" cy="241.4" r="5" fill="#383A48"/><circle id="Oval" cx="454.1" cy="285.4" r="5" fill="#383A48"/><circle id="Oval" cx="454.1" cy="329.4" r="5" fill="#383A48"/><circle id="Oval" cx="454.1" cy="373.4" r="5" fill="#383A48"/><circle id="Oval" cx="454.1" cy="417.4" r="5" fill="#383A48"/><circle id="Oval" cx="410.1" cy="65.4" r="5" fill="#383A48"/><circle id="Oval" cx="410.1" cy="109.4" r="5" fill="#383A48"/><circle id="Oval" cx="410.1" cy="153.4" r="5" fill="#383A48"/><circle id="Oval" cx="410.1" cy="197.4" r="5" fill="#383A48"/><circle id="Oval" cx="410.1" cy="241.4" r="5" fill="#383A48"/><circle id="Oval" cx="410.1" cy="285.4" r="5" fill="#383A48"/><circle id="Oval" cx="410.1" cy="329.4" r="5" fill="#383A48"/><circle id="Oval" cx="410.1" cy="373.4" r="5" fill="#383A48"/><g fill="#383A48" transform="translate(0.000000, 379.000000)"><polygon id="Path" points="5.6 5.6 147.5 157.1 526.4 157.1 384.4 5.6"/><path id="Shape" d="M526.4,162.1 L147.5,162.1 C146.1,162.1 144.8,161.5 143.9,160.5 L1.9,9.1 C0.5,7.6 0.2,5.5 1,3.7 C1.8,1.9 3.6,0.7 5.6,0.7 L384.5,0.7 C385.9,0.7 387.2,1.3 388.1,2.3 L530,153.7 C531.4,155.2 531.7,157.3 530.9,159.1 C530.2,160.9 528.4,162.1 526.4,162.1 Z M149.7,152.1 L514.9,152.1 L382.3,10.6 L17.1,10.6 L149.7,152.1 Z"/></g><path id="Path" fill="#F3F6E6" d="M234.6,142.6 L155.4,142.6 C148.8,142.6 143.5,137.3 143.5,130.7 L143.5,10.9 L246.4,10.9 L246.4,130.8 C246.5,137.3 241.1,142.6 234.6,142.6 Z"/></g><g><g fill-rule="nonzero" transform="translate(672.000000, 349.000000)"><rect id="Rectangle" width="169.9" height="221.8" x="5.3" y="5.4" fill="#7FD6C2"/><path id="Shape" fill="#383A48" d="M175.2,232.2 L5.3,232.2 C2.5,232.2 0.3,230 0.3,227.2 L0.3,5.4 C0.3,2.6 2.5,0.4 5.3,0.4 L175.2,0.4 C178,0.4 180.2,2.6 180.2,5.4 L180.2,227.2 C180.2,230 177.9,232.2 175.2,232.2 Z M10.3,222.2 L170.2,222.2 L170.2,10.4 L10.3,10.4 L10.3,222.2 Z"/></g><g fill-rule="nonzero" transform="translate(672.000000, 349.000000) translate(170.000000, 0.000000)"><polygon id="Path" fill="#AAC6FC" points="5.2 5.4 68.8 73.3 68.8 295.1 5.2 227.2"/><path id="Shape" fill="#383A48" d="M68.8,300.1 C67.4,300.1 66.1,299.5 65.2,298.5 L1.6,230.6 C0.7,229.7 0.2,228.5 0.2,227.2 L0.2,5.4 C0.2,3.3 1.5,1.5 3.4,0.8 C5.3,-5.22915045e-14 7.5,0.5 8.9,2 L72.5,69.9 C73.4,70.8 73.9,72 73.9,73.3 L73.9,295.1 C73.9,297.2 72.6,299 70.7,299.7 C70,300 69.4,300.1 68.8,300.1 Z M10.2,225.3 L63.8,282.5 L63.8,75.3 L10.2,18.1 L10.2,225.3 Z"/></g><g fill="#383A48" fill-rule="nonzero" transform="translate(672.000000, 349.000000) translate(0.000000, 222.000000)"><polygon id="Path" points="5.3 5.2 68.9 73.1 238.8 73.1 175.2 5.2"/><path id="Shape" d="M238.8,78.1 L68.9,78.1 C67.5,78.1 66.2,77.5 65.3,76.5 L1.7,8.6 C0.3,7.1 -1.11965992e-13,5 0.8,3.2 C1.6,1.4 3.4,0.2 5.4,0.2 L175.3,0.2 C176.7,0.2 178,0.8 178.9,1.8 L242.5,69.7 C243.9,71.2 244.2,73.3 243.4,75.1 C242.6,77 240.8,78.1 238.8,78.1 Z M71.1,68.1 L227.3,68.1 L173,10.2 L16.8,10.2 L71.1,68.1 Z"/></g><g transform="translate(672.000000, 349.000000) translate(1.000000, 2.000000)"><line id="Path" x1="4.3" x2="174.2" y1="3.4" y2="225.2"/><rect id="Rectangle" width="10.001" height="279.414" x="84.259" y="-25.381" fill="#383A48" fill-rule="nonzero" transform="translate(89.258800, 114.325500) rotate(-37.442836) translate(-89.258800, -114.325500)"/></g><g transform="translate(672.000000, 349.000000) translate(1.000000, 2.000000)"><line id="Path" x1="4.3" x2="174.2" y1="225.2" y2="3.4"/><rect id="Rectangle" width="279.392" height="10" x="-50.523" y="109.377" fill="#383A48" fill-rule="nonzero" transform="translate(89.172660, 114.377320) rotate(-52.553680) translate(-89.172660, -114.377320)"/></g></g><g fill-rule="nonzero" transform="translate(808.000000, 0.000000)"><polygon id="Path" fill="#FFF" points="239.9 125.4 304.6 55 5.5 5.4 55.1 315.3 117.3 248 397.5 528.2 525.8 399.9"/><g fill="#383A48"><path id="Path" d="M244.2,134.6 C243,134.6 241.7,134.1 240.7,133.2 L236.4,129 C234.4,127.1 234.3,124 236.2,122 L240.3,117.6 C242.2,115.6 245.3,115.4 247.4,117.3 C249.5,119.2 249.6,122.3 247.7,124.4 L246.9,125.2 L247.7,126 C249.7,127.9 249.8,131.1 247.8,133.1 C246.9,134.1 245.6,134.6 244.2,134.6 Z"/><path id="Path" d="M267.5,100.3 C266.3,100.3 265.1,99.9 264.1,99 C262.1,97.1 261.9,94 263.8,91.9 L273.2,81.6 C275.1,79.6 278.2,79.4 280.3,81.3 C282.3,83.2 282.5,86.3 280.6,88.4 L271.2,98.7 C270.2,99.8 268.9,100.3 267.5,100.3 Z"/><path id="Path" d="M300.5,64.4 C299.3,64.4 298.1,64 297.1,63.1 C295.7,61.8 295.2,59.8 295.7,58.1 C294.2,57 293.4,55.2 293.7,53.2 C294.2,50.5 296.7,48.6 299.5,49.1 L305.4,50.1 C307.2,50.4 308.7,51.7 309.3,53.4 C309.9,55.1 309.5,57.1 308.3,58.4 L304.2,62.8 C303.2,63.9 301.8,64.4 300.5,64.4 Z"/><path id="Shape" d="M268.1,53.9 C267.8,53.9 267.6,53.9 267.3,53.8 L255.1,51.8 C252.4,51.3 250.5,48.8 251,46 C251.5,43.3 254,41.4 256.8,41.9 L269,43.9 C271.7,44.4 273.6,46.9 273.1,49.7 C272.6,52.2 270.5,53.9 268.1,53.9 Z M225.3,46.8 C225,46.8 224.8,46.8 224.5,46.7 L212.3,44.7 C209.6,44.2 207.7,41.7 208.2,38.9 C208.7,36.2 211.2,34.3 214,34.8 L226.2,36.8 C228.9,37.3 230.8,39.8 230.3,42.6 C229.8,45.1 227.7,46.8 225.3,46.8 Z M182.5,39.7 C182.2,39.7 182,39.7 181.7,39.6 L169.5,37.6 C166.8,37.1 164.9,34.6 165.4,31.8 C165.9,29.1 168.4,27.2 171.2,27.7 L183.4,29.7 C186.1,30.2 188,32.7 187.5,35.5 C187,38 184.9,39.7 182.5,39.7 Z M139.7,32.6 C139.4,32.6 139.2,32.6 138.9,32.5 L126.7,30.5 C124,30 122.1,27.5 122.6,24.7 C123.1,22 125.6,20.1 128.4,20.6 L140.6,22.6 C143.3,23.1 145.2,25.6 144.7,28.4 C144.3,30.9 142.1,32.6 139.7,32.6 Z M97,25.5 C96.7,25.5 96.5,25.5 96.2,25.4 L84,23.4 C81.3,22.9 79.4,20.4 79.9,17.6 C80.4,14.8 82.9,13 85.7,13.5 L97.9,15.5 C100.6,16 102.5,18.5 102,21.3 C101.5,23.8 99.4,25.5 97,25.5 Z M54.2,18.4 C53.9,18.4 53.7,18.4 53.4,18.3 L41.2,16.3 C38.5,15.8 36.6,13.3 37.1,10.5 C37.6,7.8 40.1,5.9 42.9,6.4 L55.1,8.4 C57.8,8.9 59.7,11.4 59.2,14.2 C58.7,16.7 56.6,18.4 54.2,18.4 Z"/><path id="Path" d="M6.4,16.3 C4,16.3 1.9,14.5 1.5,12.1 L0.6,6.2 C0.3,4.6 0.9,3 2,1.9 C3.1,0.8 4.8,0.2 6.3,0.5 L12.2,1.5 C14.9,2 16.8,4.5 16.3,7.3 C15.9,9.7 13.8,11.5 11.4,11.5 C11.4,13.9 9.6,16 7.2,16.4 C6.9,16.3 6.7,16.3 6.4,16.3 Z"/><path id="Shape" d="M49,282.6 C46.6,282.6 44.5,280.8 44.1,278.4 L42.1,265.7 C41.7,263 43.5,260.4 46.2,260 C48.9,259.6 51.5,261.4 51.9,264.1 L53.9,276.8 C54.3,279.5 52.5,282.1 49.8,282.5 C49.6,282.6 49.3,282.6 49,282.6 Z M41.9,238.2 C39.5,238.2 37.4,236.4 37,234 L35,221.3 C34.6,218.6 36.4,216 39.1,215.6 C41.8,215.2 44.4,217 44.8,219.7 L46.8,232.4 C47.2,235.1 45.4,237.7 42.7,238.1 C42.5,238.2 42.2,238.2 41.9,238.2 Z M34.8,193.8 C32.4,193.8 30.3,192 29.9,189.6 L27.9,176.9 C27.5,174.2 29.3,171.6 32,171.2 C34.7,170.8 37.3,172.6 37.7,175.3 L39.7,188 C40.1,190.7 38.3,193.3 35.6,193.7 C35.4,193.8 35.1,193.8 34.8,193.8 Z M27.7,149.5 C25.3,149.5 23.2,147.7 22.8,145.3 L20.8,132.6 C20.4,129.9 22.2,127.3 24.9,126.9 C27.6,126.5 30.2,128.3 30.6,131 L32.6,143.7 C33,146.4 31.2,149 28.5,149.4 C28.3,149.4 28,149.5 27.7,149.5 Z M20.6,105.1 C18.2,105.1 16.1,103.3 15.7,100.9 L13.7,88.2 C13.3,85.5 15.1,82.9 17.8,82.5 C20.5,82.1 23.1,83.9 23.5,86.6 L25.5,99.3 C25.9,102 24.1,104.6 21.4,105 C21.1,105 20.9,105.1 20.6,105.1 Z M13.5,60.7 C11.1,60.7 9,58.9 8.6,56.5 L6.6,43.8 C6.2,41.1 8,38.5 10.7,38.1 C13.4,37.7 16,39.5 16.4,42.2 L18.4,54.9 C18.8,57.6 17,60.2 14.3,60.6 C14,60.7 13.8,60.7 13.5,60.7 Z"/><path id="Path" d="M55.1,320.3 C54.6,320.3 54.1,320.2 53.7,320.1 C51.9,319.5 50.5,318 50.2,316.1 L49.3,310.2 C48.9,307.5 50.7,304.9 53.4,304.5 C55.2,304.2 56.8,304.9 57.9,306.1 C59.5,305.7 61.3,306.1 62.6,307.3 C64.6,309.2 64.7,312.3 62.9,314.4 L58.8,318.8 C57.8,319.7 56.5,320.3 55.1,320.3 Z"/><path id="Path" d="M81.7,291.5 C80.5,291.5 79.3,291.1 78.3,290.2 C76.3,288.3 76.2,285.2 78,283.1 L87,273.4 C88.9,271.4 92,271.3 94.1,273.1 C96.1,275 96.2,278.1 94.4,280.2 L85.4,289.9 C84.4,291 83,291.5 81.7,291.5 Z"/><path id="Path" d="M113.3,257.4 C112.1,257.4 110.9,257 109.9,256.1 C107.9,254.2 107.8,251.1 109.6,249 L113.7,244.6 C114.6,243.6 115.9,243 117.3,243 C118.7,242.9 120,243.5 120.9,244.5 L125.1,248.7 C127.1,250.7 127.1,253.8 125.1,255.8 C123.1,257.8 120,257.8 118,255.8 L117.4,255.2 L116.9,255.8 C115.9,256.9 114.6,257.4 113.3,257.4 Z"/><path id="Shape" d="M371,506.7 C369.7,506.7 368.4,506.2 367.5,505.2 L358.6,496.3 C356.6,494.3 356.6,491.2 358.6,489.2 C360.6,487.2 363.7,487.2 365.7,489.2 L374.6,498.1 C376.6,500.1 376.6,503.2 374.6,505.2 C373.5,506.2 372.3,506.7 371,506.7 Z M339.8,475.5 C338.5,475.5 337.2,475 336.3,474 L327.4,465.1 C325.4,463.1 325.4,460 327.4,458 C329.4,456 332.5,456 334.5,458 L343.4,466.9 C345.4,468.9 345.4,472 343.4,474 C342.4,475 341.1,475.5 339.8,475.5 Z M308.6,444.3 C307.3,444.3 306,443.8 305.1,442.8 L296.2,433.9 C294.2,431.9 294.2,428.8 296.2,426.8 C298.2,424.8 301.3,424.8 303.3,426.8 L312.2,435.7 C314.2,437.7 314.2,440.8 312.2,442.8 C311.2,443.8 309.9,444.3 308.6,444.3 Z M277.5,413.1 C276.2,413.1 274.9,412.6 274,411.6 L265.1,402.7 C263.1,400.7 263.1,397.6 265.1,395.6 C267.1,393.6 270.2,393.6 272.2,395.6 L281.1,404.5 C283.1,406.5 283.1,409.6 281.1,411.6 C280,412.6 278.7,413.1 277.5,413.1 Z M246.3,381.9 C245,381.9 243.7,381.4 242.8,380.4 L233.9,371.5 C231.9,369.5 231.9,366.4 233.9,364.4 C235.9,362.4 239,362.4 241,364.4 L249.9,373.3 C251.9,375.3 251.9,378.4 249.9,380.4 C248.8,381.5 247.6,381.9 246.3,381.9 Z M215.1,350.8 C213.8,350.8 212.5,350.3 211.6,349.3 L202.7,340.4 C200.7,338.4 200.7,335.3 202.7,333.3 C204.7,331.3 207.8,331.3 209.8,333.3 L218.7,342.2 C220.7,344.2 220.7,347.3 218.7,349.3 C217.7,350.3 216.4,350.8 215.1,350.8 Z M183.9,319.6 C182.6,319.6 181.3,319.1 180.4,318.1 L171.5,309.2 C169.5,307.2 169.5,304.1 171.5,302.1 C173.5,300.1 176.6,300.1 178.6,302.1 L187.5,311 C189.5,313 189.5,316.1 187.5,318.1 C186.5,319.1 185.2,319.6 183.9,319.6 Z M152.8,288.4 C151.5,288.4 150.2,287.9 149.3,286.9 L140.4,278 C138.4,276 138.4,272.9 140.4,270.9 C142.4,268.9 145.5,268.9 147.5,270.9 L156.4,279.8 C158.4,281.8 158.4,284.9 156.4,286.9 C155.3,287.9 154,288.4 152.8,288.4 Z"/><path id="Path" d="M397.5,533.2 C396.2,533.2 394.9,532.7 394,531.7 L389.8,527.5 C387.8,525.5 387.8,522.4 389.8,520.4 C391.8,518.4 394.9,518.4 396.9,520.4 L397.6,521.1 L398.3,520.4 C400.3,518.4 403.4,518.4 405.4,520.4 C407.4,522.4 407.4,525.5 405.4,527.5 L401.2,531.7 C400.1,532.6 398.8,533.2 397.5,533.2 Z"/><path id="Shape" d="M424.8,505.9 C423.5,505.9 422.2,505.4 421.3,504.4 C419.3,502.4 419.3,499.3 421.3,497.3 L430.5,488.1 C432.5,486.1 435.6,486.1 437.6,488.1 C439.6,490.1 439.6,493.2 437.6,495.2 L428.4,504.4 C427.3,505.4 426.1,505.9 424.8,505.9 Z M457,473.6 C455.7,473.6 454.4,473.1 453.5,472.1 C451.5,470.1 451.5,467 453.5,465 L462.7,455.8 C464.7,453.8 467.8,453.8 469.8,455.8 C471.8,457.8 471.8,460.9 469.8,462.9 L460.6,472.1 C459.6,473.1 458.3,473.6 457,473.6 Z M489.3,441.4 C488,441.4 486.7,440.9 485.8,439.9 C483.8,437.9 483.8,434.8 485.8,432.8 L495,423.6 C497,421.6 500.1,421.6 502.1,423.6 C504.1,425.6 504.1,428.7 502.1,430.7 L492.9,439.9 C491.9,440.9 490.6,441.4 489.3,441.4 Z"/><path id="Path" d="M521.6,409.1 C520.3,409.1 519,408.6 518.1,407.6 C516.1,405.6 516.1,402.5 518.1,400.5 L518.7,399.9 L518.1,399.3 C516.1,397.4 516,394.2 518,392.2 C519.9,390.2 523.1,390.1 525.1,392.1 L529.4,396.3 C530.4,397.2 530.9,398.5 530.9,399.9 C530.9,401.3 530.4,402.5 529.4,403.5 L525.2,407.7 C524.1,408.6 522.8,409.1 521.6,409.1 Z"/><path id="Shape" d="M498.7,378.9 C497.5,378.9 496.2,378.4 495.2,377.5 L486.1,368.8 C484.1,366.9 484,363.7 486,361.7 C487.9,359.7 491.1,359.6 493.1,361.6 L502.2,370.3 C504.2,372.2 504.3,375.4 502.3,377.4 C501.4,378.4 500.1,378.9 498.7,378.9 Z M466.9,348.3 C465.7,348.3 464.4,347.8 463.4,346.9 L454.3,338.2 C452.3,336.3 452.2,333.1 454.2,331.1 C456.1,329.1 459.3,329 461.3,331 L470.4,339.7 C472.4,341.6 472.5,344.8 470.5,346.8 C469.6,347.8 468.2,348.3 466.9,348.3 Z M435.1,317.8 C433.9,317.8 432.6,317.3 431.6,316.4 L422.5,307.7 C420.5,305.8 420.4,302.6 422.4,300.6 C424.3,298.6 427.5,298.5 429.5,300.5 L438.6,309.2 C440.6,311.1 440.7,314.3 438.7,316.3 C437.7,317.3 436.4,317.8 435.1,317.8 Z M403.3,287.3 C402.1,287.3 400.8,286.8 399.8,285.9 L390.7,277.2 C388.7,275.3 388.6,272.1 390.6,270.1 C392.5,268.1 395.7,268 397.7,270 L406.8,278.7 C408.8,280.6 408.9,283.8 406.9,285.8 C405.9,286.8 404.6,287.3 403.3,287.3 Z M371.5,256.7 C370.3,256.7 369,256.2 368,255.3 L358.9,246.6 C356.9,244.7 356.8,241.5 358.8,239.5 C360.8,237.5 363.9,237.4 365.9,239.4 L375,248.1 C377,250 377.1,253.2 375.1,255.2 C374.1,256.2 372.8,256.7 371.5,256.7 Z M339.7,226.2 C338.5,226.2 337.2,225.7 336.2,224.8 L327.1,216.1 C325.1,214.2 325,211 327,209 C328.9,207 332.1,206.9 334.1,208.9 L343.2,217.6 C345.2,219.5 345.3,222.7 343.3,224.7 C342.3,225.7 341,226.2 339.7,226.2 Z M307.9,195.7 C306.7,195.7 305.4,195.2 304.4,194.3 L295.3,185.6 C293.3,183.7 293.2,180.5 295.2,178.5 C297.1,176.5 300.3,176.4 302.3,178.4 L311.4,187.1 C313.4,189 313.5,192.2 311.5,194.2 C310.5,195.2 309.2,195.7 307.9,195.7 Z M276.1,165.1 C274.9,165.1 273.6,164.6 272.6,163.7 L263.5,155 C261.5,153.1 261.4,149.9 263.4,147.9 C265.3,145.9 268.5,145.8 270.5,147.8 L279.6,156.5 C281.6,158.4 281.7,161.6 279.7,163.6 C278.7,164.6 277.4,165.1 276.1,165.1 Z"/></g></g><g id="Path" transform="translate(975.000000, 580.000000)"><line x1="5.6" x2="137.6" y1="5.7" y2="137.7"/><path fill="#383A48" fill-rule="nonzero" d="M137.6,142.7 C136.3,142.7 135,142.2 134.1,141.2 L2.1,9.2 C0.1,7.2 0.1,4.1 2.1,2.1 C4.1,0.1 7.2,0.1 9.2,2.1 L141.2,134.1 C143.2,136.1 143.2,139.2 141.2,141.2 C140.2,142.2 138.9,142.7 137.6,142.7 Z"/></g><g id="Path" transform="translate(945.000000, 668.000000)"><line x1="5.8" x2="44.8" y1="5.9" y2="44.9"/><path fill="#383A48" fill-rule="nonzero" d="M44.8,49.9 C43.5,49.9 42.2,49.4 41.3,48.4 L2.3,9.4 C0.3,7.4 0.3,4.3 2.3,2.3 C4.3,0.3 7.4,0.3 9.4,2.3 L48.4,41.3 C50.4,43.3 50.4,46.4 48.4,48.4 C47.3,49.4 46,49.9 44.8,49.9 Z"/></g><g id="Path" transform="translate(106.000000, 88.000000)"><line x1="6" x2="62.3" y1="5.4" y2="61.7"/><path fill="#383A48" fill-rule="nonzero" d="M62.3,66.7 C61,66.7 59.7,66.2 58.8,65.2 L2.4,9 C0.4,7 0.4,3.9 2.4,1.9 C4.4,-0.1 7.5,-0.1 9.5,1.9 L65.8,58.2 C67.8,60.2 67.8,63.3 65.8,65.3 C64.8,66.2 63.6,66.7 62.3,66.7 Z"/></g><g fill-rule="nonzero"><g fill="#383A48" transform="translate(524.000000, 39.000000) translate(13.000000, 13.000000)"><path id="Path" d="M93.1,157.7 L5.3,69.9 L69.7,5.5 L157.5,93.3 C175.3,111.1 175.3,139.9 157.5,157.7 L157.5,157.7 C139.7,175.5 110.9,175.5 93.1,157.7 Z"/><path id="Shape" d="M125.3,176 C112.4,176 99.4,171.1 89.6,161.2 L1.8,73.4 C-0.2,71.4 -0.2,68.3 1.8,66.3 L66.2,1.9 C67.1,1 68.4,0.4 69.7,0.4 C71,0.4 72.3,0.9 73.2,1.9 L161,89.7 C180.7,109.4 180.7,141.5 161,161.2 C151.2,171.1 138.2,176 125.3,176 Z M96.6,154.2 C112.4,170 138.1,170 153.9,154.2 C161.6,146.5 165.8,136.4 165.8,125.5 C165.8,114.6 161.6,104.5 153.9,96.8 L69.6,12.5 L12.3,69.8 L96.6,154.2 Z"/></g><g transform="translate(524.000000, 39.000000)"><circle id="Oval" cx="50.5" cy="50.7" r="45.5" fill="#F6E049"/><path id="Shape" fill="#383A48" d="M50.5,101.2 C37.6,101.2 24.6,96.3 14.8,86.4 C-4.9,66.7 -4.9,34.6 14.8,14.9 C34.5,-4.8 66.6,-4.8 86.3,14.9 C106,34.6 106,66.7 86.3,86.4 L86.3,86.4 C76.4,96.3 63.4,101.2 50.5,101.2 Z M50.5,10.2 C40.1,10.2 29.7,14.2 21.8,22.1 C6,37.9 6,63.6 21.8,79.4 C37.6,95.2 63.3,95.2 79.1,79.4 L79.1,79.4 C94.9,63.6 94.9,37.9 79.1,22.1 C71.3,14.2 60.9,10.2 50.5,10.2 Z"/></g></g></g></g></g></svg>