<?xml version="1.0" encoding="UTF-8"?>
<svg width="1452px" height="825px" viewBox="0 0 1452 825" version="1.1" xmlns="http://www.w3.org/2000/svg" xmlns:xlink="http://www.w3.org/1999/xlink">
    <!-- Generator: Sketch 59.1 (86144) - https://sketch.com -->
    <title>abstract-bad-gateway</title>
    <desc>Created with Sketch.</desc>
    <g id="Page-1" stroke="none" stroke-width="1" fill="none" fill-rule="evenodd">
        <g id="abstract-bad-gateway" transform="translate(-254.000000, -101.000000)">
            <g id="Group" transform="translate(254.000000, 101.000000)">
                <g transform="translate(0.000000, 70.000000)" fill-rule="nonzero">
                    <path d="M366.2,5.9 L366.2,290.9 C242.7,189.6 52.8,196.5 7.9,68.4 C-2.8,37.8 20,5.9 52.4,5.9 L366.2,5.9 Z" id="Path" stroke="#383A48" stroke-width="10" fill="#D0D1E4"></path>
                    <g transform="translate(0.000000, 54.000000)">
                        <path d="M366.2,236.9 L366.2,695.4 L205.9,695.4 C95.1,695.4 5.2,605.6 5.2,494.7 L5.2,7.6 L5.2,6 C44.6,142.8 240.1,133.4 366.2,236.9 Z" id="Path" fill="#E0719E"></path>
                        <path d="M366.2,700.4 L205.9,700.4 C92.5,700.4 0.2,608.1 0.2,494.7 L0.2,7.6 L0.2,6 C0.2,3.5 2,1.4 4.5,1 C7,0.6 9.3,2.2 10,4.6 C20.4,40.6 42.2,68.4 78.7,92 C111.7,113.4 152.6,128.7 195.9,144.9 C255.8,167.4 317.7,190.6 369.3,233 C370.5,233.9 371.103143,235.4 371.103143,236.9 L371.103143,695.4 C371.2,698.1 368.9,700.4 366.2,700.4 Z M10.2,32.9 L10.2,494.7 C10.2,602.6 98,690.4 205.9,690.4 L361.2,690.4 L361.2,239.3 C311.2,198.9 250.8,176.3 192.4,154.4 C115.5,125.4 42.3,98 10.2,32.9 Z" id="Shape" fill="#383A48"></path>
                    </g>
                    <g transform="translate(2.000000, 0.000000)">
                        <path d="M63.9,143.3 C2.3,95.3 74.3,87.5 121,87.5 C160,87.5 364.2,87.5 364.2,87.5 L364.2,5.9 L51.4,5.9 C18.6,5.9 -3.7,39.2 8.7,69.5 C18.3,92.7 34.9,119.1 63.9,143.3 Z" id="Path" fill="#F3F6E6"></path>
                        <path d="M60.9,147.2 C54.1,141.9 48.6,136.9 44.5,132.1 C26.9,114.1 13.3,93.7 4.1,71.3 C-2.4,55.5 -0.6,37.7 8.9,23.5 C18.4,9.3 34.3,0.8 51.4,0.8 L369.2,0.8 L369.2,92.4 L121,92.4 C71.1,92.4 49.1,99 45.5,109.6 C44.1,113.5 46.3,118.9 51.7,125.2 C56.5,130.1 61.6,134.8 67.1,139.4 L60.9,147.2 Z M51.4,10.9 C37.6,10.9 24.9,17.7 17.2,29.2 C9.5,40.8 8,54.8 13.3,67.6 C19.1,81.6 26.6,94.7 35.9,107 C36,106.8 36,106.7 36.1,106.5 C41.6,90.6 61.9,82.6 121,82.6 L359.2,82.6 L359.2,11 L51.4,11 L51.4,10.9 Z" id="Shape" fill="#383A48"></path>
                    </g>
                    <path d="M274.9,24.3 L257.3,24.3 L246,24.3 L246,35.6 L246,53.2 L246,64.5 L257.3,64.5 L274.9,64.5 L286.2,64.5 L286.2,53.2 L286.2,35.6 L286.2,24.3 L274.9,24.3 Z M274.9,53.1 L257.3,53.1 L257.3,35.5 L274.9,35.5 L274.9,53.1 Z" id="Shape" fill="#383A48"></path>
                    <g transform="translate(304.000000, 26.000000)" fill="#383A48" id="Rectangle">
                        <rect transform="translate(19.141350, 18.363120) rotate(-45.000000) translate(-19.141350, -18.363120) " x="13.4914042" y="-1.68668772" width="11.2998916" height="40.0996154"></rect>
                        <rect transform="translate(19.165150, 18.379320) rotate(-45.000000) translate(-19.165150, -18.379320) " x="-0.88465772" y="12.7293742" width="40.0996154" height="11.2998916"></rect>
                    </g>
                    <rect id="Rectangle" fill="#383A48" x="187.3" y="53.1" width="40.1" height="11.3"></rect>
                </g>
                <path d="M347.4,824.4 L1330.5,824.4 C1361.4,824.4 1386.4,799.4 1386.4,768.5 L1386.4,227.5 L347.4,824.4 Z" id="Path" fill="#F3F6E6" fill-rule="nonzero"></path>
                <g transform="translate(998.000000, 663.000000)">
                    <rect id="Rectangle" fill="#383A48" fill-rule="nonzero" x="11.6" y="0.5" width="10" height="33"></rect>
                    <g transform="translate(0.000000, 12.000000)">
                        <line x1="0.1" y1="5" x2="33" y2="5" id="Path"></line>
                        <rect id="Rectangle" fill="#383A48" fill-rule="nonzero" x="0.1" y="0" width="33" height="10"></rect>
                    </g>
                </g>
                <path d="M1200.1,689.2 C1199.7,689.2 1199.2,689.1 1198.8,689 C1196.1,688.3 1194.6,685.5 1195.3,682.9 L1201.2,661.2 C1203.5,652.8 1209,645.7 1216.6,641.4 C1224.2,637.1 1233,636 1241.4,638.3 L1261.1,643.7 C1267,645.3 1273.1,644.5 1278.4,641.5 C1283.7,638.5 1287.5,633.6 1289.1,627.8 L1294.5,608.1 C1299.3,590.7 1317.3,580.4 1334.7,585.2 L1354.4,590.6 C1366.5,593.9 1379,586.8 1382.3,574.7 L1387.7,555 C1392.5,537.6 1410.5,527.3 1427.9,532.1 L1447.7,537.5 C1450.4,538.2 1451.9,541 1451.2,543.6 C1450.5,546.3 1447.7,547.8 1445.1,547.1 L1425.3,541.7 C1419.4,540.1 1413.3,540.9 1408,543.9 C1402.7,546.9 1398.9,551.8 1397.3,557.6 L1391.9,577.3 C1387.1,594.7 1369.1,605 1351.7,600.2 L1332,594.8 C1319.9,591.5 1307.4,598.6 1304.1,610.7 L1298.7,630.4 C1296.4,638.8 1290.9,645.9 1283.3,650.2 C1275.7,654.5 1266.9,655.6 1258.5,653.3 L1238.8,647.9 C1232.9,646.3 1226.8,647.1 1221.5,650.1 C1216.2,653.1 1212.4,658 1210.8,663.8 L1204.9,685.5 C1204.3,687.7 1202.3,689.2 1200.1,689.2 Z" id="Path" fill="#383A48" fill-rule="nonzero"></path>
                <path d="M1009.6,814.4 C929.5,814.4 861.2,806.8 800.7,791.1 C742.4,776 692.3,753.5 647.7,722.6 C568.2,667.4 506.1,585.3 446.4,456.4 C428.3,417.3 403.1,384.8 369.4,357.1 C367.9,355.9 365.8,355.6 364.1,356.4 C362.4,357.2 361.2,359 361.2,360.9 L361.2,819.4 C361.2,822.2 363.4,824.4 366.2,824.4 L1009.6,824.4 C1012.4,824.4 1014.6,822.2 1014.6,819.4 C1014.6,816.6 1012.3,814.4 1009.6,814.4 Z" id="Path" fill="#383A48" fill-rule="nonzero"></path>
                <g transform="translate(179.000000, 0.000000)" fill-rule="nonzero">
                    <g transform="translate(0.000000, 485.000000)">
                        <circle id="Oval" fill="#F6E049" cx="169.8" cy="169.8" r="164.6"></circle>
                        <path d="M169.8,339.4 C76.3,339.4 0.2,263.3 0.2,169.8 C0.2,76.3 76.3,0.2 169.8,0.2 C263.3,0.2 339.4,76.3 339.4,169.8 C339.4,263.3 263.3,339.4 169.8,339.4 Z M169.8,10.2 C81.8,10.2 10.2,81.8 10.2,169.8 C10.2,257.8 81.8,329.4 169.8,329.4 C257.8,329.4 329.4,257.8 329.4,169.8 C329.4,81.8 257.8,10.2 169.8,10.2 Z" id="Shape" fill="#383A48"></path>
                    </g>
                    <g transform="translate(3.000000, 528.000000)" fill="#383A48" id="Oval">
                        <circle cx="252.2" cy="5" r="5"></circle>
                        <circle cx="252.2" cy="29.7" r="5"></circle>
                        <circle cx="252.2" cy="54.4" r="5"></circle>
                        <circle cx="252.2" cy="79" r="5"></circle>
                        <circle cx="252.2" cy="103.7" r="5"></circle>
                        <circle cx="252.2" cy="128.4" r="5"></circle>
                        <circle cx="252.2" cy="153" r="5"></circle>
                        <circle cx="252.2" cy="177.7" r="5"></circle>
                        <circle cx="252.2" cy="202.4" r="5"></circle>
                        <circle cx="252.2" cy="227" r="5"></circle>
                        <circle cx="252.2" cy="251.7" r="5"></circle>
                        <circle cx="227.5" cy="5" r="5"></circle>
                        <circle cx="227.5" cy="29.7" r="5"></circle>
                        <circle cx="227.5" cy="54.4" r="5"></circle>
                        <circle cx="227.5" cy="79" r="5"></circle>
                        <circle cx="227.5" cy="103.7" r="5"></circle>
                        <circle cx="227.5" cy="128.4" r="5"></circle>
                        <circle cx="227.5" cy="153" r="5"></circle>
                        <circle cx="227.5" cy="177.7" r="5"></circle>
                        <circle cx="227.5" cy="202.4" r="5"></circle>
                        <circle cx="227.5" cy="227" r="5"></circle>
                        <circle cx="227.5" cy="251.7" r="5"></circle>
                        <circle cx="202.8" cy="5" r="5"></circle>
                        <circle cx="202.8" cy="29.7" r="5"></circle>
                        <circle cx="202.8" cy="54.4" r="5"></circle>
                        <circle cx="202.8" cy="79" r="5"></circle>
                        <circle cx="202.8" cy="103.7" r="5"></circle>
                        <circle cx="202.8" cy="128.4" r="5"></circle>
                        <circle cx="202.8" cy="153" r="5"></circle>
                        <circle cx="202.8" cy="177.7" r="5"></circle>
                        <circle cx="202.8" cy="202.4" r="5"></circle>
                        <circle cx="202.8" cy="227" r="5"></circle>
                        <circle cx="202.8" cy="251.7" r="5"></circle>
                        <circle cx="202.8" cy="276.4" r="5"></circle>
                        <circle cx="178.2" cy="5" r="5"></circle>
                        <circle cx="178.2" cy="29.7" r="5"></circle>
                        <circle cx="178.2" cy="54.4" r="5"></circle>
                        <circle cx="178.2" cy="79" r="5"></circle>
                        <circle cx="178.2" cy="103.7" r="5"></circle>
                        <circle cx="178.2" cy="128.4" r="5"></circle>
                        <circle cx="178.2" cy="153" r="5"></circle>
                        <circle cx="178.2" cy="177.7" r="5"></circle>
                        <circle cx="178.2" cy="202.4" r="5"></circle>
                        <circle cx="178.2" cy="227" r="5"></circle>
                        <circle cx="178.2" cy="251.7" r="5"></circle>
                        <circle cx="178.2" cy="276.4" r="5"></circle>
                        <circle cx="153.5" cy="5" r="5"></circle>
                        <circle cx="153.5" cy="29.7" r="5"></circle>
                        <circle cx="153.5" cy="54.4" r="5"></circle>
                        <circle cx="153.5" cy="79" r="5"></circle>
                        <circle cx="153.5" cy="103.7" r="5"></circle>
                        <circle cx="153.5" cy="128.4" r="5"></circle>
                        <circle cx="153.5" cy="153" r="5"></circle>
                        <circle cx="153.5" cy="177.7" r="5"></circle>
                        <circle cx="153.5" cy="202.4" r="5"></circle>
                        <circle cx="153.5" cy="227" r="5"></circle>
                        <circle cx="153.5" cy="251.7" r="5"></circle>
                        <circle cx="153.5" cy="276.4" r="5"></circle>
                        <circle cx="128.8" cy="5" r="5"></circle>
                        <circle cx="128.8" cy="29.7" r="5"></circle>
                        <circle cx="128.8" cy="54.4" r="5"></circle>
                        <circle cx="128.8" cy="79" r="5"></circle>
                        <circle cx="128.8" cy="103.7" r="5"></circle>
                        <circle cx="128.8" cy="128.4" r="5"></circle>
                        <circle cx="128.8" cy="153" r="5"></circle>
                        <circle cx="128.8" cy="177.7" r="5"></circle>
                        <circle cx="128.8" cy="202.4" r="5"></circle>
                        <circle cx="128.8" cy="227" r="5"></circle>
                        <circle cx="128.8" cy="251.7" r="5"></circle>
                        <circle cx="128.8" cy="276.4" r="5"></circle>
                        <circle cx="104.2" cy="5" r="5"></circle>
                        <circle cx="104.2" cy="29.7" r="5"></circle>
                        <circle cx="104.2" cy="54.4" r="5"></circle>
                        <circle cx="104.2" cy="79" r="5"></circle>
                        <circle cx="104.2" cy="103.7" r="5"></circle>
                        <circle cx="104.2" cy="128.4" r="5"></circle>
                        <circle cx="104.2" cy="153" r="5"></circle>
                        <circle cx="104.2" cy="177.7" r="5"></circle>
                        <circle cx="104.2" cy="202.4" r="5"></circle>
                        <circle cx="104.2" cy="227" r="5"></circle>
                        <circle cx="104.2" cy="251.7" r="5"></circle>
                        <circle cx="79.5" cy="5" r="5"></circle>
                        <circle cx="79.5" cy="29.7" r="5"></circle>
                        <circle cx="79.5" cy="54.4" r="5"></circle>
                        <circle cx="79.5" cy="79" r="5"></circle>
                        <circle cx="79.5" cy="103.7" r="5"></circle>
                        <circle cx="79.5" cy="128.4" r="5"></circle>
                        <circle cx="79.5" cy="153" r="5"></circle>
                        <circle cx="79.5" cy="177.7" r="5"></circle>
                        <circle cx="79.5" cy="202.4" r="5"></circle>
                        <circle cx="79.5" cy="227" r="5"></circle>
                        <circle cx="79.5" cy="251.7" r="5"></circle>
                        <circle cx="54.8" cy="29.7" r="5"></circle>
                        <circle cx="54.8" cy="54.4" r="5"></circle>
                        <circle cx="54.8" cy="79" r="5"></circle>
                        <circle cx="54.8" cy="103.7" r="5"></circle>
                        <circle cx="54.8" cy="128.4" r="5"></circle>
                        <circle cx="54.8" cy="153" r="5"></circle>
                        <circle cx="54.8" cy="177.7" r="5"></circle>
                        <circle cx="54.8" cy="202.4" r="5"></circle>
                        <circle cx="54.8" cy="227" r="5"></circle>
                        <circle cx="30.2" cy="54.4" r="5"></circle>
                        <circle cx="30.2" cy="79" r="5"></circle>
                        <circle cx="30.2" cy="103.7" r="5"></circle>
                        <circle cx="30.2" cy="128.4" r="5"></circle>
                        <circle cx="30.2" cy="153" r="5"></circle>
                        <circle cx="30.2" cy="177.7" r="5"></circle>
                        <circle cx="30.2" cy="202.4" r="5"></circle>
                        <circle cx="5.5" cy="128.4" r="5"></circle>
                    </g>
                    <g transform="translate(101.000000, 415.000000)">
                        <circle id="Oval" fill="#F6E049" cx="181.4" cy="181.9" r="176"></circle>
                        <path d="M181.4,362.9 C81.6,362.9 0.4,281.7 0.4,181.9 C0.4,82.1 81.6,0.9 181.4,0.9 C281.2,0.9 362.4,82.1 362.4,181.9 C362.4,281.7 281.2,362.9 181.4,362.9 Z M181.4,11 C87.1,11 10.4,87.7 10.4,182 C10.4,276.3 87.1,353 181.4,353 C275.7,353 352.4,276.3 352.4,182 C352.4,87.7 275.7,11 181.4,11 Z" id="Shape" fill="#383A48"></path>
                    </g>
                    <g transform="translate(114.000000, 468.000000)" fill="#383A48" id="Oval">
                        <circle cx="262.2" cy="5.4" r="5"></circle>
                        <circle cx="262.2" cy="49.4" r="5"></circle>
                        <circle cx="262.2" cy="93.4" r="5"></circle>
                        <circle cx="262.2" cy="137.4" r="5"></circle>
                        <circle cx="262.2" cy="181.4" r="5"></circle>
                        <circle cx="262.2" cy="225.4" r="5"></circle>
                        <circle cx="218.2" cy="5.4" r="5"></circle>
                        <circle cx="218.2" cy="49.4" r="5"></circle>
                        <circle cx="218.2" cy="93.4" r="5"></circle>
                        <circle cx="218.2" cy="137.4" r="5"></circle>
                        <circle cx="218.2" cy="181.4" r="5"></circle>
                        <circle cx="218.2" cy="225.4" r="5"></circle>
                        <circle cx="218.2" cy="269.4" r="5"></circle>
                        <circle cx="174.2" cy="5.4" r="5"></circle>
                        <circle cx="174.2" cy="49.4" r="5"></circle>
                        <circle cx="174.2" cy="93.4" r="5"></circle>
                        <circle cx="174.2" cy="137.4" r="5"></circle>
                        <circle cx="174.2" cy="181.4" r="5"></circle>
                        <circle cx="174.2" cy="225.4" r="5"></circle>
                        <circle cx="174.2" cy="272.4" r="5"></circle>
                        <circle cx="130.2" cy="5.4" r="5"></circle>
                        <circle cx="130.2" cy="49.4" r="5"></circle>
                        <circle cx="130.2" cy="93.4" r="5"></circle>
                        <circle cx="130.2" cy="137.4" r="5"></circle>
                        <circle cx="130.2" cy="181.4" r="5"></circle>
                        <circle cx="130.2" cy="225.4" r="5"></circle>
                        <circle cx="130.2" cy="269.4" r="5"></circle>
                        <circle cx="86.2" cy="5.4" r="5"></circle>
                        <circle cx="86.2" cy="49.4" r="5"></circle>
                        <circle cx="86.2" cy="93.4" r="5"></circle>
                        <circle cx="86.2" cy="137.4" r="5"></circle>
                        <circle cx="86.2" cy="181.4" r="5"></circle>
                        <circle cx="86.2" cy="225.4" r="5"></circle>
                        <circle cx="86.2" cy="269.4" r="5"></circle>
                        <circle cx="42.2" cy="5.4" r="5"></circle>
                        <circle cx="42.2" cy="49.4" r="5"></circle>
                        <circle cx="42.2" cy="93.4" r="5"></circle>
                        <circle cx="42.2" cy="137.4" r="5"></circle>
                        <circle cx="42.2" cy="181.4" r="5"></circle>
                        <circle cx="42.2" cy="225.4" r="5"></circle>
                        <circle cx="5.2" cy="137.4" r="5"></circle>
                    </g>
                    <g transform="translate(202.000000, 346.000000)">
                        <circle id="Oval" fill="#F6E049" cx="193.1" cy="193.1" r="187.3"></circle>
                        <path d="M193.1,385.4 C87,385.4 0.8,299.1 0.8,193.1 C0.8,87.1 87.1,0.8 193.1,0.8 C299.2,0.8 385.4,87.1 385.4,193.1 C385.4,299.1 299.2,385.4 193.1,385.4 Z M193.1,10.8 C92.6,10.8 10.8,92.6 10.8,193.1 C10.8,293.6 92.6,375.4 193.1,375.4 C293.6,375.4 375.4,293.6 375.4,193.1 C375.4,92.6 293.7,10.8 193.1,10.8 Z" id="Shape" fill="#383A48"></path>
                    </g>
                    <g transform="translate(215.000000, 363.000000)" fill="#383A48" id="Oval">
                        <circle cx="255.4" cy="5.6" r="5"></circle>
                        <circle cx="255.4" cy="57.1" r="5"></circle>
                        <circle cx="255.4" cy="108.6" r="5"></circle>
                        <circle cx="255.4" cy="160.1" r="5"></circle>
                        <circle cx="255.4" cy="211.6" r="5"></circle>
                        <circle cx="255.4" cy="263.1" r="5"></circle>
                        <circle cx="255.4" cy="314.6" r="5"></circle>
                        <circle cx="203.9" cy="5.6" r="5"></circle>
                        <circle cx="203.9" cy="57.1" r="5"></circle>
                        <circle cx="203.9" cy="108.6" r="5"></circle>
                        <circle cx="203.9" cy="160.1" r="5"></circle>
                        <circle cx="203.9" cy="211.6" r="5"></circle>
                        <circle cx="203.9" cy="263.1" r="5"></circle>
                        <circle cx="195.4" cy="334.1" r="5"></circle>
                        <circle cx="152.4" cy="5.6" r="5"></circle>
                        <circle cx="152.4" cy="57.1" r="5"></circle>
                        <circle cx="152.4" cy="108.6" r="5"></circle>
                        <circle cx="152.4" cy="160.1" r="5"></circle>
                        <circle cx="152.4" cy="211.6" r="5"></circle>
                        <circle cx="152.4" cy="263.1" r="5"></circle>
                        <circle cx="152.4" cy="314.6" r="5"></circle>
                        <circle cx="100.9" cy="57.1" r="5"></circle>
                        <circle cx="100.9" cy="108.6" r="5"></circle>
                        <circle cx="100.9" cy="160.1" r="5"></circle>
                        <circle cx="100.9" cy="211.6" r="5"></circle>
                        <circle cx="100.9" cy="263.1" r="5"></circle>
                        <circle cx="100.9" cy="314.6" r="5"></circle>
                        <circle cx="50.4" cy="60.1" r="5"></circle>
                        <circle cx="49.4" cy="108.6" r="5"></circle>
                        <circle cx="49.4" cy="160.1" r="5"></circle>
                        <circle cx="49.4" cy="211.6" r="5"></circle>
                        <circle cx="49.4" cy="263.1" r="5"></circle>
                        <circle cx="5.9" cy="160.1" r="5"></circle>
                    </g>
                    <g transform="translate(304.000000, 277.000000)">
                        <circle id="Oval" fill="#F6E049" cx="203.8" cy="204.3" r="198.7"></circle>
                        <path d="M203.8,408 C91.5,408 0.1,316.6 0.1,204.3 C0.1,92 91.5,0.6 203.8,0.6 C316.1,0.6 407.5,92 407.5,204.3 C407.5,316.6 316.1,408 203.8,408 Z M203.8,10.5 C97,10.5 10.1,97.4 10.1,204.2 C10.1,311 97,398 203.8,398 C310.6,398 397.5,311.1 397.5,204.3 C397.5,97.5 310.6,10.5 203.8,10.5 Z" id="Shape" fill="#383A48"></path>
                    </g>
                    <g transform="translate(333.000000, 322.000000)" fill="#383A48" id="Oval">
                        <circle cx="281.7" cy="5.9" r="5"></circle>
                        <circle cx="281.7" cy="74.9" r="5"></circle>
                        <circle cx="281.7" cy="143.9" r="5"></circle>
                        <circle cx="281.7" cy="212.9" r="5"></circle>
                        <circle cx="281.7" cy="281.9" r="5"></circle>
                        <circle cx="212.7" cy="5.9" r="5"></circle>
                        <circle cx="212.7" cy="74.9" r="5"></circle>
                        <circle cx="212.7" cy="143.9" r="5"></circle>
                        <circle cx="212.7" cy="212.9" r="5"></circle>
                        <circle cx="201.7" cy="322.9" r="5"></circle>
                        <circle cx="143.7" cy="5.9" r="5"></circle>
                        <circle cx="143.7" cy="74.9" r="5"></circle>
                        <circle cx="143.7" cy="143.9" r="5"></circle>
                        <circle cx="143.7" cy="212.9" r="5"></circle>
                        <circle cx="143.7" cy="281.9" r="5"></circle>
                        <circle cx="74.7" cy="5.9" r="5"></circle>
                        <circle cx="74.7" cy="74.9" r="5"></circle>
                        <circle cx="74.7" cy="143.9" r="5"></circle>
                        <circle cx="74.7" cy="212.9" r="5"></circle>
                        <circle cx="74.7" cy="281.9" r="5"></circle>
                        <circle cx="12.7" cy="74.9" r="5"></circle>
                        <circle cx="5.7" cy="143.9" r="5"></circle>
                        <circle cx="5.7" cy="212.9" r="5"></circle>
                    </g>
                    <g transform="translate(405.000000, 208.000000)">
                        <circle id="Oval" fill="#F6E049" cx="215.5" cy="215.4" r="210.1"></circle>
                        <path d="M215.5,430.5 C158,430.5 104,408.1 63.4,367.5 C22.8,326.9 0.4,272.9 0.4,215.4 C0.4,157.9 22.8,103.9 63.4,63.3 C104,22.7 158,0.3 215.5,0.3 C273,0.3 327,22.7 367.6,63.3 C408.2,103.9 430.6,157.9 430.6,215.4 C430.6,272.9 408.2,326.9 367.6,367.5 C326.9,408.1 272.9,430.5 215.5,430.5 Z M215.5,10.3 C102.4,10.3 10.4,102.3 10.4,215.4 C10.4,328.5 102.4,420.5 215.5,420.5 C328.6,420.5 420.6,328.5 420.6,215.4 C420.6,102.3 328.6,10.3 215.5,10.3 Z" id="Shape" fill="#383A48"></path>
                    </g>
                    <circle id="Oval" fill="#383A48" cx="717.2" cy="266.4" r="5"></circle>
                    <circle id="Oval" fill="#383A48" cx="717.2" cy="352.4" r="5"></circle>
                    <circle id="Oval" fill="#383A48" cx="717.2" cy="438.4" r="5"></circle>
                    <circle id="Oval" fill="#383A48" cx="717.2" cy="524.4" r="5"></circle>
                    <circle id="Oval" fill="#383A48" cx="631.2" cy="266.4" r="5"></circle>
                    <circle id="Oval" fill="#383A48" cx="631.2" cy="352.4" r="5"></circle>
                    <circle id="Oval" fill="#383A48" cx="631.2" cy="438.4" r="5"></circle>
                    <circle id="Oval" fill="#383A48" cx="631.2" cy="524.4" r="5"></circle>
                    <circle id="Oval" fill="#383A48" cx="631.2" cy="610.4" r="5"></circle>
                    <circle id="Oval" fill="#383A48" cx="508.9" cy="274.6" r="5"></circle>
                    <circle id="Oval" fill="#383A48" cx="545.2" cy="352.4" r="5"></circle>
                    <circle id="Oval" fill="#383A48" cx="545.2" cy="438.4" r="5"></circle>
                    <circle id="Oval" fill="#383A48" cx="545.2" cy="524.4" r="5"></circle>
                    <circle id="Oval" fill="#383A48" cx="550.2" cy="596.9" r="5"></circle>
                    <circle id="Oval" fill="#383A48" cx="459.2" cy="352.4" r="5"></circle>
                    <circle id="Oval" fill="#383A48" cx="459.2" cy="438.4" r="5"></circle>
                    <circle id="Oval" fill="#383A48" cx="459.2" cy="524.4" r="5"></circle>
                    <g transform="translate(506.000000, 139.000000)">
                        <path d="M448.6,226.6 C448.6,333.1 373.5,422 273.4,443.2 C258.5,446.4 243,448 227.2,448 C104.9,448 5.7,348.8 5.7,226.5 C5.7,104.2 104.9,5 227.2,5 C230,5 232.7,5 235.5,5.1 C353.9,9.6 448.6,107 448.6,226.6 Z" id="Path" fill="#F6E049"></path>
                        <path d="M227.2,453.1 C166.7,453.1 109.8,429.5 67,386.8 C24.2,344 0.7,287.1 0.7,226.6 C0.7,166.1 24.3,109.2 67,66.4 C109.8,23.6 166.7,0.1 227.2,0.1 C230,0.1 232.9,0.2 235.6,0.3 C294.3,2.5 349.2,27 390.1,69.3 C431.1,111.7 453.7,167.6 453.7,226.6 C453.7,278.8 435.5,329.7 402.5,370 C369.9,409.7 324.5,437.5 274.5,448.1 C259,451.4 243.1,453.1 227.2,453.1 Z M227.2,10.1 C169.4,10.1 115,32.6 74.1,73.5 C33.2,114.4 10.7,168.8 10.7,226.6 C10.7,284.4 33.2,338.8 74.1,379.7 C115,420.6 169.4,443.1 227.2,443.1 C242.4,443.1 257.6,441.5 272.4,438.4 C320.2,428.3 363.6,401.7 394.7,363.7 C426.3,325.2 443.6,276.5 443.6,226.6 C443.6,170.2 422,116.8 382.8,76.2 C343.7,35.7 291.3,12.3 235.2,10.3 C232.6,10.1 229.8,10.1 227.2,10.1 Z" id="Shape" fill="#383A48"></path>
                    </g>
                    <circle id="Oval" fill="#383A48" cx="899.7" cy="221.9" r="5"></circle>
                    <circle id="Oval" fill="#383A48" cx="899.7" cy="358.9" r="5"></circle>
                    <circle id="Oval" fill="#383A48" cx="899.7" cy="495.9" r="5"></circle>
                    <circle id="Oval" fill="#383A48" cx="762.7" cy="221.9" r="5"></circle>
                    <circle id="Oval" fill="#383A48" cx="762.7" cy="358.9" r="5"></circle>
                    <circle id="Oval" fill="#383A48" cx="743.2" cy="545.6" r="5"></circle>
                    <circle id="Oval" fill="#383A48" cx="610.5" cy="223.3" r="5"></circle>
                    <circle id="Oval" fill="#383A48" cx="570.2" cy="360.9" r="5"></circle>
                    <circle id="Oval" fill="#383A48" cx="625.7" cy="495.9" r="5"></circle>
                    <g transform="translate(607.000000, 69.000000)">
                        <path d="M471.7,238.7 C471.7,342.1 404.3,429.7 311.1,460.1 C288.3,467.5 264,471.5 238.8,471.5 C110.2,471.5 5.9,367.3 5.9,238.6 C5.9,115.6 101.2,14.9 222,6.3 C227.5,5.9 233.1,5.7 238.7,5.7 C367.4,5.8 471.7,110.1 471.7,238.7 Z" id="Path" fill="#F6E049"></path>
                        <path d="M238.8,476.6 C175.3,476.6 115.5,451.9 70.6,406.9 C25.7,362 0.9,302.2 0.9,238.7 C0.9,178.1 23.7,120.4 65,76.2 C106.1,32.2 161.8,5.6 221.7,1.4 C227.3,1 233.1,0.8 238.8,0.8 C302.3,0.8 362.1,25.5 407,70.5 C451.9,115.4 476.7,175.2 476.7,238.7 C476.7,289.9 460.7,338.7 430.4,379.7 C400.7,420 360,449.4 312.7,464.8 C288.9,472.7 264.1,476.6 238.8,476.6 Z M238.8,10.8 C233.3,10.8 227.8,11 222.4,11.4 C165,15.5 111.7,40.9 72.3,83.1 C32.7,125.4 10.9,180.7 10.9,238.7 C10.9,299.6 34.6,356.8 77.6,399.8 C120.6,442.8 177.9,466.5 238.7,466.5 C262.9,466.5 286.7,462.7 309.5,455.3 C354.8,440.5 393.8,412.3 422.3,373.7 C451.3,334.4 466.7,287.6 466.7,238.6 C466.7,177.7 443,120.5 400,77.5 C356.9,34.5 299.7,10.8 238.8,10.8 Z" id="Shape" fill="#383A48"></path>
                    </g>
                    <g transform="translate(709.000000, 0.000000)">
                        <circle id="Oval" fill="#F6E049" cx="249.5" cy="249.9" r="244.3"></circle>
                        <path d="M249.5,499.1 C182.9,499.1 120.3,473.2 73.3,426.1 C26.2,379 0.3,316.4 0.3,249.9 C0.3,183.4 26.2,120.7 73.3,73.7 C120.4,26.6 183,0.7 249.5,0.7 C316,0.7 378.7,26.6 425.7,73.7 C472.8,120.8 498.7,183.4 498.7,249.9 C498.7,316.4 472.8,379.1 425.7,426.1 C378.7,473.2 316.1,499.1 249.5,499.1 Z M249.5,10.6 C185.6,10.6 125.5,35.5 80.3,80.7 C35.1,125.9 10.2,186 10.2,249.9 C10.2,313.8 35.1,373.9 80.3,419.1 C125.5,464.3 185.6,489.2 249.5,489.2 C313.4,489.2 373.5,464.3 418.7,419.1 C463.9,373.9 488.8,313.8 488.8,249.9 C488.8,186 463.9,125.9 418.7,80.7 C373.5,35.5 313.4,10.6 249.5,10.6 Z" id="Shape" fill="#383A48"></path>
                    </g>
                    <circle id="Oval" fill="#F3F6E6" cx="958.5" cy="249.9" r="185.7"></circle>
                    <g transform="translate(790.000000, 186.000000)" fill="#383A48">
                        <polygon id="Path" points="94.2 107.5 70.1 127.3 13.6 127.3 0.8 110.3 23.8 92.6 32.7 104.3 59.1 104.3 68.1 96.9 72.4 76.3 67.9 70.5 32.5 70.5 19.9 54.5 31.1 1.4 111.7 1.4 106.8 24.4 54.7 24.4 49.8 47.4 87 47.4 102.6 67.2"></polygon>
                        <path d="M111.4,107.5 L129.9,20.3 L154.1,0.4 L212,0.4 L227.6,20.3 L209.1,107.5 L185,127.3 L127,127.3 L111.4,107.5 Z M141.6,98.6 L146.2,104.3 L174,104.3 L183,96.9 L192.9,50.2 L141.6,98.6 Z M197.4,29.3 L192.9,23.6 L165,23.6 L156,31 L146.2,77.6 L197.4,29.3 Z" id="Shape"></path>
                        <polygon id="Path" points="219.1 126.4 223.9 103.4 294.4 46.6 298.2 29.3 293.7 23.6 273 23.6 258.1 36 241.9 17.6 262 0.5 312.8 0.5 328.4 20.4 321 54.7 261.4 102.8 261.2 103.5 313.6 103.5 308.8 126.5 219.1 126.5 219.1 126.4"></polygon>
                    </g>
                </g>
                <path d="M1384.1,705.8 C1382.5,704.9 1380.6,705 1379,705.9 L1201,815.1 C1199.1,816.3 1198.2,818.6 1198.8,820.7 C1199.4,822.9 1201.4,824.3 1203.6,824.3 L1381.6,824.3 C1384.4,824.3 1386.6,822.1 1386.6,819.3 L1386.6,710.2 C1386.6,708.4 1385.6,706.7 1384.1,705.8 Z" id="Path" fill="#383A48" fill-rule="nonzero"></path>
                <g transform="translate(438.000000, 70.000000)" fill-rule="nonzero">
                    <rect id="Rectangle" fill="#383A48" x="55.8" y="0.9" width="126.2" height="121.5"></rect>
                    <g>
                        <path d="M60.8,117.4 L60.8,117.4 C30,117.4 5,92.4 5,61.6 L5,61.6 C5,30.8 30,5.8 60.8,5.8 L60.8,5.8 C91.6,5.8 116.6,30.8 116.6,61.6 L116.6,61.6 C116.6,92.4 91.6,117.4 60.8,117.4 Z" id="Path" fill="#F6E049"></path>
                        <path d="M60.8,122.4 C27.3,122.4 0,95.1 0,61.6 C0,28.1 27.3,0.8 60.8,0.8 C94.3,0.8 121.6,28.1 121.6,61.6 C121.6,95.2 94.3,122.4 60.8,122.4 Z M60.8,10.9 C32.8,10.9 10,33.7 10,61.7 C10,89.7 32.8,112.5 60.8,112.5 L60.8,112.5 C88.8,112.5 111.6,89.7 111.6,61.7 C111.6,33.7 88.8,10.9 60.8,10.9 Z" id="Shape" fill="#383A48"></path>
                    </g>
                </g>
            </g>
        </g>
    </g>
</svg>