<svg xmlns="http://www.w3.org/2000/svg" xmlns:xlink="http://www.w3.org/1999/xlink" width="1502" height="762" version="1.1" viewBox="0 0 1502 762"><title>abstract-working-process</title><desc>Created with Sketch.</desc><g id="Page-1" fill="none" fill-rule="evenodd" stroke="none" stroke-width="1"><g id="abstract-working-process" transform="translate(-230.000000, -159.000000)"><g id="Group" transform="translate(230.000000, 159.000000)"><path id="Path" fill="#F3F6E6" fill-rule="nonzero" d="M555.3,751.7 C524.7,751.7 500,742.9 477.5,724 C457.2,707 441.4,684 424.7,659.7 C396.4,618.6 367.1,576.2 312.4,556.2 C291.6,548.6 263.7,545.5 234.2,542.2 C136.7,531.4 15.4,518 10.4,338.5 C10.3,335.8 8.1,333.6 5.3,333.6 C2.6,333.6 0.4,335.9 0.4,338.6 L0.4,756.5 C0.4,759.3 2.6,761.5 5.4,761.5 L555.3,761.5 C558.1,761.5 560.3,759.3 560.3,756.5 C560.3,753.7 558,751.7 555.3,751.7 Z"/><path id="Path" fill="#F3F6E6" fill-rule="nonzero" d="M1496.2,0.9 L259.4,0.9 C256.8,0.9 254.6,2.9 254.4,5.5 C254.2,8.1 256,10.4 258.5,10.9 C395.2,35 469.2,89 540.8,141.2 C595.8,181.3 647.8,219.2 724.1,240.9 C809.6,265.2 912.9,265.2 1049,240.9 C1117.2,228.8 1172.3,234.7 1217.6,259.1 C1256.8,280.2 1288,315 1313.1,365.5 C1330,399.6 1357.3,421.4 1386.1,444.4 C1437.8,485.6 1491.2,528.2 1491.2,649.6 C1491.2,652.4 1493.4,654.6 1496.2,654.6 C1499,654.6 1501.2,652.4 1501.2,649.6 L1501.2,5.9 C1501.2,3.1 1499,0.9 1496.2,0.9 Z"/><g fill-rule="nonzero"><g transform="translate(436.000000, 72.000000)"><rect id="Rectangle" width="762.3" height="572.1" x="5.9" y="5.3" fill="#F3F6E6"/><path id="Shape" fill="#383A48" d="M768.1,582.4 L5.9,582.4 C3.1,582.4 0.9,580.2 0.9,577.4 L0.9,5.3 C0.9,2.5 3.1,0.3 5.9,0.3 L768.2,0.3 C771,0.3 773.2,2.5 773.2,5.3 L773.2,577.4 C773.1,580.1 770.9,582.4 768.1,582.4 Z M10.9,572.4 L763.2,572.4 L763.2,10.3 L10.9,10.3 L10.9,572.4 Z"/></g><g transform="translate(436.000000, 72.000000)"><rect id="Rectangle" width="762.3" height="178.7" x="5.9" y="5.3" fill="#AAC6FC"/><path id="Shape" fill="#383A48" d="M768.1,189 L5.9,189 C3.1,189 0.9,186.8 0.9,184 L0.9,5.3 C0.9,2.5 3.1,0.3 5.9,0.3 L768.2,0.3 C771,0.3 773.2,2.5 773.2,5.3 L773.2,184 C773.1,186.7 770.9,189 768.1,189 Z M10.9,179 L763.2,179 L763.2,10.3 L10.9,10.3 L10.9,179 Z"/></g></g><g fill-rule="nonzero"><g transform="translate(498.000000, 127.000000)"><rect id="Rectangle" width="762.3" height="572.1" x="5.3" y="5.3" fill="#F3F6E6"/><path id="Shape" fill="#383A48" d="M767.5,582.4 L5.3,582.4 C2.5,582.4 0.3,580.2 0.3,577.4 L0.3,5.3 C0.3,2.5 2.5,0.3 5.3,0.3 L767.6,0.3 C770.4,0.3 772.6,2.5 772.6,5.3 L772.6,577.4 C772.5,580.1 770.3,582.4 767.5,582.4 Z M10.3,572.4 L762.6,572.4 L762.6,10.3 L10.3,10.3 L10.3,572.4 Z"/></g><g transform="translate(498.000000, 127.000000)"><rect id="Rectangle" width="762.3" height="178.7" x="5.3" y="5.3" fill="#E0719E"/><path id="Shape" fill="#383A48" d="M767.5,189 L5.3,189 C2.5,189 0.3,186.8 0.3,184 L0.3,5.3 C0.3,2.5 2.5,0.3 5.3,0.3 L767.6,0.3 C770.4,0.3 772.6,2.5 772.6,5.3 L772.6,184 C772.5,186.7 770.3,189 767.5,189 Z M10.3,179 L762.6,179 L762.6,10.3 L10.3,10.3 L10.3,179 Z"/></g></g><g fill-rule="nonzero" transform="translate(550.000000, 179.000000)"><g><rect id="Rectangle" width="762.3" height="572.1" x="5.3" y="5.6" fill="#F3F6E6"/><path id="Shape" fill="#383A48" d="M767.5,582.7 L5.3,582.7 C2.5,582.7 0.3,580.5 0.3,577.7 L0.3,5.6 C0.3,2.8 2.5,0.6 5.3,0.6 L767.6,0.6 C770.4,0.6 772.6,2.8 772.6,5.6 L772.6,577.7 C772.5,580.5 770.3,582.7 767.5,582.7 Z M10.3,572.7 L762.6,572.7 L762.6,10.6 L10.3,10.6 L10.3,572.7 Z"/></g><g><path id="Path" fill="#F6E049" d="M767.5,184.3 L5.3,184.3 L5.3,5.6 L588.9,5.6 C588.8,104.3 668.8,184.3 767.5,184.3 Z"/><path id="Shape" fill="#383A48" d="M767.5,189.3 L0.3,189.3 L0.3,0.6 L593.9,0.6 L593.9,5.6 C593.9,101.4 671.8,179.3 767.6,179.3 L767.5,189.3 L767.5,189.3 Z M10.3,179.3 L707.7,179.3 C637.2,154.9 586,88.8 583.9,10.6 L10.3,10.6 L10.3,179.3 Z"/></g><g id="Shape" fill="#383A48"><path d="M20.6,41.1 C9.5,41.1 0.4,32.1 0.4,20.9 C0.4,9.7 9.4,0.7 20.6,0.7 C31.8,0.7 40.8,9.7 40.8,20.9 C40.8,32.1 31.7,41.1 20.6,41.1 Z M20.6,10.8 C15,10.8 10.4,15.4 10.4,21 C10.4,26.6 15,31.2 20.6,31.2 C26.2,31.2 30.8,26.6 30.8,21 C30.8,15.4 26.2,10.8 20.6,10.8 Z" transform="translate(62.000000, 74.000000)"/><path d="M71,41.1 C59.9,41.1 50.8,32.1 50.8,20.9 C50.8,9.7 59.8,0.7 71,0.7 C82.2,0.7 91.2,9.7 91.2,20.9 C91.2,32.1 82.1,41.1 71,41.1 Z M71,10.8 C65.4,10.8 60.8,15.4 60.8,21 C60.8,26.6 65.4,31.2 71,31.2 C76.6,31.2 81.2,26.6 81.2,21 C81.2,15.4 76.6,10.8 71,10.8 Z" transform="translate(62.000000, 74.000000)"/><path d="M121.4,41.1 C110.3,41.1 101.2,32.1 101.2,20.9 C101.2,9.7 110.2,0.7 121.4,0.7 C132.6,0.7 141.6,9.7 141.6,20.9 C141.6,32.1 132.5,41.1 121.4,41.1 Z M121.4,10.8 C115.8,10.8 111.2,15.4 111.2,21 C111.2,26.6 115.8,31.2 121.4,31.2 C127,31.2 131.6,26.6 131.6,21 C131.6,15.4 127,10.8 121.4,10.8 Z" transform="translate(62.000000, 74.000000)"/></g><g transform="translate(170.000000, 269.000000)"><g transform="translate(259.000000, 0.000000)"><rect id="Rectangle" width="100.9" height="215.7" x="5.1" y="5.1" fill="#E0719E"/><path id="Shape" fill="#383A48" d="M106,225.8 L5.1,225.8 C2.3,225.8 0.1,223.6 0.1,220.8 L0.1,5.1 C0.1,2.3 2.3,0.1 5.1,0.1 L106,0.1 C108.8,0.1 111,2.3 111,5.1 L111,220.8 C111,223.5 108.8,225.8 106,225.8 Z M10.1,215.8 L101,215.8 L101,10.1 L10.1,10.1 L10.1,215.8 Z"/></g><g transform="translate(135.000000, 73.000000)"><rect id="Rectangle" width="87.9" height="142.3" x="5.6" y="5.4" fill="#7FD6C2"/><path id="Shape" fill="#383A48" d="M93.5,152.8 L5.6,152.8 C2.8,152.8 0.6,150.6 0.6,147.8 L0.6,5.4 C0.6,2.6 2.8,0.4 5.6,0.4 L93.5,0.4 C96.3,0.4 98.5,2.6 98.5,5.4 L98.5,147.7 C98.5,150.5 96.3,152.8 93.5,152.8 Z M10.6,142.8 L88.5,142.8 L88.5,10.4 L10.6,10.4 L10.6,142.8 Z"/></g><g transform="translate(35.000000, 43.000000)"><rect id="Rectangle" width="62.2" height="172.3" x="5.7" y="5.5" fill="#F3F6E6"/><path id="Shape" fill="#383A48" d="M68,182.8 L5.8,182.8 C3,182.8 0.8,180.6 0.8,177.8 L0.8,5.5 C0.8,2.7 3,0.5 5.8,0.5 L68,0.5 C70.8,0.5 73,2.7 73,5.5 L73,177.8 C73,180.5 70.8,182.8 68,182.8 Z M10.7,172.8 L62.9,172.8 L62.9,10.5 L10.7,10.5 L10.7,172.8 Z"/></g><rect id="Rectangle" width="423.2" height="10" x=".4" y="215.8" fill="#383A48"/></g></g><g fill-rule="nonzero" transform="translate(1133.000000, 179.000000)"><path id="Path" fill="#F3F6E6" d="M184.5,5.6 L184.5,184.3 C85.8,184.3 5.8,104.3 5.8,5.6 L184.5,5.6 L184.5,5.6 Z"/><path id="Shape" fill="#383A48" d="M184.5,189.3 C83.2,189.3 0.8,106.9 0.8,5.6 C0.8,2.8 3,0.6 5.8,0.6 L184.5,0.6 C187.3,0.6 189.5,2.8 189.5,5.6 L189.5,184.3 C189.5,187.1 187.3,189.3 184.5,189.3 Z M10.9,10.6 C13.5,102.4 87.7,176.6 179.5,179.2 L179.5,10.6 L10.9,10.6 Z"/></g><path id="Path" fill="#383A48" fill-rule="nonzero" d="M1204.1,72.3 L1122.6,72.3 C1121,72.3 1119.5,73 1118.6,74.3 C1094.5,106.3 1081.8,144.5 1081.8,184.6 C1081.8,187.4 1084,189.6 1086.8,189.6 L1204.1,189.6 C1206.9,189.6 1209.1,187.4 1209.1,184.6 L1209.1,77.3 C1209.1,74.5 1206.9,72.3 1204.1,72.3 Z"/><g fill-rule="nonzero" transform="translate(1133.000000, 0.000000)"><path id="Path" fill="#E0719E" d="M363.2,184.6 C363.2,283.3 283.2,363.3 184.5,363.3 L184.5,184.6 L5.8,184.6 C5.8,85.9 85.8,5.9 184.5,5.9 C283.2,5.9 363.2,85.9 363.2,184.6 Z"/><path id="Shape" fill="#383A48" d="M184.5,368.3 C181.7,368.3 179.5,366.1 179.5,363.3 L179.5,189.6 L5.8,189.6 C3,189.6 0.8,187.4 0.8,184.6 C0.8,83.3 83.2,0.9 184.5,0.9 C285.8,0.9 368.2,83.3 368.2,184.6 C368.2,285.9 285.8,368.3 184.5,368.3 Z M10.9,179.6 L184.5,179.6 C187.3,179.6 189.5,181.8 189.5,184.6 L189.5,358.2 C283,355.5 358.2,278.7 358.2,184.6 C358.2,88.8 280.3,10.9 184.5,10.9 C90.4,10.9 13.6,86.1 10.9,179.6 Z"/></g><path id="Path" fill="#383A48" fill-rule="nonzero" d="M559.1,360.6 C557.8,359 555.6,358.4 553.7,359.1 L232,466.6 C230.2,467.2 228.9,468.8 228.6,470.7 C228.3,472.6 229.2,474.5 230.8,475.5 L307.6,526.9 L205.7,614.7 C203.6,616.5 203.4,619.6 205.1,621.7 L248.6,673 C249.5,674 250.7,674.6 252,674.8 C252.1,674.8 252.3,674.8 252.4,674.8 C253.6,674.8 254.8,674.4 255.7,673.6 L357.9,585.6 L391.8,665.4 C392.6,667.2 394.3,668.4 396.2,668.4 C398.1,668.5 399.9,667.5 400.8,665.7 L559.8,366.1 C560.7,364.4 560.4,362.1 559.1,360.6 Z"/><g fill-rule="nonzero" transform="translate(0.000000, 3.000000)"><g fill="#383A48" transform="translate(0.000000, 15.000000)"><path id="Path" d="M190.9,430.5 L38.7,430.5 C20.3,430.5 5.3,415.6 5.3,397.1 L5.3,39.3 C5.3,20.9 20.2,5.9 38.7,5.9 L190.9,5.9 C209.3,5.9 224.3,20.8 224.3,39.3 L224.3,397.1 C224.3,415.5 209.4,430.5 190.9,430.5 Z"/><path id="Shape" d="M190.9,435.5 L38.7,435.5 C17.5,435.5 0.3,418.3 0.3,397.1 L0.3,39.3 C0.3,18.1 17.5,0.9 38.7,0.9 L190.9,0.9 C212.1,0.9 229.3,18.1 229.3,39.3 L229.3,397.1 C229.3,418.3 212.1,435.5 190.9,435.5 Z M38.7,11 C23,11 10.3,23.7 10.3,39.4 L10.3,397.2 C10.3,412.9 23,425.6 38.7,425.6 L190.9,425.6 C206.6,425.6 219.3,412.9 219.3,397.2 L219.3,39.3 C219.3,23.6 206.6,10.9 190.9,10.9 L38.7,11 L38.7,11 Z"/></g><g fill="#383A48" transform="translate(10.000000, 8.000000)"><polygon id="Path" points="24.5 5.7 5.6 22.3 28.4 40.5"/><path id="Shape" d="M28.4,45.5 C27.3,45.5 26.2,45.1 25.3,44.4 L2.5,26.2 C1.3,25.3 0.6,23.9 0.6,22.4 C0.6,20.9 1.2,19.5 2.3,18.5 L21.3,1.9 C22.7,0.7 24.7,0.3 26.4,1 C28.1,1.7 29.4,3.3 29.6,5.1 L33.5,39.9 C33.7,41.9 32.7,43.9 31,44.8 C30.1,45.3 29.2,45.5 28.4,45.5 Z M13.4,22.1 L22.1,29.1 L20.6,15.8 L13.4,22.1 Z"/></g><g fill="#383A48" transform="translate(190.000000, 396.000000)"><polygon id="Path" points="21 42.8 41.1 25.3 5.7 5.8"/><path id="Shape" d="M21,47.8 C20.6,47.8 20.2,47.8 19.9,47.7 C18.3,47.3 17,46.2 16.4,44.7 L1.1,7.7 C0.3,5.7 0.8,3.5 2.4,2.1 C4,0.7 6.3,0.4 8.2,1.5 L43.5,21.1 C44.9,21.9 45.9,23.3 46,24.9 C46.2,26.5 45.5,28.1 44.3,29.2 L24.3,46.7 C23.4,47.3 22.2,47.8 21,47.8 Z M15.8,17 L23,34.4 L32.4,26.2 L15.8,17 Z"/></g><g transform="translate(17.000000, 0.000000)"><path id="Path" fill="#AAC6FC" d="M191.3,430.3 L39.1,430.3 C20.7,430.3 5.7,415.4 5.7,396.9 L5.7,39.2 C5.7,20.8 20.6,5.8 39.1,5.8 L191.3,5.8 C209.7,5.8 224.7,20.7 224.7,39.2 L224.7,397 C224.6,415.4 209.7,430.3 191.3,430.3 Z"/><path id="Shape" fill="#383A48" d="M191.3,435.3 L39.1,435.3 C17.9,435.3 0.7,418.1 0.7,396.9 L0.7,39.2 C0.7,18 17.9,0.8 39.1,0.8 L191.3,0.8 C212.5,0.8 229.7,18 229.7,39.2 L229.7,397 C229.6,418.1 212.4,435.3 191.3,435.3 Z M39.1,10.8 C23.4,10.8 10.7,23.5 10.7,39.2 L10.7,397 C10.7,412.7 23.4,425.4 39.1,425.4 L191.3,425.4 C207,425.4 219.7,412.7 219.7,397 L219.7,39.2 C219.7,23.5 207,10.8 191.3,10.8 L39.1,10.8 Z"/></g><path id="Path" fill="#F3F6E6" d="M156,139.4 L108.3,139.4 C69.6,139.4 38.1,170.9 38.1,209.6 L38.1,226.5 C38.1,256.2 56.6,281.6 82.8,291.9 L82.8,324.7 C82.8,326.8 84.1,328.7 86.1,329.4 C86.6,329.6 87.2,329.7 87.8,329.7 C89.3,329.7 90.7,329 91.7,327.8 L116.8,296.7 L156,296.7 C194.7,296.7 226.2,265.2 226.2,226.5 L226.2,209.6 C226.2,170.9 194.7,139.4 156,139.4 Z"/><g fill="#383A48" transform="translate(67.000000, 1.000000)"><path id="Path" d="M112.5,25.8 L17.8,25.8 C10.9,25.8 5.3,20.2 5.3,13.3 L5.3,5 L125.1,5 L125.1,13.2 C125.1,20.2 119.5,25.8 112.5,25.8 Z"/><path id="Shape" d="M112.5,30.8 L17.8,30.8 C8.1,30.8 0.3,22.9 0.3,13.3 L0.3,5 C0.3,2.2 2.5,0 5.3,0 L125.1,0 C127.9,0 130.1,2.2 130.1,5 L130.1,13.2 C130.1,22.9 122.2,30.8 112.5,30.8 Z M10.2,10 L10.2,13.2 C10.2,17.4 13.6,20.7 17.7,20.7 L112.4,20.7 C116.6,20.7 119.9,17.3 119.9,13.2 L119.9,10 L10.2,10 Z"/></g><g transform="translate(78.000000, 164.000000)"><circle id="Oval" cx="54.2" cy="54.1" r="48.8" fill="#F6E049"/><path id="Shape" fill="#383A48" d="M54.2,107.8 C24.5,107.8 0.4,83.7 0.4,54 C0.4,24.3 24.5,0.2 54.2,0.2 C83.9,0.2 108,24.3 108,54 C108,83.7 83.8,107.8 54.2,107.8 Z M54.2,10.3 C30.1,10.3 10.4,29.9 10.4,54.1 C10.4,78.3 30,97.9 54.2,97.9 C78.4,97.9 98,78.3 98,54.1 C98,29.9 78.3,10.3 54.2,10.3 Z"/></g><circle id="Oval" cx="116.4" cy="208.6" r="5.3" fill="#383A48"/><circle id="Oval" cx="147.7" cy="208.6" r="5.3" fill="#383A48"/><path id="Path" fill="#383A48" d="M132,240.8 C123.3,240.8 115.3,235.7 111.7,227.8 C110.5,225.3 111.7,222.3 114.2,221.2 C116.7,220.1 119.7,221.2 120.8,223.7 C122.8,228.1 127.2,230.9 132,230.9 C136.8,230.9 141.2,228.1 143.2,223.7 C144.4,221.2 147.3,220.1 149.8,221.2 C152.3,222.4 153.4,225.3 152.3,227.8 C148.7,235.7 140.8,240.8 132,240.8 Z"/></g><path id="Path" fill="#4053FA" fill-rule="nonzero" d="M1345.9,552.3 C1320,552.3 1304.9,524.5 1288.8,495.1 C1269.5,459.8 1249.6,423.3 1210.2,423.3 C1207.4,423.3 1205.2,421.1 1205.2,418.3 C1205.2,415.5 1207.4,413.3 1210.2,413.3 C1255.6,413.3 1277.9,454.2 1297.6,490.3 C1312.8,518.2 1326,542.3 1345.9,542.3 C1368.5,542.3 1381.9,525.1 1396,506.9 C1411.7,486.6 1428,465.7 1458.1,465.7 C1460.9,465.7 1463.1,467.9 1463.1,470.7 C1463.1,473.5 1460.9,475.7 1458.1,475.7 C1432.8,475.7 1418.8,493.8 1403.9,513.1 C1388.9,532.3 1373.4,552.3 1345.9,552.3 Z"/><g fill-rule="nonzero" transform="translate(1312.000000, 644.000000)"><polygon id="Path" fill="#F6E049" points="5.5 112.7 184.2 112.7 184.2 5.6"/><path id="Shape" fill="#383A48" d="M184.2,117.7 L5.5,117.7 C3.3,117.7 1.3,116.2 0.7,114 C0.1,111.8 1,109.5 2.9,108.4 L181.6,1.3 C183.1,0.4 185.1,0.4 186.6,1.2 C188.2,2.1 189.1,3.7 189.1,5.6 L189.1,112.7 C189.2,115.5 187,117.7 184.2,117.7 Z M23.6,107.7 L179.2,107.7 L179.2,14.4 L23.6,107.7 Z"/></g><g><g transform="translate(314.000000, 311.000000) translate(0.000000, 11.000000)"><line id="Path" x1=".2" x2="33.2" y1="5.7" y2="5.7"/><rect id="Rectangle" width="33" height="10" x=".2" y=".7" fill="#383A48" fill-rule="nonzero"/></g><g transform="translate(314.000000, 311.000000) translate(11.000000, 0.000000)"><line id="Path" x1="5.7" x2="5.7" y1="33.2" y2=".2"/><rect id="Rectangle" width="10" height="33" x=".7" y=".2" fill="#383A48" fill-rule="nonzero"/></g></g><g><g transform="translate(1386.000000, 596.000000) translate(0.000000, 11.000000)"><line id="Path" x1=".4" x2="33.3" y1="5.5" y2="5.5"/><rect id="Rectangle" width="33" height="10" x=".4" y=".5" fill="#383A48" fill-rule="nonzero"/></g><g transform="translate(1386.000000, 596.000000) translate(11.000000, 0.000000)"><line id="Path" x1="5.8" x2="5.8" y1="33" y2="0"/><rect id="Rectangle" width="10" height="33" x=".8" y="0" fill="#383A48" fill-rule="nonzero"/></g></g><g><g transform="translate(128.000000, 612.000000) translate(0.000000, 12.000000)"><line id="Path" x1=".3" x2="33.2" y1="5" y2="5"/><rect id="Rectangle" width="33" height="10" x=".3" y="0" fill="#383A48" fill-rule="nonzero"/></g><g transform="translate(128.000000, 612.000000) translate(11.000000, 0.000000)"><line id="Path" x1="5.7" x2="5.7" y1="33.5" y2=".5"/><rect id="Rectangle" width="10" height="33" x=".7" y=".5" fill="#383A48" fill-rule="nonzero"/></g></g><path id="Path" fill="#AAC6FC" fill-rule="nonzero" d="M5.4,663.8 L0.4,663.8 L0.4,761.7 L98.3,761.7 L98.3,756.7 C98.3,705.4 56.6,663.8 5.4,663.8 Z"/><g id="Rectangle" fill="#F3F6E6" fill-rule="nonzero" transform="translate(285.000000, 66.000000)"><rect width="37" height="10" x="-1.399" y="12.194" transform="translate(17.100940, 17.194280) rotate(-43.598077) translate(-17.100940, -17.194280)"/><rect width="10" height="36.998" x="22.274" y="130.334" transform="translate(27.274250, 148.833130) rotate(-52.819544) translate(-27.274250, -148.833130)"/><rect width="33.999" height="10" x="20.685" y="77.191" transform="translate(37.684988, 82.190800) rotate(-3.213528) translate(-37.684988, -82.190800)"/></g></g></g></g></svg>