<svg xmlns="http://www.w3.org/2000/svg" xmlns:xlink="http://www.w3.org/1999/xlink" width="1492" height="804" version="1.1" viewBox="0 0 1492 804"><title>abstract-no-connection</title><desc>Created with Sketch.</desc><g id="Page-1" fill="none" fill-rule="evenodd" stroke="none" stroke-width="1"><g id="abstract-no-connection" transform="translate(-212.000000, -136.000000)"><g id="Group" transform="translate(212.000000, 136.000000)"><path id="Path" fill="#F3F6E6" fill-rule="nonzero" d="M1059.7,0.9 L5.8,0.9 C3,0.9 0.8,3.1 0.8,5.9 L0.8,775.1 C0.8,777.9 3,780.1 5.8,780.1 C73.7,780.1 141.3,769.2 206.9,747.6 C264.8,728.6 322.7,700.7 378.8,664.8 C464.9,609.8 548.9,535 635.7,436.1 C668.6,398.7 701.7,349 736.8,296.4 C774.6,239.9 813.6,181.4 856.4,131.7 C889.6,93.2 920.8,64.8 951.9,45 C988,22.1 1023.2,10.9 1059.5,10.9 C1062.3,10.9 1064.5,8.7 1064.5,5.9 C1064.5,3.1 1062.4,0.9 1059.7,0.9 Z"/><path id="Path" fill="#F3F6E6" fill-rule="nonzero" d="M1486.9,1 C1484.4,0.7 1482.1,2.2 1481.4,4.6 C1481.3,5 1470.7,42.2 1448.1,82.5 C1410.7,149.1 1369.7,172.8 1341.8,181 C1338.1,182.1 1334.4,183.2 1330.7,184.2 C1232.5,212.8 1121.2,245.2 1121.2,393.2 C1121.2,395.8 1123.2,398 1125.9,398.2 L1485.9,421.9 C1486,421.9 1486.1,421.9 1486.2,421.9 C1487.5,421.9 1488.7,421.4 1489.6,420.5 C1490.6,419.6 1491.2,418.2 1491.2,416.9 L1491.2,5.9 C1491.2,3.4 1489.3,1.3 1486.9,1 Z"/><circle id="Oval" cx="725.7" cy="613.7" r="190" fill="#4053FA" fill-rule="nonzero"/><g transform="translate(725.000000, 65.000000)"><rect id="Rectangle" width="10" height="33" x="12.2" y=".7" fill="#383A48" fill-rule="nonzero"/><g transform="translate(0.000000, 12.000000)"><line id="Path" x1=".7" x2="33.7" y1="5.2" y2="5.2"/><rect id="Rectangle" width="33" height="10" x=".7" y=".2" fill="#383A48" fill-rule="nonzero"/></g></g><g transform="translate(146.000000, 624.000000)"><rect id="Rectangle" width="10" height="33" x="12.4" y=".1" fill="#383A48" fill-rule="nonzero"/><g transform="translate(0.000000, 11.000000)"><line id="Path" x1=".9" x2="33.8" y1="5.6" y2="5.6"/><rect id="Rectangle" width="33" height="10" x=".9" y=".6" fill="#383A48" fill-rule="nonzero"/></g></g><g transform="translate(1018.000000, 682.000000)"><rect id="Rectangle" width="10" height="33" x="11.5" y=".1" fill="#383A48" fill-rule="nonzero"/><g transform="translate(0.000000, 11.000000)"><line id="Path" x1="0" x2="32.9" y1="5.6" y2="5.6"/><rect id="Rectangle" width="33" height="10" x="0" y=".6" fill="#383A48" fill-rule="nonzero"/></g></g><g><g fill-rule="nonzero"><polygon id="Path" fill="#F6E049" points="576.3 490.4 5.8 490.4 5.8 63.5 61.5 5.9 576.3 63.5"/><path id="Shape" fill="#383A48" d="M576.3,495.4 L5.8,495.4 C3,495.4 0.8,493.2 0.8,490.4 L0.8,63.5 C0.8,62.2 1.3,61 2.2,60 L57.9,2.4 C59,1.3 60.5,0.7 62.1,0.9 L576.9,58.5 C579.4,58.8 581.3,60.9 581.3,63.5 L581.3,490.4 C581.3,493.2 579.1,495.4 576.3,495.4 Z M10.8,485.4 L571.3,485.4 L571.3,68 L63.4,11.1 L10.8,65.5 L10.8,485.4 L10.8,485.4 Z"/></g><g fill="#383A48" fill-rule="nonzero"><polygon id="Path" points="576.3 490.4 5.8 490.4 5.8 63.5 61.5 5.9 576.3 63.5"/><path id="Shape" d="M581.3,495.4 L0.8,495.4 L0.8,61.5 L59.6,0.6 L581.3,59 L581.3,495.4 L581.3,495.4 Z M10.8,485.4 L571.3,485.4 L571.3,68 L63.4,11.1 L10.8,65.5 L10.8,485.4 L10.8,485.4 Z"/></g><g fill-rule="nonzero" transform="translate(0.000000, 123.000000)"><polygon id="Path" fill="#F3F6E6" points="576.3 367.4 5.8 367.4 5.8 63.1 61.5 5.4 576.3 63.1 632 309.8"/><path id="Shape" fill="#383A48" d="M578.4,372.4 L0.8,372.4 L0.8,61 L59.6,0.1 L580.4,58.4 L637.5,311.2 L578.4,372.4 Z M10.8,362.4 L574.2,362.4 L626.5,308.2 L572.2,67.6 L63.4,10.6 L10.8,65 L10.8,362.4 L10.8,362.4 Z"/></g><g id="Oval" fill="#383A48" fill-rule="nonzero" transform="translate(7.000000, 121.000000)"><circle cx="622.2" cy="5.8" r="5"/><circle cx="622.2" cy="30.5" r="5"/><circle cx="622.2" cy="55.2" r="5"/><circle cx="622.2" cy="79.8" r="5"/><circle cx="622.2" cy="104.5" r="5"/><circle cx="622.2" cy="129.2" r="5"/><circle cx="622.2" cy="153.8" r="5"/><circle cx="622.2" cy="178.5" r="5"/><circle cx="622.2" cy="203.2" r="5"/><circle cx="622.2" cy="227.8" r="5"/><circle cx="622.2" cy="252.5" r="5"/><circle cx="622.2" cy="277.2" r="5"/><circle cx="622.2" cy="301.8" r="5"/><circle cx="597.5" cy="5.8" r="5"/><circle cx="597.5" cy="30.5" r="5"/><circle cx="597.5" cy="55.2" r="5"/><circle cx="597.5" cy="79.8" r="5"/><circle cx="597.5" cy="104.5" r="5"/><circle cx="597.5" cy="129.2" r="5"/><circle cx="597.5" cy="153.8" r="5"/><circle cx="597.5" cy="178.5" r="5"/><circle cx="597.5" cy="203.2" r="5"/><circle cx="597.5" cy="227.8" r="5"/><circle cx="597.5" cy="252.5" r="5"/><circle cx="597.5" cy="277.2" r="5"/><circle cx="597.5" cy="301.8" r="5"/><circle cx="597.5" cy="326.5" r="5"/><circle cx="572.9" cy="5.8" r="5"/><circle cx="572.9" cy="30.5" r="5"/><circle cx="572.9" cy="55.2" r="5"/><circle cx="572.9" cy="79.8" r="5"/><circle cx="572.9" cy="104.5" r="5"/><circle cx="572.9" cy="129.2" r="5"/><circle cx="572.9" cy="153.8" r="5"/><circle cx="572.9" cy="178.5" r="5"/><circle cx="572.9" cy="203.2" r="5"/><circle cx="572.9" cy="227.8" r="5"/><circle cx="572.9" cy="252.5" r="5"/><circle cx="572.9" cy="277.2" r="5"/><circle cx="572.9" cy="301.8" r="5"/><circle cx="572.9" cy="326.5" r="5"/><circle cx="572.9" cy="351.2" r="5"/><circle cx="548.2" cy="5.8" r="5"/><circle cx="548.2" cy="30.5" r="5"/><circle cx="548.2" cy="55.2" r="5"/><circle cx="548.2" cy="79.8" r="5"/><circle cx="548.2" cy="104.5" r="5"/><circle cx="548.2" cy="129.2" r="5"/><circle cx="548.2" cy="153.8" r="5"/><circle cx="548.2" cy="178.5" r="5"/><circle cx="548.2" cy="203.2" r="5"/><circle cx="548.2" cy="227.8" r="5"/><circle cx="548.2" cy="252.5" r="5"/><circle cx="548.2" cy="277.2" r="5"/><circle cx="548.2" cy="301.8" r="5"/><circle cx="548.2" cy="326.5" r="5"/><circle cx="548.2" cy="351.2" r="5"/><circle cx="523.5" cy="5.8" r="5"/><circle cx="523.5" cy="30.5" r="5"/><circle cx="523.5" cy="55.2" r="5"/><circle cx="523.5" cy="79.8" r="5"/><circle cx="523.5" cy="104.5" r="5"/><circle cx="523.5" cy="129.2" r="5"/><circle cx="523.5" cy="153.8" r="5"/><circle cx="523.5" cy="178.5" r="5"/><circle cx="523.5" cy="203.2" r="5"/><circle cx="523.5" cy="227.8" r="5"/><circle cx="523.5" cy="252.5" r="5"/><circle cx="523.5" cy="277.2" r="5"/><circle cx="523.5" cy="301.8" r="5"/><circle cx="523.5" cy="326.5" r="5"/><circle cx="523.5" cy="351.2" r="5"/><circle cx="498.9" cy="5.8" r="5"/><circle cx="498.9" cy="30.5" r="5"/><circle cx="498.9" cy="55.2" r="5"/><circle cx="498.9" cy="79.8" r="5"/><circle cx="498.9" cy="104.5" r="5"/><circle cx="498.9" cy="129.2" r="5"/><circle cx="498.9" cy="153.8" r="5"/><circle cx="498.9" cy="178.5" r="5"/><circle cx="498.9" cy="203.2" r="5"/><circle cx="498.9" cy="227.8" r="5"/><circle cx="498.9" cy="252.5" r="5"/><circle cx="498.9" cy="277.2" r="5"/><circle cx="498.9" cy="301.8" r="5"/><circle cx="498.9" cy="326.5" r="5"/><circle cx="498.9" cy="351.2" r="5"/><circle cx="474.2" cy="5.8" r="5"/><circle cx="474.2" cy="30.5" r="5"/><circle cx="474.2" cy="55.2" r="5"/><circle cx="474.2" cy="79.8" r="5"/><circle cx="474.2" cy="104.5" r="5"/><circle cx="474.2" cy="129.2" r="5"/><circle cx="474.2" cy="153.8" r="5"/><circle cx="474.2" cy="178.5" r="5"/><circle cx="474.2" cy="203.2" r="5"/><circle cx="474.2" cy="227.8" r="5"/><circle cx="474.2" cy="252.5" r="5"/><circle cx="474.2" cy="277.2" r="5"/><circle cx="474.2" cy="301.8" r="5"/><circle cx="474.2" cy="326.5" r="5"/><circle cx="474.2" cy="351.2" r="5"/><circle cx="449.5" cy="5.8" r="5"/><circle cx="449.5" cy="30.5" r="5"/><circle cx="449.5" cy="55.2" r="5"/><circle cx="449.5" cy="79.8" r="5"/><circle cx="449.5" cy="104.5" r="5"/><circle cx="449.5" cy="129.2" r="5"/><circle cx="449.5" cy="153.8" r="5"/><circle cx="449.5" cy="178.5" r="5"/><circle cx="449.5" cy="203.2" r="5"/><circle cx="449.5" cy="227.8" r="5"/><circle cx="449.5" cy="252.5" r="5"/><circle cx="449.5" cy="277.2" r="5"/><circle cx="449.5" cy="301.8" r="5"/><circle cx="449.5" cy="326.5" r="5"/><circle cx="449.5" cy="351.2" r="5"/><circle cx="424.9" cy="5.8" r="5"/><circle cx="424.9" cy="30.5" r="5"/><circle cx="424.9" cy="55.2" r="5"/><circle cx="424.9" cy="79.8" r="5"/><circle cx="424.9" cy="104.5" r="5"/><circle cx="424.9" cy="129.2" r="5"/><circle cx="424.9" cy="153.8" r="5"/><circle cx="424.9" cy="178.5" r="5"/><circle cx="424.9" cy="203.2" r="5"/><circle cx="424.9" cy="227.8" r="5"/><circle cx="424.9" cy="252.5" r="5"/><circle cx="424.9" cy="277.2" r="5"/><circle cx="424.9" cy="301.8" r="5"/><circle cx="424.9" cy="326.5" r="5"/><circle cx="424.9" cy="351.2" r="5"/><circle cx="400.2" cy="5.8" r="5"/><circle cx="400.2" cy="30.5" r="5"/><circle cx="400.2" cy="55.2" r="5"/><circle cx="400.2" cy="79.8" r="5"/><circle cx="400.2" cy="104.5" r="5"/><circle cx="400.2" cy="129.2" r="5"/><circle cx="400.2" cy="153.8" r="5"/><circle cx="400.2" cy="178.5" r="5"/><circle cx="400.2" cy="203.2" r="5"/><circle cx="400.2" cy="227.8" r="5"/><circle cx="400.2" cy="252.5" r="5"/><circle cx="400.2" cy="277.2" r="5"/><circle cx="400.2" cy="301.8" r="5"/><circle cx="400.2" cy="326.5" r="5"/><circle cx="400.2" cy="351.2" r="5"/><circle cx="375.5" cy="5.8" r="5"/><circle cx="375.5" cy="30.5" r="5"/><circle cx="375.5" cy="55.2" r="5"/><circle cx="375.5" cy="79.8" r="5"/><circle cx="375.5" cy="104.5" r="5"/><circle cx="375.5" cy="129.2" r="5"/><circle cx="375.5" cy="153.8" r="5"/><circle cx="375.5" cy="178.5" r="5"/><circle cx="375.5" cy="203.2" r="5"/><circle cx="375.5" cy="227.8" r="5"/><circle cx="375.5" cy="252.5" r="5"/><circle cx="375.5" cy="277.2" r="5"/><circle cx="375.5" cy="301.8" r="5"/><circle cx="375.5" cy="326.5" r="5"/><circle cx="375.5" cy="351.2" r="5"/><circle cx="350.9" cy="5.8" r="5"/><circle cx="350.9" cy="30.5" r="5"/><circle cx="350.9" cy="55.2" r="5"/><circle cx="350.9" cy="79.8" r="5"/><circle cx="350.9" cy="104.5" r="5"/><circle cx="350.9" cy="129.2" r="5"/><circle cx="350.9" cy="153.8" r="5"/><circle cx="350.9" cy="178.5" r="5"/><circle cx="350.9" cy="203.2" r="5"/><circle cx="350.9" cy="227.8" r="5"/><circle cx="350.9" cy="252.5" r="5"/><circle cx="350.9" cy="277.2" r="5"/><circle cx="350.9" cy="301.8" r="5"/><circle cx="350.9" cy="326.5" r="5"/><circle cx="350.9" cy="351.2" r="5"/><circle cx="326.2" cy="5.8" r="5"/><circle cx="326.2" cy="30.5" r="5"/><circle cx="326.2" cy="55.2" r="5"/><circle cx="326.2" cy="79.8" r="5"/><circle cx="326.2" cy="104.5" r="5"/><circle cx="326.2" cy="129.2" r="5"/><circle cx="326.2" cy="153.8" r="5"/><circle cx="326.2" cy="178.5" r="5"/><circle cx="326.2" cy="203.2" r="5"/><circle cx="326.2" cy="227.8" r="5"/><circle cx="326.2" cy="252.5" r="5"/><circle cx="326.2" cy="277.2" r="5"/><circle cx="326.2" cy="301.8" r="5"/><circle cx="326.2" cy="326.5" r="5"/><circle cx="326.2" cy="351.2" r="5"/><circle cx="301.5" cy="5.8" r="5"/><circle cx="301.5" cy="30.5" r="5"/><circle cx="301.5" cy="55.2" r="5"/><circle cx="301.5" cy="79.8" r="5"/><circle cx="301.5" cy="104.5" r="5"/><circle cx="301.5" cy="129.2" r="5"/><circle cx="301.5" cy="153.8" r="5"/><circle cx="301.5" cy="178.5" r="5"/><circle cx="301.5" cy="203.2" r="5"/><circle cx="301.5" cy="227.8" r="5"/><circle cx="301.5" cy="252.5" r="5"/><circle cx="301.5" cy="277.2" r="5"/><circle cx="301.5" cy="301.8" r="5"/><circle cx="301.5" cy="326.5" r="5"/><circle cx="301.5" cy="351.2" r="5"/><circle cx="276.9" cy="5.8" r="5"/><circle cx="276.9" cy="30.5" r="5"/><circle cx="276.9" cy="55.2" r="5"/><circle cx="276.9" cy="79.8" r="5"/><circle cx="276.9" cy="104.5" r="5"/><circle cx="276.9" cy="129.2" r="5"/><circle cx="276.9" cy="153.8" r="5"/><circle cx="276.9" cy="178.5" r="5"/><circle cx="276.9" cy="203.2" r="5"/><circle cx="276.9" cy="227.8" r="5"/><circle cx="276.9" cy="252.5" r="5"/><circle cx="276.9" cy="277.2" r="5"/><circle cx="276.9" cy="301.8" r="5"/><circle cx="276.9" cy="326.5" r="5"/><circle cx="276.9" cy="351.2" r="5"/><circle cx="252.2" cy="5.8" r="5"/><circle cx="252.2" cy="30.5" r="5"/><circle cx="252.2" cy="55.2" r="5"/><circle cx="252.2" cy="79.8" r="5"/><circle cx="252.2" cy="104.5" r="5"/><circle cx="252.2" cy="129.2" r="5"/><circle cx="252.2" cy="153.8" r="5"/><circle cx="252.2" cy="178.5" r="5"/><circle cx="252.2" cy="203.2" r="5"/><circle cx="252.2" cy="227.8" r="5"/><circle cx="252.2" cy="252.5" r="5"/><circle cx="252.2" cy="277.2" r="5"/><circle cx="252.2" cy="301.8" r="5"/><circle cx="252.2" cy="326.5" r="5"/><circle cx="252.2" cy="351.2" r="5"/><circle cx="227.5" cy="5.8" r="5"/><circle cx="227.5" cy="30.5" r="5"/><circle cx="227.5" cy="55.2" r="5"/><circle cx="227.5" cy="79.8" r="5"/><circle cx="227.5" cy="104.5" r="5"/><circle cx="227.5" cy="129.2" r="5"/><circle cx="227.5" cy="153.8" r="5"/><circle cx="227.5" cy="178.5" r="5"/><circle cx="227.5" cy="203.2" r="5"/><circle cx="227.5" cy="227.8" r="5"/><circle cx="227.5" cy="252.5" r="5"/><circle cx="227.5" cy="277.2" r="5"/><circle cx="227.5" cy="301.8" r="5"/><circle cx="227.5" cy="326.5" r="5"/><circle cx="227.5" cy="351.2" r="5"/><circle cx="202.9" cy="5.8" r="5"/><circle cx="202.9" cy="30.5" r="5"/><circle cx="202.9" cy="55.2" r="5"/><circle cx="202.9" cy="79.8" r="5"/><circle cx="202.9" cy="104.5" r="5"/><circle cx="202.9" cy="129.2" r="5"/><circle cx="202.9" cy="153.8" r="5"/><circle cx="202.9" cy="178.5" r="5"/><circle cx="202.9" cy="203.2" r="5"/><circle cx="202.9" cy="227.8" r="5"/><circle cx="202.9" cy="252.5" r="5"/><circle cx="202.9" cy="277.2" r="5"/><circle cx="202.9" cy="301.8" r="5"/><circle cx="202.9" cy="326.5" r="5"/><circle cx="202.9" cy="351.2" r="5"/><circle cx="178.2" cy="5.8" r="5"/><circle cx="178.2" cy="30.5" r="5"/><circle cx="178.2" cy="55.2" r="5"/><circle cx="178.2" cy="79.8" r="5"/><circle cx="178.2" cy="104.5" r="5"/><circle cx="178.2" cy="129.2" r="5"/><circle cx="178.2" cy="153.8" r="5"/><circle cx="178.2" cy="178.5" r="5"/><circle cx="178.2" cy="203.2" r="5"/><circle cx="178.2" cy="227.8" r="5"/><circle cx="178.2" cy="252.5" r="5"/><circle cx="178.2" cy="277.2" r="5"/><circle cx="178.2" cy="301.8" r="5"/><circle cx="178.2" cy="326.5" r="5"/><circle cx="178.2" cy="351.2" r="5"/><circle cx="153.5" cy="5.8" r="5"/><circle cx="153.5" cy="30.5" r="5"/><circle cx="153.5" cy="55.2" r="5"/><circle cx="153.5" cy="79.8" r="5"/><circle cx="153.5" cy="104.5" r="5"/><circle cx="153.5" cy="129.2" r="5"/><circle cx="153.5" cy="153.8" r="5"/><circle cx="153.5" cy="178.5" r="5"/><circle cx="153.5" cy="203.2" r="5"/><circle cx="153.5" cy="227.8" r="5"/><circle cx="153.5" cy="252.5" r="5"/><circle cx="153.5" cy="277.2" r="5"/><circle cx="153.5" cy="301.8" r="5"/><circle cx="153.5" cy="326.5" r="5"/><circle cx="153.5" cy="351.2" r="5"/><circle cx="128.9" cy="5.8" r="5"/><circle cx="128.9" cy="30.5" r="5"/><circle cx="128.9" cy="55.2" r="5"/><circle cx="128.9" cy="79.8" r="5"/><circle cx="128.9" cy="104.5" r="5"/><circle cx="128.9" cy="129.2" r="5"/><circle cx="128.9" cy="153.8" r="5"/><circle cx="128.9" cy="178.5" r="5"/><circle cx="128.9" cy="203.2" r="5"/><circle cx="128.9" cy="227.8" r="5"/><circle cx="128.9" cy="252.5" r="5"/><circle cx="128.9" cy="277.2" r="5"/><circle cx="128.9" cy="301.8" r="5"/><circle cx="128.9" cy="326.5" r="5"/><circle cx="128.9" cy="351.2" r="5"/><circle cx="104.2" cy="5.8" r="5"/><circle cx="104.2" cy="30.5" r="5"/><circle cx="104.2" cy="55.2" r="5"/><circle cx="104.2" cy="79.8" r="5"/><circle cx="104.2" cy="104.5" r="5"/><circle cx="104.2" cy="129.2" r="5"/><circle cx="104.2" cy="153.8" r="5"/><circle cx="104.2" cy="178.5" r="5"/><circle cx="104.2" cy="203.2" r="5"/><circle cx="104.2" cy="227.8" r="5"/><circle cx="104.2" cy="252.5" r="5"/><circle cx="104.2" cy="277.2" r="5"/><circle cx="104.2" cy="301.8" r="5"/><circle cx="104.2" cy="326.5" r="5"/><circle cx="104.2" cy="351.2" r="5"/><circle cx="79.5" cy="5.8" r="5"/><circle cx="79.5" cy="30.5" r="5"/><circle cx="79.5" cy="55.2" r="5"/><circle cx="79.5" cy="79.8" r="5"/><circle cx="79.5" cy="104.5" r="5"/><circle cx="79.5" cy="129.2" r="5"/><circle cx="79.5" cy="153.8" r="5"/><circle cx="79.5" cy="178.5" r="5"/><circle cx="79.5" cy="203.2" r="5"/><circle cx="79.5" cy="227.8" r="5"/><circle cx="79.5" cy="252.5" r="5"/><circle cx="79.5" cy="277.2" r="5"/><circle cx="79.5" cy="301.8" r="5"/><circle cx="79.5" cy="326.5" r="5"/><circle cx="79.5" cy="351.2" r="5"/><circle cx="54.9" cy="5.8" r="5"/><circle cx="54.9" cy="30.5" r="5"/><circle cx="54.9" cy="55.2" r="5"/><circle cx="54.9" cy="79.8" r="5"/><circle cx="54.9" cy="104.5" r="5"/><circle cx="54.9" cy="129.2" r="5"/><circle cx="54.9" cy="153.8" r="5"/><circle cx="54.9" cy="178.5" r="5"/><circle cx="54.9" cy="203.2" r="5"/><circle cx="54.9" cy="227.8" r="5"/><circle cx="54.9" cy="252.5" r="5"/><circle cx="54.9" cy="277.2" r="5"/><circle cx="54.9" cy="301.8" r="5"/><circle cx="54.9" cy="326.5" r="5"/><circle cx="54.9" cy="351.2" r="5"/><circle cx="30.2" cy="5.8" r="5"/><circle cx="30.2" cy="30.5" r="5"/><circle cx="30.2" cy="55.2" r="5"/><circle cx="30.2" cy="79.8" r="5"/><circle cx="30.2" cy="104.5" r="5"/><circle cx="30.2" cy="129.2" r="5"/><circle cx="30.2" cy="153.8" r="5"/><circle cx="30.2" cy="178.5" r="5"/><circle cx="30.2" cy="203.2" r="5"/><circle cx="30.2" cy="227.8" r="5"/><circle cx="30.2" cy="252.5" r="5"/><circle cx="30.2" cy="277.2" r="5"/><circle cx="30.2" cy="301.8" r="5"/><circle cx="30.2" cy="326.5" r="5"/><circle cx="30.2" cy="351.2" r="5"/><circle cx="5.5" cy="5.8" r="5"/><circle cx="5.5" cy="30.5" r="5"/><circle cx="5.5" cy="55.2" r="5"/><circle cx="5.5" cy="79.8" r="5"/><circle cx="5.5" cy="104.5" r="5"/><circle cx="5.5" cy="129.2" r="5"/><circle cx="5.5" cy="153.8" r="5"/><circle cx="5.5" cy="178.5" r="5"/><circle cx="5.5" cy="203.2" r="5"/><circle cx="5.5" cy="227.8" r="5"/><circle cx="5.5" cy="252.5" r="5"/><circle cx="5.5" cy="277.2" r="5"/><circle cx="5.5" cy="301.8" r="5"/><circle cx="5.5" cy="326.5" r="5"/><circle cx="5.5" cy="351.2" r="5"/></g><g transform="translate(2.000000, 429.000000)"><line id="Path" x1="3.8" x2="59.5" y1="61.4" y2="3.8"/><rect id="Rectangle" width="80.1" height="10" x="-8.435" y="27.595" fill="#383A48" fill-rule="nonzero" transform="translate(31.614545, 32.594925) rotate(-45.980497) translate(-31.614545, -32.594925)"/></g><g fill-rule="nonzero" transform="translate(56.000000, 0.000000)"><rect id="Rectangle" width="570.5" height="426.9" x="5.5" y="5.9" fill="#F6E049"/><path id="Shape" fill="#383A48" d="M576,437.8 L5.5,437.8 C2.7,437.8 0.5,435.6 0.5,432.8 L0.5,5.9 C0.5,3.1 2.7,0.9 5.5,0.9 L576,0.9 C578.8,0.9 581,3.1 581,5.9 L581,432.8 C581,435.6 578.8,437.8 576,437.8 Z M10.5,427.8 L571,427.8 L571,10.9 L10.5,10.9 L10.5,427.8 Z"/></g><g fill-rule="nonzero" transform="translate(56.000000, 123.000000)"><rect id="Rectangle" width="570.5" height="304.4" x="5.5" y="5.4" fill="#F3F6E6"/><path id="Shape" fill="#383A48" d="M576,314.8 L5.5,314.8 C2.7,314.8 0.5,312.6 0.5,309.8 L0.5,5.4 C0.5,2.6 2.7,0.4 5.5,0.4 L576,0.4 C578.8,0.4 581,2.6 581,5.4 L581,309.8 C581,312.6 578.8,314.8 576,314.8 Z M10.5,304.8 L571,304.8 L571,10.4 L10.5,10.4 L10.5,304.8 Z"/></g><g fill-rule="nonzero" transform="translate(231.000000, 162.000000)"><circle id="Oval" cx="115.8" cy="115" r="109.9" fill="#F3F6E6"/><path id="Shape" fill="#383A48" d="M115.8,229.8 C52.5,229.8 0.9,178.3 0.9,114.9 C0.9,51.5 52.4,0 115.8,0 C179.2,0 230.6,51.7 230.6,115 C230.6,178.3 179.1,229.8 115.8,229.8 Z M115.8,10.1 C58,10.1 10.9,57.1 10.9,115 C10.9,172.9 57.9,219.9 115.8,219.9 C173.7,219.9 220.7,172.9 220.7,115 C220.7,57.1 173.6,10.1 115.8,10.1 Z"/></g><g fill-rule="nonzero" transform="translate(98.000000, 42.000000)"><circle id="Oval" cx="23.5" cy="23.7" r="18" fill="#F6E049"/><path id="Shape" fill="#383A48" d="M23.5,46.7 C10.8,46.7 0.5,36.4 0.5,23.7 C0.5,11 10.8,0.7 23.5,0.7 C36.2,0.7 46.5,11 46.5,23.7 C46.5,36.4 36.2,46.7 23.5,46.7 Z M23.5,10.7 C16.3,10.7 10.5,16.5 10.5,23.7 C10.5,30.9 16.3,36.7 23.5,36.7 C30.7,36.7 36.5,30.9 36.5,23.7 C36.5,16.5 30.7,10.7 23.5,10.7 Z"/></g><g fill-rule="nonzero" transform="translate(158.000000, 42.000000)"><circle id="Oval" cx="23.4" cy="23.7" r="18" fill="#F6E049"/><path id="Shape" fill="#383A48" d="M23.4,46.7 C10.7,46.7 0.4,36.4 0.4,23.7 C0.4,11 10.7,0.7 23.4,0.7 C36.1,0.7 46.4,11 46.4,23.7 C46.4,36.4 36,46.7 23.4,46.7 Z M23.4,10.7 C16.2,10.7 10.4,16.5 10.4,23.7 C10.4,30.9 16.2,36.7 23.4,36.7 C30.6,36.7 36.4,30.9 36.4,23.7 C36.4,16.5 30.5,10.7 23.4,10.7 Z"/></g><g fill-rule="nonzero" transform="translate(218.000000, 42.000000)"><circle id="Oval" cx="23.2" cy="23.7" r="18" fill="#F6E049"/><path id="Shape" fill="#383A48" d="M23.2,46.7 C10.5,46.7 0.2,36.4 0.2,23.7 C0.2,11 10.5,0.7 23.2,0.7 C35.9,0.7 46.2,11 46.2,23.7 C46.2,36.4 35.9,46.7 23.2,46.7 Z M23.2,10.7 C16,10.7 10.2,16.5 10.2,23.7 C10.2,30.9 16,36.7 23.2,36.7 C30.4,36.7 36.2,30.9 36.2,23.7 C36.2,16.5 30.3,10.7 23.2,10.7 Z"/></g><g id="Path" transform="translate(286.000000, 216.000000)"><line x1="5.1" x2="116.4" y1="5.3" y2="116.7"/><path fill="#383A48" fill-rule="nonzero" d="M116.4,121.7 C115.1,121.7 113.8,121.2 112.9,120.2 L1.5,8.8 C-0.5,6.8 -0.5,3.7 1.5,1.7 C3.5,-0.3 6.6,-0.3 8.6,1.7 L120,113.1 C122,115.1 122,118.2 120,120.2 C119,121.2 117.7,121.7 116.4,121.7 Z"/></g><g id="Path" transform="translate(286.000000, 216.000000)"><line x1="5.1" x2="116.4" y1="116.7" y2="5.3"/><path fill="#383A48" fill-rule="nonzero" d="M5.1,121.7 C3.8,121.7 2.5,121.2 1.6,120.2 C-0.4,118.2 -0.4,115.1 1.6,113.1 L113,1.7 C115,-0.3 118.1,-0.3 120.1,1.7 C122.1,3.7 122.1,6.8 120.1,8.8 L8.6,120.2 C7.6,121.2 6.3,121.7 5.1,121.7 Z"/></g></g><g transform="translate(1120.000000, 388.000000)"><g><g fill-rule="nonzero" transform="translate(0.000000, 115.000000)"><polygon id="Path" fill="#F3F6E6" points="41.2 5.5 366.2 5.5 366.2 295.7 41.2 295.7 6.2 248.4"/><path id="Shape" fill="#383A48" d="M371.2,300.7 L38.7,300.7 L0.9,249.7 L36.9,0.5 L371.2,0.5 L371.2,300.7 Z M43.7,290.7 L361.1,290.7 L361.1,10.5 L45.5,10.5 L11.4,247 L43.7,290.7 Z"/></g><g id="Oval" fill="#383A48" fill-rule="nonzero" transform="translate(24.000000, 174.000000)"><circle cx="324.7" cy="5.3" r="5"/><circle cx="324.7" cy="29.9" r="5"/><circle cx="324.7" cy="54.6" r="5"/><circle cx="324.7" cy="79.3" r="5"/><circle cx="324.7" cy="103.9" r="5"/><circle cx="324.7" cy="128.6" r="5"/><circle cx="324.7" cy="153.3" r="5"/><circle cx="324.7" cy="177.9" r="5"/><circle cx="325.9" cy="225.1" r="5"/><circle cx="301.2" cy="202.4" r="5"/><circle cx="301.2" cy="225.1" r="5"/><circle cx="276.5" cy="202.4" r="5"/><circle cx="276.5" cy="225.1" r="5"/><circle cx="251.9" cy="202.4" r="5"/><circle cx="251.9" cy="225.1" r="5"/><circle cx="227.2" cy="202.4" r="5"/><circle cx="227.2" cy="225.1" r="5"/><circle cx="202.5" cy="202.4" r="5"/><circle cx="202.5" cy="225.1" r="5"/><circle cx="177.9" cy="202.4" r="5"/><circle cx="177.9" cy="225.1" r="5"/><circle cx="153.2" cy="202.4" r="5"/><circle cx="153.2" cy="225.1" r="5"/><circle cx="128.5" cy="202.4" r="5"/><circle cx="128.5" cy="225.1" r="5"/><circle cx="103.9" cy="202.4" r="5"/><circle cx="103.9" cy="225.1" r="5"/><circle cx="79.2" cy="202.4" r="5"/><circle cx="79.2" cy="225.1" r="5"/><circle cx="54.5" cy="202.4" r="5"/><circle cx="54.5" cy="225.1" r="5"/><circle cx="29.9" cy="202.4" r="5"/><circle cx="29.9" cy="225.1" r="5"/><circle cx="5.2" cy="202.4" r="5"/></g><g transform="translate(327.000000, 360.000000)"><line id="Path" x1="4.1" x2="39.2" y1="3.4" y2="50.7"/><rect id="Rectangle" width="10" height="58.9" x="16.71" y="-2.407" fill="#383A48" fill-rule="nonzero" transform="translate(21.709615, 27.042665) rotate(-36.534142) translate(-21.709615, -27.042665)"/></g><g fill="#383A48" fill-rule="nonzero" transform="translate(36.000000, 0.000000)"><polygon id="Path" points="330.2 52.5 295.1 5.2 5.2 52.5 5.2 175 295.1 127.6 330.2 175"/><path id="Shape" d="M330.2,180 C328.6,180 327.1,179.3 326.2,178 L293,133.1 L6,179.9 C4.6,180.1 3.1,179.7 2,178.8 C0.9,177.8 0.2,176.5 0.2,175 L0.2,52.5 C0.2,50 2,48 4.4,47.6 L294.3,0.3 C296.2,1.12715393e-13 298,0.8 299.1,2.3 L334.2,49.6 C334.8,50.5 335.2,51.5 335.2,52.6 L335.2,175 C335.2,177.2 333.8,179.1 331.8,179.7 C331.2,179.9 330.7,180 330.2,180 Z M10.2,56.8 L10.2,169.1 L294.3,122.7 C296.2,122.4 298,123.2 299.1,124.7 L325.1,159.9 L325.1,54.2 L292.8,10.7 L10.2,56.8 Z"/></g><g fill-rule="nonzero" transform="translate(62.000000, 90.000000)"><circle id="Oval" cx="21" cy="20.3" r="15.2" fill="#E0719E"/><path id="Shape" fill="#383A48" d="M21,40.4 C9.9,40.4 0.8,31.4 0.8,20.2 C0.8,9 9.8,-1.13686838e-13 21,-1.13686838e-13 C32.2,-1.13686838e-13 41.2,9 41.2,20.2 C41.2,31.4 32.2,40.4 21,40.4 Z M21,10.1 C15.4,10.1 10.8,14.7 10.8,20.3 C10.8,25.9 15.4,30.5 21,30.5 C26.6,30.5 31.2,25.9 31.2,20.3 C31.2,14.7 26.6,10.1 21,10.1 Z"/></g><g fill-rule="nonzero" transform="translate(113.000000, 90.000000)"><circle id="Oval" cx="20.4" cy="20.3" r="15.2" fill="#E0719E"/><path id="Shape" fill="#383A48" d="M20.4,40.4 C9.3,40.4 0.2,31.4 0.2,20.2 C0.2,9 9.2,-1.13686838e-13 20.4,-1.13686838e-13 C31.6,-1.13686838e-13 40.6,9 40.6,20.2 C40.6,31.4 31.5,40.4 20.4,40.4 Z M20.4,10.1 C14.8,10.1 10.2,14.7 10.2,20.3 C10.2,25.9 14.8,30.5 20.4,30.5 C26,30.5 30.6,25.9 30.6,20.3 C30.6,14.7 26,10.1 20.4,10.1 Z"/></g><g fill-rule="nonzero" transform="translate(163.000000, 90.000000)"><circle id="Oval" cx="20.8" cy="20.3" r="15.2" fill="#E0719E"/><path id="Shape" fill="#383A48" d="M20.8,40.4 C9.7,40.4 0.6,31.4 0.6,20.2 C0.6,9 9.6,-1.13686838e-13 20.8,-1.13686838e-13 C32,-1.13686838e-13 41,9 41,20.2 C41,31.4 31.9,40.4 20.8,40.4 Z M20.8,10.1 C15.2,10.1 10.6,14.7 10.6,20.3 C10.6,25.9 15.2,30.5 20.8,30.5 C26.4,30.5 31,25.9 31,20.3 C31,14.7 26.4,10.1 20.8,10.1 Z"/></g></g><g fill-rule="nonzero" transform="translate(1.000000, 68.000000)"><rect id="Rectangle" width="325" height="290.2" x="5.2" y="5.2" fill="#F3F6E6"/><path id="Shape" fill="#383A48" d="M330.1,300.4 L5.1,300.4 C2.3,300.4 0.1,298.2 0.1,295.4 L0.1,5.2 C0.1,2.4 2.3,0.2 5.1,0.2 L330.1,0.2 C332.9,0.2 335.1,2.4 335.1,5.2 L335.1,295.4 C335.1,298.1 332.9,300.4 330.1,300.4 Z M10.2,290.4 L325.2,290.4 L325.2,10.2 L10.2,10.2 L10.2,290.4 Z"/></g><g fill-rule="nonzero" transform="translate(1.000000, 0.000000)"><rect id="Rectangle" width="325" height="122.4" x="5.2" y="5.2" fill="#E0719E"/><path id="Shape" fill="#383A48" d="M330.1,132.6 L5.1,132.6 C2.3,132.6 0.1,130.4 0.1,127.6 L0.1,5.2 C0.1,2.4 2.3,0.2 5.1,0.2 L330.1,0.2 C332.9,0.2 335.1,2.4 335.1,5.2 L335.1,127.6 C335.1,130.4 332.9,132.6 330.1,132.6 Z M10.2,122.6 L325.2,122.6 L325.2,10.2 L10.2,10.2 L10.2,122.6 Z"/></g><g fill-rule="nonzero" transform="translate(27.000000, 42.000000)"><circle id="Oval" cx="21" cy="21" r="15.2" fill="#E0719E"/><path id="Shape" fill="#383A48" d="M21,41.1 C9.9,41.1 0.8,32.1 0.8,20.9 C0.8,9.7 9.8,0.7 21,0.7 C32.2,0.7 41.2,9.7 41.2,20.9 C41.2,32.1 32.1,41.1 21,41.1 Z M21,10.8 C15.4,10.8 10.8,15.4 10.8,21 C10.8,26.6 15.4,31.2 21,31.2 C26.6,31.2 31.2,26.6 31.2,21 C31.2,15.4 26.6,10.8 21,10.8 Z"/></g><g fill-rule="nonzero" transform="translate(78.000000, 42.000000)"><circle id="Oval" cx="20.4" cy="21" r="15.2" fill="#E0719E"/><path id="Shape" fill="#383A48" d="M20.4,41.1 C9.3,41.1 0.2,32.1 0.2,20.9 C0.2,9.7 9.2,0.7 20.4,0.7 C31.6,0.7 40.6,9.7 40.6,20.9 C40.6,32.1 31.5,41.1 20.4,41.1 Z M20.4,10.8 C14.8,10.8 10.2,15.4 10.2,21 C10.2,26.6 14.8,31.2 20.4,31.2 C26,31.2 30.6,26.6 30.6,21 C30.6,15.4 26,10.8 20.4,10.8 Z"/></g><g fill-rule="nonzero" transform="translate(128.000000, 42.000000)"><circle id="Oval" cx="20.7" cy="21" r="15.2" fill="#E0719E"/><path id="Shape" fill="#383A48" d="M20.7,41.1 C9.6,41.1 0.5,32.1 0.5,20.9 C0.5,9.7 9.5,0.7 20.7,0.7 C31.9,0.7 40.9,9.7 40.9,20.9 C40.9,32.1 31.9,41.1 20.7,41.1 Z M20.7,10.8 C15.1,10.8 10.5,15.4 10.5,21 C10.5,26.6 15.1,31.2 20.7,31.2 C26.3,31.2 30.9,26.6 30.9,21 C30.9,15.4 26.3,10.8 20.7,10.8 Z"/></g><g fill-rule="nonzero" transform="translate(81.000000, 159.000000)"><circle id="Oval" cx="87.6" cy="87.4" r="82" fill="#F3F6E6"/><path id="Shape" fill="#383A48" d="M87.6,174.3 C39.6,174.3 0.6,135.3 0.6,87.3 C0.6,39.3 39.6,0.3 87.6,0.3 C135.6,0.3 174.6,39.3 174.6,87.3 C174.6,135.3 135.6,174.3 87.6,174.3 Z M87.6,10.4 C45.2,10.4 10.6,44.9 10.6,87.4 C10.6,129.9 45.1,164.4 87.6,164.4 C130.1,164.4 164.6,129.9 164.6,87.4 C164.6,44.9 130.1,10.4 87.6,10.4 Z"/></g><g id="Path" transform="translate(122.000000, 199.000000)"><line x1="88.2" x2="5.1" y1="5.8" y2="88.9"/><path fill="#383A48" fill-rule="nonzero" d="M5.1,93.9 C3.8,93.9 2.5,93.4 1.6,92.4 C-0.4,90.4 -0.4,87.3 1.6,85.3 L84.7,2.2 C86.7,0.2 89.8,0.2 91.8,2.2 C93.8,4.2 93.8,7.3 91.8,9.3 L8.7,92.4 C7.7,93.4 6.4,93.9 5.1,93.9 Z"/></g><g id="Path" transform="translate(122.000000, 199.000000)"><line x1="88.2" x2="5.1" y1="88.9" y2="5.8"/><path fill="#383A48" fill-rule="nonzero" d="M88.2,93.9 C86.9,93.9 85.6,93.4 84.7,92.4 L1.6,9.3 C-0.4,7.3 -0.4,4.2 1.6,2.2 C3.6,0.2 6.7,0.2 8.7,2.2 L91.8,85.3 C93.8,87.3 93.8,90.4 91.8,92.4 C90.8,93.4 89.5,93.9 88.2,93.9 Z"/></g></g><path id="Shape" fill="#383A48" fill-rule="nonzero" d="M564,732.4 C532.9,732.4 502,727.8 471.5,718.5 C405.9,698.5 344,657.4 287.4,596.2 L294.7,589.4 C350.1,649.3 410.5,689.5 474.4,708.9 C531.2,726.2 589.5,726.9 647.6,710.9 C680.7,701.8 713.1,687.4 743.9,668.2 C773.2,649.9 800.3,627.5 824.6,601.8 C872.3,551.3 905.4,491.4 917.9,433 C926.1,394.8 925,359.2 915.1,328 C910.1,329 905.1,329.8 900.2,330.2 C872.3,332.9 845.6,326.8 827,313.4 C807.8,299.7 797.8,279.8 800.2,260.3 C801.9,246.5 809.7,235.6 821.2,231 C829.4,227.7 846.7,225.1 869.8,244.2 C893.8,264 911.1,288.3 921.6,316.1 C947.5,309.1 973.6,294.5 998.2,273.1 L1004.8,280.6 C979.3,302.8 952.1,318.1 924.9,325.5 C935.1,358.2 936.2,395.2 927.7,435 C914.8,495.1 880.8,556.7 831.9,608.5 C807,634.8 779.2,657.7 749.2,676.5 C717.6,696.3 684.3,711.1 650.2,720.4 C621.5,728.4 592.7,732.4 564,732.4 Z M833.7,238.8 C830.6,238.8 827.7,239.3 825,240.4 C817,243.6 811.5,251.5 810.2,261.6 C809.5,267.5 809,288.2 832.9,305.4 C840.8,311.1 863,323.8 899.3,320.3 C903.5,319.9 907.6,319.3 911.8,318.5 C901.9,292.8 885.7,270.4 863.5,252.1 C852.9,243.3 842.6,238.8 833.7,238.8 Z"/><path id="Path" fill="#383A48" fill-rule="nonzero" d="M941.9,606.9 L933.7,601.2 C971.9,546.7 996,484.8 1001.6,426.9 L1011.6,427.9 C1005.8,487.4 981.1,551 941.9,606.9 Z"/><path id="Path" fill="#383A48" fill-rule="nonzero" d="M1375.3,334.3 L1365.9,331 C1378.9,293.8 1381.3,260.3 1373.2,231.4 C1366,205.6 1350.3,184.7 1327.8,170.8 C1299.9,153.6 1263.7,148.4 1225.7,156.2 C1184.2,164.7 1144.4,187.7 1110.6,222.7 L1103.4,215.7 C1138.6,179.3 1180.2,155.3 1223.7,146.4 C1264.1,138.1 1303,143.7 1333,162.2 C1385.8,194.9 1401.6,259.1 1375.3,334.3 Z"/><g id="Rectangle" fill="#383A48" fill-rule="nonzero" transform="translate(944.000000, 123.000000)"><rect width="10" height="37.002" x="11.255" y="16.178" transform="translate(16.254940, 34.678690) rotate(-40.388765) translate(-16.254940, -34.678690)"/><rect width="36.999" height="10" x="129.651" y="26.927" transform="translate(148.150440, 31.926480) rotate(-49.607523) translate(-148.150440, -31.926480)"/><rect width="10" height="34" x="77.2" y=".8"/></g><path id="Path" fill="#4053FA" fill-rule="nonzero" d="M1288.5,4 C1287.7,2.1 1285.9,0.9 1283.9,0.9 L1218.2,0.9 C1215.4,0.9 1213.2,3.1 1213.2,5.9 L1213.2,71.6 C1213.2,73.6 1214.4,75.4 1216.3,76.2 C1216.9,76.5 1217.6,76.6 1218.2,76.6 C1219.5,76.6 1220.8,76.1 1221.7,75.1 L1287.4,9.4 C1288.9,8 1289.3,5.9 1288.5,4 Z"/></g></g></g></svg>