<?xml version="1.0" encoding="UTF-8"?>
<svg width="1506px" height="696px" viewBox="0 0 1506 696" version="1.1" xmlns="http://www.w3.org/2000/svg" xmlns:xlink="http://www.w3.org/1999/xlink">
    <!-- Generator: Sketch 59.1 (86144) - https://sketch.com -->
    <title>abstract-page-is-under-construction</title>
    <desc>Created with Sketch.</desc>
    <g id="Page-1" stroke="none" stroke-width="1" fill="none" fill-rule="evenodd">
        <g id="abstract-page-is-under-construction" transform="translate(-207.000000, -192.000000)">
            <g id="Group" transform="translate(207.000000, 192.000000)">
                <g transform="translate(0.000000, 265.000000)" fill-rule="nonzero">
                    <path d="M427.5,213.4 C427.3,211.5 426,209.8 424.2,209.1 C422.4,208.4 420.3,208.9 419,210.3 L210.5,421 C209.1,422.4 208.7,424.6 209.4,426.4 C210.2,428.3 212,429.5 214,429.5 L441.6,429.5 C443,429.5 444.3,428.9 445.3,427.9 C446.3,426.9 446.7,425.5 446.6,424.1 L427.5,213.4 Z" id="Path" fill="#383A48"></path>
                    <g transform="translate(209.000000, 0.000000)" id="Path">
                        <path d="M5,5.4 C120.1,5.4 213.5,99.2 213.5,215 C213.5,330.8 120.2,424.5 5,424.5" fill="#F6E049"></path>
                        <path d="M5,429.6 C2.2,429.6 0,427.3 0,424.6 C0,421.9 2.2,419.6 5,419.6 C117.2,419.6 208.5,327.8 208.5,215.1 C208.5,102.4 117.2,10.4 5,10.4 C2.2,10.4 0,8.1 0,5.4 C0,2.7 2.2,0.4 5,0.4 C122.7,0.4 218.5,96.7 218.5,215 C218.5,333.3 122.7,429.6 5,429.6 Z" fill="#383A48"></path>
                    </g>
                    <g id="Path">
                        <path d="M214,424.5 C98.9,424.5 5.5,330.7 5.5,214.9 C5.5,99.1 98.9,5.4 214,5.4" fill="#F6E049"></path>
                        <path d="M214,429.6 C96.3,429.6 0.5,333.3 0.5,215 C0.5,157.7 22.7,103.8 63,63.3 C103.3,22.8 156.9,0.4 214,0.4 C216.8,0.4 219,2.7 219,5.4 C219,8.1 216.8,10.4 214,10.4 C101.8,10.4 10.5,102.2 10.5,214.9 C10.5,327.6 101.8,419.5 214,419.5 C216.8,419.5 219,421.8 219,424.5 C219,427.2 216.8,429.6 214,429.6 Z" fill="#383A48"></path>
                    </g>
                    <circle id="Oval" fill="#383A48" cx="204.3" cy="29.7" r="5"></circle>
                    <circle id="Oval" fill="#383A48" cx="204.3" cy="54.4" r="5"></circle>
                    <circle id="Oval" fill="#383A48" cx="204.3" cy="79" r="5"></circle>
                    <circle id="Oval" fill="#383A48" cx="204.3" cy="103.7" r="5"></circle>
                    <circle id="Oval" fill="#383A48" cx="204.3" cy="128.4" r="5"></circle>
                    <circle id="Oval" fill="#383A48" cx="204.3" cy="153" r="5"></circle>
                    <circle id="Oval" fill="#383A48" cx="204.3" cy="177.7" r="5"></circle>
                    <circle id="Oval" fill="#383A48" cx="204.3" cy="202.4" r="5"></circle>
                    <circle id="Oval" fill="#383A48" cx="204.3" cy="227" r="5"></circle>
                    <circle id="Oval" fill="#383A48" cx="204.3" cy="251.7" r="5"></circle>
                    <circle id="Oval" fill="#383A48" cx="204.3" cy="276.4" r="5"></circle>
                    <circle id="Oval" fill="#383A48" cx="204.3" cy="301" r="5"></circle>
                    <circle id="Oval" fill="#383A48" cx="204.3" cy="325.7" r="5"></circle>
                    <circle id="Oval" fill="#383A48" cx="204.3" cy="350.4" r="5"></circle>
                    <circle id="Oval" fill="#383A48" cx="204.3" cy="375" r="5"></circle>
                    <circle id="Oval" fill="#383A48" cx="204.3" cy="399.7" r="5"></circle>
                    <circle id="Oval" fill="#383A48" cx="179.6" cy="29.7" r="5"></circle>
                    <circle id="Oval" fill="#383A48" cx="179.6" cy="54.4" r="5"></circle>
                    <circle id="Oval" fill="#383A48" cx="179.6" cy="79" r="5"></circle>
                    <circle id="Oval" fill="#383A48" cx="179.6" cy="103.7" r="5"></circle>
                    <circle id="Oval" fill="#383A48" cx="179.6" cy="128.4" r="5"></circle>
                    <circle id="Oval" fill="#383A48" cx="179.6" cy="153" r="5"></circle>
                    <circle id="Oval" fill="#383A48" cx="179.6" cy="177.7" r="5"></circle>
                    <circle id="Oval" fill="#383A48" cx="179.6" cy="202.4" r="5"></circle>
                    <circle id="Oval" fill="#383A48" cx="179.6" cy="227" r="5"></circle>
                    <circle id="Oval" fill="#383A48" cx="179.6" cy="251.7" r="5"></circle>
                    <circle id="Oval" fill="#383A48" cx="179.6" cy="276.4" r="5"></circle>
                    <circle id="Oval" fill="#383A48" cx="179.6" cy="301" r="5"></circle>
                    <circle id="Oval" fill="#383A48" cx="179.6" cy="325.7" r="5"></circle>
                    <circle id="Oval" fill="#383A48" cx="179.6" cy="350.4" r="5"></circle>
                    <circle id="Oval" fill="#383A48" cx="179.6" cy="375" r="5"></circle>
                    <circle id="Oval" fill="#383A48" cx="179.6" cy="399.7" r="5"></circle>
                    <circle id="Oval" fill="#383A48" cx="154.9" cy="29.7" r="5"></circle>
                    <circle id="Oval" fill="#383A48" cx="154.9" cy="54.4" r="5"></circle>
                    <circle id="Oval" fill="#383A48" cx="154.9" cy="79" r="5"></circle>
                    <circle id="Oval" fill="#383A48" cx="154.9" cy="103.7" r="5"></circle>
                    <circle id="Oval" fill="#383A48" cx="154.9" cy="128.4" r="5"></circle>
                    <circle id="Oval" fill="#383A48" cx="154.9" cy="153" r="5"></circle>
                    <circle id="Oval" fill="#383A48" cx="154.9" cy="177.7" r="5"></circle>
                    <circle id="Oval" fill="#383A48" cx="154.9" cy="202.4" r="5"></circle>
                    <circle id="Oval" fill="#383A48" cx="154.9" cy="227" r="5"></circle>
                    <circle id="Oval" fill="#383A48" cx="154.9" cy="251.7" r="5"></circle>
                    <circle id="Oval" fill="#383A48" cx="154.9" cy="276.4" r="5"></circle>
                    <circle id="Oval" fill="#383A48" cx="154.9" cy="301" r="5"></circle>
                    <circle id="Oval" fill="#383A48" cx="154.9" cy="325.7" r="5"></circle>
                    <circle id="Oval" fill="#383A48" cx="154.9" cy="350.4" r="5"></circle>
                    <circle id="Oval" fill="#383A48" cx="154.9" cy="375" r="5"></circle>
                    <circle id="Oval" fill="#383A48" cx="154.9" cy="399.7" r="5"></circle>
                    <circle id="Oval" fill="#383A48" cx="130.3" cy="29.7" r="5"></circle>
                    <circle id="Oval" fill="#383A48" cx="130.3" cy="54.4" r="5"></circle>
                    <circle id="Oval" fill="#383A48" cx="130.3" cy="79" r="5"></circle>
                    <circle id="Oval" fill="#383A48" cx="130.3" cy="103.7" r="5"></circle>
                    <circle id="Oval" fill="#383A48" cx="130.3" cy="128.4" r="5"></circle>
                    <circle id="Oval" fill="#383A48" cx="130.3" cy="153" r="5"></circle>
                    <circle id="Oval" fill="#383A48" cx="130.3" cy="177.7" r="5"></circle>
                    <circle id="Oval" fill="#383A48" cx="130.3" cy="202.4" r="5"></circle>
                    <circle id="Oval" fill="#383A48" cx="130.3" cy="227" r="5"></circle>
                    <circle id="Oval" fill="#383A48" cx="130.3" cy="251.7" r="5"></circle>
                    <circle id="Oval" fill="#383A48" cx="130.3" cy="276.4" r="5"></circle>
                    <circle id="Oval" fill="#383A48" cx="130.3" cy="301" r="5"></circle>
                    <circle id="Oval" fill="#383A48" cx="130.3" cy="325.7" r="5"></circle>
                    <circle id="Oval" fill="#383A48" cx="130.3" cy="350.4" r="5"></circle>
                    <circle id="Oval" fill="#383A48" cx="130.3" cy="375" r="5"></circle>
                    <circle id="Oval" fill="#383A48" cx="130.3" cy="399.7" r="5"></circle>
                    <circle id="Oval" fill="#383A48" cx="105.6" cy="54.4" r="5"></circle>
                    <circle id="Oval" fill="#383A48" cx="105.6" cy="79" r="5"></circle>
                    <circle id="Oval" fill="#383A48" cx="105.6" cy="103.7" r="5"></circle>
                    <circle id="Oval" fill="#383A48" cx="105.6" cy="128.4" r="5"></circle>
                    <circle id="Oval" fill="#383A48" cx="105.6" cy="153" r="5"></circle>
                    <circle id="Oval" fill="#383A48" cx="105.6" cy="177.7" r="5"></circle>
                    <circle id="Oval" fill="#383A48" cx="105.6" cy="202.4" r="5"></circle>
                    <circle id="Oval" fill="#383A48" cx="105.6" cy="227" r="5"></circle>
                    <circle id="Oval" fill="#383A48" cx="105.6" cy="251.7" r="5"></circle>
                    <circle id="Oval" fill="#383A48" cx="105.6" cy="276.4" r="5"></circle>
                    <circle id="Oval" fill="#383A48" cx="105.6" cy="301" r="5"></circle>
                    <circle id="Oval" fill="#383A48" cx="105.6" cy="325.7" r="5"></circle>
                    <circle id="Oval" fill="#383A48" cx="105.6" cy="350.4" r="5"></circle>
                    <circle id="Oval" fill="#383A48" cx="105.6" cy="375" r="5"></circle>
                    <circle id="Oval" fill="#383A48" cx="80.9" cy="79" r="5"></circle>
                    <circle id="Oval" fill="#383A48" cx="80.9" cy="103.7" r="5"></circle>
                    <circle id="Oval" fill="#383A48" cx="80.9" cy="128.4" r="5"></circle>
                    <circle id="Oval" fill="#383A48" cx="80.9" cy="153" r="5"></circle>
                    <circle id="Oval" fill="#383A48" cx="80.9" cy="177.7" r="5"></circle>
                    <circle id="Oval" fill="#383A48" cx="80.9" cy="202.4" r="5"></circle>
                    <circle id="Oval" fill="#383A48" cx="80.9" cy="227" r="5"></circle>
                    <circle id="Oval" fill="#383A48" cx="80.9" cy="251.7" r="5"></circle>
                    <circle id="Oval" fill="#383A48" cx="80.9" cy="276.4" r="5"></circle>
                    <circle id="Oval" fill="#383A48" cx="80.9" cy="301" r="5"></circle>
                    <circle id="Oval" fill="#383A48" cx="80.9" cy="325.7" r="5"></circle>
                    <circle id="Oval" fill="#383A48" cx="80.9" cy="350.4" r="5"></circle>
                    <circle id="Oval" fill="#383A48" cx="56.3" cy="103.7" r="5"></circle>
                    <circle id="Oval" fill="#383A48" cx="56.3" cy="128.4" r="5"></circle>
                    <circle id="Oval" fill="#383A48" cx="56.3" cy="153" r="5"></circle>
                    <circle id="Oval" fill="#383A48" cx="56.3" cy="177.7" r="5"></circle>
                    <circle id="Oval" fill="#383A48" cx="56.3" cy="202.4" r="5"></circle>
                    <circle id="Oval" fill="#383A48" cx="56.3" cy="227" r="5"></circle>
                    <circle id="Oval" fill="#383A48" cx="56.3" cy="251.7" r="5"></circle>
                    <circle id="Oval" fill="#383A48" cx="56.3" cy="276.4" r="5"></circle>
                    <circle id="Oval" fill="#383A48" cx="56.3" cy="301" r="5"></circle>
                    <circle id="Oval" fill="#383A48" cx="56.3" cy="325.7" r="5"></circle>
                    <circle id="Oval" fill="#383A48" cx="31.6" cy="128.4" r="5"></circle>
                    <circle id="Oval" fill="#383A48" cx="31.6" cy="153" r="5"></circle>
                    <circle id="Oval" fill="#383A48" cx="31.6" cy="177.7" r="5"></circle>
                    <circle id="Oval" fill="#383A48" cx="31.6" cy="202.4" r="5"></circle>
                    <circle id="Oval" fill="#383A48" cx="31.6" cy="227" r="5"></circle>
                    <circle id="Oval" fill="#383A48" cx="31.6" cy="251.7" r="5"></circle>
                    <circle id="Oval" fill="#383A48" cx="31.6" cy="276.4" r="5"></circle>
                    <circle id="Oval" fill="#383A48" cx="31.6" cy="301" r="5"></circle>
                </g>
                <path d="M1500.7,342.6 C1498,342.5 1495.7,344.5 1495.5,347.1 C1495.4,347.7 1489.6,405.4 1469.6,466.3 C1457.9,501.9 1443.8,531.6 1427.6,554.6 C1407.7,582.8 1384.6,600.7 1358.9,607.9 C1288.9,627.4 1241.1,681.8 1239.1,684.1 C1237.8,685.6 1237.5,687.7 1238.3,689.5 C1239.1,691.3 1240.9,692.4 1242.8,692.4 L1500.4,692.4 C1503.2,692.4 1505.4,690.2 1505.4,687.4 L1505.4,347.6 C1505.5,344.9 1503.4,342.7 1500.7,342.6 Z" id="Path" fill="#F3F6E6" fill-rule="nonzero"></path>
                <g transform="translate(301.000000, 117.000000)">
                    <g>
                        <line x1="4.2" y1="4.4" x2="27.5" y2="27.7" id="Path"></line>
                        <rect id="Rectangle" fill="#383A48" fill-rule="nonzero" transform="translate(15.928800, 16.091620) rotate(-45.000000) translate(-15.928800, -16.091620) " x="10.928848" y="-0.408221764" width="9.9999041" height="32.9996835"></rect>
                    </g>
                    <g>
                        <line x1="4.2" y1="27.7" x2="27.5" y2="4.4" id="Path"></line>
                        <rect id="Rectangle" fill="#383A48" fill-rule="nonzero" transform="translate(15.926700, 16.093120) rotate(-45.000000) translate(-15.926700, -16.093120) " x="-0.573141764" y="11.093168" width="32.9996835" height="9.9999041"></rect>
                    </g>
                </g>
                <g transform="translate(419.000000, 0.000000)" fill-rule="nonzero">
                    <g>
                        <rect id="Rectangle" fill="#F3F6E6" x="5.8" y="5.7" width="683.9" height="683.9"></rect>
                        <path d="M689.7,694.6 L677.7,694.6 C674.9,694.6 672.7,692.4 672.7,689.6 C672.7,686.8 674.9,684.6 677.7,684.6 L684.7,684.6 L684.7,684 C684.7,681.2 686.9,679 689.7,679 C692.5,679 694.7,681.2 694.7,684 L694.7,689.6 C694.7,692.3 692.4,694.6 689.7,694.6 Z M647.7,694.6 L635.7,694.6 C632.9,694.6 630.7,692.4 630.7,689.6 C630.7,686.8 632.9,684.6 635.7,684.6 L647.7,684.6 C650.5,684.6 652.7,686.8 652.7,689.6 C652.7,692.4 650.4,694.6 647.7,694.6 Z M605.7,694.6 L593.7,694.6 C590.9,694.6 588.7,692.4 588.7,689.6 C588.7,686.8 590.9,684.6 593.7,684.6 L605.7,684.6 C608.5,684.6 610.7,686.8 610.7,689.6 C610.7,692.4 608.4,694.6 605.7,694.6 Z M563.7,694.6 L551.7,694.6 C548.9,694.6 546.7,692.4 546.7,689.6 C546.7,686.8 548.9,684.6 551.7,684.6 L563.7,684.6 C566.5,684.6 568.7,686.8 568.7,689.6 C568.7,692.4 566.4,694.6 563.7,694.6 Z M521.7,694.6 L509.7,694.6 C506.9,694.6 504.7,692.4 504.7,689.6 C504.7,686.8 506.9,684.6 509.7,684.6 L521.7,684.6 C524.5,684.6 526.7,686.8 526.7,689.6 C526.7,692.4 524.4,694.6 521.7,694.6 Z M479.7,694.6 L467.7,694.6 C464.9,694.6 462.7,692.4 462.7,689.6 C462.7,686.8 464.9,684.6 467.7,684.6 L479.7,684.6 C482.5,684.6 484.7,686.8 484.7,689.6 C484.7,692.4 482.4,694.6 479.7,694.6 Z M437.7,694.6 L425.7,694.6 C422.9,694.6 420.7,692.4 420.7,689.6 C420.7,686.8 422.9,684.6 425.7,684.6 L437.7,684.6 C440.5,684.6 442.7,686.8 442.7,689.6 C442.7,692.4 440.4,694.6 437.7,694.6 Z M395.7,694.6 L383.7,694.6 C380.9,694.6 378.7,692.4 378.7,689.6 C378.7,686.8 380.9,684.6 383.7,684.6 L395.7,684.6 C398.5,684.6 400.7,686.8 400.7,689.6 C400.7,692.4 398.4,694.6 395.7,694.6 Z M353.7,694.6 L341.7,694.6 C338.9,694.6 336.7,692.4 336.7,689.6 C336.7,686.8 338.9,684.6 341.7,684.6 L353.7,684.6 C356.5,684.6 358.7,686.8 358.7,689.6 C358.7,692.4 356.4,694.6 353.7,694.6 Z M311.7,694.6 L299.7,694.6 C296.9,694.6 294.7,692.4 294.7,689.6 C294.7,686.8 296.9,684.6 299.7,684.6 L311.7,684.6 C314.5,684.6 316.7,686.8 316.7,689.6 C316.7,692.4 314.4,694.6 311.7,694.6 Z M269.7,694.6 L257.7,694.6 C254.9,694.6 252.7,692.4 252.7,689.6 C252.7,686.8 254.9,684.6 257.7,684.6 L269.7,684.6 C272.5,684.6 274.7,686.8 274.7,689.6 C274.7,692.4 272.4,694.6 269.7,694.6 Z M227.7,694.6 L215.7,694.6 C212.9,694.6 210.7,692.4 210.7,689.6 C210.7,686.8 212.9,684.6 215.7,684.6 L227.7,684.6 C230.5,684.6 232.7,686.8 232.7,689.6 C232.7,692.4 230.4,694.6 227.7,694.6 Z M185.7,694.6 L173.7,694.6 C170.9,694.6 168.7,692.4 168.7,689.6 C168.7,686.8 170.9,684.6 173.7,684.6 L185.7,684.6 C188.5,684.6 190.7,686.8 190.7,689.6 C190.7,692.4 188.4,694.6 185.7,694.6 Z M143.7,694.6 L131.7,694.6 C128.9,694.6 126.7,692.4 126.7,689.6 C126.7,686.8 128.9,684.6 131.7,684.6 L143.7,684.6 C146.5,684.6 148.7,686.8 148.7,689.6 C148.7,692.4 146.4,694.6 143.7,694.6 Z M101.7,694.6 L89.7,694.6 C86.9,694.6 84.7,692.4 84.7,689.6 C84.7,686.8 86.9,684.6 89.7,684.6 L101.7,684.6 C104.5,684.6 106.7,686.8 106.7,689.6 C106.7,692.4 104.4,694.6 101.7,694.6 Z M59.7,694.6 L47.7,694.6 C44.9,694.6 42.7,692.4 42.7,689.6 C42.7,686.8 44.9,684.6 47.7,684.6 L59.7,684.6 C62.5,684.6 64.7,686.8 64.7,689.6 C64.7,692.4 62.4,694.6 59.7,694.6 Z M17.7,694.6 L5.8,694.6 C3,694.6 0.8,692.4 0.8,689.6 C0.8,686.8 3,684.6 5.8,684.6 C6,684.6 6.3,684.6 6.5,684.6 L17.7,684.6 C20.5,684.6 22.7,686.8 22.7,689.6 C22.7,692.4 20.4,694.6 17.7,694.6 Z M5.8,664.5 C3,664.5 0.8,662.3 0.8,659.5 L0.8,647.5 C0.8,644.7 3,642.5 5.8,642.5 C8.6,642.5 10.8,644.7 10.8,647.5 L10.8,659.5 C10.8,662.2 8.5,664.5 5.8,664.5 Z M689.7,658.9 C686.9,658.9 684.7,656.7 684.7,653.9 L684.7,641.9 C684.7,639.1 686.9,636.9 689.7,636.9 C692.5,636.9 694.7,639.1 694.7,641.9 L694.7,653.9 C694.7,656.7 692.4,658.9 689.7,658.9 Z M5.8,622.5 C3,622.5 0.8,620.3 0.8,617.5 L0.8,605.5 C0.8,602.7 3,600.5 5.8,600.5 C8.6,600.5 10.8,602.7 10.8,605.5 L10.8,617.5 C10.8,620.2 8.5,622.5 5.8,622.5 Z M689.7,616.9 C686.9,616.9 684.7,614.7 684.7,611.9 L684.7,599.9 C684.7,597.1 686.9,594.9 689.7,594.9 C692.5,594.9 694.7,597.1 694.7,599.9 L694.7,611.9 C694.7,614.7 692.4,616.9 689.7,616.9 Z M5.8,580.5 C3,580.5 0.8,578.3 0.8,575.5 L0.8,563.5 C0.8,560.7 3,558.5 5.8,558.5 C8.6,558.5 10.8,560.7 10.8,563.5 L10.8,575.5 C10.8,578.2 8.5,580.5 5.8,580.5 Z M689.7,574.9 C686.9,574.9 684.7,572.7 684.7,569.9 L684.7,557.9 C684.7,555.1 686.9,552.9 689.7,552.9 C692.5,552.9 694.7,555.1 694.7,557.9 L694.7,569.9 C694.7,572.7 692.4,574.9 689.7,574.9 Z M5.8,538.5 C3,538.5 0.8,536.3 0.8,533.5 L0.8,521.5 C0.8,518.7 3,516.5 5.8,516.5 C8.6,516.5 10.8,518.7 10.8,521.5 L10.8,533.5 C10.8,536.2 8.5,538.5 5.8,538.5 Z M689.7,532.9 C686.9,532.9 684.7,530.7 684.7,527.9 L684.7,515.9 C684.7,513.1 686.9,510.9 689.7,510.9 C692.5,510.9 694.7,513.1 694.7,515.9 L694.7,527.9 C694.7,530.7 692.4,532.9 689.7,532.9 Z M5.8,496.5 C3,496.5 0.8,494.3 0.8,491.5 L0.8,479.5 C0.8,476.7 3,474.5 5.8,474.5 C8.6,474.5 10.8,476.7 10.8,479.5 L10.8,491.5 C10.8,494.2 8.5,496.5 5.8,496.5 Z M689.7,490.9 C686.9,490.9 684.7,488.7 684.7,485.9 L684.7,473.9 C684.7,471.1 686.9,468.9 689.7,468.9 C692.5,468.9 694.7,471.1 694.7,473.9 L694.7,485.9 C694.7,488.7 692.4,490.9 689.7,490.9 Z M5.8,454.5 C3,454.5 0.8,452.3 0.8,449.5 L0.8,437.5 C0.8,434.7 3,432.5 5.8,432.5 C8.6,432.5 10.8,434.7 10.8,437.5 L10.8,449.5 C10.8,452.2 8.5,454.5 5.8,454.5 Z M689.7,448.9 C686.9,448.9 684.7,446.7 684.7,443.9 L684.7,431.9 C684.7,429.1 686.9,426.9 689.7,426.9 C692.5,426.9 694.7,429.1 694.7,431.9 L694.7,443.9 C694.7,446.7 692.4,448.9 689.7,448.9 Z M5.8,412.5 C3,412.5 0.8,410.3 0.8,407.5 L0.8,395.5 C0.8,392.7 3,390.5 5.8,390.5 C8.6,390.5 10.8,392.7 10.8,395.5 L10.8,407.5 C10.8,410.2 8.5,412.5 5.8,412.5 Z M689.7,406.9 C686.9,406.9 684.7,404.7 684.7,401.9 L684.7,389.9 C684.7,387.1 686.9,384.9 689.7,384.9 C692.5,384.9 694.7,387.1 694.7,389.9 L694.7,401.9 C694.7,404.7 692.4,406.9 689.7,406.9 Z M5.8,370.5 C3,370.5 0.8,368.3 0.8,365.5 L0.8,353.5 C0.8,350.7 3,348.5 5.8,348.5 C8.6,348.5 10.8,350.7 10.8,353.5 L10.8,365.5 C10.8,368.2 8.5,370.5 5.8,370.5 Z M689.7,364.9 C686.9,364.9 684.7,362.7 684.7,359.9 L684.7,347.9 C684.7,345.1 686.9,342.9 689.7,342.9 C692.5,342.9 694.7,345.1 694.7,347.9 L694.7,359.9 C694.7,362.7 692.4,364.9 689.7,364.9 Z M5.8,328.5 C3,328.5 0.8,326.3 0.8,323.5 L0.8,311.5 C0.8,308.7 3,306.5 5.8,306.5 C8.6,306.5 10.8,308.7 10.8,311.5 L10.8,323.5 C10.8,326.2 8.5,328.5 5.8,328.5 Z M689.7,322.9 C686.9,322.9 684.7,320.7 684.7,317.9 L684.7,305.9 C684.7,303.1 686.9,300.9 689.7,300.9 C692.5,300.9 694.7,303.1 694.7,305.9 L694.7,317.9 C694.7,320.7 692.4,322.9 689.7,322.9 Z M5.8,286.5 C3,286.5 0.8,284.3 0.8,281.5 L0.8,269.5 C0.8,266.7 3,264.5 5.8,264.5 C8.6,264.5 10.8,266.7 10.8,269.5 L10.8,281.5 C10.8,284.2 8.5,286.5 5.8,286.5 Z M689.7,280.9 C686.9,280.9 684.7,278.7 684.7,275.9 L684.7,263.9 C684.7,261.1 686.9,258.9 689.7,258.9 C692.5,258.9 694.7,261.1 694.7,263.9 L694.7,275.9 C694.7,278.7 692.4,280.9 689.7,280.9 Z M5.8,244.5 C3,244.5 0.8,242.3 0.8,239.5 L0.8,227.5 C0.8,224.7 3,222.5 5.8,222.5 C8.6,222.5 10.8,224.7 10.8,227.5 L10.8,239.5 C10.8,242.2 8.5,244.5 5.8,244.5 Z M689.7,238.9 C686.9,238.9 684.7,236.7 684.7,233.9 L684.7,221.9 C684.7,219.1 686.9,216.9 689.7,216.9 C692.5,216.9 694.7,219.1 694.7,221.9 L694.7,233.9 C694.7,236.7 692.4,238.9 689.7,238.9 Z M5.8,202.5 C3,202.5 0.8,200.3 0.8,197.5 L0.8,185.5 C0.8,182.7 3,180.5 5.8,180.5 C8.6,180.5 10.8,182.7 10.8,185.5 L10.8,197.5 C10.8,200.2 8.5,202.5 5.8,202.5 Z M689.7,196.9 C686.9,196.9 684.7,194.7 684.7,191.9 L684.7,179.9 C684.7,177.1 686.9,174.9 689.7,174.9 C692.5,174.9 694.7,177.1 694.7,179.9 L694.7,191.9 C694.7,194.7 692.4,196.9 689.7,196.9 Z M5.8,160.5 C3,160.5 0.8,158.3 0.8,155.5 L0.8,143.5 C0.8,140.7 3,138.5 5.8,138.5 C8.6,138.5 10.8,140.7 10.8,143.5 L10.8,155.5 C10.8,158.2 8.5,160.5 5.8,160.5 Z M689.7,154.9 C686.9,154.9 684.7,152.7 684.7,149.9 L684.7,137.9 C684.7,135.1 686.9,132.9 689.7,132.9 C692.5,132.9 694.7,135.1 694.7,137.9 L694.7,149.9 C694.7,152.7 692.4,154.9 689.7,154.9 Z M5.8,118.5 C3,118.5 0.8,116.3 0.8,113.5 L0.8,101.5 C0.8,98.7 3,96.5 5.8,96.5 C8.6,96.5 10.8,98.7 10.8,101.5 L10.8,113.5 C10.8,116.2 8.5,118.5 5.8,118.5 Z M689.7,112.9 C686.9,112.9 684.7,110.7 684.7,107.9 L684.7,95.9 C684.7,93.1 686.9,90.9 689.7,90.9 C692.5,90.9 694.7,93.1 694.7,95.9 L694.7,107.9 C694.7,110.7 692.4,112.9 689.7,112.9 Z M5.8,76.5 C3,76.5 0.8,74.3 0.8,71.5 L0.8,59.5 C0.8,56.7 3,54.5 5.8,54.5 C8.6,54.5 10.8,56.7 10.8,59.5 L10.8,71.5 C10.8,74.2 8.5,76.5 5.8,76.5 Z M689.7,70.9 C686.9,70.9 684.7,68.7 684.7,65.9 L684.7,53.9 C684.7,51.1 686.9,48.9 689.7,48.9 C692.5,48.9 694.7,51.1 694.7,53.9 L694.7,65.9 C694.7,68.7 692.4,70.9 689.7,70.9 Z M5.8,34.5 C3,34.5 0.8,32.3 0.8,29.5 L0.8,17.5 C0.8,14.7 3,12.5 5.8,12.5 C8.6,12.5 10.8,14.7 10.8,17.5 L10.8,29.5 C10.8,32.2 8.5,34.5 5.8,34.5 Z M689.7,28.9 C686.9,28.9 684.7,26.7 684.7,23.9 L684.7,11.9 C684.7,9.1 686.9,6.9 689.7,6.9 C692.5,6.9 694.7,9.1 694.7,11.9 L694.7,23.9 C694.7,26.7 692.4,28.9 689.7,28.9 Z M666,10.7 L654,10.7 C651.2,10.7 649,8.5 649,5.7 C649,2.9 651.2,0.7 654,0.7 L666,0.7 C668.8,0.7 671,2.9 671,5.7 C671,8.5 668.7,10.7 666,10.7 Z M624,10.7 L612,10.7 C609.2,10.7 607,8.5 607,5.7 C607,2.9 609.2,0.7 612,0.7 L624,0.7 C626.8,0.7 629,2.9 629,5.7 C629,8.5 626.7,10.7 624,10.7 Z M582,10.7 L570,10.7 C567.2,10.7 565,8.5 565,5.7 C565,2.9 567.2,0.7 570,0.7 L582,0.7 C584.8,0.7 587,2.9 587,5.7 C587,8.5 584.7,10.7 582,10.7 Z M540,10.7 L528,10.7 C525.2,10.7 523,8.5 523,5.7 C523,2.9 525.2,0.7 528,0.7 L540,0.7 C542.8,0.7 545,2.9 545,5.7 C545,8.5 542.7,10.7 540,10.7 Z M498,10.7 L486,10.7 C483.2,10.7 481,8.5 481,5.7 C481,2.9 483.2,0.7 486,0.7 L498,0.7 C500.8,0.7 503,2.9 503,5.7 C503,8.5 500.7,10.7 498,10.7 Z M456,10.7 L444,10.7 C441.2,10.7 439,8.5 439,5.7 C439,2.9 441.2,0.7 444,0.7 L456,0.7 C458.8,0.7 461,2.9 461,5.7 C461,8.5 458.7,10.7 456,10.7 Z M414,10.7 L402,10.7 C399.2,10.7 397,8.5 397,5.7 C397,2.9 399.2,0.7 402,0.7 L414,0.7 C416.8,0.7 419,2.9 419,5.7 C419,8.5 416.7,10.7 414,10.7 Z M372,10.7 L360,10.7 C357.2,10.7 355,8.5 355,5.7 C355,2.9 357.2,0.7 360,0.7 L372,0.7 C374.8,0.7 377,2.9 377,5.7 C377,8.5 374.7,10.7 372,10.7 Z M330,10.7 L318,10.7 C315.2,10.7 313,8.5 313,5.7 C313,2.9 315.2,0.7 318,0.7 L330,0.7 C332.8,0.7 335,2.9 335,5.7 C335,8.5 332.7,10.7 330,10.7 Z M288,10.7 L276,10.7 C273.2,10.7 271,8.5 271,5.7 C271,2.9 273.2,0.7 276,0.7 L288,0.7 C290.8,0.7 293,2.9 293,5.7 C293,8.5 290.7,10.7 288,10.7 Z M246,10.7 L234,10.7 C231.2,10.7 229,8.5 229,5.7 C229,2.9 231.2,0.7 234,0.7 L246,0.7 C248.8,0.7 251,2.9 251,5.7 C251,8.5 248.7,10.7 246,10.7 Z M204,10.7 L192,10.7 C189.2,10.7 187,8.5 187,5.7 C187,2.9 189.2,0.7 192,0.7 L204,0.7 C206.8,0.7 209,2.9 209,5.7 C209,8.5 206.7,10.7 204,10.7 Z M162,10.7 L150,10.7 C147.2,10.7 145,8.5 145,5.7 C145,2.9 147.2,0.7 150,0.7 L162,0.7 C164.8,0.7 167,2.9 167,5.7 C167,8.5 164.7,10.7 162,10.7 Z M120,10.7 L108,10.7 C105.2,10.7 103,8.5 103,5.7 C103,2.9 105.2,0.7 108,0.7 L120,0.7 C122.8,0.7 125,2.9 125,5.7 C125,8.5 122.7,10.7 120,10.7 Z M78,10.7 L66,10.7 C63.2,10.7 61,8.5 61,5.7 C61,2.9 63.2,0.7 66,0.7 L78,0.7 C80.8,0.7 83,2.9 83,5.7 C83,8.5 80.7,10.7 78,10.7 Z M36,10.7 L24,10.7 C21.2,10.7 19,8.5 19,5.7 C19,2.9 21.2,0.7 24,0.7 L36,0.7 C38.8,0.7 41,2.9 41,5.7 C41,8.5 38.7,10.7 36,10.7 Z" id="Shape" fill="#383A48"></path>
                    </g>
                    <g>
                        <rect id="Rectangle" fill="#F3F6E6" x="5.8" y="5.7" width="683.9" height="190.2"></rect>
                        <path d="M689.7,200.9 L677.7,200.9 C674.9,200.9 672.7,198.7 672.7,195.9 C672.7,193.1 674.9,190.9 677.7,190.9 L689.7,190.9 C692.5,190.9 694.7,193.1 694.7,195.9 C694.7,198.7 692.4,200.9 689.7,200.9 Z M647.7,200.9 L635.7,200.9 C632.9,200.9 630.7,198.7 630.7,195.9 C630.7,193.1 632.9,190.9 635.7,190.9 L647.7,190.9 C650.5,190.9 652.7,193.1 652.7,195.9 C652.7,198.7 650.4,200.9 647.7,200.9 Z M605.7,200.9 L593.7,200.9 C590.9,200.9 588.7,198.7 588.7,195.9 C588.7,193.1 590.9,190.9 593.7,190.9 L605.7,190.9 C608.5,190.9 610.7,193.1 610.7,195.9 C610.7,198.7 608.4,200.9 605.7,200.9 Z M563.7,200.9 L551.7,200.9 C548.9,200.9 546.7,198.7 546.7,195.9 C546.7,193.1 548.9,190.9 551.7,190.9 L563.7,190.9 C566.5,190.9 568.7,193.1 568.7,195.9 C568.7,198.7 566.4,200.9 563.7,200.9 Z M521.7,200.9 L509.7,200.9 C506.9,200.9 504.7,198.7 504.7,195.9 C504.7,193.1 506.9,190.9 509.7,190.9 L521.7,190.9 C524.5,190.9 526.7,193.1 526.7,195.9 C526.7,198.7 524.4,200.9 521.7,200.9 Z M479.7,200.9 L467.7,200.9 C464.9,200.9 462.7,198.7 462.7,195.9 C462.7,193.1 464.9,190.9 467.7,190.9 L479.7,190.9 C482.5,190.9 484.7,193.1 484.7,195.9 C484.7,198.7 482.4,200.9 479.7,200.9 Z M437.7,200.9 L425.7,200.9 C422.9,200.9 420.7,198.7 420.7,195.9 C420.7,193.1 422.9,190.9 425.7,190.9 L437.7,190.9 C440.5,190.9 442.7,193.1 442.7,195.9 C442.7,198.7 440.4,200.9 437.7,200.9 Z M395.7,200.9 L383.7,200.9 C380.9,200.9 378.7,198.7 378.7,195.9 C378.7,193.1 380.9,190.9 383.7,190.9 L395.7,190.9 C398.5,190.9 400.7,193.1 400.7,195.9 C400.7,198.7 398.4,200.9 395.7,200.9 Z M353.7,200.9 L341.7,200.9 C338.9,200.9 336.7,198.7 336.7,195.9 C336.7,193.1 338.9,190.9 341.7,190.9 L353.7,190.9 C356.5,190.9 358.7,193.1 358.7,195.9 C358.7,198.7 356.4,200.9 353.7,200.9 Z M311.7,200.9 L299.7,200.9 C296.9,200.9 294.7,198.7 294.7,195.9 C294.7,193.1 296.9,190.9 299.7,190.9 L311.7,190.9 C314.5,190.9 316.7,193.1 316.7,195.9 C316.7,198.7 314.4,200.9 311.7,200.9 Z M269.7,200.9 L257.7,200.9 C254.9,200.9 252.7,198.7 252.7,195.9 C252.7,193.1 254.9,190.9 257.7,190.9 L269.7,190.9 C272.5,190.9 274.7,193.1 274.7,195.9 C274.7,198.7 272.4,200.9 269.7,200.9 Z M227.7,200.9 L215.7,200.9 C212.9,200.9 210.7,198.7 210.7,195.9 C210.7,193.1 212.9,190.9 215.7,190.9 L227.7,190.9 C230.5,190.9 232.7,193.1 232.7,195.9 C232.7,198.7 230.4,200.9 227.7,200.9 Z M185.7,200.9 L173.7,200.9 C170.9,200.9 168.7,198.7 168.7,195.9 C168.7,193.1 170.9,190.9 173.7,190.9 L185.7,190.9 C188.5,190.9 190.7,193.1 190.7,195.9 C190.7,198.7 188.4,200.9 185.7,200.9 Z M143.7,200.9 L131.7,200.9 C128.9,200.9 126.7,198.7 126.7,195.9 C126.7,193.1 128.9,190.9 131.7,190.9 L143.7,190.9 C146.5,190.9 148.7,193.1 148.7,195.9 C148.7,198.7 146.4,200.9 143.7,200.9 Z M101.7,200.9 L89.7,200.9 C86.9,200.9 84.7,198.7 84.7,195.9 C84.7,193.1 86.9,190.9 89.7,190.9 L101.7,190.9 C104.5,190.9 106.7,193.1 106.7,195.9 C106.7,198.7 104.4,200.9 101.7,200.9 Z M59.7,200.9 L47.7,200.9 C44.9,200.9 42.7,198.7 42.7,195.9 C42.7,193.1 44.9,190.9 47.7,190.9 L59.7,190.9 C62.5,190.9 64.7,193.1 64.7,195.9 C64.7,198.7 62.4,200.9 59.7,200.9 Z M17.7,200.9 L5.8,200.9 C3,200.9 0.8,198.7 0.8,195.9 C0.8,193.1 3,190.9 5.8,190.9 C6,190.9 6.3,190.9 6.5,190.9 L17.7,190.9 C20.5,190.9 22.7,193.1 22.7,195.9 C22.7,198.7 20.4,200.9 17.7,200.9 Z M689.7,186.6 C686.9,186.6 684.7,184.4 684.7,181.6 L684.7,169.6 C684.7,166.8 686.9,164.6 689.7,164.6 C692.5,164.6 694.7,166.8 694.7,169.6 L694.7,181.6 C694.7,184.4 692.4,186.6 689.7,186.6 Z M5.8,170.8 C3,170.8 0.8,168.6 0.8,165.8 L0.8,153.8 C0.8,151 3,148.8 5.8,148.8 C8.6,148.8 10.8,151 10.8,153.8 L10.8,165.8 C10.8,168.5 8.5,170.8 5.8,170.8 Z M689.7,144.6 C686.9,144.6 684.7,142.4 684.7,139.6 L684.7,127.6 C684.7,124.8 686.9,122.6 689.7,122.6 C692.5,122.6 694.7,124.8 694.7,127.6 L694.7,139.6 C694.7,142.4 692.4,144.6 689.7,144.6 Z M5.8,128.8 C3,128.8 0.8,126.6 0.8,123.8 L0.8,111.8 C0.8,109 3,106.8 5.8,106.8 C8.6,106.8 10.8,109 10.8,111.8 L10.8,123.8 C10.8,126.5 8.5,128.8 5.8,128.8 Z M689.7,102.6 C686.9,102.6 684.7,100.4 684.7,97.6 L684.7,85.6 C684.7,82.8 686.9,80.6 689.7,80.6 C692.5,80.6 694.7,82.8 694.7,85.6 L694.7,97.6 C694.7,100.4 692.4,102.6 689.7,102.6 Z M5.8,86.8 C3,86.8 0.8,84.6 0.8,81.8 L0.8,69.8 C0.8,67 3,64.8 5.8,64.8 C8.6,64.8 10.8,67 10.8,69.8 L10.8,81.8 C10.8,84.5 8.5,86.8 5.8,86.8 Z M689.7,60.6 C686.9,60.6 684.7,58.4 684.7,55.6 L684.7,43.6 C684.7,40.8 686.9,38.6 689.7,38.6 C692.5,38.6 694.7,40.8 694.7,43.6 L694.7,55.6 C694.7,58.4 692.4,60.6 689.7,60.6 Z M5.8,44.8 C3,44.8 0.8,42.6 0.8,39.8 L0.8,27.8 C0.8,25 3,22.8 5.8,22.8 C8.6,22.8 10.8,25 10.8,27.8 L10.8,39.8 C10.8,42.5 8.5,44.8 5.8,44.8 Z M689.7,18.6 C686.9,18.6 684.7,16.4 684.7,13.6 L684.7,10.6 C682.4,10.2 680.7,8.1 680.7,5.7 C680.7,2.9 682.9,0.7 685.7,0.7 L689.7,0.7 C692.5,0.7 694.7,2.9 694.7,5.7 L694.7,13.7 C694.7,16.4 692.4,18.6 689.7,18.6 Z M655.6,10.7 L643.6,10.7 C640.8,10.7 638.6,8.5 638.6,5.7 C638.6,2.9 640.8,0.7 643.6,0.7 L655.6,0.7 C658.4,0.7 660.6,2.9 660.6,5.7 C660.6,8.5 658.4,10.7 655.6,10.7 Z M613.6,10.7 L601.6,10.7 C598.8,10.7 596.6,8.5 596.6,5.7 C596.6,2.9 598.8,0.7 601.6,0.7 L613.6,0.7 C616.4,0.7 618.6,2.9 618.6,5.7 C618.6,8.5 616.4,10.7 613.6,10.7 Z M571.6,10.7 L559.6,10.7 C556.8,10.7 554.6,8.5 554.6,5.7 C554.6,2.9 556.8,0.7 559.6,0.7 L571.6,0.7 C574.4,0.7 576.6,2.9 576.6,5.7 C576.6,8.5 574.4,10.7 571.6,10.7 Z M529.6,10.7 L517.6,10.7 C514.8,10.7 512.6,8.5 512.6,5.7 C512.6,2.9 514.8,0.7 517.6,0.7 L529.6,0.7 C532.4,0.7 534.6,2.9 534.6,5.7 C534.6,8.5 532.4,10.7 529.6,10.7 Z M487.6,10.7 L475.6,10.7 C472.8,10.7 470.6,8.5 470.6,5.7 C470.6,2.9 472.8,0.7 475.6,0.7 L487.6,0.7 C490.4,0.7 492.6,2.9 492.6,5.7 C492.6,8.5 490.4,10.7 487.6,10.7 Z M445.6,10.7 L433.6,10.7 C430.8,10.7 428.6,8.5 428.6,5.7 C428.6,2.9 430.8,0.7 433.6,0.7 L445.6,0.7 C448.4,0.7 450.6,2.9 450.6,5.7 C450.6,8.5 448.4,10.7 445.6,10.7 Z M403.6,10.7 L391.6,10.7 C388.8,10.7 386.6,8.5 386.6,5.7 C386.6,2.9 388.8,0.7 391.6,0.7 L403.6,0.7 C406.4,0.7 408.6,2.9 408.6,5.7 C408.6,8.5 406.4,10.7 403.6,10.7 Z M361.6,10.7 L349.6,10.7 C346.8,10.7 344.6,8.5 344.6,5.7 C344.6,2.9 346.8,0.7 349.6,0.7 L361.6,0.7 C364.4,0.7 366.6,2.9 366.6,5.7 C366.6,8.5 364.4,10.7 361.6,10.7 Z M319.6,10.7 L307.6,10.7 C304.8,10.7 302.6,8.5 302.6,5.7 C302.6,2.9 304.8,0.7 307.6,0.7 L319.6,0.7 C322.4,0.7 324.6,2.9 324.6,5.7 C324.6,8.5 322.4,10.7 319.6,10.7 Z M277.6,10.7 L265.6,10.7 C262.8,10.7 260.6,8.5 260.6,5.7 C260.6,2.9 262.8,0.7 265.6,0.7 L277.6,0.7 C280.4,0.7 282.6,2.9 282.6,5.7 C282.6,8.5 280.4,10.7 277.6,10.7 Z M235.6,10.7 L223.6,10.7 C220.8,10.7 218.6,8.5 218.6,5.7 C218.6,2.9 220.8,0.7 223.6,0.7 L235.6,0.7 C238.4,0.7 240.6,2.9 240.6,5.7 C240.6,8.5 238.4,10.7 235.6,10.7 Z M193.6,10.7 L181.6,10.7 C178.8,10.7 176.6,8.5 176.6,5.7 C176.6,2.9 178.8,0.7 181.6,0.7 L193.6,0.7 C196.4,0.7 198.6,2.9 198.6,5.7 C198.6,8.5 196.4,10.7 193.6,10.7 Z M151.6,10.7 L139.6,10.7 C136.8,10.7 134.6,8.5 134.6,5.7 C134.6,2.9 136.8,0.7 139.6,0.7 L151.6,0.7 C154.4,0.7 156.6,2.9 156.6,5.7 C156.6,8.5 154.4,10.7 151.6,10.7 Z M109.6,10.7 L97.6,10.7 C94.8,10.7 92.6,8.5 92.6,5.7 C92.6,2.9 94.8,0.7 97.6,0.7 L109.6,0.7 C112.4,0.7 114.6,2.9 114.6,5.7 C114.6,8.5 112.4,10.7 109.6,10.7 Z M67.6,10.7 L55.6,10.7 C52.8,10.7 50.6,8.5 50.6,5.7 C50.6,2.9 52.8,0.7 55.6,0.7 L67.6,0.7 C70.4,0.7 72.6,2.9 72.6,5.7 C72.6,8.5 70.4,10.7 67.6,10.7 Z M25.6,10.7 L13.6,10.7 C10.8,10.7 8.6,8.5 8.6,5.7 C8.6,2.9 10.8,0.7 13.6,0.7 L25.6,0.7 C28.4,0.7 30.6,2.9 30.6,5.7 C30.6,8.5 28.4,10.7 25.6,10.7 Z" id="Shape" fill="#383A48"></path>
                    </g>
                    <g transform="translate(56.000000, 69.000000)">
                        <circle id="Oval" fill="#E0719E" cx="31.6" cy="31.8" r="26.3"></circle>
                        <path d="M31.6,63.1 C14.3,63.1 0.3,49.1 0.3,31.8 C0.3,14.5 14.3,0.5 31.6,0.5 C48.9,0.5 62.9,14.5 62.9,31.8 C62.9,49 48.9,63.1 31.6,63.1 Z M31.6,10.5 C19.9,10.5 10.3,20.1 10.3,31.8 C10.3,43.5 19.9,53.1 31.6,53.1 C43.3,53.1 52.9,43.5 52.9,31.8 C52.9,20.1 43.3,10.5 31.6,10.5 Z" id="Shape" fill="#383A48"></path>
                    </g>
                    <g transform="translate(136.000000, 69.000000)">
                        <circle id="Oval" fill="#F6E049" cx="32.1" cy="31.8" r="26.3"></circle>
                        <path d="M32.1,63.1 C14.8,63.1 0.8,49.1 0.8,31.8 C0.8,14.5 14.8,0.5 32.1,0.5 C49.4,0.5 63.4,14.5 63.4,31.8 C63.4,49 49.4,63.1 32.1,63.1 Z M32.1,10.5 C20.4,10.5 10.8,20.1 10.8,31.8 C10.8,43.5 20.4,53.1 32.1,53.1 C43.8,53.1 53.4,43.5 53.4,31.8 C53.4,20.1 43.8,10.5 32.1,10.5 Z" id="Shape" fill="#383A48"></path>
                    </g>
                    <g transform="translate(217.000000, 69.000000)">
                        <circle id="Oval" fill="#7FD6C2" cx="31.6" cy="31.8" r="26.3"></circle>
                        <path d="M31.6,63.1 C14.3,63.1 0.3,49.1 0.3,31.8 C0.3,14.5 14.3,0.5 31.6,0.5 C48.9,0.5 62.9,14.5 62.9,31.8 C62.9,49 48.9,63.1 31.6,63.1 Z M31.6,10.5 C19.9,10.5 10.3,20.1 10.3,31.8 C10.3,43.5 19.9,53.1 31.6,53.1 C43.3,53.1 52.9,43.5 52.9,31.8 C52.9,20.1 43.3,10.5 31.6,10.5 Z" id="Shape" fill="#383A48"></path>
                    </g>
                    <g transform="translate(109.000000, 292.000000)">
                        <rect id="Rectangle" fill="#E0719E" x="5.9" y="5.4" width="465.7" height="126"></rect>
                        <path d="M471.6,136.4 L459.6,136.4 C456.8,136.4 454.6,134.2 454.6,131.4 C454.6,128.6 456.8,126.4 459.6,126.4 L466.6,126.4 L466.6,124 C466.6,121.2 468.8,119 471.6,119 C474.4,119 476.6,121.2 476.6,124 L476.6,131.4 C476.6,134.1 474.3,136.4 471.6,136.4 Z M429.6,136.4 L417.6,136.4 C414.8,136.4 412.6,134.2 412.6,131.4 C412.6,128.6 414.8,126.4 417.6,126.4 L429.6,126.4 C432.4,126.4 434.6,128.6 434.6,131.4 C434.6,134.2 432.3,136.4 429.6,136.4 Z M387.6,136.4 L375.6,136.4 C372.8,136.4 370.6,134.2 370.6,131.4 C370.6,128.6 372.8,126.4 375.6,126.4 L387.6,126.4 C390.4,126.4 392.6,128.6 392.6,131.4 C392.6,134.2 390.3,136.4 387.6,136.4 Z M345.6,136.4 L333.6,136.4 C330.8,136.4 328.6,134.2 328.6,131.4 C328.6,128.6 330.8,126.4 333.6,126.4 L345.6,126.4 C348.4,126.4 350.6,128.6 350.6,131.4 C350.6,134.2 348.3,136.4 345.6,136.4 Z M303.6,136.4 L291.6,136.4 C288.8,136.4 286.6,134.2 286.6,131.4 C286.6,128.6 288.8,126.4 291.6,126.4 L303.6,126.4 C306.4,126.4 308.6,128.6 308.6,131.4 C308.6,134.2 306.3,136.4 303.6,136.4 Z M261.6,136.4 L249.6,136.4 C246.8,136.4 244.6,134.2 244.6,131.4 C244.6,128.6 246.8,126.4 249.6,126.4 L261.6,126.4 C264.4,126.4 266.6,128.6 266.6,131.4 C266.6,134.2 264.3,136.4 261.6,136.4 Z M219.6,136.4 L207.6,136.4 C204.8,136.4 202.6,134.2 202.6,131.4 C202.6,128.6 204.8,126.4 207.6,126.4 L219.6,126.4 C222.4,126.4 224.6,128.6 224.6,131.4 C224.6,134.2 222.3,136.4 219.6,136.4 Z M177.6,136.4 L165.6,136.4 C162.8,136.4 160.6,134.2 160.6,131.4 C160.6,128.6 162.8,126.4 165.6,126.4 L177.6,126.4 C180.4,126.4 182.6,128.6 182.6,131.4 C182.6,134.2 180.3,136.4 177.6,136.4 Z M135.6,136.4 L123.6,136.4 C120.8,136.4 118.6,134.2 118.6,131.4 C118.6,128.6 120.8,126.4 123.6,126.4 L135.6,126.4 C138.4,126.4 140.6,128.6 140.6,131.4 C140.6,134.2 138.3,136.4 135.6,136.4 Z M93.6,136.4 L81.6,136.4 C78.8,136.4 76.6,134.2 76.6,131.4 C76.6,128.6 78.8,126.4 81.6,126.4 L93.6,126.4 C96.4,126.4 98.6,128.6 98.6,131.4 C98.6,134.2 96.3,136.4 93.6,136.4 Z M51.6,136.4 L39.6,136.4 C36.8,136.4 34.6,134.2 34.6,131.4 C34.6,128.6 36.8,126.4 39.6,126.4 L51.6,126.4 C54.4,126.4 56.6,128.6 56.6,131.4 C56.6,134.2 54.3,136.4 51.6,136.4 Z M9.6,136.4 L5.9,136.4 C3.1,136.4 0.9,134.2 0.9,131.4 L0.9,123.1 C0.9,120.3 3.1,118.1 5.9,118.1 C8.7,118.1 10.9,120.3 10.9,123.1 L10.9,126.6 C13,127.2 14.6,129.1 14.6,131.4 C14.6,134.1 12.3,136.4 9.6,136.4 Z M471.6,99 C468.8,99 466.6,96.8 466.6,94 L466.6,82 C466.6,79.2 468.8,77 471.6,77 C474.4,77 476.6,79.2 476.6,82 L476.6,94 C476.6,96.7 474.3,99 471.6,99 Z M5.9,98.1 C3.1,98.1 0.9,95.9 0.9,93.1 L0.9,81.1 C0.9,78.3 3.1,76.1 5.9,76.1 C8.7,76.1 10.9,78.3 10.9,81.1 L10.9,93.1 C10.9,95.8 8.6,98.1 5.9,98.1 Z M471.6,57 C468.8,57 466.6,54.8 466.6,52 L466.6,40 C466.6,37.2 468.8,35 471.6,35 C474.4,35 476.6,37.2 476.6,40 L476.6,52 C476.6,54.7 474.3,57 471.6,57 Z M5.9,56.1 C3.1,56.1 0.9,53.9 0.9,51.1 L0.9,39.1 C0.9,36.3 3.1,34.1 5.9,34.1 C8.7,34.1 10.9,36.3 10.9,39.1 L10.9,51.1 C10.9,53.8 8.6,56.1 5.9,56.1 Z M471.6,15 C469,15 466.8,13 466.6,10.4 L464.2,10.4 C461.4,10.4 459.2,8.2 459.2,5.4 C459.2,2.6 461.4,0.4 464.2,0.4 L471.6,0.4 C474.4,0.4 476.6,2.6 476.6,5.4 L476.6,10 C476.6,12.7 474.3,15 471.6,15 Z M5.9,14.1 C3.1,14.1 0.9,11.9 0.9,9.1 L0.9,5.4 C0.9,2.6 3.1,0.4 5.9,0.4 L14.2,0.4 C17,0.4 19.2,2.6 19.2,5.4 C19.2,8.2 17,10.4 14.2,10.4 L10.7,10.4 C10.1,12.5 8.2,14.1 5.9,14.1 Z M434.2,10.4 L422.2,10.4 C419.4,10.4 417.2,8.2 417.2,5.4 C417.2,2.6 419.4,0.4 422.2,0.4 L434.2,0.4 C437,0.4 439.2,2.6 439.2,5.4 C439.2,8.2 436.9,10.4 434.2,10.4 Z M392.2,10.4 L380.2,10.4 C377.4,10.4 375.2,8.2 375.2,5.4 C375.2,2.6 377.4,0.4 380.2,0.4 L392.2,0.4 C395,0.4 397.2,2.6 397.2,5.4 C397.2,8.2 394.9,10.4 392.2,10.4 Z M350.2,10.4 L338.2,10.4 C335.4,10.4 333.2,8.2 333.2,5.4 C333.2,2.6 335.4,0.4 338.2,0.4 L350.2,0.4 C353,0.4 355.2,2.6 355.2,5.4 C355.2,8.2 352.9,10.4 350.2,10.4 Z M308.2,10.4 L296.2,10.4 C293.4,10.4 291.2,8.2 291.2,5.4 C291.2,2.6 293.4,0.4 296.2,0.4 L308.2,0.4 C311,0.4 313.2,2.6 313.2,5.4 C313.2,8.2 310.9,10.4 308.2,10.4 Z M266.2,10.4 L254.2,10.4 C251.4,10.4 249.2,8.2 249.2,5.4 C249.2,2.6 251.4,0.4 254.2,0.4 L266.2,0.4 C269,0.4 271.2,2.6 271.2,5.4 C271.2,8.2 268.9,10.4 266.2,10.4 Z M224.2,10.4 L212.2,10.4 C209.4,10.4 207.2,8.2 207.2,5.4 C207.2,2.6 209.4,0.4 212.2,0.4 L224.2,0.4 C227,0.4 229.2,2.6 229.2,5.4 C229.2,8.2 226.9,10.4 224.2,10.4 Z M182.2,10.4 L170.2,10.4 C167.4,10.4 165.2,8.2 165.2,5.4 C165.2,2.6 167.4,0.4 170.2,0.4 L182.2,0.4 C185,0.4 187.2,2.6 187.2,5.4 C187.2,8.2 184.9,10.4 182.2,10.4 Z M140.2,10.4 L128.2,10.4 C125.4,10.4 123.2,8.2 123.2,5.4 C123.2,2.6 125.4,0.4 128.2,0.4 L140.2,0.4 C143,0.4 145.2,2.6 145.2,5.4 C145.2,8.2 142.9,10.4 140.2,10.4 Z M98.2,10.4 L86.2,10.4 C83.4,10.4 81.2,8.2 81.2,5.4 C81.2,2.6 83.4,0.4 86.2,0.4 L98.2,0.4 C101,0.4 103.2,2.6 103.2,5.4 C103.2,8.2 100.9,10.4 98.2,10.4 Z M56.2,10.4 L44.2,10.4 C41.4,10.4 39.2,8.2 39.2,5.4 C39.2,2.6 41.4,0.4 44.2,0.4 L56.2,0.4 C59,0.4 61.2,2.6 61.2,5.4 C61.2,8.2 58.9,10.4 56.2,10.4 Z" id="Shape" fill="#383A48"></path>
                    </g>
                </g>
                <path d="M424.8,10.7 L412.8,10.7 C410,10.7 407.8,8.5 407.8,5.7 C407.8,2.9 410,0.7 412.8,0.7 L424.8,0.7 C427.6,0.7 429.8,2.9 429.8,5.7 C429.8,8.5 427.5,10.7 424.8,10.7 Z M382.8,10.7 L370.8,10.7 C368,10.7 365.8,8.5 365.8,5.7 C365.8,2.9 368,0.7 370.8,0.7 L382.8,0.7 C385.6,0.7 387.8,2.9 387.8,5.7 C387.8,8.5 385.5,10.7 382.8,10.7 Z M340.8,10.7 L328.8,10.7 C326,10.7 323.8,8.5 323.8,5.7 C323.8,2.9 326,0.7 328.8,0.7 L340.8,0.7 C343.6,0.7 345.8,2.9 345.8,5.7 C345.8,8.5 343.5,10.7 340.8,10.7 Z M298.8,10.7 L286.8,10.7 C284,10.7 281.8,8.5 281.8,5.7 C281.8,2.9 284,0.7 286.8,0.7 L298.8,0.7 C301.6,0.7 303.8,2.9 303.8,5.7 C303.8,8.5 301.5,10.7 298.8,10.7 Z M256.8,10.7 L244.8,10.7 C242,10.7 239.8,8.5 239.8,5.7 C239.8,2.9 242,0.7 244.8,0.7 L256.8,0.7 C259.6,0.7 261.8,2.9 261.8,5.7 C261.8,8.5 259.5,10.7 256.8,10.7 Z M214.8,10.7 L202.8,10.7 C200,10.7 197.8,8.5 197.8,5.7 C197.8,2.9 200,0.7 202.8,0.7 L214.8,0.7 C217.6,0.7 219.8,2.9 219.8,5.7 C219.8,8.5 217.5,10.7 214.8,10.7 Z M172.8,10.7 L160.8,10.7 C158,10.7 155.8,8.5 155.8,5.7 C155.8,2.9 158,0.7 160.8,0.7 L172.8,0.7 C175.6,0.7 177.8,2.9 177.8,5.7 C177.8,8.5 175.5,10.7 172.8,10.7 Z" id="Shape" fill="#383A48" fill-rule="nonzero"></path>
                <path d="M424.8,271 L412.8,271 C410,271 407.8,268.8 407.8,266 C407.8,263.2 410,261 412.8,261 L424.8,261 C427.6,261 429.8,263.2 429.8,266 C429.8,268.8 427.5,271 424.8,271 Z M382.8,271 L370.8,271 C368,271 365.8,268.8 365.8,266 C365.8,263.2 368,261 370.8,261 L382.8,261 C385.6,261 387.8,263.2 387.8,266 C387.8,268.8 385.5,271 382.8,271 Z M340.8,271 L328.8,271 C326,271 323.8,268.8 323.8,266 C323.8,263.2 326,261 328.8,261 L340.8,261 C343.6,261 345.8,263.2 345.8,266 C345.8,268.8 343.5,271 340.8,271 Z M298.8,271 L286.8,271 C284,271 281.8,268.8 281.8,266 C281.8,263.2 284,261 286.8,261 L298.8,261 C301.6,261 303.8,263.2 303.8,266 C303.8,268.8 301.5,271 298.8,271 Z M256.8,271 L244.8,271 C242,271 239.8,268.8 239.8,266 C239.8,263.2 242,261 244.8,261 L256.8,261 C259.6,261 261.8,263.2 261.8,266 C261.8,268.8 259.5,271 256.8,271 Z M214.8,271 L214,271 C211.2,271 209,268.8 209,266 C209,263.2 211.2,261 214,261 L214.8,261 C217.6,261 219.8,263.2 219.8,266 C219.8,268.8 217.5,271 214.8,271 Z" id="Shape" fill="#383A48" fill-rule="nonzero"></path>
                <path d="M208.9,275.4 C206.1,275.4 203.9,273.2 203.9,270.4 L203.9,5.7 C203.9,2.9 206.1,0.7 208.9,0.7 C211.7,0.7 213.9,2.9 213.9,5.7 L213.9,270.4 C213.9,273.2 211.7,275.4 208.9,275.4 Z" id="Path" fill="#383A48" fill-rule="nonzero"></path>
                <path d="M1108.7,559.3 L766.7,559.3 C763.9,559.3 761.7,561.5 761.7,564.3 L761.7,690.3 C761.7,693.1 763.9,695.3 766.7,695.3 L1108.7,695.3 C1111.5,695.3 1113.7,693.1 1113.7,690.3 L1113.7,564.3 C1113.7,561.6 1111.4,559.3 1108.7,559.3 Z" id="Path" fill="#383A48" fill-rule="nonzero"></path>
                <g transform="translate(806.000000, 508.000000)" fill-rule="nonzero">
                    <rect id="Rectangle" fill="#AAC6FC" x="5.6" y="5.2" width="471.2" height="126"></rect>
                    <path d="M476.8,136.2 L5.6,136.2 C2.8,136.2 0.6,134 0.6,131.2 L0.6,5.2 C0.6,2.4 2.8,0.2 5.6,0.2 L476.8,0.2 C479.6,0.2 481.8,2.4 481.8,5.2 L481.8,131.2 C481.8,134 479.5,136.2 476.8,136.2 Z M10.6,126.2 L471.8,126.2 L471.8,10.2 L10.6,10.2 L10.6,126.2 L10.6,126.2 Z" id="Shape" fill="#383A48"></path>
                </g>
                <g transform="translate(1103.000000, 0.000000)" fill-rule="nonzero" id="Shape">
                    <path d="M5.7,5.7 L397.5,347.7 L397.5,5.7 L5.7,5.7 L5.7,5.7 Z M336.5,209.2 L177.2,70.1 L336.5,70.1 L336.5,209.2 Z" fill="#F6E049"></path>
                    <path d="M397.5,352.6 C396.3,352.6 395.1,352.2 394.2,351.4 L2.4,9.4 C0.8,8 0.3,5.8 1,3.9 C1.7,1.9 3.6,0.7 5.7,0.7 L397.5,0.7 C400.3,0.7 402.5,2.9 402.5,5.7 L402.5,347.7 C402.5,349.7 401.4,351.4 399.6,352.3 C398.9,352.5 398.2,352.6 397.5,352.6 Z M19,10.7 L392.5,336.7 L392.5,10.7 L19,10.7 L19,10.7 Z M336.5,214.2 C335.3,214.2 334.1,213.8 333.2,213 L173.9,73.9 C172.3,72.5 171.8,70.3 172.5,68.4 C173.2,66.4 175.1,65.2 177.2,65.2 L336.5,65.2 C339.3,65.2 341.5,67.4 341.5,70.2 L341.5,209.3 C341.5,211.3 340.4,213 338.6,213.9 C337.9,214 337.2,214.2 336.5,214.2 Z M190.5,75.1 L331.5,198.2 L331.5,75.1 L190.5,75.1 Z" fill="#383A48"></path>
                </g>
                <g transform="translate(1335.000000, 396.000000)" id="Path">
                    <line x1="5.8" y1="5.2" x2="155.6" y2="135.3"></line>
                    <path d="M155.6,140.3 C154.4,140.3 153.3,139.9 152.3,139.1 L2.5,9 C0.4,7.2 0.2,4 2,1.9 C3.8,-0.2 7,-0.4 9.1,1.4 L158.9,131.5 C161,133.3 161.2,136.5 159.4,138.6 C158.4,139.7 157,140.3 155.6,140.3 Z" fill="#383A48" fill-rule="nonzero"></path>
                </g>
                <g transform="translate(1203.000000, 275.000000)" fill-rule="nonzero">
                    <path d="M33.8,62 C18.1,62 5.3,49.2 5.3,33.5 C5.3,17.8 18.1,5 33.8,5 C49.5,5 62.3,17.8 62.3,33.5 C62.3,49.2 49.6,62 33.8,62" id="Path" fill="#E0719E"></path>
                    <path d="M33.8,67 C15.3,67 0.3,52 0.3,33.5 C0.3,15 15.3,0 33.8,0 C52.3,0 67.3,15 67.3,33.5 C67.3,52 52.3,67 33.8,67 Z M33.8,10 C20.8,10 10.3,20.5 10.3,33.5 C10.3,46.5 20.8,57 33.8,57 C46.8,57 57.3,46.5 57.3,33.5 C57.3,20.5 46.8,10 33.8,10 Z" id="Shape" fill="#383A48"></path>
                </g>
                <g transform="translate(40.000000, 100.000000)" fill="#F3F6E6" fill-rule="nonzero">
                    <rect id="Rectangle" transform="translate(50.155510, 50.887670) rotate(-45.000000) translate(-50.155510, -50.887670) " x="18.2558159" y="18.9879759" width="63.7993882" height="63.7993882"></rect>
                    <path d="M50.2,101.1 C48.9,101.1 47.6,100.6 46.7,99.6 L1.6,54.5 C-0.4,52.5 -0.4,49.4 1.6,47.4 L46.7,2.3 C48.7,0.3 51.8,0.3 53.8,2.3 L98.9,47.4 C100.9,49.4 100.9,52.5 98.9,54.5 L53.8,99.6 C52.8,100.6 51.5,101.1 50.2,101.1 Z M12.2,51 L50.3,89.1 L88.4,51 L50.3,12.9 L12.2,51 Z" id="Shape"></path>
                </g>
            </g>
        </g>
    </g>
</svg>