<?xml version="1.0" encoding="utf-8"?>
<!-- Generator: Adobe Illustrator 22.0.1, SVG Export Plug-In . SVG Version: 6.00 Build 0)  -->
<svg version="1.1" id="Layer_1" xmlns="http://www.w3.org/2000/svg" xmlns:xlink="http://www.w3.org/1999/xlink" x="0px" y="0px" viewBox="0 0 1920 1080" style="enable-background:new 0 0 1920 1080;" xml:space="preserve">

<rect y="0" width="1920" height="1080" style="fill:#AAC6FC;"/>
<g>
	<path d="M1678.8,169.6c-2.2-0.6-4.5,0.3-5.6,2.2c-0.3,0.5-32.5,52.4-88,63.9c-34.7,7.2-71.4-2.8-109-29.5
		c-61.7-43.8-127.9-62.6-191.4-54.2c-59.6,7.8-112.4,39.6-148.9,89.3c-26.1,35.6-67.8,54.6-103.9,47.4
		c-26.3-5.3-44.5-23.4-51.1-50.9c-0.5-1.9-2.1-3.4-4-3.8c-2-0.3-4,0.6-5,2.2l-65.1,102c-1.1,1.7-1,3.9,0.1,5.6l74.8,105.8
		c0.8,1.1,2,1.9,3.3,2.1l581.7,86.5c0.2,0,0.5,0.1,0.7,0.1c1.8,0,3.4-0.9,4.3-2.5l110.2-192.3c0.4-0.8,0.7-1.6,0.7-2.5V174.4
		C1682.5,172.1,1681,170.2,1678.8,169.6z" style="fill:#F3F6E6;"/>
	<path d="M910.8,890c-118.8,0-195.7-19.4-249.5-62.8c-50.7-40.9-78.8-102.1-111.3-173.1c-26.7-58.2-81.2-92.2-139-128.3
		c-45.4-28.3-92.3-57.6-127.7-100.4C243.4,377.2,224,317.9,224,244.2c0-2.8-2.2-5-5-5s-5,2.2-5,5V895c0,2.8,2.2,5,5,5h691.9
		c2.8,0,5-2.2,5-5S913.6,890,910.8,890z" style="fill:#F3F6E6;"/>
	<g>
		<g>
			<rect x="910.8" y="340.9" width="766.7" height="554.1" style="fill:#AAC6FC;"/>
			<path d="M1677.5,900H910.8c-2.8,0-5-2.2-5-5V340.9c0-2.8,2.2-5,5-5h766.7c2.8,0,5,2.2,5,5V895
				C1682.5,897.7,1680.2,900,1677.5,900z M915.8,890h756.7V345.9H915.8V890z" style="fill:#383A48;"/>
		</g>
		<g>
			<g>
				<rect x="954.1" y="383.6" width="680.2" height="468.5" style="fill:#F3F6E6;"/>
				<path d="M1634.2,857.2H954.1c-2.8,0-5-2.2-5-5V383.6c0-2.8,2.2-5,5-5h680.2c2.8,0,5,2.2,5,5v468.5
					C1639.2,855,1637,857.2,1634.2,857.2z M959.1,847.2h670.2V388.6H959.1V847.2z" style="fill:#383A48;"/>
			</g>
			<g>
				
					<rect x="1135" y="462.6" transform="matrix(0.9987 -5.136856e-02 5.136856e-02 0.9987 -22.192 71.7541)" width="499.6" height="10" style="fill:#AAC6FC;"/>
				<path d="M1554.7,610.7l78.4,8.5l2.2-19.9l-473.1-51.6c-8.3-12.4-22.7-20.6-39.1-20.6c-1.8,0-3.5,0.1-5.3,0.3
					L1032,378.6l-17.3,10l83.8,145.3c-13.1,7.9-21.8,21.9-21.8,37.9c0,10.2,3.6,19.6,9.6,27.1L945.4,847.3l17.4,9.9l48.9-86.2
					l196.7,20.2l25.6,64.7l18.6-7.4l-21.8-55.1l284.5,29.2l-2.6,28.7l19.9,1.8l2.6-28.4l98.6,10.1l1-9.9l-98.7-10.1L1554.7,610.7z
					 M1123.1,547.1c14.6,0,26.4,11.1,26.4,24.7s-11.8,24.7-26.4,24.7s-26.4-11.1-26.4-24.7S1108.6,547.1,1123.1,547.1z M1017,761.5
					l85-149.8c6.3,3.1,13.5,4.9,21.1,4.9c5.3,0,10.4-0.9,15.1-2.4l66,166.6L1017,761.5z M1226.6,783l-71-179.2
					c8.6-8.1,13.9-19.4,13.9-31.9c0-1.1-0.1-2.1-0.1-3.2l365.4,39.8l-18.7,204.2L1226.6,783z" style="fill:#AAC6FC;"/>
				<g>
					<circle cx="1318.9" cy="797.4" r="46.1" style="fill:#E0719E;"/>
				</g>
			</g>
			<g>
				<path d="M1634.2,857.2H954.1c-2.8,0-5-2.2-5-5V383.6c0-2.8,2.2-5,5-5h680.2c2.8,0,5,2.2,5,5v468.5
					C1639.2,855,1637,857.2,1634.2,857.2z M959.1,847.2h670.2V388.6H959.1V847.2z" style="fill:#383A48;"/>
			</g>
		</g>
	</g>
	<path d="M1047.4,335.9H910.8c-2.8,0-5,2.2-5,5v298.8c0,2.8,2.2,5,5,5h71.6c38.6,0,70-31.4,70-70V340.9
		C1052.4,338.1,1050.1,335.9,1047.4,335.9z" style="fill:#383A48;"/>
	<g>
		<g>
			<g>
				<g>
					<circle cx="902" cy="246.9" r="5" style="fill:#383A48;"/>
				</g>
			</g>
			<g>
				<g>
					<circle cx="902" cy="271.5" r="5" style="fill:#383A48;"/>
				</g>
			</g>
			<g>
				<g>
					<circle cx="902" cy="296.2" r="5" style="fill:#383A48;"/>
				</g>
			</g>
			<g>
				<g>
					<circle cx="902" cy="320.9" r="5" style="fill:#383A48;"/>
				</g>
			</g>
			<g>
				<g>
					<circle cx="902" cy="345.5" r="5" style="fill:#383A48;"/>
				</g>
			</g>
			<g>
				<g>
					<circle cx="902" cy="370.2" r="5" style="fill:#383A48;"/>
				</g>
			</g>
			<g>
				<g>
					<circle cx="902" cy="394.9" r="5" style="fill:#383A48;"/>
				</g>
			</g>
			<g>
				<g>
					<circle cx="902" cy="419.5" r="5" style="fill:#383A48;"/>
				</g>
			</g>
			<g>
				<g>
					<circle cx="902" cy="444.2" r="5" style="fill:#383A48;"/>
				</g>
			</g>
			<g>
				<g>
					<circle cx="902" cy="468.9" r="5" style="fill:#383A48;"/>
				</g>
			</g>
			<g>
				<g>
					<circle cx="902" cy="493.5" r="5" style="fill:#383A48;"/>
				</g>
			</g>
			<g>
				<g>
					<circle cx="902" cy="518.2" r="5" style="fill:#383A48;"/>
				</g>
			</g>
			<g>
				<g>
					<circle cx="877.3" cy="222.2" r="5" style="fill:#383A48;"/>
				</g>
			</g>
			<g>
				<g>
					<circle cx="877.3" cy="246.9" r="5" style="fill:#383A48;"/>
				</g>
			</g>
			<g>
				<g>
					<circle cx="877.3" cy="271.5" r="5" style="fill:#383A48;"/>
				</g>
			</g>
			<g>
				<g>
					<circle cx="877.3" cy="296.2" r="5" style="fill:#383A48;"/>
				</g>
			</g>
			<g>
				<g>
					<circle cx="877.3" cy="320.9" r="5" style="fill:#383A48;"/>
				</g>
			</g>
			<g>
				<g>
					<circle cx="877.3" cy="345.5" r="5" style="fill:#383A48;"/>
				</g>
			</g>
			<g>
				<g>
					<circle cx="877.3" cy="370.2" r="5" style="fill:#383A48;"/>
				</g>
			</g>
			<g>
				<g>
					<circle cx="877.3" cy="394.9" r="5" style="fill:#383A48;"/>
				</g>
			</g>
			<g>
				<g>
					<circle cx="877.3" cy="419.5" r="5" style="fill:#383A48;"/>
				</g>
			</g>
			<g>
				<g>
					<circle cx="877.3" cy="444.2" r="5" style="fill:#383A48;"/>
				</g>
			</g>
			<g>
				<g>
					<circle cx="877.3" cy="468.9" r="5" style="fill:#383A48;"/>
				</g>
			</g>
			<g>
				<g>
					<circle cx="877.3" cy="493.5" r="5" style="fill:#383A48;"/>
				</g>
			</g>
			<g>
				<g>
					<circle cx="877.3" cy="518.2" r="5" style="fill:#383A48;"/>
				</g>
			</g>
			<g>
				<g>
					<circle cx="877.3" cy="542.9" r="5" style="fill:#383A48;"/>
				</g>
			</g>
			<g>
				<g>
					<circle cx="852.6" cy="197.5" r="5" style="fill:#383A48;"/>
				</g>
			</g>
			<g>
				<g>
					<circle cx="852.6" cy="222.2" r="5" style="fill:#383A48;"/>
				</g>
			</g>
			<g>
				<g>
					<circle cx="852.6" cy="246.9" r="5" style="fill:#383A48;"/>
				</g>
			</g>
			<g>
				<g>
					<circle cx="852.6" cy="271.5" r="5" style="fill:#383A48;"/>
				</g>
			</g>
			<g>
				<g>
					<circle cx="852.6" cy="296.2" r="5" style="fill:#383A48;"/>
				</g>
			</g>
			<g>
				<g>
					<circle cx="852.6" cy="320.9" r="5" style="fill:#383A48;"/>
				</g>
			</g>
			<g>
				<g>
					<circle cx="852.6" cy="345.5" r="5" style="fill:#383A48;"/>
				</g>
			</g>
			<g>
				<g>
					<circle cx="852.6" cy="370.2" r="5" style="fill:#383A48;"/>
				</g>
			</g>
			<g>
				<g>
					<circle cx="852.6" cy="394.9" r="5" style="fill:#383A48;"/>
				</g>
			</g>
			<g>
				<g>
					<circle cx="852.6" cy="419.5" r="5" style="fill:#383A48;"/>
				</g>
			</g>
			<g>
				<g>
					<circle cx="852.6" cy="444.2" r="5" style="fill:#383A48;"/>
				</g>
			</g>
			<g>
				<g>
					<circle cx="852.6" cy="468.9" r="5" style="fill:#383A48;"/>
				</g>
			</g>
			<g>
				<g>
					<circle cx="852.6" cy="493.5" r="5" style="fill:#383A48;"/>
				</g>
			</g>
			<g>
				<g>
					<circle cx="852.6" cy="518.2" r="5" style="fill:#383A48;"/>
				</g>
			</g>
			<g>
				<g>
					<circle cx="852.6" cy="542.9" r="5" style="fill:#383A48;"/>
				</g>
			</g>
			<g>
				<g>
					<circle cx="852.6" cy="567.5" r="5" style="fill:#383A48;"/>
				</g>
			</g>
			<g>
				<g>
					<circle cx="828" cy="197.5" r="5" style="fill:#383A48;"/>
				</g>
			</g>
			<g>
				<g>
					<circle cx="828" cy="222.2" r="5" style="fill:#383A48;"/>
				</g>
			</g>
			<g>
				<g>
					<circle cx="828" cy="246.9" r="5" style="fill:#383A48;"/>
				</g>
			</g>
			<g>
				<g>
					<circle cx="828" cy="271.5" r="5" style="fill:#383A48;"/>
				</g>
			</g>
			<g>
				<g>
					<circle cx="828" cy="296.2" r="5" style="fill:#383A48;"/>
				</g>
			</g>
			<g>
				<g>
					<circle cx="828" cy="320.9" r="5" style="fill:#383A48;"/>
				</g>
			</g>
			<g>
				<g>
					<circle cx="828" cy="345.5" r="5" style="fill:#383A48;"/>
				</g>
			</g>
			<g>
				<g>
					<circle cx="828" cy="370.2" r="5" style="fill:#383A48;"/>
				</g>
			</g>
			<g>
				<g>
					<circle cx="828" cy="394.9" r="5" style="fill:#383A48;"/>
				</g>
			</g>
			<g>
				<g>
					<circle cx="828" cy="419.5" r="5" style="fill:#383A48;"/>
				</g>
			</g>
			<g>
				<g>
					<circle cx="828" cy="444.2" r="5" style="fill:#383A48;"/>
				</g>
			</g>
			<g>
				<g>
					<circle cx="828" cy="468.9" r="5" style="fill:#383A48;"/>
				</g>
			</g>
			<g>
				<g>
					<circle cx="828" cy="493.5" r="5" style="fill:#383A48;"/>
				</g>
			</g>
			<g>
				<g>
					<circle cx="828" cy="518.2" r="5" style="fill:#383A48;"/>
				</g>
			</g>
			<g>
				<g>
					<circle cx="828" cy="542.9" r="5" style="fill:#383A48;"/>
				</g>
			</g>
			<g>
				<g>
					<circle cx="828" cy="567.5" r="5" style="fill:#383A48;"/>
				</g>
			</g>
			<g>
				<g>
					<circle cx="803.3" cy="197.5" r="5" style="fill:#383A48;"/>
				</g>
			</g>
			<g>
				<g>
					<circle cx="803.3" cy="222.2" r="5" style="fill:#383A48;"/>
				</g>
			</g>
			<g>
				<g>
					<circle cx="803.3" cy="246.9" r="5" style="fill:#383A48;"/>
				</g>
			</g>
			<g>
				<g>
					<circle cx="803.3" cy="271.5" r="5" style="fill:#383A48;"/>
				</g>
			</g>
			<g>
				<g>
					<circle cx="803.3" cy="296.2" r="5" style="fill:#383A48;"/>
				</g>
			</g>
			<g>
				<g>
					<circle cx="803.3" cy="320.9" r="5" style="fill:#383A48;"/>
				</g>
			</g>
			<g>
				<g>
					<circle cx="803.3" cy="345.5" r="5" style="fill:#383A48;"/>
				</g>
			</g>
			<g>
				<g>
					<circle cx="803.3" cy="370.2" r="5" style="fill:#383A48;"/>
				</g>
			</g>
			<g>
				<g>
					<circle cx="803.3" cy="394.9" r="5" style="fill:#383A48;"/>
				</g>
			</g>
			<g>
				<g>
					<circle cx="803.3" cy="419.5" r="5" style="fill:#383A48;"/>
				</g>
			</g>
			<g>
				<g>
					<circle cx="803.3" cy="444.2" r="5" style="fill:#383A48;"/>
				</g>
			</g>
			<g>
				<g>
					<circle cx="803.3" cy="468.9" r="5" style="fill:#383A48;"/>
				</g>
			</g>
			<g>
				<g>
					<circle cx="803.3" cy="493.5" r="5" style="fill:#383A48;"/>
				</g>
			</g>
			<g>
				<g>
					<circle cx="803.3" cy="518.2" r="5" style="fill:#383A48;"/>
				</g>
			</g>
			<g>
				<g>
					<circle cx="803.3" cy="542.9" r="5" style="fill:#383A48;"/>
				</g>
			</g>
			<g>
				<g>
					<circle cx="803.3" cy="567.5" r="5" style="fill:#383A48;"/>
				</g>
			</g>
			<g>
				<g>
					<circle cx="778.6" cy="197.5" r="5" style="fill:#383A48;"/>
				</g>
			</g>
			<g>
				<g>
					<circle cx="778.6" cy="222.2" r="5" style="fill:#383A48;"/>
				</g>
			</g>
			<g>
				<g>
					<circle cx="778.6" cy="246.9" r="5" style="fill:#383A48;"/>
				</g>
			</g>
			<g>
				<g>
					<circle cx="778.6" cy="271.5" r="5" style="fill:#383A48;"/>
				</g>
			</g>
			<g>
				<g>
					<circle cx="778.6" cy="296.2" r="5" style="fill:#383A48;"/>
				</g>
			</g>
			<g>
				<g>
					<circle cx="778.6" cy="320.9" r="5" style="fill:#383A48;"/>
				</g>
			</g>
			<g>
				<g>
					<circle cx="778.6" cy="345.5" r="5" style="fill:#383A48;"/>
				</g>
			</g>
			<g>
				<g>
					<circle cx="778.6" cy="370.2" r="5" style="fill:#383A48;"/>
				</g>
			</g>
			<g>
				<g>
					<circle cx="778.6" cy="394.9" r="5" style="fill:#383A48;"/>
				</g>
			</g>
			<g>
				<g>
					<circle cx="778.6" cy="419.5" r="5" style="fill:#383A48;"/>
				</g>
			</g>
			<g>
				<g>
					<circle cx="778.6" cy="444.2" r="5" style="fill:#383A48;"/>
				</g>
			</g>
			<g>
				<g>
					<circle cx="778.6" cy="468.9" r="5" style="fill:#383A48;"/>
				</g>
			</g>
			<g>
				<g>
					<circle cx="778.6" cy="493.5" r="5" style="fill:#383A48;"/>
				</g>
			</g>
			<g>
				<g>
					<circle cx="778.6" cy="518.2" r="5" style="fill:#383A48;"/>
				</g>
			</g>
			<g>
				<g>
					<circle cx="778.6" cy="542.9" r="5" style="fill:#383A48;"/>
				</g>
			</g>
			<g>
				<g>
					<circle cx="778.6" cy="567.5" r="5" style="fill:#383A48;"/>
				</g>
			</g>
			<g>
				<g>
					<circle cx="754" cy="197.5" r="5" style="fill:#383A48;"/>
				</g>
			</g>
			<g>
				<g>
					<circle cx="754" cy="222.2" r="5" style="fill:#383A48;"/>
				</g>
			</g>
			<g>
				<g>
					<circle cx="754" cy="246.9" r="5" style="fill:#383A48;"/>
				</g>
			</g>
			<g>
				<g>
					<circle cx="754" cy="271.5" r="5" style="fill:#383A48;"/>
				</g>
			</g>
			<g>
				<g>
					<circle cx="754" cy="296.2" r="5" style="fill:#383A48;"/>
				</g>
			</g>
			<g>
				<g>
					<circle cx="754" cy="320.9" r="5" style="fill:#383A48;"/>
				</g>
			</g>
			<g>
				<g>
					<circle cx="754" cy="345.5" r="5" style="fill:#383A48;"/>
				</g>
			</g>
			<g>
				<g>
					<circle cx="754" cy="370.2" r="5" style="fill:#383A48;"/>
				</g>
			</g>
			<g>
				<g>
					<circle cx="754" cy="394.9" r="5" style="fill:#383A48;"/>
				</g>
			</g>
			<g>
				<g>
					<circle cx="754" cy="419.5" r="5" style="fill:#383A48;"/>
				</g>
			</g>
			<g>
				<g>
					<circle cx="754" cy="444.2" r="5" style="fill:#383A48;"/>
				</g>
			</g>
			<g>
				<g>
					<circle cx="754" cy="468.9" r="5" style="fill:#383A48;"/>
				</g>
			</g>
			<g>
				<g>
					<circle cx="754" cy="493.5" r="5" style="fill:#383A48;"/>
				</g>
			</g>
			<g>
				<g>
					<circle cx="754" cy="518.2" r="5" style="fill:#383A48;"/>
				</g>
			</g>
			<g>
				<g>
					<circle cx="754" cy="542.9" r="5" style="fill:#383A48;"/>
				</g>
			</g>
			<g>
				<g>
					<circle cx="754" cy="567.5" r="5" style="fill:#383A48;"/>
				</g>
			</g>
			<g>
				<g>
					<circle cx="729.3" cy="197.5" r="5" style="fill:#383A48;"/>
				</g>
			</g>
			<g>
				<g>
					<circle cx="729.3" cy="222.2" r="5" style="fill:#383A48;"/>
				</g>
			</g>
			<g>
				<g>
					<circle cx="729.3" cy="246.9" r="5" style="fill:#383A48;"/>
				</g>
			</g>
			<g>
				<g>
					<circle cx="729.3" cy="271.5" r="5" style="fill:#383A48;"/>
				</g>
			</g>
			<g>
				<g>
					<circle cx="729.3" cy="296.2" r="5" style="fill:#383A48;"/>
				</g>
			</g>
			<g>
				<g>
					<circle cx="729.3" cy="320.9" r="5" style="fill:#383A48;"/>
				</g>
			</g>
			<g>
				<g>
					<circle cx="729.3" cy="345.5" r="5" style="fill:#383A48;"/>
				</g>
			</g>
			<g>
				<g>
					<circle cx="729.3" cy="370.2" r="5" style="fill:#383A48;"/>
				</g>
			</g>
			<g>
				<g>
					<circle cx="729.3" cy="394.9" r="5" style="fill:#383A48;"/>
				</g>
			</g>
			<g>
				<g>
					<circle cx="729.3" cy="419.5" r="5" style="fill:#383A48;"/>
				</g>
			</g>
			<g>
				<g>
					<circle cx="729.3" cy="444.2" r="5" style="fill:#383A48;"/>
				</g>
			</g>
			<g>
				<g>
					<circle cx="729.3" cy="468.9" r="5" style="fill:#383A48;"/>
				</g>
			</g>
			<g>
				<g>
					<circle cx="729.3" cy="493.5" r="5" style="fill:#383A48;"/>
				</g>
			</g>
			<g>
				<g>
					<circle cx="729.3" cy="518.2" r="5" style="fill:#383A48;"/>
				</g>
			</g>
			<g>
				<g>
					<circle cx="729.3" cy="542.9" r="5" style="fill:#383A48;"/>
				</g>
			</g>
			<g>
				<g>
					<circle cx="729.3" cy="567.5" r="5" style="fill:#383A48;"/>
				</g>
			</g>
			<g>
				<g>
					<circle cx="704.6" cy="197.5" r="5" style="fill:#383A48;"/>
				</g>
			</g>
			<g>
				<g>
					<circle cx="704.6" cy="222.2" r="5" style="fill:#383A48;"/>
				</g>
			</g>
			<g>
				<g>
					<circle cx="704.6" cy="246.9" r="5" style="fill:#383A48;"/>
				</g>
			</g>
			<g>
				<g>
					<circle cx="704.6" cy="271.5" r="5" style="fill:#383A48;"/>
				</g>
			</g>
			<g>
				<g>
					<circle cx="704.6" cy="296.2" r="5" style="fill:#383A48;"/>
				</g>
			</g>
			<g>
				<g>
					<circle cx="704.6" cy="320.9" r="5" style="fill:#383A48;"/>
				</g>
			</g>
			<g>
				<g>
					<circle cx="704.6" cy="345.5" r="5" style="fill:#383A48;"/>
				</g>
			</g>
			<g>
				<g>
					<circle cx="704.6" cy="370.2" r="5" style="fill:#383A48;"/>
				</g>
			</g>
			<g>
				<g>
					<circle cx="704.6" cy="394.9" r="5" style="fill:#383A48;"/>
				</g>
			</g>
			<g>
				<g>
					<circle cx="704.6" cy="419.5" r="5" style="fill:#383A48;"/>
				</g>
			</g>
			<g>
				<g>
					<circle cx="704.6" cy="444.2" r="5" style="fill:#383A48;"/>
				</g>
			</g>
			<g>
				<g>
					<circle cx="704.6" cy="468.9" r="5" style="fill:#383A48;"/>
				</g>
			</g>
			<g>
				<g>
					<circle cx="704.6" cy="493.5" r="5" style="fill:#383A48;"/>
				</g>
			</g>
			<g>
				<g>
					<circle cx="704.6" cy="518.2" r="5" style="fill:#383A48;"/>
				</g>
			</g>
			<g>
				<g>
					<circle cx="704.6" cy="542.9" r="5" style="fill:#383A48;"/>
				</g>
			</g>
			<g>
				<g>
					<circle cx="704.6" cy="567.5" r="5" style="fill:#383A48;"/>
				</g>
			</g>
			<g>
				<g>
					<circle cx="680" cy="197.5" r="5" style="fill:#383A48;"/>
				</g>
			</g>
			<g>
				<g>
					<circle cx="680" cy="222.2" r="5" style="fill:#383A48;"/>
				</g>
			</g>
			<g>
				<g>
					<circle cx="680" cy="246.9" r="5" style="fill:#383A48;"/>
				</g>
			</g>
			<g>
				<g>
					<circle cx="680" cy="271.5" r="5" style="fill:#383A48;"/>
				</g>
			</g>
			<g>
				<g>
					<circle cx="680" cy="296.2" r="5" style="fill:#383A48;"/>
				</g>
			</g>
			<g>
				<g>
					<circle cx="680" cy="320.9" r="5" style="fill:#383A48;"/>
				</g>
			</g>
			<g>
				<g>
					<circle cx="680" cy="345.5" r="5" style="fill:#383A48;"/>
				</g>
			</g>
			<g>
				<g>
					<circle cx="680" cy="370.2" r="5" style="fill:#383A48;"/>
				</g>
			</g>
			<g>
				<g>
					<circle cx="680" cy="394.9" r="5" style="fill:#383A48;"/>
				</g>
			</g>
			<g>
				<g>
					<circle cx="680" cy="419.5" r="5" style="fill:#383A48;"/>
				</g>
			</g>
			<g>
				<g>
					<circle cx="680" cy="444.2" r="5" style="fill:#383A48;"/>
				</g>
			</g>
			<g>
				<g>
					<circle cx="680" cy="468.9" r="5" style="fill:#383A48;"/>
				</g>
			</g>
			<g>
				<g>
					<circle cx="680" cy="493.5" r="5" style="fill:#383A48;"/>
				</g>
			</g>
			<g>
				<g>
					<circle cx="680" cy="518.2" r="5" style="fill:#383A48;"/>
				</g>
			</g>
			<g>
				<g>
					<circle cx="680" cy="542.9" r="5" style="fill:#383A48;"/>
				</g>
			</g>
			<g>
				<g>
					<circle cx="680" cy="567.5" r="5" style="fill:#383A48;"/>
				</g>
			</g>
			<g>
				<g>
					<circle cx="655.3" cy="197.5" r="5" style="fill:#383A48;"/>
				</g>
			</g>
			<g>
				<g>
					<circle cx="655.3" cy="222.2" r="5" style="fill:#383A48;"/>
				</g>
			</g>
			<g>
				<g>
					<circle cx="655.3" cy="246.9" r="5" style="fill:#383A48;"/>
				</g>
			</g>
			<g>
				<g>
					<circle cx="655.3" cy="271.5" r="5" style="fill:#383A48;"/>
				</g>
			</g>
			<g>
				<g>
					<circle cx="655.3" cy="296.2" r="5" style="fill:#383A48;"/>
				</g>
			</g>
			<g>
				<g>
					<circle cx="655.3" cy="320.9" r="5" style="fill:#383A48;"/>
				</g>
			</g>
			<g>
				<g>
					<circle cx="655.3" cy="345.5" r="5" style="fill:#383A48;"/>
				</g>
			</g>
			<g>
				<g>
					<circle cx="655.3" cy="370.2" r="5" style="fill:#383A48;"/>
				</g>
			</g>
			<g>
				<g>
					<circle cx="655.3" cy="394.9" r="5" style="fill:#383A48;"/>
				</g>
			</g>
			<g>
				<g>
					<circle cx="655.3" cy="419.5" r="5" style="fill:#383A48;"/>
				</g>
			</g>
			<g>
				<g>
					<circle cx="655.3" cy="444.2" r="5" style="fill:#383A48;"/>
				</g>
			</g>
			<g>
				<g>
					<circle cx="655.3" cy="468.9" r="5" style="fill:#383A48;"/>
				</g>
			</g>
			<g>
				<g>
					<circle cx="655.3" cy="493.5" r="5" style="fill:#383A48;"/>
				</g>
			</g>
			<g>
				<g>
					<circle cx="655.3" cy="518.2" r="5" style="fill:#383A48;"/>
				</g>
			</g>
			<g>
				<g>
					<circle cx="655.3" cy="542.9" r="5" style="fill:#383A48;"/>
				</g>
			</g>
			<g>
				<g>
					<circle cx="655.3" cy="567.5" r="5" style="fill:#383A48;"/>
				</g>
			</g>
			<g>
				<g>
					<circle cx="630.6" cy="197.5" r="5" style="fill:#383A48;"/>
				</g>
			</g>
			<g>
				<g>
					<circle cx="630.6" cy="222.2" r="5" style="fill:#383A48;"/>
				</g>
			</g>
			<g>
				<g>
					<circle cx="630.6" cy="246.9" r="5" style="fill:#383A48;"/>
				</g>
			</g>
			<g>
				<g>
					<circle cx="630.6" cy="271.5" r="5" style="fill:#383A48;"/>
				</g>
			</g>
			<g>
				<g>
					<circle cx="630.6" cy="296.2" r="5" style="fill:#383A48;"/>
				</g>
			</g>
			<g>
				<g>
					<circle cx="630.6" cy="320.9" r="5" style="fill:#383A48;"/>
				</g>
			</g>
			<g>
				<g>
					<circle cx="630.6" cy="345.5" r="5" style="fill:#383A48;"/>
				</g>
			</g>
			<g>
				<g>
					<circle cx="630.6" cy="370.2" r="5" style="fill:#383A48;"/>
				</g>
			</g>
			<g>
				<g>
					<circle cx="630.6" cy="394.9" r="5" style="fill:#383A48;"/>
				</g>
			</g>
			<g>
				<g>
					<circle cx="630.6" cy="419.5" r="5" style="fill:#383A48;"/>
				</g>
			</g>
			<g>
				<g>
					<circle cx="630.6" cy="444.2" r="5" style="fill:#383A48;"/>
				</g>
			</g>
			<g>
				<g>
					<circle cx="630.6" cy="468.9" r="5" style="fill:#383A48;"/>
				</g>
			</g>
			<g>
				<g>
					<circle cx="630.6" cy="493.5" r="5" style="fill:#383A48;"/>
				</g>
			</g>
			<g>
				<g>
					<circle cx="630.6" cy="518.2" r="5" style="fill:#383A48;"/>
				</g>
			</g>
			<g>
				<g>
					<circle cx="630.6" cy="542.9" r="5" style="fill:#383A48;"/>
				</g>
			</g>
			<g>
				<g>
					<circle cx="630.6" cy="567.5" r="5" style="fill:#383A48;"/>
				</g>
			</g>
			<g>
				<g>
					<circle cx="606" cy="197.5" r="5" style="fill:#383A48;"/>
				</g>
			</g>
			<g>
				<g>
					<circle cx="606" cy="222.2" r="5" style="fill:#383A48;"/>
				</g>
			</g>
			<g>
				<g>
					<circle cx="606" cy="246.9" r="5" style="fill:#383A48;"/>
				</g>
			</g>
			<g>
				<g>
					<circle cx="606" cy="271.5" r="5" style="fill:#383A48;"/>
				</g>
			</g>
			<g>
				<g>
					<circle cx="606" cy="296.2" r="5" style="fill:#383A48;"/>
				</g>
			</g>
			<g>
				<g>
					<circle cx="606" cy="320.9" r="5" style="fill:#383A48;"/>
				</g>
			</g>
			<g>
				<g>
					<circle cx="606" cy="345.5" r="5" style="fill:#383A48;"/>
				</g>
			</g>
			<g>
				<g>
					<circle cx="606" cy="370.2" r="5" style="fill:#383A48;"/>
				</g>
			</g>
			<g>
				<g>
					<circle cx="606" cy="394.9" r="5" style="fill:#383A48;"/>
				</g>
			</g>
			<g>
				<g>
					<circle cx="606" cy="419.5" r="5" style="fill:#383A48;"/>
				</g>
			</g>
			<g>
				<g>
					<circle cx="606" cy="444.2" r="5" style="fill:#383A48;"/>
				</g>
			</g>
			<g>
				<g>
					<circle cx="606" cy="468.9" r="5" style="fill:#383A48;"/>
				</g>
			</g>
			<g>
				<g>
					<circle cx="606" cy="493.5" r="5" style="fill:#383A48;"/>
				</g>
			</g>
			<g>
				<g>
					<circle cx="606" cy="518.2" r="5" style="fill:#383A48;"/>
				</g>
			</g>
			<g>
				<g>
					<circle cx="606" cy="542.9" r="5" style="fill:#383A48;"/>
				</g>
			</g>
			<g>
				<g>
					<circle cx="606" cy="567.5" r="5" style="fill:#383A48;"/>
				</g>
			</g>
			<g>
				<g>
					<circle cx="581.3" cy="197.5" r="5" style="fill:#383A48;"/>
				</g>
			</g>
			<g>
				<g>
					<circle cx="581.3" cy="222.2" r="5" style="fill:#383A48;"/>
				</g>
			</g>
			<g>
				<g>
					<circle cx="581.3" cy="246.9" r="5" style="fill:#383A48;"/>
				</g>
			</g>
			<g>
				<g>
					<circle cx="581.3" cy="271.5" r="5" style="fill:#383A48;"/>
				</g>
			</g>
			<g>
				<g>
					<circle cx="581.3" cy="296.2" r="5" style="fill:#383A48;"/>
				</g>
			</g>
			<g>
				<g>
					<circle cx="581.3" cy="320.9" r="5" style="fill:#383A48;"/>
				</g>
			</g>
			<g>
				<g>
					<circle cx="581.3" cy="345.5" r="5" style="fill:#383A48;"/>
				</g>
			</g>
			<g>
				<g>
					<circle cx="581.3" cy="370.2" r="5" style="fill:#383A48;"/>
				</g>
			</g>
			<g>
				<g>
					<circle cx="581.3" cy="394.9" r="5" style="fill:#383A48;"/>
				</g>
			</g>
			<g>
				<g>
					<circle cx="581.3" cy="419.5" r="5" style="fill:#383A48;"/>
				</g>
			</g>
			<g>
				<g>
					<circle cx="581.3" cy="444.2" r="5" style="fill:#383A48;"/>
				</g>
			</g>
			<g>
				<g>
					<circle cx="581.3" cy="468.9" r="5" style="fill:#383A48;"/>
				</g>
			</g>
			<g>
				<g>
					<circle cx="581.3" cy="493.5" r="5" style="fill:#383A48;"/>
				</g>
			</g>
			<g>
				<g>
					<circle cx="581.3" cy="518.2" r="5" style="fill:#383A48;"/>
				</g>
			</g>
			<g>
				<g>
					<circle cx="581.3" cy="542.9" r="5" style="fill:#383A48;"/>
				</g>
			</g>
			<g>
				<g>
					<circle cx="581.3" cy="567.5" r="5" style="fill:#383A48;"/>
				</g>
			</g>
			<g>
				<g>
					<circle cx="556.6" cy="197.5" r="5" style="fill:#383A48;"/>
				</g>
			</g>
			<g>
				<g>
					<circle cx="556.6" cy="222.2" r="5" style="fill:#383A48;"/>
				</g>
			</g>
			<g>
				<g>
					<circle cx="556.6" cy="246.9" r="5" style="fill:#383A48;"/>
				</g>
			</g>
			<g>
				<g>
					<circle cx="556.6" cy="271.5" r="5" style="fill:#383A48;"/>
				</g>
			</g>
			<g>
				<g>
					<circle cx="556.6" cy="296.2" r="5" style="fill:#383A48;"/>
				</g>
			</g>
			<g>
				<g>
					<circle cx="556.6" cy="320.9" r="5" style="fill:#383A48;"/>
				</g>
			</g>
			<g>
				<g>
					<circle cx="556.6" cy="345.5" r="5" style="fill:#383A48;"/>
				</g>
			</g>
			<g>
				<g>
					<circle cx="556.6" cy="370.2" r="5" style="fill:#383A48;"/>
				</g>
			</g>
			<g>
				<g>
					<circle cx="556.6" cy="394.9" r="5" style="fill:#383A48;"/>
				</g>
			</g>
			<g>
				<g>
					<circle cx="556.6" cy="419.5" r="5" style="fill:#383A48;"/>
				</g>
			</g>
			<g>
				<g>
					<circle cx="556.6" cy="444.2" r="5" style="fill:#383A48;"/>
				</g>
			</g>
			<g>
				<g>
					<circle cx="556.6" cy="468.9" r="5" style="fill:#383A48;"/>
				</g>
			</g>
			<g>
				<g>
					<circle cx="556.6" cy="493.5" r="5" style="fill:#383A48;"/>
				</g>
			</g>
			<g>
				<g>
					<circle cx="556.6" cy="518.2" r="5" style="fill:#383A48;"/>
				</g>
			</g>
			<g>
				<g>
					<circle cx="556.6" cy="542.9" r="5" style="fill:#383A48;"/>
				</g>
			</g>
			<g>
				<g>
					<circle cx="556.6" cy="567.5" r="5" style="fill:#383A48;"/>
				</g>
			</g>
			<g>
				<g>
					<circle cx="532" cy="197.5" r="5" style="fill:#383A48;"/>
				</g>
			</g>
			<g>
				<g>
					<circle cx="532" cy="222.2" r="5" style="fill:#383A48;"/>
				</g>
			</g>
			<g>
				<g>
					<circle cx="532" cy="246.9" r="5" style="fill:#383A48;"/>
				</g>
			</g>
			<g>
				<g>
					<circle cx="532" cy="271.5" r="5" style="fill:#383A48;"/>
				</g>
			</g>
			<g>
				<g>
					<circle cx="532" cy="296.2" r="5" style="fill:#383A48;"/>
				</g>
			</g>
			<g>
				<g>
					<circle cx="532" cy="320.9" r="5" style="fill:#383A48;"/>
				</g>
			</g>
			<g>
				<g>
					<circle cx="532" cy="345.5" r="5" style="fill:#383A48;"/>
				</g>
			</g>
			<g>
				<g>
					<circle cx="532" cy="370.2" r="5" style="fill:#383A48;"/>
				</g>
			</g>
			<g>
				<g>
					<circle cx="532" cy="394.9" r="5" style="fill:#383A48;"/>
				</g>
			</g>
			<g>
				<g>
					<circle cx="532" cy="419.5" r="5" style="fill:#383A48;"/>
				</g>
			</g>
			<g>
				<g>
					<circle cx="532" cy="444.2" r="5" style="fill:#383A48;"/>
				</g>
			</g>
			<g>
				<g>
					<circle cx="532" cy="468.9" r="5" style="fill:#383A48;"/>
				</g>
			</g>
			<g>
				<g>
					<circle cx="532" cy="493.5" r="5" style="fill:#383A48;"/>
				</g>
			</g>
			<g>
				<g>
					<circle cx="532" cy="518.2" r="5" style="fill:#383A48;"/>
				</g>
			</g>
			<g>
				<g>
					<circle cx="532" cy="542.9" r="5" style="fill:#383A48;"/>
				</g>
			</g>
			<g>
				<g>
					<circle cx="532" cy="567.5" r="5" style="fill:#383A48;"/>
				</g>
			</g>
			<g>
				<g>
					<circle cx="507.3" cy="197.5" r="5" style="fill:#383A48;"/>
				</g>
			</g>
			<g>
				<g>
					<circle cx="507.3" cy="222.2" r="5" style="fill:#383A48;"/>
				</g>
			</g>
			<g>
				<g>
					<circle cx="507.3" cy="246.9" r="5" style="fill:#383A48;"/>
				</g>
			</g>
			<g>
				<g>
					<circle cx="507.3" cy="271.5" r="5" style="fill:#383A48;"/>
				</g>
			</g>
			<g>
				<g>
					<circle cx="507.3" cy="296.2" r="5" style="fill:#383A48;"/>
				</g>
			</g>
			<g>
				<g>
					<circle cx="507.3" cy="320.9" r="5" style="fill:#383A48;"/>
				</g>
			</g>
			<g>
				<g>
					<circle cx="507.3" cy="345.5" r="5" style="fill:#383A48;"/>
				</g>
			</g>
			<g>
				<g>
					<circle cx="507.3" cy="370.2" r="5" style="fill:#383A48;"/>
				</g>
			</g>
			<g>
				<g>
					<circle cx="507.3" cy="394.9" r="5" style="fill:#383A48;"/>
				</g>
			</g>
			<g>
				<g>
					<circle cx="507.3" cy="419.5" r="5" style="fill:#383A48;"/>
				</g>
			</g>
			<g>
				<g>
					<circle cx="507.3" cy="444.2" r="5" style="fill:#383A48;"/>
				</g>
			</g>
			<g>
				<g>
					<circle cx="507.3" cy="468.9" r="5" style="fill:#383A48;"/>
				</g>
			</g>
			<g>
				<g>
					<circle cx="507.3" cy="493.5" r="5" style="fill:#383A48;"/>
				</g>
			</g>
			<g>
				<g>
					<circle cx="507.3" cy="518.2" r="5" style="fill:#383A48;"/>
				</g>
			</g>
			<g>
				<g>
					<circle cx="507.3" cy="542.9" r="5" style="fill:#383A48;"/>
				</g>
			</g>
			<g>
				<g>
					<circle cx="507.3" cy="567.5" r="5" style="fill:#383A48;"/>
				</g>
			</g>
			<g>
				<g>
					<circle cx="482.6" cy="197.5" r="5" style="fill:#383A48;"/>
				</g>
			</g>
			<g>
				<g>
					<circle cx="482.6" cy="222.2" r="5" style="fill:#383A48;"/>
				</g>
			</g>
			<g>
				<g>
					<circle cx="482.6" cy="246.9" r="5" style="fill:#383A48;"/>
				</g>
			</g>
			<g>
				<g>
					<circle cx="482.6" cy="271.5" r="5" style="fill:#383A48;"/>
				</g>
			</g>
			<g>
				<g>
					<circle cx="482.6" cy="296.2" r="5" style="fill:#383A48;"/>
				</g>
			</g>
			<g>
				<g>
					<circle cx="482.6" cy="320.9" r="5" style="fill:#383A48;"/>
				</g>
			</g>
			<g>
				<g>
					<circle cx="482.6" cy="345.5" r="5" style="fill:#383A48;"/>
				</g>
			</g>
			<g>
				<g>
					<circle cx="482.6" cy="370.2" r="5" style="fill:#383A48;"/>
				</g>
			</g>
			<g>
				<g>
					<circle cx="482.6" cy="394.9" r="5" style="fill:#383A48;"/>
				</g>
			</g>
			<g>
				<g>
					<circle cx="482.6" cy="419.5" r="5" style="fill:#383A48;"/>
				</g>
			</g>
			<g>
				<g>
					<circle cx="482.6" cy="444.2" r="5" style="fill:#383A48;"/>
				</g>
			</g>
			<g>
				<g>
					<circle cx="482.6" cy="468.9" r="5" style="fill:#383A48;"/>
				</g>
			</g>
			<g>
				<g>
					<circle cx="482.6" cy="493.5" r="5" style="fill:#383A48;"/>
				</g>
			</g>
			<g>
				<g>
					<circle cx="482.6" cy="518.2" r="5" style="fill:#383A48;"/>
				</g>
			</g>
			<g>
				<g>
					<circle cx="482.6" cy="542.9" r="5" style="fill:#383A48;"/>
				</g>
			</g>
			<g>
				<g>
					<circle cx="482.6" cy="567.5" r="5" style="fill:#383A48;"/>
				</g>
			</g>
			<g>
				<g>
					<circle cx="458" cy="197.5" r="5" style="fill:#383A48;"/>
				</g>
			</g>
			<g>
				<g>
					<circle cx="458" cy="222.2" r="5" style="fill:#383A48;"/>
				</g>
			</g>
			<g>
				<g>
					<circle cx="458" cy="246.9" r="5" style="fill:#383A48;"/>
				</g>
			</g>
			<g>
				<g>
					<circle cx="458" cy="271.5" r="5" style="fill:#383A48;"/>
				</g>
			</g>
			<g>
				<g>
					<circle cx="458" cy="296.2" r="5" style="fill:#383A48;"/>
				</g>
			</g>
			<g>
				<g>
					<circle cx="458" cy="320.9" r="5" style="fill:#383A48;"/>
				</g>
			</g>
			<g>
				<g>
					<circle cx="458" cy="345.5" r="5" style="fill:#383A48;"/>
				</g>
			</g>
			<g>
				<g>
					<circle cx="458" cy="370.2" r="5" style="fill:#383A48;"/>
				</g>
			</g>
			<g>
				<g>
					<circle cx="458" cy="394.9" r="5" style="fill:#383A48;"/>
				</g>
			</g>
			<g>
				<g>
					<circle cx="458" cy="419.5" r="5" style="fill:#383A48;"/>
				</g>
			</g>
			<g>
				<g>
					<circle cx="458" cy="444.2" r="5" style="fill:#383A48;"/>
				</g>
			</g>
			<g>
				<g>
					<circle cx="458" cy="468.9" r="5" style="fill:#383A48;"/>
				</g>
			</g>
			<g>
				<g>
					<circle cx="458" cy="493.5" r="5" style="fill:#383A48;"/>
				</g>
			</g>
			<g>
				<g>
					<circle cx="458" cy="518.2" r="5" style="fill:#383A48;"/>
				</g>
			</g>
			<g>
				<g>
					<circle cx="458" cy="542.9" r="5" style="fill:#383A48;"/>
				</g>
			</g>
			<g>
				<g>
					<circle cx="458" cy="567.5" r="5" style="fill:#383A48;"/>
				</g>
			</g>
			<g>
				<g>
					<circle cx="458" cy="592.2" r="5" style="fill:#383A48;"/>
				</g>
			</g>
			<g>
				<g>
					<circle cx="433.3" cy="197.5" r="5" style="fill:#383A48;"/>
				</g>
			</g>
			<g>
				<g>
					<circle cx="433.3" cy="222.2" r="5" style="fill:#383A48;"/>
				</g>
			</g>
			<g>
				<g>
					<circle cx="433.3" cy="246.9" r="5" style="fill:#383A48;"/>
				</g>
			</g>
			<g>
				<g>
					<circle cx="433.3" cy="271.5" r="5" style="fill:#383A48;"/>
				</g>
			</g>
			<g>
				<g>
					<circle cx="433.3" cy="296.2" r="5" style="fill:#383A48;"/>
				</g>
			</g>
			<g>
				<g>
					<circle cx="433.3" cy="320.9" r="5" style="fill:#383A48;"/>
				</g>
			</g>
			<g>
				<g>
					<circle cx="433.3" cy="345.5" r="5" style="fill:#383A48;"/>
				</g>
			</g>
			<g>
				<g>
					<circle cx="433.3" cy="370.2" r="5" style="fill:#383A48;"/>
				</g>
			</g>
			<g>
				<g>
					<circle cx="433.3" cy="394.9" r="5" style="fill:#383A48;"/>
				</g>
			</g>
			<g>
				<g>
					<circle cx="433.3" cy="419.5" r="5" style="fill:#383A48;"/>
				</g>
			</g>
			<g>
				<g>
					<circle cx="433.3" cy="444.2" r="5" style="fill:#383A48;"/>
				</g>
			</g>
			<g>
				<g>
					<circle cx="433.3" cy="468.9" r="5" style="fill:#383A48;"/>
				</g>
			</g>
			<g>
				<g>
					<circle cx="433.3" cy="493.5" r="5" style="fill:#383A48;"/>
				</g>
			</g>
			<g>
				<g>
					<circle cx="433.3" cy="518.2" r="5" style="fill:#383A48;"/>
				</g>
			</g>
			<g>
				<g>
					<circle cx="433.3" cy="542.9" r="5" style="fill:#383A48;"/>
				</g>
			</g>
			<g>
				<g>
					<circle cx="433.3" cy="567.5" r="5" style="fill:#383A48;"/>
				</g>
			</g>
			<g>
				<g>
					<circle cx="433.3" cy="592.2" r="5" style="fill:#383A48;"/>
				</g>
			</g>
			<g>
				<g>
					<circle cx="433.3" cy="616.9" r="5" style="fill:#383A48;"/>
				</g>
			</g>
			<g>
				<g>
					<circle cx="433.3" cy="641.5" r="5" style="fill:#383A48;"/>
				</g>
			</g>
			<g>
				<g>
					<circle cx="408.6" cy="197.5" r="5" style="fill:#383A48;"/>
				</g>
			</g>
			<g>
				<g>
					<circle cx="408.6" cy="222.2" r="5" style="fill:#383A48;"/>
				</g>
			</g>
			<g>
				<g>
					<circle cx="408.6" cy="246.9" r="5" style="fill:#383A48;"/>
				</g>
			</g>
			<g>
				<g>
					<circle cx="408.6" cy="271.5" r="5" style="fill:#383A48;"/>
				</g>
			</g>
			<g>
				<g>
					<circle cx="408.6" cy="296.2" r="5" style="fill:#383A48;"/>
				</g>
			</g>
			<g>
				<g>
					<circle cx="408.6" cy="320.9" r="5" style="fill:#383A48;"/>
				</g>
			</g>
			<g>
				<g>
					<circle cx="408.6" cy="345.5" r="5" style="fill:#383A48;"/>
				</g>
			</g>
			<g>
				<g>
					<circle cx="408.6" cy="370.2" r="5" style="fill:#383A48;"/>
				</g>
			</g>
			<g>
				<g>
					<circle cx="408.6" cy="394.9" r="5" style="fill:#383A48;"/>
				</g>
			</g>
			<g>
				<g>
					<circle cx="408.6" cy="419.5" r="5" style="fill:#383A48;"/>
				</g>
			</g>
			<g>
				<g>
					<circle cx="408.6" cy="444.2" r="5" style="fill:#383A48;"/>
				</g>
			</g>
			<g>
				<g>
					<circle cx="408.6" cy="468.9" r="5" style="fill:#383A48;"/>
				</g>
			</g>
			<g>
				<g>
					<circle cx="408.6" cy="493.5" r="5" style="fill:#383A48;"/>
				</g>
			</g>
			<g>
				<g>
					<circle cx="408.6" cy="518.2" r="5" style="fill:#383A48;"/>
				</g>
			</g>
			<g>
				<g>
					<circle cx="408.6" cy="542.9" r="5" style="fill:#383A48;"/>
				</g>
			</g>
			<g>
				<g>
					<circle cx="408.6" cy="567.5" r="5" style="fill:#383A48;"/>
				</g>
			</g>
			<g>
				<g>
					<circle cx="408.6" cy="592.2" r="5" style="fill:#383A48;"/>
				</g>
			</g>
			<g>
				<g>
					<circle cx="408.6" cy="616.9" r="5" style="fill:#383A48;"/>
				</g>
			</g>
			<g>
				<g>
					<circle cx="408.6" cy="641.5" r="5" style="fill:#383A48;"/>
				</g>
			</g>
			<g>
				<g>
					<circle cx="408.6" cy="666.2" r="5" style="fill:#383A48;"/>
				</g>
			</g>
			<g>
				<g>
					<circle cx="384" cy="197.5" r="5" style="fill:#383A48;"/>
				</g>
			</g>
			<g>
				<g>
					<circle cx="384" cy="222.2" r="5" style="fill:#383A48;"/>
				</g>
			</g>
			<g>
				<g>
					<circle cx="384" cy="246.9" r="5" style="fill:#383A48;"/>
				</g>
			</g>
			<g>
				<g>
					<circle cx="384" cy="271.5" r="5" style="fill:#383A48;"/>
				</g>
			</g>
			<g>
				<g>
					<circle cx="384" cy="296.2" r="5" style="fill:#383A48;"/>
				</g>
			</g>
			<g>
				<g>
					<circle cx="384" cy="320.9" r="5" style="fill:#383A48;"/>
				</g>
			</g>
			<g>
				<g>
					<circle cx="384" cy="345.5" r="5" style="fill:#383A48;"/>
				</g>
			</g>
			<g>
				<g>
					<circle cx="384" cy="370.2" r="5" style="fill:#383A48;"/>
				</g>
			</g>
			<g>
				<g>
					<circle cx="384" cy="394.9" r="5" style="fill:#383A48;"/>
				</g>
			</g>
			<g>
				<g>
					<circle cx="384" cy="419.5" r="5" style="fill:#383A48;"/>
				</g>
			</g>
			<g>
				<g>
					<circle cx="384" cy="444.2" r="5" style="fill:#383A48;"/>
				</g>
			</g>
			<g>
				<g>
					<circle cx="384" cy="468.9" r="5" style="fill:#383A48;"/>
				</g>
			</g>
			<g>
				<g>
					<circle cx="384" cy="493.5" r="5" style="fill:#383A48;"/>
				</g>
			</g>
			<g>
				<g>
					<circle cx="384" cy="518.2" r="5" style="fill:#383A48;"/>
				</g>
			</g>
			<g>
				<g>
					<circle cx="384" cy="542.9" r="5" style="fill:#383A48;"/>
				</g>
			</g>
			<g>
				<g>
					<circle cx="384" cy="567.5" r="5" style="fill:#383A48;"/>
				</g>
			</g>
			<g>
				<g>
					<circle cx="384" cy="592.2" r="5" style="fill:#383A48;"/>
				</g>
			</g>
			<g>
				<g>
					<circle cx="384" cy="616.9" r="5" style="fill:#383A48;"/>
				</g>
			</g>
			<g>
				<g>
					<circle cx="384" cy="641.5" r="5" style="fill:#383A48;"/>
				</g>
			</g>
			<g>
				<g>
					<circle cx="384" cy="666.2" r="5" style="fill:#383A48;"/>
				</g>
			</g>
			<g>
				<g>
					<circle cx="359.3" cy="197.5" r="5" style="fill:#383A48;"/>
				</g>
			</g>
			<g>
				<g>
					<circle cx="359.3" cy="222.2" r="5" style="fill:#383A48;"/>
				</g>
			</g>
			<g>
				<g>
					<circle cx="359.3" cy="246.9" r="5" style="fill:#383A48;"/>
				</g>
			</g>
			<g>
				<g>
					<circle cx="359.3" cy="271.5" r="5" style="fill:#383A48;"/>
				</g>
			</g>
			<g>
				<g>
					<circle cx="359.3" cy="296.2" r="5" style="fill:#383A48;"/>
				</g>
			</g>
			<g>
				<g>
					<circle cx="359.3" cy="320.9" r="5" style="fill:#383A48;"/>
				</g>
			</g>
			<g>
				<g>
					<circle cx="359.3" cy="345.5" r="5" style="fill:#383A48;"/>
				</g>
			</g>
			<g>
				<g>
					<circle cx="359.3" cy="370.2" r="5" style="fill:#383A48;"/>
				</g>
			</g>
			<g>
				<g>
					<circle cx="359.3" cy="394.9" r="5" style="fill:#383A48;"/>
				</g>
			</g>
			<g>
				<g>
					<circle cx="359.3" cy="419.5" r="5" style="fill:#383A48;"/>
				</g>
			</g>
			<g>
				<g>
					<circle cx="359.3" cy="444.2" r="5" style="fill:#383A48;"/>
				</g>
			</g>
			<g>
				<g>
					<circle cx="359.3" cy="468.9" r="5" style="fill:#383A48;"/>
				</g>
			</g>
			<g>
				<g>
					<circle cx="359.3" cy="493.5" r="5" style="fill:#383A48;"/>
				</g>
			</g>
			<g>
				<g>
					<circle cx="359.3" cy="518.2" r="5" style="fill:#383A48;"/>
				</g>
			</g>
			<g>
				<g>
					<circle cx="359.3" cy="542.9" r="5" style="fill:#383A48;"/>
				</g>
			</g>
			<g>
				<g>
					<circle cx="359.3" cy="567.5" r="5" style="fill:#383A48;"/>
				</g>
			</g>
			<g>
				<g>
					<circle cx="359.3" cy="641.5" r="5" style="fill:#383A48;"/>
				</g>
			</g>
			<g>
				<g>
					<circle cx="359.3" cy="666.2" r="5" style="fill:#383A48;"/>
				</g>
			</g>
			<g>
				<g>
					<circle cx="334.6" cy="222.2" r="5" style="fill:#383A48;"/>
				</g>
			</g>
			<g>
				<g>
					<circle cx="334.6" cy="246.9" r="5" style="fill:#383A48;"/>
				</g>
			</g>
			<g>
				<g>
					<circle cx="334.6" cy="271.5" r="5" style="fill:#383A48;"/>
				</g>
			</g>
			<g>
				<g>
					<circle cx="334.6" cy="296.2" r="5" style="fill:#383A48;"/>
				</g>
			</g>
			<g>
				<g>
					<circle cx="334.6" cy="320.9" r="5" style="fill:#383A48;"/>
				</g>
			</g>
			<g>
				<g>
					<circle cx="334.6" cy="345.5" r="5" style="fill:#383A48;"/>
				</g>
			</g>
			<g>
				<g>
					<circle cx="334.6" cy="370.2" r="5" style="fill:#383A48;"/>
				</g>
			</g>
			<g>
				<g>
					<circle cx="334.6" cy="394.9" r="5" style="fill:#383A48;"/>
				</g>
			</g>
			<g>
				<g>
					<circle cx="334.6" cy="419.5" r="5" style="fill:#383A48;"/>
				</g>
			</g>
			<g>
				<g>
					<circle cx="334.6" cy="444.2" r="5" style="fill:#383A48;"/>
				</g>
			</g>
			<g>
				<g>
					<circle cx="334.6" cy="468.9" r="5" style="fill:#383A48;"/>
				</g>
			</g>
			<g>
				<g>
					<circle cx="334.6" cy="493.5" r="5" style="fill:#383A48;"/>
				</g>
			</g>
			<g>
				<g>
					<circle cx="334.6" cy="518.2" r="5" style="fill:#383A48;"/>
				</g>
			</g>
			<g>
				<g>
					<circle cx="334.6" cy="542.9" r="5" style="fill:#383A48;"/>
				</g>
			</g>
		</g>
	</g>
	<g>
		<g>
			<path d="M919.4,196.4H444.7c-32.5,0-58.8,26.3-58.8,58.8V512c0,32.5,26.3,58.8,58.8,58.8h26.9l-65.9,119.7
				l149.6-119.7h364.1c32.5,0,58.8-26.3,58.8-58.8V255.3C978.2,222.8,951.9,196.4,919.4,196.4z" style="fill:#F3F6E6;"/>
			<path d="M405.8,695.6c-1.1,0-2.3-0.4-3.2-1.2c-1.8-1.5-2.3-4.1-1.2-6.2l61.8-112.3h-18.5
				c-35.2,0-63.8-28.6-63.8-63.8V255.3c0-35.2,28.6-63.8,63.8-63.8h474.7c35.2,0,63.8,28.6,63.8,63.8V512
				c0,35.2-28.6,63.8-63.8,63.8H557.1L408.9,694.5C408,695.2,406.9,695.6,405.8,695.6z M444.7,201.4c-29.7,0-53.8,24.1-53.8,53.8
				V512c0,29.7,24.1,53.8,53.8,53.8h26.9c1.8,0,3.4,0.9,4.3,2.5c0.9,1.5,0.9,3.4,0.1,5L422.3,671l129.9-104c0.9-0.7,2-1.1,3.1-1.1
				h364.1c29.7,0,53.8-24.1,53.8-53.8V255.3c0-29.7-24.1-53.8-53.8-53.8H444.7V201.4z" style="fill:#383A48;"/>
		</g>
		<path d="M806.2,343.1L685,255.6c-1.7-1.3-4.1-1.3-5.9,0l-121.2,87.5c-1.8,1.3-2.5,3.5-1.8,5.6s2.6,3.5,4.8,3.5h24
			v115.2c0,2.8,2.2,5,5,5h62.7v-5v-5v-72.6c0-2.8,2.2-5,5-5h49c2.8,0,5,2.2,5,5v72.6v5v5h62.7c2.8,0,5-2.2,5-5V352.2h24
			c2.2,0,4.1-1.4,4.8-3.5C808.7,346.6,808,344.4,806.2,343.1z" style="fill:#4053FA;"/>
	</g>
	<g>
		<path d="M1633.1,339.2c-0.7-2-2.6-3.3-4.7-3.3h-388.3c-2.1,0-4,1.3-4.7,3.3c-1.5,4.3-3,8.8-4.3,13.5
			c-15.2,54.4-5.8,147.8,27.9,277.4c25,96.2,54.8,177.6,55.1,178.4c0.5,1.5,1.8,2.6,3.3,3.1c0.5,0.1,0.9,0.2,1.4,0.2
			c1.1,0,2.1-0.4,3-1c0.7-0.5,70.1-53.5,143.2-122.2c98.5-92.6,156.5-168.1,172.3-224.6C1648.9,422.6,1647.4,379.5,1633.1,339.2z" style="fill:#383A48;"/>
		<g>
			<path d="M1520.5,393c0,139.1-201.7,413.7-201.7,413.7S1117.2,527.2,1117.2,393c0-111.4,90.3-201.7,201.7-201.7
				C1430.2,191.3,1520.5,281.6,1520.5,393z" style="fill:#F6E049;"/>
			<path d="M1318.8,811.7L1318.8,811.7c-1.6,0-3.1-0.8-4.1-2.1c-0.5-0.7-51.1-71.1-101.1-156.9
				c-67.4-115.8-101.5-203.1-101.5-259.7c0-114,92.7-206.7,206.7-206.7S1525.5,279,1525.5,393c0,58.6-34.2,146.6-101.5,261.5
				c-50,85.3-100.6,154.4-101.1,155.1C1321.9,811,1320.4,811.7,1318.8,811.7z M1318.8,196.3c-108.5,0-196.7,88.2-196.7,196.7
				c0,68.2,54.5,176.1,100.2,254.6c41.6,71.5,83.6,132.1,96.6,150.5c13-18.1,55-77.8,96.5-148.7c45.7-77.9,100.1-185.7,100.1-256.4
				C1515.5,284.6,1427.3,196.3,1318.8,196.3z" style="fill:#383A48;"/>
		</g>
		<g>
			<circle cx="1318.9" cy="393" r="107.9" style="fill:#F3F6E6;"/>
			<path d="M1318.8,505.9c-62.2,0-112.9-50.6-112.9-112.9s50.6-112.9,112.9-112.9s112.9,50.6,112.9,112.9
				S1381.1,505.9,1318.8,505.9z M1318.8,290.2c-56.7,0-102.9,46.2-102.9,102.9S1262.1,496,1318.8,496c56.7,0,102.9-46.2,102.9-102.9
				S1375.6,290.2,1318.8,290.2z" style="fill:#383A48;"/>
		</g>
	</g>
	<g>
		<path d="M542.6,800.7c-14.2,0-28.9-2.8-43.9-9.1c-2.5-1.1-3.7-4-2.7-6.5s4-3.7,6.5-2.7
			c53.3,22.3,103.5-3.9,129.7-39.8c6.2-8.5,10.9-17.2,13.9-25.6c-18.5-6.5-30.3-16.9-36.7-24c-8-8.9-10.9-19.5-7.7-28.9
			c2.7-8.1,9.5-14.1,17.9-15.7c10-2,20.6,2.6,29,12.4c11,12.9,14.2,30.5,9.9,49.5c6.4,1.5,13.6,2.5,21.5,2.8
			c37.4,1.1,81.9-14.9,132.3-47.6c2.3-1.5,5.4-0.8,6.9,1.5s0.8,5.4-1.5,6.9c-50.4,32.7-95.6,49.2-134.2,49.2c-1.3,0-2.6,0-3.9-0.1
			c-8.9-0.3-16.8-1.4-24-3.2c-3.3,9.5-8.5,19.2-15.4,28.7C619.2,777.5,583.5,800.7,542.6,800.7z M624.2,657.9
			c-0.9,0-1.8,0.1-2.7,0.3c-4.8,0.9-8.7,4.4-10.3,9.1c-2,5.9,0.1,12.9,5.6,19.1c5.6,6.2,15.9,15.2,32.1,21.1
			c3.4-15.6,0.8-29.9-8-40.1C635.8,661.2,629.9,657.9,624.2,657.9z" style="fill:#383A48;"/>
	</g>
	<path d="M411.6,892L222.4,702.8c-1.4-1.4-3.6-1.9-5.4-1.1c-1.9,0.8-3.1,2.6-3.1,4.6V895c0,2.8,2.2,5,5,5l189.2,0.6l0,0
		c2,0,3.8-1.2,4.6-3.1C413.5,895.6,413,893.4,411.6,892z" style="fill:#F6E049;"/>
	<g>
		<g>
			<path d="M796.6,760.2c-2.8,0-5-2.2-5-5v-18.8c0-2.8,2.2-5,5-5s5,2.2,5,5v18.8C801.6,758,799.4,760.2,796.6,760.2z" style="fill:#383A48;"/>
		</g>
		<g>
			<path d="M796.6,827.5c-2.8,0-5-2.2-5-5v-18.8c0-2.8,2.2-5,5-5s5,2.2,5,5v18.8C801.6,825.3,799.4,827.5,796.6,827.5z" style="fill:#383A48;"/>
		</g>
		<g>
			<path d="M772.3,784.5h-18.8c-2.8,0-5-2.2-5-5s2.2-5,5-5h18.8c2.8,0,5,2.2,5,5S775.1,784.5,772.3,784.5z" style="fill:#383A48;"/>
		</g>
		<g>
			<path d="M839.7,784.5h-18.8c-2.8,0-5-2.2-5-5s2.2-5,5-5h18.8c2.8,0,5,2.2,5,5S842.4,784.5,839.7,784.5z" style="fill:#383A48;"/>
		</g>
		<g>
			<path d="M779.5,767.3c-1.3,0-2.6-0.5-3.5-1.5l-13.3-13.3c-2-2-2-5.1,0-7.1s5.1-2,7.1,0l13.3,13.3c2,2,2,5.1,0,7.1
				C782,766.8,780.7,767.3,779.5,767.3z" style="fill:#383A48;"/>
		</g>
		<g>
			<path d="M827.1,814.9c-1.3,0-2.6-0.5-3.5-1.5l-13.3-13.3c-2-2-2-5.1,0-7.1s5.1-2,7.1,0l13.3,13.3c2,2,2,5.1,0,7.1
				C829.6,814.4,828.3,814.9,827.1,814.9z" style="fill:#383A48;"/>
		</g>
		<g>
			<path d="M766.2,814.9c-1.3,0-2.6-0.5-3.5-1.5c-2-2-2-5.1,0-7.1L776,793c2-2,5.1-2,7.1,0s2,5.1,0,7.1l-13.3,13.3
				C768.7,814.4,767.5,814.9,766.2,814.9z" style="fill:#383A48;"/>
		</g>
		<g>
			<path d="M813.8,767.3c-1.3,0-2.6-0.5-3.5-1.5c-2-2-2-5.1,0-7.1l13.3-13.3c2-2,5.1-2,7.1,0s2,5.1,0,7.1l-13.3,13.3
				C816.3,766.8,815.1,767.3,813.8,767.3z" style="fill:#383A48;"/>
		</g>
	</g>
	<g>
		<g>
			<rect x="269.9" y="227.7" width="10" height="33" style="fill:#383A48;"/>
		</g>
		<g>
			<line x1="258.5" y1="244.2" x2="291.4" y2="244.2" style="fill:none;"/>
			<rect x="258.5" y="239.2" width="33" height="10" style="fill:#383A48;"/>
		</g>
	</g>
	<g>
		<g>
			<rect x="1042.4" y="183.6" width="10" height="33" style="fill:#383A48;"/>
		</g>
		<g>
			<line x1="1030.9" y1="200" x2="1063.8" y2="200" style="fill:none;"/>
			<rect x="1030.9" y="195" width="33" height="10" style="fill:#383A48;"/>
		</g>
	</g>
</g>
</svg>
