<svg xmlns="http://www.w3.org/2000/svg" xmlns:xlink="http://www.w3.org/1999/xlink" width="1383" height="701" version="1.1" viewBox="0 0 1383 701"><title>abstract-list-is-empty</title><desc>Created with Sketch.</desc><g id="Page-1" fill="none" fill-rule="evenodd" stroke="none" stroke-width="1"><g id="abstract-list-is-empty" transform="translate(-243.000000, -194.000000)"><g id="Group" transform="translate(243.000000, 194.000000)"><g fill-rule="nonzero" transform="translate(6.000000, 0.000000)"><g transform="translate(803.000000, 0.000000)"><polygon id="Path" fill="#F3F6E6" points="5.7 563.8 565.6 453.7 565.6 5.5 5.7 5.5"/><path id="Shape" fill="#383A48" d="M5.7,568.8 C4.6,568.8 3.4,568.4 2.5,567.7 C1.3,566.8 0.7,565.3 0.7,563.8 L0.7,5.5 C0.7,2.7 2.9,0.5 5.7,0.5 L565.6,0.5 C568.4,0.5 570.6,2.7 570.6,5.5 L570.6,453.7 C570.6,456.1 568.9,458.1 566.6,458.6 L6.7,568.7 C6.4,568.7 6,568.8 5.7,568.8 Z M10.7,10.5 L10.7,557.7 L560.6,449.6 L560.6,10.5 L10.7,10.5 Z"/></g><g transform="translate(646.000000, 249.000000)"><path id="Path" fill="#F3F6E6" d="M5.7,388.5 L310.7,388.5 L353.4,374.5 L381.4,279 L648.4,279 L574.2,92.5 C574.2,44.5 535.3,5.6 487.3,5.6 L5.7,5.6 L5.7,388.5 Z"/><path id="Shape" fill="#383A48" d="M310.7,393.5 L5.7,393.5 C2.9,393.5 0.7,391.3 0.7,388.5 L0.7,5.6 C0.7,2.8 2.9,0.6 5.7,0.6 L487.3,0.6 C537.6,0.6 578.6,41.3 579.1,91.5 L653,277.1 C653.6,278.6 653.4,280.4 652.5,281.8 C651.6,283.2 650,284 648.4,284 L385.1,284 L358.2,375.9 C357.7,377.5 356.5,378.7 355,379.2 L312.3,393.2 C311.7,393.4 311.2,393.5 310.7,393.5 Z M10.7,383.5 L309.9,383.5 L349.3,370.6 L376.6,277.6 C377.2,275.5 379.2,274 381.4,274 L641,274 L569.5,94.4 C569.3,93.8 569.1,93.2 569.1,92.6 C569.1,47.5 532.4,10.7 487.2,10.7 L10.7,10.7 L10.7,383.5 Z"/></g><g id="Path"><path fill="#F3F6E6" d="M574.1,5.6 L99.5,5.6 C47.7,5.6 5.7,47.6 5.7,99.4 L5.7,433.7 L125.1,433.7 L163.9,388.5 L481.7,388.5" transform="translate(475.000000, 249.000000)"/><path fill="#383A48" d="M125.1,438.7 L5.7,438.7 C2.9,438.7 0.7,436.5 0.7,433.7 L0.7,99.5 C0.7,45 45,0.7 99.5,0.7 L574.1,0.7 C576.9,0.7 579.1,2.9 579.1,5.7 C579.1,8.5 576.9,10.7 574.1,10.7 L99.5,10.7 C50.5,10.7 10.7,50.5 10.7,99.5 L10.7,428.8 L122.8,428.8 L160.1,385.3 C161,384.2 162.4,383.6 163.9,383.6 L481.7,383.6 C484.5,383.6 486.7,385.8 486.7,388.6 C486.7,391.4 484.5,393.6 481.7,393.6 L166.1,393.6 L128.9,437 C127.9,438.1 126.5,438.7 125.1,438.7 Z" transform="translate(475.000000, 249.000000)"/></g><path id="Path" fill="#383A48" d="M1049.1,551.7 C1046.3,551.7 1044.1,549.5 1044.1,546.7 L1044.1,340.1 C1044.1,290.2 1084.7,249.6 1134.6,249.6 C1184.5,249.6 1225.1,290.2 1225.1,340.1 L1225.1,472.8 C1225.1,475.6 1222.9,477.8 1220.1,477.8 C1217.3,477.8 1215.1,475.6 1215.1,472.8 L1215.1,340.1 C1215.1,295.7 1179,259.6 1134.6,259.6 C1090.2,259.6 1054.1,295.7 1054.1,340.1 L1054.1,546.7 C1054.1,549.5 1051.9,551.7 1049.1,551.7 Z"/><g id="Path"><path fill="#F3F6E6" d="M153.6,5.7 L153.6,234.7 C153.6,275.7 120.4,308.9 79.4,308.9 L79.4,308.9 C38.4,308.9 5.2,275.7 5.2,234.7 L5.2,119.1" transform="translate(1215.000000, 219.000000)"/><path fill="#383A48" d="M79.4,314 C35.7,314 0.2,278.5 0.2,234.8 L0.2,119.1 C0.2,116.3 2.4,114.1 5.2,114.1 C8,114.1 10.2,116.3 10.2,119.1 L10.2,234.7 C10.2,272.9 41.3,303.9 79.4,303.9 C117.5,303.9 148.6,272.8 148.6,234.7 L148.6,5.7 C148.6,2.9 150.8,0.7 153.6,0.7 C156.4,0.7 158.6,2.9 158.6,5.7 L158.6,234.7 C158.6,278.4 123.1,314 79.4,314 Z" transform="translate(1215.000000, 219.000000)"/></g><g fill="#383A48" transform="translate(803.000000, 0.000000)"><rect id="Rectangle" width="559.9" height="156.2" x="5.7" y="5.5"/><path id="Shape" d="M565.6,166.7 L5.7,166.7 C2.9,166.7 0.7,164.5 0.7,161.7 L0.7,5.5 C0.7,2.7 2.9,0.5 5.7,0.5 L565.6,0.5 C568.4,0.5 570.6,2.7 570.6,5.5 L570.6,161.7 C570.6,164.5 568.4,166.7 565.6,166.7 Z M10.7,156.7 L560.6,156.7 L560.6,10.5 L10.7,10.5 L10.7,156.7 L10.7,156.7 Z"/></g><g><g transform="translate(0.000000, 370.000000) translate(0.000000, 35.000000)"><path id="Path" fill="#F3F6E6" d="M227.6,144.9 C227.6,218.3 168.1,277.7 94.8,277.7 L5.2,277.7 L604.4,277.7 C604.4,277.7 657.4,270.2 675.2,232.5 C693,194.8 777.3,5.1 777.3,5.1 L331.9,5.1 C274.3,5.1 227.6,51.8 227.6,109.4 L227.6,144.9 L227.6,144.9 Z"/><path id="Shape" fill="#383A48" d="M604.3,282.7 L5.1,282.7 C2.3,282.7 0.1,280.5 0.1,277.7 C0.1,274.9 2.3,272.7 5.1,272.7 L94.7,272.7 C165.2,272.7 222.5,215.4 222.5,144.9 L222.5,109.4 C222.5,49.1 271.5,0.1 331.8,0.1 L777.1,0.1 C778.8,0.1 780.4,1 781.3,2.4 C782.2,3.8 782.4,5.6 781.7,7.2 C780.9,9.1 697.2,197.4 679.6,234.7 C660.8,274.4 607.3,282.4 605,282.8 C604.8,282.7 604.6,282.7 604.3,282.7 Z M146.3,272.7 L603.9,272.7 C608.2,272 654.8,263.7 670.6,230.3 C686.2,197.2 754.1,44.7 769.5,10 L331.9,10 C277.1,10 232.6,54.6 232.6,109.3 L232.6,144.8 C232.6,202.7 196.8,252.3 146.3,272.7 Z"/></g><g transform="translate(0.000000, 370.000000) translate(586.000000, 0.000000)"><path id="Path" fill="#F3F6E6" d="M463.1,5.9 L463.1,175 C463.1,226.1 421.7,267.5 370.6,267.5 L370.6,267.5 C319.5,267.5 278.1,226.1 278.1,175 L278.1,126.6 C278.1,78.8 239.4,40.1 191.6,40.1 L191.6,40.1 C143.8,40.1 105.1,78.8 105.1,126.6 L105.1,213.4 C105.1,268.2 60.6,312.7 5.8,312.7 C5.8,312.7 67.1,310.2 89.1,267.5 L370.6,267.5"/><path id="Shape" fill="#383A48" d="M5.8,317.7 C3.1,317.7 0.9,315.5 0.796720398,312.8 C0.7,310.1 2.9,307.8 5.6,307.7 C6,307.7 30.8,306.4 53.7,294.6 C81.5,278.2 100.1,247.9 100.1,213.4 L100.1,126.6 C100.1,76.1 141.2,35.1 191.6,35.1 C242.1,35.1 283.1,76.2 283.1,126.6 L283.1,175 C283.1,223.2 322.3,262.5 370.6,262.5 C418.8,262.5 458.1,223.3 458.1,175 L458.1,5.9 C458.1,3.1 460.3,0.9 463.1,0.9 C465.9,0.9 468.1,3.1 468.1,5.9 L468.1,175 C468.1,228.7 424.4,272.5 370.6,272.5 L370.6,272.5 L92.1,272.5 C84.7,285.4 73.1,296 57.9,303.8 C42.5,312.7 24.8,317.7 5.8,317.7 Z M97.8,262.5 L327.6,262.5 C295.4,246.6 273.1,213.4 273.1,175 L273.1,126.6 C273.1,81.6 236.5,45.1 191.6,45.1 C146.6,45.1 110.1,81.7 110.1,126.6 L110.1,213.4 C110.1,231.2 105.7,247.9 97.8,262.5 Z"/></g></g><circle id="Oval" cx="872.9" cy="77.8" r="20.3" fill="#E06A63"/><circle id="Oval" cx="933.5" cy="77.8" r="20.3" fill="#F6E049"/><circle id="Oval" cx="994.2" cy="77.8" r="20.3" fill="#7FD6C2"/><g id="Oval" fill="#383A48" transform="translate(685.000000, 419.000000)"><circle cx="203" cy="202.7" r="5"/><circle cx="178.3" cy="153.4" r="5"/><circle cx="178.3" cy="178.1" r="5"/><circle cx="178.3" cy="202.7" r="5"/><circle cx="153.6" cy="30.1" r="5"/><circle cx="153.6" cy="54.7" r="5"/><circle cx="153.6" cy="79.4" r="5"/><circle cx="153.6" cy="104.1" r="5"/><circle cx="153.6" cy="128.7" r="5"/><circle cx="153.6" cy="153.4" r="5"/><circle cx="153.6" cy="178.1" r="5"/><circle cx="153.6" cy="202.7" r="5"/><circle cx="129" cy="5.4" r="5"/><circle cx="129" cy="30.1" r="5"/><circle cx="129" cy="54.7" r="5"/><circle cx="129" cy="79.4" r="5"/><circle cx="129" cy="104.1" r="5"/><circle cx="129" cy="128.7" r="5"/><circle cx="129" cy="153.4" r="5"/><circle cx="129" cy="178.1" r="5"/><circle cx="129" cy="202.7" r="5"/><circle cx="104.3" cy="5.4" r="5"/><circle cx="104.3" cy="30.1" r="5"/><circle cx="104.3" cy="54.7" r="5"/><circle cx="104.3" cy="79.4" r="5"/><circle cx="104.3" cy="104.1" r="5"/><circle cx="104.3" cy="128.7" r="5"/><circle cx="104.3" cy="153.4" r="5"/><circle cx="104.3" cy="178.1" r="5"/><circle cx="104.3" cy="202.7" r="5"/><circle cx="79.6" cy="5.4" r="5"/><circle cx="79.6" cy="30.1" r="5"/><circle cx="79.6" cy="54.7" r="5"/><circle cx="79.6" cy="79.4" r="5"/><circle cx="79.6" cy="104.1" r="5"/><circle cx="79.6" cy="128.7" r="5"/><circle cx="79.6" cy="153.4" r="5"/><circle cx="79.6" cy="178.1" r="5"/><circle cx="79.6" cy="202.7" r="5"/><circle cx="55" cy="5.4" r="5"/><circle cx="55" cy="30.1" r="5"/><circle cx="55" cy="54.7" r="5"/><circle cx="55" cy="79.4" r="5"/><circle cx="55" cy="104.1" r="5"/><circle cx="55" cy="128.7" r="5"/><circle cx="55" cy="153.4" r="5"/><circle cx="55" cy="178.1" r="5"/><circle cx="55" cy="202.7" r="5"/><circle cx="30.3" cy="30.1" r="5"/><circle cx="30.3" cy="54.7" r="5"/><circle cx="30.3" cy="79.4" r="5"/><circle cx="30.3" cy="104.1" r="5"/><circle cx="30.3" cy="128.7" r="5"/><circle cx="30.3" cy="153.4" r="5"/><circle cx="30.3" cy="178.1" r="5"/><circle cx="30.3" cy="202.7" r="5"/><circle cx="5.6" cy="202.7" r="5"/></g><g id="Oval" fill="#383A48" transform="translate(1059.000000, 261.000000)"><circle cx="178.3" cy="252" r="5"/><circle cx="153.7" cy="54.7" r="5"/><circle cx="153.7" cy="79.4" r="5"/><circle cx="153.7" cy="104" r="5"/><circle cx="153.7" cy="128.7" r="5"/><circle cx="153.7" cy="153.4" r="5"/><circle cx="153.7" cy="178" r="5"/><circle cx="153.7" cy="202.7" r="5"/><circle cx="153.7" cy="227.4" r="5"/><circle cx="153.7" cy="252" r="5"/><circle cx="129" cy="30" r="5"/><circle cx="129" cy="54.7" r="5"/><circle cx="129" cy="79.4" r="5"/><circle cx="129" cy="104" r="5"/><circle cx="129" cy="128.7" r="5"/><circle cx="129" cy="153.4" r="5"/><circle cx="129" cy="178" r="5"/><circle cx="129" cy="202.7" r="5"/><circle cx="129" cy="227.4" r="5"/><circle cx="129" cy="252" r="5"/><circle cx="104.3" cy="5.4" r="5"/><circle cx="104.3" cy="30" r="5"/><circle cx="104.3" cy="54.7" r="5"/><circle cx="104.3" cy="79.4" r="5"/><circle cx="104.3" cy="104" r="5"/><circle cx="104.3" cy="128.7" r="5"/><circle cx="104.3" cy="153.4" r="5"/><circle cx="104.3" cy="178" r="5"/><circle cx="104.3" cy="202.7" r="5"/><circle cx="104.3" cy="227.4" r="5"/><circle cx="104.3" cy="252" r="5"/><circle cx="79.7" cy="5.4" r="5"/><circle cx="79.7" cy="30" r="5"/><circle cx="79.7" cy="54.7" r="5"/><circle cx="79.7" cy="79.4" r="5"/><circle cx="79.7" cy="104" r="5"/><circle cx="79.7" cy="128.7" r="5"/><circle cx="79.7" cy="153.4" r="5"/><circle cx="79.7" cy="178" r="5"/><circle cx="79.7" cy="202.7" r="5"/><circle cx="79.7" cy="227.4" r="5"/><circle cx="79.7" cy="252" r="5"/><circle cx="55" cy="5.4" r="5"/><circle cx="55" cy="30" r="5"/><circle cx="55" cy="54.7" r="5"/><circle cx="55" cy="79.4" r="5"/><circle cx="55" cy="104" r="5"/><circle cx="55" cy="128.7" r="5"/><circle cx="55" cy="153.4" r="5"/><circle cx="55" cy="178" r="5"/><circle cx="55" cy="202.7" r="5"/><circle cx="55" cy="227.4" r="5"/><circle cx="55" cy="252" r="5"/><circle cx="30.3" cy="30" r="5"/><circle cx="30.3" cy="54.7" r="5"/><circle cx="30.3" cy="79.4" r="5"/><circle cx="30.3" cy="104" r="5"/><circle cx="30.3" cy="128.7" r="5"/><circle cx="30.3" cy="153.4" r="5"/><circle cx="30.3" cy="178" r="5"/><circle cx="30.3" cy="202.7" r="5"/><circle cx="30.3" cy="227.4" r="5"/><circle cx="30.3" cy="252" r="5"/><circle cx="5.7" cy="54.7" r="5"/><circle cx="5.7" cy="79.4" r="5"/><circle cx="5.7" cy="104" r="5"/><circle cx="5.7" cy="128.7" r="5"/><circle cx="5.7" cy="153.4" r="5"/><circle cx="5.7" cy="178" r="5"/><circle cx="5.7" cy="202.7" r="5"/><circle cx="5.7" cy="227.4" r="5"/><circle cx="5.7" cy="252" r="5"/></g></g><path id="Path" fill="#383A48" fill-rule="nonzero" d="M1055.1,551.7 C1052.3,551.7 1050.1,549.5 1050.1,546.7 L1050.1,340.1 C1050.1,315.9 1059.5,293.2 1076.6,276.1 C1082.4,270.3 1088.9,265.4 1095.9,261.4 C1096.7,261 1097.5,260.7 1098.4,260.7 C1101.2,260.7 1103.4,262.9 1103.4,265.7 C1103.4,267.6 1102.3,269.3 1100.7,270.2 C1094.5,273.7 1088.8,278.1 1083.7,283.2 C1068.5,298.4 1060.1,318.6 1060.1,340.1 L1060.1,546.7 C1060.1,549.5 1057.9,551.7 1055.1,551.7 Z"/><path id="Path" fill="#F3F6E6" fill-rule="nonzero" d="M385.1,158.1 L215.4,1.8 C214.5,1 213.3,0.5 212,0.5 L5.8,0.5 C3,0.5 0.8,2.7 0.8,5.5 L0.8,393.7 C0.8,418.4 14.9,439.7 37.7,449.4 C45.5,452.7 53.7,454.4 61.7,454.4 C76.9,454.4 91.7,448.5 103.4,437.3 L385.2,165.4 C386.2,164.4 386.7,163.1 386.7,161.7 C386.7,160.3 386.1,159 385.1,158.1 Z"/><path id="Path" fill="#F3F6E6" fill-rule="nonzero" d="M1379.4,526.8 C1377.5,526.1 1375.3,526.6 1373.9,528.1 C1344.8,560.6 1299.7,564.4 1251.9,568.5 C1205.1,572.4 1156.7,576.5 1123.8,610 C1062,672.7 1022.7,677.6 927.8,689.4 L918.6,690.5 C916,690.8 914.1,693.1 914.196229,695.8 C914.3,698.5 916.5,700.5 919.2,700.5 L1291,700.5 C1341.5,700.5 1382.6,659.4 1382.6,608.9 L1382.6,531.5 C1382.6,529.4 1381.4,527.5 1379.4,526.8 Z"/><path id="Path" fill="#AAC6FC" fill-rule="nonzero" d="M1153.1,630.1 C1151.8,630.1 1150.5,629.6 1149.6,628.6 L839.8,318.8 C837.8,316.8 837.8,313.7 839.8,311.7 C841.8,309.7 844.9,309.7 846.9,311.7 L1156.7,621.5 C1158.7,623.5 1158.7,626.6 1156.7,628.6 C1155.6,629.6 1154.3,630.1 1153.1,630.1 Z"/><g><g transform="translate(1273.000000, 609.000000)"><line id="Path" x1="4" x2="27.3" y1="4.4" y2="27.8"/><rect id="Rectangle" width="10" height="33" x="10.572" y="-.401" fill="#383A48" fill-rule="nonzero" transform="translate(15.572070, 16.098850) rotate(-45.000000) translate(-15.572070, -16.098850)"/></g><g transform="translate(1273.000000, 609.000000)"><line id="Path" x1="4" x2="27.3" y1="27.8" y2="4.4"/><rect id="Rectangle" width="33.002" height="10.001" x="-.685" y="11.068" fill="#383A48" fill-rule="nonzero" transform="translate(15.816290, 16.068170) rotate(-45.004051) translate(-15.816290, -16.068170)"/></g></g><g><g transform="translate(370.000000, 285.000000)"><line id="Path" x1="3.9" x2="27.2" y1="3.6" y2="27"/><rect id="Rectangle" width="10" height="33" x="10.484" y="-1.197" fill="#383A48" fill-rule="nonzero" transform="translate(15.484180, 15.303080) rotate(-45.000000) translate(-15.484180, -15.303080)"/></g><g transform="translate(370.000000, 285.000000)"><line id="Path" x1="3.9" x2="27.2" y1="27" y2="3.6"/><rect id="Rectangle" width="33" height="10" x="-.974" y="10.39" fill="#383A48" fill-rule="nonzero" transform="translate(15.525890, 15.390090) rotate(-45.000000) translate(-15.525890, -15.390090)"/></g></g><g><g transform="translate(52.000000, 117.000000)"><line id="Path" x1="4.1" x2="27.4" y1="4.1" y2="27.4"/><rect id="Rectangle" width="10" height="33" x="10.694" y="-.674" fill="#383A48" fill-rule="nonzero" transform="translate(15.694350, 15.825510) rotate(-45.000000) translate(-15.694350, -15.825510)"/></g><g transform="translate(52.000000, 117.000000)"><line id="Path" x1="4.1" x2="27.4" y1="27.4" y2="4.1"/><rect id="Rectangle" width="33" height="10" x="-.682" y="10.791" fill="#383A48" fill-rule="nonzero" transform="translate(15.818260, 15.790800) rotate(-45.000000) translate(-15.818260, -15.790800)"/></g></g><path id="Path" fill="#383A48" fill-rule="nonzero" d="M600.8,406.4 L491.5,325.9 C490,324.8 488,324.6 486.3,325.5 C484.6,326.4 483.6,328.1 483.6,330 L483.6,410.2 C483.6,413 485.8,415.2 488.6,415.2 L597.9,415.5 L597.9,415.5 C600.1,415.5 602,414.1 602.6,412.1 C603.2,409.9 602.5,407.7 600.8,406.4 Z"/><g id="Path" fill-rule="nonzero"><path fill="#AAC6FC" d="M136,28.1 L139.6,24.6 C124.5,9.1 104.2,0.4 82.5,0.2 C60.8,-0.1 40.4,8.2 24.9,23.3 C-7.1,54.6 -7.7,106 23.6,138 L28.6,133.1 L132.5,31.6 L132.5,31.6 L135.6,28.6 L136,28.1 L136,28.1 Z" transform="translate(119.000000, 264.000000)"/><path fill="#383A48" d="M139.6,24.6 L136,28.1 L30.7,131 L30.7,131 L28.5,133.1 L27.1,134.5 L27.1,134.5 L23.5,138 C39.4,154.2 60.4,162.4 81.5,162.4 C102,162.4 122.4,154.7 138.2,139.3 C170.2,108 170.8,56.6 139.6,24.6 Z" transform="translate(119.000000, 264.000000)"/></g><g transform="translate(128.000000, 0.000000)"><g fill-rule="nonzero" transform="translate(65.000000, 1.000000)"><path id="Path" fill="#F6E049" d="M376.6,160.7 L5.3,160.7 L5.3,5.7 L376.6,5.7 L460.7,64.1 C474,73.4 474,93.1 460.7,102.3 L376.6,160.7 Z"/><path id="Shape" fill="#383A48" d="M376.6,165.7 L5.3,165.7 C2.5,165.7 0.3,163.5 0.3,160.7 L0.3,5.7 C0.3,2.9 2.5,0.7 5.3,0.7 L376.6,0.7 C377.6,0.7 378.6,1 379.5,1.6 L463.6,60 C471.2,65.3 475.8,74 475.8,83.2 C475.8,92.4 471.3,101.1 463.6,106.4 L379.5,164.8 C378.6,165.4 377.6,165.7 376.6,165.7 Z M10.3,155.7 L375,155.7 L457.9,98.2 C462.9,94.7 465.8,89.3 465.8,83.2 C465.8,77.1 462.9,71.7 457.9,68.2 L375,10.7 L10.3,10.7 L10.3,155.7 Z"/></g><g fill-rule="nonzero"><circle id="Oval" cx="84" cy="83.6" r="78.1" fill="#F6E049"/><path id="Shape" fill="#383A48" d="M84,166.7 C38.2,166.7 0.9,129.4 0.9,83.6 C0.9,37.8 38.2,0.5 84,0.5 C129.8,0.5 167.1,37.8 167.1,83.6 C167.1,129.5 129.8,166.7 84,166.7 Z M84,10.5 C43.7,10.5 10.9,43.3 10.9,83.6 C10.9,123.9 43.7,156.7 84,156.7 C124.3,156.7 157.1,123.9 157.1,83.6 C157.1,43.3 124.3,10.5 84,10.5 Z"/></g><g fill="#383A48" fill-rule="nonzero" transform="translate(41.000000, 41.000000)"><circle id="Oval" cx="43" cy="42.6" r="37.5"/><path id="Shape" d="M43,85.1 C19.6,85.1 0.5,66 0.5,42.6 C0.5,19.2 19.6,0.1 43,0.1 C66.4,0.1 85.5,19.2 85.5,42.6 C85.5,66.1 66.4,85.1 43,85.1 Z M43,10.1 C25.1,10.1 10.5,24.7 10.5,42.6 C10.5,60.5 25.1,75.1 43,75.1 C60.9,75.1 75.5,60.5 75.5,42.6 C75.5,24.7 60.9,10.1 43,10.1 Z"/></g><path id="Path" fill="#383A48" fill-rule="nonzero" d="M439.7,165.5 C415.8,165.5 396.4,146 396.4,122.1 C396.4,110 401.7,98.4 411.2,89.4 C413.6,87.2 414.8,85.2 414.8,83.6 C414.8,81.7 412.9,79.5 411.4,78.1 C401.7,69.1 396.4,57.4 396.4,45.2 C396.4,21.3 415.8,1.8 439.7,1.8 C442.5,1.8 444.7,4 444.7,6.8 C444.7,9.6 442.5,11.8 439.7,11.8 C421.3,11.8 406.4,26.8 406.4,45.2 C406.4,54.6 410.6,63.7 418.2,70.7 C422.6,74.8 424.8,79.1 424.8,83.5 C424.8,88 422.6,92.3 418,96.6 C410.5,103.7 406.3,112.7 406.3,122 C406.3,140.4 421.2,155.4 439.6,155.4 C442.4,155.4 444.6,157.6 444.6,160.4 C444.6,163.2 442.5,165.5 439.7,165.5 Z"/><g fill="#383A48" fill-rule="nonzero" transform="translate(498.000000, 44.000000)"><path id="Path" d="M5.5,5.7 L5.5,74.8 L26.2,61.1 C41.5,51 41.3,28.5 25.8,18.7 L5.5,5.7 Z"/><path id="Shape" d="M5.5,79.8 C4.7,79.8 3.9,79.6 3.1,79.2 C1.5,78.3 0.5,76.6 0.5,74.8 L0.5,5.7 C0.5,3.9 1.5,2.2 3.1,1.3 C4.7,0.4 6.7,0.5 8.2,1.5 L28.6,14.5 C37.3,20 42.5,29.5 42.6,39.8 C42.7,50.1 37.6,59.6 29,65.3 L8.2,79 C7.4,79.5 6.4,79.8 5.5,79.8 Z M10.5,14.8 L10.5,65.5 L23.5,56.9 C29.3,53.1 32.7,46.7 32.6,39.8 C32.5,32.9 29,26.6 23.2,22.9 L10.5,14.8 Z"/></g><path id="Path" fill="#383A48" fill-rule="nonzero" d="M401.4,50.2 L152,50.2 C149.2,50.2 147,48 147,45.2 C147,42.4 149.2,40.2 152,40.2 L401.4,40.2 C404.2,40.2 406.4,42.4 406.4,45.2 C406.4,48 404.2,50.2 401.4,50.2 Z"/><g id="Path" transform="translate(147.000000, 117.000000)"><line x1="254.4" x2="5" y1="5.1" y2="5.1"/><path fill="#383A48" fill-rule="nonzero" d="M254.4,10.1 L5,10.1 C2.2,10.1 0,7.9 0,5.1 C0,2.3 2.2,0.1 5,0.1 L254.4,0.1 C257.2,0.1 259.4,2.3 259.4,5.1 C259.4,7.9 257.2,10.1 254.4,10.1 Z"/></g></g></g></g></g></svg>