<svg xmlns="http://www.w3.org/2000/svg" xmlns:xlink="http://www.w3.org/1999/xlink" width="1386" height="792" version="1.1" viewBox="0 0 1386 792"><title>abstract-no-messages</title><desc>Created with Sketch.</desc><g id="Page-1" fill="none" fill-rule="evenodd" stroke="none" stroke-width="1"><g id="abstract-no-messages" transform="translate(-265.000000, -142.000000)"><g id="Group" transform="translate(265.000000, 142.000000)"><path id="Path" fill="#F3F6E6" fill-rule="nonzero" d="M1369.2,197.7 C1359.6,194.4 1349.4,197.3 1343.1,205.2 C1304.7,253.4 1230.4,327.3 1137.3,389.9 C1087.1,423.6 1037.2,450.1 988.9,468.7 C933.2,490.1 879.7,500.9 829.9,500.6 C668.3,499.8 608.1,576 549.9,649.8 C504.7,707.1 462,761.1 374.6,781.2 C372.1,781.8 370.5,784.1 370.8,786.6 C371.1,789.1 373.2,791 375.8,791 L1380.1,791 C1382.9,791 1385.1,788.8 1385.1,786 L1385.1,219.9 C1384.9,209.8 1378.7,201.1 1369.2,197.7 Z"/><g id="Oval" fill="#383A48" fill-rule="nonzero" transform="translate(887.000000, 550.000000)"><circle cx="489.3" cy="5.6" r="5"/><circle cx="489.3" cy="49.6" r="5"/><circle cx="489.3" cy="93.6" r="5"/><circle cx="489.3" cy="137.6" r="5"/><circle cx="489.3" cy="181.6" r="5"/><circle cx="489.3" cy="225.6" r="5"/><circle cx="445.3" cy="5.6" r="5"/><circle cx="445.3" cy="49.6" r="5"/><circle cx="445.3" cy="93.6" r="5"/><circle cx="445.3" cy="137.6" r="5"/><circle cx="445.3" cy="181.6" r="5"/><circle cx="445.3" cy="225.6" r="5"/><circle cx="401.3" cy="5.6" r="5"/><circle cx="401.3" cy="49.6" r="5"/><circle cx="401.3" cy="93.6" r="5"/><circle cx="401.3" cy="137.6" r="5"/><circle cx="401.3" cy="181.6" r="5"/><circle cx="401.3" cy="225.6" r="5"/><circle cx="357.3" cy="5.6" r="5"/><circle cx="357.3" cy="49.6" r="5"/><circle cx="357.3" cy="93.6" r="5"/><circle cx="357.3" cy="137.6" r="5"/><circle cx="357.3" cy="181.6" r="5"/><circle cx="357.3" cy="225.6" r="5"/><circle cx="313.3" cy="5.6" r="5"/><circle cx="313.3" cy="49.6" r="5"/><circle cx="313.3" cy="93.6" r="5"/><circle cx="313.3" cy="137.6" r="5"/><circle cx="313.3" cy="181.6" r="5"/><circle cx="313.3" cy="225.6" r="5"/><circle cx="269.3" cy="5.6" r="5"/><circle cx="269.3" cy="49.6" r="5"/><circle cx="269.3" cy="93.6" r="5"/><circle cx="269.3" cy="137.6" r="5"/><circle cx="269.3" cy="181.6" r="5"/><circle cx="269.3" cy="225.6" r="5"/><circle cx="225.3" cy="5.6" r="5"/><circle cx="225.3" cy="49.6" r="5"/><circle cx="225.3" cy="93.6" r="5"/><circle cx="225.3" cy="137.6" r="5"/><circle cx="225.3" cy="181.6" r="5"/><circle cx="225.3" cy="225.6" r="5"/><circle cx="181.3" cy="5.6" r="5"/><circle cx="181.3" cy="49.6" r="5"/><circle cx="181.3" cy="93.6" r="5"/><circle cx="181.3" cy="137.6" r="5"/><circle cx="181.3" cy="181.6" r="5"/><circle cx="181.3" cy="225.6" r="5"/><circle cx="137.3" cy="5.6" r="5"/><circle cx="137.3" cy="49.6" r="5"/><circle cx="137.3" cy="93.6" r="5"/><circle cx="137.3" cy="137.6" r="5"/><circle cx="137.3" cy="181.6" r="5"/><circle cx="137.3" cy="225.6" r="5"/><circle cx="93.3" cy="5.6" r="5"/><circle cx="93.3" cy="49.6" r="5"/><circle cx="93.3" cy="93.6" r="5"/><circle cx="93.3" cy="137.6" r="5"/><circle cx="93.3" cy="181.6" r="5"/><circle cx="93.3" cy="225.6" r="5"/><circle cx="49.3" cy="5.6" r="5"/><circle cx="49.3" cy="49.6" r="5"/><circle cx="49.3" cy="93.6" r="5"/><circle cx="49.3" cy="137.6" r="5"/><circle cx="49.3" cy="181.6" r="5"/><circle cx="49.3" cy="225.6" r="5"/><circle cx="5.3" cy="50.6" r="5"/><circle cx="5.3" cy="94.6" r="5"/></g><g transform="translate(419.000000, 362.000000)"><rect id="Rectangle" width="10" height="33" x="11.6" y=".6" fill="#383A48" fill-rule="nonzero"/><g transform="translate(0.000000, 12.000000)"><line id="Path" x1=".2" x2="33.1" y1="5.1" y2="5.1"/><rect id="Rectangle" width="33" height="10" x=".2" y=".1" fill="#383A48" fill-rule="nonzero"/></g></g><g fill-rule="nonzero" transform="translate(32.000000, 21.000000)"><g><rect id="Rectangle" width="338.4" height="235.9" x="5.2" y="5.5" fill="#F6E049"/><path id="Shape" fill="#F3F6E6" d="M343.6,246.4 L5.2,246.4 C2.4,246.4 0.2,244.2 0.2,241.4 L0.2,5.5 C0.2,2.7 2.4,0.5 5.2,0.5 L343.6,0.5 C346.4,0.5 348.6,2.7 348.6,5.5 L348.6,241.4 C348.6,244.2 346.4,246.4 343.6,246.4 Z M10.2,236.4 L338.6,236.4 L338.6,10.5 L10.2,10.5 L10.2,236.4 Z"/></g><path id="Path" fill="#F3F6E6" d="M174.4,153.5 C173.3,153.5 172.1,153.1 171.2,152.3 L2,9.3 C-0.1,7.5 -0.4,4.4 1.4,2.3 C3.2,0.2 6.3,-0.1 8.4,1.7 L174.4,141.9 L340.4,1.7 C342.5,-0.1 345.7,0.2 347.4,2.3 C349.1,4.4 348.9,7.6 346.8,9.3 L177.6,152.3 C176.7,153.1 175.6,153.5 174.4,153.5 Z"/></g><g fill-rule="nonzero" transform="translate(32.000000, 197.000000)"><g><rect id="Rectangle" width="338.4" height="235.9" x="5.2" y="5.8" fill="#F5E77D"/><path id="Shape" fill="#B5B7B1" d="M343.6,246.7 L5.2,246.7 C2.4,246.7 0.2,244.5 0.2,241.7 L0.2,5.8 C0.2,3 2.4,0.8 5.2,0.8 L343.6,0.8 C346.4,0.8 348.6,3 348.6,5.8 L348.6,241.7 C348.6,244.5 346.4,246.7 343.6,246.7 Z M10.2,236.7 L338.6,236.7 L338.6,10.8 L10.2,10.8 L10.2,236.7 Z"/></g><path id="Path" fill="#B5B7B1" d="M174.4,153.8 C173.3,153.8 172.1,153.4 171.2,152.6 L2,9.6 C-0.1,7.8 -0.4,4.7 1.4,2.6 C3.2,0.5 6.3,0.2 8.4,2 L174.4,142.2 L340.4,2 C342.5,0.2 345.7,0.5 347.4,2.6 C349.2,4.7 348.9,7.9 346.8,9.6 L177.6,152.6 C176.7,153.4 175.6,153.8 174.4,153.8 Z"/></g><g fill-rule="nonzero" transform="translate(32.000000, 374.000000)"><g><rect id="Rectangle" width="338.4" height="235.9" x="5.2" y="5.1" fill="#F4EFB2"/><path id="Shape" fill="#76797D" d="M343.6,246 L5.2,246 C2.4,246 0.2,243.8 0.2,241 L0.2,5.1 C0.2,2.3 2.4,0.1 5.2,0.1 L343.6,0.1 C346.4,0.1 348.6,2.3 348.6,5.1 L348.6,241 C348.6,243.8 346.4,246 343.6,246 Z M10.2,236 L338.6,236 L338.6,10.1 L10.2,10.1 L10.2,236 Z"/></g><path id="Path" fill="#76797D" d="M174.4,153 C173.3,153 172.1,152.6 171.2,151.8 L2,8.9 C-0.1,7.1 -0.4,4 1.4,1.9 C3.2,-0.2 6.3,-0.5 8.4,1.3 L174.4,141.5 L340.4,1.3 C342.5,-0.5 345.7,-0.2 347.4,1.9 C349.2,4 348.9,7.2 346.8,8.9 L177.6,151.9 C176.7,152.7 175.6,153 174.4,153 Z"/></g><g fill-rule="nonzero" transform="translate(32.000000, 545.000000)"><g><rect id="Rectangle" width="338.4" height="235.9" x="5.2" y="5.2" fill="#F3F6E6"/><path id="Shape" fill="#383A48" d="M343.6,246.1 L5.2,246.1 C2.4,246.1 0.2,243.9 0.2,241.1 L0.2,5.2 C0.2,2.4 2.4,0.2 5.2,0.2 L343.6,0.2 C346.4,0.2 348.6,2.4 348.6,5.2 L348.6,241.1 C348.6,243.9 346.4,246.1 343.6,246.1 Z M10.2,236.1 L338.6,236.1 L338.6,10.2 L10.2,10.2 L10.2,236.1 Z"/></g><path id="Path" fill="#383A48" d="M174.4,153.1 C173.3,153.1 172.1,152.7 171.2,151.9 L2,9 C-0.1,7.2 -0.4,4.1 1.4,2 C3.2,-0.1 6.3,-0.4 8.4,1.4 L174.4,141.6 L340.4,1.4 C342.5,-0.4 345.7,-0.1 347.4,2 C349.2,4.1 348.9,7.3 346.8,9 L177.6,152 C176.7,152.8 175.6,153.1 174.4,153.1 Z"/></g><path id="Path" fill="#383A48" fill-rule="nonzero" d="M480.9,555.2 C479.2,555.2 477.5,554.3 476.5,552.6 C475.1,550.2 476,547.1 478.4,545.8 C493.8,537.1 550.4,503.3 629.7,455.3 C632.1,453.9 635.1,454.6 636.6,457 C638,459.4 637.3,462.4 634.9,463.9 C555.5,511.9 498.8,545.8 483.3,554.6 C482.5,555 481.7,555.2 480.9,555.2 Z"/><path id="Path" fill="#383A48" fill-rule="nonzero" d="M5.3,312.7 C3.6,312.7 1.9,311.8 0.9,310.1 C-0.5,307.7 0.4,304.6 2.8,303.3 C13.6,297.2 52,273.9 96.3,246.9 C121.5,231.6 150,214.2 176,198.5 C178.4,197.1 181.4,197.8 182.9,200.2 C184.3,202.6 183.6,205.6 181.2,207.1 C155.2,222.8 126.7,240.2 101.5,255.5 C57,282.6 18.6,305.9 7.7,312.1 C7,312.5 6.2,312.7 5.3,312.7 Z"/><g id="Shape" fill-rule="nonzero"><path fill="#E0719E" d="M172.8,94.8 C206.5,94.8 236.3,116.3 246.8,148.3 L360.9,494.4 C365,506.7 366,519.2 363.9,531.6 C361.9,543.3 357.1,554.7 350,564.5 C342.9,574.3 333.6,582.4 323.1,588 C312,593.8 299.8,596.8 286.9,596.8 C253.2,596.8 223.4,575.3 212.9,543.3 L98.8,197.1 C94.7,184.8 93.7,172.3 95.8,159.9 C97.8,148.2 102.6,136.8 109.7,127 C116.8,117.2 126.1,109.1 136.6,103.5 C147.6,97.7 159.8,94.8 172.8,94.8 M172.8,5.1 L172.8,5.1 C58.7,5.1 -22.1,116.7 13.6,225.1 L127.7,571.2 C150.3,639.9 214.5,686.3 286.9,686.3 L286.9,686.3 C401,686.3 481.8,574.7 446.1,466.3 L332,120.3 C309.3,51.6 245.1,5.1 172.8,5.1 L172.8,5.1 Z" transform="translate(447.000000, 0.000000)"/><path fill="#383A48" d="M286.9,691.4 C212.2,691.4 146.4,643.8 123,572.9 L8.9,226.8 C-8.6,173.6 0.1,117 33,71.6 C65.8,26.2 116.8,0.2 172.8,0.2 L172.8,0.2 C247.5,0.2 313.3,47.8 336.7,118.7 L450.8,464.8 C468.3,518 459.6,574.6 426.7,620 C393.9,665.3 342.9,691.4 286.9,691.4 Z M172.8,10.1 C120,10.1 72,34.6 41.1,77.4 C10.2,120.2 1.9,173.5 18.4,223.6 L132.5,569.7 C154.5,636.5 216.6,681.4 286.9,681.4 C339.7,681.4 387.7,656.9 418.6,614.1 C449.5,571.3 457.8,518 441.3,467.9 L327.2,121.8 C305.2,55 243.1,10.1 172.8,10.1 Z M286.9,601.7 C251,601.7 219.4,578.8 208.1,544.7 L94,198.7 C89.7,185.6 88.6,172.3 90.8,159.1 C92.9,146.6 98,134.5 105.5,124.1 C113,113.7 122.9,105 134.1,99.1 C145.9,92.9 158.9,89.7 172.7,89.7 C208.6,89.7 240.2,112.6 251.5,146.7 L365.6,492.8 C369.9,505.9 371,519.2 368.8,532.4 C366.7,544.9 361.6,557 354.1,567.4 C346.6,577.8 336.7,586.5 325.5,592.4 C313.7,598.6 300.7,601.7 286.9,601.7 Z M172.8,99.8 C160.6,99.8 149.2,102.6 138.9,108 C129.1,113.2 120.4,120.8 113.7,130 C107,139.2 102.6,149.8 100.7,160.8 C98.8,172.3 99.7,184 103.5,195.6 L217.6,541.7 C227.5,571.7 255.3,591.8 286.9,591.8 C299.1,591.8 310.5,589 320.8,583.6 C330.6,578.4 339.3,570.8 346,561.6 C352.7,552.4 357.1,541.7 359,530.8 C360.9,519.3 360,507.6 356.2,496 L242.1,149.9 C232.2,119.9 204.4,99.8 172.8,99.8 Z" transform="translate(447.000000, 0.000000)"/></g><g fill="#383A48" fill-rule="nonzero" transform="translate(774.000000, 402.000000)"><path id="Path" d="M5.2,5.2 C5.2,5.2 50,117.6 32.9,144.5 L125.4,144.5 C141.8,95.1 99.6,5.2 99.6,5.2 L5.2,5.2 Z"/><path id="Shape" d="M125.3,149.5 L32.8,149.5 C31,149.5 29.3,148.5 28.4,146.9 C27.5,145.3 27.6,143.3 28.6,141.8 C32.2,136.3 35.8,119.1 20.6,66.2 C11.7,35.3 0.6,7.3 0.5,7 C-0.1,5.5 0.1,3.7 1,2.3 C1.9,0.9 3.5,0.1 5.1,0.1 L99.5,0.1 C101.4,0.1 103.2,1.2 104,3 C105.8,6.7 146.8,95.2 130,146 C129.4,148.1 127.5,149.5 125.3,149.5 Z M40.3,139.5 L121.6,139.5 C132.9,96.9 103,25.4 96.3,10.2 L12.4,10.2 C16.3,20.5 23.8,41.2 30.2,63.4 C40.7,99.7 44,124.8 40.3,139.5 Z"/></g><g fill-rule="nonzero" transform="translate(803.000000, 45.000000)"><path id="Path" fill="#AAC6FC" d="M5.4,67.7 L5.4,410.4 C5.4,441.4 30.6,466.6 61.6,466.6 L520.7,466.6 C551.7,466.6 576.9,441.4 576.9,410.4 L576.9,162 C576.9,131 551.7,105.8 520.7,105.8 L337.5,105.8 C317.3,105.8 298.3,95.9 286.7,79.3 L253.9,32.3 C242.3,15.7 223.4,5.8 203.1,5.8 L67.3,5.8 C33.2,5.8 5.4,33.5 5.4,67.7 Z"/><path id="Shape" fill="#383A48" d="M520.7,471.6 L61.6,471.6 C27.9,471.6 0.4,444.1 0.4,410.4 L0.4,67.7 C0.4,30.8 30.4,0.8 67.3,0.8 L203.1,0.8 C225,0.8 245.5,11.5 258,29.4 L290.8,76.4 C301.4,91.6 318.9,100.7 337.5,100.7 L520.7,100.7 C554.4,100.7 581.9,128.2 581.9,161.9 L581.9,410.3 C581.9,444.1 554.5,471.6 520.7,471.6 Z M67.3,10.8 C35.9,10.8 10.4,36.3 10.4,67.7 L10.4,410.4 C10.4,438.6 33.4,461.6 61.6,461.6 L520.7,461.6 C548.9,461.6 571.9,438.6 571.9,410.4 L571.9,162 C571.9,133.8 548.9,110.8 520.7,110.8 L337.5,110.8 C315.6,110.8 295.1,100.1 282.6,82.2 L249.8,35.2 C239.2,20 221.7,10.9 203.1,10.9 L67.3,10.8 L67.3,10.8 Z"/></g><g fill-rule="nonzero" transform="translate(757.000000, 0.000000)"><path id="Path" fill="#F6E049" d="M5.7,67.8 L5.7,410.5 C5.7,441.5 30.9,466.7 61.9,466.7 L521,466.7 C552,466.7 577.2,441.5 577.2,410.5 L577.2,162.1 C577.2,131.1 552,105.9 521,105.9 L358.5,105.9 C338.3,105.9 319.3,96 307.7,79.4 L274.9,32.4 C263.3,15.8 244.4,5.9 224.1,5.9 L67.6,5.9 C33.5,5.9 5.7,33.6 5.7,67.8 Z"/><path id="Shape" fill="#383A48" d="M521,471.6 L61.9,471.6 C28.2,471.6 0.7,444.1 0.7,410.4 L0.7,67.8 C0.7,30.9 30.7,0.9 67.6,0.9 L224.1,0.9 C246,0.9 266.5,11.6 279,29.5 L311.8,76.5 C322.4,91.7 339.9,100.8 358.5,100.8 L521,100.8 C554.7,100.8 582.2,128.3 582.2,162 L582.2,410.4 C582.2,444.2 554.8,471.6 521,471.6 Z M67.7,10.9 C36.3,10.9 10.8,36.4 10.8,67.8 L10.8,410.5 C10.8,438.7 33.8,461.7 62,461.7 L521,461.7 C549.2,461.7 572.2,438.7 572.2,410.5 L572.2,162.1 C572.2,133.9 549.2,110.9 521,110.9 L358.5,110.9 C336.6,110.9 316.1,100.2 303.6,82.3 L270.8,35.3 C260.2,20.1 242.7,11 224.1,11 L67.7,11 L67.7,10.9 L67.7,10.9 Z"/></g><g transform="translate(1271.000000, 20.000000)"><rect id="Rectangle" width="10" height="33" x="12.1" y=".4" fill="#383A48" fill-rule="nonzero"/><g transform="translate(0.000000, 11.000000)"><line id="Path" x1=".6" x2="33.6" y1="5.9" y2="5.9"/><rect id="Rectangle" width="33" height="10" x=".6" y=".9" fill="#383A48" fill-rule="nonzero"/></g></g><g fill="#383A48" fill-rule="nonzero" transform="translate(777.000000, 663.000000)"><circle id="Oval" cx="64.1" cy="64.4" r="58.7"/><path id="Shape" d="M64.1,128.1 C28.9,128.1 0.4,99.5 0.4,64.4 C0.4,29.3 29,0.7 64.1,0.7 C99.2,0.7 127.8,29.3 127.8,64.4 C127.8,99.5 99.3,128.1 64.1,128.1 Z M64.1,10.6 C34.5,10.6 10.4,34.7 10.4,64.3 C10.4,93.9 34.5,118 64.1,118 C93.7,118 117.8,93.9 117.8,64.3 C117.8,34.7 93.8,10.6 64.1,10.6 Z"/></g><path id="Shape" fill="#383A48" fill-rule="nonzero" d="M632.3,464.6 C630.6,464.6 629,463.7 628,462.2 C626.6,459.8 627.3,456.8 629.7,455.3 C713.2,404.8 818.1,340.9 857,316.5 C881.5,301.1 909.7,291.4 936.5,289 C942.8,288.4 948.9,288.3 954.6,288.6 C960.5,268.7 982.9,238.9 1057.5,213.6 C1060.1,212.7 1063,214.1 1063.8,216.7 C1064.7,219.3 1063.3,222.2 1060.7,223 C1024.1,235.5 997,250.1 980.4,266.5 C971.7,275.1 967,282.9 964.7,289.6 C975.9,291.3 985.1,294.8 990.9,299.9 C998,306.1 999.9,314.4 996.2,322.8 C992.4,331.3 985,335.4 976.3,333.9 C970.5,332.9 965,329.4 960.7,324.2 C956.1,318.7 953.4,311.7 952.8,304.2 C952.7,302.6 952.6,300.7 952.8,298.6 C928.1,297.7 894.2,305 862.3,325 C823.4,349.4 718.4,413.4 634.9,463.9 C634.1,464.4 633.2,464.6 632.3,464.6 Z M962.8,299.4 C962.7,300.8 962.7,302.2 962.8,303.4 C963.7,314.8 971.3,322.9 978.1,324.1 C982.2,324.8 985.2,323 987.1,318.7 C989.1,314.4 988.2,310.8 984.4,307.5 C979.9,303.6 972.4,300.8 962.8,299.4 Z"/></g></g></g></svg>