<?xml version="1.0" encoding="UTF-8"?>
<svg width="1413px" height="838px" viewBox="0 0 1413 838" version="1.1" xmlns="http://www.w3.org/2000/svg" xmlns:xlink="http://www.w3.org/1999/xlink">
    <!-- Generator: Sketch 59.1 (86144) - https://sketch.com -->
    <title>abstract-no-comments</title>
    <desc>Created with Sketch.</desc>
    <g id="Page-1" stroke="none" stroke-width="1" fill="none" fill-rule="evenodd">
        <g id="abstract-no-comments" transform="translate(-237.000000, -121.000000)">
            <g id="Group" transform="translate(237.000000, 121.000000)">
                <path d="M672.7,0.1 L5,0.1 C2.2,0.1 0,2.3 0,5.1 L0,459.3 C0,461.6 1.5,463.5 3.7,464.1 C4.1,464.2 4.6,464.3 5,464.3 C6.7,464.3 8.4,463.4 9.3,461.8 C9.7,461.1 50.7,392 109.8,319.8 C144.4,277.5 178.3,242.4 210.6,215.6 C250.6,182.3 288.1,161.8 322,154.5 C425.4,132.3 460.6,101.4 491.7,74.1 C526.3,43.7 556.1,17.5 673.1,10.1 C675.8,9.9 677.9,7.7 677.803428,5 C677.6,2.3 675.4,0.1 672.7,0.1 Z" id="Path" fill="#F3F6E6" fill-rule="nonzero"></path>
                <g transform="translate(1016.000000, 426.000000)">
                    <rect id="Rectangle" fill="#383A48" fill-rule="nonzero" x="12" y="0.4" width="10" height="33"></rect>
                    <g transform="translate(0.000000, 11.000000)">
                        <line x1="0.5" y1="5.8" x2="33.5" y2="5.8" id="Path"></line>
                        <rect id="Rectangle" fill="#383A48" fill-rule="nonzero" x="0.5" y="0.8" width="33" height="10"></rect>
                    </g>
                </g>
                <g transform="translate(5.000000, 675.000000)">
                    <rect id="Rectangle" fill="#383A48" fill-rule="nonzero" x="11.5" y="0.5" width="10" height="33"></rect>
                    <g transform="translate(0.000000, 11.000000)">
                        <line x1="0" y1="5.9" x2="33" y2="5.9" id="Path"></line>
                        <rect id="Rectangle" fill="#383A48" fill-rule="nonzero" x="0" y="0.9" width="33" height="10"></rect>
                    </g>
                </g>
                <g transform="translate(74.000000, 0.000000)" fill-rule="nonzero">
                    <g>
                        <circle id="Oval" fill="#F6E049" cx="174.7" cy="174.3" r="169.2"></circle>
                        <path d="M174.7,348.5 C78.6,348.5 0.5,270.4 0.5,174.3 C0.5,78.2 78.6,0.1 174.7,0.1 C270.8,0.1 348.9,78.2 348.9,174.3 C348.9,270.4 270.7,348.5 174.7,348.5 Z M174.7,10.1 C84.2,10.1 10.5,83.8 10.5,174.3 C10.5,264.8 84.2,338.5 174.7,338.5 C265.2,338.5 338.9,264.8 338.9,174.3 C338.9,83.8 265.2,10.1 174.7,10.1 Z" id="Shape" fill="#383A48"></path>
                    </g>
                    <circle id="Oval" fill="#383A48" cx="120.6" cy="149.7" r="18.1"></circle>
                    <circle id="Oval" fill="#383A48" cx="228.8" cy="149.7" r="18.1"></circle>
                    <path d="M228.8,215.1 L120.6,215.1 C117.8,215.1 115.6,212.9 115.6,210.1 C115.6,207.3 117.8,205.1 120.6,205.1 L228.8,205.1 C231.6,205.1 233.8,207.3 233.8,210.1 C233.8,212.9 231.5,215.1 228.8,215.1 Z" id="Path" fill="#383A48"></path>
                </g>
                <g transform="translate(74.000000, 174.000000)" fill-rule="nonzero">
                    <g>
                        <circle id="Oval" fill="#F6E049" cx="174.7" cy="174.5" r="169.2"></circle>
                        <path d="M174.7,348.7 C78.6,348.7 0.5,270.6 0.5,174.5 C0.5,78.4 78.6,0.3 174.7,0.3 C270.8,0.3 348.9,78.4 348.9,174.5 C348.9,270.6 270.7,348.7 174.7,348.7 Z M174.7,10.3 C84.2,10.3 10.5,84 10.5,174.5 C10.5,265 84.2,338.7 174.7,338.7 C265.2,338.7 338.9,265 338.9,174.5 C338.9,84 265.2,10.3 174.7,10.3 Z" id="Shape" fill="#383A48"></path>
                    </g>
                    <circle id="Oval" fill="#383A48" cx="120.6" cy="149.9" r="18.1"></circle>
                    <circle id="Oval" fill="#383A48" cx="228.8" cy="149.9" r="18.1"></circle>
                    <path d="M228.8,215.3 L120.6,215.3 C117.8,215.3 115.6,213.1 115.6,210.3 C115.6,207.5 117.8,205.3 120.6,205.3 L228.8,205.3 C231.6,205.3 233.8,207.5 233.8,210.3 C233.8,213.1 231.5,215.3 228.8,215.3 Z" id="Path" fill="#383A48"></path>
                </g>
                <g transform="translate(74.000000, 348.000000)" fill-rule="nonzero">
                    <g>
                        <circle id="Oval" fill="#F6E049" cx="174.7" cy="174.7" r="169.2"></circle>
                        <path d="M174.7,348.9 C78.6,348.9 0.5,270.8 0.5,174.7 C0.5,78.6 78.6,0.5 174.7,0.5 C270.8,0.5 348.9,78.6 348.9,174.7 C348.9,270.8 270.7,348.9 174.7,348.9 Z M174.7,10.5 C84.2,10.5 10.5,84.2 10.5,174.7 C10.5,265.2 84.2,338.9 174.7,338.9 C265.2,338.9 338.9,265.2 338.9,174.7 C338.9,84.2 265.2,10.5 174.7,10.5 Z" id="Shape" fill="#383A48"></path>
                    </g>
                    <circle id="Oval" fill="#383A48" cx="120.6" cy="150.1" r="18.1"></circle>
                    <circle id="Oval" fill="#383A48" cx="228.8" cy="150.1" r="18.1"></circle>
                    <path d="M228.8,215.5 L120.6,215.5 C117.8,215.5 115.6,213.3 115.6,210.5 C115.6,207.7 117.8,205.5 120.6,205.5 L228.8,205.5 C231.6,205.5 233.8,207.7 233.8,210.5 C233.8,213.3 231.5,215.5 228.8,215.5 Z" id="Path" fill="#383A48"></path>
                </g>
                <path d="M1409.5,81.1 C1407.5,80.4 1405.3,81 1404,82.6 C1305,200 1266.4,299.7 1235.3,379.8 C1233.2,385.1 1231.2,390.3 1229.2,395.4 C1208.6,448.1 1190.2,491.2 1157,525.8 C1134.2,549.6 1105.1,568 1068.3,582.2 C1024,599.2 971.5,594.2 910.6,588.3 C838.3,581.3 756.4,573.5 668.2,602 C598.8,624.4 534.7,671.7 472.6,717.4 C395.4,774.2 322.5,827.9 248.4,827.9 C245.6,827.9 243.4,830.1 243.4,832.9 C243.4,835.7 245.6,837.9 248.4,837.9 L1407.8,837.9 C1410.6,837.9 1412.8,835.7 1412.8,832.9 L1412.8,85.8 C1412.8,83.7 1411.5,81.8 1409.5,81.1 Z" id="Path" fill="#F3F6E6" fill-rule="nonzero"></path>
                <path d="M1340.5,496.7 L1237.4,393.6 C1236.2,392.4 1234.5,391.9 1232.8,392.2 C1231.1,392.5 1229.8,393.7 1229.2,395.3 C1208.6,448 1190.2,491.1 1157,525.7 C1155.1,527.7 1155.1,530.8 1157.1,532.7 L1230.8,606.4 C1245.5,621.1 1264.9,629.1 1285.7,629.1 C1306.5,629.1 1325.9,621 1340.6,606.4 C1355.3,591.7 1363.3,572.3 1363.3,551.5 C1363.3,530.7 1355.1,511.4 1340.5,496.7 Z" id="Path" fill="#383A48" fill-rule="nonzero"></path>
                <g transform="translate(484.000000, 339.000000)" fill="#383A48" fill-rule="nonzero" id="Oval">
                    <circle cx="399.9" cy="6.5" r="5"></circle>
                    <circle cx="399.9" cy="31.2" r="5"></circle>
                    <circle cx="399.9" cy="55.8" r="5"></circle>
                    <circle cx="399.9" cy="80.5" r="5"></circle>
                    <circle cx="399.9" cy="105.2" r="5"></circle>
                    <circle cx="399.9" cy="129.8" r="5"></circle>
                    <circle cx="399.9" cy="154.5" r="5"></circle>
                    <circle cx="399.9" cy="179.2" r="5"></circle>
                    <circle cx="399.9" cy="203.8" r="5"></circle>
                    <circle cx="375.2" cy="6.5" r="5"></circle>
                    <circle cx="375.2" cy="31.2" r="5"></circle>
                    <circle cx="375.2" cy="55.8" r="5"></circle>
                    <circle cx="375.2" cy="80.5" r="5"></circle>
                    <circle cx="375.2" cy="105.2" r="5"></circle>
                    <circle cx="375.2" cy="129.8" r="5"></circle>
                    <circle cx="375.2" cy="154.5" r="5"></circle>
                    <circle cx="375.2" cy="179.2" r="5"></circle>
                    <circle cx="375.2" cy="203.8" r="5"></circle>
                    <circle cx="375.2" cy="228.5" r="5"></circle>
                    <circle cx="350.5" cy="6.5" r="5"></circle>
                    <circle cx="350.5" cy="31.2" r="5"></circle>
                    <circle cx="350.5" cy="55.8" r="5"></circle>
                    <circle cx="350.5" cy="80.5" r="5"></circle>
                    <circle cx="350.5" cy="105.2" r="5"></circle>
                    <circle cx="350.5" cy="129.8" r="5"></circle>
                    <circle cx="350.5" cy="154.5" r="5"></circle>
                    <circle cx="350.5" cy="179.2" r="5"></circle>
                    <circle cx="350.5" cy="203.8" r="5"></circle>
                    <circle cx="350.5" cy="228.5" r="5"></circle>
                    <circle cx="325.9" cy="6.5" r="5"></circle>
                    <circle cx="325.9" cy="31.2" r="5"></circle>
                    <circle cx="325.9" cy="55.8" r="5"></circle>
                    <circle cx="325.9" cy="80.5" r="5"></circle>
                    <circle cx="325.9" cy="105.2" r="5"></circle>
                    <circle cx="325.9" cy="129.8" r="5"></circle>
                    <circle cx="325.9" cy="154.5" r="5"></circle>
                    <circle cx="325.9" cy="179.2" r="5"></circle>
                    <circle cx="325.9" cy="203.8" r="5"></circle>
                    <circle cx="325.9" cy="228.5" r="5"></circle>
                    <circle transform="translate(301.223690, 6.495080) rotate(-80.781636) translate(-301.223690, -6.495080) " cx="301.22369" cy="6.49508" r="5.00007612"></circle>
                    <circle transform="translate(301.223960, 31.195520) rotate(-80.781636) translate(-301.223960, -31.195520) " cx="301.22396" cy="31.19552" r="5.00007612"></circle>
                    <circle transform="translate(301.224320, 55.796040) rotate(-80.781636) translate(-301.224320, -55.796040) " cx="301.22432" cy="55.79604" r="5.00007612"></circle>
                    <circle transform="translate(301.224590, 80.496380) rotate(-80.781636) translate(-301.224590, -80.496380) " cx="301.22459" cy="80.49638" r="5.00007612"></circle>
                    <circle transform="translate(301.224860, 105.196820) rotate(-80.781636) translate(-301.224860, -105.196820) " cx="301.22486" cy="105.19682" r="5.00007612"></circle>
                    <circle transform="translate(301.225220, 129.797140) rotate(-80.781636) translate(-301.225220, -129.797140) " cx="301.22522" cy="129.79714" r="5.00007612"></circle>
                    <circle transform="translate(301.225490, 154.497680) rotate(-80.781636) translate(-301.225490, -154.497680) " cx="301.22549" cy="154.49768" r="5.00007612"></circle>
                    <circle transform="translate(301.225860, 179.198120) rotate(-80.781636) translate(-301.225860, -179.198120) " cx="301.22586" cy="179.19812" r="5.00007612"></circle>
                    <circle transform="translate(301.226120, 203.798440) rotate(-80.781636) translate(-301.226120, -203.798440) " cx="301.22612" cy="203.79844" r="5.00007612"></circle>
                    <circle transform="translate(301.226490, 228.498880) rotate(-80.781636) translate(-301.226490, -228.498880) " cx="301.22649" cy="228.49888" r="5.00007612"></circle>
                    <circle cx="276.5" cy="6.5" r="5"></circle>
                    <circle cx="276.5" cy="31.2" r="5"></circle>
                    <circle cx="276.5" cy="55.8" r="5"></circle>
                    <circle cx="276.5" cy="80.5" r="5"></circle>
                    <circle cx="276.5" cy="105.2" r="5"></circle>
                    <circle cx="276.5" cy="129.8" r="5"></circle>
                    <circle cx="276.5" cy="154.5" r="5"></circle>
                    <circle cx="276.5" cy="179.2" r="5"></circle>
                    <circle cx="276.5" cy="203.8" r="5"></circle>
                    <circle cx="276.5" cy="228.5" r="5"></circle>
                    <circle cx="251.9" cy="6.5" r="5"></circle>
                    <circle cx="251.9" cy="31.2" r="5"></circle>
                    <circle cx="251.9" cy="55.8" r="5"></circle>
                    <circle cx="251.9" cy="80.5" r="5"></circle>
                    <circle cx="251.9" cy="105.2" r="5"></circle>
                    <circle cx="251.9" cy="129.8" r="5"></circle>
                    <circle cx="251.9" cy="154.5" r="5"></circle>
                    <circle cx="251.9" cy="179.2" r="5"></circle>
                    <circle cx="251.9" cy="203.8" r="5"></circle>
                    <circle cx="251.9" cy="228.5" r="5"></circle>
                    <circle cx="227.2" cy="6.5" r="5"></circle>
                    <circle cx="227.2" cy="31.2" r="5"></circle>
                    <circle cx="227.2" cy="55.8" r="5"></circle>
                    <circle cx="227.2" cy="80.5" r="5"></circle>
                    <circle cx="227.2" cy="105.2" r="5"></circle>
                    <circle cx="227.2" cy="129.8" r="5"></circle>
                    <circle cx="227.2" cy="154.5" r="5"></circle>
                    <circle cx="227.2" cy="179.2" r="5"></circle>
                    <circle cx="227.2" cy="203.8" r="5"></circle>
                    <circle cx="227.2" cy="228.5" r="5"></circle>
                    <circle cx="202.5" cy="6.5" r="5"></circle>
                    <circle cx="202.5" cy="31.2" r="5"></circle>
                    <circle cx="202.5" cy="55.8" r="5"></circle>
                    <circle cx="202.5" cy="80.5" r="5"></circle>
                    <circle cx="202.5" cy="105.2" r="5"></circle>
                    <circle cx="202.5" cy="129.8" r="5"></circle>
                    <circle cx="202.5" cy="154.5" r="5"></circle>
                    <circle cx="202.5" cy="179.2" r="5"></circle>
                    <circle cx="202.5" cy="203.8" r="5"></circle>
                    <circle cx="202.5" cy="228.5" r="5"></circle>
                    <circle cx="177.9" cy="6.5" r="5"></circle>
                    <circle cx="177.9" cy="31.2" r="5"></circle>
                    <circle cx="177.9" cy="55.8" r="5"></circle>
                    <circle cx="177.9" cy="80.5" r="5"></circle>
                    <circle cx="177.9" cy="105.2" r="5"></circle>
                    <circle cx="177.9" cy="129.8" r="5"></circle>
                    <circle cx="177.9" cy="154.5" r="5"></circle>
                    <circle cx="177.9" cy="179.2" r="5"></circle>
                    <circle cx="177.9" cy="203.8" r="5"></circle>
                    <circle cx="177.9" cy="228.5" r="5"></circle>
                    <circle cx="153.2" cy="6.5" r="5"></circle>
                    <circle cx="153.2" cy="31.2" r="5"></circle>
                    <circle cx="153.2" cy="55.8" r="5"></circle>
                    <circle cx="153.2" cy="80.5" r="5"></circle>
                    <circle cx="153.2" cy="105.2" r="5"></circle>
                    <circle cx="153.2" cy="129.8" r="5"></circle>
                    <circle cx="153.2" cy="154.5" r="5"></circle>
                    <circle cx="153.2" cy="179.2" r="5"></circle>
                    <circle cx="153.2" cy="203.8" r="5"></circle>
                    <circle cx="153.2" cy="228.5" r="5"></circle>
                    <circle cx="128.5" cy="6.5" r="5"></circle>
                    <circle cx="128.5" cy="31.2" r="5"></circle>
                    <circle cx="128.5" cy="55.8" r="5"></circle>
                    <circle cx="128.5" cy="80.5" r="5"></circle>
                    <circle cx="128.5" cy="105.2" r="5"></circle>
                    <circle cx="128.5" cy="129.8" r="5"></circle>
                    <circle cx="128.5" cy="154.5" r="5"></circle>
                    <circle cx="128.5" cy="179.2" r="5"></circle>
                    <circle cx="128.5" cy="203.8" r="5"></circle>
                    <circle cx="128.5" cy="228.5" r="5"></circle>
                    <circle cx="103.9" cy="6.5" r="5"></circle>
                    <circle cx="103.9" cy="31.2" r="5"></circle>
                    <circle cx="103.9" cy="55.8" r="5"></circle>
                    <circle cx="103.9" cy="80.5" r="5"></circle>
                    <circle cx="103.9" cy="105.2" r="5"></circle>
                    <circle cx="103.9" cy="129.8" r="5"></circle>
                    <circle cx="103.9" cy="154.5" r="5"></circle>
                    <circle cx="103.9" cy="179.2" r="5"></circle>
                    <circle cx="103.9" cy="203.8" r="5"></circle>
                    <circle cx="103.9" cy="228.5" r="5"></circle>
                    <circle cx="79.2" cy="31.2" r="5"></circle>
                    <circle cx="79.2" cy="55.8" r="5"></circle>
                    <circle cx="79.2" cy="80.5" r="5"></circle>
                    <circle cx="79.2" cy="105.2" r="5"></circle>
                    <circle cx="79.2" cy="129.8" r="5"></circle>
                    <circle cx="79.2" cy="154.5" r="5"></circle>
                    <circle cx="79.2" cy="179.2" r="5"></circle>
                    <circle cx="79.2" cy="203.8" r="5"></circle>
                    <circle cx="79.2" cy="228.5" r="5"></circle>
                    <circle cx="54.5" cy="154.5" r="5"></circle>
                    <circle cx="54.5" cy="179.2" r="5"></circle>
                    <circle cx="54.5" cy="203.8" r="5"></circle>
                    <circle cx="54.5" cy="228.5" r="5"></circle>
                    <circle cx="29.9" cy="179.2" r="5"></circle>
                    <circle cx="29.9" cy="203.8" r="5"></circle>
                    <circle cx="29.9" cy="228.5" r="5"></circle>
                    <circle cx="5.2" cy="203.8" r="5"></circle>
                    <circle cx="5.2" cy="228.5" r="5"></circle>
                    <circle cx="5.2" cy="253.2" r="5"></circle>
                </g>
                <g transform="translate(476.000000, 265.000000)" fill-rule="nonzero">
                    <path d="M81.8,71.6 L81.8,157.6 L5.7,277.3 L81.8,247.3 L362.6,248.6 C399.4,248.8 429.4,219 429.4,182.2 L429.4,71.6 C429.4,34.9 399.6,5.19974906 363,5.19974906 L148.3,5.19974906 C111.6,5.1 81.8,34.9 81.8,71.6 Z" id="Path" fill="#D0D1E4"></path>
                    <path d="M5.7,282.3 C4.2,282.3 2.8,281.7 1.8,280.5 C0.4,278.8 0.3,276.5 1.4,274.6 L76.7,156.1 L76.7,71.6 C76.7,32.2 108.8,0.2 148.1,0.2 L363,0.2 C402.4,0.2 434.4,32.3 434.4,71.6 L434.4,182.2 C434.4,201.3 426.9,219.3 413.4,232.8 C399.8,246.3 381.8,253.7 362.7,253.6 L82.8,252.3 L7.6,281.9 C7,282.2 6.4,282.3 5.7,282.3 Z M148.3,10.1 C114.4,10.1 86.9,37.7 86.9,71.5 L86.9,157.5 C86.9,158.4 86.6,159.4 86.1,160.2 L18.2,267 L80,242.7 C80.6,242.5 81.2,242.4 81.9,242.4 L362.7,243.7 C379.2,243.8 394.7,237.4 406.3,225.8 C418,214.2 424.4,198.7 424.4,182.2 L424.4,71.6 C424.4,37.7 396.8,10.2 363,10.2 L148.3,10.2 L148.3,10.1 Z" id="Shape" fill="#383A48"></path>
                </g>
                <g transform="translate(484.000000, 112.000000)" fill="#383A48" fill-rule="nonzero" id="Oval">
                    <circle cx="399.9" cy="79.8" r="5"></circle>
                    <circle cx="399.9" cy="104.4" r="5"></circle>
                    <circle cx="399.9" cy="129.1" r="5"></circle>
                    <circle cx="375.2" cy="79.8" r="5"></circle>
                    <circle cx="375.2" cy="104.4" r="5"></circle>
                    <circle cx="350.5" cy="5.8" r="5"></circle>
                    <circle cx="350.5" cy="30.4" r="5"></circle>
                    <circle cx="350.5" cy="55.1" r="5"></circle>
                    <circle cx="350.5" cy="79.8" r="5"></circle>
                    <circle cx="350.5" cy="104.4" r="5"></circle>
                    <circle cx="325.9" cy="5.8" r="5"></circle>
                    <circle cx="325.9" cy="30.4" r="5"></circle>
                    <circle cx="325.9" cy="55.1" r="5"></circle>
                    <circle cx="325.9" cy="79.8" r="5"></circle>
                    <circle cx="325.9" cy="104.4" r="5"></circle>
                    <circle transform="translate(301.220820, 5.791240) rotate(-80.781636) translate(-301.220820, -5.791240) " cx="301.22082" cy="5.79124" r="5.00007612"></circle>
                    <circle transform="translate(301.221080, 30.391560) rotate(-80.781636) translate(-301.221080, -30.391560) " cx="301.22108" cy="30.39156" r="5.00007612"></circle>
                    <circle transform="translate(301.221350, 55.092000) rotate(-80.781636) translate(-301.221350, -55.092000) " cx="301.22135" cy="55.092" r="5.00007612"></circle>
                    <circle transform="translate(301.221720, 79.792340) rotate(-80.781636) translate(-301.221720, -79.792340) " cx="301.22172" cy="79.79234" r="5.00007612"></circle>
                    <circle transform="translate(301.221980, 104.392860) rotate(-80.781636) translate(-301.221980, -104.392860) " cx="301.22198" cy="104.39286" r="5.00007612"></circle>
                    <circle cx="276.5" cy="5.8" r="5"></circle>
                    <circle cx="276.5" cy="30.4" r="5"></circle>
                    <circle cx="276.5" cy="55.1" r="5"></circle>
                    <circle cx="276.5" cy="79.8" r="5"></circle>
                    <circle cx="276.5" cy="104.4" r="5"></circle>
                    <circle cx="251.9" cy="5.8" r="5"></circle>
                    <circle cx="251.9" cy="30.4" r="5"></circle>
                    <circle cx="251.9" cy="55.1" r="5"></circle>
                    <circle cx="251.9" cy="79.8" r="5"></circle>
                    <circle cx="251.9" cy="104.4" r="5"></circle>
                    <circle cx="227.2" cy="5.8" r="5"></circle>
                    <circle cx="227.2" cy="30.4" r="5"></circle>
                    <circle cx="227.2" cy="55.1" r="5"></circle>
                    <circle cx="227.2" cy="79.8" r="5"></circle>
                    <circle cx="227.2" cy="104.4" r="5"></circle>
                    <circle cx="202.5" cy="5.8" r="5"></circle>
                    <circle cx="202.5" cy="30.4" r="5"></circle>
                    <circle cx="202.5" cy="55.1" r="5"></circle>
                    <circle cx="202.5" cy="79.8" r="5"></circle>
                    <circle cx="202.5" cy="104.4" r="5"></circle>
                    <circle cx="177.9" cy="5.8" r="5"></circle>
                    <circle cx="177.9" cy="30.4" r="5"></circle>
                    <circle cx="177.9" cy="55.1" r="5"></circle>
                    <circle cx="177.9" cy="79.8" r="5"></circle>
                    <circle cx="177.9" cy="104.4" r="5"></circle>
                    <circle cx="153.2" cy="5.8" r="5"></circle>
                    <circle cx="153.2" cy="30.4" r="5"></circle>
                    <circle cx="153.2" cy="55.1" r="5"></circle>
                    <circle cx="153.2" cy="79.8" r="5"></circle>
                    <circle cx="153.2" cy="104.4" r="5"></circle>
                    <circle cx="128.5" cy="5.8" r="5"></circle>
                    <circle cx="128.5" cy="30.4" r="5"></circle>
                    <circle cx="128.5" cy="55.1" r="5"></circle>
                    <circle cx="128.5" cy="79.8" r="5"></circle>
                    <circle cx="128.5" cy="104.4" r="5"></circle>
                    <circle cx="103.9" cy="5.8" r="5"></circle>
                    <circle cx="103.9" cy="30.4" r="5"></circle>
                    <circle cx="103.9" cy="55.1" r="5"></circle>
                    <circle cx="103.9" cy="79.8" r="5"></circle>
                    <circle cx="103.9" cy="104.4" r="5"></circle>
                    <circle cx="79.2" cy="5.8" r="5"></circle>
                    <circle cx="79.2" cy="30.4" r="5"></circle>
                    <circle cx="79.2" cy="55.1" r="5"></circle>
                    <circle cx="79.2" cy="79.8" r="5"></circle>
                    <circle cx="79.2" cy="104.4" r="5"></circle>
                    <circle cx="54.5" cy="5.8" r="5"></circle>
                    <circle cx="54.5" cy="30.4" r="5"></circle>
                    <circle cx="54.5" cy="55.1" r="5"></circle>
                    <circle cx="54.5" cy="79.8" r="5"></circle>
                    <circle cx="54.5" cy="104.4" r="5"></circle>
                    <circle cx="29.9" cy="5.8" r="5"></circle>
                    <circle cx="29.9" cy="30.4" r="5"></circle>
                    <circle cx="29.9" cy="55.1" r="5"></circle>
                    <circle cx="29.9" cy="79.8" r="5"></circle>
                    <circle cx="29.9" cy="104.4" r="5"></circle>
                    <circle cx="5.2" cy="5.8" r="5"></circle>
                    <circle cx="5.2" cy="30.4" r="5"></circle>
                    <circle cx="5.2" cy="55.1" r="5"></circle>
                    <circle cx="5.2" cy="79.8" r="5"></circle>
                </g>
                <g transform="translate(478.000000, 48.000000)" fill-rule="nonzero">
                    <path d="M360,40.7 L360,86.3 L417.8,149.8 L360,133.9 L40.8,134.6 C21.3,134.7 5.4,118.9 5.4,99.4 L5.4,40.8 C5.4,21.3 21.2,5.59952792 40.6,5.59952792 L324.7,5.59952792 C344.3,5.5 360,21.3 360,40.7 Z" id="Path" fill="#EEBED3"></path>
                    <path d="M417.8,154.8 C417.4,154.8 416.9,154.7 416.5,154.6 L359.4,138.9 L40.9,139.6 C30.1,139.7 20,135.5 12.3,127.9 C4.7,120.3 0.4,110.2 0.4,99.4 L0.4,40.8 C0.4,18.6 18.4,0.6 40.6,0.6 L324.8,0.6 C347,0.6 365,18.6 365,40.8 L365,84.5 L421.4,146.5 C422.9,148.1 423.1,150.6 422,152.5 C421.1,153.9 419.5,154.8 417.8,154.8 Z M360,128.9 C360.4,128.9 360.9,129 361.3,129.1 L402.4,140.4 L356.3,89.7 C355.5,88.8 355,87.6 355,86.3 L355,40.7 C355,24 341.4,10.5 324.8,10.5 L40.6,10.5 C23.9,10.5 10.4,24.1 10.4,40.7 L10.4,99.3 C10.4,107.4 13.6,115 19.3,120.7 C25,126.4 32.6,129.6 40.8,129.5 L360,128.9 L360,128.9 Z" id="Shape" fill="#383A48"></path>
                </g>
                <g transform="translate(1171.000000, 31.000000)" fill-rule="nonzero">
                    <path d="M78.2,104.6 L31.7,104.6 C17,104.6 5.2,92.7 5.2,78.1 L5.2,31.6 C5.2,16.9 17.1,5.1 31.7,5.1 L78.2,5.1 C92.9,5.1 104.700626,17 104.700626,31.6 L104.700626,78 C104.8,92.7 92.9,104.6 78.2,104.6 Z" id="Path" fill="#D0D1E4"></path>
                    <path d="M78.2,109.6 L31.7,109.6 C14.3,109.6 0.2,95.5 0.2,78.1 L0.2,31.6 C0.2,14.2 14.3,0.1 31.7,0.1 L78.2,0.1 C95.6,0.1 109.700525,14.2 109.700525,31.6 L109.700525,78 C109.8,95.4 95.6,109.6 78.2,109.6 Z M31.8,10 C19.9,10 10.3,19.7 10.3,31.5 L10.3,78 C10.3,89.9 20,99.5 31.8,99.5 L78.3,99.5 C90.2,99.5 99.8,89.8 99.8,78 L99.8,31.5 C99.8,19.6 90.1,10 78.3,10 L31.8,10 Z" id="Shape" fill="#383A48"></path>
                </g>
                <g transform="translate(172.000000, 686.000000)" fill-rule="nonzero">
                    <path d="M309.7,0.9 L75.4,0.9 C72.6,0.9 70.4,3.1 70.4,5.9 L70.4,146.3 C70.4,149.1 72.6,151.3 75.4,151.3 L309.7,151.3 C312.5,151.3 314.7,149.1 314.7,146.3 L314.7,5.9 C314.7,3.2 312.5,0.9 309.7,0.9 Z" id="Path" fill="#383A48"></path>
                    <polygon id="Path" fill="#F6E049" points="145.6 146.4 5.2 146.4 75.4 5.9"></polygon>
                    <path d="M145.6,151.4 L5.2,151.4 C3.5,151.4 1.9,150.5 0.9,149 C-2.47024623e-15,147.5 -0.1,145.7 0.7,144.1 L71,3.7 C71.8,2 73.6,0.9 75.5,0.9 C77.4,0.9 79.1,2 80,3.7 L150.2,144.1 C151,145.7 150.9,147.5 150,149 C149,150.5 147.4,151.4 145.6,151.4 Z M13.3,141.4 L137.6,141.4 L75.5,17.2 L13.3,141.4 Z" id="Shape" fill="#383A48"></path>
                </g>
                <circle id="Oval" fill="#383A48" fill-rule="nonzero" cx="1043.2" cy="745.5" r="15.2"></circle>
                <circle id="Oval" fill="#383A48" fill-rule="nonzero" cx="1137.2" cy="745.5" r="15.2"></circle>
                <circle id="Oval" fill="#383A48" fill-rule="nonzero" cx="1231.2" cy="745.5" r="15.2"></circle>
                <g transform="translate(940.000000, 120.000000)" fill-rule="nonzero">
                    <g transform="translate(19.000000, 19.000000)">
                        <path d="M361.2,361 L361.2,361 C332.9,389.3 286.9,389.3 258.6,361 L7.4,109.8 L110,7.2 L361.2,258.4 C389.5,286.7 389.5,332.7 361.2,361 Z" id="Path" fill="#F6E049"></path>
                        <path d="M309.9,387.3 C289.2,387.3 269.7,379.2 255,364.6 L0.3,109.9 L110,0.1 L364.7,254.8 C379.4,269.5 387.4,288.9 387.4,309.7 C387.4,330.5 379.3,349.9 364.7,364.6 L361.2,361.1 L364.7,364.6 C350.1,379.2 330.6,387.3 309.9,387.3 Z M14.4,109.8 L262,357.4 C274.8,370.2 291.7,377.2 309.8,377.2 C327.9,377.2 344.8,370.2 357.6,357.4 L357.6,357.4 C370.4,344.6 377.4,327.7 377.4,309.6 C377.4,291.5 370.4,274.6 357.6,261.8 L110,14.3 L14.4,109.8 Z" id="Shape" fill="#383A48"></path>
                    </g>
                    <g>
                        <circle id="Oval" fill="#E0719E" cx="78" cy="78.2" r="72.6"></circle>
                        <path d="M78,155.8 C35.2,155.8 0.4,121 0.4,78.2 C0.4,35.4 35.2,0.6 78,0.6 C120.8,0.6 155.6,35.4 155.6,78.2 C155.5,121 120.7,155.8 78,155.8 Z M78,10.6 C40.7,10.6 10.4,40.9 10.4,78.2 C10.4,115.5 40.7,145.8 78,145.8 C115.3,145.8 145.6,115.5 145.6,78.2 C145.6,40.9 115.2,10.6 78,10.6 Z" id="Shape" fill="#383A48"></path>
                    </g>
                    <rect id="Rectangle" fill="#383A48" transform="translate(260.182320, 248.999280) rotate(-45.000000) translate(-260.182320, -248.999280) " x="255.182368" y="71.5009822" width="9.9999041" height="354.996596"></rect>
                </g>
            </g>
        </g>
    </g>
</svg>