<?xml version="1.0" encoding="UTF-8"?>
<svg width="1494px" height="829px" viewBox="0 0 1494 829" version="1.1" xmlns="http://www.w3.org/2000/svg" xmlns:xlink="http://www.w3.org/1999/xlink">
    <!-- Generator: Sketch 59.1 (86144) - https://sketch.com -->
    <title>abstract-message-sent</title>
    <desc>Created with Sketch.</desc>
    <g id="Page-1" stroke="none" stroke-width="1" fill="none" fill-rule="evenodd">
        <g id="abstract-message-sent" transform="translate(-213.000000, -180.000000)">
            <g id="Group" transform="translate(213.000000, 180.000000)">
                <path d="M1217.6,709.9 L1115.5,607.8 C1114.1,606.4 1111.9,605.9 1110.1,606.7 C1108.2,607.5 1107,609.3 1107,611.3 L1107,713.4 C1107,716.2 1109.2,718.4 1112,718.4 L1214.1,718.4 C1216.1,718.4 1217.9,717.2 1218.7,715.3 C1219.5,713.4 1219.1,711.3 1217.6,709.9 Z" id="Path" fill="#F3F6E6" fill-rule="nonzero"></path>
                <path d="M759.3,715.9 C758.4,717.5 756.7,718.5 754.9,718.5 L133.2,718.5 C60.2,718.5 0.9,659.1 0.9,586.2 L0.9,64.8 C0.9,62 3.1,59.8 5.9,59.8 C37.9,59.8 66.7,66.4 91.7,79.5 C114.1,91.3 134.1,108.7 151,131.1 C177.8,166.5 197.5,214.5 213.2,281.9 C228.9,349.3 262.1,398.3 311.9,427.7 C334.8,441.2 358.2,448.8 378.4,453.3 C394.3,456.9 408.1,458.6 418.2,459.8 C422.4,460.3 426,460.7 428.9,461.2 C470.7,467.9 508.1,477.6 541.4,490.3 C582.4,505.9 617.2,526.2 646.5,551.4 C692.3,590.9 716.9,635.5 738.5,674.8 C745.5,687.6 752.2,699.7 759.1,710.7 C760.1,712.3 760.1,714.2 759.3,715.9 Z" id="Path" fill="#F3F6E6" fill-rule="nonzero"></path>
                <path d="M541.4,490.3 L541.4,713.3 C541.4,716.1 539.2,718.3 536.4,718.3 L380.4,718.3 C377.6,718.3 375.4,716.1 375.4,713.3 L375.4,457.9 C375.4,455.8 376.6,454.1 378.4,453.3 C394.3,456.9 408.1,458.6 418.2,459.8 C422.4,460.3 426,460.7 428.9,461.2 C470.7,467.9 508.1,477.6 541.4,490.3 Z" id="Path" fill="#383A48" fill-rule="nonzero"></path>
                <g transform="translate(99.000000, 203.000000)">
                    <g>
                        <line x1="3.7" y1="4.2" x2="27" y2="27.5" id="Path"></line>
                        <rect id="Rectangle" fill="#383A48" fill-rule="nonzero" transform="translate(15.296220, 15.937260) rotate(-45.000000) translate(-15.296220, -15.937260) " x="10.296268" y="-0.562581764" width="9.9999041" height="32.9996835"></rect>
                    </g>
                    <g>
                        <line x1="3.7" y1="27.5" x2="27" y2="4.2" id="Path"></line>
                        <rect id="Rectangle" fill="#383A48" fill-rule="nonzero" transform="translate(15.305010, 15.831350) rotate(-45.000000) translate(-15.305010, -15.831350) " x="-1.19483176" y="10.831398" width="32.9996835" height="9.9999041"></rect>
                    </g>
                </g>
                <g transform="translate(455.000000, 76.000000)" fill-rule="nonzero">
                    <g transform="translate(0.000000, 289.000000)">
                        <g>
                            <rect id="Rectangle" fill="#F3F6E6" x="5.6" y="5.4" width="493.5" height="344"></rect>
                            <path d="M499.1,354.4 L5.6,354.4 C2.8,354.4 0.6,352.2 0.6,349.4 L0.6,5.4 C0.6,2.6 2.8,0.4 5.6,0.4 L499.1,0.4 C501.9,0.4 504.1,2.6 504.1,5.4 L504.1,349.4 C504.1,352.2 501.8,354.4 499.1,354.4 Z M10.6,344.4 L494.1,344.4 L494.1,10.4 L10.6,10.4 L10.6,344.4 Z" id="Shape" fill="#383A48"></path>
                        </g>
                        <path d="M252.3,182.4 C251.3,182.4 250.3,182.1 249.4,181.5 L2.7,9.5 C0.4,7.9 -0.1,4.8 1.5,2.5 C3.1,0.2 6.2,-0.3 8.5,1.3 L252.4,171.3 L496.3,1.3 C498.6,-0.3 501.7,0.3 503.3,2.5 C504.9,4.8 504.3,7.9 502.1,9.5 L255.4,181.5 C254.3,182.1 253.3,182.4 252.3,182.4 Z" id="Path" fill="#383A48"></path>
                        <g transform="translate(197.000000, 122.000000)">
                            <circle id="Oval" fill="#7FD6C2" cx="55.3" cy="55.4" r="50"></circle>
                            <path d="M55.3,110.4 C25,110.4 0.3,85.7 0.3,55.4 C0.3,25.1 25,0.4 55.3,0.4 C85.6,0.4 110.300303,25.1 110.300303,55.4 C110.4,85.7 85.7,110.4 55.3,110.4 Z M55.3,10.4 C30.5,10.4 10.3,30.6 10.3,55.4 C10.3,80.2 30.5,100.4 55.3,100.4 C80.1,100.4 100.30037,80.2 100.30037,55.4 C100.4,30.6 80.2,10.4 55.3,10.4 Z" id="Shape" fill="#383A48"></path>
                        </g>
                        <g transform="translate(228.000000, 158.000000)" id="Path">
                            <polyline fill="#7FD6C2" points="5.4 14.7 24.3 35.4 45 5.4"></polyline>
                            <path d="M24.3,40.4 C22.9,40.4 21.6,39.8 20.6,38.8 L1.7,18.1 C-0.2,16.1 -1.13631327e-13,12.9 2,11 C4,9.1 7.2,9.3 9.1,11.3 L23.8,27.3 L40.9,2.5 C42.5,0.2 45.6,-0.4 47.9,1.2 C50.2,2.8 50.7,5.9 49.2,8.2 L28.6,38.2 C27.7,39.5 26.3,40.2 24.8,40.4 C24.6,40.4 24.4,40.4 24.3,40.4 Z" fill="#F3F6E6"></path>
                        </g>
                    </g>
                    <g transform="translate(76.000000, 218.000000)">
                        <g>
                            <rect id="Rectangle" fill="#DBE6ED" x="5.4" y="5.9" width="493.5" height="344"></rect>
                            <path d="M498.9,354.9 L5.4,354.9 C2.6,354.9 0.4,352.7 0.4,349.9 L0.4,5.9 C0.4,3.1 2.6,0.9 5.4,0.9 L498.9,0.9 C501.7,0.9 503.9,3.1 503.9,5.9 L503.9,349.9 C503.9,352.7 501.6,354.9 498.9,354.9 Z M10.4,344.9 L493.9,344.9 L493.9,10.9 L10.4,10.9 L10.4,344.9 Z" id="Shape" fill="#383A48"></path>
                        </g>
                        <path d="M252.1,182.9 C251.1,182.9 250.1,182.6 249.2,182 L2.6,10 C0.3,8.4 -0.2,5.3 1.4,3 C3,0.7 6.1,0.2 8.4,1.8 L252.3,171.8 L496.2,1.8 C498.5,0.2 501.6,0.8 503.2,3 C504.8,5.3 504.2,8.4 502,10 L255,182 C254.1,182.6 253.1,182.9 252.1,182.9 Z" id="Path" fill="#383A48"></path>
                        <g transform="translate(197.000000, 123.000000)">
                            <circle id="Oval" fill="#7FD6C2" cx="55.1" cy="54.9" r="50"></circle>
                            <path d="M55.1,110 C24.8,110 0.1,85.3 0.1,55 C0.1,24.7 24.8,0 55.1,0 C85.4,0 110.100303,24.7 110.100303,55 C110.2,85.3 85.5,110 55.1,110 Z M55.1,9.9 C30.3,9.9 10.1,30.1 10.1,54.9 C10.1,79.7 30.3,99.9 55.1,99.9 C79.9,99.9 100.10037,79.7 100.10037,54.9 C100.2,30.1 80,9.9 55.1,9.9 Z" id="Shape" fill="#383A48"></path>
                        </g>
                        <g transform="translate(228.000000, 158.000000)" id="Path">
                            <polyline fill="#7FD6C2" points="5.2 15.3 24.1 35.9 44.8 5.9"></polyline>
                            <path d="M24.1,40.9 C22.7,40.9 21.4,40.3 20.4,39.3 L1.5,18.6 C-0.4,16.6 -0.2,13.4 1.8,11.5 C3.8,9.6 7,9.8 8.9,11.8 L23.6,27.8 L40.7,3 C42.3,0.7 45.4,0.2 47.7,1.7 C50,3.3 50.5,6.4 49,8.7 L28.4,38.7 C27.5,40 26.1,40.7 24.6,40.9 C24.4,40.9 24.3,40.9 24.1,40.9 Z" fill="#F3F6E6"></path>
                        </g>
                    </g>
                    <g transform="translate(158.000000, 149.000000)">
                        <g>
                            <rect id="Rectangle" fill="#C2D6F5" x="5.5" y="5.5" width="493.5" height="344"></rect>
                            <path d="M499,354.5 L5.5,354.5 C2.7,354.5 0.5,352.3 0.5,349.5 L0.5,5.5 C0.5,2.7 2.7,0.5 5.5,0.5 L499,0.5 C501.8,0.5 504,2.7 504,5.5 L504,349.5 C504,352.3 501.7,354.5 499,354.5 Z M10.5,344.5 L494,344.5 L494,10.5 L10.5,10.5 L10.5,344.5 Z" id="Shape" fill="#383A48"></path>
                        </g>
                        <path d="M252.3,182.5 C251.3,182.5 250.3,182.2 249.4,181.6 L2.7,9.6 C0.4,8 -0.1,4.9 1.5,2.6 C3.1,0.3 6.2,-0.2 8.5,1.4 L252.4,171.4 L496.3,1.4 C498.6,-0.2 501.7,0.4 503.3,2.6 C504.9,4.9 504.3,8 502.1,9.6 L255.4,181.6 C254.3,182.2 253.3,182.5 252.3,182.5 Z" id="Path" fill="#383A48"></path>
                        <g transform="translate(197.000000, 122.000000)">
                            <circle id="Oval" fill="#7FD6C2" cx="55.3" cy="55.5" r="50"></circle>
                            <path d="M55.3,110.5 C25,110.5 0.3,85.8 0.3,55.5 C0.3,25.2 25,0.5 55.3,0.5 C85.6,0.5 110.3,25.2 110.3,55.5 C110.3,85.8 85.6,110.5 55.3,110.5 Z M55.3,10.5 C30.5,10.5 10.3,30.7 10.3,55.5 C10.3,80.3 30.5,100.5 55.3,100.5 C80.1,100.5 100.3,80.3 100.3,55.5 C100.3,30.7 80.1,10.5 55.3,10.5 Z" id="Shape" fill="#383A48"></path>
                        </g>
                        <g transform="translate(228.000000, 158.000000)" id="Path">
                            <polyline fill="#7FD6C2" points="5.3 14.8 24.3 35.5 44.9 5.5"></polyline>
                            <path d="M24.3,40.5 C22.9,40.5 21.6,39.9 20.6,38.9 L1.7,18.2 C-0.2,16.2 -2.27429187e-13,13 2,11.1 C4,9.2 7.2,9.4 9.1,11.4 L23.8,27.4 L40.9,2.6 C42.5,0.3 45.6,-0.2 47.9,1.3 C50.2,2.9 50.7,6 49.2,8.3 L28.6,38.3 C27.7,39.6 26.3,40.3 24.8,40.5 C24.5,40.5 24.4,40.5 24.3,40.5 Z" fill="#F3F6E6"></path>
                        </g>
                    </g>
                    <g transform="translate(247.000000, 80.000000)">
                        <g>
                            <rect id="Rectangle" fill="#AAC6FC" x="5.3" y="5.1" width="493.5" height="344"></rect>
                            <path d="M498.8,354.1 L5.3,354.1 C2.5,354.1 0.3,351.9 0.3,349.1 L0.3,5.1 C0.3,2.3 2.5,0.1 5.3,0.1 L498.8,0.1 C501.6,0.1 503.8,2.3 503.8,5.1 L503.8,349.1 C503.8,351.8 501.5,354.1 498.8,354.1 Z M10.3,344.1 L493.8,344.1 L493.8,10.1 L10.3,10.1 L10.3,344.1 Z" id="Shape" fill="#383A48"></path>
                        </g>
                        <path d="M252.1,182.1 C251.1,182.1 250.1,181.8 249.2,181.2 L2.5,9.2 C0.2,7.6 -0.3,4.5 1.3,2.2 C2.9,-0.1 6,-0.6 8.3,1 L252.2,171 L496.1,1 C498.4,-0.6 501.5,5.68434189e-14 503.1,2.2 C504.7,4.5 504.1,7.6 501.9,9.2 L255.2,181.2 C254.1,181.8 253.1,182.1 252.1,182.1 Z" id="Path" fill="#383A48"></path>
                        <g transform="translate(197.000000, 122.000000)">
                            <circle id="Oval" fill="#7FD6C2" cx="55.1" cy="55.1" r="50"></circle>
                            <path d="M55.1,110.1 C24.8,110.1 0.1,85.4 0.1,55.1 C0.1,24.8 24.8,0.1 55.1,0.1 C85.4,0.1 110.1,24.8 110.1,55.1 C110.1,85.4 85.4,110.1 55.1,110.1 Z M55.1,10 C30.3,10 10.1,30.2 10.1,55 C10.1,79.8 30.3,100 55.1,100 C79.9,100 100.1,79.8 100.1,55 C100.1,30.2 79.9,10 55.1,10 Z" id="Shape" fill="#383A48"></path>
                        </g>
                        <g transform="translate(228.000000, 158.000000)" id="Path">
                            <polyline fill="#7FD6C2" points="5.1 14.4 24.1 35.1 44.7 5.1"></polyline>
                            <path d="M24.1,40.1 C22.7,40.1 21.4,39.5 20.4,38.5 L1.5,17.8 C-0.4,15.8 -0.2,12.6 1.8,10.7 C3.8,8.8 7,9 8.9,11 L23.6,27 L40.7,2.2 C42.3,-0.1 45.4,-0.7 47.7,0.9 C50,2.5 50.5,5.6 49,7.9 L28.4,37.9 C27.5,39.2 26.1,39.9 24.6,40.1 C24.3,40.1 24.2,40.1 24.1,40.1 Z" fill="#F3F6E6"></path>
                        </g>
                    </g>
                    <g transform="translate(341.000000, 0.000000)">
                        <g>
                            <rect id="Rectangle" fill="#F3F6E6" x="5.6" y="5.6" width="493.5" height="344"></rect>
                            <path d="M499.1,354.6 L5.6,354.6 C2.8,354.6 0.6,352.4 0.6,349.6 L0.6,5.6 C0.6,2.8 2.8,0.6 5.6,0.6 L499.1,0.6 C501.9,0.6 504.1,2.8 504.1,5.6 L504.1,349.6 C504.1,352.4 501.8,354.6 499.1,354.6 Z M10.6,344.6 L494.1,344.6 L494.1,10.6 L10.6,10.6 L10.6,344.6 L10.6,344.6 Z" id="Shape" fill="#383A48"></path>
                        </g>
                        <path d="M252.3,182.6 C251.3,182.6 250.3,182.3 249.4,181.7 L2.7,9.7 C0.4,8.1 -0.1,5 1.5,2.7 C3.1,0.4 6.2,-0.1 8.5,1.5 L252.4,171.5 L496.3,1.5 C498.6,-0.1 501.7,0.5 503.3,2.7 C504.9,5 504.3,8.1 502.1,9.7 L255.4,181.7 C254.3,182.3 253.3,182.6 252.3,182.6 Z" id="Path" fill="#383A48"></path>
                        <g transform="translate(197.000000, 122.000000)">
                            <circle id="Oval" fill="#7FD6C2" cx="55.3" cy="55.6" r="50"></circle>
                            <path d="M55.3,110.6 C25,110.6 0.3,85.9 0.3,55.6 C0.3,25.3 25,0.6 55.3,0.6 C85.6,0.6 110.300303,25.3 110.300303,55.6 C110.4,86 85.7,110.6 55.3,110.6 Z M55.3,10.6 C30.5,10.6 10.3,30.8 10.3,55.6 C10.3,80.4 30.5,100.6 55.3,100.6 C80.1,100.6 100.30037,80.4 100.30037,55.6 C100.4,30.8 80.2,10.6 55.3,10.6 Z" id="Shape" fill="#383A48"></path>
                        </g>
                        <g transform="translate(228.000000, 158.000000)" id="Path">
                            <polyline fill="#7FD6C2" points="5.4 14.9 24.3 35.6 45 5.6"></polyline>
                            <path d="M24.3,40.6 C22.9,40.6 21.6,40 20.6,39 L1.7,18.3 C-0.2,16.3 -2.27429187e-13,13.1 2,11.2 C4,9.3 7.2,9.5 9.1,11.5 L23.8,27.5 L40.9,2.7 C42.5,0.4 45.6,-0.1 47.9,1.4 C50.2,3 50.7,6.1 49.2,8.4 L28.6,38.4 C27.7,39.7 26.3,40.4 24.8,40.6 C24.6,40.6 24.5,40.6 24.3,40.6 Z" fill="#F3F6E6"></path>
                        </g>
                    </g>
                </g>
                <g transform="translate(359.000000, 0.000000)" fill-rule="nonzero">
                    <g>
                        <rect id="Rectangle" fill="#F3F6E6" x="5.1" y="5.6" width="246.7" height="172"></rect>
                        <path d="M251.9,182.6 L5.1,182.6 C2.3,182.6 0.1,180.4 0.1,177.6 L0.1,5.6 C0.1,2.8 2.3,0.6 5.1,0.6 L251.8,0.6 C254.6,0.6 256.8,2.8 256.8,5.6 L256.8,177.6 C256.9,180.4 254.6,182.6 251.9,182.6 Z M10.1,172.6 L246.8,172.6 L246.8,10.6 L10.1,10.6 L10.1,172.6 Z" id="Shape" fill="#383A48"></path>
                    </g>
                    <path d="M128.5,96.6 C127.5,96.6 126.5,96.3 125.6,95.7 L2.2,9.7 C-0.1,8.1 -0.6,5 1,2.7 C2.6,0.4 5.7,-0.1 8,1.5 L128.5,85.5 L249,1.5 C251.3,-0.1 254.4,0.5 256,2.7 C257.6,5 257,8.1 254.8,9.7 L131.4,95.7 C130.5,96.3 129.5,96.6 128.5,96.6 Z" id="Path" fill="#383A48"></path>
                </g>
                <path d="M147.8,567.4 C146.5,567.4 145.2,566.9 144.3,565.9 C142.3,563.9 142.3,560.8 144.3,558.8 C169.8,533.3 200.4,490.6 222.3,449.8 C230.9,433.7 237.8,418.8 242.8,405.6 C236.7,404.8 231.6,403.1 227.5,401.1 C218.7,396.9 211.9,390.3 207.8,382 C204,374.3 202.9,365.8 204.7,357.9 C207.8,344 219,335.4 233.8,335.3 C233.9,335.3 233.9,335.3 234,335.3 C249.7,335.3 256.4,343.5 259.3,350.4 C264.1,361.9 261.9,378.5 256.7,395.9 C271.4,394.7 288.7,388.5 307.5,377.6 C349.4,353.2 397.6,306.7 450.6,239.4 C452.3,237.2 455.5,236.9 457.6,238.6 C459.8,240.3 460.1,243.5 458.4,245.6 C404.5,314 355.4,361.3 312.3,386.3 C287.4,400.8 268,405.8 253.1,406.2 C246.7,424 237.9,441.7 231,454.6 C208.6,496.1 177.3,539.8 151.2,565.9 C150.3,567 149,567.4 147.8,567.4 Z M233.9,345.4 C233.8,345.4 233.8,345.4 233.7,345.4 C223.4,345.4 216.4,350.8 214.3,360.2 C211.9,370.9 217.1,385.3 231.7,392.2 C236,394.2 240.8,395.5 246.1,396 C252,377.4 253.5,362.9 250,354.4 C248.3,350.5 244.9,345.4 233.9,345.4 Z" id="Shape" fill="#383A48" fill-rule="nonzero"></path>
                <circle id="Oval" fill="#AAC6FC" fill-rule="nonzero" cx="1358.7" cy="583.9" r="134.5"></circle>
                <path d="M1455.8,0.6 L1261.4,0.6 L1261.4,0.6 L1261.4,0.6 L1261.4,0.6 L1261.4,0.6 L1261.4,0.6 L1261.4,0.6 C1258.7,0.6 1256.5,2.9 1256.5,5.6 C1256.5,8.4 1258.7,10.6 1261.5,10.6 C1261.7,10.6 1276.4,10.8 1294.2,21.1 C1317.9,34.7 1336.4,59.9 1347.8,93.9 C1363.2,140.1 1391.5,165.3 1412.4,178.3 C1435.2,192.4 1454.2,195.5 1455,195.7 C1455.3,195.7 1455.5,195.8 1455.8,195.8 C1457,195.8 1458.1,195.4 1459.1,194.6 C1460.2,193.7 1460.8,192.3 1460.8,190.8 L1460.8,5.6 C1460.8,2.8 1458.6,0.6 1455.8,0.6 Z" id="Path" fill="#F3F6E6" fill-rule="nonzero"></path>
                <path d="M1311.9,540.8 C1310.6,540.8 1309.3,540.3 1308.4,539.3 L1246.8,477.7 C1244.8,475.7 1244.8,472.6 1246.8,470.6 C1248.8,468.6 1251.9,468.6 1253.9,470.6 L1315.5,532.2 C1317.5,534.2 1317.5,537.3 1315.5,539.3 C1314.5,540.3 1313.2,540.8 1311.9,540.8 Z" id="Path" fill="#383A48" fill-rule="nonzero"></path>
                <g transform="translate(465.000000, 240.000000)" fill="#383A48" fill-rule="nonzero" id="Oval">
                    <circle cx="722" cy="203.3" r="5"></circle>
                    <circle cx="722" cy="227.9" r="5"></circle>
                    <circle cx="722" cy="252.6" r="5"></circle>
                    <circle cx="697.4" cy="203.3" r="5"></circle>
                    <circle cx="697.4" cy="227.9" r="5"></circle>
                    <circle cx="697.4" cy="252.6" r="5"></circle>
                    <circle cx="672.7" cy="203.3" r="5"></circle>
                    <circle cx="672.7" cy="227.9" r="5"></circle>
                    <circle cx="672.7" cy="252.6" r="5"></circle>
                    <circle cx="648" cy="203.3" r="5"></circle>
                    <circle cx="648" cy="227.9" r="5"></circle>
                    <circle cx="648" cy="252.6" r="5"></circle>
                    <circle cx="642" cy="277.3" r="5"></circle>
                    <circle cx="642" cy="301.9" r="5"></circle>
                    <circle cx="642" cy="326.6" r="5"></circle>
                    <circle cx="623.4" cy="203.3" r="5"></circle>
                    <circle cx="623.4" cy="227.9" r="5"></circle>
                    <circle cx="623.4" cy="252.6" r="5"></circle>
                    <circle cx="617.4" cy="277.3" r="5"></circle>
                    <circle cx="617.4" cy="301.9" r="5"></circle>
                    <circle cx="617.4" cy="326.6" r="5"></circle>
                    <circle cx="598.7" cy="203.3" r="5"></circle>
                    <circle cx="598.7" cy="227.9" r="5"></circle>
                    <circle cx="598.7" cy="252.6" r="5"></circle>
                    <circle cx="592.7" cy="277.3" r="5"></circle>
                    <circle cx="592.7" cy="301.9" r="5"></circle>
                    <circle cx="592.7" cy="326.6" r="5"></circle>
                    <circle cx="574" cy="203.3" r="5"></circle>
                    <circle cx="574" cy="227.9" r="5"></circle>
                    <circle cx="574" cy="252.6" r="5"></circle>
                    <circle cx="568" cy="277.3" r="5"></circle>
                    <circle cx="568" cy="301.9" r="5"></circle>
                    <circle cx="568" cy="326.6" r="5"></circle>
                    <circle cx="549.4" cy="203.3" r="5"></circle>
                    <circle cx="549.4" cy="227.9" r="5"></circle>
                    <circle cx="549.4" cy="252.6" r="5"></circle>
                    <circle cx="543.4" cy="277.3" r="5"></circle>
                    <circle cx="543.4" cy="301.9" r="5"></circle>
                    <circle cx="543.4" cy="326.6" r="5"></circle>
                    <circle cx="544.4" cy="354.3" r="5"></circle>
                    <circle cx="544.4" cy="378.9" r="5"></circle>
                    <circle cx="524.7" cy="203.3" r="5"></circle>
                    <circle cx="524.7" cy="227.9" r="5"></circle>
                    <circle cx="524.7" cy="252.6" r="5"></circle>
                    <circle cx="518.7" cy="277.3" r="5"></circle>
                    <circle cx="518.7" cy="301.9" r="5"></circle>
                    <circle cx="518.7" cy="326.6" r="5"></circle>
                    <circle cx="519.7" cy="354.3" r="5"></circle>
                    <circle cx="519.7" cy="378.9" r="5"></circle>
                    <circle cx="500" cy="203.3" r="5"></circle>
                    <circle cx="500" cy="227.9" r="5"></circle>
                    <circle cx="500" cy="252.6" r="5"></circle>
                    <circle cx="494" cy="277.3" r="5"></circle>
                    <circle cx="494" cy="301.9" r="5"></circle>
                    <circle cx="494" cy="326.6" r="5"></circle>
                    <circle cx="495" cy="354.3" r="5"></circle>
                    <circle cx="495" cy="378.9" r="5"></circle>
                    <circle cx="475.4" cy="203.3" r="5"></circle>
                    <circle cx="475.4" cy="227.9" r="5"></circle>
                    <circle cx="475.4" cy="252.6" r="5"></circle>
                    <circle cx="469.4" cy="277.3" r="5"></circle>
                    <circle cx="469.4" cy="301.9" r="5"></circle>
                    <circle cx="469.4" cy="326.6" r="5"></circle>
                    <circle cx="470.4" cy="354.3" r="5"></circle>
                    <circle cx="470.4" cy="378.9" r="5"></circle>
                    <circle cx="470.4" cy="403.6" r="5"></circle>
                    <circle cx="473.4" cy="428.3" r="5"></circle>
                    <circle cx="473.4" cy="452.9" r="5"></circle>
                    <circle cx="450.7" cy="203.3" r="5"></circle>
                    <circle cx="450.7" cy="227.9" r="5"></circle>
                    <circle cx="450.7" cy="252.6" r="5"></circle>
                    <circle cx="444.7" cy="277.3" r="5"></circle>
                    <circle cx="444.7" cy="301.9" r="5"></circle>
                    <circle cx="444.7" cy="326.6" r="5"></circle>
                    <circle cx="445.7" cy="354.3" r="5"></circle>
                    <circle cx="445.7" cy="378.9" r="5"></circle>
                    <circle cx="445.7" cy="403.6" r="5"></circle>
                    <circle cx="448.7" cy="428.3" r="5"></circle>
                    <circle cx="448.7" cy="452.9" r="5"></circle>
                    <circle cx="426" cy="203.3" r="5"></circle>
                    <circle cx="426" cy="227.9" r="5"></circle>
                    <circle cx="426" cy="252.6" r="5"></circle>
                    <circle cx="420" cy="277.3" r="5"></circle>
                    <circle cx="420" cy="301.9" r="5"></circle>
                    <circle cx="420" cy="326.6" r="5"></circle>
                    <circle cx="421" cy="354.3" r="5"></circle>
                    <circle cx="421" cy="378.9" r="5"></circle>
                    <circle cx="421" cy="403.6" r="5"></circle>
                    <circle cx="424" cy="428.3" r="5"></circle>
                    <circle cx="424" cy="452.9" r="5"></circle>
                    <circle cx="401.4" cy="203.3" r="5"></circle>
                    <circle cx="401.4" cy="227.9" r="5"></circle>
                    <circle cx="401.4" cy="252.6" r="5"></circle>
                    <circle cx="395.4" cy="277.3" r="5"></circle>
                    <circle cx="395.4" cy="301.9" r="5"></circle>
                    <circle cx="395.4" cy="326.6" r="5"></circle>
                    <circle cx="396.4" cy="354.3" r="5"></circle>
                    <circle cx="396.4" cy="378.9" r="5"></circle>
                    <circle cx="396.4" cy="403.6" r="5"></circle>
                    <circle cx="399.4" cy="428.3" r="5"></circle>
                    <circle cx="399.4" cy="452.9" r="5"></circle>
                    <circle cx="376.7" cy="203.3" r="5"></circle>
                    <circle cx="376.7" cy="227.9" r="5"></circle>
                    <circle cx="376.7" cy="252.6" r="5"></circle>
                    <circle cx="370.7" cy="277.3" r="5"></circle>
                    <circle cx="370.7" cy="301.9" r="5"></circle>
                    <circle cx="370.7" cy="326.6" r="5"></circle>
                    <circle cx="371.7" cy="354.3" r="5"></circle>
                    <circle cx="371.7" cy="378.9" r="5"></circle>
                    <circle cx="371.7" cy="403.6" r="5"></circle>
                    <circle cx="374.7" cy="428.3" r="5"></circle>
                    <circle cx="374.7" cy="452.9" r="5"></circle>
                    <circle cx="352" cy="203.3" r="5"></circle>
                    <circle cx="352" cy="227.9" r="5"></circle>
                    <circle cx="352" cy="252.6" r="5"></circle>
                    <circle cx="346" cy="277.3" r="5"></circle>
                    <circle cx="346" cy="301.9" r="5"></circle>
                    <circle cx="346" cy="326.6" r="5"></circle>
                    <circle cx="347" cy="354.3" r="5"></circle>
                    <circle cx="347" cy="378.9" r="5"></circle>
                    <circle cx="347" cy="403.6" r="5"></circle>
                    <circle cx="350" cy="428.3" r="5"></circle>
                    <circle cx="350" cy="452.9" r="5"></circle>
                    <circle cx="327.4" cy="5.9" r="5"></circle>
                    <circle cx="327.4" cy="30.6" r="5"></circle>
                    <circle cx="327.4" cy="55.3" r="5"></circle>
                    <circle cx="327.4" cy="79.9" r="5"></circle>
                    <circle cx="327.4" cy="104.6" r="5"></circle>
                    <circle cx="327.4" cy="129.3" r="5"></circle>
                    <circle cx="327.4" cy="153.9" r="5"></circle>
                    <circle cx="327.4" cy="178.6" r="5"></circle>
                    <circle cx="327.4" cy="203.3" r="5"></circle>
                    <circle cx="327.4" cy="227.9" r="5"></circle>
                    <circle cx="327.4" cy="252.6" r="5"></circle>
                    <circle cx="321.4" cy="277.3" r="5"></circle>
                    <circle cx="321.4" cy="301.9" r="5"></circle>
                    <circle cx="321.4" cy="326.6" r="5"></circle>
                    <circle cx="322.4" cy="354.3" r="5"></circle>
                    <circle cx="322.4" cy="378.9" r="5"></circle>
                    <circle cx="322.4" cy="403.6" r="5"></circle>
                    <circle cx="325.4" cy="428.3" r="5"></circle>
                    <circle cx="325.4" cy="452.9" r="5"></circle>
                    <circle cx="302.7" cy="5.9" r="5"></circle>
                    <circle cx="302.7" cy="30.6" r="5"></circle>
                    <circle cx="302.7" cy="55.3" r="5"></circle>
                    <circle cx="302.7" cy="79.9" r="5"></circle>
                    <circle cx="302.7" cy="104.6" r="5"></circle>
                    <circle cx="302.7" cy="129.3" r="5"></circle>
                    <circle cx="302.7" cy="153.9" r="5"></circle>
                    <circle cx="302.7" cy="178.6" r="5"></circle>
                    <circle cx="302.7" cy="203.3" r="5"></circle>
                    <circle cx="302.7" cy="227.9" r="5"></circle>
                    <circle cx="302.7" cy="252.6" r="5"></circle>
                    <circle cx="296.7" cy="277.3" r="5"></circle>
                    <circle cx="296.7" cy="301.9" r="5"></circle>
                    <circle cx="296.7" cy="326.6" r="5"></circle>
                    <circle cx="297.7" cy="354.3" r="5"></circle>
                    <circle cx="297.7" cy="378.9" r="5"></circle>
                    <circle cx="297.7" cy="403.6" r="5"></circle>
                    <circle cx="300.7" cy="428.3" r="5"></circle>
                    <circle cx="300.7" cy="452.9" r="5"></circle>
                    <circle cx="278" cy="5.9" r="5"></circle>
                    <circle cx="278" cy="30.6" r="5"></circle>
                    <circle cx="278" cy="55.3" r="5"></circle>
                    <circle cx="278" cy="79.9" r="5"></circle>
                    <circle cx="278" cy="104.6" r="5"></circle>
                    <circle cx="278" cy="129.3" r="5"></circle>
                    <circle cx="278" cy="153.9" r="5"></circle>
                    <circle cx="278" cy="178.6" r="5"></circle>
                    <circle cx="278" cy="203.3" r="5"></circle>
                    <circle cx="278" cy="227.9" r="5"></circle>
                    <circle cx="278" cy="252.6" r="5"></circle>
                    <circle cx="272" cy="277.3" r="5"></circle>
                    <circle cx="272" cy="301.9" r="5"></circle>
                    <circle cx="272" cy="326.6" r="5"></circle>
                    <circle cx="273" cy="354.3" r="5"></circle>
                    <circle cx="273" cy="378.9" r="5"></circle>
                    <circle cx="273" cy="403.6" r="5"></circle>
                    <circle cx="276" cy="428.3" r="5"></circle>
                    <circle cx="276" cy="452.9" r="5"></circle>
                    <circle cx="253.4" cy="5.9" r="5"></circle>
                    <circle cx="253.4" cy="30.6" r="5"></circle>
                    <circle cx="253.4" cy="55.3" r="5"></circle>
                    <circle cx="253.4" cy="79.9" r="5"></circle>
                    <circle cx="253.4" cy="104.6" r="5"></circle>
                    <circle cx="253.4" cy="129.3" r="5"></circle>
                    <circle cx="253.4" cy="153.9" r="5"></circle>
                    <circle cx="253.4" cy="178.6" r="5"></circle>
                    <circle cx="253.4" cy="203.3" r="5"></circle>
                    <circle cx="253.4" cy="227.9" r="5"></circle>
                    <circle cx="253.4" cy="252.6" r="5"></circle>
                    <circle cx="247.4" cy="277.3" r="5"></circle>
                    <circle cx="247.4" cy="301.9" r="5"></circle>
                    <circle cx="247.4" cy="326.6" r="5"></circle>
                    <circle cx="248.4" cy="354.3" r="5"></circle>
                    <circle cx="248.4" cy="378.9" r="5"></circle>
                    <circle cx="248.4" cy="403.6" r="5"></circle>
                    <circle cx="251.4" cy="428.3" r="5"></circle>
                    <circle cx="251.4" cy="452.9" r="5"></circle>
                    <circle cx="222.7" cy="129.3" r="5"></circle>
                    <circle cx="222.7" cy="153.9" r="5"></circle>
                    <circle cx="222.7" cy="178.6" r="5"></circle>
                    <circle cx="222.7" cy="203.3" r="5"></circle>
                    <circle cx="222.7" cy="227.9" r="5"></circle>
                    <circle cx="222.7" cy="252.6" r="5"></circle>
                    <circle cx="222.7" cy="277.3" r="5"></circle>
                    <circle cx="222.7" cy="301.9" r="5"></circle>
                    <circle cx="222.7" cy="326.6" r="5"></circle>
                    <circle cx="223.7" cy="354.3" r="5"></circle>
                    <circle cx="223.7" cy="378.9" r="5"></circle>
                    <circle cx="223.7" cy="403.6" r="5"></circle>
                    <circle cx="226.7" cy="428.3" r="5"></circle>
                    <circle cx="226.7" cy="452.9" r="5"></circle>
                    <circle cx="198" cy="129.3" r="5"></circle>
                    <circle cx="198" cy="153.9" r="5"></circle>
                    <circle cx="198" cy="178.6" r="5"></circle>
                    <circle cx="198" cy="203.3" r="5"></circle>
                    <circle cx="198" cy="227.9" r="5"></circle>
                    <circle cx="198" cy="252.6" r="5"></circle>
                    <circle cx="198" cy="277.3" r="5"></circle>
                    <circle cx="198" cy="301.9" r="5"></circle>
                    <circle cx="198" cy="326.6" r="5"></circle>
                    <circle cx="199" cy="354.3" r="5"></circle>
                    <circle cx="199" cy="378.9" r="5"></circle>
                    <circle cx="199" cy="403.6" r="5"></circle>
                    <circle cx="202" cy="428.3" r="5"></circle>
                    <circle cx="202" cy="452.9" r="5"></circle>
                    <circle cx="173.4" cy="129.3" r="5"></circle>
                    <circle cx="173.4" cy="153.9" r="5"></circle>
                    <circle cx="173.4" cy="178.6" r="5"></circle>
                    <circle cx="173.4" cy="203.3" r="5"></circle>
                    <circle cx="173.4" cy="227.9" r="5"></circle>
                    <circle cx="173.4" cy="252.6" r="5"></circle>
                    <circle cx="173.4" cy="277.3" r="5"></circle>
                    <circle cx="173.4" cy="301.9" r="5"></circle>
                    <circle cx="173.4" cy="326.6" r="5"></circle>
                    <circle cx="174.4" cy="354.3" r="5"></circle>
                    <circle cx="174.4" cy="378.9" r="5"></circle>
                    <circle cx="174.4" cy="403.6" r="5"></circle>
                    <circle cx="177.4" cy="428.3" r="5"></circle>
                    <circle cx="177.4" cy="452.9" r="5"></circle>
                    <circle cx="149.7" cy="206.3" r="5"></circle>
                    <circle cx="149.7" cy="230.9" r="5"></circle>
                    <circle cx="149.7" cy="255.6" r="5"></circle>
                    <circle cx="149.7" cy="280.3" r="5"></circle>
                    <circle cx="149.7" cy="304.9" r="5"></circle>
                    <circle cx="149.7" cy="329.6" r="5"></circle>
                    <circle cx="149.7" cy="354.3" r="5"></circle>
                    <circle cx="149.7" cy="378.9" r="5"></circle>
                    <circle cx="149.7" cy="403.6" r="5"></circle>
                    <circle cx="152.7" cy="428.3" r="5"></circle>
                    <circle cx="152.7" cy="452.9" r="5"></circle>
                    <circle cx="125" cy="206.3" r="5"></circle>
                    <circle cx="125" cy="230.9" r="5"></circle>
                    <circle cx="125" cy="255.6" r="5"></circle>
                    <circle cx="125" cy="280.3" r="5"></circle>
                    <circle cx="125" cy="304.9" r="5"></circle>
                    <circle cx="125" cy="329.6" r="5"></circle>
                    <circle cx="125" cy="354.3" r="5"></circle>
                    <circle cx="125" cy="378.9" r="5"></circle>
                    <circle cx="125" cy="403.6" r="5"></circle>
                    <circle cx="128" cy="428.3" r="5"></circle>
                    <circle cx="128" cy="452.9" r="5"></circle>
                    <circle cx="100.4" cy="206.3" r="5"></circle>
                    <circle cx="100.4" cy="230.9" r="5"></circle>
                    <circle cx="100.4" cy="255.6" r="5"></circle>
                    <circle cx="100.4" cy="280.3" r="5"></circle>
                    <circle cx="100.4" cy="304.9" r="5"></circle>
                    <circle cx="100.4" cy="329.6" r="5"></circle>
                    <circle cx="100.4" cy="354.3" r="5"></circle>
                    <circle cx="100.4" cy="378.9" r="5"></circle>
                    <circle cx="100.4" cy="403.6" r="5"></circle>
                    <circle cx="103.4" cy="428.3" r="5"></circle>
                    <circle cx="103.4" cy="452.9" r="5"></circle>
                    <circle cx="75.7" cy="206.3" r="5"></circle>
                    <circle cx="75.7" cy="230.9" r="5"></circle>
                    <circle cx="75.7" cy="255.6" r="5"></circle>
                    <circle cx="75.7" cy="280.3" r="5"></circle>
                    <circle cx="75.7" cy="304.9" r="5"></circle>
                    <circle cx="75.7" cy="329.6" r="5"></circle>
                    <circle cx="75.7" cy="354.3" r="5"></circle>
                    <circle cx="75.7" cy="378.9" r="5"></circle>
                    <circle cx="75.7" cy="403.6" r="5"></circle>
                    <circle cx="78.7" cy="428.3" r="5"></circle>
                    <circle cx="78.7" cy="452.9" r="5"></circle>
                    <circle cx="55" cy="280.3" r="5"></circle>
                    <circle cx="55" cy="304.9" r="5"></circle>
                    <circle cx="55" cy="329.6" r="5"></circle>
                    <circle cx="55" cy="354.3" r="5"></circle>
                    <circle cx="55" cy="378.9" r="5"></circle>
                    <circle cx="55" cy="403.6" r="5"></circle>
                    <circle cx="55" cy="428.3" r="5"></circle>
                    <circle cx="55" cy="452.9" r="5"></circle>
                    <circle cx="30.4" cy="280.3" r="5"></circle>
                    <circle cx="30.4" cy="304.9" r="5"></circle>
                    <circle cx="30.4" cy="329.6" r="5"></circle>
                    <circle cx="30.4" cy="354.3" r="5"></circle>
                    <circle cx="30.4" cy="378.9" r="5"></circle>
                    <circle cx="30.4" cy="403.6" r="5"></circle>
                    <circle cx="30.4" cy="428.3" r="5"></circle>
                    <circle cx="30.4" cy="452.9" r="5"></circle>
                    <circle cx="5.7" cy="280.3" r="5"></circle>
                    <circle cx="5.7" cy="304.9" r="5"></circle>
                    <circle cx="5.7" cy="329.6" r="5"></circle>
                    <circle cx="5.7" cy="354.3" r="5"></circle>
                    <circle cx="5.7" cy="378.9" r="5"></circle>
                    <circle cx="5.7" cy="403.6" r="5"></circle>
                    <circle cx="5.7" cy="428.3" r="5"></circle>
                    <circle cx="5.7" cy="452.9" r="5"></circle>
                </g>
                <path d="M728,19.8 C712.1,19.8 699.2,32.7 699.2,48.6 C699.2,64.5 712.1,77.4 728,77.4 C743.9,77.4 756.8,64.5 756.8,48.6 C756.8,32.7 743.9,19.8 728,19.8 Z" id="Path" fill="#383A48" fill-rule="nonzero"></path>
            </g>
            <rect id="Rectangle" x="244.4" y="1000.2" width="12" height="20"></rect>
            <text id="L" fill="#000000" font-family="Helvetica" font-size="13" font-weight="normal">
                <tspan x="244.3956" y="1008.7354">L</tspan>
            </text>
        </g>
    </g>
</svg>