<?xml version="1.0" encoding="UTF-8"?>
<svg width="1468px" height="762px" viewBox="0 0 1468 762" version="1.1" xmlns="http://www.w3.org/2000/svg" xmlns:xlink="http://www.w3.org/1999/xlink">
    <!-- Generator: Sketch 59.1 (86144) - https://sketch.com -->
    <title>abstract-9</title>
    <desc>Created with Sketch.</desc>
    <g id="Page-1" stroke="none" stroke-width="1" fill="none" fill-rule="evenodd">
        <g id="abstract-9" transform="translate(-226.000000, -159.000000)">
            <g id="Group" transform="translate(226.000000, 159.000000)">
                <path d="M413.7,3.8 C412.9,2 411.1,0.8 409.1,0.8 L5.8,0.8 C3,0.8 0.8,3 0.8,5.8 L0.8,756.2 C0.8,758.7 2.7,760.8 5.2,761.2 C5.4,761.2 5.6,761.2 5.8,761.2 C8.1,761.2 10.1,759.7 10.6,757.4 C37.5,652.5 72.1,575.2 116.3,520.9 C154.6,473.8 195.1,450.4 230.8,429.6 C254.3,416 276.5,403.1 295.8,385.1 C353.7,331.3 363.2,241.1 371.6,161.6 C378.2,99.1 384.4,40.1 412.8,9.1 C414.2,7.8 414.5,5.7 413.7,3.8 Z" id="Path" fill="#F3F6E6" fill-rule="nonzero"></path>
                <path d="M1462.6,83.6 C1460,83.4 1457.7,85.2 1457.3,87.8 C1443.5,174.6 1420.5,234.4 1384.9,276 C1352.1,314.3 1306.6,340 1237.3,359.2 C1209,367.1 1175.2,373.8 1133.7,379.9 C1025.9,395.7 965.5,470.8 901.6,550.3 C884.9,571.1 867.6,592.6 849.3,613.3 C819.3,647.2 791.7,672.8 762.6,693.8 C726.6,719.8 688.6,738.7 646.2,751.4 C643.8,752.1 642.3,754.5 642.7,756.9 C643.1,759.3 645.2,761.2 647.6,761.2 L1462.1,761.2 C1464.9,761.2 1467.10359,759 1467.10359,756.2 L1467.10359,88.6 C1467.2,86 1465.2,83.8 1462.6,83.6 Z" id="Path" fill="#F3F6E6" fill-rule="nonzero"></path>
                <path d="M778.2,761.2 L332,761.2 C329.2,761.2 327,759 327,756.2 C327,753.4 329.2,751.2 332,751.2 L778.2,751.2 C781,751.2 783.2,753.4 783.2,756.2 C783.2,759 781,761.2 778.2,761.2 Z" id="Path" fill="#383A48" fill-rule="nonzero"></path>
                <path d="M1241.6,360 C1240.4,359.1 1238.7,358.7 1237.2,359.2 C1208.9,367.1 1175.1,373.8 1133.6,379.9 C1025.8,395.7 965.4,470.8 901.5,550.3 C884.8,571.1 867.5,592.6 849.2,613.3 C847.9,614.8 847.6,616.9 848.4,618.7 C849.2,620.5 851,621.6 853,621.6 L1238.5,621.6 C1241.3,621.6 1243.5,619.4 1243.5,616.6 L1243.5,364 C1243.5,362.4 1242.8,361 1241.6,360 Z" id="Path" fill="#383A48" fill-rule="nonzero"></path>
                <g transform="translate(413.000000, 0.000000)">
                    <g fill-rule="nonzero">
                        <rect id="Rectangle" fill="#F3F6E6" x="5.3" y="5.8" width="784.5" height="558.6"></rect>
                        <path d="M789.7,569.4 L5.3,569.4 C2.5,569.4 0.3,567.2 0.3,564.4 L0.3,5.8 C0.3,3 2.5,0.8 5.3,0.8 L789.8,0.8 C792.6,0.8 794.8,3 794.8,5.8 L794.8,564.4 C794.7,567.1 792.5,569.4 789.7,569.4 Z M10.3,559.4 L784.8,559.4 L784.8,10.8 L10.3,10.8 L10.3,559.4 Z" id="Shape" fill="#383A48"></path>
                    </g>
                    <g fill-rule="nonzero">
                        <rect id="Rectangle" fill="#E0719E" x="5.3" y="5.8" width="784.5" height="131.1"></rect>
                        <path d="M789.7,141.9 L5.3,141.9 C2.5,141.9 0.3,139.7 0.3,136.9 L0.3,5.8 C0.3,3 2.5,0.8 5.3,0.8 L789.8,0.8 C792.6,0.8 794.8,3 794.8,5.8 L794.8,136.9 C794.7,139.7 792.5,141.9 789.7,141.9 Z M10.3,131.9 L784.8,131.9 L784.8,10.8 L10.3,10.8 L10.3,131.9 Z" id="Shape" fill="#383A48"></path>
                    </g>
                    <g transform="translate(323.000000, 271.000000)" fill-rule="nonzero" id="Path">
                        <path d="M0.2,84.5 L0.2,218.3 L49.2,168.3 L314.1,168.3 C360.4,168.3 397.9,130.8 397.9,84.5 L397.9,84.5 C397.9,38.2 360.4,0.7 314.1,0.7 L84,0.7 C37.7,0.7 0.2,38.2 0.2,84.5 Z" fill="#AAC6FC"></path>
                        <path d="M318.9,66.2 L74.5,66.2 C71.7,66.2 69.5,64 69.5,61.2 C69.5,58.4 71.7,56.2 74.5,56.2 L318.9,56.2 C321.7,56.2 323.9,58.4 323.9,61.2 C323.9,64 321.7,66.2 318.9,66.2 Z" fill="#383A48"></path>
                        <path d="M199,115.5 L74.5,115.5 C71.7,115.5 69.5,113.3 69.5,110.5 C69.5,107.7 71.7,105.5 74.5,105.5 L199,105.5 C201.8,105.5 204,107.7 204,110.5 C204,113.3 201.8,115.5 199,115.5 Z" fill="#383A48"></path>
                    </g>
                    <g transform="translate(55.000000, 53.000000)">
                        <g transform="translate(97.000000, 2.000000)">
                            <g transform="translate(0.000000, 1.000000)">
                                <line x1="4.1" y1="3.7" x2="27.4" y2="27" id="Path"></line>
                                <rect id="Rectangle" fill="#383A48" fill-rule="nonzero" transform="translate(15.765920, 15.376460) rotate(-45.000000) translate(-15.765920, -15.376460) " x="10.765968" y="-1.12338176" width="9.9999041" height="32.9996835"></rect>
                            </g>
                            <g>
                                <line x1="4.1" y1="28" x2="27.4" y2="4.7" id="Path"></line>
                                <rect id="Rectangle" fill="#383A48" fill-rule="nonzero" transform="translate(15.812620, 16.192260) rotate(-45.004051) translate(-15.812620, -16.192260) " x="-0.688388532" y="11.1919544" width="33.0020171" height="10.0006112"></rect>
                            </g>
                        </g>
                        <path d="M81.3,36.1 L45.8,36.1 L45.8,0.6 L81.3,0.6 L81.3,36.1 Z M55.8,26.1 L71.3,26.1 L71.3,10.6 L55.8,10.6 L55.8,26.1 Z" id="Shape" fill="#383A48" fill-rule="nonzero"></path>
                        <rect id="Rectangle" fill="#383A48" fill-rule="nonzero" x="0.2" y="26.1" width="25.5" height="10"></rect>
                    </g>
                </g>
                <g transform="translate(1356.000000, 42.000000)">
                    <rect id="Rectangle" fill="#383A48" fill-rule="nonzero" x="11.6" y="0.1" width="10" height="33"></rect>
                    <g transform="translate(0.000000, 11.000000)">
                        <line x1="0.1" y1="5.6" x2="33" y2="5.6" id="Path"></line>
                        <rect id="Rectangle" fill="#383A48" fill-rule="nonzero" x="0.1" y="0.6" width="33" height="10"></rect>
                    </g>
                </g>
                <g transform="translate(159.000000, 627.000000)">
                    <rect id="Rectangle" fill="#383A48" fill-rule="nonzero" x="11.4" y="0.5" width="10" height="33"></rect>
                    <g transform="translate(0.000000, 12.000000)">
                        <line x1="0" y1="5" x2="32.9" y2="5" id="Path"></line>
                        <rect id="Rectangle" fill="#383A48" fill-rule="nonzero" x="0" y="0" width="33" height="10"></rect>
                    </g>
                </g>
                <g transform="translate(24.000000, 15.000000)" fill-rule="nonzero">
                    <g transform="translate(239.000000, 128.000000)">
                        <path d="M47.9,93.4 L15.5,93.4 C9.8,93.4 5.1,88.8 5.1,83 L5.1,16 C5.1,10.3 9.7,5.6 15.5,5.6 L47.9,5.6 C53.6,5.6 58.3,10.2 58.3,16 L58.3,83.1 C58.2,88.8 53.6,93.4 47.9,93.4 Z" id="Path" fill="#E0719E"></path>
                        <path d="M47.9,98.4 L15.5,98.4 C7,98.4 0.1,91.5 0.1,83 L0.1,16 C0.1,7.5 7,0.6 15.5,0.6 L47.9,0.6 C56.4,0.6 63.3,7.5 63.3,16 L63.3,83.1 C63.2,91.5 56.4,98.4 47.9,98.4 Z M15.5,10.6 C12.5,10.6 10.1,13 10.1,16 L10.1,83.1 C10.1,86.1 12.5,88.5 15.5,88.5 L47.9,88.5 C50.9,88.5 53.3,86.1 53.3,83.1 L53.3,16 C53.3,13 50.9,10.6 47.9,10.6 L15.5,10.6 Z" id="Shape" fill="#383A48"></path>
                    </g>
                    <g transform="translate(0.000000, 128.000000)">
                        <path d="M16,93.4 L48.4,93.4 C54.1,93.4 58.8,88.8 58.8,83 L58.8,16 C58.8,10.3 54.2,5.6 48.4,5.6 L16,5.6 C10.3,5.6 5.6,10.2 5.6,16 L5.6,83.1 C5.6,88.8 10.3,93.4 16,93.4 Z" id="Path" fill="#E0719E"></path>
                        <path d="M48.4,98.4 L16,98.4 C7.5,98.4 0.6,91.5 0.6,83 L0.6,16 C0.6,7.5 7.5,0.6 16,0.6 L48.4,0.6 C56.9,0.6 63.8,7.5 63.8,16 L63.8,83.1 C63.8,91.5 56.9,98.4 48.4,98.4 Z M16,10.6 C13,10.6 10.6,13 10.6,16 L10.6,83.1 C10.6,86.1 13,88.5 16,88.5 L48.4,88.5 C51.4,88.5 53.8,86.1 53.8,83.1 L53.8,16 C53.8,13 51.4,10.6 48.4,10.6 L16,10.6 Z" id="Shape" fill="#383A48"></path>
                    </g>
                    <g transform="translate(27.000000, 53.000000)">
                        <path d="M201.1,243.8 L47.8,243.8 C24.3,243.8 5.2,224.7 5.2,201.2 L5.2,47.9 C5.2,24.4 24.3,5.3 47.8,5.3 L201,5.3 C224.5,5.3 243.600391,24.4 243.600391,47.9 L243.600391,201.1 C243.7,224.7 224.6,243.8 201.1,243.8 Z" id="Path" fill="#7FD6C2"></path>
                        <path d="M201.1,248.8 L47.8,248.8 C21.5,248.8 0.2,227.4 0.2,201.2 L0.2,47.9 C0.2,21.6 21.6,0.3 47.8,0.3 L201,0.3 C227.3,0.3 248.600349,21.7 248.600349,47.9 L248.600349,201.1 C248.7,227.4 227.3,248.8 201.1,248.8 Z M47.8,10.3 C27.1,10.3 10.2,27.2 10.2,47.9 L10.2,201.1 C10.2,221.8 27.1,238.7 47.8,238.7 L201,238.7 C221.7,238.7 238.6,221.8 238.6,201.1 L238.6,47.9 C238.6,27.2 221.7,10.3 201,10.3 L47.8,10.3 L47.8,10.3 Z" id="Shape" fill="#383A48"></path>
                    </g>
                    <g transform="translate(57.000000, 118.000000)">
                        <circle id="Oval" fill="#F3F6E6" cx="32.2" cy="32.9" r="27.2"></circle>
                        <path d="M32.2,65.1 C14.5,65.1 0,50.7 0,32.9 C0,15.1 14.4,0.7 32.2,0.7 C49.9,0.7 64.4,15.1 64.4,32.9 C64.4,50.7 49.9,65.1 32.2,65.1 Z M32.2,10.7 C20,10.7 10,20.6 10,32.9 C10,45.2 19.9,55.1 32.2,55.1 C44.5,55.1 54.4,45.2 54.4,32.9 C54.4,20.6 44.4,10.7 32.2,10.7 Z" id="Shape" fill="#383A48"></path>
                    </g>
                    <g transform="translate(181.000000, 118.000000)">
                        <circle id="Oval" fill="#F3F6E6" cx="32.7" cy="32.9" r="27.2"></circle>
                        <path d="M32.7,65.1 C15,65.1 0.5,50.7 0.5,32.9 C0.5,15.1 14.9,0.7 32.7,0.7 C50.4,0.7 64.9,15.1 64.9,32.9 C64.9,50.7 50.4,65.1 32.7,65.1 Z M32.7,10.7 C20.5,10.7 10.5,20.6 10.5,32.9 C10.5,45.2 20.4,55.1 32.7,55.1 C45,55.1 54.9,45.2 54.9,32.9 C54.9,20.6 44.9,10.7 32.7,10.7 Z" id="Shape" fill="#383A48"></path>
                    </g>
                    <g transform="translate(124.000000, 150.000000)">
                        <polygon id="Path" fill="#E0719E" points="27.4 5.6 5.5 51.1 49.3 51.1"></polygon>
                        <path d="M49.3,56.1 L5.5,56.1 C3.8,56.1 2.2,55.2 1.3,53.8 C0.4,52.3 0.3,50.5 1,49 L22.9,3.5 C23.7,1.8 25.5,0.7 27.4,0.7 C29.3,0.7 31.1,1.8 31.9,3.5 L53.8,49 C54.5,50.5 54.4,52.4 53.5,53.8 C52.7,55.2 51.1,56.1 49.3,56.1 Z M13.5,46.1 L41.4,46.1 L27.4,17.2 L13.5,46.1 Z" id="Shape" fill="#383A48"></path>
                    </g>
                    <g transform="translate(115.000000, 0.000000)">
                        <path d="M67,58.3 L5.8,58.3 L5.8,36.5 C5.8,19.6 19.5,5.9 36.4,5.9 L36.4,5.9 C53.3,5.9 67,19.6 67,36.5 L67,58.3 L67,58.3 Z" id="Path" fill="#E0719E"></path>
                        <path d="M67,63.3 L5.8,63.3 C3,63.3 0.8,61.1 0.8,58.3 L0.8,36.5 C0.8,16.9 16.8,0.9 36.4,0.9 C56,0.9 72,16.9 72,36.5 L72,58.3 C72,61 69.8,63.3 67,63.3 Z M10.9,53.3 L62,53.3 L62,36.5 C62,22.4 50.5,10.9 36.4,10.9 C22.3,10.9 10.8,22.4 10.8,36.5 L10.8,53.3 L10.9,53.3 Z" id="Shape" fill="#383A48"></path>
                    </g>
                    <g transform="translate(88.000000, 217.000000)">
                        <path d="M104.6,38.9 L22.2,38.9 C12.9,38.9 5.3,31.4 5.3,22 L5.3,22 C5.3,12.7 12.8,5.1 22.2,5.1 L104.6,5.1 C113.9,5.1 121.5,12.6 121.5,22 L121.5,22 C121.5,31.4 113.9,38.9 104.6,38.9 Z" id="Path" fill="#F3F6E6"></path>
                        <path d="M104.6,43.9 L22.2,43.9 C10.2,43.9 0.3,34.1 0.3,22 C0.3,10 10.1,0.2 22.2,0.2 L104.6,0.2 C116.6,0.2 126.5,10 126.5,22 C126.5,34.1 116.7,43.9 104.6,43.9 Z M22.3,10.2 C15.8,10.2 10.4,15.5 10.4,22 C10.4,28.5 15.7,33.9 22.3,33.9 L104.7,33.9 C111.2,33.9 116.6,28.6 116.6,22 C116.6,15.4 111.3,10.2 104.7,10.2 L22.3,10.2 Z" id="Shape" fill="#383A48"></path>
                    </g>
                    <path d="M151.4,260.9 C148.6,260.9 146.4,258.7 146.4,255.9 L146.4,222.2 C146.4,219.4 148.6,217.2 151.4,217.2 C154.2,217.2 156.4,219.4 156.4,222.2 L156.4,255.9 C156.4,258.7 154.2,260.9 151.4,260.9 Z" id="Path" fill="#383A48"></path>
                    <path d="M123.6,260.9 C120.8,260.9 118.6,258.7 118.6,255.9 L118.6,222.2 C118.6,219.4 120.8,217.2 123.6,217.2 C126.4,217.2 128.6,219.4 128.6,222.2 L128.6,255.9 C128.6,258.7 126.4,260.9 123.6,260.9 Z" id="Path" fill="#383A48"></path>
                    <path d="M179.2,260.9 C176.4,260.9 174.2,258.7 174.2,255.9 L174.2,222.2 C174.2,219.4 176.4,217.2 179.2,217.2 C182,217.2 184.2,219.4 184.2,222.2 L184.2,255.9 C184.2,258.7 182,260.9 179.2,260.9 Z" id="Path" fill="#383A48"></path>
                </g>
                <g transform="translate(296.000000, 249.000000)" fill="#383A48" fill-rule="nonzero" id="Oval">
                    <circle cx="424.3" cy="400.2" r="5"></circle>
                    <circle cx="424.3" cy="424.9" r="5"></circle>
                    <circle cx="424.3" cy="449.6" r="5"></circle>
                    <circle cx="424.3" cy="474.2" r="5"></circle>
                    <circle cx="424.3" cy="498.9" r="5"></circle>
                    <circle cx="399.7" cy="227.6" r="5"></circle>
                    <circle cx="399.7" cy="252.2" r="5"></circle>
                    <circle cx="399.7" cy="276.9" r="5"></circle>
                    <circle cx="399.7" cy="301.6" r="5"></circle>
                    <circle cx="399.7" cy="326.2" r="5"></circle>
                    <circle cx="399.7" cy="350.9" r="5"></circle>
                    <circle cx="399.7" cy="375.6" r="5"></circle>
                    <circle cx="399.7" cy="400.2" r="5"></circle>
                    <circle cx="399.7" cy="424.9" r="5"></circle>
                    <circle cx="399.7" cy="449.6" r="5"></circle>
                    <circle cx="399.7" cy="474.2" r="5"></circle>
                    <circle cx="399.7" cy="498.9" r="5"></circle>
                    <circle cx="375" cy="104.2" r="5"></circle>
                    <circle cx="375" cy="128.9" r="5"></circle>
                    <circle cx="375" cy="153.6" r="5"></circle>
                    <circle cx="375" cy="178.2" r="5"></circle>
                    <circle cx="375" cy="202.9" r="5"></circle>
                    <circle cx="375" cy="227.6" r="5"></circle>
                    <circle cx="375" cy="252.2" r="5"></circle>
                    <circle cx="375" cy="276.9" r="5"></circle>
                    <circle cx="375" cy="301.6" r="5"></circle>
                    <circle cx="375" cy="326.2" r="5"></circle>
                    <circle cx="375" cy="350.9" r="5"></circle>
                    <circle cx="375" cy="375.6" r="5"></circle>
                    <circle cx="375" cy="400.2" r="5"></circle>
                    <circle cx="375" cy="424.9" r="5"></circle>
                    <circle cx="375" cy="449.6" r="5"></circle>
                    <circle cx="375" cy="474.2" r="5"></circle>
                    <circle cx="375" cy="498.9" r="5"></circle>
                    <circle cx="350.3" cy="5.6" r="5"></circle>
                    <circle cx="350.3" cy="30.2" r="5"></circle>
                    <circle cx="350.3" cy="54.9" r="5"></circle>
                    <circle cx="350.3" cy="79.6" r="5"></circle>
                    <circle cx="350.3" cy="104.2" r="5"></circle>
                    <circle cx="350.3" cy="128.9" r="5"></circle>
                    <circle cx="350.3" cy="153.6" r="5"></circle>
                    <circle cx="350.3" cy="178.2" r="5"></circle>
                    <circle cx="350.3" cy="202.9" r="5"></circle>
                    <circle cx="350.3" cy="227.6" r="5"></circle>
                    <circle cx="350.3" cy="252.2" r="5"></circle>
                    <circle cx="350.3" cy="276.9" r="5"></circle>
                    <circle cx="350.3" cy="301.6" r="5"></circle>
                    <circle cx="350.3" cy="326.2" r="5"></circle>
                    <circle cx="350.3" cy="350.9" r="5"></circle>
                    <circle cx="350.3" cy="375.6" r="5"></circle>
                    <circle cx="350.3" cy="400.2" r="5"></circle>
                    <circle cx="350.3" cy="424.9" r="5"></circle>
                    <circle cx="350.3" cy="449.6" r="5"></circle>
                    <circle cx="350.3" cy="474.2" r="5"></circle>
                    <circle cx="350.3" cy="498.9" r="5"></circle>
                    <circle cx="325.7" cy="5.6" r="5"></circle>
                    <circle cx="325.7" cy="30.2" r="5"></circle>
                    <circle cx="325.7" cy="54.9" r="5"></circle>
                    <circle cx="325.7" cy="79.6" r="5"></circle>
                    <circle cx="325.7" cy="104.2" r="5"></circle>
                    <circle cx="325.7" cy="128.9" r="5"></circle>
                    <circle cx="325.7" cy="153.6" r="5"></circle>
                    <circle cx="325.7" cy="178.2" r="5"></circle>
                    <circle cx="325.7" cy="202.9" r="5"></circle>
                    <circle cx="325.7" cy="227.6" r="5"></circle>
                    <circle cx="325.7" cy="252.2" r="5"></circle>
                    <circle cx="325.7" cy="276.9" r="5"></circle>
                    <circle cx="325.7" cy="301.6" r="5"></circle>
                    <circle cx="325.7" cy="326.2" r="5"></circle>
                    <circle cx="325.7" cy="350.9" r="5"></circle>
                    <circle cx="325.7" cy="375.6" r="5"></circle>
                    <circle cx="325.7" cy="400.2" r="5"></circle>
                    <circle cx="325.7" cy="424.9" r="5"></circle>
                    <circle cx="325.7" cy="449.6" r="5"></circle>
                    <circle cx="325.7" cy="474.2" r="5"></circle>
                    <circle cx="325.7" cy="498.9" r="5"></circle>
                    <circle cx="301" cy="5.6" r="5"></circle>
                    <circle cx="301" cy="30.2" r="5"></circle>
                    <circle cx="301" cy="54.9" r="5"></circle>
                    <circle cx="301" cy="79.6" r="5"></circle>
                    <circle cx="301" cy="104.2" r="5"></circle>
                    <circle cx="301" cy="128.9" r="5"></circle>
                    <circle cx="301" cy="326.2" r="5"></circle>
                    <circle cx="301" cy="350.9" r="5"></circle>
                    <circle cx="301" cy="375.6" r="5"></circle>
                    <circle cx="301" cy="400.2" r="5"></circle>
                    <circle cx="301" cy="424.9" r="5"></circle>
                    <circle cx="301" cy="449.6" r="5"></circle>
                    <circle cx="301" cy="474.2" r="5"></circle>
                    <circle cx="301" cy="498.9" r="5"></circle>
                    <circle cx="276.3" cy="5.6" r="5"></circle>
                    <circle cx="276.3" cy="30.2" r="5"></circle>
                    <circle cx="276.3" cy="54.9" r="5"></circle>
                    <circle cx="276.3" cy="79.6" r="5"></circle>
                    <circle cx="276.3" cy="104.2" r="5"></circle>
                    <circle cx="276.3" cy="128.9" r="5"></circle>
                    <circle cx="276.3" cy="153.6" r="5"></circle>
                    <circle cx="276.3" cy="326.2" r="5"></circle>
                    <circle cx="276.3" cy="350.9" r="5"></circle>
                    <circle cx="276.3" cy="375.6" r="5"></circle>
                    <circle cx="276.3" cy="400.2" r="5"></circle>
                    <circle cx="251.7" cy="5.6" r="5"></circle>
                    <circle cx="251.7" cy="30.2" r="5"></circle>
                    <circle cx="251.7" cy="54.9" r="5"></circle>
                    <circle cx="251.7" cy="79.6" r="5"></circle>
                    <circle cx="251.7" cy="104.2" r="5"></circle>
                    <circle cx="251.7" cy="128.9" r="5"></circle>
                    <circle cx="251.7" cy="153.6" r="5"></circle>
                    <circle cx="251.7" cy="178.2" r="5"></circle>
                    <circle cx="251.7" cy="202.9" r="5"></circle>
                    <circle cx="251.7" cy="326.2" r="5"></circle>
                    <circle cx="251.7" cy="350.9" r="5"></circle>
                    <circle cx="251.7" cy="375.6" r="5"></circle>
                    <circle cx="251.7" cy="400.2" r="5"></circle>
                    <circle cx="227" cy="30.2" r="5"></circle>
                    <circle cx="227" cy="54.9" r="5"></circle>
                    <circle cx="227" cy="79.6" r="5"></circle>
                    <circle cx="227" cy="104.2" r="5"></circle>
                    <circle cx="227" cy="128.9" r="5"></circle>
                    <circle cx="227" cy="153.6" r="5"></circle>
                    <circle cx="227" cy="178.2" r="5"></circle>
                    <circle cx="227" cy="202.9" r="5"></circle>
                    <circle cx="227" cy="227.6" r="5"></circle>
                    <circle cx="227" cy="252.2" r="5"></circle>
                    <circle cx="227" cy="326.2" r="5"></circle>
                    <circle cx="227" cy="350.9" r="5"></circle>
                    <circle cx="227" cy="375.6" r="5"></circle>
                    <circle cx="227" cy="400.2" r="5"></circle>
                    <circle cx="202.3" cy="79.6" r="5"></circle>
                    <circle cx="202.3" cy="104.2" r="5"></circle>
                    <circle cx="202.3" cy="128.9" r="5"></circle>
                    <circle cx="202.3" cy="153.6" r="5"></circle>
                    <circle cx="202.3" cy="178.2" r="5"></circle>
                    <circle cx="202.3" cy="202.9" r="5"></circle>
                    <circle cx="202.3" cy="227.6" r="5"></circle>
                    <circle cx="202.3" cy="252.2" r="5"></circle>
                    <circle cx="202.3" cy="276.9" r="5"></circle>
                    <circle cx="202.3" cy="301.6" r="5"></circle>
                    <circle cx="202.3" cy="326.2" r="5"></circle>
                    <circle cx="202.3" cy="350.9" r="5"></circle>
                    <circle cx="202.3" cy="375.6" r="5"></circle>
                    <circle cx="202.3" cy="400.2" r="5"></circle>
                    <circle cx="177.7" cy="153.6" r="5"></circle>
                    <circle cx="177.7" cy="178.2" r="5"></circle>
                    <circle cx="177.7" cy="202.9" r="5"></circle>
                    <circle cx="177.7" cy="227.6" r="5"></circle>
                    <circle cx="177.7" cy="252.2" r="5"></circle>
                    <circle cx="177.7" cy="276.9" r="5"></circle>
                    <circle cx="177.7" cy="301.6" r="5"></circle>
                    <circle cx="177.7" cy="326.2" r="5"></circle>
                    <circle cx="177.7" cy="350.9" r="5"></circle>
                    <circle cx="177.7" cy="375.6" r="5"></circle>
                    <circle cx="177.7" cy="400.2" r="5"></circle>
                    <circle cx="153" cy="202.9" r="5"></circle>
                    <circle cx="153" cy="227.6" r="5"></circle>
                    <circle cx="153" cy="252.2" r="5"></circle>
                    <circle cx="153" cy="276.9" r="5"></circle>
                    <circle cx="153" cy="301.6" r="5"></circle>
                    <circle cx="153" cy="326.2" r="5"></circle>
                    <circle cx="153" cy="350.9" r="5"></circle>
                    <circle cx="153" cy="375.6" r="5"></circle>
                    <circle cx="153" cy="400.2" r="5"></circle>
                    <circle cx="153" cy="424.9" r="5"></circle>
                    <circle cx="128.3" cy="252.2" r="5"></circle>
                    <circle cx="128.3" cy="276.9" r="5"></circle>
                    <circle cx="128.3" cy="301.6" r="5"></circle>
                    <circle cx="128.3" cy="326.2" r="5"></circle>
                    <circle cx="128.3" cy="350.9" r="5"></circle>
                    <circle cx="128.3" cy="375.6" r="5"></circle>
                    <circle cx="128.3" cy="400.2" r="5"></circle>
                    <circle cx="128.3" cy="424.9" r="5"></circle>
                    <circle cx="128.3" cy="449.6" r="5"></circle>
                    <circle cx="128.3" cy="474.2" r="5"></circle>
                    <circle cx="103.7" cy="301.6" r="5"></circle>
                    <circle cx="103.7" cy="326.2" r="5"></circle>
                    <circle cx="103.7" cy="350.9" r="5"></circle>
                    <circle cx="103.7" cy="375.6" r="5"></circle>
                    <circle cx="103.7" cy="400.2" r="5"></circle>
                    <circle cx="103.7" cy="424.9" r="5"></circle>
                    <circle cx="103.7" cy="449.6" r="5"></circle>
                    <circle cx="103.7" cy="474.2" r="5"></circle>
                    <circle cx="103.7" cy="498.9" r="5"></circle>
                    <circle cx="79" cy="326.2" r="5"></circle>
                    <circle cx="79" cy="350.9" r="5"></circle>
                    <circle cx="79" cy="375.6" r="5"></circle>
                    <circle cx="79" cy="400.2" r="5"></circle>
                    <circle cx="79" cy="424.9" r="5"></circle>
                    <circle cx="79" cy="449.6" r="5"></circle>
                    <circle cx="79" cy="474.2" r="5"></circle>
                    <circle cx="79" cy="498.9" r="5"></circle>
                    <circle cx="54.3" cy="375.6" r="5"></circle>
                    <circle cx="54.3" cy="400.2" r="5"></circle>
                    <circle cx="54.3" cy="424.9" r="5"></circle>
                    <circle cx="54.3" cy="449.6" r="5"></circle>
                    <circle cx="54.3" cy="474.2" r="5"></circle>
                    <circle cx="54.3" cy="498.9" r="5"></circle>
                    <circle cx="29.7" cy="424.9" r="5"></circle>
                    <circle cx="29.7" cy="449.6" r="5"></circle>
                    <circle cx="29.7" cy="474.2" r="5"></circle>
                    <circle cx="29.7" cy="498.9" r="5"></circle>
                    <circle cx="5" cy="474.2" r="5"></circle>
                    <circle cx="5" cy="498.9" r="5"></circle>
                    <circle cx="301" cy="128.9" r="5"></circle>
                    <circle cx="301" cy="326.2" r="5"></circle>
                    <circle cx="276.3" cy="128.9" r="5"></circle>
                    <circle cx="276.3" cy="326.2" r="5"></circle>
                    <circle cx="251.7" cy="128.9" r="5"></circle>
                    <circle cx="251.7" cy="153.6" r="5"></circle>
                    <circle cx="251.7" cy="178.2" r="5"></circle>
                    <circle cx="251.7" cy="202.9" r="5"></circle>
                    <circle cx="251.7" cy="326.2" r="5"></circle>
                    <circle cx="227" cy="128.9" r="5"></circle>
                    <circle cx="227" cy="153.6" r="5"></circle>
                    <circle cx="227" cy="178.2" r="5"></circle>
                    <circle cx="227" cy="202.9" r="5"></circle>
                    <circle cx="227" cy="227.6" r="5"></circle>
                    <circle cx="227" cy="252.2" r="5"></circle>
                    <circle cx="227" cy="326.2" r="5"></circle>
                    <circle cx="202.3" cy="128.9" r="5"></circle>
                    <circle cx="202.3" cy="153.6" r="5"></circle>
                    <circle cx="202.3" cy="178.2" r="5"></circle>
                    <circle cx="202.3" cy="202.9" r="5"></circle>
                    <circle cx="202.3" cy="227.6" r="5"></circle>
                    <circle cx="202.3" cy="252.2" r="5"></circle>
                    <circle cx="202.3" cy="276.9" r="5"></circle>
                    <circle cx="202.3" cy="301.6" r="5"></circle>
                    <circle cx="202.3" cy="326.2" r="5"></circle>
                </g>
                <g transform="translate(219.000000, 255.000000)" fill-rule="nonzero" id="Shape">
                    <path d="M304.5,501.2 L298.2,398.3 L162.2,398.3 L113,501.2 L5.2,501.2 L251.4,5 L382.2,5 L427.9,501.2 L304.5,501.2 Z M198.8,309.8 L299.6,309.8 L292.3,116.3 L286.7,116.3 L198.8,309.8 Z" fill="#F6E049"></path>
                    <path d="M427.9,506.2 L304.5,506.2 C301.9,506.2 299.7,504.1 299.5,501.5 L293.5,403.3 L165.3,403.3 L117.5,503.3 C116.7,505 114.9,506.1 113,506.1 L5.2,506.1 C3.5,506.1 1.9,505.2 1,503.7 C0.1,502.2 1.16573418e-14,500.4 0.8,498.8 L247,2.8 C247.8,1.1 249.6,-5.68434189e-14 251.5,-5.68434189e-14 L382.3,-5.68434189e-14 C384.9,-5.68434189e-14 387,2 387.3,4.5 L433,500.7 C433.1,502.1 432.7,503.5 431.7,504.5 C430.7,505.6 429.3,506.2 427.9,506.2 Z M309.2,496.2 L422.5,496.2 L377.7,10 L254.5,10 L13.3,496.2 L109.8,496.2 L157.6,396.2 C158.4,394.5 160.2,393.4 162.1,393.4 L298.1,393.4 C300.7,393.4 302.9,395.5 303.1,398.1 L309.2,496.2 Z M299.6,314.8 L198.8,314.8 C197.1,314.8 195.5,313.9 194.6,312.5 C193.7,311.1 193.5,309.3 194.3,307.7 L282.2,114.2 C283,112.4 284.8,111.3 286.8,111.3 L292.4,111.3 C295.1,111.3 297.3,113.4 297.4,116.1 L304.7,309.6 C304.8,311 304.2,312.3 303.3,313.3 C302.2,314.2 300.9,314.8 299.6,314.8 Z M206.6,304.8 L294.4,304.8 L287.6,126.2 L206.6,304.8 Z" fill="#383A48"></path>
                </g>
                <g transform="translate(1099.000000, 0.000000)" fill-rule="nonzero">
                    <g>
                        <path d="M124.9,8.1 C74.5,-3.1 24.6,28.7 13.5,79.1 C9.1,99.1 11.4,119.1 19,136.6 L19,136.6 L5.1,199.2 L59.5,181.1 L59.5,181.1 C67.1,185.3 75.5,188.5 84.5,190.5 C134.9,201.7 184.8,169.9 195.9,119.5 C207,69.2 175.2,19.3 124.9,8.1 Z" id="Path" fill="#F6E049"></path>
                        <path d="M5.1,204.1 C3.9,204.1 2.7,203.7 1.7,202.8 C0.4,201.6 -0.2,199.8 0.2,198 L13.7,137 C5.9,118.2 4.1,97.9 8.5,77.9 C14.2,52.2 29.5,30.3 51.7,16.2 C73.9,2.1 100.2,-2.6 125.9,3.1 L125.9,3.1 C151.6,8.8 173.5,24.1 187.6,46.3 C201.7,68.5 206.4,94.8 200.7,120.5 C190.5,166.3 149.7,197.6 104.6,197.6 C97.6,197.6 90.4,196.8 83.3,195.3 C74.8,193.4 66.6,190.4 59,186.4 L6.7,203.8 C6.1,204 5.6,204.1 5.1,204.1 Z M23.8,137.9 L11.9,191.6 L57.9,176.3 C59.2,175.9 60.7,176 61.9,176.7 C69.3,180.8 77.2,183.8 85.5,185.6 C133.1,196.2 180.4,166 191,118.4 C196.1,95.3 191.9,71.7 179.3,51.8 C166.7,31.9 146.9,18.1 123.9,13 L123.9,13 C100.8,7.9 77.2,12.1 57.3,24.7 C37.4,37.4 23.6,57.1 18.5,80.1 C14.4,98.5 16.2,117.3 23.7,134.5 C24,135.6 24.1,136.8 23.8,137.9 Z" id="Shape" fill="#383A48"></path>
                    </g>
                    <g transform="translate(69.000000, 73.000000)" id="Path">
                        <polyline fill="#F6E049" points="5.2 19 34.2 53.2 70.5 5.2"></polyline>
                        <path d="M34.2,58.2 C32.7,58.2 31.3,57.6 30.4,56.4 L1.5,22.2 C-0.3,20.1 -5.55111512e-17,16.9 2.1,15.2 C4.2,13.4 7.4,13.7 9.1,15.8 L34,45.2 L66.6,2.2 C68.3,2.77555756e-17 71.4,-0.4 73.6,1.2 C75.8,2.9 76.2,6 74.6,8.2 L38.2,56.2 C37.3,57.4 35.9,58.1 34.2,58.2 C34.2,58.2 34.2,58.2 34.2,58.2 Z" fill="#383A48"></path>
                    </g>
                </g>
                <g transform="translate(121.000000, 376.000000)" id="Path">
                    <line x1="5.4" y1="5.5" x2="161.2" y2="161.4"></line>
                    <path d="M161.2,166.4 C159.9,166.4 158.6,165.9 157.7,164.9 L1.9,9.1 C-0.1,7.1 -0.1,4 1.9,2 C3.9,0 7,0 9,2 L164.8,157.8 C166.8,159.8 166.8,162.9 164.8,164.9 C163.8,165.9 162.5,166.4 161.2,166.4 Z" fill="#383A48" fill-rule="nonzero"></path>
                </g>
                <path d="M1416.5,518.4 L1399.9,507.1 L1409.9,489.7 C1410.9,487.9 1410.8,485.7 1409.5,484.1 C1408.2,482.5 1406.1,481.8 1404.1,482.4 L1384.9,488.3 L1377.5,469.6 C1376.7,467.7 1374.9,466.4 1372.8,466.4 C1370.7,466.4 1368.9,467.7 1368.1,469.6 L1360.7,488.3 L1341.5,482.4 C1339.5,481.8 1337.4,482.5 1336.1,484.1 C1334.8,485.7 1334.7,487.9 1335.7,489.7 L1345.7,507.1 L1329.1,518.4 C1327.5,519.5 1326.6,521.6 1327.1,523.6 C1327.5,525.6 1329.2,527.1 1331.2,527.4 L1351,530.4 L1349.5,550.4 C1349.3,552.5 1350.5,554.4 1352.3,555.3 C1354.2,556.2 1356.4,555.9 1357.9,554.5 L1372.6,540.9 L1387.3,554.5 C1388.2,555.3 1389.5,555.8 1390.7,555.8 C1391.4,555.8 1392.2,555.6 1393.3,555.3 C1395.1,554.4 1396.2,552.4 1396.1,550.4 L1394.6,530.4 L1414.4,527.4 C1416.4,527.1 1418,525.6 1418.5,523.6 C1419,521.6 1418.2,519.6 1416.5,518.4 Z" id="Path" fill="#383A48" fill-rule="nonzero"></path>
            </g>
        </g>
    </g>
</svg>