<?xml version="1.0" encoding="utf-8"?>
<!-- Generator: Adobe Illustrator 22.0.1, SVG Export Plug-In . SVG Version: 6.00 Build 0)  -->
<svg version="1.1" id="Layer_1" xmlns="http://www.w3.org/2000/svg" xmlns:xlink="http://www.w3.org/1999/xlink" x="0px" y="0px" viewBox="0 0 1920 1080" style="enable-background:new 0 0 1920 1080;" xml:space="preserve">

<rect y="0" width="1920" height="1080" style="fill:#EEBED3;"/>
<g>
	<path d="M1258.1,195.3h-116.6h-116.6H908.3H791.7H675.2H558.6H442H325.4c-2.8,0-5,2.2-5,5v116.6v116.6V550v116.6v116.6
		v116.6c0,2.8,2.2,5,5,5H442h116.6h116.6h116.6h116.6H1025h116.6h116.6c2.8,0,5-2.2,5-5V783.2V666.6V550V433.4V316.8V200.3
		C1263.1,197.5,1260.8,195.3,1258.1,195.3z M1253.1,428.4h-106.6V321.8h106.6V428.4z M1253.1,545h-106.6V438.4h106.6V545z
		 M1253.1,661.6h-106.6V555h106.6V661.6z M330.4,555H437v106.6H330.4V555z M330.4,438.4H437V545H330.4V438.4z M1136.5,545h-106.6
		V438.4h106.6V545z M1019.9,545H913.3V438.4h106.6L1019.9,545L1019.9,545z M903.3,545H796.7V438.4h106.6V545z M786.7,545H680.2
		V438.4h106.6L786.7,545L786.7,545z M670.2,545H563.6V438.4h106.6L670.2,545L670.2,545z M553.6,545H447V438.4h106.6V545z M447,555
		h106.6v106.6H447V555z M563.6,555h106.6v106.6H563.6V555z M680.2,555h106.6v106.6H680.2V555z M796.7,555h106.6v106.6H796.7V555z
		 M913.3,555h106.6v106.6H913.3V555z M1029.9,555h106.6v106.6h-106.6V555z M1136.5,428.4h-106.6V321.8h106.6V428.4z M1019.9,428.4
		H913.3V321.8h106.6L1019.9,428.4L1019.9,428.4z M903.3,428.4H796.7V321.8h106.6V428.4z M786.7,428.4H680.2V321.8h106.6L786.7,428.4
		L786.7,428.4z M670.2,428.4H563.6V321.8h106.6L670.2,428.4L670.2,428.4z M553.6,428.4H447V321.8h106.6V428.4z M437,428.4H330.4
		V321.8H437V428.4z M330.4,671.6H437v106.6H330.4V671.6z M447,671.6h106.6v106.6H447V671.6z M563.6,671.6h106.6v106.6H563.6V671.6z
		 M680.2,671.6h106.6v106.6H680.2V671.6z M796.7,671.6h106.6v106.6H796.7V671.6z M913.3,671.6h106.6v106.6H913.3V671.6z
		 M1029.9,671.6h106.6v106.6h-106.6V671.6z M1146.5,671.6h106.6v106.6h-106.6V671.6z M1253.1,311.8h-106.6V205.3h106.6V311.8z
		 M1136.5,311.8h-106.6V205.3h106.6V311.8z M1019.9,311.8H913.3V205.3h106.6L1019.9,311.8L1019.9,311.8z M903.3,311.8H796.7V205.3
		h106.6V311.8z M786.7,311.8H680.2V205.3h106.6L786.7,311.8L786.7,311.8z M670.2,311.8H563.6V205.3h106.6L670.2,311.8L670.2,311.8z
		 M553.6,311.8H447V205.3h106.6V311.8z M330.4,205.3H437v106.6H330.4V205.3z M330.4,788.2H437v106.6H330.4V788.2z M447,788.2h106.6
		v106.6H447V788.2z M563.6,788.2h106.6v106.6H563.6V788.2z M680.2,788.2h106.6v106.6H680.2V788.2z M796.7,788.2h106.6v106.6H796.7
		V788.2z M913.3,788.2h106.6v106.6H913.3V788.2z M1029.9,788.2h106.6v106.6h-106.6V788.2z M1253.1,894.7h-106.6V788.2h106.6V894.7z" style="fill:#E290B5;"/>
	<path d="M1608.4,191.2c-2.7-0.2-5,1.8-5.3,4.4c-20.6,177.2-55.7,235-170.9,281.3c-38.1,15.3-56.4,54.1-77.7,99.1
		c-15.9,33.8-34,72.1-63.6,105c-33.8,37.7-77.5,62.6-133.7,76.2c-84.9,20.5-150.2,52.5-207.8,80.8c-54.7,26.8-101.9,50-152.7,57.2
		c-2.6,0.4-4.5,2.7-4.3,5.3s2.4,4.6,5,4.6h810.7c2.8,0,5-2.2,5-5V196.2C1613.1,193.6,1611,191.4,1608.4,191.2z" style="fill:#F3F6E6;"/>
	<g>
		<g>
			<g>
				<g>
					<g>
						<circle cx="1595.5" cy="332.2" r="4.4" style="fill:#383A48;"/>
					</g>
				</g>
				<g>
					<g>
						<circle cx="1595.5" cy="370.5" r="4.4" style="fill:#383A48;"/>
					</g>
				</g>
				<g>
					<g>
						<circle cx="1595.5" cy="408.8" r="4.4" style="fill:#383A48;"/>
					</g>
				</g>
				<g>
					<g>
						<circle cx="1595.5" cy="447.2" r="4.4" style="fill:#383A48;"/>
					</g>
				</g>
				<g>
					<g>
						<circle cx="1595.5" cy="485.5" r="4.4" style="fill:#383A48;"/>
					</g>
				</g>
				<g>
					<g>
						<circle cx="1595.5" cy="523.8" r="4.4" style="fill:#383A48;"/>
					</g>
				</g>
				<g>
					<g>
						<circle cx="1595.5" cy="562.1" r="4.4" style="fill:#383A48;"/>
					</g>
				</g>
				<g>
					<g>
						<circle cx="1595.5" cy="600.4" r="4.4" style="fill:#383A48;"/>
					</g>
				</g>
				<g>
					<g>
						<circle cx="1595.5" cy="638.8" r="4.4" style="fill:#383A48;"/>
					</g>
				</g>
				<g>
					<g>
						<circle cx="1595.5" cy="677.1" r="4.4" style="fill:#383A48;"/>
					</g>
				</g>
				<g>
					<g>
						<circle cx="1595.5" cy="715.4" r="4.4" style="fill:#383A48;"/>
					</g>
				</g>
				<g>
					<g>
						<circle cx="1557.2" cy="408.8" r="4.4" style="fill:#383A48;"/>
					</g>
				</g>
				<g>
					<g>
						<circle cx="1557.2" cy="447.2" r="4.4" style="fill:#383A48;"/>
					</g>
				</g>
				<g>
					<g>
						<circle cx="1557.2" cy="485.5" r="4.4" style="fill:#383A48;"/>
					</g>
				</g>
				<g>
					<g>
						<circle cx="1557.2" cy="523.8" r="4.4" style="fill:#383A48;"/>
					</g>
				</g>
				<g>
					<g>
						<circle cx="1557.2" cy="562.1" r="4.4" style="fill:#383A48;"/>
					</g>
				</g>
				<g>
					<g>
						<circle cx="1557.2" cy="600.4" r="4.4" style="fill:#383A48;"/>
					</g>
				</g>
				<g>
					<g>
						<circle cx="1557.2" cy="638.8" r="4.4" style="fill:#383A48;"/>
					</g>
				</g>
				<g>
					<g>
						<circle cx="1557.2" cy="677.1" r="4.4" style="fill:#383A48;"/>
					</g>
				</g>
				<g>
					<g>
						<circle cx="1557.2" cy="715.4" r="4.4" style="fill:#383A48;"/>
					</g>
				</g>
				<g>
					<g>
						<circle cx="1518.8" cy="447.2" r="4.4" style="fill:#383A48;"/>
					</g>
				</g>
				<g>
					<g>
						<circle cx="1518.8" cy="485.5" r="4.4" style="fill:#383A48;"/>
					</g>
				</g>
				<g>
					<g>
						<circle cx="1518.8" cy="523.8" r="4.4" style="fill:#383A48;"/>
					</g>
				</g>
				<g>
					<g>
						<circle cx="1518.8" cy="562.1" r="4.4" style="fill:#383A48;"/>
					</g>
				</g>
				<g>
					<g>
						<circle cx="1518.8" cy="600.4" r="4.4" style="fill:#383A48;"/>
					</g>
				</g>
				<g>
					<g>
						<circle cx="1518.8" cy="638.8" r="4.4" style="fill:#383A48;"/>
					</g>
				</g>
				<g>
					<g>
						<circle cx="1518.8" cy="677.1" r="4.4" style="fill:#383A48;"/>
					</g>
				</g>
				<g>
					<g>
						<circle cx="1518.8" cy="715.4" r="4.4" style="fill:#383A48;"/>
					</g>
				</g>
				<g>
					<g>
						<circle cx="1480.5" cy="485.5" r="4.4" style="fill:#383A48;"/>
					</g>
				</g>
				<g>
					<g>
						<circle cx="1480.5" cy="523.8" r="4.4" style="fill:#383A48;"/>
					</g>
				</g>
				<g>
					<g>
						<circle cx="1480.5" cy="562.1" r="4.4" style="fill:#383A48;"/>
					</g>
				</g>
				<g>
					<g>
						<circle cx="1480.5" cy="600.4" r="4.4" style="fill:#383A48;"/>
					</g>
				</g>
				<g>
					<g>
						<circle cx="1480.5" cy="638.8" r="4.4" style="fill:#383A48;"/>
					</g>
				</g>
				<g>
					<g>
						<circle cx="1480.5" cy="677.1" r="4.4" style="fill:#383A48;"/>
					</g>
				</g>
				<g>
					<g>
						<circle cx="1480.5" cy="715.4" r="4.4" style="fill:#383A48;"/>
					</g>
				</g>
				<g>
					<g>
						<circle cx="1442.2" cy="485.5" r="4.4" style="fill:#383A48;"/>
					</g>
				</g>
				<g>
					<g>
						<circle cx="1442.2" cy="523.8" r="4.4" style="fill:#383A48;"/>
					</g>
				</g>
				<g>
					<g>
						<circle cx="1442.2" cy="562.1" r="4.4" style="fill:#383A48;"/>
					</g>
				</g>
				<g>
					<g>
						<circle cx="1442.2" cy="600.4" r="4.4" style="fill:#383A48;"/>
					</g>
				</g>
				<g>
					<g>
						<circle cx="1442.2" cy="638.8" r="4.4" style="fill:#383A48;"/>
					</g>
				</g>
				<g>
					<g>
						<circle cx="1442.2" cy="677.1" r="4.4" style="fill:#383A48;"/>
					</g>
				</g>
				<g>
					<g>
						<circle cx="1442.2" cy="715.4" r="4.4" style="fill:#383A48;"/>
					</g>
				</g>
				<g>
					<g>
						<circle cx="1403.9" cy="523.8" r="4.4" style="fill:#383A48;"/>
					</g>
				</g>
				<g>
					<g>
						<circle cx="1403.9" cy="562.1" r="4.4" style="fill:#383A48;"/>
					</g>
				</g>
				<g>
					<g>
						<circle cx="1403.9" cy="600.4" r="4.4" style="fill:#383A48;"/>
					</g>
				</g>
				<g>
					<g>
						<circle cx="1403.9" cy="638.8" r="4.4" style="fill:#383A48;"/>
					</g>
				</g>
				<g>
					<g>
						<circle cx="1403.9" cy="677.1" r="4.4" style="fill:#383A48;"/>
					</g>
				</g>
				<g>
					<g>
						<circle cx="1403.9" cy="715.4" r="4.4" style="fill:#383A48;"/>
					</g>
				</g>
				<g>
					<g>
						<circle cx="1365.6" cy="600.4" r="4.4" style="fill:#383A48;"/>
					</g>
				</g>
				<g>
					<g>
						<circle cx="1365.6" cy="638.8" r="4.4" style="fill:#383A48;"/>
					</g>
				</g>
				<g>
					<g>
						<circle cx="1365.6" cy="677.1" r="4.4" style="fill:#383A48;"/>
					</g>
				</g>
				<g>
					<g>
						<circle cx="1365.6" cy="715.4" r="4.4" style="fill:#383A48;"/>
					</g>
				</g>
				<g>
					<g>
						<circle cx="1327.2" cy="677.1" r="4.4" style="fill:#383A48;"/>
					</g>
				</g>
				<g>
					<g>
						<circle cx="1327.2" cy="715.4" r="4.4" style="fill:#383A48;"/>
					</g>
				</g>
				<g>
					<g>
						<circle cx="1288.9" cy="715.4" r="4.4" style="fill:#383A48;"/>
					</g>
				</g>
			</g>
		</g>
	</g>
	<path d="M875.3,194.9H325.1c-2.8,0-5,2.2-5,5v529c0,2.2,1.4,4.1,3.5,4.8c0.5,0.2,1,0.2,1.5,0.2c1.6,0,3.2-0.8,4.1-2.1
		c38.9-56,62.2-101.8,80.8-138.7c19.2-37.8,34.3-67.7,57.9-92.8c25.1-26.7,59-46.9,109.7-65.5c40.3-14.7,73.3-35.3,100.9-62.9
		c24.1-24.1,40.5-49.6,56.3-74.3c33.3-51.8,59.6-92.8,140.4-92.8c2.8,0,5-2.2,5-5C880.3,197.1,878.1,194.9,875.3,194.9z" style="fill:#F3F6E6;"/>
	<path d="M793.7,778.5c-1.9-0.8-4-0.3-5.4,1.1L671.6,896.2c-1.4,1.4-1.9,3.6-1.1,5.4c0.8,1.9,2.6,3.1,4.6,3.1h116.6
		c2.8,0,5-2.2,5-5V783.2C796.7,781.1,795.5,779.3,793.7,778.5z" style="fill:#AAC6FC;"/>
	<g>
		<g>
			<g>
				<path d="M445.7,784.8h142c10.9,0,21.5-3.3,30.4-9.6l234-164.4c24.2-17,30.2-50.6,13.4-74.9
					c-16.8-24.5-50-30.5-74.1-13.6L570.9,677.1H445.7c-29.4,0-53.3,24.1-53.3,53.9C392.4,760.7,416.2,784.8,445.7,784.8z" style="fill:#F3F6E6;"/>
				<path d="M587.6,789.8h-142c-32.1,0-58.3-26.4-58.3-59c0-32.6,26.1-59,58.3-59h123.7L788.4,518
					c12.8-9,28.3-12.3,43.6-9.6c15.3,2.8,28.6,11.4,37.5,24.4c8.9,12.9,12.2,28.6,9.5,44.1c-2.7,15.5-11.3,28.9-24.1,37.9
					L620.8,779.3C611,786.2,599.5,789.8,587.6,789.8z M445.7,682.1c-26.6,0-48.3,21.9-48.3,48.8s21.7,48.8,48.3,48.8h142
					c9.9,0,19.4-3,27.5-8.7l234.1-164.4c10.6-7.5,17.7-18.6,20-31.4s-0.5-25.8-7.9-36.5s-18.4-17.9-31.1-20.2
					c-12.7-2.3-25.5,0.5-36.1,8L573.8,681.2c-0.8,0.6-1.8,0.9-2.9,0.9L445.7,682.1L445.7,682.1z" style="fill:#383A48;"/>
			</g>
		</g>
		<g>
			<g>
				<path id="SVGID_7_" d="M947.4,533.7c-16.8-24.5-50-30.5-74.1-13.6L652.9,674.9H445.7c-29.4,0-53.3,24.1-53.3,53.9
					c0,29.7,23.8,53.9,53.3,53.9h101.5c4.6-5.8,10-10.6,16.2-14.8c8.8-8.2,19.2-13.8,31.1-16.6c13.8-2.2,27.6-4.7,41.6-4.1
					c6.4,0.2,12.8,0.8,19.3,0.8c20.1,0.2,38.3,6.9,54,18.3L934,608.7C958.2,591.7,964.2,558.1,947.4,533.7z" style="fill:#F3F6E6;"/>
			</g>
			<g>
				<path id="SVGID_8_" d="M547.2,787.7H445.7c-32.1,0-58.3-26.4-58.3-59c0-32.6,26.1-59,58.3-59h205.6l219.1-153.9
					c12.8-9,28.3-12.3,43.6-9.6c15.3,2.8,28.6,11.4,37.5,24.4l0,0c8.9,12.9,12.2,28.6,9.5,44.1c-2.8,15.5-11.3,28.9-24.1,37.9
					L712.3,770.5c-1.7,1.2-4,1.2-5.8,0c-15.6-11.3-32.8-17.2-51.1-17.3c-4.1,0-8.1-0.3-12-0.5c-2.4-0.1-4.9-0.3-7.4-0.4
					c-12.8-0.5-25.4,1.6-38.7,3.7l-1.8,0.3c-10.9,2.6-20.6,7.8-28.7,15.4c-0.2,0.2-0.4,0.4-0.7,0.5c-5.8,3.7-10.8,8.4-15,13.7
					C550.1,787.1,548.7,787.7,547.2,787.7z M445.7,680c-26.6,0-48.3,21.9-48.3,48.8c0,26.9,21.6,48.7,48.3,48.7h99.2
					c4.5-5.3,9.7-9.8,15.5-13.7c9.4-8.6,20.5-14.5,33-17.5c0.1,0,0.2-0.1,0.4-0.1l2-0.3c13.2-2.1,26.8-4.4,40.7-3.9
					c2.5,0.1,5.1,0.2,7.6,0.4c3.8,0.2,7.7,0.4,11.6,0.5c19.2,0.2,37.4,6,53.9,17.2l221.7-155.7c10.6-7.5,17.7-18.6,20-31.4
					s-0.5-25.8-7.9-36.5l0,0c-7.4-10.7-18.4-17.9-31.1-20.2c-12.7-2.3-25.5,0.5-36.1,8L655.7,679.1c-0.8,0.6-1.8,0.9-2.9,0.9H445.7z
					" style="fill:#383A48;"/>
			</g>
			<g>
				<defs>
					<path id="SVGID_1_" d="M947.4,533.7c-16.8-24.5-50-30.5-74.1-13.6L652.9,674.9H445.7c-29.4,0-53.3,24.1-53.3,53.9
						c0,29.7,23.8,53.9,53.3,53.9h101.5c4.6-5.8,10-10.6,16.2-14.8c8.8-8.2,19.2-13.8,31.1-16.6c13.8-2.2,27.6-4.7,41.6-4.1
						c6.4,0.2,12.8,0.8,19.3,0.8c20.1,0.2,38.3,6.9,54,18.3L934,608.7C958.2,591.7,964.2,558.1,947.4,533.7z"/>
				</defs>
				<clipPath id="SVGID_2_">
					<use xlink:href="#SVGID_1_" style="overflow:visible;"/>
				</clipPath>
			</g>
		</g>
		<g>
			<g>
				<path id="SVGID_11_" d="M1044.8,532c-16.8-24.5-50-30.5-74.1-13.6L750.2,673.2H464c-29.4,0-53.3,24.1-53.3,53.9
					c0,29.7,23.8,53.9,53.3,53.9h71.6c1.2-3.7,2.7-7.3,4.5-10.8c3.7-11.4,10-21.4,18.9-29.8c8.3-9,18.1-15.4,29.5-19.1
					c10.9-5.8,22.7-8.5,35.3-8c31.6,0.1,63.3,2.6,94.7-1.6c16.5,0.1,31.9,4.2,46.2,12.6l18.5,14.5c8.7,8.1,15,18.1,19.3,29
					l228.9-160.7C1055.6,590,1061.5,556.4,1044.8,532z" style="fill:#F3F6E6;"/>
			</g>
			<g>
				<path id="SVGID_12_" d="M535.5,786.1H464c-32.1,0-58.3-26.4-58.3-59c0-32.5,26.1-59,58.3-59h284.7l219.1-153.9
					c26.4-18.5,62.8-11.9,81.1,14.8l0,0c8.9,12.9,12.2,28.6,9.5,44.1c-2.8,15.5-11.3,28.9-24.1,37.9l-229,160.9
					c-1.3,0.9-2.8,1.1-4.3,0.7s-2.6-1.5-3.2-2.9c-4.3-10.8-10.3-19.9-17.9-27l-18.1-14.2c-13.3-7.7-27.8-11.7-43.1-11.8
					c-23.3,3.1-46.9,2.5-69.7,2c-8.3-0.2-16.9-0.4-25.3-0.4c-0.1,0-0.1,0-0.2,0c-11.7-0.4-22.7,2-32.8,7.4c-0.2,0.1-0.5,0.2-0.8,0.3
					c-10.5,3.4-19.7,9.4-27.3,17.8c-0.1,0.1-0.2,0.2-0.3,0.3c-8.3,7.8-14.2,17.1-17.6,27.6c-0.1,0.3-0.2,0.5-0.3,0.8
					c-1.7,3.2-3.1,6.7-4.2,10.1C539.6,784.7,537.7,786.1,535.5,786.1z M464,678.3c-26.6,0-48.3,21.9-48.3,48.8S437.4,776,464,776h68
					c1-2.6,2.2-5.3,3.4-7.8c3.9-12,10.7-22.6,20-31.3c8.7-9.4,19.2-16.3,31-20.2c11.5-6.1,24.1-8.8,37.3-8.4
					c8.5,0,17.1,0.2,25.4,0.4c22.6,0.5,45.9,1,68.5-2c0.2,0,0.5,0,0.7,0c17.3,0.1,33.7,4.6,48.7,13.3c0.2,0.1,0.4,0.2,0.5,0.4
					l18.5,14.5c0.1,0.1,0.2,0.2,0.3,0.3c7.4,6.9,13.4,15.3,18.1,25.1l223.9-157.2c10.6-7.5,17.7-18.6,20-31.4
					c2.3-12.8-0.5-25.8-7.9-36.5l0,0c-15.2-22.1-45.3-27.6-67.2-12.2L753.1,677.5c-0.8,0.6-1.8,0.9-2.9,0.9H464V678.3z" style="fill:#383A48;"/>
			</g>
			<g>
				<defs>
					<path id="SVGID_3_" d="M1044.8,532c-16.8-24.5-50-30.5-74.1-13.6L750.2,673.2H464c-29.4,0-53.3,24.1-53.3,53.9
						c0,29.7,23.8,53.9,53.3,53.9h71.6c1.2-3.7,2.7-7.3,4.5-10.8c3.7-11.4,10-21.4,18.9-29.8c8.3-9,18.1-15.4,29.5-19.1
						c10.9-5.8,22.7-8.5,35.3-8c31.6,0.1,63.3,2.6,94.7-1.6c16.5,0.1,31.9,4.2,46.2,12.6l18.5,14.5c8.7,8.1,15,18.1,19.3,29
						l228.9-160.7C1055.6,590,1061.5,556.4,1044.8,532z"/>
				</defs>
				<clipPath id="SVGID_4_">
					<use xlink:href="#SVGID_3_" style="overflow:visible;"/>
				</clipPath>
			</g>
		</g>
		<g>
			<path d="M325.1,726.9l158.7-153.1l0,0c10.3-10.1,24.3-16.3,39.8-16.3h296c31.6,0,57.2,25.9,57.2,57.8l0,0
				c0,32-25.6,57.8-57.2,57.8h43.3l220.4-154.8c24.2-17,57.4-10.9,74.1,13.6c16.8,24.5,10.8,58-13.4,74.9L909.9,771.4
				c-8.9,6.3-19.5,9.6-30.4,9.6H611.9L495.2,899L325.1,726.9z" style="fill:#F3F6E6;"/>
			<path d="M495.2,904.1c-1.3,0-2.6-0.5-3.5-1.5L321.5,730.5c-1-1-1.5-2.2-1.5-3.6c0-1.3,0.6-2.6,1.5-3.6l158.7-153.1
				c0.1-0.1,0.1-0.1,0.2-0.2c11.6-11.3,26.9-17.5,43.1-17.5h296c34.3,0,62.2,28.2,62.2,62.9c0,22.1-11.3,41.6-28.4,52.8h8
				l219.1-153.9c26.4-18.5,62.8-11.9,81.1,14.8c8.9,12.9,12.2,28.6,9.5,44.1s-11.3,28.9-24.1,37.9L912.8,775.6
				c-9.8,6.9-21.3,10.5-33.2,10.5H614L498.8,902.6C497.8,903.6,496.5,904.1,495.2,904.1z M332.2,727l163,164.8l113.2-114.5
				c0.9-0.9,2.2-1.5,3.5-1.5h267.6c9.9,0,19.4-3,27.5-8.7l234.1-164.4c10.6-7.5,17.7-18.6,20-31.4c2.3-12.8-0.5-25.8-7.9-36.5
				c-15.2-22.1-45.3-27.6-67.2-12.2L865.7,677.5c-0.8,0.6-1.8,0.9-2.9,0.9h-43.3c-2.8,0-5-2.2-5-5.1c0-2.8,2.2-5.1,5-5.1
				c28.8,0,52.2-23.7,52.2-52.8c0-29.1-23.4-52.8-52.2-52.8h-296c-13.6,0-26.5,5.3-36.3,14.9c-0.1,0.1-0.2,0.2-0.3,0.2L332.2,727z" style="fill:#383A48;"/>
		</g>
		<g>
			<polygon points="495.2,899 325.1,726.9 442.1,613.2 609,783 			" style="fill:#F6E049;"/>
			<path d="M495.2,906.2L317.9,726.8l124.2-120.6L616,783L495.2,906.2z M332.2,727l163,164.8L602,783L442,620.3
				L332.2,727z" style="fill:#383A48;"/>
		</g>
		<g>
			<g>
				<g>
					<ellipse cx="599.3" cy="774.3" rx="5" ry="5.1" style="fill:#383A48;"/>
				</g>
			</g>
			<g>
				<g>
					<ellipse cx="574.6" cy="749.4" rx="5" ry="5.1" style="fill:#383A48;"/>
				</g>
			</g>
			<g>
				<g>
					<ellipse cx="574.6" cy="774.3" rx="5" ry="5.1" style="fill:#383A48;"/>
				</g>
			</g>
			<g>
				<g>
					<ellipse cx="574.6" cy="799.2" rx="5" ry="5.1" style="fill:#383A48;"/>
				</g>
			</g>
			<g>
				<g>
					<ellipse cx="550" cy="724.4" rx="5" ry="5.1" style="fill:#383A48;"/>
				</g>
			</g>
			<g>
				<g>
					<ellipse cx="550" cy="749.4" rx="5" ry="5.1" style="fill:#383A48;"/>
				</g>
			</g>
			<g>
				<g>
					<ellipse cx="550" cy="774.3" rx="5" ry="5.1" style="fill:#383A48;"/>
				</g>
			</g>
			<g>
				<g>
					<ellipse cx="550" cy="799.2" rx="5" ry="5.1" style="fill:#383A48;"/>
				</g>
			</g>
			<g>
				<g>
					<ellipse cx="550" cy="824.2" rx="5" ry="5.1" style="fill:#383A48;"/>
				</g>
			</g>
			<g>
				<g>
					<ellipse cx="525.3" cy="699.5" rx="5" ry="5.1" style="fill:#383A48;"/>
				</g>
			</g>
			<g>
				<g>
					<ellipse cx="525.3" cy="724.4" rx="5" ry="5.1" style="fill:#383A48;"/>
				</g>
			</g>
			<g>
				<g>
					<ellipse cx="525.3" cy="749.4" rx="5" ry="5.1" style="fill:#383A48;"/>
				</g>
			</g>
			<g>
				<g>
					<ellipse cx="525.3" cy="774.3" rx="5" ry="5.1" style="fill:#383A48;"/>
				</g>
			</g>
			<g>
				<g>
					<ellipse cx="525.3" cy="799.2" rx="5" ry="5.1" style="fill:#383A48;"/>
				</g>
			</g>
			<g>
				<g>
					<ellipse cx="525.3" cy="824.2" rx="5" ry="5.1" style="fill:#383A48;"/>
				</g>
			</g>
			<g>
				<g>
					<ellipse cx="525.3" cy="849.2" rx="5" ry="5.1" style="fill:#383A48;"/>
				</g>
			</g>
			<g>
				<g>
					<ellipse cx="500.6" cy="674.5" rx="5" ry="5.1" style="fill:#383A48;"/>
				</g>
			</g>
			<g>
				<g>
					<ellipse cx="500.6" cy="699.5" rx="5" ry="5.1" style="fill:#383A48;"/>
				</g>
			</g>
			<g>
				<g>
					<ellipse cx="500.6" cy="724.4" rx="5" ry="5.1" style="fill:#383A48;"/>
				</g>
			</g>
			<g>
				<g>
					<ellipse cx="500.6" cy="749.4" rx="5" ry="5.1" style="fill:#383A48;"/>
				</g>
			</g>
			<g>
				<g>
					<ellipse cx="500.6" cy="774.3" rx="5" ry="5.1" style="fill:#383A48;"/>
				</g>
			</g>
			<g>
				<g>
					<ellipse cx="500.6" cy="799.2" rx="5" ry="5.1" style="fill:#383A48;"/>
				</g>
			</g>
			<g>
				<g>
					<ellipse cx="500.6" cy="824.2" rx="5" ry="5.1" style="fill:#383A48;"/>
				</g>
			</g>
			<g>
				<g>
					<ellipse cx="500.6" cy="849.2" rx="5" ry="5.1" style="fill:#383A48;"/>
				</g>
			</g>
			<g>
				<g>
					<ellipse cx="500.6" cy="874" rx="5" ry="5.1" style="fill:#383A48;"/>
				</g>
			</g>
			<g>
				<g>
					<ellipse cx="476" cy="649.6" rx="5" ry="5.1" style="fill:#383A48;"/>
				</g>
			</g>
			<g>
				<g>
					<ellipse cx="476" cy="674.5" rx="5" ry="5.1" style="fill:#383A48;"/>
				</g>
			</g>
			<g>
				<g>
					<ellipse cx="476" cy="699.5" rx="5" ry="5.1" style="fill:#383A48;"/>
				</g>
			</g>
			<g>
				<g>
					<ellipse cx="476" cy="724.4" rx="5" ry="5.1" style="fill:#383A48;"/>
				</g>
			</g>
			<g>
				<g>
					<ellipse cx="476" cy="749.4" rx="5" ry="5.1" style="fill:#383A48;"/>
				</g>
			</g>
			<g>
				<g>
					<ellipse cx="476" cy="774.3" rx="5" ry="5.1" style="fill:#383A48;"/>
				</g>
			</g>
			<g>
				<g>
					<ellipse cx="476" cy="799.2" rx="5" ry="5.1" style="fill:#383A48;"/>
				</g>
			</g>
			<g>
				<g>
					<ellipse cx="476" cy="824.2" rx="5" ry="5.1" style="fill:#383A48;"/>
				</g>
			</g>
			<g>
				<g>
					<ellipse cx="476" cy="849.2" rx="5" ry="5.1" style="fill:#383A48;"/>
				</g>
			</g>
			<g>
				<g>
					<ellipse cx="476" cy="874" rx="5" ry="5.1" style="fill:#383A48;"/>
				</g>
			</g>
			<g>
				<g>
					<ellipse cx="451.3" cy="624.7" rx="5" ry="5.1" style="fill:#383A48;"/>
				</g>
			</g>
			<g>
				<g>
					<ellipse cx="451.3" cy="649.6" rx="5" ry="5.1" style="fill:#383A48;"/>
				</g>
			</g>
			<g>
				<g>
					<ellipse cx="451.3" cy="674.5" rx="5" ry="5.1" style="fill:#383A48;"/>
				</g>
			</g>
			<g>
				<g>
					<ellipse cx="451.3" cy="699.5" rx="5" ry="5.1" style="fill:#383A48;"/>
				</g>
			</g>
			<g>
				<g>
					<ellipse cx="451.3" cy="724.4" rx="5" ry="5.1" style="fill:#383A48;"/>
				</g>
			</g>
			<g>
				<g>
					<ellipse cx="451.3" cy="749.4" rx="5" ry="5.1" style="fill:#383A48;"/>
				</g>
			</g>
			<g>
				<g>
					<ellipse cx="451.3" cy="774.3" rx="5" ry="5.1" style="fill:#383A48;"/>
				</g>
			</g>
			<g>
				<g>
					<ellipse cx="451.3" cy="799.2" rx="5" ry="5.1" style="fill:#383A48;"/>
				</g>
			</g>
			<g>
				<g>
					<ellipse cx="451.3" cy="824.2" rx="5" ry="5.1" style="fill:#383A48;"/>
				</g>
			</g>
			<g>
				<g>
					<ellipse cx="451.3" cy="849.2" rx="5" ry="5.1" style="fill:#383A48;"/>
				</g>
			</g>
			<g>
				<g>
					<ellipse cx="426.6" cy="649.6" rx="5" ry="5.1" style="fill:#383A48;"/>
				</g>
			</g>
			<g>
				<g>
					<ellipse cx="426.6" cy="674.5" rx="5" ry="5.1" style="fill:#383A48;"/>
				</g>
			</g>
			<g>
				<g>
					<ellipse cx="426.6" cy="699.5" rx="5" ry="5.1" style="fill:#383A48;"/>
				</g>
			</g>
			<g>
				<g>
					<ellipse cx="426.6" cy="724.4" rx="5" ry="5.1" style="fill:#383A48;"/>
				</g>
			</g>
			<g>
				<g>
					<ellipse cx="426.6" cy="749.4" rx="5" ry="5.1" style="fill:#383A48;"/>
				</g>
			</g>
			<g>
				<g>
					<ellipse cx="426.6" cy="774.3" rx="5" ry="5.1" style="fill:#383A48;"/>
				</g>
			</g>
			<g>
				<g>
					<ellipse cx="426.6" cy="799.2" rx="5" ry="5.1" style="fill:#383A48;"/>
				</g>
			</g>
			<g>
				<g>
					<ellipse cx="426.6" cy="824.2" rx="5" ry="5.1" style="fill:#383A48;"/>
				</g>
			</g>
			<g>
				<g>
					<ellipse cx="402" cy="674.5" rx="5" ry="5.1" style="fill:#383A48;"/>
				</g>
			</g>
			<g>
				<g>
					<ellipse cx="402" cy="699.5" rx="5" ry="5.1" style="fill:#383A48;"/>
				</g>
			</g>
			<g>
				<g>
					<ellipse cx="402" cy="724.4" rx="5" ry="5.1" style="fill:#383A48;"/>
				</g>
			</g>
			<g>
				<g>
					<ellipse cx="402" cy="749.4" rx="5" ry="5.1" style="fill:#383A48;"/>
				</g>
			</g>
			<g>
				<g>
					<ellipse cx="402" cy="774.3" rx="5" ry="5.1" style="fill:#383A48;"/>
				</g>
			</g>
			<g>
				<g>
					<ellipse cx="402" cy="799.2" rx="5" ry="5.1" style="fill:#383A48;"/>
				</g>
			</g>
			<g>
				<g>
					<ellipse cx="377.3" cy="699.5" rx="5" ry="5.1" style="fill:#383A48;"/>
				</g>
			</g>
			<g>
				<g>
					<ellipse cx="377.3" cy="724.4" rx="5" ry="5.1" style="fill:#383A48;"/>
				</g>
			</g>
			<g>
				<g>
					<ellipse cx="377.3" cy="749.4" rx="5" ry="5.1" style="fill:#383A48;"/>
				</g>
			</g>
			<g>
				<g>
					<ellipse cx="377.3" cy="774.3" rx="5" ry="5.1" style="fill:#383A48;"/>
				</g>
			</g>
			<g>
				<g>
					<ellipse cx="352.6" cy="724.4" rx="5" ry="5.1" style="fill:#383A48;"/>
				</g>
			</g>
			<g>
				<g>
					<ellipse cx="352.6" cy="749.4" rx="5" ry="5.1" style="fill:#383A48;"/>
				</g>
			</g>
		</g>
		<g>
			<line x1="819.5" y1="673.2" x2="615.1" y2="673.2" style="fill:none;"/>
			<path d="M819.5,678.3H615.1c-2.8,0-5-2.2-5-5.1s2.2-5.1,5-5.1h204.4c2.8,0,5,2.2,5,5.1S822.3,678.3,819.5,678.3z" style="fill:#383A48;"/>
		</g>
	</g>
	<g>
		<g>
			<circle cx="875.3" cy="343" r="142.7" style="fill:#E0719E;"/>
			<path d="M875.3,490.7c-81.4,0-147.7-66.3-147.7-147.7s66.3-147.7,147.7-147.7S1023,261.5,1023,343
				S956.8,490.7,875.3,490.7z M875.3,205.3c-75.9,0-137.7,61.8-137.7,137.7s61.8,137.7,137.7,137.7S1013,418.9,1013,343
				S951.2,205.3,875.3,205.3z" style="fill:#383A48;"/>
		</g>
		<g>
			
				<ellipse transform="matrix(0.7071 -0.7071 0.7071 0.7071 23.9953 743.9295)" cx="910" cy="343" rx="142.7" ry="142.7" style="fill:#F6E049;"/>
			<path d="M910,490.7c-81.4,0-147.7-66.3-147.7-147.7S828.6,195.3,910,195.3s147.7,66.3,147.7,147.7
				S991.4,490.7,910,490.7z M910,205.3c-75.9,0-137.7,61.8-137.7,137.7S834.1,480.7,910,480.7s137.7-61.8,137.7-137.7
				S985.9,205.3,910,205.3z" style="fill:#383A48;"/>
		</g>
		<g>
			<circle cx="910" cy="343" r="113.1" style="fill:#F6E049;"/>
			<path d="M910,461c-65.1,0-118.1-53-118.1-118.1s53-118.1,118.1-118.1s118.1,53,118.1,118.1S975.1,461,910,461z
				 M910,234.9c-59.6,0-108.1,48.5-108.1,108.1S850.4,451,910,451s108.1-48.5,108.1-108.1S969.6,234.9,910,234.9z" style="fill:#E0719E;"/>
		</g>
		<g>
			<g>
				<path d="M919.7,309.7h-18.2l-5.2,5.2v13.7l5.2,5.2h29.7l16,16v28.3l-16,16h-11.9v16h-20.1v-16h-15l-13.5-13.8
					l15.1-14.3l10.1,10h23l5.2-5.2V357l-5.2-5.2h-29.7l-16-16v-28.2l16-16h9.9v-16h20.1v16H932l12.8,13.4l-15.7,14.3L919.7,309.7z" style="fill:#383A48;"/>
			</g>
		</g>
	</g>
	<g>
		<g>
			<path d="M1366.3,438.4c-21.1,0-41.2-8.8-58.4-25.4c-17.2,16.5-37.3,25.4-58.4,25.4c-29,0-56.1-16.9-76.3-47.5
				c-19.8-30-30.7-69.8-30.7-112.1c0-2.8,2.2-5,5-5s5,2.2,5,5c0,82.5,43.5,149.6,97,149.6c18.9,0,36.5-8.3,51.4-22.7
				c-3.8-4.4-7.5-9.2-11-14.4c-19.8-29.8-30.7-69.4-30.7-111.6c0-25.1,5.2-48.3,14.5-65.5c9.1-16.7,21.5-26.4,34-26.4
				c23.4,0,48.7,35.1,48.7,91.9c0,42.2-10.9,81.8-30.7,111.6c-3.5,5.2-7.1,10-11,14.4c14.9,14.3,32.5,22.7,51.4,22.7
				c2.8,0,5,2.2,5,5S1369.1,438.4,1366.3,438.4z M1307.9,197.9c-18.2,0-38.6,33.6-38.6,81.9c0,48.4,15.2,91.5,38.6,118.6
				c23.4-27.2,38.6-70.2,38.6-118.6C1346.6,231.6,1326.2,197.9,1307.9,197.9z" style="fill:#383A48;"/>
		</g>
		<g>
			<path d="M1599.8,438.4c-21.1,0-41.2-8.8-58.4-25.4c-17.2,16.5-37.3,25.4-58.4,25.4c-2.8,0-5-2.2-5-5s2.2-5,5-5
				c18.9,0,36.5-8.3,51.4-22.7c-3.8-4.4-7.5-9.2-11-14.4c-19.8-29.8-30.7-69.4-30.7-111.6c0-56.7,25.3-91.9,48.7-91.9
				c23.4,0,48.6,35.1,48.6,91.9c0,42.2-10.9,81.8-30.7,111.6c-3.5,5.2-7.1,10-11,14.4c14.9,14.3,32.5,22.7,51.4,22.7
				c2.8,0,5,2.2,5,5S1602.6,438.4,1599.8,438.4z M1541.5,197.9c-18.3,0-38.7,33.6-38.7,81.9c0,48.4,15.2,91.5,38.6,118.6
				c23.4-27.2,38.6-70.2,38.6-118.6C1580.1,231.6,1559.8,197.9,1541.5,197.9z" style="fill:#383A48;"/>
		</g>
		<g>
			<path d="M1483.1,438.4c-21.1,0-41.2-8.8-58.4-25.4c-17.2,16.5-37.3,25.4-58.4,25.4c-2.8,0-5-2.2-5-5s2.2-5,5-5
				c18.9,0,36.5-8.3,51.4-22.7c-3.8-4.4-7.5-9.2-11-14.4c-19.8-29.8-30.7-69.4-30.7-111.6c0-25.1,5.2-48.3,14.5-65.5
				c9.1-16.7,21.5-26.4,34-26.4c23.4,0,48.7,35.1,48.7,91.9c0,42.2-10.9,81.8-30.7,111.6c-3.5,5.2-7.1,10-11,14.4
				c14.9,14.3,32.5,22.7,51.4,22.7c2.8,0,5,2.2,5,5S1485.8,438.4,1483.1,438.4z M1424.7,197.9c-18.2,0-38.6,33.6-38.6,81.9
				c0,48.4,15.2,91.5,38.6,118.6c23.4-27.2,38.6-70.2,38.6-118.6C1463.3,231.6,1442.9,197.9,1424.7,197.9z" style="fill:#383A48;"/>
		</g>
	</g>
	<path d="M1161.3,828.6l-1.8-0.5c-5.2-1.4-9.3-5.5-10.7-10.7l-0.5-1.8c-1-3.6-4.1-5.9-7.8-5.9l0,0
		c-3.7,0-6.8,2.4-7.8,5.9l-0.5,1.8c-1.4,5.2-5.5,9.3-10.7,10.7l-1.8,0.5c-3.6,1-5.9,4.1-5.9,7.8s2.4,6.8,5.9,7.8l1.8,0.5
		c5.2,1.4,9.3,5.5,10.7,10.7l0.5,1.8c1,3.6,4.1,5.9,7.8,5.9l0,0c3.7,0,6.8-2.4,7.8-5.9l0.5-1.8c1.4-5.2,5.5-9.3,10.7-10.7l1.8-0.5
		c3.6-1,5.9-4.1,5.9-7.8S1164.8,829.5,1161.3,828.6z" style="fill:#AAC6FC;"/>
	<path d="M521.1,319.5l-1.8-0.5c-5.2-1.4-9.3-5.5-10.7-10.7l-0.5-1.8c-1-3.6-4.1-5.9-7.8-5.9c-3.7,0-6.8,2.4-7.8,5.9
		l-0.5,1.8c-1.4,5.2-5.5,9.3-10.7,10.7l-1.8,0.5c-3.6,1-5.9,4.1-5.9,7.8c0,3.7,2.4,6.8,5.9,7.8l1.8,0.5c5.2,1.4,9.3,5.5,10.7,10.7
		l0.5,1.8c1,3.6,4.1,5.9,7.8,5.9c3.7,0,6.8-2.4,7.8-5.9l0.5-1.8c1.4-5.2,5.5-9.3,10.7-10.7l1.8-0.5c3.6-1,5.9-4.1,5.9-7.8
		C527.1,323.6,524.7,320.4,521.1,319.5z" style="fill:#AAC6FC;"/>
	<g>
		<line x1="609" y1="784.4" x2="442.1" y2="616.5" style="fill:none;"/>
		
			<rect x="520.5" y="582.1" transform="matrix(0.7091 -0.7051 0.7051 0.7091 -341.0713 574.3278)" width="10" height="236.8" style="fill:#383A48;"/>
	</g>
	<path d="M1515.4,709.8H1258c-2.8,0-5,2.2-5,5v185.3c0,2.8,2.2,5,5,5h257.4c53.9,0,97.7-43.8,97.7-97.7
		C1613.1,753.6,1569.3,709.8,1515.4,709.8z" style="fill:#F6E049;"/>
	<g>
		<path d="M1608.1,707.2h-93.6c-2.8,0-5,2.2-5,5v187.2c0,2.8,2.2,5,5,5h93.6c2.8,0,5-2.2,5-5V712.2
			C1613.1,709.5,1610.9,707.2,1608.1,707.2z" style="fill:#383A48;"/>
		<g>
			<circle cx="1514.5" cy="805.8" r="93.6" style="fill:#EEBED3;"/>
			<path d="M1514.5,904.4c-54.4,0-98.6-44.2-98.6-98.6s44.2-98.6,98.6-98.6s98.6,44.2,98.6,98.6
				S1568.9,904.4,1514.5,904.4z M1514.5,717.2c-48.8,0-88.6,39.7-88.6,88.6s39.7,88.6,88.6,88.6c48.8,0,88.6-39.7,88.6-88.6
				S1563.4,717.2,1514.5,717.2z" style="fill:#383A48;"/>
		</g>
		<g>
			<g>
				<path d="M1523.2,779.1h-14.6l-4.2,4.2v11l4.2,4.2h23.8l12.8,12.9v22.8l-12.8,12.8h-9.6v12.9h-16.1V847h-12
					l-10.8-11.1l12.1-11.5l8.2,8h18.5l4.2-4.2v-11.1l-4.2-4.2h-23.8l-12.8-12.8v-22.6l12.8-12.9h7.9v-12.8h16.1v12.8h10.3l10.3,10.8
					l-12.6,11.5L1523.2,779.1z" style="fill:#383A48;"/>
			</g>
		</g>
	</g>
	<g>
		<g>
			<rect x="1309.2" y="475.2" width="10" height="33" style="fill:#383A48;"/>
		</g>
		<g>
			<line x1="1297.7" y1="491.7" x2="1330.6" y2="491.7" style="fill:none;"/>
			<rect x="1297.7" y="486.7" width="33" height="10" style="fill:#383A48;"/>
		</g>
	</g>
	<path d="M495.9,198c-0.8-1.9-2.6-3.1-4.6-3.1H325.1c-1.3,0-2.6,0.5-3.6,1.5s-1.5,2.2-1.4,3.6l2.2,164.1
		c0,2,1.3,3.8,3.1,4.6c0.6,0.2,1.2,0.4,1.9,0.4c1.3,0,2.6-0.5,3.5-1.5l164.1-164.1C496.3,202,496.7,199.8,495.9,198z" style="fill:#AAC6FC;"/>
	<g>
		<path d="M403.1,454.1c-1.3,0-2.6-0.5-3.5-1.5L267.3,320.4c-2-2-2-5.1,0-7.1s5.1-2,7.1,0l132.3,132.3c2,2,2,5.1,0,7.1
			C405.7,453.7,404.4,454.1,403.1,454.1z" style="fill:#383A48;"/>
	</g>
</g>
</svg>
