<?xml version="1.0" encoding="UTF-8"?>
<svg width="1444px" height="764px" viewBox="0 0 1444 764" version="1.1" xmlns="http://www.w3.org/2000/svg" xmlns:xlink="http://www.w3.org/1999/xlink">
    <!-- Generator: Sketch 59.1 (86144) - https://sketch.com -->
    <title>abstract-fatal-error</title>
    <desc>Created with Sketch.</desc>
    <g id="Page-1" stroke="none" stroke-width="1" fill="none" fill-rule="evenodd">
        <g id="abstract-fatal-error" transform="translate(-238.000000, -158.000000)">
            <g id="Group" transform="translate(238.000000, 158.000000)">
                <path d="M586.4,2.5 C585.5,1 583.9,0.1 582.2,0.1 L5.9,0.1 C4.6,0.1 3.3,0.6 2.4,1.6 C1.5,2.5 0.9,3.8 0.9,5.1 L0.9,428.6 C0.9,431.1 2.7,433.2 5.1,433.5 C5.4,433.5 5.6,433.6 5.9,433.6 C8,433.6 10,432.2 10.7,430.1 C10.8,429.7 25.7,385 65.4,339.4 C88.6,312.7 115.7,291 145.8,274.7 C183.5,254.4 226.2,242.7 272.7,239.9 C370.1,234 448.7,201 506.4,141.7 C552.9,93.9 572.9,42.5 582.4,17.8 C584.2,13.1 585.7,9.3 586.7,7.2 C587.4,5.8 587.3,4 586.4,2.5 Z" id="Path" fill="#F3F6E6" fill-rule="nonzero"></path>
                <g transform="translate(153.000000, 103.000000)">
                    <g>
                        <line x1="3.8" y1="27.9" x2="27.1" y2="4.6" id="Path"></line>
                        <rect id="Rectangle" fill="#383A48" fill-rule="nonzero" transform="translate(15.500470, 16.176470) rotate(-45.000000) translate(-15.500470, -16.176470) " x="-0.999371764" y="11.176518" width="32.9996835" height="9.9999041"></rect>
                    </g>
                    <g transform="translate(0.000000, 1.000000)">
                        <line x1="27.1" y1="26.9" x2="3.8" y2="3.6" id="Path"></line>
                        <rect id="Rectangle" fill="#383A48" fill-rule="nonzero" transform="translate(15.376160, 15.206580) rotate(-45.000000) translate(-15.376160, -15.206580) " x="10.376208" y="-1.29326176" width="9.9999041" height="32.9996835"></rect>
                    </g>
                </g>
                <path d="M1436.7,0.1 L700.9,0.1 C698.1,0.1 695.9,2.3 695.9,5.1 L695.9,531.8 C695.9,534.6 698.1,536.8 700.9,536.8 L1436.8,536.8 C1439.6,536.8 1441.8,534.6 1441.8,531.8 L1441.8,5.1 C1441.7,2.4 1439.5,0.1 1436.7,0.1 Z" id="Path" fill="#4053FA" fill-rule="nonzero"></path>
                <g transform="translate(752.000000, 106.000000)" fill="#F3F6E6" fill-rule="nonzero">
                    <polygon id="Path" points="0.7 0.7 137.9 0.7 137.9 28.1 28.1 28.1 28.1 55.5 110.4 55.5 110.4 83 28.1 83 28.1 110.4 137.9 110.4 137.9 137.5 0.7 137.5"></polygon>
                    <path d="M161.1,0.7 L270.9,0.7 L270.9,28.1 L188.6,28.1 L188.6,55.5 L270.9,55.5 L270.9,83 L188.6,83 L188.6,137.5 L161.2,137.5 L161.1,0.7 L161.1,0.7 Z M270.9,28.1 L298.3,28.1 L298.3,55.5 L270.9,55.5 L270.9,28.1 Z M270.9,83 L298.3,83 L298.3,137.5 L270.9,137.5 L270.9,83 Z" id="Shape"></path>
                    <path d="M321.5,0.7 L431.3,0.7 L431.3,28.1 L349,28.1 L349,55.5 L431.3,55.5 L431.3,83 L349,83 L349,137.5 L321.6,137.5 L321.5,0.7 L321.5,0.7 Z M431.3,28.1 L458.7,28.1 L458.7,55.5 L431.3,55.5 L431.3,28.1 Z M431.3,83 L458.7,83 L458.7,137.5 L431.3,137.5 L431.3,83 Z" id="Shape"></path>
                    <path d="M0.7,186.4 L28.1,186.4 L28.1,268.7 L0.7,268.7 L0.7,186.4 Z M28.1,158.9 L110.4,158.9 L110.4,186.3 L28.1,186.3 L28.1,158.9 L28.1,158.9 Z M28.1,268.7 L110.4,268.7 L110.4,295.8 L28.1,295.8 L28.1,268.7 L28.1,268.7 Z M110.5,186.4 L137.9,186.4 L137.9,268.7 L110.5,268.7 L110.5,186.4 Z" id="Shape"></path>
                    <path d="M161.1,158.9 L270.9,158.9 L270.9,186.3 L188.6,186.3 L188.6,213.7 L270.9,213.7 L270.9,241.1 L188.6,241.1 L188.6,295.6 L161.2,295.6 L161.1,158.9 L161.1,158.9 Z M270.9,186.4 L298.3,186.4 L298.3,213.8 L270.9,213.8 L270.9,186.4 Z M270.9,241.3 L298.3,241.3 L298.3,295.8 L270.9,295.8 L270.9,241.3 Z" id="Shape"></path>
                </g>
                <g transform="translate(887.000000, 535.000000)" fill-rule="nonzero">
                    <g>
                        <circle id="Oval" fill="#E0719E" cx="114.8" cy="114.8" r="109.1"></circle>
                        <path d="M114.8,228.9 C51.9,228.9 0.7,177.7 0.7,114.8 C0.7,51.9 51.9,0.7 114.8,0.7 C177.7,0.7 228.9,51.9 228.9,114.8 C228.9,177.7 177.7,228.9 114.8,228.9 Z M114.8,10.7 C57.4,10.7 10.7,57.4 10.7,114.8 C10.7,172.2 57.4,218.9 114.8,218.9 C172.2,218.9 218.9,172.2 218.9,114.8 C218.9,57.4 172.2,10.7 114.8,10.7 Z" id="Shape" fill="#383A48"></path>
                    </g>
                    <g transform="translate(137.000000, 85.000000)" fill="#383A48">
                        <circle id="Oval" cx="13.7" cy="14.6" r="8.7"></circle>
                        <path d="M13.7,28.3 C6.1,28.3 0,22.1 0,14.6 C0,7.1 6.2,0.9 13.7,0.9 C21.2,0.9 27.4,7 27.4,14.6 C27.4,22.2 21.3,28.3 13.7,28.3 Z M13.7,10.8 C11.7,10.8 10,12.5 10,14.5 C10,16.5 11.7,18.2 13.7,18.2 C15.7,18.2 17.4,16.5 17.4,14.5 C17.4,12.5 15.7,10.8 13.7,10.8 Z" id="Shape"></path>
                    </g>
                    <g transform="translate(65.000000, 85.000000)" fill="#383A48">
                        <circle id="Oval" cx="13.8" cy="14.6" r="8.7"></circle>
                        <path d="M13.8,28.3 C6.2,28.3 0.1,22.1 0.1,14.6 C0.1,7.1 6.3,0.9 13.8,0.9 C21.3,0.9 27.5,7 27.5,14.6 C27.5,22.2 21.4,28.3 13.8,28.3 Z M13.8,10.8 C11.8,10.8 10.1,12.5 10.1,14.5 C10.1,16.5 11.8,18.2 13.8,18.2 C15.8,18.2 17.5,16.5 17.5,14.5 C17.5,12.5 15.9,10.8 13.8,10.8 Z" id="Shape"></path>
                    </g>
                    <g transform="translate(73.000000, 135.000000)" id="Path">
                        <path d="M5.8,25.9 C13,13.5 26.4,5.1 41.7,5.1 C57.1,5.1 70.5,13.5 77.7,25.9" fill="#E0719E"></path>
                        <path d="M77.7,31 C76,31 74.3,30.1 73.4,28.5 C66.9,17.2 54.8,10.2 41.8,10.2 C28.8,10.2 16.7,17.2 10.2,28.5 C8.8,30.9 5.8,31.7 3.4,30.3 C1,28.9 0.2,25.9 1.6,23.5 C9.9,9.2 25.3,0.2 41.9,0.2 C58.5,0.2 73.9,9.1 82.2,23.5 C83.6,25.9 82.8,29 80.4,30.3 C79.4,30.8 78.5,31 77.7,31 Z" fill="#383A48"></path>
                    </g>
                </g>
                <g transform="translate(996.000000, 535.000000)" fill-rule="nonzero">
                    <g>
                        <circle id="Oval" fill="#E0719E" cx="114.9" cy="114.8" r="109.1"></circle>
                        <path d="M114.9,228.9 C52,228.9 0.8,177.7 0.8,114.8 C0.8,51.9 52,0.7 114.9,0.7 C177.8,0.7 229,51.9 229,114.8 C229,177.7 177.8,228.9 114.9,228.9 Z M114.9,10.7 C57.5,10.7 10.8,57.4 10.8,114.8 C10.8,172.2 57.5,218.9 114.9,218.9 C172.3,218.9 219,172.2 219,114.8 C219,57.4 172.3,10.7 114.9,10.7 Z" id="Shape" fill="#383A48"></path>
                    </g>
                    <g transform="translate(137.000000, 85.000000)" fill="#383A48">
                        <circle id="Oval" cx="13.8" cy="14.6" r="8.7"></circle>
                        <path d="M13.8,28.3 C6.2,28.3 0.1,22.1 0.1,14.6 C0.1,7.1 6.3,0.9 13.8,0.9 C21.3,0.9 27.5,7 27.5,14.6 C27.5,22.2 21.3,28.3 13.8,28.3 Z M13.8,10.8 C11.8,10.8 10.1,12.5 10.1,14.5 C10.1,16.5 11.8,18.2 13.8,18.2 C15.8,18.2 17.5,16.5 17.5,14.5 C17.5,12.5 15.8,10.8 13.8,10.8 Z" id="Shape"></path>
                    </g>
                    <g transform="translate(65.000000, 85.000000)" fill="#383A48">
                        <circle id="Oval" cx="13.9" cy="14.6" r="8.7"></circle>
                        <path d="M13.9,28.3 C6.3,28.3 0.2,22.1 0.2,14.6 C0.2,7.1 6.4,0.9 13.9,0.9 C21.4,0.9 27.6,7 27.6,14.6 C27.6,22.2 21.5,28.3 13.9,28.3 Z M13.9,10.8 C11.9,10.8 10.2,12.5 10.2,14.5 C10.2,16.5 11.9,18.2 13.9,18.2 C15.9,18.2 17.6,16.5 17.6,14.5 C17.6,12.5 16,10.8 13.9,10.8 Z" id="Shape"></path>
                    </g>
                    <g transform="translate(74.000000, 135.000000)" id="Path">
                        <path d="M4.9,25.9 C12.1,13.5 25.5,5.1 40.8,5.1 C56.2,5.1 69.6,13.5 76.8,25.9" fill="#E0719E"></path>
                        <path d="M76.8,31 C75.1,31 73.4,30.1 72.5,28.5 C66,17.2 53.9,10.2 40.9,10.2 C27.9,10.2 15.8,17.2 9.3,28.5 C7.9,30.9 4.9,31.7 2.5,30.3 C0.1,28.9 -0.7,25.9 0.7,23.5 C9,9.2 24.4,0.2 41,0.2 C57.6,0.2 73,9.1 81.3,23.5 C82.7,25.9 81.9,29 79.5,30.3 C78.5,30.8 77.6,31 76.8,31 Z" fill="#383A48"></path>
                    </g>
                </g>
                <g transform="translate(1105.000000, 535.000000)" fill-rule="nonzero">
                    <g>
                        <circle id="Oval" fill="#E0719E" cx="115" cy="114.8" r="109.1"></circle>
                        <path d="M115,228.9 C52.1,228.9 0.9,177.7 0.9,114.8 C0.9,51.9 52,0.7 115,0.7 C178,0.7 229,51.9 229,114.8 C229,177.7 177.9,228.9 115,228.9 Z M115,10.7 C57.6,10.7 10.9,57.4 10.9,114.8 C10.9,172.2 57.6,218.9 115,218.9 C172.4,218.9 219,172.2 219,114.8 C219,57.4 172.4,10.7 115,10.7 Z" id="Shape" fill="#383A48"></path>
                    </g>
                    <g transform="translate(137.000000, 85.000000)" fill="#383A48">
                        <circle id="Oval" cx="13.9" cy="14.6" r="8.7"></circle>
                        <path d="M13.9,28.3 C6.3,28.3 0.2,22.1 0.2,14.6 C0.2,7.1 6.4,0.9 13.9,0.9 C21.4,0.9 27.6,7 27.6,14.6 C27.6,22.2 21.4,28.3 13.9,28.3 Z M13.9,10.8 C11.9,10.8 10.2,12.5 10.2,14.5 C10.2,16.5 11.9,18.2 13.9,18.2 C15.9,18.2 17.6,16.5 17.6,14.5 C17.6,12.5 15.9,10.8 13.9,10.8 Z" id="Shape"></path>
                    </g>
                    <g transform="translate(65.000000, 85.000000)" fill="#383A48">
                        <circle id="Oval" cx="14" cy="14.6" r="8.7"></circle>
                        <path d="M14,28.3 C6.4,28.3 0.3,22.1 0.3,14.6 C0.3,7.1 6.5,0.9 14,0.9 C21.5,0.9 27.7,7 27.7,14.6 C27.7,22.2 21.6,28.3 14,28.3 Z M14,10.8 C12,10.8 10.3,12.5 10.3,14.5 C10.3,16.5 12,18.2 14,18.2 C16,18.2 17.7,16.5 17.7,14.5 C17.7,12.5 16.1,10.8 14,10.8 Z" id="Shape"></path>
                    </g>
                    <g transform="translate(74.000000, 135.000000)" id="Path">
                        <path d="M5,25.9 C12.2,13.5 25.6,5.1 40.9,5.1 C56.3,5.1 69.7,13.5 76.9,25.9" fill="#E0719E"></path>
                        <path d="M76.9,31 C75.2,31 73.5,30.1 72.6,28.5 C66.1,17.2 54,10.2 41,10.2 C28,10.2 15.9,17.2 9.4,28.5 C8,30.9 5,31.7 2.6,30.3 C0.2,28.9 -0.6,25.9 0.8,23.5 C9.1,9.2 24.5,0.2 41.1,0.2 C57.7,0.2 73.1,9.1 81.4,23.5 C82.8,25.9 82,29 79.6,30.3 C78.6,30.8 77.7,31 76.9,31 Z" fill="#383A48"></path>
                    </g>
                </g>
                <g transform="translate(1214.000000, 535.000000)" fill-rule="nonzero">
                    <g>
                        <circle id="Oval" fill="#E0719E" cx="115" cy="114.8" r="109.1"></circle>
                        <path d="M115,228.9 C52.1,228.9 0.9,177.7 0.9,114.8 C0.9,51.9 52.1,0.7 115,0.7 C177.9,0.7 229.1,51.9 229.1,114.8 C229.1,177.7 178,228.9 115,228.9 Z M115,10.7 C57.6,10.7 10.9,57.4 10.9,114.8 C10.9,172.2 57.6,218.9 115,218.9 C172.4,218.9 219.1,172.2 219.1,114.8 C219.1,57.4 172.4,10.7 115,10.7 Z" id="Shape" fill="#383A48"></path>
                    </g>
                    <g transform="translate(137.000000, 85.000000)" fill="#383A48">
                        <circle id="Oval" cx="14" cy="14.6" r="8.7"></circle>
                        <path d="M14,28.3 C6.4,28.3 0.3,22.1 0.3,14.6 C0.3,7.1 6.4,0.9 14,0.9 C21.6,0.9 27.7,7 27.7,14.6 C27.7,22.2 21.5,28.3 14,28.3 Z M14,10.8 C12,10.8 10.3,12.5 10.3,14.5 C10.3,16.5 12,18.2 14,18.2 C16,18.2 17.7,16.5 17.7,14.5 C17.7,12.5 16,10.8 14,10.8 Z" id="Shape"></path>
                    </g>
                    <g transform="translate(65.000000, 85.000000)" fill="#383A48">
                        <circle id="Oval" cx="14.1" cy="14.6" r="8.7"></circle>
                        <path d="M14.1,28.3 C6.5,28.3 0.4,22.1 0.4,14.6 C0.4,7.1 6.6,0.9 14.1,0.9 C21.6,0.9 27.8,7 27.8,14.6 C27.8,22.2 21.7,28.3 14.1,28.3 Z M14.1,10.8 C12.1,10.8 10.4,12.5 10.4,14.5 C10.4,16.5 12.1,18.2 14.1,18.2 C16.1,18.2 17.8,16.5 17.8,14.5 C17.8,12.5 16.2,10.8 14.1,10.8 Z" id="Shape"></path>
                    </g>
                    <g transform="translate(74.000000, 135.000000)" id="Path">
                        <path d="M5.1,25.9 C12.3,13.5 25.7,5.1 41,5.1 C56.4,5.1 69.8,13.5 77,25.9" fill="#E0719E"></path>
                        <path d="M77,31 C75.3,31 73.6,30.1 72.7,28.5 C66.2,17.2 54.1,10.2 41.1,10.2 C28.1,10.2 16,17.2 9.5,28.5 C8.1,30.9 5.1,31.7 2.7,30.3 C0.3,28.9 -0.5,25.9 0.9,23.5 C9.2,9.2 24.6,0.2 41.2,0.2 C57.8,0.2 73.2,9.1 81.5,23.5 C82.9,25.9 82.1,29 79.7,30.3 C78.7,30.8 77.8,31 77,31 Z" fill="#383A48"></path>
                    </g>
                </g>
                <path d="M1441.7,5.1 C1441.7,2.3 1439.5,0.1 1436.7,0.1 L1068.8,0.1 C1066,0.1 1063.8,2.3 1063.8,5.1 C1063.8,7.9 1066,10.1 1068.8,10.1 C1219.7,10.1 1268,125 1310.5,226.3 C1326.3,264.1 1341.3,299.7 1360.5,326 C1382.5,356.2 1407.2,370.3 1438.1,370.3 C1439.4,370.3 1440.7,369.8 1441.6,368.8 C1442.5,367.9 1443.1,366.6 1443.1,365.3 L1441.7,5.1 Z" id="Path" fill="#F3F6E6" fill-rule="nonzero"></path>
                <path d="M1138.9,273.5 C1137.6,273.5 1136.3,273 1135.4,272 C1133.4,270 1133.4,266.9 1135.4,264.9 L1364.5,35.8 C1366.5,33.8 1369.6,33.8 1371.6,35.8 C1373.6,37.8 1373.6,40.9 1371.6,42.9 L1142.5,272 C1141.5,273 1140.2,273.5 1138.9,273.5 Z" id="Path" fill="#E0719E" fill-rule="nonzero"></path>
                <path d="M785.8,654.8 L634.3,654.8 C631.5,654.8 629.3,652.6 629.3,649.8 C629.3,647 631.5,644.8 634.3,644.8 L785.9,644.8 C788.7,644.8 790.9,647 790.9,649.8 C790.9,652.6 788.6,654.8 785.8,654.8 Z" id="Path" fill="#383A48" fill-rule="nonzero"></path>
                <g transform="translate(0.000000, 423.000000)">
                    <g transform="translate(0.000000, 65.000000)" fill-rule="nonzero">
                        <path d="M549,5.6 L5.9,5.6 L5.9,123.4 C5.9,197.7 66.1,257.9 140.4,257.9 L549,257.9 L549,5.6 Z" id="Path" fill="#F3F6E6"></path>
                        <path d="M549,262.9 L140.3,262.9 C63.4,262.9 0.8,200.3 0.8,123.4 L0.8,5.6 C0.8,2.8 3,0.6 5.8,0.6 L549,0.6 C551.8,0.6 554,2.8 554,5.6 L554,257.9 C554,260.6 551.8,262.9 549,262.9 Z M10.9,10.6 L10.9,123.4 C10.9,194.8 69,252.9 140.4,252.9 L544,252.9 L544,10.6 L10.9,10.6 Z" id="Shape" fill="#383A48"></path>
                    </g>
                    <g fill-rule="nonzero">
                        <rect id="Rectangle" fill="#E0719E" x="5.9" y="5.7" width="543.1" height="112"></rect>
                        <path d="M549,122.7 L5.9,122.7 C3.1,122.7 0.9,120.5 0.9,117.7 L0.9,5.7 C0.9,2.9 3.1,0.7 5.9,0.7 L549,0.7 C551.8,0.7 554,2.9 554,5.7 L554,117.7 C554,120.4 551.8,122.7 549,122.7 Z M10.9,112.7 L544,112.7 L544,10.7 L10.9,10.7 L10.9,112.7 Z" id="Shape" fill="#383A48"></path>
                    </g>
                    <g transform="translate(150.000000, 186.000000)" fill-rule="nonzero">
                        <rect id="Rectangle" fill="#F3F6E6" x="5.4" y="5" width="244" height="71.6"></rect>
                        <path d="M249.4,81.6 L5.4,81.6 C2.6,81.6 0.4,79.4 0.4,76.6 L0.4,5 C0.4,2.2 2.6,0 5.4,0 L249.4,0 C252.2,0 254.4,2.2 254.4,5 L254.4,76.6 C254.4,79.3 252.2,81.6 249.4,81.6 Z M10.4,71.6 L244.4,71.6 L244.4,10 L10.4,10 L10.4,71.6 L10.4,71.6 Z" id="Shape" fill="#383A48"></path>
                    </g>
                    <g transform="translate(42.000000, 39.000000)">
                        <g>
                            <line x1="3.8" y1="3.8" x2="41.6" y2="41.5" id="Path"></line>
                            <rect id="Rectangle" fill="#383A48" fill-rule="nonzero" transform="translate(22.704740, 22.703500) rotate(-45.000000) translate(-22.704740, -22.703500) " x="17.704788" y="-3.99624395" width="9.9999041" height="53.3994879"></rect>
                        </g>
                        <g>
                            <line x1="3.8" y1="41.5" x2="41.6" y2="3.8" id="Path"></line>
                            <rect id="Rectangle" fill="#383A48" fill-rule="nonzero" transform="translate(22.676540, 22.704800) rotate(-45.000000) translate(-22.676540, -22.704800) " x="-4.02320395" y="17.704848" width="53.3994879" height="9.9999041"></rect>
                        </g>
                    </g>
                </g>
                <g transform="translate(267.000000, 0.000000)" fill-rule="nonzero">
                    <path d="M427,5.1 C427,238 238.2,426.8 5.3,426.8 L5.3,235 C132.3,235 235.2,132.1 235.2,5.1 L427,5.1 Z" id="Path" fill="#F6E049"></path>
                    <path d="M5.3,431.8 C2.5,431.8 0.3,429.6 0.3,426.8 L0.3,235 C0.3,232.2 2.5,230 5.3,230 C65.4,230 121.8,206.6 164.3,164.1 C206.8,121.6 230.2,65.1 230.2,5.1 C230.2,2.3 232.4,0.1 235.2,0.1 L427,0.1 C429.8,0.1 432,2.3 432,5.1 C432,62.7 420.7,118.6 398.5,171.2 C377,222 346.2,267.7 307,306.9 C267.8,346.1 222.2,376.9 171.4,398.3 C118.8,420.5 62.9,431.8 5.3,431.8 Z M10.3,240 L10.3,421.8 C64.8,421.2 117.6,410.2 167.5,389.1 C217.1,368.1 261.7,338.1 300,299.8 C338.3,261.5 368.3,217 389.3,167.3 C410.4,117.5 421.4,64.6 422,10.1 L240.1,10.1 C238.8,71 214.5,128 171.4,171.2 C128.2,214.4 71.2,238.7 10.3,240 Z" id="Shape" fill="#383A48"></path>
                </g>
                <g transform="translate(274.000000, 13.000000)" fill="#383A48" fill-rule="nonzero" id="Oval">
                    <circle cx="313.3" cy="5.6" r="5"></circle>
                    <circle cx="313.3" cy="49.6" r="5"></circle>
                    <circle cx="313.3" cy="93.6" r="5"></circle>
                    <circle cx="269.3" cy="5.6" r="5"></circle>
                    <circle cx="269.3" cy="49.6" r="5"></circle>
                    <circle cx="269.3" cy="93.6" r="5"></circle>
                    <circle cx="269.3" cy="137.6" r="5"></circle>
                    <circle cx="269.3" cy="181.6" r="5"></circle>
                    <circle cx="225.3" cy="49.6" r="5"></circle>
                    <circle cx="225.3" cy="93.6" r="5"></circle>
                    <circle cx="225.3" cy="137.6" r="5"></circle>
                    <circle cx="225.3" cy="181.6" r="5"></circle>
                    <circle cx="225.3" cy="225.6" r="5"></circle>
                    <circle cx="181.3" cy="137.6" r="5"></circle>
                    <circle cx="181.3" cy="181.6" r="5"></circle>
                    <circle cx="181.3" cy="225.6" r="5"></circle>
                    <circle cx="181.3" cy="269.6" r="5"></circle>
                    <circle cx="137.3" cy="181.6" r="5"></circle>
                    <circle cx="137.3" cy="225.6" r="5"></circle>
                    <circle cx="137.3" cy="269.6" r="5"></circle>
                    <circle cx="93.3" cy="225.6" r="5"></circle>
                    <circle cx="93.3" cy="269.6" r="5"></circle>
                    <circle cx="93.3" cy="313.6" r="5"></circle>
                    <circle cx="49.3" cy="225.6" r="5"></circle>
                    <circle cx="49.3" cy="269.6" r="5"></circle>
                    <circle cx="49.3" cy="313.6" r="5"></circle>
                    <circle cx="5.3" cy="225.6" r="5"></circle>
                    <circle cx="5.3" cy="269.6" r="5"></circle>
                    <circle cx="5.3" cy="313.6" r="5"></circle>
                </g>
            </g>
        </g>
    </g>
</svg>