<?xml version="1.0" encoding="UTF-8"?>
<svg width="1632px" height="726px" viewBox="0 0 1632 726" version="1.1" xmlns="http://www.w3.org/2000/svg" xmlns:xlink="http://www.w3.org/1999/xlink">
    <!-- Generator: Sketch 59.1 (86144) - https://sketch.com -->
    <title>abstract-delete-confirmation</title>
    <desc>Created with Sketch.</desc>
    <g id="Page-1" stroke="none" stroke-width="1" fill="none" fill-rule="evenodd">
        <g id="abstract-delete-confirmation" transform="translate(-174.000000, -189.000000)">
            <g id="Group" transform="translate(174.000000, 189.000000)">
                <g transform="translate(19.000000, 460.000000)" fill="#383A48" fill-rule="nonzero" id="Oval">
                    <circle cx="269" cy="5" r="5"></circle>
                    <circle cx="269" cy="49" r="5"></circle>
                    <circle cx="269" cy="93" r="5"></circle>
                    <circle cx="269" cy="137" r="5"></circle>
                    <circle cx="269" cy="181" r="5"></circle>
                    <circle cx="269" cy="225" r="5"></circle>
                    <circle cx="225" cy="5" r="5"></circle>
                    <circle cx="225" cy="49" r="5"></circle>
                    <circle cx="225" cy="93" r="5"></circle>
                    <circle cx="225" cy="137" r="5"></circle>
                    <circle cx="225" cy="181" r="5"></circle>
                    <circle cx="225" cy="225" r="5"></circle>
                    <circle cx="181" cy="5" r="5"></circle>
                    <circle cx="181" cy="49" r="5"></circle>
                    <circle cx="181" cy="93" r="5"></circle>
                    <circle cx="181" cy="137" r="5"></circle>
                    <circle cx="181" cy="181" r="5"></circle>
                    <circle cx="181" cy="225" r="5"></circle>
                    <circle cx="137" cy="5" r="5"></circle>
                    <circle cx="137" cy="49" r="5"></circle>
                    <circle cx="137" cy="93" r="5"></circle>
                    <circle cx="137" cy="137" r="5"></circle>
                    <circle cx="137" cy="181" r="5"></circle>
                    <circle cx="137" cy="225" r="5"></circle>
                    <circle cx="93" cy="5" r="5"></circle>
                    <circle cx="93" cy="49" r="5"></circle>
                    <circle cx="93" cy="93" r="5"></circle>
                    <circle cx="93" cy="137" r="5"></circle>
                    <circle cx="93" cy="181" r="5"></circle>
                    <circle cx="93" cy="225" r="5"></circle>
                    <circle cx="49" cy="5" r="5"></circle>
                    <circle cx="49" cy="49" r="5"></circle>
                    <circle cx="49" cy="93" r="5"></circle>
                    <circle cx="49" cy="137" r="5"></circle>
                    <circle cx="49" cy="181" r="5"></circle>
                    <circle cx="49" cy="225" r="5"></circle>
                    <circle cx="5" cy="5" r="5"></circle>
                    <circle cx="5" cy="49" r="5"></circle>
                    <circle cx="5" cy="93" r="5"></circle>
                    <circle cx="5" cy="137" r="5"></circle>
                    <circle cx="5" cy="181" r="5"></circle>
                    <circle cx="5" cy="225" r="5"></circle>
                </g>
                <path d="M1626.4,0.3 L1626.4,0.3 L1626.4,0.3 C1626.1,0.3 1625.8,0.3 1625.6,0.3 C1624.8,0.3 1623.7,0.3 1622.1,0.3 C1621.8,0.3 1621.5,0.3 1621.2,0.4 C1566.5,0.6 1110.2,0.3 1105.4,0.3 L1105.4,0.3 C1103.8,0.3 1102.3,1.1 1101.3,2.4 C1100.4,3.7 1100.1,5.4 1100.6,6.9 L1286.6,561.5 C1287.3,563.5 1289.2,564.9 1291.3,564.9 C1291.4,564.9 1291.5,564.9 1291.5,564.9 C1293.7,564.8 1295.6,563.2 1296.1,561 C1298.5,550.6 1300.8,540.5 1303,530.7 C1317.6,466.2 1329.1,415.3 1351.9,370.4 C1376.4,322.1 1412,285.6 1467.1,252 C1511.9,224.7 1527.3,181 1543.7,134.7 C1559.8,89.3 1576.4,42.3 1623.3,10.3 C1624,10.3 1624.6,10.3 1625,10.3 L1626.2,10.3 C1630.1,10.3 1631.5,7.3 1631.5,5.3 C1631.6,3.9 1631.1,0.7 1626.4,0.3 Z" id="Path" fill="#F3F6E6" fill-rule="nonzero"></path>
                <path d="M1110.3,5.6 C1110.3,2.8 1108.1,0.6 1105.3,0.6 C1011.3,0.6 943,15.3 890.1,46.7 C842.2,75.2 811.4,115 778.8,157.1 C747.2,197.9 714.6,240 662,280.8 C601.8,327.5 525.8,363.6 429.6,391.1 C390.3,402.3 358.5,422 332.2,451.3 C308.8,477.3 292.5,507.2 275.2,538.9 C232.3,617.4 187.9,698.5 28.5,715.3 C25.9,715.6 23.9,717.9 23.9964081,720.5 C24.1,723.2 26.3,725.2 29,725.2 L1105.3,725.2 C1106.6,725.2 1107.9,724.7 1108.8,723.7 C1109.7,722.8 1110.3,721.5 1110.3,720.2 L1110.3,5.6 Z" id="Path" fill="#F3F6E6" fill-rule="nonzero"></path>
                <polygon id="Path" fill="#383A48" fill-rule="nonzero" points="890.5 494.6 677.6 725.3 1105.4 725.3"></polygon>
                <g transform="translate(1435.000000, 75.000000)">
                    <rect id="Rectangle" fill="#383A48" fill-rule="nonzero" x="11.9" y="0.5" width="10" height="33"></rect>
                    <g transform="translate(0.000000, 12.000000)">
                        <line x1="0.4" y1="5" x2="33.4" y2="5" id="Path"></line>
                        <rect id="Rectangle" fill="#383A48" fill-rule="nonzero" x="0.4" y="0" width="33" height="10"></rect>
                    </g>
                </g>
                <g transform="translate(341.000000, 588.000000)">
                    <rect id="Rectangle" fill="#383A48" fill-rule="nonzero" x="12.4" y="0.2" width="10" height="33"></rect>
                    <g transform="translate(0.000000, 11.000000)">
                        <line x1="0.9" y1="5.6" x2="33.9" y2="5.6" id="Path"></line>
                        <rect id="Rectangle" fill="#383A48" fill-rule="nonzero" x="0.9" y="0.6" width="33" height="10"></rect>
                    </g>
                </g>
                <g transform="translate(866.000000, 0.000000)">
                    <g fill-rule="nonzero">
                        <g transform="translate(0.000000, 30.000000)">
                            <path d="M26.7,502.6 L5.4,197.8 C5.4,197.8 46.5,5.4 230.5,5.4 C414.5,5.4 450.4,197.8 450.4,197.8 L429.1,502.6 C421.7,608.3 333.8,690.3 227.9,690.3 L227.9,690.3 C121.9,690.3 34.1,608.3 26.7,502.6 Z" id="SVGID_1_" fill="#AAC6FC"></path>
                            <path d="M227.9,695.3 C175.4,695.3 125.3,675.6 86.9,639.8 C48.5,604 25.3,555.4 21.7,503 L0.4,198.2 C0.4,197.7 0.4,197.3 0.5,196.8 C0.9,194.8 11.4,147.2 44.8,98.8 C64.5,70.3 88.2,47.6 115.1,31.2 C148.8,10.8 187.6,0.4 230.5,0.4 C273.4,0.4 312,10.8 345.1,31.2 C371.6,47.5 394.6,70.3 413.6,98.8 C445.8,147.2 454.9,194.8 455.3,196.8 C455.4,197.2 455.4,197.6 455.4,198.1 L434.1,503 C430.4,555.4 407.3,604 368.9,639.8 C330.5,675.6 280.4,695.3 227.9,695.3 Z M31.7,502.3 C35.2,552.2 57.2,598.4 93.8,632.5 C130.3,666.6 178,685.4 228,685.4 C278,685.4 325.6,666.6 362.2,632.5 C398.7,598.4 420.8,552.2 424.3,502.3 L445.5,198.1 C444.3,192.5 434.5,148 405.2,104.1 C387,76.9 365,55.2 339.8,39.6 C308.3,20.2 271.6,10.4 230.6,10.4 C189.6,10.4 152.5,20.3 120.4,39.7 C94.7,55.3 72.1,77.1 53.2,104.4 C22.9,148.1 12,192.2 10.6,198.1 L31.7,502.3 Z" id="SVGID_2_" fill="#383A48"></path>
                        </g>
                        <g transform="translate(0.000000, 250.000000)">
                            <path d="M450.4,32.8 C450.4,155.7 350.8,255.3 227.9,255.3 C105,255.3 5.4,155.7 5.4,32.8 C5.4,30.5 5.4,28.3 5.5,26 C5.7,19 6.2,12.1 7.1,5.3 C11.8,43.6 26.3,78.9 48,108.7 C88.4,164.2 154,200.3 227.9,200.3 C301.8,200.3 367.4,164.2 407.8,108.7 C429.5,79 443.9,43.7 448.7,5.3 C449.5,12.1 450.1,19 450.3,26 C450.4,28.3 450.4,30.5 450.4,32.8 Z" id="Path" fill="#AAC6FC"></path>
                            <path d="M227.9,260.3 C167.1,260.3 110,236.6 67,193.7 C24,150.7 0.4,93.6 0.4,32.8 C0.4,30.4 0.4,28.1 0.5,25.9 C0.7,18.8 1.3,11.7 2.1,4.7 C2.4,2.2 4.5,0.3 7.1,0.3 C9.7,0.3 11.8,2.2 12.1,4.7 C16.6,41.1 30.4,76 52.1,105.7 C71.9,132.8 98,155.4 127.8,170.8 C158.5,186.8 193.2,195.2 228,195.2 C262.9,195.2 297.5,186.8 328.2,170.8 C357.9,155.3 384.1,132.8 403.9,105.7 C425.5,76 439.4,41.1 443.9,4.7 C444.2,2.2 446.3,0.3 448.9,0.3 L448.9,0.3 C451.4,0.3 453.6,2.2 453.9,4.7 C454.8,11.7 455.3,18.8 455.5,25.9 C455.6,28.1 455.6,30.4 455.6,32.8 C455.6,93.6 431.9,150.7 389,193.7 C346.1,236.7 288.7,260.3 227.9,260.3 Z M10.8,45.8 C13.9,99 36.1,148.5 74.1,186.5 C115.2,227.6 169.8,250.2 227.9,250.2 C286,250.2 340.6,227.6 381.7,186.5 C419.7,148.5 441.9,99 445,45.8 C437.6,69.3 426.4,91.6 411.9,111.6 C391.2,140 363.9,163.5 332.8,179.7 C300.7,196.4 264.4,205.2 228,205.2 C191.5,205.2 155.3,196.4 123.2,179.7 C92.1,163.5 64.7,140 44.1,111.6 C29.3,91.6 18.2,69.3 10.8,45.8 Z" id="Shape" fill="#383A48"></path>
                        </g>
                        <g transform="translate(43.000000, 249.000000)">
                            <path d="M364.8,109.7 C324.4,165.2 258.8,201.3 184.9,201.3 C111,201.3 45.4,165.2 5,109.7 C45.5,48.4 111,5.1 184.9,5.1 C258.8,5.1 324.4,48.4 364.8,109.7 Z" id="Path" fill="#AAC6FC"></path>
                            <path d="M184.9,206.3 C148.4,206.3 112.2,197.5 80.1,180.8 C49,164.6 21.6,141.1 1,112.7 C-0.2,111 -0.3,108.7 0.9,107 C45.1,40.1 113.9,0.1 185,0.1 C256.1,0.1 324.9,40 369.1,107 C370.2,108.7 370.2,111 369,112.7 C348.3,141.1 321,164.6 289.9,180.8 C257.6,197.4 221.4,206.3 184.9,206.3 Z M11.1,109.5 C30.6,135.4 56,156.9 84.7,171.8 C115.4,187.8 150.1,196.2 184.9,196.2 C219.8,196.2 254.4,187.8 285.1,171.8 C313.8,156.9 339.2,135.4 358.7,109.5 C316.3,47.2 251.6,10 184.9,10 C118.2,10.1 53.4,47.2 11.1,109.5 Z" id="Shape" fill="#383A48"></path>
                        </g>
                        <g transform="translate(77.000000, 284.000000)" fill="#383A48" id="Oval">
                            <circle cx="313" cy="49" r="5"></circle>
                            <circle cx="313" cy="93" r="5"></circle>
                            <circle cx="269" cy="49" r="5"></circle>
                            <circle cx="269" cy="93" r="5"></circle>
                            <circle cx="225" cy="5" r="5"></circle>
                            <circle cx="225" cy="49" r="5"></circle>
                            <circle cx="225" cy="93" r="5"></circle>
                            <circle cx="225" cy="137" r="5"></circle>
                            <circle cx="181" cy="5" r="5"></circle>
                            <circle cx="181" cy="49" r="5"></circle>
                            <circle cx="181" cy="93" r="5"></circle>
                            <circle cx="181" cy="137" r="5"></circle>
                            <circle cx="137" cy="5" r="5"></circle>
                            <circle cx="137" cy="49" r="5"></circle>
                            <circle cx="137" cy="93" r="5"></circle>
                            <circle cx="137" cy="137" r="5"></circle>
                            <circle cx="93" cy="5" r="5"></circle>
                            <circle cx="93" cy="49" r="5"></circle>
                            <circle cx="93" cy="93" r="5"></circle>
                            <circle cx="93" cy="137" r="5"></circle>
                            <circle cx="49" cy="5" r="5"></circle>
                            <circle cx="49" cy="49" r="5"></circle>
                            <circle cx="49" cy="93" r="5"></circle>
                            <circle cx="49" cy="137" r="5"></circle>
                            <circle cx="5" cy="49" r="5"></circle>
                            <circle cx="5" cy="93" r="5"></circle>
                        </g>
                        <path d="M450.4,227.8 C450.4,237.1 449.8,246.3 448.7,255.3 C435.2,145.4 341.5,60.3 227.9,60.3 C114.3,60.3 20.6,145.4 7.1,255.3 C6,246.3 5.4,237.1 5.4,227.8 C5.4,104.9 105,5.3 227.9,5.3 C350.8,5.3 450.4,104.9 450.4,227.8 Z" id="Path" fill="#383A48"></path>
                        <path d="M388.8,66.9 C345.8,23.9 288.7,0.3 227.9,0.3 C167.1,0.3 110,24 67,66.9 C24,109.9 0.4,167 0.4,227.8 C0.4,244.2 2.1,260.4 5.5,276 C14.6,318.4 35.7,357.3 67,388.6 C110,431.6 167.1,455.2 227.9,455.2 C288.7,455.2 345.8,431.5 388.8,388.6 C420.2,357.3 441.2,318.4 450.3,276 C453.7,260.3 455.4,244.2 455.4,227.7 C455.4,167 431.7,109.9 388.8,66.9 Z M407.8,358.7 C367.4,414.2 301.8,450.3 227.9,450.3 C154,450.3 88.4,414.2 48,358.7 C26.3,329 11.9,293.7 7.1,255.3 C20.6,145.4 114.3,60.3 227.9,60.3 C341.5,60.3 435.2,145.4 448.7,255.3 C444,293.6 429.5,328.9 407.8,358.7 Z" id="Shape" fill="#383A48"></path>
                    </g>
                    <path d="M376.6,658 C373.8,658 371.6,655.8 371.6,653 L371.6,502 C371.6,499.2 373.8,497 376.6,497 C379.4,497 381.6,499.2 381.6,502 L381.6,653 C381.6,655.8 379.4,658 376.6,658 Z" id="Path" fill="#383A48" fill-rule="nonzero"></path>
                    <path d="M286.6,716.3 C283.8,716.3 281.6,714.1 281.6,711.3 L281.6,550 C281.6,547.2 283.8,545 286.6,545 C289.4,545 291.6,547.2 291.6,550 L291.6,711.3 C291.6,714 289.4,716.3 286.6,716.3 Z" id="Path" fill="#383A48" fill-rule="nonzero"></path>
                    <g transform="translate(74.000000, 497.000000)" id="Path">
                        <line x1="5.2" y1="5" x2="5.2" y2="156"></line>
                        <path d="M5.2,161 C2.4,161 0.2,158.8 0.2,156 L0.2,5 C0.2,2.2 2.4,0 5.2,0 C8,0 10.2,2.2 10.2,5 L10.2,156 C10.2,158.8 7.9,161 5.2,161 Z" fill="#383A48" fill-rule="nonzero"></path>
                    </g>
                    <g transform="translate(164.000000, 545.000000)" id="Path">
                        <line x1="5.2" y1="5" x2="5.2" y2="166.3"></line>
                        <path d="M5.2,171.3 C2.4,171.3 0.2,169.1 0.2,166.3 L0.2,5 C0.2,2.2 2.4,0 5.2,0 C8,0 10.2,2.2 10.2,5 L10.2,166.3 C10.2,169 7.9,171.3 5.2,171.3 Z" fill="#383A48" fill-rule="nonzero"></path>
                    </g>
                </g>
                <g transform="translate(0.000000, 35.000000)" fill-rule="nonzero">
                    <g>
                        <circle id="Oval" fill="#F6E049" cx="86.2" cy="86.1" r="80.7"></circle>
                        <path d="M86,171.8 C66.6,171.8 47.9,165.2 32.5,152.9 C14.6,138.6 3.4,118.1 0.9,95.4 C-4.2,48.4 29.8,6 76.8,0.8 C99.6,-1.7 121.9,4.8 139.8,19.2 C157.7,33.5 168.9,54 171.4,76.7 C173.9,99.5 167.4,121.8 153,139.7 C138.7,157.6 118.2,168.8 95.5,171.3 C92.3,171.7 89.2,171.8 86,171.8 Z M86.3,10.3 C83.5,10.3 80.7,10.5 77.9,10.8 C36.4,15.3 6.3,52.8 10.8,94.3 C13,114.4 22.9,132.5 38.7,145.1 C54.5,157.8 74.2,163.5 94.4,161.3 C114.5,159.1 132.6,149.2 145.2,133.4 C157.8,117.6 163.6,97.9 161.4,77.7 C159.2,57.6 149.3,39.5 133.5,26.9 C120,16.1 103.5,10.3 86.3,10.3 Z" id="Shape" fill="#383A48"></path>
                    </g>
                    <g transform="translate(89.000000, 71.000000)">
                        <circle id="Oval" fill="#F6E049" cx="86.2" cy="86.6" r="80.7"></circle>
                        <path d="M86.1,172.3 C66.7,172.3 48,165.7 32.6,153.4 C14.7,139.1 3.5,118.6 1,95.9 C-4.1,48.9 29.9,6.5 76.9,1.3 C99.7,-1.2 122,5.3 139.9,19.7 C157.8,34.1 169,54.5 171.5,77.2 L171.5,77.2 C176.6,124.2 142.6,166.6 95.6,171.8 C92.4,172.2 89.2,172.3 86.1,172.3 Z M86.4,10.8 C83.6,10.8 80.8,11 78,11.3 C36.5,15.8 6.4,53.3 10.9,94.8 C13.1,114.9 23,133 38.8,145.6 C54.6,158.3 74.3,164 94.5,161.8 C136,157.3 166.1,119.8 161.6,78.3 C159.4,58.2 149.5,40.1 133.7,27.5 C120.1,16.6 103.5,10.8 86.4,10.8 Z" id="Shape" fill="#383A48"></path>
                    </g>
                    <path d="M461.7,472 C460.2,472 458.7,471.3 457.7,470 C415.7,413 359.8,352.6 291.6,290.5 C289.6,288.6 289.4,285.5 291.3,283.4 C293.2,281.4 296.3,281.2 298.4,283.1 C367,345.7 423.4,406.5 465.8,464 C467.4,466.2 467,469.4 464.7,471 C463.8,471.7 462.8,472 461.7,472 Z" id="Path" fill="#383A48"></path>
                </g>
                <path d="M1441.5,419.3 L1554.9,419.3 L1587.7,461 L1569.4,547.7 L1519.1,589.4 L1489.8,589.4 L1481.9,625.6 L1420.2,625.6 L1431.4,572.3 L1466,544 L1497.4,544 L1510.8,532.6 L1521.2,484.4 L1510.8,471 L1464.8,471 L1433.2,498.7 L1397,457.8 L1441.5,419.3 Z M1404.2,711.3 L1416,656.3 L1477.7,656.3 L1465.9,711.3 L1404.2,711.3 Z" id="Shape" fill="#383A48" fill-rule="nonzero"></path>
                <g transform="translate(290.000000, 0.000000)" fill-rule="nonzero">
                    <g>
                        <rect id="Rectangle" fill="#F3F6E6" x="5" y="5.3" width="424" height="404.7"></rect>
                        <path d="M429,415 L5,415 C2.2,415 0,412.8 0,410 L0,5.3 C0,2.5 2.2,0.3 5,0.3 L429,0.3 C431.8,0.3 434,2.5 434,5.3 L434,410 C434,412.8 431.8,415 429,415 Z M10,405 L424,405 L424,10.3 L10,10.3 L10,405 Z" id="Shape" fill="#383A48"></path>
                    </g>
                    <g fill="#383A48">
                        <rect id="Rectangle" x="5" y="5.3" width="424" height="122.5"></rect>
                        <path d="M429,132.8 L5,132.8 C2.2,132.8 0,130.6 0,127.8 L0,5.3 C0,2.5 2.2,0.3 5,0.3 L429,0.3 C431.8,0.3 434,2.5 434,5.3 L434,127.8 C434,130.5 431.8,132.8 429,132.8 Z M10,122.8 L424,122.8 L424,10.3 L10,10.3 L10,122.8 Z" id="Shape"></path>
                    </g>
                    <rect id="Rectangle" fill="#C5C5C5" x="65" y="179" width="307" height="37"></rect>
                    <rect id="Rectangle" fill="#C5C5C5" x="65" y="253" width="201" height="37"></rect>
                </g>
                <path d="M517.8,707 C515.1,707 512.4,706.4 509.9,705.2 C503.1,702 491.6,691.7 491.9,658.5 C492.2,628.7 495.1,599.2 500.6,570.3 C485.6,544 469.3,520.6 457.7,504.9 C456.1,502.7 456.5,499.5 458.8,497.9 C461,496.3 464.2,496.7 465.8,499 C476.1,513 490.1,533 503.7,555.7 C519.1,486.2 549.4,420.8 592.6,365.3 C656.7,282.9 742.6,230.9 834.4,218.8 C837.1,218.4 839.6,220.4 840,223.1 C840.4,225.8 838.4,228.3 835.7,228.7 C746.5,240.5 662.9,291.1 600.5,371.4 C556,428.5 525.5,496.5 511.2,568.6 C524.6,592.4 536.8,618.4 543.8,643.2 C551.9,672.1 542.8,692.5 532.5,701.2 C527.9,705 522.8,707 517.8,707 Z M508.3,584.3 C504.3,608.8 502.1,633.7 501.9,658.7 C501.7,688.1 511.2,694.8 514.1,696.2 C519,698.5 523.6,695.6 525.9,693.6 C534.5,686.3 540.4,668.7 534,645.9 C528.4,625.6 519,604.4 508.3,584.3 Z" id="Shape" fill="#383A48" fill-rule="nonzero"></path>
            </g>
        </g>
    </g>
</svg>