<?xml version="1.0" encoding="utf-8"?>
<!-- Generator: Adobe Illustrator 22.0.1, SVG Export Plug-In . SVG Version: 6.00 Build 0)  -->
<svg version="1.1" id="Layer_1" xmlns="http://www.w3.org/2000/svg" xmlns:xlink="http://www.w3.org/1999/xlink" x="0px" y="0px" viewBox="0 0 1920 1080" style="enable-background:new 0 0 1920 1080;" xml:space="preserve">

<rect y="0" width="1920" height="1080" style="fill:#E0719E;"/>
<g>
	<path d="M824.4,160.5c-0.9-1.5-2.5-2.4-4.2-2.4H243.9c-1.3,0-2.6,0.5-3.5,1.5c-0.9,0.9-1.5,2.2-1.5,3.5v423.5
		c0,2.5,1.8,4.6,4.2,4.9c0.3,0,0.5,0.1,0.8,0.1c2.1,0,4.1-1.4,4.8-3.5c0.1-0.4,15-45.1,54.7-90.7c23.2-26.7,50.3-48.4,80.4-64.7
		c37.7-20.3,80.4-32,126.9-34.8c97.4-5.9,176-38.9,233.7-98.2c46.5-47.8,66.5-99.2,76-123.9c1.8-4.7,3.3-8.5,4.3-10.6
		C825.4,163.8,825.3,162,824.4,160.5z" style="fill:#F3F6E6;"/>
	<g>
		<g>
			<line x1="394.8" y1="288.9" x2="418.1" y2="265.6" style="fill:none;"/>
			
				<rect x="390" y="272.2" transform="matrix(0.7071 -0.7071 0.7071 0.7071 -76.9438 368.6045)" width="33" height="10" style="fill:#383A48;"/>
		</g>
		<g>
			<line x1="418.1" y1="288.9" x2="394.8" y2="265.6" style="fill:none;"/>
			
				<rect x="401.4" y="260.7" transform="matrix(0.7071 -0.7071 0.7071 0.7071 -76.9974 368.5639)" width="10" height="33" style="fill:#383A48;"/>
		</g>
	</g>
	<path d="M1674.7,158.1H938.9c-2.8,0-5,2.2-5,5v526.7c0,2.8,2.2,5,5,5h735.9c2.8,0,5-2.2,5-5V163.1
		C1679.7,160.4,1677.5,158.1,1674.7,158.1z" style="fill:#4053FA;"/>
	<g>
		<g>
			<path d="M990.7,264.7h137.2v27.4h-109.8v27.4h82.3V347h-82.3v27.4h109.8v27.1H990.7V264.7z" style="fill:#F3F6E6;"/>
		</g>
		<g>
			<path d="M1151.1,264.7h109.8v27.4h-82.3v27.4h82.3V347h-82.3v54.5h-27.4L1151.1,264.7L1151.1,264.7z M1260.9,292.1
				h27.4v27.4h-27.4V292.1z M1260.9,347h27.4v54.5h-27.4V347z" style="fill:#F3F6E6;"/>
		</g>
		<g>
			<path d="M1311.5,264.7h109.8v27.4H1339v27.4h82.3V347H1339v54.5h-27.4L1311.5,264.7L1311.5,264.7z M1421.3,292.1
				h27.4v27.4h-27.4V292.1z M1421.3,347h27.4v54.5h-27.4V347z" style="fill:#F3F6E6;"/>
		</g>
		<g>
			<path d="M990.7,450.4h27.4v82.3h-27.4V450.4z M1018.1,422.9h82.3v27.4h-82.3L1018.1,422.9L1018.1,422.9z
				 M1018.1,532.7h82.3v27.1h-82.3L1018.1,532.7L1018.1,532.7z M1100.5,450.4h27.4v82.3h-27.4V450.4z" style="fill:#F3F6E6;"/>
		</g>
		<g>
			<path d="M1151.1,422.9h109.8v27.4h-82.3v27.4h82.3v27.4h-82.3v54.5h-27.4L1151.1,422.9L1151.1,422.9z M1260.9,450.4
				h27.4v27.4h-27.4V450.4z M1260.9,505.3h27.4v54.5h-27.4V505.3z" style="fill:#F3F6E6;"/>
		</g>
	</g>
	<g>
		<g>
			<circle cx="1239.8" cy="807.8" r="109.1" style="fill:#E0719E;"/>
			<path d="M1239.8,921.9c-62.9,0-114.1-51.2-114.1-114.1s51.2-114.1,114.1-114.1s114.1,51.2,114.1,114.1
				S1302.7,921.9,1239.8,921.9z M1239.8,703.7c-57.4,0-104.1,46.7-104.1,104.1s46.7,104.1,104.1,104.1s104.1-46.7,104.1-104.1
				S1297.2,703.7,1239.8,703.7z" style="fill:#383A48;"/>
		</g>
		<g>
			<circle cx="1275.7" cy="792.6" r="8.7" style="fill:#383A48;"/>
			<path d="M1275.7,806.3c-7.6,0-13.7-6.2-13.7-13.7s6.2-13.7,13.7-13.7s13.7,6.1,13.7,13.7S1283.3,806.3,1275.7,806.3z
				 M1275.7,788.8c-2,0-3.7,1.7-3.7,3.7s1.7,3.7,3.7,3.7s3.7-1.7,3.7-3.7C1279.4,790.5,1277.7,788.8,1275.7,788.8z" style="fill:#383A48;"/>
		</g>
		<g>
			<circle cx="1203.8" cy="792.6" r="8.7" style="fill:#383A48;"/>
			<path d="M1203.8,806.3c-7.6,0-13.7-6.2-13.7-13.7s6.2-13.7,13.7-13.7s13.7,6.1,13.7,13.7S1211.4,806.3,1203.8,806.3z
				 M1203.8,788.8c-2,0-3.7,1.7-3.7,3.7s1.7,3.7,3.7,3.7s3.7-1.7,3.7-3.7S1205.9,788.8,1203.8,788.8z" style="fill:#383A48;"/>
		</g>
		<g>
			<path d="M1203.8,853.9c7.2-12.4,20.6-20.8,35.9-20.8c15.4,0,28.8,8.4,36,20.8" style="fill:#E0719E;"/>
			<path d="M1275.7,859c-1.7,0-3.4-0.9-4.3-2.5c-6.5-11.3-18.6-18.3-31.6-18.3s-25.1,7-31.6,18.3
				c-1.4,2.4-4.4,3.2-6.8,1.8s-3.2-4.4-1.8-6.8c8.3-14.3,23.7-23.3,40.3-23.3c16.6,0,32,8.9,40.3,23.3c1.4,2.4,0.6,5.5-1.8,6.8
				C1277.4,858.8,1276.5,859,1275.7,859z" style="fill:#383A48;"/>
		</g>
	</g>
	<g>
		<g>
			<circle cx="1348.9" cy="807.8" r="109.1" style="fill:#E0719E;"/>
			<path d="M1348.9,921.9c-62.9,0-114.1-51.2-114.1-114.1s51.2-114.1,114.1-114.1S1463,744.9,1463,807.8
				S1411.8,921.9,1348.9,921.9z M1348.9,703.7c-57.4,0-104.1,46.7-104.1,104.1s46.7,104.1,104.1,104.1S1453,865.2,1453,807.8
				S1406.3,703.7,1348.9,703.7z" style="fill:#383A48;"/>
		</g>
		<g>
			<circle cx="1384.8" cy="792.6" r="8.7" style="fill:#383A48;"/>
			<path d="M1384.8,806.3c-7.6,0-13.7-6.2-13.7-13.7s6.2-13.7,13.7-13.7s13.7,6.1,13.7,13.7S1392.3,806.3,1384.8,806.3z
				 M1384.8,788.8c-2,0-3.7,1.7-3.7,3.7s1.7,3.7,3.7,3.7s3.7-1.7,3.7-3.7S1386.8,788.8,1384.8,788.8z" style="fill:#383A48;"/>
		</g>
		<g>
			<circle cx="1312.9" cy="792.6" r="8.7" style="fill:#383A48;"/>
			<path d="M1312.9,806.3c-7.6,0-13.7-6.2-13.7-13.7s6.2-13.7,13.7-13.7s13.7,6.1,13.7,13.7S1320.5,806.3,1312.9,806.3z
				 M1312.9,788.8c-2,0-3.7,1.7-3.7,3.7s1.7,3.7,3.7,3.7s3.7-1.7,3.7-3.7S1315,788.8,1312.9,788.8z" style="fill:#383A48;"/>
		</g>
		<g>
			<path d="M1312.9,853.9c7.2-12.4,20.6-20.8,35.9-20.8c15.4,0,28.8,8.4,36,20.8" style="fill:#E0719E;"/>
			<path d="M1384.8,859c-1.7,0-3.4-0.9-4.3-2.5c-6.5-11.3-18.6-18.3-31.6-18.3s-25.1,7-31.6,18.3
				c-1.4,2.4-4.4,3.2-6.8,1.8s-3.2-4.4-1.8-6.8c8.3-14.3,23.7-23.3,40.3-23.3c16.6,0,32,8.9,40.3,23.3c1.4,2.4,0.6,5.5-1.8,6.8
				C1386.5,858.8,1385.6,859,1384.8,859z" style="fill:#383A48;"/>
		</g>
	</g>
	<g>
		<g>
			<circle cx="1458" cy="807.8" r="109.1" style="fill:#E0719E;"/>
			<path d="M1458,921.9c-62.9,0-114.1-51.2-114.1-114.1S1395,693.7,1458,693.7s114,51.2,114,114.1
				S1520.9,921.9,1458,921.9z M1458,703.7c-57.4,0-104.1,46.7-104.1,104.1s46.7,104.1,104.1,104.1s104-46.7,104-104.1
				S1515.4,703.7,1458,703.7z" style="fill:#383A48;"/>
		</g>
		<g>
			<circle cx="1493.9" cy="792.6" r="8.7" style="fill:#383A48;"/>
			<path d="M1493.9,806.3c-7.6,0-13.7-6.2-13.7-13.7s6.2-13.7,13.7-13.7s13.7,6.1,13.7,13.7S1501.4,806.3,1493.9,806.3z
				 M1493.9,788.8c-2,0-3.7,1.7-3.7,3.7s1.7,3.7,3.7,3.7s3.7-1.7,3.7-3.7S1495.9,788.8,1493.9,788.8z" style="fill:#383A48;"/>
		</g>
		<g>
			<circle cx="1422" cy="792.6" r="8.7" style="fill:#383A48;"/>
			<path d="M1422,806.3c-7.6,0-13.7-6.2-13.7-13.7s6.2-13.7,13.7-13.7s13.7,6.1,13.7,13.7S1429.6,806.3,1422,806.3z
				 M1422,788.8c-2,0-3.7,1.7-3.7,3.7s1.7,3.7,3.7,3.7s3.7-1.7,3.7-3.7S1424.1,788.8,1422,788.8z" style="fill:#383A48;"/>
		</g>
		<g>
			<path d="M1422,853.9c7.2-12.4,20.6-20.8,35.9-20.8c15.4,0,28.8,8.4,36,20.8" style="fill:#E0719E;"/>
			<path d="M1493.9,859c-1.7,0-3.4-0.9-4.3-2.5c-6.5-11.3-18.6-18.3-31.6-18.3s-25.1,7-31.6,18.3
				c-1.4,2.4-4.4,3.2-6.8,1.8s-3.2-4.4-1.8-6.8c8.3-14.3,23.7-23.3,40.3-23.3c16.6,0,32,8.9,40.3,23.3c1.4,2.4,0.6,5.5-1.8,6.8
				C1495.6,858.8,1494.7,859,1493.9,859z" style="fill:#383A48;"/>
		</g>
	</g>
	<g>
		<g>
			<circle cx="1567" cy="807.8" r="109.1" style="fill:#E0719E;"/>
			<path d="M1567,921.9c-62.9,0-114.1-51.2-114.1-114.1s51.2-114.1,114.1-114.1s114.1,51.2,114.1,114.1
				S1630,921.9,1567,921.9z M1567,703.7c-57.4,0-104.1,46.7-104.1,104.1s46.7,104.1,104.1,104.1s104.1-46.7,104.1-104.1
				S1624.4,703.7,1567,703.7z" style="fill:#383A48;"/>
		</g>
		<g>
			<circle cx="1603" cy="792.6" r="8.7" style="fill:#383A48;"/>
			<path d="M1603,806.3c-7.6,0-13.7-6.2-13.7-13.7s6.1-13.7,13.7-13.7s13.7,6.1,13.7,13.7S1610.5,806.3,1603,806.3z
				 M1603,788.8c-2,0-3.7,1.7-3.7,3.7s1.7,3.7,3.7,3.7s3.7-1.7,3.7-3.7S1605,788.8,1603,788.8z" style="fill:#383A48;"/>
		</g>
		<g>
			<circle cx="1531.1" cy="792.6" r="8.7" style="fill:#383A48;"/>
			<path d="M1531.1,806.3c-7.6,0-13.7-6.2-13.7-13.7s6.2-13.7,13.7-13.7s13.7,6.1,13.7,13.7S1538.7,806.3,1531.1,806.3z
				 M1531.1,788.8c-2,0-3.7,1.7-3.7,3.7s1.7,3.7,3.7,3.7s3.7-1.7,3.7-3.7C1534.8,790.5,1533.2,788.8,1531.1,788.8z" style="fill:#383A48;"/>
		</g>
		<g>
			<path d="M1531.1,853.9c7.2-12.4,20.6-20.8,35.9-20.8c15.4,0,28.8,8.4,36,20.8" style="fill:#E0719E;"/>
			<path d="M1603,859c-1.7,0-3.4-0.9-4.3-2.5c-6.5-11.3-18.6-18.3-31.6-18.3s-25.1,7-31.6,18.3
				c-1.4,2.4-4.4,3.2-6.8,1.8s-3.2-4.4-1.8-6.8c8.3-14.3,23.7-23.3,40.3-23.3c16.6,0,32,8.9,40.3,23.3c1.4,2.4,0.6,5.5-1.8,6.8
				C1604.7,858.8,1603.8,859,1603,859z" style="fill:#383A48;"/>
		</g>
	</g>
	<path d="M1679.7,163.1c0-2.8-2.2-5-5-5h-367.9c-2.8,0-5,2.2-5,5s2.2,5,5,5c150.9,0,199.2,114.9,241.7,216.2
		c15.8,37.8,30.8,73.4,50,99.7c22,30.2,46.7,44.3,77.6,44.3c1.3,0,2.6-0.5,3.5-1.5c0.9-0.9,1.5-2.2,1.5-3.5L1679.7,163.1z" style="fill:#F3F6E6;"/>
	<g>
		<path d="M1376.9,431.5c-1.3,0-2.6-0.5-3.5-1.5c-2-2-2-5.1,0-7.1l229.1-229.1c2-2,5.1-2,7.1,0s2,5.1,0,7.1L1380.5,430
			C1379.5,431,1378.2,431.5,1376.9,431.5z" style="fill:#E0719E;"/>
	</g>
	<g>
		<path d="M1023.8,812.8H872.3c-2.8,0-5-2.2-5-5s2.2-5,5-5h151.6c2.8,0,5,2.2,5,5S1026.6,812.8,1023.8,812.8z" style="fill:#383A48;"/>
	</g>
	<g>
		<g>
			<path d="M787,651.6H243.9v117.8c0,74.3,60.2,134.5,134.5,134.5H787V651.6z" style="fill:#F3F6E6;"/>
			<path d="M787,908.9H378.3c-76.9,0-139.5-62.6-139.5-139.5V651.6c0-2.8,2.2-5,5-5H787c2.8,0,5,2.2,5,5v252.3
				C792,906.6,789.8,908.9,787,908.9z M248.9,656.6v112.8c0,71.4,58.1,129.5,129.5,129.5H782V656.6H248.9z" style="fill:#383A48;"/>
		</g>
		<g>
			<rect x="243.9" y="586.7" width="543.1" height="112" style="fill:#E0719E;"/>
			<path d="M787,703.7H243.9c-2.8,0-5-2.2-5-5v-112c0-2.8,2.2-5,5-5H787c2.8,0,5,2.2,5,5v112
				C792,701.4,789.8,703.7,787,703.7z M248.9,693.7H782v-102H248.9V693.7z" style="fill:#383A48;"/>
		</g>
		<g>
			<rect x="393.4" y="772" width="244" height="71.6" style="fill:#F3F6E6;"/>
			<path d="M637.4,848.6h-244c-2.8,0-5-2.2-5-5V772c0-2.8,2.2-5,5-5h244c2.8,0,5,2.2,5,5v71.6
				C642.4,846.3,640.2,848.6,637.4,848.6z M398.4,838.6h234V777h-234L398.4,838.6L398.4,838.6z" style="fill:#383A48;"/>
		</g>
		<g>
			<g>
				<line x1="283.8" y1="623.8" x2="321.6" y2="661.5" style="fill:none;"/>
				
					<rect x="297.7" y="616" transform="matrix(0.7071 -0.7071 0.7071 0.7071 -365.7876 402.2895)" width="10" height="53.4" style="fill:#383A48;"/>
			</g>
			<g>
				<line x1="283.8" y1="661.5" x2="321.6" y2="623.8" style="fill:none;"/>
				
					<rect x="276" y="637.7" transform="matrix(0.7071 -0.7071 0.7071 0.7071 -365.8158 402.2908)" width="53.4" height="10" style="fill:#383A48;"/>
			</g>
		</g>
	</g>
	<g>
		<path d="M932,163.1c0,232.9-188.8,421.7-421.7,421.7V393c127,0,229.9-102.9,229.9-229.9H932z" style="fill:#F6E049;"/>
		<path d="M510.3,589.8c-2.8,0-5-2.2-5-5V393c0-2.8,2.2-5,5-5c60.1,0,116.5-23.4,159-65.9s65.9-99,65.9-159
			c0-2.8,2.2-5,5-5H932c2.8,0,5,2.2,5,5c0,57.6-11.3,113.5-33.5,166.1C882,380,851.2,425.7,812,464.9s-84.8,70-135.6,91.4
			C623.8,578.5,567.9,589.8,510.3,589.8z M515.3,398v181.8c54.5-0.6,107.3-11.6,157.2-32.7c49.6-21,94.2-51,132.5-89.3
			s68.3-82.8,89.3-132.5c21.1-49.8,32.1-102.7,32.7-157.2H745.1c-1.3,60.9-25.6,117.9-68.7,161.1C633.2,372.4,576.2,396.7,515.3,398
			z" style="fill:#383A48;"/>
	</g>
	<g>
		<g>
			<g>
				<circle cx="825.3" cy="176.6" r="5" style="fill:#383A48;"/>
			</g>
		</g>
		<g>
			<g>
				<circle cx="825.3" cy="220.6" r="5" style="fill:#383A48;"/>
			</g>
		</g>
		<g>
			<g>
				<circle cx="825.3" cy="264.6" r="5" style="fill:#383A48;"/>
			</g>
		</g>
		<g>
			<g>
				<circle cx="781.3" cy="176.6" r="5" style="fill:#383A48;"/>
			</g>
		</g>
		<g>
			<g>
				<circle cx="781.3" cy="220.6" r="5" style="fill:#383A48;"/>
			</g>
		</g>
		<g>
			<g>
				<circle cx="781.3" cy="264.6" r="5" style="fill:#383A48;"/>
			</g>
		</g>
		<g>
			<g>
				<circle cx="781.3" cy="308.6" r="5" style="fill:#383A48;"/>
			</g>
		</g>
		<g>
			<g>
				<circle cx="781.3" cy="352.6" r="5" style="fill:#383A48;"/>
			</g>
		</g>
		<g>
			<g>
				<circle cx="737.3" cy="220.6" r="5" style="fill:#383A48;"/>
			</g>
		</g>
		<g>
			<g>
				<circle cx="737.3" cy="264.6" r="5" style="fill:#383A48;"/>
			</g>
		</g>
		<g>
			<g>
				<circle cx="737.3" cy="308.6" r="5" style="fill:#383A48;"/>
			</g>
		</g>
		<g>
			<g>
				<circle cx="737.3" cy="352.6" r="5" style="fill:#383A48;"/>
			</g>
		</g>
		<g>
			<g>
				<circle cx="737.3" cy="396.6" r="5" style="fill:#383A48;"/>
			</g>
		</g>
		<g>
			<g>
				<circle cx="693.3" cy="308.6" r="5" style="fill:#383A48;"/>
			</g>
		</g>
		<g>
			<g>
				<circle cx="693.3" cy="352.6" r="5" style="fill:#383A48;"/>
			</g>
		</g>
		<g>
			<g>
				<circle cx="693.3" cy="396.6" r="5" style="fill:#383A48;"/>
			</g>
		</g>
		<g>
			<g>
				<circle cx="693.3" cy="440.6" r="5" style="fill:#383A48;"/>
			</g>
		</g>
		<g>
			<g>
				<circle cx="649.3" cy="352.6" r="5" style="fill:#383A48;"/>
			</g>
		</g>
		<g>
			<g>
				<circle cx="649.3" cy="396.6" r="5" style="fill:#383A48;"/>
			</g>
		</g>
		<g>
			<g>
				<circle cx="649.3" cy="440.6" r="5" style="fill:#383A48;"/>
			</g>
		</g>
		<g>
			<g>
				<circle cx="605.3" cy="396.6" r="5" style="fill:#383A48;"/>
			</g>
		</g>
		<g>
			<g>
				<circle cx="605.3" cy="440.6" r="5" style="fill:#383A48;"/>
			</g>
		</g>
		<g>
			<g>
				<circle cx="605.3" cy="484.6" r="5" style="fill:#383A48;"/>
			</g>
		</g>
		<g>
			<g>
				<circle cx="561.3" cy="396.6" r="5" style="fill:#383A48;"/>
			</g>
		</g>
		<g>
			<g>
				<circle cx="561.3" cy="440.6" r="5" style="fill:#383A48;"/>
			</g>
		</g>
		<g>
			<g>
				<circle cx="561.3" cy="484.6" r="5" style="fill:#383A48;"/>
			</g>
		</g>
		<g>
			<g>
				<circle cx="517.3" cy="396.6" r="5" style="fill:#383A48;"/>
			</g>
		</g>
		<g>
			<g>
				<circle cx="517.3" cy="440.6" r="5" style="fill:#383A48;"/>
			</g>
		</g>
		<g>
			<g>
				<circle cx="517.3" cy="484.6" r="5" style="fill:#383A48;"/>
			</g>
		</g>
	</g>
</g>
</svg>
