<?xml version="1.0" encoding="utf-8"?>
<!-- Generator: Adobe Illustrator 22.0.1, SVG Export Plug-In . SVG Version: 6.00 Build 0)  -->
<svg version="1.1" id="Layer_1" xmlns="http://www.w3.org/2000/svg" xmlns:xlink="http://www.w3.org/1999/xlink" x="0px" y="0px" viewBox="0 0 1920 1080" style="enable-background:new 0 0 1920 1080;" xml:space="preserve">

<rect y="0" width="1920" height="1080" style="fill:#EEBED3;"/>
<g>
	<g>
		<path d="M620.2,176.9v285c-123.5-101.3-313.4-94.4-358.3-222.5c-10.7-30.6,12.1-62.5,44.5-62.5H620.2z" style="fill:#D0D1E4;stroke:#383A48;stroke-width:10;stroke-miterlimit:10;"/>
		<g>
			<path d="M620.2,461.9v458.5H459.9c-110.8,0-200.7-89.8-200.7-200.7V232.6V231C298.6,367.8,494.1,358.4,620.2,461.9z" style="fill:#E0719E;"/>
			<path d="M620.2,925.4H459.9c-113.4,0-205.7-92.3-205.7-205.7V232.6V231c0-2.5,1.8-4.6,4.3-5s4.8,1.2,5.5,3.6
				c10.4,36,32.2,63.8,68.7,87.4c33,21.4,73.9,36.7,117.2,52.9c59.9,22.5,121.8,45.7,173.4,88.1c1.2,0.9,1.8,2.4,1.8,3.9v458.5
				C625.2,923.1,622.9,925.4,620.2,925.4z M264.2,257.9v461.8c0,107.9,87.8,195.7,195.7,195.7h155.3V464.3
				c-50-40.4-110.4-63-168.8-84.9C369.5,350.4,296.3,323,264.2,257.9z" style="fill:#383A48;"/>
		</g>
		<g>
			<path d="M319.9,314.3c-61.6-48,10.4-55.8,57.1-55.8c39,0,243.2,0,243.2,0v-81.6H307.4c-32.8,0-55.1,33.3-42.7,63.6
				C274.3,263.7,290.9,290.1,319.9,314.3z" style="fill:#F3F6E6;"/>
			<path d="M316.9,318.2c-6.8-5.3-12.3-10.3-16.4-15.1c-17.6-18-31.2-38.4-40.4-60.8c-6.5-15.8-4.7-33.6,4.8-47.8
				c9.5-14.2,25.4-22.7,42.5-22.7h317.8v91.6H377c-49.9,0-71.9,6.6-75.5,17.2c-1.4,3.9,0.8,9.3,6.2,15.6c4.8,4.9,9.9,9.6,15.4,14.2
				L316.9,318.2z M307.4,181.9c-13.8,0-26.5,6.8-34.2,18.3c-7.7,11.6-9.2,25.6-3.9,38.4c5.8,14,13.3,27.1,22.6,39.4
				c0.1-0.2,0.1-0.3,0.2-0.5c5.5-15.9,25.8-23.9,84.9-23.9h238.2V182H307.4V181.9z" style="fill:#383A48;"/>
		</g>
		<path d="M528.9,195.3h-17.6H500v11.3v17.6v11.3h11.3h17.6h11.3v-11.3v-17.6v-11.3H528.9z M528.9,224.1h-17.6v-17.6
			h17.6V224.1z" style="fill:#383A48;"/>
		<g>
			
				<rect x="571.5" y="195.3" transform="matrix(0.7071 -0.7071 0.7071 0.7071 16.7646 471.1919)" width="11.3" height="40.1" style="fill:#383A48;"/>
			
				<rect x="557.1" y="209.7" transform="matrix(0.7071 -0.7071 0.7071 0.7071 16.7884 471.2081)" width="40.1" height="11.3" style="fill:#383A48;"/>
		</g>
		<g>
			<rect x="441.3" y="224.1" width="40.1" height="11.3" style="fill:#383A48;"/>
		</g>
	</g>
	<path d="M601.4,925.4h983.1c30.9,0,55.9-25,55.9-55.9v-541L601.4,925.4z" style="fill:#F3F6E6;"/>
	<g>
		<g>
			<rect x="1263.6" y="764.5" width="10" height="33" style="fill:#383A48;"/>
		</g>
		<g>
			<line x1="1252.1" y1="781" x2="1285" y2="781" style="fill:none;"/>
			<rect x="1252.1" y="776" width="33" height="10" style="fill:#383A48;"/>
		</g>
	</g>
	<g>
		<path d="M1454.1,790.2c-0.4,0-0.9-0.1-1.3-0.2c-2.7-0.7-4.2-3.5-3.5-6.1l5.9-21.7c2.3-8.4,7.8-15.5,15.4-19.8
			s16.4-5.4,24.8-3.1l19.7,5.4c5.9,1.6,12,0.8,17.3-2.2s9.1-7.9,10.7-13.7l5.4-19.7c4.8-17.4,22.8-27.7,40.2-22.9l19.7,5.4
			c12.1,3.3,24.6-3.8,27.9-15.9l5.4-19.7c4.8-17.4,22.8-27.7,40.2-22.9l19.8,5.4c2.7,0.7,4.2,3.5,3.5,6.1c-0.7,2.7-3.5,4.2-6.1,3.5
			l-19.8-5.4c-5.9-1.6-12-0.8-17.3,2.2s-9.1,7.9-10.7,13.7l-5.4,19.7c-4.8,17.4-22.8,27.7-40.2,22.9l-19.7-5.4
			c-12.1-3.3-24.6,3.8-27.9,15.9l-5.4,19.7c-2.3,8.4-7.8,15.5-15.4,19.8s-16.4,5.4-24.8,3.1l-19.7-5.4c-5.9-1.6-12-0.8-17.3,2.2
			s-9.1,7.9-10.7,13.7l-5.9,21.7C1458.3,788.7,1456.3,790.2,1454.1,790.2z" style="fill:#383A48;"/>
	</g>
	<path d="M1263.6,915.4c-80.1,0-148.4-7.6-208.9-23.3c-58.3-15.1-108.4-37.6-153-68.5
		c-79.5-55.2-141.6-137.3-201.3-266.2c-18.1-39.1-43.3-71.6-77-99.3c-1.5-1.2-3.6-1.5-5.3-0.7s-2.9,2.6-2.9,4.5v458.5
		c0,2.8,2.2,5,5,5h643.4c2.8,0,5-2.2,5-5C1268.6,917.6,1266.3,915.4,1263.6,915.4z" style="fill:#383A48;"/>
	<g>
		<g>
			<circle cx="602.8" cy="755.8" r="164.6" style="fill:#F6E049;"/>
			<path d="M602.8,925.4c-93.5,0-169.6-76.1-169.6-169.6s76.1-169.6,169.6-169.6s169.6,76.1,169.6,169.6
				S696.3,925.4,602.8,925.4z M602.8,596.2c-88,0-159.6,71.6-159.6,159.6s71.6,159.6,159.6,159.6s159.6-71.6,159.6-159.6
				S690.8,596.2,602.8,596.2z" style="fill:#383A48;"/>
		</g>
		<g>
			<g>
				<circle cx="688.2" cy="634" r="5" style="fill:#383A48;"/>
			</g>
			<g>
				<circle cx="688.2" cy="658.7" r="5" style="fill:#383A48;"/>
			</g>
			<g>
				<circle cx="688.2" cy="683.4" r="5" style="fill:#383A48;"/>
			</g>
			<g>
				<circle cx="688.2" cy="708" r="5" style="fill:#383A48;"/>
			</g>
			<g>
				<circle cx="688.2" cy="732.7" r="5" style="fill:#383A48;"/>
			</g>
			<g>
				<circle cx="688.2" cy="757.4" r="5" style="fill:#383A48;"/>
			</g>
			<g>
				<circle cx="688.2" cy="782" r="5" style="fill:#383A48;"/>
			</g>
			<g>
				<circle cx="688.2" cy="806.7" r="5" style="fill:#383A48;"/>
			</g>
			<g>
				<circle cx="688.2" cy="831.4" r="5" style="fill:#383A48;"/>
			</g>
			<g>
				<circle cx="688.2" cy="856" r="5" style="fill:#383A48;"/>
			</g>
			<g>
				<circle cx="688.2" cy="880.7" r="5" style="fill:#383A48;"/>
			</g>
			<g>
				<circle cx="663.5" cy="634" r="5" style="fill:#383A48;"/>
			</g>
			<g>
				<circle cx="663.5" cy="658.7" r="5" style="fill:#383A48;"/>
			</g>
			<g>
				<circle cx="663.5" cy="683.4" r="5" style="fill:#383A48;"/>
			</g>
			<g>
				<circle cx="663.5" cy="708" r="5" style="fill:#383A48;"/>
			</g>
			<g>
				<circle cx="663.5" cy="732.7" r="5" style="fill:#383A48;"/>
			</g>
			<g>
				<circle cx="663.5" cy="757.4" r="5" style="fill:#383A48;"/>
			</g>
			<g>
				<circle cx="663.5" cy="782" r="5" style="fill:#383A48;"/>
			</g>
			<g>
				<circle cx="663.5" cy="806.7" r="5" style="fill:#383A48;"/>
			</g>
			<g>
				<circle cx="663.5" cy="831.4" r="5" style="fill:#383A48;"/>
			</g>
			<g>
				<circle cx="663.5" cy="856" r="5" style="fill:#383A48;"/>
			</g>
			<g>
				<circle cx="663.5" cy="880.7" r="5" style="fill:#383A48;"/>
			</g>
			<g>
				<circle cx="638.8" cy="634" r="5" style="fill:#383A48;"/>
			</g>
			<g>
				<circle cx="638.8" cy="658.7" r="5" style="fill:#383A48;"/>
			</g>
			<g>
				<circle cx="638.8" cy="683.4" r="5" style="fill:#383A48;"/>
			</g>
			<g>
				<circle cx="638.8" cy="708" r="5" style="fill:#383A48;"/>
			</g>
			<g>
				<circle cx="638.8" cy="732.7" r="5" style="fill:#383A48;"/>
			</g>
			<g>
				<circle cx="638.8" cy="757.4" r="5" style="fill:#383A48;"/>
			</g>
			<g>
				<circle cx="638.8" cy="782" r="5" style="fill:#383A48;"/>
			</g>
			<g>
				<circle cx="638.8" cy="806.7" r="5" style="fill:#383A48;"/>
			</g>
			<g>
				<circle cx="638.8" cy="831.4" r="5" style="fill:#383A48;"/>
			</g>
			<g>
				<circle cx="638.8" cy="856" r="5" style="fill:#383A48;"/>
			</g>
			<g>
				<circle cx="638.8" cy="880.7" r="5" style="fill:#383A48;"/>
			</g>
			<g>
				<circle cx="638.8" cy="905.4" r="5" style="fill:#383A48;"/>
			</g>
			<g>
				<circle cx="614.2" cy="634" r="5" style="fill:#383A48;"/>
			</g>
			<g>
				<circle cx="614.2" cy="658.7" r="5" style="fill:#383A48;"/>
			</g>
			<g>
				<circle cx="614.2" cy="683.4" r="5" style="fill:#383A48;"/>
			</g>
			<g>
				<circle cx="614.2" cy="708" r="5" style="fill:#383A48;"/>
			</g>
			<g>
				<circle cx="614.2" cy="732.7" r="5" style="fill:#383A48;"/>
			</g>
			<g>
				<circle cx="614.2" cy="757.4" r="5" style="fill:#383A48;"/>
			</g>
			<g>
				<circle cx="614.2" cy="782" r="5" style="fill:#383A48;"/>
			</g>
			<g>
				<circle cx="614.2" cy="806.7" r="5" style="fill:#383A48;"/>
			</g>
			<g>
				<circle cx="614.2" cy="831.4" r="5" style="fill:#383A48;"/>
			</g>
			<g>
				<circle cx="614.2" cy="856" r="5" style="fill:#383A48;"/>
			</g>
			<g>
				<circle cx="614.2" cy="880.7" r="5" style="fill:#383A48;"/>
			</g>
			<g>
				<circle cx="614.2" cy="905.4" r="5" style="fill:#383A48;"/>
			</g>
			<g>
				<circle cx="589.5" cy="634" r="5" style="fill:#383A48;"/>
			</g>
			<g>
				<circle cx="589.5" cy="658.7" r="5" style="fill:#383A48;"/>
			</g>
			<g>
				<circle cx="589.5" cy="683.4" r="5" style="fill:#383A48;"/>
			</g>
			<g>
				<circle cx="589.5" cy="708" r="5" style="fill:#383A48;"/>
			</g>
			<g>
				<circle cx="589.5" cy="732.7" r="5" style="fill:#383A48;"/>
			</g>
			<g>
				<circle cx="589.5" cy="757.4" r="5" style="fill:#383A48;"/>
			</g>
			<g>
				<circle cx="589.5" cy="782" r="5" style="fill:#383A48;"/>
			</g>
			<g>
				<circle cx="589.5" cy="806.7" r="5" style="fill:#383A48;"/>
			</g>
			<g>
				<circle cx="589.5" cy="831.4" r="5" style="fill:#383A48;"/>
			</g>
			<g>
				<circle cx="589.5" cy="856" r="5" style="fill:#383A48;"/>
			</g>
			<g>
				<circle cx="589.5" cy="880.7" r="5" style="fill:#383A48;"/>
			</g>
			<g>
				<circle cx="589.5" cy="905.4" r="5" style="fill:#383A48;"/>
			</g>
			<g>
				<circle cx="564.8" cy="634" r="5" style="fill:#383A48;"/>
			</g>
			<g>
				<circle cx="564.8" cy="658.7" r="5" style="fill:#383A48;"/>
			</g>
			<g>
				<circle cx="564.8" cy="683.4" r="5" style="fill:#383A48;"/>
			</g>
			<g>
				<circle cx="564.8" cy="708" r="5" style="fill:#383A48;"/>
			</g>
			<g>
				<circle cx="564.8" cy="732.7" r="5" style="fill:#383A48;"/>
			</g>
			<g>
				<circle cx="564.8" cy="757.4" r="5" style="fill:#383A48;"/>
			</g>
			<g>
				<circle cx="564.8" cy="782" r="5" style="fill:#383A48;"/>
			</g>
			<g>
				<circle cx="564.8" cy="806.7" r="5" style="fill:#383A48;"/>
			</g>
			<g>
				<circle cx="564.8" cy="831.4" r="5" style="fill:#383A48;"/>
			</g>
			<g>
				<circle cx="564.8" cy="856" r="5" style="fill:#383A48;"/>
			</g>
			<g>
				<circle cx="564.8" cy="880.7" r="5" style="fill:#383A48;"/>
			</g>
			<g>
				<circle cx="564.8" cy="905.4" r="5" style="fill:#383A48;"/>
			</g>
			<g>
				<circle cx="540.2" cy="634" r="5" style="fill:#383A48;"/>
			</g>
			<g>
				<circle cx="540.2" cy="658.7" r="5" style="fill:#383A48;"/>
			</g>
			<g>
				<circle cx="540.2" cy="683.4" r="5" style="fill:#383A48;"/>
			</g>
			<g>
				<circle cx="540.2" cy="708" r="5" style="fill:#383A48;"/>
			</g>
			<g>
				<circle cx="540.2" cy="732.7" r="5" style="fill:#383A48;"/>
			</g>
			<g>
				<circle cx="540.2" cy="757.4" r="5" style="fill:#383A48;"/>
			</g>
			<g>
				<circle cx="540.2" cy="782" r="5" style="fill:#383A48;"/>
			</g>
			<g>
				<circle cx="540.2" cy="806.7" r="5" style="fill:#383A48;"/>
			</g>
			<g>
				<circle cx="540.2" cy="831.4" r="5" style="fill:#383A48;"/>
			</g>
			<g>
				<circle cx="540.2" cy="856" r="5" style="fill:#383A48;"/>
			</g>
			<g>
				<circle cx="540.2" cy="880.7" r="5" style="fill:#383A48;"/>
			</g>
			<g>
				<circle cx="515.5" cy="634" r="5" style="fill:#383A48;"/>
			</g>
			<g>
				<circle cx="515.5" cy="658.7" r="5" style="fill:#383A48;"/>
			</g>
			<g>
				<circle cx="515.5" cy="683.4" r="5" style="fill:#383A48;"/>
			</g>
			<g>
				<circle cx="515.5" cy="708" r="5" style="fill:#383A48;"/>
			</g>
			<g>
				<circle cx="515.5" cy="732.7" r="5" style="fill:#383A48;"/>
			</g>
			<g>
				<circle cx="515.5" cy="757.4" r="5" style="fill:#383A48;"/>
			</g>
			<g>
				<circle cx="515.5" cy="782" r="5" style="fill:#383A48;"/>
			</g>
			<g>
				<circle cx="515.5" cy="806.7" r="5" style="fill:#383A48;"/>
			</g>
			<g>
				<circle cx="515.5" cy="831.4" r="5" style="fill:#383A48;"/>
			</g>
			<g>
				<circle cx="515.5" cy="856" r="5" style="fill:#383A48;"/>
			</g>
			<g>
				<circle cx="515.5" cy="880.7" r="5" style="fill:#383A48;"/>
			</g>
			<g>
				<circle cx="490.8" cy="658.7" r="5" style="fill:#383A48;"/>
			</g>
			<g>
				<circle cx="490.8" cy="683.4" r="5" style="fill:#383A48;"/>
			</g>
			<g>
				<circle cx="490.8" cy="708" r="5" style="fill:#383A48;"/>
			</g>
			<g>
				<circle cx="490.8" cy="732.7" r="5" style="fill:#383A48;"/>
			</g>
			<g>
				<circle cx="490.8" cy="757.4" r="5" style="fill:#383A48;"/>
			</g>
			<g>
				<circle cx="490.8" cy="782" r="5" style="fill:#383A48;"/>
			</g>
			<g>
				<circle cx="490.8" cy="806.7" r="5" style="fill:#383A48;"/>
			</g>
			<g>
				<circle cx="490.8" cy="831.4" r="5" style="fill:#383A48;"/>
			</g>
			<g>
				<circle cx="490.8" cy="856" r="5" style="fill:#383A48;"/>
			</g>
			<g>
				<circle cx="466.2" cy="683.4" r="5" style="fill:#383A48;"/>
			</g>
			<g>
				<circle cx="466.2" cy="708" r="5" style="fill:#383A48;"/>
			</g>
			<g>
				<circle cx="466.2" cy="732.7" r="5" style="fill:#383A48;"/>
			</g>
			<g>
				<circle cx="466.2" cy="757.4" r="5" style="fill:#383A48;"/>
			</g>
			<g>
				<circle cx="466.2" cy="782" r="5" style="fill:#383A48;"/>
			</g>
			<g>
				<circle cx="466.2" cy="806.7" r="5" style="fill:#383A48;"/>
			</g>
			<g>
				<circle cx="466.2" cy="831.4" r="5" style="fill:#383A48;"/>
			</g>
			<g>
				<circle cx="441.5" cy="757.4" r="5" style="fill:#383A48;"/>
			</g>
		</g>
		<g>
			<circle cx="715.4" cy="697.9" r="176" style="fill:#F6E049;"/>
			<path d="M715.4,878.9c-99.8,0-181-81.2-181-181s81.2-181,181-181s181,81.2,181,181S815.2,878.9,715.4,878.9z
				 M715.4,527c-94.3,0-171,76.7-171,171s76.7,171,171,171s171-76.7,171-171S809.7,527,715.4,527z" style="fill:#383A48;"/>
		</g>
		<g>
			<g>
				<circle cx="809.2" cy="574.4" r="5" style="fill:#383A48;"/>
			</g>
			<g>
				<circle cx="809.2" cy="618.4" r="5" style="fill:#383A48;"/>
			</g>
			<g>
				<circle cx="809.2" cy="662.4" r="5" style="fill:#383A48;"/>
			</g>
			<g>
				<circle cx="809.2" cy="706.4" r="5" style="fill:#383A48;"/>
			</g>
			<g>
				<circle cx="809.2" cy="750.4" r="5" style="fill:#383A48;"/>
			</g>
			<g>
				<circle cx="809.2" cy="794.4" r="5" style="fill:#383A48;"/>
			</g>
			<g>
				<circle cx="765.2" cy="574.4" r="5" style="fill:#383A48;"/>
			</g>
			<g>
				<circle cx="765.2" cy="618.4" r="5" style="fill:#383A48;"/>
			</g>
			<g>
				<circle cx="765.2" cy="662.4" r="5" style="fill:#383A48;"/>
			</g>
			<g>
				<circle cx="765.2" cy="706.4" r="5" style="fill:#383A48;"/>
			</g>
			<g>
				<circle cx="765.2" cy="750.4" r="5" style="fill:#383A48;"/>
			</g>
			<g>
				<circle cx="765.2" cy="794.4" r="5" style="fill:#383A48;"/>
			</g>
			<g>
				<circle cx="765.2" cy="838.4" r="5" style="fill:#383A48;"/>
			</g>
			<g>
				<circle cx="721.2" cy="574.4" r="5" style="fill:#383A48;"/>
			</g>
			<g>
				<circle cx="721.2" cy="618.4" r="5" style="fill:#383A48;"/>
			</g>
			<g>
				<circle cx="721.2" cy="662.4" r="5" style="fill:#383A48;"/>
			</g>
			<g>
				<circle cx="721.2" cy="706.4" r="5" style="fill:#383A48;"/>
			</g>
			<g>
				<circle cx="721.2" cy="750.4" r="5" style="fill:#383A48;"/>
			</g>
			<g>
				<circle cx="721.2" cy="794.4" r="5" style="fill:#383A48;"/>
			</g>
			<g>
				<circle cx="721.2" cy="841.4" r="5" style="fill:#383A48;"/>
			</g>
			<g>
				<circle cx="677.2" cy="574.4" r="5" style="fill:#383A48;"/>
			</g>
			<g>
				<circle cx="677.2" cy="618.4" r="5" style="fill:#383A48;"/>
			</g>
			<g>
				<circle cx="677.2" cy="662.4" r="5" style="fill:#383A48;"/>
			</g>
			<g>
				<circle cx="677.2" cy="706.4" r="5" style="fill:#383A48;"/>
			</g>
			<g>
				<circle cx="677.2" cy="750.4" r="5" style="fill:#383A48;"/>
			</g>
			<g>
				<circle cx="677.2" cy="794.4" r="5" style="fill:#383A48;"/>
			</g>
			<g>
				<circle cx="677.2" cy="838.4" r="5" style="fill:#383A48;"/>
			</g>
			<g>
				<circle cx="633.2" cy="574.4" r="5" style="fill:#383A48;"/>
			</g>
			<g>
				<circle cx="633.2" cy="618.4" r="5" style="fill:#383A48;"/>
			</g>
			<g>
				<circle cx="633.2" cy="662.4" r="5" style="fill:#383A48;"/>
			</g>
			<g>
				<circle cx="633.2" cy="706.4" r="5" style="fill:#383A48;"/>
			</g>
			<g>
				<circle cx="633.2" cy="750.4" r="5" style="fill:#383A48;"/>
			</g>
			<g>
				<circle cx="633.2" cy="794.4" r="5" style="fill:#383A48;"/>
			</g>
			<g>
				<circle cx="633.2" cy="838.4" r="5" style="fill:#383A48;"/>
			</g>
			<g>
				<circle cx="589.2" cy="574.4" r="5" style="fill:#383A48;"/>
			</g>
			<g>
				<circle cx="589.2" cy="618.4" r="5" style="fill:#383A48;"/>
			</g>
			<g>
				<circle cx="589.2" cy="662.4" r="5" style="fill:#383A48;"/>
			</g>
			<g>
				<circle cx="589.2" cy="706.4" r="5" style="fill:#383A48;"/>
			</g>
			<g>
				<circle cx="589.2" cy="750.4" r="5" style="fill:#383A48;"/>
			</g>
			<g>
				<circle cx="589.2" cy="794.4" r="5" style="fill:#383A48;"/>
			</g>
			<g>
				<circle cx="552.2" cy="706.4" r="5" style="fill:#383A48;"/>
			</g>
		</g>
		<g>
			<circle cx="828.1" cy="640.1" r="187.3" style="fill:#F6E049;"/>
			<path d="M828.1,832.4c-106.1,0-192.3-86.3-192.3-192.3s86.3-192.3,192.3-192.3c106.1,0,192.3,86.3,192.3,192.3
				S934.2,832.4,828.1,832.4z M828.1,457.8c-100.5,0-182.3,81.8-182.3,182.3s81.8,182.3,182.3,182.3s182.3-81.8,182.3-182.3
				S928.7,457.8,828.1,457.8z" style="fill:#383A48;"/>
		</g>
		<g>
			<g>
				<circle cx="903.4" cy="469.6" r="5" style="fill:#383A48;"/>
			</g>
			<g>
				<circle cx="903.4" cy="521.1" r="5" style="fill:#383A48;"/>
			</g>
			<g>
				<circle cx="903.4" cy="572.6" r="5" style="fill:#383A48;"/>
			</g>
			<g>
				<circle cx="903.4" cy="624.1" r="5" style="fill:#383A48;"/>
			</g>
			<g>
				<circle cx="903.4" cy="675.6" r="5" style="fill:#383A48;"/>
			</g>
			<g>
				<circle cx="903.4" cy="727.1" r="5" style="fill:#383A48;"/>
			</g>
			<g>
				<circle cx="903.4" cy="778.6" r="5" style="fill:#383A48;"/>
			</g>
			<g>
				<circle cx="851.9" cy="469.6" r="5" style="fill:#383A48;"/>
			</g>
			<g>
				<circle cx="851.9" cy="521.1" r="5" style="fill:#383A48;"/>
			</g>
			<g>
				<circle cx="851.9" cy="572.6" r="5" style="fill:#383A48;"/>
			</g>
			<g>
				<circle cx="851.9" cy="624.1" r="5" style="fill:#383A48;"/>
			</g>
			<g>
				<circle cx="851.9" cy="675.6" r="5" style="fill:#383A48;"/>
			</g>
			<g>
				<circle cx="851.9" cy="727.1" r="5" style="fill:#383A48;"/>
			</g>
			<g>
				<circle cx="843.4" cy="798.1" r="5" style="fill:#383A48;"/>
			</g>
			<g>
				<circle cx="800.4" cy="469.6" r="5" style="fill:#383A48;"/>
			</g>
			<g>
				<circle cx="800.4" cy="521.1" r="5" style="fill:#383A48;"/>
			</g>
			<g>
				<circle cx="800.4" cy="572.6" r="5" style="fill:#383A48;"/>
			</g>
			<g>
				<circle cx="800.4" cy="624.1" r="5" style="fill:#383A48;"/>
			</g>
			<g>
				<circle cx="800.4" cy="675.6" r="5" style="fill:#383A48;"/>
			</g>
			<g>
				<circle cx="800.4" cy="727.1" r="5" style="fill:#383A48;"/>
			</g>
			<g>
				<circle cx="800.4" cy="778.6" r="5" style="fill:#383A48;"/>
			</g>
			<g>
				<circle cx="748.9" cy="521.1" r="5" style="fill:#383A48;"/>
			</g>
			<g>
				<circle cx="748.9" cy="572.6" r="5" style="fill:#383A48;"/>
			</g>
			<g>
				<circle cx="748.9" cy="624.1" r="5" style="fill:#383A48;"/>
			</g>
			<g>
				<circle cx="748.9" cy="675.6" r="5" style="fill:#383A48;"/>
			</g>
			<g>
				<circle cx="748.9" cy="727.1" r="5" style="fill:#383A48;"/>
			</g>
			<g>
				<circle cx="748.9" cy="778.6" r="5" style="fill:#383A48;"/>
			</g>
			<g>
				<circle cx="698.4" cy="524.1" r="5" style="fill:#383A48;"/>
			</g>
			<g>
				<circle cx="697.4" cy="572.6" r="5" style="fill:#383A48;"/>
			</g>
			<g>
				<circle cx="697.4" cy="624.1" r="5" style="fill:#383A48;"/>
			</g>
			<g>
				<circle cx="697.4" cy="675.6" r="5" style="fill:#383A48;"/>
			</g>
			<g>
				<circle cx="697.4" cy="727.1" r="5" style="fill:#383A48;"/>
			</g>
			<g>
				<circle cx="653.9" cy="624.1" r="5" style="fill:#383A48;"/>
			</g>
		</g>
		<g>
			<circle cx="940.8" cy="582.3" r="198.7" style="fill:#F6E049;"/>
			<path d="M940.8,786c-112.3,0-203.7-91.4-203.7-203.7s91.4-203.7,203.7-203.7s203.7,91.4,203.7,203.7
				S1053.1,786,940.8,786z M940.8,388.5c-106.8,0-193.7,86.9-193.7,193.7S834,776,940.8,776s193.7-86.9,193.7-193.7
				S1047.6,388.5,940.8,388.5z" style="fill:#383A48;"/>
		</g>
		<g>
			<g>
				<circle cx="1047.7" cy="428.9" r="5" style="fill:#383A48;"/>
			</g>
			<g>
				<circle cx="1047.7" cy="497.9" r="5" style="fill:#383A48;"/>
			</g>
			<g>
				<circle cx="1047.7" cy="566.9" r="5" style="fill:#383A48;"/>
			</g>
			<g>
				<circle cx="1047.7" cy="635.9" r="5" style="fill:#383A48;"/>
			</g>
			<g>
				<circle cx="1047.7" cy="704.9" r="5" style="fill:#383A48;"/>
			</g>
			<g>
				<circle cx="978.7" cy="428.9" r="5" style="fill:#383A48;"/>
			</g>
			<g>
				<circle cx="978.7" cy="497.9" r="5" style="fill:#383A48;"/>
			</g>
			<g>
				<circle cx="978.7" cy="566.9" r="5" style="fill:#383A48;"/>
			</g>
			<g>
				<circle cx="978.7" cy="635.9" r="5" style="fill:#383A48;"/>
			</g>
			<g>
				<circle cx="967.7" cy="745.9" r="5" style="fill:#383A48;"/>
			</g>
			<g>
				<circle cx="909.7" cy="428.9" r="5" style="fill:#383A48;"/>
			</g>
			<g>
				<circle cx="909.7" cy="497.9" r="5" style="fill:#383A48;"/>
			</g>
			<g>
				<circle cx="909.7" cy="566.9" r="5" style="fill:#383A48;"/>
			</g>
			<g>
				<circle cx="909.7" cy="635.9" r="5" style="fill:#383A48;"/>
			</g>
			<g>
				<circle cx="909.7" cy="704.9" r="5" style="fill:#383A48;"/>
			</g>
			<g>
				<circle cx="840.7" cy="428.9" r="5" style="fill:#383A48;"/>
			</g>
			<g>
				<circle cx="840.7" cy="497.9" r="5" style="fill:#383A48;"/>
			</g>
			<g>
				<circle cx="840.7" cy="566.9" r="5" style="fill:#383A48;"/>
			</g>
			<g>
				<circle cx="840.7" cy="635.9" r="5" style="fill:#383A48;"/>
			</g>
			<g>
				<circle cx="840.7" cy="704.9" r="5" style="fill:#383A48;"/>
			</g>
			<g>
				<circle cx="778.7" cy="497.9" r="5" style="fill:#383A48;"/>
			</g>
			<g>
				<circle cx="771.7" cy="566.9" r="5" style="fill:#383A48;"/>
			</g>
			<g>
				<circle cx="771.7" cy="635.9" r="5" style="fill:#383A48;"/>
			</g>
		</g>
		<g>
			<circle cx="1053.5" cy="524.4" r="210.1" style="fill:#F6E049;"/>
			<path d="M1053.5,739.5c-57.5,0-111.5-22.4-152.1-63s-63-94.6-63-152.1s22.4-111.5,63-152.1s94.6-63,152.1-63
				s111.5,22.4,152.1,63s63,94.6,63,152.1s-22.4,111.5-63,152.1C1164.9,717.1,1110.9,739.5,1053.5,739.5z M1053.5,319.3
				c-113.1,0-205.1,92-205.1,205.1s92,205.1,205.1,205.1s205.1-92,205.1-205.1S1166.6,319.3,1053.5,319.3z" style="fill:#383A48;"/>
		</g>
		<g>
			<circle cx="1150.2" cy="367.4" r="5" style="fill:#383A48;"/>
		</g>
		<g>
			<circle cx="1150.2" cy="453.4" r="5" style="fill:#383A48;"/>
		</g>
		<g>
			<circle cx="1150.2" cy="539.4" r="5" style="fill:#383A48;"/>
		</g>
		<g>
			<circle cx="1150.2" cy="625.4" r="5" style="fill:#383A48;"/>
		</g>
		<g>
			<circle cx="1064.2" cy="367.4" r="5" style="fill:#383A48;"/>
		</g>
		<g>
			<circle cx="1064.2" cy="453.4" r="5" style="fill:#383A48;"/>
		</g>
		<g>
			<circle cx="1064.2" cy="539.4" r="5" style="fill:#383A48;"/>
		</g>
		<g>
			<circle cx="1064.2" cy="625.4" r="5" style="fill:#383A48;"/>
		</g>
		<g>
			<circle cx="1064.2" cy="711.4" r="5" style="fill:#383A48;"/>
		</g>
		<g>
			<circle cx="941.9" cy="375.6" r="5" style="fill:#383A48;"/>
		</g>
		<g>
			<circle cx="978.2" cy="453.4" r="5" style="fill:#383A48;"/>
		</g>
		<g>
			<circle cx="978.2" cy="539.4" r="5" style="fill:#383A48;"/>
		</g>
		<g>
			<circle cx="978.2" cy="625.4" r="5" style="fill:#383A48;"/>
		</g>
		<g>
			<circle cx="983.2" cy="697.9" r="5" style="fill:#383A48;"/>
		</g>
		<g>
			<circle cx="892.2" cy="453.4" r="5" style="fill:#383A48;"/>
		</g>
		<g>
			<circle cx="892.2" cy="539.4" r="5" style="fill:#383A48;"/>
		</g>
		<g>
			<circle cx="892.2" cy="625.4" r="5" style="fill:#383A48;"/>
		</g>
		<g>
			<path d="M1387.6,466.6c0,106.5-75.1,195.4-175.2,216.6c-14.9,3.2-30.4,4.8-46.2,4.8c-122.3,0-221.5-99.2-221.5-221.5
				S1043.9,245,1166.2,245c2.8,0,5.5,0,8.3,0.1C1292.9,249.6,1387.6,347,1387.6,466.6z" style="fill:#F6E049;"/>
			<path d="M1166.2,693.1c-60.5,0-117.4-23.6-160.2-66.3c-42.8-42.8-66.3-99.7-66.3-160.2s23.6-117.4,66.3-160.2
				c42.8-42.8,99.7-66.3,160.2-66.3c2.8,0,5.7,0.1,8.4,0.2c58.7,2.2,113.6,26.7,154.5,69c41,42.4,63.6,98.3,63.6,157.3
				c0,52.2-18.2,103.1-51.2,143.4c-32.6,39.7-78,67.5-128,78.1C1198,691.4,1182.1,693.1,1166.2,693.1z M1166.2,250.1
				c-57.8,0-112.2,22.5-153.1,63.4s-63.4,95.3-63.4,153.1s22.5,112.2,63.4,153.1s95.3,63.4,153.1,63.4c15.2,0,30.4-1.6,45.2-4.7
				c47.8-10.1,91.2-36.7,122.3-74.7c31.6-38.5,48.9-87.2,48.9-137.1c0-56.4-21.6-109.8-60.8-150.4c-39.1-40.5-91.5-63.9-147.6-65.9
				C1171.6,250.1,1168.8,250.1,1166.2,250.1z" style="fill:#383A48;"/>
		</g>
		<g>
			<circle cx="1332.7" cy="322.9" r="5" style="fill:#383A48;"/>
		</g>
		<g>
			<circle cx="1332.7" cy="459.9" r="5" style="fill:#383A48;"/>
		</g>
		<g>
			<circle cx="1332.7" cy="596.9" r="5" style="fill:#383A48;"/>
		</g>
		<g>
			<circle cx="1195.7" cy="322.9" r="5" style="fill:#383A48;"/>
		</g>
		<g>
			<circle cx="1195.7" cy="459.9" r="5" style="fill:#383A48;"/>
		</g>
		<g>
			<circle cx="1176.2" cy="646.6" r="5" style="fill:#383A48;"/>
		</g>
		<g>
			<circle cx="1043.5" cy="324.3" r="5" style="fill:#383A48;"/>
		</g>
		<g>
			<circle cx="1003.2" cy="461.9" r="5" style="fill:#383A48;"/>
		</g>
		<g>
			<circle cx="1058.7" cy="596.9" r="5" style="fill:#383A48;"/>
		</g>
		<g>
			<path d="M1511.7,408.7c0,103.4-67.4,191-160.6,221.4c-22.8,7.4-47.1,11.4-72.3,11.4
				c-128.6,0-232.9-104.2-232.9-232.9c0-123,95.3-223.7,216.1-232.3c5.5-0.4,11.1-0.6,16.7-0.6
				C1407.4,175.8,1511.7,280.1,1511.7,408.7z" style="fill:#F6E049;"/>
			<path d="M1278.8,646.6c-63.5,0-123.3-24.7-168.2-69.7c-44.9-44.9-69.7-104.7-69.7-168.2
				c0-60.6,22.8-118.3,64.1-162.5c41.1-44,96.8-70.6,156.7-74.8c5.6-0.4,11.4-0.6,17.1-0.6c63.5,0,123.3,24.7,168.2,69.7
				c44.9,44.9,69.7,104.7,69.7,168.2c0,51.2-16,100-46.3,141c-29.7,40.3-70.4,69.7-117.7,85.1
				C1328.9,642.7,1304.1,646.6,1278.8,646.6z M1278.8,180.8c-5.5,0-11,0.2-16.4,0.6c-57.4,4.1-110.7,29.5-150.1,71.7
				c-39.6,42.3-61.4,97.6-61.4,155.6c0,60.9,23.7,118.1,66.7,161.1c43,43,100.3,66.7,161.1,66.7c24.2,0,48-3.8,70.8-11.2
				c45.3-14.8,84.3-43,112.8-81.6c29-39.3,44.4-86.1,44.4-135.1c0-60.9-23.7-118.1-66.7-161.1
				C1396.9,204.5,1339.7,180.8,1278.8,180.8z" style="fill:#383A48;"/>
		</g>
		<g>
			<circle cx="1391.5" cy="350.9" r="244.3" style="fill:#F6E049;"/>
			<path d="M1391.5,600.1c-66.6,0-129.2-25.9-176.2-73c-47.1-47.1-73-109.7-73-176.2s25.9-129.2,73-176.2
				c47.1-47.1,109.7-73,176.2-73s129.2,25.9,176.2,73c47.1,47.1,73,109.7,73,176.2s-25.9,129.2-73,176.2
				C1520.7,574.2,1458.1,600.1,1391.5,600.1z M1391.5,111.6c-63.9,0-124,24.9-169.2,70.1s-70.1,105.3-70.1,169.2
				s24.9,124,70.1,169.2s105.3,70.1,169.2,70.1s124-24.9,169.2-70.1c45.2-45.2,70.1-105.3,70.1-169.2s-24.9-124-70.1-169.2
				S1455.4,111.6,1391.5,111.6z" style="fill:#383A48;"/>
		</g>
		<circle cx="1391.5" cy="350.9" r="185.7" style="fill:#F3F6E6;"/>
		<g>
			<path d="M1317.2,394.5l-24.1,19.8h-56.5l-12.8-17l23-17.7l8.9,11.7h26.4l9-7.4l4.3-20.6l-4.5-5.8h-35.4l-12.6-16
				l11.2-53.1h80.6l-4.9,23h-52.1l-4.9,23h37.2l15.6,19.8L1317.2,394.5z" style="fill:#383A48;"/>
			<path d="M1334.4,394.5l18.5-87.2l24.2-19.9h57.9l15.6,19.9l-18.5,87.2l-24.1,19.8h-58L1334.4,394.5z M1364.6,385.6
				l4.6,5.7h27.8l9-7.4l9.9-46.7L1364.6,385.6z M1420.4,316.3l-4.5-5.7H1388l-9,7.4l-9.8,46.6L1420.4,316.3z" style="fill:#383A48;"/>
			<path d="M1442.1,413.4l4.8-23l70.5-56.8l3.8-17.3l-4.5-5.7H1496l-14.9,12.4l-16.2-18.4l20.1-17.1h50.8l15.6,19.9
				l-7.4,34.3l-59.6,48.1l-0.2,0.7h52.4l-4.8,23h-89.7V413.4z" style="fill:#383A48;"/>
		</g>
	</g>
	<path d="M1638.1,806.8c-1.6-0.9-3.5-0.8-5.1,0.1l-178,109.2c-1.9,1.2-2.8,3.5-2.2,5.6c0.6,2.2,2.6,3.6,4.8,3.6h178
		c2.8,0,5-2.2,5-5V811.2C1640.6,809.4,1639.6,807.7,1638.1,806.8z" style="fill:#383A48;"/>
	<g>
		<rect x="747.8" y="171.9" width="126.2" height="121.5" style="fill:#383A48;"/>
		<g>
			<path d="M752.8,288.4L752.8,288.4c-30.8,0-55.8-25-55.8-55.8l0,0c0-30.8,25-55.8,55.8-55.8l0,0
				c30.8,0,55.8,25,55.8,55.8l0,0C808.6,263.4,783.6,288.4,752.8,288.4z" style="fill:#F6E049;"/>
			<path d="M752.8,293.4c-33.5,0-60.8-27.3-60.8-60.8s27.3-60.8,60.8-60.8s60.8,27.3,60.8,60.8
				C813.6,266.2,786.3,293.4,752.8,293.4z M752.8,181.9c-28,0-50.8,22.8-50.8,50.8s22.8,50.8,50.8,50.8l0,0
				c28,0,50.8-22.8,50.8-50.8S780.8,181.9,752.8,181.9z" style="fill:#383A48;"/>
		</g>
	</g>
</g>
</svg>
