<?xml version="1.0" encoding="utf-8"?>
<!-- Generator: Adobe Illustrator 22.0.1, SVG Export Plug-In . SVG Version: 6.00 Build 0)  -->
<svg version="1.1" id="Layer_1" xmlns="http://www.w3.org/2000/svg" xmlns:xlink="http://www.w3.org/1999/xlink" x="0px" y="0px" viewBox="0 0 1920 1080" style="enable-background:new 0 0 1920 1080;" xml:space="preserve">

<rect y="0" width="1920" height="1080" style="fill:#EEBED3;"/>
<g>
	<g>
		<g>
			<polygon points="1057.7,757.8 1617.6,647.7 1617.6,199.5 1057.7,199.5 			" style="fill:#F3F6E6;"/>
			<path d="M1057.7,762.8c-1.1,0-2.3-0.4-3.2-1.1c-1.2-0.9-1.8-2.4-1.8-3.9V199.5c0-2.8,2.2-5,5-5h559.9
				c2.8,0,5,2.2,5,5v448.2c0,2.4-1.7,4.4-4,4.9l-559.9,110.1C1058.4,762.7,1058,762.8,1057.7,762.8z M1062.7,204.5v547.2
				l549.9-108.1V204.5H1062.7z" style="fill:#383A48;"/>
		</g>
		<g>
			<path d="M900.7,831.5h305l42.7-14l28-95.5h267l-74.2-186.5c0-48-38.9-86.9-86.9-86.9H900.7V831.5z" style="fill:#F3F6E6;"/>
			<path d="M1205.7,836.5h-305c-2.8,0-5-2.2-5-5V448.6c0-2.8,2.2-5,5-5h481.6c50.3,0,91.3,40.7,91.8,90.9l73.9,185.6
				c0.6,1.5,0.4,3.3-0.5,4.7s-2.5,2.2-4.1,2.2h-263.3l-26.9,91.9c-0.5,1.6-1.7,2.8-3.2,3.3l-42.7,14
				C1206.7,836.4,1206.2,836.5,1205.7,836.5z M905.7,826.5h299.2l39.4-12.9l27.3-93c0.6-2.1,2.6-3.6,4.8-3.6H1536l-71.5-179.6
				c-0.2-0.6-0.4-1.2-0.4-1.8c0-45.1-36.7-81.9-81.9-81.9H905.7V826.5z" style="fill:#383A48;"/>
		</g>
		<g>
			<path d="M1298.1,448.6H823.5c-51.8,0-93.8,42-93.8,93.8v334.3h119.4l38.8-45.2h317.8" style="fill:#F3F6E6;"/>
			<path d="M849.1,881.7H729.7c-2.8,0-5-2.2-5-5V542.5c0-54.5,44.3-98.8,98.8-98.8h474.6c2.8,0,5,2.2,5,5s-2.2,5-5,5
				H823.5c-49,0-88.8,39.8-88.8,88.8v329.3h112.1l37.3-43.5c0.9-1.1,2.3-1.7,3.8-1.7h317.8c2.8,0,5,2.2,5,5s-2.2,5-5,5H890.1
				L852.9,880C851.9,881.1,850.5,881.7,849.1,881.7z" style="fill:#383A48;"/>
		</g>
		<g>
			<path d="M1298.1,745.7c-2.8,0-5-2.2-5-5V534.1c0-49.9,40.6-90.5,90.5-90.5s90.5,40.6,90.5,90.5v132.7
				c0,2.8-2.2,5-5,5s-5-2.2-5-5V534.1c0-44.4-36.1-80.5-80.5-80.5s-80.5,36.1-80.5,80.5v206.6
				C1303.1,743.5,1300.9,745.7,1298.1,745.7z" style="fill:#383A48;"/>
		</g>
		<g>
			<path d="M1617.6,418.7v229c0,41-33.2,74.2-74.2,74.2l0,0c-41,0-74.2-33.2-74.2-74.2V532.1" style="fill:#F3F6E6;"/>
			<path d="M1543.4,727c-43.7,0-79.2-35.5-79.2-79.2V532.1c0-2.8,2.2-5,5-5s5,2.2,5,5v115.6c0,38.2,31.1,69.2,69.2,69.2
				s69.2-31.1,69.2-69.2v-229c0-2.8,2.2-5,5-5s5,2.2,5,5v229C1622.6,691.4,1587.1,727,1543.4,727z" style="fill:#383A48;"/>
		</g>
		<g>
			<rect x="1057.7" y="199.5" width="559.9" height="156.2" style="fill:#383A48;"/>
			<path d="M1617.6,360.7h-559.9c-2.8,0-5-2.2-5-5V199.5c0-2.8,2.2-5,5-5h559.9c2.8,0,5,2.2,5,5v156.2
				C1622.6,358.5,1620.4,360.7,1617.6,360.7z M1062.7,350.7h549.9V204.5h-549.9V350.7z" style="fill:#383A48;"/>
		</g>
		<g>
			<g>
				<path d="M476.6,743.9c0,73.4-59.5,132.8-132.8,132.8h-89.6h599.2c0,0,53-7.5,70.8-45.2s102.1-227.4,102.1-227.4
					H580.9c-57.6,0-104.3,46.7-104.3,104.3L476.6,743.9L476.6,743.9z" style="fill:#F3F6E6;"/>
				<path d="M853.3,881.7H254.1c-2.8,0-5-2.2-5-5s2.2-5,5-5h89.6c70.5,0,127.8-57.3,127.8-127.8v-35.5
					c0-60.3,49-109.3,109.3-109.3h445.3c1.7,0,3.3,0.9,4.2,2.3s1.1,3.2,0.4,4.8c-0.8,1.9-84.5,190.2-102.1,227.5
					c-18.8,39.7-72.3,47.7-74.6,48.1C853.8,881.7,853.6,881.7,853.3,881.7z M395.3,871.7h457.6c4.3-0.7,50.9-9,66.7-42.4
					c15.6-33.1,83.5-185.6,98.9-220.3H580.9c-54.8,0-99.3,44.6-99.3,99.3v35.5C481.6,801.7,445.8,851.3,395.3,871.7z" style="fill:#383A48;"/>
			</g>
			<g>
				<path d="M1298.1,569.9V739c0,51.1-41.4,92.5-92.5,92.5l0,0c-51.1,0-92.5-41.4-92.5-92.5v-48.4
					c0-47.8-38.7-86.5-86.5-86.5l0,0c-47.8,0-86.5,38.7-86.5,86.5v86.8c0,54.8-44.5,99.3-99.3,99.3c0,0,61.3-2.5,83.3-45.2h281.5" style="fill:#F3F6E6;"/>
				<path d="M840.8,881.7c-2.7,0-4.9-2.2-5-4.9s2.1-5,4.8-5.1c0.4,0,25.2-1.3,48.1-13.1c27.8-16.4,46.4-46.7,46.4-81.2
					v-86.8c0-50.5,41.1-91.5,91.5-91.5c50.5,0,91.5,41.1,91.5,91.5V739c0,48.2,39.2,87.5,87.5,87.5c48.2,0,87.5-39.2,87.5-87.5
					V569.9c0-2.8,2.2-5,5-5s5,2.2,5,5V739c0,53.7-43.7,97.5-97.5,97.5l0,0H927.1c-7.4,12.9-19,23.5-34.2,31.3
					C877.5,876.7,859.8,881.7,840.8,881.7z M932.8,826.5h229.8c-32.2-15.9-54.5-49.1-54.5-87.5v-48.4c0-45-36.6-81.5-81.5-81.5
					c-45,0-81.5,36.6-81.5,81.5v86.8C945.1,795.2,940.7,811.9,932.8,826.5z" style="fill:#383A48;"/>
			</g>
		</g>
		<g>
			<circle cx="1121.9" cy="271.8" r="20.3" style="fill:#E06A63;"/>
		</g>
		<g>
			<circle cx="1182.5" cy="271.8" r="20.3" style="fill:#F6E049;"/>
		</g>
		<g>
			<circle cx="1243.2" cy="271.8" r="20.3" style="fill:#7FD6C2;"/>
		</g>
		<g>
			<g>
				<g>
					<circle cx="1137" cy="815.7" r="5" style="fill:#383A48;"/>
				</g>
			</g>
			<g>
				<g>
					<circle cx="1112.3" cy="766.4" r="5" style="fill:#383A48;"/>
				</g>
			</g>
			<g>
				<g>
					<circle cx="1112.3" cy="791.1" r="5" style="fill:#383A48;"/>
				</g>
			</g>
			<g>
				<g>
					<circle cx="1112.3" cy="815.7" r="5" style="fill:#383A48;"/>
				</g>
			</g>
			<g>
				<g>
					<circle cx="1087.6" cy="643.1" r="5" style="fill:#383A48;"/>
				</g>
			</g>
			<g>
				<g>
					<circle cx="1087.6" cy="667.7" r="5" style="fill:#383A48;"/>
				</g>
			</g>
			<g>
				<g>
					<circle cx="1087.6" cy="692.4" r="5" style="fill:#383A48;"/>
				</g>
			</g>
			<g>
				<g>
					<circle cx="1087.6" cy="717.1" r="5" style="fill:#383A48;"/>
				</g>
			</g>
			<g>
				<g>
					<circle cx="1087.6" cy="741.7" r="5" style="fill:#383A48;"/>
				</g>
			</g>
			<g>
				<g>
					<circle cx="1087.6" cy="766.4" r="5" style="fill:#383A48;"/>
				</g>
			</g>
			<g>
				<g>
					<circle cx="1087.6" cy="791.1" r="5" style="fill:#383A48;"/>
				</g>
			</g>
			<g>
				<g>
					<circle cx="1087.6" cy="815.7" r="5" style="fill:#383A48;"/>
				</g>
			</g>
			<g>
				<g>
					<circle cx="1063" cy="618.4" r="5" style="fill:#383A48;"/>
				</g>
			</g>
			<g>
				<g>
					<circle cx="1063" cy="643.1" r="5" style="fill:#383A48;"/>
				</g>
			</g>
			<g>
				<g>
					<circle cx="1063" cy="667.7" r="5" style="fill:#383A48;"/>
				</g>
			</g>
			<g>
				<g>
					<circle cx="1063" cy="692.4" r="5" style="fill:#383A48;"/>
				</g>
			</g>
			<g>
				<g>
					<circle cx="1063" cy="717.1" r="5" style="fill:#383A48;"/>
				</g>
			</g>
			<g>
				<g>
					<circle cx="1063" cy="741.7" r="5" style="fill:#383A48;"/>
				</g>
			</g>
			<g>
				<g>
					<circle cx="1063" cy="766.4" r="5" style="fill:#383A48;"/>
				</g>
			</g>
			<g>
				<g>
					<circle cx="1063" cy="791.1" r="5" style="fill:#383A48;"/>
				</g>
			</g>
			<g>
				<g>
					<circle cx="1063" cy="815.7" r="5" style="fill:#383A48;"/>
				</g>
			</g>
			<g>
				<g>
					<circle cx="1038.3" cy="618.4" r="5" style="fill:#383A48;"/>
				</g>
			</g>
			<g>
				<g>
					<circle cx="1038.3" cy="643.1" r="5" style="fill:#383A48;"/>
				</g>
			</g>
			<g>
				<g>
					<circle cx="1038.3" cy="667.7" r="5" style="fill:#383A48;"/>
				</g>
			</g>
			<g>
				<g>
					<circle cx="1038.3" cy="692.4" r="5" style="fill:#383A48;"/>
				</g>
			</g>
			<g>
				<g>
					<circle cx="1038.3" cy="717.1" r="5" style="fill:#383A48;"/>
				</g>
			</g>
			<g>
				<g>
					<circle cx="1038.3" cy="741.7" r="5" style="fill:#383A48;"/>
				</g>
			</g>
			<g>
				<g>
					<circle cx="1038.3" cy="766.4" r="5" style="fill:#383A48;"/>
				</g>
			</g>
			<g>
				<g>
					<circle cx="1038.3" cy="791.1" r="5" style="fill:#383A48;"/>
				</g>
			</g>
			<g>
				<g>
					<circle cx="1038.3" cy="815.7" r="5" style="fill:#383A48;"/>
				</g>
			</g>
			<g>
				<g>
					<circle cx="1013.6" cy="618.4" r="5" style="fill:#383A48;"/>
				</g>
			</g>
			<g>
				<g>
					<circle cx="1013.6" cy="643.1" r="5" style="fill:#383A48;"/>
				</g>
			</g>
			<g>
				<g>
					<circle cx="1013.6" cy="667.7" r="5" style="fill:#383A48;"/>
				</g>
			</g>
			<g>
				<g>
					<circle cx="1013.6" cy="692.4" r="5" style="fill:#383A48;"/>
				</g>
			</g>
			<g>
				<g>
					<circle cx="1013.6" cy="717.1" r="5" style="fill:#383A48;"/>
				</g>
			</g>
			<g>
				<g>
					<circle cx="1013.6" cy="741.7" r="5" style="fill:#383A48;"/>
				</g>
			</g>
			<g>
				<g>
					<circle cx="1013.6" cy="766.4" r="5" style="fill:#383A48;"/>
				</g>
			</g>
			<g>
				<g>
					<circle cx="1013.6" cy="791.1" r="5" style="fill:#383A48;"/>
				</g>
			</g>
			<g>
				<g>
					<circle cx="1013.6" cy="815.7" r="5" style="fill:#383A48;"/>
				</g>
			</g>
			<g>
				<g>
					<circle cx="989" cy="618.4" r="5" style="fill:#383A48;"/>
				</g>
			</g>
			<g>
				<g>
					<circle cx="989" cy="643.1" r="5" style="fill:#383A48;"/>
				</g>
			</g>
			<g>
				<g>
					<circle cx="989" cy="667.7" r="5" style="fill:#383A48;"/>
				</g>
			</g>
			<g>
				<g>
					<circle cx="989" cy="692.4" r="5" style="fill:#383A48;"/>
				</g>
			</g>
			<g>
				<g>
					<circle cx="989" cy="717.1" r="5" style="fill:#383A48;"/>
				</g>
			</g>
			<g>
				<g>
					<circle cx="989" cy="741.7" r="5" style="fill:#383A48;"/>
				</g>
			</g>
			<g>
				<g>
					<circle cx="989" cy="766.4" r="5" style="fill:#383A48;"/>
				</g>
			</g>
			<g>
				<g>
					<circle cx="989" cy="791.1" r="5" style="fill:#383A48;"/>
				</g>
			</g>
			<g>
				<g>
					<circle cx="989" cy="815.7" r="5" style="fill:#383A48;"/>
				</g>
			</g>
			<g>
				<g>
					<circle cx="964.3" cy="643.1" r="5" style="fill:#383A48;"/>
				</g>
			</g>
			<g>
				<g>
					<circle cx="964.3" cy="667.7" r="5" style="fill:#383A48;"/>
				</g>
			</g>
			<g>
				<g>
					<circle cx="964.3" cy="692.4" r="5" style="fill:#383A48;"/>
				</g>
			</g>
			<g>
				<g>
					<circle cx="964.3" cy="717.1" r="5" style="fill:#383A48;"/>
				</g>
			</g>
			<g>
				<g>
					<circle cx="964.3" cy="741.7" r="5" style="fill:#383A48;"/>
				</g>
			</g>
			<g>
				<g>
					<circle cx="964.3" cy="766.4" r="5" style="fill:#383A48;"/>
				</g>
			</g>
			<g>
				<g>
					<circle cx="964.3" cy="791.1" r="5" style="fill:#383A48;"/>
				</g>
			</g>
			<g>
				<g>
					<circle cx="964.3" cy="815.7" r="5" style="fill:#383A48;"/>
				</g>
			</g>
			<g>
				<g>
					<circle cx="939.6" cy="815.7" r="5" style="fill:#383A48;"/>
				</g>
			</g>
		</g>
		<g>
			<g>
				<g>
					<circle cx="1486.3" cy="707" r="5" style="fill:#383A48;"/>
				</g>
			</g>
			<g>
				<g>
					<circle cx="1461.7" cy="509.7" r="5" style="fill:#383A48;"/>
				</g>
			</g>
			<g>
				<g>
					<circle cx="1461.7" cy="534.4" r="5" style="fill:#383A48;"/>
				</g>
			</g>
			<g>
				<g>
					<circle cx="1461.7" cy="559" r="5" style="fill:#383A48;"/>
				</g>
			</g>
			<g>
				<g>
					<circle cx="1461.7" cy="583.7" r="5" style="fill:#383A48;"/>
				</g>
			</g>
			<g>
				<g>
					<circle cx="1461.7" cy="608.4" r="5" style="fill:#383A48;"/>
				</g>
			</g>
			<g>
				<g>
					<circle cx="1461.7" cy="633" r="5" style="fill:#383A48;"/>
				</g>
			</g>
			<g>
				<g>
					<circle cx="1461.7" cy="657.7" r="5" style="fill:#383A48;"/>
				</g>
			</g>
			<g>
				<g>
					<circle cx="1461.7" cy="682.4" r="5" style="fill:#383A48;"/>
				</g>
			</g>
			<g>
				<g>
					<circle cx="1461.7" cy="707" r="5" style="fill:#383A48;"/>
				</g>
			</g>
			<g>
				<g>
					<circle cx="1437" cy="485" r="5" style="fill:#383A48;"/>
				</g>
			</g>
			<g>
				<g>
					<circle cx="1437" cy="509.7" r="5" style="fill:#383A48;"/>
				</g>
			</g>
			<g>
				<g>
					<circle cx="1437" cy="534.4" r="5" style="fill:#383A48;"/>
				</g>
			</g>
			<g>
				<g>
					<circle cx="1437" cy="559" r="5" style="fill:#383A48;"/>
				</g>
			</g>
			<g>
				<g>
					<circle cx="1437" cy="583.7" r="5" style="fill:#383A48;"/>
				</g>
			</g>
			<g>
				<g>
					<circle cx="1437" cy="608.4" r="5" style="fill:#383A48;"/>
				</g>
			</g>
			<g>
				<g>
					<circle cx="1437" cy="633" r="5" style="fill:#383A48;"/>
				</g>
			</g>
			<g>
				<g>
					<circle cx="1437" cy="657.7" r="5" style="fill:#383A48;"/>
				</g>
			</g>
			<g>
				<g>
					<circle cx="1437" cy="682.4" r="5" style="fill:#383A48;"/>
				</g>
			</g>
			<g>
				<g>
					<circle cx="1437" cy="707" r="5" style="fill:#383A48;"/>
				</g>
			</g>
			<g>
				<g>
					<circle cx="1412.3" cy="460.4" r="5" style="fill:#383A48;"/>
				</g>
			</g>
			<g>
				<g>
					<circle cx="1412.3" cy="485" r="5" style="fill:#383A48;"/>
				</g>
			</g>
			<g>
				<g>
					<circle cx="1412.3" cy="509.7" r="5" style="fill:#383A48;"/>
				</g>
			</g>
			<g>
				<g>
					<circle cx="1412.3" cy="534.4" r="5" style="fill:#383A48;"/>
				</g>
			</g>
			<g>
				<g>
					<circle cx="1412.3" cy="559" r="5" style="fill:#383A48;"/>
				</g>
			</g>
			<g>
				<g>
					<circle cx="1412.3" cy="583.7" r="5" style="fill:#383A48;"/>
				</g>
			</g>
			<g>
				<g>
					<circle cx="1412.3" cy="608.4" r="5" style="fill:#383A48;"/>
				</g>
			</g>
			<g>
				<g>
					<circle cx="1412.3" cy="633" r="5" style="fill:#383A48;"/>
				</g>
			</g>
			<g>
				<g>
					<circle cx="1412.3" cy="657.7" r="5" style="fill:#383A48;"/>
				</g>
			</g>
			<g>
				<g>
					<circle cx="1412.3" cy="682.4" r="5" style="fill:#383A48;"/>
				</g>
			</g>
			<g>
				<g>
					<circle cx="1412.3" cy="707" r="5" style="fill:#383A48;"/>
				</g>
			</g>
			<g>
				<g>
					<circle cx="1387.7" cy="460.4" r="5" style="fill:#383A48;"/>
				</g>
			</g>
			<g>
				<g>
					<circle cx="1387.7" cy="485" r="5" style="fill:#383A48;"/>
				</g>
			</g>
			<g>
				<g>
					<circle cx="1387.7" cy="509.7" r="5" style="fill:#383A48;"/>
				</g>
			</g>
			<g>
				<g>
					<circle cx="1387.7" cy="534.4" r="5" style="fill:#383A48;"/>
				</g>
			</g>
			<g>
				<g>
					<circle cx="1387.7" cy="559" r="5" style="fill:#383A48;"/>
				</g>
			</g>
			<g>
				<g>
					<circle cx="1387.7" cy="583.7" r="5" style="fill:#383A48;"/>
				</g>
			</g>
			<g>
				<g>
					<circle cx="1387.7" cy="608.4" r="5" style="fill:#383A48;"/>
				</g>
			</g>
			<g>
				<g>
					<circle cx="1387.7" cy="633" r="5" style="fill:#383A48;"/>
				</g>
			</g>
			<g>
				<g>
					<circle cx="1387.7" cy="657.7" r="5" style="fill:#383A48;"/>
				</g>
			</g>
			<g>
				<g>
					<circle cx="1387.7" cy="682.4" r="5" style="fill:#383A48;"/>
				</g>
			</g>
			<g>
				<g>
					<circle cx="1387.7" cy="707" r="5" style="fill:#383A48;"/>
				</g>
			</g>
			<g>
				<g>
					<circle cx="1363" cy="460.4" r="5" style="fill:#383A48;"/>
				</g>
			</g>
			<g>
				<g>
					<circle cx="1363" cy="485" r="5" style="fill:#383A48;"/>
				</g>
			</g>
			<g>
				<g>
					<circle cx="1363" cy="509.7" r="5" style="fill:#383A48;"/>
				</g>
			</g>
			<g>
				<g>
					<circle cx="1363" cy="534.4" r="5" style="fill:#383A48;"/>
				</g>
			</g>
			<g>
				<g>
					<circle cx="1363" cy="559" r="5" style="fill:#383A48;"/>
				</g>
			</g>
			<g>
				<g>
					<circle cx="1363" cy="583.7" r="5" style="fill:#383A48;"/>
				</g>
			</g>
			<g>
				<g>
					<circle cx="1363" cy="608.4" r="5" style="fill:#383A48;"/>
				</g>
			</g>
			<g>
				<g>
					<circle cx="1363" cy="633" r="5" style="fill:#383A48;"/>
				</g>
			</g>
			<g>
				<g>
					<circle cx="1363" cy="657.7" r="5" style="fill:#383A48;"/>
				</g>
			</g>
			<g>
				<g>
					<circle cx="1363" cy="682.4" r="5" style="fill:#383A48;"/>
				</g>
			</g>
			<g>
				<g>
					<circle cx="1363" cy="707" r="5" style="fill:#383A48;"/>
				</g>
			</g>
			<g>
				<g>
					<circle cx="1338.3" cy="485" r="5" style="fill:#383A48;"/>
				</g>
			</g>
			<g>
				<g>
					<circle cx="1338.3" cy="509.7" r="5" style="fill:#383A48;"/>
				</g>
			</g>
			<g>
				<g>
					<circle cx="1338.3" cy="534.4" r="5" style="fill:#383A48;"/>
				</g>
			</g>
			<g>
				<g>
					<circle cx="1338.3" cy="559" r="5" style="fill:#383A48;"/>
				</g>
			</g>
			<g>
				<g>
					<circle cx="1338.3" cy="583.7" r="5" style="fill:#383A48;"/>
				</g>
			</g>
			<g>
				<g>
					<circle cx="1338.3" cy="608.4" r="5" style="fill:#383A48;"/>
				</g>
			</g>
			<g>
				<g>
					<circle cx="1338.3" cy="633" r="5" style="fill:#383A48;"/>
				</g>
			</g>
			<g>
				<g>
					<circle cx="1338.3" cy="657.7" r="5" style="fill:#383A48;"/>
				</g>
			</g>
			<g>
				<g>
					<circle cx="1338.3" cy="682.4" r="5" style="fill:#383A48;"/>
				</g>
			</g>
			<g>
				<g>
					<circle cx="1338.3" cy="707" r="5" style="fill:#383A48;"/>
				</g>
			</g>
			<g>
				<g>
					<circle cx="1313.7" cy="509.7" r="5" style="fill:#383A48;"/>
				</g>
			</g>
			<g>
				<g>
					<circle cx="1313.7" cy="534.4" r="5" style="fill:#383A48;"/>
				</g>
			</g>
			<g>
				<g>
					<circle cx="1313.7" cy="559" r="5" style="fill:#383A48;"/>
				</g>
			</g>
			<g>
				<g>
					<circle cx="1313.7" cy="583.7" r="5" style="fill:#383A48;"/>
				</g>
			</g>
			<g>
				<g>
					<circle cx="1313.7" cy="608.4" r="5" style="fill:#383A48;"/>
				</g>
			</g>
			<g>
				<g>
					<circle cx="1313.7" cy="633" r="5" style="fill:#383A48;"/>
				</g>
			</g>
			<g>
				<g>
					<circle cx="1313.7" cy="657.7" r="5" style="fill:#383A48;"/>
				</g>
			</g>
			<g>
				<g>
					<circle cx="1313.7" cy="682.4" r="5" style="fill:#383A48;"/>
				</g>
			</g>
			<g>
				<g>
					<circle cx="1313.7" cy="707" r="5" style="fill:#383A48;"/>
				</g>
			</g>
		</g>
	</g>
	<g>
		<g>
			<g>
				<path d="M1298.1,745.7c-2.8,0-5-2.2-5-5V534.1c0-24.2,9.4-46.9,26.5-64c5.8-5.8,12.3-10.7,19.3-14.7
					c0.8-0.4,1.6-0.7,2.5-0.7c2.8,0,5,2.2,5,5c0,1.9-1.1,3.6-2.7,4.5c-6.2,3.5-11.9,7.9-17,13c-15.2,15.2-23.6,35.4-23.6,56.9v206.6
					C1303.1,743.5,1300.9,745.7,1298.1,745.7z" style="fill:#383A48;"/>
			</g>
		</g>
	</g>
	<path d="M628.1,352.1L458.4,195.8c-0.9-0.8-2.1-1.3-3.4-1.3H248.8c-2.8,0-5,2.2-5,5v388.2c0,24.7,14.1,46,36.9,55.7
		c7.8,3.3,16,5,24,5c15.2,0,30-5.9,41.7-17.1l281.8-271.9c1-1,1.5-2.3,1.5-3.7C629.7,354.3,629.1,353,628.1,352.1z" style="fill:#F3F6E6;"/>
	<path d="M1622.4,720.8c-1.9-0.7-4.1-0.2-5.5,1.3c-29.1,32.5-74.2,36.3-122,40.4c-46.8,3.9-95.2,8-128.1,41.5
		c-61.8,62.7-101.1,67.6-196,79.4l-9.2,1.1c-2.6,0.3-4.5,2.6-4.4,5.3s2.3,4.7,5,4.7H1534c50.5,0,91.6-41.1,91.6-91.6v-77.4
		C1625.6,723.4,1624.4,721.5,1622.4,720.8z" style="fill:#F3F6E6;"/>
	<g>
		<path d="M1396.1,824.1c-1.3,0-2.6-0.5-3.5-1.5l-309.8-309.8c-2-2-2-5.1,0-7.1s5.1-2,7.1,0l309.8,309.8
			c2,2,2,5.1,0,7.1C1398.6,823.6,1397.3,824.1,1396.1,824.1z" style="fill:#AAC6FC;"/>
	</g>
	<g>
		<g>
			<line x1="1520" y1="807.4" x2="1543.3" y2="830.8" style="fill:none;"/>
			
				<rect x="1526.6" y="802.6" transform="matrix(0.7071 -0.7071 0.7071 0.7071 -130.6079 1322.9076)" width="10" height="33" style="fill:#383A48;"/>
		</g>
		<g>
			<line x1="1520" y1="830.8" x2="1543.3" y2="807.4" style="fill:none;"/>
			
				<rect x="1515.2" y="814.1" transform="matrix(0.7071 -0.7072 0.7072 0.7071 -130.5163 1323.1008)" width="33" height="10" style="fill:#383A48;"/>
		</g>
	</g>
	<g>
		<g>
			<line x1="616.9" y1="482.6" x2="640.2" y2="506" style="fill:none;"/>
			
				<rect x="623.5" y="477.8" transform="matrix(0.7071 -0.7071 0.7071 0.7071 -165.4477 589.1959)" width="10" height="33" style="fill:#383A48;"/>
		</g>
		<g>
			<line x1="616.9" y1="506" x2="640.2" y2="482.6" style="fill:none;"/>
			
				<rect x="612" y="489.4" transform="matrix(0.7071 -0.7071 0.7071 0.7071 -165.4767 589.2122)" width="33" height="10" style="fill:#383A48;"/>
		</g>
	</g>
	<g>
		<g>
			<line x1="299.1" y1="315.1" x2="322.4" y2="338.4" style="fill:none;"/>
			
				<rect x="305.7" y="310.3" transform="matrix(0.7071 -0.7071 0.7071 0.7071 -140.0819 315.4412)" width="10" height="33" style="fill:#383A48;"/>
		</g>
		<g>
			<line x1="299.1" y1="338.4" x2="322.4" y2="315.1" style="fill:none;"/>
			
				<rect x="294.3" y="321.8" transform="matrix(0.7071 -0.7071 0.7071 0.7071 -140.0287 315.4772)" width="33" height="10" style="fill:#383A48;"/>
		</g>
	</g>
	<path d="M843.8,600.4l-109.3-80.5c-1.5-1.1-3.5-1.3-5.2-0.4c-1.7,0.9-2.7,2.6-2.7,4.5v80.2c0,2.8,2.2,5,5,5l109.3,0.3
		l0,0c2.2,0,4.1-1.4,4.7-3.4C846.2,603.9,845.5,601.7,843.8,600.4z" style="fill:#383A48;"/>
	<g>
		<path d="M498,486.1l3.6-3.5c-15.1-15.5-35.4-24.2-57.1-24.4c-21.7-0.3-42.1,8-57.6,23.1c-32,31.3-32.6,82.7-1.3,114.7
			l5-4.9l103.9-101.5l0,0l3.1-3L498,486.1L498,486.1z" style="fill:#AAC6FC;"/>
		<path d="M501.6,482.6l-3.6,3.5L392.7,589l0,0l-2.2,2.1l-1.4,1.4l0,0l-3.6,3.5c15.9,16.2,36.9,24.4,58,24.4
			c20.5,0,40.9-7.7,56.7-23.1C532.2,566,532.8,514.6,501.6,482.6z" style="fill:#383A48;"/>
	</g>
	<g>
		<g>
			<path d="M812.6,355.7H441.3v-155h371.3l84.1,58.4c13.3,9.3,13.3,29,0,38.2L812.6,355.7z" style="fill:#F6E049;"/>
			<path d="M812.6,360.7H441.3c-2.8,0-5-2.2-5-5v-155c0-2.8,2.2-5,5-5h371.3c1,0,2,0.3,2.9,0.9l84.1,58.4
				c7.6,5.3,12.2,14,12.2,23.2s-4.5,17.9-12.2,23.2l-84.1,58.4C814.6,360.4,813.6,360.7,812.6,360.7z M446.3,350.7H811l82.9-57.5
				c5-3.5,7.9-8.9,7.9-15s-2.9-11.5-7.9-15L811,205.7H446.3V350.7z" style="fill:#383A48;"/>
		</g>
		<g>
			<circle cx="455" cy="277.6" r="78.1" style="fill:#F6E049;"/>
			<path d="M455,360.7c-45.8,0-83.1-37.3-83.1-83.1s37.3-83.1,83.1-83.1s83.1,37.3,83.1,83.1
				C538.1,323.5,500.8,360.7,455,360.7z M455,204.5c-40.3,0-73.1,32.8-73.1,73.1s32.8,73.1,73.1,73.1s73.1-32.8,73.1-73.1
				S495.3,204.5,455,204.5z" style="fill:#383A48;"/>
		</g>
		<g>
			<circle cx="455" cy="277.6" r="37.5" style="fill:#383A48;"/>
			<path d="M455,320.1c-23.4,0-42.5-19.1-42.5-42.5s19.1-42.5,42.5-42.5s42.5,19.1,42.5,42.5
				C497.5,301.1,478.4,320.1,455,320.1z M455,245.1c-17.9,0-32.5,14.6-32.5,32.5s14.6,32.5,32.5,32.5s32.5-14.6,32.5-32.5
				S472.9,245.1,455,245.1z" style="fill:#383A48;"/>
		</g>
		<g>
			<path d="M810.7,359.5c-23.9,0-43.3-19.5-43.3-43.4c0-12.1,5.3-23.7,14.8-32.7c2.4-2.2,3.6-4.2,3.6-5.8
				c0-1.9-1.9-4.1-3.4-5.5c-9.7-9-15-20.7-15-32.9c0-23.9,19.4-43.4,43.3-43.4c2.8,0,5,2.2,5,5s-2.2,5-5,5
				c-18.4,0-33.3,15-33.3,33.4c0,9.4,4.2,18.5,11.8,25.5c4.4,4.1,6.6,8.4,6.6,12.8c0,4.5-2.2,8.8-6.8,13.1
				c-7.5,7.1-11.7,16.1-11.7,25.4c0,18.4,14.9,33.4,33.3,33.4c2.8,0,5,2.2,5,5S813.5,359.5,810.7,359.5z" style="fill:#383A48;"/>
		</g>
		<g>
			<path d="M874.5,243.7v69.1l20.7-13.7c15.3-10.1,15.1-32.6-0.4-42.4L874.5,243.7z" style="fill:#383A48;"/>
			<path d="M874.5,317.8c-0.8,0-1.6-0.2-2.4-0.6c-1.6-0.9-2.6-2.6-2.6-4.4v-69.1c0-1.8,1-3.5,2.6-4.4s3.6-0.8,5.1,0.2
				l20.4,13c8.7,5.5,13.9,15,14,25.3s-5,19.8-13.6,25.5L877.2,317C876.4,317.5,875.4,317.8,874.5,317.8z M879.5,252.8v50.7l13-8.6
				c5.8-3.8,9.2-10.2,9.1-17.1c-0.1-6.9-3.6-13.2-9.4-16.9L879.5,252.8z" style="fill:#383A48;"/>
		</g>
		<g>
			<path d="M772.4,244.2H523c-2.8,0-5-2.2-5-5s2.2-5,5-5h249.4c2.8,0,5,2.2,5,5S775.2,244.2,772.4,244.2z" style="fill:#383A48;"/>
		</g>
		<g>
			<line x1="772.4" y1="316.1" x2="523" y2="316.1" style="fill:none;"/>
			<path d="M772.4,321.1H523c-2.8,0-5-2.2-5-5s2.2-5,5-5h249.4c2.8,0,5,2.2,5,5S775.2,321.1,772.4,321.1z" style="fill:#383A48;"/>
		</g>
	</g>
</g>
</svg>
