<svg xmlns="http://www.w3.org/2000/svg" xmlns:xlink="http://www.w3.org/1999/xlink" width="1354" height="698" version="1.1" viewBox="0 0 1354 698"><title>abstract-8</title><desc>Created with Sketch.</desc><g id="Page-1" fill="none" fill-rule="evenodd" stroke="none" stroke-width="1"><g id="abstract-8" transform="translate(-283.000000, -191.000000)"><g id="Group" transform="translate(283.000000, 191.000000)"><path id="Path" fill="#F3F6E6" fill-rule="nonzero" d="M908.2,1.8 C907.2,0.9 905.9,0.4 904.5,0.4 C851.6,3 830.3,57.7 805.6,121 C777.1,194.2 744.7,277.2 655.7,305.8 C653.4,306.6 651.9,308.9 652.3,311.3 C652.7,313.7 654.8,315.5 657.2,315.5 L904.7,315.5 C907.5,315.5 909.7,313.3 909.7,310.5 L909.7,5.4 C909.8,4.1 909.2,2.8 908.2,1.8 Z"/><path id="Path" fill="#F3F6E6" fill-rule="nonzero" d="M1351.6,1.4 C1350.5,0.4 1349,0.1 1347.5,0.3 C1317.1,5.9 1293.3,29.2 1274.7,71.6 C1258.5,108.5 1247.6,156.4 1237,202.8 C1215.9,295.2 1194,390.8 1131.1,407.5 C1034.4,433.1 994.3,489.5 955.6,544.1 C935.2,572.9 914,602.6 884.7,627.8 C851.8,655.9 811.7,675.2 762.2,686.7 C759.7,687.3 758.1,689.6 758.4,692.1 C758.7,694.6 760.8,696.5 763.4,696.5 L1348.5,696.5 C1351.3,696.5 1353.5,694.3 1353.5,691.5 L1353.5,5.3 C1353.4,3.8 1352.8,2.4 1351.6,1.4 Z"/><path id="Path" fill="#383A48" fill-rule="nonzero" d="M1348.4,288.8 L1219.2,288.8 C1216.9,288.8 1215,290.3 1214.4,292.5 C1214.3,292.7 1207.5,317.7 1194,346.3 C1193.3,347.8 1193.4,349.7 1194.3,351.1 C1195.2,352.5 1196.8,353.4 1198.5,353.4 L1348.4,353.4 C1351.2,353.4 1353.4,351.2 1353.4,348.4 L1353.4,293.8 C1353.4,291 1351.2,288.8 1348.4,288.8 Z"/><path id="Path" fill="#F3F6E6" fill-rule="nonzero" d="M355.1,4.2 C354.6,1.9 352.6,0.3 350.2,0.3 L5.6,0.3 C2.8,0.3 0.6,2.5 0.6,5.3 L0.6,642.5 C0.6,645.1 2.6,647.2 5.1,647.5 C5.3,647.5 5.4,647.5 5.6,647.5 C8,647.5 10,645.8 10.5,643.5 C28.3,552.4 45,500.8 72.3,453.3 C100.4,404.5 139.2,360.5 210.3,286.1 C241.4,253.5 248.4,209.9 255.1,167.7 C259.9,137.7 264.8,106.7 278.2,79.3 C293.2,48.7 317.4,26.1 352.2,9.9 C354.4,8.8 355.6,6.5 355.1,4.2 Z"/><path id="Path" fill="#383A48" fill-rule="nonzero" d="M725.4,141 L710.6,130.9 L719.5,115.4 C720.5,113.6 720.4,111.4 719.1,109.8 C717.8,108.2 715.7,107.5 713.7,108.1 L696.6,113.3 L690,96.6 C689.2,94.7 687.4,93.4 685.3,93.4 C683.2,93.4 681.4,94.7 680.6,96.6 L674,113.3 L656.9,108.1 C654.9,107.5 652.8,108.2 651.5,109.8 C650.2,111.4 650.1,113.6 651.1,115.4 L660,130.9 L645.4,141 C643.7,142.2 642.9,144.2 643.4,146.2 C643.9,148.2 645.5,149.7 647.5,150 L665.2,152.7 L663.9,170.6 C663.8,172.6 664.9,174.6 666.7,175.5 C667.4,175.8 668.1,176 668.9,176 C670.1,176 671.4,175.5 672.3,174.7 L685.5,162.5 L698.7,174.7 C700.2,176.1 702.4,176.4 704.3,175.5 C706.1,174.6 707.3,172.7 707.1,170.6 L705.8,152.7 L723.5,150 C725.5,149.7 727.2,148.2 727.6,146.2 C727.9,144.3 727.1,142.2 725.4,141 Z"/><g transform="translate(1039.000000, 600.000000)"><rect id="Rectangle" width="10" height="33" x="11.9" y=".4" fill="#383A48" fill-rule="nonzero"/><g transform="translate(0.000000, 11.000000)"><line id="Path" x1=".4" x2="33.4" y1="5.9" y2="5.9"/><rect id="Rectangle" width="33" height="10" x=".4" y=".9" fill="#383A48" fill-rule="nonzero"/></g></g><g id="Oval" fill="#383A48" fill-rule="nonzero" transform="translate(541.000000, 319.000000)"><circle cx="362" cy="5.7" r="5.2"/><circle cx="362" cy="31.2" r="5.2"/><circle cx="362" cy="56.6" r="5.2"/><circle cx="362" cy="82" r="5.2"/><circle cx="362" cy="107.5" r="5.2"/><circle cx="362" cy="132.9" r="5.2"/><circle cx="362" cy="158.4" r="5.2"/><circle cx="362" cy="183.8" r="5.2"/><circle cx="362" cy="209.2" r="5.2"/><circle cx="362" cy="234.7" r="5.2"/><circle cx="362" cy="260.1" r="5.2"/><circle cx="362" cy="285.6" r="5.2"/><circle cx="362" cy="311" r="5.2"/><circle cx="362" cy="336.4" r="5.2"/><circle cx="362" cy="361.9" r="5.2"/><circle cx="336.6" cy="5.7" r="5.2"/><circle cx="336.6" cy="31.2" r="5.2"/><circle cx="336.6" cy="56.6" r="5.2"/><circle cx="336.6" cy="82" r="5.2"/><circle cx="336.6" cy="107.5" r="5.2"/><circle cx="336.6" cy="132.9" r="5.2"/><circle cx="336.6" cy="158.4" r="5.2"/><circle cx="336.6" cy="183.8" r="5.2"/><circle cx="336.6" cy="209.2" r="5.2"/><circle cx="336.6" cy="234.7" r="5.2"/><circle cx="336.6" cy="260.1" r="5.2"/><circle cx="336.6" cy="285.6" r="5.2"/><circle cx="336.6" cy="311" r="5.2"/><circle cx="336.6" cy="336.4" r="5.2"/><circle cx="336.6" cy="361.9" r="5.2"/><circle cx="311.2" cy="5.7" r="5.2"/><circle cx="311.2" cy="31.2" r="5.2"/><circle cx="311.2" cy="56.6" r="5.2"/><circle cx="311.2" cy="82" r="5.2"/><circle cx="311.2" cy="107.5" r="5.2"/><circle cx="311.2" cy="132.9" r="5.2"/><circle cx="311.2" cy="158.4" r="5.2"/><circle cx="311.2" cy="183.8" r="5.2"/><circle cx="311.2" cy="209.2" r="5.2"/><circle cx="311.2" cy="234.7" r="5.2"/><circle cx="311.2" cy="260.1" r="5.2"/><circle cx="311.2" cy="285.6" r="5.2"/><circle cx="311.2" cy="311" r="5.2"/><circle cx="311.2" cy="336.4" r="5.2"/><circle cx="311.2" cy="361.9" r="5.2"/><circle cx="285.7" cy="5.7" r="5.2"/><circle cx="285.7" cy="31.2" r="5.2"/><circle cx="285.7" cy="56.6" r="5.2"/><circle cx="285.7" cy="82" r="5.2"/><circle cx="285.7" cy="107.5" r="5.2"/><circle cx="285.7" cy="132.9" r="5.2"/><circle cx="285.7" cy="158.4" r="5.2"/><circle cx="285.7" cy="183.8" r="5.2"/><circle cx="285.7" cy="209.2" r="5.2"/><circle cx="285.7" cy="234.7" r="5.2"/><circle cx="285.7" cy="260.1" r="5.2"/><circle cx="285.7" cy="285.6" r="5.2"/><circle cx="285.7" cy="311" r="5.2"/><circle cx="285.7" cy="336.4" r="5.2"/><circle cx="285.7" cy="361.9" r="5.2"/><circle cx="260.3" cy="5.7" r="5.2"/><circle cx="260.3" cy="31.2" r="5.2"/><circle cx="260.3" cy="56.6" r="5.2"/><circle cx="260.3" cy="82" r="5.2"/><circle cx="260.3" cy="107.5" r="5.2"/><circle cx="260.3" cy="132.9" r="5.2"/><circle cx="260.3" cy="158.4" r="5.2"/><circle cx="260.3" cy="183.8" r="5.2"/><circle cx="260.3" cy="209.2" r="5.2"/><circle cx="260.3" cy="234.7" r="5.2"/><circle cx="260.3" cy="260.1" r="5.2"/><circle cx="260.3" cy="285.6" r="5.2"/><circle cx="260.3" cy="311" r="5.2"/><circle cx="260.3" cy="336.4" r="5.2"/><circle cx="260.3" cy="361.9" r="5.2"/><circle cx="234.8" cy="5.7" r="5.2"/><circle cx="234.8" cy="31.2" r="5.2"/><circle cx="234.8" cy="56.6" r="5.2"/><circle cx="234.8" cy="82" r="5.2"/><circle cx="234.8" cy="107.5" r="5.2"/><circle cx="234.8" cy="132.9" r="5.2"/><circle cx="234.8" cy="158.4" r="5.2"/><circle cx="234.8" cy="183.8" r="5.2"/><circle cx="234.8" cy="209.2" r="5.2"/><circle cx="234.8" cy="234.7" r="5.2"/><circle cx="234.8" cy="260.1" r="5.2"/><circle cx="234.8" cy="285.6" r="5.2"/><circle cx="234.8" cy="311" r="5.2"/><circle cx="234.8" cy="336.4" r="5.2"/><circle cx="234.8" cy="361.9" r="5.2"/><circle cx="209.4" cy="5.7" r="5.2"/><circle cx="209.4" cy="31.2" r="5.2"/><circle cx="209.4" cy="56.6" r="5.2"/><circle cx="209.4" cy="82" r="5.2"/><circle cx="209.4" cy="107.5" r="5.2"/><circle cx="209.4" cy="132.9" r="5.2"/><circle cx="209.4" cy="158.4" r="5.2"/><circle cx="209.4" cy="183.8" r="5.2"/><circle cx="209.4" cy="209.2" r="5.2"/><circle cx="209.4" cy="234.7" r="5.2"/><circle cx="209.4" cy="260.1" r="5.2"/><circle cx="209.4" cy="285.6" r="5.2"/><circle cx="209.4" cy="311" r="5.2"/><circle cx="209.4" cy="336.4" r="5.2"/><circle cx="209.4" cy="361.9" r="5.2"/><circle cx="184" cy="5.7" r="5.2"/><circle cx="184" cy="31.2" r="5.2"/><circle cx="184" cy="56.6" r="5.2"/><circle cx="184" cy="82" r="5.2"/><circle cx="184" cy="107.5" r="5.2"/><circle cx="184" cy="132.9" r="5.2"/><circle cx="184" cy="158.4" r="5.2"/><circle cx="184" cy="183.8" r="5.2"/><circle cx="184" cy="209.2" r="5.2"/><circle cx="184" cy="234.7" r="5.2"/><circle cx="184" cy="260.1" r="5.2"/><circle cx="184" cy="285.6" r="5.2"/><circle cx="184" cy="311" r="5.2"/><circle cx="184" cy="336.4" r="5.2"/><circle cx="184" cy="361.9" r="5.2"/><circle cx="158.5" cy="5.7" r="5.2"/><circle cx="158.5" cy="31.2" r="5.2"/><circle cx="158.5" cy="56.6" r="5.2"/><circle cx="158.5" cy="82" r="5.2"/><circle cx="158.5" cy="107.5" r="5.2"/><circle cx="158.5" cy="132.9" r="5.2"/><circle cx="158.5" cy="158.4" r="5.2"/><circle cx="158.5" cy="183.8" r="5.2"/><circle cx="158.5" cy="209.2" r="5.2"/><circle cx="158.5" cy="234.7" r="5.2"/><circle cx="158.5" cy="260.1" r="5.2"/><circle cx="158.5" cy="285.6" r="5.2"/><circle cx="158.5" cy="311" r="5.2"/><circle cx="158.5" cy="336.4" r="5.2"/><circle cx="158.5" cy="361.9" r="5.2"/><circle cx="133.1" cy="5.7" r="5.2"/><circle cx="133.1" cy="31.2" r="5.2"/><circle cx="133.1" cy="56.6" r="5.2"/><circle cx="133.1" cy="82" r="5.2"/><circle cx="133.1" cy="107.5" r="5.2"/><circle cx="133.1" cy="132.9" r="5.2"/><circle cx="133.1" cy="158.4" r="5.2"/><circle cx="133.1" cy="183.8" r="5.2"/><circle cx="133.1" cy="209.2" r="5.2"/><circle cx="133.1" cy="234.7" r="5.2"/><circle cx="133.1" cy="260.1" r="5.2"/><circle cx="133.1" cy="285.6" r="5.2"/><circle cx="133.1" cy="311" r="5.2"/><circle cx="133.1" cy="336.4" r="5.2"/><circle cx="133.1" cy="361.9" r="5.2"/><circle cx="107.6" cy="5.7" r="5.2"/><circle cx="107.6" cy="31.2" r="5.2"/><circle cx="107.6" cy="56.6" r="5.2"/><circle cx="107.6" cy="82" r="5.2"/><circle cx="107.6" cy="107.5" r="5.2"/><circle cx="107.6" cy="132.9" r="5.2"/><circle cx="107.6" cy="158.4" r="5.2"/><circle cx="107.6" cy="183.8" r="5.2"/><circle cx="107.6" cy="209.2" r="5.2"/><circle cx="107.6" cy="234.7" r="5.2"/><circle cx="107.6" cy="260.1" r="5.2"/><circle cx="107.6" cy="285.6" r="5.2"/><circle cx="107.6" cy="311" r="5.2"/><circle cx="107.6" cy="336.4" r="5.2"/><circle cx="107.6" cy="361.9" r="5.2"/><circle cx="82.2" cy="5.7" r="5.2"/><circle cx="82.2" cy="31.2" r="5.2"/><circle cx="82.2" cy="56.6" r="5.2"/><circle cx="82.2" cy="82" r="5.2"/><circle cx="82.2" cy="107.5" r="5.2"/><circle cx="82.2" cy="132.9" r="5.2"/><circle cx="82.2" cy="158.4" r="5.2"/><circle cx="82.2" cy="183.8" r="5.2"/><circle cx="82.2" cy="209.2" r="5.2"/><circle cx="82.2" cy="234.7" r="5.2"/><circle cx="82.2" cy="260.1" r="5.2"/><circle cx="82.2" cy="285.6" r="5.2"/><circle cx="82.2" cy="311" r="5.2"/><circle cx="82.2" cy="336.4" r="5.2"/><circle cx="82.2" cy="361.9" r="5.2"/><circle cx="56.8" cy="5.7" r="5.2"/><circle cx="56.8" cy="31.2" r="5.2"/><circle cx="56.8" cy="56.6" r="5.2"/><circle cx="56.8" cy="82" r="5.2"/><circle cx="56.8" cy="107.5" r="5.2"/><circle cx="56.8" cy="132.9" r="5.2"/><circle cx="56.8" cy="158.4" r="5.2"/><circle cx="56.8" cy="183.8" r="5.2"/><circle cx="56.8" cy="209.2" r="5.2"/><circle cx="56.8" cy="234.7" r="5.2"/><circle cx="56.8" cy="260.1" r="5.2"/><circle cx="56.8" cy="285.6" r="5.2"/><circle cx="56.8" cy="311" r="5.2"/><circle cx="56.8" cy="336.4" r="5.2"/><circle cx="56.8" cy="361.9" r="5.2"/><circle cx="31.3" cy="5.7" r="5.2"/><circle cx="31.3" cy="31.2" r="5.2"/><circle cx="31.3" cy="56.6" r="5.2"/><circle cx="31.3" cy="82" r="5.2"/><circle cx="31.3" cy="107.5" r="5.2"/><circle cx="31.3" cy="132.9" r="5.2"/><circle cx="31.3" cy="158.4" r="5.2"/><circle cx="31.3" cy="183.8" r="5.2"/><circle cx="31.3" cy="209.2" r="5.2"/><circle cx="31.3" cy="234.7" r="5.2"/><circle cx="31.3" cy="260.1" r="5.2"/><circle cx="31.3" cy="285.6" r="5.2"/><circle cx="31.3" cy="311" r="5.2"/><circle cx="31.3" cy="336.4" r="5.2"/><circle cx="31.3" cy="361.9" r="5.2"/><circle cx="5.9" cy="5.7" r="5.2"/><circle cx="5.9" cy="31.2" r="5.2"/><circle cx="5.9" cy="56.6" r="5.2"/><circle cx="5.9" cy="82" r="5.2"/><circle cx="5.9" cy="107.5" r="5.2"/><circle cx="5.9" cy="132.9" r="5.2"/><circle cx="5.9" cy="158.4" r="5.2"/><circle cx="5.9" cy="183.8" r="5.2"/><circle cx="5.9" cy="209.2" r="5.2"/><circle cx="5.9" cy="234.7" r="5.2"/><circle cx="5.9" cy="260.1" r="5.2"/><circle cx="5.9" cy="285.6" r="5.2"/><circle cx="5.9" cy="311" r="5.2"/><circle cx="5.9" cy="336.4" r="5.2"/><circle cx="5.9" cy="361.9" r="5.2"/></g><g fill-rule="nonzero" transform="translate(0.000000, 305.000000)"><g fill="#383A48" transform="translate(105.000000, 282.000000)"><circle id="Oval" cx="55.8" cy="55.4" r="50.3"/><path id="Shape" d="M55.8,110.7 C25.3,110.7 0.5,85.9 0.5,55.4 C0.5,24.9 25.3,0.1 55.8,0.1 C86.3,0.1 111.1,24.9 111.1,55.4 C111.1,85.9 86.3,110.7 55.8,110.7 Z M55.8,10.1 C30.8,10.1 10.5,30.4 10.5,55.4 C10.5,80.4 30.8,100.7 55.8,100.7 C80.8,100.7 101.1,80.4 101.1,55.4 C101.1,30.4 80.8,10.1 55.8,10.1 Z"/></g><g fill="#383A48" transform="translate(491.000000, 281.000000)"><circle id="Oval" cx="56.1" cy="55.8" r="50.3"/><path id="Shape" d="M56.1,111.1 C25.6,111.1 0.8,86.3 0.8,55.8 C0.8,25.3 25.6,0.5 56.1,0.5 C86.6,0.5 111.4,25.3 111.4,55.8 C111.4,86.3 86.6,111.1 56.1,111.1 Z M56.1,10.5 C31.1,10.5 10.8,30.8 10.8,55.8 C10.8,80.8 31.1,101.1 56.1,101.1 C81.1,101.1 101.400366,80.8 101.400366,55.8 C101.5,30.8 81.1,10.5 56.1,10.5 Z"/></g><g transform="translate(0.000000, 249.000000)"><polygon id="Path" fill="#F6E049" points="659.5 88.4 5.6 88.4 26.2 5.7 659.5 5.7"/><path id="Shape" fill="#383A48" d="M659.5,93.4 L5.6,93.4 C4.1,93.4 2.6,92.7 1.7,91.5 C0.8,90.3 0.4,88.7 0.8,87.2 L21.4,4.5 C22,2.3 24,0.7 26.3,0.7 L659.6,0.7 C662.4,0.7 664.6,2.9 664.6,5.7 L664.6,88.4 C664.5,91.2 662.3,93.4 659.5,93.4 Z M12,83.4 L654.5,83.4 L654.5,10.7 L30.1,10.7 L12,83.4 Z"/></g><g transform="translate(164.000000, 0.000000)"><polygon id="Path" fill="#AAC6FC" points="314.8 5.5 84.6 5.5 5.2 254.7 367.2 254.7"/><path id="Shape" fill="#383A48" d="M367.2,259.7 L5.2,259.7 C3.6,259.7 2.1,258.9 1.2,257.7 C0.3,256.5 4.58522109e-14,254.8 0.5,253.2 L79.8,4 C80.5,1.9 82.4,0.5 84.6,0.5 L314.8,0.5 C317.2,0.5 319.2,2.2 319.7,4.5 L372,253.7 C372.3,255.2 371.9,256.7 371,257.9 C370.1,259 368.7,259.7 367.2,259.7 Z M12,249.7 L361,249.7 L310.7,10.5 L88.2,10.5 L12,249.7 Z"/></g><polygon id="Path" fill="#F3F6E6" points="240.3 48.2 386.4 194.8 406.2 110.3 306.9 10.5 252.2 10.5"/><g transform="translate(206.000000, 249.000000)"><polygon id="Path" fill="#F6E049" points="659 88.4 5.1 88.4 15.8 5.7 638.4 5.7"/><path id="Shape" fill="#383A48" d="M659,93.4 L5.1,93.4 C3.7,93.4 2.3,92.8 1.3,91.7 C0.3,90.6 -0.1,89.2 0.1,87.8 L10.8,5.1 C11.1,2.6 13.2,0.7 15.8,0.7 L638.4,0.7 C640.7,0.7 642.7,2.3 643.3,4.5 L663.9,87.2 C664.3,88.7 663.9,90.3 663,91.5 C662,92.7 660.6,93.4 659,93.4 Z M10.8,83.4 L652.6,83.4 L634.5,10.7 L20.2,10.7 L10.8,83.4 Z"/></g><path id="Path" fill="#383A48" d="M818,341.3 C815.2,341.3 813,339.1 813,336.3 C813,294.2 778.8,260 736.7,260 C694.6,260 660.4,294.2 660.4,336.3 C660.4,339.1 658.2,341.3 655.4,341.3 C652.6,341.3 650.4,339.1 650.4,336.3 C650.4,288.7 689.1,250 736.7,250 C784.3,250 823,288.7 823,336.3 C823,339 820.8,341.3 818,341.3 Z"/><path id="Path" fill="#383A48" d="M443.2,341.3 C440.4,341.3 438.2,339.1 438.2,336.3 C438.2,294.2 404,260 361.9,260 C319.8,260 285.6,294.2 285.6,336.3 C285.6,339.1 283.4,341.3 280.6,341.3 C277.8,341.3 275.6,339.1 275.6,336.3 C275.6,288.7 314.3,250 361.9,250 C409.5,250 448.2,288.7 448.2,336.3 C448.2,339 446,341.3 443.2,341.3 Z"/><g transform="translate(369.000000, 0.000000)"><polygon id="Path" fill="#AAC6FC" points="288.3 5.5 58.1 5.5 5.7 254.7 367.7 254.7"/><path id="Shape" fill="#383A48" d="M367.7,259.7 L5.7,259.7 C4.2,259.7 2.8,259 1.8,257.9 C0.9,256.7 0.5,255.2 0.8,253.7 L53.2,4.5 C53.7,2.2 55.7,0.5 58.1,0.5 L288.3,0.5 C290.5,0.5 292.4,1.9 293.1,4 L372.5,253.2 C373,254.7 372.7,256.4 371.8,257.7 C370.8,258.9 369.3,259.7 367.7,259.7 Z M11.9,249.7 L360.9,249.7 L284.7,10.5 L62.1,10.5 L11.9,249.7 Z"/></g><g fill="#383A48" transform="translate(306.000000, 282.000000)"><circle id="Oval" cx="55.9" cy="55.4" r="50.3"/><path id="Shape" d="M55.9,110.7 C25.4,110.7 0.6,85.9 0.6,55.4 C0.6,24.9 25.4,0.1 55.9,0.1 C86.4,0.1 111.2,24.9 111.2,55.4 C111.2,85.9 86.4,110.7 55.9,110.7 Z M55.9,10.1 C30.9,10.1 10.6,30.4 10.6,55.4 C10.6,80.4 30.9,100.7 55.9,100.7 C80.9,100.7 101.2,80.4 101.2,55.4 C101.2,30.4 80.9,10.1 55.9,10.1 Z"/></g><circle id="Oval" cx="361.9" cy="337.4" r="25.6" fill="#F6E049"/><g fill="#383A48" transform="translate(681.000000, 281.000000)"><circle id="Oval" cx="55.7" cy="55.3" r="50.3"/><path id="Shape" d="M55.7,110.6 C25.2,110.6 0.4,85.8 0.4,55.3 C0.4,24.8 25.2,1.13686838e-13 55.7,1.13686838e-13 C86.2,1.13686838e-13 111,24.8 111,55.3 C111,85.8 86.2,110.6 55.7,110.6 Z M55.7,9.9 C30.7,9.9 10.4,30.2 10.4,55.2 C10.4,80.2 30.7,100.5 55.7,100.5 C80.7,100.5 101,80.2 101,55.2 C101,30.3 80.7,9.9 55.7,9.9 Z"/></g><g transform="translate(151.000000, 273.000000)"><circle id="Oval" cx="23.2" cy="23.1" r="17.9" fill="#F3F6E6"/><path id="Shape" fill="#383A48" d="M23.2,46 C10.6,46 0.3,35.7 0.3,23.1 C0.3,10.5 10.6,0.2 23.2,0.2 C35.8,0.2 46.1,10.5 46.1,23.1 C46.1,35.7 35.9,46 23.2,46 Z M23.2,10.1 C16.1,10.1 10.3,15.9 10.3,23 C10.3,30.1 16.1,35.9 23.2,35.9 C30.3,35.9 36.1,30.1 36.1,23 C36.1,15.9 30.3,10.1 23.2,10.1 Z"/></g><g transform="translate(31.000000, 273.000000)"><circle id="Oval" cx="23.6" cy="23.1" r="17.9" fill="#F3F6E6"/><path id="Shape" fill="#383A48" d="M23.6,46 C11,46 0.7,35.7 0.7,23.1 C0.7,10.5 11,0.2 23.6,0.2 C36.2,0.2 46.5,10.5 46.5,23.1 C46.5,35.7 36.2,46 23.6,46 Z M23.6,10.1 C16.5,10.1 10.7,15.9 10.7,23 C10.7,30.1 16.5,35.9 23.6,35.9 C30.7,35.9 36.5,30.1 36.5,23 C36.5,15.9 30.7,10.1 23.6,10.1 Z"/></g><path id="Path" fill="#383A48" d="M550.6,337.9 C547.8,337.9 545.6,335.7 545.6,332.9 L545.6,5.5 C545.6,2.7 547.8,0.5 550.6,0.5 C553.4,0.5 555.6,2.7 555.6,5.5 L555.6,332.9 C555.6,335.7 553.3,337.9 550.6,337.9 Z"/><circle id="Oval" cx="736.729" cy="337.402" r="25.6" fill="#F6E049" transform="translate(736.728680, 337.402110) rotate(-80.781636) translate(-736.728680, -337.402110)"/></g><g fill="#E0719E" fill-rule="nonzero" transform="translate(398.000000, 0.000000)"><rect id="Rectangle" width="31.7" height="35.1" x="131.7" y="145.8"/><path id="Shape" d="M163.4,80.5 C166.2,80.5 168.4,78.3 168.4,75.5 L168.4,40.4 C168.4,37.6 166.2,35.4 163.4,35.4 L105.4,35.4 L105.4,5.3 C105.4,2.5 103.2,0.3 100.4,0.3 L68.7,0.3 C65.9,0.3 63.7,2.5 63.7,5.3 L63.7,35.4 L37,35.4 C34.2,35.4 32,37.6 32,40.4 L32,70.5 L5.3,70.5 C2.5,70.5 0.3,72.7 0.3,75.5 L0.3,110.6 C0.3,113.4 2.5,115.6 5.3,115.6 L32,115.6 L32,145.7 C32,148.5 34.2,150.7 37,150.7 L126.8,150.7 L126.8,175.8 L5.2,175.8 C2.4,175.8 0.2,178 0.2,180.8 L0.2,215.9 C0.2,218.7 2.4,220.9 5.2,220.9 L63.7,220.9 L63.7,250.6 C63.7,253.4 65.9,255.6 68.7,255.6 L100.4,255.6 C103.2,255.6 105.4,253.4 105.4,250.6 L105.4,220.9 L131.7,220.9 C134.5,220.9 136.7,218.7 136.7,215.9 L136.7,185.8 L163.4,185.8 C166.2,185.8 168.4,183.6 168.4,180.8 L168.4,145.7 C168.4,142.9 166.2,140.7 163.4,140.7 L136.7,140.7 L136.7,110.6 C136.7,107.8 134.5,105.6 131.7,105.6 L41.9,105.6 L41.9,80.5 L163.4,80.5 Z M158.4,175.9 L136.7,175.9 L136.7,150.8 L158.4,150.8 L158.4,175.9 Z"/></g><g fill-rule="nonzero"><g transform="translate(1019.000000, 381.000000)"><circle id="Oval" cx="46.1" cy="47" r="41" fill="#F6E049"/><path id="Shape" fill="#383A48" d="M46.1,93 C34.3,93 22.5,88.5 13.5,79.5 C-4.4,61.6 -4.4,32.3 13.5,14.4 C31.4,-3.5 60.7,-3.5 78.6,14.4 C96.5,32.3 96.5,61.6 78.6,79.5 C69.6,88.5 57.9,93 46.1,93 Z M46.1,11 C36.9,11 27.6,14.5 20.6,21.5 C6.6,35.5 6.6,58.4 20.6,72.5 C34.6,86.5 57.5,86.5 71.6,72.5 C85.6,58.5 85.6,35.6 71.6,21.5 C64.5,14.5 55.3,11 46.1,11 Z"/></g><g transform="translate(1019.000000, 381.000000) translate(41.000000, 41.000000)"><circle id="Oval" cx="46.1" cy="47" r="41" fill="#F6E049"/><path id="Shape" fill="#383A48" d="M46.1,93 C34.3,93 22.5,88.5 13.5,79.5 C4.8,70.8 0,59.2 0,47 C0,34.7 4.8,23.1 13.5,14.4 L13.5,14.4 C31.4,-3.5 60.7,-3.6 78.6,14.4 C96.5,32.3 96.5,61.6 78.6,79.5 C69.7,88.5 57.9,93 46.1,93 Z M46.1,11 C36.9,11 27.6,14.5 20.6,21.5 L20.6,21.5 C13.8,28.3 10,37.4 10,47 C10,56.6 13.7,65.7 20.6,72.5 C34.6,86.5 57.5,86.5 71.6,72.5 C85.6,58.5 85.6,35.6 71.6,21.5 C64.6,14.5 55.3,11 46.1,11 Z"/></g><g transform="translate(1019.000000, 381.000000) translate(82.000000, 83.000000)"><circle id="Oval" cx="46.1" cy="46" r="41" fill="#F6E049"/><path id="Shape" fill="#383A48" d="M46.1,92.1 C33.8,92.1 22.2,87.3 13.5,78.6 C-4.4,60.7 -4.4,31.4 13.5,13.5 L13.5,13.5 C31.5,-4.4 60.7,-4.4 78.6,13.5 C87.3,22.2 92.1,33.8 92.1,46.1 C92.1,58.4 87.3,70 78.6,78.6 C70,87.3 58.4,92.1 46.1,92.1 Z M20.7,20.6 C6.7,34.6 6.7,57.5 20.7,71.6 C27.5,78.4 36.6,82.2 46.2,82.2 C55.8,82.2 64.9,78.5 71.7,71.6 C78.5,64.8 82.3,55.7 82.3,46.1 C82.3,36.5 78.6,27.4 71.7,20.6 C57.6,6.5 34.7,6.5 20.7,20.6 L20.7,20.6 Z"/></g><g transform="translate(1019.000000, 381.000000) translate(123.000000, 124.000000)"><circle id="Oval" cx="46.2" cy="46.1" r="41" fill="#AAC6FC"/><path id="Shape" fill="#383A48" d="M46.2,92.1 C34.4,92.1 22.6,87.6 13.6,78.6 C-4.3,60.7 -4.3,31.4 13.6,13.5 L13.6,13.5 C31.6,-4.4 60.8,-4.4 78.7,13.5 C96.6,31.4 96.6,60.7 78.7,78.6 C69.7,87.6 58,92.1 46.2,92.1 Z M20.7,20.6 C6.7,34.6 6.7,57.5 20.7,71.6 C34.8,85.6 57.6,85.6 71.7,71.6 C85.7,57.6 85.7,34.7 71.7,20.6 C57.6,6.5 34.7,6.5 20.7,20.6 L20.7,20.6 Z"/></g></g><g fill-rule="nonzero" transform="translate(899.000000, 0.000000)"><g><g><rect id="Rectangle" width="443.6" height="300.4" x="5.8" y="5.4" fill="#F3F6E6"/><path id="Shape" fill="#383A48" d="M449.4,310.8 L5.7,310.8 C2.9,310.8 0.7,308.6 0.7,305.8 L0.7,5.4 C0.7,2.6 2.9,0.4 5.7,0.4 L449.4,0.4 C452.2,0.4 454.4,2.6 454.4,5.4 L454.4,305.8 C454.4,308.6 452.2,310.8 449.4,310.8 Z M10.8,300.8 L444.5,300.8 L444.5,10.4 L10.8,10.4 L10.8,300.8 Z"/></g><g><rect id="Rectangle" width="443.6" height="99.4" x="5.8" y="5.4" fill="#E0719E"/><path id="Shape" fill="#383A48" d="M449.4,109.8 L5.7,109.8 C2.9,109.8 0.7,107.6 0.7,104.8 L0.7,5.4 C0.7,2.6 2.9,0.4 5.7,0.4 L449.4,0.4 C452.2,0.4 454.4,2.6 454.4,5.4 L454.4,104.8 C454.4,107.6 452.2,109.8 449.4,109.8 Z M10.8,99.8 L444.5,99.8 L444.5,10.4 L10.8,10.4 L10.8,99.8 Z"/></g><g id="Shape" fill="#383A48"><path d="M20.4,41.3 C9.3,41.3 0.2,32.3 0.2,21.1 C0.2,9.9 9.2,0.9 20.4,0.9 C31.6,0.9 40.6,9.9 40.6,21.1 C40.6,32.3 31.5,41.3 20.4,41.3 Z M20.4,11 C14.8,11 10.2,15.6 10.2,21.2 C10.2,26.8 14.8,31.4 20.4,31.4 C26,31.4 30.6,26.8 30.6,21.2 C30.5,15.5 26,11 20.4,11 Z" transform="translate(279.000000, 34.000000)"/><path d="M70.8,41.3 C59.7,41.3 50.6,32.3 50.6,21.1 C50.6,9.9 59.6,0.9 70.8,0.9 C82,0.9 91,9.9 91,21.1 C91,32.3 81.9,41.3 70.8,41.3 Z M70.8,11 C65.2,11 60.6,15.6 60.6,21.2 C60.6,26.8 65.2,31.4 70.8,31.4 C76.4,31.4 81,26.8 81,21.2 C80.9,15.5 76.4,11 70.8,11 Z" transform="translate(279.000000, 34.000000)"/><path d="M121.1,41.3 C110,41.3 100.9,32.3 100.9,21.1 C100.9,9.9 109.9,0.9 121.1,0.9 C132.3,0.9 141.3,9.9 141.3,21.1 C141.3,32.3 132.3,41.3 121.1,41.3 Z M121.1,11 C115.5,11 110.9,15.6 110.9,21.2 C110.9,26.8 115.5,31.4 121.1,31.4 C126.7,31.4 131.3,26.8 131.3,21.2 C131.3,15.5 126.7,11 121.1,11 Z" transform="translate(279.000000, 34.000000)"/></g></g><path id="Path" fill="#AAC6FC" d="M369.6,162.5 L85.6,162.5 C82.8,162.5 80.6,164.7 80.6,167.5 L80.6,243.1 C80.6,245.9 82.8,248.1 85.6,248.1 L369.6,248.1 C372.4,248.1 374.6,245.9 374.6,243.1 L374.6,167.5 C374.6,164.7 372.4,162.5 369.6,162.5 Z"/></g><path id="Path" fill="#383A48" fill-rule="nonzero" d="M124.2,233.9 C116.9,233.9 109.6,231.1 104,225.6 L91.7,213.3 C84.5,206.1 72.7,206.1 65.5,213.3 L52,226.8 C50,228.8 46.9,228.8 44.9,226.8 C42.9,224.8 42.9,221.7 44.9,219.7 L58.4,206.2 C69.5,195.1 87.6,195.1 98.8,206.2 L111.1,218.5 C118.3,225.7 130.1,225.7 137.3,218.5 L149.6,206.2 C160.7,195.1 178.8,195.1 190,206.2 L202.3,218.5 C209.5,225.7 221.3,225.7 228.5,218.5 L240.8,206.2 C251.9,195.1 270,195.1 281.2,206.2 L293.6,218.5 C295.6,220.5 295.6,223.6 293.6,225.6 C291.6,227.6 288.5,227.6 286.5,225.6 L274,213.2 C266.8,206 255,206 247.8,213.2 L235.5,225.5 C224.4,236.6 206.3,236.6 195.1,225.5 L182.8,213.2 C175.6,206 163.8,206 156.6,213.2 L144.3,225.5 C138.8,231.1 131.5,233.9 124.2,233.9 Z"/></g></g></g></svg>