<?xml version="1.0" encoding="utf-8"?>
<!-- Generator: Adobe Illustrator 22.0.1, SVG Export Plug-In . SVG Version: 6.00 Build 0)  -->
<svg version="1.1" id="Layer_1" xmlns="http://www.w3.org/2000/svg" xmlns:xlink="http://www.w3.org/1999/xlink" x="0px" y="0px" viewBox="0 0 1920 1080" style="enable-background:new 0 0 1920 1080;" xml:space="preserve">

<rect y="0" width="1920" height="1080" style="fill:#E0719E;"/>
<g>
	<path d="M1695.4,190.8H764.1c-2.1,0-3.9,1.3-4.7,3.2c-0.7,1.9-0.2,4.1,1.4,5.5c83.6,73.2,160,121.3,233.6,146.9
		c63.7,22.1,114.2,23.9,158.8,25.5c38,1.3,70.9,2.5,102,16.6c33.9,15.3,63.8,45.4,94.1,94.7c9.7,15.8,18.9,30.6,27.7,44.9
		c43.9,71,75.7,122.3,97.6,172.2c12.5,28.5,21.1,54.6,26.9,82.2c6.1,29.3,9.1,60.8,9.1,96.5c0,2.8,2.2,5,5,5h179.7c2.8,0,5-2.2,5-5
		V195.8C1700.4,193,1698.2,190.8,1695.4,190.8z" style="fill:#F3F6E6;"/>
	<path d="M1698.8,679.1c-1-0.9-2.4-1.4-3.8-1.3l-216.2,15.5c-1.6,0.1-3.1,1-3.9,2.4s-0.9,3.1-0.3,4.6
		c12.5,28.5,21.1,54.6,26.9,82.2c0.5,2.3,2.5,4,4.9,4h189c2.8,0,5-2.2,5-5v-98.8C1700.4,681.4,1699.9,680,1698.8,679.1z" style="fill:#383A48;"/>
	<path d="M815.6,875l-239-173.3c-2.2-1.6-5.2-1.1-6.9,1c-0.2,0.2-15.7,19.6-40.5,18.1c-26.2-1.6-54.5-26.1-81.7-70.9
		c-28.4-46.8-66.2-63.2-102.8-79.1c-27.1-11.8-52.7-22.9-73.3-45.9c-23.3-26.1-36.6-63.5-42-117.9c-0.3-2.7-2.6-4.6-5.2-4.5
		c-2.7,0.1-4.8,2.3-4.8,5V879c0,2.8,2.2,5,5,5h588.1c2.2,0,4.1-1.4,4.8-3.5C818.1,878.5,817.4,876.3,815.6,875z" style="fill:#F3F6E6;"/>
	<g>
		<g>
			<g>
				<circle cx="713.9" cy="872.8" r="5" style="fill:#383A48;"/>
			</g>
		</g>
		<g>
			<g>
				<circle cx="689.2" cy="848.1" r="5" style="fill:#383A48;"/>
			</g>
		</g>
		<g>
			<g>
				<circle cx="689.2" cy="872.8" r="5" style="fill:#383A48;"/>
			</g>
		</g>
		<g>
			<g>
				<circle cx="664.6" cy="823.4" r="5" style="fill:#383A48;"/>
			</g>
		</g>
		<g>
			<g>
				<circle cx="664.6" cy="848.1" r="5" style="fill:#383A48;"/>
			</g>
		</g>
		<g>
			<g>
				<circle cx="664.6" cy="872.8" r="5" style="fill:#383A48;"/>
			</g>
		</g>
		<g>
			<g>
				<circle cx="639.9" cy="798.8" r="5" style="fill:#383A48;"/>
			</g>
		</g>
		<g>
			<g>
				<circle cx="639.9" cy="823.4" r="5" style="fill:#383A48;"/>
			</g>
		</g>
		<g>
			<g>
				<circle cx="639.9" cy="848.1" r="5" style="fill:#383A48;"/>
			</g>
		</g>
		<g>
			<g>
				<circle cx="639.9" cy="872.8" r="5" style="fill:#383A48;"/>
			</g>
		</g>
		<g>
			<g>
				<circle cx="615.2" cy="774.1" r="5" style="fill:#383A48;"/>
			</g>
		</g>
		<g>
			<g>
				<circle cx="615.2" cy="798.8" r="5" style="fill:#383A48;"/>
			</g>
		</g>
		<g>
			<g>
				<circle cx="615.2" cy="823.4" r="5" style="fill:#383A48;"/>
			</g>
		</g>
		<g>
			<g>
				<circle cx="615.2" cy="848.1" r="5" style="fill:#383A48;"/>
			</g>
		</g>
		<g>
			<g>
				<circle cx="615.2" cy="872.8" r="5" style="fill:#383A48;"/>
			</g>
		</g>
		<g>
			<g>
				<circle cx="590.6" cy="749.4" r="5" style="fill:#383A48;"/>
			</g>
		</g>
		<g>
			<g>
				<circle cx="590.6" cy="774.1" r="5" style="fill:#383A48;"/>
			</g>
		</g>
		<g>
			<g>
				<circle cx="590.6" cy="798.8" r="5" style="fill:#383A48;"/>
			</g>
		</g>
		<g>
			<g>
				<circle cx="590.6" cy="823.4" r="5" style="fill:#383A48;"/>
			</g>
		</g>
		<g>
			<g>
				<circle cx="590.6" cy="848.1" r="5" style="fill:#383A48;"/>
			</g>
		</g>
		<g>
			<g>
				<circle cx="590.6" cy="872.8" r="5" style="fill:#383A48;"/>
			</g>
		</g>
		<g>
			<g>
				<circle cx="565.9" cy="724.8" r="5" style="fill:#383A48;"/>
			</g>
		</g>
		<g>
			<g>
				<circle cx="565.9" cy="749.4" r="5" style="fill:#383A48;"/>
			</g>
		</g>
		<g>
			<g>
				<circle cx="565.9" cy="774.1" r="5" style="fill:#383A48;"/>
			</g>
		</g>
		<g>
			<g>
				<circle cx="565.9" cy="798.8" r="5" style="fill:#383A48;"/>
			</g>
		</g>
		<g>
			<g>
				<circle cx="565.9" cy="823.4" r="5" style="fill:#383A48;"/>
			</g>
		</g>
		<g>
			<g>
				<circle cx="565.9" cy="848.1" r="5" style="fill:#383A48;"/>
			</g>
		</g>
		<g>
			<g>
				<circle cx="565.9" cy="872.8" r="5" style="fill:#383A48;"/>
			</g>
		</g>
		<g>
			<g>
				<circle cx="541.2" cy="724.8" r="5" style="fill:#383A48;"/>
			</g>
		</g>
		<g>
			<g>
				<circle cx="541.2" cy="749.4" r="5" style="fill:#383A48;"/>
			</g>
		</g>
		<g>
			<g>
				<circle cx="541.2" cy="774.1" r="5" style="fill:#383A48;"/>
			</g>
		</g>
		<g>
			<g>
				<circle cx="541.2" cy="798.8" r="5" style="fill:#383A48;"/>
			</g>
		</g>
		<g>
			<g>
				<circle cx="541.2" cy="823.4" r="5" style="fill:#383A48;"/>
			</g>
		</g>
		<g>
			<g>
				<circle cx="541.2" cy="848.1" r="5" style="fill:#383A48;"/>
			</g>
		</g>
		<g>
			<g>
				<circle cx="541.2" cy="872.8" r="5" style="fill:#383A48;"/>
			</g>
		</g>
		<g>
			<g>
				<circle cx="516.6" cy="700.1" r="5" style="fill:#383A48;"/>
			</g>
		</g>
		<g>
			<g>
				<circle cx="516.6" cy="724.8" r="5" style="fill:#383A48;"/>
			</g>
		</g>
		<g>
			<g>
				<circle cx="516.6" cy="749.4" r="5" style="fill:#383A48;"/>
			</g>
		</g>
		<g>
			<g>
				<circle cx="516.6" cy="774.1" r="5" style="fill:#383A48;"/>
			</g>
		</g>
		<g>
			<g>
				<circle cx="516.6" cy="798.8" r="5" style="fill:#383A48;"/>
			</g>
		</g>
		<g>
			<g>
				<circle cx="516.6" cy="823.4" r="5" style="fill:#383A48;"/>
			</g>
		</g>
		<g>
			<g>
				<circle cx="516.6" cy="848.1" r="5" style="fill:#383A48;"/>
			</g>
		</g>
		<g>
			<g>
				<circle cx="516.6" cy="872.8" r="5" style="fill:#383A48;"/>
			</g>
		</g>
		<g>
			<g>
				<circle cx="491.9" cy="675.4" r="5" style="fill:#383A48;"/>
			</g>
		</g>
		<g>
			<g>
				<circle cx="491.9" cy="700.1" r="5" style="fill:#383A48;"/>
			</g>
		</g>
		<g>
			<g>
				<circle cx="491.9" cy="724.8" r="5" style="fill:#383A48;"/>
			</g>
		</g>
		<g>
			<g>
				<circle cx="491.9" cy="749.4" r="5" style="fill:#383A48;"/>
			</g>
		</g>
		<g>
			<g>
				<circle cx="491.9" cy="774.1" r="5" style="fill:#383A48;"/>
			</g>
		</g>
		<g>
			<g>
				<circle cx="491.9" cy="798.8" r="5" style="fill:#383A48;"/>
			</g>
		</g>
		<g>
			<g>
				<circle cx="491.9" cy="823.4" r="5" style="fill:#383A48;"/>
			</g>
		</g>
		<g>
			<g>
				<circle cx="491.9" cy="848.1" r="5" style="fill:#383A48;"/>
			</g>
		</g>
		<g>
			<g>
				<circle cx="491.9" cy="872.8" r="5" style="fill:#383A48;"/>
			</g>
		</g>
		<g>
			<g>
				<circle cx="467.2" cy="650.8" r="5" style="fill:#383A48;"/>
			</g>
		</g>
		<g>
			<g>
				<circle cx="467.2" cy="675.4" r="5" style="fill:#383A48;"/>
			</g>
		</g>
		<g>
			<g>
				<circle cx="467.2" cy="700.1" r="5" style="fill:#383A48;"/>
			</g>
		</g>
		<g>
			<g>
				<circle cx="467.2" cy="724.8" r="5" style="fill:#383A48;"/>
			</g>
		</g>
		<g>
			<g>
				<circle cx="467.2" cy="749.4" r="5" style="fill:#383A48;"/>
			</g>
		</g>
		<g>
			<g>
				<circle cx="467.2" cy="774.1" r="5" style="fill:#383A48;"/>
			</g>
		</g>
		<g>
			<g>
				<circle cx="467.2" cy="798.8" r="5" style="fill:#383A48;"/>
			</g>
		</g>
		<g>
			<g>
				<circle cx="467.2" cy="823.4" r="5" style="fill:#383A48;"/>
			</g>
		</g>
		<g>
			<g>
				<circle cx="467.2" cy="848.1" r="5" style="fill:#383A48;"/>
			</g>
		</g>
		<g>
			<g>
				<circle cx="467.2" cy="872.8" r="5" style="fill:#383A48;"/>
			</g>
		</g>
		<g>
			<g>
				<circle cx="442.6" cy="626.1" r="5" style="fill:#383A48;"/>
			</g>
		</g>
		<g>
			<g>
				<circle cx="442.6" cy="650.8" r="5" style="fill:#383A48;"/>
			</g>
		</g>
		<g>
			<g>
				<circle cx="442.6" cy="675.4" r="5" style="fill:#383A48;"/>
			</g>
		</g>
		<g>
			<g>
				<circle cx="442.6" cy="700.1" r="5" style="fill:#383A48;"/>
			</g>
		</g>
		<g>
			<g>
				<circle cx="442.6" cy="724.8" r="5" style="fill:#383A48;"/>
			</g>
		</g>
		<g>
			<g>
				<circle cx="442.6" cy="749.4" r="5" style="fill:#383A48;"/>
			</g>
		</g>
		<g>
			<g>
				<circle cx="442.6" cy="774.1" r="5" style="fill:#383A48;"/>
			</g>
		</g>
		<g>
			<g>
				<circle cx="442.6" cy="798.8" r="5" style="fill:#383A48;"/>
			</g>
		</g>
		<g>
			<g>
				<circle cx="442.6" cy="823.4" r="5" style="fill:#383A48;"/>
			</g>
		</g>
		<g>
			<g>
				<circle cx="442.6" cy="848.1" r="5" style="fill:#383A48;"/>
			</g>
		</g>
		<g>
			<g>
				<circle cx="442.6" cy="872.8" r="5" style="fill:#383A48;"/>
			</g>
		</g>
		<g>
			<g>
				<circle cx="417.9" cy="626.1" r="5" style="fill:#383A48;"/>
			</g>
		</g>
		<g>
			<g>
				<circle cx="417.9" cy="650.8" r="5" style="fill:#383A48;"/>
			</g>
		</g>
		<g>
			<g>
				<circle cx="417.9" cy="675.4" r="5" style="fill:#383A48;"/>
			</g>
		</g>
		<g>
			<g>
				<circle cx="417.9" cy="700.1" r="5" style="fill:#383A48;"/>
			</g>
		</g>
		<g>
			<g>
				<circle cx="417.9" cy="724.8" r="5" style="fill:#383A48;"/>
			</g>
		</g>
		<g>
			<g>
				<circle cx="417.9" cy="749.4" r="5" style="fill:#383A48;"/>
			</g>
		</g>
		<g>
			<g>
				<circle cx="417.9" cy="774.1" r="5" style="fill:#383A48;"/>
			</g>
		</g>
		<g>
			<g>
				<circle cx="417.9" cy="798.8" r="5" style="fill:#383A48;"/>
			</g>
		</g>
		<g>
			<g>
				<circle cx="417.9" cy="823.4" r="5" style="fill:#383A48;"/>
			</g>
		</g>
		<g>
			<g>
				<circle cx="417.9" cy="848.1" r="5" style="fill:#383A48;"/>
			</g>
		</g>
		<g>
			<g>
				<circle cx="417.9" cy="872.8" r="5" style="fill:#383A48;"/>
			</g>
		</g>
	</g>
	<g>
		<path d="M921.6,726.7l-93.4-62.3c-8-5.3-17.3-7.5-26.3-6.7H710c-0.7,0-1.3,0.1-1.9,0.4c-19.5-18.9-43-44.4-62.5-74
			c-36.2-55-53.6-118.4-57.4-133.6l38.8-24.6c14.1-8.9,21.3-25.3,18.4-41.7l-19.3-110.7c-3.4-19.6-19-34.6-38.7-37.2l-11.2-1.5
			c-8-1.1-15.9-1.4-23.9-1.1c-0.4-0.1-0.7-0.1-1.1-0.1h-92.6c-2.1,0-4,1.3-4.7,3.3s-0.1,4.2,1.6,5.6l22.4,18.2
			c-25.4,19.3-42.9,46.9-49.5,78.2c-3.6,17-3.8,34.2-0.7,51.2c8.1,44.2,34.3,158.8,103.3,267.8c28.9,45.6,65.9,89.2,110.1,129.7
			c28.7,26.3,59.2,50.3,93.5,73.6c14.3,9.7,30.2,16.5,47.2,20.1c9.1,1.9,18.3,2.9,27.5,2.9c23.9,0,47.4-6.5,68.3-19
			c28.8-17.3,49.8-44.7,59.2-77l3.1-10.9C945.6,758,938.1,737.8,921.6,726.7z" style="fill:#383A48;"/>
		<g>
			<polygon points="715.5,879 812.7,879 769.6,808.7 			" style="fill:#383A48;"/>
			<path d="M812.7,884h-97.2c-1.9,0-3.6-1.1-4.5-2.8c-0.8-1.7-0.6-3.7,0.5-5.3l54.1-70.3c1-1.3,2.6-2,4.2-1.9
				c1.6,0.1,3.1,1,4,2.4l43.1,70.3c0.9,1.5,1,3.5,0.1,5.1C816.2,883.1,814.5,884,812.7,884z M725.7,874h78.1l-34.6-56.5L725.7,874z" style="fill:#383A48;"/>
		</g>
		<g>
			<path d="M645.5,857c13.7,9.3,29.1,15.9,45.4,19.3l0,0c65.5,13.8,130.6-25.3,149.1-89.6l3.1-10.9
				c4.9-16.9-1.8-35.1-16.4-44.9l-93.4-62.3c-12.1-8.1-27.9-8.1-40,0l-41.1,27.5c0,0-60.4-45.1-102.7-109.4S490.6,448,490.6,448
				l41.8-26.5c12.3-7.8,18.7-22.2,16.2-36.6l-19.3-110.7c-3-17.4-16.9-30.8-34.4-33.2l-11.2-1.5c-66.3-9-128.4,34.7-142.2,100.2l0,0
				c-3.4,16.3-3.7,33-0.7,49.3c9.6,52.4,36.7,161.9,102.6,266S601.5,827,645.5,857z" style="fill:#AAC6FC;"/>
			<path d="M717.4,884c-9.2,0-18.4-1-27.5-2.9c-17-3.6-32.8-10.3-47.2-20.1c-34.2-23.2-64.8-47.3-93.5-73.6
				C505,747,468,703.4,439.1,657.8c-69-109-95.3-223.6-103.3-267.8c-3.1-17-2.9-34.3,0.7-51.2c6.9-32.9,25.9-61.7,53.4-81.1
				s61-27.5,94.3-23l11.2,1.5c19.7,2.7,35.2,17.7,38.7,37.2l19.3,110.7c2.9,16.4-4.4,32.8-18.4,41.7l-38.8,24.6
				c3.8,15.2,21.2,78.6,57.4,133.6s86.5,96.3,98.7,106l38.1-25.5c13.8-9.3,31.7-9.3,45.6,0l93.4,62.3c16.5,11,24,31.3,18.5,50.4
				l-3.1,10.9c-9.3,32.3-30.3,59.7-59.2,77C764.8,877.6,741.3,884,717.4,884z M466.2,243.5c-25.2,0-49.7,7.7-70.6,22.4
				c-25.4,17.9-43,44.5-49.4,75c-3.3,15.7-3.5,31.6-0.6,47.4c8,43.6,33.9,156.7,101.9,264.2c28.4,44.8,64.9,87.8,108.5,127.7
				c28.3,25.9,58.5,49.7,92.3,72.7c13.3,9,27.9,15.2,43.6,18.5c30.4,6.4,61.9,1.1,88.5-14.9c26.7-16,46.1-41.3,54.7-71.2l3.1-10.9
				c4.3-14.9-1.5-30.7-14.4-39.3l-93.4-62.3c-10.5-7-24-7-34.5,0l-41.1,27.5c-1.8,1.2-4.1,1.1-5.8-0.1
				c-0.6-0.5-61.6-46.4-103.9-110.6c-42.3-64.3-59.5-139.6-59.6-140.3c-0.5-2.1,0.4-4.2,2.2-5.3l41.8-26.5
				c10.6-6.7,16.1-19.1,13.9-31.5l-19.3-110.7c-2.7-15.3-14.8-27-30.2-29.1l-11.2-1.5C477.3,243.8,471.7,243.5,466.2,243.5z" style="fill:#383A48;"/>
		</g>
	</g>
	<g>
		<g>
			<path d="M1048.4,883.5c-11.9,0-23.1-4.7-32.9-13.5c-9.7,8.8-21,13.5-32.9,13.5c-17.1,0-33-9.9-44.8-27.7
				c-11.4-17.2-17.6-40.1-17.6-64.3c0-2.8,2.2-5,5-5s5,2.2,5,5c0,45.2,23.5,82,52.4,82c9.4,0,18.3-3.9,26-10.7
				c-1.7-2.1-3.4-4.3-5-6.7C992.2,838.9,986,816.2,986,792c0-33.7,15-53.9,29.5-53.9c7.9,0,15.5,5.8,21.1,16
				c5.5,10,8.5,23.5,8.5,37.9c0,24.2-6.3,46.9-17.7,64.1c-1.6,2.4-3.3,4.6-5,6.7c7.7,6.8,16.5,10.7,26,10.7c2.8,0,5,2.2,5,5
				S1051.2,883.5,1048.4,883.5z M1015.5,748.1c-8.2,0-19.5,16.7-19.5,43.9c0,25.6,7.6,48.5,19.6,63.5c11.9-15,19.6-37.9,19.6-63.5
				C1035.1,764.8,1023.7,748.1,1015.5,748.1z" style="fill:#383A48;"/>
		</g>
		<g>
			<path d="M1179.9,883.5c-11.9,0-23.1-4.7-32.9-13.5c-9.7,8.8-21,13.5-32.9,13.5c-2.8,0-5-2.2-5-5s2.2-5,5-5
				c9.4,0,18.3-3.9,26-10.7c-1.7-2.1-3.4-4.3-5-6.7c-11.4-17.1-17.7-39.9-17.7-64.1c0-14.5,3-28,8.5-37.9c5.6-10.1,13.3-16,21.1-16
				c14.5,0,29.5,20.2,29.5,53.9c0,24.2-6.3,46.9-17.7,64.1c-1.6,2.4-3.3,4.6-5,6.7c7.7,6.8,16.5,10.7,26,10.7c2.8,0,5,2.2,5,5
				S1182.6,883.5,1179.9,883.5z M1147,748.1c-8.2,0-19.6,16.7-19.6,43.9c0,25.6,7.6,48.5,19.6,63.5c11.9-15,19.6-37.9,19.6-63.5
				C1166.6,764.8,1155.2,748.1,1147,748.1z" style="fill:#383A48;"/>
		</g>
		<g>
			<path d="M1114.1,883.5c-11.9,0-23.1-4.7-32.9-13.5c-9.7,8.8-21,13.5-32.9,13.5c-2.8,0-5-2.2-5-5s2.2-5,5-5
				c9.4,0,18.3-3.9,26-10.7c-1.7-2.1-3.4-4.3-5-6.7c-11.4-17.1-17.7-39.9-17.7-64.1c0-33.7,15-53.9,29.5-53.9
				c7.9,0,15.5,5.8,21.1,16c5.5,10,8.5,23.5,8.5,37.9c0,24.2-6.3,46.9-17.7,64.1c-1.6,2.4-3.3,4.6-5,6.7c7.7,6.8,16.5,10.7,26,10.7
				c2.8,0,5,2.2,5,5S1116.9,883.5,1114.1,883.5z M1081.2,748.1c-8.2,0-19.5,16.7-19.5,43.9c0,25.6,7.6,48.5,19.6,63.5
				c11.9-15,19.6-37.9,19.6-63.5C1100.8,764.8,1089.4,748.1,1081.2,748.1z" style="fill:#383A48;"/>
		</g>
	</g>
	<g>
		<g>
			<path d="M951.9,389.1h-94.3c-55.6,0-100.7,45.1-100.7,100.7l0,0c0,41.6,25.2,77.3,61.2,92.6v73.4l62.9-65.3h70.9
				c55.6,0,100.7-45.1,100.7-100.7l0,0C1052.5,434.1,1007.5,389.1,951.9,389.1z" style="fill:#F3F6E6;"/>
			<path d="M818.1,660.8c-0.6,0-1.3-0.1-1.9-0.4c-1.9-0.8-3.1-2.6-3.1-4.6v-70.1c-37.3-17.3-61.2-54.6-61.2-95.9
				c0-58.3,47.4-105.7,105.7-105.7h94.3c58.3,0,105.7,47.4,105.7,105.7c0,58.3-47.4,105.7-105.7,105.7h-68.7l-61.5,63.8
				C820.7,660.2,819.4,660.8,818.1,660.8z M857.6,394.1c-52.8,0-95.7,42.9-95.7,95.7c0,38.4,22.8,73,58.2,88c1.8,0.8,3,2.6,3,4.6v61
				l54.3-56.4c0.9-1,2.2-1.5,3.6-1.5h70.9c52.8,0,95.7-42.9,95.7-95.7s-42.9-95.7-95.7-95.7L857.6,394.1L857.6,394.1z" style="fill:#383A48;"/>
		</g>
		<g>
			<g>
				<circle cx="842.7" cy="489.8" r="15.9" style="fill:#383A48;"/>
			</g>
			<g>
				<circle cx="900.1" cy="489.8" r="15.9" style="fill:#383A48;"/>
			</g>
			<g>
				<circle cx="957.5" cy="489.8" r="15.9" style="fill:#383A48;"/>
			</g>
		</g>
	</g>
	<g>
		<g>
			<rect x="279.6" y="251.7" width="10" height="33" style="fill:#383A48;"/>
		</g>
		<g>
			<line x1="268.1" y1="268.2" x2="301" y2="268.2" style="fill:none;"/>
			<rect x="268.1" y="263.2" width="33" height="10" style="fill:#383A48;"/>
		</g>
	</g>
	<g>
		<g>
			<rect x="1007.2" y="240.8" width="10" height="33" style="fill:#383A48;"/>
		</g>
		<g>
			<line x1="995.7" y1="257.3" x2="1028.7" y2="257.3" style="fill:none;"/>
			<rect x="995.7" y="252.3" width="33" height="10" style="fill:#383A48;"/>
		</g>
	</g>
	<g>
		<g>
			<rect x="1371.5" y="792.2" width="10" height="33" style="fill:#383A48;"/>
		</g>
		<g>
			<line x1="1360.1" y1="808.7" x2="1393" y2="808.7" style="fill:none;"/>
			<rect x="1360.1" y="803.7" width="33" height="10" style="fill:#383A48;"/>
		</g>
	</g>
	<g>
		<g>
			<rect x="1229.8" y="383.8" width="465.7" height="331.6" style="fill:#F3F6E6;"/>
			<path d="M1695.4,720.4h-465.7c-2.8,0-5-2.2-5-5V383.8c0-2.8,2.2-5,5-5h465.7c2.8,0,5,2.2,5,5v331.6
				C1700.4,718.1,1698.2,720.4,1695.4,720.4z M1234.8,710.4h455.7V388.8h-455.7V710.4z" style="fill:#383A48;"/>
		</g>
		<g>
			<rect x="1229.8" y="383.8" width="465.7" height="94" style="fill:#F6E049;"/>
			<path d="M1700.4,482.8h-475.7v-104h475.7L1700.4,482.8L1700.4,482.8z M1234.8,472.8h455.7v-84h-455.7V472.8z" style="fill:#383A48;"/>
		</g>
	</g>
	<g>
		<g>
			<rect x="1165.9" y="289.8" width="465.7" height="331.6" style="fill:#F3F6E6;"/>
			<path d="M1631.6,626.3h-465.7c-2.8,0-5-2.2-5-5V289.8c0-2.8,2.2-5,5-5h465.7c2.8,0,5,2.2,5,5v331.6
				C1636.6,624.1,1634.4,626.3,1631.6,626.3z M1170.9,616.3h455.7V294.8h-455.7L1170.9,616.3L1170.9,616.3z" style="fill:#383A48;"/>
		</g>
		<g>
			<rect x="1165.9" y="289.8" width="465.7" height="94" style="fill:#F6E049;"/>
			<path d="M1636.6,388.8h-475.7v-104h475.7L1636.6,388.8L1636.6,388.8z M1170.9,378.8h455.7v-84h-455.7L1170.9,378.8
				L1170.9,378.8z" style="fill:#383A48;"/>
		</g>
	</g>
	<g>
		<g>
			<rect x="1102.1" y="195.8" width="465.7" height="331.6" style="fill:#F3F6E6;"/>
			<path d="M1567.8,532.3h-465.7c-2.8,0-5-2.2-5-5V195.8c0-2.8,2.2-5,5-5h465.7c2.8,0,5,2.2,5,5v331.6
				C1572.8,530.1,1570.5,532.3,1567.8,532.3z M1107.1,522.3h455.7V200.8h-455.7L1107.1,522.3L1107.1,522.3z" style="fill:#383A48;"/>
		</g>
		<g>
			<rect x="1102.1" y="195.8" width="465.7" height="94" style="fill:#F6E049;"/>
			<path d="M1572.8,294.8h-475.7v-104h475.7V294.8z M1107.1,284.8h455.7v-84h-455.7L1107.1,284.8L1107.1,284.8z" style="fill:#383A48;"/>
		</g>
		<g>
			<rect x="1175.2" y="350.8" width="319.4" height="56.6" style="fill:#F3F6E6;"/>
			<path d="M1494.6,412.5h-319.4c-2.8,0-5-2.2-5-5v-56.6c0-2.8,2.2-5,5-5h319.4c2.8,0,5,2.2,5,5v56.6
				C1499.6,410.2,1497.4,412.5,1494.6,412.5z M1180.2,402.5h309.4v-46.6h-309.4V402.5z" style="fill:#383A48;"/>
		</g>
		<g>
			<g>
				<g>
					<line x1="1504.1" y1="231.1" x2="1527.4" y2="254.4" style="fill:none;"/>
					
						<rect x="1510.7" y="226.3" transform="matrix(0.7071 -0.7071 0.7071 0.7071 272.2614 1142.8933)" width="10" height="33" style="fill:#383A48;"/>
				</g>
				<g>
					<line x1="1504.1" y1="254.4" x2="1527.4" y2="231.1" style="fill:none;"/>
					
						<rect x="1499.3" y="237.7" transform="matrix(0.7072 -0.7071 0.7071 0.7072 272.2675 1142.8506)" width="33" height="10" style="fill:#383A48;"/>
				</g>
			</g>
			<g>
				<path d="M1484.3,260.5h-35.5V225h35.5V260.5z M1458.8,250.5h15.5V235h-15.5V250.5z" style="fill:#383A48;"/>
			</g>
			<g>
				<rect x="1403.1" y="250.5" width="25.5" height="10" style="fill:#383A48;"/>
			</g>
		</g>
	</g>
	<g>
		<line x1="1183" y1="663.8" x2="1393" y2="453.7" style="fill:none;"/>
		<path d="M1183,668.8c-1.3,0-2.6-0.5-3.5-1.5c-2-2-2-5.1,0-7.1l210-210c2-2,5.1-2,7.1,0s2,5.1,0,7.1l-210,210
			C1185.6,668.3,1184.3,668.8,1183,668.8z" style="fill:#4053FA;"/>
	</g>
	<g>
		<g>
			
				<rect x="718.3" y="348.4" transform="matrix(0.4993 -0.8664 0.8664 0.4993 44.2325 810.4224)" width="10" height="37" style="fill:#383A48;"/>
		</g>
		<g>
			
				<rect x="828.1" y="314.7" transform="matrix(0.354 -0.9353 0.9353 0.354 247.8914 998.3599)" width="37" height="10" style="fill:#383A48;"/>
		</g>
		<g>
			
				<rect x="774.7" y="311.7" transform="matrix(0.9417 -0.3364 0.3364 0.9417 -65.1434 281.4537)" width="10" height="34" style="fill:#383A48;"/>
		</g>
	</g>
	<path d="M342.2,761.4c-20.9-20.9-50.9-26.9-78.2-15.6c-27.3,11.3-44.3,36.7-44.4,66.3V884h71.9c29.6,0,55-17,66.3-44.3
		C369.1,812.4,363.1,782.4,342.2,761.4z" style="fill:#F6E049;"/>
</g>
</svg>
