<?xml version="1.0" encoding="utf-8"?>
<!-- Generator: Adobe Illustrator 22.0.1, SVG Export Plug-In . SVG Version: 6.00 Build 0)  -->
<svg version="1.1" id="Layer_1" xmlns="http://www.w3.org/2000/svg" xmlns:xlink="http://www.w3.org/1999/xlink" x="0px" y="0px" viewBox="0 0 1920 1080" style="enable-background:new 0 0 1920 1080;" xml:space="preserve">

<rect y="0" width="1920" height="1080" style="fill:#7FD6C2;"/>
<g>
	<path d="M1077.2,146.1c-0.6-2.2-2.6-3.6-4.8-3.6H515.9c-29.6,0-58.7,8.1-84,23.4c-25.4,15.3-46,37.3-59.6,63.6
		c-6,11.5-12,23.9-18.3,38c-31.1,69.2-84.6,100.4-127.7,119.9c-35.9,16.2-59,52.2-59,91.6v396.2c0,2.8,2.2,5,5,5s5-2.2,5-5
		c0-74.1,19-125.9,59.7-162.9c36.3-33,84.9-50.1,136.4-68.1c81.2-28.4,165.2-57.9,208.5-154c57.3-127.3,96.8-144.2,202.5-189.4
		c65.9-28.2,156.1-66.7,290.6-149.1C1076.9,150.6,1077.8,148.3,1077.2,146.1z" style="fill:#F3F6E6;"/>
	<path d="M1005.5,691.7c-1.5-0.9-3.4-0.9-5-0.1l-230.3,128L574.8,928.1c-2,1.1-3,3.4-2.4,5.6c0.6,2.2,2.6,3.7,4.8,3.7
		h425.7c2.8,0,5-2.2,5-5V696C1007.9,694.2,1007,692.6,1005.5,691.7z" style="fill:#4053FA;"/>
	<path d="M1005.5,691.7c-1.5-0.9-3.4-0.9-5-0.1l-230.4,128c-1,0.6-1.8,1.5-2.2,2.5c-13.4,33.9-19.9,70-19.9,110.4
		c0,2.8,2.2,5,5,5h249.9c2.8,0,5-2.2,5-5V696C1007.9,694.2,1007,692.6,1005.5,691.7z" style="fill:#383A48;"/>
	<path d="M1640.9,554.9c-24.1-48.2-16.4-108.6-5.7-150.8c11.7-46.2,29.5-81.3,29.7-81.7c1-2,0.6-4.4-1-5.9
		s-4-1.8-5.9-0.7l-346.6,199.6c-1.3,0.7-2.1,2-2.4,3.4s0.1,2.9,1,4.1l247.8,308.8c1,1.2,2.4,1.9,3.9,1.9c0.9,0,1.7-0.2,2.5-0.7
		c74.4-42.9,111.7-86.7,117.3-137.7C1686.3,650.3,1666,605.1,1640.9,554.9z" style="fill:#F3F6E6;"/>
	<g>
		<path d="M1321.8,529.1c0,106.2,59.4,158.4,59.4,403.4H855.5c0-245,254-272.4,254-378.6s-254-44.2-254-289.2
			L1059,147.5l352.9,65.3C1411.9,457.8,1321.8,315,1321.8,529.1z" style="fill:#7FD6C2;stroke:#383A48;stroke-width:10;stroke-linecap:round;stroke-linejoin:round;stroke-miterlimit:10;"/>
		<g>
			<g>
				<circle cx="1260.5" cy="464" r="5" style="fill:#383A48;"/>
			</g>
			<g>
				<circle cx="1260.5" cy="515.5" r="5" style="fill:#383A48;"/>
			</g>
			<g>
				<circle cx="1209" cy="412.5" r="5" style="fill:#383A48;"/>
			</g>
			<g>
				<circle cx="1209" cy="464" r="5" style="fill:#383A48;"/>
			</g>
			<g>
				<circle cx="1209" cy="515.5" r="5" style="fill:#383A48;"/>
			</g>
			<g>
				<circle cx="1209" cy="567" r="5" style="fill:#383A48;"/>
			</g>
			<g>
				<circle cx="1157.5" cy="361" r="5" style="fill:#383A48;"/>
			</g>
			<g>
				<circle cx="1157.5" cy="412.5" r="5" style="fill:#383A48;"/>
			</g>
			<g>
				<circle cx="1157.5" cy="464" r="5" style="fill:#383A48;"/>
			</g>
			<g>
				<circle cx="1157.5" cy="515.5" r="5" style="fill:#383A48;"/>
			</g>
			<g>
				<circle cx="1157.5" cy="567" r="5" style="fill:#383A48;"/>
			</g>
			<g>
				<circle cx="1106" cy="309.5" r="5" style="fill:#383A48;"/>
			</g>
			<g>
				<circle cx="1106" cy="361" r="5" style="fill:#383A48;"/>
			</g>
			<g>
				<circle cx="1106" cy="412.5" r="5" style="fill:#383A48;"/>
			</g>
			<g>
				<circle cx="1106" cy="464" r="5" style="fill:#383A48;"/>
			</g>
			<g>
				<circle cx="1106" cy="515.5" r="5" style="fill:#383A48;"/>
			</g>
			<g>
				<circle cx="1106" cy="618.5" r="5" style="fill:#383A48;"/>
			</g>
			<g>
				<circle cx="1054.5" cy="206.5" r="5" style="fill:#383A48;"/>
			</g>
			<g>
				<circle cx="1054.5" cy="258" r="5" style="fill:#383A48;"/>
			</g>
			<g>
				<circle cx="1054.5" cy="309.5" r="5" style="fill:#383A48;"/>
			</g>
			<g>
				<circle cx="1054.5" cy="361" r="5" style="fill:#383A48;"/>
			</g>
			<g>
				<circle cx="1054.5" cy="412.5" r="5" style="fill:#383A48;"/>
			</g>
			<g>
				<circle cx="1054.5" cy="464" r="5" style="fill:#383A48;"/>
			</g>
			<g>
				<circle cx="1054.5" cy="670" r="5" style="fill:#383A48;"/>
			</g>
			<g>
				<circle cx="1054.5" cy="721.5" r="5" style="fill:#383A48;"/>
			</g>
			<g>
				<circle cx="1054.5" cy="773" r="5" style="fill:#383A48;"/>
			</g>
			<g>
				<circle cx="1003" cy="206.5" r="5" style="fill:#383A48;"/>
			</g>
			<g>
				<circle cx="1003" cy="258" r="5" style="fill:#383A48;"/>
			</g>
			<g>
				<circle cx="1003" cy="309.5" r="5" style="fill:#383A48;"/>
			</g>
			<g>
				<circle cx="1003" cy="361" r="5" style="fill:#383A48;"/>
			</g>
			<g>
				<circle cx="1003" cy="412.5" r="5" style="fill:#383A48;"/>
			</g>
			<g>
				<circle cx="1003" cy="721.5" r="5" style="fill:#383A48;"/>
			</g>
			<g>
				<circle cx="1003" cy="773" r="5" style="fill:#383A48;"/>
			</g>
			<g>
				<circle cx="1003" cy="824.5" r="5" style="fill:#383A48;"/>
			</g>
			<g>
				<circle cx="951.5" cy="258" r="5" style="fill:#383A48;"/>
			</g>
			<g>
				<circle cx="951.5" cy="309.5" r="5" style="fill:#383A48;"/>
			</g>
			<g>
				<circle cx="951.5" cy="361" r="5" style="fill:#383A48;"/>
			</g>
			<g>
				<circle cx="951.5" cy="412.5" r="5" style="fill:#383A48;"/>
			</g>
			<g>
				<circle cx="951.5" cy="721.5" r="5" style="fill:#383A48;"/>
			</g>
			<g>
				<circle cx="951.5" cy="773" r="5" style="fill:#383A48;"/>
			</g>
			<g>
				<circle cx="951.5" cy="824.5" r="5" style="fill:#383A48;"/>
			</g>
			<g>
				<circle cx="900" cy="258" r="5" style="fill:#383A48;"/>
			</g>
			<g>
				<circle cx="900" cy="309.5" r="5" style="fill:#383A48;"/>
			</g>
			<g>
				<circle cx="900" cy="361" r="5" style="fill:#383A48;"/>
			</g>
			<g>
				<circle cx="900" cy="824.5" r="5" style="fill:#383A48;"/>
			</g>
			<g>
				<circle cx="900" cy="876" r="5" style="fill:#383A48;"/>
			</g>
		</g>
		<path d="M1589.5,814c-0.6-2.2-2.6-3.7-4.8-3.7H1059c-0.9,0-1.7,0.2-2.5,0.7L853,928.2c-2,1.1-2.9,3.4-2.3,5.6
			c0.6,2.2,2.6,3.7,4.8,3.7h525.7c0.9,0,1.7-0.2,2.5-0.7l203.5-117.2C1589.1,818.5,1590.1,816.2,1589.5,814z" style="fill:#383A48;"/>
		<g>
			<path d="M1330.7,481.4c0,106.2,254,88.9,254,333.9H1059c0-245,254-227.6,254-333.9s-254-88.9-254-333.9h525.7
				C1584.7,392.5,1330.7,375.1,1330.7,481.4z" style="fill:#F6E049;"/>
			<path d="M1584.7,820.3H1059c-2.8,0-5-2.2-5-5c0-66.9,18.5-120.5,56.6-163.9c32.8-37.4,74.7-61.1,111.6-82.1
				c47.9-27.2,85.8-48.6,85.8-87.9s-37.9-60.7-85.8-87.9c-36.9-20.9-78.8-44.7-111.6-82.1c-38.1-43.4-56.6-97-56.6-163.9
				c0-2.8,2.2-5,5-5h525.7c2.8,0,5,2.2,5,5c0,66.9-18.5,120.5-56.6,163.9c-32.8,37.4-74.7,61.1-111.6,82.1
				c-47.9,27.2-85.8,48.6-85.8,87.9c0,39.3,37.9,60.7,85.8,87.9c36.9,20.9,78.8,44.7,111.6,82.1c38.1,43.4,56.6,97,56.6,163.9
				C1589.7,818,1587.4,820.3,1584.7,820.3z M1064,810.3h515.6c-2.1-141-91.3-191.6-163.1-232.3c-48.8-27.6-90.9-51.5-90.9-96.6
				s42.1-69,90.9-96.6c71.8-40.7,161-91.3,163.1-232.3H1064c2.1,141,91.3,191.6,163.1,232.3c48.8,27.6,90.9,51.5,90.9,96.6
				s-42.1,69-90.9,96.6C1155.3,618.7,1066.1,669.3,1064,810.3z" style="fill:#383A48;"/>
		</g>
		<g>
			<path d="M1182,296.9c-14.9,0-21.3,19-9.3,27.9c21.3,15.8,44.1,28.8,65.3,40.8c33.2,18.8,64.7,36.7,83.9,62.2
				c19.1-25.5,50.7-43.4,83.9-62.2c21.2-12,44.1-25,65.3-40.8c12-8.9,5.6-27.9-9.3-27.9H1182z M1509,672.4
				c-29.2-33.3-68.6-55.6-103.3-75.3c-33.2-18.8-64.7-36.7-83.9-62.2c-19.1,25.5-50.7,43.4-83.9,62.2c-34.8,19.7-74.1,42-103.4,75.3
				c-19.2,21.9-32.6,46.9-40.4,75.6c-5.5,20.3,10,40.2,31,40.2h393.1c21.2,0,36.5-20.2,30.9-40.7
				C1541.4,719,1528.1,694.2,1509,672.4z" style="fill:#F3F6E6;"/>
		</g>
	</g>
	<g>
		<g>
			<path d="M926.2,508.9c-5.5,0-10-4.5-10-10v-29.4c0-5.5,4.5-10,10-10s10,4.5,10,10v29.4
				C936.2,504.4,931.7,508.9,926.2,508.9z" style="fill:#F3F6E6;"/>
		</g>
		<g style="opacity:0.3;">
			<path d="M959.6,522.8c-2.6,0-5.1-1-7.1-2.9c-3.9-3.9-3.9-10.2,0-14.1l20.8-20.8c3.9-3.9,10.2-3.9,14.1,0
				s3.9,10.2,0,14.1l-20.8,20.8C964.8,521.8,962.2,522.8,959.6,522.8z" style="fill:#F3F6E6;"/>
		</g>
		<g style="opacity:0.4;">
			<path d="M1002.9,556.2h-29.4c-5.5,0-10-4.5-10-10s4.5-10,10-10h29.4c5.5,0,10,4.5,10,10S1008.4,556.2,1002.9,556.2z" style="fill:#F3F6E6;"/>
		</g>
		<g style="opacity:0.5;">
			<path d="M980.4,610.5c-2.6,0-5.1-1-7.1-2.9l-20.8-20.8c-3.9-3.9-3.9-10.2,0-14.1c3.9-3.9,10.2-3.9,14.1,0l20.8,20.8
				c3.9,3.9,3.9,10.2,0,14.1C985.6,609.5,983,610.5,980.4,610.5z" style="fill:#F3F6E6;"/>
		</g>
		<g style="opacity:0.6;">
			<path d="M926.2,633c-5.5,0-10-4.5-10-10v-29.4c0-5.5,4.5-10,10-10s10,4.5,10,10V623C936.2,628.5,931.7,633,926.2,633
				z" style="fill:#F3F6E6;"/>
		</g>
		<g style="opacity:0.7;">
			<path d="M871.9,610.5c-2.6,0-5.1-1-7.1-2.9c-3.9-3.9-3.9-10.2,0-14.1l20.8-20.8c3.9-3.9,10.2-3.9,14.1,0
				s3.9,10.2,0,14.1L879,607.6C877,609.5,874.5,610.5,871.9,610.5z" style="fill:#F3F6E6;"/>
		</g>
		<g style="opacity:0.8;">
			<path d="M878.9,556.2h-29.4c-5.5,0-10-4.5-10-10s4.5-10,10-10h29.4c5.5,0,10,4.5,10,10S884.4,556.2,878.9,556.2z" style="fill:#F3F6E6;"/>
		</g>
		<g style="opacity:0.9;">
			<path d="M892.7,522.8c-2.6,0-5.1-1-7.1-2.9L864.8,499c-3.9-3.9-3.9-10.2,0-14.1s10.2-3.9,14.1,0l20.8,20.8
				c3.9,3.9,3.9,10.2,0,14.1C897.8,521.8,895.3,522.8,892.7,522.8z" style="fill:#F3F6E6;"/>
		</g>
	</g>
	<g>
		<polygon points="321.9,557.4 721.5,323 593.5,768.2 520.4,663.5 403,817.2 330.4,760.9 447.3,607.8 		" style="fill:#F3F6E6;"/>
		<path d="M403,822.2c-1.1,0-2.2-0.4-3.1-1.1l-72.6-56.3c-2.2-1.7-2.6-4.8-0.9-7L439.3,610L320,562
			c-1.8-0.7-3-2.4-3.1-4.3c-0.1-1.9,0.8-3.7,2.5-4.7L719,318.6c1.8-1,4-0.9,5.6,0.4s2.3,3.4,1.7,5.3l-128,445.3
			c-0.5,1.9-2.1,3.2-4,3.6c-1.9,0.3-3.8-0.5-4.9-2.1L520.2,672L407,820.3c-0.8,1.1-2,1.8-3.3,1.9C403.4,822.2,403.2,822.2,403,822.2
			z M337.4,760l64.7,50.2l114.3-149.8c1-1.3,2.5-2,4.1-2s3.1,0.8,4,2.1l67.2,96.2l121.6-423.1l-380,222.9l115.9,46.6
			c1.4,0.6,2.5,1.8,3,3.3c0.4,1.5,0.1,3.1-0.8,4.4L337.4,760z" style="fill:#383A48;"/>
	</g>
	<g>
		<line x1="1535.1" y1="505.4" x2="1747.7" y2="383.1" style="fill:none;"/>
		<path d="M1535.1,510.4c-1.7,0-3.4-0.9-4.3-2.5c-1.4-2.4-0.6-5.5,1.8-6.8l212.7-122.3c2.4-1.4,5.5-0.6,6.8,1.8
			c1.4,2.4,0.6,5.5-1.8,6.8l-212.7,122.3C1536.8,510.2,1535.9,510.4,1535.1,510.4z" style="fill:#4053FA;"/>
	</g>
	<path d="M1692.8,880.5c-1.6-0.9-3.5-0.9-5,0.1l-80,47.6c-1.9,1.2-2.9,3.5-2.3,5.6c0.6,2.2,2.6,3.7,4.8,3.7h80
		c2.8,0,5-2.2,5-5v-47.6C1695.3,883.1,1694.3,881.4,1692.8,880.5z" style="fill:#383A48;"/>
	<g>
		<circle cx="225.3" cy="194.5" r="46.6" style="fill:#F6E049;"/>
		<path d="M225.3,246.1c-28.5,0-51.6-23.2-51.6-51.6s23.2-51.6,51.6-51.6s51.6,23.2,51.6,51.6S253.8,246.1,225.3,246.1z
			 M225.3,152.9c-22.9,0-41.6,18.7-41.6,41.6s18.7,41.6,41.6,41.6s41.6-18.7,41.6-41.6S248.2,152.9,225.3,152.9z" style="fill:#383A48;"/>
	</g>
	<g>
		<circle cx="225.3" cy="241.1" r="46.6" style="fill:#F6E049;"/>
		<path d="M225.3,292.7c-28.5,0-51.6-23.2-51.6-51.6s23.2-51.6,51.6-51.6s51.6,23.2,51.6,51.6
			C276.9,269.5,253.8,292.7,225.3,292.7z M225.3,199.5c-22.9,0-41.6,18.7-41.6,41.6c0,22.9,18.7,41.6,41.6,41.6s41.6-18.7,41.6-41.6
			S248.2,199.5,225.3,199.5z" style="fill:#383A48;"/>
	</g>
	<g>
		<circle cx="225.3" cy="287.7" r="46.6" style="fill:#F6E049;"/>
		<path d="M225.3,339.4c-28.5,0-51.6-23.2-51.6-51.6c0-28.5,23.2-51.6,51.6-51.6s51.6,23.2,51.6,51.6
			C276.9,316.2,253.8,339.4,225.3,339.4z M225.3,246.1c-22.9,0-41.6,18.7-41.6,41.6s18.7,41.6,41.6,41.6s41.6-18.7,41.6-41.6
			S248.2,246.1,225.3,246.1z" style="fill:#383A48;"/>
	</g>
</g>
</svg>
