<?xml version="1.0" encoding="UTF-8"?>
<svg width="1418px" height="718px" viewBox="0 0 1418 718" version="1.1" xmlns="http://www.w3.org/2000/svg" xmlns:xlink="http://www.w3.org/1999/xlink">
    <!-- Generator: Sketch 59.1 (86144) - https://sketch.com -->
    <title>abstract-order-complete</title>
    <desc>Created with Sketch.</desc>
    <g id="Page-1" stroke="none" stroke-width="1" fill="none" fill-rule="evenodd">
        <g id="abstract-order-complete" transform="translate(-251.000000, -181.000000)">
            <g id="Group" transform="translate(251.000000, 181.000000)">
                <g transform="translate(814.000000, 421.000000)" fill="#F3F6E6" fill-rule="nonzero">
                    <polygon id="Path" points="281.2 288 5.2 288 285.2 5.7 380 69.7"></polygon>
                    <path d="M281.2,293 L5.2,293 C3.2,293 1.4,291.8 0.6,289.9 C-0.2,288 0.19621692,285.9 1.7,284.5 L281.7,2.2 C283.4,0.5 286.1,0.2 288,1.6 L382.8,65.6 C384.8,67 385.6,69.6 384.6,71.8 L285.8,290.1 C285,291.9 283.2,293 281.2,293 Z M17.2,283 L278,283 L373.7,71.5 L285.9,12.1 L17.2,283 Z" id="Shape"></path>
                </g>
                <path d="M711.1,0.7 L5.4,0.7 C2.6,0.7 0.4,2.9 0.4,5.7 L0.4,688.6 C0.4,690.4 1.4,692.1 2.9,693 C3.7,693.4 4.5,693.6 5.4,693.6 C6.3,693.6 7.2,693.4 8,692.9 C50.7,667.2 86.4,633.5 117.2,589.7 C144.3,551.3 164.1,510.4 183.4,470.9 C203.8,429 223,389.5 248.8,357 C277.5,320.9 310.3,298.5 352.3,286.5 C432.2,263.7 453.9,217.2 476.9,168 C491.9,135.9 507.3,102.8 540.4,74.7 C578.1,42.7 634.2,21.8 711.9,10.6 C714.5,10.2 716.4,7.9 716.2,5.3 C715.9,2.7 713.7,0.7 711.1,0.7 Z" id="Path" fill="#F3F6E6" fill-rule="nonzero"></path>
                <path d="M1412.6,0.7 L1095.2,0.7 C1093.4,0.7 1091.8,1.7 1090.9,3.2 C1090,4.7 1090,6.6 1090.9,8.2 C1091.5,9.2 1104.7,32 1132.4,59.6 C1157.9,85 1200.9,119.1 1261.1,137.8 C1319,155.7 1355.8,186.7 1376.5,209.6 C1399,234.4 1407.9,255.3 1408,255.5 C1408.8,257.4 1410.6,258.6 1412.6,258.6 C1412.9,258.6 1413.3,258.6 1413.6,258.5 C1415.9,258 1417.6,256 1417.6,253.6 L1417.6,5.7 C1417.6,2.9 1415.4,0.7 1412.6,0.7 Z" id="Path" fill="#F3F6E6" fill-rule="nonzero"></path>
                <g transform="translate(891.000000, 440.000000)">
                    <rect id="Rectangle" fill="#383A48" fill-rule="nonzero" x="12" y="0.5" width="10" height="33"></rect>
                    <g transform="translate(0.000000, 12.000000)">
                        <line x1="0.5" y1="5" x2="33.5" y2="5" id="Path"></line>
                        <rect id="Rectangle" fill="#383A48" fill-rule="nonzero" x="0.5" y="0" width="33" height="10"></rect>
                    </g>
                </g>
                <g transform="translate(1309.000000, 57.000000)">
                    <rect id="Rectangle" fill="#383A48" fill-rule="nonzero" x="12.2" y="0.7" width="10" height="33"></rect>
                    <g transform="translate(0.000000, 12.000000)">
                        <line x1="0.7" y1="5.2" x2="33.7" y2="5.2" id="Path"></line>
                        <rect id="Rectangle" fill="#383A48" fill-rule="nonzero" x="0.7" y="0.2" width="33" height="10"></rect>
                    </g>
                </g>
                <g transform="translate(558.000000, 243.000000)">
                    <rect id="Rectangle" fill="#383A48" fill-rule="nonzero" x="11.9" y="0.8" width="10" height="33"></rect>
                    <g transform="translate(0.000000, 12.000000)">
                        <line x1="0.4" y1="5.2" x2="33.4" y2="5.2" id="Path"></line>
                        <rect id="Rectangle" fill="#383A48" fill-rule="nonzero" x="0.4" y="0.2" width="33" height="10"></rect>
                    </g>
                </g>
                <g transform="translate(673.000000, 520.000000)" fill-rule="nonzero">
                    <g>
                        <path d="M99,192 L99,192 C47.5,192 5.7,150.2 5.7,98.7 L5.7,98.7 C5.7,47.2 47.5,5.4 99,5.4 L99,5.4 C150.5,5.4 192.3,47.2 192.3,98.7 L192.3,98.7 C192.3,150.2 150.5,192 99,192 Z" id="Path" fill="#F6E049"></path>
                        <path d="M99,197 C44.8,197 0.7,152.9 0.7,98.7 C0.7,44.5 44.8,0.4 99,0.4 C153.2,0.4 197.3,44.5 197.3,98.7 C197.3,152.9 153.2,197 99,197 Z M99,10.3 C50.3,10.3 10.7,49.9 10.7,98.6 C10.7,147.3 50.3,187 99,187 L99,187 C147.7,187 187.3,147.4 187.3,98.7 C187.3,50 147.7,10.3 99,10.3 Z" id="Shape" fill="#383A48"></path>
                    </g>
                    <g transform="translate(62.000000, 71.000000)" id="Path">
                        <polyline fill="#F6E049" points="5.2 14.1 35.7 56.5 77 5.5"></polyline>
                        <path d="M35.7,61.5 L35.7,61.5 C34,61.5 32.6,60.7 31.7,59.4 L1.1,17 C-0.5,14.8 -2.77555756e-17,11.6 2.2,10 C4.4,8.4 7.6,8.9 9.2,11.1 L35.8,48.2 L73,2.2 C74.7,0.1 77.9,-0.3 80,1.5 C82.1,3.2 82.5,6.4 80.7,8.5 L39.4,59.6 C38.6,60.9 37.2,61.5 35.7,61.5 Z" fill="#383A48"></path>
                    </g>
                </g>
                <g transform="translate(212.000000, 149.000000)" fill-rule="nonzero">
                    <g>
                        <path d="M742.1,152.9 L356.9,538.1 C340.6,554.4 318.5,563.5 295.6,563.5 C292.8,563.5 290.1,563.4 287.3,563.1 C261.5,560.6 238.2,546.8 223.8,525.3 L33.8,243.6 L20.2,223.5 C-6.6,183.8 3.9,130 43.6,103.2 C82.2,77.2 134.2,86.4 161.6,123.4 C162.4,124.4 163.1,125.5 163.9,126.6 L308.7,341.3 L619.6,30.4 C653.4,-3.4 708.3,-3.4 742.1,30.4 C775.9,64.2 775.9,119 742.1,152.9 Z" id="Path" fill="#7FD6C2"></path>
                        <path d="M295.6,568.4 C292.6,568.4 289.7,568.3 286.8,568 C259.5,565.4 235,550.8 219.6,528 L29.6,246.3 L16,226.2 C-12.2,184.3 -1.1,127.2 40.8,99 C81.6,71.5 136.4,80.9 165.6,120.4 C166.4,121.4 167.2,122.6 168,123.8 L309.4,333.4 L616,26.8 C633.3,9.5 656.3,0 680.8,0 C705.3,0 728.3,9.5 745.6,26.8 C762.9,44.1 772.4,67.1 772.4,91.6 C772.4,116.1 762.9,139.1 745.6,156.4 L360.4,541.6 C343.4,558.7 319.7,568.4 295.6,568.4 Z M92.1,93.2 C76.4,93.2 60.5,97.8 46.4,107.2 C9.1,132.4 -0.8,183.2 24.4,220.5 L38,240.6 L228,522.3 C241.7,542.6 263.5,555.6 287.9,557.9 C290.5,558.2 293.1,558.3 295.7,558.3 C317.2,558.3 338.2,549.6 353.4,534.4 L738.6,149.2 L738.6,149.2 C754,133.8 762.5,113.3 762.5,91.5 C762.5,69.7 754,49.2 738.6,33.8 C723.2,18.4 702.7,9.9 680.9,9.9 C659.1,9.9 638.6,18.4 623.2,33.8 L312.2,344.7 C311.1,345.8 309.7,346.3 308.2,346.1 C306.7,346 305.4,345.2 304.5,343.9 L159.8,129.3 C159.1,128.2 158.4,127.3 157.7,126.3 C141.7,104.7 117.1,93.2 92.1,93.2 Z" id="Shape" fill="#383A48"></path>
                    </g>
                    <g transform="translate(0.000000, 83.000000)" fill="#383A48">
                        <path d="M161.6,40.3 C144.9,100.6 95.5,147.4 33.8,160.5 L20.2,140.4 C-6.6,100.7 3.9,46.9 43.6,20.1 C82.2,-5.9 134.2,3.3 161.6,40.3 Z" id="Path"></path>
                        <path d="M31.5,166.1 L16,143.2 C-12.2,101.3 -1.1,44.2 40.8,16 C81.6,-11.5 136.4,-2.1 165.6,37.4 L167.1,39.4 L166.4,41.8 C157.9,72.3 141.2,100.1 118,121.9 C94.7,143.8 65.9,158.9 34.8,165.5 L31.5,166.1 Z M92.1,10.2 C76.4,10.2 60.5,14.8 46.4,24.2 C9.1,49.4 -0.8,100.2 24.4,137.5 L36.1,154.8 C64.2,148.2 90.1,134.3 111.2,114.4 C132.5,94.4 148,69.1 156.2,41.3 C140.1,21 116.3,10.2 92.1,10.2 Z" id="Shape"></path>
                    </g>
                    <g transform="translate(303.000000, 261.000000)" fill="#383A48">
                        <polygon id="Path" points="5.7 80.2 28.3 112.2 80.7 5.2"></polygon>
                        <path d="M28.3,117.2 C26.7,117.2 25.2,116.4 24.2,115.1 L1.5,83.1 C0.1,81.1 0.3,78.4 2,76.7 L77,1.7 C78.7,1.38777878e-16 81.5,-0.3 83.4,1.2 C85.4,2.6 86.1,5.3 85,7.5 L32.6,114.5 C31.8,116.1 30.3,117.1 28.5,117.3 C28.6,117.2 28.5,117.2 28.3,117.2 Z M12.2,80.7 L27.5,102.4 L63,29.9 L12.2,80.7 Z" id="Shape"></path>
                    </g>
                </g>
                <g fill-rule="nonzero">
                    <g>
                        <circle id="Oval" fill="#F6E049" cx="174.6" cy="174.8" r="169.2"></circle>
                        <path d="M174.6,349 C78.5,349 0.4,270.9 0.4,174.8 C0.4,78.7 78.5,0.6 174.6,0.6 C270.7,0.6 348.8,78.7 348.8,174.8 C348.8,270.9 270.7,349 174.6,349 Z M174.6,10.6 C84.1,10.6 10.4,84.3 10.4,174.8 C10.4,265.3 84.1,339 174.6,339 C265.1,339 338.8,265.3 338.8,174.8 C338.8,84.3 265.2,10.6 174.6,10.6 Z" id="Shape" fill="#383A48"></path>
                    </g>
                    <circle id="Oval" fill="#383A48" cx="120.5" cy="150.1" r="18.1"></circle>
                    <circle id="Oval" fill="#383A48" cx="228.7" cy="150.1" r="18.1"></circle>
                    <path d="M174.6,249 C149.3,249 126.1,234.1 115.6,211.1 C114.4,208.6 115.6,205.6 118.1,204.5 C120.6,203.3 123.6,204.5 124.7,207 C133.6,226.5 153.2,239 174.6,239 C196,239 215.6,226.4 224.5,207 C225.7,204.5 228.6,203.4 231.1,204.5 C233.6,205.7 234.7,208.6 233.6,211.1 C223.1,234.1 199.9,249 174.6,249 Z" id="Path" fill="#383A48"></path>
                </g>
                <g transform="translate(787.000000, 12.000000)" id="Path">
                    <line x1="5.4" y1="78.7" x2="78.3" y2="5.8"></line>
                    <path d="M5.4,83.7 C4.1,83.7 2.8,83.2 1.9,82.2 C-0.1,80.2 -0.1,77.1 1.9,75.1 L74.8,2.2 C76.8,0.2 79.9,0.2 81.9,2.2 C83.9,4.2 83.9,7.3 81.9,9.3 L9,82.2 C8,83.2 6.7,83.7 5.4,83.7 Z" fill="#383A48" fill-rule="nonzero"></path>
                </g>
                <path d="M1164.5,170.3 L1142.9,155.5 L1155.9,132.8 C1156.9,131 1156.8,128.8 1155.5,127.2 C1154.2,125.6 1152.1,124.9 1150.1,125.5 L1125.1,133.2 L1115.5,108.9 C1114.7,107 1112.9,105.7 1110.8,105.7 C1108.7,105.7 1106.9,107 1106.1,108.9 L1096.5,133.2 L1071.5,125.5 C1069.5,124.9 1067.4,125.6 1066.1,127.2 C1064.8,128.8 1064.7,131 1065.7,132.8 L1078.7,155.5 L1057.1,170.3 C1055.4,171.5 1054.6,173.5 1055.1,175.5 C1055.6,177.5 1057.2,179 1059.2,179.3 L1085.1,183.3 L1083.2,209.4 C1083.1,211.4 1084.2,213.4 1086,214.3 C1086.7,214.6 1087.4,214.8 1088.2,214.8 C1089.4,214.8 1090.7,214.3 1091.6,213.5 L1110.8,195.7 L1130,213.5 C1131.5,214.9 1133.7,215.2 1135.6,214.3 C1137.4,213.4 1138.6,211.5 1138.4,209.4 L1136.5,183.3 L1162.4,179.3 C1164.4,179 1166.1,177.5 1166.5,175.5 C1167,173.5 1166.2,171.4 1164.5,170.3 Z" id="Path" fill="#F6E049" fill-rule="nonzero"></path>
                <path d="M282.7,586.9 L261.1,572.1 L274.1,549.4 C275.1,547.6 275,545.4 273.7,543.8 C272.4,542.2 270.3,541.5 268.3,542.1 L243.3,549.8 L233.7,525.5 C232.9,523.6 231.1,522.3 229,522.3 C226.9,522.3 225.1,523.6 224.3,525.5 L214.7,549.8 L189.7,542.1 C187.7,541.5 185.6,542.2 184.3,543.8 C183,545.4 182.9,547.6 183.9,549.4 L196.9,572.1 L175.3,586.9 C173.6,588.1 172.8,590.1 173.3,592.1 C173.8,594.1 175.4,595.6 177.4,595.9 L203.3,599.9 L201.4,626 C201.3,628 202.4,630 204.2,630.9 C206,631.8 208.3,631.5 209.8,630.1 L229,612.3 L248.2,630.1 C249.1,631 250.4,631.4 251.6,631.4 C252.3,631.4 253.1,631.2 253.8,630.9 C255.6,630 256.8,628.1 256.6,626 L254.7,599.9 L280.6,595.9 C282.6,595.6 284.3,594.1 284.7,592.1 C285.2,590.2 284.4,588.1 282.7,586.9 Z" id="Path" fill="#F6E049" fill-rule="nonzero"></path>
                <g transform="translate(974.000000, 255.000000)">
                    <g transform="translate(0.000000, 87.000000)" fill-rule="nonzero">
                        <polygon id="Path" fill="#F3F6E6" points="434.6 363.2 74.9 363.2 5.4 293.8 74.9 5.6 434.6 5.6"></polygon>
                        <path d="M434.6,368.2 L74.9,368.2 C73.6,368.2 72.3,367.7 71.4,366.7 L2,297.3 C0.8,296.1 0.3,294.3 0.7,292.6 L70.1,4.5 C70.6,2.3 72.7,0.7 75,0.7 L434.7,0.7 C437.5,0.7 439.7,2.9 439.7,5.7 L439.7,363.2 C439.6,366 437.3,368.2 434.6,368.2 Z M76.9,358.2 L429.5,358.2 L429.5,10.6 L78.7,10.6 L11,292.2 L76.9,358.2 Z" id="Shape" fill="#383A48"></path>
                    </g>
                    <g transform="translate(31.000000, 115.000000)" fill="#383A48" fill-rule="nonzero" id="Oval">
                        <circle cx="399.7" cy="54.8" r="5"></circle>
                        <circle cx="399.7" cy="79.5" r="5"></circle>
                        <circle cx="399.7" cy="104.2" r="5"></circle>
                        <circle cx="399.7" cy="128.8" r="5"></circle>
                        <circle cx="399.7" cy="153.5" r="5"></circle>
                        <circle cx="399.7" cy="178.2" r="5"></circle>
                        <circle cx="399.7" cy="202.8" r="5"></circle>
                        <circle cx="399.7" cy="227.5" r="5"></circle>
                        <circle cx="399.7" cy="252.2" r="5"></circle>
                        <circle cx="399.7" cy="276.8" r="5"></circle>
                        <circle cx="399.7" cy="301.5" r="5"></circle>
                        <circle cx="399.7" cy="326.2" r="5"></circle>
                        <circle cx="375" cy="30.2" r="5"></circle>
                        <circle cx="375" cy="54.8" r="5"></circle>
                        <circle cx="375" cy="79.5" r="5"></circle>
                        <circle cx="375" cy="104.2" r="5"></circle>
                        <circle cx="375" cy="128.8" r="5"></circle>
                        <circle cx="375" cy="153.5" r="5"></circle>
                        <circle cx="375" cy="178.2" r="5"></circle>
                        <circle cx="375" cy="202.8" r="5"></circle>
                        <circle cx="375" cy="227.5" r="5"></circle>
                        <circle cx="375" cy="252.2" r="5"></circle>
                        <circle cx="375" cy="276.8" r="5"></circle>
                        <circle cx="375" cy="301.5" r="5"></circle>
                        <circle cx="375" cy="326.2" r="5"></circle>
                        <circle cx="350.3" cy="5.5" r="5"></circle>
                        <circle cx="350.3" cy="30.2" r="5"></circle>
                        <circle cx="350.3" cy="54.8" r="5"></circle>
                        <circle cx="350.3" cy="79.5" r="5"></circle>
                        <circle cx="350.3" cy="104.2" r="5"></circle>
                        <circle cx="350.3" cy="128.8" r="5"></circle>
                        <circle cx="350.3" cy="153.5" r="5"></circle>
                        <circle cx="350.3" cy="178.2" r="5"></circle>
                        <circle cx="350.3" cy="202.8" r="5"></circle>
                        <circle cx="350.3" cy="227.5" r="5"></circle>
                        <circle cx="350.3" cy="252.2" r="5"></circle>
                        <circle cx="350.3" cy="276.8" r="5"></circle>
                        <circle cx="350.3" cy="301.5" r="5"></circle>
                        <circle cx="350.3" cy="326.2" r="5"></circle>
                        <circle cx="325.7" cy="276.8" r="5"></circle>
                        <circle cx="325.7" cy="301.5" r="5"></circle>
                        <circle cx="325.7" cy="326.2" r="5"></circle>
                        <circle cx="301" cy="276.8" r="5"></circle>
                        <circle cx="301" cy="301.5" r="5"></circle>
                        <circle cx="301" cy="326.2" r="5"></circle>
                        <circle cx="276.3" cy="276.8" r="5"></circle>
                        <circle cx="276.3" cy="301.5" r="5"></circle>
                        <circle cx="276.3" cy="326.2" r="5"></circle>
                        <circle cx="251.7" cy="276.8" r="5"></circle>
                        <circle cx="251.7" cy="301.5" r="5"></circle>
                        <circle cx="251.7" cy="326.2" r="5"></circle>
                        <circle cx="227" cy="276.8" r="5"></circle>
                        <circle cx="227" cy="301.5" r="5"></circle>
                        <circle cx="227" cy="326.2" r="5"></circle>
                        <circle cx="202.3" cy="276.8" r="5"></circle>
                        <circle cx="202.3" cy="301.5" r="5"></circle>
                        <circle cx="202.3" cy="326.2" r="5"></circle>
                        <circle cx="177.7" cy="276.8" r="5"></circle>
                        <circle cx="177.7" cy="301.5" r="5"></circle>
                        <circle cx="177.7" cy="326.2" r="5"></circle>
                        <circle cx="153" cy="276.8" r="5"></circle>
                        <circle cx="153" cy="301.5" r="5"></circle>
                        <circle cx="153" cy="326.2" r="5"></circle>
                        <circle cx="128.3" cy="276.8" r="5"></circle>
                        <circle cx="128.3" cy="301.5" r="5"></circle>
                        <circle cx="128.3" cy="326.2" r="5"></circle>
                        <circle cx="103.7" cy="276.8" r="5"></circle>
                        <circle cx="103.7" cy="301.5" r="5"></circle>
                        <circle cx="103.7" cy="326.2" r="5"></circle>
                        <circle cx="79" cy="276.8" r="5"></circle>
                        <circle cx="79" cy="301.5" r="5"></circle>
                        <circle cx="79" cy="326.2" r="5"></circle>
                        <circle cx="54.3" cy="276.8" r="5"></circle>
                        <circle cx="54.3" cy="301.5" r="5"></circle>
                        <circle cx="54.3" cy="326.2" r="5"></circle>
                        <circle cx="29.7" cy="276.8" r="5"></circle>
                        <circle cx="29.7" cy="301.5" r="5"></circle>
                        <circle cx="5" cy="276.8" r="5"></circle>
                    </g>
                    <g transform="translate(69.000000, 0.000000)" fill="#383A48" fill-rule="nonzero">
                        <polygon id="Path" points="5.9 162.1 296.2 92.6 365.6 162.1 365.6 74.6 296.2 5.2 5.9 74.6"></polygon>
                        <path d="M365.6,167.1 C364.3,167.1 363,166.6 362.1,165.6 L294.7,98.2 L7,166.9 C5.5,167.3 3.9,166.9 2.7,166 C1.5,165.1 0.8,163.6 0.8,162.1 L0.8,74.7 C0.8,72.4 2.4,70.4 4.6,69.8 L294.9,0.4 C296.6,1.18238752e-13 298.4,0.5 299.6,1.7 L369,71.1 C369.9,72 370.5,73.3 370.5,74.6 L370.5,162 C370.5,164 369.3,165.8 367.4,166.6 C366.9,166.9 366.2,167.1 365.6,167.1 Z M10.9,78.6 L10.9,155.7 L295,87.8 C296.7,87.4 298.5,87.9 299.7,89.1 L360.6,150 L360.6,76.7 L294.6,10.7 L10.9,78.6 Z" id="Shape"></path>
                    </g>
                    <g transform="translate(0.000000, 18.000000)" fill-rule="nonzero">
                        <rect id="Rectangle" fill="#F3F6E6" x="5.4" y="5.2" width="359.7" height="357.5"></rect>
                        <path d="M365.2,367.8 L5.5,367.8 C2.7,367.8 0.5,365.6 0.5,362.8 L0.5,5.2 C0.5,2.4 2.7,0.2 5.5,0.2 L365.2,0.2 C368,0.2 370.2,2.4 370.2,5.2 L370.2,362.7 C370.2,365.5 367.9,367.8 365.2,367.8 Z M10.4,357.8 L360.1,357.8 L360.1,10.2 L10.4,10.2 L10.4,357.8 L10.4,357.8 Z" id="Shape" fill="#383A48"></path>
                    </g>
                    <g fill="#383A48" fill-rule="nonzero">
                        <rect id="Rectangle" x="5.4" y="5.2" width="359.7" height="87.4"></rect>
                        <path d="M365.2,97.6 L5.5,97.6 C2.7,97.6 0.5,95.4 0.5,92.6 L0.5,5.2 C0.5,2.4 2.7,0.2 5.5,0.2 L365.2,0.2 C368,0.2 370.2,2.4 370.2,5.2 L370.2,92.6 C370.2,95.4 367.9,97.6 365.2,97.6 Z M10.4,87.6 L360.1,87.6 L360.1,10.2 L10.4,10.2 L10.4,87.6 L10.4,87.6 Z" id="Shape"></path>
                    </g>
                    <rect id="Rectangle" fill="#AAC6FC" fill-rule="nonzero" x="54.3" y="148.9" width="246.6" height="80.5"></rect>
                    <rect id="Rectangle" fill="#7FD6C2" fill-rule="nonzero" x="102" y="264" width="151.1" height="54.8"></rect>
                    <g transform="translate(360.000000, 375.000000)" id="Path">
                        <line x1="5.2" y1="5.8" x2="74.6" y2="75.2"></line>
                        <path d="M74.6,80.2 C73.3,80.2 72,79.7 71.1,78.7 L1.7,9.3 C-0.3,7.3 -0.3,4.2 1.7,2.2 C3.7,0.2 6.8,0.2 8.8,2.2 L78.2,71.6 C80.2,73.6 80.2,76.7 78.2,78.7 C77.1,79.7 75.9,80.2 74.6,80.2 Z" fill="#383A48" fill-rule="nonzero"></path>
                    </g>
                </g>
                <path d="M609.3,717 L186,717 C183.2,717 181,714.8 181,712 C181,709.2 183.2,707 186,707 L609.4,707 C612.2,707 614.4,709.2 614.4,712 C614.4,714.8 612.1,717 609.3,717 Z" id="Path" fill="#383A48" fill-rule="nonzero"></path>
            </g>
        </g>
    </g>
</svg>