<?xml version="1.0" encoding="utf-8"?>
<!-- Generator: Adobe Illustrator 22.0.1, SVG Export Plug-In . SVG Version: 6.00 Build 0)  -->
<svg version="1.1" id="Layer_1" xmlns="http://www.w3.org/2000/svg" xmlns:xlink="http://www.w3.org/1999/xlink" x="0px" y="0px" viewBox="0 0 1920 1080" style="enable-background:new 0 0 1920 1080;" xml:space="preserve">

<rect y="0" width="1920" height="1080" style="fill:#E0719E;"/>
<g>
	<path d="M1342,329.3h-116.6h-116.6H992.3H875.7H759.1H642.5c-2.8,0-5,2.2-5,5v116.6v116.6V684v116.6v116.6
		c0,2.8,2.2,5,5,5h116.6h116.6h116.6h116.6h116.6H1342c2.8,0,5-2.2,5-5V800.6V684V567.4V450.8V334.3
		C1347,331.5,1344.8,329.3,1342,329.3z M1337,562.4h-106.6V455.8H1337V562.4z M1337,679h-106.6V572.4H1337V679z M647.5,572.4h106.6
		V679H647.5V572.4z M764.1,572.4h106.6V679H764.1V572.4z M880.7,572.4h106.6V679H880.7V572.4z M997.3,572.4h106.6V679H997.3V572.4z
		 M1113.9,572.4h106.6V679h-106.6V572.4z M1220.4,562.4h-106.6V455.8h106.6V562.4z M1103.9,562.4H997.3V455.8h106.6V562.4z
		 M987.3,562.4H880.7V455.8h106.6V562.4z M870.7,562.4H764.1V455.8h106.6L870.7,562.4L870.7,562.4z M754.1,562.4H647.5V455.8h106.6
		V562.4z M647.5,689h106.6v106.6H647.5V689z M764.1,689h106.6v106.6H764.1V689z M880.7,689h106.6v106.6H880.7V689z M997.3,689h106.6
		v106.6H997.3V689z M1113.9,689h106.6v106.6h-106.6V689z M1230.4,689H1337v106.6h-106.6V689z M1337,445.8h-106.6V339.3H1337V445.8z
		 M1220.4,445.8h-106.6V339.3h106.6V445.8z M1103.9,445.8H997.3V339.3h106.6V445.8z M987.3,445.8H880.7V339.3h106.6V445.8z
		 M870.7,445.8H764.1V339.3h106.6L870.7,445.8L870.7,445.8z M647.5,339.3h106.6v106.6H647.5V339.3z M647.5,805.6h106.6v106.6H647.5
		V805.6z M764.1,805.6h106.6v106.6H764.1V805.6z M880.7,805.6h106.6v106.6H880.7V805.6z M997.3,805.6h106.6v106.6H997.3V805.6z
		 M1113.9,805.6h106.6v106.6h-106.6V805.6z M1337,912.2h-106.6V805.6H1337V912.2z" style="fill:#CC4F86;"/>
	<g>
		<polygon points="1357.2,919.2 1602.2,919.2 1602.2,671.1 		" style="fill:#383A48;"/>
		<path d="M1602.2,924.2h-245c-2,0-3.8-1.2-4.6-3.1c-0.8-1.9-0.4-4,1.1-5.4l245-248.1c1.4-1.4,3.6-1.9,5.5-1.1
			c1.9,0.8,3.1,2.6,3.1,4.6v248.1C1607.2,921.9,1605,924.2,1602.2,924.2z M1369.2,914.2h228v-231L1369.2,914.2z" style="fill:#383A48;"/>
	</g>
	<path d="M727,874.8c-19.2-7.2-45.2-9.5-72.8-12c-65.8-5.9-140.4-12.6-163.7-83.9c-22.9-69.9-64-89.5-100.3-106.7
		c-36.9-17.6-68.8-32.7-79.8-95.1c-0.5-2.6-2.8-4.4-5.4-4.1c-2.6,0.2-4.6,2.4-4.6,5v341.1c0,2.8,2.2,5,5,5h450c2.8,0,5-2.2,5-5
		C760.5,897.8,749.5,883.3,727,874.8z" style="fill:#F3F6E6;"/>
	<g>
		<g>
			<line x1="1273.1" y1="261.1" x2="1306" y2="261.1" style="fill:none;"/>
			<rect x="1273.1" y="256.1" width="33" height="10" style="fill:#383A48;"/>
		</g>
		<g>
			<line x1="1289.6" y1="277.6" x2="1289.6" y2="244.6" style="fill:none;"/>
			<rect x="1284.6" y="244.6" width="10" height="33" style="fill:#383A48;"/>
		</g>
	</g>
	<g>
		<g>
			<line x1="805.2" y1="851" x2="838.2" y2="851" style="fill:none;"/>
			<rect x="805.2" y="846" width="33" height="10" style="fill:#383A48;"/>
		</g>
		<g>
			<line x1="821.7" y1="867.4" x2="821.7" y2="834.5" style="fill:none;"/>
			<rect x="816.7" y="834.5" width="10" height="33" style="fill:#383A48;"/>
		</g>
	</g>
	<g>
		<g>
			<rect x="422.1" y="268.7" width="686.8" height="417.2" style="fill:#F3F6E6;"/>
			<path d="M1108.9,690.9H422.1c-2.8,0-5-2.2-5-5V268.7c0-2.8,2.2-5,5-5h686.8c2.8,0,5,2.2,5,5v417.2
				C1113.9,688.7,1111.6,690.9,1108.9,690.9z M427.1,680.9h676.8V273.7H427.1V680.9z" style="fill:#383A48;"/>
		</g>
		<g>
			<rect x="422.1" y="268.7" width="686.8" height="148.8" style="fill:#F6E049;"/>
			<path d="M1108.9,422.5H422.1c-2.8,0-5-2.2-5-5V268.7c0-2.8,2.2-5,5-5h686.8c2.8,0,5,2.2,5,5v148.8
				C1113.9,420.2,1111.6,422.5,1108.9,422.5z M427.1,412.5h676.8V273.7H427.1V412.5z" style="fill:#383A48;"/>
		</g>
		<g>
			<g>
				<g>
					
						<rect x="1009.5" y="325.6" transform="matrix(0.7071 -0.7071 0.7071 0.7071 55.2401 817.559)" width="10" height="33" style="fill:#383A48;"/>
				</g>
				<g>
					
						<rect x="998.1" y="337.1" transform="matrix(0.7071 -0.7072 0.7072 0.7071 55.3184 817.664)" width="33" height="10" style="fill:#383A48;"/>
				</g>
			</g>
			<g>
				<path d="M983.1,359.8h-35.5v-35.5h35.5V359.8z M957.6,349.8h15.5v-15.5h-15.5V349.8z" style="fill:#383A48;"/>
			</g>
			<g>
				<rect x="901.9" y="349.8" width="25.5" height="10" style="fill:#383A48;"/>
			</g>
		</g>
	</g>
	<g>
		<g>
			<circle cx="1345.9" cy="662.8" r="256.3" style="fill:#E0719E;"/>
			<path d="M1345.9,924.2c-69.8,0-135.4-27.2-184.8-76.5c-49.4-49.4-76.5-115-76.5-184.8s27.2-135.4,76.5-184.8
				c49.4-49.4,115-76.5,184.8-76.5s135.4,27.2,184.8,76.5c49.4,49.4,76.5,115,76.5,184.8s-27.2,135.4-76.5,184.8
				C1481.3,897,1415.7,924.2,1345.9,924.2z M1345.9,411.5c-67.1,0-130.2,26.1-177.7,73.6s-73.6,110.6-73.6,177.7
				s26.1,130.2,73.6,177.7s110.6,73.6,177.7,73.6s130.2-26.1,177.7-73.6s73.6-110.6,73.6-177.7s-26.1-130.2-73.6-177.7
				C1476.1,437.7,1413,411.5,1345.9,411.5z" style="fill:#383A48;"/>
		</g>
		<g>
			<g>
				<circle cx="1577.6" cy="579.9" r="5" style="fill:#383A48;"/>
			</g>
		</g>
		<g>
			<g>
				<circle cx="1577.6" cy="604.6" r="5" style="fill:#383A48;"/>
			</g>
		</g>
		<g>
			<g>
				<circle cx="1577.6" cy="629.3" r="5" style="fill:#383A48;"/>
			</g>
		</g>
		<g>
			<g>
				<circle cx="1577.6" cy="653.9" r="5" style="fill:#383A48;"/>
			</g>
		</g>
		<g>
			<g>
				<circle cx="1577.6" cy="678.6" r="5" style="fill:#383A48;"/>
			</g>
		</g>
		<g>
			<g>
				<circle cx="1577.6" cy="703.3" r="5" style="fill:#383A48;"/>
			</g>
		</g>
		<g>
			<g>
				<circle cx="1577.6" cy="727.9" r="5" style="fill:#383A48;"/>
			</g>
		</g>
		<g>
			<g>
				<circle cx="1577.6" cy="752.6" r="5" style="fill:#383A48;"/>
			</g>
		</g>
		<g>
			<g>
				<circle cx="1553" cy="530.6" r="5" style="fill:#383A48;"/>
			</g>
		</g>
		<g>
			<g>
				<circle cx="1553" cy="555.3" r="5" style="fill:#383A48;"/>
			</g>
		</g>
		<g>
			<g>
				<circle cx="1553" cy="579.9" r="5" style="fill:#383A48;"/>
			</g>
		</g>
		<g>
			<g>
				<circle cx="1553" cy="604.6" r="5" style="fill:#383A48;"/>
			</g>
		</g>
		<g>
			<g>
				<circle cx="1553" cy="629.3" r="5" style="fill:#383A48;"/>
			</g>
		</g>
		<g>
			<g>
				<circle cx="1553" cy="653.9" r="5" style="fill:#383A48;"/>
			</g>
		</g>
		<g>
			<g>
				<circle cx="1553" cy="678.6" r="5" style="fill:#383A48;"/>
			</g>
		</g>
		<g>
			<g>
				<circle cx="1553" cy="703.3" r="5" style="fill:#383A48;"/>
			</g>
		</g>
		<g>
			<g>
				<circle cx="1553" cy="727.9" r="5" style="fill:#383A48;"/>
			</g>
		</g>
		<g>
			<g>
				<circle cx="1553" cy="752.6" r="5" style="fill:#383A48;"/>
			</g>
		</g>
		<g>
			<g>
				<circle cx="1553" cy="777.3" r="5" style="fill:#383A48;"/>
			</g>
		</g>
		<g>
			<g>
				<circle cx="1553" cy="801.9" r="5" style="fill:#383A48;"/>
			</g>
		</g>
		<g>
			<g>
				<circle cx="1528.3" cy="505.9" r="5" style="fill:#383A48;"/>
			</g>
		</g>
		<g>
			<g>
				<circle cx="1528.3" cy="727.9" r="5" style="fill:#383A48;"/>
			</g>
		</g>
		<g>
			<g>
				<circle cx="1528.3" cy="752.6" r="5" style="fill:#383A48;"/>
			</g>
		</g>
		<g>
			<g>
				<circle cx="1528.3" cy="777.3" r="5" style="fill:#383A48;"/>
			</g>
		</g>
		<g>
			<g>
				<circle cx="1528.3" cy="801.9" r="5" style="fill:#383A48;"/>
			</g>
		</g>
		<g>
			<g>
				<circle cx="1528.3" cy="826.6" r="5" style="fill:#383A48;"/>
			</g>
		</g>
		<g>
			<g>
				<circle cx="1503.6" cy="752.6" r="5" style="fill:#383A48;"/>
			</g>
		</g>
		<g>
			<g>
				<circle cx="1503.6" cy="777.3" r="5" style="fill:#383A48;"/>
			</g>
		</g>
		<g>
			<g>
				<circle cx="1503.6" cy="801.9" r="5" style="fill:#383A48;"/>
			</g>
		</g>
		<g>
			<g>
				<circle cx="1503.6" cy="826.6" r="5" style="fill:#383A48;"/>
			</g>
		</g>
		<g>
			<g>
				<circle cx="1503.6" cy="851.3" r="5" style="fill:#383A48;"/>
			</g>
		</g>
		<g>
			<g>
				<circle cx="1479" cy="777.3" r="5" style="fill:#383A48;"/>
			</g>
		</g>
		<g>
			<g>
				<circle cx="1479" cy="801.9" r="5" style="fill:#383A48;"/>
			</g>
		</g>
		<g>
			<g>
				<circle cx="1479" cy="826.6" r="5" style="fill:#383A48;"/>
			</g>
		</g>
		<g>
			<g>
				<circle cx="1479" cy="851.3" r="5" style="fill:#383A48;"/>
			</g>
		</g>
		<g>
			<g>
				<circle cx="1479" cy="875.9" r="5" style="fill:#383A48;"/>
			</g>
		</g>
		<g>
			<g>
				<circle cx="1454.3" cy="801.9" r="5" style="fill:#383A48;"/>
			</g>
		</g>
		<g>
			<g>
				<circle cx="1454.3" cy="826.6" r="5" style="fill:#383A48;"/>
			</g>
		</g>
		<g>
			<g>
				<circle cx="1454.3" cy="851.3" r="5" style="fill:#383A48;"/>
			</g>
		</g>
		<g>
			<g>
				<circle cx="1454.3" cy="875.9" r="5" style="fill:#383A48;"/>
			</g>
		</g>
		<g>
			<g>
				<circle cx="1429.6" cy="826.6" r="5" style="fill:#383A48;"/>
			</g>
		</g>
		<g>
			<g>
				<circle cx="1429.6" cy="851.3" r="5" style="fill:#383A48;"/>
			</g>
		</g>
		<g>
			<g>
				<circle cx="1429.6" cy="875.9" r="5" style="fill:#383A48;"/>
			</g>
		</g>
		<g>
			<g>
				<circle cx="1429.6" cy="900.6" r="5" style="fill:#383A48;"/>
			</g>
		</g>
		<g>
			<g>
				<circle cx="1405" cy="851.3" r="5" style="fill:#383A48;"/>
			</g>
		</g>
		<g>
			<g>
				<circle cx="1405" cy="875.9" r="5" style="fill:#383A48;"/>
			</g>
		</g>
		<g>
			<g>
				<circle cx="1405" cy="900.6" r="5" style="fill:#383A48;"/>
			</g>
		</g>
		<g>
			<g>
				<circle cx="1380.3" cy="851.3" r="5" style="fill:#383A48;"/>
			</g>
		</g>
		<g>
			<g>
				<circle cx="1380.3" cy="875.9" r="5" style="fill:#383A48;"/>
			</g>
		</g>
		<g>
			<g>
				<circle cx="1380.3" cy="900.6" r="5" style="fill:#383A48;"/>
			</g>
		</g>
		<g>
			<g>
				<circle cx="1355.6" cy="851.3" r="5" style="fill:#383A48;"/>
			</g>
		</g>
		<g>
			<g>
				<circle cx="1355.6" cy="875.9" r="5" style="fill:#383A48;"/>
			</g>
		</g>
		<g>
			<g>
				<circle cx="1355.6" cy="900.6" r="5" style="fill:#383A48;"/>
			</g>
		</g>
		<g>
			<g>
				<circle cx="1331" cy="851.3" r="5" style="fill:#383A48;"/>
			</g>
		</g>
		<g>
			<g>
				<circle cx="1331" cy="875.9" r="5" style="fill:#383A48;"/>
			</g>
		</g>
		<g>
			<g>
				<circle cx="1331" cy="900.6" r="5" style="fill:#383A48;"/>
			</g>
		</g>
		<g>
			<g>
				<circle cx="1306.3" cy="851.3" r="5" style="fill:#383A48;"/>
			</g>
		</g>
		<g>
			<g>
				<circle cx="1306.3" cy="875.9" r="5" style="fill:#383A48;"/>
			</g>
		</g>
		<g>
			<g>
				<circle cx="1306.3" cy="900.6" r="5" style="fill:#383A48;"/>
			</g>
		</g>
		<g>
			<g>
				<circle cx="1281.6" cy="851.3" r="5" style="fill:#383A48;"/>
			</g>
		</g>
		<g>
			<g>
				<circle cx="1281.6" cy="875.9" r="5" style="fill:#383A48;"/>
			</g>
		</g>
		<g>
			<g>
				<circle cx="1281.6" cy="900.6" r="5" style="fill:#383A48;"/>
			</g>
		</g>
		<g>
			<g>
				<circle cx="1257" cy="851.3" r="5" style="fill:#383A48;"/>
			</g>
		</g>
		<g>
			<g>
				<circle cx="1257" cy="875.9" r="5" style="fill:#383A48;"/>
			</g>
		</g>
		<g>
			<g>
				<circle cx="1257" cy="900.6" r="5" style="fill:#383A48;"/>
			</g>
		</g>
		<g>
			<g>
				<circle cx="1232.3" cy="851.3" r="5" style="fill:#383A48;"/>
			</g>
		</g>
		<g>
			<g>
				<circle cx="1232.3" cy="875.9" r="5" style="fill:#383A48;"/>
			</g>
		</g>
		<g>
			<g>
				<circle cx="1207.6" cy="851.3" r="5" style="fill:#383A48;"/>
			</g>
		</g>
		<g>
			<g>
				<circle cx="1207.6" cy="875.9" r="5" style="fill:#383A48;"/>
			</g>
		</g>
		<g>
			<g>
				<circle cx="1183" cy="851.3" r="5" style="fill:#383A48;"/>
			</g>
		</g>
		<g>
			<g>
				<circle cx="1158.3" cy="826.6" r="5" style="fill:#383A48;"/>
			</g>
		</g>
		<g>
			<g>
				<circle cx="1133.6" cy="801.9" r="5" style="fill:#383A48;"/>
			</g>
		</g>
		<g>
			<path d="M1504,817.2c-16.4,0-34.5-2.8-53.7-8.6c-51.6-15.4-105.9-49.9-153.1-97c-47.2-47.2-81.7-101.6-97-153.1
				c-15.7-52.6-9.7-96.2,16.8-122.8c2-2,5.1-2,7.1,0s2,5.1,0,7.1c-23.8,23.8-28.9,63.9-14.3,112.8c14.9,50,48.5,102.9,94.5,148.9
				c46,46,98.9,79.6,148.9,94.5c48.9,14.6,89,9.5,112.8-14.3c2-2,5.1-2,7.1,0s2,5.1,0,7.1C1556.2,808.7,1532.5,817.2,1504,817.2z" style="fill:#383A48;"/>
		</g>
		<g>
			<path d="M1484.1,665.4c-3.8,0-7.6-0.2-11.4-0.5c-31.5-3-62.2-18-86.4-42.3c-50.4-50.4-57.3-125.5-15.3-167.5
				l42.1-42.1c2-2,5.1-2,7.1,0s2,5.1,0,7.1l-42.1,42.1c-18.3,18.3-26.9,44.3-24.1,73c2.8,29.1,16.8,57.7,39.4,80.3
				s51.2,36.7,80.3,39.4c28.8,2.7,54.7-5.8,73-24.1l42.1-42.1c2-2,5.1-2,7.1,0s2,5.1,0,7.1l-42.1,42.1
				C1535.7,655.8,1511.3,665.4,1484.1,665.4z" style="fill:#383A48;"/>
		</g>
		<g>
			<path d="M1274.4,914.1c-1.1,0-2.2-0.3-3.1-1.1c-2.2-1.7-2.6-4.8-0.9-7c14.7-18.9,20.7-44,16.8-70.8
				c-3.9-27.3-17.7-53.9-38.8-75c-42.8-42.8-105.1-52.6-144.8-22.7c-2.2,1.7-5.3,1.2-7-1s-1.2-5.3,1-7
				c43.7-32.9,111.5-22.7,157.9,23.7c22.6,22.6,37.4,51.3,41.6,80.7c4.2,29.5-2.5,57.3-18.8,78.4
				C1277.4,913.4,1275.9,914.1,1274.4,914.1z" style="fill:#383A48;"/>
		</g>
		<g>
			<path d="M1164.6,849.1c-1.3,0-2.6-0.5-3.5-1.5c-2-2-2-5.1,0-7.1L1523.6,478c2-2,5.1-2,7.1,0s2,5.1,0,7.1
				l-362.5,362.5C1167.2,848.6,1165.9,849.1,1164.6,849.1z" style="fill:#383A48;"/>
		</g>
		<path d="M1267.3,449c-10.8,0-19.7,8.8-19.7,19.7c0,10.8,8.8,19.7,19.7,19.7s19.7-8.8,19.7-19.7S1278.2,449,1267.3,449
			z" style="fill:#F3F6E6;"/>
	</g>
	<path d="M1549.2,155.9h-300.4c-2.6,0-4.7,1.9-5,4.5s1.4,4.9,3.9,5.4c87.5,19.2,197.1,61.4,222.6,153.2
		c17.9,64.2,55.6,104.2,84.1,126.6c30.9,24.2,57.4,33.2,58.5,33.5c0.5,0.2,1,0.3,1.6,0.3c1,0,2.1-0.3,2.9-0.9
		c1.3-0.9,2.1-2.4,2.1-4.1V289.2C1607.2,249.4,1588,155.9,1549.2,155.9z" style="fill:#F3F6E6;"/>
	<g>
		<circle cx="1560.3" cy="280.9" r="54.2" style="fill:#AAC6FC;"/>
		<path d="M1560.3,340.1c-32.6,0-59.2-26.5-59.2-59.2c0-32.6,26.5-59.2,59.2-59.2s59.2,26.5,59.2,59.2
			C1619.5,313.5,1593,340.1,1560.3,340.1z M1560.3,231.7c-27.1,0-49.2,22.1-49.2,49.2c0,27.1,22.1,49.2,49.2,49.2
			s49.2-22.1,49.2-49.2S1587.5,231.7,1560.3,231.7z" style="fill:#383A48;"/>
	</g>
	<g>
		<circle cx="1560.3" cy="215" r="54.2" style="fill:#AAC6FC;"/>
		<path d="M1560.3,274.2c-32.6,0-59.2-26.5-59.2-59.2c0-32.6,26.5-59.2,59.2-59.2s59.2,26.5,59.2,59.2
			C1619.5,247.6,1593,274.2,1560.3,274.2z M1560.3,165.8c-27.1,0-49.2,22.1-49.2,49.2s22.1,49.2,49.2,49.2s49.2-22.1,49.2-49.2
			S1587.5,165.8,1560.3,165.8z" style="fill:#383A48;"/>
	</g>
	<g>
		<g>
			<rect x="365.3" y="215.8" width="686.8" height="417.2" style="fill:#F3F6E6;"/>
			<path d="M1052,638H365.3c-2.8,0-5-2.2-5-5V215.8c0-2.8,2.2-5,5-5H1052c2.8,0,5,2.2,5,5V633
				C1057,635.8,1054.8,638,1052,638z M370.3,628H1047V220.8H370.3V628z" style="fill:#383A48;"/>
		</g>
		<g>
			<rect x="365.3" y="215.8" width="686.8" height="148.8" style="fill:#F6E049;"/>
			<path d="M1052,369.6H365.3c-2.8,0-5-2.2-5-5V215.8c0-2.8,2.2-5,5-5H1052c2.8,0,5,2.2,5,5v148.8
				C1057,367.3,1054.8,369.6,1052,369.6z M370.3,359.6H1047V220.8H370.3V359.6z" style="fill:#383A48;"/>
		</g>
		<g>
			<g>
				<g>
					
						<rect x="976.5" y="272.7" transform="matrix(0.7071 -0.7071 0.7071 0.7071 82.9832 778.7258)" width="10" height="33" style="fill:#383A48;"/>
				</g>
				<g>
					
						<rect x="965.1" y="284.2" transform="matrix(0.7071 -0.7072 0.7072 0.7071 83.0592 778.8262)" width="33" height="10" style="fill:#383A48;"/>
				</g>
			</g>
			<g>
				<path d="M950.1,306.9h-35.5v-35.5h35.5V306.9z M924.6,296.9h15.5v-15.5h-15.5V296.9z" style="fill:#383A48;"/>
			</g>
			<g>
				<rect x="868.9" y="296.9" width="25.5" height="10" style="fill:#383A48;"/>
			</g>
		</g>
	</g>
	<g>
		<g>
			<rect x="305.5" y="160.9" width="686.8" height="417.2" style="fill:#F3F6E6;"/>
			<path d="M992.3,583.1H305.5c-2.8,0-5-2.2-5-5V160.9c0-2.8,2.2-5,5-5h686.8c2.8,0,5,2.2,5,5v417.2
				C997.3,580.8,995,583.1,992.3,583.1z M310.5,573.1h676.8V165.9H310.5V573.1z" style="fill:#383A48;"/>
		</g>
		<g>
			<rect x="305.5" y="160.9" width="686.8" height="148.8" style="fill:#F6E049;"/>
			<path d="M992.3,314.7H305.5c-2.8,0-5-2.2-5-5V160.9c0-2.8,2.2-5,5-5h686.8c2.8,0,5,2.2,5,5v148.8
				C997.3,312.4,995,314.7,992.3,314.7z M310.5,304.7h676.8V165.9H310.5V304.7z" style="fill:#383A48;"/>
		</g>
		<g>
			<g>
				<g>
					
						<rect x="913.7" y="217.8" transform="matrix(0.7071 -0.7071 0.7071 0.7071 103.4067 718.2703)" width="10" height="33" style="fill:#383A48;"/>
				</g>
				<g>
					
						<rect x="902.4" y="229.2" transform="matrix(0.7071 -0.7072 0.7072 0.7071 103.5533 718.387)" width="33" height="10" style="fill:#383A48;"/>
				</g>
			</g>
			<g>
				<path d="M887.3,252h-35.5v-35.5h35.5V252z M861.8,242h15.5v-15.5h-15.5V242z" style="fill:#383A48;"/>
			</g>
			<g>
				<rect x="806.2" y="242" width="25.5" height="10" style="fill:#383A48;"/>
			</g>
		</g>
		<g>
			<g>
				<path d="M401.8,427.1l3.7-17.6h60.4l4.4,17.1L414.7,487l-0.1,0.5h42.1l-3.8,17.6h-64.5l-2.6-16.9l55.7-60.5l0.2-0.5
					h-39.9V427.1z" style="fill:#383A48;"/>
			</g>
			<g>
				<path d="M508.2,397.4l5.1-24.3h83.4l6.1,23.6L526,480.1l-0.2,0.7H584l-5.2,24.3h-89.1l-3.6-23.4l76.9-83.6l0.3-0.7
					H508.2z" style="fill:#383A48;"/>
			</g>
			<g>
				<path d="M640.2,408.8l4.6-21.7h75.6l5.5,21.1l-68.7,74.6l-0.2,0.7h52l-4.6,21.7h-80.7l-3.2-20.9l69.8-74.8l0.2-0.7
					H640.2z" style="fill:#383A48;"/>
			</g>
			<g>
				<path d="M756.3,427.1l3.7-17.6h60.4l4.4,17.1L769.2,487l-0.1,0.5h42.1l-3.8,17.6h-64.5l-2.6-16.9l55.7-60.5l0.2-0.5
					h-39.9V427.1z" style="fill:#383A48;"/>
			</g>
			<g>
				<path d="M838.3,505.1l3.9-18.1h20.4l-3.9,18.1H838.3z M869.3,505.1l3.8-18.1h20.4l-3.9,18.1H869.3z M900.3,505.1
					l3.8-18.1h20.4l-3.8,18.1H900.3z" style="fill:#383A48;"/>
			</g>
		</g>
	</g>
	<g>
		<path d="M980.9,797.8L846.2,663.1c-2-2-2-5.1,0-7.1l0,0c2-2,5.1-2,7.1,0L988,790.7c2,2,2,5.1,0,7.1l0,0
			C986,799.7,982.9,799.7,980.9,797.8z" style="fill:#383A48;"/>
	</g>
</g>
</svg>
