<?xml version="1.0" encoding="utf-8"?>
<!-- Generator: Adobe Illustrator 22.0.1, SVG Export Plug-In . SVG Version: 6.00 Build 0)  -->
<svg version="1.1" id="Layer_1" xmlns="http://www.w3.org/2000/svg" xmlns:xlink="http://www.w3.org/1999/xlink" x="0px" y="0px" viewBox="0 0 1920 1080" style="enable-background:new 0 0 1920 1080;" xml:space="preserve">

<rect y="0" width="1920" height="1080" style="fill:#F6E049;"/>
<g>
	<path d="M1191.2,192.8c-1-0.9-2.3-1.4-3.7-1.4c-52.9,2.6-74.2,57.3-98.9,120.6c-28.5,73.2-60.9,156.2-149.9,184.8
		c-2.3,0.8-3.8,3.1-3.4,5.5c0.4,2.4,2.5,4.2,4.9,4.2h247.5c2.8,0,5-2.2,5-5V196.4C1192.8,195.1,1192.2,193.8,1191.2,192.8z" style="fill:#F3F6E6;"/>
	<path d="M1634.6,192.4c-1.1-1-2.6-1.3-4.1-1.1c-30.4,5.6-54.2,28.9-72.8,71.3c-16.2,36.9-27.1,84.8-37.7,131.2
		c-21.1,92.4-43,188-105.9,204.7c-96.7,25.6-136.8,82-175.5,136.6c-20.4,28.8-41.6,58.5-70.9,83.7c-32.9,28.1-73,47.4-122.5,58.9
		c-2.5,0.6-4.1,2.9-3.8,5.4s2.4,4.4,5,4.4h585.1c2.8,0,5-2.2,5-5V196.3C1636.4,194.8,1635.8,193.4,1634.6,192.4z" style="fill:#F3F6E6;"/>
	<path d="M1631.4,479.8h-129.2c-2.3,0-4.2,1.5-4.8,3.7c-0.1,0.2-6.9,25.2-20.4,53.8c-0.7,1.5-0.6,3.4,0.3,4.8
		c0.9,1.4,2.5,2.3,4.2,2.3h149.9c2.8,0,5-2.2,5-5v-54.6C1636.4,482,1634.2,479.8,1631.4,479.8z" style="fill:#383A48;"/>
	<path d="M638.1,195.2c-0.5-2.3-2.5-3.9-4.9-3.9H288.6c-2.8,0-5,2.2-5,5v637.2c0,2.6,2,4.7,4.5,5c0.2,0,0.3,0,0.5,0
		c2.4,0,4.4-1.7,4.9-4c17.8-91.1,34.5-142.7,61.8-190.2c28.1-48.8,66.9-92.8,138-167.2c31.1-32.6,38.1-76.2,44.8-118.4
		c4.8-30,9.7-61,23.1-88.4c15-30.6,39.2-53.2,74-69.4C637.4,199.8,638.6,197.5,638.1,195.2z" style="fill:#F3F6E6;"/>
	<path d="M1008.4,332l-14.8-10.1l8.9-15.5c1-1.8,0.9-4-0.4-5.6c-1.3-1.6-3.4-2.3-5.4-1.7l-17.1,5.2l-6.6-16.7
		c-0.8-1.9-2.6-3.2-4.7-3.2s-3.9,1.3-4.7,3.2l-6.6,16.7l-17.1-5.2c-2-0.6-4.1,0.1-5.4,1.7c-1.3,1.6-1.4,3.8-0.4,5.6l8.9,15.5
		L928.4,332c-1.7,1.2-2.5,3.2-2,5.2s2.1,3.5,4.1,3.8l17.7,2.7l-1.3,17.9c-0.1,2,1,4,2.8,4.9c0.7,0.3,1.4,0.5,2.2,0.5
		c1.2,0,2.5-0.5,3.4-1.3l13.2-12.2l13.2,12.2c1.5,1.4,3.7,1.7,5.6,0.8c1.8-0.9,3-2.8,2.8-4.9l-1.3-17.9l17.7-2.7
		c2-0.3,3.7-1.8,4.1-3.8C1010.9,335.3,1010.1,333.2,1008.4,332z" style="fill:#383A48;"/>
	<g>
		<g>
			<rect x="1333.9" y="791.4" width="10" height="33" style="fill:#383A48;"/>
		</g>
		<g>
			<line x1="1322.4" y1="807.9" x2="1355.4" y2="807.9" style="fill:none;"/>
			<rect x="1322.4" y="802.9" width="33" height="10" style="fill:#383A48;"/>
		</g>
	</g>
	<g>
		<g>
			<g>
				<circle cx="1186" cy="515.7" r="5.2" style="fill:#383A48;"/>
			</g>
		</g>
		<g>
			<g>
				<circle cx="1186" cy="541.2" r="5.2" style="fill:#383A48;"/>
			</g>
		</g>
		<g>
			<g>
				<circle cx="1186" cy="566.6" r="5.2" style="fill:#383A48;"/>
			</g>
		</g>
		<g>
			<g>
				<circle cx="1186" cy="592" r="5.2" style="fill:#383A48;"/>
			</g>
		</g>
		<g>
			<g>
				<circle cx="1186" cy="617.5" r="5.2" style="fill:#383A48;"/>
			</g>
		</g>
		<g>
			<g>
				<circle cx="1186" cy="642.9" r="5.2" style="fill:#383A48;"/>
			</g>
		</g>
		<g>
			<g>
				<circle cx="1186" cy="668.4" r="5.2" style="fill:#383A48;"/>
			</g>
		</g>
		<g>
			<g>
				<circle cx="1186" cy="693.8" r="5.2" style="fill:#383A48;"/>
			</g>
		</g>
		<g>
			<g>
				<circle cx="1186" cy="719.2" r="5.2" style="fill:#383A48;"/>
			</g>
		</g>
		<g>
			<g>
				<circle cx="1186" cy="744.7" r="5.2" style="fill:#383A48;"/>
			</g>
		</g>
		<g>
			<g>
				<circle cx="1186" cy="770.1" r="5.2" style="fill:#383A48;"/>
			</g>
		</g>
		<g>
			<g>
				<circle cx="1186" cy="795.6" r="5.2" style="fill:#383A48;"/>
			</g>
		</g>
		<g>
			<g>
				<circle cx="1186" cy="821" r="5.2" style="fill:#383A48;"/>
			</g>
		</g>
		<g>
			<g>
				<circle cx="1186" cy="846.4" r="5.2" style="fill:#383A48;"/>
			</g>
		</g>
		<g>
			<g>
				<circle cx="1186" cy="871.9" r="5.2" style="fill:#383A48;"/>
			</g>
		</g>
		<g>
			<g>
				<circle cx="1160.6" cy="515.7" r="5.2" style="fill:#383A48;"/>
			</g>
		</g>
		<g>
			<g>
				<circle cx="1160.6" cy="541.2" r="5.2" style="fill:#383A48;"/>
			</g>
		</g>
		<g>
			<g>
				<circle cx="1160.6" cy="566.6" r="5.2" style="fill:#383A48;"/>
			</g>
		</g>
		<g>
			<g>
				<circle cx="1160.6" cy="592" r="5.2" style="fill:#383A48;"/>
			</g>
		</g>
		<g>
			<g>
				<circle cx="1160.6" cy="617.5" r="5.2" style="fill:#383A48;"/>
			</g>
		</g>
		<g>
			<g>
				<circle cx="1160.6" cy="642.9" r="5.2" style="fill:#383A48;"/>
			</g>
		</g>
		<g>
			<g>
				<circle cx="1160.6" cy="668.4" r="5.2" style="fill:#383A48;"/>
			</g>
		</g>
		<g>
			<g>
				<circle cx="1160.6" cy="693.8" r="5.2" style="fill:#383A48;"/>
			</g>
		</g>
		<g>
			<g>
				<circle cx="1160.6" cy="719.2" r="5.2" style="fill:#383A48;"/>
			</g>
		</g>
		<g>
			<g>
				<circle cx="1160.6" cy="744.7" r="5.2" style="fill:#383A48;"/>
			</g>
		</g>
		<g>
			<g>
				<circle cx="1160.6" cy="770.1" r="5.2" style="fill:#383A48;"/>
			</g>
		</g>
		<g>
			<g>
				<circle cx="1160.6" cy="795.6" r="5.2" style="fill:#383A48;"/>
			</g>
		</g>
		<g>
			<g>
				<circle cx="1160.6" cy="821" r="5.2" style="fill:#383A48;"/>
			</g>
		</g>
		<g>
			<g>
				<circle cx="1160.6" cy="846.4" r="5.2" style="fill:#383A48;"/>
			</g>
		</g>
		<g>
			<g>
				<circle cx="1160.6" cy="871.9" r="5.2" style="fill:#383A48;"/>
			</g>
		</g>
		<g>
			<g>
				<circle cx="1135.2" cy="515.7" r="5.2" style="fill:#383A48;"/>
			</g>
		</g>
		<g>
			<g>
				<circle cx="1135.2" cy="541.2" r="5.2" style="fill:#383A48;"/>
			</g>
		</g>
		<g>
			<g>
				<circle cx="1135.2" cy="566.6" r="5.2" style="fill:#383A48;"/>
			</g>
		</g>
		<g>
			<g>
				<circle cx="1135.2" cy="592" r="5.2" style="fill:#383A48;"/>
			</g>
		</g>
		<g>
			<g>
				<circle cx="1135.2" cy="617.5" r="5.2" style="fill:#383A48;"/>
			</g>
		</g>
		<g>
			<g>
				<circle cx="1135.2" cy="642.9" r="5.2" style="fill:#383A48;"/>
			</g>
		</g>
		<g>
			<g>
				<circle cx="1135.2" cy="668.4" r="5.2" style="fill:#383A48;"/>
			</g>
		</g>
		<g>
			<g>
				<circle cx="1135.2" cy="693.8" r="5.2" style="fill:#383A48;"/>
			</g>
		</g>
		<g>
			<g>
				<circle cx="1135.2" cy="719.2" r="5.2" style="fill:#383A48;"/>
			</g>
		</g>
		<g>
			<g>
				<circle cx="1135.2" cy="744.7" r="5.2" style="fill:#383A48;"/>
			</g>
		</g>
		<g>
			<g>
				<circle cx="1135.2" cy="770.1" r="5.2" style="fill:#383A48;"/>
			</g>
		</g>
		<g>
			<g>
				<circle cx="1135.2" cy="795.6" r="5.2" style="fill:#383A48;"/>
			</g>
		</g>
		<g>
			<g>
				<circle cx="1135.2" cy="821" r="5.2" style="fill:#383A48;"/>
			</g>
		</g>
		<g>
			<g>
				<circle cx="1135.2" cy="846.4" r="5.2" style="fill:#383A48;"/>
			</g>
		</g>
		<g>
			<g>
				<circle cx="1135.2" cy="871.9" r="5.2" style="fill:#383A48;"/>
			</g>
		</g>
		<g>
			<g>
				<circle cx="1109.7" cy="515.7" r="5.2" style="fill:#383A48;"/>
			</g>
		</g>
		<g>
			<g>
				<circle cx="1109.7" cy="541.2" r="5.2" style="fill:#383A48;"/>
			</g>
		</g>
		<g>
			<g>
				<circle cx="1109.7" cy="566.6" r="5.2" style="fill:#383A48;"/>
			</g>
		</g>
		<g>
			<g>
				<circle cx="1109.7" cy="592" r="5.2" style="fill:#383A48;"/>
			</g>
		</g>
		<g>
			<g>
				<circle cx="1109.7" cy="617.5" r="5.2" style="fill:#383A48;"/>
			</g>
		</g>
		<g>
			<g>
				<circle cx="1109.7" cy="642.9" r="5.2" style="fill:#383A48;"/>
			</g>
		</g>
		<g>
			<g>
				<circle cx="1109.7" cy="668.4" r="5.2" style="fill:#383A48;"/>
			</g>
		</g>
		<g>
			<g>
				<circle cx="1109.7" cy="693.8" r="5.2" style="fill:#383A48;"/>
			</g>
		</g>
		<g>
			<g>
				<circle cx="1109.7" cy="719.2" r="5.2" style="fill:#383A48;"/>
			</g>
		</g>
		<g>
			<g>
				<circle cx="1109.7" cy="744.7" r="5.2" style="fill:#383A48;"/>
			</g>
		</g>
		<g>
			<g>
				<circle cx="1109.7" cy="770.1" r="5.2" style="fill:#383A48;"/>
			</g>
		</g>
		<g>
			<g>
				<circle cx="1109.7" cy="795.6" r="5.2" style="fill:#383A48;"/>
			</g>
		</g>
		<g>
			<g>
				<circle cx="1109.7" cy="821" r="5.2" style="fill:#383A48;"/>
			</g>
		</g>
		<g>
			<g>
				<circle cx="1109.7" cy="846.4" r="5.2" style="fill:#383A48;"/>
			</g>
		</g>
		<g>
			<g>
				<circle cx="1109.7" cy="871.9" r="5.2" style="fill:#383A48;"/>
			</g>
		</g>
		<g>
			<g>
				<circle cx="1084.3" cy="515.7" r="5.2" style="fill:#383A48;"/>
			</g>
		</g>
		<g>
			<g>
				<circle cx="1084.3" cy="541.2" r="5.2" style="fill:#383A48;"/>
			</g>
		</g>
		<g>
			<g>
				<circle cx="1084.3" cy="566.6" r="5.2" style="fill:#383A48;"/>
			</g>
		</g>
		<g>
			<g>
				<circle cx="1084.3" cy="592" r="5.2" style="fill:#383A48;"/>
			</g>
		</g>
		<g>
			<g>
				<circle cx="1084.3" cy="617.5" r="5.2" style="fill:#383A48;"/>
			</g>
		</g>
		<g>
			<g>
				<circle cx="1084.3" cy="642.9" r="5.2" style="fill:#383A48;"/>
			</g>
		</g>
		<g>
			<g>
				<circle cx="1084.3" cy="668.4" r="5.2" style="fill:#383A48;"/>
			</g>
		</g>
		<g>
			<g>
				<circle cx="1084.3" cy="693.8" r="5.2" style="fill:#383A48;"/>
			</g>
		</g>
		<g>
			<g>
				<circle cx="1084.3" cy="719.2" r="5.2" style="fill:#383A48;"/>
			</g>
		</g>
		<g>
			<g>
				<circle cx="1084.3" cy="744.7" r="5.2" style="fill:#383A48;"/>
			</g>
		</g>
		<g>
			<g>
				<circle cx="1084.3" cy="770.1" r="5.2" style="fill:#383A48;"/>
			</g>
		</g>
		<g>
			<g>
				<circle cx="1084.3" cy="795.6" r="5.2" style="fill:#383A48;"/>
			</g>
		</g>
		<g>
			<g>
				<circle cx="1084.3" cy="821" r="5.2" style="fill:#383A48;"/>
			</g>
		</g>
		<g>
			<g>
				<circle cx="1084.3" cy="846.4" r="5.2" style="fill:#383A48;"/>
			</g>
		</g>
		<g>
			<g>
				<circle cx="1084.3" cy="871.9" r="5.2" style="fill:#383A48;"/>
			</g>
		</g>
		<g>
			<g>
				<circle cx="1058.8" cy="515.7" r="5.2" style="fill:#383A48;"/>
			</g>
		</g>
		<g>
			<g>
				<circle cx="1058.8" cy="541.2" r="5.2" style="fill:#383A48;"/>
			</g>
		</g>
		<g>
			<g>
				<circle cx="1058.8" cy="566.6" r="5.2" style="fill:#383A48;"/>
			</g>
		</g>
		<g>
			<g>
				<circle cx="1058.8" cy="592" r="5.2" style="fill:#383A48;"/>
			</g>
		</g>
		<g>
			<g>
				<circle cx="1058.8" cy="617.5" r="5.2" style="fill:#383A48;"/>
			</g>
		</g>
		<g>
			<g>
				<circle cx="1058.8" cy="642.9" r="5.2" style="fill:#383A48;"/>
			</g>
		</g>
		<g>
			<g>
				<circle cx="1058.8" cy="668.4" r="5.2" style="fill:#383A48;"/>
			</g>
		</g>
		<g>
			<g>
				<circle cx="1058.8" cy="693.8" r="5.2" style="fill:#383A48;"/>
			</g>
		</g>
		<g>
			<g>
				<circle cx="1058.8" cy="719.2" r="5.2" style="fill:#383A48;"/>
			</g>
		</g>
		<g>
			<g>
				<circle cx="1058.8" cy="744.7" r="5.2" style="fill:#383A48;"/>
			</g>
		</g>
		<g>
			<g>
				<circle cx="1058.8" cy="770.1" r="5.2" style="fill:#383A48;"/>
			</g>
		</g>
		<g>
			<g>
				<circle cx="1058.8" cy="795.6" r="5.2" style="fill:#383A48;"/>
			</g>
		</g>
		<g>
			<g>
				<circle cx="1058.8" cy="821" r="5.2" style="fill:#383A48;"/>
			</g>
		</g>
		<g>
			<g>
				<circle cx="1058.8" cy="846.4" r="5.2" style="fill:#383A48;"/>
			</g>
		</g>
		<g>
			<g>
				<circle cx="1058.8" cy="871.9" r="5.2" style="fill:#383A48;"/>
			</g>
		</g>
		<g>
			<g>
				<circle cx="1033.4" cy="515.7" r="5.2" style="fill:#383A48;"/>
			</g>
		</g>
		<g>
			<g>
				<circle cx="1033.4" cy="541.2" r="5.2" style="fill:#383A48;"/>
			</g>
		</g>
		<g>
			<g>
				<circle cx="1033.4" cy="566.6" r="5.2" style="fill:#383A48;"/>
			</g>
		</g>
		<g>
			<g>
				<circle cx="1033.4" cy="592" r="5.2" style="fill:#383A48;"/>
			</g>
		</g>
		<g>
			<g>
				<circle cx="1033.4" cy="617.5" r="5.2" style="fill:#383A48;"/>
			</g>
		</g>
		<g>
			<g>
				<circle cx="1033.4" cy="642.9" r="5.2" style="fill:#383A48;"/>
			</g>
		</g>
		<g>
			<g>
				<circle cx="1033.4" cy="668.4" r="5.2" style="fill:#383A48;"/>
			</g>
		</g>
		<g>
			<g>
				<circle cx="1033.4" cy="693.8" r="5.2" style="fill:#383A48;"/>
			</g>
		</g>
		<g>
			<g>
				<circle cx="1033.4" cy="719.2" r="5.2" style="fill:#383A48;"/>
			</g>
		</g>
		<g>
			<g>
				<circle cx="1033.4" cy="744.7" r="5.2" style="fill:#383A48;"/>
			</g>
		</g>
		<g>
			<g>
				<circle cx="1033.4" cy="770.1" r="5.2" style="fill:#383A48;"/>
			</g>
		</g>
		<g>
			<g>
				<circle cx="1033.4" cy="795.6" r="5.2" style="fill:#383A48;"/>
			</g>
		</g>
		<g>
			<g>
				<circle cx="1033.4" cy="821" r="5.2" style="fill:#383A48;"/>
			</g>
		</g>
		<g>
			<g>
				<circle cx="1033.4" cy="846.4" r="5.2" style="fill:#383A48;"/>
			</g>
		</g>
		<g>
			<g>
				<circle cx="1033.4" cy="871.9" r="5.2" style="fill:#383A48;"/>
			</g>
		</g>
		<g>
			<g>
				<circle cx="1008" cy="515.7" r="5.2" style="fill:#383A48;"/>
			</g>
		</g>
		<g>
			<g>
				<circle cx="1008" cy="541.2" r="5.2" style="fill:#383A48;"/>
			</g>
		</g>
		<g>
			<g>
				<circle cx="1008" cy="566.6" r="5.2" style="fill:#383A48;"/>
			</g>
		</g>
		<g>
			<g>
				<circle cx="1008" cy="592" r="5.2" style="fill:#383A48;"/>
			</g>
		</g>
		<g>
			<g>
				<circle cx="1008" cy="617.5" r="5.2" style="fill:#383A48;"/>
			</g>
		</g>
		<g>
			<g>
				<circle cx="1008" cy="642.9" r="5.2" style="fill:#383A48;"/>
			</g>
		</g>
		<g>
			<g>
				<circle cx="1008" cy="668.4" r="5.2" style="fill:#383A48;"/>
			</g>
		</g>
		<g>
			<g>
				<circle cx="1008" cy="693.8" r="5.2" style="fill:#383A48;"/>
			</g>
		</g>
		<g>
			<g>
				<circle cx="1008" cy="719.2" r="5.2" style="fill:#383A48;"/>
			</g>
		</g>
		<g>
			<g>
				<circle cx="1008" cy="744.7" r="5.2" style="fill:#383A48;"/>
			</g>
		</g>
		<g>
			<g>
				<circle cx="1008" cy="770.1" r="5.2" style="fill:#383A48;"/>
			</g>
		</g>
		<g>
			<g>
				<circle cx="1008" cy="795.6" r="5.2" style="fill:#383A48;"/>
			</g>
		</g>
		<g>
			<g>
				<circle cx="1008" cy="821" r="5.2" style="fill:#383A48;"/>
			</g>
		</g>
		<g>
			<g>
				<circle cx="1008" cy="846.4" r="5.2" style="fill:#383A48;"/>
			</g>
		</g>
		<g>
			<g>
				<circle cx="1008" cy="871.9" r="5.2" style="fill:#383A48;"/>
			</g>
		</g>
		<g>
			<g>
				<circle cx="982.5" cy="515.7" r="5.2" style="fill:#383A48;"/>
			</g>
		</g>
		<g>
			<g>
				<circle cx="982.5" cy="541.2" r="5.2" style="fill:#383A48;"/>
			</g>
		</g>
		<g>
			<g>
				<circle cx="982.5" cy="566.6" r="5.2" style="fill:#383A48;"/>
			</g>
		</g>
		<g>
			<g>
				<circle cx="982.5" cy="592" r="5.2" style="fill:#383A48;"/>
			</g>
		</g>
		<g>
			<g>
				<circle cx="982.5" cy="617.5" r="5.2" style="fill:#383A48;"/>
			</g>
		</g>
		<g>
			<g>
				<circle cx="982.5" cy="642.9" r="5.2" style="fill:#383A48;"/>
			</g>
		</g>
		<g>
			<g>
				<circle cx="982.5" cy="668.4" r="5.2" style="fill:#383A48;"/>
			</g>
		</g>
		<g>
			<g>
				<circle cx="982.5" cy="693.8" r="5.2" style="fill:#383A48;"/>
			</g>
		</g>
		<g>
			<g>
				<circle cx="982.5" cy="719.2" r="5.2" style="fill:#383A48;"/>
			</g>
		</g>
		<g>
			<g>
				<circle cx="982.5" cy="744.7" r="5.2" style="fill:#383A48;"/>
			</g>
		</g>
		<g>
			<g>
				<circle cx="982.5" cy="770.1" r="5.2" style="fill:#383A48;"/>
			</g>
		</g>
		<g>
			<g>
				<circle cx="982.5" cy="795.6" r="5.2" style="fill:#383A48;"/>
			</g>
		</g>
		<g>
			<g>
				<circle cx="982.5" cy="821" r="5.2" style="fill:#383A48;"/>
			</g>
		</g>
		<g>
			<g>
				<circle cx="982.5" cy="846.4" r="5.2" style="fill:#383A48;"/>
			</g>
		</g>
		<g>
			<g>
				<circle cx="982.5" cy="871.9" r="5.2" style="fill:#383A48;"/>
			</g>
		</g>
		<g>
			<g>
				<circle cx="957.1" cy="515.7" r="5.2" style="fill:#383A48;"/>
			</g>
		</g>
		<g>
			<g>
				<circle cx="957.1" cy="541.2" r="5.2" style="fill:#383A48;"/>
			</g>
		</g>
		<g>
			<g>
				<circle cx="957.1" cy="566.6" r="5.2" style="fill:#383A48;"/>
			</g>
		</g>
		<g>
			<g>
				<circle cx="957.1" cy="592" r="5.2" style="fill:#383A48;"/>
			</g>
		</g>
		<g>
			<g>
				<circle cx="957.1" cy="617.5" r="5.2" style="fill:#383A48;"/>
			</g>
		</g>
		<g>
			<g>
				<circle cx="957.1" cy="642.9" r="5.2" style="fill:#383A48;"/>
			</g>
		</g>
		<g>
			<g>
				<circle cx="957.1" cy="668.4" r="5.2" style="fill:#383A48;"/>
			</g>
		</g>
		<g>
			<g>
				<circle cx="957.1" cy="693.8" r="5.2" style="fill:#383A48;"/>
			</g>
		</g>
		<g>
			<g>
				<circle cx="957.1" cy="719.2" r="5.2" style="fill:#383A48;"/>
			</g>
		</g>
		<g>
			<g>
				<circle cx="957.1" cy="744.7" r="5.2" style="fill:#383A48;"/>
			</g>
		</g>
		<g>
			<g>
				<circle cx="957.1" cy="770.1" r="5.2" style="fill:#383A48;"/>
			</g>
		</g>
		<g>
			<g>
				<circle cx="957.1" cy="795.6" r="5.2" style="fill:#383A48;"/>
			</g>
		</g>
		<g>
			<g>
				<circle cx="957.1" cy="821" r="5.2" style="fill:#383A48;"/>
			</g>
		</g>
		<g>
			<g>
				<circle cx="957.1" cy="846.4" r="5.2" style="fill:#383A48;"/>
			</g>
		</g>
		<g>
			<g>
				<circle cx="957.1" cy="871.9" r="5.2" style="fill:#383A48;"/>
			</g>
		</g>
		<g>
			<g>
				<circle cx="931.6" cy="515.7" r="5.2" style="fill:#383A48;"/>
			</g>
		</g>
		<g>
			<g>
				<circle cx="931.6" cy="541.2" r="5.2" style="fill:#383A48;"/>
			</g>
		</g>
		<g>
			<g>
				<circle cx="931.6" cy="566.6" r="5.2" style="fill:#383A48;"/>
			</g>
		</g>
		<g>
			<g>
				<circle cx="931.6" cy="592" r="5.2" style="fill:#383A48;"/>
			</g>
		</g>
		<g>
			<g>
				<circle cx="931.6" cy="617.5" r="5.2" style="fill:#383A48;"/>
			</g>
		</g>
		<g>
			<g>
				<circle cx="931.6" cy="642.9" r="5.2" style="fill:#383A48;"/>
			</g>
		</g>
		<g>
			<g>
				<circle cx="931.6" cy="668.4" r="5.2" style="fill:#383A48;"/>
			</g>
		</g>
		<g>
			<g>
				<circle cx="931.6" cy="693.8" r="5.2" style="fill:#383A48;"/>
			</g>
		</g>
		<g>
			<g>
				<circle cx="931.6" cy="719.2" r="5.2" style="fill:#383A48;"/>
			</g>
		</g>
		<g>
			<g>
				<circle cx="931.6" cy="744.7" r="5.2" style="fill:#383A48;"/>
			</g>
		</g>
		<g>
			<g>
				<circle cx="931.6" cy="770.1" r="5.2" style="fill:#383A48;"/>
			</g>
		</g>
		<g>
			<g>
				<circle cx="931.6" cy="795.6" r="5.2" style="fill:#383A48;"/>
			</g>
		</g>
		<g>
			<g>
				<circle cx="931.6" cy="821" r="5.2" style="fill:#383A48;"/>
			</g>
		</g>
		<g>
			<g>
				<circle cx="931.6" cy="846.4" r="5.2" style="fill:#383A48;"/>
			</g>
		</g>
		<g>
			<g>
				<circle cx="931.6" cy="871.9" r="5.2" style="fill:#383A48;"/>
			</g>
		</g>
		<g>
			<g>
				<circle cx="906.2" cy="515.7" r="5.2" style="fill:#383A48;"/>
			</g>
		</g>
		<g>
			<g>
				<circle cx="906.2" cy="541.2" r="5.2" style="fill:#383A48;"/>
			</g>
		</g>
		<g>
			<g>
				<circle cx="906.2" cy="566.6" r="5.2" style="fill:#383A48;"/>
			</g>
		</g>
		<g>
			<g>
				<circle cx="906.2" cy="592" r="5.2" style="fill:#383A48;"/>
			</g>
		</g>
		<g>
			<g>
				<circle cx="906.2" cy="617.5" r="5.2" style="fill:#383A48;"/>
			</g>
		</g>
		<g>
			<g>
				<circle cx="906.2" cy="642.9" r="5.2" style="fill:#383A48;"/>
			</g>
		</g>
		<g>
			<g>
				<circle cx="906.2" cy="668.4" r="5.2" style="fill:#383A48;"/>
			</g>
		</g>
		<g>
			<g>
				<circle cx="906.2" cy="693.8" r="5.2" style="fill:#383A48;"/>
			</g>
		</g>
		<g>
			<g>
				<circle cx="906.2" cy="719.2" r="5.2" style="fill:#383A48;"/>
			</g>
		</g>
		<g>
			<g>
				<circle cx="906.2" cy="744.7" r="5.2" style="fill:#383A48;"/>
			</g>
		</g>
		<g>
			<g>
				<circle cx="906.2" cy="770.1" r="5.2" style="fill:#383A48;"/>
			</g>
		</g>
		<g>
			<g>
				<circle cx="906.2" cy="795.6" r="5.2" style="fill:#383A48;"/>
			</g>
		</g>
		<g>
			<g>
				<circle cx="906.2" cy="821" r="5.2" style="fill:#383A48;"/>
			</g>
		</g>
		<g>
			<g>
				<circle cx="906.2" cy="846.4" r="5.2" style="fill:#383A48;"/>
			</g>
		</g>
		<g>
			<g>
				<circle cx="906.2" cy="871.9" r="5.2" style="fill:#383A48;"/>
			</g>
		</g>
		<g>
			<g>
				<circle cx="880.8" cy="515.7" r="5.2" style="fill:#383A48;"/>
			</g>
		</g>
		<g>
			<g>
				<circle cx="880.8" cy="541.2" r="5.2" style="fill:#383A48;"/>
			</g>
		</g>
		<g>
			<g>
				<circle cx="880.8" cy="566.6" r="5.2" style="fill:#383A48;"/>
			</g>
		</g>
		<g>
			<g>
				<circle cx="880.8" cy="592" r="5.2" style="fill:#383A48;"/>
			</g>
		</g>
		<g>
			<g>
				<circle cx="880.8" cy="617.5" r="5.2" style="fill:#383A48;"/>
			</g>
		</g>
		<g>
			<g>
				<circle cx="880.8" cy="642.9" r="5.2" style="fill:#383A48;"/>
			</g>
		</g>
		<g>
			<g>
				<circle cx="880.8" cy="668.4" r="5.2" style="fill:#383A48;"/>
			</g>
		</g>
		<g>
			<g>
				<circle cx="880.8" cy="693.8" r="5.2" style="fill:#383A48;"/>
			</g>
		</g>
		<g>
			<g>
				<circle cx="880.8" cy="719.2" r="5.2" style="fill:#383A48;"/>
			</g>
		</g>
		<g>
			<g>
				<circle cx="880.8" cy="744.7" r="5.2" style="fill:#383A48;"/>
			</g>
		</g>
		<g>
			<g>
				<circle cx="880.8" cy="770.1" r="5.2" style="fill:#383A48;"/>
			</g>
		</g>
		<g>
			<g>
				<circle cx="880.8" cy="795.6" r="5.2" style="fill:#383A48;"/>
			</g>
		</g>
		<g>
			<g>
				<circle cx="880.8" cy="821" r="5.2" style="fill:#383A48;"/>
			</g>
		</g>
		<g>
			<g>
				<circle cx="880.8" cy="846.4" r="5.2" style="fill:#383A48;"/>
			</g>
		</g>
		<g>
			<g>
				<circle cx="880.8" cy="871.9" r="5.2" style="fill:#383A48;"/>
			</g>
		</g>
		<g>
			<g>
				<circle cx="855.3" cy="515.7" r="5.2" style="fill:#383A48;"/>
			</g>
		</g>
		<g>
			<g>
				<circle cx="855.3" cy="541.2" r="5.2" style="fill:#383A48;"/>
			</g>
		</g>
		<g>
			<g>
				<circle cx="855.3" cy="566.6" r="5.2" style="fill:#383A48;"/>
			</g>
		</g>
		<g>
			<g>
				<circle cx="855.3" cy="592" r="5.2" style="fill:#383A48;"/>
			</g>
		</g>
		<g>
			<g>
				<circle cx="855.3" cy="617.5" r="5.2" style="fill:#383A48;"/>
			</g>
		</g>
		<g>
			<g>
				<circle cx="855.3" cy="642.9" r="5.2" style="fill:#383A48;"/>
			</g>
		</g>
		<g>
			<g>
				<circle cx="855.3" cy="668.4" r="5.2" style="fill:#383A48;"/>
			</g>
		</g>
		<g>
			<g>
				<circle cx="855.3" cy="693.8" r="5.2" style="fill:#383A48;"/>
			</g>
		</g>
		<g>
			<g>
				<circle cx="855.3" cy="719.2" r="5.2" style="fill:#383A48;"/>
			</g>
		</g>
		<g>
			<g>
				<circle cx="855.3" cy="744.7" r="5.2" style="fill:#383A48;"/>
			</g>
		</g>
		<g>
			<g>
				<circle cx="855.3" cy="770.1" r="5.2" style="fill:#383A48;"/>
			</g>
		</g>
		<g>
			<g>
				<circle cx="855.3" cy="795.6" r="5.2" style="fill:#383A48;"/>
			</g>
		</g>
		<g>
			<g>
				<circle cx="855.3" cy="821" r="5.2" style="fill:#383A48;"/>
			</g>
		</g>
		<g>
			<g>
				<circle cx="855.3" cy="846.4" r="5.2" style="fill:#383A48;"/>
			</g>
		</g>
		<g>
			<g>
				<circle cx="855.3" cy="871.9" r="5.2" style="fill:#383A48;"/>
			</g>
		</g>
		<g>
			<g>
				<circle cx="829.9" cy="515.7" r="5.2" style="fill:#383A48;"/>
			</g>
		</g>
		<g>
			<g>
				<circle cx="829.9" cy="541.2" r="5.2" style="fill:#383A48;"/>
			</g>
		</g>
		<g>
			<g>
				<circle cx="829.9" cy="566.6" r="5.2" style="fill:#383A48;"/>
			</g>
		</g>
		<g>
			<g>
				<circle cx="829.9" cy="592" r="5.2" style="fill:#383A48;"/>
			</g>
		</g>
		<g>
			<g>
				<circle cx="829.9" cy="617.5" r="5.2" style="fill:#383A48;"/>
			</g>
		</g>
		<g>
			<g>
				<circle cx="829.9" cy="642.9" r="5.2" style="fill:#383A48;"/>
			</g>
		</g>
		<g>
			<g>
				<circle cx="829.9" cy="668.4" r="5.2" style="fill:#383A48;"/>
			</g>
		</g>
		<g>
			<g>
				<circle cx="829.9" cy="693.8" r="5.2" style="fill:#383A48;"/>
			</g>
		</g>
		<g>
			<g>
				<circle cx="829.9" cy="719.2" r="5.2" style="fill:#383A48;"/>
			</g>
		</g>
		<g>
			<g>
				<circle cx="829.9" cy="744.7" r="5.2" style="fill:#383A48;"/>
			</g>
		</g>
		<g>
			<g>
				<circle cx="829.9" cy="770.1" r="5.2" style="fill:#383A48;"/>
			</g>
		</g>
		<g>
			<g>
				<circle cx="829.9" cy="795.6" r="5.2" style="fill:#383A48;"/>
			</g>
		</g>
		<g>
			<g>
				<circle cx="829.9" cy="821" r="5.2" style="fill:#383A48;"/>
			</g>
		</g>
		<g>
			<g>
				<circle cx="829.9" cy="846.4" r="5.2" style="fill:#383A48;"/>
			</g>
		</g>
		<g>
			<g>
				<circle cx="829.9" cy="871.9" r="5.2" style="fill:#383A48;"/>
			</g>
		</g>
	</g>
	<g>
		<g>
			<circle cx="443.8" cy="833.4" r="50.3" style="fill:#383A48;"/>
			<path d="M443.8,888.7c-30.5,0-55.3-24.8-55.3-55.3s24.8-55.3,55.3-55.3s55.3,24.8,55.3,55.3S474.3,888.7,443.8,888.7
				z M443.8,788.1c-25,0-45.3,20.3-45.3,45.3s20.3,45.3,45.3,45.3s45.3-20.3,45.3-45.3S468.8,788.1,443.8,788.1z" style="fill:#383A48;"/>
		</g>
		<g>
			<circle cx="830.1" cy="832.8" r="50.3" style="fill:#383A48;"/>
			<path d="M830.1,888.1c-30.5,0-55.3-24.8-55.3-55.3s24.8-55.3,55.3-55.3s55.3,24.8,55.3,55.3S860.6,888.1,830.1,888.1
				z M830.1,787.5c-25,0-45.3,20.3-45.3,45.3s20.3,45.3,45.3,45.3s45.3-20.3,45.3-45.3C875.5,807.8,855.1,787.5,830.1,787.5z" style="fill:#383A48;"/>
		</g>
		<g>
			<polygon points="942.5,833.4 288.6,833.4 309.2,750.7 942.5,750.7 			" style="fill:#F6E049;"/>
			<path d="M942.5,838.4H288.6c-1.5,0-3-0.7-3.9-1.9s-1.3-2.8-0.9-4.3l20.6-82.7c0.6-2.2,2.6-3.8,4.9-3.8h633.3
				c2.8,0,5,2.2,5,5v82.7C947.5,836.2,945.3,838.4,942.5,838.4z M295,828.4h642.5v-72.7H313.1L295,828.4z" style="fill:#383A48;"/>
		</g>
		<g>
			<polygon points="761.8,501.5 531.6,501.5 452.2,750.7 814.2,750.7 			" style="fill:#AAC6FC;"/>
			<path d="M814.2,755.7h-362c-1.6,0-3.1-0.8-4-2s-1.2-2.9-0.7-4.5L526.8,500c0.7-2.1,2.6-3.5,4.8-3.5h230.2
				c2.4,0,4.4,1.7,4.9,4L819,749.7c0.3,1.5-0.1,3-1,4.2C817.1,755,815.7,755.7,814.2,755.7z M459,745.7h349l-50.3-239.2H535.2
				L459,745.7z" style="fill:#383A48;"/>
		</g>
		<g>
			<polygon points="523.3,544.2 669.4,690.8 689.2,606.3 589.9,506.5 535.2,506.5 			" style="fill:#F3F6E6;"/>
		</g>
		<g>
			<polygon points="1148,833.4 494.1,833.4 504.8,750.7 1127.4,750.7 			" style="fill:#F6E049;"/>
			<path d="M1148,838.4H494.1c-1.4,0-2.8-0.6-3.8-1.7s-1.4-2.5-1.2-3.9l10.7-82.7c0.3-2.5,2.4-4.4,5-4.4h622.6
				c2.3,0,4.3,1.6,4.9,3.8l20.6,82.7c0.4,1.5,0,3.1-0.9,4.3C1151,837.7,1149.6,838.4,1148,838.4z M499.8,828.4h641.8l-18.1-72.7
				H509.2L499.8,828.4z" style="fill:#383A48;"/>
		</g>
		<g>
			<path d="M1101,837.3c-2.8,0-5-2.2-5-5c0-42.1-34.2-76.3-76.3-76.3c-42.1,0-76.3,34.2-76.3,76.3c0,2.8-2.2,5-5,5
				s-5-2.2-5-5c0-47.6,38.7-86.3,86.3-86.3c47.6,0,86.3,38.7,86.3,86.3C1106,835,1103.8,837.3,1101,837.3z" style="fill:#383A48;"/>
		</g>
		<g>
			<path d="M726.2,837.3c-2.8,0-5-2.2-5-5c0-42.1-34.2-76.3-76.3-76.3s-76.3,34.2-76.3,76.3c0,2.8-2.2,5-5,5s-5-2.2-5-5
				c0-47.6,38.7-86.3,86.3-86.3s86.3,38.7,86.3,86.3C731.2,835,729,837.3,726.2,837.3z" style="fill:#383A48;"/>
		</g>
		<g>
			<polygon points="940.3,501.5 710.1,501.5 657.7,750.7 1019.7,750.7 			" style="fill:#AAC6FC;"/>
			<path d="M1019.7,755.7h-362c-1.5,0-2.9-0.7-3.9-1.8c-0.9-1.2-1.3-2.7-1-4.2l52.4-249.2c0.5-2.3,2.5-4,4.9-4h230.2
				c2.2,0,4.1,1.4,4.8,3.5l79.4,249.2c0.5,1.5,0.2,3.2-0.7,4.5C1022.8,754.9,1021.3,755.7,1019.7,755.7z M663.9,745.7h349
				l-76.2-239.2H714.1L663.9,745.7z" style="fill:#383A48;"/>
		</g>
		<g>
			<circle cx="644.9" cy="833.4" r="50.3" style="fill:#383A48;"/>
			<path d="M644.9,888.7c-30.5,0-55.3-24.8-55.3-55.3s24.8-55.3,55.3-55.3s55.3,24.8,55.3,55.3S675.4,888.7,644.9,888.7
				z M644.9,788.1c-25,0-45.3,20.3-45.3,45.3s20.3,45.3,45.3,45.3s45.3-20.3,45.3-45.3S669.9,788.1,644.9,788.1z" style="fill:#383A48;"/>
		</g>
		<g>
			<circle cx="644.9" cy="833.4" r="25.6" style="fill:#F6E049;"/>
		</g>
		<g>
			<circle cx="1019.7" cy="832.3" r="50.3" style="fill:#383A48;"/>
			<path d="M1019.7,887.6c-30.5,0-55.3-24.8-55.3-55.3s24.8-55.3,55.3-55.3c30.5,0,55.3,24.8,55.3,55.3
				S1050.2,887.6,1019.7,887.6z M1019.7,786.9c-25,0-45.3,20.3-45.3,45.3s20.3,45.3,45.3,45.3c25,0,45.3-20.3,45.3-45.3
				C1065,807.3,1044.7,786.9,1019.7,786.9z" style="fill:#383A48;"/>
		</g>
		<g>
			<circle cx="457.2" cy="792.1" r="17.9" style="fill:#F3F6E6;"/>
			<path d="M457.2,815c-12.6,0-22.9-10.3-22.9-22.9s10.3-22.9,22.9-22.9s22.9,10.3,22.9,22.9S469.9,815,457.2,815z
				 M457.2,779.1c-7.1,0-12.9,5.8-12.9,12.9c0,7.1,5.8,12.9,12.9,12.9s12.9-5.8,12.9-12.9C470.1,784.9,464.3,779.1,457.2,779.1z" style="fill:#383A48;"/>
		</g>
		<g>
			<circle cx="337.6" cy="792.1" r="17.9" style="fill:#F3F6E6;"/>
			<path d="M337.6,815c-12.6,0-22.9-10.3-22.9-22.9s10.3-22.9,22.9-22.9s22.9,10.3,22.9,22.9S350.2,815,337.6,815z
				 M337.6,779.1c-7.1,0-12.9,5.8-12.9,12.9c0,7.1,5.8,12.9,12.9,12.9s12.9-5.8,12.9-12.9C350.5,784.9,344.7,779.1,337.6,779.1z" style="fill:#383A48;"/>
		</g>
		<g>
			<path d="M833.6,833.9c-2.8,0-5-2.2-5-5V501.5c0-2.8,2.2-5,5-5s5,2.2,5,5v327.4C838.6,831.7,836.3,833.9,833.6,833.9z
				" style="fill:#383A48;"/>
		</g>
		<g>
			
				<ellipse transform="matrix(0.1602 -0.9871 0.9871 0.1602 33.7236 1706.4373)" cx="1019.7" cy="833.4" rx="25.6" ry="25.6" style="fill:#F6E049;"/>
		</g>
	</g>
	<g>
		<rect x="812.7" y="336.8" width="31.7" height="35.1" style="fill:#E0719E;"/>
		<path d="M844.4,271.5c2.8,0,5-2.2,5-5v-35.1c0-2.8-2.2-5-5-5h-58v-30.1c0-2.8-2.2-5-5-5h-31.7c-2.8,0-5,2.2-5,5v30.1
			H718c-2.8,0-5,2.2-5,5v30.1h-26.7c-2.8,0-5,2.2-5,5v35.1c0,2.8,2.2,5,5,5H713v30.1c0,2.8,2.2,5,5,5h89.8v25.1H686.2
			c-2.8,0-5,2.2-5,5v35.1c0,2.8,2.2,5,5,5h58.5v29.7c0,2.8,2.2,5,5,5h31.7c2.8,0,5-2.2,5-5v-29.7h26.3c2.8,0,5-2.2,5-5v-30.1h26.7
			c2.8,0,5-2.2,5-5v-35.1c0-2.8-2.2-5-5-5h-26.7v-30.1c0-2.8-2.2-5-5-5h-89.8v-25.1H844.4z M839.4,366.9h-21.7v-25.1h21.7V366.9z" style="fill:#E0719E;"/>
	</g>
	<g>
		<g>
			<g>
				<circle cx="1348.1" cy="619" r="41" style="fill:#F6E049;"/>
				<path d="M1348.1,665c-11.8,0-23.6-4.5-32.6-13.5c-17.9-17.9-17.9-47.2,0-65.1c17.9-17.9,47.2-17.9,65.1,0
					s17.9,47.2,0,65.1C1371.6,660.5,1359.9,665,1348.1,665z M1348.1,583c-9.2,0-18.5,3.5-25.5,10.5c-14,14-14,36.9,0,51
					c14,14,36.9,14,51,0c14-14,14-36.9,0-51C1366.5,586.5,1357.3,583,1348.1,583z" style="fill:#383A48;"/>
			</g>
		</g>
		<g>
			<g>
				<circle cx="1389.1" cy="660" r="41" style="fill:#F6E049;"/>
				<path d="M1389.1,706c-11.8,0-23.6-4.5-32.6-13.5c-8.7-8.7-13.5-20.3-13.5-32.5c0-12.3,4.8-23.9,13.5-32.6l0,0
					c17.9-17.9,47.2-18,65.1,0c17.9,17.9,17.9,47.2,0,65.1C1412.7,701.5,1400.9,706,1389.1,706z M1389.1,624
					c-9.2,0-18.5,3.5-25.5,10.5l0,0c-6.8,6.8-10.6,15.9-10.6,25.5s3.7,18.7,10.6,25.5c14,14,36.9,14,51,0c14-14,14-36.9,0-51
					C1407.6,627.5,1398.3,624,1389.1,624z M1360.1,631L1360.1,631L1360.1,631z" style="fill:#383A48;"/>
			</g>
		</g>
		<g>
			<g>
				<circle cx="1430.1" cy="701" r="41" style="fill:#F6E049;"/>
				<path d="M1430.1,747.1c-12.3,0-23.9-4.8-32.6-13.5c-17.9-17.9-17.9-47.2,0-65.1l0,0c18-17.9,47.2-17.9,65.1,0
					c8.7,8.7,13.5,20.3,13.5,32.6s-4.8,23.9-13.5,32.5C1454,742.3,1442.4,747.1,1430.1,747.1z M1404.7,675.6c-14,14-14,36.9,0,51
					c6.8,6.8,15.9,10.6,25.5,10.6s18.7-3.7,25.5-10.6c6.8-6.8,10.6-15.9,10.6-25.5s-3.7-18.7-10.6-25.5
					C1441.6,661.5,1418.7,661.5,1404.7,675.6L1404.7,675.6z" style="fill:#383A48;"/>
			</g>
		</g>
		<g>
			<g>
				<circle cx="1471.2" cy="742.1" r="41" style="fill:#AAC6FC;"/>
				<path d="M1471.2,788.1c-11.8,0-23.6-4.5-32.6-13.5c-17.9-17.9-17.9-47.2,0-65.1l0,0c18-17.9,47.2-17.9,65.1,0
					s17.9,47.2,0,65.1C1494.7,783.6,1483,788.1,1471.2,788.1z M1445.7,716.6c-14,14-14,36.9,0,51c14.1,14,36.9,14,51,0
					c14-14,14-36.9,0-51C1482.6,702.5,1459.7,702.5,1445.7,716.6L1445.7,716.6z" style="fill:#383A48;"/>
			</g>
		</g>
	</g>
	<g>
		<g>
			<g>
				<rect x="1187.8" y="196.4" width="443.6" height="300.4" style="fill:#F3F6E6;"/>
				<path d="M1631.4,501.8h-443.7c-2.8,0-5-2.2-5-5V196.4c0-2.8,2.2-5,5-5h443.7c2.8,0,5,2.2,5,5v300.4
					C1636.4,499.6,1634.2,501.8,1631.4,501.8z M1192.8,491.8h433.7V201.4h-433.7V491.8z" style="fill:#383A48;"/>
			</g>
			<g>
				<rect x="1187.8" y="196.4" width="443.6" height="99.4" style="fill:#E0719E;"/>
				<path d="M1631.4,300.8h-443.7c-2.8,0-5-2.2-5-5v-99.4c0-2.8,2.2-5,5-5h443.7c2.8,0,5,2.2,5,5v99.4
					C1636.4,298.6,1634.2,300.8,1631.4,300.8z M1192.8,290.8h433.7v-89.4h-433.7V290.8z" style="fill:#383A48;"/>
			</g>
			<g>
				<g>
					<path d="M1481.4,266.3c-11.1,0-20.2-9-20.2-20.2c0-11.2,9-20.2,20.2-20.2s20.2,9,20.2,20.2
						C1501.6,257.3,1492.5,266.3,1481.4,266.3z M1481.4,236c-5.6,0-10.2,4.6-10.2,10.2c0,5.6,4.6,10.2,10.2,10.2s10.2-4.6,10.2-10.2
						C1491.5,240.5,1487,236,1481.4,236z" style="fill:#383A48;"/>
				</g>
				<g>
					<path d="M1531.8,266.3c-11.1,0-20.2-9-20.2-20.2c0-11.2,9-20.2,20.2-20.2s20.2,9,20.2,20.2
						C1552,257.3,1542.9,266.3,1531.8,266.3z M1531.8,236c-5.6,0-10.2,4.6-10.2,10.2c0,5.6,4.6,10.2,10.2,10.2s10.2-4.6,10.2-10.2
						C1541.9,240.5,1537.4,236,1531.8,236z" style="fill:#383A48;"/>
				</g>
				<g>
					<path d="M1582.1,266.3c-11.1,0-20.2-9-20.2-20.2c0-11.2,9-20.2,20.2-20.2s20.2,9,20.2,20.2
						C1602.3,257.3,1593.3,266.3,1582.1,266.3z M1582.1,236c-5.6,0-10.2,4.6-10.2,10.2c0,5.6,4.6,10.2,10.2,10.2s10.2-4.6,10.2-10.2
						C1592.3,240.5,1587.7,236,1582.1,236z" style="fill:#383A48;"/>
				</g>
			</g>
		</g>
		<path d="M1551.6,353.5h-284c-2.8,0-5,2.2-5,5v75.6c0,2.8,2.2,5,5,5h284c2.8,0,5-2.2,5-5v-75.6
			C1556.6,355.7,1554.4,353.5,1551.6,353.5z" style="fill:#AAC6FC;"/>
	</g>
	<g>
		<path d="M407.2,424.9c-7.3,0-14.6-2.8-20.2-8.3l-12.3-12.3c-7.2-7.2-19-7.2-26.2,0L335,417.8c-2,2-5.1,2-7.1,0
			s-2-5.1,0-7.1l13.5-13.5c11.1-11.1,29.2-11.1,40.4,0l12.3,12.3c7.2,7.2,19,7.2,26.2,0l12.3-12.3c11.1-11.1,29.2-11.1,40.4,0
			l12.3,12.3c7.2,7.2,19,7.2,26.2,0l12.3-12.3c11.1-11.1,29.2-11.1,40.4,0l12.4,12.3c2,2,2,5.1,0,7.1s-5.1,2-7.1,0L557,404.2
			c-7.2-7.2-19-7.2-26.2,0l-12.3,12.3c-11.1,11.1-29.2,11.1-40.4,0l-12.3-12.3c-7.2-7.2-19-7.2-26.2,0l-12.3,12.3
			C421.8,422.1,414.5,424.9,407.2,424.9z" style="fill:#383A48;"/>
	</g>
</g>
</svg>
