<svg xmlns="http://www.w3.org/2000/svg" xmlns:xlink="http://www.w3.org/1999/xlink" width="1539" height="712" version="1.1" viewBox="0 0 1539 712"><title>abstract-working-remotely</title><desc>Created with Sketch.</desc><g id="Page-1" fill="none" fill-rule="evenodd" stroke="none" stroke-width="1"><g id="abstract-working-remotely" transform="translate(-193.000000, -184.000000)"><g id="Group" transform="translate(193.000000, 184.000000)"><g id="Oval" fill="#383A48" fill-rule="nonzero" transform="translate(591.000000, 496.000000)"><circle cx="104.5" cy="5.7" r="5"/><circle cx="104.5" cy="30.4" r="5"/><circle cx="104.5" cy="55.1" r="5"/><circle cx="104.5" cy="79.7" r="5"/><circle cx="104.5" cy="104.4" r="5"/><circle cx="104.5" cy="129.1" r="5"/><circle cx="104.5" cy="153.7" r="5"/><circle cx="104.5" cy="178.4" r="5"/><circle cx="104.5" cy="203.1" r="5"/><circle cx="79.8" cy="5.7" r="5"/><circle cx="79.8" cy="30.4" r="5"/><circle cx="79.8" cy="55.1" r="5"/><circle cx="79.8" cy="79.7" r="5"/><circle cx="79.8" cy="104.4" r="5"/><circle cx="79.8" cy="129.1" r="5"/><circle cx="79.8" cy="153.7" r="5"/><circle cx="79.8" cy="178.4" r="5"/><circle cx="79.8" cy="203.1" r="5"/><circle cx="55.1" cy="5.7" r="5"/><circle cx="55.1" cy="30.4" r="5"/><circle cx="55.1" cy="55.1" r="5"/><circle cx="55.1" cy="79.7" r="5"/><circle cx="55.1" cy="104.4" r="5"/><circle cx="55.1" cy="129.1" r="5"/><circle cx="55.1" cy="153.7" r="5"/><circle cx="55.1" cy="178.4" r="5"/><circle cx="55.1" cy="203.1" r="5"/><circle cx="30.5" cy="5.7" r="5"/><circle cx="30.5" cy="30.4" r="5"/><circle cx="30.5" cy="55.1" r="5"/><circle cx="30.5" cy="79.7" r="5"/><circle cx="30.5" cy="104.4" r="5"/><circle cx="30.5" cy="129.1" r="5"/><circle cx="30.5" cy="153.7" r="5"/><circle cx="30.5" cy="178.4" r="5"/><circle cx="30.5" cy="203.1" r="5"/><circle cx="5.8" cy="5.7" r="5"/><circle cx="5.8" cy="30.4" r="5"/><circle cx="5.8" cy="55.1" r="5"/><circle cx="5.8" cy="79.7" r="5"/><circle cx="5.8" cy="104.4" r="5"/><circle cx="5.8" cy="129.1" r="5"/><circle cx="5.8" cy="153.7" r="5"/><circle cx="5.8" cy="178.4" r="5"/><circle cx="5.8" cy="203.1" r="5"/></g><path id="Path" fill="#F3F6E6" fill-rule="nonzero" d="M584.3,2.4 C583.4,1.1 581.9,0.4 580.3,0.4 L84.4,0.4 C82.4,0.4 80.5,1.6 79.8,3.5 C79.1,5.4 79.5,7.6 81,9 C90.6,18.3 111.7,46.5 122.7,86.7 C130.7,116.1 132.4,147.6 127.7,180.3 C121.8,221.3 105.8,264.3 80.2,308.2 C35.1,385.3 59.9,432.7 91.2,492.7 C117.3,542.7 149.9,605 149.9,704.4 C149.9,707.2 152.1,709.4 154.9,709.4 L287.3,709.4 C289.1,709.4 290.7,708.5 291.6,707 L469.7,409.3 C469.9,408.9 470.1,408.5 470.2,408.1 L585.2,6.8 C585.5,5.3 585.2,3.6 584.3,2.4 Z"/><path id="Path" fill="#F3F6E6" fill-rule="nonzero" d="M1533.5,78.7 C1530.7,78.7 1528.5,80.9 1528.5,83.7 C1528.5,122.1 1501.8,146.3 1464.9,179.9 C1433.1,208.8 1393.6,244.7 1361.4,301.2 C1344.4,331 1334.7,358.5 1325.3,385.1 C1305.8,440.2 1287.4,492.3 1206.1,555.8 C1169.3,584.5 1114.6,595.7 1056.8,607.6 C978.6,623.7 897.8,640.2 862.6,704.2 C861.7,705.7 861.8,707.6 862.7,709.2 C863.6,710.7 865.2,711.7 867,711.7 L1445.3,711.7 C1496.7,711.7 1538.5,669.9 1538.5,618.5 L1538.5,83.7 C1538.5,81 1536.2,78.7 1533.5,78.7 Z"/><g fill-rule="nonzero" transform="translate(680.000000, 499.000000)"><rect id="Rectangle" width="181.6" height="202.6" x="5.4" y="5" fill="#F3F6E6"/><path id="Shape" fill="#383A48" d="M187,212.6 L5.4,212.6 C2.6,212.6 0.4,210.4 0.4,207.6 L0.4,5 C0.4,2.2 2.6,0 5.4,0 L187,0 C189.8,0 192,2.2 192,5 L192,207.6 C192,210.4 189.8,212.6 187,212.6 Z M10.4,202.6 L182,202.6 L182,10 L10.4,10 L10.4,202.6 Z"/></g><path id="Path" fill="#E0719E" fill-rule="nonzero" d="M867,499 L685.4,499 C683.2,499 681.2,500.5 680.6,502.6 C680,504.7 680.8,507 682.7,508.2 L864.3,624.2 C865.1,624.7 866.1,625 867,625 C867.8,625 868.7,624.8 869.4,624.4 C871,623.5 872,621.8 872,620 L872,504 C872,501.3 869.8,499 867,499 Z"/><g fill-rule="nonzero" transform="translate(369.000000, 0.000000)"><path id="Path" fill="#AAC6FC" d="M769.5,511.9 L44.9,511.9 C23.3,511.9 5.8,494.4 5.8,472.8 L5.8,44.5 C5.8,22.9 23.3,5.4 44.9,5.4 L769.6,5.4 C791.2,5.4 808.7,22.9 808.7,44.5 L808.7,472.7 C808.6,494.3 791.1,511.9 769.5,511.9 Z"/><path id="Shape" fill="#383A48" d="M769.5,516.9 L44.9,516.9 C20.6,516.9 0.8,497.1 0.8,472.8 L0.8,44.5 C0.8,20.2 20.6,0.4 44.9,0.4 L769.6,0.4 C793.9,0.4 813.7,20.2 813.7,44.5 L813.7,472.7 C813.6,497.1 793.8,516.9 769.5,516.9 Z M44.9,10.4 C26.1,10.4 10.8,25.7 10.8,44.5 L10.8,472.7 C10.8,491.5 26.1,506.8 44.9,506.8 L769.6,506.8 C788.4,506.8 803.7,491.5 803.7,472.7 L803.7,44.5 C803.7,25.7 788.4,10.4 769.6,10.4 L44.9,10.4 Z"/></g><path id="Path" fill="#383A48" fill-rule="nonzero" d="M1177.6,412.9 L374.7,412.9 C371.9,412.9 369.7,415.1 369.7,417.9 L369.7,472 C369.7,496.7 389.8,516.8 414.5,516.8 L1137.8,516.8 C1162.5,516.8 1182.6,496.7 1182.6,472 L1182.6,417.9 C1182.6,415.2 1180.4,412.9 1177.6,412.9 Z"/><rect id="Rectangle" width="797.9" height="10" x="148.8" y="701.6" fill="#383A48" fill-rule="nonzero"/><g fill-rule="nonzero"><g transform="translate(722.000000, 113.000000)"><rect id="Rectangle" width="450.4" height="299.1" x="5.2" y="5.8" fill="#F3F6E6"/><path id="Shape" fill="#383A48" d="M455.6,309.9 L5.2,309.9 C2.4,309.9 0.2,307.7 0.2,304.9 L0.2,5.8 C0.2,3 2.4,0.8 5.2,0.8 L455.6,0.8 C458.4,0.8 460.6,3 460.6,5.8 L460.6,304.9 C460.6,307.7 458.4,309.9 455.6,309.9 Z M10.2,299.9 L450.6,299.9 L450.6,10.8 L10.2,10.8 L10.2,299.9 Z"/></g><g transform="translate(722.000000, 113.000000)"><rect id="Rectangle" width="450.4" height="87.8" x="5.2" y="5.8" fill="#F6E049"/><path id="Shape" fill="#383A48" d="M455.6,98.6 L5.2,98.6 C2.4,98.6 0.2,96.4 0.2,93.6 L0.2,5.8 C0.2,3 2.4,0.8 5.2,0.8 L455.6,0.8 C458.4,0.8 460.6,3 460.6,5.8 L460.6,93.6 C460.6,96.4 458.4,98.6 455.6,98.6 Z M10.2,88.6 L450.6,88.6 L450.6,10.8 L10.2,10.8 L10.2,88.6 Z"/></g><g transform="translate(722.000000, 113.000000) translate(75.000000, 149.000000)"><rect id="Rectangle" width="299.8" height="72" x="5.5" y="5.7" fill="#F3F6E6"/><path id="Shape" fill="#383A48" d="M305.3,82.7 L5.5,82.7 C2.7,82.7 0.5,80.5 0.5,77.7 L0.5,5.7 C0.5,2.9 2.7,0.7 5.5,0.7 L305.3,0.7 C308.1,0.7 310.3,2.9 310.3,5.7 L310.3,77.7 C310.3,80.5 308.1,82.7 305.3,82.7 Z M10.5,72.7 L300.3,72.7 L300.3,10.7 L10.5,10.7 L10.5,72.7 L10.5,72.7 Z"/></g></g><g fill-rule="nonzero" transform="translate(198.000000, 113.000000)"><polygon id="Path" fill="#F3F6E6" points="23 258.2 529.2 5.8 336.4 537.6 255.9 403.9 89.2 591.3 5.5 516.7 171.5 330"/><path id="Shape" fill="#383A48" d="M89.2,596.3 C88,596.3 86.8,595.9 85.9,595 L2.2,520.3 C0.1,518.5 -8.8817842e-15,515.3 1.8,513.2 L163.5,331.5 L20.9,262.6 C19.2,261.8 18.1,260 18.1,258.1 C18.1,256.2 19.2,254.4 20.9,253.6 L527,1.3 C528.8,0.4 531,0.7 532.6,2 C534.1,3.4 534.7,5.5 534,7.4 L341.1,539.3 C340.4,541.1 338.8,542.4 336.9,542.6 C335,542.8 333.1,541.9 332.1,540.2 L255.2,412.3 L92.9,594.7 C92,595.7 90.8,596.3 89.5,596.4 C89.4,596.3 89.3,596.3 89.2,596.3 Z M12.5,516.3 L88.8,584.3 L252.2,400.6 C253.3,399.4 254.8,398.8 256.4,398.9 C258,399 259.4,399.9 260.2,401.3 L335.2,526 L520.2,15.8 L34.3,258.1 L173.7,325.5 C175.1,326.2 176.1,327.5 176.4,329 C176.7,330.5 176.3,332.1 175.2,333.3 L12.5,516.3 Z"/></g><g fill-rule="nonzero"><g transform="translate(1218.000000, 32.000000)"><circle id="Oval" cx="140" cy="140.3" r="134.8" fill="#7FD6C2"/><path id="Shape" fill="#383A48" d="M140,280.2 C62.9,280.2 0.2,217.5 0.2,140.4 C0.2,63.3 62.9,0.6 140,0.6 C217.1,0.6 279.800119,63.3 279.800119,140.4 C279.9,217.4 217.1,280.2 140,280.2 Z M140,10.5 C68.4,10.5 10.2,68.7 10.2,140.3 C10.2,211.9 68.4,270.1 140,270.1 C211.6,270.1 269.8,211.9 269.8,140.3 C269.8,68.7 211.6,10.5 140,10.5 Z"/></g><g><g transform="translate(1218.000000, 32.000000) translate(79.000000, 62.000000) translate(20.000000, 0.000000)"><circle id="Oval" cx="41" cy="41" r="35.2" fill="#F3F6E6"/><path id="Shape" fill="#383A48" d="M41,81.2 C18.9,81.2 0.8,63.2 0.8,41 C0.8,18.9 18.8,0.8 41,0.8 C63.1,0.8 81.2,18.8 81.2,41 C81.2,63.2 63.2,81.2 41,81.2 Z M41,10.9 C24.4,10.9 10.8,24.4 10.8,41.1 C10.8,57.8 24.3,71.3 41,71.3 C57.6,71.3 71.2,57.8 71.2,41.1 C71.2,24.4 57.7,10.9 41,10.9 Z"/></g><g transform="translate(1218.000000, 32.000000) translate(79.000000, 62.000000) translate(0.000000, 71.000000)"><path id="Path" fill="#F3F6E6" d="M116.4,73.8 L5.7,73.8 L5.7,60.6 C5.7,30 30.5,5.3 61,5.3 L61,5.3 C91.6,5.3 116.3,30.1 116.3,60.6 L116.4,73.8 L116.4,73.8 Z"/><path id="Shape" fill="#383A48" d="M116.4,78.8 L5.7,78.8 C2.9,78.8 0.7,76.6 0.7,73.8 L0.7,60.6 C0.7,27.3 27.8,0.3 61,0.3 C94.2,0.3 121.3,27.4 121.3,60.6 L121.3,73.8 C121.4,76.5 119.1,78.8 116.4,78.8 Z M10.7,68.8 L111.4,68.8 L111.4,60.6 C111.4,32.8 88.8,10.3 61.1,10.3 C33.3,10.3 10.8,32.9 10.8,60.6 L10.7,68.8 L10.7,68.8 Z"/></g></g></g><g fill-rule="nonzero"><g transform="translate(68.000000, 139.000000)"><circle id="Oval" cx="118.9" cy="118.9" r="113" fill="#AAC6FC"/><path id="Shape" fill="#383A48" d="M118.9,236.8 C53.9,236.8 0.9,183.9 0.9,118.8 C0.9,53.7 53.8,0.8 118.9,0.8 C184,0.8 236.9,53.7 236.9,118.8 C236.9,183.9 183.9,236.8 118.9,236.8 Z M118.9,10.9 C59.4,10.9 10.9,59.3 10.9,118.9 C10.9,178.4 59.3,226.9 118.9,226.9 C178.4,226.9 226.9,178.5 226.9,118.9 C226.8,59.3 178.4,10.9 118.9,10.9 Z"/></g><g><g transform="translate(68.000000, 139.000000) translate(67.000000, 53.000000) translate(17.000000, 0.000000)"><circle id="Oval" cx="34.9" cy="34.6" r="29.4" fill="#F3F6E6"/><path id="Shape" fill="#383A48" d="M34.9,69 C15.9,69 0.5,53.5 0.5,34.6 C0.5,15.7 16,0.2 34.9,0.2 C53.8,0.2 69.3,15.7 69.3,34.6 C69.3,53.5 53.9,69 34.9,69 Z M34.9,10.1 C21.4,10.1 10.5,21.1 10.5,34.5 C10.5,47.9 21.5,58.9 34.9,58.9 C48.3,58.9 59.3,47.9 59.3,34.5 C59.3,21.1 48.3,10.1 34.9,10.1 Z"/></g><g transform="translate(68.000000, 139.000000) translate(67.000000, 53.000000) translate(0.000000, 59.000000)"><path id="Path" fill="#F3F6E6" d="M98.2,62.5 L5.5,62.5 L5.5,51.4 C5.5,25.8 26.3,5 51.9,5 L51.9,5 C77.5,5 98.3,25.8 98.3,51.4 L98.2,62.5 L98.2,62.5 Z"/><path id="Shape" fill="#383A48" d="M98.2,67.5 L5.5,67.5 C2.7,67.5 0.5,65.3 0.5,62.5 L0.5,51.4 C0.5,23.1 23.5,0 51.9,0 C80.2,0 103.3,23 103.3,51.4 L103.3,62.5 C103.2,65.3 101,67.5 98.2,67.5 Z M10.5,57.5 L93.2,57.5 L93.2,51.4 C93.2,28.6 74.6,10 51.8,10 C29,10 10.4,28.6 10.4,51.4 L10.5,57.5 L10.5,57.5 Z"/></g></g></g><g fill-rule="nonzero"><g transform="translate(1355.000000, 528.000000)"><circle id="Oval" cx="91.9" cy="92.1" r="86.5" fill="#F6E049"/><path id="Shape" fill="#383A48" d="M91.9,183.6 C41.4,183.6 0.4,142.5 0.4,92.1 C0.4,41.7 41.5,0.6 91.9,0.6 C142.3,0.6 183.4,41.7 183.4,92.1 C183.4,142.5 142.4,183.6 91.9,183.6 Z M91.9,10.5 C46.9,10.5 10.4,47.1 10.4,92 C10.4,136.9 47,173.5 91.9,173.5 C136.9,173.5 173.4,136.9 173.4,92 C173.4,47.1 136.9,10.5 91.9,10.5 Z"/></g><g><g transform="translate(1355.000000, 528.000000) translate(51.000000, 40.000000) translate(13.000000, 0.000000)"><circle id="Oval" cx="27.9" cy="28.1" r="22.6" fill="#F3F6E6"/><path id="Shape" fill="#383A48" d="M27.9,55.7 C12.7,55.7 0.3,43.3 0.3,28.1 C0.3,12.9 12.7,0.5 27.9,0.5 C43.1,0.5 55.5,12.9 55.5,28.1 C55.5,43.3 43.1,55.7 27.9,55.7 Z M27.9,10.6 C18.2,10.6 10.3,18.5 10.3,28.2 C10.3,37.9 18.2,45.8 27.9,45.8 C37.6,45.8 45.5,37.9 45.5,28.2 C45.5,18.4 37.6,10.6 27.9,10.6 Z"/></g><g transform="translate(1355.000000, 528.000000) translate(51.000000, 40.000000) translate(0.000000, 45.000000)"><path id="Path" fill="#F3F6E6" d="M76.5,49.7 L5.5,49.7 L5.5,41.2 C5.5,21.6 21.4,5.7 41,5.7 L41,5.7 C60.6,5.7 76.5,21.6 76.5,41.2 L76.5,49.7 Z"/><path id="Shape" fill="#383A48" d="M76.5,54.7 L5.5,54.7 C2.7,54.7 0.5,52.5 0.5,49.7 L0.5,41.2 C0.5,18.9 18.7,0.7 41,0.7 C63.3,0.7 81.5,18.9 81.5,41.2 L81.5,49.7 C81.5,52.5 79.2,54.7 76.5,54.7 Z M10.4,44.7 L71.4,44.7 L71.4,41.2 C71.4,24.4 57.7,10.7 40.9,10.7 C24.1,10.7 10.4,24.4 10.4,41.2 L10.4,44.7 Z"/></g></g></g><path id="Path" fill="#383A48" fill-rule="nonzero" d="M1358,422.9 L1177.6,422.9 L1177.6,412.9 L1353,412.9 L1353,307.2 L1363,307.2 L1363,418 C1363,420.7 1360.8,422.9 1358,422.9 Z"/><path id="Path" fill="#383A48" fill-rule="nonzero" d="M1451.9,533.5 L1441.9,533.5 L1441.9,422.9 L1358,422.9 L1358,412.9 L1446.9,412.9 C1449.7,412.9 1451.9,415.1 1451.9,417.9 L1451.9,533.5 Z"/><g fill="#383A48" fill-rule="nonzero" transform="translate(1341.000000, 401.000000)"><circle id="Oval" cx="17" cy="16.9" r="11.3"/><path id="Shape" d="M17,33.2 C8,33.2 0.7,25.9 0.7,16.9 C0.7,7.9 8,0.6 17,0.6 C26,0.6 33.3,7.9 33.3,16.9 C33.3,25.9 26,33.2 17,33.2 Z M17,10.6 C13.5,10.6 10.7,13.4 10.7,16.9 C10.7,20.4 13.5,23.2 17,23.2 C20.5,23.2 23.3,20.4 23.3,16.9 C23.3,13.4 20.5,10.6 17,10.6 Z"/></g><g fill="#383A48" fill-rule="nonzero" transform="translate(1430.000000, 401.000000)"><circle id="Oval" cx="16.9" cy="16.9" r="11.3"/><path id="Shape" d="M16.9,33.2 C7.9,33.2 0.6,25.9 0.6,16.9 C0.6,7.9 7.9,0.6 16.9,0.6 C25.9,0.6 33.2,7.9 33.2,16.9 C33.2,25.9 25.9,33.2 16.9,33.2 Z M16.9,10.6 C13.4,10.6 10.6,13.4 10.6,16.9 C10.6,20.4 13.4,23.2 16.9,23.2 C20.4,23.2 23.2,20.4 23.2,16.9 C23.2,13.4 20.4,10.6 16.9,10.6 Z"/></g><g fill="#383A48" fill-rule="nonzero" transform="translate(170.000000, 59.000000)"><circle id="Oval" cx="16.9" cy="16.9" r="11.3"/><path id="Shape" d="M16.9,33.2 C7.9,33.2 0.6,25.9 0.6,16.9 C0.6,7.9 7.9,0.6 16.9,0.6 C25.9,0.6 33.2,7.9 33.2,16.9 C33.1,25.8 25.8,33.2 16.9,33.2 Z M16.9,10.6 C13.4,10.6 10.6,13.4 10.6,16.9 C10.6,20.4 13.4,23.2 16.9,23.2 C20.4,23.2 23.2,20.4 23.2,16.9 C23.2,13.4 20.3,10.6 16.9,10.6 Z"/></g><path id="Path" fill="#383A48" fill-rule="nonzero" d="M191.9,144.9 L181.9,144.9 L181.9,75.9 C181.9,73.1 184.1,70.9 186.9,70.9 L374.8,70.9 L374.8,80.9 L191.9,80.9 L191.9,144.9 Z"/><path id="Shape" fill="#383A48" fill-rule="nonzero" d="M85.2,565.4 L78.8,557.7 C109.9,532 128.5,510.3 134.6,493 C127.9,490.6 121.9,486.8 117.2,481.8 C111.3,475.5 109.3,468.3 111.6,462.1 C113.5,457 118.1,453.4 123.6,452.7 C130.1,452 136.7,455.5 141.1,462.2 C145.7,469.3 147.6,477 146.6,485.6 C148.1,485.8 149.6,485.9 151.1,485.9 C166.9,486.2 193.2,479 229.1,443.1 L236.2,450.2 C197.8,488.6 168.7,496.2 150.9,495.9 C148.7,495.9 146.5,495.7 144.3,495.4 C137.9,514.9 118.2,538.1 85.2,565.4 Z M125.5,462.5 C125.3,462.5 125.1,462.5 124.9,462.5 C123.1,462.7 121.7,463.8 121.1,465.4 C120.1,468 121.4,471.5 124.6,474.9 C127.9,478.4 132,481.2 136.8,483 C137.2,477.3 135.9,472.1 132.9,467.6 C130.7,464.3 128.1,462.5 125.5,462.5 Z"/><g transform="translate(1213.000000, 607.000000)"><rect id="Rectangle" width="10" height="33" x="11.5" y=".7" fill="#383A48" fill-rule="nonzero"/><g transform="translate(0.000000, 12.000000)"><line id="Path" x1="0" x2="33" y1="5.2" y2="5.2"/><rect id="Rectangle" width="33" height="10" x="0" y=".2" fill="#383A48" fill-rule="nonzero"/></g></g><g transform="translate(0.000000, 59.000000)"><rect id="Rectangle" width="10" height="33" x="12" y=".4" fill="#383A48" fill-rule="nonzero"/><g transform="translate(0.000000, 11.000000)"><line id="Path" x1=".5" x2="33.5" y1="5.9" y2="5.9"/><rect id="Rectangle" width="33" height="10" x=".5" y=".9" fill="#383A48" fill-rule="nonzero"/></g></g><g transform="translate(426.000000, 624.000000)"><rect id="Rectangle" width="10" height="33" x="12" y=".2" fill="#383A48" fill-rule="nonzero"/><g transform="translate(0.000000, 11.000000)"><line id="Path" x1=".6" x2="33.5" y1="5.7" y2="5.7"/><rect id="Rectangle" width="33" height="10" x=".6" y=".7" fill="#383A48" fill-rule="nonzero"/></g></g><g id="Rectangle" fill="#F3F6E6" fill-rule="nonzero" transform="translate(617.000000, 36.000000)"><rect width="10" height="37.002" x="13.318" y="27.839" transform="translate(18.318010, 46.339480) rotate(-50.530402) translate(-18.318010, -46.339480)"/><rect width="37.001" height="10" x="129.159" y="15.192" transform="translate(147.658870, 20.192510) rotate(-59.755523) translate(-147.658870, -20.192510)"/><rect width="10" height="34.001" x="75.228" y="1.005" transform="translate(80.228480, 18.005480) rotate(-10.142398) translate(-80.228480, -18.005480)"/></g></g></g></g></svg>