<?xml version="1.0" encoding="utf-8"?>
<!-- Generator: Adobe Illustrator 22.0.1, SVG Export Plug-In . SVG Version: 6.00 Build 0)  -->
<svg version="1.1" id="Layer_1" xmlns="http://www.w3.org/2000/svg" xmlns:xlink="http://www.w3.org/1999/xlink" x="0px" y="0px" viewBox="0 0 1920 1080" style="enable-background:new 0 0 1920 1080;" xml:space="preserve">

<rect y="0" width="1920" height="1080" style="fill:#AAC6FC;"/>
<g>
	<path d="M803.1,191.9H241.9c-2.8,0-5,2.2-5,5v449.7c0,2.8,2.2,5,5,5s5-2.2,5-5c0-56.4,39.4-74.5,94-99.7
		c27.4-12.6,58.4-27,89.6-48.5c38.6-26.7,67.8-65.5,98.8-106.6c30-39.8,61.1-81,103.6-115.6C681.1,237,737,212.7,803.8,202
		c2.6-0.4,4.4-2.7,4.2-5.3C807.9,193.9,805.7,191.9,803.1,191.9z" style="fill:#F3F6E6;"/>
	<path d="M1681.2,192.3c-1.8-0.8-3.9-0.5-5.3,0.8c-78.9,67.8-131.9,134.6-178.7,193.5
		c-46.9,59.2-87.5,110.3-142.6,148.8c-60.1,42.1-132.7,64.7-228.3,71.4c-37.5,2.6-110,2.1-174,1.6c-74.2-0.5-120.1-0.7-129.7,1.9
		C717.4,639.6,681.2,705.7,649.3,764c-33.5,61.2-62.4,114.1-162.4,114.1c-2.8,0-5,2.2-5,5s2.2,5,5,5h1192.3c2.8,0,5-2.2,5-5V196.9
		C1684.2,194.9,1683,193.1,1681.2,192.3z" style="fill:#F3F6E6;"/>
	<g>
		<path d="M1383.5,888.1H427.7c-2.8,0-5-2.2-5-5s2.2-5,5-5h955.8c2.8,0,5,2.2,5,5S1386.2,888.1,1383.5,888.1z" style="fill:#383A48;"/>
	</g>
	<g>
		<circle cx="1498.1" cy="489" r="66.4" style="fill:#383A48;"/>
		<path d="M1498.1,560.3c-18.3,0-36.6-7-50.5-20.9c-27.8-27.8-27.8-73.1,0-100.9c13.5-13.5,31.4-20.9,50.5-20.9
			s37,7.4,50.5,20.9s20.9,31.4,20.9,50.5s-7.4,37-20.9,50.5l0,0l0,0C1534.7,553.4,1516.4,560.3,1498.1,560.3z M1498.1,427.6
			c-16.4,0-31.8,6.4-43.4,18c-23.9,23.9-23.9,62.9,0,86.8c23.9,23.9,62.9,23.9,86.8,0l0,0c11.6-11.6,18-27,18-43.4
			s-6.4-31.8-18-43.4C1529.9,434,1514.5,427.6,1498.1,427.6z" style="fill:#383A48;"/>
	</g>
	<g>
		<circle cx="1566.5" cy="557.3" r="66.4" style="fill:#383A48;"/>
		<path d="M1566.5,628.7c-18.3,0-36.6-7-50.5-20.9c-27.8-27.8-27.8-73.1,0-100.9c27.8-27.8,73.1-27.8,100.9,0
			c27.8,27.8,27.8,73.1,0,100.9C1603,621.7,1584.7,628.7,1566.5,628.7z M1566.5,496c-15.7,0-31.4,6-43.4,17.9
			c-23.9,23.9-23.9,62.9,0,86.8c23.9,23.9,62.9,23.9,86.8,0s23.9-62.9,0-86.8C1597.9,502,1582.2,496,1566.5,496z" style="fill:#383A48;"/>
	</g>
	<g>
		<g>
			<g>
				<path d="M644.1,568.6c-2.8,0-5-2.2-5-5V215.9c0-2.8,2.2-5,5-5s5,2.2,5,5v347.8C649.1,566.4,646.9,568.6,644.1,568.6
					z" style="fill:#383A48;"/>
			</g>
			<g>
				<path d="M687.3,240.2c-0.1,23.9-43.5,90-43.5,90s-43.1-66.3-43-90.2s19.5-43.2,43.4-43.1
					C668,196.9,687.4,216.3,687.3,240.2z" style="fill:#F6E049;"/>
				<path d="M643.8,335.2L643.8,335.2c-1.7,0-3.3-0.9-4.2-2.3c-4.5-6.9-43.9-68.3-43.8-92.9
					c0.1-26.6,21.7-48.1,48.2-48.1h0.1c12.9,0,25,5.1,34.1,14.2c9.1,9.1,14.1,21.3,14.1,34.2c0,10.8-7.6,29.7-22.4,56.4
					c-10.8,19.4-21.8,36.2-21.9,36.4C647.1,334.4,645.5,335.2,643.8,335.2z M644,201.9c-21,0-38.2,17.1-38.2,38.2
					c0,16.5,24.5,59.2,38.1,80.9c13.6-21.6,38.4-64.3,38.4-80.7l0,0c0-10.2-3.9-19.8-11.1-27.1C664,205.9,654.4,201.9,644,201.9
					C644.1,201.9,644.1,201.9,644,201.9z" style="fill:#383A48;"/>
			</g>
			<g>
				<path d="M743.8,341.8c-21.7,10-99.9-1.7-99.9-1.7s42.1-66.9,63.9-76.9c21.8-10,47.4-0.4,57.3,21.3
					C775,306.1,765.5,331.8,743.8,341.8z" style="fill:#F6E049;"/>
				<path d="M712.6,350.8c-7.9,0-17-0.4-27.3-1.2c-22.2-1.7-42-4.6-42.2-4.6c-1.7-0.2-3.1-1.3-3.8-2.9
					c-0.7-1.5-0.6-3.3,0.3-4.7c4.4-7,43.6-68.5,66-78.8c11.7-5.4,24.8-5.9,36.9-1.4c12.1,4.5,21.7,13.4,27.1,25.1
					c11.1,24.2,0.5,52.9-23.7,64l0,0C739.4,349.3,728.2,350.8,712.6,350.8z M652.3,336.2c25.4,3.3,74.4,7.9,89.4,1.1
					c19.2-8.8,27.6-31.6,18.8-50.7c-4.3-9.3-11.9-16.4-21.5-19.9c-9.6-3.6-20-3.2-29.3,1.1C694.8,274.6,666.3,314.8,652.3,336.2z" style="fill:#383A48;"/>
			</g>
			<g>
				<path d="M543.9,341.8c21.7,10,99.9-1.7,99.9-1.7s-42.1-66.9-63.9-76.9c-21.8-10-47.4-0.4-57.3,21.3
					C512.7,306.1,522.2,331.8,543.9,341.8z" style="fill:#F6E049;"/>
				<path d="M575.5,350.8c-13.9,0-26.4-1.2-33.7-4.5c-11.7-5.4-20.6-15-25.1-27.1s-4-25.2,1.4-36.9
					c5.4-11.7,15-20.6,27.1-25.1c12.1-4.5,25.2-4,36.9,1.4c9.8,4.5,23.9,19.2,42,43.8c13.2,17.9,23.9,34.8,24,35
					c0.9,1.4,1,3.2,0.3,4.7s-2.1,2.6-3.8,2.9C639.1,345.8,604.4,350.8,575.5,350.8z M562,264.2c-4.5,0-9,0.8-13.3,2.4
					c-9.6,3.6-17.2,10.6-21.5,19.9s-4.7,19.7-1.1,29.3s10.6,17.2,19.9,21.5c15,6.9,64.1,2.3,89.4-1.1c-14-21.4-42.5-61.6-57.5-68.5
					C572.8,265.4,567.4,264.2,562,264.2z" style="fill:#383A48;"/>
			</g>
			<g>
				<path d="M600.1,429.9c18.7-14.8,43.8-89.9,43.8-89.9s-78.8,7.2-97.5,22.1s-21.9,42-7,60.8
					C554.1,441.6,581.3,444.8,600.1,429.9z" style="fill:#F6E049;"/>
				<path d="M573.3,444.3c-14.2,0-28.4-6.3-37.9-18.3c-16.5-20.9-13-51.3,7.9-67.8c8.4-6.7,28-12.6,58-17.6
					c22-3.6,41.9-5.5,42.1-5.5c1.7-0.2,3.3,0.6,4.4,1.9s1.4,3.1,0.8,4.7c-0.1,0.2-6.4,19.2-15,39.7c-11.7,28.1-22,45.8-30.4,52.5
					C594.3,440.8,583.7,444.3,573.3,444.3z M636.6,345.8c-25.4,2.8-74.2,10-87.1,20.2c-8,6.3-13.1,15.4-14.2,25.6
					c-1.2,10.1,1.7,20.1,8,28.2c13.1,16.5,37.2,19.3,53.7,6.2C609.9,415.8,628,369.9,636.6,345.8z" style="fill:#383A48;"/>
			</g>
			<g>
				<path d="M688,429.9c-18.7-14.8-43.8-89.9-43.8-89.9s78.8,7.2,97.5,22.1s21.9,42,7,60.8
					C734,441.6,706.8,444.8,688,429.9z" style="fill:#F6E049;"/>
				<path d="M714.8,444.3c-10.5,0-21.1-3.4-29.9-10.4c-8.4-6.7-18.7-24.3-30.4-52.5c-8.6-20.5-14.9-39.5-15-39.7
					c-0.5-1.6-0.2-3.4,0.8-4.7c1-1.3,2.7-2,4.4-1.9c0.2,0,20.1,1.9,42.1,5.5c30.1,5,49.6,10.9,58,17.6c10.1,8,16.5,19.5,18,32.3
					s-2.1,25.4-10.1,35.5C743.2,438,729.1,444.3,714.8,444.3z M651.5,345.8c8.5,24.1,26.7,69.9,39.6,80.2
					c16.5,13.1,40.6,10.3,53.7-6.2c6.3-8,9.2-18,8-28.2c-1.2-10.1-6.2-19.2-14.2-25.6C725.7,355.8,677,348.6,651.5,345.8z" style="fill:#383A48;"/>
			</g>
		</g>
		<g>
			<polygon points="835,501.3 453.2,501.3 490.3,883.1 797.9,883.1 			" style="fill:#AAC6FC;"/>
			<path d="M797.9,888.1H490.3c-2.6,0-4.7-2-5-4.5l-37.1-381.8c-0.1-1.4,0.3-2.8,1.3-3.8c0.9-1,2.3-1.6,3.7-1.6H835
				c1.4,0,2.8,0.6,3.7,1.6s1.4,2.4,1.3,3.8l-37.1,381.8C802.6,886.2,800.4,888.1,797.9,888.1z M494.9,878.1h298.4l36.2-371.8H458.7
				L494.9,878.1z" style="fill:#383A48;"/>
		</g>
		<g>
			<g>
				<g>
					<g>
						<circle cx="798.7" cy="818.2" r="5" style="fill:#383A48;"/>
					</g>
				</g>
				<g>
					<g>
						<circle cx="798.7" cy="842.9" r="5" style="fill:#383A48;"/>
					</g>
				</g>
				<g>
					<g>
						<circle cx="798.7" cy="867.5" r="5" style="fill:#383A48;"/>
					</g>
				</g>
				<g>
					<g>
						<circle cx="774" cy="818.2" r="5" style="fill:#383A48;"/>
					</g>
				</g>
				<g>
					<g>
						<circle cx="774" cy="842.9" r="5" style="fill:#383A48;"/>
					</g>
				</g>
				<g>
					<g>
						<circle cx="774" cy="867.5" r="5" style="fill:#383A48;"/>
					</g>
				</g>
				<g>
					<g>
						<circle cx="749.3" cy="818.2" r="5" style="fill:#383A48;"/>
					</g>
				</g>
				<g>
					<g>
						<circle cx="749.3" cy="842.9" r="5" style="fill:#383A48;"/>
					</g>
				</g>
				<g>
					<g>
						<circle cx="749.3" cy="867.5" r="5" style="fill:#383A48;"/>
					</g>
				</g>
				<g>
					<g>
						<circle cx="724.7" cy="818.2" r="5" style="fill:#383A48;"/>
					</g>
				</g>
				<g>
					<g>
						<circle cx="724.7" cy="842.9" r="5" style="fill:#383A48;"/>
					</g>
				</g>
				<g>
					<g>
						<circle cx="724.7" cy="867.5" r="5" style="fill:#383A48;"/>
					</g>
				</g>
				<g>
					<g>
						<circle cx="700" cy="818.2" r="5" style="fill:#383A48;"/>
					</g>
				</g>
				<g>
					<g>
						<circle cx="700" cy="842.9" r="5" style="fill:#383A48;"/>
					</g>
				</g>
				<g>
					<g>
						<circle cx="700" cy="867.5" r="5" style="fill:#383A48;"/>
					</g>
				</g>
				<g>
					<g>
						<circle cx="675.3" cy="818.2" r="5" style="fill:#383A48;"/>
					</g>
				</g>
				<g>
					<g>
						<circle cx="675.3" cy="842.9" r="5" style="fill:#383A48;"/>
					</g>
				</g>
				<g>
					<g>
						<circle cx="675.3" cy="867.5" r="5" style="fill:#383A48;"/>
					</g>
				</g>
				<g>
					<g>
						<circle cx="650.7" cy="818.2" r="5" style="fill:#383A48;"/>
					</g>
				</g>
				<g>
					<g>
						<circle cx="650.7" cy="842.9" r="5" style="fill:#383A48;"/>
					</g>
				</g>
				<g>
					<g>
						<circle cx="650.7" cy="867.5" r="5" style="fill:#383A48;"/>
					</g>
				</g>
				<g>
					<g>
						<circle cx="626" cy="818.2" r="5" style="fill:#383A48;"/>
					</g>
				</g>
				<g>
					<g>
						<circle cx="626" cy="842.9" r="5" style="fill:#383A48;"/>
					</g>
				</g>
				<g>
					<g>
						<circle cx="626" cy="867.5" r="5" style="fill:#383A48;"/>
					</g>
				</g>
				<g>
					<g>
						<circle cx="601.3" cy="818.2" r="5" style="fill:#383A48;"/>
					</g>
				</g>
				<g>
					<g>
						<circle cx="601.3" cy="842.9" r="5" style="fill:#383A48;"/>
					</g>
				</g>
				<g>
					<g>
						<circle cx="601.3" cy="867.5" r="5" style="fill:#383A48;"/>
					</g>
				</g>
				<g>
					<g>
						<circle cx="576.7" cy="818.2" r="5" style="fill:#383A48;"/>
					</g>
				</g>
				<g>
					<g>
						<circle cx="576.7" cy="842.9" r="5" style="fill:#383A48;"/>
					</g>
				</g>
				<g>
					<g>
						<circle cx="576.7" cy="867.5" r="5" style="fill:#383A48;"/>
					</g>
				</g>
				<g>
					<g>
						<circle cx="552" cy="818.2" r="5" style="fill:#383A48;"/>
					</g>
				</g>
				<g>
					<g>
						<circle cx="552" cy="842.9" r="5" style="fill:#383A48;"/>
					</g>
				</g>
				<g>
					<g>
						<circle cx="552" cy="867.5" r="5" style="fill:#383A48;"/>
					</g>
				</g>
				<g>
					<g>
						<circle cx="527.3" cy="645.5" r="5" style="fill:#383A48;"/>
					</g>
				</g>
				<g>
					<g>
						<circle cx="527.3" cy="670.2" r="5" style="fill:#383A48;"/>
					</g>
				</g>
				<g>
					<g>
						<circle cx="527.3" cy="694.9" r="5" style="fill:#383A48;"/>
					</g>
				</g>
				<g>
					<g>
						<circle cx="527.3" cy="719.5" r="5" style="fill:#383A48;"/>
					</g>
				</g>
				<g>
					<g>
						<circle cx="527.3" cy="744.2" r="5" style="fill:#383A48;"/>
					</g>
				</g>
				<g>
					<g>
						<circle cx="527.3" cy="768.9" r="5" style="fill:#383A48;"/>
					</g>
				</g>
				<g>
					<g>
						<circle cx="527.3" cy="793.5" r="5" style="fill:#383A48;"/>
					</g>
				</g>
				<g>
					<g>
						<circle cx="527.3" cy="818.2" r="5" style="fill:#383A48;"/>
					</g>
				</g>
				<g>
					<g>
						<circle cx="527.3" cy="842.9" r="5" style="fill:#383A48;"/>
					</g>
				</g>
				<g>
					<g>
						<circle cx="527.3" cy="867.5" r="5" style="fill:#383A48;"/>
					</g>
				</g>
				<g>
					<g>
						<circle cx="502.7" cy="645.5" r="5" style="fill:#383A48;"/>
					</g>
				</g>
				<g>
					<g>
						<circle cx="502.7" cy="670.2" r="5" style="fill:#383A48;"/>
					</g>
				</g>
				<g>
					<g>
						<circle cx="502.7" cy="694.9" r="5" style="fill:#383A48;"/>
					</g>
				</g>
				<g>
					<g>
						<circle cx="502.7" cy="719.5" r="5" style="fill:#383A48;"/>
					</g>
				</g>
				<g>
					<g>
						<circle cx="502.7" cy="744.2" r="5" style="fill:#383A48;"/>
					</g>
				</g>
				<g>
					<g>
						<circle cx="502.7" cy="768.9" r="5" style="fill:#383A48;"/>
					</g>
				</g>
				<g>
					<g>
						<circle cx="502.7" cy="793.5" r="5" style="fill:#383A48;"/>
					</g>
				</g>
				<g>
					<g>
						<circle cx="502.7" cy="818.2" r="5" style="fill:#383A48;"/>
					</g>
				</g>
				<g>
					<g>
						<circle cx="502.7" cy="842.9" r="5" style="fill:#383A48;"/>
					</g>
				</g>
				<g>
					<g>
						<circle cx="502.7" cy="867.5" r="5" style="fill:#383A48;"/>
					</g>
				</g>
				<g>
					<g>
						<circle cx="478" cy="645.5" r="5" style="fill:#383A48;"/>
					</g>
				</g>
				<g>
					<g>
						<circle cx="478" cy="670.2" r="5" style="fill:#383A48;"/>
					</g>
				</g>
				<g>
					<g>
						<circle cx="478" cy="694.9" r="5" style="fill:#383A48;"/>
					</g>
				</g>
				<g>
					<g>
						<circle cx="478" cy="719.5" r="5" style="fill:#383A48;"/>
					</g>
				</g>
			</g>
		</g>
		<g>
			<polygon points="464.3,615.1 468.2,655.4 820,655.4 823.9,615.1 			" style="fill:#383A48;"/>
			<path d="M820,660.4H468.2c-2.6,0-4.7-2-5-4.5l-3.9-40.2c-0.1-1.4,0.3-2.8,1.3-3.8c0.9-1,2.3-1.6,3.7-1.6H824
				c1.4,0,2.8,0.6,3.7,1.6s1.4,2.4,1.3,3.8l-3.9,40.2C824.7,658.4,822.6,660.4,820,660.4z M472.7,650.4h342.8l2.9-30.2H469.8
				L472.7,650.4z" style="fill:#383A48;"/>
		</g>
		<g>
			<rect x="427.8" y="500.1" width="432.6" height="115" style="fill:#AAC6FC;"/>
			<path d="M860.5,620.1H427.8c-2.8,0-5-2.2-5-5v-115c0-2.8,2.2-5,5-5h432.6c2.8,0,5,2.2,5,5v115
				C865.5,617.9,863.2,620.1,860.5,620.1z M432.8,610.1h422.6v-105H432.8V610.1z" style="fill:#383A48;"/>
		</g>
	</g>
	<g>
		<g>
			<g>
				<path d="M1017.2,660.4c-2.8,0-5-2.2-5-5V391c0-2.8,2.2-5,5-5s5,2.2,5,5v264.4C1022.2,658.1,1020,660.4,1017.2,660.4
					z" style="fill:#383A48;"/>
			</g>
			<g>
				<g>
					<path d="M1057.8,364.1c-0.1,22.2-40.4,83.7-40.4,83.7s-40.1-61.7-40-83.9s18.1-40.2,40.3-40.1
						S1057.8,341.9,1057.8,364.1z" style="fill:#7FD6C2;"/>
				</g>
				<g>
					<path d="M1017.4,452.9C1017.4,452.9,1017.3,452.9,1017.4,452.9c-1.7,0-3.3-0.9-4.2-2.3
						c-4.2-6.4-40.9-63.6-40.9-86.7c0-12.1,4.8-23.4,13.3-32c8.5-8.5,19.9-13.2,31.9-13.2h0.1c12.1,0,23.4,4.8,32,13.3
						c8.5,8.6,13.2,19.9,13.2,32c-0.1,23-37,80.1-41.3,86.5C1020.6,452,1019,452.9,1017.4,452.9z M1017.6,328.8
						c-9.4,0-18.2,3.6-24.9,10.3c-6.7,6.6-10.4,15.5-10.4,24.9c0,15.1,22.4,54.3,35.1,74.6c12.7-20.2,35.4-59.3,35.4-74.5l0,0
						c0-9.4-3.6-18.3-10.3-24.9S1027.1,328.8,1017.6,328.8L1017.6,328.8z" style="fill:#383A48;"/>
				</g>
			</g>
			<g>
				<g>
					<path d="M1110.3,458.6c-20.2,9.3-93-1.6-93-1.6s39.2-62.3,59.4-71.5c20.2-9.3,44.1-0.4,53.4,19.8
						C1139.4,425.5,1130.5,449.4,1110.3,458.6z" style="fill:#7FD6C2;"/>
				</g>
				<g>
					<path d="M1080.9,467.4c-26.9,0-59.1-4.7-64.3-5.4c-1.7-0.2-3.1-1.3-3.8-2.9c-0.7-1.5-0.6-3.3,0.3-4.7
						c4.1-6.5,40.6-63.8,61.6-73.4c11-5,23.3-5.5,34.6-1.3c11.3,4.2,20.3,12.6,25.4,23.5c5,11,5.5,23.3,1.3,34.6
						c-4.2,11.3-12.6,20.3-23.5,25.4C1105.6,466.3,1093.9,467.4,1080.9,467.4z M1025.8,453.2c23.7,3.1,68.7,7.2,82.5,0.9l0,0
						c8.6-3.9,15.1-10.9,18.3-19.8c3.3-8.8,2.9-18.4-1-27s-11-15.1-19.8-18.3c-8.8-3.3-18.4-2.9-27,1
						C1065.1,396.4,1038.9,433.2,1025.8,453.2z" style="fill:#383A48;"/>
				</g>
			</g>
			<g>
				<g>
					<path d="M924.4,458.6c20.2,9.3,93-1.6,93-1.6s-39.2-62.3-59.4-71.5c-20.2-9.3-44.1-0.4-53.4,19.8
						C895.3,425.5,904.2,449.4,924.4,458.6z" style="fill:#7FD6C2;"/>
				</g>
				<g>
					<path d="M953.8,467.4c-13,0-24.7-1.1-31.5-4.2c-22.7-10.4-32.7-37.3-22.2-60c5-11,14.1-19.3,25.4-23.5
						c11.3-4.2,23.6-3.7,34.6,1.3c20.9,9.6,57.5,66.9,61.6,73.4c0.9,1.4,1,3.2,0.3,4.7s-2.1,2.6-3.8,2.9
						C1013,462.8,980.7,467.4,953.8,467.4z M941.2,386.8c-4.1,0-8.3,0.7-12.3,2.2c-8.8,3.3-15.8,9.8-19.8,18.3
						c-8.1,17.7-0.3,38.6,17.3,46.7c13.8,6.3,58.7,2.1,82.5-0.9c-13.1-20-39.3-56.8-53.1-63.1C951.2,387.9,946.2,386.8,941.2,386.8z
						" style="fill:#383A48;"/>
				</g>
			</g>
		</g>
		<g>
			<polygon points="1149,612.6 878.5,612.6 904.8,883.1 1122.7,883.1 			" style="fill:#E0719E;"/>
			<path d="M1122.7,888.1H904.8c-2.6,0-4.7-2-5-4.5l-26.3-270.5c-0.1-1.4,0.3-2.8,1.3-3.8c0.9-1,2.3-1.6,3.7-1.6H1149
				c1.4,0,2.8,0.6,3.7,1.6c0.9,1,1.4,2.4,1.3,3.8l-26.3,270.5C1127.4,886.2,1125.3,888.1,1122.7,888.1z M909.4,878.1h208.8
				l25.3-260.5H884L909.4,878.1z" style="fill:#383A48;"/>
		</g>
		<g>
			<g>
				<g>
					<g>
						<circle cx="1119.3" cy="842.9" r="5" style="fill:#383A48;"/>
					</g>
				</g>
				<g>
					<g>
						<circle cx="1119.3" cy="867.5" r="5" style="fill:#383A48;"/>
					</g>
				</g>
				<g>
					<g>
						<circle cx="1094.7" cy="842.9" r="5" style="fill:#383A48;"/>
					</g>
				</g>
				<g>
					<g>
						<circle cx="1094.7" cy="867.5" r="5" style="fill:#383A48;"/>
					</g>
				</g>
				<g>
					<g>
						<circle cx="1070" cy="842.9" r="5" style="fill:#383A48;"/>
					</g>
				</g>
				<g>
					<g>
						<circle cx="1070" cy="867.5" r="5" style="fill:#383A48;"/>
					</g>
				</g>
				<g>
					<g>
						<circle cx="1045.3" cy="842.9" r="5" style="fill:#383A48;"/>
					</g>
				</g>
				<g>
					<g>
						<circle cx="1045.3" cy="867.5" r="5" style="fill:#383A48;"/>
					</g>
				</g>
				<g>
					<g>
						
							<ellipse transform="matrix(0.1602 -0.9871 0.9871 0.1602 25.1856 1715.4021)" cx="1020.7" cy="842.9" rx="5" ry="5" style="fill:#383A48;"/>
					</g>
				</g>
				<g>
					<g>
						
							<ellipse transform="matrix(0.1602 -0.9871 0.9871 0.1602 0.9033 1736.0615)" cx="1020.7" cy="867.5" rx="5" ry="5" style="fill:#383A48;"/>
					</g>
				</g>
				<g>
					<g>
						<circle cx="996" cy="842.9" r="5" style="fill:#383A48;"/>
					</g>
				</g>
				<g>
					<g>
						<circle cx="996" cy="867.5" r="5" style="fill:#383A48;"/>
					</g>
				</g>
				<g>
					<g>
						<circle cx="971.3" cy="842.9" r="5" style="fill:#383A48;"/>
					</g>
				</g>
				<g>
					<g>
						<circle cx="971.3" cy="867.5" r="5" style="fill:#383A48;"/>
					</g>
				</g>
				<g>
					<g>
						<circle cx="946.7" cy="842.9" r="5" style="fill:#383A48;"/>
					</g>
				</g>
				<g>
					<g>
						<circle cx="946.7" cy="867.5" r="5" style="fill:#383A48;"/>
					</g>
				</g>
				<g>
					<g>
						<circle cx="922" cy="719.5" r="5" style="fill:#383A48;"/>
					</g>
				</g>
				<g>
					<g>
						<circle cx="922" cy="744.2" r="5" style="fill:#383A48;"/>
					</g>
				</g>
				<g>
					<g>
						<circle cx="922" cy="768.9" r="5" style="fill:#383A48;"/>
					</g>
				</g>
				<g>
					<g>
						<circle cx="922" cy="793.5" r="5" style="fill:#383A48;"/>
					</g>
				</g>
				<g>
					<g>
						<circle cx="922" cy="818.2" r="5" style="fill:#383A48;"/>
					</g>
				</g>
				<g>
					<g>
						<circle cx="922" cy="842.9" r="5" style="fill:#383A48;"/>
					</g>
				</g>
				<g>
					<g>
						<circle cx="922" cy="867.5" r="5" style="fill:#383A48;"/>
					</g>
				</g>
				<g>
					<g>
						<circle cx="897.3" cy="719.5" r="5" style="fill:#383A48;"/>
					</g>
				</g>
				<g>
					<g>
						<circle cx="897.3" cy="744.2" r="5" style="fill:#383A48;"/>
					</g>
				</g>
				<g>
					<g>
						<circle cx="897.3" cy="768.9" r="5" style="fill:#383A48;"/>
					</g>
				</g>
				<g>
					<g>
						<circle cx="897.3" cy="793.5" r="5" style="fill:#383A48;"/>
					</g>
				</g>
				<g>
					<g>
						<circle cx="897.3" cy="818.2" r="5" style="fill:#383A48;"/>
					</g>
				</g>
			</g>
		</g>
		<g>
			<polygon points="886.4,693.3 889.1,721.7 1138.4,721.7 1141.2,693.3 			" style="fill:#383A48;"/>
			<path d="M1138.4,726.7H889.1c-2.6,0-4.7-2-5-4.5l-2.8-28.5c-0.1-1.4,0.3-2.8,1.3-3.8c0.9-1,2.3-1.6,3.7-1.6h254.8
				c1.4,0,2.8,0.6,3.7,1.6c0.9,1,1.4,2.4,1.3,3.8l-2.8,28.5C1143.1,724.8,1141,726.7,1138.4,726.7z M893.7,716.7h240.2l1.8-18.5
				H891.9L893.7,716.7z" style="fill:#383A48;"/>
		</g>
		<g>
			<rect x="860.5" y="611.8" width="306.6" height="81.5" style="fill:#E0719E;"/>
			<path d="M1167.1,698.3H860.5c-2.8,0-5-2.2-5-5v-81.5c0-2.8,2.2-5,5-5h306.6c2.8,0,5,2.2,5,5v81.5
				C1172.1,696,1169.8,698.3,1167.1,698.3z M865.5,688.3h296.6v-71.5H865.5V688.3z" style="fill:#383A48;"/>
		</g>
	</g>
	<g>
		<g>
			<g>
				<path d="M1277.9,727.6c-2.8,0-5-2.2-5-5V536.4c0-2.8,2.2-5,5-5s5,2.2,5,5v186.3
					C1282.9,725.4,1280.7,727.6,1277.9,727.6z" style="fill:#383A48;"/>
			</g>
			<g>
				<path d="M1306.5,517.4c0,15.7-28.5,59-28.5,59s-28.3-43.5-28.2-59.1c0-15.7,12.8-28.3,28.4-28.3
					S1306.5,501.8,1306.5,517.4z" style="fill:#AAC6FC;"/>
				<path d="M1278,581.5L1278,581.5c-1.7,0-3.3-0.9-4.2-2.3c-3-4.6-29.1-45.2-29-61.9c0-18.4,15-33.3,33.4-33.3h0.1
					c18.4,0,33.3,15,33.3,33.4c0,16.7-26.3,57.2-29.3,61.7C1281.3,580.6,1279.7,581.5,1278,581.5z M1278.1,494
					c-12.9,0-23.3,10.4-23.4,23.3c0,9,12.9,33,23.2,49.8c10.4-16.7,23.5-40.6,23.5-49.7C1301.5,504.6,1291.1,494.1,1278.1,494
					C1278.2,494,1278.2,494,1278.1,494z" style="fill:#383A48;"/>
			</g>
		</g>
		<g>
			<polygon points="1370.8,692.5 1180.2,692.5 1198.7,883.1 1352.2,883.1 			" style="fill:#F3F6E6;"/>
			<path d="M1352.2,888.1h-153.5c-2.6,0-4.7-2-5-4.5L1175.2,693c-0.1-1.4,0.3-2.8,1.3-3.8c0.9-1,2.3-1.6,3.7-1.6h190.6
				c1.4,0,2.8,0.6,3.7,1.6c0.9,1,1.4,2.4,1.3,3.8l-18.5,190.6C1357,886.2,1354.8,888.1,1352.2,888.1z M1203.2,878.1h144.4
				l17.6-180.6h-179.6L1203.2,878.1z" style="fill:#383A48;"/>
		</g>
		<g>
			<g>
				<g>
					<g>
						<circle cx="1341.3" cy="842.9" r="5" style="fill:#383A48;"/>
					</g>
				</g>
				<g>
					<g>
						<circle cx="1341.3" cy="867.5" r="5" style="fill:#383A48;"/>
					</g>
				</g>
				<g>
					<g>
						<circle cx="1316.7" cy="842.9" r="5" style="fill:#383A48;"/>
					</g>
				</g>
				<g>
					<g>
						<circle cx="1316.7" cy="867.5" r="5" style="fill:#383A48;"/>
					</g>
				</g>
				<g>
					<g>
						<circle cx="1292" cy="842.9" r="5" style="fill:#383A48;"/>
					</g>
				</g>
				<g>
					<g>
						<circle cx="1292" cy="867.5" r="5" style="fill:#383A48;"/>
					</g>
				</g>
				<g>
					<g>
						<circle cx="1267.3" cy="842.9" r="5" style="fill:#383A48;"/>
					</g>
				</g>
				<g>
					<g>
						<circle cx="1267.3" cy="867.5" r="5" style="fill:#383A48;"/>
					</g>
				</g>
				<g>
					<g>
						<circle cx="1242.7" cy="842.9" r="5" style="fill:#383A48;"/>
					</g>
				</g>
				<g>
					<g>
						<circle cx="1242.7" cy="867.5" r="5" style="fill:#383A48;"/>
					</g>
				</g>
				<g>
					<g>
						<circle cx="1218" cy="793.5" r="5" style="fill:#383A48;"/>
					</g>
				</g>
				<g>
					<g>
						<circle cx="1218" cy="818.2" r="5" style="fill:#383A48;"/>
					</g>
				</g>
				<g>
					<g>
						<circle cx="1218" cy="842.9" r="5" style="fill:#383A48;"/>
					</g>
				</g>
				<g>
					<g>
						<circle cx="1218" cy="867.5" r="5" style="fill:#383A48;"/>
					</g>
				</g>
				<g>
					<g>
						<circle cx="1193.3" cy="793.5" r="5" style="fill:#383A48;"/>
					</g>
				</g>
				<g>
					<g>
						<circle cx="1193.3" cy="818.2" r="5" style="fill:#383A48;"/>
					</g>
				</g>
			</g>
		</g>
		<g>
			<polygon points="1185.7,749.3 1187.6,769.4 1363.3,769.4 1365.2,749.3 			" style="fill:#383A48;"/>
			<path d="M1363.3,774.4h-175.6c-2.6,0-4.7-2-5-4.5l-2-20.1c-0.1-1.4,0.3-2.8,1.3-3.8c0.9-1,2.3-1.6,3.7-1.6h179.5
				c1.4,0,2.8,0.6,3.7,1.6c0.9,1,1.4,2.4,1.3,3.8l-2,20.1C1368,772.5,1365.9,774.4,1363.3,774.4z M1192.2,764.4h166.6l1-10.1h-168.5
				L1192.2,764.4z" style="fill:#383A48;"/>
		</g>
		<g>
			<rect x="1167.4" y="691.9" width="216" height="57.4" style="fill:#F3F6E6;"/>
			<path d="M1383.5,754.3h-216c-2.8,0-5-2.2-5-5v-57.4c0-2.8,2.2-5,5-5h216c2.8,0,5,2.2,5,5v57.4
				C1388.5,752.1,1386.2,754.3,1383.5,754.3z M1172.4,744.3h206v-47.4h-206V744.3z" style="fill:#383A48;"/>
		</g>
	</g>
	<g>
		<g>
			<circle cx="1373.3" cy="313.2" r="66.4" style="fill:#F6E049;"/>
			<path d="M1373.3,384.5c-18.3,0-36.6-7-50.5-20.9c-13.5-13.5-20.9-31.4-20.9-50.5s7.4-37,20.9-50.5
				c27.8-27.8,73.1-27.8,100.9,0c13.5,13.5,20.9,31.4,20.9,50.5s-7.4,37-20.9,50.5l0,0l0,0C1409.9,377.6,1391.6,384.5,1373.3,384.5z
				 M1373.3,251.8c-15.7,0-31.4,6-43.4,17.9c-11.6,11.6-18,27-18,43.4s6.4,31.8,18,43.4c23.9,23.9,62.9,23.9,86.8,0l0,0
				c11.6-11.6,18-27,18-43.4s-6.4-31.8-18-43.4C1404.7,257.8,1389,251.8,1373.3,251.8z" style="fill:#383A48;"/>
		</g>
		<g>
			<g>
				<g>
					<g>
						<circle cx="1410.8" cy="276.2" r="5" style="fill:#383A48;"/>
					</g>
				</g>
				<g>
					<g>
						<circle cx="1410.8" cy="300.8" r="5" style="fill:#383A48;"/>
					</g>
				</g>
				<g>
					<g>
						<circle cx="1410.8" cy="325.5" r="5" style="fill:#383A48;"/>
					</g>
				</g>
				<g>
					<g>
						<circle cx="1410.8" cy="350.2" r="5" style="fill:#383A48;"/>
					</g>
				</g>
				<g>
					<g>
						<circle cx="1386.1" cy="276.2" r="5" style="fill:#383A48;"/>
					</g>
				</g>
				<g>
					<g>
						<circle cx="1386.1" cy="300.8" r="5" style="fill:#383A48;"/>
					</g>
				</g>
				<g>
					<g>
						<circle cx="1386.1" cy="325.5" r="5" style="fill:#383A48;"/>
					</g>
				</g>
				<g>
					<g>
						<circle cx="1386.1" cy="350.2" r="5" style="fill:#383A48;"/>
					</g>
				</g>
				<g>
					<g>
						<circle cx="1361.4" cy="276.2" r="5" style="fill:#383A48;"/>
					</g>
				</g>
				<g>
					<g>
						<circle cx="1361.4" cy="300.8" r="5" style="fill:#383A48;"/>
					</g>
				</g>
				<g>
					<g>
						<circle cx="1361.4" cy="325.5" r="5" style="fill:#383A48;"/>
					</g>
				</g>
				<g>
					<g>
						<circle cx="1361.4" cy="350.2" r="5" style="fill:#383A48;"/>
					</g>
				</g>
				<g>
					<g>
						<circle cx="1336.8" cy="276.2" r="5" style="fill:#383A48;"/>
					</g>
				</g>
				<g>
					<g>
						<circle cx="1336.8" cy="300.8" r="5" style="fill:#383A48;"/>
					</g>
				</g>
				<g>
					<g>
						<circle cx="1336.8" cy="325.5" r="5" style="fill:#383A48;"/>
					</g>
				</g>
				<g>
					<g>
						<circle cx="1336.8" cy="350.2" r="5" style="fill:#383A48;"/>
					</g>
				</g>
			</g>
		</g>
	</g>
	<g>
		<g>
			<circle cx="1441.6" cy="381.5" r="66.4" style="fill:#F6E049;"/>
			<path d="M1441.6,452.9c-19.1,0-37-7.4-50.5-20.9c-27.8-27.8-27.8-73.1,0-100.9s73.1-27.8,100.9,0s27.8,73.1,0,100.9
				l0,0l0,0C1478.6,445.5,1460.7,452.9,1441.6,452.9z M1441.6,320.2c-15.7,0-31.4,6-43.4,17.9c-23.9,23.9-23.9,62.9,0,86.8
				c11.6,11.6,27,18,43.4,18s31.8-6.4,43.4-18l0,0c23.9-23.9,23.9-62.9,0-86.8C1473.1,326.2,1457.4,320.2,1441.6,320.2z" style="fill:#383A48;"/>
		</g>
		<g>
			<g>
				<g>
					<g>
						<circle cx="1465.6" cy="359.5" r="5" style="fill:#383A48;"/>
					</g>
				</g>
				<g>
					<g>
						<circle cx="1465.6" cy="403.5" r="5" style="fill:#383A48;"/>
					</g>
				</g>
				<g>
					<g>
						<circle cx="1421.6" cy="359.5" r="5" style="fill:#383A48;"/>
					</g>
				</g>
				<g>
					<g>
						<circle cx="1421.6" cy="403.5" r="5" style="fill:#383A48;"/>
					</g>
				</g>
			</g>
		</g>
	</g>
	<g>
		<g>
			<circle cx="1510" cy="449.9" r="66.4" style="fill:#F6E049;"/>
			<path d="M1510,521.2c-18.3,0-36.6-7-50.5-20.9c-27.8-27.8-27.8-73.1,0-100.9s73.1-27.8,100.9,0s27.8,73.1,0,100.9
				C1546.5,514.2,1528.2,521.2,1510,521.2z M1510,388.5c-15.7,0-31.4,6-43.4,17.9c-23.9,23.9-23.9,62.9,0,86.8
				c23.9,23.9,62.9,23.9,86.8,0c23.9-23.9,23.9-62.9,0-86.8C1541.4,394.5,1525.7,388.5,1510,388.5z" style="fill:#383A48;"/>
		</g>
		<g>
			<g>
				<g>
					<circle cx="1540.2" cy="425.1" r="5" style="fill:#383A48;"/>
				</g>
			</g>
			<g>
				<g>
					<circle cx="1540.2" cy="476.6" r="5" style="fill:#383A48;"/>
				</g>
			</g>
			<g>
				<g>
					<circle cx="1488.7" cy="425.1" r="5" style="fill:#383A48;"/>
				</g>
			</g>
			<g>
				<g>
					<circle cx="1488.7" cy="476.6" r="5" style="fill:#383A48;"/>
				</g>
			</g>
		</g>
	</g>
	<g>
		<circle cx="1578.3" cy="518.2" r="66.4" style="fill:#F6E049;"/>
		<path d="M1578.3,589.6c-19.1,0-37-7.4-50.5-20.9c-27.8-27.8-27.8-73.1,0-100.9s73.1-27.8,100.9,0s27.8,73.1,0,100.9
			l0,0l0,0C1615.3,582.1,1597.4,589.6,1578.3,589.6z M1578.3,456.8c-15.7,0-31.4,6-43.4,17.9c-23.9,23.9-23.9,62.9,0,86.8
			c11.6,11.6,27,18,43.4,18s31.8-6.4,43.4-18l0,0c23.9-23.9,23.9-62.9,0-86.8C1609.7,462.8,1594,456.8,1578.3,456.8z" style="fill:#383A48;"/>
	</g>
	<g>
		<line x1="1498.1" y1="196.9" x2="1624.7" y2="323.4" style="fill:none;"/>
		<path d="M1624.7,328.4c-1.3,0-2.6-0.5-3.5-1.5l-126.5-126.5c-2-2-2-5.1,0-7.1s5.1-2,7.1,0l126.5,126.5
			c2,2,2,5.1,0,7.1C1627.2,327.9,1625.9,328.4,1624.7,328.4z" style="fill:#383A48;"/>
	</g>
	<g>
		<path d="M968.8,251.8c-7.3,0-14.6-2.8-20.2-8.3l-12.3-12.3c-7.2-7.2-19-7.2-26.2,0l-13.5,13.5c-2,2-5.1,2-7.1,0
			s-2-5.1,0-7.1l13.5-13.5c11.1-11.1,29.2-11.1,40.4,0l12.3,12.3c7.2,7.2,19,7.2,26.2,0l12.3-12.3c11.1-11.1,29.2-11.1,40.4,0
			l12.3,12.3c3.5,3.5,8.2,5.4,13.1,5.4l0,0c5,0,9.6-1.9,13.1-5.4l12.3-12.3c5.4-5.4,12.5-8.4,20.2-8.4l0,0c7.6,0,14.8,3,20.2,8.3
			l12.4,12.3c2,2,2,5.1,0,7.1s-5.1,2-7.1,0l-12.4-12.3c-3.5-3.5-8.2-5.4-13.1-5.4l0,0c-5,0-9.6,1.9-13.1,5.4l-12.3,12.3
			c-5.4,5.4-12.5,8.4-20.2,8.4l0,0c-7.6,0-14.8-3-20.2-8.3l-12.3-12.3c-7.2-7.2-19-7.2-26.2,0L989,243.4
			C983.4,249,976.1,251.8,968.8,251.8z" style="fill:#383A48;"/>
	</g>
	<g>
		<polygon points="240.8,636.2 240.8,883.1 487.8,883.1 		" style="fill:#F6E049;"/>
		<path d="M487.8,888.1h-247c-2.8,0-5-2.2-5-5v-247c0-2,1.2-3.8,3.1-4.6c1.9-0.8,4-0.3,5.4,1.1l247,247
			c1.4,1.4,1.9,3.6,1.1,5.4C491.7,886.9,489.8,888.1,487.8,888.1z M245.8,878.1h229.9L245.8,648.2V878.1z" style="fill:#383A48;"/>
	</g>
	<path d="M358.3,191.9H241.9c-2.8,0-5,2.2-5,5v116.3c0,2.8,2.2,5,5,5c66.9,0,121.3-54.4,121.3-121.3
		C363.3,194.1,361,191.9,358.3,191.9z" style="fill:#E0719E;"/>
	<g>
		<path d="M931,322.2c-1.7,0-3.3-0.8-4.3-2.4l-12-19.4c-1.4-2.4-0.7-5.4,1.6-6.9c2.4-1.4,5.4-0.7,6.9,1.6l12,19.4
			c1.4,2.4,0.7,5.4-1.6,6.9C932.8,322,931.9,322.2,931,322.2z" style="fill:#F3F6E6;"/>
	</g>
	<g>
		<path d="M869.9,389.5c-0.7,0-1.5-0.2-2.2-0.5l-20.5-10.1c-2.5-1.2-3.5-4.2-2.3-6.7s4.2-3.5,6.7-2.3l20.5,10.1
			c2.5,1.2,3.5,4.2,2.3,6.7C873.5,388.5,871.8,389.5,869.9,389.5z" style="fill:#F3F6E6;"/>
	</g>
	<g>
		<path d="M1103.7,322.2c-0.9,0-1.8-0.2-2.6-0.7c-2.4-1.4-3.1-4.5-1.6-6.9l12-19.4c1.5-2.4,4.5-3.1,6.9-1.6
			c2.4,1.4,3.1,4.5,1.6,6.9l-12,19.4C1107,321.4,1105.4,322.2,1103.7,322.2z" style="fill:#F3F6E6;"/>
	</g>
	<g>
		<path d="M1164.8,389.5c-1.8,0-3.6-1-4.5-2.8c-1.2-2.5-0.2-5.5,2.3-6.7l20.5-10.1c2.5-1.2,5.5-0.2,6.7,2.3
			s0.2,5.5-2.3,6.7L1167,389C1166.3,389.3,1165.5,389.5,1164.8,389.5z" style="fill:#F3F6E6;"/>
	</g>
	<g>
		<g>
			<line x1="1491.5" y1="729.5" x2="1524.5" y2="729.5" style="fill:none;"/>
			<rect x="1491.5" y="724.5" width="33" height="10" style="fill:#383A48;"/>
		</g>
		<g>
			<line x1="1508" y1="745.9" x2="1508" y2="713" style="fill:none;"/>
			<rect x="1503" y="713" width="10" height="33" style="fill:#383A48;"/>
		</g>
	</g>
	<g>
		<g>
			<line x1="358.3" y1="363.1" x2="391.2" y2="363.1" style="fill:none;"/>
			<rect x="358.3" y="358.1" width="33" height="10" style="fill:#383A48;"/>
		</g>
		<g>
			<line x1="374.7" y1="379.6" x2="374.7" y2="346.6" style="fill:none;"/>
			<rect x="369.7" y="346.6" width="10" height="33" style="fill:#383A48;"/>
		</g>
	</g>
	<g>
		<g>
			<line x1="358.3" y1="663" x2="391.2" y2="663" style="fill:none;"/>
			<rect x="358.3" y="658" width="33" height="10" style="fill:#383A48;"/>
		</g>
		<g>
			<line x1="374.7" y1="679.5" x2="374.7" y2="646.5" style="fill:none;"/>
			<rect x="369.7" y="646.5" width="10" height="33" style="fill:#383A48;"/>
		</g>
	</g>
</g>
</svg>
