<svg xmlns="http://www.w3.org/2000/svg" xmlns:xlink="http://www.w3.org/1999/xlink" width="1408" height="746" version="1.1" viewBox="0 0 1408 746"><title>abstract-logged-out</title><desc>Created with Sketch.</desc><g id="Page-1" fill="none" fill-rule="evenodd" stroke="none" stroke-width="1"><g id="abstract-logged-out" fill-rule="nonzero" transform="translate(-256.000000, -167.000000)"><g id="Group" transform="translate(256.000000, 167.000000)"><path id="Path" fill="#F3F6E6" d="M432.5,5.2 C432.1,2.7 430,0.9 427.6,0.9 L5.6,0.9 C2.8,0.9 0.6,3.1 0.6,5.9 L0.6,512.1 C0.6,514.6 2.4,516.7 4.9,517.1 C5.1,517.1 5.4,517.1 5.6,517.1 C7.8,517.1 9.8,515.6 10.4,513.5 C10.5,513 24,465.7 53.6,411.4 C70.9,379.6 90.3,351.7 111.1,328.4 C137,299.4 165.4,277.6 195.3,263.6 C258.5,233.9 276.9,187.8 294.7,143.2 C305,117.5 315.6,90.8 334.9,67.8 C367.1,29.5 367.1,29.5 428.9,10.7 C431.4,10 432.9,7.6 432.5,5.2 Z"/><path id="Shape" fill="#F3F6E6" d="M1371,187.1 L966.7,187.1 L697.1,187.1 L292.8,187.1 C290,187.1 287.8,189.3 287.8,192.1 L287.8,735.1 C287.8,737.9 290,740.1 292.8,740.1 L327.5,740.1 L697.1,740.1 L731.8,740.1 L932,740.1 L966.7,740.1 L1336.3,740.1 L1371,740.1 C1373.8,740.1 1376,737.9 1376,735.1 L1376,192.1 C1376,189.4 1373.8,187.1 1371,187.1 Z M1096.5,197.1 L1096.5,325.7 L971.7,325.7 L971.7,197.1 L1096.5,197.1 Z M1366,460.5 L1241.2,460.5 L1241.2,335.8 L1336.3,335.8 L1366,335.8 L1366,460.5 L1366,460.5 Z M1366,595.3 L1241.2,595.3 L1241.2,470.5 L1366,470.5 L1366,595.3 Z M1096.5,460.5 L971.7,460.5 L971.7,335.8 L1096.5,335.8 L1096.5,460.5 Z M971.7,470.5 L1096.5,470.5 L1096.5,595.3 L971.7,595.3 L971.7,470.5 Z M692.1,470.5 L692.1,595.3 L567.4,595.3 L567.4,470.5 L692.1,470.5 Z M692.1,460.5 L567.4,460.5 L567.4,335.8 L692.2,335.8 L692.2,460.5 L692.1,460.5 Z M702.1,470.5 L826.9,470.5 L826.9,595.3 L702.1,595.3 L702.1,470.5 Z M836.9,470.5 L961.7,470.5 L961.7,595.3 L836.9,595.3 L836.9,470.5 Z M1231.3,460.5 L1106.5,460.5 L1106.5,335.8 L1231.3,335.8 L1231.3,460.5 Z M961.7,460.5 L836.9,460.5 L836.9,335.8 L932,335.8 L961.7,335.8 L961.7,460.5 L961.7,460.5 Z M826.9,460.5 L702.1,460.5 L702.1,335.8 L731.8,335.8 L826.9,335.8 L826.9,460.5 Z M557.4,335.8 L557.4,460.6 L432.6,460.6 L432.6,335.8 L557.4,335.8 Z M432.6,470.5 L557.4,470.5 L557.4,595.3 L432.6,595.3 L432.6,470.5 Z M557.4,605.3 L557.4,730.1 L432.6,730.1 L432.6,605.3 L557.4,605.3 Z M567.4,605.3 L692.2,605.3 L692.2,730.1 L567.4,730.1 L567.4,605.3 Z M971.7,605.3 L1096.5,605.3 L1096.5,730.1 L971.7,730.1 L971.7,605.3 Z M1106.5,605.3 L1231.3,605.3 L1231.3,730.1 L1106.5,730.1 L1106.5,605.3 Z M1106.5,595.3 L1106.5,470.5 L1231.3,470.5 L1231.3,595.3 L1106.5,595.3 Z M1231.3,325.8 L1106.5,325.8 L1106.5,197.1 L1231.3,197.1 L1231.3,325.8 Z M826.9,325.8 L731.8,325.8 L702.1,325.8 L702.1,197.1 L826.9,197.1 L826.9,325.8 Z M692.1,325.8 L567.4,325.8 L567.4,197.1 L692.2,197.1 L692.2,325.8 L692.1,325.8 Z M557.4,325.8 L432.6,325.8 L432.6,197.1 L557.4,197.1 L557.4,325.8 L557.4,325.8 Z M327.5,335.8 L422.6,335.8 L422.6,460.6 L297.8,460.6 L297.8,335.8 L327.5,335.8 Z M422.6,470.5 L422.6,595.3 L297.8,595.3 L297.8,470.5 L422.6,470.5 Z M702.1,605.3 L826.9,605.3 L826.9,730.1 L731.8,730.1 L702.1,730.1 L702.1,605.3 L702.1,605.3 Z M836.9,605.3 L961.7,605.3 L961.7,730.1 L932,730.1 L836.9,730.1 L836.9,605.3 Z M1366,325.8 L1336.3,325.8 L1241.2,325.8 L1241.2,197.1 L1366,197.1 L1366,325.8 Z M961.7,325.8 L932,325.8 L836.9,325.8 L836.9,197.1 L961.7,197.1 L961.7,325.8 L961.7,325.8 Z M422.6,197.1 L422.6,325.7 L327.5,325.7 L297.8,325.7 L297.8,197.1 L422.6,197.1 Z M297.8,730.1 L297.8,605.3 L422.6,605.3 L422.6,730.1 L327.5,730.1 L297.8,730.1 L297.8,730.1 Z M1336.3,730.1 L1241.2,730.1 L1241.2,605.3 L1366,605.3 L1366,730.1 L1336.3,730.1 L1336.3,730.1 Z"/><path id="Path" fill="#F6E049" d="M762.1,66.9 C753.7,66.9 745.4,63.7 739,57.3 L724.5,42.9 C715.6,34 701.2,34.1 692.4,42.9 L676.5,58.8 C674.5,60.8 671.4,60.8 669.4,58.8 C667.4,56.8 667.4,53.7 669.4,51.7 L685.3,35.8 C698.1,23 718.8,23 731.6,35.8 L746.1,50.2 C755,59.1 769.4,59 778.2,50.2 L792.6,35.7 C805.4,22.9 826.1,22.9 838.9,35.7 L853.4,50.1 C857.7,54.4 863.4,56.7 869.5,56.7 L869.5,56.7 C875.6,56.7 881.3,54.3 885.6,50 L900,35.5 C906.2,29.3 914.4,25.9 923.1,25.9 L923.1,25.9 C931.8,25.9 940,29.3 946.2,35.5 L960.8,50 C962.8,52 962.8,55.1 960.8,57.1 C958.8,59.1 955.7,59.1 953.7,57.1 L939.1,42.6 C934.8,38.3 929.1,36 923,36 L923,36 C916.9,36 911.2,38.4 906.9,42.7 L892.5,57.2 C886.3,63.4 878.1,66.8 869.4,66.8 L869.4,66.8 C860.7,66.8 852.5,63.4 846.3,57.2 L831.8,42.8 C822.9,33.9 808.5,34 799.7,42.8 L785.3,57.3 C778.8,63.7 770.4,66.9 762.1,66.9 Z"/><path id="Path" fill="#383A48" d="M587.6,298 C544.9,255.3 488,231.7 427.6,231.7 C377.4,231.7 329.8,247.8 290.1,278.3 C288.9,279.2 288.1,280.7 288.1,282.3 L288.1,633.7 C288.1,635.3 288.8,636.7 290.1,637.7 C329.9,668.2 377.4,684.3 427.6,684.3 C488,684.3 544.9,660.8 587.6,618 C630.3,575.3 653.9,518.5 653.9,458 C653.8,397.6 630.3,340.8 587.6,298 Z"/><g transform="translate(97.000000, 84.000000)"><g><path id="Path" fill="#AAC6FC" d="M464.1,464.2 L464.1,464.2 C377.8,550.5 237.9,550.5 151.6,464.2 L69.7,382.3 C-16.6,296 -16.6,156.1 69.7,69.8 L69.7,69.8 C156,-16.5 295.9,-16.5 382.2,69.8 L464.1,151.7 C550.4,238 550.4,377.9 464.1,464.2 Z"/><path id="Shape" fill="#383A48" d="M307.9,533.9 C247.5,533.9 190.8,510.4 148.1,467.7 L66.2,385.8 C23.5,343.1 0,286.4 0,226 C0,165.6 23.5,108.9 66.2,66.2 C108.9,23.5 165.6,0 226,0 C286.4,0 343.1,23.5 385.8,66.2 L467.7,148.1 C510.4,190.8 533.9,247.5 533.9,307.9 C533.9,368.3 510.4,425 467.7,467.7 C425,510.4 368.2,533.9 307.9,533.9 Z M226,10.1 C168.3,10.1 114.1,32.6 73.3,73.4 C32.5,114.2 10,168.4 10,226.1 C10,283.8 32.5,338 73.3,378.8 L155.2,460.7 C196,501.5 250.2,524 307.9,524 C365.6,524 419.8,501.5 460.6,460.7 L460.6,460.7 C501.4,419.9 523.9,365.7 523.9,308 C523.9,250.3 501.4,196.1 460.6,155.3 L378.7,73.4 C337.9,32.6 283.7,10.1 226,10.1 Z"/></g><g id="Oval" fill="#383A48" transform="translate(172.000000, 140.000000)"><circle cx="313.6" cy="47.1" r="5"/><circle cx="313.6" cy="91.1" r="5"/><circle cx="313.6" cy="135.1" r="5"/><circle cx="313.6" cy="179.1" r="5"/><circle cx="313.6" cy="223.1" r="5"/><circle cx="313.6" cy="267.1" r="5"/><circle cx="272.6" cy="5.1" r="5"/><circle cx="269.6" cy="47.1" r="5"/><circle cx="269.6" cy="91.1" r="5"/><circle cx="269.6" cy="135.1" r="5"/><circle cx="269.6" cy="179.1" r="5"/><circle cx="269.6" cy="223.1" r="5"/><circle cx="269.6" cy="267.1" r="5"/><circle cx="269.6" cy="311.1" r="5"/><circle cx="225.6" cy="223.1" r="5"/><circle cx="225.6" cy="267.1" r="5"/><circle cx="225.6" cy="311.1" r="5"/><circle cx="225.6" cy="355.1" r="5"/><circle cx="181.6" cy="267.1" r="5"/><circle cx="181.6" cy="311.1" r="5"/><circle cx="181.6" cy="355.1" r="5"/><circle cx="137.6" cy="311.1" r="5"/><circle cx="137.6" cy="355.1" r="5"/><circle cx="93.6" cy="311.1" r="5"/><circle cx="93.6" cy="355.1" r="5"/><circle cx="49.6" cy="311.1" r="5"/><circle cx="49.6" cy="355.1" r="5"/><circle cx="5.6" cy="311.1" r="5"/></g></g><g transform="translate(101.000000, 81.000000)"><g><circle id="Oval" cx="226.5" cy="227.1" r="221.3" fill="#E0719E"/><path id="Shape" fill="#383A48" d="M226.5,453.4 C166.1,453.4 109.2,429.9 66.5,387.1 C23.8,344.4 0.2,287.5 0.2,227.1 C0.2,166.7 23.7,109.8 66.5,67.1 C109.3,24.4 166.1,0.8 226.5,0.8 C286.9,0.8 343.8,24.3 386.5,67.1 C429.2,109.9 452.8,166.7 452.8,227.1 C452.8,287.5 429.3,344.4 386.5,387.1 C343.7,429.8 286.9,453.4 226.5,453.4 Z M226.5,10.9 C168.7,10.9 114.4,33.4 73.6,74.2 C32.8,115 10.3,169.4 10.3,227.1 C10.3,284.8 32.8,339.2 73.6,380 C114.4,420.8 168.8,443.3 226.5,443.3 C284.2,443.3 338.6,420.8 379.4,380 C420.2,339.2 442.7,284.8 442.7,227.1 C442.7,169.4 420.3,115 379.4,74.2 C338.6,33.3 284.3,10.9 226.5,10.9 Z"/></g><g id="Path"><path fill="#E0719E" d="M198.5,5.1 C245.6,28 277,77.5 274.1,133.1 C270.2,207.3 207,264.3 132.8,260.4 C58.6,256.5 1.6,193.3 5.5,119.1 C8.1,68.5 38.4,25.9 81,5.1" transform="translate(87.000000, 101.000000)"/><path fill="#383A48" d="M139.9,265.6 C137.4,265.6 134.9,265.5 132.5,265.4 C95.3,263.5 61.1,247.1 36.1,219.5 C11.1,191.9 -1.5,156.1 0.4,118.9 C3,68.2 33,22.9 78.7,0.7 L83.1,9.7 C40.7,30.4 12.9,72.4 10.4,119.4 C8.6,153.9 20.4,187.1 43.5,212.8 C66.6,238.5 98.4,253.6 133,255.5 C167.5,257.3 200.7,245.5 226.4,222.4 C252.1,199.2 267.2,167.5 269.1,132.9 C271.8,80.8 243.3,32.4 196.3,9.6 L200.7,0.6 C251.2,25.2 282,77.3 279.1,133.4 C277.2,170.6 260.8,204.8 233.2,229.8 C207.3,253 174.5,265.6 139.9,265.6 Z" transform="translate(87.000000, 101.000000)"/></g><rect id="Rectangle" width="10" height="171" x="221.8" y="56.2" fill="#383A48"/></g><path id="Path" fill="#F3F6E6" d="M1372.6,0.9 C1237.1,0.9 1215.3,87.2 1196,163.3 C1193.2,174.2 1190.6,184.5 1187.7,194.6 C1164.3,275.6 1126.7,314.5 1032.9,354.5 C978.4,377.8 911.9,425.8 855,483.1 C804,534.4 734.5,619.5 692.4,733.4 C691.8,734.9 692.1,736.6 693,738 C693.9,739.3 695.5,740.1 697.1,740.1 L1372.5,740.1 C1375.3,740.1 1377.50314,737.9 1377.50314,735.1 L1377.50314,5.9 C1377.6,3.1 1375.3,0.9 1372.6,0.9 Z"/><g transform="translate(1109.000000, 273.000000)"><polygon id="Path" fill="#F3F6E6" points="293.4 173.9 5.4 5 97.6 325.8 150.3 250.4 234.9 361.2 287.2 320.6 203 210.2"/><path id="Shape" fill="#383A48" d="M234.9,366.2 C234.7,366.2 234.5,366.2 234.3,366.2 C233,366 231.8,365.3 231,364.3 L150.6,258.9 L101.8,328.8 C100.7,330.4 98.8,331.2 96.9,330.9 C95,330.6 93.4,329.2 92.9,327.3 L0.7,6.5 C0.1,4.5 0.8,2.4 2.4,1.2 C4,-0.1 6.2,-0.2 8,0.8 L295.9,169.7 C297.5,170.7 298.5,172.5 298.4,174.4 C298.3,176.3 297,178 295.3,178.7 L211,212.6 L291.2,317.7 C292.9,319.9 292.5,323 290.3,324.7 L238,365.3 C237.1,365.8 236,366.2 234.9,366.2 Z M150.3,245.4 C151.9,245.4 153.3,246.1 154.3,247.4 L235.8,354.2 L280.2,319.7 L199,213.3 C198.1,212.1 197.7,210.4 198.2,208.9 C198.6,207.4 199.7,206.2 201.2,205.6 L282.1,173.1 L13.8,15.7 L99.6,314.4 L146.3,247.5 C147.2,246.2 148.7,245.4 150.3,245.4 L150.3,245.4 Z"/></g><g transform="translate(0.000000, 578.000000)"><polygon id="Path" fill="#F6E049" points="159.1 162.1 5.6 162.1 5.6 5.6"/><path id="Shape" fill="#383A48" d="M159.1,167.1 L5.6,167.1 C2.8,167.1 0.6,164.9 0.6,162.1 L0.6,5.6 C0.6,3.6 1.8,1.7 3.7,1 C5.6,0.2 7.7,0.7 9.2,2.1 L162.6,158.6 C164,160 164.4,162.2 163.6,164 C162.9,165.9 161.1,167.1 159.1,167.1 Z M10.6,157.1 L147.1,157.1 L10.6,17.8 L10.6,157.1 Z"/></g><path id="Shape" fill="#383A48" d="M960.8,528.4 C927.5,528.4 895.2,519.5 867.9,502.4 C841.1,485.6 820.8,462.3 809.3,435 C804.7,424.1 801.7,412.9 800.1,401.5 C781.1,411.3 761.1,415.5 743.3,413.3 C715.6,410 680.1,390.3 667.9,315.6 L677.8,314 C686.6,368.3 709.7,399.2 744.5,403.4 C758.8,405.1 780.4,400.4 799.1,390.6 C798.4,375.3 800.4,359.8 805.1,344.6 C808.6,333.2 816.1,325.4 825.1,323.7 C831.9,322.4 838.5,324.8 842.8,330.1 C848.7,337.3 849.1,348.4 844,360.5 C838.9,372.5 825.9,385.9 809.6,396.2 C810.8,408.2 813.7,419.9 818.5,431.2 C829.2,456.6 848.1,478.3 873.2,494 C904.8,513.7 943.6,521.9 982.7,517.1 C1027.4,511.6 1071.7,489.2 1110.9,452.5 L1117.7,459.8 C1077,498 1030.7,521.2 983.9,527 C976.3,527.9 968.5,528.4 960.8,528.4 Z M828.8,333.4 C828.2,333.4 827.6,333.5 827.1,333.6 C821.8,334.6 817.2,339.9 814.8,347.7 C811,360.1 809.1,372.6 809.1,385 C820.6,377.5 830.1,367.9 834.8,356.7 C838.4,348.2 838.5,340.7 835.1,336.5 C833.5,334.4 831.3,333.4 828.8,333.4 Z"/><circle id="Oval" cx="580.287" cy="46.599" r="22.801" fill="#F3F6E6" transform="translate(580.287380, 46.599140) rotate(-67.499572) translate(-580.287380, -46.599140)"/><path id="Path" fill="#383A48" d="M998.4,604.2 C985.8,604.2 975.6,614.4 975.6,627 C975.6,639.6 985.8,649.8 998.4,649.8 C1011,649.8 1021.2,639.6 1021.2,627 C1021.2,614.4 1011,604.2 998.4,604.2 Z"/><g transform="translate(1187.000000, 0.000000)"><polygon id="Path" fill="#F6E049" points="5.5 186 5.5 5.9 185.6 5.9"/><path id="Shape" fill="#383A48" d="M5.5,191 C4.9,191 4.2,190.9 3.6,190.6 C1.7,189.8 0.5,188 0.5,186 L0.5,5.9 C0.5,3.1 2.7,0.9 5.5,0.9 L185.6,0.9 C187.6,0.9 189.4,2.1 190.2,4 C191,5.9 190.5,8 189.1,9.4 L9,189.5 C8.1,190.5 6.8,191 5.5,191 Z M10.5,10.9 L10.5,173.9 L173.5,10.9 L10.5,10.9 Z"/></g></g></g></g></svg>