<?xml version="1.0" encoding="utf-8"?>
<!-- Generator: Adobe Illustrator 22.0.1, SVG Export Plug-In . SVG Version: 6.00 Build 0)  -->
<svg version="1.1" id="Layer_1" xmlns="http://www.w3.org/2000/svg" xmlns:xlink="http://www.w3.org/1999/xlink" x="0px" y="0px" viewBox="0 0 1920 1080" style="enable-background:new 0 0 1920 1080;" xml:space="preserve">

<rect y="0" width="1920" height="1080" style="fill:#AAC6FC;"/>
<g>
	<g>
		<polygon points="1346.2,890 1070.2,890 1350.2,607.7 1445,671.7 		" style="fill:#F3F6E6;"/>
		<path d="M1346.2,895h-276c-2,0-3.8-1.2-4.6-3.1c-0.8-1.9-0.4-4,1.1-5.4l280-282.3c1.7-1.7,4.4-2,6.3-0.6l94.8,64
			c2,1.4,2.8,4,1.8,6.2l-98.8,218.3C1350,893.9,1348.2,895,1346.2,895z M1082.2,885H1343l95.7-211.5l-87.8-59.4L1082.2,885z" style="fill:#F3F6E6;"/>
	</g>
	<path d="M962.1,181.7H256.4c-2.8,0-5,2.2-5,5v682.9c0,1.8,1,3.5,2.5,4.4c0.8,0.4,1.6,0.6,2.5,0.6s1.8-0.2,2.6-0.7
		c42.7-25.7,78.4-59.4,109.2-103.2c27.1-38.4,46.9-79.3,66.2-118.8C454.8,610,474,570.5,499.8,538c28.7-36.1,61.5-58.5,103.5-70.5
		c79.9-22.8,101.6-69.3,124.6-118.5c15-32.1,30.4-65.2,63.5-93.3c37.7-32,93.8-52.9,171.5-64.1c2.6-0.4,4.5-2.7,4.3-5.3
		C966.9,183.7,964.7,181.7,962.1,181.7z" style="fill:#F3F6E6;"/>
	<path d="M1663.6,181.7h-317.4c-1.8,0-3.4,1-4.3,2.5s-0.9,3.4,0,5c0.6,1,13.8,23.8,41.5,51.4
		c25.5,25.4,68.5,59.5,128.7,78.2c57.9,17.9,94.7,48.9,115.4,71.8c22.5,24.8,31.4,45.7,31.5,45.9c0.8,1.9,2.6,3.1,4.6,3.1
		c0.3,0,0.7,0,1-0.1c2.3-0.5,4-2.5,4-4.9V186.7C1668.6,183.9,1666.4,181.7,1663.6,181.7z" style="fill:#F3F6E6;"/>
	<g>
		<g>
			<rect x="1154" y="621.5" width="10" height="33" style="fill:#383A48;"/>
		</g>
		<g>
			<line x1="1142.5" y1="638" x2="1175.5" y2="638" style="fill:none;"/>
			<rect x="1142.5" y="633" width="33" height="10" style="fill:#383A48;"/>
		</g>
	</g>
	<g>
		<g>
			<rect x="1572.2" y="238.7" width="10" height="33" style="fill:#383A48;"/>
		</g>
		<g>
			<line x1="1560.7" y1="255.2" x2="1593.7" y2="255.2" style="fill:none;"/>
			<rect x="1560.7" y="250.2" width="33" height="10" style="fill:#383A48;"/>
		</g>
	</g>
	<g>
		<g>
			<rect x="820.9" y="424.8" width="10" height="33" style="fill:#383A48;"/>
		</g>
		<g>
			<line x1="809.4" y1="441.2" x2="842.4" y2="441.2" style="fill:none;"/>
			<rect x="809.4" y="436.2" width="33" height="10" style="fill:#383A48;"/>
		</g>
	</g>
	<g>
		<g>
			<path d="M1023,893L1023,893c-51.5,0-93.3-41.8-93.3-93.3l0,0c0-51.5,41.8-93.3,93.3-93.3l0,0
				c51.5,0,93.3,41.8,93.3,93.3l0,0C1116.3,851.2,1074.5,893,1023,893z" style="fill:#F6E049;"/>
			<path d="M1023,898c-54.2,0-98.3-44.1-98.3-98.3s44.1-98.3,98.3-98.3c54.2,0,98.3,44.1,98.3,98.3S1077.2,898,1023,898
				z M1023,711.3c-48.7,0-88.3,39.6-88.3,88.3S974.3,888,1023,888l0,0c48.7,0,88.3-39.6,88.3-88.3S1071.7,711.3,1023,711.3z" style="fill:#383A48;"/>
		</g>
		<g>
			<polyline points="991.2,786.1 1021.7,828.5 1063,777.5 			" style="fill:#F6E049;"/>
			<path d="M1021.7,833.5L1021.7,833.5c-1.7,0-3.1-0.8-4-2.1L987.1,789c-1.6-2.2-1.1-5.4,1.1-7c2.2-1.6,5.4-1.1,7,1.1
				l26.6,37.1l37.2-46c1.7-2.1,4.9-2.5,7-0.7c2.1,1.7,2.5,4.9,0.7,7l-41.3,51.1C1024.6,832.9,1023.2,833.5,1021.7,833.5z" style="fill:#383A48;"/>
		</g>
	</g>
	<g>
		<g>
			<path d="M1205.1,482.9L819.9,868.1c-16.3,16.3-38.4,25.4-61.3,25.4c-2.8,0-5.5-0.1-8.3-0.4
				c-25.8-2.5-49.1-16.3-63.5-37.8l-190-281.7l-13.6-20.1c-26.8-39.7-16.3-93.5,23.4-120.3c38.6-26,90.6-16.8,118,20.2
				c0.8,1,1.5,2.1,2.3,3.2l144.8,214.7l310.9-310.9c33.8-33.8,88.7-33.8,122.5,0S1238.9,449,1205.1,482.9z" style="fill:#7FD6C2;"/>
			<path d="M758.6,898.4c-3,0-5.9-0.1-8.8-0.4c-27.3-2.6-51.8-17.2-67.2-40l-190-281.7L479,556.2
				c-28.2-41.9-17.1-99,24.8-127.2c40.8-27.5,95.6-18.1,124.8,21.4c0.8,1,1.6,2.2,2.4,3.4l141.4,209.6L1079,356.8
				c17.3-17.3,40.3-26.8,64.8-26.8s47.5,9.5,64.8,26.8s26.8,40.3,26.8,64.8s-9.5,47.5-26.8,64.8L823.4,871.6
				C806.4,888.7,782.7,898.4,758.6,898.4z M555.1,423.2c-15.7,0-31.6,4.6-45.7,14c-37.3,25.2-47.2,76-22,113.3l13.6,20.1l190,281.7
				c13.7,20.3,35.5,33.3,59.9,35.6c2.6,0.3,5.2,0.4,7.8,0.4c21.5,0,42.5-8.7,57.7-23.9l385.2-385.2l0,0
				c15.4-15.4,23.9-35.9,23.9-57.7c0-21.8-8.5-42.3-23.9-57.7c-15.4-15.4-35.9-23.9-57.7-23.9c-21.8,0-42.3,8.5-57.7,23.9
				l-311,310.9c-1.1,1.1-2.5,1.6-4,1.4c-1.5-0.1-2.8-0.9-3.7-2.2L622.8,459.3c-0.7-1.1-1.4-2-2.1-3
				C604.7,434.7,580.1,423.2,555.1,423.2z" style="fill:#383A48;"/>
		</g>
		<g>
			<path d="M624.6,453.3c-16.7,60.3-66.1,107.1-127.8,120.2l-13.6-20.1c-26.8-39.7-16.3-93.5,23.4-120.3
				C545.2,407.1,597.2,416.3,624.6,453.3z" style="fill:#383A48;"/>
			<path d="M494.5,579.1L479,556.2c-28.2-41.9-17.1-99,24.8-127.2c40.8-27.5,95.6-18.1,124.8,21.4l1.5,2l-0.7,2.4
				c-8.5,30.5-25.2,58.3-48.4,80.1c-23.3,21.9-52.1,37-83.2,43.6L494.5,579.1z M555.1,423.2c-15.7,0-31.6,4.6-45.7,14
				c-37.3,25.2-47.2,76-22,113.3l11.7,17.3c28.1-6.6,54-20.5,75.1-40.4c21.3-20,36.8-45.3,45-73.1
				C603.1,434,579.3,423.2,555.1,423.2z" style="fill:#383A48;"/>
		</g>
		<g>
			<polygon points="771.7,671.2 794.3,703.2 846.7,596.2 			" style="fill:#383A48;"/>
			<path d="M794.3,708.2c-1.6,0-3.1-0.8-4.1-2.1l-22.7-32c-1.4-2-1.2-4.7,0.5-6.4l75-75c1.7-1.7,4.5-2,6.4-0.5
				c2,1.4,2.7,4.1,1.6,6.3l-52.4,107c-0.8,1.6-2.3,2.6-4.1,2.8C794.6,708.2,794.5,708.2,794.3,708.2z M778.2,671.7l15.3,21.7
				l35.5-72.5L778.2,671.7z" style="fill:#383A48;"/>
		</g>
	</g>
	<g>
		<g>
			<circle cx="425.6" cy="355.8" r="169.2" style="fill:#F6E049;"/>
			<path d="M425.6,530c-96.1,0-174.2-78.1-174.2-174.2s78.1-174.2,174.2-174.2s174.2,78.1,174.2,174.2
				S521.7,530,425.6,530z M425.6,191.6c-90.5,0-164.2,73.7-164.2,164.2S335.1,520,425.6,520s164.2-73.7,164.2-164.2
				S516.2,191.6,425.6,191.6z" style="fill:#383A48;"/>
		</g>
		<g>
			<circle cx="371.5" cy="331.1" r="18.1" style="fill:#383A48;"/>
		</g>
		<g>
			<circle cx="479.7" cy="331.1" r="18.1" style="fill:#383A48;"/>
		</g>
		<g>
			<path d="M425.6,430c-25.3,0-48.5-14.9-59-37.9c-1.2-2.5,0-5.5,2.5-6.6c2.5-1.2,5.5,0,6.6,2.5
				c8.9,19.5,28.5,32,49.9,32s41-12.6,49.9-32c1.2-2.5,4.1-3.6,6.6-2.5c2.5,1.2,3.6,4.1,2.5,6.6C474.1,415.1,450.9,430,425.6,430z" style="fill:#383A48;"/>
		</g>
	</g>
	<g>
		<line x1="1043.4" y1="271.7" x2="1116.3" y2="198.8" style="fill:none;"/>
		<path d="M1043.4,276.7c-1.3,0-2.6-0.5-3.5-1.5c-2-2-2-5.1,0-7.1l72.9-72.9c2-2,5.1-2,7.1,0s2,5.1,0,7.1l-72.9,72.9
			C1046,276.2,1044.7,276.7,1043.4,276.7z" style="fill:#383A48;"/>
	</g>
	<path d="M1415.5,351.3l-21.6-14.8l13-22.7c1-1.8,0.9-4-0.4-5.6s-3.4-2.3-5.4-1.7l-25,7.7l-9.6-24.3
		c-0.8-1.9-2.6-3.2-4.7-3.2s-3.9,1.3-4.7,3.2l-9.6,24.3l-25-7.7c-2-0.6-4.1,0.1-5.4,1.7s-1.4,3.8-0.4,5.6l13,22.7l-21.6,14.8
		c-1.7,1.2-2.5,3.2-2,5.2s2.1,3.5,4.1,3.8l25.9,4l-1.9,26.1c-0.1,2,1,4,2.8,4.9c0.7,0.3,1.4,0.5,2.2,0.5c1.2,0,2.5-0.5,3.4-1.3
		l19.2-17.8l19.2,17.8c1.5,1.4,3.7,1.7,5.6,0.8c1.8-0.9,3-2.8,2.8-4.9l-1.9-26.1l25.9-4c2-0.3,3.7-1.8,4.1-3.8
		C1418,354.5,1417.2,352.4,1415.5,351.3z" style="fill:#F6E049;"/>
	<path d="M533.7,767.9l-21.6-14.8l13-22.7c1-1.8,0.9-4-0.4-5.6c-1.3-1.6-3.4-2.3-5.4-1.7l-25,7.7l-9.6-24.3
		c-0.8-1.9-2.6-3.2-4.7-3.2s-3.9,1.3-4.7,3.2l-9.6,24.3l-25-7.7c-2-0.6-4.1,0.1-5.4,1.7c-1.3,1.6-1.4,3.8-0.4,5.6l13,22.7
		l-21.6,14.8c-1.7,1.2-2.5,3.2-2,5.2s2.1,3.5,4.1,3.8l25.9,4l-1.9,26.1c-0.1,2,1,4,2.8,4.9s4.1,0.6,5.6-0.8l19.2-17.8l19.2,17.8
		c0.9,0.9,2.2,1.3,3.4,1.3c0.7,0,1.5-0.2,2.2-0.5c1.8-0.9,3-2.8,2.8-4.9l-1.9-26.1l25.9-4c2-0.3,3.7-1.8,4.1-3.8
		C536.2,771.2,535.4,769.1,533.7,767.9z" style="fill:#F6E049;"/>
	<g>
		<g>
			<polygon points="1659.6,886.2 1299.9,886.2 1230.4,816.8 1299.9,528.6 1659.6,528.6 			" style="fill:#F3F6E6;"/>
			<path d="M1659.6,891.2h-359.7c-1.3,0-2.6-0.5-3.5-1.5l-69.4-69.4c-1.2-1.2-1.7-3-1.3-4.7l69.4-288.1
				c0.5-2.2,2.6-3.8,4.9-3.8h359.7c2.8,0,5,2.2,5,5v357.5C1664.6,889,1662.3,891.2,1659.6,891.2z M1301.9,881.2h352.6V533.6h-350.8
				L1236,815.2L1301.9,881.2z" style="fill:#383A48;"/>
		</g>
		<g>
			<g>
				<g>
					<g>
						<circle cx="1655.7" cy="605.8" r="5" style="fill:#383A48;"/>
					</g>
				</g>
				<g>
					<g>
						<circle cx="1655.7" cy="630.5" r="5" style="fill:#383A48;"/>
					</g>
				</g>
				<g>
					<g>
						<circle cx="1655.7" cy="655.2" r="5" style="fill:#383A48;"/>
					</g>
				</g>
				<g>
					<g>
						<circle cx="1655.7" cy="679.8" r="5" style="fill:#383A48;"/>
					</g>
				</g>
				<g>
					<g>
						<circle cx="1655.7" cy="704.5" r="5" style="fill:#383A48;"/>
					</g>
				</g>
				<g>
					<g>
						<circle cx="1655.7" cy="729.2" r="5" style="fill:#383A48;"/>
					</g>
				</g>
				<g>
					<g>
						<circle cx="1655.7" cy="753.8" r="5" style="fill:#383A48;"/>
					</g>
				</g>
				<g>
					<g>
						<circle cx="1655.7" cy="778.5" r="5" style="fill:#383A48;"/>
					</g>
				</g>
				<g>
					<g>
						<circle cx="1655.7" cy="803.2" r="5" style="fill:#383A48;"/>
					</g>
				</g>
				<g>
					<g>
						<circle cx="1655.7" cy="827.8" r="5" style="fill:#383A48;"/>
					</g>
				</g>
				<g>
					<g>
						<circle cx="1655.7" cy="852.5" r="5" style="fill:#383A48;"/>
					</g>
				</g>
				<g>
					<g>
						<circle cx="1655.7" cy="877.2" r="5" style="fill:#383A48;"/>
					</g>
				</g>
				<g>
					<g>
						<circle cx="1631" cy="581.2" r="5" style="fill:#383A48;"/>
					</g>
				</g>
				<g>
					<g>
						<circle cx="1631" cy="605.8" r="5" style="fill:#383A48;"/>
					</g>
				</g>
				<g>
					<g>
						<circle cx="1631" cy="630.5" r="5" style="fill:#383A48;"/>
					</g>
				</g>
				<g>
					<g>
						<circle cx="1631" cy="655.2" r="5" style="fill:#383A48;"/>
					</g>
				</g>
				<g>
					<g>
						<circle cx="1631" cy="679.8" r="5" style="fill:#383A48;"/>
					</g>
				</g>
				<g>
					<g>
						<circle cx="1631" cy="704.5" r="5" style="fill:#383A48;"/>
					</g>
				</g>
				<g>
					<g>
						<circle cx="1631" cy="729.2" r="5" style="fill:#383A48;"/>
					</g>
				</g>
				<g>
					<g>
						<circle cx="1631" cy="753.8" r="5" style="fill:#383A48;"/>
					</g>
				</g>
				<g>
					<g>
						<circle cx="1631" cy="778.5" r="5" style="fill:#383A48;"/>
					</g>
				</g>
				<g>
					<g>
						<circle cx="1631" cy="803.2" r="5" style="fill:#383A48;"/>
					</g>
				</g>
				<g>
					<g>
						<circle cx="1631" cy="827.8" r="5" style="fill:#383A48;"/>
					</g>
				</g>
				<g>
					<g>
						<circle cx="1631" cy="852.5" r="5" style="fill:#383A48;"/>
					</g>
				</g>
				<g>
					<g>
						<circle cx="1631" cy="877.2" r="5" style="fill:#383A48;"/>
					</g>
				</g>
				<g>
					<g>
						<circle cx="1606.3" cy="556.5" r="5" style="fill:#383A48;"/>
					</g>
				</g>
				<g>
					<g>
						<circle cx="1606.3" cy="581.2" r="5" style="fill:#383A48;"/>
					</g>
				</g>
				<g>
					<g>
						<circle cx="1606.3" cy="605.8" r="5" style="fill:#383A48;"/>
					</g>
				</g>
				<g>
					<g>
						<circle cx="1606.3" cy="630.5" r="5" style="fill:#383A48;"/>
					</g>
				</g>
				<g>
					<g>
						<circle cx="1606.3" cy="655.2" r="5" style="fill:#383A48;"/>
					</g>
				</g>
				<g>
					<g>
						<circle cx="1606.3" cy="679.8" r="5" style="fill:#383A48;"/>
					</g>
				</g>
				<g>
					<g>
						<circle cx="1606.3" cy="704.5" r="5" style="fill:#383A48;"/>
					</g>
				</g>
				<g>
					<g>
						<circle cx="1606.3" cy="729.2" r="5" style="fill:#383A48;"/>
					</g>
				</g>
				<g>
					<g>
						<circle cx="1606.3" cy="753.8" r="5" style="fill:#383A48;"/>
					</g>
				</g>
				<g>
					<g>
						<circle cx="1606.3" cy="778.5" r="5" style="fill:#383A48;"/>
					</g>
				</g>
				<g>
					<g>
						<circle cx="1606.3" cy="803.2" r="5" style="fill:#383A48;"/>
					</g>
				</g>
				<g>
					<g>
						<circle cx="1606.3" cy="827.8" r="5" style="fill:#383A48;"/>
					</g>
				</g>
				<g>
					<g>
						<circle cx="1606.3" cy="852.5" r="5" style="fill:#383A48;"/>
					</g>
				</g>
				<g>
					<g>
						<circle cx="1606.3" cy="877.2" r="5" style="fill:#383A48;"/>
					</g>
				</g>
				<g>
					<g>
						<circle cx="1581.7" cy="827.8" r="5" style="fill:#383A48;"/>
					</g>
				</g>
				<g>
					<g>
						<circle cx="1581.7" cy="852.5" r="5" style="fill:#383A48;"/>
					</g>
				</g>
				<g>
					<g>
						<circle cx="1581.7" cy="877.2" r="5" style="fill:#383A48;"/>
					</g>
				</g>
				<g>
					<g>
						<circle cx="1557" cy="827.8" r="5" style="fill:#383A48;"/>
					</g>
				</g>
				<g>
					<g>
						<circle cx="1557" cy="852.5" r="5" style="fill:#383A48;"/>
					</g>
				</g>
				<g>
					<g>
						<circle cx="1557" cy="877.2" r="5" style="fill:#383A48;"/>
					</g>
				</g>
				<g>
					<g>
						<circle cx="1532.3" cy="827.8" r="5" style="fill:#383A48;"/>
					</g>
				</g>
				<g>
					<g>
						<circle cx="1532.3" cy="852.5" r="5" style="fill:#383A48;"/>
					</g>
				</g>
				<g>
					<g>
						<circle cx="1532.3" cy="877.2" r="5" style="fill:#383A48;"/>
					</g>
				</g>
				<g>
					<g>
						<circle cx="1507.7" cy="827.8" r="5" style="fill:#383A48;"/>
					</g>
				</g>
				<g>
					<g>
						<circle cx="1507.7" cy="852.5" r="5" style="fill:#383A48;"/>
					</g>
				</g>
				<g>
					<g>
						<circle cx="1507.7" cy="877.2" r="5" style="fill:#383A48;"/>
					</g>
				</g>
				<g>
					<g>
						<circle cx="1483" cy="827.8" r="5" style="fill:#383A48;"/>
					</g>
				</g>
				<g>
					<g>
						<circle cx="1483" cy="852.5" r="5" style="fill:#383A48;"/>
					</g>
				</g>
				<g>
					<g>
						<circle cx="1483" cy="877.2" r="5" style="fill:#383A48;"/>
					</g>
				</g>
				<g>
					<g>
						<circle cx="1458.3" cy="827.8" r="5" style="fill:#383A48;"/>
					</g>
				</g>
				<g>
					<g>
						<circle cx="1458.3" cy="852.5" r="5" style="fill:#383A48;"/>
					</g>
				</g>
				<g>
					<g>
						<circle cx="1458.3" cy="877.2" r="5" style="fill:#383A48;"/>
					</g>
				</g>
				<g>
					<g>
						<circle cx="1433.7" cy="827.8" r="5" style="fill:#383A48;"/>
					</g>
				</g>
				<g>
					<g>
						<circle cx="1433.7" cy="852.5" r="5" style="fill:#383A48;"/>
					</g>
				</g>
				<g>
					<g>
						<circle cx="1433.7" cy="877.2" r="5" style="fill:#383A48;"/>
					</g>
				</g>
				<g>
					<g>
						<circle cx="1409" cy="827.8" r="5" style="fill:#383A48;"/>
					</g>
				</g>
				<g>
					<g>
						<circle cx="1409" cy="852.5" r="5" style="fill:#383A48;"/>
					</g>
				</g>
				<g>
					<g>
						<circle cx="1409" cy="877.2" r="5" style="fill:#383A48;"/>
					</g>
				</g>
				<g>
					<g>
						<circle cx="1384.3" cy="827.8" r="5" style="fill:#383A48;"/>
					</g>
				</g>
				<g>
					<g>
						<circle cx="1384.3" cy="852.5" r="5" style="fill:#383A48;"/>
					</g>
				</g>
				<g>
					<g>
						<circle cx="1384.3" cy="877.2" r="5" style="fill:#383A48;"/>
					</g>
				</g>
				<g>
					<g>
						<circle cx="1359.7" cy="827.8" r="5" style="fill:#383A48;"/>
					</g>
				</g>
				<g>
					<g>
						<circle cx="1359.7" cy="852.5" r="5" style="fill:#383A48;"/>
					</g>
				</g>
				<g>
					<g>
						<circle cx="1359.7" cy="877.2" r="5" style="fill:#383A48;"/>
					</g>
				</g>
				<g>
					<g>
						<circle cx="1335" cy="827.8" r="5" style="fill:#383A48;"/>
					</g>
				</g>
				<g>
					<g>
						<circle cx="1335" cy="852.5" r="5" style="fill:#383A48;"/>
					</g>
				</g>
				<g>
					<g>
						<circle cx="1335" cy="877.2" r="5" style="fill:#383A48;"/>
					</g>
				</g>
				<g>
					<g>
						<circle cx="1310.3" cy="827.8" r="5" style="fill:#383A48;"/>
					</g>
				</g>
				<g>
					<g>
						<circle cx="1310.3" cy="852.5" r="5" style="fill:#383A48;"/>
					</g>
				</g>
				<g>
					<g>
						<circle cx="1310.3" cy="877.2" r="5" style="fill:#383A48;"/>
					</g>
				</g>
				<g>
					<g>
						<circle cx="1285.7" cy="827.8" r="5" style="fill:#383A48;"/>
					</g>
				</g>
				<g>
					<g>
						<circle cx="1285.7" cy="852.5" r="5" style="fill:#383A48;"/>
					</g>
				</g>
				<g>
					<g>
						<circle cx="1261" cy="827.8" r="5" style="fill:#383A48;"/>
					</g>
				</g>
			</g>
		</g>
		<g>
			<polygon points="1299.9,598.1 1590.2,528.6 1659.6,598.1 1659.6,510.6 1590.2,441.2 1299.9,510.6 			" style="fill:#383A48;"/>
			<path d="M1659.6,603.1c-1.3,0-2.6-0.5-3.5-1.5l-67.4-67.4L1301,602.9c-1.5,0.4-3.1,0-4.3-0.9
				c-1.2-0.9-1.9-2.4-1.9-3.9v-87.4c0-2.3,1.6-4.3,3.8-4.9l290.3-69.4c1.7-0.4,3.5,0.1,4.7,1.3l69.4,69.4c0.9,0.9,1.5,2.2,1.5,3.5
				V598c0,2-1.2,3.8-3.1,4.6C1660.9,602.9,1660.2,603.1,1659.6,603.1z M1304.9,514.6v77.1l284.1-67.9c1.7-0.4,3.5,0.1,4.7,1.3
				l60.9,60.9v-73.3l-66-66L1304.9,514.6z" style="fill:#383A48;"/>
		</g>
		<g>
			<rect x="1230.4" y="459.2" width="359.7" height="357.5" style="fill:#F3F6E6;"/>
			<path d="M1590.2,821.8h-359.7c-2.8,0-5-2.2-5-5V459.2c0-2.8,2.2-5,5-5h359.7c2.8,0,5,2.2,5,5v357.5
				C1595.2,819.5,1592.9,821.8,1590.2,821.8z M1235.4,811.8h349.7V464.2h-349.7L1235.4,811.8L1235.4,811.8z" style="fill:#383A48;"/>
		</g>
		<g>
			<rect x="1230.4" y="441.2" width="359.7" height="87.4" style="fill:#383A48;"/>
			<path d="M1590.2,533.6h-359.7c-2.8,0-5-2.2-5-5v-87.4c0-2.8,2.2-5,5-5h359.7c2.8,0,5,2.2,5,5v87.4
				C1595.2,531.4,1592.9,533.6,1590.2,533.6z M1235.4,523.6h349.7v-77.4h-349.7L1235.4,523.6L1235.4,523.6z" style="fill:#383A48;"/>
		</g>
		<g>
			<rect x="1279.3" y="584.9" width="246.6" height="80.5" style="fill:#AAC6FC;"/>
		</g>
		<g>
			<rect x="1327" y="700" width="151.1" height="54.8" style="fill:#7FD6C2;"/>
		</g>
		<g>
			<line x1="1590.2" y1="816.8" x2="1659.6" y2="886.2" style="fill:none;"/>
			<path d="M1659.6,891.2c-1.3,0-2.6-0.5-3.5-1.5l-69.4-69.4c-2-2-2-5.1,0-7.1s5.1-2,7.1,0l69.4,69.4c2,2,2,5.1,0,7.1
				C1662.1,890.7,1660.9,891.2,1659.6,891.2z" style="fill:#383A48;"/>
		</g>
	</g>
	<g>
		<path d="M860.3,898H437c-2.8,0-5-2.2-5-5s2.2-5,5-5h423.4c2.8,0,5,2.2,5,5S863.1,898,860.3,898z" style="fill:#383A48;"/>
	</g>
</g>
</svg>
