<?xml version="1.0" encoding="UTF-8"?>
<svg width="1343px" height="732px" viewBox="0 0 1343 732" version="1.1" xmlns="http://www.w3.org/2000/svg" xmlns:xlink="http://www.w3.org/1999/xlink">
    <!-- Generator: Sketch 59.1 (86144) - https://sketch.com -->
    <title>abstract-3</title>
    <desc>Created with Sketch.</desc>
    <g id="Page-1" stroke="none" stroke-width="1" fill="none" fill-rule="evenodd">
        <g id="abstract-3" transform="translate(-289.000000, -169.000000)" fill-rule="nonzero">
            <g id="Group" transform="translate(289.000000, 169.000000)">
                <path d="M165.3,722.5 L8.8,559.7 C7.4,558.2 5.2,557.8 3.3,558.5 C1.4,559.3 0.2,561.1 0.2,563.1 L0.2,726 C0.2,728.8 2.4,731 5.2,731 L161.8,731 C163.8,731 165.6,729.8 166.4,728 C167.1,726.1 166.7,723.9 165.3,722.5 Z" id="Path" fill="#F6E049"></path>
                <circle id="Oval" fill="#383A48" cx="466.6" cy="278.9" r="5"></circle>
                <circle id="Oval" fill="#383A48" cx="442" cy="254.3" r="5"></circle>
                <circle id="Oval" fill="#383A48" cx="442" cy="278.9" r="5"></circle>
                <circle id="Oval" fill="#383A48" cx="417.3" cy="254.3" r="5"></circle>
                <circle id="Oval" fill="#383A48" cx="417.3" cy="278.9" r="5"></circle>
                <circle id="Oval" fill="#383A48" cx="392.6" cy="254.3" r="5"></circle>
                <circle id="Oval" fill="#383A48" cx="392.6" cy="278.9" r="5"></circle>
                <circle id="Oval" fill="#383A48" cx="368" cy="254.3" r="5"></circle>
                <circle id="Oval" fill="#383A48" cx="368" cy="278.9" r="5"></circle>
                <circle id="Oval" fill="#383A48" cx="343.3" cy="254.3" r="5"></circle>
                <circle id="Oval" fill="#383A48" cx="343.3" cy="278.9" r="5"></circle>
                <circle id="Oval" fill="#383A48" cx="318.6" cy="254.3" r="5"></circle>
                <circle id="Oval" fill="#383A48" cx="318.6" cy="278.9" r="5"></circle>
                <circle id="Oval" fill="#383A48" cx="294" cy="254.3" r="5"></circle>
                <circle id="Oval" fill="#383A48" cx="294" cy="278.9" r="5"></circle>
                <circle id="Oval" fill="#383A48" cx="269.3" cy="254.3" r="5"></circle>
                <circle id="Oval" fill="#383A48" cx="269.3" cy="278.9" r="5"></circle>
                <circle id="Oval" fill="#383A48" cx="244.6" cy="254.3" r="5"></circle>
                <circle id="Oval" fill="#383A48" cx="244.6" cy="278.9" r="5"></circle>
                <circle id="Oval" fill="#383A48" cx="220" cy="254.3" r="5"></circle>
                <circle id="Oval" fill="#383A48" cx="220" cy="278.9" r="5"></circle>
                <circle id="Oval" fill="#383A48" cx="195.3" cy="254.3" r="5"></circle>
                <circle id="Oval" fill="#383A48" cx="195.3" cy="278.9" r="5"></circle>
                <g transform="translate(190.000000, 298.000000)" fill="#383A48" id="Oval">
                    <circle cx="375.3" cy="54.9" r="5"></circle>
                    <circle cx="375.3" cy="79.6" r="5"></circle>
                    <circle cx="375.3" cy="104.3" r="5"></circle>
                    <circle cx="375.3" cy="128.9" r="5"></circle>
                    <circle cx="375.3" cy="153.6" r="5"></circle>
                    <circle cx="375.3" cy="178.3" r="5"></circle>
                    <circle cx="375.3" cy="202.9" r="5"></circle>
                    <circle cx="375.3" cy="227.6" r="5"></circle>
                    <circle cx="375.3" cy="252.3" r="5"></circle>
                    <circle cx="375.3" cy="276.9" r="5"></circle>
                    <circle cx="375.3" cy="301.6" r="5"></circle>
                    <circle cx="375.3" cy="326.3" r="5"></circle>
                    <circle cx="375.3" cy="350.9" r="5"></circle>
                    <circle cx="375.3" cy="375.6" r="5"></circle>
                    <circle cx="375.3" cy="400.3" r="5"></circle>
                    <circle cx="375.3" cy="424.9" r="5"></circle>
                    <circle cx="350.6" cy="30.3" r="5"></circle>
                    <circle cx="350.6" cy="54.9" r="5"></circle>
                    <circle cx="350.6" cy="79.6" r="5"></circle>
                    <circle cx="350.6" cy="104.3" r="5"></circle>
                    <circle cx="350.6" cy="128.9" r="5"></circle>
                    <circle cx="350.6" cy="153.6" r="5"></circle>
                    <circle cx="350.6" cy="178.3" r="5"></circle>
                    <circle cx="350.6" cy="202.9" r="5"></circle>
                    <circle cx="350.6" cy="227.6" r="5"></circle>
                    <circle cx="350.6" cy="252.3" r="5"></circle>
                    <circle cx="350.6" cy="276.9" r="5"></circle>
                    <circle cx="350.6" cy="301.6" r="5"></circle>
                    <circle cx="350.6" cy="326.3" r="5"></circle>
                    <circle cx="350.6" cy="350.9" r="5"></circle>
                    <circle cx="350.6" cy="375.6" r="5"></circle>
                    <circle cx="350.6" cy="400.3" r="5"></circle>
                    <circle cx="350.6" cy="424.9" r="5"></circle>
                    <circle cx="326" cy="30.3" r="5"></circle>
                    <circle cx="326" cy="54.9" r="5"></circle>
                    <circle cx="326" cy="79.6" r="5"></circle>
                    <circle cx="326" cy="104.3" r="5"></circle>
                    <circle cx="326" cy="128.9" r="5"></circle>
                    <circle cx="326" cy="153.6" r="5"></circle>
                    <circle cx="326" cy="178.3" r="5"></circle>
                    <circle cx="326" cy="202.9" r="5"></circle>
                    <circle cx="326" cy="227.6" r="5"></circle>
                    <circle cx="326" cy="252.3" r="5"></circle>
                    <circle cx="326" cy="276.9" r="5"></circle>
                    <circle cx="326" cy="301.6" r="5"></circle>
                    <circle cx="326" cy="326.3" r="5"></circle>
                    <circle cx="326" cy="350.9" r="5"></circle>
                    <circle cx="326" cy="375.6" r="5"></circle>
                    <circle cx="326" cy="400.3" r="5"></circle>
                    <circle cx="326" cy="424.9" r="5"></circle>
                    <circle cx="301.3" cy="5.6" r="5"></circle>
                    <circle cx="301.3" cy="30.3" r="5"></circle>
                    <circle cx="301.3" cy="54.9" r="5"></circle>
                    <circle cx="301.3" cy="79.6" r="5"></circle>
                    <circle cx="301.3" cy="104.3" r="5"></circle>
                    <circle cx="301.3" cy="128.9" r="5"></circle>
                    <circle cx="301.3" cy="153.6" r="5"></circle>
                    <circle cx="301.3" cy="178.3" r="5"></circle>
                    <circle cx="301.3" cy="202.9" r="5"></circle>
                    <circle cx="301.3" cy="227.6" r="5"></circle>
                    <circle cx="301.3" cy="252.3" r="5"></circle>
                    <circle cx="301.3" cy="276.9" r="5"></circle>
                    <circle cx="301.3" cy="301.6" r="5"></circle>
                    <circle cx="301.3" cy="326.3" r="5"></circle>
                    <circle cx="301.3" cy="350.9" r="5"></circle>
                    <circle cx="301.3" cy="375.6" r="5"></circle>
                    <circle cx="301.3" cy="400.3" r="5"></circle>
                    <circle cx="301.3" cy="424.9" r="5"></circle>
                    <circle cx="276.6" cy="5.6" r="5"></circle>
                    <circle cx="276.6" cy="30.3" r="5"></circle>
                    <circle cx="276.6" cy="54.9" r="5"></circle>
                    <circle cx="276.6" cy="79.6" r="5"></circle>
                    <circle cx="276.6" cy="104.3" r="5"></circle>
                    <circle cx="276.6" cy="128.9" r="5"></circle>
                    <circle cx="276.6" cy="153.6" r="5"></circle>
                    <circle cx="276.6" cy="178.3" r="5"></circle>
                    <circle cx="276.6" cy="202.9" r="5"></circle>
                    <circle cx="276.6" cy="227.6" r="5"></circle>
                    <circle cx="276.6" cy="252.3" r="5"></circle>
                    <circle cx="276.6" cy="276.9" r="5"></circle>
                    <circle cx="276.6" cy="301.6" r="5"></circle>
                    <circle cx="276.6" cy="326.3" r="5"></circle>
                    <circle cx="276.6" cy="350.9" r="5"></circle>
                    <circle cx="276.6" cy="375.6" r="5"></circle>
                    <circle cx="276.6" cy="400.3" r="5"></circle>
                    <circle cx="276.6" cy="424.9" r="5"></circle>
                    <circle cx="252" cy="5.6" r="5"></circle>
                    <circle cx="252" cy="30.3" r="5"></circle>
                    <circle cx="252" cy="54.9" r="5"></circle>
                    <circle cx="252" cy="79.6" r="5"></circle>
                    <circle cx="252" cy="104.3" r="5"></circle>
                    <circle cx="252" cy="128.9" r="5"></circle>
                    <circle cx="252" cy="153.6" r="5"></circle>
                    <circle cx="252" cy="178.3" r="5"></circle>
                    <circle cx="252" cy="202.9" r="5"></circle>
                    <circle cx="252" cy="227.6" r="5"></circle>
                    <circle cx="252" cy="252.3" r="5"></circle>
                    <circle cx="252" cy="276.9" r="5"></circle>
                    <circle cx="252" cy="301.6" r="5"></circle>
                    <circle cx="252" cy="326.3" r="5"></circle>
                    <circle cx="252" cy="350.9" r="5"></circle>
                    <circle cx="252" cy="375.6" r="5"></circle>
                    <circle cx="252" cy="400.3" r="5"></circle>
                    <circle cx="252" cy="424.9" r="5"></circle>
                    <circle cx="227.3" cy="5.6" r="5"></circle>
                    <circle cx="227.3" cy="30.3" r="5"></circle>
                    <circle cx="227.3" cy="54.9" r="5"></circle>
                    <circle cx="227.3" cy="79.6" r="5"></circle>
                    <circle cx="227.3" cy="104.3" r="5"></circle>
                    <circle cx="227.3" cy="128.9" r="5"></circle>
                    <circle cx="227.3" cy="153.6" r="5"></circle>
                    <circle cx="227.3" cy="178.3" r="5"></circle>
                    <circle cx="227.3" cy="202.9" r="5"></circle>
                    <circle cx="227.3" cy="227.6" r="5"></circle>
                    <circle cx="227.3" cy="252.3" r="5"></circle>
                    <circle cx="227.3" cy="276.9" r="5"></circle>
                    <circle cx="227.3" cy="301.6" r="5"></circle>
                    <circle cx="227.3" cy="326.3" r="5"></circle>
                    <circle cx="227.3" cy="350.9" r="5"></circle>
                    <circle cx="227.3" cy="375.6" r="5"></circle>
                    <circle cx="227.3" cy="400.3" r="5"></circle>
                    <circle cx="227.3" cy="424.9" r="5"></circle>
                    <circle cx="202.6" cy="5.6" r="5"></circle>
                    <circle cx="202.6" cy="30.3" r="5"></circle>
                    <circle cx="202.6" cy="54.9" r="5"></circle>
                    <circle cx="202.6" cy="79.6" r="5"></circle>
                    <circle cx="202.6" cy="104.3" r="5"></circle>
                    <circle cx="202.6" cy="128.9" r="5"></circle>
                    <circle cx="202.6" cy="153.6" r="5"></circle>
                    <circle cx="202.6" cy="178.3" r="5"></circle>
                    <circle cx="202.6" cy="202.9" r="5"></circle>
                    <circle cx="202.6" cy="227.6" r="5"></circle>
                    <circle cx="202.6" cy="252.3" r="5"></circle>
                    <circle cx="202.6" cy="276.9" r="5"></circle>
                    <circle cx="202.6" cy="301.6" r="5"></circle>
                    <circle cx="202.6" cy="326.3" r="5"></circle>
                    <circle cx="202.6" cy="350.9" r="5"></circle>
                    <circle cx="202.6" cy="375.6" r="5"></circle>
                    <circle cx="202.6" cy="400.3" r="5"></circle>
                    <circle cx="202.6" cy="424.9" r="5"></circle>
                    <circle cx="178" cy="5.6" r="5"></circle>
                    <circle cx="178" cy="30.3" r="5"></circle>
                    <circle cx="178" cy="54.9" r="5"></circle>
                    <circle cx="178" cy="79.6" r="5"></circle>
                    <circle cx="178" cy="104.3" r="5"></circle>
                    <circle cx="178" cy="128.9" r="5"></circle>
                    <circle cx="178" cy="153.6" r="5"></circle>
                    <circle cx="178" cy="178.3" r="5"></circle>
                    <circle cx="178" cy="202.9" r="5"></circle>
                    <circle cx="178" cy="227.6" r="5"></circle>
                    <circle cx="178" cy="252.3" r="5"></circle>
                    <circle cx="178" cy="276.9" r="5"></circle>
                    <circle cx="178" cy="301.6" r="5"></circle>
                    <circle cx="178" cy="326.3" r="5"></circle>
                    <circle cx="178" cy="350.9" r="5"></circle>
                    <circle cx="178" cy="375.6" r="5"></circle>
                    <circle cx="178" cy="400.3" r="5"></circle>
                    <circle cx="178" cy="424.9" r="5"></circle>
                    <circle cx="153.3" cy="5.6" r="5"></circle>
                    <circle cx="153.3" cy="30.3" r="5"></circle>
                    <circle cx="153.3" cy="54.9" r="5"></circle>
                    <circle cx="153.3" cy="79.6" r="5"></circle>
                    <circle cx="153.3" cy="104.3" r="5"></circle>
                    <circle cx="153.3" cy="128.9" r="5"></circle>
                    <circle cx="153.3" cy="153.6" r="5"></circle>
                    <circle cx="153.3" cy="178.3" r="5"></circle>
                    <circle cx="153.3" cy="202.9" r="5"></circle>
                    <circle cx="153.3" cy="227.6" r="5"></circle>
                    <circle cx="153.3" cy="252.3" r="5"></circle>
                    <circle cx="153.3" cy="276.9" r="5"></circle>
                    <circle cx="153.3" cy="301.6" r="5"></circle>
                    <circle cx="153.3" cy="326.3" r="5"></circle>
                    <circle cx="153.3" cy="350.9" r="5"></circle>
                    <circle cx="153.3" cy="375.6" r="5"></circle>
                    <circle cx="153.3" cy="400.3" r="5"></circle>
                    <circle cx="153.3" cy="424.9" r="5"></circle>
                    <circle cx="128.6" cy="5.6" r="5"></circle>
                    <circle cx="128.6" cy="30.3" r="5"></circle>
                    <circle cx="128.6" cy="54.9" r="5"></circle>
                    <circle cx="128.6" cy="79.6" r="5"></circle>
                    <circle cx="128.6" cy="104.3" r="5"></circle>
                    <circle cx="128.6" cy="128.9" r="5"></circle>
                    <circle cx="128.6" cy="153.6" r="5"></circle>
                    <circle cx="128.6" cy="178.3" r="5"></circle>
                    <circle cx="128.6" cy="202.9" r="5"></circle>
                    <circle cx="128.6" cy="227.6" r="5"></circle>
                    <circle cx="128.6" cy="252.3" r="5"></circle>
                    <circle cx="128.6" cy="276.9" r="5"></circle>
                    <circle cx="128.6" cy="301.6" r="5"></circle>
                    <circle cx="128.6" cy="326.3" r="5"></circle>
                    <circle cx="128.6" cy="350.9" r="5"></circle>
                    <circle cx="128.6" cy="375.6" r="5"></circle>
                    <circle cx="128.6" cy="400.3" r="5"></circle>
                    <circle cx="128.6" cy="424.9" r="5"></circle>
                    <circle cx="104" cy="5.6" r="5"></circle>
                    <circle cx="104" cy="30.3" r="5"></circle>
                    <circle cx="104" cy="54.9" r="5"></circle>
                    <circle cx="104" cy="79.6" r="5"></circle>
                    <circle cx="104" cy="104.3" r="5"></circle>
                    <circle cx="104" cy="128.9" r="5"></circle>
                    <circle cx="104" cy="153.6" r="5"></circle>
                    <circle cx="104" cy="178.3" r="5"></circle>
                    <circle cx="104" cy="202.9" r="5"></circle>
                    <circle cx="104" cy="227.6" r="5"></circle>
                    <circle cx="104" cy="252.3" r="5"></circle>
                    <circle cx="104" cy="276.9" r="5"></circle>
                    <circle cx="104" cy="301.6" r="5"></circle>
                    <circle cx="104" cy="326.3" r="5"></circle>
                    <circle cx="104" cy="350.9" r="5"></circle>
                    <circle cx="104" cy="375.6" r="5"></circle>
                    <circle cx="104" cy="400.3" r="5"></circle>
                    <circle cx="104" cy="424.9" r="5"></circle>
                    <circle cx="79.3" cy="5.6" r="5"></circle>
                    <circle cx="79.3" cy="30.3" r="5"></circle>
                    <circle cx="79.3" cy="54.9" r="5"></circle>
                    <circle cx="79.3" cy="79.6" r="5"></circle>
                    <circle cx="79.3" cy="104.3" r="5"></circle>
                    <circle cx="79.3" cy="128.9" r="5"></circle>
                    <circle cx="79.3" cy="153.6" r="5"></circle>
                    <circle cx="79.3" cy="178.3" r="5"></circle>
                    <circle cx="79.3" cy="202.9" r="5"></circle>
                    <circle cx="79.3" cy="227.6" r="5"></circle>
                    <circle cx="79.3" cy="252.3" r="5"></circle>
                    <circle cx="79.3" cy="276.9" r="5"></circle>
                    <circle cx="79.3" cy="301.6" r="5"></circle>
                    <circle cx="79.3" cy="326.3" r="5"></circle>
                    <circle cx="79.3" cy="350.9" r="5"></circle>
                    <circle cx="79.3" cy="375.6" r="5"></circle>
                    <circle cx="79.3" cy="400.3" r="5"></circle>
                    <circle cx="79.3" cy="424.9" r="5"></circle>
                    <circle cx="54.6" cy="5.6" r="5"></circle>
                    <circle cx="54.6" cy="30.3" r="5"></circle>
                    <circle cx="54.6" cy="54.9" r="5"></circle>
                    <circle cx="54.6" cy="79.6" r="5"></circle>
                    <circle cx="54.6" cy="104.3" r="5"></circle>
                    <circle cx="54.6" cy="128.9" r="5"></circle>
                    <circle cx="54.6" cy="153.6" r="5"></circle>
                    <circle cx="54.6" cy="178.3" r="5"></circle>
                    <circle cx="54.6" cy="202.9" r="5"></circle>
                    <circle cx="54.6" cy="227.6" r="5"></circle>
                    <circle cx="54.6" cy="252.3" r="5"></circle>
                    <circle cx="54.6" cy="276.9" r="5"></circle>
                    <circle cx="54.6" cy="301.6" r="5"></circle>
                    <circle cx="54.6" cy="326.3" r="5"></circle>
                    <circle cx="54.6" cy="350.9" r="5"></circle>
                    <circle cx="54.6" cy="375.6" r="5"></circle>
                    <circle cx="54.6" cy="400.3" r="5"></circle>
                    <circle cx="54.6" cy="424.9" r="5"></circle>
                    <circle cx="30" cy="5.6" r="5"></circle>
                    <circle cx="30" cy="30.3" r="5"></circle>
                    <circle cx="30" cy="54.9" r="5"></circle>
                    <circle cx="30" cy="79.6" r="5"></circle>
                    <circle cx="30" cy="104.3" r="5"></circle>
                    <circle cx="30" cy="128.9" r="5"></circle>
                    <circle cx="30" cy="153.6" r="5"></circle>
                    <circle cx="30" cy="178.3" r="5"></circle>
                    <circle cx="30" cy="202.9" r="5"></circle>
                    <circle cx="30" cy="227.6" r="5"></circle>
                    <circle cx="30" cy="252.3" r="5"></circle>
                    <circle cx="30" cy="276.9" r="5"></circle>
                    <circle cx="30" cy="301.6" r="5"></circle>
                    <circle cx="30" cy="326.3" r="5"></circle>
                    <circle cx="30" cy="350.9" r="5"></circle>
                    <circle cx="30" cy="375.6" r="5"></circle>
                    <circle cx="30" cy="400.3" r="5"></circle>
                    <circle cx="30" cy="424.9" r="5"></circle>
                    <circle cx="5.3" cy="5.6" r="5"></circle>
                    <circle cx="5.3" cy="30.3" r="5"></circle>
                    <circle cx="5.3" cy="54.9" r="5"></circle>
                    <circle cx="5.3" cy="79.6" r="5"></circle>
                    <circle cx="5.3" cy="104.3" r="5"></circle>
                    <circle cx="5.3" cy="128.9" r="5"></circle>
                    <circle cx="5.3" cy="153.6" r="5"></circle>
                    <circle cx="5.3" cy="178.3" r="5"></circle>
                    <circle cx="5.3" cy="202.9" r="5"></circle>
                    <circle cx="5.3" cy="227.6" r="5"></circle>
                    <circle cx="5.3" cy="252.3" r="5"></circle>
                    <circle cx="5.3" cy="276.9" r="5"></circle>
                    <circle cx="5.3" cy="301.6" r="5"></circle>
                    <circle cx="5.3" cy="326.3" r="5"></circle>
                    <circle cx="5.3" cy="350.9" r="5"></circle>
                    <circle cx="5.3" cy="375.6" r="5"></circle>
                    <circle cx="5.3" cy="400.3" r="5"></circle>
                    <circle cx="5.3" cy="424.9" r="5"></circle>
                </g>
                <path d="M1337.3,281 C1334.7,280.8 1332.4,282.6 1332,285.2 C1331.9,285.6 1325.5,323.4 1298,366.2 C1281.9,391.3 1261.8,413.2 1238.4,431.3 C1209,453.9 1174.2,470.7 1134.8,481.1 C1046.6,504.4 1025.9,540.7 1004,579.2 C988.6,606.2 972.6,634.2 930.1,659 C881.3,687.5 803.5,707.8 692.4,721.1 C689.8,721.4 687.8,723.7 688,726.4 C688.2,729 690.3,731.1 693,731.1 L1337,731.1 C1339.8,731.1 1342,728.9 1342,726.1 L1342,286 C1341.8,283.4 1339.9,281.2 1337.3,281 Z" id="Path" fill="#F3F6E6"></path>
                <g transform="translate(937.000000, 38.000000)" fill="#383A48" id="Path">
                    <path d="M48.8,28.8 C46,28.8 43.8,26.6 43.8,23.8 L43.8,5 C43.8,2.2 46,0 48.8,0 C51.6,0 53.8,2.2 53.8,5 L53.8,23.8 C53.8,26.6 51.6,28.8 48.8,28.8 Z"></path>
                    <path d="M48.8,96.1 C46,96.1 43.8,93.9 43.8,91.1 L43.8,72.3 C43.8,69.5 46,67.3 48.8,67.3 C51.6,67.3 53.8,69.5 53.8,72.3 L53.8,91.1 C53.8,93.9 51.6,96.1 48.8,96.1 Z"></path>
                    <path d="M24.5,53.1 L5.7,53.1 C2.9,53.1 0.7,50.9 0.7,48.1 C0.7,45.3 2.9,43.1 5.7,43.1 L24.5,43.1 C27.3,43.1 29.5,45.3 29.5,48.1 C29.5,50.9 27.3,53.1 24.5,53.1 Z"></path>
                    <path d="M91.9,53.1 L73.1,53.1 C70.3,53.1 68.1,50.9 68.1,48.1 C68.1,45.3 70.3,43.1 73.1,43.1 L91.9,43.1 C94.7,43.1 96.9,45.3 96.9,48.1 C96.9,50.9 94.6,53.1 91.9,53.1 Z"></path>
                    <path d="M31.6,35.9 C30.3,35.9 29,35.4 28.1,34.4 L14.8,21.1 C12.8,19.1 12.8,16 14.8,14 C16.8,12 19.9,12 21.9,14 L35.2,27.3 C37.2,29.3 37.2,32.4 35.2,34.4 C34.2,35.4 32.9,35.9 31.6,35.9 Z"></path>
                    <path d="M79.3,83.5 C78,83.5 76.7,83 75.8,82 L62.5,68.7 C60.5,66.7 60.5,63.6 62.5,61.6 C64.5,59.6 67.6,59.6 69.6,61.6 L82.9,74.9 C84.9,76.9 84.9,80 82.9,82 C81.8,83 80.5,83.5 79.3,83.5 Z"></path>
                    <path d="M18.4,83.5 C17.1,83.5 15.8,83 14.9,82 C12.9,80 12.9,76.9 14.9,74.9 L28.2,61.6 C30.2,59.6 33.3,59.6 35.3,61.6 C37.3,63.6 37.3,66.7 35.3,68.7 L22,82 C20.9,83 19.6,83.5 18.4,83.5 Z"></path>
                    <path d="M66,35.9 C64.7,35.9 63.4,35.4 62.5,34.4 C60.5,32.4 60.5,29.3 62.5,27.3 L75.8,14 C77.8,12 80.9,12 82.9,14 C84.9,16 84.9,19.1 82.9,21.1 L69.6,34.4 C68.5,35.4 67.3,35.9 66,35.9 Z"></path>
                </g>
                <g transform="translate(128.000000, 183.000000)">
                    <g>
                        <polygon id="Path" fill="#F3F6E6" points="391.1 497.8 5.7 497.8 5.7 5.9 263 5.9 390.9 133.7"></polygon>
                        <path d="M391.1,502.8 L5.7,502.8 C2.9,502.8 0.7,500.6 0.7,497.8 L0.7,5.8 C0.7,3 2.9,0.8 5.7,0.8 L263,0.8 C264.3,0.8 265.6,1.3 266.5,2.3 L394.4,130.2 C395.3,131.1 395.9,132.4 395.9,133.7 L396.1,497.8 C396.1,499.1 395.6,500.4 394.6,501.3 C393.7,502.3 392.4,502.8 391.1,502.8 Z M10.7,492.8 L386.1,492.8 L385.9,135.8 L260.9,10.8 L10.7,10.8 L10.7,492.8 Z" id="Shape" fill="#383A48"></path>
                    </g>
                    <g transform="translate(258.000000, 0.000000)">
                        <polygon id="Path" fill="#F3F6E6" points="5 5.9 133.1 133.7 5 133.7"></polygon>
                        <path d="M133.1,138.7 L5,138.7 C2.2,138.7 0,136.5 0,133.7 L0,5.9 C0,3.9 1.2,2.1 3.1,1.3 C5,0.5 7.1,1 8.5,2.4 L136.6,130.3 C138,131.7 138.5,133.9 137.7,135.7 C137,137.5 135.1,138.7 133.1,138.7 Z M10,128.7 L121,128.7 L10,17.9 L10,128.7 Z" id="Shape" fill="#383A48"></path>
                    </g>
                    <g transform="translate(134.000000, 174.000000)" fill="#383A48">
                        <circle id="Oval" cx="64.4" cy="63.7" r="58.6"></circle>
                        <path d="M64.4,127.4 C29.3,127.4 0.8,98.8 0.8,63.8 C0.8,28.8 29.4,0.2 64.4,0.2 C99.4,0.2 128,28.8 128,63.8 C128,98.8 99.5,127.4 64.4,127.4 Z M64.4,10.1 C34.8,10.1 10.8,34.2 10.8,63.7 C10.8,93.3 34.9,117.3 64.4,117.3 C93.9,117.3 118.00031,93.2 118.00031,63.7 C118.1,34.1 94,10.1 64.4,10.1 Z" id="Shape"></path>
                    </g>
                    <g transform="translate(169.000000, 273.000000)" fill="#383A48">
                        <rect id="Rectangle" x="5.8" y="5.7" width="47.3" height="114"></rect>
                        <path d="M53.1,124.7 L5.8,124.7 C3,124.7 0.8,122.5 0.8,119.7 L0.8,5.7 C0.8,2.9 3,0.7 5.8,0.7 L53.1,0.7 C55.9,0.7 58.1,2.9 58.1,5.7 L58.1,119.7 C58.1,122.5 55.8,124.7 53.1,124.7 Z M10.8,114.7 L48.1,114.7 L48.1,10.7 L10.8,10.7 L10.8,114.7 Z" id="Shape"></path>
                    </g>
                </g>
                <g transform="translate(64.000000, 119.000000)">
                    <g>
                        <polygon id="Path" fill="#F3F6E6" points="390.8 497.6 5.4 497.6 5.4 5.6 262.7 5.6 390.6 133.5"></polygon>
                        <path d="M390.8,502.6 L5.4,502.6 C2.6,502.6 0.4,500.4 0.4,497.6 L0.4,5.6 C0.4,2.8 2.6,0.6 5.4,0.6 L262.7,0.6 C264,0.6 265.3,1.1 266.2,2.1 L394.1,130 C395,130.9 395.6,132.2 395.6,133.5 L395.8,497.6 C395.8,498.9 395.3,500.2 394.3,501.1 C393.4,502 392.2,502.6 390.8,502.6 Z M10.4,492.6 L385.8,492.6 L385.6,135.6 L260.6,10.6 L10.4,10.6 L10.4,492.6 Z" id="Shape" fill="#383A48"></path>
                    </g>
                    <g transform="translate(257.000000, 0.000000)">
                        <polygon id="Path" fill="#F3F6E6" points="5.7 5.6 133.8 133.5 5.7 133.5"></polygon>
                        <path d="M133.8,138.5 L5.7,138.5 C2.9,138.5 0.7,136.3 0.7,133.5 L0.7,5.6 C0.7,3.6 1.9,1.8 3.8,1 C5.7,0.2 7.8,0.7 9.2,2.1 L137.3,130 C138.7,131.4 139.2,133.6 138.4,135.4 C137.7,137.2 135.9,138.5 133.8,138.5 Z M10.7,128.5 L121.7,128.5 L10.7,17.7 L10.7,128.5 Z" id="Shape" fill="#383A48"></path>
                    </g>
                    <g transform="translate(134.000000, 173.000000)" fill="#383A48">
                        <circle id="Oval" cx="64.1" cy="64.4" r="58.6"></circle>
                        <path d="M64.1,128.1 C29,128.1 0.5,99.5 0.5,64.5 C0.5,29.5 29.1,0.9 64.1,0.9 C99.2,0.9 127.7,29.5 127.7,64.5 C127.7,99.5 99.2,128.1 64.1,128.1 Z M64.1,10.8 C34.5,10.8 10.5,34.9 10.5,64.4 C10.5,94 34.6,118 64.1,118 C93.7,118 117.70031,93.9 117.70031,64.4 C117.8,34.9 93.7,10.8 64.1,10.8 Z" id="Shape"></path>
                    </g>
                    <g transform="translate(169.000000, 273.000000)" fill="#383A48">
                        <rect id="Rectangle" x="5.5" y="5.4" width="47.3" height="114"></rect>
                        <path d="M52.8,124.4 L5.5,124.4 C2.7,124.4 0.5,122.2 0.5,119.4 L0.5,5.4 C0.5,2.6 2.7,0.4 5.5,0.4 L52.8,0.4 C55.6,0.4 57.8,2.6 57.8,5.4 L57.8,119.4 C57.8,122.2 55.5,124.4 52.8,124.4 Z M10.5,114.4 L47.8,114.4 L47.8,10.4 L10.5,10.4 L10.5,114.4 Z" id="Shape"></path>
                    </g>
                </g>
                <g transform="translate(0.000000, 55.000000)">
                    <g>
                        <polygon id="Path" fill="#F3F6E6" points="390.6 497.3 5.2 497.3 5.2 5.3 262.5 5.3 390.4 133.2"></polygon>
                        <path d="M390.6,502.3 L5.2,502.3 C2.4,502.3 0.2,500.1 0.2,497.3 L0.2,5.3 C0.2,2.5 2.4,0.3 5.2,0.3 L262.5,0.3 C263.8,0.3 265.1,0.8 266,1.8 L393.9,129.7 C394.8,130.6 395.4,131.9 395.4,133.2 L395.6,497.3 C395.6,498.6 395.1,499.9 394.1,500.8 C393.2,501.8 391.9,502.3 390.6,502.3 Z M10.2,492.3 L385.6,492.3 L385.4,135.3 L260.4,10.3 L10.2,10.3 L10.2,492.3 Z" id="Shape" fill="#383A48"></path>
                    </g>
                    <g transform="translate(257.000000, 0.000000)">
                        <polygon id="Path" fill="#F3F6E6" points="5.5 5.3 133.6 133.2 5.5 133.2"></polygon>
                        <path d="M133.6,138.2 L5.5,138.2 C2.7,138.2 0.5,136 0.5,133.2 L0.5,5.3 C0.5,3.3 1.7,1.5 3.6,0.7 C5.5,-0.1 7.6,0.4 9,1.8 L137.1,129.7 C138.5,131.1 139,133.3 138.2,135.1 C137.4,137 135.6,138.2 133.6,138.2 Z M10.5,128.2 L121.5,128.2 L10.5,17.4 L10.5,128.2 Z" id="Shape" fill="#383A48"></path>
                    </g>
                    <g transform="translate(134.000000, 173.000000)" fill="#383A48">
                        <circle id="Oval" cx="63.9" cy="64.2" r="58.6"></circle>
                        <path d="M63.9,127.8 C28.8,127.8 0.3,99.2 0.3,64.2 C0.3,29.2 28.9,0.6 63.9,0.6 C98.9,0.6 127.5,29.2 127.5,64.2 C127.5,99.2 99,127.8 63.9,127.8 Z M63.9,10.5 C34.3,10.5 10.3,34.6 10.3,64.1 C10.3,93.6 34.4,117.7 63.9,117.7 C93.5,117.7 117.5,93.6 117.5,64.1 C117.5,34.6 93.4,10.5 63.9,10.5 Z" id="Shape"></path>
                    </g>
                    <g transform="translate(169.000000, 273.000000)" fill="#383A48">
                        <rect id="Rectangle" x="5.2" y="5.2" width="47.3" height="114"></rect>
                        <path d="M52.5,124.2 L5.2,124.2 C2.4,124.2 0.2,122 0.2,119.2 L0.2,5.2 C0.2,2.4 2.4,0.2 5.2,0.2 L52.5,0.2 C55.3,0.2 57.5,2.4 57.5,5.2 L57.5,119.2 C57.5,121.9 55.3,124.2 52.5,124.2 Z M10.2,114.2 L47.5,114.2 L47.5,10.2 L10.2,10.2 L10.2,114.2 Z" id="Shape"></path>
                    </g>
                </g>
                <g transform="translate(606.000000, 0.000000)" id="Shape">
                    <g transform="translate(0.000000, 19.000000)" fill="#383A48">
                        <path d="M592.2,5.69800494 C518.8,6.1 460,66.8 460,140.2 L460,172.5 L5.4,172.5 L5.4,323.4 C5.4,334.3 14.2,343.2 25.2,343.2 L25.2,343.2 C36.1,343.2 45,334.4 45,323.4 L45,273.2 L82.1,273.2 L82.1,302.8 C82.1,313.7 90.9,322.6 101.9,322.6 L101.9,322.6 C112.8,322.6 121.7,313.8 121.7,302.8 L121.7,252.6 L460,252.6 L460,284.9 C460,358.3 518.8,418.9 592.2,419.401995 C665.9,419.8 726,360 726,286.4 L726,138.7 C726,65.1 665.9,5.3 592.2,5.69800494 Z M656,286.3 C656,321 627.7,349.3 593,349.3 C558.3,349.3 530,321 530,286.3 L530,138.7 C530,104 558.3,75.7 593,75.7 C627.7,75.7 656,104 656,138.7 L656,286.3 Z"></path>
                        <path d="M593,424.3 C592.7,424.3 592.5,424.3 592.2,424.3 C516.6,423.9 455,361.3 455,284.8 L455,257.5 L126.6,257.5 L126.6,302.7 C126.6,316.4 115.5,327.5 101.8,327.5 C88.1,327.5 77,316.4 77,302.7 L77,278.1 L49.9,278.1 L49.9,323.3 C49.9,337 38.8,348.1 25.1,348.1 C11.4,348.1 0.3,337 0.3,323.3 L0.3,172.5 C0.3,169.7 2.5,167.5 5.3,167.5 L455,167.5 L455,140.2 C455,63.7 516.5,1.2 592.2,0.697930148 L592.2,5.7 L592.2,0.697930148 C629.1,0.5 664,14.8 690.3,40.9 C716.6,67 731,101.8 731,138.7 L731,286.3 C731,323.3 716.5,358 690.3,384.1 C664.1,410.1 629.6,424.3 593,424.3 Z M121.6,247.5 L460,247.5 C462.8,247.5 465,249.7 465,252.5 L465,284.8 C465,355.8 522.1,413.9 592.3,414.3 C592.6,414.3 592.8,414.3 593.1,414.3 C627.1,414.3 659.1,401.1 683.3,377 C707.7,352.8 721.1,320.5 721.1,286.3 L721.1,138.7 C721.1,104.4 707.7,72.2 683.3,48 C658.9,23.8 626.6,10.5 592.3,10.6977767 C522.1,11.1 465,69.2 465,140.2 L465,172.5 C465,175.3 462.8,177.5 460,177.5 L10.4,177.5 L10.4,323.4 C10.4,331.5 17,338.2 25.2,338.2 C33.4,338.2 40,331.6 40,323.4 L40,273.2 C40,270.4 42.2,268.2 45,268.2 L82.1,268.2 C84.9,268.2 87.1,270.4 87.1,273.2 L87.1,302.8 C87.1,310.9 93.7,317.6 101.9,317.6 C110.1,317.6 116.7,311 116.7,302.8 L116.7,252.6 C116.6,249.8 118.8,247.5 121.6,247.5 Z M593,354.3 C555.5,354.3 525,323.8 525,286.3 L525,138.7 C525,101.2 555.5,70.7 593,70.7 C630.5,70.7 661,101.2 661,138.7 L661,286.3 C661,323.8 630.5,354.3 593,354.3 Z M593,80.7 C561,80.7 535,106.7 535,138.7 L535,286.3 C535,318.3 561,344.3 593,344.3 C625,344.3 651,318.3 651,286.3 L651,138.7 C651,106.8 624.9,80.7 593,80.7 Z"></path>
                    </g>
                    <g>
                        <path d="M592.2,5.39800494 C518.8,5.8 460,66.5 460,139.9 L460,172.2 L5.4,172.2 L5.4,323.1 C5.4,334 14.2,342.9 25.2,342.9 L25.2,342.9 C36.1,342.9 45,334.1 45,323.1 L45,272.9 L82.1,272.9 L82.1,302.5 C82.1,313.4 90.9,322.3 101.9,322.3 L101.9,322.3 C112.8,322.3 121.7,313.5 121.7,302.5 L121.7,252.3 L460,252.3 L460,284.6 C460,358 518.8,418.6 592.2,419.101995 C665.9,419.5 726,359.7 726,286.1 L726,138.4 C726,64.8 665.9,5 592.2,5.39800494 Z M656,286 C656,320.7 627.7,349 593,349 C558.3,349 530,320.7 530,286 L530,138.4 C530,103.7 558.3,75.4 593,75.4 C627.7,75.4 656,103.7 656,138.4 L656,286 Z" fill="#F6E049"></path>
                        <path d="M593,424 C592.7,424 592.5,424 592.2,424 C516.6,423.6 455,361 455,284.5 L455,257.2 L126.6,257.2 L126.6,302.4 C126.6,316.1 115.5,327.2 101.8,327.2 C88.1,327.2 77,316.1 77,302.4 L77,277.8 L49.9,277.8 L49.9,323 C49.9,336.7 38.8,347.8 25.1,347.8 C11.4,347.8 0.3,336.7 0.3,323 L0.3,172.2 C0.3,169.4 2.5,167.2 5.3,167.2 L455,167.2 L455,139.9 C455,63.4 516.5,0.9 592.2,0.4 L592.2,0.4 C592.5,0.4 592.7,0.4 593,0.4 C629.7,0.4 664.2,14.7 690.2,40.6 C716.5,66.7 730.9,101.5 730.9,138.4 L730.9,286 C730.9,323 716.4,357.7 690.2,383.8 C664.1,409.7 629.6,424 593,424 Z M121.6,247.2 L460,247.2 C462.8,247.2 465,249.4 465,252.2 L465,284.5 C465,355.5 522.1,413.6 592.3,414 C592.6,414 592.8,414 593.1,414 C627.1,414 659.1,400.8 683.3,376.7 C707.7,352.5 721.1,320.2 721.1,286 L721.1,138.4 C721.1,104.1 707.7,71.9 683.3,47.7 C659.1,23.6 627.1,10.4 593.1,10.4 C592.8,10.4 592.6,10.4 592.3,10.4 L592.3,5.4 L592.3,10.4 C522.1,10.8 465,68.9 465,139.9 L465,172.2 C465,175 462.8,177.2 460,177.2 L10.4,177.2 L10.4,323.1 C10.4,331.2 17,337.9 25.2,337.9 C33.4,337.9 40,331.3 40,323.1 L40,272.9 C40,270.1 42.2,267.9 45,267.9 L82.1,267.9 C84.9,267.9 87.1,270.1 87.1,272.9 L87.1,302.5 C87.1,310.6 93.7,317.3 101.9,317.3 C110.1,317.3 116.7,310.7 116.7,302.5 L116.7,252.3 C116.6,249.4 118.8,247.2 121.6,247.2 Z M593,354 C555.5,354 525,323.5 525,286 L525,138.4 C525,100.9 555.5,70.4 593,70.4 C630.5,70.4 661,100.9 661,138.4 L661,286 C661,323.5 630.5,354 593,354 Z M593,80.4 C561,80.4 535,106.4 535,138.4 L535,286 C535,318 561,344 593,344 C625,344 651,318 651,286 L651,138.4 C651,106.4 624.9,80.4 593,80.4 Z" fill="#383A48"></path>
                    </g>
                </g>
                <path d="M699.5,589.7 C692.3,589.7 685,589.2 677.6,588.2 C646.4,584 614.6,570.6 585.9,549.5 C583.7,547.9 583.2,544.7 584.8,542.5 C586.4,540.3 589.6,539.8 591.8,541.4 C619.2,561.5 649.4,574.2 679,578.2 C706.4,581.9 732.7,578.2 754.9,567.5 C769.7,560.4 781.9,550.5 791.3,538.5 C778.3,538.1 765.2,536.5 752.1,533.6 C730.5,528.8 713.6,512.5 708.2,491.1 C702.7,469.8 709.7,447.5 726.2,433 C744,417.4 768.3,414.1 789.7,424.3 C811,434.5 823.6,455.4 822.6,478.9 C821.9,496.8 817.5,513.4 809.9,528 C853.9,525 895.5,506.6 928.9,474.5 C947.3,456.8 961.8,436.1 970.9,414.6 C979.8,393.5 982.8,373.1 979.7,355.6 C979.2,352.9 981,350.3 983.7,349.8 C986.4,349.3 989,351.1 989.5,353.8 C996.6,393.3 975.6,443.6 935.8,481.8 C898.9,517.2 852.6,536.8 803.7,538.5 C793,554.5 777.9,567.5 759.2,576.5 C741.2,585.2 720.9,589.7 699.5,589.7 Z M764.2,428.6 C752.9,428.6 741.8,432.7 732.7,440.6 C718.8,452.8 713.2,470.8 717.8,488.7 C722.4,506.7 736,519.9 754.2,523.9 C768.9,527.1 783.6,528.7 798.1,528.6 C806.8,514.1 811.8,497.2 812.5,478.7 C813.3,459.2 802.9,441.9 785.3,433.5 C778.5,430.2 771.3,428.6 764.2,428.6 Z" id="Shape" fill="#383A48"></path>
                <path d="M508.3,55.3 L416.7,55.3 C414.7,55.3 412.9,56.5 412.1,58.4 C411.3,60.3 411.8,62.4 413.2,63.8 L504.8,155.4 C505.8,156.4 507,156.9 508.3,156.9 C508.9,156.9 509.6,156.8 510.2,156.5 C512.1,155.7 513.3,153.9 513.3,151.9 L513.3,60.3 C513.3,57.5 511,55.3 508.3,55.3 Z" id="Path" fill="#4053FA"></path>
                <g transform="translate(1099.000000, 488.000000)">
                    <g transform="translate(62.000000, 62.000000)">
                        <path d="M150.4,27.7 C184.3,61.6 184.3,116.6 150.4,150.5 C116.5,184.4 61.5,184.4 27.6,150.5 C17,139.9 9.8,127.3 5.8,113.9 C35.4,122.7 68.7,115.4 92,92.1 C115.3,68.8 122.6,35.4 113.8,5.9 C127.2,9.9 139.9,17.2 150.4,27.7 Z" id="Path" fill="#E0719E"></path>
                        <path d="M89,181 C64.5,181 41.4,171.4 24.1,154.1 C13.3,143.3 5.3,130 1,115.4 C0.5,113.6 1,111.7 2.3,110.4 C3.6,109.1 5.5,108.6 7.3,109.1 C36.2,117.7 67.3,109.8 88.6,88.5 C109.9,67.2 117.8,36.1 109.2,7.2 C108.7,5.4 109.2,3.5 110.5,2.2 C111.8,0.9 113.7,0.4 115.5,0.9 C130,5.2 143.4,13.2 154.2,24 L154.2,24 L154.2,24 C190,59.8 190,118.1 154.2,153.9 C136.6,171.4 113.5,181 89,181 Z M13.6,121 C17.7,130.7 23.6,139.5 31.1,147 C46.6,162.5 67.1,171 89,171 C110.9,171 131.4,162.5 146.9,147 C178.8,115.1 178.8,63.2 146.9,31.3 L146.9,31.3 C139.4,23.8 130.6,17.9 120.9,13.8 C126.5,43.4 117.2,74.1 95.6,95.7 C74,117.3 43.3,126.6 13.6,121 Z" id="Shape" fill="#383A48"></path>
                    </g>
                    <g transform="translate(35.000000, 35.000000)">
                        <ellipse id="Oval" fill="#AAC6FC" transform="translate(86.750270, 86.893910) rotate(-45.000000) translate(-86.750270, -86.893910) " cx="86.75027" cy="86.89391" rx="76.3992673" ry="45.4995637"></ellipse>
                        <path d="M57.7,149.6 C48.9,149.6 40.1,148.3 31.4,145.8 C29.8,145.3 28.5,144.1 28,142.4 C18.4,110 27.2,75.1 51.1,51.2 C75,27.3 109.9,18.5 142.3,28.1 C143.9,28.6 145.2,29.8 145.7,31.5 C155.3,63.9 146.5,98.8 122.6,122.7 C105.1,140.2 81.7,149.6 57.7,149.6 Z M36.9,136.9 C65,144.3 94.9,136.2 115.5,115.6 C136.1,95 144.2,65.1 136.8,37 C108.7,29.6 78.8,37.7 58.2,58.3 C37.5,78.9 29.5,108.8 36.9,136.9 Z" id="Shape" fill="#383A48"></path>
                    </g>
                    <g>
                        <path d="M154,31.3 C164.6,41.9 171.8,54.5 175.8,67.9 C146.2,59.1 112.9,66.4 89.6,89.7 C66.3,113 59,146.4 67.8,175.9 C54.4,171.9 41.8,164.7 31.2,154.1 C-2.7,120.2 -2.7,65.2 31.2,31.3 C65.1,-2.6 120.1,-2.6 154,31.3 Z" id="Path" fill="#E0719E"></path>
                        <path d="M67.8,181 C67.3,181 66.8,180.9 66.4,180.8 C51.9,176.5 38.5,168.5 27.7,157.7 C-8.1,121.9 -8.1,63.6 27.7,27.8 C45,10.5 68.1,0.9 92.6,0.9 L92.6,0.9 C117.1,0.9 140.2,10.5 157.5,27.8 L157.5,27.8 C168.3,38.6 176.3,52 180.6,66.5 C181.1,68.3 180.6,70.2 179.3,71.5 C178,72.8 176.1,73.3 174.3,72.8 C145.4,64.2 114.3,72.1 93,93.4 C71.7,114.7 63.8,145.8 72.4,174.7 C72.9,176.5 72.4,178.4 71.1,179.7 C70.4,180.4 69.1,181 67.8,181 Z M92.6,10.9 C70.7,10.9 50.2,19.4 34.7,34.9 C2.8,66.8 2.8,118.7 34.7,150.6 C42.2,158.1 51,164 60.7,168.1 C55.1,138.5 64.4,107.8 86,86.2 C107.6,64.6 138.3,55.3 167.9,60.9 C163.8,51.2 157.8,42.4 150.4,34.9 L150.4,34.9 C135,19.4 114.5,10.9 92.6,10.9 Z" id="Shape" fill="#383A48"></path>
                    </g>
                </g>
                <path d="M899.2,69.8 L884.6,55.3 C871.8,42.5 851.1,42.6 838.3,55.3 L823.9,69.8 C819.6,74.1 813.9,76.5 807.8,76.5 L807.8,76.5 C801.7,76.5 796,74.1 791.7,69.9 L777.2,55.5 C764.4,42.7 743.7,42.8 730.9,55.5 L716.5,70 C712.2,74.3 706.5,76.7 700.4,76.7 L700.4,76.7 C694.3,76.7 688.6,74.3 684.3,70.1 L670,55.4 C663.8,49.2 655.6,45.8 646.9,45.8 L646.9,45.8 C638.2,45.8 629.9,49.2 623.8,55.4 L607.9,71.3 C607,72.2 606.4,73.5 606.4,74.8 L606.4,114.8 C606.4,116.8 607.6,118.6 609.5,119.4 C611.4,120.2 613.5,119.7 614.9,118.3 L630.8,102.4 C639.7,93.5 654.1,93.5 662.9,102.4 L677.4,116.8 C683.6,123 691.8,126.4 700.5,126.4 L700.5,126.4 C709.2,126.4 717.5,123 723.6,116.8 L738,102.3 C742.3,98 748,95.6 754.1,95.6 L754.1,95.6 C760.2,95.6 765.9,98 770.2,102.2 L784.7,116.6 C797.5,129.4 818.2,129.3 831,116.6 L845.4,102.1 C849.7,97.8 855.4,95.4 861.5,95.4 L861.5,95.4 C867.6,95.4 873.3,97.8 877.6,102 L892.2,116.5 C893.6,117.9 895.8,118.4 897.6,117.6 C899.4,116.8 900.7,115 900.7,113 L900.7,73 C900.7,72 900.1,70.8 899.2,69.8 Z" id="Path" fill="#F3F6E6"></path>
            </g>
        </g>
    </g>
</svg>