<svg xmlns="http://www.w3.org/2000/svg" xmlns:xlink="http://www.w3.org/1999/xlink" width="1470" height="751" version="1.1" viewBox="0 0 1470 751"><title>abstract-location-access</title><desc>Created with Sketch.</desc><g id="Page-1" fill="none" fill-rule="evenodd" stroke="none" stroke-width="1"><g id="abstract-location-access" transform="translate(-213.000000, -150.000000)"><g id="Group" transform="translate(213.000000, 150.000000)"><path id="Path" fill="#F3F6E6" fill-rule="nonzero" d="M1465.8,19.6 C1463.6,19 1461.3,19.9 1460.2,21.8 C1459.9,22.3 1427.7,74.2 1372.2,85.7 C1337.5,92.9 1300.8,82.9 1263.2,56.2 C1201.5,12.4 1135.3,-6.4 1071.8,2 C1012.2,9.8 959.4,41.6 922.9,91.3 C896.8,126.9 855.1,145.9 819,138.7 C792.7,133.4 774.5,115.3 767.9,87.8 C767.4,85.9 765.8,84.4 763.9,84 C761.9,83.7 759.9,84.6 758.9,86.2 L693.8,188.2 C692.7,189.9 692.8,192.1 693.9,193.8 L768.7,299.6 C769.5,300.7 770.7,301.5 772,301.7 L1353.7,388.2 C1353.9,388.2 1354.2,388.3 1354.4,388.3 C1356.2,388.3 1357.8,387.4 1358.7,385.8 L1468.9,193.5 C1469.3,192.7 1469.6,191.9 1469.6,191 L1469.6,24.4 C1469.5,22.1 1468,20.2 1465.8,19.6 Z"/><path id="Path" fill="#F3F6E6" fill-rule="nonzero" d="M697.8,740 C579,740 502.1,720.6 448.3,677.2 C397.6,636.3 369.5,575.1 337,504.1 C310.3,445.9 255.8,411.9 198,375.8 C152.6,347.5 105.7,318.2 70.3,275.4 C30.4,227.2 11,167.9 11,94.2 C11,91.4 8.8,89.2 6,89.2 C3.2,89.2 1,91.4 1,94.2 L1,745 C1,747.8 3.2,750 6,750 L697.9,750 C700.7,750 702.9,747.8 702.9,745 C702.9,742.2 700.6,740 697.8,740 Z"/><g fill-rule="nonzero"><g transform="translate(692.000000, 185.000000)"><rect id="Rectangle" width="766.7" height="554.1" x="5.8" y="5.9" fill="#AAC6FC"/><path id="Shape" fill="#383A48" d="M772.5,565 L5.8,565 C3,565 0.8,562.8 0.8,560 L0.8,5.9 C0.8,3.1 3,0.9 5.8,0.9 L772.5,0.9 C775.3,0.9 777.5,3.1 777.5,5.9 L777.5,560 C777.5,562.7 775.2,565 772.5,565 Z M10.8,555 L767.5,555 L767.5,10.9 L10.8,10.9 L10.8,555 Z"/></g><g transform="translate(692.000000, 185.000000) translate(40.000000, 43.000000)"><g transform="translate(4.000000, 0.000000)"><rect id="Rectangle" width="680.2" height="468.5" x="5.1" y="5.6" fill="#F3F6E6"/><path id="Shape" fill="#383A48" d="M685.2,479.2 L5.1,479.2 C2.3,479.2 0.1,477 0.1,474.2 L0.1,5.6 C0.1,2.8 2.3,0.6 5.1,0.6 L685.3,0.6 C688.1,0.6 690.3,2.8 690.3,5.6 L690.3,474.1 C690.2,477 688,479.2 685.2,479.2 Z M10.1,469.2 L680.3,469.2 L680.3,10.6 L10.1,10.6 L10.1,469.2 Z"/></g><g><rect id="Rectangle" width="499.61" height="10" x="190.023" y="84.611" fill="#AAC6FC" transform="translate(439.827699, 89.611038) rotate(-2.944438) translate(-439.827699, -89.611038)"/><path id="Shape" fill="#AAC6FC" d="M609.7,232.7 L688.1,241.2 L690.3,221.3 L217.2,169.7 C208.9,157.3 194.5,149.1 178.1,149.1 C176.3,149.1 174.6,149.2 172.8,149.4 L87,0.6 L69.7,10.6 L153.5,155.9 C140.4,163.8 131.7,177.8 131.7,193.8 C131.7,204 135.3,213.4 141.3,220.9 L0.4,469.3 L17.8,479.2 L66.7,393 L263.4,413.2 L289,477.9 L307.6,470.5 L285.8,415.4 L570.3,444.6 L567.7,473.3 L587.6,475.1 L590.2,446.7 L688.8,456.8 L689.8,446.9 L591.1,436.8 L609.7,232.7 Z M178.1,169.1 C192.7,169.1 204.5,180.2 204.5,193.8 C204.5,207.4 192.7,218.5 178.1,218.5 C163.5,218.5 151.7,207.4 151.7,193.8 C151.7,180.2 163.6,169.1 178.1,169.1 Z M72,383.5 L157,233.7 C163.3,236.8 170.5,238.6 178.1,238.6 C183.4,238.6 188.5,237.7 193.2,236.2 L259.2,402.8 L72,383.5 Z M281.6,405 L210.6,225.8 C219.2,217.7 224.5,206.4 224.5,193.9 C224.5,192.8 224.4,191.8 224.4,190.7 L589.8,230.5 L571.1,434.7 L281.6,405 Z"/><circle id="Oval" cx="373.9" cy="419.4" r="46.1" fill="#E0719E"/></g><path id="Shape" fill="#383A48" d="M689.2,479.2 L9.1,479.2 C6.3,479.2 4.1,477 4.1,474.2 L4.1,5.6 C4.1,2.8 6.3,0.6 9.1,0.6 L689.3,0.6 C692.1,0.6 694.3,2.8 694.3,5.6 L694.3,474.1 C694.2,477 692,479.2 689.2,479.2 Z M14.1,469.2 L684.3,469.2 L684.3,10.6 L14.1,10.6 L14.1,469.2 Z"/></g></g><path id="Path" fill="#383A48" fill-rule="nonzero" d="M834.4,185.9 L697.8,185.9 C695,185.9 692.8,188.1 692.8,190.9 L692.8,489.7 C692.8,492.5 695,494.7 697.8,494.7 L769.4,494.7 C808,494.7 839.4,463.3 839.4,424.7 L839.4,190.9 C839.4,188.1 837.1,185.9 834.4,185.9 Z"/><g id="Oval" fill="#383A48" fill-rule="nonzero" transform="translate(116.000000, 42.000000)"><circle cx="573" cy="54.9" r="5"/><circle cx="573" cy="79.5" r="5"/><circle cx="573" cy="104.2" r="5"/><circle cx="573" cy="128.9" r="5"/><circle cx="573" cy="153.5" r="5"/><circle cx="573" cy="178.2" r="5"/><circle cx="573" cy="202.9" r="5"/><circle cx="573" cy="227.5" r="5"/><circle cx="573" cy="252.2" r="5"/><circle cx="573" cy="276.9" r="5"/><circle cx="573" cy="301.5" r="5"/><circle cx="573" cy="326.2" r="5"/><circle cx="548.3" cy="30.2" r="5"/><circle cx="548.3" cy="54.9" r="5"/><circle cx="548.3" cy="79.5" r="5"/><circle cx="548.3" cy="104.2" r="5"/><circle cx="548.3" cy="128.9" r="5"/><circle cx="548.3" cy="153.5" r="5"/><circle cx="548.3" cy="178.2" r="5"/><circle cx="548.3" cy="202.9" r="5"/><circle cx="548.3" cy="227.5" r="5"/><circle cx="548.3" cy="252.2" r="5"/><circle cx="548.3" cy="276.9" r="5"/><circle cx="548.3" cy="301.5" r="5"/><circle cx="548.3" cy="326.2" r="5"/><circle cx="548.3" cy="350.9" r="5"/><circle cx="523.6" cy="5.5" r="5"/><circle cx="523.6" cy="30.2" r="5"/><circle cx="523.6" cy="54.9" r="5"/><circle cx="523.6" cy="79.5" r="5"/><circle cx="523.6" cy="104.2" r="5"/><circle cx="523.6" cy="128.9" r="5"/><circle cx="523.6" cy="153.5" r="5"/><circle cx="523.6" cy="178.2" r="5"/><circle cx="523.6" cy="202.9" r="5"/><circle cx="523.6" cy="227.5" r="5"/><circle cx="523.6" cy="252.2" r="5"/><circle cx="523.6" cy="276.9" r="5"/><circle cx="523.6" cy="301.5" r="5"/><circle cx="523.6" cy="326.2" r="5"/><circle cx="523.6" cy="350.9" r="5"/><circle cx="523.6" cy="375.5" r="5"/><circle cx="499" cy="5.5" r="5"/><circle cx="499" cy="30.2" r="5"/><circle cx="499" cy="54.9" r="5"/><circle cx="499" cy="79.5" r="5"/><circle cx="499" cy="104.2" r="5"/><circle cx="499" cy="128.9" r="5"/><circle cx="499" cy="153.5" r="5"/><circle cx="499" cy="178.2" r="5"/><circle cx="499" cy="202.9" r="5"/><circle cx="499" cy="227.5" r="5"/><circle cx="499" cy="252.2" r="5"/><circle cx="499" cy="276.9" r="5"/><circle cx="499" cy="301.5" r="5"/><circle cx="499" cy="326.2" r="5"/><circle cx="499" cy="350.9" r="5"/><circle cx="499" cy="375.5" r="5"/><circle cx="474.3" cy="5.5" r="5"/><circle cx="474.3" cy="30.2" r="5"/><circle cx="474.3" cy="54.9" r="5"/><circle cx="474.3" cy="79.5" r="5"/><circle cx="474.3" cy="104.2" r="5"/><circle cx="474.3" cy="128.9" r="5"/><circle cx="474.3" cy="153.5" r="5"/><circle cx="474.3" cy="178.2" r="5"/><circle cx="474.3" cy="202.9" r="5"/><circle cx="474.3" cy="227.5" r="5"/><circle cx="474.3" cy="252.2" r="5"/><circle cx="474.3" cy="276.9" r="5"/><circle cx="474.3" cy="301.5" r="5"/><circle cx="474.3" cy="326.2" r="5"/><circle cx="474.3" cy="350.9" r="5"/><circle cx="474.3" cy="375.5" r="5"/><circle cx="449.6" cy="5.5" r="5"/><circle cx="449.6" cy="30.2" r="5"/><circle cx="449.6" cy="54.9" r="5"/><circle cx="449.6" cy="79.5" r="5"/><circle cx="449.6" cy="104.2" r="5"/><circle cx="449.6" cy="128.9" r="5"/><circle cx="449.6" cy="153.5" r="5"/><circle cx="449.6" cy="178.2" r="5"/><circle cx="449.6" cy="202.9" r="5"/><circle cx="449.6" cy="227.5" r="5"/><circle cx="449.6" cy="252.2" r="5"/><circle cx="449.6" cy="276.9" r="5"/><circle cx="449.6" cy="301.5" r="5"/><circle cx="449.6" cy="326.2" r="5"/><circle cx="449.6" cy="350.9" r="5"/><circle cx="449.6" cy="375.5" r="5"/><circle cx="425" cy="5.5" r="5"/><circle cx="425" cy="30.2" r="5"/><circle cx="425" cy="54.9" r="5"/><circle cx="425" cy="79.5" r="5"/><circle cx="425" cy="104.2" r="5"/><circle cx="425" cy="128.9" r="5"/><circle cx="425" cy="153.5" r="5"/><circle cx="425" cy="178.2" r="5"/><circle cx="425" cy="202.9" r="5"/><circle cx="425" cy="227.5" r="5"/><circle cx="425" cy="252.2" r="5"/><circle cx="425" cy="276.9" r="5"/><circle cx="425" cy="301.5" r="5"/><circle cx="425" cy="326.2" r="5"/><circle cx="425" cy="350.9" r="5"/><circle cx="425" cy="375.5" r="5"/><circle cx="400.3" cy="5.5" r="5"/><circle cx="400.3" cy="30.2" r="5"/><circle cx="400.3" cy="54.9" r="5"/><circle cx="400.3" cy="79.5" r="5"/><circle cx="400.3" cy="104.2" r="5"/><circle cx="400.3" cy="128.9" r="5"/><circle cx="400.3" cy="153.5" r="5"/><circle cx="400.3" cy="178.2" r="5"/><circle cx="400.3" cy="202.9" r="5"/><circle cx="400.3" cy="227.5" r="5"/><circle cx="400.3" cy="252.2" r="5"/><circle cx="400.3" cy="276.9" r="5"/><circle cx="400.3" cy="301.5" r="5"/><circle cx="400.3" cy="326.2" r="5"/><circle cx="400.3" cy="350.9" r="5"/><circle cx="400.3" cy="375.5" r="5"/><circle cx="375.6" cy="5.5" r="5"/><circle cx="375.6" cy="30.2" r="5"/><circle cx="375.6" cy="54.9" r="5"/><circle cx="375.6" cy="79.5" r="5"/><circle cx="375.6" cy="104.2" r="5"/><circle cx="375.6" cy="128.9" r="5"/><circle cx="375.6" cy="153.5" r="5"/><circle cx="375.6" cy="178.2" r="5"/><circle cx="375.6" cy="202.9" r="5"/><circle cx="375.6" cy="227.5" r="5"/><circle cx="375.6" cy="252.2" r="5"/><circle cx="375.6" cy="276.9" r="5"/><circle cx="375.6" cy="301.5" r="5"/><circle cx="375.6" cy="326.2" r="5"/><circle cx="375.6" cy="350.9" r="5"/><circle cx="375.6" cy="375.5" r="5"/><circle cx="351" cy="5.5" r="5"/><circle cx="351" cy="30.2" r="5"/><circle cx="351" cy="54.9" r="5"/><circle cx="351" cy="79.5" r="5"/><circle cx="351" cy="104.2" r="5"/><circle cx="351" cy="128.9" r="5"/><circle cx="351" cy="153.5" r="5"/><circle cx="351" cy="178.2" r="5"/><circle cx="351" cy="202.9" r="5"/><circle cx="351" cy="227.5" r="5"/><circle cx="351" cy="252.2" r="5"/><circle cx="351" cy="276.9" r="5"/><circle cx="351" cy="301.5" r="5"/><circle cx="351" cy="326.2" r="5"/><circle cx="351" cy="350.9" r="5"/><circle cx="351" cy="375.5" r="5"/><circle cx="326.3" cy="5.5" r="5"/><circle cx="326.3" cy="30.2" r="5"/><circle cx="326.3" cy="54.9" r="5"/><circle cx="326.3" cy="79.5" r="5"/><circle cx="326.3" cy="104.2" r="5"/><circle cx="326.3" cy="128.9" r="5"/><circle cx="326.3" cy="153.5" r="5"/><circle cx="326.3" cy="178.2" r="5"/><circle cx="326.3" cy="202.9" r="5"/><circle cx="326.3" cy="227.5" r="5"/><circle cx="326.3" cy="252.2" r="5"/><circle cx="326.3" cy="276.9" r="5"/><circle cx="326.3" cy="301.5" r="5"/><circle cx="326.3" cy="326.2" r="5"/><circle cx="326.3" cy="350.9" r="5"/><circle cx="326.3" cy="375.5" r="5"/><circle cx="301.6" cy="5.5" r="5"/><circle cx="301.6" cy="30.2" r="5"/><circle cx="301.6" cy="54.9" r="5"/><circle cx="301.6" cy="79.5" r="5"/><circle cx="301.6" cy="104.2" r="5"/><circle cx="301.6" cy="128.9" r="5"/><circle cx="301.6" cy="153.5" r="5"/><circle cx="301.6" cy="178.2" r="5"/><circle cx="301.6" cy="202.9" r="5"/><circle cx="301.6" cy="227.5" r="5"/><circle cx="301.6" cy="252.2" r="5"/><circle cx="301.6" cy="276.9" r="5"/><circle cx="301.6" cy="301.5" r="5"/><circle cx="301.6" cy="326.2" r="5"/><circle cx="301.6" cy="350.9" r="5"/><circle cx="301.6" cy="375.5" r="5"/><circle cx="277" cy="5.5" r="5"/><circle cx="277" cy="30.2" r="5"/><circle cx="277" cy="54.9" r="5"/><circle cx="277" cy="79.5" r="5"/><circle cx="277" cy="104.2" r="5"/><circle cx="277" cy="128.9" r="5"/><circle cx="277" cy="153.5" r="5"/><circle cx="277" cy="178.2" r="5"/><circle cx="277" cy="202.9" r="5"/><circle cx="277" cy="227.5" r="5"/><circle cx="277" cy="252.2" r="5"/><circle cx="277" cy="276.9" r="5"/><circle cx="277" cy="301.5" r="5"/><circle cx="277" cy="326.2" r="5"/><circle cx="277" cy="350.9" r="5"/><circle cx="277" cy="375.5" r="5"/><circle cx="252.3" cy="5.5" r="5"/><circle cx="252.3" cy="30.2" r="5"/><circle cx="252.3" cy="54.9" r="5"/><circle cx="252.3" cy="79.5" r="5"/><circle cx="252.3" cy="104.2" r="5"/><circle cx="252.3" cy="128.9" r="5"/><circle cx="252.3" cy="153.5" r="5"/><circle cx="252.3" cy="178.2" r="5"/><circle cx="252.3" cy="202.9" r="5"/><circle cx="252.3" cy="227.5" r="5"/><circle cx="252.3" cy="252.2" r="5"/><circle cx="252.3" cy="276.9" r="5"/><circle cx="252.3" cy="301.5" r="5"/><circle cx="252.3" cy="326.2" r="5"/><circle cx="252.3" cy="350.9" r="5"/><circle cx="252.3" cy="375.5" r="5"/><circle cx="227.6" cy="5.5" r="5"/><circle cx="227.6" cy="30.2" r="5"/><circle cx="227.6" cy="54.9" r="5"/><circle cx="227.6" cy="79.5" r="5"/><circle cx="227.6" cy="104.2" r="5"/><circle cx="227.6" cy="128.9" r="5"/><circle cx="227.6" cy="153.5" r="5"/><circle cx="227.6" cy="178.2" r="5"/><circle cx="227.6" cy="202.9" r="5"/><circle cx="227.6" cy="227.5" r="5"/><circle cx="227.6" cy="252.2" r="5"/><circle cx="227.6" cy="276.9" r="5"/><circle cx="227.6" cy="301.5" r="5"/><circle cx="227.6" cy="326.2" r="5"/><circle cx="227.6" cy="350.9" r="5"/><circle cx="227.6" cy="375.5" r="5"/><circle cx="203" cy="5.5" r="5"/><circle cx="203" cy="30.2" r="5"/><circle cx="203" cy="54.9" r="5"/><circle cx="203" cy="79.5" r="5"/><circle cx="203" cy="104.2" r="5"/><circle cx="203" cy="128.9" r="5"/><circle cx="203" cy="153.5" r="5"/><circle cx="203" cy="178.2" r="5"/><circle cx="203" cy="202.9" r="5"/><circle cx="203" cy="227.5" r="5"/><circle cx="203" cy="252.2" r="5"/><circle cx="203" cy="276.9" r="5"/><circle cx="203" cy="301.5" r="5"/><circle cx="203" cy="326.2" r="5"/><circle cx="203" cy="350.9" r="5"/><circle cx="203" cy="375.5" r="5"/><circle cx="178.3" cy="5.5" r="5"/><circle cx="178.3" cy="30.2" r="5"/><circle cx="178.3" cy="54.9" r="5"/><circle cx="178.3" cy="79.5" r="5"/><circle cx="178.3" cy="104.2" r="5"/><circle cx="178.3" cy="128.9" r="5"/><circle cx="178.3" cy="153.5" r="5"/><circle cx="178.3" cy="178.2" r="5"/><circle cx="178.3" cy="202.9" r="5"/><circle cx="178.3" cy="227.5" r="5"/><circle cx="178.3" cy="252.2" r="5"/><circle cx="178.3" cy="276.9" r="5"/><circle cx="178.3" cy="301.5" r="5"/><circle cx="178.3" cy="326.2" r="5"/><circle cx="178.3" cy="350.9" r="5"/><circle cx="178.3" cy="375.5" r="5"/><circle cx="153.6" cy="5.5" r="5"/><circle cx="153.6" cy="30.2" r="5"/><circle cx="153.6" cy="54.9" r="5"/><circle cx="153.6" cy="79.5" r="5"/><circle cx="153.6" cy="104.2" r="5"/><circle cx="153.6" cy="128.9" r="5"/><circle cx="153.6" cy="153.5" r="5"/><circle cx="153.6" cy="178.2" r="5"/><circle cx="153.6" cy="202.9" r="5"/><circle cx="153.6" cy="227.5" r="5"/><circle cx="153.6" cy="252.2" r="5"/><circle cx="153.6" cy="276.9" r="5"/><circle cx="153.6" cy="301.5" r="5"/><circle cx="153.6" cy="326.2" r="5"/><circle cx="153.6" cy="350.9" r="5"/><circle cx="153.6" cy="375.5" r="5"/><circle cx="129" cy="5.5" r="5"/><circle cx="129" cy="30.2" r="5"/><circle cx="129" cy="54.9" r="5"/><circle cx="129" cy="79.5" r="5"/><circle cx="129" cy="104.2" r="5"/><circle cx="129" cy="128.9" r="5"/><circle cx="129" cy="153.5" r="5"/><circle cx="129" cy="178.2" r="5"/><circle cx="129" cy="202.9" r="5"/><circle cx="129" cy="227.5" r="5"/><circle cx="129" cy="252.2" r="5"/><circle cx="129" cy="276.9" r="5"/><circle cx="129" cy="301.5" r="5"/><circle cx="129" cy="326.2" r="5"/><circle cx="129" cy="350.9" r="5"/><circle cx="129" cy="375.5" r="5"/><circle cx="129" cy="400.2" r="5"/><circle cx="104.3" cy="5.5" r="5"/><circle cx="104.3" cy="30.2" r="5"/><circle cx="104.3" cy="54.9" r="5"/><circle cx="104.3" cy="79.5" r="5"/><circle cx="104.3" cy="104.2" r="5"/><circle cx="104.3" cy="128.9" r="5"/><circle cx="104.3" cy="153.5" r="5"/><circle cx="104.3" cy="178.2" r="5"/><circle cx="104.3" cy="202.9" r="5"/><circle cx="104.3" cy="227.5" r="5"/><circle cx="104.3" cy="252.2" r="5"/><circle cx="104.3" cy="276.9" r="5"/><circle cx="104.3" cy="301.5" r="5"/><circle cx="104.3" cy="326.2" r="5"/><circle cx="104.3" cy="350.9" r="5"/><circle cx="104.3" cy="375.5" r="5"/><circle cx="104.3" cy="400.2" r="5"/><circle cx="104.3" cy="424.9" r="5"/><circle cx="104.3" cy="449.5" r="5"/><circle cx="79.6" cy="5.5" r="5"/><circle cx="79.6" cy="30.2" r="5"/><circle cx="79.6" cy="54.9" r="5"/><circle cx="79.6" cy="79.5" r="5"/><circle cx="79.6" cy="104.2" r="5"/><circle cx="79.6" cy="128.9" r="5"/><circle cx="79.6" cy="153.5" r="5"/><circle cx="79.6" cy="178.2" r="5"/><circle cx="79.6" cy="202.9" r="5"/><circle cx="79.6" cy="227.5" r="5"/><circle cx="79.6" cy="252.2" r="5"/><circle cx="79.6" cy="276.9" r="5"/><circle cx="79.6" cy="301.5" r="5"/><circle cx="79.6" cy="326.2" r="5"/><circle cx="79.6" cy="350.9" r="5"/><circle cx="79.6" cy="375.5" r="5"/><circle cx="79.6" cy="400.2" r="5"/><circle cx="79.6" cy="424.9" r="5"/><circle cx="79.6" cy="449.5" r="5"/><circle cx="79.6" cy="474.2" r="5"/><circle cx="55" cy="5.5" r="5"/><circle cx="55" cy="30.2" r="5"/><circle cx="55" cy="54.9" r="5"/><circle cx="55" cy="79.5" r="5"/><circle cx="55" cy="104.2" r="5"/><circle cx="55" cy="128.9" r="5"/><circle cx="55" cy="153.5" r="5"/><circle cx="55" cy="178.2" r="5"/><circle cx="55" cy="202.9" r="5"/><circle cx="55" cy="227.5" r="5"/><circle cx="55" cy="252.2" r="5"/><circle cx="55" cy="276.9" r="5"/><circle cx="55" cy="301.5" r="5"/><circle cx="55" cy="326.2" r="5"/><circle cx="55" cy="350.9" r="5"/><circle cx="55" cy="375.5" r="5"/><circle cx="55" cy="400.2" r="5"/><circle cx="55" cy="424.9" r="5"/><circle cx="55" cy="449.5" r="5"/><circle cx="55" cy="474.2" r="5"/><circle cx="30.3" cy="5.5" r="5"/><circle cx="30.3" cy="30.2" r="5"/><circle cx="30.3" cy="54.9" r="5"/><circle cx="30.3" cy="79.5" r="5"/><circle cx="30.3" cy="104.2" r="5"/><circle cx="30.3" cy="128.9" r="5"/><circle cx="30.3" cy="153.5" r="5"/><circle cx="30.3" cy="178.2" r="5"/><circle cx="30.3" cy="202.9" r="5"/><circle cx="30.3" cy="227.5" r="5"/><circle cx="30.3" cy="252.2" r="5"/><circle cx="30.3" cy="276.9" r="5"/><circle cx="30.3" cy="301.5" r="5"/><circle cx="30.3" cy="326.2" r="5"/><circle cx="30.3" cy="350.9" r="5"/><circle cx="30.3" cy="375.5" r="5"/><circle cx="30.3" cy="449.5" r="5"/><circle cx="30.3" cy="474.2" r="5"/><circle cx="5.6" cy="30.2" r="5"/><circle cx="5.6" cy="54.9" r="5"/><circle cx="5.6" cy="79.5" r="5"/><circle cx="5.6" cy="104.2" r="5"/><circle cx="5.6" cy="128.9" r="5"/><circle cx="5.6" cy="153.5" r="5"/><circle cx="5.6" cy="178.2" r="5"/><circle cx="5.6" cy="202.9" r="5"/><circle cx="5.6" cy="227.5" r="5"/><circle cx="5.6" cy="252.2" r="5"/><circle cx="5.6" cy="276.9" r="5"/><circle cx="5.6" cy="301.5" r="5"/><circle cx="5.6" cy="326.2" r="5"/><circle cx="5.6" cy="350.9" r="5"/></g><g fill-rule="nonzero" transform="translate(167.000000, 41.000000)"><g><path id="Path" fill="#F3F6E6" d="M539.4,5.4 L64.7,5.4 C32.2,5.4 5.9,31.7 5.9,64.2 L5.9,321 C5.9,353.5 32.2,379.8 64.7,379.8 L91.6,379.8 L25.7,499.5 L175.3,379.8 L539.4,379.8 C571.9,379.8 598.2,353.5 598.2,321 L598.2,64.3 C598.2,31.8 571.9,5.4 539.4,5.4 Z"/><path id="Shape" fill="#383A48" d="M25.8,504.6 C24.7,504.6 23.5,504.2 22.6,503.4 C20.8,501.9 20.3,499.3 21.4,497.2 L83.2,384.9 L64.7,384.9 C29.5,384.9 0.9,356.3 0.9,321.1 L0.9,64.3 C0.9,29.1 29.5,0.5 64.7,0.5 L539.4,0.5 C574.6,0.5 603.2,29.1 603.2,64.3 L603.2,321 C603.2,356.2 574.6,384.8 539.4,384.8 L177.1,384.8 L28.9,503.5 C28,504.2 26.9,504.6 25.8,504.6 Z M64.7,10.4 C35,10.4 10.9,34.5 10.9,64.2 L10.9,321 C10.9,350.7 35,374.8 64.7,374.8 L91.6,374.8 C93.4,374.8 95,375.7 95.9,377.3 C96.8,378.8 96.8,380.7 96,382.3 L42.3,480 L172.2,376 C173.1,375.3 174.2,374.9 175.3,374.9 L539.4,374.9 C569.1,374.9 593.2,350.8 593.2,321.1 L593.2,64.3 C593.2,34.6 569.1,10.5 539.4,10.5 L64.7,10.5 L64.7,10.4 Z"/></g><path id="Path" fill="#4053FA" d="M426.2,152.1 L305,64.6 C303.3,63.3 300.9,63.3 299.1,64.6 L177.9,152.1 C176.1,153.4 175.4,155.6 176.1,157.7 C176.8,159.8 178.7,161.2 180.9,161.2 L204.9,161.2 L204.9,276.4 C204.9,279.2 207.1,281.4 209.9,281.4 L272.6,281.4 L272.6,276.4 L272.6,271.4 L272.6,198.8 C272.6,196 274.8,193.8 277.6,193.8 L326.6,193.8 C329.4,193.8 331.6,196 331.6,198.8 L331.6,271.4 L331.6,276.4 L331.6,281.4 L394.3,281.4 C397.1,281.4 399.3,279.2 399.3,276.4 L399.3,161.2 L423.3,161.2 C425.5,161.2 427.4,159.8 428.1,157.7 C428.7,155.6 428,153.4 426.2,152.1 Z"/></g><g fill-rule="nonzero" transform="translate(899.000000, 36.000000)"><path id="Path" fill="#383A48" d="M521.1,153.2 C520.4,151.2 518.5,149.9 516.4,149.9 L128.1,149.9 C126,149.9 124.1,151.2 123.4,153.2 C121.9,157.5 120.4,162 119.1,166.7 C103.9,221.1 113.3,314.5 147,444.1 C172,540.3 201.8,621.7 202.1,622.5 C202.6,624 203.9,625.1 205.4,625.6 C205.9,625.7 206.3,625.8 206.8,625.8 C207.9,625.8 208.9,625.4 209.8,624.8 C210.5,624.3 279.9,571.3 353,502.6 C451.5,410 509.5,334.5 525.3,278 C536.9,236.6 535.4,193.5 521.1,153.2 Z"/><g><path id="Path" fill="#F6E049" d="M408.5,207 C408.5,346.1 206.8,620.7 206.8,620.7 C206.8,620.7 5.2,341.2 5.2,207 C5.2,95.6 95.5,5.3 206.9,5.3 C318.2,5.3 408.5,95.6 408.5,207 Z"/><path id="Shape" fill="#383A48" d="M206.8,625.7 L206.8,625.7 C205.2,625.7 203.7,624.9 202.7,623.6 C202.2,622.9 151.6,552.5 101.6,466.7 C34.2,350.9 0.1,263.6 0.1,207 C0.1,93 92.8,0.3 206.8,0.3 C320.8,0.3 413.5,93 413.5,207 C413.5,265.6 379.3,353.6 312,468.5 C262,553.8 211.4,622.9 210.9,623.6 C209.9,625 208.4,625.7 206.8,625.7 Z M206.8,10.3 C98.3,10.3 10.1,98.5 10.1,207 C10.1,275.2 64.6,383.1 110.3,461.6 C151.9,533.1 193.9,593.7 206.9,612.1 C219.9,594 261.9,534.3 303.4,463.4 C349.1,385.5 403.5,277.7 403.5,207 C403.5,98.6 315.3,10.3 206.8,10.3 Z"/></g><g transform="translate(93.000000, 94.000000)"><circle id="Oval" cx="113.9" cy="113" r="107.9" fill="#F3F6E6"/><path id="Shape" fill="#383A48" d="M113.8,225.9 C51.6,225.9 0.9,175.3 0.9,113 C0.9,50.7 51.5,0.1 113.8,0.1 C176.1,0.1 226.7,50.7 226.7,113 C226.7,175.3 176.1,225.9 113.8,225.9 Z M113.8,10.2 C57.1,10.2 10.9,56.4 10.9,113.1 C10.9,169.8 57.1,216 113.8,216 C170.5,216 216.7,169.8 216.7,113.1 C216.7,56.4 170.6,10.2 113.8,10.2 Z"/></g></g><path id="Shape" fill="#383A48" fill-rule="nonzero" d="M329.6,650.7 C315.4,650.7 300.7,647.9 285.7,641.6 C283.2,640.5 282,637.6 283,635.1 C284,632.6 287,631.4 289.5,632.4 C342.8,654.7 393,628.5 419.2,592.6 C425.4,584.1 430.1,575.4 433.1,567 C414.6,560.5 402.8,550.1 396.4,543 C388.4,534.1 385.5,523.5 388.7,514.1 C391.4,506 398.2,500 406.6,498.4 C416.6,496.4 427.2,501 435.6,510.8 C446.6,523.7 449.8,541.3 445.5,560.3 C451.9,561.8 459.1,562.8 467,563.1 C504.4,564.2 548.9,548.2 599.3,515.5 C601.6,514 604.7,514.7 606.2,517 C607.7,519.3 607,522.4 604.7,523.9 C554.3,556.6 509.1,573.1 470.5,573.1 C469.2,573.1 467.9,573.1 466.6,573 C457.7,572.7 449.8,571.6 442.6,569.8 C439.3,579.3 434.1,589 427.2,598.5 C406.2,627.5 370.5,650.7 329.6,650.7 Z M411.2,507.9 C410.3,507.9 409.4,508 408.5,508.2 C403.7,509.1 399.8,512.6 398.2,517.3 C396.2,523.2 398.3,530.2 403.8,536.4 C409.4,542.6 419.7,551.6 435.9,557.5 C439.3,541.9 436.7,527.6 427.9,517.4 C422.8,511.2 416.9,507.9 411.2,507.9 Z"/><path id="Path" fill="#F6E049" fill-rule="nonzero" d="M198.6,742 L9.4,552.8 C8,551.4 5.8,550.9 4,551.7 C2.1,552.5 0.9,554.3 0.9,556.3 L0.9,745 C0.9,747.8 3.1,750 5.9,750 L195.1,750.6 L195.1,750.6 C197.1,750.6 198.9,749.4 199.7,747.5 C200.5,745.6 200,743.4 198.6,742 Z"/><g id="Path" fill="#383A48" fill-rule="nonzero"><path d="M48.6,29.2 C45.8,29.2 43.6,27 43.6,24.2 L43.6,5.4 C43.6,2.6 45.8,0.4 48.6,0.4 C51.4,0.4 53.6,2.6 53.6,5.4 L53.6,24.2 C53.6,27 51.4,29.2 48.6,29.2 Z" transform="translate(535.000000, 581.000000)"/><path d="M48.6,96.5 C45.8,96.5 43.6,94.3 43.6,91.5 L43.6,72.7 C43.6,69.9 45.8,67.7 48.6,67.7 C51.4,67.7 53.6,69.9 53.6,72.7 L53.6,91.5 C53.6,94.3 51.4,96.5 48.6,96.5 Z" transform="translate(535.000000, 581.000000)"/><path d="M24.3,53.5 L5.5,53.5 C2.7,53.5 0.5,51.3 0.5,48.5 C0.5,45.7 2.7,43.5 5.5,43.5 L24.3,43.5 C27.1,43.5 29.3,45.7 29.3,48.5 C29.3,51.3 27.1,53.5 24.3,53.5 Z" transform="translate(535.000000, 581.000000)"/><path d="M91.7,53.5 L72.9,53.5 C70.1,53.5 67.9,51.3 67.9,48.5 C67.9,45.7 70.1,43.5 72.9,43.5 L91.7,43.5 C94.5,43.5 96.7,45.7 96.7,48.5 C96.7,51.3 94.4,53.5 91.7,53.5 Z" transform="translate(535.000000, 581.000000)"/><path d="M31.5,36.3 C30.2,36.3 28.9,35.8 28,34.8 L14.7,21.5 C12.7,19.5 12.7,16.4 14.7,14.4 C16.7,12.4 19.8,12.4 21.8,14.4 L35.1,27.7 C37.1,29.7 37.1,32.8 35.1,34.8 C34,35.8 32.7,36.3 31.5,36.3 Z" transform="translate(535.000000, 581.000000)"/><path d="M79.1,83.9 C77.8,83.9 76.5,83.4 75.6,82.4 L62.3,69.1 C60.3,67.1 60.3,64 62.3,62 C64.3,60 67.4,60 69.4,62 L82.7,75.3 C84.7,77.3 84.7,80.4 82.7,82.4 C81.6,83.4 80.3,83.9 79.1,83.9 Z" transform="translate(535.000000, 581.000000)"/><path d="M18.2,83.9 C16.9,83.9 15.6,83.4 14.7,82.4 C12.7,80.4 12.7,77.3 14.7,75.3 L28,62 C30,60 33.1,60 35.1,62 C37.1,64 37.1,67.1 35.1,69.1 L21.8,82.4 C20.7,83.4 19.5,83.9 18.2,83.9 Z" transform="translate(535.000000, 581.000000)"/><path d="M65.8,36.3 C64.5,36.3 63.2,35.8 62.3,34.8 C60.3,32.8 60.3,29.7 62.3,27.7 L75.6,14.4 C77.6,12.4 80.7,12.4 82.7,14.4 C84.7,16.4 84.7,19.5 82.7,21.5 L69.4,34.8 C68.3,35.8 67.1,36.3 65.8,36.3 Z" transform="translate(535.000000, 581.000000)"/></g><g transform="translate(45.000000, 77.000000)"><rect id="Rectangle" width="10" height="33" x="11.9" y=".7" fill="#383A48" fill-rule="nonzero"/><g transform="translate(0.000000, 12.000000)"><line id="Path" x1=".5" x2="33.4" y1="5.2" y2="5.2"/><rect id="Rectangle" width="33" height="10" x=".5" y=".2" fill="#383A48" fill-rule="nonzero"/></g></g><g transform="translate(817.000000, 33.000000)"><rect id="Rectangle" width="10" height="33" x="12.4" y=".6" fill="#383A48" fill-rule="nonzero"/><g transform="translate(0.000000, 12.000000)"><line id="Path" x1=".9" x2="33.8" y1="5" y2="5"/><rect id="Rectangle" width="33" height="10" x=".9" y="0" fill="#383A48" fill-rule="nonzero"/></g></g></g></g></g></svg>