<?xml version="1.0" encoding="UTF-8"?>
<svg width="1402px" height="784px" viewBox="0 0 1402 784" version="1.1" xmlns="http://www.w3.org/2000/svg" xmlns:xlink="http://www.w3.org/1999/xlink">
    <!-- Generator: Sketch 59.1 (86144) - https://sketch.com -->
    <title>abstract-payment-processed</title>
    <desc>Created with Sketch.</desc>
    <g id="Page-1" stroke="none" stroke-width="1" fill="none" fill-rule="evenodd">
        <g id="abstract-payment-processed" transform="translate(-259.000000, -148.000000)">
            <g id="Group" transform="translate(259.000000, 148.000000)">
                <g transform="translate(252.000000, 297.000000)" fill="#383A48" fill-rule="nonzero" id="Oval">
                    <circle cx="399.6" cy="153.7" r="5"></circle>
                    <circle cx="399.6" cy="178.4" r="5"></circle>
                    <circle cx="399.6" cy="203" r="5"></circle>
                    <circle cx="399.6" cy="227.7" r="5"></circle>
                    <circle cx="399.6" cy="252.4" r="5"></circle>
                    <circle cx="399.6" cy="277" r="5"></circle>
                    <circle cx="399.6" cy="301.7" r="5"></circle>
                    <circle cx="399.6" cy="326.4" r="5"></circle>
                    <circle cx="375" cy="104.4" r="5"></circle>
                    <circle cx="375" cy="129" r="5"></circle>
                    <circle cx="375" cy="153.7" r="5"></circle>
                    <circle cx="375" cy="178.4" r="5"></circle>
                    <circle cx="375" cy="203" r="5"></circle>
                    <circle cx="375" cy="227.7" r="5"></circle>
                    <circle cx="375" cy="252.4" r="5"></circle>
                    <circle cx="375" cy="277" r="5"></circle>
                    <circle cx="375" cy="301.7" r="5"></circle>
                    <circle cx="375" cy="326.4" r="5"></circle>
                    <circle cx="375" cy="351" r="5"></circle>
                    <circle cx="375" cy="375.7" r="5"></circle>
                    <circle cx="350.3" cy="79.7" r="5"></circle>
                    <circle cx="350.3" cy="104.4" r="5"></circle>
                    <circle cx="350.3" cy="129" r="5"></circle>
                    <circle cx="350.3" cy="153.7" r="5"></circle>
                    <circle cx="350.3" cy="178.4" r="5"></circle>
                    <circle cx="350.3" cy="203" r="5"></circle>
                    <circle cx="350.3" cy="227.7" r="5"></circle>
                    <circle cx="350.3" cy="252.4" r="5"></circle>
                    <circle cx="350.3" cy="277" r="5"></circle>
                    <circle cx="350.3" cy="301.7" r="5"></circle>
                    <circle cx="350.3" cy="326.4" r="5"></circle>
                    <circle cx="350.3" cy="351" r="5"></circle>
                    <circle cx="350.3" cy="375.7" r="5"></circle>
                    <circle cx="350.3" cy="400.4" r="5"></circle>
                    <circle cx="325.6" cy="55" r="5"></circle>
                    <circle cx="325.6" cy="79.7" r="5"></circle>
                    <circle cx="325.6" cy="104.4" r="5"></circle>
                    <circle cx="325.6" cy="129" r="5"></circle>
                    <circle cx="325.6" cy="153.7" r="5"></circle>
                    <circle cx="325.6" cy="178.4" r="5"></circle>
                    <circle cx="325.6" cy="203" r="5"></circle>
                    <circle cx="325.6" cy="227.7" r="5"></circle>
                    <circle cx="325.6" cy="252.4" r="5"></circle>
                    <circle cx="325.6" cy="277" r="5"></circle>
                    <circle cx="325.6" cy="301.7" r="5"></circle>
                    <circle cx="325.6" cy="326.4" r="5"></circle>
                    <circle cx="325.6" cy="351" r="5"></circle>
                    <circle cx="325.6" cy="375.7" r="5"></circle>
                    <circle cx="325.6" cy="400.4" r="5"></circle>
                    <circle cx="325.6" cy="425" r="5"></circle>
                    <circle cx="301" cy="30.4" r="5"></circle>
                    <circle cx="301" cy="55" r="5"></circle>
                    <circle cx="301" cy="79.7" r="5"></circle>
                    <circle cx="301" cy="104.4" r="5"></circle>
                    <circle cx="301" cy="129" r="5"></circle>
                    <circle cx="301" cy="153.7" r="5"></circle>
                    <circle cx="301" cy="178.4" r="5"></circle>
                    <circle cx="301" cy="203" r="5"></circle>
                    <circle cx="301" cy="227.7" r="5"></circle>
                    <circle cx="301" cy="252.4" r="5"></circle>
                    <circle cx="301" cy="277" r="5"></circle>
                    <circle cx="301" cy="301.7" r="5"></circle>
                    <circle cx="301" cy="326.4" r="5"></circle>
                    <circle cx="301" cy="351" r="5"></circle>
                    <circle cx="301" cy="375.7" r="5"></circle>
                    <circle cx="301" cy="400.4" r="5"></circle>
                    <circle cx="301" cy="425" r="5"></circle>
                    <circle cx="301" cy="449.7" r="5"></circle>
                    <circle cx="276.3" cy="30.4" r="5"></circle>
                    <circle cx="276.3" cy="55" r="5"></circle>
                    <circle cx="276.3" cy="79.7" r="5"></circle>
                    <circle cx="276.3" cy="104.4" r="5"></circle>
                    <circle cx="276.3" cy="129" r="5"></circle>
                    <circle cx="276.3" cy="153.7" r="5"></circle>
                    <circle cx="276.3" cy="178.4" r="5"></circle>
                    <circle cx="276.3" cy="203" r="5"></circle>
                    <circle cx="276.3" cy="227.7" r="5"></circle>
                    <circle cx="276.3" cy="252.4" r="5"></circle>
                    <circle cx="276.3" cy="277" r="5"></circle>
                    <circle cx="276.3" cy="301.7" r="5"></circle>
                    <circle cx="276.3" cy="326.4" r="5"></circle>
                    <circle cx="276.3" cy="351" r="5"></circle>
                    <circle cx="276.3" cy="375.7" r="5"></circle>
                    <circle cx="276.3" cy="400.4" r="5"></circle>
                    <circle cx="276.3" cy="425" r="5"></circle>
                    <circle cx="276.3" cy="449.7" r="5"></circle>
                    <circle cx="251.6" cy="5.7" r="5"></circle>
                    <circle cx="251.6" cy="30.4" r="5"></circle>
                    <circle cx="251.6" cy="55" r="5"></circle>
                    <circle cx="251.6" cy="79.7" r="5"></circle>
                    <circle cx="251.6" cy="104.4" r="5"></circle>
                    <circle cx="251.6" cy="129" r="5"></circle>
                    <circle cx="251.6" cy="153.7" r="5"></circle>
                    <circle cx="251.6" cy="178.4" r="5"></circle>
                    <circle cx="251.6" cy="203" r="5"></circle>
                    <circle cx="251.6" cy="227.7" r="5"></circle>
                    <circle cx="251.6" cy="252.4" r="5"></circle>
                    <circle cx="251.6" cy="277" r="5"></circle>
                    <circle cx="251.6" cy="301.7" r="5"></circle>
                    <circle cx="251.6" cy="326.4" r="5"></circle>
                    <circle cx="251.6" cy="351" r="5"></circle>
                    <circle cx="251.6" cy="375.7" r="5"></circle>
                    <circle cx="251.6" cy="400.4" r="5"></circle>
                    <circle cx="251.6" cy="425" r="5"></circle>
                    <circle cx="251.6" cy="449.7" r="5"></circle>
                    <circle cx="227" cy="5.7" r="5"></circle>
                    <circle cx="227" cy="30.4" r="5"></circle>
                    <circle cx="227" cy="55" r="5"></circle>
                    <circle cx="227" cy="79.7" r="5"></circle>
                    <circle cx="227" cy="104.4" r="5"></circle>
                    <circle cx="227" cy="129" r="5"></circle>
                    <circle cx="227" cy="153.7" r="5"></circle>
                    <circle cx="227" cy="178.4" r="5"></circle>
                    <circle cx="227" cy="203" r="5"></circle>
                    <circle cx="227" cy="227.7" r="5"></circle>
                    <circle cx="227" cy="252.4" r="5"></circle>
                    <circle cx="227" cy="277" r="5"></circle>
                    <circle cx="227" cy="301.7" r="5"></circle>
                    <circle cx="227" cy="326.4" r="5"></circle>
                    <circle cx="227" cy="351" r="5"></circle>
                    <circle cx="227" cy="375.7" r="5"></circle>
                    <circle cx="227" cy="400.4" r="5"></circle>
                    <circle cx="227" cy="425" r="5"></circle>
                    <circle cx="227" cy="449.7" r="5"></circle>
                    <circle cx="227" cy="474.4" r="5"></circle>
                    <circle cx="202.3" cy="5.7" r="5"></circle>
                    <circle cx="202.3" cy="30.4" r="5"></circle>
                    <circle cx="202.3" cy="55" r="5"></circle>
                    <circle cx="202.3" cy="79.7" r="5"></circle>
                    <circle cx="202.3" cy="104.4" r="5"></circle>
                    <circle cx="202.3" cy="129" r="5"></circle>
                    <circle cx="202.3" cy="153.7" r="5"></circle>
                    <circle cx="202.3" cy="178.4" r="5"></circle>
                    <circle cx="202.3" cy="203" r="5"></circle>
                    <circle cx="202.3" cy="227.7" r="5"></circle>
                    <circle cx="202.3" cy="252.4" r="5"></circle>
                    <circle cx="202.3" cy="277" r="5"></circle>
                    <circle cx="202.3" cy="301.7" r="5"></circle>
                    <circle cx="202.3" cy="326.4" r="5"></circle>
                    <circle cx="202.3" cy="351" r="5"></circle>
                    <circle cx="202.3" cy="375.7" r="5"></circle>
                    <circle cx="202.3" cy="400.4" r="5"></circle>
                    <circle cx="202.3" cy="425" r="5"></circle>
                    <circle cx="202.3" cy="449.7" r="5"></circle>
                    <circle cx="202.3" cy="474.4" r="5"></circle>
                    <circle cx="177.6" cy="5.7" r="5"></circle>
                    <circle cx="177.6" cy="30.4" r="5"></circle>
                    <circle cx="177.6" cy="55" r="5"></circle>
                    <circle cx="177.6" cy="79.7" r="5"></circle>
                    <circle cx="177.6" cy="104.4" r="5"></circle>
                    <circle cx="177.6" cy="129" r="5"></circle>
                    <circle cx="177.6" cy="153.7" r="5"></circle>
                    <circle cx="177.6" cy="178.4" r="5"></circle>
                    <circle cx="177.6" cy="203" r="5"></circle>
                    <circle cx="177.6" cy="227.7" r="5"></circle>
                    <circle cx="177.6" cy="252.4" r="5"></circle>
                    <circle cx="177.6" cy="277" r="5"></circle>
                    <circle cx="177.6" cy="301.7" r="5"></circle>
                    <circle cx="177.6" cy="326.4" r="5"></circle>
                    <circle cx="177.6" cy="351" r="5"></circle>
                    <circle cx="177.6" cy="375.7" r="5"></circle>
                    <circle cx="177.6" cy="400.4" r="5"></circle>
                    <circle cx="177.6" cy="425" r="5"></circle>
                    <circle cx="177.6" cy="449.7" r="5"></circle>
                    <circle cx="177.6" cy="474.4" r="5"></circle>
                    <circle cx="153" cy="5.7" r="5"></circle>
                    <circle cx="153" cy="30.4" r="5"></circle>
                    <circle cx="153" cy="55" r="5"></circle>
                    <circle cx="153" cy="79.7" r="5"></circle>
                    <circle cx="153" cy="104.4" r="5"></circle>
                    <circle cx="153" cy="129" r="5"></circle>
                    <circle cx="153" cy="153.7" r="5"></circle>
                    <circle cx="153" cy="178.4" r="5"></circle>
                    <circle cx="153" cy="203" r="5"></circle>
                    <circle cx="153" cy="227.7" r="5"></circle>
                    <circle cx="153" cy="252.4" r="5"></circle>
                    <circle cx="153" cy="277" r="5"></circle>
                    <circle cx="153" cy="301.7" r="5"></circle>
                    <circle cx="153" cy="326.4" r="5"></circle>
                    <circle cx="153" cy="351" r="5"></circle>
                    <circle cx="153" cy="375.7" r="5"></circle>
                    <circle cx="153" cy="400.4" r="5"></circle>
                    <circle cx="153" cy="425" r="5"></circle>
                    <circle cx="153" cy="449.7" r="5"></circle>
                    <circle cx="153" cy="474.4" r="5"></circle>
                    <circle cx="128.3" cy="5.7" r="5"></circle>
                    <circle cx="128.3" cy="30.4" r="5"></circle>
                    <circle cx="128.3" cy="55" r="5"></circle>
                    <circle cx="128.3" cy="79.7" r="5"></circle>
                    <circle cx="128.3" cy="104.4" r="5"></circle>
                    <circle cx="128.3" cy="129" r="5"></circle>
                    <circle cx="128.3" cy="153.7" r="5"></circle>
                    <circle cx="128.3" cy="178.4" r="5"></circle>
                    <circle cx="128.3" cy="203" r="5"></circle>
                    <circle cx="128.3" cy="227.7" r="5"></circle>
                    <circle cx="128.3" cy="252.4" r="5"></circle>
                    <circle cx="128.3" cy="277" r="5"></circle>
                    <circle cx="128.3" cy="301.7" r="5"></circle>
                    <circle cx="128.3" cy="326.4" r="5"></circle>
                    <circle cx="128.3" cy="351" r="5"></circle>
                    <circle cx="128.3" cy="375.7" r="5"></circle>
                    <circle cx="128.3" cy="400.4" r="5"></circle>
                    <circle cx="128.3" cy="425" r="5"></circle>
                    <circle cx="128.3" cy="449.7" r="5"></circle>
                    <circle cx="128.3" cy="474.4" r="5"></circle>
                    <circle cx="103.6" cy="5.7" r="5"></circle>
                    <circle cx="103.6" cy="30.4" r="5"></circle>
                    <circle cx="103.6" cy="55" r="5"></circle>
                    <circle cx="103.6" cy="79.7" r="5"></circle>
                    <circle cx="103.6" cy="104.4" r="5"></circle>
                    <circle cx="103.6" cy="129" r="5"></circle>
                    <circle cx="103.6" cy="153.7" r="5"></circle>
                    <circle cx="103.6" cy="178.4" r="5"></circle>
                    <circle cx="103.6" cy="203" r="5"></circle>
                    <circle cx="103.6" cy="227.7" r="5"></circle>
                    <circle cx="103.6" cy="252.4" r="5"></circle>
                    <circle cx="103.6" cy="277" r="5"></circle>
                    <circle cx="103.6" cy="301.7" r="5"></circle>
                    <circle cx="103.6" cy="326.4" r="5"></circle>
                    <circle cx="103.6" cy="351" r="5"></circle>
                    <circle cx="103.6" cy="375.7" r="5"></circle>
                    <circle cx="103.6" cy="400.4" r="5"></circle>
                    <circle cx="103.6" cy="425" r="5"></circle>
                    <circle cx="103.6" cy="449.7" r="5"></circle>
                    <circle cx="79" cy="30.4" r="5"></circle>
                    <circle cx="79" cy="55" r="5"></circle>
                    <circle cx="79" cy="79.7" r="5"></circle>
                    <circle cx="79" cy="104.4" r="5"></circle>
                    <circle cx="79" cy="129" r="5"></circle>
                    <circle cx="79" cy="153.7" r="5"></circle>
                    <circle cx="79" cy="178.4" r="5"></circle>
                    <circle cx="79" cy="203" r="5"></circle>
                    <circle cx="79" cy="227.7" r="5"></circle>
                    <circle cx="79" cy="252.4" r="5"></circle>
                    <circle cx="79" cy="277" r="5"></circle>
                    <circle cx="79" cy="301.7" r="5"></circle>
                    <circle cx="79" cy="326.4" r="5"></circle>
                    <circle cx="79" cy="351" r="5"></circle>
                    <circle cx="79" cy="375.7" r="5"></circle>
                    <circle cx="79" cy="400.4" r="5"></circle>
                    <circle cx="79" cy="425" r="5"></circle>
                    <circle cx="79" cy="449.7" r="5"></circle>
                    <circle cx="54.3" cy="30.4" r="5"></circle>
                    <circle cx="54.3" cy="55" r="5"></circle>
                    <circle cx="54.3" cy="79.7" r="5"></circle>
                    <circle cx="54.3" cy="104.4" r="5"></circle>
                    <circle cx="54.3" cy="129" r="5"></circle>
                    <circle cx="54.3" cy="153.7" r="5"></circle>
                    <circle cx="54.3" cy="178.4" r="5"></circle>
                    <circle cx="54.3" cy="203" r="5"></circle>
                    <circle cx="54.3" cy="227.7" r="5"></circle>
                    <circle cx="54.3" cy="252.4" r="5"></circle>
                    <circle cx="54.3" cy="277" r="5"></circle>
                    <circle cx="54.3" cy="301.7" r="5"></circle>
                    <circle cx="54.3" cy="326.4" r="5"></circle>
                    <circle cx="54.3" cy="351" r="5"></circle>
                    <circle cx="54.3" cy="375.7" r="5"></circle>
                    <circle cx="54.3" cy="400.4" r="5"></circle>
                    <circle cx="54.3" cy="425" r="5"></circle>
                    <circle cx="54.3" cy="449.7" r="5"></circle>
                    <circle cx="29.6" cy="55" r="5"></circle>
                    <circle cx="29.6" cy="79.7" r="5"></circle>
                    <circle cx="29.6" cy="104.4" r="5"></circle>
                    <circle cx="29.6" cy="129" r="5"></circle>
                    <circle cx="29.6" cy="153.7" r="5"></circle>
                    <circle cx="29.6" cy="178.4" r="5"></circle>
                    <circle cx="29.6" cy="203" r="5"></circle>
                    <circle cx="29.6" cy="227.7" r="5"></circle>
                    <circle cx="29.6" cy="252.4" r="5"></circle>
                    <circle cx="29.6" cy="277" r="5"></circle>
                    <circle cx="29.6" cy="301.7" r="5"></circle>
                    <circle cx="29.6" cy="326.4" r="5"></circle>
                    <circle cx="29.6" cy="351" r="5"></circle>
                    <circle cx="29.6" cy="375.7" r="5"></circle>
                    <circle cx="29.6" cy="400.4" r="5"></circle>
                    <circle cx="29.6" cy="425" r="5"></circle>
                    <circle cx="5" cy="79.7" r="5"></circle>
                    <circle cx="5" cy="104.4" r="5"></circle>
                    <circle cx="5" cy="129" r="5"></circle>
                    <circle cx="5" cy="153.7" r="5"></circle>
                    <circle cx="5" cy="178.4" r="5"></circle>
                    <circle cx="5" cy="203" r="5"></circle>
                    <circle cx="5" cy="227.7" r="5"></circle>
                    <circle cx="5" cy="252.4" r="5"></circle>
                    <circle cx="5" cy="277" r="5"></circle>
                    <circle cx="5" cy="301.7" r="5"></circle>
                    <circle cx="5" cy="326.4" r="5"></circle>
                    <circle cx="5" cy="351" r="5"></circle>
                    <circle cx="5" cy="375.7" r="5"></circle>
                    <circle cx="5" cy="400.4" r="5"></circle>
                </g>
                <circle id="Oval" fill="#383A48" fill-rule="nonzero" cx="232.3" cy="401.4" r="5"></circle>
                <circle id="Oval" fill="#383A48" fill-rule="nonzero" cx="232.3" cy="426" r="5"></circle>
                <circle id="Oval" fill="#383A48" fill-rule="nonzero" cx="232.3" cy="450.7" r="5"></circle>
                <circle id="Oval" fill="#383A48" fill-rule="nonzero" cx="232.3" cy="475.4" r="5"></circle>
                <circle id="Oval" fill="#383A48" fill-rule="nonzero" cx="232.3" cy="500" r="5"></circle>
                <circle id="Oval" fill="#383A48" fill-rule="nonzero" cx="232.3" cy="524.7" r="5"></circle>
                <circle id="Oval" fill="#383A48" fill-rule="nonzero" cx="232.3" cy="549.4" r="5"></circle>
                <circle id="Oval" fill="#383A48" fill-rule="nonzero" cx="232.3" cy="574" r="5"></circle>
                <circle id="Oval" fill="#383A48" fill-rule="nonzero" cx="232.3" cy="598.7" r="5"></circle>
                <circle id="Oval" fill="#383A48" fill-rule="nonzero" cx="232.3" cy="623.4" r="5"></circle>
                <circle id="Oval" fill="#383A48" fill-rule="nonzero" cx="232.3" cy="648" r="5"></circle>
                <circle id="Oval" fill="#383A48" fill-rule="nonzero" cx="232.3" cy="672.7" r="5"></circle>
                <circle id="Oval" fill="#383A48" fill-rule="nonzero" cx="207.6" cy="450.7" r="5"></circle>
                <circle id="Oval" fill="#383A48" fill-rule="nonzero" cx="207.6" cy="475.4" r="5"></circle>
                <circle id="Oval" fill="#383A48" fill-rule="nonzero" cx="207.6" cy="500" r="5"></circle>
                <circle id="Oval" fill="#383A48" fill-rule="nonzero" cx="207.6" cy="524.7" r="5"></circle>
                <circle id="Oval" fill="#383A48" fill-rule="nonzero" cx="207.6" cy="549.4" r="5"></circle>
                <circle id="Oval" fill="#383A48" fill-rule="nonzero" cx="207.6" cy="574" r="5"></circle>
                <circle id="Oval" fill="#383A48" fill-rule="nonzero" cx="207.6" cy="598.7" r="5"></circle>
                <circle id="Oval" fill="#383A48" fill-rule="nonzero" cx="207.6" cy="623.4" r="5"></circle>
                <path d="M1397,253.3 C1394.4,253.1 1392.1,254.9 1391.7,257.5 C1382.9,311.1 1358.8,354.3 1318.1,389.5 C1274.1,427.5 1209.9,457.4 1121.7,480.8 C968.4,521.5 899.3,577.8 832.6,632.3 C765.9,686.8 702.8,738.2 560.7,773.6 C558.2,774.2 556.6,776.6 556.9,779.1 C557.2,781.6 559.3,783.5 561.9,783.5 L1303.9,783.5 C1357.8,783.5 1401.6,739.7 1401.6,685.8 L1401.6,258.2 C1401.6,255.6 1399.6,253.5 1397,253.3 Z" id="Path" fill="#F3F6E6" fill-rule="nonzero"></path>
                <path d="M721.8,5 C721.5,2.5 719.4,0.6 716.8,0.6 L241.9,0.6 C178,0.6 117.9,25.5 72.7,70.7 C27.5,115.9 2.6,176 2.6,239.9 L2.6,479.4 C2.6,482 4.6,484.2 7.2,484.4 C7.3,484.4 7.5,484.4 7.6,484.4 C10,484.4 12.1,482.6 12.5,480.2 C20.5,431.5 42.4,392.2 79.4,360.2 C119.4,325.6 177.9,298.4 258.1,277.1 C398.4,239.9 448.3,188.3 496.6,138.3 C544.2,89 589.2,42.5 718,10.4 C720.5,9.8 722.1,7.5 721.8,5 Z" id="Path" fill="#F3F6E6" fill-rule="nonzero"></path>
                <g transform="translate(1279.000000, 542.000000)">
                    <rect id="Rectangle" fill="#383A48" fill-rule="nonzero" x="11.7" y="0.5" width="10" height="33"></rect>
                    <g transform="translate(0.000000, 12.000000)">
                        <line x1="0.3" y1="5" x2="33.2" y2="5" id="Path"></line>
                        <rect id="Rectangle" fill="#383A48" fill-rule="nonzero" x="0.3" y="0" width="33" height="10"></rect>
                    </g>
                </g>
                <g transform="translate(146.000000, 141.000000)">
                    <rect id="Rectangle" fill="#383A48" fill-rule="nonzero" x="12.3" y="0.9" width="10" height="33"></rect>
                    <g transform="translate(0.000000, 12.000000)">
                        <line x1="0.8" y1="5.3" x2="33.8" y2="5.3" id="Path"></line>
                        <rect id="Rectangle" fill="#383A48" fill-rule="nonzero" x="0.8" y="0.3" width="33" height="10"></rect>
                    </g>
                </g>
                <g transform="translate(1041.000000, 554.000000)" fill-rule="nonzero">
                    <g transform="translate(13.000000, 13.000000)" fill="#383A48">
                        <path d="M93.7,157.9 L5.5,69.7 L69.9,5.3 L158.1,93.5 C175.9,111.3 175.9,140.1 158.1,157.9 L158.1,157.9 C140.4,175.7 111.5,175.7 93.7,157.9 Z" id="Path"></path>
                        <path d="M125.9,176.3 C113,176.3 100,171.4 90.2,161.5 L2,73.3 C0,71.3 0,68.2 2,66.2 L66.4,1.8 C68.4,-0.2 71.5,-0.2 73.5,1.8 L161.7,90 C181.4,109.7 181.4,141.8 161.7,161.5 C151.8,171.3 138.9,176.3 125.9,176.3 Z M12.6,69.7 L97.3,154.4 C105,162.1 115.1,166.3 126,166.3 C136.9,166.3 147,162.1 154.7,154.4 C162.4,146.7 166.6,136.6 166.6,125.7 C166.6,114.9 162.4,104.7 154.7,97 L70,12.3 L12.6,69.7 Z" id="Shape"></path>
                    </g>
                    <g>
                        <circle id="Oval" fill="#F6E049" cx="50.7" cy="50.5" r="45.5"></circle>
                        <path d="M50.7,101.1 C37.8,101.1 24.8,96.2 15,86.3 C-4.7,66.6 -4.7,34.5 15,14.8 C34.7,-4.9 66.8,-4.9 86.5,14.8 C106.2,34.5 106.2,66.6 86.5,86.3 C76.6,96.1 63.7,101.1 50.7,101.1 Z M50.7,10 C40.3,10 29.9,14 22,21.9 C6.2,37.7 6.2,63.4 22,79.2 C37.8,95 63.5,95 79.3,79.2 C95.1,63.4 95.1,37.7 79.3,21.9 C71.5,14 61.1,10 50.7,10 Z" id="Shape" fill="#383A48"></path>
                    </g>
                </g>
                <path d="M903.8,150.1 L885.5,137.5 L896.6,118.2 C897.6,116.4 897.5,114.2 896.2,112.6 C894.9,111 892.8,110.3 890.8,110.9 L869.6,117.4 L861.4,96.7 C860.6,94.8 858.8,93.5 856.7,93.5 C854.6,93.5 852.8,94.8 852,96.7 L843.8,117.4 L822.6,110.9 C820.6,110.3 818.5,111 817.2,112.6 C815.9,114.2 815.8,116.4 816.8,118.2 L827.9,137.5 L809.6,150.1 C807.9,151.3 807.1,153.3 807.6,155.3 C808.1,157.3 809.7,158.8 811.7,159.1 L833.7,162.5 L832.1,184.7 C832,186.7 833.1,188.7 834.9,189.6 C836.7,190.5 839,190.2 840.5,188.8 L856.8,173.7 L873.1,188.8 C874,189.7 875.3,190.1 876.5,190.1 C877.2,190.1 878,189.9 878.7,189.6 C880.5,188.7 881.7,186.8 881.5,184.7 L879.9,162.5 L901.9,159.1 C903.9,158.8 905.6,157.3 906,155.3 C906.3,153.3 905.5,151.3 903.8,150.1 Z" id="Path" fill="#E0719E" fill-rule="nonzero"></path>
                <g transform="translate(967.000000, 8.000000)" fill-rule="nonzero">
                    <circle id="Oval" fill="#AAC6FC" cx="217.6" cy="217.5" r="212"></circle>
                    <path d="M226.2,434.3 C223.5,434.3 221.3,432.2 221.2,429.5 C221.1,426.7 223.2,424.4 226,424.3 C229.9,424.1 233.8,423.9 237.7,423.5 C240.4,423.2 242.9,425.2 243.2,428 C243.5,430.7 241.5,433.2 238.7,433.5 C234.7,433.9 230.5,434.2 226.5,434.3 C226.3,434.3 226.3,434.3 226.2,434.3 Z M196.2,433.4 C196,433.4 195.9,433.4 195.7,433.4 C191.6,433 187.5,432.5 183.5,431.8 C180.8,431.4 178.9,428.8 179.3,426.1 C179.7,423.4 182.3,421.5 185,421.9 C188.8,422.5 192.7,423 196.6,423.4 C199.3,423.7 201.4,426.1 201.1,428.9 C201,431.5 198.8,433.4 196.2,433.4 Z M267.7,428.5 C265.4,428.5 263.4,427 262.8,424.7 C262.2,422 263.8,419.3 266.5,418.7 C270.3,417.8 274.1,416.7 277.8,415.6 C280.4,414.8 283.2,416.3 284,418.9 C284.8,421.5 283.3,424.3 280.7,425.1 C276.8,426.3 272.8,427.4 268.9,428.3 C268.5,428.5 268.1,428.5 267.7,428.5 Z M155.2,425.1 C154.7,425.1 154.2,425 153.7,424.9 C149.8,423.7 145.9,422.4 142.1,421 C139.5,420 138.2,417.2 139.2,414.6 C140.2,412 143,410.7 145.6,411.7 C149.2,413.1 153,414.3 156.7,415.5 C159.3,416.3 160.8,419.1 160,421.7 C159.3,423.8 157.3,425.1 155.2,425.1 Z M307.3,414.7 C305.4,414.7 303.6,413.6 302.8,411.8 C301.6,409.3 302.7,406.3 305.2,405.2 C308.7,403.6 312.2,401.8 315.7,399.9 C318.1,398.6 321.2,399.5 322.5,401.9 C323.8,404.3 322.9,407.4 320.5,408.7 C316.9,410.6 313.2,412.5 309.5,414.2 C308.7,414.5 308,414.7 307.3,414.7 Z M116.5,408.9 C115.7,408.9 114.9,408.7 114.1,408.3 C110.5,406.4 107,404.3 103.5,402.1 C101.2,400.6 100.4,397.6 101.9,395.2 C103.4,392.9 106.4,392.1 108.8,393.6 C112.1,395.6 115.5,397.6 118.9,399.5 C121.3,400.8 122.2,403.9 120.9,406.3 C120,407.9 118.3,408.9 116.5,408.9 Z M343.3,393.2 C341.8,393.2 340.3,392.5 339.3,391.2 C337.7,389 338.1,385.8 340.4,384.2 C343.5,381.9 346.6,379.5 349.6,377 C351.7,375.2 354.9,375.5 356.6,377.7 C358.4,379.8 358.1,383 355.9,384.7 C352.8,387.3 349.5,389.9 346.2,392.3 C345.4,392.9 344.4,393.2 343.3,393.2 Z M81.9,385.3 C80.8,385.3 79.6,384.9 78.7,384.1 C75.6,381.5 72.5,378.8 69.5,376 C67.5,374.1 67.4,371 69.3,368.9 C71.2,366.9 74.4,366.8 76.4,368.7 C79.2,371.4 82.2,374 85.2,376.5 C87.3,378.3 87.6,381.4 85.8,383.5 C84.7,384.7 83.3,385.3 81.9,385.3 Z M374.5,365.1 C373.3,365.1 372.1,364.7 371.1,363.8 C369.1,361.9 368.9,358.8 370.8,356.7 C373.4,353.8 376,350.8 378.4,347.8 C380.1,345.7 383.3,345.3 385.4,347.1 C387.5,348.8 387.9,352 386.1,354.1 C383.5,357.3 380.8,360.4 378.1,363.4 C377.2,364.6 375.8,365.1 374.5,365.1 Z M52.5,355.5 C51,355.5 49.6,354.9 48.6,353.6 C46,350.4 43.5,347.1 41.2,343.8 C39.6,341.6 40.1,338.4 42.3,336.8 C44.5,335.2 47.7,335.7 49.3,337.9 C51.6,341.1 54,344.2 56.4,347.2 C58.1,349.4 57.8,352.5 55.6,354.2 C54.7,355.1 53.6,355.5 52.5,355.5 Z M399.5,331.5 C398.6,331.5 397.7,331.3 396.9,330.8 C394.5,329.4 393.8,326.3 395.2,323.9 C397.2,320.6 399.1,317.1 400.9,313.7 C402.2,311.3 405.2,310.3 407.7,311.6 C410.2,312.9 411.1,315.9 409.8,318.4 C407.9,322 405.9,325.6 403.8,329.1 C402.8,330.6 401.2,331.5 399.5,331.5 Z M29.5,320.4 C27.7,320.4 26,319.4 25.1,317.7 C23.2,314.1 21.4,310.4 19.7,306.6 C18.6,304.1 19.7,301.1 22.2,300 C24.7,298.9 27.7,300 28.8,302.5 C30.4,306 32.1,309.6 33.9,313 C35.2,315.4 34.2,318.5 31.8,319.7 C31.1,320.2 30.3,320.4 29.5,320.4 Z M417.4,293.6 C416.8,293.6 416.3,293.5 415.7,293.3 C413.1,292.4 411.7,289.5 412.7,286.9 C414,283.2 415.2,279.5 416.3,275.8 C417.1,273.1 419.9,271.6 422.5,272.4 C425.1,273.2 426.7,276 425.9,278.6 C424.8,282.5 423.5,286.4 422.1,290.3 C421.4,292.4 419.5,293.6 417.4,293.6 Z M13.9,281.4 C11.7,281.4 9.7,280 9.1,277.8 C8,273.9 6.9,269.9 6,265.9 C5.4,263.2 7.1,260.5 9.8,259.9 C12.5,259.3 15.2,261 15.8,263.7 C16.7,267.5 17.6,271.3 18.7,275 C19.5,277.7 17.9,280.4 15.3,281.2 C14.8,281.4 14.4,281.4 13.9,281.4 Z M427.5,252.9 C427.3,252.9 427,252.9 426.8,252.8 C424.1,252.4 422.2,249.9 422.6,247.1 C423.2,243.3 423.6,239.3 423.9,235.5 C424.1,232.7 426.6,230.7 429.3,231 C432.1,231.2 434.1,233.7 433.9,236.4 C433.5,240.5 433.1,244.6 432.5,248.6 C432,251.1 429.9,252.9 427.5,252.9 Z M6.3,240.2 C3.7,240.2 1.5,238.2 1.3,235.6 C1,231.6 0.7,227.4 0.6,223.3 C0.5,220.5 2.7,218.2 5.5,218.2 C8.3,218.2 10.6,220.3 10.6,223.1 C10.7,227 10.9,230.9 11.2,234.8 C11.4,237.6 9.4,240 6.6,240.2 C6.6,240.2 6.5,240.2 6.3,240.2 Z M429.6,222.5 C426.8,222.5 424.6,220.3 424.6,217.5 C424.6,213.6 424.5,209.7 424.3,205.8 C424.1,203 426.3,200.7 429,200.5 C431.7,200.3 434.1,202.5 434.3,205.2 C434.5,209.3 434.6,213.4 434.6,217.5 C434.6,220.3 432.4,222.5 429.6,222.5 Z M7,198.3 C6.8,198.3 6.6,198.3 6.4,198.3 C3.7,198 1.7,195.5 2,192.8 C2.5,188.7 3,184.7 3.7,180.6 C4.2,177.9 6.8,176.1 9.5,176.5 C12.2,177 14,179.6 13.6,182.3 C12.9,186.1 12.4,190 11.9,193.9 C11.7,196.4 9.5,198.3 7,198.3 Z M425.5,180.8 C423.2,180.8 421.1,179.2 420.6,176.8 C419.8,173 419,169.1 418,165.4 C417.3,162.7 418.9,160 421.6,159.3 C424.3,158.6 427,160.2 427.7,162.9 C428.7,166.8 429.6,170.9 430.4,174.9 C430.9,177.6 429.2,180.2 426.5,180.8 C426.2,180.7 425.8,180.8 425.5,180.8 Z M15.8,157.3 C15.3,157.3 14.8,157.2 14.3,157.1 C11.7,156.3 10.2,153.4 11.1,150.8 C12.4,146.9 13.7,143 15.2,139.2 C16.2,136.6 19.1,135.3 21.7,136.3 C24.3,137.3 25.6,140.2 24.6,142.8 C23.2,146.4 21.9,150.1 20.7,153.8 C19.9,156 17.9,157.3 15.8,157.3 Z M413.3,140.7 C411.3,140.7 409.5,139.5 408.7,137.6 C407.2,134 405.6,130.4 403.9,126.9 C402.7,124.4 403.7,121.4 406.2,120.2 C408.7,119 411.7,120 412.9,122.5 C414.7,126.2 416.4,129.9 418,133.7 C419.1,136.2 417.9,139.2 415.3,140.2 C414.6,140.5 413.9,140.7 413.3,140.7 Z M32.6,118.9 C31.8,118.9 30.9,118.7 30.2,118.3 C27.8,116.9 26.9,113.9 28.3,111.5 C30.3,107.9 32.4,104.4 34.6,101 C36.1,98.7 39.2,98 41.5,99.5 C43.8,101 44.5,104.1 43,106.4 C40.9,109.7 38.9,113 37,116.4 C36.1,118 34.4,118.9 32.6,118.9 Z M393.3,103.8 C391.7,103.8 390.1,103 389.2,101.6 C387,98.4 384.7,95.2 382.4,92.1 C380.7,89.9 381.1,86.8 383.3,85.1 C385.5,83.4 388.6,83.8 390.3,86 C392.8,89.2 395.2,92.6 397.5,96 C399,98.3 398.4,101.4 396.2,102.9 C395.2,103.5 394.3,103.8 393.3,103.8 Z M56.6,84.6 C55.4,84.6 54.3,84.2 53.3,83.4 C51.2,81.6 51,78.4 52.8,76.3 C55.5,73.2 58.2,70.1 61,67.2 C62.9,65.2 66.1,65.1 68.1,67.1 C70.1,69 70.2,72.2 68.2,74.2 C65.5,77 62.9,79.9 60.3,82.9 C59.4,84 58,84.6 56.6,84.6 Z M366.5,71.5 C365.2,71.5 364,71 363,70.1 C360.2,67.4 357.3,64.7 354.4,62.1 C352.3,60.3 352.1,57.1 354,55 C355.8,52.9 359,52.7 361.1,54.6 C364.2,57.3 367.2,60.1 370.1,63 C372.1,64.9 372.1,68.1 370.1,70.1 C369.1,71 367.8,71.5 366.5,71.5 Z M86.9,55.6 C85.4,55.6 83.9,54.9 83,53.7 C81.3,51.5 81.7,48.4 83.8,46.7 C87,44.2 90.3,41.7 93.7,39.4 C96,37.8 99.1,38.4 100.7,40.6 C102.3,42.9 101.7,46 99.5,47.6 C96.3,49.8 93.1,52.2 90.1,54.6 C89.1,55.2 88,55.6 86.9,55.6 Z M333.9,45.2 C333,45.2 332,44.9 331.2,44.4 C328,42.3 324.6,40.2 321.2,38.3 C318.8,36.9 318,33.9 319.4,31.5 C320.8,29.1 323.8,28.3 326.2,29.7 C329.7,31.7 333.2,33.9 336.6,36.1 C338.9,37.6 339.6,40.7 338,43 C337.1,44.4 335.5,45.2 333.9,45.2 Z M122.3,33.1 C120.5,33.1 118.7,32.1 117.8,30.4 C116.6,27.9 117.5,24.9 120,23.7 C123.6,21.9 127.4,20.1 131.1,18.5 C133.6,17.4 136.6,18.6 137.7,21.1 C138.8,23.6 137.6,26.6 135.1,27.7 C131.5,29.3 128,30.9 124.5,32.7 C123.8,32.9 123.1,33.1 122.3,33.1 Z M296.8,25.8 C296.2,25.8 295.5,25.7 294.9,25.4 C291.3,23.9 287.6,22.6 283.9,21.3 C281.3,20.4 279.9,17.6 280.8,15 C281.7,12.4 284.5,11 287.1,11.9 C291,13.2 294.8,14.6 298.6,16.2 C301.2,17.2 302.4,20.1 301.4,22.7 C300.6,24.6 298.8,25.8 296.8,25.8 Z M161.4,18 C159.2,18 157.2,16.5 156.6,14.3 C155.9,11.6 157.4,8.9 160.1,8.2 C164,7.1 168,6.1 172,5.3 C174.7,4.7 177.4,6.4 177.9,9.1 C178.5,11.8 176.8,14.5 174.1,15 C170.3,15.8 166.5,16.7 162.7,17.8 C162.3,18 161.9,18 161.4,18 Z M256.5,14.1 C256.2,14.1 255.9,14.1 255.6,14 C251.8,13.3 247.9,12.7 244,12.2 C241.3,11.9 239.3,9.3 239.7,6.6 C240,3.9 242.6,1.9 245.3,2.3 C249.3,2.8 253.4,3.5 257.4,4.2 C260.1,4.7 261.9,7.3 261.4,10 C261,12.4 258.9,14.1 256.5,14.1 Z M202.8,11 C200.2,11 198,9 197.8,6.3 C197.6,3.5 199.7,1.2 202.4,1 C206.5,0.7 210.6,0.5 214.7,0.5 C217.5,0.4 219.7,2.7 219.8,5.4 C219.8,8.2 217.6,10.4 214.9,10.5 C211,10.6 207.1,10.7 203.2,11 C203,11 202.9,11 202.8,11 Z" id="Shape" fill="#383A48"></path>
                </g>
                <g transform="translate(0.000000, 285.000000)" fill-rule="nonzero">
                    <g transform="translate(60.000000, 0.000000)">
                        <circle id="Oval" fill="#E0719E" cx="249.4" cy="249.3" r="244.1"></circle>
                        <path d="M249.4,498.4 C182.9,498.4 120.3,472.5 73.3,425.4 C26.3,378.4 0.3,315.8 0.3,249.3 C0.3,182.8 26.2,120.2 73.3,73.2 C120.3,26.2 182.9,0.2 249.4,0.2 C315.9,0.2 378.5,26.1 425.5,73.2 C472.5,120.2 498.5,182.8 498.5,249.3 C498.5,315.8 472.6,378.4 425.5,425.4 C378.5,472.5 316,498.4 249.4,498.4 Z M249.4,10.3 C185.5,10.3 125.5,35.2 80.4,80.3 C35.2,125.5 10.4,185.5 10.4,249.3 C10.4,313.1 35.3,373.2 80.4,418.3 C125.6,463.5 185.6,488.3 249.4,488.3 C313.2,488.3 373.3,463.4 418.4,418.3 C463.6,373.1 488.4,313.1 488.4,249.3 C488.4,185.5 463.5,125.4 418.4,80.3 C373.3,35.1 313.3,10.3 249.4,10.3 Z" id="Shape" fill="#383A48"></path>
                    </g>
                    <g>
                        <circle id="Oval" fill="#F6E049" cx="249.4" cy="249.3" r="244.1"></circle>
                        <path d="M249.4,498.4 C182.9,498.4 120.3,472.5 73.3,425.4 C26.3,378.4 0.3,315.8 0.3,249.3 C0.3,182.8 26.2,120.2 73.3,73.2 C120.3,26.2 182.9,0.2 249.4,0.2 C315.9,0.2 378.5,26.1 425.5,73.2 C472.5,120.2 498.5,182.8 498.5,249.3 C498.5,315.8 472.6,378.4 425.5,425.4 C378.5,472.5 316,498.4 249.4,498.4 Z M249.4,10.3 C185.5,10.3 125.5,35.2 80.4,80.3 C35.2,125.5 10.4,185.5 10.4,249.3 C10.4,313.1 35.3,373.2 80.4,418.3 C125.6,463.5 185.6,488.3 249.4,488.3 C313.2,488.3 373.3,463.4 418.4,418.3 C463.6,373.1 488.4,313.1 488.4,249.3 C488.4,185.5 463.5,125.4 418.4,80.3 C373.3,35.1 313.3,10.3 249.4,10.3 Z" id="Shape" fill="#383A48"></path>
                    </g>
                    <g transform="translate(51.000000, 51.000000)">
                        <circle id="Oval" fill="#F6E049" cx="198.4" cy="198.3" r="193.4"></circle>
                        <path d="M198.4,396.7 C89,396.7 0,307.7 0,198.3 C0,88.9 89.1,0 198.4,0 C307.7,0 396.8,89 396.8,198.4 C396.8,307.8 307.8,396.7 198.4,396.7 Z M198.4,10 C94.5,10 10,94.5 10,198.4 C10,302.3 94.5,386.8 198.4,386.8 C302.3,386.8 386.8,302.3 386.8,198.4 C386.8,94.5 302.3,10 198.4,10 Z" id="Shape" fill="#383A48"></path>
                    </g>
                    <g transform="translate(161.000000, 106.000000)" fill="#383A48">
                        <polygon id="Path" points="108.7 75 71.4 75 60.6 85.8 60.6 114 71.4 124.6 132.4 124.6 165.2 157.6 165.2 215.8 132.4 248.6 107.9 248.6 107.9 281.6 66.6 281.6 66.6 248.6 35.8 248.6 8.1 220.3 39.2 191 60.1 211.6 107.4 211.6 118 201 118 172.6 107.4 161.8 46.4 161.8 13.6 129 13.6 71.1 46.4 38.1 66.7 38.1 66.7 5.3 108 5.3 108 38 134.3 38 160.6 65.6 128.4 94.9"></polygon>
                        <path d="M112.8,286.6 L61.5,286.6 L61.5,253.6 L33.6,253.6 L0.8,220.2 L39.1,184.1 L61.9,206.6 L105,206.6 L112.7,198.9 L112.7,174.6 L105,166.8 L44,166.8 L8.2,131 L8.2,69 L43.9,33.1 L61.3,33.1 L61.3,0.3 L112.6,0.3 L112.6,33 L136,33 L167.3,65.8 L127.7,101.8 L106.6,80 L73.4,80 L65.5,87.9 L65.5,111.9 L73.3,119.6 L134.3,119.6 L170,155.5 L170,217.8 L134.2,253.6 L112.6,253.6 L112.6,286.6 L112.8,286.6 L112.8,286.6 Z M71.6,276.6 L102.9,276.6 L102.9,243.6 L130.3,243.6 L160.2,213.7 L160.2,159.6 L130.3,129.6 L69.4,129.6 L55.6,116 L55.6,83.7 L69.3,70 L110.8,70 L128.3,87.9 L153.2,65.3 L132,43 L102.9,43 L102.9,10.2 L71.6,10.2 L71.6,43 L48.4,43 L18.5,73 L18.5,126.8 L48.4,156.7 L109.4,156.7 L123,170.4 L123,203 L109.4,216.6 L58,216.6 L39.1,198 L15.2,220.5 L37.9,243.7 L71.6,243.7 L71.6,276.6 L71.6,276.6 Z" id="Shape"></path>
                    </g>
                </g>
                <g transform="translate(262.000000, 0.000000)" fill-rule="nonzero">
                    <g>
                        <rect id="Rectangle" fill="#F3F6E6" x="5.6" y="5.6" width="449.3" height="284.7"></rect>
                        <path d="M454.8,295.3 L5.6,295.3 C2.8,295.3 0.6,293.1 0.6,290.3 L0.6,5.6 C0.6,2.8 2.8,0.6 5.6,0.6 L454.9,0.6 C457.7,0.6 459.9,2.8 459.9,5.6 L459.9,290.3 C459.8,293 457.6,295.3 454.8,295.3 Z M10.6,285.3 L449.9,285.3 L449.9,10.6 L10.6,10.6 L10.6,285.3 Z" id="Shape" fill="#383A48"></path>
                    </g>
                    <g fill="#383A48">
                        <rect id="Rectangle" x="5.6" y="5.6" width="449.3" height="95.1"></rect>
                        <path d="M454.8,105.7 L5.6,105.7 C2.8,105.7 0.6,103.5 0.6,100.7 L0.6,5.6 C0.6,2.8 2.8,0.6 5.6,0.6 L454.9,0.6 C457.7,0.6 459.9,2.8 459.9,5.6 L459.9,100.7 C459.8,103.4 457.6,105.7 454.8,105.7 Z M10.6,95.7 L449.9,95.7 L449.9,10.6 L10.6,10.6 L10.6,95.7 Z" id="Shape"></path>
                    </g>
                    <rect id="Rectangle" fill="#AAC6FC" x="55.9" y="147.3" width="356.1" height="57"></rect>
                </g>
                <path d="M959.3,472.7 C958.7,472.7 958.2,472.7 957.6,472.6 C949.5,471.7 942.9,464.8 939.8,454.1 C937.6,446.5 935.9,438.8 934.7,431.1 C924.4,426.2 912.5,422.9 899.9,421.4 C870.5,418.1 840.5,425.5 815.2,442.3 C812.9,443.8 809.8,443.2 808.3,440.9 C806.8,438.6 807.4,435.5 809.7,434 C836.9,415.9 869.4,407.9 901.1,411.5 C912.5,412.8 923.5,415.6 933.4,419.6 C931.3,396.2 933.8,373 940.9,351 C950.8,320.6 969.2,293.3 994.1,272 C1019,250.7 1048.8,236.6 1080.4,231.3 C1113.9,225.7 1148,230.3 1179.1,244.7 C1181.6,245.9 1182.7,248.8 1181.5,251.3 C1180.3,253.8 1177.4,254.9 1174.9,253.7 C1145.7,240.1 1113.6,235.8 1082.1,241.1 C1052.3,246.1 1024.1,259.4 1000.7,279.5 C977.2,299.6 959.9,325.4 950.5,354 C943.2,376.5 941,400.4 944.1,424.5 C953.9,429.8 962.3,436.5 968.4,444.1 C974.1,451.2 975.5,459.1 972.1,465.2 C969.4,469.9 964.6,472.7 959.3,472.7 Z M946,437.5 C946.9,442.1 948.1,446.7 949.4,451.3 C951.3,458 954.8,462.2 958.7,462.6 C960.6,462.8 962.3,462 963.1,460.5 C964.5,458 963.4,454.3 960.3,450.4 C956.6,445.7 951.7,441.3 946,437.5 Z" id="Shape" fill="#383A48" fill-rule="nonzero"></path>
                <path d="M716.8,653.6 C714,653.6 711.8,651.4 711.8,648.6 C711.8,645.8 714,643.6 716.8,643.6 C725.2,643.6 732,636.8 732,628.4 L732,542.8 C732,531.5 735.9,520.7 743,512.1 C735.9,503.5 732,492.7 732,481.4 L732,395.8 C732,387.4 725.2,380.6 716.8,380.6 C714,380.6 711.8,378.4 711.8,375.6 C711.8,372.8 714,370.6 716.8,370.6 C730.7,370.6 742,381.9 742,395.8 L742,481.4 C742,491.7 746,501.3 753.3,508.6 C755.3,510.6 755.3,513.7 753.3,515.7 C746,523 742,532.6 742,542.9 L742,628.5 C742,642.3 730.7,653.6 716.8,653.6 Z" id="Path" fill="#383A48" fill-rule="nonzero"></path>
            </g>
        </g>
    </g>
</svg>