<?xml version="1.0" encoding="UTF-8"?>
<svg width="1450px" height="698px" viewBox="0 0 1450 698" version="1.1" xmlns="http://www.w3.org/2000/svg" xmlns:xlink="http://www.w3.org/1999/xlink">
    <!-- Generator: Sketch 59.1 (86144) - https://sketch.com -->
    <title>abstract-plant-growth</title>
    <desc>Created with Sketch.</desc>
    <g id="Page-1" stroke="none" stroke-width="1" fill="none" fill-rule="evenodd">
        <g id="abstract-plant-growth" transform="translate(-235.000000, -191.000000)">
            <g id="Group" transform="translate(235.000000, 191.000000)">
                <path d="M568.1,0.9 L6.9,0.9 C4.1,0.9 1.9,3.1 1.9,5.9 L1.9,455.6 C1.9,458.4 4.1,460.6 6.9,460.6 C9.7,460.6 11.9,458.4 11.9,455.6 C11.9,399.2 51.3,381.1 105.9,355.9 C133.3,343.3 164.3,328.9 195.5,307.4 C234.1,280.7 263.3,241.9 294.3,200.8 C324.3,161 355.4,119.8 397.9,85.2 C446.1,46 502,21.7 568.8,11 C571.4,10.6 573.2,8.3 573,5.7 C572.9,2.9 570.7,0.9 568.1,0.9 Z" id="Path" fill="#F3F6E6" fill-rule="nonzero"></path>
                <path d="M1446.2,1.3 C1444.4,0.5 1442.3,0.8 1440.9,2.1 C1362,69.9 1309,136.7 1262.2,195.6 C1215.3,254.8 1174.7,305.9 1119.6,344.4 C1059.5,386.5 986.9,409.1 891.3,415.8 C853.8,418.4 781.3,417.9 717.3,417.4 C643.1,416.9 597.2,416.7 587.6,419.3 C482.4,448.6 446.2,514.7 414.3,573 C380.8,634.2 351.9,687.1 251.9,687.1 C249.1,687.1 246.9,689.3 246.9,692.1 C246.9,694.9 249.1,697.1 251.9,697.1 L1444.2,697.1 C1447,697.1 1449.2,694.9 1449.2,692.1 L1449.2,5.9 C1449.2,3.9 1448,2.1 1446.2,1.3 Z" id="Path" fill="#F3F6E6" fill-rule="nonzero"></path>
                <path d="M1148.5,697.1 L192.7,697.1 C189.9,697.1 187.7,694.9 187.7,692.1 C187.7,689.3 189.9,687.1 192.7,687.1 L1148.5,687.1 C1151.3,687.1 1153.5,689.3 1153.5,692.1 C1153.5,694.9 1151.2,697.1 1148.5,697.1 Z" id="Path" fill="#383A48" fill-rule="nonzero"></path>
                <g transform="translate(1191.000000, 226.000000)" fill="#383A48" fill-rule="nonzero">
                    <circle id="Oval" cx="72.1" cy="72" r="66.4"></circle>
                    <path d="M72.1,143.3 C53.8,143.3 35.5,136.3 21.6,122.4 C-6.2,94.6 -6.2,49.3 21.6,21.5 C35.1,8 53,0.6 72.1,0.6 C91.2,0.6 109.1,8 122.6,21.5 C136.1,35 143.5,52.9 143.5,72 C143.5,91.1 136.1,109 122.6,122.5 L122.6,122.5 L122.6,122.5 C108.7,136.4 90.4,143.3 72.1,143.3 Z M72.1,10.6 C55.7,10.6 40.3,17 28.7,28.6 C4.8,52.5 4.8,91.5 28.7,115.4 C52.6,139.3 91.6,139.3 115.5,115.4 L115.5,115.4 C127.1,103.8 133.5,88.4 133.5,72 C133.5,55.6 127.1,40.2 115.5,28.6 C103.9,17 88.5,10.6 72.1,10.6 Z" id="Shape"></path>
                </g>
                <g transform="translate(1260.000000, 295.000000)" fill="#383A48" fill-rule="nonzero">
                    <circle id="Oval" cx="71.5" cy="71.3" r="66.4"></circle>
                    <path d="M71.5,142.7 C53.2,142.7 34.9,135.7 21,121.8 C-6.8,94 -6.8,48.7 21,20.9 C48.8,-6.9 94.1,-6.9 121.9,20.9 C149.7,48.7 149.7,94 121.9,121.8 C108,135.7 89.7,142.7 71.5,142.7 Z M71.5,10 C55.8,10 40.1,16 28.1,27.9 C4.2,51.8 4.2,90.8 28.1,114.7 C52,138.6 91,138.6 114.9,114.7 C138.8,90.8 138.8,51.8 114.9,27.9 C102.9,16 87.2,10 71.5,10 Z" id="Shape"></path>
                </g>
                <g transform="translate(187.000000, 0.000000)" fill-rule="nonzero">
                    <g transform="translate(91.000000, 0.000000)">
                        <path d="M131.1,377.6 C128.3,377.6 126.1,375.4 126.1,372.6 L126.1,24.9 C126.1,22.1 128.3,19.9 131.1,19.9 C133.9,19.9 136.1,22.1 136.1,24.9 L136.1,372.7 C136.1,375.4 133.9,377.6 131.1,377.6 Z" id="Path" fill="#383A48"></path>
                        <g transform="translate(82.000000, 0.000000)">
                            <path d="M92.3003849,49.2 C92.2,73.1 48.8,139.2 48.8,139.2 C48.8,139.2 5.7,72.9 5.79982625,49 C5.9,25.1 25.3,5.8 49.2,5.89961315 C73,5.89961315 92.4,25.3 92.3003849,49.2 Z" id="Path" fill="#F6E049"></path>
                            <path d="M48.8,144.2 L48.8,144.2 C47.1,144.2 45.5,143.3 44.6,141.9 C40.1,135 0.7,73.6 0.799809975,49 C0.9,22.4 22.5,0.9 49,0.9 L49.1,0.9 C62,0.9 74.1,6 83.2,15.1 C92.3,24.2 97.3,36.4 97.3,49.3 C97.3,60.1 89.7,79 74.9,105.7 C64.1,125.1 53.1,141.9 53,142.1 C52.1,143.4 50.5,144.2 48.8,144.2 Z M49,10.9 C28,10.9 10.8,28 10.8,49.1 C10.8,65.6 35.3,108.3 48.9,130 C62.5,108.4 87.3,65.7 87.3,49.3 L87.3,49.3 C87.3,39.1 83.4,29.5 76.2,22.2 C69,14.9 59.4,10.9 49,10.9 C49.1,10.9 49.1,10.9 49,10.9 Z" id="Shape" fill="#383A48"></path>
                        </g>
                        <g transform="translate(125.000000, 63.000000)">
                            <path d="M105.8,87.8 C84.1,97.8 5.9,86.1 5.9,86.1 C5.9,86.1 48,19.2 69.8,9.2 C91.6,-0.8 117.2,8.8 127.1,30.5 C137,52.1 127.5,77.8 105.8,87.8 Z" id="Path" fill="#F6E049"></path>
                            <path d="M74.6,96.8 C66.7,96.8 57.6,96.4 47.3,95.6 C25.1,93.9 5.3,91 5.1,91 C3.4,90.8 2,89.7 1.3,88.1 C0.6,86.6 0.7,84.8 1.6,83.4 C6,76.4 45.2,14.9 67.6,4.6 C79.3,-0.8 92.4,-1.3 104.5,3.2 C116.6,7.7 126.2,16.6 131.6,28.3 C142.7,52.5 132.1,81.2 107.9,92.3 L107.9,92.3 C101.4,95.3 90.2,96.8 74.6,96.8 Z M14.3,82.2 C39.7,85.5 88.7,90.1 103.7,83.3 C122.9,74.5 131.3,51.7 122.5,32.6 C118.2,23.3 110.6,16.2 101,12.7 C91.4,9.1 81,9.5 71.7,13.8 C56.8,20.6 28.3,60.8 14.3,82.2 Z" id="Shape" fill="#383A48"></path>
                        </g>
                        <g transform="translate(0.000000, 63.000000)">
                            <path d="M30.9,87.8 C52.6,97.8 130.8,86.1 130.8,86.1 C130.8,86.1 88.7,19.2 66.9,9.2 C45.1,-0.8 19.5,8.8 9.6,30.5 C-0.3,52.1 9.2,77.8 30.9,87.8 Z" id="Path" fill="#F6E049"></path>
                            <path d="M62.5,96.8 C48.6,96.8 36.1,95.6 28.8,92.3 C17.1,86.9 8.2,77.3 3.7,65.2 C-0.8,53.1 -0.3,40 5.1,28.3 C10.5,16.6 20.1,7.7 32.2,3.2 C44.3,-1.3 57.4,-0.8 69.1,4.6 C78.9,9.1 93,23.8 111.1,48.4 C124.3,66.3 135,83.2 135.1,83.4 C136,84.8 136.1,86.6 135.4,88.1 C134.7,89.6 133.3,90.7 131.6,91 C126.1,91.8 91.4,96.8 62.5,96.8 Z M49,10.2 C44.5,10.2 40,11 35.7,12.6 C26.1,16.2 18.5,23.2 14.2,32.5 C9.9,41.8 9.5,52.2 13.1,61.8 C16.7,71.4 23.7,79 33,83.3 C48,90.2 97.1,85.6 122.4,82.2 C108.4,60.8 79.9,20.6 64.9,13.7 C59.8,11.4 54.4,10.2 49,10.2 Z" id="Shape" fill="#383A48"></path>
                        </g>
                        <g transform="translate(12.000000, 144.000000)">
                            <path d="M75.1,94.9 C93.8,80.1 118.9,5 118.9,5 C118.9,5 40.1,12.2 21.4,27.1 C2.7,42 -0.5,69.1 14.4,87.9 C29.1,106.6 56.3,109.8 75.1,94.9 Z" id="Path" fill="#F6E049"></path>
                            <path d="M48.3,109.3 C34.1,109.3 19.9,103 10.4,91 C-6.1,70.1 -2.6,39.7 18.3,23.2 C26.7,16.5 46.3,10.6 76.3,5.6 C98.3,2 118.2,0.1 118.4,0.1 C120.1,-0.1 121.7,0.7 122.8,2 C123.9,3.3 124.2,5.1 123.6,6.7 C123.5,6.9 117.2,25.9 108.6,46.4 C96.9,74.5 86.6,92.2 78.2,98.9 C69.3,105.8 58.7,109.3 48.3,109.3 Z M111.6,10.8 C86.2,13.6 37.4,20.8 24.5,31 C16.5,37.3 11.4,46.4 10.3,56.6 C9.1,66.7 12,76.7 18.3,84.8 C31.4,101.3 55.5,104.1 72,91 C84.9,80.8 103,34.9 111.6,10.8 Z" id="Shape" fill="#383A48"></path>
                        </g>
                        <g transform="translate(126.000000, 144.000000)">
                            <path d="M49,94.9 C30.3,80.1 5.2,5 5.2,5 C5.2,5 84,12.2 102.7,27.1 C121.4,42 124.6,69.1 109.7,87.9 C95,106.6 67.8,109.8 49,94.9 Z" id="Path" fill="#F6E049"></path>
                            <path d="M75.8,109.3 C65.3,109.3 54.7,105.9 45.9,98.9 C37.5,92.2 27.2,74.6 15.5,46.4 C6.9,25.9 0.6,6.9 0.5,6.7 C2.49800181e-15,5.1 0.3,3.3 1.3,2 C2.3,0.7 4,5.63576963e-14 5.7,0.1 C5.9,0.1 25.8,2 47.8,5.6 C77.9,10.6 97.4,16.5 105.8,23.2 C115.9,31.2 122.3,42.7 123.8,55.5 C125.3,68.3 121.7,80.9 113.7,91 C104.2,103 90.1,109.3 75.8,109.3 Z M12.5,10.8 C21,34.9 39.2,80.7 52.1,91 C68.6,104.1 92.7,101.3 105.8,84.8 C112.1,76.8 115,66.8 113.8,56.6 C112.6,46.5 107.6,37.4 99.6,31 C86.7,20.8 38,13.6 12.5,10.8 Z" id="Shape" fill="#383A48"></path>
                        </g>
                    </g>
                    <g transform="translate(26.000000, 305.000000)">
                        <polygon id="Path" fill="#AAC6FC" points="387 5.3 5.2 5.3 42.3 387.1 349.9 387.1"></polygon>
                        <path d="M349.9,392.1 L42.3,392.1 C39.7,392.1 37.6,390.1 37.3,387.6 L0.2,5.8 C0.1,4.4 0.5,3 1.5,2 C2.4,1 3.8,0.4 5.2,0.4 L387,0.4 C388.4,0.4 389.8,1 390.7,2 C391.6,3 392.1,4.4 392,5.8 L354.9,387.6 C354.6,390.2 352.4,392.1 349.9,392.1 Z M46.9,382.1 L345.3,382.1 L381.5,10.3 L10.7,10.3 L46.9,382.1 Z" id="Shape" fill="#383A48"></path>
                    </g>
                    <g transform="translate(51.000000, 449.000000)" fill="#383A48" id="Oval">
                        <circle cx="325.7" cy="178.2" r="5"></circle>
                        <circle cx="325.7" cy="202.9" r="5"></circle>
                        <circle cx="325.7" cy="227.5" r="5"></circle>
                        <circle cx="301" cy="178.2" r="5"></circle>
                        <circle cx="301" cy="202.9" r="5"></circle>
                        <circle cx="301" cy="227.5" r="5"></circle>
                        <circle cx="276.3" cy="178.2" r="5"></circle>
                        <circle cx="276.3" cy="202.9" r="5"></circle>
                        <circle cx="276.3" cy="227.5" r="5"></circle>
                        <circle cx="251.7" cy="178.2" r="5"></circle>
                        <circle cx="251.7" cy="202.9" r="5"></circle>
                        <circle cx="251.7" cy="227.5" r="5"></circle>
                        <circle cx="227" cy="178.2" r="5"></circle>
                        <circle cx="227" cy="202.9" r="5"></circle>
                        <circle cx="227" cy="227.5" r="5"></circle>
                        <circle cx="202.3" cy="178.2" r="5"></circle>
                        <circle cx="202.3" cy="202.9" r="5"></circle>
                        <circle cx="202.3" cy="227.5" r="5"></circle>
                        <circle cx="177.7" cy="178.2" r="5"></circle>
                        <circle cx="177.7" cy="202.9" r="5"></circle>
                        <circle cx="177.7" cy="227.5" r="5"></circle>
                        <circle cx="153" cy="178.2" r="5"></circle>
                        <circle cx="153" cy="202.9" r="5"></circle>
                        <circle cx="153" cy="227.5" r="5"></circle>
                        <circle cx="128.3" cy="178.2" r="5"></circle>
                        <circle cx="128.3" cy="202.9" r="5"></circle>
                        <circle cx="128.3" cy="227.5" r="5"></circle>
                        <circle cx="103.7" cy="178.2" r="5"></circle>
                        <circle cx="103.7" cy="202.9" r="5"></circle>
                        <circle cx="103.7" cy="227.5" r="5"></circle>
                        <circle cx="79" cy="178.2" r="5"></circle>
                        <circle cx="79" cy="202.9" r="5"></circle>
                        <circle cx="79" cy="227.5" r="5"></circle>
                        <circle cx="54.3" cy="5.5" r="5"></circle>
                        <circle cx="54.3" cy="30.2" r="5"></circle>
                        <circle cx="54.3" cy="54.9" r="5"></circle>
                        <circle cx="54.3" cy="79.5" r="5"></circle>
                        <circle cx="54.3" cy="104.2" r="5"></circle>
                        <circle cx="54.3" cy="128.9" r="5"></circle>
                        <circle cx="54.3" cy="153.5" r="5"></circle>
                        <circle cx="54.3" cy="178.2" r="5"></circle>
                        <circle cx="54.3" cy="202.9" r="5"></circle>
                        <circle cx="54.3" cy="227.5" r="5"></circle>
                        <circle cx="29.7" cy="5.5" r="5"></circle>
                        <circle cx="29.7" cy="30.2" r="5"></circle>
                        <circle cx="29.7" cy="54.9" r="5"></circle>
                        <circle cx="29.7" cy="79.5" r="5"></circle>
                        <circle cx="29.7" cy="104.2" r="5"></circle>
                        <circle cx="29.7" cy="128.9" r="5"></circle>
                        <circle cx="29.7" cy="153.5" r="5"></circle>
                        <circle cx="29.7" cy="178.2" r="5"></circle>
                        <circle cx="29.7" cy="202.9" r="5"></circle>
                        <circle cx="29.7" cy="227.5" r="5"></circle>
                        <circle cx="5" cy="5.5" r="5"></circle>
                        <circle cx="5" cy="30.2" r="5"></circle>
                        <circle cx="5" cy="54.9" r="5"></circle>
                        <circle cx="5" cy="79.5" r="5"></circle>
                    </g>
                    <g transform="translate(37.000000, 419.000000)" fill="#383A48">
                        <polygon id="Path" points="5.3 5.1 9.2 45.4 361 45.4 364.9 5.1"></polygon>
                        <path d="M361,50.4 L9.2,50.4 C6.6,50.4 4.5,48.4 4.2,45.9 L0.3,5.7 C0.2,4.3 0.6,2.9 1.6,1.9 C2.5,0.9 3.9,0.3 5.3,0.3 L365,0.3 C366.4,0.3 367.8,0.9 368.7,1.9 C369.6,2.9 370.1,4.3 370,5.7 L366.1,45.9 C365.7,48.4 363.6,50.4 361,50.4 Z M13.7,40.4 L356.5,40.4 L359.4,10.2 L10.8,10.2 L13.7,40.4 Z" id="Shape"></path>
                    </g>
                    <g transform="translate(0.000000, 304.000000)">
                        <rect id="Rectangle" fill="#AAC6FC" x="5.8" y="5.1" width="432.6" height="115"></rect>
                        <path d="M438.5,125.1 L5.8,125.1 C3,125.1 0.8,122.9 0.8,120.1 L0.8,5.1 C0.8,2.3 3,0.1 5.8,0.1 L438.4,0.1 C441.2,0.1 443.403143,2.3 443.403143,5.1 L443.403143,120.1 C443.5,122.9 441.2,125.1 438.5,125.1 Z M10.8,115.1 L433.4,115.1 L433.4,10.1 L10.8,10.1 L10.8,115.1 Z" id="Shape" fill="#383A48"></path>
                    </g>
                </g>
                <g transform="translate(620.000000, 127.000000)" fill-rule="nonzero">
                    <g transform="translate(40.000000, 0.000000)">
                        <path d="M122.2,342.4 C119.4,342.4 117.2,340.2 117.2,337.4 L117.2,73 C117.2,70.2 119.4,68 122.2,68 C125,68 127.2,70.2 127.2,73 L127.2,337.4 C127.2,340.1 125,342.4 122.2,342.4 Z" id="Path" fill="#383A48"></path>
                        <g transform="translate(77.000000, 0.000000)">
                            <path d="M85.8,46.1 C85.7,68.3 45.4,129.8 45.4,129.8 C45.4,129.8 5.3,68.1 5.39981328,45.9 C5.5,23.7 23.5,5.7 45.7,5.79958534 C67.9,5.9 85.8,23.9 85.8,46.1 Z" id="Path" fill="#7FD6C2"></path>
                            <path d="M45.4,134.9 C45.4,134.9 45.3,134.9 45.4,134.9 C43.7,134.9 42.1,134 41.2,132.6 C37,126.2 0.3,69 0.3,45.9 C0.3,33.8 5.1,22.5 13.6,13.9 C22.1,5.4 33.5,0.7 45.5,0.7 L45.6,0.7 C57.7,0.7 69,5.5 77.6,14 C86.1,22.6 90.8,33.9 90.8,46 C90.7,69 53.8,126.1 49.5,132.5 C48.6,134 47,134.9 45.4,134.9 Z M45.6,10.8 C36.2,10.8 27.4,14.4 20.7,21.1 C14,27.7 10.3,36.6 10.3,46 C10.3,61.1 32.7,100.3 45.4,120.6 C58.1,100.4 80.8,61.3 80.8,46.1 L80.8,46.1 C80.8,36.7 77.2,27.8 70.5,21.2 C63.8,14.6 55.1,10.8 45.6,10.8 L45.6,10.8 Z" id="Shape" fill="#383A48"></path>
                        </g>
                        <g transform="translate(117.000000, 58.000000)">
                            <path d="M98.3,82.6 C78.1,91.9 5.3,81 5.3,81 C5.3,81 44.5,18.7 64.7,9.5 C84.9,0.2 108.8,9.1 118.1,29.3 C127.4,49.5 118.5,73.4 98.3,82.6 Z" id="Path" fill="#7FD6C2"></path>
                            <path d="M68.9,91.4 C42,91.4 9.8,86.7 4.6,86 C2.9,85.8 1.5,84.7 0.8,83.1 C0.1,81.6 0.2,79.8 1.1,78.4 C5.2,71.9 41.7,14.6 62.7,5 C73.7,0 86,-0.5 97.3,3.7 C108.6,7.9 117.6,16.3 122.7,27.2 C127.7,38.2 128.2,50.5 124,61.8 C119.8,73.1 111.4,82.1 100.5,87.2 C93.6,90.3 81.9,91.4 68.9,91.4 Z M13.8,77.2 C37.5,80.3 82.5,84.4 96.3,78.1 L96.3,78.1 C104.9,74.2 111.4,67.2 114.6,58.3 C117.9,49.5 117.5,39.9 113.6,31.3 C109.7,22.7 102.6,16.2 93.8,13 C85,9.7 75.4,10.1 66.8,14 C53.1,20.4 26.9,57.2 13.8,77.2 Z" id="Shape" fill="#383A48"></path>
                        </g>
                        <g transform="translate(0.000000, 58.000000)">
                            <path d="M29.4,82.6 C49.6,91.9 122.4,81 122.4,81 C122.4,81 83.2,18.7 63,9.5 C42.8,0.2 18.9,9.1 9.6,29.3 C0.3,49.5 9.2,73.4 29.4,82.6 Z" id="Path" fill="#7FD6C2"></path>
                            <path d="M58.8,91.4 C45.8,91.4 34.1,90.3 27.3,87.2 C4.6,76.8 -5.4,49.9 5.1,27.2 C10.1,16.2 19.2,7.9 30.5,3.7 C41.8,-0.5 54.1,0 65.1,5 C86,14.6 122.6,71.9 126.7,78.4 C127.6,79.8 127.7,81.6 127,83.1 C126.3,84.6 124.9,85.7 123.2,86 C118,86.8 85.7,91.4 58.8,91.4 Z M46.2,10.8 C42.1,10.8 37.9,11.5 33.9,13 C25.1,16.3 18.1,22.8 14.1,31.3 C6,49 13.8,69.9 31.4,78 C45.2,84.3 90.1,80.1 113.9,77.1 C100.8,57.1 74.6,20.3 60.8,14 C56.2,11.9 51.2,10.8 46.2,10.8 Z" id="Shape" fill="#383A48"></path>
                        </g>
                    </g>
                    <g transform="translate(18.000000, 289.000000)">
                        <polygon id="Path" fill="#E0719E" points="276 5.6 5.5 5.6 31.8 276.1 249.7 276.1"></polygon>
                        <path d="M249.7,281.1 L31.8,281.1 C29.2,281.1 27.1,279.1 26.8,276.6 L0.5,6.1 C0.4,4.7 0.8,3.3 1.8,2.3 C2.7,1.3 4.1,0.7 5.5,0.7 L276,0.7 C277.4,0.7 278.8,1.3 279.7,2.3 C280.6,3.3 281.1,4.7 281,6.1 L254.7,276.6 C254.4,279.2 252.3,281.1 249.7,281.1 Z M36.4,271.1 L245.2,271.1 L270.5,10.6 L11,10.6 L36.4,271.1 Z" id="Shape" fill="#383A48"></path>
                    </g>
                    <g transform="translate(37.000000, 396.000000)" fill="#383A48" id="Oval">
                        <circle cx="227.3" cy="128.9" r="5"></circle>
                        <circle cx="227.3" cy="153.5" r="5"></circle>
                        <circle cx="202.7" cy="128.9" r="5"></circle>
                        <circle cx="202.7" cy="153.5" r="5"></circle>
                        <circle cx="178" cy="128.9" r="5"></circle>
                        <circle cx="178" cy="153.5" r="5"></circle>
                        <circle cx="153.3" cy="128.9" r="5"></circle>
                        <circle cx="153.3" cy="153.5" r="5"></circle>
                        <circle transform="translate(128.728330, 128.901710) rotate(-80.781636) translate(-128.728330, -128.901710) " cx="128.72833" cy="128.90171" r="5.00007612"></circle>
                        <circle transform="translate(128.728690, 153.502030) rotate(-80.781636) translate(-128.728690, -153.502030) " cx="128.72869" cy="153.50203" r="5.00007612"></circle>
                        <circle cx="104" cy="128.9" r="5"></circle>
                        <circle cx="104" cy="153.5" r="5"></circle>
                        <circle cx="79.3" cy="128.9" r="5"></circle>
                        <circle cx="79.3" cy="153.5" r="5"></circle>
                        <circle cx="54.7" cy="128.9" r="5"></circle>
                        <circle cx="54.7" cy="153.5" r="5"></circle>
                        <circle cx="30" cy="5.5" r="5"></circle>
                        <circle cx="30" cy="30.2" r="5"></circle>
                        <circle cx="30" cy="54.9" r="5"></circle>
                        <circle cx="30" cy="79.5" r="5"></circle>
                        <circle cx="30" cy="104.2" r="5"></circle>
                        <circle cx="30" cy="128.9" r="5"></circle>
                        <circle cx="30" cy="153.5" r="5"></circle>
                        <circle cx="5.3" cy="5.5" r="5"></circle>
                        <circle cx="5.3" cy="30.2" r="5"></circle>
                        <circle cx="5.3" cy="54.9" r="5"></circle>
                        <circle cx="5.3" cy="79.5" r="5"></circle>
                        <circle cx="5.3" cy="104.2" r="5"></circle>
                    </g>
                    <g transform="translate(26.000000, 370.000000)" fill="#383A48">
                        <polygon id="Path" points="5.4 5.3 8.1 33.7 257.4 33.7 260.2 5.3"></polygon>
                        <path d="M257.4,38.7 L8.1,38.7 C5.5,38.7 3.4,36.7 3.1,34.2 L0.3,5.7 C0.2,4.3 0.6,2.9 1.6,1.9 C2.5,0.9 3.9,0.3 5.3,0.3 L260.1,0.3 C261.5,0.3 262.9,0.9 263.8,1.9 C264.7,2.9 265.2,4.3 265.1,5.7 L262.3,34.2 C262.1,36.8 260,38.7 257.4,38.7 Z M12.7,28.7 L252.9,28.7 L254.7,10.2 L10.9,10.2 L12.7,28.7 Z" id="Shape"></path>
                    </g>
                    <g transform="translate(0.000000, 288.000000)">
                        <rect id="Rectangle" fill="#E0719E" x="5.5" y="5.8" width="306.6" height="81.5"></rect>
                        <path d="M312.1,92.3 L5.5,92.3 C2.7,92.3 0.5,90.1 0.5,87.3 L0.5,5.8 C0.5,3 2.7,0.8 5.5,0.8 L312.1,0.8 C314.9,0.8 317.1,3 317.1,5.8 L317.1,87.3 C317.1,90 314.8,92.3 312.1,92.3 Z M10.5,82.3 L307.1,82.3 L307.1,10.8 L10.5,10.8 L10.5,82.3 Z" id="Shape" fill="#383A48"></path>
                    </g>
                </g>
                <g transform="translate(927.000000, 293.000000)" fill-rule="nonzero">
                    <g transform="translate(82.000000, 0.000000)">
                        <path d="M33.9,243.6 C31.1,243.6 28.9,241.4 28.9,238.6 L28.9,52.4 C28.9,49.6 31.1,47.4 33.9,47.4 C36.7,47.4 38.9,49.6 38.9,52.4 L38.9,238.7 C38.9,241.4 36.7,243.6 33.9,243.6 Z" id="Path" fill="#383A48"></path>
                        <g>
                            <path d="M62.5,33.4 C62.5,49.1 34,92.4 34,92.4 C34,92.4 5.7,48.9 5.79973561,33.3 C5.79973561,17.6 18.6,5 34.2,5 C49.8,5 62.5,17.8 62.5,33.4 Z" id="Path" fill="#AAC6FC"></path>
                            <path d="M34,97.5 L34,97.5 C32.3,97.5 30.7,96.6 29.8,95.2 C26.8,90.6 0.7,50 0.799713397,33.3 C0.799713397,14.9 15.8,5.68434189e-14 34.2,5.68434189e-14 L34.3,5.68434189e-14 C52.7,5.68434189e-14 67.6,15 67.6,33.4 C67.6,50.1 41.3,90.6 38.3,95.1 C37.3,96.6 35.7,97.5 34,97.5 Z M34.1,10 C21.2,10 10.8,20.4 10.7,33.3 C10.7,42.3 23.6,66.3 33.9,83.1 C44.3,66.4 57.4,42.5 57.4,33.4 C57.5,20.6 47.1,10.1 34.1,10 C34.2,10 34.2,10 34.1,10 Z" id="Shape" fill="#383A48"></path>
                        </g>
                    </g>
                    <g transform="translate(13.000000, 203.000000)">
                        <polygon id="Path" fill="#F3F6E6" points="195.8 5.5 5.2 5.5 23.7 196.1 177.2 196.1"></polygon>
                        <path d="M177.2,201.1 L23.7,201.1 C21.1,201.1 19,199.1 18.7,196.6 L0.2,6 C0.1,4.6 0.5,3.2 1.5,2.2 C2.4,1.2 3.8,0.6 5.2,0.6 L195.8,0.6 C197.2,0.6 198.6,1.2 199.5,2.2 C200.4,3.2 200.9,4.6 200.8,6 L182.3,196.6 C182,199.2 179.8,201.1 177.2,201.1 Z M28.2,191.1 L172.6,191.1 L190.2,10.5 L10.6,10.5 L28.2,191.1 Z" id="Shape" fill="#383A48"></path>
                    </g>
                    <g transform="translate(26.000000, 304.000000)" fill="#383A48" id="Oval">
                        <circle cx="153.3" cy="54.9" r="5"></circle>
                        <circle cx="153.3" cy="79.5" r="5"></circle>
                        <circle cx="128.7" cy="54.9" r="5"></circle>
                        <circle cx="128.7" cy="79.5" r="5"></circle>
                        <circle cx="104" cy="54.9" r="5"></circle>
                        <circle cx="104" cy="79.5" r="5"></circle>
                        <circle cx="79.3" cy="54.9" r="5"></circle>
                        <circle cx="79.3" cy="79.5" r="5"></circle>
                        <circle cx="54.7" cy="54.9" r="5"></circle>
                        <circle cx="54.7" cy="79.5" r="5"></circle>
                        <circle cx="30" cy="5.5" r="5"></circle>
                        <circle cx="30" cy="30.2" r="5"></circle>
                        <circle cx="30" cy="54.9" r="5"></circle>
                        <circle cx="30" cy="79.5" r="5"></circle>
                        <circle cx="5.3" cy="5.5" r="5"></circle>
                        <circle cx="5.3" cy="30.2" r="5"></circle>
                    </g>
                    <g transform="translate(18.000000, 260.000000)" fill="#383A48">
                        <polygon id="Path" points="5.7 5.3 7.6 25.4 183.3 25.4 185.2 5.3"></polygon>
                        <path d="M183.3,30.4 L7.7,30.4 C5.1,30.4 3,28.4 2.7,25.9 L0.7,5.8 C0.6,4.4 1,3 2,2 C2.9,1 4.3,0.4 5.7,0.4 L185.2,0.4 C186.6,0.4 188,1 188.9,2 C189.8,3 190.3,4.4 190.2,5.8 L188.2,25.9 C188,28.5 185.9,30.4 183.3,30.4 Z M12.2,20.4 L178.8,20.4 L179.8,10.3 L11.3,10.3 L12.2,20.4 Z" id="Shape"></path>
                    </g>
                    <g transform="translate(0.000000, 202.000000)">
                        <rect id="Rectangle" fill="#F3F6E6" x="5.4" y="5.9" width="216" height="57.4"></rect>
                        <path d="M221.5,68.3 L5.5,68.3 C2.7,68.3 0.5,66.1 0.5,63.3 L0.5,5.9 C0.5,3.1 2.7,0.9 5.5,0.9 L221.5,0.9 C224.3,0.9 226.5,3.1 226.5,5.9 L226.5,63.3 C226.5,66.1 224.2,68.3 221.5,68.3 Z M10.4,58.3 L216.4,58.3 L216.4,10.9 L10.4,10.9 L10.4,58.3 Z" id="Shape" fill="#383A48"></path>
                    </g>
                </g>
                <g transform="translate(1066.000000, 50.000000)" fill-rule="nonzero">
                    <g>
                        <circle id="Oval" fill="#F6E049" cx="72.3" cy="72.2" r="66.4"></circle>
                        <path d="M72.3,143.5 C54,143.5 35.7,136.5 21.8,122.6 C8.3,109.1 0.9,91.2 0.9,72.1 C0.9,53 8.3,35.1 21.8,21.6 C49.6,-6.2 94.9,-6.2 122.7,21.6 C136.2,35.1 143.6,53 143.6,72.1 C143.6,91.2 136.2,109.1 122.7,122.6 L122.7,122.6 L122.7,122.6 C108.9,136.6 90.6,143.5 72.3,143.5 Z M72.3,10.8 C56.6,10.8 40.9,16.8 28.9,28.7 C17.3,40.3 10.9,55.7 10.9,72.1 C10.9,88.5 17.3,103.9 28.9,115.5 C52.8,139.4 91.8,139.4 115.7,115.5 L115.7,115.5 C127.3,103.9 133.7,88.5 133.7,72.1 C133.7,55.7 127.3,40.3 115.7,28.7 C103.7,16.8 88,10.8 72.3,10.8 Z" id="Shape" fill="#383A48"></path>
                    </g>
                    <g transform="translate(30.000000, 30.000000)" fill="#383A48" id="Oval">
                        <circle cx="79.8" cy="5.2" r="5"></circle>
                        <circle cx="79.8" cy="29.8" r="5"></circle>
                        <circle cx="79.8" cy="54.5" r="5"></circle>
                        <circle cx="79.8" cy="79.2" r="5"></circle>
                        <circle cx="55.1" cy="5.2" r="5"></circle>
                        <circle cx="55.1" cy="29.8" r="5"></circle>
                        <circle cx="55.1" cy="54.5" r="5"></circle>
                        <circle cx="55.1" cy="79.2" r="5"></circle>
                        <circle cx="30.4" cy="5.2" r="5"></circle>
                        <circle cx="30.4" cy="29.8" r="5"></circle>
                        <circle cx="30.4" cy="54.5" r="5"></circle>
                        <circle cx="30.4" cy="79.2" r="5"></circle>
                        <circle cx="5.8" cy="5.2" r="5"></circle>
                        <circle cx="5.8" cy="29.8" r="5"></circle>
                        <circle cx="5.8" cy="54.5" r="5"></circle>
                        <circle cx="5.8" cy="79.2" r="5"></circle>
                    </g>
                </g>
                <g transform="translate(1135.000000, 119.000000)" fill-rule="nonzero">
                    <g>
                        <circle id="Oval" fill="#F6E049" cx="71.6" cy="71.5" r="66.4"></circle>
                        <path d="M71.6,142.9 C52.5,142.9 34.6,135.5 21.1,122 C-6.7,94.2 -6.7,48.9 21.1,21.1 C48.9,-6.7 94.2,-6.7 122,21.1 C149.8,48.9 149.8,94.2 122,122 L122,122 L122,122 C108.6,135.5 90.7,142.9 71.6,142.9 Z M71.6,10.2 C55.9,10.2 40.2,16.2 28.2,28.1 C4.3,52 4.3,91 28.2,114.9 C39.8,126.5 55.2,132.9 71.6,132.9 C88,132.9 103.4,126.5 115,114.9 L115,114.9 C138.9,91 138.9,52 115,28.1 C103.1,16.2 87.4,10.2 71.6,10.2 Z" id="Shape" fill="#383A48"></path>
                    </g>
                    <g transform="translate(46.000000, 44.000000)" fill="#383A48" id="Oval">
                        <circle cx="49.6" cy="5.5" r="5"></circle>
                        <circle cx="49.6" cy="49.5" r="5"></circle>
                        <circle cx="5.6" cy="5.5" r="5"></circle>
                        <circle cx="5.6" cy="49.5" r="5"></circle>
                    </g>
                </g>
                <g transform="translate(1203.000000, 187.000000)" fill-rule="nonzero">
                    <g>
                        <circle id="Oval" fill="#F6E049" cx="72" cy="71.9" r="66.4"></circle>
                        <path d="M72,143.2 C53.7,143.2 35.4,136.2 21.5,122.3 C-6.3,94.5 -6.3,49.2 21.5,21.4 C49.3,-6.4 94.6,-6.4 122.4,21.4 C150.2,49.2 150.2,94.5 122.4,122.3 C108.5,136.2 90.2,143.2 72,143.2 Z M72,10.5 C56.3,10.5 40.6,16.5 28.6,28.4 C4.7,52.3 4.7,91.3 28.6,115.2 C52.5,139.1 91.5,139.1 115.4,115.2 C139.3,91.3 139.3,52.3 115.4,28.4 C103.4,16.5 87.7,10.5 72,10.5 Z" id="Shape" fill="#383A48"></path>
                    </g>
                    <g transform="translate(45.000000, 42.000000)" fill="#383A48" id="Oval">
                        <circle cx="57.2" cy="5.1" r="5"></circle>
                        <circle cx="57.2" cy="56.6" r="5"></circle>
                        <circle cx="5.7" cy="5.1" r="5"></circle>
                        <circle cx="5.7" cy="56.6" r="5"></circle>
                    </g>
                </g>
                <g transform="translate(1271.000000, 255.000000)" fill-rule="nonzero">
                    <circle id="Oval" fill="#F6E049" cx="72.3" cy="72.2" r="66.4"></circle>
                    <path d="M72.3,143.6 C53.2,143.6 35.3,136.2 21.8,122.7 C-6,94.9 -6,49.6 21.8,21.8 C49.6,-6 94.9,-6 122.7,21.8 C150.5,49.6 150.5,94.9 122.7,122.7 L122.7,122.7 L122.7,122.7 C109.3,136.1 91.4,143.6 72.3,143.6 Z M72.3,10.8 C56.6,10.8 40.9,16.8 28.9,28.7 C5,52.6 5,91.6 28.9,115.5 C40.5,127.1 55.9,133.5 72.3,133.5 C88.7,133.5 104.1,127.1 115.7,115.5 L115.7,115.5 C139.6,91.6 139.6,52.6 115.7,28.7 C103.7,16.8 88,10.8 72.3,10.8 Z" id="Shape" fill="#383A48"></path>
                </g>
                <g transform="translate(1258.000000, 0.000000)" id="Path">
                    <line x1="5.1" y1="5.9" x2="131.7" y2="132.4"></line>
                    <path d="M131.7,137.4 C130.4,137.4 129.1,136.9 128.2,135.9 L1.7,9.4 C-0.3,7.4 -0.3,4.3 1.7,2.3 C3.7,0.3 6.8,0.3 8.8,2.3 L135.3,128.8 C137.3,130.8 137.3,133.9 135.3,135.9 C134.2,136.9 132.9,137.4 131.7,137.4 Z" fill="#383A48" fill-rule="nonzero"></path>
                </g>
                <path d="M733.8,60.8 C726.5,60.8 719.2,58 713.6,52.5 L701.3,40.2 C694.1,33 682.3,33 675.1,40.2 L661.6,53.7 C659.6,55.7 656.5,55.7 654.5,53.7 C652.5,51.7 652.5,48.6 654.5,46.6 L668,33.1 C679.1,22 697.2,22 708.4,33.1 L720.7,45.4 C727.9,52.6 739.7,52.6 746.9,45.4 L759.2,33.1 C770.3,22 788.4,22 799.6,33.1 L811.9,45.4 C815.4,48.9 820.1,50.8 825,50.8 L825,50.8 C830,50.8 834.6,48.9 838.1,45.4 L850.4,33.1 C855.8,27.7 862.9,24.7 870.6,24.7 L870.6,24.7 C878.2,24.7 885.4,27.7 890.8,33 L903.2,45.3 C905.2,47.3 905.2,50.4 903.2,52.4 C901.2,54.4 898.1,54.4 896.1,52.4 L883.7,40.1 C880.2,36.6 875.5,34.7 870.6,34.7 L870.6,34.7 C865.6,34.7 861,36.6 857.5,40.1 L845.2,52.4 C839.8,57.8 832.7,60.8 825,60.8 L825,60.8 C817.4,60.8 810.2,57.8 804.8,52.5 L792.5,40.2 C785.3,33 773.5,33 766.3,40.2 L754,52.4 C748.4,58 741.1,60.8 733.8,60.8 Z" id="Path" fill="#383A48" fill-rule="nonzero"></path>
                <g transform="translate(0.000000, 440.000000)" fill-rule="nonzero">
                    <polygon id="Path" fill="#F6E049" points="5.8 5.2 5.8 252.1 252.8 252.1"></polygon>
                    <path d="M252.8,257.1 L5.8,257.1 C3,257.1 0.8,254.9 0.8,252.1 L0.8,5.1 C0.8,3.1 2,1.3 3.9,0.5 C5.8,-0.3 7.9,0.2 9.3,1.6 L256.3,248.6 C257.7,250 258.2,252.2 257.4,254 C256.7,255.9 254.8,257.1 252.8,257.1 Z M10.8,247.1 L240.7,247.1 L10.8,17.2 L10.8,247.1 Z" id="Shape" fill="#383A48"></path>
                </g>
                <path d="M123.3,0.9 L6.9,0.9 C4.1,0.9 1.9,3.1 1.9,5.9 L1.9,122.2 C1.9,125 4.1,127.2 6.9,127.2 C73.8,127.2 128.2,72.8 128.2,5.9 C128.3,3.1 126,0.9 123.3,0.9 Z" id="Path" fill="#E0719E" fill-rule="nonzero"></path>
                <path d="M696,131.2 C694.3,131.2 692.7,130.4 691.7,128.8 L679.7,109.4 C678.3,107 679,104 681.3,102.5 C683.7,101.1 686.7,101.8 688.2,104.1 L700.2,123.5 C701.6,125.9 700.9,128.9 698.6,130.4 C697.8,131 696.9,131.2 696,131.2 Z" id="Path" fill="#F3F6E6" fill-rule="nonzero"></path>
                <path d="M634.9,198.5 C634.2,198.5 633.4,198.3 632.7,198 L612.2,187.9 C609.7,186.7 608.7,183.7 609.9,181.2 C611.1,178.7 614.1,177.7 616.6,178.9 L637.1,189 C639.6,190.2 640.6,193.2 639.4,195.7 C638.5,197.5 636.8,198.5 634.9,198.5 Z" id="Path" fill="#F3F6E6" fill-rule="nonzero"></path>
                <path d="M868.7,131.2 C867.8,131.2 866.9,131 866.1,130.5 C863.7,129.1 863,126 864.5,123.6 L876.5,104.2 C878,101.8 881,101.1 883.4,102.6 C885.8,104 886.5,107.1 885,109.5 L873,128.9 C872,130.4 870.4,131.2 868.7,131.2 Z" id="Path" fill="#F3F6E6" fill-rule="nonzero"></path>
                <path d="M929.8,198.5 C928,198.5 926.2,197.5 925.3,195.7 C924.1,193.2 925.1,190.2 927.6,189 L948.1,178.9 C950.6,177.7 953.6,178.7 954.8,181.2 C956,183.7 955,186.7 952.5,187.9 L932,198 C931.3,198.3 930.5,198.5 929.8,198.5 Z" id="Path" fill="#F3F6E6" fill-rule="nonzero"></path>
                <g transform="translate(1256.000000, 522.000000)">
                    <g transform="translate(0.000000, 11.000000)">
                        <line x1="0.5" y1="5.5" x2="33.5" y2="5.5" id="Path"></line>
                        <rect id="Rectangle" fill="#383A48" fill-rule="nonzero" x="0.5" y="0.5" width="33" height="10"></rect>
                    </g>
                    <g transform="translate(12.000000, 0.000000)">
                        <line x1="5" y1="32.9" x2="5" y2="0" id="Path"></line>
                        <rect id="Rectangle" fill="#383A48" fill-rule="nonzero" x="0" y="0" width="10" height="33"></rect>
                    </g>
                </g>
                <g transform="translate(123.000000, 155.000000)">
                    <g transform="translate(0.000000, 12.000000)">
                        <line x1="0.3" y1="5.1" x2="33.2" y2="5.1" id="Path"></line>
                        <rect id="Rectangle" fill="#383A48" fill-rule="nonzero" x="0.3" y="0.1" width="33" height="10"></rect>
                    </g>
                    <g transform="translate(11.000000, 0.000000)">
                        <line x1="5.7" y1="33.6" x2="5.7" y2="0.6" id="Path"></line>
                        <rect id="Rectangle" fill="#383A48" fill-rule="nonzero" x="0.7" y="0.6" width="10" height="33"></rect>
                    </g>
                </g>
                <g transform="translate(123.000000, 455.000000)">
                    <g transform="translate(0.000000, 12.000000)">
                        <line x1="0.3" y1="5" x2="33.2" y2="5" id="Path"></line>
                        <rect id="Rectangle" fill="#383A48" fill-rule="nonzero" x="0.3" y="0" width="33" height="10"></rect>
                    </g>
                    <g transform="translate(11.000000, 0.000000)">
                        <line x1="5.7" y1="33.5" x2="5.7" y2="0.5" id="Path"></line>
                        <rect id="Rectangle" fill="#383A48" fill-rule="nonzero" x="0.7" y="0.5" width="10" height="33"></rect>
                    </g>
                </g>
            </g>
        </g>
    </g>
</svg>