<?xml version="1.0" encoding="UTF-8"?>
<svg width="1401px" height="746px" viewBox="0 0 1401 746" version="1.1" xmlns="http://www.w3.org/2000/svg" xmlns:xlink="http://www.w3.org/1999/xlink">
    <!-- Generator: Sketch 59.1 (86144) - https://sketch.com -->
    <title>abstract-4</title>
    <desc>Created with Sketch.</desc>
    <g id="Page-1" stroke="none" stroke-width="1" fill="none" fill-rule="evenodd">
        <g id="abstract-4" transform="translate(-258.000000, -167.000000)">
            <g id="Group" transform="translate(258.000000, 167.000000)">
                <path d="M684.6,331.4 C684.3,331.4 684,331.4 683.7,331.3 C675.3,329.8 667.3,327.1 659.7,323.3 C657.2,322.1 656.2,319 657.5,316.6 C658.8,314.2 661.8,313.1 664.2,314.4 C670.9,317.8 678.1,320.2 685.5,321.5 C688.2,322 690,324.6 689.5,327.3 C689.1,329.7 687,331.4 684.6,331.4 Z" id="Path" fill="#F3F6E6" fill-rule="nonzero"></path>
                <g transform="translate(619.000000, 155.000000)" fill="#F3F6E6" fill-rule="nonzero">
                    <path d="M5.4,57.3 C4.7,57.3 3.9,57.1 3.2,56.8 C0.7,55.6 -0.3,52.6 0.9,50.1 C2.1,47.7 3.3,45.4 4.7,43.1 C6.1,40.7 9.2,40 11.6,41.4 C14,42.8 14.7,45.9 13.3,48.3 C12.1,50.3 10.9,52.4 9.9,54.5 C9,56.3 7.2,57.3 5.4,57.3 Z" id="Path"></path>
                    <path d="M31.4,26.4 C29.9,26.4 28.3,25.7 27.4,24.3 C25.8,22.1 26.3,18.9 28.5,17.3 C33.3,13.8 38.4,10.9 43.7,8.4 C46.2,7.3 49.2,8.4 50.3,10.9 C51.4,13.4 50.3,16.4 47.8,17.5 C43.1,19.7 38.5,22.3 34.3,25.4 C33.4,26.1 32.4,26.4 31.4,26.4 Z M94.5,11.6 C94.2,11.6 93.9,11.6 93.7,11.5 C88.6,10.6 83.3,10.3 78.1,10.4 C75.4,10.5 73,8.3 72.9,5.6 C72.8,2.8 75,0.5 77.7,0.4 C83.5,0.2 89.5,0.6 95.3,1.6 C98,2.1 99.9,4.6 99.4,7.4 C99,9.9 96.9,11.6 94.5,11.6 Z" id="Shape"></path>
                    <path d="M131.6,27.8 C130.5,27.8 129.5,27.5 128.6,26.8 C126.7,25.4 124.8,24 122.8,22.8 C120.5,21.3 119.8,18.2 121.3,15.9 C122.8,13.6 125.9,12.9 128.2,14.4 C130.4,15.8 132.6,17.4 134.7,19 C136.9,20.7 137.3,23.8 135.6,26 C134.5,27.1 133.1,27.8 131.6,27.8 Z" id="Path"></path>
                </g>
                <g transform="translate(11.000000, 602.000000)" fill="#383A48" fill-rule="nonzero" id="Oval">
                    <circle cx="425.1" cy="5.1" r="5"></circle>
                    <circle cx="425.1" cy="29.8" r="5"></circle>
                    <circle cx="425.1" cy="54.5" r="5"></circle>
                    <circle cx="425.1" cy="79.1" r="5"></circle>
                    <circle cx="425.1" cy="103.8" r="5"></circle>
                    <circle cx="425.1" cy="128.5" r="5"></circle>
                    <circle cx="400.5" cy="5.1" r="5"></circle>
                    <circle cx="400.5" cy="29.8" r="5"></circle>
                    <circle cx="400.5" cy="54.5" r="5"></circle>
                    <circle cx="400.5" cy="79.1" r="5"></circle>
                    <circle cx="400.5" cy="103.8" r="5"></circle>
                    <circle cx="400.5" cy="128.5" r="5"></circle>
                    <circle cx="375.8" cy="5.1" r="5"></circle>
                    <circle cx="375.8" cy="29.8" r="5"></circle>
                    <circle cx="375.8" cy="54.5" r="5"></circle>
                    <circle cx="375.8" cy="79.1" r="5"></circle>
                    <circle cx="375.8" cy="103.8" r="5"></circle>
                    <circle cx="375.8" cy="128.5" r="5"></circle>
                    <circle cx="351.1" cy="5.1" r="5"></circle>
                    <circle cx="351.1" cy="29.8" r="5"></circle>
                    <circle cx="351.1" cy="54.5" r="5"></circle>
                    <circle cx="351.1" cy="79.1" r="5"></circle>
                    <circle cx="351.1" cy="103.8" r="5"></circle>
                    <circle cx="351.1" cy="128.5" r="5"></circle>
                    <circle cx="326.5" cy="5.1" r="5"></circle>
                    <circle cx="326.5" cy="29.8" r="5"></circle>
                    <circle cx="326.5" cy="54.5" r="5"></circle>
                    <circle cx="326.5" cy="79.1" r="5"></circle>
                    <circle cx="326.5" cy="103.8" r="5"></circle>
                    <circle cx="326.5" cy="128.5" r="5"></circle>
                    <circle cx="301.8" cy="5.1" r="5"></circle>
                    <circle cx="301.8" cy="29.8" r="5"></circle>
                    <circle cx="301.8" cy="54.5" r="5"></circle>
                    <circle cx="301.8" cy="79.1" r="5"></circle>
                    <circle cx="301.8" cy="103.8" r="5"></circle>
                    <circle cx="301.8" cy="128.5" r="5"></circle>
                    <circle cx="277.1" cy="5.1" r="5"></circle>
                    <circle cx="277.1" cy="29.8" r="5"></circle>
                    <circle cx="277.1" cy="54.5" r="5"></circle>
                    <circle cx="277.1" cy="79.1" r="5"></circle>
                    <circle cx="277.1" cy="103.8" r="5"></circle>
                    <circle cx="277.1" cy="128.5" r="5"></circle>
                    <circle cx="252.5" cy="5.1" r="5"></circle>
                    <circle cx="252.5" cy="29.8" r="5"></circle>
                    <circle cx="252.5" cy="54.5" r="5"></circle>
                    <circle cx="252.5" cy="79.1" r="5"></circle>
                    <circle cx="252.5" cy="103.8" r="5"></circle>
                    <circle cx="252.5" cy="128.5" r="5"></circle>
                    <circle cx="227.8" cy="5.1" r="5"></circle>
                    <circle cx="227.8" cy="29.8" r="5"></circle>
                    <circle cx="227.8" cy="54.5" r="5"></circle>
                    <circle cx="227.8" cy="79.1" r="5"></circle>
                    <circle cx="227.8" cy="103.8" r="5"></circle>
                    <circle cx="227.8" cy="128.5" r="5"></circle>
                    <circle cx="203.1" cy="5.1" r="5"></circle>
                    <circle cx="203.1" cy="29.8" r="5"></circle>
                    <circle cx="203.1" cy="54.5" r="5"></circle>
                    <circle cx="203.1" cy="79.1" r="5"></circle>
                    <circle cx="203.1" cy="103.8" r="5"></circle>
                    <circle cx="203.1" cy="128.5" r="5"></circle>
                    <circle cx="178.5" cy="5.1" r="5"></circle>
                    <circle cx="178.5" cy="29.8" r="5"></circle>
                    <circle cx="178.5" cy="54.5" r="5"></circle>
                    <circle cx="178.5" cy="79.1" r="5"></circle>
                    <circle cx="178.5" cy="103.8" r="5"></circle>
                    <circle cx="178.5" cy="128.5" r="5"></circle>
                    <circle cx="153.8" cy="5.1" r="5"></circle>
                    <circle cx="153.8" cy="29.8" r="5"></circle>
                    <circle cx="153.8" cy="54.5" r="5"></circle>
                    <circle cx="153.8" cy="79.1" r="5"></circle>
                    <circle cx="153.8" cy="103.8" r="5"></circle>
                    <circle cx="153.8" cy="128.5" r="5"></circle>
                    <circle cx="129.1" cy="5.1" r="5"></circle>
                    <circle cx="129.1" cy="29.8" r="5"></circle>
                    <circle cx="129.1" cy="54.5" r="5"></circle>
                    <circle cx="129.1" cy="79.1" r="5"></circle>
                    <circle cx="129.1" cy="103.8" r="5"></circle>
                    <circle cx="129.1" cy="128.5" r="5"></circle>
                    <circle cx="104.5" cy="5.1" r="5"></circle>
                    <circle cx="104.5" cy="29.8" r="5"></circle>
                    <circle cx="104.5" cy="54.5" r="5"></circle>
                    <circle cx="104.5" cy="79.1" r="5"></circle>
                    <circle cx="104.5" cy="103.8" r="5"></circle>
                    <circle cx="104.5" cy="128.5" r="5"></circle>
                    <circle cx="79.8" cy="5.1" r="5"></circle>
                    <circle cx="79.8" cy="29.8" r="5"></circle>
                    <circle cx="79.8" cy="54.5" r="5"></circle>
                    <circle cx="79.8" cy="79.1" r="5"></circle>
                    <circle cx="79.8" cy="103.8" r="5"></circle>
                    <circle cx="79.8" cy="128.5" r="5"></circle>
                    <circle cx="55.1" cy="5.1" r="5"></circle>
                    <circle cx="55.1" cy="29.8" r="5"></circle>
                    <circle cx="55.1" cy="54.5" r="5"></circle>
                    <circle cx="55.1" cy="79.1" r="5"></circle>
                    <circle cx="55.1" cy="103.8" r="5"></circle>
                    <circle cx="55.1" cy="128.5" r="5"></circle>
                    <circle cx="30.5" cy="29.8" r="5"></circle>
                    <circle cx="30.5" cy="54.5" r="5"></circle>
                    <circle cx="30.5" cy="79.1" r="5"></circle>
                    <circle cx="30.5" cy="103.8" r="5"></circle>
                    <circle cx="5.8" cy="54.5" r="5"></circle>
                    <circle cx="5.8" cy="79.1" r="5"></circle>
                </g>
                <path d="M355.5,3 C354.6,1.5 353,0.7 351.3,0.7 L5.4,0.7 C2.6,0.7 0.4,2.9 0.4,5.7 L0.4,417 C0.4,419.8 2.6,422 5.4,422 L5.8,422 C57.9,422 102.4,384.6 111.6,333 C130.1,230 183.4,186.5 239.8,140.5 C282.1,106 325.8,70.3 355.8,7.8 C356.6,6.2 356.4,4.4 355.5,3 Z" id="Path" fill="#F3F6E6" fill-rule="nonzero"></path>
                <path d="M1011,738.7 L922.8,483.4 C922.4,482.1 921.4,481 920.1,480.5 C918.8,479.9 917.4,479.9 916.1,480.4 C854.7,505.6 808.5,551.4 763.9,595.7 C729.3,630 693.5,665.5 650.6,691.8 C602.5,721.1 550.5,735.4 491.4,735.4 C488.6,735.4 486.4,737.6 486.4,740.4 C486.4,743.2 488.6,745.4 491.4,745.4 L1006.3,745.4 C1007.9,745.4 1009.4,744.6 1010.4,743.3 C1011.3,742 1011.5,740.3 1011,738.7 Z" id="Path" fill="#F3F6E6" fill-rule="nonzero"></path>
                <path d="M1395.1,0.6 L1176.5,0.6 C1173.9,0.6 1171.7,2.6 1171.5,5.2 L1108.2,740 C1108.1,741.4 1108.6,742.8 1109.5,743.8 C1110.4,744.8 1111.8,745.4 1113.2,745.4 L1395.1,745.4 C1397.9,745.4 1400.1,743.2 1400.1,740.4 L1400.1,5.6 C1400.1,2.9 1397.8,0.6 1395.1,0.6 Z" id="Path" fill="#F3F6E6" fill-rule="nonzero"></path>
                <g transform="translate(83.000000, 127.000000)" fill="#383A48" fill-rule="nonzero" id="Rectangle">
                    <rect x="11.8" y="0.2" width="10" height="33"></rect>
                    <rect x="0.4" y="11.7" width="33" height="10"></rect>
                </g>
                <g transform="translate(669.000000, 508.000000)" fill="#F3F6E6" fill-rule="nonzero" id="Rectangle">
                    <rect x="11.5" y="0.1" width="10" height="33"></rect>
                    <rect x="0" y="11.6" width="33" height="10"></rect>
                </g>
                <g transform="translate(426.000000, 82.000000)" fill="#F3F6E6" fill-rule="nonzero" id="Rectangle">
                    <rect x="11.7" y="0.7" width="10" height="33"></rect>
                    <rect x="0.2" y="12.2" width="33" height="10"></rect>
                </g>
                <g transform="translate(593.000000, 67.000000)" fill="#383A48" fill-rule="nonzero" id="Rectangle">
                    <rect transform="translate(17.534940, 44.356220) rotate(-48.640524) translate(-17.534940, -44.356220) " x="12.5347975" y="25.8556928" width="10.000285" height="37.0010545"></rect>
                    <rect transform="translate(147.684190, 22.664410) rotate(-57.857961) translate(-147.684190, -22.664410) " x="129.184885" y="17.6645978" width="36.9986104" height="9.99962444"></rect>
                    <rect transform="translate(80.449030, 18.111470) rotate(-8.250019) translate(-80.449030, -18.111470) " x="75.4487842" y="1.11063413" width="10.0004917" height="34.0016717"></rect>
                </g>
                <path d="M1396.8,508.6 C1394.9,507.9 1392.7,508.4 1391.3,510 L1265.5,653.5 L1088.8,736 C1086.7,737 1085.5,739.3 1086,741.6 C1086.5,743.9 1088.5,745.5 1090.9,745.5 L1395,745.5 C1397.8,745.5 1400,743.3 1400,740.5 L1400,513.2 C1400.1,511.1 1398.8,509.3 1396.8,508.6 Z" id="Path" fill="#383A48" fill-rule="nonzero"></path>
                <g transform="translate(695.000000, 0.000000)" fill-rule="nonzero">
                    <g transform="translate(478.000000, 299.000000)">
                        <path d="M39.5,393.9 C20.5,393.9 5.1,378.5 5.1,359.5 C5.1,340.5 20.5,325.1 39.5,325.1 C102.2,325.1 153.2,274.1 153.2,211.4 C153.2,179.7 140.5,150.3 117.3,128.5 C116.3,127.6 115.4,126.6 114.6,125.6 C95.8,103.4 81.4,78.3 71.7,50.9 C65.4,33 74.8,13.3 92.7,7 C110.6,0.7 130.3,10.1 136.6,28 C143.3,46.9 153.2,64.4 166,79.8 C201.6,114.1 222.000091,161.9 222.000091,211.4 C222.1,312 140.2,393.9 39.5,393.9 Z" id="Path" fill="#F6E049"></path>
                        <path d="M39.5,398.9 C17.8,398.9 0.1,381.2 0.1,359.5 C0.1,337.8 17.8,320.1 39.5,320.1 C99.4,320.1 148.2,271.4 148.2,211.4 C148.2,181.1 136,153 113.9,132.2 C112.8,131.2 111.8,130.1 110.8,128.9 C91.6,106.2 76.9,80.6 67,52.6 C63.5,42.7 64.1,32 68.6,22.5 C73.1,13 81.1,5.8 91,2.3 C100.9,-1.2 111.6,-0.6 121.1,3.9 C130.6,8.4 137.8,16.4 141.3,26.3 C147.8,44.6 157.3,61.4 169.6,76.4 C206.1,111.6 227.000089,160.8 227.000089,211.4 C227.1,314.7 143,398.9 39.5,398.9 Z M104.2,9.9 C100.9,9.9 97.6,10.5 94.4,11.6 C87,14.2 81,19.6 77.6,26.7 C74.2,33.8 73.8,41.8 76.4,49.2 C85.9,76 100,100.6 118.4,122.4 C119.1,123.3 119.9,124.1 120.7,124.8 C144.9,147.5 158.2,178.2 158.2,211.3 C158.2,276.7 105,330 39.5,330 C23.3,330 10.1,343.2 10.1,359.4 C10.1,375.6 23.3,388.8 39.5,388.8 C137.4,388.8 217,309.2 217,211.3 C217,163.3 197.1,116.6 162.5,83.3 C162.4,83.2 162.2,83 162.1,82.9 C148.9,67 138.7,49 131.8,29.5 C129.2,22.1 123.8,16.1 116.7,12.7 C112.8,10.9 108.5,9.9 104.2,9.9 Z" id="Shape" fill="#383A48"></path>
                    </g>
                    <g transform="translate(213.000000, 192.000000)" id="Path">
                        <path d="M352.2,424.7 C356.9,408.8 360.6,388.2 360.6,370.7 C360.6,319.6 339,273.6 304.5,241.2 C237.2,176.4 218.3,111.9 256.9,11.9 L258.7,5.8 L47.5,27.6 L6.1,353.8 C5.6,359.4 5.3,365.1 5.3,370.8 C5.3,468.9 84.8,548.4 182.9,548.4 C239.5,548.4 290,521.9 322.5,480.6" fill="#F6E049"></path>
                        <path d="M183,553.4 C82.3,553.4 0.4,471.5 0.4,370.8 C0.4,365 0.7,359.2 1.2,353.3 C1.2,353.2 1.2,353.2 1.2,353.1 L42.6,26.9 C42.9,24.6 44.7,22.8 47,22.6 L258.2,0.8 C259.9,0.6 261.5,1.3 262.6,2.6 C263.7,3.9 264,5.6 263.5,7.2 L261.7,13.3 C261.7,13.4 261.6,13.5 261.6,13.7 C242.7,62.7 237.7,102.5 245.9,138.7 C253.6,172.9 273.4,204.3 308,237.6 C326,254.5 340.1,274.4 350.1,296.9 C360.4,320.2 365.6,345 365.6,370.7 C365.6,387 362.4,407.7 357,426.1 C356.2,428.7 353.4,430.3 350.8,429.5 C348.2,428.7 346.6,425.9 347.4,423.3 C352.6,405.7 355.6,386.1 355.6,370.7 C355.6,346.4 350.7,323 340.9,301 C331.5,279.7 318.1,260.9 301.1,244.9 C229.2,175.8 214.9,108.1 251.7,11.6 L52,32.2 L11.1,354.3 C10.6,359.8 10.3,365.3 10.3,370.8 C10.3,466 87.7,543.4 182.9,543.4 C236.1,543.4 285.6,519.4 318.6,477.5 C320.3,475.3 323.5,475 325.6,476.7 C327.8,478.4 328.1,481.6 326.4,483.7 C291.6,528 239.3,553.4 183,553.4 Z" fill="#383A48"></path>
                    </g>
                    <path d="M493.2,4.5 C488.8,0.9 482.9,-0.3 477.4,1.4 C449.7,10.1 399.6,28.9 376,57.8 C363.6,73 354.1,89.3 348.8,105 C347.9,107.6 349.3,110.5 351.9,111.4 C353.6,112 355.4,111.6 356.7,110.5 L402.8,165 C401.2,166.3 400.6,168.5 401.3,170.5 C402,172.5 404,173.8 406,173.8 C406.6,173.8 407.2,173.7 407.7,173.5 C426.9,166.4 447,151 464.1,130 C487.7,101.1 496.3,48.3 499.3,19.4 C499.9,13.6 497.6,8.1 493.2,4.5 Z" id="Path" fill="#383A48"></path>
                    <g transform="translate(156.000000, 19.000000)" id="Path">
                        <path d="M308,201.4 C313,188 315.7,173.5 315.5,158.3 C314.6,95.6 263.9,44.2 201.3,42.5 C187.8,42.1 174.7,44.1 162.6,47.9 C146.1,53.1 128.2,51.1 113.5,42.2 L59,9 C46.1,1.1 29.2,7.3 24.3,21.6 L8.9,66.9 C0.5,91.6 6.5,118.9 24.6,137.7 L109,225" fill="#F6E049"></path>
                        <path d="M108.9,230.1 C107.6,230.1 106.3,229.6 105.3,228.6 L20.9,141.3 C1.5,121 -4.9,91.9 4.1,65.4 L19.5,20.1 C22.3,11.8 28.6,5.4 36.9,2.4 C45.1,-0.6 54.1,0.3 61.6,4.9 L116,38 C129.4,46.2 145.8,48.1 161,43.2 C174,39.1 187.6,37.2 201.4,37.5 C233,38.3 262.7,51.3 285.1,74 C307.5,96.7 320.1,126.6 320.5,158.2 C320.7,173.7 318.1,188.8 312.7,203.1 C311.7,205.7 308.8,207 306.3,206 C303.7,205 302.4,202.1 303.4,199.6 C308.4,186.4 310.8,172.6 310.6,158.3 C310.2,129.3 298.7,101.8 278.1,81 C257.5,60.2 230.2,48.3 201.2,47.5 C188.5,47.2 176,48.9 164.1,52.7 C146.1,58.4 126.7,56.1 110.9,46.5 L56.4,13.3 C51.5,10.3 45.7,9.8 40.3,11.7 C35,13.6 30.8,17.8 29,23.2 L13.6,68.5 C5.8,91.5 11.3,116.7 28.1,134.3 L112.5,221.6 C114.4,223.6 114.4,226.8 112.4,228.7 C111.4,229.6 110.2,230.1 108.9,230.1 Z" fill="#383A48"></path>
                    </g>
                    <g transform="translate(0.000000, 209.000000)" id="Path">
                        <path d="M316.4,225.7 L192.7,285.6 C185.1,289.3 177,291.3 168.9,291.6 C158.2,292 147.4,289.5 137.8,284.1 C120.9,274.6 109.8,257.6 108,238.3 C107.8,236.4 104.5,208.5 92.9,179.1 C84.3,157.1 69.1,129.3 45.7,121.2 C14.8,110.6 -1.7,76.9 8.9,46 C19.5,15.1 53.2,-1.4 84.1,9.2 C137.4,27.5 179,72.4 204.3,139.1 C205.3,141.7 206.3,144.4 207.2,147 L289.9,107" fill="#F6E049"></path>
                        <path d="M166.6,296.6 C155.6,296.6 144.9,293.8 135.4,288.4 C117.1,278.1 105,259.5 103.1,238.7 C103,237.6 99.8,209.9 88.4,180.8 C80.2,159.8 65.8,133.2 44.2,125.8 C28,120.2 14.9,108.7 7.4,93.3 C-0.1,77.9 -1.2,60.5 4.4,44.3 C10,28.1 21.5,15 36.9,7.5 C52.3,-5.69544412e-14 69.7,-1.1 85.9,4.5 C140.7,23.3 183.3,69.3 209.2,137.4 C209.5,138.3 209.9,139.2 210.2,140.1 L287.9,102.5 C290.4,101.3 293.4,102.3 294.6,104.8 C295.8,107.3 294.8,110.3 292.3,111.5 L209.6,151.5 C208.3,152.1 206.8,152.2 205.5,151.6 C204.2,151.1 203.2,150 202.7,148.6 C201.8,146 200.8,143.4 199.9,140.8 C175.1,75.5 134.6,31.6 82.7,13.8 C69,9.1 54.3,10 41.3,16.4 C28.3,22.8 18.5,33.8 13.8,47.5 C9.1,61.2 10,75.9 16.4,88.9 C22.8,101.9 33.8,111.7 47.5,116.4 C72.7,125.1 88.7,154.2 97.7,177.2 C109.6,207.5 112.9,236.5 113.1,237.7 C114.7,255.3 124.9,271 140.4,279.7 C149,284.6 158.8,286.9 168.8,286.6 C176.4,286.3 183.7,284.5 190.6,281.1 L314.3,221.2 C316.8,220 319.8,221 321,223.5 C322.2,226 321.2,229 318.7,230.2 L195,290.1 C186.9,294 178.2,296.2 169.2,296.6 C168.2,296.6 167.4,296.6 166.6,296.6 Z" fill="#383A48"></path>
                    </g>
                    <g transform="translate(378.000000, 63.000000)" id="Path">
                        <path d="M5.7,106.2 C10.8,91.3 19.8,75.5 32.1,60.6 C55.1,32.5 105,14 131.2,5.8 C139.4,3.2 147.5,9.9 146.7,18.4 C143.9,45.7 135.6,98.3 112.6,126.4 C95.9,146.8 76.5,161.7 58.3,168.4" fill="#F6E049"></path>
                        <path d="M58.2,173.3 C56.2,173.3 54.2,172 53.5,170 C52.5,167.4 53.9,164.5 56.5,163.6 C74.1,157.1 92.6,142.8 108.6,123.2 C130.6,96.3 138.7,45.7 141.5,17.9 C141.7,15.5 140.8,13.3 139,11.8 C137.2,10.3 134.8,9.8 132.5,10.5 C105.8,18.8 57.8,36.8 35.8,63.7 C24.1,78 15.3,93.3 10.3,107.8 C9.4,110.4 6.6,111.8 3.9,110.9 C1.3,110 -0.1,107.2 0.8,104.5 C6.2,88.8 15.6,72.5 28,57.3 C51.6,28.4 101.7,9.6 129.4,0.9 C134.9,-0.8 140.8,0.3 145.2,4 C149.6,7.6 151.9,13.2 151.3,18.9 C148.3,47.8 139.8,100.6 116.1,129.5 C98.9,150.5 78.9,165.9 59.7,173 C59.4,173.2 58.8,173.3 58.2,173.3 Z" fill="#383A48"></path>
                    </g>
                    <path d="M189,59.7 C181.5,56.4 177.8,48 180.4,40.2 L180.4,40.2 C185.4,25.9 202.3,20 215.1,27.9 L215.6,28.2 C223.2,32.9 225.3,43 220.3,50.3 L215.6,57.2 C211.4,63.5 203.3,65.8 196.3,62.8 L189,59.7 Z" id="Path" fill="#383A48"></path>
                    <g transform="translate(48.000000, 473.000000)" id="Path">
                        <path d="M398.8,173.1 C412.6,219.6 377.8,266.2 329.4,266.4 L5.8,267.5 L5.8,267.5 C5.8,216.4 47.2,174.9 98.4,174.9 L225.9,159.1 L215.8,124.7 C194.8,66.9 237.6,5.8 299.1,5.8" fill="#F6E049"></path>
                        <path d="M5.8,272.5 C4.5,272.5 3.2,272 2.3,271 C1.4,270.1 0.8,268.8 0.8,267.5 C0.8,213.8 44.4,170.1 98.1,169.9 L219.5,154.8 L211.1,126.1 C200.6,97 204.7,65.9 222.4,40.5 C240.2,15.1 268.1,0.6 299.1,0.6 C301.9,0.6 304.1,2.8 304.1,5.6 C304.1,8.4 301.9,10.6 299.1,10.6 C271.4,10.6 246.5,23.6 230.6,46.3 C214.7,69 211.1,96.9 220.5,122.9 C220.5,123 220.6,123.1 220.6,123.2 L230.7,157.6 C231.1,159 230.9,160.5 230.1,161.8 C229.3,163 228,163.8 226.5,164 L99,179.9 C98.8,179.9 98.6,179.9 98.4,179.9 C51.8,179.9 13.6,216.5 11,262.5 L329.5,261.4 C351,261.3 370.7,251.4 383.5,234.1 C396.3,216.8 400.2,195.1 394.1,174.5 C393.3,171.9 394.8,169.1 397.5,168.3 C400.1,167.5 402.9,169 403.7,171.7 C410.7,195.4 406.3,220.3 391.5,240.1 C376.8,259.9 354.2,271.3 329.5,271.4 L5.8,272.5 L5.8,272.5 Z" fill="#383A48"></path>
                    </g>
                    <g transform="translate(313.000000, 103.000000)" id="Path">
                        <path d="M34.9,37.5 C26.2,43.3 14.4,41 8.5,32.2 C2.6,23.4 5,11.7 13.8,5.8" fill="#F6E049"></path>
                        <path d="M24.4,45.6 C16.6,45.6 9,41.8 4.4,34.9 C0.8,29.6 -0.4,23.2 0.8,16.9 C2.1,10.6 5.7,5.2 11,1.6 C13.3,0.1 16.4,0.7 17.9,3 C19.4,5.3 18.8,8.4 16.5,9.9 C13.4,12 11.3,15.1 10.5,18.8 C9.8,22.5 10.5,26.2 12.6,29.3 C16.9,35.7 25.6,37.5 32,33.2 C34.3,31.7 37.4,32.3 38.9,34.6 C40.4,36.9 39.8,40 37.5,41.5 C33.6,44.3 28.9,45.6 24.4,45.6 Z" fill="#383A48"></path>
                    </g>
                </g>
                <g transform="translate(68.000000, 237.000000)">
                    <polygon id="Path" fill="#F3F6E6" fill-rule="nonzero" points="112.9 5.8 631.5 7.1 251.1 359.7 241 218.9 42.6 298.3 5.6 203.7 203.3 124.7"></polygon>
                    <path d="M251.1,364.7 C250.5,364.7 249.9,364.6 249.3,364.4 C247.5,363.7 246.3,362 246.1,360.1 L236.6,226.1 L44.5,302.9 C43.3,303.4 41.9,303.4 40.7,302.8 C39.5,302.3 38.5,301.3 38,300 L1,205.5 C2.33146835e-14,202.9 1.3,200.1 3.8,199 L195.3,122.4 L108.9,8.8 C107.7,7.3 107.6,5.2 108.4,3.5 C109.2,1.8 111,0.7 112.9,0.7 L112.9,0.7 L631.5,2 C633.6,2 635.4,3.3 636.1,5.2 C636.8,7.1 636.3,9.3 634.8,10.7 L254.5,363.4 C253.5,364.3 252.3,364.7 251.1,364.7 Z M241,213.9 C241.9,213.9 242.8,214.2 243.7,214.7 C245.1,215.5 245.9,217 246,218.6 L255.3,349 L618.8,12.1 L123,10.8 L207.3,121.6 C208.2,122.8 208.6,124.5 208.1,126 C207.7,127.5 206.6,128.7 205.1,129.3 L12.1,206.5 L45.4,291.8 L239.2,214.3 C239.8,214 240.4,213.9 241,213.9 Z" id="Shape" fill="#383A48" fill-rule="nonzero"></path>
                    <g transform="translate(237.000000, 202.000000)" id="Path">
                        <line x1="5.7" y1="16.8" x2="35.8" y2="5.5"></line>
                        <path d="M5.7,21.8 C3.7,21.8 1.8,20.6 1,18.6 C0,16 1.3,13.1 3.9,12.2 L34,0.9 C36.6,-0.1 39.5,1.2 40.4,3.8 C41.4,6.4 40.1,9.3 37.5,10.2 L7.4,21.5 C6.9,21.7 6.3,21.8 5.7,21.8 Z" fill="#383A48" fill-rule="nonzero"></path>
                    </g>
                </g>
                <g transform="translate(80.000000, 594.000000)" fill-rule="nonzero">
                    <g transform="translate(71.000000, 0.000000)">
                        <path d="M304.2,146.4 L5,146.4 L5,5.7 L304.2,5.7 C343.1,5.7 374.6,37.2 374.6,76.1 L374.6,76.1 C374.5,114.9 343,146.4 304.2,146.4 Z" id="Path" fill="#AAC6FC"></path>
                        <path d="M304.2,151.4 L5,151.4 C2.2,151.4 0,149.2 0,146.4 L0,5.7 C0,2.9 2.2,0.7 5,0.7 L304.2,0.7 C345.8,0.7 379.6,34.5 379.6,76.1 C379.6,117.7 345.7,151.4 304.2,151.4 Z M10,141.4 L304.2,141.4 C340.2,141.4 369.6,112.1 369.6,76 C369.6,39.9 340.3,10.6 304.2,10.6 L10,10.6 L10,141.4 Z" id="Shape" fill="#383A48"></path>
                    </g>
                    <g>
                        <circle id="Oval" fill="#E0719E" cx="76" cy="76" r="70.4"></circle>
                        <path d="M76,151.4 C34.4,151.4 0.6,117.6 0.6,76 C0.6,34.4 34.4,0.6 76,0.6 C117.6,0.6 151.4,34.4 151.4,76 C151.4,117.6 117.6,151.4 76,151.4 Z M76,10.7 C40,10.7 10.6,40 10.6,76.1 C10.6,112.1 39.9,141.5 76,141.5 C112,141.5 141.4,112.2 141.4,76.1 C141.4,40 112.1,10.7 76,10.7 Z" id="Shape" fill="#383A48"></path>
                    </g>
                </g>
                <g transform="translate(510.000000, 443.000000)" id="Path">
                    <line x1="5.7" y1="105.5" x2="106.6" y2="5.3"></line>
                    <path d="M5.7,110.5 C4.4,110.5 3.1,110 2.2,109 C0.3,107 0.3,103.9 2.2,101.9 L103,1.7 C105,-0.2 108.1,-0.2 110.1,1.7 C112,3.7 112,6.8 110.1,8.8 L9.3,109.1 C8.3,110 7,110.5 5.7,110.5 Z" fill="#383A48" fill-rule="nonzero"></path>
                </g>
                <path d="M1395.1,0.6 L1318.2,0.6 C1316.2,0.6 1314.4,1.8 1313.6,3.7 C1312.8,5.6 1313.3,7.7 1314.7,9.1 L1391.6,86 C1392.6,87 1393.8,87.5 1395.1,87.5 C1395.7,87.5 1396.4,87.4 1397,87.1 C1398.9,86.3 1400.1,84.5 1400.1,82.5 L1400.1,5.6 C1400.1,2.9 1397.8,0.6 1395.1,0.6 Z" id="Path" fill="#4053FA" fill-rule="nonzero"></path>
            </g>
        </g>
    </g>
</svg>