<?xml version="1.0" encoding="UTF-8"?>
<svg width="1476px" height="722px" viewBox="0 0 1476 722" version="1.1" xmlns="http://www.w3.org/2000/svg" xmlns:xlink="http://www.w3.org/1999/xlink">
    <!-- Generator: Sketch 59.1 (86144) - https://sketch.com -->
    <title>abstract-track-statistic</title>
    <desc>Created with Sketch.</desc>
    <g id="Page-1" stroke="none" stroke-width="1" fill="none" fill-rule="evenodd">
        <g id="abstract-track-statistic" transform="translate(-222.000000, -175.000000)" fill-rule="nonzero">
            <g id="Group" transform="translate(222.000000, 175.000000)">
                <path d="M1471,12.2 L1373.1,12.2 C1371.1,12.2 1369.3,13.4 1368.5,15.2 C1367.7,17 1368,19.1 1369.4,20.6 L1467.3,128.9 C1468.3,130 1469.6,130.5 1471,130.5 C1471.6,130.5 1472.2,130.4 1472.8,130.2 C1474.7,129.5 1476,127.6 1476,125.5 L1476,17.2 C1476,14.5 1473.7,12.2 1471,12.2 Z" id="Path" fill="#4053FA"></path>
                <path d="M1170.8,12.2 L1054.2,12.2 L937.6,12.2 L821,12.2 L704.5,12.2 L587.9,12.2 L471.3,12.2 L354.8,12.2 L238.2,12.2 C235.4,12.2 233.2,14.4 233.2,17.2 L233.2,133.8 L233.2,250.4 L233.2,367 L233.2,483.6 L233.2,600.2 L233.2,716.8 C233.2,719.6 235.4,721.8 238.2,721.8 L354.8,721.8 L471.4,721.8 L588,721.8 L704.6,721.8 L821.2,721.8 L937.8,721.8 L1054.4,721.8 L1171,721.8 C1173.8,721.8 1176,719.6 1176,716.8 L1176,600.1 L1176,483.6 L1176,367 L1176,250.4 L1176,133.8 L1176,17.2 C1175.8,14.5 1173.6,12.2 1170.8,12.2 Z M1165.8,245.4 L1059.2,245.4 L1059.2,138.8 L1165.8,138.8 L1165.8,245.4 Z M1165.8,362 L1059.2,362 L1059.2,255.4 L1165.8,255.4 L1165.8,362 Z M1165.8,478.6 L1059.2,478.6 L1059.2,372 L1165.8,372 L1165.8,478.6 Z M243.2,372 L349.8,372 L349.8,478.6 L243.2,478.6 L243.2,372 Z M243.2,255.4 L349.8,255.4 L349.8,362 L243.2,362 L243.2,255.4 Z M1049.2,362 L942.6,362 L942.6,255.4 L1049.2,255.4 L1049.2,362 Z M932.7,362 L826.1,362 L826.1,255.4 L932.7,255.4 L932.7,362 Z M816.1,362 L709.5,362 L709.5,255.4 L816.1,255.4 L816.1,362 Z M699.5,362 L592.9,362 L592.9,255.4 L699.5,255.4 L699.5,362 Z M582.9,362 L476.3,362 L476.3,255.4 L582.9,255.4 L582.9,362 L582.9,362 Z M466.3,362 L359.8,362 L359.8,255.4 L466.4,255.4 L466.3,362 L466.3,362 Z M359.8,372 L466.4,372 L466.4,478.6 L359.8,478.6 L359.8,372 Z M476.3,372 L582.9,372 L582.9,478.6 L476.3,478.6 L476.3,372 Z M592.9,372 L699.5,372 L699.5,478.6 L592.9,478.6 L592.9,372 Z M709.5,372 L816.1,372 L816.1,478.6 L709.5,478.6 L709.5,372 Z M826.1,372 L932.7,372 L932.7,478.6 L826.1,478.6 L826.1,372 Z M942.7,372 L1049.3,372 L1049.3,478.6 L942.7,478.6 L942.7,372 Z M1049.2,245.4 L942.6,245.4 L942.6,138.8 L1049.2,138.8 L1049.2,245.4 Z M932.7,245.4 L826.1,245.4 L826.1,138.8 L932.7,138.8 L932.7,245.4 Z M816.1,245.4 L709.5,245.4 L709.5,138.8 L816.1,138.8 L816.1,245.4 Z M699.5,245.4 L592.9,245.4 L592.9,138.8 L699.5,138.8 L699.5,245.4 Z M582.9,245.4 L476.3,245.4 L476.3,138.8 L582.9,138.8 L582.9,245.4 L582.9,245.4 Z M466.3,245.4 L359.8,245.4 L359.8,138.8 L466.4,138.8 L466.3,245.4 L466.3,245.4 Z M349.8,245.4 L243.2,245.4 L243.2,138.8 L349.8,138.8 L349.8,245.4 Z M243.2,488.6 L349.8,488.6 L349.8,595.2 L243.2,595.2 L243.2,488.6 Z M359.8,488.6 L466.4,488.6 L466.4,595.2 L359.8,595.2 L359.8,488.6 Z M476.3,488.6 L582.9,488.6 L582.9,595.2 L476.3,595.2 L476.3,488.6 Z M592.9,488.6 L699.5,488.6 L699.5,595.2 L592.9,595.2 L592.9,488.6 Z M709.5,488.6 L816.1,488.6 L816.1,595.2 L709.5,595.2 L709.5,488.6 Z M826.1,488.6 L932.7,488.6 L932.7,595.2 L826.1,595.2 L826.1,488.6 Z M942.7,488.6 L1049.3,488.6 L1049.3,595.2 L942.7,595.2 L942.7,488.6 Z M1059.2,488.6 L1165.8,488.6 L1165.8,595.2 L1059.2,595.2 L1059.2,488.6 Z M1165.8,128.8 L1059.2,128.8 L1059.2,22.2 L1165.8,22.2 L1165.8,128.8 Z M1049.2,128.8 L942.6,128.8 L942.6,22.2 L1049.2,22.2 L1049.2,128.8 Z M932.7,128.8 L826.1,128.8 L826.1,22.2 L932.7,22.2 L932.7,128.8 Z M816.1,128.8 L709.5,128.8 L709.5,22.2 L816.1,22.2 L816.1,128.8 Z M699.5,128.8 L592.9,128.8 L592.9,22.2 L699.5,22.2 L699.5,128.8 Z M582.9,128.8 L476.3,128.8 L476.3,22.2 L582.9,22.2 L582.9,128.8 L582.9,128.8 Z M466.3,128.8 L359.8,128.8 L359.8,22.2 L466.4,22.2 L466.3,128.8 L466.3,128.8 Z M243.2,22.2 L349.8,22.2 L349.8,128.8 L243.2,128.8 L243.2,22.2 Z M243.2,605.1 L349.8,605.1 L349.8,711.7 L243.2,711.7 L243.2,605.1 Z M359.8,605.1 L466.4,605.1 L466.4,711.7 L359.8,711.7 L359.8,605.1 Z M476.3,605.1 L582.9,605.1 L582.9,711.7 L476.3,711.7 L476.3,605.1 Z M592.9,605.1 L699.5,605.1 L699.5,711.7 L592.9,711.7 L592.9,605.1 Z M709.5,605.1 L816.1,605.1 L816.1,711.7 L709.5,711.7 L709.5,605.1 Z M826.1,605.1 L932.7,605.1 L932.7,711.7 L826.1,711.7 L826.1,605.1 Z M942.7,605.1 L1049.3,605.1 L1049.3,711.7 L942.7,711.7 L942.7,605.1 Z M1165.8,711.7 L1059.2,711.7 L1059.2,605.1 L1165.8,605.1 L1165.8,711.7 Z" id="Shape" fill="#D74A83"></path>
                <path d="M587.9,711.7 C528.6,711.7 479.6,688.6 438,641 C401.4,599.1 375.4,543.9 352.4,495.2 C318.7,423.7 289.6,362 238.2,362 C235.4,362 233.2,364.2 233.2,367 L233.2,716.7 C233.2,719.5 235.4,721.7 238.2,721.7 L587.9,721.7 C590.7,721.7 592.9,719.5 592.9,716.7 C592.9,713.9 590.7,711.7 587.9,711.7 Z" id="Path" fill="#F3F6E6"></path>
                <path d="M704.1,488.6 C703.1,488.6 702.1,488.3 701.2,487.7 L536.3,372 L413,371.8 L413,361.8 L537.9,361.9 C538.9,361.9 539.9,362.2 540.8,362.8 L702.2,476.1 L816.6,248.1 C816.8,247.6 817.2,247.2 817.5,246.8 L932.6,131.8 L931.6,17.2 L941.6,17.1 L942.6,133.8 C942.6,135.1 942.1,136.4 941.1,137.4 L825.1,253.3 L708.6,485.8 C707.9,487.1 706.8,488 705.4,488.4 C704.9,488.5 704.5,488.6 704.1,488.6 Z" id="Path" fill="#F3F6E6"></path>
                <path d="M471.3,554.2 C470.1,554.2 469,553.8 468.1,553 L332.5,437 C330.4,435.2 330.2,432 332,430 C333.8,427.9 337,427.7 339,429.5 L470.6,542 L700.5,247.3 C701.4,246.2 702.7,245.5 704.1,245.4 C705.5,245.3 706.9,245.8 707.9,246.9 L820.9,359.9 L933.9,246.9 L1049,131.9 L1049,17.2 C1049,14.4 1051.2,12.2 1054,12.2 L1170.6,12.2 C1173.4,12.2 1175.6,14.4 1175.6,17.2 C1175.6,20 1173.4,22.2 1170.6,22.2 L1059,22.2 L1059,134 C1059,135.3 1058.5,136.6 1057.5,137.5 L940.9,253.9 L824.3,370.5 C822.3,372.5 819.2,372.5 817.2,370.5 L705,257.9 L475.3,552.3 C474.5,553.4 473.2,554.1 471.9,554.2 C471.7,554.2 471.5,554.2 471.3,554.2 Z" id="Path" fill="#383A48"></path>
                <g transform="translate(18.000000, 91.000000)" fill="#383A48" id="Oval">
                    <circle cx="449.1" cy="178.6" r="5"></circle>
                    <circle cx="449.1" cy="203.2" r="5"></circle>
                    <circle cx="449.1" cy="227.9" r="5"></circle>
                    <circle cx="449.1" cy="252.6" r="5"></circle>
                    <circle cx="449.1" cy="277.2" r="5"></circle>
                    <circle cx="424.5" cy="129.2" r="5"></circle>
                    <circle cx="424.5" cy="153.9" r="5"></circle>
                    <circle cx="424.5" cy="178.6" r="5"></circle>
                    <circle cx="424.5" cy="203.2" r="5"></circle>
                    <circle cx="424.5" cy="227.9" r="5"></circle>
                    <circle cx="424.5" cy="252.6" r="5"></circle>
                    <circle cx="424.5" cy="277.2" r="5"></circle>
                    <circle cx="424.5" cy="301.9" r="5"></circle>
                    <circle cx="424.5" cy="326.6" r="5"></circle>
                    <circle cx="399.8" cy="104.6" r="5"></circle>
                    <circle cx="399.8" cy="129.2" r="5"></circle>
                    <circle cx="399.8" cy="153.9" r="5"></circle>
                    <circle cx="399.8" cy="178.6" r="5"></circle>
                    <circle cx="399.8" cy="203.2" r="5"></circle>
                    <circle cx="399.8" cy="227.9" r="5"></circle>
                    <circle cx="399.8" cy="252.6" r="5"></circle>
                    <circle cx="399.8" cy="277.2" r="5"></circle>
                    <circle cx="399.8" cy="301.9" r="5"></circle>
                    <circle cx="399.8" cy="326.6" r="5"></circle>
                    <circle cx="399.8" cy="351.2" r="5"></circle>
                    <circle cx="375.1" cy="79.9" r="5"></circle>
                    <circle cx="375.1" cy="104.6" r="5"></circle>
                    <circle cx="375.1" cy="129.2" r="5"></circle>
                    <circle cx="375.1" cy="153.9" r="5"></circle>
                    <circle cx="375.1" cy="178.6" r="5"></circle>
                    <circle cx="375.1" cy="203.2" r="5"></circle>
                    <circle cx="375.1" cy="227.9" r="5"></circle>
                    <circle cx="375.1" cy="252.6" r="5"></circle>
                    <circle cx="375.1" cy="277.2" r="5"></circle>
                    <circle cx="375.1" cy="301.9" r="5"></circle>
                    <circle cx="375.1" cy="326.6" r="5"></circle>
                    <circle cx="375.1" cy="351.2" r="5"></circle>
                    <circle cx="375.1" cy="375.9" r="5"></circle>
                    <circle cx="375.1" cy="400.6" r="5"></circle>
                    <circle cx="350.5" cy="55.2" r="5"></circle>
                    <circle cx="350.5" cy="79.9" r="5"></circle>
                    <circle cx="350.5" cy="104.6" r="5"></circle>
                    <circle cx="350.5" cy="129.2" r="5"></circle>
                    <circle cx="350.5" cy="153.9" r="5"></circle>
                    <circle cx="350.5" cy="178.6" r="5"></circle>
                    <circle cx="350.5" cy="203.2" r="5"></circle>
                    <circle cx="350.5" cy="227.9" r="5"></circle>
                    <circle cx="350.5" cy="252.6" r="5"></circle>
                    <circle cx="350.5" cy="277.2" r="5"></circle>
                    <circle cx="350.5" cy="301.9" r="5"></circle>
                    <circle cx="350.5" cy="326.6" r="5"></circle>
                    <circle cx="350.5" cy="351.2" r="5"></circle>
                    <circle cx="350.5" cy="375.9" r="5"></circle>
                    <circle cx="350.5" cy="400.6" r="5"></circle>
                    <circle cx="325.8" cy="30.6" r="5"></circle>
                    <circle cx="325.8" cy="55.2" r="5"></circle>
                    <circle cx="325.8" cy="79.9" r="5"></circle>
                    <circle cx="325.8" cy="104.6" r="5"></circle>
                    <circle cx="325.8" cy="129.2" r="5"></circle>
                    <circle cx="325.8" cy="153.9" r="5"></circle>
                    <circle cx="325.8" cy="178.6" r="5"></circle>
                    <circle cx="325.8" cy="203.2" r="5"></circle>
                    <circle cx="325.8" cy="227.9" r="5"></circle>
                    <circle cx="325.8" cy="252.6" r="5"></circle>
                    <circle cx="325.8" cy="277.2" r="5"></circle>
                    <circle cx="325.8" cy="301.9" r="5"></circle>
                    <circle cx="325.8" cy="326.6" r="5"></circle>
                    <circle cx="325.8" cy="351.2" r="5"></circle>
                    <circle cx="325.8" cy="375.9" r="5"></circle>
                    <circle cx="325.8" cy="400.6" r="5"></circle>
                    <circle cx="325.8" cy="425.2" r="5"></circle>
                    <circle cx="301.1" cy="30.6" r="5"></circle>
                    <circle cx="301.1" cy="55.2" r="5"></circle>
                    <circle cx="301.1" cy="79.9" r="5"></circle>
                    <circle cx="301.1" cy="104.6" r="5"></circle>
                    <circle cx="301.1" cy="129.2" r="5"></circle>
                    <circle cx="301.1" cy="153.9" r="5"></circle>
                    <circle cx="301.1" cy="178.6" r="5"></circle>
                    <circle cx="301.1" cy="203.2" r="5"></circle>
                    <circle cx="301.1" cy="227.9" r="5"></circle>
                    <circle cx="301.1" cy="252.6" r="5"></circle>
                    <circle cx="301.1" cy="277.2" r="5"></circle>
                    <circle cx="301.1" cy="301.9" r="5"></circle>
                    <circle cx="301.1" cy="326.6" r="5"></circle>
                    <circle cx="301.1" cy="351.2" r="5"></circle>
                    <circle cx="301.1" cy="375.9" r="5"></circle>
                    <circle cx="301.1" cy="400.6" r="5"></circle>
                    <circle cx="301.1" cy="425.2" r="5"></circle>
                    <circle cx="276.5" cy="5.9" r="5"></circle>
                    <circle cx="276.5" cy="30.6" r="5"></circle>
                    <circle cx="276.5" cy="55.2" r="5"></circle>
                    <circle cx="276.5" cy="79.9" r="5"></circle>
                    <circle cx="276.5" cy="104.6" r="5"></circle>
                    <circle cx="276.5" cy="129.2" r="5"></circle>
                    <circle cx="276.5" cy="153.9" r="5"></circle>
                    <circle cx="276.5" cy="178.6" r="5"></circle>
                    <circle cx="276.5" cy="203.2" r="5"></circle>
                    <circle cx="276.5" cy="227.9" r="5"></circle>
                    <circle cx="276.5" cy="252.6" r="5"></circle>
                    <circle cx="276.5" cy="277.2" r="5"></circle>
                    <circle cx="276.5" cy="301.9" r="5"></circle>
                    <circle cx="276.5" cy="326.6" r="5"></circle>
                    <circle cx="276.5" cy="351.2" r="5"></circle>
                    <circle cx="276.5" cy="375.9" r="5"></circle>
                    <circle cx="276.5" cy="400.6" r="5"></circle>
                    <circle cx="276.5" cy="425.2" r="5"></circle>
                    <circle cx="276.5" cy="449.9" r="5"></circle>
                    <circle cx="251.8" cy="5.9" r="5"></circle>
                    <circle cx="251.8" cy="30.6" r="5"></circle>
                    <circle cx="251.8" cy="55.2" r="5"></circle>
                    <circle cx="251.8" cy="79.9" r="5"></circle>
                    <circle cx="251.8" cy="104.6" r="5"></circle>
                    <circle cx="251.8" cy="129.2" r="5"></circle>
                    <circle cx="251.8" cy="153.9" r="5"></circle>
                    <circle cx="251.8" cy="178.6" r="5"></circle>
                    <circle cx="251.8" cy="203.2" r="5"></circle>
                    <circle cx="251.8" cy="227.9" r="5"></circle>
                    <circle cx="251.8" cy="252.6" r="5"></circle>
                    <circle cx="251.8" cy="277.2" r="5"></circle>
                    <circle cx="251.8" cy="301.9" r="5"></circle>
                    <circle cx="251.8" cy="326.6" r="5"></circle>
                    <circle cx="251.8" cy="351.2" r="5"></circle>
                    <circle cx="251.8" cy="375.9" r="5"></circle>
                    <circle cx="251.8" cy="400.6" r="5"></circle>
                    <circle cx="251.8" cy="425.2" r="5"></circle>
                    <circle cx="251.8" cy="449.9" r="5"></circle>
                    <circle cx="227.1" cy="5.9" r="5"></circle>
                    <circle cx="227.1" cy="30.6" r="5"></circle>
                    <circle cx="227.1" cy="55.2" r="5"></circle>
                    <circle cx="227.1" cy="79.9" r="5"></circle>
                    <circle cx="227.1" cy="104.6" r="5"></circle>
                    <circle cx="227.1" cy="129.2" r="5"></circle>
                    <circle cx="227.1" cy="153.9" r="5"></circle>
                    <circle cx="227.1" cy="178.6" r="5"></circle>
                    <circle cx="227.1" cy="203.2" r="5"></circle>
                    <circle cx="227.1" cy="227.9" r="5"></circle>
                    <circle cx="227.1" cy="252.6" r="5"></circle>
                    <circle cx="227.1" cy="277.2" r="5"></circle>
                    <circle cx="227.1" cy="301.9" r="5"></circle>
                    <circle cx="227.1" cy="326.6" r="5"></circle>
                    <circle cx="227.1" cy="351.2" r="5"></circle>
                    <circle cx="227.1" cy="375.9" r="5"></circle>
                    <circle cx="227.1" cy="400.6" r="5"></circle>
                    <circle cx="227.1" cy="425.2" r="5"></circle>
                    <circle cx="227.1" cy="449.9" r="5"></circle>
                    <circle cx="202.5" cy="5.9" r="5"></circle>
                    <circle cx="202.5" cy="30.6" r="5"></circle>
                    <circle cx="202.5" cy="55.2" r="5"></circle>
                    <circle cx="202.5" cy="79.9" r="5"></circle>
                    <circle cx="202.5" cy="104.6" r="5"></circle>
                    <circle cx="202.5" cy="129.2" r="5"></circle>
                    <circle cx="202.5" cy="153.9" r="5"></circle>
                    <circle cx="202.5" cy="178.6" r="5"></circle>
                    <circle cx="202.5" cy="203.2" r="5"></circle>
                    <circle cx="202.5" cy="227.9" r="5"></circle>
                    <circle cx="202.5" cy="252.6" r="5"></circle>
                    <circle cx="202.5" cy="277.2" r="5"></circle>
                    <circle cx="202.5" cy="301.9" r="5"></circle>
                    <circle cx="202.5" cy="326.6" r="5"></circle>
                    <circle cx="202.5" cy="351.2" r="5"></circle>
                    <circle cx="202.5" cy="375.9" r="5"></circle>
                    <circle cx="202.5" cy="400.6" r="5"></circle>
                    <circle cx="202.5" cy="425.2" r="5"></circle>
                    <circle cx="202.5" cy="449.9" r="5"></circle>
                    <circle cx="177.8" cy="5.9" r="5"></circle>
                    <circle cx="177.8" cy="30.6" r="5"></circle>
                    <circle cx="177.8" cy="55.2" r="5"></circle>
                    <circle cx="177.8" cy="79.9" r="5"></circle>
                    <circle cx="177.8" cy="104.6" r="5"></circle>
                    <circle cx="177.8" cy="129.2" r="5"></circle>
                    <circle cx="177.8" cy="153.9" r="5"></circle>
                    <circle cx="177.8" cy="178.6" r="5"></circle>
                    <circle cx="177.8" cy="203.2" r="5"></circle>
                    <circle cx="177.8" cy="227.9" r="5"></circle>
                    <circle cx="177.8" cy="252.6" r="5"></circle>
                    <circle cx="177.8" cy="277.2" r="5"></circle>
                    <circle cx="177.8" cy="301.9" r="5"></circle>
                    <circle cx="177.8" cy="326.6" r="5"></circle>
                    <circle cx="177.8" cy="351.2" r="5"></circle>
                    <circle cx="177.8" cy="375.9" r="5"></circle>
                    <circle cx="177.8" cy="400.6" r="5"></circle>
                    <circle cx="177.8" cy="425.2" r="5"></circle>
                    <circle cx="177.8" cy="449.9" r="5"></circle>
                    <circle cx="153.1" cy="30.6" r="5"></circle>
                    <circle cx="153.1" cy="55.2" r="5"></circle>
                    <circle cx="153.1" cy="79.9" r="5"></circle>
                    <circle cx="153.1" cy="104.6" r="5"></circle>
                    <circle cx="153.1" cy="129.2" r="5"></circle>
                    <circle cx="153.1" cy="153.9" r="5"></circle>
                    <circle cx="153.1" cy="178.6" r="5"></circle>
                    <circle cx="153.1" cy="203.2" r="5"></circle>
                    <circle cx="153.1" cy="227.9" r="5"></circle>
                    <circle cx="153.1" cy="252.6" r="5"></circle>
                    <circle cx="153.1" cy="277.2" r="5"></circle>
                    <circle cx="153.1" cy="301.9" r="5"></circle>
                    <circle cx="153.1" cy="326.6" r="5"></circle>
                    <circle cx="153.1" cy="351.2" r="5"></circle>
                    <circle cx="153.1" cy="375.9" r="5"></circle>
                    <circle cx="153.1" cy="400.6" r="5"></circle>
                    <circle cx="153.1" cy="425.2" r="5"></circle>
                    <circle cx="153.1" cy="449.9" r="5"></circle>
                    <circle cx="128.5" cy="30.6" r="5"></circle>
                    <circle cx="128.5" cy="55.2" r="5"></circle>
                    <circle cx="128.5" cy="79.9" r="5"></circle>
                    <circle cx="128.5" cy="104.6" r="5"></circle>
                    <circle cx="128.5" cy="129.2" r="5"></circle>
                    <circle cx="128.5" cy="153.9" r="5"></circle>
                    <circle cx="128.5" cy="178.6" r="5"></circle>
                    <circle cx="128.5" cy="203.2" r="5"></circle>
                    <circle cx="128.5" cy="227.9" r="5"></circle>
                    <circle cx="128.5" cy="252.6" r="5"></circle>
                    <circle cx="128.5" cy="277.2" r="5"></circle>
                    <circle cx="128.5" cy="301.9" r="5"></circle>
                    <circle cx="128.5" cy="326.6" r="5"></circle>
                    <circle cx="128.5" cy="351.2" r="5"></circle>
                    <circle cx="128.5" cy="375.9" r="5"></circle>
                    <circle cx="128.5" cy="400.6" r="5"></circle>
                    <circle cx="128.5" cy="425.2" r="5"></circle>
                    <circle cx="103.8" cy="30.6" r="5"></circle>
                    <circle cx="103.8" cy="55.2" r="5"></circle>
                    <circle cx="103.8" cy="79.9" r="5"></circle>
                    <circle cx="103.8" cy="104.6" r="5"></circle>
                    <circle cx="103.8" cy="129.2" r="5"></circle>
                    <circle cx="103.8" cy="153.9" r="5"></circle>
                    <circle cx="103.8" cy="178.6" r="5"></circle>
                    <circle cx="103.8" cy="203.2" r="5"></circle>
                    <circle cx="103.8" cy="227.9" r="5"></circle>
                    <circle cx="103.8" cy="252.6" r="5"></circle>
                    <circle cx="103.8" cy="277.2" r="5"></circle>
                    <circle cx="103.8" cy="301.9" r="5"></circle>
                    <circle cx="103.8" cy="326.6" r="5"></circle>
                    <circle cx="103.8" cy="351.2" r="5"></circle>
                    <circle cx="103.8" cy="375.9" r="5"></circle>
                    <circle cx="103.8" cy="400.6" r="5"></circle>
                    <circle cx="103.8" cy="425.2" r="5"></circle>
                    <circle cx="79.1" cy="55.2" r="5"></circle>
                    <circle cx="79.1" cy="79.9" r="5"></circle>
                    <circle cx="79.1" cy="104.6" r="5"></circle>
                    <circle cx="79.1" cy="129.2" r="5"></circle>
                    <circle cx="79.1" cy="153.9" r="5"></circle>
                    <circle cx="79.1" cy="178.6" r="5"></circle>
                    <circle cx="79.1" cy="203.2" r="5"></circle>
                    <circle cx="79.1" cy="227.9" r="5"></circle>
                    <circle cx="79.1" cy="252.6" r="5"></circle>
                    <circle cx="79.1" cy="277.2" r="5"></circle>
                    <circle cx="79.1" cy="301.9" r="5"></circle>
                    <circle cx="79.1" cy="326.6" r="5"></circle>
                    <circle cx="79.1" cy="351.2" r="5"></circle>
                    <circle cx="79.1" cy="375.9" r="5"></circle>
                    <circle cx="79.1" cy="400.6" r="5"></circle>
                    <circle cx="54.5" cy="79.9" r="5"></circle>
                    <circle cx="54.5" cy="104.6" r="5"></circle>
                    <circle cx="54.5" cy="129.2" r="5"></circle>
                    <circle cx="54.5" cy="153.9" r="5"></circle>
                    <circle cx="54.5" cy="178.6" r="5"></circle>
                    <circle cx="54.5" cy="203.2" r="5"></circle>
                    <circle cx="54.5" cy="227.9" r="5"></circle>
                    <circle cx="54.5" cy="252.6" r="5"></circle>
                    <circle cx="54.5" cy="277.2" r="5"></circle>
                    <circle cx="54.5" cy="301.9" r="5"></circle>
                    <circle cx="54.5" cy="326.6" r="5"></circle>
                    <circle cx="54.5" cy="351.2" r="5"></circle>
                    <circle cx="54.5" cy="375.9" r="5"></circle>
                    <circle cx="29.8" cy="104.6" r="5"></circle>
                    <circle cx="29.8" cy="129.2" r="5"></circle>
                    <circle cx="29.8" cy="153.9" r="5"></circle>
                    <circle cx="29.8" cy="178.6" r="5"></circle>
                    <circle cx="29.8" cy="203.2" r="5"></circle>
                    <circle cx="29.8" cy="227.9" r="5"></circle>
                    <circle cx="29.8" cy="252.6" r="5"></circle>
                    <circle cx="29.8" cy="277.2" r="5"></circle>
                    <circle cx="29.8" cy="301.9" r="5"></circle>
                    <circle cx="29.8" cy="326.6" r="5"></circle>
                    <circle cx="29.8" cy="351.2" r="5"></circle>
                    <circle cx="5.1" cy="153.9" r="5"></circle>
                    <circle cx="5.1" cy="178.6" r="5"></circle>
                    <circle cx="5.1" cy="203.2" r="5"></circle>
                    <circle cx="5.1" cy="227.9" r="5"></circle>
                    <circle cx="5.1" cy="252.6" r="5"></circle>
                    <circle cx="5.1" cy="277.2" r="5"></circle>
                    <circle cx="5.1" cy="301.9" r="5"></circle>
                </g>
                <path d="M1473.6,129.6 C1472.1,128.7 1470.3,128.6 1468.8,129.3 C1355.2,183.3 1297.8,278.2 1247.2,361.9 L1245.7,364.4 C1219.1,408.3 1191.6,453.8 1157.7,485.9 C1121,520.7 1080.2,536.9 1029.5,536.9 C1005.6,536.9 982.8,538.3 961.8,541.2 C886,551.5 834.3,590.5 784.3,628.3 C727.5,671.2 673.9,711.7 588,711.7 C585.2,711.7 583,713.9 583,716.7 C583,719.5 585.2,721.7 588,721.7 L1471,721.7 C1473.8,721.7 1476,719.5 1476,716.7 L1476,133.8 C1476,132.1 1475.1,130.5 1473.6,129.6 Z" id="Path" fill="#F3F6E6"></path>
                <g transform="translate(980.000000, 366.000000)" fill="#383A48" id="Oval">
                    <circle cx="399.8" cy="5.2" r="5"></circle>
                    <circle cx="399.8" cy="29.9" r="5"></circle>
                    <circle cx="399.8" cy="54.6" r="5"></circle>
                    <circle cx="399.8" cy="79.2" r="5"></circle>
                    <circle cx="399.8" cy="103.9" r="5"></circle>
                    <circle cx="399.8" cy="128.6" r="5"></circle>
                    <circle cx="399.8" cy="153.2" r="5"></circle>
                    <circle cx="399.8" cy="177.9" r="5"></circle>
                    <circle cx="399.8" cy="202.6" r="5"></circle>
                    <circle cx="399.8" cy="227.2" r="5"></circle>
                    <circle cx="399.8" cy="251.9" r="5"></circle>
                    <circle cx="399.8" cy="276.6" r="5"></circle>
                    <circle cx="399.8" cy="301.2" r="5"></circle>
                    <circle cx="399.8" cy="325.9" r="5"></circle>
                    <circle cx="399.8" cy="350.6" r="5"></circle>
                    <circle cx="375.1" cy="5.2" r="5"></circle>
                    <circle cx="375.1" cy="29.9" r="5"></circle>
                    <circle cx="375.1" cy="54.6" r="5"></circle>
                    <circle cx="375.1" cy="79.2" r="5"></circle>
                    <circle cx="375.1" cy="103.9" r="5"></circle>
                    <circle cx="375.1" cy="128.6" r="5"></circle>
                    <circle cx="375.1" cy="153.2" r="5"></circle>
                    <circle cx="375.1" cy="177.9" r="5"></circle>
                    <circle cx="375.1" cy="202.6" r="5"></circle>
                    <circle cx="375.1" cy="227.2" r="5"></circle>
                    <circle cx="375.1" cy="251.9" r="5"></circle>
                    <circle cx="375.1" cy="276.6" r="5"></circle>
                    <circle cx="375.1" cy="301.2" r="5"></circle>
                    <circle cx="375.1" cy="325.9" r="5"></circle>
                    <circle cx="375.1" cy="350.6" r="5"></circle>
                    <circle cx="350.5" cy="5.2" r="5"></circle>
                    <circle cx="350.5" cy="29.9" r="5"></circle>
                    <circle cx="350.5" cy="54.6" r="5"></circle>
                    <circle cx="350.5" cy="79.2" r="5"></circle>
                    <circle cx="350.5" cy="103.9" r="5"></circle>
                    <circle cx="350.5" cy="128.6" r="5"></circle>
                    <circle cx="350.5" cy="153.2" r="5"></circle>
                    <circle cx="350.5" cy="177.9" r="5"></circle>
                    <circle cx="350.5" cy="202.6" r="5"></circle>
                    <circle cx="350.5" cy="227.2" r="5"></circle>
                    <circle cx="350.5" cy="251.9" r="5"></circle>
                    <circle cx="350.5" cy="276.6" r="5"></circle>
                    <circle cx="350.5" cy="301.2" r="5"></circle>
                    <circle cx="350.5" cy="325.9" r="5"></circle>
                    <circle cx="350.5" cy="350.6" r="5"></circle>
                    <circle cx="325.8" cy="5.2" r="5"></circle>
                    <circle cx="325.8" cy="29.9" r="5"></circle>
                    <circle cx="325.8" cy="54.6" r="5"></circle>
                    <circle cx="325.8" cy="79.2" r="5"></circle>
                    <circle cx="325.8" cy="103.9" r="5"></circle>
                    <circle cx="325.8" cy="128.6" r="5"></circle>
                    <circle cx="325.8" cy="153.2" r="5"></circle>
                    <circle cx="325.8" cy="177.9" r="5"></circle>
                    <circle cx="325.8" cy="202.6" r="5"></circle>
                    <circle cx="325.8" cy="227.2" r="5"></circle>
                    <circle cx="325.8" cy="251.9" r="5"></circle>
                    <circle cx="325.8" cy="276.6" r="5"></circle>
                    <circle cx="325.8" cy="301.2" r="5"></circle>
                    <circle cx="325.8" cy="325.9" r="5"></circle>
                    <circle cx="325.8" cy="350.6" r="5"></circle>
                    <circle cx="301.1" cy="5.2" r="5"></circle>
                    <circle cx="301.1" cy="29.9" r="5"></circle>
                    <circle cx="301.1" cy="54.6" r="5"></circle>
                    <circle cx="301.1" cy="79.2" r="5"></circle>
                    <circle cx="301.1" cy="103.9" r="5"></circle>
                    <circle cx="301.1" cy="128.6" r="5"></circle>
                    <circle cx="301.1" cy="153.2" r="5"></circle>
                    <circle cx="301.1" cy="177.9" r="5"></circle>
                    <circle cx="301.1" cy="202.6" r="5"></circle>
                    <circle cx="301.1" cy="227.2" r="5"></circle>
                    <circle cx="301.1" cy="251.9" r="5"></circle>
                    <circle cx="301.1" cy="276.6" r="5"></circle>
                    <circle cx="301.1" cy="301.2" r="5"></circle>
                    <circle cx="301.1" cy="325.9" r="5"></circle>
                    <circle cx="301.1" cy="350.6" r="5"></circle>
                    <circle cx="276.5" cy="5.2" r="5"></circle>
                    <circle cx="276.5" cy="29.9" r="5"></circle>
                    <circle cx="276.5" cy="54.6" r="5"></circle>
                    <circle cx="276.5" cy="79.2" r="5"></circle>
                    <circle cx="276.5" cy="103.9" r="5"></circle>
                    <circle cx="276.5" cy="128.6" r="5"></circle>
                    <circle cx="276.5" cy="153.2" r="5"></circle>
                    <circle cx="276.5" cy="177.9" r="5"></circle>
                    <circle cx="276.5" cy="202.6" r="5"></circle>
                    <circle cx="276.5" cy="227.2" r="5"></circle>
                    <circle cx="276.5" cy="251.9" r="5"></circle>
                    <circle cx="276.5" cy="276.6" r="5"></circle>
                    <circle cx="276.5" cy="301.2" r="5"></circle>
                    <circle cx="276.5" cy="325.9" r="5"></circle>
                    <circle cx="276.5" cy="350.6" r="5"></circle>
                    <circle cx="251.8" cy="54.6" r="5"></circle>
                    <circle cx="251.8" cy="79.2" r="5"></circle>
                    <circle cx="251.8" cy="103.9" r="5"></circle>
                    <circle cx="251.8" cy="128.6" r="5"></circle>
                    <circle cx="251.8" cy="153.2" r="5"></circle>
                    <circle cx="251.8" cy="177.9" r="5"></circle>
                    <circle cx="251.8" cy="202.6" r="5"></circle>
                    <circle cx="251.8" cy="227.2" r="5"></circle>
                    <circle cx="251.8" cy="251.9" r="5"></circle>
                    <circle cx="251.8" cy="276.6" r="5"></circle>
                    <circle cx="251.8" cy="301.2" r="5"></circle>
                    <circle cx="251.8" cy="325.9" r="5"></circle>
                    <circle cx="251.8" cy="350.6" r="5"></circle>
                    <circle cx="227.1" cy="79.2" r="5"></circle>
                    <circle cx="227.1" cy="103.9" r="5"></circle>
                    <circle cx="227.1" cy="128.6" r="5"></circle>
                    <circle cx="227.1" cy="153.2" r="5"></circle>
                    <circle cx="227.1" cy="177.9" r="5"></circle>
                    <circle cx="227.1" cy="202.6" r="5"></circle>
                    <circle cx="227.1" cy="227.2" r="5"></circle>
                    <circle cx="227.1" cy="251.9" r="5"></circle>
                    <circle cx="227.1" cy="276.6" r="5"></circle>
                    <circle cx="227.1" cy="301.2" r="5"></circle>
                    <circle cx="227.1" cy="325.9" r="5"></circle>
                    <circle cx="227.1" cy="350.6" r="5"></circle>
                    <circle cx="202.5" cy="128.6" r="5"></circle>
                    <circle cx="202.5" cy="153.2" r="5"></circle>
                    <circle cx="202.5" cy="177.9" r="5"></circle>
                    <circle cx="202.5" cy="202.6" r="5"></circle>
                    <circle cx="202.5" cy="227.2" r="5"></circle>
                    <circle cx="202.5" cy="251.9" r="5"></circle>
                    <circle cx="202.5" cy="276.6" r="5"></circle>
                    <circle cx="202.5" cy="301.2" r="5"></circle>
                    <circle cx="202.5" cy="325.9" r="5"></circle>
                    <circle cx="202.5" cy="350.6" r="5"></circle>
                    <circle cx="177.8" cy="153.2" r="5"></circle>
                    <circle cx="177.8" cy="177.9" r="5"></circle>
                    <circle cx="177.8" cy="202.6" r="5"></circle>
                    <circle cx="177.8" cy="227.2" r="5"></circle>
                    <circle cx="177.8" cy="251.9" r="5"></circle>
                    <circle cx="177.8" cy="276.6" r="5"></circle>
                    <circle cx="177.8" cy="301.2" r="5"></circle>
                    <circle cx="177.8" cy="325.9" r="5"></circle>
                    <circle cx="177.8" cy="350.6" r="5"></circle>
                    <circle cx="153.1" cy="153.2" r="5"></circle>
                    <circle cx="153.1" cy="177.9" r="5"></circle>
                    <circle cx="153.1" cy="202.6" r="5"></circle>
                    <circle cx="153.1" cy="227.2" r="5"></circle>
                    <circle cx="153.1" cy="251.9" r="5"></circle>
                    <circle cx="153.1" cy="276.6" r="5"></circle>
                    <circle cx="153.1" cy="301.2" r="5"></circle>
                    <circle cx="153.1" cy="325.9" r="5"></circle>
                    <circle cx="153.1" cy="350.6" r="5"></circle>
                    <circle cx="128.5" cy="177.9" r="5"></circle>
                    <circle cx="128.5" cy="202.6" r="5"></circle>
                    <circle cx="128.5" cy="227.2" r="5"></circle>
                    <circle cx="128.5" cy="251.9" r="5"></circle>
                    <circle cx="128.5" cy="276.6" r="5"></circle>
                    <circle cx="128.5" cy="301.2" r="5"></circle>
                    <circle cx="128.5" cy="325.9" r="5"></circle>
                    <circle cx="128.5" cy="350.6" r="5"></circle>
                    <circle cx="103.8" cy="177.9" r="5"></circle>
                    <circle cx="103.8" cy="202.6" r="5"></circle>
                    <circle cx="103.8" cy="227.2" r="5"></circle>
                    <circle cx="103.8" cy="251.9" r="5"></circle>
                    <circle cx="103.8" cy="276.6" r="5"></circle>
                    <circle cx="103.8" cy="301.2" r="5"></circle>
                    <circle cx="103.8" cy="325.9" r="5"></circle>
                    <circle cx="103.8" cy="350.6" r="5"></circle>
                    <circle cx="79.1" cy="177.9" r="5"></circle>
                    <circle cx="79.1" cy="202.6" r="5"></circle>
                    <circle cx="79.1" cy="227.2" r="5"></circle>
                    <circle cx="79.1" cy="251.9" r="5"></circle>
                    <circle cx="79.1" cy="276.6" r="5"></circle>
                    <circle cx="79.1" cy="301.2" r="5"></circle>
                    <circle cx="79.1" cy="325.9" r="5"></circle>
                    <circle cx="79.1" cy="350.6" r="5"></circle>
                    <circle cx="54.5" cy="177.9" r="5"></circle>
                    <circle cx="54.5" cy="202.6" r="5"></circle>
                    <circle cx="54.5" cy="227.2" r="5"></circle>
                    <circle cx="54.5" cy="251.9" r="5"></circle>
                    <circle cx="54.5" cy="276.6" r="5"></circle>
                    <circle cx="54.5" cy="301.2" r="5"></circle>
                    <circle cx="54.5" cy="325.9" r="5"></circle>
                    <circle cx="54.5" cy="350.6" r="5"></circle>
                    <circle cx="29.8" cy="177.9" r="5"></circle>
                    <circle cx="29.8" cy="202.6" r="5"></circle>
                    <circle cx="29.8" cy="227.2" r="5"></circle>
                    <circle cx="29.8" cy="251.9" r="5"></circle>
                    <circle cx="29.8" cy="276.6" r="5"></circle>
                    <circle cx="29.8" cy="301.2" r="5"></circle>
                    <circle cx="29.8" cy="325.9" r="5"></circle>
                    <circle cx="29.8" cy="350.6" r="5"></circle>
                    <circle cx="5.1" cy="177.9" r="5"></circle>
                    <circle cx="5.1" cy="202.6" r="5"></circle>
                    <circle cx="5.1" cy="227.2" r="5"></circle>
                    <circle cx="5.1" cy="251.9" r="5"></circle>
                    <circle cx="5.1" cy="276.6" r="5"></circle>
                    <circle cx="5.1" cy="301.2" r="5"></circle>
                    <circle cx="5.1" cy="325.9" r="5"></circle>
                    <circle cx="5.1" cy="350.6" r="5"></circle>
                </g>
                <g transform="translate(1049.000000, 129.000000)">
                    <g>
                        <circle id="Oval" fill="#E0719E" cx="121.7" cy="121.4" r="116.4"></circle>
                        <path d="M121.7,242.8 C54.7,242.8 0.3,188.3 0.3,121.4 C0.3,54.5 54.7,0 121.7,0 C188.7,0 243.1,54.5 243.1,121.4 C243.1,188.3 188.6,242.8 121.7,242.8 Z M121.7,10 C60.3,10 10.3,60 10.3,121.4 C10.3,182.8 60.3,232.8 121.7,232.8 C183.1,232.8 233.1,182.8 233.1,121.4 C233.1,60 183.1,10 121.7,10 Z" id="Shape" fill="#383A48"></path>
                    </g>
                    <g transform="translate(0.000000, 60.000000)">
                        <path d="M238.1,61.4 C238.1,61.4 186,117.8 121.7,117.8 C57.4,117.8 5.3,61.4 5.3,61.4 C5.3,61.4 57.4,5 121.7,5 C186,5 238.1,61.4 238.1,61.4 Z" id="Path" fill="#F3F6E6"></path>
                        <path d="M121.7,122.8 C56,122.8 3.8,67.2 1.6,64.8 C-0.2,62.9 -0.2,59.9 1.6,58 C3.8,55.6 56,0 121.7,0 C187.4,0 239.6,55.6 241.8,58 C243.6,59.9 243.6,62.9 241.8,64.8 C239.6,67.2 187.4,122.8 121.7,122.8 Z M12.3,61.4 C24.7,73.4 69.4,112.8 121.7,112.8 C174.1,112.8 218.7,73.4 231.1,61.4 C218.7,49.4 174,10 121.7,10 C69.3,10 24.6,49.4 12.3,61.4 Z" id="Shape" fill="#383A48"></path>
                    </g>
                    <path d="M121.7,78.4 C98,78.4 78.7,97.7 78.7,121.4 C78.7,145.1 98,164.4 121.7,164.4 C145.4,164.4 164.7,145.1 164.7,121.4 C164.6,97.7 145.4,78.4 121.7,78.4 Z" id="Path" fill="#383A48"></path>
                </g>
                <g transform="translate(0.000000, 12.000000)">
                    <g transform="translate(233.000000, 0.000000)">
                        <path d="M238.3,238.4 C238.3,367 134.1,471.3 5.6,471.6 L5.2,238.4 L5.2,5.2 C134,5.2 238.3,109.6 238.3,238.4 Z" id="Path" fill="#E0719E"></path>
                        <path d="M5.6,476.6 C2.8,476.6 0.6,474.4 0.6,471.6 L0.2,238.4 L0.2,5.2 C0.2,2.4 2.4,0.2 5.2,0.2 C68.8,0.2 128.6,25 173.6,70 C218.6,115 243.4,174.8 243.4,238.4 C243.4,301.9 218.7,361.7 173.8,406.7 C128.8,451.6 69.1,476.4 5.6,476.6 L5.6,476.6 Z M10.2,10.3 L10.2,238.4 L10.6,466.5 C69.6,465.1 124.8,441.5 166.7,399.6 C209.7,356.5 233.4,299.3 233.4,238.4 C233.4,177.5 209.7,120.2 166.6,77.1 C124.6,35.2 69.3,11.6 10.2,10.3 Z" id="Shape" fill="#383A48"></path>
                    </g>
                    <g>
                        <path d="M238.6,471.6 L238.2,471.6 C225.2,471.6 212.4,470.5 199.9,468.5 C199.1,468.4 198.4,468.2 197.6,468.1 C195.9,467.8 194.2,467.5 192.6,467.1 C158.6,460.4 127.3,446.3 100.4,426.5 C99.7,426 99,425.4 98.3,424.9 C97.6,424.4 96.9,423.8 96.2,423.3 C95.5,422.8 94.8,422.2 94.1,421.7 C86.4,415.6 79.1,409.1 72.3,402.1 C30.6,360 5,302.2 5,238.4 C5,209.9 10.1,182.5 19.5,157.3 C31.3,125.5 49.8,97.1 73.3,73.6 L73.3,73.6 C115.5,31.4 173.8,5.3 238.2,5.3 L238.2,238.4 L238.6,471.6 Z" id="Path" fill="#AAC6FC"></path>
                        <path d="M238.6,476.6 L238.2,476.6 C225.1,476.6 211.9,475.5 199.1,473.4 C198.3,473.3 197.5,473.1 196.7,473 C195,472.7 193.3,472.4 191.6,472 C157.3,465.2 125.6,451.2 97.4,430.5 L95.2,428.9 C94.7,428.5 94.2,428.1 93.7,427.8 L93.1,427.3 C92.4,426.7 91.7,426.2 90.9,425.6 C83.1,419.5 75.6,412.7 68.6,405.6 C24.4,360.7 0,301.4 0,238.4 C0,209.9 5,182 14.8,155.5 C26.6,123.7 45.6,94.1 69.7,70 C69.8,69.9 69.8,69.9 69.9,69.8 C114.9,24.9 174.6,0.2 238.1,0.2 C240.9,0.2 243.1,2.4 243.1,5.2 L243.1,238.3 L243.5,471.5 C243.5,472.8 243,474.1 242,475 C241,475.9 239.9,476.6 238.6,476.6 Z M76.7,77.3 C53.7,100.4 35.5,128.6 24.3,159 C14.9,184.4 10.1,211.1 10.1,238.4 C10.1,298.7 33.4,355.6 75.8,398.6 C82.5,405.4 89.7,411.9 97.2,417.7 C97.9,418.2 98.6,418.8 99.3,419.3 L99.9,419.8 C100.4,420.2 100.8,420.5 101.3,420.9 L103.4,422.5 C130.4,442.3 160.8,455.7 193.6,462.2 C195.2,462.5 196.9,462.8 198.5,463.1 C199.2,463.2 200,463.4 200.7,463.5 C211.5,465.3 222.6,466.3 233.6,466.5 L233.2,238.4 L233.2,10.3 C174.1,11.6 118.8,35.2 76.9,77.1 C76.8,77.1 76.7,77.2 76.7,77.3 Z" id="Shape" fill="#383A48"></path>
                    </g>
                    <g transform="translate(14.000000, 0.000000)">
                        <path d="M224.2,5.2 L224.2,238.3 L5.5,157.2 C17.3,125.4 35.8,97 59.3,73.5 L59.3,73.5 C101.5,31.3 159.8,5.2 224.2,5.2 Z" id="Path" fill="#F6E049"></path>
                        <path d="M224.2,243.4 C223.6,243.4 223,243.3 222.5,243.1 L3.9,162 C2.7,161.5 1.6,160.6 1.1,159.4 C0.6,158.2 0.5,156.8 1,155.6 C12.8,123.8 31.8,94.2 55.9,70.1 C56,70 56,70 56.1,69.9 C101.1,25 160.8,0.3 224.3,0.3 C227.1,0.3 229.3,2.5 229.3,5.3 L229.3,238.4 C229.3,240 228.5,241.6 227.2,242.5 C226.2,243.1 225.2,243.4 224.2,243.4 Z M12,154.3 L219.2,231.2 L219.2,10.3 C160.1,11.6 104.8,35.2 62.9,77.1 C62.8,77.2 62.8,77.2 62.7,77.3 C40.8,99.1 23.4,125.7 12,154.3 Z" id="Shape" fill="#383A48"></path>
                    </g>
                    <g transform="translate(67.000000, 233.000000)">
                        <path d="M171.6,238.6 L171.6,238.6 C158.5,238.7 145.6,237.6 132.9,235.5 C132.1,235.4 131.4,235.2 130.6,235.1 C111.1,231.6 92.2,225.7 74.4,217.6 L74.4,217.6 C60,211 46.2,203 33.3,193.6 C32.6,193.1 31.9,192.5 31.2,192 C30.5,191.5 29.8,190.9 29.1,190.4 C28.4,189.9 27.7,189.3 27,188.8 C19.3,182.8 12,176.3 5.1,169.3 L5.1,169.3 L171.2,5.6 L171.6,238.6 Z" id="Path" fill="#F3F6E6"></path>
                        <path d="M171.3,243.6 C158.2,243.6 145,242.5 132.1,240.3 C131.3,240.2 130.5,240 129.7,239.9 C109.9,236.4 90.6,230.4 72.3,222 C72.2,222 72.1,221.9 72,221.9 C57.4,215.2 43.3,207 30.3,197.5 L28.1,195.9 C27.6,195.5 27.1,195.1 26.6,194.8 L26,194.3 C25.3,193.7 24.6,193.2 23.8,192.6 C16,186.4 8.5,179.7 1.5,172.6 C0.6,171.6 6.17006446e-14,170.4 0.1,169 C0.1,167.7 0.7,166.4 1.6,165.5 L167.6,1.8 C169,0.4 171.2,0 173,0.7 C174.9,1.5 176.1,3.3 176.1,5.3 L176.5,238.5 L176.5,238.5 L176.5,238.6 C176.5,241.4 174.3,243.6 171.5,243.6 C171.5,243.6 171.4,243.6 171.3,243.6 Z M76.7,213.1 C94.2,221.1 112.6,226.8 131.5,230.1 C132.2,230.2 133,230.4 133.7,230.5 C144.6,232.3 155.6,233.4 166.6,233.6 L166.2,17.4 L12.2,169.2 C17.9,174.7 23.9,179.9 30,184.8 C30.7,185.3 31.4,185.9 32.1,186.4 L32.7,186.9 C33.2,187.3 33.6,187.6 34.1,188 L36.2,189.6 C48.7,198.7 62.2,206.6 76.3,213.1 C76.5,213 76.6,213 76.7,213.1 Z" id="Shape" fill="#383A48"></path>
                    </g>
                    <rect id="Rectangle" fill="#383A48" transform="translate(349.199950, 274.050850) rotate(-72.199229) translate(-349.199950, -274.050850) " x="344.200083" y="157.453946" width="9.9997345" height="233.193808"></rect>
                </g>
                <g transform="translate(455.000000, 532.000000)" fill="#383A48">
                    <circle id="Oval" cx="16.3" cy="17.2" r="11.3"></circle>
                    <path d="M16.3,33.5 C7.3,33.5 0,26.2 0,17.2 C0,8.2 7.3,0.9 16.3,0.9 C25.3,0.9 32.6,8.2 32.6,17.2 C32.6,26.2 25.3,33.5 16.3,33.5 Z M16.3,10.9 C12.8,10.9 10,13.7 10,17.2 C10,20.7 12.8,23.5 16.3,23.5 C19.8,23.5 22.6,20.7 22.6,17.2 C22.6,13.7 19.8,10.9 16.3,10.9 Z" id="Shape"></path>
                </g>
                <g transform="translate(688.000000, 234.000000)" fill="#383A48">
                    <circle id="Oval" cx="16.6" cy="16.4" r="11.3"></circle>
                    <path d="M16.6,32.7 C7.6,32.7 0.3,25.4 0.3,16.4 C0.3,7.4 7.6,0.1 16.6,0.1 C25.6,0.1 32.9,7.4 32.9,16.4 C32.9,25.4 25.5,32.7 16.6,32.7 Z M16.6,10.1 C13.1,10.1 10.3,12.9 10.3,16.4 C10.3,19.9 13.1,22.7 16.6,22.7 C20.1,22.7 22.9,19.9 22.9,16.4 C22.9,12.9 20,10.1 16.6,10.1 Z" id="Shape"></path>
                </g>
                <g transform="translate(804.000000, 350.000000)" fill="#383A48">
                    <circle id="Oval" cx="17.1" cy="16.8" r="11.3"></circle>
                    <path d="M17.1,33.1 C8.1,33.1 0.8,25.8 0.8,16.8 C0.8,7.8 8.1,0.5 17.1,0.5 C26.1,0.5 33.4,7.8 33.4,16.8 C33.4,25.8 26.1,33.1 17.1,33.1 Z M17.1,10.5 C13.6,10.5 10.8,13.3 10.8,16.8 C10.8,20.3 13.6,23.1 17.1,23.1 C20.6,23.1 23.4,20.3 23.4,16.8 C23.4,13.3 20.5,10.5 17.1,10.5 Z" id="Shape"></path>
                </g>
                <g transform="translate(921.000000, 234.000000)" fill="#383A48">
                    <circle id="Oval" cx="16.8" cy="16.4" r="11.3"></circle>
                    <path d="M16.8,32.7 C7.8,32.7 0.5,25.4 0.5,16.4 C0.5,7.4 7.8,0.1 16.8,0.1 C25.8,0.1 33.1,7.4 33.1,16.4 C33.1,25.4 25.8,32.7 16.8,32.7 Z M16.8,10.1 C13.3,10.1 10.5,12.9 10.5,16.4 C10.5,19.9 13.3,22.7 16.8,22.7 C20.3,22.7 23.1,19.9 23.1,16.4 C23.1,12.9 20.3,10.1 16.8,10.1 Z" id="Shape"></path>
                </g>
                <g transform="translate(1037.000000, 117.000000)" fill="#383A48">
                    <circle id="Oval" cx="17.2" cy="16.8" r="11.3"></circle>
                    <path d="M17.2,33.1 C8.2,33.1 0.9,25.8 0.9,16.8 C0.9,7.8 8.2,0.5 17.2,0.5 C26.2,0.5 33.5,7.8 33.5,16.8 C33.5,25.8 26.2,33.1 17.2,33.1 Z M17.2,10.5 C13.7,10.5 10.9,13.3 10.9,16.8 C10.9,20.3 13.7,23.1 17.2,23.1 C20.7,23.1 23.5,20.3 23.5,16.8 C23.5,13.3 20.7,10.5 17.2,10.5 Z" id="Shape"></path>
                </g>
                <g transform="translate(1037.000000, 0.000000)" fill="#383A48">
                    <circle id="Oval" cx="17.2" cy="17.2" r="11.3"></circle>
                    <path d="M17.2,33.5 C8.2,33.5 0.9,26.2 0.9,17.2 C0.9,8.2 8.2,0.9 17.2,0.9 C26.2,0.9 33.5,8.2 33.5,17.2 C33.5,26.2 26.2,33.5 17.2,33.5 Z M17.2,11 C13.7,11 10.9,13.8 10.9,17.3 C10.9,20.8 13.7,23.6 17.2,23.6 C20.7,23.6 23.5,20.8 23.5,17.3 C23.5,13.8 20.7,11 17.2,11 Z" id="Shape"></path>
                </g>
                <g transform="translate(921.000000, 117.000000)" fill="#F3F6E6">
                    <circle id="Oval" cx="16.8" cy="16.8" r="11.3"></circle>
                    <path d="M16.8,33.1 C7.8,33.1 0.5,25.8 0.5,16.8 C0.5,7.8 7.8,0.5 16.8,0.5 C25.8,0.5 33.1,7.8 33.1,16.8 C33.1,25.8 25.8,33.1 16.8,33.1 Z M16.8,10.5 C13.3,10.5 10.5,13.3 10.5,16.8 C10.5,20.3 13.3,23.1 16.8,23.1 C20.3,23.1 23.1,20.3 23.1,16.8 C23.1,13.3 20.3,10.5 16.8,10.5 Z" id="Shape"></path>
                </g>
                <g transform="translate(688.000000, 467.000000)" fill="#F3F6E6">
                    <circle id="Oval" cx="16.6" cy="16.3" r="11.3"></circle>
                    <path d="M16.6,32.6 C7.6,32.6 0.3,25.3 0.3,16.3 C0.3,7.3 7.6,1.13686838e-13 16.6,1.13686838e-13 C25.6,1.13686838e-13 32.9,7.3 32.9,16.3 C32.9,25.3 25.5,32.6 16.6,32.6 Z M16.6,10 C13.1,10 10.3,12.8 10.3,16.3 C10.3,19.8 13.1,22.6 16.6,22.6 C20.1,22.6 22.9,19.8 22.9,16.3 C22.9,12.8 20,10 16.6,10 Z" id="Shape"></path>
                </g>
                <g transform="translate(804.000000, 234.000000)" fill="#F3F6E6">
                    <circle id="Oval" cx="17.1" cy="16.4" r="11.3"></circle>
                    <path d="M17.1,32.7 C8.1,32.7 0.8,25.4 0.8,16.4 C0.8,7.4 8.1,0.1 17.1,0.1 C26.1,0.1 33.4,7.4 33.4,16.4 C33.4,25.4 26.1,32.7 17.1,32.7 Z M17.1,10.1 C13.6,10.1 10.8,12.9 10.8,16.4 C10.8,19.9 13.6,22.7 17.1,22.7 C20.6,22.7 23.4,19.9 23.4,16.4 C23.4,12.9 20.5,10.1 17.1,10.1 Z" id="Shape"></path>
                </g>
                <g transform="translate(521.000000, 350.000000)" fill="#F3F6E6">
                    <circle id="Oval" cx="16.9" cy="16.8" r="11.3"></circle>
                    <path d="M16.9,33.1 C7.9,33.1 0.6,25.8 0.6,16.8 C0.6,7.8 7.9,0.5 16.9,0.5 C25.9,0.5 33.2,7.8 33.2,16.8 C33.2,25.8 25.9,33.1 16.9,33.1 Z M16.9,10.5 C13.4,10.5 10.6,13.3 10.6,16.8 C10.6,20.3 13.4,23.1 16.9,23.1 C20.4,23.1 23.2,20.3 23.2,16.8 C23.2,13.3 20.4,10.5 16.9,10.5 Z" id="Shape"></path>
                </g>
                <g transform="translate(582.000000, 12.000000)">
                    <path d="M64.2,121.8 L64.2,121.8 C32,121.8 5.9,95.7 5.9,63.5 L5.9,63.5 C5.9,31.3 32,5.2 64.2,5.2 L64.2,5.2 C96.4,5.2 122.5,31.3 122.5,63.5 L122.5,63.5 C122.5,95.7 96.4,121.8 64.2,121.8 Z" id="Path" fill="#F6E049"></path>
                    <path d="M64.2,126.8 C29.3,126.8 0.9,98.4 0.9,63.5 C0.9,28.6 29.3,0.2 64.2,0.2 C99.1,0.2 127.5,28.6 127.5,63.5 C127.5,98.4 99.1,126.8 64.2,126.8 Z M64.2,10.2 C34.8,10.2 10.9,34.1 10.9,63.5 C10.9,92.9 34.8,116.8 64.2,116.8 C93.6,116.8 117.5,92.9 117.5,63.5 C117.5,34.1 93.6,10.2 64.2,10.2 Z" id="Shape" fill="#383A48"></path>
                </g>
                <g transform="translate(1049.000000, 362.000000)">
                    <g>
                        <rect id="Rectangle" fill="#F3F6E6" x="5.2" y="5" width="416.7" height="349.7"></rect>
                        <path d="M422,359.7 L5.3,359.7 C2.5,359.7 0.3,357.5 0.3,354.7 L0.3,5 C0.3,2.2 2.5,0 5.3,0 L422,0 C424.8,0 427,2.2 427,5 L427,354.7 C427,357.5 424.7,359.7 422,359.7 Z M10.2,349.7 L417,349.7 L417,10 L10.3,10 L10.3,349.7 L10.2,349.7 Z" id="Shape" fill="#383A48"></path>
                    </g>
                    <g>
                        <polygon id="Path" fill="#F6E049" points="422 123.6 5.2 121.6 5.2 5 422 7"></polygon>
                        <path d="M422,128.6 L422,128.6 L5.2,126.6 C2.4,126.6 0.2,124.4 0.2,121.6 L0.2,5 C0.2,3.7 0.7,2.4 1.7,1.5 C2.6,0.6 3.9,0 5.2,0 L5.2,0 L421.9,2 C424.7,2 426.9,4.2 426.9,7 L426.9,123.6 C426.9,124.9 426.4,126.2 425.4,127.1 C424.6,128 423.3,128.6 422,128.6 Z M10.2,116.6 L416.9,118.6 L416.9,11.9 L10.2,9.9 L10.2,116.6 Z" id="Shape" fill="#383A48"></path>
                    </g>
                    <g transform="translate(43.000000, 44.000000)" fill="#383A48" id="Shape">
                        <path d="M20.8,40.4 C9.7,40.4 0.6,31.4 0.6,20.2 C0.6,9 9.6,-1.13686838e-13 20.8,-1.13686838e-13 C32,-1.13686838e-13 41,9 41,20.2 C41,31.4 31.9,40.4 20.8,40.4 Z M20.8,10.1 C15.2,10.1 10.6,14.7 10.6,20.3 C10.6,25.9 15.2,30.5 20.8,30.5 C26.4,30.5 31,25.9 31,20.3 C31,14.7 26.4,10.1 20.8,10.1 Z"></path>
                        <path d="M71.2,40.4 C60.1,40.4 51,31.4 51,20.2 C51,9 60,-1.13686838e-13 71.2,-1.13686838e-13 C82.4,-1.13686838e-13 91.4,9 91.4,20.2 C91.4,31.4 82.3,40.4 71.2,40.4 Z M71.2,10.1 C65.6,10.1 61,14.7 61,20.3 C61,25.9 65.6,30.5 71.2,30.5 C76.8,30.5 81.4,25.9 81.4,20.3 C81.3,14.7 76.8,10.1 71.2,10.1 Z"></path>
                        <path d="M121.6,40.4 C110.5,40.4 101.4,31.4 101.4,20.2 C101.4,9 110.4,-1.13686838e-13 121.6,-1.13686838e-13 C132.8,-1.13686838e-13 141.8,9 141.8,20.2 C141.8,31.4 132.7,40.4 121.6,40.4 Z M121.6,10.1 C116,10.1 111.4,14.7 111.4,20.3 C111.4,25.9 116,30.5 121.6,30.5 C127.2,30.5 131.8,25.9 131.8,20.3 C131.7,14.7 127.2,10.1 121.6,10.1 Z"></path>
                    </g>
                    <path d="M151.2,182.1 L166.4,169.6 L201,169.6 L211,182.1 L201,228.5 L185.8,241 L151.2,241 L141.1,228.5 L151.2,182.1 Z M281.2,170.7 L170.4,315.7 L145.9,315.7 L256.8,170.7 L281.2,170.7 Z M181.2,220.2 L187.7,189.5 L185.6,186.7 L175.6,186.7 L171,190.5 L164.6,221.2 L166.6,223.9 L176.6,223.9 L181.2,220.2 Z M226.1,258 L241.3,245.5 L275.9,245.5 L286,258 L275.9,304.3 L260.7,316.8 L226.1,316.8 L216,304.3 L226.1,258 Z M256.2,295.9 L262.6,265.2 L260.6,262.6 L250.5,262.6 L245.9,266.4 L239.5,297.1 L241.5,299.7 L251.6,299.7 L256.2,295.9 Z" id="Shape" fill="#383A48"></path>
                </g>
                <path d="M727.1,532.2 L730.9,514.9 L746.6,514.9 L757.5,487.9 L777.9,487.9 L767,515 L781.1,515 L791.9,488 L812.4,488 L801.5,515 L814.7,515 L810.9,532.3 L794.4,532.3 L786.4,552.7 L799.4,552.7 L795.6,570 L779.3,570 L768.6,597.2 L748.2,597.2 L759,570 L745,570 L734.2,597.2 L713.7,597.2 L724.6,570 L710.8,570 L714.6,552.7 L731.7,552.7 L739.7,532.3 L727.1,532.2 L727.1,532.2 Z M759.6,531.8 L751.3,553.2 L766.4,553.2 L774.5,531.8 L759.6,531.8 Z" id="Shape" fill="#383A48"></path>
                <path d="M238.2,600.7 C235.4,600.7 233.2,602.9 233.2,605.7 L233.2,716.7 C233.2,719.5 235.4,721.7 238.2,721.7 L349.2,721.7 C352,721.7 354.2,719.5 354.2,716.7 C354.2,652.7 302.2,600.7 238.2,600.7 Z" id="Path" fill="#F6E049"></path>
                <g transform="translate(1313.000000, 88.000000)" fill="#F3F6E6" id="Rectangle">
                    <rect x="12.2" y="0.5" width="10" height="33"></rect>
                    <rect x="0.7" y="12" width="33" height="10"></rect>
                </g>
                <g transform="translate(96.000000, 580.000000)" fill="#F3F6E6" id="Rectangle">
                    <rect x="12.1" y="0.7" width="10" height="33"></rect>
                    <rect x="0.6" y="12.1" width="33" height="10"></rect>
                </g>
                <g transform="translate(629.000000, 177.000000)" fill="#F3F6E6" id="Rectangle">
                    <rect x="12.2" y="0.5" width="10" height="33"></rect>
                    <rect x="0.7" y="12" width="33" height="10"></rect>
                </g>
            </g>
        </g>
    </g>
</svg>