<?xml version="1.0" encoding="utf-8"?>
<!-- Generator: Adobe Illustrator 22.0.1, SVG Export Plug-In . SVG Version: 6.00 Build 0)  -->
<svg version="1.1" id="Layer_1" xmlns="http://www.w3.org/2000/svg" xmlns:xlink="http://www.w3.org/1999/xlink" x="0px" y="0px" viewBox="0 0 1920 1080" style="enable-background:new 0 0 1920 1080;" xml:space="preserve">

<pattern x="1141.2" y="5392.8" width="24.7" height="24.7" patternUnits="userSpaceOnUse" id="New_Pattern" viewBox="0 -24.7 24.7 24.7" style="overflow:visible;">
	<g>
		<rect y="-24.7" width="24.7" height="24.7" style="fill:none;"/>
		<circle cx="12.3" cy="-12.3" r="5" style="fill:#383A48;"/>
	</g>
</pattern>
<rect width="1920" height="1080" style="fill:#AAC6FC;"/>
<g>
	<path d="M792.6,164.7H468.5c-109.8,0-198.8,89-198.8,198.8v242.2c24.5-45.1,96.3-183.6,180.9-198
		C672.6,370,579.4,252,792.6,164.7z" style="fill:#F3F6E6;stroke:#F3F6E6;stroke-width:10;stroke-linejoin:round;stroke-miterlimit:10;"/>
	<g>
		<line x1="980.8" y1="197" x2="1004.1" y2="220.3" style="fill:#383A48;stroke:#383A48;stroke-width:10;stroke-miterlimit:10;"/>
		<line x1="980.8" y1="220.3" x2="1004.1" y2="197" style="fill:#383A48;stroke:#383A48;stroke-width:10;stroke-miterlimit:10;"/>
	</g>
	<g>
		<line x1="457.6" y1="277.8" x2="480.9" y2="301.1" style="fill:#383A48;stroke:#383A48;stroke-width:10;stroke-miterlimit:10;"/>
		<line x1="457.6" y1="301.1" x2="480.9" y2="277.8" style="fill:#383A48;stroke:#383A48;stroke-width:10;stroke-miterlimit:10;"/>
	</g>
	<g>
		<path d="M1550,316.9c-5.8-85-76.6-152.2-163.1-152.2c-55.3,0-104.1,27.4-133.7,69.5c-20.9-17.1-47.7-27.4-76.9-27.4
			c-63.2,0-115.1,48.3-120.9,109.9h-2.2c-59.7,0-108,48.4-108,108v0c0,59.7,48.4,108,108,108h489c59.7,0,108-48.4,108-108v0
			C1650.3,367.6,1606.1,320.9,1550,316.9z" style="fill:#F3F6E6;stroke:#383A48;stroke-width:10;stroke-linejoin:round;stroke-miterlimit:10;"/>
		<pattern id="SVGID_1_" xlink:href="#New_Pattern" patternTransform="matrix(1.1311 0 0 1.1311 1099.8953 1923.5121)">
		</pattern>
		<path style="fill:url(#SVGID_1_);" d="M1650.3,424.6c0,59.7-48.4,108-108,108h-489c-29.8,0-56.8-12.1-76.4-31.6
			c-19.5-19.6-31.6-46.6-31.6-76.4c0-13.1,13.6-44.4,17.9-56c1.1,22.9,6.8,41.3,17.7,52.2c19.5,19.5,42.5,27.8,72.4,27.8h489
			c46.5,0,86.2-20.1,101.4-61.4C1648,398.9,1650.3,411.5,1650.3,424.6z"/>
		<line x1="1055.5" y1="316.6" x2="1072.4" y2="316.6" style="fill:#F3F6E6;stroke:#383A48;stroke-width:10;stroke-linecap:round;stroke-linejoin:round;stroke-miterlimit:10;"/>
		<line x1="1550" y1="316.9" x2="1550" y2="331.6" style="fill:#F3F6E6;stroke:#383A48;stroke-width:10;stroke-linecap:round;stroke-linejoin:round;stroke-miterlimit:10;"/>
		<line x1="1253.3" y1="234.2" x2="1263.6" y2="242.8" style="fill:#F3F6E6;stroke:#383A48;stroke-width:10;stroke-linecap:round;stroke-linejoin:round;stroke-miterlimit:10;"/>
	</g>
	<rect x="269.7" y="480.2" width="535.1" height="435.1" style="fill:#F3F6E6;stroke:#383A48;stroke-width:10;stroke-linejoin:round;stroke-miterlimit:10;"/>
	<rect x="269.7" y="480.2" width="67.1" height="125.5" style="fill:#AAC6FC;stroke:#383A48;stroke-width:10;stroke-linecap:round;stroke-linejoin:round;stroke-miterlimit:10;"/>
	<pattern id="SVGID_2_" xlink:href="#New_Pattern" patternTransform="matrix(1 0 0 1 7.7743 335.5546)">
	</pattern>
	
		<rect x="269.7" y="480.2" style="fill:url(#SVGID_2_);stroke:#383A48;stroke-width:10;stroke-linejoin:round;stroke-miterlimit:10;" width="535.1" height="435.1"/>
	<rect x="336.8" y="480.2" width="535.1" height="435.1" style="fill:#F3F6E6;stroke:#383A48;stroke-width:10;stroke-linejoin:round;stroke-miterlimit:10;"/>
	<path d="M871.9,708.4v206.9H767.4c-15,0-27.1-12.1-27.1-27.1V723c0-16.5,13.4-29.9,29.8-29.9h75.5
		c9.8,0,18.9,4.8,24.5,12.8L871.9,708.4z" style="fill:#383A48;stroke:#383A48;stroke-width:10;stroke-linecap:round;stroke-linejoin:round;stroke-miterlimit:10;"/>
	<rect x="336.8" y="480.2" width="535.2" height="125.5" style="fill:#AAC6FC;stroke:#383A48;stroke-width:10;stroke-linecap:round;stroke-linejoin:round;stroke-miterlimit:10;"/>
	<g>
		<g>
			<line x1="790.6" y1="531.3" x2="813.9" y2="554.6" style="fill:none;stroke:#383A48;stroke-width:10;stroke-miterlimit:10;"/>
			<line x1="790.6" y1="554.6" x2="813.9" y2="531.3" style="fill:none;stroke:#383A48;stroke-width:10;stroke-miterlimit:10;"/>
		</g>
		<rect x="740.3" y="530.2" width="25.5" height="25.5" style="fill:none;stroke:#383A48;stroke-width:10;stroke-miterlimit:10;"/>
		<line x1="715.1" y1="555.7" x2="689.7" y2="555.7" style="fill:none;stroke:#383A48;stroke-width:10;stroke-miterlimit:10;"/>
	</g>
	<path d="M790.6,669.6v165.2c0,15,12.1,27.1,27.1,27.1h221.4c15,0,27.1-12.1,27.1-27.1V715.1c0-15-12.1-27.1-27.1-27.1
		h-78.4c-9.8,0-18.9-4.8-24.5-12.8l-15.8-22.7c-5.6-8-14.7-12.8-24.5-12.8h-75.5C804,639.8,790.6,653.2,790.6,669.6z" style="fill:#F6E049;stroke:#383A48;stroke-width:10;stroke-linecap:round;stroke-linejoin:round;stroke-miterlimit:10;"/>
	<path d="M493.7,689.9v124c0,11.2,9.1,20.3,20.3,20.3h166.2c11.2,0,20.3-9.1,20.3-20.3V724c0-11.2-9.1-20.3-20.3-20.3
		h-58.8c-7.3,0-14.2-3.6-18.4-9.6l-11.9-17c-4.2-6-11.1-9.6-18.4-9.6h-56.7C503.7,667.5,493.7,677.5,493.7,689.9z" style="fill:#AAC6FC;stroke:#383A48;stroke-width:10;stroke-linecap:round;stroke-linejoin:round;stroke-miterlimit:10;"/>
	<path d="M1123.7,776.7c125.3-1.2,150.8-108.7,133.8-157.6c-12-34.4-55.6-11.7-33.6,17.6
		c52.4,69.7,175.6,61.1,160-50.7" style="fill:#AAC6FC;stroke:#383A48;stroke-width:10;stroke-linecap:round;stroke-linejoin:round;stroke-miterlimit:10;"/>
	<path d="M1122.8,730.4c15.5-0.3,29.5-2.2,42.1-5.4" style="fill:#AAC6FC;stroke:#383A48;stroke-width:10;stroke-linecap:round;stroke-linejoin:round;stroke-miterlimit:10;"/>
	<path d="M1650.3,624v291.3h-501.8c128.2-29.4,192.1-109.6,269.1-146.4c19.1-9.1,39.1-15.6,61-18
		c42-4.5,75.6-21.4,101.5-41.4C1628.5,672.2,1650.3,624,1650.3,624z" style="fill:#F3F6E6;stroke:#F3F6E6;stroke-width:10;stroke-linejoin:round;stroke-miterlimit:10;"/>
	<path d="M1580.2,709.4c-26,20-59.6,36.9-101.5,41.4c-21.9,2.4-41.9,8.8-61,18c-1.8-7-2.8-14.3-2.8-21.9
		c0-48,38.9-86.9,86.9-86.9C1536.3,660.1,1566.2,680.2,1580.2,709.4z" style="fill:#4053FA;stroke:#4053FA;stroke-width:10;stroke-linejoin:round;stroke-miterlimit:10;"/>
	<path d="M1588.7,747c0,48-38.9,86.9-86.9,86.9c-40.5,0-74.4-27.6-84.1-65.1c19.1-9.1,39.1-15.6,61-18
		c42-4.5,75.6-21.4,101.5-41.4C1585.6,720.8,1588.7,733.6,1588.7,747z" style="fill:#AAC6FC;stroke:#AAC6FC;stroke-width:10;stroke-linejoin:round;stroke-miterlimit:10;"/>
	<polygon points="813.9,281.6 823,304.6 846.6,297.3 834.3,318.7 854.6,332.7 830.2,336.4 832,361 813.9,344.3 
		795.8,361 797.6,336.4 773.1,332.7 793.5,318.7 781.2,297.3 804.8,304.6 	" style="fill:#F6E049;stroke:#F6E049;stroke-width:10;stroke-linecap:round;stroke-linejoin:round;stroke-miterlimit:10;"/>
	<line x1="269.7" y1="164.7" x2="369.8" y2="264.8" style="fill:#4053FA;stroke:#4053FA;stroke-width:10;stroke-linejoin:round;stroke-miterlimit:10;"/>
</g>
</svg>
