<?xml version="1.0" encoding="utf-8"?>
<!-- Generator: Adobe Illustrator 22.0.1, SVG Export Plug-In . SVG Version: 6.00 Build 0)  -->
<svg version="1.1" id="Layer_1" xmlns="http://www.w3.org/2000/svg" xmlns:xlink="http://www.w3.org/1999/xlink" x="0px" y="0px" viewBox="0 0 1920 1080" style="enable-background:new 0 0 1920 1080;" xml:space="preserve">

<rect y="0" width="1920" height="1080" style="fill:#AAC6FC;"/>
<g>
	<path d="M454.3,891.5L297.8,728.7c-1.4-1.5-3.6-1.9-5.5-1.2c-1.9,0.8-3.1,2.6-3.1,4.6V895c0,2.8,2.2,5,5,5h156.6
		c2,0,3.8-1.2,4.6-3C456.1,895.1,455.7,892.9,454.3,891.5z" style="fill:#F6E049;"/>
	<g>
		<g>
			<circle cx="755.6" cy="447.9" r="5" style="fill:#383A48;"/>
		</g>
	</g>
	<g>
		<g>
			<circle cx="731" cy="423.3" r="5" style="fill:#383A48;"/>
		</g>
	</g>
	<g>
		<g>
			<circle cx="731" cy="447.9" r="5" style="fill:#383A48;"/>
		</g>
	</g>
	<g>
		<g>
			<circle cx="706.3" cy="423.3" r="5" style="fill:#383A48;"/>
		</g>
	</g>
	<g>
		<g>
			<circle cx="706.3" cy="447.9" r="5" style="fill:#383A48;"/>
		</g>
	</g>
	<g>
		<g>
			<circle cx="681.6" cy="423.3" r="5" style="fill:#383A48;"/>
		</g>
	</g>
	<g>
		<g>
			<circle cx="681.6" cy="447.9" r="5" style="fill:#383A48;"/>
		</g>
	</g>
	<g>
		<g>
			<circle cx="657" cy="423.3" r="5" style="fill:#383A48;"/>
		</g>
	</g>
	<g>
		<g>
			<circle cx="657" cy="447.9" r="5" style="fill:#383A48;"/>
		</g>
	</g>
	<g>
		<g>
			<circle cx="632.3" cy="423.3" r="5" style="fill:#383A48;"/>
		</g>
	</g>
	<g>
		<g>
			<circle cx="632.3" cy="447.9" r="5" style="fill:#383A48;"/>
		</g>
	</g>
	<g>
		<g>
			<circle cx="607.6" cy="423.3" r="5" style="fill:#383A48;"/>
		</g>
	</g>
	<g>
		<g>
			<circle cx="607.6" cy="447.9" r="5" style="fill:#383A48;"/>
		</g>
	</g>
	<g>
		<g>
			<circle cx="583" cy="423.3" r="5" style="fill:#383A48;"/>
		</g>
	</g>
	<g>
		<g>
			<circle cx="583" cy="447.9" r="5" style="fill:#383A48;"/>
		</g>
	</g>
	<g>
		<g>
			<circle cx="558.3" cy="423.3" r="5" style="fill:#383A48;"/>
		</g>
	</g>
	<g>
		<g>
			<circle cx="558.3" cy="447.9" r="5" style="fill:#383A48;"/>
		</g>
	</g>
	<g>
		<g>
			<circle cx="533.6" cy="423.3" r="5" style="fill:#383A48;"/>
		</g>
	</g>
	<g>
		<g>
			<circle cx="533.6" cy="447.9" r="5" style="fill:#383A48;"/>
		</g>
	</g>
	<g>
		<g>
			<circle cx="509" cy="423.3" r="5" style="fill:#383A48;"/>
		</g>
	</g>
	<g>
		<g>
			<circle cx="509" cy="447.9" r="5" style="fill:#383A48;"/>
		</g>
	</g>
	<g>
		<g>
			<circle cx="484.3" cy="423.3" r="5" style="fill:#383A48;"/>
		</g>
	</g>
	<g>
		<g>
			<circle cx="484.3" cy="447.9" r="5" style="fill:#383A48;"/>
		</g>
	</g>
	<g>
		<g>
			<g>
				<circle cx="854.3" cy="521.9" r="5" style="fill:#383A48;"/>
			</g>
		</g>
		<g>
			<g>
				<circle cx="854.3" cy="546.6" r="5" style="fill:#383A48;"/>
			</g>
		</g>
		<g>
			<g>
				<circle cx="854.3" cy="571.3" r="5" style="fill:#383A48;"/>
			</g>
		</g>
		<g>
			<g>
				<circle cx="854.3" cy="595.9" r="5" style="fill:#383A48;"/>
			</g>
		</g>
		<g>
			<g>
				<circle cx="854.3" cy="620.6" r="5" style="fill:#383A48;"/>
			</g>
		</g>
		<g>
			<g>
				<circle cx="854.3" cy="645.3" r="5" style="fill:#383A48;"/>
			</g>
		</g>
		<g>
			<g>
				<circle cx="854.3" cy="669.9" r="5" style="fill:#383A48;"/>
			</g>
		</g>
		<g>
			<g>
				<circle cx="854.3" cy="694.6" r="5" style="fill:#383A48;"/>
			</g>
		</g>
		<g>
			<g>
				<circle cx="854.3" cy="719.3" r="5" style="fill:#383A48;"/>
			</g>
		</g>
		<g>
			<g>
				<circle cx="854.3" cy="743.9" r="5" style="fill:#383A48;"/>
			</g>
		</g>
		<g>
			<g>
				<circle cx="854.3" cy="768.6" r="5" style="fill:#383A48;"/>
			</g>
		</g>
		<g>
			<g>
				<circle cx="854.3" cy="793.3" r="5" style="fill:#383A48;"/>
			</g>
		</g>
		<g>
			<g>
				<circle cx="854.3" cy="817.9" r="5" style="fill:#383A48;"/>
			</g>
		</g>
		<g>
			<g>
				<circle cx="854.3" cy="842.6" r="5" style="fill:#383A48;"/>
			</g>
		</g>
		<g>
			<g>
				<circle cx="854.3" cy="867.3" r="5" style="fill:#383A48;"/>
			</g>
		</g>
		<g>
			<g>
				<circle cx="854.3" cy="891.9" r="5" style="fill:#383A48;"/>
			</g>
		</g>
		<g>
			<g>
				<circle cx="829.6" cy="497.3" r="5" style="fill:#383A48;"/>
			</g>
		</g>
		<g>
			<g>
				<circle cx="829.6" cy="521.9" r="5" style="fill:#383A48;"/>
			</g>
		</g>
		<g>
			<g>
				<circle cx="829.6" cy="546.6" r="5" style="fill:#383A48;"/>
			</g>
		</g>
		<g>
			<g>
				<circle cx="829.6" cy="571.3" r="5" style="fill:#383A48;"/>
			</g>
		</g>
		<g>
			<g>
				<circle cx="829.6" cy="595.9" r="5" style="fill:#383A48;"/>
			</g>
		</g>
		<g>
			<g>
				<circle cx="829.6" cy="620.6" r="5" style="fill:#383A48;"/>
			</g>
		</g>
		<g>
			<g>
				<circle cx="829.6" cy="645.3" r="5" style="fill:#383A48;"/>
			</g>
		</g>
		<g>
			<g>
				<circle cx="829.6" cy="669.9" r="5" style="fill:#383A48;"/>
			</g>
		</g>
		<g>
			<g>
				<circle cx="829.6" cy="694.6" r="5" style="fill:#383A48;"/>
			</g>
		</g>
		<g>
			<g>
				<circle cx="829.6" cy="719.3" r="5" style="fill:#383A48;"/>
			</g>
		</g>
		<g>
			<g>
				<circle cx="829.6" cy="743.9" r="5" style="fill:#383A48;"/>
			</g>
		</g>
		<g>
			<g>
				<circle cx="829.6" cy="768.6" r="5" style="fill:#383A48;"/>
			</g>
		</g>
		<g>
			<g>
				<circle cx="829.6" cy="793.3" r="5" style="fill:#383A48;"/>
			</g>
		</g>
		<g>
			<g>
				<circle cx="829.6" cy="817.9" r="5" style="fill:#383A48;"/>
			</g>
		</g>
		<g>
			<g>
				<circle cx="829.6" cy="842.6" r="5" style="fill:#383A48;"/>
			</g>
		</g>
		<g>
			<g>
				<circle cx="829.6" cy="867.3" r="5" style="fill:#383A48;"/>
			</g>
		</g>
		<g>
			<g>
				<circle cx="829.6" cy="891.9" r="5" style="fill:#383A48;"/>
			</g>
		</g>
		<g>
			<g>
				<circle cx="805" cy="497.3" r="5" style="fill:#383A48;"/>
			</g>
		</g>
		<g>
			<g>
				<circle cx="805" cy="521.9" r="5" style="fill:#383A48;"/>
			</g>
		</g>
		<g>
			<g>
				<circle cx="805" cy="546.6" r="5" style="fill:#383A48;"/>
			</g>
		</g>
		<g>
			<g>
				<circle cx="805" cy="571.3" r="5" style="fill:#383A48;"/>
			</g>
		</g>
		<g>
			<g>
				<circle cx="805" cy="595.9" r="5" style="fill:#383A48;"/>
			</g>
		</g>
		<g>
			<g>
				<circle cx="805" cy="620.6" r="5" style="fill:#383A48;"/>
			</g>
		</g>
		<g>
			<g>
				<circle cx="805" cy="645.3" r="5" style="fill:#383A48;"/>
			</g>
		</g>
		<g>
			<g>
				<circle cx="805" cy="669.9" r="5" style="fill:#383A48;"/>
			</g>
		</g>
		<g>
			<g>
				<circle cx="805" cy="694.6" r="5" style="fill:#383A48;"/>
			</g>
		</g>
		<g>
			<g>
				<circle cx="805" cy="719.3" r="5" style="fill:#383A48;"/>
			</g>
		</g>
		<g>
			<g>
				<circle cx="805" cy="743.9" r="5" style="fill:#383A48;"/>
			</g>
		</g>
		<g>
			<g>
				<circle cx="805" cy="768.6" r="5" style="fill:#383A48;"/>
			</g>
		</g>
		<g>
			<g>
				<circle cx="805" cy="793.3" r="5" style="fill:#383A48;"/>
			</g>
		</g>
		<g>
			<g>
				<circle cx="805" cy="817.9" r="5" style="fill:#383A48;"/>
			</g>
		</g>
		<g>
			<g>
				<circle cx="805" cy="842.6" r="5" style="fill:#383A48;"/>
			</g>
		</g>
		<g>
			<g>
				<circle cx="805" cy="867.3" r="5" style="fill:#383A48;"/>
			</g>
		</g>
		<g>
			<g>
				<circle cx="805" cy="891.9" r="5" style="fill:#383A48;"/>
			</g>
		</g>
		<g>
			<g>
				<circle cx="780.3" cy="472.6" r="5" style="fill:#383A48;"/>
			</g>
		</g>
		<g>
			<g>
				<circle cx="780.3" cy="497.3" r="5" style="fill:#383A48;"/>
			</g>
		</g>
		<g>
			<g>
				<circle cx="780.3" cy="521.9" r="5" style="fill:#383A48;"/>
			</g>
		</g>
		<g>
			<g>
				<circle cx="780.3" cy="546.6" r="5" style="fill:#383A48;"/>
			</g>
		</g>
		<g>
			<g>
				<circle cx="780.3" cy="571.3" r="5" style="fill:#383A48;"/>
			</g>
		</g>
		<g>
			<g>
				<circle cx="780.3" cy="595.9" r="5" style="fill:#383A48;"/>
			</g>
		</g>
		<g>
			<g>
				<circle cx="780.3" cy="620.6" r="5" style="fill:#383A48;"/>
			</g>
		</g>
		<g>
			<g>
				<circle cx="780.3" cy="645.3" r="5" style="fill:#383A48;"/>
			</g>
		</g>
		<g>
			<g>
				<circle cx="780.3" cy="669.9" r="5" style="fill:#383A48;"/>
			</g>
		</g>
		<g>
			<g>
				<circle cx="780.3" cy="694.6" r="5" style="fill:#383A48;"/>
			</g>
		</g>
		<g>
			<g>
				<circle cx="780.3" cy="719.3" r="5" style="fill:#383A48;"/>
			</g>
		</g>
		<g>
			<g>
				<circle cx="780.3" cy="743.9" r="5" style="fill:#383A48;"/>
			</g>
		</g>
		<g>
			<g>
				<circle cx="780.3" cy="768.6" r="5" style="fill:#383A48;"/>
			</g>
		</g>
		<g>
			<g>
				<circle cx="780.3" cy="793.3" r="5" style="fill:#383A48;"/>
			</g>
		</g>
		<g>
			<g>
				<circle cx="780.3" cy="817.9" r="5" style="fill:#383A48;"/>
			</g>
		</g>
		<g>
			<g>
				<circle cx="780.3" cy="842.6" r="5" style="fill:#383A48;"/>
			</g>
		</g>
		<g>
			<g>
				<circle cx="780.3" cy="867.3" r="5" style="fill:#383A48;"/>
			</g>
		</g>
		<g>
			<g>
				<circle cx="780.3" cy="891.9" r="5" style="fill:#383A48;"/>
			</g>
		</g>
		<g>
			<g>
				<circle cx="755.6" cy="472.6" r="5" style="fill:#383A48;"/>
			</g>
		</g>
		<g>
			<g>
				<circle cx="755.6" cy="497.3" r="5" style="fill:#383A48;"/>
			</g>
		</g>
		<g>
			<g>
				<circle cx="755.6" cy="521.9" r="5" style="fill:#383A48;"/>
			</g>
		</g>
		<g>
			<g>
				<circle cx="755.6" cy="546.6" r="5" style="fill:#383A48;"/>
			</g>
		</g>
		<g>
			<g>
				<circle cx="755.6" cy="571.3" r="5" style="fill:#383A48;"/>
			</g>
		</g>
		<g>
			<g>
				<circle cx="755.6" cy="595.9" r="5" style="fill:#383A48;"/>
			</g>
		</g>
		<g>
			<g>
				<circle cx="755.6" cy="620.6" r="5" style="fill:#383A48;"/>
			</g>
		</g>
		<g>
			<g>
				<circle cx="755.6" cy="645.3" r="5" style="fill:#383A48;"/>
			</g>
		</g>
		<g>
			<g>
				<circle cx="755.6" cy="669.9" r="5" style="fill:#383A48;"/>
			</g>
		</g>
		<g>
			<g>
				<circle cx="755.6" cy="694.6" r="5" style="fill:#383A48;"/>
			</g>
		</g>
		<g>
			<g>
				<circle cx="755.6" cy="719.3" r="5" style="fill:#383A48;"/>
			</g>
		</g>
		<g>
			<g>
				<circle cx="755.6" cy="743.9" r="5" style="fill:#383A48;"/>
			</g>
		</g>
		<g>
			<g>
				<circle cx="755.6" cy="768.6" r="5" style="fill:#383A48;"/>
			</g>
		</g>
		<g>
			<g>
				<circle cx="755.6" cy="793.3" r="5" style="fill:#383A48;"/>
			</g>
		</g>
		<g>
			<g>
				<circle cx="755.6" cy="817.9" r="5" style="fill:#383A48;"/>
			</g>
		</g>
		<g>
			<g>
				<circle cx="755.6" cy="842.6" r="5" style="fill:#383A48;"/>
			</g>
		</g>
		<g>
			<g>
				<circle cx="755.6" cy="867.3" r="5" style="fill:#383A48;"/>
			</g>
		</g>
		<g>
			<g>
				<circle cx="755.6" cy="891.9" r="5" style="fill:#383A48;"/>
			</g>
		</g>
		<g>
			<g>
				<circle cx="731" cy="472.6" r="5" style="fill:#383A48;"/>
			</g>
		</g>
		<g>
			<g>
				<circle cx="731" cy="497.3" r="5" style="fill:#383A48;"/>
			</g>
		</g>
		<g>
			<g>
				<circle cx="731" cy="521.9" r="5" style="fill:#383A48;"/>
			</g>
		</g>
		<g>
			<g>
				<circle cx="731" cy="546.6" r="5" style="fill:#383A48;"/>
			</g>
		</g>
		<g>
			<g>
				<circle cx="731" cy="571.3" r="5" style="fill:#383A48;"/>
			</g>
		</g>
		<g>
			<g>
				<circle cx="731" cy="595.9" r="5" style="fill:#383A48;"/>
			</g>
		</g>
		<g>
			<g>
				<circle cx="731" cy="620.6" r="5" style="fill:#383A48;"/>
			</g>
		</g>
		<g>
			<g>
				<circle cx="731" cy="645.3" r="5" style="fill:#383A48;"/>
			</g>
		</g>
		<g>
			<g>
				<circle cx="731" cy="669.9" r="5" style="fill:#383A48;"/>
			</g>
		</g>
		<g>
			<g>
				<circle cx="731" cy="694.6" r="5" style="fill:#383A48;"/>
			</g>
		</g>
		<g>
			<g>
				<circle cx="731" cy="719.3" r="5" style="fill:#383A48;"/>
			</g>
		</g>
		<g>
			<g>
				<circle cx="731" cy="743.9" r="5" style="fill:#383A48;"/>
			</g>
		</g>
		<g>
			<g>
				<circle cx="731" cy="768.6" r="5" style="fill:#383A48;"/>
			</g>
		</g>
		<g>
			<g>
				<circle cx="731" cy="793.3" r="5" style="fill:#383A48;"/>
			</g>
		</g>
		<g>
			<g>
				<circle cx="731" cy="817.9" r="5" style="fill:#383A48;"/>
			</g>
		</g>
		<g>
			<g>
				<circle cx="731" cy="842.6" r="5" style="fill:#383A48;"/>
			</g>
		</g>
		<g>
			<g>
				<circle cx="731" cy="867.3" r="5" style="fill:#383A48;"/>
			</g>
		</g>
		<g>
			<g>
				<circle cx="731" cy="891.9" r="5" style="fill:#383A48;"/>
			</g>
		</g>
		<g>
			<g>
				<circle cx="706.3" cy="472.6" r="5" style="fill:#383A48;"/>
			</g>
		</g>
		<g>
			<g>
				<circle cx="706.3" cy="497.3" r="5" style="fill:#383A48;"/>
			</g>
		</g>
		<g>
			<g>
				<circle cx="706.3" cy="521.9" r="5" style="fill:#383A48;"/>
			</g>
		</g>
		<g>
			<g>
				<circle cx="706.3" cy="546.6" r="5" style="fill:#383A48;"/>
			</g>
		</g>
		<g>
			<g>
				<circle cx="706.3" cy="571.3" r="5" style="fill:#383A48;"/>
			</g>
		</g>
		<g>
			<g>
				<circle cx="706.3" cy="595.9" r="5" style="fill:#383A48;"/>
			</g>
		</g>
		<g>
			<g>
				<circle cx="706.3" cy="620.6" r="5" style="fill:#383A48;"/>
			</g>
		</g>
		<g>
			<g>
				<circle cx="706.3" cy="645.3" r="5" style="fill:#383A48;"/>
			</g>
		</g>
		<g>
			<g>
				<circle cx="706.3" cy="669.9" r="5" style="fill:#383A48;"/>
			</g>
		</g>
		<g>
			<g>
				<circle cx="706.3" cy="694.6" r="5" style="fill:#383A48;"/>
			</g>
		</g>
		<g>
			<g>
				<circle cx="706.3" cy="719.3" r="5" style="fill:#383A48;"/>
			</g>
		</g>
		<g>
			<g>
				<circle cx="706.3" cy="743.9" r="5" style="fill:#383A48;"/>
			</g>
		</g>
		<g>
			<g>
				<circle cx="706.3" cy="768.6" r="5" style="fill:#383A48;"/>
			</g>
		</g>
		<g>
			<g>
				<circle cx="706.3" cy="793.3" r="5" style="fill:#383A48;"/>
			</g>
		</g>
		<g>
			<g>
				<circle cx="706.3" cy="817.9" r="5" style="fill:#383A48;"/>
			</g>
		</g>
		<g>
			<g>
				<circle cx="706.3" cy="842.6" r="5" style="fill:#383A48;"/>
			</g>
		</g>
		<g>
			<g>
				<circle cx="706.3" cy="867.3" r="5" style="fill:#383A48;"/>
			</g>
		</g>
		<g>
			<g>
				<circle cx="706.3" cy="891.9" r="5" style="fill:#383A48;"/>
			</g>
		</g>
		<g>
			<g>
				<circle cx="681.6" cy="472.6" r="5" style="fill:#383A48;"/>
			</g>
		</g>
		<g>
			<g>
				<circle cx="681.6" cy="497.3" r="5" style="fill:#383A48;"/>
			</g>
		</g>
		<g>
			<g>
				<circle cx="681.6" cy="521.9" r="5" style="fill:#383A48;"/>
			</g>
		</g>
		<g>
			<g>
				<circle cx="681.6" cy="546.6" r="5" style="fill:#383A48;"/>
			</g>
		</g>
		<g>
			<g>
				<circle cx="681.6" cy="571.3" r="5" style="fill:#383A48;"/>
			</g>
		</g>
		<g>
			<g>
				<circle cx="681.6" cy="595.9" r="5" style="fill:#383A48;"/>
			</g>
		</g>
		<g>
			<g>
				<circle cx="681.6" cy="620.6" r="5" style="fill:#383A48;"/>
			</g>
		</g>
		<g>
			<g>
				<circle cx="681.6" cy="645.3" r="5" style="fill:#383A48;"/>
			</g>
		</g>
		<g>
			<g>
				<circle cx="681.6" cy="669.9" r="5" style="fill:#383A48;"/>
			</g>
		</g>
		<g>
			<g>
				<circle cx="681.6" cy="694.6" r="5" style="fill:#383A48;"/>
			</g>
		</g>
		<g>
			<g>
				<circle cx="681.6" cy="719.3" r="5" style="fill:#383A48;"/>
			</g>
		</g>
		<g>
			<g>
				<circle cx="681.6" cy="743.9" r="5" style="fill:#383A48;"/>
			</g>
		</g>
		<g>
			<g>
				<circle cx="681.6" cy="768.6" r="5" style="fill:#383A48;"/>
			</g>
		</g>
		<g>
			<g>
				<circle cx="681.6" cy="793.3" r="5" style="fill:#383A48;"/>
			</g>
		</g>
		<g>
			<g>
				<circle cx="681.6" cy="817.9" r="5" style="fill:#383A48;"/>
			</g>
		</g>
		<g>
			<g>
				<circle cx="681.6" cy="842.6" r="5" style="fill:#383A48;"/>
			</g>
		</g>
		<g>
			<g>
				<circle cx="681.6" cy="867.3" r="5" style="fill:#383A48;"/>
			</g>
		</g>
		<g>
			<g>
				<circle cx="681.6" cy="891.9" r="5" style="fill:#383A48;"/>
			</g>
		</g>
		<g>
			<g>
				<circle cx="657" cy="472.6" r="5" style="fill:#383A48;"/>
			</g>
		</g>
		<g>
			<g>
				<circle cx="657" cy="497.3" r="5" style="fill:#383A48;"/>
			</g>
		</g>
		<g>
			<g>
				<circle cx="657" cy="521.9" r="5" style="fill:#383A48;"/>
			</g>
		</g>
		<g>
			<g>
				<circle cx="657" cy="546.6" r="5" style="fill:#383A48;"/>
			</g>
		</g>
		<g>
			<g>
				<circle cx="657" cy="571.3" r="5" style="fill:#383A48;"/>
			</g>
		</g>
		<g>
			<g>
				<circle cx="657" cy="595.9" r="5" style="fill:#383A48;"/>
			</g>
		</g>
		<g>
			<g>
				<circle cx="657" cy="620.6" r="5" style="fill:#383A48;"/>
			</g>
		</g>
		<g>
			<g>
				<circle cx="657" cy="645.3" r="5" style="fill:#383A48;"/>
			</g>
		</g>
		<g>
			<g>
				<circle cx="657" cy="669.9" r="5" style="fill:#383A48;"/>
			</g>
		</g>
		<g>
			<g>
				<circle cx="657" cy="694.6" r="5" style="fill:#383A48;"/>
			</g>
		</g>
		<g>
			<g>
				<circle cx="657" cy="719.3" r="5" style="fill:#383A48;"/>
			</g>
		</g>
		<g>
			<g>
				<circle cx="657" cy="743.9" r="5" style="fill:#383A48;"/>
			</g>
		</g>
		<g>
			<g>
				<circle cx="657" cy="768.6" r="5" style="fill:#383A48;"/>
			</g>
		</g>
		<g>
			<g>
				<circle cx="657" cy="793.3" r="5" style="fill:#383A48;"/>
			</g>
		</g>
		<g>
			<g>
				<circle cx="657" cy="817.9" r="5" style="fill:#383A48;"/>
			</g>
		</g>
		<g>
			<g>
				<circle cx="657" cy="842.6" r="5" style="fill:#383A48;"/>
			</g>
		</g>
		<g>
			<g>
				<circle cx="657" cy="867.3" r="5" style="fill:#383A48;"/>
			</g>
		</g>
		<g>
			<g>
				<circle cx="657" cy="891.9" r="5" style="fill:#383A48;"/>
			</g>
		</g>
		<g>
			<g>
				<circle cx="632.3" cy="472.6" r="5" style="fill:#383A48;"/>
			</g>
		</g>
		<g>
			<g>
				<circle cx="632.3" cy="497.3" r="5" style="fill:#383A48;"/>
			</g>
		</g>
		<g>
			<g>
				<circle cx="632.3" cy="521.9" r="5" style="fill:#383A48;"/>
			</g>
		</g>
		<g>
			<g>
				<circle cx="632.3" cy="546.6" r="5" style="fill:#383A48;"/>
			</g>
		</g>
		<g>
			<g>
				<circle cx="632.3" cy="571.3" r="5" style="fill:#383A48;"/>
			</g>
		</g>
		<g>
			<g>
				<circle cx="632.3" cy="595.9" r="5" style="fill:#383A48;"/>
			</g>
		</g>
		<g>
			<g>
				<circle cx="632.3" cy="620.6" r="5" style="fill:#383A48;"/>
			</g>
		</g>
		<g>
			<g>
				<circle cx="632.3" cy="645.3" r="5" style="fill:#383A48;"/>
			</g>
		</g>
		<g>
			<g>
				<circle cx="632.3" cy="669.9" r="5" style="fill:#383A48;"/>
			</g>
		</g>
		<g>
			<g>
				<circle cx="632.3" cy="694.6" r="5" style="fill:#383A48;"/>
			</g>
		</g>
		<g>
			<g>
				<circle cx="632.3" cy="719.3" r="5" style="fill:#383A48;"/>
			</g>
		</g>
		<g>
			<g>
				<circle cx="632.3" cy="743.9" r="5" style="fill:#383A48;"/>
			</g>
		</g>
		<g>
			<g>
				<circle cx="632.3" cy="768.6" r="5" style="fill:#383A48;"/>
			</g>
		</g>
		<g>
			<g>
				<circle cx="632.3" cy="793.3" r="5" style="fill:#383A48;"/>
			</g>
		</g>
		<g>
			<g>
				<circle cx="632.3" cy="817.9" r="5" style="fill:#383A48;"/>
			</g>
		</g>
		<g>
			<g>
				<circle cx="632.3" cy="842.6" r="5" style="fill:#383A48;"/>
			</g>
		</g>
		<g>
			<g>
				<circle cx="632.3" cy="867.3" r="5" style="fill:#383A48;"/>
			</g>
		</g>
		<g>
			<g>
				<circle cx="632.3" cy="891.9" r="5" style="fill:#383A48;"/>
			</g>
		</g>
		<g>
			<g>
				<circle cx="607.6" cy="472.6" r="5" style="fill:#383A48;"/>
			</g>
		</g>
		<g>
			<g>
				<circle cx="607.6" cy="497.3" r="5" style="fill:#383A48;"/>
			</g>
		</g>
		<g>
			<g>
				<circle cx="607.6" cy="521.9" r="5" style="fill:#383A48;"/>
			</g>
		</g>
		<g>
			<g>
				<circle cx="607.6" cy="546.6" r="5" style="fill:#383A48;"/>
			</g>
		</g>
		<g>
			<g>
				<circle cx="607.6" cy="571.3" r="5" style="fill:#383A48;"/>
			</g>
		</g>
		<g>
			<g>
				<circle cx="607.6" cy="595.9" r="5" style="fill:#383A48;"/>
			</g>
		</g>
		<g>
			<g>
				<circle cx="607.6" cy="620.6" r="5" style="fill:#383A48;"/>
			</g>
		</g>
		<g>
			<g>
				<circle cx="607.6" cy="645.3" r="5" style="fill:#383A48;"/>
			</g>
		</g>
		<g>
			<g>
				<circle cx="607.6" cy="669.9" r="5" style="fill:#383A48;"/>
			</g>
		</g>
		<g>
			<g>
				<circle cx="607.6" cy="694.6" r="5" style="fill:#383A48;"/>
			</g>
		</g>
		<g>
			<g>
				<circle cx="607.6" cy="719.3" r="5" style="fill:#383A48;"/>
			</g>
		</g>
		<g>
			<g>
				<circle cx="607.6" cy="743.9" r="5" style="fill:#383A48;"/>
			</g>
		</g>
		<g>
			<g>
				<circle cx="607.6" cy="768.6" r="5" style="fill:#383A48;"/>
			</g>
		</g>
		<g>
			<g>
				<circle cx="607.6" cy="793.3" r="5" style="fill:#383A48;"/>
			</g>
		</g>
		<g>
			<g>
				<circle cx="607.6" cy="817.9" r="5" style="fill:#383A48;"/>
			</g>
		</g>
		<g>
			<g>
				<circle cx="607.6" cy="842.6" r="5" style="fill:#383A48;"/>
			</g>
		</g>
		<g>
			<g>
				<circle cx="607.6" cy="867.3" r="5" style="fill:#383A48;"/>
			</g>
		</g>
		<g>
			<g>
				<circle cx="607.6" cy="891.9" r="5" style="fill:#383A48;"/>
			</g>
		</g>
		<g>
			<g>
				<circle cx="583" cy="472.6" r="5" style="fill:#383A48;"/>
			</g>
		</g>
		<g>
			<g>
				<circle cx="583" cy="497.3" r="5" style="fill:#383A48;"/>
			</g>
		</g>
		<g>
			<g>
				<circle cx="583" cy="521.9" r="5" style="fill:#383A48;"/>
			</g>
		</g>
		<g>
			<g>
				<circle cx="583" cy="546.6" r="5" style="fill:#383A48;"/>
			</g>
		</g>
		<g>
			<g>
				<circle cx="583" cy="571.3" r="5" style="fill:#383A48;"/>
			</g>
		</g>
		<g>
			<g>
				<circle cx="583" cy="595.9" r="5" style="fill:#383A48;"/>
			</g>
		</g>
		<g>
			<g>
				<circle cx="583" cy="620.6" r="5" style="fill:#383A48;"/>
			</g>
		</g>
		<g>
			<g>
				<circle cx="583" cy="645.3" r="5" style="fill:#383A48;"/>
			</g>
		</g>
		<g>
			<g>
				<circle cx="583" cy="669.9" r="5" style="fill:#383A48;"/>
			</g>
		</g>
		<g>
			<g>
				<circle cx="583" cy="694.6" r="5" style="fill:#383A48;"/>
			</g>
		</g>
		<g>
			<g>
				<circle cx="583" cy="719.3" r="5" style="fill:#383A48;"/>
			</g>
		</g>
		<g>
			<g>
				<circle cx="583" cy="743.9" r="5" style="fill:#383A48;"/>
			</g>
		</g>
		<g>
			<g>
				<circle cx="583" cy="768.6" r="5" style="fill:#383A48;"/>
			</g>
		</g>
		<g>
			<g>
				<circle cx="583" cy="793.3" r="5" style="fill:#383A48;"/>
			</g>
		</g>
		<g>
			<g>
				<circle cx="583" cy="817.9" r="5" style="fill:#383A48;"/>
			</g>
		</g>
		<g>
			<g>
				<circle cx="583" cy="842.6" r="5" style="fill:#383A48;"/>
			</g>
		</g>
		<g>
			<g>
				<circle cx="583" cy="867.3" r="5" style="fill:#383A48;"/>
			</g>
		</g>
		<g>
			<g>
				<circle cx="583" cy="891.9" r="5" style="fill:#383A48;"/>
			</g>
		</g>
		<g>
			<g>
				<circle cx="558.3" cy="472.6" r="5" style="fill:#383A48;"/>
			</g>
		</g>
		<g>
			<g>
				<circle cx="558.3" cy="497.3" r="5" style="fill:#383A48;"/>
			</g>
		</g>
		<g>
			<g>
				<circle cx="558.3" cy="521.9" r="5" style="fill:#383A48;"/>
			</g>
		</g>
		<g>
			<g>
				<circle cx="558.3" cy="546.6" r="5" style="fill:#383A48;"/>
			</g>
		</g>
		<g>
			<g>
				<circle cx="558.3" cy="571.3" r="5" style="fill:#383A48;"/>
			</g>
		</g>
		<g>
			<g>
				<circle cx="558.3" cy="595.9" r="5" style="fill:#383A48;"/>
			</g>
		</g>
		<g>
			<g>
				<circle cx="558.3" cy="620.6" r="5" style="fill:#383A48;"/>
			</g>
		</g>
		<g>
			<g>
				<circle cx="558.3" cy="645.3" r="5" style="fill:#383A48;"/>
			</g>
		</g>
		<g>
			<g>
				<circle cx="558.3" cy="669.9" r="5" style="fill:#383A48;"/>
			</g>
		</g>
		<g>
			<g>
				<circle cx="558.3" cy="694.6" r="5" style="fill:#383A48;"/>
			</g>
		</g>
		<g>
			<g>
				<circle cx="558.3" cy="719.3" r="5" style="fill:#383A48;"/>
			</g>
		</g>
		<g>
			<g>
				<circle cx="558.3" cy="743.9" r="5" style="fill:#383A48;"/>
			</g>
		</g>
		<g>
			<g>
				<circle cx="558.3" cy="768.6" r="5" style="fill:#383A48;"/>
			</g>
		</g>
		<g>
			<g>
				<circle cx="558.3" cy="793.3" r="5" style="fill:#383A48;"/>
			</g>
		</g>
		<g>
			<g>
				<circle cx="558.3" cy="817.9" r="5" style="fill:#383A48;"/>
			</g>
		</g>
		<g>
			<g>
				<circle cx="558.3" cy="842.6" r="5" style="fill:#383A48;"/>
			</g>
		</g>
		<g>
			<g>
				<circle cx="558.3" cy="867.3" r="5" style="fill:#383A48;"/>
			</g>
		</g>
		<g>
			<g>
				<circle cx="558.3" cy="891.9" r="5" style="fill:#383A48;"/>
			</g>
		</g>
		<g>
			<g>
				<circle cx="533.6" cy="472.6" r="5" style="fill:#383A48;"/>
			</g>
		</g>
		<g>
			<g>
				<circle cx="533.6" cy="497.3" r="5" style="fill:#383A48;"/>
			</g>
		</g>
		<g>
			<g>
				<circle cx="533.6" cy="521.9" r="5" style="fill:#383A48;"/>
			</g>
		</g>
		<g>
			<g>
				<circle cx="533.6" cy="546.6" r="5" style="fill:#383A48;"/>
			</g>
		</g>
		<g>
			<g>
				<circle cx="533.6" cy="571.3" r="5" style="fill:#383A48;"/>
			</g>
		</g>
		<g>
			<g>
				<circle cx="533.6" cy="595.9" r="5" style="fill:#383A48;"/>
			</g>
		</g>
		<g>
			<g>
				<circle cx="533.6" cy="620.6" r="5" style="fill:#383A48;"/>
			</g>
		</g>
		<g>
			<g>
				<circle cx="533.6" cy="645.3" r="5" style="fill:#383A48;"/>
			</g>
		</g>
		<g>
			<g>
				<circle cx="533.6" cy="669.9" r="5" style="fill:#383A48;"/>
			</g>
		</g>
		<g>
			<g>
				<circle cx="533.6" cy="694.6" r="5" style="fill:#383A48;"/>
			</g>
		</g>
		<g>
			<g>
				<circle cx="533.6" cy="719.3" r="5" style="fill:#383A48;"/>
			</g>
		</g>
		<g>
			<g>
				<circle cx="533.6" cy="743.9" r="5" style="fill:#383A48;"/>
			</g>
		</g>
		<g>
			<g>
				<circle cx="533.6" cy="768.6" r="5" style="fill:#383A48;"/>
			</g>
		</g>
		<g>
			<g>
				<circle cx="533.6" cy="793.3" r="5" style="fill:#383A48;"/>
			</g>
		</g>
		<g>
			<g>
				<circle cx="533.6" cy="817.9" r="5" style="fill:#383A48;"/>
			</g>
		</g>
		<g>
			<g>
				<circle cx="533.6" cy="842.6" r="5" style="fill:#383A48;"/>
			</g>
		</g>
		<g>
			<g>
				<circle cx="533.6" cy="867.3" r="5" style="fill:#383A48;"/>
			</g>
		</g>
		<g>
			<g>
				<circle cx="533.6" cy="891.9" r="5" style="fill:#383A48;"/>
			</g>
		</g>
		<g>
			<g>
				<circle cx="509" cy="472.6" r="5" style="fill:#383A48;"/>
			</g>
		</g>
		<g>
			<g>
				<circle cx="509" cy="497.3" r="5" style="fill:#383A48;"/>
			</g>
		</g>
		<g>
			<g>
				<circle cx="509" cy="521.9" r="5" style="fill:#383A48;"/>
			</g>
		</g>
		<g>
			<g>
				<circle cx="509" cy="546.6" r="5" style="fill:#383A48;"/>
			</g>
		</g>
		<g>
			<g>
				<circle cx="509" cy="571.3" r="5" style="fill:#383A48;"/>
			</g>
		</g>
		<g>
			<g>
				<circle cx="509" cy="595.9" r="5" style="fill:#383A48;"/>
			</g>
		</g>
		<g>
			<g>
				<circle cx="509" cy="620.6" r="5" style="fill:#383A48;"/>
			</g>
		</g>
		<g>
			<g>
				<circle cx="509" cy="645.3" r="5" style="fill:#383A48;"/>
			</g>
		</g>
		<g>
			<g>
				<circle cx="509" cy="669.9" r="5" style="fill:#383A48;"/>
			</g>
		</g>
		<g>
			<g>
				<circle cx="509" cy="694.6" r="5" style="fill:#383A48;"/>
			</g>
		</g>
		<g>
			<g>
				<circle cx="509" cy="719.3" r="5" style="fill:#383A48;"/>
			</g>
		</g>
		<g>
			<g>
				<circle cx="509" cy="743.9" r="5" style="fill:#383A48;"/>
			</g>
		</g>
		<g>
			<g>
				<circle cx="509" cy="768.6" r="5" style="fill:#383A48;"/>
			</g>
		</g>
		<g>
			<g>
				<circle cx="509" cy="793.3" r="5" style="fill:#383A48;"/>
			</g>
		</g>
		<g>
			<g>
				<circle cx="509" cy="817.9" r="5" style="fill:#383A48;"/>
			</g>
		</g>
		<g>
			<g>
				<circle cx="509" cy="842.6" r="5" style="fill:#383A48;"/>
			</g>
		</g>
		<g>
			<g>
				<circle cx="509" cy="867.3" r="5" style="fill:#383A48;"/>
			</g>
		</g>
		<g>
			<g>
				<circle cx="509" cy="891.9" r="5" style="fill:#383A48;"/>
			</g>
		</g>
		<g>
			<g>
				<circle cx="484.3" cy="472.6" r="5" style="fill:#383A48;"/>
			</g>
		</g>
		<g>
			<g>
				<circle cx="484.3" cy="497.3" r="5" style="fill:#383A48;"/>
			</g>
		</g>
		<g>
			<g>
				<circle cx="484.3" cy="521.9" r="5" style="fill:#383A48;"/>
			</g>
		</g>
		<g>
			<g>
				<circle cx="484.3" cy="546.6" r="5" style="fill:#383A48;"/>
			</g>
		</g>
		<g>
			<g>
				<circle cx="484.3" cy="571.3" r="5" style="fill:#383A48;"/>
			</g>
		</g>
		<g>
			<g>
				<circle cx="484.3" cy="595.9" r="5" style="fill:#383A48;"/>
			</g>
		</g>
		<g>
			<g>
				<circle cx="484.3" cy="620.6" r="5" style="fill:#383A48;"/>
			</g>
		</g>
		<g>
			<g>
				<circle cx="484.3" cy="645.3" r="5" style="fill:#383A48;"/>
			</g>
		</g>
		<g>
			<g>
				<circle cx="484.3" cy="669.9" r="5" style="fill:#383A48;"/>
			</g>
		</g>
		<g>
			<g>
				<circle cx="484.3" cy="694.6" r="5" style="fill:#383A48;"/>
			</g>
		</g>
		<g>
			<g>
				<circle cx="484.3" cy="719.3" r="5" style="fill:#383A48;"/>
			</g>
		</g>
		<g>
			<g>
				<circle cx="484.3" cy="743.9" r="5" style="fill:#383A48;"/>
			</g>
		</g>
		<g>
			<g>
				<circle cx="484.3" cy="768.6" r="5" style="fill:#383A48;"/>
			</g>
		</g>
		<g>
			<g>
				<circle cx="484.3" cy="793.3" r="5" style="fill:#383A48;"/>
			</g>
		</g>
		<g>
			<g>
				<circle cx="484.3" cy="817.9" r="5" style="fill:#383A48;"/>
			</g>
		</g>
		<g>
			<g>
				<circle cx="484.3" cy="842.6" r="5" style="fill:#383A48;"/>
			</g>
		</g>
		<g>
			<g>
				<circle cx="484.3" cy="867.3" r="5" style="fill:#383A48;"/>
			</g>
		</g>
		<g>
			<g>
				<circle cx="484.3" cy="891.9" r="5" style="fill:#383A48;"/>
			</g>
		</g>
	</g>
	<path d="M1626.3,450c-2.6-0.2-4.9,1.6-5.3,4.2c-0.1,0.4-6.5,38.2-34,81c-16.1,25.1-36.2,47-59.6,65.1
		c-29.4,22.6-64.2,39.4-103.6,49.8c-88.2,23.3-108.9,59.6-130.8,98.1c-15.4,27-31.4,55-73.9,79.8c-48.8,28.5-126.6,48.8-237.7,62.1
		c-2.6,0.3-4.6,2.6-4.4,5.3c0.2,2.6,2.3,4.7,5,4.7h644c2.8,0,5-2.2,5-5V455C1630.8,452.4,1628.9,450.2,1626.3,450z" style="fill:#F3F6E6;"/>
	<g>
		<g>
			<path d="M1274.8,235.8c-2.8,0-5-2.2-5-5V212c0-2.8,2.2-5,5-5s5,2.2,5,5v18.8C1279.8,233.6,1277.6,235.8,1274.8,235.8
				z" style="fill:#383A48;"/>
		</g>
		<g>
			<path d="M1274.8,303.1c-2.8,0-5-2.2-5-5v-18.8c0-2.8,2.2-5,5-5s5,2.2,5,5v18.8
				C1279.8,300.9,1277.6,303.1,1274.8,303.1z" style="fill:#383A48;"/>
		</g>
		<g>
			<path d="M1250.5,260.1h-18.8c-2.8,0-5-2.2-5-5c0-2.8,2.2-5,5-5h18.8c2.8,0,5,2.2,5,5S1253.3,260.1,1250.5,260.1z" style="fill:#383A48;"/>
		</g>
		<g>
			<path d="M1317.9,260.1h-18.8c-2.8,0-5-2.2-5-5c0-2.8,2.2-5,5-5h18.8c2.8,0,5,2.2,5,5S1320.6,260.1,1317.9,260.1z" style="fill:#383A48;"/>
		</g>
		<g>
			<path d="M1257.6,242.9c-1.3,0-2.6-0.5-3.5-1.5l-13.3-13.3c-2-2-2-5.1,0-7.1s5.1-2,7.1,0l13.3,13.3c2,2,2,5.1,0,7.1
				C1260.2,242.4,1258.9,242.9,1257.6,242.9z" style="fill:#383A48;"/>
		</g>
		<g>
			<path d="M1305.3,290.5c-1.3,0-2.6-0.5-3.5-1.5l-13.3-13.3c-2-2-2-5.1,0-7.1s5.1-2,7.1,0l13.3,13.3c2,2,2,5.1,0,7.1
				C1307.8,290,1306.5,290.5,1305.3,290.5z" style="fill:#383A48;"/>
		</g>
		<g>
			<path d="M1244.4,290.5c-1.3,0-2.6-0.5-3.5-1.5c-2-2-2-5.1,0-7.1l13.3-13.3c2-2,5.1-2,7.1,0s2,5.1,0,7.1L1248,289
				C1246.9,290,1245.6,290.5,1244.4,290.5z" style="fill:#383A48;"/>
		</g>
		<g>
			<path d="M1292,242.9c-1.3,0-2.6-0.5-3.5-1.5c-2-2-2-5.1,0-7.1l13.3-13.3c2-2,5.1-2,7.1,0s2,5.1,0,7.1l-13.3,13.3
				C1294.5,242.4,1293.3,242.9,1292,242.9z" style="fill:#383A48;"/>
		</g>
	</g>
	<g>
		<g>
			<polygon points="808.1,849.8 422.7,849.8 422.7,357.9 680,357.9 807.9,485.7 			" style="fill:#F3F6E6;"/>
			<path d="M808.1,854.8H422.7c-2.8,0-5-2.2-5-5v-492c0-2.8,2.2-5,5-5H680c1.3,0,2.6,0.5,3.5,1.5l127.9,127.9
				c0.9,0.9,1.5,2.2,1.5,3.5l0.2,364.1c0,1.3-0.5,2.6-1.5,3.5C810.7,854.3,809.4,854.8,808.1,854.8z M427.7,844.8h375.4l-0.2-357
				l-125-125H427.7V844.8z" style="fill:#383A48;"/>
		</g>
		<g>
			<polygon points="680,357.9 808.1,485.7 680,485.7 			" style="fill:#F3F6E6;"/>
			<path d="M808.1,490.7H680c-2.8,0-5-2.2-5-5V357.9c0-2,1.2-3.8,3.1-4.6c1.9-0.8,4-0.3,5.4,1.1l128.1,127.9
				c1.4,1.4,1.9,3.6,1.1,5.4C812,489.5,810.1,490.7,808.1,490.7z M685,480.7h111L685,369.9V480.7z" style="fill:#383A48;"/>
		</g>
		<g>
			<circle cx="615.4" cy="589.7" r="58.6" style="fill:#383A48;"/>
			<path d="M615.4,653.4c-35.1,0-63.6-28.6-63.6-63.6s28.6-63.6,63.6-63.6s63.6,28.6,63.6,63.6S650.5,653.4,615.4,653.4
				z M615.4,536.1c-29.6,0-53.6,24.1-53.6,53.6c0,29.6,24.1,53.6,53.6,53.6s53.6-24.1,53.6-53.6C669.1,560.1,645,536.1,615.4,536.1z
				" style="fill:#383A48;"/>
		</g>
		<g>
			<rect x="591.8" y="630.7" width="47.3" height="114" style="fill:#383A48;"/>
			<path d="M639.1,749.7h-47.3c-2.8,0-5-2.2-5-5v-114c0-2.8,2.2-5,5-5h47.3c2.8,0,5,2.2,5,5v114
				C644.1,747.5,641.8,749.7,639.1,749.7z M596.8,739.7h37.3v-104h-37.3V739.7z" style="fill:#383A48;"/>
		</g>
	</g>
	<g>
		<g>
			<polygon points="743.8,785.6 358.4,785.6 358.4,293.6 615.7,293.6 743.6,421.5 			" style="fill:#F3F6E6;"/>
			<path d="M743.8,790.6H358.4c-2.8,0-5-2.2-5-5v-492c0-2.8,2.2-5,5-5h257.3c1.3,0,2.6,0.5,3.5,1.5L747.1,418
				c0.9,0.9,1.5,2.2,1.5,3.5l0.2,364.1c0,1.3-0.5,2.6-1.5,3.5C746.4,790,745.2,790.6,743.8,790.6z M363.4,780.6h375.4l-0.2-357
				l-125-125H363.4V780.6z" style="fill:#383A48;"/>
		</g>
		<g>
			<polygon points="615.7,293.6 743.8,421.5 615.7,421.5 			" style="fill:#F3F6E6;"/>
			<path d="M743.8,426.5H615.7c-2.8,0-5-2.2-5-5V293.6c0-2,1.2-3.8,3.1-4.6c1.9-0.8,4-0.3,5.4,1.1L747.3,418
				c1.4,1.4,1.9,3.6,1.1,5.4C747.7,425.2,745.9,426.5,743.8,426.5z M620.7,416.5h111l-111-110.8V416.5z" style="fill:#383A48;"/>
		</g>
		<g>
			<circle cx="551.1" cy="525.4" r="58.6" style="fill:#383A48;"/>
			<path d="M551.1,589.1c-35.1,0-63.6-28.6-63.6-63.6s28.6-63.6,63.6-63.6c35.1,0,63.6,28.6,63.6,63.6
				S586.2,589.1,551.1,589.1z M551.1,471.8c-29.6,0-53.6,24.1-53.6,53.6c0,29.6,24.1,53.6,53.6,53.6c29.6,0,53.6-24.1,53.6-53.6
				C604.8,495.9,580.7,471.8,551.1,471.8z" style="fill:#383A48;"/>
		</g>
		<g>
			<rect x="527.5" y="566.4" width="47.3" height="114" style="fill:#383A48;"/>
			<path d="M574.8,685.4h-47.3c-2.8,0-5-2.2-5-5v-114c0-2.8,2.2-5,5-5h47.3c2.8,0,5,2.2,5,5v114
				C579.8,683.2,577.5,685.4,574.8,685.4z M532.5,675.4h37.3v-104h-37.3V675.4z" style="fill:#383A48;"/>
		</g>
	</g>
	<g>
		<g>
			<polygon points="679.6,721.3 294.2,721.3 294.2,229.3 551.5,229.3 679.4,357.2 			" style="fill:#F3F6E6;"/>
			<path d="M679.6,726.3H294.2c-2.8,0-5-2.2-5-5v-492c0-2.8,2.2-5,5-5h257.3c1.3,0,2.6,0.5,3.5,1.5l127.9,127.9
				c0.9,0.9,1.5,2.2,1.5,3.5l0.2,364.1c0,1.3-0.5,2.6-1.5,3.5C682.2,725.8,680.9,726.3,679.6,726.3z M299.2,716.3h375.4l-0.2-357
				l-125-125H299.2V716.3z" style="fill:#383A48;"/>
		</g>
		<g>
			<polygon points="551.5,229.3 679.6,357.2 551.5,357.2 			" style="fill:#F3F6E6;"/>
			<path d="M679.6,362.2H551.5c-2.8,0-5-2.2-5-5V229.3c0-2,1.2-3.8,3.1-4.6s4-0.3,5.4,1.1l128.1,127.9
				c1.4,1.4,1.9,3.6,1.1,5.4C683.4,361,681.6,362.2,679.6,362.2z M556.5,352.2h111l-111-110.8V352.2z" style="fill:#383A48;"/>
		</g>
		<g>
			<circle cx="486.9" cy="461.2" r="58.6" style="fill:#383A48;"/>
			<path d="M486.9,524.8c-35.1,0-63.6-28.6-63.6-63.6s28.6-63.6,63.6-63.6s63.6,28.6,63.6,63.6S522,524.8,486.9,524.8z
				 M486.9,407.5c-29.6,0-53.6,24.1-53.6,53.6s24.1,53.6,53.6,53.6c29.6,0,53.6-24.1,53.6-53.6S516.4,407.5,486.9,407.5z" style="fill:#383A48;"/>
		</g>
		<g>
			<rect x="463.2" y="502.2" width="47.3" height="114" style="fill:#383A48;"/>
			<path d="M510.5,621.2h-47.3c-2.8,0-5-2.2-5-5v-114c0-2.8,2.2-5,5-5h47.3c2.8,0,5,2.2,5,5v114
				C515.5,618.9,513.3,621.2,510.5,621.2z M468.2,611.2h37.3v-104h-37.3V611.2z" style="fill:#383A48;"/>
		</g>
	</g>
	<g>
		<g>
			<g>
				<path d="M1487.2,193.7c-73.4,0.4-132.2,61.1-132.2,134.5v32.3H900.4v150.9c0,10.9,8.8,19.8,19.8,19.8l0,0
					c10.9,0,19.8-8.8,19.8-19.8v-50.2h37.1v29.6c0,10.9,8.8,19.8,19.8,19.8l0,0c10.9,0,19.8-8.8,19.8-19.8v-50.2H1355v32.3
					c0,73.4,58.8,134,132.2,134.5c73.7,0.4,133.8-59.4,133.8-133V326.7C1621,253.1,1560.9,193.3,1487.2,193.7z M1551,474.3
					c0,34.7-28.3,63-63,63s-63-28.3-63-63V326.7c0-34.7,28.3-63,63-63s63,28.3,63,63V474.3z" style="fill:#383A48;"/>
				<path d="M1488,612.3c-0.3,0-0.5,0-0.8,0c-75.6-0.4-137.2-63-137.2-139.5v-27.3h-328.4v45.2
					c0,13.7-11.1,24.8-24.8,24.8S972,504.4,972,490.7v-24.6h-27.1v45.2c0,13.7-11.1,24.8-24.8,24.8s-24.8-11.1-24.8-24.8V360.5
					c0-2.8,2.2-5,5-5H1350v-27.3c0-76.5,61.5-139,137.2-139.5v5v-5c36.9-0.2,71.8,14.1,98.1,40.2c26.3,26.1,40.7,60.9,40.7,97.8
					v147.6c0,37-14.5,71.7-40.7,97.8C1559.1,598.1,1524.6,612.3,1488,612.3z M1016.6,435.5H1355c2.8,0,5,2.2,5,5v32.3
					c0,71,57.1,129.1,127.3,129.5c0.3,0,0.5,0,0.8,0c34,0,66-13.2,90.2-37.3c24.4-24.2,37.8-56.5,37.8-90.7V326.7
					c0-34.3-13.4-66.5-37.8-90.7s-56.7-37.5-91-37.3c-70.2,0.4-127.3,58.5-127.3,129.5v32.3c0,2.8-2.2,5-5,5H905.4v145.9
					c0,8.1,6.6,14.8,14.8,14.8s14.8-6.6,14.8-14.8v-50.2c0-2.8,2.2-5,5-5h37.1c2.8,0,5,2.2,5,5v29.6c0,8.1,6.6,14.8,14.8,14.8
					s14.8-6.6,14.8-14.8v-50.2C1011.6,437.8,1013.8,435.5,1016.6,435.5z M1488,542.3c-37.5,0-68-30.5-68-68V326.7
					c0-37.5,30.5-68,68-68s68,30.5,68,68v147.6C1556,511.8,1525.5,542.3,1488,542.3z M1488,268.7c-32,0-58,26-58,58v147.6
					c0,32,26,58,58,58s58-26,58-58V326.7C1546,294.8,1519.9,268.7,1488,268.7z" style="fill:#383A48;"/>
			</g>
		</g>
		<g>
			<g>
				<path d="M1487.2,174.4c-73.4,0.4-132.2,61.1-132.2,134.5v32.3H900.4v150.9c0,10.9,8.8,19.8,19.8,19.8l0,0
					c10.9,0,19.8-8.8,19.8-19.8v-50.2h37.1v29.6c0,10.9,8.8,19.8,19.8,19.8l0,0c10.9,0,19.8-8.8,19.8-19.8v-50.2H1355v32.3
					c0,73.4,58.8,134,132.2,134.5c73.7,0.4,133.8-59.4,133.8-133V307.4C1621,233.8,1560.9,174,1487.2,174.4z M1551,455
					c0,34.7-28.3,63-63,63s-63-28.3-63-63V307.4c0-34.7,28.3-63,63-63s63,28.3,63,63V455z" style="fill:#F6E049;"/>
				<path d="M1488,593c-0.3,0-0.5,0-0.8,0c-75.6-0.4-137.2-63-137.2-139.5v-27.3h-328.4v45.2
					c0,13.7-11.1,24.8-24.8,24.8S972,485.1,972,471.4v-24.6h-27.1V492c0,13.7-11.1,24.8-24.8,24.8s-24.8-11.1-24.8-24.8V341.2
					c0-2.8,2.2-5,5-5H1350v-27.3c0-76.5,61.5-139,137.2-139.5l0,0c0.3,0,0.5,0,0.8,0c36.7,0,71.2,14.3,97.2,40.2
					c26.3,26.1,40.7,60.9,40.7,97.8V455c0,37-14.5,71.7-40.7,97.8C1559.1,578.7,1524.6,593,1488,593z M1016.6,416.2H1355
					c2.8,0,5,2.2,5,5v32.3c0,71,57.1,129.1,127.3,129.5c0.3,0,0.5,0,0.8,0c34,0,66-13.2,90.2-37.3c24.4-24.2,37.8-56.5,37.8-90.7
					V307.4c0-34.3-13.4-66.5-37.8-90.7c-24.2-24.1-56.2-37.3-90.2-37.3c-0.3,0-0.5,0-0.8,0v-5v5c-70.2,0.4-127.3,58.5-127.3,129.5
					v32.3c0,2.8-2.2,5-5,5H905.4v145.9c0,8.1,6.6,14.8,14.8,14.8s14.8-6.6,14.8-14.8v-50.2c0-2.8,2.2-5,5-5h37.1c2.8,0,5,2.2,5,5
					v29.6c0,8.1,6.6,14.8,14.8,14.8s14.8-6.6,14.8-14.8v-50.2C1011.6,418.4,1013.8,416.2,1016.6,416.2z M1488,523
					c-37.5,0-68-30.5-68-68V307.4c0-37.5,30.5-68,68-68s68,30.5,68,68V455C1556,492.5,1525.5,523,1488,523z M1488,249.4
					c-32,0-58,26-58,58V455c0,32,26,58,58,58s58-26,58-58V307.4C1546,275.4,1519.9,249.4,1488,249.4z" style="fill:#383A48;"/>
			</g>
		</g>
	</g>
	<g>
		<path d="M988.5,758.7c-7.2,0-14.5-0.5-21.9-1.5c-31.2-4.2-63-17.6-91.7-38.7c-2.2-1.6-2.7-4.8-1.1-7
			c1.6-2.2,4.8-2.7,7-1.1c27.4,20.1,57.6,32.8,87.2,36.8c27.4,3.7,53.7,0,75.9-10.7c14.8-7.1,27-17,36.4-29c-13-0.4-26.1-2-39.2-4.9
			c-21.6-4.8-38.5-21.1-43.9-42.5c-5.5-21.3,1.5-43.6,18-58.1c17.8-15.6,42.1-18.9,63.5-8.7c21.3,10.2,33.9,31.1,32.9,54.6
			c-0.7,17.9-5.1,34.5-12.7,49.1c44-3,85.6-21.4,119-53.5c18.4-17.7,32.9-38.4,42-59.9c8.9-21.1,11.9-41.5,8.8-59
			c-0.5-2.7,1.3-5.3,4-5.8s5.3,1.3,5.8,4c7.1,39.5-13.9,89.8-53.7,128c-36.9,35.4-83.2,55-132.1,56.7c-10.7,16-25.8,29-44.5,38
			C1030.2,754.2,1009.9,758.7,988.5,758.7z M1053.2,597.6c-11.3,0-22.4,4.1-31.5,12c-13.9,12.2-19.5,30.2-14.9,48.1
			c4.6,18,18.2,31.2,36.4,35.2c14.7,3.2,29.4,4.8,43.9,4.7c8.7-14.5,13.7-31.4,14.4-49.9c0.8-19.5-9.6-36.8-27.2-45.2
			C1067.5,599.2,1060.3,597.6,1053.2,597.6z" style="fill:#383A48;"/>
	</g>
	<path d="M797.3,224.3h-91.6c-2,0-3.8,1.2-4.6,3.1c-0.8,1.9-0.3,4,1.1,5.4l91.6,91.6c1,1,2.2,1.5,3.5,1.5
		c0.6,0,1.3-0.1,1.9-0.4c1.9-0.8,3.1-2.6,3.1-4.6v-91.6C802.3,226.5,800,224.3,797.3,224.3z" style="fill:#4053FA;"/>
	<g>
		<g>
			<path d="M1600.4,746.7c33.9,33.9,33.9,88.9,0,122.8s-88.9,33.9-122.8,0c-10.6-10.6-17.8-23.2-21.8-36.6
				c29.6,8.8,62.9,1.5,86.2-21.8c23.3-23.3,30.6-56.7,21.8-86.2C1577.2,728.9,1589.9,736.2,1600.4,746.7z" style="fill:#E0719E;"/>
			<path d="M1539,900c-24.5,0-47.6-9.6-64.9-26.9c-10.8-10.8-18.8-24.1-23.1-38.7c-0.5-1.8,0-3.7,1.3-5s3.2-1.8,5-1.3
				c28.9,8.6,60,0.7,81.3-20.6s29.2-52.4,20.6-81.3c-0.5-1.8,0-3.7,1.3-5s3.2-1.8,5-1.3c14.5,4.3,27.9,12.3,38.7,23.1l0,0l0,0
				c35.8,35.8,35.8,94.1,0,129.9C1586.6,890.4,1563.5,900,1539,900z M1463.6,840c4.1,9.7,10,18.5,17.5,26c15.5,15.5,36,24,57.9,24
				s42.4-8.5,57.9-24c31.9-31.9,31.9-83.8,0-115.7l0,0c-7.5-7.5-16.3-13.4-26-17.5c5.6,29.6-3.7,60.3-25.3,81.9
				C1524,836.3,1493.3,845.6,1463.6,840z" style="fill:#383A48;"/>
		</g>
		<g>
			
				<ellipse transform="matrix(0.7071 -0.7071 0.7071 0.7071 -108.5895 1295.7133)" cx="1509.8" cy="778.9" rx="76.4" ry="45.5" style="fill:#AAC6FC;"/>
			<path d="M1480.7,841.6c-8.8,0-17.6-1.3-26.3-3.8c-1.6-0.5-2.9-1.7-3.4-3.4c-9.6-32.4-0.8-67.3,23.1-91.2
				s58.8-32.7,91.2-23.1c1.6,0.5,2.9,1.7,3.4,3.4c9.6,32.4,0.8,67.3-23.1,91.2C1528.1,832.2,1504.7,841.6,1480.7,841.6z
				 M1459.9,828.9c28.1,7.4,58-0.7,78.6-21.3s28.7-50.5,21.3-78.6c-28.1-7.4-58,0.7-78.6,21.3
				C1460.5,770.9,1452.5,800.8,1459.9,828.9z" style="fill:#383A48;"/>
		</g>
		<g>
			<path d="M1542,688.3c10.6,10.6,17.8,23.2,21.8,36.6c-29.6-8.8-62.9-1.5-86.2,21.8c-23.3,23.3-30.6,56.7-21.8,86.2
				c-13.4-4-26-11.2-36.6-21.8c-33.9-33.9-33.9-88.9,0-122.8C1453.1,654.4,1508.1,654.4,1542,688.3z" style="fill:#E0719E;"/>
			<path d="M1455.8,838c-0.5,0-1-0.1-1.4-0.2c-14.5-4.3-27.9-12.3-38.7-23.1c-35.8-35.8-35.8-94.1,0-129.9
				c17.3-17.3,40.4-26.9,64.9-26.9l0,0c24.5,0,47.6,9.6,64.9,26.9l0,0c10.8,10.8,18.8,24.2,23.1,38.7c0.5,1.8,0,3.7-1.3,5
				s-3.2,1.8-5,1.3c-28.9-8.6-60-0.7-81.3,20.6s-29.2,52.4-20.6,81.3c0.5,1.8,0,3.7-1.3,5C1458.4,837.4,1457.1,838,1455.8,838z
				 M1480.6,667.9c-21.9,0-42.4,8.5-57.9,24c-31.9,31.9-31.9,83.8,0,115.7c7.5,7.5,16.3,13.4,26,17.5c-5.6-29.6,3.7-60.3,25.3-81.9
				c21.6-21.6,52.3-30.9,81.9-25.3c-4.1-9.7-10.1-18.5-17.5-26l0,0C1523,676.4,1502.5,667.9,1480.6,667.9z" style="fill:#383A48;"/>
		</g>
	</g>
	<path d="M1188.2,238.8l-14.6-14.5c-12.8-12.8-33.5-12.7-46.3,0l-14.4,14.5c-4.3,4.3-10,6.7-16.1,6.7l0,0
		c-6.1,0-11.8-2.4-16.1-6.6l-14.5-14.4c-12.8-12.8-33.5-12.7-46.3,0l-14.4,14.5c-4.3,4.3-10,6.7-16.1,6.7l0,0
		c-6.1,0-11.8-2.4-16.1-6.6L959,224.4c-6.2-6.2-14.4-9.6-23.1-9.6l0,0c-8.7,0-17,3.4-23.1,9.6l-15.9,15.9c-0.9,0.9-1.5,2.2-1.5,3.5
		v40c0,2,1.2,3.8,3.1,4.6c1.9,0.8,4,0.3,5.4-1.1l15.9-15.9c8.9-8.9,23.3-8.9,32.1,0l14.5,14.4c6.2,6.2,14.4,9.6,23.1,9.6l0,0
		c8.7,0,17-3.4,23.1-9.6l14.4-14.5c4.3-4.3,10-6.7,16.1-6.7l0,0c6.1,0,11.8,2.4,16.1,6.6l14.5,14.4c12.8,12.8,33.5,12.7,46.3,0
		l14.4-14.5c4.3-4.3,10-6.7,16.1-6.7l0,0c6.1,0,11.8,2.4,16.1,6.6l14.6,14.5c1.4,1.4,3.6,1.9,5.4,1.1s3.1-2.6,3.1-4.6v-40
		C1189.7,241,1189.1,239.8,1188.2,238.8z" style="fill:#F3F6E6;"/>
</g>
</svg>
