<svg xmlns="http://www.w3.org/2000/svg" xmlns:xlink="http://www.w3.org/1999/xlink" width="1408" height="828" version="1.1" viewBox="0 0 1408 828"><title>abstract-coming-soon</title><desc>Created with Sketch.</desc><g id="Page-1" fill="none" fill-rule="evenodd" stroke="none" stroke-width="1"><g id="abstract-coming-soon" transform="translate(-256.000000, -113.000000)"><g id="Group" transform="translate(256.000000, 113.000000)"><path id="Path" fill="#F3F6E6" fill-rule="nonzero" d="M1396.5,42 C1325,42 1264.8,49 1212.6,63.3 C1166,76.1 1127,94.4 1093.3,119.3 C1030.9,165.5 998,226.4 966.3,285.3 C915,380.5 866.5,470.5 699.3,488.4 C622.6,496.7 573,529.3 510.3,570.6 C465.9,599.9 415.5,633 344.4,664.8 C261.9,701.6 167.1,729.4 54.5,749.8 C36.7,753 29.9,768.1 31.1,781.6 C32.5,796.7 43.8,812 63,812 L1396.7,812 C1399.5,812 1401.7,809.8 1401.7,807 L1401.7,47 C1401.5,44.3 1399.2,42 1396.5,42 Z"/><g id="Oval" fill="#383A48" fill-rule="nonzero" transform="translate(1092.000000, 44.000000)"><circle cx="269.9" cy="5.5" r="5"/><circle cx="269.9" cy="49.5" r="5"/><circle cx="269.9" cy="93.5" r="5"/><circle cx="269.9" cy="137.5" r="5"/><circle cx="269.9" cy="181.5" r="5"/><circle cx="269.9" cy="225.5" r="5"/><circle cx="269.9" cy="269.5" r="5"/><circle cx="225.9" cy="6.7" r="5"/><circle cx="181.9" cy="11.5" r="5"/><circle cx="225.9" cy="49.5" r="5"/><circle cx="225.9" cy="93.5" r="5"/><circle cx="225.9" cy="137.5" r="5"/><circle cx="225.9" cy="181.5" r="5"/><circle cx="225.9" cy="225.5" r="5"/><circle cx="225.9" cy="269.5" r="5"/><circle cx="181.9" cy="49.5" r="5"/><circle cx="181.9" cy="93.5" r="5"/><circle cx="181.9" cy="137.5" r="5"/><circle cx="181.9" cy="181.5" r="5"/><circle cx="181.9" cy="225.5" r="5"/><circle cx="181.9" cy="269.5" r="5"/><circle cx="137.9" cy="49.5" r="5"/><circle cx="137.9" cy="93.5" r="5"/><circle cx="137.9" cy="137.5" r="5"/><circle cx="137.9" cy="181.5" r="5"/><circle cx="137.9" cy="225.5" r="5"/><circle cx="137.9" cy="269.5" r="5"/><circle cx="93.9" cy="49.5" r="5"/><circle cx="93.9" cy="93.5" r="5"/><circle cx="93.9" cy="137.5" r="5"/><circle cx="93.9" cy="181.5" r="5"/><circle cx="93.9" cy="225.5" r="5"/><circle cx="93.9" cy="269.5" r="5"/><circle cx="49.9" cy="49.5" r="5"/><circle cx="49.9" cy="93.5" r="5"/><circle cx="49.9" cy="137.5" r="5"/><circle cx="49.9" cy="181.5" r="5"/><circle cx="49.9" cy="225.5" r="5"/><circle cx="49.9" cy="269.5" r="5"/><circle cx="5.9" cy="93.5" r="5"/><circle cx="5.9" cy="137.5" r="5"/><circle cx="5.9" cy="181.5" r="5"/><circle cx="5.9" cy="225.5" r="5"/><circle cx="5.9" cy="269.5" r="5"/></g><g fill-rule="nonzero"><g><g><g transform="translate(231.000000, 0.000000) translate(0.000000, 30.000000)"><path id="Path" fill="#F3F6E6" d="M35.5,551.2 L35.5,551.2 C19,551.2 5.6,537.8 5.6,521.3 L5.6,5.5 L65.4,5.5 L65.4,521.3 C65.4,537.8 52,551.2 35.5,551.2 Z"/><path id="Shape" fill="#383A48" d="M35.5,556.2 C16.3,556.2 0.6,540.5 0.6,521.3 L0.6,5.5 C0.6,2.7 2.8,0.5 5.6,0.5 L65.4,0.5 C68.2,0.5 70.4,2.7 70.4,5.5 L70.4,521.3 C70.4,540.5 54.8,556.2 35.5,556.2 Z M10.6,10.5 L10.6,521.3 C10.6,535 21.8,546.2 35.5,546.2 L35.5,546.2 C49.2,546.2 60.4,535 60.4,521.3 L60.4,10.5 L10.6,10.5 Z"/></g><g fill="#383A48" transform="translate(231.000000, 0.000000) translate(0.000000, 237.000000)"><path id="Path" d="M5.6,84.4 C5.6,100.9 19,114.3 35.5,114.3 L35.5,114.3 C52,114.3 65.4,100.9 65.4,84.4 L65.4,5.1 C65.4,21.6 52,35 35.5,35 L35.5,35 C19,35 5.6,21.6 5.6,5.1 L5.6,84.4 Z"/><path id="Shape" d="M35.5,119.3 C16.3,119.3 0.6,103.6 0.6,84.4 L0.6,5.1 C0.6,2.3 2.8,0.1 5.6,0.1 C8.4,0.1 10.6,2.3 10.6,5.1 C10.6,18.8 21.8,30 35.5,30 C49.2,30 60.4,18.8 60.4,5.1 C60.4,2.3 62.6,0.1 65.4,0.1 C68.2,0.1 70.4,2.3 70.4,5.1 L70.4,84.4 C70.4,103.7 54.8,119.3 35.5,119.3 Z M10.6,29.5 L10.6,84.4 C10.6,98.1 21.8,109.3 35.5,109.3 C49.2,109.3 60.4,98.1 60.4,84.4 L60.4,29.5 C54.1,36 45.2,40 35.5,40 C25.8,40 16.9,36 10.6,29.5 Z"/></g><g transform="translate(231.000000, 0.000000)"><circle id="Oval" cx="35.494" cy="35.517" r="29.899" fill="#F3F6E6" transform="translate(35.493550, 35.516950) rotate(-80.008284) translate(-35.493550, -35.516950)"/><path id="Shape" fill="#383A48" d="M35.5,70.4 C16.3,70.4 0.6,54.7 0.6,35.5 C0.6,16.3 16.3,0.6 35.5,0.6 C54.7,0.6 70.4,16.3 70.4,35.5 C70.4,54.8 54.8,70.4 35.5,70.4 Z M35.5,10.6 C21.8,10.6 10.6,21.8 10.6,35.5 C10.6,49.2 21.8,60.4 35.5,60.4 C49.2,60.4 60.4,49.2 60.4,35.5 C60.4,21.8 49.2,10.6 35.5,10.6 Z"/></g></g><g transform="translate(9.000000, 128.000000)"><path id="Path" fill="#F3F6E6" d="M268.7,24.3 L268.7,24.3 C262.6,9 245.2,1.5 229.9,7.5 L24.6,89.3 C9.3,95.4 1.8,112.8 7.8,128.1 C13.9,143.4 31.3,150.9 46.6,144.9 L252,63.1 C267.3,57 274.8,39.6 268.7,24.3 Z"/><path id="Shape" fill="#383A48" d="M35.7,152 C31,152 26.3,151 21.9,149.1 C13.3,145.4 6.7,138.6 3.3,129.9 C-0.1,121.2 -6.49480469e-14,111.8 3.7,103.2 C7.4,94.6 14.2,88 22.9,84.6 L228.2,2.8 C236.9,-0.6 246.4,-0.5 254.9,3.2 C263.5,6.9 270.1,13.7 273.5,22.4 L273.5,22.4 C276.9,31.1 276.8,40.5 273.1,49.1 C269.4,57.7 262.6,64.3 253.9,67.7 L48.6,149.5 C44.4,151.2 40,152 35.7,152 Z M241,10.4 C237.9,10.4 234.8,11 231.8,12.2 L26.5,94 C20.3,96.5 15.5,101.2 12.8,107.3 C10.2,113.4 10.1,120.2 12.5,126.4 C15,132.6 19.7,137.4 25.8,140.1 C31.9,142.7 38.7,142.8 44.9,140.4 L250.2,58.6 C256.4,56.1 261.2,51.4 263.9,45.3 C266.5,39.2 266.6,32.4 264.2,26.2 L264.2,26.2 C261.7,20 257,15.2 250.9,12.5 C247.7,11.1 244.3,10.4 241,10.4 Z"/></g><g transform="translate(0.000000, 113.000000)"><path id="Path" fill="#F3F6E6" d="M35.2,550.9 L35.2,550.9 C18.7,550.9 5.3,537.5 5.3,521 L5.3,5.3 L65.1,5.3 L65.1,521 C65.1,537.5 51.7,550.9 35.2,550.9 Z"/><path id="Shape" fill="#383A48" d="M35.2,555.9 C16,555.9 0.3,540.2 0.3,521 L0.3,5.3 C0.3,2.5 2.5,0.3 5.3,0.3 L65.1,0.3 C67.9,0.3 70.1,2.5 70.1,5.3 L70.1,521 C70.1,540.3 54.5,555.9 35.2,555.9 Z M10.3,10.3 L10.3,521 C10.3,534.7 21.5,545.9 35.2,545.9 L35.2,545.9 C48.9,545.9 60.1,534.7 60.1,521 L60.1,10.3 L10.3,10.3 Z"/></g><g id="Oval" fill="#383A48" transform="translate(16.000000, 146.000000)"><circle cx="30.2" cy="5.8" r="5"/><circle cx="30.2" cy="30.5" r="5"/><circle cx="30.2" cy="55.1" r="5"/><circle cx="30.2" cy="79.8" r="5"/><circle cx="30.2" cy="104.5" r="5"/><circle cx="30.2" cy="129.1" r="5"/><circle cx="30.2" cy="153.8" r="5"/><circle cx="30.2" cy="178.5" r="5"/><circle cx="30.2" cy="203.1" r="5"/><circle cx="30.2" cy="227.8" r="5"/><circle cx="30.2" cy="252.5" r="5"/><circle cx="30.2" cy="277.1" r="5"/><circle cx="30.2" cy="301.8" r="5"/><circle cx="30.2" cy="326.5" r="5"/><circle cx="30.2" cy="351.1" r="5"/><circle cx="30.2" cy="375.8" r="5"/><circle cx="30.2" cy="400.5" r="5"/><circle cx="30.2" cy="425.1" r="5"/><circle cx="30.2" cy="449.8" r="5"/><circle cx="30.2" cy="474.5" r="5"/><circle cx="30.2" cy="499.1" r="5"/><circle cx="5.5" cy="5.8" r="5"/><circle cx="5.5" cy="30.5" r="5"/><circle cx="5.5" cy="55.1" r="5"/><circle cx="5.5" cy="79.8" r="5"/><circle cx="5.5" cy="104.5" r="5"/><circle cx="5.5" cy="129.1" r="5"/><circle cx="5.5" cy="153.8" r="5"/><circle cx="5.5" cy="178.5" r="5"/><circle cx="5.5" cy="203.1" r="5"/><circle cx="5.5" cy="227.8" r="5"/><circle cx="5.5" cy="252.5" r="5"/><circle cx="5.5" cy="277.1" r="5"/><circle cx="5.5" cy="301.8" r="5"/><circle cx="5.5" cy="326.5" r="5"/><circle cx="5.5" cy="351.1" r="5"/><circle cx="5.5" cy="375.8" r="5"/><circle cx="5.5" cy="400.5" r="5"/><circle cx="5.5" cy="425.1" r="5"/><circle cx="5.5" cy="449.8" r="5"/><circle cx="5.5" cy="474.5" r="5"/><circle cx="5.5" cy="499.1" r="5"/></g><g transform="translate(0.000000, 83.000000)"><circle id="Oval" cx="35.2" cy="35.3" r="29.9" fill="#F3F6E6"/><path id="Shape" fill="#383A48" d="M35.2,70.2 C16,70.2 0.3,54.5 0.3,35.3 C0.3,16.1 16,0.4 35.2,0.4 C54.4,0.4 70.1,16.1 70.1,35.3 C70.1,54.5 54.5,70.2 35.2,70.2 Z M35.2,10.4 C21.5,10.4 10.3,21.6 10.3,35.3 C10.3,49 21.5,60.2 35.2,60.2 C48.9,60.2 60.1,49 60.1,35.3 C60.1,21.6 49,10.4 35.2,10.4 Z"/></g></g><g fill="#383A48" transform="translate(0.000000, 322.000000)"><path id="Path" d="M5.3,84.6 C5.3,101.1 18.7,114.5 35.2,114.5 L35.2,114.5 C51.7,114.5 65.1,101.1 65.1,84.6 L65.1,5.3 C65.1,21.8 51.7,35.2 35.2,35.2 L35.2,35.2 C18.7,35.2 5.3,21.8 5.3,5.3 L5.3,84.6 Z"/><path id="Shape" d="M35.2,119.5 C16,119.5 0.3,103.8 0.3,84.6 L0.3,5.3 C0.3,2.5 2.5,0.3 5.3,0.3 C8.1,0.3 10.3,2.5 10.3,5.3 C10.3,19 21.5,30.2 35.2,30.2 C48.9,30.2 60.1,19 60.1,5.3 C60.1,2.5 62.3,0.3 65.1,0.3 C67.9,0.3 70.1,2.5 70.1,5.3 L70.1,84.6 C70.1,103.9 54.5,119.5 35.2,119.5 Z M10.3,29.7 L10.3,84.6 C10.3,98.3 21.5,109.5 35.2,109.5 C48.9,109.5 60.1,98.3 60.1,84.6 L60.1,29.7 C53.8,36.2 44.9,40.2 35.2,40.2 C25.5,40.2 16.7,36.2 10.3,29.7 Z"/></g><g><g transform="translate(162.000000, 499.000000) translate(0.000000, 30.000000)"><path id="Path" fill="#F3F6E6" d="M34.9,293.3 L34.9,293.3 C18.4,293.3 5,279.9 5,263.4 L5,5.5 L64.8,5.5 L64.8,263.4 C64.8,279.9 51.4,293.3 34.9,293.3 Z"/><path id="Shape" fill="#383A48" d="M34.9,298.3 C15.7,298.3 0,282.6 0,263.4 L0,5.5 C0,2.7 2.2,0.5 5,0.5 L64.8,0.5 C67.6,0.5 69.8,2.7 69.8,5.5 L69.8,263.4 C69.8,282.6 54.1,298.3 34.9,298.3 Z M10,10.5 L10,263.4 C10,277.1 21.2,288.3 34.9,288.3 C48.6,288.3 59.8,277.1 59.8,263.4 L59.8,10.5 L10,10.5 Z"/></g><g fill="#383A48" transform="translate(162.000000, 499.000000) translate(0.000000, 38.000000)"><path id="Path" d="M5,84.4 C5,100.9 18.4,114.3 34.9,114.3 L34.9,114.3 C51.4,114.3 64.8,100.9 64.8,84.4 L64.8,5.1 C64.8,21.6 51.4,35 34.9,35 L34.9,35 C18.4,35 5,21.6 5,5.1 L5,84.4 Z"/><path id="Shape" d="M34.9,119.3 C15.7,119.3 0,103.6 0,84.4 L0,5 C0,2.2 2.2,0 5,0 C7.8,0 10,2.2 10,5 C10,18.7 21.2,29.9 34.9,29.9 C48.6,29.9 59.8,18.7 59.8,5 C59.8,2.2 62,0 64.8,0 C67.6,0 69.8,2.2 69.8,5 L69.8,84.3 C69.8,103.6 54.1,119.3 34.9,119.3 Z M10,29.5 L10,84.4 C10,98.1 21.2,109.3 34.9,109.3 C48.6,109.3 59.8,98.1 59.8,84.4 L59.8,29.5 C53.5,36 44.6,40 34.9,40 C25.2,40 16.3,35.9 10,29.5 Z"/></g><g transform="translate(162.000000, 499.000000)"><circle id="Oval" cx="34.9" cy="35.5" r="29.9" fill="#F3F6E6"/><path id="Shape" fill="#383A48" d="M34.9,70.4 C15.7,70.4 0,54.7 0,35.5 C0,16.3 15.7,0.6 34.9,0.6 C54.1,0.6 69.8,16.3 69.8,35.5 C69.8,54.7 54.1,70.4 34.9,70.4 Z M34.9,10.6 C21.2,10.6 10,21.8 10,35.5 C10,49.2 21.2,60.4 34.9,60.4 C48.6,60.4 59.8,49.2 59.8,35.5 C59.8,21.8 48.6,10.6 34.9,10.6 Z"/></g></g><g><g transform="translate(395.000000, 408.000000) translate(0.000000, 30.000000)"><path id="Path" fill="#F3F6E6" d="M35.1,293.1 L35.1,293.1 C18.6,293.1 5.2,279.7 5.2,263.2 L5.2,5.3 L65,5.3 L65,263.2 C65,279.7 51.6,293.1 35.1,293.1 Z"/><path id="Shape" fill="#383A48" d="M35.1,298.1 C15.9,298.1 0.2,282.4 0.2,263.2 L0.2,5.3 C0.2,2.5 2.4,0.3 5.2,0.3 L65,0.3 C67.8,0.3 70,2.5 70,5.3 L70,263.2 C70,282.5 54.4,298.1 35.1,298.1 Z M10.2,10.3 L10.2,263.2 C10.2,276.9 21.4,288.1 35.1,288.1 C48.8,288.1 60,277 60,263.2 L60,10.3 L10.2,10.3 Z"/></g><g transform="translate(395.000000, 408.000000)"><circle id="Oval" cx="35.1" cy="35.3" r="29.9" fill="#F3F6E6"/><path id="Shape" fill="#383A48" d="M35.1,70.2 C15.9,70.2 0.2,54.5 0.2,35.3 C0.2,16.1 15.9,0.4 35.1,0.4 C54.3,0.4 70,16.1 70,35.3 C70,54.5 54.4,70.2 35.1,70.2 Z M35.1,10.4 C21.4,10.4 10.2,21.6 10.2,35.3 C10.2,49 21.4,60.2 35.1,60.2 C48.8,60.2 60,49 60,35.3 C60,21.6 48.8,10.4 35.1,10.4 Z"/></g><g fill="#383A48" transform="translate(395.000000, 408.000000) translate(0.000000, 39.000000)"><path id="Path" d="M5.2,84.3 C5.2,100.8 18.6,114.2 35.1,114.2 L35.1,114.2 C51.6,114.2 65,100.8 65,84.3 L65,5 C65,21.5 51.6,34.9 35.1,34.9 L35.1,34.9 C18.6,34.9 5.2,21.5 5.2,5 L5.2,84.3 Z"/><path id="Shape" d="M35.1,119.2 C15.9,119.2 0.2,103.5 0.2,84.3 L0.2,5 C0.2,2.2 2.4,0 5.2,0 C8,0 10.2,2.2 10.2,5 C10.2,18.7 21.4,29.9 35.1,29.9 C48.8,29.9 60,18.7 60,5 C60,2.2 62.2,0 65,0 C67.8,0 70,2.2 70,5 L70,84.3 C70,103.6 54.4,119.2 35.1,119.2 Z M10.2,29.4 L10.2,84.3 C10.2,98 21.4,109.2 35.1,109.2 C48.8,109.2 60,98 60,84.3 L60,29.4 C53.7,35.9 44.8,39.9 35.1,39.9 C25.4,39.9 16.5,35.9 10.2,29.4 Z"/></g></g><g fill="#383A48" transform="translate(0.000000, 316.000000)"><path id="Path" d="M222.9,258.1 L444.6,163.1 C454.3,159 459.4,150 459.6045,140.8 C459.7,133.3 458.1,99 458.1,99 L291.2,5.5 L80.6,51.3 L16.4,77.4 C9.7,80.1 5.3,86.7 5.3,93.9 L5.3,118.9 L174.5,251.8 C188.4,262.4 206.9,264.9 222.9,258.1 Z"/><path id="Shape" d="M204.2,266.9 C192.6,266.9 181,263.1 171.5,255.7 L2.2,122.8 C1,121.9 0.3,120.4 0.3,118.9 L0.3,93.9 C0.3,84.6 5.9,76.3 14.5,72.8 L78.7,46.7 C79,46.6 79.2,46.5 79.5,46.4 L290.1,0.6 C291.3,0.3 292.5,0.5 293.6,1.1 L460.5,94.6 C462,95.4 463,97 463.1,98.7 C463.2,100.1 464.8,133.2 464.704497,140.8 C464.5,152.7 457.6,163 446.7,167.6 L225,262.6 L225,262.6 C218.2,265.5 211.2,266.9 204.2,266.9 Z M10.3,116.4 L177.6,247.8 C189.9,257.4 206.5,259.5 220.9,253.5 L442.6,158.5 C449.9,155.4 454.4,148.6 454.6,140.8 C454.7,134.7 453.6,110.4 453.2,102.1 L290.4,10.9 L82.1,56 L18.3,82 C13.4,84 10.3,88.6 10.3,93.9 L10.3,116.4 Z"/></g><g transform="translate(23.000000, 285.000000)"><path id="Path" fill="#F3F6E6" d="M199.9,251.2 L421.6,156.2 C439.2,148.8 441.9,124.9 426.4,113.7 L292.8,16.5 C277.4,5.4 257.5,2.9 239.9,9.9 L21,96.8 C3.9,103.6 0.7,126.3 15.2,137.6 L151.6,245 C165.4,255.6 183.9,258 199.9,251.2 Z"/><path id="Shape" fill="#383A48" d="M181.2,260 C169.6,260 158,256.2 148.5,248.8 L12,141.4 C3.8,135 -0.3,125 1.2,114.7 C2.7,104.4 9.4,95.9 19.1,92.1 L238,5.2 C257.3,-2.4 278.9,0.3 295.7,12.4 L429.3,109.6 C438,115.9 442.6,126.1 441.3,136.9 C440.1,147.6 433.4,156.6 423.5,160.8 L201.8,255.8 L201.8,255.8 C195.2,258.6 188.2,260 181.2,260 Z M260.4,10.9 C254.1,10.9 247.8,12.1 241.8,14.5 L22.9,101.4 C16.6,103.9 12.2,109.4 11.3,116.1 C10.3,122.8 13,129.3 18.3,133.5 L154.7,241 C167,250.6 183.6,252.7 198,246.7 L419.7,151.7 C426.3,148.9 430.7,143 431.5,135.9 C432.3,128.8 429.3,122.1 423.5,117.9 L289.9,20.7 C281.1,14.2 270.8,10.9 260.4,10.9 Z"/></g></g><g fill-rule="nonzero"><g transform="translate(942.000000, 354.000000)"><rect id="Rectangle" width="455" height="455" x="5.7" y="5.7" fill="#E0719E"/><path id="Shape" fill="#383A48" d="M460.7,465.7 L5.7,465.7 C2.9,465.7 0.7,463.5 0.7,460.7 L0.7,5.7 C0.7,2.9 2.9,0.7 5.7,0.7 L460.7,0.7 C463.5,0.7 465.7,2.9 465.7,5.7 L465.7,460.7 C465.7,463.5 463.4,465.7 460.7,465.7 Z M10.7,455.7 L455.7,455.7 L455.7,10.7 L10.7,10.7 L10.7,455.7 Z"/></g><g transform="translate(942.000000, 354.000000) translate(46.000000, 218.000000)"><rect id="Rectangle" width="187.5" height="81.1" x="5.7" y="5.4" fill="#F3F6E6"/><path id="Shape" fill="#383A48" d="M193.2,91.5 L5.7,91.5 C2.9,91.5 0.7,89.3 0.7,86.5 L0.7,5.4 C0.7,2.6 2.9,0.4 5.7,0.4 L193.2,0.4 C196,0.4 198.2,2.6 198.2,5.4 L198.2,86.5 C198.2,89.3 195.9,91.5 193.2,91.5 Z M10.7,81.5 L188.2,81.5 L188.2,10.4 L10.7,10.4 L10.7,81.5 Z"/></g><g transform="translate(942.000000, 354.000000) translate(297.000000, 218.000000)"><rect id="Rectangle" width="93.8" height="81.1" x="5" y="5.4" fill="#F3F6E6"/><path id="Shape" fill="#383A48" d="M98.8,91.5 L5,91.5 C2.2,91.5 0,89.3 0,86.5 L0,5.4 C0,2.6 2.2,0.4 5,0.4 L98.8,0.4 C101.6,0.4 103.8,2.6 103.8,5.4 L103.8,86.5 C103.8,89.3 101.5,91.5 98.8,91.5 Z M10,81.5 L93.8,81.5 L93.8,10.4 L10,10.4 L10,81.5 Z"/></g><g fill="#383A48" transform="translate(942.000000, 354.000000)"><rect id="Rectangle" width="455" height="136" x="5.7" y="5.7"/><path id="Shape" d="M465.7,146.7 L0.7,146.7 L0.7,0.7 L465.7,0.7 L465.7,146.7 Z M10.7,136.7 L455.7,136.7 L455.7,10.7 L10.7,10.7 L10.7,136.7 Z"/></g></g><g fill-rule="nonzero"><g transform="translate(907.000000, 311.000000)"><rect id="Rectangle" width="455" height="455" x="5" y="5.7" fill="#E06A63"/><path id="Shape" fill="#383A48" d="M465,465.7 L0,465.7 L0,0.7 L465,0.7 L465,465.7 Z M10,455.7 L455,455.7 L455,10.7 L10,10.7 L10,455.7 Z"/></g><g transform="translate(907.000000, 311.000000) translate(46.000000, 218.000000)"><rect id="Rectangle" width="187.5" height="81.1" x="5" y="5.3" fill="#F3F6E6"/><path id="Shape" fill="#383A48" d="M192.5,91.4 L5,91.4 C2.2,91.4 0,89.2 0,86.4 L0,5.3 C0,2.5 2.2,0.3 5,0.3 L192.5,0.3 C195.3,0.3 197.5,2.5 197.5,5.3 L197.5,86.4 C197.5,89.2 195.3,91.4 192.5,91.4 Z M10,81.4 L187.5,81.4 L187.5,10.3 L10,10.3 L10,81.4 Z"/></g><g transform="translate(907.000000, 311.000000) translate(296.000000, 218.000000)"><rect id="Rectangle" width="93.8" height="81.1" x="5.3" y="5.3" fill="#F3F6E6"/><path id="Shape" fill="#383A48" d="M99.1,91.4 L5.3,91.4 C2.5,91.4 0.3,89.2 0.3,86.4 L0.3,5.3 C0.3,2.5 2.5,0.3 5.3,0.3 L99.1,0.3 C101.9,0.3 104.1,2.5 104.1,5.3 L104.1,86.4 C104.1,89.2 101.8,91.4 99.1,91.4 Z M10.3,81.4 L94.1,81.4 L94.1,10.3 L10.3,10.3 L10.3,81.4 Z"/></g><g fill="#383A48" transform="translate(907.000000, 311.000000)"><rect id="Rectangle" width="455" height="136" x="5" y="5.7"/><path id="Shape" d="M465,146.7 L0,146.7 L0,0.7 L465,0.7 L465,146.7 Z M10,136.7 L455,136.7 L455,10.7 L10,10.7 L10,136.7 Z"/></g></g><g fill-rule="nonzero"><g transform="translate(871.000000, 268.000000)"><rect id="Rectangle" width="455" height="455" x="5.3" y="5.6" fill="#E79D3F"/><path id="Shape" fill="#383A48" d="M465.3,465.6 L0.3,465.6 L0.3,0.6 L465.3,0.6 L465.3,465.6 Z M10.3,455.6 L455.3,455.6 L455.3,10.6 L10.3,10.6 L10.3,455.6 Z"/></g><g fill="#383A48" transform="translate(871.000000, 268.000000) translate(0.000000, 130.000000)"><rect id="Rectangle" width="367.7" height="294.6" x="5.3" y="5.6"/><path id="Shape" d="M378,305.2 L0.3,305.2 L0.3,0.6 L378,0.6 L378,305.2 Z M10.3,295.2 L368,295.2 L368,10.6 L10.3,10.6 L10.3,295.2 Z"/></g><g transform="translate(871.000000, 268.000000) translate(46.000000, 218.000000)"><rect id="Rectangle" width="187.5" height="81.1" x="5.3" y="5.3" fill="#F3F6E6"/><path id="Shape" fill="#383A48" d="M192.8,91.4 L5.3,91.4 C2.5,91.4 0.3,89.2 0.3,86.4 L0.3,5.3 C0.3,2.5 2.5,0.3 5.3,0.3 L192.8,0.3 C195.6,0.3 197.8,2.5 197.8,5.3 L197.8,86.4 C197.8,89.2 195.6,91.4 192.8,91.4 Z M10.3,81.4 L187.8,81.4 L187.8,10.3 L10.3,10.3 L10.3,81.4 Z"/></g><g transform="translate(871.000000, 268.000000) translate(296.000000, 218.000000)"><rect id="Rectangle" width="93.8" height="81.1" x="5.6" y="5.3" fill="#F3F6E6"/><path id="Shape" fill="#383A48" d="M99.4,91.4 L5.6,91.4 C2.8,91.4 0.6,89.2 0.6,86.4 L0.6,5.3 C0.6,2.5 2.8,0.3 5.6,0.3 L99.4,0.3 C102.2,0.3 104.4,2.5 104.4,5.3 L104.4,86.4 C104.4,89.2 102.2,91.4 99.4,91.4 Z M10.6,81.4 L94.4,81.4 L94.4,10.3 L10.6,10.3 L10.6,81.4 Z"/></g><g fill="#383A48" transform="translate(871.000000, 268.000000)"><rect id="Rectangle" width="455" height="136" x="5.3" y="5.6"/><path id="Shape" d="M465.3,146.7 L0.3,146.7 L0.3,0.7 L465.3,0.7 L465.3,146.7 Z M10.3,136.7 L455.3,136.7 L455.3,10.7 L10.3,10.7 L10.3,136.7 Z"/></g></g><g fill-rule="nonzero" transform="translate(763.000000, 203.000000)"><rect id="Rectangle" width="455" height="455" x="5.1" y="5.9" fill="#F3F6E6"/><path id="Shape" fill="#383A48" d="M465,465.9 L0,465.9 L0,0.9 L465,0.9 L465,465.9 Z M10.1,455.9 L455.1,455.9 L455.1,10.9 L10.1,10.9 L10.1,455.9 Z"/></g><g fill-rule="nonzero" transform="translate(693.000000, 317.000000)"><rect id="Rectangle" width="187.5" height="81.1" x="5.3" y="5.5" fill="#F3F6E6"/><path id="Shape" fill="#383A48" d="M192.8,91.6 L5.3,91.6 C2.5,91.6 0.3,89.4 0.3,86.6 L0.3,5.5 C0.3,2.7 2.5,0.5 5.3,0.5 L192.8,0.5 C195.6,0.5 197.8,2.7 197.8,5.5 L197.8,86.6 C197.8,89.4 195.6,91.6 192.8,91.6 Z M10.3,81.6 L187.8,81.6 L187.8,10.5 L10.3,10.5 L10.3,81.6 Z"/></g><g fill-rule="nonzero" transform="translate(943.000000, 317.000000)"><rect id="Rectangle" width="93.8" height="81.1" x="5.7" y="5.5" fill="#F3F6E6"/><path id="Shape" fill="#383A48" d="M99.4,91.6 L5.6,91.6 C2.8,91.6 0.6,89.4 0.6,86.6 L0.6,5.5 C0.6,2.7 2.8,0.5 5.6,0.5 L99.4,0.5 C102.2,0.5 104.4,2.7 104.4,5.5 L104.4,86.6 C104.4,89.4 102.2,91.6 99.4,91.6 Z M10.7,81.6 L94.5,81.6 L94.5,10.5 L10.7,10.5 L10.7,81.6 Z"/></g><rect id="Rectangle" width="465" height="146" x="596" y="67.9" fill="#383A48" fill-rule="nonzero"/><g transform="translate(114.000000, 18.000000)"><rect id="Rectangle" width="10" height="33" x="11.8" y=".8" fill="#383A48" fill-rule="nonzero"/><g transform="translate(0.000000, 12.000000)"><line id="Path" x1=".4" x2="33.3" y1="5.3" y2="5.3"/><rect id="Rectangle" width="33" height="10" x=".4" y=".3" fill="#383A48" fill-rule="nonzero"/></g></g><g transform="translate(655.000000, 698.000000)"><rect id="Rectangle" width="10" height="33" x="11.9" y=".2" fill="#383A48" fill-rule="nonzero"/><g transform="translate(0.000000, 11.000000)"><line id="Path" x1=".4" x2="33.4" y1="5.6" y2="5.6"/><rect id="Rectangle" width="33" height="10" x=".4" y=".6" fill="#383A48" fill-rule="nonzero"/></g></g><path id="Shape" fill="#383A48" fill-rule="nonzero" d="M558.6,633.7 C552.4,633.7 546.4,631.1 541.8,626 C534.5,617.9 535.1,604.2 543.2,591.7 C548.6,583.5 561.6,569.5 589.9,562.9 C593.1,535.7 592.3,501.1 587.5,459.7 C578.5,381.5 552.4,317 512.2,273.3 C473.6,231.3 422.9,209.1 365.5,209.1 C362.7,209.1 360.5,206.9 360.5,204.1 C360.5,201.3 362.7,199.1 365.5,199.1 C425.8,199.1 479.1,222.4 519.6,266.5 C561.3,311.8 588.2,378.2 597.5,458.5 C602.6,503 602.9,536.2 600.3,560.9 C632.2,556.2 671.6,561.7 717.7,577.3 C720.3,578.2 721.7,581 720.8,583.6 C719.9,586.2 717.1,587.6 714.5,586.7 C669,571.4 630.4,566.1 599.8,571.1 C599.5,571.1 599.3,571.2 599,571.2 C592.6,614.2 577.2,627.4 568.4,631.3 C565.2,633 561.8,633.7 558.6,633.7 Z M588.4,573.7 C566.1,579.7 555.8,590.7 551.5,597.3 C546.8,604.4 544.5,614.3 549.1,619.4 C553.1,623.8 558.7,624.9 564.2,622.5 C569.8,619.9 580.3,611.3 586.7,582.4 C587.4,579.5 587.9,576.7 588.4,573.7 Z"/></g></g></g></svg>