<?xml version="1.0" encoding="UTF-8"?>
<svg width="1384px" height="709px" viewBox="0 0 1384 709" version="1.1" xmlns="http://www.w3.org/2000/svg" xmlns:xlink="http://www.w3.org/1999/xlink">
    <!-- Generator: Sketch 59.1 (86144) - https://sketch.com -->
    <title>bio-technology</title>
    <desc>Created with Sketch.</desc>
    <g id="Page-1" stroke="none" stroke-width="1" fill="none" fill-rule="evenodd">
        <g id="bio-technology" transform="translate(-310.000000, -185.000000)">
            <g id="Group" transform="translate(259.000000, 185.000000)">
                <path d="M1429.1,0.3 L868.6,0.3 C866.9,0.3 865.3,1.2 864.4,2.7 C863.5,4.2 863.4,6 864.2,7.6 C927.2,135.4 997.3,146 1059.1,155.3 C1118.4,164.3 1169.5,172 1208.1,276.4 C1242.2,368.6 1286.5,415 1325.7,455.9 C1352.2,483.5 1377.1,509.6 1395,546.3 C1414.9,587.1 1424.1,637.1 1424.1,703.6 C1424.1,706.4 1426.3,708.6 1429.1,708.6 C1431.9,708.6 1434.1,706.4 1434.1,703.6 L1434.1,5.3 C1434.1,2.6 1431.9,0.3 1429.1,0.3 Z" id="Path" fill-rule="nonzero"></path>
                <g transform="translate(1068.000000, 288.000000)" fill-rule="nonzero">
                    <path d="M216.6,10.6 L92.1,10.6 C89.3,10.6 87.1,8.4 87.1,5.6 C87.1,2.8 89.3,0.6 92.1,0.6 L216.6,0.6 C219.4,0.6 221.6,2.8 221.6,5.6 C221.6,8.4 219.4,10.6 216.6,10.6 Z" id="Path" fill="#383A48"></path>
                    <path d="M258.1,420.4 C258,420.4 258,420.4 257.9,420.4 L154.3,420.1 L50.7,420.4 C50.6,420.4 50.6,420.4 50.5,420.4 C37.1,420.4 24.4,415.2 14.9,405.7 C5.3,396.2 0.1,383.5 0.1,370 L0.1,342 C0.1,319.5 8.5,297.9 23.7,281.3 L105.2,192.5 L105.2,5.6 C105.2,2.8 107.4,0.6 110.2,0.6 L198.2,0.6 C201,0.6 203.2,2.8 203.2,5.6 L203.2,192.5 L284.7,281.3 C299.9,297.9 308.3,319.5 308.3,342 L308.3,370 C308.3,383.5 303,396.2 293.5,405.7 C284.2,415.2 271.5,420.4 258.1,420.4 Z M154.3,410 L218.2,410.2 L218.2,410.2 L257.9,410.3 L258,410.3 C268.8,410.3 278.9,406.1 286.5,398.5 C294.2,390.9 298.4,380.7 298.4,369.9 L298.4,341.9 C298.4,321.9 290.9,302.7 277.4,287.9 L194.6,197.6 C193.8,196.7 193.3,195.5 193.3,194.2 L193.3,10.6 L115.3,10.6 L115.3,194.4 C115.3,195.7 114.8,196.9 114,197.8 L31.2,288.1 C17.6,302.9 10.2,322 10.2,342.1 L10.2,370.1 C10.2,380.9 14.4,391.1 22.1,398.7 C29.7,406.3 39.9,410.5 50.6,410.5 L50.7,410.5 L154.3,410 Z" id="Shape" fill="#383A48"></path>
                    <g transform="translate(0.000000, 216.000000)">
                        <path d="M303.5,126 L303.5,154 C303.5,179.1 283.1,199.5 258,199.400366 L218.3,199.3 L154.4,199.1 L50.8,199.400366 C25.7,199.5 5.3,179.1 5.3,154 L5.3,126 C5.3,104.8 13.3,84.3 27.6,68.6 L85.4,5.6 L223.5,5.6 L281.3,68.6 C295.5,84.3 303.5,104.8 303.5,126 Z" id="Path" fill="#E0719E"></path>
                        <path d="M258.1,204.4 C258,204.4 258,204.4 257.9,204.4 L154.3,204.1 L50.7,204.4 C50.6,204.4 50.6,204.4 50.5,204.4 C37.1,204.4 24.4,199.2 14.9,189.7 C5.3,180.2 0.1,167.5 0.1,154 L0.1,126 C0.1,103.5 8.5,81.9 23.7,65.3 L81.5,2.3 C82.4,1.3 83.8,0.7 85.2,0.7 L223.3,0.7 C224.7,0.7 226,1.3 227,2.3 L284.8,65.3 C300,81.9 308.4,103.5 308.4,126 L308.4,154 C308.4,167.5 303.1,180.2 293.6,189.7 C284.2,199.2 271.5,204.4 258.1,204.4 Z M154.3,194 L257.9,194.3 L258,194.3 C268.8,194.3 278.9,190.1 286.5,182.5 C294.2,174.9 298.4,164.7 298.4,153.9 L298.4,125.9 C298.4,105.9 290.9,86.7 277.4,71.9 L221.1,10.6 L87.4,10.6 L31.1,71.9 C17.5,86.7 10.1,105.8 10.1,125.9 L10.1,153.9 C10.1,164.7 14.3,174.9 22,182.5 C29.6,190.1 39.8,194.3 50.5,194.3 L50.6,194.3 L154.3,194 Z" id="Shape" fill="#383A48"></path>
                    </g>
                </g>
                <path d="M597.1,702.9 C582.8,579.6 536.4,540.5 487.4,499.2 C484.4,496.6 481.3,494.1 478.2,491.5 C428.8,449.5 382.3,401.1 354.8,273.6 C343.4,220.4 324.6,186.5 295.9,166.9 C270.1,149.3 239.5,145.5 207.1,141.5 C174.8,137.5 141.4,133.3 108.2,115.5 C69.4,94.7 37.4,57.9 10.4,3.2 C9.4,1.1 7,5.68434189e-14 4.8,0.5 C2.5,1 0.9,3 0.9,5.4 L0.9,703.6 C0.9,706.4 3.1,708.6 5.9,708.6 L592.1,708.6 C593.5,708.6 594.9,708 595.8,706.9 C596.8,705.8 597.3,704.3 597.1,702.9 Z" id="Path" fill-rule="nonzero"></path>
                <g transform="translate(1001.000000, 136.000000)">
                    <g transform="translate(197.000000, 0.000000)">
                        <rect id="Rectangle" x="0.6" y="0.4" width="24.7" height="24.7"></rect>
                        <circle id="Oval" fill="#383A48" fill-rule="nonzero" cx="12.9" cy="12.8" r="5"></circle>
                    </g>
                    <g transform="translate(172.000000, 0.000000)">
                        <rect id="Rectangle" x="0.9" y="0.4" width="24.7" height="24.7"></rect>
                        <circle id="Oval" fill="#383A48" fill-rule="nonzero" cx="13.2" cy="12.8" r="5"></circle>
                    </g>
                    <g transform="translate(148.000000, 0.000000)">
                        <rect id="Rectangle" x="0.2" y="0.4" width="24.7" height="24.7"></rect>
                        <circle id="Oval" fill="#383A48" fill-rule="nonzero" cx="12.6" cy="12.8" r="5"></circle>
                    </g>
                    <g transform="translate(123.000000, 0.000000)">
                        <rect id="Rectangle" x="0.6" y="0.4" width="24.7" height="24.7"></rect>
                        <circle id="Oval" fill="#383A48" fill-rule="nonzero" cx="12.9" cy="12.8" r="5"></circle>
                    </g>
                    <g transform="translate(98.000000, 0.000000)">
                        <rect id="Rectangle" x="0.9" y="0.4" width="24.7" height="24.7"></rect>
                        <circle id="Oval" fill="#383A48" fill-rule="nonzero" cx="13.2" cy="12.8" r="5"></circle>
                    </g>
                    <g transform="translate(74.000000, 0.000000)">
                        <rect id="Rectangle" x="0.2" y="0.4" width="24.7" height="24.7"></rect>
                        <circle id="Oval" fill="#383A48" fill-rule="nonzero" cx="12.6" cy="12.8" r="5"></circle>
                    </g>
                    <g transform="translate(49.000000, 0.000000)">
                        <rect id="Rectangle" x="0.6" y="0.4" width="24.7" height="24.7"></rect>
                        <circle id="Oval" fill="#383A48" fill-rule="nonzero" cx="12.9" cy="12.8" r="5"></circle>
                    </g>
                    <g transform="translate(24.000000, 0.000000)">
                        <rect id="Rectangle" x="0.9" y="0.4" width="24.7" height="24.7"></rect>
                        <circle id="Oval" fill="#383A48" fill-rule="nonzero" cx="13.2" cy="12.8" r="5"></circle>
                    </g>
                    <g>
                        <rect id="Rectangle" x="0.2" y="0.4" width="24.7" height="24.7"></rect>
                        <circle id="Oval" fill="#383A48" fill-rule="nonzero" cx="12.6" cy="12.8" r="5"></circle>
                    </g>
                </g>
                <path d="M1316,645.5 L1225.4,507 L1182.5,441.4 C1181.3,439.5 1179,438.7 1176.9,439.3 C1174.8,439.9 1173.3,441.9 1173.3,444.1 L1173.3,480.5 L1149.6,506.4 L1091.8,569.4 C1076.6,586 1068.2,607.6 1068.2,630.1 L1068.2,658.1 C1068.2,671.6 1073.5,684.3 1083,693.8 C1092.5,703.3 1105.1,708.5 1118.6,708.5 C1118.7,708.5 1118.7,708.5 1118.8,708.5 L1222.4,708.2 L1286.3,708.4 C1286.5,708.4 1286.7,708.4 1286.9,708.4 C1300.9,706.7 1312.8,698.1 1318.8,685.2 C1324.8,672.2 1323.8,657.4 1316,645.5 Z" id="Path" fill="#383A48" fill-rule="nonzero"></path>
                <g transform="translate(828.000000, 152.000000)" fill-rule="nonzero">
                    <g>
                        <g>
                            <path d="M378.8,551.5 L41.6,551.5 C13.2,551.5 -3.9,520 11.6,496.2 L105.7,351.5 L141.3,296.7 L141.3,5.7 L279.2,5.7 L279.2,296.7 L314.8,351.5 L408.8,496.2 C424.3,520 407.2,551.5 378.8,551.5 Z" id="Path" fill="#EEBED3"></path>
                            <path d="M378.8,556.5 L41.6,556.5 C26.4,556.5 13,548.5 5.8,535.2 C-1.4,521.8 -0.8,506.3 7.4,493.5 L136.2,295.3 L136.2,5.8 C136.2,3 138.4,0.8 141.2,0.8 L279.1,0.8 C281.9,0.8 284.1,3 284.1,5.8 L284.1,295.3 L413,493.5 C421.3,506.2 421.9,521.8 414.6,535.2 C407.4,548.5 394,556.5 378.8,556.5 Z M146.3,10.8 L146.3,296.8 C146.3,297.8 146,298.7 145.5,299.5 L15.9,499 C9.6,508.6 9.2,520.4 14.7,530.5 C20.2,540.6 30.3,546.6 41.8,546.6 L379,546.6 C390.5,546.6 400.6,540.6 406.1,530.5 C411.6,520.4 411.1,508.7 404.9,499 L310.9,354.3 L275.3,299.6 C274.8,298.8 274.5,297.8 274.5,296.9 L274.5,10.9 L146.3,10.8 L146.3,10.8 Z" id="Shape" fill="#383A48"></path>
                        </g>
                        <g transform="translate(116.000000, 0.000000)" id="Path">
                            <polyline fill="#EEBED3" points="182.7 5.8 94.2 5.8 5.7 5.8"></polyline>
                            <path d="M182.7,10.8 L5.7,10.8 C2.9,10.8 0.7,8.6 0.7,5.8 C0.7,3 2.9,0.8 5.7,0.8 L182.7,0.8 C185.5,0.8 187.7,3 187.7,5.8 C187.7,8.6 185.5,10.8 182.7,10.8 Z" fill="#383A48"></path>
                        </g>
                    </g>
                    <g transform="translate(29.000000, 346.000000)">
                        <path d="M349.8,205.5 L12.6,205.5 C10.2,205.5 7.8,205.3 5.6,204.8 C55.4,199.1 94.1,156.8 94.1,105.5 C94.1,75.7 81.1,48.9 60.4,30.6 L76.7,5.5 L285.8,5.5 L379.8,150.2 C395.3,174 378.2,205.5 349.8,205.5 Z" id="Path" fill="#AAC6FC"></path>
                        <path d="M349.8,210.5 L12.6,210.5 C9.9,210.5 7.2,210.2 4.6,209.7 C2.2,209.2 0.5,207.1 0.6,204.6 C0.7,202.1 2.6,200.1 5,199.8 C52.9,194.3 89,153.7 89,105.4 C89,78.2 77.3,52.3 56.9,34.3 C55,32.7 54.7,29.9 56,27.8 L72.3,2.7 C73.2,1.3 74.8,0.4 76.5,0.4 L285.6,0.4 C287.3,0.4 288.9,1.3 289.8,2.7 L383.8,147.4 C392.1,160.1 392.7,175.7 385.4,189.1 C378.4,202.5 365,210.5 349.8,210.5 Z M39,200.5 L349.9,200.5 C361.4,200.5 371.5,194.5 377,184.4 C382.5,174.3 382,162.6 375.8,152.9 L283.2,10.5 L79.5,10.5 L67,29.8 C87.5,49.6 99.2,76.9 99.2,105.5 C99.1,147.2 74.8,183.6 39,200.5 Z" id="Shape" fill="#383A48"></path>
                        <g transform="translate(126.000000, 37.000000)">
                            <g transform="translate(111.000000, 47.000000)">
                                <circle id="Oval" fill="#AAC6FC" cx="19.2" cy="19.1" r="13.8"></circle>
                                <path d="M19.2,37.9 C8.8,37.9 0.4,29.4 0.4,19.1 C0.4,8.7 8.9,0.3 19.2,0.3 C29.6,0.3 38,8.8 38,19.1 C38.1,29.5 29.6,37.9 19.2,37.9 Z M19.2,10.3 C14.3,10.3 10.4,14.3 10.4,19.1 C10.4,23.9 14.4,27.9 19.2,27.9 C24,27.9 28,23.9 28,19.1 C28,14.3 24.1,10.3 19.2,10.3 Z" id="Shape" fill="#F3F6E6"></path>
                            </g>
                            <g transform="translate(13.000000, 92.000000)">
                                <circle id="Oval" fill="#AAC6FC" cx="19.7" cy="19.3" r="13.8"></circle>
                                <path d="M19.7,38.1 C9.3,38.1 0.9,29.6 0.9,19.3 C0.9,8.9 9.4,0.5 19.7,0.5 C30.1,0.5 38.5,9 38.5,19.3 C38.6,29.7 30.1,38.1 19.7,38.1 Z M19.7,10.4 C14.8,10.4 10.9,14.4 10.9,19.2 C10.9,24 14.9,28 19.7,28 C24.5,28 28.5,24 28.5,19.2 C28.5,14.4 24.6,10.4 19.7,10.4 Z" id="Shape" fill="#F3F6E6"></path>
                            </g>
                            <g>
                                <circle id="Oval" fill="#AAC6FC" cx="18.9" cy="19.3" r="13.8"></circle>
                                <path d="M18.9,38.1 C8.5,38.1 0.1,29.6 0.1,19.3 C0.1,8.9 8.6,0.5 18.9,0.5 C29.2,0.5 37.7,9 37.7,19.3 C37.7,29.7 29.3,38.1 18.9,38.1 Z M18.9,10.4 C14,10.4 10.1,14.4 10.1,19.2 C10.1,24 14.1,28 18.9,28 C23.7,28 27.7,24 27.7,19.2 C27.7,14.4 23.8,10.4 18.9,10.4 Z" id="Shape" fill="#F3F6E6"></path>
                            </g>
                        </g>
                    </g>
                </g>
                <g transform="translate(746.000000, 386.000000)" fill-rule="nonzero">
                    <g>
                        <g>
                            <path d="M148.6,127.4 L148.6,5.4 L61.6,5.4 L61.6,127.5 C28.2,143.7 5.1,177.9 5.1,217.6 C5.1,272.8 49.9,317.6 105.1,317.6 C160.3,317.6 205.1,272.8 205.1,217.6 C205.1,177.9 182,143.6 148.6,127.4 Z" id="Path" fill="#EEBED3"></path>
                            <path d="M105.1,322.5 C47.2,322.5 0.1,275.4 0.1,217.5 C0.1,197.4 5.8,177.8 16.6,161 C26.5,145.5 40.3,132.9 56.6,124.4 L56.6,5.4 C56.6,2.6 58.8,0.4 61.6,0.4 L148.6,0.4 C151.4,0.4 153.6,2.6 153.6,5.4 L153.6,124.4 C169.9,132.9 183.7,145.5 193.6,161 C204.4,177.9 210.1,197.4 210.1,217.5 C210.1,275.4 163,322.5 105.1,322.5 Z M66.6,10.4 L66.6,127.5 C66.6,129.4 65.5,131.2 63.8,132 C48,139.7 34.6,151.6 25,166.4 C15.2,181.7 10.1,199.3 10.1,217.5 C10.1,269.9 52.7,312.5 105.1,312.5 C157.5,312.5 200.1,269.9 200.1,217.5 C200.1,199.3 194.9,181.6 185.2,166.4 C175.7,151.5 162.3,139.6 146.4,132 C144.7,131.2 143.6,129.4 143.6,127.5 L143.6,10.4 L66.6,10.4 Z" id="Shape" fill="#383A48"></path>
                        </g>
                        <path d="M164.3,10.4 L48.3,10.4 C45.5,10.4 43.3,8.2 43.3,5.4 C43.3,2.6 45.5,0.4 48.3,0.4 L164.3,0.4 C167.1,0.4 169.3,2.6 169.3,5.4 C169.3,8.2 167,10.4 164.3,10.4 Z" id="Path" fill="#383A48"></path>
                    </g>
                    <g transform="translate(0.000000, 122.000000)">
                        <g transform="translate(82.000000, 15.000000)">
                            <path d="M123.1,80.5 C123.1,131.8 84.4,174.1 34.6,179.8 C10.5,175.2 -2.6,147 11.6,125.2 L89.3,5.6 C110.1,23.9 123.1,50.7 123.1,80.5 Z" id="Path" fill="#E0719E"></path>
                            <path d="M34.6,184.8 C34.3,184.8 34,184.8 33.7,184.7 C20.5,182.2 9.4,173.1 4.1,160.6 C-1.3,147.9 -0.1,134.1 7.5,122.5 L85.2,2.9 C86,1.7 87.3,0.9 88.7,0.7 C90.1,0.5 91.6,0.9 92.7,1.9 C115.2,21.8 128.1,50.5 128.1,80.5 C128.1,133.9 88.2,178.7 35.2,184.8 C35,184.8 34.8,184.8 34.6,184.8 Z M90.3,13.4 L15.8,128 C10.1,136.7 9.2,147.2 13.3,156.8 C17.2,166.1 25.3,172.8 34.9,174.9 C82.4,169.1 118.1,128.7 118.1,80.6 C118.1,55.3 108,31.1 90.3,13.4 Z" id="Shape" fill="#383A48"></path>
                        </g>
                        <g>
                            <path d="M116.6,194.8 C112.8,195.2 109,195.5 105.1,195.5 C49.9,195.5 5.1,150.7 5.1,95.5 C5.1,55.9 28.2,21.6 61.6,5.4 L148.6,5.4 C156.9,9.4 164.5,14.5 171.4,20.6 L93.7,140.2 C79.5,162 92.6,190.2 116.6,194.8 Z" id="Path" fill="#F6E049"></path>
                            <path d="M105.1,200.5 C47.2,200.5 0.1,153.4 0.1,95.5 C0.1,75.4 5.8,55.8 16.6,39 C27.1,22.6 41.9,9.4 59.4,1 L60.4,0.5 L149.7,0.5 L150.7,1 C159.4,5.2 167.4,10.5 174.6,16.9 L177.8,19.8 L97.7,143 C92,151.7 91.1,162.2 95.2,171.8 C99.2,181.3 107.6,188.1 117.5,190 L149.1,196.1 L117.2,199.9 C113.3,200.3 109.2,200.5 105.1,200.5 Z M62.8,10.4 C47.4,18.1 34.4,29.8 25.1,44.3 C15.3,59.6 10.2,77.2 10.2,95.4 C10.2,144.8 48.2,185.6 96.5,190 C92.1,186.1 88.6,181.1 86.2,175.5 C80.8,162.8 82,149 89.6,137.4 L164.9,21.5 C159.5,17.2 153.7,13.4 147.6,10.4 L62.8,10.4 Z" id="Shape" fill="#383A48"></path>
                        </g>
                    </g>
                </g>
                <g transform="translate(102.000000, 540.000000)" fill="#383A48" fill-rule="nonzero" id="Path">
                    <g>
                        <path d="M386.7,142.4 C386.5,142.4 386.3,142.4 386,142.4 C348.9,137.5 318.7,115.4 293.8,74.6 C269.2,34.5 232.1,10.6 194.6,10.6 C157.1,10.6 119.9,34.5 95.4,74.6 C74.4,108.8 40.2,134.4 6.2,141.4 C3.5,142 0.9,140.2 0.3,137.5 C-0.3,134.8 1.5,132.2 4.2,131.6 C35.6,125.1 67.3,101.3 86.9,69.3 C113.3,26.2 153.6,0.5 194.6,0.5 C235.6,0.5 276,26.2 302.3,69.3 C325.6,107.3 353.4,127.9 387.3,132.4 C390,132.8 392,135.3 391.6,138 C391.3,140.5 389.1,142.4 386.7,142.4 Z"></path>
                        <path d="M194.6,143.3 C153.5,143.3 113.2,117.6 86.9,74.5 C67.3,42.6 35.6,18.7 4.2,12.2 C1.5,11.6 -0.2,9 0.3,6.3 C0.9,3.6 3.5,1.8 6.2,2.4 C40.3,9.4 74.4,35 95.4,69.2 C120,109.3 157.1,133.2 194.6,133.2 C232.1,133.2 269.3,109.3 293.8,69.2 C318.8,28.5 348.9,6.3 386,1.4 C388.7,1 391.2,3 391.6,5.7 C392,8.4 390,10.9 387.3,11.3 C353.4,15.8 325.6,36.4 302.3,74.4 C275.9,117.6 235.6,143.3 194.6,143.3 Z"></path>
                        <path d="M22.2,136.3 C19.4,136.3 17.2,134.1 17.2,131.3 L17.2,12.5 C17.2,9.7 19.4,7.5 22.2,7.5 C25,7.5 27.2,9.7 27.2,12.5 L27.2,131.3 C27.2,134.1 25,136.3 22.2,136.3 Z"></path>
                        <path d="M56.8,115.8 C54,115.8 51.8,113.6 51.8,110.8 L51.8,33 C51.8,30.2 54,28 56.8,28 C59.6,28 61.8,30.2 61.8,33 L61.8,110.8 C61.8,113.6 59.6,115.8 56.8,115.8 Z"></path>
                    </g>
                    <g transform="translate(121.000000, 0.000000)">
                        <path d="M5.1,117.4 C2.3,117.4 0.1,115.2 0.1,112.4 L0.1,31.9 C0.1,29.1 2.3,26.9 5.1,26.9 C7.9,26.9 10.1,29.1 10.1,31.9 L10.1,112.4 C10.1,115.1 7.8,117.4 5.1,117.4 Z"></path>
                        <path d="M39.7,137.3 C36.9,137.3 34.7,135.1 34.7,132.3 L34.7,11.6 C34.7,8.8 36.9,6.6 39.7,6.6 C42.5,6.6 44.7,8.8 44.7,11.6 L44.7,132.2 C44.7,135 42.4,137.3 39.7,137.3 Z"></path>
                        <path d="M74.3,143.3 C71.5,143.3 69.3,141.1 69.3,138.3 L69.3,5.6 C69.3,2.8 71.5,0.6 74.3,0.6 C77.1,0.6 79.3,2.8 79.3,5.6 L79.3,138.3 C79.3,141.1 77.1,143.3 74.3,143.3 Z"></path>
                    </g>
                    <g transform="translate(190.000000, 0.000000)">
                        <path d="M5.3,143.3 C2.5,143.3 0.3,141.1 0.3,138.3 L0.3,5.6 C0.3,2.8 2.5,0.6 5.3,0.6 C8.1,0.6 10.3,2.8 10.3,5.6 L10.3,138.3 C10.3,141.1 8.1,143.3 5.3,143.3 Z"></path>
                        <path d="M39.9,136.7 C37.1,136.7 34.9,134.5 34.9,131.7 L34.9,12.2 C34.9,9.4 37.1,7.2 39.9,7.2 C42.7,7.2 44.9,9.4 44.9,12.2 L44.9,131.7 C44.9,134.5 42.7,136.7 39.9,136.7 Z"></path>
                        <path d="M74.5,115.5 C71.7,115.5 69.5,113.3 69.5,110.5 L69.5,32.8 C69.5,30 71.7,27.8 74.5,27.8 C77.3,27.8 79.5,30 79.5,32.8 L79.5,110.5 C79.5,113.3 77.3,115.5 74.5,115.5 Z"></path>
                    </g>
                    <path d="M333.8,119.3 C331,119.3 328.8,117.1 328.8,114.3 L328.8,29.7 C328.8,26.9 331,24.7 333.8,24.7 C336.6,24.7 338.8,26.9 338.8,29.7 L338.8,114.3 C338.8,117 336.5,119.3 333.8,119.3 Z"></path>
                    <path d="M368.4,138.3 C365.6,138.3 363.4,136.1 363.4,133.3 L363.4,10.6 C363.4,7.8 365.6,5.6 368.4,5.6 C371.2,5.6 373.4,7.8 373.4,10.6 L373.4,133.2 C373.4,136 371.1,138.3 368.4,138.3 Z"></path>
                </g>
                <g transform="translate(1224.000000, 66.000000)" fill-rule="nonzero">
                    <path d="M114.9,43.3 L89.4,43.3 C86.1,43.3 83.5,40.7 83.5,37.4 L83.5,11.9 C83.5,8.6 80.9,6 77.6,6 L48.4,6 C45.1,6 42.5,8.6 42.5,11.9 L42.5,37.4 C42.5,40.7 39.9,43.3 36.6,43.3 L11.1,43.3 C7.8,43.3 5.2,45.9 5.2,49.2 L5.2,78.4 C5.2,81.7 7.8,84.3 11.1,84.3 L36.6,84.3 C39.9,84.3 42.5,86.9 42.5,90.2 L42.5,115.7 C42.5,119 45.1,121.6 48.4,121.6 L77.6,121.6 C80.9,121.6 83.5,119 83.5,115.7 L83.5,90.2 C83.5,86.9 86.1,84.3 89.4,84.3 L114.9,84.3 C118.2,84.3 120.8,81.7 120.8,78.4 L120.8,49.2 C120.8,45.9 118.1,43.3 114.9,43.3 Z" id="Path" fill="#E0719E"></path>
                    <path d="M77.6,126.5 L48.4,126.5 C42.4,126.5 37.5,121.6 37.5,115.6 L37.5,90.1 C37.5,89.6 37.1,89.2 36.6,89.2 L11.1,89.2 C5.1,89.2 0.2,84.3 0.2,78.3 L0.2,49.1 C0.2,43.1 5.1,38.2 11.1,38.2 L36.6,38.2 C37.1,38.2 37.5,37.8 37.5,37.3 L37.5,11.8 C37.5,5.8 42.4,0.9 48.4,0.9 L77.6,0.9 C83.6,0.9 88.5,5.8 88.5,11.8 L88.5,37.3 C88.5,37.8 88.9,38.2 89.4,38.2 L114.9,38.2 C120.9,38.2 125.8,43.1 125.8,49.1 L125.8,78.3 C125.8,84.3 120.9,89.2 114.9,89.2 L89.4,89.2 C88.9,89.2 88.5,89.6 88.5,90.1 L88.5,115.6 C88.5,121.6 83.6,126.5 77.6,126.5 Z M11.2,48.3 C10.7,48.3 10.3,48.7 10.3,49.2 L10.3,78.4 C10.3,78.9 10.7,79.3 11.2,79.3 L36.7,79.3 C42.7,79.3 47.6,84.2 47.6,90.2 L47.6,115.7 C47.6,116.2 48,116.6 48.5,116.6 L77.7,116.6 C78.2,116.6 78.6,116.2 78.6,115.7 L78.6,90.2 C78.6,84.2 83.5,79.3 89.5,79.3 L115,79.3 C115.5,79.3 115.9,78.9 115.9,78.4 L115.9,49.2 C115.9,48.7 115.5,48.3 115,48.3 L89.5,48.3 C83.5,48.3 78.6,43.4 78.6,37.4 L78.6,11.9 C78.6,11.4 78.2,11 77.7,11 L48.5,11 C48,11 47.6,11.4 47.6,11.9 L47.6,37.4 C47.6,43.4 42.7,48.3 36.7,48.3 L11.2,48.3 Z" id="Shape" fill="#383A48"></path>
                </g>
                <g transform="translate(101.000000, 0.000000)" fill-rule="nonzero">
                    <path d="M377.3,491.5 C328,449.5 281.4,401.1 253.9,273.6 C242.5,220.4 223.7,186.5 195,166.9 C169.2,149.3 138.6,145.5 106.2,141.5 C73.9,137.5 40.5,133.3 7.3,115.5 C5.8,114.7 3.9,114.7 2.4,115.6 C0.9,116.5 0,118.1 0,119.9 L0,495.3 C0,498.1 2.2,500.3 5,500.3 L374,500.3 C376.1,500.3 378,499 378.7,497 C379.5,495 378.9,492.8 377.3,491.5 Z" id="Path" fill="#383A48"></path>
                    <g transform="translate(29.000000, 73.000000)">
                        <g>
                            <rect id="Rectangle" fill="#F3F6E6" x="5.4" y="5.5" width="562.5" height="386"></rect>
                            <path d="M567.9,396.5 L5.4,396.5 C2.6,396.5 0.4,394.3 0.4,391.5 L0.4,5.5 C0.4,2.7 2.6,0.5 5.4,0.5 L567.9,0.5 C570.7,0.5 572.9,2.7 572.9,5.5 L572.9,391.5 C572.9,394.3 570.6,396.5 567.9,396.5 Z M10.4,386.5 L562.9,386.5 L562.9,10.5 L10.4,10.5 L10.4,386.5 Z" id="Shape" fill="#383A48"></path>
                        </g>
                        <g>
                            <rect id="Rectangle" fill="#F6E049" x="5.4" y="5.5" width="562.5" height="89"></rect>
                            <path d="M572.9,99.5 L0.4,99.5 L0.4,0.5 L572.9,0.5 L572.9,99.5 Z M10.4,89.5 L562.9,89.5 L562.9,10.5 L10.4,10.5 L10.4,89.5 Z" id="Shape" fill="#383A48"></path>
                        </g>
                        <g transform="translate(54.000000, 135.000000)" id="Path">
                            <polyline fill="#F3F6E6" points="442.8 94.2 420.6 94.2 409.6 114.6 397.6 75.9 386.2 94.2 363.2 94.2 356.6 46.2 328.2 168.9 310.4 5.6 290.5 94.7 257.5 94.7 254.8 94.7 168.5 94.2 157.5 114.6 145.5 75.9 134.1 94.2 111.1 94.2 104.5 46.2 76.1 168.9 58.3 5.6 38.4 94.7 5.4 94.7"></polyline>
                            <path d="M328.3,173.9 C328.2,173.9 328.1,173.9 328,173.9 C325.6,173.8 323.6,171.9 323.3,169.5 L308.7,36.2 L295.4,95.9 C294.9,98.2 292.9,99.8 290.5,99.8 L254.8,99.8 L171.5,99.3 L161.9,117 C160.9,118.8 159,119.8 157,119.6 C155,119.4 153.3,118 152.7,116.1 L144,87.9 L138.4,96.9 C137.5,98.4 135.9,99.3 134.1,99.3 L111.1,99.3 C108.6,99.3 106.5,97.5 106.1,95 L103.2,73.8 L81,170 C80.5,172.4 78.3,174 75.8,173.9 C73.4,173.8 71.4,171.9 71.1,169.5 L56.5,36.2 L43.2,95.9 C42.7,98.2 40.7,99.8 38.3,99.8 L5.3,99.8 C2.5,99.8 0.3,97.6 0.3,94.8 C0.3,92 2.5,89.8 5.3,89.8 L34.3,89.8 L53.3,4.6 C53.8,2.2 56,0.6 58.5,0.7 C60.9,0.8 62.9,2.7 63.2,5.1 L77.9,139.1 L99.6,45.2 C100.1,42.9 102.3,41.2 104.7,41.3 C107.1,41.4 109.1,43.2 109.4,45.6 L115.5,89.3 L131.4,89.3 L141.3,73.3 C142.3,71.6 144.2,70.7 146.2,71 C148.1,71.2 149.8,72.6 150.3,74.5 L158.8,101.8 L164.1,91.9 C165,90.3 166.7,89.3 168.5,89.3 L168.5,89.3 L257.5,89.8 L286.5,89.8 L305.5,4.6 C306,2.2 308.2,0.6 310.7,0.7 C313.1,0.8 315.1,2.7 315.4,5.1 L330,139 L351.7,45.1 C352.2,42.8 354.4,41.1 356.8,41.2 C359.2,41.3 361.2,43.1 361.5,45.5 L367.6,89.2 L383.5,89.2 L393.4,73.2 C394.4,71.5 396.3,70.6 398.3,70.9 C400.2,71.1 401.9,72.5 402.4,74.4 L410.9,101.7 L416.2,91.8 C417.1,90.2 418.8,89.2 420.6,89.2 L442.8,89.2 C445.6,89.2 447.8,91.4 447.8,94.2 C447.8,97 445.6,99.2 442.8,99.2 L423.5,99.2 L413.9,116.9 C412.9,118.7 411,119.7 409,119.5 C407,119.3 405.3,117.9 404.7,116 L396,87.8 L390.4,96.8 C389.5,98.3 387.9,99.2 386.1,99.2 L363.1,99.2 C360.6,99.2 358.5,97.4 358.1,94.9 L355.2,73.7 L333.1,170 C332.6,172.3 330.6,173.9 328.3,173.9 Z" fill="#383A48"></path>
                        </g>
                        <g transform="translate(409.000000, 18.000000)" fill="#383A48">
                            <g transform="translate(97.000000, 2.000000)" id="Rectangle">
                                <rect transform="translate(16.095330, 16.175510) rotate(-45.000000) translate(-16.095330, -16.175510) " x="11.095378" y="-0.324331764" width="9.9999041" height="32.9996835"></rect>
                                <rect transform="translate(16.085330, 16.187210) rotate(-45.000000) translate(-16.085330, -16.187210) " x="-0.414511764" y="11.187258" width="32.9996835" height="9.9999041"></rect>
                            </g>
                            <path d="M81.6,35.9 L46.1,35.9 L46.1,0.4 L81.6,0.4 L81.6,35.9 Z M56.2,25.9 L71.7,25.9 L71.7,10.4 L56.2,10.4 L56.2,25.9 Z" id="Shape"></path>
                            <rect id="Rectangle" x="0.5" y="25.9" width="25.5" height="10"></rect>
                        </g>
                    </g>
                    <g transform="translate(77.000000, 35.000000)">
                        <g>
                            <rect id="Rectangle" fill="#F3F6E6" x="5.6" y="5.7" width="562.5" height="386"></rect>
                            <path d="M568.1,396.8 L5.6,396.8 C2.8,396.8 0.6,394.6 0.6,391.8 L0.6,5.8 C0.6,3 2.8,0.8 5.6,0.8 L568.1,0.8 C570.9,0.8 573.1,3 573.1,5.8 L573.1,391.8 C573.1,394.5 570.8,396.8 568.1,396.8 Z M10.6,386.8 L563.1,386.8 L563.1,10.8 L10.6,10.8 L10.6,386.8 Z" id="Shape" fill="#383A48"></path>
                        </g>
                        <g>
                            <rect id="Rectangle" fill="#F6E049" x="5.6" y="5.7" width="562.5" height="89"></rect>
                            <path d="M573.1,99.8 L0.6,99.8 L0.6,0.8 L573.1,0.8 L573.1,99.8 Z M10.6,89.8 L563.1,89.8 L563.1,10.8 L10.6,10.8 L10.6,89.8 Z" id="Shape" fill="#383A48"></path>
                        </g>
                        <g transform="translate(54.000000, 143.000000)" id="Path">
                            <polyline fill="#F3F6E6" points="443 93.5 420.8 93.5 409.8 113.8 397.8 75.2 386.5 93.5 363.5 93.5 356.8 45.5 328.5 168.2 310.6 4.9 290.7 94 257.7 94 255 94 168.7 93.5 157.7 113.8 145.7 75.2 134.3 93.5 111.3 93.5 104.7 45.5 76.3 168.2 58.5 4.9 38.6 94 5.6 94"></polyline>
                            <path d="M328.5,173.2 C328.4,173.2 328.3,173.2 328.2,173.2 C325.8,173.1 323.8,171.2 323.5,168.8 L308.9,35.5 L295.6,95.2 C295.1,97.5 293.1,99.1 290.7,99.1 L255,99.1 L171.7,98.6 L162.1,116.3 C161.1,118.1 159.2,119.1 157.2,118.9 C155.2,118.7 153.5,117.3 152.9,115.4 L144.2,87.2 L138.6,96.2 C137.7,97.7 136.1,98.6 134.3,98.6 L111.3,98.6 C108.8,98.6 106.7,96.8 106.3,94.3 L103.4,73.1 L81.2,169.4 C80.7,171.8 78.5,173.4 76,173.3 C73.6,173.2 71.6,171.3 71.3,168.9 L56.7,35.6 L43.4,95.3 C42.9,97.6 40.9,99.2 38.5,99.2 L5.5,99.2 C2.7,99.2 0.5,97 0.5,94.2 C0.5,91.4 2.7,89.2 5.5,89.2 L34.5,89.2 L53.5,4 C54,1.6 56.2,-5.68017855e-14 58.7,0.1 C61.1,0.2 63.1,2.1 63.4,4.5 L78.1,138.5 L99.8,44.6 C100.3,42.3 102.5,40.6 104.9,40.7 C107.3,40.8 109.3,42.6 109.6,45 L115.7,88.7 L131.6,88.7 L141.5,72.7 C142.5,71 144.4,70.1 146.4,70.4 C148.3,70.6 150,72 150.5,73.9 L159,101.2 L164.3,91.3 C165.2,89.7 166.9,88.7 168.7,88.7 L168.7,88.7 L257.7,89.2 L286.7,89.2 L305.7,4 C306.2,1.6 308.4,-5.68017855e-14 310.9,0.1 C313.3,0.2 315.3,2.1 315.6,4.5 L330.3,138.5 L352,44.6 C352.5,42.3 354.7,40.6 357.1,40.7 C359.5,40.8 361.5,42.6 361.8,45 L367.9,88.7 L383.8,88.7 L393.7,72.7 C394.7,71 396.6,70.1 398.6,70.4 C400.5,70.6 402.2,72 402.7,73.9 L411,101 L416.3,91.1 C417.2,89.5 418.9,88.5 420.7,88.5 L443,88.5 C445.8,88.5 448,90.7 448,93.5 C448,96.3 445.8,98.5 443,98.5 L423.7,98.5 L414.1,116.2 C413.1,118 411.2,119 409.2,118.8 C407.2,118.6 405.5,117.2 404.9,115.3 L396.2,87.1 L390.6,96.1 C389.7,97.6 388.1,98.5 386.3,98.5 L363.3,98.5 C360.8,98.5 358.7,96.7 358.3,94.2 L355.4,73 L333.2,169.3 C332.8,171.6 330.8,173.2 328.5,173.2 Z" fill="#383A48"></path>
                        </g>
                        <g transform="translate(409.000000, 25.000000)" fill="#383A48">
                            <g transform="translate(98.000000, 3.000000)" id="Rectangle">
                                <rect transform="translate(15.303580, 15.508820) rotate(-45.000000) translate(-15.303580, -15.508820) " x="10.303628" y="-0.991021764" width="9.9999041" height="32.9996835"></rect>
                                <rect transform="translate(15.303580, 15.508820) rotate(-45.000000) translate(-15.303580, -15.508820) " x="-1.19626176" y="10.508868" width="32.9996835" height="9.9999041"></rect>
                            </g>
                            <path d="M81.8,36.2 L46.3,36.2 L46.3,0.7 L81.8,0.7 L81.8,36.2 Z M56.4,26.2 L71.9,26.2 L71.9,10.7 L56.4,10.7 L56.4,26.2 Z" id="Shape"></path>
                            <rect id="Rectangle" x="0.7" y="26.2" width="25.5" height="10"></rect>
                        </g>
                    </g>
                    <g transform="translate(125.000000, 0.000000)">
                        <g>
                            <rect id="Rectangle" fill="#F3F6E6" x="5.8" y="5.3" width="562.5" height="386"></rect>
                            <path d="M568.3,396.4 L5.8,396.4 C3,396.4 0.8,394.2 0.8,391.4 L0.8,5.4 C0.8,2.6 3,0.4 5.8,0.4 L568.3,0.4 C571.1,0.4 573.3,2.6 573.3,5.4 L573.3,391.4 C573.3,394.1 571,396.4 568.3,396.4 Z M10.8,386.4 L563.3,386.4 L563.3,10.4 L10.8,10.4 L10.8,386.4 Z" id="Shape" fill="#383A48"></path>
                        </g>
                        <g>
                            <rect id="Rectangle" fill="#F6E049" x="5.8" y="5.3" width="562.5" height="89"></rect>
                            <path d="M573.3,99.4 L0.8,99.4 L0.8,0.4 L573.3,0.4 L573.3,99.4 Z M10.8,89.4 L563.3,89.4 L563.3,10.4 L10.8,10.4 L10.8,89.4 Z" id="Shape" fill="#383A48"></path>
                        </g>
                        <g transform="translate(54.000000, 147.000000)" id="Path">
                            <polyline fill="#F3F6E6" points="443.2 93.7 421 93.7 410 114.1 398 75.4 386.7 93.7 363.7 93.7 357 45.7 328.7 168.4 310.8 5.1 290.9 94.2 257.9 94.2 255.2 94.2 168.9 93.7 157.9 114.1 145.9 75.4 134.5 93.7 111.5 93.7 104.9 45.7 76.5 168.4 58.7 5.1 38.8 94.2 5.8 94.2"></polyline>
                            <path d="M328.7,173.4 C328.6,173.4 328.5,173.4 328.4,173.4 C326,173.3 324,171.4 323.7,169 L309.1,35.7 L295.8,95.4 C295.3,97.7 293.3,99.3 290.9,99.3 L255.2,99.3 L171.9,98.8 L162.3,116.5 C161.3,118.3 159.4,119.3 157.4,119.1 C155.4,118.9 153.7,117.5 153.1,115.6 L144.4,87.4 L138.8,96.4 C137.9,97.9 136.3,98.8 134.5,98.8 L111.5,98.8 C109,98.8 106.9,97 106.5,94.5 L103.6,73.3 L81.4,169.6 C80.9,172 78.7,173.6 76.2,173.5 C73.8,173.4 71.8,171.5 71.5,169.1 L57,35.7 L43.7,95.4 C43.2,97.7 41.2,99.3 38.8,99.3 L5.8,99.3 C3,99.3 0.8,97.1 0.8,94.3 C0.8,91.5 3,89.3 5.8,89.3 L34.8,89.3 L53.8,4.1 C54.3,1.7 56.5,0.1 59,0.2 C61.4,0.3 63.4,2.2 63.7,4.6 L78.4,138.6 L100.1,44.7 C100.6,42.4 102.8,40.7 105.2,40.8 C107.6,40.9 109.6,42.7 109.9,45.1 L116,88.8 L131.9,88.8 L141.8,72.8 C142.8,71.1 144.7,70.2 146.7,70.5 C148.6,70.7 150.3,72.1 150.8,74 L159.3,101.3 L164.6,91.4 C165.5,89.8 167.2,88.8 169,88.8 L169,88.8 L258,89.3 L287,89.3 L306,4.1 C306.5,1.7 308.7,0.1 311.2,0.2 C313.6,0.3 315.6,2.2 315.9,4.6 L330.6,138.6 L352.3,44.7 C352.8,42.4 355,40.7 357.4,40.8 C359.8,40.9 361.8,42.7 362.1,45.1 L368.2,88.8 L384.1,88.8 L394,72.8 C395,71.1 396.9,70.2 398.9,70.5 C400.8,70.7 402.5,72.1 403,74 L411.5,101.3 L416.8,91.4 C417.7,89.8 419.4,88.8 421.2,88.8 L443.4,88.8 C446.2,88.8 448.4,91 448.4,93.8 C448.4,96.6 446.2,98.8 443.4,98.8 L424,98.8 L414.4,116.5 C413.4,118.3 411.5,119.3 409.5,119.1 C407.5,118.9 405.8,117.5 405.2,115.6 L396.5,87.4 L390.9,96.4 C390,97.9 388.4,98.8 386.6,98.8 L363.6,98.8 C361.1,98.8 359,97 358.6,94.5 L355.7,73.3 L333.5,169.6 C333,171.8 331,173.4 328.7,173.4 Z" fill="#383A48"></path>
                        </g>
                        <g transform="translate(409.000000, 30.000000)" fill="#383A48">
                            <g transform="translate(98.000000, 2.000000)" id="Rectangle">
                                <rect transform="translate(15.480620, 15.689620) rotate(-45.000000) translate(-15.480620, -15.689620) " x="10.480668" y="-0.810221764" width="9.9999041" height="32.9996835"></rect>
                                <rect transform="translate(15.480620, 15.689620) rotate(-45.000000) translate(-15.480620, -15.689620) " x="-1.01922176" y="10.689668" width="32.9996835" height="9.9999041"></rect>
                            </g>
                            <path d="M82,35.4 L46.5,35.4 L46.5,0 L82,0 L82,35.4 Z M56.6,25.4 L72,25.4 L72,10 L56.5,10 L56.6,25.4 L56.6,25.4 Z" id="Shape"></path>
                            <rect id="Rectangle" x="0.9" y="25.4" width="25.5" height="10"></rect>
                        </g>
                    </g>
                </g>
                <g transform="translate(620.000000, 549.000000)" fill="#383A48" fill-rule="nonzero" id="Path">
                    <path d="M5.9,72.7 C4.6,72.7 3.4,72.2 2.4,71.3 C0.4,69.4 0.4,66.2 2.3,64.2 C11.4,54.9 15.8,45.2 15.4,35.5 C14.8,20.3 2.7,9.5 2.6,9.4 C0.5,7.6 0.3,4.4 2.1,2.3 C3.9,0.2 7.1,0 9.1,1.8 C9.7,2.3 24.5,15.4 25.3,34.9 C25.8,47.5 20.5,59.7 9.4,71.1 C8.5,72.2 7.2,72.7 5.9,72.7 Z"></path>
                    <path d="M34.9,72.7 C33.6,72.7 32.3,72.2 31.3,71.2 C20.2,59.8 14.9,47.6 15.4,35 C16.2,15.5 31,2.4 31.6,1.9 C33.7,0.1 36.8,0.3 38.7,2.4 C40.5,4.5 40.3,7.6 38.2,9.4 C38,9.6 26,20.4 25.4,35.5 C25,45.2 29.4,54.9 38.5,64.2 C40.4,66.2 40.4,69.3 38.4,71.3 C37.4,72.2 36.2,72.7 34.9,72.7 Z"></path>
                </g>
                <g transform="translate(681.000000, 502.000000)" fill="#383A48" fill-rule="nonzero" id="Path">
                    <path d="M5.5,72.5 C4.2,72.5 3,72 2,71.1 C-5.55111512e-17,69.2 -5.55111512e-17,66 1.9,64 C11,54.7 15.4,45 15,35.2 C14.4,19.9 2.3,9.3 2.2,9.2 C0.1,7.4 -0.1,4.2 1.7,2.1 C3.5,0 6.7,-0.2 8.8,1.6 C9.4,2.1 24.2,15.2 25,34.7 C25.5,47.3 20.2,59.5 9.1,70.9 C8.1,71.9 6.8,72.5 5.5,72.5 Z"></path>
                    <path d="M34.5,72.5 C33.2,72.5 31.9,72 30.9,71 C19.8,59.6 14.5,47.4 15,34.8 C15.8,15.3 30.6,2.2 31.2,1.7 C33.3,-0.1 36.4,0.1 38.3,2.2 C40.1,4.3 39.9,7.4 37.8,9.2 C37.6,9.4 25.6,20.2 25,35.3 C24.6,45 29,54.7 38.1,64 C40,66 40,69.1 38,71.1 C37,72 35.8,72.5 34.5,72.5 Z"></path>
                </g>
                <path d="M1237.2,419.3 C1235.6,419.3 1234.1,418.6 1233.1,417.2 C1231.5,415 1232,411.8 1234.3,410.2 L1395.3,295 C1397.5,293.4 1400.7,293.9 1402.3,296.2 C1403.9,298.4 1403.4,301.6 1401.1,303.2 L1240.1,418.4 C1239.2,419 1238.2,419.3 1237.2,419.3 Z" id="Path" fill="#383A48" fill-rule="nonzero"></path>
                <g transform="translate(852.000000, 217.000000)" fill="#F3F6E6" fill-rule="nonzero" id="Rectangle">
                    <rect x="11.7" y="0.9" width="10" height="31.7"></rect>
                    <rect x="0.8" y="11.8" width="31.7" height="10"></rect>
                </g>
                <g transform="translate(51.000000, 330.000000)">
                    <rect id="Rectangle" fill="#383A48" fill-rule="nonzero" x="10.8" y="0.3" width="10" height="31.7"></rect>
                    <g transform="translate(0.000000, 11.000000)">
                        <line x1="0" y1="5.2" x2="31.7" y2="5.2" id="Path"></line>
                        <rect id="Rectangle" fill="#383A48" fill-rule="nonzero" x="0" y="0.2" width="31.7" height="10"></rect>
                    </g>
                </g>
                <g transform="translate(676.000000, 644.000000)" fill="#F3F6E6" fill-rule="nonzero" id="Rectangle">
                    <rect x="11" y="0" width="10" height="31.7"></rect>
                    <rect x="0.1" y="10.9" width="31.7" height="10"></rect>
                </g>
                <path d="M1429.1,708.3 L1317.6,708.3 C1314.8,708.3 1312.6,706.1 1312.6,703.3 C1312.6,700.5 1314.8,698.3 1317.6,698.3 L1429.1,698.3 C1431.9,698.3 1434.1,700.5 1434.1,703.3 C1434.1,706.1 1431.9,708.3 1429.1,708.3 Z" id="Path" fill="#383A48" fill-rule="nonzero"></path>
            </g>
        </g>
    </g>
</svg>