<svg xmlns="http://www.w3.org/2000/svg" xmlns:xlink="http://www.w3.org/1999/xlink" width="1502" height="790" version="1.1" viewBox="0 0 1502 790"><title>blogging</title><desc>Created with Sketch.</desc><g id="Page-1" fill="none" fill-rule="evenodd" stroke="none" stroke-width="1"><g id="blogging" transform="translate(-209.000000, -146.000000)"><g id="Group" transform="translate(209.000000, 146.000000)"><path id="Path" fill="#F3F6E6" fill-rule="nonzero" d="M1496.5,0 L1192.6,0 C1190.8,0 1189.1,1 1188.2,2.6 C1187.3,4.2 1187.4,6.2 1188.4,7.7 C1212.8,44.5 1239.5,58.2 1263.1,70.4 C1298.6,88.6 1329.3,104.4 1342.5,195.4 C1343.4,201.5 1344.6,207.8 1346.2,214 C1353.9,244.6 1374.9,295.2 1430.7,362.8 C1463.2,402.2 1492.8,429.2 1493.1,429.5 C1494,430.4 1495.2,430.8 1496.5,430.8 C1497.2,430.8 1497.9,430.7 1498.5,430.4 C1500.3,429.6 1501.5,427.8 1501.5,425.8 L1501.5,5 C1501.5,2.2 1499.3,0 1496.5,0 Z"/><path id="Path" fill="#F3F6E6" fill-rule="nonzero" d="M640.3,779.5 C639.1,779.1 517.5,743.3 429.3,650.5 C394.6,614 369.4,573.3 354.5,529.5 C350,516.5 346.4,503 343.7,489.3 C337.1,455.8 321.2,425.8 293.6,394.7 C270.4,368.7 241.8,345 211.5,319.9 C197.7,308.5 183.4,296.6 169.2,284.3 C138.9,257.8 100.2,221.2 69.4,172.9 C37.6,123.1 18.4,68 10.5,4.5 C10.2,1.9 7.9,-1.42108547e-13 5.2,0.0962294358 C2.6,0.3 0.5,2.4 0.5,5.1 L0.5,784.4 C0.5,787.2 2.7,789.4 5.5,789.4 L638.8,789.4 C641.3,789.4 643.4,787.6 643.8,785.1 C644.2,782.5 642.7,780.2 640.3,779.5 Z"/><polygon id="Path" fill="#383A48" fill-rule="nonzero" points="281.3 542.2 280 494.3 403.4 400.7 426.8 431.9"/><g fill-rule="nonzero" transform="translate(0.000000, 480.000000)"><g><path id="Path" fill="#F3F6E6" d="M5.5,304.3 L5.5,195 L244.1,14 C263.4,-0.6 290.9,3.2 305.4,22.6 L305.4,22.6 C319.8,41.8 316,69.1 296.8,83.6 L5.5,304.3 Z"/><path id="Shape" fill="#383A48" d="M5.5,309.3 C4.7,309.3 4,309.1 3.3,308.8 C1.6,308 0.5,306.2 0.5,304.3 L0.5,195 C0.5,193.4 1.2,192 2.5,191 L241.1,10 C251.5,2.1 264.3,-1.2 277.2,0.6 C290.1,2.4 301.5,9.1 309.4,19.6 C325.5,41 321.2,71.5 299.9,87.6 L8.6,308.3 C7.7,309 6.6,309.3 5.5,309.3 Z M10.5,197.5 L10.5,294.2 L293.9,79.6 C310.8,66.8 314.2,42.5 301.5,25.6 C295.3,17.3 286.2,12 275.9,10.5 C265.6,9.1 255.4,11.7 247.2,18 L10.5,197.5 Z"/></g><path id="Path" fill="#383A48" d="M247.8,126.1 C246.3,126.1 244.8,125.4 243.8,124.1 C242.1,121.9 242.6,118.8 244.8,117.1 C261.7,104.3 265.1,80 252.4,63.1 C246.2,54.8 237.1,49.5 226.8,48 C216.5,46.6 206.3,49.2 198.1,55.5 C195.9,57.2 192.8,56.7 191.1,54.5 C189.4,52.3 189.9,49.2 192.1,47.5 C202.5,39.6 215.3,36.3 228.2,38.1 C241.1,39.9 252.5,46.6 260.4,57.1 C276.5,78.5 272.2,109 250.9,125.1 C249.9,125.8 248.8,126.1 247.8,126.1 Z"/></g><g fill-rule="nonzero" transform="translate(884.000000, 158.000000)"><g><rect id="Rectangle" width="507.3" height="605.1" x="5.5" y="5.6" fill="#F3F6E6"/><path id="Shape" fill="#383A48" d="M512.8,615.8 L5.5,615.8 C2.7,615.8 0.5,613.6 0.5,610.8 L0.5,5.6 C0.5,2.8 2.7,0.6 5.5,0.6 L512.8,0.6 C515.6,0.6 517.8,2.8 517.8,5.6 L517.8,610.7 C517.8,613.5 515.5,615.8 512.8,615.8 Z M10.5,605.8 L507.8,605.8 L507.8,10.6 L10.5,10.6 L10.5,605.8 Z"/></g><g transform="translate(0.000000, 434.000000)"><rect id="Rectangle" width="507.3" height="171.4" x="5.5" y="5.4" fill="#F6E049"/><path id="Shape" fill="#383A48" d="M512.8,181.8 L5.5,181.8 C2.7,181.8 0.5,179.6 0.5,176.8 L0.5,5.4 C0.5,2.6 2.7,0.4 5.5,0.4 L512.8,0.4 C515.6,0.4 517.8,2.6 517.8,5.4 L517.8,176.8 C517.8,179.5 515.5,181.8 512.8,181.8 Z M10.5,171.8 L507.8,171.8 L507.8,10.4 L10.5,10.4 L10.5,171.8 Z"/></g><g><rect id="Rectangle" width="507.3" height="104.4" x="5.5" y="5.6" fill="#F3F6E6"/><path id="Shape" fill="#383A48" d="M512.8,115.1 L5.5,115.1 C2.7,115.1 0.5,112.9 0.5,110.1 L0.5,5.6 C0.5,2.8 2.7,0.6 5.5,0.6 L512.8,0.6 C515.6,0.6 517.8,2.8 517.8,5.6 L517.8,110 C517.8,112.8 515.5,115.1 512.8,115.1 Z M10.5,105.1 L507.8,105.1 L507.8,10.7 L10.5,10.7 L10.5,105.1 Z"/></g><g id="Oval" fill="#383A48" transform="translate(21.000000, 18.000000)"><circle cx="474.4" cy="5.9" r="5"/><circle cx="474.4" cy="30.5" r="5"/><circle cx="474.4" cy="55.2" r="5"/><circle cx="474.4" cy="79.9" r="5"/><circle cx="474.4" cy="104.5" r="5"/><circle cx="474.4" cy="129.2" r="5"/><circle cx="474.4" cy="153.9" r="5"/><circle cx="474.4" cy="178.5" r="5"/><circle cx="474.4" cy="203.2" r="5"/><circle cx="474.4" cy="227.9" r="5"/><circle cx="474.4" cy="252.5" r="5"/><circle cx="474.4" cy="277.2" r="5"/><circle cx="474.4" cy="301.9" r="5"/><circle cx="474.4" cy="326.5" r="5"/><circle cx="474.4" cy="351.2" r="5"/><circle cx="474.4" cy="375.9" r="5"/><circle cx="474.4" cy="400.5" r="5"/><circle cx="474.4" cy="425.2" r="5"/><circle cx="474.4" cy="449.9" r="5"/><circle cx="474.4" cy="474.5" r="5"/><circle cx="474.4" cy="499.2" r="5"/><circle cx="474.4" cy="523.9" r="5"/><circle cx="474.4" cy="548.5" r="5"/><circle cx="474.4" cy="573.2" r="5"/><circle cx="449.7" cy="5.9" r="5"/><circle cx="449.7" cy="30.5" r="5"/><circle cx="449.7" cy="55.2" r="5"/><circle cx="449.7" cy="79.9" r="5"/><circle cx="449.7" cy="104.5" r="5"/><circle cx="449.7" cy="129.2" r="5"/><circle cx="449.7" cy="153.9" r="5"/><circle cx="449.7" cy="178.5" r="5"/><circle cx="449.7" cy="203.2" r="5"/><circle cx="449.7" cy="227.9" r="5"/><circle cx="449.7" cy="252.5" r="5"/><circle cx="449.7" cy="277.2" r="5"/><circle cx="449.7" cy="301.9" r="5"/><circle cx="449.7" cy="326.5" r="5"/><circle cx="449.7" cy="351.2" r="5"/><circle cx="449.7" cy="375.9" r="5"/><circle cx="449.7" cy="400.5" r="5"/><circle cx="449.7" cy="425.2" r="5"/><circle cx="449.7" cy="449.9" r="5"/><circle cx="449.7" cy="474.5" r="5"/><circle cx="449.7" cy="499.2" r="5"/><circle cx="449.7" cy="523.9" r="5"/><circle cx="449.7" cy="548.5" r="5"/><circle cx="449.7" cy="573.2" r="5"/><circle cx="425.1" cy="5.9" r="5"/><circle cx="425.1" cy="30.5" r="5"/><circle cx="425.1" cy="55.2" r="5"/><circle cx="425.1" cy="79.9" r="5"/><circle cx="425.1" cy="104.5" r="5"/><circle cx="425.1" cy="129.2" r="5"/><circle cx="425.1" cy="153.9" r="5"/><circle cx="425.1" cy="178.5" r="5"/><circle cx="425.1" cy="203.2" r="5"/><circle cx="425.1" cy="227.9" r="5"/><circle cx="425.1" cy="252.5" r="5"/><circle cx="425.1" cy="277.2" r="5"/><circle cx="425.1" cy="301.9" r="5"/><circle cx="425.1" cy="326.5" r="5"/><circle cx="425.1" cy="351.2" r="5"/><circle cx="425.1" cy="375.9" r="5"/><circle cx="425.1" cy="400.5" r="5"/><circle cx="425.1" cy="425.2" r="5"/><circle cx="425.1" cy="449.9" r="5"/><circle cx="425.1" cy="474.5" r="5"/><circle cx="425.1" cy="499.2" r="5"/><circle cx="425.1" cy="523.9" r="5"/><circle cx="425.1" cy="548.5" r="5"/><circle cx="425.1" cy="573.2" r="5"/><circle cx="400.4" cy="5.9" r="5"/><circle cx="400.4" cy="30.5" r="5"/><circle cx="400.4" cy="55.2" r="5"/><circle cx="400.4" cy="79.9" r="5"/><circle cx="400.4" cy="104.5" r="5"/><circle cx="400.4" cy="129.2" r="5"/><circle cx="400.4" cy="153.9" r="5"/><circle cx="400.4" cy="178.5" r="5"/><circle cx="400.4" cy="203.2" r="5"/><circle cx="400.4" cy="227.9" r="5"/><circle cx="400.4" cy="252.5" r="5"/><circle cx="400.4" cy="277.2" r="5"/><circle cx="400.4" cy="301.9" r="5"/><circle cx="400.4" cy="326.5" r="5"/><circle cx="400.4" cy="351.2" r="5"/><circle cx="400.4" cy="375.9" r="5"/><circle cx="400.4" cy="400.5" r="5"/><circle cx="400.4" cy="425.2" r="5"/><circle cx="400.4" cy="449.9" r="5"/><circle cx="400.4" cy="474.5" r="5"/><circle cx="400.4" cy="499.2" r="5"/><circle cx="400.4" cy="523.9" r="5"/><circle cx="400.4" cy="548.5" r="5"/><circle cx="400.4" cy="573.2" r="5"/><circle cx="375.7" cy="5.9" r="5"/><circle cx="375.7" cy="30.5" r="5"/><circle cx="375.7" cy="55.2" r="5"/><circle cx="375.7" cy="79.9" r="5"/><circle cx="375.7" cy="104.5" r="5"/><circle cx="375.7" cy="129.2" r="5"/><circle cx="375.7" cy="153.9" r="5"/><circle cx="375.7" cy="178.5" r="5"/><circle cx="375.7" cy="203.2" r="5"/><circle cx="375.7" cy="227.9" r="5"/><circle cx="375.7" cy="252.5" r="5"/><circle cx="375.7" cy="277.2" r="5"/><circle cx="375.7" cy="301.9" r="5"/><circle cx="375.7" cy="326.5" r="5"/><circle cx="375.7" cy="351.2" r="5"/><circle cx="375.7" cy="375.9" r="5"/><circle cx="375.7" cy="400.5" r="5"/><circle cx="375.7" cy="425.2" r="5"/><circle cx="375.7" cy="449.9" r="5"/><circle cx="375.7" cy="474.5" r="5"/><circle cx="375.7" cy="499.2" r="5"/><circle cx="375.7" cy="523.9" r="5"/><circle cx="375.7" cy="548.5" r="5"/><circle cx="375.7" cy="573.2" r="5"/><circle cx="351.1" cy="5.9" r="5"/><circle cx="351.1" cy="30.5" r="5"/><circle cx="351.1" cy="55.2" r="5"/><circle cx="351.1" cy="79.9" r="5"/><circle cx="351.1" cy="104.5" r="5"/><circle cx="351.1" cy="129.2" r="5"/><circle cx="351.1" cy="153.9" r="5"/><circle cx="351.1" cy="178.5" r="5"/><circle cx="351.1" cy="203.2" r="5"/><circle cx="351.1" cy="227.9" r="5"/><circle cx="351.1" cy="252.5" r="5"/><circle cx="351.1" cy="277.2" r="5"/><circle cx="351.1" cy="301.9" r="5"/><circle cx="351.1" cy="326.5" r="5"/><circle cx="351.1" cy="351.2" r="5"/><circle cx="351.1" cy="375.9" r="5"/><circle cx="351.1" cy="400.5" r="5"/><circle cx="351.1" cy="425.2" r="5"/><circle cx="351.1" cy="449.9" r="5"/><circle cx="351.1" cy="474.5" r="5"/><circle cx="351.1" cy="499.2" r="5"/><circle cx="351.1" cy="523.9" r="5"/><circle cx="351.1" cy="548.5" r="5"/><circle cx="351.1" cy="573.2" r="5"/><circle cx="326.4" cy="5.9" r="5"/><circle cx="326.4" cy="30.5" r="5"/><circle cx="326.4" cy="55.2" r="5"/><circle cx="326.4" cy="79.9" r="5"/><circle cx="326.4" cy="104.5" r="5"/><circle cx="326.4" cy="129.2" r="5"/><circle cx="326.4" cy="153.9" r="5"/><circle cx="326.4" cy="178.5" r="5"/><circle cx="326.4" cy="203.2" r="5"/><circle cx="326.4" cy="227.9" r="5"/><circle cx="326.4" cy="252.5" r="5"/><circle cx="326.4" cy="277.2" r="5"/><circle cx="326.4" cy="301.9" r="5"/><circle cx="326.4" cy="326.5" r="5"/><circle cx="326.4" cy="351.2" r="5"/><circle cx="326.4" cy="375.9" r="5"/><circle cx="326.4" cy="400.5" r="5"/><circle cx="326.4" cy="425.2" r="5"/><circle cx="326.4" cy="449.9" r="5"/><circle cx="326.4" cy="474.5" r="5"/><circle cx="326.4" cy="499.2" r="5"/><circle cx="326.4" cy="523.9" r="5"/><circle cx="326.4" cy="548.5" r="5"/><circle cx="326.4" cy="573.2" r="5"/><circle cx="301.7" cy="5.9" r="5"/><circle cx="301.7" cy="30.5" r="5"/><circle cx="301.7" cy="55.2" r="5"/><circle cx="301.7" cy="79.9" r="5"/><circle cx="301.7" cy="104.5" r="5"/><circle cx="301.7" cy="129.2" r="5"/><circle cx="301.7" cy="153.9" r="5"/><circle cx="301.7" cy="178.5" r="5"/><circle cx="301.7" cy="203.2" r="5"/><circle cx="301.7" cy="227.9" r="5"/><circle cx="301.7" cy="252.5" r="5"/><circle cx="301.7" cy="277.2" r="5"/><circle cx="301.7" cy="301.9" r="5"/><circle cx="301.7" cy="326.5" r="5"/><circle cx="301.7" cy="351.2" r="5"/><circle cx="301.7" cy="375.9" r="5"/><circle cx="301.7" cy="400.5" r="5"/><circle cx="301.7" cy="425.2" r="5"/><circle cx="301.7" cy="449.9" r="5"/><circle cx="301.7" cy="474.5" r="5"/><circle cx="301.7" cy="499.2" r="5"/><circle cx="301.7" cy="523.9" r="5"/><circle cx="301.7" cy="548.5" r="5"/><circle cx="301.7" cy="573.2" r="5"/><circle cx="277.1" cy="5.9" r="5"/><circle cx="277.1" cy="30.5" r="5"/><circle cx="277.1" cy="55.2" r="5"/><circle cx="277.1" cy="79.9" r="5"/><circle cx="277.1" cy="104.5" r="5"/><circle cx="277.1" cy="129.2" r="5"/><circle cx="277.1" cy="153.9" r="5"/><circle cx="277.1" cy="178.5" r="5"/><circle cx="277.1" cy="203.2" r="5"/><circle cx="277.1" cy="227.9" r="5"/><circle cx="277.1" cy="252.5" r="5"/><circle cx="277.1" cy="277.2" r="5"/><circle cx="277.1" cy="301.9" r="5"/><circle cx="277.1" cy="326.5" r="5"/><circle cx="277.1" cy="351.2" r="5"/><circle cx="277.1" cy="375.9" r="5"/><circle cx="277.1" cy="400.5" r="5"/><circle cx="277.1" cy="425.2" r="5"/><circle cx="277.1" cy="449.9" r="5"/><circle cx="277.1" cy="474.5" r="5"/><circle cx="277.1" cy="499.2" r="5"/><circle cx="277.1" cy="523.9" r="5"/><circle cx="277.1" cy="548.5" r="5"/><circle cx="277.1" cy="573.2" r="5"/><circle cx="252.4" cy="5.9" r="5"/><circle cx="252.4" cy="30.5" r="5"/><circle cx="252.4" cy="55.2" r="5"/><circle cx="252.4" cy="79.9" r="5"/><circle cx="252.4" cy="104.5" r="5"/><circle cx="252.4" cy="129.2" r="5"/><circle cx="252.4" cy="153.9" r="5"/><circle cx="252.4" cy="178.5" r="5"/><circle cx="252.4" cy="203.2" r="5"/><circle cx="252.4" cy="227.9" r="5"/><circle cx="252.4" cy="252.5" r="5"/><circle cx="252.4" cy="277.2" r="5"/><circle cx="252.4" cy="301.9" r="5"/><circle cx="252.4" cy="326.5" r="5"/><circle cx="252.4" cy="351.2" r="5"/><circle cx="252.4" cy="375.9" r="5"/><circle cx="252.4" cy="400.5" r="5"/><circle cx="252.4" cy="425.2" r="5"/><circle cx="252.4" cy="449.9" r="5"/><circle cx="252.4" cy="474.5" r="5"/><circle cx="252.4" cy="499.2" r="5"/><circle cx="252.4" cy="523.9" r="5"/><circle cx="252.4" cy="548.5" r="5"/><circle cx="252.4" cy="573.2" r="5"/><circle cx="227.7" cy="5.9" r="5"/><circle cx="227.7" cy="30.5" r="5"/><circle cx="227.7" cy="55.2" r="5"/><circle cx="227.7" cy="79.9" r="5"/><circle cx="227.7" cy="104.5" r="5"/><circle cx="227.7" cy="129.2" r="5"/><circle cx="227.7" cy="153.9" r="5"/><circle cx="227.7" cy="178.5" r="5"/><circle cx="227.7" cy="203.2" r="5"/><circle cx="227.7" cy="227.9" r="5"/><circle cx="227.7" cy="252.5" r="5"/><circle cx="227.7" cy="277.2" r="5"/><circle cx="227.7" cy="301.9" r="5"/><circle cx="227.7" cy="326.5" r="5"/><circle cx="227.7" cy="351.2" r="5"/><circle cx="227.7" cy="375.9" r="5"/><circle cx="227.7" cy="400.5" r="5"/><circle cx="227.7" cy="425.2" r="5"/><circle cx="227.7" cy="449.9" r="5"/><circle cx="227.7" cy="474.5" r="5"/><circle cx="227.7" cy="499.2" r="5"/><circle cx="227.7" cy="523.9" r="5"/><circle cx="227.7" cy="548.5" r="5"/><circle cx="227.7" cy="573.2" r="5"/><circle cx="203.1" cy="5.9" r="5"/><circle cx="203.1" cy="30.5" r="5"/><circle cx="203.1" cy="55.2" r="5"/><circle cx="203.1" cy="79.9" r="5"/><circle cx="203.1" cy="104.5" r="5"/><circle cx="203.1" cy="129.2" r="5"/><circle cx="203.1" cy="153.9" r="5"/><circle cx="203.1" cy="178.5" r="5"/><circle cx="203.1" cy="203.2" r="5"/><circle cx="203.1" cy="227.9" r="5"/><circle cx="203.1" cy="252.5" r="5"/><circle cx="203.1" cy="277.2" r="5"/><circle cx="203.1" cy="301.9" r="5"/><circle cx="203.1" cy="326.5" r="5"/><circle cx="203.1" cy="351.2" r="5"/><circle cx="203.1" cy="375.9" r="5"/><circle cx="203.1" cy="400.5" r="5"/><circle cx="203.1" cy="425.2" r="5"/><circle cx="203.1" cy="449.9" r="5"/><circle cx="203.1" cy="474.5" r="5"/><circle cx="203.1" cy="499.2" r="5"/><circle cx="203.1" cy="523.9" r="5"/><circle cx="203.1" cy="548.5" r="5"/><circle cx="203.1" cy="573.2" r="5"/><circle cx="178.4" cy="5.9" r="5"/><circle cx="178.4" cy="30.5" r="5"/><circle cx="178.4" cy="55.2" r="5"/><circle cx="178.4" cy="79.9" r="5"/><circle cx="178.4" cy="104.5" r="5"/><circle cx="178.4" cy="129.2" r="5"/><circle cx="178.4" cy="153.9" r="5"/><circle cx="178.4" cy="178.5" r="5"/><circle cx="178.4" cy="203.2" r="5"/><circle cx="178.4" cy="227.9" r="5"/><circle cx="178.4" cy="252.5" r="5"/><circle cx="178.4" cy="277.2" r="5"/><circle cx="178.4" cy="301.9" r="5"/><circle cx="178.4" cy="326.5" r="5"/><circle cx="178.4" cy="351.2" r="5"/><circle cx="178.4" cy="375.9" r="5"/><circle cx="178.4" cy="400.5" r="5"/><circle cx="178.4" cy="425.2" r="5"/><circle cx="178.4" cy="449.9" r="5"/><circle cx="178.4" cy="474.5" r="5"/><circle cx="178.4" cy="499.2" r="5"/><circle cx="178.4" cy="523.9" r="5"/><circle cx="178.4" cy="548.5" r="5"/><circle cx="178.4" cy="573.2" r="5"/><circle cx="153.7" cy="5.9" r="5"/><circle cx="153.7" cy="30.5" r="5"/><circle cx="153.7" cy="55.2" r="5"/><circle cx="153.7" cy="79.9" r="5"/><circle cx="153.7" cy="104.5" r="5"/><circle cx="153.7" cy="129.2" r="5"/><circle cx="153.7" cy="153.9" r="5"/><circle cx="153.7" cy="178.5" r="5"/><circle cx="153.7" cy="203.2" r="5"/><circle cx="153.7" cy="227.9" r="5"/><circle cx="153.7" cy="252.5" r="5"/><circle cx="153.7" cy="277.2" r="5"/><circle cx="153.7" cy="301.9" r="5"/><circle cx="153.7" cy="326.5" r="5"/><circle cx="153.7" cy="351.2" r="5"/><circle cx="153.7" cy="375.9" r="5"/><circle cx="153.7" cy="400.5" r="5"/><circle cx="153.7" cy="425.2" r="5"/><circle cx="153.7" cy="449.9" r="5"/><circle cx="153.7" cy="474.5" r="5"/><circle cx="153.7" cy="499.2" r="5"/><circle cx="153.7" cy="523.9" r="5"/><circle cx="153.7" cy="548.5" r="5"/><circle cx="153.7" cy="573.2" r="5"/><circle cx="129.1" cy="5.9" r="5"/><circle cx="129.1" cy="30.5" r="5"/><circle cx="129.1" cy="55.2" r="5"/><circle cx="129.1" cy="79.9" r="5"/><circle cx="129.1" cy="104.5" r="5"/><circle cx="129.1" cy="129.2" r="5"/><circle cx="129.1" cy="153.9" r="5"/><circle cx="129.1" cy="178.5" r="5"/><circle cx="129.1" cy="203.2" r="5"/><circle cx="129.1" cy="227.9" r="5"/><circle cx="129.1" cy="252.5" r="5"/><circle cx="129.1" cy="277.2" r="5"/><circle cx="129.1" cy="301.9" r="5"/><circle cx="129.1" cy="326.5" r="5"/><circle cx="129.1" cy="351.2" r="5"/><circle cx="129.1" cy="375.9" r="5"/><circle cx="129.1" cy="400.5" r="5"/><circle cx="129.1" cy="425.2" r="5"/><circle cx="129.1" cy="449.9" r="5"/><circle cx="129.1" cy="474.5" r="5"/><circle cx="129.1" cy="499.2" r="5"/><circle cx="129.1" cy="523.9" r="5"/><circle cx="129.1" cy="548.5" r="5"/><circle cx="129.1" cy="573.2" r="5"/><circle cx="104.4" cy="5.9" r="5"/><circle cx="104.4" cy="30.5" r="5"/><circle cx="104.4" cy="55.2" r="5"/><circle cx="104.4" cy="79.9" r="5"/><circle cx="104.4" cy="104.5" r="5"/><circle cx="104.4" cy="129.2" r="5"/><circle cx="104.4" cy="153.9" r="5"/><circle cx="104.4" cy="178.5" r="5"/><circle cx="104.4" cy="203.2" r="5"/><circle cx="104.4" cy="227.9" r="5"/><circle cx="104.4" cy="252.5" r="5"/><circle cx="104.4" cy="277.2" r="5"/><circle cx="104.4" cy="301.9" r="5"/><circle cx="104.4" cy="326.5" r="5"/><circle cx="104.4" cy="351.2" r="5"/><circle cx="104.4" cy="375.9" r="5"/><circle cx="104.4" cy="400.5" r="5"/><circle cx="104.4" cy="425.2" r="5"/><circle cx="104.4" cy="449.9" r="5"/><circle cx="104.4" cy="474.5" r="5"/><circle cx="104.4" cy="499.2" r="5"/><circle cx="104.4" cy="523.9" r="5"/><circle cx="104.4" cy="548.5" r="5"/><circle cx="104.4" cy="573.2" r="5"/><circle cx="79.7" cy="5.9" r="5"/><circle cx="79.7" cy="30.5" r="5"/><circle cx="79.7" cy="55.2" r="5"/><circle cx="79.7" cy="79.9" r="5"/><circle cx="79.7" cy="104.5" r="5"/><circle cx="79.7" cy="129.2" r="5"/><circle cx="79.7" cy="153.9" r="5"/><circle cx="79.7" cy="178.5" r="5"/><circle cx="79.7" cy="203.2" r="5"/><circle cx="79.7" cy="227.9" r="5"/><circle cx="79.7" cy="252.5" r="5"/><circle cx="79.7" cy="277.2" r="5"/><circle cx="79.7" cy="301.9" r="5"/><circle cx="79.7" cy="326.5" r="5"/><circle cx="79.7" cy="351.2" r="5"/><circle cx="79.7" cy="375.9" r="5"/><circle cx="79.7" cy="400.5" r="5"/><circle cx="79.7" cy="425.2" r="5"/><circle cx="79.7" cy="449.9" r="5"/><circle cx="79.7" cy="474.5" r="5"/><circle cx="79.7" cy="499.2" r="5"/><circle cx="79.7" cy="523.9" r="5"/><circle cx="79.7" cy="548.5" r="5"/><circle cx="79.7" cy="573.2" r="5"/><circle cx="55.1" cy="5.9" r="5"/><circle cx="55.1" cy="30.5" r="5"/><circle cx="55.1" cy="55.2" r="5"/><circle cx="55.1" cy="79.9" r="5"/><circle cx="55.1" cy="104.5" r="5"/><circle cx="55.1" cy="129.2" r="5"/><circle cx="55.1" cy="153.9" r="5"/><circle cx="55.1" cy="178.5" r="5"/><circle cx="55.1" cy="203.2" r="5"/><circle cx="55.1" cy="227.9" r="5"/><circle cx="55.1" cy="252.5" r="5"/><circle cx="55.1" cy="277.2" r="5"/><circle cx="55.1" cy="301.9" r="5"/><circle cx="55.1" cy="326.5" r="5"/><circle cx="55.1" cy="351.2" r="5"/><circle cx="55.1" cy="375.9" r="5"/><circle cx="55.1" cy="400.5" r="5"/><circle cx="55.1" cy="425.2" r="5"/><circle cx="55.1" cy="449.9" r="5"/><circle cx="55.1" cy="474.5" r="5"/><circle cx="55.1" cy="499.2" r="5"/><circle cx="55.1" cy="523.9" r="5"/><circle cx="55.1" cy="548.5" r="5"/><circle cx="55.1" cy="573.2" r="5"/><circle cx="30.4" cy="5.9" r="5"/><circle cx="30.4" cy="30.5" r="5"/><circle cx="30.4" cy="55.2" r="5"/><circle cx="30.4" cy="79.9" r="5"/><circle cx="30.4" cy="104.5" r="5"/><circle cx="30.4" cy="129.2" r="5"/><circle cx="30.4" cy="153.9" r="5"/><circle cx="30.4" cy="178.5" r="5"/><circle cx="30.4" cy="203.2" r="5"/><circle cx="30.4" cy="227.9" r="5"/><circle cx="30.4" cy="252.5" r="5"/><circle cx="30.4" cy="277.2" r="5"/><circle cx="30.4" cy="301.9" r="5"/><circle cx="30.4" cy="326.5" r="5"/><circle cx="30.4" cy="351.2" r="5"/><circle cx="30.4" cy="375.9" r="5"/><circle cx="30.4" cy="400.5" r="5"/><circle cx="30.4" cy="425.2" r="5"/><circle cx="30.4" cy="449.9" r="5"/><circle cx="30.4" cy="474.5" r="5"/><circle cx="30.4" cy="499.2" r="5"/><circle cx="30.4" cy="523.9" r="5"/><circle cx="30.4" cy="548.5" r="5"/><circle cx="30.4" cy="573.2" r="5"/><circle cx="5.7" cy="5.9" r="5"/><circle cx="5.7" cy="30.5" r="5"/><circle cx="5.7" cy="55.2" r="5"/><circle cx="5.7" cy="79.9" r="5"/><circle cx="5.7" cy="104.5" r="5"/><circle cx="5.7" cy="129.2" r="5"/><circle cx="5.7" cy="153.9" r="5"/><circle cx="5.7" cy="178.5" r="5"/><circle cx="5.7" cy="203.2" r="5"/><circle cx="5.7" cy="227.9" r="5"/><circle cx="5.7" cy="252.5" r="5"/><circle cx="5.7" cy="277.2" r="5"/><circle cx="5.7" cy="301.9" r="5"/><circle cx="5.7" cy="326.5" r="5"/><circle cx="5.7" cy="351.2" r="5"/><circle cx="5.7" cy="375.9" r="5"/><circle cx="5.7" cy="400.5" r="5"/><circle cx="5.7" cy="425.2" r="5"/><circle cx="5.7" cy="449.9" r="5"/><circle cx="5.7" cy="474.5" r="5"/><circle cx="5.7" cy="499.2" r="5"/><circle cx="5.7" cy="523.9" r="5"/><circle cx="5.7" cy="548.5" r="5"/><circle cx="5.7" cy="573.2" r="5"/></g></g><g transform="translate(826.000000, 114.000000)"><g fill-rule="nonzero"><rect id="Rectangle" width="507.3" height="584.9" x="5.1" y="5.5" fill="#F6E049"/><path id="Shape" fill="#383A48" d="M512.4,595.4 L5.1,595.4 C2.3,595.4 0.1,593.2 0.1,590.4 L0.1,5.5 C0.1,2.7 2.3,0.5 5.1,0.5 L512.4,0.5 C515.2,0.5 517.4,2.7 517.4,5.5 L517.4,590.4 C517.4,593.1 515.1,595.4 512.4,595.4 Z M10.1,585.4 L507.4,585.4 L507.4,10.5 L10.1,10.5 L10.1,585.4 L10.1,585.4 Z"/></g><g transform="translate(0.000000, 432.000000)"><rect id="Rectangle" width="507.3" height="152.9" x="5.1" y="5.4" fill="#F3F6E6" fill-rule="nonzero"/><path id="Shape" fill="#383A48" fill-rule="nonzero" d="M512.4,163.4 L5.1,163.4 C2.3,163.4 0.1,161.2 0.1,158.4 L0.1,5.4 C0.1,2.6 2.3,0.4 5.1,0.4 L512.4,0.4 C515.2,0.4 517.4,2.6 517.4,5.4 L517.4,158.3 C517.4,161.1 515.1,163.4 512.4,163.4 Z M10.1,153.4 L507.4,153.4 L507.4,10.4 L10.1,10.4 L10.1,153.4 L10.1,153.4 Z"/><g transform="translate(45.000000, 46.000000)"><g fill-rule="nonzero"><path id="Path" fill="#E0719E" d="M45.8,12.1 L42.2,16.5 L38.4,12 C31.9,4.3 20.4,3.2 12.6,9.7 L12.6,9.7 C4.7,16.2 3.7,27.9 10.3,35.7 L42.5,73.9 L74.3,35.7 C80.8,27.9 79.7,16.2 71.9,9.7 L71.9,9.7 C63.9,3.2 52.3,4.3 45.8,12.1 Z"/><path id="Shape" fill="#383A48" d="M42.4,78.9 C40.9,78.9 39.5,78.2 38.6,77.1 L6.4,38.9 C2.3,34.1 0.4,28 1,21.7 C1.6,15.5 4.5,9.8 9.3,5.8 C9.3,5.8 9.3,5.8 9.4,5.8 C19.2,-2.4 34,-1.1 42.2,8.7 C50.5,-1 65.1,-2.3 74.9,5.9 C79.7,9.9 82.7,15.5 83.3,21.8 C83.9,28 82,34.1 78,38.9 L46.2,77.1 C45.3,78.2 43.9,78.9 42.4,78.9 L42.4,78.9 Z M15.8,13.4 C15.7,13.5 15.7,13.5 15.8,13.4 C13,15.7 11.3,19 10.9,22.6 C10.6,26.2 11.7,29.7 14,32.4 L42.3,66 L70.2,32.4 C72.5,29.6 73.6,26.2 73.2,22.6 C72.9,19 71.2,15.8 68.4,13.5 C62.7,8.8 54.2,9.6 49.5,15.3 L49.5,15.3 L45.9,19.7 C45,20.8 43.6,21.5 42.1,21.5 L42.1,21.5 C40.6,21.5 39.2,20.9 38.3,19.7 L34.5,15.2 C29.8,9.6 21.4,8.8 15.8,13.4 Z"/></g><g fill-rule="nonzero" transform="translate(112.000000, 2.000000)"><path id="Path" fill="#F3F6E6" d="M65.3,54.1 C68.2,49.3 69.8,43.6 69.8,37.6 C69.8,19.8 55.4,5.4 37.6,5.4 C19.8,5.4 5.4,19.8 5.4,37.6 C5.4,55.4 19.8,69.8 37.6,69.8 C42.9,69.8 47.9,68.5 52.3,66.3 L52.3,66.3 L66.1,70.5 L65.3,54.1 L65.3,54.1 Z"/><path id="Shape" fill="#383A48" d="M66,75.5 C65.5,75.5 65,75.4 64.6,75.3 L52.7,71.7 C48,73.8 42.9,74.9 37.7,74.9 C17.2,74.9 0.5,58.2 0.5,37.7 C0.5,17.2 17.2,0.5 37.7,0.5 C58.2,0.5 74.9,17.2 74.9,37.7 C74.9,43.9 73.4,50 70.4,55.4 L71.1,70.4 C71.2,72 70.5,73.6 69.2,74.6 C68.2,75.2 67.1,75.5 66,75.5 Z M37.6,10.4 C22.6,10.4 10.4,22.6 10.4,37.6 C10.4,52.6 22.6,64.8 37.6,64.8 C41.9,64.8 46.1,63.8 50,61.8 C51.3,61.1 52.7,61.1 54,61.6 L60.8,63.6 L60.4,54.5 C60.3,53.5 60.5,52.4 61.1,51.5 C63.6,47.3 64.9,42.5 64.9,37.6 C64.8,22.6 52.6,10.4 37.6,10.4 Z"/></g><g fill-rule="nonzero" transform="translate(208.000000, 2.000000)"><polygon id="Path" fill="#F3F6E6" points="5.7 5.4 90 5.4 39 70.5 33.9 32.1"/><path id="Shape" fill="#383A48" d="M39,75.5 C38.6,75.5 38.1,75.4 37.7,75.3 C35.8,74.8 34.3,73.1 34.1,71.1 L29.2,34.4 L2.3,8.9 C0.8,7.5 0.3,5.3 1.1,3.4 C1.9,1.5 3.7,0.3 5.7,0.3 L90,0.3 C91.9,0.3 93.7,1.4 94.5,3.1 C95.3,4.8 95.1,6.9 93.9,8.4 L42.9,73.5 C42,74.8 40.6,75.5 39,75.5 Z M18.3,10.4 L37.3,28.5 C38.1,29.3 38.7,30.3 38.8,31.5 L42.4,58.2 L79.8,10.5 L18.3,10.4 L18.3,10.4 Z"/></g><g id="Path" transform="translate(236.000000, 2.000000)"><line x1="5.9" x2="62" y1="32.1" y2="5.4"/><path fill="#383A48" fill-rule="nonzero" d="M5.9,37.1 C4,37.1 2.2,36 1.4,34.2 C0.2,31.7 1.3,28.7 3.8,27.5 L60,0.8 C62.5,-0.4 65.5,0.7 66.7,3.2 C67.9,5.7 66.8,8.7 64.3,9.9 L8.1,36.6 C7.3,37 6.6,37.1 5.9,37.1 Z"/></g></g></g><g fill-rule="nonzero"><rect id="Rectangle" width="507.3" height="104.4" x="5.1" y="5.5" fill="#F3F6E6"/><path id="Shape" fill="#383A48" d="M512.4,114.9 L5.1,114.9 C2.3,114.9 0.1,112.7 0.1,109.9 L0.1,5.5 C0.1,2.7 2.3,0.5 5.1,0.5 L512.4,0.5 C515.2,0.5 517.4,2.7 517.4,5.5 L517.4,109.9 C517.4,112.7 515.1,114.9 512.4,114.9 Z M10.1,104.9 L507.4,104.9 L507.4,10.5 L10.1,10.5 L10.1,104.9 L10.1,104.9 Z"/></g><g id="Rectangle" fill="#383A48" fill-rule="nonzero" transform="translate(425.000000, 33.000000)"><rect width="51.8" height="10" x=".9" y=".4"/><rect width="51.8" height="10" x=".9" y="19.7"/><rect width="51.8" height="10" x=".9" y="39"/></g></g><path id="Path" fill="#383A48" fill-rule="nonzero" d="M1189.6,117.2 L831.1,117.2 C828.3,117.2 826.1,119.4 826.1,122.2 L826.1,524 C826.1,526.8 828.3,529 831.1,529 L1189.6,529 C1222.6,529 1249.4,502.2 1249.4,469.2 L1249.4,177 C1249.4,144 1222.5,117.2 1189.6,117.2 Z"/><g fill-rule="nonzero"><g transform="translate(44.000000, 0.000000)"><path id="Path" fill="#AAC6FC" d="M199.5,102 C199.5,126.6 190.3,149.1 175.2,166.2 C157.4,146.1 131.5,133.4 102.5,133.4 C73.5,133.4 47.6,146.1 29.8,166.2 C14.7,149.1 5.5,126.6 5.5,102 C5.5,48.4 48.9,5 102.5,5 C156.1,5 199.5,48.5 199.5,102 Z"/><path id="Shape" fill="#383A48" d="M175.2,171.2 L175.2,171.2 C173.8,171.2 172.4,170.6 171.5,169.5 C154,149.7 128.9,138.4 102.6,138.4 C76.3,138.4 51.1,149.7 33.7,169.5 C32.8,170.6 31.4,171.2 30,171.2 C28.6,171.2 27.2,170.6 26.3,169.5 C9.8,150.9 0.7,126.9 0.7,102 C0.7,45.8 46.4,0 102.7,0 C158.9,0 204.7,45.7 204.7,102 C204.7,126.9 195.6,150.9 179.1,169.5 C178,170.6 176.7,171.2 175.2,171.2 Z M102.6,128.5 C129.9,128.5 156,139.4 175.1,158.7 C187.7,142.6 194.6,122.7 194.6,102.1 C194.6,51.4 153.3,10.1 102.6,10.1 C51.9,10.1 10.6,51.4 10.6,102.1 C10.6,122.7 17.5,142.6 30.1,158.7 C49.2,139.4 75.3,128.5 102.6,128.5 Z"/></g><g transform="translate(44.000000, 0.000000) translate(24.000000, 128.000000)"><path id="Path" fill="#F6E049" d="M151.2,38.2 L151.2,38.2 C133.4,58.3 107.5,71 78.5,71 C49.5,71 23.6,58.3 5.8,38.2 L5.8,38.2 C23.6,18.1 49.5,5.4 78.5,5.4 C107.5,5.4 133.5,18.1 151.2,38.2 Z"/><path id="Shape" fill="#383A48" d="M78.6,76 C49.4,76 21.5,63.4 2.2,41.5 C1.4,40.6 0.9,39.4 0.9,38.2 C0.9,37 1.3,35.8 2.2,34.9 C21.6,13 49.4,0.4 78.6,0.4 C107.8,0.4 135.7,13 155,34.9 C155.8,35.8 156.3,37 156.3,38.2 L156.3,38.2 C156.3,39.4 155.9,40.6 155,41.5 C135.6,63.5 107.8,76 78.6,76 Z M12.7,38.2 C30,55.9 53.7,66 78.6,66 C103.5,66 127.2,55.9 144.5,38.2 C127.2,20.5 103.5,10.4 78.6,10.4 C53.7,10.4 30,20.5 12.7,38.2 Z"/></g><g transform="translate(44.000000, 0.000000) translate(0.000000, 161.000000)"><path id="Path" fill="#AAC6FC" d="M199.5,69.4 C199.5,94 190.3,116.5 175.2,133.6 C157.4,113.5 131.5,100.8 102.5,100.8 C73.5,100.8 47.6,113.5 29.8,133.6 C14.7,116.5 5.5,94 5.5,69.4 C5.5,44.8 14.7,22.3 29.8,5.2 C47.6,25.3 73.5,38 102.5,38 C131.5,38 157.4,25.3 175.2,5.2 C190.4,22.3 199.5,44.8 199.5,69.4 Z"/><path id="Shape" fill="#383A48" d="M175.2,138.6 L175.2,138.6 C173.8,138.6 172.4,138 171.5,136.9 C154,117.1 128.9,105.8 102.6,105.8 C76.3,105.8 51.1,117.1 33.7,136.9 C32.8,138 31.4,138.6 30,138.6 C28.6,138.6 27.2,138 26.3,136.9 C9.8,118.3 0.7,94.3 0.7,69.4 C0.7,44.5 9.8,20.5 26.3,1.9 C27.2,0.8 28.6,0.2 30,0.2 L30,0.2 C31.4,0.2 32.8,0.8 33.7,1.9 C51.2,21.7 76.3,33 102.6,33 C128.9,33 154.1,21.7 171.5,1.9 C172.4,0.8 173.8,0.2 175.2,0.2 L175.2,0.2 C176.6,0.2 178,0.8 178.9,1.9 C195.4,20.5 204.5,44.5 204.5,69.4 C204.5,94.3 195.4,118.3 178.9,136.9 C178,138 176.7,138.6 175.2,138.6 Z M102.6,95.9 C129.9,95.9 156,106.9 175.1,126.1 C187.7,110 194.6,90.1 194.6,69.4 C194.6,48.8 187.7,28.9 175.1,12.8 C156,32.1 129.9,43 102.6,43 C75.3,43 49.2,32.1 30.1,12.8 C17.5,28.9 10.6,48.8 10.6,69.4 C10.6,90 17.5,109.9 30.1,126.1 C49.2,106.8 75.3,95.9 102.6,95.9 Z"/></g><g transform="translate(44.000000, 0.000000) translate(24.000000, 256.000000)"><ellipse id="Oval" cx="78.6" cy="38.6" fill="#F6E049" rx="72.7" ry="32.8"/><path id="Shape" fill="#383A48" d="M78.6,76.4 C49.4,76.4 21.5,63.8 2.2,41.9 C0.5,40 0.5,37.2 2.2,35.3 C21.6,13.4 49.4,0.8 78.6,0.8 C107.8,0.8 135.7,13.4 155,35.3 C156.7,37.2 156.7,40 155,41.9 C135.6,63.9 107.8,76.4 78.6,76.4 Z M12.7,38.6 C30,56.3 53.7,66.4 78.6,66.4 C103.5,66.4 127.2,56.3 144.5,38.6 C127.2,20.9 103.5,10.8 78.6,10.8 C53.7,10.8 30,20.9 12.7,38.6 Z"/></g><g transform="translate(44.000000, 0.000000) translate(0.000000, 289.000000)"><path id="Path" fill="#AAC6FC" d="M199.5,69.8 C199.5,123.4 156.1,166.8 102.5,166.8 C48.9,166.8 5.5,123.4 5.5,69.8 C5.5,45.2 14.7,22.7 29.8,5.6 C47.6,25.7 73.5,38.4 102.5,38.4 C131.5,38.4 157.4,25.7 175.2,5.6 C190.4,22.7 199.5,45.2 199.5,69.8 Z"/><path id="Shape" fill="#383A48" d="M102.6,171.8 C46.4,171.8 0.6,126.1 0.6,69.8 C0.6,44.9 9.7,20.9 26.2,2.3 C27.1,1.2 28.5,0.6 29.9,0.6 L29.9,0.6 C31.3,0.6 32.7,1.2 33.6,2.3 C51.1,22.1 76.2,33.4 102.5,33.4 C128.8,33.4 154,22.1 171.4,2.3 C172.3,1.2 173.7,0.6 175.1,0.6 C176.5,0.6 177.9,1.2 178.8,2.3 C195.3,20.9 204.400164,44.9 204.400164,69.8 C204.5,126.1 158.8,171.8 102.6,171.8 Z M30.1,13.2 C17.5,29.3 10.6,49.2 10.6,69.9 C10.6,120.6 51.9,161.9 102.6,161.9 C153.3,161.9 194.6,120.6 194.6,69.9 C194.6,49.3 187.7,29.4 175.1,13.2 C156,32.5 129.9,43.4 102.6,43.4 C75.3,43.4 49.2,32.5 30.1,13.2 Z"/></g></g><g transform="translate(519.000000, 603.000000)"><rect id="Rectangle" width="10" height="31.7" x="11.2" y="0" fill="#383A48" fill-rule="nonzero"/><g transform="translate(0.000000, 10.000000)"><line id="Path" x1=".3" x2="32" y1="5.9" y2="5.9"/><rect id="Rectangle" width="31.7" height="10" x=".3" y=".9" fill="#383A48" fill-rule="nonzero"/></g></g><g transform="translate(280.000000, 126.000000)"><rect id="Rectangle" width="10" height="31.7" x="10.9" y=".7" fill="#383A48" fill-rule="nonzero"/><g transform="translate(0.000000, 11.000000)"><line id="Path" x1="0" x2="31.7" y1="5.5" y2="5.5"/><rect id="Rectangle" width="31.7" height="10" x="0" y=".5" fill="#383A48" fill-rule="nonzero"/></g></g><g transform="translate(1442.000000, 546.000000)"><rect id="Rectangle" width="10" height="31.7" x="11.7" y="0" fill="#383A48" fill-rule="nonzero"/><g transform="translate(0.000000, 10.000000)"><line id="Path" x1=".9" x2="32.6" y1="5.9" y2="5.9"/><rect id="Rectangle" width="31.7" height="10" x=".9" y=".9" fill="#383A48" fill-rule="nonzero"/></g></g><g transform="translate(1303.000000, 34.000000)"><rect id="Rectangle" width="10" height="31.7" x="11.5" y=".6" fill="#383A48" fill-rule="nonzero"/><g transform="translate(0.000000, 11.000000)"><line id="Path" x1=".6" x2="32.4" y1="5.5" y2="5.5"/><rect id="Rectangle" width="31.7" height="10" x=".6" y=".5" fill="#383A48" fill-rule="nonzero"/></g></g><path id="Path" fill="#383A48" fill-rule="nonzero" d="M408,718.4 C399.3,718.4 391.1,715 384.9,708.8 L370.4,694.4 C361.5,685.5 347.1,685.6 338.3,694.4 L322.4,710.3 C320.4,712.3 317.3,712.3 315.3,710.3 C313.3,708.3 313.3,705.2 315.3,703.2 L331.2,687.3 C344,674.5 364.7,674.5 377.5,687.3 L392,701.7 C396.3,706 402,708.3 408.1,708.3 L408.1,708.3 C414.2,708.3 419.9,705.9 424.2,701.6 L438.6,687.1 C451.4,674.3 472.1,674.3 484.9,687.1 L499.4,701.5 C508.3,710.4 522.7,710.3 531.5,701.5 L545.9,687 C558.7,674.2 579.4,674.2 592.2,687 L606.8,701.5 C608.8,703.5 608.8,706.6 606.8,708.6 C604.8,710.6 601.7,710.6 599.7,708.6 L585.1,694.1 C576.2,685.2 561.8,685.3 553,694.1 L538.6,708.6 C525.8,721.4 505.1,721.4 492.3,708.6 L477.8,694.2 C468.9,685.3 454.5,685.4 445.7,694.2 L431.3,708.7 C425,715 416.8,718.4 408,718.4 L408,718.4 Z"/><path id="Path" fill="#4053FA" fill-rule="nonzero" d="M1496.5,0 L1431.8,0 C1429,0 1426.8,2.2 1426.8,5 C1426.8,43.4 1458.1,74.7 1496.5,74.7 C1499.3,74.7 1501.5,72.5 1501.5,69.7 L1501.5,5 C1501.5,2.2 1499.3,0 1496.5,0 Z"/><g fill-rule="nonzero" transform="translate(347.000000, 31.000000)"><path id="Path" fill="#383A48" d="M368.8,394.2 L158.5,394.2 C155.7,394.2 153.5,396.4 153.5,399.2 L153.5,484.4 C153.5,487.2 155.7,489.4 158.5,489.4 L368.8,489.4 C371.6,489.4 373.8,487.2 373.8,484.4 L373.8,399.2 C373.8,396.4 371.6,394.2 368.8,394.2 Z"/><path id="Path" fill="#383A48" d="M368.8,0.9 L158.5,0.9 C155.7,0.9 153.5,3.1 153.5,5.9 L153.5,96.4 C153.5,99.2 155.7,101.4 158.5,101.4 L368.8,101.4 C371.6,101.4 373.8,99.2 373.8,96.4 L373.8,5.9 C373.8,3.2 371.6,0.9 368.8,0.9 Z"/><g transform="translate(0.000000, 39.000000)"><path id="Path" fill="#7FD6C2" d="M802.3,407 L60.4,407 C30.1,407 5.6,382.5 5.6,352.2 L5.6,60.1 C5.6,29.8 30.1,5.3 60.4,5.3 L802.2,5.3 C832.5,5.3 857.000304,29.8 857.000304,60.1 L857.000304,352.2 C857.1,382.5 832.5,407 802.3,407 Z"/><path id="Shape" fill="#F3F6E6" d="M802.3,412 L60.4,412 C27.4,412 0.6,385.2 0.6,352.2 L0.6,60.1 C0.6,27.1 27.4,0.3 60.4,0.3 L802.2,0.3 C835.2,0.3 862.000278,27.1 862.000278,60.1 L862.000278,352.2 C862.1,385.2 835.2,412 802.3,412 Z M60.4,10.3 C32.9,10.3 10.6,32.6 10.6,60.1 L10.6,352.2 C10.6,379.7 32.9,402 60.4,402 L802.2,402 C829.7,402 852,379.7 852,352.2 L852,60.1 C852,32.6 829.7,10.3 802.2,10.3 L60.4,10.3 Z"/></g><path id="Shape" fill="#F3F6E6" d="M74.4,278.7 C55.9,278.7 40.9,263.7 40.9,245.2 C40.9,226.7 55.9,211.7 74.4,211.7 C92.9,211.7 107.9,226.7 107.9,245.2 C107.9,263.7 92.9,278.7 74.4,278.7 Z M74.4,221.6 C61.4,221.6 50.9,232.2 50.9,245.1 C50.9,258 61.5,268.6 74.4,268.6 C87.3,268.6 97.9,258 97.9,245.1 C97.9,232.2 87.4,221.6 74.4,221.6 Z"/><g fill="#F3F6E6" transform="translate(806.000000, 98.000000)"><path id="Path" d="M28,242.7 L28,242.7 C15.3,242.7 5,232.4 5,219.7 L5,74.6 C5,61.9 15.3,51.6 28,51.6 L28,51.6 C40.7,51.6 51,41.3 51,28.6 L51,5.1 L51,288.3 L51,265.7 C51.1,253 40.7,242.7 28,242.7 Z"/><path id="Shape" d="M51.1,293.3 C48.3,293.3 46.1,291.1 46.1,288.3 L46.1,265.7 C46.1,255.8 38,247.7 28.1,247.7 C12.6,247.7 0.1,235.1 0.1,219.7 L0.1,74.6 C0.1,59.1 12.7,46.6 28.1,46.6 C38,46.6 46.1,38.5 46.1,28.6 L46.1,5.1 C46.1,2.3 48.3,0.1 51.1,0.1 C53.9,0.1 56.1,2.3 56.1,5.1 L56.1,288.3 C56.1,291.1 53.8,293.3 51.1,293.3 Z M46.1,50 C41.2,54.1 34.9,56.6 28.1,56.6 C18.2,56.6 10.1,64.7 10.1,74.6 L10.1,219.7 C10.1,229.6 18.2,237.7 28.1,237.7 C35,237.7 41.3,240.2 46.1,244.3 L46.1,50 Z"/></g><path id="Path" fill="#383A48" d="M201.7,131.9 L191.7,131.9 L191.7,91.1 C191.7,88.3 193.9,86.1 196.7,86.1 L239.8,86.1 L239.8,96.1 L201.7,96.1 L201.7,131.9 Z"/><path id="Path" fill="#383A48" d="M699.3,131.9 L689.3,131.9 L689.3,96.1 L651.2,96.1 L651.2,86.1 L694.3,86.1 C697.1,86.1 699.3,88.3 699.3,91.1 L699.3,131.9 Z"/><path id="Path" fill="#383A48" d="M239.9,404.2 L196.8,404.2 C194,404.2 191.8,402 191.8,399.2 L191.8,358.4 L201.8,358.4 L201.8,394.2 L239.9,394.2 L239.9,404.2 Z"/><path id="Path" fill="#383A48" d="M694.3,404.2 L651.2,404.2 L651.2,394.2 L689.3,394.2 L689.3,358.4 L699.3,358.4 L699.3,399.2 C699.3,401.9 697,404.2 694.3,404.2 Z"/><path id="Path" fill="#383A48" d="M611.3,365.3 L621.3,365.3 C621.3,325.3 588.8,292.8 548.8,292.8 C508.8,292.8 476.3,325.3 476.3,365.3 L486.3,365.3 L486.3,365.3 L611.3,365.3 L611.3,365.3 Z"/><g fill="#F3F6E6" transform="translate(561.000000, 131.000000)"><ellipse id="Oval" cx="22.1" cy="25.4" rx="16.7" ry="19.5"/><path id="Shape" d="M22.1,49.9 C19.3,49.9 17.1,47.7 17.1,44.9 C17.1,40.5 16,30.4 5.4,30.4 C2.6,30.4 0.4,28.2 0.4,25.4 C0.4,22.6 2.6,20.4 5.4,20.4 C16,20.4 17.1,10.3 17.1,5.9 C17.1,3.1 19.3,0.9 22.1,0.9 C24.9,0.9 27.1,3.1 27.1,5.9 C27.1,10.3 28.2,20.4 38.8,20.4 C41.6,20.4 43.8,22.6 43.8,25.4 C43.8,28.2 41.6,30.4 38.8,30.4 C28.2,30.4 27.1,40.5 27.1,44.9 C27.1,47.7 24.9,49.9 22.1,49.9 Z M19.5,25.4 C20.4,26.2 21.3,27.2 22.1,28.2 C22.9,27.2 23.7,26.3 24.7,25.4 C23.8,24.6 22.9,23.6 22.1,22.6 C21.4,23.7 20.5,24.6 19.5,25.4 Z"/></g><g fill="#F3F6E6" transform="translate(241.000000, 235.000000)"><ellipse id="Oval" cx="22.1" cy="25.1" rx="16.7" ry="19.5"/><path id="Shape" d="M22.1,49.6 C19.3,49.6 17.1,47.4 17.1,44.6 C17.1,40.2 16,30.1 5.4,30.1 C2.6,30.1 0.4,27.9 0.4,25.1 C0.4,22.3 2.6,20.1 5.4,20.1 C16,20.1 17.1,10 17.1,5.6 C17.1,2.8 19.3,0.6 22.1,0.6 C24.9,0.6 27.1,2.8 27.1,5.6 C27.1,10 28.2,20.1 38.8,20.1 C41.6,20.1 43.8,22.3 43.8,25.1 C43.8,27.9 41.6,30.1 38.8,30.1 C28.2,30.1 27.1,40.2 27.1,44.6 C27.1,47.4 24.9,49.6 22.1,49.6 Z M19.5,25.1 C20.4,25.9 21.3,26.9 22.1,27.9 C22.9,26.9 23.7,26 24.7,25.1 C23.8,24.3 22.9,23.3 22.1,22.3 C21.3,23.4 20.5,24.3 19.5,25.1 Z"/></g><g transform="translate(515.000000, 224.000000)"><path id="Path" fill="#F6E049" d="M33.8,70.3 L33.8,70.3 C18.1,70.3 5.4,57.6 5.4,41.9 L5.4,34 C5.4,18.3 18.1,5.6 33.8,5.6 L33.8,5.6 C49.5,5.6 62.2,18.3 62.2,34 L62.2,41.9 C62.2,57.6 49.5,70.3 33.8,70.3 Z"/><path id="Shape" fill="#383A48" d="M33.8,75.3 C15.4,75.3 0.4,60.3 0.4,41.9 L0.4,34 C0.4,15.6 15.4,0.6 33.8,0.6 C52.2,0.6 67.2,15.6 67.2,34 L67.2,41.9 C67.2,60.3 52.3,75.3 33.8,75.3 Z M33.8,10.6 C20.9,10.6 10.4,21.1 10.4,34 L10.4,41.9 C10.4,54.8 20.9,65.3 33.8,65.3 C46.7,65.3 57.2,54.8 57.2,41.9 L57.2,34 C57.2,21.1 46.7,10.6 33.8,10.6 Z"/></g><g transform="translate(269.000000, 138.000000)"><g id="Path"><path fill="#F3F6E6" d="M5.6,109.3 C5.6,52.2 51.9,5.9 109,5.9 C166.1,5.9 212.4,52.2 212.4,109.3" transform="translate(0.000000, 118.000000)"/><path fill="#383A48" d="M217.4,109.3 L207.4,109.3 C207.4,55.1 163.3,10.9 109,10.9 C54.7,10.9 10.6,55 10.6,109.3 L0.6,109.3 C0.6,49.5 49.2,0.9 109,0.9 C168.8,0.9 217.4,49.6 217.4,109.3 Z" transform="translate(0.000000, 118.000000)"/></g><g transform="translate(53.000000, 0.000000)"><path id="Path" fill="#F6E049" d="M56,124 L56,124 C28,124 5.4,101.3 5.4,73.4 L5.4,56.4 C5.4,28.4 28.1,5.8 56,5.8 L56,5.8 C84,5.8 106.6,28.5 106.6,56.4 L106.6,73.4 C106.6,101.3 84,124 56,124 Z"/><path id="Shape" fill="#383A48" d="M56,129 C25.3,129 0.4,104 0.4,73.4 L0.4,56.4 C0.4,25.7 25.4,0.8 56,0.8 C86.6,0.8 111.6,25.8 111.6,56.4 L111.6,73.4 C111.6,104 86.7,129 56,129 Z M56,10.7 C30.8,10.7 10.4,31.2 10.4,56.3 L10.4,73.3 C10.4,98.5 30.9,118.9 56,118.9 C81.1,118.9 101.6,98.4 101.6,73.3 L101.6,56.3 C101.6,31.2 81.1,10.7 56,10.7 Z"/></g></g></g></g></g></g></svg>