<svg xmlns="http://www.w3.org/2000/svg" xmlns:xlink="http://www.w3.org/1999/xlink" width="1452" height="822" version="1.1" viewBox="0 0 1452 822"><title>camping</title><desc>Created with Sketch.</desc><g id="Page-1" fill="none" fill-rule="evenodd" stroke="none" stroke-width="1"><g id="camping" fill-rule="nonzero" transform="translate(-234.000000, -129.000000)"><g id="Group" transform="translate(234.000000, 129.000000)"><path id="Path" fill="#F3F6E6" d="M1436.1,100.1 C1433.3,100.1 1431.1,102.3 1431.1,105.1 C1431.1,150.6 1424.4,187.1 1410.7,216.7 C1399.5,240.9 1383.7,260.4 1361,278 C1359.3,279.3 1358.6,281.6 1359.3,283.6 C1368.1,309.3 1369.7,336.9 1363.8,363.4 C1357.8,390.7 1344.1,415.6 1324.2,435.4 C1289.7,469.9 1240.5,485 1192.5,475.8 C1190,475.3 1187.5,476.8 1186.8,479.2 C1159.3,568.2 1117.5,613.4 1083.9,649.7 C1042.9,694 1010.5,729 1026.3,816.1 C1026.7,818.5 1028.8,820.2 1031.2,820.2 L1348.5,820.2 C1399.5,820.2 1441.1,778.7 1441.1,727.6 L1441.1,105.1 C1441.1,102.3 1438.9,100.1 1436.1,100.1 Z"/><g transform="translate(59.000000, 284.000000)"><g transform="translate(216.000000, 0.000000)"><polygon id="Path" fill="#AAC6FC" points="5.6 5.1 539.9 5.1 756.2 531.3 221.9 531.3"/><path id="Shape" fill="#383A48" d="M756.2,536.3 L221.9,536.3 C219.9,536.3 218,535.1 217.3,533.2 L0.9,7 C0.3,5.5 0.4,3.7 1.4,2.3 C2.3,0.9 3.9,0.1 5.6,0.1 L539.9,0.1 C541.9,0.1 543.8,1.3 544.5,3.2 L760.8,529.4 C761.4,530.9 761.3,532.7 760.3,534.1 C759.3,535.5 757.9,536.3 756.2,536.3 Z M225.2,526.3 L748.7,526.3 L536.5,10.1 L13,10.1 L225.2,526.3 Z"/></g><g><polygon id="Path" fill="#E0719E" points="755.8 5.1 221.5 5.1 5.2 531.3 539.5 531.3"/><path id="Shape" fill="#383A48" d="M539.5,536.3 L5.2,536.3 C3.5,536.3 2,535.5 1,534.1 C0.1,532.7 -0.1,531 0.5,529.4 L216.8,3.2 C217.6,1.3 219.4,0.1 221.4,0.1 L755.7,0.1 C757.4,0.1 758.9,0.9 759.9,2.3 C760.8,3.7 761,5.4 760.4,7 L544.1,533.2 C543.4,535.1 541.6,536.3 539.5,536.3 Z M12.6,526.3 L536.1,526.3 L748.3,10.1 L224.8,10.1 L12.6,526.3 Z"/></g><g id="Oval" fill="#383A48" transform="translate(50.000000, 18.000000)"><circle cx="665.7" cy="5.6" r="5"/><circle cx="665.7" cy="49.6" r="5"/><circle cx="621.7" cy="5.6" r="5"/><circle cx="621.7" cy="49.6" r="5"/><circle cx="621.7" cy="93.6" r="5"/><circle cx="621.7" cy="137.6" r="5"/><circle cx="621.7" cy="181.6" r="5"/><circle cx="577.7" cy="5.6" r="5"/><circle cx="577.7" cy="49.6" r="5"/><circle cx="577.7" cy="93.6" r="5"/><circle cx="577.7" cy="137.6" r="5"/><circle cx="577.7" cy="181.6" r="5"/><circle cx="577.7" cy="225.6" r="5"/><circle cx="577.7" cy="269.6" r="5"/><circle cx="533.7" cy="5.6" r="5"/><circle cx="533.7" cy="49.6" r="5"/><circle cx="533.7" cy="93.6" r="5"/><circle cx="533.7" cy="137.6" r="5"/><circle cx="533.7" cy="181.6" r="5"/><circle cx="533.7" cy="225.6" r="5"/><circle cx="533.7" cy="269.6" r="5"/><circle cx="533.7" cy="313.6" r="5"/><circle cx="533.7" cy="357.6" r="5"/><circle cx="533.7" cy="401.6" r="5"/><circle cx="489.7" cy="5.6" r="5"/><circle cx="489.7" cy="49.6" r="5"/><circle cx="489.7" cy="93.6" r="5"/><circle cx="489.7" cy="137.6" r="5"/><circle cx="489.7" cy="181.6" r="5"/><circle cx="489.7" cy="225.6" r="5"/><circle cx="489.7" cy="269.6" r="5"/><circle cx="489.7" cy="313.6" r="5"/><circle cx="489.7" cy="357.6" r="5"/><circle cx="489.7" cy="401.6" r="5"/><circle cx="489.7" cy="445.6" r="5"/><circle cx="489.7" cy="489.6" r="5"/><circle cx="445.7" cy="5.6" r="5"/><circle cx="445.7" cy="49.6" r="5"/><circle cx="445.7" cy="93.6" r="5"/><circle cx="445.7" cy="137.6" r="5"/><circle cx="445.7" cy="181.6" r="5"/><circle cx="445.7" cy="225.6" r="5"/><circle cx="445.7" cy="269.6" r="5"/><circle cx="445.7" cy="313.6" r="5"/><circle cx="445.7" cy="357.6" r="5"/><circle cx="445.7" cy="401.6" r="5"/><circle cx="445.7" cy="445.6" r="5"/><circle cx="445.7" cy="489.6" r="5"/><circle cx="401.7" cy="5.6" r="5"/><circle cx="401.7" cy="49.6" r="5"/><circle cx="401.7" cy="93.6" r="5"/><circle cx="401.7" cy="137.6" r="5"/><circle cx="401.7" cy="181.6" r="5"/><circle cx="401.7" cy="225.6" r="5"/><circle cx="401.7" cy="269.6" r="5"/><circle cx="401.7" cy="313.6" r="5"/><circle cx="401.7" cy="357.6" r="5"/><circle cx="401.7" cy="401.6" r="5"/><circle cx="401.7" cy="445.6" r="5"/><circle cx="401.7" cy="489.6" r="5"/><circle cx="357.7" cy="5.6" r="5"/><circle cx="357.7" cy="49.6" r="5"/><circle cx="357.7" cy="93.6" r="5"/><circle cx="357.7" cy="137.6" r="5"/><circle cx="357.7" cy="181.6" r="5"/><circle cx="357.7" cy="225.6" r="5"/><circle cx="357.7" cy="269.6" r="5"/><circle cx="357.7" cy="313.6" r="5"/><circle cx="357.7" cy="357.6" r="5"/><circle cx="357.7" cy="401.6" r="5"/><circle cx="357.7" cy="445.6" r="5"/><circle cx="357.7" cy="489.6" r="5"/><circle cx="313.7" cy="5.6" r="5"/><circle cx="313.7" cy="49.6" r="5"/><circle cx="313.7" cy="93.6" r="5"/><circle cx="313.7" cy="137.6" r="5"/><circle cx="313.7" cy="181.6" r="5"/><circle cx="313.7" cy="225.6" r="5"/><circle cx="313.7" cy="269.6" r="5"/><circle cx="313.7" cy="313.6" r="5"/><circle cx="313.7" cy="357.6" r="5"/><circle cx="313.7" cy="401.6" r="5"/><circle cx="313.7" cy="445.6" r="5"/><circle cx="313.7" cy="489.6" r="5"/><circle cx="269.7" cy="5.6" r="5"/><circle cx="269.7" cy="49.6" r="5"/><circle cx="269.7" cy="93.6" r="5"/><circle cx="269.7" cy="137.6" r="5"/><circle cx="269.7" cy="181.6" r="5"/><circle cx="269.7" cy="225.6" r="5"/><circle cx="269.7" cy="269.6" r="5"/><circle cx="269.7" cy="313.6" r="5"/><circle cx="269.7" cy="357.6" r="5"/><circle cx="269.7" cy="401.6" r="5"/><circle cx="269.7" cy="445.6" r="5"/><circle cx="269.7" cy="489.6" r="5"/><circle cx="225.7" cy="5.6" r="5"/><circle cx="225.7" cy="49.6" r="5"/><circle cx="225.7" cy="93.6" r="5"/><circle cx="225.7" cy="137.6" r="5"/><circle cx="225.7" cy="181.6" r="5"/><circle cx="225.7" cy="225.6" r="5"/><circle cx="225.7" cy="269.6" r="5"/><circle cx="225.7" cy="313.6" r="5"/><circle cx="225.7" cy="357.6" r="5"/><circle cx="225.7" cy="401.6" r="5"/><circle cx="225.7" cy="445.6" r="5"/><circle cx="225.7" cy="489.6" r="5"/><circle cx="181.7" cy="5.6" r="5"/><circle cx="181.7" cy="49.6" r="5"/><circle cx="181.7" cy="93.6" r="5"/><circle cx="181.7" cy="137.6" r="5"/><circle cx="181.7" cy="181.6" r="5"/><circle cx="181.7" cy="225.6" r="5"/><circle cx="181.7" cy="269.6" r="5"/><circle cx="181.7" cy="313.6" r="5"/><circle cx="181.7" cy="357.6" r="5"/><circle cx="181.7" cy="401.6" r="5"/><circle cx="181.7" cy="445.6" r="5"/><circle cx="181.7" cy="489.6" r="5"/><circle cx="137.7" cy="93.6" r="5"/><circle cx="137.7" cy="137.6" r="5"/><circle cx="137.7" cy="181.6" r="5"/><circle cx="137.7" cy="225.6" r="5"/><circle cx="137.7" cy="269.6" r="5"/><circle cx="137.7" cy="313.6" r="5"/><circle cx="137.7" cy="357.6" r="5"/><circle cx="137.7" cy="401.6" r="5"/><circle cx="137.7" cy="445.6" r="5"/><circle cx="137.7" cy="489.6" r="5"/><circle cx="93.7" cy="181.6" r="5"/><circle cx="93.7" cy="225.6" r="5"/><circle cx="93.7" cy="269.6" r="5"/><circle cx="93.7" cy="313.6" r="5"/><circle cx="93.7" cy="357.6" r="5"/><circle cx="93.7" cy="401.6" r="5"/><circle cx="93.7" cy="445.6" r="5"/><circle cx="93.7" cy="489.6" r="5"/><circle cx="49.7" cy="313.6" r="5"/><circle cx="49.7" cy="357.6" r="5"/><circle cx="49.7" cy="401.6" r="5"/><circle cx="49.7" cy="445.6" r="5"/><circle cx="49.7" cy="489.6" r="5"/><circle cx="5.7" cy="401.6" r="5"/><circle cx="5.7" cy="445.6" r="5"/><circle cx="5.7" cy="489.6" r="5"/></g><path id="Path" fill="#383A48" d="M327.1,2.1 C326.2,0.8 324.7,0.1 323.1,0.1 L221.5,0.1 C219.5,0.1 217.6,1.3 216.9,3.2 L169.3,119 C168.6,120.6 168.9,122.4 169.8,123.8 C170.7,125.1 172.3,125.9 173.9,125.9 C174,125.9 174.1,125.9 174.2,125.9 C245.1,122.3 306.8,74.3 327.9,6.5 C328.3,5.1 328,3.4 327.1,2.1 Z"/><path id="Path" fill="#383A48" d="M849.5,530.5 L760.8,4.3 C760.4,1.9 758.3,0.1 755.8,0.1 C753.3,0.1 751.3,2 750.9,4.4 L675.3,530.6 C675.1,532 675.5,533.5 676.5,534.6 C677.4,535.7 678.8,536.3 680.3,536.3 L844.6,536.3 C846.1,536.3 847.5,535.7 848.4,534.5 C849.3,533.3 849.7,531.9 849.5,530.5 Z"/></g><g fill="#383A48" transform="translate(999.000000, 744.000000)"><polygon id="Path" points="32.2 71.3 122 71.3 5.2 5.5"/><path id="Shape" d="M122,76.3 L32.2,76.3 C30.2,76.3 28.3,75.1 27.6,73.2 L0.5,7.3 C-0.3,5.3 0.2,3.1 1.8,1.7 C3.4,0.3 5.7,-1.14963594e-13 7.6,1.1 L124.5,67 C126.5,68.1 127.5,70.4 126.9,72.6 C126.3,74.8 124.3,76.3 122,76.3 Z M35.6,66.3 L103,66.3 L15.3,16.9 L35.6,66.3 Z"/></g><g transform="translate(999.000000, 624.000000)"><g transform="translate(93.000000, 0.000000)"><path id="Path" fill="#E0719E" d="M261.8,191.3 L5.3,191.3 L5.3,5.1 L261.8,5.1 C313.2,5.1 354.9,46.8 354.9,98.2 L354.9,98.2 C354.9,149.6 313.2,191.3 261.8,191.3 Z"/><path id="Shape" fill="#383A48" d="M261.8,196.3 L5.3,196.3 C2.5,196.3 0.3,194.1 0.3,191.3 L0.3,5.1 C0.3,2.3 2.5,0.1 5.3,0.1 L261.8,0.1 C315.9,0.1 359.9,44.1 359.9,98.2 C359.9,152.3 315.9,196.3 261.8,196.3 Z M10.3,186.3 L261.8,186.3 C310.4,186.3 349.9,146.8 349.9,98.2 C349.9,49.6 310.4,10.1 261.8,10.1 L10.3,10.1 L10.3,186.3 Z"/></g><path id="Path" fill="#383A48" d="M237.4,50.8 L164.3,50.8 C161.5,50.8 159.3,48.6 159.3,45.8 C159.3,43 161.5,40.8 164.3,40.8 L237.4,40.8 C240.2,40.8 242.4,43 242.4,45.8 C242.4,48.6 240.1,50.8 237.4,50.8 Z"/><path id="Path" fill="#383A48" d="M327.8,83.2 L254.7,83.2 C251.9,83.2 249.7,81 249.7,78.2 C249.7,75.4 251.9,73.2 254.7,73.2 L327.8,73.2 C330.6,73.2 332.8,75.4 332.8,78.2 C332.8,81 330.6,83.2 327.8,83.2 Z"/><path id="Path" fill="#383A48" d="M265.6,141.2 L229,141.2 C226.2,141.2 224,139 224,136.2 C224,133.4 226.2,131.2 229,131.2 L265.6,131.2 C268.4,131.2 270.6,133.4 270.6,136.2 C270.6,139 268.4,141.2 265.6,141.2 Z"/><path id="Path" fill="#383A48" d="M447.9,103.2 L389.6,103.2 C386.8,103.2 384.6,101 384.6,98.2 C384.6,95.4 386.8,93.2 389.6,93.2 L447.9,93.2 C450.7,93.2 452.9,95.4 452.9,98.2 C452.9,101 450.6,103.2 447.9,103.2 Z"/><g><circle id="Oval" cx="98.3" cy="98.2" r="93.1" fill="#F6E049"/><path id="Shape" fill="#383A48" d="M98.3,196.3 C44.2,196.3 0.2,152.3 0.2,98.2 C0.2,44.1 44.2,0.1 98.3,0.1 C152.4,0.1 196.4,44.1 196.4,98.2 C196.4,152.3 152.4,196.3 98.3,196.3 Z M98.3,10.1 C49.7,10.1 10.2,49.6 10.2,98.2 C10.2,146.8 49.7,186.3 98.3,186.3 C146.9,186.3 186.4,146.8 186.4,98.2 C186.4,49.6 146.9,10.1 98.3,10.1 Z"/></g></g><g id="Path"><path fill="#E0719E" d="M390.8,191.4 C383,168.8 370.4,148.6 353.4,131.5 L268.5,46.6 C238.8,16.9 199.4,0.6 157.5,0.6 C115.6,0.6 76.1,16.9 46.5,46.6 C-14.7,107.8 -14.7,207.4 46.5,268.6 L131.4,353.5 C153.7,375.8 181.9,390.8 212.8,396.7 C213.1,396.8 213.4,396.8 213.7,396.8 C215.9,396.8 217.8,395.4 218.5,393.3 C222.5,380.5 226.1,366.9 229.3,353 C245.4,282.9 289.8,257.4 336.8,230.4 C354.4,220.3 372.6,209.9 389.2,196.9 C390.8,195.6 391.4,193.4 390.8,191.4 Z" transform="translate(978.000000, 89.000000)"/><path fill="#F6E049" d="M390.8,191.4 C390.3,189.9 389,188.7 387.5,188.2 C386,187.7 384.3,188.1 383,189 C366.9,201.5 349,211.8 331.7,221.7 C284.9,248.5 236.5,276.3 219.4,350.7 C216.3,364.4 212.7,377.8 208.8,390.3 C208.4,391.7 208.6,393.1 209.3,394.4 C210,395.6 211.2,396.5 212.6,396.7 C222.5,398.6 232.4,399.5 242.2,399.5 C283.5,399.5 323.5,383.2 353.2,353.5 C374.4,332.3 389,305.7 395.5,276.6 C401.8,248.2 400.2,218.8 390.8,191.4 Z" transform="translate(978.000000, 89.000000)"/></g><path id="Path" fill="#4053FA" d="M1192.9,579.5 C1185.2,579.5 1177.5,576.3 1172.1,570.1 L1160.9,557.5 C1157.7,553.9 1153.4,551.8 1148.6,551.5 C1143.8,551.2 1139.3,552.8 1135.7,555.9 L1123.1,567.1 C1111.6,577.3 1094,576.2 1083.8,564.7 L1072.6,552.1 C1066.1,544.7 1054.8,544.1 1047.4,550.6 L1033.5,562.9 C1031.4,564.7 1028.3,564.5 1026.4,562.5 C1024.6,560.4 1024.8,557.3 1026.8,555.4 L1040.7,543.1 C1052.2,532.9 1069.8,534 1080,545.5 L1091.2,558.1 C1097.7,565.5 1109,566.1 1116.4,559.6 L1129,548.4 C1134.6,543.5 1141.7,541 1149.1,541.5 C1156.5,542 1163.3,545.3 1168.2,550.8 L1179.4,563.4 C1182.6,567 1186.9,569.1 1191.7,569.4 C1196.5,569.7 1201,568.1 1204.6,565 L1217.2,553.8 C1222.8,548.9 1229.9,546.4 1237.3,546.9 C1244.7,547.4 1251.5,550.7 1256.4,556.2 L1267.6,568.9 C1269.4,571 1269.2,574.1 1267.2,576 C1265.1,577.8 1262,577.6 1260.1,575.6 L1248.9,562.9 C1242.4,555.5 1231.1,554.9 1223.7,561.4 L1211.1,572.6 C1206.1,577.2 1199.5,579.5 1192.9,579.5 Z"/><path id="Path" fill="#F3F6E6" d="M496.9,811.3 C385.6,811.3 349.6,765.1 314.7,720.4 C287.2,685.1 261.2,651.8 202,642.6 C136.6,632.5 96.4,609.4 71.5,567.6 C47.9,527.9 37.4,469.5 37.4,378 C37.4,375.2 35.2,373 32.4,373 C29.6,373 27.4,375.2 27.4,378 L27.4,816.3 C27.4,819.1 29.6,821.3 32.4,821.3 L496.9,821.3 C499.7,821.3 501.9,819.1 501.9,816.3 C501.9,813.5 499.6,811.3 496.9,811.3 Z"/><g><g><circle id="Oval" cx="170.3" cy="170.8" r="165.1" fill="#F6E049"/><path id="Shape" fill="#383A48" d="M170.3,340.9 C76.5,340.9 0.2,264.6 0.2,170.8 C0.2,77 76.5,0.7 170.3,0.7 C264.1,0.7 340.4,77 340.4,170.8 C340.4,264.6 264.1,340.9 170.3,340.9 Z M170.3,10.7 C82,10.7 10.2,82.5 10.2,170.8 C10.2,259.1 82,330.9 170.3,330.9 C258.6,330.9 330.4,259.1 330.4,170.8 C330.4,82.5 258.6,10.7 170.3,10.7 Z"/></g><g fill="#383A48" transform="translate(98.000000, 128.000000)"><circle id="Oval" cx="18.2" cy="18.1" r="18.1"/><circle id="Oval" cx="126.4" cy="18.1" r="18.1"/><path id="Path" d="M72.3,117 C47,117 23.8,102.1 13.3,79.1 C12.1,76.6 13.3,73.6 15.8,72.5 C18.3,71.4 21.3,72.5 22.4,75 C31.3,94.5 50.9,107 72.3,107 C93.7,107 113.3,94.4 122.2,75 C123.4,72.5 126.3,71.4 128.8,72.5 C131.3,73.7 132.4,76.6 131.3,79.1 C120.7,102.2 97.6,117 72.3,117 Z"/></g></g><path id="Path" fill="#383A48" d="M544.9,100.1 C533.5,100.1 532.3,89.2 532.3,84.6 C532.3,81.8 530.1,79.6 527.3,79.6 C524.5,79.6 522.3,81.8 522.3,84.6 C522.3,89.3 521.1,100.1 509.7,100.1 C506.9,100.1 504.7,102.3 504.7,105.1 C504.7,107.9 506.9,110.1 509.7,110.1 C521.1,110.1 522.3,121 522.3,125.6 C522.3,128.4 524.5,130.6 527.3,130.6 C530.1,130.6 532.3,128.4 532.3,125.6 C532.3,120.9 533.5,110.1 544.9,110.1 C547.7,110.1 549.9,107.9 549.9,105.1 C549.9,102.3 547.6,100.1 544.9,100.1 Z"/><path id="Path" fill="#383A48" d="M151,448.7 C139.6,448.7 138.4,437.8 138.4,433.2 C138.4,430.4 136.2,428.2 133.4,428.2 C130.6,428.2 128.4,430.4 128.4,433.2 C128.4,437.9 127.2,448.7 115.8,448.7 C113,448.7 110.8,450.9 110.8,453.7 C110.8,456.5 113,458.7 115.8,458.7 C127.2,458.7 128.4,469.6 128.4,474.2 C128.4,477 130.6,479.2 133.4,479.2 C136.2,479.2 138.4,477 138.4,474.2 C138.4,469.5 139.6,458.7 151,458.7 C153.8,458.7 156,456.5 156,453.7 C156,450.9 153.7,448.7 151,448.7 Z"/><path id="Path" fill="#383A48" d="M1001,428.2 C989.6,428.2 988.4,417.3 988.4,412.7 C988.4,409.9 986.2,407.7 983.4,407.7 C980.6,407.7 978.4,409.9 978.4,412.7 C978.4,417.4 977.2,428.2 965.8,428.2 C963,428.2 960.8,430.4 960.8,433.2 C960.8,436 963,438.2 965.8,438.2 C977.2,438.2 978.4,449.1 978.4,453.7 C978.4,456.5 980.6,458.7 983.4,458.7 C986.2,458.7 988.4,456.5 988.4,453.7 C988.4,449 989.6,438.2 1001,438.2 C1003.8,438.2 1006,436 1006,433.2 C1006,430.4 1003.8,428.2 1001,428.2 Z"/><g transform="translate(714.000000, 48.000000)"><g><path id="Path" fill="#F3F6E6" d="M61.2,130.2 L125.1,130.2 L189.6,269.7 L189.6,61.5 C189.6,30.7 164.6,5.8 133.9,5.8 L61.3,5.8 C30.5,5.8 5.59969985,30.8 5.59969985,61.5 L5.59969985,74.5 C5.5,105.3 30.4,130.2 61.2,130.2 Z"/><path id="Shape" fill="#383A48" d="M189.6,274.7 C187.7,274.7 185.9,273.6 185.1,271.8 L121.9,135.2 L61.2,135.2 C27.7,135.2 0.5,108 0.5,74.5 L0.5,61.5 C0.5,28 27.7,0.8 61.2,0.8 L133.8,0.8 C167.3,0.8 194.5,28 194.5,61.5 L194.5,269.7 C194.5,272 192.9,274.1 190.6,274.6 C190.3,274.7 189.9,274.7 189.6,274.7 Z M61.2,10.7 C33.2,10.7 10.5,33.5 10.5,61.4 L10.5,74.4 C10.5,102.4 33.3,125.1 61.2,125.1 L125.1,125.1 C127,125.1 128.8,126.2 129.6,128 L184.6,246.9 L184.6,61.5 C184.6,33.5 161.8,10.8 133.9,10.8 L61.2,10.8 L61.2,10.7 Z"/></g><circle id="Oval" cx="58.8" cy="68.1" r="11.4" fill="#383A48"/><circle id="Oval" cx="93.3" cy="68.1" r="11.4" fill="#383A48"/><circle id="Oval" cx="127.8" cy="68.1" r="11.4" fill="#383A48"/></g></g></g></g></svg>