<?xml version="1.0" encoding="UTF-8"?>
<svg width="1536px" height="792px" viewBox="0 0 1536 792" version="1.1" xmlns="http://www.w3.org/2000/svg" xmlns:xlink="http://www.w3.org/1999/xlink">
    <!-- Generator: Sketch 59.1 (86144) - https://sketch.com -->
    <title>data-exchange</title>
    <desc>Created with Sketch.</desc>
    <g id="Page-1" stroke="none" stroke-width="1" fill="none" fill-rule="evenodd">
        <g id="data-exchange" transform="translate(-192.000000, -144.000000)">
            <g id="Group" transform="translate(192.000000, 144.000000)">
                <path d="M1121.1,0.6 L1009.6,0.6 L898,0.6 L786.5,0.6 L674.9,0.6 L563.4,0.6 L451.8,0.6 L340.3,0.6 L228.7,0.6 L117.2,0.6 L5.6,0.6 C2.8,0.6 0.6,2.8 0.6,5.6 L0.6,117.1 L0.6,228.6 L0.6,340.1 L0.6,451.6 L0.6,563.1 L0.6,674.6 L0.6,786.1 C0.6,788.9 2.8,791.1 5.6,791.1 L117.1,791.1 L228.6,791.1 L340.1,791.1 L451.6,791.1 L563.1,791.1 L674.6,791.1 L786.1,791.1 L898,791.1 L1009.5,791.1 L1121,791.1 C1123.8,791.1 1126.00328,788.9 1126.00328,786.1 L1126.00328,674.8 L1126.00328,563.3 L1126.00328,451.7 L1126.00328,340.2 L1126.00328,228.7 L1126.00328,117.1 L1126.00328,5.6 C1126.1,2.8 1123.9,0.6 1121.1,0.6 Z M1116.1,223.7 L1014.6,223.7 L1014.6,122.1 L1116.1,122.1 L1116.1,223.7 Z M1116.1,335.2 L1014.6,335.2 L1014.6,233.7 L1116.1,233.7 L1116.1,335.2 Z M1116.1,446.7 L1014.6,446.7 L1014.6,345.2 L1116.1,345.2 L1116.1,446.7 Z M1116.1,558.3 L1014.6,558.3 L1014.6,456.7 L1116.1,456.7 L1116.1,558.3 Z M10.6,456.7 L112.1,456.7 L112.1,558.2 L10.6,558.2 L10.6,456.7 Z M10.6,345.2 L112.1,345.2 L112.1,446.7 L10.6,446.7 L10.6,345.2 Z M10.6,233.7 L112.1,233.7 L112.1,335.2 L10.6,335.2 L10.6,233.7 Z M122.2,345.2 L223.7,345.2 L223.7,446.7 L122.2,446.7 L122.2,345.2 Z M233.7,345.2 L335.2,345.2 L335.2,446.7 L233.7,446.7 L233.7,345.2 Z M345.3,345.2 L446.8,345.2 L446.8,446.7 L345.3,446.7 L345.3,345.2 Z M456.8,345.2 L558.3,345.2 L558.3,446.7 L456.8,446.7 L456.8,345.2 Z M568.4,345.2 L669.9,345.2 L669.9,446.7 L568.4,446.7 L568.4,345.2 Z M679.9,345.2 L781.4,345.2 L781.4,446.7 L679.9,446.7 L679.9,345.2 Z M791.5,345.2 L893,345.2 L893,446.7 L791.5,446.7 L791.5,345.2 Z M903,345.2 L1004.5,345.2 L1004.5,446.7 L903,446.7 L903,345.2 Z M1004.6,335.2 L903,335.2 L903,233.7 L1004.5,233.7 L1004.6,335.2 L1004.6,335.2 Z M893,335.2 L791.5,335.2 L791.5,233.7 L893,233.7 L893,335.2 Z M781.5,335.2 L679.9,335.2 L679.9,233.7 L781.4,233.7 L781.5,335.2 L781.5,335.2 Z M669.9,335.2 L568.4,335.2 L568.4,233.7 L669.9,233.7 L669.9,335.2 Z M558.4,335.2 L456.8,335.2 L456.8,233.7 L558.3,233.7 L558.3,335.2 L558.4,335.2 Z M446.8,335.2 L345.3,335.2 L345.3,233.7 L446.8,233.7 L446.8,335.2 Z M335.3,335.2 L233.7,335.2 L233.7,233.7 L335.2,233.7 L335.3,335.2 L335.3,335.2 Z M223.7,335.2 L122.2,335.2 L122.2,233.7 L223.7,233.7 L223.7,335.2 Z M122.2,456.7 L223.7,456.7 L223.7,558.2 L122.2,558.2 L122.2,456.7 Z M233.7,456.7 L335.2,456.7 L335.2,558.2 L233.7,558.2 L233.7,456.7 Z M345.3,456.7 L446.8,456.7 L446.8,558.2 L345.3,558.2 L345.3,456.7 Z M456.8,456.7 L558.3,456.7 L558.3,558.2 L456.8,558.2 L456.8,456.7 Z M568.4,456.7 L669.9,456.7 L669.9,558.2 L568.4,558.2 L568.4,456.7 Z M679.9,456.7 L781.4,456.7 L781.4,558.2 L679.9,558.2 L679.9,456.7 Z M791.5,456.7 L893,456.7 L893,558.2 L791.5,558.2 L791.5,456.7 Z M903,456.7 L1004.5,456.7 L1004.5,558.2 L903,558.2 L903,456.7 Z M1004.6,223.7 L903,223.7 L903,122.1 L1004.5,122.1 L1004.6,223.7 L1004.6,223.7 Z M893,223.7 L791.5,223.7 L791.5,122.1 L893,122.1 L893,223.7 Z M781.5,223.7 L679.9,223.7 L679.9,122.1 L781.4,122.1 L781.5,223.7 L781.5,223.7 Z M669.9,223.7 L568.4,223.7 L568.4,122.1 L669.9,122.1 L669.9,223.7 Z M558.4,223.7 L456.8,223.7 L456.8,122.1 L558.3,122.1 L558.3,223.7 L558.4,223.7 L558.4,223.7 Z M446.8,223.7 L345.3,223.7 L345.3,122.1 L446.8,122.1 L446.8,223.7 Z M335.3,223.7 L233.7,223.7 L233.7,122.1 L335.2,122.1 L335.3,223.7 L335.3,223.7 Z M223.7,223.7 L122.2,223.7 L122.2,122.1 L223.7,122.1 L223.7,223.7 Z M112.2,223.7 L10.6,223.7 L10.6,122.1 L112.1,122.1 L112.1,223.7 L112.2,223.7 L112.2,223.7 Z M10.6,568.3 L112.1,568.3 L112.1,669.8 L10.6,669.8 L10.6,568.3 Z M122.2,568.3 L223.7,568.3 L223.7,669.8 L122.2,669.8 L122.2,568.3 Z M233.7,568.3 L335.2,568.3 L335.2,669.8 L233.7,669.8 L233.7,568.3 Z M345.3,568.3 L446.8,568.3 L446.8,669.8 L345.3,669.8 L345.3,568.3 Z M456.8,568.3 L558.3,568.3 L558.3,669.8 L456.8,669.8 L456.8,568.3 Z M568.4,568.3 L669.9,568.3 L669.9,669.8 L568.4,669.8 L568.4,568.3 Z M679.9,568.3 L781.4,568.3 L781.4,669.8 L679.9,669.8 L679.9,568.3 Z M791.5,568.3 L893,568.3 L893,669.8 L791.5,669.8 L791.5,568.3 Z M903,568.3 L1004.5,568.3 L1004.5,669.8 L903,669.8 L903,568.3 Z M1014.6,568.3 L1116.1,568.3 L1116.1,669.8 L1014.6,669.8 L1014.6,568.3 Z M1116.1,112.1 L1014.6,112.1 L1014.6,10.6 L1116.1,10.6 L1116.1,112.1 Z M1004.6,112.1 L903,112.1 L903,10.6 L1004.5,10.6 L1004.6,112.1 L1004.6,112.1 Z M893,112.1 L791.5,112.1 L791.5,10.6 L893,10.6 L893,112.1 Z M781.5,112.1 L679.9,112.1 L679.9,10.6 L781.4,10.6 L781.5,112.1 L781.5,112.1 Z M669.9,112.1 L568.4,112.1 L568.4,10.6 L669.9,10.6 L669.9,112.1 Z M558.4,112.1 L456.8,112.1 L456.8,10.6 L558.3,10.6 L558.3,112.1 L558.4,112.1 Z M446.8,112.1 L345.3,112.1 L345.3,10.6 L446.8,10.6 L446.8,112.1 Z M335.3,112.1 L233.7,112.1 L233.7,10.6 L335.2,10.6 L335.3,112.1 L335.3,112.1 Z M223.7,112.1 L122.2,112.1 L122.2,10.6 L223.7,10.6 L223.7,112.1 Z M10.6,10.6 L112.1,10.6 L112.1,112.1 L10.6,112.1 L10.6,10.6 Z M10.6,679.8 L112.1,679.8 L112.1,781.3 L10.6,781.3 L10.6,679.8 Z M122.2,679.8 L223.7,679.8 L223.7,781.3 L122.2,781.3 L122.2,679.8 Z M233.7,679.8 L335.2,679.8 L335.2,781.3 L233.7,781.3 L233.7,679.8 Z M345.3,679.8 L446.8,679.8 L446.8,781.3 L345.3,781.3 L345.3,679.8 Z M456.8,679.8 L558.3,679.8 L558.3,781.3 L456.8,781.3 L456.8,679.8 Z M568.4,679.8 L669.9,679.8 L669.9,781.3 L568.4,781.3 L568.4,679.8 Z M679.9,679.8 L781.4,679.8 L781.4,781.3 L679.9,781.3 L679.9,679.8 Z M791.5,679.8 L893,679.8 L893,781.3 L791.5,781.3 L791.5,679.8 Z M903,679.8 L1004.5,679.8 L1004.5,781.3 L903,781.3 L903,679.8 Z M1116.1,781.4 L1014.6,781.4 L1014.6,679.8 L1116.1,679.8 L1116.1,781.4 Z" id="Shape" fill="#F3F6E6" fill-rule="nonzero"></path>
                <path d="M563.4,0.6 L5.6,0.6 C2.8,0.6 0.6,2.8 0.6,5.6 L0.6,563.3 C0.6,566.1 2.8,568.3 5.6,568.3 C8.4,568.3 10.6,566.1 10.6,563.3 C10.6,525.2 31.8,489.9 75.3,455.4 C111.4,426.7 163.5,398.4 234.5,368.9 C299,342.1 305.9,295 312,253.5 C317.3,217.8 321.8,186.9 359.6,171 C395.7,155.8 411.4,125.9 426.5,97 C437.6,75.7 449.1,53.7 469,37.6 C491.3,19.5 522.1,10.6 563.3,10.6 C566.1,10.6 568.3,8.4 568.3,5.6 C568.3,2.8 566.1,0.6 563.4,0.6 Z" id="Path" fill="#F3F6E6" fill-rule="nonzero"></path>
                <path d="M1465.9,50.4 C1463.1,50.4 1460.9,52.6 1460.9,55.4 C1460.9,138.2 1440.3,202 1396.1,256 C1356.7,304.1 1303.9,338.2 1248,374.2 C1209.7,398.9 1170.1,424.4 1133.7,455.5 C1099,485.1 1054.5,507 997.4,522.5 C947.4,536 894.3,542.8 847.5,548.8 C772.9,558.3 708.4,566.6 680.7,598.4 C646.2,637.9 596.9,680.9 548.8,713.6 C506,742.6 442.6,778 383.8,781.6 C381.1,781.8 379,784 379.096572,786.7 C379.2,789.4 381.4,791.5 384.1,791.5 L1465.9,791.5 C1468.7,791.5 1470.9,789.3 1470.9,786.5 L1470.9,55.5 C1470.9,52.7 1468.7,50.4 1465.9,50.4 Z" id="Path" fill="#F3F6E6" fill-rule="nonzero"></path>
                <g transform="translate(1.000000, 47.000000)" fill-rule="nonzero">
                    <path d="M425.7,105.9 C424.5,104.1 422.1,103.2 420,103.9 C400.1,110.2 372.8,115.5 341.1,119.2 C339.6,119.4 338.3,120.2 337.5,121.4 C336.7,122.6 336.5,124.2 336.9,125.6 C346.7,158.1 351.8,194.9 351.8,232.2 C351.8,269.5 346.6,306.3 336.9,338.8 L336.9,338.8 C315.6,409.7 275.3,453.7 231.7,453.7 C228.9,453.7 226.7,455.9 226.7,458.7 C226.7,461.5 228.9,463.7 231.7,463.7 C310.2,463.7 382.8,424.4 425.7,358.5 C450.2,320.9 463.1,277.3 463.1,232.2 C463.1,187.1 450.2,143.4 425.7,105.9 Z" id="Path" fill="#383A48"></path>
                    <g transform="translate(226.000000, 0.000000)">
                        <path d="M195.5,108.6 L195.5,108.6 C175.4,115 147.9,120.4 115.6,124.1 C94.4,53.6 53.1,5.7 5.6,5.7 C85.2,5.7 155.1,46.6 195.5,108.6 Z" id="Path" fill="#7FD6C2"></path>
                        <path d="M115.6,129.1 C113.4,129.1 111.5,127.7 110.8,125.5 C89.5,54.7 49.2,10.6 5.6,10.6 C2.8,10.6 0.6,8.4 0.6,5.6 C0.6,2.8 2.8,0.6 5.6,0.6 C84.1,0.6 156.7,39.9 199.6,105.8 C200.6,107.3 200.7,109.3 199.8,110.9 C199.1,112.1 198,113 196.8,113.3 C176.3,119.8 148.5,125.2 116.2,128.9 C116,129.1 115.8,129.1 115.6,129.1 Z M51.6,15.4 C79.9,34.3 104,70.3 119.2,118.6 C145.9,115.4 169.4,110.9 187.6,105.7 C155,58.9 106.3,27 51.6,15.4 Z" id="Shape" fill="#383A48"></path>
                    </g>
                    <g transform="translate(36.000000, 0.000000)">
                        <path d="M195.7,5.7 C148.2,5.7 106.9,53.6 85.7,124.1 C54.5,120.5 27.8,115.4 7.9,109.2 L5.9,108.5 C46.3,46.6 116.2,5.7 195.7,5.7 Z" id="Path" fill="#F3F6E6"></path>
                        <path d="M85.7,129.1 C85.5,129.1 85.3,129.1 85.1,129.1 C53.8,125.5 26.6,120.3 6.4,114.1 C6.3,114.1 6.3,114.1 6.2,114 L4.2,113.3 C2.8,112.8 1.6,111.6 1.1,110.2 C0.6,108.8 0.8,107.1 1.6,105.9 C44.6,40.1 117.1,0.8 195.6,0.8 C198.4,0.8 200.6,3 200.6,5.8 C200.6,8.6 198.4,10.8 195.6,10.8 C152,10.8 111.7,54.8 90.4,125.7 C89.8,127.7 87.9,129.1 85.7,129.1 Z M13.8,105.8 C32,111 55.5,115.4 82.2,118.7 C97.4,70.4 121.5,34.4 149.8,15.5 C95,27 46.4,58.9 13.8,105.8 Z" id="Shape" fill="#383A48"></path>
                    </g>
                    <g transform="translate(0.000000, 103.000000)">
                        <path d="M121.7,21.1 C112.1,53.2 106.6,90 106.6,129.1 L5.2,129.1 C5.2,83.5 18.7,41 41.9,5.5 L43.9,6.2 C63.8,12.4 90.5,17.5 121.7,21.1 Z" id="Path" fill="#F3F6E6"></path>
                        <path d="M106.6,134.1 L5.2,134.1 C2.4,134.1 0.2,131.9 0.2,129.1 C0.2,84 13.2,40.3 37.7,2.8 C39,0.9 41.4,-3.66373598e-15 43.6,0.8 L45.5,1.5 C65.1,7.5 91.7,12.6 122.3,16.1 C123.8,16.3 125.1,17.1 125.9,18.3 C126.7,19.5 126.9,21.1 126.5,22.5 C116.7,55 111.6,91.8 111.6,129.1 C111.6,131.9 109.3,134.1 106.6,134.1 Z M10.3,124.1 L101.6,124.1 C102,89.7 106.7,55.8 115.3,25.3 C87.3,21.8 62.8,17.1 44,11.4 C22.8,45.3 11.2,84.1 10.3,124.1 Z" id="Shape" fill="#383A48"></path>
                    </g>
                    <g transform="translate(0.000000, 227.000000)">
                        <path d="M121.7,113.2 C90.5,116.8 63.8,121.9 43.9,128 L41.9,128.7 C18.7,93.2 5.2,50.7 5.2,5.1 L106.6,5.1 C106.6,44.3 112,81.1 121.7,113.2 Z" id="Path" fill="#F6E049"></path>
                        <path d="M41.9,133.8 C40.2,133.8 38.7,133 37.7,131.5 C13.2,93.9 0.2,50.2 0.2,5.2 C0.2,2.4 2.4,0.2 5.2,0.2 L106.6,0.2 C109.4,0.2 111.6,2.4 111.6,5.2 C111.6,42.5 116.8,79.3 126.5,111.8 C126.9,113.2 126.7,114.8 125.9,116 C125.1,117.2 123.8,118 122.3,118.2 C91.7,121.7 65.1,126.8 45.5,132.8 L43.6,133.5 C43,133.7 42.5,133.8 41.9,133.8 Z M10.3,10.1 C11.2,50.2 22.8,88.9 44,122.7 C62.7,117.1 87.2,112.3 115.3,108.8 C106.8,78.3 102.1,44.4 101.6,10 L10.3,10 L10.3,10.1 Z" id="Shape" fill="#383A48"></path>
                    </g>
                    <g transform="translate(36.000000, 335.000000)">
                        <path d="M195.7,123.6 C116.2,123.6 46.3,82.7 5.9,20.7 L7.9,20 C27.8,13.9 54.5,8.8 85.7,5.2 C106.9,75.7 148.2,123.6 195.7,123.6 Z" id="Path" fill="#7FD6C2"></path>
                        <path d="M195.7,128.6 C117.2,128.6 44.7,89.3 1.7,23.5 C0.9,22.2 0.7,20.6 1.1,19.2 C1.6,17.8 2.7,16.6 4.1,16.1 L6.1,15.4 C6.2,15.4 6.2,15.3 6.3,15.3 C26.5,9.1 53.7,3.9 85,0.3 C87.4,-6.605827e-15 89.7,1.5 90.4,3.8 C111.7,74.7 152,118.7 195.6,118.7 C198.4,118.7 200.6,120.9 200.6,123.7 C200.6,126.5 198.4,128.6 195.7,128.6 Z M13.8,23.5 C46.4,70.4 95,102.3 149.8,113.8 C121.5,94.9 97.4,58.9 82.2,10.6 C55.4,13.9 32,18.3 13.8,23.5 Z" id="Shape" fill="#383A48"></path>
                    </g>
                    <g transform="translate(116.000000, 329.000000)">
                        <path d="M115.7,5.3 L115.7,129.7 C68.2,129.7 26.9,81.8 5.7,11.3 C38.3,7.4 75.8,5.3 115.7,5.3 Z" id="Path" fill="#AAC6FC"></path>
                        <path d="M115.7,134.6 C67.5,134.6 23.5,87.9 0.9,12.6 C0.5,11.2 0.7,9.6 1.5,8.4 C2.3,7.2 3.6,6.4 5.1,6.2 C38.7,2.3 77,0.2 115.7,0.2 C118.5,0.2 120.7,2.4 120.7,5.2 L120.7,129.5 C120.7,132.4 118.4,134.6 115.7,134.6 Z M12.3,15.5 C33.1,80.3 70.2,121.3 110.7,124.4 L110.7,10.3 C76.4,10.4 42.6,12.2 12.3,15.5 Z" id="Shape" fill="#383A48"></path>
                    </g>
                    <g transform="translate(101.000000, 227.000000)">
                        <path d="M130.7,5.1 L130.7,107.2 C90.8,107.2 53.3,109.3 20.7,113.1 C11.1,81 5.6,44.2 5.6,5.1 L130.7,5.1 L130.7,5.1 Z" id="Path" fill="#7FD6C2"></path>
                        <path d="M20.7,118.2 C18.5,118.2 16.6,116.8 15.9,114.6 C5.9,81.2 0.6,43.3 0.6,5.1 C0.6,2.3 2.8,0.1 5.6,0.1 L130.7,0.1 C133.5,0.1 135.7,2.3 135.7,5.1 L135.7,107.2 C135.7,110 133.5,112.2 130.7,112.2 C92.4,112.2 54.6,114.2 21.3,118.1 C21.1,118.2 20.9,118.2 20.7,118.2 Z M10.6,10.1 C11,44.1 15.7,77.7 24.3,107.7 C55.4,104.3 90.3,102.4 125.7,102.2 L125.7,10.1 L10.6,10.1 Z" id="Shape" fill="#383A48"></path>
                    </g>
                    <g transform="translate(101.000000, 119.000000)">
                        <path d="M130.7,11 L130.7,113.1 L5.6,113.1 C5.6,74 11.1,37.2 20.7,5.1 C53.3,8.9 90.8,11 130.7,11 Z" id="Path" fill="#F6E049"></path>
                        <path d="M130.7,118.1 L5.6,118.1 C2.8,118.1 0.6,115.9 0.6,113.1 C0.6,74.9 5.9,37 15.9,3.6 C16.6,1.3 18.9,-0.2 21.3,0.1 C54.6,3.9 92.4,6 130.7,6 C133.5,6 135.7,8.2 135.7,11 L135.7,113.1 C135.7,115.9 133.4,118.1 130.7,118.1 Z M10.6,108.1 L125.7,108.1 L125.7,16 C90.4,15.8 55.5,14 24.3,10.5 C15.7,40.6 11,74.1 10.6,108.1 Z" id="Shape" fill="#383A48"></path>
                    </g>
                    <g transform="translate(116.000000, 0.000000)">
                        <path d="M115.7,5.7 L115.7,130 C75.8,130 38.3,127.9 5.7,124.1 C26.9,53.6 68.2,5.7 115.7,5.7 Z" id="Path" fill="#F3F6E6"></path>
                        <path d="M115.7,135 C77.1,135 38.8,132.9 5.1,129.1 C3.6,128.9 2.3,128.1 1.5,126.9 C0.7,125.7 0.5,124.1 0.9,122.7 C23.5,47.5 67.5,0.7 115.7,0.7 C118.5,0.7 120.7,2.9 120.7,5.7 L120.7,130 C120.7,132.8 118.4,135 115.7,135 Z M12.3,119.8 C42.6,123.1 76.4,124.8 110.7,125 L110.7,10.9 C70.2,14 33.1,55 12.3,119.8 Z" id="Shape" fill="#383A48"></path>
                    </g>
                    <g transform="translate(226.000000, 0.000000)">
                        <path d="M115.6,124.1 C83,127.9 45.5,130 5.6,130 L5.6,5.7 C53.2,5.7 94.5,53.6 115.6,124.1 Z" id="Path" fill="#F6E049"></path>
                        <path d="M5.7,135 C2.9,135 0.7,132.8 0.7,130 L0.7,5.7 C0.7,2.9 2.9,0.7 5.7,0.7 C53.9,0.7 97.9,47.4 120.5,122.7 C120.9,124.1 120.7,125.7 119.9,126.9 C119.1,128.1 117.8,128.9 116.3,129.1 C82.6,133 44.4,135 5.7,135 Z M10.7,10.9 L10.7,125 C45,124.8 78.8,123.1 109.1,119.8 C88.2,55 51.2,14 10.7,10.9 Z" id="Shape" fill="#383A48"></path>
                    </g>
                    <g transform="translate(226.000000, 119.000000)">
                        <path d="M130.8,113.1 L5.7,113.1 L5.7,11 C45.6,11 83.1,8.9 115.7,5.1 C125.3,37.2 130.8,74 130.8,113.1 Z" id="Path" fill="#7FD6C2"></path>
                        <path d="M130.8,118.1 L5.7,118.1 C2.9,118.1 0.7,115.9 0.7,113.1 L0.7,11 C0.7,8.2 2.9,6 5.7,6 C44,6 81.8,4 115.1,0.1 C117.5,-0.2 119.8,1.3 120.5,3.6 C130.5,37 135.8,74.9 135.8,113.1 C135.8,115.9 133.5,118.1 130.8,118.1 Z M10.7,108.1 L125.8,108.1 C125.4,74.1 120.7,40.5 112.1,10.5 C81,13.9 46.1,15.8 10.7,16 L10.7,108.1 L10.7,108.1 Z" id="Shape" fill="#383A48"></path>
                    </g>
                    <g transform="translate(226.000000, 227.000000)">
                        <path d="M130.8,5.1 C130.8,44.2 125.3,81 115.7,113.1 C83.1,109.3 45.6,107.2 5.7,107.2 L5.7,5.1 L130.8,5.1 Z" id="Path" fill="#AAC6FC"></path>
                        <path d="M115.7,118.2 C115.5,118.2 115.3,118.2 115.1,118.2 C81.8,114.3 44,112.3 5.7,112.3 C2.9,112.3 0.7,110.1 0.7,107.3 L0.7,5.1 C0.7,2.3 2.9,0.1 5.7,0.1 L130.8,0.1 C133.6,0.1 135.8,2.3 135.8,5.1 C135.8,43.3 130.5,81.2 120.5,114.6 C119.8,116.8 117.8,118.2 115.7,118.2 Z M10.7,102.3 C46.1,102.5 80.9,104.3 112.1,107.8 C120.7,77.8 125.4,44.2 125.8,10.2 L10.7,10.2 L10.7,102.3 Z" id="Shape" fill="#383A48"></path>
                    </g>
                    <g transform="translate(226.000000, 329.000000)">
                        <path d="M115.6,11.2 C94.4,81.7 53.1,129.6 5.6,129.6 L5.6,5.3 C45.6,5.3 83.1,7.4 115.6,11.2 Z" id="Path" fill="#E0719E"></path>
                        <path d="M5.7,134.6 C2.9,134.6 0.7,132.4 0.7,129.6 L0.7,5.3 C0.7,2.5 2.9,0.3 5.7,0.3 C44.4,0.3 82.6,2.4 116.2,6.3 C117.7,6.5 119,7.3 119.8,8.5 C120.6,9.7 120.8,11.3 120.4,12.7 C97.8,87.9 53.9,134.6 5.7,134.6 Z M10.7,10.3 L10.7,124.4 C51.2,121.3 88.3,80.3 109.1,15.5 C78.8,12.2 45,10.4 10.7,10.3 Z" id="Shape" fill="#383A48"></path>
                    </g>
                </g>
                <g transform="translate(413.000000, 149.000000)" fill-rule="nonzero">
                    <g transform="translate(200.000000, 111.000000)">
                        <rect id="Rectangle" fill="#F6E049" x="5.1" y="5.1" width="397.4" height="397.4"></rect>
                        <path d="M402.5,407.6 L5.1,407.6 C2.3,407.6 0.1,405.4 0.1,402.6 L0.1,5.1 C0.1,2.3 2.3,0.1 5.1,0.1 L402.5,0.1 C405.3,0.1 407.5,2.3 407.5,5.1 L407.5,402.5 C407.5,405.3 405.3,407.6 402.5,407.6 Z M10.1,397.6 L397.5,397.6 L397.5,10.1 L10.1,10.1 L10.1,397.6 Z" id="Shape" fill="#383A48"></path>
                    </g>
                    <g>
                        <polygon id="Path" fill="#F3F6E6" points="5.6 5.5 205.1 116.1 205.1 513.6 5.6 402.9"></polygon>
                        <path d="M205.1,518.6 C204.3,518.6 203.4,518.4 202.7,518 L3.2,407.3 C1.6,406.4 0.6,404.7 0.6,402.9 L0.6,5.5 C0.6,3.7 1.5,2.1 3.1,1.2 C4.6,0.3 6.5,0.3 8.1,1.1 L207.6,111.7 C209.2,112.6 210.2,114.3 210.2,116.1 L210.2,513.5 C210.2,515.3 209.3,516.9 207.7,517.8 C206.8,518.3 206,518.6 205.1,518.6 Z M10.6,400 L200.1,505.1 L200.1,119.1 L10.6,14 L10.6,400 Z" id="Shape" fill="#383A48"></path>
                    </g>
                    <g transform="translate(14.000000, 34.000000)" fill="#383A48" id="Oval">
                        <circle cx="177.7" cy="79.2" r="5"></circle>
                        <circle cx="177.7" cy="103.9" r="5"></circle>
                        <circle cx="177.7" cy="128.5" r="5"></circle>
                        <circle cx="177.7" cy="153.2" r="5"></circle>
                        <circle cx="177.7" cy="177.9" r="5"></circle>
                        <circle cx="177.7" cy="202.5" r="5"></circle>
                        <circle cx="177.7" cy="227.2" r="5"></circle>
                        <circle cx="177.7" cy="251.9" r="5"></circle>
                        <circle cx="177.7" cy="276.5" r="5"></circle>
                        <circle cx="177.7" cy="301.2" r="5"></circle>
                        <circle cx="177.7" cy="325.9" r="5"></circle>
                        <circle cx="177.7" cy="350.5" r="5"></circle>
                        <circle cx="177.7" cy="375.2" r="5"></circle>
                        <circle cx="177.7" cy="399.9" r="5"></circle>
                        <circle cx="177.7" cy="424.5" r="5"></circle>
                        <circle cx="177.7" cy="449.2" r="5"></circle>
                        <circle cx="153" cy="79.2" r="5"></circle>
                        <circle cx="153" cy="103.9" r="5"></circle>
                        <circle cx="153" cy="128.5" r="5"></circle>
                        <circle cx="153" cy="153.2" r="5"></circle>
                        <circle cx="153" cy="177.9" r="5"></circle>
                        <circle cx="153" cy="202.5" r="5"></circle>
                        <circle cx="153" cy="227.2" r="5"></circle>
                        <circle cx="153" cy="251.9" r="5"></circle>
                        <circle cx="153" cy="276.5" r="5"></circle>
                        <circle cx="153" cy="301.2" r="5"></circle>
                        <circle cx="153" cy="325.9" r="5"></circle>
                        <circle cx="153" cy="350.5" r="5"></circle>
                        <circle cx="153" cy="375.2" r="5"></circle>
                        <circle cx="153" cy="399.9" r="5"></circle>
                        <circle cx="153" cy="424.5" r="5"></circle>
                        <circle cx="153" cy="449.2" r="5"></circle>
                        <circle cx="128.3" cy="54.5" r="5"></circle>
                        <circle cx="128.3" cy="79.2" r="5"></circle>
                        <circle cx="128.3" cy="103.9" r="5"></circle>
                        <circle cx="128.3" cy="128.5" r="5"></circle>
                        <circle cx="128.3" cy="153.2" r="5"></circle>
                        <circle cx="128.3" cy="177.9" r="5"></circle>
                        <circle cx="128.3" cy="202.5" r="5"></circle>
                        <circle cx="128.3" cy="227.2" r="5"></circle>
                        <circle cx="128.3" cy="251.9" r="5"></circle>
                        <circle cx="128.3" cy="276.5" r="5"></circle>
                        <circle cx="128.3" cy="301.2" r="5"></circle>
                        <circle cx="128.3" cy="325.9" r="5"></circle>
                        <circle cx="128.3" cy="350.5" r="5"></circle>
                        <circle cx="128.3" cy="375.2" r="5"></circle>
                        <circle cx="128.3" cy="399.9" r="5"></circle>
                        <circle cx="128.3" cy="424.5" r="5"></circle>
                        <circle cx="103.7" cy="54.5" r="5"></circle>
                        <circle cx="103.7" cy="79.2" r="5"></circle>
                        <circle cx="103.7" cy="103.9" r="5"></circle>
                        <circle cx="103.7" cy="128.5" r="5"></circle>
                        <circle cx="103.7" cy="153.2" r="5"></circle>
                        <circle cx="103.7" cy="177.9" r="5"></circle>
                        <circle cx="103.7" cy="202.5" r="5"></circle>
                        <circle cx="103.7" cy="227.2" r="5"></circle>
                        <circle cx="103.7" cy="251.9" r="5"></circle>
                        <circle cx="103.7" cy="276.5" r="5"></circle>
                        <circle cx="103.7" cy="301.2" r="5"></circle>
                        <circle cx="103.7" cy="325.9" r="5"></circle>
                        <circle cx="103.7" cy="350.5" r="5"></circle>
                        <circle cx="103.7" cy="375.2" r="5"></circle>
                        <circle cx="103.7" cy="399.9" r="5"></circle>
                        <circle cx="103.7" cy="424.5" r="5"></circle>
                        <circle cx="79" cy="29.9" r="5"></circle>
                        <circle cx="79" cy="54.5" r="5"></circle>
                        <circle cx="79" cy="79.2" r="5"></circle>
                        <circle cx="79" cy="103.9" r="5"></circle>
                        <circle cx="79" cy="128.5" r="5"></circle>
                        <circle cx="79" cy="153.2" r="5"></circle>
                        <circle cx="79" cy="177.9" r="5"></circle>
                        <circle cx="79" cy="202.5" r="5"></circle>
                        <circle cx="79" cy="227.2" r="5"></circle>
                        <circle cx="79" cy="251.9" r="5"></circle>
                        <circle cx="79" cy="276.5" r="5"></circle>
                        <circle cx="79" cy="301.2" r="5"></circle>
                        <circle cx="79" cy="325.9" r="5"></circle>
                        <circle cx="79" cy="350.5" r="5"></circle>
                        <circle cx="79" cy="375.2" r="5"></circle>
                        <circle cx="79" cy="399.9" r="5"></circle>
                        <circle cx="54.3" cy="29.9" r="5"></circle>
                        <circle cx="54.3" cy="54.5" r="5"></circle>
                        <circle cx="54.3" cy="79.2" r="5"></circle>
                        <circle cx="54.3" cy="103.9" r="5"></circle>
                        <circle cx="54.3" cy="128.5" r="5"></circle>
                        <circle cx="54.3" cy="153.2" r="5"></circle>
                        <circle cx="54.3" cy="177.9" r="5"></circle>
                        <circle cx="54.3" cy="202.5" r="5"></circle>
                        <circle cx="54.3" cy="227.2" r="5"></circle>
                        <circle cx="54.3" cy="251.9" r="5"></circle>
                        <circle cx="54.3" cy="276.5" r="5"></circle>
                        <circle cx="54.3" cy="301.2" r="5"></circle>
                        <circle cx="54.3" cy="325.9" r="5"></circle>
                        <circle cx="54.3" cy="350.5" r="5"></circle>
                        <circle cx="54.3" cy="375.2" r="5"></circle>
                        <circle cx="54.3" cy="399.9" r="5"></circle>
                        <circle cx="29.7" cy="5.2" r="5"></circle>
                        <circle cx="29.7" cy="29.9" r="5"></circle>
                        <circle cx="29.7" cy="54.5" r="5"></circle>
                        <circle cx="29.7" cy="79.2" r="5"></circle>
                        <circle cx="29.7" cy="103.9" r="5"></circle>
                        <circle cx="29.7" cy="128.5" r="5"></circle>
                        <circle cx="29.7" cy="153.2" r="5"></circle>
                        <circle cx="29.7" cy="177.9" r="5"></circle>
                        <circle cx="29.7" cy="202.5" r="5"></circle>
                        <circle cx="29.7" cy="227.2" r="5"></circle>
                        <circle cx="29.7" cy="251.9" r="5"></circle>
                        <circle cx="29.7" cy="276.5" r="5"></circle>
                        <circle cx="29.7" cy="301.2" r="5"></circle>
                        <circle cx="29.7" cy="325.9" r="5"></circle>
                        <circle cx="29.7" cy="350.5" r="5"></circle>
                        <circle cx="29.7" cy="375.2" r="5"></circle>
                        <circle cx="5" cy="5.2" r="5"></circle>
                        <circle cx="5" cy="29.9" r="5"></circle>
                        <circle cx="5" cy="54.5" r="5"></circle>
                        <circle cx="5" cy="79.2" r="5"></circle>
                        <circle cx="5" cy="103.9" r="5"></circle>
                        <circle cx="5" cy="128.5" r="5"></circle>
                        <circle cx="5" cy="153.2" r="5"></circle>
                        <circle cx="5" cy="177.9" r="5"></circle>
                        <circle cx="5" cy="202.5" r="5"></circle>
                        <circle cx="5" cy="227.2" r="5"></circle>
                        <circle cx="5" cy="251.9" r="5"></circle>
                        <circle cx="5" cy="276.5" r="5"></circle>
                        <circle cx="5" cy="301.2" r="5"></circle>
                        <circle cx="5" cy="325.9" r="5"></circle>
                        <circle cx="5" cy="350.5" r="5"></circle>
                        <circle cx="5" cy="375.2" r="5"></circle>
                    </g>
                    <g>
                        <polygon id="Path" fill="#F3F6E6" points="205.1 116.1 602.5 116.1 403.1 5.5 5.6 5.5"></polygon>
                        <path d="M602.5,121.1 L205.1,121.1 C204.3,121.1 203.4,120.9 202.7,120.5 L3.2,9.9 C1.2,8.8 0.2,6.5 0.8,4.3 C1.4,2.1 3.4,0.6 5.6,0.6 L403,0.6 C403.8,0.6 404.7,0.8 405.4,1.2 L604.9,111.8 C606.9,112.9 607.9,115.2 607.3,117.4 C606.8,119.6 604.8,121.1 602.5,121.1 Z M206.4,111.1 L583.2,111.1 L401.8,10.5 L24.9,10.5 L206.4,111.1 Z" id="Shape" fill="#383A48"></path>
                    </g>
                    <g transform="translate(150.000000, 0.000000)">
                        <polygon id="Path" fill="#F6E049" points="205.1 116.1 320.1 116.1 120.6 5.5 5.6 5.5"></polygon>
                        <path d="M320.1,121.1 L205.1,121.1 C204.3,121.1 203.4,120.9 202.7,120.5 L3.2,9.9 C1.2,8.8 0.2,6.5 0.8,4.3 C1.4,2.1 3.4,0.6 5.6,0.6 L120.6,0.6 C121.4,0.6 122.3,0.8 123,1.2 L322.5,111.8 C324.5,112.9 325.5,115.2 324.9,117.4 C324.3,119.6 322.4,121.1 320.1,121.1 Z M206.4,111.1 L300.8,111.1 L119.3,10.5 L24.9,10.5 L206.4,111.1 Z" id="Shape" fill="#383A48"></path>
                    </g>
                    <g transform="translate(350.000000, 111.000000)">
                        <rect id="Rectangle" fill="#F6E049" x="5.1" y="5.1" width="115" height="155.8"></rect>
                        <path d="M120.1,165.9 L5.1,165.9 C2.3,165.9 0.1,163.7 0.1,160.9 L0.1,5.1 C0.1,2.3 2.3,0.1 5.1,0.1 L120.1,0.1 C122.9,0.1 125.1,2.3 125.1,5.1 L125.1,160.9 C125.1,163.7 122.8,165.9 120.1,165.9 Z M10.1,155.9 L115.1,155.9 L115.1,10.1 L10.1,10.1 L10.1,155.9 L10.1,155.9 Z" id="Shape" fill="#383A48"></path>
                    </g>
                    <g transform="translate(350.000000, 111.000000)" fill="#383A48">
                        <g transform="translate(21.000000, 17.000000)" id="Oval">
                            <circle cx="79.6" cy="5.4" r="5"></circle>
                            <circle cx="79.6" cy="30" r="5"></circle>
                            <circle cx="79.6" cy="54.7" r="5"></circle>
                            <circle cx="79.6" cy="79.4" r="5"></circle>
                            <circle cx="79.6" cy="104" r="5"></circle>
                            <circle cx="79.6" cy="128.7" r="5"></circle>
                            <circle cx="54.9" cy="5.4" r="5"></circle>
                            <circle cx="54.9" cy="30" r="5"></circle>
                            <circle cx="54.9" cy="54.7" r="5"></circle>
                            <circle cx="54.9" cy="79.4" r="5"></circle>
                            <circle cx="54.9" cy="104" r="5"></circle>
                            <circle cx="54.9" cy="128.7" r="5"></circle>
                            <circle cx="30.2" cy="5.4" r="5"></circle>
                            <circle cx="30.2" cy="30" r="5"></circle>
                            <circle cx="30.2" cy="54.7" r="5"></circle>
                            <circle cx="30.2" cy="79.4" r="5"></circle>
                            <circle cx="30.2" cy="104" r="5"></circle>
                            <circle cx="30.2" cy="128.7" r="5"></circle>
                            <circle cx="5.6" cy="5.4" r="5"></circle>
                            <circle cx="5.6" cy="30" r="5"></circle>
                            <circle cx="5.6" cy="54.7" r="5"></circle>
                            <circle cx="5.6" cy="79.4" r="5"></circle>
                            <circle cx="5.6" cy="104" r="5"></circle>
                            <circle cx="5.6" cy="128.7" r="5"></circle>
                        </g>
                        <path d="M120.1,165.9 L5.1,165.9 C2.3,165.9 0.1,163.7 0.1,160.9 L0.1,5.1 C0.1,2.3 2.3,0.1 5.1,0.1 L120.1,0.1 C122.9,0.1 125.1,2.3 125.1,5.1 L125.1,160.9 C125.1,163.7 122.8,165.9 120.1,165.9 Z M10.1,155.9 L115.1,155.9 L115.1,10.1 L10.1,10.1 L10.1,155.9 L10.1,155.9 Z" id="Shape"></path>
                    </g>
                </g>
                <g transform="translate(233.000000, 135.000000)" fill="#383A48" fill-rule="nonzero">
                    <path d="M13.7,405.1 C13.1,405.1 12.5,405 11.9,404.8 C9.3,403.8 8.1,400.9 9.1,398.3 C9.7,396.7 10.4,395.1 11,393.5 C12.1,391 15,389.8 17.6,390.9 C20.1,392 21.3,394.9 20.2,397.5 C19.6,399 18.9,400.5 18.4,402 C17.6,403.8 15.7,405.1 13.7,405.1 Z" id="Path"></path>
                    <path d="M208,550.1 C205.2,550.1 203,547.9 203,545.1 C203,542.3 205.2,540.1 208,540.1 C211.3,540.1 214.7,540 218.1,540 C220.8,539.9 223.1,542.1 223.2,544.9 C223.3,547.7 221.1,549.9 218.3,550 C214.8,550 211.4,550 208,550.1 C208.1,550.1 208,550.1 208,550.1 Z M167.5,548.8 C167.4,548.8 167.3,548.8 167.1,548.8 C163.7,548.6 160.3,548.3 156.9,548 C154.1,547.7 152.1,545.3 152.4,542.6 C152.7,539.9 155.1,537.8 157.8,538.1 C161.1,538.4 164.5,538.7 167.8,538.9 C170.6,539.1 172.6,541.5 172.4,544.2 C172.3,546.8 170.1,548.8 167.5,548.8 Z M258.7,547.9 C256.1,547.9 253.9,545.9 253.7,543.3 C253.5,540.5 255.5,538.1 258.3,537.9 C261.6,537.6 265,537.4 268.3,537.1 C271.1,536.9 273.5,538.9 273.7,541.6 C273.9,544.4 271.9,546.8 269.2,547 C265.8,547.3 262.4,547.6 259,547.9 C258.9,547.9 258.8,547.9 258.7,547.9 Z M309.1,542.5 C306.6,542.5 304.5,540.7 304.2,538.2 C303.8,535.5 305.7,532.9 308.5,532.6 C311.8,532.1 315.1,531.7 318.5,531.2 C321.2,530.8 323.8,532.7 324.2,535.4 C324.6,538.1 322.7,540.7 320,541.1 C316.6,541.6 313.3,542.1 309.9,542.5 C309.5,542.4 309.3,542.5 309.1,542.5 Z M117.3,542.3 C117,542.3 116.6,542.3 116.3,542.2 C112.9,541.5 109.5,540.8 106.2,540 C103.5,539.4 101.8,536.7 102.5,534 C103.1,531.3 105.8,529.7 108.5,530.3 C111.7,531 114.9,531.8 118.2,532.4 C120.9,532.9 122.7,535.6 122.1,538.3 C121.7,540.6 119.6,542.3 117.3,542.3 Z M359.1,534.2 C356.7,534.2 354.6,532.5 354.2,530.1 C353.7,527.4 355.5,524.8 358.2,524.3 C361.5,523.7 364.8,523 368.1,522.4 C370.8,521.9 373.4,523.6 374,526.3 C374.5,529 372.8,531.6 370.1,532.2 C366.8,532.9 363.4,533.5 360.1,534.1 C359.7,534.2 359.4,534.2 359.1,534.2 Z M68.8,527.6 C68.1,527.6 67.5,527.5 66.8,527.2 C63.6,525.8 60.4,524.3 57.4,522.8 C54.9,521.6 54,518.5 55.2,516.1 C56.4,513.6 59.5,512.7 61.9,513.9 C64.7,515.3 67.7,516.7 70.8,518.1 C73.3,519.2 74.5,522.1 73.4,524.7 C72.6,526.5 70.8,527.6 68.8,527.6 Z M408.7,523.7 C406.4,523.7 404.4,522.2 403.8,519.9 C403.2,517.2 404.8,514.5 407.5,513.9 C410.8,513.1 414,512.3 417.3,511.5 C420,510.8 422.7,512.5 423.3,515.2 C424,517.9 422.3,520.6 419.6,521.2 C416.3,522 413,522.8 409.7,523.6 C409.4,523.6 409.1,523.7 408.7,523.7 Z M457.8,510.9 C455.6,510.9 453.6,509.5 453,507.3 C452.3,504.6 453.8,501.9 456.5,501.1 C459.7,500.2 463,499.3 466.2,498.3 C468.9,497.5 471.6,499.1 472.4,501.7 C473.2,504.4 471.6,507.1 469,507.9 C465.7,508.8 462.5,509.8 459.2,510.7 C458.7,510.9 458.2,510.9 457.8,510.9 Z M27,499.7 C25.7,499.7 24.3,499.2 23.4,498.1 C20.9,495.5 18.6,492.7 16.5,489.9 C14.9,487.7 15.3,484.6 17.5,482.9 C19.7,481.2 22.8,481.7 24.5,483.9 C26.4,486.4 28.4,488.9 30.6,491.2 C32.5,493.2 32.4,496.4 30.4,498.3 C29.4,499.2 28.2,499.7 27,499.7 Z M506.3,496.2 C504.2,496.2 502.2,494.9 501.5,492.7 C500.6,490.1 502.1,487.3 504.7,486.4 C507.9,485.4 511.1,484.3 514.3,483.2 C516.9,482.3 519.8,483.7 520.6,486.4 C521.5,489 520.1,491.9 517.4,492.7 C514.2,493.8 510.9,494.8 507.7,495.9 C507.3,496.1 506.8,496.2 506.3,496.2 Z M554.2,479.7 C552.2,479.7 550.2,478.4 549.5,476.4 C548.6,473.8 549.9,470.9 552.5,470 C555.7,468.8 558.8,467.7 562,466.5 C564.6,465.5 567.5,466.8 568.4,469.4 C569.4,472 568.1,474.9 565.5,475.8 C562.3,477 559.1,478.2 556,479.3 C555.4,479.6 554.8,479.7 554.2,479.7 Z M601.5,461.4 C599.5,461.4 597.7,460.2 596.9,458.3 C595.9,455.7 597.1,452.8 599.6,451.8 C602.7,450.5 605.8,449.2 608.9,447.9 C611.4,446.8 614.4,448 615.4,450.6 C616.5,453.1 615.3,456.1 612.7,457.1 C609.6,458.4 606.4,459.7 603.3,461 C602.7,461.3 602.1,461.4 601.5,461.4 Z M5.8,454.6 C3.3,454.6 1.1,452.7 0.8,450.1 C0.5,447 0.3,443.9 0.3,440.7 C0.3,440.3 0.3,439.8 0.3,439.4 C0.3,436.7 2.6,434.5 5.3,434.5 C5.3,434.5 5.3,434.5 5.4,434.5 C8.2,434.5 10.4,436.8 10.3,439.6 C10.3,440 10.3,440.4 10.3,440.8 C10.3,443.6 10.4,446.4 10.7,449.1 C11,451.8 9,454.3 6.3,454.6 C6.2,454.6 6,454.6 5.8,454.6 Z M648.1,441.3 C646.2,441.3 644.4,440.2 643.5,438.4 C642.4,435.9 643.5,432.9 646,431.8 C649.1,430.4 652.1,429 655.2,427.6 C657.7,426.4 660.7,427.5 661.8,430 C663,432.5 661.9,435.5 659.4,436.6 C656.3,438 653.2,439.4 650.1,440.8 C649.5,441.2 648.8,441.3 648.1,441.3 Z M693.9,419.6 C692.1,419.6 690.3,418.6 689.4,416.8 C688.2,414.3 689.2,411.3 691.6,410.1 C694.6,408.6 697.6,407.1 700.6,405.6 C703.1,404.3 706.1,405.3 707.3,407.8 C708.6,410.3 707.6,413.3 705.1,414.5 C702.1,416 699.1,417.6 696,419.1 C695.4,419.4 694.6,419.6 693.9,419.6 Z M738.8,396 C737,396 735.3,395.1 734.4,393.4 C733.1,391 733.9,387.9 736.4,386.6 C739.4,385 742.3,383.3 745.2,381.7 C747.6,380.3 750.7,381.2 752,383.6 C753.4,386 752.5,389.1 750.1,390.4 C747.2,392.1 744.2,393.7 741.2,395.4 C740.4,395.8 739.6,396 738.8,396 Z M782.6,370.6 C780.9,370.6 779.3,369.7 778.3,368.2 C776.9,365.8 777.6,362.8 780,361.3 C782.9,359.5 785.8,357.8 788.6,356 C790.9,354.5 794,355.3 795.5,357.6 C797,359.9 796.2,363 793.9,364.5 C791,366.3 788.1,368.1 785.2,369.8 C784.4,370.4 783.5,370.6 782.6,370.6 Z M825.3,343.2 C823.7,343.2 822.1,342.4 821.2,341 C819.7,338.7 820.2,335.6 822.5,334.1 C825.3,332.2 828.1,330.3 830.8,328.4 C833.1,326.8 836.2,327.4 837.8,329.7 C839.4,332 838.8,335.1 836.5,336.7 C833.7,338.6 830.9,340.5 828.1,342.5 C827.2,342.9 826.3,343.2 825.3,343.2 Z M866.5,313.6 C865,313.6 863.5,312.9 862.5,311.6 C860.8,309.4 861.2,306.3 863.4,304.6 C866.1,302.5 868.8,300.5 871.4,298.4 C873.6,296.7 876.7,297.1 878.4,299.3 C880.1,301.5 879.7,304.6 877.5,306.3 C874.8,308.4 872.1,310.5 869.4,312.5 C868.6,313.3 867.5,313.6 866.5,313.6 Z M905.8,281.6 C904.4,281.6 903,281 902,279.9 C900.2,277.8 900.4,274.7 902.5,272.8 C905,270.6 907.6,268.3 910,266.1 C912.1,264.3 915.2,264.4 917.1,266.5 C918.9,268.6 918.8,271.7 916.7,273.6 C914.2,275.9 911.6,278.1 909.1,280.4 C908.1,281.2 907,281.6 905.8,281.6 Z M942.5,246.7 C941.3,246.7 940,246.2 939,245.3 C937,243.4 936.9,240.2 938.9,238.2 C941.2,235.8 943.6,233.3 945.8,230.9 C947.7,228.9 950.8,228.7 952.9,230.6 C954.9,232.5 955.1,235.6 953.2,237.7 C950.9,240.2 948.6,242.7 946.2,245.2 C945.2,246.2 943.9,246.7 942.5,246.7 Z M975.5,208.2 C974.5,208.2 973.4,207.9 972.5,207.2 C970.3,205.5 969.8,202.4 971.5,200.2 C973.5,197.5 975.5,194.8 977.4,192.1 C979,189.8 982.1,189.3 984.4,190.9 C986.7,192.5 987.2,195.6 985.6,197.9 C983.7,200.7 981.6,203.5 979.6,206.2 C978.5,207.5 977,208.2 975.5,208.2 Z M1002,165.1 C1001.3,165.1 1000.6,164.9 999.9,164.6 C997.4,163.4 996.3,160.4 997.5,157.9 C998.9,154.9 1000.3,151.9 1001.5,148.9 C1002.5,146.3 1005.5,145.1 1008,146.2 C1010.6,147.2 1011.8,150.2 1010.7,152.7 C1009.4,155.8 1008,159 1006.5,162.2 C1005.7,164.1 1003.9,165.1 1002,165.1 Z M1015.6,116.7 C1015.5,116.7 1015.4,116.7 1015.3,116.7 C1012.5,116.5 1010.4,114.2 1010.6,111.4 C1010.7,109.7 1010.7,108.1 1010.7,106.4 C1010.7,104.9 1010.7,103.3 1010.6,101.8 C1010.4,99 1012.6,96.7 1015.3,96.5 C1018.1,96.4 1020.4,98.5 1020.6,101.2 C1020.7,102.9 1020.7,104.6 1020.7,106.4 C1020.7,108.2 1020.6,110.1 1020.5,112 C1020.4,114.6 1018.2,116.7 1015.6,116.7 Z M1003,68.5 C1001.4,68.5 999.8,67.7 998.8,66.3 C997.1,63.7 995.1,61.2 993,58.8 C991.2,56.7 991.4,53.6 993.5,51.7 C995.6,49.8 998.7,50.1 1000.6,52.2 C1003,54.9 1005.2,57.8 1007.1,60.7 C1008.6,63 1008,66.1 1005.7,67.6 C1004.9,68.3 1004,68.5 1003,68.5 Z M964.8,36.1 C964,36.1 963.2,35.9 962.5,35.5 C959.7,34 956.7,32.6 953.6,31.3 C951.1,30.2 949.9,27.2 951,24.7 C952.1,22.2 955.1,21 957.6,22.1 C960.9,23.5 964,25.1 967,26.6 C969.5,27.9 970.4,30.9 969.1,33.3 C968.3,35.2 966.6,36.1 964.8,36.1 Z M655.5,29.8 C653.2,29.8 651.1,28.2 650.6,25.8 C650,23.1 651.8,20.4 654.5,19.9 C657.8,19.2 661.2,18.5 664.5,17.9 C667.2,17.4 669.8,19.1 670.4,21.8 C670.9,24.5 669.2,27.1 666.5,27.7 C663.2,28.3 659.9,29 656.6,29.7 C656.2,29.7 655.8,29.8 655.5,29.8 Z M705.3,20.7 C702.9,20.7 700.8,18.9 700.4,16.5 C700,13.8 701.8,11.2 704.6,10.8 C708,10.3 711.3,9.8 714.7,9.3 C717.4,8.9 720,10.8 720.4,13.5 C720.8,16.2 718.9,18.8 716.2,19.2 C712.9,19.7 709.6,20.2 706.2,20.7 C705.9,20.6 705.6,20.7 705.3,20.7 Z M917.1,19.3 C916.7,19.3 916.4,19.3 916,19.2 C912.8,18.5 909.6,17.8 906.2,17.1 C903.5,16.6 901.7,14 902.2,11.2 C902.7,8.4 905.4,6.7 908.1,7.2 C911.5,7.9 914.9,8.6 918.2,9.3 C920.9,9.9 922.6,12.6 922,15.3 C921.4,17.8 919.4,19.3 917.1,19.3 Z M755.6,14.1 C753.1,14.1 750.9,12.2 750.6,9.6 C750.3,6.9 752.3,4.4 755.1,4.1 C758.5,3.8 761.9,3.4 765.3,3.1 C768.1,2.8 770.5,4.9 770.7,7.6 C770.9,10.4 768.9,12.8 766.2,13 C762.9,13.3 759.5,13.6 756.2,14 C756,14.1 755.8,14.1 755.6,14.1 Z M867,11.9 C866.9,11.9 866.7,11.9 866.6,11.9 C863.3,11.6 860,11.4 856.6,11.2 C853.8,11 851.7,8.7 851.9,5.9 C852.1,3.1 854.4,1 857.2,1.2 C860.7,1.4 864.1,1.6 867.4,1.9 C870.2,2.1 872.2,4.5 872,7.3 C871.8,9.9 869.6,11.9 867,11.9 Z M806.2,10.7 C803.5,10.7 801.3,8.6 801.2,5.9 C801.1,3.1 803.3,0.8 806,0.7 C809.4,0.6 812.8,0.5 816.2,0.5 L816.3,0.5 C819,0.5 821.3,2.7 821.3,5.4 C821.3,8.2 819.1,10.4 816.4,10.5 C813.1,10.6 809.7,10.6 806.2,10.7 C806.3,10.7 806.2,10.7 806.2,10.7 Z" id="Shape"></path>
                    <path d="M610.9,39.9 C608.7,39.9 606.6,38.4 606.1,36.1 C605.4,33.4 607.1,30.7 609.8,30 C611.4,29.6 613.1,29.2 614.7,28.8 C617.4,28.1 620.1,29.8 620.7,32.5 C621.4,35.2 619.7,37.9 617,38.5 C615.4,38.9 613.8,39.3 612.2,39.7 C611.7,39.9 611.3,39.9 610.9,39.9 Z" id="Path"></path>
                </g>
                <g transform="translate(1010.000000, 280.000000)" fill-rule="nonzero">
                    <polygon id="Path" fill="#F3F6E6" points="5.5 115.9 229.2 5.6 136 248.9 101 189.7 40.6 247.8 6.7 211.7 66.7 153.9"></polygon>
                    <path d="M136,253.9 C134.2,253.9 132.6,253 131.7,251.4 L99.9,197.6 L44.1,251.3 C43.1,252.2 41.9,252.7 40.5,252.7 C39.2,252.7 37.9,252.1 37,251.1 L3.1,215 C1.2,213 1.3,209.9 3.3,208 L58.7,154.7 L3,120.1 C1.5,119.1 0.6,117.4 0.6,115.6 C0.6,113.8 1.8,112.2 3.4,111.4 L227,1.1 C228.8,0.2 231.1,0.5 232.6,1.9 C234.1,3.3 234.6,5.5 233.9,7.4 L140.7,250.7 C140,252.5 138.4,253.7 136.5,253.9 C136.3,253.9 136.1,253.9 136,253.9 Z M13.8,211.9 L40.9,240.7 L97.6,186.1 C98.7,185 100.2,184.5 101.7,184.7 C103.2,184.9 104.6,185.8 105.3,187.1 L135.1,237.5 L220,15.8 L15.8,116.5 L69.4,149.7 C70.7,150.5 71.6,151.9 71.7,153.4 C71.8,154.9 71.3,156.5 70.2,157.5 L13.8,211.9 Z" id="Shape" fill="#383A48"></path>
                </g>
                <g transform="translate(1013.000000, 576.000000)" fill-rule="nonzero">
                    <g>
                        <circle id="Oval" fill="#F3F6E6" cx="108.1" cy="108.1" r="102.3"></circle>
                        <path d="M108.1,215.4 C48.9,215.4 0.8,167.3 0.8,108.1 C0.8,48.9 48.9,0.8 108.1,0.8 C167.3,0.8 215.4,48.9 215.4,108.1 C215.4,167.3 167.3,215.4 108.1,215.4 Z M108.1,10.8 C54.4,10.8 10.8,54.5 10.8,108.1 C10.8,161.7 54.5,205.4 108.1,205.4 C161.7,205.4 205.4,161.7 205.4,108.1 C205.4,54.5 161.8,10.8 108.1,10.8 Z" id="Shape" fill="#383A48"></path>
                    </g>
                    <g transform="translate(63.000000, 81.000000)" fill="#383A48">
                        <circle id="Oval" cx="11.6" cy="11.8" r="11.2"></circle>
                        <circle id="Oval" cx="78.6" cy="11.8" r="11.2"></circle>
                        <path d="M45.1,75 C28.7,75 13.7,65.4 6.8,50.4 C5.6,47.9 6.8,44.9 9.3,43.8 C11.8,42.6 14.8,43.8 15.9,46.3 C21.1,57.7 32.6,65 45.1,65 C57.6,65 69.1,57.6 74.3,46.3 C75.5,43.8 78.4,42.7 80.9,43.8 C83.4,45 84.5,47.9 83.4,50.4 C76.6,65.4 61.5,75 45.1,75 Z" id="Path"></path>
                    </g>
                </g>
                <g transform="translate(1116.000000, 511.000000)" fill-rule="nonzero">
                    <g>
                        <circle id="Oval" fill="#AAC6FC" cx="107.4" cy="108.1" r="102.3"></circle>
                        <path d="M107.4,215.4 C48.2,215.4 0.1,167.3 0.1,108.1 C0.1,48.9 48.2,0.8 107.4,0.8 C166.6,0.8 214.7,48.9 214.7,108.1 C214.7,167.3 166.6,215.4 107.4,215.4 Z M107.4,10.8 C53.7,10.8 10.1,54.5 10.1,108.1 C10.1,161.7 53.8,205.4 107.4,205.4 C161,205.4 204.7,161.7 204.7,108.1 C204.7,54.5 161.1,10.8 107.4,10.8 Z" id="Shape" fill="#383A48"></path>
                    </g>
                    <g transform="translate(62.000000, 81.000000)" fill="#383A48">
                        <circle id="Oval" cx="11.9" cy="11.8" r="11.2"></circle>
                        <circle id="Oval" cx="78.9" cy="11.8" r="11.2"></circle>
                        <path d="M45.4,75 C29,75 14,65.4 7.1,50.4 C5.9,47.9 7.1,44.9 9.6,43.8 C12.1,42.6 15.1,43.8 16.2,46.3 C21.4,57.7 32.9,65 45.4,65 C57.9,65 69.4,57.6 74.6,46.3 C75.8,43.8 78.7,42.7 81.2,43.8 C83.7,45 84.8,47.9 83.7,50.4 C76.9,65.3 61.8,75 45.4,75 Z" id="Path"></path>
                    </g>
                </g>
                <g transform="translate(1218.000000, 446.000000)" fill-rule="nonzero">
                    <g>
                        <circle id="Oval" fill="#E0719E" cx="107.7" cy="108" r="102.3"></circle>
                        <path d="M107.7,215.3 C48.5,215.3 0.4,167.2 0.4,108 C0.4,48.8 48.5,0.7 107.7,0.7 C166.9,0.7 215,48.8 215,108 C215,167.2 166.9,215.3 107.7,215.3 Z M107.7,10.7 C54,10.7 10.4,54.4 10.4,108 C10.4,161.6 54.1,205.3 107.7,205.3 C161.3,205.3 205,161.6 205,108 C205,54.4 161.4,10.7 107.7,10.7 Z" id="Shape" fill="#383A48"></path>
                    </g>
                    <g transform="translate(63.000000, 81.000000)" fill="#383A48">
                        <circle id="Oval" cx="11.2" cy="11.7" r="11.2"></circle>
                        <circle id="Oval" cx="78.3" cy="11.7" r="11.2"></circle>
                        <path d="M44.7,74.9 C28.3,74.9 13.3,65.3 6.4,50.3 C5.2,47.8 6.4,44.8 8.9,43.7 C11.4,42.5 14.4,43.7 15.5,46.2 C20.7,57.6 32.2,64.9 44.7,64.9 C57.2,64.9 68.7,57.5 73.9,46.2 C75.1,43.7 78,42.6 80.5,43.7 C83,44.9 84.1,47.8 83,50.3 C76.2,65.2 61.2,74.9 44.7,74.9 Z" id="Path"></path>
                    </g>
                </g>
                <g transform="translate(1320.000000, 381.000000)" fill-rule="nonzero">
                    <g>
                        <circle id="Oval" fill="#F6E049" cx="108.1" cy="108" r="102.3"></circle>
                        <path d="M108.1,215.3 C48.9,215.3 0.8,167.2 0.8,108 C0.8,48.8 48.9,0.7 108.1,0.7 C167.3,0.7 215.4,48.8 215.4,108 C215.4,167.2 167.2,215.3 108.1,215.3 Z M108.1,10.6 C54.4,10.6 10.8,54.3 10.8,107.9 C10.8,161.5 54.5,205.2 108.1,205.2 C161.7,205.2 205.4,161.5 205.4,107.9 C205.4,54.3 161.7,10.6 108.1,10.6 Z" id="Shape" fill="#383A48"></path>
                    </g>
                    <g transform="translate(63.000000, 81.000000)" fill="#383A48">
                        <circle id="Oval" cx="11.5" cy="11.7" r="11.2"></circle>
                        <circle id="Oval" cx="78.6" cy="11.7" r="11.2"></circle>
                        <path d="M45.1,74.8 C28.7,74.8 13.7,65.2 6.8,50.2 C5.6,47.7 6.8,44.7 9.3,43.6 C11.8,42.4 14.8,43.6 15.9,46.1 C21.1,57.5 32.6,64.8 45.1,64.8 C57.6,64.8 69.1,57.4 74.3,46.1 C75.5,43.6 78.4,42.5 80.9,43.6 C83.4,44.8 84.5,47.7 83.4,50.2 C76.5,65.2 61.5,74.8 45.1,74.8 Z" id="Path"></path>
                    </g>
                </g>
                <g transform="translate(749.000000, 56.000000)" fill="#383A48" fill-rule="nonzero" id="Path">
                    <path d="M74.7,35.7 C74.3,35.7 73.9,35.7 73.5,35.6 C70.8,34.9 69.2,32.2 69.8,29.6 L74.7,9.5 C75.4,6.8 78.1,5.2 80.7,5.8 C83.4,6.5 85,9.2 84.4,11.8 L79.5,31.9 C79,34.1 77,35.7 74.7,35.7 Z"></path>
                    <path d="M136.1,62.4 C135.2,62.4 134.2,62.1 133.3,61.6 C131,60.1 130.4,57 131.9,54.7 L143.3,37.4 C144.8,35.1 147.9,34.5 150.2,36 C152.5,37.5 153.1,40.6 151.6,42.9 L140.2,60.2 C139.3,61.6 137.7,62.4 136.1,62.4 Z"></path>
                    <path d="M7.9,31.2 C5.4,31.2 3.2,29.3 2.9,26.7 L0.7,6.1 C0.4,3.4 2.4,0.9 5.1,0.6 C7.9,0.3 10.3,2.3 10.6,5 L12.8,25.6 C13.1,28.3 11.1,30.8 8.4,31.1 C8.2,31.2 8.1,31.2 7.9,31.2 Z"></path>
                </g>
                <g transform="translate(1332.000000, 118.000000)">
                    <g>
                        <line x1="4.4" y1="27.2" x2="27.7" y2="3.9" id="Path"></line>
                        <rect id="Rectangle" fill="#383A48" fill-rule="nonzero" transform="translate(15.958550, 15.500650) rotate(-45.000000) translate(-15.958550, -15.500650) " x="-0.541291764" y="10.500698" width="32.9996835" height="9.9999041"></rect>
                    </g>
                    <g>
                        <line x1="27.7" y1="27.2" x2="4.4" y2="3.9" id="Path"></line>
                        <rect id="Rectangle" fill="#383A48" fill-rule="nonzero" transform="translate(15.958350, 15.500350) rotate(-45.000000) translate(-15.958350, -15.500350) " x="10.958398" y="-0.999491764" width="9.9999041" height="32.9996835"></rect>
                    </g>
                </g>
                <g transform="translate(850.000000, 706.000000)">
                    <g>
                        <line x1="3.7" y1="27" x2="27" y2="3.7" id="Path"></line>
                        <rect id="Rectangle" fill="#383A48" fill-rule="nonzero" transform="translate(15.394480, 15.392400) rotate(-45.000000) translate(-15.394480, -15.392400) " x="-1.10536176" y="10.392448" width="32.9996835" height="9.9999041"></rect>
                    </g>
                    <g>
                        <line x1="27" y1="27" x2="3.7" y2="3.7" id="Path"></line>
                        <rect id="Rectangle" fill="#383A48" fill-rule="nonzero" transform="translate(15.413780, 15.382100) rotate(-45.000000) translate(-15.413780, -15.382100) " x="10.413828" y="-1.11774176" width="9.9999041" height="32.9996835"></rect>
                    </g>
                </g>
                <g transform="translate(0.000000, 669.000000)" fill-rule="nonzero">
                    <g>
                        <rect id="Rectangle" fill="#AAC6FC" x="5.6" y="5.8" width="111.5" height="111.5"></rect>
                        <path d="M117.2,122.4 L5.6,122.4 C2.8,122.4 0.6,120.2 0.6,117.4 L0.6,5.8 C0.6,3 2.8,0.8 5.6,0.8 L117.1,0.8 C119.9,0.8 122.1,3 122.1,5.8 L122.1,117.3 C122.2,120.2 119.9,122.4 117.2,122.4 Z M10.6,112.4 L112.1,112.4 L112.1,10.8 L10.6,10.8 L10.6,112.4 Z" id="Shape" fill="#383A48"></path>
                    </g>
                    <g transform="translate(112.000000, 0.000000)">
                        <rect id="Rectangle" fill="#AAC6FC" x="5.2" y="5.8" width="111.5" height="111.5"></rect>
                        <path d="M116.7,122.4 L5.2,122.4 C2.4,122.4 0.2,120.2 0.2,117.4 L0.2,5.8 C0.2,3 2.4,0.8 5.2,0.8 L116.7,0.8 C119.5,0.8 121.7,3 121.7,5.8 L121.7,117.3 C121.7,120.2 119.5,122.4 116.7,122.4 Z M10.2,112.4 L111.7,112.4 L111.7,10.8 L10.2,10.8 L10.2,112.4 Z" id="Shape" fill="#383A48"></path>
                    </g>
                    <g transform="translate(223.000000, 0.000000)">
                        <rect id="Rectangle" fill="#AAC6FC" x="5.7" y="5.8" width="111.5" height="111.5"></rect>
                        <path d="M117.3,122.4 L5.7,122.4 C2.9,122.4 0.7,120.2 0.7,117.4 L0.7,5.8 C0.7,3 2.9,0.8 5.7,0.8 L117.2,0.8 C120,0.8 122.2,3 122.2,5.8 L122.2,117.3 C122.3,120.2 120,122.4 117.3,122.4 Z M10.7,112.4 L112.2,112.4 L112.2,10.8 L10.7,10.8 L10.7,112.4 Z" id="Shape" fill="#383A48"></path>
                    </g>
                    <g transform="translate(40.000000, 42.000000)" fill="#383A48">
                        <g transform="translate(225.000000, 2.000000)" id="Rectangle">
                            <rect transform="translate(19.486650, 19.973250) rotate(-45.000000) translate(-19.486650, -19.973250) " x="14.486698" y="-1.92653998" width="9.9999041" height="43.79958"></rect>
                            <rect transform="translate(19.474650, 19.974450) rotate(-45.000000) translate(-19.474650, -19.974450) " x="-2.42513998" y="14.974498" width="43.79958" height="9.9999041"></rect>
                        </g>
                        <path d="M154.9,44 L111,44 L111,0.2 L154.8,0.2 L154.8,44 L154.9,44 Z M121,34 L144.8,34 L144.8,10.2 L121,10.2 L121,34 Z" id="Shape"></path>
                        <rect id="Rectangle" x="0.2" y="34" width="33.8" height="10"></rect>
                    </g>
                </g>
            </g>
        </g>
    </g>
</svg>