<?xml version="1.0" encoding="utf-8"?>
<!-- Generator: Adobe Illustrator 22.0.1, SVG Export Plug-In . SVG Version: 6.00 Build 0)  -->
<svg version="1.1" id="Layer_1" xmlns="http://www.w3.org/2000/svg" xmlns:xlink="http://www.w3.org/1999/xlink" x="0px" y="0px" viewBox="0 0 1920 1080" style="enable-background:new 0 0 1920 1080;" xml:space="preserve">

<rect y="0" width="1920" height="1080" style="fill:#F6E049;"/>
<g>
	<path d="M1313.1,144.6h-111.5H1090H978.5H866.9H755.4H643.8H532.3H420.7H309.2H197.6c-2.8,0-5,2.2-5,5v111.5v111.5
		v111.5v111.5v111.5v111.5v111.5c0,2.8,2.2,5,5,5h111.5h111.5h111.5h111.5h111.5h111.5h111.5H1090h111.5H1313c2.8,0,5-2.2,5-5V818.8
		V707.3V595.7V484.2V372.7V261.1V149.6C1318.1,146.8,1315.9,144.6,1313.1,144.6z M1308.1,367.7h-101.5V266.1h101.5V367.7z
		 M1308.1,479.2h-101.5V377.7h101.5V479.2z M1308.1,590.7h-101.5V489.2h101.5V590.7z M1308.1,702.3h-101.5V600.7h101.5V702.3z
		 M202.6,600.7h101.5v101.5H202.6V600.7z M202.6,489.2h101.5v101.5H202.6V489.2z M202.6,377.7h101.5v101.5H202.6V377.7z
		 M314.2,489.2h101.5v101.5H314.2V489.2z M425.7,489.2h101.5v101.5H425.7V489.2z M537.3,489.2h101.5v101.5H537.3V489.2z
		 M648.8,489.2h101.5v101.5H648.8V489.2z M760.4,489.2h101.5v101.5H760.4V489.2z M871.9,489.2h101.5v101.5H871.9V489.2z
		 M983.5,489.2H1085v101.5H983.5V489.2z M1095,489.2h101.5v101.5H1095V489.2z M1196.6,479.2H1095V377.7h101.5L1196.6,479.2
		L1196.6,479.2z M1085,479.2H983.5V377.7H1085V479.2z M973.5,479.2H871.9V377.7h101.5L973.5,479.2L973.5,479.2z M861.9,479.2H760.4
		V377.7h101.5V479.2z M750.4,479.2H648.8V377.7h101.5v101.5H750.4z M638.8,479.2H537.3V377.7h101.5V479.2z M527.3,479.2H425.7V377.7
		h101.5L527.3,479.2L527.3,479.2z M415.7,479.2H314.2V377.7h101.5V479.2z M314.2,600.7h101.5v101.5H314.2V600.7z M425.7,600.7h101.5
		v101.5H425.7V600.7z M537.3,600.7h101.5v101.5H537.3V600.7z M648.8,600.7h101.5v101.5H648.8V600.7z M760.4,600.7h101.5v101.5H760.4
		V600.7z M871.9,600.7h101.5v101.5H871.9V600.7z M983.5,600.7H1085v101.5H983.5V600.7z M1095,600.7h101.5v101.5H1095V600.7z
		 M1196.6,367.7H1095V266.1h101.5L1196.6,367.7L1196.6,367.7z M1085,367.7H983.5V266.1H1085V367.7z M973.5,367.7H871.9V266.1h101.5
		L973.5,367.7L973.5,367.7z M861.9,367.7H760.4V266.1h101.5V367.7z M750.4,367.7H648.8V266.1h101.5v101.6H750.4z M638.8,367.7H537.3
		V266.1h101.5V367.7z M527.3,367.7H425.7V266.1h101.5L527.3,367.7L527.3,367.7z M415.7,367.7H314.2V266.1h101.5V367.7z M304.2,367.7
		H202.6V266.1h101.5v101.6H304.2z M202.6,712.3h101.5v101.5H202.6V712.3z M314.2,712.3h101.5v101.5H314.2V712.3z M425.7,712.3h101.5
		v101.5H425.7V712.3z M537.3,712.3h101.5v101.5H537.3V712.3z M648.8,712.3h101.5v101.5H648.8V712.3z M760.4,712.3h101.5v101.5H760.4
		V712.3z M871.9,712.3h101.5v101.5H871.9V712.3z M983.5,712.3H1085v101.5H983.5V712.3z M1095,712.3h101.5v101.5H1095V712.3z
		 M1206.6,712.3h101.5v101.5h-101.5V712.3z M1308.1,256.1h-101.5V154.6h101.5V256.1z M1196.6,256.1H1095V154.6h101.5L1196.6,256.1
		L1196.6,256.1z M1085,256.1H983.5V154.6H1085V256.1z M973.5,256.1H871.9V154.6h101.5L973.5,256.1L973.5,256.1z M861.9,256.1H760.4
		V154.6h101.5V256.1z M750.4,256.1H648.8V154.6h101.5v101.5H750.4z M638.8,256.1H537.3V154.6h101.5V256.1z M527.3,256.1H425.7V154.6
		h101.5L527.3,256.1L527.3,256.1z M415.7,256.1H314.2V154.6h101.5V256.1z M202.6,154.6h101.5v101.5H202.6V154.6z M202.6,823.8h101.5
		v101.5H202.6V823.8z M314.2,823.8h101.5v101.5H314.2V823.8z M425.7,823.8h101.5v101.5H425.7V823.8z M537.3,823.8h101.5v101.5H537.3
		V823.8z M648.8,823.8h101.5v101.5H648.8V823.8z M760.4,823.8h101.5v101.5H760.4V823.8z M871.9,823.8h101.5v101.5H871.9V823.8z
		 M983.5,823.8H1085v101.5H983.5V823.8z M1095,823.8h101.5v101.5H1095V823.8z M1308.1,925.4h-101.5V823.8h101.5V925.4z" style="fill:#F3F6E6;"/>
	<path d="M755.4,144.6H197.6c-2.8,0-5,2.2-5,5v557.7c0,2.8,2.2,5,5,5s5-2.2,5-5c0-38.1,21.2-73.4,64.7-107.9
		c36.1-28.7,88.2-57,159.2-86.5C491,486.1,497.9,439,504,397.5c5.3-35.7,9.8-66.6,47.6-82.5c36.1-15.2,51.8-45.1,66.9-74
		c11.1-21.3,22.6-43.3,42.5-59.4c22.3-18.1,53.1-27,94.3-27c2.8,0,5-2.2,5-5S758.1,144.6,755.4,144.6z" style="fill:#F3F6E6;"/>
	<path d="M1657.9,194.4c-2.8,0-5,2.2-5,5c0,82.8-20.6,146.6-64.8,200.6c-39.4,48.1-92.2,82.2-148.1,118.2
		c-38.3,24.7-77.9,50.2-114.3,81.3c-34.7,29.6-79.2,51.5-136.3,67c-50,13.5-103.1,20.3-149.9,26.3c-74.6,9.5-139.1,17.8-166.8,49.6
		c-34.5,39.5-83.8,82.5-131.9,115.2c-42.8,29-106.2,64.4-165,68c-2.7,0.2-4.8,2.4-4.7,5.1c0.1,2.7,2.3,4.8,5,4.8h1081.8
		c2.8,0,5-2.2,5-5v-731C1662.9,196.7,1660.7,194.4,1657.9,194.4z" style="fill:#F3F6E6;"/>
	<g>
		<path d="M618.7,296.9c-1.2-1.8-3.6-2.7-5.7-2c-19.9,6.3-47.2,11.6-78.9,15.3c-1.5,0.2-2.8,1-3.6,2.2s-1,2.8-0.6,4.2
			c9.8,32.5,14.9,69.3,14.9,106.6s-5.2,74.1-14.9,106.6l0,0c-21.3,70.9-61.6,114.9-105.2,114.9c-2.8,0-5,2.2-5,5s2.2,5,5,5
			c78.5,0,151.1-39.3,194-105.2c24.5-37.6,37.4-81.2,37.4-126.3C656.1,378.1,643.2,334.4,618.7,296.9z" style="fill:#383A48;"/>
		<g>
			<path d="M614.5,299.6L614.5,299.6c-20.1,6.4-47.6,11.8-79.9,15.5c-21.2-70.5-62.5-118.4-110-118.4
				C504.2,196.7,574.1,237.6,614.5,299.6z" style="fill:#7FD6C2;"/>
			<path d="M534.6,320.1c-2.2,0-4.1-1.4-4.8-3.6c-21.3-70.8-61.6-114.9-105.2-114.9c-2.8,0-5-2.2-5-5s2.2-5,5-5
				c78.5,0,151.1,39.3,194,105.2c1,1.5,1.1,3.5,0.2,5.1c-0.7,1.2-1.8,2.1-3,2.4c-20.5,6.5-48.3,11.9-80.6,15.6
				C535,320.1,534.8,320.1,534.6,320.1z M470.6,206.4c28.3,18.9,52.4,54.9,67.6,103.2c26.7-3.2,50.2-7.7,68.4-12.9
				C574,249.9,525.3,218,470.6,206.4z" style="fill:#383A48;"/>
		</g>
		<g>
			<path d="M424.7,196.7c-47.5,0-88.8,47.9-110,118.4c-31.2-3.6-57.9-8.7-77.8-14.9l-2-0.7
				C275.3,237.6,345.2,196.7,424.7,196.7z" style="fill:#F3F6E6;"/>
			<path d="M314.7,320.1c-0.2,0-0.4,0-0.6,0c-31.3-3.6-58.5-8.8-78.7-15c-0.1,0-0.1,0-0.2-0.1l-2-0.7
				c-1.4-0.5-2.6-1.7-3.1-3.1s-0.3-3.1,0.5-4.3c43-65.8,115.5-105.1,194-105.1c2.8,0,5,2.2,5,5s-2.2,5-5,5
				c-43.6,0-83.9,44-105.2,114.9C318.8,318.7,316.9,320.1,314.7,320.1z M242.8,296.8c18.2,5.2,41.7,9.6,68.4,12.9
				c15.2-48.3,39.3-84.3,67.6-103.2C324,218,275.4,249.9,242.8,296.8z" style="fill:#383A48;"/>
		</g>
		<g>
			<path d="M314.7,315.1c-9.6,32.1-15.1,68.9-15.1,108H198.2c0-45.6,13.5-88.1,36.7-123.6l2,0.7
				C256.8,306.4,283.5,311.5,314.7,315.1z" style="fill:#F3F6E6;"/>
			<path d="M299.6,428.1H198.2c-2.8,0-5-2.2-5-5c0-45.1,13-88.8,37.5-126.3c1.3-1.9,3.7-2.8,5.9-2l1.9,0.7
				c19.6,6,46.2,11.1,76.8,14.6c1.5,0.2,2.8,1,3.6,2.2c0.8,1.2,1,2.8,0.6,4.2c-9.8,32.5-14.9,69.3-14.9,106.6
				C304.6,425.9,302.3,428.1,299.6,428.1z M203.3,418.1h91.3c0.4-34.4,5.1-68.3,13.7-98.8c-28-3.5-52.5-8.2-71.3-13.9
				C215.8,339.3,204.2,378.1,203.3,418.1z" style="fill:#383A48;"/>
		</g>
		<g>
			<path d="M314.7,531.2c-31.2,3.6-57.9,8.7-77.8,14.8l-2,0.7c-23.2-35.5-36.7-78-36.7-123.6h101.4
				C299.6,462.3,305,499.1,314.7,531.2z" style="fill:#F6E049;"/>
			<path d="M234.9,551.8c-1.7,0-3.2-0.8-4.2-2.3c-24.5-37.6-37.5-81.3-37.5-126.3c0-2.8,2.2-5,5-5h101.4
				c2.8,0,5,2.2,5,5c0,37.3,5.2,74.1,14.9,106.6c0.4,1.4,0.2,3-0.6,4.2c-0.8,1.2-2.1,2-3.6,2.2c-30.6,3.5-57.2,8.6-76.8,14.6
				l-1.9,0.7C236,551.7,235.5,551.8,234.9,551.8z M203.3,428.1c0.9,40.1,12.5,78.8,33.7,112.6c18.7-5.6,43.2-10.4,71.3-13.9
				c-8.5-30.5-13.2-64.4-13.7-98.8h-91.3V428.1z" style="fill:#383A48;"/>
		</g>
		<g>
			<path d="M424.7,649.6c-79.5,0-149.4-40.9-189.8-102.9l2-0.7c19.9-6.1,46.6-11.2,77.8-14.8
				C335.9,601.7,377.2,649.6,424.7,649.6z" style="fill:#7FD6C2;"/>
			<path d="M424.7,654.6c-78.5,0-151-39.3-194-105.1c-0.8-1.3-1-2.9-0.6-4.3c0.5-1.4,1.6-2.6,3-3.1l2-0.7
				c0.1,0,0.1-0.1,0.2-0.1c20.2-6.2,47.4-11.4,78.7-15c2.4-0.3,4.7,1.2,5.4,3.5c21.3,70.9,61.6,114.9,105.2,114.9c2.8,0,5,2.2,5,5
				S427.4,654.6,424.7,654.6z M242.8,549.5c32.6,46.9,81.2,78.8,136,90.3c-28.3-18.9-52.4-54.9-67.6-103.2
				C284.4,539.9,261,544.3,242.8,549.5z" style="fill:#383A48;"/>
		</g>
		<g>
			<path d="M424.7,525.3v124.4c-47.5,0-88.8-47.9-110-118.4C347.3,527.4,384.8,525.3,424.7,525.3z" style="fill:#AAC6FC;"/>
			<path d="M424.7,654.6c-48.2,0-92.2-46.7-114.8-122c-0.4-1.4-0.2-3,0.6-4.2c0.8-1.2,2.1-2,3.6-2.2
				c33.6-3.9,71.9-6,110.6-6c2.8,0,5,2.2,5,5v124.3C429.7,652.4,427.4,654.6,424.7,654.6z M321.3,535.5
				c20.8,64.8,57.9,105.8,98.4,108.9V530.3C385.4,530.4,351.6,532.2,321.3,535.5z" style="fill:#383A48;"/>
		</g>
		<g>
			<path d="M424.7,423.1v102.1c-39.9,0-77.4,2.1-110,5.9c-9.6-32.1-15.1-68.9-15.1-108L424.7,423.1L424.7,423.1z" style="fill:#7FD6C2;"/>
			<path d="M314.7,536.2c-2.2,0-4.1-1.4-4.8-3.6c-10-33.4-15.3-71.3-15.3-109.5c0-2.8,2.2-5,5-5h125.1c2.8,0,5,2.2,5,5
				v102.1c0,2.8-2.2,5-5,5c-38.3,0-76.1,2-109.4,5.9C315.1,536.2,314.9,536.2,314.7,536.2z M304.6,428.1c0.4,34,5.1,67.6,13.7,97.6
				c31.1-3.4,66-5.3,101.4-5.5v-92.1H304.6z" style="fill:#383A48;"/>
		</g>
		<g>
			<path d="M424.7,321v102.1H299.6c0-39.1,5.5-75.9,15.1-108C347.3,318.9,384.8,321,424.7,321z" style="fill:#F6E049;"/>
			<path d="M424.7,428.1H299.6c-2.8,0-5-2.2-5-5c0-38.2,5.3-76.1,15.3-109.5c0.7-2.3,3-3.8,5.4-3.5
				c33.3,3.8,71.1,5.9,109.4,5.9c2.8,0,5,2.2,5,5v102.1C429.7,425.9,427.4,428.1,424.7,428.1z M304.6,418.1h115.1V326
				c-35.3-0.2-70.2-2-101.4-5.5C309.7,350.6,305,384.1,304.6,418.1z" style="fill:#383A48;"/>
		</g>
		<g>
			<path d="M424.7,196.7V321c-39.9,0-77.4-2.1-110-5.9C335.9,244.6,377.2,196.7,424.7,196.7z" style="fill:#F3F6E6;"/>
			<path d="M424.7,326c-38.6,0-76.9-2.1-110.6-5.9c-1.5-0.2-2.8-1-3.6-2.2s-1-2.8-0.6-4.2c22.6-75.2,66.6-122,114.8-122
				c2.8,0,5,2.2,5,5V321C429.7,323.8,427.4,326,424.7,326z M321.3,310.8c30.3,3.3,64.1,5,98.4,5.2V201.9
				C379.2,205,342.1,246,321.3,310.8z" style="fill:#383A48;"/>
		</g>
		<g>
			<path d="M534.6,315.1c-32.6,3.8-70.1,5.9-110,5.9V196.7C472.2,196.7,513.5,244.6,534.6,315.1z" style="fill:#F6E049;"/>
			<path d="M424.7,326c-2.8,0-5-2.2-5-5V196.7c0-2.8,2.2-5,5-5c48.2,0,92.2,46.7,114.8,122c0.4,1.4,0.2,3-0.6,4.2
				s-2.1,2-3.6,2.2C501.6,324,463.4,326,424.7,326z M429.7,201.9V316c34.3-0.2,68.1-1.9,98.4-5.2C507.2,246,470.2,205,429.7,201.9z" style="fill:#383A48;"/>
		</g>
		<g>
			<path d="M549.8,423.1H424.7V321c39.9,0,77.4-2.1,110-5.9C544.3,347.2,549.8,384,549.8,423.1z" style="fill:#7FD6C2;"/>
			<path d="M549.8,428.1H424.7c-2.8,0-5-2.2-5-5V321c0-2.8,2.2-5,5-5c38.3,0,76.1-2,109.4-5.9c2.4-0.3,4.7,1.2,5.4,3.5
				c10,33.4,15.3,71.3,15.3,109.5C554.8,425.9,552.5,428.1,549.8,428.1z M429.7,418.1h115.1c-0.4-34-5.1-67.6-13.7-97.6
				c-31.1,3.4-66,5.3-101.4,5.5L429.7,418.1L429.7,418.1z" style="fill:#383A48;"/>
		</g>
		<g>
			<path d="M549.8,423.1c0,39.1-5.5,75.9-15.1,108c-32.6-3.8-70.1-5.9-110-5.9V423.1H549.8z" style="fill:#AAC6FC;"/>
			<path d="M534.7,536.2c-0.2,0-0.4,0-0.6,0c-33.3-3.9-71.1-5.9-109.4-5.9c-2.8,0-5-2.2-5-5V423.1c0-2.8,2.2-5,5-5
				h125.1c2.8,0,5,2.2,5,5c0,38.2-5.3,76.1-15.3,109.5C538.8,534.8,536.8,536.2,534.7,536.2z M429.7,520.3
				c35.4,0.2,70.2,2,101.4,5.5c8.6-30,13.3-63.6,13.7-97.6H429.7V520.3z" style="fill:#383A48;"/>
		</g>
		<g>
			<path d="M534.6,531.2c-21.2,70.5-62.5,118.4-110,118.4V525.3C464.6,525.3,502.1,527.4,534.6,531.2z" style="fill:#E0719E;"/>
			<path d="M424.7,654.6c-2.8,0-5-2.2-5-5V525.3c0-2.8,2.2-5,5-5c38.7,0,76.9,2.1,110.5,6c1.5,0.2,2.8,1,3.6,2.2
				s1,2.8,0.6,4.2C516.8,607.9,472.9,654.6,424.7,654.6z M429.7,530.3v114.1c40.5-3.1,77.6-44.1,98.4-108.9
				C497.8,532.2,464,530.4,429.7,530.3z" style="fill:#383A48;"/>
		</g>
	</g>
	<g>
		<g>
			<rect x="810.1" y="409.1" width="397.4" height="397.4" style="fill:#F6E049;"/>
			<path d="M1207.5,811.6H810.1c-2.8,0-5-2.2-5-5V409.1c0-2.8,2.2-5,5-5h397.4c2.8,0,5,2.2,5,5v397.4
				C1212.5,809.3,1210.3,811.6,1207.5,811.6z M815.1,801.6h387.4V414.1H815.1V801.6z" style="fill:#383A48;"/>
		</g>
		<g>
			<polygon points="610.6,298.5 810.1,409.1 810.1,806.6 610.6,695.9 			" style="fill:#F3F6E6;"/>
			<path d="M810.1,811.6c-0.8,0-1.7-0.2-2.4-0.6L608.2,700.3c-1.6-0.9-2.6-2.6-2.6-4.4V298.5c0-1.8,0.9-3.4,2.5-4.3
				c1.5-0.9,3.4-0.9,5-0.1l199.5,110.6c1.6,0.9,2.6,2.6,2.6,4.4v397.4c0,1.8-0.9,3.4-2.5,4.3C811.8,811.3,811,811.6,810.1,811.6z
				 M615.6,693l189.5,105.1v-386L615.6,307V693z" style="fill:#383A48;"/>
		</g>
		<g>
			<g>
				<g>
					<g>
						<circle cx="796.7" cy="406.2" r="5" style="fill:#383A48;"/>
					</g>
				</g>
				<g>
					<g>
						<circle cx="796.7" cy="430.9" r="5" style="fill:#383A48;"/>
					</g>
				</g>
				<g>
					<g>
						<circle cx="796.7" cy="455.5" r="5" style="fill:#383A48;"/>
					</g>
				</g>
				<g>
					<g>
						<circle cx="796.7" cy="480.2" r="5" style="fill:#383A48;"/>
					</g>
				</g>
				<g>
					<g>
						<circle cx="796.7" cy="504.9" r="5" style="fill:#383A48;"/>
					</g>
				</g>
				<g>
					<g>
						<circle cx="796.7" cy="529.5" r="5" style="fill:#383A48;"/>
					</g>
				</g>
				<g>
					<g>
						<circle cx="796.7" cy="554.2" r="5" style="fill:#383A48;"/>
					</g>
				</g>
				<g>
					<g>
						<circle cx="796.7" cy="578.9" r="5" style="fill:#383A48;"/>
					</g>
				</g>
				<g>
					<g>
						<circle cx="796.7" cy="603.5" r="5" style="fill:#383A48;"/>
					</g>
				</g>
				<g>
					<g>
						<circle cx="796.7" cy="628.2" r="5" style="fill:#383A48;"/>
					</g>
				</g>
				<g>
					<g>
						<circle cx="796.7" cy="652.9" r="5" style="fill:#383A48;"/>
					</g>
				</g>
				<g>
					<g>
						<circle cx="796.7" cy="677.5" r="5" style="fill:#383A48;"/>
					</g>
				</g>
				<g>
					<g>
						<circle cx="796.7" cy="702.2" r="5" style="fill:#383A48;"/>
					</g>
				</g>
				<g>
					<g>
						<circle cx="796.7" cy="726.9" r="5" style="fill:#383A48;"/>
					</g>
				</g>
				<g>
					<g>
						<circle cx="796.7" cy="751.5" r="5" style="fill:#383A48;"/>
					</g>
				</g>
				<g>
					<g>
						<circle cx="796.7" cy="776.2" r="5" style="fill:#383A48;"/>
					</g>
				</g>
				<g>
					<g>
						<circle cx="772" cy="406.2" r="5" style="fill:#383A48;"/>
					</g>
				</g>
				<g>
					<g>
						<circle cx="772" cy="430.9" r="5" style="fill:#383A48;"/>
					</g>
				</g>
				<g>
					<g>
						<circle cx="772" cy="455.5" r="5" style="fill:#383A48;"/>
					</g>
				</g>
				<g>
					<g>
						<circle cx="772" cy="480.2" r="5" style="fill:#383A48;"/>
					</g>
				</g>
				<g>
					<g>
						<circle cx="772" cy="504.9" r="5" style="fill:#383A48;"/>
					</g>
				</g>
				<g>
					<g>
						<circle cx="772" cy="529.5" r="5" style="fill:#383A48;"/>
					</g>
				</g>
				<g>
					<g>
						<circle cx="772" cy="554.2" r="5" style="fill:#383A48;"/>
					</g>
				</g>
				<g>
					<g>
						<circle cx="772" cy="578.9" r="5" style="fill:#383A48;"/>
					</g>
				</g>
				<g>
					<g>
						<circle cx="772" cy="603.5" r="5" style="fill:#383A48;"/>
					</g>
				</g>
				<g>
					<g>
						<circle cx="772" cy="628.2" r="5" style="fill:#383A48;"/>
					</g>
				</g>
				<g>
					<g>
						<circle cx="772" cy="652.9" r="5" style="fill:#383A48;"/>
					</g>
				</g>
				<g>
					<g>
						<circle cx="772" cy="677.5" r="5" style="fill:#383A48;"/>
					</g>
				</g>
				<g>
					<g>
						<circle cx="772" cy="702.2" r="5" style="fill:#383A48;"/>
					</g>
				</g>
				<g>
					<g>
						<circle cx="772" cy="726.9" r="5" style="fill:#383A48;"/>
					</g>
				</g>
				<g>
					<g>
						<circle cx="772" cy="751.5" r="5" style="fill:#383A48;"/>
					</g>
				</g>
				<g>
					<g>
						<circle cx="772" cy="776.2" r="5" style="fill:#383A48;"/>
					</g>
				</g>
				<g>
					<g>
						<circle cx="747.3" cy="381.5" r="5" style="fill:#383A48;"/>
					</g>
				</g>
				<g>
					<g>
						<circle cx="747.3" cy="406.2" r="5" style="fill:#383A48;"/>
					</g>
				</g>
				<g>
					<g>
						<circle cx="747.3" cy="430.9" r="5" style="fill:#383A48;"/>
					</g>
				</g>
				<g>
					<g>
						<circle cx="747.3" cy="455.5" r="5" style="fill:#383A48;"/>
					</g>
				</g>
				<g>
					<g>
						<circle cx="747.3" cy="480.2" r="5" style="fill:#383A48;"/>
					</g>
				</g>
				<g>
					<g>
						<circle cx="747.3" cy="504.9" r="5" style="fill:#383A48;"/>
					</g>
				</g>
				<g>
					<g>
						<circle cx="747.3" cy="529.5" r="5" style="fill:#383A48;"/>
					</g>
				</g>
				<g>
					<g>
						<circle cx="747.3" cy="554.2" r="5" style="fill:#383A48;"/>
					</g>
				</g>
				<g>
					<g>
						<circle cx="747.3" cy="578.9" r="5" style="fill:#383A48;"/>
					</g>
				</g>
				<g>
					<g>
						<circle cx="747.3" cy="603.5" r="5" style="fill:#383A48;"/>
					</g>
				</g>
				<g>
					<g>
						<circle cx="747.3" cy="628.2" r="5" style="fill:#383A48;"/>
					</g>
				</g>
				<g>
					<g>
						<circle cx="747.3" cy="652.9" r="5" style="fill:#383A48;"/>
					</g>
				</g>
				<g>
					<g>
						<circle cx="747.3" cy="677.5" r="5" style="fill:#383A48;"/>
					</g>
				</g>
				<g>
					<g>
						<circle cx="747.3" cy="702.2" r="5" style="fill:#383A48;"/>
					</g>
				</g>
				<g>
					<g>
						<circle cx="747.3" cy="726.9" r="5" style="fill:#383A48;"/>
					</g>
				</g>
				<g>
					<g>
						<circle cx="747.3" cy="751.5" r="5" style="fill:#383A48;"/>
					</g>
				</g>
				<g>
					<g>
						<circle cx="722.7" cy="381.5" r="5" style="fill:#383A48;"/>
					</g>
				</g>
				<g>
					<g>
						<circle cx="722.7" cy="406.2" r="5" style="fill:#383A48;"/>
					</g>
				</g>
				<g>
					<g>
						<circle cx="722.7" cy="430.9" r="5" style="fill:#383A48;"/>
					</g>
				</g>
				<g>
					<g>
						<circle cx="722.7" cy="455.5" r="5" style="fill:#383A48;"/>
					</g>
				</g>
				<g>
					<g>
						<circle cx="722.7" cy="480.2" r="5" style="fill:#383A48;"/>
					</g>
				</g>
				<g>
					<g>
						<circle cx="722.7" cy="504.9" r="5" style="fill:#383A48;"/>
					</g>
				</g>
				<g>
					<g>
						<circle cx="722.7" cy="529.5" r="5" style="fill:#383A48;"/>
					</g>
				</g>
				<g>
					<g>
						<circle cx="722.7" cy="554.2" r="5" style="fill:#383A48;"/>
					</g>
				</g>
				<g>
					<g>
						<circle cx="722.7" cy="578.9" r="5" style="fill:#383A48;"/>
					</g>
				</g>
				<g>
					<g>
						<circle cx="722.7" cy="603.5" r="5" style="fill:#383A48;"/>
					</g>
				</g>
				<g>
					<g>
						<circle cx="722.7" cy="628.2" r="5" style="fill:#383A48;"/>
					</g>
				</g>
				<g>
					<g>
						<circle cx="722.7" cy="652.9" r="5" style="fill:#383A48;"/>
					</g>
				</g>
				<g>
					<g>
						<circle cx="722.7" cy="677.5" r="5" style="fill:#383A48;"/>
					</g>
				</g>
				<g>
					<g>
						<circle cx="722.7" cy="702.2" r="5" style="fill:#383A48;"/>
					</g>
				</g>
				<g>
					<g>
						<circle cx="722.7" cy="726.9" r="5" style="fill:#383A48;"/>
					</g>
				</g>
				<g>
					<g>
						<circle cx="722.7" cy="751.5" r="5" style="fill:#383A48;"/>
					</g>
				</g>
				<g>
					<g>
						<circle cx="698" cy="356.9" r="5" style="fill:#383A48;"/>
					</g>
				</g>
				<g>
					<g>
						<circle cx="698" cy="381.5" r="5" style="fill:#383A48;"/>
					</g>
				</g>
				<g>
					<g>
						<circle cx="698" cy="406.2" r="5" style="fill:#383A48;"/>
					</g>
				</g>
				<g>
					<g>
						<circle cx="698" cy="430.9" r="5" style="fill:#383A48;"/>
					</g>
				</g>
				<g>
					<g>
						<circle cx="698" cy="455.5" r="5" style="fill:#383A48;"/>
					</g>
				</g>
				<g>
					<g>
						<circle cx="698" cy="480.2" r="5" style="fill:#383A48;"/>
					</g>
				</g>
				<g>
					<g>
						<circle cx="698" cy="504.9" r="5" style="fill:#383A48;"/>
					</g>
				</g>
				<g>
					<g>
						<circle cx="698" cy="529.5" r="5" style="fill:#383A48;"/>
					</g>
				</g>
				<g>
					<g>
						<circle cx="698" cy="554.2" r="5" style="fill:#383A48;"/>
					</g>
				</g>
				<g>
					<g>
						<circle cx="698" cy="578.9" r="5" style="fill:#383A48;"/>
					</g>
				</g>
				<g>
					<g>
						<circle cx="698" cy="603.5" r="5" style="fill:#383A48;"/>
					</g>
				</g>
				<g>
					<g>
						<circle cx="698" cy="628.2" r="5" style="fill:#383A48;"/>
					</g>
				</g>
				<g>
					<g>
						<circle cx="698" cy="652.9" r="5" style="fill:#383A48;"/>
					</g>
				</g>
				<g>
					<g>
						<circle cx="698" cy="677.5" r="5" style="fill:#383A48;"/>
					</g>
				</g>
				<g>
					<g>
						<circle cx="698" cy="702.2" r="5" style="fill:#383A48;"/>
					</g>
				</g>
				<g>
					<g>
						<circle cx="698" cy="726.9" r="5" style="fill:#383A48;"/>
					</g>
				</g>
				<g>
					<g>
						<circle cx="673.3" cy="356.9" r="5" style="fill:#383A48;"/>
					</g>
				</g>
				<g>
					<g>
						<circle cx="673.3" cy="381.5" r="5" style="fill:#383A48;"/>
					</g>
				</g>
				<g>
					<g>
						<circle cx="673.3" cy="406.2" r="5" style="fill:#383A48;"/>
					</g>
				</g>
				<g>
					<g>
						<circle cx="673.3" cy="430.9" r="5" style="fill:#383A48;"/>
					</g>
				</g>
				<g>
					<g>
						<circle cx="673.3" cy="455.5" r="5" style="fill:#383A48;"/>
					</g>
				</g>
				<g>
					<g>
						<circle cx="673.3" cy="480.2" r="5" style="fill:#383A48;"/>
					</g>
				</g>
				<g>
					<g>
						<circle cx="673.3" cy="504.9" r="5" style="fill:#383A48;"/>
					</g>
				</g>
				<g>
					<g>
						<circle cx="673.3" cy="529.5" r="5" style="fill:#383A48;"/>
					</g>
				</g>
				<g>
					<g>
						<circle cx="673.3" cy="554.2" r="5" style="fill:#383A48;"/>
					</g>
				</g>
				<g>
					<g>
						<circle cx="673.3" cy="578.9" r="5" style="fill:#383A48;"/>
					</g>
				</g>
				<g>
					<g>
						<circle cx="673.3" cy="603.5" r="5" style="fill:#383A48;"/>
					</g>
				</g>
				<g>
					<g>
						<circle cx="673.3" cy="628.2" r="5" style="fill:#383A48;"/>
					</g>
				</g>
				<g>
					<g>
						<circle cx="673.3" cy="652.9" r="5" style="fill:#383A48;"/>
					</g>
				</g>
				<g>
					<g>
						<circle cx="673.3" cy="677.5" r="5" style="fill:#383A48;"/>
					</g>
				</g>
				<g>
					<g>
						<circle cx="673.3" cy="702.2" r="5" style="fill:#383A48;"/>
					</g>
				</g>
				<g>
					<g>
						<circle cx="673.3" cy="726.9" r="5" style="fill:#383A48;"/>
					</g>
				</g>
				<g>
					<g>
						<circle cx="648.7" cy="332.2" r="5" style="fill:#383A48;"/>
					</g>
				</g>
				<g>
					<g>
						<circle cx="648.7" cy="356.9" r="5" style="fill:#383A48;"/>
					</g>
				</g>
				<g>
					<g>
						<circle cx="648.7" cy="381.5" r="5" style="fill:#383A48;"/>
					</g>
				</g>
				<g>
					<g>
						<circle cx="648.7" cy="406.2" r="5" style="fill:#383A48;"/>
					</g>
				</g>
				<g>
					<g>
						<circle cx="648.7" cy="430.9" r="5" style="fill:#383A48;"/>
					</g>
				</g>
				<g>
					<g>
						<circle cx="648.7" cy="455.5" r="5" style="fill:#383A48;"/>
					</g>
				</g>
				<g>
					<g>
						<circle cx="648.7" cy="480.2" r="5" style="fill:#383A48;"/>
					</g>
				</g>
				<g>
					<g>
						<circle cx="648.7" cy="504.9" r="5" style="fill:#383A48;"/>
					</g>
				</g>
				<g>
					<g>
						<circle cx="648.7" cy="529.5" r="5" style="fill:#383A48;"/>
					</g>
				</g>
				<g>
					<g>
						<circle cx="648.7" cy="554.2" r="5" style="fill:#383A48;"/>
					</g>
				</g>
				<g>
					<g>
						<circle cx="648.7" cy="578.9" r="5" style="fill:#383A48;"/>
					</g>
				</g>
				<g>
					<g>
						<circle cx="648.7" cy="603.5" r="5" style="fill:#383A48;"/>
					</g>
				</g>
				<g>
					<g>
						<circle cx="648.7" cy="628.2" r="5" style="fill:#383A48;"/>
					</g>
				</g>
				<g>
					<g>
						<circle cx="648.7" cy="652.9" r="5" style="fill:#383A48;"/>
					</g>
				</g>
				<g>
					<g>
						<circle cx="648.7" cy="677.5" r="5" style="fill:#383A48;"/>
					</g>
				</g>
				<g>
					<g>
						<circle cx="648.7" cy="702.2" r="5" style="fill:#383A48;"/>
					</g>
				</g>
				<g>
					<g>
						<circle cx="624" cy="332.2" r="5" style="fill:#383A48;"/>
					</g>
				</g>
				<g>
					<g>
						<circle cx="624" cy="356.9" r="5" style="fill:#383A48;"/>
					</g>
				</g>
				<g>
					<g>
						<circle cx="624" cy="381.5" r="5" style="fill:#383A48;"/>
					</g>
				</g>
				<g>
					<g>
						<circle cx="624" cy="406.2" r="5" style="fill:#383A48;"/>
					</g>
				</g>
				<g>
					<g>
						<circle cx="624" cy="430.9" r="5" style="fill:#383A48;"/>
					</g>
				</g>
				<g>
					<g>
						<circle cx="624" cy="455.5" r="5" style="fill:#383A48;"/>
					</g>
				</g>
				<g>
					<g>
						<circle cx="624" cy="480.2" r="5" style="fill:#383A48;"/>
					</g>
				</g>
				<g>
					<g>
						<circle cx="624" cy="504.9" r="5" style="fill:#383A48;"/>
					</g>
				</g>
				<g>
					<g>
						<circle cx="624" cy="529.5" r="5" style="fill:#383A48;"/>
					</g>
				</g>
				<g>
					<g>
						<circle cx="624" cy="554.2" r="5" style="fill:#383A48;"/>
					</g>
				</g>
				<g>
					<g>
						<circle cx="624" cy="578.9" r="5" style="fill:#383A48;"/>
					</g>
				</g>
				<g>
					<g>
						<circle cx="624" cy="603.5" r="5" style="fill:#383A48;"/>
					</g>
				</g>
				<g>
					<g>
						<circle cx="624" cy="628.2" r="5" style="fill:#383A48;"/>
					</g>
				</g>
				<g>
					<g>
						<circle cx="624" cy="652.9" r="5" style="fill:#383A48;"/>
					</g>
				</g>
				<g>
					<g>
						<circle cx="624" cy="677.5" r="5" style="fill:#383A48;"/>
					</g>
				</g>
				<g>
					<g>
						<circle cx="624" cy="702.2" r="5" style="fill:#383A48;"/>
					</g>
				</g>
			</g>
		</g>
		<g>
			<polygon points="810.1,409.1 1207.5,409.1 1008.1,298.5 610.6,298.5 			" style="fill:#F3F6E6;"/>
			<path d="M1207.5,414.1H810.1c-0.8,0-1.7-0.2-2.4-0.6L608.2,302.9c-2-1.1-3-3.4-2.4-5.6s2.6-3.7,4.8-3.7H1008
				c0.8,0,1.7,0.2,2.4,0.6l199.5,110.6c2,1.1,3,3.4,2.4,5.6C1211.8,412.6,1209.8,414.1,1207.5,414.1z M811.4,404.1h376.8
				l-181.4-100.6H629.9L811.4,404.1z" style="fill:#383A48;"/>
		</g>
		<g>
			<polygon points="960.1,409.1 1075.1,409.1 875.6,298.5 760.6,298.5 			" style="fill:#F6E049;"/>
			<path d="M1075.1,414.1h-115c-0.8,0-1.7-0.2-2.4-0.6L758.2,302.9c-2-1.1-3-3.4-2.4-5.6s2.6-3.7,4.8-3.7h115
				c0.8,0,1.7,0.2,2.4,0.6l199.5,110.6c2,1.1,3,3.4,2.4,5.6S1077.4,414.1,1075.1,414.1z M961.4,404.1h94.4L874.3,303.5h-94.4
				L961.4,404.1z" style="fill:#383A48;"/>
		</g>
		<g>
			<rect x="960.1" y="409.1" width="115" height="155.8" style="fill:#F6E049;"/>
			<path d="M1075.1,569.9h-115c-2.8,0-5-2.2-5-5V409.1c0-2.8,2.2-5,5-5h115c2.8,0,5,2.2,5,5v155.8
				C1080.1,567.7,1077.8,569.9,1075.1,569.9z M965.1,559.9h105V414.1h-105V559.9z" style="fill:#383A48;"/>
		</g>
		<g>
			<g>
				<g>
					<g>
						<circle cx="1055.6" cy="426.4" r="5" style="fill:#383A48;"/>
					</g>
				</g>
				<g>
					<g>
						<circle cx="1055.6" cy="451" r="5" style="fill:#383A48;"/>
					</g>
				</g>
				<g>
					<g>
						<circle cx="1055.6" cy="475.7" r="5" style="fill:#383A48;"/>
					</g>
				</g>
				<g>
					<g>
						<circle cx="1055.6" cy="500.4" r="5" style="fill:#383A48;"/>
					</g>
				</g>
				<g>
					<g>
						<circle cx="1055.6" cy="525" r="5" style="fill:#383A48;"/>
					</g>
				</g>
				<g>
					<g>
						<circle cx="1055.6" cy="549.7" r="5" style="fill:#383A48;"/>
					</g>
				</g>
				<g>
					<g>
						<circle cx="1030.9" cy="426.4" r="5" style="fill:#383A48;"/>
					</g>
				</g>
				<g>
					<g>
						<circle cx="1030.9" cy="451" r="5" style="fill:#383A48;"/>
					</g>
				</g>
				<g>
					<g>
						<circle cx="1030.9" cy="475.7" r="5" style="fill:#383A48;"/>
					</g>
				</g>
				<g>
					<g>
						<circle cx="1030.9" cy="500.4" r="5" style="fill:#383A48;"/>
					</g>
				</g>
				<g>
					<g>
						<circle cx="1030.9" cy="525" r="5" style="fill:#383A48;"/>
					</g>
				</g>
				<g>
					<g>
						<circle cx="1030.9" cy="549.7" r="5" style="fill:#383A48;"/>
					</g>
				</g>
				<g>
					<g>
						<circle cx="1006.2" cy="426.4" r="5" style="fill:#383A48;"/>
					</g>
				</g>
				<g>
					<g>
						<circle cx="1006.2" cy="451" r="5" style="fill:#383A48;"/>
					</g>
				</g>
				<g>
					<g>
						<circle cx="1006.2" cy="475.7" r="5" style="fill:#383A48;"/>
					</g>
				</g>
				<g>
					<g>
						<circle cx="1006.2" cy="500.4" r="5" style="fill:#383A48;"/>
					</g>
				</g>
				<g>
					<g>
						<circle cx="1006.2" cy="525" r="5" style="fill:#383A48;"/>
					</g>
				</g>
				<g>
					<g>
						<circle cx="1006.2" cy="549.7" r="5" style="fill:#383A48;"/>
					</g>
				</g>
				<g>
					<g>
						<circle cx="981.6" cy="426.4" r="5" style="fill:#383A48;"/>
					</g>
				</g>
				<g>
					<g>
						<circle cx="981.6" cy="451" r="5" style="fill:#383A48;"/>
					</g>
				</g>
				<g>
					<g>
						<circle cx="981.6" cy="475.7" r="5" style="fill:#383A48;"/>
					</g>
				</g>
				<g>
					<g>
						<circle cx="981.6" cy="500.4" r="5" style="fill:#383A48;"/>
					</g>
				</g>
				<g>
					<g>
						<circle cx="981.6" cy="525" r="5" style="fill:#383A48;"/>
					</g>
				</g>
				<g>
					<g>
						<circle cx="981.6" cy="549.7" r="5" style="fill:#383A48;"/>
					</g>
				</g>
			</g>
			<g>
				<path d="M1075.1,569.9h-115c-2.8,0-5-2.2-5-5V409.1c0-2.8,2.2-5,5-5h115c2.8,0,5,2.2,5,5v155.8
					C1080.1,567.7,1077.8,569.9,1075.1,569.9z M965.1,559.9h105V414.1h-105V559.9z" style="fill:#383A48;"/>
			</g>
		</g>
	</g>
	<g>
		<g>
			<path d="M438.7,684.1c-0.6,0-1.2-0.1-1.8-0.3c-2.6-1-3.8-3.9-2.8-6.5c0.6-1.6,1.3-3.2,1.9-4.8c1.1-2.5,4-3.7,6.6-2.6
				c2.5,1.1,3.7,4,2.6,6.6c-0.6,1.5-1.3,3-1.8,4.5C442.6,682.8,440.7,684.1,438.7,684.1z" style="fill:#383A48;"/>
		</g>
		<g>
			<path d="M633,829.1c-2.8,0-5-2.2-5-5s2.2-5,5-5c3.3,0,6.7-0.1,10.1-0.1c2.7-0.1,5,2.1,5.1,4.9c0.1,2.8-2.1,5-4.9,5.1
				C639.8,829,636.4,829,633,829.1C633.1,829.1,633,829.1,633,829.1z M592.5,827.8c-0.1,0-0.2,0-0.4,0c-3.4-0.2-6.8-0.5-10.2-0.8
				c-2.8-0.3-4.8-2.7-4.5-5.4s2.7-4.8,5.4-4.5c3.3,0.3,6.7,0.6,10,0.8c2.8,0.2,4.8,2.6,4.6,5.3C597.3,825.8,595.1,827.8,592.5,827.8
				z M683.7,826.9c-2.6,0-4.8-2-5-4.6c-0.2-2.8,1.8-5.2,4.6-5.4c3.3-0.3,6.7-0.5,10-0.8c2.8-0.2,5.2,1.8,5.4,4.5
				c0.2,2.8-1.8,5.2-4.5,5.4c-3.4,0.3-6.8,0.6-10.2,0.9C683.9,826.9,683.8,826.9,683.7,826.9z M734.1,821.5c-2.5,0-4.6-1.8-4.9-4.3
				c-0.4-2.7,1.5-5.3,4.3-5.6c3.3-0.5,6.6-0.9,10-1.4c2.7-0.4,5.3,1.5,5.7,4.2s-1.5,5.3-4.2,5.7c-3.4,0.5-6.7,1-10.1,1.4
				C734.5,821.4,734.3,821.5,734.1,821.5z M542.3,821.3c-0.3,0-0.7,0-1-0.1c-3.4-0.7-6.8-1.4-10.1-2.2c-2.7-0.6-4.4-3.3-3.7-6
				c0.6-2.7,3.3-4.3,6-3.7c3.2,0.7,6.4,1.5,9.7,2.1c2.7,0.5,4.5,3.2,3.9,5.9C546.7,819.6,544.6,821.3,542.3,821.3z M784.1,813.2
				c-2.4,0-4.5-1.7-4.9-4.1c-0.5-2.7,1.3-5.3,4-5.8c3.3-0.6,6.6-1.3,9.9-1.9c2.7-0.5,5.3,1.2,5.9,3.9c0.5,2.7-1.2,5.3-3.9,5.9
				c-3.3,0.7-6.7,1.3-10,1.9C784.7,813.2,784.4,813.2,784.1,813.2z M493.8,806.6c-0.7,0-1.3-0.1-2-0.4c-3.2-1.4-6.4-2.9-9.4-4.4
				c-2.5-1.2-3.4-4.3-2.2-6.7c1.2-2.5,4.3-3.4,6.7-2.2c2.8,1.4,5.8,2.8,8.9,4.2c2.5,1.1,3.7,4,2.6,6.6
				C497.6,805.5,495.8,806.6,493.8,806.6z M833.7,802.7c-2.3,0-4.3-1.5-4.9-3.8c-0.6-2.7,1-5.4,3.7-6c3.3-0.8,6.5-1.6,9.8-2.4
				c2.7-0.7,5.4,1,6,3.7c0.7,2.7-1,5.4-3.7,6c-3.3,0.8-6.6,1.6-9.9,2.4C834.4,802.6,834.1,802.7,833.7,802.7z M882.8,789.9
				c-2.2,0-4.2-1.4-4.8-3.6c-0.7-2.7,0.8-5.4,3.5-6.2c3.2-0.9,6.5-1.8,9.7-2.8c2.7-0.8,5.4,0.8,6.2,3.4c0.8,2.7-0.8,5.4-3.4,6.2
				c-3.3,0.9-6.5,1.9-9.8,2.8C883.7,789.9,883.2,789.9,882.8,789.9z M452,778.7c-1.3,0-2.7-0.5-3.6-1.6c-2.5-2.6-4.8-5.4-6.9-8.2
				c-1.6-2.2-1.2-5.3,1-7s5.3-1.2,7,1c1.9,2.5,3.9,5,6.1,7.3c1.9,2,1.8,5.2-0.2,7.1C454.4,778.2,453.2,778.7,452,778.7z
				 M931.3,775.2c-2.1,0-4.1-1.3-4.8-3.5c-0.9-2.6,0.6-5.4,3.2-6.3c3.2-1,6.4-2.1,9.6-3.2c2.6-0.9,5.5,0.5,6.3,3.2
				c0.9,2.6-0.5,5.5-3.2,6.3c-3.2,1.1-6.5,2.1-9.7,3.2C932.3,775.1,931.8,775.2,931.3,775.2z M979.2,758.7c-2,0-4-1.3-4.7-3.3
				c-0.9-2.6,0.4-5.5,3-6.4c3.2-1.2,6.3-2.3,9.5-3.5c2.6-1,5.5,0.3,6.4,2.9c1,2.6-0.3,5.5-2.9,6.4c-3.2,1.2-6.4,2.4-9.5,3.5
				C980.4,758.6,979.8,758.7,979.2,758.7z M1026.5,740.4c-2,0-3.8-1.2-4.6-3.1c-1-2.6,0.2-5.5,2.7-6.5c3.1-1.3,6.2-2.6,9.3-3.9
				c2.5-1.1,5.5,0.1,6.5,2.7c1.1,2.5-0.1,5.5-2.7,6.5c-3.1,1.3-6.3,2.6-9.4,3.9C1027.7,740.3,1027.1,740.4,1026.5,740.4z
				 M430.8,733.6c-2.5,0-4.7-1.9-5-4.5c-0.3-3.1-0.5-6.2-0.5-9.4c0-0.4,0-0.9,0-1.3c0-2.7,2.3-4.9,5-4.9c0,0,0,0,0.1,0
				c2.8,0,5,2.3,4.9,5.1c0,0.4,0,0.8,0,1.2c0,2.8,0.1,5.6,0.4,8.3s-1.7,5.2-4.4,5.5C431.2,733.6,431,733.6,430.8,733.6z
				 M1073.1,720.3c-1.9,0-3.7-1.1-4.6-2.9c-1.1-2.5,0-5.5,2.5-6.6c3.1-1.4,6.1-2.8,9.2-4.2c2.5-1.2,5.5-0.1,6.6,2.4
				c1.2,2.5,0.1,5.5-2.4,6.6c-3.1,1.4-6.2,2.8-9.3,4.2C1074.5,720.2,1073.8,720.3,1073.1,720.3z M1118.9,698.6c-1.8,0-3.6-1-4.5-2.8
				c-1.2-2.5-0.2-5.5,2.2-6.7c3-1.5,6-3,9-4.5c2.5-1.3,5.5-0.3,6.7,2.2c1.3,2.5,0.3,5.5-2.2,6.7c-3,1.5-6,3.1-9.1,4.6
				C1120.4,698.4,1119.6,698.6,1118.9,698.6z M1163.8,675c-1.8,0-3.5-0.9-4.4-2.6c-1.3-2.4-0.5-5.5,2-6.8c3-1.6,5.9-3.3,8.8-4.9
				c2.4-1.4,5.5-0.5,6.8,1.9c1.4,2.4,0.5,5.5-1.9,6.8c-2.9,1.7-5.9,3.3-8.9,5C1165.4,674.8,1164.6,675,1163.8,675z M1207.6,649.6
				c-1.7,0-3.3-0.9-4.3-2.4c-1.4-2.4-0.7-5.4,1.7-6.9c2.9-1.8,5.8-3.5,8.6-5.3c2.3-1.5,5.4-0.7,6.9,1.6s0.7,5.4-1.6,6.9
				c-2.9,1.8-5.8,3.6-8.7,5.3C1209.4,649.4,1208.5,649.6,1207.6,649.6z M1250.3,622.2c-1.6,0-3.2-0.8-4.1-2.2
				c-1.5-2.3-1-5.4,1.3-6.9c2.8-1.9,5.6-3.8,8.3-5.7c2.3-1.6,5.4-1,7,1.3s1,5.4-1.3,7c-2.8,1.9-5.6,3.8-8.4,5.8
				C1252.2,621.9,1251.3,622.2,1250.3,622.2z M1291.5,592.6c-1.5,0-3-0.7-4-2c-1.7-2.2-1.3-5.3,0.9-7c2.7-2.1,5.4-4.1,8-6.2
				c2.2-1.7,5.3-1.3,7,0.9s1.3,5.3-0.9,7c-2.7,2.1-5.4,4.2-8.1,6.2C1293.6,592.3,1292.5,592.6,1291.5,592.6z M1330.8,560.6
				c-1.4,0-2.8-0.6-3.8-1.7c-1.8-2.1-1.6-5.2,0.5-7.1c2.5-2.2,5.1-4.5,7.5-6.7c2.1-1.8,5.2-1.7,7.1,0.4c1.8,2.1,1.7,5.2-0.4,7.1
				c-2.5,2.3-5.1,4.5-7.6,6.8C1333.1,560.2,1332,560.6,1330.8,560.6z M1367.5,525.7c-1.2,0-2.5-0.5-3.5-1.4c-2-1.9-2.1-5.1-0.1-7.1
				c2.3-2.4,4.7-4.9,6.9-7.3c1.9-2,5-2.2,7.1-0.3c2,1.9,2.2,5,0.3,7.1c-2.3,2.5-4.6,5-7,7.5C1370.2,525.2,1368.9,525.7,1367.5,525.7
				z M1400.5,487.2c-1,0-2.1-0.3-3-1c-2.2-1.7-2.7-4.8-1-7c2-2.7,4-5.4,5.9-8.1c1.6-2.3,4.7-2.8,7-1.2c2.3,1.6,2.8,4.7,1.2,7
				c-1.9,2.8-4,5.6-6,8.3C1403.5,486.5,1402,487.2,1400.5,487.2z M1427,444.1c-0.7,0-1.4-0.2-2.1-0.5c-2.5-1.2-3.6-4.2-2.4-6.7
				c1.4-3,2.8-6,4-9c1-2.6,4-3.8,6.5-2.7c2.6,1,3.8,4,2.7,6.5c-1.3,3.1-2.7,6.3-4.2,9.5C1430.7,443.1,1428.9,444.1,1427,444.1z
				 M1440.6,395.7c-0.1,0-0.2,0-0.3,0c-2.8-0.2-4.9-2.5-4.7-5.3c0.1-1.7,0.1-3.3,0.1-5c0-1.5,0-3.1-0.1-4.6c-0.2-2.8,2-5.1,4.7-5.3
				c2.8-0.1,5.1,2,5.3,4.7c0.1,1.7,0.1,3.4,0.1,5.2c0,1.8-0.1,3.7-0.2,5.6C1445.4,393.6,1443.2,395.7,1440.6,395.7z M1428,347.5
				c-1.6,0-3.2-0.8-4.2-2.2c-1.7-2.6-3.7-5.1-5.8-7.5c-1.8-2.1-1.6-5.2,0.5-7.1s5.2-1.6,7.1,0.5c2.4,2.7,4.6,5.6,6.5,8.5
				c1.5,2.3,0.9,5.4-1.4,6.9C1429.9,347.3,1429,347.5,1428,347.5z M1389.8,315.1c-0.8,0-1.6-0.2-2.3-0.6c-2.8-1.5-5.8-2.9-8.9-4.2
				c-2.5-1.1-3.7-4.1-2.6-6.6s4.1-3.7,6.6-2.6c3.3,1.4,6.4,3,9.4,4.5c2.5,1.3,3.4,4.3,2.1,6.7
				C1393.3,314.2,1391.6,315.1,1389.8,315.1z M1080.5,308.8c-2.3,0-4.4-1.6-4.9-4c-0.6-2.7,1.2-5.4,3.9-5.9c3.3-0.7,6.7-1.4,10-2
				c2.7-0.5,5.3,1.2,5.9,3.9c0.5,2.7-1.2,5.3-3.9,5.9c-3.3,0.6-6.6,1.3-9.9,2C1081.2,308.7,1080.8,308.8,1080.5,308.8z
				 M1130.3,299.7c-2.4,0-4.5-1.8-4.9-4.2c-0.4-2.7,1.4-5.3,4.2-5.7c3.4-0.5,6.7-1,10.1-1.5c2.7-0.4,5.3,1.5,5.7,4.2
				c0.4,2.7-1.5,5.3-4.2,5.7c-3.3,0.5-6.6,1-10,1.5C1130.9,299.6,1130.6,299.7,1130.3,299.7z M1342.1,298.3c-0.4,0-0.7,0-1.1-0.1
				c-3.2-0.7-6.4-1.4-9.8-2.1c-2.7-0.5-4.5-3.1-4-5.9s3.2-4.5,5.9-4c3.4,0.7,6.8,1.4,10.1,2.1c2.7,0.6,4.4,3.3,3.8,6
				C1346.4,296.8,1344.4,298.3,1342.1,298.3z M1180.6,293.1c-2.5,0-4.7-1.9-5-4.5c-0.3-2.7,1.7-5.2,4.5-5.5c3.4-0.3,6.8-0.7,10.2-1
				c2.8-0.3,5.2,1.8,5.4,4.5c0.2,2.8-1.8,5.2-4.5,5.4c-3.3,0.3-6.7,0.6-10,1C1181,293.1,1180.8,293.1,1180.6,293.1z M1292,290.9
				c-0.1,0-0.3,0-0.4,0c-3.3-0.3-6.6-0.5-10-0.7c-2.8-0.2-4.9-2.5-4.7-5.3c0.2-2.8,2.5-4.9,5.3-4.7c3.5,0.2,6.9,0.4,10.2,0.7
				c2.8,0.2,4.8,2.6,4.6,5.4C1296.8,288.9,1294.6,290.9,1292,290.9z M1231.2,289.7c-2.7,0-4.9-2.1-5-4.8c-0.1-2.8,2.1-5.1,4.8-5.2
				c3.4-0.1,6.8-0.2,10.2-0.2h0.1c2.7,0,5,2.2,5,4.9c0,2.8-2.2,5-4.9,5.1C1238.1,289.6,1234.7,289.6,1231.2,289.7
				C1231.3,289.7,1231.2,289.7,1231.2,289.7z" style="fill:#383A48;"/>
		</g>
		<g>
			<path d="M1035.9,318.9c-2.2,0-4.3-1.5-4.8-3.8c-0.7-2.7,1-5.4,3.7-6.1c1.6-0.4,3.3-0.8,4.9-1.2c2.7-0.7,5.4,1,6,3.7
				c0.7,2.7-1,5.4-3.7,6c-1.6,0.4-3.2,0.8-4.8,1.2C1036.7,318.9,1036.3,318.9,1035.9,318.9z" style="fill:#383A48;"/>
		</g>
	</g>
	<g>
		<polygon points="1207.5,539.9 1431.2,429.6 1338,672.9 1303,613.7 1242.6,671.8 1208.7,635.7 1268.7,577.9 		" style="fill:#F3F6E6;"/>
		<path d="M1338,677.9c-1.8,0-3.4-0.9-4.3-2.5l-31.8-53.8l-55.8,53.7c-1,0.9-2.2,1.4-3.6,1.4c-1.3,0-2.6-0.6-3.5-1.6
			l-33.9-36.1c-1.9-2-1.8-5.1,0.2-7l55.4-53.3l-55.7-34.6c-1.5-1-2.4-2.7-2.4-4.5s1.2-3.4,2.8-4.2L1429,425.1
			c1.8-0.9,4.1-0.6,5.6,0.8s2,3.6,1.3,5.5l-93.2,243.3c-0.7,1.8-2.3,3-4.2,3.2C1338.3,677.9,1338.1,677.9,1338,677.9z M1215.8,635.9
			l27.1,28.8l56.7-54.6c1.1-1.1,2.6-1.6,4.1-1.4c1.5,0.2,2.9,1.1,3.6,2.4l29.8,50.4l84.9-221.7l-204.2,100.7l53.6,33.2
			c1.3,0.8,2.2,2.2,2.3,3.7s-0.4,3.1-1.5,4.1L1215.8,635.9z" style="fill:#383A48;"/>
	</g>
	<g>
		<g>
			<circle cx="1313.1" cy="828.1" r="102.3" style="fill:#F3F6E6;"/>
			<path d="M1313.1,935.4c-59.2,0-107.3-48.1-107.3-107.3s48.1-107.3,107.3-107.3s107.3,48.1,107.3,107.3
				S1372.3,935.4,1313.1,935.4z M1313.1,730.8c-53.7,0-97.3,43.7-97.3,97.3s43.7,97.3,97.3,97.3s97.3-43.7,97.3-97.3
				S1366.8,730.8,1313.1,730.8z" style="fill:#383A48;"/>
		</g>
		<g>
			<g>
				<circle cx="1279.6" cy="812.8" r="11.2" style="fill:#383A48;"/>
			</g>
			<g>
				<circle cx="1346.6" cy="812.8" r="11.2" style="fill:#383A48;"/>
			</g>
			<g>
				<path d="M1313.1,876c-16.4,0-31.4-9.6-38.3-24.6c-1.2-2.5,0-5.5,2.5-6.6c2.5-1.2,5.5,0,6.6,2.5
					c5.2,11.4,16.7,18.7,29.2,18.7s24-7.4,29.2-18.7c1.2-2.5,4.1-3.6,6.6-2.5c2.5,1.2,3.6,4.1,2.5,6.6
					C1344.6,866.4,1329.5,876,1313.1,876z" style="fill:#383A48;"/>
			</g>
		</g>
	</g>
	<g>
		<g>
			<circle cx="1415.4" cy="763.1" r="102.3" style="fill:#AAC6FC;"/>
			<path d="M1415.4,870.4c-59.2,0-107.3-48.1-107.3-107.3s48.1-107.3,107.3-107.3s107.3,48.1,107.3,107.3
				S1474.6,870.4,1415.4,870.4z M1415.4,665.8c-53.7,0-97.3,43.7-97.3,97.3s43.7,97.3,97.3,97.3s97.3-43.7,97.3-97.3
				S1469.1,665.8,1415.4,665.8z" style="fill:#383A48;"/>
		</g>
		<g>
			<g>
				<circle cx="1381.9" cy="747.8" r="11.2" style="fill:#383A48;"/>
			</g>
			<g>
				<circle cx="1448.9" cy="747.8" r="11.2" style="fill:#383A48;"/>
			</g>
			<g>
				<path d="M1415.4,811c-16.4,0-31.4-9.6-38.3-24.6c-1.2-2.5,0-5.5,2.5-6.6c2.5-1.2,5.5,0,6.6,2.5
					c5.2,11.4,16.7,18.7,29.2,18.7s24-7.4,29.2-18.7c1.2-2.5,4.1-3.6,6.6-2.5c2.5,1.2,3.6,4.1,2.5,6.6
					C1446.9,801.3,1431.8,811,1415.4,811z" style="fill:#383A48;"/>
			</g>
		</g>
	</g>
	<g>
		<g>
			<circle cx="1517.7" cy="698" r="102.3" style="fill:#E0719E;"/>
			<path d="M1517.7,805.3c-59.2,0-107.3-48.1-107.3-107.3s48.1-107.3,107.3-107.3S1625,638.8,1625,698
				S1576.9,805.3,1517.7,805.3z M1517.7,600.7c-53.7,0-97.3,43.7-97.3,97.3s43.7,97.3,97.3,97.3s97.3-43.7,97.3-97.3
				S1571.4,600.7,1517.7,600.7z" style="fill:#383A48;"/>
		</g>
		<g>
			<g>
				<circle cx="1484.2" cy="682.7" r="11.2" style="fill:#383A48;"/>
			</g>
			<g>
				<circle cx="1551.3" cy="682.7" r="11.2" style="fill:#383A48;"/>
			</g>
			<g>
				<path d="M1517.7,745.9c-16.4,0-31.4-9.6-38.3-24.6c-1.2-2.5,0-5.5,2.5-6.6c2.5-1.2,5.5,0,6.6,2.5
					c5.2,11.4,16.7,18.7,29.2,18.7s24-7.4,29.2-18.7c1.2-2.5,4.1-3.6,6.6-2.5c2.5,1.2,3.6,4.1,2.5,6.6
					C1549.2,736.2,1534.2,745.9,1517.7,745.9z" style="fill:#383A48;"/>
			</g>
		</g>
	</g>
	<g>
		<g>
			<circle cx="1620.1" cy="633" r="102.3" style="fill:#F6E049;"/>
			<path d="M1620.1,740.3c-59.2,0-107.3-48.1-107.3-107.3s48.1-107.3,107.3-107.3s107.3,48.1,107.3,107.3
				S1679.2,740.3,1620.1,740.3z M1620.1,535.6c-53.7,0-97.3,43.7-97.3,97.3s43.7,97.3,97.3,97.3s97.3-43.7,97.3-97.3
				S1673.7,535.6,1620.1,535.6z" style="fill:#383A48;"/>
		</g>
		<g>
			<g>
				<circle cx="1586.5" cy="617.7" r="11.2" style="fill:#383A48;"/>
			</g>
			<g>
				<circle cx="1653.6" cy="617.7" r="11.2" style="fill:#383A48;"/>
			</g>
			<g>
				<path d="M1620.1,680.8c-16.4,0-31.4-9.6-38.3-24.6c-1.2-2.5,0-5.5,2.5-6.6c2.5-1.2,5.5,0,6.6,2.5
					c5.2,11.4,16.7,18.7,29.2,18.7s24-7.4,29.2-18.7c1.2-2.5,4.1-3.6,6.6-2.5c2.5,1.2,3.6,4.1,2.5,6.6
					C1651.5,671.2,1636.5,680.8,1620.1,680.8z" style="fill:#383A48;"/>
			</g>
		</g>
	</g>
	<g>
		<g>
			<path d="M1015.7,235.7c-0.4,0-0.8,0-1.2-0.1c-2.7-0.7-4.3-3.4-3.7-6l4.9-20.1c0.7-2.7,3.4-4.3,6-3.7
				c2.7,0.7,4.3,3.4,3.7,6l-4.9,20.1C1020,234.1,1018,235.7,1015.7,235.7z" style="fill:#383A48;"/>
		</g>
		<g>
			<path d="M1077.1,262.4c-0.9,0-1.9-0.3-2.8-0.8c-2.3-1.5-2.9-4.6-1.4-6.9l11.4-17.3c1.5-2.3,4.6-2.9,6.9-1.4
				s2.9,4.6,1.4,6.9l-11.4,17.3C1080.3,261.6,1078.7,262.4,1077.1,262.4z" style="fill:#383A48;"/>
		</g>
		<g>
			<path d="M948.9,231.2c-2.5,0-4.7-1.9-5-4.5l-2.2-20.6c-0.3-2.7,1.7-5.2,4.4-5.5c2.8-0.3,5.2,1.7,5.5,4.4l2.2,20.6
				c0.3,2.7-1.7,5.2-4.4,5.5C949.2,231.2,949.1,231.2,948.9,231.2z" style="fill:#383A48;"/>
		</g>
	</g>
	<g>
		<g>
			<line x1="1528.4" y1="289.2" x2="1551.7" y2="265.9" style="fill:none;"/>
			
				<rect x="1523.5" y="272.5" transform="matrix(0.7071 -0.7071 0.7071 0.7071 254.8043 1170.2144)" width="33" height="10" style="fill:#383A48;"/>
		</g>
		<g>
			<line x1="1551.7" y1="289.2" x2="1528.4" y2="265.9" style="fill:none;"/>
			
				<rect x="1535" y="261" transform="matrix(0.7071 -0.7071 0.7071 0.7071 254.8041 1170.2141)" width="10" height="33" style="fill:#383A48;"/>
		</g>
	</g>
	<g>
		<g>
			<line x1="1045.7" y1="877" x2="1069" y2="853.7" style="fill:none;"/>
			
				<rect x="1040.9" y="860.4" transform="matrix(0.7071 -0.7071 0.7071 0.7071 -302.2174 1001.1556)" width="33" height="10" style="fill:#383A48;"/>
		</g>
		<g>
			<line x1="1069" y1="877" x2="1045.7" y2="853.7" style="fill:none;"/>
			
				<rect x="1052.4" y="848.9" transform="matrix(0.7071 -0.7071 0.7071 0.7071 -302.1981 1001.1453)" width="10" height="33" style="fill:#383A48;"/>
		</g>
	</g>
	<g>
		<g>
			<rect x="197.6" y="818.8" width="111.5" height="111.5" style="fill:#AAC6FC;"/>
			<path d="M309.2,935.4H197.6c-2.8,0-5-2.2-5-5V818.8c0-2.8,2.2-5,5-5h111.5c2.8,0,5,2.2,5,5v111.5
				C314.2,933.2,311.9,935.4,309.2,935.4z M202.6,925.4h101.5V823.8H202.6V925.4z" style="fill:#383A48;"/>
		</g>
		<g>
			<rect x="309.2" y="818.8" width="111.5" height="111.5" style="fill:#AAC6FC;"/>
			<path d="M420.7,935.4H309.2c-2.8,0-5-2.2-5-5V818.8c0-2.8,2.2-5,5-5h111.5c2.8,0,5,2.2,5,5v111.5
				C425.7,933.2,423.5,935.4,420.7,935.4z M314.2,925.4h101.5V823.8H314.2V925.4z" style="fill:#383A48;"/>
		</g>
		<g>
			<rect x="420.7" y="818.8" width="111.5" height="111.5" style="fill:#AAC6FC;"/>
			<path d="M532.3,935.4H420.7c-2.8,0-5-2.2-5-5V818.8c0-2.8,2.2-5,5-5h111.5c2.8,0,5,2.2,5,5v111.5
				C537.3,933.2,535,935.4,532.3,935.4z M425.7,925.4h101.5V823.8H425.7V925.4z" style="fill:#383A48;"/>
		</g>
		<g>
			<g>
				<g>
					
						<rect x="471.5" y="855.1" transform="matrix(0.7071 -0.7071 0.7071 0.7071 -480.5732 593.7797)" width="10" height="43.8" style="fill:#383A48;"/>
				</g>
				<g>
					
						<rect x="454.6" y="872" transform="matrix(0.7071 -0.7071 0.7071 0.7071 -480.5852 593.7809)" width="43.8" height="10" style="fill:#383A48;"/>
				</g>
			</g>
			<g>
				<path d="M386.9,899H343v-43.8h43.8V899H386.9z M353,889h23.8v-23.8H353V889z" style="fill:#383A48;"/>
			</g>
			<g>
				<rect x="232.2" y="889" width="33.8" height="10" style="fill:#383A48;"/>
			</g>
		</g>
	</g>
</g>
</svg>
