<?xml version="1.0" encoding="utf-8"?>
<!-- Generator: Adobe Illustrator 22.0.1, SVG Export Plug-In . SVG Version: 6.00 Build 0)  -->
<svg version="1.1" id="Layer_1" xmlns="http://www.w3.org/2000/svg" xmlns:xlink="http://www.w3.org/1999/xlink" x="0px" y="0px" viewBox="0 0 1920 1080" style="enable-background:new 0 0 1920 1080;" xml:space="preserve">

<rect y="0" width="1920" height="1080" style="fill:#F6E049;"/>
<g>
	<path d="M1570.3,663.9c-1.2-0.2-123.6-17.9-247.3-25.2c-72.8-4.3-131.8-4.3-175.5,0.1c-57.3,5.8-88.1,19-94.3,40.3
		c-26.2,90.9-57.4,151.4-98.3,190.6c-37.7,36.1-84,55-150.2,61.2c-2.7,0.3-4.6,2.5-4.5,5.2s2.3,4.8,5,4.8h764.4c2.8,0,5-2.2,5-5
		V668.8C1574.6,666.3,1572.8,664.2,1570.3,663.9z" style="fill:#F3F6E6;"/>
	<path d="M1117,191.6H659.3c-2.8,0-5,2.2-5,5v330.5c0,2.8,2.2,5,5,5H1117c2.8,0,5-2.2,5-5V196.6
		C1122,193.9,1119.7,191.6,1117,191.6z" style="fill:#383A48;"/>
	<g>
		<g>
			<rect x="619.2" y="154.8" width="457.7" height="330.5" style="fill:#F3F6E6;"/>
			<path d="M1076.9,490.3H619.2c-2.8,0-5-2.2-5-5V154.8c0-2.8,2.2-5,5-5h457.7c2.8,0,5,2.2,5,5v330.5
				C1081.9,488.1,1079.7,490.3,1076.9,490.3z M624.2,480.3h447.7V159.8H624.2V480.3z" style="fill:#383A48;"/>
		</g>
		<g>
			<rect x="653" y="196.6" width="390.1" height="246.9" style="fill:#F3F6E6;"/>
			<path d="M1043.1,448.5H653c-2.8,0-5-2.2-5-5V196.6c0-2.8,2.2-5,5-5h390.1c2.8,0,5,2.2,5,5v246.9
				C1048.1,446.3,1045.9,448.5,1043.1,448.5z M658,438.5h380.1V201.6H658V438.5z" style="fill:#383A48;"/>
		</g>
		<g>
			<polygon points="1011.7,311.6 967.7,269.6 923.7,311.6 923.7,154.8 1011.7,154.8 			" style="fill:#E0719E;"/>
			<path d="M1011.7,316.6c-1.3,0-2.5-0.5-3.5-1.4l-40.5-38.7l-40.5,38.7c-1.4,1.4-3.6,1.8-5.4,1c-1.8-0.8-3-2.6-3-4.6
				V154.8c0-2.8,2.2-5,5-5h88c2.8,0,5,2.2,5,5v156.8c0,2-1.2,3.8-3,4.6C1013,316.5,1012.3,316.6,1011.7,316.6z M967.7,264.6
				c1.2,0,2.5,0.5,3.5,1.4l35.5,33.9V159.8h-78v140.1l35.5-33.9C965.2,265.1,966.4,264.6,967.7,264.6z" style="fill:#383A48;"/>
		</g>
	</g>
	<path d="M609.6,153.8c-0.5-2.3-2.5-4-4.9-4H208.4c-2.8,0-5,2.2-5,5v778.1c0,2.6,1.9,4.7,4.5,5c0.2,0,0.4,0,0.5,0
		c2.3,0,4.4-1.6,4.9-4c41.1-194.4,80.8-239.2,140.8-307.1c18.2-20.5,38.7-43.8,61.5-73.8c38.6-50.9,42.3-108.8,45.9-164.8
		c2.9-44.6,5.6-86.6,24.3-125.8c21.3-44.2,59.6-77,120.8-103C608.8,158.5,610.1,156.1,609.6,153.8z" style="fill:#F3F6E6;"/>
	<g>
		<g>
			<g>
				<circle cx="1560.3" cy="707.1" r="5" style="fill:#383A48;"/>
			</g>
		</g>
		<g>
			<g>
				<circle cx="1560.3" cy="731.8" r="5" style="fill:#383A48;"/>
			</g>
		</g>
		<g>
			<g>
				<circle cx="1560.3" cy="756.5" r="5" style="fill:#383A48;"/>
			</g>
		</g>
		<g>
			<g>
				<circle cx="1560.3" cy="781.1" r="5" style="fill:#383A48;"/>
			</g>
		</g>
		<g>
			<g>
				<circle cx="1560.3" cy="805.8" r="5" style="fill:#383A48;"/>
			</g>
		</g>
		<g>
			<g>
				<circle cx="1560.3" cy="830.5" r="5" style="fill:#383A48;"/>
			</g>
		</g>
		<g>
			<g>
				<circle cx="1560.3" cy="855.1" r="5" style="fill:#383A48;"/>
			</g>
		</g>
		<g>
			<g>
				<circle cx="1560.3" cy="879.8" r="5" style="fill:#383A48;"/>
			</g>
		</g>
		<g>
			<g>
				<circle cx="1560.3" cy="904.5" r="5" style="fill:#383A48;"/>
			</g>
		</g>
		<g>
			<g>
				<circle cx="1560.3" cy="929.1" r="5" style="fill:#383A48;"/>
			</g>
		</g>
		<g>
			<g>
				<circle cx="1535.6" cy="707.1" r="5" style="fill:#383A48;"/>
			</g>
		</g>
		<g>
			<g>
				<circle cx="1535.6" cy="731.8" r="5" style="fill:#383A48;"/>
			</g>
		</g>
		<g>
			<g>
				<circle cx="1535.6" cy="756.5" r="5" style="fill:#383A48;"/>
			</g>
		</g>
		<g>
			<g>
				<circle cx="1535.6" cy="781.1" r="5" style="fill:#383A48;"/>
			</g>
		</g>
		<g>
			<g>
				<circle cx="1535.6" cy="805.8" r="5" style="fill:#383A48;"/>
			</g>
		</g>
		<g>
			<g>
				<circle cx="1535.6" cy="830.5" r="5" style="fill:#383A48;"/>
			</g>
		</g>
		<g>
			<g>
				<circle cx="1535.6" cy="855.1" r="5" style="fill:#383A48;"/>
			</g>
		</g>
		<g>
			<g>
				<circle cx="1535.6" cy="879.8" r="5" style="fill:#383A48;"/>
			</g>
		</g>
		<g>
			<g>
				<circle cx="1535.6" cy="904.5" r="5" style="fill:#383A48;"/>
			</g>
		</g>
		<g>
			<g>
				<circle cx="1535.6" cy="929.1" r="5" style="fill:#383A48;"/>
			</g>
		</g>
		<g>
			<g>
				<circle cx="1510.9" cy="707.1" r="5" style="fill:#383A48;"/>
			</g>
		</g>
		<g>
			<g>
				<circle cx="1510.9" cy="731.8" r="5" style="fill:#383A48;"/>
			</g>
		</g>
		<g>
			<g>
				<circle cx="1510.9" cy="756.5" r="5" style="fill:#383A48;"/>
			</g>
		</g>
		<g>
			<g>
				<circle cx="1510.9" cy="781.1" r="5" style="fill:#383A48;"/>
			</g>
		</g>
		<g>
			<g>
				<circle cx="1510.9" cy="805.8" r="5" style="fill:#383A48;"/>
			</g>
		</g>
		<g>
			<g>
				<circle cx="1510.9" cy="830.5" r="5" style="fill:#383A48;"/>
			</g>
		</g>
		<g>
			<g>
				<circle cx="1510.9" cy="855.1" r="5" style="fill:#383A48;"/>
			</g>
		</g>
		<g>
			<g>
				<circle cx="1510.9" cy="879.8" r="5" style="fill:#383A48;"/>
			</g>
		</g>
		<g>
			<g>
				<circle cx="1510.9" cy="904.5" r="5" style="fill:#383A48;"/>
			</g>
		</g>
		<g>
			<g>
				<circle cx="1510.9" cy="929.1" r="5" style="fill:#383A48;"/>
			</g>
		</g>
		<g>
			<g>
				<circle cx="1486.3" cy="707.1" r="5" style="fill:#383A48;"/>
			</g>
		</g>
		<g>
			<g>
				<circle cx="1486.3" cy="731.8" r="5" style="fill:#383A48;"/>
			</g>
		</g>
		<g>
			<g>
				<circle cx="1486.3" cy="756.5" r="5" style="fill:#383A48;"/>
			</g>
		</g>
		<g>
			<g>
				<circle cx="1486.3" cy="781.1" r="5" style="fill:#383A48;"/>
			</g>
		</g>
		<g>
			<g>
				<circle cx="1486.3" cy="805.8" r="5" style="fill:#383A48;"/>
			</g>
		</g>
		<g>
			<g>
				<circle cx="1486.3" cy="830.5" r="5" style="fill:#383A48;"/>
			</g>
		</g>
		<g>
			<g>
				<circle cx="1486.3" cy="855.1" r="5" style="fill:#383A48;"/>
			</g>
		</g>
		<g>
			<g>
				<circle cx="1486.3" cy="879.8" r="5" style="fill:#383A48;"/>
			</g>
		</g>
		<g>
			<g>
				<circle cx="1486.3" cy="904.5" r="5" style="fill:#383A48;"/>
			</g>
		</g>
		<g>
			<g>
				<circle cx="1486.3" cy="929.1" r="5" style="fill:#383A48;"/>
			</g>
		</g>
		<g>
			<g>
				<circle cx="1461.6" cy="707.1" r="5" style="fill:#383A48;"/>
			</g>
		</g>
		<g>
			<g>
				<circle cx="1461.6" cy="731.8" r="5" style="fill:#383A48;"/>
			</g>
		</g>
		<g>
			<g>
				<circle cx="1461.6" cy="756.5" r="5" style="fill:#383A48;"/>
			</g>
		</g>
		<g>
			<g>
				<circle cx="1461.6" cy="781.1" r="5" style="fill:#383A48;"/>
			</g>
		</g>
		<g>
			<g>
				<circle cx="1461.6" cy="805.8" r="5" style="fill:#383A48;"/>
			</g>
		</g>
		<g>
			<g>
				<circle cx="1461.6" cy="830.5" r="5" style="fill:#383A48;"/>
			</g>
		</g>
		<g>
			<g>
				<circle cx="1461.6" cy="855.1" r="5" style="fill:#383A48;"/>
			</g>
		</g>
		<g>
			<g>
				<circle cx="1461.6" cy="879.8" r="5" style="fill:#383A48;"/>
			</g>
		</g>
		<g>
			<g>
				<circle cx="1461.6" cy="904.5" r="5" style="fill:#383A48;"/>
			</g>
		</g>
		<g>
			<g>
				<circle cx="1461.6" cy="929.1" r="5" style="fill:#383A48;"/>
			</g>
		</g>
		<g>
			<g>
				<circle cx="1436.9" cy="707.1" r="5" style="fill:#383A48;"/>
			</g>
		</g>
		<g>
			<g>
				<circle cx="1436.9" cy="731.8" r="5" style="fill:#383A48;"/>
			</g>
		</g>
		<g>
			<g>
				<circle cx="1436.9" cy="756.5" r="5" style="fill:#383A48;"/>
			</g>
		</g>
		<g>
			<g>
				<circle cx="1436.9" cy="781.1" r="5" style="fill:#383A48;"/>
			</g>
		</g>
		<g>
			<g>
				<circle cx="1436.9" cy="805.8" r="5" style="fill:#383A48;"/>
			</g>
		</g>
		<g>
			<g>
				<circle cx="1436.9" cy="830.5" r="5" style="fill:#383A48;"/>
			</g>
		</g>
		<g>
			<g>
				<circle cx="1436.9" cy="855.1" r="5" style="fill:#383A48;"/>
			</g>
		</g>
		<g>
			<g>
				<circle cx="1436.9" cy="879.8" r="5" style="fill:#383A48;"/>
			</g>
		</g>
		<g>
			<g>
				<circle cx="1436.9" cy="904.5" r="5" style="fill:#383A48;"/>
			</g>
		</g>
		<g>
			<g>
				<circle cx="1436.9" cy="929.1" r="5" style="fill:#383A48;"/>
			</g>
		</g>
		<g>
			<g>
				<circle cx="1412.3" cy="707.1" r="5" style="fill:#383A48;"/>
			</g>
		</g>
		<g>
			<g>
				<circle cx="1412.3" cy="731.8" r="5" style="fill:#383A48;"/>
			</g>
		</g>
		<g>
			<g>
				<circle cx="1412.3" cy="756.5" r="5" style="fill:#383A48;"/>
			</g>
		</g>
		<g>
			<g>
				<circle cx="1412.3" cy="781.1" r="5" style="fill:#383A48;"/>
			</g>
		</g>
		<g>
			<g>
				<circle cx="1412.3" cy="805.8" r="5" style="fill:#383A48;"/>
			</g>
		</g>
		<g>
			<g>
				<circle cx="1412.3" cy="830.5" r="5" style="fill:#383A48;"/>
			</g>
		</g>
		<g>
			<g>
				<circle cx="1412.3" cy="855.1" r="5" style="fill:#383A48;"/>
			</g>
		</g>
		<g>
			<g>
				<circle cx="1412.3" cy="879.8" r="5" style="fill:#383A48;"/>
			</g>
		</g>
		<g>
			<g>
				<circle cx="1412.3" cy="904.5" r="5" style="fill:#383A48;"/>
			</g>
		</g>
		<g>
			<g>
				<circle cx="1412.3" cy="929.1" r="5" style="fill:#383A48;"/>
			</g>
		</g>
		<g>
			<g>
				<circle cx="1387.6" cy="707.1" r="5" style="fill:#383A48;"/>
			</g>
		</g>
		<g>
			<g>
				<circle cx="1387.6" cy="731.8" r="5" style="fill:#383A48;"/>
			</g>
		</g>
		<g>
			<g>
				<circle cx="1387.6" cy="756.5" r="5" style="fill:#383A48;"/>
			</g>
		</g>
		<g>
			<g>
				<circle cx="1387.6" cy="781.1" r="5" style="fill:#383A48;"/>
			</g>
		</g>
		<g>
			<g>
				<circle cx="1387.6" cy="805.8" r="5" style="fill:#383A48;"/>
			</g>
		</g>
		<g>
			<g>
				<circle cx="1387.6" cy="830.5" r="5" style="fill:#383A48;"/>
			</g>
		</g>
		<g>
			<g>
				<circle cx="1387.6" cy="855.1" r="5" style="fill:#383A48;"/>
			</g>
		</g>
		<g>
			<g>
				<circle cx="1387.6" cy="879.8" r="5" style="fill:#383A48;"/>
			</g>
		</g>
		<g>
			<g>
				<circle cx="1387.6" cy="904.5" r="5" style="fill:#383A48;"/>
			</g>
		</g>
		<g>
			<g>
				<circle cx="1387.6" cy="929.1" r="5" style="fill:#383A48;"/>
			</g>
		</g>
		<g>
			<g>
				<circle cx="1362.9" cy="707.1" r="5" style="fill:#383A48;"/>
			</g>
		</g>
		<g>
			<g>
				<circle cx="1362.9" cy="731.8" r="5" style="fill:#383A48;"/>
			</g>
		</g>
		<g>
			<g>
				<circle cx="1362.9" cy="756.5" r="5" style="fill:#383A48;"/>
			</g>
		</g>
		<g>
			<g>
				<circle cx="1362.9" cy="781.1" r="5" style="fill:#383A48;"/>
			</g>
		</g>
		<g>
			<g>
				<circle cx="1362.9" cy="805.8" r="5" style="fill:#383A48;"/>
			</g>
		</g>
		<g>
			<g>
				<circle cx="1362.9" cy="830.5" r="5" style="fill:#383A48;"/>
			</g>
		</g>
		<g>
			<g>
				<circle cx="1362.9" cy="855.1" r="5" style="fill:#383A48;"/>
			</g>
		</g>
		<g>
			<g>
				<circle cx="1362.9" cy="879.8" r="5" style="fill:#383A48;"/>
			</g>
		</g>
		<g>
			<g>
				<circle cx="1362.9" cy="904.5" r="5" style="fill:#383A48;"/>
			</g>
		</g>
		<g>
			<g>
				<circle cx="1362.9" cy="929.1" r="5" style="fill:#383A48;"/>
			</g>
		</g>
		<g>
			<g>
				<circle cx="1338.3" cy="707.1" r="5" style="fill:#383A48;"/>
			</g>
		</g>
		<g>
			<g>
				<circle cx="1338.3" cy="731.8" r="5" style="fill:#383A48;"/>
			</g>
		</g>
		<g>
			<g>
				<circle cx="1338.3" cy="756.5" r="5" style="fill:#383A48;"/>
			</g>
		</g>
		<g>
			<g>
				<circle cx="1338.3" cy="781.1" r="5" style="fill:#383A48;"/>
			</g>
		</g>
		<g>
			<g>
				<circle cx="1338.3" cy="805.8" r="5" style="fill:#383A48;"/>
			</g>
		</g>
		<g>
			<g>
				<circle cx="1338.3" cy="830.5" r="5" style="fill:#383A48;"/>
			</g>
		</g>
		<g>
			<g>
				<circle cx="1338.3" cy="855.1" r="5" style="fill:#383A48;"/>
			</g>
		</g>
		<g>
			<g>
				<circle cx="1338.3" cy="879.8" r="5" style="fill:#383A48;"/>
			</g>
		</g>
		<g>
			<g>
				<circle cx="1338.3" cy="904.5" r="5" style="fill:#383A48;"/>
			</g>
		</g>
		<g>
			<g>
				<circle cx="1338.3" cy="929.1" r="5" style="fill:#383A48;"/>
			</g>
		</g>
		<g>
			<g>
				<circle cx="1313.6" cy="707.1" r="5" style="fill:#383A48;"/>
			</g>
		</g>
		<g>
			<g>
				<circle cx="1313.6" cy="731.8" r="5" style="fill:#383A48;"/>
			</g>
		</g>
		<g>
			<g>
				<circle cx="1313.6" cy="756.5" r="5" style="fill:#383A48;"/>
			</g>
		</g>
		<g>
			<g>
				<circle cx="1313.6" cy="781.1" r="5" style="fill:#383A48;"/>
			</g>
		</g>
		<g>
			<g>
				<circle cx="1313.6" cy="805.8" r="5" style="fill:#383A48;"/>
			</g>
		</g>
		<g>
			<g>
				<circle cx="1313.6" cy="830.5" r="5" style="fill:#383A48;"/>
			</g>
		</g>
		<g>
			<g>
				<circle cx="1313.6" cy="855.1" r="5" style="fill:#383A48;"/>
			</g>
		</g>
		<g>
			<g>
				<circle cx="1313.6" cy="879.8" r="5" style="fill:#383A48;"/>
			</g>
		</g>
		<g>
			<g>
				<circle cx="1313.6" cy="904.5" r="5" style="fill:#383A48;"/>
			</g>
		</g>
		<g>
			<g>
				<circle cx="1313.6" cy="929.1" r="5" style="fill:#383A48;"/>
			</g>
		</g>
		<g>
			<g>
				<circle cx="1288.9" cy="707.1" r="5" style="fill:#383A48;"/>
			</g>
		</g>
		<g>
			<g>
				<circle cx="1288.9" cy="731.8" r="5" style="fill:#383A48;"/>
			</g>
		</g>
		<g>
			<g>
				<circle cx="1288.9" cy="756.5" r="5" style="fill:#383A48;"/>
			</g>
		</g>
		<g>
			<g>
				<circle cx="1288.9" cy="781.1" r="5" style="fill:#383A48;"/>
			</g>
		</g>
		<g>
			<g>
				<circle cx="1288.9" cy="805.8" r="5" style="fill:#383A48;"/>
			</g>
		</g>
		<g>
			<g>
				<circle cx="1288.9" cy="830.5" r="5" style="fill:#383A48;"/>
			</g>
		</g>
		<g>
			<g>
				<circle cx="1288.9" cy="855.1" r="5" style="fill:#383A48;"/>
			</g>
		</g>
		<g>
			<g>
				<circle cx="1288.9" cy="879.8" r="5" style="fill:#383A48;"/>
			</g>
		</g>
		<g>
			<g>
				<circle cx="1288.9" cy="904.5" r="5" style="fill:#383A48;"/>
			</g>
		</g>
		<g>
			<g>
				<circle cx="1288.9" cy="929.1" r="5" style="fill:#383A48;"/>
			</g>
		</g>
		<g>
			<g>
				<circle cx="1264.3" cy="707.1" r="5" style="fill:#383A48;"/>
			</g>
		</g>
		<g>
			<g>
				<circle cx="1264.3" cy="731.8" r="5" style="fill:#383A48;"/>
			</g>
		</g>
		<g>
			<g>
				<circle cx="1264.3" cy="756.5" r="5" style="fill:#383A48;"/>
			</g>
		</g>
		<g>
			<g>
				<circle cx="1264.3" cy="781.1" r="5" style="fill:#383A48;"/>
			</g>
		</g>
		<g>
			<g>
				<circle cx="1264.3" cy="805.8" r="5" style="fill:#383A48;"/>
			</g>
		</g>
		<g>
			<g>
				<circle cx="1264.3" cy="830.5" r="5" style="fill:#383A48;"/>
			</g>
		</g>
		<g>
			<g>
				<circle cx="1264.3" cy="855.1" r="5" style="fill:#383A48;"/>
			</g>
		</g>
		<g>
			<g>
				<circle cx="1264.3" cy="879.8" r="5" style="fill:#383A48;"/>
			</g>
		</g>
		<g>
			<g>
				<circle cx="1264.3" cy="904.5" r="5" style="fill:#383A48;"/>
			</g>
		</g>
		<g>
			<g>
				<circle cx="1264.3" cy="929.1" r="5" style="fill:#383A48;"/>
			</g>
		</g>
		<g>
			<g>
				<circle cx="1239.6" cy="707.1" r="5" style="fill:#383A48;"/>
			</g>
		</g>
		<g>
			<g>
				<circle cx="1239.6" cy="731.8" r="5" style="fill:#383A48;"/>
			</g>
		</g>
		<g>
			<g>
				<circle cx="1239.6" cy="756.5" r="5" style="fill:#383A48;"/>
			</g>
		</g>
		<g>
			<g>
				<circle cx="1239.6" cy="781.1" r="5" style="fill:#383A48;"/>
			</g>
		</g>
		<g>
			<g>
				<circle cx="1239.6" cy="805.8" r="5" style="fill:#383A48;"/>
			</g>
		</g>
		<g>
			<g>
				<circle cx="1239.6" cy="830.5" r="5" style="fill:#383A48;"/>
			</g>
		</g>
		<g>
			<g>
				<circle cx="1239.6" cy="855.1" r="5" style="fill:#383A48;"/>
			</g>
		</g>
		<g>
			<g>
				<circle cx="1239.6" cy="879.8" r="5" style="fill:#383A48;"/>
			</g>
		</g>
		<g>
			<g>
				<circle cx="1239.6" cy="904.5" r="5" style="fill:#383A48;"/>
			</g>
		</g>
		<g>
			<g>
				<circle cx="1239.6" cy="929.1" r="5" style="fill:#383A48;"/>
			</g>
		</g>
		<g>
			<g>
				<circle cx="1214.9" cy="707.1" r="5" style="fill:#383A48;"/>
			</g>
		</g>
		<g>
			<g>
				<circle cx="1214.9" cy="731.8" r="5" style="fill:#383A48;"/>
			</g>
		</g>
		<g>
			<g>
				<circle cx="1214.9" cy="756.5" r="5" style="fill:#383A48;"/>
			</g>
		</g>
		<g>
			<g>
				<circle cx="1214.9" cy="781.1" r="5" style="fill:#383A48;"/>
			</g>
		</g>
		<g>
			<g>
				<circle cx="1214.9" cy="805.8" r="5" style="fill:#383A48;"/>
			</g>
		</g>
		<g>
			<g>
				<circle cx="1214.9" cy="830.5" r="5" style="fill:#383A48;"/>
			</g>
		</g>
		<g>
			<g>
				<circle cx="1214.9" cy="855.1" r="5" style="fill:#383A48;"/>
			</g>
		</g>
		<g>
			<g>
				<circle cx="1214.9" cy="879.8" r="5" style="fill:#383A48;"/>
			</g>
		</g>
		<g>
			<g>
				<circle cx="1214.9" cy="904.5" r="5" style="fill:#383A48;"/>
			</g>
		</g>
		<g>
			<g>
				<circle cx="1214.9" cy="929.1" r="5" style="fill:#383A48;"/>
			</g>
		</g>
		<g>
			<g>
				<circle cx="1190.3" cy="707.1" r="5" style="fill:#383A48;"/>
			</g>
		</g>
		<g>
			<g>
				<circle cx="1190.3" cy="731.8" r="5" style="fill:#383A48;"/>
			</g>
		</g>
		<g>
			<g>
				<circle cx="1190.3" cy="756.5" r="5" style="fill:#383A48;"/>
			</g>
		</g>
		<g>
			<g>
				<circle cx="1190.3" cy="781.1" r="5" style="fill:#383A48;"/>
			</g>
		</g>
		<g>
			<g>
				<circle cx="1190.3" cy="805.8" r="5" style="fill:#383A48;"/>
			</g>
		</g>
		<g>
			<g>
				<circle cx="1190.3" cy="830.5" r="5" style="fill:#383A48;"/>
			</g>
		</g>
		<g>
			<g>
				<circle cx="1190.3" cy="855.1" r="5" style="fill:#383A48;"/>
			</g>
		</g>
		<g>
			<g>
				<circle cx="1190.3" cy="879.8" r="5" style="fill:#383A48;"/>
			</g>
		</g>
		<g>
			<g>
				<circle cx="1190.3" cy="904.5" r="5" style="fill:#383A48;"/>
			</g>
		</g>
		<g>
			<g>
				<circle cx="1190.3" cy="929.1" r="5" style="fill:#383A48;"/>
			</g>
		</g>
		<g>
			<g>
				<circle cx="1165.6" cy="707.1" r="5" style="fill:#383A48;"/>
			</g>
		</g>
		<g>
			<g>
				<circle cx="1165.6" cy="731.8" r="5" style="fill:#383A48;"/>
			</g>
		</g>
		<g>
			<g>
				<circle cx="1165.6" cy="756.5" r="5" style="fill:#383A48;"/>
			</g>
		</g>
		<g>
			<g>
				<circle cx="1165.6" cy="781.1" r="5" style="fill:#383A48;"/>
			</g>
		</g>
		<g>
			<g>
				<circle cx="1165.6" cy="805.8" r="5" style="fill:#383A48;"/>
			</g>
		</g>
		<g>
			<g>
				<circle cx="1165.6" cy="830.5" r="5" style="fill:#383A48;"/>
			</g>
		</g>
		<g>
			<g>
				<circle cx="1165.6" cy="855.1" r="5" style="fill:#383A48;"/>
			</g>
		</g>
		<g>
			<g>
				<circle cx="1165.6" cy="879.8" r="5" style="fill:#383A48;"/>
			</g>
		</g>
		<g>
			<g>
				<circle cx="1165.6" cy="904.5" r="5" style="fill:#383A48;"/>
			</g>
		</g>
		<g>
			<g>
				<circle cx="1165.6" cy="929.1" r="5" style="fill:#383A48;"/>
			</g>
		</g>
		<g>
			<g>
				<circle cx="1140.9" cy="707.1" r="5" style="fill:#383A48;"/>
			</g>
		</g>
		<g>
			<g>
				<circle cx="1140.9" cy="731.8" r="5" style="fill:#383A48;"/>
			</g>
		</g>
		<g>
			<g>
				<circle cx="1140.9" cy="756.5" r="5" style="fill:#383A48;"/>
			</g>
		</g>
		<g>
			<g>
				<circle cx="1140.9" cy="781.1" r="5" style="fill:#383A48;"/>
			</g>
		</g>
		<g>
			<g>
				<circle cx="1140.9" cy="805.8" r="5" style="fill:#383A48;"/>
			</g>
		</g>
		<g>
			<g>
				<circle cx="1140.9" cy="830.5" r="5" style="fill:#383A48;"/>
			</g>
		</g>
		<g>
			<g>
				<circle cx="1140.9" cy="855.1" r="5" style="fill:#383A48;"/>
			</g>
		</g>
		<g>
			<g>
				<circle cx="1140.9" cy="879.8" r="5" style="fill:#383A48;"/>
			</g>
		</g>
		<g>
			<g>
				<circle cx="1140.9" cy="904.5" r="5" style="fill:#383A48;"/>
			</g>
		</g>
		<g>
			<g>
				<circle cx="1140.9" cy="929.1" r="5" style="fill:#383A48;"/>
			</g>
		</g>
		<g>
			<g>
				<circle cx="1116.3" cy="707.1" r="5" style="fill:#383A48;"/>
			</g>
		</g>
		<g>
			<g>
				<circle cx="1116.3" cy="731.8" r="5" style="fill:#383A48;"/>
			</g>
		</g>
		<g>
			<g>
				<circle cx="1116.3" cy="756.5" r="5" style="fill:#383A48;"/>
			</g>
		</g>
		<g>
			<g>
				<circle cx="1116.3" cy="781.1" r="5" style="fill:#383A48;"/>
			</g>
		</g>
		<g>
			<g>
				<circle cx="1116.3" cy="805.8" r="5" style="fill:#383A48;"/>
			</g>
		</g>
		<g>
			<g>
				<circle cx="1116.3" cy="830.5" r="5" style="fill:#383A48;"/>
			</g>
		</g>
		<g>
			<g>
				<circle cx="1116.3" cy="855.1" r="5" style="fill:#383A48;"/>
			</g>
		</g>
		<g>
			<g>
				<circle cx="1116.3" cy="879.8" r="5" style="fill:#383A48;"/>
			</g>
		</g>
		<g>
			<g>
				<circle cx="1116.3" cy="904.5" r="5" style="fill:#383A48;"/>
			</g>
		</g>
		<g>
			<g>
				<circle cx="1116.3" cy="929.1" r="5" style="fill:#383A48;"/>
			</g>
		</g>
	</g>
	<g id="XMLID_28_">
		<circle cx="1534.6" cy="330.1" r="177" style="fill:#E0719E;"/>
		<path d="M1534.6,512.1c-100.4,0-182-81.6-182-182s81.6-182,182-182s182,81.6,182,182S1635,512.1,1534.6,512.1z
			 M1534.6,158.1c-94.8,0-172,77.2-172,172s77.2,172,172,172s172-77.2,172-172S1629.4,158.1,1534.6,158.1z" style="fill:#383A48;"/>
	</g>
	<g>
		<g>
			<polygon points="1491,770.7 1395.3,770.7 1388.5,672.9 1422.5,667.5 			" style="fill:#F3F6E6;"/>
			<path d="M1491,775.7h-95.7c-2.6,0-4.8-2-5-4.7l-6.8-97.8c-0.2-2.6,1.7-4.9,4.2-5.3l34-5.3c1.9-0.3,3.9,0.5,4.9,2.2
				l68.5,103.2c1,1.5,1.1,3.5,0.2,5.1C1494.6,774.7,1492.9,775.7,1491,775.7z M1400,765.7h81.7l-61.6-92.7l-26.3,4.1L1400,765.7z" style="fill:#383A48;"/>
		</g>
		<g>
			<g>
				<g>
					<path d="M1569.6,330.1v362.1c0,43.3-35.2,78.6-78.6,78.6c-27.2,0-51.2-13.9-65.4-35c-8.3-12.5-13.2-27.5-13.2-43.6
						V686c0-4.7-3.9-8.6-8.6-8.6s-8.6,3.8-8.6,8.6v142h-308v-53.9l238-88.2c0-43.3,35.2-78.6,78.6-78.6c43.3,0,78.6,35.2,78.6,78.6
						v6.2c0,4.7,3.8,8.6,8.6,8.6s8.6-3.9,8.6-8.6v-362H1569.6z" style="fill:#F3F6E6;"/>
					<path d="M1395.3,832.9h-308c-2.8,0-5-2.2-5-5V774c0-2.1,1.3-4,3.3-4.7l234.8-87c1.8-44.5,38.6-80.1,83.5-80.1
						c46.1,0,83.6,37.5,83.6,83.6v6.2c0,2,1.6,3.6,3.6,3.6s3.6-1.6,3.6-3.6V330c0-2.8,2.2-5,5-5h70c2.8,0,5,2.2,5,5v362
						c0,46.1-37.5,83.6-83.6,83.6c-27.9,0-53.9-13.9-69.5-37.2c-9.2-13.8-14.1-29.8-14.1-46.3v-6.2c0-2-1.6-3.6-3.6-3.6
						s-3.6,1.6-3.6,3.6V828C1400.3,830.7,1398.1,832.9,1395.3,832.9z M1092.3,822.9h298v-137c0-7.5,6.1-13.6,13.6-13.6
						s13.6,6.1,13.6,13.6v6.2c0,14.6,4.3,28.7,12.4,40.8c13.7,20.5,36.6,32.8,61.2,32.8c40.6,0,73.6-33,73.6-73.6v-357h-60v357
						c0,7.5-6.1,13.6-13.6,13.6s-13.6-6.1-13.6-13.6v-6.2c0-40.6-33-73.6-73.6-73.6s-73.6,33-73.6,73.6c0,2.1-1.3,4-3.3,4.7
						l-234.7,87V822.9z" style="fill:#383A48;"/>
				</g>
			</g>
		</g>
		<g>
			<polyline points="1403.9,668.3 1361.1,668.3 1354.7,671.2 1373.7,624.2 1445.7,624.2 1491,735.7 1425.7,735.7 			" style="fill:#383A48;"/>
			<path d="M1491,740.7h-65.4c-2.8,0-5-2.2-5-5s2.2-5,5-5h57.9l-41.3-101.5H1377l-13.8,34.1h40.6c2.8,0,5,2.2,5,5
				s-2.2,5-5,5h-41.7l-5.5,2.5c-1.9,0.8-4,0.4-5.5-1s-1.9-3.6-1.2-5.5l19-47c0.8-1.9,2.6-3.1,4.6-3.1h72c2,0,3.9,1.2,4.6,3.1
				l45.4,111.5c0.6,1.5,0.4,3.3-0.5,4.7S1492.7,740.7,1491,740.7z" style="fill:#383A48;"/>
		</g>
		<g>
			<g>
				<path d="M1231.6,642.5V301h303v391.1c0,24.1-19.5,43.6-43.6,43.6l0,0c-24.1,0-43.6-19.5-43.6-43.6v-6.2
					c0-24.1-19.5-43.6-43.6-43.6l0,0c-24.1,0-43.6,19.5-43.6,43.6v113h-303v-113c0-24.1,19.5-43.6,43.6-43.6l0,0L1231.6,642.5z" style="fill:#F3F6E6;"/>
				<path d="M1360.3,803.9h-303c-2.8,0-5-2.2-5-5v-113c0-26.8,21.8-48.6,48.6-48.6l125.7,0.2V301c0-2.8,2.2-5,5-5h303
					c2.8,0,5,2.2,5,5v391.1c0,26.8-21.8,48.6-48.6,48.6s-48.6-21.8-48.6-48.6v-6.2c0-21.3-17.3-38.6-38.6-38.6s-38.6,17.3-38.6,38.6
					v113C1365.3,801.6,1363.1,803.9,1360.3,803.9z M1062.3,793.9h293v-108c0-26.8,21.8-48.6,48.6-48.6s48.6,21.8,48.6,48.6v6.2
					c0,21.3,17.3,38.6,38.6,38.6s38.6-17.3,38.6-38.6V306h-293v336.5c0,1.3-0.5,2.6-1.5,3.5c-0.9,0.9-2.2,1.5-3.5,1.5l0,0
					l-130.7-0.2c-21.3,0-38.6,17.3-38.6,38.6L1062.3,793.9L1062.3,793.9z" style="fill:#383A48;"/>
			</g>
			<g>
				<path d="M1403.9,647.5h-172.3c-2.8,0-5-2.2-5-5s2.2-5,5-5h172.3c2.8,0,5,2.2,5,5S1406.6,647.5,1403.9,647.5z" style="fill:#383A48;"/>
			</g>
			<g>
				<rect x="1285.6" y="398.2" width="190.9" height="95.2" style="fill:#AAC6FC;"/>
				<path d="M1476.5,498.4h-190.9c-2.8,0-5-2.2-5-5v-95.2c0-2.8,2.2-5,5-5h190.9c2.8,0,5,2.2,5,5v95.2
					C1481.5,496.2,1479.3,498.4,1476.5,498.4z M1290.6,488.4h180.9v-85.2h-180.9V488.4z" style="fill:#383A48;"/>
			</g>
			<g>
				<path d="M1476.5,546.7h-190.9c-2.8,0-5-2.2-5-5s2.2-5,5-5h190.9c2.8,0,5,2.2,5,5S1479.3,546.7,1476.5,546.7z" style="fill:#383A48;"/>
			</g>
			<g>
				<path d="M1476.5,590.2h-190.9c-2.8,0-5-2.2-5-5s2.2-5,5-5h190.9c2.8,0,5,2.2,5,5S1479.3,590.2,1476.5,590.2z" style="fill:#383A48;"/>
			</g>
			<g>
				<path d="M1303.2,682.5h-190.9c-2.8,0-5-2.2-5-5s2.2-5,5-5h190.9c2.8,0,5,2.2,5,5S1306,682.5,1303.2,682.5z" style="fill:#383A48;"/>
			</g>
			<g>
				<path d="M1303.2,726h-190.9c-2.8,0-5-2.2-5-5s2.2-5,5-5h190.9c2.8,0,5,2.2,5,5S1306,726,1303.2,726z" style="fill:#383A48;"/>
			</g>
		</g>
	</g>
	<g>
		<g>
			<path d="M331.7,819.6v-79.3c0-19.7,16-35.7,35.7-35.7h51.1c12.1,0,23.5,6.2,30,16.4l41.5,64.6L331.7,819.6z" style="fill:#F6E049;"/>
			<path d="M331.7,824.6c-1.1,0-2.2-0.4-3.1-1.1c-1.2-1-1.9-2.4-1.9-3.9v-79.3c0-22.4,18.2-40.7,40.7-40.7h51.1
				c13.9,0,26.7,7,34.2,18.7l41.5,64.6c0.9,1.4,1,3.1,0.4,4.6s-2,2.6-3.6,3l-158.2,34C332.4,824.6,332,824.6,331.7,824.6z
				 M367.4,709.6c-16.9,0-30.7,13.8-30.7,30.7v73.1l145.1-31.2l-37.6-58.5c-5.7-8.8-15.3-14.1-25.8-14.1H367.4z" style="fill:#383A48;"/>
		</g>
		<g>
			<path d="M542.4,932.9H388.5c-31.4,0-56.8-25.4-56.8-56.8V802c0-31.4,25.4-56.8,56.8-56.8h153.8
				c31.4,0,56.8,25.4,56.8,56.8v74C599.2,907.4,573.7,932.9,542.4,932.9z" style="fill:#F6E049;"/>
			<path d="M542.4,937.9H388.5c-34.1,0-61.8-27.7-61.8-61.8V802c0-34.1,27.7-61.8,61.8-61.8h153.8
				c34.1,0,61.8,27.7,61.8,61.8v74C604.2,910.1,576.4,937.9,542.4,937.9z M388.5,750.1c-28.6,0-51.8,23.3-51.8,51.8V876
				c0,28.6,23.3,51.8,51.8,51.8h153.8c28.6,0,51.8-23.3,51.8-51.8v-74.1c0-28.6-23.3-51.8-51.8-51.8L388.5,750.1L388.5,750.1z" style="fill:#383A48;"/>
		</g>
		<g>
			<path d="M442,890.2c-2.7,0-5.5-0.9-7.8-2.6c-4.1-3-6.2-8-5.3-13l3-17.5c0.2-1.1-0.2-2.2-1-2.9l-12.7-12.4
				c-3.7-3.6-4.9-8.8-3.4-13.6s5.7-8.3,10.7-9.1l17.6-2.6c1.1-0.2,2-0.8,2.5-1.8l7.9-15.9c2.3-4.6,6.8-7.4,11.9-7.4
				s9.7,2.8,11.9,7.4l0,0l7.9,15.9c0.5,1,1.4,1.7,2.5,1.8l17.6,2.6c5,0.7,9.2,4.2,10.7,9.1c1.6,4.9,0.3,10.1-3.4,13.6l-12.7,12.4
				c-0.8,0.8-1.1,1.9-1,2.9l3,17.5c0.9,5-1.2,10-5.3,13s-9.5,3.4-14,1l-15.7-8.3c-1-0.5-2.1-0.5-3.1,0l-15.7,8.3
				C446.2,889.7,444.1,890.2,442,890.2z M465.4,801.4c-0.6,0-2.1,0.2-3,1.8l-7.9,15.9c-1.9,3.9-5.7,6.6-10,7.3L427,829
				c-1.8,0.3-2.5,1.7-2.7,2.2s-0.5,2.1,0.8,3.4l12.7,12.4c3.1,3.1,4.6,7.5,3.8,11.8l-3,17.5c-0.3,1.8,0.8,2.9,1.3,3.2
				c0.5,0.4,1.8,1.1,3.5,0.3l15.7-8.3c3.9-2,8.5-2,12.4,0l15.7,8.3c1.6,0.9,3,0.1,3.5-0.3c0.5-0.4,1.6-1.4,1.3-3.2l-3-17.5
				c-0.7-4.3,0.7-8.7,3.8-11.8l12.7-12.4c1.3-1.3,1-2.8,0.8-3.4c-0.2-0.6-0.8-2-2.7-2.2l-17.6-2.6c-4.3-0.6-8.1-3.4-10-7.3
				l-7.9-15.9C467.6,801.6,466.1,801.4,465.4,801.4z" style="fill:#383A48;"/>
		</g>
	</g>
	<g>
		<path d="M1282.8,237c-1.8,0-3.5-1-4.4-2.6c-20.1-37.4-40.8-33.8-57.4-30.9c-10.7,1.9-24,4.2-27.6-12.6
			c-3.6-17-10.5-28.5-21.1-35.1c-13-8.1-32.3-8.9-57.3-2.4c-2.7,0.7-5.4-0.9-6.1-3.6c-0.7-2.7,0.9-5.4,3.6-6.1
			c27.7-7.2,49.6-6,65,3.5c13.1,8.1,21.4,21.7,25.6,41.5c1.4,6.6,3.2,7.1,16,4.8c17.7-3.1,44.4-7.8,68,36c1.3,2.4,0.4,5.5-2,6.8
			C1284.4,236.8,1283.6,237,1282.8,237z" style="fill:#383A48;"/>
	</g>
	<g>
		<path d="M712,854c-13.5,0-27.6-1.1-41.9-3.5c-2.7-0.4-4.6-3-4.1-5.7c0.4-2.7,3-4.6,5.7-4.1
			c38.1,6.1,73.7,3.8,102.9-6.8c32.4-11.7,56.3-32.9,71.2-63c4.8-9.8,7.9-21.1,8.8-30.9c-2.3,0.4-4.7,0.6-7.1,0.7
			c-7,0.3-12.8-2.4-16-7.5c-3.1-4.9-3.2-11.2-0.3-16.4c3.1-5.5,8.9-8.7,16.1-8.7c5.7,0,10.3,2.6,13.4,7.6c1.9,3.1,3.1,7,3.8,11.4
			c11.9-4.4,22.8-12.7,31.2-24c14.2-19.2,19.5-43.7,14.1-65.8c-0.7-2.7,1-5.4,3.7-6c2.7-0.7,5.4,1,6,3.7
			c6.1,24.9,0.2,52.6-15.8,74.1c-10.3,13.8-23.9,23.7-38.8,28.5c-0.6,12.5-4.5,26.6-10.1,37.8c-16.1,32.5-41.9,55.3-76.8,67.9
			C758.3,850.4,735.9,854,712,854z M847.3,718.1c-3.5,0-6.1,1.3-7.3,3.5c-1.1,2-1.1,4.4,0.1,6.2c1.3,2,3.7,3,7,2.8
			c2.6-0.1,5.1-0.4,7.7-0.9c-0.4-3.6-1.2-6.7-2.5-8.8C851,719,849.4,718.1,847.3,718.1z" style="fill:#383A48;"/>
	</g>
	<g>
		<g>
			<rect x="339.6" y="258.4" width="519.1" height="374.8" style="fill:#F3F6E6;"/>
			<path d="M858.7,638.2H339.6c-2.8,0-5-2.2-5-5V258.4c0-2.8,2.2-5,5-5h519.1c2.8,0,5,2.2,5,5v374.8
				C863.7,636,861.5,638.2,858.7,638.2z M344.6,628.2h509.1V263.4H344.6V628.2z" style="fill:#383A48;"/>
		</g>
		<g>
			<rect x="384.7" y="301" width="429" height="289.5" style="fill:#F3F6E6;"/>
			<path d="M813.7,595.5h-429c-2.8,0-5-2.2-5-5V301c0-2.8,2.2-5,5-5h429c2.8,0,5,2.2,5,5v289.5
				C818.7,593.3,816.5,595.5,813.7,595.5z M389.7,585.5h419V306h-419V585.5z" style="fill:#AAC6FC;"/>
		</g>
		<g>
			<path d="M522.1,517.6l-2.1-33.7h-44.6l-16.1,33.7H424L504.7,355h42.8l15,162.6H522.1z M509.2,410.6l-21.7,44.2h33
				l-2.6-44.2l0.2-19.2h-1.8L509.2,410.6z" style="fill:#383A48;"/>
		</g>
		<g>
			<path d="M759.3,359.1h-142c-2.8,0-5-2.2-5-5s2.2-5,5-5h142c2.8,0,5,2.2,5,5S762.1,359.1,759.3,359.1z" style="fill:#383A48;"/>
		</g>
		<g>
			<path d="M759.3,398.1h-142c-2.8,0-5-2.2-5-5s2.2-5,5-5h142c2.8,0,5,2.2,5,5S762.1,398.1,759.3,398.1z" style="fill:#383A48;"/>
		</g>
		<g>
			<path d="M759.3,437.1h-142c-2.8,0-5-2.2-5-5s2.2-5,5-5h142c2.8,0,5,2.2,5,5S762.1,437.1,759.3,437.1z" style="fill:#383A48;"/>
		</g>
		<g>
			<circle cx="721.6" cy="514.6" r="34.6" style="fill:#F6E049;"/>
		</g>
	</g>
	<g>
		<g>
			<path d="M688.3,701.8c-2.8,0-5-2.2-5-5V678c0-2.8,2.2-5,5-5s5,2.2,5,5v18.8C693.3,699.5,691.1,701.8,688.3,701.8z" style="fill:#383A48;"/>
		</g>
		<g>
			<path d="M688.3,769.1c-2.8,0-5-2.2-5-5v-18.8c0-2.8,2.2-5,5-5s5,2.2,5,5v18.8C693.3,766.9,691.1,769.1,688.3,769.1z" style="fill:#383A48;"/>
		</g>
		<g>
			<path d="M664,726h-18.8c-2.8,0-5-2.2-5-5s2.2-5,5-5H664c2.8,0,5,2.2,5,5S666.8,726,664,726z" style="fill:#383A48;"/>
		</g>
		<g>
			<path d="M731.4,726h-18.8c-2.8,0-5-2.2-5-5s2.2-5,5-5h18.8c2.8,0,5,2.2,5,5S734.1,726,731.4,726z" style="fill:#383A48;"/>
		</g>
		<g>
			<path d="M671.1,708.9c-1.3,0-2.6-0.5-3.5-1.5l-13.3-13.3c-2-2-2-5.1,0-7.1s5.1-2,7.1,0l13.3,13.3c2,2,2,5.1,0,7.1
				C673.7,708.4,672.4,708.9,671.1,708.9z" style="fill:#383A48;"/>
		</g>
		<g>
			<path d="M718.7,756.5c-1.3,0-2.6-0.5-3.5-1.5l-13.3-13.3c-2-2-2-5.1,0-7.1s5.1-2,7.1,0l13.3,13.3c2,2,2,5.1,0,7.1
				C721.3,756,720,756.5,718.7,756.5z" style="fill:#383A48;"/>
		</g>
		<g>
			<path d="M657.9,756.5c-1.3,0-2.6-0.5-3.5-1.5c-2-2-2-5.1,0-7.1l13.3-13.3c2-2,5.1-2,7.1,0s2,5.1,0,7.1L661.4,755
				C660.4,756,659.1,756.5,657.9,756.5z" style="fill:#383A48;"/>
		</g>
		<g>
			<path d="M705.5,708.9c-1.3,0-2.6-0.5-3.5-1.5c-2-2-2-5.1,0-7.1l13.3-13.3c2-2,5.1-2,7.1,0s2,5.1,0,7.1L709,707.4
				C708,708.4,706.7,708.9,705.5,708.9z" style="fill:#383A48;"/>
		</g>
	</g>
	<g>
		<g>
			<line x1="1159.3" y1="550.9" x2="1182.6" y2="574.2" style="fill:none;"/>
			
				<rect x="1165.9" y="546.1" transform="matrix(0.7071 -0.7071 0.7071 0.7071 -54.8821 992.7792)" width="10" height="33" style="fill:#383A48;"/>
		</g>
		<g>
			<line x1="1159.3" y1="574.2" x2="1182.6" y2="550.9" style="fill:none;"/>
			
				<rect x="1154.4" y="557.5" transform="matrix(0.7071 -0.7071 0.7071 0.7071 -54.7666 992.7239)" width="33" height="10" style="fill:#383A48;"/>
		</g>
	</g>
	<g>
		<g>
			<line x1="422.9" y1="190.3" x2="446.2" y2="213.6" style="fill:none;"/>
			
				<rect x="429.5" y="185.4" transform="matrix(0.7071 -0.7071 0.7071 0.7071 -15.5346 366.3781)" width="10" height="33" style="fill:#383A48;"/>
		</g>
		<g>
			<line x1="422.9" y1="213.6" x2="446.2" y2="190.3" style="fill:none;"/>
			
				<rect x="418.1" y="196.9" transform="matrix(0.7071 -0.7071 0.7071 0.7071 -15.4639 366.4073)" width="33" height="10" style="fill:#383A48;"/>
		</g>
	</g>
</g>
</svg>
