<?xml version="1.0" encoding="UTF-8"?>
<svg width="1514px" height="802px" viewBox="0 0 1514 802" version="1.1" xmlns="http://www.w3.org/2000/svg" xmlns:xlink="http://www.w3.org/1999/xlink">
    <!-- Generator: Sketch 59.1 (86144) - https://sketch.com -->
    <title>document-flow</title>
    <desc>Created with Sketch.</desc>
    <g id="Page-1" stroke="none" stroke-width="1" fill="none" fill-rule="evenodd">
        <g id="document-flow" transform="translate(-203.000000, -139.000000)">
            <g id="Group" transform="translate(203.000000, 139.000000)">
                <path d="M1367.3,524.9 C1366.1,524.7 1243.7,507 1120,499.7 C1047.2,495.4 988.2,495.4 944.5,499.8 C887.2,505.6 856.4,518.8 850.2,540.1 C824,631 792.8,691.5 751.9,730.7 C714.2,766.8 667.9,785.7 601.7,791.9 C599,792.2 597.1,794.4 597.196231,797.1 C597.3,799.8 599.5,801.9 602.2,801.9 L1366.6,801.9 C1369.4,801.9 1371.6,799.7 1371.6,796.9 L1371.6,529.8 C1371.6,527.3 1369.8,525.2 1367.3,524.9 Z" id="Path" fill="#F3F6E6" fill-rule="nonzero"></path>
                <path d="M914,52.6 L456.3,52.6 C453.5,52.6 451.3,54.8 451.3,57.6 L451.3,388.1 C451.3,390.9 453.5,393.1 456.3,393.1 L914,393.1 C916.8,393.1 919,390.9 919,388.1 L919,57.6 C919,54.9 916.7,52.6 914,52.6 Z" id="Path" fill="#383A48" fill-rule="nonzero"></path>
                <g transform="translate(411.000000, 10.000000)" fill-rule="nonzero">
                    <g>
                        <rect id="Rectangle" fill="#F3F6E6" x="5.2" y="5.8" width="457.7" height="330.5"></rect>
                        <path d="M462.9,341.3 L5.2,341.3 C2.4,341.3 0.2,339.1 0.2,336.3 L0.2,5.8 C0.2,3 2.4,0.8 5.2,0.8 L462.9,0.8 C465.7,0.8 467.9,3 467.9,5.8 L467.9,336.3 C467.9,339.1 465.7,341.3 462.9,341.3 Z M10.2,331.3 L457.9,331.3 L457.9,10.8 L10.2,10.8 L10.2,331.3 Z" id="Shape" fill="#383A48"></path>
                    </g>
                    <g transform="translate(34.000000, 42.000000)">
                        <rect id="Rectangle" fill="#F3F6E6" x="5" y="5.6" width="390.1" height="246.9"></rect>
                        <path d="M395.1,257.5 L5,257.5 C2.2,257.5 0,255.3 0,252.5 L0,5.6 C0,2.8 2.2,0.6 5,0.6 L395.1,0.6 C397.9,0.6 400.1,2.8 400.1,5.6 L400.1,252.5 C400.1,255.3 397.9,257.5 395.1,257.5 Z M10,247.5 L390.1,247.5 L390.1,10.6 L10,10.6 L10,247.5 Z" id="Shape" fill="#383A48"></path>
                    </g>
                    <g transform="translate(304.000000, 0.000000)">
                        <polygon id="Path" fill="#E0719E" points="93.7 162.6 49.7 120.6 5.7 162.6 5.7 5.8 93.7 5.8"></polygon>
                        <path d="M93.7,167.6 C92.4,167.6 91.2,167.1 90.2,166.2 L49.7,127.5 L9.2,166.2 C7.8,167.6 5.6,168 3.8,167.2 C2,166.4 0.8,164.6 0.8,162.6 L0.8,5.8 C0.8,3 3,0.8 5.8,0.8 L93.8,0.8 C96.6,0.8 98.8,3 98.8,5.8 L98.8,162.6 C98.8,164.6 97.6,166.4 95.8,167.2 C95,167.5 94.3,167.6 93.7,167.6 Z M49.7,115.6 C50.9,115.6 52.2,116.1 53.2,117 L88.7,150.9 L88.7,10.8 L10.7,10.8 L10.7,150.9 L46.2,117 C47.2,116.1 48.4,115.6 49.7,115.6 Z" id="Shape" fill="#383A48"></path>
                    </g>
                </g>
                <path d="M406.6,14.8 C406.1,12.5 404.1,10.8 401.7,10.8 L5.4,10.8 C2.6,10.8 0.4,13 0.4,15.8 L0.4,793.9 C0.4,796.5 2.3,798.6 4.9,798.9 C5.1,798.9 5.3,798.9 5.4,798.9 C7.7,798.9 9.8,797.3 10.3,794.9 C51.4,600.5 91.1,555.7 151.1,487.8 C169.3,467.3 189.8,444 212.6,414 C251.2,363.1 254.9,305.2 258.5,249.2 C261.4,204.6 264.1,162.6 282.8,123.4 C304.1,79.2 342.4,46.4 403.6,20.4 C405.8,19.5 407.1,17.1 406.6,14.8 Z" id="Path" fill="#F3F6E6" fill-rule="nonzero"></path>
                <g transform="translate(908.000000, 563.000000)" fill="#383A48" fill-rule="nonzero" id="Oval">
                    <circle cx="449.3" cy="5.1" r="5"></circle>
                    <circle cx="449.3" cy="29.8" r="5"></circle>
                    <circle cx="449.3" cy="54.5" r="5"></circle>
                    <circle cx="449.3" cy="79.1" r="5"></circle>
                    <circle cx="449.3" cy="103.8" r="5"></circle>
                    <circle cx="449.3" cy="128.5" r="5"></circle>
                    <circle cx="449.3" cy="153.1" r="5"></circle>
                    <circle cx="449.3" cy="177.8" r="5"></circle>
                    <circle cx="449.3" cy="202.5" r="5"></circle>
                    <circle cx="449.3" cy="227.1" r="5"></circle>
                    <circle cx="424.6" cy="5.1" r="5"></circle>
                    <circle cx="424.6" cy="29.8" r="5"></circle>
                    <circle cx="424.6" cy="54.5" r="5"></circle>
                    <circle cx="424.6" cy="79.1" r="5"></circle>
                    <circle cx="424.6" cy="103.8" r="5"></circle>
                    <circle cx="424.6" cy="128.5" r="5"></circle>
                    <circle cx="424.6" cy="153.1" r="5"></circle>
                    <circle cx="424.6" cy="177.8" r="5"></circle>
                    <circle cx="424.6" cy="202.5" r="5"></circle>
                    <circle cx="424.6" cy="227.1" r="5"></circle>
                    <circle cx="399.9" cy="5.1" r="5"></circle>
                    <circle cx="399.9" cy="29.8" r="5"></circle>
                    <circle cx="399.9" cy="54.5" r="5"></circle>
                    <circle cx="399.9" cy="79.1" r="5"></circle>
                    <circle cx="399.9" cy="103.8" r="5"></circle>
                    <circle cx="399.9" cy="128.5" r="5"></circle>
                    <circle cx="399.9" cy="153.1" r="5"></circle>
                    <circle cx="399.9" cy="177.8" r="5"></circle>
                    <circle cx="399.9" cy="202.5" r="5"></circle>
                    <circle cx="399.9" cy="227.1" r="5"></circle>
                    <circle cx="375.3" cy="5.1" r="5"></circle>
                    <circle cx="375.3" cy="29.8" r="5"></circle>
                    <circle cx="375.3" cy="54.5" r="5"></circle>
                    <circle cx="375.3" cy="79.1" r="5"></circle>
                    <circle cx="375.3" cy="103.8" r="5"></circle>
                    <circle cx="375.3" cy="128.5" r="5"></circle>
                    <circle cx="375.3" cy="153.1" r="5"></circle>
                    <circle cx="375.3" cy="177.8" r="5"></circle>
                    <circle cx="375.3" cy="202.5" r="5"></circle>
                    <circle cx="375.3" cy="227.1" r="5"></circle>
                    <circle cx="350.6" cy="5.1" r="5"></circle>
                    <circle cx="350.6" cy="29.8" r="5"></circle>
                    <circle cx="350.6" cy="54.5" r="5"></circle>
                    <circle cx="350.6" cy="79.1" r="5"></circle>
                    <circle cx="350.6" cy="103.8" r="5"></circle>
                    <circle cx="350.6" cy="128.5" r="5"></circle>
                    <circle cx="350.6" cy="153.1" r="5"></circle>
                    <circle cx="350.6" cy="177.8" r="5"></circle>
                    <circle cx="350.6" cy="202.5" r="5"></circle>
                    <circle cx="350.6" cy="227.1" r="5"></circle>
                    <circle cx="325.9" cy="5.1" r="5"></circle>
                    <circle cx="325.9" cy="29.8" r="5"></circle>
                    <circle cx="325.9" cy="54.5" r="5"></circle>
                    <circle cx="325.9" cy="79.1" r="5"></circle>
                    <circle cx="325.9" cy="103.8" r="5"></circle>
                    <circle cx="325.9" cy="128.5" r="5"></circle>
                    <circle cx="325.9" cy="153.1" r="5"></circle>
                    <circle cx="325.9" cy="177.8" r="5"></circle>
                    <circle cx="325.9" cy="202.5" r="5"></circle>
                    <circle cx="325.9" cy="227.1" r="5"></circle>
                    <circle cx="301.3" cy="5.1" r="5"></circle>
                    <circle cx="301.3" cy="29.8" r="5"></circle>
                    <circle cx="301.3" cy="54.5" r="5"></circle>
                    <circle cx="301.3" cy="79.1" r="5"></circle>
                    <circle cx="301.3" cy="103.8" r="5"></circle>
                    <circle cx="301.3" cy="128.5" r="5"></circle>
                    <circle cx="301.3" cy="153.1" r="5"></circle>
                    <circle cx="301.3" cy="177.8" r="5"></circle>
                    <circle cx="301.3" cy="202.5" r="5"></circle>
                    <circle cx="301.3" cy="227.1" r="5"></circle>
                    <circle cx="276.6" cy="5.1" r="5"></circle>
                    <circle cx="276.6" cy="29.8" r="5"></circle>
                    <circle cx="276.6" cy="54.5" r="5"></circle>
                    <circle cx="276.6" cy="79.1" r="5"></circle>
                    <circle cx="276.6" cy="103.8" r="5"></circle>
                    <circle cx="276.6" cy="128.5" r="5"></circle>
                    <circle cx="276.6" cy="153.1" r="5"></circle>
                    <circle cx="276.6" cy="177.8" r="5"></circle>
                    <circle cx="276.6" cy="202.5" r="5"></circle>
                    <circle cx="276.6" cy="227.1" r="5"></circle>
                    <circle cx="251.9" cy="5.1" r="5"></circle>
                    <circle cx="251.9" cy="29.8" r="5"></circle>
                    <circle cx="251.9" cy="54.5" r="5"></circle>
                    <circle cx="251.9" cy="79.1" r="5"></circle>
                    <circle cx="251.9" cy="103.8" r="5"></circle>
                    <circle cx="251.9" cy="128.5" r="5"></circle>
                    <circle cx="251.9" cy="153.1" r="5"></circle>
                    <circle cx="251.9" cy="177.8" r="5"></circle>
                    <circle cx="251.9" cy="202.5" r="5"></circle>
                    <circle cx="251.9" cy="227.1" r="5"></circle>
                    <circle cx="227.3" cy="5.1" r="5"></circle>
                    <circle cx="227.3" cy="29.8" r="5"></circle>
                    <circle cx="227.3" cy="54.5" r="5"></circle>
                    <circle cx="227.3" cy="79.1" r="5"></circle>
                    <circle cx="227.3" cy="103.8" r="5"></circle>
                    <circle cx="227.3" cy="128.5" r="5"></circle>
                    <circle cx="227.3" cy="153.1" r="5"></circle>
                    <circle cx="227.3" cy="177.8" r="5"></circle>
                    <circle cx="227.3" cy="202.5" r="5"></circle>
                    <circle cx="227.3" cy="227.1" r="5"></circle>
                    <circle cx="202.6" cy="5.1" r="5"></circle>
                    <circle cx="202.6" cy="29.8" r="5"></circle>
                    <circle cx="202.6" cy="54.5" r="5"></circle>
                    <circle cx="202.6" cy="79.1" r="5"></circle>
                    <circle cx="202.6" cy="103.8" r="5"></circle>
                    <circle cx="202.6" cy="128.5" r="5"></circle>
                    <circle cx="202.6" cy="153.1" r="5"></circle>
                    <circle cx="202.6" cy="177.8" r="5"></circle>
                    <circle cx="202.6" cy="202.5" r="5"></circle>
                    <circle cx="202.6" cy="227.1" r="5"></circle>
                    <circle cx="177.9" cy="5.1" r="5"></circle>
                    <circle cx="177.9" cy="29.8" r="5"></circle>
                    <circle cx="177.9" cy="54.5" r="5"></circle>
                    <circle cx="177.9" cy="79.1" r="5"></circle>
                    <circle cx="177.9" cy="103.8" r="5"></circle>
                    <circle cx="177.9" cy="128.5" r="5"></circle>
                    <circle cx="177.9" cy="153.1" r="5"></circle>
                    <circle cx="177.9" cy="177.8" r="5"></circle>
                    <circle cx="177.9" cy="202.5" r="5"></circle>
                    <circle cx="177.9" cy="227.1" r="5"></circle>
                    <circle cx="153.3" cy="5.1" r="5"></circle>
                    <circle cx="153.3" cy="29.8" r="5"></circle>
                    <circle cx="153.3" cy="54.5" r="5"></circle>
                    <circle cx="153.3" cy="79.1" r="5"></circle>
                    <circle cx="153.3" cy="103.8" r="5"></circle>
                    <circle cx="153.3" cy="128.5" r="5"></circle>
                    <circle cx="153.3" cy="153.1" r="5"></circle>
                    <circle cx="153.3" cy="177.8" r="5"></circle>
                    <circle cx="153.3" cy="202.5" r="5"></circle>
                    <circle cx="153.3" cy="227.1" r="5"></circle>
                    <circle cx="128.6" cy="5.1" r="5"></circle>
                    <circle cx="128.6" cy="29.8" r="5"></circle>
                    <circle cx="128.6" cy="54.5" r="5"></circle>
                    <circle cx="128.6" cy="79.1" r="5"></circle>
                    <circle cx="128.6" cy="103.8" r="5"></circle>
                    <circle cx="128.6" cy="128.5" r="5"></circle>
                    <circle cx="128.6" cy="153.1" r="5"></circle>
                    <circle cx="128.6" cy="177.8" r="5"></circle>
                    <circle cx="128.6" cy="202.5" r="5"></circle>
                    <circle cx="128.6" cy="227.1" r="5"></circle>
                    <circle cx="103.9" cy="5.1" r="5"></circle>
                    <circle cx="103.9" cy="29.8" r="5"></circle>
                    <circle cx="103.9" cy="54.5" r="5"></circle>
                    <circle cx="103.9" cy="79.1" r="5"></circle>
                    <circle cx="103.9" cy="103.8" r="5"></circle>
                    <circle cx="103.9" cy="128.5" r="5"></circle>
                    <circle cx="103.9" cy="153.1" r="5"></circle>
                    <circle cx="103.9" cy="177.8" r="5"></circle>
                    <circle cx="103.9" cy="202.5" r="5"></circle>
                    <circle cx="103.9" cy="227.1" r="5"></circle>
                    <circle cx="79.3" cy="5.1" r="5"></circle>
                    <circle cx="79.3" cy="29.8" r="5"></circle>
                    <circle cx="79.3" cy="54.5" r="5"></circle>
                    <circle cx="79.3" cy="79.1" r="5"></circle>
                    <circle cx="79.3" cy="103.8" r="5"></circle>
                    <circle cx="79.3" cy="128.5" r="5"></circle>
                    <circle cx="79.3" cy="153.1" r="5"></circle>
                    <circle cx="79.3" cy="177.8" r="5"></circle>
                    <circle cx="79.3" cy="202.5" r="5"></circle>
                    <circle cx="79.3" cy="227.1" r="5"></circle>
                    <circle cx="54.6" cy="5.1" r="5"></circle>
                    <circle cx="54.6" cy="29.8" r="5"></circle>
                    <circle cx="54.6" cy="54.5" r="5"></circle>
                    <circle cx="54.6" cy="79.1" r="5"></circle>
                    <circle cx="54.6" cy="103.8" r="5"></circle>
                    <circle cx="54.6" cy="128.5" r="5"></circle>
                    <circle cx="54.6" cy="153.1" r="5"></circle>
                    <circle cx="54.6" cy="177.8" r="5"></circle>
                    <circle cx="54.6" cy="202.5" r="5"></circle>
                    <circle cx="54.6" cy="227.1" r="5"></circle>
                    <circle cx="29.9" cy="5.1" r="5"></circle>
                    <circle cx="29.9" cy="29.8" r="5"></circle>
                    <circle cx="29.9" cy="54.5" r="5"></circle>
                    <circle cx="29.9" cy="79.1" r="5"></circle>
                    <circle cx="29.9" cy="103.8" r="5"></circle>
                    <circle cx="29.9" cy="128.5" r="5"></circle>
                    <circle cx="29.9" cy="153.1" r="5"></circle>
                    <circle cx="29.9" cy="177.8" r="5"></circle>
                    <circle cx="29.9" cy="202.5" r="5"></circle>
                    <circle cx="29.9" cy="227.1" r="5"></circle>
                    <circle cx="5.3" cy="5.1" r="5"></circle>
                    <circle cx="5.3" cy="29.8" r="5"></circle>
                    <circle cx="5.3" cy="54.5" r="5"></circle>
                    <circle cx="5.3" cy="79.1" r="5"></circle>
                    <circle cx="5.3" cy="103.8" r="5"></circle>
                    <circle cx="5.3" cy="128.5" r="5"></circle>
                    <circle cx="5.3" cy="153.1" r="5"></circle>
                    <circle cx="5.3" cy="177.8" r="5"></circle>
                    <circle cx="5.3" cy="202.5" r="5"></circle>
                    <circle cx="5.3" cy="227.1" r="5"></circle>
                </g>
                <g id="XMLID_28_" transform="translate(1149.000000, 9.000000)" fill-rule="nonzero">
                    <circle id="Oval" fill="#E0719E" cx="182.6" cy="182.1" r="177"></circle>
                    <path d="M182.6,364.1 C82.2,364.1 0.6,282.5 0.6,182.1 C0.6,81.7 82.2,0.1 182.6,0.1 C283,0.1 364.6,81.7 364.6,182.1 C364.6,282.5 283,364.1 182.6,364.1 Z M182.6,10.1 C87.8,10.1 10.6,87.3 10.6,182.1 C10.6,276.9 87.8,354.1 182.6,354.1 C277.4,354.1 354.6,276.9 354.6,182.1 C354.6,87.3 277.4,10.1 182.6,10.1 Z" id="Shape" fill="#383A48"></path>
                </g>
                <g transform="translate(849.000000, 157.000000)" fill-rule="nonzero">
                    <g transform="translate(331.000000, 366.000000)">
                        <polygon id="Path" fill="#F3F6E6" points="108 108.7 12.3 108.7 5.5 10.9 39.5 5.5"></polygon>
                        <path d="M108,113.7 L12.3,113.7 C9.7,113.7 7.5,111.7 7.3,109 L0.5,11.2 C0.3,8.6 2.2,6.3 4.7,5.9 L38.7,0.6 C40.6,0.3 42.6,1.1 43.6,2.8 L112.1,106 C113.1,107.5 113.2,109.5 112.3,111.1 C111.6,112.7 109.9,113.7 108,113.7 Z M17,103.7 L98.7,103.7 L37.1,11 L10.8,15.1 L17,103.7 Z" id="Shape" fill="#383A48"></path>
                    </g>
                    <g transform="translate(30.000000, 29.000000)">
                        <path d="M487.6,5.1 L487.6,367.2 C487.6,410.5 452.4,445.8 409,445.8 C381.8,445.8 357.8,431.9 343.6,410.8 C335.3,398.3 330.4,383.3 330.4,367.2 L330.4,361 C330.4,356.3 326.5,352.4 321.8,352.4 C317.1,352.4 313.2,356.2 313.2,361 L313.2,503 L5.2,503 L5.2,449.1 L243.2,360.9 C243.2,317.6 278.4,282.3 321.8,282.3 C365.1,282.3 400.4,317.5 400.4,360.9 L400.4,367.1 C400.4,371.8 404.2,375.7 409,375.7 C413.8,375.7 417.6,371.8 417.6,367.1 L417.6,5.1 L487.6,5.1 Z" id="Path" fill="#F3F6E6"></path>
                        <path d="M313.3,507.9 L5.3,507.9 C2.5,507.9 0.3,505.7 0.3,502.9 L0.3,449 C0.3,446.9 1.6,445 3.6,444.3 L238.4,357.3 C240.2,312.8 277,277.2 321.9,277.2 C368,277.2 405.5,314.7 405.5,360.8 L405.5,367 C405.5,369 407.1,370.6 409.1,370.6 C411.1,370.6 412.7,369 412.7,367 L412.7,5 C412.7,2.2 414.9,0 417.7,0 L487.7,0 C490.5,0 492.7,2.2 492.7,5 L492.7,367 C492.7,413.1 455.2,450.6 409.1,450.6 C381.2,450.6 355.2,436.7 339.6,413.4 C330.4,399.6 325.5,383.6 325.5,367.1 L325.5,360.9 C325.5,358.9 323.9,357.3 321.9,357.3 C319.9,357.3 318.3,358.9 318.3,360.9 L318.3,503 C318.3,505.7 316.1,507.9 313.3,507.9 Z M10.3,497.9 L308.3,497.9 L308.3,360.9 C308.3,353.4 314.4,347.3 321.9,347.3 C329.4,347.3 335.5,353.4 335.5,360.9 L335.5,367.1 C335.5,381.7 339.8,395.8 347.9,407.9 C361.6,428.4 384.5,440.7 409.1,440.7 C449.7,440.7 482.7,407.7 482.7,367.1 L482.7,10.1 L422.7,10.1 L422.7,367.1 C422.7,374.6 416.6,380.7 409.1,380.7 C401.6,380.7 395.5,374.6 395.5,367.1 L395.5,360.9 C395.5,320.3 362.5,287.3 321.9,287.3 C281.3,287.3 248.3,320.3 248.3,360.9 C248.3,363 247,364.9 245,365.6 L10.3,452.6 L10.3,497.9 L10.3,497.9 Z" id="Shape" fill="#383A48"></path>
                    </g>
                    <g transform="translate(297.000000, 323.000000)" fill="#383A48" id="Path">
                        <polyline points="54.9 49.3 12.1 49.3 5.7 52.2 24.7 5.2 96.7 5.2 142 116.7 76.7 116.7"></polyline>
                        <path d="M142,121.7 L76.6,121.7 C73.8,121.7 71.6,119.5 71.6,116.7 C71.6,113.9 73.8,111.7 76.6,111.7 L134.5,111.7 L93.2,10.2 L28,10.2 L14.2,44.3 L54.8,44.3 C57.6,44.3 59.8,46.5 59.8,49.3 C59.8,52.1 57.6,54.3 54.8,54.3 L13.1,54.3 L7.6,56.8 C5.7,57.6 3.6,57.2 2.1,55.8 C0.6,54.4 0.2,52.2 0.9,50.3 L19.9,3.3 C20.7,1.4 22.5,0.2 24.5,0.2 L96.5,0.2 C98.5,0.2 100.4,1.4 101.1,3.3 L146.5,114.8 C147.1,116.3 146.9,118.1 146,119.5 C145.1,120.9 143.7,121.7 142,121.7 Z"></path>
                    </g>
                    <g>
                        <g>
                            <path d="M179.6,346.5 L179.6,5 L482.6,5 L482.6,396.1 C482.6,420.2 463.1,439.7 439,439.7 L439,439.7 C414.9,439.7 395.4,420.2 395.4,396.1 L395.4,389.9 C395.4,365.8 375.9,346.3 351.8,346.3 L351.8,346.3 C327.7,346.3 308.2,365.8 308.2,389.9 L308.2,502.9 L5.2,502.9 L5.2,389.9 C5.2,365.8 24.7,346.3 48.8,346.3 L48.8,346.3 L179.6,346.5 Z" id="Path" fill="#F3F6E6"></path>
                            <path d="M308.3,507.9 L5.3,507.9 C2.5,507.9 0.3,505.7 0.3,502.9 L0.3,389.9 C0.3,363.1 22.1,341.3 48.9,341.3 L174.6,341.5 L174.6,5 C174.6,2.2 176.8,0 179.6,0 L482.6,0 C485.4,0 487.6,2.2 487.6,5 L487.6,396.1 C487.6,422.9 465.8,444.7 439,444.7 C412.2,444.7 390.4,422.9 390.4,396.1 L390.4,389.9 C390.4,368.6 373.1,351.3 351.8,351.3 C330.5,351.3 313.2,368.6 313.2,389.9 L313.2,502.9 C313.3,505.6 311.1,507.9 308.3,507.9 Z M10.3,497.9 L303.3,497.9 L303.3,389.9 C303.3,363.1 325.1,341.3 351.9,341.3 C378.7,341.3 400.5,363.1 400.5,389.9 L400.5,396.1 C400.5,417.4 417.8,434.7 439.1,434.7 C460.4,434.7 477.7,417.4 477.7,396.1 L477.7,10 L184.7,10 L184.7,346.5 C184.7,347.8 184.2,349.1 183.2,350 C182.3,350.9 181,351.5 179.7,351.5 L179.7,351.5 L49,351.3 C27.7,351.3 10.4,368.6 10.4,389.9 L10.3,497.9 L10.3,497.9 Z" id="Shape" fill="#383A48"></path>
                        </g>
                        <path d="M351.9,351.5 L179.6,351.5 C176.8,351.5 174.6,349.3 174.6,346.5 C174.6,343.7 176.8,341.5 179.6,341.5 L351.9,341.5 C354.7,341.5 356.9,343.7 356.9,346.5 C356.9,349.3 354.6,351.5 351.9,351.5 Z" id="Path" fill="#383A48"></path>
                        <g transform="translate(228.000000, 97.000000)">
                            <rect id="Rectangle" fill="#AAC6FC" x="5.6" y="5.2" width="190.9" height="95.2"></rect>
                            <path d="M196.5,105.4 L5.6,105.4 C2.8,105.4 0.6,103.2 0.6,100.4 L0.6,5.2 C0.6,2.4 2.8,0.2 5.6,0.2 L196.5,0.2 C199.3,0.2 201.5,2.4 201.5,5.2 L201.5,100.4 C201.5,103.2 199.3,105.4 196.5,105.4 Z M10.6,95.4 L191.5,95.4 L191.5,10.2 L10.6,10.2 L10.6,95.4 Z" id="Shape" fill="#383A48"></path>
                        </g>
                        <path d="M424.5,250.7 L233.6,250.7 C230.8,250.7 228.6,248.5 228.6,245.7 C228.6,242.9 230.8,240.7 233.6,240.7 L424.5,240.7 C427.3,240.7 429.5,242.9 429.5,245.7 C429.5,248.5 427.3,250.7 424.5,250.7 Z" id="Path" fill="#383A48"></path>
                        <path d="M424.5,294.2 L233.6,294.2 C230.8,294.2 228.6,292 228.6,289.2 C228.6,286.4 230.8,284.2 233.6,284.2 L424.5,284.2 C427.3,284.2 429.5,286.4 429.5,289.2 C429.5,292 427.3,294.2 424.5,294.2 Z" id="Path" fill="#383A48"></path>
                        <path d="M251.2,386.5 L60.3,386.5 C57.5,386.5 55.3,384.3 55.3,381.5 C55.3,378.7 57.5,376.5 60.3,376.5 L251.2,376.5 C254,376.5 256.2,378.7 256.2,381.5 C256.2,384.3 254,386.5 251.2,386.5 Z" id="Path" fill="#383A48"></path>
                        <path d="M251.2,430 L60.3,430 C57.5,430 55.3,427.8 55.3,425 C55.3,422.2 57.5,420 60.3,420 L251.2,420 C254,420 256.2,422.2 256.2,425 C256.2,427.8 254,430 251.2,430 Z" id="Path" fill="#383A48"></path>
                    </g>
                </g>
                <g transform="translate(123.000000, 560.000000)" fill-rule="nonzero">
                    <g>
                        <path d="M5.7,120.6 L5.7,41.3 C5.7,21.6 21.7,5.6 41.4,5.6 L92.5,5.6 C104.6,5.6 116,11.8 122.5,22 L164,86.6 L5.7,120.6 Z" id="Path" fill="#F6E049"></path>
                        <path d="M5.7,125.6 C4.6,125.6 3.5,125.2 2.6,124.5 C1.4,123.5 0.7,122.1 0.7,120.6 L0.7,41.3 C0.7,18.9 18.9,0.6 41.4,0.6 L92.5,0.6 C106.4,0.6 119.2,7.6 126.7,19.3 L168.2,83.9 C169.1,85.3 169.2,87 168.6,88.5 C168,90 166.6,91.1 165,91.5 L6.8,125.5 C6.4,125.6 6,125.6 5.7,125.6 Z M41.4,10.6 C24.5,10.6 10.7,24.4 10.7,41.3 L10.7,114.4 L155.8,83.2 L118.2,24.7 C112.5,15.9 102.9,10.6 92.4,10.6 L41.4,10.6 Z" id="Shape" fill="#383A48"></path>
                    </g>
                    <g transform="translate(0.000000, 41.000000)">
                        <path d="M216.4,192.9 L62.5,192.9 C31.1,192.9 5.7,167.5 5.7,136.1 L5.7,62 C5.7,30.6 31.1,5.2 62.5,5.2 L216.3,5.2 C247.7,5.2 273.100293,30.6 273.100293,62 L273.100293,136 C273.2,167.4 247.7,192.9 216.4,192.9 Z" id="Path" fill="#F6E049"></path>
                        <path d="M216.4,197.9 L62.5,197.9 C28.4,197.9 0.7,170.2 0.7,136.1 L0.7,62 C0.7,27.9 28.4,0.2 62.5,0.2 L216.3,0.2 C250.4,0.2 278.100269,27.9 278.100269,62 L278.100269,136 C278.2,170.1 250.4,197.9 216.4,197.9 Z M62.5,10.1 C33.9,10.1 10.7,33.4 10.7,61.9 L10.7,136 C10.7,164.6 34,187.8 62.5,187.8 L216.3,187.8 C244.9,187.8 268.1,164.5 268.1,136 L268.1,61.9 C268.1,33.3 244.8,10.1 216.3,10.1 L62.5,10.1 L62.5,10.1 Z" id="Shape" fill="#383A48"></path>
                    </g>
                    <path d="M116,191.2 C113.3,191.2 110.5,190.3 108.2,188.6 C104.1,185.6 102,180.6 102.9,175.6 L105.9,158.1 C106.1,157 105.7,155.9 104.9,155.2 L92.2,142.8 C88.5,139.2 87.3,134 88.8,129.2 C90.3,124.4 94.5,120.9 99.5,120.1 L117.1,117.5 C118.2,117.3 119.1,116.7 119.6,115.7 L127.5,99.8 C129.8,95.2 134.3,92.4 139.4,92.4 C144.5,92.4 149.1,95.2 151.3,99.8 L151.3,99.8 L159.2,115.7 C159.7,116.7 160.6,117.4 161.7,117.5 L179.3,120.1 C184.3,120.8 188.5,124.3 190,129.2 C191.6,134.1 190.3,139.3 186.6,142.8 L173.9,155.2 C173.1,156 172.8,157.1 172.9,158.1 L175.9,175.6 C176.8,180.6 174.7,185.6 170.6,188.6 C166.5,191.6 161.1,192 156.6,189.6 L140.9,181.3 C139.9,180.8 138.8,180.8 137.8,181.3 L122.1,189.6 C120.2,190.7 118.1,191.2 116,191.2 Z M139.4,102.4 C138.8,102.4 137.3,102.6 136.4,104.2 L128.5,120.1 C126.6,124 122.8,126.7 118.5,127.4 L101,130 C99.2,130.3 98.5,131.7 98.3,132.2 C98.1,132.7 97.8,134.3 99.1,135.6 L111.8,148 C114.9,151.1 116.4,155.5 115.6,159.8 L112.6,177.3 C112.3,179.1 113.4,180.2 113.9,180.5 C114.4,180.9 115.7,181.6 117.4,180.8 L133.1,172.5 C137,170.5 141.6,170.5 145.5,172.5 L161.2,180.8 C162.8,181.7 164.2,180.9 164.7,180.5 C165.2,180.1 166.3,179.1 166,177.3 L163,159.8 C162.3,155.5 163.7,151.1 166.8,148 L179.5,135.6 C180.8,134.3 180.5,132.8 180.3,132.2 C180.1,131.6 179.5,130.2 177.6,130 L160,127.4 C155.7,126.8 151.9,124 150,120.1 L142.1,104.2 C141.6,102.6 140.1,102.4 139.4,102.4 Z" id="Shape" fill="#383A48"></path>
                </g>
                <path d="M1079.8,98 C1078,98 1076.3,97 1075.4,95.4 C1055.3,58 1034.6,61.6 1018,64.5 C1007.3,66.4 994,68.7 990.4,51.9 C986.8,34.9 979.9,23.4 969.3,16.8 C956.3,8.7 937,7.9 912,14.4 C909.3,15.1 906.6,13.5 905.9,10.8 C905.2,8.1 906.8,5.4 909.5,4.7 C937.2,-2.5 959.1,-1.3 974.5,8.2 C987.6,16.3 995.9,29.9 1000.1,49.7 C1001.5,56.3 1003.3,56.8 1016.1,54.5 C1033.8,51.4 1060.5,46.7 1084.1,90.5 C1085.4,92.9 1084.5,96 1082.1,97.3 C1081.4,97.8 1080.6,98 1079.8,98 Z" id="Path" fill="#383A48" fill-rule="nonzero"></path>
                <path d="M509,715 C495.5,715 481.4,713.9 467.1,711.5 C464.4,711.1 462.5,708.5 463,705.8 C463.4,703.1 466,701.2 468.7,701.7 C506.8,707.8 542.4,705.5 571.6,694.9 C604,683.2 627.9,662 642.8,631.9 C647.6,622.1 650.7,610.8 651.6,601 C649.3,601.4 646.9,601.6 644.5,601.7 C637.5,602 631.7,599.3 628.5,594.2 C625.4,589.3 625.3,583 628.2,577.8 C631.3,572.3 637.1,569.1 644.3,569.1 C650,569.1 654.6,571.7 657.7,576.7 C659.6,579.8 660.8,583.7 661.5,588.1 C673.4,583.7 684.3,575.4 692.7,564.1 C706.9,544.9 712.2,520.4 706.8,498.3 C706.1,495.6 707.8,492.9 710.5,492.3 C713.2,491.6 715.9,493.3 716.5,496 C722.6,520.9 716.7,548.6 700.7,570.1 C690.4,583.9 676.8,593.8 661.9,598.6 C661.3,611.1 657.4,625.2 651.8,636.4 C635.7,668.9 609.9,691.7 575,704.3 C555.3,711.4 532.9,715 509,715 Z M644.3,579.1 C640.8,579.1 638.2,580.4 637,582.6 C635.9,584.6 635.9,587 637.1,588.8 C638.4,590.8 640.8,591.8 644.1,591.6 C646.7,591.5 649.2,591.2 651.8,590.7 C651.4,587.1 650.6,584 649.3,581.9 C648,580 646.4,579.1 644.3,579.1 Z" id="Shape" fill="#383A48" fill-rule="nonzero"></path>
                <g transform="translate(131.000000, 114.000000)" fill-rule="nonzero">
                    <g>
                        <rect id="Rectangle" fill="#F3F6E6" x="5.6" y="5.4" width="519.1" height="374.8"></rect>
                        <path d="M524.7,385.2 L5.6,385.2 C2.8,385.2 0.6,383 0.6,380.2 L0.6,5.4 C0.6,2.6 2.8,0.4 5.6,0.4 L524.7,0.4 C527.5,0.4 529.7,2.6 529.7,5.4 L529.7,380.2 C529.7,383 527.5,385.2 524.7,385.2 Z M10.6,375.2 L519.7,375.2 L519.7,10.4 L10.6,10.4 L10.6,375.2 Z" id="Shape" fill="#383A48"></path>
                    </g>
                    <g transform="translate(45.000000, 43.000000)">
                        <rect id="Rectangle" fill="#F3F6E6" x="5.7" y="5" width="429" height="289.5"></rect>
                        <path d="M434.7,299.5 L5.7,299.5 C2.9,299.5 0.7,297.3 0.7,294.5 L0.7,5 C0.7,2.2 2.9,0 5.7,0 L434.7,0 C437.5,0 439.7,2.2 439.7,5 L439.7,294.5 C439.7,297.3 437.5,299.5 434.7,299.5 Z M10.7,289.5 L429.7,289.5 L429.7,10 L10.7,10 L10.7,289.5 Z" id="Shape" fill="#AAC6FC"></path>
                    </g>
                    <path d="M188.1,264.6 L186,230.9 L141.4,230.9 L125.3,264.6 L90,264.6 L170.7,102 L213.5,102 L228.5,264.6 L188.1,264.6 Z M175.2,157.6 L153.5,201.8 L186.5,201.8 L183.9,157.6 L184.1,138.4 L182.3,138.4 L175.2,157.6 Z" id="Shape" fill="#383A48"></path>
                    <path d="M425.3,106.1 L283.3,106.1 C280.5,106.1 278.3,103.9 278.3,101.1 C278.3,98.3 280.5,96.1 283.3,96.1 L425.3,96.1 C428.1,96.1 430.3,98.3 430.3,101.1 C430.3,103.9 428.1,106.1 425.3,106.1 Z" id="Path" fill="#383A48"></path>
                    <path d="M425.3,145.1 L283.3,145.1 C280.5,145.1 278.3,142.9 278.3,140.1 C278.3,137.3 280.5,135.1 283.3,135.1 L425.3,135.1 C428.1,135.1 430.3,137.3 430.3,140.1 C430.3,142.9 428.1,145.1 425.3,145.1 Z" id="Path" fill="#383A48"></path>
                    <path d="M425.3,184.1 L283.3,184.1 C280.5,184.1 278.3,181.9 278.3,179.1 C278.3,176.3 280.5,174.1 283.3,174.1 L425.3,174.1 C428.1,174.1 430.3,176.3 430.3,179.1 C430.3,181.9 428.1,184.1 425.3,184.1 Z" id="Path" fill="#383A48"></path>
                    <circle id="Oval" fill="#F6E049" cx="387.6" cy="261.6" r="34.6"></circle>
                </g>
                <g transform="translate(437.000000, 534.000000)" fill="#383A48" fill-rule="nonzero" id="Path">
                    <path d="M48.3,28.8 C45.5,28.8 43.3,26.6 43.3,23.8 L43.3,5 C43.3,2.2 45.5,0 48.3,0 C51.1,0 53.3,2.2 53.3,5 L53.3,23.8 C53.3,26.5 51.1,28.8 48.3,28.8 Z"></path>
                    <path d="M48.3,96.1 C45.5,96.1 43.3,93.9 43.3,91.1 L43.3,72.3 C43.3,69.5 45.5,67.3 48.3,67.3 C51.1,67.3 53.3,69.5 53.3,72.3 L53.3,91.1 C53.3,93.9 51.1,96.1 48.3,96.1 Z"></path>
                    <path d="M24,53 L5.2,53 C2.4,53 0.2,50.8 0.2,48 C0.2,45.2 2.4,43 5.2,43 L24,43 C26.8,43 29,45.2 29,48 C29,50.8 26.8,53 24,53 Z"></path>
                    <path d="M91.4,53 L72.6,53 C69.8,53 67.6,50.8 67.6,48 C67.6,45.2 69.8,43 72.6,43 L91.4,43 C94.2,43 96.4,45.2 96.4,48 C96.4,50.8 94.1,53 91.4,53 Z"></path>
                    <path d="M31.1,35.9 C29.8,35.9 28.5,35.4 27.6,34.4 L14.3,21.1 C12.3,19.1 12.3,16 14.3,14 C16.3,12 19.4,12 21.4,14 L34.7,27.3 C36.7,29.3 36.7,32.4 34.7,34.4 C33.7,35.4 32.4,35.9 31.1,35.9 Z"></path>
                    <path d="M78.7,83.5 C77.4,83.5 76.1,83 75.2,82 L61.9,68.7 C59.9,66.7 59.9,63.6 61.9,61.6 C63.9,59.6 67,59.6 69,61.6 L82.3,74.9 C84.3,76.9 84.3,80 82.3,82 C81.3,83 80,83.5 78.7,83.5 Z"></path>
                    <path d="M17.9,83.5 C16.6,83.5 15.3,83 14.4,82 C12.4,80 12.4,76.9 14.4,74.9 L27.7,61.6 C29.7,59.6 32.8,59.6 34.8,61.6 C36.8,63.6 36.8,66.7 34.8,68.7 L21.4,82 C20.4,83 19.1,83.5 17.9,83.5 Z"></path>
                    <path d="M65.5,35.9 C64.2,35.9 62.9,35.4 62,34.4 C60,32.4 60,29.3 62,27.3 L75.3,14 C77.3,12 80.4,12 82.4,14 C84.4,16 84.4,19.1 82.4,21.1 L69,34.4 C68,35.4 66.7,35.9 65.5,35.9 Z"></path>
                </g>
                <g transform="translate(952.000000, 408.000000)">
                    <g>
                        <line x1="4.3" y1="3.9" x2="27.6" y2="27.2" id="Path"></line>
                        <rect id="Rectangle" fill="#383A48" fill-rule="nonzero" transform="translate(15.875750, 15.650270) rotate(-45.000000) translate(-15.875750, -15.650270) " x="10.875798" y="-0.849571764" width="9.9999041" height="32.9996835"></rect>
                    </g>
                    <g>
                        <line x1="4.3" y1="27.2" x2="27.6" y2="3.9" id="Path"></line>
                        <rect id="Rectangle" fill="#383A48" fill-rule="nonzero" transform="translate(15.920540, 15.524260) rotate(-45.000000) translate(-15.920540, -15.524260) " x="-0.579301764" y="10.524308" width="32.9996835" height="9.9999041"></rect>
                    </g>
                </g>
                <g transform="translate(216.000000, 47.000000)">
                    <g>
                        <line x1="3.9" y1="4.3" x2="27.2" y2="27.6" id="Path"></line>
                        <rect id="Rectangle" fill="#383A48" fill-rule="nonzero" transform="translate(15.463840, 15.906640) rotate(-45.000000) translate(-15.463840, -15.906640) " x="10.463888" y="-0.593201764" width="9.9999041" height="32.9996835"></rect>
                    </g>
                    <g>
                        <line x1="3.9" y1="27.6" x2="27.2" y2="4.3" id="Path"></line>
                        <rect id="Rectangle" fill="#383A48" fill-rule="nonzero" transform="translate(15.605250, 15.865130) rotate(-45.000000) translate(-15.605250, -15.865130) " x="-0.894591764" y="10.865178" width="32.9996835" height="9.9999041"></rect>
                    </g>
                </g>
            </g>
        </g>
    </g>
</svg>