<svg xmlns="http://www.w3.org/2000/svg" xmlns:xlink="http://www.w3.org/1999/xlink" width="1552" height="789" version="1.1" viewBox="0 0 1552 789"><title>e-commerce-1</title><desc>Created with Sketch.</desc><g id="Page-1" fill="none" fill-rule="evenodd" stroke="none" stroke-width="1"><g id="e-commerce-1" transform="translate(-201.000000, -127.000000)"><g id="Group" transform="translate(201.000000, 127.000000)"><path id="Shape" fill="#7EA9EA" fill-rule="nonzero" d="M745.5,143.8 L639.8,143.8 L534.1,143.8 L428.3,143.8 L322.6,143.8 L216.8,143.8 L111.1,143.8 L5.4,143.8 C2.6,143.8 0.4,146 0.4,148.8 L0.4,254.5 L0.4,360.2 L0.4,466 L0.4,571.7 L0.4,677.4 L0.4,783.1 C0.4,785.9 2.6,788.1 5.4,788.1 L111.1,788.1 L216.8,788.1 L322.5,788.1 L428.2,788.1 L533.9,788.1 L639.6,788.1 L745.3,788.1 C748.1,788.1 750.3,785.9 750.3,783.1 L750.3,677.5 L750.3,571.7 L750.3,466 L750.3,360.3 L750.3,254.5 L750.3,148.8 C750.5,146 748.3,143.8 745.5,143.8 Z M740.5,355.3 L644.8,355.3 L644.8,259.6 L740.5,259.6 L740.5,355.3 Z M740.5,461 L644.8,461 L644.8,365.3 L740.5,365.3 L740.5,461 Z M740.5,566.7 L644.8,566.7 L644.8,471 L740.5,471 L740.5,566.7 Z M10.4,471 L106.1,471 L106.1,566.7 L10.4,566.7 L10.4,471 L10.4,471 Z M10.4,365.3 L106.1,365.3 L106.1,461 L10.4,461 L10.4,365.3 L10.4,365.3 Z M634.8,461 L539.1,461 L539.1,365.3 L634.8,365.3 L634.8,461 Z M529.1,461 L433.4,461 L433.4,365.3 L529.1,365.3 L529.1,461 Z M423.3,461 L327.6,461 L327.6,365.3 L423.3,365.3 L423.3,461 Z M317.6,461 L221.9,461 L221.9,365.3 L317.6,365.3 L317.6,461 Z M211.8,461 L116.1,461 L116.1,365.3 L211.8,365.3 L211.8,461 Z M116.1,471 L211.8,471 L211.8,566.7 L116.1,566.7 L116.1,471 L116.1,471 Z M221.8,471 L317.5,471 L317.5,566.7 L221.8,566.7 L221.8,471 Z M327.6,471 L423.3,471 L423.3,566.7 L327.6,566.7 L327.6,471 Z M433.3,471 L529,471 L529,566.7 L433.3,566.7 L433.3,471 Z M539.1,471 L634.8,471 L634.8,566.7 L539.1,566.7 L539.1,471 Z M634.8,355.3 L539.1,355.3 L539.1,259.6 L634.8,259.6 L634.8,355.3 Z M529.1,355.3 L433.4,355.3 L433.4,259.6 L529.1,259.6 L529.1,355.3 Z M423.3,355.3 L327.6,355.3 L327.6,259.6 L423.3,259.6 L423.3,355.3 Z M317.6,355.3 L221.9,355.3 L221.9,259.6 L317.6,259.6 L317.6,355.3 Z M211.8,355.3 L116.1,355.3 L116.1,259.6 L211.8,259.6 L211.8,355.3 Z M106.1,355.3 L10.4,355.3 L10.4,259.6 L106.1,259.6 L106.1,355.3 Z M10.4,576.7 L106.1,576.7 L106.1,672.4 L10.4,672.4 L10.4,576.7 L10.4,576.7 Z M116.1,576.7 L211.8,576.7 L211.8,672.4 L116.1,672.4 L116.1,576.7 L116.1,576.7 Z M221.8,576.7 L317.5,576.7 L317.5,672.4 L221.8,672.4 L221.8,576.7 Z M327.6,576.7 L423.3,576.7 L423.3,672.4 L327.6,672.4 L327.6,576.7 Z M433.3,576.7 L529,576.7 L529,672.4 L433.3,672.4 L433.3,576.7 Z M539.1,576.7 L634.8,576.7 L634.8,672.4 L539.1,672.4 L539.1,576.7 Z M644.8,576.7 L740.5,576.7 L740.5,672.4 L644.8,672.4 L644.8,576.7 Z M740.5,249.5 L644.8,249.5 L644.8,153.8 L740.5,153.8 L740.5,249.5 Z M634.8,249.5 L539.1,249.5 L539.1,153.8 L634.8,153.8 L634.8,249.5 Z M529.1,249.5 L433.4,249.5 L433.4,153.8 L529.1,153.8 L529.1,249.5 Z M423.3,249.5 L327.6,249.5 L327.6,153.8 L423.3,153.8 L423.3,249.5 Z M317.6,249.5 L221.9,249.5 L221.9,153.8 L317.6,153.8 L317.6,249.5 Z M211.8,249.5 L116.1,249.5 L116.1,153.8 L211.8,153.8 L211.8,249.5 Z M10.4,153.8 L106.1,153.8 L106.1,249.5 L10.4,249.5 L10.4,153.8 L10.4,153.8 Z M10.4,682.5 L106.1,682.5 L106.1,778.2 L10.4,778.2 L10.4,682.5 L10.4,682.5 Z M116.1,682.5 L211.8,682.5 L211.8,778.2 L116.1,778.2 L116.1,682.5 L116.1,682.5 Z M221.8,682.5 L317.5,682.5 L317.5,778.2 L221.8,778.2 L221.8,682.5 Z M327.6,682.5 L423.3,682.5 L423.3,778.2 L327.6,778.2 L327.6,682.5 Z M433.3,682.5 L529,682.5 L529,778.2 L433.3,778.2 L433.3,682.5 Z M539.1,682.5 L634.8,682.5 L634.8,778.2 L539.1,778.2 L539.1,682.5 Z M740.5,778.2 L644.8,778.2 L644.8,682.5 L740.5,682.5 L740.5,778.2 Z"/><path id="Path" fill="#F3F6E6" fill-rule="nonzero" d="M418.2,0.6 L5.4,0.6 C2.6,0.6 0.4,2.8 0.4,5.6 L0.4,376.2 C0.4,377.7 1,379 2.1,380 C3,380.8 4.2,381.2 5.4,381.2 C5.7,381.2 5.9,381.2 6.2,381.1 C80.3,369.7 138.7,289.7 200.6,204.9 C265.1,116.6 331.7,25.2 419.2,10.5 C421.8,10.1 423.6,7.7 423.4,5.2 C423.2,2.7 420.8,0.6 418.2,0.6 Z"/><path id="Path" fill="#F3F6E6" fill-rule="nonzero" d="M1310.6,0.6 L916,0.6 C863,0.6 824.5,16.3 794.7,50 C768.3,79.9 751.7,120.9 734.1,164.4 C714.2,213.6 693.7,264.4 656.2,310 C613.6,362 555.9,397.3 480,418 C406.6,438 341.5,511.4 272.7,589 C190.7,681.4 106,777 5.3,778.2 C2.5,778.2 0.3,780.5 0.396721451,783.2 C0.396721451,786 2.6,788.2 5.4,788.2 L402.1,788.2 C507.2,787 592.8,689.7 675.6,595.7 C743,519.1 806.7,446.8 877.3,427.6 C952.9,407 1009.2,372 1049.3,320.6 C1084.4,275.7 1102.2,225.7 1119.4,177.3 C1135.3,132.5 1150.4,90.2 1177.7,59.8 C1207.9,26.2 1250.1,10.6 1310.6,10.6 C1313.4,10.6 1315.6,8.4 1315.6,5.6 C1315.6,2.8 1313.3,0.6 1310.6,0.6 Z"/><g fill-rule="nonzero" transform="translate(211.000000, 100.000000)"><g id="XMLID_6_" transform="translate(0.000000, 37.000000)"><rect id="Rectangle" width="842.1" height="640.7" x="5.4" y="5.5" fill="#F3F6E6"/><path id="Shape" fill="#383A48" d="M847.5,651.2 L5.4,651.2 C2.6,651.2 0.4,649 0.4,646.2 L0.4,5.5 C0.4,2.7 2.6,0.5 5.4,0.5 L847.5,0.5 C850.3,0.5 852.5,2.7 852.5,5.5 L852.5,646.2 C852.5,649 850.3,651.2 847.5,651.2 Z M10.4,641.2 L842.5,641.2 L842.5,10.5 L10.4,10.5 L10.4,641.2 Z"/></g><g><rect id="Rectangle" width="842.1" height="166.5" x="5.4" y="5.1" fill="#F6E049"/><path id="Shape" fill="#383A48" d="M847.5,176.6 L5.4,176.6 C2.6,176.6 0.4,174.4 0.4,171.6 L0.4,5.1 C0.4,2.3 2.6,0.1 5.4,0.1 L847.5,0.1 C850.3,0.1 852.5,2.3 852.5,5.1 L852.5,171.6 C852.5,174.4 850.3,176.6 847.5,176.6 Z M10.4,166.6 L842.5,166.6 L842.5,10.1 L10.4,10.1 L10.4,166.6 Z"/></g><g><g transform="translate(0.000000, 166.000000)"><rect id="Rectangle" width="120.3" height="122" x="5.4" y="5.6" fill="#F3F6E6"/><path id="Shape" fill="#383A48" d="M125.7,132.6 L5.4,132.6 C2.6,132.6 0.4,130.4 0.4,127.6 L0.4,5.6 C0.4,2.8 2.6,0.6 5.4,0.6 L125.7,0.6 C128.5,0.6 130.7,2.8 130.7,5.6 L130.7,127.6 C130.7,130.4 128.4,132.6 125.7,132.6 Z M10.4,122.6 L120.7,122.6 L120.7,10.6 L10.4,10.6 L10.4,122.6 Z"/></g><g transform="translate(0.000000, 166.000000) translate(0.000000, 122.000000)"><path id="Path" fill="#F3F6E6" d="M65.5,73.8 L65.5,73.8 C98.7,73.8 125.7,46.9 125.7,13.6 L125.7,5.6 L5.4,5.6 L5.4,13.6 C5.4,46.8 32.3,73.8 65.5,73.8 Z"/><path id="Shape" fill="#383A48" d="M65.5,78.8 C29.6,78.8 0.3,49.6 0.3,13.6 L0.3,5.6 C0.3,2.8 2.5,0.6 5.3,0.6 L125.6,0.6 C128.4,0.6 130.600256,2.8 130.600256,5.6 L130.600256,13.6 C130.7,49.5 101.5,78.8 65.5,78.8 Z M10.4,10.6 L10.4,13.6 C10.4,44 35.1,68.8 65.6,68.8 C96,68.8 120.8,44.1 120.8,13.6 L120.8,10.6 L10.4,10.6 Z"/></g></g><g><g transform="translate(120.000000, 166.000000)"><rect id="Rectangle" width="120.3" height="122" x="5.7" y="5.6" fill="#E0719E"/><path id="Shape" fill="#383A48" d="M126,132.6 L5.7,132.6 C2.9,132.6 0.7,130.4 0.7,127.6 L0.7,5.6 C0.7,2.8 2.9,0.6 5.7,0.6 L126,0.6 C128.8,0.6 131,2.8 131,5.6 L131,127.6 C131,130.4 128.7,132.6 126,132.6 Z M10.7,122.6 L121,122.6 L121,10.6 L10.7,10.6 L10.7,122.6 Z"/></g><g transform="translate(120.000000, 166.000000) translate(0.000000, 122.000000)"><path id="Path" fill="#E0719E" d="M65.8,73.8 L65.8,73.8 C99,73.8 126,46.9 126,13.6 L126,5.6 L5.7,5.6 L5.7,13.6 C5.7,46.8 32.6,73.8 65.8,73.8 Z"/><path id="Shape" fill="#383A48" d="M65.8,78.8 C29.9,78.8 0.6,49.6 0.6,13.6 L0.6,5.6 C0.6,2.8 2.8,0.6 5.6,0.6 L126,0.6 C128.8,0.6 131,2.8 131,5.6 L131,13.6 C131,49.5 101.8,78.8 65.8,78.8 Z M10.7,10.6 L10.7,13.6 C10.7,44 35.4,68.8 65.9,68.8 C96.3,68.8 121.1,44.1 121.1,13.6 L121.1,10.6 L10.7,10.6 Z"/></g></g><g><g transform="translate(240.000000, 166.000000) translate(1.000000, 0.000000)"><rect id="Rectangle" width="120.3" height="122" x="5" y="5.6" fill="#F3F6E6"/><path id="Shape" fill="#383A48" d="M125.3,132.6 L5,132.6 C2.2,132.6 0,130.4 0,127.6 L0,5.6 C0,2.8 2.2,0.6 5,0.6 L125.3,0.6 C128.1,0.6 130.3,2.8 130.3,5.6 L130.3,127.6 C130.3,130.4 128.1,132.6 125.3,132.6 Z M10,122.6 L120.3,122.6 L120.3,10.6 L10,10.6 L10,122.6 Z"/></g><g transform="translate(240.000000, 166.000000) translate(0.000000, 122.000000)"><path id="Path" fill="#F3F6E6" d="M66.1,73.8 L66.1,73.8 C99.3,73.8 126.3,46.9 126.3,13.6 L126.3,5.6 L6,5.6 L6,13.6 C6,46.8 32.9,73.8 66.1,73.8 Z"/><path id="Shape" fill="#383A48" d="M66.1,78.8 C30.2,78.8 0.9,49.6 0.9,13.6 L0.9,5.6 C0.9,2.8 3.1,0.6 5.9,0.6 L126.2,0.6 C129,0.6 131.200256,2.8 131.200256,5.6 L131.200256,13.6 C131.3,49.5 102.1,78.8 66.1,78.8 Z M11,10.6 L11,13.6 C11,44 35.7,68.8 66.2,68.8 C96.6,68.8 121.4,44.1 121.4,13.6 L121.4,10.6 L11,10.6 Z"/></g></g><g><g transform="translate(361.000000, 166.000000)"><rect id="Rectangle" width="120.3" height="122" x="5.3" y="5.6" fill="#E0719E"/><path id="Shape" fill="#383A48" d="M125.6,132.6 L5.3,132.6 C2.5,132.6 0.3,130.4 0.3,127.6 L0.3,5.6 C0.3,2.8 2.5,0.6 5.3,0.6 L125.6,0.6 C128.4,0.6 130.6,2.8 130.6,5.6 L130.6,127.6 C130.6,130.4 128.4,132.6 125.6,132.6 Z M10.3,122.6 L120.6,122.6 L120.6,10.6 L10.3,10.6 L10.3,122.6 Z"/></g><g transform="translate(361.000000, 166.000000) translate(0.000000, 122.000000)"><path id="Path" fill="#E0719E" d="M65.4,73.8 L65.4,73.8 C98.6,73.8 125.6,46.9 125.6,13.6 L125.6,5.6 L5.3,5.6 L5.3,13.6 C5.3,46.8 32.2,73.8 65.4,73.8 Z"/><path id="Shape" fill="#383A48" d="M65.4,78.8 C29.5,78.8 0.2,49.6 0.2,13.6 L0.2,5.6 C0.2,2.8 2.4,0.6 5.2,0.6 L125.5,0.6 C128.3,0.6 130.500256,2.8 130.500256,5.6 L130.500256,13.6 C130.6,49.5 101.4,78.8 65.4,78.8 Z M10.3,10.6 L10.3,13.6 C10.3,44 35,68.8 65.5,68.8 C96,68.8 120.7,44.1 120.7,13.6 L120.7,10.6 L10.3,10.6 Z"/></g></g><g><g transform="translate(481.000000, 166.000000)"><rect id="Rectangle" width="120.3" height="122" x="5.6" y="5.6" fill="#F3F6E6"/><path id="Shape" fill="#383A48" d="M125.9,132.6 L5.6,132.6 C2.8,132.6 0.6,130.4 0.6,127.6 L0.6,5.6 C0.6,2.8 2.8,0.6 5.6,0.6 L125.9,0.6 C128.7,0.6 130.9,2.8 130.9,5.6 L130.9,127.6 C130.9,130.4 128.7,132.6 125.9,132.6 Z M10.6,122.6 L120.9,122.6 L120.9,10.6 L10.6,10.6 L10.6,122.6 Z"/></g><g transform="translate(481.000000, 166.000000) translate(0.000000, 122.000000)"><path id="Path" fill="#F3F6E6" d="M65.7,73.8 L65.7,73.8 C98.9,73.8 125.9,46.9 125.9,13.6 L125.9,5.6 L5.6,5.6 L5.6,13.6 C5.6,46.8 32.5,73.8 65.7,73.8 Z"/><path id="Shape" fill="#383A48" d="M65.7,78.8 C29.8,78.8 0.5,49.6 0.5,13.6 L0.5,5.6 C0.5,2.8 2.7,0.6 5.5,0.6 L125.8,0.6 C128.6,0.6 130.800256,2.8 130.800256,5.6 L130.800256,13.6 C130.9,49.5 101.7,78.8 65.7,78.8 Z M10.6,10.6 L10.6,13.6 C10.6,44 35.3,68.8 65.8,68.8 C96.2,68.8 121,44.1 121,13.6 L121,10.6 L10.6,10.6 Z"/></g></g><g><g transform="translate(601.000000, 166.000000)"><rect id="Rectangle" width="120.3" height="122" x="5.9" y="5.6" fill="#E0719E"/><path id="Shape" fill="#383A48" d="M126.2,132.6 L5.9,132.6 C3.1,132.6 0.9,130.4 0.9,127.6 L0.9,5.6 C0.9,2.8 3.1,0.6 5.9,0.6 L126.2,0.6 C129,0.6 131.2,2.8 131.2,5.6 L131.2,127.6 C131.2,130.4 129,132.6 126.2,132.6 Z M10.9,122.6 L121.2,122.6 L121.2,10.6 L10.9,10.6 L10.9,122.6 L10.9,122.6 Z"/></g><g transform="translate(601.000000, 166.000000) translate(0.000000, 122.000000)"><path id="Path" fill="#E0719E" d="M66,73.8 L66,73.8 C99.2,73.8 126.2,46.9 126.2,13.6 L126.2,5.6 L5.9,5.6 L5.9,13.6 C5.9,46.8 32.8,73.8 66,73.8 Z"/><path id="Shape" fill="#383A48" d="M66,78.8 C30.1,78.8 0.8,49.6 0.8,13.6 L0.8,5.6 C0.8,2.8 3,0.6 5.8,0.6 L126.1,0.6 C128.9,0.6 131.100256,2.8 131.100256,5.6 L131.100256,13.6 C131.2,49.5 102,78.8 66,78.8 Z M10.9,10.6 L10.9,13.6 C10.9,44 35.6,68.8 66.1,68.8 C96.5,68.8 121.3,44.1 121.3,13.6 L121.3,10.6 L10.9,10.6 Z"/></g></g><g><g transform="translate(722.000000, 166.000000)"><rect id="Rectangle" width="120.3" height="122" x="5.2" y="5.6" fill="#F3F6E6"/><path id="Shape" fill="#383A48" d="M125.5,132.6 L5.2,132.6 C2.4,132.6 0.2,130.4 0.2,127.6 L0.2,5.6 C0.2,2.8 2.4,0.6 5.2,0.6 L125.5,0.6 C128.3,0.6 130.5,2.8 130.5,5.6 L130.5,127.6 C130.5,130.4 128.3,132.6 125.5,132.6 Z M10.2,122.6 L120.5,122.6 L120.5,10.6 L10.2,10.6 L10.2,122.6 Z"/></g><g transform="translate(722.000000, 166.000000) translate(0.000000, 122.000000)"><path id="Path" fill="#F3F6E6" d="M65.4,73.8 L65.4,73.8 C98.6,73.8 125.6,46.9 125.6,13.6 L125.6,5.6 L5.29972209,5.6 L5.29972209,13.6 C5.2,46.8 32.1,73.8 65.4,73.8 Z"/><path id="Shape" fill="#383A48" d="M65.4,78.8 C29.5,78.8 0.2,49.6 0.2,13.6 L0.2,5.6 C0.2,2.8 2.4,0.6 5.2,0.6 L125.5,0.6 C128.3,0.6 130.5,2.8 130.5,5.6 L130.5,13.6 C130.5,49.5 101.3,78.8 65.4,78.8 Z M10.2,10.6 L10.2,13.6 C10.2,44 34.9,68.8 65.4,68.8 C95.8,68.8 120.6,44.1 120.6,13.6 L120.6,10.6 L10.2,10.6 Z"/></g></g><g transform="translate(421.000000, 446.000000)"><rect id="Rectangle" width="157.7" height="231.8" x="5.5" y="5.5" fill="#AAC6FC"/><path id="Shape" fill="#383A48" d="M163.2,242.2 L5.5,242.2 C2.7,242.2 0.5,240 0.5,237.2 L0.5,5.5 C0.5,2.7 2.7,0.5 5.5,0.5 L163.2,0.5 C166,0.5 168.2,2.7 168.2,5.5 L168.2,237.3 C168.2,240 166,242.2 163.2,242.2 Z M10.5,232.2 L158.2,232.2 L158.2,10.5 L10.5,10.5 L10.5,232.2 Z"/></g><g transform="translate(263.000000, 446.000000)"><rect id="Rectangle" width="157.9" height="231.8" x="5.4" y="5.5" fill="#AAC6FC"/><path id="Shape" fill="#383A48" d="M163.3,242.2 L5.4,242.2 C2.6,242.2 0.4,240 0.4,237.2 L0.4,5.5 C0.4,2.7 2.6,0.5 5.4,0.5 L163.3,0.5 C166.1,0.5 168.3,2.7 168.3,5.5 L168.3,237.3 C168.3,240 166.1,242.2 163.3,242.2 Z M10.4,232.2 L158.3,232.2 L158.3,10.5 L10.4,10.5 L10.4,232.2 Z"/></g><g><g transform="translate(51.000000, 57.000000)"><circle id="Oval" cx="32" cy="31.4" r="26.3" fill="#E0719E"/><path id="Shape" fill="#383A48" d="M32,62.7 C14.7,62.7 0.7,48.7 0.7,31.4 C0.7,14.1 14.7,0.1 32,0.1 C49.3,0.1 63.3,14.1 63.3,31.4 C63.3,48.7 49.3,62.7 32,62.7 Z M32,10.1 C20.3,10.1 10.7,19.7 10.7,31.4 C10.7,43.1 20.3,52.7 32,52.7 C43.7,52.7 53.3,43.1 53.3,31.4 C53.3,19.7 43.7,10.1 32,10.1 Z"/></g><g transform="translate(51.000000, 57.000000) translate(81.000000, 0.000000)"><circle id="Oval" cx="31.5" cy="31.4" r="26.3" fill="#F6E049"/><path id="Shape" fill="#383A48" d="M31.5,62.7 C14.2,62.7 0.2,48.7 0.2,31.4 C0.2,14.1 14.2,0.1 31.5,0.1 C48.8,0.1 62.8,14.1 62.8,31.4 C62.8,48.7 48.8,62.7 31.5,62.7 Z M31.5,10.1 C19.8,10.1 10.2,19.7 10.2,31.4 C10.2,43.1 19.8,52.7 31.5,52.7 C43.2,52.7 52.8,43.1 52.8,31.4 C52.8,19.7 43.2,10.1 31.5,10.1 Z"/></g><g transform="translate(51.000000, 57.000000) translate(161.000000, 0.000000)"><circle id="Oval" cx="32" cy="31.4" r="26.3" fill="#7FD6C2"/><path id="Shape" fill="#383A48" d="M32,62.7 C14.7,62.7 0.7,48.7 0.7,31.4 C0.7,14.1 14.7,0.1 32,0.1 C49.3,0.1 63.3,14.1 63.3,31.4 C63.3,48.7 49.3,62.7 32,62.7 Z M32,10.1 C20.3,10.1 10.7,19.7 10.7,31.4 C10.7,43.1 20.3,52.7 32,52.7 C43.7,52.7 53.3,43.1 53.3,31.4 C53.3,19.7 43.7,10.1 32,10.1 Z"/></g></g><g transform="translate(263.000000, 413.000000)"><rect id="Rectangle" width="315.8" height="32.6" x="5.4" y="5.9" fill="#F6E049"/><path id="Shape" fill="#383A48" d="M321.2,43.5 L5.4,43.5 C2.6,43.5 0.4,41.3 0.4,38.5 L0.4,5.9 C0.4,3.1 2.6,0.9 5.4,0.9 L321.2,0.9 C324,0.9 326.2,3.1 326.2,5.9 L326.2,38.5 C326.2,41.2 324,43.5 321.2,43.5 Z M10.4,33.5 L316.2,33.5 L316.2,10.9 L10.4,10.9 L10.4,33.5 Z"/></g></g><g id="Oval" fill="#383A48" fill-rule="nonzero" transform="translate(1072.000000, 275.000000)"><circle cx="473.9" cy="251.6" r="5"/><circle cx="473.9" cy="424.3" r="5"/><circle cx="473.9" cy="449" r="5"/><circle cx="449.3" cy="227" r="5"/><circle cx="449.3" cy="251.6" r="5"/><circle cx="449.3" cy="399.6" r="5"/><circle cx="449.3" cy="424.3" r="5"/><circle cx="449.3" cy="449" r="5"/><circle cx="449.3" cy="473.6" r="5"/><circle cx="424.6" cy="227" r="5"/><circle cx="424.6" cy="251.6" r="5"/><circle cx="424.6" cy="276.3" r="5"/><circle cx="424.6" cy="375" r="5"/><circle cx="424.6" cy="399.6" r="5"/><circle cx="424.6" cy="424.3" r="5"/><circle cx="424.6" cy="449" r="5"/><circle cx="424.6" cy="473.6" r="5"/><circle cx="424.6" cy="498.3" r="5"/><circle cx="399.9" cy="202.3" r="5"/><circle cx="399.9" cy="227" r="5"/><circle cx="399.9" cy="251.6" r="5"/><circle cx="399.9" cy="276.3" r="5"/><circle cx="399.9" cy="350.3" r="5"/><circle cx="399.9" cy="375" r="5"/><circle cx="399.9" cy="399.6" r="5"/><circle cx="399.9" cy="424.3" r="5"/><circle cx="399.9" cy="449" r="5"/><circle cx="399.9" cy="473.6" r="5"/><circle cx="399.9" cy="498.3" r="5"/><circle cx="375.3" cy="177.6" r="5"/><circle cx="375.3" cy="202.3" r="5"/><circle cx="375.3" cy="227" r="5"/><circle cx="375.3" cy="251.6" r="5"/><circle cx="375.3" cy="276.3" r="5"/><circle cx="375.3" cy="301" r="5"/><circle cx="375.3" cy="325.6" r="5"/><circle cx="375.3" cy="350.3" r="5"/><circle cx="375.3" cy="375" r="5"/><circle cx="375.3" cy="399.6" r="5"/><circle cx="375.3" cy="424.3" r="5"/><circle cx="375.3" cy="449" r="5"/><circle cx="375.3" cy="473.6" r="5"/><circle cx="375.3" cy="498.3" r="5"/><circle cx="350.6" cy="177.6" r="5"/><circle cx="350.6" cy="202.3" r="5"/><circle cx="350.6" cy="227" r="5"/><circle cx="350.6" cy="251.6" r="5"/><circle cx="350.6" cy="276.3" r="5"/><circle cx="350.6" cy="301" r="5"/><circle cx="350.6" cy="325.6" r="5"/><circle cx="350.6" cy="350.3" r="5"/><circle cx="350.6" cy="375" r="5"/><circle cx="350.6" cy="399.6" r="5"/><circle cx="350.6" cy="424.3" r="5"/><circle cx="350.6" cy="449" r="5"/><circle cx="350.6" cy="473.6" r="5"/><circle cx="350.6" cy="498.3" r="5"/><circle cx="325.9" cy="153" r="5"/><circle cx="325.9" cy="177.6" r="5"/><circle cx="325.9" cy="202.3" r="5"/><circle cx="325.9" cy="227" r="5"/><circle cx="325.9" cy="251.6" r="5"/><circle cx="325.9" cy="276.3" r="5"/><circle cx="325.9" cy="301" r="5"/><circle cx="325.9" cy="325.6" r="5"/><circle cx="325.9" cy="350.3" r="5"/><circle cx="325.9" cy="375" r="5"/><circle cx="325.9" cy="399.6" r="5"/><circle cx="325.9" cy="424.3" r="5"/><circle cx="325.9" cy="449" r="5"/><circle cx="325.9" cy="473.6" r="5"/><circle cx="325.9" cy="498.3" r="5"/><circle cx="301.3" cy="128.3" r="5"/><circle cx="301.3" cy="153" r="5"/><circle cx="301.3" cy="177.6" r="5"/><circle cx="301.3" cy="202.3" r="5"/><circle cx="301.3" cy="227" r="5"/><circle cx="301.3" cy="251.6" r="5"/><circle cx="301.3" cy="276.3" r="5"/><circle cx="301.3" cy="301" r="5"/><circle cx="301.3" cy="325.6" r="5"/><circle cx="301.3" cy="350.3" r="5"/><circle cx="301.3" cy="375" r="5"/><circle cx="301.3" cy="399.6" r="5"/><circle cx="301.3" cy="424.3" r="5"/><circle cx="301.3" cy="449" r="5"/><circle cx="301.3" cy="473.6" r="5"/><circle cx="276.6" cy="128.3" r="5"/><circle cx="276.6" cy="153" r="5"/><circle cx="276.6" cy="177.6" r="5"/><circle cx="276.6" cy="202.3" r="5"/><circle cx="276.6" cy="227" r="5"/><circle cx="276.6" cy="251.6" r="5"/><circle cx="276.6" cy="276.3" r="5"/><circle cx="276.6" cy="301" r="5"/><circle cx="276.6" cy="325.6" r="5"/><circle cx="276.6" cy="350.3" r="5"/><circle cx="276.6" cy="375" r="5"/><circle cx="276.6" cy="399.6" r="5"/><circle cx="276.6" cy="424.3" r="5"/><circle cx="276.6" cy="449" r="5"/><circle cx="251.9" cy="103.6" r="5"/><circle cx="251.9" cy="128.3" r="5"/><circle cx="251.9" cy="153" r="5"/><circle cx="251.9" cy="177.6" r="5"/><circle cx="251.9" cy="202.3" r="5"/><circle cx="251.9" cy="227" r="5"/><circle cx="251.9" cy="251.6" r="5"/><circle cx="251.9" cy="276.3" r="5"/><circle cx="251.9" cy="301" r="5"/><circle cx="251.9" cy="325.6" r="5"/><circle cx="251.9" cy="350.3" r="5"/><circle cx="251.9" cy="375" r="5"/><circle cx="251.9" cy="399.6" r="5"/><circle cx="227.3" cy="79" r="5"/><circle cx="227.3" cy="103.6" r="5"/><circle cx="227.3" cy="128.3" r="5"/><circle cx="227.3" cy="153" r="5"/><circle cx="227.3" cy="177.6" r="5"/><circle cx="227.3" cy="202.3" r="5"/><circle cx="227.3" cy="227" r="5"/><circle cx="227.3" cy="251.6" r="5"/><circle cx="227.3" cy="276.3" r="5"/><circle cx="227.3" cy="301" r="5"/><circle cx="227.3" cy="325.6" r="5"/><circle cx="227.3" cy="350.3" r="5"/><circle cx="227.3" cy="375" r="5"/><circle cx="202.6" cy="79" r="5"/><circle cx="202.6" cy="103.6" r="5"/><circle cx="202.6" cy="128.3" r="5"/><circle cx="202.6" cy="153" r="5"/><circle cx="202.6" cy="177.6" r="5"/><circle cx="202.6" cy="202.3" r="5"/><circle cx="202.6" cy="227" r="5"/><circle cx="202.6" cy="251.6" r="5"/><circle cx="202.6" cy="276.3" r="5"/><circle cx="202.6" cy="301" r="5"/><circle cx="202.6" cy="325.6" r="5"/><circle cx="202.6" cy="350.3" r="5"/><circle cx="177.9" cy="54.3" r="5"/><circle cx="177.9" cy="79" r="5"/><circle cx="177.9" cy="103.6" r="5"/><circle cx="177.9" cy="128.3" r="5"/><circle cx="177.9" cy="153" r="5"/><circle cx="177.9" cy="177.6" r="5"/><circle cx="177.9" cy="202.3" r="5"/><circle cx="177.9" cy="227" r="5"/><circle cx="177.9" cy="251.6" r="5"/><circle cx="177.9" cy="276.3" r="5"/><circle cx="177.9" cy="301" r="5"/><circle cx="177.9" cy="325.6" r="5"/><circle cx="177.9" cy="350.3" r="5"/><circle cx="153.3" cy="54.3" r="5"/><circle cx="153.3" cy="79" r="5"/><circle cx="153.3" cy="103.6" r="5"/><circle cx="153.3" cy="128.3" r="5"/><circle cx="153.3" cy="153" r="5"/><circle cx="153.3" cy="177.6" r="5"/><circle cx="153.3" cy="202.3" r="5"/><circle cx="153.3" cy="227" r="5"/><circle cx="153.3" cy="251.6" r="5"/><circle cx="153.3" cy="276.3" r="5"/><circle cx="153.3" cy="301" r="5"/><circle cx="153.3" cy="325.6" r="5"/><circle cx="153.3" cy="350.3" r="5"/><circle cx="128.6" cy="29.6" r="5"/><circle cx="128.6" cy="54.3" r="5"/><circle cx="128.6" cy="79" r="5"/><circle cx="128.6" cy="103.6" r="5"/><circle cx="128.6" cy="128.3" r="5"/><circle cx="128.6" cy="153" r="5"/><circle cx="128.6" cy="177.6" r="5"/><circle cx="128.6" cy="202.3" r="5"/><circle cx="128.6" cy="227" r="5"/><circle cx="128.6" cy="251.6" r="5"/><circle cx="128.6" cy="276.3" r="5"/><circle cx="128.6" cy="301" r="5"/><circle cx="128.6" cy="325.6" r="5"/><circle cx="128.6" cy="350.3" r="5"/><circle cx="103.9" cy="5" r="5"/><circle cx="103.9" cy="29.6" r="5"/><circle cx="103.9" cy="54.3" r="5"/><circle cx="103.9" cy="79" r="5"/><circle cx="103.9" cy="103.6" r="5"/><circle cx="103.9" cy="128.3" r="5"/><circle cx="103.9" cy="153" r="5"/><circle cx="103.9" cy="177.6" r="5"/><circle cx="103.9" cy="202.3" r="5"/><circle cx="103.9" cy="227" r="5"/><circle cx="103.9" cy="251.6" r="5"/><circle cx="103.9" cy="276.3" r="5"/><circle cx="103.9" cy="301" r="5"/><circle cx="103.9" cy="325.6" r="5"/><circle cx="79.3" cy="5" r="5"/><circle cx="79.3" cy="29.6" r="5"/><circle cx="79.3" cy="54.3" r="5"/><circle cx="79.3" cy="79" r="5"/><circle cx="79.3" cy="103.6" r="5"/><circle cx="79.3" cy="128.3" r="5"/><circle cx="79.3" cy="153" r="5"/><circle cx="79.3" cy="177.6" r="5"/><circle cx="79.3" cy="202.3" r="5"/><circle cx="79.3" cy="227" r="5"/><circle cx="54.6" cy="5" r="5"/><circle cx="54.6" cy="29.6" r="5"/><circle cx="54.6" cy="54.3" r="5"/><circle cx="54.6" cy="79" r="5"/><circle cx="54.6" cy="103.6" r="5"/><circle cx="54.6" cy="128.3" r="5"/><circle cx="54.6" cy="153" r="5"/><circle cx="29.9" cy="5" r="5"/><circle cx="29.9" cy="29.6" r="5"/><circle cx="29.9" cy="54.3" r="5"/><circle cx="29.9" cy="79" r="5"/><circle cx="5.3" cy="5" r="5"/><circle cx="5.3" cy="29.6" r="5"/></g><g fill-rule="nonzero" transform="translate(1053.000000, 266.000000)"><polygon id="Path" fill="#F3F6E6" points="419.7 248.5 5.5 5.6 138.2 467.1 214 358.5 333.3 517.1 408.6 458.7 289.7 300.8"/><path id="Shape" fill="#383A48" d="M333.3,522.1 C333.1,522.1 332.9,522.1 332.6,522.1 C331.3,521.9 330.1,521.2 329.3,520.2 L214.1,367 L142.3,470 C141.2,471.6 139.3,472.4 137.4,472.1 C135.5,471.8 133.9,470.4 133.4,468.5 L0.7,7 C0.1,5 0.8,2.9 2.4,1.7 C4,0.4 6.2,0.3 8,1.3 L422.2,244.2 C423.8,245.2 424.8,247 424.7,248.9 C424.6,250.8 423.3,252.5 421.6,253.2 L297.7,303 L412.6,455.7 C414.2,457.9 413.8,461 411.7,462.7 L336.5,521.1 C335.5,521.8 334.5,522.1 333.3,522.1 Z M214,353.5 C215.6,353.5 217,354.2 218,355.5 L334.3,510.1 L401.6,457.8 L285.7,303.8 C284.8,302.6 284.5,301 284.9,299.5 C285.3,298 286.4,296.8 287.9,296.2 L408.4,247.7 L13.8,16.3 L140.1,455.7 L209.9,355.7 C210.8,354.3 212.3,353.6 214,353.5 C213.9,353.5 214,353.5 214,353.5 Z"/></g><path id="Path" fill="#383A48" fill-rule="nonzero" d="M1386.3,788.2 L1058.5,788.2 C1055.7,788.2 1053.5,786 1053.5,783.2 C1053.5,780.4 1055.7,778.2 1058.5,778.2 L1386.3,778.2 C1389.1,778.2 1391.3,780.4 1391.3,783.2 C1391.3,786 1389.1,788.2 1386.3,788.2 Z"/><g><g transform="translate(1518.000000, 332.000000) translate(0.000000, 12.000000)"><line id="Path" x1=".6" x2="33.6" y1="5.1" y2="5.1"/><rect id="Rectangle" width="33" height="10" x=".6" y=".1" fill="#383A48" fill-rule="nonzero"/></g><g transform="translate(1518.000000, 332.000000) translate(12.000000, 0.000000)"><line id="Path" x1="5.1" x2="5.1" y1="33.6" y2=".6"/><rect id="Rectangle" width="10" height="33" x=".1" y=".6" fill="#383A48" fill-rule="nonzero"/></g></g><g><g transform="translate(587.000000, 30.000000) translate(0.000000, 11.000000)"><line id="Path" x1=".7" x2="33.7" y1="5.9" y2="5.9"/><rect id="Rectangle" width="33" height="10" x=".7" y=".9" fill="#383A48" fill-rule="nonzero"/></g><g transform="translate(587.000000, 30.000000) translate(12.000000, 0.000000)"><line id="Path" x1="5.2" x2="5.2" y1="33.4" y2=".4"/><rect id="Rectangle" width="10" height="33" x=".2" y=".4" fill="#383A48" fill-rule="nonzero"/></g></g><g><g transform="translate(41.000000, 502.000000) translate(0.000000, 11.000000)"><line id="Path" x1=".7" x2="33.7" y1="5.9" y2="5.9"/><rect id="Rectangle" width="33" height="10" x=".7" y=".9" fill="#383A48" fill-rule="nonzero"/></g><g transform="translate(41.000000, 502.000000) translate(12.000000, 0.000000)"><line id="Path" x1="5.2" x2="5.2" y1="33.4" y2=".4"/><rect id="Rectangle" width="10" height="33" x=".2" y=".4" fill="#383A48" fill-rule="nonzero"/></g></g><g><g transform="translate(921.000000, 633.000000) translate(0.000000, 12.000000)"><line id="Path" x1=".7" x2="33.7" y1="5.3" y2="5.3"/><rect id="Rectangle" width="33" height="10" x=".7" y=".3" fill="#383A48" fill-rule="nonzero"/></g><g transform="translate(921.000000, 633.000000) translate(12.000000, 0.000000)"><line id="Path" x1="5.2" x2="5.2" y1="33.8" y2=".8"/><rect id="Rectangle" width="10" height="33" x=".2" y=".8" fill="#383A48" fill-rule="nonzero"/></g></g><g fill-rule="nonzero" transform="translate(1234.000000, 66.000000)"><path id="Path" fill="#F6E049" d="M145.7,206.2 L50.2,158.9 C10.4,138.6 -5.5,89.9 14.8,50.1 L14.8,50.1 C35.1,10.3 83.8,-5.6 123.6,14.7 L219.1,62 C258.9,82.3 274.8,131 254.5,170.8 L254.5,170.8 C234.2,210.6 185.5,226.5 145.7,206.2 Z"/><path id="Shape" fill="#383A48" d="M182.3,220.1 C168.9,220.1 155.7,217 143.5,210.7 L48,163.4 C27.5,153 12.3,135.2 5.2,113.4 C-1.9,91.6 -0.1,68.3 10.3,47.9 C20.7,27.5 38.5,12.3 60.3,5.2 C82.1,-1.9 105.4,-0.1 125.8,10.3 L221.3,57.6 C263.6,79.1 280.4,130.9 258.9,173.1 C248.5,193.5 230.7,208.7 208.9,215.8 C200.2,218.7 191.2,220.1 182.3,220.1 Z M86.9,10.9 C79,10.9 71.1,12.1 63.3,14.7 C44,21 28.3,34.4 19.1,52.4 C9.9,70.5 8.3,91 14.6,110.3 C20.9,129.6 34.3,145.3 52.3,154.5 L147.8,201.8 L147.8,201.8 C165.9,211 186.4,212.6 205.7,206.3 C225,200 240.7,186.6 249.9,168.6 C268.9,131.3 254,85.5 216.7,66.5 L121.2,19.2 C110.5,13.7 98.7,10.9 86.9,10.9 Z"/><path id="Path" fill="#383A48" d="M187,83.2 C157.6,83.2 133.7,107.1 133.7,136.5 C133.7,165.9 157.6,189.7 187,189.7 C216.4,189.7 240.2,165.8 240.2,136.5 C240.2,107.2 216.3,83.2 187,83.2 Z"/></g><path id="Path" fill="#383A48" fill-rule="nonzero" d="M103,156.5 C100.4,156.5 98.3,154.5 98,151.9 C97.8,149.1 99.8,146.7 102.5,146.5 L162.2,141.2 C165,141 167.4,143 167.6,145.7 C167.8,148.5 165.8,150.9 163.1,151.1 L103.4,156.4 C103.2,156.5 103.1,156.5 103,156.5 Z"/><path id="Path" fill="#383A48" fill-rule="nonzero" d="M166,119.1 C165.5,119.1 165,119 164.5,118.9 L107.3,101 C104.7,100.2 103.2,97.4 104,94.7 C104.8,92.1 107.6,90.6 110.3,91.4 L167.5,109.2 C170.1,110 171.6,112.8 170.8,115.5 C170.1,117.7 168.1,119.1 166,119.1 Z"/><path id="Path" fill="#383A48" fill-rule="nonzero" d="M182.4,95.2 C181.2,95.2 180.1,94.8 179.1,94 L134,54.5 C131.9,52.7 131.7,49.5 133.5,47.4 C135.3,45.3 138.5,45.1 140.6,46.9 L185.7,86.4 C187.8,88.2 188,91.4 186.2,93.5 C185.2,94.6 183.8,95.2 182.4,95.2 Z"/><path id="Path" fill="#383A48" fill-rule="nonzero" d="M103,659.5 C101.5,659.5 100.1,658.9 99.1,657.6 C97.4,655.4 97.7,652.3 99.9,650.6 L280.4,505.7 C282.6,504 285.7,504.3 287.4,506.5 C289.1,508.7 288.8,511.8 286.6,513.5 L106.1,658.4 C105.2,659.1 104.1,659.5 103,659.5 Z"/></g></g></g></svg>