<?xml version="1.0" encoding="utf-8"?>
<!-- Generator: Adobe Illustrator 22.0.1, SVG Export Plug-In . SVG Version: 6.00 Build 0)  -->
<svg version="1.1" id="Layer_1" xmlns="http://www.w3.org/2000/svg" xmlns:xlink="http://www.w3.org/1999/xlink" x="0px" y="0px" viewBox="0 0 1920 1080" style="enable-background:new 0 0 1920 1080;" xml:space="preserve">

<rect y="0" width="1920" height="1080" style="fill:#AAC6FC;"/>
<g>
	<path d="M946.5,270.8H840.8H735.1H629.3H523.6H417.8H312.1H206.4c-2.8,0-5,2.2-5,5v105.7v105.7V593v105.7v105.7v105.7
		c0,2.8,2.2,5,5,5h105.7h105.7h105.7h105.7h105.7h105.7h105.7c2.8,0,5-2.2,5-5V804.5V698.7V593V487.3V381.5V275.8
		C951.5,273,949.3,270.8,946.5,270.8z M941.5,482.3h-95.7v-95.7h95.7V482.3z M941.5,588h-95.7v-95.7h95.7V588z M941.5,693.7h-95.7
		V598h95.7V693.7z M211.4,598h95.7v95.7h-95.7L211.4,598L211.4,598z M211.4,492.3h95.7V588h-95.7L211.4,492.3L211.4,492.3z
		 M835.8,588h-95.7v-95.7h95.7V588z M730.1,588h-95.7v-95.7h95.7V588z M624.3,588h-95.7v-95.7h95.7V588z M518.6,588h-95.7v-95.7
		h95.7V588z M412.8,588h-95.7v-95.7h95.7V588z M317.1,598h95.7v95.7h-95.7L317.1,598L317.1,598z M422.8,598h95.7v95.7h-95.7V598z
		 M528.6,598h95.7v95.7h-95.7V598z M634.3,598H730v95.7h-95.7V598z M740.1,598h95.7v95.7h-95.7V598z M835.8,482.3h-95.7v-95.7h95.7
		V482.3z M730.1,482.3h-95.7v-95.7h95.7V482.3z M624.3,482.3h-95.7v-95.7h95.7V482.3z M518.6,482.3h-95.7v-95.7h95.7V482.3z
		 M412.8,482.3h-95.7v-95.7h95.7V482.3z M307.1,482.3h-95.7v-95.7h95.7V482.3z M211.4,703.7h95.7v95.7h-95.7L211.4,703.7
		L211.4,703.7z M317.1,703.7h95.7v95.7h-95.7L317.1,703.7L317.1,703.7z M422.8,703.7h95.7v95.7h-95.7V703.7z M528.6,703.7h95.7v95.7
		h-95.7V703.7z M634.3,703.7H730v95.7h-95.7V703.7z M740.1,703.7h95.7v95.7h-95.7V703.7z M845.8,703.7h95.7v95.7h-95.7V703.7z
		 M941.5,376.5h-95.7v-95.7h95.7V376.5z M835.8,376.5h-95.7v-95.7h95.7V376.5z M730.1,376.5h-95.7v-95.7h95.7V376.5z M624.3,376.5
		h-95.7v-95.7h95.7V376.5z M518.6,376.5h-95.7v-95.7h95.7V376.5z M412.8,376.5h-95.7v-95.7h95.7V376.5z M211.4,280.8h95.7v95.7
		h-95.7L211.4,280.8L211.4,280.8z M211.4,809.5h95.7v95.7h-95.7L211.4,809.5L211.4,809.5z M317.1,809.5h95.7v95.7h-95.7L317.1,809.5
		L317.1,809.5z M422.8,809.5h95.7v95.7h-95.7V809.5z M528.6,809.5h95.7v95.7h-95.7V809.5z M634.3,809.5H730v95.7h-95.7V809.5z
		 M740.1,809.5h95.7v95.7h-95.7V809.5z M941.5,905.2h-95.7v-95.7h95.7V905.2z" style="fill:#7EA9EA;"/>
	<path d="M619.2,127.6H206.4c-2.8,0-5,2.2-5,5v370.6c0,1.5,0.6,2.8,1.7,3.8c0.9,0.8,2.1,1.2,3.3,1.2
		c0.3,0,0.5,0,0.8-0.1c74.1-11.4,132.5-91.4,194.4-176.2c64.5-88.3,131.1-179.7,218.6-194.4c2.6-0.4,4.4-2.8,4.2-5.3
		S621.8,127.6,619.2,127.6z" style="fill:#F3F6E6;"/>
	<path d="M1511.6,127.6H1117c-53,0-91.5,15.7-121.3,49.4c-26.4,29.9-43,70.9-60.6,114.4c-19.9,49.2-40.4,100-77.9,145.6
		c-42.6,52-100.3,87.3-176.2,108c-73.4,20-138.5,93.4-207.3,171c-82,92.4-166.7,188-267.4,189.2c-2.8,0-5,2.3-4.9,5c0,2.8,2.2,5,5,5
		h396.7c105.1-1.2,190.7-98.5,273.5-192.5c67.4-76.6,131.1-148.9,201.7-168.1c75.6-20.6,131.9-55.6,172-107
		c35.1-44.9,52.9-94.9,70.1-143.3c15.9-44.8,31-87.1,58.3-117.5c30.2-33.6,72.4-49.2,132.9-49.2c2.8,0,5-2.2,5-5
		S1514.3,127.6,1511.6,127.6z" style="fill:#F3F6E6;"/>
	<g>
		<g id="XMLID_6_">
			<rect x="417.4" y="269.5" width="842.1" height="640.7" style="fill:#F3F6E6;"/>
			<path d="M1259.5,915.2H417.4c-2.8,0-5-2.2-5-5V269.5c0-2.8,2.2-5,5-5h842.1c2.8,0,5,2.2,5,5v640.7
				C1264.5,913,1262.3,915.2,1259.5,915.2z M422.4,905.2h832.1V274.5H422.4V905.2z" style="fill:#383A48;"/>
		</g>
		<g>
			<rect x="417.4" y="232.1" width="842.1" height="166.5" style="fill:#F6E049;"/>
			<path d="M1259.5,403.6H417.4c-2.8,0-5-2.2-5-5V232.1c0-2.8,2.2-5,5-5h842.1c2.8,0,5,2.2,5,5v166.5
				C1264.5,401.4,1262.3,403.6,1259.5,403.6z M422.4,393.6h832.1V237.1H422.4V393.6z" style="fill:#383A48;"/>
		</g>
		<g>
			<g>
				<rect x="417.4" y="398.6" width="120.3" height="122" style="fill:#F3F6E6;"/>
				<path d="M537.7,525.6H417.4c-2.8,0-5-2.2-5-5v-122c0-2.8,2.2-5,5-5h120.3c2.8,0,5,2.2,5,5v122
					C542.7,523.4,540.4,525.6,537.7,525.6z M422.4,515.6h110.3v-112H422.4V515.6z" style="fill:#383A48;"/>
			</g>
			<g>
				<path d="M477.5,588.8L477.5,588.8c33.2,0,60.2-26.9,60.2-60.2v-8H417.4v8C417.4,561.8,444.3,588.8,477.5,588.8z" style="fill:#F3F6E6;"/>
				<path d="M477.5,593.8c-35.9,0-65.2-29.2-65.2-65.2v-8c0-2.8,2.2-5,5-5h120.3c2.8,0,5,2.2,5,5v8
					C542.7,564.5,513.5,593.8,477.5,593.8z M422.4,525.6v3c0,30.4,24.7,55.2,55.2,55.2c30.4,0,55.2-24.7,55.2-55.2v-3H422.4z" style="fill:#383A48;"/>
			</g>
		</g>
		<g>
			<g>
				<rect x="537.7" y="398.6" width="120.3" height="122" style="fill:#E0719E;"/>
				<path d="M658,525.6H537.7c-2.8,0-5-2.2-5-5v-122c0-2.8,2.2-5,5-5H658c2.8,0,5,2.2,5,5v122
					C663,523.4,660.7,525.6,658,525.6z M542.7,515.6H653v-112H542.7V515.6z" style="fill:#383A48;"/>
			</g>
			<g>
				<path d="M597.8,588.8L597.8,588.8c33.2,0,60.2-26.9,60.2-60.2v-8H537.7v8C537.7,561.8,564.6,588.8,597.8,588.8z" style="fill:#E0719E;"/>
				<path d="M597.8,593.8c-35.9,0-65.2-29.2-65.2-65.2v-8c0-2.8,2.2-5,5-5H658c2.8,0,5,2.2,5,5v8
					C663,564.5,633.8,593.8,597.8,593.8z M542.7,525.6v3c0,30.4,24.7,55.2,55.2,55.2c30.4,0,55.2-24.7,55.2-55.2v-3H542.7z" style="fill:#383A48;"/>
			</g>
		</g>
		<g>
			<g>
				<rect x="658" y="398.6" width="120.3" height="122" style="fill:#F3F6E6;"/>
				<path d="M778.3,525.6H658c-2.8,0-5-2.2-5-5v-122c0-2.8,2.2-5,5-5h120.3c2.8,0,5,2.2,5,5v122
					C783.3,523.4,781.1,525.6,778.3,525.6z M663,515.6h110.3v-112H663V515.6z" style="fill:#383A48;"/>
			</g>
			<g>
				<path d="M718.1,588.8L718.1,588.8c33.2,0,60.2-26.9,60.2-60.2v-8H658v8C658,561.8,684.9,588.8,718.1,588.8z" style="fill:#F3F6E6;"/>
				<path d="M718.1,593.8c-35.9,0-65.2-29.2-65.2-65.2v-8c0-2.8,2.2-5,5-5h120.3c2.8,0,5,2.2,5,5v8
					C783.3,564.5,754.1,593.8,718.1,593.8z M663,525.6v3c0,30.4,24.7,55.2,55.2,55.2c30.4,0,55.2-24.7,55.2-55.2v-3H663z" style="fill:#383A48;"/>
			</g>
		</g>
		<g>
			<g>
				<rect x="778.3" y="398.6" width="120.3" height="122" style="fill:#E0719E;"/>
				<path d="M898.6,525.6H778.3c-2.8,0-5-2.2-5-5v-122c0-2.8,2.2-5,5-5h120.3c2.8,0,5,2.2,5,5v122
					C903.6,523.4,901.4,525.6,898.6,525.6z M783.3,515.6h110.3v-112H783.3V515.6z" style="fill:#383A48;"/>
			</g>
			<g>
				<path d="M838.4,588.8L838.4,588.8c33.2,0,60.2-26.9,60.2-60.2v-8H778.3v8C778.3,561.8,805.2,588.8,838.4,588.8z" style="fill:#E0719E;"/>
				<path d="M838.4,593.8c-35.9,0-65.2-29.2-65.2-65.2v-8c0-2.8,2.2-5,5-5h120.3c2.8,0,5,2.2,5,5v8
					C903.6,564.5,874.4,593.8,838.4,593.8z M783.3,525.6v3c0,30.4,24.7,55.2,55.2,55.2s55.2-24.7,55.2-55.2v-3H783.3z" style="fill:#383A48;"/>
			</g>
		</g>
		<g>
			<g>
				<rect x="898.6" y="398.6" width="120.3" height="122" style="fill:#F3F6E6;"/>
				<path d="M1018.9,525.6H898.6c-2.8,0-5-2.2-5-5v-122c0-2.8,2.2-5,5-5h120.3c2.8,0,5,2.2,5,5v122
					C1023.9,523.4,1021.7,525.6,1018.9,525.6z M903.6,515.6h110.3v-112H903.6V515.6z" style="fill:#383A48;"/>
			</g>
			<g>
				<path d="M958.7,588.8L958.7,588.8c33.2,0,60.2-26.9,60.2-60.2v-8H898.6v8C898.6,561.8,925.5,588.8,958.7,588.8z" style="fill:#F3F6E6;"/>
				<path d="M958.7,593.8c-35.9,0-65.2-29.2-65.2-65.2v-8c0-2.8,2.2-5,5-5h120.3c2.8,0,5,2.2,5,5v8
					C1023.9,564.5,994.7,593.8,958.7,593.8z M903.6,525.6v3c0,30.4,24.7,55.2,55.2,55.2c30.4,0,55.2-24.7,55.2-55.2v-3H903.6z" style="fill:#383A48;"/>
			</g>
		</g>
		<g>
			<g>
				<rect x="1018.9" y="398.6" width="120.3" height="122" style="fill:#E0719E;"/>
				<path d="M1139.2,525.6h-120.3c-2.8,0-5-2.2-5-5v-122c0-2.8,2.2-5,5-5h120.3c2.8,0,5,2.2,5,5v122
					C1144.2,523.4,1142,525.6,1139.2,525.6z M1023.9,515.6h110.3v-112h-110.3L1023.9,515.6L1023.9,515.6z" style="fill:#383A48;"/>
			</g>
			<g>
				<path d="M1079,588.8L1079,588.8c33.2,0,60.2-26.9,60.2-60.2v-8h-120.3v8C1018.9,561.8,1045.8,588.8,1079,588.8z" style="fill:#E0719E;"/>
				<path d="M1079,593.8c-35.9,0-65.2-29.2-65.2-65.2v-8c0-2.8,2.2-5,5-5h120.3c2.8,0,5,2.2,5,5v8
					C1144.2,564.5,1115,593.8,1079,593.8z M1023.9,525.6v3c0,30.4,24.7,55.2,55.2,55.2c30.4,0,55.2-24.7,55.2-55.2v-3H1023.9z" style="fill:#383A48;"/>
			</g>
		</g>
		<g>
			<g>
				<rect x="1139.2" y="398.6" width="120.3" height="122" style="fill:#F3F6E6;"/>
				<path d="M1259.5,525.6h-120.3c-2.8,0-5-2.2-5-5v-122c0-2.8,2.2-5,5-5h120.3c2.8,0,5,2.2,5,5v122
					C1264.5,523.4,1262.3,525.6,1259.5,525.6z M1144.2,515.6h110.3v-112h-110.3V515.6z" style="fill:#383A48;"/>
			</g>
			<g>
				<path d="M1199.4,588.8L1199.4,588.8c33.2,0,60.2-26.9,60.2-60.2v-8h-120.3v8
					C1139.2,561.8,1166.1,588.8,1199.4,588.8z" style="fill:#F3F6E6;"/>
				<path d="M1199.4,593.8c-35.9,0-65.2-29.2-65.2-65.2v-8c0-2.8,2.2-5,5-5h120.3c2.8,0,5,2.2,5,5v8
					C1264.5,564.5,1235.3,593.8,1199.4,593.8z M1144.2,525.6v3c0,30.4,24.7,55.2,55.2,55.2c30.4,0,55.2-24.7,55.2-55.2v-3H1144.2z" style="fill:#383A48;"/>
			</g>
		</g>
		<g>
			<rect x="838.5" y="678.5" width="157.7" height="231.8" style="fill:#AAC6FC;"/>
			<path d="M996.2,915.2H838.5c-2.8,0-5-2.2-5-5V678.5c0-2.8,2.2-5,5-5h157.7c2.8,0,5,2.2,5,5v231.8
				C1001.2,913,999,915.2,996.2,915.2z M843.5,905.2h147.7V683.5H843.5V905.2z" style="fill:#383A48;"/>
		</g>
		<g>
			<rect x="680.4" y="678.5" width="157.9" height="231.8" style="fill:#AAC6FC;"/>
			<path d="M838.3,915.2H680.4c-2.8,0-5-2.2-5-5V678.5c0-2.8,2.2-5,5-5h157.9c2.8,0,5,2.2,5,5v231.8
				C843.3,913,841.1,915.2,838.3,915.2z M685.4,905.2h147.9V683.5H685.4V905.2z" style="fill:#383A48;"/>
		</g>
		<g>
			<g>
				<circle cx="495" cy="315.4" r="26.3" style="fill:#E0719E;"/>
				<path d="M495,346.7c-17.3,0-31.3-14-31.3-31.3s14-31.3,31.3-31.3s31.3,14,31.3,31.3S512.3,346.7,495,346.7z
					 M495,294.1c-11.7,0-21.3,9.6-21.3,21.3s9.6,21.3,21.3,21.3s21.3-9.6,21.3-21.3S506.7,294.1,495,294.1z" style="fill:#383A48;"/>
			</g>
			<g>
				<circle cx="575.5" cy="315.4" r="26.3" style="fill:#F6E049;"/>
				<path d="M575.5,346.7c-17.3,0-31.3-14-31.3-31.3s14-31.3,31.3-31.3s31.3,14,31.3,31.3S592.8,346.7,575.5,346.7z
					 M575.5,294.1c-11.7,0-21.3,9.6-21.3,21.3s9.6,21.3,21.3,21.3s21.3-9.6,21.3-21.3S587.2,294.1,575.5,294.1z" style="fill:#383A48;"/>
			</g>
			<g>
				<circle cx="656" cy="315.4" r="26.3" style="fill:#7FD6C2;"/>
				<path d="M656,346.7c-17.3,0-31.3-14-31.3-31.3s14-31.3,31.3-31.3s31.3,14,31.3,31.3S673.3,346.7,656,346.7z
					 M656,294.1c-11.7,0-21.3,9.6-21.3,21.3s9.6,21.3,21.3,21.3s21.3-9.6,21.3-21.3S667.7,294.1,656,294.1z" style="fill:#383A48;"/>
			</g>
		</g>
		<g>
			<rect x="680.4" y="645.9" width="315.8" height="32.6" style="fill:#F6E049;"/>
			<path d="M996.2,683.5H680.4c-2.8,0-5-2.2-5-5v-32.6c0-2.8,2.2-5,5-5h315.8c2.8,0,5,2.2,5,5v32.6
				C1001.2,681.2,999,683.5,996.2,683.5z M685.4,673.5h305.8v-22.6H685.4V673.5z" style="fill:#383A48;"/>
		</g>
	</g>
	<g>
		<g>
			<g>
				<circle cx="1746.9" cy="653.6" r="5" style="fill:#383A48;"/>
			</g>
		</g>
		<g>
			<g>
				<circle cx="1746.9" cy="826.3" r="5" style="fill:#383A48;"/>
			</g>
		</g>
		<g>
			<g>
				<circle cx="1746.9" cy="851" r="5" style="fill:#383A48;"/>
			</g>
		</g>
		<g>
			<g>
				<circle cx="1722.3" cy="629" r="5" style="fill:#383A48;"/>
			</g>
		</g>
		<g>
			<g>
				<circle cx="1722.3" cy="653.6" r="5" style="fill:#383A48;"/>
			</g>
		</g>
		<g>
			<g>
				<circle cx="1722.3" cy="801.6" r="5" style="fill:#383A48;"/>
			</g>
		</g>
		<g>
			<g>
				<circle cx="1722.3" cy="826.3" r="5" style="fill:#383A48;"/>
			</g>
		</g>
		<g>
			<g>
				<circle cx="1722.3" cy="851" r="5" style="fill:#383A48;"/>
			</g>
		</g>
		<g>
			<g>
				<circle cx="1722.3" cy="875.6" r="5" style="fill:#383A48;"/>
			</g>
		</g>
		<g>
			<g>
				<circle cx="1697.6" cy="629" r="5" style="fill:#383A48;"/>
			</g>
		</g>
		<g>
			<g>
				<circle cx="1697.6" cy="653.6" r="5" style="fill:#383A48;"/>
			</g>
		</g>
		<g>
			<g>
				<circle cx="1697.6" cy="678.3" r="5" style="fill:#383A48;"/>
			</g>
		</g>
		<g>
			<g>
				<circle cx="1697.6" cy="777" r="5" style="fill:#383A48;"/>
			</g>
		</g>
		<g>
			<g>
				<circle cx="1697.6" cy="801.6" r="5" style="fill:#383A48;"/>
			</g>
		</g>
		<g>
			<g>
				<circle cx="1697.6" cy="826.3" r="5" style="fill:#383A48;"/>
			</g>
		</g>
		<g>
			<g>
				<circle cx="1697.6" cy="851" r="5" style="fill:#383A48;"/>
			</g>
		</g>
		<g>
			<g>
				<circle cx="1697.6" cy="875.6" r="5" style="fill:#383A48;"/>
			</g>
		</g>
		<g>
			<g>
				<circle cx="1697.6" cy="900.3" r="5" style="fill:#383A48;"/>
			</g>
		</g>
		<g>
			<g>
				<circle cx="1672.9" cy="604.3" r="5" style="fill:#383A48;"/>
			</g>
		</g>
		<g>
			<g>
				<circle cx="1672.9" cy="629" r="5" style="fill:#383A48;"/>
			</g>
		</g>
		<g>
			<g>
				<circle cx="1672.9" cy="653.6" r="5" style="fill:#383A48;"/>
			</g>
		</g>
		<g>
			<g>
				<circle cx="1672.9" cy="678.3" r="5" style="fill:#383A48;"/>
			</g>
		</g>
		<g>
			<g>
				<circle cx="1672.9" cy="752.3" r="5" style="fill:#383A48;"/>
			</g>
		</g>
		<g>
			<g>
				<circle cx="1672.9" cy="777" r="5" style="fill:#383A48;"/>
			</g>
		</g>
		<g>
			<g>
				<circle cx="1672.9" cy="801.6" r="5" style="fill:#383A48;"/>
			</g>
		</g>
		<g>
			<g>
				<circle cx="1672.9" cy="826.3" r="5" style="fill:#383A48;"/>
			</g>
		</g>
		<g>
			<g>
				<circle cx="1672.9" cy="851" r="5" style="fill:#383A48;"/>
			</g>
		</g>
		<g>
			<g>
				<circle cx="1672.9" cy="875.6" r="5" style="fill:#383A48;"/>
			</g>
		</g>
		<g>
			<g>
				<circle cx="1672.9" cy="900.3" r="5" style="fill:#383A48;"/>
			</g>
		</g>
		<g>
			<g>
				<circle cx="1648.3" cy="579.6" r="5" style="fill:#383A48;"/>
			</g>
		</g>
		<g>
			<g>
				<circle cx="1648.3" cy="604.3" r="5" style="fill:#383A48;"/>
			</g>
		</g>
		<g>
			<g>
				<circle cx="1648.3" cy="629" r="5" style="fill:#383A48;"/>
			</g>
		</g>
		<g>
			<g>
				<circle cx="1648.3" cy="653.6" r="5" style="fill:#383A48;"/>
			</g>
		</g>
		<g>
			<g>
				<circle cx="1648.3" cy="678.3" r="5" style="fill:#383A48;"/>
			</g>
		</g>
		<g>
			<g>
				<circle cx="1648.3" cy="703" r="5" style="fill:#383A48;"/>
			</g>
		</g>
		<g>
			<g>
				<circle cx="1648.3" cy="727.6" r="5" style="fill:#383A48;"/>
			</g>
		</g>
		<g>
			<g>
				<circle cx="1648.3" cy="752.3" r="5" style="fill:#383A48;"/>
			</g>
		</g>
		<g>
			<g>
				<circle cx="1648.3" cy="777" r="5" style="fill:#383A48;"/>
			</g>
		</g>
		<g>
			<g>
				<circle cx="1648.3" cy="801.6" r="5" style="fill:#383A48;"/>
			</g>
		</g>
		<g>
			<g>
				<circle cx="1648.3" cy="826.3" r="5" style="fill:#383A48;"/>
			</g>
		</g>
		<g>
			<g>
				<circle cx="1648.3" cy="851" r="5" style="fill:#383A48;"/>
			</g>
		</g>
		<g>
			<g>
				<circle cx="1648.3" cy="875.6" r="5" style="fill:#383A48;"/>
			</g>
		</g>
		<g>
			<g>
				<circle cx="1648.3" cy="900.3" r="5" style="fill:#383A48;"/>
			</g>
		</g>
		<g>
			<g>
				<circle cx="1623.6" cy="579.6" r="5" style="fill:#383A48;"/>
			</g>
		</g>
		<g>
			<g>
				<circle cx="1623.6" cy="604.3" r="5" style="fill:#383A48;"/>
			</g>
		</g>
		<g>
			<g>
				<circle cx="1623.6" cy="629" r="5" style="fill:#383A48;"/>
			</g>
		</g>
		<g>
			<g>
				<circle cx="1623.6" cy="653.6" r="5" style="fill:#383A48;"/>
			</g>
		</g>
		<g>
			<g>
				<circle cx="1623.6" cy="678.3" r="5" style="fill:#383A48;"/>
			</g>
		</g>
		<g>
			<g>
				<circle cx="1623.6" cy="703" r="5" style="fill:#383A48;"/>
			</g>
		</g>
		<g>
			<g>
				<circle cx="1623.6" cy="727.6" r="5" style="fill:#383A48;"/>
			</g>
		</g>
		<g>
			<g>
				<circle cx="1623.6" cy="752.3" r="5" style="fill:#383A48;"/>
			</g>
		</g>
		<g>
			<g>
				<circle cx="1623.6" cy="777" r="5" style="fill:#383A48;"/>
			</g>
		</g>
		<g>
			<g>
				<circle cx="1623.6" cy="801.6" r="5" style="fill:#383A48;"/>
			</g>
		</g>
		<g>
			<g>
				<circle cx="1623.6" cy="826.3" r="5" style="fill:#383A48;"/>
			</g>
		</g>
		<g>
			<g>
				<circle cx="1623.6" cy="851" r="5" style="fill:#383A48;"/>
			</g>
		</g>
		<g>
			<g>
				<circle cx="1623.6" cy="875.6" r="5" style="fill:#383A48;"/>
			</g>
		</g>
		<g>
			<g>
				<circle cx="1623.6" cy="900.3" r="5" style="fill:#383A48;"/>
			</g>
		</g>
		<g>
			<g>
				<circle cx="1598.9" cy="555" r="5" style="fill:#383A48;"/>
			</g>
		</g>
		<g>
			<g>
				<circle cx="1598.9" cy="579.6" r="5" style="fill:#383A48;"/>
			</g>
		</g>
		<g>
			<g>
				<circle cx="1598.9" cy="604.3" r="5" style="fill:#383A48;"/>
			</g>
		</g>
		<g>
			<g>
				<circle cx="1598.9" cy="629" r="5" style="fill:#383A48;"/>
			</g>
		</g>
		<g>
			<g>
				<circle cx="1598.9" cy="653.6" r="5" style="fill:#383A48;"/>
			</g>
		</g>
		<g>
			<g>
				<circle cx="1598.9" cy="678.3" r="5" style="fill:#383A48;"/>
			</g>
		</g>
		<g>
			<g>
				<circle cx="1598.9" cy="703" r="5" style="fill:#383A48;"/>
			</g>
		</g>
		<g>
			<g>
				<circle cx="1598.9" cy="727.6" r="5" style="fill:#383A48;"/>
			</g>
		</g>
		<g>
			<g>
				<circle cx="1598.9" cy="752.3" r="5" style="fill:#383A48;"/>
			</g>
		</g>
		<g>
			<g>
				<circle cx="1598.9" cy="777" r="5" style="fill:#383A48;"/>
			</g>
		</g>
		<g>
			<g>
				<circle cx="1598.9" cy="801.6" r="5" style="fill:#383A48;"/>
			</g>
		</g>
		<g>
			<g>
				<circle cx="1598.9" cy="826.3" r="5" style="fill:#383A48;"/>
			</g>
		</g>
		<g>
			<g>
				<circle cx="1598.9" cy="851" r="5" style="fill:#383A48;"/>
			</g>
		</g>
		<g>
			<g>
				<circle cx="1598.9" cy="875.6" r="5" style="fill:#383A48;"/>
			</g>
		</g>
		<g>
			<g>
				<circle cx="1598.9" cy="900.3" r="5" style="fill:#383A48;"/>
			</g>
		</g>
		<g>
			<g>
				<circle cx="1574.3" cy="530.3" r="5" style="fill:#383A48;"/>
			</g>
		</g>
		<g>
			<g>
				<circle cx="1574.3" cy="555" r="5" style="fill:#383A48;"/>
			</g>
		</g>
		<g>
			<g>
				<circle cx="1574.3" cy="579.6" r="5" style="fill:#383A48;"/>
			</g>
		</g>
		<g>
			<g>
				<circle cx="1574.3" cy="604.3" r="5" style="fill:#383A48;"/>
			</g>
		</g>
		<g>
			<g>
				<circle cx="1574.3" cy="629" r="5" style="fill:#383A48;"/>
			</g>
		</g>
		<g>
			<g>
				<circle cx="1574.3" cy="653.6" r="5" style="fill:#383A48;"/>
			</g>
		</g>
		<g>
			<g>
				<circle cx="1574.3" cy="678.3" r="5" style="fill:#383A48;"/>
			</g>
		</g>
		<g>
			<g>
				<circle cx="1574.3" cy="703" r="5" style="fill:#383A48;"/>
			</g>
		</g>
		<g>
			<g>
				<circle cx="1574.3" cy="727.6" r="5" style="fill:#383A48;"/>
			</g>
		</g>
		<g>
			<g>
				<circle cx="1574.3" cy="752.3" r="5" style="fill:#383A48;"/>
			</g>
		</g>
		<g>
			<g>
				<circle cx="1574.3" cy="777" r="5" style="fill:#383A48;"/>
			</g>
		</g>
		<g>
			<g>
				<circle cx="1574.3" cy="801.6" r="5" style="fill:#383A48;"/>
			</g>
		</g>
		<g>
			<g>
				<circle cx="1574.3" cy="826.3" r="5" style="fill:#383A48;"/>
			</g>
		</g>
		<g>
			<g>
				<circle cx="1574.3" cy="851" r="5" style="fill:#383A48;"/>
			</g>
		</g>
		<g>
			<g>
				<circle cx="1574.3" cy="875.6" r="5" style="fill:#383A48;"/>
			</g>
		</g>
		<g>
			<g>
				<circle cx="1549.6" cy="530.3" r="5" style="fill:#383A48;"/>
			</g>
		</g>
		<g>
			<g>
				<circle cx="1549.6" cy="555" r="5" style="fill:#383A48;"/>
			</g>
		</g>
		<g>
			<g>
				<circle cx="1549.6" cy="579.6" r="5" style="fill:#383A48;"/>
			</g>
		</g>
		<g>
			<g>
				<circle cx="1549.6" cy="604.3" r="5" style="fill:#383A48;"/>
			</g>
		</g>
		<g>
			<g>
				<circle cx="1549.6" cy="629" r="5" style="fill:#383A48;"/>
			</g>
		</g>
		<g>
			<g>
				<circle cx="1549.6" cy="653.6" r="5" style="fill:#383A48;"/>
			</g>
		</g>
		<g>
			<g>
				<circle cx="1549.6" cy="678.3" r="5" style="fill:#383A48;"/>
			</g>
		</g>
		<g>
			<g>
				<circle cx="1549.6" cy="703" r="5" style="fill:#383A48;"/>
			</g>
		</g>
		<g>
			<g>
				<circle cx="1549.6" cy="727.6" r="5" style="fill:#383A48;"/>
			</g>
		</g>
		<g>
			<g>
				<circle cx="1549.6" cy="752.3" r="5" style="fill:#383A48;"/>
			</g>
		</g>
		<g>
			<g>
				<circle cx="1549.6" cy="777" r="5" style="fill:#383A48;"/>
			</g>
		</g>
		<g>
			<g>
				<circle cx="1549.6" cy="801.6" r="5" style="fill:#383A48;"/>
			</g>
		</g>
		<g>
			<g>
				<circle cx="1549.6" cy="826.3" r="5" style="fill:#383A48;"/>
			</g>
		</g>
		<g>
			<g>
				<circle cx="1549.6" cy="851" r="5" style="fill:#383A48;"/>
			</g>
		</g>
		<g>
			<g>
				<circle cx="1524.9" cy="505.6" r="5" style="fill:#383A48;"/>
			</g>
		</g>
		<g>
			<g>
				<circle cx="1524.9" cy="530.3" r="5" style="fill:#383A48;"/>
			</g>
		</g>
		<g>
			<g>
				<circle cx="1524.9" cy="555" r="5" style="fill:#383A48;"/>
			</g>
		</g>
		<g>
			<g>
				<circle cx="1524.9" cy="579.6" r="5" style="fill:#383A48;"/>
			</g>
		</g>
		<g>
			<g>
				<circle cx="1524.9" cy="604.3" r="5" style="fill:#383A48;"/>
			</g>
		</g>
		<g>
			<g>
				<circle cx="1524.9" cy="629" r="5" style="fill:#383A48;"/>
			</g>
		</g>
		<g>
			<g>
				<circle cx="1524.9" cy="653.6" r="5" style="fill:#383A48;"/>
			</g>
		</g>
		<g>
			<g>
				<circle cx="1524.9" cy="678.3" r="5" style="fill:#383A48;"/>
			</g>
		</g>
		<g>
			<g>
				<circle cx="1524.9" cy="703" r="5" style="fill:#383A48;"/>
			</g>
		</g>
		<g>
			<g>
				<circle cx="1524.9" cy="727.6" r="5" style="fill:#383A48;"/>
			</g>
		</g>
		<g>
			<g>
				<circle cx="1524.9" cy="752.3" r="5" style="fill:#383A48;"/>
			</g>
		</g>
		<g>
			<g>
				<circle cx="1524.9" cy="777" r="5" style="fill:#383A48;"/>
			</g>
		</g>
		<g>
			<g>
				<circle cx="1524.9" cy="801.6" r="5" style="fill:#383A48;"/>
			</g>
		</g>
		<g>
			<g>
				<circle cx="1500.3" cy="481" r="5" style="fill:#383A48;"/>
			</g>
		</g>
		<g>
			<g>
				<circle cx="1500.3" cy="505.6" r="5" style="fill:#383A48;"/>
			</g>
		</g>
		<g>
			<g>
				<circle cx="1500.3" cy="530.3" r="5" style="fill:#383A48;"/>
			</g>
		</g>
		<g>
			<g>
				<circle cx="1500.3" cy="555" r="5" style="fill:#383A48;"/>
			</g>
		</g>
		<g>
			<g>
				<circle cx="1500.3" cy="579.6" r="5" style="fill:#383A48;"/>
			</g>
		</g>
		<g>
			<g>
				<circle cx="1500.3" cy="604.3" r="5" style="fill:#383A48;"/>
			</g>
		</g>
		<g>
			<g>
				<circle cx="1500.3" cy="629" r="5" style="fill:#383A48;"/>
			</g>
		</g>
		<g>
			<g>
				<circle cx="1500.3" cy="653.6" r="5" style="fill:#383A48;"/>
			</g>
		</g>
		<g>
			<g>
				<circle cx="1500.3" cy="678.3" r="5" style="fill:#383A48;"/>
			</g>
		</g>
		<g>
			<g>
				<circle cx="1500.3" cy="703" r="5" style="fill:#383A48;"/>
			</g>
		</g>
		<g>
			<g>
				<circle cx="1500.3" cy="727.6" r="5" style="fill:#383A48;"/>
			</g>
		</g>
		<g>
			<g>
				<circle cx="1500.3" cy="752.3" r="5" style="fill:#383A48;"/>
			</g>
		</g>
		<g>
			<g>
				<circle cx="1500.3" cy="777" r="5" style="fill:#383A48;"/>
			</g>
		</g>
		<g>
			<g>
				<circle cx="1475.6" cy="481" r="5" style="fill:#383A48;"/>
			</g>
		</g>
		<g>
			<g>
				<circle cx="1475.6" cy="505.6" r="5" style="fill:#383A48;"/>
			</g>
		</g>
		<g>
			<g>
				<circle cx="1475.6" cy="530.3" r="5" style="fill:#383A48;"/>
			</g>
		</g>
		<g>
			<g>
				<circle cx="1475.6" cy="555" r="5" style="fill:#383A48;"/>
			</g>
		</g>
		<g>
			<g>
				<circle cx="1475.6" cy="579.6" r="5" style="fill:#383A48;"/>
			</g>
		</g>
		<g>
			<g>
				<circle cx="1475.6" cy="604.3" r="5" style="fill:#383A48;"/>
			</g>
		</g>
		<g>
			<g>
				<circle cx="1475.6" cy="629" r="5" style="fill:#383A48;"/>
			</g>
		</g>
		<g>
			<g>
				<circle cx="1475.6" cy="653.6" r="5" style="fill:#383A48;"/>
			</g>
		</g>
		<g>
			<g>
				<circle cx="1475.6" cy="678.3" r="5" style="fill:#383A48;"/>
			</g>
		</g>
		<g>
			<g>
				<circle cx="1475.6" cy="703" r="5" style="fill:#383A48;"/>
			</g>
		</g>
		<g>
			<g>
				<circle cx="1475.6" cy="727.6" r="5" style="fill:#383A48;"/>
			</g>
		</g>
		<g>
			<g>
				<circle cx="1475.6" cy="752.3" r="5" style="fill:#383A48;"/>
			</g>
		</g>
		<g>
			<g>
				<circle cx="1450.9" cy="456.3" r="5" style="fill:#383A48;"/>
			</g>
		</g>
		<g>
			<g>
				<circle cx="1450.9" cy="481" r="5" style="fill:#383A48;"/>
			</g>
		</g>
		<g>
			<g>
				<circle cx="1450.9" cy="505.6" r="5" style="fill:#383A48;"/>
			</g>
		</g>
		<g>
			<g>
				<circle cx="1450.9" cy="530.3" r="5" style="fill:#383A48;"/>
			</g>
		</g>
		<g>
			<g>
				<circle cx="1450.9" cy="555" r="5" style="fill:#383A48;"/>
			</g>
		</g>
		<g>
			<g>
				<circle cx="1450.9" cy="579.6" r="5" style="fill:#383A48;"/>
			</g>
		</g>
		<g>
			<g>
				<circle cx="1450.9" cy="604.3" r="5" style="fill:#383A48;"/>
			</g>
		</g>
		<g>
			<g>
				<circle cx="1450.9" cy="629" r="5" style="fill:#383A48;"/>
			</g>
		</g>
		<g>
			<g>
				<circle cx="1450.9" cy="653.6" r="5" style="fill:#383A48;"/>
			</g>
		</g>
		<g>
			<g>
				<circle cx="1450.9" cy="678.3" r="5" style="fill:#383A48;"/>
			</g>
		</g>
		<g>
			<g>
				<circle cx="1450.9" cy="703" r="5" style="fill:#383A48;"/>
			</g>
		</g>
		<g>
			<g>
				<circle cx="1450.9" cy="727.6" r="5" style="fill:#383A48;"/>
			</g>
		</g>
		<g>
			<g>
				<circle cx="1450.9" cy="752.3" r="5" style="fill:#383A48;"/>
			</g>
		</g>
		<g>
			<g>
				<circle cx="1426.3" cy="456.3" r="5" style="fill:#383A48;"/>
			</g>
		</g>
		<g>
			<g>
				<circle cx="1426.3" cy="481" r="5" style="fill:#383A48;"/>
			</g>
		</g>
		<g>
			<g>
				<circle cx="1426.3" cy="505.6" r="5" style="fill:#383A48;"/>
			</g>
		</g>
		<g>
			<g>
				<circle cx="1426.3" cy="530.3" r="5" style="fill:#383A48;"/>
			</g>
		</g>
		<g>
			<g>
				<circle cx="1426.3" cy="555" r="5" style="fill:#383A48;"/>
			</g>
		</g>
		<g>
			<g>
				<circle cx="1426.3" cy="579.6" r="5" style="fill:#383A48;"/>
			</g>
		</g>
		<g>
			<g>
				<circle cx="1426.3" cy="604.3" r="5" style="fill:#383A48;"/>
			</g>
		</g>
		<g>
			<g>
				<circle cx="1426.3" cy="629" r="5" style="fill:#383A48;"/>
			</g>
		</g>
		<g>
			<g>
				<circle cx="1426.3" cy="653.6" r="5" style="fill:#383A48;"/>
			</g>
		</g>
		<g>
			<g>
				<circle cx="1426.3" cy="678.3" r="5" style="fill:#383A48;"/>
			</g>
		</g>
		<g>
			<g>
				<circle cx="1426.3" cy="703" r="5" style="fill:#383A48;"/>
			</g>
		</g>
		<g>
			<g>
				<circle cx="1426.3" cy="727.6" r="5" style="fill:#383A48;"/>
			</g>
		</g>
		<g>
			<g>
				<circle cx="1426.3" cy="752.3" r="5" style="fill:#383A48;"/>
			</g>
		</g>
		<g>
			<g>
				<circle cx="1401.6" cy="431.6" r="5" style="fill:#383A48;"/>
			</g>
		</g>
		<g>
			<g>
				<circle cx="1401.6" cy="456.3" r="5" style="fill:#383A48;"/>
			</g>
		</g>
		<g>
			<g>
				<circle cx="1401.6" cy="481" r="5" style="fill:#383A48;"/>
			</g>
		</g>
		<g>
			<g>
				<circle cx="1401.6" cy="505.6" r="5" style="fill:#383A48;"/>
			</g>
		</g>
		<g>
			<g>
				<circle cx="1401.6" cy="530.3" r="5" style="fill:#383A48;"/>
			</g>
		</g>
		<g>
			<g>
				<circle cx="1401.6" cy="555" r="5" style="fill:#383A48;"/>
			</g>
		</g>
		<g>
			<g>
				<circle cx="1401.6" cy="579.6" r="5" style="fill:#383A48;"/>
			</g>
		</g>
		<g>
			<g>
				<circle cx="1401.6" cy="604.3" r="5" style="fill:#383A48;"/>
			</g>
		</g>
		<g>
			<g>
				<circle cx="1401.6" cy="629" r="5" style="fill:#383A48;"/>
			</g>
		</g>
		<g>
			<g>
				<circle cx="1401.6" cy="653.6" r="5" style="fill:#383A48;"/>
			</g>
		</g>
		<g>
			<g>
				<circle cx="1401.6" cy="678.3" r="5" style="fill:#383A48;"/>
			</g>
		</g>
		<g>
			<g>
				<circle cx="1401.6" cy="703" r="5" style="fill:#383A48;"/>
			</g>
		</g>
		<g>
			<g>
				<circle cx="1401.6" cy="727.6" r="5" style="fill:#383A48;"/>
			</g>
		</g>
		<g>
			<g>
				<circle cx="1401.6" cy="752.3" r="5" style="fill:#383A48;"/>
			</g>
		</g>
		<g>
			<g>
				<circle cx="1376.9" cy="407" r="5" style="fill:#383A48;"/>
			</g>
		</g>
		<g>
			<g>
				<circle cx="1376.9" cy="431.6" r="5" style="fill:#383A48;"/>
			</g>
		</g>
		<g>
			<g>
				<circle cx="1376.9" cy="456.3" r="5" style="fill:#383A48;"/>
			</g>
		</g>
		<g>
			<g>
				<circle cx="1376.9" cy="481" r="5" style="fill:#383A48;"/>
			</g>
		</g>
		<g>
			<g>
				<circle cx="1376.9" cy="505.6" r="5" style="fill:#383A48;"/>
			</g>
		</g>
		<g>
			<g>
				<circle cx="1376.9" cy="530.3" r="5" style="fill:#383A48;"/>
			</g>
		</g>
		<g>
			<g>
				<circle cx="1376.9" cy="555" r="5" style="fill:#383A48;"/>
			</g>
		</g>
		<g>
			<g>
				<circle cx="1376.9" cy="579.6" r="5" style="fill:#383A48;"/>
			</g>
		</g>
		<g>
			<g>
				<circle cx="1376.9" cy="604.3" r="5" style="fill:#383A48;"/>
			</g>
		</g>
		<g>
			<g>
				<circle cx="1376.9" cy="629" r="5" style="fill:#383A48;"/>
			</g>
		</g>
		<g>
			<g>
				<circle cx="1376.9" cy="653.6" r="5" style="fill:#383A48;"/>
			</g>
		</g>
		<g>
			<g>
				<circle cx="1376.9" cy="678.3" r="5" style="fill:#383A48;"/>
			</g>
		</g>
		<g>
			<g>
				<circle cx="1376.9" cy="703" r="5" style="fill:#383A48;"/>
			</g>
		</g>
		<g>
			<g>
				<circle cx="1376.9" cy="727.6" r="5" style="fill:#383A48;"/>
			</g>
		</g>
		<g>
			<g>
				<circle cx="1352.3" cy="407" r="5" style="fill:#383A48;"/>
			</g>
		</g>
		<g>
			<g>
				<circle cx="1352.3" cy="431.6" r="5" style="fill:#383A48;"/>
			</g>
		</g>
		<g>
			<g>
				<circle cx="1352.3" cy="456.3" r="5" style="fill:#383A48;"/>
			</g>
		</g>
		<g>
			<g>
				<circle cx="1352.3" cy="481" r="5" style="fill:#383A48;"/>
			</g>
		</g>
		<g>
			<g>
				<circle cx="1352.3" cy="505.6" r="5" style="fill:#383A48;"/>
			</g>
		</g>
		<g>
			<g>
				<circle cx="1352.3" cy="530.3" r="5" style="fill:#383A48;"/>
			</g>
		</g>
		<g>
			<g>
				<circle cx="1352.3" cy="555" r="5" style="fill:#383A48;"/>
			</g>
		</g>
		<g>
			<g>
				<circle cx="1352.3" cy="579.6" r="5" style="fill:#383A48;"/>
			</g>
		</g>
		<g>
			<g>
				<circle cx="1352.3" cy="604.3" r="5" style="fill:#383A48;"/>
			</g>
		</g>
		<g>
			<g>
				<circle cx="1352.3" cy="629" r="5" style="fill:#383A48;"/>
			</g>
		</g>
		<g>
			<g>
				<circle cx="1327.6" cy="407" r="5" style="fill:#383A48;"/>
			</g>
		</g>
		<g>
			<g>
				<circle cx="1327.6" cy="431.6" r="5" style="fill:#383A48;"/>
			</g>
		</g>
		<g>
			<g>
				<circle cx="1327.6" cy="456.3" r="5" style="fill:#383A48;"/>
			</g>
		</g>
		<g>
			<g>
				<circle cx="1327.6" cy="481" r="5" style="fill:#383A48;"/>
			</g>
		</g>
		<g>
			<g>
				<circle cx="1327.6" cy="505.6" r="5" style="fill:#383A48;"/>
			</g>
		</g>
		<g>
			<g>
				<circle cx="1327.6" cy="530.3" r="5" style="fill:#383A48;"/>
			</g>
		</g>
		<g>
			<g>
				<circle cx="1327.6" cy="555" r="5" style="fill:#383A48;"/>
			</g>
		</g>
		<g>
			<g>
				<circle cx="1302.9" cy="407" r="5" style="fill:#383A48;"/>
			</g>
		</g>
		<g>
			<g>
				<circle cx="1302.9" cy="431.6" r="5" style="fill:#383A48;"/>
			</g>
		</g>
		<g>
			<g>
				<circle cx="1302.9" cy="456.3" r="5" style="fill:#383A48;"/>
			</g>
		</g>
		<g>
			<g>
				<circle cx="1302.9" cy="481" r="5" style="fill:#383A48;"/>
			</g>
		</g>
		<g>
			<g>
				<circle cx="1278.3" cy="407" r="5" style="fill:#383A48;"/>
			</g>
		</g>
		<g>
			<g>
				<circle cx="1278.3" cy="431.6" r="5" style="fill:#383A48;"/>
			</g>
		</g>
	</g>
	<g>
		<polygon points="1673.7,641.5 1259.5,398.6 1392.2,860.1 1468,751.5 1587.3,910.1 1662.6,851.7 1543.7,693.8 		" style="fill:#F3F6E6;"/>
		<path d="M1587.3,915.1c-0.2,0-0.4,0-0.7,0c-1.3-0.2-2.5-0.9-3.3-1.9L1468.1,760l-71.8,103c-1.1,1.6-3,2.4-4.9,2.1
			c-1.9-0.3-3.5-1.7-4-3.6L1254.7,400c-0.6-2,0.1-4.1,1.7-5.3c1.6-1.3,3.8-1.4,5.6-0.4l414.2,242.9c1.6,1,2.6,2.8,2.5,4.7
			s-1.4,3.6-3.1,4.3L1551.7,696l114.9,152.7c1.6,2.2,1.2,5.3-0.9,7l-75.2,58.4C1589.5,914.8,1588.5,915.1,1587.3,915.1z M1468,746.5
			c1.6,0,3,0.7,4,2l116.3,154.6l67.3-52.3l-115.9-154c-0.9-1.2-1.2-2.8-0.8-4.3c0.4-1.5,1.5-2.7,3-3.3l120.5-48.5l-394.6-231.4
			l126.3,439.4l69.8-100C1464.8,747.3,1466.3,746.6,1468,746.5C1467.9,746.5,1468,746.5,1468,746.5z" style="fill:#383A48;"/>
	</g>
	<g>
		<path d="M1587.3,915.2h-327.8c-2.8,0-5-2.2-5-5s2.2-5,5-5h327.8c2.8,0,5,2.2,5,5S1590.1,915.2,1587.3,915.2z" style="fill:#383A48;"/>
	</g>
	<g>
		<g>
			<line x1="1719.6" y1="476.1" x2="1752.6" y2="476.1" style="fill:none;"/>
			<rect x="1719.6" y="471.1" width="33" height="10" style="fill:#383A48;"/>
		</g>
		<g>
			<line x1="1736.1" y1="492.6" x2="1736.1" y2="459.6" style="fill:none;"/>
			<rect x="1731.1" y="459.6" width="10" height="33" style="fill:#383A48;"/>
		</g>
	</g>
	<g>
		<g>
			<line x1="788.7" y1="173.9" x2="821.7" y2="173.9" style="fill:none;"/>
			<rect x="788.7" y="168.9" width="33" height="10" style="fill:#383A48;"/>
		</g>
		<g>
			<line x1="805.2" y1="190.4" x2="805.2" y2="157.4" style="fill:none;"/>
			<rect x="800.2" y="157.4" width="10" height="33" style="fill:#383A48;"/>
		</g>
	</g>
	<g>
		<g>
			<line x1="242.7" y1="645.9" x2="275.7" y2="645.9" style="fill:none;"/>
			<rect x="242.7" y="640.9" width="33" height="10" style="fill:#383A48;"/>
		</g>
		<g>
			<line x1="259.2" y1="662.4" x2="259.2" y2="629.4" style="fill:none;"/>
			<rect x="254.2" y="629.4" width="10" height="33" style="fill:#383A48;"/>
		</g>
	</g>
	<g>
		<g>
			<line x1="1122.7" y1="777.3" x2="1155.7" y2="777.3" style="fill:none;"/>
			<rect x="1122.7" y="772.3" width="33" height="10" style="fill:#383A48;"/>
		</g>
		<g>
			<line x1="1139.2" y1="793.8" x2="1139.2" y2="760.8" style="fill:none;"/>
			<rect x="1134.2" y="760.8" width="10" height="33" style="fill:#383A48;"/>
		</g>
	</g>
	<g>
		<path d="M1580.7,399.2l-95.5-47.3c-39.8-20.3-55.7-69-35.4-108.8l0,0c20.3-39.8,69-55.7,108.8-35.4l95.5,47.3
			c39.8,20.3,55.7,69,35.4,108.8l0,0C1669.2,403.6,1620.5,419.5,1580.7,399.2z" style="fill:#F6E049;"/>
		<path d="M1617.3,413.1c-13.4,0-26.6-3.1-38.8-9.4l-95.5-47.3c-20.5-10.4-35.7-28.2-42.8-50
			c-7.1-21.8-5.3-45.1,5.1-65.5s28.2-35.6,50-42.7c21.8-7.1,45.1-5.3,65.5,5.1l95.5,47.3c42.3,21.5,59.1,73.3,37.6,115.5
			c-10.4,20.4-28.2,35.6-50,42.7C1635.2,411.7,1626.2,413.1,1617.3,413.1z M1521.9,203.9c-7.9,0-15.8,1.2-23.6,3.8
			c-19.3,6.3-35,19.7-44.2,37.7c-9.2,18.1-10.8,38.6-4.5,57.9s19.7,35,37.7,44.2l95.5,47.3l0,0c18.1,9.2,38.6,10.8,57.9,4.5
			s35-19.7,44.2-37.7c19-37.3,4.1-83.1-33.2-102.1l-95.5-47.3C1545.5,206.7,1533.7,203.9,1521.9,203.9z" style="fill:#383A48;"/>
		<path d="M1622,276.2c-29.4,0-53.3,23.9-53.3,53.3s23.9,53.2,53.3,53.2s53.2-23.9,53.2-53.2S1651.3,276.2,1622,276.2z" style="fill:#383A48;"/>
	</g>
	<g>
		<path d="M304,283.5c-2.6,0-4.7-2-5-4.6c-0.2-2.8,1.8-5.2,4.5-5.4l59.7-5.3c2.8-0.2,5.2,1.8,5.4,4.5
			c0.2,2.8-1.8,5.2-4.5,5.4l-59.7,5.3C304.2,283.5,304.1,283.5,304,283.5z" style="fill:#383A48;"/>
	</g>
	<g>
		<path d="M367,246.1c-0.5,0-1-0.1-1.5-0.2L308.3,228c-2.6-0.8-4.1-3.6-3.3-6.3c0.8-2.6,3.6-4.1,6.3-3.3l57.2,17.8
			c2.6,0.8,4.1,3.6,3.3,6.3C371.1,244.7,369.1,246.1,367,246.1z" style="fill:#383A48;"/>
	</g>
	<g>
		<path d="M383.4,222.2c-1.2,0-2.3-0.4-3.3-1.2L335,181.5c-2.1-1.8-2.3-5-0.5-7.1s5-2.3,7.1-0.5l45.1,39.5
			c2.1,1.8,2.3,5,0.5,7.1C386.2,221.6,384.8,222.2,383.4,222.2z" style="fill:#383A48;"/>
	</g>
	<g>
		<path d="M304,786.5c-1.5,0-2.9-0.6-3.9-1.9c-1.7-2.2-1.4-5.3,0.8-7l180.5-144.9c2.2-1.7,5.3-1.4,7,0.8s1.4,5.3-0.8,7
			L307.1,785.4C306.2,786.1,305.1,786.5,304,786.5z" style="fill:#383A48;"/>
	</g>
</g>
</svg>
