<?xml version="1.0" encoding="UTF-8"?>
<svg width="1533px" height="830px" viewBox="0 0 1533 830" version="1.1" xmlns="http://www.w3.org/2000/svg" xmlns:xlink="http://www.w3.org/1999/xlink">
    <!-- Generator: Sketch 59.1 (86144) - https://sketch.com -->
    <title>electric-car</title>
    <desc>Created with Sketch.</desc>
    <g id="Page-1" stroke="none" stroke-width="1" fill="none" fill-rule="evenodd">
        <g id="electric-car" transform="translate(-177.000000, -125.000000)" fill-rule="nonzero">
            <g id="Group" transform="translate(177.000000, 125.000000)">
                <g>
                    <path d="M1286.7,2.7 C1285.8,1.4 1284.3,0.7 1282.7,0.7 L920,0.7 C917.2,0.7 915,2.9 915,5.7 C915,8.5 917.2,10.7 920,10.7 C947.7,10.7 971.7,25.3 989.6,52.9 C1010,84.5 1021.5,132.4 1022.9,191.6 C1023.7,228 1033.3,255.1 1052.1,274.5 C1068.7,291.6 1090.1,300.6 1110.8,309.2 C1136.7,320.1 1161.2,330.4 1174,355.5 C1174.9,357.2 1176.6,358.2 1178.5,358.2 C1178.6,358.2 1178.8,358.2 1178.9,358.2 C1180.9,358 1182.7,356.6 1183.2,354.7 L1287.5,7.1 C1287.9,5.6 1287.6,4 1286.7,2.7 Z" id="Path" fill="#F3F6E6"></path>
                    <g transform="translate(95.000000, 0.000000)">
                        <g transform="translate(167.000000, 0.000000)">
                            <g transform="translate(0.000000, 118.000000)">
                                <rect id="Rectangle" fill="#F3F6E6" x="5.8" y="5.8" width="652.1" height="539.5"></rect>
                                <path d="M662.9,550.2 L0.8,550.2 L0.8,0.8 L662.9,0.8 L662.9,550.2 Z M10.8,540.2 L652.9,540.2 L652.9,10.8 L10.8,10.8 L10.8,540.2 Z" id="Shape" fill="#383A48"></path>
                            </g>
                            <g>
                                <rect id="Rectangle" fill="#E0719E" x="5.8" y="5.7" width="652.1" height="118"></rect>
                                <path d="M657.9,128.8 L5.8,128.8 C3,128.8 0.8,126.6 0.8,123.8 L0.8,5.8 C0.8,3 3,0.8 5.8,0.8 L657.9,0.8 C660.7,0.8 662.9,3 662.9,5.8 L662.9,123.8 C662.9,126.5 660.7,128.8 657.9,128.8 Z M10.8,118.8 L652.9,118.8 L652.9,10.8 L10.8,10.8 L10.8,118.8 Z" id="Shape" fill="#383A48"></path>
                            </g>
                        </g>
                        <g transform="translate(213.000000, 42.000000)">
                            <g>
                                <circle id="Oval" fill="#E0719E" cx="22.4" cy="22.7" r="16.9"></circle>
                                <path d="M22.4,44.7 C10.3,44.7 0.5,34.9 0.5,22.8 C0.5,10.7 10.3,0.9 22.4,0.9 C34.5,0.9 44.3,10.7 44.3,22.8 C44.3,34.9 34.5,44.7 22.4,44.7 Z M22.4,10.8 C15.8,10.8 10.5,16.1 10.5,22.7 C10.5,29.3 15.8,34.6 22.4,34.6 C29,34.6 34.3,29.3 34.3,22.7 C34.3,16.1 29,10.8 22.4,10.8 Z" id="Shape" fill="#383A48"></path>
                            </g>
                            <g transform="translate(52.000000, 0.000000)">
                                <circle id="Oval" fill="#F6E049" cx="22.2" cy="22.7" r="16.9"></circle>
                                <path d="M22.2,44.7 C10.1,44.7 0.3,34.9 0.3,22.8 C0.3,10.7 10.1,0.9 22.2,0.9 C34.3,0.9 44.1,10.7 44.1,22.8 C44.1,34.9 34.2,44.7 22.2,44.7 Z M22.2,10.8 C15.6,10.8 10.3,16.1 10.3,22.7 C10.3,29.3 15.6,34.6 22.2,34.6 C28.8,34.6 34.1,29.3 34.1,22.7 C34.1,16.1 28.7,10.8 22.2,10.8 Z" id="Shape" fill="#383A48"></path>
                            </g>
                            <g transform="translate(104.000000, 0.000000)">
                                <circle id="Oval" fill="#7FD6C2" cx="21.9" cy="22.7" r="16.9"></circle>
                                <path d="M21.9,44.7 C9.8,44.7 0,34.9 0,22.8 C0,10.7 9.8,0.9 21.9,0.9 C34,0.9 43.8,10.7 43.8,22.8 C43.8,34.9 34,44.7 21.9,44.7 Z M21.9,10.8 C15.3,10.8 10,16.1 10,22.7 C10,29.3 15.3,34.6 21.9,34.6 C28.5,34.6 33.8,29.3 33.8,22.7 C33.8,16.1 28.5,10.8 21.9,10.8 Z" id="Shape" fill="#383A48"></path>
                            </g>
                        </g>
                        <g transform="translate(86.000000, 76.000000)">
                            <g transform="translate(0.000000, 118.000000)">
                                <rect id="Rectangle" fill="#F3F6E6" x="5.7" y="5.7" width="652.1" height="539.5"></rect>
                                <path d="M662.8,550.2 L0.7,550.2 L0.7,0.7 L662.8,0.7 L662.8,550.2 Z M10.7,540.2 L652.8,540.2 L652.8,10.7 L10.7,10.7 L10.7,540.2 Z" id="Shape" fill="#383A48"></path>
                            </g>
                            <g>
                                <rect id="Rectangle" fill="#F6E049" x="5.7" y="5.7" width="652.1" height="118"></rect>
                                <path d="M662.8,128.7 L0.7,128.7 L0.7,0.7 L662.8,0.7 L662.8,128.7 Z M10.7,118.7 L652.8,118.7 L652.8,10.7 L10.7,10.7 L10.7,118.7 Z" id="Shape" fill="#383A48"></path>
                            </g>
                        </g>
                        <g transform="translate(1.000000, 279.000000)">
                            <path d="M4.9,5.8 L4.9,371.4 C5.9,371.3 6.9,371.3 7.8,371.2 C17.6,370.8 26.8,372.9 35.3,377.3 C44.1,380.2 51.8,385.1 58.3,392 C71.9,405.6 78.3,423.6 79.2,442.4 C79.7,452.6 79.9,462.7 80.3,472.9 C81.2,473.1 82,473.4 82.9,473.6 C102.5,476.9 122.1,480.3 141.6,483.9 C175.8,490.1 210,496.5 244.3,502.5 C260.8,505.3 276.5,508.9 292.4,514.1 C304.9,518.2 317.3,522.4 330.2,525.2 C342.2,525.6 353.5,528.8 364,534.9 C368.4,538.3 372.9,541.8 377.3,545.2 L657,545.2 L657,5.8 L4.9,5.8 Z" id="Path" fill="#F3F6E6"></path>
                            <path d="M662,550.3 L375.5,550.3 L361.1,539.2 C351.5,533.7 341,530.7 330,530.3 L329.6,530.3 L329.2,530.2 C317.4,527.7 305.8,523.9 294.6,520.2 L290.9,519 C276.7,514.4 261.6,510.7 243.5,507.6 C219.6,503.5 195.5,499 172.1,494.8 C161.7,492.9 151.2,491 140.8,489.1 C118,485 99.3,481.7 82.2,478.8 L81.5,478.6 C80.7,478.4 79.9,478.1 79.1,477.9 L75.5,476.9 L75.4,473.2 C75.3,469.7 75.2,466.3 75.1,462.8 C74.9,456.2 74.7,449.4 74.4,442.7 C73.5,423.7 66.8,407.4 55,395.6 L54.9,395.5 C49.1,389.2 42,384.7 34.1,382.1 L33.7,382 L33.3,381.8 C25.6,377.8 17.2,375.9 8.3,376.2 C7.4,376.2 6.5,376.3 5.5,376.4 L0.1,376.8 L0.1,0.8 L662,0.8 L662,550.3 Z M378.9,540.3 L652,540.3 L652,10.8 L9.9,10.8 L9.9,366.2 C19.6,366.2 28.8,368.4 37.3,372.8 C46.7,375.9 55,381.3 61.9,388.7 C75.4,402.3 83.1,420.8 84.2,442.4 C84.5,449.2 84.7,456 84.9,462.7 C85,464.9 85,467.1 85.1,469.2 C101.9,472 120.2,475.2 142.4,479.2 C152.8,481.1 163.3,483 173.7,484.9 C197.1,489.2 221.2,493.6 245,497.7 C263.6,500.9 279.1,504.6 293.8,509.4 L297.5,510.6 C308.3,514.1 319.5,517.8 330.6,520.2 C343.2,520.7 355.2,524.2 366.2,530.6 L366.7,531 L378.9,540.3 Z" id="Shape" fill="#383A48"></path>
                        </g>
                        <g transform="translate(406.000000, 490.000000)">
                            <g>
                                <path d="M67.1,228.4 L67.1,228.4 C33,228.4 5.4,200.8 5.4,166.7 L5.4,67.5 C5.4,33.4 33,5.8 67.1,5.8 L67.1,5.8 C101.2,5.8 128.8,33.4 128.8,67.5 L128.8,166.7 C128.8,200.8 101.2,228.4 67.1,228.4 Z" id="Path" fill="#F6E049"></path>
                                <path d="M67.1,233.4 C30.3,233.4 0.4,203.5 0.4,166.7 L0.4,67.5 C0.4,30.7 30.3,0.8 67.1,0.8 C103.9,0.8 133.8,30.7 133.8,67.5 L133.8,166.7 C133.8,203.5 103.9,233.4 67.1,233.4 Z M67.1,10.9 C35.9,10.9 10.4,36.3 10.4,67.6 L10.4,166.8 C10.4,198 35.8,223.5 67.1,223.5 L67.1,223.5 C98.3,223.5 123.8,198.1 123.8,166.8 L123.8,67.6 C123.8,36.3 98.4,10.9 67.1,10.9 Z" id="Shape" fill="#383A48"></path>
                            </g>
                            <path d="M67.1,339.3 C64.3,339.3 62.1,337.1 62.1,334.3 L62.1,135.4 C62.1,132.6 64.3,130.4 67.1,130.4 C69.9,130.4 72.1,132.6 72.1,135.4 L72.1,334.3 C72.1,337 69.9,339.3 67.1,339.3 Z" id="Path" fill="#383A48"></path>
                        </g>
                        <g transform="translate(0.000000, 161.000000)">
                            <rect id="Rectangle" fill="#AAC6FC" x="5.9" y="5.8" width="652.1" height="118"></rect>
                            <path d="M658,128.8 L5.9,128.8 C3.1,128.8 0.9,126.6 0.9,123.8 L0.9,5.8 C0.9,3 3.1,0.8 5.9,0.8 L658,0.8 C660.8,0.8 663,3 663,5.8 L663,123.8 C663,126.6 660.8,128.8 658,128.8 Z M10.9,118.8 L653,118.8 L653,10.8 L10.9,10.8 L10.9,118.8 Z" id="Shape" fill="#383A48"></path>
                        </g>
                        <g transform="translate(34.000000, 203.000000)">
                            <g>
                                <circle id="Oval" fill="#E0719E" cx="22.8" cy="22.8" r="16.9"></circle>
                                <path d="M22.8,44.7 C10.7,44.7 0.9,34.9 0.9,22.8 C0.9,10.7 10.7,0.9 22.8,0.9 C34.9,0.9 44.7,10.7 44.7,22.8 C44.8,34.9 34.9,44.7 22.8,44.7 Z M22.8,10.9 C16.2,10.9 10.9,16.2 10.9,22.8 C10.9,29.4 16.2,34.7 22.8,34.7 C29.4,34.7 34.7,29.4 34.7,22.8 C34.7,16.2 29.4,10.9 22.8,10.9 Z" id="Shape" fill="#383A48"></path>
                            </g>
                            <g transform="translate(52.000000, 0.000000)">
                                <circle id="Oval" fill="#F6E049" cx="22.6" cy="22.8" r="16.9"></circle>
                                <path d="M22.6,44.7 C10.5,44.7 0.7,34.9 0.7,22.8 C0.7,10.7 10.5,0.9 22.6,0.9 C34.7,0.9 44.5,10.7 44.5,22.8 C44.5,34.9 34.7,44.7 22.6,44.7 Z M22.6,10.9 C16,10.9 10.7,16.2 10.7,22.8 C10.7,29.4 16,34.7 22.6,34.7 C29.2,34.7 34.5,29.4 34.5,22.8 C34.5,16.2 29.2,10.9 22.6,10.9 Z" id="Shape" fill="#383A48"></path>
                            </g>
                            <g transform="translate(104.000000, 0.000000)">
                                <circle id="Oval" fill="#7FD6C2" cx="22.4" cy="22.8" r="16.9"></circle>
                                <path d="M22.4,44.7 C10.3,44.7 0.5,34.9 0.5,22.8 C0.5,10.7 10.3,0.9 22.4,0.9 C34.5,0.9 44.3,10.7 44.3,22.8 C44.3,34.9 34.4,44.7 22.4,44.7 Z M22.4,10.9 C15.8,10.9 10.5,16.2 10.5,22.8 C10.5,29.4 15.8,34.7 22.4,34.7 C29,34.7 34.3,29.4 34.3,22.8 C34.3,16.2 28.9,10.9 22.4,10.9 Z" id="Shape" fill="#383A48"></path>
                            </g>
                        </g>
                        <g transform="translate(133.000000, 118.000000)">
                            <g>
                                <circle id="Oval" fill="#E0719E" cx="22.5" cy="22.7" r="16.9"></circle>
                                <path d="M22.5,44.6 C10.4,44.6 0.6,34.8 0.6,22.7 C0.6,10.6 10.4,0.8 22.5,0.8 C34.6,0.8 44.4,10.6 44.4,22.7 C44.4,34.8 34.6,44.6 22.5,44.6 Z M22.5,10.8 C15.9,10.8 10.6,16.1 10.6,22.7 C10.6,29.3 15.9,34.6 22.5,34.6 C29.1,34.6 34.4,29.3 34.4,22.7 C34.4,16.1 29.1,10.8 22.5,10.8 Z" id="Shape" fill="#383A48"></path>
                            </g>
                            <g transform="translate(52.000000, 0.000000)">
                                <circle id="Oval" fill="#F6E049" cx="22.3" cy="22.7" r="16.9"></circle>
                                <path d="M22.3,44.6 C10.2,44.6 0.4,34.8 0.4,22.7 C0.4,10.6 10.2,0.8 22.3,0.8 C34.4,0.8 44.2,10.6 44.2,22.7 C44.2,34.8 34.3,44.6 22.3,44.6 Z M22.3,10.8 C15.7,10.8 10.4,16.1 10.4,22.7 C10.4,29.3 15.7,34.6 22.3,34.6 C28.9,34.6 34.2,29.3 34.2,22.7 C34.2,16.1 28.8,10.8 22.3,10.8 Z" id="Shape" fill="#383A48"></path>
                            </g>
                            <g transform="translate(104.000000, 0.000000)">
                                <circle id="Oval" fill="#7FD6C2" cx="22" cy="22.7" r="16.9"></circle>
                                <path d="M22,44.6 C9.9,44.6 0.1,34.8 0.1,22.7 C0.1,10.6 9.9,0.8 22,0.8 C34.1,0.8 43.9,10.6 43.9,22.7 C43.9,34.8 34.1,44.6 22,44.6 Z M22,10.8 C15.4,10.8 10.1,16.1 10.1,22.7 C10.1,29.3 15.4,34.6 22,34.6 C28.6,34.6 33.9,29.3 33.9,22.7 C33.9,16.1 28.6,10.8 22,10.8 Z" id="Shape" fill="#383A48"></path>
                            </g>
                        </g>
                        <g transform="translate(197.000000, 333.000000)">
                            <g>
                                <path d="M134.2,145.4 C151.8,131 163,109 163,84.5 C163,41 127.7,5.7 84.2,5.7 C40.7,5.7 5.4,41 5.4,84.5 C5.4,109 16.6,131 34.2,145.4 C16.6,159.8 5.4,181.8 5.4,206.3 C5.4,249.8 40.7,285.1 84.2,285.1 C127.7,285.1 163,249.8 163,206.3 C163,181.8 151.8,159.9 134.2,145.4 Z" id="Path" fill="#7FD6C2"></path>
                                <path d="M84.3,290.1 C38.1,290.1 0.5,252.5 0.5,206.3 C0.5,183.1 10,161.2 26.8,145.4 C10,129.6 0.5,107.7 0.5,84.5 C0.5,38.3 38.1,0.7 84.3,0.7 C130.5,0.7 168.1,38.3 168.1,84.5 C168.1,107.7 158.6,129.6 141.8,145.4 C158.6,161.2 168.1,183.1 168.1,206.3 C168,252.5 130.4,290.1 84.3,290.1 Z M84.3,10.8 C43.6,10.8 10.5,43.9 10.5,84.6 C10.5,106.8 20.3,127.6 37.5,141.6 C38.7,142.5 39.3,144 39.3,145.5 C39.3,147 38.6,148.4 37.5,149.4 C20.3,163.5 10.5,184.3 10.5,206.4 C10.5,247.1 43.6,280.2 84.3,280.2 C125,280.2 158,247 158,206.3 C158,184.1 148.2,163.3 131,149.3 C129.8,148.4 129.2,146.9 129.2,145.4 C129.2,143.9 129.9,142.5 131,141.5 C148.2,127.4 158,106.6 158,84.5 C158,43.8 124.9,10.8 84.3,10.8 Z" id="Shape" fill="#383A48"></path>
                            </g>
                            <path d="M84.3,496.3 C81.5,496.3 79.3,494.1 79.3,491.3 L79.3,72.1 C79.3,69.3 81.5,67.1 84.3,67.1 C87.1,67.1 89.3,69.3 89.3,72.1 L89.3,491.3 C89.3,494 87,496.3 84.3,496.3 Z" id="Path" fill="#383A48"></path>
                            <g transform="translate(51.000000, 194.000000)" id="Path">
                                <line x1="5.3" y1="5.1" x2="33.3" y2="34.5" fill="#7FD6C2"></line>
                                <path d="M33.3,39.5 C32,39.5 30.7,39 29.7,37.9 L1.7,8.5 C-0.2,6.5 -0.1,3.3 1.9,1.4 C3.9,-0.5 7.1,-0.4 9,1.6 L37,31 C38.9,33 38.8,36.2 36.8,38.1 C35.7,39.1 34.5,39.5 33.3,39.5 Z" fill="#383A48"></path>
                            </g>
                            <g transform="translate(79.000000, 194.000000)" id="Path">
                                <line x1="33.3" y1="5.1" x2="5.3" y2="34.5" fill="#7FD6C2"></line>
                                <path d="M5.3,39.5 C4.1,39.5 2.8,39 1.9,38.1 C-0.1,36.2 -0.2,33 1.7,31 L29.7,1.6 C31.6,-0.4 34.8,-0.5 36.8,1.4 C38.8,3.3 38.9,6.5 37,8.5 L9,37.9 C7.9,39 6.6,39.5 5.3,39.5 Z" fill="#383A48"></path>
                            </g>
                            <g transform="translate(51.000000, 89.000000)" id="Path">
                                <line x1="5.3" y1="6" x2="33.3" y2="35.4" fill="#7FD6C2"></line>
                                <path d="M33.3,40.4 C32,40.4 30.7,39.9 29.7,38.8 L1.7,9.4 C-0.2,7.4 -0.1,4.2 1.9,2.3 C3.9,0.4 7.1,0.5 9,2.5 L37,31.9 C38.9,33.9 38.8,37.1 36.8,39 C35.7,39.9 34.5,40.4 33.3,40.4 Z" fill="#383A48"></path>
                            </g>
                            <g transform="translate(79.000000, 89.000000)" id="Path">
                                <line x1="33.3" y1="6" x2="5.3" y2="35.4" fill="#7FD6C2"></line>
                                <path d="M5.3,40.4 C4.1,40.4 2.8,39.9 1.9,39 C-0.1,37.1 -0.2,33.9 1.7,31.9 L29.7,2.5 C31.6,0.5 34.8,0.4 36.8,2.3 C38.8,4.2 38.9,7.4 37,9.4 L9,38.8 C7.9,39.9 6.6,40.4 5.3,40.4 Z" fill="#383A48"></path>
                            </g>
                        </g>
                    </g>
                    <g transform="translate(650.000000, 449.000000)">
                        <g transform="translate(411.000000, 260.000000)" fill="#383A48">
                            <circle id="Oval" cx="60.3" cy="60.3" r="54.9"></circle>
                            <path d="M60.3,120.2 C27.3,120.2 0.4,93.3 0.4,60.3 C0.4,27.3 27.3,0.4 60.3,0.4 C93.3,0.4 120.2,27.3 120.2,60.3 C120.2,93.3 93.3,120.2 60.3,120.2 Z M60.3,10.4 C32.8,10.4 10.4,32.8 10.4,60.3 C10.4,87.8 32.8,110.2 60.3,110.2 C87.8,110.2 110.2,87.8 110.2,60.3 C110.2,32.8 87.8,10.4 60.3,10.4 Z" id="Shape"></path>
                        </g>
                        <g transform="translate(62.000000, 260.000000)" fill="#383A48">
                            <circle id="Oval" cx="59.9" cy="60.4" r="54.9"></circle>
                            <path d="M59.9,120.3 C26.9,120.3 0,93.4 0,60.4 C0,27.4 26.9,0.5 59.9,0.5 C92.9,0.5 119.8,27.4 119.8,60.4 C119.8,93.4 93,120.3 59.9,120.3 Z M59.9,10.5 C32.4,10.5 10,32.9 10,60.4 C10,87.9 32.4,110.3 59.9,110.3 C87.4,110.3 109.8,87.9 109.8,60.4 C109.8,32.9 87.5,10.5 59.9,10.5 Z" id="Shape"></path>
                        </g>
                        <g transform="translate(11.000000, 0.000000)">
                            <path d="M9.4,237.8 C11.3,233 13.9,228.4 17.2,224.4 C18.3,223 19.5,221.6 20.7,220.4 C24.6,216.5 29,213.3 33.8,210.9 C38.7,208.5 43.9,206.8 49.3,206 L132.9,193.7 L260.2,20.9 C267.3,11.2 273.2,5.3 283.3,5.2 C283.3,5.2 283.4,5.2 283.5,5.2 L466.8,5.2 C477.4,5.2 487.6,9.4 494.9,17.1 L673.2,195.2 L673.2,229.6 C673.2,233 674.6,236.2 677,238.6 C678.2,239.8 679,241.1 679.7,242.6 C680.3,244.2 680.6,245.8 680.6,247.5 L680.6,298.4 C680.6,304.2 678.2,309.8 674.2,314 C672.2,316.1 669.7,317.7 667,318.8 C664.3,319.9 661.5,320.5 658.6,320.5 L22.9,320.5 C19.5,320.5 16.2,319.6 13.4,317.7 C11,316.1 9.1,313.9 7.7,311.5 C6.4,309.1 5.7,306.3 5.7,303.4 L5.7,256.8 C5.7,250 7,243.7 9.4,237.8 Z" id="Path" fill="#7FD6C2"></path>
                            <path d="M658.7,325.3 L22.9,325.3 C18.5,325.3 14.2,324 10.6,321.6 C7.7,319.7 5.1,317 3.3,313.6 C1.5,310.4 0.6,306.8 0.6,303.1 L0.6,256.5 C0.6,249.4 2,242.5 4.7,235.9 C6.8,230.5 9.7,225.5 13.2,221.3 C14.4,219.7 15.7,218.3 17.1,216.9 C21.3,212.7 26.1,209.2 31.5,206.5 C36.9,203.8 42.6,202 48.5,201.1 L130.1,189.1 L256.1,17.9 C262.9,8.6 270.1,0.2 283.2,0.1 L283.4,0.1 L466.7,0.1 C478.6,0.1 490.2,5 498.4,13.5 L676.6,191.6 C677.5,192.5 678.1,193.8 678.1,195.1 L678.1,229.5 C678.1,231.5 678.9,233.5 680.5,235.1 C682,236.6 683.3,238.5 684.2,240.6 C685.1,242.8 685.5,245.1 685.5,247.4 L685.5,298.3 C685.5,305.4 682.7,312.2 677.6,317.4 C675.2,319.9 672.2,321.9 668.8,323.3 C665.7,324.6 662.3,325.3 658.7,325.3 Z M283.4,10.1 C275.6,10.2 271.1,14.6 264.3,23.8 L137,196.6 C136.2,197.7 135,198.4 133.7,198.6 L50.1,210.9 C45.3,211.6 40.6,213.1 36.1,215.3 C31.7,217.5 27.7,220.4 24.3,223.9 C23.2,225 22.1,226.2 21.2,227.4 C21.2,227.4 21.1,227.5 21.1,227.5 C18.2,231 15.9,235 14.1,239.5 C14.1,239.5 14.1,239.5 14.1,239.6 C11.9,245 10.8,250.7 10.8,256.5 L10.8,303.1 C10.8,305.1 11.3,307.1 12.2,308.8 C13.2,310.7 14.6,312.2 16.2,313.2 C18.2,314.5 20.5,315.2 23,315.2 L658.7,315.2 C661,315.2 663.2,314.8 665.2,313.9 C667.3,313 669.2,311.8 670.7,310.3 C674,307 675.7,302.7 675.7,298.2 L675.7,247.3 C675.7,246.3 675.5,245.3 675.1,244.3 C674.7,243.4 674.2,242.6 673.5,242 C670.1,238.5 668.3,234 668.3,229.4 L668.3,197.1 L491.5,20.4 C485,13.7 476.3,10 466.9,10 L283.4,10 L283.4,10.1 Z" id="Shape" fill="#383A48"></path>
                        </g>
                        <g transform="translate(158.000000, 33.000000)">
                            <polygon id="Path" fill="#AAC6FC" points="162.7 163.1 5.5 163.1 122.2 5.1 274.2 5.1"></polygon>
                            <path d="M162.7,168.1 L5.5,168.1 C3.6,168.1 1.9,167 1,165.4 C0.1,163.7 0.3,161.7 1.4,160.2 L118.2,2.2 C119.1,0.9 120.6,0.2 122.2,0.2 L274.2,0.2 C276.1,0.2 277.8,1.2 278.6,2.9 C279.4,4.6 279.3,6.6 278.2,8.1 L166.7,166.1 C165.8,167.3 164.3,168.1 162.7,168.1 Z M15.4,158.1 L160.1,158.1 L264.5,10.1 L124.7,10.1 L15.4,158.1 Z" id="Shape" fill="#383A48"></path>
                        </g>
                        <g transform="translate(515.000000, 241.000000)" fill="#383A48">
                            <rect id="Rectangle" x="5.6" y="5.2" width="136.6" height="74.2"></rect>
                            <path d="M142.2,84.4 L5.6,84.4 C2.8,84.4 0.6,82.2 0.6,79.4 L0.6,5.2 C0.6,2.4 2.8,0.2 5.6,0.2 L142.2,0.2 C145,0.2 147.2,2.4 147.2,5.2 L147.2,79.4 C147.2,82.1 145,84.4 142.2,84.4 Z M10.6,74.4 L137.2,74.4 L137.2,10.2 L10.6,10.2 L10.6,74.4 Z" id="Shape"></path>
                        </g>
                        <g transform="translate(141.000000, 0.000000)">
                            <path d="M566.1,247.3 L566.1,298.3 C566.1,304.1 563.7,309.7 559.7,313.9 C555.5,318.1 550,320.3 544.1,320.3 L516.3,320.3 L516.3,319.7 C516.3,286.8 489.6,260 456.6,260 C423.7,260 396.9,286.7 396.9,319.7 L396.9,320.3 L167.3,320.3 L167.3,317.6 C167.3,285.6 141.3,259.8 109.3,260 C77.5,260.2 52.1,286.6 52.1,318.3 L52.1,320.3 L22.6,320.3 C19.2,320.3 15.9,319.3 13.1,317.5 C8.5,314.3 5.6,308.9 5.6,303.1 L5.6,256.4 C5.6,242.9 10.9,229.9 20.5,220.3 C28.2,212.6 38.3,207.5 49.1,205.9 L132.7,193.6 L250,30 C252.4,26.6 255.2,23.5 258.2,20.8 C269.1,10.8 283.5,5.1 298.6,5.1 L467.9,5.1 C482.4,5.6 494.5,16.3 497.6,30.4 L513.5,80.6 L566.1,247.3 Z" id="Path" fill="#F3F6E6"></path>
                            <path d="M544.1,325.4 L516.3,325.4 C513.5,325.4 511.3,323.2 511.3,320.4 L511.3,319.8 C511.3,289.6 486.7,265.1 456.6,265.1 C426.4,265.1 401.9,289.7 401.9,319.8 L401.9,320.4 C401.9,323.2 399.7,325.4 396.9,325.4 L167.3,325.4 C164.5,325.4 162.3,323.2 162.3,320.4 L162.3,317.7 C162.3,303.6 156.8,290.3 146.8,280.4 C136.8,270.5 123.5,265 109.3,265.1 C80.5,265.3 57,289.2 57,318.4 L57,320.4 C57,323.2 54.8,325.4 52,325.4 L22.5,325.4 C18.2,325.4 14,324.1 10.3,321.8 C10.2,321.8 10.2,321.7 10.1,321.7 C4.1,317.5 0.5,310.6 0.5,303.2 L0.5,256.5 C0.5,241.5 6.3,227.5 16.9,216.9 C25.4,208.4 36.5,202.8 48.3,201.1 L129.8,189.1 L245.9,27.2 C248.5,23.6 251.5,20.2 254.8,17.2 C266.8,6.2 282.3,0.2 298.5,0.2 L467.8,0.2 C467.9,0.2 467.9,0.2 468,0.2 C484.6,0.7 498.7,12.7 502.4,29.2 L570.9,245.9 C571.1,246.4 571.1,246.9 571.1,247.4 L571.1,298.4 C571.1,305.5 568.3,312.3 563.2,317.5 C558.1,322.6 551.3,325.4 544.1,325.4 Z M521.1,315.4 L544.1,315.4 C548.6,315.4 552.9,313.6 556.1,310.4 C559.3,307.1 561.1,302.9 561.1,298.4 L561.1,248.1 L492.8,31.9 C492.8,31.8 492.7,31.6 492.7,31.5 C490.1,19.3 479.8,10.6 467.8,10.1 L298.6,10.1 C284.9,10.1 271.7,15.2 261.6,24.5 C258.8,27 256.3,29.9 254.1,32.9 L136.7,196.5 C135.9,197.6 134.7,198.3 133.4,198.5 L49.8,210.8 C40.1,212.2 31,216.8 24,223.8 C15.3,232.5 10.5,244 10.5,256.4 L10.5,303.1 C10.5,307.1 12.5,311 15.8,313.3 C17.9,314.6 20.2,315.3 22.5,315.3 L47.1,315.3 C48.7,282 75.9,255.2 109.2,255 C126,254.9 141.8,261.3 153.8,273.2 C165.2,284.5 171.7,299.4 172.2,315.3 L392,315.3 C394.3,281.7 422.4,255 456.6,255 C490.8,255 518.8,281.8 521.1,315.4 Z" id="Shape" fill="#383A48"></path>
                        </g>
                        <g transform="translate(315.000000, 33.000000)">
                            <polygon id="Path" fill="#AAC6FC" points="332.8 163.1 5.7 163.1 117.2 5.1 284.9 5.1"></polygon>
                            <path d="M332.8,168.1 L5.7,168.1 C3.8,168.1 2.1,167.1 1.3,165.4 C0.4,163.7 0.6,161.7 1.7,160.2 L113.2,2.2 C114.1,0.9 115.7,0.1 117.3,0.1 L285,0.1 C287.2,0.1 289.1,1.5 289.8,3.6 L337.7,161.6 C338.2,163.1 337.9,164.8 336.9,166 C335.9,167.4 334.4,168.1 332.8,168.1 Z M15.3,158.1 L326,158.1 L281.1,10.1 L119.7,10.1 L15.3,158.1 Z" id="Shape" fill="#383A48"></path>
                        </g>
                        <g transform="translate(433.000000, 191.000000)" id="Path">
                            <line x1="5.5" y1="129.4" x2="5.5" y2="5.1" fill="#F3F6E6"></line>
                            <path d="M5.5,134.4 C2.7,134.4 0.5,132.2 0.5,129.4 L0.5,5.1 C0.5,2.3 2.7,0.1 5.5,0.1 C8.3,0.1 10.5,2.3 10.5,5.1 L10.5,129.4 C10.5,132.1 8.2,134.4 5.5,134.4 Z" fill="#383A48"></path>
                        </g>
                        <g transform="translate(22.000000, 249.000000)" fill="#383A48">
                            <path d="M31.7,18.1 L12,18.1 C8.5,18.1 5.6,15.2 5.6,11.7 L5.6,11.7 C5.6,8.2 8.5,5.3 12,5.3 L31.7,5.3 C35.2,5.3 38.1,8.2 38.1,11.7 L38.1,11.7 C38.1,15.3 35.2,18.1 31.7,18.1 Z" id="Path"></path>
                            <path d="M31.7,23.1 L12,23.1 C5.7,23.1 0.6,18 0.6,11.7 C0.6,5.4 5.7,0.3 12,0.3 L31.7,0.3 C38,0.3 43.1,5.4 43.1,11.7 C43.1,18 38,23.1 31.7,23.1 Z M12,10.3 C11.2,10.3 10.6,10.9 10.6,11.7 C10.6,12.5 11.2,13.1 12,13.1 L31.7,13.1 C32.5,13.1 33.1,12.5 33.1,11.7 C33.1,10.9 32.5,10.3 31.7,10.3 L12,10.3 Z" id="Shape"></path>
                        </g>
                        <g transform="translate(96.000000, 249.000000)" fill="#383A48">
                            <path d="M31.1,18.1 L11.4,18.1 C7.9,18.1 5,15.2 5,11.7 L5,11.7 C5,8.2 7.9,5.3 11.4,5.3 L31.1,5.3 C34.6,5.3 37.5,8.2 37.5,11.7 L37.5,11.7 C37.5,15.3 34.6,18.1 31.1,18.1 Z" id="Path"></path>
                            <path d="M31.1,23.1 L11.4,23.1 C5.1,23.1 0,18 0,11.7 C0,5.4 5.1,0.3 11.4,0.3 L31.1,0.3 C37.4,0.3 42.5,5.4 42.5,11.7 C42.5,18 37.4,23.1 31.1,23.1 Z M11.3,10.3 C10.5,10.3 9.9,10.9 9.9,11.7 C9.9,12.5 10.5,13.1 11.3,13.1 L31,13.1 C31.8,13.1 32.4,12.5 32.4,11.7 C32.4,10.9 31.8,10.3 31,10.3 L11.3,10.3 Z" id="Shape"></path>
                        </g>
                        <g transform="translate(0.000000, 296.000000)">
                            <path d="M5.4,20.8 L5.4,20.8 C5.4,12.6 12.3,5.9 20.8,5.9 L177.4,5.9 C185.9,5.9 192.8,12.6 192.8,20.8 L192.8,20.8 C192.8,29 185.9,35.7 177.4,35.7 L20.8,35.7 C12.3,35.7 5.4,29.1 5.4,20.8 Z" id="Path" fill="#F3F6E6"></path>
                            <path d="M177.5,40.7 L20.8,40.7 C9.5,40.7 0.4,31.8 0.4,20.8 C0.4,9.8 9.6,0.9 20.8,0.9 L177.4,0.9 C188.7,0.9 197.8,9.8 197.8,20.8 C197.8,31.8 188.7,40.7 177.5,40.7 Z M20.8,11 C15.1,11 10.4,15.4 10.4,20.9 C10.4,26.4 15.1,30.8 20.8,30.8 L177.4,30.8 C183.1,30.8 187.8,26.4 187.8,20.9 C187.8,15.4 183.1,11 177.4,11 L20.8,11 Z" id="Shape" fill="#383A48"></path>
                        </g>
                        <g transform="translate(539.000000, 260.000000)">
                            <g fill="#383A48">
                                <circle id="Oval" cx="60.5" cy="60.3" r="54.9"></circle>
                                <path d="M60.5,120.2 C27.5,120.2 0.6,93.3 0.6,60.3 C0.6,27.3 27.5,0.4 60.5,0.4 C93.5,0.4 120.4,27.3 120.4,60.3 C120.4,93.3 93.5,120.2 60.5,120.2 Z M60.5,10.4 C33,10.4 10.6,32.8 10.6,60.3 C10.6,87.8 33,110.2 60.5,110.2 C88,110.2 110.4,87.8 110.4,60.3 C110.4,32.8 88,10.4 60.5,10.4 Z" id="Shape"></path>
                            </g>
                            <g transform="translate(14.000000, 14.000000)">
                                <circle id="Oval" fill="#F3F6E6" cx="46.5" cy="46.3" r="41.1"></circle>
                                <path d="M46.5,92.4 C21.1,92.4 0.4,71.7 0.4,46.3 C0.4,20.9 21.1,0.2 46.5,0.2 C71.9,0.2 92.6,20.9 92.6,46.3 C92.6,71.7 71.9,92.4 46.5,92.4 Z M46.5,10.2 C26.6,10.2 10.4,26.4 10.4,46.3 C10.4,66.2 26.6,82.4 46.5,82.4 C66.4,82.4 82.6,66.2 82.6,46.3 C82.5,26.4 66.4,10.2 46.5,10.2 Z" id="Shape" fill="#383A48"></path>
                            </g>
                        </g>
                        <g transform="translate(190.000000, 260.000000)">
                            <g fill="#383A48">
                                <circle id="Oval" cx="60.1" cy="60.4" r="54.9"></circle>
                                <path d="M60.1,120.3 C27.1,120.3 0.2,93.4 0.2,60.4 C0.2,27.4 27.1,0.5 60.1,0.5 C93.1,0.5 120,27.4 120,60.4 C120,93.4 93.1,120.3 60.1,120.3 Z M60.1,10.5 C32.6,10.5 10.2,32.9 10.2,60.4 C10.2,87.9 32.6,110.3 60.1,110.3 C87.6,110.3 110,87.9 110,60.4 C110,32.9 87.6,10.5 60.1,10.5 Z" id="Shape"></path>
                            </g>
                            <g transform="translate(14.000000, 14.000000)">
                                <circle id="Oval" fill="#F3F6E6" cx="46.1" cy="46.4" r="41.1"></circle>
                                <path d="M46.1,92.5 C20.7,92.5 0,71.8 0,46.4 C0,21 20.7,0.3 46.1,0.3 C71.5,0.3 92.2,21 92.2,46.4 C92.2,71.8 71.5,92.5 46.1,92.5 Z M46.1,10.3 C26.2,10.3 10,26.5 10,46.4 C10,66.3 26.2,82.5 46.1,82.5 C66,82.5 82.2,66.3 82.2,46.4 C82.2,26.5 66,10.3 46.1,10.3 Z" id="Shape" fill="#383A48"></path>
                            </g>
                        </g>
                    </g>
                    <path d="M1528,829.3 L592.9,829.3 C590.1,829.3 587.9,827.1 587.9,824.3 C587.9,821.5 590.1,819.3 592.9,819.3 L1528,819.3 C1530.8,819.3 1533,821.5 1533,824.3 C1533,827.1 1530.8,829.3 1528,829.3 Z" id="Path" fill="#383A48"></path>
                    <path d="M1309.1,528.1 L1293.3,478.1 C1289.6,461.5 1275.5,449.6 1258.9,449.1 C1258.8,449.1 1258.8,449.1 1258.7,449.1 L1121.2,449.1 C1118.4,449.1 1116.2,451.3 1116.2,454.1 L1116.2,529.6 C1116.2,532.4 1118.4,534.6 1121.2,534.6 L1304.3,534.6 C1305.9,534.6 1307.4,533.8 1308.3,532.6 C1309.4,531.3 1309.6,529.6 1309.1,528.1 Z" id="Path" fill="#383A48"></path>
                    <g transform="translate(1173.000000, 0.000000)">
                        <rect id="Rectangle" fill="#F3F6E6" x="5.3" y="5.7" width="349.7" height="463.7"></rect>
                        <path d="M355,474.4 L5.3,474.4 C2.5,474.4 0.3,472.2 0.3,469.4 L0.3,5.7 C0.3,2.9 2.5,0.7 5.3,0.7 L355,0.7 C357.8,0.7 360,2.9 360,5.7 L360,469.4 C360,472.2 357.8,474.4 355,474.4 Z M10.3,464.4 L350,464.4 L350,10.7 L10.3,10.7 L10.3,464.4 Z" id="Shape" fill="#383A48"></path>
                        <g transform="translate(56.000000, 181.000000)">
                            <g transform="translate(0.000000, 140.000000)" id="Path">
                                <path d="M89.4,15.9 L86.5,18.8 C75.5,29.8 57.8,29.8 46.8,18.8 L39.8,11.8 C31.9,3.9 19,3.9 11.1,11.8 L11.1,11.8 C3.2,19.7 3.2,32.6 11.1,40.5 L32.4,61.8" fill="#F3F6E6"></path>
                                <path d="M32.4,66.8 C31.1,66.8 29.8,66.3 28.9,65.3 L7.6,44 C-2.3,34.1 -2.3,18.1 7.6,8.3 C17.5,-1.6 33.5,-1.6 43.3,8.3 L50.3,15.3 C59.3,24.3 73.9,24.3 82.9,15.3 L85.8,12.4 C87.8,10.4 90.9,10.4 92.9,12.4 C94.9,14.4 94.9,17.5 92.9,19.5 L90,22.4 C77.1,35.3 56.1,35.3 43.2,22.4 L36.2,15.4 C30.2,9.4 20.6,9.4 14.6,15.4 C8.6,21.4 8.6,31 14.6,37 L35.9,58.3 C37.9,60.3 37.9,63.4 35.9,65.4 C35,66.3 33.7,66.8 32.4,66.8 Z" fill="#383A48"></path>
                            </g>
                            <g transform="translate(136.000000, 0.000000)">
                                <path d="M20.1,66.7 L5,51.6 L47.6,9 C51.8,4.8 58.5,4.8 62.7,9 L62.7,9 C66.9,13.2 66.9,19.9 62.7,24.1 L20.1,66.7 Z" id="Path" fill="#F3F6E6"></path>
                                <path d="M20.1,71.7 C18.8,71.7 17.5,71.2 16.6,70.2 L1.5,55.1 C0.6,54.2 0,52.9 0,51.6 C0,50.3 0.5,49 1.5,48.1 L44.1,5.5 C47.1,2.5 51,0.9 55.2,0.9 C59.4,0.9 63.3,2.5 66.3,5.5 C72.4,11.6 72.4,21.5 66.3,27.6 L23.7,70.2 C22.6,71.2 21.3,71.7 20.1,71.7 Z M12.1,51.6 L20.1,59.6 L59.2,20.5 C61.4,18.3 61.4,14.7 59.2,12.5 C58.1,11.4 56.7,10.8 55.2,10.8 C53.7,10.8 52.3,11.4 51.2,12.5 L12.1,51.6 Z" id="Shape" fill="#383A48"></path>
                            </g>
                            <g transform="translate(173.000000, 38.000000)">
                                <path d="M5.7,51.3 L20.8,66.4 L63.4,23.8 C67.6,19.6 67.6,12.9 63.4,8.7 L63.4,8.7 C59.2,4.5 52.5,4.5 48.3,8.7 L5.7,51.3 Z" id="Path" fill="#F3F6E6"></path>
                                <path d="M20.7,71.3 C19.4,71.3 18.1,70.8 17.2,69.8 L2.1,54.7 C1.2,53.8 0.6,52.5 0.6,51.2 C0.6,49.9 1.1,48.6 2.1,47.7 L44.7,5.1 C47.7,2.1 51.6,0.5 55.8,0.5 C60,0.5 63.9,2.1 66.9,5.1 C73,11.2 73,21.1 66.9,27.2 L24.3,69.8 C23.3,70.8 22,71.3 20.7,71.3 Z M12.7,51.3 L20.7,59.3 L59.8,20.2 C62,18 62,14.4 59.8,12.2 C57.6,10 54,10 51.8,12.2 L12.7,51.3 Z" id="Shape" fill="#383A48"></path>
                            </g>
                            <g transform="translate(69.000000, 23.000000)">
                                <path d="M24.3,129 L24.3,129 C-0.6,104.1 -0.6,63.6 24.3,38.7 L52.3,10.7 C58.9,4.1 69.6,4.1 76.3,10.7 L142.7,77.1 C149.3,83.7 149.3,94.4 142.7,101.1 L114.7,129.1 C89.7,153.9 49.3,153.9 24.3,129 Z" id="Path" fill="#7FD6C2"></path>
                                <path d="M69.5,152.7 C51.1,152.7 33.8,145.5 20.8,132.5 C7.8,119.5 0.6,102.2 0.6,83.8 C0.6,65.4 7.8,48.1 20.8,35.1 L48.8,7.1 C52.9,3 58.5,0.7 64.3,0.7 C70.1,0.7 75.7,3 79.8,7.1 L146.2,73.5 C150.3,77.6 152.6,83.2 152.6,89 C152.6,94.9 150.3,100.4 146.2,104.5 L118.2,132.5 C105.2,145.5 87.9,152.7 69.5,152.7 Z M64.4,10.7 C61.2,10.7 58.2,11.9 56,14.2 L28,42.2 C5,65.2 5,102.5 28,125.5 C51,148.5 88.3,148.5 111.3,125.5 L139.3,97.5 C141.6,95.2 142.8,92.2 142.8,89.1 C142.8,85.9 141.6,82.9 139.3,80.7 L72.9,14.3 C70.6,11.9 67.6,10.7 64.4,10.7 Z" id="Shape" fill="#383A48"></path>
                            </g>
                        </g>
                    </g>
                    <path d="M636.3,819.3 C514,798.1 469.4,738.4 430.1,685.7 C403.3,649.7 378,615.8 332,600.6 C314.2,594.7 294.4,590.9 273.5,586.8 C241.9,580.7 209.2,574.3 179.5,560.2 C146,544.3 121.8,520.7 105.4,488 C104.4,485.9 102,484.8 99.8,485.4 C97.5,485.9 96,487.9 96,490.3 L96,650.4 C96,651.8 96.6,653.1 97.6,654.1 C98.6,655 100,655.5 101.4,655.4 C102.3,655.3 103.3,655.3 104.2,655.2 C113.1,654.9 121.5,656.7 129.2,660.8 C129.4,660.9 129.7,661 130,661.1 C138,663.7 145,668.2 150.8,674.5 C150.8,674.5 150.9,674.6 150.9,674.6 C162.7,686.4 169.4,702.7 170.3,721.7 C170.6,728.4 170.8,735.2 171,741.8 C171.1,745.3 171.2,748.7 171.3,752.2 C171.4,754.4 172.9,756.3 175,756.9 C175.8,757.1 176.6,757.3 177.4,757.6 C177.6,757.7 177.8,757.7 178.1,757.8 C195.3,760.7 213.9,763.9 236.7,768.1 C247.1,770 257.6,771.9 268,773.8 C291.4,778.1 315.6,782.5 339.4,786.6 C357.5,789.7 372.5,793.3 386.8,798 L390.5,799.2 C401.7,802.9 413.3,806.7 425.1,809.2 C425.4,809.3 425.7,809.3 426,809.3 C437.1,809.7 447.6,812.7 457.3,818.2 C460.4,820.2 467.9,821.2 499.3,824.1 C513.7,825.4 533.4,827.2 536.9,828.5 C537.7,829 538.6,829.2 539.5,829.2 L635.4,829.2 C638,829.2 640.2,827.2 640.4,824.6 C640.6,822 638.8,819.8 636.3,819.3 Z" id="Path" fill="#383A48"></path>
                    <path d="M539.5,819.3 C497.8,819.3 462.9,808.5 432.9,786.4 C406.3,766.8 386.9,741.1 368.1,716.3 C342.9,683 319.1,651.5 281.7,640.8 C278.7,639.9 275.5,639 272.3,638.1 C180.6,611.8 10,563 10,402.3 C10,399.5 7.8,397.3 5,397.3 C2.2,397.3 0,399.5 0,402.3 L0,824.2 C0,827 2.2,829.2 5,829.2 L539.5,829.2 C542.3,829.2 544.5,827 544.5,824.2 C544.5,821.4 542.3,819.3 539.5,819.3 Z" id="Path" fill="#F3F6E6"></path>
                </g>
                <path d="M889.9,363.2 C888.4,363.2 886.9,362.5 885.9,361.3 C884.2,359.1 884.6,356 886.8,354.3 C965.3,293.8 993.3,259.1 1001.4,239.5 C996.6,239.5 992.2,238.5 988.3,236.6 C980.5,232.8 976.3,226 976.9,218.5 C977.5,211.5 982.2,205.5 988.6,203.6 C992,202.6 1000.7,201.4 1009.2,212.1 C1012.6,216.4 1014.3,221.4 1014.3,227.1 C1026.8,222.9 1042.4,213 1060.1,198 C1084.2,177.6 1103.9,154.6 1104.1,154.4 C1105.9,152.3 1109.1,152.1 1111.2,153.9 C1113.3,155.7 1113.5,158.9 1111.7,161 C1110.9,162 1091.2,184.8 1066.5,205.7 C1045.4,223.6 1027.4,234.4 1012.5,238.2 C1004.1,266.1 964.9,306.9 892.9,362.4 C892,362.9 891,363.2 889.9,363.2 Z M993,212.8 C992.5,212.8 992,212.9 991.5,213 C989.1,213.7 987.1,216.3 986.9,219.1 C986.6,222.5 988.7,225.4 992.8,227.4 C996,229 999.8,229.6 1004.2,229.2 C1004.6,224.7 1003.7,221.1 1001.3,218.1 C998.6,214.7 995.6,212.8 993,212.8 Z" id="Shape" fill="#4053FA"></path>
                <g transform="translate(22.000000, 227.000000)" fill="#383A48">
                    <g transform="translate(0.000000, 11.000000)">
                        <line x1="0.3" y1="5.6" x2="33.2" y2="5.6" id="Path"></line>
                        <rect id="Rectangle" x="0.3" y="0.6" width="33" height="10"></rect>
                    </g>
                    <g transform="translate(11.000000, 0.000000)">
                        <line x1="5.7" y1="33.1" x2="5.7" y2="0.1" id="Path"></line>
                        <rect id="Rectangle" x="0.7" y="0.1" width="10" height="33"></rect>
                    </g>
                </g>
                <g transform="translate(1430.000000, 618.000000)" fill="#383A48">
                    <g transform="translate(0.000000, 11.000000)">
                        <line x1="0.2" y1="5.6" x2="33.1" y2="5.6" id="Path"></line>
                        <rect id="Rectangle" x="0.2" y="0.6" width="33" height="10"></rect>
                    </g>
                    <g transform="translate(11.000000, 0.000000)">
                        <line x1="5.6" y1="33.1" x2="5.6" y2="0.1" id="Path"></line>
                        <rect id="Rectangle" x="0.6" y="0.1" width="10" height="33"></rect>
                    </g>
                </g>
            </g>
        </g>
    </g>
</svg>