<?xml version="1.0" encoding="utf-8"?>
<!-- Generator: Adobe Illustrator 22.0.1, SVG Export Plug-In . SVG Version: 6.00 Build 0)  -->
<svg version="1.1" id="Layer_1" xmlns="http://www.w3.org/2000/svg" xmlns:xlink="http://www.w3.org/1999/xlink" x="0px" y="0px" viewBox="0 0 1920 1080" style="enable-background:new 0 0 1920 1080;" xml:space="preserve">

<rect width="1920" height="1080" style="fill:#7FD6C2;"/>
<g>
	<g>
		<path d="M1463.7,127.7c-0.9-1.3-2.4-2-4-2h-362.7c-2.8,0-5,2.2-5,5c0,2.8,2.2,5,5,5c27.7,0,51.7,14.6,69.6,42.2
			c20.4,31.6,31.9,79.5,33.3,138.7c0.8,36.4,10.4,63.5,29.2,82.9c16.6,17.1,38,26.1,58.7,34.7c25.9,10.9,50.4,21.2,63.2,46.3
			c0.9,1.7,2.6,2.7,4.5,2.7c0.1,0,0.3,0,0.4,0c2-0.2,3.8-1.6,4.3-3.5l104.3-347.6C1464.9,130.6,1464.6,129,1463.7,127.7z" style="fill:#F3F6E6;"/>
		<g>
			<g>
				<g>
					<rect x="444.8" y="248.8" width="652.1" height="539.5" style="fill:#F3F6E6;"/>
					<path d="M1101.9,793.2H439.8V243.8h662.1V793.2z M449.8,783.2h642.1V253.8H449.8V783.2z" style="fill:#383A48;"/>
				</g>
				<g>
					<rect x="444.8" y="130.7" width="652.1" height="118" style="fill:#E0719E;"/>
					<path d="M1096.9,253.8H444.8c-2.8,0-5-2.2-5-5v-118c0-2.8,2.2-5,5-5h652.1c2.8,0,5,2.2,5,5v118
						C1101.9,251.5,1099.7,253.8,1096.9,253.8z M449.8,243.8h642.1v-108H449.8V243.8z" style="fill:#383A48;"/>
				</g>
			</g>
			<g>
				<g>
					<circle cx="507.4" cy="189.7" r="16.9" style="fill:#E0719E;"/>
					<path d="M507.4,211.7c-12.1,0-21.9-9.8-21.9-21.9s9.8-21.9,21.9-21.9c12.1,0,21.9,9.8,21.9,21.9
						S519.5,211.7,507.4,211.7z M507.4,177.8c-6.6,0-11.9,5.3-11.9,11.9s5.3,11.9,11.9,11.9s11.9-5.3,11.9-11.9
						S514,177.8,507.4,177.8z" style="fill:#383A48;"/>
				</g>
				<g>
					<circle cx="559.2" cy="189.7" r="16.9" style="fill:#F6E049;"/>
					<path d="M559.2,211.7c-12.1,0-21.9-9.8-21.9-21.9s9.8-21.9,21.9-21.9c12.1,0,21.9,9.8,21.9,21.9
						S571.2,211.7,559.2,211.7z M559.2,177.8c-6.6,0-11.9,5.3-11.9,11.9s5.3,11.9,11.9,11.9s11.9-5.3,11.9-11.9
						S565.7,177.8,559.2,177.8z" style="fill:#383A48;"/>
				</g>
				<g>
					<circle cx="610.9" cy="189.7" r="16.9" style="fill:#7FD6C2;"/>
					<path d="M610.9,211.7c-12.1,0-21.9-9.8-21.9-21.9s9.8-21.9,21.9-21.9c12.1,0,21.9,9.8,21.9,21.9
						S623,211.7,610.9,211.7z M610.9,177.8c-6.6,0-11.9,5.3-11.9,11.9s5.3,11.9,11.9,11.9s11.9-5.3,11.9-11.9
						S617.5,177.8,610.9,177.8z" style="fill:#383A48;"/>
				</g>
			</g>
			<g>
				<g>
					<rect x="363.7" y="324.7" width="652.1" height="539.5" style="fill:#F3F6E6;"/>
					<path d="M1020.8,869.2H358.7V319.7h662.1V869.2z M368.7,859.2h642.1V329.7H368.7V859.2z" style="fill:#383A48;"/>
				</g>
				<g>
					<rect x="363.7" y="206.7" width="652.1" height="118" style="fill:#F6E049;"/>
					<path d="M1020.8,329.7H358.7v-128h662.1V329.7z M368.7,319.7h642.1v-108H368.7V319.7z" style="fill:#383A48;"/>
				</g>
			</g>
			<g>
				<path d="M277.9,409.8v365.6c1-0.1,2-0.1,2.9-0.2c9.8-0.4,19,1.7,27.5,6.1c8.8,2.9,16.5,7.8,23,14.7
					c13.6,13.6,20,31.6,20.9,50.4c0.5,10.2,0.7,20.3,1.1,30.5c0.9,0.2,1.7,0.5,2.6,0.7c19.6,3.3,39.2,6.7,58.7,10.3
					c34.2,6.2,68.4,12.6,102.7,18.6c16.5,2.8,32.2,6.4,48.1,11.6c12.5,4.1,24.9,8.3,37.8,11.1c12,0.4,23.3,3.6,33.8,9.7
					c4.4,3.4,8.9,6.9,13.3,10.3H930V409.8H277.9z" style="fill:#F3F6E6;"/>
				<path d="M935,954.3H648.5l-14.4-11.1c-9.6-5.5-20.1-8.5-31.1-8.9l-0.4,0l-0.4-0.1c-11.8-2.5-23.4-6.3-34.6-10
					l-3.7-1.2c-14.2-4.6-29.3-8.3-47.4-11.4c-23.9-4.1-48-8.6-71.4-12.8c-10.4-1.9-20.9-3.8-31.3-5.7c-22.8-4.1-41.5-7.4-58.6-10.3
					l-0.7-0.2c-0.8-0.2-1.6-0.5-2.4-0.7l-3.6-1l-0.1-3.7c-0.1-3.5-0.2-6.9-0.3-10.4c-0.2-6.6-0.4-13.4-0.7-20.1
					c-0.9-19-7.6-35.3-19.4-47.1l-0.1-0.1c-5.8-6.3-12.9-10.8-20.8-13.4l-0.4-0.1l-0.4-0.2c-7.7-4-16.1-5.9-25-5.6
					c-0.9,0-1.8,0.1-2.8,0.2l-5.4,0.4v-376H935V954.3z M651.9,944.3H925V414.8H282.9v355.4c9.7,0,18.9,2.2,27.4,6.6
					c9.4,3.1,17.7,8.5,24.6,15.9c13.5,13.6,21.2,32.1,22.3,53.7c0.3,6.8,0.5,13.6,0.7,20.3c0.1,2.2,0.1,4.4,0.2,6.5
					c16.8,2.8,35.1,6,57.3,10c10.4,1.9,20.9,3.8,31.3,5.7c23.4,4.3,47.5,8.7,71.3,12.8c18.6,3.2,34.1,6.9,48.8,11.7l3.7,1.2
					c10.8,3.5,22,7.2,33.1,9.6c12.6,0.5,24.6,4,35.6,10.4l0.5,0.4L651.9,944.3z" style="fill:#383A48;"/>
			</g>
			<g>
				<g>
					<path d="M745.1,843.4L745.1,843.4c-34.1,0-61.7-27.6-61.7-61.7v-99.2c0-34.1,27.6-61.7,61.7-61.7h0
						c34.1,0,61.7,27.6,61.7,61.7v99.2C806.8,815.8,779.2,843.4,745.1,843.4z" style="fill:#F6E049;"/>
					<path d="M745.1,848.4c-36.8,0-66.7-29.9-66.7-66.7v-99.2c0-36.8,29.9-66.7,66.7-66.7c36.8,0,66.7,29.9,66.7,66.7
						v99.2C811.8,818.5,781.9,848.4,745.1,848.4z M745.1,625.9c-31.2,0-56.7,25.4-56.7,56.7v99.2c0,31.2,25.4,56.7,56.7,56.7h0
						c31.2,0,56.7-25.4,56.7-56.7v-99.2C801.8,651.3,776.4,625.9,745.1,625.9z" style="fill:#383A48;"/>
				</g>
				<g>
					<g>
						<path d="M745.1,954.3c-2.8,0-5-2.2-5-5V750.4c0-2.8,2.2-5,5-5s5,2.2,5,5v198.9C750.1,952,747.9,954.3,745.1,954.3
							z" style="fill:#383A48;"/>
					</g>
				</g>
			</g>
			<g>
				<rect x="277.9" y="291.8" width="652.1" height="118" style="fill:#AAC6FC;"/>
				<path d="M930,414.8H277.9c-2.8,0-5-2.2-5-5v-118c0-2.8,2.2-5,5-5H930c2.8,0,5,2.2,5,5v118
					C935,412.6,932.8,414.8,930,414.8z M282.9,404.8H925v-108H282.9V404.8z" style="fill:#383A48;"/>
			</g>
			<g>
				<g>
					<circle cx="328.8" cy="350.8" r="16.9" style="fill:#E0719E;"/>
					<path d="M328.8,372.7c-12.1,0-21.9-9.8-21.9-21.9c0-12.1,9.8-21.9,21.9-21.9c12.1,0,21.9,9.8,21.9,21.9
						C350.8,362.9,340.9,372.7,328.8,372.7z M328.8,338.9c-6.6,0-11.9,5.3-11.9,11.9s5.3,11.9,11.9,11.9s11.9-5.3,11.9-11.9
						S335.4,338.9,328.8,338.9z" style="fill:#383A48;"/>
				</g>
				<g>
					<circle cx="380.6" cy="350.8" r="16.9" style="fill:#F6E049;"/>
					<path d="M380.6,372.7c-12.1,0-21.9-9.8-21.9-21.9c0-12.1,9.8-21.9,21.9-21.9s21.9,9.8,21.9,21.9
						C402.5,362.9,392.7,372.7,380.6,372.7z M380.6,338.9c-6.6,0-11.9,5.3-11.9,11.9s5.3,11.9,11.9,11.9s11.9-5.3,11.9-11.9
						S387.2,338.9,380.6,338.9z" style="fill:#383A48;"/>
				</g>
				<g>
					<circle cx="432.4" cy="350.8" r="16.9" style="fill:#7FD6C2;"/>
					<path d="M432.4,372.7c-12.1,0-21.9-9.8-21.9-21.9c0-12.1,9.8-21.9,21.9-21.9c12.1,0,21.9,9.8,21.9,21.9
						C454.3,362.9,444.4,372.7,432.4,372.7z M432.4,338.9c-6.6,0-11.9,5.3-11.9,11.9s5.3,11.9,11.9,11.9s11.9-5.3,11.9-11.9
						S438.9,338.9,432.4,338.9z" style="fill:#383A48;"/>
				</g>
			</g>
			<g>
				<g>
					<circle cx="427.5" cy="265.7" r="16.9" style="fill:#E0719E;"/>
					<path d="M427.5,287.6c-12.1,0-21.9-9.8-21.9-21.9c0-12.1,9.8-21.9,21.9-21.9c12.1,0,21.9,9.8,21.9,21.9
						C449.4,277.8,439.6,287.6,427.5,287.6z M427.5,253.8c-6.6,0-11.9,5.3-11.9,11.9s5.3,11.9,11.9,11.9s11.9-5.3,11.9-11.9
						S434.1,253.8,427.5,253.8z" style="fill:#383A48;"/>
				</g>
				<g>
					<circle cx="479.3" cy="265.7" r="16.9" style="fill:#F6E049;"/>
					<path d="M479.3,287.6c-12.1,0-21.9-9.8-21.9-21.9c0-12.1,9.8-21.9,21.9-21.9c12.1,0,21.9,9.8,21.9,21.9
						C501.2,277.8,491.3,287.6,479.3,287.6z M479.3,253.8c-6.6,0-11.9,5.3-11.9,11.9s5.3,11.9,11.9,11.9s11.9-5.3,11.9-11.9
						S485.8,253.8,479.3,253.8z" style="fill:#383A48;"/>
				</g>
				<g>
					<circle cx="531" cy="265.7" r="16.9" style="fill:#7FD6C2;"/>
					<path d="M531,287.6c-12.1,0-21.9-9.8-21.9-21.9c0-12.1,9.8-21.9,21.9-21.9c12.1,0,21.9,9.8,21.9,21.9
						C552.9,277.8,543.1,287.6,531,287.6z M531,253.8c-6.6,0-11.9,5.3-11.9,11.9s5.3,11.9,11.9,11.9s11.9-5.3,11.9-11.9
						S537.6,253.8,531,253.8z" style="fill:#383A48;"/>
				</g>
			</g>
			<g>
				<g>
					<g>
						<path d="M603.2,603.4c17.6-14.4,28.8-36.4,28.8-60.9c0-43.5-35.3-78.8-78.8-78.8s-78.8,35.3-78.8,78.8
							c0,24.5,11.2,46.5,28.8,60.9c-17.6,14.4-28.8,36.4-28.8,60.9c0,43.5,35.3,78.8,78.8,78.8s78.8-35.3,78.8-78.8
							C632,639.8,620.8,617.9,603.2,603.4z" style="fill:#7FD6C2;"/>
					</g>
					<g>
						<path d="M553.3,748.1c-46.2,0-83.8-37.6-83.8-83.8c0-23.2,9.5-45.1,26.3-60.9c-16.8-15.8-26.3-37.7-26.3-60.9
							c0-46.2,37.6-83.8,83.8-83.8s83.8,37.6,83.8,83.8c0,23.2-9.5,45.1-26.3,60.9c16.8,15.8,26.3,37.7,26.3,60.9
							C637,710.5,599.4,748.1,553.3,748.1z M553.3,468.8c-40.7,0-73.8,33.1-73.8,73.8c0,22.2,9.8,43,27,57c1.2,0.9,1.8,2.4,1.8,3.9
							s-0.7,2.9-1.8,3.9c-17.2,14.1-27,34.9-27,57c0,40.7,33.1,73.8,73.8,73.8S627,705,627,664.3c0-22.2-9.8-43-27-57
							c-1.2-0.9-1.8-2.4-1.8-3.9s0.7-2.9,1.8-3.9c17.2-14.1,27-34.9,27-57C627,501.8,593.9,468.8,553.3,468.8z" style="fill:#383A48;"/>
					</g>
				</g>
				<g>
					<g>
						<path d="M553.3,954.3c-2.8,0-5-2.2-5-5V530.1c0-2.8,2.2-5,5-5s5,2.2,5,5v419.2C558.3,952,556,954.3,553.3,954.3z" style="fill:#383A48;"/>
					</g>
				</g>
				<g>
					<line x1="525.3" y1="657.1" x2="553.3" y2="686.5" style="fill:#7FD6C2;"/>
					<path d="M553.3,691.5c-1.3,0-2.6-0.5-3.6-1.6l-28-29.4c-1.9-2-1.8-5.2,0.2-7.1c2-1.9,5.2-1.8,7.1,0.2l28,29.4
						c1.9,2,1.8,5.2-0.2,7.1C555.7,691.1,554.5,691.5,553.3,691.5z" style="fill:#383A48;"/>
				</g>
				<g>
					<line x1="581.3" y1="657.1" x2="553.3" y2="686.5" style="fill:#7FD6C2;"/>
					<path d="M553.3,691.5c-1.2,0-2.5-0.5-3.4-1.4c-2-1.9-2.1-5.1-0.2-7.1l28-29.4c1.9-2,5.1-2.1,7.1-0.2
						c2,1.9,2.1,5.1,0.2,7.1l-28,29.4C555.9,691,554.6,691.5,553.3,691.5z" style="fill:#383A48;"/>
				</g>
				<g>
					<line x1="525.3" y1="553" x2="553.3" y2="582.4" style="fill:#7FD6C2;"/>
					<path d="M553.3,587.4c-1.3,0-2.6-0.5-3.6-1.6l-28-29.4c-1.9-2-1.8-5.2,0.2-7.1c2-1.9,5.2-1.8,7.1,0.2l28,29.4
						c1.9,2,1.8,5.2-0.2,7.1C555.7,586.9,554.5,587.4,553.3,587.4z" style="fill:#383A48;"/>
				</g>
				<g>
					<line x1="581.3" y1="553" x2="553.3" y2="582.4" style="fill:#7FD6C2;"/>
					<path d="M553.3,587.4c-1.2,0-2.5-0.5-3.4-1.4c-2-1.9-2.1-5.1-0.2-7.1l28-29.4c1.9-2,5.1-2.1,7.1-0.2
						c2,1.9,2.1,5.1,0.2,7.1l-28,29.4C555.9,586.9,554.6,587.4,553.3,587.4z" style="fill:#383A48;"/>
				</g>
			</g>
		</g>
		<g>
			<g>
				<g>
					<circle cx="1298.3" cy="894.3" r="54.9" style="fill:#383A48;"/>
					<path d="M1298.3,954.2c-33,0-59.9-26.9-59.9-59.9s26.9-59.9,59.9-59.9s59.9,26.9,59.9,59.9
						S1331.3,954.2,1298.3,954.2z M1298.3,844.4c-27.5,0-49.9,22.4-49.9,49.9s22.4,49.9,49.9,49.9s49.9-22.4,49.9-49.9
						S1325.8,844.4,1298.3,844.4z" style="fill:#383A48;"/>
				</g>
			</g>
			<g>
				<g>
					<circle cx="948.9" cy="894.4" r="54.9" style="fill:#383A48;"/>
					<path d="M948.9,954.3c-33,0-59.9-26.9-59.9-59.9s26.9-59.9,59.9-59.9s59.9,26.9,59.9,59.9S982,954.3,948.9,954.3z
						 M948.9,844.5c-27.5,0-49.9,22.4-49.9,49.9c0,27.5,22.4,49.9,49.9,49.9s49.9-22.4,49.9-49.9
						C998.8,866.9,976.5,844.5,948.9,844.5z" style="fill:#383A48;"/>
				</g>
			</g>
			<g>
				<g>
					<path d="M847.4,811.8c1.9-4.8,4.5-9.4,7.8-13.4c1.1-1.4,2.3-2.8,3.5-4c3.9-3.9,8.3-7.1,13.1-9.5
						c4.9-2.4,10.1-4.1,15.5-4.9l83.6-12.3l127.3-172.8c7.1-9.7,13-15.6,23.1-15.7c0,0,0.1,0,0.2,0h183.3c10.6,0,20.8,4.2,28.1,11.9
						l178.3,178.1v34.4c0,3.4,1.4,6.6,3.8,9c1.2,1.2,2,2.5,2.7,4c0.6,1.6,0.9,3.2,0.9,4.9v50.9c0,5.8-2.4,11.4-6.4,15.6
						c-2,2.1-4.5,3.7-7.2,4.8c-2.7,1.1-5.5,1.7-8.4,1.7H860.9c-3.4,0-6.7-0.9-9.5-2.8c-2.4-1.6-4.3-3.8-5.7-6.2
						c-1.3-2.4-2-5.2-2-8.1v-46.6C843.7,824,845,817.7,847.4,811.8z" style="fill:#7FD6C2;"/>
				</g>
				<g>
					<path d="M1496.7,899.3H860.9c-4.4,0-8.7-1.3-12.3-3.7c-2.9-1.9-5.5-4.6-7.3-8c-1.8-3.2-2.7-6.8-2.7-10.5v-46.6
						c0-7.1,1.4-14,4.1-20.6c2.1-5.4,5-10.4,8.5-14.6c1.2-1.6,2.5-3,3.9-4.4c4.2-4.2,9-7.7,14.4-10.4c5.4-2.7,11.1-4.5,17-5.4
						l81.6-12l126-171.2c6.8-9.3,14-17.7,27.1-17.8l0.2,0h183.3c11.9,0,23.5,4.9,31.7,13.4l178.2,178.1c0.9,0.9,1.5,2.2,1.5,3.5
						v34.4c0,2,0.8,4,2.4,5.6c1.5,1.5,2.8,3.4,3.7,5.5c0.9,2.2,1.3,4.5,1.3,6.8v50.9c0,7.1-2.8,13.9-7.9,19.1
						c-2.4,2.5-5.4,4.5-8.8,5.9C1503.7,898.6,1500.3,899.3,1496.7,899.3z M1121.4,584.1c-7.8,0.1-12.3,4.5-19.1,13.7L975,770.6
						c-0.8,1.1-2,1.8-3.3,2l-83.6,12.3c-4.8,0.7-9.5,2.2-14,4.4c-4.4,2.2-8.4,5.1-11.8,8.6c-1.1,1.1-2.2,2.3-3.1,3.5
						c0,0-0.1,0.1-0.1,0.1c-2.9,3.5-5.2,7.5-7,12c0,0,0,0,0,0.1c-2.2,5.4-3.3,11.1-3.3,16.9v46.6c0,2,0.5,4,1.4,5.7
						c1,1.9,2.4,3.4,4,4.4c2,1.3,4.3,2,6.8,2h635.7c2.3,0,4.5-0.4,6.5-1.3c2.1-0.9,4-2.1,5.5-3.6c3.3-3.3,5-7.6,5-12.1v-50.9
						c0-1-0.2-2-0.6-3c-0.4-0.9-0.9-1.7-1.6-2.3c-3.4-3.5-5.2-8-5.2-12.6v-32.3l-176.8-176.7c-6.5-6.7-15.2-10.4-24.6-10.4H1121.4z
						 M847.4,811.8L847.4,811.8L847.4,811.8z" style="fill:#383A48;"/>
				</g>
			</g>
			<g>
				<polygon points="1147.7,770.1 990.5,770.1 1107.2,612.1 1259.2,612.1 				" style="fill:#AAC6FC;"/>
				<path d="M1147.7,775.1H990.5c-1.9,0-3.6-1.1-4.5-2.7c-0.9-1.7-0.7-3.7,0.4-5.2l116.8-158c0.9-1.3,2.4-2,4-2h152
					c1.9,0,3.6,1,4.4,2.7s0.7,3.7-0.4,5.2l-111.5,158C1150.8,774.3,1149.3,775.1,1147.7,775.1z M1000.4,765.1h144.7l104.4-148
					h-139.8L1000.4,765.1z" style="fill:#383A48;"/>
			</g>
			<g>
				<rect x="1347.6" y="820.2" width="136.6" height="74.2" style="fill:#383A48;"/>
				<path d="M1484.2,899.4h-136.6c-2.8,0-5-2.2-5-5v-74.2c0-2.8,2.2-5,5-5h136.6c2.8,0,5,2.2,5,5v74.2
					C1489.2,897.1,1487,899.4,1484.2,899.4z M1352.6,889.4h126.6v-64.2h-126.6V889.4z" style="fill:#383A48;"/>
			</g>
			<g>
				<path d="M1534.1,821.3v51c0,5.8-2.4,11.4-6.4,15.6c-4.2,4.2-9.7,6.4-15.6,6.4h-27.8v-0.6
					c0-32.9-26.7-59.7-59.7-59.7c-32.9,0-59.7,26.7-59.7,59.7v0.6h-229.6v-2.7c0-32-26-57.8-58-57.6c-31.8,0.2-57.2,26.6-57.2,58.3
					v2h-29.5c-3.4,0-6.7-1-9.5-2.8c-4.6-3.2-7.5-8.6-7.5-14.4v-46.7c0-13.5,5.3-26.5,14.9-36.1c7.7-7.7,17.8-12.8,28.6-14.4
					l83.6-12.3L1218,604c2.4-3.4,5.2-6.5,8.2-9.2c10.9-10,25.3-15.7,40.4-15.7h169.3c14.5,0.5,26.6,11.2,29.7,25.3l15.9,50.2
					L1534.1,821.3z" style="fill:#F3F6E6;"/>
				<path d="M1512.1,899.4h-27.8c-2.8,0-5-2.2-5-5v-0.6c0-30.2-24.6-54.7-54.7-54.7c-30.2,0-54.7,24.6-54.7,54.7v0.6
					c0,2.8-2.2,5-5,5h-229.6c-2.8,0-5-2.2-5-5v-2.7c0-14.1-5.5-27.4-15.5-37.3c-10-9.9-23.3-15.4-37.5-15.3
					c-28.8,0.2-52.3,24.1-52.3,53.3v2c0,2.8-2.2,5-5,5h-29.5c-4.3,0-8.5-1.3-12.2-3.6c-0.1,0-0.1-0.1-0.2-0.1
					c-6-4.2-9.6-11.1-9.6-18.5v-46.7c0-15,5.8-29,16.4-39.6c8.5-8.5,19.6-14.1,31.4-15.8l81.5-12l116.1-161.9c2.6-3.6,5.6-7,8.9-10
					c12-11,27.5-17,43.7-17h169.3c0.1,0,0.1,0,0.2,0c16.6,0.5,30.7,12.5,34.4,29l68.5,216.7c0.2,0.5,0.2,1,0.2,1.5v51
					c0,7.1-2.8,13.9-7.9,19.1C1526.1,896.6,1519.3,899.4,1512.1,899.4z M1489.1,889.4h23c4.5,0,8.8-1.8,12-5c3.2-3.3,5-7.5,5-12
					v-50.3l-68.3-216.2c0-0.1-0.1-0.3-0.1-0.4c-2.6-12.2-12.9-20.9-24.9-21.4h-169.2c-13.7,0-26.9,5.1-37,14.4
					c-2.8,2.5-5.3,5.4-7.5,8.4l-117.4,163.6c-0.8,1.1-2,1.8-3.3,2l-83.6,12.3c-9.7,1.4-18.8,6-25.8,13c-8.7,8.7-13.5,20.2-13.5,32.6
					v46.7c0,4,2,7.9,5.3,10.2c2.1,1.3,4.4,2,6.7,2h24.6c1.6-33.3,28.8-60.1,62.1-60.3c16.8-0.1,32.6,6.3,44.6,18.2
					c11.4,11.3,17.9,26.2,18.4,42.1h219.8c2.3-33.6,30.4-60.3,64.6-60.3S1486.8,855.8,1489.1,889.4z" style="fill:#383A48;"/>
			</g>
			<g>
				<polygon points="1474.8,770.1 1147.7,770.1 1259.2,612.1 1426.9,612.1 				" style="fill:#AAC6FC;"/>
				<path d="M1474.8,775.1h-327.1c-1.9,0-3.6-1-4.4-2.7c-0.9-1.7-0.7-3.7,0.4-5.2l111.5-158c0.9-1.3,2.5-2.1,4.1-2.1
					h167.7c2.2,0,4.1,1.4,4.8,3.5l47.9,158c0.5,1.5,0.2,3.2-0.8,4.4C1477.9,774.4,1476.4,775.1,1474.8,775.1z M1157.3,765.1h310.7
					l-44.9-148h-161.4L1157.3,765.1z" style="fill:#383A48;"/>
			</g>
			<g>
				<line x1="1265.5" y1="894.4" x2="1265.5" y2="770.1" style="fill:#F3F6E6;"/>
				<path d="M1265.5,899.4c-2.8,0-5-2.2-5-5V770.1c0-2.8,2.2-5,5-5s5,2.2,5,5v124.3
					C1270.5,897.1,1268.2,899.4,1265.5,899.4z" style="fill:#383A48;"/>
			</g>
			<g>
				<path d="M880.7,841.1H861c-3.5,0-6.4-2.9-6.4-6.4v0c0-3.5,2.9-6.4,6.4-6.4h19.7c3.5,0,6.4,2.9,6.4,6.4v0
					C887.1,838.3,884.2,841.1,880.7,841.1z" style="fill:#383A48;"/>
				<path d="M880.7,846.1H861c-6.3,0-11.4-5.1-11.4-11.4s5.1-11.4,11.4-11.4h19.7c6.3,0,11.4,5.1,11.4,11.4
					S887,846.1,880.7,846.1z M861,833.3c-0.8,0-1.4,0.6-1.4,1.4c0,0.8,0.6,1.4,1.4,1.4h19.7c0.8,0,1.4-0.6,1.4-1.4
					c0-0.8-0.6-1.4-1.4-1.4H861z" style="fill:#383A48;"/>
			</g>
			<g>
				<path d="M954.1,841.1h-19.7c-3.5,0-6.4-2.9-6.4-6.4v0c0-3.5,2.9-6.4,6.4-6.4h19.7c3.5,0,6.4,2.9,6.4,6.4v0
					C960.5,838.3,957.6,841.1,954.1,841.1z" style="fill:#383A48;"/>
				<path d="M954.1,846.1h-19.7c-6.3,0-11.4-5.1-11.4-11.4s5.1-11.4,11.4-11.4h19.7c6.3,0,11.4,5.1,11.4,11.4
					S960.4,846.1,954.1,846.1z M934.3,833.3c-0.8,0-1.4,0.6-1.4,1.4c0,0.8,0.6,1.4,1.4,1.4h19.7c0.8,0,1.4-0.6,1.4-1.4
					c0-0.8-0.6-1.4-1.4-1.4H934.3z" style="fill:#383A48;"/>
			</g>
			<g>
				<path d="M832.4,890.8L832.4,890.8c0-8.2,6.9-14.9,15.4-14.9h156.6c8.5,0,15.4,6.7,15.4,14.9l0,0
					c0,8.2-6.9,14.9-15.4,14.9H847.8C839.3,905.7,832.4,899.1,832.4,890.8z" style="fill:#F3F6E6;"/>
				<path d="M1004.5,910.7H847.8c-11.3,0-20.4-8.9-20.4-19.9s9.2-19.9,20.4-19.9h156.6c11.3,0,20.4,8.9,20.4,19.9
					S1015.7,910.7,1004.5,910.7z M847.8,881c-5.7,0-10.4,4.4-10.4,9.9s4.7,9.9,10.4,9.9h156.6c5.7,0,10.4-4.4,10.4-9.9
					s-4.7-9.9-10.4-9.9H847.8z" style="fill:#383A48;"/>
			</g>
			<g>
				<g>
					<circle cx="1426.5" cy="894.3" r="54.9" style="fill:#383A48;"/>
					<path d="M1426.5,954.2c-33,0-59.9-26.9-59.9-59.9s26.9-59.9,59.9-59.9s59.9,26.9,59.9,59.9
						S1459.5,954.2,1426.5,954.2z M1426.5,844.4c-27.5,0-49.9,22.4-49.9,49.9s22.4,49.9,49.9,49.9s49.9-22.4,49.9-49.9
						S1454,844.4,1426.5,844.4z" style="fill:#383A48;"/>
				</g>
				<g>
					<circle cx="1426.5" cy="894.3" r="41.1" style="fill:#F3F6E6;"/>
					<path d="M1426.5,940.4c-25.4,0-46.1-20.7-46.1-46.1s20.7-46.1,46.1-46.1c25.4,0,46.1,20.7,46.1,46.1
						S1451.9,940.4,1426.5,940.4z M1426.5,858.2c-19.9,0-36.1,16.2-36.1,36.1c0,19.9,16.2,36.1,36.1,36.1s36.1-16.2,36.1-36.1
						C1462.5,874.4,1446.4,858.2,1426.5,858.2z" style="fill:#383A48;"/>
				</g>
			</g>
			<g>
				<g>
					<circle cx="1077.1" cy="894.4" r="54.9" style="fill:#383A48;"/>
					<path d="M1077.1,954.3c-33,0-59.9-26.9-59.9-59.9s26.9-59.9,59.9-59.9s59.9,26.9,59.9,59.9
						S1110.1,954.3,1077.1,954.3z M1077.1,844.5c-27.5,0-49.9,22.4-49.9,49.9c0,27.5,22.4,49.9,49.9,49.9
						c27.5,0,49.9-22.4,49.9-49.9C1127,866.9,1104.6,844.5,1077.1,844.5z" style="fill:#383A48;"/>
				</g>
				<g>
					<circle cx="1077.1" cy="894.4" r="41.1" style="fill:#F3F6E6;"/>
					<path d="M1077.1,940.5c-25.4,0-46.1-20.7-46.1-46.1s20.7-46.1,46.1-46.1s46.1,20.7,46.1,46.1
						S1102.5,940.5,1077.1,940.5z M1077.1,858.3c-19.9,0-36.1,16.2-36.1,36.1c0,19.9,16.2,36.1,36.1,36.1
						c19.9,0,36.1-16.2,36.1-36.1C1113.2,874.5,1097,858.3,1077.1,858.3z" style="fill:#383A48;"/>
				</g>
			</g>
		</g>
		<g>
			<path d="M1705,954.3H769.9c-2.8,0-5-2.2-5-5s2.2-5,5-5H1705c2.8,0,5,2.2,5,5S1707.8,954.3,1705,954.3z" style="fill:#383A48;"/>
		</g>
		<path d="M1486.1,653.1l-15.8-50c-3.7-16.6-17.8-28.5-34.4-29c-0.1,0-0.1,0-0.2,0h-137.5c-2.8,0-5,2.2-5,5v75.5
			c0,2.8,2.2,5,5,5h183.1c1.6,0,3.1-0.8,4-2C1486.4,656.3,1486.6,654.6,1486.1,653.1z" style="fill:#383A48;"/>
		<g>
			<rect x="1355.3" y="130.7" width="349.7" height="463.7" style="fill:#F3F6E6;"/>
			<path d="M1705,599.4h-349.7c-2.8,0-5-2.2-5-5V130.7c0-2.8,2.2-5,5-5H1705c2.8,0,5,2.2,5,5v463.7
				C1710,597.2,1707.8,599.4,1705,599.4z M1360.3,589.4H1700V135.7h-339.7V589.4z" style="fill:#383A48;"/>
			<g>
				<g>
					<path d="M1495.4,461.9l-2.9,2.9c-11,11-28.7,11-39.7,0l-7-7c-7.9-7.9-20.8-7.9-28.7,0v0c-7.9,7.9-7.9,20.8,0,28.7
						l21.3,21.3" style="fill:#F3F6E6;"/>
					<path d="M1438.4,512.8c-1.3,0-2.6-0.5-3.5-1.5l-21.3-21.3c-9.9-9.9-9.9-25.9,0-35.7c9.9-9.9,25.9-9.9,35.7,0l7,7
						c9,9,23.6,9,32.6,0l2.9-2.9c2-2,5.1-2,7.1,0c2,2,2,5.1,0,7.1l-2.9,2.9c-12.9,12.9-33.9,12.9-46.8,0l-7-7c-6-6-15.6-6-21.6,0
						c-6,6-6,15.6,0,21.6l21.3,21.3c2,2,2,5.1,0,7.1C1441,512.3,1439.7,512.8,1438.4,512.8z" style="fill:#383A48;"/>
				</g>
				<g>
					<path d="M1562.1,372.7l-15.1-15.1l42.6-42.6c4.2-4.2,10.9-4.2,15.1,0v0c4.2,4.2,4.2,10.9,0,15.1L1562.1,372.7z" style="fill:#F3F6E6;"/>
					<path d="M1562.1,377.7c-1.3,0-2.6-0.5-3.5-1.5l-15.1-15.1c-0.9-0.9-1.5-2.2-1.5-3.5s0.5-2.6,1.5-3.5l42.6-42.6
						c3-3,6.9-4.6,11.1-4.6c4.2,0,8.1,1.6,11.1,4.6c6.1,6.1,6.1,16,0,22.1l-42.6,42.6C1564.6,377.2,1563.3,377.7,1562.1,377.7z
						 M1554.1,357.6l8,8l39.1-39.1c2.2-2.2,2.2-5.8,0-8c-1.1-1.1-2.5-1.7-4-1.7c-1.5,0-2.9,0.6-4,1.7L1554.1,357.6z" style="fill:#383A48;"/>
				</g>
				<g>
					<path d="M1584.7,395.3l15.1,15.1l42.6-42.6c4.2-4.2,4.2-10.9,0-15.1v0c-4.2-4.2-10.9-4.2-15.1,0L1584.7,395.3z" style="fill:#F3F6E6;"/>
					<path d="M1599.7,415.3c-1.3,0-2.6-0.5-3.5-1.5l-15.1-15.1c-0.9-0.9-1.5-2.2-1.5-3.5s0.5-2.6,1.5-3.5l42.6-42.6
						c3-3,6.9-4.6,11.1-4.6s8.1,1.6,11.1,4.6c6.1,6.1,6.1,16,0,22.1l-42.6,42.6C1602.3,414.8,1601,415.3,1599.7,415.3z
						 M1591.7,395.3l8,8l39.1-39.1c2.2-2.2,2.2-5.8,0-8c-2.2-2.2-5.8-2.2-8,0L1591.7,395.3z" style="fill:#383A48;"/>
				</g>
				<g>
					<g>
						<path d="M1499.3,458L1499.3,458c-24.9-24.9-24.9-65.4,0-90.3l28-28c6.6-6.6,17.3-6.6,24,0l66.4,66.4
							c6.6,6.6,6.6,17.3,0,24l-28,28C1564.7,482.9,1524.3,482.9,1499.3,458z" style="fill:#7FD6C2;"/>
					</g>
					<g>
						<path d="M1544.5,481.7c-18.4,0-35.7-7.2-48.7-20.2c-13-13-20.2-30.3-20.2-48.7s7.2-35.7,20.2-48.7l28-28
							c4.1-4.1,9.7-6.4,15.5-6.4s11.4,2.3,15.5,6.4l66.4,66.4c4.1,4.1,6.4,9.7,6.4,15.5c0,5.9-2.3,11.4-6.4,15.5l-28,28
							C1580.2,474.5,1562.9,481.7,1544.5,481.7z M1539.4,339.7c-3.2,0-6.2,1.2-8.4,3.5l-28,28c-23,23-23,60.3,0,83.3
							c23,23,60.3,23,83.3,0l28-28c2.3-2.3,3.5-5.3,3.5-8.4c0-3.2-1.2-6.2-3.5-8.4l-66.4-66.4
							C1545.6,340.9,1542.6,339.7,1539.4,339.7z" style="fill:#383A48;"/>
					</g>
				</g>
			</g>
		</g>
		<path d="M813.3,944.3c-122.3-21.2-166.9-80.9-206.2-133.6c-26.8-36-52.1-69.9-98.1-85.1c-17.8-5.9-37.6-9.7-58.5-13.8
			c-31.6-6.1-64.3-12.5-94-26.6c-33.5-15.9-57.7-39.5-74.1-72.2c-1-2.1-3.4-3.2-5.6-2.6c-2.3,0.5-3.8,2.5-3.8,4.9v160.1
			c0,1.4,0.6,2.7,1.6,3.7c1,0.9,2.4,1.4,3.8,1.3c0.9-0.1,1.9-0.1,2.8-0.2c8.9-0.3,17.3,1.5,25,5.6c0.2,0.1,0.5,0.2,0.8,0.3
			c8,2.6,15,7.1,20.8,13.4c0,0,0.1,0.1,0.1,0.1c11.8,11.8,18.5,28.1,19.4,47.1c0.3,6.7,0.5,13.5,0.7,20.1c0.1,3.5,0.2,6.9,0.3,10.4
			c0.1,2.2,1.6,4.1,3.7,4.7c0.8,0.2,1.6,0.4,2.4,0.7c0.2,0.1,0.4,0.1,0.7,0.2c17.2,2.9,35.8,6.1,58.6,10.3
			c10.4,1.9,20.9,3.8,31.3,5.7c23.4,4.3,47.6,8.7,71.4,12.8c18.1,3.1,33.1,6.7,47.4,11.4l3.7,1.2c11.2,3.7,22.8,7.5,34.6,10
			c0.3,0.1,0.6,0.1,0.9,0.1c11.1,0.4,21.6,3.4,31.3,8.9c3.1,2,10.6,3,42,5.9c14.4,1.3,34.1,3.1,37.6,4.4c0.8,0.5,1.7,0.7,2.6,0.7
			l95.9,0c2.6,0,4.8-2,5-4.6S815.8,944.8,813.3,944.3z" style="fill:#383A48;"/>
		<path d="M716.5,944.3c-41.7,0-76.6-10.8-106.6-32.9c-26.6-19.6-46-45.3-64.8-70.1c-25.2-33.3-49-64.8-86.4-75.5
			c-3-0.9-6.2-1.8-9.4-2.7C357.6,736.8,187,688,187,527.3c0-2.8-2.2-5-5-5s-5,2.2-5,5v421.9c0,2.8,2.2,5,5,5h534.5c2.8,0,5-2.2,5-5
			S719.3,944.3,716.5,944.3z" style="fill:#F3F6E6;"/>
	</g>
	<g>
		<path d="M1066.9,488.2c-1.5,0-3-0.7-4-1.9c-1.7-2.2-1.3-5.3,0.9-7c78.5-60.5,106.5-95.2,114.6-114.8
			c-4.8,0-9.2-1-13.1-2.9c-7.8-3.8-12-10.6-11.4-18.1c0.6-7,5.3-13,11.7-14.9c3.4-1,12.1-2.2,20.6,8.5c3.4,4.3,5.1,9.3,5.1,15
			c12.5-4.2,28.1-14.1,45.8-29.1c24.1-20.4,43.8-43.4,44-43.6c1.8-2.1,5-2.3,7.1-0.5c2.1,1.8,2.3,5,0.5,7.1
			c-0.8,1-20.5,23.8-45.2,44.7c-21.1,17.9-39.1,28.7-54,32.5c-8.4,27.9-47.6,68.7-119.6,124.2C1069,487.9,1068,488.2,1066.9,488.2z
			 M1170,337.8c-0.5,0-1,0.1-1.5,0.2c-2.4,0.7-4.4,3.3-4.6,6.1c-0.3,3.4,1.8,6.3,5.9,8.3c3.2,1.6,7,2.2,11.4,1.8
			c0.4-4.5-0.5-8.1-2.9-11.1C1175.6,339.7,1172.6,337.8,1170,337.8z" style="fill:#4053FA;"/>
	</g>
	<g>
		<g>
			<line x1="199.3" y1="368.6" x2="232.2" y2="368.6" style="fill:#383A48;"/>
			<rect x="199.3" y="363.6" width="33" height="10" style="fill:#383A48;"/>
		</g>
		<g>
			<line x1="215.7" y1="385.1" x2="215.7" y2="352.1" style="fill:#383A48;"/>
			<rect x="210.7" y="352.1" width="10" height="33" style="fill:#383A48;"/>
		</g>
	</g>
	<g>
		<g>
			<line x1="1607.2" y1="759.6" x2="1640.1" y2="759.6" style="fill:#383A48;"/>
			<rect x="1607.2" y="754.6" width="33" height="10" style="fill:#383A48;"/>
		</g>
		<g>
			<line x1="1623.6" y1="776.1" x2="1623.6" y2="743.1" style="fill:#383A48;"/>
			<rect x="1618.6" y="743.1" width="10" height="33" style="fill:#383A48;"/>
		</g>
	</g>
</g>
</svg>
