<?xml version="1.0" encoding="UTF-8"?>
<svg width="1388px" height="781px" viewBox="0 0 1388 781" version="1.1" xmlns="http://www.w3.org/2000/svg" xmlns:xlink="http://www.w3.org/1999/xlink">
    <!-- Generator: Sketch 59.1 (86144) - https://sketch.com -->
    <title>family</title>
    <desc>Created with Sketch.</desc>
    <g id="Page-1" stroke="none" stroke-width="1" fill="none" fill-rule="evenodd">
        <g id="family" transform="translate(-266.000000, -143.000000)">
            <g id="Group" transform="translate(266.000000, 143.000000)">
                <path d="M1382.7,435.2 C1334.6,435.2 1311.1,481.5 1283.9,535 C1269.5,563.4 1253.1,595.6 1231.3,624.2 C1228.7,627.7 1225.9,631.1 1223.1,634.5 C1209.4,650.9 1178.2,659.5 1142.2,669.6 C1139,670.5 1135.7,671.4 1132.4,672.3 C1117.8,676.4 1102.1,681 1086.4,686.7 C1076.3,690.4 1067.3,694.1 1058.9,698 C1021.1,715.8 995.3,739.4 980,769.9 C979.4,771 978.9,772.2 978.3,773.3 C977.6,774.8 977.7,776.7 978.6,778.1 C979.5,779.5 981.1,780.4 982.8,780.4 L1382.6,780.4 C1385.4,780.4 1387.60314,778.2 1387.60314,775.4 L1387.60314,440.2 C1387.7,437.4 1385.4,435.2 1382.7,435.2 Z" id="Path" fill="#F3F6E6" fill-rule="nonzero"></path>
                <g transform="translate(977.000000, 622.000000)" fill="#383A48" fill-rule="nonzero" id="Path">
                    <path d="M114.8,66 C113.4,64.5 111.3,64 109.4,64.7 C99.3,68.4 90.3,72.1 81.9,76 C44.1,93.8 18.3,117.4 3,147.9 C2.4,149 1.9,150.2 1.3,151.3 C0.6,152.8 0.7,154.7 1.6,156.1 C2.5,157.5 4.1,158.4 5.8,158.4 L71.6,158.4 C73.5,158.4 75.3,157.3 76.1,155.5 L115.5,71.4 C116.5,69.7 116.1,67.5 114.8,66 Z"></path>
                    <path d="M260.9,1 C258.7,-0.3 255.9,0.2 254.3,2.2 C251.7,5.7 248.9,9.1 246.1,12.5 C232.4,28.9 201.2,37.5 165.2,47.6 C162,48.5 158.7,49.4 155.4,50.3 C154,50.7 152.8,51.7 152.2,53 L106.2,151.3 C105.5,152.8 105.6,154.7 106.5,156.1 C107.4,157.5 109,158.4 110.7,158.4 L188.9,158.4 C190.8,158.4 192.6,157.3 193.4,155.5 L262.8,7.3 C263.9,5 263.1,2.3 260.9,1 Z"></path>
                </g>
                <path d="M659.8,770.5 C568.5,770.5 501.6,754.1 455.3,720.4 C414.2,690.5 392.5,649.8 371.6,610.4 C342.6,555.9 312.7,499.6 232,470.4 C167.4,447.1 112.8,401.7 74,339.1 C53.7,306.3 38,269.2 27.3,228.7 C16,186.1 10.3,139.7 10.3,90.7 C10.3,87.9 8.1,85.7 5.3,85.7 C2.5,85.7 0.3,87.9 0.3,90.7 L0.3,684.6 C0.3,737.4 43.3,780.4 96.1,780.4 L659.8,780.4 C662.6,780.4 664.8,778.2 664.8,775.4 C664.8,772.6 662.6,770.5 659.8,770.5 Z" id="Path" fill="#F3F6E6" fill-rule="nonzero"></path>
                <g transform="translate(206.000000, 128.000000)" fill="#383A48" fill-rule="nonzero" id="Oval">
                    <circle cx="573.2" cy="622" r="5"></circle>
                    <circle cx="573.2" cy="646.7" r="5"></circle>
                    <circle cx="548.6" cy="622" r="5"></circle>
                    <circle cx="548.6" cy="646.7" r="5"></circle>
                    <circle cx="523.9" cy="622" r="5"></circle>
                    <circle cx="523.9" cy="646.7" r="5"></circle>
                    <circle cx="499.2" cy="622" r="5"></circle>
                    <circle cx="499.2" cy="646.7" r="5"></circle>
                    <circle cx="474.6" cy="622" r="5"></circle>
                    <circle cx="474.6" cy="646.7" r="5"></circle>
                    <circle cx="449.9" cy="622" r="5"></circle>
                    <circle cx="449.9" cy="646.7" r="5"></circle>
                    <circle cx="425.2" cy="622" r="5"></circle>
                    <circle cx="425.2" cy="646.7" r="5"></circle>
                    <circle cx="400.6" cy="622" r="5"></circle>
                    <circle cx="400.6" cy="646.7" r="5"></circle>
                    <circle cx="375.9" cy="622" r="5"></circle>
                    <circle cx="375.9" cy="646.7" r="5"></circle>
                    <circle cx="351.2" cy="622" r="5"></circle>
                    <circle cx="351.2" cy="646.7" r="5"></circle>
                    <circle cx="326.6" cy="622" r="5"></circle>
                    <circle cx="326.6" cy="646.7" r="5"></circle>
                    <circle cx="301.9" cy="622" r="5"></circle>
                    <circle cx="301.9" cy="646.7" r="5"></circle>
                    <circle cx="277.2" cy="622" r="5"></circle>
                    <circle cx="277.2" cy="646.7" r="5"></circle>
                    <circle cx="252.6" cy="622" r="5"></circle>
                    <circle cx="252.6" cy="646.7" r="5"></circle>
                    <circle cx="227.9" cy="622" r="5"></circle>
                    <circle cx="227.9" cy="646.7" r="5"></circle>
                    <circle cx="203.2" cy="622" r="5"></circle>
                    <circle cx="203.2" cy="646.7" r="5"></circle>
                    <circle cx="178.6" cy="622" r="5"></circle>
                    <circle cx="178.6" cy="646.7" r="5"></circle>
                    <circle cx="153.9" cy="622" r="5"></circle>
                    <circle cx="153.9" cy="646.7" r="5"></circle>
                    <circle cx="129.2" cy="622" r="5"></circle>
                    <circle cx="129.2" cy="646.7" r="5"></circle>
                    <circle cx="104.6" cy="5.4" r="5"></circle>
                    <circle cx="104.6" cy="30" r="5"></circle>
                    <circle cx="104.6" cy="54.7" r="5"></circle>
                    <circle cx="104.6" cy="79.4" r="5"></circle>
                    <circle cx="104.6" cy="104" r="5"></circle>
                    <circle cx="104.6" cy="128.7" r="5"></circle>
                    <circle cx="104.6" cy="153.4" r="5"></circle>
                    <circle cx="104.6" cy="178" r="5"></circle>
                    <circle cx="104.6" cy="202.7" r="5"></circle>
                    <circle cx="104.6" cy="227.4" r="5"></circle>
                    <circle cx="104.6" cy="252" r="5"></circle>
                    <circle cx="104.6" cy="276.7" r="5"></circle>
                    <circle cx="104.6" cy="301.4" r="5"></circle>
                    <circle cx="104.6" cy="326" r="5"></circle>
                    <circle cx="104.6" cy="350.7" r="5"></circle>
                    <circle cx="104.6" cy="375.4" r="5"></circle>
                    <circle cx="104.6" cy="400" r="5"></circle>
                    <circle cx="104.6" cy="424.7" r="5"></circle>
                    <circle cx="104.6" cy="449.4" r="5"></circle>
                    <circle cx="104.6" cy="474" r="5"></circle>
                    <circle cx="104.6" cy="498.7" r="5"></circle>
                    <circle cx="104.6" cy="523.4" r="5"></circle>
                    <circle cx="104.6" cy="548" r="5"></circle>
                    <circle cx="104.6" cy="572.7" r="5"></circle>
                    <circle cx="104.6" cy="597.4" r="5"></circle>
                    <circle cx="104.6" cy="622" r="5"></circle>
                    <circle cx="104.6" cy="646.7" r="5"></circle>
                    <circle cx="79.9" cy="5.4" r="5"></circle>
                    <circle cx="79.9" cy="30" r="5"></circle>
                    <circle cx="79.9" cy="54.7" r="5"></circle>
                    <circle cx="79.9" cy="79.4" r="5"></circle>
                    <circle cx="79.9" cy="104" r="5"></circle>
                    <circle cx="79.9" cy="128.7" r="5"></circle>
                    <circle cx="79.9" cy="153.4" r="5"></circle>
                    <circle cx="79.9" cy="178" r="5"></circle>
                    <circle cx="79.9" cy="202.7" r="5"></circle>
                    <circle cx="79.9" cy="227.4" r="5"></circle>
                    <circle cx="79.9" cy="252" r="5"></circle>
                    <circle cx="79.9" cy="276.7" r="5"></circle>
                    <circle cx="79.9" cy="301.4" r="5"></circle>
                    <circle cx="79.9" cy="326" r="5"></circle>
                    <circle cx="79.9" cy="350.7" r="5"></circle>
                    <circle cx="79.9" cy="375.4" r="5"></circle>
                    <circle cx="79.9" cy="400" r="5"></circle>
                    <circle cx="79.9" cy="424.7" r="5"></circle>
                    <circle cx="79.9" cy="449.4" r="5"></circle>
                    <circle cx="79.9" cy="474" r="5"></circle>
                    <circle cx="79.9" cy="498.7" r="5"></circle>
                    <circle cx="79.9" cy="523.4" r="5"></circle>
                    <circle cx="79.9" cy="548" r="5"></circle>
                    <circle cx="79.9" cy="572.7" r="5"></circle>
                    <circle cx="79.9" cy="597.4" r="5"></circle>
                    <circle cx="79.9" cy="622" r="5"></circle>
                    <circle cx="79.9" cy="646.7" r="5"></circle>
                    <circle cx="55.2" cy="5.4" r="5"></circle>
                    <circle cx="55.2" cy="30" r="5"></circle>
                    <circle cx="55.2" cy="54.7" r="5"></circle>
                    <circle cx="55.2" cy="79.4" r="5"></circle>
                    <circle cx="55.2" cy="104" r="5"></circle>
                    <circle cx="55.2" cy="128.7" r="5"></circle>
                    <circle cx="55.2" cy="153.4" r="5"></circle>
                    <circle cx="55.2" cy="178" r="5"></circle>
                    <circle cx="55.2" cy="202.7" r="5"></circle>
                    <circle cx="55.2" cy="227.4" r="5"></circle>
                    <circle cx="55.2" cy="252" r="5"></circle>
                    <circle cx="55.2" cy="276.7" r="5"></circle>
                    <circle cx="55.2" cy="301.4" r="5"></circle>
                    <circle cx="55.2" cy="326" r="5"></circle>
                    <circle cx="55.2" cy="350.7" r="5"></circle>
                    <circle cx="55.2" cy="375.4" r="5"></circle>
                    <circle cx="55.2" cy="400" r="5"></circle>
                    <circle cx="55.2" cy="424.7" r="5"></circle>
                    <circle cx="55.2" cy="449.4" r="5"></circle>
                    <circle cx="55.2" cy="474" r="5"></circle>
                    <circle cx="55.2" cy="498.7" r="5"></circle>
                    <circle cx="55.2" cy="523.4" r="5"></circle>
                    <circle cx="55.2" cy="548" r="5"></circle>
                    <circle cx="55.2" cy="572.7" r="5"></circle>
                    <circle cx="55.2" cy="597.4" r="5"></circle>
                    <circle cx="55.2" cy="622" r="5"></circle>
                    <circle cx="55.2" cy="646.7" r="5"></circle>
                    <circle cx="30.6" cy="5.4" r="5"></circle>
                    <circle cx="30.6" cy="30" r="5"></circle>
                    <circle cx="30.6" cy="54.7" r="5"></circle>
                    <circle cx="30.6" cy="79.4" r="5"></circle>
                    <circle cx="30.6" cy="104" r="5"></circle>
                    <circle cx="30.6" cy="128.7" r="5"></circle>
                    <circle cx="30.6" cy="153.4" r="5"></circle>
                    <circle cx="30.6" cy="178" r="5"></circle>
                    <circle cx="30.6" cy="202.7" r="5"></circle>
                    <circle cx="30.6" cy="227.4" r="5"></circle>
                    <circle cx="30.6" cy="252" r="5"></circle>
                    <circle cx="30.6" cy="276.7" r="5"></circle>
                    <circle cx="30.6" cy="301.4" r="5"></circle>
                    <circle cx="30.6" cy="326" r="5"></circle>
                    <circle cx="30.6" cy="350.7" r="5"></circle>
                    <circle cx="30.6" cy="375.4" r="5"></circle>
                    <circle cx="30.6" cy="400" r="5"></circle>
                    <circle cx="30.6" cy="424.7" r="5"></circle>
                    <circle cx="30.6" cy="449.4" r="5"></circle>
                    <circle cx="30.6" cy="474" r="5"></circle>
                    <circle cx="30.6" cy="498.7" r="5"></circle>
                    <circle cx="30.6" cy="523.4" r="5"></circle>
                    <circle cx="30.6" cy="548" r="5"></circle>
                    <circle cx="30.6" cy="572.7" r="5"></circle>
                    <circle cx="30.6" cy="597.4" r="5"></circle>
                    <circle cx="30.6" cy="622" r="5"></circle>
                    <circle cx="30.6" cy="646.7" r="5"></circle>
                    <circle cx="5.9" cy="5.4" r="5"></circle>
                    <circle cx="5.9" cy="30" r="5"></circle>
                    <circle cx="5.9" cy="54.7" r="5"></circle>
                    <circle cx="5.9" cy="79.4" r="5"></circle>
                    <circle cx="5.9" cy="104" r="5"></circle>
                    <circle cx="5.9" cy="128.7" r="5"></circle>
                    <circle cx="5.9" cy="153.4" r="5"></circle>
                    <circle cx="5.9" cy="178" r="5"></circle>
                    <circle cx="5.9" cy="202.7" r="5"></circle>
                    <circle cx="5.9" cy="227.4" r="5"></circle>
                    <circle cx="5.9" cy="252" r="5"></circle>
                    <circle cx="5.9" cy="276.7" r="5"></circle>
                    <circle cx="5.9" cy="301.4" r="5"></circle>
                    <circle cx="5.9" cy="326" r="5"></circle>
                    <circle cx="5.9" cy="350.7" r="5"></circle>
                    <circle cx="5.9" cy="375.4" r="5"></circle>
                    <circle cx="5.9" cy="400" r="5"></circle>
                    <circle cx="5.9" cy="424.7" r="5"></circle>
                    <circle cx="5.9" cy="449.4" r="5"></circle>
                    <circle cx="5.9" cy="474" r="5"></circle>
                    <circle cx="5.9" cy="498.7" r="5"></circle>
                    <circle cx="5.9" cy="523.4" r="5"></circle>
                    <circle cx="5.9" cy="548" r="5"></circle>
                    <circle cx="5.9" cy="572.7" r="5"></circle>
                    <circle cx="5.9" cy="597.4" r="5"></circle>
                    <circle cx="5.9" cy="622" r="5"></circle>
                    <circle cx="5.9" cy="646.7" r="5"></circle>
                </g>
                <g transform="translate(322.000000, 57.000000)" fill-rule="nonzero">
                    <g>
                        <path d="M432.1,180.4 C432.1,206.5 416.6,227.8 397.5,227.8 C387.4,227.8 378.3,221.9 372,212.5 C368.5,207.7 363.5,205.6 358.6,205.6 C350,205.6 341.7,212.1 341.7,222.4 L341.7,341.5 L208.5,341.5 C192.2,341.5 185.5,362.3 198.6,371.9 C203.3,375.1 207.2,378.9 209.8,383.2 C212.5,387.5 213.9,392.3 213.9,397.4 C213.9,416.5 192.7,432 166.5,432 C140.3,432 119.1,416.5 119.1,397.4 C119.1,387.3 125,378.2 134.4,371.9 C139.2,368.4 141.3,363.4 141.3,358.5 C141.3,350 134.8,341.6 124.5,341.6 L5.6,341.6 L5.6,5.6 L341.6,5.6 L341.6,138.7 C341.6,155 362.4,161.7 372,148.6 C375.2,143.9 379,140.1 383.3,137.4 C387.6,134.7 392.4,133.3 397.5,133.3 C416.6,133 432.1,154.2 432.1,180.4 Z" id="Path" fill="#F3F6E6"></path>
                        <path d="M166.6,436.7 C137.7,436.7 114.2,418.9 114.2,397.1 C114.2,385.8 120.6,375 131.7,367.5 C134.8,365.2 136.5,361.9 136.5,358.2 C136.5,352.3 132.1,346.2 124.7,346.2 L5.6,346.2 C2.8,346.2 0.6,344 0.6,341.2 L0.6,5.2 C0.6,2.4 2.8,0.2 5.6,0.2 L341.6,0.2 C344.4,0.2 346.6,2.4 346.6,5.2 L346.6,138.3 C346.6,144.6 350.8,148.2 354.7,149.5 C358.6,150.8 364.1,150.3 367.8,145.3 C371.4,140 375.7,135.7 380.6,132.7 C385.9,129.5 391.5,127.8 397.4,127.8 C419.2,127.8 437,151.3 437,180.2 C437,209.1 419.2,232.6 397.4,232.6 C386.1,232.6 375.3,226.2 367.8,215.1 C365.5,212 362.2,210.3 358.5,210.3 C352.6,210.3 346.6,214.7 346.6,222.1 L346.6,341.1 C346.6,343.9 344.4,346.1 341.6,346.1 L208.5,346.1 C202.2,346.1 198.6,350.3 197.3,354.2 C196,358.1 196.5,363.6 201.5,367.3 C206.9,370.9 211.1,375.2 214.1,380.1 C217.3,385.4 219,391 219,396.9 C218.9,419 195.5,436.7 166.6,436.7 Z M10.6,336.3 L124.7,336.3 C138.3,336.3 146.5,347.5 146.5,358.3 C146.5,365.2 143.2,371.6 137.5,375.8 C137.4,375.8 137.4,375.9 137.3,375.9 C128.8,381.6 124.2,389.1 124.2,397.2 C124.2,413.5 143.2,426.8 166.6,426.8 C190,426.8 209,413.5 209,397.2 C209,393.2 207.9,389.3 205.6,385.7 C203.3,382 200.1,378.7 195.9,375.9 C195.8,375.9 195.8,375.8 195.7,375.8 C187.9,370.1 184.8,360.6 187.8,351.4 C190.8,342.3 198.9,336.4 208.5,336.4 L336.6,336.4 L336.6,222.4 C336.6,208.7 347.8,200.6 358.5,200.6 C365.4,200.6 371.8,203.9 376,209.6 C376,209.7 376.1,209.7 376.1,209.8 C381.8,218.3 389.3,222.9 397.4,222.9 C413.7,222.9 427,203.9 427,180.5 C427,157.1 413.7,138.1 397.4,138.1 C393.4,138.1 389.5,139.2 385.9,141.5 C382.2,143.8 378.9,147 376.1,151.2 C376.1,151.3 376,151.3 376,151.4 C370.3,159.2 360.8,162.3 351.6,159.3 C342.5,156.3 336.6,148.2 336.6,138.6 L336.6,10.3 L10.6,10.3 L10.6,336.3 L10.6,336.3 Z" id="Shape" fill="#383A48"></path>
                    </g>
                    <g transform="translate(42.000000, 198.000000)">
                        <path d="M156.6,173.7 C161.3,176.9 165.2,180.7 167.8,185 C170.5,189.3 171.9,194.1 171.9,199.2 C171.9,218.3 150.7,233.8 124.5,233.8 C98.3,233.8 77.1,218.3 77.1,199.2 C77.1,189.1 83,180 92.4,173.7 C97.2,170.2 99.3,165.2 99.3,160.3 C99.3,151.8 92.8,143.4 82.5,143.4 L5.4,143.4 L5.4,127.6 C5.4,60.4 59.9,5.8 127.2,5.8 C160.8,5.8 191.3,19.4 213.3,41.5 C235.3,63.5 249,94 249,127.6 L249,143.4 L166.4,143.4 C150.2,143.3 143.5,164.1 156.6,173.7 Z" id="Path" fill="#7FD6C2"></path>
                        <path d="M124.6,238.7 C95.7,238.7 72.2,220.9 72.2,199.1 C72.2,187.8 78.6,177 89.7,169.5 C92.8,167.2 94.5,163.9 94.5,160.2 C94.5,154.3 90.1,148.2 82.7,148.2 L5.6,148.2 C2.8,148.2 0.6,146 0.6,143.2 L0.6,127.4 C0.6,57.5 57.5,0.6 127.4,0.6 C161.3,0.6 193.1,13.8 217,37.7 C240.9,61.6 254.1,93.5 254.1,127.3 L254.1,143.1 C254.1,145.9 251.9,148.1 249.1,148.1 L166.5,148.1 C160.2,148.1 156.6,152.3 155.3,156.2 C154,160.1 154.5,165.6 159.5,169.3 C164.9,172.9 169.1,177.2 172.1,182.1 C175.3,187.4 177,193 177,198.9 C176.9,221 153.5,238.7 124.6,238.7 Z M10.6,138.3 L82.7,138.3 C93.4,138.3 104.5,146.5 104.5,160.3 C104.5,167.2 101.2,173.6 95.5,177.8 C95.4,177.8 95.4,177.9 95.3,177.9 C86.8,183.6 82.2,191.1 82.2,199.2 C82.2,215.5 101.2,228.8 124.6,228.8 C148,228.8 167,215.5 167,199.2 C167,195.2 165.9,191.3 163.6,187.7 C161.3,184 158.1,180.7 153.9,177.9 C153.8,177.9 153.8,177.8 153.7,177.8 C145.9,172.1 142.8,162.6 145.8,153.4 C148.8,144.3 156.9,138.4 166.5,138.4 L244.1,138.4 L244.1,127.6 C244.1,96.4 232,67.1 209.9,45 C187.9,22.9 158.5,10.8 127.3,10.8 C62.9,10.8 10.5,63.2 10.5,127.6 L10.5,138.3 L10.6,138.3 L10.6,138.3 Z" id="Shape" fill="#383A48"></path>
                    </g>
                    <g transform="translate(246.000000, 0.000000)">
                        <path d="M431.6,5.3 L431.6,341.3 L298.5,341.3 C291.6,341.3 286.4,345.1 283.7,350.1 C280.1,356.9 281,366.2 288.6,371.7 C293.3,374.9 297.2,378.7 299.8,383 C302.5,387.3 303.9,392.1 303.9,397.1 C303.9,416.2 282.7,431.7 256.5,431.7 C230.3,431.7 209.1,416.2 209.1,397.1 C209.1,387 215,377.9 224.4,371.6 C229.2,368.1 231.3,363.1 231.3,358.2 C231.3,355.4 230.6,352.5 229.3,350 C226.6,345 221.4,341.2 214.5,341.2 L95.6,341.2 L95.6,208.2 C95.6,191.9 74.8,185.2 65.2,198.3 C62,203 58.2,206.8 53.9,209.5 C49.6,212.1 44.8,213.6 39.7,213.6 C20.6,213.6 5.1,192.4 5.1,166.2 C5.1,140 20.6,118.8 39.7,118.8 C49.8,118.8 58.9,124.7 65.2,134.1 C68.7,138.9 73.7,141 78.6,141 C87.2,141 95.5,134.5 95.5,124.2 L95.5,5.3 L431.6,5.3 Z" id="Path" fill="#F3F6E6"></path>
                        <path d="M256.6,436.8 C227.7,436.8 204.2,419 204.2,397.2 C204.2,385.9 210.6,375.1 221.7,367.6 C224.8,365.3 226.5,362 226.5,358.3 C226.5,356.3 226,354.3 225,352.5 C222.9,348.6 219.1,346.3 214.6,346.3 L95.6,346.3 C92.8,346.3 90.6,344.1 90.6,341.3 L90.6,208.2 C90.6,201.9 86.4,198.3 82.5,197 C78.6,195.7 73.1,196.2 69.4,201.2 C65.8,206.6 61.5,210.8 56.6,213.8 C51.3,217 45.7,218.7 39.8,218.7 C18,218.7 0.2,195.2 0.2,166.3 C0.2,137.4 18,113.9 39.8,113.9 C51.1,113.9 61.9,120.3 69.4,131.4 C71.7,134.5 75,136.2 78.7,136.2 C84.6,136.2 90.6,131.8 90.6,124.4 L90.6,5.3 C90.6,2.5 92.8,0.3 95.6,0.3 L431.6,0.3 C434.4,0.3 436.6,2.5 436.6,5.3 L436.6,341.3 C436.6,344.1 434.4,346.3 431.6,346.3 L298.5,346.3 C294,346.3 290.2,348.5 288.1,352.4 C285.8,356.8 285.8,363.4 291.4,367.5 C296.8,371.1 301,375.4 304,380.3 C307.2,385.5 308.9,391.2 308.9,397.1 C308.9,419 285.4,436.8 256.6,436.8 Z M100.6,336.3 L214.7,336.3 C222.9,336.3 230.1,340.6 233.9,347.7 C235.6,350.9 236.5,354.6 236.5,358.2 C236.5,365.1 233.2,371.5 227.5,375.7 C227.4,375.7 227.4,375.8 227.3,375.8 C218.8,381.5 214.2,389 214.2,397.1 C214.2,413.4 233.2,426.7 256.6,426.7 C280,426.7 299,413.4 299,397.1 C299,393.1 297.9,389.2 295.6,385.6 C293.3,381.9 290.1,378.6 285.9,375.8 C285.8,375.8 285.8,375.7 285.7,375.7 C275.6,368.4 274.9,356.1 279.3,347.7 C283.1,340.5 290.3,336.3 298.5,336.3 L426.6,336.3 L426.6,10.3 L100.6,10.3 L100.6,124.4 C100.6,138 89.4,146.2 78.7,146.2 C71.8,146.2 65.4,142.9 61.2,137.2 C61.2,137.1 61.1,137.1 61.1,137 C55.4,128.5 47.9,123.9 39.8,123.9 C23.5,123.9 10.2,142.9 10.2,166.3 C10.2,189.7 23.5,208.7 39.8,208.7 C43.8,208.7 47.7,207.6 51.3,205.3 C55,203 58.3,199.8 61.1,195.6 C61.1,195.5 61.2,195.5 61.2,195.4 C66.9,187.6 76.4,184.5 85.6,187.5 C94.7,190.5 100.6,198.6 100.6,208.2 L100.6,336.3 L100.6,336.3 Z" id="Shape" fill="#383A48"></path>
                    </g>
                    <g transform="translate(393.000000, 206.000000)">
                        <path d="M241.6,135.3 L151.4,135.3 C144.5,135.3 139.3,139.1 136.6,144.1 L82.3,144.1 C79.6,139.1 74.4,135.3 67.5,135.3 L5.2,135.3 L84.2,25.4 C103.3,-1.1 142.7,-1.2 161.8,25.3 L241.6,135.3 Z" id="Path" fill="#E0719E"></path>
                        <path d="M136.7,149.1 L82.4,149.1 C80.6,149.1 78.9,148.1 78,146.4 C75.9,142.5 72.2,140.3 67.7,140.3 L5.4,140.3 C3.5,140.3 1.8,139.3 1,137.6 C0.1,135.9 0.3,133.9 1.4,132.4 L80.4,22.5 C90.4,8.5 106,0.5 123.2,0.5 L123.3,0.5 C140.4,0.5 156,8.5 166.1,22.3 L245.8,132.3 C246.9,133.8 247.1,135.8 246.2,137.5 C245.3,139.2 243.6,140.2 241.7,140.2 L151.5,140.2 C147,140.2 143.2,142.4 141.1,146.3 C140.3,148.1 138.6,149.1 136.7,149.1 Z M85.2,139.1 L134,139.1 C138,133.5 144.4,130.3 151.5,130.3 L231.9,130.3 L157.9,28.2 C149.7,16.9 137.1,10.5 123.2,10.5 L123.1,10.5 C109.2,10.5 96.5,17 88.4,28.4 L15.1,130.4 L67.7,130.4 C74.8,130.3 81.2,133.6 85.2,139.1 Z" id="Shape" fill="#383A48"></path>
                    </g>
                    <g transform="translate(0.000000, 245.000000)">
                        <path d="M432,271.4 C432,297.6 416.5,318.8 397.4,318.8 C387.3,318.8 378.2,312.9 371.9,303.5 C368.4,298.7 363.4,296.6 358.5,296.6 C350,296.6 341.6,303.1 341.6,313.4 L341.6,432.5 L5.6,432.5 L5.6,96.5 L127.4,96.5 C143.7,96.5 150.4,75.7 137.3,66.1 C132.6,62.9 128.7,59.1 126.1,54.8 C123.4,50.5 122,45.7 122,40.7 C122,21.6 143.2,6.1 169.4,6.1 C195.5,6.1 216.8,21.6 216.8,40.7 C216.8,50.8 210.9,59.9 201.5,66.2 C196.7,69.7 194.6,74.7 194.6,79.6 C194.6,88.2 201.1,96.5 211.4,96.5 L341.8,96.5 L341.8,229.6 C341.8,245.9 362.6,252.6 372.2,239.5 C375.4,234.8 379.2,230.9 383.5,228.3 C387.8,225.7 392.6,224.2 397.7,224.2 C416.6,224 432,245.2 432,271.4 Z" id="Path" fill="#F3F6E6"></path>
                        <path d="M341.6,437.3 L5.6,437.3 C2.8,437.3 0.6,435.1 0.6,432.3 L0.6,96.3 C0.6,93.5 2.8,91.3 5.6,91.3 L127.4,91.3 C133.7,91.3 137.3,87.1 138.6,83.2 C139.9,79.3 139.4,73.8 134.4,70.1 C129,66.5 124.8,62.2 121.8,57.3 C118.6,52.1 116.9,46.4 116.9,40.5 C116.9,18.7 140.4,0.9 169.3,0.9 C198.2,0.9 221.7,18.7 221.7,40.5 C221.7,51.8 215.3,62.6 204.2,70.1 C201.1,72.4 199.4,75.7 199.4,79.4 C199.4,85.3 203.8,91.3 211.2,91.3 L341.6,91.3 C344.4,91.3 346.6,93.5 346.6,96.3 L346.6,229.4 C346.6,235.7 350.8,239.3 354.7,240.6 C358.6,241.9 364.1,241.4 367.8,236.4 C371.4,231 375.7,226.8 380.6,223.8 C385.9,220.6 391.5,218.9 397.4,218.9 C419.2,218.9 437,242.4 437,271.3 C437,300.2 419.2,323.7 397.4,323.7 C386.1,323.7 375.3,317.3 367.8,306.2 C365.5,303.1 362.2,301.4 358.5,301.4 C352.6,301.4 346.6,305.8 346.6,313.2 L346.6,432.3 C346.6,435.1 344.4,437.3 341.6,437.3 Z M10.6,427.3 L336.6,427.3 L336.6,313.3 C336.6,299.6 347.8,291.5 358.5,291.5 C365.4,291.5 371.8,294.8 376,300.5 C376,300.6 376.1,300.6 376.1,300.7 C381.8,309.2 389.3,313.8 397.4,313.8 C413.7,313.8 427,294.8 427,271.4 C427,248 413.7,229 397.4,229 C393.4,229 389.5,230.1 385.9,232.4 C382.2,234.7 378.9,237.9 376.1,242.1 C376.1,242.2 376,242.2 376,242.3 C370.3,250.1 360.8,253.2 351.6,250.2 C342.5,247.2 336.6,239.1 336.6,229.5 L336.6,101.3 L211.3,101.3 C197.6,101.3 189.5,90.1 189.5,79.4 C189.5,72.5 192.8,66.1 198.5,61.9 C198.6,61.9 198.6,61.8 198.7,61.8 C207.2,56.1 211.8,48.6 211.8,40.5 C211.8,24.2 192.8,10.9 169.4,10.9 C146,10.9 127,24.2 127,40.5 C127,44.5 128.1,48.4 130.4,52 C132.7,55.7 135.9,59 140.1,61.8 C140.2,61.8 140.2,61.9 140.3,61.9 C148.1,67.6 151.2,77.1 148.2,86.3 C145.2,95.4 137.1,101.3 127.5,101.3 L10.6,101.3 L10.6,427.3 Z" id="Shape" fill="#383A48"></path>
                    </g>
                    <g transform="translate(78.000000, 582.000000)">
                        <path d="M172.3,89.2 C172.3,91.3 172.2,93.3 172.1,95.3 L5.4,95.3 C5.2,93.3 5.2,91.2 5.2,89.2 C5.2,74.1 64.6,5.6 88.8,5.6 C113,5.6 172.3,69.8 172.3,89.2 Z" id="Path" fill="#F3F6E6"></path>
                        <path d="M172.1,100.3 L5.4,100.3 C2.8,100.3 0.6,98.3 0.4,95.7 C0.2,93.6 0.2,91.4 0.2,89.2 C0.2,77.6 21.6,51.8 34.3,38.3 C45,27 71.6,0.6 88.8,0.6 C107,0.6 135.1,28.2 143.3,36.6 C152.5,46.1 160.9,56.2 166.9,65.1 C173.9,75.4 177.4,83.5 177.4,89.2 C177.4,91.4 177.3,93.6 177.2,95.7 C176.9,98.3 174.7,100.3 172.1,100.3 Z M10.2,90.3 L167.3,90.3 C167.3,89.9 167.3,89.6 167.3,89.2 C167.3,82.8 156.3,64.6 136,43.6 C116.9,23.9 97.9,10.6 88.7,10.6 C79.7,10.6 61.2,24.2 41.5,45.1 C21.3,66.6 10.2,84.8 10.2,89.1 C10.2,89.6 10.2,90 10.2,90.3 Z" id="Shape" fill="#383A48"></path>
                    </g>
                    <g transform="translate(246.000000, 245.000000)">
                        <path d="M431.6,96.3 L431.6,432.3 L95.6,432.3 L95.6,313.3 C95.6,303 87.2,296.5 78.7,296.5 C73.8,296.5 68.8,298.6 65.3,303.4 C59,312.8 49.9,318.7 39.8,318.7 C20.7,318.7 5.2,297.5 5.2,271.3 C5.2,245.2 20.7,223.9 39.8,223.9 C44.9,223.9 49.6,225.4 54,228 C58.3,230.6 62.2,234.5 65.3,239.2 C74.9,252.3 95.7,245.6 95.7,229.3 L95.7,96.3 L228.7,96.3 C239,96.3 245.5,87.9 245.5,79.4 C245.5,74.5 243.4,69.5 238.6,66 C229.2,59.7 223.3,50.6 223.3,40.5 C223.3,21.4 244.5,5.9 270.7,5.9 C296.8,5.9 318.1,21.4 318.1,40.5 C318.1,45.5 316.6,50.3 314,54.6 C311.3,58.9 307.5,62.8 302.8,65.9 C289.7,75.5 296.4,96.3 312.7,96.3 L431.6,96.3 L431.6,96.3 Z" id="Path" fill="#F3F6E6"></path>
                        <path d="M431.6,437.3 L95.6,437.3 C92.8,437.3 90.6,435.1 90.6,432.3 L90.6,313.3 C90.6,305.9 84.5,301.5 78.7,301.5 C75,301.5 71.7,303.2 69.4,306.3 C61.9,317.4 51.1,323.8 39.8,323.8 C18,323.8 0.2,300.3 0.2,271.4 C0.2,242.5 18,219 39.8,219 C45.7,219 51.3,220.6 56.6,223.9 C61.5,226.9 65.8,231.1 69.4,236.5 C73.1,241.5 78.6,242 82.5,240.7 C86.4,239.4 90.6,235.8 90.6,229.5 L90.6,96.3 C90.6,93.5 92.8,91.3 95.6,91.3 L228.6,91.3 C236,91.3 240.4,85.2 240.4,79.4 C240.4,75.7 238.7,72.4 235.6,70.1 C224.5,62.6 218.1,51.8 218.1,40.5 C218.1,18.7 241.6,0.9 270.5,0.9 C299.4,0.9 322.9,18.7 322.9,40.5 C322.9,46.4 321.3,52 318,57.3 C315,62.2 310.8,66.5 305.4,70.1 C300.4,73.8 299.9,79.3 301.2,83.2 C302.5,87.1 306.1,91.3 312.4,91.3 L431.6,91.3 C434.4,91.3 436.6,93.5 436.6,96.3 L436.6,432.3 C436.6,435.1 434.4,437.3 431.6,437.3 Z M100.6,427.3 L426.6,427.3 L426.6,101.3 L312.4,101.3 C302.8,101.3 294.7,95.4 291.7,86.3 C288.7,77.2 291.8,67.6 299.6,61.9 C299.7,61.9 299.7,61.8 299.8,61.8 C304,59 307.3,55.7 309.5,52 C311.8,48.3 312.9,44.4 312.9,40.5 C312.9,24.2 293.9,10.9 270.5,10.9 C247.1,10.9 228.1,24.2 228.1,40.5 C228.1,48.6 232.8,56.2 241.2,61.8 C241.3,61.8 241.3,61.9 241.4,61.9 C247.1,66.1 250.4,72.4 250.4,79.4 C250.4,90.2 242.2,101.3 228.6,101.3 L100.6,101.3 L100.6,229.4 C100.6,239 94.7,247.1 85.6,250.1 C76.5,253.1 66.9,250 61.2,242.2 C61.2,242.1 61.1,242.1 61.1,242 C58.3,237.8 55,234.5 51.3,232.3 C47.6,230 43.7,228.9 39.8,228.9 C23.5,228.9 10.2,247.9 10.2,271.3 C10.2,294.7 23.5,313.7 39.8,313.7 C47.9,313.7 55.5,309 61.1,300.6 C61.1,300.5 61.2,300.5 61.2,300.4 C65.4,294.7 71.7,291.4 78.7,291.4 C89.5,291.4 100.6,299.6 100.6,313.2 L100.6,427.3 L100.6,427.3 Z" id="Shape" fill="#383A48"></path>
                    </g>
                    <g transform="translate(428.000000, 566.000000)">
                        <path d="M172.1,89.2 C172.1,96.8 171.1,104.3 169.1,111.3 L7.9,111.3 C6,104.3 4.9,96.9 4.9,89.2 C4.9,43.1 42.3,5.6 88.5,5.6 C134.7,5.7 172.1,43.1 172.1,89.2 Z" id="Path" fill="#AAC6FC"></path>
                        <path d="M169.1,116.3 L7.9,116.3 C5.6,116.3 3.7,114.8 3.1,112.6 C1,105 -1.13686838e-13,97.1 -1.13686838e-13,89.2 C-1.13686838e-13,40.4 39.7,0.6 88.6,0.6 C137.4,0.6 177.2,40.3 177.2,89.2 C177.2,97.1 176.1,105 174.1,112.6 C173.3,114.8 171.4,116.3 169.1,116.3 Z M11.8,106.3 L165.2,106.3 C166.4,100.7 167.1,95 167.1,89.2 C167.1,45.9 131.9,10.6 88.5,10.6 C45.2,10.6 9.9,45.8 9.9,89.2 C9.9,95 10.6,100.7 11.8,106.3 Z" id="Shape" fill="#383A48"></path>
                    </g>
                    <g transform="translate(85.000000, 424.000000)">
                        <g>
                            <circle id="Oval" fill="#F6E049" cx="84.4" cy="84.7" r="78.9"></circle>
                            <path d="M84.4,168.7 C38.1,168.7 0.5,131 0.5,84.8 C0.5,38.6 38.2,0.9 84.4,0.9 C130.6,0.9 168.3,38.6 168.3,84.8 C168.3,131 130.6,168.7 84.4,168.7 Z M84.4,10.8 C43.6,10.8 10.5,44 10.5,84.7 C10.5,125.4 43.7,158.6 84.4,158.6 C125.1,158.6 158.3,125.4 158.3,84.7 C158.3,44 125.1,10.8 84.4,10.8 Z" id="Shape" fill="#383A48"></path>
                        </g>
                        <circle id="Oval" fill="#383A48" cx="59.1" cy="73.2" r="8.5"></circle>
                        <circle id="Oval" fill="#383A48" cx="109.6" cy="73.2" r="8.5"></circle>
                        <path d="M84.4,122 C71.6,122 59.8,114.5 54.4,102.8 C53.2,100.3 54.4,97.3 56.9,96.2 C59.4,95.1 62.4,96.2 63.5,98.7 C67.2,106.8 75.4,112.1 84.4,112.1 C93.4,112.1 101.5,106.8 105.3,98.7 C106.5,96.2 109.4,95.1 111.9,96.2 C114.4,97.4 115.5,100.3 114.4,102.8 C109,114.5 97.2,122 84.4,122 Z" id="Path" fill="#383A48"></path>
                    </g>
                    <g transform="translate(432.000000, 48.000000)">
                        <g>
                            <circle id="Oval" fill="#F6E049" cx="84" cy="84.6" r="78.9"></circle>
                            <path d="M84,168.5 C37.7,168.5 0.1,130.8 0.1,84.6 C0.1,38.4 37.8,0.7 84,0.7 C130.2,0.7 167.9,38.4 167.9,84.6 C167.9,130.8 130.3,168.5 84,168.5 Z M84,10.6 C43.2,10.6 10.1,43.8 10.1,84.5 C10.1,125.2 43.3,158.4 84,158.4 C124.8,158.4 157.9,125.2 157.9,84.5 C157.9,43.8 124.8,10.6 84,10.6 Z" id="Shape" fill="#383A48"></path>
                        </g>
                        <circle id="Oval" fill="#383A48" cx="58.8" cy="73.1" r="8.5"></circle>
                        <circle id="Oval" fill="#383A48" cx="109.3" cy="73.1" r="8.5"></circle>
                        <path d="M84,121.9 C71.2,121.9 59.4,114.4 54,102.7 C52.8,100.2 54,97.2 56.5,96.1 C59,94.9 62,96.1 63.1,98.6 C66.8,106.7 75,112 84,112 C92.9,112 101.1,106.7 104.9,98.6 C106.1,96.1 109,95 111.5,96.1 C114,97.3 115.1,100.2 114,102.7 C108.6,114.3 96.9,121.9 84,121.9 Z" id="Path" fill="#383A48"></path>
                    </g>
                    <g transform="translate(90.000000, 39.000000)">
                        <g>
                            <circle id="Oval" fill="#F6E049" cx="84.4" cy="84.6" r="78.9"></circle>
                            <path d="M84.4,168.5 C38.1,168.5 0.5,130.8 0.5,84.6 C0.5,38.4 38.2,0.7 84.4,0.7 C130.6,0.7 168.3,38.4 168.3,84.6 C168.3,130.8 130.7,168.5 84.4,168.5 Z M84.4,10.6 C43.6,10.6 10.5,43.8 10.5,84.5 C10.5,125.2 43.7,158.4 84.4,158.4 C125.1,158.4 158.3,125.2 158.3,84.5 C158.3,43.8 125.1,10.6 84.4,10.6 Z" id="Shape" fill="#383A48"></path>
                        </g>
                        <circle id="Oval" fill="#383A48" cx="59.1" cy="73.1" r="8.5"></circle>
                        <circle id="Oval" fill="#383A48" cx="109.6" cy="73.1" r="8.5"></circle>
                        <path d="M84.4,121.9 C71.6,121.9 59.8,114.4 54.4,102.7 C53.2,100.2 54.4,97.2 56.9,96.1 C59.4,95 62.4,96.1 63.5,98.6 C67.2,106.7 75.4,112 84.4,112 C93.3,112 101.5,106.7 105.3,98.6 C106.5,96.1 109.4,95 111.9,96.1 C114.4,97.3 115.5,100.2 114.4,102.7 C109,114.3 97.2,121.9 84.4,121.9 Z" id="Path" fill="#383A48"></path>
                    </g>
                    <g transform="translate(432.000000, 408.000000)">
                        <g>
                            <circle id="Oval" fill="#F6E049" cx="84.5" cy="84.7" r="78.9"></circle>
                            <path d="M84.5,168.7 C38.2,168.7 0.6,131 0.6,84.8 C0.6,38.6 38.3,0.9 84.5,0.9 C130.7,0.9 168.4,38.6 168.4,84.8 C168.4,131 130.8,168.7 84.5,168.7 Z M84.5,10.8 C43.7,10.8 10.6,44 10.6,84.7 C10.6,125.4 43.8,158.6 84.5,158.6 C125.3,158.6 158.4,125.4 158.4,84.7 C158.4,44 125.3,10.8 84.5,10.8 Z" id="Shape" fill="#383A48"></path>
                        </g>
                        <circle id="Oval" fill="#383A48" cx="59.3" cy="73.2" r="8.5"></circle>
                        <circle id="Oval" fill="#383A48" cx="109.8" cy="73.2" r="8.5"></circle>
                        <path d="M84.5,122 C71.7,122 59.9,114.5 54.5,102.8 C53.3,100.3 54.5,97.3 57,96.2 C59.5,95 62.5,96.2 63.6,98.7 C67.3,106.8 75.5,112.1 84.5,112.1 C93.5,112.1 101.6,106.8 105.4,98.7 C106.6,96.2 109.5,95.1 112,96.2 C114.5,97.4 115.6,100.3 114.5,102.8 C109.1,114.5 97.4,122 84.5,122 Z" id="Path" fill="#383A48"></path>
                    </g>
                    <g transform="translate(491.000000, 8.000000)" fill="#383A48">
                        <circle id="Oval" cx="25" cy="25.7" r="19.9"></circle>
                        <path d="M25,50.6 C11.3,50.6 0.1,39.4 0.1,25.7 C0.1,12 11.3,0.8 25,0.8 C38.7,0.8 49.9,12 49.9,25.7 C49.9,39.4 38.7,50.6 25,50.6 Z M25,10.9 C16.8,10.9 10.1,17.6 10.1,25.8 C10.1,34 16.8,40.7 25,40.7 C33.2,40.7 39.9,34 39.9,25.8 C39.9,17.6 33.2,10.9 25,10.9 Z" id="Shape"></path>
                    </g>
                    <g transform="translate(436.000000, 48.000000)" fill="#383A48">
                        <path d="M80.0001561,5.6 C80.0001561,5.6 80.6,52.6 7.4,53.5 C7.4,53.5 19.1,9.8 80.0001561,5.6 Z" id="Path"></path>
                        <path d="M0.9,58.6 L2.6,52.2 C2.7,51.7 6,39.9 17.2,27.7 C27.4,16.6 46.6,2.8 79.7,0.6 L85,0.2 L85.1,5.5 C85.1,6 85.1,19.1 75.2,32.2 C66.3,43.9 47.4,58 7.5,58.5 L0.9,58.6 Z M74.2,11.2 C35.9,15.8 20.4,37.2 14.9,48.3 C39.3,46.8 57.3,39.2 67.2,26.3 C71.4,20.7 73.3,15.1 74.2,11.2 Z" id="Shape"></path>
                    </g>
                    <g transform="translate(511.000000, 48.000000)" fill="#383A48">
                        <path d="M4.99984391,5.6 C4.99984391,5.6 4.4,52.6 77.6,53.5 C77.6,53.5 65.9,9.8 4.99984391,5.6 Z" id="Path"></path>
                        <path d="M84.2,58.6 L77.6,58.5 C55.6,58.2 26.1,53.4 9.9,32.2 C0,19.1 0,6.1 0,5.5 L0.1,0.2 L5.4,0.6 C38.5,2.9 57.6,16.6 67.9,27.7 C79.1,39.9 82.4,51.7 82.5,52.2 L84.2,58.6 Z M10.7,11.2 C13.1,22.1 23.7,45.4 70.1,48.3 C64.6,37.2 49.1,15.8 10.7,11.2 Z" id="Shape"></path>
                    </g>
                    <g transform="translate(126.000000, 39.000000)" fill="#383A48">
                        <path d="M9.3,15.9 C9.3,15.9 45,44.5 87.4,15.9 C87.4,15.9 52.4,-7.4 9.3,15.9 Z" id="Path"></path>
                        <path d="M48.3,33.7 C41.9,33.7 36.1,32.8 31.3,31.6 C16.2,27.8 6.6,20.2 6.2,19.9 L0.3,15.2 L6.9,11.6 C52.1,-12.9 88.6,10.8 90.1,11.8 L96.3,15.9 L90.1,20.1 C74.9,30.4 60.4,33.7 48.3,33.7 Z M19.6,16.5 C30.3,22.1 51.9,29.5 77.2,16.2 C66.4,11.7 45.1,5.9 19.6,16.5 Z" id="Shape"></path>
                    </g>
                    <g transform="translate(54.000000, 393.000000)" fill="#383A48">
                        <path d="M59.5,32.9 L59.5,59.9 L32.5,59.9 C17.6,59.9 5.5,47.8 5.5,32.9 L5.5,32.9 C5.5,18 17.6,5.9 32.5,5.9 L32.5,5.9 C47.5,6 59.5,18 59.5,32.9 Z" id="Path"></path>
                        <path d="M59.5,64.9 L32.5,64.9 C14.9,64.9 0.5,50.6 0.5,32.9 C0.5,15.2 14.8,0.9 32.5,0.9 C50.2,0.9 64.5,15.2 64.5,32.9 L64.5,59.9 C64.5,62.7 62.3,64.9 59.5,64.9 Z M32.6,11 C20.5,11 10.6,20.9 10.6,33 C10.6,45.1 20.5,55 32.6,55 L54.6,55 L54.6,33 C54.5,20.8 44.7,11 32.6,11 Z" id="Shape"></path>
                    </g>
                    <g transform="translate(220.000000, 393.000000)" fill="#383A48">
                        <path d="M32.1,59.9 L5.1,59.9 L5.1,32.9 C5.1,18 17.2,5.9 32.1,5.9 L32.1,5.9 C47,5.9 59.1,18 59.1,32.9 L59.1,32.9 C59.1,47.8 47,59.9 32.1,59.9 Z" id="Path"></path>
                        <path d="M32.1,64.9 L5.1,64.9 C2.3,64.9 0.1,62.7 0.1,59.9 L0.1,32.9 C0.1,15.3 14.4,0.9 32.1,0.9 C49.8,0.9 64.1,15.2 64.1,32.9 C64.1,50.6 49.8,64.9 32.1,64.9 Z M10.2,54.9 L32.2,54.9 C44.3,54.9 54.2,45 54.2,32.9 C54.2,20.8 44.3,10.9 32.2,10.9 C20.1,10.9 10.2,20.8 10.2,32.9 L10.2,54.9 Z" id="Shape"></path>
                    </g>
                    <g transform="translate(108.000000, 424.000000)" fill="#383A48">
                        <path d="M5.5,28.9 L117.1,28.9 C117.1,28.9 98.6,5.8 62.3,5.8 C26.1,5.8 5.5,28.9 5.5,28.9 Z" id="Path"></path>
                        <path d="M117.2,33.9 L5.5,33.9 C3.5,33.9 1.7,32.7 0.9,30.9 C0.1,29.1 0.4,27 1.7,25.5 C2.6,24.5 24.2,0.7 62.3,0.7 C100.5,0.7 120.2,24.7 121,25.7 C122.2,27.2 122.4,29.3 121.6,31 C120.8,32.7 119.1,33.9 117.2,33.9 Z M19.3,23.9 L104.2,23.9 C95.9,17.9 82,10.8 62.3,10.8 C42.9,10.8 28.3,17.9 19.3,23.9 Z" id="Shape"></path>
                    </g>
                </g>
                <g transform="translate(322.000000, 57.000000)" fill="#383A48" fill-rule="nonzero">
                    <path d="M5.6,146.4 L73.6,64.6 C87.8,47.5 90.1,24.4 81.4,5.4 L5.6,5.4 L5.6,146.4 Z" id="Path"></path>
                    <path d="M5.6,151.4 C5,151.4 4.5,151.3 3.9,151.1 C1.9,150.4 0.6,148.5 0.6,146.4 L0.6,5.4 C0.6,2.6 2.8,0.4 5.6,0.4 L81.4,0.4 C83.4,0.4 85.1,1.5 85.9,3.3 C95.6,24.5 92.3,49.8 77.4,67.8 L9.4,149.6 C8.5,150.7 7.1,151.4 5.6,151.4 Z M10.6,10.3 L10.6,132.5 L69.7,61.3 C81.5,47.1 84.6,27.4 78.1,10.3 L10.6,10.3 Z" id="Shape"></path>
                </g>
                <g transform="translate(158.000000, 0.000000)" fill-rule="nonzero">
                    <path d="M127.1,25.6 L116.1,38.8 L104.4,25 C84.6,1.5 49.5,-1.6 25.8,18 L25.8,18 C1.8,37.9 -1.4,73.5 18.7,97.3 L116.7,213.6 L213.4,97.2 C233.2,73.4 229.9,38 206,18.2 L206,18.2 C182.2,-1.4 146.9,1.8 127.1,25.6 Z" id="Path" fill="#E0719E"></path>
                    <path d="M116.6,218.7 C115.1,218.7 113.7,218 112.8,216.9 L14.8,100.6 C4.2,88.1 -0.8,72.1 0.7,55.8 C2.2,39.5 9.9,24.7 22.6,14.2 C48.3,-7.1 86.7,-3.7 108.3,21.8 L116.1,31.1 L123.3,22.4 C144.8,-3.5 183.3,-7 209.2,14.4 C221.8,24.8 229.5,39.5 231,55.8 C232.5,72.1 227.6,87.9 217.2,100.5 L120.5,216.9 C119.5,218 118.1,218.7 116.6,218.7 L116.6,218.7 Z M61.5,10.2 C50,10.2 38.5,14 29,21.9 C18.4,30.7 11.9,43 10.7,56.7 C9.5,70.4 13.7,83.7 22.5,94.2 L116.6,206 L209.5,94.2 C218.2,83.7 222.3,70.4 221.1,56.8 C219.9,43.2 213.3,30.9 202.8,22.2 C181.2,4.3 148.9,7.3 131,28.9 L120,42.1 C119.1,43.2 117.7,43.9 116.2,43.9 L116.2,43.9 C114.7,43.9 113.3,43.3 112.4,42.1 L100.7,28.3 C90.5,16.3 76.1,10.2 61.5,10.2 Z" id="Shape" fill="#383A48"></path>
                </g>
                <g transform="translate(899.000000, 287.000000)" fill-rule="nonzero">
                    <polygon id="Path" fill="#F6E049" points="310.2 5 83.9 488.5 5.7 488.5 232.1 5"></polygon>
                    <path d="M83.9,493.5 L5.7,493.5 C4,493.5 2.4,492.6 1.5,491.2 C0.6,489.8 0.5,487.9 1.2,486.4 L227.5,2.9 C228.3,1.1 230.1,1.13686838e-13 232,1.13686838e-13 L310.2,1.13686838e-13 C311.9,1.13686838e-13 313.5,0.9 314.4,2.3 C315.3,3.7 315.4,5.6 314.7,7.1 L88.4,490.6 C87.6,492.3 85.9,493.5 83.9,493.5 Z M13.6,483.5 L80.7,483.5 L302.4,10 L235.3,10 L13.6,483.5 Z" id="Shape" fill="#383A48"></path>
                </g>
                <g transform="translate(1043.000000, 287.000000)" fill-rule="nonzero">
                    <polygon id="Path" fill="#F6E049" points="310.2 5 83.9 488.5 5.7 488.5 232 5"></polygon>
                    <path d="M83.9,493.5 L5.7,493.5 C4,493.5 2.4,492.6 1.5,491.2 C0.6,489.8 0.5,487.9 1.2,486.4 L227.5,2.9 C228.3,1.1 230.1,1.13686838e-13 232,1.13686838e-13 L310.2,1.13686838e-13 C311.9,1.13686838e-13 313.5,0.9 314.4,2.3 C315.3,3.7 315.4,5.6 314.7,7.1 L88.4,490.6 C87.6,492.3 85.9,493.5 83.9,493.5 Z M13.6,483.5 L80.7,483.5 L302.4,10 L235.3,10 L13.6,483.5 Z" id="Shape" fill="#383A48"></path>
                </g>
                <g transform="translate(1066.000000, 57.000000)" fill-rule="nonzero">
                    <path d="M316.7,5.3 L316.7,14.1 C316.7,100.1 247,169.8 161,169.8 C75,169.8 5.3,100.1 5.3,14.1 L5.3,5.3 L74.2,5.3 L74.2,11.4 C74.2,59.3 113.1,98.2 161,98.2 C208.9,98.2 247.8,59.3 247.8,11.4 L247.8,5.3 L316.7,5.3 Z" id="Path" fill="#AAC6FC"></path>
                    <path d="M160.9,174.8 C72.3,174.8 0.2,102.7 0.2,14.1 L0.2,5.3 C0.2,2.5 2.4,0.3 5.2,0.3 L74.1,0.3 C76.9,0.3 79.1,2.5 79.1,5.3 L79.1,11.4 C79.1,56.5 115.8,93.2 160.9,93.2 C206,93.2 242.7,56.5 242.7,11.4 L242.7,5.3 C242.7,2.5 244.9,0.3 247.7,0.3 L316.6,0.3 C319.4,0.3 321.600104,2.5 321.600104,5.3 L321.600104,14.1 C321.7,102.7 249.6,174.8 160.9,174.8 Z M10.2,10.3 L10.2,14.1 C10.2,97.2 77.8,164.8 160.9,164.8 C244,164.8 311.6,97.2 311.6,14.1 L311.6,10.3 L252.7,10.3 L252.7,11.4 C252.7,62 211.5,103.2 160.9,103.2 C110.3,103.2 69.1,62 69.1,11.4 L69.1,10.3 L10.2,10.3 Z" id="Shape" fill="#383A48"></path>
                </g>
                <g transform="translate(0.000000, 611.000000)" fill-rule="nonzero">
                    <path d="M84.9,5.3 L84.9,5.3 C41,5.3 5.3,40.9 5.3,84.9 L5.3,84.9 C5.3,128.8 40.9,164.5 84.9,164.5 L84.9,164.5 C128.8,164.5 164.5,128.9 164.5,84.9 L164.5,84.9 C164.5,40.9 128.8,5.3 84.9,5.3 Z" id="Path" fill="#AAC6FC"></path>
                    <path d="M84.9,169.5 C38.3,169.5 0.3,131.6 0.3,84.9 C0.3,38.2 38.2,0.3 84.9,0.3 L84.9,0.3 C131.5,0.3 169.5,38.2 169.5,84.9 C169.5,131.6 131.5,169.5 84.9,169.5 Z M84.9,10.3 C43.8,10.3 10.3,43.8 10.3,84.9 C10.3,126 43.7,159.5 84.9,159.5 C126.1,159.5 159.5,126 159.5,84.9 C159.5,43.8 126,10.3 84.9,10.3 Z" id="Shape" fill="#383A48"></path>
                </g>
                <path d="M84.2,516.7 C82.9,516.7 81.6,516.2 80.7,515.2 C78.7,513.2 78.7,510.1 80.7,508.1 L93,495.7 C100.2,488.5 100.2,476.7 93,469.5 L80.7,457.2 C69.6,446.1 69.6,428 80.7,416.8 L93,404.5 C96.5,401 98.4,396.3 98.4,391.4 C98.4,386.4 96.5,381.8 93,378.3 L80.7,366 C75.3,360.6 72.3,353.5 72.3,345.8 C72.3,338.1 75.3,331 80.6,325.6 L92.9,313.3 C96.4,309.8 98.3,305.1 98.3,300.2 C98.3,295.2 96.4,290.6 92.9,287.1 L79.4,273.6 C77.4,271.6 77.4,268.5 79.4,266.5 C81.4,264.5 84.5,264.5 86.5,266.5 L100,280 C105.4,285.4 108.4,292.5 108.4,300.2 C108.4,307.8 105.4,315 100.1,320.4 L87.7,333 C84.2,336.5 82.3,341.2 82.3,346.1 C82.3,351.1 84.2,355.7 87.7,359.2 L100,371.5 C105.4,376.9 108.4,384 108.4,391.7 C108.4,399.3 105.4,406.5 100.1,411.9 L87.8,424 C80.6,431.2 80.6,443 87.8,450.2 L100.1,462.5 C111.2,473.6 111.2,491.7 100.1,502.9 L87.8,515.3 C86.7,516.2 85.5,516.7 84.2,516.7 Z" id="Path" fill="#383A48" fill-rule="nonzero"></path>
                <g transform="translate(1336.000000, 224.000000)">
                    <g transform="translate(0.000000, 11.000000)">
                        <line x1="0.8" y1="5.6" x2="33.7" y2="5.6" id="Path"></line>
                        <rect id="Rectangle" fill="#383A48" fill-rule="nonzero" x="0.8" y="0.6" width="33" height="10"></rect>
                    </g>
                    <g transform="translate(12.000000, 0.000000)">
                        <line x1="5.2" y1="33.1" x2="5.2" y2="0.1" id="Path"></line>
                        <rect id="Rectangle" fill="#383A48" fill-rule="nonzero" x="0.2" y="0.1" width="10" height="33"></rect>
                    </g>
                </g>
                <g transform="translate(68.000000, 106.000000)">
                    <g transform="translate(0.000000, 12.000000)">
                        <line x1="0.4" y1="5" x2="33.4" y2="5" id="Path"></line>
                        <rect id="Rectangle" fill="#383A48" fill-rule="nonzero" x="0.4" y="0" width="33" height="10"></rect>
                    </g>
                    <g transform="translate(11.000000, 0.000000)">
                        <line x1="5.9" y1="33.5" x2="5.9" y2="0.6" id="Path"></line>
                        <rect id="Rectangle" fill="#383A48" fill-rule="nonzero" x="0.9" y="0.6" width="10" height="33"></rect>
                    </g>
                </g>
                <g transform="translate(1191.000000, 26.000000)">
                    <rect id="Rectangle" fill="#383A48" fill-rule="nonzero" x="30.9" y="0.8" width="10" height="71"></rect>
                    <g transform="translate(0.000000, 31.000000)">
                        <line x1="0.4" y1="5.3" x2="71.4" y2="5.3" id="Path"></line>
                        <rect id="Rectangle" fill="#383A48" fill-rule="nonzero" x="0.4" y="0.3" width="71" height="10"></rect>
                    </g>
                    <g transform="translate(7.000000, 7.000000)">
                        <line x1="3.8" y1="54.4" x2="54" y2="4.2" id="Path"></line>
                        <rect id="Rectangle" fill="#383A48" fill-rule="nonzero" transform="translate(29.079860, 29.216330) rotate(-45.004051) translate(-29.079860, -29.216330) " x="-6.42230987" y="24.2160244" width="71.0043397" height="10.0006112"></rect>
                    </g>
                    <g transform="translate(7.000000, 7.000000)">
                        <line x1="3.8" y1="4.2" x2="54" y2="54.4" id="Path"></line>
                        <rect id="Rectangle" fill="#383A48" fill-rule="nonzero" transform="translate(28.920830, 29.387450) rotate(-45.000000) translate(-28.920830, -29.387450) " x="23.920878" y="-6.11220955" width="9.9999041" height="70.9993191"></rect>
                    </g>
                </g>
            </g>
        </g>
    </g>
</svg>