<?xml version="1.0" encoding="utf-8"?>
<!-- Generator: Adobe Illustrator 22.0.1, SVG Export Plug-In . SVG Version: 6.00 Build 0)  -->
<svg version="1.1" id="Layer_1" xmlns="http://www.w3.org/2000/svg" xmlns:xlink="http://www.w3.org/1999/xlink" x="0px" y="0px" viewBox="0 0 1920 1080" style="enable-background:new 0 0 1920 1080;" xml:space="preserve">

<rect y="0" width="1920" height="1080" style="fill:#7FD6C2;"/>
<g>
	<path d="M1648.7,578.2c-48.1,0-71.6,46.3-98.8,99.8c-14.4,28.4-30.8,60.6-52.6,89.2c-2.6,3.5-5.4,6.9-8.2,10.3
		c-13.7,16.4-44.9,25-80.9,35.1c-3.2,0.9-6.5,1.8-9.8,2.7c-14.6,4.1-30.3,8.7-46,14.4c-10.1,3.7-19.1,7.4-27.5,11.3
		c-37.8,17.8-63.6,41.4-78.9,71.9c-0.6,1.1-1.1,2.3-1.7,3.4c-0.7,1.5-0.6,3.4,0.3,4.8c0.9,1.4,2.5,2.3,4.2,2.3h399.8
		c2.8,0,5-2.2,5-5V583.2C1653.7,580.4,1651.4,578.2,1648.7,578.2z" style="fill:#F3F6E6;"/>
	<g>
		<path d="M1357.8,831c-1.4-1.5-3.5-2-5.4-1.3c-10.1,3.7-19.1,7.4-27.5,11.3c-37.8,17.8-63.6,41.4-78.9,71.9
			c-0.6,1.1-1.1,2.3-1.7,3.4c-0.7,1.5-0.6,3.4,0.3,4.8c0.9,1.4,2.5,2.3,4.2,2.3h65.8c1.9,0,3.7-1.1,4.5-2.9l39.4-84.1
			C1359.5,834.7,1359.1,832.5,1357.8,831z" style="fill:#383A48;"/>
		<path d="M1503.9,766c-2.2-1.3-5-0.8-6.6,1.2c-2.6,3.5-5.4,6.9-8.2,10.3c-13.7,16.4-44.9,25-80.9,35.1
			c-3.2,0.9-6.5,1.8-9.8,2.7c-1.4,0.4-2.6,1.4-3.2,2.7l-46,98.3c-0.7,1.5-0.6,3.4,0.3,4.8c0.9,1.4,2.5,2.3,4.2,2.3h78.2
			c1.9,0,3.7-1.1,4.5-2.9l69.4-148.2C1506.9,770,1506.1,767.3,1503.9,766z" style="fill:#383A48;"/>
	</g>
	<path d="M925.8,913.5c-91.3,0-158.2-16.4-204.5-50.1c-41.1-29.9-62.8-70.6-83.7-110c-29-54.5-58.9-110.8-139.6-140
		c-64.6-23.3-119.2-68.7-158-131.3c-20.3-32.8-36-69.9-46.7-110.4c-11.3-42.6-17-89-17-138c0-2.8-2.2-5-5-5s-5,2.2-5,5v593.9
		c0,52.8,43,95.8,95.8,95.8h563.7c2.8,0,5-2.2,5-5S928.6,913.5,925.8,913.5z" style="fill:#F3F6E6;"/>
	<g>
		<g>
			<g>
				<g>
					<circle cx="1045.2" cy="893" r="5" style="fill:#383A48;"/>
				</g>
			</g>
			<g>
				<g>
					<circle cx="1045.2" cy="917.7" r="5" style="fill:#383A48;"/>
				</g>
			</g>
			<g>
				<g>
					<circle cx="1020.6" cy="893" r="5" style="fill:#383A48;"/>
				</g>
			</g>
			<g>
				<g>
					<circle cx="1020.6" cy="917.7" r="5" style="fill:#383A48;"/>
				</g>
			</g>
			<g>
				<g>
					<circle cx="995.9" cy="893" r="5" style="fill:#383A48;"/>
				</g>
			</g>
			<g>
				<g>
					<circle cx="995.9" cy="917.7" r="5" style="fill:#383A48;"/>
				</g>
			</g>
			<g>
				<g>
					<circle cx="971.2" cy="893" r="5" style="fill:#383A48;"/>
				</g>
			</g>
			<g>
				<g>
					<circle cx="971.2" cy="917.7" r="5" style="fill:#383A48;"/>
				</g>
			</g>
			<g>
				<g>
					<circle cx="946.6" cy="893" r="5" style="fill:#383A48;"/>
				</g>
			</g>
			<g>
				<g>
					<circle cx="946.6" cy="917.7" r="5" style="fill:#383A48;"/>
				</g>
			</g>
			<g>
				<g>
					<circle cx="921.9" cy="893" r="5" style="fill:#383A48;"/>
				</g>
			</g>
			<g>
				<g>
					<circle cx="921.9" cy="917.7" r="5" style="fill:#383A48;"/>
				</g>
			</g>
			<g>
				<g>
					<circle cx="897.2" cy="893" r="5" style="fill:#383A48;"/>
				</g>
			</g>
			<g>
				<g>
					<circle cx="897.2" cy="917.7" r="5" style="fill:#383A48;"/>
				</g>
			</g>
			<g>
				<g>
					<circle cx="872.6" cy="893" r="5" style="fill:#383A48;"/>
				</g>
			</g>
			<g>
				<g>
					<circle cx="872.6" cy="917.7" r="5" style="fill:#383A48;"/>
				</g>
			</g>
			<g>
				<g>
					<circle cx="847.9" cy="893" r="5" style="fill:#383A48;"/>
				</g>
			</g>
			<g>
				<g>
					<circle cx="847.9" cy="917.7" r="5" style="fill:#383A48;"/>
				</g>
			</g>
			<g>
				<g>
					<circle cx="823.2" cy="893" r="5" style="fill:#383A48;"/>
				</g>
			</g>
			<g>
				<g>
					<circle cx="823.2" cy="917.7" r="5" style="fill:#383A48;"/>
				</g>
			</g>
			<g>
				<g>
					<circle cx="798.6" cy="893" r="5" style="fill:#383A48;"/>
				</g>
			</g>
			<g>
				<g>
					<circle cx="798.6" cy="917.7" r="5" style="fill:#383A48;"/>
				</g>
			</g>
			<g>
				<g>
					<circle cx="773.9" cy="893" r="5" style="fill:#383A48;"/>
				</g>
			</g>
			<g>
				<g>
					<circle cx="773.9" cy="917.7" r="5" style="fill:#383A48;"/>
				</g>
			</g>
			<g>
				<g>
					<circle cx="749.2" cy="893" r="5" style="fill:#383A48;"/>
				</g>
			</g>
			<g>
				<g>
					<circle cx="749.2" cy="917.7" r="5" style="fill:#383A48;"/>
				</g>
			</g>
			<g>
				<g>
					<circle cx="724.6" cy="893" r="5" style="fill:#383A48;"/>
				</g>
			</g>
			<g>
				<g>
					<circle cx="724.6" cy="917.7" r="5" style="fill:#383A48;"/>
				</g>
			</g>
			<g>
				<g>
					<circle cx="699.9" cy="893" r="5" style="fill:#383A48;"/>
				</g>
			</g>
			<g>
				<g>
					<circle cx="699.9" cy="917.7" r="5" style="fill:#383A48;"/>
				</g>
			</g>
			<g>
				<g>
					<circle cx="675.2" cy="893" r="5" style="fill:#383A48;"/>
				</g>
			</g>
			<g>
				<g>
					<circle cx="675.2" cy="917.7" r="5" style="fill:#383A48;"/>
				</g>
			</g>
			<g>
				<g>
					<circle cx="650.6" cy="893" r="5" style="fill:#383A48;"/>
				</g>
			</g>
			<g>
				<g>
					<circle cx="650.6" cy="917.7" r="5" style="fill:#383A48;"/>
				</g>
			</g>
			<g>
				<g>
					<circle cx="625.9" cy="893" r="5" style="fill:#383A48;"/>
				</g>
			</g>
			<g>
				<g>
					<circle cx="625.9" cy="917.7" r="5" style="fill:#383A48;"/>
				</g>
			</g>
			<g>
				<g>
					<circle cx="601.2" cy="893" r="5" style="fill:#383A48;"/>
				</g>
			</g>
			<g>
				<g>
					<circle cx="601.2" cy="917.7" r="5" style="fill:#383A48;"/>
				</g>
			</g>
			<g>
				<g>
					<circle cx="576.6" cy="276.4" r="5" style="fill:#383A48;"/>
				</g>
			</g>
			<g>
				<g>
					<circle cx="576.6" cy="301" r="5" style="fill:#383A48;"/>
				</g>
			</g>
			<g>
				<g>
					<circle cx="576.6" cy="325.7" r="5" style="fill:#383A48;"/>
				</g>
			</g>
			<g>
				<g>
					<circle cx="576.6" cy="350.4" r="5" style="fill:#383A48;"/>
				</g>
			</g>
			<g>
				<g>
					<circle cx="576.6" cy="375" r="5" style="fill:#383A48;"/>
				</g>
			</g>
			<g>
				<g>
					<circle cx="576.6" cy="399.7" r="5" style="fill:#383A48;"/>
				</g>
			</g>
			<g>
				<g>
					<circle cx="576.6" cy="424.4" r="5" style="fill:#383A48;"/>
				</g>
			</g>
			<g>
				<g>
					<circle cx="576.6" cy="449" r="5" style="fill:#383A48;"/>
				</g>
			</g>
			<g>
				<g>
					<circle cx="576.6" cy="473.7" r="5" style="fill:#383A48;"/>
				</g>
			</g>
			<g>
				<g>
					<circle cx="576.6" cy="498.4" r="5" style="fill:#383A48;"/>
				</g>
			</g>
			<g>
				<g>
					<circle cx="576.6" cy="523" r="5" style="fill:#383A48;"/>
				</g>
			</g>
			<g>
				<g>
					<circle cx="576.6" cy="547.7" r="5" style="fill:#383A48;"/>
				</g>
			</g>
			<g>
				<g>
					<circle cx="576.6" cy="572.4" r="5" style="fill:#383A48;"/>
				</g>
			</g>
			<g>
				<g>
					<circle cx="576.6" cy="597" r="5" style="fill:#383A48;"/>
				</g>
			</g>
			<g>
				<g>
					<circle cx="576.6" cy="621.7" r="5" style="fill:#383A48;"/>
				</g>
			</g>
			<g>
				<g>
					<circle cx="576.6" cy="646.4" r="5" style="fill:#383A48;"/>
				</g>
			</g>
			<g>
				<g>
					<circle cx="576.6" cy="671" r="5" style="fill:#383A48;"/>
				</g>
			</g>
			<g>
				<g>
					<circle cx="576.6" cy="695.7" r="5" style="fill:#383A48;"/>
				</g>
			</g>
			<g>
				<g>
					<circle cx="576.6" cy="720.4" r="5" style="fill:#383A48;"/>
				</g>
			</g>
			<g>
				<g>
					<circle cx="576.6" cy="745" r="5" style="fill:#383A48;"/>
				</g>
			</g>
			<g>
				<g>
					<circle cx="576.6" cy="769.7" r="5" style="fill:#383A48;"/>
				</g>
			</g>
			<g>
				<g>
					<circle cx="576.6" cy="794.4" r="5" style="fill:#383A48;"/>
				</g>
			</g>
			<g>
				<g>
					<circle cx="576.6" cy="819" r="5" style="fill:#383A48;"/>
				</g>
			</g>
			<g>
				<g>
					<circle cx="576.6" cy="843.7" r="5" style="fill:#383A48;"/>
				</g>
			</g>
			<g>
				<g>
					<circle cx="576.6" cy="868.4" r="5" style="fill:#383A48;"/>
				</g>
			</g>
			<g>
				<g>
					<circle cx="576.6" cy="893" r="5" style="fill:#383A48;"/>
				</g>
			</g>
			<g>
				<g>
					<circle cx="576.6" cy="917.7" r="5" style="fill:#383A48;"/>
				</g>
			</g>
			<g>
				<g>
					<circle cx="551.9" cy="276.4" r="5" style="fill:#383A48;"/>
				</g>
			</g>
			<g>
				<g>
					<circle cx="551.9" cy="301" r="5" style="fill:#383A48;"/>
				</g>
			</g>
			<g>
				<g>
					<circle cx="551.9" cy="325.7" r="5" style="fill:#383A48;"/>
				</g>
			</g>
			<g>
				<g>
					<circle cx="551.9" cy="350.4" r="5" style="fill:#383A48;"/>
				</g>
			</g>
			<g>
				<g>
					<circle cx="551.9" cy="375" r="5" style="fill:#383A48;"/>
				</g>
			</g>
			<g>
				<g>
					<circle cx="551.9" cy="399.7" r="5" style="fill:#383A48;"/>
				</g>
			</g>
			<g>
				<g>
					<circle cx="551.9" cy="424.4" r="5" style="fill:#383A48;"/>
				</g>
			</g>
			<g>
				<g>
					<circle cx="551.9" cy="449" r="5" style="fill:#383A48;"/>
				</g>
			</g>
			<g>
				<g>
					<circle cx="551.9" cy="473.7" r="5" style="fill:#383A48;"/>
				</g>
			</g>
			<g>
				<g>
					<circle cx="551.9" cy="498.4" r="5" style="fill:#383A48;"/>
				</g>
			</g>
			<g>
				<g>
					<circle cx="551.9" cy="523" r="5" style="fill:#383A48;"/>
				</g>
			</g>
			<g>
				<g>
					<circle cx="551.9" cy="547.7" r="5" style="fill:#383A48;"/>
				</g>
			</g>
			<g>
				<g>
					<circle cx="551.9" cy="572.4" r="5" style="fill:#383A48;"/>
				</g>
			</g>
			<g>
				<g>
					<circle cx="551.9" cy="597" r="5" style="fill:#383A48;"/>
				</g>
			</g>
			<g>
				<g>
					<circle cx="551.9" cy="621.7" r="5" style="fill:#383A48;"/>
				</g>
			</g>
			<g>
				<g>
					<circle cx="551.9" cy="646.4" r="5" style="fill:#383A48;"/>
				</g>
			</g>
			<g>
				<g>
					<circle cx="551.9" cy="671" r="5" style="fill:#383A48;"/>
				</g>
			</g>
			<g>
				<g>
					<circle cx="551.9" cy="695.7" r="5" style="fill:#383A48;"/>
				</g>
			</g>
			<g>
				<g>
					<circle cx="551.9" cy="720.4" r="5" style="fill:#383A48;"/>
				</g>
			</g>
			<g>
				<g>
					<circle cx="551.9" cy="745" r="5" style="fill:#383A48;"/>
				</g>
			</g>
			<g>
				<g>
					<circle cx="551.9" cy="769.7" r="5" style="fill:#383A48;"/>
				</g>
			</g>
			<g>
				<g>
					<circle cx="551.9" cy="794.4" r="5" style="fill:#383A48;"/>
				</g>
			</g>
			<g>
				<g>
					<circle cx="551.9" cy="819" r="5" style="fill:#383A48;"/>
				</g>
			</g>
			<g>
				<g>
					<circle cx="551.9" cy="843.7" r="5" style="fill:#383A48;"/>
				</g>
			</g>
			<g>
				<g>
					<circle cx="551.9" cy="868.4" r="5" style="fill:#383A48;"/>
				</g>
			</g>
			<g>
				<g>
					<circle cx="551.9" cy="893" r="5" style="fill:#383A48;"/>
				</g>
			</g>
			<g>
				<g>
					<circle cx="551.9" cy="917.7" r="5" style="fill:#383A48;"/>
				</g>
			</g>
			<g>
				<g>
					<circle cx="527.2" cy="276.4" r="5" style="fill:#383A48;"/>
				</g>
			</g>
			<g>
				<g>
					<circle cx="527.2" cy="301" r="5" style="fill:#383A48;"/>
				</g>
			</g>
			<g>
				<g>
					<circle cx="527.2" cy="325.7" r="5" style="fill:#383A48;"/>
				</g>
			</g>
			<g>
				<g>
					<circle cx="527.2" cy="350.4" r="5" style="fill:#383A48;"/>
				</g>
			</g>
			<g>
				<g>
					<circle cx="527.2" cy="375" r="5" style="fill:#383A48;"/>
				</g>
			</g>
			<g>
				<g>
					<circle cx="527.2" cy="399.7" r="5" style="fill:#383A48;"/>
				</g>
			</g>
			<g>
				<g>
					<circle cx="527.2" cy="424.4" r="5" style="fill:#383A48;"/>
				</g>
			</g>
			<g>
				<g>
					<circle cx="527.2" cy="449" r="5" style="fill:#383A48;"/>
				</g>
			</g>
			<g>
				<g>
					<circle cx="527.2" cy="473.7" r="5" style="fill:#383A48;"/>
				</g>
			</g>
			<g>
				<g>
					<circle cx="527.2" cy="498.4" r="5" style="fill:#383A48;"/>
				</g>
			</g>
			<g>
				<g>
					<circle cx="527.2" cy="523" r="5" style="fill:#383A48;"/>
				</g>
			</g>
			<g>
				<g>
					<circle cx="527.2" cy="547.7" r="5" style="fill:#383A48;"/>
				</g>
			</g>
			<g>
				<g>
					<circle cx="527.2" cy="572.4" r="5" style="fill:#383A48;"/>
				</g>
			</g>
			<g>
				<g>
					<circle cx="527.2" cy="597" r="5" style="fill:#383A48;"/>
				</g>
			</g>
			<g>
				<g>
					<circle cx="527.2" cy="621.7" r="5" style="fill:#383A48;"/>
				</g>
			</g>
			<g>
				<g>
					<circle cx="527.2" cy="646.4" r="5" style="fill:#383A48;"/>
				</g>
			</g>
			<g>
				<g>
					<circle cx="527.2" cy="671" r="5" style="fill:#383A48;"/>
				</g>
			</g>
			<g>
				<g>
					<circle cx="527.2" cy="695.7" r="5" style="fill:#383A48;"/>
				</g>
			</g>
			<g>
				<g>
					<circle cx="527.2" cy="720.4" r="5" style="fill:#383A48;"/>
				</g>
			</g>
			<g>
				<g>
					<circle cx="527.2" cy="745" r="5" style="fill:#383A48;"/>
				</g>
			</g>
			<g>
				<g>
					<circle cx="527.2" cy="769.7" r="5" style="fill:#383A48;"/>
				</g>
			</g>
			<g>
				<g>
					<circle cx="527.2" cy="794.4" r="5" style="fill:#383A48;"/>
				</g>
			</g>
			<g>
				<g>
					<circle cx="527.2" cy="819" r="5" style="fill:#383A48;"/>
				</g>
			</g>
			<g>
				<g>
					<circle cx="527.2" cy="843.7" r="5" style="fill:#383A48;"/>
				</g>
			</g>
			<g>
				<g>
					<circle cx="527.2" cy="868.4" r="5" style="fill:#383A48;"/>
				</g>
			</g>
			<g>
				<g>
					<circle cx="527.2" cy="893" r="5" style="fill:#383A48;"/>
				</g>
			</g>
			<g>
				<g>
					<circle cx="527.2" cy="917.7" r="5" style="fill:#383A48;"/>
				</g>
			</g>
			<g>
				<g>
					<circle cx="502.6" cy="276.4" r="5" style="fill:#383A48;"/>
				</g>
			</g>
			<g>
				<g>
					<circle cx="502.6" cy="301" r="5" style="fill:#383A48;"/>
				</g>
			</g>
			<g>
				<g>
					<circle cx="502.6" cy="325.7" r="5" style="fill:#383A48;"/>
				</g>
			</g>
			<g>
				<g>
					<circle cx="502.6" cy="350.4" r="5" style="fill:#383A48;"/>
				</g>
			</g>
			<g>
				<g>
					<circle cx="502.6" cy="375" r="5" style="fill:#383A48;"/>
				</g>
			</g>
			<g>
				<g>
					<circle cx="502.6" cy="399.7" r="5" style="fill:#383A48;"/>
				</g>
			</g>
			<g>
				<g>
					<circle cx="502.6" cy="424.4" r="5" style="fill:#383A48;"/>
				</g>
			</g>
			<g>
				<g>
					<circle cx="502.6" cy="449" r="5" style="fill:#383A48;"/>
				</g>
			</g>
			<g>
				<g>
					<circle cx="502.6" cy="473.7" r="5" style="fill:#383A48;"/>
				</g>
			</g>
			<g>
				<g>
					<circle cx="502.6" cy="498.4" r="5" style="fill:#383A48;"/>
				</g>
			</g>
			<g>
				<g>
					<circle cx="502.6" cy="523" r="5" style="fill:#383A48;"/>
				</g>
			</g>
			<g>
				<g>
					<circle cx="502.6" cy="547.7" r="5" style="fill:#383A48;"/>
				</g>
			</g>
			<g>
				<g>
					<circle cx="502.6" cy="572.4" r="5" style="fill:#383A48;"/>
				</g>
			</g>
			<g>
				<g>
					<circle cx="502.6" cy="597" r="5" style="fill:#383A48;"/>
				</g>
			</g>
			<g>
				<g>
					<circle cx="502.6" cy="621.7" r="5" style="fill:#383A48;"/>
				</g>
			</g>
			<g>
				<g>
					<circle cx="502.6" cy="646.4" r="5" style="fill:#383A48;"/>
				</g>
			</g>
			<g>
				<g>
					<circle cx="502.6" cy="671" r="5" style="fill:#383A48;"/>
				</g>
			</g>
			<g>
				<g>
					<circle cx="502.6" cy="695.7" r="5" style="fill:#383A48;"/>
				</g>
			</g>
			<g>
				<g>
					<circle cx="502.6" cy="720.4" r="5" style="fill:#383A48;"/>
				</g>
			</g>
			<g>
				<g>
					<circle cx="502.6" cy="745" r="5" style="fill:#383A48;"/>
				</g>
			</g>
			<g>
				<g>
					<circle cx="502.6" cy="769.7" r="5" style="fill:#383A48;"/>
				</g>
			</g>
			<g>
				<g>
					<circle cx="502.6" cy="794.4" r="5" style="fill:#383A48;"/>
				</g>
			</g>
			<g>
				<g>
					<circle cx="502.6" cy="819" r="5" style="fill:#383A48;"/>
				</g>
			</g>
			<g>
				<g>
					<circle cx="502.6" cy="843.7" r="5" style="fill:#383A48;"/>
				</g>
			</g>
			<g>
				<g>
					<circle cx="502.6" cy="868.4" r="5" style="fill:#383A48;"/>
				</g>
			</g>
			<g>
				<g>
					<circle cx="502.6" cy="893" r="5" style="fill:#383A48;"/>
				</g>
			</g>
			<g>
				<g>
					<circle cx="502.6" cy="917.7" r="5" style="fill:#383A48;"/>
				</g>
			</g>
			<g>
				<g>
					<circle cx="477.9" cy="276.4" r="5" style="fill:#383A48;"/>
				</g>
			</g>
			<g>
				<g>
					<circle cx="477.9" cy="301" r="5" style="fill:#383A48;"/>
				</g>
			</g>
			<g>
				<g>
					<circle cx="477.9" cy="325.7" r="5" style="fill:#383A48;"/>
				</g>
			</g>
			<g>
				<g>
					<circle cx="477.9" cy="350.4" r="5" style="fill:#383A48;"/>
				</g>
			</g>
			<g>
				<g>
					<circle cx="477.9" cy="375" r="5" style="fill:#383A48;"/>
				</g>
			</g>
			<g>
				<g>
					<circle cx="477.9" cy="399.7" r="5" style="fill:#383A48;"/>
				</g>
			</g>
			<g>
				<g>
					<circle cx="477.9" cy="424.4" r="5" style="fill:#383A48;"/>
				</g>
			</g>
			<g>
				<g>
					<circle cx="477.9" cy="449" r="5" style="fill:#383A48;"/>
				</g>
			</g>
			<g>
				<g>
					<circle cx="477.9" cy="473.7" r="5" style="fill:#383A48;"/>
				</g>
			</g>
			<g>
				<g>
					<circle cx="477.9" cy="498.4" r="5" style="fill:#383A48;"/>
				</g>
			</g>
			<g>
				<g>
					<circle cx="477.9" cy="523" r="5" style="fill:#383A48;"/>
				</g>
			</g>
			<g>
				<g>
					<circle cx="477.9" cy="547.7" r="5" style="fill:#383A48;"/>
				</g>
			</g>
			<g>
				<g>
					<circle cx="477.9" cy="572.4" r="5" style="fill:#383A48;"/>
				</g>
			</g>
			<g>
				<g>
					<circle cx="477.9" cy="597" r="5" style="fill:#383A48;"/>
				</g>
			</g>
			<g>
				<g>
					<circle cx="477.9" cy="621.7" r="5" style="fill:#383A48;"/>
				</g>
			</g>
			<g>
				<g>
					<circle cx="477.9" cy="646.4" r="5" style="fill:#383A48;"/>
				</g>
			</g>
			<g>
				<g>
					<circle cx="477.9" cy="671" r="5" style="fill:#383A48;"/>
				</g>
			</g>
			<g>
				<g>
					<circle cx="477.9" cy="695.7" r="5" style="fill:#383A48;"/>
				</g>
			</g>
			<g>
				<g>
					<circle cx="477.9" cy="720.4" r="5" style="fill:#383A48;"/>
				</g>
			</g>
			<g>
				<g>
					<circle cx="477.9" cy="745" r="5" style="fill:#383A48;"/>
				</g>
			</g>
			<g>
				<g>
					<circle cx="477.9" cy="769.7" r="5" style="fill:#383A48;"/>
				</g>
			</g>
			<g>
				<g>
					<circle cx="477.9" cy="794.4" r="5" style="fill:#383A48;"/>
				</g>
			</g>
			<g>
				<g>
					<circle cx="477.9" cy="819" r="5" style="fill:#383A48;"/>
				</g>
			</g>
			<g>
				<g>
					<circle cx="477.9" cy="843.7" r="5" style="fill:#383A48;"/>
				</g>
			</g>
			<g>
				<g>
					<circle cx="477.9" cy="868.4" r="5" style="fill:#383A48;"/>
				</g>
			</g>
			<g>
				<g>
					<circle cx="477.9" cy="893" r="5" style="fill:#383A48;"/>
				</g>
			</g>
			<g>
				<g>
					<circle cx="477.9" cy="917.7" r="5" style="fill:#383A48;"/>
				</g>
			</g>
		</g>
	</g>
	<g>
		<g>
			<g>
				<path d="M1020.1,380.4c0,26.1-15.5,47.4-34.6,47.4c-10.1,0-19.2-5.9-25.5-15.3c-3.5-4.8-8.5-6.9-13.4-6.9
					c-8.6,0-16.9,6.5-16.9,16.8v119.1H796.5c-16.3,0-23,20.8-9.9,30.4c4.7,3.2,8.6,7,11.2,11.3c2.7,4.3,4.1,9.1,4.1,14.2
					c0,19.1-21.2,34.6-47.4,34.6s-47.4-15.5-47.4-34.6c0-10.1,5.9-19.2,15.3-25.5c4.8-3.5,6.9-8.5,6.9-13.4
					c0-8.5-6.5-16.9-16.8-16.9H593.6v-336h336v133.1c0,16.3,20.8,23,30.4,9.9c3.2-4.7,7-8.5,11.3-11.2s9.1-4.1,14.2-4.1
					C1004.6,333,1020.1,354.2,1020.1,380.4z" style="fill:#F3F6E6;"/>
			</g>
			<g>
				<path d="M754.6,636.7c-28.9,0-52.4-17.8-52.4-39.6c0-11.3,6.4-22.1,17.5-29.6c3.1-2.3,4.8-5.6,4.8-9.3
					c0-5.9-4.4-12-11.8-12H593.6c-2.8,0-5-2.2-5-5v-336c0-2.8,2.2-5,5-5h336c2.8,0,5,2.2,5,5v133.1c0,6.3,4.2,9.9,8.1,11.2
					c3.9,1.3,9.4,0.8,13.1-4.2c3.6-5.3,7.9-9.6,12.8-12.6c5.3-3.2,10.9-4.9,16.8-4.9c21.8,0,39.6,23.5,39.6,52.4
					s-17.8,52.4-39.6,52.4c-11.3,0-22.1-6.4-29.6-17.5c-2.3-3.1-5.6-4.8-9.3-4.8c-5.9,0-11.9,4.4-11.9,11.8v119c0,2.8-2.2,5-5,5
					H796.5c-6.3,0-9.9,4.2-11.2,8.1c-1.3,3.9-0.8,9.4,4.2,13.1c5.4,3.6,9.6,7.9,12.6,12.8c3.2,5.3,4.9,10.9,4.9,16.8
					C806.9,619,783.5,636.7,754.6,636.7z M598.6,536.3h114.1c13.6,0,21.8,11.2,21.8,22c0,6.9-3.3,13.3-9,17.5
					c-0.1,0-0.1,0.1-0.2,0.1c-8.5,5.7-13.1,13.2-13.1,21.3c0,16.3,19,29.6,42.4,29.6s42.4-13.3,42.4-29.6c0-4-1.1-7.9-3.4-11.5
					c-2.3-3.7-5.5-7-9.7-9.8c-0.1,0-0.1-0.1-0.2-0.1c-7.8-5.7-10.9-15.2-7.9-24.4c3-9.1,11.1-15,20.7-15h128.1v-114
					c0-13.7,11.2-21.8,21.9-21.8c6.9,0,13.3,3.3,17.5,9c0,0.1,0.1,0.1,0.1,0.2c5.7,8.5,13.2,13.1,21.3,13.1
					c16.3,0,29.6-19,29.6-42.4s-13.3-42.4-29.6-42.4c-4,0-7.9,1.1-11.5,3.4c-3.7,2.3-7,5.5-9.8,9.7c0,0.1-0.1,0.1-0.1,0.2
					c-5.7,7.8-15.2,10.9-24.4,7.9c-9.1-3-15-11.1-15-20.7V210.3h-326V536.3z" style="fill:#383A48;"/>
			</g>
		</g>
		<g>
			<g>
				<g>
					<path d="M786.6,571.7c4.7,3.2,8.6,7,11.2,11.3c2.7,4.3,4.1,9.1,4.1,14.2c0,19.1-21.2,34.6-47.4,34.6
						s-47.4-15.5-47.4-34.6c0-10.1,5.9-19.2,15.3-25.5c4.8-3.5,6.9-8.5,6.9-13.4c0-8.5-6.5-16.9-16.8-16.9h-77.1v-15.8
						c0-67.2,54.5-121.8,121.8-121.8c33.6,0,64.1,13.6,86.1,35.7c22,22,35.7,52.5,35.7,86.1v15.8h-82.6
						C780.2,541.3,773.5,562.1,786.6,571.7z" style="fill:#7FD6C2;"/>
				</g>
			</g>
			<g>
				<g>
					<path d="M754.6,636.7c-28.9,0-52.4-17.8-52.4-39.6c0-11.3,6.4-22.1,17.5-29.6c3.1-2.3,4.8-5.6,4.8-9.3
						c0-5.9-4.4-12-11.8-12h-77.1c-2.8,0-5-2.2-5-5v-15.8c0-69.9,56.9-126.8,126.8-126.8c33.9,0,65.7,13.2,89.6,37.1
						c23.9,23.9,37.1,55.8,37.1,89.6v15.8c0,2.8-2.2,5-5,5h-82.6c-6.3,0-9.9,4.2-11.2,8.1c-1.3,3.9-0.8,9.4,4.2,13.1
						c5.4,3.6,9.6,7.9,12.6,12.8c3.2,5.3,4.9,10.9,4.9,16.8C806.9,619,783.5,636.7,754.6,636.7z M640.6,536.3h72.1
						c10.7,0,21.8,8.2,21.8,22c0,6.9-3.3,13.3-9,17.5c-0.1,0-0.1,0.1-0.2,0.1c-8.5,5.7-13.1,13.2-13.1,21.3
						c0,16.3,19,29.6,42.4,29.6s42.4-13.3,42.4-29.6c0-4-1.1-7.9-3.4-11.5c-2.3-3.7-5.5-7-9.7-9.8c-0.1,0-0.1-0.1-0.2-0.1
						c-7.8-5.7-10.9-15.2-7.9-24.4c3-9.1,11.1-15,20.7-15h77.6v-10.8c0-31.2-12.1-60.5-34.2-82.6c-22-22.1-51.4-34.2-82.6-34.2
						c-64.4,0-116.8,52.4-116.8,116.8v10.7H640.6z" style="fill:#383A48;"/>
				</g>
			</g>
		</g>
		<g>
			<g>
				<path d="M1265.6,205.3v336h-133.1c-6.9,0-12.1,3.8-14.8,8.8c-3.6,6.8-2.7,16.1,4.9,21.6c4.7,3.2,8.6,7,11.2,11.3
					c2.7,4.3,4.1,9.1,4.1,14.1c0,19.1-21.2,34.6-47.4,34.6s-47.4-15.5-47.4-34.6c0-10.1,5.9-19.2,15.3-25.5
					c4.8-3.5,6.9-8.5,6.9-13.4c0-2.8-0.7-5.7-2-8.2c-2.7-5-7.9-8.8-14.8-8.8H929.6v-133c0-16.3-20.8-23-30.4-9.9
					c-3.2,4.7-7,8.5-11.3,11.2c-4.3,2.6-9.1,4.1-14.2,4.1c-19.1,0-34.6-21.2-34.6-47.4c0-26.2,15.5-47.4,34.6-47.4
					c10.1,0,19.2,5.9,25.5,15.3c3.5,4.8,8.5,6.9,13.4,6.9c8.6,0,16.9-6.5,16.9-16.8V205.3H1265.6z" style="fill:#F3F6E6;"/>
			</g>
			<g>
				<path d="M1090.6,636.8c-28.9,0-52.4-17.8-52.4-39.6c0-11.3,6.4-22.1,17.5-29.6c3.1-2.3,4.8-5.6,4.8-9.3
					c0-2-0.5-4-1.5-5.8c-2.1-3.9-5.9-6.2-10.4-6.2h-119c-2.8,0-5-2.2-5-5V408.2c0-6.3-4.2-9.9-8.1-11.2c-3.9-1.3-9.4-0.8-13.1,4.2
					c-3.6,5.4-7.9,9.6-12.8,12.6c-5.3,3.2-10.9,4.9-16.8,4.9c-21.8,0-39.6-23.5-39.6-52.4s17.8-52.4,39.6-52.4
					c11.3,0,22.1,6.4,29.6,17.5c2.3,3.1,5.6,4.8,9.3,4.8c5.9,0,11.9-4.4,11.9-11.8V205.3c0-2.8,2.2-5,5-5h336c2.8,0,5,2.2,5,5v336
					c0,2.8-2.2,5-5,5h-133.1c-4.5,0-8.3,2.2-10.4,6.1c-2.3,4.4-2.3,11,3.3,15.1c5.4,3.6,9.6,7.9,12.6,12.8
					c3.2,5.2,4.9,10.9,4.9,16.8C1142.9,619,1119.4,636.8,1090.6,636.8z M934.6,536.3h114.1c8.2,0,15.4,4.3,19.2,11.4
					c1.7,3.2,2.6,6.9,2.6,10.5c0,6.9-3.3,13.3-9,17.5c-0.1,0-0.1,0.1-0.2,0.1c-8.5,5.7-13.1,13.2-13.1,21.3
					c0,16.3,19,29.6,42.4,29.6s42.4-13.3,42.4-29.6c0-4-1.1-7.9-3.4-11.5c-2.3-3.7-5.5-7-9.7-9.8c-0.1,0-0.1-0.1-0.2-0.1
					c-10.1-7.3-10.8-19.6-6.4-28c3.8-7.2,11-11.4,19.2-11.4h128.1v-326h-326v114.1c0,13.6-11.2,21.8-21.9,21.8
					c-6.9,0-13.3-3.3-17.5-9c0-0.1-0.1-0.1-0.1-0.2c-5.7-8.5-13.2-13.1-21.3-13.1c-16.3,0-29.6,19-29.6,42.4s13.3,42.4,29.6,42.4
					c4,0,7.9-1.1,11.5-3.4c3.7-2.3,7-5.5,9.8-9.7c0-0.1,0.1-0.1,0.1-0.2c5.7-7.8,15.2-10.9,24.4-7.9c9.1,3,15,11.1,15,20.7V536.3z" style="fill:#383A48;"/>
			</g>
		</g>
		<g>
			<g>
				<path d="M1222.6,541.3h-90.2c-6.9,0-12.1,3.8-14.8,8.8h-54.3c-2.7-5-7.9-8.8-14.8-8.8h-62.3l79-109.9
					c19.1-26.5,58.5-26.6,77.6-0.1L1222.6,541.3z" style="fill:#E0719E;"/>
			</g>
			<g>
				<path d="M1117.7,555.1h-54.3c-1.8,0-3.5-1-4.4-2.7c-2.1-3.9-5.8-6.1-10.3-6.1h-62.3c-1.9,0-3.6-1-4.4-2.7
					c-0.9-1.7-0.7-3.7,0.4-5.2l79-109.9c10-14,25.6-22,42.8-22h0.1c17.1,0,32.7,8,42.8,21.8l79.7,110c1.1,1.5,1.3,3.5,0.4,5.2
					s-2.6,2.7-4.5,2.7h-90.2c-4.5,0-8.3,2.2-10.4,6.1C1121.3,554.1,1119.6,555.1,1117.7,555.1z M1066.2,545.1h48.8
					c4-5.6,10.4-8.8,17.5-8.8h80.4l-74-102.1c-8.2-11.3-20.8-17.7-34.7-17.7h-0.1c-13.9,0-26.6,6.5-34.7,17.9l-73.3,102h52.6
					C1055.8,536.3,1062.2,539.6,1066.2,545.1z" style="fill:#383A48;"/>
			</g>
		</g>
		<g>
			<g>
				<path d="M1020,716.4c0,26.2-15.5,47.4-34.6,47.4c-10.1,0-19.2-5.9-25.5-15.3c-3.5-4.8-8.5-6.9-13.4-6.9
					c-8.5,0-16.9,6.5-16.9,16.8v119.1h-336v-336h121.8c16.3,0,23-20.8,9.9-30.4c-4.7-3.2-8.6-7-11.2-11.3c-2.7-4.3-4.1-9.1-4.1-14.1
					c0-19.1,21.2-34.6,47.4-34.6c26.1,0,47.4,15.5,47.4,34.6c0,10.1-5.9,19.2-15.3,25.5c-4.8,3.5-6.9,8.5-6.9,13.4
					c0,8.6,6.5,16.9,16.8,16.9h130.4v133.1c0,16.3,20.8,23,30.4,9.9c3.2-4.7,7-8.6,11.3-11.2s9.1-4.1,14.2-4.1
					C1004.6,669,1020,690.2,1020,716.4z" style="fill:#F3F6E6;"/>
			</g>
			<g>
				<path d="M929.6,882.3h-336c-2.8,0-5-2.2-5-5v-336c0-2.8,2.2-5,5-5h121.8c6.3,0,9.9-4.2,11.2-8.1
					c1.3-3.9,0.8-9.4-4.2-13.1c-5.4-3.6-9.6-7.9-12.6-12.8c-3.2-5.2-4.9-10.9-4.9-16.8c0-21.8,23.5-39.6,52.4-39.6
					s52.4,17.8,52.4,39.6c0,11.3-6.4,22.1-17.5,29.6c-3.1,2.3-4.8,5.6-4.8,9.3c0,5.9,4.4,11.9,11.8,11.9h130.4c2.8,0,5,2.2,5,5
					v133.1c0,6.3,4.2,9.9,8.1,11.2c3.9,1.3,9.4,0.8,13.1-4.2c3.6-5.4,7.9-9.6,12.8-12.6c5.3-3.2,10.9-4.9,16.8-4.9
					c21.8,0,39.6,23.5,39.6,52.4s-17.8,52.4-39.6,52.4c-11.3,0-22.1-6.4-29.6-17.5c-2.3-3.1-5.6-4.8-9.3-4.8
					c-5.9,0-11.9,4.4-11.9,11.8v119.1C934.6,880.1,932.4,882.3,929.6,882.3z M598.6,872.3h326v-114c0-13.7,11.2-21.8,21.9-21.8
					c6.9,0,13.3,3.3,17.5,9c0,0.1,0.1,0.1,0.1,0.2c5.7,8.5,13.2,13.1,21.3,13.1c16.3,0,29.6-19,29.6-42.4s-13.3-42.4-29.6-42.4
					c-4,0-7.9,1.1-11.5,3.4c-3.7,2.3-7,5.5-9.8,9.7c0,0.1-0.1,0.1-0.1,0.2c-5.7,7.8-15.2,10.9-24.4,7.9c-9.1-3-15-11.1-15-20.7
					V546.3H799.3c-13.7,0-21.8-11.2-21.8-21.9c0-6.9,3.3-13.3,9-17.5c0.1,0,0.1-0.1,0.2-0.1c8.5-5.7,13.1-13.2,13.1-21.3
					c0-16.3-19-29.6-42.4-29.6S715,469.2,715,485.5c0,4,1.1,7.9,3.4,11.5c2.3,3.7,5.5,7,9.7,9.8c0.1,0,0.1,0.1,0.2,0.1
					c7.8,5.7,10.9,15.2,7.9,24.4c-3,9.1-11.1,15-20.7,15H598.6V872.3z" style="fill:#383A48;"/>
			</g>
		</g>
		<g>
			<g>
				<path d="M838.3,871.2c0,2.1-0.1,4.1-0.2,6.1H671.4c-0.2-2-0.2-4.1-0.2-6.1c0-15.1,59.4-83.6,83.6-83.6
					S838.3,851.8,838.3,871.2z" style="fill:#F3F6E6;"/>
			</g>
			<g>
				<path d="M838.1,882.3H671.4c-2.6,0-4.8-2-5-4.6c-0.2-2.1-0.2-4.3-0.2-6.5c0-11.6,21.4-37.4,34.1-50.9
					c10.7-11.3,37.3-37.7,54.5-37.7c18.2,0,46.3,27.6,54.5,36c9.2,9.5,17.6,19.6,23.6,28.5c7,10.3,10.5,18.4,10.5,24.1
					c0,2.2-0.1,4.4-0.2,6.5C842.9,880.3,840.7,882.3,838.1,882.3z M676.2,872.3h157.1c0-0.4,0-0.7,0-1.1c0-6.4-11-24.6-31.3-45.6
					c-19.1-19.7-38.1-33-47.3-33c-9,0-27.5,13.6-47.2,34.5c-20.2,21.5-31.3,39.7-31.3,44C676.2,871.6,676.2,872,676.2,872.3z" style="fill:#383A48;"/>
			</g>
		</g>
		<g>
			<g>
				<path d="M1265.6,541.3v336h-336v-119c0-10.3-8.4-16.8-16.9-16.8c-4.9,0-9.9,2.1-13.4,6.9
					c-6.3,9.4-15.4,15.3-25.5,15.3c-19.1,0-34.6-21.2-34.6-47.4c0-26.1,15.5-47.4,34.6-47.4c5.1,0,9.8,1.5,14.2,4.1
					c4.3,2.6,8.2,6.5,11.3,11.2c9.6,13.1,30.4,6.4,30.4-9.9v-133h133c10.3,0,16.8-8.4,16.8-16.9c0-4.9-2.1-9.9-6.9-13.4
					c-9.4-6.3-15.3-15.4-15.3-25.5c0-19.1,21.2-34.6,47.4-34.6c26.1,0,47.4,15.5,47.4,34.6c0,5-1.5,9.8-4.1,14.1
					c-2.7,4.3-6.5,8.2-11.2,11.3c-13.1,9.6-6.4,30.4,9.9,30.4H1265.6z" style="fill:#F3F6E6;"/>
			</g>
			<g>
				<path d="M1265.6,882.3h-336c-2.8,0-5-2.2-5-5v-119c0-7.4-6.1-11.8-11.9-11.8c-3.7,0-7,1.7-9.3,4.8
					c-7.5,11.1-18.3,17.5-29.6,17.5c-21.8,0-39.6-23.5-39.6-52.4S852,664,873.8,664c5.9,0,11.5,1.6,16.8,4.9
					c4.9,3,9.2,7.2,12.8,12.6c3.7,5,9.2,5.5,13.1,4.2c3.9-1.3,8.1-4.9,8.1-11.2V541.3c0-2.8,2.2-5,5-5h133c7.4,0,11.8-6.1,11.8-11.9
					c0-3.7-1.7-7-4.8-9.3c-11.1-7.5-17.5-18.3-17.5-29.6c0-21.8,23.5-39.6,52.4-39.6s52.4,17.8,52.4,39.6c0,5.9-1.6,11.5-4.9,16.8
					c-3,4.9-7.2,9.2-12.6,12.8c-5,3.7-5.5,9.2-4.2,13.1c1.3,3.9,4.9,8.1,11.2,8.1h119.2c2.8,0,5,2.2,5,5v336
					C1270.6,880.1,1268.4,882.3,1265.6,882.3z M934.6,872.3h326v-326h-114.2c-9.6,0-17.7-5.9-20.7-15s0.1-18.7,7.9-24.4
					c0.1,0,0.1-0.1,0.2-0.1c4.2-2.8,7.5-6.1,9.7-9.8c2.3-3.7,3.4-7.6,3.4-11.5c0-16.3-19-29.6-42.4-29.6s-42.4,13.3-42.4,29.6
					c0,8.1,4.7,15.7,13.1,21.3c0.1,0,0.1,0.1,0.2,0.1c5.7,4.2,9,10.5,9,17.5c0,10.8-8.2,21.9-21.8,21.9h-128v128.1
					c0,9.6-5.9,17.7-15,20.7s-18.7-0.1-24.4-7.9c0-0.1-0.1-0.1-0.1-0.2c-2.8-4.2-6.1-7.5-9.8-9.7c-3.7-2.3-7.6-3.4-11.5-3.4
					c-16.3,0-29.6,19-29.6,42.4s13.3,42.4,29.6,42.4c8.1,0,15.7-4.7,21.3-13.1c0-0.1,0.1-0.1,0.1-0.2c4.2-5.7,10.5-9,17.5-9
					c10.8,0,21.9,8.2,21.9,21.8L934.6,872.3L934.6,872.3z" style="fill:#383A48;"/>
			</g>
		</g>
		<g>
			<g>
				<path d="M1188.1,855.2c0,7.6-1,15.1-3,22.1h-161.2c-1.9-7-3-14.4-3-22.1c0-46.1,37.4-83.6,83.6-83.6
					C1150.7,771.7,1188.1,809.1,1188.1,855.2z" style="fill:#AAC6FC;"/>
			</g>
			<g>
				<path d="M1185.1,882.3h-161.2c-2.3,0-4.2-1.5-4.8-3.7c-2.1-7.6-3.1-15.5-3.1-23.4c0-48.8,39.7-88.6,88.6-88.6
					c48.8,0,88.6,39.7,88.6,88.6c0,7.9-1.1,15.8-3.1,23.4C1189.3,880.8,1187.4,882.3,1185.1,882.3z M1027.8,872.3h153.4
					c1.2-5.6,1.9-11.3,1.9-17.1c0-43.3-35.2-78.6-78.6-78.6c-43.3,0-78.6,35.2-78.6,78.6C1025.9,861,1026.6,866.7,1027.8,872.3z" style="fill:#383A48;"/>
			</g>
		</g>
		<g>
			<g>
				<g>
					<circle cx="757.4" cy="708.7" r="78.9" style="fill:#F6E049;"/>
				</g>
				<g>
					<path d="M757.4,792.7c-46.3,0-83.9-37.7-83.9-83.9s37.7-83.9,83.9-83.9s83.9,37.7,83.9,83.9
						S803.6,792.7,757.4,792.7z M757.4,634.8c-40.8,0-73.9,33.2-73.9,73.9s33.2,73.9,73.9,73.9s73.9-33.2,73.9-73.9
						S798.1,634.8,757.4,634.8z" style="fill:#383A48;"/>
				</g>
			</g>
			<g>
				<g>
					<circle cx="732.1" cy="697.2" r="8.5" style="fill:#383A48;"/>
				</g>
			</g>
			<g>
				<g>
					<circle cx="782.6" cy="697.2" r="8.5" style="fill:#383A48;"/>
				</g>
			</g>
			<g>
				<g>
					<path d="M757.4,746c-12.8,0-24.6-7.5-30-19.2c-1.2-2.5,0-5.5,2.5-6.6s5.5,0,6.6,2.5c3.7,8.1,11.9,13.4,20.9,13.4
						s17.1-5.3,20.9-13.4c1.2-2.5,4.1-3.6,6.6-2.5c2.5,1.2,3.6,4.1,2.5,6.6C782,738.5,770.2,746,757.4,746z" style="fill:#383A48;"/>
				</g>
			</g>
		</g>
		<g>
			<g>
				<g>
					<circle cx="1104" cy="332.6" r="78.9" style="fill:#F6E049;"/>
				</g>
				<g>
					<path d="M1104,416.5c-46.3,0-83.9-37.7-83.9-83.9s37.7-83.9,83.9-83.9s83.9,37.7,83.9,83.9
						S1150.3,416.5,1104,416.5z M1104,258.6c-40.8,0-73.9,33.2-73.9,73.9s33.2,73.9,73.9,73.9c40.8,0,73.9-33.2,73.9-73.9
						S1144.8,258.6,1104,258.6z" style="fill:#383A48;"/>
				</g>
			</g>
			<g>
				<g>
					<circle cx="1078.8" cy="321.1" r="8.5" style="fill:#383A48;"/>
				</g>
			</g>
			<g>
				<g>
					<circle cx="1129.3" cy="321.1" r="8.5" style="fill:#383A48;"/>
				</g>
			</g>
			<g>
				<g>
					<path d="M1104,369.9c-12.8,0-24.6-7.5-30-19.2c-1.2-2.5,0-5.5,2.5-6.6c2.5-1.2,5.5,0,6.6,2.5
						c3.7,8.1,11.9,13.4,20.9,13.4c8.9,0,17.1-5.3,20.9-13.4c1.2-2.5,4.1-3.6,6.6-2.5c2.5,1.2,3.6,4.1,2.5,6.6
						C1128.6,362.3,1116.9,369.9,1104,369.9z" style="fill:#383A48;"/>
				</g>
			</g>
		</g>
		<g>
			<g>
				<g>
					<circle cx="762.4" cy="323.6" r="78.9" style="fill:#F6E049;"/>
				</g>
				<g>
					<path d="M762.4,407.5c-46.3,0-83.9-37.7-83.9-83.9s37.7-83.9,83.9-83.9s83.9,37.7,83.9,83.9
						S808.7,407.5,762.4,407.5z M762.4,249.6c-40.8,0-73.9,33.2-73.9,73.9s33.2,73.9,73.9,73.9s73.9-33.2,73.9-73.9
						S803.1,249.6,762.4,249.6z" style="fill:#383A48;"/>
				</g>
			</g>
			<g>
				<g>
					<circle cx="737.1" cy="312.1" r="8.5" style="fill:#383A48;"/>
				</g>
			</g>
			<g>
				<g>
					<circle cx="787.6" cy="312.1" r="8.5" style="fill:#383A48;"/>
				</g>
			</g>
			<g>
				<g>
					<path d="M762.4,360.9c-12.8,0-24.6-7.5-30-19.2c-1.2-2.5,0-5.5,2.5-6.6s5.5,0,6.6,2.5c3.7,8.1,11.9,13.4,20.9,13.4
						c8.9,0,17.1-5.3,20.9-13.4c1.2-2.5,4.1-3.6,6.6-2.5c2.5,1.2,3.6,4.1,2.5,6.6C787,353.3,775.2,360.9,762.4,360.9z" style="fill:#383A48;"/>
				</g>
			</g>
		</g>
		<g>
			<g>
				<g>
					<circle cx="1104.5" cy="692.7" r="78.9" style="fill:#F6E049;"/>
				</g>
				<g>
					<path d="M1104.5,776.7c-46.3,0-83.9-37.7-83.9-83.9s37.7-83.9,83.9-83.9s83.9,37.7,83.9,83.9
						S1150.8,776.7,1104.5,776.7z M1104.5,618.8c-40.8,0-73.9,33.2-73.9,73.9s33.2,73.9,73.9,73.9c40.8,0,73.9-33.2,73.9-73.9
						S1145.3,618.8,1104.5,618.8z" style="fill:#383A48;"/>
				</g>
			</g>
			<g>
				<g>
					<circle cx="1079.3" cy="681.2" r="8.5" style="fill:#383A48;"/>
				</g>
			</g>
			<g>
				<g>
					<circle cx="1129.8" cy="681.2" r="8.5" style="fill:#383A48;"/>
				</g>
			</g>
			<g>
				<g>
					<path d="M1104.5,730c-12.8,0-24.6-7.5-30-19.2c-1.2-2.5,0-5.5,2.5-6.6c2.5-1.2,5.5,0,6.6,2.5
						c3.7,8.1,11.9,13.4,20.9,13.4s17.1-5.3,20.9-13.4c1.2-2.5,4.1-3.6,6.6-2.5c2.5,1.2,3.6,4.1,2.5,6.6
						C1129.1,722.5,1117.4,730,1104.5,730z" style="fill:#383A48;"/>
				</g>
			</g>
		</g>
		<g>
			<g>
				<circle cx="1104" cy="233.7" r="19.9" style="fill:#383A48;"/>
			</g>
			<g>
				<path d="M1104,258.6c-13.7,0-24.9-11.2-24.9-24.9s11.2-24.9,24.9-24.9s24.9,11.2,24.9,24.9S1117.7,258.6,1104,258.6
					z M1104,218.9c-8.2,0-14.9,6.7-14.9,14.9s6.7,14.9,14.9,14.9c8.2,0,14.9-6.7,14.9-14.9S1112.2,218.9,1104,218.9z" style="fill:#383A48;"/>
			</g>
		</g>
		<g>
			<g>
				<path d="M1104,253.6c0,0,0.6,47-72.6,47.9C1031.4,301.5,1043.1,257.8,1104,253.6z" style="fill:#383A48;"/>
			</g>
			<g>
				<path d="M1024.9,306.6l1.7-6.4c0.1-0.5,3.4-12.3,14.6-24.5c10.2-11.1,29.4-24.9,62.5-27.1l5.3-0.4l0.1,5.3
					c0,0.5,0,13.6-9.9,26.7c-8.9,11.7-27.8,25.8-67.7,26.3L1024.9,306.6z M1098.2,259.2c-38.3,4.6-53.8,26-59.3,37.1
					c24.4-1.5,42.4-9.1,52.3-22C1095.4,268.7,1097.3,263.1,1098.2,259.2z" style="fill:#383A48;"/>
			</g>
		</g>
		<g>
			<g>
				<path d="M1104,253.6c0,0-0.6,47,72.6,47.9C1176.6,301.5,1164.9,257.8,1104,253.6z" style="fill:#383A48;"/>
			</g>
			<g>
				<path d="M1183.2,306.6l-6.6-0.1c-22-0.3-51.5-5.1-67.7-26.3c-9.9-13.1-9.9-26.1-9.9-26.7l0.1-5.3l5.3,0.4
					c33.1,2.3,52.2,16,62.5,27.1c11.2,12.2,14.5,24,14.6,24.5L1183.2,306.6z M1109.7,259.2c2.4,10.9,13,34.2,59.4,37.1
					C1163.6,285.2,1148.1,263.8,1109.7,259.2z" style="fill:#383A48;"/>
			</g>
		</g>
		<g>
			<g>
				<path d="M723.3,254.9c0,0,35.7,28.6,78.1,0C801.4,254.9,766.4,231.6,723.3,254.9z" style="fill:#383A48;"/>
			</g>
			<g>
				<path d="M762.3,272.7c-6.4,0-12.2-0.9-17-2.1c-15.1-3.8-24.7-11.4-25.1-11.7l-5.9-4.7l6.6-3.6
					c45.2-24.5,81.7-0.8,83.2,0.2l6.2,4.1l-6.2,4.2C788.9,269.4,774.4,272.7,762.3,272.7z M733.6,255.5c10.7,5.6,32.3,13,57.6-0.3
					C780.4,250.7,759.1,244.9,733.6,255.5z" style="fill:#383A48;"/>
			</g>
		</g>
		<g>
			<g>
				<path d="M701.5,625.9v27h-27c-14.9,0-27-12.1-27-27l0,0c0-14.9,12.1-27,27-27l0,0C689.5,599,701.5,611,701.5,625.9z
					" style="fill:#383A48;"/>
			</g>
			<g>
				<path d="M701.5,657.9h-27c-17.6,0-32-14.3-32-32s14.3-32,32-32s32,14.3,32,32v27
					C706.5,655.7,704.3,657.9,701.5,657.9z M674.6,604c-12.1,0-22,9.9-22,22s9.9,22,22,22h22v-22C696.5,613.8,686.7,604,674.6,604z" style="fill:#383A48;"/>
			</g>
		</g>
		<g>
			<g>
				<path d="M840.1,652.9h-27v-27c0-14.9,12.1-27,27-27l0,0c14.9,0,27,12.1,27,27l0,0
					C867.1,640.8,855,652.9,840.1,652.9z" style="fill:#383A48;"/>
			</g>
			<g>
				<path d="M840.1,657.9h-27c-2.8,0-5-2.2-5-5v-27c0-17.6,14.3-32,32-32s32,14.3,32,32S857.8,657.9,840.1,657.9z
					 M818.2,647.9h22c12.1,0,22-9.9,22-22s-9.9-22-22-22s-22,9.9-22,22V647.9z" style="fill:#383A48;"/>
			</g>
		</g>
		<g>
			<g>
				<path d="M701.5,652.9h111.6c0,0-18.5-23.1-54.8-23.1C722.1,629.8,701.5,652.9,701.5,652.9z" style="fill:#383A48;"/>
			</g>
			<g>
				<path d="M813.2,657.9H701.5c-2,0-3.8-1.2-4.6-3s-0.5-3.9,0.8-5.4c0.9-1,22.5-24.8,60.6-24.8c38.2,0,57.9,24,58.7,25
					c1.2,1.5,1.4,3.6,0.6,5.3S815.1,657.9,813.2,657.9z M715.3,647.9h84.9c-8.3-6-22.2-13.1-41.9-13.1
					C738.9,634.8,724.3,641.9,715.3,647.9z" style="fill:#383A48;"/>
			</g>
		</g>
	</g>
	<g>
		<path d="M593.6,346.4l68-81.8c14.2-17.1,16.5-40.2,7.8-59.2h-75.8V346.4z" style="fill:#383A48;"/>
		<path d="M593.6,351.4c-0.6,0-1.1-0.1-1.7-0.3c-2-0.7-3.3-2.6-3.3-4.7v-141c0-2.8,2.2-5,5-5h75.8c2,0,3.7,1.1,4.5,2.9
			c9.7,21.2,6.4,46.5-8.5,64.5l-68,81.8C596.5,350.7,595.1,351.4,593.6,351.4z M598.6,210.3v122.2l59.1-71.2
			c11.8-14.2,14.9-33.9,8.4-51L598.6,210.3z" style="fill:#383A48;"/>
	</g>
	<g>
		<path d="M551.1,168.6l-11,13.2L528.4,168c-19.8-23.5-54.9-26.6-78.6-7l0,0c-24,19.9-27.2,55.5-7.1,79.3l98,116.3
			l96.7-116.4c19.8-23.8,16.5-59.2-7.4-79l0,0C606.2,141.6,570.9,144.8,551.1,168.6z" style="fill:#E0719E;"/>
		<path d="M540.6,361.7c-1.5,0-2.9-0.7-3.8-1.8l-98-116.3c-10.6-12.5-15.6-28.5-14.1-44.8s9.2-31.1,21.9-41.6
			c25.7-21.3,64.1-17.9,85.7,7.6l7.8,9.3l7.2-8.7c21.5-25.9,60-29.4,85.9-8c12.6,10.4,20.3,25.1,21.8,41.4s-3.4,32.1-13.8,44.7
			l-96.7,116.4C543.5,361,542.1,361.7,540.6,361.7L540.6,361.7z M485.5,153.2c-11.5,0-23,3.8-32.5,11.7
			c-10.6,8.8-17.1,21.1-18.3,34.8s3,27,11.8,37.5L540.6,349l92.9-111.8c8.7-10.5,12.8-23.8,11.6-37.4s-7.8-25.9-18.3-34.6
			c-21.6-17.9-53.9-14.9-71.8,6.7l-11,13.2c-0.9,1.1-2.3,1.8-3.8,1.8l0,0c-1.5,0-2.9-0.6-3.8-1.8l-11.7-13.8
			C514.5,159.3,500.1,153.2,485.5,153.2z" style="fill:#383A48;"/>
	</g>
	<g>
		<polygon points="1475.2,435 1248.9,918.5 1170.7,918.5 1397.1,435 		" style="fill:#F6E049;"/>
		<path d="M1248.9,923.5h-78.2c-1.7,0-3.3-0.9-4.2-2.3c-0.9-1.4-1-3.3-0.3-4.8l226.3-483.5c0.8-1.8,2.6-2.9,4.5-2.9
			h78.2c1.7,0,3.3,0.9,4.2,2.3c0.9,1.4,1,3.3,0.3,4.8l-226.3,483.5C1252.6,922.3,1250.9,923.5,1248.9,923.5z M1178.6,913.5h67.1
			L1467.4,440h-67.1L1178.6,913.5z" style="fill:#383A48;"/>
	</g>
	<g>
		<polygon points="1619.2,435 1392.9,918.5 1314.7,918.5 1541,435 		" style="fill:#F6E049;"/>
		<path d="M1392.9,923.5h-78.2c-1.7,0-3.3-0.9-4.2-2.3c-0.9-1.4-1-3.3-0.3-4.8l226.3-483.5c0.8-1.8,2.6-2.9,4.5-2.9
			h78.2c1.7,0,3.3,0.9,4.2,2.3c0.9,1.4,1,3.3,0.3,4.8l-226.3,483.5C1396.6,922.3,1394.9,923.5,1392.9,923.5z M1322.6,913.5h67.1
			L1611.4,440h-67.1L1322.6,913.5z" style="fill:#383A48;"/>
	</g>
	<g>
		<path d="M1648.7,205.3v8.8c0,86-69.7,155.7-155.7,155.7s-155.7-69.7-155.7-155.7v-8.8h68.9v6.1
			c0,47.9,38.9,86.8,86.8,86.8s86.8-38.9,86.8-86.8v-6.1H1648.7z" style="fill:#AAC6FC;"/>
		<path d="M1492.9,374.8c-88.6,0-160.7-72.1-160.7-160.7v-8.8c0-2.8,2.2-5,5-5h68.9c2.8,0,5,2.2,5,5v6.1
			c0,45.1,36.7,81.8,81.8,81.8c45.1,0,81.8-36.7,81.8-81.8v-6.1c0-2.8,2.2-5,5-5h68.9c2.8,0,5,2.2,5,5v8.8
			C1653.7,302.7,1581.6,374.8,1492.9,374.8z M1342.2,210.3v3.8c0,83.1,67.6,150.7,150.7,150.7s150.7-67.6,150.7-150.7v-3.8h-58.9
			v1.1c0,50.6-41.2,91.8-91.8,91.8c-50.6,0-91.8-41.2-91.8-91.8v-1.1H1342.2z" style="fill:#383A48;"/>
	</g>
	<g>
		<path d="M350.9,759.3L350.9,759.3c-43.9,0-79.6,35.6-79.6,79.6l0,0c0,43.9,35.6,79.6,79.6,79.6l0,0
			c43.9,0,79.6-35.6,79.6-79.6l0,0C430.5,794.9,394.8,759.3,350.9,759.3z" style="fill:#AAC6FC;"/>
		<path d="M350.9,923.5c-46.6,0-84.6-37.9-84.6-84.6s37.9-84.6,84.6-84.6l0,0c46.6,0,84.6,37.9,84.6,84.6
			S397.5,923.5,350.9,923.5z M350.9,764.3c-41.1,0-74.6,33.5-74.6,74.6s33.4,74.6,74.6,74.6s74.6-33.5,74.6-74.6
			S392,764.3,350.9,764.3z" style="fill:#383A48;"/>
	</g>
	<g>
		<path d="M350.2,659.7c-1.3,0-2.6-0.5-3.5-1.5c-2-2-2-5.1,0-7.1l12.3-12.4c7.2-7.2,7.2-19,0-26.2l-12.3-12.3
			c-11.1-11.1-11.1-29.2,0-40.4l12.3-12.3c3.5-3.5,5.4-8.2,5.4-13.1c0-5-1.9-9.6-5.4-13.1L346.7,509c-5.4-5.4-8.4-12.5-8.4-20.2
			s3-14.8,8.3-20.2l12.3-12.3c3.5-3.5,5.4-8.2,5.4-13.1c0-5-1.9-9.6-5.4-13.1l-13.5-13.5c-2-2-2-5.1,0-7.1s5.1-2,7.1,0L366,423
			c5.4,5.4,8.4,12.5,8.4,20.2c0,7.6-3,14.8-8.3,20.2L353.7,476c-3.5,3.5-5.4,8.2-5.4,13.1c0,5,1.9,9.6,5.4,13.1l12.3,12.3
			c5.4,5.4,8.4,12.5,8.4,20.2c0,7.6-3,14.8-8.3,20.2L353.8,567c-7.2,7.2-7.2,19,0,26.2l12.3,12.3c11.1,11.1,11.1,29.2,0,40.4
			l-12.3,12.4C352.7,659.2,351.5,659.7,350.2,659.7z" style="fill:#383A48;"/>
	</g>
	<g>
		<g>
			<line x1="1602.8" y1="383.6" x2="1635.7" y2="383.6" style="fill:none;"/>
			<rect x="1602.8" y="378.6" width="33" height="10" style="fill:#383A48;"/>
		</g>
		<g>
			<line x1="1619.2" y1="400.1" x2="1619.2" y2="367.1" style="fill:none;"/>
			<rect x="1614.2" y="367.1" width="10" height="33" style="fill:#383A48;"/>
		</g>
	</g>
	<g>
		<g>
			<line x1="334.4" y1="266" x2="367.4" y2="266" style="fill:none;"/>
			<rect x="334.4" y="261" width="33" height="10" style="fill:#383A48;"/>
		</g>
		<g>
			<line x1="350.9" y1="282.5" x2="350.9" y2="249.6" style="fill:none;"/>
			<rect x="345.9" y="249.6" width="10" height="33" style="fill:#383A48;"/>
		</g>
	</g>
	<g>
		<g>
			<rect x="1487.9" y="169.8" width="10" height="71" style="fill:#383A48;"/>
		</g>
		<g>
			<line x1="1457.4" y1="205.3" x2="1528.4" y2="205.3" style="fill:none;"/>
			<rect x="1457.4" y="200.3" width="71" height="10" style="fill:#383A48;"/>
		</g>
		<g>
			<line x1="1467.8" y1="230.4" x2="1518" y2="180.2" style="fill:none;"/>
			
				<rect x="1457.5" y="200.3" transform="matrix(0.7071 -0.7072 0.7072 0.7071 292.1914 1115.8983)" width="71" height="10" style="fill:#383A48;"/>
		</g>
		<g>
			<line x1="1467.8" y1="180.2" x2="1518" y2="230.4" style="fill:none;"/>
			
				<rect x="1487.9" y="169.9" transform="matrix(0.7071 -0.7071 0.7071 0.7071 292.0529 1115.7787)" width="10" height="71" style="fill:#383A48;"/>
		</g>
	</g>
</g>
</svg>
