<?xml version="1.0" encoding="UTF-8"?>
<svg width="1364px" height="840px" viewBox="0 0 1364 840" version="1.1" xmlns="http://www.w3.org/2000/svg" xmlns:xlink="http://www.w3.org/1999/xlink">
    <!-- Generator: Sketch 59.1 (86144) - https://sketch.com -->
    <title>fashion-1</title>
    <desc>Created with Sketch.</desc>
    <g id="Page-1" stroke="none" stroke-width="1" fill="none" fill-rule="evenodd">
        <g id="fashion-1" transform="translate(-278.000000, -106.000000)">
            <g id="Group" transform="translate(278.000000, 105.000000)">
                <path d="M898.5,226.8 L796.2,226.8 L796.2,124.6 C796.2,124.6 795.5,116.3 796.3,114.6 L5.4,114.6 C2.6,114.6 0.4,116.8 0.4,119.6 L0.4,793.2 C0.4,796 2.6,798.2 5.4,798.2 L903.5,798.2 C906.3,798.2 908.5,796 908.5,793.2 L908.5,226.8 C905.1,225.9 898.5,226.8 898.5,226.8 Z M112.7,788.1 L10.4,788.1 L10.4,685.9 L112.7,685.9 L112.7,788.1 Z M112.7,675.9 L10.4,675.9 L10.4,573.6 L112.7,573.6 L112.7,675.9 Z M112.7,563.6 L10.4,563.6 L10.4,461.3 L112.7,461.3 L112.7,563.6 Z M112.7,451.3 L10.4,451.3 L10.4,349.1 L112.7,349.1 L112.7,451.3 Z M112.7,339.1 L10.4,339.1 L10.4,236.8 L112.7,236.8 L112.7,339.1 Z M112.7,226.8 L10.4,226.8 L10.4,124.6 L112.7,124.6 L112.7,226.8 Z M224.9,788.1 L122.7,788.1 L122.7,685.9 L225,685.9 L225,788.1 L224.9,788.1 Z M224.9,675.9 L122.7,675.9 L122.7,573.6 L225,573.6 L225,675.9 L224.9,675.9 Z M224.9,563.6 L122.7,563.6 L122.7,461.3 L225,461.3 L225,563.6 L224.9,563.6 L224.9,563.6 Z M224.9,451.3 L122.7,451.3 L122.7,349.1 L225,349.1 L225,451.3 L224.9,451.3 L224.9,451.3 Z M224.9,339.1 L122.7,339.1 L122.7,236.8 L225,236.8 L225,339.1 L224.9,339.1 Z M224.9,226.8 L122.7,226.8 L122.7,124.6 L225,124.6 L225,226.8 L224.9,226.8 Z M337.2,788.1 L234.9,788.1 L234.9,685.9 L337.2,685.9 L337.2,788.1 L337.2,788.1 Z M337.2,675.9 L234.9,675.9 L234.9,573.6 L337.2,573.6 L337.2,675.9 L337.2,675.9 Z M337.2,563.6 L234.9,563.6 L234.9,461.3 L337.2,461.3 L337.2,563.6 L337.2,563.6 Z M337.2,451.3 L234.9,451.3 L234.9,349.1 L337.2,349.1 L337.2,451.3 L337.2,451.3 Z M337.2,339.1 L234.9,339.1 L234.9,236.8 L337.2,236.8 L337.2,339.1 L337.2,339.1 Z M337.2,226.8 L234.9,226.8 L234.9,124.6 L337.2,124.6 L337.2,226.8 L337.2,226.8 Z M449.4,788.1 L347.2,788.1 L347.2,685.9 L449.5,685.9 L449.4,788.1 L449.4,788.1 Z M449.4,675.9 L347.2,675.9 L347.2,573.6 L449.5,573.6 L449.4,675.9 L449.4,675.9 Z M449.4,563.6 L347.2,563.6 L347.2,461.3 L449.5,461.3 L449.4,563.6 L449.4,563.6 Z M449.4,451.3 L347.2,451.3 L347.2,349.1 L449.5,349.1 L449.4,451.3 L449.4,451.3 Z M449.4,339.1 L347.2,339.1 L347.2,236.8 L449.5,236.8 L449.4,339.1 L449.4,339.1 Z M449.4,226.8 L347.2,226.8 L347.2,124.6 L449.5,124.6 L449.4,226.8 L449.4,226.8 Z M561.7,788.1 L459.4,788.1 L459.4,685.9 L561.7,685.9 L561.7,788.1 L561.7,788.1 Z M561.7,675.9 L459.4,675.9 L459.4,573.6 L561.7,573.6 L561.7,675.9 L561.7,675.9 Z M561.7,563.6 L459.4,563.6 L459.4,461.3 L561.7,461.3 L561.7,563.6 L561.7,563.6 Z M561.7,451.3 L459.4,451.3 L459.4,349.1 L561.7,349.1 L561.7,451.3 L561.7,451.3 Z M561.7,339.1 L459.4,339.1 L459.4,236.8 L561.7,236.8 L561.7,339.1 L561.7,339.1 Z M561.7,226.8 L459.4,226.8 L459.4,124.6 L561.7,124.6 L561.7,226.8 L561.7,226.8 Z M674,788.1 L571.7,788.1 L571.7,685.9 L674,685.9 L674,788.1 Z M674,675.9 L571.7,675.9 L571.7,573.6 L674,573.6 L674,675.9 Z M674,563.6 L571.7,563.6 L571.7,461.3 L674,461.3 L674,563.6 Z M674,451.3 L571.7,451.3 L571.7,349.1 L674,349.1 L674,451.3 Z M674,339.1 L571.7,339.1 L571.7,236.8 L674,236.8 L674,339.1 Z M674,226.8 L571.7,226.8 L571.7,124.6 L674,124.6 L674,226.8 Z M786.2,788.1 L684,788.1 L684,685.9 L786.3,685.9 L786.3,788.1 L786.2,788.1 Z M786.2,675.9 L684,675.9 L684,573.6 L786.3,573.6 L786.3,675.9 L786.2,675.9 Z M786.2,563.6 L684,563.6 L684,461.3 L786.3,461.3 L786.3,563.6 L786.2,563.6 L786.2,563.6 Z M786.2,451.3 L684,451.3 L684,349.1 L786.3,349.1 L786.3,451.3 L786.2,451.3 L786.2,451.3 Z M786.2,339.1 L684,339.1 L684,236.8 L786.3,236.8 L786.3,339.1 L786.2,339.1 Z M786.2,226.8 L684,226.8 L684,124.6 L786.3,124.6 L786.3,226.8 L786.2,226.8 Z M898.5,788.1 L796.2,788.1 L796.2,685.9 L898.5,685.9 L898.5,788.1 Z M898.5,675.9 L796.2,675.9 L796.2,573.6 L898.5,573.6 L898.5,675.9 Z M898.5,563.6 L796.2,563.6 L796.2,461.3 L898.5,461.3 L898.5,563.6 Z M898.5,451.3 L796.2,451.3 L796.2,349.1 L898.5,349.1 L898.5,451.3 Z M898.5,339.1 L796.2,339.1 L796.2,236.8 L898.5,236.8 L898.5,339.1 Z" id="Shape" fill="#D74A83" fill-rule="nonzero"></path>
                <path d="M236.9,118.9 C236.6,116.4 234.5,114.5 231.9,114.5 L5.4,114.5 C2.6,114.5 0.4,116.7 0.4,119.5 L0.4,344.1 C0.4,346.4 2,348.4 4.3,349 C4.7,349.1 5.1,349.1 5.4,349.1 C7.3,349.1 9,348.1 9.9,346.3 C35.7,294.3 63.4,284.8 85.7,277.2 C103.5,271.1 120.4,265.4 128.7,240 C144,193.3 156.3,168 171.2,152.7 C185.8,137.7 203.5,131.4 233.2,124.4 C235.6,123.8 237.2,121.5 236.9,118.9 Z" id="Path" fill="#F3F6E6" fill-rule="nonzero"></path>
                <path d="M1358.6,128.2 C1323.5,128.2 1290.4,141.7 1265.4,166.3 C1240.4,190.9 1226.2,223.7 1225.5,258.8 C1224.6,303.4 1220.5,337.7 1212.8,366.4 C1203.2,401.8 1187.8,430 1165.5,452.4 C1152.7,465.3 1137.3,476.6 1119.8,485.8 C988.1,555.5 952.6,618.7 924.1,669.4 C922.4,672.4 920.7,675.4 919.1,678.3 C902.6,707.2 887.4,730.8 853.9,749.4 C817.5,769.6 761.8,781.9 678.7,788.1 C676,788.3 674,790.6 674.096409,793.3 C674.2,796 676.4,798.1 679.1,798.1 L1358.7,798.1 C1361.5,798.1 1363.7,795.9 1363.7,793.1 L1363.7,133.2 C1363.6,130.5 1361.4,128.2 1358.6,128.2 Z" id="Path" fill="#F3F6E6" fill-rule="nonzero"></path>
                <path d="M1173.7,454.3 C1173.1,452.7 1171.8,451.5 1170.1,451.1 C1168.4,450.7 1166.7,451.2 1165.5,452.5 C1152.7,465.4 1137.3,476.7 1119.8,485.9 C988.1,555.6 952.6,618.8 924.1,669.5 C922.4,672.5 920.7,675.5 919.1,678.4 C918.2,679.9 918.2,681.8 919.1,683.4 C920,685 921.6,685.9 923.4,685.9 L1057.2,685.9 C1057.8,685.9 1058.4,685.8 1059,685.6 C1059.2,685.5 1064.5,683.5 1072.8,679.3 C1079.2,676.1 1085.6,672.5 1091.9,668.5 C1108.7,658 1132.8,640.1 1151.8,614.4 C1173.3,585.3 1184.2,552.5 1184.2,516.7 C1184.1,494.2 1180.7,473.8 1173.7,454.3 Z" id="Path" fill="#383A48" fill-rule="nonzero"></path>
                <g transform="translate(673.000000, 0.000000)">
                    <g transform="translate(0.000000, 221.000000)" fill-rule="nonzero">
                        <path d="M449.1,295.7 C449.1,374.1 395.3,420.8 359.1,443.3 C352,447.7 345.6,451.2 340.4,453.8 C332.2,457.9 327.1,459.8 327.1,459.8 L127.1,459.8 C127.1,459.8 122,457.9 113.8,453.8 C82.2,437.9 5.1,389.4 5.1,295.7 C5.1,225.5 40,183.1 78.1,146.8 C123.4,103.5 173.1,68.8 173.1,5.7 L281.1,5.7 C281.1,121.7 449.1,141.7 449.1,295.7 Z" id="Path" fill="#F3F6E6"></path>
                        <path d="M327.1,464.9 L127.1,464.9 C126.5,464.9 125.9,464.8 125.3,464.6 C125.1,464.5 119.8,462.5 111.5,458.3 C96.6,450.8 68,434.2 43.8,407.3 C14.7,375 0,337.4 0,295.7 C0,224.2 35.8,180.1 74.5,143.2 C81.1,136.8 87.9,130.6 94.5,124.6 C132.3,90 168,57.4 168,5.7 C168,2.9 170.2,0.7 173,0.7 L281,0.7 C283.8,0.7 286,2.9 286,5.7 C286,57.4 321.7,90 359.5,124.6 C403.8,165.1 454,211.1 454,295.7 C454,331.5 443.1,364.4 421.6,393.4 C402.5,419.2 378.5,437 361.7,447.5 C355.4,451.4 348.9,455.1 342.6,458.3 C334.3,462.5 329.1,464.5 328.8,464.6 C328.3,464.8 327.7,464.9 327.1,464.9 Z M128.1,454.9 L326.2,454.9 C327.9,454.2 332.2,452.4 338.2,449.4 C344.3,446.3 350.5,442.9 356.5,439.1 C372.6,429.1 395.6,412 413.7,387.5 C433.9,360.2 444.2,329.3 444.2,295.7 C444.2,215.5 397.8,173 352.9,132 C314.6,97 278.4,63.9 276.3,10.7 L178,10.7 C175.9,63.9 139.6,97 101.4,132 C94.9,138 88.1,144.2 81.5,150.4 C64.7,166.4 45.7,186.2 31.7,211 C17.2,236.7 10.1,264.4 10.1,295.7 C10.1,325.9 20.4,401.2 116.1,449.4 C122,452.4 126.3,454.2 128.1,454.9 Z" id="Shape" fill="#383A48"></path>
                    </g>
                    <g transform="translate(35.000000, 0.000000)">
                        <g fill-rule="nonzero">
                            <path d="M177.1,185.5 L177.1,185.5 C198.4,165.6 199.4,132.1 179.5,110.9 L96.7,22.6 C76.8,1.3 43.3,0.3 22.1,20.2 L22.1,20.2 C0.8,40.1 -0.2,73.6 19.7,94.8 L102.5,183.1 C122.4,204.4 155.8,205.5 177.1,185.5 Z" id="Path" fill="#E0719E"></path>
                            <path d="M141,204.8 C125.6,204.8 110.2,198.7 98.8,186.6 L16,98.3 C-5.8,75.1 -4.6,38.4 18.6,16.6 C41.8,-5.2 78.5,-4 100.3,19.2 L183.1,107.5 C193.7,118.8 199.2,133.5 198.7,148.9 C198.2,164.3 191.7,178.6 180.5,189.2 L180.5,189.2 C169.4,199.6 155.2,204.8 141,204.8 Z M58.2,10.9 C46.5,10.9 34.7,15.2 25.5,23.8 C6.3,41.8 5.3,72.1 23.3,91.4 L106.1,179.7 C124.1,198.9 154.4,199.9 173.7,181.9 L173.7,181.9 C183,173.2 188.4,161.3 188.8,148.6 C189.2,135.8 184.6,123.7 175.9,114.4 L93,26 C83.6,16 70.9,10.9 58.2,10.9 Z" id="Shape" fill="#383A48"></path>
                        </g>
                        <path d="M194.9,225.6 C192.1,225.6 189.9,223.4 189.9,220.6 C189.9,212 186.7,203.7 180.9,197.2 L173.3,188.8 L18.3,23.5 C16.4,21.5 16.5,18.3 18.5,16.4 C20.5,14.5 23.7,14.6 25.6,16.6 L180.6,181.9 L188.2,190.3 C195.7,198.6 199.8,209.2 199.8,220.4 C199.9,223.4 197.7,225.6 194.9,225.6 Z" id="Path" fill="#383A48" fill-rule="nonzero"></path>
                        <g transform="translate(70.000000, 12.000000)" id="Path">
                            <line x1="22.3" y1="5.9" x2="5.2" y2="64.9"></line>
                            <path d="M5.2,69.9 C4.7,69.9 4.3,69.8 3.8,69.7 C1.1,68.9 -0.4,66.2 0.4,63.5 L17.5,4.5 C18.3,1.8 21,0.3 23.7,1.1 C26.4,1.9 27.9,4.6 27.1,7.3 L10,66.3 C9.4,68.4 7.4,69.9 5.2,69.9 Z" fill="#383A48" fill-rule="nonzero"></path>
                        </g>
                        <g transform="translate(105.000000, 50.000000)" id="Path">
                            <line x1="22.4" y1="5.3" x2="5.3" y2="64.3"></line>
                            <path d="M5.3,69.3 C4.8,69.3 4.4,69.2 3.9,69.1 C1.2,68.3 -0.3,65.6 0.5,62.9 L17.6,3.9 C18.4,1.2 21.1,-0.3 23.8,0.5 C26.5,1.3 28,4 27.2,6.7 L10.1,65.7 C9.5,67.9 7.5,69.3 5.3,69.3 Z" fill="#383A48" fill-rule="nonzero"></path>
                        </g>
                        <g transform="translate(140.000000, 87.000000)" id="Path">
                            <line x1="22.5" y1="5.8" x2="5.4" y2="64.7"></line>
                            <path d="M5.4,69.7 C4.9,69.7 4.5,69.6 4,69.5 C1.3,68.7 -0.2,66 0.6,63.3 L17.7,4.3 C18.5,1.6 21.2,0.1 23.9,0.9 C26.6,1.7 28.1,4.4 27.3,7.1 L10.2,66.1 C9.6,68.3 7.6,69.7 5.4,69.7 Z" fill="#383A48" fill-rule="nonzero"></path>
                        </g>
                        <g transform="translate(10.000000, 71.000000)" id="Path">
                            <line x1="5.2" y1="19.1" x2="65.2" y2="5.9"></line>
                            <path d="M5.2,24.1 C2.9,24.1 0.8,22.5 0.3,20.2 C-0.3,17.5 1.4,14.8 4.1,14.2 L64,0.9 C66.7,0.3 69.4,2 70,4.7 C70.6,7.4 68.9,10.1 66.2,10.7 L6.3,24 C5.9,24.1 5.6,24.1 5.2,24.1 Z" fill="#383A48" fill-rule="nonzero"></path>
                        </g>
                        <g transform="translate(45.000000, 109.000000)" id="Path">
                            <line x1="5.3" y1="18.5" x2="65.3" y2="5.3"></line>
                            <path d="M5.3,23.5 C3,23.5 0.9,21.9 0.4,19.6 C-0.2,16.9 1.5,14.2 4.2,13.6 L64.1,0.3 C66.8,-0.3 69.5,1.4 70.1,4.1 C70.7,6.8 69,9.5 66.3,10.1 L6.4,23.4 C6.1,23.5 5.7,23.5 5.3,23.5 Z" fill="#383A48" fill-rule="nonzero"></path>
                        </g>
                        <g transform="translate(80.000000, 146.000000)" id="Path">
                            <line x1="5.4" y1="19" x2="65.4" y2="5.7"></line>
                            <path d="M5.4,24 C3.1,24 1,22.4 0.5,20.1 C-0.1,17.4 1.6,14.7 4.3,14.1 L64.2,0.8 C66.9,0.2 69.6,1.9 70.2,4.6 C70.8,7.3 69.1,10 66.4,10.6 L6.5,23.9 C6.2,24 5.8,24 5.4,24 Z" fill="#383A48" fill-rule="nonzero"></path>
                        </g>
                    </g>
                    <g transform="translate(224.000000, 0.000000)">
                        <g transform="translate(2.000000, 0.000000)" fill-rule="nonzero">
                            <path d="M21.8,185.5 L21.8,185.5 C0.5,165.6 -0.5,132.1 19.4,110.9 L102.2,22.6 C122.1,1.3 155.6,0.3 176.8,20.2 L176.8,20.2 C198.1,40.1 199.1,73.6 179.2,94.8 L96.4,183.1 C76.4,204.4 43,205.5 21.8,185.5 Z" id="Path" fill="#E0719E"></path>
                            <path d="M57.8,204.8 C43.1,204.8 29.1,199.3 18.3,189.2 L18.3,189.2 C7,178.6 0.6,164.3 0.1,148.9 C-0.4,133.5 5.1,118.8 15.7,107.5 L98.5,19.2 C109.1,7.9 123.4,1.5 138.8,1 C154.2,0.5 168.9,6 180.2,16.6 C203.4,38.4 204.6,75.1 182.8,98.3 L100,186.6 C89.4,197.9 75.1,204.3 59.7,204.8 C59.1,204.8 58.5,204.8 57.8,204.8 Z M140.7,10.9 C140.2,10.9 139.7,10.9 139.1,10.9 C126.3,11.3 114.5,16.7 105.8,26 L23,114.3 C14.3,123.6 9.7,135.8 10.1,148.5 C10.5,161.3 15.9,173.1 25.2,181.8 L25.2,181.8 C34.5,190.5 46.7,195.1 59.4,194.7 C72.2,194.3 84,188.9 92.7,179.6 L175.5,91.3 C193.5,72.1 192.6,41.8 173.3,23.7 C164.4,15.5 152.9,10.9 140.7,10.9 Z" id="Shape" fill="#383A48"></path>
                        </g>
                        <path d="M5.9,225.6 C3.1,225.6 0.9,223.4 0.9,220.6 L0.9,220.3 C0.9,209.4 4.9,198.9 12.3,190.8 L20.1,182.2 L175.2,16.8 C177.1,14.8 180.3,14.7 182.3,16.6 C184.3,18.5 184.4,21.7 182.5,23.7 L27.5,189 L19.8,197.5 C14.1,203.8 11,211.9 11,220.3 L11,220.6 C10.9,223.4 8.7,225.6 5.9,225.6 Z" id="Path" fill="#383A48" fill-rule="nonzero"></path>
                        <g transform="translate(103.000000, 12.000000)" id="Path">
                            <line x1="5.6" y1="5.9" x2="22.7" y2="64.9"></line>
                            <path d="M22.7,69.9 C20.5,69.9 18.5,68.5 17.9,66.3 L0.8,7.3 C2.27262653e-13,4.6 1.6,1.9 4.2,1.1 C6.9,0.3 9.6,1.9 10.4,4.5 L27.5,63.5 C28.3,66.2 26.7,68.9 24.1,69.7 C23.6,69.8 23.1,69.9 22.7,69.9 Z" fill="#383A48" fill-rule="nonzero"></path>
                        </g>
                        <g transform="translate(68.000000, 50.000000)" id="Path">
                            <line x1="5.5" y1="5.3" x2="22.6" y2="64.3"></line>
                            <path d="M22.6,69.3 C20.4,69.3 18.4,67.9 17.8,65.7 L0.7,6.7 C-0.1,4 1.5,1.3 4.1,0.5 C6.8,-0.3 9.5,1.3 10.3,3.9 L27.4,62.9 C28.2,65.6 26.6,68.3 24,69.1 C23.5,69.2 23,69.3 22.6,69.3 Z" fill="#383A48" fill-rule="nonzero"></path>
                        </g>
                        <g transform="translate(33.000000, 87.000000)" id="Path">
                            <line x1="5.4" y1="5.8" x2="22.5" y2="64.7"></line>
                            <path d="M22.5,69.7 C20.3,69.7 18.3,68.3 17.7,66.1 L0.6,7.1 C-0.2,4.4 1.4,1.7 4,0.9 C6.7,0.1 9.4,1.7 10.2,4.3 L27.3,63.3 C28.1,66 26.5,68.7 23.9,69.5 C23.4,69.7 22.9,69.7 22.5,69.7 Z" fill="#383A48" fill-rule="nonzero"></path>
                        </g>
                        <g transform="translate(120.000000, 71.000000)" id="Path">
                            <line x1="65.6" y1="19.1" x2="5.7" y2="5.9"></line>
                            <path d="M65.6,24.1 C65.2,24.1 64.9,24.1 64.5,24 L4.6,10.7 C1.9,10.1 0.2,7.4 0.8,4.7 C1.4,2 4.1,0.3 6.8,0.9 L66.7,14.2 C69.4,14.8 71.1,17.5 70.5,20.2 C70,22.5 67.9,24.1 65.6,24.1 Z" fill="#383A48" fill-rule="nonzero"></path>
                        </g>
                        <g transform="translate(85.000000, 109.000000)" id="Path">
                            <line x1="65.5" y1="18.5" x2="5.6" y2="5.3"></line>
                            <path d="M65.5,23.5 C65.1,23.5 64.8,23.5 64.4,23.4 L4.4,10.1 C1.7,9.5 0,6.8 0.6,4.1 C1.2,1.4 3.9,-0.3 6.6,0.3 L66.6,13.6 C69.3,14.2 71,16.9 70.4,19.6 C69.9,22 67.8,23.5 65.5,23.5 Z" fill="#383A48" fill-rule="nonzero"></path>
                        </g>
                        <g transform="translate(50.000000, 146.000000)" id="Path">
                            <line x1="65.4" y1="19" x2="5.5" y2="5.7"></line>
                            <path d="M65.4,24 C65,24 64.7,24 64.3,23.9 L4.3,10.6 C1.6,10 -0.1,7.3 0.5,4.6 C1.1,1.9 3.8,0.2 6.5,0.8 L66.5,14.1 C69.2,14.7 70.9,17.4 70.3,20.1 C69.8,22.4 67.7,24 65.4,24 Z" fill="#383A48" fill-rule="nonzero"></path>
                        </g>
                    </g>
                    <path d="M368.4,369.1 L84.7,369.1 C81.9,369.1 79.7,366.9 79.7,364.1 C79.7,361.3 81.9,359.1 84.7,359.1 L368.4,359.1 C371.2,359.1 373.4,361.3 373.4,364.1 C373.4,366.9 371.1,369.1 368.4,369.1 Z" id="Path" fill="#383A48" fill-rule="nonzero"></path>
                </g>
                <g transform="translate(728.000000, 382.000000)" fill="#383A48" fill-rule="nonzero" id="Oval">
                    <circle cx="276.6" cy="227.7" r="5"></circle>
                    <circle cx="276.6" cy="252.4" r="5"></circle>
                    <circle cx="276.6" cy="277.1" r="5"></circle>
                    <circle cx="251.9" cy="178.4" r="5"></circle>
                    <circle cx="251.9" cy="203.1" r="5"></circle>
                    <circle cx="251.9" cy="227.7" r="5"></circle>
                    <circle cx="251.9" cy="252.4" r="5"></circle>
                    <circle cx="251.9" cy="277.1" r="5"></circle>
                    <circle cx="227.2" cy="129.1" r="5"></circle>
                    <circle cx="227.2" cy="153.7" r="5"></circle>
                    <circle cx="227.2" cy="178.4" r="5"></circle>
                    <circle cx="227.2" cy="203.1" r="5"></circle>
                    <circle cx="227.2" cy="227.7" r="5"></circle>
                    <circle cx="227.2" cy="252.4" r="5"></circle>
                    <circle cx="227.2" cy="277.1" r="5"></circle>
                    <circle cx="202.6" cy="79.7" r="5"></circle>
                    <circle cx="202.6" cy="104.4" r="5"></circle>
                    <circle cx="202.6" cy="129.1" r="5"></circle>
                    <circle cx="202.6" cy="153.7" r="5"></circle>
                    <circle cx="202.6" cy="178.4" r="5"></circle>
                    <circle cx="202.6" cy="203.1" r="5"></circle>
                    <circle cx="202.6" cy="227.7" r="5"></circle>
                    <circle cx="202.6" cy="252.4" r="5"></circle>
                    <circle cx="202.6" cy="277.1" r="5"></circle>
                    <circle cx="177.9" cy="55.1" r="5"></circle>
                    <circle cx="177.9" cy="79.7" r="5"></circle>
                    <circle cx="177.9" cy="104.4" r="5"></circle>
                    <circle cx="177.9" cy="129.1" r="5"></circle>
                    <circle cx="177.9" cy="153.7" r="5"></circle>
                    <circle cx="177.9" cy="178.4" r="5"></circle>
                    <circle cx="177.9" cy="203.1" r="5"></circle>
                    <circle cx="177.9" cy="227.7" r="5"></circle>
                    <circle cx="177.9" cy="252.4" r="5"></circle>
                    <circle cx="177.9" cy="277.1" r="5"></circle>
                    <circle cx="153.2" cy="30.4" r="5"></circle>
                    <circle cx="153.2" cy="55.1" r="5"></circle>
                    <circle cx="153.2" cy="79.7" r="5"></circle>
                    <circle cx="153.2" cy="104.4" r="5"></circle>
                    <circle cx="153.2" cy="129.1" r="5"></circle>
                    <circle cx="153.2" cy="153.7" r="5"></circle>
                    <circle cx="153.2" cy="178.4" r="5"></circle>
                    <circle cx="153.2" cy="203.1" r="5"></circle>
                    <circle cx="153.2" cy="227.7" r="5"></circle>
                    <circle cx="153.2" cy="252.4" r="5"></circle>
                    <circle cx="153.2" cy="277.1" r="5"></circle>
                    <circle cx="128.6" cy="5.7" r="5"></circle>
                    <circle cx="128.6" cy="30.4" r="5"></circle>
                    <circle cx="128.6" cy="55.1" r="5"></circle>
                    <circle cx="128.6" cy="79.7" r="5"></circle>
                    <circle cx="128.6" cy="104.4" r="5"></circle>
                    <circle cx="128.6" cy="129.1" r="5"></circle>
                    <circle cx="128.6" cy="153.7" r="5"></circle>
                    <circle cx="128.6" cy="178.4" r="5"></circle>
                    <circle cx="128.6" cy="203.1" r="5"></circle>
                    <circle cx="128.6" cy="227.7" r="5"></circle>
                    <circle cx="128.6" cy="252.4" r="5"></circle>
                    <circle cx="128.6" cy="277.1" r="5"></circle>
                    <circle cx="103.9" cy="5.7" r="5"></circle>
                    <circle cx="103.9" cy="30.4" r="5"></circle>
                    <circle cx="103.9" cy="55.1" r="5"></circle>
                    <circle cx="103.9" cy="79.7" r="5"></circle>
                    <circle cx="103.9" cy="104.4" r="5"></circle>
                    <circle cx="103.9" cy="129.1" r="5"></circle>
                    <circle cx="103.9" cy="153.7" r="5"></circle>
                    <circle cx="103.9" cy="178.4" r="5"></circle>
                    <circle cx="103.9" cy="203.1" r="5"></circle>
                    <circle cx="103.9" cy="227.7" r="5"></circle>
                    <circle cx="103.9" cy="252.4" r="5"></circle>
                    <circle cx="103.9" cy="277.1" r="5"></circle>
                    <circle cx="79.2" cy="5.7" r="5"></circle>
                    <circle cx="79.2" cy="30.4" r="5"></circle>
                    <circle cx="79.2" cy="55.1" r="5"></circle>
                    <circle cx="79.2" cy="79.7" r="5"></circle>
                    <circle cx="79.2" cy="104.4" r="5"></circle>
                    <circle cx="79.2" cy="129.1" r="5"></circle>
                    <circle cx="79.2" cy="153.7" r="5"></circle>
                    <circle cx="79.2" cy="178.4" r="5"></circle>
                    <circle cx="79.2" cy="203.1" r="5"></circle>
                    <circle cx="79.2" cy="227.7" r="5"></circle>
                    <circle cx="79.2" cy="252.4" r="5"></circle>
                    <circle cx="79.2" cy="277.1" r="5"></circle>
                    <circle cx="54.6" cy="5.7" r="5"></circle>
                    <circle cx="54.6" cy="30.4" r="5"></circle>
                    <circle cx="54.6" cy="55.1" r="5"></circle>
                    <circle cx="54.6" cy="79.7" r="5"></circle>
                    <circle cx="54.6" cy="104.4" r="5"></circle>
                    <circle cx="54.6" cy="129.1" r="5"></circle>
                    <circle cx="54.6" cy="153.7" r="5"></circle>
                    <circle cx="54.6" cy="178.4" r="5"></circle>
                    <circle cx="54.6" cy="203.1" r="5"></circle>
                    <circle cx="54.6" cy="227.7" r="5"></circle>
                    <circle cx="54.6" cy="252.4" r="5"></circle>
                    <circle cx="54.6" cy="277.1" r="5"></circle>
                    <circle cx="29.9" cy="5.7" r="5"></circle>
                    <circle cx="29.9" cy="30.4" r="5"></circle>
                    <circle cx="29.9" cy="55.1" r="5"></circle>
                    <circle cx="29.9" cy="79.7" r="5"></circle>
                    <circle cx="29.9" cy="104.4" r="5"></circle>
                    <circle cx="29.9" cy="129.1" r="5"></circle>
                    <circle cx="29.9" cy="153.7" r="5"></circle>
                    <circle cx="29.9" cy="178.4" r="5"></circle>
                    <circle cx="29.9" cy="203.1" r="5"></circle>
                    <circle cx="29.9" cy="227.7" r="5"></circle>
                    <circle cx="29.9" cy="252.4" r="5"></circle>
                    <circle cx="29.9" cy="277.1" r="5"></circle>
                    <circle cx="5.2" cy="30.4" r="5"></circle>
                    <circle cx="5.2" cy="55.1" r="5"></circle>
                    <circle cx="5.2" cy="79.7" r="5"></circle>
                    <circle cx="5.2" cy="104.4" r="5"></circle>
                    <circle cx="5.2" cy="129.1" r="5"></circle>
                    <circle cx="5.2" cy="153.7" r="5"></circle>
                    <circle cx="5.2" cy="178.4" r="5"></circle>
                    <circle cx="5.2" cy="203.1" r="5"></circle>
                    <circle cx="5.2" cy="227.7" r="5"></circle>
                    <circle cx="5.2" cy="252.4" r="5"></circle>
                </g>
                <g transform="translate(227.000000, 114.000000)" fill-rule="nonzero">
                    <path d="M741.9,560.8 L231.7,560.8 L128.3,164.3 C127,159.3 124.1,155 120.2,152 C116.3,149 111.4,147.2 106.2,147.2 C93.9,147.2 83.8,157 83.3,169.3 L69.7,560.8 L5,560.8 L5,5.5 L280.9,5.5 L385,219 C398.2,246 418.5,268.1 443,283.5 C467.5,298.8 496.3,307.4 526.4,307.4 C588.4,307.4 644.6,343.8 670,400.4 L741.9,560.8 Z" id="Path" fill="#AAC6FC"></path>
                    <path d="M741.9,565.8 L231.7,565.8 C229.4,565.8 227.4,564.3 226.9,562.1 L123.5,165.6 C122.5,161.7 120.3,158.4 117.1,156 C114,153.6 110.1,152.3 106.2,152.3 C96.5,152.3 88.7,159.9 88.3,169.6 L74.7,561 C74.6,563.7 72.4,565.8 69.7,565.8 L5,565.8 C2.2,565.8 0,563.6 0,560.8 L0,5.5 C0,2.7 2.2,0.5 5,0.5 L280.9,0.5 C282.8,0.5 284.6,1.6 285.4,3.3 L389.5,216.8 C402,242.5 421.5,264.1 445.7,279.2 C469.9,294.4 497.9,302.4 526.5,302.4 C590.4,302.4 648.5,340.1 674.7,398.4 L746.6,558.8 C747.3,560.3 747.2,562.1 746.2,563.6 C745.2,565 743.6,565.8 741.9,565.8 Z M235.6,555.8 L734.2,555.8 L665.5,402.5 C641,347.8 586.4,312.5 526.5,312.5 C496,312.5 466.3,304 440.5,287.8 C414.7,271.7 394,248.7 380.6,221.3 L277.7,10.5 L10,10.5 L10,555.8 L65,555.8 L78.4,169.1 C78.9,154 91.2,142.2 106.3,142.2 C112.4,142.2 118.5,144.3 123.3,148 C128.2,151.8 131.7,157 133.2,163 L235.6,555.8 Z" id="Shape" fill="#383A48"></path>
                    <circle id="Oval" fill="#383A48" cx="257.1" cy="83.6" r="15.1"></circle>
                    <circle id="Oval" fill="#383A48" cx="287.4" cy="139.6" r="15.1"></circle>
                    <circle id="Oval" fill="#383A48" cx="317.7" cy="195.6" r="15.1"></circle>
                    <path d="M746.5,564.9 L707.5,471.8 C706.7,469.9 704.9,468.7 702.9,468.7 L209,468.7 C207.5,468.7 206,469.4 205.1,470.6 C204.2,471.8 203.8,473.4 204.2,474.9 L226.9,568 C227.4,570.2 229.5,571.8 231.8,571.8 L742,571.8 C743.7,571.8 745.2,571 746.2,569.6 C747.2,568.2 747.2,566.5 746.5,564.9 Z" id="Path" fill="#383A48"></path>
                    <g transform="translate(34.000000, 142.000000)">
                        <path d="M72.2,5.2 C59.9,5.2 49.8,15 49.3,27.3 L35.7,418.8 L5.5,415.3 L5.5,49.3 C5.5,25 25.2,5.2 49.6,5.2 L72.2,5.2 L72.2,5.2 Z" id="Path" fill="#E0719E"></path>
                        <path d="M35.7,423.8 C35.5,423.8 35.3,423.8 35.1,423.8 L4.9,420.3 C2.4,420 0.5,417.9 0.5,415.3 L0.5,49.3 C0.5,22.2 22.5,0.2 49.6,0.2 L72.1,0.2 C74.9,0.2 77.1,2.4 77.1,5.2 C77.1,8 74.9,10.2 72.1,10.2 C62.4,10.2 54.6,17.8 54.2,27.5 L40.7,419 C40.7,420.4 40,421.7 39,422.6 C38.1,423.4 36.9,423.8 35.7,423.8 Z M10.6,410.9 L31,413.2 L44.4,27.1 C44.6,20.6 47,14.8 50.8,10.2 L49.7,10.2 C28.2,10.2 10.6,27.7 10.6,49.3 L10.6,410.9 L10.6,410.9 Z" id="Shape" fill="#383A48"></path>
                    </g>
                    <path d="M76.5,470.3 C75.6,469.3 74.3,468.8 72.9,468.8 L5,468.8 C2.2,468.8 0,471 0,473.8 L0,566.9 C0,569.7 2.2,571.9 5,571.9 L69.8,571.9 C72.5,571.9 74.7,569.8 74.8,567.1 L77.9,474 C77.9,472.6 77.4,471.3 76.5,470.3 Z" id="Path" fill="#383A48"></path>
                </g>
                <path d="M502.8,685.9 L152.9,685.9 C150.1,685.9 147.9,683.7 147.9,680.9 C147.9,678.1 150.1,675.9 152.9,675.9 L502.8,675.9 C505.6,675.9 507.8,678.1 507.8,680.9 C507.8,683.7 505.6,685.9 502.8,685.9 Z" id="Path" fill="#383A48" fill-rule="nonzero"></path>
                <path d="M106.9,221.5 L226.9,341.5 L226.9,388.4 L83.4,244.9 C81.5,242.9 81.5,239.8 83.4,237.8 L99.8,221.4 C100.7,220.5 102,219.9 103.3,219.9 C104.7,220 105.9,220.5 106.9,221.5 Z" id="Path" fill="#F6E049" fill-rule="nonzero"></path>
                <path d="M592.9,714.5 L576.5,730.9 C575.6,731.8 574.3,732.4 573,732.4 C571.7,732.4 570.4,731.9 569.5,730.9 L308.9,470.4 L310.3,424.9 L592.8,707.4 C594.8,709.4 594.8,712.5 592.9,714.5 Z" id="Path" fill="#F6E049" fill-rule="nonzero"></path>
                <polygon id="Path" fill="#383A48" fill-rule="nonzero" points="332.2 493.7 340.4 455 310.3 424.9 308.9 470.4"></polygon>
                <g transform="translate(0.000000, 339.000000)" fill-rule="nonzero">
                    <path d="M15.8,127.5 L15.8,127.5 C1.9,113.6 1.9,91 15.8,77 L77.3,15.5 C91.2,1.6 113.8,1.6 127.8,15.5 L127.8,15.5 C141.7,29.4 141.7,52 127.8,66 L66.3,127.5 C52.4,141.5 29.8,141.5 15.8,127.5 Z" id="Path" fill="#F3F6E6"></path>
                    <path d="M41.1,143 C30.7,143 20.3,139 12.3,131.1 L12.3,131.1 C-3.6,115.2 -3.6,89.4 12.3,73.6 L73.8,12.1 C81.5,4.4 91.7,0.2 102.6,0.2 C113.5,0.2 123.7,4.4 131.4,12.1 C147.3,28 147.3,53.8 131.4,69.6 L69.9,131.1 C61.9,139 51.5,143 41.1,143 Z M19.4,124 C31.4,136 50.8,136 62.8,124 L124.3,62.5 C136.3,50.5 136.3,31.1 124.3,19.1 C118.5,13.3 110.8,10.1 102.6,10.1 C94.4,10.1 86.7,13.3 80.9,19.1 L19.4,80.6 C13.6,86.4 10.4,94.1 10.4,102.3 C10.4,110.5 13.6,118.2 19.4,124 L19.4,124 Z" id="Shape" fill="#383A48"></path>
                </g>
                <g transform="translate(0.000000, 391.000000)" fill-rule="nonzero">
                    <path d="M15.8,127.5 L15.8,127.5 C1.9,113.6 1.9,91 15.8,77 L77.3,15.5 C91.2,1.6 113.8,1.6 127.8,15.5 L127.8,15.5 C141.7,29.4 141.7,52 127.8,66 L66.3,127.5 C52.4,141.5 29.8,141.5 15.8,127.5 Z" id="Path" fill="#7FD6C2"></path>
                    <path d="M41.1,143 C30.7,143 20.3,139 12.3,131.1 L12.3,131.1 C-3.6,115.2 -3.6,89.4 12.3,73.6 L73.8,12.1 C81.5,4.4 91.7,0.2 102.6,0.2 C113.5,0.2 123.7,4.4 131.4,12.1 C147.3,28 147.3,53.8 131.4,69.6 L69.9,131.1 C61.9,139 51.5,143 41.1,143 Z M19.4,124 C31.4,136 50.8,136 62.8,124 L124.3,62.5 C136.3,50.5 136.3,31.1 124.3,19.1 C118.5,13.3 110.8,10.1 102.6,10.1 C94.4,10.1 86.7,13.3 80.9,19.1 L19.4,80.6 C13.6,86.4 10.4,94.1 10.4,102.3 C10.4,110.5 13.6,118.2 19.4,124 L19.4,124 Z" id="Shape" fill="#383A48"></path>
                </g>
                <g transform="translate(0.000000, 443.000000)" fill-rule="nonzero">
                    <path d="M15.8,127.5 L15.8,127.5 C1.9,113.6 1.9,91 15.8,77 L77.3,15.5 C91.2,1.6 113.8,1.6 127.8,15.5 L127.8,15.5 C141.7,29.4 141.7,52 127.8,66 L66.3,127.5 C52.4,141.5 29.8,141.5 15.8,127.5 Z" id="Path" fill="#F6E049"></path>
                    <path d="M41.1,143 C30.7,143 20.3,139 12.3,131.1 L12.3,131.1 C-3.6,115.2 -3.6,89.4 12.3,73.6 L73.8,12.1 C81.5,4.4 91.7,0.2 102.6,0.2 C113.5,0.2 123.7,4.4 131.4,12.1 C147.3,28 147.3,53.8 131.4,69.6 L69.9,131.1 C61.9,139 51.5,143 41.1,143 Z M19.4,124 C31.4,136 50.8,136 62.8,124 L124.3,62.5 C136.3,50.5 136.3,31.1 124.3,19.1 C118.5,13.3 110.8,10.1 102.6,10.1 C94.4,10.1 86.7,13.3 80.9,19.1 L19.4,80.6 C13.6,86.4 10.4,94.1 10.4,102.3 C10.4,110.5 13.6,118.2 19.4,124 L19.4,124 Z" id="Shape" fill="#383A48"></path>
                </g>
                <g transform="translate(0.000000, 495.000000)" fill-rule="nonzero">
                    <path d="M15.8,127.5 L15.8,127.5 C1.9,113.6 1.9,91 15.8,77 L77.3,15.5 C91.2,1.6 113.8,1.6 127.8,15.5 L127.8,15.5 C141.7,29.4 141.7,52 127.8,66 L66.3,127.5 C52.4,141.5 29.8,141.5 15.8,127.5 Z" id="Path" fill="#E0719E"></path>
                    <path d="M41.1,143 C30.7,143 20.3,139 12.3,131.1 L12.3,131.1 C-3.6,115.2 -3.6,89.4 12.3,73.6 L73.8,12.1 C81.5,4.4 91.7,0.2 102.6,0.2 C113.5,0.2 123.7,4.4 131.4,12.1 C147.3,28 147.3,53.8 131.4,69.6 L69.9,131.1 C61.9,139 51.5,143 41.1,143 Z M19.4,124 C31.4,136 50.8,136 62.8,124 L124.3,62.5 C136.3,50.5 136.3,31.1 124.3,19.1 C118.5,13.3 110.8,10.1 102.6,10.1 C94.4,10.1 86.7,13.3 80.9,19.1 L19.4,80.6 C13.6,86.4 10.4,94.1 10.4,102.3 C10.4,110.5 13.6,118.2 19.4,124 L19.4,124 Z" id="Shape" fill="#383A48"></path>
                </g>
                <path d="M131.4,559 C123.7,551.3 113.5,547.1 102.6,547.1 C91.7,547.1 81.5,551.3 73.8,559 L12.3,620.5 C-3.6,636.4 -3.6,662.2 12.3,678 C20.2,685.9 30.6,689.9 41.1,689.9 C51.5,689.9 61.9,685.9 69.9,678 L131.4,616.5 C147.2,600.7 147.2,574.9 131.4,559 Z" id="Path" fill="#383A48" fill-rule="nonzero"></path>
                <g transform="translate(1069.000000, 172.000000)" fill="#F3F6E6" fill-rule="nonzero" id="Path">
                    <path d="M48.7,29.3 C45.9,29.3 43.7,27.1 43.7,24.3 L43.7,5.5 C43.7,2.7 45.9,0.5 48.7,0.5 C51.5,0.5 53.7,2.7 53.7,5.5 L53.7,24.3 C53.7,27.1 51.5,29.3 48.7,29.3 Z"></path>
                    <path d="M48.7,96.7 C45.9,96.7 43.7,94.5 43.7,91.7 L43.7,72.9 C43.7,70.1 45.9,67.9 48.7,67.9 C51.5,67.9 53.7,70.1 53.7,72.9 L53.7,91.7 C53.7,94.4 51.5,96.7 48.7,96.7 Z"></path>
                    <path d="M24.4,53.6 L5.6,53.6 C2.8,53.6 0.6,51.4 0.6,48.6 C0.6,45.8 2.8,43.6 5.6,43.6 L24.4,43.6 C27.2,43.6 29.4,45.8 29.4,48.6 C29.4,51.4 27.2,53.6 24.4,53.6 Z"></path>
                    <path d="M91.8,53.6 L73,53.6 C70.2,53.6 68,51.4 68,48.6 C68,45.8 70.2,43.6 73,43.6 L91.8,43.6 C94.6,43.6 96.8,45.8 96.8,48.6 C96.8,51.4 94.5,53.6 91.8,53.6 Z"></path>
                    <path d="M31.5,36.4 C30.2,36.4 28.9,35.9 28,34.9 L14.7,21.6 C12.7,19.6 12.7,16.5 14.7,14.5 C16.7,12.5 19.8,12.5 21.8,14.5 L35.1,27.8 C37.1,29.8 37.1,32.9 35.1,34.9 C34.1,36 32.8,36.4 31.5,36.4 Z"></path>
                    <path d="M79.1,84.1 C77.8,84.1 76.5,83.6 75.6,82.6 L62.3,69.3 C60.3,67.3 60.3,64.2 62.3,62.2 C64.3,60.2 67.4,60.2 69.4,62.2 L82.7,75.5 C84.7,77.5 84.7,80.6 82.7,82.6 C81.7,83.6 80.4,84.1 79.1,84.1 Z"></path>
                    <path d="M18.3,84.1 C17,84.1 15.7,83.6 14.8,82.6 C12.8,80.6 12.8,77.5 14.8,75.5 L28.1,62.2 C30.1,60.2 33.2,60.2 35.2,62.2 C37.2,64.2 37.2,67.3 35.2,69.3 L21.9,82.6 C20.8,83.6 19.5,84.1 18.3,84.1 Z"></path>
                    <path d="M65.9,36.4 C64.6,36.4 63.3,35.9 62.4,34.9 C60.4,32.9 60.4,29.8 62.4,27.8 L75.7,14.5 C77.7,12.5 80.8,12.5 82.8,14.5 C84.8,16.5 84.8,19.6 82.8,21.6 L69.5,34.9 C68.4,36 67.1,36.4 65.9,36.4 Z"></path>
                </g>
                <g transform="translate(125.000000, 744.000000)" fill="#F3F6E6" fill-rule="nonzero" id="Path">
                    <path d="M48.8,29.3 C46,29.3 43.8,27.1 43.8,24.3 L43.8,5.5 C43.8,2.7 46,0.5 48.8,0.5 C51.6,0.5 53.8,2.7 53.8,5.5 L53.8,24.3 C53.8,27 51.5,29.3 48.8,29.3 Z"></path>
                    <path d="M48.8,96.6 C46,96.6 43.8,94.4 43.8,91.6 L43.8,72.8 C43.8,70 46,67.8 48.8,67.8 C51.6,67.8 53.8,70 53.8,72.8 L53.8,91.6 C53.8,94.4 51.5,96.6 48.8,96.6 Z"></path>
                    <path d="M24.5,53.6 L5.7,53.6 C2.9,53.6 0.7,51.4 0.7,48.6 C0.7,45.8 2.9,43.6 5.7,43.6 L24.5,43.6 C27.3,43.6 29.5,45.8 29.5,48.6 C29.5,51.4 27.3,53.6 24.5,53.6 Z"></path>
                    <path d="M91.8,53.6 L73,53.6 C70.2,53.6 68,51.4 68,48.6 C68,45.8 70.2,43.6 73,43.6 L91.8,43.6 C94.6,43.6 96.8,45.8 96.8,48.6 C96.8,51.4 94.6,53.6 91.8,53.6 Z"></path>
                    <path d="M31.6,36.4 C30.3,36.4 29,35.9 28.1,34.9 L14.8,21.6 C12.8,19.6 12.8,16.5 14.8,14.5 C16.8,12.5 19.9,12.5 21.9,14.5 L35.2,27.8 C37.2,29.8 37.2,32.9 35.2,34.9 C34.2,35.9 32.9,36.4 31.6,36.4 Z"></path>
                    <path d="M79.2,84 C77.9,84 76.6,83.5 75.7,82.5 L62.4,69.2 C60.4,67.2 60.4,64.1 62.4,62.1 C64.4,60.1 67.5,60.1 69.5,62.1 L82.8,75.4 C84.8,77.4 84.8,80.5 82.8,82.5 C81.8,83.5 80.5,84 79.2,84 Z"></path>
                    <path d="M18.3,84 C17,84 15.7,83.5 14.8,82.5 C12.8,80.5 12.8,77.4 14.8,75.4 L28.1,62.1 C30.1,60.1 33.2,60.1 35.2,62.1 C37.2,64.1 37.2,67.2 35.2,69.2 L21.9,82.5 C20.9,83.5 19.6,84 18.3,84 Z"></path>
                    <path d="M66,36.4 C64.7,36.4 63.4,35.9 62.5,34.9 C60.5,32.9 60.5,29.8 62.5,27.8 L75.8,14.5 C77.8,12.5 80.9,12.5 82.9,14.5 C84.9,16.5 84.9,19.6 82.9,21.6 L69.6,34.9 C68.5,35.9 67.2,36.4 66,36.4 Z"></path>
                </g>
                <g transform="translate(606.000000, 163.000000)">
                    <g>
                        <line x1="3.8" y1="27.4" x2="27.1" y2="4.1" id="Path"></line>
                        <rect id="Rectangle" fill="#383A48" fill-rule="nonzero" transform="translate(15.526570, 15.604560) rotate(-45.004051) translate(-15.526570, -15.604560) " x="-0.974438532" y="10.6042544" width="33.0020171" height="10.0006112"></rect>
                    </g>
                    <g>
                        <line x1="27.1" y1="27.4" x2="3.8" y2="4.1" id="Path"></line>
                        <rect id="Rectangle" fill="#383A48" fill-rule="nonzero" transform="translate(15.498320, 15.674420) rotate(-45.000000) translate(-15.498320, -15.674420) " x="10.498368" y="-0.825421764" width="9.9999041" height="32.9996835"></rect>
                    </g>
                </g>
                <path d="M1358.6,627.2 L1349.4,627.2 C1263,627.2 1192.7,697.5 1192.7,783.9 L1192.7,793.1 C1192.7,795.9 1194.9,798.1 1197.7,798.1 L1358.6,798.1 C1361.4,798.1 1363.6,795.9 1363.6,793.1 L1363.6,632.2 C1363.6,629.5 1361.4,627.2 1358.6,627.2 Z" id="Path" fill="#F6E049" fill-rule="nonzero"></path>
                <g transform="translate(1174.000000, 359.000000)" id="Path">
                    <line x1="5.1" y1="5.1" x2="104.1" y2="104.1"></line>
                    <path d="M104.1,109.1 C102.8,109.1 101.5,108.6 100.6,107.6 L1.6,8.6 C-0.4,6.6 -0.4,3.5 1.6,1.5 C3.6,-0.5 6.7,-0.5 8.7,1.5 L107.7,100.5 C109.7,102.5 109.7,105.6 107.7,107.6 C106.7,108.6 105.4,109.1 104.1,109.1 Z" fill="#383A48" fill-rule="nonzero"></path>
                </g>
            </g>
        </g>
    </g>
</svg>