<svg xmlns="http://www.w3.org/2000/svg" xmlns:xlink="http://www.w3.org/1999/xlink" width="1454" height="758" version="1.1" viewBox="0 0 1454 758"><title>fashion-making</title><desc>Created with Sketch.</desc><g id="Page-1" fill="none" fill-rule="evenodd" stroke="none" stroke-width="1"><g id="fashion-making" transform="translate(-233.000000, -159.000000)"><g id="Group" transform="translate(233.000000, 159.000000)"><path id="Path" fill="#F3F6E6" fill-rule="nonzero" d="M1448.5,0.2 L975.3,0.2 C972.5,0.2 970.3,2.4 970.3,5.2 C970.3,8 972.5,10.2 975.3,10.2 C1012.2,10.2 1038.8,18.8 1059.1,37.4 C1077.7,54.4 1089.5,77.7 1103.1,104.7 C1121.1,140.4 1141.5,180.8 1183.6,216.2 C1225.5,251.5 1272.1,266.6 1313.2,279.9 C1344.1,289.9 1373.3,299.4 1396.2,316 C1421.2,334.2 1436.3,359.3 1443.5,394.9 C1444,397.2 1446,398.9 1448.4,398.9 C1448.6,398.9 1448.7,398.9 1448.9,398.9 C1451.5,398.6 1453.40328,396.5 1453.40328,393.9 L1453.40328,5.2 C1453.5,2.5 1451.3,0.2 1448.5,0.2 Z"/><path id="Path" fill="#F3F6E6" fill-rule="nonzero" d="M521.6,0.2 C472.4,0.2 451.6,30.5 429.5,62.5 C404.1,99.4 377.7,137.7 303.4,137.7 C232.2,137.7 203.1,185.6 174.9,232 C159.9,256.7 144.4,282.2 122.4,301.1 C98,322.2 68.1,332.4 30.9,332.4 C28.1,332.4 25.9,334.6 25.9,337.4 L25.9,645.3 C25.9,648.1 28.1,650.3 30.9,650.3 C70.5,650.3 102.6,639.3 128.9,616.6 C152,596.7 167.9,570.5 183.4,545.1 C211.4,499.1 237.8,455.7 303.3,455.7 C382.9,455.7 412,413.5 437.6,376.2 C459,345.1 477.5,318.2 521.4,318.2 C524.2,318.2 526.4,316 526.4,313.2 L526.4,5.2 C526.6,2.5 524.4,0.2 521.6,0.2 Z"/><path id="Shape" fill="#383A48" fill-rule="nonzero" d="M138.5,485.1 C138,485.1 137.5,485 137,484.9 C134.4,484.1 132.9,481.3 133.7,478.6 L134.1,477.3 C134.9,474.7 137.7,473.2 140.4,474 C143,474.8 144.5,477.6 143.7,480.3 L143.3,481.6 C142.6,483.7 140.6,485.1 138.5,485.1 Z M147.9,455.1 C147.4,455.1 146.9,455 146.4,454.9 C143.8,454.1 142.3,451.3 143.1,448.6 L146.7,437.2 C147.5,434.6 150.3,433.1 153,433.9 C155.6,434.7 157.1,437.5 156.3,440.2 L152.7,451.6 C152,453.8 150,455.1 147.9,455.1 Z M160.5,415 C160,415 159.5,414.9 159,414.8 C156.4,414 154.9,411.2 155.7,408.5 L159.3,397.1 C160.1,394.5 162.9,393 165.6,393.8 C168.2,394.6 169.7,397.4 168.9,400.1 L165.3,411.5 C164.6,413.7 162.6,415 160.5,415 Z M173.1,375 C172.6,375 172.1,374.9 171.6,374.8 C169,374 167.5,371.2 168.3,368.5 L171.9,357.1 C172.7,354.5 175.5,353 178.2,353.8 C180.8,354.6 182.3,357.4 181.5,360.1 L177.9,371.5 C177.2,373.6 175.2,375 173.1,375 Z M185.7,334.9 C185.2,334.9 184.7,334.8 184.2,334.7 C181.6,333.9 180.1,331.1 180.9,328.4 L184.5,317 C185.3,314.4 188.1,312.9 190.8,313.7 C193.4,314.5 194.9,317.3 194.1,320 L190.5,331.4 C189.8,333.5 187.8,334.9 185.7,334.9 Z M200.7,295.8 C199.9,295.8 199.1,295.6 198.4,295.2 C196,293.9 195,290.9 196.3,288.5 C198.2,284.9 200.3,281.2 202.4,277.8 C203.9,275.5 206.9,274.7 209.3,276.2 C211.6,277.7 212.4,280.7 210.9,283.1 C208.9,286.4 206.9,289.8 205.1,293.2 C204.2,294.8 202.5,295.8 200.7,295.8 Z M224.6,261.4 C223.4,261.4 222.2,261 221.2,260.1 C219.2,258.2 219,255.1 220.9,253 C223.7,250 226.6,247 229.5,244.2 C231.5,242.3 234.7,242.4 236.6,244.4 C238.5,246.4 238.4,249.6 236.4,251.5 C233.6,254.2 230.9,257 228.3,259.8 C227.4,260.9 226,261.4 224.6,261.4 Z M256.5,234.2 C254.9,234.2 253.3,233.4 252.3,231.9 C250.8,229.6 251.4,226.5 253.7,225 C257.1,222.7 260.7,220.6 264.3,218.6 C266.7,217.3 269.8,218.1 271.1,220.5 C272.4,222.9 271.6,226 269.2,227.3 C265.8,229.2 262.5,231.2 259.3,233.3 C258.4,233.9 257.5,234.2 256.5,234.2 Z M294.1,215.8 C292,215.8 290.1,214.5 289.4,212.4 C288.5,209.8 289.9,206.9 292.5,206.1 C296.4,204.8 300.4,203.6 304.3,202.6 C307,201.9 309.7,203.5 310.4,206.2 C311.1,208.9 309.5,211.6 306.8,212.3 C303.1,213.3 299.3,214.4 295.7,215.6 C295.2,215.7 294.7,215.8 294.1,215.8 Z M335.2,207.6 C332.6,207.6 330.4,205.6 330.2,203 C330,200.2 332.1,197.9 334.8,197.7 C338.9,197.4 343,197.3 347.1,197.3 C349.9,197.3 352.1,199.5 352.1,202.3 C352.1,205.1 349.9,207.3 347.1,207.3 C343.2,207.3 339.3,207.4 335.5,207.7 C335.4,207.6 335.3,207.6 335.2,207.6 Z"/><rect id="Rectangle" width="573.7" height="10" x="234.8" y="379.3" fill="#383A48" fill-rule="nonzero"/><g fill-rule="nonzero" transform="translate(1082.000000, 388.000000)"><g transform="translate(0.000000, 1.000000)"><rect id="Rectangle" width="361.3" height="359" x="5.2" y="4.9" fill="#F3F6E6"/><path id="Shape" fill="#383A48" d="M366.5,369 L5.2,369 C2.4,369 0.2,366.8 0.2,364 L0.2,5 C0.2,2.2 2.4,0 5.2,0 L366.5,0 C369.3,0 371.5,2.2 371.5,5 L371.5,364 C371.5,366.7 369.3,369 366.5,369 Z M10.2,359 L361.5,359 L361.5,10 L10.2,10 L10.2,359 Z"/></g><rect id="Rectangle" width="181.3" height="104.7" x="118" y="179.7" fill="#EEBED3"/><g><rect id="Rectangle" width="361.3" height="106.4" x="5.2" y="5.9" fill="#F6E049"/><path id="Shape" fill="#383A48" d="M366.5,117.4 L5.2,117.4 C2.4,117.4 0.2,115.2 0.2,112.4 L0.2,5.9 C0.2,3.1 2.4,0.9 5.2,0.9 L366.5,0.9 C369.3,0.9 371.5,3.1 371.5,5.9 L371.5,112.3 C371.5,115.1 369.3,117.4 366.5,117.4 Z M10.2,107.4 L361.5,107.4 L361.5,11 L10.2,11 L10.2,107.4 Z"/></g><g fill="#383A48" transform="translate(201.000000, 41.000000)"><g id="Rectangle" transform="translate(98.000000, 2.000000)"><rect width="10" height="33" x="10.379" y="-.262" transform="translate(15.378760, 16.237980) rotate(-45.000000) translate(-15.378760, -16.237980)"/><rect width="33" height="10" x="-1.092" y="11.126" transform="translate(15.408050, 16.125870) rotate(-45.000000) translate(-15.408050, -16.125870)"/></g><path id="Shape" d="M82,35.9 L46.5,35.9 L46.5,0.4 L82,0.4 L82,35.9 Z M56.5,25.9 L72,25.9 L72,10.4 L56.5,10.4 L56.5,25.9 Z"/><rect id="Rectangle" width="25.5" height="10" x=".9" y="25.9"/></g></g><g fill-rule="nonzero" transform="translate(822.000000, 56.000000)"><g transform="translate(55.000000, 333.000000)"><path id="Path" fill="#AAC6FC" d="M291.8,4.9 C410.7,123.8 269.7,192.5 437.7,363.9 L12.1,363.9 L5.6,4.9 L291.8,4.9 Z"/><path id="Shape" fill="#383A48" d="M437.7,369 L12.1,369 C9.4,369 7.1,366.8 7.1,364.1 L0.6,5.1 C0.6,3.8 1.1,2.5 2,1.5 C2.9,0.5 4.2,0 5.6,0 L291.8,0 C293.1,0 294.4,0.5 295.3,1.5 C351.1,57.3 351.2,102.9 351.3,151.2 C351.3,179.5 351.4,208.8 362.6,242.5 C375.4,280.9 401.1,319.5 441.3,360.6 C442.7,362 443.1,364.2 442.3,366 C441.6,367.8 439.7,369 437.7,369 Z M17,359 L426,359 C341.5,269 341.4,206.5 341.3,151.1 C341.2,103.4 341.1,62.1 289.7,9.9 L10.7,9.9 L17,359 Z"/></g><g id="XMLID_32_"><path id="Path" fill="#EEBED3" d="M346.8,337.9 L60.6,337.9 C-6.2,202.6 -13.6,138.6 44.4,5 L139.7,5 C134.5,16.5 129.8,28.3 125.6,40.2 C111.4,77.4 142,111.7 179.3,111.5 C220.5,111.4 255.2,77.3 268.1,40.2 C272.2,28.2 276.9,16.5 282.2,5 L397.7,5 C324.2,94.6 280.4,214.8 346.8,337.9 Z"/><path id="Path" fill="#F3F6E6" d="M307.2,5.1 C307.2,8.6 306.4,12.1 305,15.5 C300.1,26.3 295.7,37.4 291.8,48.6 C283.8,71.7 269.1,93.2 250.6,109 C229.4,127.1 204.8,136.7 179.4,136.8 L179.1,136.8 C151.4,136.8 125.7,123.6 110.4,101.4 C96.3,80.9 93.2,55.6 102.1,31.9 C105.2,22.9 108.6,14 112.4,5.1 L139.7,5.1 C134.5,16.6 129.8,28.4 125.6,40.3 C111.4,77.5 142,111.8 179.3,111.6 C220.5,111.5 255.2,77.4 268.1,40.3 C272.2,28.3 276.9,16.6 282.2,5.1 L307.2,5.1 L307.2,5.1 Z"/><path id="Shape" fill="#383A48" d="M346.8,342.9 L60.6,342.9 C58.7,342.9 57,341.8 56.1,340.1 C25.2,277.4 3.9,224.7 0.7,171.1 C-2.2,122.4 9.1,73.7 39.7,3.1 C40.5,1.3 42.3,0.1 44.3,0.1 L139.6,0.1 C141.3,0.1 142.9,1 143.8,2.4 C144.7,3.8 144.9,5.6 144.1,7.2 C138.9,18.5 134.3,30.2 130.2,42 C130.2,42 130.2,42.1 130.1,42.1 C124.5,56.7 126.2,71.7 134.9,84.2 C144.5,98.1 161.4,106.7 179,106.7 C179.1,106.7 179.1,106.7 179.2,106.7 C218.9,106.6 251.6,72.4 263.3,38.7 C267.5,26.7 272.2,14.6 277.5,3 C278.3,1.2 280.1,0.1 282.1,0.1 L397.6,0.1 C399.5,0.1 401.3,1.2 402.1,3 C402.9,4.8 402.7,6.8 401.4,8.3 C361.7,56.6 335.1,109.1 324.5,160 C311.9,220.5 320.8,279.6 351,335.6 C351.8,337.1 351.8,339 350.9,340.5 C350.2,342 348.6,342.9 346.8,342.9 Z M63.8,332.9 L338.6,332.9 C310.3,276.9 302.3,218.1 314.9,157.9 C325.3,108.3 350.3,57.3 387.3,10.1 L285.4,10.1 C280.8,20.5 276.5,31.2 272.8,42 C265.9,61.8 253.4,80.2 237.5,93.7 C219.9,108.7 199.8,116.6 179.3,116.7 L179.3,116.7 C179.2,116.7 179.2,116.7 179.1,116.7 C158.2,116.7 138.2,106.5 126.8,89.9 C116.2,74.6 114.1,56.4 120.9,38.6 C124.2,29 127.9,19.4 132,10.1 L47.7,10.1 C18.7,77.5 8,124.2 10.8,170.6 C13.8,221.6 34.1,272.5 63.8,332.9 Z"/></g><path id="Path" fill="#383A48" d="M302.2,5.1 C302.2,7.9 301.6,10.7 300.4,13.4 C295.4,24.3 290.9,35.6 287,46.9 C279.3,69.2 265.2,89.9 247.3,105.1 C227,122.4 203.5,131.6 179.4,131.7 L179.1,131.7 C153,131.7 128.9,119.3 114.5,98.5 C101.3,79.4 98.5,55.8 106.8,33.6 L106.8,33.5 C110.1,24 113.8,14.4 117.8,5.1 L107,5.1 C103.6,13.3 100.3,21.7 97.4,30.2 C88,55.4 91.2,82.4 106.3,104.2 C122.6,127.7 149.8,141.7 179.1,141.7 L179.4,141.7 C206,141.6 231.7,131.6 253.8,112.7 C273,96.3 288.1,74.1 296.5,50.1 C300.3,39.1 304.7,28.1 309.5,17.5 C311.3,13.5 312.2,9.3 312.2,5.1 L312.2,5.1 L302.2,5.1 L302.2,5.1 Z"/></g><g fill-rule="nonzero" transform="translate(144.000000, 98.000000)"><g fill="#383A48" transform="translate(65.000000, 167.000000)"><path id="Path" d="M665.1,488 L89.7,488 C32.7,488 -7.9,432.7 9.2,378.4 L107.7,65 C118.7,29.8 151.3,5.9 188.2,5.9 L566.7,5.9 C603.6,5.9 636.1,29.8 647.2,65 L745.7,378.4 C762.7,432.7 722.1,488 665.1,488 Z"/><path id="Shape" d="M665.1,493 L89.7,493 C60.9,493 34.7,479.7 17.7,456.5 C0.7,433.3 -4.1,404.3 4.5,376.8 L103,63.4 C114.8,26 149,0.8 188.3,0.8 L566.8,0.8 C606,0.8 640.3,25.9 652.1,63.4 L750.6,376.8 C759.2,404.2 754.4,433.3 737.4,456.5 C720.2,479.7 693.9,493 665.1,493 Z M188.2,10.8 C153.4,10.8 122.9,33.1 112.5,66.4 L14,379.8 C6.3,404.2 10.6,430 25.7,450.5 C40.8,471.1 64.1,482.9 89.7,482.9 L665.1,482.9 C690.6,482.9 714,471.1 729.1,450.5 C744.2,429.9 748.5,404.1 740.8,379.8 L642.3,66.4 C631.9,33.2 601.4,10.8 566.6,10.8 L188.2,10.8 Z"/></g><path id="Path" fill="#383A48" d="M498.9,172.8 L458.9,172.8 L458.9,121.6 C458.9,76.8 422.4,40.3 377.6,40.3 C332.8,40.3 296.3,76.8 296.3,121.6 L296.3,172.8 L256.3,172.8 L256.3,121.6 C256.3,54.7 310.7,0.3 377.6,0.3 C444.5,0.3 498.9,54.7 498.9,121.6 L498.9,172.8 Z"/><g transform="translate(0.000000, 167.000000)"><path id="Path" fill="#E0719E" d="M665.3,488 L89.9,488 C32.9,488 -7.7,432.7 9.4,378.4 L107.9,65 C118.9,29.8 151.5,5.9 188.4,5.9 L566.9,5.9 C603.8,5.9 636.3,29.8 647.4,65 L745.9,378.4 C762.9,432.7 722.3,488 665.3,488 Z"/><path id="Shape" fill="#383A48" d="M665.3,493 L89.9,493 C61.1,493 34.9,479.7 17.9,456.5 C0.9,433.3 -3.9,404.3 4.7,376.8 L103.2,63.4 C115,26 149.2,0.8 188.5,0.8 L567,0.8 C606.2,0.8 640.5,25.9 652.3,63.4 L750.8,376.8 C759.4,404.2 754.6,433.3 737.6,456.5 C720.4,479.7 694.1,493 665.3,493 Z M188.4,10.8 C153.6,10.8 123.1,33.1 112.7,66.4 L14.2,379.8 C6.5,404.2 10.8,430 25.9,450.5 C41,471.1 64.3,482.9 89.9,482.9 L665.3,482.9 C690.8,482.9 714.2,471.1 729.3,450.5 C744.4,429.9 748.7,404.1 741,379.8 L642.5,66.4 C632.1,33.2 601.6,10.8 566.8,10.8 L188.4,10.8 Z"/></g><g transform="translate(245.000000, 141.000000)"><circle id="Oval" cx="31.4" cy="31.8" r="26.1" fill="#F6E049"/><path id="Shape" fill="#383A48" d="M31.4,62.9 C14.3,62.9 0.3,49 0.3,31.8 C0.3,14.7 14.2,0.7 31.4,0.7 C48.5,0.7 62.5,14.6 62.5,31.8 C62.4,49 48.5,62.9 31.4,62.9 Z M31.4,10.8 C19.8,10.8 10.3,20.2 10.3,31.9 C10.3,43.5 19.7,53 31.4,53 C43,53 52.5,43.6 52.5,31.9 C52.4,20.2 43,10.8 31.4,10.8 Z"/></g><g transform="translate(447.000000, 141.000000)"><circle id="Oval" cx="31.9" cy="31.8" r="26.1" fill="#F6E049"/><path id="Shape" fill="#383A48" d="M31.9,62.9 C14.8,62.9 0.8,49 0.8,31.8 C0.8,14.7 14.7,0.7 31.9,0.7 C49,0.7 63,14.6 63,31.8 C62.9,49 49,62.9 31.9,62.9 Z M31.9,10.8 C20.3,10.8 10.8,20.2 10.8,31.9 C10.8,43.5 20.2,53 31.9,53 C43.5,53 53,43.6 53,31.9 C52.9,20.2 43.5,10.8 31.9,10.8 Z"/></g><g id="Oval" fill="#383A48" transform="translate(17.000000, 307.000000)"><circle cx="709.3" cy="225.2" r="5"/><circle cx="709.3" cy="269.2" r="5"/><circle cx="709.3" cy="313.2" r="5"/><circle cx="665.3" cy="49.2" r="5"/><circle cx="665.3" cy="93.2" r="5"/><circle cx="665.3" cy="137.2" r="5"/><circle cx="665.3" cy="181.2" r="5"/><circle cx="665.3" cy="225.2" r="5"/><circle cx="665.3" cy="269.2" r="5"/><circle cx="665.3" cy="313.2" r="5"/><circle cx="621.3" cy="5.2" r="5"/><circle cx="621.3" cy="49.2" r="5"/><circle cx="621.3" cy="93.2" r="5"/><circle cx="621.3" cy="137.2" r="5"/><circle cx="621.3" cy="181.2" r="5"/><circle cx="621.3" cy="225.2" r="5"/><circle cx="621.3" cy="269.2" r="5"/><circle cx="621.3" cy="313.2" r="5"/><circle cx="577.3" cy="5.2" r="5"/><circle cx="577.3" cy="49.2" r="5"/><circle cx="577.3" cy="93.2" r="5"/><circle cx="577.3" cy="137.2" r="5"/><circle cx="577.3" cy="181.2" r="5"/><circle cx="577.3" cy="225.2" r="5"/><circle cx="577.3" cy="269.2" r="5"/><circle cx="577.3" cy="313.2" r="5"/><circle cx="533.3" cy="5.2" r="5"/><circle cx="533.3" cy="49.2" r="5"/><circle cx="533.3" cy="93.2" r="5"/><circle cx="533.3" cy="137.2" r="5"/><circle cx="533.3" cy="181.2" r="5"/><circle cx="533.3" cy="225.2" r="5"/><circle cx="533.3" cy="269.2" r="5"/><circle cx="533.3" cy="313.2" r="5"/><circle cx="489.3" cy="5.2" r="5"/><circle cx="489.3" cy="49.2" r="5"/><circle cx="489.3" cy="93.2" r="5"/><circle cx="489.3" cy="137.2" r="5"/><circle cx="489.3" cy="181.2" r="5"/><circle cx="489.3" cy="225.2" r="5"/><circle cx="489.3" cy="269.2" r="5"/><circle cx="489.3" cy="313.2" r="5"/><circle cx="445.3" cy="5.2" r="5"/><circle cx="445.3" cy="49.2" r="5"/><circle cx="445.3" cy="93.2" r="5"/><circle cx="445.3" cy="137.2" r="5"/><circle cx="445.3" cy="181.2" r="5"/><circle cx="445.3" cy="225.2" r="5"/><circle cx="445.3" cy="269.2" r="5"/><circle cx="445.3" cy="313.2" r="5"/><circle cx="401.3" cy="5.2" r="5"/><circle cx="401.3" cy="49.2" r="5"/><circle cx="401.3" cy="93.2" r="5"/><circle cx="401.3" cy="137.2" r="5"/><circle cx="401.3" cy="181.2" r="5"/><circle cx="401.3" cy="225.2" r="5"/><circle cx="401.3" cy="269.2" r="5"/><circle cx="401.3" cy="313.2" r="5"/><circle cx="357.3" cy="5.2" r="5"/><circle cx="357.3" cy="49.2" r="5"/><circle cx="357.3" cy="93.2" r="5"/><circle cx="357.3" cy="137.2" r="5"/><circle cx="357.3" cy="181.2" r="5"/><circle cx="357.3" cy="225.2" r="5"/><circle cx="357.3" cy="269.2" r="5"/><circle cx="357.3" cy="313.2" r="5"/><circle cx="313.3" cy="5.2" r="5"/><circle cx="313.3" cy="49.2" r="5"/><circle cx="313.3" cy="93.2" r="5"/><circle cx="313.3" cy="137.2" r="5"/><circle cx="313.3" cy="181.2" r="5"/><circle cx="313.3" cy="225.2" r="5"/><circle cx="313.3" cy="269.2" r="5"/><circle cx="313.3" cy="313.2" r="5"/><circle cx="269.3" cy="5.2" r="5"/><circle cx="269.3" cy="49.2" r="5"/><circle cx="269.3" cy="93.2" r="5"/><circle cx="269.3" cy="137.2" r="5"/><circle cx="269.3" cy="181.2" r="5"/><circle cx="269.3" cy="225.2" r="5"/><circle cx="269.3" cy="269.2" r="5"/><circle cx="269.3" cy="313.2" r="5"/><circle cx="225.3" cy="5.2" r="5"/><circle cx="225.3" cy="49.2" r="5"/><circle cx="225.3" cy="93.2" r="5"/><circle cx="225.3" cy="137.2" r="5"/><circle cx="225.3" cy="181.2" r="5"/><circle cx="225.3" cy="225.2" r="5"/><circle cx="225.3" cy="269.2" r="5"/><circle cx="225.3" cy="313.2" r="5"/><circle cx="181.3" cy="5.2" r="5"/><circle cx="181.3" cy="49.2" r="5"/><circle cx="181.3" cy="93.2" r="5"/><circle cx="181.3" cy="137.2" r="5"/><circle cx="181.3" cy="181.2" r="5"/><circle cx="181.3" cy="225.2" r="5"/><circle cx="181.3" cy="269.2" r="5"/><circle cx="181.3" cy="313.2" r="5"/><circle cx="137.3" cy="5.2" r="5"/><circle cx="137.3" cy="49.2" r="5"/><circle cx="137.3" cy="93.2" r="5"/><circle cx="137.3" cy="137.2" r="5"/><circle cx="137.3" cy="181.2" r="5"/><circle cx="137.3" cy="225.2" r="5"/><circle cx="137.3" cy="269.2" r="5"/><circle cx="137.3" cy="313.2" r="5"/><circle cx="93.3" cy="5.2" r="5"/><circle cx="93.3" cy="49.2" r="5"/><circle cx="93.3" cy="93.2" r="5"/><circle cx="93.3" cy="137.2" r="5"/><circle cx="93.3" cy="181.2" r="5"/><circle cx="93.3" cy="225.2" r="5"/><circle cx="93.3" cy="269.2" r="5"/><circle cx="93.3" cy="313.2" r="5"/><circle cx="49.3" cy="93.2" r="5"/><circle cx="49.3" cy="137.2" r="5"/><circle cx="49.3" cy="181.2" r="5"/><circle cx="49.3" cy="225.2" r="5"/><circle cx="49.3" cy="269.2" r="5"/><circle cx="49.3" cy="313.2" r="5"/><circle cx="5.3" cy="225.2" r="5"/><circle cx="5.3" cy="269.2" r="5"/><circle cx="5.3" cy="313.2" r="5"/></g><rect id="Rectangle" width="573.7" height="10" x="90.8" y="281.3" fill="#383A48"/></g><path id="Shape" fill="#383A48" fill-rule="nonzero" d="M1001.1,752.7 C999.2,752.7 997.3,751.6 996.5,749.7 C995.4,747.2 996.6,744.2 999.1,743.1 C1002.5,741.6 1005.7,739.9 1008.8,737.8 C1011.1,736.3 1014.2,736.9 1015.7,739.2 C1017.2,741.5 1016.6,744.6 1014.3,746.1 C1010.7,748.5 1006.9,750.6 1003,752.3 C1002.4,752.6 1001.8,752.7 1001.1,752.7 Z M1031.8,725.2 C1031,725.2 1030.1,725 1029.3,724.5 C1026.9,723.1 1026.1,720.1 1027.4,717.7 C1029.2,714.5 1030.8,711.1 1032,707.6 C1032.9,705 1035.8,703.6 1038.4,704.5 C1041,705.4 1042.4,708.3 1041.5,710.9 C1040.1,714.9 1038.3,718.9 1036.1,722.6 C1035.2,724.3 1033.6,725.2 1031.8,725.2 Z M1039.9,684.7 C1037.4,684.7 1035.3,682.9 1034.9,680.3 C1034.4,676.7 1033.6,673 1032.5,669.5 C1031.7,666.9 1033.1,664.1 1035.7,663.2 C1038.3,662.4 1041.1,663.8 1042,666.4 C1043.3,670.5 1044.3,674.7 1044.8,679 C1045.2,681.7 1043.2,684.2 1040.5,684.6 C1040.4,684.7 1040.2,684.7 1039.9,684.7 Z M1026.4,645.1 C1024.4,645.1 1022.5,643.9 1021.8,641.9 L1017.4,630.8 C1016.4,628.2 1017.6,625.3 1020.2,624.3 C1022.8,623.3 1025.7,624.5 1026.7,627.1 L1031.1,638.2 C1032.1,640.8 1030.9,643.7 1028.3,644.7 C1027.6,645 1027,645.1 1026.4,645.1 Z M1010.8,606.1 C1008.8,606.1 1006.9,604.9 1006.2,602.9 L1001.8,591.8 C1000.8,589.2 1002,586.3 1004.6,585.3 C1007.2,584.3 1010.1,585.5 1011.1,588.1 L1015.5,599.2 C1016.5,601.8 1015.3,604.7 1012.7,605.7 C1012.1,606 1011.4,606.1 1010.8,606.1 Z M995.3,567.1 C993.3,567.1 991.4,565.9 990.7,563.9 L986.3,552.8 C985.3,550.2 986.5,547.3 989.1,546.3 C991.7,545.3 994.6,546.5 995.6,549.1 L1000,560.2 C1001,562.8 999.8,565.7 997.2,566.7 C996.5,567 995.9,567.1 995.3,567.1 Z M979.8,528.1 C977.8,528.1 975.9,526.9 975.2,524.9 L970.8,513.8 C969.8,511.2 971,508.3 973.6,507.3 C976.2,506.3 979.1,507.5 980.1,510.1 L984.5,521.2 C985.5,523.8 984.3,526.7 981.7,527.7 C981,527.9 980.4,528.1 979.8,528.1 Z"/><path id="Shape" fill="#383A48" fill-rule="nonzero" d="M1241.3,364.9 C1239.8,364.9 1238.3,364.2 1237.3,362.9 C1234.8,359.6 1232.4,356.3 1230.1,352.9 C1228.6,350.6 1229.2,347.5 1231.5,346 C1233.8,344.5 1236.9,345.1 1238.4,347.4 C1240.5,350.6 1242.8,353.8 1245.2,356.9 C1246.9,359.1 1246.5,362.2 1244.3,363.9 C1243.5,364.5 1242.4,364.9 1241.3,364.9 Z M1219.7,329 C1217.8,329 1216,327.9 1215.1,326 C1213.4,322.2 1211.9,318.4 1210.5,314.5 C1209.6,311.9 1210.9,309 1213.5,308.1 C1216.1,307.2 1219,308.5 1219.9,311.1 C1221.2,314.7 1222.7,318.3 1224.3,321.9 C1225.4,324.4 1224.3,327.4 1221.8,328.5 C1221.1,328.8 1220.4,329 1219.7,329 Z M1207.7,288.8 C1205.3,288.8 1203.2,287.1 1202.8,284.6 C1202.2,280.6 1201.6,276.4 1201.3,272.3 C1201.1,269.5 1203.1,267.1 1205.9,266.9 C1208.7,266.7 1211.1,268.7 1211.3,271.5 C1211.6,275.4 1212.1,279.2 1212.7,283 C1213.1,285.7 1211.3,288.3 1208.6,288.7 C1208.2,288.8 1208,288.8 1207.7,288.8 Z M1206.3,247 C1206.2,247 1206,247 1205.9,247 C1203.1,246.8 1201.1,244.3 1201.4,241.6 C1201.8,237.6 1202.3,233.5 1202.9,229.4 C1203.3,226.7 1205.9,224.8 1208.6,225.2 C1211.3,225.6 1213.2,228.2 1212.8,230.9 C1212.2,234.8 1211.7,238.7 1211.4,242.5 C1211.1,245 1208.9,247 1206.3,247 Z M1214.5,205.9 C1214,205.9 1213.5,205.8 1213,205.7 C1210.4,204.9 1208.9,202.1 1209.7,199.5 C1210.9,195.6 1212.2,191.7 1213.5,187.9 C1214.4,185.3 1217.3,184 1219.9,184.9 C1222.5,185.8 1223.9,188.7 1222.9,191.3 C1221.6,195 1220.3,198.8 1219.2,202.5 C1218.6,204.5 1216.6,205.9 1214.5,205.9 Z M1230,166.9 C1229.3,166.9 1228.5,166.7 1227.8,166.4 C1225.3,165.2 1224.3,162.2 1225.5,159.7 C1227.3,156.1 1229.2,152.4 1231.1,148.9 C1232.4,146.5 1235.4,145.6 1237.9,146.9 C1240.3,148.2 1241.2,151.3 1239.9,153.7 C1238,157.2 1236.2,160.7 1234.5,164.2 C1233.6,165.9 1231.8,166.9 1230,166.9 Z M1251,130.5 C1250,130.5 1249.1,130.2 1248.2,129.7 C1245.9,128.2 1245.3,125.1 1246.8,122.8 C1249,119.4 1251.4,116.1 1253.7,112.8 C1255.3,110.6 1258.4,110 1260.7,111.7 C1262.9,113.3 1263.5,116.4 1261.8,118.7 C1259.5,121.9 1257.2,125.2 1255.1,128.4 C1254.2,129.8 1252.6,130.5 1251,130.5 Z M1276.4,97.1 C1275.2,97.1 1274.1,96.7 1273.1,95.9 C1271,94.1 1270.8,90.9 1272.6,88.8 C1275.3,85.7 1278,82.6 1280.7,79.7 C1282.6,77.7 1285.7,77.5 1287.8,79.4 C1289.8,81.3 1290,84.4 1288.1,86.5 C1285.5,89.3 1282.8,92.3 1280.2,95.3 C1279.2,96.5 1277.8,97.1 1276.4,97.1 Z"/><path id="Shape" fill="#383A48" fill-rule="nonzero" d="M764.9,197.5 C764.4,197.5 763.9,197.4 763.4,197.3 C760.8,196.5 759.3,193.6 760.2,191 L763.8,179.6 C764.6,177 767.5,175.5 770.1,176.4 C772.7,177.2 774.2,180.1 773.3,182.7 L769.7,194.1 C769,196.2 767.1,197.5 764.9,197.5 Z M777.7,157.5 C777.2,157.5 776.7,157.4 776.2,157.3 C773.6,156.5 772.1,153.6 773,151 L776.6,139.6 C777.4,137 780.2,135.5 782.9,136.4 C785.5,137.2 787,140.1 786.1,142.7 L782.5,154.1 C781.8,156.2 779.8,157.5 777.7,157.5 Z M790.5,117.5 C790,117.5 789.5,117.4 789,117.3 C786.4,116.5 784.9,113.6 785.8,111 L789.4,99.6 C790.2,97 793,95.5 795.7,96.4 C798.3,97.2 799.8,100.1 798.9,102.7 L795.3,114.1 C794.6,116.2 792.6,117.5 790.5,117.5 Z M803.2,77.5 C802.7,77.5 802.2,77.4 801.7,77.3 C799.1,76.5 797.6,73.6 798.5,71 L802.1,59.6 C802.9,57 805.8,55.5 808.4,56.4 C811,57.2 812.5,60.1 811.6,62.7 L808,74 C807.3,76.2 805.3,77.5 803.2,77.5 Z"/><g id="Path"><g transform="translate(60.000000, 485.000000)"><line x1="25.3" x2="414.6" y1="211.4" y2="5.4"/><path fill="#383A48" fill-rule="nonzero" d="M14.2,190.4 L412.2,0.9 C414.7,-0.3 417.7,0.8 418.9,3.3 C420,5.7 419.1,8.5 416.9,9.8 L36.4,232.3 C25.1,238.9 10.6,235.1 3.9,223.8 C-2.7,212.5 1.1,198 12.4,191.3 C13,191 13.6,190.7 14.2,190.4 Z"/></g><path fill="#E0719E" fill-rule="nonzero" d="M30.3,213.7 C28.5,213.7 26.8,212.7 25.9,211 C24.6,208.6 25.5,205.5 28,204.2 L76.2,178.7 C78.6,177.4 81.7,178.3 83,180.8 C84.3,183.2 83.4,186.3 80.9,187.6 L32.7,213.1 C31.8,213.6 31,213.7 30.3,213.7 Z" transform="translate(60.000000, 485.000000)"/></g><g fill-rule="nonzero" transform="translate(0.000000, 37.000000)"><g><circle id="Oval" cx="105.3" cy="104.8" r="99.9" fill="#F6E049"/><path id="Shape" fill="#383A48" d="M105.3,209.7 C47.5,209.7 0.4,162.7 0.4,104.8 C0.4,46.9 47.5,0 105.3,0 C163.1,0 210.2,47 210.2,104.9 C210.2,162.8 163.2,209.7 105.3,209.7 Z M105.3,10 C53,10 10.4,52.5 10.4,104.9 C10.4,157.3 52.9,199.8 105.3,199.8 C157.7,199.8 200.2,157.3 200.2,104.9 C200.2,52.5 157.6,10 105.3,10 Z"/></g><circle id="Oval" cx="105.3" cy="72" r="13.2" fill="#383A48"/><circle id="Oval" cx="105.3" cy="137.6" r="13.2" fill="#383A48"/><circle id="Oval" cx="72.5" cy="104.8" r="13.2" fill="#383A48"/><circle id="Oval" cx="138.1" cy="104.8" r="13.2" fill="#383A48"/></g><g id="Path" fill="#383A48" fill-rule="nonzero"><path d="M48.4,29.6 C45.6,29.6 43.4,27.4 43.4,24.6 L43.4,5.8 C43.4,3 45.6,0.8 48.4,0.8 C51.2,0.8 53.4,3 53.4,5.8 L53.4,24.6 C53.4,27.3 51.2,29.6 48.4,29.6 Z" transform="translate(623.000000, 19.000000)"/><path d="M48.4,96.9 C45.6,96.9 43.4,94.7 43.4,91.9 L43.4,73.1 C43.4,70.3 45.6,68.1 48.4,68.1 C51.2,68.1 53.4,70.3 53.4,73.1 L53.4,91.9 C53.4,94.7 51.2,96.9 48.4,96.9 Z" transform="translate(623.000000, 19.000000)"/><path d="M24.1,53.9 L5.3,53.9 C2.5,53.9 0.3,51.7 0.3,48.9 C0.3,46.1 2.5,43.9 5.3,43.9 L24.1,43.9 C26.9,43.9 29.1,46.1 29.1,48.9 C29.1,51.7 26.9,53.9 24.1,53.9 Z" transform="translate(623.000000, 19.000000)"/><path d="M91.5,53.9 L72.7,53.9 C69.9,53.9 67.7,51.7 67.7,48.9 C67.7,46.1 69.9,43.9 72.7,43.9 L91.5,43.9 C94.3,43.9 96.5,46.1 96.5,48.9 C96.5,51.7 94.2,53.9 91.5,53.9 Z" transform="translate(623.000000, 19.000000)"/><path d="M31.3,36.7 C30,36.7 28.7,36.2 27.8,35.2 L14.5,21.9 C12.5,19.9 12.5,16.8 14.5,14.8 C16.5,12.8 19.6,12.8 21.6,14.8 L34.9,28.1 C36.9,30.1 36.9,33.2 34.9,35.2 C33.8,36.2 32.5,36.7 31.3,36.7 Z" transform="translate(623.000000, 19.000000)"/><path d="M78.9,84.3 C77.6,84.3 76.3,83.8 75.4,82.8 L62.1,69.5 C60.1,67.5 60.1,64.4 62.1,62.4 C64.1,60.4 67.2,60.4 69.2,62.4 L82.5,75.7 C84.5,77.7 84.5,80.8 82.5,82.8 C81.4,83.8 80.2,84.3 78.9,84.3 Z" transform="translate(623.000000, 19.000000)"/><path d="M18,84.3 C16.7,84.3 15.4,83.8 14.5,82.8 C12.5,80.8 12.5,77.7 14.5,75.7 L27.8,62.4 C29.8,60.4 32.9,60.4 34.9,62.4 C36.9,64.4 36.9,67.5 34.9,69.5 L21.6,82.8 C20.5,83.8 19.3,84.3 18,84.3 Z" transform="translate(623.000000, 19.000000)"/><path d="M65.6,36.7 C64.3,36.7 63,36.2 62.1,35.2 C60.1,33.2 60.1,30.1 62.1,28.1 L75.4,14.8 C77.4,12.8 80.5,12.8 82.5,14.8 C84.5,16.8 84.5,19.9 82.5,21.9 L69.2,35.2 C68.2,36.2 66.9,36.7 65.6,36.7 Z" transform="translate(623.000000, 19.000000)"/></g><g><g transform="translate(1331.000000, 178.000000)"><line id="Path" x1="4.6" x2="27.9" y1="27.3" y2="4"/><rect id="Rectangle" width="33" height="10" x="-.304" y="10.644" fill="#383A48" fill-rule="nonzero" transform="translate(16.196340, 15.643820) rotate(-44.991897) translate(-16.196340, -15.643820)"/></g><g transform="translate(1331.000000, 178.000000) translate(1.000000, 0.000000)"><line id="Path" x1="26.9" x2="3.6" y1="27.3" y2="4"/><rect id="Rectangle" width="10" height="33" x="10.311" y="-.789" fill="#383A48" fill-rule="nonzero" transform="translate(15.310600, 15.711140) rotate(-45.000000) translate(-15.310600, -15.711140)"/></g></g><g><g transform="translate(77.000000, 552.000000)"><line id="Path" x1="3.5" x2="26.8" y1="27.3" y2="4"/><rect id="Rectangle" width="33.002" height="10.001" x="-1.235" y="10.744" fill="#383A48" fill-rule="nonzero" transform="translate(15.266360, 15.744330) rotate(-45.004051) translate(-15.266360, -15.744330)"/></g><g transform="translate(77.000000, 552.000000)"><line id="Path" x1="26.8" x2="3.5" y1="27.3" y2="4"/><rect id="Rectangle" width="10" height="33" x="10.212" y="-.819" fill="#383A48" fill-rule="nonzero" transform="translate(15.211490, 15.680950) rotate(-45.000000) translate(-15.211490, -15.680950)"/></g></g></g></g></g></svg>