<svg xmlns="http://www.w3.org/2000/svg" xmlns:xlink="http://www.w3.org/1999/xlink" width="1328" height="779" version="1.1" viewBox="0 0 1328 779"><title>finance-stability</title><desc>Created with Sketch.</desc><g id="Page-1" fill="none" fill-rule="evenodd" stroke="none" stroke-width="1"><g id="finance-stability" transform="translate(-304.000000, -142.000000)"><g id="Group" transform="translate(304.000000, 142.000000)"><g id="Path" fill="#E3C049" fill-rule="nonzero"><path d="M645.3,10.9 L5.6,10.9 C2.8,10.9 0.6,8.7 0.6,5.9 C0.6,3.1 2.8,0.9 5.6,0.9 L645.3,0.9 C648.1,0.9 650.3,3.1 650.3,5.9 C650.3,8.7 648.1,10.9 645.3,10.9 Z" transform="translate(677.000000, 1.000000)"/><path d="M645.3,96 L5.6,96 C2.8,96 0.6,93.8 0.6,91 C0.6,88.2 2.8,86 5.6,86 L645.3,86 C648.1,86 650.3,88.2 650.3,91 C650.3,93.8 648.1,96 645.3,96 Z" transform="translate(677.000000, 1.000000)"/><path d="M645.3,181.1 L5.6,181.1 C2.8,181.1 0.6,178.9 0.6,176.1 C0.6,173.3 2.8,171.1 5.6,171.1 L645.3,171.1 C648.1,171.1 650.3,173.3 650.3,176.1 C650.3,178.9 648.1,181.1 645.3,181.1 Z" transform="translate(677.000000, 1.000000)"/><path d="M645.3,266.1 L5.6,266.1 C2.8,266.1 0.6,263.9 0.6,261.1 C0.6,258.3 2.8,256.1 5.6,256.1 L645.3,256.1 C648.1,256.1 650.3,258.3 650.3,261.1 C650.3,263.9 648.1,266.1 645.3,266.1 Z" transform="translate(677.000000, 1.000000)"/><path d="M645.3,351.2 L5.6,351.2 C2.8,351.2 0.6,349 0.6,346.2 C0.6,343.4 2.8,341.2 5.6,341.2 L645.3,341.2 C648.1,341.2 650.3,343.4 650.3,346.2 C650.3,349 648.1,351.2 645.3,351.2 Z" transform="translate(677.000000, 1.000000)"/><path d="M645.3,436.2 L5.6,436.2 C2.8,436.2 0.6,434 0.6,431.2 C0.6,428.4 2.8,426.2 5.6,426.2 L645.3,426.2 C648.1,426.2 650.3,428.4 650.3,431.2 C650.3,434 648.1,436.2 645.3,436.2 Z" transform="translate(677.000000, 1.000000)"/><path d="M645.3,521.3 L5.6,521.3 C2.8,521.3 0.6,519.1 0.6,516.3 C0.6,513.5 2.8,511.3 5.6,511.3 L645.3,511.3 C648.1,511.3 650.3,513.5 650.3,516.3 C650.3,519.1 648.1,521.3 645.3,521.3 Z" transform="translate(677.000000, 1.000000)"/><path d="M645.3,606.4 L5.6,606.4 C2.8,606.4 0.6,604.2 0.6,601.4 C0.6,598.6 2.8,596.4 5.6,596.4 L645.3,596.4 C648.1,596.4 650.3,598.6 650.3,601.4 C650.3,604.2 648.1,606.4 645.3,606.4 Z" transform="translate(677.000000, 1.000000)"/><path d="M645.3,691.4 L5.6,691.4 C2.8,691.4 0.6,689.2 0.6,686.4 C0.6,683.6 2.8,681.4 5.6,681.4 L645.3,681.4 C648.1,681.4 650.3,683.6 650.3,686.4 C650.3,689.2 648.1,691.4 645.3,691.4 Z" transform="translate(677.000000, 1.000000)"/><path d="M645.3,776.5 L5.6,776.5 C2.8,776.5 0.6,774.3 0.6,771.5 C0.6,768.7 2.8,766.5 5.6,766.5 L645.3,766.5 C648.1,766.5 650.3,768.7 650.3,771.5 C650.3,774.3 648.1,776.5 645.3,776.5 Z" transform="translate(677.000000, 1.000000)"/></g><path id="Path" fill="#F3F6E6" fill-rule="nonzero" d="M1322.3,342.2 C1319.5,342.2 1317.3,344.4 1317.3,347.2 C1317.3,386.2 1316.2,421.1 1302.4,452.6 C1288.4,484.5 1261.7,513.3 1215.7,546 C1168.5,579.5 1159.5,626.8 1151.5,668.5 C1146.9,692.6 1142.5,715.3 1131.5,733 C1119.4,752.4 1100.4,763.8 1071.7,768.8 C1069.1,769.2 1067.4,771.6 1067.6,774.2 C1067.8,776.8 1070,778.8 1072.6,778.8 L1322.3,778.8 C1325.1,778.8 1327.3,776.6 1327.3,773.8 L1327.3,347.2 C1327.3,344.4 1325.1,342.2 1322.3,342.2 Z"/><path id="Path" fill="#F3F6E6" fill-rule="nonzero" d="M335.8,5.8 C335.2,3.6 333.2,2 330.9,2 L5.2,2 C2.4,2 0.2,4.2 0.2,7 L0.2,673.5 C0.2,676 2,678.1 4.4,678.4 C4.7,678.4 4.9,678.5 5.2,678.5 C7.3,678.5 9.3,677.1 10,675 C60.5,517 109.5,479.8 152.8,446.9 C181,425.5 207.6,405.2 229.8,355 C260.6,285.3 256.6,228 253,177.4 C250.6,143 248.5,113.3 258.1,86.2 C268.5,56.6 292.4,32.9 333.3,11.4 C335.3,10.3 336.3,8 335.8,5.8 Z"/><g fill-rule="nonzero" transform="translate(394.000000, 321.000000)"><g><path id="Path" fill="#E0719E" d="M364.1,229.1 C364.1,350.9 359,449.9 262,452.8 C260.6,452.8 186.3,452.9 184.9,452.9 C85.9,452.9 5.7,352.7 5.7,229.2 C5.7,105.7 85.9,5.5 184.9,5.5 C185.3,5.5 262.7,5.5 263.2,5.5 C361.6,6.2 364.1,106 364.1,229.1 Z"/><path id="Shape" fill="#383A48" d="M184.9,457.8 C135.5,457.8 89.1,433.9 54.3,390.4 C19.7,347.3 0.7,290 0.7,229.1 C0.7,168.2 19.7,110.9 54.3,67.8 C89.1,24.3 135.5,0.4 184.9,0.4 C185.7,0.4 262.7,0.4 263.2,0.4 C288.2,0.6 308,6.9 323.6,19.5 C337.8,31 348.1,47.4 355.3,69.9 C368.1,109.9 369.1,163.4 369.1,229.1 C369.1,288.7 368,345.6 354.2,387.1 C338.9,433.3 308.8,456.4 262.2,457.7 C260.6,457.8 185.7,457.8 184.9,457.8 Z M184.9,10.3 C88.8,10.3 10.7,108.4 10.7,229 C10.7,349.6 88.8,447.7 184.9,447.7 C188.6,447.7 259.8,447.7 261.9,447.6 C352.2,445 359.1,355.3 359.1,228.9 C359.1,164 358.1,111.4 345.8,72.7 C332.3,30.4 306,10.5 263.2,10.1 C262.2,10.3 191.2,10.3 184.9,10.3 Z"/></g><path id="Path" fill="#383A48" d="M203.2,17.4 C202.3,15.6 200.3,14.5 198.3,14.7 C194.8,15 112,22.6 80.3,40.9 C48.2,59.4 20.5,125.9 19.3,128.7 C18.7,130.2 18.8,132 19.8,133.4 C20.7,134.8 22.3,135.6 24,135.6 L101.1,135.6 C102.5,135.6 103.9,135 104.9,133.9 L202.5,23 C203.8,21.4 204.1,19.2 203.2,17.4 Z"/><g id="Path" fill="#383A48"><path d="M236.4,10.6 L102.6,10.6 C99.8,10.6 97.6,8.4 97.6,5.6 C97.6,2.8 99.8,0.6 102.6,0.6 L236.4,0.6 C239.2,0.6 241.4,2.8 241.4,5.6 C241.4,8.4 239.1,10.6 236.4,10.6 Z" transform="translate(6.000000, 21.000000)"/><path d="M189.4,55.2 L56.5,55.2 C53.7,55.2 51.5,53 51.5,50.2 C51.5,47.4 53.7,45.2 56.5,45.2 L189.3,45.2 C192.1,45.2 194.3,47.4 194.3,50.2 C194.3,53 192.1,55.2 189.4,55.2 Z" transform="translate(6.000000, 21.000000)"/><path d="M156.4,114.5 L23.5,114.5 C20.7,114.5 18.5,112.3 18.5,109.5 C18.5,106.7 20.7,104.5 23.5,104.5 L156.4,104.5 C159.2,104.5 161.4,106.7 161.4,109.5 C161.4,112.3 159.1,114.5 156.4,114.5 Z" transform="translate(6.000000, 21.000000)"/><path d="M138.4,179.6 L5.1,179.6 C2.3,179.6 0.1,177.4 0.1,174.6 C0.1,171.8 2.3,169.6 5.1,169.6 L138.4,169.6 C141.2,169.6 143.4,171.8 143.4,174.6 C143.4,177.4 141.1,179.6 138.4,179.6 Z" transform="translate(6.000000, 21.000000)"/></g><g id="Path" fill="#383A48"><path d="M236.4,167.5 L102.6,167.5 C99.8,167.5 97.6,165.3 97.6,162.5 C97.6,159.7 99.8,157.5 102.6,157.5 L236.4,157.5 C239.2,157.5 241.4,159.7 241.4,162.5 C241.4,165.3 239.1,167.5 236.4,167.5 Z" transform="translate(6.000000, 269.000000)"/><path d="M189.4,126.2 L56.5,126.2 C53.7,126.2 51.5,124 51.5,121.2 C51.5,118.4 53.7,116.2 56.5,116.2 L189.3,116.2 C192.1,116.2 194.3,118.4 194.3,121.2 C194.3,124 192.1,126.2 189.4,126.2 Z" transform="translate(6.000000, 269.000000)"/><path d="M156.4,71.2 L23.5,71.2 C20.7,71.2 18.5,69 18.5,66.2 C18.5,63.4 20.7,61.2 23.5,61.2 L156.4,61.2 C159.2,61.2 161.4,63.4 161.4,66.2 C161.4,69 159.1,71.2 156.4,71.2 Z" transform="translate(6.000000, 269.000000)"/><path d="M138.4,10.9 L5.1,10.9 C2.3,10.9 0.1,8.7 0.1,5.9 C0.1,3.1 2.3,0.9 5.1,0.9 L138.4,0.9 C141.2,0.9 143.4,3.1 143.4,5.9 C143.4,8.7 141.1,10.9 138.4,10.9 Z" transform="translate(6.000000, 269.000000)"/></g><g transform="translate(77.000000, 0.000000)"><ellipse id="Oval" cx="185" cy="229.1" fill="#F6E049" rx="179.2" ry="223.7"/><path id="Shape" fill="#383A48" d="M185,457.8 C135.6,457.8 89.2,433.9 54.4,390.4 C19.8,347.3 0.8,290 0.8,229.1 C0.8,168.2 19.8,110.9 54.4,67.8 C89.2,24.3 135.6,0.4 185,0.4 C234.4,0.4 280.8,24.3 315.6,67.8 C350.2,110.9 369.2,168.2 369.2,229.1 C369.2,290 350.2,347.3 315.6,390.4 C280.8,433.8 234.4,457.8 185,457.8 Z M185,10.3 C88.9,10.3 10.8,108.4 10.8,229 C10.8,349.6 88.9,447.8 185,447.8 C281.1,447.8 359.2,349.7 359.2,229.1 C359.2,108.5 281.1,10.3 185,10.3 Z"/></g><g transform="translate(119.000000, 51.000000)"><ellipse id="Oval" cx="143" cy="178.1" fill="#F6E049" rx="138" ry="172.2"/><path id="Shape" fill="#383A48" d="M143,355.3 C104.6,355.3 68.6,336.7 41.5,303 C14.7,269.6 0,225.2 0,178.1 C0,131 14.7,86.6 41.5,53.2 C68.5,19.5 104.6,0.9 143,0.9 C181.4,0.9 217.4,19.5 244.5,53.2 C271.3,86.6 286,131 286,178.1 C286,225.2 271.3,269.6 244.5,303 C217.4,336.7 181.4,355.3 143,355.3 Z M143,10.8 C69.7,10.8 10,85.8 10,178 C10,270.2 69.6,345.2 143,345.2 C216.3,345.2 276,270.2 276,178 C276,85.8 216.3,10.8 143,10.8 Z"/></g><path id="Shape" fill="#E0719E" d="M279.5,89.9 L279.5,119.5 C301.1,122.1 317.3,130.2 333,142.1 L317,176.4 C306.5,168.4 293.8,161.7 279.5,158.9 L279.5,210 C310.9,216.1 335.3,233.4 334.7,269.9 C333.9,309.5 309.7,330.9 279.7,336.4 L279.7,368.1 L251.2,368.1 L251.2,337.2 C228.5,334.8 205.7,325.7 190,310.3 L207.6,276.3 C217.9,286.1 233.5,295 251.1,298.1 L251.1,246.5 L249.7,246.2 C218.3,240 195.6,223 196.2,184.9 C196.7,148.7 219.5,125.3 251.1,119.9 L251.1,89.9 L279.5,89.9 L279.5,89.9 Z M251,204 L251,159.8 C239.1,163.3 231.6,171.3 231.4,182.9 C231.2,194.1 238.4,200 251,204 Z M279.5,252.7 L279.5,297 C291.3,293.5 299.1,285.6 299.4,273.6 C299.5,263.1 292.4,256.8 279.5,252.7 Z"/></g><g fill-rule="nonzero" transform="translate(237.000000, 114.000000)"><polygon id="Path" fill="#F6E049" points="645.6 43.4 709.9 34.4 731.1 92.9 557 148.1 50.6 263.8 44.1 190.4"/><g id="Shape"><path fill="#AAC6FC" d="M686.8,56 C696.9,53.6 707,59.9 709.4,69.9 C711.8,80 705.5,90.1 695.5,92.5 L78.3,238.5 C68.2,240.9 58.1,234.6 55.7,224.6 C53.3,214.6 59.6,204.4 69.6,202 L686.8,56 M675.3,7.3 L58.2,153.3 C21.2,162 -1.6,199.1 7.1,236.1 C15.8,273.1 52.9,295.9 89.9,287.2 L707,141.3 C744,132.6 766.8,95.5 758.1,58.5 C749.3,21.5 712.2,-1.4 675.3,7.3 L675.3,7.3 Z"/><path fill="#383A48" d="M74,294 C40.6,294 10.2,271.1 2.2,237.2 C-7.2,197.6 17.4,157.8 57,148.4 L674.1,2.5 C693.3,-2 713.1,1.2 729.8,11.5 C746.5,21.8 758.3,38.1 762.8,57.3 C772.2,96.9 747.6,136.7 708,146.1 L91,292 C85.3,293.3 79.6,294 74,294 Z M691.2,10.5 C686.3,10.5 681.3,11.1 676.4,12.2 L59.3,158.1 C25.1,166.2 3.8,200.6 11.9,234.8 C18.8,264.1 45.1,283.9 74,283.9 C78.8,283.9 83.8,283.3 88.7,282.2 L705.8,136.3 C740,128.2 761.3,93.8 753.2,59.6 C749.3,43 739.1,29 724.6,20 C714.4,13.7 702.9,10.5 691.2,10.5 Z M74,244 C69.6,244 65.4,242.8 61.5,240.4 C56.1,237.1 52.3,231.8 50.8,225.6 C49.3,219.4 50.4,213.1 53.7,207.6 C57,202.2 62.3,198.4 68.5,196.9 L685.6,51 L685.6,51 C698.3,48 711.2,55.9 714.2,68.7 C715.7,74.9 714.6,81.2 711.3,86.7 C708,92.1 702.7,95.9 696.5,97.4 L79.5,243.3 C77.7,243.8 75.8,244 74,244 Z M687.9,60.9 L70.9,206.8 C67.3,207.6 64.3,209.8 62.4,213 C60.5,216.1 59.9,219.8 60.7,223.4 C61.5,227 63.7,230 66.9,231.9 C70,233.8 73.7,234.4 77.3,233.6 L694.4,87.7 C698,86.9 701,84.7 702.9,81.5 C704.8,78.4 705.4,74.7 704.6,71.1 C702.7,63.7 695.3,59.1 687.9,60.9 L687.9,60.9 Z"/></g></g><g fill-rule="nonzero" transform="translate(335.000000, 1.000000)"><g><polygon id="Path" fill="#7FD6C2" points="303.9 5.9 154.9 221.6 5.9 5.9"/><path id="Shape" fill="#383A48" d="M154.9,226.6 C153.3,226.6 151.7,225.8 150.8,224.4 L1.8,8.8 C0.7,7.3 0.6,5.3 1.5,3.6 C2.4,2 4.1,0.9 5.9,0.9 L303.9,0.9 C305.8,0.9 307.5,1.9 308.3,3.6 C309.2,5.2 309,7.2 308,8.8 L159,224.4 C158.1,225.8 156.6,226.6 154.9,226.6 Z M15.5,10.9 L155,212.7 L294.5,10.9 L15.5,10.9 L15.5,10.9 Z"/></g><g id="Oval" fill="#383A48" transform="translate(54.000000, 12.000000)"><circle cx="225.2" cy="5.6" r="5"/><circle cx="181.2" cy="5.6" r="5"/><circle cx="181.2" cy="49.6" r="5"/><circle cx="137.2" cy="5.6" r="5"/><circle cx="137.2" cy="49.6" r="5"/><circle cx="137.2" cy="93.6" r="5"/><circle cx="137.2" cy="137.6" r="5"/><circle cx="93.2" cy="5.6" r="5"/><circle cx="93.2" cy="49.6" r="5"/><circle cx="93.2" cy="93.6" r="5"/><circle cx="93.2" cy="137.6" r="5"/><circle cx="93.2" cy="181.6" r="5"/><circle cx="49.2" cy="5.6" r="5"/><circle cx="49.2" cy="49.6" r="5"/><circle cx="49.2" cy="93.6" r="5"/><circle cx="5.2" cy="5.6" r="5"/><circle cx="5.2" cy="49.6" r="5"/></g></g><path id="Path" fill="#383A48" fill-rule="nonzero" d="M1014.9,778.8 L395.8,778.8 C393,778.8 390.8,776.6 390.8,773.8 C390.8,771 393,768.8 395.8,768.8 L1014.9,768.8 C1017.7,768.8 1019.9,771 1019.9,773.8 C1019.9,776.6 1017.6,778.8 1014.9,778.8 Z"/><g fill-rule="nonzero" transform="translate(809.000000, 650.000000)"><rect id="Rectangle" width="101" height="117.6" x="5.7" y="5.2" fill="#7FD6C2"/><path id="Shape" fill="#383A48" d="M106.7,127.8 L5.7,127.8 C2.9,127.8 0.7,125.6 0.7,122.8 L0.7,5.2 C0.7,2.4 2.9,0.2 5.7,0.2 L106.7,0.2 C109.5,0.2 111.7,2.4 111.7,5.2 L111.7,122.8 C111.7,125.5 109.4,127.8 106.7,127.8 Z M10.7,117.8 L101.7,117.8 L101.7,10.2 L10.7,10.2 L10.7,117.8 Z"/></g><g fill-rule="nonzero" transform="translate(597.000000, 4.000000)"><g><circle id="Oval" cx="85.6" cy="85.6" r="80" fill="#F6E049"/><path id="Shape" fill="#383A48" d="M85.6,170.6 C38.8,170.6 0.6,132.5 0.6,85.6 C0.6,38.7 38.7,0.6 85.6,0.6 C132.5,0.6 170.6,38.7 170.6,85.6 C170.6,132.5 132.5,170.6 85.6,170.6 Z M85.6,10.7 C44.3,10.7 10.6,44.3 10.6,85.7 C10.6,127.1 44.2,160.7 85.6,160.7 C127,160.7 160.6,127.1 160.6,85.7 C160.6,44.3 127,10.7 85.6,10.7 Z"/></g><g transform="translate(0.000000, 39.000000)"><path id="Path" fill="#F3F6E6" d="M165.6,46.6 C165.6,46.6 129.8,87.3 85.6,87.3 C41.4,87.3 5.6,46.6 5.6,46.6 C5.6,46.6 41.4,5.9 85.6,5.9 C129.8,5.9 165.6,46.6 165.6,46.6 Z"/><path id="Shape" fill="#383A48" d="M85.6,92.3 C39.7,92.3 3.4,51.7 1.9,49.9 C0.2,48 0.2,45.2 1.9,43.3 C3.4,41.6 39.7,0.9 85.6,0.9 C131.5,0.9 167.8,41.5 169.3,43.3 C171,45.2 171,48 169.3,49.9 C167.8,51.6 131.5,92.3 85.6,92.3 Z M12.6,46.6 C22.1,56 51.5,82.3 85.6,82.3 C119.7,82.3 149.2,56 158.6,46.6 C149.1,37.2 119.7,10.9 85.6,10.9 C51.5,10.9 22.1,37.2 12.6,46.6 Z"/></g><circle id="Oval" cx="85.6" cy="85.6" r="35.8" fill="#383A48"/></g><path id="Path" fill="#383A48" fill-rule="nonzero" d="M1067.2,771.2 L781.9,292 C780.8,290.1 778.6,289.2 776.5,289.7 L734.3,299.5 C732.7,299.9 731.5,300.9 730.8,302.4 C730.2,303.9 730.3,305.5 731.1,306.9 L1010.5,776.3 C1011.4,777.8 1013,778.7 1014.8,778.7 L1062.8,778.7 C1064.6,778.7 1066.3,777.7 1067.1,776.2 C1068.1,774.7 1068.1,772.8 1067.2,771.2 Z"/><g fill-rule="nonzero" transform="translate(0.000000, 668.000000)"><g><rect id="Rectangle" width="424.1" height="100.3" x="5.2" y="5.5" fill="#E0719E"/><path id="Shape" fill="#383A48" d="M429.3,110.8 L5.2,110.8 C2.4,110.8 0.2,108.6 0.2,105.8 L0.2,5.5 C0.2,2.7 2.4,0.5 5.2,0.5 L429.3,0.5 C432.1,0.5 434.3,2.7 434.3,5.5 L434.3,105.8 C434.3,108.5 432,110.8 429.3,110.8 Z M10.2,100.8 L424.3,100.8 L424.3,10.5 L10.2,10.5 L10.2,100.8 Z"/></g><path id="Path" fill="#383A48" d="M358.1,110.8 C355.3,110.8 353.1,108.6 353.1,105.8 L353.1,5.5 C353.1,2.7 355.3,0.5 358.1,0.5 C360.9,0.5 363.1,2.7 363.1,5.5 L363.1,105.8 C363.1,108.5 360.8,110.8 358.1,110.8 Z"/><path id="Path" fill="#383A48" d="M287.6,110.8 C284.8,110.8 282.6,108.6 282.6,105.8 L282.6,5.5 C282.6,2.7 284.8,0.5 287.6,0.5 C290.4,0.5 292.6,2.7 292.6,5.5 L292.6,105.8 C292.6,108.5 290.4,110.8 287.6,110.8 Z"/><path id="Path" fill="#383A48" d="M217.2,110.8 C214.4,110.8 212.2,108.6 212.2,105.8 L212.2,5.5 C212.2,2.7 214.4,0.5 217.2,0.5 C220,0.5 222.2,2.7 222.2,5.5 L222.2,105.8 C222.2,108.5 220,110.8 217.2,110.8 Z"/><path id="Path" fill="#383A48" d="M146.8,110.8 C144,110.8 141.8,108.6 141.8,105.8 L141.8,5.5 C141.8,2.7 144,0.5 146.8,0.5 C149.6,0.5 151.8,2.7 151.8,5.5 L151.8,105.8 C151.8,108.5 149.6,110.8 146.8,110.8 Z"/><path id="Path" fill="#383A48" d="M76.4,110.8 C73.6,110.8 71.4,108.6 71.4,105.8 L71.4,5.5 C71.4,2.7 73.6,0.5 76.4,0.5 C79.2,0.5 81.4,2.7 81.4,5.5 L81.4,105.8 C81.4,108.5 79.2,110.8 76.4,110.8 Z"/><path id="Path" fill="#383A48" d="M429.3,0.5 L357.7,0.5 C356.2,0.5 354.8,1.2 353.8,2.3 C352.9,3.5 352.5,5 352.8,6.5 C361.5,49.6 388.5,86.9 426.9,108.9 C427.7,109.3 428.5,109.6 429.4,109.6 C430.3,109.6 431.1,109.4 431.9,108.9 C433.4,108 434.4,106.4 434.4,104.6 L434.4,5.6 C434.3,2.7 432,0.5 429.3,0.5 Z"/></g><g fill-rule="nonzero" transform="translate(1065.000000, 161.000000)"><polygon id="Path" fill="#E0719E" points="100.1 5.9 129.4 65.3 194.9 74.8 147.5 121 158.7 186.2 100.1 155.4 41.6 186.2 52.8 121 5.4 74.8 70.9 65.3"/><path id="Shape" fill="#383A48" d="M158.7,191.2 C157.9,191.2 157.1,191 156.4,190.6 L100.2,161 L44,190.6 C42.3,191.5 40.3,191.3 38.7,190.2 C37.2,189.1 36.4,187.2 36.7,185.3 L47.4,122.7 L1.9,78.3 C0.5,77 -6.43929354e-15,75 0.6,73.2 C1.2,71.4 2.8,70.1 4.6,69.8 L67.5,60.7 L95.6,3.7 C96.4,2 98.2,0.9 100.1,0.9 C102,0.9 103.7,2 104.6,3.7 L132.7,60.7 L195.6,69.8 C197.5,70.1 199,71.4 199.6,73.2 C200.2,75 199.7,77 198.3,78.3 L152.8,122.7 L163.5,185.3 C163.8,187.2 163.1,189.1 161.5,190.2 C160.8,190.9 159.8,191.2 158.7,191.2 Z M100.1,150.4 C100.9,150.4 101.7,150.6 102.4,151 L152,177.1 L142.5,121.9 C142.2,120.3 142.8,118.6 143.9,117.5 L184,78.4 L128.5,70.3 C126.9,70.1 125.5,69 124.7,67.6 L99.9,17.3 L75.1,67.6 C74.4,69.1 73,70.1 71.3,70.3 L15.8,78.4 L55.9,117.5 C57.1,118.6 57.6,120.3 57.3,121.9 L47.8,177.1 L97.4,151 C98.5,150.6 99.3,150.4 100.1,150.4 Z"/></g><g fill-rule="nonzero" transform="translate(1065.000000, 81.000000)"><polygon id="Path" fill="#F6E049" points="100.1 5.2 129.4 64.5 194.9 74 147.5 120.2 158.7 185.4 100.1 154.6 41.6 185.4 52.8 120.2 5.4 74 70.9 64.5"/><path id="Shape" fill="#383A48" d="M158.7,190.4 C157.9,190.4 157.1,190.2 156.4,189.8 L100.2,160.2 L44,189.8 C42.3,190.7 40.3,190.5 38.7,189.4 C37.2,188.3 36.4,186.4 36.7,184.5 L47.4,121.9 L1.9,77.5 C0.5,76.2 -6.43929354e-15,74.2 0.6,72.4 C1.2,70.6 2.8,69.3 4.6,69 L67.5,59.9 L95.6,2.9 C96.4,1.2 98.2,0.1 100.1,0.1 C102,0.1 103.7,1.2 104.6,2.9 L132.7,59.9 L195.6,69 C197.5,69.3 199,70.6 199.6,72.4 C200.2,74.2 199.7,76.2 198.3,77.5 L152.8,121.9 L163.5,184.5 C163.8,186.4 163.1,188.3 161.5,189.4 C160.8,190.1 159.8,190.4 158.7,190.4 Z M100.1,149.6 C100.9,149.6 101.7,149.8 102.4,150.2 L152,176.3 L142.5,121.1 C142.2,119.5 142.8,117.8 143.9,116.7 L184,77.6 L128.5,69.5 C126.9,69.3 125.5,68.2 124.7,66.8 L99.9,16.5 L75.1,66.8 C74.4,68.3 73,69.3 71.3,69.5 L15.8,77.6 L55.9,116.7 C57.1,117.8 57.6,119.5 57.3,121.1 L47.8,176.3 L97.4,150.2 C98.5,149.8 99.3,149.6 100.1,149.6 Z"/></g><g fill-rule="nonzero" transform="translate(1065.000000, 0.000000)"><polygon id="Path" fill="#F3F6E6" points="100.1 6 129.4 65.3 194.9 74.8 147.5 121 158.7 186.2 100.1 155.5 41.6 186.2 52.8 121 5.4 74.8 70.9 65.3"/><path id="Shape" fill="#383A48" d="M158.7,191.2 C157.9,191.2 157.1,191 156.4,190.6 L100.2,161 L44,190.6 C42.3,191.5 40.3,191.3 38.7,190.2 C37.2,189.1 36.4,187.2 36.7,185.3 L47.4,122.7 L1.9,78.3 C0.5,77 -6.43929354e-15,75 0.6,73.2 C1.2,71.4 2.8,70.1 4.6,69.8 L67.5,60.7 L95.6,3.7 C96.4,2 98.2,0.9 100.1,0.9 C102,0.9 103.7,2 104.6,3.7 L132.7,60.7 L195.6,69.8 C197.5,70.1 199,71.4 199.6,73.2 C200.2,75 199.7,77 198.3,78.3 L152.8,122.7 L163.5,185.3 C163.8,187.2 163.1,189.1 161.5,190.2 C160.8,190.9 159.8,191.2 158.7,191.2 Z M100.1,150.5 C100.9,150.5 101.7,150.7 102.4,151.1 L152,177.2 L142.5,122 C142.2,120.4 142.8,118.7 143.9,117.6 L184,78.5 L128.5,70.4 C126.9,70.2 125.5,69.1 124.7,67.7 L99.9,17.4 L75.1,67.7 C74.4,69.2 73,70.2 71.3,70.4 L15.8,78.5 L55.9,117.6 C57.1,118.7 57.6,120.4 57.3,122 L47.8,177.2 L97.4,151.1 C98.5,150.6 99.3,150.5 100.1,150.5 Z"/></g><path id="Shape" fill="#383A48" fill-rule="nonzero" d="M152.7,549.6 C148.9,549.6 145.5,547.5 143.2,543.8 C138.3,535.6 145,524.2 152.9,516.4 C155.5,513.8 159.2,510.7 164.1,507.5 C161.8,491.7 154.2,470.4 141.7,445 C123.4,407.7 100.6,373.8 86.7,356 C85,353.8 85.4,350.7 87.5,349 C89.7,347.3 92.8,347.7 94.5,349.8 C121.2,383.8 164.7,455.3 173.2,502.2 C176.8,500.4 180.8,498.7 185.2,497.1 C201.5,491.3 220.6,488.3 241.9,488.3 C242,488.3 242,488.3 242.1,488.3 C244.9,488.3 247.1,490.5 247.1,493.3 C247.1,496.1 244.9,498.3 242.1,498.3 C242.1,498.3 242,498.3 241.9,498.3 C209,498.3 187.6,505.6 174.5,512.8 C174.9,519.6 174.4,525.6 172.6,530.6 C170.1,538 162.1,548.6 153.6,549.5 C153.4,549.6 153,549.6 152.7,549.6 Z M164.8,519.3 C162.8,520.9 161.2,522.3 160,523.5 C152.3,531.1 150.9,537.1 151.8,538.7 C152.4,539.7 152.6,539.6 152.8,539.6 C155.6,539.3 161.4,533.2 163.4,527.4 C164.1,525.1 164.6,522.4 164.8,519.3 Z"/><g id="Path" transform="translate(1068.000000, 459.000000)"><line x1="5.3" x2="134.6" y1="5.1" y2="201.3"/><path fill="#383A48" fill-rule="nonzero" d="M134.6,206.3 C133,206.3 131.4,205.5 130.4,204.1 L1.1,8 C-0.4,5.7 0.2,2.6 2.5,1.1 C4.8,-0.4 7.9,0.2 9.4,2.5 L138.7,198.6 C140.2,200.9 139.6,204 137.3,205.5 C136.5,206 135.5,206.3 134.6,206.3 Z"/></g><g><g transform="translate(123.000000, 115.000000)"><line id="Path" x1="3.5" x2="26.8" y1="26.9" y2="3.6"/><rect id="Rectangle" width="33" height="10" x="-1.291" y="10.289" fill="#383A48" fill-rule="nonzero" transform="translate(15.208950, 15.288610) rotate(-45.000000) translate(-15.208950, -15.288610)"/></g><g transform="translate(123.000000, 115.000000)"><line id="Path" x1="26.8" x2="3.5" y1="26.9" y2="3.6"/><rect id="Rectangle" width="10" height="33" x="10.216" y="-1.216" fill="#383A48" fill-rule="nonzero" transform="translate(15.215850, 15.283910) rotate(-45.000000) translate(-15.215850, -15.283910)"/></g></g><g><g transform="translate(952.000000, 377.000000)"><line id="Path" x1="4.5" x2="27.8" y1="26.8" y2="3.5"/><rect id="Rectangle" width="33" height="10" x="-.413" y="10.216" fill="#383A48" fill-rule="nonzero" transform="translate(16.086520, 15.215640) rotate(-44.991897) translate(-16.086520, -15.215640)"/></g><g transform="translate(952.000000, 377.000000)"><line id="Path" x1="27.8" x2="4.5" y1="26.8" y2="3.5"/><rect id="Rectangle" width="10" height="33" x="11.089" y="-1.287" fill="#383A48" fill-rule="nonzero" transform="translate(16.088930, 15.213010) rotate(-45.000000) translate(-16.088930, -15.213010)"/></g></g><g><g transform="translate(1246.000000, 621.000000)"><line id="Path" x1="4.2" x2="27.5" y1="27.7" y2="4.4"/><rect id="Rectangle" width="33" height="10" x="-.741" y="10.993" fill="#383A48" fill-rule="nonzero" transform="translate(15.758960, 15.992900) rotate(-44.991897) translate(-15.758960, -15.992900)"/></g><g transform="translate(1246.000000, 621.000000)"><line id="Path" x1="27.5" x2="4.2" y1="27.7" y2="4.4"/><rect id="Rectangle" width="10" height="33" x="10.762" y="-.51" fill="#383A48" fill-rule="nonzero" transform="translate(15.762180, 15.990020) rotate(-45.000000) translate(-15.762180, -15.990020)"/></g></g><g><g transform="translate(288.000000, 569.000000)"><line id="Path" x1="4.2" x2="27.5" y1="27.3" y2="4"/><rect id="Rectangle" width="33" height="10" x="-.606" y="10.696" fill="#383A48" fill-rule="nonzero" transform="translate(15.894060, 15.696080) rotate(-45.000000) translate(-15.894060, -15.696080)"/></g><g transform="translate(288.000000, 569.000000)"><line id="Path" x1="27.5" x2="4.2" y1="27.3" y2="4"/><rect id="Rectangle" width="10" height="33" x="10.894" y="-.804" fill="#383A48" fill-rule="nonzero" transform="translate(15.894160, 15.695580) rotate(-45.000000) translate(-15.894160, -15.695580)"/></g></g></g></g></g></svg>