<?xml version="1.0" encoding="utf-8"?>
<!-- Generator: Adobe Illustrator 22.0.1, SVG Export Plug-In . SVG Version: 6.00 Build 0)  -->
<svg version="1.1" id="Layer_1" xmlns="http://www.w3.org/2000/svg" xmlns:xlink="http://www.w3.org/1999/xlink" x="0px" y="0px" viewBox="0 0 1920 1080" style="enable-background:new 0 0 1920 1080;" xml:space="preserve">

<rect y="0" width="1920" height="1080" style="fill:#E0719E;"/>
<g>
	<path d="M1011.8,150c-0.9-1.4-2.5-2.3-4.2-2.3h-804c-2.8,0-5,2.2-5,5v772.7c0,2.8,2.2,5,5,5s5-2.2,5-5
		c0-87.5,78.5-137,154.4-184.9C425.5,701,484.6,663.8,500,607c49.2-181,149.2-213,255.1-246.8c95.3-30.4,193.8-61.9,257-205.5
		C1012.8,153.2,1012.7,151.4,1011.8,150z" style="fill:#F3F6E6;"/>
	<path d="M1716.7,147.7c-2.6-0.2-4.9,1.7-5.3,4.3c-9.5,66.1-34,85.6-65,110.3c-28.1,22.4-60,47.7-87.6,113.1
		c-6.3,14.9-11.1,34.5-16.6,57.1c-10.2,41.8-22.9,93.7-51.8,140.3c-30.6,49.3-73.2,83.2-130.3,103.7c-39.9,14.3-82.1,26.4-123,38.2
		c-94.7,27.2-192.6,55.2-262.8,111.9c-33.8,27.3-59,58.9-76.9,96.7c-0.7,1.5-0.6,3.4,0.3,4.8c0.9,1.4,2.5,2.3,4.2,2.3h814.4
		c2.8,0,5-2.2,5-5V152.7C1721.4,150.1,1719.4,147.9,1716.7,147.7z" style="fill:#F3F6E6;"/>
	<g>
		<g>
			<g>
				<circle cx="1486.3" cy="591.5" r="4.8" style="fill:#383A48;"/>
			</g>
		</g>
		<g>
			<g>
				<circle cx="1486.3" cy="615.2" r="4.8" style="fill:#383A48;"/>
			</g>
		</g>
		<g>
			<g>
				<circle cx="1486.3" cy="638.8" r="4.8" style="fill:#383A48;"/>
			</g>
		</g>
		<g>
			<g>
				<circle cx="1486.3" cy="662.5" r="4.8" style="fill:#383A48;"/>
			</g>
		</g>
		<g>
			<g>
				<circle cx="1486.3" cy="686.2" r="4.8" style="fill:#383A48;"/>
			</g>
		</g>
		<g>
			<g>
				<circle cx="1486.3" cy="709.9" r="4.8" style="fill:#383A48;"/>
			</g>
		</g>
		<g>
			<g>
				<circle cx="1486.3" cy="733.6" r="4.8" style="fill:#383A48;"/>
			</g>
		</g>
		<g>
			<g>
				<circle cx="1486.3" cy="757.3" r="4.8" style="fill:#383A48;"/>
			</g>
		</g>
		<g>
			<g>
				<circle cx="1486.3" cy="780.9" r="4.8" style="fill:#383A48;"/>
			</g>
		</g>
		<g>
			<g>
				<circle cx="1486.3" cy="804.6" r="4.8" style="fill:#383A48;"/>
			</g>
		</g>
		<g>
			<g>
				<circle cx="1486.3" cy="828.3" r="4.8" style="fill:#383A48;"/>
			</g>
		</g>
		<g>
			<g>
				<circle cx="1462.7" cy="591.5" r="4.8" style="fill:#383A48;"/>
			</g>
		</g>
		<g>
			<g>
				<circle cx="1462.7" cy="615.2" r="4.8" style="fill:#383A48;"/>
			</g>
		</g>
		<g>
			<g>
				<circle cx="1462.7" cy="638.8" r="4.8" style="fill:#383A48;"/>
			</g>
		</g>
		<g>
			<g>
				<circle cx="1462.7" cy="662.5" r="4.8" style="fill:#383A48;"/>
			</g>
		</g>
		<g>
			<g>
				<circle cx="1462.7" cy="686.2" r="4.8" style="fill:#383A48;"/>
			</g>
		</g>
		<g>
			<g>
				<circle cx="1462.7" cy="709.9" r="4.8" style="fill:#383A48;"/>
			</g>
		</g>
		<g>
			<g>
				<circle cx="1462.7" cy="733.6" r="4.8" style="fill:#383A48;"/>
			</g>
		</g>
		<g>
			<g>
				<circle cx="1462.7" cy="757.3" r="4.8" style="fill:#383A48;"/>
			</g>
		</g>
		<g>
			<g>
				<circle cx="1462.7" cy="780.9" r="4.8" style="fill:#383A48;"/>
			</g>
		</g>
		<g>
			<g>
				<circle cx="1462.7" cy="804.6" r="4.8" style="fill:#383A48;"/>
			</g>
		</g>
		<g>
			<g>
				<circle cx="1462.7" cy="828.3" r="4.8" style="fill:#383A48;"/>
			</g>
		</g>
		<g>
			<g>
				<circle cx="1439" cy="591.5" r="4.8" style="fill:#383A48;"/>
			</g>
		</g>
		<g>
			<g>
				<circle cx="1439" cy="615.2" r="4.8" style="fill:#383A48;"/>
			</g>
		</g>
		<g>
			<g>
				<circle cx="1439" cy="638.8" r="4.8" style="fill:#383A48;"/>
			</g>
		</g>
		<g>
			<g>
				<circle cx="1439" cy="662.5" r="4.8" style="fill:#383A48;"/>
			</g>
		</g>
		<g>
			<g>
				<circle cx="1439" cy="686.2" r="4.8" style="fill:#383A48;"/>
			</g>
		</g>
		<g>
			<g>
				<circle cx="1439" cy="709.9" r="4.8" style="fill:#383A48;"/>
			</g>
		</g>
		<g>
			<g>
				<circle cx="1439" cy="733.6" r="4.8" style="fill:#383A48;"/>
			</g>
		</g>
		<g>
			<g>
				<circle cx="1439" cy="757.3" r="4.8" style="fill:#383A48;"/>
			</g>
		</g>
		<g>
			<g>
				<circle cx="1439" cy="780.9" r="4.8" style="fill:#383A48;"/>
			</g>
		</g>
		<g>
			<g>
				<circle cx="1439" cy="804.6" r="4.8" style="fill:#383A48;"/>
			</g>
		</g>
		<g>
			<g>
				<circle cx="1439" cy="828.3" r="4.8" style="fill:#383A48;"/>
			</g>
		</g>
		<g>
			<g>
				<circle cx="1415.3" cy="615.2" r="4.8" style="fill:#383A48;"/>
			</g>
		</g>
		<g>
			<g>
				<circle cx="1415.3" cy="638.8" r="4.8" style="fill:#383A48;"/>
			</g>
		</g>
		<g>
			<g>
				<circle cx="1415.3" cy="662.5" r="4.8" style="fill:#383A48;"/>
			</g>
		</g>
		<g>
			<g>
				<circle cx="1415.3" cy="686.2" r="4.8" style="fill:#383A48;"/>
			</g>
		</g>
		<g>
			<g>
				<circle cx="1415.3" cy="709.9" r="4.8" style="fill:#383A48;"/>
			</g>
		</g>
		<g>
			<g>
				<circle cx="1415.3" cy="733.6" r="4.8" style="fill:#383A48;"/>
			</g>
		</g>
		<g>
			<g>
				<circle cx="1415.3" cy="757.3" r="4.8" style="fill:#383A48;"/>
			</g>
		</g>
		<g>
			<g>
				<circle cx="1415.3" cy="780.9" r="4.8" style="fill:#383A48;"/>
			</g>
		</g>
		<g>
			<g>
				<circle cx="1415.3" cy="804.6" r="4.8" style="fill:#383A48;"/>
			</g>
		</g>
		<g>
			<g>
				<circle cx="1415.3" cy="828.3" r="4.8" style="fill:#383A48;"/>
			</g>
		</g>
		<g>
			<g>
				<circle cx="1391.6" cy="638.8" r="4.8" style="fill:#383A48;"/>
			</g>
		</g>
		<g>
			<g>
				<circle cx="1391.6" cy="662.5" r="4.8" style="fill:#383A48;"/>
			</g>
		</g>
		<g>
			<g>
				<circle cx="1391.6" cy="686.2" r="4.8" style="fill:#383A48;"/>
			</g>
		</g>
		<g>
			<g>
				<circle cx="1391.6" cy="709.9" r="4.8" style="fill:#383A48;"/>
			</g>
		</g>
		<g>
			<g>
				<circle cx="1391.6" cy="733.6" r="4.8" style="fill:#383A48;"/>
			</g>
		</g>
		<g>
			<g>
				<circle cx="1391.6" cy="757.3" r="4.8" style="fill:#383A48;"/>
			</g>
		</g>
		<g>
			<g>
				<circle cx="1391.6" cy="780.9" r="4.8" style="fill:#383A48;"/>
			</g>
		</g>
		<g>
			<g>
				<circle cx="1391.6" cy="804.6" r="4.8" style="fill:#383A48;"/>
			</g>
		</g>
		<g>
			<g>
				<circle cx="1391.6" cy="828.3" r="4.8" style="fill:#383A48;"/>
			</g>
		</g>
		<g>
			<g>
				<circle cx="1367.9" cy="662.5" r="4.8" style="fill:#383A48;"/>
			</g>
		</g>
		<g>
			<g>
				<circle cx="1367.9" cy="686.2" r="4.8" style="fill:#383A48;"/>
			</g>
		</g>
		<g>
			<g>
				<circle cx="1367.9" cy="709.9" r="4.8" style="fill:#383A48;"/>
			</g>
		</g>
		<g>
			<g>
				<circle cx="1367.9" cy="733.6" r="4.8" style="fill:#383A48;"/>
			</g>
		</g>
		<g>
			<g>
				<circle cx="1367.9" cy="757.3" r="4.8" style="fill:#383A48;"/>
			</g>
		</g>
		<g>
			<g>
				<circle cx="1367.9" cy="780.9" r="4.8" style="fill:#383A48;"/>
			</g>
		</g>
		<g>
			<g>
				<circle cx="1367.9" cy="804.6" r="4.8" style="fill:#383A48;"/>
			</g>
		</g>
		<g>
			<g>
				<circle cx="1367.9" cy="828.3" r="4.8" style="fill:#383A48;"/>
			</g>
		</g>
		<g>
			<g>
				<circle cx="1344.2" cy="662.5" r="4.8" style="fill:#383A48;"/>
			</g>
		</g>
		<g>
			<g>
				<circle cx="1344.2" cy="686.2" r="4.8" style="fill:#383A48;"/>
			</g>
		</g>
		<g>
			<g>
				<circle cx="1344.2" cy="709.9" r="4.8" style="fill:#383A48;"/>
			</g>
		</g>
		<g>
			<g>
				<circle cx="1344.2" cy="733.6" r="4.8" style="fill:#383A48;"/>
			</g>
		</g>
		<g>
			<g>
				<circle cx="1344.2" cy="757.3" r="4.8" style="fill:#383A48;"/>
			</g>
		</g>
		<g>
			<g>
				<circle cx="1344.2" cy="780.9" r="4.8" style="fill:#383A48;"/>
			</g>
		</g>
		<g>
			<g>
				<circle cx="1344.2" cy="804.6" r="4.8" style="fill:#383A48;"/>
			</g>
		</g>
		<g>
			<g>
				<circle cx="1344.2" cy="828.3" r="4.8" style="fill:#383A48;"/>
			</g>
		</g>
		<g>
			<g>
				<circle cx="1320.6" cy="686.2" r="4.8" style="fill:#383A48;"/>
			</g>
		</g>
		<g>
			<g>
				<circle cx="1320.6" cy="709.9" r="4.8" style="fill:#383A48;"/>
			</g>
		</g>
		<g>
			<g>
				<circle cx="1320.6" cy="733.6" r="4.8" style="fill:#383A48;"/>
			</g>
		</g>
		<g>
			<g>
				<circle cx="1320.6" cy="757.3" r="4.8" style="fill:#383A48;"/>
			</g>
		</g>
		<g>
			<g>
				<circle cx="1320.6" cy="780.9" r="4.8" style="fill:#383A48;"/>
			</g>
		</g>
		<g>
			<g>
				<circle cx="1320.6" cy="804.6" r="4.8" style="fill:#383A48;"/>
			</g>
		</g>
		<g>
			<g>
				<circle cx="1320.6" cy="828.3" r="4.8" style="fill:#383A48;"/>
			</g>
		</g>
		<g>
			<g>
				<circle cx="1296.9" cy="686.2" r="4.8" style="fill:#383A48;"/>
			</g>
		</g>
		<g>
			<g>
				<circle cx="1296.9" cy="709.9" r="4.8" style="fill:#383A48;"/>
			</g>
		</g>
		<g>
			<g>
				<circle cx="1296.9" cy="733.6" r="4.8" style="fill:#383A48;"/>
			</g>
		</g>
		<g>
			<g>
				<circle cx="1296.9" cy="757.3" r="4.8" style="fill:#383A48;"/>
			</g>
		</g>
		<g>
			<g>
				<circle cx="1296.9" cy="780.9" r="4.8" style="fill:#383A48;"/>
			</g>
		</g>
		<g>
			<g>
				<circle cx="1296.9" cy="804.6" r="4.8" style="fill:#383A48;"/>
			</g>
		</g>
		<g>
			<g>
				<circle cx="1296.9" cy="828.3" r="4.8" style="fill:#383A48;"/>
			</g>
		</g>
		<g>
			<g>
				<circle cx="1273.2" cy="709.9" r="4.8" style="fill:#383A48;"/>
			</g>
		</g>
		<g>
			<g>
				<circle cx="1273.2" cy="733.6" r="4.8" style="fill:#383A48;"/>
			</g>
		</g>
		<g>
			<g>
				<circle cx="1273.2" cy="757.3" r="4.8" style="fill:#383A48;"/>
			</g>
		</g>
		<g>
			<g>
				<circle cx="1273.2" cy="780.9" r="4.8" style="fill:#383A48;"/>
			</g>
		</g>
		<g>
			<g>
				<circle cx="1273.2" cy="804.6" r="4.8" style="fill:#383A48;"/>
			</g>
		</g>
		<g>
			<g>
				<circle cx="1273.2" cy="828.3" r="4.8" style="fill:#383A48;"/>
			</g>
		</g>
		<g>
			<g>
				<circle cx="1249.5" cy="709.9" r="4.8" style="fill:#383A48;"/>
			</g>
		</g>
		<g>
			<g>
				<circle cx="1249.5" cy="733.6" r="4.8" style="fill:#383A48;"/>
			</g>
		</g>
		<g>
			<g>
				<circle cx="1249.5" cy="757.3" r="4.8" style="fill:#383A48;"/>
			</g>
		</g>
		<g>
			<g>
				<circle cx="1249.5" cy="780.9" r="4.8" style="fill:#383A48;"/>
			</g>
		</g>
		<g>
			<g>
				<circle cx="1249.5" cy="804.6" r="4.8" style="fill:#383A48;"/>
			</g>
		</g>
		<g>
			<g>
				<circle cx="1249.5" cy="828.3" r="4.8" style="fill:#383A48;"/>
			</g>
		</g>
		<g>
			<g>
				<circle cx="1225.8" cy="709.9" r="4.8" style="fill:#383A48;"/>
			</g>
		</g>
		<g>
			<g>
				<circle cx="1225.8" cy="733.6" r="4.8" style="fill:#383A48;"/>
			</g>
		</g>
		<g>
			<g>
				<circle cx="1225.8" cy="757.3" r="4.8" style="fill:#383A48;"/>
			</g>
		</g>
		<g>
			<g>
				<circle cx="1225.8" cy="780.9" r="4.8" style="fill:#383A48;"/>
			</g>
		</g>
		<g>
			<g>
				<circle cx="1225.8" cy="804.6" r="4.8" style="fill:#383A48;"/>
			</g>
		</g>
		<g>
			<g>
				<circle cx="1225.8" cy="828.3" r="4.8" style="fill:#383A48;"/>
			</g>
		</g>
		<g>
			<g>
				<circle cx="1202.1" cy="733.6" r="4.8" style="fill:#383A48;"/>
			</g>
		</g>
		<g>
			<g>
				<circle cx="1202.1" cy="757.3" r="4.8" style="fill:#383A48;"/>
			</g>
		</g>
		<g>
			<g>
				<circle cx="1202.1" cy="780.9" r="4.8" style="fill:#383A48;"/>
			</g>
		</g>
		<g>
			<g>
				<circle cx="1202.1" cy="804.6" r="4.8" style="fill:#383A48;"/>
			</g>
		</g>
		<g>
			<g>
				<circle cx="1202.1" cy="828.3" r="4.8" style="fill:#383A48;"/>
			</g>
		</g>
		<g>
			<g>
				<circle cx="1178.5" cy="733.6" r="4.8" style="fill:#383A48;"/>
			</g>
		</g>
		<g>
			<g>
				<circle cx="1178.5" cy="757.3" r="4.8" style="fill:#383A48;"/>
			</g>
		</g>
		<g>
			<g>
				<circle cx="1178.5" cy="780.9" r="4.8" style="fill:#383A48;"/>
			</g>
		</g>
		<g>
			<g>
				<circle cx="1178.5" cy="804.6" r="4.8" style="fill:#383A48;"/>
			</g>
		</g>
		<g>
			<g>
				<circle cx="1178.5" cy="828.3" r="4.8" style="fill:#383A48;"/>
			</g>
		</g>
		<g>
			<g>
				<circle cx="1154.8" cy="757.3" r="4.8" style="fill:#383A48;"/>
			</g>
		</g>
		<g>
			<g>
				<circle cx="1154.8" cy="780.9" r="4.8" style="fill:#383A48;"/>
			</g>
		</g>
		<g>
			<g>
				<circle cx="1154.8" cy="804.6" r="4.8" style="fill:#383A48;"/>
			</g>
		</g>
		<g>
			<g>
				<circle cx="1154.8" cy="828.3" r="4.8" style="fill:#383A48;"/>
			</g>
		</g>
		<g>
			<g>
				<circle cx="1131.1" cy="757.3" r="4.8" style="fill:#383A48;"/>
			</g>
		</g>
		<g>
			<g>
				<circle cx="1131.1" cy="780.9" r="4.8" style="fill:#383A48;"/>
			</g>
		</g>
		<g>
			<g>
				<circle cx="1131.1" cy="804.6" r="4.8" style="fill:#383A48;"/>
			</g>
		</g>
		<g>
			<g>
				<circle cx="1131.1" cy="828.3" r="4.8" style="fill:#383A48;"/>
			</g>
		</g>
		<g>
			<g>
				<circle cx="1107.4" cy="757.3" r="4.8" style="fill:#383A48;"/>
			</g>
		</g>
		<g>
			<g>
				<circle cx="1107.4" cy="780.9" r="4.8" style="fill:#383A48;"/>
			</g>
		</g>
		<g>
			<g>
				<circle cx="1107.4" cy="804.6" r="4.8" style="fill:#383A48;"/>
			</g>
		</g>
		<g>
			<g>
				<circle cx="1107.4" cy="828.3" r="4.8" style="fill:#383A48;"/>
			</g>
		</g>
		<g>
			<g>
				<circle cx="1083.7" cy="780.9" r="4.8" style="fill:#383A48;"/>
			</g>
		</g>
		<g>
			<g>
				<circle cx="1083.7" cy="804.6" r="4.8" style="fill:#383A48;"/>
			</g>
		</g>
		<g>
			<g>
				<circle cx="1083.7" cy="828.3" r="4.8" style="fill:#383A48;"/>
			</g>
		</g>
		<g>
			<g>
				<circle cx="1060" cy="780.9" r="4.8" style="fill:#383A48;"/>
			</g>
		</g>
		<g>
			<g>
				<circle cx="1060" cy="804.6" r="4.8" style="fill:#383A48;"/>
			</g>
		</g>
		<g>
			<g>
				<circle cx="1060" cy="828.3" r="4.8" style="fill:#383A48;"/>
			</g>
		</g>
		<g>
			<g>
				<circle cx="1036.4" cy="804.6" r="4.8" style="fill:#383A48;"/>
			</g>
		</g>
		<g>
			<g>
				<circle cx="1036.4" cy="828.3" r="4.8" style="fill:#383A48;"/>
			</g>
		</g>
		<g>
			<g>
				<circle cx="1012.7" cy="804.6" r="4.8" style="fill:#383A48;"/>
			</g>
		</g>
		<g>
			<g>
				<circle cx="1012.7" cy="828.3" r="4.8" style="fill:#383A48;"/>
			</g>
		</g>
		<g>
			<g>
				<circle cx="989" cy="828.3" r="4.8" style="fill:#383A48;"/>
			</g>
		</g>
	</g>
	<g>
		<path d="M639.3,930.4H521.5c-2.8,0-5-2.2-5-5s2.2-5,5-5h117.8c2.8,0,5,2.2,5,5S642.1,930.4,639.3,930.4z" style="fill:#383A48;"/>
	</g>
	<g>
		<path d="M990.7,776.7c-25.4,55.1-66.4,69.3-88.8,148.7H623.8c17.7-34.8,24.2-70.7,26.1-100c1-16.7,4.1-33,9.1-48.7
			c9-28.3,24.2-54.4,44.9-76.2l103-108.7c0,0,204.5-28.2,205.8,36.3C1014.1,702.5,1004.9,746,990.7,776.7z" style="fill:#F6E049;"/>
		<path d="M902,930.4H623.8c-1.7,0-3.4-0.9-4.3-2.4s-1-3.3-0.2-4.9c14.7-29,23.3-62,25.5-98.1c1.1-17,4.2-33.8,9.3-49.9
			c9.2-29.1,25.2-56.2,46-78.2l103-108.7c0.8-0.8,1.8-1.4,2.9-1.5c6.3-0.9,155.7-21,199.1,16.1c8,6.9,12.2,15.3,12.4,25.1
			c1.3,66.8-5.8,114.7-22.4,150.8l0,0c-10.6,22.9-24,39.2-37,55c-18.9,23-38.5,46.8-51.5,93C906.2,928.9,904.2,930.4,902,930.4z
			 M631.8,920.4h266.4c13.6-45.8,33.3-69.8,52.4-93c13.2-16,25.6-31.1,35.6-52.8l0,0c21-45.5,22.3-105.4,21.5-146.4
			c-0.1-6.9-3-12.7-8.9-17.7c-37.7-32.2-172.6-16.1-189.5-14L707.4,703.9c-19.8,20.9-35,46.6-43.7,74.3c-4.9,15.3-7.8,31.3-8.8,47.5
			C652.7,860.2,644.9,892,631.8,920.4z" style="fill:#383A48;"/>
	</g>
	<path d="M1017.6,627.9c-0.2-9.8-4.4-18.2-12.4-25.1c-43.4-37-192.8-16.9-199.1-16.1c-1.1,0.2-2.2,0.7-2.9,1.5
		L700.2,697c-20.9,22-36.8,49-46,78.2c-0.5,1.5-0.2,3.2,0.7,4.5s2.4,2,4,2h331.8c2,0,3.7-1.1,4.5-2.9
		C1011.9,742.7,1019,694.8,1017.6,627.9z" style="fill:#383A48;"/>
	<g>
		<path d="M1716.4,573V352.8c-132.9,70.6-284.2-47.5-492.5,109.9c-53.1,40.1,107.6,186.7,107.6,186.7l154.1,9.5
			c48.1,3,95.6-11.5,134.5-40.1C1644.5,600.7,1677.2,582.1,1716.4,573z" style="fill:#F6E049;"/>
		<path d="M1497.9,664.1c-4.2,0-8.4-0.1-12.6-0.4l-154.1-9.5c-1.1-0.1-2.2-0.5-3.1-1.3c-5-4.6-122.6-112.5-120-169.6
			c0.5-10.4,4.7-18.7,12.7-24.7c125.6-94.9,230.6-90.8,323.3-87.1c63,2.5,117.5,4.7,169.9-23.2c1.6-0.8,3.4-0.8,4.9,0.1
			s2.4,2.5,2.4,4.3V573c0,2.3-1.6,4.3-3.9,4.9c-32.7,7.6-64.4,22.7-94.5,44.8C1586.5,649.6,1542.5,664.1,1497.9,664.1z
			 M1333.6,644.4l152.3,9.4c46.5,2.9,93.1-11,131.2-39.1c29.9-22.1,61.6-37.4,94.3-45.6V360.9c-52.7,25.2-108.6,23-167.6,20.6
			c-91-3.6-194.1-7.7-316.8,85.1c-5.5,4.2-8.4,9.8-8.7,17.2c-1,21.3,18.7,55.9,56.9,100C1301.1,613.8,1327.6,638.8,1333.6,644.4z" style="fill:#383A48;"/>
	</g>
	<g>
		<path d="M386.4,152.7h282.3l182.4,276.9l-246.5,49.2L488.9,376.5c-36.1-32-59.5-75.7-66.7-123.4
			C417.6,223.1,407.6,186.9,386.4,152.7z" style="fill:#F6E049;"/>
		<path d="M604.5,483.8c-1.2,0-2.4-0.4-3.3-1.3L485.6,380.2c-36.7-32.4-60.9-77.3-68.4-126.4
			c-5.6-36.9-17.4-70-35.1-98.5c-1-1.5-1-3.5-0.1-5.1s2.6-2.6,4.4-2.6h282.3c1.7,0,3.2,0.8,4.2,2.2l182.4,276.9
			c0.9,1.4,1.1,3.1,0.4,4.7c-0.6,1.5-2,2.7-3.6,3l-246.5,49.2C605.2,483.7,604.9,483.8,604.5,483.8z M395.2,157.7
			c15.9,27.9,26.7,59.6,31.9,94.6c7.1,46.8,30.2,89.5,65.1,120.4L606,473.4l236.8-47.2L666,157.7H395.2z" style="fill:#383A48;"/>
	</g>
	<g>
		<g>
			<g>
				<rect x="559.9" y="333.3" width="855.7" height="403.5" style="fill:#7FD6C2;"/>
			</g>
			<g>
				<path d="M1415.6,741.8H559.9c-2.8,0-5-2.2-5-5V333.3c0-2.8,2.2-5,5-5h855.7c2.8,0,5,2.2,5,5v403.5
					C1420.6,739.6,1418.4,741.8,1415.6,741.8z M564.9,731.8h845.7V338.3H564.9V731.8z" style="fill:#383A48;"/>
			</g>
		</g>
		<g>
			<g>
				<rect x="604.5" y="373.2" width="766.5" height="323.7" style="fill:#7FD6C2;"/>
			</g>
			<g>
				<path d="M1371,701.9H604.5c-2.8,0-5-2.2-5-5V373.2c0-2.8,2.2-5,5-5H1371c2.8,0,5,2.2,5,5v323.7
					C1376,699.7,1373.8,701.9,1371,701.9z M609.5,691.9H1366V378.2H609.5V691.9z" style="fill:#383A48;"/>
			</g>
		</g>
		<g>
			<path d="M1315,463.7h-68.3c-16.9,0-30.6-13.7-30.6-30.6l0,0c0-16.9,13.7-30.6,30.6-30.6h68.3
				c16.9,0,30.6,13.7,30.6,30.6l0,0C1345.6,450,1331.9,463.7,1315,463.7z" style="fill:#F3F6E6;"/>
		</g>
		<g>
			<path d="M660.6,606.4h68.3c16.9,0,30.6,13.7,30.6,30.6l0,0c0,16.9-13.7,30.6-30.6,30.6h-68.3
				c-16.9,0-30.6-13.7-30.6-30.6l0,0C629.9,620.1,643.7,606.4,660.6,606.4z" style="fill:#F3F6E6;"/>
		</g>
		<g>
			<g>
				<circle cx="987.8" cy="535.1" r="111.8" style="fill:#F6E049;"/>
				<path d="M987.8,651.8C923.4,651.8,871,599.4,871,535s52.4-116.8,116.8-116.8s116.8,52.4,116.8,116.8
					C1104.6,599.5,1052.2,651.8,987.8,651.8z M987.8,428.3c-58.9,0-106.8,47.9-106.8,106.8s47.9,106.8,106.8,106.8
					s106.8-47.9,106.8-106.8S1046.7,428.3,987.8,428.3z" style="fill:#383A48;"/>
			</g>
			<g>
				<circle cx="952" cy="518.8" r="12" style="fill:#383A48;"/>
			</g>
			<g>
				<circle cx="1023.5" cy="518.8" r="12" style="fill:#383A48;"/>
			</g>
			<g>
				<path d="M1023.5,563.7H952c-2.8,0-5-2.2-5-5s2.2-5,5-5h71.5c2.8,0,5,2.2,5,5S1026.3,563.7,1023.5,563.7z" style="fill:#383A48;"/>
			</g>
		</g>
		<g>
			<g>
				<g>
					<circle cx="1189.7" cy="535.1" r="36.3" style="fill:#7FD6C2;"/>
				</g>
				<g>
					<path d="M1189.7,576.4c-22.8,0-41.3-18.5-41.3-41.3s18.5-41.3,41.3-41.3s41.3,18.5,41.3,41.3
						C1231,557.8,1212.4,576.4,1189.7,576.4z M1189.7,503.7c-17.3,0-31.3,14.1-31.3,31.3s14.1,31.3,31.3,31.3s31.3-14.1,31.3-31.3
						S1206.9,503.7,1189.7,503.7z" style="fill:#383A48;"/>
				</g>
			</g>
			<g>
				<path d="M1153.3,535.1c24.7,24.7,47.1-25.6,72.6,0" style="fill:#7FD6C2;"/>
				<path d="M1168.4,547.1c-6,0-12.3-2.2-18.6-8.5l7.1-7.1c9.2,9.2,16.9,5.8,29.8-1c12.2-6.4,27.3-14.5,42.8,1l-7.1,7.1
					c-9.8-9.8-18.2-6.1-31.1,0.7C1184.5,542.9,1176.6,547.1,1168.4,547.1z" style="fill:#383A48;"/>
			</g>
		</g>
		<g>
			<g>
				<g>
					<circle cx="785.9" cy="535.1" r="36.3" style="fill:#7FD6C2;"/>
				</g>
				<g>
					<path d="M785.9,576.4c-22.8,0-41.3-18.5-41.3-41.3s18.5-41.3,41.3-41.3s41.3,18.5,41.3,41.3
						C827.2,557.8,808.7,576.4,785.9,576.4z M785.9,503.7c-17.3,0-31.3,14.1-31.3,31.3s14.1,31.3,31.3,31.3s31.3-14.1,31.3-31.3
						S803.2,503.7,785.9,503.7z" style="fill:#383A48;"/>
				</g>
			</g>
			<g>
				<path d="M822.2,535.1c-24.7,24.7-47.1-25.6-72.6,0" style="fill:#7FD6C2;"/>
				<path d="M807.2,547.1c-8.3,0-16.1-4.1-23-7.8c-12.9-6.8-21.3-10.5-31.1-0.7l-7.1-7.1c15.5-15.5,30.7-7.5,42.8-1
					c12.9,6.8,20.6,10.2,29.8,1l7.1,7.1C819.5,544.9,813.2,547.1,807.2,547.1z" style="fill:#383A48;"/>
			</g>
		</g>
	</g>
	<g>
		<path d="M675.8,231l72.6,147.2c12.7,25.7,2.1,56.8-23.6,69.4l0,0c-25.7,12.7-56.8,2.1-69.4-23.6l-53.8-109" style="fill:#F6E049;"/>
		<path d="M701.9,458c-6.2,0-12.3-1-18.3-3c-14.4-4.9-26-15.1-32.7-28.7l-53.8-109.1c-1.2-2.5-0.2-5.5,2.3-6.7
			s5.5-0.2,6.7,2.3l53.8,109.1C668,438.4,684.7,448,702,448c7,0,14-1.6,20.6-4.8c11.2-5.5,19.6-15.1,23.6-27
			c4-11.8,3.2-24.6-2.3-35.8l-72.6-147.2c-1.2-2.5-0.2-5.5,2.3-6.7s5.5-0.2,6.7,2.3L752.9,376c6.7,13.6,7.7,29,2.8,43.4
			s-15.1,26-28.7,32.7C719.1,456.1,710.5,458,701.9,458z" style="fill:#383A48;"/>
	</g>
	<g>
		<path d="M1449.1,416.4L1316,461.6c-27.1,9.2-41.6,38.6-32.4,65.8l0,0c9.2,27.1,38.6,41.6,65.8,32.4l59.4-20.2
			c28.7-9.8,60.4-6.8,86.6,8.5c20.6,12,50.8,19.2,88.1-1.3" style="fill:#F6E049;"/>
		<path d="M1332.6,567.6c-8.6,0-17.2-2-25.1-5.9c-13.6-6.7-23.8-18.3-28.7-32.7c-10.1-29.7,5.9-62,35.6-72.1l133.1-45.2
			c2.6-0.9,5.5,0.5,6.3,3.1c0.9,2.6-0.5,5.5-3.1,6.3l-133.1,45.2c-11.8,4-21.4,12.4-27,23.6s-6.4,23.9-2.3,35.8
			c4,11.8,12.4,21.4,23.6,27c11.2,5.5,23.9,6.4,35.8,2.3l59.4-20.2c30.2-10.3,63.3-7,90.7,8.9c26.1,15.1,54.1,14.7,83.2-1.4
			c2.4-1.3,5.5-0.4,6.8,2s0.4,5.5-2,6.8c-40.4,22.2-72.9,12.9-93.1,1.3c-24.9-14.5-55-17.4-82.5-8.1l-59.4,20.2
			C1345,566.6,1338.8,567.6,1332.6,567.6z" style="fill:#383A48;"/>
	</g>
	<g>
		<path d="M912.2,810.1l43.9-113c10.1-25.9-2.8-55-28.7-65.1l0,0c-25.9-10.1-55,2.8-65.1,28.7l-22,56.7
			c-10.7,27.5-32.6,49.1-60.3,59.1c-21.8,7.9-45.9,25.9-53.9,66.3" style="fill:#F6E049;"/>
		<path d="M726,848c-0.3,0-0.6,0-1-0.1c-2.7-0.5-4.5-3.2-3.9-5.9c8.7-44,35.9-62.4,57.1-70.1
			c26.2-9.5,47.1-30,57.3-56.2l22-56.7c11-28.4,43.1-42.6,71.5-31.5c28.4,11,42.6,43.1,31.5,71.6l-43.9,113c-1,2.6-3.9,3.8-6.5,2.9
			c-2.6-1-3.9-3.9-2.9-6.5l43.9-113c9-23.3-2.5-49.6-25.8-58.6s-49.6,2.5-58.6,25.8l-22,56.7c-11.2,28.9-34.3,51.5-63.2,62
			c-27.4,9.9-44.5,31-50.7,62.6C730.5,846.3,728.4,848,726,848z" style="fill:#383A48;"/>
	</g>
	<g>
		<g>
			<path d="M360,412.2v19.3c-3.4-0.5-7-0.7-10.6-0.7c-43.2,0-78.2,35-78.2,78.2v59.6c-38.2-5.2-67.6-37.9-67.6-77.5
				v-78.8c0-43.2,35-78.2,78.2-78.2c21.6,0,41.1,8.8,55.3,22.9C351.2,371.1,360,390.6,360,412.2z" style="fill:#F3F6E6;"/>
			<path d="M271.2,573.5c-0.2,0-0.4,0-0.7,0c-41-5.5-72-41-72-82.4v-78.8c0-45.9,37.3-83.2,83.2-83.2
				c22.2,0,43.1,8.7,58.8,24.4c15.7,15.7,24.4,36.6,24.4,58.8v19.3c0,1.4-0.6,2.8-1.7,3.8c-1.1,0.9-2.5,1.4-4,1.2
				c-3.2-0.4-6.6-0.7-9.9-0.7c-40.4,0-73.2,32.8-73.2,73.2v59.6c0,1.4-0.6,2.8-1.7,3.8C273.6,573.1,272.5,573.5,271.2,573.5z
				 M281.8,339c-40.4,0-73.2,32.8-73.2,73.2V491c0,34.5,24.4,64.3,57.6,71.5V509c0-45.9,37.3-83.2,83.2-83.2c1.9,0,3.7,0.1,5.6,0.2
				v-13.7c0-19.5-7.6-37.9-21.4-51.7C319.7,346.6,301.3,339,281.8,339z" style="fill:#383A48;"/>
		</g>
		<g>
			<path d="M360,431.5v59.6c0,43.2-35,78.2-78.2,78.2c-3.6,0-7.1-0.2-10.6-0.7V509c0-43.2,35-78.2,78.2-78.2
				C353,430.8,356.5,431,360,431.5z" style="fill:#E0719E;"/>
			<path d="M281.8,574.2c-3.8,0-7.6-0.3-11.2-0.8c-2.5-0.3-4.3-2.5-4.3-5V509c0-45.9,37.3-83.2,83.2-83.2
				c3.8,0,7.6,0.3,11.2,0.8c2.5,0.3,4.3,2.5,4.3,5v59.6C365,536.9,327.7,574.2,281.8,574.2z M276.2,564c1.8,0.1,3.7,0.2,5.6,0.2
				c40.4,0,73.2-32.8,73.2-73.2v-55c-1.8-0.1-3.7-0.2-5.6-0.2c-40.4,0-73.2,32.8-73.2,73.2V564z" style="fill:#383A48;"/>
		</g>
		<g>
			<path d="M427.6,509v19.3c-3.5-0.5-7-0.7-10.6-0.7c-43.2,0-78.2,35-78.2,78.2v59.6c-38.2-5.2-67.6-37.9-67.6-77.5
				v-19.3c3.4,0.5,7,0.7,10.6,0.7c43.2,0,78.2-35,78.2-78.2v-59.6c17.4,2.3,32.9,10.4,44.7,22.2C418.9,467.8,427.6,487.4,427.6,509z
				" style="fill:#AAC6FC;"/>
			<path d="M338.9,670.3c-0.2,0-0.4,0-0.7,0c-41-5.5-72-41-72-82.4v-19.3c0-1.4,0.6-2.8,1.7-3.8c1.1-0.9,2.5-1.4,4-1.2
				c3.2,0.4,6.6,0.7,9.9,0.7c40.4,0,73.2-32.8,73.2-73.2v-59.6c0-1.4,0.6-2.8,1.7-3.8c1.1-0.9,2.5-1.4,4-1.2
				c17.9,2.4,34.8,10.8,47.6,23.6c15.7,15.7,24.4,36.6,24.4,58.8v19.3c0,1.4-0.6,2.8-1.7,3.8c-1.1,0.9-2.5,1.4-4,1.2
				c-3.2-0.4-6.6-0.7-9.9-0.7c-40.4,0-73.2,32.8-73.2,73.2v59.6c0,1.4-0.6,2.8-1.7,3.8C341.2,669.8,340.1,670.3,338.9,670.3z
				 M276.2,574.1v13.7c0,34.5,24.4,64.3,57.6,71.5v-53.6c0-45.9,37.3-83.2,83.2-83.2c1.9,0,3.7,0.1,5.6,0.2V509
				c0-19.5-7.6-37.9-21.4-51.8c-9.9-9.9-22.6-16.8-36.2-19.8V491c0,45.9-37.3,83.2-83.2,83.2C280,574.2,278.1,574.2,276.2,574.1z" style="fill:#383A48;"/>
		</g>
		<g>
			<path d="M427.6,528.2v59.6c0,43.2-35,78.2-78.2,78.2c-3.6,0-7.1-0.2-10.6-0.7v-59.6c0-43.2,35-78.2,78.2-78.2
				C420.6,527.5,424.2,527.8,427.6,528.2z" style="fill:#F3F6E6;"/>
			<path d="M349.4,671c-3.8,0-7.6-0.3-11.2-0.8c-2.5-0.3-4.3-2.5-4.3-5v-59.6c0-45.9,37.3-83.2,83.2-83.2
				c3.8,0,7.5,0.3,11.2,0.8c2.5,0.3,4.3,2.5,4.3,5v59.6C432.6,633.7,395.3,671,349.4,671z M343.9,660.8c1.8,0.1,3.7,0.2,5.6,0.2
				c40.4,0,73.2-32.8,73.2-73.2v-55.1c-1.8-0.1-3.7-0.2-5.6-0.2c-40.4,0-73.2,32.8-73.2,73.2L343.9,660.8L343.9,660.8z" style="fill:#383A48;"/>
		</g>
		<g>
			<path d="M495.2,605.7v78.8c0,43.2-35,78.2-78.2,78.2s-78.2-35-78.2-78.2v-19.3c3.4,0.5,7,0.7,10.6,0.7
				c43.2,0,78.2-35,78.2-78.2v-59.6c17.4,2.3,32.9,10.4,44.7,22.2C486.5,564.6,495.2,584.1,495.2,605.7z" style="fill:#E0719E;"/>
			<path d="M417.1,767.7c-45.9,0-83.2-37.3-83.2-83.2v-19.3c0-1.4,0.6-2.8,1.7-3.8c1.1-0.9,2.5-1.4,4-1.2
				c3.2,0.4,6.6,0.7,9.9,0.7c40.4,0,73.2-32.8,73.2-73.2v-59.6c0-1.4,0.6-2.8,1.7-3.8c1.1-0.9,2.5-1.4,4-1.2
				c17.9,2.4,34.8,10.8,47.6,23.6c15.7,15.7,24.4,36.6,24.4,58.8v78.8C500.2,730.4,462.9,767.7,417.1,767.7z M343.9,670.8v13.7
				c0,40.4,32.8,73.2,73.2,73.2s73.2-32.8,73.2-73.2v-78.8c0-19.5-7.6-37.9-21.4-51.7c-9.9-9.9-22.6-16.8-36.2-19.8v53.6
				c0,45.9-37.3,83.2-83.2,83.2C347.6,671,345.7,670.9,343.9,670.8z" style="fill:#383A48;"/>
		</g>
	</g>
	<g>
		<g>
			<path d="M489.1,817.2c-2.8,0-5-2.2-5-5v-18c0-2.8,2.2-5,5-5s5,2.2,5,5v18C494.1,815,491.9,817.2,489.1,817.2z" style="fill:#383A48;"/>
		</g>
		<g>
			<path d="M489.1,881.8c-2.8,0-5-2.2-5-5v-18c0-2.8,2.2-5,5-5s5,2.2,5,5v18C494.1,879.6,491.9,881.8,489.1,881.8z" style="fill:#383A48;"/>
		</g>
		<g>
			<path d="M465.8,840.5h-18c-2.8,0-5-2.2-5-5s2.2-5,5-5h18c2.8,0,5,2.2,5,5S468.6,840.5,465.8,840.5z" style="fill:#383A48;"/>
		</g>
		<g>
			<path d="M530.5,840.5h-18c-2.8,0-5-2.2-5-5s2.2-5,5-5h18c2.8,0,5,2.2,5,5S533.2,840.5,530.5,840.5z" style="fill:#383A48;"/>
		</g>
		<g>
			<path d="M472.6,824c-1.3,0-2.6-0.5-3.5-1.5l-12.7-12.7c-2-2-2-5.1,0-7.1s5.1-2,7.1,0l12.7,12.7c2,2,2,5.1,0,7.1
				C475.2,823.5,473.9,824,472.6,824z" style="fill:#383A48;"/>
		</g>
		<g>
			<path d="M518.4,869.7c-1.3,0-2.6-0.5-3.5-1.5l-12.7-12.7c-2-2-2-5.1,0-7.1s5.1-2,7.1,0l12.7,12.7c2,2,2,5.1,0,7.1
				C520.9,869.2,519.6,869.7,518.4,869.7z" style="fill:#383A48;"/>
		</g>
		<g>
			<path d="M459.9,869.7c-1.3,0-2.6-0.5-3.5-1.5c-2-2-2-5.1,0-7.1l12.7-12.7c2-2,5.1-2,7.1,0s2,5.1,0,7.1l-12.7,12.7
				C462.5,869.2,461.2,869.7,459.9,869.7z" style="fill:#383A48;"/>
		</g>
		<g>
			<path d="M505.6,824c-1.3,0-2.6-0.5-3.5-1.5c-2-2-2-5.1,0-7.1l12.7-12.7c2-2,5.1-2,7.1,0s2,5.1,0,7.1l-12.7,12.7
				C508.2,823.5,506.9,824,505.6,824z" style="fill:#383A48;"/>
		</g>
	</g>
	<g>
		<g>
			<path d="M1534.9,198.2c-2.8,0-5-2.2-5-5v-18c0-2.8,2.2-5,5-5s5,2.2,5,5v18C1539.9,196,1537.7,198.2,1534.9,198.2z" style="fill:#383A48;"/>
		</g>
		<g>
			<path d="M1534.9,262.9c-2.8,0-5-2.2-5-5v-18c0-2.8,2.2-5,5-5s5,2.2,5,5v18C1539.9,260.6,1537.7,262.9,1534.9,262.9z" style="fill:#383A48;"/>
		</g>
		<g>
			<path d="M1511.6,221.5h-18c-2.8,0-5-2.2-5-5s2.2-5,5-5h18c2.8,0,5,2.2,5,5S1514.4,221.5,1511.6,221.5z" style="fill:#383A48;"/>
		</g>
		<g>
			<path d="M1576.3,221.5h-18c-2.8,0-5-2.2-5-5s2.2-5,5-5h18c2.8,0,5,2.2,5,5S1579,221.5,1576.3,221.5z" style="fill:#383A48;"/>
		</g>
		<g>
			<path d="M1518.4,205c-1.3,0-2.6-0.5-3.5-1.5l-12.7-12.7c-2-2-2-5.1,0-7.1s5.1-2,7.1,0l12.7,12.7c2,2,2,5.1,0,7.1
				C1521,204.5,1519.7,205,1518.4,205z" style="fill:#383A48;"/>
		</g>
		<g>
			<path d="M1564.2,250.8c-1.3,0-2.6-0.5-3.5-1.5l-12.7-12.7c-2-2-2-5.1,0-7.1s5.1-2,7.1,0l12.7,12.7c2,2,2,5.1,0,7.1
				C1566.7,250.3,1565.4,250.8,1564.2,250.8z" style="fill:#383A48;"/>
		</g>
		<g>
			<path d="M1505.7,250.8c-1.3,0-2.6-0.5-3.5-1.5c-2-2-2-5.1,0-7.1l12.7-12.7c2-2,5.1-2,7.1,0s2,5.1,0,7.1l-12.7,12.7
				C1508.3,250.3,1507,250.8,1505.7,250.8z" style="fill:#383A48;"/>
		</g>
		<g>
			<path d="M1551.4,205c-1.3,0-2.6-0.5-3.5-1.5c-2-2-2-5.1,0-7.1l12.7-12.7c2-2,5.1-2,7.1,0s2,5.1,0,7.1l-12.7,12.7
				C1554,204.5,1552.7,205,1551.4,205z" style="fill:#383A48;"/>
		</g>
	</g>
	<path d="M1716.4,734.2c-105.4,0-191.2,85.8-191.2,191.2c0,2.8,2.2,5,5,5h186.2c2.8,0,5-2.2,5-5V739.2
		C1721.4,736.5,1719.1,734.2,1716.4,734.2z" style="fill:#AAC6FC;"/>
	<path d="M1716.4,803.7c-68.2,0-123.6,55.5-123.6,123.6c0,2.8,2.2,5,5,5h118.6c2.8,0,5-2.2,5-5V808.7
		C1721.4,805.9,1719.1,803.7,1716.4,803.7z" style="fill:#F6E049;"/>
	<g>
		<g>
			<path d="M1175.4,289.2c-11.5,0-22.5-4.5-31.9-13c-9.5,8.5-20.4,13-31.9,13c-16.6,0-32.1-9.6-43.6-27
				c-11.1-16.8-17.2-39-17.2-62.5c0-2.8,2.2-5,5-5s5,2.2,5,5c0,43.9,22.8,79.5,50.8,79.5c9.1,0,17.6-3.7,25-10.3
				c-1.7-2-3.3-4.2-4.8-6.5c-11.1-16.6-17.2-38.8-17.2-62.3c0-32.9,14.7-52.5,28.8-52.5c14.2,0,28.9,19.6,28.9,52.5
				c0,23.5-6.1,45.6-17.2,62.3c-1.5,2.3-3.1,4.4-4.8,6.5c7.4,6.5,15.9,10.3,25,10.3c2.8,0,5,2.2,5,5S1178.1,289.2,1175.4,289.2z
				 M1143.4,157.7c-7.9,0-18.8,16.2-18.8,42.5c0,24.8,7.4,46.9,18.9,61.4c11.5-14.5,18.9-36.6,18.9-61.4
				C1162.3,173.9,1151.3,157.7,1143.4,157.7z" style="fill:#383A48;"/>
		</g>
		<g>
			<path d="M1303,289.2c-11.5,0-22.5-4.5-31.9-13c-9.5,8.5-20.4,13-31.9,13c-2.8,0-5-2.2-5-5s2.2-5,5-5
				c9.1,0,17.6-3.7,25-10.3c-1.7-2-3.3-4.2-4.8-6.5c-11.1-16.6-17.2-38.8-17.2-62.3c0-32.9,14.7-52.5,28.9-52.5
				c14.2,0,28.8,19.6,28.8,52.5c0,23.5-6.1,45.6-17.2,62.3c-1.5,2.3-3.1,4.4-4.8,6.5c7.4,6.5,15.9,10.3,25,10.3c2.8,0,5,2.2,5,5
				S1305.8,289.2,1303,289.2z M1271.2,157.7c-7.9,0-18.9,16.2-18.9,42.5c0,24.8,7.4,46.9,18.9,61.4c11.5-14.5,18.9-36.6,18.9-61.4
				C1290,173.9,1279,157.7,1271.2,157.7z" style="fill:#383A48;"/>
		</g>
		<g>
			<path d="M1239.2,289.2c-11.5,0-22.5-4.5-31.9-13c-9.5,8.5-20.4,13-31.9,13c-2.8,0-5-2.2-5-5s2.2-5,5-5
				c9.1,0,17.6-3.7,25-10.3c-1.7-2-3.3-4.2-4.8-6.5c-11.1-16.6-17.2-38.8-17.2-62.3c0-32.9,14.7-52.5,28.8-52.5
				c14.2,0,28.9,19.6,28.9,52.5c0,23.5-6.1,45.6-17.2,62.3c-1.5,2.3-3.1,4.4-4.8,6.5c7.4,6.5,15.9,10.3,25,10.3c2.8,0,5,2.2,5,5
				S1242,289.2,1239.2,289.2z M1207.2,157.7c-7.9,0-18.8,16.2-18.8,42.5c0,24.8,7.4,46.9,18.9,61.4c11.5-14.5,18.9-36.6,18.9-61.4
				C1226.1,173.9,1215.1,157.7,1207.2,157.7z" style="fill:#383A48;"/>
		</g>
		<g>
			<path d="M1367,289.2c-11.5,0-22.5-4.5-31.9-13c-9.5,8.5-20.4,13-31.9,13c-2.8,0-5-2.2-5-5s2.2-5,5-5
				c9.1,0,17.6-3.7,25-10.3c-1.7-2-3.3-4.2-4.8-6.5c-11.1-16.6-17.2-38.8-17.2-62.3c0-32.9,14.7-52.5,28.8-52.5
				c14.2,0,28.9,19.6,28.9,52.5c0,23.5-6.1,45.6-17.2,62.3c-1.5,2.3-3.1,4.4-4.8,6.5c7.4,6.5,15.9,10.3,25,10.3c2.8,0,5,2.2,5,5
				S1369.8,289.2,1367,289.2z M1335,157.7c-7.9,0-18.8,16.2-18.8,42.5c0,24.8,7.4,46.9,18.9,61.4c11.5-14.5,18.9-36.6,18.9-61.4
				C1353.9,173.9,1342.9,157.7,1335,157.7z" style="fill:#383A48;"/>
		</g>
		<g>
			<path d="M1367,289.2c-2.8,0-5-2.2-5-5s2.2-5,5-5c28,0,50.8-35.4,50.8-79c0-2.8,2.2-5,5-5s5,2.2,5,5
				c0,23.5-6.1,45.6-17.2,62.3C1399.1,279.7,1383.6,289.2,1367,289.2z" style="fill:#383A48;"/>
		</g>
	</g>
	<g>
		<path d="M1688,774.3c-1.3,0-2.6-0.5-3.5-1.5L1512,600.3c-2-2-2-5.1,0-7.1s5.1-2,7.1,0l172.5,172.5c2,2,2,5.1,0,7.1
			C1690.6,773.8,1689.3,774.3,1688,774.3z" style="fill:#383A48;"/>
	</g>
	<g>
		<g>
			<polygon points="670.4,165.6 401.9,168.9 389.1,147.7 660.3,147.7 			" style="fill:#F6E049;"/>
		</g>
	</g>
	<g>
		<g>
			<polygon points="1706.2,570.3 1709.3,362.2 1721.4,354.9 1721.4,566.6 			" style="fill:#F6E049;"/>
		</g>
	</g>
</g>
</svg>
