<?xml version="1.0" encoding="utf-8"?>
<!-- Generator: Adobe Illustrator 22.0.1, SVG Export Plug-In . SVG Version: 6.00 Build 0)  -->
<svg version="1.1" id="Layer_1" xmlns="http://www.w3.org/2000/svg" xmlns:xlink="http://www.w3.org/1999/xlink" x="0px" y="0px" viewBox="0 0 1920 1080" style="enable-background:new 0 0 1920 1080;" xml:space="preserve">

<rect y="0" width="1920" height="1080" style="fill:#AAC6FC;"/>
<g>
	<path d="M1652.9,130.7H1620c-2.6,0-4.8,2.1-5,4.7c-3.3,54.2-14.3,95.8-34.7,131.1c-18.4,31.8-42.9,55.6-68.8,80.9
		c-54,52.6-115.2,112.3-156,265.6c-27.6,103.7-109.7,128.3-189.1,152c-44.3,13.3-86.2,25.8-118.1,51.3c-17.4,13.8-30.1,30.2-38.9,50
		c-9.8,21.9-14.5,47.4-14.5,78c0,2.8,2.2,5,5,5s5-2.2,5-5h5.8c0,2.8,2.2,5,5,5h637.2c2.8,0,5-2.2,5-5V135.7
		C1657.9,132.9,1655.6,130.7,1652.9,130.7z" style="fill:#F3F6E6;"/>
	<path d="M1053.8,130.7H333c-31.4,0-56.9,25.5-56.9,56.9v756.7c0,2.8,2.2,5,5,5h105.3c2.8,0,5-2.2,5-5
		c0-55.1,15-93.3,47.2-120.3c28.9-24.2,67.9-36.5,109.1-49.4c38.3-12,77.8-24.5,111.6-47.5c38.5-26.2,63.5-62.7,76.5-111.5
		c40.9-153.8,118.9-204.3,187.7-248.9c35.9-23.3,69.8-45.2,94.6-79.3c27.7-38,40.6-86.2,40.6-151.7
		C1058.8,132.9,1056.5,130.7,1053.8,130.7z" style="fill:#F3F6E6;"/>
	<g>
		<g>
			<path d="M386.4,949.3c-2.8,0-5-2.2-5-5V548.8c0-2.8,2.2-5,5-5s5,2.2,5,5v395.5C391.4,947,389.1,949.3,386.4,949.3z" style="fill:#383A48;"/>
		</g>
		<g>
			<g>
				<g>
					<polygon points="491.7,589.9 281.1,589.9 341.1,485.4 386.4,406.4 431.7,485.4 					" style="fill:#7FD6C2;"/>
				</g>
				<g>
					<path d="M491.7,594.9H281.1c-1.8,0-3.4-1-4.3-2.5s-0.9-3.4,0-5l105.3-183.5c0.9-1.6,2.5-2.5,4.3-2.5s3.4,1,4.3,2.5
						L496,587.4c0.9,1.5,0.9,3.5,0,5C495.1,594,493.5,594.9,491.7,594.9z M289.7,584.9H483l-96.7-168.5L289.7,584.9z" style="fill:#383A48;"/>
				</g>
			</g>
			<g>
				<g>
					<g>
						<g>
							<g>
								<circle cx="469.3" cy="572.3" r="5" style="fill:#383A48;"/>
							</g>
						</g>
						<g>
							<g>
								<circle cx="444.7" cy="523" r="5" style="fill:#383A48;"/>
							</g>
						</g>
						<g>
							<g>
								<circle cx="444.7" cy="547.7" r="5" style="fill:#383A48;"/>
							</g>
						</g>
						<g>
							<g>
								<circle cx="444.7" cy="572.3" r="5" style="fill:#383A48;"/>
							</g>
						</g>
						<g>
							<g>
								<circle cx="420" cy="473.7" r="5" style="fill:#383A48;"/>
							</g>
						</g>
						<g>
							<g>
								<circle cx="420" cy="498.3" r="5" style="fill:#383A48;"/>
							</g>
						</g>
						<g>
							<g>
								<circle cx="420" cy="523" r="5" style="fill:#383A48;"/>
							</g>
						</g>
						<g>
							<g>
								<circle cx="420" cy="547.7" r="5" style="fill:#383A48;"/>
							</g>
						</g>
						<g>
							<g>
								<circle cx="420" cy="572.3" r="5" style="fill:#383A48;"/>
							</g>
						</g>
						<g>
							<g>
								<circle cx="395.3" cy="449" r="5" style="fill:#383A48;"/>
							</g>
						</g>
						<g>
							<g>
								<circle cx="395.3" cy="473.7" r="5" style="fill:#383A48;"/>
							</g>
						</g>
						<g>
							<g>
								<circle cx="395.3" cy="498.3" r="5" style="fill:#383A48;"/>
							</g>
						</g>
						<g>
							<g>
								<circle cx="395.3" cy="523" r="5" style="fill:#383A48;"/>
							</g>
						</g>
						<g>
							<g>
								<circle cx="395.3" cy="547.7" r="5" style="fill:#383A48;"/>
							</g>
						</g>
						<g>
							<g>
								<circle cx="395.3" cy="572.3" r="5" style="fill:#383A48;"/>
							</g>
						</g>
						<g>
							<g>
								<circle cx="370.7" cy="449" r="5" style="fill:#383A48;"/>
							</g>
						</g>
						<g>
							<g>
								<circle cx="370.7" cy="473.7" r="5" style="fill:#383A48;"/>
							</g>
						</g>
						<g>
							<g>
								<circle cx="370.7" cy="498.3" r="5" style="fill:#383A48;"/>
							</g>
						</g>
						<g>
							<g>
								<circle cx="370.7" cy="523" r="5" style="fill:#383A48;"/>
							</g>
						</g>
						<g>
							<g>
								<circle cx="370.7" cy="547.7" r="5" style="fill:#383A48;"/>
							</g>
						</g>
						<g>
							<g>
								<circle cx="370.7" cy="572.3" r="5" style="fill:#383A48;"/>
							</g>
						</g>
						<g>
							<g>
								<circle cx="346" cy="498.3" r="5" style="fill:#383A48;"/>
							</g>
						</g>
						<g>
							<g>
								<circle cx="346" cy="523" r="5" style="fill:#383A48;"/>
							</g>
						</g>
						<g>
							<g>
								<circle cx="346" cy="547.7" r="5" style="fill:#383A48;"/>
							</g>
						</g>
						<g>
							<g>
								<circle cx="346" cy="572.3" r="5" style="fill:#383A48;"/>
							</g>
						</g>
						<g>
							<g>
								<circle cx="321.3" cy="523" r="5" style="fill:#383A48;"/>
							</g>
						</g>
						<g>
							<g>
								<circle cx="321.3" cy="547.7" r="5" style="fill:#383A48;"/>
							</g>
						</g>
						<g>
							<g>
								<circle cx="321.3" cy="572.3" r="5" style="fill:#383A48;"/>
							</g>
						</g>
						<g>
							<g>
								<circle cx="296.7" cy="572.3" r="5" style="fill:#383A48;"/>
							</g>
						</g>
					</g>
				</g>
			</g>
			<path d="M436,482.9l-45.3-79c-0.9-1.6-2.5-2.5-4.3-2.5s-3.4,1-4.3,2.5l-45.3,79c-0.9,1.5-0.9,3.5,0,5
				s2.5,2.5,4.3,2.5h90.6c1.8,0,3.4-1,4.3-2.5C436.9,486.3,436.9,484.4,436,482.9z" style="fill:#383A48;"/>
			<g>
				<g>
					<polygon points="491.7,456.9 281.1,456.9 386.4,273.3 					" style="fill:#7FD6C2;"/>
				</g>
				<g>
					<path d="M491.7,461.9H281.1c-1.8,0-3.4-1-4.3-2.5s-0.9-3.4,0-5l105.3-183.5c0.9-1.6,2.5-2.5,4.3-2.5s3.4,1,4.3,2.5
						L496,454.4c0.9,1.5,0.9,3.5,0,5S493.5,461.9,491.7,461.9z M289.7,451.9H483l-96.7-168.5L289.7,451.9z" style="fill:#383A48;"/>
				</g>
			</g>
		</g>
	</g>
	<g>
		<g>
			<path d="M580.1,949.3c-2.8,0-5-2.2-5-5V669.5c0-2.8,2.2-5,5-5s5,2.2,5,5v274.8C585.1,947.1,582.9,949.3,580.1,949.3z
				" style="fill:#383A48;"/>
		</g>
		<g>
			<g>
				<g>
					<polygon points="671.9,705.4 488.3,705.4 540.6,614.3 580.1,545.4 619.6,614.3 					" style="fill:#7FD6C2;"/>
				</g>
				<g>
					<path d="M671.9,710.4H488.3c-1.8,0-3.4-1-4.3-2.5s-0.9-3.4,0-5l91.8-160c0.9-1.6,2.5-2.5,4.3-2.5s3.4,1,4.3,2.5
						l91.8,160c0.9,1.5,0.9,3.5,0,5C675.3,709.4,673.7,710.4,671.9,710.4z M497,700.4h166.3l-83.1-144.9L497,700.4z" style="fill:#383A48;"/>
				</g>
			</g>
			<path d="M624,611.8l-39.5-68.9c-0.9-1.6-2.5-2.5-4.3-2.5s-3.4,1-4.3,2.5l-39.5,68.9c-0.9,1.5-0.9,3.5,0,5
				s2.5,2.5,4.3,2.5h79c1.8,0,3.4-1,4.3-2.5C624.8,615.2,624.8,613.3,624,611.8z" style="fill:#383A48;"/>
			<g>
				<g>
					<polygon points="671.9,589.4 488.3,589.4 580.1,429.4 					" style="fill:#7FD6C2;"/>
				</g>
				<g>
					<path d="M671.9,594.4H488.3c-1.8,0-3.4-1-4.3-2.5s-0.9-3.4,0-5l91.8-160c0.9-1.6,2.5-2.5,4.3-2.5s3.4,1,4.3,2.5
						l91.8,160c0.9,1.5,0.9,3.5,0,5C675.3,593.5,673.7,594.4,671.9,594.4z M497,584.4h166.3l-83.1-144.9L497,584.4z" style="fill:#383A48;"/>
				</g>
			</g>
			<g>
				<g>
					<g>
						<g>
							<g>
								<circle cx="643.4" cy="686" r="5" style="fill:#383A48;"/>
							</g>
						</g>
						<g>
							<g>
								<circle cx="618.7" cy="636.7" r="5" style="fill:#383A48;"/>
							</g>
						</g>
						<g>
							<g>
								<circle cx="618.7" cy="661.3" r="5" style="fill:#383A48;"/>
							</g>
						</g>
						<g>
							<g>
								<circle cx="618.7" cy="686" r="5" style="fill:#383A48;"/>
							</g>
						</g>
						<g>
							<g>
								<circle cx="594" cy="636.7" r="5" style="fill:#383A48;"/>
							</g>
						</g>
						<g>
							<g>
								<circle cx="594" cy="661.3" r="5" style="fill:#383A48;"/>
							</g>
						</g>
						<g>
							<g>
								<circle cx="594" cy="686" r="5" style="fill:#383A48;"/>
							</g>
						</g>
						<g>
							<g>
								<circle cx="569.4" cy="636.7" r="5" style="fill:#383A48;"/>
							</g>
						</g>
						<g>
							<g>
								<circle cx="569.4" cy="661.3" r="5" style="fill:#383A48;"/>
							</g>
						</g>
						<g>
							<g>
								<circle cx="569.4" cy="686" r="5" style="fill:#383A48;"/>
							</g>
						</g>
						<g>
							<g>
								<circle cx="544.7" cy="636.7" r="5" style="fill:#383A48;"/>
							</g>
						</g>
						<g>
							<g>
								<circle cx="544.7" cy="661.3" r="5" style="fill:#383A48;"/>
							</g>
						</g>
						<g>
							<g>
								<circle cx="544.7" cy="686" r="5" style="fill:#383A48;"/>
							</g>
						</g>
						<g>
							<g>
								<circle cx="520" cy="661.3" r="5" style="fill:#383A48;"/>
							</g>
						</g>
						<g>
							<g>
								<circle cx="520" cy="686" r="5" style="fill:#383A48;"/>
							</g>
						</g>
					</g>
				</g>
			</g>
		</g>
	</g>
	<g>
		<g>
			<path d="M1382.7,949.3c-2.8,0-5-2.2-5-5V769.8c0-2.8,2.2-5,5-5s5,2.2,5,5v174.5
				C1387.7,947,1385.5,949.3,1382.7,949.3z" style="fill:#383A48;"/>
		</g>
		<g>
			<g>
				<g>
					<polygon points="1474.5,805.6 1291,805.6 1343.2,714.5 1382.7,645.7 1422.2,714.5 					" style="fill:#7FD6C2;"/>
				</g>
				<g>
					<path d="M1474.5,810.6H1291c-1.8,0-3.4-1-4.3-2.5s-0.9-3.4,0-5l91.8-160c0.9-1.6,2.5-2.5,4.3-2.5s3.4,1,4.3,2.5
						l91.8,160c0.9,1.5,0.9,3.5,0,5C1478,809.7,1476.3,810.6,1474.5,810.6z M1299.6,800.6h166.3l-83.1-144.9L1299.6,800.6z" style="fill:#383A48;"/>
				</g>
			</g>
			<path d="M1426.6,712l-39.5-68.9c-0.9-1.6-2.5-2.5-4.3-2.5s-3.4,1-4.3,2.5L1339,712c-0.9,1.5-0.9,3.5,0,5
				s2.5,2.5,4.3,2.5h79c1.8,0,3.4-1,4.3-2.5S1427.5,713.6,1426.6,712z" style="fill:#383A48;"/>
			<g>
				<g>
					<polygon points="1474.5,689.7 1291,689.7 1382.7,529.7 					" style="fill:#7FD6C2;"/>
				</g>
				<g>
					<path d="M1474.5,694.7H1291c-1.8,0-3.4-1-4.3-2.5s-0.9-3.4,0-5l91.8-160c0.9-1.6,2.5-2.5,4.3-2.5s3.4,1,4.3,2.5
						l91.8,160c0.9,1.5,0.9,3.5,0,5C1478,693.7,1476.3,694.7,1474.5,694.7z M1299.6,684.7h166.3l-83.1-144.9L1299.6,684.7z" style="fill:#383A48;"/>
				</g>
			</g>
			<g>
				<g>
					<g>
						<g>
							<g>
								<circle cx="1448.4" cy="787.9" r="5" style="fill:#383A48;"/>
							</g>
						</g>
						<g>
							<g>
								<circle cx="1423.7" cy="738.6" r="5" style="fill:#383A48;"/>
							</g>
						</g>
						<g>
							<g>
								<circle cx="1423.7" cy="763.2" r="5" style="fill:#383A48;"/>
							</g>
						</g>
						<g>
							<g>
								<circle cx="1423.7" cy="787.9" r="5" style="fill:#383A48;"/>
							</g>
						</g>
						<g>
							<g>
								<circle cx="1399.1" cy="738.6" r="5" style="fill:#383A48;"/>
							</g>
						</g>
						<g>
							<g>
								<circle cx="1399.1" cy="763.2" r="5" style="fill:#383A48;"/>
							</g>
						</g>
						<g>
							<g>
								<circle cx="1399.1" cy="787.9" r="5" style="fill:#383A48;"/>
							</g>
						</g>
						<g>
							<g>
								<circle cx="1374.4" cy="738.6" r="5" style="fill:#383A48;"/>
							</g>
						</g>
						<g>
							<g>
								<circle cx="1374.4" cy="763.2" r="5" style="fill:#383A48;"/>
							</g>
						</g>
						<g>
							<g>
								<circle cx="1374.4" cy="787.9" r="5" style="fill:#383A48;"/>
							</g>
						</g>
						<g>
							<g>
								<circle cx="1349.7" cy="738.6" r="5" style="fill:#383A48;"/>
							</g>
						</g>
						<g>
							<g>
								<circle cx="1349.7" cy="763.2" r="5" style="fill:#383A48;"/>
							</g>
						</g>
						<g>
							<g>
								<circle cx="1349.7" cy="787.9" r="5" style="fill:#383A48;"/>
							</g>
						</g>
						<g>
							<g>
								<circle cx="1325.1" cy="763.2" r="5" style="fill:#383A48;"/>
							</g>
						</g>
						<g>
							<g>
								<circle cx="1325.1" cy="787.9" r="5" style="fill:#383A48;"/>
							</g>
						</g>
					</g>
				</g>
			</g>
		</g>
	</g>
	<g>
		<g>
			<path d="M1538.4,949.3c-2.8,0-5-2.2-5-5v-107c0-2.8,2.2-5,5-5s5,2.2,5,5v107.1
				C1543.4,947.1,1541.2,949.3,1538.4,949.3z" style="fill:#383A48;"/>
		</g>
		<g>
			<g>
				<g>
					<polygon points="1630.2,873.1 1446.6,873.1 1498.9,782 1538.4,713.1 1577.9,782 					" style="fill:#7FD6C2;"/>
				</g>
				<g>
					<path d="M1630.2,878.1h-183.6c-1.8,0-3.4-1-4.3-2.5s-0.9-3.4,0-5l91.8-160c0.9-1.6,2.5-2.5,4.3-2.5s3.4,1,4.3,2.5
						l91.8,160c0.9,1.5,0.9,3.5,0,5C1633.6,877.2,1632,878.1,1630.2,878.1z M1455.3,868.1h166.3l-83.1-144.9L1455.3,868.1z" style="fill:#383A48;"/>
				</g>
			</g>
			<path d="M1582.2,779.5l-39.5-68.9c-0.9-1.6-2.5-2.5-4.3-2.5s-3.4,1-4.3,2.5l-39.5,68.9c-0.9,1.5-0.9,3.5,0,5
				s2.5,2.5,4.3,2.5h79c1.8,0,3.4-1,4.3-2.5S1583.1,781.1,1582.2,779.5z" style="fill:#383A48;"/>
			<g>
				<g>
					<polygon points="1630.2,757.2 1446.6,757.2 1538.4,597.2 					" style="fill:#7FD6C2;"/>
				</g>
				<g>
					<path d="M1630.2,762.2h-183.6c-1.8,0-3.4-1-4.3-2.5s-0.9-3.4,0-5l91.8-160c0.9-1.6,2.5-2.5,4.3-2.5s3.4,1,4.3,2.5
						l91.8,160c0.9,1.5,0.9,3.5,0,5C1633.6,761.2,1632,762.2,1630.2,762.2z M1455.3,752.2h166.3l-83.1-144.9L1455.3,752.2z" style="fill:#383A48;"/>
				</g>
			</g>
			<g>
				<g>
					<g>
						<g>
							<g>
								<circle cx="1603.8" cy="854" r="5" style="fill:#383A48;"/>
							</g>
						</g>
						<g>
							<g>
								<circle cx="1579.1" cy="804.7" r="5" style="fill:#383A48;"/>
							</g>
						</g>
						<g>
							<g>
								<circle cx="1579.1" cy="829.4" r="5" style="fill:#383A48;"/>
							</g>
						</g>
						<g>
							<g>
								<circle cx="1579.1" cy="854" r="5" style="fill:#383A48;"/>
							</g>
						</g>
						<g>
							<g>
								<circle cx="1554.4" cy="804.7" r="5" style="fill:#383A48;"/>
							</g>
						</g>
						<g>
							<g>
								<circle cx="1554.4" cy="829.4" r="5" style="fill:#383A48;"/>
							</g>
						</g>
						<g>
							<g>
								<circle cx="1554.4" cy="854" r="5" style="fill:#383A48;"/>
							</g>
						</g>
						<g>
							<g>
								<circle cx="1529.8" cy="804.7" r="5" style="fill:#383A48;"/>
							</g>
						</g>
						<g>
							<g>
								<circle cx="1529.8" cy="829.4" r="5" style="fill:#383A48;"/>
							</g>
						</g>
						<g>
							<g>
								<circle cx="1529.8" cy="854" r="5" style="fill:#383A48;"/>
							</g>
						</g>
						<g>
							<g>
								<circle cx="1505.1" cy="804.7" r="5" style="fill:#383A48;"/>
							</g>
						</g>
						<g>
							<g>
								<circle cx="1505.1" cy="829.4" r="5" style="fill:#383A48;"/>
							</g>
						</g>
						<g>
							<g>
								<circle cx="1505.1" cy="854" r="5" style="fill:#383A48;"/>
							</g>
						</g>
						<g>
							<g>
								<circle cx="1480.4" cy="829.4" r="5" style="fill:#383A48;"/>
							</g>
						</g>
						<g>
							<g>
								<circle cx="1480.4" cy="854" r="5" style="fill:#383A48;"/>
							</g>
						</g>
					</g>
				</g>
			</g>
		</g>
	</g>
	<g>
		<g>
			<rect x="993.8" y="208" width="658.2" height="482.2" style="fill:#F3F6E6;"/>
			<path d="M1652,695.2H993.8c-2.8,0-5-2.2-5-5V208c0-2.8,2.2-5,5-5H1652c2.8,0,5,2.2,5,5v482.2
				C1657,693,1654.8,695.2,1652,695.2z M998.8,685.2H1647V213H998.8V685.2z" style="fill:#383A48;"/>
		</g>
		<g>
			<g>
				<circle cx="1506.6" cy="489.3" r="98.8" style="fill:#F6E049;"/>
				<path d="M1506.6,593.1c-57.3,0-103.8-46.6-103.8-103.8s46.6-103.8,103.8-103.8s103.8,46.6,103.8,103.8
					C1610.4,546.5,1563.8,593.1,1506.6,593.1z M1506.6,395.4c-51.7,0-93.8,42.1-93.8,93.8s42.1,93.8,93.8,93.8s93.8-42.1,93.8-93.8
					S1558.3,395.4,1506.6,395.4z" style="fill:#383A48;"/>
			</g>
		</g>
		<g>
			<g>
				<circle cx="1428.8" cy="489.3" r="98.8" style="fill:#F6E049;"/>
				<path d="M1428.8,593.1c-57.3,0-103.8-46.6-103.8-103.8s46.6-103.8,103.8-103.8s103.8,46.6,103.8,103.8
					C1532.6,546.5,1486,593.1,1428.8,593.1z M1428.8,395.4c-51.7,0-93.8,42.1-93.8,93.8s42.1,93.8,93.8,93.8s93.8-42.1,93.8-93.8
					S1480.5,395.4,1428.8,395.4z" style="fill:#383A48;"/>
			</g>
		</g>
		<g>
			<g>
				<circle cx="1350.9" cy="489.3" r="98.8" style="fill:#F6E049;"/>
				<path d="M1350.9,593.1c-57.3,0-103.8-46.6-103.8-103.8s46.6-103.8,103.8-103.8s103.8,46.6,103.8,103.8
					C1454.7,546.5,1408.2,593.1,1350.9,593.1z M1350.9,395.4c-51.7,0-93.8,42.1-93.8,93.8s42.1,93.8,93.8,93.8s93.8-42.1,93.8-93.8
					S1402.7,395.4,1350.9,395.4z" style="fill:#383A48;"/>
			</g>
			<g>
				<circle cx="1319.3" cy="474.9" r="10.6" style="fill:#383A48;"/>
			</g>
			<g>
				<circle cx="1382.5" cy="474.9" r="10.6" style="fill:#383A48;"/>
			</g>
			<g>
				<path d="M1350.9,534.7c-15.6,0-29.9-9.2-36.4-23.3c-1.2-2.5,0-5.5,2.5-6.6c2.5-1.2,5.5,0,6.6,2.5
					c4.9,10.6,15.6,17.5,27.3,17.5c11.7,0,22.4-6.9,27.3-17.5c1.2-2.5,4.1-3.6,6.6-2.5c2.5,1.2,3.6,4.1,2.5,6.6
					C1380.8,525.5,1366.5,534.7,1350.9,534.7z" style="fill:#383A48;"/>
			</g>
		</g>
		<g>
			<g>
				<rect x="993.8" y="208" width="658.2" height="122.8" style="fill:#7FD6C2;"/>
			</g>
			<g>
				<path d="M1652,335.8H993.8c-2.8,0-5-2.2-5-5V208c0-2.8,2.2-5,5-5H1652c2.8,0,5,2.2,5,5v122.8
					C1657,333.6,1654.8,335.8,1652,335.8z M998.8,325.8H1647V213H998.8V325.8z" style="fill:#383A48;"/>
			</g>
		</g>
		<g>
			<g>
				<g>
					
						<rect x="1583.3" y="252.9" transform="matrix(0.7071 -0.7071 0.7071 0.7071 274.7241 1201.9652)" width="10" height="33" style="fill:#383A48;"/>
				</g>
				<g>
					
						<rect x="1571.9" y="264.3" transform="matrix(0.7072 -0.7071 0.7071 0.7072 274.7172 1201.9423)" width="33" height="10" style="fill:#383A48;"/>
				</g>
			</g>
			<g>
				<path d="M1556.8,287.1h-35.5v-35.5h35.5V287.1z M1531.4,277.1h15.5v-15.5h-15.5V277.1z" style="fill:#383A48;"/>
			</g>
			<g>
				<rect x="1475.7" y="277.1" width="25.5" height="10" style="fill:#383A48;"/>
			</g>
		</g>
	</g>
	<g>
		<g>
			<path d="M1081,548.8c0-56.4-46.1-102-102.7-101.3c-53.5,0.7-97.6,43.7-99.7,97.1c-1.1,28,9.1,53.5,26.5,72.5
				l63.6,97.6c17.2,26.4,19.6,60,5.6,88.3c-34.5,69.9-23,141.3-23,141.3h48.6c0-88.2,31.3-140.6,52.5-166
				c12.6-15.1,19.9-34,20.7-53.7l6.7-160.1l0,0C1080.6,559.4,1081,554.1,1081,548.8z" style="fill:#E0719E;"/>
			<path d="M999.9,949.3h-48.6c-2.5,0-4.5-1.8-4.9-4.2c-0.5-3-11.3-73.8,23.4-144.3c13-26.4,11-58.3-5.3-83.3L901,620.2
				c-18.8-20.8-28.6-47.6-27.5-75.7c1.1-27.1,12.5-52.6,32.1-71.7s45.4-29.8,72.6-30.2c28.6-0.4,55.7,10.5,76.1,30.6
				s31.6,47,31.6,75.7c0,5.4-0.4,10.9-1.2,16.2l-6.7,159.8c-0.9,20.8-8.6,40.9-21.9,56.7c-19.2,22.9-51.4,74.5-51.4,162.8
				C1004.9,947,1002.6,949.3,999.9,949.3z M955.7,939.3h39.2c1.2-88.4,34-140.7,53.7-164.2c11.8-14.1,18.8-32.1,19.5-50.7l6.7-160.1
				c0-0.2,0-0.4,0.1-0.6c0.8-4.9,1.2-10,1.2-15c0-26-10.2-50.3-28.7-68.5s-43-28.1-69-27.7c-24.6,0.3-47.9,10.1-65.7,27.4
				s-28.1,40.4-29.1,65c-1,25.6,7.9,50.1,25.2,68.9c0.2,0.2,0.4,0.4,0.5,0.6l63.6,97.6c18.2,27.9,20.5,63.7,5.9,93.2
				C950.1,863.3,953.9,923.1,955.7,939.3z" style="fill:#383A48;"/>
		</g>
		<path d="M1078.2,688.6l-37.3-81c-0.9-2-3.1-3.2-5.4-2.8l-123,20.4c-1.7,0.3-3.1,1.4-3.8,2.9s-0.5,3.3,0.4,4.7
			l37.5,57.5c0.9,1.4,2.4,2.2,4.1,2.3l122.8,3.1h0.1c1.7,0,3.2-0.8,4.2-2.2C1078.8,692,1079,690.1,1078.2,688.6z" style="fill:#383A48;"/>
		<g>
			<path d="M673.6,538.4v405.8h46.6c0,0,0-6.2,0-79.1s18.3-199.1,68.1-244.4L673.6,538.4z" style="fill:#E0719E;"/>
			<path d="M720.2,949.3h-46.6c-2.8,0-5-2.2-5-5V538.4c0-1.9,1-3.6,2.7-4.4c1.7-0.9,3.7-0.7,5.2,0.4l114.7,82.3
				c1.2,0.9,2,2.3,2.1,3.8s-0.5,3-1.6,4c-21.4,19.5-39.1,57.3-51.2,109.4c-9.5,41-15.3,90.1-15.3,131.4v79.1
				C725.2,947,723,949.3,720.2,949.3z M678.6,939.3h36.6v-74.1c0-72,17.5-194.1,65.3-243.9l-101.9-73.2L678.6,939.3L678.6,939.3z" style="fill:#383A48;"/>
		</g>
		<path d="M777.3,639.3c-0.1-1.5-0.8-2.8-2-3.6L676.6,563c-1.5-1.1-3.5-1.3-5.2-0.4s-2.7,2.6-2.7,4.5v52
			c0,1.2,0.4,2.3,1.2,3.2l70.3,83c1,1.1,2.4,1.8,3.8,1.8c0.3,0,0.7,0,1-0.1c1.8-0.4,3.2-1.7,3.8-3.5c3.9-13.1,16.4-49.5,27.2-60.2
			C776.9,642.2,777.5,640.7,777.3,639.3z" style="fill:#383A48;"/>
		<g>
			<path d="M1091.3,650h-306c-61.6,0-111.6-50-111.6-111.6v-90.9h417.6c55.9,0,101.3,45.3,101.3,101.3l0,0
				C1192.5,604.7,1147.2,650,1091.3,650z" style="fill:#E0719E;"/>
			<path d="M1091.3,655h-306c-64.3,0-116.6-52.3-116.6-116.6v-90.9c0-2.8,2.2-5,5-5h417.6
				c58.6,0,106.3,47.7,106.3,106.3C1197.6,607.4,1149.9,655,1091.3,655z M678.6,452.5v85.9c0,58.8,47.8,106.6,106.6,106.6h306
				c53.1,0,96.3-43.2,96.3-96.3s-43.2-96.3-96.3-96.3L678.6,452.5L678.6,452.5z" style="fill:#383A48;"/>
		</g>
		<g>
			<path d="M807.8,648V328.8l90.1-31.9c6.9-2.5,11.6-9,11.6-16.4v-9.8c0-7.5-4.8-14.1-11.9-16.5L779,215.1
				c-7.1-2.4-14.6-3.6-22.1-3.6h-83.3v337.2c0,54.8,44.4,99.3,99.3,99.3H807.8z" style="fill:#E0719E;"/>
			<path d="M807.8,653H773c-57.5,0-104.3-46.8-104.3-104.3V211.6c0-2.8,2.2-5,5-5H757c8.1,0,16,1.3,23.7,3.8l118.6,39.1
				c9.2,3,15.4,11.6,15.4,21.2v9.8c0,9.5-6,17.9-14.9,21.1L813,332.3V648C812.8,650.8,810.5,653,807.8,653z M678.6,216.6v332.2
				c0,52,42.3,94.3,94.3,94.3h29.8V328.8c0-2.1,1.3-4,3.3-4.7l90.1-31.9c4.9-1.7,8.2-6.4,8.2-11.7v-9.8c0-5.4-3.4-10.1-8.5-11.7
				l-118.6-39.1c-6.6-2.2-13.5-3.3-20.5-3.3L678.6,216.6L678.6,216.6z" style="fill:#383A48;"/>
		</g>
		<g>
			<path d="M623.7,266.2L623.7,266.2c27.6,0,50-22.4,50-50v-4.7h-99.9v4.7C573.7,243.8,596.1,266.2,623.7,266.2z" style="fill:#E0719E;"/>
			<path d="M623.7,271.2c-30.3,0-55-24.7-55-55v-4.7c0-2.8,2.2-5,5-5h99.9c2.8,0,5,2.2,5,5v4.7
				C678.6,246.5,654,271.2,623.7,271.2z M578.7,216.6c0.2,24.6,20.3,44.6,45,44.6s44.8-20,45-44.6H578.7z" style="fill:#383A48;"/>
		</g>
		<g>
			<path d="M1016.6,617.1l63.6,97.6c17.2,26.4,19.6,60,5.6,88.3c-34.5,69.9-23,141.3-23,141.3h48.6
				c0-88.2,31.3-140.6,52.5-166c12.6-15.1,19.9-34,20.7-53.7l6.7-160.1l0,0c0.8-5.1,1.2-10.4,1.2-15.7c0-56.4-46.1-102-102.7-101.3" style="fill:#E0719E;"/>
			<path d="M1111.4,949.3h-48.6c-2.5,0-4.5-1.8-4.9-4.2c-0.5-3-11.3-73.8,23.4-144.3c13-26.4,11-58.3-5.3-83.3
				l-63.6-97.6c-1.5-2.3-0.9-5.4,1.5-6.9c2.3-1.5,5.4-0.9,6.9,1.5l63.6,97.6c18.2,27.9,20.5,63.7,5.9,93.2
				c-28.7,58.1-24.8,118-23.1,134.1h39.2c1.2-88.4,34-140.7,53.7-164.2c11.8-14.1,18.8-32.1,19.5-50.7l6.7-160.1
				c0-0.2,0-0.4,0.1-0.6c0.8-4.9,1.2-10,1.2-15c0-26-10.2-50.3-28.7-68.5s-42.9-28.1-69-27.7c-2.7,0-5-2.2-5.1-4.9
				c0-2.8,2.2-5,4.9-5.1c28.7-0.4,55.7,10.5,76.1,30.6s31.6,47,31.6,75.7c0,5.4-0.4,10.9-1.2,16.2l-6.7,159.8
				c-0.9,20.8-8.6,40.9-21.8,56.7c-19.2,22.9-51.4,74.5-51.4,162.8C1116.4,947,1114.2,949.3,1111.4,949.3z" style="fill:#383A48;"/>
		</g>
		<g>
			<path d="M1256.5,648.3h-6.9c-31.5,0-57-25.5-57-57v-42.5h6.9c31.5,0,57,25.5,57,57V648.3z" style="fill:#E0719E;"/>
			<path d="M1256.5,653.3h-6.9c-34.2,0-62-27.8-62-62v-42.5c0-2.8,2.2-5,5-5h6.9c34.2,0,62,27.8,62,62v42.5
				C1261.5,651,1259.3,653.3,1256.5,653.3z M1197.5,553.8v37.5c0,28.7,23.3,52,52,52h1.9v-37.5c0-28.7-23.3-52-52-52H1197.5z" style="fill:#383A48;"/>
		</g>
		<path d="M899.1,249.5l-19.1-6.3c-1.8-0.6-3.7-0.1-5.1,1.2c-1.3,1.3-1.8,3.3-1.3,5l15.5,50.4c0.4,1.3,1.3,2.4,2.5,3
			c0.7,0.4,1.5,0.5,2.2,0.5c0.6,0,1.1-0.1,1.7-0.3l3.9-1.4c8.9-3.2,14.9-11.6,14.9-21.1v-9.8C914.5,261.1,908.3,252.6,899.1,249.5z" style="fill:#383A48;"/>
		<g>
			<circle cx="767.9" cy="257" r="4.5" style="fill:#F6E049;"/>
			<path d="M767.9,266.6c-5.3,0-9.5-4.3-9.5-9.5c0-5.2,4.3-9.5,9.5-9.5c5.3,0,9.5,4.3,9.5,9.5S773.1,266.6,767.9,266.6z
				 M767.9,256.6c-0.3,0-0.5,0.2-0.5,0.5s0.2,0.5,0.5,0.5s0.5-0.2,0.5-0.5C768.3,256.8,768.1,256.6,767.9,256.6z" style="fill:#383A48;"/>
		</g>
		<g>
			<path d="M772.6,650h35.2V328.5H674.3v223.3C674.3,606,718.3,650,772.6,650z" style="fill:#F3F6E6;"/>
			<path d="M807.8,655h-35.2c-56.9,0-103.3-46.3-103.3-103.3V328.5c0-2.8,2.2-5,5-5h133.5c2.8,0,5,2.2,5,5V650
				C812.8,652.8,810.5,655,807.8,655z M679.3,333.5v218.3c0,51.4,41.8,93.3,93.3,93.3h30.2V333.5H679.3z" style="fill:#383A48;"/>
		</g>
		<path d="M812.7,327.6c-0.4-2.4-2.5-4.1-4.9-4.1H674.3c-2.8,0-5,2.2-5,5v52c0,1.7,0.8,3.2,2.2,4.1
			c0.8,0.6,1.8,0.9,2.8,0.9c0.6,0,1.2-0.1,1.8-0.3l133.5-52C811.8,332.3,813.1,330,812.7,327.6z" style="fill:#383A48;"/>
		<g>
			<path d="M807.8,620.8v323.5h46.6c0,0,0-6.2,0-79.1c0-61.9,13.2-162.4,47.8-219c11.7-19.2,14.6-42.4,7.5-63.7
				l-0.1-0.3" style="fill:#E0719E;"/>
			<path d="M854.4,949.3h-46.6c-2.8,0-5-2.2-5-5V620.8c0-2.8,2.2-5,5-5s5,2.2,5,5v318.5h36.6v-74.1
				c0-68.4,15.2-167,48.5-221.6c11.1-18.1,13.6-39.8,7-59.5l-0.1-0.3c-0.9-2.6,0.5-5.5,3.1-6.3c2.6-0.9,5.5,0.5,6.3,3.1l0.1,0.3
				c7.5,22.5,4.6,47.3-7.9,67.9c-32.3,53-47,149.3-47,216.4v79.1C859.4,947,857.1,949.3,854.4,949.3z" style="fill:#383A48;"/>
		</g>
		<g>
			<path d="M1110.7,908.7h-47.9c-2.8,0-5,2.2-5,5v30.6c0,2.8,2.2,5,5,5h47.9c2.8,0,5-2.2,5-5v-30.6
				C1115.7,910.9,1113.5,908.7,1110.7,908.7z" style="fill:#383A48;"/>
			<path d="M998.7,908.7h-47.9c-2.8,0-5,2.2-5,5v30.6c0,2.8,2.2,5,5,5h47.9c2.8,0,5-2.2,5-5v-30.6
				C1003.7,910.9,1001.5,908.7,998.7,908.7z" style="fill:#383A48;"/>
			<path d="M852.4,908.7h-44.7c-2.8,0-5,2.2-5,5v30.6c0,2.8,2.2,5,5,5h44.7c2.8,0,5-2.2,5-5v-30.6
				C857.4,910.9,855.2,908.7,852.4,908.7z" style="fill:#383A48;"/>
			<path d="M719,908.7h-44.7c-2.8,0-5,2.2-5,5v30.6c0,2.8,2.2,5,5,5H719c2.8,0,5-2.2,5-5v-30.6
				C724,910.9,721.8,908.7,719,908.7z" style="fill:#383A48;"/>
		</g>
		<g>
			<circle cx="1062.1" cy="480.9" r="8.4" style="fill:#F3F6E6;"/>
		</g>
		<g>
			<circle cx="1112.9" cy="489.3" r="8.4" style="fill:#F3F6E6;"/>
		</g>
		<g>
			<circle cx="1132.1" cy="523.1" r="8.4" style="fill:#F3F6E6;"/>
		</g>
		<g>
			<circle cx="1078.8" cy="518.6" r="8.4" style="fill:#F3F6E6;"/>
		</g>
	</g>
	<g>
		<path d="M1652,949.3H281.1c-2.8,0-5-2.2-5-5s2.2-5,5-5H1652c2.8,0,5,2.2,5,5S1654.8,949.3,1652,949.3z" style="fill:#383A48;"/>
	</g>
	<circle cx="326.4" cy="181" r="50.3" style="fill:#F6E049;"/>
	<path d="M567.9,312.5c-11.4,0-12.6-10.9-12.6-15.5c0-2.8-2.2-5-5-5s-5,2.2-5,5c0,4.7-1.2,15.5-12.6,15.5
		c-2.8,0-5,2.2-5,5s2.2,5,5,5c11.4,0,12.6,10.9,12.6,15.5c0,2.8,2.2,5,5,5s5-2.2,5-5c0-4.7,1.2-15.5,12.6-15.5c2.8,0,5-2.2,5-5
		S570.6,312.5,567.9,312.5z" style="fill:#383A48;"/>
	<path d="M1243.1,852c-11.4,0-12.6-10.9-12.6-15.5c0-2.8-2.2-5-5-5s-5,2.2-5,5c0,4.7-1.2,15.5-12.6,15.5
		c-2.8,0-5,2.2-5,5s2.2,5,5,5c11.4,0,12.6,10.9,12.6,15.5c0,2.8,2.2,5,5,5s5-2.2,5-5c0-4.7,1.2-15.5,12.6-15.5c2.8,0,5-2.2,5-5
		S1245.8,852,1243.1,852z" style="fill:#383A48;"/>
	<g>
		<path d="M216.6,814.4c-1.3,0-2.6-0.5-3.5-1.5c-2-2-2-5.1,0-7.1l188.2-188.2c2-2,5.1-2,7.1,0s2,5.1,0,7.1L220.1,812.9
			C219.2,813.9,217.9,814.4,216.6,814.4z" style="fill:#F6E049;"/>
	</g>
</g>
</svg>
