<svg xmlns="http://www.w3.org/2000/svg" xmlns:xlink="http://www.w3.org/1999/xlink" width="1447" height="820" version="1.1" viewBox="0 0 1447 820"><title>forest-care</title><desc>Created with Sketch.</desc><g id="Page-1" fill="none" fill-rule="evenodd" stroke="none" stroke-width="1"><g id="forest-care" fill-rule="nonzero" transform="translate(-211.000000, -130.000000)"><g id="Group" transform="translate(211.000000, 130.000000)"><path id="Path" fill="#F3F6E6" d="M1441.9,0.7 L1409,0.7 C1406.4,0.7 1404.2,2.8 1404,5.4 C1400.7,59.6 1389.7,101.2 1369.3,136.5 C1350.9,168.3 1326.4,192.1 1300.5,217.4 C1246.5,270 1185.3,329.7 1144.5,483 C1116.9,586.7 1034.8,611.3 955.4,635 C911.1,648.3 869.2,660.8 837.3,686.3 C819.9,700.1 807.2,716.5 798.4,736.3 C788.6,758.2 783.9,783.7 783.9,814.3 C783.9,817.1 786.1,819.3 788.9,819.3 C791.7,819.3 793.9,817.1 793.9,814.3 L799.7,814.3 C799.7,817.1 801.9,819.3 804.7,819.3 L1441.9,819.3 C1444.7,819.3 1446.9,817.1 1446.9,814.3 L1446.9,5.7 C1446.9,2.9 1444.6,0.7 1441.9,0.7 Z"/><path id="Path" fill="#F3F6E6" d="M842.8,0.7 L122,0.7 C90.6,0.7 65.1,26.2 65.1,57.6 L65.1,814.3 C65.1,817.1 67.3,819.3 70.1,819.3 L175.4,819.3 C178.2,819.3 180.4,817.1 180.4,814.3 C180.4,759.2 195.4,721 227.6,694 C256.5,669.8 295.5,657.5 336.7,644.6 C375,632.6 414.5,620.1 448.3,597.1 C486.8,570.9 511.8,534.4 524.8,485.6 C565.7,331.8 643.7,281.3 712.5,236.7 C748.4,213.4 782.3,191.5 807.1,157.4 C834.8,119.4 847.703143,71.2 847.703143,5.7 C847.8,2.9 845.5,0.7 842.8,0.7 Z"/><g transform="translate(65.000000, 138.000000)"><path id="Path" fill="#383A48" d="M110.4,681.3 C107.6,681.3 105.4,679.1 105.4,676.3 L105.4,280.8 C105.4,278 107.6,275.8 110.4,275.8 C113.2,275.8 115.4,278 115.4,280.8 L115.4,676.3 C115.4,679 113.1,681.3 110.4,681.3 Z"/><g><g transform="translate(0.000000, 133.000000)"><polygon id="Path" fill="#7FD6C2" points="215.7 188.9 5.1 188.9 65.1 84.4 110.4 5.4 155.7 84.4"/><path id="Shape" fill="#383A48" d="M215.7,193.9 L5.1,193.9 C3.3,193.9 1.7,192.9 0.8,191.4 C-0.1,189.9 -0.1,188 0.8,186.4 L106.1,2.9 C107,1.3 108.6,0.4 110.4,0.4 C112.2,0.4 113.8,1.4 114.7,2.9 L220,186.4 C220.9,187.9 220.9,189.9 220,191.4 C219.1,193 217.5,193.9 215.7,193.9 Z M13.7,183.9 L207,183.9 L110.3,15.4 L13.7,183.9 Z"/></g><g id="Oval" fill="#383A48" transform="translate(15.000000, 176.000000)"><circle cx="178.3" cy="128.3" r="5"/><circle cx="153.7" cy="79" r="5"/><circle cx="153.7" cy="103.7" r="5"/><circle cx="153.7" cy="128.3" r="5"/><circle cx="129" cy="29.7" r="5"/><circle cx="129" cy="54.3" r="5"/><circle cx="129" cy="79" r="5"/><circle cx="129" cy="103.7" r="5"/><circle cx="129" cy="128.3" r="5"/><circle cx="104.3" cy="5" r="5"/><circle cx="104.3" cy="29.7" r="5"/><circle cx="104.3" cy="54.3" r="5"/><circle cx="104.3" cy="79" r="5"/><circle cx="104.3" cy="103.7" r="5"/><circle cx="104.3" cy="128.3" r="5"/><circle cx="79.7" cy="5" r="5"/><circle cx="79.7" cy="29.7" r="5"/><circle cx="79.7" cy="54.3" r="5"/><circle cx="79.7" cy="79" r="5"/><circle cx="79.7" cy="103.7" r="5"/><circle cx="79.7" cy="128.3" r="5"/><circle cx="55" cy="54.3" r="5"/><circle cx="55" cy="79" r="5"/><circle cx="55" cy="103.7" r="5"/><circle cx="55" cy="128.3" r="5"/><circle cx="30.3" cy="79" r="5"/><circle cx="30.3" cy="103.7" r="5"/><circle cx="30.3" cy="128.3" r="5"/><circle cx="5.7" cy="128.3" r="5"/></g><path id="Path" fill="#383A48" d="M160,214.9 L114.7,135.9 C113.8,134.3 112.2,133.4 110.4,133.4 C108.6,133.4 107,134.4 106.1,135.9 L60.8,214.9 C59.9,216.4 59.9,218.4 60.8,219.9 C61.7,221.4 63.3,222.4 65.1,222.4 L155.7,222.4 C157.5,222.4 159.1,221.4 160,219.9 C160.9,218.3 160.9,216.4 160,214.9 Z"/><g><polygon id="Path" fill="#7FD6C2" points="215.7 188.9 5.1 188.9 110.4 5.3"/><path id="Shape" fill="#383A48" d="M215.7,193.9 L5.1,193.9 C3.3,193.9 1.7,192.9 0.8,191.4 C-0.1,189.9 -0.1,188 0.8,186.4 L106.1,2.9 C107,1.3 108.6,0.4 110.4,0.4 C112.2,0.4 113.8,1.4 114.7,2.9 L220,186.4 C220.9,187.9 220.9,189.9 220,191.4 C219.1,192.9 217.5,193.9 215.7,193.9 Z M13.7,183.9 L207,183.9 L110.3,15.4 L13.7,183.9 Z"/></g></g></g><g transform="translate(272.000000, 294.000000)"><path id="Path" fill="#383A48" d="M97.1,525.3 C94.3,525.3 92.1,523.1 92.1,520.3 L92.1,245.5 C92.1,242.7 94.3,240.5 97.1,240.5 C99.9,240.5 102.1,242.7 102.1,245.5 L102.1,520.3 C102.1,523.1 99.9,525.3 97.1,525.3 Z"/><g><g transform="translate(0.000000, 116.000000)"><polygon id="Path" fill="#7FD6C2" points="188.9 165.4 5.3 165.4 57.6 74.3 97.1 5.4 136.6 74.3"/><path id="Shape" fill="#383A48" d="M188.9,170.4 L5.3,170.4 C3.5,170.4 1.9,169.4 1,167.9 C0.1,166.4 0.1,164.5 1,162.9 L92.8,2.9 C93.7,1.3 95.3,0.4 97.1,0.4 C98.9,0.4 100.5,1.4 101.4,2.9 L193.2,162.9 C194.1,164.4 194.1,166.4 193.2,167.9 C192.3,169.4 190.7,170.4 188.9,170.4 Z M14,160.4 L180.3,160.4 L97.2,15.5 L14,160.4 Z"/></g><path id="Path" fill="#383A48" d="M141,187.8 L101.5,118.9 C100.6,117.3 99,116.4 97.2,116.4 C95.4,116.4 93.8,117.4 92.9,118.9 L53.4,187.8 C52.5,189.3 52.5,191.3 53.4,192.8 C54.3,194.3 55.9,195.3 57.7,195.3 L136.7,195.3 C138.5,195.3 140.1,194.3 141,192.8 C141.8,191.2 141.8,189.3 141,187.8 Z"/><g><polygon id="Path" fill="#7FD6C2" points="188.9 165.4 5.3 165.4 97.1 5.4"/><path id="Shape" fill="#383A48" d="M188.9,170.4 L5.3,170.4 C3.5,170.4 1.9,169.4 1,167.9 C0.1,166.4 0.1,164.5 1,162.9 L92.8,2.9 C93.7,1.3 95.3,0.4 97.1,0.4 C98.9,0.4 100.5,1.4 101.4,2.9 L193.2,162.9 C194.1,164.4 194.1,166.4 193.2,167.9 C192.3,169.5 190.7,170.4 188.9,170.4 Z M14,160.4 L180.3,160.4 L97.2,15.5 L14,160.4 Z"/></g><g id="Oval" fill="#383A48" transform="translate(32.000000, 207.000000)"><circle cx="128.4" cy="55" r="5"/><circle cx="103.7" cy="5.7" r="5"/><circle cx="103.7" cy="30.3" r="5"/><circle cx="103.7" cy="55" r="5"/><circle cx="79" cy="5.7" r="5"/><circle cx="79" cy="30.3" r="5"/><circle cx="79" cy="55" r="5"/><circle cx="54.4" cy="5.7" r="5"/><circle cx="54.4" cy="30.3" r="5"/><circle cx="54.4" cy="55" r="5"/><circle cx="29.7" cy="5.7" r="5"/><circle cx="29.7" cy="30.3" r="5"/><circle cx="29.7" cy="55" r="5"/><circle cx="5" cy="30.3" r="5"/><circle cx="5" cy="55" r="5"/></g></g></g><g transform="translate(1075.000000, 394.000000)"><path id="Path" fill="#383A48" d="M96.7,425.3 C93.9,425.3 91.7,423.1 91.7,420.3 L91.7,245.8 C91.7,243 93.9,240.8 96.7,240.8 C99.5,240.8 101.7,243 101.7,245.8 L101.7,420.3 C101.7,423 99.5,425.3 96.7,425.3 Z"/><g><g transform="translate(0.000000, 116.000000)"><polygon id="Path" fill="#7FD6C2" points="188.5 165.6 5 165.6 57.2 74.5 96.7 5.7 136.2 74.5"/><path id="Shape" fill="#383A48" d="M188.5,170.6 L5,170.6 C3.2,170.6 1.6,169.6 0.7,168.1 C-0.2,166.6 -0.2,164.7 0.7,163.1 L92.5,3.1 C93.4,1.5 95,0.6 96.8,0.6 C98.6,0.6 100.2,1.6 101.1,3.1 L192.9,163.1 C193.8,164.6 193.8,166.6 192.9,168.1 C192,169.7 190.3,170.6 188.5,170.6 Z M13.6,160.6 L179.9,160.6 L96.8,15.7 L13.6,160.6 Z"/></g><path id="Path" fill="#383A48" d="M140.6,188 L101.1,119.1 C100.2,117.5 98.6,116.6 96.8,116.6 C95,116.6 93.4,117.6 92.5,119.1 L53,188 C52.1,189.5 52.1,191.5 53,193 C53.9,194.5 55.5,195.5 57.3,195.5 L136.3,195.5 C138.1,195.5 139.7,194.5 140.6,193 C141.5,191.5 141.5,189.6 140.6,188 Z"/><g><polygon id="Path" fill="#7FD6C2" points="188.5 165.7 5 165.7 96.7 5.7"/><path id="Shape" fill="#383A48" d="M188.5,170.7 L5,170.7 C3.2,170.7 1.6,169.7 0.7,168.2 C-0.2,166.7 -0.2,164.8 0.7,163.2 L92.5,3.2 C93.4,1.6 95,0.7 96.8,0.7 C98.6,0.7 100.2,1.7 101.1,3.2 L192.9,163.2 C193.8,164.7 193.8,166.7 192.9,168.2 C192,169.7 190.3,170.7 188.5,170.7 Z M13.6,160.7 L179.9,160.7 L96.8,15.8 L13.6,160.7 Z"/></g><g id="Oval" fill="#383A48" transform="translate(34.000000, 209.000000)"><circle cx="128.4" cy="54.9" r="5"/><circle cx="103.7" cy="5.6" r="5"/><circle cx="103.7" cy="30.2" r="5"/><circle cx="103.7" cy="54.9" r="5"/><circle cx="79.1" cy="5.6" r="5"/><circle cx="79.1" cy="30.2" r="5"/><circle cx="79.1" cy="54.9" r="5"/><circle cx="54.4" cy="5.6" r="5"/><circle cx="54.4" cy="30.2" r="5"/><circle cx="54.4" cy="54.9" r="5"/><circle cx="29.7" cy="5.6" r="5"/><circle cx="29.7" cy="30.2" r="5"/><circle cx="29.7" cy="54.9" r="5"/><circle cx="5.1" cy="30.2" r="5"/><circle cx="5.1" cy="54.9" r="5"/></g></g></g><g transform="translate(1230.000000, 462.000000)"><path id="Path" fill="#383A48" d="M97.4,357.3 C94.6,357.3 92.4,355.1 92.4,352.3 L92.4,245.3 C92.4,242.5 94.6,240.3 97.4,240.3 C100.2,240.3 102.4,242.5 102.4,245.3 L102.4,352.4 C102.4,355.1 100.2,357.3 97.4,357.3 Z"/><g><g transform="translate(0.000000, 116.000000)"><polygon id="Path" fill="#7FD6C2" points="189.2 165.1 5.6 165.1 57.9 74 97.4 5.1 136.9 74"/><path id="Shape" fill="#383A48" d="M189.2,170.1 L5.6,170.1 C3.8,170.1 2.2,169.1 1.3,167.6 C0.4,166.1 0.4,164.2 1.3,162.6 L93.1,2.6 C94,1 95.6,0.1 97.4,0.1 C99.2,0.1 100.8,1.1 101.7,2.6 L193.5,162.6 C194.4,164.1 194.4,166.1 193.5,167.6 C192.6,169.2 191,170.1 189.2,170.1 Z M14.3,160.1 L180.6,160.1 L97.5,15.2 L14.3,160.1 Z"/></g><path id="Path" fill="#383A48" d="M141.2,187.5 L101.7,118.6 C100.8,117 99.2,116.1 97.4,116.1 C95.6,116.1 94,117.1 93.1,118.6 L53.6,187.5 C52.7,189 52.7,191 53.6,192.5 C54.5,194 56.1,195 57.9,195 L136.9,195 C138.7,195 140.3,194 141.2,192.5 C142.1,191 142.1,189.1 141.2,187.5 Z"/><g><polygon id="Path" fill="#7FD6C2" points="189.2 165.2 5.6 165.2 97.4 5.2"/><path id="Shape" fill="#383A48" d="M189.2,170.2 L5.6,170.2 C3.8,170.2 2.2,169.2 1.3,167.7 C0.4,166.2 0.4,164.3 1.3,162.7 L93.1,2.7 C94,1.1 95.6,0.2 97.4,0.2 C99.2,0.2 100.8,1.2 101.7,2.7 L193.5,162.7 C194.4,164.2 194.4,166.2 193.5,167.7 C192.6,169.2 191,170.2 189.2,170.2 Z M14.3,160.2 L180.6,160.2 L97.5,15.3 L14.3,160.2 Z"/></g><g id="Oval" fill="#383A48" transform="translate(34.000000, 207.000000)"><circle cx="128.8" cy="55" r="5"/><circle cx="104.1" cy="5.7" r="5"/><circle cx="104.1" cy="30.4" r="5"/><circle cx="104.1" cy="55" r="5"/><circle cx="79.4" cy="5.7" r="5"/><circle cx="79.4" cy="30.4" r="5"/><circle cx="79.4" cy="55" r="5"/><circle cx="54.8" cy="5.7" r="5"/><circle cx="54.8" cy="30.4" r="5"/><circle cx="54.8" cy="55" r="5"/><circle cx="30.1" cy="5.7" r="5"/><circle cx="30.1" cy="30.4" r="5"/><circle cx="30.1" cy="55" r="5"/><circle cx="5.4" cy="30.4" r="5"/><circle cx="5.4" cy="55" r="5"/></g></g></g><g><g transform="translate(777.000000, 73.000000)"><rect id="Rectangle" width="658.2" height="482.2" x="5.8" y="5" fill="#F3F6E6"/><path id="Shape" fill="#383A48" d="M664,492.2 L5.8,492.2 C3,492.2 0.8,490 0.8,487.2 L0.8,5 C0.8,2.2 3,0 5.8,0 L664,0 C666.8,0 669,2.2 669,5 L669,487.2 C669,490 666.8,492.2 664,492.2 Z M10.8,482.2 L659,482.2 L659,10 L10.8,10 L10.8,482.2 Z"/></g><g transform="translate(777.000000, 73.000000) translate(414.000000, 182.000000)"><circle id="Oval" cx="104.6" cy="104.3" r="98.8" fill="#F6E049"/><path id="Shape" fill="#383A48" d="M104.6,208.1 C47.3,208.1 0.8,161.5 0.8,104.3 C0.8,47.1 47.4,0.5 104.6,0.5 C161.8,0.5 208.4,47.1 208.4,104.3 C208.4,161.5 161.8,208.1 104.6,208.1 Z M104.6,10.4 C52.9,10.4 10.8,52.5 10.8,104.2 C10.8,155.9 52.9,198 104.6,198 C156.3,198 198.4,155.9 198.4,104.2 C198.4,52.5 156.3,10.4 104.6,10.4 Z"/></g><g transform="translate(777.000000, 73.000000) translate(337.000000, 182.000000)"><circle id="Oval" cx="103.8" cy="104.3" r="98.8" fill="#F6E049"/><path id="Shape" fill="#383A48" d="M103.8,208.1 C46.5,208.1 0,161.5 0,104.3 C0,47.1 46.6,0.5 103.8,0.5 C161,0.5 207.6,47.1 207.6,104.3 C207.6,161.5 161,208.1 103.8,208.1 Z M103.8,10.4 C52.1,10.4 10,52.5 10,104.2 C10,155.9 52.1,198 103.8,198 C155.5,198 197.6,155.9 197.6,104.2 C197.6,52.5 155.5,10.4 103.8,10.4 Z"/></g><g transform="translate(777.000000, 73.000000) translate(259.000000, 182.000000)"><g><circle id="Oval" cx="103.9" cy="104.3" r="98.8" fill="#F6E049"/><path id="Shape" fill="#383A48" d="M103.9,208.1 C46.6,208.1 0.1,161.5 0.1,104.3 C0.1,47.1 46.7,0.5 103.9,0.5 C161.1,0.5 207.7,47.1 207.7,104.3 C207.7,161.5 161.2,208.1 103.9,208.1 Z M103.9,10.4 C52.2,10.4 10.1,52.5 10.1,104.2 C10.1,155.9 52.2,198 103.9,198 C155.6,198 197.7,155.9 197.7,104.2 C197.7,52.5 155.7,10.4 103.9,10.4 Z"/></g><circle id="Oval" cx="72.3" cy="89.9" r="10.6" fill="#383A48"/><circle id="Oval" cx="135.5" cy="89.9" r="10.6" fill="#383A48"/><path id="Path" fill="#383A48" d="M103.9,149.7 C88.3,149.7 74,140.5 67.5,126.4 C66.3,123.9 67.5,120.9 70,119.8 C72.5,118.6 75.5,119.8 76.6,122.3 C81.5,132.9 92.2,139.8 103.9,139.8 C115.6,139.8 126.3,132.9 131.2,122.3 C132.4,119.8 135.3,118.7 137.8,119.8 C140.3,121 141.4,123.9 140.3,126.4 C133.8,140.5 119.5,149.7 103.9,149.7 Z"/></g><g transform="translate(777.000000, 73.000000)"><rect id="Rectangle" width="658.2" height="122.8" x="5.8" y="5" fill="#7FD6C2"/><path id="Shape" fill="#383A48" d="M664,132.8 L5.8,132.8 C3,132.8 0.8,130.6 0.8,127.8 L0.8,5 C0.8,2.2 3,0 5.8,0 L664,0 C666.8,0 669,2.2 669,5 L669,127.8 C669,130.6 666.8,132.8 664,132.8 Z M10.8,122.8 L659,122.8 L659,10 L10.8,10 L10.8,122.8 Z"/></g><g fill="#383A48" transform="translate(777.000000, 73.000000) translate(487.000000, 48.000000)"><g id="Rectangle" transform="translate(98.000000, 3.000000)"><rect width="10" height="33" x="10.304" y="-1.129" transform="translate(15.303770, 15.371010) rotate(-45.000000) translate(-15.303770, -15.371010)"/><rect width="33.002" height="10.001" x="-1.045" y="10.233" transform="translate(15.455710, 15.233620) rotate(-44.995949) translate(-15.455710, -15.233620)"/></g><path id="Shape" d="M81.8,36.1 L46.3,36.1 L46.3,0.6 L81.8,0.6 L81.8,36.1 Z M56.4,26.1 L71.9,26.1 L71.9,10.6 L56.4,10.6 L56.4,26.1 Z"/><rect id="Rectangle" width="25.5" height="10" x=".7" y="26.1"/></g></g><g transform="translate(357.000000, 76.000000)"><g transform="translate(305.000000, 236.000000)"><path id="Path" fill="#E0719E" d="M208,106.8 C208,50.4 161.9,4.8 105.3,5.5 C51.8,6.2 7.7,49.2 5.6,102.6 C4.5,130.6 14.7,156.1 32.1,175.1 L95.7,272.7 C112.9,299.1 115.3,332.7 101.3,361 C66.8,430.9 78.3,502.3 78.3,502.3 L126.9,502.3 C126.9,414.1 158.2,361.7 179.4,336.3 C192,321.2 199.3,302.3 200.1,282.6 L206.8,122.5 L206.8,122.5 C207.6,117.4 208,112.1 208,106.8 Z"/><path id="Shape" fill="#383A48" d="M126.9,507.3 L78.3,507.3 C75.8,507.3 73.8,505.5 73.4,503.1 C72.9,500.1 62.1,429.3 96.8,358.8 C109.8,332.4 107.8,300.5 91.5,275.5 L28,178.2 C9.2,157.4 -0.6,130.6 0.5,102.5 C1.6,75.4 13,49.9 32.6,30.8 C52.2,11.7 78,1 105.2,0.6 C133.8,0.2 160.9,11.1 181.3,31.2 C201.7,51.3 212.9,78.2 212.9,106.9 C212.9,112.3 212.5,117.8 211.7,123.1 L205,282.9 C204.1,303.7 196.4,323.8 183.1,339.6 C163.9,362.5 131.7,414.1 131.7,502.4 C131.9,505 129.6,507.3 126.9,507.3 Z M82.7,497.3 L121.9,497.3 C123.1,408.9 155.9,356.6 175.6,333.1 C187.4,319 194.4,301 195.1,282.4 L201.8,122.3 C201.8,122.1 201.8,121.9 201.9,121.7 C202.7,116.8 203.1,111.7 203.1,106.7 C203.1,80.7 192.9,56.4 174.4,38.2 C155.9,20 131.4,10.1 105.4,10.5 C80.8,10.8 57.5,20.6 39.7,37.9 C21.9,55.2 11.6,78.3 10.6,102.9 C9.6,128.5 18.5,153 35.8,171.8 C36,172 36.2,172.2 36.3,172.4 L99.9,270 C118.1,297.9 120.4,333.7 105.8,363.2 C77.1,421.3 80.9,481.1 82.7,497.3 Z"/></g><path id="Path" fill="#383A48" d="M510.2,482.6 L472.9,401.6 C472,399.6 469.8,398.4 467.5,398.8 L344.5,419.2 C342.8,419.5 341.4,420.6 340.7,422.1 C340,423.6 340.2,425.4 341.1,426.8 L378.6,484.3 C379.5,485.7 381,486.5 382.7,486.6 L505.5,489.7 L505.6,489.7 C507.3,489.7 508.8,488.9 509.8,487.5 C510.8,486 511,484.1 510.2,482.6 Z"/><g transform="translate(100.000000, 327.000000)"><path id="Path" fill="#E0719E" d="M5.6,5.4 L5.6,411.2 L52.2,411.2 C52.2,411.2 52.2,405 52.2,332.1 C52.2,259.2 70.5,133 120.3,87.7 L5.6,5.4 Z"/><path id="Shape" fill="#383A48" d="M52.2,416.3 L5.6,416.3 C2.8,416.3 0.6,414.1 0.6,411.3 L0.6,5.4 C0.6,3.5 1.6,1.8 3.3,1 C5,0.1 7,0.3 8.5,1.4 L123.2,83.7 C124.4,84.6 125.2,86 125.3,87.5 C125.4,89 124.8,90.5 123.7,91.5 C102.3,111 84.6,148.8 72.5,200.9 C63,241.9 57.2,291 57.2,332.3 L57.2,411.4 C57.2,414 55,416.3 52.2,416.3 Z M10.6,406.3 L47.2,406.3 L47.2,332.2 C47.2,260.2 64.7,138.1 112.5,88.3 L10.6,15.1 L10.6,406.3 L10.6,406.3 Z"/></g><path id="Path" fill="#383A48" d="M209.3,433.3 C209.2,431.8 208.5,430.5 207.3,429.7 L108.6,357 C107.1,355.9 105.1,355.7 103.4,356.6 C101.7,357.5 100.7,359.2 100.7,361.1 L100.7,413.1 C100.7,414.3 101.1,415.4 101.9,416.3 L172.2,499.3 C173.2,500.4 174.6,501.1 176,501.1 C176.3,501.1 176.7,501.1 177,501 C178.8,500.6 180.2,499.3 180.8,497.5 C184.7,484.4 197.2,448 208,437.3 C208.9,436.2 209.5,434.7 209.3,433.3 Z"/><g transform="translate(100.000000, 236.000000)"><path id="Path" fill="#E0719E" d="M423.3,208 L117.3,208 C55.7,208 5.7,158 5.7,96.4 L5.7,5.5 L423.3,5.5 C479.2,5.5 524.6,50.8 524.6,106.8 L524.6,106.8 C524.5,162.7 479.2,208 423.3,208 Z"/><path id="Shape" fill="#383A48" d="M423.3,213 L117.3,213 C53,213 0.7,160.7 0.7,96.4 L0.7,5.5 C0.7,2.7 2.9,0.5 5.7,0.5 L423.3,0.5 C481.9,0.5 529.6,48.2 529.6,106.8 C529.6,165.4 481.9,213 423.3,213 Z M10.6,10.5 L10.6,96.4 C10.6,155.2 58.4,203 117.2,203 L423.2,203 C476.3,203 519.5,159.8 519.5,106.7 C519.5,53.6 476.3,10.4 423.2,10.4 L10.6,10.5 L10.6,10.5 Z"/></g><g transform="translate(100.000000, 0.000000)"><path id="Path" fill="#E0719E" d="M139.8,442 L139.8,122.8 L229.9,90.9 C236.8,88.4 241.5,81.9 241.5,74.5 L241.5,64.7 C241.5,57.2 236.7,50.6 229.6,48.2 L111,9.1 C103.9,6.7 96.4,5.5 88.9,5.5 L5.6,5.5 L5.6,342.7 C5.6,397.5 50,442 104.9,442 L139.8,442 Z"/><path id="Shape" fill="#383A48" d="M139.8,447 L105,447 C47.5,447 0.7,400.2 0.7,342.7 L0.7,5.6 C0.7,2.8 2.9,0.6 5.7,0.6 L89,0.6 C97.1,0.6 105,1.9 112.7,4.4 L231.3,43.5 C240.5,46.5 246.7,55.1 246.7,64.7 L246.7,74.5 C246.7,84 240.7,92.4 231.8,95.6 L145,126.3 L145,442 C144.8,444.8 142.5,447 139.8,447 Z M10.6,10.6 L10.6,342.8 C10.6,394.8 52.9,437.1 104.9,437.1 L134.7,437.1 L134.7,122.8 C134.7,120.7 136,118.8 138,118.1 L228.1,86.2 C233,84.5 236.3,79.8 236.3,74.5 L236.3,64.7 C236.3,59.3 232.9,54.6 227.8,53 L109.2,13.9 C102.6,11.7 95.7,10.6 88.7,10.6 L10.6,10.6 L10.6,10.6 Z"/></g><g><path id="Path" fill="#E0719E" d="M55.7,60.2 L55.7,60.2 C83.3,60.2 105.7,37.8 105.7,10.2 L105.7,5.5 L5.79966648,5.5 L5.79966648,10.2 C5.7,37.8 28.1,60.2 55.7,60.2 Z"/><path id="Shape" fill="#383A48" d="M55.7,65.2 C25.4,65.2 0.7,40.5 0.7,10.2 L0.7,5.5 C0.7,2.7 2.9,0.5 5.7,0.5 L105.6,0.5 C108.4,0.5 110.6,2.7 110.6,5.5 L110.6,10.2 C110.6,40.5 86,65.2 55.7,65.2 Z M10.7,10.6 C10.9,35.2 31,55.2 55.7,55.2 C80.4,55.2 100.5,35.2 100.7,10.6 L10.7,10.6 Z"/></g><g id="Path"><path fill="#E0719E" d="M5.6,175.1 L69.2,272.7 C86.4,299.1 88.8,332.7 74.8,361 C40.3,430.9 51.8,502.3 51.8,502.3 L100.4,502.3 C100.4,414.1 131.7,361.7 152.9,336.3 C165.5,321.2 172.8,302.3 173.6,282.6 L180.3,122.5 L180.3,122.5 C181.1,117.4 181.5,112.1 181.5,106.8 C181.5,50.4 135.4,4.8 78.8,5.5" transform="translate(443.000000, 236.000000)"/><path fill="#383A48" d="M100.4,507.3 L51.8,507.3 C49.3,507.3 47.3,505.5 46.9,503.1 C46.4,500.1 35.6,429.3 70.3,358.8 C83.3,332.4 81.3,300.5 65,275.5 L1.4,177.9 C-0.1,175.6 0.5,172.5 2.9,171 C5.2,169.5 8.3,170.1 9.8,172.5 L73.4,270.1 C91.6,298 93.9,333.8 79.3,363.3 C50.6,421.4 54.5,481.3 56.2,497.4 L95.4,497.4 C96.6,409 129.4,356.7 149.1,333.2 C160.9,319.1 167.9,301.1 168.6,282.5 L175.3,122.4 C175.3,122.2 175.3,122 175.4,121.8 C176.2,116.9 176.6,111.8 176.6,106.8 C176.6,80.8 166.4,56.5 147.9,38.3 C129.4,20.1 105,10.2 78.9,10.6 C76.2,10.6 73.9,8.4 73.8,5.7 C73.8,2.9 76,0.7 78.7,0.6 C107.4,0.2 134.4,11.1 154.8,31.2 C175.2,51.3 186.4,78.2 186.4,106.9 C186.4,112.3 186,117.8 185.2,123.1 L178.5,282.9 C177.6,303.7 169.9,323.8 156.7,339.6 C137.5,362.5 105.3,414.1 105.3,502.4 C105.4,505 103.2,507.3 100.4,507.3 Z" transform="translate(443.000000, 236.000000)"/></g><g transform="translate(619.000000, 337.000000)"><path id="Path" fill="#E0719E" d="M69.5,105.3 L62.6,105.3 C31.1,105.3 5.6,79.8 5.6,48.3 L5.6,5.8 L12.5,5.8 C44,5.8 69.5,31.3 69.5,62.8 L69.5,105.3 Z"/><path id="Shape" fill="#383A48" d="M69.5,110.3 L62.6,110.3 C28.4,110.3 0.6,82.5 0.6,48.3 L0.6,5.8 C0.6,3 2.8,0.8 5.6,0.8 L12.5,0.8 C46.7,0.8 74.5,28.6 74.5,62.8 L74.5,105.3 C74.5,108 72.3,110.3 69.5,110.3 Z M10.5,10.8 L10.5,48.3 C10.5,77 33.8,100.3 62.5,100.3 L64.4,100.3 L64.4,62.8 C64.4,34.1 41.1,10.8 12.4,10.8 L10.5,10.8 Z"/></g><path id="Path" fill="#383A48" d="M331.1,43.5 L312,37.2 C310.2,36.6 308.3,37.1 306.9,38.4 C305.6,39.7 305.1,41.7 305.6,43.4 L321.1,93.8 C321.5,95.1 322.4,96.2 323.6,96.8 C324.3,97.2 325.1,97.3 325.8,97.3 C326.4,97.3 326.9,97.2 327.5,97 L331.4,95.6 C340.3,92.4 346.3,84 346.3,74.5 L346.3,64.7 C346.5,55.1 340.3,46.6 331.1,43.5 Z"/><g transform="translate(190.000000, 41.000000)"><circle id="Oval" cx="9.9" cy="10" r="4.5" fill="#F6E049"/><path id="Shape" fill="#383A48" d="M9.9,19.6 C4.6,19.6 0.4,15.3 0.4,10.1 C0.4,4.9 4.7,0.6 9.9,0.6 C15.2,0.6 19.4,4.9 19.4,10.1 C19.4,15.3 15.1,19.6 9.9,19.6 Z M9.9,9.6 C9.6,9.6 9.4,9.8 9.4,10.1 C9.4,10.4 9.6,10.6 9.9,10.6 C10.2,10.6 10.4,10.4 10.4,10.1 C10.3,9.8 10.1,9.6 9.9,9.6 Z"/></g><g transform="translate(101.000000, 117.000000)"><path id="Path" fill="#F3F6E6" d="M103.6,327 L138.8,327 L138.8,5.5 L5.3,5.5 L5.3,228.8 C5.3,283 49.3,327 103.6,327 Z"/><path id="Shape" fill="#383A48" d="M138.8,332 L103.6,332 C46.7,332 0.3,285.7 0.3,228.7 L0.3,5.5 C0.3,2.7 2.5,0.5 5.3,0.5 L138.8,0.5 C141.6,0.5 143.8,2.7 143.8,5.5 L143.8,327 C143.8,329.8 141.5,332 138.8,332 Z M10.3,10.5 L10.3,228.8 C10.3,280.2 52.1,322.1 103.6,322.1 L133.8,322.1 L133.8,10.5 L10.3,10.5 Z"/></g><path id="Path" fill="#383A48" d="M244.7,121.6 C244.3,119.2 242.2,117.5 239.8,117.5 L106.3,117.5 C103.5,117.5 101.3,119.7 101.3,122.5 L101.3,174.5 C101.3,176.2 102.1,177.7 103.5,178.6 C104.3,179.2 105.3,179.5 106.3,179.5 C106.9,179.5 107.5,179.4 108.1,179.2 L241.6,127.2 C243.8,126.3 245.1,124 244.7,121.6 Z"/><g id="Path"><path fill="#E0719E" d="M5.8,43.8 L5.8,367.3 L52.4,367.3 C52.4,367.3 52.4,361.1 52.4,288.2 C52.4,226.3 65.6,125.8 100.2,69.2 C111.9,50 114.8,26.8 107.7,5.5 L107.6,5.2" transform="translate(234.000000, 371.000000)"/><path fill="#383A48" d="M52.4,372.3 L5.8,372.3 C3,372.3 0.8,370.1 0.8,367.3 L0.8,43.8 C0.8,41 3,38.8 5.8,38.8 C8.6,38.8 10.8,41 10.8,43.8 L10.8,362.3 L47.4,362.3 L47.4,288.2 C47.4,219.8 62.6,121.2 95.9,66.6 C107,48.5 109.5,26.8 102.9,7.1 L102.8,6.8 C101.9,4.2 103.3,1.3 105.9,0.5 C108.5,-0.4 111.4,1 112.2,3.6 L112.3,3.9 C119.8,26.4 116.9,51.2 104.4,71.8 C72.1,124.8 57.4,221.1 57.4,288.2 L57.4,367.3 C57.4,370 55.1,372.3 52.4,372.3 Z" transform="translate(234.000000, 371.000000)"/></g><g id="Path" fill="#383A48"><path d="M441.7,0.7 L393.8,0.7 C391,0.7 388.8,2.9 388.8,5.7 L388.8,36.3 C388.8,39.1 391,41.3 393.8,41.3 L441.7,41.3 C444.5,41.3 446.7,39.1 446.7,36.3 L446.7,5.7 C446.7,2.9 444.5,0.7 441.7,0.7 Z" transform="translate(101.000000, 702.000000)"/><path d="M329.7,0.7 L281.8,0.7 C279,0.7 276.8,2.9 276.8,5.7 L276.8,36.3 C276.8,39.1 279,41.3 281.8,41.3 L329.7,41.3 C332.5,41.3 334.7,39.1 334.7,36.3 L334.7,5.7 C334.7,2.9 332.5,0.7 329.7,0.7 Z" transform="translate(101.000000, 702.000000)"/><path d="M183.4,0.7 L138.7,0.7 C135.9,0.7 133.7,2.9 133.7,5.7 L133.7,36.3 C133.7,39.1 135.9,41.3 138.7,41.3 L183.4,41.3 C186.2,41.3 188.4,39.1 188.4,36.3 L188.4,5.7 C188.4,2.9 186.2,0.7 183.4,0.7 Z" transform="translate(101.000000, 702.000000)"/><path d="M50,0.7 L5.3,0.7 C2.5,0.7 0.3,2.9 0.3,5.7 L0.3,36.3 C0.3,39.1 2.5,41.3 5.3,41.3 L50,41.3 C52.8,41.3 55,39.1 55,36.3 L55,5.7 C55,2.9 52.8,0.7 50,0.7 Z" transform="translate(101.000000, 702.000000)"/></g><circle id="Oval" cx="494.1" cy="274.9" r="8.4" fill="#F3F6E6"/><circle id="Oval" cx="544.9" cy="283.3" r="8.4" fill="#F3F6E6"/><circle id="Oval" cx="564.1" cy="317.1" r="8.4" fill="#F3F6E6"/><circle id="Oval" cx="510.8" cy="312.6" r="8.4" fill="#F3F6E6"/></g><path id="Path" fill="#383A48" d="M1441,819.3 L70.1,819.3 C67.3,819.3 65.1,817.1 65.1,814.3 C65.1,811.5 67.3,809.3 70.1,809.3 L1441,809.3 C1443.8,809.3 1446,811.5 1446,814.3 C1446,817.1 1443.8,819.3 1441,819.3 Z"/><circle id="Oval" cx="115.4" cy="51" r="50.3" fill="#F6E049"/><path id="Path" fill="#383A48" d="M356.9,182.5 C345.5,182.5 344.3,171.6 344.3,167 C344.3,164.2 342.1,162 339.3,162 C336.5,162 334.3,164.2 334.3,167 C334.3,171.7 333.1,182.5 321.7,182.5 C318.9,182.5 316.7,184.7 316.7,187.5 C316.7,190.3 318.9,192.5 321.7,192.5 C333.1,192.5 334.3,203.4 334.3,208 C334.3,210.8 336.5,213 339.3,213 C342.1,213 344.3,210.8 344.3,208 C344.3,203.3 345.5,192.5 356.9,192.5 C359.7,192.5 361.9,190.3 361.9,187.5 C361.9,184.7 359.6,182.5 356.9,182.5 Z"/><path id="Path" fill="#383A48" d="M1032.1,722 C1020.7,722 1019.5,711.1 1019.5,706.5 C1019.5,703.7 1017.3,701.5 1014.5,701.5 C1011.7,701.5 1009.5,703.7 1009.5,706.5 C1009.5,711.2 1008.3,722 996.9,722 C994.1,722 991.9,724.2 991.9,727 C991.9,729.8 994.1,732 996.9,732 C1008.3,732 1009.5,742.9 1009.5,747.5 C1009.5,750.3 1011.7,752.5 1014.5,752.5 C1017.3,752.5 1019.5,750.3 1019.5,747.5 C1019.5,742.8 1020.7,732 1032.1,732 C1034.9,732 1037.1,729.8 1037.1,727 C1037.1,724.2 1034.8,722 1032.1,722 Z"/><path id="Path" fill="#F6E049" d="M5.6,684.4 C4.3,684.4 3,683.9 2.1,682.9 C0.1,680.9 0.1,677.8 2.1,675.8 L190.3,487.6 C192.3,485.6 195.4,485.6 197.4,487.6 C199.4,489.6 199.4,492.7 197.4,494.7 L9.1,682.9 C8.2,683.9 6.9,684.4 5.6,684.4 Z"/></g></g></g></svg>