<svg xmlns="http://www.w3.org/2000/svg" xmlns:xlink="http://www.w3.org/1999/xlink" width="1542" height="792" version="1.1" viewBox="0 0 1542 792"><title>friendship</title><desc>Created with Sketch.</desc><defs><linearGradient id="linearGradient-1" x1="26.474%" x2="73.4%" y1="60.584%" y2="45.905%"><stop offset="0%" stop-color="#F3F6E6"/><stop offset="100%" stop-color="#F6E049"/></linearGradient><linearGradient id="linearGradient-2" x1="32.582%" x2="81.909%" y1="58.985%" y2="41.199%"><stop offset="0%" stop-color="#F6E049"/><stop offset="100%" stop-color="#F3F6E6"/></linearGradient></defs><g id="Page-1" fill="none" fill-rule="evenodd" stroke="none" stroke-width="1"><g id="friendship" transform="translate(-189.000000, -144.000000)"><g id="Group" transform="translate(189.000000, 144.000000)"><path id="Path" fill="#F3F6E6" fill-rule="nonzero" d="M1536.7,2 L958.2,2 C955.7,2 953.7,3.8 953.3,6.2 C952.9,8.6 954.3,11 956.7,11.7 C957.2,11.9 1011.7,30 1065.4,63.8 C1096.7,83.6 1121.7,104.7 1139.5,126.8 C1161.5,153.9 1172.6,182.4 1172.6,211.4 C1172.6,273.9 1192,335.1 1231.8,398.5 C1267.2,454.9 1313.6,506.2 1362.7,560.5 C1426.4,631 1492.4,703.9 1532.2,788.9 C1533,790.7 1534.8,791.8 1536.7,791.8 C1537.1,791.8 1537.4,791.8 1537.8,791.7 C1540.1,791.2 1541.7,789.2 1541.7,786.8 L1541.7,7 C1541.7,4.2 1539.5,2 1536.7,2 Z"/><path id="Path" fill="#F3F6E6" fill-rule="nonzero" d="M919.5,781.8 C830.5,767.2 784.6,712.9 736.1,655.5 C702.8,616.1 668.3,575.3 617.7,543.1 C560.3,506.6 490.5,487.5 404.3,484.5 C348.5,482.6 312.9,466.2 292.2,433 C273.2,402.5 267.9,359.7 262.3,314.3 C248.4,202.9 231.2,64.3 6.7,0.3 C5.2,-0.1 3.6,0.2 2.3,1.1 C1,2 0.3,3.5 0.3,5.1 L0.3,673.3 C0.3,738.2 53.1,791.1 118.1,791.1 L918.7,791.6 L918.7,791.6 C921.3,791.6 923.5,789.6 923.7,787 C923.9,784.6 922,782.2 919.5,781.8 Z"/><g transform="translate(175.000000, 1.000000)"><g fill-rule="nonzero" transform="translate(0.000000, 250.000000)"><g><rect id="Rectangle" width="492.8" height="530.2" x="5.6" y="5" fill="#F3F6E6"/><path id="Shape" fill="#383A48" d="M498.4,540.2 L5.6,540.2 C2.8,540.2 0.6,538 0.6,535.2 L0.6,5 C0.6,2.2 2.8,0 5.6,0 L498.4,0 C501.2,0 503.4,2.2 503.4,5 L503.4,535.2 C503.4,538 501.2,540.2 498.4,540.2 Z M10.6,530.2 L493.4,530.2 L493.4,10 L10.6,10 L10.6,530.2 Z"/></g><g id="Oval" fill="#383A48" transform="translate(246.000000, 375.000000)"><circle cx="5.5" cy="5.6" r="4.7"/><circle cx="5.5" cy="28.6" r="4.7"/><circle cx="5.5" cy="51.6" r="4.7"/><circle cx="5.5" cy="74.7" r="4.7"/><circle cx="5.5" cy="97.7" r="4.7"/><circle cx="28.5" cy="5.6" r="4.7"/><circle cx="28.5" cy="28.6" r="4.7"/><circle cx="28.5" cy="51.6" r="4.7"/><circle cx="28.5" cy="74.7" r="4.7"/><circle cx="28.5" cy="97.7" r="4.7"/><circle cx="28.5" cy="120.7" r="4.7"/><circle cx="51.5" cy="5.6" r="4.7"/><circle cx="51.5" cy="28.6" r="4.7"/><circle cx="51.5" cy="51.6" r="4.7"/><circle cx="51.5" cy="74.7" r="4.7"/><circle cx="51.5" cy="97.7" r="4.7"/><circle cx="51.5" cy="120.7" r="4.7"/><circle cx="51.5" cy="143.8" r="4.7"/><circle cx="74.5" cy="5.6" r="4.7"/><circle cx="74.5" cy="28.6" r="4.7"/><circle cx="74.5" cy="51.6" r="4.7"/><circle cx="74.5" cy="74.7" r="4.7"/><circle cx="74.5" cy="97.7" r="4.7"/><circle cx="74.5" cy="120.7" r="4.7"/><circle cx="74.5" cy="143.8" r="4.7"/><circle cx="97.6" cy="5.6" r="4.7"/><circle cx="97.6" cy="28.6" r="4.7"/><circle cx="97.6" cy="51.6" r="4.7"/><circle cx="97.6" cy="74.7" r="4.7"/><circle cx="97.6" cy="97.7" r="4.7"/><circle cx="97.6" cy="120.7" r="4.7"/><circle cx="97.6" cy="143.8" r="4.7"/><circle cx="120.6" cy="5.6" r="4.7"/><circle cx="120.6" cy="28.6" r="4.7"/><circle cx="120.6" cy="51.6" r="4.7"/><circle cx="120.6" cy="74.7" r="4.7"/><circle cx="120.6" cy="97.7" r="4.7"/><circle cx="120.6" cy="120.7" r="4.7"/><circle cx="120.6" cy="143.8" r="4.7"/><circle cx="143.6" cy="5.6" r="4.7"/><circle cx="143.6" cy="28.6" r="4.7"/><circle cx="143.6" cy="51.6" r="4.7"/><circle cx="143.6" cy="74.7" r="4.7"/><circle cx="143.6" cy="97.7" r="4.7"/><circle cx="143.6" cy="120.7" r="4.7"/><circle cx="143.6" cy="143.8" r="4.7"/><circle cx="166.7" cy="5.6" r="4.7"/><circle cx="166.7" cy="28.6" r="4.7"/><circle cx="166.7" cy="51.6" r="4.7"/><circle cx="166.7" cy="74.7" r="4.7"/><circle cx="166.7" cy="97.7" r="4.7"/><circle cx="166.7" cy="120.7" r="4.7"/><circle cx="166.7" cy="143.8" r="4.7"/><circle cx="189.7" cy="5.6" r="4.7"/><circle cx="189.7" cy="28.6" r="4.7"/><circle cx="189.7" cy="51.6" r="4.7"/><circle cx="189.7" cy="74.7" r="4.7"/><circle cx="189.7" cy="97.7" r="4.7"/><circle cx="189.7" cy="120.7" r="4.7"/><circle cx="189.7" cy="143.8" r="4.7"/><circle cx="212.7" cy="5.6" r="4.7"/><circle cx="212.7" cy="28.6" r="4.7"/><circle cx="212.7" cy="51.6" r="4.7"/><circle cx="212.7" cy="74.7" r="4.7"/><circle cx="212.7" cy="97.7" r="4.7"/><circle cx="212.7" cy="120.7" r="4.7"/><circle cx="212.7" cy="143.8" r="4.7"/><circle cx="235.7" cy="5.6" r="4.7"/><circle cx="235.7" cy="28.6" r="4.7"/><circle cx="235.7" cy="51.6" r="4.7"/><circle cx="235.7" cy="74.7" r="4.7"/><circle cx="235.7" cy="97.7" r="4.7"/><circle cx="235.7" cy="120.7" r="4.7"/><circle cx="235.7" cy="143.8" r="4.7"/></g><g><rect id="Rectangle" width="492.8" height="104.1" x="5.6" y="5" fill="#AAC6FC"/><path id="Shape" fill="#383A48" d="M498.4,114.1 L5.6,114.1 C2.8,114.1 0.6,111.9 0.6,109.1 L0.6,5 C0.6,2.2 2.8,0 5.6,0 L498.4,0 C501.2,0 503.4,2.2 503.4,5 L503.4,109.1 C503.4,111.8 501.2,114.1 498.4,114.1 Z M10.6,104.1 L493.4,104.1 L493.4,10 L10.6,10 L10.6,104.1 Z"/></g><g><g transform="translate(35.000000, 37.000000)"><circle id="Oval" cx="20.3" cy="20" r="14.8" fill="#E0719E"/><path id="Shape" fill="#383A48" d="M20.3,39.8 C9.4,39.8 0.5,30.9 0.5,20 C0.5,9.1 9.4,0.2 20.3,0.2 C31.2,0.2 40,9.1 40,20 C40,30.9 31.2,39.8 20.3,39.8 Z M20.3,10.3 C14.9,10.3 10.5,14.7 10.5,20.1 C10.5,25.5 14.9,29.9 20.3,29.9 C25.7,29.9 30.1,25.5 30.1,20.1 C30.1,14.7 25.7,10.3 20.3,10.3 Z"/></g><g transform="translate(35.000000, 37.000000) translate(45.000000, 0.000000)"><circle id="Oval" cx="20.5" cy="20" r="14.8" fill="#F6E049"/><path id="Shape" fill="#383A48" d="M20.5,39.8 C9.6,39.8 0.7,30.9 0.7,20 C0.7,9.1 9.6,0.2 20.5,0.2 C31.4,0.2 40.3,9.1 40.3,20 C40.2,30.9 31.4,39.8 20.5,39.8 Z M20.5,10.3 C15.1,10.3 10.7,14.7 10.7,20.1 C10.7,25.5 15.1,29.9 20.5,29.9 C25.9,29.9 30.3,25.5 30.3,20.1 C30.3,14.7 25.9,10.3 20.5,10.3 Z"/></g><g transform="translate(35.000000, 37.000000) translate(90.000000, 0.000000)"><circle id="Oval" cx="20.615" cy="20.002" r="14.8" fill="#7FD6C2" transform="translate(20.614820, 20.001640) rotate(-80.781636) translate(-20.614820, -20.001640)"/><path id="Shape" fill="#383A48" d="M20.6,39.8 C9.7,39.8 0.8,30.9 0.8,20 C0.8,9.1 9.7,0.2 20.6,0.2 C31.5,0.2 40.4,9.1 40.4,20 C40.4,30.9 31.5,39.8 20.6,39.8 Z M20.6,10.3 C15.2,10.3 10.8,14.7 10.8,20.1 C10.8,25.5 15.2,29.9 20.6,29.9 C26,29.9 30.4,25.5 30.4,20.1 C30.4,14.7 26,10.3 20.6,10.3 Z"/></g></g></g><g transform="translate(738.000000, 103.000000)"><g fill-rule="nonzero"><rect id="Rectangle" width="518.3" height="530.7" x="5.4" y="5.7" fill="#F3F6E6"/><path id="Shape" fill="#383A48" d="M523.8,541.4 L5.5,541.4 C2.7,541.4 0.5,539.2 0.5,536.4 L0.5,5.7 C0.5,2.9 2.7,0.7 5.5,0.7 L523.8,0.7 C526.6,0.7 528.8,2.9 528.8,5.7 L528.8,536.4 C528.8,539.1 526.5,541.4 523.8,541.4 Z M10.4,531.4 L518.7,531.4 L518.7,10.7 L10.4,10.7 L10.4,531.4 L10.4,531.4 Z"/></g><g id="Oval" fill="#383A48" fill-rule="nonzero" transform="translate(22.000000, 377.000000)"><circle cx="327.1" cy="4.7" r="4.7"/><circle cx="327.1" cy="27.8" r="4.7"/><circle cx="327.1" cy="50.8" r="4.7"/><circle cx="327.1" cy="73.8" r="4.7"/><circle cx="304.1" cy="4.7" r="4.7"/><circle cx="304.1" cy="27.8" r="4.7"/><circle cx="304.1" cy="50.8" r="4.7"/><circle cx="304.1" cy="73.8" r="4.7"/><circle cx="304.1" cy="96.8" r="4.7"/><circle cx="281.1" cy="4.7" r="4.7"/><circle cx="281.1" cy="27.8" r="4.7"/><circle cx="281.1" cy="50.8" r="4.7"/><circle cx="281.1" cy="73.8" r="4.7"/><circle cx="281.1" cy="96.8" r="4.7"/><circle cx="281.1" cy="119.9" r="4.7"/><circle cx="258.1" cy="4.7" r="4.7"/><circle cx="258.1" cy="27.8" r="4.7"/><circle cx="258.1" cy="50.8" r="4.7"/><circle cx="258.1" cy="73.8" r="4.7"/><circle cx="258.1" cy="96.8" r="4.7"/><circle cx="258.1" cy="119.9" r="4.7"/><circle cx="258.1" cy="142.9" r="4.7"/><circle cx="235" cy="4.7" r="4.7"/><circle cx="235" cy="27.8" r="4.7"/><circle cx="235" cy="50.8" r="4.7"/><circle cx="235" cy="73.8" r="4.7"/><circle cx="235" cy="96.8" r="4.7"/><circle cx="235" cy="119.9" r="4.7"/><circle cx="235" cy="142.9" r="4.7"/><circle cx="212" cy="4.7" r="4.7"/><circle cx="212" cy="27.8" r="4.7"/><circle cx="212" cy="50.8" r="4.7"/><circle cx="212" cy="73.8" r="4.7"/><circle cx="212" cy="96.8" r="4.7"/><circle cx="212" cy="119.9" r="4.7"/><circle cx="212" cy="142.9" r="4.7"/><circle cx="189" cy="4.7" r="4.7"/><circle cx="189" cy="27.8" r="4.7"/><circle cx="189" cy="50.8" r="4.7"/><circle cx="189" cy="73.8" r="4.7"/><circle cx="189" cy="96.8" r="4.7"/><circle cx="189" cy="119.9" r="4.7"/><circle cx="189" cy="142.9" r="4.7"/><circle cx="166" cy="4.7" r="4.7"/><circle cx="166" cy="27.8" r="4.7"/><circle cx="166" cy="50.8" r="4.7"/><circle cx="166" cy="73.8" r="4.7"/><circle cx="166" cy="96.8" r="4.7"/><circle cx="166" cy="119.9" r="4.7"/><circle cx="166" cy="142.9" r="4.7"/><circle cx="142.9" cy="4.7" r="4.7"/><circle cx="142.9" cy="27.8" r="4.7"/><circle cx="142.9" cy="50.8" r="4.7"/><circle cx="142.9" cy="73.8" r="4.7"/><circle cx="142.9" cy="96.8" r="4.7"/><circle cx="142.9" cy="119.9" r="4.7"/><circle cx="142.9" cy="142.9" r="4.7"/><circle cx="119.9" cy="4.7" r="4.7"/><circle cx="119.9" cy="27.8" r="4.7"/><circle cx="119.9" cy="50.8" r="4.7"/><circle cx="119.9" cy="73.8" r="4.7"/><circle cx="119.9" cy="96.8" r="4.7"/><circle cx="119.9" cy="119.9" r="4.7"/><circle cx="119.9" cy="142.9" r="4.7"/><circle cx="96.9" cy="4.7" r="4.7"/><circle cx="96.9" cy="27.8" r="4.7"/><circle cx="96.9" cy="50.8" r="4.7"/><circle cx="96.9" cy="73.8" r="4.7"/><circle cx="96.9" cy="96.8" r="4.7"/><circle cx="96.9" cy="119.9" r="4.7"/><circle cx="96.9" cy="142.9" r="4.7"/><circle cx="73.8" cy="4.7" r="4.7"/><circle cx="73.8" cy="27.8" r="4.7"/><circle cx="73.8" cy="50.8" r="4.7"/><circle cx="73.8" cy="73.8" r="4.7"/><circle cx="73.8" cy="96.8" r="4.7"/><circle cx="73.8" cy="119.9" r="4.7"/><circle cx="73.8" cy="142.9" r="4.7"/><circle cx="50.8" cy="4.7" r="4.7"/><circle cx="50.8" cy="27.8" r="4.7"/><circle cx="50.8" cy="50.8" r="4.7"/><circle cx="50.8" cy="73.8" r="4.7"/><circle cx="50.8" cy="96.8" r="4.7"/><circle cx="50.8" cy="119.9" r="4.7"/><circle cx="50.8" cy="142.9" r="4.7"/><circle cx="27.8" cy="4.7" r="4.7"/><circle cx="27.8" cy="27.8" r="4.7"/><circle cx="27.8" cy="50.8" r="4.7"/><circle cx="27.8" cy="73.8" r="4.7"/><circle cx="27.8" cy="96.8" r="4.7"/><circle cx="27.8" cy="119.9" r="4.7"/><circle cx="27.8" cy="142.9" r="4.7"/><circle cx="4.8" cy="4.7" r="4.7"/><circle cx="4.8" cy="27.8" r="4.7"/><circle cx="4.8" cy="50.8" r="4.7"/><circle cx="4.8" cy="73.8" r="4.7"/><circle cx="4.8" cy="96.8" r="4.7"/><circle cx="4.8" cy="119.9" r="4.7"/><circle cx="4.8" cy="142.9" r="4.7"/></g><g fill-rule="nonzero"><rect id="Rectangle" width="518.3" height="104.5" x="5.4" y="5.7" fill="#7FD6C2"/><path id="Shape" fill="#383A48" d="M523.8,115.2 L5.5,115.2 C2.7,115.2 0.5,113 0.5,110.2 L0.5,5.7 C0.5,2.9 2.7,0.7 5.5,0.7 L523.8,0.7 C526.6,0.7 528.8,2.9 528.8,5.7 L528.8,110.2 C528.8,113 526.5,115.2 523.8,115.2 Z M10.4,105.2 L518.7,105.2 L518.7,10.7 L10.4,10.7 L10.4,105.2 L10.4,105.2 Z"/></g><g transform="translate(356.000000, 40.000000)"><g><g transform="translate(96.000000, 2.000000)"><line id="Path" x1="3.8" x2="26.7" y1="4.5" y2="27.4"/><rect id="Rectangle" width="10" height="32.5" x="10.17" y="-.278" fill="#383A48" fill-rule="nonzero" transform="translate(15.170265, 15.971825) rotate(-45.000000) translate(-15.170265, -15.971825)"/></g><g transform="translate(96.000000, 2.000000)"><line id="Path" x1="3.8" x2="26.7" y1="27.4" y2="4.5"/><rect id="Rectangle" width="32.502" height="10.001" x="-.866" y="10.725" fill="#383A48" fill-rule="nonzero" transform="translate(15.385000, 15.725275) rotate(-44.995949) translate(-15.385000, -15.725275)"/></g></g><path id="Shape" fill="#383A48" fill-rule="nonzero" d="M80.3,35.5 L45.2,35.5 L45.2,0.4 L80.3,0.4 L80.3,35.5 Z M55.3,25.5 L70.4,25.5 L70.4,10.4 L55.3,10.4 L55.3,25.5 Z"/><rect id="Rectangle" width="25.1" height="10" x=".4" y="25.5" fill="#383A48" fill-rule="nonzero"/></g></g><g fill-rule="nonzero" transform="translate(131.000000, 87.000000)"><g transform="translate(0.000000, 83.000000)"><g transform="translate(5.000000, 251.000000)"><polygon id="Path" fill="#F6E049" points="5.5 107.8 370.5 5.2 437.1 249.3 131 330.1"/><path id="Shape" fill="#383A48" d="M131,335.1 C129.2,335.1 127.5,334.2 126.6,332.6 L1.2,110.2 C0.4,108.9 0.3,107.3 0.9,105.8 C1.5,104.4 2.7,103.3 4.2,102.9 L369.2,0.4 C370.5,1.00253139e-13 371.9,0.2 373,0.9 C374.2,1.6 375,2.6 375.4,3.9 L441.9,248 C442.3,249.3 442.103867,250.7 441.4,251.8 C440.7,253 439.6,253.8 438.3,254.1 L132.2,334.9 C131.9,335 131.4,335.1 131,335.1 Z M13,110.9 L133.5,324.3 L431,245.8 L367,11.4 L13,110.9 Z"/></g><g fill="#383A48" transform="translate(286.000000, 435.000000)"><polygon id="Path" points="5.7 103.9 19.4 6 140.8 69.7"/><path id="Shape" d="M5.7,108.9 C4.5,108.9 3.3,108.5 2.4,107.6 C1.2,106.5 0.6,104.8 0.8,103.2 L14.5,5.3 C14.7,3.7 15.7,2.3 17.2,1.5 C18.6,0.8 20.4,0.8 21.8,1.5 L143.2,65.3 C145,66.3 146.1,68.3 145.8,70.3 C145.6,72.4 144.1,74.1 142.1,74.6 L6.9,108.8 C6.5,108.8 6.1,108.9 5.7,108.9 Z M23.4,13.7 L11.7,97.2 L127,68.1 L23.4,13.7 Z"/></g><g fill="#383A48" transform="translate(191.000000, 286.000000)"><polygon id="Path" points="56.3 5.9 68.5 58.1 5.4 20.8"/><path id="Shape" d="M68.5,63.1 C67.6,63.1 66.7,62.9 66,62.4 L2.9,25.1 C1.2,24.1 0.2,22.1 0.5,20.2 C0.7,18.2 2.1,16.6 4.1,16 L55,1.2 C56.3,0.8 57.7,1 58.9,1.7 C60.1,2.4 60.9,3.5 61.2,4.9 L73.5,57 C74,59 73.2,61 71.6,62.2 C70.6,62.7 69.6,63.1 68.5,63.1 Z M17.9,22.3 L61,47.8 L52.6,12.2 L17.9,22.3 Z"/></g><g transform="translate(140.000000, 0.000000)"><g transform="translate(110.000000, 195.000000)"><path id="Path" fill="#F6E049" d="M182.5,7.8 L58.2,39.3 C20.3,48.9 -2.6,88.3 7.3,127.2 L26.9,204.8 C45.6,278.8 119.6,324.2 191.8,306 C264,287.7 307.5,212.6 288.8,138.6 L269.2,61 C259.3,22 220.4,-1.8 182.5,7.8 Z"/><path id="Shape" fill="#383A48" d="M159.3,315 C134,315 109.1,308 86.7,294.2 C54.4,274.4 31.4,243.1 22.1,206 L2.5,128.4 C-8,86.8 16.5,44.7 57.1,34.4 L181.3,3 C221.9,-7.3 263.5,18.2 274,59.8 L293.6,137.4 C313,214 267.9,291.8 193,310.8 C181.9,313.6 170.5,315 159.3,315 Z M182.5,7.8 L183.7,12.6 L59.4,44.1 C24.2,53 2.9,89.7 12.1,126 L31.7,203.6 C40.4,238.1 61.8,267.3 91.9,285.8 C121.9,304.2 157,309.7 190.6,301.2 C260.1,283.6 302,211.2 283.9,139.9 L264.3,62.3 C255.1,26.1 219,3.9 183.8,12.8 L182.5,7.8 Z"/></g><g transform="translate(105.000000, 184.000000)"><path id="Path" fill="#F6E049" d="M272.1,59.6 L295.1,150.4 C302.3,178.7 300,207.2 290.3,232.6 C285.9,244.1 279.9,255 272.7,264.9 L272.6,264.9 L265.4,263.5 L178,246.3 L148.2,240.5 L38,218.9 L32.5,217.8 L30.4,217.4 L7.4,126.6 C6.6,123.6 6.1,120.6 5.7,117.6 C5.3,114.2 5.1,110.9 5.2,107.6 C5.8,78.4 24.3,51.8 52.4,41.6 C54.6,40.8 56.9,40.1 59.3,39.5 L185,7.7 C186.2,7.4 187.3,7.1 188.5,6.9 C189.4,6.7 190.3,6.6 191.2,6.4 C227.4,0.5 262.9,23.4 272.1,59.6 Z"/><path id="Shape" fill="#383A48" d="M272.6,269.9 C272.4,269.9 272.2,269.9 271.9,269.9 C271.8,269.9 271.6,269.9 271.5,269.8 L29.3,222.3 C27.4,221.9 25.9,220.5 25.4,218.6 L2.4,127.8 C1.6,124.6 1,121.4 0.6,118.2 C0.2,114.7 -1.31006317e-14,111 0.1,107.4 C0.7,75.9 21,47.5 50.6,36.8 C53,35.9 55.5,35.2 58,34.5 L183.7,2.7 C185,2.4 186.3,2.1 187.5,1.8 C188.3,1.6 189.3,1.4 190.3,1.3 C209.1,-1.7 228.4,2.4 244.4,12.9 C260.6,23.5 272.1,39.6 276.8,58.3 L276.8,58.3 L299.8,149.1 C307,177.5 305.2,207 294.8,234.3 C290.2,246.2 284.1,257.5 276.5,267.8 C275.6,269.1 274.1,269.9 272.6,269.9 Z M34.4,213.1 L39,214 L270.4,259.3 C276.6,250.4 281.7,240.9 285.6,230.8 C295.3,205.4 296.9,178 290.3,151.7 L267.3,60.9 L267.3,60.9 C263.2,44.6 253.2,30.6 239.1,21.5 C225.1,12.4 208.4,8.8 192,11.4 C191.1,11.5 190.3,11.7 189.6,11.8 C188.5,12 187.4,12.3 186.3,12.5 L60.6,44.3 C58.4,44.9 56.3,45.5 54.2,46.3 C28.5,55.6 10.8,80.3 10.3,107.7 C10.2,110.8 10.4,113.9 10.8,117 C11.1,119.8 11.7,122.6 12.4,125.4 L34.4,213.1 Z"/></g><g transform="translate(257.000000, 36.000000)"><path id="Path" fill="#F6E049" d="M76.2,33 L124.8,225 C125.1,226.4 125.4,227.7 125.6,229.1 C125.6,229.3 125.7,229.5 125.7,229.7 C125.9,231.4 126,233.1 125.9,234.8 C125.8,238.2 125.2,241.6 124.2,244.7 C120.6,256.2 111.2,265.6 98.7,268.7 C79.4,273.6 59.8,261.9 55,242.6 L6.4,50.6 C5,45.1 5,39.7 6,34.5 C6.4,32.7 6.9,31 7.5,29.3 C11.5,18.5 20.5,9.8 32.5,6.8 C51.8,2 71.3,13.7 76.2,33 Z"/><path id="Shape" fill="#383A48" d="M89.9,274.9 C71.6,274.9 54.8,262.5 50.1,243.9 L1.5,51.9 C6.66133815e-15,45.8 -0.2,39.7 1.1,33.5 C1.5,31.4 2.1,29.4 2.8,27.6 C7.5,14.9 18.1,5.3 31.2,2 C41.8,-0.7 52.9,0.9 62.3,6.5 C71.7,12.1 78.4,21.1 81.1,31.7 L129.7,223.7 C130.1,225.2 130.4,226.8 130.6,228.3 C130.6,228.5 130.7,228.8 130.7,229 C130.9,231 131,232.9 131,234.8 C130.9,238.7 130.3,242.5 129.1,246.1 C124.8,259.7 113.9,269.9 100.1,273.5 C96.6,274.5 93.2,274.9 89.9,274.9 Z M41.4,10.8 C38.8,10.8 36.3,11.1 33.7,11.8 C23.8,14.3 15.7,21.5 12.2,31.2 C11.7,32.6 11.2,34.1 10.9,35.6 C9.9,40.2 10,44.9 11.2,49.5 L59.8,241.5 C64,258.1 80.9,268.2 97.5,264 C108,261.3 116.2,253.6 119.5,243.3 C120.4,240.5 120.9,237.6 121,234.7 C121,233.2 121,231.8 120.8,230.4 C120.8,230.2 120.8,230.1 120.7,230 L120.7,229.9 C120.5,228.7 120.3,227.5 120,226.4 L71.4,34.4 C69.4,26.4 64.3,19.6 57.2,15.4 C52.3,12.3 46.9,10.8 41.4,10.8 Z"/></g><g transform="translate(181.000000, 15.000000)"><path id="Path" fill="#F6E049" d="M102.2,282.1 C82.9,287 63.3,275.3 58.5,256 L6.4,50 C1.5,30.7 13.2,11.1 32.5,6.3 C51.8,1.4 71.4,13.1 76.2,32.4 L128.3,238.4 C133.2,257.6 121.5,277.2 102.2,282.1 Z"/><path id="Shape" fill="#383A48" d="M93.3,288.2 C86,288.2 78.8,286.2 72.4,282.4 C63,276.8 56.3,267.9 53.6,257.2 L1.5,51.2 C-4,29.3 9.3,6.9 31.2,1.4 C41.8,-1.3 52.9,0.3 62.3,5.9 C71.7,11.5 78.4,20.4 81.1,31.1 L133.2,237.1 C135.9,247.7 134.3,258.8 128.7,268.2 C123.1,277.6 114.2,284.3 103.5,287 L103.5,287 C100.1,287.8 96.7,288.2 93.3,288.2 Z M41.3,10.1 C38.7,10.1 36.2,10.4 33.6,11.1 C17,15.3 6.9,32.2 11.1,48.8 L63.2,254.8 C65.2,262.8 70.3,269.6 77.4,273.8 C84.5,278 92.9,279.3 100.9,277.2 L100.9,277.2 C108.9,275.2 115.7,270.1 119.9,263 C124.1,255.9 125.4,247.5 123.3,239.5 L71.2,33.5 C69.2,25.5 64.1,18.7 57,14.5 C52.3,11.6 46.8,10.1 41.3,10.1 Z"/></g><g transform="translate(106.000000, 0.000000)"><path id="Path" fill="#F6E049" d="M110.8,313.9 C91.5,318.8 71.9,307.1 67.1,287.8 L7,50.4 C2.1,31.1 13.8,11.5 33.1,6.7 C52.4,1.8 72,13.5 76.8,32.8 L136.9,270.2 C141.8,289.4 130.1,309 110.8,313.9 Z"/><path id="Shape" fill="#383A48" d="M101.9,320 C94.6,320 87.4,318 81,314.2 C71.6,308.6 64.9,299.7 62.2,289 L2.1,51.6 C-3.4,29.7 9.9,7.3 31.8,1.8 C42.4,-0.9 53.5,0.7 62.9,6.3 C72.3,11.9 79,20.8 81.7,31.5 L141.8,268.9 C147.3,290.8 134,313.2 112.1,318.7 C108.7,319.6 105.3,320 101.9,320 Z M42,10.5 C39.4,10.5 36.9,10.8 34.3,11.5 C17.7,15.7 7.6,32.6 11.8,49.2 L71.9,286.6 C73.9,294.6 79,301.4 86.1,305.6 C93.2,309.8 101.6,311.1 109.6,309 C126.2,304.8 136.3,287.9 132.1,271.3 L72,33.9 C70,25.9 64.9,19.1 57.8,14.9 C53,12 47.5,10.5 42,10.5 Z"/></g><g transform="translate(54.000000, 58.000000)"><path id="Path" fill="#F6E049" d="M102.6,282.3 C83.3,287.2 67.2,289.1 62.3,269.8 L6.8,50.2 C1.9,30.9 13.6,11.3 32.9,6.5 C52.2,1.6 71.8,13.3 76.6,32.6 L128.7,238.6 C133.6,257.8 121.9,277.4 102.6,282.3 Z"/><path id="Shape" fill="#383A48" d="M82.6,290.6 C71.7,290.6 61.4,286.5 57.5,271 L2,51.4 C-3.5,29.5 9.8,7.1 31.7,1.6 C53.6,-3.9 76,9.4 81.5,31.3 L133.6,237.3 C139.1,259.2 125.8,281.6 103.9,287.1 L103.9,287.1 C97.8,288.6 90.1,290.6 82.6,290.6 Z M41.7,10.3 C39.2,10.3 36.6,10.6 34.1,11.3 C17.5,15.5 7.4,32.4 11.6,49 L67.1,268.6 C70.3,281.3 78.3,283.3 101.3,277.5 L101.3,277.5 C117.9,273.3 128,256.4 123.8,239.8 L71.7,33.8 C68.2,19.7 55.6,10.3 41.7,10.3 Z"/></g><path id="Path" fill="#F6E049" d="M291.6,206.1 L171.4,236.5 C134.7,245.8 112.7,284.1 122.3,321.9 L141.4,397.4 C159.6,469.4 231.2,513.7 301,496 C370.8,478.3 412.7,405.4 394.5,333.4 L375.4,257.9 C365.9,220.1 328.3,196.9 291.6,206.1 Z"/><g id="Path"><path fill="#F6E049" d="M263.9,142 C248.4,49.7 160.2,91.3 134.8,68.8 L74,15.5 C56.6,0.6 30.5,2.7 15.6,20 C0.7,37.4 2.8,63.5 20.1,78.4 C20.1,78.4 158.5,210.8 226.1,243.3" transform="translate(0.000000, 254.000000)"/><path fill="#383A48" d="M226.1,248.3 C225.4,248.3 224.6,248.1 223.9,247.8 C195.5,234.1 151.9,202.1 94.5,152.5 C53,116.6 18.8,84.1 16.7,82.2 C-2.6,65.5 -4.9,36.3 11.7,16.8 C19.8,7.4 31,1.7 43.4,0.7 C55.8,-0.3 67.8,3.7 77.2,11.7 L138,65 C145,71.2 159,71.7 175.2,72.2 C210,73.4 257.7,75 268.8,141.2 C269.3,143.9 267.4,146.5 264.7,147 C262,147.5 259.4,145.6 258.9,142.9 C249.1,84.8 209.7,83.5 174.8,82.3 C156.7,81.7 141,81.2 131.3,72.6 L70.6,19.3 C63.3,13 53.8,9.9 44.1,10.7 C34.4,11.5 25.6,15.9 19.3,23.3 C6.2,38.6 8,61.6 23.3,74.7 C23.4,74.8 23.4,74.8 23.5,74.9 C24.9,76.2 162.1,207.1 228.2,238.9 C230.7,240.1 231.7,243.1 230.5,245.6 C229.7,247.3 228,248.3 226.1,248.3 Z" transform="translate(0.000000, 254.000000)"/></g></g><polygon id="Path" fill="url(#linearGradient-1)" points="205 557.5 123.4 579.5 .2 366.2 146.4 326.2"/></g><g fill="#383A48" transform="translate(326.000000, 119.000000)"><path id="Path" d="M188.2,217.3 C185.1,222 180.8,226 175.7,228.9 C180.8,228.7 186,228.6 191.3,228.8 C192.7,228.9 194.1,228.9 195.6,229 C196,229 196.3,229.1 196.7,229.1 C196.7,229.1 196.7,229.1 196.8,229.1 C196.8,229.3 196.9,229.5 196.9,229.7 L214.3,298.4 C221.5,326.7 216,342.5 206.2,367.8 C206,367.7 205.8,367.6 205.6,367.5 C203.9,366.6 202.2,365.7 200.4,364.8 C158.6,342.3 22.9,243.2 22.9,243.2 C19.1,240.4 15.9,237.1 13.3,233.5 C6,223.1 3.8,209.9 7.5,197.7 C7.8,196.6 8.2,195.4 8.7,194.3 C9.9,191.2 11.6,188.2 13.6,185.3 C15,183.4 16.4,181.7 18,180.1 C25.8,172.3 36.3,168.2 46.9,168.1 C48.1,168.1 49.4,168.1 50.7,168.2 C53.4,168.4 56.2,168.9 58.8,169.7 C63.2,171 67.5,173.1 71.5,175.9 L73.8,177.6 L76.9,179.9 L117.2,207 L121.2,210 L121.2,210 L124.9,212.7 L78.7,29.1 C82.7,18.3 91.7,9.6 103.7,6.6 C123,1.7 142.6,13.4 147.5,32.7 L192.2,209.5 C192.1,209.7 192.1,209.8 192,210 C191.7,210.7 191.4,211.5 191.1,212.2 C190.1,214.2 189.2,215.8 188.2,217.3 Z"/><path id="Shape" d="M206,372.9 C205.2,372.9 204.4,372.7 203.7,372.3 L203.1,372 C201.4,371.1 199.6,370.2 197.8,369.2 C156.2,346.8 25.3,251.3 19.7,247.3 C15.5,244.3 11.9,240.6 9,236.4 C0.9,224.8 -1.6,209.8 2.5,196.3 C2.9,195 3.3,193.7 3.8,192.5 C5.2,189 7.1,185.6 9.3,182.5 C10.8,180.4 12.5,178.5 14.3,176.7 C22.9,168.1 34.4,163.4 46.6,163.3 C48,163.3 49.4,163.3 50.8,163.5 C53.8,163.7 56.9,164.3 59.9,165.2 C65,166.7 69.8,169 74.1,172.2 L79.5,176.2 L116.4,201 L73.6,30.7 C73.4,29.7 73.4,28.7 73.8,27.8 C78.5,15.1 89.1,5.5 102.2,2.2 C112.8,-0.5 123.9,1.1 133.3,6.7 C142.7,12.3 149.4,21.3 152.1,31.9 L196.8,208.7 C197,209.6 197,210.6 196.7,211.4 C196.6,211.7 196.5,212 196.4,212.2 C196.1,213 195.7,213.8 195.4,214.6 C194.5,216.5 193.5,218.3 192.3,220.1 C191.5,221.4 190.5,222.6 189.6,223.8 C190.2,223.8 190.8,223.8 191.4,223.9 C192.9,224 194.3,224 195.8,224.1 L196.1,224.1 C196.4,224.1 196.6,224.1 196.9,224.2 C197,224.2 197,224.2 197.1,224.2 C199.4,224.4 201.3,226.1 201.6,228.4 C201.6,228.6 201.6,228.7 201.7,228.9 L219,297.3 C226.4,326.6 221,343.1 210.8,369.8 C210.3,371.1 209.2,372.2 207.9,372.7 C207.2,372.7 206.6,372.9 206,372.9 Z M47.2,173.3 C47.1,173.3 46.9,173.3 46.8,173.3 C37.2,173.4 28.2,177.1 21.4,183.8 C20,185.2 18.7,186.7 17.5,188.4 C15.7,190.8 14.3,193.5 13.2,196.3 C12.8,197.3 12.4,198.3 12.2,199.3 C9,210 10.9,221.7 17.3,230.8 C19.6,234.1 22.5,237 25.7,239.3 C27.1,240.3 161.6,338.4 202.7,360.5 C202.9,360.6 203.2,360.8 203.4,360.9 C211.8,338.5 215.5,324.3 209.3,299.7 L192.7,233.9 C192.2,233.9 191.7,233.9 191.1,233.8 C186.7,233.6 181.9,233.7 175.9,233.9 C173.6,234 171.5,232.5 170.9,230.2 C170.3,228 171.3,225.6 173.3,224.5 C177.6,222.1 181.3,218.7 184.1,214.5 L184.1,214.5 C185,213.2 185.8,211.8 186.4,210.4 C186.5,210.1 186.7,209.8 186.8,209.5 L142.5,34.2 C140.5,26.2 135.4,19.4 128.3,15.2 C121.2,11 112.8,9.7 104.8,11.8 C95.4,14.2 87.6,20.9 83.9,29.8 L129.7,211.9 C130.2,213.9 129.4,216.1 127.6,217.3 C125.8,218.5 123.5,218.4 121.8,217.2 L118.1,214.5 C118,214.5 118,214.4 117.9,214.3 L114.2,211.5 L74,184.5 C73.9,184.5 73.9,184.4 73.8,184.4 L68.3,180.3 C65,177.9 61.2,176 57.2,174.9 C54.9,174.2 52.5,173.8 50.1,173.6 C49.1,173.3 48.1,173.3 47.2,173.3 Z"/></g><g transform="translate(361.000000, 0.000000)"><g id="Path"><path fill="#F6E049" d="M11.6,142.9 L7.4,126.3 C-2.3,88 21,48.9 59.3,39.2 L185,7.4 C223.3,-2.3 262.4,21 272.1,59.3 L300.4,171" transform="translate(125.000000, 184.000000)"/><path fill="#383A48" d="M300.5,176.1 C298.3,176.1 296.2,174.6 295.7,172.3 L267.4,60.6 C258.4,24.9 222,3.3 186.4,12.3 L60.6,44 C43.4,48.4 28.8,59.2 19.7,74.5 C10.6,89.8 7.9,107.8 12.3,125 L16.5,141.6 C17.2,144.3 15.6,147 12.9,147.7 C10.2,148.4 7.5,146.8 6.8,144.1 L2.6,127.5 C-2.4,107.7 0.6,87 11.1,69.4 C21.6,51.8 38.3,39.3 58.2,34.3 L183.9,2.5 C224.9,-7.9 266.7,17 277.1,58.1 L305.4,169.8 C306.1,172.5 304.5,175.2 301.8,175.9 C301.3,176 300.9,176.1 300.5,176.1 Z" transform="translate(125.000000, 184.000000)"/></g><g transform="translate(277.000000, 36.000000)"><path id="Path" fill="#F6E049" d="M102.4,282.4 C83.1,287.3 63.5,275.6 58.7,256.3 L6.6,50.3 C1.7,31 13.4,11.4 32.7,6.6 C52,1.7 71.6,13.4 76.4,32.7 L128.5,238.7 C133.3,258 121.7,277.6 102.4,282.4 Z"/><path id="Shape" fill="#383A48" d="M93.5,288.5 C75.2,288.5 58.4,276.1 53.7,257.5 L1.6,51.5 C-3.9,29.6 9.4,7.2 31.3,1.7 C53.2,-3.8 75.6,9.5 81.1,31.4 L133.2,237.4 C135.9,248 134.3,259.1 128.7,268.5 C123.1,277.9 114.2,284.6 103.5,287.3 L103.5,287.3 C100.2,288.1 96.9,288.5 93.5,288.5 Z M41.4,10.5 C38.9,10.5 36.3,10.8 33.8,11.5 C17.2,15.7 7.1,32.6 11.3,49.2 L63.4,255.2 C67.6,271.8 84.5,281.9 101.1,277.7 C109.1,275.7 115.9,270.6 120.1,263.5 C124.3,256.4 125.6,248 123.5,240 L71.4,34 C67.9,19.9 55.3,10.5 41.4,10.5 Z"/></g><g transform="translate(201.000000, 14.000000)"><path id="Path" fill="#F6E049" d="M102.3,282.8 C83,287.7 63.4,276 58.6,256.7 L6.5,50.7 C1.6,31.4 13.3,11.8 32.6,7 C51.9,2.1 71.5,13.8 76.3,33.1 L128.4,239.1 C133.3,258.3 121.6,277.9 102.3,282.8 Z"/><path id="Shape" fill="#383A48" d="M93.5,288.9 C75.2,288.9 58.4,276.5 53.7,257.9 L1.6,51.9 C-1.1,41.3 0.5,30.2 6.1,20.8 C11.7,11.4 20.6,4.7 31.3,2 C41.9,-0.7 53,0.9 62.4,6.5 C71.8,12.1 78.5,21 81.2,31.7 L133.3,237.7 C138.8,259.6 125.5,282 103.6,287.5 L103.6,287.5 C100.2,288.5 96.8,288.9 93.5,288.9 Z M41.4,10.9 C38.8,10.9 36.3,11.2 33.7,11.9 C25.7,13.9 18.9,19 14.7,26.1 C10.5,33.2 9.2,41.6 11.3,49.6 L63.4,255.6 C67.6,272.2 84.5,282.3 101.1,278.1 L101.1,278.1 C117.7,273.9 127.8,257 123.6,240.4 L71.5,34.4 C69.5,26.4 64.4,19.6 57.3,15.4 C52.4,12.3 46.9,10.9 41.4,10.9 Z"/></g><g transform="translate(126.000000, 0.000000)"><path id="Path" fill="#F6E049" d="M111,313.6 C91.7,318.5 72.1,306.8 67.3,287.5 L7.2,50.1 C2.3,30.8 14,11.2 33.3,6.4 C52.6,1.5 72.2,13.2 77,32.5 L137.1,269.9 C141.9,289.1 130.3,308.7 111,313.6 Z"/><path id="Shape" fill="#383A48" d="M102.1,319.7 C83.8,319.7 67,307.3 62.3,288.7 L2.2,51.3 C-3.3,29.4 10,7 31.9,1.5 C42.5,-1.2 53.6,0.4 63,6 C72.4,11.6 79.1,20.5 81.8,31.2 L141.9,268.6 C147.4,290.5 134.1,312.9 112.2,318.4 L112.2,318.4 C108.8,319.3 105.5,319.7 102.1,319.7 Z M42.1,10.2 C39.5,10.2 37,10.5 34.4,11.2 C17.8,15.4 7.7,32.3 11.9,48.9 L72,286.3 C76.2,302.9 93.1,313 109.7,308.8 L109.7,308.8 C126.3,304.6 136.4,287.7 132.2,271.1 L72.1,33.7 C70.1,25.7 65,18.9 57.9,14.7 C53.1,11.7 47.7,10.2 42.1,10.2 Z"/></g><g transform="translate(74.000000, 58.000000)"><path id="Path" fill="#F6E049" d="M102.8,282 C83.5,286.9 63.9,275.2 59.1,255.9 L7,49.9 C2.1,30.6 13.8,11 33.1,6.2 C52.4,1.4 72,13 76.8,32.3 L128.9,238.3 C133.7,257.5 122.1,277.1 102.8,282 Z"/><path id="Shape" fill="#383A48" d="M93.9,288.1 C86.6,288.1 79.4,286.1 73,282.3 C63.6,276.7 56.9,267.8 54.2,257.1 L2.1,51.1 C-3.4,29.2 9.9,6.8 31.8,1.3 C42.4,-1.4 53.5,0.2 62.9,5.8 C72.3,11.4 79,20.3 81.7,31 L133.8,237 C136.5,247.6 134.9,258.7 129.3,268.1 C123.7,277.5 114.8,284.2 104.1,286.9 L104.1,286.9 C100.6,287.7 97.2,288.1 93.9,288.1 Z M41.9,10 C39.3,10 36.8,10.3 34.2,11 C17.6,15.2 7.5,32.1 11.7,48.7 L63.8,254.7 C65.8,262.7 70.9,269.5 78,273.7 C85.1,277.9 93.5,279.2 101.5,277.1 L101.5,277.1 C109.5,275.1 116.3,270 120.5,262.9 C124.7,255.8 126,247.4 123.9,239.4 L71.8,33.4 C69.8,25.4 64.7,18.6 57.6,14.4 C52.8,11.5 47.4,10 41.9,10 Z"/></g><g id="Path"><path fill="#F6E049" d="M270.4,124.3 C247.4,33.5 162.9,82.2 135.7,61.8 L70.8,13.6 C52.3,0.2 26.4,4.3 13,22.9 C-0.4,41.4 3.7,67.3 22.3,80.7 C22.3,80.7 171.1,201.4 241,228.3" transform="translate(0.000000, 270.000000)"/><path fill="#383A48" d="M241,233.3 C240.4,233.3 239.8,233.2 239.2,233 C209.8,221.7 163.8,193.3 102.5,148.5 C58.2,116.1 21.5,86.5 19.3,84.7 C-1.3,69.7 -6,40.7 9,20 C16.3,10 27,3.3 39.3,1.4 C51.5,-0.6 63.8,2.4 73.9,9.6 L138.8,57.8 C146.3,63.4 160.3,62.7 176.5,62 C211.3,60.3 258.9,58.1 275.4,123.1 C276.1,125.8 274.5,128.5 271.8,129.2 C269.1,129.9 266.4,128.3 265.7,125.6 C251.2,68.5 211.8,70.4 177,72 C158.9,72.9 143.2,73.6 132.9,65.9 L68,17.7 C60.2,12 50.5,9.7 40.9,11.3 C31.3,12.8 22.9,18 17.2,25.9 C5.4,42.2 9.1,65 25.3,76.8 C25.4,76.9 25.4,76.9 25.5,77 C27,78.2 174.4,197.5 242.9,223.8 C245.5,224.8 246.8,227.7 245.8,230.3 C244.9,232.1 243,233.3 241,233.3 Z" transform="translate(0.000000, 270.000000)"/></g><path id="Path" fill="#F6E049" d="M190,236.6 L311.5,205.9 C348.6,196.5 386.4,219.4 395.9,256.8 L414.8,331.5 C432.8,402.8 390.1,475.4 319.5,493.2 C248.9,511.1 176.8,467.5 158.8,396.2 L140,321.6 C130.5,284.1 153,246 190,236.6 Z"/><g id="Path"><path fill="#F6E049" d="M132,77.4 L408,5.8 L409.1,267.1 L184,324 C129.9,339.1 71.9,331.3 23.7,302.4 L5.2,291.3" transform="translate(201.000000, 190.000000)"/><path fill="#383A48" d="M129.3,336.5 C91.6,336.5 54,326.4 21.2,306.8 L2.7,295.7 C0.3,294.3 -0.4,291.2 1,288.8 C2.4,286.4 5.5,285.7 7.9,287.1 L26.4,298.2 C73.2,326.2 130.2,333.9 182.8,319.2 L182.9,319.2 L404.3,263.3 L403.2,12.3 L133.4,82.3 C130.7,83 128,81.4 127.3,78.7 C126.6,76 128.2,73.3 130.9,72.6 L406.9,1 C408.4,0.6 410,0.9 411.2,1.9 C412.4,2.8 413.1,4.3 413.1,5.8 L414.2,267.1 C414.2,269.4 412.7,271.4 410.4,272 L185.3,328.9 C167,333.9 148.1,336.5 129.3,336.5 Z" transform="translate(201.000000, 190.000000)"/></g></g><polygon id="Path" fill="url(#linearGradient-2)" points="980.7 450.1 839.3 485.3 780 250.8 981.8 197.6"/></g><path id="Path" fill="#383A48" fill-rule="nonzero" d="M561.4,39.1 C558.9,39.1 556.8,37.3 556.4,34.7 L552.7,6.5 C552.3,3.8 554.3,1.3 557,0.9 C559.7,0.5 562.2,2.5 562.6,5.2 L566.3,33.4 C566.7,36.1 564.7,38.6 562,39 C561.8,39.1 561.6,39.1 561.4,39.1 Z"/><path id="Path" fill="#383A48" fill-rule="nonzero" d="M653.4,43 C653,43 652.7,43 652.3,42.9 C649.6,42.3 647.9,39.6 648.5,36.9 L654.6,9.1 C655.2,6.4 657.9,4.7 660.6,5.3 C663.3,5.9 665,8.6 664.4,11.3 L658.3,39.1 C657.8,41.4 655.7,43 653.4,43 Z"/><path id="Path" fill="#383A48" fill-rule="nonzero" d="M473.4,66.5 C471.6,66.5 469.8,65.5 469,63.8 L456,38.5 C454.7,36 455.7,33 458.2,31.8 C460.7,30.5 463.7,31.5 464.9,34 L477.9,59.3 C479.2,61.8 478.2,64.8 475.7,66 C475,66.4 474.2,66.5 473.4,66.5 Z"/><path id="Path" fill="#383A48" fill-rule="nonzero" d="M399.9,122.1 C398.7,122.1 397.5,121.7 396.5,120.8 L375.7,101.4 C373.7,99.5 373.6,96.4 375.5,94.3 C377.4,92.3 380.5,92.2 382.6,94.1 L403.4,113.5 C405.4,115.4 405.5,118.5 403.6,120.6 C402.6,121.6 401.2,122.1 399.9,122.1 Z"/></g><g fill-rule="nonzero"><g transform="translate(1270.000000, 635.000000)"><path id="Path" fill="#F3F6E6" d="M120,149.5 L52.2,149.5 C26.4,149.5 5.4,128.6 5.4,102.7 L5.4,82 C5.4,65 14.4,50.2 27.9,42 L28.6,5.9 L72.8,35.2 L120,35.2 C145.8,35.2 166.8,56.1 166.8,82 L166.8,102.7 C166.8,128.5 145.8,149.5 120,149.5 Z"/><path id="Shape" fill="#383A48" d="M120,154.5 L52.2,154.5 C23.6,154.5 0.4,131.3 0.4,102.7 L0.4,82 C0.4,64.7 8.8,48.9 23,39.2 L23.6,5.8 C23.6,4 24.7,2.3 26.3,1.5 C27.9,0.7 29.9,0.7 31.4,1.8 L74.3,30.2 L120,30.2 C148.6,30.2 171.8,53.4 171.8,82 L171.8,102.7 C171.8,131.2 148.5,154.5 120,154.5 Z M33.4,15.1 L32.9,42 C32.9,43.7 32,45.3 30.5,46.2 C17.9,53.9 10.4,67.2 10.4,81.9 L10.4,102.6 C10.4,125.6 29.1,144.4 52.2,144.4 L120,144.4 C143,144.4 161.8,125.7 161.8,102.6 L161.8,81.9 C161.8,58.9 143.1,40.1 120,40.1 L72.8,40.1 C71.8,40.1 70.9,39.8 70,39.3 L33.4,15.1 Z"/></g><g fill="#383A48" transform="translate(1270.000000, 635.000000) translate(43.000000, 80.000000)"><circle id="Oval" cx="11.2" cy="11.5" r="7.1"/><path id="Shape" d="M11.2,22.1 C5.4,22.1 0.6,17.4 0.6,11.5 C0.6,5.7 5.3,0.9 11.2,0.9 C17,0.9 21.8,5.6 21.8,11.5 C21.8,17.3 17.1,22.1 11.2,22.1 Z M11.2,8 C9.2,8 7.6,9.6 7.6,11.6 C7.6,13.6 9.2,15.2 11.2,15.2 C13.2,15.2 14.8,13.6 14.8,11.6 C14.8,9.6 13.2,8 11.2,8 Z"/></g><g fill="#383A48" transform="translate(1270.000000, 635.000000) translate(74.000000, 80.000000)"><circle id="Oval" cx="11" cy="11.5" r="7.1"/><path id="Shape" d="M11,22.1 C5.2,22.1 0.4,17.4 0.4,11.5 C0.4,5.7 5.1,0.9 11,0.9 C16.8,0.9 21.6,5.6 21.6,11.5 C21.6,17.3 16.8,22.1 11,22.1 Z M11,8 C9,8 7.4,9.6 7.4,11.6 C7.4,13.6 9,15.2 11,15.2 C13,15.2 14.6,13.6 14.6,11.6 C14.6,9.6 13,8 11,8 Z"/></g><g fill="#383A48" transform="translate(1270.000000, 635.000000) translate(105.000000, 80.000000)"><circle id="Oval" cx="10.8" cy="11.5" r="7.1"/><path id="Shape" d="M10.8,22.1 C5,22.1 0.2,17.4 0.2,11.5 C0.2,5.7 4.9,0.9 10.8,0.9 C16.7,0.9 21.4,5.6 21.4,11.5 C21.3,17.3 16.6,22.1 10.8,22.1 Z M10.8,8 C8.8,8 7.2,9.6 7.2,11.6 C7.2,13.6 8.8,15.2 10.8,15.2 C12.8,15.2 14.4,13.6 14.4,11.6 C14.3,9.6 12.7,8 10.8,8 Z"/></g></g><g fill-rule="nonzero"><g transform="translate(201.000000, 54.000000)"><path id="Path" fill="#7FD6C2" d="M85.7,5.1 L202.3,5.1 C246.7,5.1 282.7,41.1 282.7,85.5 L282.7,133.2 C282.7,162.3 267.2,187.9 244,202 L242.7,254.5 L166.8,201.6 L85.6,201.6 C41.2,201.6 5.2,165.6 5.2,121.2 L5.2,85.6 C5.3,41.1 41.3,5.1 85.7,5.1 Z"/><path id="Shape" fill="#383A48" d="M242.8,259.5 C241.8,259.5 240.8,259.2 239.9,258.6 L165.3,206.6 L85.7,206.6 C38.6,206.6 0.3,168.3 0.3,121.2 L0.3,85.6 C0.3,38.5 38.6,0.2 85.7,0.2 L202.3,0.2 C249.4,0.2 287.7,38.5 287.7,85.6 L287.7,133.3 C287.7,162.5 273.3,189 248.9,204.9 L247.7,254.7 C247.7,256.5 246.6,258.2 245,259 C244.4,259.3 243.6,259.5 242.8,259.5 Z M85.7,10.1 C44.1,10.1 10.3,43.9 10.3,85.5 L10.3,121.1 C10.3,162.7 44.1,196.5 85.7,196.5 L166.9,196.5 C167.9,196.5 168.9,196.8 169.8,197.4 L238,245 L239,201.8 C239,200.1 239.9,198.5 241.4,197.6 C264.1,183.8 277.7,159.7 277.7,133.1 L277.7,85.4 C277.7,43.8 243.9,10 202.3,10 L85.7,10 L85.7,10.1 Z"/></g><g fill="#F3F6E6" transform="translate(201.000000, 54.000000) translate(181.000000, 87.000000)"><circle id="Oval" cx="17.8" cy="17.7" r="12.1"/><path id="Shape" d="M17.8,34.9 C8.3,34.9 0.7,27.2 0.7,17.8 C0.7,8.4 8.4,0.7 17.8,0.7 C27.2,0.7 34.9,8.4 34.9,17.8 C34.9,27.2 27.2,34.9 17.8,34.9 Z M17.8,10.6 C13.9,10.6 10.7,13.8 10.7,17.7 C10.7,21.6 13.9,24.8 17.8,24.8 C21.7,24.8 24.9,21.6 24.9,17.7 C24.9,13.8 21.7,10.6 17.8,10.6 Z"/></g><g fill="#F3F6E6" transform="translate(201.000000, 54.000000) translate(128.000000, 87.000000)"><circle id="Oval" cx="17.9" cy="17.7" r="12.1"/><path id="Shape" d="M17.9,34.9 C8.4,34.9 0.8,27.2 0.8,17.8 C0.8,8.4 8.5,0.7 17.9,0.7 C27.3,0.7 35,8.4 35,17.8 C35,27.2 27.3,34.9 17.9,34.9 Z M17.9,10.6 C14,10.6 10.8,13.8 10.8,17.7 C10.8,21.6 14,24.8 17.9,24.8 C21.8,24.8 25,21.6 25,17.7 C25,13.8 21.8,10.6 17.9,10.6 Z"/></g><g fill="#F3F6E6" transform="translate(201.000000, 54.000000) translate(75.000000, 87.000000)"><circle id="Oval" cx="18" cy="17.7" r="12.1"/><path id="Shape" d="M18,34.9 C8.5,34.9 0.9,27.2 0.9,17.8 C0.9,8.4 8.6,0.7 18,0.7 C27.4,0.7 35.1,8.4 35.1,17.8 C35.1,27.2 27.5,34.9 18,34.9 Z M18,10.6 C14.1,10.6 10.9,13.8 10.9,17.7 C10.9,21.6 14.1,24.8 18,24.8 C21.9,24.8 25.1,21.6 25.1,17.7 C25.1,13.8 22,10.6 18,10.6 Z"/></g></g><path id="Path" fill="#383A48" fill-rule="nonzero" d="M19.8,769.6 C18.3,769.6 16.8,768.9 15.8,767.6 C14.1,765.4 14.6,762.3 16.8,760.6 L242.3,590.6 C244.5,588.9 247.6,589.4 249.3,591.6 C251,593.8 250.5,596.9 248.3,598.6 L22.8,768.6 C21.9,769.3 20.9,769.6 19.8,769.6 Z"/><g><g transform="translate(1483.000000, 273.000000) translate(0.000000, 12.000000)"><line id="Path" x1=".1" x2="33" y1="5" y2="5"/><rect id="Rectangle" width="33" height="10" x=".1" y="0" fill="#383A48" fill-rule="nonzero"/></g><g transform="translate(1483.000000, 273.000000) translate(11.000000, 0.000000)"><line id="Path" x1="5.5" x2="5.5" y1="33.5" y2=".6"/><rect id="Rectangle" width="10" height="33" x=".5" y=".6" fill="#383A48" fill-rule="nonzero"/></g></g><g><g transform="translate(1031.000000, 710.000000) translate(0.000000, 11.000000)"><line id="Path" x1="0" x2="32.9" y1="5.5" y2="5.5"/><rect id="Rectangle" width="33" height="10" x="0" y=".5" fill="#383A48" fill-rule="nonzero"/></g><g transform="translate(1031.000000, 710.000000) translate(11.000000, 0.000000)"><line id="Path" x1="5.4" x2="5.4" y1="33" y2="0"/><rect id="Rectangle" width="10" height="33" x=".4" y="0" fill="#383A48" fill-rule="nonzero"/></g></g><g><g transform="translate(462.000000, 4.000000) translate(0.000000, 12.000000)"><line id="Path" x1="0" x2="32.9" y1="5" y2="5"/><rect id="Rectangle" width="33" height="10" x="0" y="0" fill="#383A48" fill-rule="nonzero"/></g><g transform="translate(462.000000, 4.000000) translate(11.000000, 0.000000)"><line id="Path" x1="5.4" x2="5.4" y1="33.5" y2=".5"/><rect id="Rectangle" width="10" height="33" x=".4" y=".5" fill="#383A48" fill-rule="nonzero"/></g></g><path id="Path" fill="#F6E049" fill-rule="nonzero" d="M1536.7,2 L1462.3,2 C1459.5,2 1457.3,4.2 1457.3,7 C1457.3,50.8 1492.9,86.4 1536.7,86.4 C1539.5,86.4 1541.7,84.2 1541.7,81.4 L1541.7,7 C1541.7,4.2 1539.5,2 1536.7,2 Z"/></g></g></g></svg>