<?xml version="1.0" encoding="UTF-8"?>
<svg width="1459px" height="735px" viewBox="0 0 1459 735" version="1.1" xmlns="http://www.w3.org/2000/svg" xmlns:xlink="http://www.w3.org/1999/xlink">
    <!-- Generator: Sketch 64 (93537) - https://sketch.com -->
    <title>genius-idea</title>
    <desc>Created with Sketch.</desc>
    <g id="Page-1" stroke="none" stroke-width="1" fill="none" fill-rule="evenodd">
        <g id="genius-idea" transform="translate(-241.000000, -183.000000)">
            <g id="Group" transform="translate(220.000000, 169.000000)">
                <g transform="translate(533.000000, 132.000000)" fill-rule="nonzero">
                    <g>
                        <g>
                            <path d="M408.9,207.5 C408.9,236.1 403,263.2 392.3,287.9 C379.6,317.2 360.1,342.9 335.9,363 C325.3,371.8 315.9,381.8 308,392.7 L106.4,392.7 C98.6,382 89.5,372.2 79.1,363.7 C33.7,326.4 4.8,269.7 5.2,206.3 C5.9,95.1 99.3,3.9 210.4,5.6 C241.1,6.1 270,13.4 295.9,26.1 C362.8,59 408.9,127.8 408.9,207.5 Z" id="Path" fill="#F6E049"></path>
                            <path d="M310.4,397.6 L103.8,397.6 L102.3,395.5 C94.7,385 85.8,375.6 75.9,367.4 C27.4,327.6 -0.2,268.8 0.0975795562,206.1 C0.4,151 22.7,99.1 62.7,59.9 C102,21.5 153.1,0.4 207,0.4 C208.1,0.4 209.2,0.4 210.3,0.4 C241,0.9 270.5,8 298,21.5 C332.2,38.3 361.1,64.2 381.6,96.4 C402.7,129.5 413.8,167.8 413.8,207.3 C413.8,235.9 408.1,263.6 396.7,289.7 C383.8,319.3 363.8,345.9 338.9,366.6 C328.7,375.1 319.6,384.8 311.8,395.4 L310.4,397.6 Z M108.9,387.6 L305.4,387.6 C313.3,377.1 322.4,367.5 332.6,359 C356.4,339.3 375.4,314 387.6,285.8 C398.4,261 403.8,234.7 403.8,207.4 C403.8,169.9 393.2,133.4 373.2,101.9 C353.7,71.2 326.2,46.6 293.6,30.6 C267.5,17.8 239.4,11 210.2,10.6 C157.7,9.8 107.9,29.9 69.7,67.2 C31.6,104.5 10.4,153.9 10.0974517,206.3 C9.8,266 36,321.9 82.2,359.8 C92.2,367.9 101.1,377.3 108.9,387.6 Z" id="Shape" fill="#383A48"></path>
                        </g>
                        <g transform="translate(102.000000, 389.000000)" id="Path">
                            <path d="M205.9,3.6 C187.9,28.4 177.1,57.9 175.6,89.1 L171.4,158.9 L38.6,158.9 L34.4,89.7 C32.9,58.4 22.4,28.4 4.3,3.6" fill="#F6E049"></path>
                            <path d="M171.4,164 L38.6,164 C36,164 33.8,161.9 33.6,159.3 L29.4,90.1 C27.9,59.7 17.9,30.9 0.3,6.6 L8.4,0.7 C27.1,26.6 37.9,57.3 39.4,89.5 L43.3,153.9 L166.6,153.9 L170.5,88.8 C172,57.1 182.8,26.6 201.8,0.6 L209.9,6.5 C192.1,30.9 182,59.6 180.5,89.3 L176.3,159.2 C176.2,161.9 174,164 171.4,164 Z" fill="#383A48"></path>
                        </g>
                        <g transform="translate(135.000000, 542.000000)" id="Path">
                            <path d="M138.4,6 C138,14.9 135.8,23.2 132.3,30.8 C128.8,38.4 123.8,45.2 117.9,50.9 C106,62.3 89.8,69.2 72.1,69.2 C45.5,69.2 22.4,53.5 11.8,30.8 C8.3,23.2 6.1,14.8 5.7,6" fill="#F3F6E6"></path>
                            <path d="M72,74.2 C44.3,74.2 18.9,58 7.2,32.9 C3.3,24.5 1.1,15.5 0.6,6.2 C0.5,3.4 2.6,1.1 5.3,1 C8,0.9 10.4,3 10.5,5.7 C10.9,13.7 12.8,21.5 16.1,28.7 C26.2,50.3 48,64.2 71.8,64.2 C87.7,64.2 102.7,58.2 114.2,47.2 C119.8,41.9 124.3,35.6 127.6,28.6 C131,21.4 132.9,13.6 133.2,5.6 C133.3,2.8 135.7,0.7 138.4,0.8 C141.2,0.9 143.3,3.3 143.2,6 C142.8,15.3 140.5,24.3 136.6,32.7 C132.8,40.8 127.6,48.1 121.1,54.3 C107.9,67.2 90.4,74.2 72,74.2 Z" fill="#383A48"></path>
                        </g>
                        <g transform="translate(101.000000, 387.000000)">
                            <path d="M206.9,5.6 C188.9,30.4 178.1,59.9 176.6,91.1 L172.4,160.9 C172,169.8 169.8,178.1 166.3,185.7 L45.7,185.7 C42.2,178.1 40,169.7 39.6,160.9 L35.4,91.7 C33.9,60.4 23.4,30.4 5.3,5.6 L206.9,5.6 L206.9,5.6 Z" id="Path" fill="#E0719E"></path>
                            <path d="M166.3,190.8 L45.7,190.8 C43.8,190.8 42,189.7 41.2,187.9 C37.3,179.5 35.1,170.5 34.6,161.2 L30.4,92.1 C28.9,61.7 18.9,32.9 1.3,8.6 C0.2,7.1 -5.49560397e-15,5.1 0.9,3.4 C1.8,1.7 3.5,0.7 5.4,0.7 L206.9,0.7 C208.8,0.7 210.5,1.8 211.4,3.4 C212.3,5.1 212.1,7.1 211,8.6 C193.2,33 183.1,61.7 181.6,91.4 L177.4,161.3 C177,170.5 174.8,179.5 170.8,187.9 C170,189.7 168.2,190.8 166.3,190.8 Z M49,180.8 L163,180.8 C165.6,174.4 167.1,167.7 167.4,160.7 L171.6,90.8 C173,62.3 181.9,34.8 197.4,10.6 L14.8,10.6 C30.2,34.7 39,62.5 40.4,91.5 L44.6,160.6 C45,167.7 46.4,174.4 49,180.8 Z" id="Shape" fill="#383A48"></path>
                        </g>
                    </g>
                    <g transform="translate(0.000000, 108.000000)">
                        <path d="M408.6,103.2 C408.6,103.2 318.4,200.7 207.1,200.7 C95.8,200.7 5.6,103.2 5.6,103.2 C5.6,103.2 95.8,5.7 207.1,5.7 C318.4,5.7 408.6,103.2 408.6,103.2 Z" id="Path" fill="#F3F6E6"></path>
                        <path d="M207.1,205.7 C148.4,205.7 95.7,178.7 61.9,156.1 C25.4,131.7 2.9,107.6 2,106.6 C0.2,104.7 0.2,101.7 2,99.8 C2.9,98.8 25.4,74.7 61.9,50.3 C95.7,27.7 148.4,0.7 207.1,0.7 C265.8,0.7 318.5,27.7 352.3,50.3 C388.8,74.7 411.3,98.8 412.2,99.8 C414,101.7 414,104.7 412.2,106.6 C411.3,107.6 388.8,131.7 352.3,156.1 C318.5,178.7 265.9,205.7 207.1,205.7 Z M12.7,103.2 C20.2,110.7 40,129.4 67.7,148 C100.3,169.8 151,195.8 207.2,195.8 C263.4,195.8 314,169.8 346.7,148 C374.4,129.5 394.2,110.7 401.7,103.2 C394.2,95.7 374.4,77 346.7,58.4 C314.1,36.6 263.4,10.6 207.2,10.6 C151,10.6 100.4,36.6 67.7,58.4 C39.9,76.9 20.2,95.7 12.7,103.2 Z" id="Shape" fill="#383A48"></path>
                    </g>
                    <circle id="Oval" fill="#383A48" transform="translate(207.128743, 211.217275) rotate(-1.682281) translate(-207.128743, -211.217275) " cx="207.128743" cy="211.217275" r="70.7021936"></circle>
                    <path d="M287.5,435.3 L126.5,435.3 C123.7,435.3 121.5,433.1 121.5,430.3 C121.5,427.5 123.7,425.3 126.5,425.3 L287.5,425.3 C290.3,425.3 292.5,427.5 292.5,430.3 C292.5,433.1 290.3,435.3 287.5,435.3 Z" id="Path" fill="#383A48"></path>
                    <path d="M277.6,481.1 L136.5,481.1 C133.7,481.1 131.5,478.9 131.5,476.1 C131.5,473.3 133.7,471.1 136.5,471.1 L277.6,471.1 C280.4,471.1 282.6,473.3 282.6,476.1 C282.6,478.9 280.4,481.1 277.6,481.1 Z" id="Path" fill="#383A48"></path>
                    <path d="M275,526.8 L139.1,526.8 C136.3,526.8 134.1,524.6 134.1,521.8 C134.1,519 136.3,516.8 139.1,516.8 L275,516.8 C277.8,516.8 280,519 280,521.8 C280,524.6 277.7,526.8 275,526.8 Z" id="Path" fill="#383A48"></path>
                </g>
                <g transform="translate(217.000000, 479.000000)" fill-rule="nonzero">
                    <g transform="translate(9.000000, 0.000000)">
                        <polygon id="Path" fill="#E0719E" points="43.9 164.5 5.2 163 5.2 5 56.1 7"></polygon>
                        <path d="M43.9,169.5 C43.8,169.5 43.8,169.5 43.7,169.5 L5,168 C2.3,167.9 0.2,165.7 0.2,163 L0.2,5 C0.2,3.6 0.8,2.3 1.7,1.4 C2.6,0.5 4,0 5.4,0 L56.2,2 C57.6,2.1 58.8,2.7 59.7,3.7 C60.6,4.7 61.1,6.1 61,7.4 L48.8,165 C48.7,167.5 46.5,169.5 43.9,169.5 Z M10.2,158.2 L39.2,159.3 L50.6,11.7 L10.1,10.1 L10.2,158.2 Z" id="Shape" fill="#383A48"></path>
                    </g>
                    <g transform="translate(0.000000, 189.000000)">
                        <circle id="Oval" fill="#E0719E" cx="31.4" cy="30.9" r="25.4"></circle>
                        <path d="M31.4,61.3 C31,61.3 30.6,61.3 30.2,61.3 C22.1,61 14.6,57.5 9,51.6 C3.5,45.6 0.6,37.9 0.9,29.7 C1.2,21.6 4.7,14.1 10.6,8.5 C16.6,3 24.3,0.1 32.5,0.4 C40.6,0.7 48.1,4.2 53.7,10.1 C59.2,16.1 62.1,23.8 61.8,32 C61.5,40.2 58,47.6 52.1,53.2 C46.4,58.4 39.1,61.3 31.4,61.3 Z M31.4,10.4 C26.2,10.4 21.3,12.3 17.5,15.8 C13.5,19.5 11.2,24.6 11,30 C10.8,35.5 12.7,40.7 16.4,44.7 C20.1,48.7 25.2,51 30.6,51.2 C41.9,51.6 51.4,42.8 51.8,31.6 C52,26.1 50.1,20.9 46.4,16.9 C42.7,12.9 37.6,10.6 32.2,10.4 C31.9,10.4 31.6,10.4 31.4,10.4 Z" id="Shape" fill="#383A48"></path>
                    </g>
                </g>
                <g transform="translate(348.000000, 467.000000)" fill-rule="nonzero">
                    <path d="M53,10 L59.6,23.5 C60.7,25.8 62.9,27.3 65.4,27.7 L80.2,29.9 C86.5,30.8 89,38.5 84.4,42.9 L73.7,53.4 C71.9,55.2 71.1,57.7 71.5,60.2 L74,75 C75.1,81.2 68.5,86 62.9,83.1 L49.6,76.1 C47.4,74.9 44.7,74.9 42.5,76.1 L29.2,83.1 C23.6,86 17,81.3 18.1,75 L20.6,60.2 C21,57.7 20.2,55.2 18.4,53.4 L7.7,42.9 C3.2,38.5 5.7,30.8 11.9,29.9 L26.7,27.7 C29.2,27.3 31.3,25.8 32.5,23.5 L39.1,10 C42.1,4.3 50.2,4.3 53,10 Z" id="Path" fill="#F6E049"></path>
                    <path d="M25.7,88.8 C23.1,88.8 20.5,88 18.3,86.4 C14.4,83.6 12.5,78.8 13.3,74 L15.8,59.2 C15.9,58.3 15.7,57.5 15,56.9 L4.3,46.4 C0.8,43 -0.4,38.1 1.1,33.4 C2.6,28.8 6.5,25.5 11.3,24.8 L26.1,22.6 C27,22.5 27.7,21.9 28.1,21.2 L34.7,7.7 C36.8,3.4 41.2,0.7 46,0.7 C50.8,0.7 55.2,3.4 57.3,7.7 L63.9,21.2 C64.3,22 65,22.5 65.9,22.6 L80.7,24.8 C85.5,25.5 89.4,28.8 90.9,33.4 C92.4,38 91.2,43 87.7,46.4 L77,56.9 C76.4,57.5 76.1,58.4 76.2,59.2 L79,74 C79.8,78.8 77.9,83.5 74,86.4 C70.1,89.2 65,89.6 60.7,87.4 L47.4,80.4 C46.6,80 45.7,80 44.9,80.4 L31.6,87.4 C29.8,88.3 27.7,88.8 25.7,88.8 Z M46.1,10.8 C45.6,10.8 44.4,10.9 43.7,12.3 L37.1,25.8 C35.3,29.5 31.7,32.1 27.6,32.7 L12.8,34.9 C11.3,35.1 10.8,36.2 10.7,36.7 C10.5,37.2 10.3,38.4 11.4,39.4 L22.1,49.9 C25.1,52.8 26.4,57 25.7,61.1 L23.2,75.9 C23,77.4 23.9,78.2 24.3,78.5 C24.7,78.8 25.8,79.4 27.1,78.7 L40.4,71.7 C44.1,69.8 48.5,69.8 52.2,71.7 L65.5,78.7 C66.8,79.4 67.9,78.8 68.3,78.5 C68.7,78.2 69.6,77.4 69.4,75.9 L66.9,61.1 C66.2,57 67.6,52.8 70.5,49.9 L81.2,39.4 C82.3,38.4 82,37.2 81.9,36.7 C81.7,36.2 81.2,35.1 79.8,34.9 L65,32.7 C60.9,32.1 57.3,29.5 55.5,25.8 L48.9,12.3 C47.8,10.9 46.6,10.8 46.1,10.8 Z" id="Shape" fill="#383A48"></path>
                </g>
                <g transform="translate(1282.000000, 295.000000)" fill-rule="nonzero">
                    <path d="M109.8,14.7 L124.5,44.4 C127,49.4 131.7,52.8 137.2,53.6 L170,58.4 C183.9,60.4 189.4,77.4 179.4,87.2 L155.7,110.3 C151.7,114.2 149.9,119.8 150.8,125.2 L156.4,157.9 C158.8,171.7 144.3,182.2 131.9,175.7 L102.6,160.3 C97.7,157.7 91.8,157.7 86.9,160.3 L57.6,175.7 C45.2,182.2 30.7,171.7 33.1,157.9 L38.7,125.2 C39.6,119.7 37.8,114.1 33.8,110.3 L10.1,87.2 C0.1,77.4 5.6,60.4 19.5,58.4 L52.3,53.6 C57.8,52.8 62.6,49.3 65,44.4 L79.7,14.7 C85.7,2.1 103.6,2.1 109.8,14.7 Z" id="Path" fill="#E0719E"></path>
                    <path d="M139.8,182.7 C136.3,182.7 132.8,181.9 129.6,180.2 L100.3,164.8 C96.8,163 92.7,163 89.2,164.8 L59.9,180.2 C52.5,184.1 43.6,183.5 36.9,178.5 C30.1,173.6 26.8,165.4 28.2,157.1 L33.8,124.4 C34.5,120.5 33.2,116.6 30.4,113.9 L6.7,90.8 C0.7,84.9 -1.4,76.3 1.2,68.4 C3.8,60.4 10.6,54.7 18.9,53.5 L51.7,48.7 C55.6,48.1 58.9,45.7 60.6,42.2 L75.3,12.5 C79,5 86.5,0.3 94.9,0.3 C103.3,0.3 110.8,5 114.5,12.5 L129.2,42.2 C130.9,45.7 134.3,48.1 138.1,48.7 L170.9,53.5 C179.2,54.7 186,60.4 188.6,68.4 C191.2,76.4 189.1,85 183.1,90.8 L159.4,113.9 C156.6,116.6 155.3,120.6 156,124.4 L161.6,157.1 C163,165.4 159.7,173.6 152.9,178.5 C148.8,181.3 144.3,182.7 139.8,182.7 Z M94.7,153.4 C98.2,153.4 101.7,154.2 104.9,155.9 L134.2,171.3 C138.3,173.5 143,173.1 146.7,170.4 C150.4,167.7 152.2,163.3 151.4,158.8 L145.8,126.1 C144.6,119 146.9,111.8 152.1,106.7 L175.8,83.6 C179.1,80.4 180.2,75.8 178.8,71.4 C177.4,67 173.8,64 169.2,63.3 L136.4,58.5 C129.3,57.5 123.1,53 119.9,46.5 L105.2,16.8 C103.2,12.7 99.2,10.2 94.5,10.2 C89.9,10.2 85.9,12.7 83.8,16.8 L69.1,46.5 C65.9,53 59.8,57.4 52.6,58.5 L19.8,63.3 C15.2,64 11.6,67 10.2,71.4 C8.8,75.8 9.9,80.4 13.2,83.6 L36.9,106.7 C42.1,111.7 44.4,119 43.2,126.1 L37.6,158.8 C36.8,163.4 38.6,167.7 42.3,170.4 C46,173.1 50.7,173.5 54.8,171.3 L84.1,155.9 C87.7,154.3 91.2,153.4 94.7,153.4 Z" id="Shape" fill="#383A48"></path>
                </g>
                <g transform="translate(60.000000, 19.000000)">
                    <g fill-rule="nonzero">
                        <path d="M116.1,5.8 L188,5.8 C249,5.8 298.4,55.2 298.4,116.2 L298.4,116.2 C298.4,134.6 293.9,152 285.9,167.3 L346.1,226.6 L188,226.6 L116.1,226.6 C55.1,226.6 5.7,177.2 5.7,116.2 L5.7,116.2 C5.7,55.2 55.1,5.8 116.1,5.8 Z" id="Path" fill="#F6E049"></path>
                        <path d="M346.1,231.6 L116.1,231.6 C52.4,231.6 0.7,179.8 0.7,116.2 C0.7,52.5 52.5,0.8 116.1,0.8 L188,0.8 C251.7,0.8 303.4,52.6 303.4,116.2 C303.4,133.5 299.5,150.8 292,166.3 L349.6,223.1 C351,224.5 351.5,226.7 350.7,228.6 C349.9,230.5 348.2,231.6 346.1,231.6 Z M116.1,10.8 C58,10.8 10.7,58.1 10.7,116.2 C10.7,174.3 58,221.6 116.1,221.6 L333.9,221.6 L282.4,170.8 C280.8,169.3 280.5,166.9 281.5,164.9 C289.3,150 293.4,133.1 293.4,116.1 C293.4,58 246.1,10.7 188,10.7 L116.1,10.8 L116.1,10.8 Z" id="Shape" fill="#383A48"></path>
                    </g>
                    <g transform="translate(88.000000, 89.000000)">
                        <line x1="130.9" y1="5.2" x2="0.1" y2="5.2" id="Path"></line>
                        <rect id="Rectangle" fill="#383A48" fill-rule="nonzero" x="0.1" y="0.2" width="130.9" height="10"></rect>
                    </g>
                    <g transform="translate(88.000000, 133.000000)">
                        <line x1="130.9" y1="5.2" x2="0.1" y2="5.2" id="Path"></line>
                        <rect id="Rectangle" fill="#383A48" fill-rule="nonzero" x="0.1" y="0.2" width="130.9" height="10"></rect>
                    </g>
                </g>
                <g transform="translate(467.000000, 62.000000)" fill="#383A48" fill-rule="nonzero" id="Path">
                    <path d="M97.7,100.2 C96.2,100.2 94.7,99.5 93.7,98.3 L75.1,74.2 C73.4,72 73.8,68.9 76,67.2 C78.2,65.5 81.3,65.9 83,68.1 L101.6,92.2 C103.3,94.4 102.9,97.5 100.7,99.2 C99.8,99.9 98.7,100.2 97.7,100.2 Z"></path>
                    <path d="M185,54.2 C182.9,54.2 180.9,52.9 180.2,50.7 L170.8,21.7 C170,19.1 171.4,16.3 174,15.4 C176.6,14.6 179.4,16 180.3,18.6 L189.7,47.6 C190.5,50.2 189.1,53 186.5,53.9 C186,54.1 185.5,54.2 185,54.2 Z"></path>
                    <path d="M282.7,40.5 C282.6,40.5 282.6,40.5 282.5,40.5 C279.7,40.4 277.6,38.1 277.7,35.3 L278.7,4.8 C278.8,2 281.1,-0.1 283.9,1.42108547e-13 C286.7,0.1 288.8,2.4 288.7,5.2 L287.7,35.7 C287.6,38.3 285.4,40.5 282.7,40.5 Z"></path>
                    <path d="M31,173.1 C30.1,173.1 29.1,172.8 28.3,172.3 L2.6,155.9 C0.3,154.4 -0.4,151.3 1.1,149 C2.6,146.7 5.7,146 8,147.5 L33.7,163.9 C36,165.4 36.7,168.5 35.2,170.8 C34.3,172.2 32.7,173.1 31,173.1 Z"></path>
                </g>
                <path d="M137.7,448.2 C135.7,448.2 133.8,447 133.1,445 C132.1,442.4 133.3,439.5 135.9,438.5 C169.8,425 177.4,401 179,390.1 C172.6,390.2 166.4,388.5 161.1,384.9 C153.7,379.9 149.4,372.4 149.9,365.3 C150.3,359.5 153.8,354.6 159.9,351.8 C165.9,348.9 172.2,349.4 177.6,353.2 C184,357.8 188.3,366.9 189.4,377.5 L294,325.5 C296.5,324.3 299.5,325.3 300.7,327.8 C301.9,330.3 300.9,333.3 298.5,334.5 L193.7,386.6 C192.3,387.3 190.9,387.9 189.4,388.4 C189.3,389 189.3,389.6 189.2,390.2 C187.7,402.2 179.9,432 139.6,448 C139,448.1 138.3,448.2 137.7,448.2 Z M167.6,359.9 C166.5,359.9 165.3,360.2 164.1,360.8 C161.4,362.1 159.9,363.9 159.8,366 C159.6,369.4 162.3,373.7 166.6,376.6 C168.7,378 173.3,380.4 179.4,380.1 C178.8,371 175.4,364 171.6,361.3 C170.3,360.3 169,359.9 167.6,359.9 Z" id="Shape" fill="#383A48" fill-rule="nonzero"></path>
                <path d="M1361.6,219.3 C1358.8,219.3 1356.6,217.1 1356.6,214.3 L1356.6,199.9 C1356.6,196.1 1355.1,192.4 1352.4,189.7 C1349.7,187 1346.1,185.5 1342.2,185.5 L1342.2,185.5 L1327.9,185.5 L1327.9,185.5 C1314.5,185.5 1303.5,174.6 1303.5,161.1 L1303.5,146.8 C1303.5,143 1302,139.3 1299.3,136.6 C1296.6,133.9 1293,132.4 1289.1,132.4 L1289.1,132.4 L1274.8,132.4 L1274.8,132.4 C1268.3,132.4 1262.2,129.9 1257.6,125.3 C1253,120.7 1250.5,114.6 1250.4,108.1 L1250.4,93.8 C1250.4,85.9 1243.9,79.4 1236,79.4 L1236,79.4 L1220.3,79.4 L1220.3,79.4 C1217.5,79.4 1215.3,77.2 1215.3,74.4 C1215.3,71.6 1217.5,69.4 1220.3,69.4 L1236,69.4 L1236,69.4 C1249.4,69.4 1260.4,80.3 1260.4,93.8 L1260.4,108.1 C1260.4,111.9 1261.9,115.6 1264.6,118.3 C1267.3,121 1270.9,122.5 1274.8,122.5 L1274.8,122.5 L1289.1,122.5 L1289.1,122.5 C1295.6,122.5 1301.7,125 1306.3,129.6 C1310.9,134.2 1313.4,140.3 1313.5,146.8 L1313.5,161.1 C1313.5,169 1320,175.5 1327.9,175.5 L1327.9,175.5 L1342.2,175.5 L1342.2,175.5 C1348.7,175.5 1354.8,178 1359.4,182.6 C1364,187.2 1366.5,193.3 1366.6,199.8 L1366.6,214.2 C1366.6,217 1364.4,219.3 1361.6,219.3 L1361.6,219.3 Z" id="Path" fill="#383A48" fill-rule="nonzero"></path>
                <g transform="translate(1242.000000, 231.000000)">
                    <g transform="translate(1.000000, 0.000000)">
                        <line x1="3.6" y1="27" x2="26.9" y2="3.7" id="Path"></line>
                        <rect id="Rectangle" fill="#383A48" fill-rule="nonzero" transform="translate(15.466710, 15.233920) rotate(-44.995949) translate(-15.466710, -15.233920) " x="-1.03429853" y="10.2336144" width="33.0020171" height="10.0006112"></rect>
                    </g>
                    <g>
                        <line x1="27.9" y1="27" x2="4.6" y2="3.7" id="Path"></line>
                        <rect id="Rectangle" fill="#383A48" fill-rule="nonzero" transform="translate(16.166360, 15.416820) rotate(-45.000000) translate(-16.166360, -15.416820) " x="11.166408" y="-1.08302176" width="9.9999041" height="32.9996835"></rect>
                    </g>
                </g>
                <g transform="translate(395.000000, 45.000000)">
                    <g>
                        <line x1="4.4" y1="27.3" x2="27.7" y2="4" id="Path"></line>
                        <rect id="Rectangle" fill="#383A48" fill-rule="nonzero" transform="translate(16.053060, 15.607620) rotate(-44.995949) translate(-16.053060, -15.607620) " x="-0.447948532" y="10.6073144" width="33.0020171" height="10.0006112"></rect>
                    </g>
                    <g>
                        <line x1="27.7" y1="27.3" x2="4.4" y2="4" id="Path"></line>
                        <rect id="Rectangle" fill="#383A48" fill-rule="nonzero" transform="translate(15.980160, 15.606460) rotate(-45.000000) translate(-15.980160, -15.606460) " x="10.980208" y="-0.893381764" width="9.9999041" height="32.9996835"></rect>
                    </g>
                </g>
                <g transform="translate(927.000000, 647.000000)">
                    <g>
                        <line x1="3.9" y1="27.6" x2="27.2" y2="4.3" id="Path"></line>
                        <rect id="Rectangle" fill="#383A48" fill-rule="nonzero" transform="translate(15.811340, 15.987530) rotate(-44.995949) translate(-15.811340, -15.987530) " x="-0.689668532" y="10.9872244" width="33.0020171" height="10.0006112"></rect>
                    </g>
                    <g>
                        <line x1="27.2" y1="27.6" x2="3.9" y2="4.3" id="Path"></line>
                        <rect id="Rectangle" fill="#383A48" fill-rule="nonzero" transform="translate(15.601560, 16.008140) rotate(-45.000000) translate(-15.601560, -16.008140) " x="10.601608" y="-0.491701764" width="9.9999041" height="32.9996835"></rect>
                    </g>
                </g>
                <g transform="translate(21.000000, 592.000000)" fill="#383A48" fill-rule="nonzero" id="Oval">
                    <circle cx="129.3" cy="30" r="5"></circle>
                    <circle cx="129.3" cy="54.7" r="5"></circle>
                    <circle cx="129.3" cy="79.3" r="5"></circle>
                    <circle cx="129.3" cy="104" r="5"></circle>
                    <circle cx="104.6" cy="5.3" r="5"></circle>
                    <circle cx="104.6" cy="30" r="5"></circle>
                    <circle cx="104.6" cy="54.7" r="5"></circle>
                    <circle cx="104.6" cy="79.3" r="5"></circle>
                    <circle cx="104.6" cy="104" r="5"></circle>
                    <circle cx="104.6" cy="128.7" r="5"></circle>
                    <circle cx="79.9" cy="5.3" r="5"></circle>
                    <circle cx="79.9" cy="30" r="5"></circle>
                    <circle cx="79.9" cy="54.7" r="5"></circle>
                    <circle cx="79.9" cy="79.3" r="5"></circle>
                    <circle cx="79.9" cy="104" r="5"></circle>
                    <circle cx="79.9" cy="128.7" r="5"></circle>
                    <circle cx="55.3" cy="5.3" r="5"></circle>
                    <circle cx="55.3" cy="30" r="5"></circle>
                    <circle cx="55.3" cy="54.7" r="5"></circle>
                    <circle cx="55.3" cy="79.3" r="5"></circle>
                    <circle cx="55.3" cy="104" r="5"></circle>
                    <circle cx="55.3" cy="128.7" r="5"></circle>
                    <circle cx="30.6" cy="5.3" r="5"></circle>
                    <circle cx="30.6" cy="30" r="5"></circle>
                    <circle cx="30.6" cy="54.7" r="5"></circle>
                    <circle cx="30.6" cy="79.3" r="5"></circle>
                    <circle cx="30.6" cy="104" r="5"></circle>
                    <circle cx="30.6" cy="128.7" r="5"></circle>
                    <circle cx="5.9" cy="30" r="5"></circle>
                    <circle cx="5.9" cy="54.7" r="5"></circle>
                    <circle cx="5.9" cy="79.3" r="5"></circle>
                    <circle cx="5.9" cy="104" r="5"></circle>
                </g>
                <path d="M1447.2,649.4 C1410.5,649.4 1380.6,679.3 1380.6,716 L1380.6,748.2 L1479.4,748.2 L1479.4,649.4 L1447.2,649.4 L1447.2,649.4 Z" id="Path" fill="#F6E049" fill-rule="nonzero"></path>
                <g transform="translate(823.000000, 13.000000)" fill-rule="nonzero">
                    <g transform="translate(130.000000, 1.000000)">
                        <g>
                            <polygon id="Path" fill="#EEBED3" points="275.2 503 150 540 83.9 540 5.3 53.7 53.5 5 131.9 5"></polygon>
                            <path d="M150.7,545 L79.6,545 L0,52 L51.5,0 L135.7,0 L281.5,506.4 L150.7,545 Z M88.1,535 L149.3,535 L269.1,499.6 L128.1,10 L55.6,10 L10.7,55.4 L88.1,535 Z" id="Shape" fill="#383A48"></path>
                        </g>
                        <g transform="translate(55.000000, 11.000000)" fill="#383A48" id="Oval">
                            <circle cx="202.9" cy="449" r="5"></circle>
                            <circle cx="202.9" cy="473.7" r="5"></circle>
                            <circle cx="178.3" cy="350.3" r="5"></circle>
                            <circle cx="178.3" cy="375" r="5"></circle>
                            <circle cx="178.3" cy="399.7" r="5"></circle>
                            <circle cx="178.3" cy="424.3" r="5"></circle>
                            <circle cx="178.3" cy="449" r="5"></circle>
                            <circle cx="178.3" cy="473.7" r="5"></circle>
                            <circle cx="178.3" cy="498.3" r="5"></circle>
                            <circle cx="153.6" cy="276.3" r="5"></circle>
                            <circle cx="153.6" cy="301" r="5"></circle>
                            <circle cx="153.6" cy="325.7" r="5"></circle>
                            <circle cx="153.6" cy="350.3" r="5"></circle>
                            <circle cx="153.6" cy="375" r="5"></circle>
                            <circle cx="153.6" cy="399.7" r="5"></circle>
                            <circle cx="153.6" cy="424.3" r="5"></circle>
                            <circle cx="153.6" cy="449" r="5"></circle>
                            <circle cx="153.6" cy="473.7" r="5"></circle>
                            <circle cx="153.6" cy="498.3" r="5"></circle>
                            <circle cx="128.9" cy="202.3" r="5"></circle>
                            <circle cx="128.9" cy="227" r="5"></circle>
                            <circle cx="128.9" cy="251.7" r="5"></circle>
                            <circle cx="128.9" cy="276.3" r="5"></circle>
                            <circle cx="128.9" cy="301" r="5"></circle>
                            <circle cx="128.9" cy="325.7" r="5"></circle>
                            <circle cx="128.9" cy="350.3" r="5"></circle>
                            <circle cx="128.9" cy="375" r="5"></circle>
                            <circle cx="128.9" cy="399.7" r="5"></circle>
                            <circle cx="128.9" cy="424.3" r="5"></circle>
                            <circle cx="128.9" cy="449" r="5"></circle>
                            <circle cx="128.9" cy="473.7" r="5"></circle>
                            <circle cx="128.9" cy="498.3" r="5"></circle>
                            <circle cx="104.3" cy="103.7" r="5"></circle>
                            <circle cx="104.3" cy="128.3" r="5"></circle>
                            <circle cx="104.3" cy="153" r="5"></circle>
                            <circle cx="104.3" cy="177.7" r="5"></circle>
                            <circle cx="104.3" cy="202.3" r="5"></circle>
                            <circle cx="104.3" cy="227" r="5"></circle>
                            <circle cx="104.3" cy="251.7" r="5"></circle>
                            <circle cx="104.3" cy="276.3" r="5"></circle>
                            <circle cx="104.3" cy="301" r="5"></circle>
                            <circle cx="104.3" cy="325.7" r="5"></circle>
                            <circle cx="104.3" cy="350.3" r="5"></circle>
                            <circle cx="104.3" cy="375" r="5"></circle>
                            <circle cx="104.3" cy="399.7" r="5"></circle>
                            <circle cx="104.3" cy="424.3" r="5"></circle>
                            <circle cx="104.3" cy="449" r="5"></circle>
                            <circle cx="104.3" cy="473.7" r="5"></circle>
                            <circle cx="104.3" cy="498.3" r="5"></circle>
                            <circle cx="79.6" cy="5" r="5"></circle>
                            <circle cx="79.6" cy="29.7" r="5"></circle>
                            <circle cx="79.6" cy="54.3" r="5"></circle>
                            <circle cx="79.6" cy="79" r="5"></circle>
                            <circle cx="79.6" cy="103.7" r="5"></circle>
                            <circle cx="79.6" cy="128.3" r="5"></circle>
                            <circle cx="79.6" cy="153" r="5"></circle>
                            <circle cx="79.6" cy="177.7" r="5"></circle>
                            <circle cx="79.6" cy="202.3" r="5"></circle>
                            <circle cx="79.6" cy="227" r="5"></circle>
                            <circle cx="79.6" cy="251.7" r="5"></circle>
                            <circle cx="79.6" cy="276.3" r="5"></circle>
                            <circle cx="79.6" cy="301" r="5"></circle>
                            <circle cx="79.6" cy="325.7" r="5"></circle>
                            <circle cx="79.6" cy="350.3" r="5"></circle>
                            <circle cx="79.6" cy="375" r="5"></circle>
                            <circle cx="79.6" cy="399.7" r="5"></circle>
                            <circle cx="54.9" cy="5" r="5"></circle>
                            <circle cx="54.9" cy="29.7" r="5"></circle>
                            <circle cx="54.9" cy="54.3" r="5"></circle>
                            <circle cx="54.9" cy="79" r="5"></circle>
                            <circle cx="54.9" cy="103.7" r="5"></circle>
                            <circle cx="54.9" cy="128.3" r="5"></circle>
                            <circle cx="54.9" cy="153" r="5"></circle>
                            <circle cx="54.9" cy="177.7" r="5"></circle>
                            <circle cx="54.9" cy="202.3" r="5"></circle>
                            <circle cx="54.9" cy="227" r="5"></circle>
                            <circle cx="54.9" cy="251.7" r="5"></circle>
                            <circle cx="54.9" cy="276.3" r="5"></circle>
                            <circle cx="54.9" cy="301" r="5"></circle>
                            <circle cx="30.3" cy="5" r="5"></circle>
                            <circle cx="30.3" cy="29.7" r="5"></circle>
                            <circle cx="30.3" cy="54.3" r="5"></circle>
                            <circle cx="30.3" cy="79" r="5"></circle>
                            <circle cx="30.3" cy="103.7" r="5"></circle>
                            <circle cx="30.3" cy="128.3" r="5"></circle>
                            <circle cx="30.3" cy="153" r="5"></circle>
                            <circle cx="5.6" cy="5" r="5"></circle>
                        </g>
                        <g transform="translate(179.000000, 567.000000)">
                            <path d="M138.3,59.6 C127.1,25.3 94.4,4.1 60.1,5.8 L60.1,5.7 L5.1,5.7 L5.1,162.2 L63.9,162.2 L63.9,162.2 C72,162.2 80.2,161 88.3,158.3 C129.3,144.9 151.7,100.7 138.3,59.6 Z" id="Path" fill="#EEBED3"></path>
                            <path d="M63.9,167.2 L0.1,167.2 L0.1,0.7 L64.9,0.7 C100.2,1.1 131.9,24.1 143,58 L143,58 C157.3,101.6 133.4,148.7 89.8,163 C83,165.2 76,166.6 68.9,167 L68.9,167.2 L63.9,167.2 Z M10.1,157.2 L63.9,157.2 C71.7,157.2 79.3,156 86.7,153.6 C125.1,141 146.1,99.6 133.5,61.2 L133.5,61.2 C123.2,29.9 93.1,9.2 60.3,10.8 L55.2,11.1 L55.2,10.7 L10.1,10.7 L10.1,157.2 L10.1,157.2 Z" id="Shape" fill="#383A48"></path>
                        </g>
                        <g transform="translate(178.000000, 574.000000)" fill="#383A48" id="Oval">
                            <circle cx="129.3" cy="54.8" r="5"></circle>
                            <circle cx="129.3" cy="79.4" r="5"></circle>
                            <circle cx="129.3" cy="104.1" r="5"></circle>
                            <circle cx="104.6" cy="30.1" r="5"></circle>
                            <circle cx="104.6" cy="54.8" r="5"></circle>
                            <circle cx="104.6" cy="79.4" r="5"></circle>
                            <circle cx="104.6" cy="104.1" r="5"></circle>
                            <circle cx="104.6" cy="128.8" r="5"></circle>
                            <circle cx="79.9" cy="5.4" r="5"></circle>
                            <circle cx="79.9" cy="30.1" r="5"></circle>
                            <circle cx="79.9" cy="54.8" r="5"></circle>
                            <circle cx="79.9" cy="79.4" r="5"></circle>
                            <circle cx="79.9" cy="104.1" r="5"></circle>
                            <circle cx="79.9" cy="128.8" r="5"></circle>
                            <circle cx="79.9" cy="153.4" r="5"></circle>
                            <circle cx="55.3" cy="5.4" r="5"></circle>
                            <circle cx="55.3" cy="30.1" r="5"></circle>
                            <circle cx="55.3" cy="54.8" r="5"></circle>
                            <circle cx="55.3" cy="79.4" r="5"></circle>
                            <circle cx="55.3" cy="104.1" r="5"></circle>
                            <circle cx="55.3" cy="128.8" r="5"></circle>
                            <circle cx="55.3" cy="153.4" r="5"></circle>
                            <circle cx="30.6" cy="5.4" r="5"></circle>
                            <circle cx="30.6" cy="30.1" r="5"></circle>
                            <circle cx="30.6" cy="54.8" r="5"></circle>
                            <circle cx="30.6" cy="79.4" r="5"></circle>
                            <circle cx="30.6" cy="104.1" r="5"></circle>
                            <circle cx="30.6" cy="128.8" r="5"></circle>
                            <circle cx="30.6" cy="153.4" r="5"></circle>
                            <circle cx="5.9" cy="5.4" r="5"></circle>
                            <circle cx="5.9" cy="30.1" r="5"></circle>
                            <circle cx="5.9" cy="54.8" r="5"></circle>
                            <circle cx="5.9" cy="79.4" r="5"></circle>
                            <circle cx="5.9" cy="104.1" r="5"></circle>
                            <circle cx="5.9" cy="128.8" r="5"></circle>
                            <circle cx="5.9" cy="153.4" r="5"></circle>
                        </g>
                    </g>
                    <g>
                        <g transform="translate(29.000000, 0.000000)">
                            <polygon id="Path" fill="#AAC6FC" points="297.9 504 184.9 541 5.8 54.7 154.5 6"></polygon>
                            <path d="M184.9,546 C182.9,546 181,544.7 180.2,542.7 L1.1,56.4 C0.6,55.1 0.7,53.7 1.3,52.5 C1.9,51.3 3,50.3 4.2,49.9 L152.9,1.2 C154.2,0.8 155.6,0.9 156.8,1.5 C158,2.1 158.9,3.2 159.3,4.5 L302.7,502.5 C303.4,505.1 302,507.8 299.5,508.6 L186.5,545.6 C185.9,545.9 185.4,546 184.9,546 Z M12.3,57.9 L187.9,534.8 L291.7,500.8 L151.1,12.4 L12.3,57.9 Z" id="Shape" fill="#383A48"></path>
                        </g>
                        <path d="M91.7,215.6 C71.2,183.4 42.3,157.5 8.1,140.7 C6.3,139.8 4.1,140.1 2.5,141.5 C1,142.9 0.5,145 1.2,146.9 L97.6,408.6 C98.3,410.5 100.1,411.8 102.1,411.9 L102.2,411.9 C104.2,411.9 106,410.7 106.8,408.9 C118.1,382.9 123.9,355.2 123.9,326.5 C123.9,287 112.7,248.7 91.7,215.6 Z" id="Path" fill="#383A48"></path>
                        <g transform="translate(230.000000, 568.000000)">
                            <circle id="Oval" fill="#AAC6FC" cx="84.1" cy="84" r="78.2"></circle>
                            <path d="M84.1,167.2 C49.1,167.2 16.4,144.9 4.9,109.9 C-9.4,66.3 14.5,19.2 58.1,4.9 C101.7,-9.4 148.8,14.5 163.1,58.1 L163.1,58.1 C170,79.2 168.3,101.8 158.3,121.6 C148.3,141.4 131.1,156.2 110,163.1 C101.4,165.9 92.7,167.2 84.1,167.2 Z M84,10.7 C76.5,10.7 68.8,11.9 61.2,14.3 C22.8,26.9 1.8,68.3 14.4,106.7 C24.5,137.5 53.2,157.1 84.1,157.1 C91.6,157.1 99.3,155.9 106.9,153.5 C125.5,147.4 140.6,134.4 149.4,117 C158.2,99.5 159.8,79.7 153.7,61.1 L153.7,61.1 C143.6,30.3 114.8,10.7 84,10.7 Z" id="Shape" fill="#383A48"></path>
                        </g>
                    </g>
                    <g transform="translate(208.000000, 499.000000)" fill="#383A48">
                        <polygon id="Path" points="118.9 5 197.2 5 72 42 5.9 42"></polygon>
                        <path d="M72,47 L5.9,47 C3.4,47 1.4,45.2 1,42.8 C0.6,40.4 2,38 4.4,37.3 L117.4,0.3 C117.9,0.1 118.4,0.1 119,0.1 L197.4,0.1 C199.9,0.1 202,1.9 202.3,4.4 C202.7,6.9 201.2,9.2 198.8,9.9 L73.6,46.9 C73,46.9 72.5,47 72,47 Z M37.2,37 L71.3,37 L162.7,10 L119.7,10 L37.2,37 Z" id="Shape"></path>
                    </g>
                </g>
            </g>
            <line x1="1381.4" y1="912.2" x2="859.4" y2="912.2" id="Path" stroke="#383A48" stroke-width="10"></line>
        </g>
    </g>
</svg>