<?xml version="1.0" encoding="UTF-8"?>
<svg width="1372px" height="792px" viewBox="0 0 1372 792" version="1.1" xmlns="http://www.w3.org/2000/svg" xmlns:xlink="http://www.w3.org/1999/xlink">
    <!-- Generator: Sketch 59.1 (86144) - https://sketch.com -->
    <title>good-job</title>
    <desc>Created with Sketch.</desc>
    <g id="Page-1" stroke="none" stroke-width="1" fill="none" fill-rule="evenodd">
        <g id="good-job" transform="translate(-313.000000, -144.000000)" fill-rule="nonzero">
            <g id="Group" transform="translate(313.000000, 144.000000)">
                <path d="M1288.3,0.6 L1176.8,0.6 L1065.3,0.6 L953.8,0.6 L842.3,0.6 L730.8,0.6 L619,0.6 L507.5,0.6 L395.9,0.6 L284.4,0.6 L172.8,0.6 C170,0.6 167.8,2.8 167.8,5.6 L167.8,117.1 L167.8,228.6 L167.8,340.1 L167.8,451.6 L167.8,563.1 L167.8,674.6 L167.8,786.1 C167.8,788.9 170,791.1 172.8,791.1 L284.3,791.1 L395.8,791.1 L507.3,791.1 L619,791.1 L730.5,791.1 L842,791.1 L953.5,791.1 L1065,791.1 L1176.5,791.1 L1288,791.1 C1290.8,791.1 1293,788.9 1293,786.1 L1293,674.9 L1293,563.3 L1293,451.8 L1293,340.2 L1293,228.7 L1293,117.1 L1293,5.6 C1293.3,2.8 1291.1,0.6 1288.3,0.6 Z M1283.3,223.7 L1181.8,223.7 L1181.8,122.1 L1283.3,122.1 L1283.3,223.7 Z M1283.3,335.2 L1181.8,335.2 L1181.8,233.7 L1283.3,233.7 L1283.3,335.2 Z M1283.3,446.8 L1181.8,446.8 L1181.8,345.2 L1283.3,345.2 L1283.3,446.8 Z M1283.3,558.3 L1181.8,558.3 L1181.8,456.8 L1283.3,456.8 L1283.3,558.3 Z M177.8,456.8 L279.3,456.8 L279.3,558.3 L177.8,558.3 L177.8,456.8 Z M177.8,345.2 L279.3,345.2 L279.3,446.7 L177.8,446.7 L177.8,345.2 Z M177.8,233.7 L279.3,233.7 L279.3,335.2 L177.8,335.2 L177.8,233.7 Z M289.4,345.2 L390.9,345.2 L390.9,446.7 L289.4,446.7 L289.4,345.2 Z M400.9,345.2 L502.4,345.2 L502.4,446.7 L400.9,446.7 L400.9,345.2 Z M512.5,345.2 L614,345.2 L614,446.7 L512.5,446.7 L512.5,345.2 Z M624,345.2 L725.5,345.2 L725.5,446.7 L624,446.7 L624,345.2 Z M735.6,345.2 L837.1,345.2 L837.1,446.7 L735.6,446.7 L735.6,345.2 Z M847.1,345.2 L948.6,345.2 L948.6,446.7 L847.1,446.7 L847.1,345.2 Z M958.7,345.2 L1060.2,345.2 L1060.2,446.7 L958.7,446.7 L958.7,345.2 Z M1070.2,345.2 L1171.7,345.2 L1171.7,446.7 L1070.2,446.7 L1070.2,345.2 Z M1171.8,335.2 L1070.3,335.2 L1070.3,233.7 L1171.8,233.7 L1171.8,335.2 Z M1060.2,335.2 L958.7,335.2 L958.7,233.7 L1060.2,233.7 L1060.2,335.2 Z M948.7,335.2 L847.2,335.2 L847.2,233.7 L948.7,233.7 L948.7,335.2 Z M837.1,335.2 L735.6,335.2 L735.6,233.7 L837.1,233.7 L837.1,335.2 Z M725.6,335.2 L624,335.2 L624,233.7 L725.5,233.7 L725.6,335.2 L725.6,335.2 Z M614,335.2 L512.5,335.2 L512.5,233.7 L614,233.7 L614,335.2 Z M502.5,335.2 L400.9,335.2 L400.9,233.7 L502.4,233.7 L502.5,335.2 L502.5,335.2 Z M390.9,335.2 L289.4,335.2 L289.4,233.7 L390.9,233.7 L390.9,335.2 Z M289.4,456.8 L390.9,456.8 L390.9,558.3 L289.4,558.3 L289.4,456.8 Z M400.9,456.8 L502.4,456.8 L502.4,558.3 L400.9,558.3 L400.9,456.8 Z M512.5,456.8 L614,456.8 L614,558.3 L512.5,558.3 L512.5,456.8 Z M624,456.8 L725.5,456.8 L725.5,558.3 L624,558.3 L624,456.8 Z M735.6,456.8 L837.1,456.8 L837.1,558.3 L735.6,558.3 L735.6,456.8 Z M847.1,456.8 L948.6,456.8 L948.6,558.3 L847.1,558.3 L847.1,456.8 Z M958.7,456.8 L1060.2,456.8 L1060.2,558.3 L958.7,558.3 L958.7,456.8 Z M1070.2,456.8 L1171.7,456.8 L1171.7,558.3 L1070.2,558.3 L1070.2,456.8 Z M1171.8,223.7 L1070.3,223.7 L1070.3,122.1 L1171.8,122.1 L1171.8,223.7 Z M1060.2,223.7 L958.7,223.7 L958.7,122.1 L1060.2,122.1 L1060.2,223.7 Z M948.7,223.7 L847.2,223.7 L847.2,122.1 L948.7,122.1 L948.7,223.7 Z M837.1,223.7 L735.6,223.7 L735.6,122.1 L837.1,122.1 L837.1,223.7 Z M725.6,223.7 L624,223.7 L624,122.1 L725.5,122.1 L725.6,223.7 L725.6,223.7 Z M614,223.7 L512.5,223.7 L512.5,122.1 L614,122.1 L614,223.7 Z M502.5,223.7 L400.9,223.7 L400.9,122.1 L502.4,122.1 L502.5,223.7 L502.5,223.7 Z M390.9,223.7 L289.4,223.7 L289.4,122.1 L390.9,122.1 L390.9,223.7 Z M279.4,223.7 L177.8,223.7 L177.8,122.1 L279.3,122.1 L279.3,223.7 L279.4,223.7 L279.4,223.7 Z M177.8,568.3 L279.3,568.3 L279.3,669.8 L177.8,669.8 L177.8,568.3 Z M289.4,568.3 L390.9,568.3 L390.9,669.8 L289.4,669.8 L289.4,568.3 Z M400.9,568.3 L502.4,568.3 L502.4,669.8 L400.9,669.8 L400.9,568.3 Z M512.5,568.3 L614,568.3 L614,669.8 L512.5,669.8 L512.5,568.3 Z M624,568.3 L725.5,568.3 L725.5,669.8 L624,669.8 L624,568.3 Z M735.6,568.3 L837.1,568.3 L837.1,669.8 L735.6,669.8 L735.6,568.3 Z M847.1,568.3 L948.6,568.3 L948.6,669.8 L847.1,669.8 L847.1,568.3 Z M958.7,568.3 L1060.2,568.3 L1060.2,669.8 L958.7,669.8 L958.7,568.3 Z M1070.2,568.3 L1171.7,568.3 L1171.7,669.8 L1070.2,669.8 L1070.2,568.3 Z M1181.8,568.3 L1283.3,568.3 L1283.3,669.8 L1181.8,669.8 L1181.8,568.3 Z M1283.3,112.1 L1181.8,112.1 L1181.8,10.6 L1283.3,10.6 L1283.3,112.1 Z M1171.8,112.1 L1070.3,112.1 L1070.3,10.6 L1171.8,10.6 L1171.8,112.1 Z M1060.2,112.1 L958.7,112.1 L958.7,10.6 L1060.2,10.6 L1060.2,112.1 Z M948.7,112.1 L847.2,112.1 L847.2,10.6 L948.7,10.6 L948.7,112.1 Z M837.1,112.1 L735.6,112.1 L735.6,10.6 L837.1,10.6 L837.1,112.1 Z M725.6,112.1 L624,112.1 L624,10.6 L725.5,10.6 L725.6,112.1 L725.6,112.1 Z M614,112.1 L512.5,112.1 L512.5,10.6 L614,10.6 L614,112.1 Z M502.5,112.1 L400.9,112.1 L400.9,10.6 L502.4,10.6 L502.5,112.1 L502.5,112.1 Z M390.9,112.1 L289.4,112.1 L289.4,10.6 L390.9,10.6 L390.9,112.1 Z M177.8,10.6 L279.3,10.6 L279.3,112.1 L177.8,112.1 L177.8,10.6 Z M177.8,679.9 L279.3,679.9 L279.3,781.4 L177.8,781.4 L177.8,679.9 Z M289.4,679.9 L390.9,679.9 L390.9,781.4 L289.4,781.4 L289.4,679.9 Z M400.9,679.9 L502.4,679.9 L502.4,781.4 L400.9,781.4 L400.9,679.9 Z M512.5,679.9 L614,679.9 L614,781.4 L512.5,781.4 L512.5,679.9 Z M624,679.9 L725.5,679.9 L725.5,781.4 L624,781.4 L624,679.9 Z M735.6,679.9 L837.1,679.9 L837.1,781.4 L735.6,781.4 L735.6,679.9 Z M847.1,679.9 L948.6,679.9 L948.6,781.4 L847.1,781.4 L847.1,679.9 Z M958.7,679.9 L1060.2,679.9 L1060.2,781.4 L958.7,781.4 L958.7,679.9 Z M1070.2,679.9 L1171.7,679.9 L1171.7,781.4 L1070.2,781.4 L1070.2,679.9 Z M1283.3,781.4 L1181.8,781.4 L1181.8,679.9 L1283.3,679.9 L1283.3,781.4 Z" id="Shape" fill="#60CCB4"></path>
                <path d="M1288.3,223.7 C1285.5,223.7 1283.3,225.9 1283.3,228.7 C1283.3,276.8 1275.3,315.7 1258.8,347.7 C1234.9,394.1 1192.8,425.2 1133.8,440.1 C1045.9,462.2 1026.2,518.1 1007,572.2 C987.1,628.5 968.3,681.7 871.5,693.5 C809.2,701.1 772.6,723 740.3,742.3 C705.2,763.3 674.9,781.4 619,781.4 C616.2,781.4 614,783.6 614,786.4 C614,789.2 616.2,791.4 619,791.4 L1288.3,791.4 C1291.1,791.4 1293.3,789.2 1293.3,786.4 L1293.3,228.7 C1293.3,225.9 1291.1,223.7 1288.3,223.7 Z" id="Path" fill="#F3F6E6"></path>
                <path d="M507.1,731.1 C506.6,731.1 506,731 505.5,730.8 C502,729.6 498.6,728.3 495.1,726.9 C492.5,725.9 491.3,723 492.3,720.4 C493.3,717.8 496.2,716.6 498.8,717.6 C502.1,718.9 505.4,720.2 508.7,721.3 C511.3,722.2 512.7,725.1 511.8,727.7 C511.1,729.8 509.1,731.1 507.1,731.1 Z M469.8,714.5 C469,714.5 468.2,714.3 467.4,713.9 C463.8,711.9 460.3,709.9 456.8,707.8 C454.4,706.4 453.7,703.3 455.2,700.9 C456.6,698.5 459.7,697.8 462.1,699.3 C465.4,701.3 468.9,703.3 472.3,705.2 C474.7,706.5 475.6,709.6 474.3,712 C473.3,713.6 471.6,714.5 469.8,714.5 Z M434.9,691.3 C433.8,691.3 432.7,690.9 431.8,690.2 C428.6,687.7 425.5,685 422.4,682.4 C420.3,680.6 420.1,677.4 421.9,675.3 C423.7,673.2 426.9,673 429,674.8 C431.9,677.4 435,679.9 438,682.3 C440.2,684 440.5,687.2 438.8,689.3 C437.8,690.6 436.3,691.3 434.9,691.3 Z M404.3,662.6 C402.9,662.6 401.6,662 400.6,660.9 C398.6,658.7 396.7,656.4 394.8,654.2 C394.3,653.6 393.8,653 393.3,652.3 L392.7,651.6 C390.9,649.5 391.2,646.3 393.3,644.6 C395.4,642.8 398.6,643.1 400.3,645.2 L400.9,645.9 C400.9,646 401,646 401,646.1 C401.4,646.7 401.9,647.2 402.3,647.8 C404.1,650 406,652.1 407.9,654.3 C409.7,656.4 409.6,659.5 407.5,661.4 C406.7,662.2 405.5,662.6 404.3,662.6 Z M378.7,629.3 C377.1,629.3 375.5,628.5 374.5,627 C372.3,623.6 370.1,620.1 368.1,616.6 C366.7,614.2 367.5,611.2 369.9,609.8 C372.3,608.4 375.3,609.2 376.7,611.6 C378.7,615 380.7,618.4 382.8,621.6 C384.3,623.9 383.6,627 381.3,628.5 C380.6,629.1 379.6,629.3 378.7,629.3 Z M359,592.3 C357.1,592.3 355.2,591.2 354.4,589.3 C352.8,585.6 351.3,581.7 349.9,577.9 C348.9,575.3 350.3,572.4 352.9,571.5 C355.5,570.5 358.4,571.9 359.3,574.5 C360.7,578.2 362.1,581.8 363.6,585.4 C364.7,587.9 363.5,590.9 361,592 C360.3,592.2 359.7,592.3 359,592.3 Z M345.9,552.4 C343.6,552.4 341.6,550.8 341,548.5 C340.1,544.5 339.2,540.5 338.5,536.5 C338,533.8 339.8,531.2 342.5,530.7 C345.2,530.2 347.8,532 348.3,534.7 C349,538.5 349.8,542.4 350.7,546.2 C351.3,548.9 349.7,551.6 347,552.2 C346.7,552.4 346.3,552.4 345.9,552.4 Z M340,510.9 C337.4,510.9 335.2,508.8 335,506.2 C334.8,502.4 334.7,498.5 334.6,494.7 L334.6,494 C334.6,491.2 336.8,489 339.6,489 L339.6,489 C342.4,489 344.6,491.2 344.6,494 L344.6,494.7 C344.6,498.4 344.8,502.1 345,505.8 C345.2,508.6 343,510.9 340.3,511.1 C340.1,510.9 340.1,510.9 340,510.9 Z M341.3,469 C341.1,469 340.9,469 340.7,469 C338,468.7 336,466.2 336.3,463.4 C336.8,459.4 337.4,455.3 338.1,451.3 C338.6,448.6 341.1,446.7 343.9,447.2 C346.6,447.7 348.5,450.2 348,453 C347.3,456.8 346.8,460.8 346.3,464.6 C346,467.1 343.8,469 341.3,469 Z M349.9,427.9 C349.4,427.9 348.9,427.8 348.5,427.7 C345.9,426.9 344.4,424.1 345.2,421.5 C346.4,417.6 347.7,413.7 349,409.9 C349.9,407.3 352.8,405.9 355.4,406.9 C358,407.8 359.4,410.7 358.4,413.3 C357.1,417 355.9,420.7 354.7,424.5 C354,426.5 352,427.9 349.9,427.9 Z M365.4,388.9 C364.6,388.9 363.9,388.7 363.2,388.4 C360.7,387.2 359.7,384.2 361,381.7 C362.8,378.1 364.8,374.4 366.8,370.9 C368.2,368.5 371.2,367.6 373.6,369 C376,370.4 376.9,373.4 375.5,375.8 C373.6,379.2 371.7,382.7 370,386.2 C369,387.9 367.2,388.9 365.4,388.9 Z" id="Shape" fill="#383A48"></path>
                <g transform="translate(399.000000, 90.000000)">
                    <path d="M591.7,262.2 C591.6,248.1 585.9,234.8 575.7,224.9 C566.2,215.7 553.9,210.4 540.8,209.8 C540.5,209.8 540.1,209.8 539.8,209.8 C539.3,209.8 538.9,209.8 538.4,209.8 C538.2,209.8 538.1,209.8 537.9,209.8 L537.9,209.8 L537.9,209.8 L340.1,212.5 C337.9,212.5 335.9,212.7 333.9,213 L333.4,213 C341.3,185.8 365,103.5 371.8,74.6 C375.7,57.9 373.4,42.1 365.2,29 C356.7,15.6 342.7,6.2 325.5,2.5 C323.4,2.1 315.4,2 288,2.3 C281.8,2.4 275.5,2.4 274.6,2.4 C266.1,2 260.8,3.3 257.2,6.7 C252.2,11.4 252.2,18.5 252.1,28.3 C252,36.8 252,47.3 248.9,60.6 C233.9,126.5 192.1,172.5 147.9,221.1 C129.1,241.8 109.7,263.1 92.7,286.1 C66.1,318.4 50.3,359.6 50.5958032,404.2 C51,449 67.7,490.1 95.1,522 C95.2,522.2 95.4,522.4 95.5,522.6 C106.4,535.6 119,547.1 132.9,556.7 C164.4,578.5 201.3,590 239.6,590 C240.2,590 240.7,590 241.3,590 L366.8,588.9 C368.5,588.9 370.2,588.8 371.8,588.7 C372,588.7 372.3,588.7 372.5,588.7 L464.3,587.6 C493.7,587.3 517.4,565.7 517.2,539.4 C517.1,523.5 508.2,509.5 494.8,501 C508.4,500.6 521.1,495.6 530.8,486.9 C540.9,477.7 546.4,465.6 546.3,452.7 C546.2,439.8 540.5,427.7 530.2,418.8 C528.2,417.1 526.1,415.5 523.9,414.1 C537.6,413.7 550.5,408.1 560.2,398.3 C570.2,388.2 575.6,374.9 575.5,360.7 C575.4,346.6 569.7,333.3 559.5,323.4 C556.3,320.3 552.8,317.6 549,315.4 C573.5,310.4 591.8,288.6 591.6,262.7 L591.6,262.6 C591.7,262.4 591.7,262.3 591.7,262.2 Z" id="Path" fill="#383A48"></path>
                    <g>
                        <g>
                            <g transform="translate(0.000000, 215.000000)">
                                <path d="M396.9,271.6 L395.4,99.7 C394.9,47.3 350.8,5 297,5.5 L189.7,6.4 C87.3,7.3 4.7,89.3 5.6,189.1 C6.5,288.9 90.5,369.4 192.9,368.5 L300.2,367.6 C354,367.1 397.4,324 396.9,271.6 Z" id="Path" fill="#F6E049"></path>
                                <path d="M191.2,373.5 C86.8,373.5 1.5,291.1 0.6,189.1 C-0.3,86.5 84.5,2.3 189.7,1.3 L297,0.4 C297.3,0.4 297.6,0.4 297.9,0.4 C354,0.4 399.9,44.7 400.4,99.6 L401.902832,271.5 C402.1,298.2 391.7,323.5 372.4,342.6 C353.2,361.7 327.6,372.3 300.2,372.5 L192.9,373.4 C192.4,373.5 191.8,373.5 191.2,373.5 Z M297.9,10.4 C297.6,10.4 297.3,10.4 297.1,10.4 L189.8,11.3 C90.2,12.2 9.8,91.9 10.6,189 C11.4,285.6 92.3,363.5 191.2,363.5 C191.8,363.5 192.3,363.5 192.9,363.5 L300.2,362.6 C324.9,362.4 348.1,352.8 365.4,335.6 C382.7,318.4 392.1,295.7 391.903127,271.7 L390.4,99.8 C389.9,50.3 348.5,10.4 297.9,10.4 Z" id="Shape" fill="#383A48"></path>
                            </g>
                            <g transform="translate(44.000000, 212.000000)">
                                <path d="M272.9,371.8 L147.4,372.9 C108.3,373.2 71.9,361.2 41.9,340.5 C28.3,331.1 16,319.9 5.4,307.3 L5.4,307.2 L9.5,298.3 L59.5,190 L76.5,153.1 L139.6,16.3 L142.8,9.4 L144,6.7 L269.5,5.6 C273.6,5.6 277.7,5.8 281.7,6.3 C286.2,6.8 290.6,7.7 294.9,8.8 C332.7,18.8 361.5,51.4 365.9,91.3 C366.3,94.5 366.4,97.7 366.5,101 L368,274.8 C368,276.4 368,278 367.9,279.6 C367.9,280.8 367.8,282 367.7,283.2 C364,332.3 323,371.3 272.9,371.8 Z" id="Path" fill="#F6E049"></path>
                                <path d="M145.7,377.9 C107.4,377.9 70.5,366.4 39,344.6 C25,335 12.4,323.5 1.6,310.5 C0.4,309.1 0.1,307.2 0.8,305.5 C0.8,305.4 0.9,305.2 0.9,305.1 L139.6,4.6 C140.4,2.8 142.2,1.7 144.1,1.7 L269.6,0.6 C273.9,0.6 278.2,0.8 282.4,1.3 C287.1,1.8 291.8,2.7 296.3,4 C336.5,14.6 366.5,49.5 370.9,90.8 C371.3,94.1 371.5,97.5 371.5,101 L373,274.8 C373,276.6 373,278.3 372.9,279.9 C372.9,281 372.8,282.3 372.7,283.7 C370.7,308.8 359.5,332.1 341,349.4 C322.4,366.8 298.2,376.5 272.8,376.8 L147.3,377.9 C146.8,377.9 146.2,377.9 145.7,377.9 Z M11.3,306.4 C21.1,317.7 32.4,327.8 44.7,336.3 C75,357.2 110.4,368.1 147.3,367.8 L272.8,366.7 L272.8,366.7 C295.7,366.5 317.5,357.7 334.3,342 C350.9,326.4 361.1,305.3 362.9,282.7 C363,281.5 363.1,280.4 363.1,279.3 C363.2,277.8 363.2,276.3 363.2,274.7 L361.7,100.9 C361.7,97.8 361.5,94.7 361.2,91.8 C357.2,54.6 330.1,23.2 293.9,13.6 C289.8,12.5 285.6,11.7 281.4,11.2 C277.6,10.7 273.7,10.5 269.8,10.6 L147.4,11.7 L144.3,18.3 L11.3,306.4 Z" id="Shape" fill="#383A48"></path>
                            </g>
                            <g transform="translate(255.000000, 209.000000)">
                                <path d="M6,56.9 C5.8,30.2 8.5,8.6 35.1,8.4 L233,5.7 C259.7,5.5 281.5,26.9 281.701391,53.6 C281.9,80.3 260.5,102.1 233.8,102.3 L54.7,104.8 C28,105 6.2,83.6 6,56.9 Z" id="Path" fill="#F6E049"></path>
                                <path d="M54.3,109.8 C40.2,109.8 27,104.4 16.9,94.5 C6.7,84.5 1.1,71.2 1,57 C0.8,37.1 0.5,3.7 35.1,3.4 L232.9,0.7 C233.1,0.7 233.2,0.7 233.4,0.7 C262.6,0.7 286.4,24.3 286.702817,53.5 C287,82.9 263.3,107 233.9,107.3 L54.8,109.8 C54.6,109.8 54.4,109.8 54.3,109.8 Z M11,56.9 C11.1,68.5 15.7,79.3 23.9,87.4 C32.1,95.4 42.8,99.8 54.2,99.8 C54.3,99.8 54.5,99.8 54.6,99.8 L233.7,97.3 C257.6,97.1 276.8,77.5 276.601548,53.6 C276.4,29.9 257,10.7 233.3,10.7 C233.2,10.7 233,10.7 232.9,10.7 L35.1,13.4 C14.4,13.6 10.7,28.2 11,56.9 Z" id="Shape" fill="#383A48"></path>
                            </g>
                            <path d="M394.8,485.2 L393.3,317.2 C392.8,266 349.5,224.7 296.6,225.097119 L191.1,226 C90.4,226.9 9.2,307 10.1,404.5 C11,502 93.6,580.7 194.2,579.8 L299.7,578.9 C352.6,578.5 395.3,536.4 394.8,485.2 Z" id="Path" fill="#F6E049"></path>
                            <g transform="translate(29.000000, 0.000000)" id="Path">
                                <path d="M188.6,434.4 C302,380.6 227.3,261.3 247,220.3 C247,220.3 279.7,108.3 287.9,73.3 C295.9,39.3 275.4,13.7 245.4,7.2 C215.4,0.7 184.6,18.6 174.8,61.5 C151.1,165.4 60.6,222.5 5.4,306.5" fill="#F6E049"></path>
                                <path d="M188.6,439.4 C186.7,439.4 184.9,438.3 184.1,436.5 C182.9,434 184,431 186.5,429.8 C260.7,394.6 250.8,330.5 242.8,278.9 C239,254.2 235.7,232.8 242.4,218.5 C244.5,211.3 275.3,105.6 283.1,72.1 C286.4,58 284.6,44.9 277.8,34.2 C270.8,23.1 258.9,15.2 244.5,12.1 C219.3,6.6 189.5,20.1 179.8,62.7 C164.2,131.2 119.6,180.2 76.4,227.7 C53.1,253.4 28.9,279.9 9.6,309.3 C8.1,311.6 5,312.3 2.7,310.7 C0.4,309.2 -0.2,306.1 1.3,303.8 C21,273.8 45.4,246.9 69,221 C113.2,172.3 155,126.4 170,60.5 C174.9,39 185.2,22.2 199.7,11.8 C213.3,2.1 229.9,-1.2 246.5,2.4 C263.6,6.1 277.7,15.5 286.2,28.9 C294.4,42 296.7,57.7 292.8,74.5 C284.7,109.2 252.2,220.7 251.8,221.8 C251.7,222.1 251.6,222.3 251.5,222.6 C245.9,234.2 249,254.3 252.6,277.6 C260.6,329.5 271.6,400.7 190.7,439.1 C190,439.3 189.3,439.4 188.6,439.4 Z" fill="#383A48"></path>
                            </g>
                        </g>
                        <g transform="translate(342.000000, 209.000000)">
                            <path d="M5.5,54.9 C5.5,29 26.3,7.7 52.5,7.1 L146,5.8 C172.7,5.6 194.5,26.8 194.701391,53.3 C194.9,79.8 173.5,101.4 146.8,101.6 L54.9,102.8 C27.8,103.4 5.5,81.8 5.5,54.9 L5.5,54.9 Z" id="Path" fill="#F6E049"></path>
                            <path d="M53.6,107.7 C39.6,107.7 26.4,102.3 16.4,92.5 C6.1,82.5 0.5,69.1 0.5,54.8 L0.5,54.8 L0.5,54.8 C0.5,40.9 5.9,27.8 15.6,17.9 C25.3,8 38.4,2.3 52.3,1.9 L145.8,0.6 C160,0.5 173.5,5.9 183.6,15.8 C193.8,25.7 199.4,39 199.601364,53.1 C199.7,67.2 194.3,80.6 184.3,90.7 C174.3,100.8 161,106.4 146.8,106.5 L55,107.7 C54.5,107.7 54.1,107.7 53.6,107.7 Z M146.4,10.7 C146.3,10.7 146.1,10.7 146,10.7 L52.5,12 C29,12.6 10.5,31.4 10.5,54.8 L10.5,54.8 C10.5,66.4 15.1,77.2 23.4,85.3 C31.8,93.5 43,97.9 54.8,97.6 L146.7,96.4 C158.3,96.3 169.1,91.7 177.2,83.5 C185.3,75.3 189.7,64.5 189.601668,53.1 C189.5,41.6 184.9,30.9 176.7,22.9 C168.6,15.1 157.8,10.7 146.4,10.7 Z" id="Shape" fill="#383A48"></path>
                        </g>
                        <g transform="translate(326.000000, 307.000000)">
                            <path d="M5.4,55.2 C5.4,29.3 26.2,8 52.4,7.4 L145.9,6.1 C172.6,5.9 194.4,27.1 194.601391,53.6 C194.8,80.1 173.4,101.7 146.7,101.9 L54.8,103.1 C27.7,103.7 5.4,82.1 5.4,55.2 L5.4,55.2 Z" id="Path" fill="#F6E049"></path>
                            <path d="M53.5,108.1 C39.5,108.1 26.3,102.7 16.3,92.9 C6,82.9 0.4,69.5 0.4,55.2 C0.4,41.3 5.8,28.2 15.5,18.3 C25.2,8.4 38.3,2.7 52.2,2.3 L145.7,1 C159.9,0.9 173.4,6.3 183.5,16.2 C193.7,26.1 199.3,39.3 199.501364,53.5 C199.6,67.6 194.2,81 184.2,91.1 C174.2,101.2 160.9,106.8 146.7,106.9 L54.9,108.1 C54.4,108.1 54,108.1 53.5,108.1 Z M10.4,55.2 C10.4,66.8 15,77.6 23.3,85.7 C31.7,93.9 42.9,98.3 54.7,98 L146.6,96.8 C158.2,96.7 169,92.1 177.1,83.9 C185.2,75.7 189.6,64.9 189.501668,53.5 C189.4,42 184.8,31.3 176.6,23.3 C168.4,15.3 157.4,10.9 145.9,11 L52.4,12.3 C28.9,13 10.4,31.8 10.4,55.2 L10.4,55.2 Z" id="Shape" fill="#383A48"></path>
                        </g>
                        <g transform="translate(297.000000, 405.000000)">
                            <path d="M5.29966498,49.2 C5.29966498,26 26.2,7 52.3,6.3 L145.8,5 C172.5,4.8 194.3,23.8 194.501391,47.5 C194.7,71.2 173.3,90.6 146.6,90.8 L54.7,91.9 C27.5,92.6 5.2,73.3 5.29966498,49.2 L5.29966498,49.2 Z" id="Path" fill="#F6E049"></path>
                            <path d="M53.4,97 C38.6,97 24.4,91.4 14.3,81.6 C5.3,72.8 0.3,61.3 0.3,49.2 C0.3,36.5 5.8,24.6 15.6,15.6 C25.3,6.7 38.3,1.7 52.1,1.3 L145.6,1.13686838e-13 C145.8,1.13686838e-13 146,1.13686838e-13 146.1,1.13686838e-13 C160,1.13686838e-13 173.2,4.8 183.2,13.5 C193.5,22.5 199.2,34.5 199.30134,47.4 C199.4,60.3 193.9,72.5 183.8,81.6 C173.8,90.6 160.6,95.6 146.5,95.8 L54.7,96.9 C54.3,97 53.8,97 53.4,97 Z M146.2,10.1 C146.1,10.1 145.9,10.1 145.8,10.1 L52.3,11.4 C28.8,12 10.3,28.6 10.2,49.3 L10.2,49.3 C10.2,58.6 14.1,67.6 21.2,74.5 C29.7,82.8 41.8,87.4 54.5,87.1 L146.4,86 C158.1,85.9 169,81.8 177.1,74.4 C185.1,67.2 189.4,57.7 189.301706,47.7 C189.2,37.7 184.7,28.3 176.6,21.2 C168.6,14 157.8,10.1 146.2,10.1 Z" id="Shape" fill="#383A48"></path>
                        </g>
                        <g transform="translate(268.000000, 491.000000)">
                            <path d="M5.2,50 C5.2,26.9 26.1,7.9 52.2,7.3 L145.7,6 C172.4,5.8 194.2,24.7 194.401391,48.3 C194.6,71.9 173.2,91.2 146.5,91.5 L54.6,92.6 C27.5,93.2 5.2,73.9 5.2,50 L5.2,50 Z" id="Path" fill="#F6E049"></path>
                            <path d="M53.3,97.6 C38.4,97.6 24.2,92 14.1,82.1 C5.1,73.3 0.2,61.9 0.2,49.9 L5.2,49.9 L0.2,49.9 C0.2,37.3 5.7,25.4 15.5,16.4 C25.2,7.6 38.2,2.5 52,2.2 L145.5,0.9 C145.7,0.9 145.9,0.9 146,0.9 C175.2,0.9 199,22 199.201257,48.2 C199.4,74.5 175.7,96.1 146.3,96.4 L54.5,97.5 C54.2,97.6 53.7,97.6 53.3,97.6 Z M146.2,11 C146.1,11 145.9,11 145.8,11 L52.3,12.3 C29.2,12.9 10.3,29.8 10.2,50 C10.2,59.2 14.1,68.1 21.1,75 C29.6,83.3 41.7,87.9 54.5,87.6 L146.4,86.5 C170.3,86.3 189.6,69.2 189.40154,48.4 C189.2,27.7 169.8,11 146.2,11 Z" id="Shape" fill="#383A48"></path>
                        </g>
                    </g>
                </g>
                <g transform="translate(948.000000, 126.000000)">
                    <path d="M188.4,132.5 C183.6,137.2 181.4,144 182.5,150.6 L185.7,169 L189.3,190.2 C192.2,206.9 174.6,219.7 159.6,211.8 L124,193.1 C118,190 110.9,190 105,193.1 L69.4,211.8 C54.4,219.7 36.8,206.9 39.7,190.2 L46.5,150.6 C47.6,144 45.4,137.2 40.6,132.5 L11.8,104.5 C-0.3,92.7 6.4,72 23.1,69.6 L49.3,65.8 L62.9,63.8 C69.6,62.8 75.3,58.6 78.3,52.6 L89.1,30.7 L96.1,16.6 C101.5,5.7 114.2,2.6 123.7,7.4 C127.4,9.3 130.7,12.3 132.8,16.6 L150.6,52.6 C153.6,58.6 159.3,62.8 166,63.8 L205.8,69.6 C222.6,72 229.3,92.7 217.2,104.5 L188.4,132.5 Z" id="Path" fill="#7FD6C2"></path>
                    <path d="M59.9,219.2 C54.6,219.2 49.4,217.6 45,214.3 C37.1,208.6 33.2,199 34.9,189.4 L41.7,149.8 C42.6,144.8 40.9,139.7 37.2,136.1 L8.4,108.1 C1.4,101.3 -1.1,91.3 2,82 C5,72.7 12.9,66.1 22.6,64.7 L62.4,58.9 C67.4,58.2 71.8,55 74,50.4 L91.8,14.4 C94.8,8.2 100,3.7 106.4,1.5 C112.9,-0.7 120.1,-0.2 126.1,2.9 C131,5.4 134.9,9.3 137.4,14.4 L155.2,50.4 C157.5,55 161.8,58.1 166.8,58.9 L206.6,64.7 C216.3,66.1 224.1,72.7 227.2,82 C230.3,91.3 227.8,101.3 220.8,108.1 L192,136.1 C188.4,139.7 186.7,144.8 187.6,149.8 L194.4,189.4 C196.1,199 192.2,208.6 184.3,214.3 C176.4,220 166.1,220.8 157.5,216.2 L121.9,197.5 C117.4,195.1 112,195.1 107.5,197.5 L71.9,216.2 C68,218.2 63.9,219.2 59.9,219.2 Z M114.5,185.8 C118.6,185.8 122.6,186.8 126.3,188.7 L161.9,207.4 C167.2,210.2 173.3,209.8 178.2,206.2 C183.1,202.7 185.4,197 184.3,191.1 L177.5,151.5 C176.1,143.2 178.8,134.8 184.8,129 L184.8,129 L213.6,101 C217.9,96.8 219.4,90.9 217.5,85.1 C215.6,79.3 211,75.4 205,74.6 L165.2,68.8 C156.9,67.6 149.7,62.4 146,54.9 L128.2,18.9 C126.7,15.8 124.3,13.4 121.4,11.9 C117.7,10 113.3,9.7 109.3,11.1 C106.6,12 102.8,14.1 100.5,18.9 L82.7,54.9 C79,62.4 71.8,67.6 63.5,68.8 L23.7,74.6 C17.7,75.5 13.1,79.4 11.2,85.1 C9.3,90.8 10.8,96.8 15.1,101 L43.9,129 C49.9,134.9 52.6,143.3 51.2,151.5 L44.4,191.1 C43.4,197 45.7,202.7 50.6,206.2 C55.5,209.7 61.6,210.2 66.9,207.4 L102.5,188.7 C106.4,186.8 110.4,185.8 114.5,185.8 Z" id="Shape" fill="#F3F6E6"></path>
                </g>
                <g transform="translate(992.000000, 128.000000)" fill="#383A48">
                    <path d="M173.2,102.5 L144.4,130.5 C139.6,135.2 137.4,142 138.5,148.6 L141.7,167 L120.5,155.9 C114.5,152.8 107.4,152.8 101.5,155.9 L65.9,174.6 C50.9,182.5 33.3,169.7 36.2,153 L43,113.4 C44.1,106.8 41.9,100 37.1,95.3 L8.3,67.3 C7.2,66.2 6.2,65 5.4,63.8 L19,61.8 C25.7,60.8 31.4,56.6 34.4,50.6 L45.2,28.7 L59.4,26.6 C59.5,26.6 59.6,26.6 59.7,26.5 C66.2,25.5 71.9,21.3 74.8,15.4 L79.8,5.3 C83.5,7.2 86.8,10.2 88.9,14.5 L106.7,50.5 C109.7,56.5 115.4,60.7 122.1,61.7 L161.9,67.5 C178.6,70 185.3,90.7 173.2,102.5 Z" id="Path"></path>
                    <path d="M56.3,182 C51,182 45.8,180.4 41.4,177.1 C33.5,171.4 29.6,161.8 31.3,152.2 L38.1,112.6 C39,107.6 37.3,102.5 33.6,98.9 L4.8,70.9 C3.4,69.6 2.2,68.1 1.2,66.5 C0.3,65.1 0.1,63.3 0.8,61.7 C1.5,60.1 2.9,59.1 4.6,58.8 L18.1,56.8 C23.1,56.1 27.5,52.9 29.7,48.3 L40.5,26.4 C41.2,24.9 42.6,23.9 44.3,23.7 L58.4,21.6 L58.4,21.6 C58.5,21.6 58.6,21.6 58.7,21.5 C63.6,20.7 67.9,17.6 70.1,13.1 L75.1,3 C75.7,1.8 76.7,0.9 78,0.5 C79.3,0.1 80.6,0.2 81.8,0.8 C86.7,3.3 90.6,7.2 93.1,12.3 L110.9,48.3 C113.2,52.9 117.5,56 122.5,56.8 L162.3,62.6 C172,64 179.8,70.6 182.9,79.9 C186,89.2 183.5,99.2 176.5,106 L176.5,106 L147.7,134 C144.1,137.6 142.4,142.7 143.3,147.7 L146.5,166.1 C146.8,168 146.1,169.9 144.5,171 C143,172.1 140.9,172.3 139.2,171.4 L118,160.3 C113.5,157.9 108.1,157.9 103.6,160.3 L68,179 C64.5,181 60.4,182 56.3,182 Z M15.6,67.4 L40.6,91.8 C46.6,97.6 49.3,106.1 47.9,114.3 L41.1,153.9 C40.1,159.8 42.4,165.5 47.3,169 C52.2,172.5 58.3,173 63.6,170.2 L99.2,151.5 C106.6,147.6 115.5,147.6 122.9,151.5 L135.1,157.9 L133.7,149.5 C132.3,141.2 135,132.8 141,127 L169.8,99 C174.1,94.8 175.6,88.9 173.7,83.1 C171.8,77.4 167.2,73.4 161.2,72.6 L121.4,66.8 C113.1,65.6 105.9,60.4 102.2,52.9 L84.4,16.9 C83.7,15.4 82.8,14.1 81.7,13 L79.4,17.7 C75.8,25 68.8,30.2 60.8,31.5 C60.7,31.5 60.6,31.5 60.4,31.6 C60.3,31.6 60.3,31.6 60.2,31.6 L48.6,33.3 L38.9,52.9 C35.2,60.4 28,65.6 19.7,66.8 L15.6,67.4 Z" id="Shape"></path>
                </g>
                <g transform="translate(1006.000000, 63.000000)">
                    <path d="M188.9,132.7 C184.1,137.4 181.9,144.2 183,150.8 L183.9,156.3 L189.8,190.4 C192.7,207.1 175.1,219.9 160.1,212 L124.5,193.3 C118.5,190.2 111.4,190.2 105.5,193.3 L69.9,212 C54.9,219.9 37.3,207.1 40.2,190.4 L47,150.8 C48.1,144.2 45.9,137.4 41.1,132.7 L12.3,104.7 C0.2,92.9 6.9,72.2 23.6,69.8 L63.4,64 C63.5,64 63.6,64 63.7,63.9 C70.2,62.9 75.9,58.7 78.8,52.8 L92.3,25.4 L96.5,16.8 C102.9,3.8 119.7,1.9 129.1,11.1 C130.7,12.7 132.1,14.6 133.2,16.8 L151,52.8 C154,58.8 159.7,63 166.4,64 L206.2,69.8 C223,72.2 229.7,92.9 217.5,104.7 L188.9,132.7 Z" id="Path" fill="#E0719E"></path>
                    <path d="M169.6,219.4 C165.6,219.4 161.5,218.4 157.7,216.4 L122.1,197.7 C117.6,195.3 112.2,195.3 107.7,197.7 L72.1,216.4 C63.5,220.9 53.2,220.2 45.3,214.5 C37.4,208.8 33.5,199.2 35.2,189.6 L42,150 C42.9,145 41.2,139.9 37.5,136.3 L8.7,108.3 C1.7,101.5 -0.8,91.5 2.3,82.2 C5.3,72.9 13.2,66.3 22.9,64.9 L62.6,59.1 L62.6,59.1 C62.7,59.1 62.8,59.1 62.9,59 C67.8,58.2 72.1,55.1 74.3,50.6 L92.1,14.6 C95.7,7.2 102.5,2.2 110.5,0.8 C118.6,-0.6 126.9,1.9 132.6,7.6 C134.6,9.6 136.4,12 137.7,14.6 L155.5,50.6 C157.8,55.2 162.1,58.3 167.1,59.1 L206.9,64.9 C216.6,66.3 224.4,72.9 227.5,82.2 C230.5,91.5 228,101.5 221.1,108.3 L192.3,136.3 L192.3,136.3 C188.7,139.8 187,145 187.9,150 L194.7,189.6 C196.4,199.2 192.5,208.8 184.6,214.5 C180.1,217.8 174.9,219.4 169.6,219.4 Z M115,186 C119.1,186 123.1,187 126.9,188.9 L162.5,207.6 C167.8,210.4 173.9,210 178.8,206.4 C183.7,202.9 186,197.2 185,191.3 L178.2,151.7 C176.8,143.4 179.5,135 185.5,129.2 L214.3,101.2 C218.6,97 220.1,91.1 218.2,85.3 C216.3,79.6 211.7,75.6 205.7,74.8 L165.9,69 C157.6,67.8 150.4,62.6 146.7,55.1 L128.9,19.1 C128.1,17.4 127,16 125.8,14.8 C122.3,11.4 117.3,9.9 112.3,10.7 C107.4,11.5 103.4,14.6 101.1,19.1 L83.3,55.1 C79.7,62.4 72.7,67.6 64.7,68.9 C64.6,68.9 64.5,68.9 64.3,69 C64.2,69 64.2,69 64.1,69 L24.3,74.8 C18.3,75.7 13.7,79.6 11.8,85.3 C9.9,91 11.4,97 15.7,101.2 L44.5,129.2 C50.5,135 53.2,143.5 51.8,151.7 L45,191.3 C44,197.2 46.3,202.9 51.2,206.4 C56.1,209.9 62.2,210.4 67.5,207.6 L103.1,188.9 C106.8,187 110.9,186 115,186 Z" id="Shape" fill="#383A48"></path>
                </g>
                <g transform="translate(1064.000000, 69.000000)" fill="#383A48">
                    <path d="M159.6,98.7 L130.8,126.7 C126,131.4 123.8,138.2 124.9,144.8 L125.8,150.3 L116.8,145.6 C110.8,142.5 103.7,142.5 97.8,145.6 L62.2,164.3 C47.2,172.2 29.6,159.4 32.5,142.7 L39.3,103.1 C40.4,96.5 38.2,89.7 33.4,85 L5.6,58 C12.1,57 17.8,52.8 20.7,46.9 L34.2,19.5 L55.6,16.4 C62.3,15.4 68,11.2 71,5.2 C72.6,6.8 74,8.7 75.1,10.9 L92.9,46.9 C95.9,52.9 101.6,57.1 108.3,58.1 L148.1,63.9 C165.1,66.2 171.8,86.9 159.6,98.7 Z" id="Path"></path>
                    <path d="M52.7,171.7 C47.4,171.7 42.2,170.1 37.8,166.8 C29.9,161.1 26,151.5 27.7,141.9 L34.5,102.3 C35.4,97.3 33.7,92.2 30.1,88.6 L2.4,61.6 C1,60.3 0.6,58.3 1.1,56.5 C1.7,54.7 3.2,53.4 5.1,53.1 C10,52.3 14.3,49.2 16.5,44.7 L30,17.3 C30.7,15.8 32.1,14.8 33.8,14.6 L55.2,11.5 C60.2,10.8 64.6,7.6 66.8,3.1 C67.5,1.7 68.9,0.7 70.4,0.4 C72,0.1 73.6,0.6 74.7,1.7 C76.8,3.7 78.5,6.1 79.8,8.8 L97.6,44.8 C99.9,49.4 104.2,52.5 109.2,53.3 L149,59.1 C158.7,60.5 166.5,67.1 169.6,76.4 C172.6,85.7 170.1,95.7 163.2,102.5 L134.4,130.5 C130.7,134.1 129.1,139.2 129.9,144.2 L130.8,149.7 C131.1,151.6 130.4,153.5 128.8,154.6 C127.3,155.7 125.2,155.9 123.5,155 L114.5,150.3 C110,147.9 104.6,147.9 100.1,150.3 L64.5,169 C60.8,170.7 56.8,171.7 52.7,171.7 Z M15,60 L37,81.5 C43,87.4 45.7,95.8 44.3,104 L37.5,143.6 C36.5,149.5 38.8,155.2 43.7,158.7 C48.6,162.2 54.7,162.7 60,159.9 L95.6,141.2 C103,137.3 111.9,137.3 119.3,141.2 L119.8,141.4 C119.8,134.6 122.5,128 127.5,123.1 L156.3,95.1 L156.3,95.1 C160.6,90.9 162.1,85 160.2,79.2 C158.3,73.5 153.7,69.5 147.7,68.7 L107.9,62.9 C99.6,61.7 92.4,56.5 88.7,49 L71.3,13.7 C67.4,17.7 62.3,20.4 56.6,21.2 L37.8,23.9 L25.4,49 C23,53.7 19.4,57.5 15,60 Z" id="Shape"></path>
                </g>
                <g transform="translate(1065.000000, 0.000000)">
                    <path d="M132.8,17 L150.6,53 C153.6,59 159.3,63.2 166,64.2 L205.8,70 C222.6,72.4 229.3,93.1 217.1,104.9 L188.3,132.9 C183.5,137.6 181.3,144.4 182.4,151 L189.2,190.6 C192.1,207.3 174.5,220.1 159.5,212.2 L123.9,193.5 C117.9,190.4 110.8,190.4 104.9,193.5 L69.3,212.2 C54.3,220.1 36.7,207.3 39.6,190.6 L46.4,151 C47.5,144.4 45.3,137.6 40.5,132.9 L11.7,104.9 C-0.4,93.1 6.3,72.4 23,70 L62.8,64.2 C69.5,63.2 75.2,59 78.2,53 L96,17 C103.6,1.8 125.3,1.8 132.8,17 Z" id="Path" fill="#F6E049"></path>
                    <path d="M169.1,219.6 C165.1,219.6 161,218.6 157.2,216.6 L121.6,197.9 C117.1,195.5 111.7,195.5 107.2,197.9 L71.6,216.6 C63,221.1 52.7,220.4 44.8,214.7 C36.9,209 33,199.4 34.7,189.8 L41.5,150.2 C42.4,145.2 40.7,140.1 37.1,136.5 L8.3,108.5 C1.3,101.7 -1.2,91.7 1.9,82.4 C5,73.1 12.8,66.5 22.5,65.1 L62.3,59.3 C67.3,58.6 71.7,55.4 73.9,50.8 L91.7,14.8 C96,6 104.8,0.6 114.5,0.6 C124.3,0.6 133,6 137.3,14.8 L137.3,14.8 L155.1,50.8 C157.4,55.4 161.7,58.5 166.7,59.3 L206.5,65.1 C216.2,66.5 224,73.1 227.1,82.4 C230.2,91.7 227.6,101.7 220.7,108.5 L191.9,136.5 C188.3,140.1 186.6,145.2 187.5,150.2 L194.3,189.8 C196,199.4 192.1,209 184.2,214.7 C179.6,218 174.3,219.6 169.1,219.6 Z M114.4,186.2 C118.5,186.2 122.5,187.2 126.3,189.1 L161.9,207.8 C167.2,210.6 173.3,210.2 178.2,206.6 C183.1,203.1 185.4,197.4 184.4,191.5 L177.6,151.9 C176.2,143.6 178.9,135.2 184.9,129.4 L213.7,101.4 C218,97.2 219.5,91.3 217.6,85.5 C215.7,79.8 211.1,75.8 205.1,75 L165.3,69.2 C157,68 149.8,62.8 146.1,55.3 L128.3,19.3 C125.6,13.9 120.4,10.7 114.4,10.7 C108.4,10.7 103.2,13.9 100.5,19.3 L82.7,55.3 C79,62.8 71.8,68 63.5,69.2 L23.7,75 C17.7,75.9 13.1,79.8 11.2,85.5 C9.3,91.2 10.8,97.2 15.1,101.4 L43.9,129.4 C49.9,135.3 52.6,143.7 51.2,151.9 L44.4,191.5 C43.4,197.4 45.7,203.1 50.6,206.6 C55.5,210.1 61.6,210.6 66.9,207.8 L102.5,189.1 C106.3,187.2 110.4,186.2 114.4,186.2 Z" id="Shape" fill="#383A48"></path>
                </g>
                <path d="M1366.1,656.4 C1364.8,656.4 1363.5,655.9 1362.6,654.9 L1207,499.4 C1205,497.4 1205,494.3 1207,492.3 C1209,490.3 1212.1,490.3 1214.1,492.3 L1369.7,647.9 C1371.7,649.9 1371.7,653 1369.7,655 C1368.6,655.9 1367.4,656.4 1366.1,656.4 Z" id="Path" fill="#383A48"></path>
                <path d="M563,0.6 L5.7,0.6 C2.9,0.6 0.7,2.8 0.7,5.6 L0.7,563.3 C0.7,565.5 2.1,567.5 4.3,568.1 C4.8,568.2 5.3,568.3 5.7,568.3 C7.3,568.3 8.9,567.5 9.9,566.1 C59,491.8 120.9,450.9 175.5,414.8 C246.9,367.6 308.5,326.8 316,229.1 C321.9,153.1 350,96.1 399.7,59.7 C440.1,30.1 495.1,13.6 563.3,10.6 C566,10.5 568.1,8.2 568.1,5.5 C568,2.8 565.8,0.6 563,0.6 Z" id="Path" fill="#F3F6E6"></path>
                <g transform="translate(9.000000, 622.000000)" id="Path">
                    <path d="M144.1,25.2 C111.2,-7.7 57.6,-7.7 24.7,25.2 C-8.2,58.1 -8.2,111.7 24.7,144.6 C25.7,145.6 27,146.1 28.2,146.1 C29.4,146.1 30.8,145.6 31.7,144.6 C33.7,142.6 33.7,139.5 31.7,137.5 L137,32.3 L137,32.3 C139,34.3 142.1,34.3 144.1,32.3 C146,30.4 146,27.2 144.1,25.2 Z" fill="#4053FA"></path>
                    <g transform="translate(24.000000, 25.000000)">
                        <path d="M116.6,3.8 C147.6,34.8 147.6,85.1 116.6,116.2 C85.6,147.2 35.3,147.2 4.2,116.2" fill="#E0719E"></path>
                        <path d="M60.4,144.4 C37.8,144.4 16.6,135.6 0.7,119.7 L7.8,112.6 C21.9,126.7 40.6,134.4 60.5,134.4 C80.4,134.4 99.1,126.7 113.2,112.6 C142.2,83.6 142.2,36.3 113.2,7.3 L120.3,0.2 C153.2,33.1 153.2,86.7 120.3,119.6 C104.1,135.6 82.9,144.4 60.4,144.4 Z" fill="#383A48"></path>
                    </g>
                </g>
                <path d="M249,386.1 C248.4,386.1 247.9,386.1 247.3,386 C239.2,385.1 232.6,378.2 229.5,367.5 C227.3,359.9 225.6,352.2 224.4,344.5 C214.1,339.6 202.2,336.3 189.6,334.8 C160.2,331.5 130.2,338.9 104.9,355.7 C102.6,357.2 99.5,356.6 98,354.3 C96.5,352 97.1,348.9 99.4,347.4 C126.6,329.3 159.1,321.3 190.8,324.9 C202.2,326.2 213.2,329 223.1,333 C221,309.6 223.5,286.4 230.6,264.4 C240.5,234 258.9,206.7 283.8,185.4 C308.7,164.1 338.5,150 370.1,144.7 C403.6,139.1 437.7,143.7 468.8,158.1 C471.3,159.3 472.4,162.2 471.2,164.7 C470,167.2 467.1,168.3 464.6,167.1 C435.4,153.5 403.3,149.2 371.8,154.5 C342,159.5 313.8,172.8 290.4,192.9 C266.9,213 249.6,238.8 240.2,267.4 C232.9,289.9 230.7,313.8 233.8,337.9 C243.6,343.2 252,349.9 258.1,357.5 C263.8,364.6 265.2,372.5 261.8,378.7 C259.1,383.4 254.3,386.1 249,386.1 Z M235.8,350.9 C236.7,355.5 237.9,360.1 239.2,364.7 C241.1,371.4 244.6,375.6 248.5,376 C250.4,376.2 252.1,375.4 252.9,373.9 C254.3,371.4 253.2,367.7 250.1,363.8 C246.3,359.1 241.4,354.7 235.8,350.9 Z" id="Shape" fill="#383A48"></path>
                <path d="M953.7,0.6 L842.2,0.6 C840.2,0.6 838.4,1.8 837.6,3.7 C836.8,5.6 837.3,7.7 838.7,9.1 L950.2,120.6 C951.2,121.6 952.4,122.1 953.7,122.1 C954.3,122.1 955,122 955.6,121.7 C957.5,120.9 958.7,119.1 958.7,117.1 L958.7,5.6 C958.7,2.8 956.4,0.6 953.7,0.6 Z" id="Path" fill="#F3F6E6"></path>
                <g transform="translate(318.000000, 709.000000)" fill="#F3F6E6" id="Path">
                    <path d="M38.1,26.6 L5.1,26.6 C2.3,26.6 0.1,24.4 0.1,21.6 C0.1,18.8 2.3,16.6 5.1,16.6 L38.1,16.6 C40.9,16.6 43.1,18.8 43.1,21.6 C43.1,24.4 40.8,26.6 38.1,26.6 Z"></path>
                    <path d="M21.6,43.1 C18.8,43.1 16.6,40.9 16.6,38.1 L16.6,5.1 C16.6,2.3 18.8,0.1 21.6,0.1 C24.4,0.1 26.6,2.3 26.6,5.1 L26.6,38.1 C26.6,40.9 24.3,43.1 21.6,43.1 Z"></path>
                </g>
                <g transform="translate(541.000000, 39.000000)" fill="#F3F6E6" id="Path">
                    <path d="M38.5,27.4 L5.5,27.4 C2.7,27.4 0.5,25.2 0.5,22.4 C0.5,19.6 2.7,17.4 5.5,17.4 L38.5,17.4 C41.3,17.4 43.5,19.6 43.5,22.4 C43.5,25.2 41.3,27.4 38.5,27.4 Z"></path>
                    <path d="M22,43.8 C19.2,43.8 17,41.6 17,38.8 L17,5.8 C17,3 19.2,0.8 22,0.8 C24.8,0.8 27,3 27,5.8 L27,38.8 C27,41.6 24.8,43.8 22,43.8 Z"></path>
                </g>
                <path d="M897.9,193.4 C886.6,193.4 877.4,184.2 877.4,172.9 C877.4,161.6 886.6,152.4 897.9,152.4 C909.2,152.4 918.4,161.6 918.4,172.9 C918.4,184.2 909.2,193.4 897.9,193.4 Z M897.9,162.4 C892.1,162.4 887.4,167.1 887.4,172.9 C887.4,178.7 892.1,183.4 897.9,183.4 C903.7,183.4 908.4,178.7 908.4,172.9 C908.4,167.1 903.7,162.4 897.9,162.4 Z" id="Shape" fill="#F3F6E6"></path>
                <path d="M228.6,520.6 C217.3,520.6 208.1,511.4 208.1,500.1 C208.1,488.8 217.3,479.6 228.6,479.6 C239.9,479.6 249.1,488.8 249.1,500.1 C249.1,511.4 239.9,520.6 228.6,520.6 Z M228.6,489.6 C222.8,489.6 218.1,494.3 218.1,500.1 C218.1,505.9 222.8,510.6 228.6,510.6 C234.4,510.6 239.1,505.9 239.1,500.1 C239.1,494.3 234.4,489.6 228.6,489.6 Z" id="Shape" fill="#F3F6E6"></path>
                <path d="M192.5,0.6 L5.7,0.6 C2.9,0.6 0.7,2.8 0.7,5.6 L0.7,192.4 C0.7,195.2 2.9,197.4 5.7,197.4 C111.5,197.4 197.5,111.3 197.5,5.6 C197.5,2.8 195.3,0.6 192.5,0.6 Z" id="Path" fill="#F6E049"></path>
                <g transform="translate(930.000000, 640.000000)">
                    <g id="XMLID_33_">
                        <path d="M75.9,5.8 L288,5.8 C326.8,5.8 358.3,37.3 358.3,76.1 L358.3,76.1 C358.3,114.9 326.8,146.4 288,146.4 L75.9,146.4 C37.1,146.4 5.6,114.9 5.6,76.1 L5.6,76.1 C5.7,37.3 37.1,5.8 75.9,5.8 Z" id="Path" fill="#AAC6FC"></path>
                        <path d="M288,151.4 L75.9,151.4 C34.4,151.4 0.6,117.6 0.6,76.1 C0.6,34.6 34.4,0.8 75.9,0.8 L288,0.8 C329.5,0.8 363.3,34.6 363.3,76.1 C363.3,117.6 329.5,151.4 288,151.4 Z M75.9,10.8 C39.9,10.8 10.6,40.1 10.6,76.1 C10.6,112.1 39.9,141.4 75.9,141.4 L288,141.4 C324,141.4 353.3,112.1 353.3,76.1 C353.3,40.1 324,10.8 288,10.8 L75.9,10.8 Z" id="Shape" fill="#383A48"></path>
                    </g>
                    <g transform="translate(212.000000, 1.000000)">
                        <circle id="Oval" fill="#F6E049" cx="76.1" cy="75.1" r="70.2"></circle>
                        <path d="M76.1,150.4 C34.6,150.4 0.9,116.7 0.9,75.2 C0.9,33.7 34.6,-1.13686838e-13 76.1,-1.13686838e-13 C117.6,-1.13686838e-13 151.3,33.7 151.3,75.2 C151.3,116.7 117.6,150.4 76.1,150.4 Z M76.1,9.9 C40.1,9.9 10.9,39.2 10.9,75.1 C10.9,111.1 40.2,140.3 76.1,140.3 C112.1,140.3 141.3,111 141.3,75.1 C141.3,39.2 112,9.9 76.1,9.9 Z" id="Shape" fill="#383A48"></path>
                    </g>
                    <g transform="translate(8.000000, 52.000000)" fill="#383A48" id="Oval">
                        <circle cx="227.7" cy="79.1" r="5"></circle>
                        <circle cx="203" cy="5.1" r="5"></circle>
                        <circle cx="203" cy="29.8" r="5"></circle>
                        <circle cx="203" cy="54.4" r="5"></circle>
                        <circle cx="203" cy="79.1" r="5"></circle>
                        <circle cx="178.4" cy="5.1" r="5"></circle>
                        <circle cx="178.4" cy="29.8" r="5"></circle>
                        <circle cx="178.4" cy="54.4" r="5"></circle>
                        <circle cx="178.4" cy="79.1" r="5"></circle>
                        <circle cx="153.7" cy="5.1" r="5"></circle>
                        <circle cx="153.7" cy="29.8" r="5"></circle>
                        <circle cx="153.7" cy="54.4" r="5"></circle>
                        <circle cx="153.7" cy="79.1" r="5"></circle>
                        <circle cx="129" cy="5.1" r="5"></circle>
                        <circle cx="129" cy="29.8" r="5"></circle>
                        <circle cx="129" cy="54.4" r="5"></circle>
                        <circle cx="129" cy="79.1" r="5"></circle>
                        <circle cx="104.4" cy="5.1" r="5"></circle>
                        <circle cx="104.4" cy="29.8" r="5"></circle>
                        <circle cx="104.4" cy="54.4" r="5"></circle>
                        <circle cx="104.4" cy="79.1" r="5"></circle>
                        <circle cx="79.7" cy="5.1" r="5"></circle>
                        <circle cx="79.7" cy="29.8" r="5"></circle>
                        <circle cx="79.7" cy="54.4" r="5"></circle>
                        <circle cx="79.7" cy="79.1" r="5"></circle>
                        <circle cx="55" cy="5.1" r="5"></circle>
                        <circle cx="55" cy="29.8" r="5"></circle>
                        <circle cx="55" cy="54.4" r="5"></circle>
                        <circle cx="55" cy="79.1" r="5"></circle>
                        <circle cx="30.4" cy="5.1" r="5"></circle>
                        <circle cx="30.4" cy="29.8" r="5"></circle>
                        <circle cx="30.4" cy="54.4" r="5"></circle>
                        <circle cx="30.4" cy="79.1" r="5"></circle>
                        <circle cx="5.7" cy="5.1" r="5"></circle>
                        <circle cx="5.7" cy="29.8" r="5"></circle>
                        <circle cx="5.7" cy="54.4" r="5"></circle>
                    </g>
                </g>
            </g>
        </g>
    </g>
</svg>