<?xml version="1.0" encoding="UTF-8"?>
<svg width="1484px" height="792px" viewBox="0 0 1484 792" version="1.1" xmlns="http://www.w3.org/2000/svg" xmlns:xlink="http://www.w3.org/1999/xlink">
    <!-- Generator: Sketch 59.1 (86144) - https://sketch.com -->
    <title>growth</title>
    <desc>Created with Sketch.</desc>
    <g id="Page-1" stroke="none" stroke-width="1" fill="none" fill-rule="evenodd">
        <g id="growth" transform="translate(-218.000000, -144.000000)">
            <g id="Group" transform="translate(218.000000, 144.000000)">
                <g transform="translate(165.000000, 0.000000)" fill="#E3C049" fill-rule="nonzero" id="Shape">
                    <path d="M228.8,345.2 L117.3,345.2 C114.5,345.2 112.3,343 112.3,340.2 L112.3,228.7 C112.3,225.9 114.5,223.7 117.3,223.7 L228.8,223.7 C231.6,223.7 233.8,225.9 233.8,228.7 L233.8,340.2 C233.8,343 231.6,345.2 228.8,345.2 Z M122.3,335.2 L223.8,335.2 L223.8,233.7 L122.3,233.7 L122.3,335.2 Z"></path>
                    <path d="M340.4,345.2 L228.8,345.2 C226,345.2 223.8,343 223.8,340.2 L223.8,228.7 C223.8,225.9 226,223.7 228.8,223.7 L340.3,223.7 C343.1,223.7 345.3,225.9 345.3,228.7 L345.3,340.2 C345.4,343 343.1,345.2 340.4,345.2 Z M233.8,335.2 L335.3,335.2 L335.3,233.7 L233.8,233.7 L233.8,335.2 Z"></path>
                    <path d="M451.9,345.2 L340.4,345.2 C337.6,345.2 335.4,343 335.4,340.2 L335.4,228.7 C335.4,225.9 337.6,223.7 340.4,223.7 L451.9,223.7 C454.7,223.7 456.9,225.9 456.9,228.7 L456.9,340.2 C456.9,343 454.7,345.2 451.9,345.2 Z M345.4,335.2 L446.9,335.2 L446.9,233.7 L345.4,233.7 L345.4,335.2 Z"></path>
                    <path d="M563.5,345.2 L451.9,345.2 C449.1,345.2 446.9,343 446.9,340.2 L446.9,228.7 C446.9,225.9 449.1,223.7 451.9,223.7 L563.4,223.7 C566.2,223.7 568.4,225.9 568.4,228.7 L568.4,340.2 C568.5,343 566.2,345.2 563.5,345.2 Z M456.9,335.2 L558.4,335.2 L558.4,233.7 L456.9,233.7 L456.9,335.2 Z"></path>
                    <path d="M675,345.2 L563.5,345.2 C560.7,345.2 558.5,343 558.5,340.2 L558.5,228.7 C558.5,225.9 560.7,223.7 563.5,223.7 L675,223.7 C677.8,223.7 680,225.9 680,228.7 L680,340.2 C680,343 677.8,345.2 675,345.2 Z M568.5,335.2 L670,335.2 L670,233.7 L568.5,233.7 L568.5,335.2 Z"></path>
                    <path d="M786.6,345.2 L675,345.2 C672.2,345.2 670,343 670,340.2 L670,228.7 C670,225.9 672.2,223.7 675,223.7 L786.5,223.7 C789.3,223.7 791.5,225.9 791.5,228.7 L791.5,340.2 C791.6,343 789.3,345.2 786.6,345.2 Z M680,335.2 L781.5,335.2 L781.5,233.7 L680,233.7 L680,335.2 Z"></path>
                    <path d="M228.8,456.8 L117.3,456.8 C114.5,456.8 112.3,454.6 112.3,451.8 L112.3,340.2 C112.3,337.4 114.5,335.2 117.3,335.2 L228.8,335.2 C231.6,335.2 233.8,337.4 233.8,340.2 L233.8,451.7 C233.8,454.5 231.6,456.8 228.8,456.8 Z M122.3,446.8 L223.8,446.8 L223.8,345.2 L122.3,345.2 L122.3,446.8 Z"></path>
                    <path d="M340.4,456.8 L228.8,456.8 C226,456.8 223.8,454.6 223.8,451.8 L223.8,340.2 C223.8,337.4 226,335.2 228.8,335.2 L340.3,335.2 C343.1,335.2 345.3,337.4 345.3,340.2 L345.3,451.7 C345.4,454.5 343.1,456.8 340.4,456.8 Z M233.8,446.8 L335.3,446.8 L335.3,345.2 L233.8,345.2 L233.8,446.8 Z"></path>
                    <path d="M451.9,456.8 L340.4,456.8 C337.6,456.8 335.4,454.6 335.4,451.8 L335.4,340.2 C335.4,337.4 337.6,335.2 340.4,335.2 L451.9,335.2 C454.7,335.2 456.9,337.4 456.9,340.2 L456.9,451.7 C456.9,454.5 454.7,456.8 451.9,456.8 Z M345.4,446.8 L446.9,446.8 L446.9,345.2 L345.4,345.2 L345.4,446.8 Z"></path>
                    <path d="M563.5,456.8 L451.9,456.8 C449.1,456.8 446.9,454.6 446.9,451.8 L446.9,340.2 C446.9,337.4 449.1,335.2 451.9,335.2 L563.4,335.2 C566.2,335.2 568.4,337.4 568.4,340.2 L568.4,451.7 C568.5,454.5 566.2,456.8 563.5,456.8 Z M456.9,446.8 L558.4,446.8 L558.4,345.2 L456.9,345.2 L456.9,446.8 Z"></path>
                    <path d="M675,456.8 L563.5,456.8 C560.7,456.8 558.5,454.6 558.5,451.8 L558.5,340.2 C558.5,337.4 560.7,335.2 563.5,335.2 L675,335.2 C677.8,335.2 680,337.4 680,340.2 L680,451.7 C680,454.5 677.8,456.8 675,456.8 Z M568.5,446.8 L670,446.8 L670,345.2 L568.5,345.2 L568.5,446.8 Z"></path>
                    <path d="M786.6,456.8 L675,456.8 C672.2,456.8 670,454.6 670,451.8 L670,340.2 C670,337.4 672.2,335.2 675,335.2 L786.5,335.2 C789.3,335.2 791.5,337.4 791.5,340.2 L791.5,451.7 C791.6,454.5 789.3,456.8 786.6,456.8 Z M680,446.8 L781.5,446.8 L781.5,345.2 L680,345.2 L680,446.8 Z"></path>
                    <path d="M228.8,568.3 L117.3,568.3 C114.5,568.3 112.3,566.1 112.3,563.3 L112.3,451.8 C112.3,449 114.5,446.8 117.3,446.8 L228.8,446.8 C231.6,446.8 233.8,449 233.8,451.8 L233.8,563.3 C233.8,566.1 231.6,568.3 228.8,568.3 Z M122.3,558.3 L223.8,558.3 L223.8,456.8 L122.3,456.8 L122.3,558.3 Z"></path>
                    <path d="M340.4,568.3 L228.8,568.3 C226,568.3 223.8,566.1 223.8,563.3 L223.8,451.8 C223.8,449 226,446.8 228.8,446.8 L340.3,446.8 C343.1,446.8 345.3,449 345.3,451.8 L345.3,563.3 C345.4,566.1 343.1,568.3 340.4,568.3 Z M233.8,558.3 L335.3,558.3 L335.3,456.8 L233.8,456.8 L233.8,558.3 Z"></path>
                    <path d="M451.9,568.3 L340.4,568.3 C337.6,568.3 335.4,566.1 335.4,563.3 L335.4,451.8 C335.4,449 337.6,446.8 340.4,446.8 L451.9,446.8 C454.7,446.8 456.9,449 456.9,451.8 L456.9,563.3 C456.9,566.1 454.7,568.3 451.9,568.3 Z M345.4,558.3 L446.9,558.3 L446.9,456.8 L345.4,456.8 L345.4,558.3 Z"></path>
                    <path d="M563.5,568.3 L451.9,568.3 C449.1,568.3 446.9,566.1 446.9,563.3 L446.9,451.8 C446.9,449 449.1,446.8 451.9,446.8 L563.4,446.8 C566.2,446.8 568.4,449 568.4,451.8 L568.4,563.3 C568.5,566.1 566.2,568.3 563.5,568.3 Z M456.9,558.3 L558.4,558.3 L558.4,456.8 L456.9,456.8 L456.9,558.3 Z"></path>
                    <path d="M675,568.3 L563.5,568.3 C560.7,568.3 558.5,566.1 558.5,563.3 L558.5,451.8 C558.5,449 560.7,446.8 563.5,446.8 L675,446.8 C677.8,446.8 680,449 680,451.8 L680,563.3 C680,566.1 677.8,568.3 675,568.3 Z M568.5,558.3 L670,558.3 L670,456.8 L568.5,456.8 L568.5,558.3 Z"></path>
                    <path d="M786.6,568.3 L675,568.3 C672.2,568.3 670,566.1 670,563.3 L670,451.8 C670,449 672.2,446.8 675,446.8 L786.5,446.8 C789.3,446.8 791.5,449 791.5,451.8 L791.5,563.3 C791.6,566.1 789.3,568.3 786.6,568.3 Z M680,558.3 L781.5,558.3 L781.5,456.8 L680,456.8 L680,558.3 Z"></path>
                    <path d="M228.8,679.9 L117.3,679.9 C114.5,679.9 112.3,677.7 112.3,674.9 L112.3,563.3 C112.3,560.5 114.5,558.3 117.3,558.3 L228.8,558.3 C231.6,558.3 233.8,560.5 233.8,563.3 L233.8,674.8 C233.8,677.6 231.6,679.9 228.8,679.9 Z M122.3,669.9 L223.8,669.9 L223.8,568.3 L122.3,568.3 L122.3,669.9 Z"></path>
                    <path d="M340.4,679.9 L228.8,679.9 C226,679.9 223.8,677.7 223.8,674.9 L223.8,563.3 C223.8,560.5 226,558.3 228.8,558.3 L340.3,558.3 C343.1,558.3 345.3,560.5 345.3,563.3 L345.3,674.8 C345.4,677.6 343.1,679.9 340.4,679.9 Z M233.8,669.9 L335.3,669.9 L335.3,568.3 L233.8,568.3 L233.8,669.9 Z"></path>
                    <path d="M451.9,679.9 L340.4,679.9 C337.6,679.9 335.4,677.7 335.4,674.9 L335.4,563.3 C335.4,560.5 337.6,558.3 340.4,558.3 L451.9,558.3 C454.7,558.3 456.9,560.5 456.9,563.3 L456.9,674.8 C456.9,677.6 454.7,679.9 451.9,679.9 Z M345.4,669.9 L446.9,669.9 L446.9,568.3 L345.4,568.3 L345.4,669.9 Z"></path>
                    <path d="M563.5,679.9 L451.9,679.9 C449.1,679.9 446.9,677.7 446.9,674.9 L446.9,563.3 C446.9,560.5 449.1,558.3 451.9,558.3 L563.4,558.3 C566.2,558.3 568.4,560.5 568.4,563.3 L568.4,674.8 C568.5,677.6 566.2,679.9 563.5,679.9 Z M456.9,669.9 L558.4,669.9 L558.4,568.3 L456.9,568.3 L456.9,669.9 Z"></path>
                    <path d="M675,679.9 L563.5,679.9 C560.7,679.9 558.5,677.7 558.5,674.9 L558.5,563.3 C558.5,560.5 560.7,558.3 563.5,558.3 L675,558.3 C677.8,558.3 680,560.5 680,563.3 L680,674.8 C680,677.6 677.8,679.9 675,679.9 Z M568.5,669.9 L670,669.9 L670,568.3 L568.5,568.3 L568.5,669.9 Z"></path>
                    <path d="M786.6,679.9 L675,679.9 C672.2,679.9 670,677.7 670,674.9 L670,563.3 C670,560.5 672.2,558.3 675,558.3 L786.5,558.3 C789.3,558.3 791.5,560.5 791.5,563.3 L791.5,674.8 C791.6,677.6 789.3,679.9 786.6,679.9 Z M680,669.9 L781.5,669.9 L781.5,568.3 L680,568.3 L680,669.9 Z"></path>
                    <path d="M228.8,791.4 L117.3,791.4 C114.5,791.4 112.3,789.2 112.3,786.4 L112.3,674.9 C112.3,672.1 114.5,669.9 117.3,669.9 L228.8,669.9 C231.6,669.9 233.8,672.1 233.8,674.9 L233.8,786.4 C233.8,789.2 231.6,791.4 228.8,791.4 Z M122.3,781.4 L223.8,781.4 L223.8,679.9 L122.3,679.9 L122.3,781.4 Z"></path>
                    <path d="M117.3,345.2 L5.7,345.2 C2.9,345.2 0.7,343 0.7,340.2 L0.7,228.7 C0.7,225.9 2.9,223.7 5.7,223.7 L117.2,223.7 C120,223.7 122.2,225.9 122.2,228.7 L122.2,340.2 C122.3,343 120,345.2 117.3,345.2 Z M10.7,335.2 L112.2,335.2 L112.2,233.7 L10.7,233.7 L10.7,335.2 Z"></path>
                    <path d="M117.3,456.8 L5.7,456.8 C2.9,456.8 0.7,454.6 0.7,451.8 L0.7,340.2 C0.7,337.4 2.9,335.2 5.7,335.2 L117.2,335.2 C120,335.2 122.2,337.4 122.2,340.2 L122.2,451.7 C122.3,454.5 120,456.8 117.3,456.8 Z M10.7,446.8 L112.2,446.8 L112.2,345.2 L10.7,345.2 L10.7,446.8 Z"></path>
                    <path d="M117.3,568.3 L5.7,568.3 C2.9,568.3 0.7,566.1 0.7,563.3 L0.7,451.8 C0.7,449 2.9,446.8 5.7,446.8 L117.2,446.8 C120,446.8 122.2,449 122.2,451.8 L122.2,563.3 C122.3,566.1 120,568.3 117.3,568.3 Z M10.7,558.3 L112.2,558.3 L112.2,456.8 L10.7,456.8 L10.7,558.3 Z"></path>
                    <path d="M117.3,679.9 L5.7,679.9 C2.9,679.9 0.7,677.7 0.7,674.9 L0.7,563.3 C0.7,560.5 2.9,558.3 5.7,558.3 L117.2,558.3 C120,558.3 122.2,560.5 122.2,563.3 L122.2,674.8 C122.3,677.6 120,679.9 117.3,679.9 Z M10.7,669.9 L112.2,669.9 L112.2,568.3 L10.7,568.3 L10.7,669.9 Z"></path>
                    <path d="M117.3,791.4 L5.7,791.4 C2.9,791.4 0.7,789.2 0.7,786.4 L0.7,674.9 C0.7,672.1 2.9,669.9 5.7,669.9 L117.2,669.9 C120,669.9 122.2,672.1 122.2,674.9 L122.2,786.4 C122.3,789.2 120,791.4 117.3,791.4 Z M10.7,781.4 L112.2,781.4 L112.2,679.9 L10.7,679.9 L10.7,781.4 Z"></path>
                    <path d="M340.4,791.4 L228.8,791.4 C226,791.4 223.8,789.2 223.8,786.4 L223.8,674.9 C223.8,672.1 226,669.9 228.8,669.9 L340.3,669.9 C343.1,669.9 345.3,672.1 345.3,674.9 L345.3,786.4 C345.4,789.2 343.1,791.4 340.4,791.4 Z M233.8,781.4 L335.3,781.4 L335.3,679.9 L233.8,679.9 L233.8,781.4 Z"></path>
                    <path d="M451.9,791.4 L340.4,791.4 C337.6,791.4 335.4,789.2 335.4,786.4 L335.4,674.9 C335.4,672.1 337.6,669.9 340.4,669.9 L451.9,669.9 C454.7,669.9 456.9,672.1 456.9,674.9 L456.9,786.4 C456.9,789.2 454.7,791.4 451.9,791.4 Z M345.4,781.4 L446.9,781.4 L446.9,679.9 L345.4,679.9 L345.4,781.4 Z"></path>
                    <path d="M563.5,791.4 L451.9,791.4 C449.1,791.4 446.9,789.2 446.9,786.4 L446.9,674.9 C446.9,672.1 449.1,669.9 451.9,669.9 L563.4,669.9 C566.2,669.9 568.4,672.1 568.4,674.9 L568.4,786.4 C568.5,789.2 566.2,791.4 563.5,791.4 Z M456.9,781.4 L558.4,781.4 L558.4,679.9 L456.9,679.9 L456.9,781.4 Z"></path>
                    <path d="M675,791.4 L563.5,791.4 C560.7,791.4 558.5,789.2 558.5,786.4 L558.5,674.9 C558.5,672.1 560.7,669.9 563.5,669.9 L675,669.9 C677.8,669.9 680,672.1 680,674.9 L680,786.4 C680,789.2 677.8,791.4 675,791.4 Z M568.5,781.4 L670,781.4 L670,679.9 L568.5,679.9 L568.5,781.4 Z"></path>
                    <path d="M786.6,791.4 L675,791.4 C672.2,791.4 670,789.2 670,786.4 L670,674.9 C670,672.1 672.2,669.9 675,669.9 L786.5,669.9 C789.3,669.9 791.5,672.1 791.5,674.9 L791.5,786.4 C791.6,789.2 789.3,791.4 786.6,791.4 Z M680,781.4 L781.5,781.4 L781.5,679.9 L680,679.9 L680,781.4 Z"></path>
                    <path d="M898.1,345.2 L786.6,345.2 C783.8,345.2 781.6,343 781.6,340.2 L781.6,228.7 C781.6,225.9 783.8,223.7 786.6,223.7 L898.1,223.7 C900.9,223.7 903.1,225.9 903.1,228.7 L903.1,340.2 C903.1,343 900.9,345.2 898.1,345.2 Z M791.6,335.2 L893.1,335.2 L893.1,233.7 L791.6,233.7 L791.6,335.2 Z"></path>
                    <path d="M898.1,456.8 L786.6,456.8 C783.8,456.8 781.6,454.6 781.6,451.8 L781.6,340.2 C781.6,337.4 783.8,335.2 786.6,335.2 L898.1,335.2 C900.9,335.2 903.1,337.4 903.1,340.2 L903.1,451.7 C903.1,454.5 900.9,456.8 898.1,456.8 Z M791.6,446.8 L893.1,446.8 L893.1,345.2 L791.6,345.2 L791.6,446.8 Z"></path>
                    <path d="M898.1,568.3 L786.6,568.3 C783.8,568.3 781.6,566.1 781.6,563.3 L781.6,451.8 C781.6,449 783.8,446.8 786.6,446.8 L898.1,446.8 C900.9,446.8 903.1,449 903.1,451.8 L903.1,563.3 C903.1,566.1 900.9,568.3 898.1,568.3 Z M791.6,558.3 L893.1,558.3 L893.1,456.8 L791.6,456.8 L791.6,558.3 Z"></path>
                    <path d="M898.1,679.9 L786.6,679.9 C783.8,679.9 781.6,677.7 781.6,674.9 L781.6,563.3 C781.6,560.5 783.8,558.3 786.6,558.3 L898.1,558.3 C900.9,558.3 903.1,560.5 903.1,563.3 L903.1,674.8 C903.1,677.6 900.9,679.9 898.1,679.9 Z M791.6,669.9 L893.1,669.9 L893.1,568.3 L791.6,568.3 L791.6,669.9 Z"></path>
                    <path d="M898.1,791.4 L786.6,791.4 C783.8,791.4 781.6,789.2 781.6,786.4 L781.6,674.9 C781.6,672.1 783.8,669.9 786.6,669.9 L898.1,669.9 C900.9,669.9 903.1,672.1 903.1,674.9 L903.1,786.4 C903.1,789.2 900.9,791.4 898.1,791.4 Z M791.6,781.4 L893.1,781.4 L893.1,679.9 L791.6,679.9 L791.6,781.4 Z"></path>
                    <path d="M1009.6,345.2 L898.1,345.2 C895.3,345.2 893.1,343 893.1,340.2 L893.1,228.7 C893.1,225.9 895.3,223.7 898.1,223.7 L1009.6,223.7 C1012.4,223.7 1014.6,225.9 1014.6,228.7 L1014.6,340.2 C1014.6,343 1012.4,345.2 1009.6,345.2 Z M903.1,335.2 L1004.6,335.2 L1004.6,233.7 L903.1,233.7 L903.1,335.2 Z"></path>
                    <path d="M1009.6,456.8 L898.1,456.8 C895.3,456.8 893.1,454.6 893.1,451.8 L893.1,340.2 C893.1,337.4 895.3,335.2 898.1,335.2 L1009.6,335.2 C1012.4,335.2 1014.6,337.4 1014.6,340.2 L1014.6,451.7 C1014.6,454.5 1012.4,456.8 1009.6,456.8 Z M903.1,446.8 L1004.6,446.8 L1004.6,345.2 L903.1,345.2 L903.1,446.8 Z"></path>
                    <path d="M1009.6,568.3 L898.1,568.3 C895.3,568.3 893.1,566.1 893.1,563.3 L893.1,451.8 C893.1,449 895.3,446.8 898.1,446.8 L1009.6,446.8 C1012.4,446.8 1014.6,449 1014.6,451.8 L1014.6,563.3 C1014.6,566.1 1012.4,568.3 1009.6,568.3 Z M903.1,558.3 L1004.6,558.3 L1004.6,456.8 L903.1,456.8 L903.1,558.3 Z"></path>
                    <path d="M1009.6,679.9 L898.1,679.9 C895.3,679.9 893.1,677.7 893.1,674.9 L893.1,563.3 C893.1,560.5 895.3,558.3 898.1,558.3 L1009.6,558.3 C1012.4,558.3 1014.6,560.5 1014.6,563.3 L1014.6,674.8 C1014.6,677.6 1012.4,679.9 1009.6,679.9 Z M903.1,669.9 L1004.6,669.9 L1004.6,568.3 L903.1,568.3 L903.1,669.9 Z"></path>
                    <path d="M1009.6,791.4 L898.1,791.4 C895.3,791.4 893.1,789.2 893.1,786.4 L893.1,674.9 C893.1,672.1 895.3,669.9 898.1,669.9 L1009.6,669.9 C1012.4,669.9 1014.6,672.1 1014.6,674.9 L1014.6,786.4 C1014.6,789.2 1012.4,791.4 1009.6,791.4 Z M903.1,781.4 L1004.6,781.4 L1004.6,679.9 L903.1,679.9 L903.1,781.4 Z"></path>
                    <path d="M1121.2,345.2 L1009.7,345.2 C1006.9,345.2 1004.7,343 1004.7,340.2 L1004.7,228.7 C1004.7,225.9 1006.9,223.7 1009.7,223.7 L1121.2,223.7 C1124,223.7 1126.2,225.9 1126.2,228.7 L1126.2,340.2 C1126.2,343 1124,345.2 1121.2,345.2 Z M1014.6,335.2 L1116.1,335.2 L1116.1,233.7 L1014.6,233.7 L1014.6,335.2 Z"></path>
                    <path d="M228.8,233.7 L117.3,233.7 C114.5,233.7 112.3,231.5 112.3,228.7 L112.3,117.1 C112.3,114.3 114.5,112.1 117.3,112.1 L228.8,112.1 C231.6,112.1 233.8,114.3 233.8,117.1 L233.8,228.6 C233.8,231.4 231.6,233.7 228.8,233.7 Z M122.3,223.7 L223.8,223.7 L223.8,122.1 L122.3,122.1 L122.3,223.7 Z"></path>
                    <path d="M340.4,233.7 L228.8,233.7 C226,233.7 223.8,231.5 223.8,228.7 L223.8,117.1 C223.8,114.3 226,112.1 228.8,112.1 L340.3,112.1 C343.1,112.1 345.3,114.3 345.3,117.1 L345.3,228.6 C345.4,231.4 343.1,233.7 340.4,233.7 Z M233.8,223.7 L335.3,223.7 L335.3,122.1 L233.8,122.1 L233.8,223.7 Z"></path>
                    <path d="M451.9,233.7 L340.4,233.7 C337.6,233.7 335.4,231.5 335.4,228.7 L335.4,117.1 C335.4,114.3 337.6,112.1 340.4,112.1 L451.9,112.1 C454.7,112.1 456.9,114.3 456.9,117.1 L456.9,228.6 C456.9,231.4 454.7,233.7 451.9,233.7 Z M345.4,223.7 L446.9,223.7 L446.9,122.1 L345.4,122.1 L345.4,223.7 Z"></path>
                    <path d="M563.5,233.7 L451.9,233.7 C449.1,233.7 446.9,231.5 446.9,228.7 L446.9,117.1 C446.9,114.3 449.1,112.1 451.9,112.1 L563.4,112.1 C566.2,112.1 568.4,114.3 568.4,117.1 L568.4,228.6 C568.5,231.4 566.2,233.7 563.5,233.7 Z M456.9,223.7 L558.4,223.7 L558.4,122.1 L456.9,122.1 L456.9,223.7 Z"></path>
                    <path d="M675,233.7 L563.5,233.7 C560.7,233.7 558.5,231.5 558.5,228.7 L558.5,117.1 C558.5,114.3 560.7,112.1 563.5,112.1 L675,112.1 C677.8,112.1 680,114.3 680,117.1 L680,228.6 C680,231.4 677.8,233.7 675,233.7 Z M568.5,223.7 L670,223.7 L670,122.1 L568.5,122.1 L568.5,223.7 Z"></path>
                    <path d="M786.6,233.7 L675,233.7 C672.2,233.7 670,231.5 670,228.7 L670,117.1 C670,114.3 672.2,112.1 675,112.1 L786.5,112.1 C789.3,112.1 791.5,114.3 791.5,117.1 L791.5,228.6 C791.6,231.4 789.3,233.7 786.6,233.7 Z M680,223.7 L781.5,223.7 L781.5,122.1 L680,122.1 L680,223.7 Z"></path>
                    <path d="M117.3,233.7 L5.7,233.7 C2.9,233.7 0.7,231.5 0.7,228.7 L0.7,117.1 C0.7,114.3 2.9,112.1 5.7,112.1 L117.2,112.1 C120,112.1 122.2,114.3 122.2,117.1 L122.2,228.6 C122.3,231.4 120,233.7 117.3,233.7 Z M10.7,223.7 L112.2,223.7 L112.2,122.1 L10.7,122.1 L10.7,223.7 Z"></path>
                    <path d="M898.1,233.7 L786.6,233.7 C783.8,233.7 781.6,231.5 781.6,228.7 L781.6,117.1 C781.6,114.3 783.8,112.1 786.6,112.1 L898.1,112.1 C900.9,112.1 903.1,114.3 903.1,117.1 L903.1,228.6 C903.1,231.4 900.9,233.7 898.1,233.7 Z M791.6,223.7 L893.1,223.7 L893.1,122.1 L791.6,122.1 L791.6,223.7 Z"></path>
                    <path d="M1009.6,233.7 L898.1,233.7 C895.3,233.7 893.1,231.5 893.1,228.7 L893.1,117.1 C893.1,114.3 895.3,112.1 898.1,112.1 L1009.6,112.1 C1012.4,112.1 1014.6,114.3 1014.6,117.1 L1014.6,228.6 C1014.6,231.4 1012.4,233.7 1009.6,233.7 Z M903.1,223.7 L1004.6,223.7 L1004.6,122.1 L903.1,122.1 L903.1,223.7 Z"></path>
                    <path d="M1121.2,233.7 L1009.7,233.7 C1006.9,233.7 1004.7,231.5 1004.7,228.7 L1004.7,117.1 C1004.7,114.3 1006.9,112.1 1009.7,112.1 L1121.2,112.1 C1124,112.1 1126.2,114.3 1126.2,117.1 L1126.2,228.6 C1126.2,231.4 1124,233.7 1121.2,233.7 Z M1014.6,223.7 L1116.1,223.7 L1116.1,122.1 L1014.6,122.1 L1014.6,223.7 Z"></path>
                    <path d="M228.8,122.1 L117.3,122.1 C114.5,122.1 112.3,119.9 112.3,117.1 L112.3,5.6 C112.3,2.8 114.5,0.6 117.3,0.6 L228.8,0.6 C231.6,0.6 233.8,2.8 233.8,5.6 L233.8,117.1 C233.8,119.9 231.6,122.1 228.8,122.1 Z M122.3,112.1 L223.8,112.1 L223.8,10.6 L122.3,10.6 L122.3,112.1 Z"></path>
                    <path d="M340.4,122.1 L228.8,122.1 C226,122.1 223.8,119.9 223.8,117.1 L223.8,5.6 C223.8,2.8 226,0.6 228.8,0.6 L340.3,0.6 C343.1,0.6 345.3,2.8 345.3,5.6 L345.3,117.1 C345.4,119.9 343.1,122.1 340.4,122.1 Z M233.8,112.1 L335.3,112.1 L335.3,10.6 L233.8,10.6 L233.8,112.1 Z"></path>
                    <path d="M451.9,122.1 L340.4,122.1 C337.6,122.1 335.4,119.9 335.4,117.1 L335.4,5.6 C335.4,2.8 337.6,0.6 340.4,0.6 L451.9,0.6 C454.7,0.6 456.9,2.8 456.9,5.6 L456.9,117.1 C456.9,119.9 454.7,122.1 451.9,122.1 Z M345.4,112.1 L446.9,112.1 L446.9,10.6 L345.4,10.6 L345.4,112.1 Z"></path>
                    <path d="M563.5,122.1 L451.9,122.1 C449.1,122.1 446.9,119.9 446.9,117.1 L446.9,5.6 C446.9,2.8 449.1,0.6 451.9,0.6 L563.4,0.6 C566.2,0.6 568.4,2.8 568.4,5.6 L568.4,117.1 C568.5,119.9 566.2,122.1 563.5,122.1 Z M456.9,112.1 L558.4,112.1 L558.4,10.6 L456.9,10.6 L456.9,112.1 Z"></path>
                    <path d="M675,122.1 L563.5,122.1 C560.7,122.1 558.5,119.9 558.5,117.1 L558.5,5.6 C558.5,2.8 560.7,0.6 563.5,0.6 L675,0.6 C677.8,0.6 680,2.8 680,5.6 L680,117.1 C680,119.9 677.8,122.1 675,122.1 Z M568.5,112.1 L670,112.1 L670,10.6 L568.5,10.6 L568.5,112.1 Z"></path>
                    <path d="M786.6,122.1 L675,122.1 C672.2,122.1 670,119.9 670,117.1 L670,5.6 C670,2.8 672.2,0.6 675,0.6 L786.5,0.6 C789.3,0.6 791.5,2.8 791.5,5.6 L791.5,117.1 C791.6,119.9 789.3,122.1 786.6,122.1 Z M680,112.1 L781.5,112.1 L781.5,10.6 L680,10.6 L680,112.1 Z"></path>
                    <path d="M117.3,122.1 L5.7,122.1 C2.9,122.1 0.7,119.9 0.7,117.1 L0.7,5.6 C0.7,2.8 2.9,0.6 5.7,0.6 L117.2,0.6 C120,0.6 122.2,2.8 122.2,5.6 L122.2,117.1 C122.3,119.9 120,122.1 117.3,122.1 Z M10.7,112.1 L112.2,112.1 L112.2,10.6 L10.7,10.6 L10.7,112.1 Z"></path>
                    <path d="M898.1,122.1 L786.6,122.1 C783.8,122.1 781.6,119.9 781.6,117.1 L781.6,5.6 C781.6,2.8 783.8,0.6 786.6,0.6 L898.1,0.6 C900.9,0.6 903.1,2.8 903.1,5.6 L903.1,117.1 C903.1,119.9 900.9,122.1 898.1,122.1 Z M791.6,112.1 L893.1,112.1 L893.1,10.6 L791.6,10.6 L791.6,112.1 Z"></path>
                    <path d="M1009.6,122.1 L898.1,122.1 C895.3,122.1 893.1,119.9 893.1,117.1 L893.1,5.6 C893.1,2.8 895.3,0.6 898.1,0.6 L1009.6,0.6 C1012.4,0.6 1014.6,2.8 1014.6,5.6 L1014.6,117.1 C1014.6,119.9 1012.4,122.1 1009.6,122.1 Z M903.1,112.1 L1004.6,112.1 L1004.6,10.6 L903.1,10.6 L903.1,112.1 Z"></path>
                    <path d="M1121.2,122.1 L1009.7,122.1 C1006.9,122.1 1004.7,119.9 1004.7,117.1 L1004.7,5.6 C1004.7,2.8 1006.9,0.6 1009.7,0.6 L1121.2,0.6 C1124,0.6 1126.2,2.8 1126.2,5.6 L1126.2,117.1 C1126.2,119.9 1124,122.1 1121.2,122.1 Z M1014.6,112.1 L1116.1,112.1 L1116.1,10.6 L1014.6,10.6 L1014.6,112.1 Z"></path>
                    <path d="M1121.2,456.8 L1009.7,456.8 C1006.9,456.8 1004.7,454.6 1004.7,451.8 L1004.7,340.2 C1004.7,337.4 1006.9,335.2 1009.7,335.2 L1121.2,335.2 C1124,335.2 1126.2,337.4 1126.2,340.2 L1126.2,451.7 C1126.2,454.5 1124,456.8 1121.2,456.8 Z M1014.6,446.8 L1116.1,446.8 L1116.1,345.2 L1014.6,345.2 L1014.6,446.8 Z"></path>
                    <path d="M1121.2,568.3 L1009.7,568.3 C1006.9,568.3 1004.7,566.1 1004.7,563.3 L1004.7,451.8 C1004.7,449 1006.9,446.8 1009.7,446.8 L1121.2,446.8 C1124,446.8 1126.2,449 1126.2,451.8 L1126.2,563.3 C1126.2,566.1 1124,568.3 1121.2,568.3 Z M1014.6,558.3 L1116.1,558.3 L1116.1,456.8 L1014.6,456.8 L1014.6,558.3 Z"></path>
                    <path d="M1121.2,679.9 L1009.7,679.9 C1006.9,679.9 1004.7,677.7 1004.7,674.9 L1004.7,563.3 C1004.7,560.5 1006.9,558.3 1009.7,558.3 L1121.2,558.3 C1124,558.3 1126.2,560.5 1126.2,563.3 L1126.2,674.8 C1126.2,677.6 1124,679.9 1121.2,679.9 Z M1014.6,669.9 L1116.1,669.9 L1116.1,568.3 L1014.6,568.3 L1014.6,669.9 Z"></path>
                    <path d="M1121.2,791.4 L1009.7,791.4 C1006.9,791.4 1004.7,789.2 1004.7,786.4 L1004.7,674.9 C1004.7,672.1 1006.9,669.9 1009.7,669.9 L1121.2,669.9 C1124,669.9 1126.2,672.1 1126.2,674.9 L1126.2,786.4 C1126.2,789.2 1124,791.4 1121.2,791.4 Z M1014.6,781.4 L1116.1,781.4 L1116.1,679.9 L1014.6,679.9 L1014.6,781.4 Z"></path>
                </g>
                <path d="M1478.1,0.6 L1063.1,0.6 C1060.6,0.6 1058.5,2.4 1058.2,4.9 C1057.8,7.4 1059.3,9.7 1061.7,10.4 C1120.2,27.9 1153.9,42.8 1177.9,61.9 C1201.5,80.6 1215.7,103.1 1237.1,137.2 C1245.5,150.5 1255,165.6 1266.5,182.7 C1296.4,227.2 1338.8,243.3 1376.2,257.4 C1402.2,267.2 1426.8,276.5 1444.4,294 C1464,313.4 1473.1,341 1473.1,380.8 C1473.1,383.6 1475.3,385.8 1478.1,385.8 C1480.9,385.8 1483.1,383.6 1483.1,380.8 L1483.1,5.6 C1483.1,2.8 1480.8,0.6 1478.1,0.6 Z" id="Path" fill="#F3F6E6" fill-rule="nonzero"></path>
                <g transform="translate(946.000000, 375.000000)" fill-rule="nonzero">
                    <g>
                        <rect id="Rectangle" fill="#F3F6E6" x="5.6" y="5.8" width="526.5" height="334.6"></rect>
                        <path d="M532.1,345.4 L5.6,345.4 C2.8,345.4 0.6,343.2 0.6,340.4 L0.6,5.8 C0.6,3 2.8,0.8 5.6,0.8 L532.1,0.8 C534.9,0.8 537.1,3 537.1,5.8 L537.1,340.4 C537.1,343.2 534.8,345.4 532.1,345.4 Z M10.6,335.4 L527.1,335.4 L527.1,10.8 L10.6,10.8 L10.6,335.4 Z" id="Shape" fill="#383A48"></path>
                    </g>
                    <g>
                        <rect id="Rectangle" fill="#E0719E" x="5.6" y="5.8" width="526.5" height="107.2"></rect>
                        <path d="M532.1,118 L5.6,118 C2.8,118 0.6,115.8 0.6,113 L0.6,5.8 C0.6,3 2.8,0.8 5.6,0.8 L532.1,0.8 C534.9,0.8 537.1,3 537.1,5.8 L537.1,113 C537.1,115.7 534.8,118 532.1,118 Z M10.6,108 L527.1,108 L527.1,10.8 L10.6,10.8 L10.6,108 Z" id="Shape" fill="#383A48"></path>
                    </g>
                    <g transform="translate(41.000000, 32.000000)" fill="#383A48" id="Rectangle">
                        <rect x="0.2" y="0.8" width="57.9" height="10"></rect>
                        <rect x="0.2" y="22.4" width="57.9" height="10"></rect>
                        <rect x="0.2" y="43.9" width="57.9" height="10"></rect>
                    </g>
                    <rect id="Rectangle" fill="#7FD6C2" x="68.6" y="189.4" width="400.5" height="86"></rect>
                </g>
                <g transform="translate(183.000000, 19.000000)" fill="#383A48" fill-rule="nonzero" id="Oval">
                    <circle cx="315.9" cy="5.5" r="5.2"></circle>
                    <circle cx="315.9" cy="31.3" r="5.2"></circle>
                    <circle cx="315.9" cy="57.1" r="5.2"></circle>
                    <circle cx="290.1" cy="5.5" r="5.2"></circle>
                    <circle cx="290.1" cy="31.3" r="5.2"></circle>
                    <circle cx="290.1" cy="57.1" r="5.2"></circle>
                    <circle cx="290.1" cy="83" r="5.2"></circle>
                    <circle cx="290.1" cy="108.8" r="5.2"></circle>
                    <circle cx="264.3" cy="5.5" r="5.2"></circle>
                    <circle cx="264.3" cy="31.3" r="5.2"></circle>
                    <circle cx="264.3" cy="57.1" r="5.2"></circle>
                    <circle cx="264.3" cy="83" r="5.2"></circle>
                    <circle cx="264.3" cy="108.8" r="5.2"></circle>
                    <circle cx="264.3" cy="134.7" r="5.2"></circle>
                    <circle cx="238.4" cy="5.5" r="5.2"></circle>
                    <circle cx="238.4" cy="31.3" r="5.2"></circle>
                    <circle cx="238.4" cy="57.1" r="5.2"></circle>
                    <circle cx="238.4" cy="83" r="5.2"></circle>
                    <circle cx="238.4" cy="108.8" r="5.2"></circle>
                    <circle cx="238.4" cy="134.7" r="5.2"></circle>
                    <circle cx="212.6" cy="5.5" r="5.2"></circle>
                    <circle cx="212.6" cy="31.3" r="5.2"></circle>
                    <circle cx="212.6" cy="57.1" r="5.2"></circle>
                    <circle cx="212.6" cy="83" r="5.2"></circle>
                    <circle cx="212.6" cy="108.8" r="5.2"></circle>
                    <circle cx="212.6" cy="134.7" r="5.2"></circle>
                    <circle cx="212.6" cy="160.5" r="5.2"></circle>
                    <circle cx="186.7" cy="5.5" r="5.2"></circle>
                    <circle cx="186.7" cy="31.3" r="5.2"></circle>
                    <circle cx="186.7" cy="57.1" r="5.2"></circle>
                    <circle cx="186.7" cy="83" r="5.2"></circle>
                    <circle cx="186.7" cy="108.8" r="5.2"></circle>
                    <circle cx="186.7" cy="134.7" r="5.2"></circle>
                    <circle cx="186.7" cy="160.5" r="5.2"></circle>
                    <circle cx="186.7" cy="186.3" r="5.2"></circle>
                    <circle cx="160.9" cy="5.5" r="5.2"></circle>
                    <circle cx="160.9" cy="31.3" r="5.2"></circle>
                    <circle cx="160.9" cy="57.1" r="5.2"></circle>
                    <circle cx="160.9" cy="83" r="5.2"></circle>
                    <circle cx="160.9" cy="108.8" r="5.2"></circle>
                    <circle cx="160.9" cy="134.7" r="5.2"></circle>
                    <circle cx="160.9" cy="160.5" r="5.2"></circle>
                    <circle cx="160.9" cy="186.3" r="5.2"></circle>
                    <circle cx="135.1" cy="5.5" r="5.2"></circle>
                    <circle cx="135.1" cy="31.3" r="5.2"></circle>
                    <circle cx="135.1" cy="57.1" r="5.2"></circle>
                    <circle cx="135.1" cy="83" r="5.2"></circle>
                    <circle cx="135.1" cy="108.8" r="5.2"></circle>
                    <circle cx="135.1" cy="134.7" r="5.2"></circle>
                    <circle cx="135.1" cy="160.5" r="5.2"></circle>
                    <circle cx="135.1" cy="186.3" r="5.2"></circle>
                    <circle cx="135.1" cy="212.2" r="5.2"></circle>
                    <circle cx="109.2" cy="5.5" r="5.2"></circle>
                    <circle cx="109.2" cy="31.3" r="5.2"></circle>
                    <circle cx="109.2" cy="57.1" r="5.2"></circle>
                    <circle cx="109.2" cy="83" r="5.2"></circle>
                    <circle cx="109.2" cy="108.8" r="5.2"></circle>
                    <circle cx="109.2" cy="134.7" r="5.2"></circle>
                    <circle cx="109.2" cy="160.5" r="5.2"></circle>
                    <circle cx="109.2" cy="186.3" r="5.2"></circle>
                    <circle cx="109.2" cy="212.2" r="5.2"></circle>
                    <circle cx="83.4" cy="5.5" r="5.2"></circle>
                    <circle cx="83.4" cy="31.3" r="5.2"></circle>
                    <circle cx="83.4" cy="57.1" r="5.2"></circle>
                    <circle cx="83.4" cy="83" r="5.2"></circle>
                    <circle cx="83.4" cy="108.8" r="5.2"></circle>
                    <circle cx="83.4" cy="134.7" r="5.2"></circle>
                    <circle cx="83.4" cy="160.5" r="5.2"></circle>
                    <circle cx="83.4" cy="186.3" r="5.2"></circle>
                    <circle cx="83.4" cy="212.2" r="5.2"></circle>
                    <circle cx="57.6" cy="5.5" r="5.2"></circle>
                    <circle cx="57.6" cy="31.3" r="5.2"></circle>
                    <circle cx="57.6" cy="57.1" r="5.2"></circle>
                    <circle cx="57.6" cy="83" r="5.2"></circle>
                    <circle cx="57.6" cy="108.8" r="5.2"></circle>
                    <circle cx="57.6" cy="134.7" r="5.2"></circle>
                    <circle cx="57.6" cy="160.5" r="5.2"></circle>
                    <circle cx="57.6" cy="186.3" r="5.2"></circle>
                    <circle cx="57.6" cy="212.2" r="5.2"></circle>
                    <circle cx="57.6" cy="238" r="5.2"></circle>
                    <circle cx="31.7" cy="5.5" r="5.2"></circle>
                    <circle cx="31.7" cy="31.3" r="5.2"></circle>
                    <circle cx="31.7" cy="57.1" r="5.2"></circle>
                    <circle cx="31.7" cy="83" r="5.2"></circle>
                    <circle cx="31.7" cy="108.8" r="5.2"></circle>
                    <circle cx="31.7" cy="134.7" r="5.2"></circle>
                    <circle cx="31.7" cy="160.5" r="5.2"></circle>
                    <circle cx="31.7" cy="186.3" r="5.2"></circle>
                    <circle cx="31.7" cy="212.2" r="5.2"></circle>
                    <circle cx="31.7" cy="238" r="5.2"></circle>
                    <circle cx="5.9" cy="5.5" r="5.2"></circle>
                    <circle cx="5.9" cy="31.3" r="5.2"></circle>
                    <circle cx="5.9" cy="57.1" r="5.2"></circle>
                    <circle cx="5.9" cy="83" r="5.2"></circle>
                    <circle cx="5.9" cy="108.8" r="5.2"></circle>
                    <circle cx="5.9" cy="134.7" r="5.2"></circle>
                    <circle cx="5.9" cy="160.5" r="5.2"></circle>
                    <circle cx="5.9" cy="186.3" r="5.2"></circle>
                    <circle cx="5.9" cy="212.2" r="5.2"></circle>
                    <circle cx="5.9" cy="238" r="5.2"></circle>
                </g>
                <path d="M673.1,781.4 C620.6,777.3 577.3,763.9 540.7,740.6 C508.1,719.8 483.7,693.1 460.1,667.3 C437.6,642.7 414.3,617.2 384.2,597.3 C350.3,575 311.2,562.1 264.5,558.1 C213.1,553.6 169.4,540.3 134.7,518.5 C104.1,499.3 81.1,473.3 68.1,443.5 C57.1,418.3 53.3,390.5 57.2,363.2 C61,336 72.2,309.8 89.6,287.6 C118.4,250.6 175.4,231.4 241.4,209.1 C294,191.3 348.5,173 397,142.8 C452.8,108.1 489.9,63.8 510.3,7.3 C510.9,5.8 510.6,4.1 509.7,2.7 C508.8,1.4 507.2,0.6 505.6,0.6 L5.9,0.6 C3.1,0.6 0.9,2.8 0.9,5.6 L0.9,786.4 C0.9,789.2 3.1,791.4 5.9,791.4 L672.6,791.4 C675.3,791.4 677.5,789.3 677.603769,786.6 C677.7,783.9 675.8,781.6 673.1,781.4 Z" id="Path" fill="#F3F6E6" fill-rule="nonzero"></path>
                <path d="M728.6,790.6 C725.8,790.6 723.6,788.4 723.6,785.6 L723.6,232.8 C723.6,230 725.8,227.8 728.6,227.8 C731.4,227.8 733.6,230 733.6,232.8 L733.6,785.5 C733.6,788.3 731.4,790.6 728.6,790.6 Z" id="Path" fill="#383A48" fill-rule="nonzero"></path>
                <g transform="translate(168.000000, 394.000000)" fill-rule="nonzero">
                    <polygon id="Path" fill="#F3F6E6" points="432.2 5.2 391.9 85.2 237.3 391.6 186.9 273.1 66.1 392.4 5.2 322.3 132.7 209.6 5.2 145.8 349 32.6"></polygon>
                    <path d="M66.1,397.4 C66,397.4 66,397.4 65.9,397.4 C64.5,397.3 63.2,396.7 62.3,395.7 L1.4,325.5 C-0.4,323.4 -0.2,320.3 1.9,318.5 L123.8,210.8 L3,150.2 C1.2,149.3 0.1,147.4 0.3,145.4 C0.4,143.4 1.8,141.6 3.7,141 L347.5,27.8 L430.7,0.4 C432.6,-0.2 434.7,0.4 436.1,1.9 C437.4,3.4 437.7,5.6 436.8,7.4 L396.5,87.4 L241.8,393.8 C240.9,395.5 239.2,396.5 237.3,396.5 C237.2,396.5 237.2,396.5 237.1,396.5 C235.2,396.4 233.4,395.3 232.7,393.5 L185.1,281.8 L69.6,396 C68.7,396.9 67.4,397.4 66.1,397.4 Z M12.3,322.7 L66.4,385.1 L183.4,269.5 C184.6,268.3 186.3,267.8 187.9,268.2 C189.5,268.5 190.9,269.6 191.5,271.1 L237.7,379.7 L387.4,82.9 L422.3,13.7 L350.6,37.3 L18.3,146.7 L135,205.1 C136.5,205.8 137.5,207.3 137.7,208.9 C137.9,210.5 137.3,212.2 136.1,213.3 L12.3,322.7 Z" id="Shape" fill="#383A48"></path>
                    <path d="M436,1.9 C434.7,0.4 432.6,-0.2 430.6,0.4 L365.1,22 C363.3,22.6 362,24.1 361.7,25.9 C359.6,38.8 363.9,52 373.1,61.2 C380.3,68.4 390,72.7 400.2,73.1 C400.3,73.1 400.3,73.1 400.4,73.1 C402.3,73.1 404,72 404.9,70.4 L436.7,7.4 C437.6,5.6 437.3,3.4 436,1.9 Z" id="Path" fill="#383A48"></path>
                </g>
                <g transform="translate(706.000000, 445.000000)" fill-rule="nonzero">
                    <g>
                        <ellipse id="Oval" fill="#7FD6C2" transform="translate(98.560270, 89.691390) rotate(-32.337601) translate(-98.560270, -89.691390) " cx="98.56027" cy="89.69139" rx="83.6989127" ry="51.9993245"></ellipse>
                        <path d="M67.6,157.5 C47.5,157.5 32,150.3 23.7,137.2 C15.3,123.9 15.6,106.5 24.5,88.2 C33,70.6 48.5,54.1 68.2,41.6 C87.9,29.1 109.5,22.2 129,22 C129.2,22 129.5,22 129.7,22 C149.8,22 165.3,29.2 173.6,42.3 C182,55.6 181.7,73 172.8,91.3 C164.3,108.9 148.8,125.4 129.1,137.9 C109.4,150.4 87.8,157.3 68.3,157.5 C68.1,157.5 67.8,157.5 67.6,157.5 Z M129.6,32 C129.4,32 129.2,32 129,32 C111.3,32.2 91.6,38.6 73.5,50 C55.4,61.5 41.2,76.6 33.5,92.5 C26.2,107.6 25.7,121.6 32.2,131.8 C38.7,142 51.4,147.6 68.3,147.4 C86,147.2 105.7,140.8 123.8,129.4 C141.9,117.9 156.1,102.8 163.8,86.9 C171.1,71.8 171.6,57.8 165.1,47.6 C158.7,37.5 146.2,32 129.6,32 Z" id="Shape" fill="#383A48"></path>
                    </g>
                    <path d="M27.9,139.5 C26.2,139.5 24.6,138.7 23.7,137.2 C22.2,134.9 22.9,131.8 25.2,130.3 L166.7,40.7 C169,39.2 172.1,39.9 173.6,42.2 C175.1,44.5 174.4,47.6 172.1,49.1 L30.6,138.7 C29.7,139.3 28.8,139.5 27.9,139.5 Z" id="Path" fill="#383A48"></path>
                    <path d="M60.4,118.9 C60.1,118.9 59.9,118.9 59.6,118.8 C56.9,118.4 55,115.8 55.4,113.1 L65.8,44.9 C66.2,42.2 68.8,40.3 71.5,40.7 C74.2,41.1 76.1,43.7 75.7,46.4 L65.3,114.6 C64.9,117.2 62.8,118.9 60.4,118.9 Z" id="Path" fill="#383A48"></path>
                    <path d="M103.9,91.4 C103.6,91.4 103.4,91.4 103.1,91.3 C100.4,90.9 98.5,88.3 98.9,85.6 L107.7,27.9 C108.1,25.2 110.7,23.3 113.4,23.7 C116.1,24.1 118,26.7 117.6,29.4 L108.8,87.1 C108.4,89.6 106.3,91.4 103.9,91.4 Z" id="Path" fill="#383A48"></path>
                    <path d="M126.4,138.7 C125.9,138.7 125.4,138.6 125,138.5 L58.9,118.8 C56.3,118 54.7,115.2 55.5,112.6 C56.3,110 59.1,108.5 61.7,109.2 L127.8,128.9 C130.4,129.7 132,132.5 131.2,135.1 C130.6,137.3 128.6,138.7 126.4,138.7 Z" id="Path" fill="#383A48"></path>
                    <path d="M159.8,108.1 C159.3,108.1 158.8,108 158.4,107.9 L102.4,91.2 C99.8,90.4 98.2,87.6 99,85 C99.8,82.4 102.6,80.8 105.2,81.6 L161.2,98.3 C163.8,99.1 165.4,101.9 164.6,104.5 C164,106.7 162,108.1 159.8,108.1 Z" id="Path" fill="#383A48"></path>
                </g>
                <g transform="translate(553.000000, 446.000000)" fill-rule="nonzero">
                    <g>
                        <ellipse id="Oval" fill="#7FD6C2" transform="translate(99.530280, 88.731380) rotate(-57.662399) translate(-99.530280, -88.731380) " cx="99.53028" cy="88.73138" rx="51.9993245" ry="83.6989127"></ellipse>
                        <path d="M130.6,156.5 C130.4,156.5 130.1,156.5 129.9,156.5 C110.4,156.3 88.8,149.4 69.1,136.9 C49.4,124.4 33.9,107.9 25.4,90.3 C16.5,71.9 16.2,54.5 24.6,41.3 C32.9,28.2 48.5,21 68.5,21 C68.7,21 69,21 69.2,21 C88.7,21.2 110.3,28.1 130,40.6 C149.7,53.1 165.2,69.6 173.7,87.2 C182.6,105.6 182.9,123 174.5,136.2 C166.2,149.3 150.7,156.5 130.6,156.5 Z M68.5,31 C52,31 39.4,36.5 33,46.6 C26.5,56.8 27,70.8 34.3,85.9 C42,101.8 56.2,116.9 74.3,128.4 C92.4,139.9 112.1,146.3 129.8,146.4 C146.6,146.5 159.4,141 165.9,130.8 C172.4,120.6 171.9,106.6 164.6,91.5 C156.9,75.6 142.7,60.5 124.6,49 C106.5,37.5 86.8,31.1 69.1,31 C69,31 68.8,31 68.5,31 Z" id="Shape" fill="#383A48"></path>
                    </g>
                    <path d="M170.3,138.5 C169.4,138.5 168.5,138.2 167.6,137.7 L26.1,48.1 C23.8,46.6 23.1,43.5 24.6,41.2 C26.1,38.9 29.2,38.2 31.5,39.7 L173,129.3 C175.3,130.8 176,133.9 174.5,136.2 C173.6,137.7 172,138.5 170.3,138.5 Z" id="Path" fill="#383A48"></path>
                    <path d="M137.8,117.9 C135.4,117.9 133.2,116.1 132.9,113.7 L122.5,45.5 C122.1,42.8 124,40.2 126.7,39.8 C129.4,39.4 132,41.3 132.4,44 L142.8,112.2 C143.2,114.9 141.3,117.5 138.6,117.9 C138.3,117.9 138.1,117.9 137.8,117.9 Z" id="Path" fill="#383A48"></path>
                    <path d="M94.3,90.4 C91.9,90.4 89.7,88.6 89.4,86.2 L80.6,28.5 C80.2,25.8 82.1,23.2 84.8,22.8 C87.5,22.4 90.1,24.3 90.5,27 L99.3,84.7 C99.7,87.4 97.8,90 95.1,90.4 C94.8,90.4 94.6,90.4 94.3,90.4 Z" id="Path" fill="#383A48"></path>
                    <path d="M71.8,137.7 C69.6,137.7 67.7,136.3 67,134.1 C66.2,131.5 67.7,128.7 70.4,127.9 L136.5,108.2 C139.2,107.4 141.9,108.9 142.7,111.6 C143.5,114.2 142,117 139.3,117.8 L73.2,137.5 C72.7,137.6 72.2,137.7 71.8,137.7 Z" id="Path" fill="#383A48"></path>
                    <path d="M38.4,107.1 C36.2,107.1 34.3,105.7 33.6,103.5 C32.8,100.9 34.3,98.1 37,97.3 L93,80.6 C95.7,79.8 98.4,81.3 99.2,84 C100,86.6 98.5,89.4 95.8,90.2 L39.8,106.9 C39.3,107 38.8,107.1 38.4,107.1 Z" id="Path" fill="#383A48"></path>
                </g>
                <path d="M170.7,456.8 C167.9,456.8 165.7,454.6 165.7,451.8 C165.7,449 167.9,446.8 170.7,446.8 C208.9,446.8 243.8,429.4 280.8,392.1 C314.3,358.3 345.4,312.2 378.2,263.4 C461.1,140.2 555.2,0.6 728.5,0.6 C808.5,0.6 880.7,23 949.3,69.1 C1008.9,109.1 1057.9,161.8 1101.1,208.2 C1164.5,276.4 1219.3,335.2 1286.3,335.2 C1289.1,335.2 1291.3,337.4 1291.3,340.2 C1291.3,343 1289.1,345.2 1286.3,345.2 C1214.9,345.2 1158.8,284.9 1093.8,215 C1051,168.9 1002.4,116.7 943.8,77.4 C876.9,32.5 806.5,10.6 728.6,10.6 C653.7,10.6 587.4,37.8 525.9,93.6 C471.5,143 428.4,207 386.7,268.9 C353.6,318.1 322.3,364.6 288.1,399.1 C249,438.5 211.7,456.8 170.7,456.8 Z" id="Path" fill="#E0719E" fill-rule="nonzero"></path>
                <path d="M951.6,791.4 L170.7,791.4 C167.9,791.4 165.7,789.2 165.7,786.4 L165.7,239.6 C165.7,236.8 167.9,234.6 170.7,234.6 C173.5,234.6 175.7,236.8 175.7,239.6 L175.7,781.4 L951.5,781.4 C954.3,781.4 956.503143,783.6 956.503143,786.4 C956.6,789.2 954.3,791.4 951.6,791.4 Z" id="Path" fill="#383A48" fill-rule="nonzero"></path>
                <g transform="translate(878.000000, 446.000000)" fill-rule="nonzero">
                    <g>
                        <rect id="Rectangle" fill="#F3F6E6" x="5.1" y="5.8" width="526.5" height="334.6"></rect>
                        <path d="M531.6,345.4 L5.1,345.4 C2.3,345.4 0.1,343.2 0.1,340.4 L0.1,5.8 C0.1,3 2.3,0.8 5.1,0.8 L531.6,0.8 C534.4,0.8 536.6,3 536.6,5.8 L536.6,340.4 C536.6,343.2 534.3,345.4 531.6,345.4 Z M10.1,335.4 L526.6,335.4 L526.6,10.8 L10.1,10.8 L10.1,335.4 Z" id="Shape" fill="#383A48"></path>
                    </g>
                    <g>
                        <rect id="Rectangle" fill="#AAC6FC" x="5.1" y="5.8" width="526.5" height="107.2"></rect>
                        <path d="M531.6,117.9 L5.1,117.9 C2.3,117.9 0.1,115.7 0.1,112.9 L0.1,5.8 C0.1,3 2.3,0.8 5.1,0.8 L531.6,0.8 C534.4,0.8 536.6,3 536.6,5.8 L536.6,113 C536.6,115.7 534.3,117.9 531.6,117.9 Z M10.1,107.9 L526.6,107.9 L526.6,10.7 L10.1,10.7 L10.1,107.9 Z" id="Shape" fill="#383A48"></path>
                    </g>
                    <g transform="translate(40.000000, 32.000000)" fill="#383A48" id="Rectangle">
                        <rect x="0.7" y="0.8" width="57.9" height="10"></rect>
                        <rect x="0.7" y="22.4" width="57.9" height="10"></rect>
                        <rect x="0.7" y="43.9" width="57.9" height="10"></rect>
                    </g>
                    <rect id="Rectangle" fill="#7FD6C2" x="68.1" y="189.4" width="400.5" height="86"></rect>
                </g>
                <g transform="translate(422.000000, 254.000000)" fill="#383A48" fill-rule="nonzero" id="Path">
                    <path d="M27.5,123.3 C24.7,123.3 22.5,121.1 22.5,118.3 L22.5,6.6 C22.5,3.8 24.7,1.6 27.5,1.6 C30.3,1.6 32.5,3.8 32.5,6.6 L32.5,118.3 C32.5,121 30.2,123.3 27.5,123.3 Z"></path>
                    <path d="M49.3,38.6 C47.8,38.6 46.3,37.9 45.3,36.6 L27.6,13.4 L9.9,36.6 C8.2,38.8 5.1,39.2 2.9,37.5 C0.7,35.8 0.3,32.7 2,30.5 L23.7,2 C24.6,0.8 26.1,0 27.7,0 L27.7,0 C29.3,0 30.7,0.7 31.7,2 L53.4,30.5 C55.1,32.7 54.6,35.8 52.5,37.5 C51.4,38.3 50.3,38.6 49.3,38.6 Z"></path>
                </g>
                <g transform="translate(978.000000, 166.000000)" fill="#383A48" fill-rule="nonzero" id="Path">
                    <path d="M26.5,105.9 C23.7,105.9 21.5,103.7 21.5,100.9 L21.5,6.6 C21.5,3.8 23.7,1.6 26.5,1.6 C29.3,1.6 31.5,3.8 31.5,6.6 L31.5,100.9 C31.5,103.7 29.3,105.9 26.5,105.9 Z"></path>
                    <path d="M5,38.7 C3.9,38.7 2.9,38.4 2,37.7 C-0.2,36 -0.6,32.9 1.1,30.7 L22.8,2.2 C23.7,1 25.2,0.2 26.8,0.2 L26.8,0.2 C28.4,0.2 29.8,0.9 30.8,2.2 L52.5,30.7 C54.2,32.9 53.7,36 51.6,37.7 C49.4,39.4 46.3,38.9 44.6,36.8 L26.9,13.6 L9.2,36.8 C7.9,38 6.5,38.7 5,38.7 Z"></path>
                </g>
                <path d="M782.7,768.6 C780.7,768.6 778.9,767.4 778.1,765.5 C777,762.9 778.3,760 780.8,759 L812.3,746 C814.9,744.9 817.8,746.2 818.8,748.7 C819.9,751.3 818.6,754.2 816.1,755.2 L784.6,768.2 C784,768.5 783.4,768.6 782.7,768.6 Z" id="Path" fill="#383A48" fill-rule="nonzero"></path>
                <path d="M761.7,742.8 C760.7,742.8 759.7,742.5 758.9,741.9 C756.6,740.3 756.1,737.2 757.6,734.9 L777.1,706.9 C778.7,704.6 781.8,704.1 784.1,705.6 C786.4,707.2 786.9,710.3 785.4,712.6 L765.9,740.6 C764.8,742 763.3,742.8 761.7,742.8 Z" id="Path" fill="#383A48" fill-rule="nonzero"></path>
                <path d="M674.2,768.6 C673.6,768.6 672.9,768.5 672.3,768.2 L640.8,755.2 C638.2,754.1 637,751.2 638.1,748.7 C639.2,746.2 642.1,744.9 644.6,746 L676.1,759 C678.7,760.1 679.9,763 678.8,765.5 C678,767.4 676.1,768.6 674.2,768.6 Z" id="Path" fill="#383A48" fill-rule="nonzero"></path>
                <path d="M695.2,742.8 C693.6,742.8 692.1,742 691.1,740.7 L671.6,712.7 C670,710.4 670.6,707.3 672.9,705.7 C675.2,704.1 678.3,704.7 679.9,707 L699.4,735 C701,737.3 700.4,740.4 698.1,742 C697.2,742.5 696.2,742.8 695.2,742.8 Z" id="Path" fill="#383A48" fill-rule="nonzero"></path>
                <path d="M1478.1,0.6 L1363.4,0.6 C1360.6,0.6 1358.4,2.8 1358.4,5.6 C1358.4,71.6 1412.1,125.3 1478.1,125.3 C1480.9,125.3 1483.1,123.1 1483.1,120.3 L1483.1,5.6 C1483.1,2.8 1480.8,0.6 1478.1,0.6 Z" id="Path" fill="#AAC6FC" fill-rule="nonzero"></path>
                <g transform="translate(542.000000, 84.000000)" fill-rule="nonzero">
                    <g>
                        <g transform="translate(10.000000, 10.000000)">
                            <g transform="translate(171.000000, 0.000000)">
                                <path d="M99.9,68.5 C90.2,91.6 5.6,176.4 5.6,176.4 C5.6,176.4 6.5,56.6 16.1,33.5 C25.8,10.4 52.3,-0.5 75.4,9.1 C98.6,18.8 109.5,45.4 99.9,68.5 Z" id="Path" fill="#7FD6C2"></path>
                                <path d="M5.6,181.4 C5,181.4 4.3,181.3 3.7,181 C1.8,180.2 0.6,178.4 0.6,176.3 C0.6,171.4 1.6,55.3 11.5,31.5 C16.7,19.1 26.4,9.4 38.8,4.3 C51.2,-0.8 64.9,-0.8 77.3,4.4 C89.7,9.6 99.4,19.3 104.5,31.7 C109.6,44.1 109.6,57.8 104.4,70.2 C94.5,94 12.6,176.2 9.1,179.7 C8.2,180.9 6.9,181.4 5.6,181.4 Z M58,10.7 C52.8,10.7 47.6,11.7 42.7,13.7 C32.7,17.8 24.9,25.5 20.8,35.5 C14,51.8 11.4,125.1 10.8,164.1 C38.1,136.2 88.5,82.9 95.3,66.6 L95.3,66.6 C99.5,56.7 99.5,45.7 95.4,35.7 C91.3,25.7 83.6,17.9 73.6,13.8 C68.5,11.7 63.3,10.7 58,10.7 Z" id="Shape" fill="#383A48"></path>
                            </g>
                            <g transform="translate(171.000000, 74.000000)">
                                <path d="M148.5,92.8 C125.3,102.3 5.6,102.4 5.6,102.4 C5.6,102.4 90.9,18.3 114.1,8.8 C137.3,-0.7 163.8,10.4 173.3,33.5 C182.8,56.8 171.7,83.3 148.5,92.8 Z" id="Path" fill="#7FD6C2"></path>
                                <path d="M5.6,107.4 C3.6,107.4 1.7,106.2 1,104.3 C0.2,102.4 0.7,100.3 2.1,98.8 C5.6,95.3 88.4,13.9 112.2,4.2 C137.9,-6.3 167.4,6 177.9,31.7 C188.4,57.4 176.1,86.9 150.4,97.4 L150.4,97.4 C126.6,107.2 10.5,107.4 5.6,107.4 L5.6,107.4 Z M131.2,10.5 C126.1,10.5 120.9,11.5 115.9,13.5 C99.6,20.2 45.9,70.2 17.9,97.4 C56.9,97 130.3,94.9 146.6,88.2 C167.2,79.7 177.1,56.1 168.6,35.5 C162.2,19.9 147.1,10.5 131.2,10.5 Z" id="Shape" fill="#383A48"></path>
                            </g>
                            <g transform="translate(171.000000, 171.000000)">
                                <path d="M113.5,99.7 C90.4,90 5.6,5.4 5.6,5.4 C5.6,5.4 125.4,6.3 148.5,15.9 C171.6,25.6 182.5,52.1 172.9,75.2 C163.3,98.3 136.6,109.3 113.5,99.7 Z" id="Path" fill="#7FD6C2"></path>
                                <path d="M131,108.2 C124.4,108.2 117.8,106.9 111.6,104.3 L111.6,104.3 C87.8,94.4 5.6,12.5 2.1,9 C0.7,7.6 0.2,5.4 1,3.5 C1.8,1.6 3.6,0.4 5.6,0.4 L5.6,0.4 C10.5,0.4 126.6,1.4 150.4,11.3 C162.8,16.5 172.5,26.2 177.6,38.6 C182.7,51 182.7,64.7 177.5,77.1 C172.3,89.5 162.6,99.2 150.2,104.3 C143.9,106.9 137.4,108.2 131,108.2 Z M17.9,10.6 C45.8,37.9 99.1,88.3 115.4,95.1 L115.4,95.1 C125.3,99.3 136.3,99.3 146.3,95.2 C156.3,91.1 164.1,83.4 168.2,73.4 C172.4,63.5 172.4,52.5 168.3,42.5 C164.2,32.5 156.5,24.7 146.5,20.6 C130.3,13.8 56.9,11.2 17.9,10.6 Z" id="Shape" fill="#383A48"></path>
                            </g>
                            <g transform="translate(171.000000, 171.000000)">
                                <path d="M15.2,148.3 C5.7,125.1 5.6,5.4 5.6,5.4 C5.6,5.4 89.7,90.7 99.2,113.9 C108.7,137.1 97.6,163.6 74.5,173.1 C51.4,182.6 24.7,171.5 15.2,148.3 Z" id="Path" fill="#7FD6C2"></path>
                                <path d="M57.2,181.5 C50.6,181.5 44,180.2 37.8,177.6 C25.4,172.4 15.7,162.7 10.6,150.3 L10.6,150.3 C0.8,126.5 0.6,10.4 0.6,5.5 C0.6,3.5 1.8,1.6 3.7,0.9 C5.6,0.1 7.7,0.6 9.2,2 C12.7,5.5 94.1,88.3 103.8,112.1 C114.3,137.8 102,167.3 76.3,177.8 C70.1,180.2 63.7,181.5 57.2,181.5 Z M10.7,17.8 C11.1,56.8 13.2,130.2 19.9,146.5 L19.9,146.5 C24,156.5 31.7,164.3 41.7,168.4 C51.7,172.6 62.6,172.6 72.6,168.5 C93.2,160 103.1,136.4 94.6,115.8 C87.8,99.5 37.8,45.8 10.7,17.8 Z" id="Shape" fill="#383A48"></path>
                            </g>
                            <g transform="translate(73.000000, 171.000000)">
                                <path d="M9.3,113.3 C19,90.2 103.6,5.4 103.6,5.4 C103.6,5.4 102.7,125.2 93.1,148.3 C83.4,171.4 56.9,182.3 33.8,172.7 C10.6,163 -0.3,136.4 9.3,113.3 Z" id="Path" fill="#7FD6C2"></path>
                                <path d="M51.2,181.2 C44.6,181.2 38,179.9 31.8,177.3 C19.4,172.1 9.7,162.4 4.6,150 C-0.5,137.6 -0.5,123.9 4.7,111.5 C14.6,87.7 96.5,5.5 100,2 C101.4,0.6 103.6,0.1 105.5,0.9 C107.4,1.7 108.6,3.5 108.6,5.6 C108.6,10.5 107.6,126.6 97.7,150.4 C92.5,162.8 82.8,172.5 70.4,177.6 C64.1,179.9 57.7,181.2 51.2,181.2 Z M98.4,17.7 C71.1,45.6 20.7,98.9 13.9,115.2 L13.9,115.2 C5.3,135.7 15,159.4 35.6,168 C45.5,172.2 56.5,172.2 66.5,168.1 C76.5,164 84.3,156.3 88.4,146.3 C95.2,130.1 97.8,56.8 98.4,17.7 Z" id="Shape" fill="#383A48"></path>
                            </g>
                            <g transform="translate(0.000000, 171.000000)">
                                <path d="M33.7,15 C56.9,5.5 176.6,5.4 176.6,5.4 C176.6,5.4 91.3,89.5 68.1,99 C44.9,108.5 18.4,97.4 8.9,74.3 C-0.6,51.1 10.5,24.6 33.7,15 Z" id="Path" fill="#7FD6C2"></path>
                                <path d="M50.9,107.4 C44.3,107.4 37.7,106.1 31.5,103.5 C19.1,98.3 9.4,88.6 4.3,76.2 C-6.2,50.5 6.1,21 31.8,10.5 L31.8,10.5 C55.6,0.7 171.7,0.5 176.6,0.5 L176.6,0.5 C178.6,0.5 180.5,1.7 181.2,3.6 C182,5.5 181.5,7.6 180.1,9.1 C176.6,12.6 93.8,94 70,103.7 C63.8,106.1 57.4,107.4 50.9,107.4 Z M35.6,19.7 C15,28.2 5.1,51.8 13.6,72.4 C17.7,82.4 25.4,90.2 35.4,94.3 C45.3,98.5 56.3,98.5 66.3,94.4 C82.6,87.7 136.3,37.7 164.3,10.5 C125.2,10.9 51.9,13 35.6,19.7 L35.6,19.7 Z" id="Shape" fill="#383A48"></path>
                            </g>
                            <g transform="translate(0.000000, 73.000000)">
                                <path d="M68.7,9.2 C91.8,18.9 176.6,103.5 176.6,103.5 C176.6,103.5 56.8,102.6 33.7,93 C10.6,83.3 -0.3,56.8 9.3,33.7 C19,10.4 45.6,-0.5 68.7,9.2 Z" id="Path" fill="#7FD6C2"></path>
                                <path d="M176.6,108.4 L176.6,108.4 C171.6,108.4 55.6,107.4 31.8,97.5 C6.2,86.8 -6,57.2 4.8,31.6 C10,19.2 19.7,9.5 32.1,4.4 C44.5,-0.7 58.2,-0.7 70.6,4.5 L70.6,4.5 C94.4,14.4 176.6,96.3 180.1,99.8 C181.5,101.2 182,103.4 181.2,105.3 C180.4,107.2 178.6,108.4 176.6,108.4 Z M51.2,10.6 C46,10.6 40.8,11.6 35.9,13.6 C25.9,17.7 18.1,25.4 14,35.4 C5.4,55.9 15.1,79.6 35.7,88.2 C52,95 125.3,97.6 164.3,98.2 C136.4,70.9 83.1,20.5 66.8,13.7 L66.8,13.7 C61.8,11.7 56.5,10.6 51.2,10.6 Z" id="Shape" fill="#383A48"></path>
                            </g>
                            <g transform="translate(74.000000, 0.000000)">
                                <path d="M93,33.5 C102.5,56.7 102.6,176.4 102.6,176.4 C102.6,176.4 18.5,91.1 9,67.9 C-0.5,44.7 10.6,18.2 33.7,8.7 C56.9,-0.8 83.5,10.3 93,33.5 Z" id="Path" fill="#7FD6C2"></path>
                                <path d="M102.6,181.4 C101.3,181.4 100,180.9 99,179.9 C95.5,176.4 14.1,93.6 4.4,69.8 C-0.7,57.4 -0.7,43.7 4.5,31.3 C9.7,18.9 19.4,9.2 31.8,4.1 C44.2,-1 57.9,-1 70.3,4.2 C82.7,9.4 92.4,19.1 97.5,31.5 L97.5,31.5 C107.3,55.3 107.5,171.4 107.5,176.3 C107.5,178.3 106.3,180.2 104.4,180.9 C103.9,181.3 103.2,181.4 102.6,181.4 Z M51,10.3 C45.8,10.3 40.6,11.3 35.7,13.3 C25.7,17.4 17.9,25.1 13.8,35.1 C9.7,45.1 9.6,56 13.7,66 C20.4,82.3 70.4,136 97.6,164 C97.2,125 95.1,51.6 88.4,35.3 C84.3,25.3 76.6,17.5 66.6,13.4 C61.5,11.4 56.3,10.3 51,10.3 Z" id="Shape" fill="#383A48"></path>
                            </g>
                        </g>
                        <g>
                            <g transform="translate(136.000000, 0.000000)">
                                <path d="M96,50.5 C96,75.6 50.6,186.4 50.6,186.4 C50.6,186.4 5.2,75.6 5.2,50.5 C5.2,25.4 25.5,5.1 50.6,5.1 C75.7,5.1 96,25.5 96,50.5 Z" id="Path" fill="#F3F6E6"></path>
                                <path d="M50.6,191.4 C48.6,191.4 46.7,190.2 46,188.3 C44.1,183.7 0.3,76.3 0.3,50.5 C0.3,22.7 22.9,0.1 50.7,0.1 C78.5,0.1 101.1,22.7 101.1,50.5 C101.1,76.2 57.2,183.7 55.4,188.3 C54.5,190.2 52.6,191.4 50.6,191.4 Z M50.6,10.2 C28.3,10.2 10.2,28.3 10.2,50.6 C10.2,68.2 36.1,136.9 50.6,173.1 C65,136.8 91,68.2 91,50.5 C91,28.3 72.9,10.2 50.6,10.2 Z" id="Shape" fill="#383A48"></path>
                            </g>
                            <g transform="translate(181.000000, 39.000000)">
                                <path d="M133.8,83.4 C116.1,101.1 5.6,147.4 5.6,147.4 C5.6,147.4 51.9,37 69.6,19.2 C87.3,1.5 116,1.5 133.8,19.2 C151.6,36.9 151.5,65.7 133.8,83.4 Z" id="Path" fill="#F3F6E6"></path>
                                <path d="M5.6,152.4 C4.3,152.4 3,151.9 2.1,150.9 C0.7,149.5 0.2,147.3 1,145.4 C1.1,145.1 12.8,117.4 26.4,87.8 C44.9,47.7 58.3,23.4 66.1,15.6 C85.7,-4 117.7,-4 137.3,15.6 C156.9,35.2 156.9,67.2 137.3,86.8 C129.5,94.6 105.3,107.9 65.1,126.4 C35.5,140.1 7.8,151.7 7.5,151.8 C6.9,152.3 6.2,152.4 5.6,152.4 Z M101.7,11 C91.4,11 81,14.9 73.2,22.8 C60.7,35.3 30.5,102.1 15.1,138 C50.9,122.6 117.8,92.4 130.3,79.9 C146,64.2 146,38.6 130.3,22.8 C122.4,14.9 112,11 101.7,11 Z" id="Shape" fill="#383A48"></path>
                            </g>
                            <g transform="translate(181.000000, 136.000000)">
                                <path d="M141.5,95.8 C116.4,95.8 5.6,50.4 5.6,50.4 C5.6,50.4 116.4,5 141.5,5 C166.6,5 186.9,25.3 186.9,50.4 C186.9,75.5 166.5,95.8 141.5,95.8 Z" id="Path" fill="#F3F6E6"></path>
                                <path d="M141.5,100.8 C115.8,100.8 8.3,56.9 3.7,55.1 C1.8,54.3 0.6,52.5 0.6,50.5 C0.6,48.5 1.8,46.6 3.7,45.9 C8.3,44 115.7,0.2 141.5,0.2 C169.3,0.2 191.9,22.8 191.9,50.6 C191.9,78.4 169.2,100.8 141.5,100.8 Z M19,50.4 C55.2,64.9 123.9,90.8 141.5,90.8 C163.8,90.8 181.9,72.7 181.9,50.4 C181.9,28.1 163.8,10 141.5,10 C123.8,10.1 55.2,36 19,50.4 Z" id="Shape" fill="#383A48"></path>
                            </g>
                            <g transform="translate(181.000000, 181.000000)">
                                <path d="M69.6,133.6 C51.9,115.9 5.6,5.4 5.6,5.4 C5.6,5.4 116,51.7 133.8,69.4 C151.6,87.1 151.5,115.8 133.8,133.6 C116.1,151.4 87.3,151.3 69.6,133.6 Z" id="Path" fill="#F3F6E6"></path>
                                <path d="M101.7,151.8 C88.8,151.8 75.9,146.9 66.1,137.1 C58.3,129.3 45,105.1 26.4,64.9 C12.7,35.3 1.1,7.6 1,7.3 C0.2,5.4 0.6,3.3 2.1,1.8 C3.5,0.4 5.7,-0.1 7.6,0.7 C7.9,0.8 35.6,12.5 65.2,26.1 C105.3,44.6 129.6,58 137.4,65.7 C157,85.3 157,117.3 137.4,136.9 C127.5,146.9 114.6,151.8 101.7,151.8 Z M15,14.9 C30.4,50.7 60.6,117.6 73.1,130.1 C88.8,145.8 114.4,145.8 130.2,130.1 C145.9,114.4 145.9,88.8 130.2,73 C117.7,60.5 50.9,30.3 15,14.9 Z" id="Shape" fill="#383A48"></path>
                            </g>
                            <g transform="translate(136.000000, 181.000000)">
                                <path d="M5.2,141.3 C5.2,116.2 50.6,5.4 50.6,5.4 C50.6,5.4 96,116.2 96,141.3 C96,166.4 75.7,186.7 50.6,186.7 C25.5,186.7 5.2,166.4 5.2,141.3 Z" id="Path" fill="#F3F6E6"></path>
                                <path d="M50.6,191.7 C22.8,191.7 0.2,169.1 0.2,141.3 C0.2,115.6 44.1,8.1 45.9,3.5 C46.7,1.6 48.5,0.4 50.5,0.4 C52.5,0.4 54.4,1.6 55.1,3.5 C57,8.1 100.8,115.5 100.8,141.3 C101,169.1 78.4,191.7 50.6,191.7 Z M50.6,18.8 C36.1,55 10.2,123.7 10.2,141.3 C10.2,163.6 28.3,181.7 50.6,181.7 C72.9,181.7 91,163.6 91,141.3 C91,123.7 65,55 50.6,18.8 Z" id="Shape" fill="#383A48"></path>
                            </g>
                            <g transform="translate(40.000000, 181.000000)">
                                <path d="M18.4,69.4 C36.1,51.7 146.6,5.4 146.6,5.4 C146.6,5.4 100.3,115.8 82.6,133.6 C64.9,151.4 36.2,151.3 18.4,133.6 C0.6,115.9 0.7,87.1 18.4,69.4 Z" id="Path" fill="#F3F6E6"></path>
                                <path d="M50.5,151.8 C37.6,151.8 24.7,146.9 14.9,137.1 C-4.7,117.5 -4.7,85.5 14.9,65.9 C22.7,58.1 46.9,44.8 87.1,26.3 C116.7,12.6 144.4,1 144.7,0.9 C146.6,0.1 148.7,0.5 150.2,2 C151.6,3.4 152.1,5.6 151.3,7.5 C151.2,7.8 139.5,35.5 125.9,65.1 C107.4,105.2 94,129.5 86.3,137.3 C76.3,146.9 63.4,151.8 50.5,151.8 Z M137.1,14.9 C101.3,30.3 34.4,60.5 22,73 C6.3,88.7 6.3,114.3 22,130.1 C37.7,145.8 63.3,145.8 79.1,130.1 C91.5,117.6 121.7,50.7 137.1,14.9 Z" id="Shape" fill="#383A48"></path>
                            </g>
                            <g transform="translate(0.000000, 136.000000)">
                                <path d="M50.7,5.1 C75.8,5.1 186.6,50.5 186.6,50.5 C186.6,50.5 75.8,95.9 50.7,95.9 C25.6,95.9 5.3,75.6 5.3,50.5 C5.3,25.4 25.7,5.1 50.7,5.1 Z" id="Path" fill="#F3F6E6"></path>
                                <path d="M50.7,100.8 C22.9,100.8 0.3,78.2 0.3,50.4 C0.3,22.6 22.9,5.68434189e-14 50.7,5.68434189e-14 C76.4,5.68434189e-14 183.9,43.9 188.5,45.7 C190.4,46.5 191.6,48.3 191.6,50.3 C191.6,52.3 190.4,54.2 188.5,54.9 C183.9,56.9 76.5,100.8 50.7,100.8 Z M50.7,10.1 C28.4,10.1 10.3,28.2 10.3,50.5 C10.3,72.8 28.4,90.9 50.7,90.9 C68.3,90.9 137,65 173.2,50.5 C137,36 68.3,10.1 50.7,10.1 Z" id="Shape" fill="#383A48"></path>
                            </g>
                            <g transform="translate(40.000000, 40.000000)">
                                <path d="M82.6,18.3 C100.3,36 146.6,146.5 146.6,146.5 C146.6,146.5 36.2,100.2 18.4,82.5 C0.6,64.8 0.7,36.1 18.4,18.3 C36.1,0.5 64.9,0.5 82.6,18.3 Z" id="Path" fill="#F3F6E6"></path>
                                <path d="M146.6,151.4 C145.9,151.4 145.3,151.3 144.7,151 C144.4,150.9 116.7,139.2 87.1,125.6 C47,107.1 22.7,93.7 14.9,86 C-4.7,66.4 -4.7,34.4 14.9,14.8 C34.5,-4.8 66.5,-4.8 86.1,14.8 C93.9,22.6 107.2,46.8 125.7,87 C139.4,116.6 151,144.3 151.1,144.6 C151.9,146.5 151.5,148.6 150,150.1 C149.2,150.9 147.9,151.4 146.6,151.4 Z M50.5,10 C40.2,10 29.8,13.9 22,21.8 C6.3,37.5 6.3,63.1 22,78.9 C34.5,91.4 101.3,121.6 137.2,137 C121.8,101.2 91.6,34.3 79.1,21.8 C71.2,13.9 60.8,10 50.5,10 Z" id="Shape" fill="#383A48"></path>
                            </g>
                        </g>
                    </g>
                    <g transform="translate(91.000000, 90.000000)">
                        <g>
                            <circle id="Oval" fill="#F6E049" cx="95.6" cy="96.4" r="90.6"></circle>
                            <path d="M95.6,192 C42.9,192 0,149.1 0,96.4 C0,43.7 42.9,0.8 95.6,0.8 C148.3,0.8 191.2,43.7 191.2,96.4 C191.2,149.1 148.3,192 95.6,192 Z M95.6,10.8 C48.4,10.8 10,49.2 10,96.4 C10,143.6 48.4,182 95.6,182 C142.8,182 181.2,143.6 181.2,96.4 C181.2,49.2 142.8,10.8 95.6,10.8 Z" id="Shape" fill="#383A48"></path>
                        </g>
                        <circle id="Oval" fill="#383A48" cx="66.6" cy="83.2" r="9.7"></circle>
                        <circle id="Oval" fill="#383A48" cx="124.6" cy="83.2" r="9.7"></circle>
                        <path d="M95.6,138.5 C81.2,138.5 67.9,130 61.9,116.9 C60.7,114.4 61.9,111.4 64.4,110.3 C66.9,109.1 69.9,110.3 71,112.8 C75.4,122.4 85.1,128.6 95.6,128.6 C106.2,128.6 115.8,122.4 120.2,112.8 C121.4,110.3 124.3,109.2 126.8,110.3 C129.3,111.5 130.4,114.4 129.3,116.9 C123.3,130 110,138.5 95.6,138.5 Z" id="Path" fill="#383A48"></path>
                    </g>
                </g>
                <g transform="translate(1351.000000, 300.000000)">
                    <g transform="translate(0.000000, 11.000000)">
                        <line x1="0.1" y1="5.6" x2="33" y2="5.6" id="Path"></line>
                        <rect id="Rectangle" fill="#383A48" fill-rule="nonzero" x="0.1" y="0.6" width="33" height="10"></rect>
                    </g>
                    <g transform="translate(11.000000, 0.000000)">
                        <line x1="5.6" y1="33.1" x2="5.6" y2="0.1" id="Path"></line>
                        <rect id="Rectangle" fill="#383A48" fill-rule="nonzero" x="0.6" y="0.1" width="10" height="33"></rect>
                    </g>
                </g>
                <g transform="translate(59.000000, 650.000000)">
                    <g transform="translate(0.000000, 11.000000)">
                        <line x1="0.6" y1="5.9" x2="33.5" y2="5.9" id="Path"></line>
                        <rect id="Rectangle" fill="#383A48" fill-rule="nonzero" x="0.6" y="0.9" width="33" height="10"></rect>
                    </g>
                    <g transform="translate(12.000000, 0.000000)">
                        <line x1="5" y1="33.4" x2="5" y2="0.4" id="Path"></line>
                        <rect id="Rectangle" fill="#383A48" fill-rule="nonzero" x="0" y="0.4" width="10" height="33"></rect>
                    </g>
                </g>
                <g transform="translate(194.000000, 72.000000)">
                    <g transform="translate(0.000000, 12.000000)">
                        <line x1="0.9" y1="5.2" x2="33.9" y2="5.2" id="Path"></line>
                        <rect id="Rectangle" fill="#383A48" fill-rule="nonzero" x="0.9" y="0.2" width="33" height="10"></rect>
                    </g>
                    <g transform="translate(12.000000, 0.000000)">
                        <line x1="5.4" y1="33.6" x2="5.4" y2="0.7" id="Path"></line>
                        <rect id="Rectangle" fill="#383A48" fill-rule="nonzero" x="0.4" y="0.7" width="10" height="33"></rect>
                    </g>
                </g>
            </g>
        </g>
    </g>
</svg>