<?xml version="1.0" encoding="utf-8"?>
<!-- Generator: Adobe Illustrator 22.0.1, SVG Export Plug-In . SVG Version: 6.00 Build 0)  -->
<svg version="1.1" id="Layer_1" xmlns="http://www.w3.org/2000/svg" xmlns:xlink="http://www.w3.org/1999/xlink" x="0px" y="0px" viewBox="0 0 1920 1080" style="enable-background:new 0 0 1920 1080;" xml:space="preserve">

<rect y="0" width="1920" height="1080" style="fill:#AAC6FC;"/>
<g>
	<g>
		<g>
			<g>
				<g>
					<g>
						<circle cx="1367.5" cy="458.6" r="4.7" style="fill:#383A48;"/>
					</g>
				</g>
				<g>
					<g>
						<circle cx="1367.5" cy="500" r="4.7" style="fill:#383A48;"/>
					</g>
				</g>
				<g>
					<g>
						<circle cx="1367.5" cy="541.5" r="4.7" style="fill:#383A48;"/>
					</g>
				</g>
				<g>
					<g>
						<circle cx="1367.5" cy="582.9" r="4.7" style="fill:#383A48;"/>
					</g>
				</g>
				<g>
					<g>
						<circle cx="1367.5" cy="624.4" r="4.7" style="fill:#383A48;"/>
					</g>
				</g>
				<g>
					<g>
						<circle cx="1326.1" cy="375.7" r="4.7" style="fill:#383A48;"/>
					</g>
				</g>
				<g>
					<g>
						<circle cx="1326.1" cy="417.1" r="4.7" style="fill:#383A48;"/>
					</g>
				</g>
				<g>
					<g>
						<circle cx="1326.1" cy="458.6" r="4.7" style="fill:#383A48;"/>
					</g>
				</g>
				<g>
					<g>
						<circle cx="1326.1" cy="500" r="4.7" style="fill:#383A48;"/>
					</g>
				</g>
				<g>
					<g>
						<circle cx="1326.1" cy="541.5" r="4.7" style="fill:#383A48;"/>
					</g>
				</g>
				<g>
					<g>
						<circle cx="1326.1" cy="582.9" r="4.7" style="fill:#383A48;"/>
					</g>
				</g>
				<g>
					<g>
						<circle cx="1326.1" cy="624.4" r="4.7" style="fill:#383A48;"/>
					</g>
				</g>
				<g>
					<g>
						<circle cx="1326.1" cy="665.8" r="4.7" style="fill:#383A48;"/>
					</g>
				</g>
				<g>
					<g>
						<circle cx="1326.1" cy="707.2" r="4.7" style="fill:#383A48;"/>
					</g>
				</g>
				<g>
					<g>
						<circle cx="1284.6" cy="292.8" r="4.7" style="fill:#383A48;"/>
					</g>
				</g>
				<g>
					<g>
						<circle cx="1284.6" cy="334.3" r="4.7" style="fill:#383A48;"/>
					</g>
				</g>
				<g>
					<g>
						<circle cx="1284.6" cy="375.7" r="4.7" style="fill:#383A48;"/>
					</g>
				</g>
				<g>
					<g>
						<circle cx="1284.6" cy="417.1" r="4.7" style="fill:#383A48;"/>
					</g>
				</g>
				<g>
					<g>
						<circle cx="1284.6" cy="458.6" r="4.7" style="fill:#383A48;"/>
					</g>
				</g>
				<g>
					<g>
						<circle cx="1284.6" cy="500" r="4.7" style="fill:#383A48;"/>
					</g>
				</g>
				<g>
					<g>
						<circle cx="1284.6" cy="541.5" r="4.7" style="fill:#383A48;"/>
					</g>
				</g>
				<g>
					<g>
						<circle cx="1284.6" cy="582.9" r="4.7" style="fill:#383A48;"/>
					</g>
				</g>
				<g>
					<g>
						<circle cx="1284.6" cy="624.4" r="4.7" style="fill:#383A48;"/>
					</g>
				</g>
				<g>
					<g>
						<circle cx="1284.6" cy="665.8" r="4.7" style="fill:#383A48;"/>
					</g>
				</g>
				<g>
					<g>
						<circle cx="1284.6" cy="707.2" r="4.7" style="fill:#383A48;"/>
					</g>
				</g>
				<g>
					<g>
						<circle cx="1284.6" cy="748.7" r="4.7" style="fill:#383A48;"/>
					</g>
				</g>
				<g>
					<g>
						<circle cx="1284.6" cy="790.1" r="4.7" style="fill:#383A48;"/>
					</g>
				</g>
				<g>
					<g>
						<circle cx="1243.2" cy="251.4" r="4.7" style="fill:#383A48;"/>
					</g>
				</g>
				<g>
					<g>
						<circle cx="1243.2" cy="292.8" r="4.7" style="fill:#383A48;"/>
					</g>
				</g>
				<g>
					<g>
						<circle cx="1243.2" cy="334.3" r="4.7" style="fill:#383A48;"/>
					</g>
				</g>
				<g>
					<g>
						<circle cx="1243.2" cy="375.7" r="4.7" style="fill:#383A48;"/>
					</g>
				</g>
				<g>
					<g>
						<circle cx="1243.2" cy="417.1" r="4.7" style="fill:#383A48;"/>
					</g>
				</g>
				<g>
					<g>
						<circle cx="1243.2" cy="458.6" r="4.7" style="fill:#383A48;"/>
					</g>
				</g>
				<g>
					<g>
						<circle cx="1243.2" cy="500" r="4.7" style="fill:#383A48;"/>
					</g>
				</g>
				<g>
					<g>
						<circle cx="1243.2" cy="541.5" r="4.7" style="fill:#383A48;"/>
					</g>
				</g>
				<g>
					<g>
						<circle cx="1243.2" cy="582.9" r="4.7" style="fill:#383A48;"/>
					</g>
				</g>
				<g>
					<g>
						<circle cx="1243.2" cy="624.4" r="4.7" style="fill:#383A48;"/>
					</g>
				</g>
				<g>
					<g>
						<circle cx="1243.2" cy="665.8" r="4.7" style="fill:#383A48;"/>
					</g>
				</g>
				<g>
					<g>
						<circle cx="1243.2" cy="707.2" r="4.7" style="fill:#383A48;"/>
					</g>
				</g>
				<g>
					<g>
						<circle cx="1243.2" cy="748.7" r="4.7" style="fill:#383A48;"/>
					</g>
				</g>
				<g>
					<g>
						<circle cx="1243.2" cy="790.1" r="4.7" style="fill:#383A48;"/>
					</g>
				</g>
				<g>
					<g>
						<circle cx="1201.7" cy="251.4" r="4.7" style="fill:#383A48;"/>
					</g>
				</g>
				<g>
					<g>
						<circle cx="1201.7" cy="292.8" r="4.7" style="fill:#383A48;"/>
					</g>
				</g>
				<g>
					<g>
						<circle cx="1201.7" cy="334.3" r="4.7" style="fill:#383A48;"/>
					</g>
				</g>
				<g>
					<g>
						<circle cx="1201.7" cy="375.7" r="4.7" style="fill:#383A48;"/>
					</g>
				</g>
				<g>
					<g>
						<circle cx="1201.7" cy="417.1" r="4.7" style="fill:#383A48;"/>
					</g>
				</g>
				<g>
					<g>
						<circle cx="1201.7" cy="458.6" r="4.7" style="fill:#383A48;"/>
					</g>
				</g>
				<g>
					<g>
						<circle cx="1201.7" cy="500" r="4.7" style="fill:#383A48;"/>
					</g>
				</g>
				<g>
					<g>
						<circle cx="1201.7" cy="541.5" r="4.7" style="fill:#383A48;"/>
					</g>
				</g>
				<g>
					<g>
						<circle cx="1201.7" cy="582.9" r="4.7" style="fill:#383A48;"/>
					</g>
				</g>
				<g>
					<g>
						<circle cx="1201.7" cy="624.4" r="4.7" style="fill:#383A48;"/>
					</g>
				</g>
				<g>
					<g>
						<circle cx="1201.7" cy="665.8" r="4.7" style="fill:#383A48;"/>
					</g>
				</g>
				<g>
					<g>
						<circle cx="1201.7" cy="707.2" r="4.7" style="fill:#383A48;"/>
					</g>
				</g>
				<g>
					<g>
						<circle cx="1201.7" cy="748.7" r="4.7" style="fill:#383A48;"/>
					</g>
				</g>
				<g>
					<g>
						<circle cx="1201.7" cy="790.1" r="4.7" style="fill:#383A48;"/>
					</g>
				</g>
				<g>
					<g>
						<circle cx="1201.7" cy="831.6" r="4.7" style="fill:#383A48;"/>
					</g>
				</g>
				<g>
					<g>
						<circle cx="1160.3" cy="209.9" r="4.7" style="fill:#383A48;"/>
					</g>
				</g>
				<g>
					<g>
						<circle cx="1160.3" cy="251.4" r="4.7" style="fill:#383A48;"/>
					</g>
				</g>
				<g>
					<g>
						<circle cx="1160.3" cy="292.8" r="4.7" style="fill:#383A48;"/>
					</g>
				</g>
				<g>
					<g>
						<circle cx="1160.3" cy="334.3" r="4.7" style="fill:#383A48;"/>
					</g>
				</g>
				<g>
					<g>
						<circle cx="1160.3" cy="375.7" r="4.7" style="fill:#383A48;"/>
					</g>
				</g>
				<g>
					<g>
						<circle cx="1160.3" cy="417.1" r="4.7" style="fill:#383A48;"/>
					</g>
				</g>
				<g>
					<g>
						<circle cx="1160.3" cy="458.6" r="4.7" style="fill:#383A48;"/>
					</g>
				</g>
				<g>
					<g>
						<circle cx="1160.3" cy="500" r="4.7" style="fill:#383A48;"/>
					</g>
				</g>
				<g>
					<g>
						<circle cx="1160.3" cy="541.5" r="4.7" style="fill:#383A48;"/>
					</g>
				</g>
				<g>
					<g>
						<circle cx="1160.3" cy="582.9" r="4.7" style="fill:#383A48;"/>
					</g>
				</g>
				<g>
					<g>
						<circle cx="1160.3" cy="624.4" r="4.7" style="fill:#383A48;"/>
					</g>
				</g>
				<g>
					<g>
						<circle cx="1160.3" cy="665.8" r="4.7" style="fill:#383A48;"/>
					</g>
				</g>
				<g>
					<g>
						<circle cx="1160.3" cy="707.2" r="4.7" style="fill:#383A48;"/>
					</g>
				</g>
				<g>
					<g>
						<circle cx="1160.3" cy="748.7" r="4.7" style="fill:#383A48;"/>
					</g>
				</g>
				<g>
					<g>
						<circle cx="1160.3" cy="790.1" r="4.7" style="fill:#383A48;"/>
					</g>
				</g>
				<g>
					<g>
						<circle cx="1160.3" cy="831.6" r="4.7" style="fill:#383A48;"/>
					</g>
				</g>
				<g>
					<g>
						<circle cx="1160.3" cy="873" r="4.7" style="fill:#383A48;"/>
					</g>
				</g>
				<g>
					<g>
						<circle cx="1118.8" cy="209.9" r="4.7" style="fill:#383A48;"/>
					</g>
				</g>
				<g>
					<g>
						<circle cx="1118.8" cy="251.4" r="4.7" style="fill:#383A48;"/>
					</g>
				</g>
				<g>
					<g>
						<circle cx="1118.8" cy="292.8" r="4.7" style="fill:#383A48;"/>
					</g>
				</g>
				<g>
					<g>
						<circle cx="1118.8" cy="334.3" r="4.7" style="fill:#383A48;"/>
					</g>
				</g>
				<g>
					<g>
						<circle cx="1118.8" cy="375.7" r="4.7" style="fill:#383A48;"/>
					</g>
				</g>
				<g>
					<g>
						<circle cx="1118.8" cy="417.1" r="4.7" style="fill:#383A48;"/>
					</g>
				</g>
				<g>
					<g>
						<circle cx="1118.8" cy="458.6" r="4.7" style="fill:#383A48;"/>
					</g>
				</g>
				<g>
					<g>
						<circle cx="1118.8" cy="500" r="4.7" style="fill:#383A48;"/>
					</g>
				</g>
				<g>
					<g>
						<circle cx="1118.8" cy="541.5" r="4.7" style="fill:#383A48;"/>
					</g>
				</g>
				<g>
					<g>
						<circle cx="1118.8" cy="582.9" r="4.7" style="fill:#383A48;"/>
					</g>
				</g>
				<g>
					<g>
						<circle cx="1118.8" cy="624.4" r="4.7" style="fill:#383A48;"/>
					</g>
				</g>
				<g>
					<g>
						<circle cx="1118.8" cy="665.8" r="4.7" style="fill:#383A48;"/>
					</g>
				</g>
				<g>
					<g>
						<circle cx="1077.4" cy="168.5" r="4.7" style="fill:#383A48;"/>
					</g>
				</g>
				<g>
					<g>
						<circle cx="1077.4" cy="209.9" r="4.7" style="fill:#383A48;"/>
					</g>
				</g>
				<g>
					<g>
						<circle cx="1077.4" cy="251.4" r="4.7" style="fill:#383A48;"/>
					</g>
				</g>
				<g>
					<g>
						<circle cx="1077.4" cy="292.8" r="4.7" style="fill:#383A48;"/>
					</g>
				</g>
				<g>
					<g>
						<circle cx="1077.4" cy="334.3" r="4.7" style="fill:#383A48;"/>
					</g>
				</g>
				<g>
					<g>
						<circle cx="1077.4" cy="375.7" r="4.7" style="fill:#383A48;"/>
					</g>
				</g>
				<g>
					<g>
						<circle cx="1077.4" cy="417.1" r="4.7" style="fill:#383A48;"/>
					</g>
				</g>
				<g>
					<g>
						<circle cx="1077.4" cy="458.6" r="4.7" style="fill:#383A48;"/>
					</g>
				</g>
				<g>
					<g>
						<circle cx="1077.4" cy="500" r="4.7" style="fill:#383A48;"/>
					</g>
				</g>
				<g>
					<g>
						<circle cx="1036" cy="168.5" r="4.7" style="fill:#383A48;"/>
					</g>
				</g>
				<g>
					<g>
						<circle cx="1036" cy="209.9" r="4.7" style="fill:#383A48;"/>
					</g>
				</g>
				<g>
					<g>
						<circle cx="1036" cy="251.4" r="4.7" style="fill:#383A48;"/>
					</g>
				</g>
				<g>
					<g>
						<circle cx="1036" cy="292.8" r="4.7" style="fill:#383A48;"/>
					</g>
				</g>
				<g>
					<g>
						<circle cx="1036" cy="334.3" r="4.7" style="fill:#383A48;"/>
					</g>
				</g>
				<g>
					<g>
						<circle cx="1036" cy="375.7" r="4.7" style="fill:#383A48;"/>
					</g>
				</g>
			</g>
		</g>
	</g>
	<g>
		<g>
			<path d="M1180,824.2c-8.6-8-14.7-17.5-18.3-28.5c-5.5-10.5-8.1-21.9-7.6-34.1c-0.3-7.3,0.1-14.5,0.9-21.7
				c1.8-14.9,3.5-29.9,7.2-44.4c3.9-15.5,9.5-30.5,15.6-45.2c9.1-21.9,18.6-43.4,28.8-64.8c5-10.5,9.9-20.9,14.7-31.5
				c2-5.3,4-10.7,5.8-16.1c-13.4-14.6-25.6-30.3-38.8-45c-7.2-8.1-15.7-14.7-24-21.6c-13-10.9-26-21.9-38.9-32.9
				c-25.6-21.9-51.9-43-77.2-65.3c-18.1-15.9-36.3-31.6-55.1-46.6c-12.2-9.1-24.6-17.8-37.4-26c-0.5,1.3-1.1,2.5-1.6,3.8
				c-10.8,20.4-31.4,33.7-52.8,40.6c-11.8,3.7-23.5,4.2-35.3,1.6c-11.8-0.5-22.7-4-32.9-10.5c-10.3-5.6-18.6-13.1-24.8-22.8
				c-7.8-8.5-13.1-18.6-15.8-30.1c-2.7-6.9-4.5-14-5.8-21.3c-2.5-14.6-4.8-29.5-5.2-44.3c0-0.5,0-0.9,0-1.4
				c-102.3,70.9-169.4,189-169.4,322.8c0,216.3,175.3,391.6,391.6,391.6c89.3,0,171.7-29.9,237.6-80.3
				C1218.5,851.6,1196.1,839,1180,824.2z" style="fill:#AAC6FC;"/>
		</g>
		<g>
			<g>
				<path d="M1224.5,550.1c-0.6,0-1.1-0.1-1.7-0.3c-2.6-0.9-4-3.8-3-6.4c0.5-1.4,1-2.8,1.5-4.2c-1-1.1-2-2.3-3.1-3.4
					c-1.8-2.1-1.6-5.2,0.4-7.1c2.1-1.8,5.2-1.6,7.1,0.4c1.7,1.9,3.4,3.8,5,5.5l2,2.2l-1,2.8c-0.8,2.4-1.7,4.8-2.5,7.1
					C1228.5,548.8,1226.6,550.1,1224.5,550.1z" style="fill:#F3F6E6;"/>
			</g>
			<g>
				<path d="M1192,502.3c-1.4,0-2.8-0.6-3.8-1.7c-1.2-1.4-2.5-2.8-3.8-4.2c-1.6-1.8-3.4-3.7-5.4-5.6s-2.1-5.1-0.1-7.1
					c1.9-2,5.1-2.1,7.1-0.1c2.2,2.1,4.1,4.1,5.9,6.1c1.3,1.4,2.6,2.9,3.8,4.3c1.8,2.1,1.6,5.2-0.5,7.1
					C1194.4,501.9,1193.2,502.3,1192,502.3z M1147.4,462.2c-1.1,0-2.3-0.4-3.2-1.2c-3.5-3-7.1-6-10.6-9c-2.1-1.8-2.4-4.9-0.6-7
					s4.9-2.4,7-0.6c3.5,3,7,6,10.6,9c2.1,1.8,2.4,4.9,0.6,7C1150.2,461.6,1148.8,462.2,1147.4,462.2z M1101.6,423.4
					c-1.1,0-2.3-0.4-3.2-1.2l-10.6-8.9c-2.1-1.8-2.4-4.9-0.6-7s4.9-2.4,7-0.6l10.6,8.9c2.1,1.8,2.4,4.9,0.6,7
					C1104.4,422.8,1103,423.4,1101.6,423.4z M1055.7,384.7c-1.2,0-2.3-0.4-3.3-1.2c-2.5-2.2-5-4.4-7.5-6.5l-3-2.6
					c-2.1-1.8-2.3-5-0.5-7.1s5-2.3,7.1-0.5l3,2.6c2.5,2.2,5,4.3,7.4,6.5c2.1,1.8,2.3,5,0.5,7.1
					C1058.5,384.1,1057.1,384.7,1055.7,384.7z M1010.2,345.5c-1.1,0-2.3-0.4-3.2-1.2c-3.6-3-7.2-6-10.7-8.8c-2.1-1.7-2.5-4.9-0.7-7
					c1.7-2.1,4.9-2.5,7-0.7c3.5,2.8,7.1,5.8,10.8,8.8c2.1,1.8,2.4,4.9,0.7,7C1013,344.9,1011.6,345.5,1010.2,345.5z" style="fill:#F3F6E6;"/>
			</g>
			<g>
				<path d="M952.4,312.4c-0.9,0-1.8-0.2-2.6-0.7c-2.4-1.4-3.2-4.5-1.7-6.9c0.5-0.8,1-1.7,1.5-2.6l3.8-9l5,3.2
					c2.1,1.4,4.3,2.7,6.4,4.1c2.3,1.5,3,4.6,1.4,6.9c-1.5,2.3-4.6,3-6.9,1.4c-0.5-0.3-0.9-0.6-1.4-0.9c-0.4,0.7-0.7,1.3-1.1,2
					C955.8,311.5,954.1,312.4,952.4,312.4z" style="fill:#F3F6E6;"/>
			</g>
			<g>
				<path d="M896.1,351.4c-2.3,0-4.3-1.6-4.9-3.9c-0.6-2.7,1-5.4,3.7-6c1.6-0.4,3.2-0.8,4.7-1.3
					c3.3-1.1,6.6-2.3,9.7-3.7c2.5-1.1,5.5,0.1,6.6,2.6s-0.1,5.5-2.6,6.6c-3.4,1.5-7,2.8-10.6,4c-1.8,0.6-3.7,1.1-5.5,1.5
					C896.9,351.4,896.5,351.4,896.1,351.4z M843.2,346.4c-0.7,0-1.3-0.1-2-0.4c-3.6-1.5-7.2-3.4-10.6-5.6c-1.5-0.8-2.9-1.6-4.3-2.5
					c-2.3-1.5-3-4.6-1.6-6.9c1.5-2.3,4.6-3,6.9-1.6c1.2,0.8,2.5,1.5,3.9,2.3l0.3,0.2c3,1.9,6.2,3.6,9.3,4.9c2.5,1.1,3.7,4,2.6,6.6
					C846.9,345.3,845.1,346.4,843.2,346.4z M795.3,297.5c-2,0-3.9-1.2-4.7-3.2c-1.2-3-2.2-6.2-3-9.5c-0.8-2-1.5-4.1-2.2-6.2
					c-0.8-2.6,0.6-5.4,3.3-6.3c2.6-0.8,5.4,0.6,6.3,3.3c0.6,2,1.3,4,2.1,5.9l0.2,0.7c0.7,2.9,1.6,5.8,2.6,8.5c1,2.6-0.3,5.5-2.9,6.5
					C796.5,297.4,795.9,297.5,795.3,297.5z" style="fill:#F3F6E6;"/>
			</g>
			<g>
				<path d="M781.8,228.8c-2.2,0-4.1-1.4-4.8-3.5c-2,0.7-4.4,0-5.7-1.8c-1.6-2.2-1.1-5.4,1.1-7c2-1.5,4.1-2.9,6.2-4.4
					l7.7-5.3l0.1,9.9c0,0.3,0,0.5,0,0.8c0,1.9,0.1,3.9,0.3,6c0.2,2.8-1.9,5.1-4.7,5.3C782,228.8,781.9,228.8,781.8,228.8z" style="fill:#F3F6E6;"/>
			</g>
			<g>
				<path d="M1003.3,935.5C1003.2,935.5,1003.2,935.5,1003.3,935.5c-5.1,0-10.3-0.1-15.4-0.3c-2.8-0.1-4.9-2.4-4.8-5.2
					c0.1-2.8,2.4-4.9,5.2-4.8c5,0.2,10,0.3,15,0.3c2.8,0,5,2.2,5,5C1008.2,933.2,1006,935.5,1003.3,935.5z M1053.7,932.3
					c-2.5,0-4.6-1.8-5-4.4c-0.3-2.7,1.6-5.2,4.3-5.6c4.9-0.6,9.9-1.4,14.8-2.2c2.7-0.5,5.3,1.4,5.8,4.1c0.5,2.7-1.4,5.3-4.1,5.8
					c-5,0.8-10.1,1.6-15.2,2.2C1054.1,932.3,1053.9,932.3,1053.7,932.3z M937.8,930c-0.3,0-0.6,0-0.8-0.1c-5-0.9-10.1-1.8-15.1-2.9
					c-2.7-0.6-4.4-3.2-3.9-5.9c0.6-2.7,3.2-4.4,5.9-3.9c4.9,1,9.8,2,14.7,2.8c2.7,0.5,4.6,3,4.1,5.8
					C942.3,928.2,940.2,930,937.8,930z M1117.9,918.5c-2.1,0-4.1-1.4-4.8-3.5c-0.8-2.6,0.7-5.4,3.3-6.2c4.8-1.5,9.6-3,14.2-4.6
					c2.6-0.9,5.5,0.5,6.4,3.1s-0.5,5.5-3.1,6.4c-4.8,1.7-9.7,3.3-14.6,4.8C1118.9,918.5,1118.4,918.5,1117.9,918.5z M874.2,913.6
					c-0.5,0-1.1-0.1-1.7-0.3c-4.8-1.7-9.7-3.5-14.4-5.4c-2.6-1-3.8-3.9-2.8-6.5s3.9-3.8,6.5-2.8c4.6,1.8,9.3,3.6,14,5.2
					c2.6,0.9,4,3.8,3.1,6.4C878.2,912.3,876.3,913.6,874.2,913.6z M1179,894.1c-1.8,0-3.6-1-4.5-2.8c-1.2-2.5-0.2-5.5,2.2-6.7
					c4.4-2.2,8.9-4.6,13.3-7c2.4-1.3,5.5-0.5,6.8,2c1.3,2.4,0.5,5.5-2,6.8c-4.5,2.5-9.1,4.9-13.6,7.2
					C1180.5,894,1179.7,894.1,1179,894.1z M814.3,886.7c-0.8,0-1.6-0.2-2.4-0.6c-4.4-2.5-8.9-5-13.3-7.7c-2.4-1.4-3.1-4.5-1.7-6.9
					s4.5-3.1,6.9-1.7c4.3,2.6,8.6,5.1,12.9,7.5c2.4,1.3,3.3,4.4,2,6.8C817.8,885.8,816.1,886.7,814.3,886.7z M759.8,850.3
					c-1.1,0-2.2-0.4-3.1-1.1c-4-3.2-8-6.5-11.8-9.8c-2.1-1.8-2.3-5-0.5-7.1s5-2.3,7.1-0.5c3.8,3.2,7.6,6.5,11.5,9.6
					c2.2,1.7,2.5,4.9,0.8,7C762.7,849.6,761.2,850.3,759.8,850.3z M712,805.2c-1.4,0-2.7-0.6-3.7-1.7c-3.4-3.8-6.8-7.7-10-11.6
					c-1.8-2.1-1.5-5.3,0.7-7c2.1-1.8,5.3-1.5,7,0.7c3.2,3.8,6.5,7.6,9.8,11.3c1.8,2.1,1.7,5.2-0.4,7.1
					C714.4,804.8,713.2,805.2,712,805.2z M672.4,752.8c-1.7,0-3.3-0.8-4.2-2.3c-2.7-4.3-5.4-8.7-8-13.2c-1.4-2.4-0.6-5.4,1.8-6.8
					c2.4-1.4,5.4-0.6,6.8,1.8c2.5,4.3,5.1,8.6,7.8,12.8c1.5,2.3,0.8,5.4-1.6,6.9C674.2,752.5,673.3,752.8,672.4,752.8z M642.1,694.5
					c-2,0-3.8-1.2-4.6-3.1c-2-4.7-3.9-9.5-5.6-14.3c-1-2.6,0.4-5.5,2.9-6.4c2.6-1,5.5,0.4,6.4,2.9c1.7,4.7,3.6,9.4,5.5,14
					c1.1,2.5-0.1,5.5-2.7,6.5C643.4,694.4,642.7,694.5,642.1,694.5z M622,631.9c-2.3,0-4.3-1.6-4.9-3.9c-1.1-5-2.2-10-3.1-15
					c-0.5-2.7,1.3-5.3,4-5.8s5.3,1.3,5.8,4c0.9,4.9,2,9.8,3.1,14.7c0.6,2.7-1.1,5.4-3.8,6C622.7,631.8,622.4,631.9,622,631.9z
					 M612.7,566.9c-2.6,0-4.8-2.1-5-4.7c-0.3-5.1-0.5-10.2-0.6-15.3c-0.1-2.8,2.1-5,4.9-5.1c2.8,0,5,2.1,5.1,4.9
					c0.1,5,0.3,10,0.6,15c0.2,2.8-1.9,5.1-4.7,5.3C612.9,566.9,612.8,566.9,612.7,566.9z M614.4,501.2c-0.2,0-0.4,0-0.5,0
					c-2.7-0.3-4.7-2.8-4.4-5.5c0.6-5.1,1.2-10.2,1.9-15.2c0.4-2.7,2.9-4.6,5.7-4.2c2.7,0.4,4.6,2.9,4.2,5.7
					c-0.7,4.9-1.4,9.9-1.9,14.8C619.1,499.3,616.9,501.2,614.4,501.2z M626.9,436.8c-0.5,0-0.9-0.1-1.4-0.2
					c-2.7-0.8-4.2-3.5-3.4-6.2c1.4-4.9,2.9-9.8,4.5-14.7c0.9-2.6,3.7-4.1,6.3-3.2s4.1,3.7,3.2,6.3c-1.5,4.7-3,9.5-4.4,14.3
					C631.1,435.3,629.1,436.8,626.9,436.8z M650.1,375.4c-0.7,0-1.5-0.2-2.2-0.5c-2.5-1.2-3.5-4.2-2.4-6.7c2.2-4.6,4.5-9.2,6.9-13.7
					c1.3-2.4,4.3-3.4,6.8-2.1c2.4,1.3,3.4,4.3,2.1,6.8c-2.3,4.4-4.6,8.9-6.7,13.4C653.7,374.3,652,375.4,650.1,375.4z M683.3,318.7
					c-1,0-2-0.3-2.9-0.9c-2.3-1.6-2.8-4.7-1.2-7c2.9-4.2,6-8.3,9.1-12.4c1.7-2.2,4.8-2.6,7-0.9s2.6,4.8,0.9,7c-3,4-6,8-8.9,12.1
					C686.4,317.9,684.8,318.7,683.3,318.7z M725.4,268.3c-1.3,0-2.5-0.5-3.5-1.4c-2-1.9-2-5.1,0-7.1c3.6-3.6,7.3-7.2,11-10.7
					c2-1.9,5.2-1.8,7.1,0.2c1.9,2,1.8,5.2-0.2,7.1c-3.6,3.4-7.2,6.9-10.7,10.4C728,267.8,726.7,268.3,725.4,268.3z" style="fill:#F3F6E6;"/>
			</g>
			<g>
				<path d="M1235.2,859.7c-1.5,0-3.1-0.7-4-2c-0.8-1.1-1.1-2.5-0.9-3.8c-1.1-1-1.7-2.4-1.6-4c0.2-2.8,2.6-4.8,5.3-4.7
					c2.3,0.2,4.6,0.2,6.8,0l16.4-1l-13.1,10c-2,1.5-4,3.1-6.1,4.6C1237.3,859.4,1236.3,859.7,1235.2,859.7z" style="fill:#F3F6E6;"/>
			</g>
			<g>
				<path d="M1189.8,837.3c-1,0-2.1-0.3-3-1c-3.5-2.6-7-5.5-10.3-8.5c-0.4-0.4-0.9-0.8-1.3-1.2c-2-1.9-2-5.1-0.1-7.1
					s5.1-2,7.1-0.1c0.4,0.4,0.7,0.7,1.1,1c3,2.8,6.2,5.4,9.4,7.8c2.2,1.6,2.7,4.8,1,7C1192.9,836.6,1191.4,837.3,1189.8,837.3z
					 M1156.1,786.4c-2.2,0-4.3-1.5-4.8-3.8c-1.3-4.9-2-10.1-2.2-15.3c-0.1-2.8,2.1-5.1,4.8-5.2c2.7-0.1,5.1,2.1,5.2,4.8
					c0.2,4.5,0.8,8.9,1.9,13.2c0.7,2.7-0.9,5.4-3.6,6.1C1157,786.3,1156.5,786.4,1156.1,786.4z M1157.6,724.4c-0.2,0-0.5,0-0.7-0.1
					c-2.7-0.4-4.6-2.9-4.2-5.7c0.8-5.3,1.6-10.1,2.4-14.5c0.5-2.7,3.2-4.5,5.9-3.9c2.7,0.5,4.5,3.2,3.9,5.9
					c-0.8,4.2-1.6,8.8-2.4,13.9C1162.2,722.6,1160.1,724.4,1157.6,724.4z M1174.1,664.3c-0.6,0-1.2-0.1-1.8-0.4
					c-2.6-1-3.8-3.9-2.8-6.5c1.1-2.9,2.3-5.8,3.7-9c0.6-1.5,1.2-2.9,1.9-4.4c1.1-2.5,4-3.7,6.5-2.7c2.5,1.1,3.7,4,2.7,6.5
					c-0.6,1.5-1.2,2.9-1.8,4.4c-1.3,3.1-2.5,6-3.6,8.8C1178,663.1,1176.1,664.3,1174.1,664.3z M1198.9,607c-0.7,0-1.4-0.1-2.1-0.5
					c-2.5-1.1-3.6-4.1-2.5-6.6c2-4.4,4.1-8.8,6.1-13.1c1.2-2.5,4.2-3.6,6.7-2.4c2.5,1.2,3.6,4.2,2.4,6.7c-2,4.3-4,8.6-6,13
					C1202.6,605.9,1200.8,607,1198.9,607z" style="fill:#F3F6E6;"/>
			</g>
		</g>
	</g>
	<path d="M1150.7,149.1c-0.2-2.6-2.4-4.5-5-4.5H268.2c-2.8,0-5,2.2-5,5v778.7c0,2.8,2.2,5,5,5s5-2.2,5-5
		c0-74,17.4-141.1,50.4-194c35.3-56.6,86.5-95.9,152.3-116.8c26.4-8.4,56.2-16.1,87.7-24.3c133.6-34.6,300-77.7,384.5-217.9
		c10-16.7,19.1-31.8,27.8-46.4c36.1-60.6,59.9-100.6,84.4-127.4c24.1-26.4,48.4-39.6,86.5-46.9
		C1149.2,153.9,1151,151.6,1150.7,149.1z" style="fill:#F3F6E6;"/>
	<path d="M1651.8,387.5L1651.8,387.5c-2.8,0-5,2.2-5,5c-0.1,13.9-2.1,62.8-21.9,110.4c-25.1,60.5-68.1,94.3-127.9,100.6
		c-65.5,6.9-120.1,23.1-171.8,51c-36.3,19.6-66,42.2-94.7,64c-31.3,23.8-60.8,46.2-96.3,62.9c-39.7,18.7-81.2,27.4-130.5,27.4
		c-2.8,0-5,2.2-5,5v114.5c0,2.8,2.2,5,5,5h648.1c2.8,0,5-2.2,5-5V392.5C1656.8,389.7,1654.5,387.5,1651.8,387.5z" style="fill:#F3F6E6;"/>
	<path d="M1330.8,655.1c-1.6-1.4-3.8-1.6-5.7-0.6c-36.3,19.6-66,42.2-94.7,64c-31.3,23.8-60.8,46.2-96.3,62.9
		c-39.7,18.7-81.2,27.4-130.5,27.4c-2.8,0-5,2.2-5,5v70.5c0,2.8,2.2,5,5,5c73,0,142.9-22.2,202.2-64.2
		c58-41.1,101.7-97.9,126.3-164.3C1332.9,658.6,1332.4,656.5,1330.8,655.1z" style="fill:#383A48;"/>
	<g>
		<path d="M1651.8,392.5V389C1651.8,389,1651.8,390.2,1651.8,392.5z" style="fill:#F3F6E6;"/>
		<path d="M1651.8,397.5C1651.7,397.5,1651.7,397.5,1651.8,397.5c-2.8,0-5-2.3-5-5V389c0-2.7,2.2-5,4.9-5c0,0,0,0,0.1,0
			c2.7,0,4.9,2.2,5,4.9c0,0.1,0,1.4,0,3.7C1656.7,395.3,1654.5,397.5,1651.8,397.5z" style="fill:#F3F6E6;"/>
	</g>
	<g>
		<g>
			<circle cx="1003.7" cy="538.9" r="274.8" style="fill:#AAC6FC;"/>
			<path d="M1003.7,818.7c-74.7,0-145-29.1-197.9-82c-52.9-52.9-82-123.1-82-197.9c0-74.7,29.1-145,82-197.9
				s123.1-82,197.9-82s145,29.1,197.9,82s82,123.1,82,197.9c0,74.7-29.1,145-82,197.9C1148.7,789.6,1078.4,818.7,1003.7,818.7z
				 M1003.7,269c-72.1,0-139.8,28.1-190.8,79c-51,51-79,118.7-79,190.8s28.1,139.8,79,190.8c51,51,118.7,79,190.8,79
				s139.8-28.1,190.8-79c51-51,79-118.7,79-190.8s-28.1-139.8-79-190.8C1143.5,297.1,1075.7,269,1003.7,269z" style="fill:#F3F6E6;"/>
		</g>
		<g>
			<path d="M1003.7,419.9c-91.9,0-177.7-9.5-229.4-25.4l2.9-9.6c50.8,15.6,135.5,25,226.4,25
				c92.8,0,178.3-9.6,228.9-25.7l3,9.5C1184.1,410.1,1097.4,419.9,1003.7,419.9z" style="fill:#F3F6E6;"/>
		</g>
		<g>
			<path d="M1232.5,693.6c-50.5-16.1-136.1-25.7-228.9-25.7c-91,0-175.6,9.3-226.4,25l-2.9-9.6
				c51.7-15.9,137.5-25.4,229.4-25.4c93.7,0,180.4,9.8,231.9,26.2L1232.5,693.6z" style="fill:#F3F6E6;"/>
		</g>
		<g>
			<path d="M1003.7,818.7c-42.5,0-82.1-29.5-111.7-83.1c-29.1-52.6-45.1-122.5-45.1-196.8s16-144.1,45.1-196.8
				c29.6-53.6,69.3-83.1,111.7-83.1c42.5,0,82.1,29.5,111.7,83.1c29.1,52.6,45.1,122.5,45.1,196.8s-16,144.1-45.1,196.8
				C1085.8,789.2,1046.1,818.7,1003.7,818.7z M1003.7,269c-38.7,0-75.2,27.7-103,77.9c-28.3,51.2-43.8,119.3-43.8,191.9
				s15.6,140.7,43.8,191.9c27.8,50.2,64.3,77.9,103,77.9s75.2-27.7,103-77.9c28.3-51.2,43.8-119.3,43.8-191.9
				s-15.6-140.7-43.8-191.9C1078.9,296.7,1042.3,269,1003.7,269z" style="fill:#F3F6E6;"/>
		</g>
		<g>
			<rect x="728.8" y="533.9" width="549.7" height="10" style="fill:#F3F6E6;"/>
		</g>
		<g>
			<rect x="998.7" y="264" width="10" height="549.7" style="fill:#F3F6E6;"/>
		</g>
	</g>
	<g>
		<path d="M728.8,543.9c-2.8,0-5-2.2-5-5c0-74.7,29.1-145,82-197.9s123.1-82,197.9-82c2.8,0,5,2.2,5,5s-2.2,5-5,5
			c-72.1,0-139.8,28.1-190.8,79c-51,51-79,118.7-79,190.8C733.8,541.6,731.6,543.9,728.8,543.9z" style="fill:#383A48;"/>
	</g>
	<g>
		<g>
			<path d="M513.3,891.2L320,697.9c-33.7-33.7-33.7-88.3,0-122l0,0c33.7-33.7,88.3-33.7,122,0l193.2,193.2
				c33.7,33.7,33.7,88.3,0,122l0,0C601.6,924.9,547,924.9,513.3,891.2z" style="fill:#F6E049;"/>
			<path d="M574.3,921.5c-24.4,0-47.3-9.5-64.5-26.7L316.5,701.5c-35.6-35.6-35.6-93.5,0-129.1s93.5-35.6,129.1,0
				l193.2,193.2c17.2,17.2,26.7,40.2,26.7,64.5c0,24.4-9.5,47.3-26.7,64.5C621.6,912,598.6,921.5,574.3,921.5z M381,555.7
				c-20.8,0-41.6,7.9-57.5,23.8c-31.7,31.7-31.7,83.2,0,114.9l193.2,193.2c15.4,15.4,35.8,23.8,57.5,23.8s42.1-8.5,57.5-23.8
				c15.4-15.4,23.8-35.8,23.8-57.5s-8.5-42.1-23.8-57.5L438.5,579.5C422.6,563.6,401.8,555.7,381,555.7z" style="fill:#383A48;"/>
		</g>
		<g>
			<ellipse cx="382.6" cy="638.5" rx="86.1" ry="86.2" style="fill:#AAC6FC;"/>
			<path d="M382.6,729.7c-50.2,0-91.1-40.9-91.1-91.2s40.9-91.2,91.1-91.2s91.1,40.9,91.1,91.2S432.8,729.7,382.6,729.7
				z M382.6,557.3c-44.7,0-81.1,36.4-81.1,81.2s36.4,81.2,81.1,81.2s81.1-36.4,81.1-81.2S427.3,557.3,382.6,557.3z" style="fill:#383A48;"/>
		</g>
	</g>
	<g>
		<path d="M592.5,342.3l-98.2,118.2l-27.9,33.6L338.6,342.3c-26.1-31.1-22-77.5,9.3-103.4l0,0
			c30.9-25.6,76.7-21.5,102.5,9.2l9.4,11.2l5.8,6.9l7.8-9.3l6.6-7.9c14.5-17.4,35.3-26.4,56.3-26.4c16.4,0,33,5.5,46.6,16.8
			c7.2,6,13,13,17.2,20.7C614.4,285.6,612.3,318.4,592.5,342.3z" style="fill:#E0719E;"/>
		<path d="M466.4,499.1c-1.5,0-2.9-0.7-3.8-1.8L334.8,345.6c-13.5-16.1-19.9-36.4-18-57.3s11.8-39.8,28-53.2l0.1-0.1
			c32.9-27.2,82-22.7,109.5,9.9l11.4,13.5l10.5-12.7c14.9-17.9,36.8-28.2,60.1-28.2c18.1,0,35.8,6.4,49.8,18
			c7.5,6.3,13.7,13.7,18.4,22.2c7.6,13.6,10.9,29,9.6,44.6c-1.3,16-7.5,30.9-17.8,43.3l0,0l-98.2,118.2l-27.9,33.6
			C469.3,498.4,467.9,499,466.4,499.1L466.4,499.1z M351,242.9c-14,11.7-22.7,28.1-24.3,46.3c-1.6,18.2,4,36,15.7,50l123.9,147.1
			l24.1-29l98.2-118.2c18.1-21.8,20.9-51.9,7.1-76.7c-4.1-7.4-9.5-13.9-16.1-19.3c-12.2-10.1-27.6-15.7-43.4-15.7
			c-20.3,0-39.4,9-52.4,24.6l-14.3,17.3c-0.9,1.1-2.3,1.8-3.8,1.8l0,0c-1.5,0-2.9-0.6-3.8-1.8l-15.2-18c-24-28.4-66.8-32.3-95.5-8.5
			C351.1,242.8,351,242.8,351,242.9z M592.5,342.3L592.5,342.3L592.5,342.3z" style="fill:#383A48;"/>
	</g>
	<g>
		<g>
			<g>
				<g>
					<circle cx="603.7" cy="268.6" r="5" style="fill:#383A48;"/>
				</g>
			</g>
			<g>
				<g>
					<circle cx="603.7" cy="293.3" r="5" style="fill:#383A48;"/>
				</g>
			</g>
			<g>
				<g>
					<circle cx="603.7" cy="318" r="5" style="fill:#383A48;"/>
				</g>
			</g>
			<g>
				<g>
					<circle cx="579" cy="244" r="5" style="fill:#383A48;"/>
				</g>
			</g>
			<g>
				<g>
					<circle cx="579" cy="268.6" r="5" style="fill:#383A48;"/>
				</g>
			</g>
			<g>
				<g>
					<circle cx="579" cy="293.3" r="5" style="fill:#383A48;"/>
				</g>
			</g>
			<g>
				<g>
					<circle cx="579" cy="318" r="5" style="fill:#383A48;"/>
				</g>
			</g>
			<g>
				<g>
					<circle cx="579" cy="342.6" r="5" style="fill:#383A48;"/>
				</g>
			</g>
			<g>
				<g>
					<circle cx="554.3" cy="244" r="5" style="fill:#383A48;"/>
				</g>
			</g>
			<g>
				<g>
					<circle cx="554.3" cy="268.6" r="5" style="fill:#383A48;"/>
				</g>
			</g>
			<g>
				<g>
					<circle cx="554.3" cy="293.3" r="5" style="fill:#383A48;"/>
				</g>
			</g>
			<g>
				<g>
					<circle cx="554.3" cy="318" r="5" style="fill:#383A48;"/>
				</g>
			</g>
			<g>
				<g>
					<circle cx="554.3" cy="342.6" r="5" style="fill:#383A48;"/>
				</g>
			</g>
			<g>
				<g>
					<circle cx="554.3" cy="367.3" r="5" style="fill:#383A48;"/>
				</g>
			</g>
			<g>
				<g>
					<circle cx="554.3" cy="392" r="5" style="fill:#383A48;"/>
				</g>
			</g>
			<g>
				<g>
					<circle cx="529.7" cy="244" r="5" style="fill:#383A48;"/>
				</g>
			</g>
			<g>
				<g>
					<circle cx="529.7" cy="268.6" r="5" style="fill:#383A48;"/>
				</g>
			</g>
			<g>
				<g>
					<circle cx="529.7" cy="293.3" r="5" style="fill:#383A48;"/>
				</g>
			</g>
			<g>
				<g>
					<circle cx="529.7" cy="318" r="5" style="fill:#383A48;"/>
				</g>
			</g>
			<g>
				<g>
					<circle cx="529.7" cy="342.6" r="5" style="fill:#383A48;"/>
				</g>
			</g>
			<g>
				<g>
					<circle cx="529.7" cy="367.3" r="5" style="fill:#383A48;"/>
				</g>
			</g>
			<g>
				<g>
					<circle cx="529.7" cy="392" r="5" style="fill:#383A48;"/>
				</g>
			</g>
			<g>
				<g>
					<circle cx="529.7" cy="416.6" r="5" style="fill:#383A48;"/>
				</g>
			</g>
			<g>
				<g>
					<circle cx="505" cy="244" r="5" style="fill:#383A48;"/>
				</g>
			</g>
			<g>
				<g>
					<circle cx="505" cy="268.6" r="5" style="fill:#383A48;"/>
				</g>
			</g>
			<g>
				<g>
					<circle cx="505" cy="293.3" r="5" style="fill:#383A48;"/>
				</g>
			</g>
			<g>
				<g>
					<circle cx="505" cy="318" r="5" style="fill:#383A48;"/>
				</g>
			</g>
			<g>
				<g>
					<circle cx="505" cy="342.6" r="5" style="fill:#383A48;"/>
				</g>
			</g>
			<g>
				<g>
					<circle cx="505" cy="367.3" r="5" style="fill:#383A48;"/>
				</g>
			</g>
			<g>
				<g>
					<circle cx="505" cy="392" r="5" style="fill:#383A48;"/>
				</g>
			</g>
			<g>
				<g>
					<circle cx="505" cy="416.6" r="5" style="fill:#383A48;"/>
				</g>
			</g>
			<g>
				<g>
					<circle cx="505" cy="441.3" r="5" style="fill:#383A48;"/>
				</g>
			</g>
			<g>
				<g>
					<circle cx="480.3" cy="268.6" r="5" style="fill:#383A48;"/>
				</g>
			</g>
			<g>
				<g>
					<circle cx="480.3" cy="293.3" r="5" style="fill:#383A48;"/>
				</g>
			</g>
			<g>
				<g>
					<circle cx="480.3" cy="318" r="5" style="fill:#383A48;"/>
				</g>
			</g>
			<g>
				<g>
					<circle cx="480.3" cy="342.6" r="5" style="fill:#383A48;"/>
				</g>
			</g>
			<g>
				<g>
					<circle cx="480.3" cy="367.3" r="5" style="fill:#383A48;"/>
				</g>
			</g>
			<g>
				<g>
					<circle cx="480.3" cy="392" r="5" style="fill:#383A48;"/>
				</g>
			</g>
			<g>
				<g>
					<circle cx="480.3" cy="416.6" r="5" style="fill:#383A48;"/>
				</g>
			</g>
			<g>
				<g>
					<circle cx="455.7" cy="268.6" r="5" style="fill:#383A48;"/>
				</g>
			</g>
			<g>
				<g>
					<circle cx="455.7" cy="293.3" r="5" style="fill:#383A48;"/>
				</g>
			</g>
			<g>
				<g>
					<circle cx="455.7" cy="318" r="5" style="fill:#383A48;"/>
				</g>
			</g>
			<g>
				<g>
					<circle cx="455.7" cy="342.6" r="5" style="fill:#383A48;"/>
				</g>
			</g>
			<g>
				<g>
					<circle cx="455.7" cy="367.3" r="5" style="fill:#383A48;"/>
				</g>
			</g>
			<g>
				<g>
					<circle cx="455.7" cy="392" r="5" style="fill:#383A48;"/>
				</g>
			</g>
			<g>
				<g>
					<circle cx="431" cy="293.3" r="5" style="fill:#383A48;"/>
				</g>
			</g>
			<g>
				<g>
					<circle cx="431" cy="318" r="5" style="fill:#383A48;"/>
				</g>
			</g>
			<g>
				<g>
					<circle cx="431" cy="342.6" r="5" style="fill:#383A48;"/>
				</g>
			</g>
			<g>
				<g>
					<circle cx="431" cy="367.3" r="5" style="fill:#383A48;"/>
				</g>
			</g>
		</g>
	</g>
	<g>
		<path d="M619.1,248.8l-14.4,17.3l-15.2-18c-25.9-30.7-71.6-34.8-102.5-9.2l0,0c-31.3,25.9-35.4,72.3-9.3,103.4
			L605.5,494l126.1-151.8c25.8-31.1,21.5-77.2-9.6-103l0,0C690.9,213.5,644.9,217.8,619.1,248.8z" style="fill:#E0719E;"/>
		<path d="M605.5,499.1c-1.5,0-2.9-0.7-3.8-1.8L473.9,345.6c-13.5-16-19.9-36.4-18.1-57.3c1.9-20.9,11.8-39.8,28-53.2
			c32.9-27.3,82-22.9,109.6,9.7l11.4,13.5l10.5-12.7l0,0c27.5-33.1,76.8-37.7,109.9-10.2c16.1,13.3,26,32.1,27.9,52.9
			s-4.3,41.1-17.7,57.2L609.3,497.2C608.4,498.4,607,499,605.5,499.1L605.5,499.1z M533.6,227.2c-15.3,0-30.7,5.1-43.4,15.6
			c-14.1,11.7-22.8,28.2-24.4,46.4s4,36,15.7,50l123.9,147.1l122.3-147.2c11.6-14,17.1-31.7,15.4-49.8
			c-1.7-18.1-10.3-34.5-24.4-46.1c-28.9-23.9-71.9-19.9-95.8,8.9l0,0l-14.4,17.3c-0.9,1.1-2.3,1.8-3.8,1.8l0,0
			c-1.5,0-2.9-0.6-3.8-1.8l-15.2-18C572.3,235.4,553,227.2,533.6,227.2z M619.1,248.8L619.1,248.8L619.1,248.8z" style="fill:#383A48;"/>
	</g>
	<g>
		<path d="M1335.1,353.6c-2.9,0-5.7-1.2-7.7-3.6c-3.6-4.2-3-10.5,1.2-14.1l0,0c0.4-0.3,24.1-20.4,46.7-46.8
			c-14.8-19.5-27.9-41.1-32.5-61.4c-3.5-15.2-2.8-38.9,10.3-55.4c8.6-10.7,20.9-16.4,35.7-16.4c15.6,0,28.3,6,36.7,17.3
			c13.2,17.7,12.1,43.2,7.2,59.6c-5.1,16.9-15.7,35.8-31.8,56.3c2.2,2.7,4.6,5.4,7,8.1c19.7,22.2,38.3,38.5,38.4,38.6
			c4.2,3.6,4.6,9.9,1,14.1s-9.9,4.6-14.1,1c-1.7-1.5-23.4-20.5-45.3-46.2c-2.4,2.8-4.9,5.6-7.5,8.4c-20.3,22-38.4,37.3-39.1,37.9
			C1339.7,352.8,1337.4,353.6,1335.1,353.6z M1389,176.1c-8.7,0-15.3,2.9-20,8.9c-5.9,7.4-10.2,22.1-6.5,38.5
			c3.2,14,12,30.9,25.9,49.8c11.2-14.9,20.9-30.9,25.4-45.9c5.4-17.9,1.8-34-4.1-41.9C1405,179.1,1398.3,176.1,1389,176.1z" style="fill:#F6E049;"/>
	</g>
	<path d="M1651.8,803.6c-68.7,0-124.7,55.9-124.7,124.7c0,2.8,2.2,5,5,5h119.7c2.8,0,5-2.2,5-5V808.6
		C1656.8,805.8,1654.5,803.6,1651.8,803.6z" style="fill:#E0719E;"/>
	<g>
		<path d="M1603.8,705.7c-1.3,0-2.6-0.5-3.5-1.5l-178.4-178.4c-2-2-2-5.1,0-7.1s5.1-2,7.1,0l178.4,178.4
			c2,2,2,5.1,0,7.1C1606.4,705.2,1605.1,705.7,1603.8,705.7z" style="fill:#383A48;"/>
	</g>
	<path d="M1651.8,144.5h-154.3c-2.8,0-5,2.2-5,5c0,27,26.4,53.2,56.9,83.6c43.4,43.1,97.3,96.7,97.3,173.5
		c0,2.8,2.2,5,5,5s5-2.2,5-5V149.5C1656.8,146.8,1654.5,144.5,1651.8,144.5z" style="fill:#F3F6E6;"/>
	<g>
		<g>
			
				<rect x="399.1" y="882.5" transform="matrix(0.7071 -0.7071 0.7071 0.7071 -505.8427 553.8104)" width="33" height="10" style="fill:#F3F6E6;"/>
		</g>
		<g>
			
				<rect x="410.6" y="871" transform="matrix(0.7071 -0.7071 0.7071 0.7071 -505.8349 553.8101)" width="10" height="33" style="fill:#F3F6E6;"/>
		</g>
	</g>
	<g>
		<g>
			
				<rect x="1521.5" y="401.6" transform="matrix(0.7072 -0.7071 0.7071 0.7072 162.9083 1206.498)" width="33" height="10" style="fill:#F3F6E6;"/>
		</g>
		<g>
			
				<rect x="1532.9" y="390.2" transform="matrix(0.7071 -0.7071 0.7071 0.7071 162.8683 1206.6122)" width="10" height="33" style="fill:#F3F6E6;"/>
		</g>
	</g>
	<g>
		<g>
			<line x1="882.1" y1="198.8" x2="858.8" y2="222.1" style="fill:none;"/>
			
				<rect x="854.1" y="205.5" transform="matrix(0.7072 -0.7071 0.7071 0.7072 106.1399 677.175)" width="33" height="10" style="fill:#383A48;"/>
		</g>
		<g>
			<line x1="858.8" y1="198.8" x2="882.1" y2="222.1" style="fill:none;"/>
			
				<rect x="865.5" y="194" transform="matrix(0.7071 -0.7071 0.7071 0.7071 106.1344 677.1995)" width="10" height="33" style="fill:#383A48;"/>
		</g>
	</g>
</g>
</svg>
