<?xml version="1.0" encoding="UTF-8"?>
<svg width="1394px" height="792px" viewBox="0 0 1394 792" version="1.1" xmlns="http://www.w3.org/2000/svg" xmlns:xlink="http://www.w3.org/1999/xlink">
    <!-- Generator: Sketch 59.1 (86144) - https://sketch.com -->
    <title>help-and-care</title>
    <desc>Created with Sketch.</desc>
    <g id="Page-1" stroke="none" stroke-width="1" fill="none" fill-rule="evenodd">
        <g id="help-and-care" transform="translate(-263.000000, -144.000000)">
            <g id="Group" transform="translate(263.000000, 144.000000)">
                <g transform="translate(768.000000, 19.000000)" fill="#383A48" fill-rule="nonzero" id="Oval">
                    <circle cx="336.5" cy="295.6" r="4.7"></circle>
                    <circle cx="336.5" cy="337" r="4.7"></circle>
                    <circle cx="336.5" cy="378.5" r="4.7"></circle>
                    <circle cx="336.5" cy="419.9" r="4.7"></circle>
                    <circle cx="336.5" cy="461.4" r="4.7"></circle>
                    <circle cx="295.1" cy="212.7" r="4.7"></circle>
                    <circle cx="295.1" cy="254.1" r="4.7"></circle>
                    <circle cx="295.1" cy="295.6" r="4.7"></circle>
                    <circle cx="295.1" cy="337" r="4.7"></circle>
                    <circle cx="295.1" cy="378.5" r="4.7"></circle>
                    <circle cx="295.1" cy="419.9" r="4.7"></circle>
                    <circle cx="295.1" cy="461.4" r="4.7"></circle>
                    <circle cx="295.1" cy="502.8" r="4.7"></circle>
                    <circle cx="295.1" cy="544.2" r="4.7"></circle>
                    <circle cx="253.6" cy="129.8" r="4.7"></circle>
                    <circle cx="253.6" cy="171.3" r="4.7"></circle>
                    <circle cx="253.6" cy="212.7" r="4.7"></circle>
                    <circle cx="253.6" cy="254.1" r="4.7"></circle>
                    <circle cx="253.6" cy="295.6" r="4.7"></circle>
                    <circle cx="253.6" cy="337" r="4.7"></circle>
                    <circle cx="253.6" cy="378.5" r="4.7"></circle>
                    <circle cx="253.6" cy="419.9" r="4.7"></circle>
                    <circle cx="253.6" cy="461.4" r="4.7"></circle>
                    <circle cx="253.6" cy="502.8" r="4.7"></circle>
                    <circle cx="253.6" cy="544.2" r="4.7"></circle>
                    <circle cx="253.6" cy="585.7" r="4.7"></circle>
                    <circle cx="253.6" cy="627.1" r="4.7"></circle>
                    <circle cx="212.2" cy="88.4" r="4.7"></circle>
                    <circle cx="212.2" cy="129.8" r="4.7"></circle>
                    <circle cx="212.2" cy="171.3" r="4.7"></circle>
                    <circle cx="212.2" cy="212.7" r="4.7"></circle>
                    <circle cx="212.2" cy="254.1" r="4.7"></circle>
                    <circle cx="212.2" cy="295.6" r="4.7"></circle>
                    <circle cx="212.2" cy="337" r="4.7"></circle>
                    <circle cx="212.2" cy="378.5" r="4.7"></circle>
                    <circle cx="212.2" cy="419.9" r="4.7"></circle>
                    <circle cx="212.2" cy="461.4" r="4.7"></circle>
                    <circle cx="212.2" cy="502.8" r="4.7"></circle>
                    <circle cx="212.2" cy="544.2" r="4.7"></circle>
                    <circle cx="212.2" cy="585.7" r="4.7"></circle>
                    <circle cx="212.2" cy="627.1" r="4.7"></circle>
                    <circle cx="170.7" cy="88.4" r="4.7"></circle>
                    <circle cx="170.7" cy="129.8" r="4.7"></circle>
                    <circle cx="170.7" cy="171.3" r="4.7"></circle>
                    <circle cx="170.7" cy="212.7" r="4.7"></circle>
                    <circle cx="170.7" cy="254.1" r="4.7"></circle>
                    <circle cx="170.7" cy="295.6" r="4.7"></circle>
                    <circle cx="170.7" cy="337" r="4.7"></circle>
                    <circle cx="170.7" cy="378.5" r="4.7"></circle>
                    <circle cx="170.7" cy="419.9" r="4.7"></circle>
                    <circle cx="170.7" cy="461.4" r="4.7"></circle>
                    <circle cx="170.7" cy="502.8" r="4.7"></circle>
                    <circle cx="170.7" cy="544.2" r="4.7"></circle>
                    <circle cx="170.7" cy="585.7" r="4.7"></circle>
                    <circle cx="170.7" cy="627.1" r="4.7"></circle>
                    <circle cx="170.7" cy="668.6" r="4.7"></circle>
                    <circle cx="129.3" cy="46.9" r="4.7"></circle>
                    <circle cx="129.3" cy="88.4" r="4.7"></circle>
                    <circle cx="129.3" cy="129.8" r="4.7"></circle>
                    <circle cx="129.3" cy="171.3" r="4.7"></circle>
                    <circle cx="129.3" cy="212.7" r="4.7"></circle>
                    <circle cx="129.3" cy="254.1" r="4.7"></circle>
                    <circle cx="129.3" cy="295.6" r="4.7"></circle>
                    <circle cx="129.3" cy="337" r="4.7"></circle>
                    <circle cx="129.3" cy="378.5" r="4.7"></circle>
                    <circle cx="129.3" cy="419.9" r="4.7"></circle>
                    <circle cx="129.3" cy="461.4" r="4.7"></circle>
                    <circle cx="129.3" cy="502.8" r="4.7"></circle>
                    <circle cx="129.3" cy="544.2" r="4.7"></circle>
                    <circle cx="129.3" cy="585.7" r="4.7"></circle>
                    <circle cx="129.3" cy="627.1" r="4.7"></circle>
                    <circle cx="129.3" cy="668.6" r="4.7"></circle>
                    <circle cx="129.3" cy="710" r="4.7"></circle>
                    <circle cx="87.8" cy="46.9" r="4.7"></circle>
                    <circle cx="87.8" cy="88.4" r="4.7"></circle>
                    <circle cx="87.8" cy="129.8" r="4.7"></circle>
                    <circle cx="87.8" cy="171.3" r="4.7"></circle>
                    <circle cx="87.8" cy="212.7" r="4.7"></circle>
                    <circle cx="87.8" cy="254.1" r="4.7"></circle>
                    <circle cx="87.8" cy="295.6" r="4.7"></circle>
                    <circle cx="87.8" cy="337" r="4.7"></circle>
                    <circle cx="87.8" cy="378.5" r="4.7"></circle>
                    <circle cx="87.8" cy="419.9" r="4.7"></circle>
                    <circle cx="87.8" cy="461.4" r="4.7"></circle>
                    <circle cx="87.8" cy="502.8" r="4.7"></circle>
                    <circle cx="46.4" cy="5.5" r="4.7"></circle>
                    <circle cx="46.4" cy="46.9" r="4.7"></circle>
                    <circle cx="46.4" cy="88.4" r="4.7"></circle>
                    <circle cx="46.4" cy="129.8" r="4.7"></circle>
                    <circle cx="46.4" cy="171.3" r="4.7"></circle>
                    <circle cx="46.4" cy="212.7" r="4.7"></circle>
                    <circle cx="46.4" cy="254.1" r="4.7"></circle>
                    <circle cx="46.4" cy="295.6" r="4.7"></circle>
                    <circle cx="46.4" cy="337" r="4.7"></circle>
                    <circle cx="5" cy="5.5" r="4.7"></circle>
                    <circle cx="5" cy="46.9" r="4.7"></circle>
                    <circle cx="5" cy="88.4" r="4.7"></circle>
                    <circle cx="5" cy="129.8" r="4.7"></circle>
                    <circle cx="5" cy="171.3" r="4.7"></circle>
                    <circle cx="5" cy="212.7" r="4.7"></circle>
                </g>
                <g transform="translate(344.000000, 62.000000)" fill-rule="nonzero">
                    <path d="M573,618.2 C564.4,610.2 558.3,600.7 554.7,589.7 C549.2,579.2 546.6,567.8 547.1,555.6 C546.8,548.3 547.2,541.1 548,533.9 C549.8,519 551.5,504 555.2,489.5 C559.1,474 564.7,459 570.8,444.3 C579.9,422.4 589.4,400.9 599.6,379.5 C604.6,369 609.5,358.6 614.3,348 C616.3,342.7 618.3,337.3 620.1,331.9 C606.7,317.3 594.5,301.6 581.3,286.9 C574.1,278.8 565.6,272.2 557.3,265.3 C544.3,254.4 531.3,243.4 518.4,232.4 C492.8,210.5 466.5,189.4 441.2,167.1 C423.1,151.2 404.9,135.5 386.1,120.5 C373.9,111.4 361.5,102.7 348.7,94.5 C348.2,95.8 347.6,97 347.1,98.3 C336.3,118.7 315.7,132 294.3,138.9 C282.5,142.6 270.8,143.1 259,140.5 C247.2,140 236.3,136.5 226.1,130 C215.8,124.4 207.5,116.9 201.3,107.2 C193.5,98.7 188.2,88.6 185.5,77.1 C182.8,70.2 181,63.1 179.7,55.8 C177.2,41.2 174.9,26.3 174.5,11.5 C174.5,11 174.5,10.6 174.5,10.1 C72.2,81 5.1,199.1 5.1,332.9 C5.1,549.2 180.4,724.5 396.7,724.5 C486,724.5 568.4,694.6 634.3,644.2 C611.5,645.6 589.1,633 573,618.2 Z" id="Path" fill="#AAC6FC"></path>
                    <g fill="#F3F6E6">
                        <path d="M617.5,344.1 C616.9,344.1 616.4,344 615.8,343.8 C613.2,342.9 611.8,340 612.8,337.4 C613.3,336 613.8,334.6 614.3,333.2 C613.3,332.1 612.3,330.9 611.2,329.8 C609.4,327.7 609.6,324.6 611.6,322.7 C613.7,320.9 616.8,321.1 618.7,323.1 C620.4,325 622.1,326.9 623.7,328.6 L625.7,330.8 L624.7,333.6 C623.9,336 623,338.4 622.2,340.7 C621.5,342.8 619.6,344.1 617.5,344.1 Z" id="Path"></path>
                        <path d="M585,296.3 C583.6,296.3 582.2,295.7 581.2,294.6 C580,293.2 578.7,291.8 577.4,290.4 C575.8,288.6 574,286.7 572,284.8 C570,282.9 569.9,279.7 571.9,277.7 C573.8,275.7 577,275.6 579,277.6 C581.2,279.7 583.1,281.7 584.9,283.7 C586.2,285.1 587.5,286.6 588.7,288 C590.5,290.1 590.3,293.2 588.2,295.1 C587.4,295.9 586.2,296.3 585,296.3 Z M540.4,256.2 C539.3,256.2 538.1,255.8 537.2,255 C533.7,252 530.1,249 526.6,246 C524.5,244.2 524.2,241.1 526,239 C527.8,236.9 530.9,236.6 533,238.4 C536.5,241.4 540,244.4 543.6,247.4 C545.7,249.2 546,252.3 544.2,254.4 C543.2,255.6 541.8,256.2 540.4,256.2 Z M494.6,217.4 C493.5,217.4 492.3,217 491.4,216.2 L480.8,207.3 C478.7,205.5 478.4,202.4 480.2,200.3 C482,198.2 485.1,197.9 487.2,199.7 L497.8,208.6 C499.9,210.4 500.2,213.5 498.4,215.6 C497.4,216.8 496,217.4 494.6,217.4 Z M448.7,178.7 C447.5,178.7 446.4,178.3 445.4,177.5 C442.9,175.3 440.4,173.1 437.9,171 L434.9,168.4 C432.8,166.6 432.6,163.4 434.4,161.3 C436.2,159.2 439.4,159 441.5,160.8 L444.5,163.4 C447,165.6 449.5,167.7 451.9,169.9 C454,171.7 454.2,174.9 452.4,177 C451.5,178.1 450.1,178.7 448.7,178.7 Z M403.2,139.5 C402.1,139.5 400.9,139.1 400,138.3 C396.4,135.3 392.8,132.3 389.3,129.5 C387.2,127.8 386.8,124.6 388.6,122.5 C390.3,120.4 393.5,120 395.6,121.8 C399.1,124.6 402.7,127.6 406.4,130.6 C408.5,132.4 408.8,135.5 407.1,137.6 C406,138.9 404.6,139.5 403.2,139.5 Z" id="Shape"></path>
                        <path d="M345.4,106.4 C344.5,106.4 343.6,106.2 342.8,105.7 C340.4,104.3 339.6,101.2 341.1,98.8 C341.6,98 342.1,97.1 342.6,96.2 L346.4,87.2 L351.4,90.4 C353.5,91.8 355.7,93.1 357.8,94.5 C360.1,96 360.8,99.1 359.2,101.4 C357.7,103.7 354.6,104.4 352.3,102.8 C351.8,102.5 351.4,102.2 350.9,101.9 C350.5,102.6 350.2,103.2 349.8,103.9 C348.8,105.5 347.1,106.4 345.4,106.4 Z" id="Path"></path>
                        <path d="M289.1,145.4 C286.8,145.4 284.8,143.8 284.2,141.5 C283.6,138.8 285.2,136.1 287.9,135.5 C289.5,135.1 291.1,134.7 292.6,134.2 C295.9,133.1 299.2,131.9 302.3,130.5 C304.8,129.4 307.8,130.6 308.9,133.1 C310,135.6 308.8,138.6 306.3,139.7 C302.9,141.2 299.3,142.5 295.7,143.7 C293.9,144.3 292,144.8 290.2,145.2 C289.9,145.4 289.5,145.4 289.1,145.4 Z M236.2,140.4 C235.5,140.4 234.9,140.3 234.2,140 C230.6,138.5 227,136.6 223.6,134.4 C222.1,133.6 220.7,132.8 219.3,131.9 C217,130.4 216.3,127.3 217.7,125 C219.2,122.7 222.3,122 224.6,123.4 C225.8,124.2 227.1,124.9 228.5,125.7 L228.8,125.9 C231.8,127.8 235,129.5 238.1,130.8 C240.6,131.9 241.8,134.8 240.7,137.4 C239.9,139.3 238.1,140.4 236.2,140.4 Z M188.3,91.5 C186.3,91.5 184.4,90.3 183.6,88.3 C182.4,85.3 181.4,82.1 180.6,78.8 C179.8,76.8 179.1,74.7 178.4,72.6 C177.6,70 179,67.2 181.7,66.3 C184.3,65.5 187.1,66.9 188,69.6 C188.6,71.6 189.3,73.6 190.1,75.5 L190.3,76.2 C191,79.1 191.9,82 192.9,84.7 C193.9,87.3 192.6,90.2 190,91.2 C189.5,91.4 188.9,91.5 188.3,91.5 Z" id="Shape"></path>
                        <path d="M174.8,22.8 C172.6,22.8 170.7,21.4 170,19.3 C168,20 165.6,19.3 164.3,17.5 C162.7,15.3 163.2,12.1 165.4,10.5 C167.4,9 169.5,7.6 171.6,6.1 L179.3,0.8 L179.4,10.7 C179.4,11 179.4,11.2 179.4,11.5 C179.4,13.4 179.5,15.4 179.7,17.5 C179.9,20.3 177.8,22.6 175,22.8 C175,22.8 174.9,22.8 174.8,22.8 Z" id="Path"></path>
                        <path d="M396.3,729.5 C396.2,729.5 396.2,729.5 396.3,729.5 C391.2,729.5 386,729.4 380.9,729.2 C378.1,729.1 376,726.8 376.1,724 C376.2,721.2 378.5,719.1 381.3,719.2 C386.3,719.4 391.3,719.5 396.3,719.5 C399.1,719.5 401.3,721.7 401.3,724.5 C401.2,727.2 399,729.5 396.3,729.5 Z M446.7,726.3 C444.2,726.3 442.1,724.5 441.7,721.9 C441.4,719.2 443.3,716.7 446,716.3 C450.9,715.7 455.9,714.9 460.8,714.1 C463.5,713.6 466.1,715.5 466.6,718.2 C467.1,720.9 465.2,723.5 462.5,724 C457.5,724.8 452.4,725.6 447.3,726.2 C447.1,726.3 446.9,726.3 446.7,726.3 Z M330.8,724 C330.5,724 330.2,724 330,723.9 C325,723 319.9,722.1 314.9,721 C312.2,720.4 310.5,717.8 311,715.1 C311.6,712.4 314.2,710.7 316.9,711.2 C321.8,712.2 326.7,713.2 331.6,714 C334.3,714.5 336.2,717 335.7,719.8 C335.3,722.2 333.2,724 330.8,724 Z M510.9,712.5 C508.8,712.5 506.8,711.1 506.1,709 C505.3,706.4 506.8,703.6 509.4,702.8 C514.2,701.3 519,699.8 523.6,698.2 C526.2,697.3 529.1,698.7 530,701.3 C530.9,703.9 529.5,706.8 526.9,707.7 C522.1,709.4 517.2,711 512.3,712.5 C511.9,712.5 511.4,712.5 510.9,712.5 Z M267.2,707.6 C266.7,707.6 266.1,707.5 265.5,707.3 C260.7,705.6 255.8,703.8 251.1,701.9 C248.5,700.9 247.3,698 248.3,695.4 C249.3,692.8 252.2,691.6 254.8,692.6 C259.4,694.4 264.1,696.2 268.8,697.8 C271.4,698.7 272.8,701.6 271.9,704.2 C271.2,706.3 269.3,707.6 267.2,707.6 Z M572,688.1 C570.2,688.1 568.4,687.1 567.5,685.3 C566.3,682.8 567.3,679.8 569.7,678.6 C574.1,676.4 578.6,674 583,671.6 C585.4,670.3 588.5,671.1 589.8,673.6 C591.1,676 590.3,679.1 587.8,680.4 C583.3,682.9 578.7,685.3 574.2,687.6 C573.5,688 572.7,688.1 572,688.1 Z M207.3,680.7 C206.5,680.7 205.7,680.5 204.9,680.1 C200.5,677.6 196,675.1 191.6,672.4 C189.2,671 188.5,667.9 189.9,665.5 C191.3,663.1 194.4,662.4 196.8,663.8 C201.1,666.4 205.4,668.9 209.7,671.3 C212.1,672.6 213,675.7 211.7,678.1 C210.8,679.8 209.1,680.7 207.3,680.7 Z M152.8,644.3 C151.7,644.3 150.6,643.9 149.7,643.2 C145.7,640 141.7,636.7 137.9,633.4 C135.8,631.6 135.6,628.4 137.4,626.3 C139.2,624.2 142.4,624 144.5,625.8 C148.3,629 152.1,632.3 156,635.4 C158.2,637.1 158.5,640.3 156.8,642.4 C155.7,643.6 154.2,644.3 152.8,644.3 Z M105,599.2 C103.6,599.2 102.3,598.6 101.3,597.5 C97.9,593.7 94.5,589.8 91.3,585.9 C89.5,583.8 89.8,580.6 92,578.9 C94.1,577.1 97.3,577.4 99,579.6 C102.2,583.4 105.5,587.2 108.8,590.9 C110.6,593 110.5,596.1 108.4,598 C107.4,598.8 106.2,599.2 105,599.2 Z M65.4,546.8 C63.7,546.8 62.1,546 61.2,544.5 C58.5,540.2 55.8,535.8 53.2,531.3 C51.8,528.9 52.6,525.9 55,524.5 C57.4,523.1 60.4,523.9 61.8,526.3 C64.3,530.6 66.9,534.9 69.6,539.1 C71.1,541.4 70.4,544.5 68,546 C67.2,546.5 66.3,546.8 65.4,546.8 Z M35.1,488.5 C33.1,488.5 31.3,487.3 30.5,485.4 C28.5,480.7 26.6,475.9 24.9,471.1 C23.9,468.5 25.3,465.6 27.8,464.7 C30.4,463.7 33.3,465.1 34.2,467.6 C35.9,472.3 37.8,477 39.7,481.6 C40.8,484.1 39.6,487.1 37,488.1 C36.4,488.4 35.7,488.5 35.1,488.5 Z M15,425.9 C12.7,425.9 10.7,424.3 10.1,422 C9,417 7.9,412 7,407 C6.5,404.3 8.3,401.7 11,401.2 C13.7,400.7 16.3,402.5 16.8,405.2 C17.7,410.1 18.8,415 19.9,419.9 C20.5,422.6 18.8,425.3 16.1,425.9 C15.7,425.8 15.4,425.9 15,425.9 Z M5.7,360.9 C3.1,360.9 0.9,358.8 0.7,356.2 C0.4,351.1 0.2,346 0.1,340.9 C-4.30211422e-16,338.1 2.2,335.9 5,335.8 C7.8,335.8 10,337.9 10.1,340.7 C10.2,345.7 10.4,350.7 10.7,355.7 C10.9,358.5 8.8,360.8 6,361 C5.9,360.9 5.8,360.9 5.7,360.9 Z M7.4,295.2 C7.2,295.2 7,295.2 6.9,295.2 C4.2,294.9 2.2,292.4 2.5,289.7 C3.1,284.6 3.7,279.5 4.4,274.5 C4.8,271.8 7.3,269.9 10.1,270.3 C12.8,270.7 14.7,273.2 14.3,276 C13.6,280.9 12.9,285.9 12.4,290.8 C12.1,293.3 9.9,295.2 7.4,295.2 Z M19.9,230.8 C19.4,230.8 19,230.7 18.5,230.6 C15.8,229.8 14.3,227.1 15.1,224.4 C16.5,219.5 18,214.6 19.6,209.7 C20.5,207.1 23.3,205.6 25.9,206.5 C28.5,207.4 30,210.2 29.1,212.8 C27.6,217.5 26.1,222.3 24.7,227.1 C24.1,229.3 22.1,230.8 19.9,230.8 Z M43.1,169.4 C42.4,169.4 41.6,169.2 40.9,168.9 C38.4,167.7 37.4,164.7 38.5,162.2 C40.7,157.6 43,153 45.4,148.5 C46.7,146.1 49.7,145.1 52.2,146.4 C54.6,147.7 55.6,150.7 54.3,153.2 C52,157.6 49.7,162.1 47.6,166.6 C46.7,168.3 45,169.4 43.1,169.4 Z M76.3,112.7 C75.3,112.7 74.3,112.4 73.4,111.8 C71.1,110.2 70.6,107.1 72.2,104.8 C75.1,100.6 78.2,96.5 81.3,92.4 C83,90.2 86.1,89.8 88.3,91.5 C90.5,93.2 90.9,96.3 89.2,98.5 C86.2,102.5 83.2,106.5 80.3,110.6 C79.4,111.9 77.8,112.7 76.3,112.7 Z M118.4,62.3 C117.1,62.3 115.9,61.8 114.9,60.9 C112.9,59 112.9,55.8 114.9,53.8 C118.5,50.2 122.2,46.6 125.9,43.1 C127.9,41.2 131.1,41.3 133,43.3 C134.9,45.3 134.8,48.5 132.8,50.4 C129.2,53.8 125.6,57.3 122.1,60.8 C121,61.8 119.7,62.3 118.4,62.3 Z" id="Shape"></path>
                        <path d="M628.2,653.7 C626.7,653.7 625.1,653 624.2,651.7 C623.4,650.6 623.1,649.2 623.3,647.9 C622.2,646.9 621.6,645.5 621.7,643.9 C621.9,641.1 624.3,639.1 627,639.2 C629.3,639.4 631.6,639.4 633.8,639.2 L650.2,638.2 L637.1,648.2 C635.1,649.7 633.1,651.3 631,652.8 C630.3,653.4 629.3,653.7 628.2,653.7 Z" id="Path"></path>
                        <path d="M582.8,631.3 C581.8,631.3 580.7,631 579.8,630.3 C576.3,627.7 572.8,624.8 569.5,621.8 C569.1,621.4 568.6,621 568.2,620.6 C566.2,618.7 566.2,615.5 568.1,613.5 C570,611.5 573.2,611.5 575.2,613.4 C575.6,613.8 575.9,614.1 576.3,614.4 C579.3,617.2 582.5,619.8 585.7,622.2 C587.9,623.8 588.4,627 586.7,629.2 C585.9,630.6 584.4,631.3 582.8,631.3 Z M549.1,580.4 C546.9,580.4 544.8,578.9 544.3,576.6 C543,571.7 542.3,566.5 542.1,561.3 C542,558.5 544.2,556.2 546.9,556.1 C549.6,556 552,558.2 552.1,560.9 C552.3,565.4 552.9,569.8 554,574.1 C554.7,576.8 553.1,579.5 550.4,580.2 C550,580.3 549.5,580.4 549.1,580.4 Z M550.6,518.4 C550.4,518.4 550.1,518.4 549.9,518.3 C547.2,517.9 545.3,515.4 545.7,512.6 C546.5,507.3 547.3,502.5 548.1,498.1 C548.6,495.4 551.3,493.6 554,494.2 C556.7,494.7 558.5,497.4 557.9,500.1 C557.1,504.3 556.3,508.9 555.5,514 C555.2,516.6 553.1,518.4 550.6,518.4 Z M567.1,458.3 C566.5,458.3 565.9,458.2 565.3,457.9 C562.7,456.9 561.5,454 562.5,451.4 C563.6,448.5 564.8,445.6 566.2,442.4 C566.8,440.9 567.4,439.5 568.1,438 C569.2,435.5 572.1,434.3 574.6,435.3 C577.1,436.4 578.3,439.3 577.3,441.8 C576.7,443.3 576.1,444.7 575.5,446.2 C574.2,449.3 573,452.2 571.9,455 C571,457.1 569.1,458.3 567.1,458.3 Z M591.9,401 C591.2,401 590.5,400.9 589.8,400.5 C587.3,399.4 586.2,396.4 587.3,393.9 C589.3,389.5 591.4,385.1 593.4,380.8 C594.6,378.3 597.6,377.2 600.1,378.4 C602.6,379.6 603.7,382.6 602.5,385.1 C600.5,389.4 598.5,393.7 596.5,398.1 C595.6,399.9 593.8,401 591.9,401 Z" id="Shape"></path>
                    </g>
                </g>
                <path d="M887.7,5.1 C887.5,2.5 885.3,0.6 882.7,0.6 L5.2,0.6 C2.4,0.6 0.2,2.8 0.2,5.6 L0.2,784.3 C0.2,787.1 2.4,789.3 5.2,789.3 C8,789.3 10.2,787.1 10.2,784.3 C10.2,710.3 27.6,643.2 60.6,590.3 C95.9,533.7 147.1,494.4 212.9,473.5 C239.3,465.1 269.1,457.4 300.6,449.2 C434.2,414.6 600.6,371.5 685.1,231.3 C695.1,214.6 704.2,199.5 712.9,184.9 C749,124.3 772.8,84.3 797.3,57.5 C821.4,31.1 845.7,17.9 883.8,10.6 C886.2,9.9 888,7.6 887.7,5.1 Z" id="Path" fill="#F3F6E6" fill-rule="nonzero"></path>
                <path d="M1388.8,243.5 L1388.8,243.5 C1386,243.5 1383.8,245.7 1383.8,248.5 C1383.7,262.4 1381.7,311.3 1361.9,358.9 C1336.8,419.4 1293.8,453.2 1234,459.5 C1168.5,466.4 1113.9,482.6 1062.2,510.5 C1025.9,530.1 996.2,552.7 967.5,574.5 C936.2,598.3 906.7,620.7 871.2,637.4 C831.5,656.1 790,664.8 740.7,664.8 C737.9,664.8 735.7,667 735.7,669.8 L735.7,784.3 C735.7,787.1 737.9,789.3 740.7,789.3 L1388.8,789.3 C1391.6,789.3 1393.8,787.1 1393.8,784.3 L1393.8,248.5 C1393.8,245.7 1391.5,243.5 1388.8,243.5 Z" id="Path" fill="#F3F6E6" fill-rule="nonzero"></path>
                <path d="M1067.8,511.1 C1066.2,509.7 1064,509.5 1062.1,510.5 C1025.8,530.1 996.1,552.7 967.4,574.5 C936.1,598.3 906.6,620.7 871.1,637.4 C831.4,656.1 789.9,664.8 740.6,664.8 C737.8,664.8 735.6,667 735.6,669.8 L735.6,740.3 C735.6,743.1 737.8,745.3 740.6,745.3 C813.6,745.3 883.5,723.1 942.8,681.1 C1000.8,640 1044.5,583.2 1069.1,516.8 C1069.9,514.6 1069.4,512.5 1067.8,511.1 Z" id="Path" fill="#383A48" fill-rule="nonzero"></path>
                <g transform="translate(1383.000000, 240.000000)" fill="#F3F6E6" fill-rule="nonzero" id="Path">
                    <path d="M5.8,8.5 L5.8,5 C5.8,5 5.8,6.2 5.8,8.5 Z"></path>
                    <path d="M5.8,13.5 C5.7,13.5 5.7,13.5 5.8,13.5 C3,13.5 0.8,11.2 0.8,8.5 L0.8,5 C0.8,2.3 3,0 5.7,0 C5.7,0 5.7,0 5.8,0 C8.5,0 10.7,2.2 10.8,4.9 C10.8,5 10.8,6.3 10.8,8.6 C10.7,11.3 8.5,13.5 5.8,13.5 Z"></path>
                </g>
                <g transform="translate(460.000000, 114.000000)" fill-rule="nonzero">
                    <g>
                        <circle id="Oval" fill="#AAC6FC" cx="280.7" cy="280.9" r="274.8"></circle>
                        <path d="M280.7,560.7 C206,560.7 135.7,531.6 82.8,478.7 C29.9,425.8 0.8,355.6 0.8,280.8 C0.8,206.1 29.9,135.8 82.8,82.9 C135.7,30 205.9,0.9 280.7,0.9 C355.5,0.9 425.7,30 478.6,82.9 C531.5,135.8 560.6,206 560.6,280.8 C560.6,355.5 531.5,425.8 478.6,478.7 C425.7,531.6 355.4,560.7 280.7,560.7 Z M280.7,11 C208.6,11 140.9,39.1 89.9,90 C38.9,141 10.9,208.7 10.9,280.8 C10.9,352.9 39,420.6 89.9,471.6 C140.9,522.6 208.6,550.6 280.7,550.6 C352.8,550.6 420.5,522.5 471.5,471.6 C522.5,420.6 550.5,352.9 550.5,280.8 C550.5,208.7 522.4,141 471.5,90 C420.5,39.1 352.7,11 280.7,11 Z" id="Shape" fill="#F3F6E6"></path>
                    </g>
                    <path d="M280.7,161.9 C188.8,161.9 103,152.4 51.3,136.5 L54.2,126.9 C105,142.5 189.7,151.9 280.6,151.9 C373.4,151.9 458.9,142.3 509.5,126.2 L512.5,135.7 C461.1,152.1 374.4,161.9 280.7,161.9 Z" id="Path" fill="#F3F6E6"></path>
                    <path d="M509.5,435.6 C459,419.5 373.4,409.9 280.6,409.9 C189.6,409.9 105,419.2 54.2,434.9 L51.3,425.3 C103,409.4 188.8,399.9 280.7,399.9 C374.4,399.9 461.1,409.7 512.6,426.1 L509.5,435.6 Z" id="Path" fill="#F3F6E6"></path>
                    <path d="M280.7,560.7 C238.2,560.7 198.6,531.2 169,477.6 C139.9,425 123.9,355.1 123.9,280.8 C123.9,206.5 139.9,136.7 169,84 C198.6,30.4 238.3,0.9 280.7,0.9 C323.2,0.9 362.8,30.4 392.4,84 C421.5,136.6 437.5,206.5 437.5,280.8 C437.5,355.1 421.5,424.9 392.4,477.6 C362.8,531.2 323.1,560.7 280.7,560.7 Z M280.7,11 C242,11 205.5,38.7 177.7,88.9 C149.4,140.1 133.9,208.2 133.9,280.8 C133.9,353.4 149.5,421.5 177.7,472.7 C205.5,522.9 242,550.6 280.7,550.6 C319.4,550.6 355.9,522.9 383.7,472.7 C412,421.5 427.5,353.4 427.5,280.8 C427.5,208.2 411.9,140.1 383.7,88.9 C355.9,38.7 319.3,11 280.7,11 Z" id="Shape" fill="#F3F6E6"></path>
                    <rect id="Rectangle" fill="#F3F6E6" x="5.8" y="275.9" width="549.7" height="10"></rect>
                    <rect id="Rectangle" fill="#F3F6E6" x="275.7" y="6" width="10" height="549.7"></rect>
                </g>
                <path d="M465.8,399.9 C463,399.9 460.8,397.7 460.8,394.9 C460.8,320.2 489.9,249.9 542.8,197 C595.7,144.1 665.9,115 740.7,115 C743.5,115 745.7,117.2 745.7,120 C745.7,122.8 743.5,125 740.7,125 C668.6,125 600.9,153.1 549.9,204 C498.9,255 470.9,322.7 470.9,394.8 C470.8,397.6 468.6,399.9 465.8,399.9 Z" id="Path" fill="#383A48" fill-rule="nonzero"></path>
                <g transform="translate(26.000000, 401.000000)" fill-rule="nonzero">
                    <g>
                        <path d="M224.3,346.2 L31,152.9 C-2.7,119.2 -2.7,64.6 31,30.9 L31,30.9 C64.7,-2.8 119.3,-2.8 153,30.9 L346.2,224.1 C379.9,257.8 379.9,312.4 346.2,346.1 L346.2,346.1 C312.6,379.9 258,379.9 224.3,346.2 Z" id="Path" fill="#F6E049"></path>
                        <path d="M285.3,376.5 C260.9,376.5 238,367 220.8,349.8 L27.5,156.5 C-8.1,120.9 -8.1,63 27.5,27.4 C63.1,-8.2 121,-8.2 156.6,27.4 L349.8,220.6 C367,237.8 376.5,260.8 376.5,285.1 C376.5,309.5 367,332.4 349.8,349.6 C332.6,367 309.6,376.5 285.3,376.5 Z M92,10.7 C71.2,10.7 50.4,18.6 34.5,34.5 C2.8,66.2 2.8,117.7 34.5,149.4 L227.7,342.6 C243.1,358 263.5,366.4 285.2,366.4 C306.9,366.4 327.3,357.9 342.7,342.6 C358.1,327.2 366.5,306.8 366.5,285.1 C366.5,263.4 358,243 342.7,227.6 L149.5,34.5 C133.6,18.6 112.8,10.7 92,10.7 Z" id="Shape" fill="#383A48"></path>
                    </g>
                    <g transform="translate(2.000000, 2.000000)">
                        <ellipse id="Oval" fill="#AAC6FC" cx="91.6" cy="91.5" rx="86.1" ry="86.2"></ellipse>
                        <path d="M91.6,182.7 C41.4,182.7 0.5,141.8 0.5,91.5 C0.5,41.2 41.4,0.3 91.6,0.3 C141.8,0.3 182.7,41.2 182.7,91.5 C182.7,141.8 141.8,182.7 91.6,182.7 Z M91.6,10.3 C46.9,10.3 10.5,46.7 10.5,91.5 C10.5,136.3 46.9,172.7 91.6,172.7 C136.3,172.7 172.7,136.3 172.7,91.5 C172.7,46.7 136.3,10.3 91.6,10.3 Z" id="Shape" fill="#383A48"></path>
                    </g>
                </g>
                <g transform="translate(53.000000, 73.000000)" fill-rule="nonzero">
                    <path d="M276.5,125.3 L178.3,243.5 L150.4,277.1 L22.6,125.3 C-3.5,94.2 0.6,47.8 31.9,21.9 L31.9,21.9 C62.8,-3.7 108.6,0.4 134.4,31.1 L143.8,42.3 L149.6,49.2 L157.4,39.9 L164,32 C178.5,14.6 199.3,5.6 220.3,5.6 C236.7,5.6 253.3,11.1 266.9,22.4 C274.1,28.4 279.9,35.4 284.1,43.1 C298.4,68.6 296.3,101.4 276.5,125.3 Z" id="Path" fill="#E0719E"></path>
                    <path d="M150.4,282.1 C148.9,282.1 147.5,281.4 146.6,280.3 L18.8,128.6 C5.3,112.5 -1.1,92.2 0.8,71.3 C2.7,50.4 12.6,31.5 28.8,18.1 L28.9,18 C61.8,-9.2 110.9,-4.7 138.4,27.9 L149.8,41.4 L160.3,28.7 C175.2,10.8 197.1,0.5 220.4,0.5 C238.5,0.5 256.2,6.9 270.2,18.5 C277.7,24.8 283.9,32.2 288.6,40.7 C296.2,54.3 299.5,69.7 298.2,85.3 C296.9,101.3 290.7,116.2 280.4,128.6 L280.4,128.6 L182.2,246.8 L154.3,280.4 C153.3,281.4 151.9,282 150.4,282.1 L150.4,282.1 Z M35,25.9 C21,37.6 12.3,54 10.7,72.2 C9.1,90.4 14.7,108.2 26.4,122.2 L150.3,269.3 L174.4,240.3 L272.6,122.1 C290.7,100.3 293.5,70.2 279.7,45.4 C275.6,38 270.2,31.5 263.6,26.1 C251.4,16 236,10.4 220.2,10.4 C199.9,10.4 180.8,19.4 167.8,35 L153.5,52.3 C152.6,53.4 151.2,54.1 149.7,54.1 L149.7,54.1 C148.2,54.1 146.8,53.5 145.9,52.3 L130.7,34.3 C106.7,5.9 63.9,2 35.2,25.8 C35.1,25.8 35,25.8 35,25.9 Z" id="Shape" fill="#383A48"></path>
                </g>
                <g transform="translate(163.000000, 95.000000)" fill="#383A48" fill-rule="nonzero" id="Oval">
                    <circle cx="177.7" cy="29.6" r="5"></circle>
                    <circle cx="177.7" cy="54.3" r="5"></circle>
                    <circle cx="177.7" cy="79" r="5"></circle>
                    <circle cx="153" cy="5" r="5"></circle>
                    <circle cx="153" cy="29.6" r="5"></circle>
                    <circle cx="153" cy="54.3" r="5"></circle>
                    <circle cx="153" cy="79" r="5"></circle>
                    <circle cx="153" cy="103.6" r="5"></circle>
                    <circle cx="128.3" cy="5" r="5"></circle>
                    <circle cx="128.3" cy="29.6" r="5"></circle>
                    <circle cx="128.3" cy="54.3" r="5"></circle>
                    <circle cx="128.3" cy="79" r="5"></circle>
                    <circle cx="128.3" cy="103.6" r="5"></circle>
                    <circle cx="128.3" cy="128.3" r="5"></circle>
                    <circle cx="128.3" cy="153" r="5"></circle>
                    <circle cx="103.7" cy="5" r="5"></circle>
                    <circle cx="103.7" cy="29.6" r="5"></circle>
                    <circle cx="103.7" cy="54.3" r="5"></circle>
                    <circle cx="103.7" cy="79" r="5"></circle>
                    <circle cx="103.7" cy="103.6" r="5"></circle>
                    <circle cx="103.7" cy="128.3" r="5"></circle>
                    <circle cx="103.7" cy="153" r="5"></circle>
                    <circle cx="103.7" cy="177.6" r="5"></circle>
                    <circle cx="79" cy="5" r="5"></circle>
                    <circle cx="79" cy="29.6" r="5"></circle>
                    <circle cx="79" cy="54.3" r="5"></circle>
                    <circle cx="79" cy="79" r="5"></circle>
                    <circle cx="79" cy="103.6" r="5"></circle>
                    <circle cx="79" cy="128.3" r="5"></circle>
                    <circle cx="79" cy="153" r="5"></circle>
                    <circle cx="79" cy="177.6" r="5"></circle>
                    <circle cx="79" cy="202.3" r="5"></circle>
                    <circle cx="54.3" cy="29.6" r="5"></circle>
                    <circle cx="54.3" cy="54.3" r="5"></circle>
                    <circle cx="54.3" cy="79" r="5"></circle>
                    <circle cx="54.3" cy="103.6" r="5"></circle>
                    <circle cx="54.3" cy="128.3" r="5"></circle>
                    <circle cx="54.3" cy="153" r="5"></circle>
                    <circle cx="54.3" cy="177.6" r="5"></circle>
                    <circle cx="29.7" cy="29.6" r="5"></circle>
                    <circle cx="29.7" cy="54.3" r="5"></circle>
                    <circle cx="29.7" cy="79" r="5"></circle>
                    <circle cx="29.7" cy="103.6" r="5"></circle>
                    <circle cx="29.7" cy="128.3" r="5"></circle>
                    <circle cx="29.7" cy="153" r="5"></circle>
                    <circle cx="5" cy="54.3" r="5"></circle>
                    <circle cx="5" cy="79" r="5"></circle>
                    <circle cx="5" cy="103.6" r="5"></circle>
                    <circle cx="5" cy="128.3" r="5"></circle>
                </g>
                <g transform="translate(192.000000, 73.000000)" fill-rule="nonzero">
                    <path d="M164.1,31.8 L149.7,49.1 L134.5,31.1 C108.6,0.4 62.9,-3.7 32,21.9 L32,21.9 C0.7,47.8 -3.4,94.2 22.7,125.3 L150.5,277 L276.6,125.2 C302.4,94.1 298.1,48 267,22.2 L267,22.2 C235.9,-3.5 189.9,0.8 164.1,31.8 Z" id="Path" fill="#E0719E"></path>
                    <path d="M150.5,282.1 C149,282.1 147.6,281.4 146.7,280.3 L18.9,128.6 C5.4,112.6 -1,92.2 0.8,71.3 C2.7,50.4 12.6,31.5 28.8,18.1 C61.7,-9.2 110.8,-4.8 138.4,27.8 L149.8,41.3 L160.3,28.6 L160.3,28.6 C187.8,-4.5 237.1,-9.1 270.2,18.4 C286.3,31.7 296.2,50.5 298.1,71.3 C300,92.1 293.8,112.4 280.4,128.5 L154.3,280.2 C153.4,281.4 152,282 150.5,282.1 L150.5,282.1 Z M78.6,10.2 C63.3,10.2 47.9,15.3 35.2,25.8 C21.1,37.5 12.4,54 10.8,72.2 C9.2,90.4 14.8,108.2 26.5,122.2 L150.4,269.3 L272.7,122.1 C284.3,108.1 289.8,90.4 288.1,72.3 C286.4,54.2 277.8,37.8 263.7,26.2 C234.8,2.3 191.8,6.3 167.9,35.1 L167.9,35.1 L153.5,52.4 C152.6,53.5 151.2,54.2 149.7,54.2 L149.7,54.2 C148.2,54.2 146.8,53.6 145.9,52.4 L130.7,34.4 C117.3,18.4 98,10.2 78.6,10.2 Z" id="Shape" fill="#383A48"></path>
                </g>
                <path d="M1072.1,209.6 C1069.2,209.6 1066.4,208.4 1064.4,206 C1060.8,201.8 1061.4,195.5 1065.6,191.9 L1065.6,191.9 C1066,191.6 1089.7,171.5 1112.3,145.1 C1097.5,125.6 1084.4,104 1079.8,83.7 C1076.3,68.5 1077,44.8 1090.1,28.3 C1098.7,17.6 1111,11.9 1125.8,11.9 C1141.4,11.9 1154.1,17.9 1162.5,29.2 C1175.7,46.9 1174.6,72.4 1169.7,88.8 C1164.6,105.7 1154,124.6 1137.9,145.1 C1140.1,147.8 1142.5,150.5 1144.9,153.2 C1164.6,175.4 1183.2,191.7 1183.3,191.8 C1187.5,195.4 1187.9,201.7 1184.3,205.9 C1180.7,210.1 1174.4,210.5 1170.2,206.9 C1168.5,205.4 1146.8,186.4 1124.9,160.7 C1122.5,163.5 1120,166.3 1117.4,169.1 C1097.1,191.1 1079,206.4 1078.3,207 C1076.7,208.8 1074.4,209.6 1072.1,209.6 Z M1126,32.1 C1117.3,32.1 1110.7,35 1106,41 C1100.1,48.4 1095.8,63.1 1099.5,79.5 C1102.7,93.5 1111.5,110.4 1125.4,129.3 C1136.6,114.4 1146.3,98.4 1150.8,83.4 C1156.2,65.5 1152.6,49.4 1146.7,41.5 C1142,35.1 1135.3,32.1 1126,32.1 Z" id="Shape" fill="#F6E049" fill-rule="nonzero"></path>
                <path d="M1388.8,659.6 C1320.1,659.6 1264.1,715.5 1264.1,784.3 C1264.1,787.1 1266.3,789.3 1269.1,789.3 L1388.8,789.3 C1391.6,789.3 1393.8,787.1 1393.8,784.3 L1393.8,664.6 C1393.8,661.8 1391.5,659.6 1388.8,659.6 Z" id="Path" fill="#E0719E" fill-rule="nonzero"></path>
                <path d="M1340.8,561.7 C1339.5,561.7 1338.2,561.2 1337.3,560.2 L1158.9,381.8 C1156.9,379.8 1156.9,376.7 1158.9,374.7 C1160.9,372.7 1164,372.7 1166,374.7 L1344.4,553.1 C1346.4,555.1 1346.4,558.2 1344.4,560.2 C1343.4,561.2 1342.1,561.7 1340.8,561.7 Z" id="Path" fill="#383A48" fill-rule="nonzero"></path>
                <path d="M1388.8,0.5 L1234.5,0.5 C1231.7,0.5 1229.5,2.7 1229.5,5.5 C1229.5,32.5 1255.9,58.7 1286.4,89.1 C1329.8,132.2 1383.7,185.8 1383.7,262.6 C1383.7,265.4 1385.9,267.6 1388.7,267.6 C1391.5,267.6 1393.7,265.4 1393.7,262.6 L1393.7,5.5 C1393.8,2.8 1391.5,0.5 1388.8,0.5 Z" id="Path" fill="#F3F6E6" fill-rule="nonzero"></path>
                <g transform="translate(137.000000, 728.000000)" fill="#F3F6E6" fill-rule="nonzero" id="Rectangle">
                    <rect transform="translate(15.579310, 15.490890) rotate(-45.000000) translate(-15.579310, -15.490890) " x="-0.920531764" y="10.490938" width="32.9996835" height="9.9999041"></rect>
                    <rect transform="translate(15.587110, 15.490590) rotate(-45.000000) translate(-15.587110, -15.490590) " x="10.587158" y="-1.00925176" width="9.9999041" height="32.9996835"></rect>
                </g>
                <g transform="translate(1259.000000, 247.000000)" fill="#F3F6E6" fill-rule="nonzero" id="Rectangle">
                    <rect transform="translate(16.088760, 15.525720) rotate(-44.995949) translate(-16.088760, -15.525720) " x="-0.412248532" y="10.5254144" width="33.0020171" height="10.0006112"></rect>
                    <rect transform="translate(15.894960, 15.740680) rotate(-45.000000) translate(-15.894960, -15.740680) " x="10.895008" y="-0.759161764" width="9.9999041" height="32.9996835"></rect>
                </g>
                <g transform="translate(592.000000, 51.000000)">
                    <g>
                        <line x1="27.1" y1="3.8" x2="3.8" y2="27.1" id="Path"></line>
                        <rect id="Rectangle" fill="#383A48" fill-rule="nonzero" transform="translate(15.672770, 15.439340) rotate(-44.995949) translate(-15.672770, -15.439340) " x="-0.828238532" y="10.4390344" width="33.0020171" height="10.0006112"></rect>
                    </g>
                    <g>
                        <line x1="3.8" y1="3.8" x2="27.1" y2="27.1" id="Path"></line>
                        <rect id="Rectangle" fill="#383A48" fill-rule="nonzero" transform="translate(15.509500, 15.513500) rotate(-45.000000) translate(-15.509500, -15.513500) " x="10.509548" y="-0.986341764" width="9.9999041" height="32.9996835"></rect>
                    </g>
                </g>
            </g>
        </g>
    </g>
</svg>