<?xml version="1.0" encoding="UTF-8"?>
<svg width="1482px" height="842px" viewBox="0 0 1482 842" version="1.1" xmlns="http://www.w3.org/2000/svg" xmlns:xlink="http://www.w3.org/1999/xlink">
    <!-- Generator: Sketch 59.1 (86144) - https://sketch.com -->
    <title>hug</title>
    <desc>Created with Sketch.</desc>
    <g id="Page-1" stroke="none" stroke-width="1" fill="none" fill-rule="evenodd">
        <g id="hug" transform="translate(-219.000000, -119.000000)">
            <g id="Group" transform="translate(219.000000, 119.000000)">
                <path d="M1476.1,556.5 C1473.3,556.5 1471.1,558.7 1471.1,561.5 C1471.1,605.5 1460.3,634.5 1436,655.5 C1412.5,675.9 1376.8,688.1 1330.5,700.2 C1287.6,711.4 1268.3,732.5 1247.8,754.8 C1216.9,788.4 1185,823.1 1064.8,831.9 C1062.1,832.1 1060.1,834.4 1060.19641,837.1 C1060.3,839.8 1062.5,841.9 1065.2,841.9 L1476.2,841.9 C1479,841.9 1481.2,839.7 1481.2,836.9 L1481.2,561.5 C1481.1,558.8 1478.8,556.5 1476.1,556.5 Z" id="Path" fill="#F3F6E6" fill-rule="nonzero"></path>
                <path d="M1201.2,841.9 L248.6,841.9 C245.8,841.9 243.6,839.7 243.6,836.9 C243.6,834.1 245.8,831.9 248.6,831.9 L1201.2,831.9 C1204,831.9 1206.2,834.1 1206.2,836.9 C1206.2,839.7 1203.9,841.9 1201.2,841.9 Z" id="Path" fill="#383A48" fill-rule="nonzero"></path>
                <path d="M560.5,7.6 C560.3,5 558.1,3.1 555.5,3.1 L5.9,3.1 C3.1,3.1 0.9,5.3 0.9,8.1 L0.9,836.9 C0.9,839.7 3.1,841.9 5.9,841.9 C8.7,841.9 10.9,839.7 10.9,836.9 C10.9,781.6 22.9,736.6 47.6,699.2 C69.7,665.8 99.9,641.1 129.1,617.2 C174.8,579.9 222,541.4 241.5,468.5 C261.6,393.3 293.5,369.4 321.5,348.3 C354.6,323.4 383.2,302 381,210.7 C380.1,173.7 388.7,140.4 406.5,111.6 C420.8,88.5 441,68.2 466.7,51.3 C510.7,22.3 555.9,13.1 556.4,13 C559,12.5 560.7,10.1 560.5,7.6 Z" id="Path" fill="#F3F6E6" fill-rule="nonzero"></path>
                <g transform="translate(1052.000000, 181.000000)" fill-rule="nonzero">
                    <polygon id="Path" fill="#AAC6FC" points="5.5 655.9 424.1 296.3 424.1 5.2 5.5 364.7"></polygon>
                    <path d="M5.5,660.9 C4.8,660.9 4.1,660.8 3.4,660.4 C1.6,659.6 0.5,657.8 0.5,655.9 L0.5,364.7 C0.5,363.2 1.1,361.9 2.2,360.9 L420.8,1.3 C422.3,4.48530102e-14 424.4,-0.3 426.1,0.5 C427.9,1.3 429,3.1 429,5 L429,296.2 C429,297.7 428.4,299 427.3,300 L8.7,659.6 C7.8,660.5 6.7,660.9 5.5,660.9 Z M10.5,367 L10.5,645 L419.1,294 L419.1,16 L10.5,367 Z" id="Shape" fill="#383A48"></path>
                    <g transform="translate(12.000000, 16.000000)" fill="#383A48" id="Oval">
                        <circle cx="399.7" cy="5.9" r="5"></circle>
                        <circle cx="399.7" cy="30.5" r="5"></circle>
                        <circle cx="399.7" cy="55.2" r="5"></circle>
                        <circle cx="399.7" cy="79.9" r="5"></circle>
                        <circle cx="399.7" cy="104.5" r="5"></circle>
                        <circle cx="399.7" cy="129.2" r="5"></circle>
                        <circle cx="399.7" cy="153.9" r="5"></circle>
                        <circle cx="399.7" cy="178.5" r="5"></circle>
                        <circle cx="399.7" cy="203.2" r="5"></circle>
                        <circle cx="399.7" cy="227.9" r="5"></circle>
                        <circle cx="399.7" cy="252.5" r="5"></circle>
                        <circle cx="399.7" cy="277.2" r="5"></circle>
                        <circle cx="375" cy="30.5" r="5"></circle>
                        <circle cx="375" cy="55.2" r="5"></circle>
                        <circle cx="375" cy="79.9" r="5"></circle>
                        <circle cx="375" cy="104.5" r="5"></circle>
                        <circle cx="375" cy="129.2" r="5"></circle>
                        <circle cx="375" cy="153.9" r="5"></circle>
                        <circle cx="375" cy="178.5" r="5"></circle>
                        <circle cx="375" cy="203.2" r="5"></circle>
                        <circle cx="375" cy="227.9" r="5"></circle>
                        <circle cx="375" cy="252.5" r="5"></circle>
                        <circle cx="375" cy="277.2" r="5"></circle>
                        <circle cx="375" cy="301.9" r="5"></circle>
                        <circle cx="350.4" cy="55.2" r="5"></circle>
                        <circle cx="350.4" cy="79.9" r="5"></circle>
                        <circle cx="350.4" cy="104.5" r="5"></circle>
                        <circle cx="350.4" cy="129.2" r="5"></circle>
                        <circle cx="350.4" cy="153.9" r="5"></circle>
                        <circle cx="350.4" cy="178.5" r="5"></circle>
                        <circle cx="350.4" cy="203.2" r="5"></circle>
                        <circle cx="350.4" cy="227.9" r="5"></circle>
                        <circle cx="350.4" cy="252.5" r="5"></circle>
                        <circle cx="350.4" cy="277.2" r="5"></circle>
                        <circle cx="350.4" cy="301.9" r="5"></circle>
                        <circle cx="350.4" cy="326.5" r="5"></circle>
                        <circle cx="325.7" cy="79.9" r="5"></circle>
                        <circle cx="325.7" cy="104.5" r="5"></circle>
                        <circle cx="325.7" cy="129.2" r="5"></circle>
                        <circle cx="325.7" cy="153.9" r="5"></circle>
                        <circle cx="325.7" cy="178.5" r="5"></circle>
                        <circle cx="325.7" cy="203.2" r="5"></circle>
                        <circle cx="325.7" cy="227.9" r="5"></circle>
                        <circle cx="325.7" cy="252.5" r="5"></circle>
                        <circle cx="325.7" cy="277.2" r="5"></circle>
                        <circle cx="325.7" cy="301.9" r="5"></circle>
                        <circle cx="325.7" cy="326.5" r="5"></circle>
                        <circle cx="301" cy="104.5" r="5"></circle>
                        <circle cx="301" cy="129.2" r="5"></circle>
                        <circle cx="301" cy="153.9" r="5"></circle>
                        <circle cx="301" cy="178.5" r="5"></circle>
                        <circle cx="301" cy="203.2" r="5"></circle>
                        <circle cx="301" cy="227.9" r="5"></circle>
                        <circle cx="301" cy="252.5" r="5"></circle>
                        <circle cx="301" cy="277.2" r="5"></circle>
                        <circle cx="301" cy="301.9" r="5"></circle>
                        <circle cx="301" cy="326.5" r="5"></circle>
                        <circle cx="301" cy="351.2" r="5"></circle>
                        <circle cx="276.4" cy="104.5" r="5"></circle>
                        <circle cx="276.4" cy="129.2" r="5"></circle>
                        <circle cx="276.4" cy="153.9" r="5"></circle>
                        <circle cx="276.4" cy="178.5" r="5"></circle>
                        <circle cx="276.4" cy="203.2" r="5"></circle>
                        <circle cx="276.4" cy="227.9" r="5"></circle>
                        <circle cx="276.4" cy="252.5" r="5"></circle>
                        <circle cx="276.4" cy="277.2" r="5"></circle>
                        <circle cx="276.4" cy="301.9" r="5"></circle>
                        <circle cx="276.4" cy="326.5" r="5"></circle>
                        <circle cx="276.4" cy="351.2" r="5"></circle>
                        <circle cx="276.4" cy="375.9" r="5"></circle>
                        <circle cx="251.7" cy="129.2" r="5"></circle>
                        <circle cx="251.7" cy="153.9" r="5"></circle>
                        <circle cx="251.7" cy="178.5" r="5"></circle>
                        <circle cx="251.7" cy="203.2" r="5"></circle>
                        <circle cx="251.7" cy="227.9" r="5"></circle>
                        <circle cx="251.7" cy="252.5" r="5"></circle>
                        <circle cx="251.7" cy="277.2" r="5"></circle>
                        <circle cx="251.7" cy="301.9" r="5"></circle>
                        <circle cx="251.7" cy="326.5" r="5"></circle>
                        <circle cx="251.7" cy="351.2" r="5"></circle>
                        <circle cx="251.7" cy="375.9" r="5"></circle>
                        <circle cx="251.7" cy="400.5" r="5"></circle>
                        <circle cx="227" cy="153.9" r="5"></circle>
                        <circle cx="227" cy="178.5" r="5"></circle>
                        <circle cx="227" cy="203.2" r="5"></circle>
                        <circle cx="227" cy="227.9" r="5"></circle>
                        <circle cx="227" cy="252.5" r="5"></circle>
                        <circle cx="227" cy="277.2" r="5"></circle>
                        <circle cx="227" cy="301.9" r="5"></circle>
                        <circle cx="227" cy="326.5" r="5"></circle>
                        <circle cx="227" cy="351.2" r="5"></circle>
                        <circle cx="227" cy="375.9" r="5"></circle>
                        <circle cx="227" cy="400.5" r="5"></circle>
                        <circle cx="227" cy="425.2" r="5"></circle>
                        <circle cx="202.4" cy="178.5" r="5"></circle>
                        <circle cx="202.4" cy="203.2" r="5"></circle>
                        <circle cx="202.4" cy="227.9" r="5"></circle>
                        <circle cx="202.4" cy="252.5" r="5"></circle>
                        <circle cx="202.4" cy="277.2" r="5"></circle>
                        <circle cx="202.4" cy="301.9" r="5"></circle>
                        <circle cx="202.4" cy="326.5" r="5"></circle>
                        <circle cx="202.4" cy="351.2" r="5"></circle>
                        <circle cx="202.4" cy="375.9" r="5"></circle>
                        <circle cx="202.4" cy="400.5" r="5"></circle>
                        <circle cx="202.4" cy="425.2" r="5"></circle>
                        <circle cx="202.4" cy="449.9" r="5"></circle>
                        <circle cx="177.7" cy="203.2" r="5"></circle>
                        <circle cx="177.7" cy="227.9" r="5"></circle>
                        <circle cx="177.7" cy="252.5" r="5"></circle>
                        <circle cx="177.7" cy="277.2" r="5"></circle>
                        <circle cx="177.7" cy="301.9" r="5"></circle>
                        <circle cx="177.7" cy="326.5" r="5"></circle>
                        <circle cx="177.7" cy="351.2" r="5"></circle>
                        <circle cx="177.7" cy="375.9" r="5"></circle>
                        <circle cx="177.7" cy="400.5" r="5"></circle>
                        <circle cx="177.7" cy="425.2" r="5"></circle>
                        <circle cx="177.7" cy="449.9" r="5"></circle>
                        <circle cx="177.7" cy="474.5" r="5"></circle>
                        <circle cx="153" cy="227.9" r="5"></circle>
                        <circle cx="153" cy="252.5" r="5"></circle>
                        <circle cx="153" cy="277.2" r="5"></circle>
                        <circle cx="153" cy="301.9" r="5"></circle>
                        <circle cx="153" cy="326.5" r="5"></circle>
                        <circle cx="153" cy="351.2" r="5"></circle>
                        <circle cx="153" cy="375.9" r="5"></circle>
                        <circle cx="153" cy="400.5" r="5"></circle>
                        <circle cx="153" cy="425.2" r="5"></circle>
                        <circle cx="153" cy="449.9" r="5"></circle>
                        <circle cx="153" cy="474.5" r="5"></circle>
                        <circle cx="128.4" cy="227.9" r="5"></circle>
                        <circle cx="128.4" cy="252.5" r="5"></circle>
                        <circle cx="128.4" cy="277.2" r="5"></circle>
                        <circle cx="128.4" cy="301.9" r="5"></circle>
                        <circle cx="128.4" cy="326.5" r="5"></circle>
                        <circle cx="128.4" cy="351.2" r="5"></circle>
                        <circle cx="128.4" cy="375.9" r="5"></circle>
                        <circle cx="128.4" cy="400.5" r="5"></circle>
                        <circle cx="128.4" cy="425.2" r="5"></circle>
                        <circle cx="128.4" cy="449.9" r="5"></circle>
                        <circle cx="128.4" cy="474.5" r="5"></circle>
                        <circle cx="128.4" cy="499.2" r="5"></circle>
                        <circle cx="103.7" cy="252.5" r="5"></circle>
                        <circle cx="103.7" cy="277.2" r="5"></circle>
                        <circle cx="103.7" cy="301.9" r="5"></circle>
                        <circle cx="103.7" cy="326.5" r="5"></circle>
                        <circle cx="103.7" cy="351.2" r="5"></circle>
                        <circle cx="103.7" cy="375.9" r="5"></circle>
                        <circle cx="103.7" cy="400.5" r="5"></circle>
                        <circle cx="103.7" cy="425.2" r="5"></circle>
                        <circle cx="103.7" cy="449.9" r="5"></circle>
                        <circle cx="103.7" cy="474.5" r="5"></circle>
                        <circle cx="103.7" cy="499.2" r="5"></circle>
                        <circle cx="103.7" cy="523.9" r="5"></circle>
                        <circle cx="79" cy="277.2" r="5"></circle>
                        <circle cx="79" cy="301.9" r="5"></circle>
                        <circle cx="79" cy="326.5" r="5"></circle>
                        <circle cx="79" cy="351.2" r="5"></circle>
                        <circle cx="79" cy="375.9" r="5"></circle>
                        <circle cx="79" cy="400.5" r="5"></circle>
                        <circle cx="79" cy="425.2" r="5"></circle>
                        <circle cx="79" cy="449.9" r="5"></circle>
                        <circle cx="79" cy="474.5" r="5"></circle>
                        <circle cx="79" cy="499.2" r="5"></circle>
                        <circle cx="79" cy="523.9" r="5"></circle>
                        <circle cx="79" cy="548.5" r="5"></circle>
                        <circle cx="54.4" cy="277.2" r="5"></circle>
                        <circle cx="54.4" cy="301.9" r="5"></circle>
                        <circle cx="54.4" cy="326.5" r="5"></circle>
                        <circle cx="54.4" cy="351.2" r="5"></circle>
                        <circle cx="54.4" cy="375.9" r="5"></circle>
                        <circle cx="54.4" cy="400.5" r="5"></circle>
                        <circle cx="54.4" cy="425.2" r="5"></circle>
                        <circle cx="54.4" cy="449.9" r="5"></circle>
                        <circle cx="54.4" cy="474.5" r="5"></circle>
                        <circle cx="54.4" cy="499.2" r="5"></circle>
                        <circle cx="54.4" cy="523.9" r="5"></circle>
                        <circle cx="54.4" cy="548.5" r="5"></circle>
                        <circle cx="54.4" cy="573.2" r="5"></circle>
                        <circle cx="29.7" cy="301.9" r="5"></circle>
                        <circle cx="29.7" cy="326.5" r="5"></circle>
                        <circle cx="29.7" cy="351.2" r="5"></circle>
                        <circle cx="29.7" cy="375.9" r="5"></circle>
                        <circle cx="29.7" cy="400.5" r="5"></circle>
                        <circle cx="29.7" cy="425.2" r="5"></circle>
                        <circle cx="29.7" cy="449.9" r="5"></circle>
                        <circle cx="29.7" cy="474.5" r="5"></circle>
                        <circle cx="29.7" cy="499.2" r="5"></circle>
                        <circle cx="29.7" cy="523.9" r="5"></circle>
                        <circle cx="29.7" cy="548.5" r="5"></circle>
                        <circle cx="29.7" cy="573.2" r="5"></circle>
                        <circle cx="29.7" cy="597.9" r="5"></circle>
                        <circle cx="5" cy="301.9" r="5"></circle>
                        <circle cx="5" cy="326.5" r="5"></circle>
                        <circle cx="5" cy="351.2" r="5"></circle>
                        <circle cx="5" cy="375.9" r="5"></circle>
                        <circle cx="5" cy="400.5" r="5"></circle>
                        <circle cx="5" cy="425.2" r="5"></circle>
                        <circle cx="5" cy="449.9" r="5"></circle>
                        <circle cx="5" cy="474.5" r="5"></circle>
                        <circle cx="5" cy="499.2" r="5"></circle>
                        <circle cx="5" cy="523.9" r="5"></circle>
                        <circle cx="5" cy="548.5" r="5"></circle>
                        <circle cx="5" cy="573.2" r="5"></circle>
                        <circle cx="5" cy="597.9" r="5"></circle>
                        <circle cx="5" cy="622.5" r="5"></circle>
                    </g>
                </g>
                <g transform="translate(200.000000, 3.000000)">
                    <g transform="translate(400.000000, 54.000000)" fill-rule="nonzero">
                        <g>
                            <circle id="Oval" fill="#F6E049" cx="146.1" cy="145.8" r="140.4"></circle>
                            <path d="M146.1,291.2 C65.9,291.2 0.7,226 0.7,145.8 C0.7,65.6 65.9,0.4 146.1,0.4 C226.3,0.4 291.5,65.6 291.5,145.8 C291.5,226 226.3,291.2 146.1,291.2 Z M146.1,10.4 C71.4,10.4 10.7,71.1 10.7,145.8 C10.7,220.5 71.4,281.2 146.1,281.2 C220.8,281.2 281.5,220.5 281.5,145.8 C281.5,71.2 220.7,10.4 146.1,10.4 Z" id="Shape" fill="#383A48"></path>
                        </g>
                        <path d="M146.1,205.8 C121.6,205.8 103.9,190 96.1,161.2 C95.4,158.5 97,155.8 99.6,155.1 C102.3,154.4 105,156 105.7,158.6 C112.3,183 126.2,195.8 146.1,195.8 C166,195.8 179.9,182.9 186.5,158.6 C187.2,155.9 190,154.4 192.6,155.1 C195.3,155.8 196.8,158.6 196.1,161.2 C188.3,190 170.6,205.8 146.1,205.8 Z" id="Path" fill="#383A48"></path>
                        <g transform="translate(171.000000, 112.000000)" id="Path">
                            <path d="M5.8,19.5 C5.8,11.5 12.3,5 20.3,5 C28.3,5 34.8,11.5 34.8,19.5" fill="#F6E049"></path>
                            <path d="M34.8,24.5 C32,24.5 29.8,22.3 29.8,19.5 C29.8,14.3 25.5,10 20.3,10 C15.1,10 10.8,14.3 10.8,19.5 C10.8,22.3 8.6,24.5 5.8,24.5 C3,24.5 0.8,22.3 0.8,19.5 C0.8,8.8 9.5,0 20.3,0 C31.1,0 39.8,8.7 39.8,19.5 C39.8,22.2 37.5,24.5 34.8,24.5 Z" fill="#383A48"></path>
                        </g>
                        <g transform="translate(81.000000, 112.000000)" id="Path">
                            <path d="M34.4,19.5 C34.4,11.5 27.9,5 19.9,5 C11.9,5 5.4,11.5 5.4,19.5" fill="#F6E049"></path>
                            <path d="M34.4,24.5 C31.6,24.5 29.4,22.3 29.4,19.5 C29.4,14.3 25.1,10 19.9,10 C14.7,10 10.4,14.3 10.4,19.5 C10.4,22.3 8.2,24.5 5.4,24.5 C2.6,24.5 0.4,22.3 0.4,19.5 C0.4,8.8 9.1,0 19.9,0 C30.7,0 39.4,8.7 39.4,19.5 C39.4,22.2 37.1,24.5 34.4,24.5 Z" fill="#383A48"></path>
                        </g>
                    </g>
                    <g transform="translate(205.000000, 257.000000)" fill-rule="nonzero">
                        <rect id="Rectangle" fill="#F3F6E6" x="5.2" y="5.7" width="647.3" height="571.1"></rect>
                        <path d="M652.5,581.9 L5.2,581.9 C2.4,581.9 0.2,579.7 0.2,576.9 L0.2,5.7 C0.2,2.9 2.4,0.7 5.2,0.7 L652.5,0.7 C655.3,0.7 657.5,2.9 657.5,5.7 L657.5,576.9 C657.5,579.7 655.2,581.9 652.5,581.9 Z M10.2,571.9 L647.5,571.9 L647.5,10.7 L10.2,10.7 L10.2,571.9 Z" id="Shape" fill="#383A48"></path>
                    </g>
                    <path d="M860.4,470.3 C859.1,469.4 857.4,469.1 855.9,469.6 C849.8,471.6 818.6,480.7 763.3,496.8 C695.9,516.3 655.3,585.2 670.8,653.6 L678.3,686.6 C686.7,723.7 710.6,755.4 743.9,773.7 C763.7,784.5 785.6,790 807.7,790 C822.8,790 837.9,787.4 852.4,782.2 C854.7,781.4 856.9,780.6 859.2,779.7 C861.2,779 862.5,777.1 862.5,775 L862.5,474.3 C862.5,472.7 861.7,471.2 860.4,470.3 Z" id="Path" fill="#383A48" fill-rule="nonzero"></path>
                    <g transform="translate(205.000000, 257.000000)" fill-rule="nonzero">
                        <rect id="Rectangle" fill="#7FD6C2" x="5.2" y="5.7" width="647.3" height="132"></rect>
                        <path d="M652.5,142.7 L5.2,142.7 C2.4,142.7 0.2,140.5 0.2,137.7 L0.2,5.7 C0.2,2.9 2.4,0.7 5.2,0.7 L652.5,0.7 C655.3,0.7 657.5,2.9 657.5,5.7 L657.5,137.7 C657.5,140.5 655.2,142.7 652.5,142.7 Z M10.2,132.7 L647.5,132.7 L647.5,10.7 L10.2,10.7 L10.2,132.7 Z" id="Shape" fill="#383A48"></path>
                    </g>
                    <g transform="translate(667.000000, 257.000000)" fill-rule="nonzero">
                        <path d="M190.5,184.3 L190.5,5.7 C293.5,5.7 460,71.7 443.5,250.4 C434.1,351.9 343.9,430 183.7,487.4 C111.6,513.2 33.1,470.1 16.2,395.4 L8.7,362.4 C-6.3,296.5 32.8,230.3 97.7,211.5 C141.7,198.8 183.2,186.7 190.5,184.3 Z" id="Path" fill="#F6E049"></path>
                        <path d="M140.8,500 C118.7,500 96.8,494.5 77,483.7 C43.7,465.4 19.8,433.7 11.4,396.7 L3.9,363.7 C-11.6,295.3 29,226.4 96.4,206.8 C144.2,192.9 174.7,184 185.6,180.7 L185.6,5.7 C185.6,2.9 187.8,0.7 190.6,0.7 C250,0.7 339.8,23.1 397.3,86.2 C437.4,130.1 454.6,185.5 448.6,250.9 C443.9,302.1 418.6,348.7 373.6,389.2 C330.1,428.4 266.8,463.1 185.5,492.2 C170.9,497.4 155.8,500 140.8,500 Z M195.5,10.8 L195.5,184.3 C195.5,186.5 194.1,188.4 192,189.1 C185.7,191.1 154.5,200.3 99.1,216.4 C36.8,234.5 -0.8,298.2 13.6,361.4 L21.1,394.4 C28.9,428.7 51,458 81.8,474.9 C112.5,491.8 149.1,494.7 182.1,482.8 C262.1,454.1 324.3,420.1 366.9,381.8 C410,343 434.1,298.7 438.6,250 C444.4,187.5 428,134.7 389.9,92.9 C336.1,34 252.8,12 195.5,10.8 Z" id="Shape" fill="#383A48"></path>
                    </g>
                    <g transform="translate(0.000000, 390.000000)" fill-rule="nonzero">
                        <path d="M372.8,367.5 C341.6,434.1 261.2,461.2 196.1,427.1 C156.1,406.1 119.2,386.5 109.8,380.5 C92.7,369.6 78.9,359.7 67.6,350 C31.9,319.6 11.5,283.3 6.9,242.2 C4,215.9 6.4,175.7 34.6,133.9 C44,119.9 55.5,106.9 69.9,94 C85.1,80.3 103.8,66.5 127.1,51.9 C159.8,31.3 206.7,6.9 210.3,5.1 C210.3,5.1 209.6,119.5 209.5,119.3 C214.2,121.5 267.7,146.5 321.9,171.8 C386.5,202 414.4,278.9 384.1,343.5 L372.8,367.5 Z" id="Path" fill="#F6E049"></path>
                        <path d="M255.7,446.9 C234.4,446.9 213.2,441.7 193.7,431.5 C144.4,405.7 115.2,389.9 107,384.7 C89.7,373.7 75.8,363.6 64.3,353.8 C27.6,322.5 6.6,285.2 1.9,242.8 C-1.1,215.6 1.4,174.2 30.4,131.1 C40,116.8 51.8,103.4 66.5,90.3 C81.9,76.4 100.9,62.5 124.4,47.7 C159.1,25.9 207.6,0.9 208,0.7 C209.6,-0.1 211.4,-2.91433544e-15 212.9,0.9 C214.4,1.8 215.3,3.4 215.3,5.2 C215.3,5.2 215.1,33.7 215,62.3 C214.9,76.6 214.8,90.9 214.7,101.6 C214.7,107 214.6,111.4 214.6,114.6 C214.6,115.2 214.6,115.8 214.6,116.3 C225.2,121.3 262,138.5 324.1,167.5 C356.6,182.7 381.2,209.6 393.4,243.3 C405.6,277 404,313.4 388.8,345.9 L377.6,369.9 C361.9,403.4 334,428.3 299,440.1 C284.6,444.5 270.1,446.9 255.7,446.9 Z M205.1,13.3 C189.8,21.4 154.9,40.1 129.7,56.1 C106.7,70.6 88.2,84.2 73.1,97.7 C59.1,110.3 47.8,123 38.6,136.7 C11.3,177.3 8.9,216.2 11.8,241.7 C16.2,281.5 36.1,316.7 70.8,346.2 C81.9,355.7 95.5,365.5 112.4,376.2 C120.3,381.2 150,397.3 198.4,422.6 C228.7,438.5 263.2,441.2 295.6,430.3 C328,419.4 353.8,396.3 368.3,365.4 L372.8,367.5 L368.3,365.4 L379.5,341.4 C393.6,311.4 395.1,277.7 383.8,246.5 C372.5,215.3 349.7,190.4 319.7,176.4 C249,143.4 211.2,125.7 207.3,123.8 C205.5,123 204.4,121.2 204.4,119.2 C204.4,119.1 204.4,119 204.4,118.8 C204.5,115 204.9,47.8 205.1,13.3 Z" id="Shape" fill="#383A48"></path>
                    </g>
                    <g transform="translate(667.000000, 574.000000)" id="Path">
                        <line x1="5.6" y1="19.9" x2="60" y2="5"></line>
                        <path d="M5.6,24.9 C3.4,24.9 1.4,23.4 0.8,21.2 C0.1,18.5 1.6,15.8 4.3,15.1 L58.7,0.2 C61.4,-0.5 64.1,1 64.8,3.7 C65.5,6.4 64,9.1 61.3,9.8 L6.9,24.7 C6.4,24.9 6,24.9 5.6,24.9 Z" fill="#383A48" fill-rule="nonzero"></path>
                    </g>
                    <g transform="translate(679.000000, 629.000000)" id="Path">
                        <line x1="5.6" y1="29.2" x2="63.8" y2="5.2"></line>
                        <path d="M5.7,34.2 C3.7,34.2 1.9,33 1.1,31.1 C2.27373675e-13,28.5 1.3,25.6 3.8,24.6 L62,0.6 C64.6,-0.5 67.5,0.8 68.5,3.3 C69.6,5.9 68.3,8.8 65.8,9.8 L7.6,33.8 C6.9,34.1 6.3,34.2 5.7,34.2 Z" fill="#383A48" fill-rule="nonzero"></path>
                    </g>
                    <g transform="translate(713.000000, 685.000000)" id="Path">
                        <line x1="5.4" y1="29.1" x2="59.9" y2="5.2"></line>
                        <path d="M5.4,34.1 C3.5,34.1 1.6,33 0.8,31.1 C-0.3,28.6 0.8,25.6 3.4,24.5 L57.9,0.6 C60.4,-0.5 63.4,0.6 64.5,3.2 C65.6,5.7 64.5,8.7 61.9,9.8 L7.4,33.7 C6.8,34 6.1,34.1 5.4,34.1 Z" fill="#383A48" fill-rule="nonzero"></path>
                    </g>
                    <g transform="translate(280.000000, 770.000000)" id="Path">
                        <line x1="53.6" y1="35.7" x2="5.8" y2="5.7"></line>
                        <path d="M53.6,40.7 C52.7,40.7 51.8,40.5 50.9,39.9 L3.1,9.9 C0.8,8.4 0.1,5.3 1.5,3 C3,0.7 6.1,1.13686838e-13 8.4,1.4 L56.2,31.4 C58.5,32.9 59.2,36 57.8,38.3 C56.9,39.8 55.3,40.7 53.6,40.7 Z" fill="#383A48" fill-rule="nonzero"></path>
                    </g>
                    <g transform="translate(310.000000, 721.000000)" id="Path">
                        <line x1="62.8" y1="32.2" x2="5.7" y2="5.7"></line>
                        <path d="M62.8,37.2 C62.1,37.2 61.4,37.1 60.7,36.7 L3.6,10.2 C1.1,9 -1.13686838e-13,6.1 1.2,3.6 C2.4,1.1 5.3,0 7.8,1.2 L64.9,27.7 C67.4,28.9 68.5,31.8 67.3,34.3 C66.5,36.1 64.7,37.2 62.8,37.2 Z" fill="#383A48" fill-rule="nonzero"></path>
                    </g>
                    <g transform="translate(331.000000, 661.000000)" id="Path">
                        <line x1="60.1" y1="29.6" x2="5.5" y2="5.6"></line>
                        <path d="M60.1,34.6 C59.4,34.6 58.7,34.5 58.1,34.2 L3.6,10.3 C1.1,9.2 -0.1,6.2 1,3.7 C2.1,1.2 5.1,0 7.6,1.1 L62.1,25 C64.6,26.1 65.8,29.1 64.7,31.6 C63.8,33.4 62,34.6 60.1,34.6 Z" fill="#383A48" fill-rule="nonzero"></path>
                    </g>
                    <g transform="translate(852.000000, 418.000000)" id="Path">
                        <line x1="5.5" y1="23.3" x2="53" y2="5.6"></line>
                        <path d="M5.5,28.3 C3.5,28.3 1.6,27.1 0.8,25 C-0.2,22.4 1.1,19.5 3.7,18.6 L51.2,0.9 C53.8,-0.1 56.7,1.2 57.6,3.8 C58.6,6.4 57.3,9.3 54.7,10.2 L7.2,27.9 C6.7,28.2 6.1,28.3 5.5,28.3 Z" fill="#383A48" fill-rule="nonzero"></path>
                    </g>
                    <g transform="translate(166.000000, 482.000000)" id="Path">
                        <line x1="43.4" y1="27.3" x2="5.7" y2="5.4"></line>
                        <path d="M43.4,32.3 C42.5,32.3 41.7,32.1 40.9,31.6 L3.2,9.7 C0.8,8.3 -1.13686838e-13,5.3 1.4,2.9 C2.8,0.5 5.8,-0.3 8.2,1.1 L45.9,23 C48.3,24.4 49.1,27.4 47.7,29.8 C46.8,31.4 45.1,32.3 43.4,32.3 Z" fill="#383A48" fill-rule="nonzero"></path>
                    </g>
                    <g transform="translate(686.000000, 309.000000)" fill="#383A48" fill-rule="nonzero">
                        <g transform="translate(97.000000, 3.000000)" id="Rectangle">
                            <rect transform="translate(15.976550, 15.530150) rotate(-45.000000) translate(-15.976550, -15.530150) " x="10.976598" y="-0.969691764" width="9.9999041" height="32.9996835"></rect>
                            <rect transform="translate(16.117860, 15.488740) rotate(-45.000000) translate(-16.117860, -15.488740) " x="-0.381981764" y="10.488788" width="32.9996835" height="9.9999041"></rect>
                        </g>
                        <path d="M81.6,36.2 L46.1,36.2 L46.1,0.7 L81.6,0.7 L81.6,36.2 Z M56.1,26.2 L71.6,26.2 L71.6,10.7 L56.1,10.7 L56.1,26.2 Z" id="Shape"></path>
                        <rect id="Rectangle" x="0.5" y="26.2" width="25.5" height="10"></rect>
                    </g>
                    <g transform="translate(405.000000, 492.000000)" fill-rule="nonzero">
                        <path d="M141.3,28 L129,42.8 L116,27.4 C93.9,1.2 54.7,-2.3 28.3,19.6 L28.3,19.6 C1.5,41.8 -2,81.5 20.4,108.1 L129.7,237.9 L237.6,108.1 C259.7,81.5 256,42 229.4,20 L229.4,20 C202.8,-2.2 163.4,1.4 141.3,28 Z" id="Path" fill="#E0719E"></path>
                        <path d="M129.7,242.8 C128.2,242.8 126.8,242.1 125.9,241 L16.6,111.2 C4.9,97.3 -0.6,79.7 1,61.7 C2.6,43.6 11.2,27.3 25.2,15.7 C53.7,-7.9 96.1,-4.1 120,24.1 L129,35 L137.5,24.8 L137.5,24.8 C161.3,-3.8 203.9,-7.8 232.5,16 C246.4,27.5 255,43.8 256.7,61.8 C258.4,79.8 252.9,97.3 241.4,111.2 L133.5,241 C132.6,242.1 131.2,242.8 129.7,242.8 L129.7,242.8 Z M68.2,10.2 C55.3,10.2 42.2,14.5 31.6,23.4 C19.7,33.3 12.3,47.2 11,62.6 C9.6,78 14.3,93 24.3,104.8 L129.7,230 L233.8,104.8 C243.6,93 248.3,78 246.8,62.7 C245.4,47.4 238.1,33.5 226.2,23.7 C201.8,3.5 165.5,6.9 145.2,31.2 L132.9,46 C132,47.1 130.6,47.8 129.1,47.8 L129.1,47.8 C127.6,47.8 126.2,47.2 125.3,46 L112.3,30.6 C100.9,17.1 84.6,10.2 68.2,10.2 Z" id="Shape" fill="#383A48"></path>
                    </g>
                    <g transform="translate(415.000000, 0.000000)" fill="#383A48" fill-rule="nonzero" id="Path">
                        <path d="M130.7,28.9 C127.9,28.9 125.7,26.7 125.7,23.9 L125.7,5.1 C125.7,2.3 127.9,0.1 130.7,0.1 C133.5,0.1 135.7,2.3 135.7,5.1 L135.7,23.9 C135.7,26.7 133.4,28.9 130.7,28.9 Z"></path>
                        <path d="M190.7,39.3 C190.1,39.3 189.6,39.2 189,39 C186.4,38.1 185.1,35.2 186,32.6 L192.4,14.9 C193.3,12.3 196.2,11 198.8,11.9 C201.4,12.8 202.7,15.7 201.8,18.3 L195.4,36 C194.7,38.1 192.8,39.3 190.7,39.3 Z"></path>
                        <path d="M243.7,69.5 C242.6,69.5 241.5,69.1 240.5,68.4 C238.4,66.6 238.1,63.5 239.8,61.4 L251.8,46.9 C253.6,44.8 256.7,44.5 258.8,46.2 C260.9,48 261.2,51.1 259.5,53.2 L247.5,67.7 C246.6,68.9 245.2,69.5 243.7,69.5 Z"></path>
                        <path d="M70.6,39.3 C68.6,39.3 66.6,38 65.9,36 L59.5,18.3 C58.6,15.7 59.9,12.8 62.5,11.9 C65.1,11 68,12.3 68.9,14.9 L75.3,32.6 C76.2,35.2 74.9,38.1 72.3,39 C71.7,39.2 71.1,39.3 70.6,39.3 Z"></path>
                        <path d="M17.6,69.5 C16.2,69.5 14.7,68.9 13.7,67.7 L1.7,53.2 C-0.1,51.1 0.2,47.9 2.4,46.2 C4.5,44.4 7.7,44.7 9.4,46.9 L21.4,61.4 C23.2,63.5 22.9,66.7 20.7,68.4 C19.8,69.1 18.7,69.5 17.6,69.5 Z"></path>
                    </g>
                </g>
                <g transform="translate(91.000000, 41.000000)" fill-rule="nonzero">
                    <g>
                        <path d="M190.5,150.5 L77.6,150.5 C37.6,150.5 5.1,118 5.1,78 L5.1,78 C5.1,38 37.6,5.5 77.6,5.5 L190.5,5.5 C230.5,5.5 263,38 263,78 L263,78 C263,118.1 230.6,150.5 190.5,150.5 Z" id="Path" fill="#AAC6FC"></path>
                        <path d="M190.5,155.5 L77.6,155.5 C34.9,155.5 0.1,120.7 0.1,78 C0.1,35.3 34.9,0.5 77.6,0.5 L190.5,0.5 C233.2,0.5 268,35.3 268,78 C268,120.7 233.3,155.5 190.5,155.5 Z M77.6,10.5 C40.4,10.5 10.1,40.8 10.1,78 C10.1,115.2 40.4,145.5 77.6,145.5 L190.5,145.5 C227.7,145.5 258,115.2 258,78 C258,40.8 227.7,10.5 190.5,10.5 L77.6,10.5 Z" id="Shape" fill="#383A48"></path>
                    </g>
                    <g transform="translate(64.000000, 50.000000)" fill="#383A48" id="Rectangle">
                        <rect x="0.4" y="0.6" width="139.3" height="10"></rect>
                        <rect x="0.4" y="44.9" width="82.3" height="10"></rect>
                    </g>
                </g>
                <g transform="translate(371.000000, 180.000000)" fill-rule="nonzero">
                    <circle id="Oval" fill="#AAC6FC" cx="30.1" cy="30.8" r="25"></circle>
                    <path d="M30.1,60.9 C13.6,60.9 0.1,47.4 0.1,30.9 C0.1,14.4 13.6,0.9 30.1,0.9 C46.6,0.9 60.1,14.4 60.1,30.9 C60.1,47.4 46.6,60.9 30.1,60.9 Z M30.1,10.8 C19.1,10.8 10.1,19.8 10.1,30.8 C10.1,41.8 19.1,50.8 30.1,50.8 C41.1,50.8 50.1,41.8 50.1,30.8 C50.1,19.8 41.1,10.8 30.1,10.8 Z" id="Shape" fill="#383A48"></path>
                </g>
                <g transform="translate(1121.000000, 0.000000)" fill-rule="nonzero">
                    <circle id="Oval" fill="#E0719E" cx="125.7" cy="125" r="119.9"></circle>
                    <path d="M118.4,249.7 C118.3,249.7 118.2,249.7 118.1,249.7 C114,249.5 109.8,249 105.7,248.3 C103,247.9 101.1,245.3 101.6,242.6 C102,239.9 104.6,238 107.3,238.5 C111.1,239.1 114.9,239.5 118.7,239.8 C121.5,240 123.6,242.3 123.4,245.1 C123.3,247.7 121.1,249.7 118.4,249.7 Z M148.3,247.8 C145.9,247.8 143.8,246.1 143.4,243.7 C142.9,241 144.7,238.4 147.4,237.9 C151.2,237.2 154.9,236.3 158.6,235.2 C161.2,234.4 164,235.9 164.8,238.6 C165.6,241.2 164.1,244 161.4,244.8 C157.4,246 153.3,247 149.3,247.8 C148.9,247.8 148.6,247.8 148.3,247.8 Z M77.8,240 C77.1,240 76.5,239.9 75.8,239.6 C72,237.9 68.2,236.1 64.6,234 C62.2,232.6 61.3,229.6 62.7,227.2 C64.1,224.8 67.1,223.9 69.5,225.3 C72.8,227.2 76.3,228.9 79.8,230.4 C82.3,231.5 83.5,234.5 82.4,237 C81.6,238.9 79.7,240 77.8,240 Z M187.3,232.9 C185.6,232.9 183.9,232 183,230.5 C181.6,228.1 182.3,225.1 184.7,223.6 C188,221.6 191.2,219.5 194.2,217.2 C196.4,215.6 199.5,216 201.2,218.2 C202.8,220.4 202.4,223.5 200.2,225.2 C196.9,227.7 193.4,230 189.8,232.2 C189.1,232.7 188.2,232.9 187.3,232.9 Z M43,216.9 C41.8,216.9 40.5,216.4 39.6,215.5 C36.6,212.6 33.7,209.6 31,206.4 C29.2,204.3 29.4,201.2 31.5,199.3 C33.6,197.5 36.7,197.7 38.6,199.8 C41.1,202.7 43.8,205.5 46.5,208.1 C48.5,210 48.6,213.2 46.7,215.2 C45.7,216.3 44.3,216.9 43,216.9 Z M218.9,205.5 C217.8,205.5 216.7,205.1 215.8,204.4 C213.7,202.7 213.3,199.5 215.1,197.4 C217.5,194.4 219.8,191.3 221.9,188.1 C223.4,185.8 226.5,185.2 228.8,186.7 C231.1,188.2 231.7,191.3 230.2,193.6 C227.9,197.1 225.4,200.5 222.8,203.7 C221.8,204.9 220.3,205.5 218.9,205.5 Z M18.2,183.2 C16.4,183.2 14.6,182.2 13.7,180.4 C11.9,176.7 10.2,172.8 8.7,168.9 C7.7,166.3 9,163.4 11.6,162.5 C14.2,161.5 17.1,162.8 18,165.4 C19.3,169 20.9,172.5 22.6,175.9 C23.8,178.4 22.8,181.4 20.3,182.6 C19.7,183.1 19,183.2 18.2,183.2 Z M239.1,169 C238.6,169 238,168.9 237.5,168.7 C234.9,167.8 233.5,165 234.4,162.3 C235.6,158.7 236.7,155 237.6,151.3 C238.2,148.6 240.9,146.9 243.6,147.6 C246.3,148.2 248,150.9 247.3,153.6 C246.4,157.6 245.2,161.7 243.8,165.6 C243.2,167.7 241.2,169 239.1,169 Z M6.5,143.1 C4,143.1 1.8,141.2 1.5,138.6 C1.1,134.5 0.8,130.3 0.8,126.1 C0.8,123.3 3,121.1 5.8,121.1 L5.8,121.1 C8.5,121.1 10.8,123.3 10.8,126.1 C10.8,129.9 11.1,133.8 11.5,137.6 C11.8,140.3 9.8,142.8 7.1,143.1 C6.9,143.1 6.7,143.1 6.5,143.1 Z M245.6,130 C242.8,130 240.6,127.8 240.6,125 C240.6,121.2 240.4,117.3 240,113.5 C239.7,110.8 241.7,108.3 244.5,108 C247.3,107.7 249.7,109.7 250,112.5 C250.4,116.6 250.6,120.8 250.6,125 C250.6,127.8 248.4,130 245.6,130 Z M9.2,101.4 C8.8,101.4 8.4,101.4 8,101.3 C5.3,100.6 3.7,97.9 4.3,95.3 C5.3,91.3 6.5,87.2 7.9,83.3 C8.8,80.7 11.7,79.3 14.3,80.3 C16.9,81.2 18.3,84.1 17.3,86.7 C16,90.3 14.9,94 14,97.7 C13.5,99.9 11.5,101.4 9.2,101.4 Z M238.4,88.9 C236.4,88.9 234.4,87.6 233.7,85.6 C232.4,82 230.9,78.5 229.2,75 C228,72.5 229,69.5 231.5,68.3 C234,67.1 237,68.1 238.2,70.6 C240,74.3 241.6,78.2 243.1,82.1 C244,84.7 242.7,87.6 240.1,88.5 C239.5,88.8 238.9,88.9 238.4,88.9 Z M26.1,63.2 C25.1,63.2 24.2,62.9 23.3,62.3 C21,60.8 20.4,57.7 21.9,55.4 C24.2,52 26.7,48.6 29.4,45.4 C31.2,43.3 34.3,43 36.4,44.7 C38.5,46.5 38.8,49.6 37.1,51.7 C34.7,54.6 32.4,57.7 30.2,60.9 C29.3,62.5 27.7,63.2 26.1,63.2 Z M217.4,52.7 C216,52.7 214.6,52.1 213.6,50.9 C211.1,48 208.5,45.2 205.8,42.5 C203.8,40.6 203.8,37.4 205.7,35.4 C207.6,33.4 210.8,33.4 212.8,35.3 C215.8,38.2 218.6,41.3 221.3,44.4 C223.1,46.5 222.8,49.7 220.7,51.4 C219.7,52.4 218.5,52.7 217.4,52.7 Z M55.1,33.1 C53.6,33.1 52,32.4 51.1,31 C49.5,28.8 50,25.6 52.2,24 C55.6,21.6 59.1,19.2 62.6,17.1 C65,15.7 68,16.5 69.4,18.9 C70.8,21.3 70,24.3 67.6,25.7 C64.3,27.6 61.1,29.8 58,32 C57.1,32.8 56.1,33.1 55.1,33.1 Z M185.3,26 C184.5,26 183.6,25.8 182.8,25.3 C179.5,23.4 176,21.6 172.6,20.1 C170.1,19 169,16 170.1,13.5 C171.2,11 174.2,9.9 176.7,11 C180.5,12.7 184.2,14.6 187.8,16.7 C190.2,18.1 191,21.1 189.6,23.5 C188.7,25.1 187.1,26 185.3,26 Z M92.6,14.7 C90.4,14.7 88.4,13.3 87.8,11.1 C87,8.4 88.6,5.7 91.2,4.9 C95.2,3.8 99.3,2.8 103.4,2.1 C106.1,1.6 108.7,3.4 109.2,6.1 C109.7,8.8 107.9,11.4 105.2,11.9 C101.4,12.6 97.7,13.5 94,14.5 C93.5,14.7 93,14.7 92.6,14.7 Z M146,11.8 C145.7,11.8 145.4,11.8 145.2,11.7 C141.4,11.1 137.6,10.6 133.8,10.3 C131,10.1 129,7.7 129.2,5 C129.4,2.2 131.8,0.2 134.5,0.4 C138.6,0.7 142.8,1.2 146.9,1.9 C149.6,2.4 151.5,4.9 151,7.7 C150.5,10.1 148.4,11.8 146,11.8 Z" id="Shape" fill="#383A48"></path>
                </g>
                <path d="M1117,149.8 C1109.6,149.8 1102.6,146.9 1097.3,141.7 L1085.4,129.8 C1078.4,122.9 1067.1,122.9 1060.2,129.8 L1047.1,142.9 C1045.1,144.9 1042,144.9 1040,142.9 C1038,140.9 1038,137.8 1040,135.8 L1053.1,122.7 C1058.4,117.4 1065.3,114.5 1072.8,114.5 L1072.8,114.5 C1080.2,114.5 1087.2,117.4 1092.5,122.6 L1104.4,134.5 C1107.8,137.9 1112.2,139.7 1117,139.7 L1117,139.7 C1121.8,139.7 1126.2,137.8 1129.6,134.5 L1141.5,122.6 C1146.8,117.3 1153.7,114.4 1161.2,114.4 L1161.2,114.4 C1168.6,114.4 1175.6,117.3 1180.9,122.5 L1192.8,134.4 C1199.8,141.3 1211.1,141.3 1218,134.4 L1229.9,122.5 C1235.2,117.2 1242.1,114.3 1249.6,114.3 L1249.6,114.3 C1257,114.3 1264,117.2 1269.3,122.4 L1281.3,134.4 C1283.3,136.4 1283.3,139.5 1281.3,141.5 C1279.3,143.5 1276.2,143.5 1274.2,141.5 L1262.2,129.5 C1258.8,126.1 1254.4,124.3 1249.6,124.3 L1249.6,124.3 C1244.8,124.3 1240.4,126.2 1237,129.5 L1225.1,141.4 C1214.3,152.3 1196.6,152.3 1185.8,141.4 L1173.9,129.5 C1166.9,122.6 1155.6,122.6 1148.7,129.5 L1136.8,141.4 C1131.5,146.9 1124.5,149.8 1117,149.8 L1117,149.8 Z" id="Path" fill="#383A48" fill-rule="nonzero"></path>
                <path d="M135.2,734.6 C133.4,734.6 131.6,733.6 130.8,731.9 C129.4,729.2 128,726.4 126.7,723.7 C125.5,721.2 126.6,718.2 129.1,717 C131.6,715.8 134.6,716.9 135.8,719.4 C137,722 138.3,724.7 139.7,727.3 C141,729.8 140,732.8 137.5,734 C136.8,734.4 136,734.6 135.2,734.6 Z M120.1,698.7 C118,698.7 116,697.4 115.4,695.3 C114.1,691.4 112.9,687.5 111.9,683.6 C111.2,680.9 112.7,678.2 115.4,677.5 C118.1,676.8 120.8,678.3 121.5,681 C122.5,684.8 123.7,688.5 124.9,692.3 C125.8,694.9 124.3,697.7 121.7,698.6 C121.2,698.6 120.6,698.7 120.1,698.7 Z M110.5,657.9 C108.1,657.9 105.9,656.1 105.6,653.6 C105.2,650.7 104.8,647.7 104.5,644.8 C104.4,643.7 104.3,642.6 104.2,641.5 C103.9,638.8 105.9,636.3 108.7,636 C111.5,635.8 113.9,637.7 114.2,640.5 C114.3,641.6 114.4,642.6 114.5,643.7 C114.8,646.5 115.2,649.4 115.6,652.2 C116,654.9 114.1,657.5 111.4,657.9 C111,657.8 110.7,657.9 110.5,657.9 Z M107.9,616 L107.8,616 C105,615.9 102.9,613.6 102.9,610.9 C103,606.8 103.2,602.7 103.5,598.7 C103.7,595.9 106.1,593.9 108.8,594.1 C111.6,594.3 113.6,596.7 113.4,599.4 C113.1,603.3 112.9,607.2 112.8,611.1 C112.9,613.8 110.6,616 107.9,616 Z M112.4,574.3 C112.1,574.3 111.8,574.3 111.4,574.2 C108.7,573.7 106.9,571.1 107.4,568.3 C107.5,567.5 107.7,566.8 107.9,566 C108.6,562.8 109.3,559.5 110,556.4 C110.7,553.7 113.4,552.1 116,552.7 C118.7,553.4 120.3,556.1 119.7,558.7 C119,561.8 118.3,564.9 117.6,568 C117.4,568.7 117.3,569.5 117.2,570.2 C116.9,572.6 114.8,574.3 112.4,574.3 Z M123.8,533.9 C123.2,533.9 122.6,533.8 122.1,533.6 C119.5,532.6 118.2,529.8 119.2,527.2 C120.6,523.4 122.1,519.6 123.7,515.8 C124.8,513.3 127.7,512.1 130.3,513.2 C132.8,514.3 134,517.2 132.9,519.8 C131.4,523.4 129.9,527.1 128.5,530.7 C127.7,532.6 125.8,533.9 123.8,533.9 Z M141.6,495.9 C140.8,495.9 139.9,495.7 139.1,495.2 C136.7,493.8 135.9,490.8 137.2,488.4 C139.2,484.9 141.3,481.4 143.5,477.9 C145,475.6 148.1,474.9 150.4,476.3 C152.7,477.7 153.4,480.9 152,483.2 C149.9,486.5 147.9,489.9 145.9,493.3 C145,495 143.3,495.9 141.6,495.9 Z M165.1,461.1 C164,461.1 162.9,460.7 162,460 C159.8,458.3 159.5,455.1 161.2,453 C163.7,449.9 166.3,446.7 169,443.6 C170.8,441.5 174,441.3 176.1,443.1 C178.2,444.9 178.4,448.1 176.6,450.2 C174,453.2 171.5,456.3 169.1,459.3 C168,460.5 166.6,461.1 165.1,461.1 Z M193.4,430.1 C192.1,430.1 190.8,429.6 189.8,428.6 C187.9,426.6 188,423.4 189.9,421.5 C192.7,418.8 195.7,416.1 198.6,413.4 L198.8,413.2 C200.9,411.4 204,411.5 205.9,413.6 C207.7,415.7 207.6,418.8 205.5,420.7 L205.3,420.9 C202.4,423.5 199.6,426.1 196.8,428.8 C195.9,429.7 194.6,430.1 193.4,430.1 Z M225.3,402.8 C223.8,402.8 222.3,402.1 221.3,400.9 C219.6,398.7 220,395.6 222.2,393.9 C225.3,391.5 228.6,389 231.9,386.6 C234.1,385 237.3,385.5 238.9,387.7 C240.5,389.9 240,393.1 237.8,394.7 C234.6,397.1 231.4,399.5 228.3,401.8 C227.4,402.5 226.3,402.8 225.3,402.8 Z M259.5,378.6 C257.9,378.6 256.3,377.8 255.3,376.3 C253.8,374 254.4,370.9 256.7,369.4 C260,367.2 263.4,365 266.9,362.9 C269.2,361.4 272.3,362.1 273.8,364.5 C275.3,366.8 274.6,369.9 272.2,371.4 C268.8,373.5 265.4,375.7 262.2,377.8 C261.4,378.3 260.5,378.6 259.5,378.6 Z" id="Shape" fill="#383A48" fill-rule="nonzero"></path>
                <path d="M160.9,394.1 C159.5,394.1 158.2,393.6 157.2,392.5 C155.3,390.5 155.5,387.3 157.5,385.4 C158.5,384.5 159.5,383.6 160.5,382.7 C162.5,380.9 164.5,379.1 166.6,377.3 C168.7,375.5 171.8,375.7 173.7,377.8 C175.5,379.9 175.3,383 173.2,384.9 C171.2,386.6 169.2,388.4 167.3,390.1 C166.3,391 165.3,391.9 164.4,392.8 C163.3,393.6 162.1,394.1 160.9,394.1 Z M193.2,367.3 C191.7,367.3 190.2,366.6 189.2,365.3 C187.5,363.1 188,360 190.2,358.3 C193.3,355.9 196.6,353.5 199.9,351.1 C202.1,349.5 205.3,350 206.9,352.2 C208.5,354.4 208,357.6 205.8,359.2 C202.5,361.6 199.3,363.9 196.2,366.3 C195.3,366.9 194.2,367.3 193.2,367.3 Z M227.6,343.2 C226,343.2 224.4,342.4 223.4,340.9 C221.9,338.6 222.5,335.5 224.9,334 C228.2,331.9 231.6,329.7 235.1,327.5 C237.4,326 240.5,326.7 242,329.1 C243.5,331.5 242.8,334.5 240.4,336 C237,338.1 233.6,340.3 230.4,342.4 C229.5,342.9 228.5,343.2 227.6,343.2 Z" id="Shape" fill="#383A48" fill-rule="nonzero"></path>
                <g transform="translate(956.000000, 157.000000)">
                    <g>
                        <line x1="4.3" y1="4.4" x2="26.7" y2="26.8" id="Path"></line>
                        <rect id="Rectangle" fill="#383A48" fill-rule="nonzero" transform="translate(15.450855, 15.541455) rotate(-45.000000) translate(-15.450855, -15.541455) " x="10.450903" y="-0.308392998" width="9.9999041" height="31.699696"></rect>
                    </g>
                    <g>
                        <line x1="4.3" y1="26.8" x2="26.7" y2="4.4" id="Path"></line>
                        <rect id="Rectangle" fill="#383A48" fill-rule="nonzero" transform="translate(15.542265, 15.591455) rotate(-45.000000) translate(-15.542265, -15.591455) " x="-0.307582998" y="10.591503" width="31.699696" height="9.9999041"></rect>
                    </g>
                </g>
                <g transform="translate(75.000000, 243.000000)">
                    <g>
                        <line x1="3.9" y1="3.6" x2="26.3" y2="26" id="Path"></line>
                        <rect id="Rectangle" fill="#383A48" fill-rule="nonzero" transform="translate(15.002025, 14.784925) rotate(-45.000000) translate(-15.002025, -14.784925) " x="10.002073" y="-1.064923" width="9.9999041" height="31.699696"></rect>
                    </g>
                    <g>
                        <line x1="3.9" y1="26" x2="26.3" y2="3.6" id="Path"></line>
                        <rect id="Rectangle" fill="#383A48" fill-rule="nonzero" transform="translate(15.022735, 14.805625) rotate(-45.000000) translate(-15.022735, -14.805625) " x="-0.827112998" y="9.80567295" width="31.699696" height="9.9999041"></rect>
                    </g>
                </g>
                <g transform="translate(1390.000000, 718.000000)">
                    <g>
                        <line x1="3.9" y1="3.6" x2="26.3" y2="26" id="Path"></line>
                        <rect id="Rectangle" fill="#383A48" fill-rule="nonzero" transform="translate(15.102045, 14.837925) rotate(-45.000000) translate(-15.102045, -14.837925) " x="10.102093" y="-1.011923" width="9.9999041" height="31.699696"></rect>
                    </g>
                    <g>
                        <line x1="3.9" y1="26" x2="26.3" y2="3.6" id="Path"></line>
                        <rect id="Rectangle" fill="#383A48" fill-rule="nonzero" transform="translate(15.146245, 14.797615) rotate(-45.000000) translate(-15.146245, -14.797615) " x="-0.703602998" y="9.79766295" width="31.699696" height="9.9999041"></rect>
                    </g>
                </g>
                <g transform="translate(64.000000, 773.000000)">
                    <g>
                        <line x1="3.7" y1="3.8" x2="26.1" y2="26.2" id="Path"></line>
                        <rect id="Rectangle" fill="#383A48" fill-rule="nonzero" transform="translate(14.915045, 15.035665) rotate(-45.000000) translate(-14.915045, -15.035665) " x="9.91509295" y="-0.814182998" width="9.9999041" height="31.699696"></rect>
                    </g>
                    <g>
                        <line x1="3.7" y1="26.2" x2="26.1" y2="3.8" id="Path"></line>
                        <rect id="Rectangle" fill="#383A48" fill-rule="nonzero" transform="translate(14.823635, 14.985665) rotate(-45.000000) translate(-14.823635, -14.985665) " x="-1.026213" y="9.98571295" width="31.699696" height="9.9999041"></rect>
                    </g>
                </g>
            </g>
        </g>
    </g>
</svg>