<svg xmlns="http://www.w3.org/2000/svg" xmlns:xlink="http://www.w3.org/1999/xlink" width="1540" height="778" version="1.1" viewBox="0 0 1540 778"><title>library</title><desc>Created with Sketch.</desc><g id="Page-1" fill="none" fill-rule="evenodd" stroke="none" stroke-width="1"><g id="library" transform="translate(-190.000000, -151.000000)"><g id="Group" transform="translate(190.000000, 151.000000)"><path id="Path" fill="#F3F6E6" fill-rule="nonzero" d="M1534.9,1.7 C1532.1,1.7 1529.9,3.9 1529.9,6.7 C1529.9,119.8 1482.4,159.1 1427.3,204.7 C1387.8,237.4 1343.1,274.4 1314.5,344.6 C1299.1,382.3 1276.3,410.4 1242.6,433 C1212.7,453.1 1177.5,466.2 1143.5,479 C1043,516.6 939,555.6 939,772.4 C939,775.2 941.2,777.4 944,777.4 L1534.9,777.4 C1537.7,777.4 1539.9,775.2 1539.9,772.4 L1539.9,6.7 C1539.9,4 1537.7,1.7 1534.9,1.7 Z"/><path id="Path" fill="#383A48" fill-rule="nonzero" d="M1239.2,444.2 C1239.2,442.5 1238.3,440.9 1236.8,440 C1235.3,439.1 1233.5,439 1232,439.7 L1180.3,464.8 C1178.6,465.6 1177.5,467.4 1177.5,469.3 L1177.5,556.9 C1177.5,558.3 1178.1,559.6 1179.1,560.5 C1180,561.4 1181.3,561.9 1182.5,561.9 C1182.6,561.9 1182.7,561.9 1182.8,561.9 L1235,558.6 C1237.6,558.4 1239.7,556.2 1239.7,553.6 L1239.2,444.2 Z"/><path id="Shape" fill="#F3F6E6" fill-rule="nonzero" d="M1142.8,1.7 L1032.7,1.7 L922.6,1.7 L812.5,1.7 L702.4,1.7 L592.4,1.7 L482.3,1.7 L372.2,1.7 L262.1,1.7 L152,1.7 L41.9,1.7 C39.1,1.7 36.9,3.9 36.9,6.7 L36.9,116.1 L36.9,225.5 L36.9,334.9 L36.9,444.3 L36.9,553.7 L36.9,663 L36.9,772.4 C36.9,775.2 39.1,777.4 41.9,777.4 L152,777.4 L262.1,777.4 L372.2,777.4 L482.3,777.4 L592.4,777.4 L702.5,777.4 L812.6,777.4 L922.7,777.4 L1032.8,777.4 L1142.9,777.4 C1145.7,777.4 1147.9,775.2 1147.9,772.4 L1147.9,663 L1147.9,553.6 L1147.9,444.2 L1147.9,334.8 L1147.9,225.5 L1147.9,116.1 L1147.9,6.7 C1147.8,4 1145.6,1.7 1142.8,1.7 Z M1137.8,220.5 L1037.7,220.5 L1037.7,121.1 L1137.8,121.1 L1137.8,220.5 Z M1137.8,329.8 L1037.7,329.8 L1037.7,230.4 L1137.8,230.4 L1137.8,329.8 Z M1137.8,439.2 L1037.7,439.2 L1037.7,339.8 L1137.8,339.8 L1137.8,439.2 Z M1137.8,548.6 L1037.7,548.6 L1037.7,449.2 L1137.8,449.2 L1137.8,548.6 Z M46.9,449.2 L147,449.2 L147,548.6 L46.9,548.6 L46.9,449.2 Z M46.9,339.8 L147,339.8 L147,439.2 L46.9,439.2 L46.9,339.8 Z M46.9,230.5 L147,230.5 L147,329.9 L46.9,329.9 L46.9,230.5 Z M157,339.8 L257.1,339.8 L257.1,439.2 L157,439.2 L157,339.8 Z M267.1,339.8 L367.2,339.8 L367.2,439.2 L267.1,439.2 L267.1,339.8 Z M377.2,339.8 L477.3,339.8 L477.3,439.2 L377.2,439.2 L377.2,339.8 Z M487.3,339.8 L587.4,339.8 L587.4,439.2 L487.3,439.2 L487.3,339.8 Z M597.4,339.8 L697.5,339.8 L697.5,439.2 L597.4,439.2 L597.4,339.8 Z M707.4,339.8 L807.5,339.8 L807.5,439.2 L707.4,439.2 L707.4,339.8 Z M817.5,339.8 L917.6,339.8 L917.6,439.2 L817.5,439.2 L817.5,339.8 L817.5,339.8 Z M927.6,339.8 L1027.7,339.8 L1027.7,439.2 L927.6,439.2 L927.6,339.8 Z M1027.7,329.8 L927.6,329.8 L927.6,230.4 L1027.7,230.4 L1027.7,329.8 Z M917.6,329.8 L817.5,329.8 L817.5,230.4 L917.6,230.4 L917.6,329.8 Z M807.5,329.8 L707.4,329.8 L707.4,230.4 L807.5,230.4 L807.5,329.8 Z M697.4,329.8 L597.4,329.8 L597.4,230.4 L697.5,230.4 L697.4,329.8 L697.4,329.8 Z M587.4,329.8 L487.3,329.8 L487.3,230.4 L587.4,230.4 L587.4,329.8 L587.4,329.8 Z M477.3,329.8 L377.2,329.8 L377.2,230.4 L477.3,230.4 L477.3,329.8 L477.3,329.8 Z M367.2,329.8 L267.1,329.8 L267.1,230.4 L367.2,230.4 L367.2,329.8 Z M257.1,329.8 L157,329.8 L157,230.4 L257.1,230.4 L257.1,329.8 Z M157,449.2 L257.1,449.2 L257.1,548.6 L157,548.6 L157,449.2 Z M267.1,449.2 L367.2,449.2 L367.2,548.6 L267.1,548.6 L267.1,449.2 Z M377.2,449.2 L477.3,449.2 L477.3,548.6 L377.2,548.6 L377.2,449.2 Z M487.3,449.2 L587.4,449.2 L587.4,548.6 L487.3,548.6 L487.3,449.2 Z M597.4,449.2 L697.5,449.2 L697.5,548.6 L597.4,548.6 L597.4,449.2 Z M707.4,449.2 L807.5,449.2 L807.5,548.6 L707.4,548.6 L707.4,449.2 Z M817.5,449.2 L917.6,449.2 L917.6,548.6 L817.5,548.6 L817.5,449.2 L817.5,449.2 Z M927.6,449.2 L1027.7,449.2 L1027.7,548.6 L927.6,548.6 L927.6,449.2 Z M1027.7,220.5 L927.6,220.5 L927.6,121.1 L1027.7,121.1 L1027.7,220.5 Z M917.6,220.5 L817.5,220.5 L817.5,121.1 L917.6,121.1 L917.6,220.5 Z M807.5,220.5 L707.4,220.5 L707.4,121.1 L807.5,121.1 L807.5,220.5 Z M697.4,220.5 L597.4,220.5 L597.4,121.1 L697.5,121.1 L697.4,220.5 L697.4,220.5 Z M587.4,220.5 L487.3,220.5 L487.3,121.1 L587.4,121.1 L587.4,220.5 L587.4,220.5 Z M477.3,220.5 L377.2,220.5 L377.2,121.1 L477.3,121.1 L477.3,220.5 L477.3,220.5 Z M367.2,220.5 L267.1,220.5 L267.1,121.1 L367.2,121.1 L367.2,220.5 Z M257.1,220.5 L157,220.5 L157,121.1 L257.1,121.1 L257.1,220.5 Z M147,220.5 L46.9,220.5 L46.9,121.1 L147,121.1 L147,220.5 Z M46.9,558.6 L147,558.6 L147,658 L46.9,658 L46.9,558.6 Z M157,558.6 L257.1,558.6 L257.1,658 L157,658 L157,558.6 Z M267.1,558.6 L367.2,558.6 L367.2,658 L267.1,658 L267.1,558.6 Z M377.2,558.6 L477.3,558.6 L477.3,658 L377.2,658 L377.2,558.6 Z M487.3,558.6 L587.4,558.6 L587.4,658 L487.3,658 L487.3,558.6 Z M597.4,558.6 L697.5,558.6 L697.5,658 L597.4,658 L597.4,558.6 Z M707.4,558.6 L807.5,558.6 L807.5,658 L707.4,658 L707.4,558.6 Z M817.5,558.6 L917.6,558.6 L917.6,658 L817.5,658 L817.5,558.6 L817.5,558.6 Z M927.6,558.6 L1027.7,558.6 L1027.7,658 L927.6,658 L927.6,558.6 Z M1037.7,558.6 L1137.8,558.6 L1137.8,658 L1037.7,658 L1037.7,558.6 Z M1137.8,111.1 L1037.7,111.1 L1037.7,11.7 L1137.8,11.7 L1137.8,111.1 Z M1027.7,111.1 L927.6,111.1 L927.6,11.7 L1027.7,11.7 L1027.7,111.1 Z M917.6,111.1 L817.5,111.1 L817.5,11.7 L917.6,11.7 L917.6,111.1 Z M807.5,111.1 L707.4,111.1 L707.4,11.7 L807.5,11.7 L807.5,111.1 Z M697.4,111.1 L597.4,111.1 L597.4,11.7 L697.5,11.7 L697.4,111.1 L697.4,111.1 Z M587.4,111.1 L487.3,111.1 L487.3,11.7 L587.4,11.7 L587.4,111.1 L587.4,111.1 Z M477.3,111.1 L377.2,111.1 L377.2,11.7 L477.3,11.7 L477.3,111.1 L477.3,111.1 Z M367.2,111.1 L267.1,111.1 L267.1,11.7 L367.2,11.7 L367.2,111.1 Z M257.1,111.1 L157,111.1 L157,11.7 L257.1,11.7 L257.1,111.1 Z M46.9,11.7 L147,11.7 L147,111.1 L46.9,111.1 L46.9,11.7 Z M46.9,668 L147,668 L147,767.4 L46.9,767.4 L46.9,668 Z M157,668 L257.1,668 L257.1,767.4 L157,767.4 L157,668 Z M267.1,668 L367.2,668 L367.2,767.4 L267.1,767.4 L267.1,668 Z M377.2,668 L477.3,668 L477.3,767.4 L377.2,767.4 L377.2,668 Z M487.3,668 L587.4,668 L587.4,767.4 L487.3,767.4 L487.3,668 Z M597.4,668 L697.5,668 L697.5,767.4 L597.4,767.4 L597.4,668 Z M707.4,668 L807.5,668 L807.5,767.4 L707.4,767.4 L707.4,668 Z M817.5,668 L917.6,668 L917.6,767.4 L817.5,767.4 L817.5,668 L817.5,668 Z M927.6,668 L1027.7,668 L1027.7,767.4 L927.6,767.4 L927.6,668 Z M1137.8,767.4 L1037.7,767.4 L1037.7,668 L1137.8,668 L1137.8,767.4 Z"/><g fill-rule="nonzero" transform="translate(611.000000, 310.000000)"><g transform="translate(90.000000, 0.000000)"><rect id="Rectangle" width="486.6" height="457.3" x="5.8" y="5" fill="#F3F6E6"/><path id="Shape" fill="#383A48" d="M492.4,467.4 L5.8,467.4 C3,467.4 0.8,465.2 0.8,462.4 L0.8,5 C0.8,2.2 3,0 5.8,0 L492.4,0 C495.2,0 497.4,2.2 497.4,5 L497.4,462.3 C497.4,465.1 495.2,467.4 492.4,467.4 Z M10.8,457.4 L487.4,457.4 L487.4,10 L10.8,10 L10.8,457.4 Z"/></g><g><rect id="Rectangle" width="475.3" height="457.3" x="5.9" y="5" fill="#AAC6FC"/><path id="Shape" fill="#383A48" d="M481.2,467.4 L5.9,467.4 C3.1,467.4 0.9,465.2 0.9,462.4 L0.9,5 C0.9,2.2 3.1,0 5.9,0 L481.2,0 C484,0 486.2,2.2 486.2,5 L486.2,462.3 C486.2,465.1 484,467.4 481.2,467.4 Z M10.9,457.4 L476.2,457.4 L476.2,10 L10.9,10 L10.9,457.4 Z"/></g><g transform="translate(105.000000, 95.000000)"><rect id="Rectangle" width="270.8" height="153" x="5" y="5.4" fill="#E0719E"/><path id="Shape" fill="#383A48" d="M275.8,163.4 L5,163.4 C2.2,163.4 0,161.2 0,158.4 L0,5.4 C0,2.6 2.2,0.4 5,0.4 L275.8,0.4 C278.6,0.4 280.8,2.6 280.8,5.4 L280.8,158.4 C280.8,161.1 278.6,163.4 275.8,163.4 Z M10,153.4 L270.8,153.4 L270.8,10.4 L10,10.4 L10,153.4 Z"/></g><path id="Path" fill="#383A48" d="M332.1,162.8 L158.7,162.8 C155.9,162.8 153.7,160.6 153.7,157.8 C153.7,155 155.9,152.8 158.7,152.8 L332.1,152.8 C334.9,152.8 337.1,155 337.1,157.8 C337.1,160.6 334.9,162.8 332.1,162.8 Z"/><path id="Path" fill="#383A48" d="M332.1,205 L158.7,205 C155.9,205 153.7,202.8 153.7,200 C153.7,197.2 155.9,195 158.7,195 L332.1,195 C334.9,195 337.1,197.2 337.1,200 C337.1,202.8 334.9,205 332.1,205 Z"/></g><g fill-rule="nonzero" transform="translate(474.000000, 219.000000)"><g transform="translate(90.000000, 0.000000)"><rect id="Rectangle" width="464.2" height="547.8" x="5.8" y="5.6" fill="#F3F6E6"/><path id="Shape" fill="#383A48" d="M470,558.4 L5.8,558.4 C3,558.4 0.8,556.2 0.8,553.4 L0.8,5.6 C0.8,2.8 3,0.6 5.8,0.6 L470,0.6 C472.8,0.6 475,2.8 475,5.6 L475,553.4 C475,556.1 472.7,558.4 470,558.4 Z M10.8,548.4 L465,548.4 L465,10.6 L10.8,10.6 L10.8,548.4 Z"/></g><g><rect id="Rectangle" width="464.2" height="547.8" x="5.9" y="5.6" fill="#E0719E"/><path id="Shape" fill="#383A48" d="M470,558.4 L5.9,558.4 C3.1,558.4 0.9,556.2 0.9,553.4 L0.9,5.6 C0.9,2.8 3.1,0.6 5.9,0.6 L470,0.6 C472.8,0.6 475,2.8 475,5.6 L475,553.4 C475,556.1 472.8,558.4 470,558.4 Z M10.9,548.4 L465,548.4 L465,10.6 L10.9,10.6 L10.9,548.4 Z"/></g><g transform="translate(105.000000, 186.000000)"><rect id="Rectangle" width="270.8" height="153" x="5" y="5.4" fill="#AAC6FC"/><path id="Shape" fill="#383A48" d="M275.8,163.4 L5,163.4 C2.2,163.4 0,161.2 0,158.4 L0,5.4 C0,2.6 2.2,0.4 5,0.4 L275.8,0.4 C278.6,0.4 280.8,2.6 280.8,5.4 L280.8,158.4 C280.8,161.1 278.6,163.4 275.8,163.4 Z M10,153.4 L270.8,153.4 L270.8,10.4 L10,10.4 L10,153.4 Z"/></g><path id="Path" fill="#383A48" d="M332.1,253.8 L158.7,253.8 C155.9,253.8 153.7,251.6 153.7,248.8 C153.7,246 155.9,243.8 158.7,243.8 L332.1,243.8 C334.9,243.8 337.1,246 337.1,248.8 C337.1,251.6 334.9,253.8 332.1,253.8 Z"/><path id="Path" fill="#383A48" d="M332.1,296 L158.7,296 C155.9,296 153.7,293.8 153.7,291 C153.7,288.2 155.9,286 158.7,286 L332.1,286 C334.9,286 337.1,288.2 337.1,291 C337.1,293.8 334.9,296 332.1,296 Z"/></g><g fill-rule="nonzero" transform="translate(0.000000, 551.000000)"><g transform="translate(257.000000, 0.000000)"><path id="Path" fill="#EEBED3" d="M221.1,113.6 C221.1,173.1 172.9,221.3 113.4,221.3 C96.3,221.3 80.2,217.3 65.9,210.3 C44.6,199.8 27.3,182.5 16.8,161.2 C9.7,146.9 5.8,130.7 5.8,113.7 C5.8,54.2 54,6 113.5,6 C130.6,6 146.7,10 161.1,17 C182.4,27.5 199.7,44.8 210.2,66.1 C217.2,80.4 221.1,96.6 221.1,113.6 Z"/><path id="Shape" fill="#383A48" d="M113.4,226.4 C95.9,226.4 79.2,222.5 63.6,214.8 C41.4,203.9 23.2,185.6 12.2,163.4 C4.5,147.8 0.6,131.1 0.6,113.6 C0.6,51.4 51.2,0.9 113.3,0.9 C130.8,0.9 147.5,4.8 163.1,12.5 C185.3,23.4 203.6,41.7 214.5,63.9 C222.2,79.5 226.1,96.2 226.1,113.7 C226.1,175.8 175.6,226.4 113.4,226.4 Z M113.4,10.9 C56.8,10.9 10.7,57 10.7,113.6 C10.7,129.5 14.2,144.8 21.2,158.9 C31.2,179.1 47.8,195.8 68,205.8 C82.2,212.8 97.4,216.3 113.3,216.3 C169.9,216.3 216,170.2 216,113.6 C216,97.7 212.5,82.4 205.5,68.3 C195.5,48.1 178.9,31.4 158.7,21.5 C144.6,14.5 129.3,10.9 113.4,10.9 Z"/></g><g><path id="Path" fill="#EEBED3" d="M220.5,113.6 C220.5,173.1 172.3,221.3 112.8,221.3 C95.7,221.3 79.6,217.3 65.2,210.3 C43.9,199.8 26.6,182.5 16.1,161.2 C9,146.9 5.1,130.7 5.1,113.6 C5.1,54.1 53.3,5.9 112.8,5.9 C129.9,5.9 146,9.9 160.4,16.9 C181.7,27.4 199,44.7 209.5,66 C216.6,80.4 220.5,96.6 220.5,113.6 Z"/><path id="Shape" fill="#383A48" d="M112.8,226.4 C95.3,226.4 78.6,222.5 63,214.8 C40.8,203.9 22.5,185.6 11.6,163.4 C3.9,147.8 0,131.1 0,113.6 C0,51.4 50.6,0.9 112.7,0.9 C130.2,0.9 146.9,4.8 162.5,12.5 C184.7,23.4 203,41.7 213.9,63.9 C221.6,79.5 225.5,96.2 225.5,113.7 C225.5,175.8 175,226.4 112.8,226.4 Z M112.8,10.9 C56.2,10.9 10.1,57 10.1,113.6 C10.1,129.5 13.6,144.8 20.6,158.9 C30.6,179.1 47.2,195.8 67.4,205.7 C81.6,212.7 96.8,216.2 112.8,216.2 C169.4,216.2 215.5,170.1 215.5,113.5 C215.5,97.6 212,82.3 205,68.2 C195,48 178.4,31.3 158.2,21.4 C144,14.5 128.7,10.9 112.8,10.9 Z"/></g><path id="Path" fill="#F3F6E6" d="M462.3,68.4 L325.2,205.5 C305,195.5 288.5,179.1 278.5,158.8 L415.6,21.7 C435.9,31.7 452.3,48.2 462.3,68.4 Z"/><path id="Path" fill="#F3F6E6" d="M204.7,68.4 L67.6,205.5 C47.4,195.5 30.9,179.1 20.9,158.8 L158,21.7 C178.3,31.7 194.7,48.2 204.7,68.4 Z"/><path id="Path" fill="#383A48" d="M268.7,78.7 C267.9,78.7 267.1,78.5 266.3,78.1 C258.9,74.1 250.5,72.1 242.1,72.1 C233.9,72.1 226.1,74 218.9,77.6 C216.4,78.8 213.4,77.9 212.2,75.4 C211,72.9 211.9,69.9 214.4,68.7 C223,64.3 232.4,62.1 242.1,62.1 C252.2,62.1 262.2,64.6 271,69.3 C273.4,70.6 274.4,73.6 273.1,76.1 C272.2,77.8 270.4,78.7 268.7,78.7 Z"/><path id="Path" fill="#383A48" d="M654.4,226.4 L653.9,226.4 C651.1,226.4 648.9,224.2 648.9,221.4 C648.9,218.6 651.1,216.4 653.9,216.4 L654.4,216.4 C694.5,216.4 727,183.8 727,143.8 C727,103.8 694.4,71.2 654.4,71.2 L467.1,71.2 C464.3,71.2 462.1,69 462.1,66.2 C462.1,63.4 464.3,61.2 467.1,61.2 L654.4,61.2 C700,61.2 737.000202,98.3 737.000202,143.8 C737.1,189.3 700,226.4 654.4,226.4 Z"/></g><g fill-rule="nonzero" transform="translate(796.000000, 658.000000)"><g><path id="Path" fill="#F6E049" d="M586.5,5 L47.1,5 C24.3,5 5.9,23.5 5.9,46.2 L5.9,73.1 C5.9,95.9 24.4,114.3 47.1,114.3 L586.5,114.3 L586.5,5 Z"/><path id="Shape" fill="#383A48" d="M586.5,119.4 L47.1,119.4 C21.6,119.4 0.9,98.7 0.9,73.2 L0.9,46.3 C0.9,20.8 21.6,0.1 47.1,0.1 L586.5,0.1 C589.3,0.1 591.5,2.3 591.5,5.1 L591.5,114.5 C591.5,117.1 589.3,119.4 586.5,119.4 Z M47.1,10 C27.1,10 10.9,26.3 10.9,46.2 L10.9,73.1 C10.9,93.1 27.2,109.3 47.1,109.3 L581.5,109.3 L581.5,10 L47.1,10 Z"/></g><g transform="translate(341.000000, 0.000000)"><path id="Path" fill="#F3F6E6" d="M245.5,5 L47,5 C24.2,5 5.8,23.5 5.8,46.2 L5.8,73.1 C5.8,95.9 24.3,114.3 47,114.3 L245.5,114.3 L245.5,5 Z"/><path id="Shape" fill="#383A48" d="M245.5,119.4 L47,119.4 C21.5,119.4 0.8,98.7 0.8,73.2 L0.8,46.3 C0.8,20.8 21.5,0.1 47,0.1 L245.5,0.1 C248.3,0.1 250.5,2.3 250.5,5.1 L250.5,114.5 C250.5,117.1 248.3,119.4 245.5,119.4 Z M47.1,10 C27.1,10 10.9,26.3 10.9,46.2 L10.9,73.1 C10.9,93.1 27.2,109.3 47.1,109.3 L240.6,109.3 L240.6,10 L47.1,10 Z"/></g><g id="Oval" fill="#383A48" transform="translate(443.000000, 18.000000)"><circle cx="128.5" cy="5.7" r="5"/><circle cx="128.5" cy="30.3" r="5"/><circle cx="128.5" cy="55" r="5"/><circle cx="128.5" cy="79.7" r="5"/><circle cx="103.9" cy="5.7" r="5"/><circle cx="103.9" cy="30.3" r="5"/><circle cx="103.9" cy="55" r="5"/><circle cx="103.9" cy="79.7" r="5"/><circle cx="79.2" cy="5.7" r="5"/><circle cx="79.2" cy="30.3" r="5"/><circle cx="79.2" cy="55" r="5"/><circle cx="79.2" cy="79.7" r="5"/><circle cx="54.5" cy="5.7" r="5"/><circle cx="54.5" cy="30.3" r="5"/><circle cx="54.5" cy="55" r="5"/><circle cx="29.9" cy="5.7" r="5"/><circle cx="29.9" cy="30.3" r="5"/><circle cx="5.2" cy="5.7" r="5"/></g></g><g fill-rule="nonzero"><g transform="translate(847.000000, 548.000000)"><path id="Path" fill="#7FD6C2" d="M586.1,5.6 L46.7,5.6 C23.9,5.6 5.5,24.1 5.5,46.8 L5.5,73.7 C5.5,96.5 24,114.9 46.7,114.9 L586.1,114.9 L586.1,5.6 Z"/><path id="Shape" fill="#383A48" d="M586.1,120 L46.7,120 C21.2,120 0.5,99.3 0.5,73.8 L0.5,46.9 C0.5,21.4 21.2,0.7 46.7,0.7 L586.1,0.7 C588.9,0.7 591.1,2.9 591.1,5.7 L591.1,115 C591.1,117.7 588.9,120 586.1,120 Z M46.7,10.6 C26.7,10.6 10.5,26.9 10.5,46.8 L10.5,73.7 C10.5,93.7 26.8,109.9 46.7,109.9 L581.1,109.9 L581.1,10.5 L46.7,10.6 L46.7,10.6 Z"/></g><g transform="translate(847.000000, 548.000000) translate(341.000000, 0.000000)"><path id="Path" fill="#F3F6E6" d="M245.1,5.6 L46.6,5.6 C23.8,5.6 5.4,24.1 5.4,46.8 L5.4,73.7 C5.4,96.5 23.9,114.9 46.6,114.9 L245.1,114.9 L245.1,5.6 Z"/><path id="Shape" fill="#383A48" d="M245.1,120 L46.6,120 C21.1,120 0.4,99.3 0.4,73.8 L0.4,46.9 C0.4,21.4 21.1,0.7 46.6,0.7 L245.1,0.7 C247.9,0.7 250.1,2.9 250.1,5.7 L250.1,115 C250.1,117.7 247.9,120 245.1,120 Z M46.7,10.6 C26.7,10.6 10.5,26.9 10.5,46.8 L10.5,73.7 C10.5,93.7 26.8,109.9 46.7,109.9 L240.2,109.9 L240.2,10.5 L46.7,10.6 L46.7,10.6 Z"/></g></g><g fill-rule="nonzero"><g transform="translate(36.000000, 0.000000)"><circle id="Oval" cx="171" cy="170.8" r="165.1" fill="#F6E049"/><path id="Shape" fill="#383A48" d="M171,340.9 C77.2,340.9 0.9,264.6 0.9,170.8 C0.9,77 77.2,0.6 171,0.6 C264.8,0.6 341.2,77 341.2,170.8 C341.2,264.6 264.9,340.9 171,340.9 Z M171,10.6 C82.7,10.6 10.9,82.4 10.9,170.7 C10.9,259 82.7,330.8 171,330.8 C259.3,330.8 331.100104,259 331.100104,170.7 C331.2,82.5 259.3,10.6 171,10.6 Z"/></g><g fill="#383A48" transform="translate(36.000000, 0.000000) translate(98.000000, 128.000000)"><circle id="Oval" cx="18.9" cy="18.1" r="18.1"/><circle id="Oval" cx="127.1" cy="18.1" r="18.1"/><path id="Path" d="M73,117 C47.7,117 24.5,102.1 14,79.1 C12.8,76.6 14,73.6 16.5,72.5 C19,71.3 22,72.5 23.1,75 C32,94.5 51.6,107 73,107 C94.4,107 114,94.4 122.9,75 C124.1,72.5 127,71.4 129.5,72.5 C132,73.7 133.1,76.6 132,79.1 C121.5,102.1 98.3,117 73,117 Z"/></g></g><g fill-rule="nonzero"><g transform="translate(91.000000, 0.000000)"><circle id="Oval" cx="170.1" cy="170.8" r="165.1" fill="#F6E049"/><path id="Shape" fill="#383A48" d="M170.1,340.9 C76.3,340.9 0,264.6 0,170.8 C0,77 76.3,0.7 170.1,0.7 C263.9,0.7 340.3,77 340.3,170.8 C340.3,264.6 263.9,340.9 170.1,340.9 Z M170.1,10.6 C81.8,10.6 10,82.4 10,170.7 C10,259 81.8,330.8 170.1,330.8 C258.4,330.8 330.200104,259 330.200104,170.7 C330.3,82.5 258.4,10.6 170.1,10.6 Z"/></g><g fill="#383A48" transform="translate(91.000000, 0.000000) translate(97.000000, 125.000000)"><circle id="Oval" cx="19" cy="21.1" r="18.1"/><circle id="Oval" cx="127.213" cy="21.099" r="18.1" transform="translate(127.212750, 21.098800) rotate(-80.781636) translate(-127.212750, -21.098800)"/><path id="Path" d="M73.1,120 C47.8,120 24.6,105.1 14.1,82.1 C12.9,79.6 14.1,76.6 16.6,75.5 C19.1,74.3 22.1,75.5 23.2,78 C32.1,97.5 51.7,110 73.1,110 C94.5,110 114.1,97.4 123,78 C124.2,75.5 127.1,74.4 129.6,75.5 C132.1,76.7 133.2,79.6 132.1,82.1 C121.6,105.1 98.4,120 73.1,120 Z"/></g></g><g fill-rule="nonzero" transform="translate(145.000000, 0.000000)"><g><circle id="Oval" cx="170.2" cy="170.8" r="165.1" fill="#F6E049"/><path id="Shape" fill="#383A48" d="M170.2,340.9 C76.4,340.9 0.1,264.6 0.1,170.8 C0.1,77 76.4,0.7 170.2,0.7 C264,0.7 340.4,77 340.4,170.8 C340.4,264.6 264,340.9 170.2,340.9 Z M170.2,10.6 C81.9,10.6 10.1,82.4 10.1,170.7 C10.1,259 81.9,330.8 170.2,330.8 C258.5,330.8 330.300104,259 330.300104,170.7 C330.4,82.5 258.5,10.6 170.2,10.6 Z"/></g><path id="Path" fill="#383A48" d="M381.3,223.9 C380.3,222.8 379,222.2 377.5,222.2 L334.9,222.2 C332.1,222.2 329.9,224.4 329.9,227.2 L329.9,315 C329.9,317.1 331.2,318.9 333.1,319.7 C333.7,319.9 334.3,320 334.9,320 C336.3,320 337.6,319.4 338.6,318.4 C362.2,293.2 377.4,261.8 382.5,227.9 C382.7,226.5 382.2,225 381.3,223.9 Z"/><g fill="#383A48" transform="translate(98.000000, 128.000000)"><circle id="Oval" cx="18.1" cy="18.1" r="18.1"/><circle id="Oval" cx="126.3" cy="18.1" r="18.1"/><path id="Path" d="M72.2,117 C46.9,117 23.7,102.1 13.2,79.1 C12,76.6 13.2,73.6 15.7,72.5 C18.2,71.3 21.2,72.5 22.3,75 C31.2,94.5 50.8,107 72.2,107 C93.6,107 113.2,94.4 122.1,75 C123.3,72.5 126.2,71.4 128.7,72.5 C131.2,73.7 132.3,76.6 131.2,79.1 C120.7,102.1 97.5,117 72.2,117 Z"/></g></g><path id="Path" fill="#383A48" fill-rule="nonzero" d="M1502.7,326.4 C1501.4,326.4 1500.1,325.9 1499.2,324.9 L1265.3,91 C1263.3,89 1263.3,85.9 1265.3,83.9 C1267.3,81.9 1270.4,81.9 1272.4,83.9 L1506.3,317.8 C1508.3,319.8 1508.3,322.9 1506.3,324.9 C1505.3,325.9 1504,326.4 1502.7,326.4 Z"/><g id="Path" fill="#383A48" fill-rule="nonzero"><path d="M48.4,29.1 C45.6,29.1 43.4,26.9 43.4,24.1 L43.4,5.3 C43.4,2.5 45.6,0.3 48.4,0.3 C51.2,0.3 53.4,2.5 53.4,5.3 L53.4,24.1 C53.4,26.9 51.2,29.1 48.4,29.1 Z" transform="translate(817.000000, 13.000000)"/><path d="M48.4,96.5 C45.6,96.5 43.4,94.3 43.4,91.5 L43.4,72.7 C43.4,69.9 45.6,67.7 48.4,67.7 C51.2,67.7 53.4,69.9 53.4,72.7 L53.4,91.5 C53.4,94.2 51.2,96.5 48.4,96.5 Z" transform="translate(817.000000, 13.000000)"/><path d="M24.2,53.4 L5.4,53.4 C2.6,53.4 0.4,51.2 0.4,48.4 C0.4,45.6 2.6,43.4 5.4,43.4 L24.2,43.4 C27,43.4 29.2,45.6 29.2,48.4 C29.2,51.2 26.9,53.4 24.2,53.4 Z" transform="translate(817.000000, 13.000000)"/><path d="M91.5,53.4 L72.7,53.4 C69.9,53.4 67.7,51.2 67.7,48.4 C67.7,45.6 69.9,43.4 72.7,43.4 L91.5,43.4 C94.3,43.4 96.5,45.6 96.5,48.4 C96.5,51.2 94.3,53.4 91.5,53.4 Z" transform="translate(817.000000, 13.000000)"/><path d="M31.3,36.2 C30,36.2 28.7,35.7 27.8,34.7 L14.5,21.4 C12.5,19.4 12.5,16.3 14.5,14.3 C16.5,12.3 19.6,12.3 21.6,14.3 L34.9,27.6 C36.9,29.6 36.9,32.7 34.9,34.7 C33.8,35.7 32.5,36.2 31.3,36.2 Z" transform="translate(817.000000, 13.000000)"/><path d="M78.9,83.8 C77.6,83.8 76.3,83.3 75.4,82.3 L62.1,69 C60.1,67 60.1,63.9 62.1,61.9 C64.1,59.9 67.2,59.9 69.2,61.9 L82.5,75.2 C84.5,77.2 84.5,80.3 82.5,82.3 C81.4,83.4 80.2,83.8 78.9,83.8 Z" transform="translate(817.000000, 13.000000)"/><path d="M18,83.8 C16.7,83.8 15.4,83.3 14.5,82.3 C12.5,80.3 12.5,77.2 14.5,75.2 L27.8,61.9 C29.8,59.9 32.9,59.9 34.9,61.9 C36.9,63.9 36.9,67 34.9,69 L21.6,82.3 C20.6,83.4 19.3,83.8 18,83.8 Z" transform="translate(817.000000, 13.000000)"/><path d="M65.6,36.2 C64.3,36.2 63,35.7 62.1,34.7 C60.1,32.7 60.1,29.6 62.1,27.6 L75.4,14.3 C77.4,12.3 80.5,12.3 82.5,14.3 C84.5,16.3 84.5,19.4 82.5,21.4 L69.2,34.7 C68.2,35.7 66.9,36.2 65.6,36.2 Z" transform="translate(817.000000, 13.000000)"/></g><g id="Path" fill="#383A48" fill-rule="nonzero"><path d="M48.7,29.5 C45.9,29.5 43.7,27.3 43.7,24.5 L43.7,5.7 C43.7,2.9 45.9,0.7 48.7,0.7 C51.5,0.7 53.7,2.9 53.7,5.7 L53.7,24.5 C53.7,27.2 51.5,29.5 48.7,29.5 Z" transform="translate(156.000000, 451.000000)"/><path d="M48.7,96.8 C45.9,96.8 43.7,94.6 43.7,91.8 L43.7,73 C43.7,70.2 45.9,68 48.7,68 C51.5,68 53.7,70.2 53.7,73 L53.7,91.8 C53.7,94.6 51.5,96.8 48.7,96.8 Z" transform="translate(156.000000, 451.000000)"/><path d="M24.4,53.8 L5.6,53.8 C2.8,53.8 0.6,51.6 0.6,48.8 C0.6,46 2.8,43.8 5.6,43.8 L24.4,43.8 C27.2,43.8 29.4,46 29.4,48.8 C29.4,51.6 27.2,53.8 24.4,53.8 Z" transform="translate(156.000000, 451.000000)"/><path d="M91.8,53.8 L73,53.8 C70.2,53.8 68,51.6 68,48.8 C68,46 70.2,43.8 73,43.8 L91.8,43.8 C94.6,43.8 96.8,46 96.8,48.8 C96.8,51.6 94.5,53.8 91.8,53.8 Z" transform="translate(156.000000, 451.000000)"/><path d="M31.5,36.6 C30.2,36.6 28.9,36.1 28,35.1 L14.7,21.8 C12.7,19.8 12.7,16.7 14.7,14.7 C16.7,12.7 19.8,12.7 21.8,14.7 L35.1,28 C37.1,30 37.1,33.1 35.1,35.1 C34.1,36.1 32.8,36.6 31.5,36.6 Z" transform="translate(156.000000, 451.000000)"/><path d="M79.1,84.2 C77.8,84.2 76.5,83.7 75.6,82.7 L62.3,69.4 C60.3,67.4 60.3,64.3 62.3,62.3 C64.3,60.3 67.4,60.3 69.4,62.3 L82.7,75.6 C84.7,77.6 84.7,80.7 82.7,82.7 C81.7,83.7 80.4,84.2 79.1,84.2 Z" transform="translate(156.000000, 451.000000)"/><path d="M18.3,84.2 C17,84.2 15.7,83.7 14.8,82.7 C12.8,80.7 12.8,77.6 14.8,75.6 L28.1,62.3 C30.1,60.3 33.2,60.3 35.2,62.3 C37.2,64.3 37.2,67.4 35.2,69.4 L21.9,82.7 C20.8,83.7 19.5,84.2 18.3,84.2 Z" transform="translate(156.000000, 451.000000)"/><path d="M65.9,36.6 C64.6,36.6 63.3,36.1 62.4,35.1 C60.4,33.1 60.4,30 62.4,28 L75.7,14.7 C77.7,12.7 80.8,12.7 82.8,14.7 C84.8,16.7 84.8,19.8 82.8,21.8 L69.5,35.1 C68.4,36.1 67.2,36.6 65.9,36.6 Z" transform="translate(156.000000, 451.000000)"/></g><path id="Path" fill="#383A48" fill-rule="nonzero" d="M1433.1,777.4 L5.1,777.4 C2.3,777.4 0.1,775.2 0.1,772.4 C0.1,769.6 2.3,767.4 5.1,767.4 L1433.1,767.4 C1435.9,767.4 1438.1,769.6 1438.1,772.4 C1438.1,775.2 1435.9,777.4 1433.1,777.4 Z"/><g><g transform="translate(1252.000000, 225.000000) translate(0.000000, 11.000000)"><line id="Path" x1=".4" x2="33.3" y1="5.9" y2="5.9"/><rect id="Rectangle" width="33" height="10" x=".4" y=".9" fill="#383A48" fill-rule="nonzero"/></g><g transform="translate(1252.000000, 225.000000) translate(11.000000, 0.000000)"><line id="Path" x1="5.8" x2="5.8" y1="33.4" y2=".5"/><rect id="Rectangle" width="10" height="33" x=".8" y=".5" fill="#383A48" fill-rule="nonzero"/></g></g><g><g transform="translate(630.000000, 158.000000) translate(0.000000, 12.000000)"><line id="Path" x1=".9" x2="33.9" y1="5.4" y2="5.4"/><rect id="Rectangle" width="33" height="10" x=".9" y=".4" fill="#383A48" fill-rule="nonzero"/></g><g transform="translate(630.000000, 158.000000) translate(12.000000, 0.000000)"><line id="Path" x1="5.4" x2="5.4" y1="33.8" y2=".9"/><rect id="Rectangle" width="10" height="33" x=".4" y=".9" fill="#383A48" fill-rule="nonzero"/></g></g><g id="Oval" fill="#383A48" fill-rule="nonzero" transform="translate(1046.000000, 18.000000)"><circle cx="79.2" cy="5.6" r="5"/><circle cx="79.2" cy="30.2" r="5"/><circle cx="79.2" cy="54.9" r="5"/><circle cx="79.2" cy="79.6" r="5"/><circle cx="54.5" cy="5.6" r="5"/><circle cx="54.5" cy="30.2" r="5"/><circle cx="54.5" cy="54.9" r="5"/><circle cx="54.5" cy="79.6" r="5"/><circle cx="29.9" cy="5.6" r="5"/><circle cx="29.9" cy="30.2" r="5"/><circle cx="29.9" cy="54.9" r="5"/><circle cx="29.9" cy="79.6" r="5"/><circle cx="5.2" cy="5.6" r="5"/><circle cx="5.2" cy="30.2" r="5"/><circle cx="5.2" cy="54.9" r="5"/><circle cx="5.2" cy="79.6" r="5"/></g></g></g></g></svg>