<?xml version="1.0" encoding="UTF-8"?>
<svg width="1434px" height="832px" viewBox="0 0 1434 832" version="1.1" xmlns="http://www.w3.org/2000/svg" xmlns:xlink="http://www.w3.org/1999/xlink">
    <!-- Generator: Sketch 59.1 (86144) - https://sketch.com -->
    <title>magic</title>
    <desc>Created with Sketch.</desc>
    <g id="Page-1" stroke="none" stroke-width="1" fill="none" fill-rule="evenodd">
        <g id="magic" transform="translate(-243.000000, -124.000000)">
            <g id="Group" transform="translate(243.000000, 124.000000)">
                <path d="M1428.6,226.5 C1425.8,226.5 1423.6,228.7 1423.6,231.5 C1423.6,310.8 1410.2,366.3 1382.6,400.9 C1358.6,431.1 1326.7,442.4 1295.9,453.3 C1256.1,467.4 1218.4,480.7 1201.3,531.8 C1142.7,706.3 1061.6,724.5 865.8,768.5 C804.1,782.4 734.2,798.1 649.8,821.8 C647.4,822.5 645.9,824.8 646.2,827.3 C646.5,829.8 648.7,831.6 651.2,831.6 L1428.7,831.6 C1431.5,831.6 1433.7,829.4 1433.7,826.6 L1433.7,231.5 C1433.6,228.7 1431.4,226.5 1428.6,226.5 Z" id="Path" fill="#F3F6E6" fill-rule="nonzero"></path>
                <path d="M742.5,821.7 C642,801.6 582.1,770.6 548.1,721 C516,674.2 507.6,612.6 497,534.7 C494.2,513.9 491.2,492.4 487.6,469.4 C481,427.5 466.1,392.5 442,362.5 C421,336.4 395.8,317.4 373.5,300.7 C340.1,275.6 311.2,253.9 305.4,216.5 C296.9,162.2 307.8,115.6 336.8,81.6 C354.5,60.9 378.8,44.9 409.2,33.9 C441.7,22.2 481.2,16.2 526.5,16.2 C529.3,16.2 531.5,14 531.5,11.2 C531.5,8.4 529.3,6.2 526.5,6.2 L5.4,6.2 C2.6,6.2 0.4,8.4 0.4,11.2 L0.4,609.1 C0.4,668.5 23.5,724.4 65.5,766.4 C107.5,808.4 163.4,831.5 222.8,831.5 L741.5,831.5 C744.1,831.5 746.2,829.6 746.5,827 C746.8,824.4 745,822.2 742.5,821.7 Z" id="Path" fill="#F3F6E6" fill-rule="nonzero"></path>
                <g transform="translate(285.000000, 391.000000)" fill="#383A48" fill-rule="nonzero" id="Oval">
                    <g transform="translate(24.000000, 0.000000)">
                        <circle cx="227.7" cy="5" r="5"></circle>
                        <circle cx="227.7" cy="29.7" r="5"></circle>
                        <circle cx="227.7" cy="54.3" r="5"></circle>
                        <circle cx="227.7" cy="79" r="5"></circle>
                        <circle cx="227.7" cy="103.7" r="5"></circle>
                        <circle cx="227.7" cy="128.3" r="5"></circle>
                        <circle cx="227.7" cy="153" r="5"></circle>
                        <circle cx="227.7" cy="177.7" r="5"></circle>
                        <circle cx="227.7" cy="202.3" r="5"></circle>
                        <circle cx="227.7" cy="227" r="5"></circle>
                        <circle cx="227.7" cy="251.7" r="5"></circle>
                        <circle cx="227.7" cy="276.3" r="5"></circle>
                        <circle cx="227.7" cy="301" r="5"></circle>
                        <circle cx="227.7" cy="325.7" r="5"></circle>
                        <circle cx="227.7" cy="350.3" r="5"></circle>
                        <circle cx="227.7" cy="375" r="5"></circle>
                        <circle cx="227.7" cy="399.7" r="5"></circle>
                        <circle cx="227.7" cy="424.3" r="5"></circle>
                        <circle cx="203" cy="5" r="5"></circle>
                        <circle cx="203" cy="29.7" r="5"></circle>
                        <circle cx="203" cy="54.3" r="5"></circle>
                        <circle cx="203" cy="79" r="5"></circle>
                        <circle cx="203" cy="103.7" r="5"></circle>
                        <circle cx="203" cy="128.3" r="5"></circle>
                        <circle cx="203" cy="153" r="5"></circle>
                        <circle cx="203" cy="177.7" r="5"></circle>
                        <circle cx="203" cy="202.3" r="5"></circle>
                        <circle cx="203" cy="227" r="5"></circle>
                        <circle cx="203" cy="251.7" r="5"></circle>
                        <circle cx="203" cy="276.3" r="5"></circle>
                        <circle cx="203" cy="301" r="5"></circle>
                        <circle cx="203" cy="325.7" r="5"></circle>
                        <circle cx="203" cy="350.3" r="5"></circle>
                        <circle cx="203" cy="375" r="5"></circle>
                        <circle cx="203" cy="399.7" r="5"></circle>
                        <circle cx="203" cy="424.3" r="5"></circle>
                        <circle cx="178.3" cy="5" r="5"></circle>
                        <circle cx="178.3" cy="29.7" r="5"></circle>
                        <circle cx="178.3" cy="54.3" r="5"></circle>
                        <circle cx="178.3" cy="79" r="5"></circle>
                        <circle cx="178.3" cy="103.7" r="5"></circle>
                        <circle cx="178.3" cy="128.3" r="5"></circle>
                        <circle cx="178.3" cy="153" r="5"></circle>
                        <circle cx="178.3" cy="177.7" r="5"></circle>
                        <circle cx="178.3" cy="202.3" r="5"></circle>
                        <circle cx="178.3" cy="227" r="5"></circle>
                        <circle cx="178.3" cy="251.7" r="5"></circle>
                        <circle cx="178.3" cy="276.3" r="5"></circle>
                        <circle cx="178.3" cy="301" r="5"></circle>
                        <circle cx="178.3" cy="325.7" r="5"></circle>
                        <circle cx="178.3" cy="350.3" r="5"></circle>
                        <circle cx="178.3" cy="375" r="5"></circle>
                        <circle cx="178.3" cy="399.7" r="5"></circle>
                        <circle cx="178.3" cy="424.3" r="5"></circle>
                        <circle cx="153.7" cy="5" r="5"></circle>
                        <circle cx="153.7" cy="29.7" r="5"></circle>
                        <circle cx="153.7" cy="54.3" r="5"></circle>
                        <circle cx="153.7" cy="79" r="5"></circle>
                        <circle cx="153.7" cy="103.7" r="5"></circle>
                        <circle cx="153.7" cy="128.3" r="5"></circle>
                        <circle cx="153.7" cy="153" r="5"></circle>
                        <circle cx="153.7" cy="177.7" r="5"></circle>
                        <circle cx="153.7" cy="202.3" r="5"></circle>
                        <circle cx="153.7" cy="227" r="5"></circle>
                        <circle cx="153.7" cy="251.7" r="5"></circle>
                        <circle cx="153.7" cy="276.3" r="5"></circle>
                        <circle cx="153.7" cy="301" r="5"></circle>
                        <circle cx="153.7" cy="325.7" r="5"></circle>
                        <circle cx="153.7" cy="350.3" r="5"></circle>
                        <circle cx="153.7" cy="375" r="5"></circle>
                        <circle cx="153.7" cy="399.7" r="5"></circle>
                        <circle cx="153.7" cy="424.3" r="5"></circle>
                        <circle cx="129" cy="5" r="5"></circle>
                        <circle cx="129" cy="29.7" r="5"></circle>
                        <circle cx="129" cy="54.3" r="5"></circle>
                        <circle cx="129" cy="79" r="5"></circle>
                        <circle cx="129" cy="103.7" r="5"></circle>
                        <circle cx="129" cy="128.3" r="5"></circle>
                        <circle cx="129" cy="153" r="5"></circle>
                        <circle cx="129" cy="177.7" r="5"></circle>
                        <circle cx="129" cy="202.3" r="5"></circle>
                        <circle cx="129" cy="227" r="5"></circle>
                        <circle cx="129" cy="251.7" r="5"></circle>
                        <circle cx="129" cy="276.3" r="5"></circle>
                        <circle cx="129" cy="301" r="5"></circle>
                        <circle cx="129" cy="325.7" r="5"></circle>
                        <circle cx="129" cy="350.3" r="5"></circle>
                        <circle cx="129" cy="375" r="5"></circle>
                        <circle cx="129" cy="399.7" r="5"></circle>
                        <circle cx="104.3" cy="5" r="5"></circle>
                        <circle cx="104.3" cy="29.7" r="5"></circle>
                        <circle cx="104.3" cy="54.3" r="5"></circle>
                        <circle cx="104.3" cy="79" r="5"></circle>
                        <circle cx="104.3" cy="103.7" r="5"></circle>
                        <circle cx="104.3" cy="128.3" r="5"></circle>
                        <circle cx="104.3" cy="153" r="5"></circle>
                        <circle cx="104.3" cy="177.7" r="5"></circle>
                        <circle cx="104.3" cy="202.3" r="5"></circle>
                        <circle cx="104.3" cy="227" r="5"></circle>
                        <circle cx="104.3" cy="251.7" r="5"></circle>
                        <circle cx="104.3" cy="276.3" r="5"></circle>
                        <circle cx="104.3" cy="301" r="5"></circle>
                        <circle cx="104.3" cy="325.7" r="5"></circle>
                        <circle cx="104.3" cy="350.3" r="5"></circle>
                        <circle cx="79.7" cy="5" r="5"></circle>
                        <circle cx="79.7" cy="29.7" r="5"></circle>
                        <circle cx="79.7" cy="54.3" r="5"></circle>
                        <circle cx="79.7" cy="79" r="5"></circle>
                        <circle cx="79.7" cy="103.7" r="5"></circle>
                        <circle cx="79.7" cy="128.3" r="5"></circle>
                        <circle cx="79.7" cy="153" r="5"></circle>
                        <circle cx="55" cy="5" r="5"></circle>
                        <circle cx="55" cy="29.7" r="5"></circle>
                        <circle cx="55" cy="54.3" r="5"></circle>
                        <circle cx="55" cy="79" r="5"></circle>
                        <circle cx="55" cy="103.7" r="5"></circle>
                        <circle cx="55" cy="128.3" r="5"></circle>
                        <circle cx="55" cy="153" r="5"></circle>
                        <circle cx="30.3" cy="5" r="5"></circle>
                        <circle cx="30.3" cy="29.7" r="5"></circle>
                        <circle cx="30.3" cy="54.3" r="5"></circle>
                        <circle cx="30.3" cy="79" r="5"></circle>
                        <circle cx="30.3" cy="103.7" r="5"></circle>
                        <circle cx="30.3" cy="128.3" r="5"></circle>
                        <circle cx="30.3" cy="153" r="5"></circle>
                        <circle cx="5.7" cy="29.7" r="5"></circle>
                        <circle cx="5.7" cy="54.3" r="5"></circle>
                        <circle cx="5.7" cy="79" r="5"></circle>
                        <circle cx="5.7" cy="103.7" r="5"></circle>
                        <circle cx="5.7" cy="128.3" r="5"></circle>
                    </g>
                    <circle cx="5" cy="54.3" r="5"></circle>
                    <circle cx="5" cy="79" r="5"></circle>
                </g>
                <g transform="translate(339.000000, 108.000000)" fill-rule="nonzero">
                    <g transform="translate(125.000000, 357.000000)">
                        <path d="M451.7,5.2 L5.2,5.2 L5.2,266 C5.2,318.8 48,361.6 100.8,361.6 L356.1,361.6 C408.9,361.6 451.7,318.8 451.7,266 L451.7,5.2 Z" id="Path" fill="#E0719E"></path>
                        <path d="M356.1,366.6 L100.8,366.6 C45.3,366.6 0.2,321.5 0.2,266 L0.2,5.2 C0.2,2.4 2.4,0.2 5.2,0.2 L451.7,0.2 C454.5,0.2 456.7,2.4 456.7,5.2 L456.7,266 C456.7,321.5 411.6,366.6 356.1,366.6 Z M10.2,10.2 L10.2,266 C10.2,316 50.9,356.6 100.8,356.6 L356.1,356.6 C406.1,356.6 446.7,315.9 446.7,266 L446.7,10.2 L10.2,10.2 Z" id="Shape" fill="#383A48"></path>
                    </g>
                    <g transform="translate(125.000000, 414.000000)">
                        <rect id="Rectangle" fill="#AAC6FC" x="5.2" y="5.4" width="446.5" height="135.7"></rect>
                        <path d="M451.7,146.2 L5.2,146.2 C2.4,146.2 0.2,144 0.2,141.2 L0.2,5.4 C0.2,2.6 2.4,0.4 5.2,0.4 L451.7,0.4 C454.5,0.4 456.7,2.6 456.7,5.4 L456.7,141.1 C456.7,143.9 454.5,146.2 451.7,146.2 Z M10.2,136.2 L446.7,136.2 L446.7,10.4 L10.2,10.4 L10.2,136.2 Z" id="Shape" fill="#383A48"></path>
                    </g>
                    <g transform="translate(140.000000, 456.000000)" fill="#383A48" id="Oval">
                        <circle cx="424.7" cy="6.7" r="5"></circle>
                        <circle cx="424.7" cy="31.3" r="5"></circle>
                        <circle cx="424.7" cy="56" r="5"></circle>
                        <circle cx="424.7" cy="80.7" r="5"></circle>
                        <circle cx="400" cy="6.7" r="5"></circle>
                        <circle cx="400" cy="31.3" r="5"></circle>
                        <circle cx="400" cy="56" r="5"></circle>
                        <circle cx="400" cy="80.7" r="5"></circle>
                        <circle cx="375.3" cy="6.7" r="5"></circle>
                        <circle cx="375.3" cy="31.3" r="5"></circle>
                        <circle cx="375.3" cy="56" r="5"></circle>
                        <circle cx="375.3" cy="80.7" r="5"></circle>
                        <circle cx="350.7" cy="6.7" r="5"></circle>
                        <circle cx="350.7" cy="31.3" r="5"></circle>
                        <circle cx="350.7" cy="56" r="5"></circle>
                        <circle cx="350.7" cy="80.7" r="5"></circle>
                        <circle cx="326" cy="6.7" r="5"></circle>
                        <circle cx="326" cy="31.3" r="5"></circle>
                        <circle cx="326" cy="56" r="5"></circle>
                        <circle cx="326" cy="80.7" r="5"></circle>
                        <circle transform="translate(301.327330, 6.699810) rotate(-80.781636) translate(-301.327330, -6.699810) " cx="301.32733" cy="6.69981" r="5.00007612"></circle>
                        <circle transform="translate(301.327690, 31.300230) rotate(-80.781636) translate(-301.327690, -31.300230) " cx="301.32769" cy="31.30023" r="5.00007612"></circle>
                        <circle transform="translate(301.327960, 56.000770) rotate(-80.781636) translate(-301.327960, -56.000770) " cx="301.32796" cy="56.00077" r="5.00007612"></circle>
                        <circle transform="translate(301.328330, 80.701210) rotate(-80.781636) translate(-301.328330, -80.701210) " cx="301.32833" cy="80.70121" r="5.00007612"></circle>
                        <circle cx="276.7" cy="6.7" r="5"></circle>
                        <circle cx="276.7" cy="31.3" r="5"></circle>
                        <circle cx="276.7" cy="56" r="5"></circle>
                        <circle cx="276.7" cy="80.7" r="5"></circle>
                        <circle cx="252" cy="6.7" r="5"></circle>
                        <circle cx="252" cy="31.3" r="5"></circle>
                        <circle cx="252" cy="56" r="5"></circle>
                        <circle cx="252" cy="80.7" r="5"></circle>
                        <circle cx="227.3" cy="6.7" r="5"></circle>
                        <circle cx="227.3" cy="31.3" r="5"></circle>
                        <circle cx="227.3" cy="56" r="5"></circle>
                        <circle cx="227.3" cy="80.7" r="5"></circle>
                        <circle cx="202.7" cy="6.7" r="5"></circle>
                        <circle cx="202.7" cy="31.3" r="5"></circle>
                        <circle cx="202.7" cy="56" r="5"></circle>
                        <circle cx="202.7" cy="80.7" r="5"></circle>
                        <circle cx="178" cy="6.7" r="5"></circle>
                        <circle cx="178" cy="31.3" r="5"></circle>
                        <circle cx="178" cy="56" r="5"></circle>
                        <circle cx="178" cy="80.7" r="5"></circle>
                        <circle cx="153.3" cy="6.7" r="5"></circle>
                        <circle cx="153.3" cy="31.3" r="5"></circle>
                        <circle cx="153.3" cy="56" r="5"></circle>
                        <circle cx="153.3" cy="80.7" r="5"></circle>
                        <circle cx="128.7" cy="6.7" r="5"></circle>
                        <circle cx="128.7" cy="31.3" r="5"></circle>
                        <circle cx="128.7" cy="56" r="5"></circle>
                        <circle cx="128.7" cy="80.7" r="5"></circle>
                        <circle cx="104" cy="6.7" r="5"></circle>
                        <circle cx="104" cy="31.3" r="5"></circle>
                        <circle cx="104" cy="56" r="5"></circle>
                        <circle cx="104" cy="80.7" r="5"></circle>
                        <circle cx="79.3" cy="6.7" r="5"></circle>
                        <circle cx="79.3" cy="31.3" r="5"></circle>
                        <circle cx="79.3" cy="56" r="5"></circle>
                        <circle cx="79.3" cy="80.7" r="5"></circle>
                        <circle cx="54.7" cy="6.7" r="5"></circle>
                        <circle cx="54.7" cy="31.3" r="5"></circle>
                        <circle cx="54.7" cy="56" r="5"></circle>
                        <circle cx="54.7" cy="80.7" r="5"></circle>
                        <circle cx="30" cy="6.7" r="5"></circle>
                        <circle cx="30" cy="31.3" r="5"></circle>
                        <circle cx="30" cy="56" r="5"></circle>
                        <circle cx="30" cy="80.7" r="5"></circle>
                        <circle cx="5.3" cy="6.7" r="5"></circle>
                        <circle cx="5.3" cy="31.3" r="5"></circle>
                        <circle cx="5.3" cy="56" r="5"></circle>
                        <circle cx="5.3" cy="80.7" r="5"></circle>
                    </g>
                    <g transform="translate(0.000000, 263.000000)">
                        <path d="M612.5,182.8 L94.4,182.8 C45.5,182.8 5.8,143.1 5.8,94.2 L5.8,94.2 C5.8,45.3 45.5,5.6 94.4,5.6 L612.6,5.6 C661.5,5.6 701.2,45.3 701.2,94.2 L701.2,94.2 C701.1,143.1 661.5,182.8 612.5,182.8 Z" id="Path" fill="#E0719E"></path>
                        <path d="M612.5,187.8 L94.4,187.8 C42.8,187.8 0.8,145.8 0.8,94.2 C0.8,42.6 42.8,0.6 94.4,0.6 L612.6,0.6 C664.2,0.6 706.2,42.6 706.2,94.2 C706.2,145.8 664.2,187.8 612.5,187.8 Z M94.4,10.6 C48.3,10.6 10.8,48.1 10.8,94.2 C10.8,140.3 48.3,177.8 94.4,177.8 L612.6,177.8 C658.7,177.8 696.2,140.3 696.2,94.2 C696.2,48.1 658.7,10.6 612.6,10.6 L94.4,10.6 Z" id="Shape" fill="#383A48"></path>
                    </g>
                    <path d="M550.2,325.7 L156.7,325.7 C139.3,325.7 125.2,339.8 125.2,357.2 C125.2,374.6 139.3,388.7 156.7,388.7 L550.3,388.7 C567.7,388.7 581.8,374.6 581.8,357.2 C581.8,339.8 567.6,325.7 550.2,325.7 Z" id="Path" fill="#383A48"></path>
                    <g transform="translate(144.000000, 0.000000)">
                        <path d="M39.6,10.9 C130.4,-31.9 164.6,205.6 177.7,383.4 L80.3,383.4 C80.3,383.4 -57,56.4 39.6,10.9 Z" id="Path" fill="#F3F6E6"></path>
                        <path d="M177.7,388.4 L80.3,388.4 C78.3,388.4 76.5,387.2 75.7,385.3 C75.4,384.5 41,302.2 18.9,215.4 C-11.3,96.7 -5.1,26.4 37.5,6.3 L37.5,6.3 C53.8,-1.4 69.4,-1.1 83.6,7.2 C98.8,16.1 112.6,34.4 124.7,61.7 C135.2,85.4 144.7,116.5 152.9,154.2 C166,214.2 176,291.2 182.8,382.9 C182.9,384.3 182.4,385.7 181.5,386.7 C180.4,387.8 179.1,388.4 177.7,388.4 Z M83.7,378.4 L172.4,378.4 C165.7,289.5 155.9,214.8 143.1,156.4 C126,78.3 104.3,31 78.5,16 C67.1,9.3 55.1,9.2 41.7,15.5 C15.9,27.7 -7.4,71.8 28.6,213 C48.1,289.6 77.3,362.7 83.7,378.4 Z" id="Shape" fill="#383A48"></path>
                    </g>
                    <g transform="translate(380.000000, 0.000000)">
                        <path d="M143.3,10.9 C52.5,-31.9 18.3,205.6 5.2,383.4 L102.6,383.4 C102.6,383.4 239.9,56.4 143.3,10.9 Z" id="Path" fill="#F3F6E6"></path>
                        <path d="M102.6,388.4 L5.2,388.4 C3.8,388.4 2.5,387.8 1.5,386.8 C0.6,385.8 0.1,384.4 0.2,383 C6.9,291.2 17,214.3 30.1,154.3 C38.3,116.6 47.8,85.5 58.3,61.8 C70.4,34.5 84.2,16.2 99.4,7.3 C113.7,-1 129.2,-1.3 145.5,6.4 C188,26.4 194.3,96.8 164.1,215.5 C142,302.3 107.6,384.6 107.3,385.4 C106.4,387.2 104.6,388.4 102.6,388.4 Z M10.6,378.4 L99.3,378.4 C105.7,362.7 134.9,289.6 154.4,212.9 C190.3,71.7 167.1,27.6 141.2,15.5 C127.8,9.2 115.8,9.4 104.4,16 C78.6,31.1 56.9,78.3 39.9,156.5 C27.1,214.8 17.3,289.5 10.6,378.4 Z" id="Shape" fill="#383A48"></path>
                    </g>
                    <path d="M421.7,383.4 L474.1,149.1 C474.7,146.3 476.6,144.4 478.8,144.4 L478.8,144.4 C481.9,144.4 484.2,148.2 483.6,152.3 L448.3,383.4" id="Path" fill="#E0719E"></path>
                    <path d="M285.2,383.4 L232.8,149.1 C232.2,146.3 230.3,144.4 228.1,144.4 L228.1,144.4 C225,144.4 222.7,148.2 223.3,152.3 L258.6,383.4" id="Path" fill="#E0719E"></path>
                    <path d="M503.4,388.4 L194.2,388.4 C191.4,388.4 189.2,386.2 189.2,383.4 C189.2,380.6 191.4,378.4 194.2,378.4 L503.4,378.4 C506.2,378.4 508.4,380.6 508.4,383.4 C508.4,386.2 506.2,388.4 503.4,388.4 Z" id="Path" fill="#383A48"></path>
                </g>
                <g transform="translate(97.000000, 55.000000)" id="Path">
                    <path d="M6.3,266.3 L323.1,55.2 C325.4,53.7 328.5,54.3 330,56.6 C331.5,58.8 330.9,61.8 328.8,63.4 L21.2,287.7 C15.4,291.9 7.2,290.7 3,284.8 C-1.2,279 0,270.8 5.9,266.6 C6,266.5 6.2,266.4 6.3,266.3 Z" fill="#383A48" fill-rule="nonzero"></path>
                    <g transform="translate(305.000000, 0.000000)">
                        <line x1="5.1" y1="5.4" x2="7.7" y2="24.8"></line>
                        <path d="M7.7,29.8 C5.2,29.8 3.1,28 2.7,25.5 L0.1,6.1 C-0.3,3.4 1.7,0.8 4.4,0.5 C7.1,0.1 9.7,2.1 10,4.8 L12.6,24.2 C13,26.9 11,29.5 8.3,29.8 C8.1,29.8 7.9,29.8 7.7,29.8 Z" fill="#F3F6E6" fill-rule="nonzero"></path>
                    </g>
                    <g transform="translate(334.000000, 1.000000)">
                        <line x1="11.6" y1="5.5" x2="5" y2="23.9"></line>
                        <path d="M5,28.9 C4.4,28.9 3.9,28.8 3.3,28.6 C0.7,27.7 -0.6,24.8 0.3,22.2 L6.9,3.8 C7.8,1.2 10.7,-0.2 13.3,0.8 C15.9,1.7 17.2,4.6 16.3,7.2 L9.7,25.6 C9,27.6 7.1,28.9 5,28.9 Z" fill="#F3F6E6" fill-rule="nonzero"></path>
                    </g>
                    <g transform="translate(355.000000, 33.000000)">
                        <line x1="23.3" y1="5.2" x2="5.2" y2="12.6"></line>
                        <path d="M5.2,17.6 C3.2,17.6 1.4,16.4 0.6,14.5 C-0.4,11.9 0.8,9 3.4,8 L21.5,0.7 C24.1,-0.3 27,0.9 28,3.5 C29,6.1 27.8,9 25.2,10 L7.1,17.3 C6.4,17.5 5.8,17.6 5.2,17.6 Z" fill="#F3F6E6" fill-rule="nonzero"></path>
                    </g>
                    <g transform="translate(352.000000, 74.000000)">
                        <line x1="23.1" y1="13" x2="5.2" y2="5.1"></line>
                        <path d="M23.1,18 C22.4,18 21.7,17.9 21.1,17.6 L3.2,9.7 C0.7,8.6 -0.5,5.6 0.6,3.1 C1.7,0.6 4.7,-0.6 7.2,0.5 L25.1,8.4 C27.6,9.5 28.8,12.5 27.7,15 C26.8,16.8 25,18 23.1,18 Z" fill="#F3F6E6" fill-rule="nonzero"></path>
                    </g>
                </g>
                <g transform="translate(1060.000000, 0.000000)" fill-rule="nonzero">
                    <g>
                        <polygon id="Path" fill="#F6E049" points="272.1 5.4 84 5.4 5.1 114.3 178 330.6 350.9 114.3"></polygon>
                        <path d="M178,335.6 C176.5,335.6 175,334.9 174.1,333.7 L1.2,117.5 C-0.2,115.7 -0.3,113.3 1.1,111.4 L79.9,2.5 C80.8,1.2 82.3,0.4 84,0.4 L272.1,0.4 C273.7,0.4 275.2,1.2 276.2,2.5 L355,111.4 C356.3,113.2 356.3,115.7 354.9,117.5 L182,333.7 C181,334.9 179.5,335.6 178,335.6 Z M11.4,114.2 L178,322.5 L344.6,114.1 L269.5,10.3 L86.5,10.3 L11.4,114.2 Z" id="Shape" fill="#383A48"></path>
                    </g>
                    <path d="M350.9,119.3 L5.1,119.3 C2.3,119.3 0.1,117.1 0.1,114.3 C0.1,111.5 2.3,109.3 5.1,109.3 L350.9,109.3 C353.7,109.3 355.9,111.5 355.9,114.3 C355.9,117.1 353.7,119.3 350.9,119.3 Z" id="Path" fill="#383A48"></path>
                    <path d="M178,119.3 C177.3,119.3 176.6,119.2 176,118.9 C173.5,117.8 172.4,114.8 173.5,112.3 L222.5,3.4 C223.3,1.6 225,0.5 227,0.5 C228.9,0.5 230.7,1.5 231.6,3.3 L286.3,112.2 C287.5,114.7 286.5,117.7 284.1,118.9 C281.6,120.1 278.6,119.1 277.4,116.7 L227.4,17.2 L182.7,116.6 C181.8,118.2 179.9,119.3 178,119.3 Z" id="Path" fill="#383A48"></path>
                    <path d="M178,335.6 C175.2,335.6 173,333.4 173,330.6 L173,114.3 C173,111.5 175.2,109.3 178,109.3 C180.8,109.3 183,111.5 183,114.3 L183,330.5 C183,333.3 180.8,335.6 178,335.6 Z" id="Path" fill="#383A48"></path>
                    <path d="M178,335.6 C177.3,335.6 176.5,335.4 175.8,335.1 C173.3,333.9 172.3,330.9 173.5,328.4 L277.2,112.2 C278.4,109.7 281.4,108.7 283.9,109.9 C286.4,111.1 287.4,114.1 286.2,116.6 L182.5,332.8 C181.7,334.5 179.9,335.6 178,335.6 Z" id="Path" fill="#383A48"></path>
                    <path d="M178,119.3 C176.1,119.3 174.3,118.2 173.4,116.4 L128.7,17 L78.7,116.5 C77.5,119 74.5,120 72,118.7 C69.5,117.5 68.5,114.5 69.8,112 L124.5,3.1 C125.4,1.4 127.2,0.3 129.1,0.3 C131,0.3 132.8,1.5 133.6,3.2 L182.6,112.1 C183.7,114.6 182.6,117.6 180.1,118.7 C179.4,119.2 178.7,119.3 178,119.3 Z" id="Path" fill="#383A48"></path>
                    <path d="M178,335.6 C176.1,335.6 174.3,334.6 173.5,332.8 L69.8,116.6 C68.6,114.1 69.7,111.1 72.1,109.9 C74.6,108.7 77.6,109.8 78.8,112.2 L182.5,328.4 C183.7,330.9 182.6,333.9 180.2,335.1 C179.5,335.4 178.8,335.6 178,335.6 Z" id="Path" fill="#383A48"></path>
                </g>
                <path d="M299.9,643.4 C288.5,643.4 287.3,632.5 287.3,627.9 C287.3,625.1 285.1,622.9 282.3,622.9 C279.5,622.9 277.3,625.1 277.3,627.9 C277.3,632.6 276.1,643.4 264.7,643.4 C261.9,643.4 259.7,645.6 259.7,648.4 C259.7,651.2 261.9,653.4 264.7,653.4 C276.1,653.4 277.3,664.3 277.3,668.9 C277.3,671.7 279.5,673.9 282.3,673.9 C285.1,673.9 287.3,671.7 287.3,668.9 C287.3,664.2 288.5,653.4 299.9,653.4 C302.7,653.4 304.9,651.2 304.9,648.4 C304.9,645.6 302.6,643.4 299.9,643.4 Z" id="Path" fill="#383A48" fill-rule="nonzero"></path>
                <path d="M705.4,178 C694,178 692.8,167.1 692.8,162.5 C692.8,159.7 690.6,157.5 687.8,157.5 C685,157.5 682.8,159.7 682.8,162.5 C682.8,167.2 681.6,178 670.2,178 C667.4,178 665.2,180.2 665.2,183 C665.2,185.8 667.4,188 670.2,188 C681.6,188 682.8,198.9 682.8,203.5 C682.8,206.3 685,208.5 687.8,208.5 C690.6,208.5 692.8,206.3 692.8,203.5 C692.8,198.8 694,188 705.4,188 C708.2,188 710.4,185.8 710.4,183 C710.4,180.2 708.2,178 705.4,178 Z" id="Path" fill="#F6E049" fill-rule="nonzero"></path>
                <path d="M1075.3,632.1 C1063.9,632.1 1062.7,621.2 1062.7,616.6 C1062.7,613.8 1060.5,611.6 1057.7,611.6 C1054.9,611.6 1052.7,613.8 1052.7,616.6 C1052.7,621.3 1051.5,632.1 1040.1,632.1 C1037.3,632.1 1035.1,634.3 1035.1,637.1 C1035.1,639.9 1037.3,642.1 1040.1,642.1 C1051.5,642.1 1052.7,653 1052.7,657.6 C1052.7,660.4 1054.9,662.6 1057.7,662.6 C1060.5,662.6 1062.7,660.4 1062.7,657.6 C1062.7,652.9 1063.9,642.1 1075.3,642.1 C1078.1,642.1 1080.3,639.9 1080.3,637.1 C1080.3,634.3 1078.1,632.1 1075.3,632.1 Z" id="Path" fill="#F6E049" fill-rule="nonzero"></path>
                <path d="M1025.9,831.6 L344.8,831.6 C342,831.6 339.8,829.4 339.8,826.6 C339.8,823.8 342,821.6 344.8,821.6 L1025.9,821.6 C1028.7,821.6 1030.9,823.8 1030.9,826.6 C1030.9,829.4 1028.6,831.6 1025.9,831.6 Z" id="Path" fill="#383A48" fill-rule="nonzero"></path>
                <path d="M1428.6,563.7 C1358.4,563.7 1292.3,591.1 1242.7,640.7 C1193,690.4 1165.7,756.4 1165.7,826.6 C1165.7,829.4 1167.9,831.6 1170.7,831.6 L1428.7,831.6 C1431.5,831.6 1433.7,829.4 1433.7,826.6 L1433.7,568.6 C1433.6,565.9 1431.4,563.7 1428.6,563.7 Z" id="Path" fill="#AAC6FC" fill-rule="nonzero"></path>
                <path d="M1428.6,666.5 C1340.3,666.5 1268.5,738.3 1268.5,826.6 C1268.5,829.4 1270.7,831.6 1273.5,831.6 L1428.6,831.6 C1431.4,831.6 1433.6,829.4 1433.6,826.6 L1433.6,671.5 C1433.6,668.7 1431.4,666.5 1428.6,666.5 Z" id="Path" fill="#4053FA" fill-rule="nonzero"></path>
                <path d="M1212.3,545.8 C1210.2,545.8 1208,545.4 1205.9,544.6 C1198.9,542 1193.8,535.6 1192.6,527.9 C1191.7,522.2 1192.3,511 1206.5,499.7 C1208.3,498.3 1211.8,495.7 1216.6,493.2 C1197.1,439.3 1130.7,362.1 1064.6,356.6 C1061.8,356.4 1059.8,354 1060,351.2 C1060.2,348.4 1062.6,346.4 1065.4,346.6 C1098.7,349.3 1135.1,369.2 1168,402.4 C1193.8,428.5 1215.5,461.2 1225.8,489.2 C1245.9,482.1 1278.4,481.1 1314.4,521.2 C1316.2,523.3 1316.1,526.4 1314,528.3 C1311.9,530.1 1308.8,530 1306.9,527.9 C1288.1,507 1268.7,496 1249,495.4 C1241.3,495.2 1234.4,496.6 1228.8,498.6 C1236.1,524.1 1230,536 1223.4,541.5 C1220.2,544.4 1216.3,545.8 1212.3,545.8 Z M1219.7,502.9 C1216.6,504.7 1214.2,506.4 1212.7,507.6 C1205.2,513.6 1201.5,520.2 1202.5,526.4 C1203.1,530.4 1205.8,533.9 1209.4,535.3 C1211.3,536 1214.2,536.4 1217.1,534 C1222.8,529.2 1223.7,518 1219.7,502.9 Z" id="Shape" fill="#383A48" fill-rule="nonzero"></path>
                <path d="M108.9,499 C108.6,499 108.3,499 108,498.9 C105.3,498.4 103.5,495.8 104,493.1 L107.2,475.2 C108.5,468 112.5,461.7 118.6,457.6 C124.6,453.4 131.9,451.9 139.1,453.2 L155.4,456.2 C164.8,457.9 173.9,451.6 175.6,442.2 L178.6,425.9 C179.9,418.7 183.9,412.4 190,408.3 C196,404.1 203.3,402.6 210.5,403.9 L226.8,406.9 C231.4,407.7 236,406.7 239.8,404.1 C243.6,401.5 246.2,397.5 247,392.9 L250,376.6 C251.3,369.4 255.3,363.1 261.4,359 C267.4,354.8 274.7,353.3 281.9,354.6 L298.3,357.6 C301,358.1 302.8,360.7 302.3,363.4 C301.8,366.1 299.2,367.9 296.5,367.4 L280.1,364.4 C275.5,363.6 270.9,364.6 267.1,367.2 C263.3,369.8 260.7,373.8 259.9,378.4 L256.9,394.7 C255.6,401.9 251.6,408.2 245.5,412.3 C239.5,416.5 232.2,418 225,416.7 L208.7,413.7 C204.1,412.9 199.5,413.9 195.7,416.5 C191.9,419.1 189.3,423.1 188.5,427.7 L185.5,444 C184.2,451.2 180.2,457.5 174.1,461.6 C168.1,465.8 160.8,467.3 153.6,466 L137.3,463 C132.7,462.2 128.1,463.2 124.3,465.8 C120.5,468.4 117.9,472.4 117.1,477 L113.9,494.9 C113.3,497.3 111.2,499 108.9,499 Z" id="Path" fill="#383A48" fill-rule="nonzero"></path>
                <path d="M991.7,258.6 C990.5,258.6 989.2,258.1 988.2,257.2 C986.2,255.3 986.1,252.1 988.1,250.1 L1029.2,207.2 C1031.1,205.2 1034.3,205.1 1036.3,207.1 C1038.3,209 1038.4,212.2 1036.4,214.2 L995.3,257.1 C994.4,258.1 993,258.6 991.7,258.6 Z" id="Path" fill="#F3F6E6" fill-rule="nonzero"></path>
                <path d="M949.6,212 C948.8,212 948,211.8 947.2,211.4 C944.8,210.1 943.9,207.1 945.2,204.6 L974.2,151 C975.5,148.6 978.5,147.7 981,149 C983.4,150.3 984.3,153.3 983,155.8 L954,209.4 C953.1,211 951.4,212 949.6,212 Z" id="Path" fill="#F3F6E6" fill-rule="nonzero"></path>
                <path d="M169.1,6.3 L5.4,6.3 C2.6,6.3 0.4,8.5 0.4,11.3 L0.4,175 C0.4,177.8 2.6,180 5.4,180 C98.4,180 174.1,104.3 174.1,11.3 C174.1,8.6 171.9,6.3 169.1,6.3 Z" id="Path" fill="#AAC6FC" fill-rule="nonzero"></path>
            </g>
        </g>
    </g>
</svg>