<svg xmlns="http://www.w3.org/2000/svg" xmlns:xlink="http://www.w3.org/1999/xlink" width="1432" height="768" version="1.1" viewBox="0 0 1432 768"><title>marketing</title><desc>Created with Sketch.</desc><g id="Page-1" fill="none" fill-rule="evenodd" stroke="none" stroke-width="1"><g id="marketing" transform="translate(-244.000000, -156.000000)"><g id="Group" transform="translate(243.000000, 156.000000)"><path id="Path" fill="#F3F6E6" fill-rule="nonzero" d="M1425.9,0.3 L1038.4,0.3 C1035.9,0.3 1033.8,2.1 1033.5,4.5 C1033.1,6.9 1034.6,9.3 1036.9,10 C1122.5,37.2 1189.1,68.9 1240.3,107.1 C1305.2,155.4 1344.2,213.9 1356.1,281 C1358.8,296.1 1360.2,312 1360.2,328.2 C1360.2,371.6 1350.8,408.6 1330.6,444.4 C1312.5,476.5 1288.2,503.6 1262.4,532.2 C1236.9,560.6 1210.5,589.9 1188.5,626.2 C1163.5,667.4 1148,711.8 1141,761.8 C1140.8,763.2 1141.2,764.7 1142.2,765.8 C1143.1,766.9 1144.5,767.5 1146,767.5 L1425.9,767.5 C1428.7,767.5 1430.9,765.3 1430.9,762.5 L1430.9,5.3 C1430.9,2.6 1428.7,0.3 1425.9,0.3 Z"/><g id="Oval" fill="#383A48" fill-rule="nonzero" transform="translate(1283.000000, 123.000000)"><circle cx="128.9" cy="30.1" r="5"/><circle cx="128.9" cy="54.8" r="5"/><circle cx="128.9" cy="79.4" r="5"/><circle cx="128.9" cy="104.1" r="5"/><circle cx="128.9" cy="128.8" r="5"/><circle cx="104.3" cy="5.4" r="5"/><circle cx="104.3" cy="30.1" r="5"/><circle cx="104.3" cy="54.8" r="5"/><circle cx="104.3" cy="79.4" r="5"/><circle cx="104.3" cy="104.1" r="5"/><circle cx="104.3" cy="128.8" r="5"/><circle cx="104.3" cy="153.4" r="5"/><circle cx="79.6" cy="5.4" r="5"/><circle cx="79.6" cy="30.1" r="5"/><circle cx="79.6" cy="54.8" r="5"/><circle cx="79.6" cy="79.4" r="5"/><circle cx="79.6" cy="104.1" r="5"/><circle cx="79.6" cy="128.8" r="5"/><circle cx="79.6" cy="153.4" r="5"/><circle cx="54.9" cy="5.4" r="5"/><circle cx="54.9" cy="30.1" r="5"/><circle cx="54.9" cy="54.8" r="5"/><circle cx="54.9" cy="79.4" r="5"/><circle cx="30.3" cy="5.4" r="5"/><circle cx="30.3" cy="30.1" r="5"/><circle cx="30.3" cy="54.8" r="5"/><circle cx="5.6" cy="5.4" r="5"/></g><path id="Path" fill="#F3F6E6" fill-rule="nonzero" d="M583.5,761.1 C491.4,476.1 359.7,439.9 253.9,410.8 C220.2,401.5 188.3,392.8 161.5,376.8 C96.9,338.1 83.8,273.7 67.1,192.2 C55.6,136.1 42.6,72.4 10.5,3.3 C9.5,1.2 7.2,-8.52096171e-14 4.9,0.5 C2.6,1 1,3 1,5.4 L1,762.7 C1,765.5 3.2,767.7 6,767.7 L578.7,767.7 C580.3,767.7 581.8,766.9 582.7,765.6 C583.7,764.3 584,762.6 583.5,761.1 Z"/><g fill-rule="nonzero" transform="translate(318.000000, 98.000000)"><path id="Path" fill="#383A48" d="M173,477.6 L83,288.1 C82.4,286.9 81.4,286 80.2,285.5 C79,285.1 77.6,285.1 76.4,285.7 L20.4,312.3 C11.8,316.4 5.3,323.6 2.1,332.5 C-1.1,341.5 -0.6,351.1 3.5,359.7 L67.2,494 C73.3,506.8 86.1,514.3 99.4,514.3 C104.5,514.3 109.7,513.2 114.6,510.9 L170.6,484.3 C173.1,483.1 174.2,480.1 173,477.6 Z"/><g transform="translate(163.000000, 405.000000)"><path id="Path" fill="#F3F6E6" d="M242.9,6.4 C207.9,6.9 179.6,13.2 155.8,17.7 C130.5,22.5 112.9,42.5 109.2,65.6 C107.4,76.7 108.8,88.5 114.1,99.7 L167.7,212.7 C171.6,221 168.1,230.9 159.8,234.8 L110.8,258 C102.5,261.9 92.6,258.4 88.7,250.1 L5.5,74.7 C5.5,74.8 130.3,-1.6 242.9,6.4 Z"/><path id="Shape" fill="#383A48" d="M103.8,264.7 C101.4,264.7 98.9,264.3 96.5,263.4 C91.1,261.5 86.7,257.5 84.2,252.3 L1,76.9 C-0.1,74.6 0.7,71.8 2.9,70.5 C3.2,70.3 35,51 80.1,32.9 C121.9,16.2 184.1,-2.8 243.2,1.4 C245.9,1.6 247.9,3.9 247.8,6.5 C247.7,9.1 245.6,11.3 242.9,11.4 C212.2,11.9 187,16.7 164.8,21 C162,21.5 159.4,22.1 156.7,22.5 C134.8,26.6 117.6,44.2 114.1,66.3 C112.4,76.9 113.9,87.7 118.6,97.5 L172.2,210.5 C174.7,215.7 175,221.6 173,227 C171.1,232.4 167.1,236.8 161.9,239.3 L112.9,262.5 C110.1,264 106.9,264.7 103.8,264.7 Z M12,76.8 L93.3,248 C94.6,250.8 97,252.9 99.9,254 C102.8,255 106,254.9 108.8,253.6 L157.8,230.4 C160.6,229.1 162.7,226.7 163.8,223.8 C164.8,220.9 164.7,217.7 163.4,214.9 L109.8,101.9 C104.3,90.3 102.4,77.4 104.5,64.8 C106.9,50.3 114.2,37.4 124.6,28 C69.6,44.9 25,69.3 12,76.8 Z"/></g><g transform="translate(73.000000, 56.000000)"><path id="Path" fill="#F6E049" d="M5.5,234.3 C137,171.9 207.1,110.4 267.7,5.7 L438.4,365.2 C267.2,338.5 210.5,369.2 95.5,423.8 L5.5,234.3 Z"/><path id="Shape" fill="#383A48" d="M95.5,428.8 C93.6,428.8 91.8,427.7 91,425.9 L1,236.4 C-0.2,233.9 0.9,230.9 3.4,229.7 C70.1,198 119.8,167 159.9,132 C199.7,97.3 232.6,56.3 263.4,3.1 C264.3,1.5 266.1,0.5 267.9,0.6 C269.8,0.7 271.4,1.8 272.2,3.5 L442.9,363 C443.7,364.7 443.5,366.6 442.4,368.1 C441.3,369.6 439.5,370.3 437.6,370.1 C359.8,358 302.5,357.3 251.9,367.8 C203.7,377.8 161.9,397.7 109,422.9 C105.3,424.7 101.5,426.5 97.6,428.3 C96.9,428.6 96.2,428.8 95.5,428.8 Z M12.2,236.7 L97.9,417.2 C100.2,416.1 102.5,415 104.7,413.9 C210.6,363.5 269.9,335.3 429.8,358.8 L267.3,16.3 C207.7,116 137.4,176.6 12.2,236.7 Z"/></g><path id="Path" fill="#383A48" d="M406.3,406.4 C373.7,404.1 318.9,407.6 243.2,437.9 C198.1,455.9 166.3,475.3 166,475.5 C163.8,476.8 163,479.6 164.1,481.9 L178.9,513.1 C179.8,514.9 181.5,516 183.4,516 C184.1,516 184.8,515.8 185.5,515.5 C189.3,513.7 193,511.9 196.7,510.2 C225.2,496.6 249.9,484.9 274.1,475.3 C275.7,474.7 276.9,473.2 277.2,471.5 C280.8,449.5 297.9,431.9 319.8,427.7 C322.4,427.2 325.1,426.7 327.9,426.2 C350.1,421.9 375.3,417 406,416.6 C408.7,416.6 410.8,414.4 410.9,411.7 C411,409 408.9,406.6 406.3,406.4 Z"/><g transform="translate(289.000000, 0.000000)"><path id="Path" fill="#F3F6E6" d="M363.9,133.8 C414.3,240 380.2,361.6 287.8,405.5 C218.1,438.6 135,418 76.8,360.3 C57.9,341.5 41.5,318.8 29.2,292.8 C16.8,266.7 9.5,239.7 7,213.2 C-0.9,131.6 35.6,54.2 105.3,21.1 C197.7,-22.9 313.5,27.6 363.9,133.8 Z"/><path id="Shape" fill="#383A48" d="M217,426.3 C203.7,426.3 190.3,424.8 176.8,421.8 C138.7,413.3 102.9,393.2 73.2,363.8 C53.3,344.1 36.9,320.9 24.6,294.9 C12.3,268.9 4.6,241.5 1.9,213.6 C-2.1,172 5,131.6 22.4,96.7 C40.4,60.8 68.2,33.1 103,16.6 C149,-5.2 202,-5.2 252.2,16.7 C302.2,38.5 343.4,79.4 368.3,131.8 C393.2,184.2 398.8,242 384.1,294.5 C369.3,347.2 335.8,388.3 289.8,410.1 C267.1,420.8 242.4,426.3 217,426.3 Z M176.1,10.1 C152.3,10.1 129,15.2 107.4,25.5 C74.7,41 48.4,67.2 31.4,101.1 C14.8,134.3 8,172.9 11.9,212.6 C14.5,239.4 21.8,265.6 33.7,290.5 C45.5,315.5 61.2,337.7 80.3,356.6 C108.6,384.7 142.8,403.8 179,411.9 C216,420.2 252.8,416.4 285.6,400.8 C329,380.2 360.6,341.4 374.5,291.5 C388.5,241.4 383.1,186.1 359.3,135.8 C335.4,85.5 296,46.4 248.3,25.6 C224.5,15.3 200,10.1 176.1,10.1 Z"/></g><g transform="translate(290.000000, 134.000000)"><path id="Path" fill="#F3F6E6" d="M160.6,5.6 L230.5,152.8 L75.9,226.2 C57,207.4 40.6,184.7 28.3,158.7 C15.9,132.6 8.6,105.6 6.1,79.1 L160.6,5.6 Z"/><path id="Shape" fill="#383A48" d="M75.8,231.2 C74.5,231.2 73.2,230.7 72.3,229.8 C52.4,210.1 36,186.9 23.7,160.9 C11.4,134.9 3.7,107.5 1,79.6 C0.8,77.5 1.9,75.5 3.8,74.6 L158.4,1.2 C159.6,0.6 161,0.6 162.2,1 C163.4,1.4 164.5,2.4 165,3.6 L234.9,150.8 C236.1,153.3 235,156.3 232.5,157.5 L77.9,230.9 C77.3,231 76.5,231.2 75.8,231.2 Z M11.3,82 C14.2,107.6 21.4,132.6 32.7,156.5 C44,180.4 58.9,201.8 76.9,220.2 L223.8,150.5 L158.2,12.4 L11.3,82 Z"/></g><g id="Oval" fill="#383A48" transform="translate(297.000000, 167.000000)"><circle cx="153.6" cy="128.6" r="5"/><circle cx="128.9" cy="104" r="5"/><circle cx="128.9" cy="128.6" r="5"/><circle cx="128.9" cy="153.3" r="5"/><circle cx="104.3" cy="5.3" r="5"/><circle cx="104.3" cy="30" r="5"/><circle cx="104.3" cy="54.6" r="5"/><circle cx="104.3" cy="79.3" r="5"/><circle cx="104.3" cy="104" r="5"/><circle cx="104.3" cy="128.6" r="5"/><circle cx="104.3" cy="153.3" r="5"/><circle cx="79.6" cy="30" r="5"/><circle cx="79.6" cy="54.6" r="5"/><circle cx="79.6" cy="79.3" r="5"/><circle cx="79.6" cy="104" r="5"/><circle cx="79.6" cy="128.6" r="5"/><circle cx="79.6" cy="153.3" r="5"/><circle cx="79.6" cy="178" r="5"/><circle cx="54.9" cy="30" r="5"/><circle cx="54.9" cy="54.6" r="5"/><circle cx="54.9" cy="79.3" r="5"/><circle cx="54.9" cy="104" r="5"/><circle cx="54.9" cy="128.6" r="5"/><circle cx="54.9" cy="153.3" r="5"/><circle cx="30.3" cy="54.6" r="5"/><circle cx="30.3" cy="79.3" r="5"/><circle cx="30.3" cy="104" r="5"/><circle cx="30.3" cy="128.6" r="5"/><circle cx="5.6" cy="54.6" r="5"/></g><g transform="translate(386.000000, 109.000000)"><ellipse id="Oval" cx="99.52" cy="104.298" fill="#F3F6E6" rx="70.9" ry="81.4" transform="translate(99.519740, 104.298320) rotate(-25.391416) translate(-99.519740, -104.298320)"/><path id="Shape" fill="#383A48" d="M107.5,188.8 C77.1,188.8 46.4,169.2 31,136.7 C21.2,116 18.9,93.1 24.8,72.3 C30.7,51.2 44.1,34.8 62.5,26.1 C80.9,17.3 102.1,17.3 122.2,26.1 C142,34.7 158.3,50.9 168.2,71.7 C188.6,114.8 174.5,164.4 136.7,182.3 C127.3,186.7 117.4,188.8 107.5,188.8 Z M91.7,29.5 C83,29.5 74.6,31.4 66.7,35.1 C50.9,42.6 39.4,56.8 34.3,75 C29.1,93.5 31.1,113.9 39.9,132.4 C58,170.5 99.4,188.8 132.2,173.2 C165,157.6 177,114 159,75.9 C150.2,57.3 135.6,42.9 118.1,35.2 C109.4,31.4 100.4,29.5 91.7,29.5 Z"/></g></g><path id="Shape" fill="#383A48" fill-rule="nonzero" d="M489,257.8 C487.5,257.8 486,257.1 485,255.9 C483.3,253.7 483.7,250.6 485.9,248.9 C487.4,247.7 488.9,246.6 490.4,245.4 C492.6,243.7 495.7,244 497.4,246.2 C499.1,248.4 498.8,251.5 496.6,253.2 C495.1,254.4 493.6,255.6 492,256.8 C491.1,257.4 490.1,257.8 489,257.8 Z M516.3,234.7 C515,234.7 513.6,234.2 512.6,233.1 C510.7,231.1 510.8,227.9 512.9,226 C515.8,223.3 518.7,220.6 521.5,217.8 C523.5,215.9 526.6,215.9 528.6,217.9 C530.5,219.9 530.5,223 528.5,225 C525.6,227.8 522.7,230.6 519.7,233.4 C518.7,234.3 517.5,234.7 516.3,234.7 Z M545.5,204.6 C544.3,204.6 543.2,204.2 542.2,203.4 C540.1,201.6 539.9,198.4 541.7,196.3 C544.3,193.3 546.8,190.3 549.3,187.2 C551,185.1 554.2,184.7 556.3,186.5 C558.4,188.2 558.8,191.4 557,193.5 C554.4,196.6 551.8,199.8 549.2,202.8 C548.3,204 546.9,204.6 545.5,204.6 Z M571,171.3 C570.3,171.3 569.5,171.1 568.8,170.8 C566.3,169.6 565.3,166.6 566.5,164.1 C568.3,160.5 570.2,156.8 572.2,153.3 C573.5,150.9 576.6,150 579,151.4 C581.4,152.7 582.3,155.8 580.9,158.2 C579,161.6 577.2,165.1 575.4,168.6 C574.6,170.3 572.8,171.3 571,171.3 Z M592.7,135.4 C591.7,135.4 590.7,135.1 589.8,134.4 C587.6,132.8 587.1,129.7 588.7,127.4 C591.1,124.1 593.6,120.8 596.1,117.7 C597.8,115.5 601,115.2 603.1,116.9 C605.3,118.6 605.6,121.8 603.9,123.9 C601.5,126.9 599.1,130.1 596.8,133.2 C595.7,134.7 594.2,135.4 592.7,135.4 Z M620.2,103.7 C618.9,103.7 617.6,103.2 616.6,102.2 C614.7,100.2 614.7,97 616.7,95.1 C619.6,92.3 622.7,89.5 625.7,86.8 C627.8,85 630.9,85.2 632.8,87.3 C634.6,89.4 634.4,92.5 632.3,94.4 C629.4,97 626.5,99.6 623.7,102.3 C622.7,103.3 621.4,103.7 620.2,103.7 Z M652.8,77.4 C651.2,77.4 649.6,76.6 648.6,75.2 C647.1,72.9 647.7,69.8 650,68.3 C653.4,66 656.9,63.8 660.4,61.8 C662.8,60.4 665.8,61.2 667.3,63.5 C668.7,65.9 667.9,68.9 665.6,70.4 C662.3,72.4 658.9,74.5 655.7,76.7 C654.7,77.1 653.8,77.4 652.8,77.4 Z M689.7,57.4 C687.8,57.4 685.9,56.3 685.1,54.4 C684,51.9 685.2,48.9 687.7,47.8 C691.4,46.2 695.3,44.6 699.1,43.2 C701.7,42.2 704.6,43.5 705.5,46.1 C706.5,48.7 705.2,51.6 702.6,52.5 C699,53.9 695.3,55.3 691.7,56.9 C691,57.2 690.3,57.4 689.7,57.4 Z M729.5,44.2 C727.2,44.2 725.2,42.6 724.6,40.3 C724,37.6 725.6,34.9 728.3,34.3 C732.3,33.4 736.3,32.6 740.3,31.8 C743,31.3 745.6,33.1 746.1,35.8 C746.6,38.5 744.8,41.1 742.1,41.6 C738.3,42.3 734.4,43.1 730.6,44 C730.2,44.2 729.8,44.2 729.5,44.2 Z M771,38.4 C768.4,38.4 766.1,36.3 766,33.6 C765.9,30.8 768,28.5 770.7,28.4 C774.7,28.2 778.9,28.1 782.9,28.1 C785.7,28.1 787.9,30.3 787.9,33.1 C787.9,35.9 785.7,38.1 782.9,38.1 C779,38.1 775,38.2 771.1,38.4 C771.2,38.4 771.1,38.4 771,38.4 Z"/><g id="Path" fill="#383A48" fill-rule="nonzero"><path d="M80.8,100.9 C79.4,100.9 78,100.3 77,99.1 C75.2,97 75.5,93.8 77.6,92.1 L101,72.5 C103.1,70.7 106.3,71 108,73.1 C109.8,75.2 109.5,78.4 107.4,80.1 L84,99.7 C83,100.5 81.9,100.9 80.8,100.9 Z" transform="translate(897.000000, 50.000000)"/><path d="M130.2,186.3 C128.2,186.3 126.2,185 125.5,183 C124.5,180.4 125.9,177.5 128.5,176.6 L157.1,166.1 C159.7,165.1 162.6,166.5 163.5,169.1 C164.5,171.7 163.1,174.6 160.5,175.5 L131.9,186 C131.3,186.2 130.8,186.3 130.2,186.3 Z" transform="translate(897.000000, 50.000000)"/><path d="M147.8,283.4 C145.1,283.4 142.8,281.2 142.8,278.4 C142.8,275.6 145,273.4 147.8,273.4 L178.3,273.2 L178.3,273.2 C181,273.2 183.3,275.4 183.3,278.2 C183.3,281 181.1,283.2 178.3,283.2 L147.8,283.4 L147.8,283.4 Z" transform="translate(897.000000, 50.000000)"/><path d="M160.2,390.9 C159.6,390.9 159.1,390.8 158.5,390.6 L129.7,380.5 C127.1,379.6 125.7,376.7 126.6,374.1 C127.5,371.5 130.4,370.1 133,371 L161.8,381.1 C164.4,382 165.8,384.9 164.9,387.5 C164.2,389.6 162.3,390.9 160.2,390.9 Z" transform="translate(897.000000, 50.000000)"/><path d="M5.4,37.1 C4.5,37.1 3.7,36.9 2.9,36.4 C0.5,35 -0.3,31.9 1.1,29.6 L16.5,3.3 C17.9,0.9 21,0.1 23.3,1.5 C25.7,2.9 26.5,6 25.1,8.3 L9.7,34.6 C8.8,36.3 7.1,37.1 5.4,37.1 Z" transform="translate(897.000000, 50.000000)"/></g><g fill-rule="nonzero"><g transform="translate(0.000000, 41.000000)"><path id="Path" fill="#F6E049" d="M188.2,98.7 L252.8,99 L253.2,6.1 L188.6,5.79871334 C124.2,5.5 71.5,57.7 71.2,122.1 L70.9,185.7 L6.4,185.4 L6,278.3 L70.5,278.6 L69.5,493.1 L162.4,493.5 L163.4,279 L215.6,279.2 L246.7,186.4 L163.8,186 L164.1,122.4 C164.3,109.3 175,98.6 188.2,98.7 Z"/><path id="Shape" fill="#383A48" d="M162.5,498.6 L162.5,498.6 L69.5,498.2 C66.7,498.2 64.5,495.9 64.5,493.2 L65.4,283.7 L5.9,283.4 C4.6,283.4 3.3,282.9 2.4,281.9 C1.5,281 0.9,279.7 1,278.4 L1.4,185.5 C1.4,182.7 3.6,180.5 6.4,180.5 L6.4,180.5 L65.9,180.8 L66.2,122.2 C66.5,55.2 121.1,0.9 188.1,0.9 C188.3,0.9 188.5,0.9 188.7,0.9 L253.3,1.2 C254.6,1.2 255.9,1.7 256.8,2.7 C257.7,3.6 258.3,4.9 258.2,6.2 L257.8,99.1 C257.8,100.4 257.3,101.7 256.3,102.6 C255.4,103.5 254.1,104 252.8,104 L252.8,104 L188.2,103.7 L188.1,103.7 C183.1,103.7 178.4,105.6 174.8,109.2 C171.2,112.8 169.2,117.5 169.2,122.5 L168.9,181.1 L246.8,181.4 C248.4,181.4 249.9,182.2 250.8,183.5 C251.7,184.8 252,186.5 251.5,188 L220.4,280.8 C219.7,282.8 217.8,284.2 215.7,284.2 L215.7,284.2 L168.5,284 L167.6,493.5 C167.6,494.8 167.1,496.1 166.1,497 C165.1,498.1 163.9,498.6 162.5,498.6 Z M74.6,488.2 L157.5,488.6 L158.4,279.1 C158.4,277.8 158.9,276.5 159.9,275.6 C160.8,274.7 162.1,274.2 163.4,274.2 L163.4,274.2 L211.9,274.4 L239.7,191.6 L163.8,191.3 C162.5,191.3 161.2,190.8 160.3,189.8 C159.4,188.9 158.8,187.6 158.9,186.3 L159.2,122.7 C159.2,115 162.3,107.7 167.8,102.3 C173.3,96.9 180.5,93.9 188.2,93.9 L188.3,93.9 L188.3,93.9 L247.9,94.2 L248.3,11.3 L188.7,11 C188.5,11 188.4,11 188.2,11 C126.7,11 76.6,60.9 76.3,122.4 L76,186 C76,187.3 75.5,188.6 74.5,189.5 C73.6,190.4 72.3,190.9 71,190.9 L71,190.9 L11.5,190.6 L11.1,273.5 L70.6,273.8 C71.9,273.8 73.2,274.3 74.1,275.3 C75,276.2 75.6,277.5 75.5,278.8 L74.6,488.2 Z"/></g><g transform="translate(0.000000, 41.000000) translate(51.000000, 1.000000)"><path id="Path" fill="#F3F6E6" d="M188.2,97.7 L252.8,98 L253.2,5.1 L188.6,4.79871334 C124.2,4.5 71.5,56.7 71.2,121.1 L70.9,184.7 L6.4,184.4 L6,277.3 L70.5,277.6 L69.5,492.1 L162.4,492.5 L163.4,278 L215.6,278.2 L246.7,185.4 L163.8,185 L164.1,121.4 C164.3,108.3 175,97.6 188.2,97.7 Z"/><path id="Shape" fill="#383A48" d="M162.5,497.6 L162.5,497.6 L69.5,497.2 C66.7,497.2 64.5,494.9 64.5,492.2 L65.4,282.7 L5.9,282.4 C3.1,282.4 0.9,280.1 0.9,277.4 L1.3,184.5 C1.3,183.2 1.8,181.9 2.8,181 C3.7,180.1 5,179.6 6.3,179.6 L6.3,179.6 L65.8,179.9 L66.1,121.3 C66.4,54.3 121,0 188,0 C188.2,0 188.4,0 188.6,0 L253.2,0.3 C254.5,0.3 255.8,0.8 256.7,1.8 C257.6,2.7 258.2,4 258.1,5.3 L257.7,98.2 C257.7,99.5 257.2,100.8 256.2,101.7 C255.3,102.6 254,103.1 252.7,103.1 L252.7,103.1 L188.1,102.8 L188,102.8 C177.6,102.8 169.1,111.2 169.1,121.6 L168.8,180.2 L246.7,180.5 C248.3,180.5 249.8,181.3 250.7,182.6 C251.6,183.9 251.9,185.6 251.4,187.1 L220.3,279.9 C219.6,281.9 217.7,283.3 215.6,283.3 L215.6,283.3 L168.4,283.1 L167.5,492.6 C167.5,493.9 167,495.2 166,496.1 C165.1,497.1 163.9,497.6 162.5,497.6 Z M74.6,487.2 L157.5,487.6 L158.4,278.1 C158.4,276.8 158.9,275.5 159.9,274.6 C160.8,273.7 162.1,273.2 163.4,273.2 L163.4,273.2 L211.9,273.4 L239.7,190.6 L163.8,190.3 C162.5,190.3 161.2,189.8 160.3,188.8 C159.4,187.9 158.8,186.6 158.9,185.3 L159.2,121.7 C159.3,105.8 172.2,92.9 188.1,92.9 L188.2,92.9 L188.2,92.9 L247.8,93.2 L248.2,10.3 L188.6,10 C188.4,10 188.3,10 188.1,10 C126.6,10 76.5,59.9 76.2,121.4 L75.9,185 C75.9,187.8 73.7,190 70.9,190 L70.9,190 L11.4,189.7 L11,272.6 L70.5,272.9 C71.8,272.9 73.1,273.4 74,274.4 C74.9,275.3 75.5,276.6 75.4,277.9 L74.6,487.2 Z"/></g><g transform="translate(0.000000, 41.000000) translate(102.000000, 1.000000)"><path id="Path" fill="#7FD6C2" d="M188.2,97.7 L252.8,98 L253.2,5.1 L188.6,4.79871334 C124.2,4.5 71.5,56.7 71.2,121.1 L70.9,184.7 L6.4,184.4 L6,277.3 L70.5,277.6 L69.5,492.1 L162.4,492.5 L163.4,278 L215.6,278.2 L246.7,185.4 L163.8,185 L164.1,121.4 C164.3,108.3 175,97.6 188.2,97.7 Z"/><path id="Shape" fill="#383A48" d="M162.5,497.6 L162.5,497.6 L69.5,497.2 C66.7,497.2 64.5,494.9 64.5,492.2 L65.4,282.7 L5.9,282.4 C3.1,282.4 0.9,280.1 0.9,277.4 L1.3,184.5 C1.3,183.2 1.8,181.9 2.8,181 C3.7,180.1 5,179.6 6.3,179.6 L6.3,179.6 L65.8,179.9 L66.1,121.3 C66.4,54.3 121,0 188,0 C188.2,0 188.4,0 188.6,0 L253.2,0.3 C254.5,0.3 255.8,0.8 256.7,1.8 C257.6,2.7 258.2,4 258.1,5.3 L257.7,98.2 C257.7,99.5 257.2,100.8 256.2,101.7 C255.3,102.6 254,103.1 252.7,103.1 L252.7,103.1 L188.1,102.8 L188,102.8 C177.6,102.8 169.1,111.2 169.1,121.6 L168.8,180.2 L246.7,180.5 C248.3,180.5 249.8,181.3 250.7,182.6 C251.6,183.9 251.9,185.6 251.4,187.1 L220.3,279.9 C219.6,281.9 217.7,283.3 215.5,283.3 L168.3,283.1 L167.4,492.6 C167.4,493.9 166.9,495.2 165.9,496.1 C165.1,497.1 163.9,497.6 162.5,497.6 Z M74.6,487.2 L157.5,487.6 L158.4,278.1 C158.4,276.8 158.9,275.5 159.9,274.6 C160.9,273.7 162.1,273.2 163.4,273.2 L211.9,273.4 L239.7,190.6 L163.8,190.3 C161,190.3 158.8,188 158.8,185.3 L159.1,121.7 C159.2,105.8 172.1,92.9 188,92.9 L188.1,92.9 L188.1,92.9 L247.7,93.2 L248.1,10.3 L188.5,10 C188.3,10 188.2,10 188,10 C126.5,10 76.4,59.9 76.1,121.4 L75.8,185 C75.8,187.8 73.6,190 70.8,190 L70.8,190 L11.3,189.7 L10.9,272.6 L70.4,272.9 C71.7,272.9 73,273.4 73.9,274.4 C74.8,275.3 75.4,276.6 75.3,277.9 L74.6,487.2 Z"/></g><g transform="translate(0.000000, 41.000000) translate(153.000000, 0.000000)"><path id="Path" fill="#AAC6FC" d="M188.2,98.7 L252.8,99 L253.2,6.1 L188.6,5.79871334 C124.2,5.5 71.5,57.7 71.2,122.1 L70.9,185.7 L6.4,185.4 L6,278.3 L70.5,278.6 L69.5,493.1 L162.4,493.5 L163.4,279 L215.6,279.2 L246.7,186.4 L163.8,186 L164.1,122.4 C164.3,109.3 175,98.6 188.2,98.7 Z"/><path id="Shape" fill="#383A48" d="M162.5,498.6 L162.5,498.6 L69.5,498.2 C66.7,498.2 64.5,495.9 64.5,493.2 L65.4,283.7 L5.9,283.4 C4.6,283.4 3.3,282.9 2.4,281.9 C1.5,281 0.9,279.7 1,278.4 L1.4,185.5 C1.4,182.7 3.6,180.5 6.4,180.5 L6.4,180.5 L65.9,180.8 L66.2,122.2 C66.3,89.7 79.2,59.2 102.3,36.2 C125.3,13.4 155.7,0.9 188,0.9 C188.2,0.9 188.4,0.9 188.6,0.9 L253.2,1.2 C254.5,1.2 255.8,1.7 256.7,2.7 C257.6,3.6 258.2,4.9 258.1,6.2 L257.7,99.1 C257.7,100.4 257.2,101.7 256.2,102.6 C255.3,103.5 254,104 252.7,104 L252.7,104 L188.1,103.7 L188,103.7 C183,103.7 178.3,105.6 174.7,109.2 C171.1,112.8 169.1,117.5 169.1,122.5 L168.8,181.1 L246.7,181.4 C248.3,181.4 249.8,182.2 250.7,183.5 C251.6,184.8 251.9,186.5 251.4,188 L220.3,280.8 C219.6,282.8 217.7,284.2 215.6,284.2 L215.6,284.2 L168.4,284 L167.5,493.5 C167.5,494.8 167,496.1 166,497 C165.1,498.1 163.9,498.6 162.5,498.6 Z M74.6,488.2 L157.5,488.6 L158.4,279.1 C158.4,277.8 158.9,276.5 159.9,275.6 C160.8,274.7 162.1,274.2 163.4,274.2 L163.4,274.2 L211.9,274.4 L239.7,191.6 L163.8,191.3 C162.5,191.3 161.2,190.8 160.3,189.8 C159.4,188.9 158.8,187.6 158.9,186.3 L159.2,122.7 C159.2,115 162.3,107.7 167.8,102.3 C173.3,96.9 180.5,93.9 188.2,93.9 L188.3,93.9 L188.3,93.9 L247.9,94.2 L248.3,11.3 L188.7,11 C188.5,11 188.4,11 188.2,11 C158.6,11 130.6,22.5 109.5,43.5 C88.3,64.6 76.5,92.6 76.3,122.4 L76,186 C76,188.8 73.8,191 71,191 L71,191 L11.5,190.7 L11.1,273.6 L70.6,273.9 C71.9,273.9 73.2,274.4 74.1,275.4 C75,276.3 75.6,277.6 75.5,278.9 L74.6,488.2 Z"/></g></g><g fill-rule="nonzero" transform="translate(852.000000, 481.000000)"><path id="Path" fill="#383A48" d="M332.6,0 L144.7,0 C86.2,0 38.6,47.6 38.6,106.1 L38.6,180.6 C38.6,239.1 86.2,286.7 144.7,286.7 L332.6,286.7 C391.1,286.7 438.7,239.1 438.7,180.6 L438.7,106.1 C438.7,47.6 391.1,0 332.6,0 Z"/><g><path id="Path" fill="#E0719E" d="M395.1,106.1 L395.1,180.6 C395.1,236.4 349.9,281.7 294,281.7 L106.1,281.7 C50.3,281.7 5,236.4 5,180.6 L5,106.1 C5,97.9 6,89.9 7.8,82.3 C18.5,38 58.4,5 106.1,5 L294,5 C349.9,5 395.1,50.2 395.1,106.1 Z"/><path id="Shape" fill="#383A48" d="M294,286.7 L106.1,286.7 C47.6,286.7 0,239.1 0,180.6 L0,106.1 C0,97.6 1,89.2 3,81.1 C8.5,58.4 21.6,37.8 40,23.1 C58.9,8 81.8,0 106.1,0 L294,0 C352.5,0 400.1,47.6 400.1,106.1 L400.1,180.6 C400.1,239.1 352.5,286.7 294,286.7 Z M106.2,10 C61.6,10 23.2,40.2 12.8,83.4 C11,90.8 10.1,98.4 10.1,106 L10.1,180.5 C10.1,233.5 53.2,276.6 106.2,276.6 L294,276.6 C347,276.6 390.1,233.5 390.1,180.5 L390.1,106 C390.1,53 347,9.9 294,9.9 L106.2,10 L106.2,10 Z"/></g><path id="Path" fill="#383A48" d="M130.1,2.6 C129.2,1 127.5,0 125.7,0 L106.1,0 C81.8,0 59,8 40,23.1 C21.6,37.8 8.5,58.4 3,81.1 C2.6,82.7 3,84.4 4.2,85.6 C5.2,86.7 6.5,87.2 7.9,87.2 C8.1,87.2 8.4,87.2 8.6,87.2 C25.7,84.8 42.3,79.9 57.9,72.5 C87.3,58.5 112.3,36.1 130,7.6 C130.9,6.1 131,4.2 130.1,2.6 Z"/><g transform="translate(164.000000, 75.000000)"><polygon id="Path" fill="#F3F6E6" points="5.2 130.9 5.2 5.7 95.1 68.3"/><path id="Shape" fill="#383A48" d="M5.2,135.9 C4.4,135.9 3.6,135.7 2.9,135.3 C1.2,134.4 0.2,132.7 0.2,130.9 L0.2,5.7 C0.2,3.8 1.2,2.1 2.9,1.3 C4.5,0.4 6.5,0.6 8.1,1.6 L98,64.2 C99.3,65.1 100.1,66.7 100.1,68.3 C100.1,69.9 99.3,71.5 98,72.4 L8.1,135 C7.2,135.6 6.2,135.9 5.2,135.9 Z M10.2,15.3 L10.2,121.3 L86.3,68.3 L10.2,15.3 Z"/></g></g><g fill-rule="nonzero"><g transform="translate(1099.000000, 54.000000)"><path id="Path" fill="#7FD6C2" d="M249.9,5.7 L123.5,5.7 C80.9,5.7 46.4,40.2 46.4,82.8 L46.4,122.5 L5.2,204.7 L108,183.7 L249.8,183.7 C292.4,183.7 326.9,149.2 326.9,106.6 L326.9,82.7 C326.9,40.2 292.4,5.7 249.9,5.7 Z"/><path id="Shape" fill="#383A48" d="M5.3,209.8 C3.8,209.8 2.3,209.1 1.3,207.8 C0.1,206.3 -0.1,204.2 0.8,202.5 L41.4,121.3 L41.4,82.8 C41.4,37.6 78.2,0.7 123.5,0.7 L249.9,0.7 C295.1,0.7 332,37.5 332,82.8 L332,106.7 C332,151.9 295.2,188.8 249.9,188.8 L108.6,188.8 L6.3,209.7 C5.9,209.7 5.6,209.8 5.3,209.8 Z M123.5,10.7 C83.8,10.7 51.4,43 51.4,82.8 L51.4,122.5 C51.4,123.3 51.2,124 50.9,124.7 L14.3,197.7 L107,178.7 C107.3,178.6 107.7,178.6 108,178.6 L249.8,178.6 C289.5,178.6 321.9,146.3 321.9,106.5 L321.9,82.6 C321.9,42.9 289.6,10.5 249.8,10.5 L123.5,10.5 L123.5,10.7 L123.5,10.7 Z"/></g><g fill="#F3F6E6" transform="translate(1099.000000, 54.000000) translate(116.000000, 77.000000)"><circle id="Oval" cx="17.8" cy="17.7" r="12.1"/><path id="Shape" d="M17.8,34.9 C8.3,34.9 0.7,27.2 0.7,17.8 C0.7,8.4 8.4,0.7 17.8,0.7 C27.2,0.7 34.9,8.4 34.9,17.8 C34.9,27.2 27.3,34.9 17.8,34.9 Z M17.8,10.6 C13.9,10.6 10.7,13.8 10.7,17.7 C10.7,21.6 13.9,24.8 17.8,24.8 C21.7,24.8 24.9,21.6 24.9,17.7 C24.9,13.8 21.7,10.6 17.8,10.6 Z"/></g><g fill="#F3F6E6" transform="translate(1099.000000, 54.000000) translate(169.000000, 77.000000)"><circle id="Oval" cx="17.7" cy="17.7" r="12.1"/><path id="Shape" d="M17.7,34.9 C8.2,34.9 0.6,27.2 0.6,17.8 C0.6,8.4 8.3,0.7 17.7,0.7 C27.1,0.7 34.8,8.4 34.8,17.8 C34.8,27.2 27.1,34.9 17.7,34.9 Z M17.7,10.6 C13.8,10.6 10.6,13.8 10.6,17.7 C10.6,21.6 13.8,24.8 17.7,24.8 C21.6,24.8 24.8,21.6 24.8,17.7 C24.8,13.8 21.6,10.6 17.7,10.6 Z"/></g><g fill="#F3F6E6" transform="translate(1099.000000, 54.000000) translate(222.000000, 77.000000)"><circle id="Oval" cx="17.6" cy="17.7" r="12.1"/><path id="Shape" d="M17.6,34.9 C8.1,34.9 0.5,27.2 0.5,17.8 C0.5,8.4 8.2,0.7 17.6,0.7 C27,0.7 34.7,8.4 34.7,17.8 C34.7,27.2 27,34.9 17.6,34.9 Z M17.6,10.6 C13.7,10.6 10.5,13.8 10.5,17.7 C10.5,21.6 13.7,24.8 17.6,24.8 C21.5,24.8 24.7,21.6 24.7,17.7 C24.7,13.8 21.5,10.6 17.6,10.6 Z"/></g></g><g fill-rule="nonzero" transform="translate(1333.000000, 453.000000)"><circle id="Oval" cx="50.3" cy="49.9" r="44.7" fill="#F6E049"/><path id="Shape" fill="#383A48" d="M50.3,99.6 C22.9,99.6 0.6,77.3 0.6,49.9 C0.6,22.5 22.9,0.2 50.3,0.2 C77.7,0.2 100,22.5 100,49.9 C100,77.3 77.7,99.6 50.3,99.6 Z M50.3,10.2 C28.4,10.2 10.6,28 10.6,49.9 C10.6,71.8 28.4,89.6 50.3,89.6 C72.2,89.6 90,71.8 90,49.9 C90,28 72.2,10.2 50.3,10.2 Z"/></g><g fill-rule="nonzero" transform="translate(1301.000000, 420.000000)"><circle id="Oval" cx="49.8" cy="50.4" r="44.7" fill="#F6E049"/><path id="Shape" fill="#383A48" d="M49.8,100.1 C22.4,100.1 0.1,77.8 0.1,50.4 C0.1,23 22.4,0.7 49.8,0.7 C77.2,0.7 99.5,23 99.5,50.4 C99.5,77.8 77.2,100.1 49.8,100.1 Z M49.8,10.7 C27.9,10.7 10.1,28.5 10.1,50.4 C10.1,72.3 27.9,90.1 49.8,90.1 C71.7,90.1 89.5,72.3 89.5,50.4 C89.5,28.5 71.7,10.7 49.8,10.7 Z"/></g><g fill-rule="nonzero" transform="translate(1268.000000, 388.000000)"><circle id="Oval" cx="50.3" cy="49.9" r="44.7" fill="#F6E049"/><path id="Shape" fill="#383A48" d="M50.3,99.6 C22.9,99.6 0.6,77.3 0.6,49.9 C0.6,22.5 22.9,0.2 50.3,0.2 C77.7,0.2 100,22.5 100,49.9 C100,77.3 77.7,99.6 50.3,99.6 Z M50.3,10.2 C28.4,10.2 10.6,28 10.6,49.9 C10.6,71.8 28.4,89.6 50.3,89.6 C72.2,89.6 90,71.8 90,49.9 C90,28 72.2,10.2 50.3,10.2 Z"/></g><g fill-rule="nonzero" transform="translate(1236.000000, 355.000000)"><circle id="Oval" cx="49.8" cy="50.4" r="44.7" fill="#AAC6FC"/><path id="Shape" fill="#383A48" d="M49.8,100.2 C22.4,100.2 0.1,77.9 0.1,50.5 C0.1,23.1 22.4,0.8 49.8,0.8 C77.2,0.8 99.5,23.1 99.5,50.5 C99.5,77.9 77.2,100.2 49.8,100.2 Z M49.8,10.7 C27.9,10.7 10.1,28.5 10.1,50.4 C10.1,72.3 27.9,90.1 49.8,90.1 C71.7,90.1 89.5,72.3 89.5,50.4 C89.5,28.5 71.7,10.7 49.8,10.7 Z"/></g><path id="Path" fill="#383A48" fill-rule="nonzero" d="M960.3,767.7 L406.3,767.7 C403.5,767.7 401.3,765.5 401.3,762.7 C401.3,759.9 403.5,757.7 406.3,757.7 L960.3,757.7 C963.1,757.7 965.3,759.9 965.3,762.7 C965.3,765.5 963,767.7 960.3,767.7 Z"/><g><g transform="translate(722.000000, 609.000000)"><line id="Path" x1="4.2" x2="27.5" y1="27" y2="3.7"/><rect id="Rectangle" width="33" height="10" x="-.676" y="10.328" fill="#383A48" fill-rule="nonzero" transform="translate(15.824210, 15.327650) rotate(-45.000000) translate(-15.824210, -15.327650)"/></g><g transform="translate(722.000000, 609.000000)"><line id="Path" x1="27.5" x2="4.2" y1="27" y2="3.7"/><rect id="Rectangle" width="10" height="33" x="10.866" y="-1.131" fill="#383A48" fill-rule="nonzero" transform="translate(15.866030, 15.369150) rotate(-45.000000) translate(-15.866030, -15.369150)"/></g></g><g><g transform="translate(473.000000, 66.000000)"><line id="Path" x1="4.3" x2="27.7" y1="27.8" y2="4.5"/><rect id="Rectangle" width="33" height="10" x="-.53" y="11.081" fill="#383A48" fill-rule="nonzero" transform="translate(15.969500, 16.081420) rotate(-44.991897) translate(-15.969500, -16.081420)"/></g><g transform="translate(473.000000, 66.000000) translate(0.000000, 1.000000)"><line id="Path" x1="27.7" x2="4.3" y1="26.8" y2="3.5"/><rect id="Rectangle" width="10" height="33" x="11.012" y="-1.279" fill="#383A48" fill-rule="nonzero" transform="translate(16.012120, 15.221320) rotate(-45.000000) translate(-16.012120, -15.221320)"/></g></g><g><g transform="translate(1177.000000, 296.000000)"><line id="Path" x1="4.3" x2="27.6" y1="26.8" y2="3.5"/><rect id="Rectangle" width="33" height="10" x="-.625" y="10.209" fill="#383A48" fill-rule="nonzero" transform="translate(15.874880, 15.208640) rotate(-44.991897) translate(-15.874880, -15.208640)"/></g><g transform="translate(1177.000000, 296.000000)"><line id="Path" x1="27.6" x2="4.3" y1="26.8" y2="3.5"/><rect id="Rectangle" width="10" height="33" x="10.877" y="-1.294" fill="#383A48" fill-rule="nonzero" transform="translate(15.877210, 15.205730) rotate(-45.000000) translate(-15.877210, -15.205730)"/></g></g><path id="Path" fill="#AAC6FC" fill-rule="nonzero" d="M6,596 C3.2,596 1,598.2 1,601 L1,762.6 C1,763.9 1.5,765.2 2.5,766.1 C3.4,767 4.7,767.6 6,767.6 L167.6,767.6 C170.4,767.6 172.6,765.4 172.6,762.6 C172.6,670.8 97.9,596 6,596 Z"/><path id="Path" fill="#383A48" fill-rule="nonzero" d="M104.4,723.8 C102.5,723.8 100.7,722.7 99.9,720.9 C98.7,718.4 99.8,715.4 102.3,714.3 L280.6,631.2 C283.1,630 286.1,631.1 287.2,633.6 C288.4,636.1 287.3,639.1 284.8,640.2 L106.5,723.3 C105.8,723.7 105.1,723.8 104.4,723.8 Z"/></g></g></g></svg>