<svg xmlns="http://www.w3.org/2000/svg" xmlns:xlink="http://www.w3.org/1999/xlink" width="1298" height="723" version="1.1" viewBox="0 0 1298 723"><title>networking</title><desc>Created with Sketch.</desc><g id="Page-1" fill="none" fill-rule="evenodd" stroke="none" stroke-width="1"><g id="networking" transform="translate(-365.000000, -194.000000)"><g id="Group" transform="translate(257.000000, 163.000000)"><path id="Path" fill-rule="nonzero" d="M1400.8,0.1 L887.8,0.1 C885.2,0.1 883,2.1 882.8,4.7 C882.6,7.3 884.4,9.6 886.9,10.1 C955.9,22.2 999,44.3 1026.4,81.6 C1051.9,116.3 1062.1,161.1 1075.1,217.7 C1080.1,239.8 1085.4,262.6 1092,287.3 C1098.5,311.4 1105.5,333.6 1113.2,355 C1124.4,385.9 1141.3,411.8 1164.8,434.3 C1183,451.8 1204.7,466.9 1235.2,483.3 C1247,489.7 1258.9,495.7 1270.5,501.4 C1337.7,535 1395.8,564.1 1395.8,651.5 C1395.8,654.3 1398,656.5 1400.8,656.5 C1403.6,656.5 1405.8,654.3 1405.8,651.5 L1405.8,5.1 C1405.8,2.4 1403.6,0.1 1400.8,0.1 Z"/><path id="Path" fill-rule="nonzero" d="M670.1,747.1 C668.7,743.6 667.3,740.1 665.7,736.8 C662.5,729.7 658.8,722.9 654.9,716.4 C632.9,680.4 599.7,654 553.3,635.8 C512.9,619.9 468,612.1 424.6,604.6 L423.5,604.4 C403.1,600.9 382,597.2 362.3,592.7 C320.2,583.1 292.7,571.3 273.3,554.4 C249.6,533.9 238.1,505.1 238.1,466.5 C238.1,410.2 222.8,365.9 191.5,331 C164.2,300.7 128.5,281.6 96.9,264.7 C50.4,239.9 10.1,218.4 10.1,170 C10.1,167.2 7.9,165 5.1,165 C2.3,165 0.1,167.2 0.1,170 L0.1,748.9 C0.1,751.7 2.3,753.9 5.1,753.9 L665.4,753.9 C667.1,753.9 668.6,753.1 669.5,751.7 C670.5,750.3 670.7,748.6 670.1,747.1 Z"/><path id="Path" fill="#383A48" fill-rule="nonzero" d="M655,716.4 C633,680.4 599.8,654 553.4,635.8 C513,619.9 468.1,612.1 424.7,604.6 L423.6,604.4 C421.5,604 419.5,605 418.4,606.8 C417.3,608.6 417.5,610.9 418.8,612.5 C445.9,646 479.9,673.8 517.3,692.9 C557.4,713.4 599.9,723.8 643.8,723.8 C645,723.8 647.6,723.9 650.5,723.9 L650.6,723.9 C652.4,723.9 654,722.9 654.9,721.4 C655.9,719.9 655.9,718 655,716.4 Z"/><g fill-rule="nonzero" transform="translate(373.000000, 77.000000)"><g><path id="Path" fill="#AAC6FC" d="M579.1,291.8 C579.1,316.1 576.1,339.7 570.4,362.3 C551.2,438.4 501.4,502.5 435,540.6 C393,564.7 344.4,578.4 292.6,578.4 C134.3,578.4 6,450.1 6,291.8 C6,133.5 134.3,5.2 292.6,5.2 C398.6,5.2 491.2,62.8 540.8,148.4 C556.6,175.7 568,205.8 574.1,237.8 C577.3,255.3 579.1,273.3 579.1,291.8 Z"/><path id="Shape" fill="#383A48" d="M292.5,583.4 C214.6,583.4 141.4,553.1 86.3,498 C31.2,442.9 0.9,369.7 0.9,291.8 C0.9,213.9 31.2,140.7 86.3,85.6 C141.4,30.5 214.6,0.2 292.5,0.2 C344.6,0.2 395.7,14.1 440.3,40.4 C483.6,65.9 519.8,102.4 545,145.9 C561.4,174.2 572.8,204.8 578.9,236.8 C582.3,254.8 584.1,273.3 584.1,291.8 C584.1,316.1 581.1,340.2 575.2,363.5 C556,439.6 505.7,505.7 437.4,544.9 C393.5,570.1 343.4,583.4 292.5,583.4 Z M292.5,10.2 C217.3,10.2 146.6,39.5 93.4,92.7 C40.2,145.9 10.9,216.6 10.9,291.8 C10.9,367 40.2,437.7 93.4,490.9 C146.6,544.1 217.3,573.4 292.5,573.4 C341.7,573.4 390.1,560.5 432.5,536.2 C498.5,498.3 547,434.5 565.6,361 C571.3,338.5 574.2,315.2 574.2,291.7 C574.2,273.9 572.5,256 569.2,238.6 C563.3,207.6 552.3,178.1 536.5,150.8 C512.2,108.8 477.2,73.5 435.4,48.9 C392.1,23.6 342.8,10.2 292.5,10.2 Z"/></g><g transform="translate(232.000000, 182.000000)"><path id="Path" fill="#F6E049" d="M338.6,178.9 C332.7,202.5 324.1,224.7 313.1,245.2 L260.7,219.5 C241.3,210 218.1,212.3 201,225.5 L90.8,310.4 C77.9,320.3 61.3,323.7 45.9,319.8 C42.8,319 39.8,318 36.9,316.7 C10.3,304.7 -1.5,273.4 10.5,246.9 L80.5,91.9 C91.5,67.6 118,55.4 142.8,61.6 C146.4,62.5 150.1,63.8 153.6,65.5 C180.7,78.8 213.5,67.3 226.4,40 L228,36.6 C241.4,8.3 276,-2.8 303.3,12.4 L335.8,30.5 C344.5,60.8 348.4,92.7 346.6,125.3 C345.7,143 343.1,160.9 338.6,178.9 Z"/><path id="Shape" fill="#383A48" d="M58.8,326.3 C54.1,326.3 49.4,325.7 44.8,324.6 C41.4,323.8 38.1,322.6 35,321.2 C20.9,314.9 10.2,303.4 4.7,289 C-0.8,274.6 -0.3,258.9 6.1,244.8 L76.1,89.8 C87.9,63.7 116.5,49.8 144.2,56.7 C148.2,57.7 152.2,59.1 156,61 C167.9,66.8 181.3,67.6 193.9,63.2 C206.4,58.8 216.4,49.8 222.1,37.8 L223.7,34.4 C230.8,19.4 243.4,8.4 259.1,3.3 C274.9,-1.8 291.5,-0.1 306,8 L338.5,26.1 C339.7,26.7 340.5,27.8 340.9,29.1 C350,60.5 353.7,92.9 351.9,125.5 C350.9,143.8 348.1,162.2 343.7,180.1 L343.7,180.1 C337.9,203.6 329.1,226.3 317.8,247.6 C316.5,250 313.6,250.9 311.2,249.7 L258.8,224 C241.2,215.4 219.8,217.5 204.3,229.4 L94,314.3 C83.7,322.2 71.4,326.3 58.8,326.3 Z M129.9,64.9 C111,64.9 93.2,75.9 85.1,93.9 L15.1,248.9 C9.8,260.5 9.4,273.5 13.9,285.5 C18.4,297.4 27.3,306.9 38.9,312.2 C41.5,313.4 44.2,314.3 47,315 C61.2,318.5 76,315.4 87.7,306.5 L197.9,221.6 C216.4,207.3 241.9,204.8 262.9,215.1 L310.9,238.7 C320.8,219.5 328.4,199 333.7,177.8 C338,160.5 340.7,142.7 341.6,125.1 C343.3,94.3 339.9,63.7 331.6,34 L300.9,16.9 C288.9,10.2 275.1,8.8 262,13 C248.9,17.2 238.4,26.4 232.6,38.8 L231,42.2 C224.2,56.6 212.1,67.5 197.1,72.8 C182,78.1 165.9,77.1 151.5,70.1 C148.3,68.6 145,67.4 141.7,66.5 C137.8,65.3 133.8,64.9 129.9,64.9 Z"/></g><g transform="translate(0.000000, 30.000000)"><path id="Path" fill="#F6E049" d="M117.6,34.7 C33.3,99.7 -4.9,202.3 8.5,300.7 C32.4,258.1 116.1,243.6 144,191.8 C171.9,140 115.7,75.7 163.6,5.7 C147.6,13.8 132.2,23.5 117.6,34.7 Z"/><path id="Shape" fill="#383A48" d="M8.5,305.8 C8.2,305.8 7.9,305.8 7.6,305.7 C5.5,305.3 3.9,303.6 3.6,301.5 C-3.2,251.5 3.1,200.3 21.8,153.4 C41.1,105.1 73.2,62.7 114.6,30.8 L114.6,30.8 C129.2,19.5 145,9.6 161.3,1.4 C163.3,0.4 165.8,0.9 167.3,2.6 C168.8,4.3 169,6.8 167.7,8.7 C142,46.3 147.6,81.9 153,116.4 C157.4,144.1 161.5,170.2 148.4,194.4 C133,223 102.4,240.1 72.8,256.7 C47.4,270.9 23.5,284.4 12.9,303.3 C11.9,304.8 10.2,305.8 8.5,305.8 Z M150.1,18.8 C139.9,24.8 130,31.5 120.6,38.7 L120.6,38.7 C80.6,69.5 49.6,110.4 31,157.1 C14.5,198.4 8,243.1 12,287.3 C25.4,271.8 46.2,260.2 67.9,248 C96.3,232.1 125.6,215.6 139.6,189.6 C151,168.4 147.2,143.8 143.1,117.9 C138.3,87.6 133,54 150.1,18.8 Z"/></g><g id="Oval" fill="#383A48" transform="translate(2.000000, 52.000000)"><circle cx="523.9" cy="400" r="5"/><circle cx="499.2" cy="400" r="5"/><circle cx="499.2" cy="424.6" r="5"/><circle cx="474.5" cy="424.6" r="5"/><circle cx="474.5" cy="449.3" r="5"/><circle cx="449.9" cy="424.6" r="5"/><circle cx="449.9" cy="449.3" r="5"/><circle cx="449.9" cy="474" r="5"/><circle cx="425.2" cy="424.6" r="5"/><circle cx="425.2" cy="449.3" r="5"/><circle cx="425.2" cy="474" r="5"/><circle cx="400.5" cy="424.6" r="5"/><circle cx="400.5" cy="449.3" r="5"/><circle cx="400.5" cy="474" r="5"/><circle cx="400.5" cy="498.6" r="5"/><circle cx="375.9" cy="424.6" r="5"/><circle cx="375.9" cy="449.3" r="5"/><circle cx="375.9" cy="474" r="5"/><circle cx="375.9" cy="498.6" r="5"/><circle cx="351.2" cy="424.6" r="5"/><circle cx="351.2" cy="449.3" r="5"/><circle cx="351.2" cy="474" r="5"/><circle cx="351.2" cy="498.6" r="5"/><circle cx="326.5" cy="424.6" r="5"/><circle cx="326.5" cy="449.3" r="5"/><circle cx="326.5" cy="474" r="5"/><circle cx="326.5" cy="498.6" r="5"/><circle cx="301.9" cy="400" r="5"/><circle cx="301.9" cy="424.6" r="5"/><circle cx="301.9" cy="449.3" r="5"/><circle cx="301.9" cy="474" r="5"/><circle cx="301.9" cy="498.6" r="5"/><circle cx="301.9" cy="523.3" r="5"/><circle cx="277.2" cy="400" r="5"/><circle cx="277.2" cy="424.6" r="5"/><circle cx="277.2" cy="449.3" r="5"/><circle cx="277.2" cy="474" r="5"/><circle cx="277.2" cy="498.6" r="5"/><circle cx="277.2" cy="523.3" r="5"/><circle cx="252.5" cy="400" r="5"/><circle cx="252.5" cy="424.6" r="5"/><circle cx="252.5" cy="449.3" r="5"/><circle cx="252.5" cy="474" r="5"/><circle cx="252.5" cy="498.6" r="5"/><circle cx="252.5" cy="523.3" r="5"/><circle cx="227.9" cy="375.3" r="5"/><circle cx="227.9" cy="400" r="5"/><circle cx="227.9" cy="424.6" r="5"/><circle cx="227.9" cy="449.3" r="5"/><circle cx="227.9" cy="474" r="5"/><circle cx="227.9" cy="498.6" r="5"/><circle cx="203.2" cy="350.6" r="5"/><circle cx="203.2" cy="375.3" r="5"/><circle cx="203.2" cy="400" r="5"/><circle cx="203.2" cy="424.6" r="5"/><circle cx="203.2" cy="449.3" r="5"/><circle cx="203.2" cy="474" r="5"/><circle cx="203.2" cy="498.6" r="5"/><circle cx="178.5" cy="326" r="5"/><circle cx="178.5" cy="350.6" r="5"/><circle cx="178.5" cy="375.3" r="5"/><circle cx="178.5" cy="400" r="5"/><circle cx="178.5" cy="424.6" r="5"/><circle cx="178.5" cy="449.3" r="5"/><circle cx="178.5" cy="474" r="5"/><circle cx="178.5" cy="498.6" r="5"/><circle cx="153.9" cy="301.3" r="5"/><circle cx="153.9" cy="326" r="5"/><circle cx="153.9" cy="350.6" r="5"/><circle cx="153.9" cy="375.3" r="5"/><circle cx="153.9" cy="400" r="5"/><circle cx="153.9" cy="424.6" r="5"/><circle cx="153.9" cy="449.3" r="5"/><circle cx="153.9" cy="474" r="5"/><circle cx="129.2" cy="5.3" r="5"/><circle cx="129.2" cy="252" r="5"/><circle cx="129.2" cy="276.6" r="5"/><circle cx="129.2" cy="301.3" r="5"/><circle cx="129.2" cy="326" r="5"/><circle cx="129.2" cy="350.6" r="5"/><circle cx="129.2" cy="375.3" r="5"/><circle cx="129.2" cy="400" r="5"/><circle cx="129.2" cy="424.6" r="5"/><circle cx="129.2" cy="449.3" r="5"/><circle cx="129.2" cy="474" r="5"/><circle cx="104.5" cy="30" r="5"/><circle cx="104.5" cy="54.6" r="5"/><circle cx="104.5" cy="79.3" r="5"/><circle cx="104.5" cy="104" r="5"/><circle cx="104.5" cy="128.6" r="5"/><circle cx="104.5" cy="153.3" r="5"/><circle cx="104.5" cy="178" r="5"/><circle cx="104.5" cy="202.6" r="5"/><circle cx="104.5" cy="227.3" r="5"/><circle cx="104.5" cy="252" r="5"/><circle cx="104.5" cy="276.6" r="5"/><circle cx="104.5" cy="301.3" r="5"/><circle cx="104.5" cy="326" r="5"/><circle cx="104.5" cy="350.6" r="5"/><circle cx="104.5" cy="375.3" r="5"/><circle cx="104.5" cy="400" r="5"/><circle cx="104.5" cy="424.6" r="5"/><circle cx="104.5" cy="449.3" r="5"/><circle cx="79.9" cy="54.6" r="5"/><circle cx="79.9" cy="79.3" r="5"/><circle cx="79.9" cy="104" r="5"/><circle cx="79.9" cy="128.6" r="5"/><circle cx="79.9" cy="153.3" r="5"/><circle cx="79.9" cy="178" r="5"/><circle cx="79.9" cy="202.6" r="5"/><circle cx="79.9" cy="227.3" r="5"/><circle cx="79.9" cy="252" r="5"/><circle cx="79.9" cy="276.6" r="5"/><circle cx="79.9" cy="301.3" r="5"/><circle cx="79.9" cy="326" r="5"/><circle cx="79.9" cy="350.6" r="5"/><circle cx="79.9" cy="375.3" r="5"/><circle cx="79.9" cy="400" r="5"/><circle cx="79.9" cy="424.6" r="5"/><circle cx="55.2" cy="79.3" r="5"/><circle cx="55.2" cy="104" r="5"/><circle cx="55.2" cy="128.6" r="5"/><circle cx="55.2" cy="153.3" r="5"/><circle cx="55.2" cy="178" r="5"/><circle cx="55.2" cy="202.6" r="5"/><circle cx="55.2" cy="227.3" r="5"/><circle cx="55.2" cy="252" r="5"/><circle cx="55.2" cy="276.6" r="5"/><circle cx="55.2" cy="301.3" r="5"/><circle cx="55.2" cy="326" r="5"/><circle cx="55.2" cy="350.6" r="5"/><circle cx="55.2" cy="375.3" r="5"/><circle cx="55.2" cy="400" r="5"/><circle cx="30.5" cy="128.6" r="5"/><circle cx="30.5" cy="153.3" r="5"/><circle cx="30.5" cy="178" r="5"/><circle cx="30.5" cy="202.6" r="5"/><circle cx="30.5" cy="227.3" r="5"/><circle cx="30.5" cy="252" r="5"/><circle cx="30.5" cy="276.6" r="5"/><circle cx="30.5" cy="301.3" r="5"/><circle cx="30.5" cy="326" r="5"/><circle cx="30.5" cy="350.6" r="5"/><circle cx="5.9" cy="202.6" r="5"/><circle cx="5.9" cy="227.3" r="5"/><circle cx="5.9" cy="252" r="5"/><circle cx="5.9" cy="276.6" r="5"/></g></g><path id="Path" fill="#383A48" fill-rule="nonzero" d="M388.6,705.9 C369.5,705.9 354.5,700.8 344,690.3 C316.8,663.1 325.5,603.9 368.7,523.7 C410.9,445.2 481.1,355 566.4,269.7 C651.7,184.4 741.9,114.2 820.4,72 C900.6,28.9 959.8,20.1 987,47.3 C1019.7,80 1000.5,157.9 934.4,261.3 L926,255.9 C988.4,158.3 1008.6,83 980,54.4 C956.5,30.9 900.1,40.5 825.2,80.8 C747.5,122.6 658.1,192.2 573.5,276.8 C488.9,361.4 419.3,450.8 377.5,528.5 C337.2,603.4 327.6,659.8 351.1,683.3 C379.7,711.9 455,691.7 552.6,629.3 L558,637.7 C487.7,682.6 429.1,705.9 388.6,705.9 Z"/><path id="Shape" fill="#383A48" fill-rule="nonzero" d="M292.6,659.1 C290.1,659.1 287.9,657.2 287.6,654.6 C287.3,651.9 289.3,649.4 292,649.1 C295.7,648.7 299.5,648.1 303.5,647.4 C306.2,646.9 308.8,648.7 309.3,651.4 C309.8,654.1 308,656.7 305.3,657.2 C301.1,658 297,658.6 293,659 C292.9,659.1 292.8,659.1 292.6,659.1 Z M262.8,657.9 C262.4,657.9 262,657.9 261.7,657.8 C257.3,656.8 253.1,655.3 249.3,653.5 C246.8,652.3 245.8,649.3 247,646.8 C248.2,644.3 251.2,643.3 253.7,644.5 C256.8,646 260.3,647.2 264,648 C266.7,648.6 268.4,651.3 267.7,654 C267.1,656.4 265,657.9 262.8,657.9 Z M230.8,633.1 C228.9,633.1 227.1,632 226.3,630.2 C224.6,626.4 223.2,622.2 222.2,617.8 C221.6,615.1 223.3,612.4 226,611.8 C228.7,611.2 231.4,612.9 232,615.6 C232.8,619.3 234,622.8 235.4,625.9 C236.6,628.4 235.5,631.4 233,632.5 C232.3,632.9 231.5,633.1 230.8,633.1 Z M226.1,591.9 C225.9,591.9 225.7,591.9 225.5,591.9 C222.8,591.6 220.8,589.1 221.1,586.4 C221.5,582.5 222.2,578.4 223,574.2 C223.5,571.5 226.1,569.7 228.8,570.2 C231.5,570.7 233.3,573.3 232.8,576 C232,579.9 231.5,583.8 231.1,587.5 C230.8,590 228.6,591.9 226.1,591.9 Z M235.7,551 C235.2,551 234.6,550.9 234.1,550.7 C231.5,549.8 230.1,547 230.9,544.4 C232.1,540.7 233.5,536.8 235,532.9 C236,530.3 238.9,529 241.4,530 C244,531 245.3,533.9 244.3,536.4 C242.9,540.2 241.5,543.9 240.3,547.5 C239.7,549.7 237.8,551 235.7,551 Z M251.4,512.1 C250.7,512.1 250,511.9 249.3,511.6 C246.8,510.4 245.7,507.5 246.9,505 C248.6,501.4 250.3,497.7 252.2,494.1 C253.4,491.6 256.4,490.6 258.9,491.8 C261.4,493 262.4,496 261.2,498.5 C259.4,502.1 257.7,505.7 256,509.2 C255.1,511.1 253.3,512.1 251.4,512.1 Z M270.6,474.8 C269.8,474.8 268.9,474.6 268.2,474.2 C265.8,472.8 264.9,469.8 266.3,467.4 C268.2,464 270.2,460.5 272.3,456.9 C273.7,454.5 276.8,453.7 279.1,455.1 C281.5,456.5 282.3,459.6 280.9,461.9 C278.9,465.4 276.9,468.9 275,472.2 C274.1,473.9 272.4,474.8 270.6,474.8 Z M292.3,438.8 C291.4,438.8 290.4,438.5 289.6,438 C287.3,436.5 286.6,433.4 288.1,431.1 C289.1,429.5 290.2,427.8 291.3,426.2 C292.8,423.9 295.9,423.2 298.2,424.7 C300.5,426.2 301.2,429.3 299.7,431.6 C298.7,433.2 297.6,434.8 296.6,436.4 C295.5,438 293.9,438.8 292.3,438.8 Z"/><path id="Shape" fill="#383A48" fill-rule="nonzero" d="M1000.9,280.2 C1000,280.2 999,279.9 998.2,279.4 C995.9,277.9 995.2,274.8 996.7,272.5 C997.7,270.9 998.8,269.3 999.8,267.7 C1001.3,265.4 1004.4,264.7 1006.7,266.2 C1009,267.7 1009.7,270.8 1008.2,273.1 C1007.2,274.7 1006.1,276.4 1005.1,278 C1004.1,279.4 1002.5,280.2 1000.9,280.2 Z M1019.7,249.8 C1018.8,249.8 1018,249.6 1017.2,249.1 C1014.8,247.7 1014,244.6 1015.4,242.3 C1017.4,238.8 1019.4,235.4 1021.3,232 C1022.7,229.6 1025.7,228.7 1028.1,230.1 C1030.5,231.5 1031.4,234.5 1030,236.9 C1028.1,240.3 1026,243.9 1024,247.4 C1023.1,248.9 1021.4,249.8 1019.7,249.8 Z M1039.7,212.9 C1039,212.9 1038.2,212.7 1037.5,212.4 C1035,211.2 1034,208.2 1035.2,205.7 C1037,202.1 1038.7,198.5 1040.4,195 C1041.6,192.5 1044.5,191.4 1047,192.6 C1049.5,193.8 1050.6,196.7 1049.4,199.2 C1047.7,202.8 1046,206.5 1044.1,210.1 C1043.3,211.8 1041.5,212.9 1039.7,212.9 Z M1056.6,174.4 C1056,174.4 1055.4,174.3 1054.8,174.1 C1052.2,173.1 1050.9,170.2 1051.9,167.7 C1053.3,163.9 1054.7,160.2 1055.9,156.6 C1056.8,154 1059.6,152.6 1062.2,153.4 C1064.8,154.3 1066.2,157.1 1065.4,159.7 C1064.2,163.4 1062.8,167.3 1061.3,171.2 C1060.5,173.2 1058.6,174.4 1056.6,174.4 Z M1068.4,134.2 C1068.1,134.2 1067.8,134.2 1067.5,134.1 C1064.8,133.6 1063,131 1063.5,128.3 C1064.3,124.4 1064.8,120.5 1065.2,116.8 C1065.5,114.1 1068,112.1 1070.7,112.4 C1073.4,112.7 1075.4,115.2 1075.1,117.9 C1074.7,121.8 1074,125.9 1073.2,130.1 C1072.8,132.5 1070.7,134.2 1068.4,134.2 Z M1069.2,92.5 C1066.9,92.5 1064.8,90.9 1064.3,88.6 C1063.5,84.9 1062.3,81.4 1060.9,78.3 C1059.7,75.8 1060.8,72.8 1063.3,71.7 C1065.8,70.5 1068.8,71.6 1069.9,74.1 C1071.6,77.9 1073,82.1 1074,86.5 C1074.6,89.2 1072.9,91.9 1070.2,92.5 C1069.9,92.4 1069.6,92.5 1069.2,92.5 Z M1044.8,60.1 C1044.1,60.1 1043.3,59.9 1042.6,59.6 C1039.5,58.1 1036,56.9 1032.3,56.1 C1029.6,55.5 1027.9,52.8 1028.6,50.1 C1029.2,47.4 1031.9,45.7 1034.6,46.4 C1039,47.4 1043.2,48.9 1047,50.7 C1049.5,51.9 1050.5,54.9 1049.3,57.4 C1048.5,59.1 1046.7,60.1 1044.8,60.1 Z M991.8,56.8 C989.4,56.8 987.3,55.1 986.9,52.7 C986.4,50 988.2,47.4 990.9,46.9 C995.1,46.1 999.2,45.5 1003.2,45.1 C1005.9,44.8 1008.4,46.8 1008.7,49.5 C1009,52.2 1007,54.7 1004.3,55 C1000.6,55.4 996.8,56 992.8,56.7 C992.4,56.8 992.1,56.8 991.8,56.8 Z"/><g fill-rule="nonzero" transform="translate(708.000000, 36.000000)"><circle id="Oval" cx="67.688" cy="68.233" r="58.198" fill="#FFF" transform="translate(67.688010, 68.233440) rotate(-80.008284) translate(-67.688010, -68.233440)"/><path id="Shape" fill="#383A48" d="M67.7,131.3 C32.9,131.3 4.5,103 4.5,68.1 C4.5,33.2 32.8,4.9 67.7,4.9 C102.5,4.9 130.9,33.2 130.9,68.1 C130.9,103 102.5,131.3 67.7,131.3 Z M67.7,15 C38.4,15 14.5,38.8 14.5,68.2 C14.5,97.6 38.3,121.4 67.7,121.4 C97,121.4 120.9,97.6 120.9,68.2 C120.9,38.8 97,15 67.7,15 Z"/></g><g fill-rule="nonzero" transform="translate(1008.000000, 549.000000)"><path id="Path" fill="#F6E049" d="M102.7,5.3 L295.6,5.3 C349.3,5.3 392.9,48.9 392.9,102.6 L392.9,102.6 C392.9,156.3 349.3,199.9 295.6,199.9 L102.7,199.9 C49,199.9 5.4,156.3 5.4,102.6 L5.4,102.6 C5.4,48.9 48.9,5.3 102.7,5.3 Z"/><path id="Shape" fill="#383A48" d="M295.5,204.9 L102.6,204.9 C46.2,204.9 0.3,159 0.3,102.6 C0.3,46.2 46.2,0.3 102.6,0.3 L295.5,0.3 C351.9,0.3 397.8,46.2 397.8,102.6 C397.8,159 351.9,204.9 295.5,204.9 Z M102.6,10.3 C51.7,10.3 10.3,51.7 10.3,102.6 C10.3,153.5 51.7,194.9 102.6,194.9 L295.5,194.9 C346.4,194.9 387.8,153.5 387.8,102.6 C387.8,51.7 346.4,10.3 295.5,10.3 L102.6,10.3 Z"/><g transform="translate(214.000000, 27.000000)"><circle id="Oval" cx="75.1" cy="75.6" r="69.8" fill="#7FD6C2"/><path id="Shape" fill="#383A48" d="M75.1,150.4 C33.9,150.4 0.3,116.9 0.3,75.6 C0.3,34.3 33.8,0.8 75.1,0.8 C116.3,0.8 149.9,34.3 149.9,75.6 C149.9,116.9 116.3,150.4 75.1,150.4 Z M75.1,10.8 C39.4,10.8 10.3,39.9 10.3,75.6 C10.3,111.3 39.4,140.4 75.1,140.4 C110.8,140.4 139.9,111.3 139.9,75.6 C139.9,39.9 110.8,10.8 75.1,10.8 Z"/></g></g><path id="Path" fill="#383A48" fill-rule="nonzero" d="M941.2,639.5 C929.8,639.5 928.6,628.6 928.6,624 C928.6,621.2 926.4,619 923.6,619 C920.8,619 918.6,621.2 918.6,624 C918.6,628.7 917.4,639.5 906,639.5 C903.2,639.5 901,641.7 901,644.5 C901,647.3 903.2,649.5 906,649.5 C917.4,649.5 918.6,660.4 918.6,665 C918.6,667.8 920.8,670 923.6,670 C926.4,670 928.6,667.8 928.6,665 C928.6,660.3 929.8,649.5 941.2,649.5 C944,649.5 946.2,647.3 946.2,644.5 C946.2,641.7 944,639.5 941.2,639.5 Z"/><path id="Path" fill="#383A48" fill-rule="nonzero" d="M421.2,72.5 C409.8,72.5 408.6,61.6 408.6,57 C408.6,54.2 406.4,52 403.6,52 C400.8,52 398.6,54.2 398.6,57 C398.6,61.7 397.4,72.5 386,72.5 C383.2,72.5 381,74.7 381,77.5 C381,80.3 383.2,82.5 386,82.5 C397.4,82.5 398.6,93.4 398.6,98 C398.6,100.8 400.8,103 403.6,103 C406.4,103 408.6,100.8 408.6,98 C408.6,93.3 409.8,82.5 421.2,82.5 C424,82.5 426.2,80.3 426.2,77.5 C426.2,74.7 424,72.5 421.2,72.5 Z"/><g><g transform="translate(108.000000, 461.000000) translate(0.000000, 12.000000)"><line id="Path" x1=".7" x2="33.6" y1="5.3" y2="5.3"/><rect id="Rectangle" width="33" height="10" x=".7" y=".3" fill="#383A48" fill-rule="nonzero"/></g><g transform="translate(108.000000, 461.000000) translate(12.000000, 0.000000)"><line id="Path" x1="5.2" x2="5.2" y1="33.8" y2=".8"/><rect id="Rectangle" width="10" height="33" x=".2" y=".8" fill="#383A48" fill-rule="nonzero"/></g></g><g><g transform="translate(1080.000000, 468.000000) translate(0.000000, 11.000000)"><line id="Path" x1=".3" x2="33.3" y1="5.6" y2="5.6"/><rect id="Rectangle" width="33" height="10" x=".3" y=".6" fill="#383A48" fill-rule="nonzero"/></g><g transform="translate(1080.000000, 468.000000) translate(11.000000, 0.000000)"><line id="Path" x1="5.8" x2="5.8" y1="33.1" y2=".1"/><rect id="Rectangle" width="10" height="33" x=".8" y=".1" fill="#383A48" fill-rule="nonzero"/></g></g></g></g></g></svg>