<?xml version="1.0" encoding="utf-8"?>
<!-- Generator: Adobe Illustrator 22.0.1, SVG Export Plug-In . SVG Version: 6.00 Build 0)  -->
<svg version="1.1" id="Layer_1" xmlns="http://www.w3.org/2000/svg" xmlns:xlink="http://www.w3.org/1999/xlink" x="0px" y="0px" viewBox="0 0 1920 1080" style="enable-background:new 0 0 1920 1080;" xml:space="preserve">

<rect y="0" width="1920" height="1080" style="fill:#E0719E;"/>
<g>
	<path d="M1657.8,163.1h-513c-2.6,0-4.8,2-5,4.6s1.6,4.9,4.1,5.4c69,12.1,112.1,34.2,139.5,71.5
		c25.5,34.7,35.7,79.5,48.7,136.1c5,22.1,10.3,44.9,16.9,69.6c6.5,24.1,13.5,46.3,21.2,67.7c11.2,30.9,28.1,56.8,51.6,79.3
		c18.2,17.5,39.9,32.6,70.4,49c11.8,6.4,23.7,12.4,35.3,18.1c67.2,33.6,125.3,62.7,125.3,150.1c0,2.8,2.2,5,5,5s5-2.2,5-5V168.1
		C1662.8,165.4,1660.6,163.1,1657.8,163.1z" style="fill:#F3F6E6;"/>
	<path d="M1530.3,436.6h-144.5c-12,0-23.5,2.7-34.1,7.9c-2.1,1.1-3.2,3.5-2.6,5.8c6.5,24.1,13.5,46.3,21.2,67.7
		c11.2,30.9,28.1,56.8,51.6,79.3c18.2,17.5,39.9,32.6,70.4,49c0.7,0.4,1.5,0.6,2.4,0.6h35.7c42.7,0,77.5-34.8,77.5-77.5v-55.3
		C1607.8,471.3,1573,436.6,1530.3,436.6z" style="fill:#383A48;"/>
	<path d="M927.1,910.1c-1.4-3.5-2.8-7-4.4-10.3c-3.2-7.1-6.9-13.9-10.8-20.4c-22-36-55.2-62.4-101.6-80.6
		c-40.4-15.9-85.3-23.7-128.7-31.2l-1.1-0.2c-20.4-3.5-41.5-7.2-61.2-11.7c-42.1-9.6-69.6-21.4-89-38.3
		c-23.7-20.5-35.2-49.3-35.2-87.9c0-56.3-15.3-100.6-46.6-135.5c-27.3-30.3-63-49.4-94.6-66.3c-46.5-24.8-86.8-46.3-86.8-94.7
		c0-2.8-2.2-5-5-5s-5,2.2-5,5v578.9c0,2.8,2.2,5,5,5h660.3c1.7,0,3.2-0.8,4.1-2.2C927.5,913.3,927.7,911.6,927.1,910.1z" style="fill:#F3F6E6;"/>
	<path d="M912,879.4c-22-36-55.2-62.4-101.6-80.6c-40.4-15.9-85.3-23.7-128.7-31.2l-1.1-0.2c-2.1-0.4-4.1,0.6-5.2,2.4
		c-1.1,1.8-0.9,4.1,0.4,5.7c27.1,33.5,61.1,61.3,98.5,80.4c40.1,20.5,82.6,30.9,126.5,30.9c1.2,0,3.8,0.1,6.7,0.1h0.1
		c1.8,0,3.4-1,4.3-2.5C912.9,882.9,912.9,881,912,879.4z" style="fill:#383A48;"/>
	<g>
		<g>
			<path d="M1209.1,531.8c0,24.3-3,47.9-8.7,70.5c-19.2,76.1-69,140.2-135.4,178.3c-42,24.1-90.6,37.8-142.4,37.8
				C764.3,818.4,636,690.1,636,531.8s128.3-286.6,286.6-286.6c106,0,198.6,57.6,248.2,143.2c15.8,27.3,27.2,57.4,33.3,89.4
				C1207.3,495.3,1209.1,513.3,1209.1,531.8z" style="fill:#AAC6FC;"/>
			<path d="M922.5,823.4c-77.9,0-151.1-30.3-206.2-85.4s-85.4-128.3-85.4-206.2s30.3-151.1,85.4-206.2
				c55.1-55.1,128.3-85.4,206.2-85.4c52.1,0,103.2,13.9,147.8,40.2c43.3,25.5,79.5,62,104.7,105.5c16.4,28.3,27.8,58.9,33.9,90.9
				c3.4,18,5.2,36.5,5.2,55c0,24.3-3,48.4-8.9,71.7c-19.2,76.1-69.5,142.2-137.8,181.4C1023.5,810.1,973.4,823.4,922.5,823.4z
				 M922.5,250.2c-75.2,0-145.9,29.3-199.1,82.5c-53.2,53.2-82.5,123.9-82.5,199.1s29.3,145.9,82.5,199.1
				c53.2,53.2,123.9,82.5,199.1,82.5c49.2,0,97.6-12.9,140-37.2c66-37.9,114.5-101.7,133.1-175.2c5.7-22.5,8.6-45.8,8.6-69.3
				c0-17.8-1.7-35.7-5-53.1c-5.9-31-16.9-60.5-32.7-87.8c-24.3-42-59.3-77.3-101.1-101.9C1022.1,263.6,972.8,250.2,922.5,250.2z" style="fill:#383A48;"/>
		</g>
		<g>
			<path d="M1200.6,600.9c-5.9,23.6-14.5,45.8-25.5,66.3l-52.4-25.7c-19.4-9.5-42.6-7.2-59.7,6l-110.2,84.9
				c-12.9,9.9-29.5,13.3-44.9,9.4c-3.1-0.8-6.1-1.8-9-3.1c-26.6-12-38.4-43.3-26.4-69.8l70-155c11-24.3,37.5-36.5,62.3-30.3
				c3.6,0.9,7.3,2.2,10.8,3.9c27.1,13.3,59.9,1.8,72.8-25.5l1.6-3.4c13.4-28.3,48-39.4,75.3-24.2l32.5,18.1
				c8.7,30.3,12.6,62.2,10.8,94.8C1207.7,565,1205.1,582.9,1200.6,600.9z" style="fill:#F6E049;"/>
			<path d="M920.8,748.3c-4.7,0-9.4-0.6-14-1.7c-3.4-0.8-6.7-2-9.8-3.4c-14.1-6.3-24.8-17.8-30.3-32.2s-5-30.1,1.4-44.2
				l70-155c11.8-26.1,40.4-40,68.1-33.1c4,1,8,2.4,11.8,4.3c11.9,5.8,25.3,6.6,37.9,2.2c12.5-4.4,22.5-13.4,28.2-25.4l1.6-3.4
				c7.1-15,19.7-26,35.4-31.1c15.8-5.1,32.4-3.4,46.9,4.7l32.5,18.1c1.2,0.6,2,1.7,2.4,3c9.1,31.4,12.8,63.8,11,96.4
				c-1,18.3-3.8,36.7-8.2,54.6l0,0c-5.8,23.5-14.6,46.2-25.9,67.5c-1.3,2.4-4.2,3.3-6.6,2.1l-52.4-25.7c-17.6-8.6-39-6.5-54.5,5.4
				L956,736.3C945.7,744.2,933.4,748.3,920.8,748.3z M991.9,486.9c-18.9,0-36.7,11-44.8,29l-70,155c-5.3,11.6-5.7,24.6-1.2,36.6
				c4.5,11.9,13.4,21.4,25,26.7c2.6,1.2,5.3,2.1,8.1,2.8c14.2,3.5,29,0.4,40.7-8.5l110.2-84.9c18.5-14.3,44-16.8,65-6.5l48,23.6
				c9.9-19.2,17.5-39.7,22.8-60.9c4.3-17.3,7-35.1,7.9-52.7c1.7-30.8-1.7-61.4-10-91.1l-30.7-17.1c-12-6.7-25.8-8.1-38.9-3.9
				s-23.6,13.4-29.4,25.8l-1.6,3.4c-6.8,14.4-18.9,25.3-33.9,30.6c-15.1,5.3-31.2,4.3-45.6-2.7c-3.2-1.5-6.5-2.7-9.8-3.6
				C999.8,487.3,995.8,486.9,991.9,486.9z" style="fill:#383A48;"/>
		</g>
		<g>
			<path d="M747.6,304.7c-84.3,65-122.5,167.6-109.1,266c23.9-42.6,107.6-57.1,135.5-108.9
				c27.9-51.8-28.3-116.1,19.6-186.1C777.6,283.8,762.2,293.5,747.6,304.7z" style="fill:#F6E049;"/>
			<path d="M638.5,575.8c-0.3,0-0.6,0-0.9-0.1c-2.1-0.4-3.7-2.1-4-4.2c-6.8-50-0.5-101.2,18.2-148.1
				c19.3-48.3,51.4-90.7,92.8-122.6l0,0c14.6-11.3,30.4-21.2,46.7-29.4c2-1,4.5-0.5,6,1.2s1.7,4.2,0.4,6.1
				c-25.7,37.6-20.1,73.2-14.7,107.7c4.4,27.7,8.5,53.8-4.6,78c-15.4,28.6-46,45.7-75.6,62.3c-25.4,14.2-49.3,27.7-59.9,46.6
				C641.9,574.8,640.2,575.8,638.5,575.8z M780.1,288.8c-10.2,6-20.1,12.7-29.5,19.9l0,0c-40,30.8-71,71.7-89.6,118.4
				c-16.5,41.3-23,86-19,130.2c13.4-15.5,34.2-27.1,55.9-39.3c28.4-15.9,57.7-32.4,71.7-58.4c11.4-21.2,7.6-45.8,3.5-71.7
				C768.3,357.6,763,324,780.1,288.8z" style="fill:#383A48;"/>
		</g>
		<g>
			<g>
				<g>
					<g>
						<circle cx="1155.9" cy="692" r="5" style="fill:#383A48;"/>
					</g>
				</g>
				<g>
					<g>
						<circle cx="1131.2" cy="692" r="5" style="fill:#383A48;"/>
					</g>
				</g>
				<g>
					<g>
						<circle cx="1131.2" cy="716.6" r="5" style="fill:#383A48;"/>
					</g>
				</g>
				<g>
					<g>
						<circle cx="1106.5" cy="716.6" r="5" style="fill:#383A48;"/>
					</g>
				</g>
				<g>
					<g>
						<circle cx="1106.5" cy="741.3" r="5" style="fill:#383A48;"/>
					</g>
				</g>
				<g>
					<g>
						<circle cx="1081.9" cy="716.6" r="5" style="fill:#383A48;"/>
					</g>
				</g>
				<g>
					<g>
						<circle cx="1081.9" cy="741.3" r="5" style="fill:#383A48;"/>
					</g>
				</g>
				<g>
					<g>
						<circle cx="1081.9" cy="766" r="5" style="fill:#383A48;"/>
					</g>
				</g>
				<g>
					<g>
						<circle cx="1057.2" cy="716.6" r="5" style="fill:#383A48;"/>
					</g>
				</g>
				<g>
					<g>
						<circle cx="1057.2" cy="741.3" r="5" style="fill:#383A48;"/>
					</g>
				</g>
				<g>
					<g>
						<circle cx="1057.2" cy="766" r="5" style="fill:#383A48;"/>
					</g>
				</g>
				<g>
					<g>
						<circle cx="1032.5" cy="716.6" r="5" style="fill:#383A48;"/>
					</g>
				</g>
				<g>
					<g>
						<circle cx="1032.5" cy="741.3" r="5" style="fill:#383A48;"/>
					</g>
				</g>
				<g>
					<g>
						<circle cx="1032.5" cy="766" r="5" style="fill:#383A48;"/>
					</g>
				</g>
				<g>
					<g>
						<circle cx="1032.5" cy="790.6" r="5" style="fill:#383A48;"/>
					</g>
				</g>
				<g>
					<g>
						<circle cx="1007.9" cy="716.6" r="5" style="fill:#383A48;"/>
					</g>
				</g>
				<g>
					<g>
						<circle cx="1007.9" cy="741.3" r="5" style="fill:#383A48;"/>
					</g>
				</g>
				<g>
					<g>
						<circle cx="1007.9" cy="766" r="5" style="fill:#383A48;"/>
					</g>
				</g>
				<g>
					<g>
						<circle cx="1007.9" cy="790.6" r="5" style="fill:#383A48;"/>
					</g>
				</g>
				<g>
					<g>
						<circle cx="983.2" cy="716.6" r="5" style="fill:#383A48;"/>
					</g>
				</g>
				<g>
					<g>
						<circle cx="983.2" cy="741.3" r="5" style="fill:#383A48;"/>
					</g>
				</g>
				<g>
					<g>
						<circle cx="983.2" cy="766" r="5" style="fill:#383A48;"/>
					</g>
				</g>
				<g>
					<g>
						<circle cx="983.2" cy="790.6" r="5" style="fill:#383A48;"/>
					</g>
				</g>
				<g>
					<g>
						<circle cx="958.5" cy="716.6" r="5" style="fill:#383A48;"/>
					</g>
				</g>
				<g>
					<g>
						<circle cx="958.5" cy="741.3" r="5" style="fill:#383A48;"/>
					</g>
				</g>
				<g>
					<g>
						<circle cx="958.5" cy="766" r="5" style="fill:#383A48;"/>
					</g>
				</g>
				<g>
					<g>
						<circle cx="958.5" cy="790.6" r="5" style="fill:#383A48;"/>
					</g>
				</g>
				<g>
					<g>
						<circle cx="933.9" cy="692" r="5" style="fill:#383A48;"/>
					</g>
				</g>
				<g>
					<g>
						<circle cx="933.9" cy="716.6" r="5" style="fill:#383A48;"/>
					</g>
				</g>
				<g>
					<g>
						<circle cx="933.9" cy="741.3" r="5" style="fill:#383A48;"/>
					</g>
				</g>
				<g>
					<g>
						<circle cx="933.9" cy="766" r="5" style="fill:#383A48;"/>
					</g>
				</g>
				<g>
					<g>
						<circle cx="933.9" cy="790.6" r="5" style="fill:#383A48;"/>
					</g>
				</g>
				<g>
					<g>
						<circle cx="933.9" cy="815.3" r="5" style="fill:#383A48;"/>
					</g>
				</g>
				<g>
					<g>
						<circle cx="909.2" cy="692" r="5" style="fill:#383A48;"/>
					</g>
				</g>
				<g>
					<g>
						<circle cx="909.2" cy="716.6" r="5" style="fill:#383A48;"/>
					</g>
				</g>
				<g>
					<g>
						<circle cx="909.2" cy="741.3" r="5" style="fill:#383A48;"/>
					</g>
				</g>
				<g>
					<g>
						<circle cx="909.2" cy="766" r="5" style="fill:#383A48;"/>
					</g>
				</g>
				<g>
					<g>
						<circle cx="909.2" cy="790.6" r="5" style="fill:#383A48;"/>
					</g>
				</g>
				<g>
					<g>
						<circle cx="909.2" cy="815.3" r="5" style="fill:#383A48;"/>
					</g>
				</g>
				<g>
					<g>
						<circle cx="884.5" cy="692" r="5" style="fill:#383A48;"/>
					</g>
				</g>
				<g>
					<g>
						<circle cx="884.5" cy="716.6" r="5" style="fill:#383A48;"/>
					</g>
				</g>
				<g>
					<g>
						<circle cx="884.5" cy="741.3" r="5" style="fill:#383A48;"/>
					</g>
				</g>
				<g>
					<g>
						<circle cx="884.5" cy="766" r="5" style="fill:#383A48;"/>
					</g>
				</g>
				<g>
					<g>
						<circle cx="884.5" cy="790.6" r="5" style="fill:#383A48;"/>
					</g>
				</g>
				<g>
					<g>
						<circle cx="884.5" cy="815.3" r="5" style="fill:#383A48;"/>
					</g>
				</g>
				<g>
					<g>
						<circle cx="859.9" cy="667.3" r="5" style="fill:#383A48;"/>
					</g>
				</g>
				<g>
					<g>
						<circle cx="859.9" cy="692" r="5" style="fill:#383A48;"/>
					</g>
				</g>
				<g>
					<g>
						<circle cx="859.9" cy="716.6" r="5" style="fill:#383A48;"/>
					</g>
				</g>
				<g>
					<g>
						<circle cx="859.9" cy="741.3" r="5" style="fill:#383A48;"/>
					</g>
				</g>
				<g>
					<g>
						<circle cx="859.9" cy="766" r="5" style="fill:#383A48;"/>
					</g>
				</g>
				<g>
					<g>
						<circle cx="859.9" cy="790.6" r="5" style="fill:#383A48;"/>
					</g>
				</g>
				<g>
					<g>
						<circle cx="835.2" cy="642.6" r="5" style="fill:#383A48;"/>
					</g>
				</g>
				<g>
					<g>
						<circle cx="835.2" cy="667.3" r="5" style="fill:#383A48;"/>
					</g>
				</g>
				<g>
					<g>
						<circle cx="835.2" cy="692" r="5" style="fill:#383A48;"/>
					</g>
				</g>
				<g>
					<g>
						<circle cx="835.2" cy="716.6" r="5" style="fill:#383A48;"/>
					</g>
				</g>
				<g>
					<g>
						<circle cx="835.2" cy="741.3" r="5" style="fill:#383A48;"/>
					</g>
				</g>
				<g>
					<g>
						<circle cx="835.2" cy="766" r="5" style="fill:#383A48;"/>
					</g>
				</g>
				<g>
					<g>
						<circle cx="835.2" cy="790.6" r="5" style="fill:#383A48;"/>
					</g>
				</g>
				<g>
					<g>
						<circle cx="810.5" cy="618" r="5" style="fill:#383A48;"/>
					</g>
				</g>
				<g>
					<g>
						<circle cx="810.5" cy="642.6" r="5" style="fill:#383A48;"/>
					</g>
				</g>
				<g>
					<g>
						<circle cx="810.5" cy="667.3" r="5" style="fill:#383A48;"/>
					</g>
				</g>
				<g>
					<g>
						<circle cx="810.5" cy="692" r="5" style="fill:#383A48;"/>
					</g>
				</g>
				<g>
					<g>
						<circle cx="810.5" cy="716.6" r="5" style="fill:#383A48;"/>
					</g>
				</g>
				<g>
					<g>
						<circle cx="810.5" cy="741.3" r="5" style="fill:#383A48;"/>
					</g>
				</g>
				<g>
					<g>
						<circle cx="810.5" cy="766" r="5" style="fill:#383A48;"/>
					</g>
				</g>
				<g>
					<g>
						<circle cx="810.5" cy="790.6" r="5" style="fill:#383A48;"/>
					</g>
				</g>
				<g>
					<g>
						<circle cx="785.9" cy="593.3" r="5" style="fill:#383A48;"/>
					</g>
				</g>
				<g>
					<g>
						<circle cx="785.9" cy="618" r="5" style="fill:#383A48;"/>
					</g>
				</g>
				<g>
					<g>
						<circle cx="785.9" cy="642.6" r="5" style="fill:#383A48;"/>
					</g>
				</g>
				<g>
					<g>
						<circle cx="785.9" cy="667.3" r="5" style="fill:#383A48;"/>
					</g>
				</g>
				<g>
					<g>
						<circle cx="785.9" cy="692" r="5" style="fill:#383A48;"/>
					</g>
				</g>
				<g>
					<g>
						<circle cx="785.9" cy="716.6" r="5" style="fill:#383A48;"/>
					</g>
				</g>
				<g>
					<g>
						<circle cx="785.9" cy="741.3" r="5" style="fill:#383A48;"/>
					</g>
				</g>
				<g>
					<g>
						<circle cx="785.9" cy="766" r="5" style="fill:#383A48;"/>
					</g>
				</g>
				<g>
					<g>
						<circle cx="761.2" cy="297.3" r="5" style="fill:#383A48;"/>
					</g>
				</g>
				<g>
					<g>
						<circle cx="761.2" cy="544" r="5" style="fill:#383A48;"/>
					</g>
				</g>
				<g>
					<g>
						<circle cx="761.2" cy="568.6" r="5" style="fill:#383A48;"/>
					</g>
				</g>
				<g>
					<g>
						<circle cx="761.2" cy="593.3" r="5" style="fill:#383A48;"/>
					</g>
				</g>
				<g>
					<g>
						<circle cx="761.2" cy="618" r="5" style="fill:#383A48;"/>
					</g>
				</g>
				<g>
					<g>
						<circle cx="761.2" cy="642.6" r="5" style="fill:#383A48;"/>
					</g>
				</g>
				<g>
					<g>
						<circle cx="761.2" cy="667.3" r="5" style="fill:#383A48;"/>
					</g>
				</g>
				<g>
					<g>
						<circle cx="761.2" cy="692" r="5" style="fill:#383A48;"/>
					</g>
				</g>
				<g>
					<g>
						<circle cx="761.2" cy="716.6" r="5" style="fill:#383A48;"/>
					</g>
				</g>
				<g>
					<g>
						<circle cx="761.2" cy="741.3" r="5" style="fill:#383A48;"/>
					</g>
				</g>
				<g>
					<g>
						<circle cx="761.2" cy="766" r="5" style="fill:#383A48;"/>
					</g>
				</g>
				<g>
					<g>
						<circle cx="736.5" cy="322" r="5" style="fill:#383A48;"/>
					</g>
				</g>
				<g>
					<g>
						<circle cx="736.5" cy="346.6" r="5" style="fill:#383A48;"/>
					</g>
				</g>
				<g>
					<g>
						<circle cx="736.5" cy="371.3" r="5" style="fill:#383A48;"/>
					</g>
				</g>
				<g>
					<g>
						<circle cx="736.5" cy="396" r="5" style="fill:#383A48;"/>
					</g>
				</g>
				<g>
					<g>
						<circle cx="736.5" cy="420.6" r="5" style="fill:#383A48;"/>
					</g>
				</g>
				<g>
					<g>
						<circle cx="736.5" cy="445.3" r="5" style="fill:#383A48;"/>
					</g>
				</g>
				<g>
					<g>
						<circle cx="736.5" cy="470" r="5" style="fill:#383A48;"/>
					</g>
				</g>
				<g>
					<g>
						<circle cx="736.5" cy="494.6" r="5" style="fill:#383A48;"/>
					</g>
				</g>
				<g>
					<g>
						<circle cx="736.5" cy="519.3" r="5" style="fill:#383A48;"/>
					</g>
				</g>
				<g>
					<g>
						<circle cx="736.5" cy="544" r="5" style="fill:#383A48;"/>
					</g>
				</g>
				<g>
					<g>
						<circle cx="736.5" cy="568.6" r="5" style="fill:#383A48;"/>
					</g>
				</g>
				<g>
					<g>
						<circle cx="736.5" cy="593.3" r="5" style="fill:#383A48;"/>
					</g>
				</g>
				<g>
					<g>
						<circle cx="736.5" cy="618" r="5" style="fill:#383A48;"/>
					</g>
				</g>
				<g>
					<g>
						<circle cx="736.5" cy="642.6" r="5" style="fill:#383A48;"/>
					</g>
				</g>
				<g>
					<g>
						<circle cx="736.5" cy="667.3" r="5" style="fill:#383A48;"/>
					</g>
				</g>
				<g>
					<g>
						<circle cx="736.5" cy="692" r="5" style="fill:#383A48;"/>
					</g>
				</g>
				<g>
					<g>
						<circle cx="736.5" cy="716.6" r="5" style="fill:#383A48;"/>
					</g>
				</g>
				<g>
					<g>
						<circle cx="736.5" cy="741.3" r="5" style="fill:#383A48;"/>
					</g>
				</g>
				<g>
					<g>
						<circle cx="711.9" cy="346.6" r="5" style="fill:#383A48;"/>
					</g>
				</g>
				<g>
					<g>
						<circle cx="711.9" cy="371.3" r="5" style="fill:#383A48;"/>
					</g>
				</g>
				<g>
					<g>
						<circle cx="711.9" cy="396" r="5" style="fill:#383A48;"/>
					</g>
				</g>
				<g>
					<g>
						<circle cx="711.9" cy="420.6" r="5" style="fill:#383A48;"/>
					</g>
				</g>
				<g>
					<g>
						<circle cx="711.9" cy="445.3" r="5" style="fill:#383A48;"/>
					</g>
				</g>
				<g>
					<g>
						<circle cx="711.9" cy="470" r="5" style="fill:#383A48;"/>
					</g>
				</g>
				<g>
					<g>
						<circle cx="711.9" cy="494.6" r="5" style="fill:#383A48;"/>
					</g>
				</g>
				<g>
					<g>
						<circle cx="711.9" cy="519.3" r="5" style="fill:#383A48;"/>
					</g>
				</g>
				<g>
					<g>
						<circle cx="711.9" cy="544" r="5" style="fill:#383A48;"/>
					</g>
				</g>
				<g>
					<g>
						<circle cx="711.9" cy="568.6" r="5" style="fill:#383A48;"/>
					</g>
				</g>
				<g>
					<g>
						<circle cx="711.9" cy="593.3" r="5" style="fill:#383A48;"/>
					</g>
				</g>
				<g>
					<g>
						<circle cx="711.9" cy="618" r="5" style="fill:#383A48;"/>
					</g>
				</g>
				<g>
					<g>
						<circle cx="711.9" cy="642.6" r="5" style="fill:#383A48;"/>
					</g>
				</g>
				<g>
					<g>
						<circle cx="711.9" cy="667.3" r="5" style="fill:#383A48;"/>
					</g>
				</g>
				<g>
					<g>
						<circle cx="711.9" cy="692" r="5" style="fill:#383A48;"/>
					</g>
				</g>
				<g>
					<g>
						<circle cx="711.9" cy="716.6" r="5" style="fill:#383A48;"/>
					</g>
				</g>
				<g>
					<g>
						<circle cx="687.2" cy="371.3" r="5" style="fill:#383A48;"/>
					</g>
				</g>
				<g>
					<g>
						<circle cx="687.2" cy="396" r="5" style="fill:#383A48;"/>
					</g>
				</g>
				<g>
					<g>
						<circle cx="687.2" cy="420.6" r="5" style="fill:#383A48;"/>
					</g>
				</g>
				<g>
					<g>
						<circle cx="687.2" cy="445.3" r="5" style="fill:#383A48;"/>
					</g>
				</g>
				<g>
					<g>
						<circle cx="687.2" cy="470" r="5" style="fill:#383A48;"/>
					</g>
				</g>
				<g>
					<g>
						<circle cx="687.2" cy="494.6" r="5" style="fill:#383A48;"/>
					</g>
				</g>
				<g>
					<g>
						<circle cx="687.2" cy="519.3" r="5" style="fill:#383A48;"/>
					</g>
				</g>
				<g>
					<g>
						<circle cx="687.2" cy="544" r="5" style="fill:#383A48;"/>
					</g>
				</g>
				<g>
					<g>
						<circle cx="687.2" cy="568.6" r="5" style="fill:#383A48;"/>
					</g>
				</g>
				<g>
					<g>
						<circle cx="687.2" cy="593.3" r="5" style="fill:#383A48;"/>
					</g>
				</g>
				<g>
					<g>
						<circle cx="687.2" cy="618" r="5" style="fill:#383A48;"/>
					</g>
				</g>
				<g>
					<g>
						<circle cx="687.2" cy="642.6" r="5" style="fill:#383A48;"/>
					</g>
				</g>
				<g>
					<g>
						<circle cx="687.2" cy="667.3" r="5" style="fill:#383A48;"/>
					</g>
				</g>
				<g>
					<g>
						<circle cx="687.2" cy="692" r="5" style="fill:#383A48;"/>
					</g>
				</g>
				<g>
					<g>
						<circle cx="662.5" cy="420.6" r="5" style="fill:#383A48;"/>
					</g>
				</g>
				<g>
					<g>
						<circle cx="662.5" cy="445.3" r="5" style="fill:#383A48;"/>
					</g>
				</g>
				<g>
					<g>
						<circle cx="662.5" cy="470" r="5" style="fill:#383A48;"/>
					</g>
				</g>
				<g>
					<g>
						<circle cx="662.5" cy="494.6" r="5" style="fill:#383A48;"/>
					</g>
				</g>
				<g>
					<g>
						<circle cx="662.5" cy="519.3" r="5" style="fill:#383A48;"/>
					</g>
				</g>
				<g>
					<g>
						<circle cx="662.5" cy="544" r="5" style="fill:#383A48;"/>
					</g>
				</g>
				<g>
					<g>
						<circle cx="662.5" cy="568.6" r="5" style="fill:#383A48;"/>
					</g>
				</g>
				<g>
					<g>
						<circle cx="662.5" cy="593.3" r="5" style="fill:#383A48;"/>
					</g>
				</g>
				<g>
					<g>
						<circle cx="662.5" cy="618" r="5" style="fill:#383A48;"/>
					</g>
				</g>
				<g>
					<g>
						<circle cx="662.5" cy="642.6" r="5" style="fill:#383A48;"/>
					</g>
				</g>
				<g>
					<g>
						<circle cx="637.9" cy="494.6" r="5" style="fill:#383A48;"/>
					</g>
				</g>
				<g>
					<g>
						<circle cx="637.9" cy="519.3" r="5" style="fill:#383A48;"/>
					</g>
				</g>
				<g>
					<g>
						<circle cx="637.9" cy="544" r="5" style="fill:#383A48;"/>
					</g>
				</g>
				<g>
					<g>
						<circle cx="637.9" cy="568.6" r="5" style="fill:#383A48;"/>
					</g>
				</g>
			</g>
		</g>
	</g>
	<g>
		<path d="M645.6,868.9c-19.1,0-34.1-5.1-44.6-15.6c-27.2-27.2-18.5-86.4,24.7-166.6c42.2-78.5,112.4-168.7,197.7-254
			s175.5-155.5,254-197.7c80.2-43.1,139.4-51.9,166.6-24.7c32.7,32.7,13.5,110.6-52.6,214l-8.4-5.4c62.4-97.6,82.6-172.9,54-201.5
			c-23.5-23.5-79.9-13.9-154.8,26.4c-77.7,41.8-167.1,111.4-251.7,196s-154.2,174-196,251.7c-40.3,74.9-49.9,131.3-26.4,154.8
			c28.6,28.6,103.9,8.4,201.5-54l5.4,8.4C744.7,845.6,686.1,868.9,645.6,868.9z" style="fill:#383A48;"/>
	</g>
	<g>
		<path d="M549.6,822.1c-2.5,0-4.7-1.9-5-4.5c-0.3-2.7,1.7-5.2,4.4-5.5c3.7-0.4,7.5-1,11.5-1.7c2.7-0.5,5.3,1.3,5.8,4
			s-1.3,5.3-4,5.8c-4.2,0.8-8.3,1.4-12.3,1.8C549.9,822.1,549.8,822.1,549.6,822.1z M519.8,820.9c-0.4,0-0.8,0-1.1-0.1
			c-4.4-1-8.6-2.5-12.4-4.3c-2.5-1.2-3.5-4.2-2.3-6.7s4.2-3.5,6.7-2.3c3.1,1.5,6.6,2.7,10.3,3.5c2.7,0.6,4.4,3.3,3.7,6
			C524.1,819.4,522,820.9,519.8,820.9z M487.8,796.1c-1.9,0-3.7-1.1-4.5-2.9c-1.7-3.8-3.1-8-4.1-12.4c-0.6-2.7,1.1-5.4,3.8-6
			c2.7-0.6,5.4,1.1,6,3.8c0.8,3.7,2,7.2,3.4,10.3c1.2,2.5,0.1,5.5-2.4,6.6C489.3,795.9,488.5,796.1,487.8,796.1z M483.1,754.9
			c-0.2,0-0.4,0-0.6,0c-2.7-0.3-4.7-2.8-4.4-5.5c0.4-3.9,1.1-8,1.9-12.2c0.5-2.7,3.1-4.5,5.8-4c2.7,0.5,4.5,3.1,4,5.8
			c-0.8,3.9-1.3,7.8-1.7,11.5C487.8,753,485.6,754.9,483.1,754.9z M492.7,714c-0.5,0-1.1-0.1-1.6-0.3c-2.6-0.9-4-3.7-3.2-6.3
			c1.2-3.7,2.6-7.6,4.1-11.5c1-2.6,3.9-3.9,6.4-2.9c2.6,1,3.9,3.9,2.9,6.4c-1.4,3.8-2.8,7.5-4,11.1C496.7,712.7,494.8,714,492.7,714
			z M508.4,675.1c-0.7,0-1.4-0.2-2.1-0.5c-2.5-1.2-3.6-4.1-2.4-6.6c1.7-3.6,3.4-7.3,5.3-10.9c1.2-2.5,4.2-3.5,6.7-2.3
			s3.5,4.2,2.3,6.7c-1.8,3.6-3.5,7.2-5.2,10.7C512.1,674.1,510.3,675.1,508.4,675.1z M527.6,637.8c-0.8,0-1.7-0.2-2.4-0.6
			c-2.4-1.4-3.3-4.4-1.9-6.8c1.9-3.4,3.9-6.9,6-10.5c1.4-2.4,4.5-3.2,6.8-1.8c2.4,1.4,3.2,4.5,1.8,6.8c-2,3.5-4,7-5.9,10.3
			C531.1,636.9,529.4,637.8,527.6,637.8z M549.3,601.8c-0.9,0-1.9-0.3-2.7-0.8c-2.3-1.5-3-4.6-1.5-6.9c1-1.6,2.1-3.3,3.2-4.9
			c1.5-2.3,4.6-3,6.9-1.5c2.3,1.5,3,4.6,1.5,6.9c-1,1.6-2.1,3.2-3.1,4.8C552.5,601,550.9,601.8,549.3,601.8z" style="fill:#383A48;"/>
	</g>
	<g>
		<path d="M1257.9,443.2c-0.9,0-1.9-0.3-2.7-0.8c-2.3-1.5-3-4.6-1.5-6.9c1-1.6,2.1-3.2,3.1-4.8c1.5-2.3,4.6-3,6.9-1.5
			s3,4.6,1.5,6.9c-1,1.6-2.1,3.3-3.1,4.9C1261.1,442.4,1259.5,443.2,1257.9,443.2z M1276.7,412.8c-0.9,0-1.7-0.2-2.5-0.7
			c-2.4-1.4-3.2-4.5-1.8-6.8c2-3.5,4-6.9,5.9-10.3c1.4-2.4,4.4-3.3,6.8-1.9s3.3,4.4,1.9,6.8c-1.9,3.4-4,7-6,10.5
			C1280.1,411.9,1278.4,412.8,1276.7,412.8z M1296.7,375.9c-0.7,0-1.5-0.2-2.2-0.5c-2.5-1.2-3.5-4.2-2.3-6.7
			c1.8-3.6,3.5-7.2,5.2-10.7c1.2-2.5,4.1-3.6,6.6-2.4s3.6,4.1,2.4,6.6c-1.7,3.6-3.4,7.3-5.3,10.9
			C1300.3,374.8,1298.5,375.9,1296.7,375.9z M1313.6,337.4c-0.6,0-1.2-0.1-1.8-0.3c-2.6-1-3.9-3.9-2.9-6.4c1.4-3.8,2.8-7.5,4-11.1
			c0.9-2.6,3.7-4,6.3-3.2c2.6,0.9,4,3.7,3.2,6.3c-1.2,3.7-2.6,7.6-4.1,11.5C1317.5,336.2,1315.6,337.4,1313.6,337.4z M1325.4,297.2
			c-0.3,0-0.6,0-0.9-0.1c-2.7-0.5-4.5-3.1-4-5.8c0.8-3.9,1.3-7.8,1.7-11.5c0.3-2.7,2.8-4.7,5.5-4.4c2.7,0.3,4.7,2.8,4.4,5.5
			c-0.4,3.9-1.1,8-1.9,12.2C1329.8,295.5,1327.7,297.2,1325.4,297.2z M1326.2,255.5c-2.3,0-4.4-1.6-4.9-3.9c-0.8-3.7-2-7.2-3.4-10.3
			c-1.2-2.5-0.1-5.5,2.4-6.6c2.5-1.2,5.5-0.1,6.6,2.4c1.7,3.8,3.1,8,4.1,12.4c0.6,2.7-1.1,5.4-3.8,6
			C1326.9,255.4,1326.6,255.5,1326.2,255.5z M1301.8,223.1c-0.7,0-1.5-0.2-2.2-0.5c-3.1-1.5-6.6-2.7-10.3-3.5
			c-2.7-0.6-4.4-3.3-3.7-6c0.6-2.7,3.3-4.4,6-3.7c4.4,1,8.6,2.5,12.4,4.3c2.5,1.2,3.5,4.2,2.3,6.7
			C1305.5,222.1,1303.7,223.1,1301.8,223.1z M1248.8,219.8c-2.4,0-4.5-1.7-4.9-4.1c-0.5-2.7,1.3-5.3,4-5.8c4.2-0.8,8.3-1.4,12.3-1.8
			c2.7-0.3,5.2,1.7,5.5,4.4s-1.7,5.2-4.4,5.5c-3.7,0.4-7.5,1-11.5,1.7C1249.4,219.8,1249.1,219.8,1248.8,219.8z" style="fill:#383A48;"/>
	</g>
	<g>
		
			<ellipse transform="matrix(0.1735 -0.9848 0.9848 0.1735 590.376 1237.8772)" cx="1032.7" cy="267.2" rx="58.2" ry="58.2" style="fill:#F3F6E6;"/>
		<path d="M1032.7,330.3c-34.8,0-63.2-28.3-63.2-63.2s28.3-63.2,63.2-63.2c34.8,0,63.2,28.3,63.2,63.2
			S1067.5,330.3,1032.7,330.3z M1032.7,214c-29.3,0-53.2,23.8-53.2,53.2c0,29.4,23.8,53.2,53.2,53.2c29.3,0,53.2-23.8,53.2-53.2
			S1062,214,1032.7,214z" style="fill:#383A48;"/>
	</g>
	<g>
		<g>
			<g>
				<path d="M357.5,168.1h138.2c52.6,0,95.3,42.7,95.3,95.3v56.5c0,34.5-18.4,64.8-45.9,81.5l-1.5,62.2l-89.9-62.7
					h-96.2c-52.6,0-95.3-42.7-95.3-95.3v-42.2C262.2,210.8,304.9,168.1,357.5,168.1z" style="fill:#7FD6C2;"/>
			</g>
			<g>
				<path d="M543.6,468.6c-1,0-2-0.3-2.9-0.9l-88.6-61.8h-94.6c-55.3,0-100.3-45-100.3-100.3v-42.2
					c0-55.3,45-100.3,100.3-100.3h138.2c55.3,0,100.3,45,100.3,100.3v56.5c0,34.4-17.1,65.7-45.9,84.3l-1.4,59.5
					c0,1.8-1.1,3.5-2.7,4.3C545.2,468.4,544.4,468.6,543.6,468.6z M357.5,173.1c-49.8,0-90.3,40.5-90.3,90.3v42.2
					c0,49.8,40.5,90.3,90.3,90.3h96.2c1,0,2,0.3,2.9,0.9l82.3,57.3l1.3-52.9c0-1.7,0.9-3.3,2.4-4.2c27.2-16.5,43.5-45.4,43.5-77.2
					v-56.5c0-49.8-40.5-90.3-90.3-90.3H357.5V173.1z" style="fill:#383A48;"/>
			</g>
		</g>
		<g>
			<circle cx="491.4" cy="286.1" r="14.4" style="fill:#F3F6E6;"/>
			<path d="M491.4,305.5c-10.7,0-19.4-8.7-19.4-19.4c0-10.7,8.7-19.4,19.4-19.4s19.4,8.7,19.4,19.4
				S502.1,305.5,491.4,305.5z M491.4,276.7c-5.2,0-9.4,4.2-9.4,9.4s4.2,9.4,9.4,9.4c5.2,0,9.4-4.2,9.4-9.4S496.6,276.7,491.4,276.7z
				" style="fill:#F3F6E6;"/>
		</g>
		<g>
			<circle cx="428.8" cy="286.1" r="14.4" style="fill:#F3F6E6;"/>
			<path d="M428.8,305.5c-10.7,0-19.4-8.7-19.4-19.4c0-10.7,8.7-19.4,19.4-19.4s19.4,8.7,19.4,19.4
				C448.2,296.8,439.5,305.5,428.8,305.5z M428.8,276.7c-5.2,0-9.4,4.2-9.4,9.4s4.2,9.4,9.4,9.4c5.2,0,9.4-4.2,9.4-9.4
				S434,276.7,428.8,276.7z" style="fill:#F3F6E6;"/>
		</g>
		<g>
			<circle cx="366.1" cy="286.1" r="14.4" style="fill:#F3F6E6;"/>
			<path d="M366.1,305.5c-10.7,0-19.4-8.7-19.4-19.4c0-10.7,8.7-19.4,19.4-19.4s19.4,8.7,19.4,19.4
				S376.8,305.5,366.1,305.5z M366.1,276.7c-5.2,0-9.4,4.2-9.4,9.4s4.2,9.4,9.4,9.4c5.2,0,9.4-4.2,9.4-9.4S371.3,276.7,366.1,276.7z
				" style="fill:#F3F6E6;"/>
		</g>
	</g>
	<g>
		<g>
			<path d="M1530.3,377.6h-144.5c-40.1,0-72.5,32.5-72.5,72.5v76.5l-42.9,51.3h115.4h144.5c40.1,0,72.5-32.5,72.5-72.5
				v-55.3C1602.8,410,1570.3,377.6,1530.3,377.6z" style="fill:#E0719E;"/>
			<path d="M1530.3,582.9h-259.9c-1.9,0-3.7-1.1-4.5-2.9c-0.8-1.8-0.6-3.8,0.7-5.3l41.7-49.9v-74.7
				c0-42.7,34.8-77.5,77.5-77.5h144.5c42.7,0,77.5,34.8,77.5,77.5v55.3C1607.8,548.2,1573,582.9,1530.3,582.9z M1281,572.9h249.2
				c37.2,0,67.5-30.3,67.5-67.5v-55.3c0-37.2-30.3-67.5-67.5-67.5h-144.5c-37.2,0-67.5,30.3-67.5,67.5v76.5c0,1.2-0.4,2.3-1.2,3.2
				L1281,572.9z" style="fill:#383A48;"/>
		</g>
		<g>
			<circle cx="1403.6" cy="477.8" r="12.5" style="fill:#F3F6E6;"/>
			<path d="M1403.6,495.3c-9.7,0-17.5-7.9-17.5-17.5s7.9-17.5,17.5-17.5s17.5,7.9,17.5,17.5S1413.2,495.3,1403.6,495.3z
				 M1403.6,470.3c-4.1,0-7.5,3.4-7.5,7.5s3.4,7.5,7.5,7.5s7.5-3.4,7.5-7.5S1407.7,470.3,1403.6,470.3z" style="fill:#F3F6E6;"/>
		</g>
		<g>
			<circle cx="1458" cy="477.8" r="12.5" style="fill:#F3F6E6;"/>
			<path d="M1458,495.3c-9.7,0-17.5-7.9-17.5-17.5s7.9-17.5,17.5-17.5s17.5,7.9,17.5,17.5S1467.7,495.3,1458,495.3z
				 M1458,470.3c-4.1,0-7.5,3.4-7.5,7.5s3.4,7.5,7.5,7.5s7.5-3.4,7.5-7.5S1462.1,470.3,1458,470.3z" style="fill:#F3F6E6;"/>
		</g>
		<g>
			<circle cx="1512.5" cy="477.8" r="12.5" style="fill:#F3F6E6;"/>
			<path d="M1512.5,495.3c-9.7,0-17.5-7.9-17.5-17.5s7.9-17.5,17.5-17.5s17.5,7.9,17.5,17.5S1522.1,495.3,1512.5,495.3z
				 M1512.5,470.3c-4.1,0-7.5,3.4-7.5,7.5s3.4,7.5,7.5,7.5s7.5-3.4,7.5-7.5S1516.6,470.3,1512.5,470.3z" style="fill:#F3F6E6;"/>
		</g>
	</g>
	<g>
		<path d="M1367.7,717.3h192.9c53.7,0,97.3,43.6,97.3,97.3l0,0c0,53.7-43.6,97.3-97.3,97.3h-192.9
			c-53.7,0-97.3-43.6-97.3-97.3l0,0C1270.4,760.9,1313.9,717.3,1367.7,717.3z" style="fill:#F6E049;"/>
		<path d="M1560.5,916.9h-192.9c-56.4,0-102.3-45.9-102.3-102.3c0-56.4,45.9-102.3,102.3-102.3h192.9
			c56.4,0,102.3,45.9,102.3,102.3S1616.9,916.9,1560.5,916.9z M1367.6,722.3c-50.9,0-92.3,41.4-92.3,92.3
			c0,50.9,41.4,92.3,92.3,92.3h192.9c50.9,0,92.3-41.4,92.3-92.3c0-50.9-41.4-92.3-92.3-92.3H1367.6z" style="fill:#383A48;"/>
		<g>
			<g>
				<circle cx="1554.1" cy="814.6" r="69.8" style="fill:#7FD6C2;"/>
			</g>
			<g>
				<path d="M1554.1,889.4c-41.2,0-74.8-33.5-74.8-74.8s33.5-74.8,74.8-74.8c41.2,0,74.8,33.5,74.8,74.8
					S1595.3,889.4,1554.1,889.4z M1554.1,749.8c-35.7,0-64.8,29.1-64.8,64.8s29.1,64.8,64.8,64.8c35.7,0,64.8-29.1,64.8-64.8
					S1589.8,749.8,1554.1,749.8z" style="fill:#383A48;"/>
			</g>
		</g>
	</g>
	<g>
		<path d="M1367.6,916.9H1209c-2.8,0-5-2.2-5-5s2.2-5,5-5h158.6c2.8,0,5,2.2,5,5S1370.4,916.9,1367.6,916.9z" style="fill:#383A48;"/>
	</g>
	<path d="M1661.3,164.6c-0.9-0.9-2.2-1.5-3.5-1.5h-147.7c-2.8,0-5,2.2-5,5c0,84.2,68.5,152.7,152.7,152.7
		c2.8,0,5-2.2,5-5V168.1C1662.8,166.8,1662.3,165.5,1661.3,164.6z" style="fill:#F6E049;"/>
	<path d="M1661.3,164.6c-0.9-0.9-2.2-1.5-3.5-1.5h-86.4c-2.8,0-5,2.2-5,5c0,50.4,41,91.4,91.4,91.4c2.8,0,5-2.2,5-5
		v-86.4C1662.8,166.8,1662.3,165.5,1661.3,164.6z" style="fill:#AAC6FC;"/>
	<g>
		<ellipse cx="1181.7" cy="805.9" rx="18.3" ry="21.3" style="fill:#F3F6E6;"/>
		<path d="M1181.7,832.2c-2.8,0-5-2.2-5-5c0-4.9-1.3-16.3-13.3-16.3c-2.8,0-5-2.2-5-5s2.2-5,5-5
			c12,0,13.3-11.4,13.3-16.3c0-2.8,2.2-5,5-5s5,2.2,5,5c0,4.9,1.3,16.3,13.3,16.3c2.8,0,5,2.2,5,5s-2.2,5-5,5
			c-12,0-13.3,11.4-13.3,16.3C1186.7,830,1184.4,832.2,1181.7,832.2z M1178.1,805.9c1.3,1.1,2.5,2.4,3.6,3.8c1-1.4,2.2-2.7,3.6-3.8
			c-1.3-1.1-2.5-2.4-3.6-3.8C1180.6,803.5,1179.4,804.8,1178.1,805.9z" style="fill:#F3F6E6;"/>
	</g>
	<g>
		<ellipse cx="661.5" cy="242" rx="18.3" ry="21.3" style="fill:#F3F6E6;"/>
		<path d="M661.5,268.3c-2.8,0-5-2.2-5-5c0-4.9-1.3-16.3-13.3-16.3c-2.8,0-5-2.2-5-5s2.2-5,5-5
			c12,0,13.3-11.4,13.3-16.3c0-2.8,2.2-5,5-5s5,2.2,5,5c0,4.9,1.3,16.3,13.3,16.3c2.8,0,5,2.2,5,5s-2.2,5-5,5
			c-12,0-13.3,11.4-13.3,16.3C666.5,266.1,664.3,268.3,661.5,268.3z M657.9,242c1.3,1.1,2.5,2.4,3.6,3.8c1-1.4,2.2-2.7,3.6-3.8
			c-1.3-1.1-2.5-2.4-3.6-3.8C660.5,239.6,659.3,240.9,657.9,242z" style="fill:#F3F6E6;"/>
	</g>
	<g>
		<g>
			<line x1="365.7" y1="641.3" x2="398.6" y2="641.3" style="fill:none;"/>
			<rect x="365.7" y="636.3" width="33" height="10" style="fill:#383A48;"/>
		</g>
		<g>
			<line x1="382.2" y1="657.8" x2="382.2" y2="624.8" style="fill:none;"/>
			<rect x="377.2" y="624.8" width="10" height="33" style="fill:#383A48;"/>
		</g>
	</g>
	<g>
		<g>
			<line x1="1337.3" y1="647.6" x2="1370.3" y2="647.6" style="fill:none;"/>
			<rect x="1337.3" y="642.6" width="33" height="10" style="fill:#383A48;"/>
		</g>
		<g>
			<line x1="1353.8" y1="664.1" x2="1353.8" y2="631.1" style="fill:none;"/>
			<rect x="1348.8" y="631.1" width="10" height="33" style="fill:#383A48;"/>
		</g>
	</g>
</g>
</svg>
