<?xml version="1.0" encoding="utf-8"?>
<!-- Generator: Adobe Illustrator 22.0.1, SVG Export Plug-In . SVG Version: 6.00 Build 0)  -->
<svg version="1.1" id="Layer_1" xmlns="http://www.w3.org/2000/svg" xmlns:xlink="http://www.w3.org/1999/xlink" x="0px" y="0px" viewBox="0 0 1920 1080" style="enable-background:new 0 0 1920 1080;" xml:space="preserve">

<rect y="0" width="1920" height="1080" style="fill:#AAC6FC;"/>
<g>
	<path d="M1008.1,167.4h-774c-2.8,0-5,2.2-5,5v738.2c0,2.8,2.2,5,5,5l774-39.1c2.8,0,5-2.2,5-5V172.4
		C1013.1,169.6,1010.9,167.4,1008.1,167.4z" style="fill:#E0719E;"/>
	<path d="M1687,167.5c-2.3-0.5-4.6,0.6-5.6,2.7c-45.7,92.5-98.1,144-165,162c-60.3,16.2-126.7,3.7-196.9-9.5
		c-80.2-15.1-163.2-30.7-253.4-10.2c-34.8,7.9-79,39.9-118.1,68.1c-14.9,10.8-28.9,21-41.7,29.3c-51.2,33.4-94.5,71.2-132.4,115.5
		c-33.5,39-58.6,78-82.8,115.7c-22.6,35.1-44,68.2-70.5,99.1c-37.8,44-80.6,76.4-134.6,101.7c-64.9,30.5-147.4,51.4-252.3,63.8
		c-2.6,0.3-4.6,2.6-4.4,5.3s2.3,4.7,5,4.7H1686c2.8,0,5-2.2,5-5V172.4C1690.9,170.1,1689.3,168,1687,167.5z" style="fill:#F3F6E6;"/>
	<g>
		<g>
			<g>
				<g>
					<circle cx="852.1" cy="452.4" r="5" style="fill:#383A48;"/>
				</g>
			</g>
			<g>
				<g>
					<circle cx="852.1" cy="477.1" r="5" style="fill:#383A48;"/>
				</g>
			</g>
			<g>
				<g>
					<circle cx="852.1" cy="501.7" r="5" style="fill:#383A48;"/>
				</g>
			</g>
			<g>
				<g>
					<circle cx="852.1" cy="526.4" r="5" style="fill:#383A48;"/>
				</g>
			</g>
			<g>
				<g>
					<circle cx="852.1" cy="551.1" r="5" style="fill:#383A48;"/>
				</g>
			</g>
			<g>
				<g>
					<circle cx="852.1" cy="575.7" r="5" style="fill:#383A48;"/>
				</g>
			</g>
			<g>
				<g>
					<circle cx="852.1" cy="600.4" r="5" style="fill:#383A48;"/>
				</g>
			</g>
			<g>
				<g>
					<circle cx="852.1" cy="625.1" r="5" style="fill:#383A48;"/>
				</g>
			</g>
			<g>
				<g>
					<circle cx="852.1" cy="649.7" r="5" style="fill:#383A48;"/>
				</g>
			</g>
			<g>
				<g>
					<circle cx="852.1" cy="674.4" r="5" style="fill:#383A48;"/>
				</g>
			</g>
			<g>
				<g>
					<circle cx="852.1" cy="699.1" r="5" style="fill:#383A48;"/>
				</g>
			</g>
			<g>
				<g>
					<circle cx="852.1" cy="723.7" r="5" style="fill:#383A48;"/>
				</g>
			</g>
			<g>
				<g>
					<circle cx="852.1" cy="748.4" r="5" style="fill:#383A48;"/>
				</g>
			</g>
			<g>
				<g>
					<circle cx="852.1" cy="773.1" r="5" style="fill:#383A48;"/>
				</g>
			</g>
			<g>
				<g>
					<circle cx="852.1" cy="797.7" r="5" style="fill:#383A48;"/>
				</g>
			</g>
			<g>
				<g>
					<circle cx="852.1" cy="822.4" r="5" style="fill:#383A48;"/>
				</g>
			</g>
			<g>
				<g>
					<circle cx="852.1" cy="847.1" r="5" style="fill:#383A48;"/>
				</g>
			</g>
			<g>
				<g>
					<circle cx="852.1" cy="871.7" r="5" style="fill:#383A48;"/>
				</g>
			</g>
			<g>
				<g>
					<circle cx="852.1" cy="896.4" r="5" style="fill:#383A48;"/>
				</g>
			</g>
			<g>
				<g>
					<circle cx="827.4" cy="477.1" r="5" style="fill:#383A48;"/>
				</g>
			</g>
			<g>
				<g>
					<circle cx="827.4" cy="501.7" r="5" style="fill:#383A48;"/>
				</g>
			</g>
			<g>
				<g>
					<circle cx="827.4" cy="526.4" r="5" style="fill:#383A48;"/>
				</g>
			</g>
			<g>
				<g>
					<circle cx="827.4" cy="551.1" r="5" style="fill:#383A48;"/>
				</g>
			</g>
			<g>
				<g>
					<circle cx="827.4" cy="575.7" r="5" style="fill:#383A48;"/>
				</g>
			</g>
			<g>
				<g>
					<circle cx="827.4" cy="600.4" r="5" style="fill:#383A48;"/>
				</g>
			</g>
			<g>
				<g>
					<circle cx="827.4" cy="625.1" r="5" style="fill:#383A48;"/>
				</g>
			</g>
			<g>
				<g>
					<circle cx="827.4" cy="649.7" r="5" style="fill:#383A48;"/>
				</g>
			</g>
			<g>
				<g>
					<circle cx="827.4" cy="674.4" r="5" style="fill:#383A48;"/>
				</g>
			</g>
			<g>
				<g>
					<circle cx="827.4" cy="699.1" r="5" style="fill:#383A48;"/>
				</g>
			</g>
			<g>
				<g>
					<circle cx="827.4" cy="723.7" r="5" style="fill:#383A48;"/>
				</g>
			</g>
			<g>
				<g>
					<circle cx="827.4" cy="748.4" r="5" style="fill:#383A48;"/>
				</g>
			</g>
			<g>
				<g>
					<circle cx="827.4" cy="773.1" r="5" style="fill:#383A48;"/>
				</g>
			</g>
			<g>
				<g>
					<circle cx="827.4" cy="797.7" r="5" style="fill:#383A48;"/>
				</g>
			</g>
			<g>
				<g>
					<circle cx="827.4" cy="822.4" r="5" style="fill:#383A48;"/>
				</g>
			</g>
			<g>
				<g>
					<circle cx="827.4" cy="847.1" r="5" style="fill:#383A48;"/>
				</g>
			</g>
			<g>
				<g>
					<circle cx="827.4" cy="871.7" r="5" style="fill:#383A48;"/>
				</g>
			</g>
			<g>
				<g>
					<circle cx="827.4" cy="896.4" r="5" style="fill:#383A48;"/>
				</g>
			</g>
			<g>
				<g>
					<circle cx="802.8" cy="501.7" r="5" style="fill:#383A48;"/>
				</g>
			</g>
			<g>
				<g>
					<circle cx="802.8" cy="526.4" r="5" style="fill:#383A48;"/>
				</g>
			</g>
			<g>
				<g>
					<circle cx="802.8" cy="551.1" r="5" style="fill:#383A48;"/>
				</g>
			</g>
			<g>
				<g>
					<circle cx="802.8" cy="575.7" r="5" style="fill:#383A48;"/>
				</g>
			</g>
			<g>
				<g>
					<circle cx="802.8" cy="600.4" r="5" style="fill:#383A48;"/>
				</g>
			</g>
			<g>
				<g>
					<circle cx="802.8" cy="625.1" r="5" style="fill:#383A48;"/>
				</g>
			</g>
			<g>
				<g>
					<circle cx="802.8" cy="649.7" r="5" style="fill:#383A48;"/>
				</g>
			</g>
			<g>
				<g>
					<circle cx="802.8" cy="674.4" r="5" style="fill:#383A48;"/>
				</g>
			</g>
			<g>
				<g>
					<circle cx="802.8" cy="699.1" r="5" style="fill:#383A48;"/>
				</g>
			</g>
			<g>
				<g>
					<circle cx="802.8" cy="723.7" r="5" style="fill:#383A48;"/>
				</g>
			</g>
			<g>
				<g>
					<circle cx="802.8" cy="748.4" r="5" style="fill:#383A48;"/>
				</g>
			</g>
			<g>
				<g>
					<circle cx="802.8" cy="773.1" r="5" style="fill:#383A48;"/>
				</g>
			</g>
			<g>
				<g>
					<circle cx="802.8" cy="797.7" r="5" style="fill:#383A48;"/>
				</g>
			</g>
			<g>
				<g>
					<circle cx="802.8" cy="822.4" r="5" style="fill:#383A48;"/>
				</g>
			</g>
			<g>
				<g>
					<circle cx="802.8" cy="847.1" r="5" style="fill:#383A48;"/>
				</g>
			</g>
			<g>
				<g>
					<circle cx="802.8" cy="871.7" r="5" style="fill:#383A48;"/>
				</g>
			</g>
			<g>
				<g>
					<circle cx="802.8" cy="896.4" r="5" style="fill:#383A48;"/>
				</g>
			</g>
			<g>
				<g>
					<circle cx="778.1" cy="526.4" r="5" style="fill:#383A48;"/>
				</g>
			</g>
			<g>
				<g>
					<circle cx="778.1" cy="551.1" r="5" style="fill:#383A48;"/>
				</g>
			</g>
			<g>
				<g>
					<circle cx="778.1" cy="575.7" r="5" style="fill:#383A48;"/>
				</g>
			</g>
			<g>
				<g>
					<circle cx="778.1" cy="600.4" r="5" style="fill:#383A48;"/>
				</g>
			</g>
			<g>
				<g>
					<circle cx="778.1" cy="625.1" r="5" style="fill:#383A48;"/>
				</g>
			</g>
			<g>
				<g>
					<circle cx="778.1" cy="649.7" r="5" style="fill:#383A48;"/>
				</g>
			</g>
			<g>
				<g>
					<circle cx="778.1" cy="674.4" r="5" style="fill:#383A48;"/>
				</g>
			</g>
			<g>
				<g>
					<circle cx="778.1" cy="699.1" r="5" style="fill:#383A48;"/>
				</g>
			</g>
			<g>
				<g>
					<circle cx="778.1" cy="723.7" r="5" style="fill:#383A48;"/>
				</g>
			</g>
			<g>
				<g>
					<circle cx="778.1" cy="748.4" r="5" style="fill:#383A48;"/>
				</g>
			</g>
			<g>
				<g>
					<circle cx="778.1" cy="773.1" r="5" style="fill:#383A48;"/>
				</g>
			</g>
			<g>
				<g>
					<circle cx="778.1" cy="797.7" r="5" style="fill:#383A48;"/>
				</g>
			</g>
			<g>
				<g>
					<circle cx="778.1" cy="822.4" r="5" style="fill:#383A48;"/>
				</g>
			</g>
			<g>
				<g>
					<circle cx="778.1" cy="847.1" r="5" style="fill:#383A48;"/>
				</g>
			</g>
			<g>
				<g>
					<circle cx="778.1" cy="871.7" r="5" style="fill:#383A48;"/>
				</g>
			</g>
			<g>
				<g>
					<circle cx="778.1" cy="896.4" r="5" style="fill:#383A48;"/>
				</g>
			</g>
			<g>
				<g>
					<circle cx="753.4" cy="575.7" r="5" style="fill:#383A48;"/>
				</g>
			</g>
			<g>
				<g>
					<circle cx="753.4" cy="600.4" r="5" style="fill:#383A48;"/>
				</g>
			</g>
			<g>
				<g>
					<circle cx="753.4" cy="625.1" r="5" style="fill:#383A48;"/>
				</g>
			</g>
			<g>
				<g>
					<circle cx="753.4" cy="649.7" r="5" style="fill:#383A48;"/>
				</g>
			</g>
			<g>
				<g>
					<circle cx="753.4" cy="674.4" r="5" style="fill:#383A48;"/>
				</g>
			</g>
			<g>
				<g>
					<circle cx="753.4" cy="699.1" r="5" style="fill:#383A48;"/>
				</g>
			</g>
			<g>
				<g>
					<circle cx="753.4" cy="723.7" r="5" style="fill:#383A48;"/>
				</g>
			</g>
			<g>
				<g>
					<circle cx="753.4" cy="748.4" r="5" style="fill:#383A48;"/>
				</g>
			</g>
			<g>
				<g>
					<circle cx="753.4" cy="773.1" r="5" style="fill:#383A48;"/>
				</g>
			</g>
			<g>
				<g>
					<circle cx="753.4" cy="797.7" r="5" style="fill:#383A48;"/>
				</g>
			</g>
			<g>
				<g>
					<circle cx="753.4" cy="822.4" r="5" style="fill:#383A48;"/>
				</g>
			</g>
			<g>
				<g>
					<circle cx="753.4" cy="847.1" r="5" style="fill:#383A48;"/>
				</g>
			</g>
			<g>
				<g>
					<circle cx="753.4" cy="871.7" r="5" style="fill:#383A48;"/>
				</g>
			</g>
			<g>
				<g>
					<circle cx="753.4" cy="896.4" r="5" style="fill:#383A48;"/>
				</g>
			</g>
			<g>
				<g>
					<circle cx="728.8" cy="600.4" r="5" style="fill:#383A48;"/>
				</g>
			</g>
			<g>
				<g>
					<circle cx="728.8" cy="625.1" r="5" style="fill:#383A48;"/>
				</g>
			</g>
			<g>
				<g>
					<circle cx="728.8" cy="649.7" r="5" style="fill:#383A48;"/>
				</g>
			</g>
			<g>
				<g>
					<circle cx="728.8" cy="674.4" r="5" style="fill:#383A48;"/>
				</g>
			</g>
			<g>
				<g>
					<circle cx="728.8" cy="699.1" r="5" style="fill:#383A48;"/>
				</g>
			</g>
			<g>
				<g>
					<circle cx="728.8" cy="723.7" r="5" style="fill:#383A48;"/>
				</g>
			</g>
			<g>
				<g>
					<circle cx="728.8" cy="748.4" r="5" style="fill:#383A48;"/>
				</g>
			</g>
			<g>
				<g>
					<circle cx="728.8" cy="773.1" r="5" style="fill:#383A48;"/>
				</g>
			</g>
			<g>
				<g>
					<circle cx="728.8" cy="797.7" r="5" style="fill:#383A48;"/>
				</g>
			</g>
			<g>
				<g>
					<circle cx="728.8" cy="822.4" r="5" style="fill:#383A48;"/>
				</g>
			</g>
			<g>
				<g>
					<circle cx="728.8" cy="847.1" r="5" style="fill:#383A48;"/>
				</g>
			</g>
			<g>
				<g>
					<circle cx="728.8" cy="871.7" r="5" style="fill:#383A48;"/>
				</g>
			</g>
			<g>
				<g>
					<circle cx="728.8" cy="896.4" r="5" style="fill:#383A48;"/>
				</g>
			</g>
			<g>
				<g>
					<circle cx="704.1" cy="625.1" r="5" style="fill:#383A48;"/>
				</g>
			</g>
			<g>
				<g>
					<circle cx="704.1" cy="649.7" r="5" style="fill:#383A48;"/>
				</g>
			</g>
			<g>
				<g>
					<circle cx="704.1" cy="674.4" r="5" style="fill:#383A48;"/>
				</g>
			</g>
			<g>
				<g>
					<circle cx="704.1" cy="699.1" r="5" style="fill:#383A48;"/>
				</g>
			</g>
			<g>
				<g>
					<circle cx="704.1" cy="723.7" r="5" style="fill:#383A48;"/>
				</g>
			</g>
			<g>
				<g>
					<circle cx="704.1" cy="748.4" r="5" style="fill:#383A48;"/>
				</g>
			</g>
			<g>
				<g>
					<circle cx="704.1" cy="773.1" r="5" style="fill:#383A48;"/>
				</g>
			</g>
			<g>
				<g>
					<circle cx="704.1" cy="797.7" r="5" style="fill:#383A48;"/>
				</g>
			</g>
			<g>
				<g>
					<circle cx="704.1" cy="822.4" r="5" style="fill:#383A48;"/>
				</g>
			</g>
			<g>
				<g>
					<circle cx="704.1" cy="847.1" r="5" style="fill:#383A48;"/>
				</g>
			</g>
			<g>
				<g>
					<circle cx="704.1" cy="871.7" r="5" style="fill:#383A48;"/>
				</g>
			</g>
			<g>
				<g>
					<circle cx="704.1" cy="896.4" r="5" style="fill:#383A48;"/>
				</g>
			</g>
			<g>
				<g>
					<circle cx="679.4" cy="674.4" r="5" style="fill:#383A48;"/>
				</g>
			</g>
			<g>
				<g>
					<circle cx="679.4" cy="699.1" r="5" style="fill:#383A48;"/>
				</g>
			</g>
			<g>
				<g>
					<circle cx="679.4" cy="723.7" r="5" style="fill:#383A48;"/>
				</g>
			</g>
			<g>
				<g>
					<circle cx="679.4" cy="748.4" r="5" style="fill:#383A48;"/>
				</g>
			</g>
			<g>
				<g>
					<circle cx="679.4" cy="773.1" r="5" style="fill:#383A48;"/>
				</g>
			</g>
			<g>
				<g>
					<circle cx="679.4" cy="797.7" r="5" style="fill:#383A48;"/>
				</g>
			</g>
			<g>
				<g>
					<circle cx="679.4" cy="822.4" r="5" style="fill:#383A48;"/>
				</g>
			</g>
			<g>
				<g>
					<circle cx="679.4" cy="847.1" r="5" style="fill:#383A48;"/>
				</g>
			</g>
			<g>
				<g>
					<circle cx="679.4" cy="871.7" r="5" style="fill:#383A48;"/>
				</g>
			</g>
			<g>
				<g>
					<circle cx="679.4" cy="896.4" r="5" style="fill:#383A48;"/>
				</g>
			</g>
			<g>
				<g>
					<circle cx="654.8" cy="699.1" r="5" style="fill:#383A48;"/>
				</g>
			</g>
			<g>
				<g>
					<circle cx="654.8" cy="723.7" r="5" style="fill:#383A48;"/>
				</g>
			</g>
			<g>
				<g>
					<circle cx="654.8" cy="748.4" r="5" style="fill:#383A48;"/>
				</g>
			</g>
			<g>
				<g>
					<circle cx="654.8" cy="773.1" r="5" style="fill:#383A48;"/>
				</g>
			</g>
			<g>
				<g>
					<circle cx="654.8" cy="797.7" r="5" style="fill:#383A48;"/>
				</g>
			</g>
			<g>
				<g>
					<circle cx="654.8" cy="822.4" r="5" style="fill:#383A48;"/>
				</g>
			</g>
			<g>
				<g>
					<circle cx="654.8" cy="847.1" r="5" style="fill:#383A48;"/>
				</g>
			</g>
			<g>
				<g>
					<circle cx="654.8" cy="871.7" r="5" style="fill:#383A48;"/>
				</g>
			</g>
			<g>
				<g>
					<circle cx="654.8" cy="896.4" r="5" style="fill:#383A48;"/>
				</g>
			</g>
			<g>
				<g>
					<circle cx="630.1" cy="748.4" r="5" style="fill:#383A48;"/>
				</g>
			</g>
			<g>
				<g>
					<circle cx="630.1" cy="773.1" r="5" style="fill:#383A48;"/>
				</g>
			</g>
			<g>
				<g>
					<circle cx="630.1" cy="797.7" r="5" style="fill:#383A48;"/>
				</g>
			</g>
			<g>
				<g>
					<circle cx="630.1" cy="822.4" r="5" style="fill:#383A48;"/>
				</g>
			</g>
			<g>
				<g>
					<circle cx="630.1" cy="847.1" r="5" style="fill:#383A48;"/>
				</g>
			</g>
			<g>
				<g>
					<circle cx="630.1" cy="871.7" r="5" style="fill:#383A48;"/>
				</g>
			</g>
		</g>
	</g>
	<g>
		<path d="M1168.2,193.5c-14.5-16.9-35.5-26.1-58.9-26.1H914.5c-49.4,0-95.7,41.6-103.3,92.8l-82.9,559.2
			c-3.8,26,2.6,50.2,18.1,68.2c14.5,16.9,35.5,26.1,58.9,26.1h194.8c49.4,0,95.7-41.6,103.3-92.8l82.9-559.2
			C1190.1,235.7,1183.7,211.5,1168.2,193.5z" style="fill:#383A48;"/>
		<g>
			<path d="M1073.4,172.4H878.7c-47.1,0-91.1,39.7-98.3,88.6l-82.9,559.2c-7.3,48.9,25,88.6,72.1,88.6h194.8
				c47.1,0,91.1-39.7,98.3-88.6l82.9-559.2C1152.8,212,1120.5,172.4,1073.4,172.4z" style="fill:#F3F6E6;"/>
			<path d="M964.2,913.7H769.5c-23.4,0-44.4-9.3-58.9-26.1c-15.5-18-22-42.2-18.1-68.2l82.9-559.2
				c7.6-51.2,53.9-92.8,103.3-92.8h194.8c23.4,0,44.4,9.3,58.9,26.1c15.5,18,22,42.2,18.1,68.2l-82.9,559.2
				C1059.9,872.1,1013.6,913.7,964.2,913.7z M878.7,177.4c-44.6,0-86.5,37.8-93.4,84.3l-82.9,559.2c-3.4,23,2.2,44.4,15.8,60.2
				c12.6,14.6,30.8,22.7,51.3,22.7h194.8c44.6,0,86.5-37.8,93.4-84.3l82.9-559.2c3.4-23-2.2-44.4-15.8-60.2
				c-12.6-14.6-30.8-22.7-51.3-22.7L878.7,177.4L878.7,177.4z" style="fill:#383A48;"/>
		</g>
		<path d="M1073.4,167.4H873c-2.8,0-5,2.2-5,5s2.2,5,5,5h15.5c2.7,0,5.1,1,6.7,2.9c1.8,2.1,2.5,5,2.1,8.2
			c-0.9,6,0.7,11.9,4.4,16.2c3.5,4.1,8.6,6.4,14.3,6.4h110.2c11.5,0,21.9-9.3,23.7-21.1c1-6.8,7.3-12.6,13.8-12.6h9.9
			c2.8,0,5-2.2,5-5C1078.4,169.6,1076.2,167.4,1073.4,167.4z" style="fill:#383A48;"/>
		<g>
			<g>
				<path d="M922.8,531.7L922.8,531.7c-24.3,0-41-20.5-37.3-45.8l0,0c3.8-25.3,26.5-45.8,50.8-45.8l0,0
					c24.3,0,41,20.5,37.3,45.8l0,0C969.9,511.2,947.1,531.7,922.8,531.7z" style="fill:#F6E049;"/>
				<path d="M922.8,536.7c-12.8,0-24.3-5.1-32.3-14.3c-8.5-9.9-12-23.1-9.9-37.2c4.1-27.6,29.1-50.1,55.8-50.1
					c12.8,0,24.3,5.1,32.3,14.3c8.5,9.9,12,23.1,9.9,37.2C974.5,514.2,949.4,536.7,922.8,536.7z M936.4,445.1
					c-21.9,0-42.5,18.6-45.9,41.5c-1.7,11.2,1,21.6,7.6,29.2c6.1,7,14.8,10.9,24.7,10.9c21.9,0,42.5-18.6,45.9-41.5
					c1.7-11.2-1-21.6-7.6-29.2C955,448.9,946.2,445.1,936.4,445.1z" style="fill:#383A48;"/>
			</g>
			<g>
				<g>
					<path d="M986.4,641l3.8-25.7c6.8-45.8-23.4-83-67.5-83l0,0c-44.1,0-85.3,37.1-92.1,83l-3.8,25.7" style="fill:#7FD6C2;"/>
				</g>
				<g>
					<path d="M831.7,641.7l-9.9-1.5l3.8-25.7c7.1-48.1,50.7-87.2,97.1-87.2c22.1,0,41.7,8.7,55.4,24.6
						c14.6,16.9,20.7,39.7,17,64.1l-3.8,25.7l-9.9-1.5l3.8-25.7c3.2-21.5-2-41.4-14.7-56.1c-11.8-13.6-28.7-21.1-47.8-21.1
						c-41.6,0-80.7,35.3-87.2,78.7L831.7,641.7z" style="fill:#383A48;"/>
				</g>
			</g>
		</g>
		<g>
			<path d="M951.1,884H791.4c-2.8,0-5-2.2-5-5s2.2-5,5-5H951c2.8,0,5,2.2,5,5S953.8,884,951.1,884z" style="fill:#383A48;"/>
		</g>
		<g>
			<polyline points="1008.1,365.3 1067.1,365.3 1058,426.6 			" style="fill:#F3F6E6;"/>
			<path d="M1058,431.6c-0.2,0-0.5,0-0.7-0.1c-2.7-0.4-4.6-2.9-4.2-5.7l8.2-55.5h-53.1c-2.8,0-5-2.2-5-5s2.2-5,5-5h58.9
				c1.5,0,2.8,0.6,3.8,1.7c0.9,1.1,1.4,2.6,1.2,4l-9.1,61.3C1062.6,429.8,1060.4,431.6,1058,431.6z" style="fill:#383A48;"/>
		</g>
		<g>
			<polyline points="957.3,708.1 1016.2,708.1 1025.3,646.8 			" style="fill:#F3F6E6;"/>
			<path d="M1016.2,713.1h-58.9c-2.8,0-5-2.2-5-5s2.2-5,5-5h54.6l8.5-57c0.4-2.7,2.9-4.6,5.7-4.2
				c2.7,0.4,4.6,2.9,4.2,5.7l-9.1,61.3C1020.8,711.3,1018.7,713.1,1016.2,713.1z" style="fill:#383A48;"/>
		</g>
		<g>
			<polyline points="886.7,365.3 827.8,365.3 818.7,426.6 			" style="fill:#F3F6E6;"/>
			<path d="M818.7,431.6c-0.2,0-0.5,0-0.7-0.1c-2.7-0.4-4.6-2.9-4.2-5.7l9.1-61.3c0.4-2.5,2.5-4.3,4.9-4.3h58.9
				c2.8,0,5,2.2,5,5s-2.2,5-5,5h-54.6l-8.5,57C823.3,429.8,821.2,431.6,818.7,431.6z" style="fill:#383A48;"/>
		</g>
		<g>
			<polyline points="835.9,708.1 777,708.1 786.1,646.8 			" style="fill:#F3F6E6;"/>
			<path d="M835.9,713.1H777c-1.5,0-2.8-0.6-3.8-1.7c-0.9-1.1-1.4-2.6-1.2-4l9.1-61.3c0.4-2.7,2.9-4.6,5.7-4.2
				c2.7,0.4,4.6,2.9,4.2,5.7l-8.2,55.5h53.1c2.8,0,5,2.2,5,5S838.7,713.1,835.9,713.1z" style="fill:#383A48;"/>
		</g>
	</g>
	<g>
		<path d="M1685.9,915.6H596.4c-2.8,0-5-2.2-5-5s2.2-5,5-5h1089.5c2.8,0,5,2.2,5,5S1688.6,915.6,1685.9,915.6z" style="fill:#383A48;"/>
	</g>
	<g>
		<polygon points="1506.3,647.3 1648.5,841.8 1562.6,910.7 1419.8,715.4 1333.3,844.3 1240,501.7 1182.4,289.8 
			1264.7,341.6 1654.5,586.6 		" style="fill:#F3F6E6;"/>
		<path d="M1562.6,915.7c-0.2,0-0.4,0-0.7,0c-1.4-0.2-2.6-0.9-3.4-2L1420,724.1l-82.6,123c-1.1,1.6-3,2.5-5,2.1
			c-1.9-0.3-3.5-1.7-4-3.6L1235.2,503l-57.7-211.8c-0.5-2,0.2-4.1,1.8-5.3c1.7-1.2,3.9-1.3,5.6-0.2l82.3,51.7l389.8,245
			c1.6,1,2.5,2.8,2.3,4.7s-1.4,3.5-3.1,4.2l-142.3,58.3l138.4,189.3c1.6,2.2,1.2,5.2-0.9,6.9l-85.8,68.9
			C1564.9,915.3,1563.8,915.7,1562.6,915.7z M1419.8,710.4c1.6,0,3.1,0.8,4,2l139.7,191.1l78-62.6l-139.4-190.6
			c-0.9-1.2-1.2-2.8-0.8-4.3c0.4-1.5,1.5-2.7,2.9-3.3l139.3-57l-381.6-239.8l-71.5-44.9l54.3,199.5l90.4,332.1l80.4-119.9
			c0.9-1.4,2.4-2.2,4.1-2.2C1419.8,710.4,1419.8,710.4,1419.8,710.4z" style="fill:#383A48;"/>
		<path d="M1267.4,337.4l-82.3-51.7c-1.7-1.1-4-1-5.6,0.2c-1.7,1.2-2.4,3.3-1.8,5.3l57.7,211.8c0.6,2.2,2.6,3.7,4.8,3.7
			c0.1,0,0.2,0,0.3,0c2.4-0.1,4.3-1.9,4.7-4.2l24.7-160.1C1270,340.4,1269.1,338.4,1267.4,337.4z" style="fill:#383A48;"/>
	</g>
	<path d="M687.8,169.5c-0.9-1.3-2.5-2.1-4.1-2.1H234.1c-2.8,0-5,2.2-5,5v168.2h5L359.5,414l0,0l2.2,4.5
		c23.8-11.6,49.1-21.7,76-32.4c49.6-19.8,101-40.2,145.7-72c51.1-36.2,85.4-82.1,105.1-140.1C689,172.5,688.8,170.8,687.8,169.5z" style="fill:#F3F6E6;"/>
	<g>
		<g>
			<circle cx="403.3" cy="528.6" r="169.2" style="fill:#F6E049;"/>
			<path d="M403.3,702.8c-96.1,0-174.2-78.1-174.2-174.2s78.1-174.2,174.2-174.2s174.2,78.1,174.2,174.2
				S499.4,702.8,403.3,702.8z M403.3,364.4c-90.5,0-164.2,73.7-164.2,164.2s73.7,164.2,164.2,164.2s164.2-73.7,164.2-164.2
				S493.9,364.4,403.3,364.4z" style="fill:#383A48;"/>
		</g>
		<g>
			<circle cx="349.3" cy="503.9" r="18.1" style="fill:#383A48;"/>
		</g>
		<g>
			<circle cx="457.4" cy="503.9" r="18.1" style="fill:#383A48;"/>
		</g>
		<g>
			<path d="M403.3,602.8c-25.3,0-48.5-14.9-59-37.9c-1.2-2.5,0-5.5,2.5-6.6c2.5-1.2,5.5,0,6.6,2.5
				c8.9,19.5,28.5,32,49.9,32s41-12.6,49.9-32c1.2-2.5,4.1-3.6,6.6-2.5c2.5,1.2,3.6,4.1,2.5,6.6
				C451.8,587.9,428.6,602.8,403.3,602.8z" style="fill:#383A48;"/>
		</g>
	</g>
	<g>
		<g>
			<circle cx="403.3" cy="434.6" r="169.2" style="fill:#F6E049;"/>
			<path d="M403.3,608.8c-96.1,0-174.2-78.1-174.2-174.2s78.1-174.2,174.2-174.2s174.2,78.1,174.2,174.2
				S499.4,608.8,403.3,608.8z M403.3,270.4c-90.5,0-164.2,73.7-164.2,164.2s73.7,164.2,164.2,164.2s164.2-73.7,164.2-164.2
				S493.9,270.4,403.3,270.4z" style="fill:#383A48;"/>
		</g>
		<g>
			<circle cx="349.3" cy="409.9" r="18.1" style="fill:#383A48;"/>
		</g>
		<g>
			<circle cx="457.4" cy="409.9" r="18.1" style="fill:#383A48;"/>
		</g>
		<g>
			<path d="M403.3,508.8c-25.3,0-48.5-14.9-59-37.9c-1.2-2.5,0-5.5,2.5-6.6c2.5-1.2,5.5,0,6.6,2.5
				c8.9,19.5,28.5,32,49.9,32s41-12.6,49.9-32c1.2-2.5,4.1-3.6,6.6-2.5c2.5,1.2,3.6,4.1,2.5,6.6
				C451.8,493.9,428.6,508.8,403.3,508.8z" style="fill:#383A48;"/>
		</g>
	</g>
	<g>
		<g>
			<circle cx="403.3" cy="340.6" r="169.2" style="fill:#F6E049;"/>
			<path d="M403.3,514.8c-96.1,0-174.2-78.1-174.2-174.2s78.1-174.2,174.2-174.2s174.2,78.1,174.2,174.2
				S499.4,514.8,403.3,514.8z M403.3,176.4c-90.5,0-164.2,73.7-164.2,164.2s73.7,164.2,164.2,164.2s164.2-73.7,164.2-164.2
				C567.6,250.1,493.9,176.4,403.3,176.4z" style="fill:#383A48;"/>
		</g>
		<g>
			<circle cx="349.3" cy="315.9" r="18.1" style="fill:#383A48;"/>
		</g>
		<g>
			<circle cx="457.4" cy="315.9" r="18.1" style="fill:#383A48;"/>
		</g>
		<g>
			<path d="M403.3,414.8c-25.3,0-48.5-14.9-59-37.9c-1.2-2.5,0-5.5,2.5-6.6c2.5-1.2,5.5,0,6.6,2.5
				c8.9,19.5,28.5,32,49.9,32s41-12.6,49.9-32c1.2-2.5,4.1-3.6,6.6-2.5c2.5,1.2,3.6,4.1,2.5,6.6
				C451.8,399.9,428.6,414.8,403.3,414.8z" style="fill:#383A48;"/>
		</g>
	</g>
	<g>
		<g>
			<path d="M1366.7,309.5c-0.9,0-1.8-0.2-2.7-0.8c-9.8-6.1-16.6-15.8-20.1-28c-12.5,2.2-24.2,0.2-34-5.9
				c-14.1-8.8-22.1-25.2-22.6-46c-0.5-20.1,6.2-42.1,18.7-62.1c1.5-2.3,4.6-3,6.9-1.6c2.3,1.5,3,4.6,1.6,6.9
				c-11.5,18.3-17.6,38.4-17.2,56.5c0.4,17.4,6.8,30.8,17.9,37.8c7.5,4.7,16.7,6.2,26.7,4.6c-0.3-2.6-0.5-5.2-0.6-8
				c-0.5-20,6-42,18.5-61.9c7.5-11.9,16.9-21.5,26.6-26.9c9.8-5.5,19.2-6.3,25.7-2.3c6.5,4.1,9.9,12.9,9.2,24.2
				c-0.7,11.1-5.1,23.7-12.6,35.7c-12.5,19.9-29.4,35.4-47.6,43.6c-2.5,1.1-5,2.1-7.5,2.9c2.8,9.5,8,17.2,15.7,22
				c2.3,1.5,3,4.6,1.6,6.9C1370,308.7,1368.4,309.5,1366.7,309.5z M1402.7,179.3c-3.2,0-7.1,1.2-11.3,3.6
				c-8.2,4.6-16.4,12.9-23,23.5c-13.2,21-18.7,43.6-16.7,62c1.8-0.6,3.5-1.3,5.3-2.1c16.4-7.4,31.8-21.6,43.3-39.8
				c6.6-10.5,10.5-21.5,11.1-30.9c0.4-7.3-1.3-13.1-4.5-15.1C1405.8,179.6,1404.3,179.3,1402.7,179.3z" style="fill:#383A48;"/>
		</g>
		<g>
			<path d="M1474.9,377.3c-0.9,0-1.8-0.2-2.7-0.8c-9.8-6.1-16.6-15.8-20.1-28c-12.5,2.2-24.2,0.2-34-5.9
				c-2.3-1.5-3-4.6-1.6-6.9c1.5-2.3,4.6-3,6.9-1.6c7.5,4.7,16.7,6.2,26.7,4.6c-0.3-2.6-0.5-5.2-0.6-8c-0.5-20,6-42,18.5-61.9
				c17.5-27.8,40.3-36.7,52.4-29.1c12,7.5,14,31.9-3.5,59.8c-12.5,19.9-29.4,35.4-47.6,43.6c-2.5,1.1-5,2.1-7.5,2.9
				c2.8,9.7,8.2,17.3,15.7,22c2.3,1.5,3,4.6,1.6,6.9C1478.2,376.5,1476.6,377.3,1474.9,377.3z M1510.8,247.1
				c-8.4,0-22.6,8.6-34.2,27c-11.5,18.3-17.5,38.3-17,56.3c0.1,2,0.2,3.9,0.4,5.7c1.8-0.6,3.5-1.3,5.3-2.1
				c16.4-7.4,31.8-21.6,43.3-39.8c14-22.3,13.3-41.8,6.6-46C1514,247.5,1512.5,247.1,1510.8,247.1z" style="fill:#383A48;"/>
		</g>
		<g>
			<path d="M1420.8,343.4c-0.9,0-1.8-0.2-2.7-0.8c-9.8-6.1-16.6-15.8-20.1-28c-12.5,2.2-24.2,0.2-34-5.9
				c-2.3-1.5-3-4.6-1.6-6.9c1.5-2.3,4.6-3,6.9-1.6c7.7,4.8,16.9,6.2,26.7,4.6c-0.3-2.6-0.5-5.3-0.6-8c-0.5-20,6-42,18.5-61.9
				c17.5-27.8,40.3-36.7,52.3-29.2s14,32-3.4,59.8c-12.5,19.9-29.4,35.4-47.6,43.6c-2.5,1.1-5,2.1-7.5,2.9c2.8,9.7,8.2,17.3,15.7,22
				c2.3,1.5,3,4.6,1.6,6.9C1424.1,342.6,1422.5,343.4,1420.8,343.4z M1456.7,213.2c-8.3,0-22.6,8.6-34.2,27.1
				c-11.5,18.3-17.5,38.3-17,56.3c0.1,2,0.2,3.9,0.4,5.7c17.4-6.2,35.4-21,48.6-42c14-22.3,13.3-41.8,6.6-46
				C1459.8,213.5,1458.4,213.2,1456.7,213.2z" style="fill:#383A48;"/>
		</g>
		<g>
			<path d="M1529.1,411.3c-0.9,0-1.8-0.2-2.7-0.8c-9.8-6.1-16.6-15.8-20.1-28c-12.5,2.2-24.2,0.2-34-5.9
				c-2.3-1.5-3-4.6-1.6-6.9c1.5-2.3,4.6-3,6.9-1.6c7.7,4.8,16.9,6.2,26.7,4.6c-0.3-2.6-0.5-5.3-0.6-8c-0.5-20,6-42,18.5-61.9
				c17.5-27.8,40.3-36.7,52.3-29.2c6.5,4.1,9.9,12.9,9.2,24.2c-0.7,11.1-5.1,23.7-12.6,35.7c-12.5,19.9-29.4,35.4-47.6,43.6
				c-2.5,1.1-5,2.1-7.5,2.9c2.8,9.7,8.2,17.3,15.7,22c2.3,1.5,3,4.6,1.6,6.9C1532.4,410.5,1530.7,411.3,1529.1,411.3z M1564.9,281.1
				c-8.3,0-22.6,8.6-34.2,27.1c-11.5,18.3-17.5,38.3-17,56.3c0.1,2,0.2,3.9,0.4,5.7c17.4-6.2,35.4-21,48.6-42
				c6.6-10.5,10.5-21.5,11.1-30.9c0.4-7.3-1.3-13.1-4.5-15.1C1568.1,281.4,1566.6,281.1,1564.9,281.1z" style="fill:#383A48;"/>
		</g>
		<g>
			<path d="M1550.7,417.3c-8.9,0-17.1-2.3-24.3-6.8c-2.3-1.5-3-4.6-1.6-6.9c1.5-2.3,4.6-3,6.9-1.6
				c23.7,14.9,61.8-3.1,85-40c1.5-2.3,4.6-3,6.9-1.6c2.3,1.5,3,4.6,1.6,6.9c-12.5,19.9-29.4,35.4-47.6,43.6
				C1568.3,415.2,1559.2,417.3,1550.7,417.3z" style="fill:#383A48;"/>
		</g>
	</g>
	<g>
		<g>
			<path d="M677.3,428.7c-2.8,0-5-2.2-5-5v-18c0-2.8,2.2-5,5-5s5,2.2,5,5v18C682.3,426.5,680,428.7,677.3,428.7z" style="fill:#383A48;"/>
		</g>
		<g>
			<path d="M677.3,493.4c-2.8,0-5-2.2-5-5v-18c0-2.8,2.2-5,5-5s5,2.2,5,5v18C682.3,491.1,680,493.4,677.3,493.4z" style="fill:#383A48;"/>
		</g>
		<g>
			<path d="M654,452h-18c-2.8,0-5-2.2-5-5s2.2-5,5-5h18c2.8,0,5,2.2,5,5S656.7,452,654,452z" style="fill:#383A48;"/>
		</g>
		<g>
			<path d="M718.6,452h-18c-2.8,0-5-2.2-5-5s2.2-5,5-5h18c2.8,0,5,2.2,5,5S721.4,452,718.6,452z" style="fill:#383A48;"/>
		</g>
		<g>
			<path d="M660.8,435.6c-1.3,0-2.6-0.5-3.5-1.5l-12.7-12.7c-2-2-2-5.1,0-7.1s5.1-2,7.1,0l12.7,12.7c2,2,2,5.1,0,7.1
				C663.4,435.1,662.1,435.6,660.8,435.6z" style="fill:#383A48;"/>
		</g>
		<g>
			<path d="M706.5,481.3c-1.3,0-2.6-0.5-3.5-1.5l-12.7-12.7c-2-2-2-5.1,0-7.1s5.1-2,7.1,0l12.7,12.7c2,2,2,5.1,0,7.1
				C709.1,480.8,707.8,481.3,706.5,481.3z" style="fill:#383A48;"/>
		</g>
		<g>
			<path d="M648,481.3c-1.3,0-2.6-0.5-3.5-1.5c-2-2-2-5.1,0-7.1l12.7-12.7c2-2,5.1-2,7.1,0s2,5.1,0,7.1l-12.7,12.7
				C650.6,480.8,649.3,481.3,648,481.3z" style="fill:#383A48;"/>
		</g>
		<g>
			<path d="M693.8,435.6c-1.3,0-2.6-0.5-3.5-1.5c-2-2-2-5.1,0-7.1l12.7-12.7c2-2,5.1-2,7.1,0s2,5.1,0,7.1l-12.7,12.7
				C696.3,435.1,695,435.6,693.8,435.6z" style="fill:#383A48;"/>
		</g>
	</g>
	<path d="M1218.9,747.6c-12,0-13.3-11.4-13.3-16.3c0-2.8-2.2-5-5-5s-5,2.2-5,5c0,4.9-1.3,16.3-13.3,16.3
		c-2.8,0-5,2.2-5,5s2.2,5,5,5c12,0,13.3,11.4,13.3,16.3c0,2.8,2.2,5,5,5s5-2.2,5-5c0-4.9,1.3-16.3,13.3-16.3c2.8,0,5-2.2,5-5
		S1221.6,747.6,1218.9,747.6z" style="fill:#383A48;"/>
	<path d="M738.7,271.1c-12,0-13.3-11.4-13.3-16.3c0-2.8-2.2-5-5-5s-5,2.2-5,5c0,4.9-1.3,16.3-13.3,16.3
		c-2.8,0-5,2.2-5,5s2.2,5,5,5c12,0,13.3,11.4,13.3,16.3c0,2.8,2.2,5,5,5s5-2.2,5-5c0-4.9,1.3-16.3,13.3-16.3c2.8,0,5-2.2,5-5
		S741.4,271.1,738.7,271.1z" style="fill:#383A48;"/>
	<path d="M403.9,787c-12,0-13.3-11.4-13.3-16.3c0-2.8-2.2-5-5-5s-5,2.2-5,5c0,4.9-1.3,16.3-13.3,16.3c-2.8,0-5,2.2-5,5
		s2.2,5,5,5c12,0,13.3,11.4,13.3,16.3c0,2.8,2.2,5,5,5s5-2.2,5-5c0-4.9,1.3-16.3,13.3-16.3c2.8,0,5-2.2,5-5S406.7,787,403.9,787z" style="fill:#383A48;"/>
</g>
</svg>
