<?xml version="1.0" encoding="utf-8"?>
<!-- Generator: Adobe Illustrator 22.0.1, SVG Export Plug-In . SVG Version: 6.00 Build 0)  -->
<svg version="1.1" id="Layer_1" xmlns="http://www.w3.org/2000/svg" xmlns:xlink="http://www.w3.org/1999/xlink" x="0px" y="0px" viewBox="0 0 1920 1080" style="enable-background:new 0 0 1920 1080;" xml:space="preserve">

<rect y="0" width="1920" height="1080" style="fill:#7FD6C2;"/>
<g>
	<path d="M762.4,133.5H325.8c-39.1,0-70.9,31.8-70.9,70.9v48.5c0,1.9,1.1,3.7,2.9,4.5c4.8,2.3,8.4,8,9.1,14.5
		c1.8,17.5,2.8,35.9,3,56.5c0.1,14.4-1.9,15.7-4.4,17.3c-5.3,3.4-9.4,7.4-10.3,25.3c-0.3,5.1,5.3,6.2,9.4,7
		c3.4,0.7,8.2,1.4,14.8,2.3c12,1.6,28.3,3.3,44,5c23.2,2.5,54.7,5.9,60.6,7.8c0.7,0.6,1.5,1,2.5,1.2c0.3,0,0.6,0.1,0.8,0.1
		c2.1,0,4.1-1.4,4.8-3.5c25.2-78.6,64.8-81.8,106.7-85.1c22.4-1.8,45.6-3.6,67.1-16.8c34.5-21.2,46-48.5,56.1-72.5
		c8.2-19.4,16-37.8,34.8-50.9c21.5-15.1,55.1-22.1,105.5-22.1c2.8,0,5-2.2,5-5S765.2,133.5,762.4,133.5z" style="fill:#F3F6E6;"/>
	<path d="M1705,133.7c-2.2-0.6-4.5,0.4-5.6,2.4c-0.1,0.2-10.7,18.9-31.6,48.5c-51.5,73-164.2,210.5-339.7,310.9
		c-91.9,52.6-190,88.5-291.6,106.7c-117.1,21-161.1,79.8-207.7,142.1c-28.4,37.9-57.8,77.2-105.6,111.5
		c-54.4,39-125.2,65.4-216.4,80.8c-2.6,0.4-4.4,2.8-4.2,5.3c0.2,2.6,2.4,4.6,5,4.6h1196.2c2.8,0,5-2.2,5-5v-803
		C1708.7,136.3,1707.2,134.3,1705,133.7z" style="fill:#F3F6E6;"/>
	<g>
		<g>
			<g>
				<g>
					<circle cx="1697.9" cy="494.8" r="5" style="fill:#383A48;"/>
				</g>
			</g>
			<g>
				<g>
					<circle cx="1697.9" cy="519.5" r="5" style="fill:#383A48;"/>
				</g>
			</g>
			<g>
				<g>
					<circle cx="1697.9" cy="544.2" r="5" style="fill:#383A48;"/>
				</g>
			</g>
			<g>
				<g>
					<circle cx="1673.2" cy="494.8" r="5" style="fill:#383A48;"/>
				</g>
			</g>
			<g>
				<g>
					<circle cx="1673.2" cy="519.5" r="5" style="fill:#383A48;"/>
				</g>
			</g>
			<g>
				<g>
					<circle cx="1673.2" cy="544.2" r="5" style="fill:#383A48;"/>
				</g>
			</g>
			<g>
				<g>
					<circle cx="1648.6" cy="494.8" r="5" style="fill:#383A48;"/>
				</g>
			</g>
			<g>
				<g>
					<circle cx="1648.6" cy="519.5" r="5" style="fill:#383A48;"/>
				</g>
			</g>
			<g>
				<g>
					<circle cx="1648.6" cy="544.2" r="5" style="fill:#383A48;"/>
				</g>
			</g>
			<g>
				<g>
					<circle cx="1623.9" cy="494.8" r="5" style="fill:#383A48;"/>
				</g>
			</g>
			<g>
				<g>
					<circle cx="1623.9" cy="519.5" r="5" style="fill:#383A48;"/>
				</g>
			</g>
			<g>
				<g>
					<circle cx="1623.9" cy="544.2" r="5" style="fill:#383A48;"/>
				</g>
			</g>
			<g>
				<g>
					<circle cx="1599.2" cy="494.8" r="5" style="fill:#383A48;"/>
				</g>
			</g>
			<g>
				<g>
					<circle cx="1599.2" cy="519.5" r="5" style="fill:#383A48;"/>
				</g>
			</g>
			<g>
				<g>
					<circle cx="1599.2" cy="544.2" r="5" style="fill:#383A48;"/>
				</g>
			</g>
			<g>
				<g>
					<circle cx="1574.6" cy="494.8" r="5" style="fill:#383A48;"/>
				</g>
			</g>
			<g>
				<g>
					<circle cx="1574.6" cy="519.5" r="5" style="fill:#383A48;"/>
				</g>
			</g>
			<g>
				<g>
					<circle cx="1574.6" cy="544.2" r="5" style="fill:#383A48;"/>
				</g>
			</g>
			<g>
				<g>
					<circle cx="1549.9" cy="494.8" r="5" style="fill:#383A48;"/>
				</g>
			</g>
			<g>
				<g>
					<circle cx="1549.9" cy="519.5" r="5" style="fill:#383A48;"/>
				</g>
			</g>
			<g>
				<g>
					<circle cx="1549.9" cy="544.2" r="5" style="fill:#383A48;"/>
				</g>
			</g>
			<g>
				<g>
					<circle cx="1525.2" cy="494.8" r="5" style="fill:#383A48;"/>
				</g>
			</g>
			<g>
				<g>
					<circle cx="1525.2" cy="519.5" r="5" style="fill:#383A48;"/>
				</g>
			</g>
			<g>
				<g>
					<circle cx="1525.2" cy="544.2" r="5" style="fill:#383A48;"/>
				</g>
			</g>
			<g>
				<g>
					<circle cx="1500.6" cy="494.8" r="5" style="fill:#383A48;"/>
				</g>
			</g>
			<g>
				<g>
					<circle cx="1500.6" cy="519.5" r="5" style="fill:#383A48;"/>
				</g>
			</g>
			<g>
				<g>
					<circle cx="1500.6" cy="544.2" r="5" style="fill:#383A48;"/>
				</g>
			</g>
			<g>
				<g>
					<circle cx="1475.9" cy="494.8" r="5" style="fill:#383A48;"/>
				</g>
			</g>
			<g>
				<g>
					<circle cx="1475.9" cy="519.5" r="5" style="fill:#383A48;"/>
				</g>
			</g>
			<g>
				<g>
					<circle cx="1475.9" cy="544.2" r="5" style="fill:#383A48;"/>
				</g>
			</g>
			<g>
				<g>
					<circle cx="1451.2" cy="494.8" r="5" style="fill:#383A48;"/>
				</g>
			</g>
			<g>
				<g>
					<circle cx="1451.2" cy="519.5" r="5" style="fill:#383A48;"/>
				</g>
			</g>
			<g>
				<g>
					<circle cx="1451.2" cy="544.2" r="5" style="fill:#383A48;"/>
				</g>
			</g>
			<g>
				<g>
					<circle cx="1426.6" cy="494.8" r="5" style="fill:#383A48;"/>
				</g>
			</g>
			<g>
				<g>
					<circle cx="1426.6" cy="519.5" r="5" style="fill:#383A48;"/>
				</g>
			</g>
			<g>
				<g>
					<circle cx="1426.6" cy="544.2" r="5" style="fill:#383A48;"/>
				</g>
			</g>
			<g>
				<g>
					<circle cx="1401.9" cy="494.8" r="5" style="fill:#383A48;"/>
				</g>
			</g>
			<g>
				<g>
					<circle cx="1401.9" cy="519.5" r="5" style="fill:#383A48;"/>
				</g>
			</g>
			<g>
				<g>
					<circle cx="1401.9" cy="544.2" r="5" style="fill:#383A48;"/>
				</g>
			</g>
			<g>
				<g>
					<circle cx="1377.2" cy="494.8" r="5" style="fill:#383A48;"/>
				</g>
			</g>
			<g>
				<g>
					<circle cx="1377.2" cy="519.5" r="5" style="fill:#383A48;"/>
				</g>
			</g>
			<g>
				<g>
					<circle cx="1377.2" cy="544.2" r="5" style="fill:#383A48;"/>
				</g>
			</g>
			<g>
				<g>
					<circle cx="1352.6" cy="494.8" r="5" style="fill:#383A48;"/>
				</g>
			</g>
			<g>
				<g>
					<circle cx="1352.6" cy="519.5" r="5" style="fill:#383A48;"/>
				</g>
			</g>
			<g>
				<g>
					<circle cx="1352.6" cy="544.2" r="5" style="fill:#383A48;"/>
				</g>
			</g>
		</g>
	</g>
	<g>
		<g>
			<path d="M1327.3,515.2c-47.7-47.7-111.2-74-178.6-74c-67.5,0-130.9,26.3-178.6,74c-47.7,47.7-74,111.2-74,178.6
				c0,67.5,26.3,130.9,74,178.6c47.7,47.7,111.2,74,178.6,74c67.5,0,130.9-26.3,178.6-74s74-111.2,74-178.6S1375,562.9,1327.3,515.2
				z M1357.9,693.8c0,115.4-93.9,209.3-209.3,209.3s-209.3-93.9-209.3-209.3s93.9-209.3,209.3-209.3
				C1264,484.6,1357.9,578.5,1357.9,693.8z" style="fill:#383A48;"/>
			<path d="M1150.6,649.9c-24.2,0-43.9,19.7-43.9,43.9s19.7,43.9,43.9,43.9c24.2,0,43.9-19.7,43.9-43.9
				C1194.6,669.6,1174.9,649.9,1150.6,649.9z" style="fill:#383A48;"/>
			<path d="M493.4,441.2c-67.5,0-130.9,26.3-178.6,74s-74,111.2-74,178.6c0,67.5,26.3,130.9,74,178.6
				c47.7,47.7,111.2,74,178.6,74c67.5,0,130.9-26.3,178.6-74s74-111.2,74-178.6c0-67.5-26.3-130.9-74-178.6S560.9,441.2,493.4,441.2
				z M702.7,693.8c0,115.4-93.9,209.3-209.3,209.3s-209.3-93.9-209.3-209.3S378,484.5,493.4,484.5S702.7,578.5,702.7,693.8z" style="fill:#383A48;"/>
			<circle cx="495.4" cy="693.8" r="43.9" style="fill:#383A48;"/>
			<path d="M889.1,799.5h-39.9l-17.7-55.4c24-8,41.3-30.7,41.3-57.4c0-33.4-27.1-60.5-60.5-60.5S752,653.4,752,686.8
				s27.1,60.5,60.5,60.5c3.2,0,6.4-0.3,9.4-0.7l16.9,53h-29.6c-2.8,0-5,2.2-5,5v22c0,2.8,2.2,5,5,5h80c2.8,0,5-2.2,5-5v-22
				C894.1,801.7,891.9,799.5,889.1,799.5z" style="fill:#383A48;"/>
			<path d="M731.3,314.5h-164l14,42.6h150c11.8,0,21.3-9.6,21.3-21.3S743,314.5,731.3,314.5z" style="fill:#383A48;"/>
		</g>
		<g>
			<g>
				<path d="M1162.8,446.2c-136.8,0-247.6,110.9-247.6,247.6c0,136.8,110.9,247.6,247.6,247.6
					c136.8,0,247.6-110.9,247.6-247.6S1299.6,446.2,1162.8,446.2z M1162.8,908.1c-118.3,0-214.3-95.9-214.3-214.3
					c0-118.3,95.9-214.3,214.3-214.3s214.3,95.9,214.3,214.3C1377.1,812.2,1281.1,908.1,1162.8,908.1z" style="fill:#F6E049;"/>
				<path d="M1162.8,946.5c-67.5,0-130.9-26.3-178.6-74c-47.7-47.7-74-111.2-74-178.6c0-67.5,26.3-130.9,74-178.6
					c47.7-47.7,111.2-74,178.6-74c67.5,0,130.9,26.3,178.6,74s74,111.2,74,178.6c0,67.5-26.3,130.9-74,178.6
					C1293.7,920.2,1230.3,946.5,1162.8,946.5z M1162.8,451.2c-64.8,0-125.7,25.2-171.6,71.1c-45.8,45.8-71.1,106.8-71.1,171.6
					s25.2,125.7,71.1,171.6c45.8,45.8,106.8,71.1,171.6,71.1c64.8,0,125.7-25.2,171.6-71.1c45.8-45.8,71.1-106.8,71.1-171.6
					s-25.2-125.7-71.1-171.6S1227.6,451.2,1162.8,451.2z M1162.8,913.1c-58.6,0-113.6-22.8-155-64.2s-64.2-96.5-64.2-155
					c0-58.6,22.8-113.6,64.2-155s96.5-64.2,155-64.2s113.6,22.8,155,64.2s64.2,96.5,64.2,155c0,58.6-22.8,113.6-64.2,155
					C1276.4,890.3,1221.4,913.1,1162.8,913.1z M1162.8,484.6c-115.4,0-209.3,93.9-209.3,209.3s93.9,209.3,209.3,209.3
					s209.3-93.9,209.3-209.3C1372.1,578.5,1278.2,484.6,1162.8,484.6z" style="fill:#383A48;"/>
			</g>
			<g>
				<g>
					<circle cx="1162.8" cy="693.8" r="38.9" style="fill:#7FD6C2;"/>
				</g>
				<g>
					<path d="M1162.8,737.8c-24.2,0-43.9-19.7-43.9-43.9s19.7-43.9,43.9-43.9c24.2,0,43.9,19.7,43.9,43.9
						C1206.7,718.1,1187,737.8,1162.8,737.8z M1162.8,659.9c-18.7,0-33.9,15.2-33.9,33.9s15.2,33.9,33.9,33.9
						c18.7,0,33.9-15.2,33.9-33.9S1181.5,659.9,1162.8,659.9z" style="fill:#383A48;"/>
				</g>
			</g>
		</g>
		<g>
			<g>
				<path d="M507.5,446.2c-136.8,0-247.6,110.9-247.6,247.6c0,136.8,110.9,247.6,247.6,247.6
					c136.8,0,247.6-110.9,247.6-247.6C755.2,557.1,644.3,446.2,507.5,446.2z M507.5,908.1c-118.3,0-214.3-95.9-214.3-214.3
					c0-118.3,95.9-214.3,214.3-214.3s214.3,95.9,214.3,214.3S625.9,908.1,507.5,908.1z" style="fill:#F6E049;"/>
				<path d="M507.6,946.5c-67.5,0-130.9-26.3-178.6-74s-74-111.2-74-178.6c0-67.5,26.3-130.9,74-178.6
					c47.7-47.7,111.2-74,178.6-74c67.5,0,130.9,26.3,178.6,74s74,111.2,74,178.6c0,67.5-26.3,130.9-74,178.6
					C638.5,920.2,575,946.5,507.6,946.5z M507.6,451.2c-64.8,0-125.7,25.2-171.6,71.1c-45.8,45.8-71.1,106.8-71.1,171.6
					s25.2,125.7,71.1,171.6c45.8,45.8,106.8,71.1,171.6,71.1s125.7-25.2,171.6-71.1c45.8-45.8,71.1-106.8,71.1-171.6
					s-25.2-125.7-71.1-171.6S572.4,451.2,507.6,451.2z M507.6,913.1c-58.6,0-113.6-22.8-155-64.2s-64.2-96.5-64.2-155
					c0-58.6,22.8-113.6,64.2-155s96.5-64.2,155-64.2s113.6,22.8,155,64.2s64.2,96.5,64.2,155c0,58.6-22.8,113.6-64.2,155
					S566.1,913.1,507.6,913.1z M507.6,484.6c-115.4,0-209.3,93.9-209.3,209.3s93.9,209.3,209.3,209.3s209.3-93.9,209.3-209.3
					C716.8,578.5,622.9,484.6,507.6,484.6z" style="fill:#383A48;"/>
			</g>
		</g>
		<g>
			<line x1="826.9" y1="686.8" x2="674.8" y2="352.1" style="fill:none;"/>
			<path d="M826.9,691.8c-1.9,0-3.7-1.1-4.6-2.9L670.2,354.2c-1.1-2.5,0-5.5,2.5-6.6s5.5,0,6.6,2.5l152.1,334.6
				c1.1,2.5,0,5.5-2.5,6.6C828.3,691.6,827.6,691.8,826.9,691.8z" style="fill:#383A48;"/>
		</g>
		<g>
			<path d="M507.6,698.8c-1.8,0-3.4-0.9-4.3-2.5s-0.9-3.5,0.1-5.1l184.2-304.3c0.9-1.5,2.5-2.4,4.3-2.4H1061
				c1.9,0,3.7,1.1,4.5,2.8c0.8,1.7,0.6,3.8-0.6,5.3L830.8,689.9c-0.9,1.2-2.3,1.9-3.8,1.9l-319.4,7.1
				C507.6,698.8,507.6,698.8,507.6,698.8z M694.6,394.5l-178,294.1l307.9-6.8l226.2-287.3H694.6z" style="fill:#383A48;"/>
		</g>
		<g>
			<path d="M1162.8,698.8c-2.1,0-4.1-1.3-4.8-3.4l-120.9-368.6c-5.4-16.2-3.1-33.7,6.2-48.1s24.4-23.6,41.4-25.3l25-2.5
				c25.3-2.6,49.2,12.2,58.1,36c6.2,16.4,4.4,34.4-4.8,49.3s-24.5,24.5-42,26.3l-4.5,0.5c-2.7,0.3-5.2-1.7-5.5-4.5
				c-0.3-2.7,1.7-5.2,4.5-5.5l4.5-0.5c14.3-1.5,26.9-9.3,34.5-21.6c7.6-12.3,9-27,3.9-40.5c-7.4-19.5-27-31.7-47.8-29.6l-25,2.5
				c-14,1.4-26.4,9-34,20.8s-9.5,26.2-5.1,39.5l120.9,368.6c0.9,2.6-0.6,5.4-3.2,6.3C1163.8,698.8,1163.3,698.8,1162.8,698.8z" style="fill:#383A48;"/>
		</g>
		<g>
			<g>
				<circle cx="826.9" cy="686.8" r="55.5" style="fill:#7FD6C2;"/>
			</g>
			<g>
				<path d="M826.9,747.3c-33.4,0-60.5-27.1-60.5-60.5s27.1-60.5,60.5-60.5s60.5,27.1,60.5,60.5
					S860.3,747.3,826.9,747.3z M826.9,636.3c-27.8,0-50.5,22.7-50.5,50.5s22.7,50.5,50.5,50.5s50.5-22.7,50.5-50.5
					S854.8,636.3,826.9,636.3z" style="fill:#383A48;"/>
			</g>
		</g>
		<g>
			<path d="M868,820.5c-2.1,0-4.1-1.4-4.8-3.5l-41.1-128.7c-0.8-2.6,0.6-5.4,3.2-6.3c2.6-0.8,5.4,0.6,6.3,3.2L872.7,814
				c0.8,2.6-0.6,5.4-3.2,6.3C869,820.4,868.5,820.5,868,820.5z" style="fill:#383A48;"/>
		</g>
		<g>
			<rect x="828" y="804.5" width="80" height="22" style="fill:#383A48;"/>
			<path d="M908,831.5h-80c-2.8,0-5-2.2-5-5v-22c0-2.8,2.2-5,5-5h80c2.8,0,5,2.2,5,5v22
				C913,829.3,910.7,831.5,908,831.5z M833,821.5h70v-12h-70V821.5z" style="fill:#383A48;"/>
		</g>
		<g>
			<path d="M750.1,352.1H603.7L593,319.5h157.1c9,0,16.3,7.3,16.3,16.3l0,0C766.4,344.8,759.1,352.1,750.1,352.1z" style="fill:#F6E049;"/>
			<path d="M750.1,357.1H603.7c-2.2,0-4.1-1.4-4.8-3.4l-10.7-32.6c-0.5-1.5-0.2-3.2,0.7-4.5s2.4-2.1,4-2.1H750
				c11.8,0,21.3,9.6,21.3,21.3S761.8,357.1,750.1,357.1z M607.4,347.1h142.7c6.2,0,11.3-5.1,11.3-11.3c0-6.2-5.1-11.3-11.3-11.3
				H599.9L607.4,347.1z" style="fill:#383A48;"/>
		</g>
		<g>
			<g>
				<circle cx="507.6" cy="693.8" r="38.9" style="fill:#7FD6C2;"/>
			</g>
			<g>
				<path d="M507.6,737.8c-24.2,0-43.9-19.7-43.9-43.9s19.7-43.9,43.9-43.9s43.9,19.7,43.9,43.9
					S531.8,737.8,507.6,737.8z M507.6,659.9c-18.7,0-33.9,15.2-33.9,33.9s15.2,33.9,33.9,33.9s33.9-15.2,33.9-33.9
					S526.3,659.9,507.6,659.9z" style="fill:#383A48;"/>
			</g>
		</g>
	</g>
	<g>
		<path d="M1475.7,946.5H259.9c-2.8,0-5-2.2-5-5s2.2-5,5-5h1215.8c2.8,0,5,2.2,5,5S1478.5,946.5,1475.7,946.5z" style="fill:#383A48;"/>
	</g>
	<g>
		<g>
			<rect x="1330.6" y="138.5" width="373.2" height="373.2" style="fill:#F3F6E6;"/>
			<path d="M1703.7,516.7h-373.2c-2.8,0-5-2.2-5-5V138.5c0-2.8,2.2-5,5-5h373.2c2.8,0,5,2.2,5,5v373.2
				C1708.7,514.5,1706.5,516.7,1703.7,516.7z M1335.6,506.7h363.2V143.5h-363.2L1335.6,506.7L1335.6,506.7z" style="fill:#383A48;"/>
		</g>
		<g>
			<rect x="1330.6" y="138.5" width="373.2" height="107.3" style="fill:#AAC6FC;"/>
			<path d="M1703.7,250.8h-373.2c-2.8,0-5-2.2-5-5V138.5c0-2.8,2.2-5,5-5h373.2c2.8,0,5,2.2,5,5v107.3
				C1708.7,248.5,1706.5,250.8,1703.7,250.8z M1335.6,240.8h363.2v-97.3h-363.2L1335.6,240.8L1335.6,240.8z" style="fill:#383A48;"/>
		</g>
		<g>
			<polygon points="1415,192.2 1406.2,192.2 1406.2,215.5 1398.4,215.5 1398.4,198.7 1379.1,198.7 1379.1,215.5 
				1371.6,215.5 1371.6,192.2 1362.8,192.2 1388.9,168.8 			" style="fill:#383A48;"/>
			<path d="M1406.2,220.5h-7.9c-2.8,0-5-2.2-5-5v-11.7h-9.2v11.7c0,2.8-2.2,5-5,5h-7.5c-2.8,0-5-2.2-5-5v-18.3h-3.8
				c-2.1,0-3.9-1.3-4.7-3.2s-0.2-4.1,1.3-5.5l26.1-23.3c1.9-1.7,4.8-1.7,6.7,0l26.1,23.3c1.5,1.4,2.1,3.6,1.3,5.5s-2.6,3.2-4.7,3.2
				h-3.8v18.3C1411.2,218.2,1409,220.5,1406.2,220.5z M1379.1,193.7h19.2c1.1,0,2,0.3,2.9,0.9v-2.5c0-1.6,0.7-3,1.9-3.9l-14.2-12.7
				l-14.2,12.7c1.2,0.9,1.9,2.3,1.9,3.9v2.3C1377.3,194,1378.2,193.7,1379.1,193.7z" style="fill:#383A48;"/>
		</g>
		<g>
			<circle cx="1662.2" cy="301.8" r="23.3" style="fill:#E0719E;"/>
			<path d="M1662.2,330.1c-15.6,0-28.3-12.7-28.3-28.3c0-15.6,12.7-28.3,28.3-28.3s28.3,12.7,28.3,28.3
				S1677.8,330.1,1662.2,330.1z M1662.2,283.5c-10.1,0-18.3,8.2-18.3,18.3c0,10.1,8.2,18.3,18.3,18.3s18.3-8.2,18.3-18.3
				S1672.2,283.5,1662.2,283.5z" style="fill:#383A48;"/>
		</g>
		<g>
			<rect x="1467.7" y="168.8" width="194.4" height="46.6" style="fill:#F3F6E6;"/>
			<path d="M1662.2,220.5h-194.4c-2.8,0-5-2.2-5-5v-46.6c0-2.8,2.2-5,5-5h194.4c2.8,0,5,2.2,5,5v46.6
				C1667.2,218.2,1664.9,220.5,1662.2,220.5z M1472.7,210.5h184.4v-36.6h-184.4V210.5z" style="fill:#383A48;"/>
		</g>
		<g>
			<path d="M1388.9,451.2c-1.9,0-3.7-1-4.5-2.8c-1.2-2.5-0.1-5.5,2.3-6.7c3.7-1.8,7.5-3.5,11.2-5
				c2.5-1.1,5.5,0.2,6.5,2.7c1.1,2.6-0.2,5.5-2.7,6.5c-3.6,1.5-7.2,3.1-10.7,4.8C1390.4,451,1389.6,451.2,1388.9,451.2z
				 M1428.3,436.8c-2.2,0-4.3-1.5-4.8-3.7c-0.7-2.7,0.9-5.4,3.6-6.1c3.9-1,7.9-1.9,12-2.7c2.7-0.5,5.3,1.2,5.9,3.9
				c0.5,2.7-1.2,5.3-3.9,5.9c-3.8,0.8-7.7,1.7-11.4,2.6C1429.1,436.8,1428.7,436.8,1428.3,436.8z M1469.6,430c-2.6,0-4.8-2-5-4.6
				c-0.2-2.8,1.8-5.2,4.6-5.4c3.8-0.3,7.8-0.6,12.1-0.8c2.8-0.2,5.1,2,5.2,4.7c0.1,2.8-2,5.1-4.7,5.3c-4.2,0.2-8.1,0.5-11.8,0.8
				C1469.9,430,1469.8,430,1469.6,430z M1511.6,428.2c-2.7,0-4.9-2.1-5-4.8c-0.1-2.8,2-5.1,4.8-5.2c4.6-0.2,8.4-0.4,11.8-0.6
				c2.7-0.2,5.1,1.9,5.3,4.6c0.2,2.8-1.9,5.1-4.6,5.3c-3.5,0.3-7.4,0.4-12.1,0.6C1511.7,428.2,1511.6,428.2,1511.6,428.2z
				 M1553,422.4c-2.1,0-4.1-1.3-4.7-3.4c-0.9-2.6,0.6-5.4,3.2-6.3c3.7-1.2,7-2.6,10.2-4.3c2.4-1.3,5.5-0.4,6.8,2.1
				c1.3,2.4,0.4,5.5-2.1,6.8c-3.7,2-7.6,3.6-11.8,5C1554.1,422.4,1553.5,422.4,1553,422.4z M1587,398.8c-1.2,0-2.4-0.4-3.3-1.3
				c-2.1-1.8-2.2-5-0.4-7.1c2.4-2.7,4.9-5.7,7.5-9c1.7-2.2,4.8-2.6,7-0.9s2.6,4.8,0.9,7c-2.7,3.5-5.3,6.6-7.9,9.5
				C1589.8,398.2,1588.4,398.8,1587,398.8z M1611.9,364.9c-0.9,0-1.9-0.3-2.7-0.8c-2.3-1.5-3-4.6-1.4-6.9c1.6-2.5,3.2-4.9,4.8-7.3
				l1.8-2.7c1.5-2.3,4.6-3,6.9-1.5s3,4.6,1.5,6.9l-1.8,2.7c-1.6,2.4-3.2,4.9-4.8,7.4C1615.2,364.1,1613.6,364.9,1611.9,364.9z
				 M1635.5,330.1c-1.1,0-2.1-0.3-3-1c-2.2-1.7-2.6-4.8-0.9-7c2.8-3.6,5.4-6.8,8-9.6c1.9-2,5-2.2,7.1-0.3c2,1.9,2.2,5,0.3,7.1
				c-2.4,2.6-4.8,5.5-7.4,8.9C1638.5,329.5,1637,330.1,1635.5,330.1z" style="fill:#383A48;"/>
		</g>
		<g>
			<g>
				<circle cx="1388.9" cy="446.2" r="23.3" style="fill:#7FD6C2;"/>
			</g>
			<g>
				<path d="M1388.9,474.5c-15.6,0-28.3-12.7-28.3-28.3c0-15.6,12.7-28.3,28.3-28.3s28.3,12.7,28.3,28.3
					C1417.2,461.8,1404.5,474.5,1388.9,474.5z M1388.9,427.9c-10.1,0-18.3,8.2-18.3,18.3c0,10.1,8.2,18.3,18.3,18.3
					s18.3-8.2,18.3-18.3C1407.2,436.1,1399,427.9,1388.9,427.9z" style="fill:#383A48;"/>
			</g>
		</g>
	</g>
	<g>
		<g>
			<path d="M326,431.1L326,431.1c-36.5,0-66.1-29.6-66.1-66.1V204.6c0-36.5,29.6-66.1,66.1-66.1l0,0
				c36.5,0,66.1,29.6,66.1,66.1V365C392.1,401.5,362.5,431.1,326,431.1z" style="fill:#E0719E;"/>
			<path d="M326,436.1c-39.2,0-71.1-31.9-71.1-71.1V204.6c0-39.2,31.9-71.1,71.1-71.1s71.1,31.9,71.1,71.1V365
				C397.1,404.2,365.2,436.1,326,436.1z M326,143.5c-33.7,0-61.1,27.4-61.1,61.1V365c0,33.7,27.4,61.1,61.1,61.1l0,0
				c33.7,0,61.1-27.4,61.1-61.1V204.6C387.1,170.9,359.7,143.5,326,143.5z" style="fill:#383A48;"/>
		</g>
		<g>
			<g>
				<circle cx="326" cy="211.4" r="37.5" style="fill:#E0719E;"/>
				<path d="M326,253.9c-23.5,0-42.5-19.1-42.5-42.5s19.1-42.5,42.5-42.5c23.5,0,42.5,19.1,42.5,42.5
					S349.5,253.9,326,253.9z M326,178.8c-17.9,0-32.5,14.6-32.5,32.5s14.6,32.5,32.5,32.5s32.5-14.6,32.5-32.5S344,178.8,326,178.8z
					" style="fill:#383A48;"/>
			</g>
			<g>
				<circle cx="326" cy="286.4" r="37.5" style="fill:#F6E049;"/>
				<path d="M326,329c-23.5,0-42.5-19.1-42.5-42.5c0-23.5,19.1-42.5,42.5-42.5c23.5,0,42.5,19.1,42.5,42.5
					C368.6,309.9,349.5,329,326,329z M326,253.9c-17.9,0-32.5,14.6-32.5,32.5S308.1,319,326,319s32.5-14.6,32.5-32.5
					S344,253.9,326,253.9z" style="fill:#383A48;"/>
			</g>
			<g>
				<g>
					<circle cx="326" cy="361.5" r="37.5" style="fill:#7FD6C2;"/>
				</g>
				<g>
					<path d="M326,404c-23.5,0-42.5-19.1-42.5-42.5c0-23.5,19.1-42.5,42.5-42.5c23.5,0,42.5,19.1,42.5,42.5
						C368.6,385,349.5,404,326,404z M326,329c-17.9,0-32.5,14.6-32.5,32.5S308.1,394,326,394s32.5-14.6,32.5-32.5S344,329,326,329z" style="fill:#383A48;"/>
				</g>
			</g>
		</g>
	</g>
	<path d="M1703.7,690.9c-66.9,0-129.8,26.1-177.2,73.4s-73.4,110.2-73.4,177.2c0,2.8,2.2,5,5,5h245.5c2.8,0,5-2.2,5-5
		V695.9C1708.7,693.2,1706.5,690.9,1703.7,690.9z" style="fill:#F6E049;"/>
	<path d="M1703.7,793.3c-81.7,0-148.2,66.5-148.2,148.2c0,2.8,2.2,5,5,5h143.2c2.8,0,5-2.2,5-5V798.3
		C1708.7,795.5,1706.5,793.3,1703.7,793.3z" style="fill:#E0719E;"/>
	<g>
		<g>
			<line x1="813.4" y1="215.5" x2="836.7" y2="192.2" style="fill:none;"/>
			
				<rect x="808.5" y="198.8" transform="matrix(0.7072 -0.7071 0.7071 0.7072 97.5265 643.027)" width="33" height="10" style="fill:#383A48;"/>
		</g>
		<g>
			<line x1="836.7" y1="215.5" x2="813.4" y2="192.2" style="fill:none;"/>
			
				<rect x="820" y="187.3" transform="matrix(0.7071 -0.7071 0.7071 0.7071 97.5211 643.0502)" width="10" height="33" style="fill:#383A48;"/>
		</g>
	</g>
	<g>
		<g>
			<line x1="1221.8" y1="401.1" x2="1245.1" y2="377.8" style="fill:none;"/>
			
				<rect x="1217.1" y="384.4" transform="matrix(0.7072 -0.7071 0.7071 0.7072 85.8877 986.2416)" width="33" height="10" style="fill:#383A48;"/>
		</g>
		<g>
			<line x1="1245.1" y1="401.1" x2="1221.8" y2="377.8" style="fill:none;"/>
			
				<rect x="1228.5" y="373" transform="matrix(0.7071 -0.7071 0.7071 0.7071 85.8907 986.2606)" width="10" height="33" style="fill:#383A48;"/>
		</g>
	</g>
	<g>
		<g>
			<line x1="1518.3" y1="698.4" x2="1541.6" y2="675.1" style="fill:none;"/>
			
				<rect x="1513.5" y="681.8" transform="matrix(0.7072 -0.7071 0.7071 0.7072 -37.5236 1282.9341)" width="33" height="10" style="fill:#383A48;"/>
		</g>
		<g>
			<line x1="1541.6" y1="698.4" x2="1518.3" y2="675.1" style="fill:none;"/>
			
				<rect x="1524.9" y="670.3" transform="matrix(0.7071 -0.7071 0.7071 0.7071 -37.5519 1282.9867)" width="10" height="33" style="fill:#383A48;"/>
		</g>
	</g>
	<g>
		<line x1="225.3" y1="836.4" x2="262.1" y2="874.8" style="fill:none;"/>
		<path d="M262.1,879.8c-1.3,0-2.6-0.5-3.6-1.5l-36.8-38.4c-1.9-2-1.8-5.2,0.2-7.1c2-1.9,5.2-1.8,7.1,0.2l36.8,38.4
			c1.9,2,1.8,5.2-0.2,7.1C264.6,879.4,263.3,879.8,262.1,879.8z" style="fill:#383A48;"/>
	</g>
	<g>
		<line x1="216.3" y1="902.2" x2="256.1" y2="909" style="fill:none;"/>
		<path d="M256.1,914c-0.3,0-0.6,0-0.9-0.1l-39.8-6.8c-2.7-0.5-4.5-3.1-4.1-5.8s3.1-4.5,5.8-4.1l39.8,6.8
			c2.7,0.5,4.5,3.1,4.1,5.8C260.6,912.3,258.5,914,256.1,914z" style="fill:#383A48;"/>
	</g>
</g>
</svg>
