<?xml version="1.0" encoding="UTF-8"?>
<svg width="1498px" height="814px" viewBox="0 0 1498 814" version="1.1" xmlns="http://www.w3.org/2000/svg" xmlns:xlink="http://www.w3.org/1999/xlink">
    <!-- Generator: Sketch 59.1 (86144) - https://sketch.com -->
    <title>personal-transport</title>
    <desc>Created with Sketch.</desc>
    <g id="Page-1" stroke="none" stroke-width="1" fill="none" fill-rule="evenodd">
        <g id="personal-transport" transform="translate(-211.000000, -133.000000)">
            <g id="Group" transform="translate(211.000000, 133.000000)">
                <path d="M551.4,0.5 L114.8,0.5 C75.7,0.5 43.9,32.3 43.9,71.4 L43.9,119.9 C43.9,121.8 45,123.6 46.8,124.4 C51.6,126.7 55.2,132.4 55.9,138.9 C57.7,156.4 58.7,174.8 58.9,195.4 C59,209.8 57,211.1 54.5,212.7 C49.2,216.1 45.1,220.1 44.2,238 C43.9,243.1 49.5,244.2 53.6,245 C57,245.7 61.8,246.4 68.4,247.3 C80.4,248.9 96.7,250.6 112.4,252.3 C135.6,254.8 167.1,258.2 173,260.1 C173.7,260.7 174.5,261.1 175.5,261.3 C175.8,261.3 176.1,261.4 176.3,261.4 C178.4,261.4 180.4,260 181.1,257.9 C206.3,179.3 245.9,176.1 287.8,172.8 C310.2,171 333.4,169.2 354.9,156 C389.4,134.8 400.9,107.5 411,83.5 C419.2,64.1 427,45.7 445.8,32.6 C467.3,17.5 500.9,10.5 551.3,10.5 C554.1,10.5 556.3,8.3 556.3,5.5 C556.3,2.7 554.2,0.5 551.4,0.5 Z" id="Path" fill="#F3F6E6" fill-rule="nonzero"></path>
                <path d="M1494,0.7 C1491.8,0.1 1489.5,1.1 1488.4,3.1 C1488.3,3.3 1477.7,22 1456.8,51.6 C1405.3,124.6 1292.6,262.1 1117.1,362.5 C1025.2,415.1 927.1,451 825.5,469.2 C708.4,490.2 664.4,549 617.8,611.3 C589.4,649.2 560,688.5 512.2,722.8 C457.8,761.8 387,788.2 295.8,803.6 C293.2,804 291.4,806.4 291.6,808.9 C291.8,811.5 294,813.5 296.6,813.5 L1492.8,813.5 C1495.6,813.5 1497.8,811.3 1497.8,808.5 L1497.8,5.5 C1497.7,3.3 1496.2,1.3 1494,0.7 Z" id="Path" fill="#F3F6E6" fill-rule="nonzero"></path>
                <g transform="translate(1136.000000, 356.000000)" fill="#383A48" fill-rule="nonzero" id="Oval">
                    <circle cx="350.9" cy="5.8" r="5"></circle>
                    <circle cx="350.9" cy="30.5" r="5"></circle>
                    <circle cx="350.9" cy="55.2" r="5"></circle>
                    <circle cx="326.2" cy="5.8" r="5"></circle>
                    <circle cx="326.2" cy="30.5" r="5"></circle>
                    <circle cx="326.2" cy="55.2" r="5"></circle>
                    <circle cx="301.6" cy="5.8" r="5"></circle>
                    <circle cx="301.6" cy="30.5" r="5"></circle>
                    <circle cx="301.6" cy="55.2" r="5"></circle>
                    <circle cx="276.9" cy="5.8" r="5"></circle>
                    <circle cx="276.9" cy="30.5" r="5"></circle>
                    <circle cx="276.9" cy="55.2" r="5"></circle>
                    <circle cx="252.2" cy="5.8" r="5"></circle>
                    <circle cx="252.2" cy="30.5" r="5"></circle>
                    <circle cx="252.2" cy="55.2" r="5"></circle>
                    <circle cx="227.6" cy="5.8" r="5"></circle>
                    <circle cx="227.6" cy="30.5" r="5"></circle>
                    <circle cx="227.6" cy="55.2" r="5"></circle>
                    <circle cx="202.9" cy="5.8" r="5"></circle>
                    <circle cx="202.9" cy="30.5" r="5"></circle>
                    <circle cx="202.9" cy="55.2" r="5"></circle>
                    <circle cx="178.2" cy="5.8" r="5"></circle>
                    <circle cx="178.2" cy="30.5" r="5"></circle>
                    <circle cx="178.2" cy="55.2" r="5"></circle>
                    <circle cx="153.6" cy="5.8" r="5"></circle>
                    <circle cx="153.6" cy="30.5" r="5"></circle>
                    <circle cx="153.6" cy="55.2" r="5"></circle>
                    <circle cx="128.9" cy="5.8" r="5"></circle>
                    <circle cx="128.9" cy="30.5" r="5"></circle>
                    <circle cx="128.9" cy="55.2" r="5"></circle>
                    <circle cx="104.2" cy="5.8" r="5"></circle>
                    <circle cx="104.2" cy="30.5" r="5"></circle>
                    <circle cx="104.2" cy="55.2" r="5"></circle>
                    <circle cx="79.6" cy="5.8" r="5"></circle>
                    <circle cx="79.6" cy="30.5" r="5"></circle>
                    <circle cx="79.6" cy="55.2" r="5"></circle>
                    <circle cx="54.9" cy="5.8" r="5"></circle>
                    <circle cx="54.9" cy="30.5" r="5"></circle>
                    <circle cx="54.9" cy="55.2" r="5"></circle>
                    <circle cx="30.2" cy="5.8" r="5"></circle>
                    <circle cx="30.2" cy="30.5" r="5"></circle>
                    <circle cx="30.2" cy="55.2" r="5"></circle>
                    <circle cx="5.6" cy="5.8" r="5"></circle>
                    <circle cx="5.6" cy="30.5" r="5"></circle>
                    <circle cx="5.6" cy="55.2" r="5"></circle>
                </g>
                <g transform="translate(29.000000, 117.000000)">
                    <g transform="translate(0.000000, 64.000000)" fill="#383A48" fill-rule="nonzero">
                        <path d="M1087.3,201.2 C1039.6,153.5 976.1,127.2 908.7,127.2 C841.2,127.2 777.8,153.5 730.1,201.2 C682.4,248.9 656.1,312.4 656.1,379.8 C656.1,447.3 682.4,510.7 730.1,558.4 C777.8,606.1 841.3,632.4 908.7,632.4 C976.2,632.4 1039.6,606.1 1087.3,558.4 C1135,510.7 1161.3,447.2 1161.3,379.8 C1161.3,312.4 1135,248.9 1087.3,201.2 Z M1117.9,379.8 C1117.9,495.2 1024,589.1 908.6,589.1 C793.2,589.1 699.3,495.2 699.3,379.8 C699.3,264.4 793.2,170.5 908.6,170.5 C1024,170.6 1117.9,264.5 1117.9,379.8 Z" id="Shape"></path>
                        <path d="M910.6,335.9 C886.4,335.9 866.7,355.6 866.7,379.8 C866.7,404 886.4,423.7 910.6,423.7 C934.8,423.7 954.500379,404 954.500379,379.8 C954.6,355.6 934.9,335.9 910.6,335.9 Z" id="Path"></path>
                        <path d="M253.4,127.2 C185.9,127.2 122.5,153.5 74.8,201.2 C27.1,248.9 0.8,312.4 0.8,379.8 C0.8,447.3 27.1,510.7 74.8,558.4 C122.5,606.1 186,632.4 253.4,632.4 C320.9,632.4 384.3,606.1 432,558.4 C479.7,510.7 506,447.2 506,379.8 C506,312.3 479.7,248.9 432,201.2 C384.3,153.5 320.9,127.2 253.4,127.2 Z M462.7,379.8 C462.7,495.2 368.8,589.1 253.4,589.1 C138,589.1 44.1,495.2 44.1,379.8 C44.1,264.4 138,170.5 253.4,170.5 C368.8,170.5 462.7,264.5 462.7,379.8 Z" id="Shape"></path>
                        <circle id="Oval" cx="255.4" cy="379.8" r="43.9"></circle>
                        <path d="M649.1,485.5 L609.2,485.5 L591.5,430.1 C615.5,422.1 632.8,399.4 632.8,372.7 C632.8,339.3 605.7,312.2 572.3,312.2 C538.9,312.2 512,339.4 512,372.8 C512,406.2 539.1,433.3 572.5,433.3 C575.7,433.3 578.9,433 581.9,432.6 L598.8,485.6 L569.2,485.6 C566.4,485.6 564.2,487.8 564.2,490.6 L564.2,512.6 C564.2,515.4 566.4,517.6 569.2,517.6 L649.2,517.6 C652,517.6 654.2,515.4 654.2,512.6 L654.2,490.6 C654.1,487.7 651.9,485.5 649.1,485.5 Z" id="Path"></path>
                        <path d="M491.3,0.5 L327.3,0.5 L341.3,43.1 L491.3,43.1 C503.1,43.1 512.6,33.5 512.6,21.8 C512.6,10.1 503,0.5 491.3,0.5 Z" id="Path"></path>
                    </g>
                    <g transform="translate(670.000000, 191.000000)" fill-rule="nonzero">
                        <g id="Shape">
                            <path d="M252.8,5.2 C116,5.2 5.2,116.1 5.2,252.8 C5.2,389.6 116.1,500.4 252.8,500.4 C389.6,500.4 500.4,389.5 500.4,252.8 C500.4,116.1 389.6,5.2 252.8,5.2 Z M252.8,467.1 C134.5,467.1 38.5,371.2 38.5,252.8 C38.5,134.5 134.4,38.5 252.8,38.5 C371.2,38.5 467.1,134.4 467.1,252.8 C467.1,371.2 371.1,467.1 252.8,467.1 Z" fill="#F6E049"></path>
                            <path d="M252.8,505.5 C185.3,505.5 121.9,479.2 74.2,431.5 C26.5,383.8 0.2,320.3 0.2,252.9 C0.2,185.4 26.5,122 74.2,74.3 C121.9,26.6 185.4,0.3 252.8,0.3 C320.3,0.3 383.7,26.6 431.4,74.3 C479.1,122 505.4,185.5 505.4,252.9 C505.4,320.4 479.1,383.8 431.4,431.5 C383.7,479.2 320.3,505.5 252.8,505.5 Z M252.8,10.2 C188,10.2 127.1,35.4 81.2,81.3 C35.4,127.1 10.1,188.1 10.1,252.9 C10.1,317.7 35.3,378.6 81.2,424.5 C127,470.3 188,495.6 252.8,495.6 C317.6,495.6 378.5,470.4 424.4,424.5 C470.2,378.7 495.5,317.7 495.5,252.9 C495.5,188.1 470.3,127.2 424.4,81.3 C378.5,35.4 317.6,10.2 252.8,10.2 Z M252.8,472.1 C194.2,472.1 139.2,449.3 97.8,407.9 C56.4,366.5 33.6,311.4 33.6,252.9 C33.6,194.3 56.4,139.3 97.8,97.9 C139.2,56.5 194.3,33.7 252.8,33.7 C311.3,33.7 366.4,56.5 407.8,97.9 C449.2,139.3 472,194.4 472,252.9 C472,311.5 449.2,366.5 407.8,407.9 C366.4,449.3 311.4,472.1 252.8,472.1 Z M252.8,43.6 C137.4,43.6 43.5,137.5 43.5,252.9 C43.5,368.3 137.4,462.2 252.8,462.2 C368.2,462.2 462.1,368.3 462.1,252.9 C462.1,137.5 368.2,43.6 252.8,43.6 Z" fill="#383A48"></path>
                        </g>
                        <g transform="translate(208.000000, 209.000000)">
                            <circle id="Oval" fill="#7FD6C2" cx="44.8" cy="43.8" r="38.9"></circle>
                            <path d="M44.8,87.8 C20.6,87.8 0.9,68.1 0.9,43.9 C0.9,19.7 20.6,0 44.8,0 C69,0 88.7,19.7 88.7,43.9 C88.7,68.1 69,87.8 44.8,87.8 Z M44.8,9.9 C26.1,9.9 10.9,25.1 10.9,43.8 C10.9,62.5 26.1,77.7 44.8,77.7 C63.5,77.7 78.7,62.5 78.7,43.8 C78.7,25.1 63.5,9.9 44.8,9.9 Z" id="Shape" fill="#383A48"></path>
                        </g>
                    </g>
                    <g transform="translate(15.000000, 191.000000)" fill-rule="nonzero" id="Shape">
                        <path d="M252.5,5.2 C115.7,5.2 4.9,116.1 4.9,252.8 C4.9,389.6 115.8,500.4 252.5,500.4 C389.3,500.4 500.100068,389.5 500.100068,252.8 C500.2,116.1 389.3,5.2 252.5,5.2 Z M252.5,467.1 C134.2,467.1 38.2,371.2 38.2,252.8 C38.2,134.5 134.1,38.5 252.5,38.5 C370.9,38.5 466.8,134.4 466.8,252.8 C466.8,371.2 370.9,467.1 252.5,467.1 Z" fill="#F6E049"></path>
                        <path d="M252.6,505.5 C185.1,505.5 121.7,479.2 74,431.5 C26.3,383.8 0,320.3 0,252.9 C0,185.4 26.3,122 74,74.3 C121.7,26.6 185.2,0.3 252.6,0.3 C320.1,0.3 383.5,26.6 431.2,74.3 C478.9,122 505.2,185.5 505.2,252.9 C505.2,320.4 478.9,383.8 431.2,431.5 C383.5,479.2 320,505.5 252.6,505.5 Z M252.6,10.2 C187.8,10.2 126.9,35.4 81,81.3 C35.2,127.1 9.9,188.1 9.9,252.9 C9.9,317.7 35.1,378.6 81,424.5 C126.8,470.3 187.8,495.6 252.6,495.6 C317.4,495.6 378.3,470.4 424.2,424.5 C470,378.7 495.3,317.7 495.3,252.9 C495.3,188.1 470.1,127.2 424.2,81.3 C378.3,35.4 317.4,10.2 252.6,10.2 Z M252.6,472.1 C194,472.1 139,449.3 97.6,407.9 C56.2,366.5 33.4,311.4 33.4,252.9 C33.4,194.3 56.2,139.3 97.6,97.9 C139,56.5 194.1,33.7 252.6,33.7 C311.1,33.7 366.2,56.5 407.6,97.9 C449,139.3 471.8,194.4 471.8,252.9 C471.8,311.5 449,366.5 407.6,407.9 C366.2,449.3 311.1,472.1 252.6,472.1 Z M252.6,43.6 C137.2,43.6 43.3,137.5 43.3,252.9 C43.3,368.3 137.2,462.2 252.6,462.2 C368,462.2 461.9,368.3 461.9,252.9 C461.8,137.5 367.9,43.6 252.6,43.6 Z" fill="#383A48"></path>
                    </g>
                    <g transform="translate(429.000000, 97.000000)" id="Path">
                        <line x1="157.9" y1="339.8" x2="5.8" y2="5.1"></line>
                        <path d="M157.9,344.8 C156,344.8 154.2,343.7 153.3,341.9 L1.2,7.2 C0.1,4.7 1.2,1.7 3.7,0.6 C6.2,-0.5 9.2,0.6 10.3,3.1 L162.4,337.7 C163.5,340.2 162.4,343.2 159.9,344.3 C159.3,344.6 158.6,344.8 157.9,344.8 Z" fill="#383A48" fill-rule="nonzero"></path>
                    </g>
                    <path d="M267.6,448.8 C265.8,448.8 264.2,447.9 263.3,446.3 C262.4,444.7 262.4,442.8 263.4,441.2 L447.6,136.9 C448.5,135.4 450.1,134.5 451.9,134.5 L821,134.5 C822.9,134.5 824.7,135.6 825.5,137.3 C826.3,139 826.1,141.1 824.9,142.6 L590.8,439.9 C589.9,441.1 588.5,441.8 587,441.8 L267.6,448.9 C267.6,448.8 267.6,448.8 267.6,448.8 Z M454.6,144.5 L276.6,438.6 L584.5,431.8 L810.7,144.5 L454.6,144.5 Z" id="Shape" fill="#383A48" fill-rule="nonzero"></path>
                    <path d="M922.8,448.8 C920.7,448.8 918.7,447.5 918,445.4 L797.1,76.8 C791.7,60.6 794,43.1 803.3,28.7 C812.6,14.3 827.7,5.1 844.7,3.4 L869.7,0.9 C895,-1.7 918.9,13.1 927.8,36.9 C934,53.3 932.2,71.3 923,86.2 C913.8,101.1 898.5,110.7 881,112.5 L876.5,113 C873.8,113.3 871.3,111.3 871,108.5 C870.7,105.8 872.7,103.3 875.5,103 L880,102.5 C894.3,101 906.9,93.2 914.5,80.9 C922.1,68.6 923.5,53.9 918.4,40.4 C911,20.9 891.4,8.7 870.6,10.8 L845.6,13.3 C831.6,14.7 819.2,22.3 811.6,34.1 C804,45.9 802.1,60.3 806.5,73.6 L927.4,442.2 C928.3,444.8 926.8,447.6 924.2,448.5 C923.8,448.8 923.3,448.8 922.8,448.8 Z" id="Path" fill="#383A48" fill-rule="nonzero"></path>
                    <g transform="translate(526.000000, 376.000000)" fill-rule="nonzero">
                        <circle id="Oval" fill="#7FD6C2" cx="60.9" cy="60.8" r="55.5"></circle>
                        <path d="M60.9,121.3 C27.5,121.3 0.4,94.2 0.4,60.8 C0.4,27.4 27.5,0.3 60.9,0.3 C94.3,0.3 121.4,27.4 121.4,60.8 C121.4,94.2 94.3,121.3 60.9,121.3 Z M60.9,10.3 C33.1,10.3 10.4,33 10.4,60.8 C10.4,88.6 33.1,111.3 60.9,111.3 C88.7,111.3 111.4,88.6 111.4,60.8 C111.4,33 88.8,10.3 60.9,10.3 Z" id="Shape" fill="#383A48"></path>
                    </g>
                    <path d="M628,570.5 C625.9,570.5 623.9,569.1 623.2,567 L582.1,438.3 C581.3,435.7 582.7,432.9 585.3,432 C587.9,431.2 590.7,432.6 591.6,435.2 L632.7,564 C633.5,566.6 632.1,569.4 629.5,570.3 C629,570.4 628.5,570.5 628,570.5 Z" id="Path" fill="#383A48" fill-rule="nonzero"></path>
                    <g transform="translate(583.000000, 549.000000)" fill="#383A48" fill-rule="nonzero">
                        <rect id="Rectangle" x="5" y="5.5" width="80" height="22"></rect>
                        <path d="M85,32.5 L5,32.5 C2.2,32.5 0,30.3 0,27.5 L0,5.5 C0,2.7 2.2,0.5 5,0.5 L85,0.5 C87.8,0.5 90,2.7 90,5.5 L90,27.5 C90,30.3 87.7,32.5 85,32.5 Z M10,22.5 L80,22.5 L80,10.5 L10,10.5 L10,22.5 Z" id="Shape"></path>
                    </g>
                    <g transform="translate(347.000000, 64.000000)" fill-rule="nonzero">
                        <path d="M163.1,38.1 L16.7,38.1 L6,5.5 L163.1,5.5 C172.1,5.5 179.4,12.8 179.4,21.8 L179.4,21.8 C179.4,30.8 172.1,38.1 163.1,38.1 Z" id="Path" fill="#F6E049"></path>
                        <path d="M163.1,43.1 L16.7,43.1 C14.5,43.1 12.6,41.7 11.9,39.7 L1.2,7.1 C0.7,5.6 1,3.9 1.9,2.6 C2.8,1.3 4.3,0.5 5.9,0.5 L163,0.5 C174.8,0.5 184.3,10.1 184.3,21.8 C184.3,33.5 174.8,43.1 163.1,43.1 Z M20.4,33.1 L163.1,33.1 C169.3,33.1 174.4,28 174.4,21.8 C174.4,15.6 169.3,10.5 163.1,10.5 L12.9,10.5 L20.4,33.1 Z" id="Shape" fill="#383A48"></path>
                    </g>
                    <g transform="translate(223.000000, 400.000000)" fill-rule="nonzero">
                        <circle id="Oval" fill="#7FD6C2" cx="44.6" cy="43.8" r="38.9"></circle>
                        <path d="M44.6,87.8 C20.4,87.8 0.7,68.1 0.7,43.9 C0.7,19.7 20.4,0 44.6,0 C68.8,0 88.5,19.7 88.5,43.9 C88.5,68.1 68.8,87.8 44.6,87.8 Z M44.6,9.9 C25.9,9.9 10.7,25.1 10.7,43.8 C10.7,62.5 25.9,77.7 44.6,77.7 C63.3,77.7 78.5,62.5 78.5,43.8 C78.5,25.1 63.3,9.9 44.6,9.9 Z" id="Shape" fill="#383A48"></path>
                    </g>
                </g>
                <path d="M1264.7,813.5 L48.9,813.5 C46.1,813.5 43.9,811.3 43.9,808.5 C43.9,805.7 46.1,803.5 48.9,803.5 L1264.7,803.5 C1267.5,803.5 1269.7,805.7 1269.7,808.5 C1269.7,811.3 1267.5,813.5 1264.7,813.5 Z" id="Path" fill="#383A48" fill-rule="nonzero"></path>
                <g transform="translate(1114.000000, 0.000000)" fill-rule="nonzero">
                    <g>
                        <rect id="Rectangle" fill="#F3F6E6" x="5.6" y="5.5" width="373.2" height="373.2"></rect>
                        <path d="M378.7,383.7 L5.5,383.7 C2.7,383.7 0.5,381.5 0.5,378.7 L0.5,5.5 C0.5,2.7 2.7,0.5 5.5,0.5 L378.7,0.5 C381.5,0.5 383.7,2.7 383.7,5.5 L383.7,378.7 C383.7,381.5 381.5,383.7 378.7,383.7 Z M10.6,373.7 L373.8,373.7 L373.8,10.5 L10.6,10.5 L10.6,373.7 L10.6,373.7 Z" id="Shape" fill="#383A48"></path>
                    </g>
                    <g>
                        <rect id="Rectangle" fill="#AAC6FC" x="5.6" y="5.5" width="373.2" height="107.3"></rect>
                        <path d="M378.7,117.8 L5.5,117.8 C2.7,117.8 0.5,115.6 0.5,112.8 L0.5,5.5 C0.5,2.7 2.7,0.5 5.5,0.5 L378.7,0.5 C381.5,0.5 383.7,2.7 383.7,5.5 L383.7,112.8 C383.7,115.5 381.5,117.8 378.7,117.8 Z M10.6,107.8 L373.8,107.8 L373.8,10.5 L10.6,10.5 L10.6,107.8 L10.6,107.8 Z" id="Shape" fill="#383A48"></path>
                    </g>
                    <g transform="translate(32.000000, 30.000000)" fill="#383A48">
                        <polygon id="Path" points="58 29.2 49.2 29.2 49.2 52.5 41.4 52.5 41.4 35.7 22.1 35.7 22.1 52.5 14.6 52.5 14.6 29.2 5.8 29.2 31.9 5.8"></polygon>
                        <path d="M49.2,57.5 L41.3,57.5 C38.5,57.5 36.3,55.3 36.3,52.5 L36.3,40.8 L27.1,40.8 L27.1,52.5 C27.1,55.3 24.9,57.5 22.1,57.5 L14.6,57.5 C11.8,57.5 9.6,55.3 9.6,52.5 L9.6,34.2 L5.8,34.2 C3.7,34.2 1.9,32.9 1.1,31 C0.3,29.1 0.9,26.9 2.4,25.5 L28.5,2.2 C30.4,0.5 33.3,0.5 35.2,2.2 L61.3,25.5 C62.8,26.9 63.4,29.1 62.6,31 C61.8,32.9 60,34.2 57.9,34.2 L54.1,34.2 L54.1,52.5 C54.2,55.2 52,57.5 49.2,57.5 Z M22.1,30.7 L41.3,30.7 C42.4,30.7 43.3,31 44.2,31.6 L44.2,29.1 C44.2,27.5 44.9,26.1 46.1,25.2 L31.9,12.5 L17.7,25.2 C18.9,26.1 19.6,27.5 19.6,29.1 L19.6,31.4 C20.3,31 21.2,30.7 22.1,30.7 Z" id="Shape"></path>
                    </g>
                    <g transform="translate(308.000000, 140.000000)">
                        <circle id="Oval" fill="#E0719E" cx="29.2" cy="28.8" r="23.3"></circle>
                        <path d="M29.2,57.1 C13.6,57.1 0.9,44.4 0.9,28.8 C0.9,13.2 13.6,0.5 29.2,0.5 C44.8,0.5 57.5,13.2 57.5,28.8 C57.5,44.4 44.8,57.1 29.2,57.1 Z M29.2,10.5 C19.1,10.5 10.9,18.7 10.9,28.8 C10.9,38.9 19.1,47.1 29.2,47.1 C39.3,47.1 47.5,38.9 47.5,28.8 C47.5,18.7 39.2,10.5 29.2,10.5 Z" id="Shape" fill="#383A48"></path>
                    </g>
                    <g transform="translate(137.000000, 30.000000)">
                        <rect id="Rectangle" fill="#F3F6E6" x="5.7" y="5.8" width="194.4" height="46.6"></rect>
                        <path d="M200.2,57.5 L5.8,57.5 C3,57.5 0.8,55.3 0.8,52.5 L0.8,5.9 C0.8,3.1 3,0.9 5.8,0.9 L200.2,0.9 C203,0.9 205.2,3.1 205.2,5.9 L205.2,52.5 C205.2,55.2 202.9,57.5 200.2,57.5 Z M10.7,47.5 L195.1,47.5 L195.1,10.9 L10.7,10.9 L10.7,47.5 Z" id="Shape" fill="#383A48"></path>
                    </g>
                    <path d="M63.9,318.2 C62,318.2 60.2,317.2 59.4,315.4 C58.2,312.9 59.3,309.9 61.7,308.7 C65.4,306.9 69.2,305.2 72.9,303.7 C75.4,302.6 78.4,303.9 79.4,306.4 C80.5,309 79.2,311.9 76.7,312.9 C73.1,314.4 69.5,316 66,317.7 C65.4,318 64.6,318.2 63.9,318.2 Z M103.3,303.8 C101.1,303.8 99,302.3 98.5,300.1 C97.8,297.4 99.4,294.7 102.1,294 C106,293 110,292.1 114.1,291.3 C116.8,290.8 119.4,292.5 120,295.2 C120.5,297.9 118.8,300.5 116.1,301.1 C112.3,301.9 108.4,302.8 104.7,303.7 C104.1,303.8 103.7,303.8 103.3,303.8 Z M144.6,297 C142,297 139.8,295 139.6,292.4 C139.4,289.6 141.4,287.2 144.2,287 C148,286.7 152,286.4 156.3,286.2 C159.1,286 161.4,288.2 161.5,290.9 C161.6,293.7 159.5,296 156.8,296.2 C152.6,296.4 148.7,296.7 145,297 C144.9,297 144.8,297 144.6,297 Z M186.6,295.2 C183.9,295.2 181.7,293.1 181.6,290.4 C181.5,287.6 183.6,285.3 186.4,285.2 C191,285 194.8,284.8 198.2,284.6 C200.9,284.4 203.3,286.5 203.5,289.2 C203.7,292 201.6,294.3 198.9,294.5 C195.4,294.8 191.5,294.9 186.8,295.1 C186.7,295.2 186.6,295.2 186.6,295.2 Z M228,289.4 C225.9,289.4 223.9,288.1 223.3,286 C222.4,283.4 223.9,280.6 226.5,279.7 C230.2,278.5 233.5,277.1 236.7,275.4 C239.1,274.1 242.2,275 243.5,277.5 C244.8,279.9 243.9,283 241.4,284.3 C237.7,286.3 233.8,287.9 229.6,289.3 C229.1,289.4 228.5,289.4 228,289.4 Z M262,265.8 C260.8,265.8 259.6,265.4 258.7,264.5 C256.6,262.7 256.5,259.5 258.3,257.4 C260.7,254.7 263.2,251.7 265.8,248.4 C267.5,246.2 270.6,245.8 272.8,247.5 C275,249.2 275.4,252.3 273.7,254.5 C271,258 268.4,261.1 265.8,264 C264.8,265.2 263.4,265.8 262,265.8 Z M286.9,231.9 C286,231.9 285,231.6 284.2,231.1 C281.9,229.6 281.2,226.5 282.8,224.2 C284.4,221.7 286,219.3 287.6,216.9 L289.4,214.2 C290.9,211.9 294,211.2 296.3,212.7 C298.6,214.2 299.3,217.3 297.8,219.6 L296,222.3 C294.4,224.7 292.8,227.2 291.2,229.7 C290.2,231.1 288.6,231.9 286.9,231.9 Z M310.5,197.1 C309.4,197.1 308.4,196.8 307.5,196.1 C305.3,194.4 304.9,191.3 306.6,189.1 C309.4,185.5 312,182.3 314.6,179.5 C316.5,177.5 319.6,177.3 321.7,179.2 C323.7,181.1 323.9,184.2 322,186.3 C319.6,188.9 317.2,191.8 314.6,195.2 C313.5,196.5 312,197.1 310.5,197.1 Z" id="Shape" fill="#383A48"></path>
                    <g transform="translate(35.000000, 284.000000)">
                        <circle id="Oval" fill="#7FD6C2" cx="28.9" cy="29.2" r="23.3"></circle>
                        <path d="M28.9,57.5 C13.3,57.5 0.6,44.8 0.6,29.2 C0.6,13.6 13.3,0.9 28.9,0.9 C44.5,0.9 57.2,13.6 57.2,29.2 C57.2,44.8 44.5,57.5 28.9,57.5 Z M28.9,10.9 C18.8,10.9 10.6,19.1 10.6,29.2 C10.6,39.3 18.8,47.5 28.9,47.5 C39,47.5 47.2,39.3 47.2,29.2 C47.2,19.1 39,10.9 28.9,10.9 Z" id="Shape" fill="#383A48"></path>
                    </g>
                </g>
                <g transform="translate(43.000000, 0.000000)" fill-rule="nonzero">
                    <g>
                        <path d="M72,298.1 L72,298.1 C35.5,298.1 5.9,268.5 5.9,232 L5.9,71.6 C5.9,35.1 35.5,5.5 72,5.5 L72,5.5 C108.5,5.5 138.1,35.1 138.1,71.6 L138.1,232 C138.1,268.5 108.5,298.1 72,298.1 Z" id="Path" fill="#E0719E"></path>
                        <path d="M72,303.1 C32.8,303.1 0.9,271.2 0.9,232 L0.9,71.6 C0.9,32.4 32.8,0.5 72,0.5 C111.2,0.5 143.1,32.4 143.1,71.6 L143.1,232 C143.1,271.2 111.2,303.1 72,303.1 Z M72,10.5 C38.3,10.5 10.9,37.9 10.9,71.6 L10.9,232 C10.9,265.7 38.3,293.1 72,293.1 L72,293.1 C105.7,293.1 133.1,265.7 133.1,232 L133.1,71.6 C133.1,37.9 105.7,10.5 72,10.5 Z" id="Shape" fill="#383A48"></path>
                    </g>
                    <g transform="translate(29.000000, 35.000000)">
                        <g>
                            <circle id="Oval" fill="#E0719E" cx="43" cy="43.4" r="37.5"></circle>
                            <path d="M43,85.9 C19.5,85.9 0.5,66.8 0.5,43.4 C0.5,20 19.6,0.9 43,0.9 C66.5,0.9 85.5,20 85.5,43.4 C85.5,66.8 66.5,85.9 43,85.9 Z M43,10.8 C25.1,10.8 10.5,25.4 10.5,43.3 C10.5,61.2 25.1,75.8 43,75.8 C60.9,75.8 75.5,61.2 75.5,43.3 C75.5,25.4 61,10.8 43,10.8 Z" id="Shape" fill="#383A48"></path>
                        </g>
                        <g transform="translate(0.000000, 76.000000)">
                            <circle id="Oval" fill="#F6E049" cx="43" cy="42.4" r="37.5"></circle>
                            <path d="M43,85 C19.5,85 0.5,65.9 0.5,42.5 C0.5,19 19.6,0 43,0 C66.5,0 85.5003909,19.1 85.5003909,42.5 C85.6,65.9 66.5,85 43,85 Z M43,9.9 C25.1,9.9 10.5,24.5 10.5,42.4 C10.5,60.3 25.1,75 43,75 C60.9,75 75.5,60.4 75.5,42.5 C75.5,24.6 61,9.9 43,9.9 Z" id="Shape" fill="#383A48"></path>
                        </g>
                        <g transform="translate(0.000000, 151.000000)">
                            <circle id="Oval" fill="#7FD6C2" cx="43" cy="42.5" r="37.5"></circle>
                            <path d="M43,85 C19.5,85 0.5,65.9 0.5,42.5 C0.5,19 19.6,0 43,0 C66.5,0 85.5003909,19.1 85.5003909,42.5 C85.6,66 66.5,85 43,85 Z M43,10 C25.1,10 10.5,24.6 10.5,42.5 C10.5,60.4 25.1,75 43,75 C60.9,75 75.5,60.4 75.5,42.5 C75.5,24.6 61,10 43,10 Z" id="Shape" fill="#383A48"></path>
                        </g>
                    </g>
                </g>
                <path d="M1492.7,557.9 C1425.8,557.9 1362.9,584 1315.5,631.3 C1268.1,678.6 1242.1,741.5 1242.1,808.5 C1242.1,811.3 1244.3,813.5 1247.1,813.5 L1492.6,813.5 C1495.4,813.5 1497.6,811.3 1497.6,808.5 L1497.6,562.9 C1497.7,560.2 1495.5,557.9 1492.7,557.9 Z" id="Path" fill="#F6E049" fill-rule="nonzero"></path>
                <path d="M1492.7,660.3 C1411,660.3 1344.5,726.8 1344.5,808.5 C1344.5,811.3 1346.7,813.5 1349.5,813.5 L1492.7,813.5 C1495.5,813.5 1497.7,811.3 1497.7,808.5 L1497.7,665.3 C1497.7,662.5 1495.5,660.3 1492.7,660.3 Z" id="Path" fill="#E0719E" fill-rule="nonzero"></path>
                <g transform="translate(598.000000, 55.000000)">
                    <g>
                        <line x1="4.4" y1="27.5" x2="27.7" y2="4.2" id="Path"></line>
                        <rect id="Rectangle" fill="#383A48" fill-rule="nonzero" transform="translate(16.073480, 15.796860) rotate(-44.995949) translate(-16.073480, -15.796860) " x="-0.427528532" y="10.7965544" width="33.0020171" height="10.0006112"></rect>
                    </g>
                    <g>
                        <line x1="27.7" y1="27.5" x2="4.4" y2="4.2" id="Path"></line>
                        <rect id="Rectangle" fill="#383A48" fill-rule="nonzero" transform="translate(15.985580, 15.799680) rotate(-45.000000) translate(-15.985580, -15.799680) " x="10.985628" y="-0.700161764" width="9.9999041" height="32.9996835"></rect>
                    </g>
                </g>
                <g transform="translate(1007.000000, 241.000000)">
                    <g>
                        <line x1="3.8" y1="27.1" x2="27.1" y2="3.8" id="Path"></line>
                        <rect id="Rectangle" fill="#383A48" fill-rule="nonzero" transform="translate(15.634360, 15.346720) rotate(-44.995949) translate(-15.634360, -15.346720) " x="-0.866648532" y="10.3464144" width="33.0020171" height="10.0006112"></rect>
                    </g>
                    <g>
                        <line x1="27.1" y1="27.1" x2="3.8" y2="3.8" id="Path"></line>
                        <rect id="Rectangle" fill="#383A48" fill-rule="nonzero" transform="translate(15.514000, 15.468200) rotate(-45.000000) translate(-15.514000, -15.468200) " x="10.514048" y="-1.03164176" width="9.9999041" height="32.9996835"></rect>
                    </g>
                </g>
                <g transform="translate(1303.000000, 538.000000)">
                    <g>
                        <line x1="4.3" y1="27.4" x2="27.6" y2="4.1" id="Path"></line>
                        <rect id="Rectangle" fill="#383A48" fill-rule="nonzero" transform="translate(16.128680, 15.776060) rotate(-44.995949) translate(-16.128680, -15.776060) " x="-0.372328532" y="10.7757544" width="33.0020171" height="10.0006112"></rect>
                    </g>
                    <g>
                        <line x1="27.6" y1="27.4" x2="4.3" y2="4.1" id="Path"></line>
                        <rect id="Rectangle" fill="#383A48" fill-rule="nonzero" transform="translate(15.876670, 15.830690) rotate(-45.000000) translate(-15.876670, -15.830690) " x="10.876718" y="-0.669151764" width="9.9999041" height="32.9996835"></rect>
                    </g>
                </g>
                <g transform="translate(9.000000, 698.000000)" id="Path">
                    <line x1="5.3" y1="5.4" x2="42.1" y2="43.8"></line>
                    <path d="M42.1,48.8 C40.8,48.8 39.5,48.3 38.5,47.3 L1.7,8.9 C-0.2,6.9 -0.1,3.7 1.9,1.8 C3.9,-0.1 7.1,-5.55111512e-17 9,2 L45.8,40.4 C47.7,42.4 47.6,45.6 45.6,47.5 C44.6,48.4 43.3,48.8 42.1,48.8 Z" fill="#383A48" fill-rule="nonzero"></path>
                </g>
                <g transform="translate(0.000000, 764.000000)" id="Path">
                    <line x1="5.3" y1="5.2" x2="45.1" y2="12"></line>
                    <path d="M45.1,17 C44.8,17 44.5,17 44.2,16.9 L4.4,10.1 C1.7,9.6 -0.1,7 0.3,4.3 C0.7,1.6 3.4,-0.2 6.1,0.2 L45.9,7 C48.6,7.5 50.4,10.1 50,12.8 C49.6,15.3 47.5,17 45.1,17 Z" fill="#383A48" fill-rule="nonzero"></path>
                </g>
            </g>
        </g>
    </g>
</svg>