<?xml version="1.0" encoding="UTF-8"?>
<svg width="1462px" height="752px" viewBox="0 0 1462 752" version="1.1" xmlns="http://www.w3.org/2000/svg" xmlns:xlink="http://www.w3.org/1999/xlink">
    <!-- Generator: Sketch 59.1 (86144) - https://sketch.com -->
    <title>person-using-phone</title>
    <desc>Created with Sketch.</desc>
    <g id="Page-1" stroke="none" stroke-width="1" fill="none" fill-rule="evenodd">
        <g id="person-using-phone" transform="translate(-229.000000, -164.000000)" fill-rule="nonzero">
            <g id="Group" transform="translate(229.000000, 164.000000)">
                <path d="M779.1,3.4 L5.1,3.4 C2.3,3.4 0.1,5.6 0.1,8.4 L0.1,746.6 C0.1,749.4 2.3,751.6 5.1,751.6 L779.1,712.5 C781.9,712.5 784.1,710.3 784.1,707.5 L784.1,8.4 C784.1,5.6 781.9,3.4 779.1,3.4 Z" id="Path" fill="#E0719E"></path>
                <path d="M1458,3.5 C1455.7,3 1453.4,4.1 1452.4,6.2 C1406.7,98.7 1354.3,150.2 1287.4,168.2 C1227.1,184.4 1160.7,171.9 1090.5,158.7 C1010.3,143.6 927.3,128 837.1,148.5 C802.3,156.4 758.1,188.4 719,216.6 C704.1,227.4 690.1,237.6 677.3,245.9 C626.1,279.3 582.8,317.1 544.9,361.4 C511.4,400.4 486.3,439.4 462.1,477.1 C439.5,512.2 418.1,545.3 391.6,576.2 C353.8,620.2 311,652.6 257,677.9 C192.1,708.4 109.6,729.3 4.7,741.7 C2.1,742 0.1,744.3 0.28620952,747 C0.5,749.7 2.6,751.7 5.3,751.7 L1457,751.7 C1459.8,751.7 1462,749.5 1462,746.7 L1462,8.4 C1461.9,6.1 1460.3,4 1458,3.5 Z" id="Path" fill="#F3F6E6"></path>
                <g transform="translate(396.000000, 283.000000)" fill="#383A48" id="Oval">
                    <circle cx="227.1" cy="5.4" r="5"></circle>
                    <circle cx="227.1" cy="30.1" r="5"></circle>
                    <circle cx="227.1" cy="54.7" r="5"></circle>
                    <circle cx="227.1" cy="79.4" r="5"></circle>
                    <circle cx="227.1" cy="104.1" r="5"></circle>
                    <circle cx="227.1" cy="128.7" r="5"></circle>
                    <circle cx="227.1" cy="153.4" r="5"></circle>
                    <circle cx="227.1" cy="178.1" r="5"></circle>
                    <circle cx="227.1" cy="202.7" r="5"></circle>
                    <circle cx="227.1" cy="227.4" r="5"></circle>
                    <circle cx="227.1" cy="252.1" r="5"></circle>
                    <circle cx="227.1" cy="276.7" r="5"></circle>
                    <circle cx="227.1" cy="301.4" r="5"></circle>
                    <circle cx="227.1" cy="326.1" r="5"></circle>
                    <circle cx="227.1" cy="350.7" r="5"></circle>
                    <circle cx="227.1" cy="375.4" r="5"></circle>
                    <circle cx="227.1" cy="400.1" r="5"></circle>
                    <circle cx="227.1" cy="424.7" r="5"></circle>
                    <circle cx="227.1" cy="449.4" r="5"></circle>
                    <circle cx="202.4" cy="30.1" r="5"></circle>
                    <circle cx="202.4" cy="54.7" r="5"></circle>
                    <circle cx="202.4" cy="79.4" r="5"></circle>
                    <circle cx="202.4" cy="104.1" r="5"></circle>
                    <circle cx="202.4" cy="128.7" r="5"></circle>
                    <circle cx="202.4" cy="153.4" r="5"></circle>
                    <circle cx="202.4" cy="178.1" r="5"></circle>
                    <circle cx="202.4" cy="202.7" r="5"></circle>
                    <circle cx="202.4" cy="227.4" r="5"></circle>
                    <circle cx="202.4" cy="252.1" r="5"></circle>
                    <circle cx="202.4" cy="276.7" r="5"></circle>
                    <circle cx="202.4" cy="301.4" r="5"></circle>
                    <circle cx="202.4" cy="326.1" r="5"></circle>
                    <circle cx="202.4" cy="350.7" r="5"></circle>
                    <circle cx="202.4" cy="375.4" r="5"></circle>
                    <circle cx="202.4" cy="400.1" r="5"></circle>
                    <circle cx="202.4" cy="424.7" r="5"></circle>
                    <circle cx="202.4" cy="449.4" r="5"></circle>
                    <circle cx="177.8" cy="54.7" r="5"></circle>
                    <circle cx="177.8" cy="79.4" r="5"></circle>
                    <circle cx="177.8" cy="104.1" r="5"></circle>
                    <circle cx="177.8" cy="128.7" r="5"></circle>
                    <circle cx="177.8" cy="153.4" r="5"></circle>
                    <circle cx="177.8" cy="178.1" r="5"></circle>
                    <circle cx="177.8" cy="202.7" r="5"></circle>
                    <circle cx="177.8" cy="227.4" r="5"></circle>
                    <circle cx="177.8" cy="252.1" r="5"></circle>
                    <circle cx="177.8" cy="276.7" r="5"></circle>
                    <circle cx="177.8" cy="301.4" r="5"></circle>
                    <circle cx="177.8" cy="326.1" r="5"></circle>
                    <circle cx="177.8" cy="350.7" r="5"></circle>
                    <circle cx="177.8" cy="375.4" r="5"></circle>
                    <circle cx="177.8" cy="400.1" r="5"></circle>
                    <circle cx="177.8" cy="424.7" r="5"></circle>
                    <circle cx="177.8" cy="449.4" r="5"></circle>
                    <circle cx="153.1" cy="79.4" r="5"></circle>
                    <circle cx="153.1" cy="104.1" r="5"></circle>
                    <circle cx="153.1" cy="128.7" r="5"></circle>
                    <circle cx="153.1" cy="153.4" r="5"></circle>
                    <circle cx="153.1" cy="178.1" r="5"></circle>
                    <circle cx="153.1" cy="202.7" r="5"></circle>
                    <circle cx="153.1" cy="227.4" r="5"></circle>
                    <circle cx="153.1" cy="252.1" r="5"></circle>
                    <circle cx="153.1" cy="276.7" r="5"></circle>
                    <circle cx="153.1" cy="301.4" r="5"></circle>
                    <circle cx="153.1" cy="326.1" r="5"></circle>
                    <circle cx="153.1" cy="350.7" r="5"></circle>
                    <circle cx="153.1" cy="375.4" r="5"></circle>
                    <circle cx="153.1" cy="400.1" r="5"></circle>
                    <circle cx="153.1" cy="424.7" r="5"></circle>
                    <circle cx="153.1" cy="449.4" r="5"></circle>
                    <circle cx="128.4" cy="128.7" r="5"></circle>
                    <circle cx="128.4" cy="153.4" r="5"></circle>
                    <circle cx="128.4" cy="178.1" r="5"></circle>
                    <circle cx="128.4" cy="202.7" r="5"></circle>
                    <circle cx="128.4" cy="227.4" r="5"></circle>
                    <circle cx="128.4" cy="252.1" r="5"></circle>
                    <circle cx="128.4" cy="276.7" r="5"></circle>
                    <circle cx="128.4" cy="301.4" r="5"></circle>
                    <circle cx="128.4" cy="326.1" r="5"></circle>
                    <circle cx="128.4" cy="350.7" r="5"></circle>
                    <circle cx="128.4" cy="375.4" r="5"></circle>
                    <circle cx="128.4" cy="400.1" r="5"></circle>
                    <circle cx="128.4" cy="424.7" r="5"></circle>
                    <circle cx="128.4" cy="449.4" r="5"></circle>
                    <circle cx="103.8" cy="153.4" r="5"></circle>
                    <circle cx="103.8" cy="178.1" r="5"></circle>
                    <circle cx="103.8" cy="202.7" r="5"></circle>
                    <circle cx="103.8" cy="227.4" r="5"></circle>
                    <circle cx="103.8" cy="252.1" r="5"></circle>
                    <circle cx="103.8" cy="276.7" r="5"></circle>
                    <circle cx="103.8" cy="301.4" r="5"></circle>
                    <circle cx="103.8" cy="326.1" r="5"></circle>
                    <circle cx="103.8" cy="350.7" r="5"></circle>
                    <circle cx="103.8" cy="375.4" r="5"></circle>
                    <circle cx="103.8" cy="400.1" r="5"></circle>
                    <circle cx="103.8" cy="424.7" r="5"></circle>
                    <circle cx="103.8" cy="449.4" r="5"></circle>
                    <circle cx="79.1" cy="178.1" r="5"></circle>
                    <circle cx="79.1" cy="202.7" r="5"></circle>
                    <circle cx="79.1" cy="227.4" r="5"></circle>
                    <circle cx="79.1" cy="252.1" r="5"></circle>
                    <circle cx="79.1" cy="276.7" r="5"></circle>
                    <circle cx="79.1" cy="301.4" r="5"></circle>
                    <circle cx="79.1" cy="326.1" r="5"></circle>
                    <circle cx="79.1" cy="350.7" r="5"></circle>
                    <circle cx="79.1" cy="375.4" r="5"></circle>
                    <circle cx="79.1" cy="400.1" r="5"></circle>
                    <circle cx="79.1" cy="424.7" r="5"></circle>
                    <circle cx="79.1" cy="449.4" r="5"></circle>
                    <circle cx="54.4" cy="227.4" r="5"></circle>
                    <circle cx="54.4" cy="252.1" r="5"></circle>
                    <circle cx="54.4" cy="276.7" r="5"></circle>
                    <circle cx="54.4" cy="301.4" r="5"></circle>
                    <circle cx="54.4" cy="326.1" r="5"></circle>
                    <circle cx="54.4" cy="350.7" r="5"></circle>
                    <circle cx="54.4" cy="375.4" r="5"></circle>
                    <circle cx="54.4" cy="400.1" r="5"></circle>
                    <circle cx="54.4" cy="424.7" r="5"></circle>
                    <circle cx="54.4" cy="449.4" r="5"></circle>
                    <circle cx="29.8" cy="252.1" r="5"></circle>
                    <circle cx="29.8" cy="276.7" r="5"></circle>
                    <circle cx="29.8" cy="301.4" r="5"></circle>
                    <circle cx="29.8" cy="326.1" r="5"></circle>
                    <circle cx="29.8" cy="350.7" r="5"></circle>
                    <circle cx="29.8" cy="375.4" r="5"></circle>
                    <circle cx="29.8" cy="400.1" r="5"></circle>
                    <circle cx="29.8" cy="424.7" r="5"></circle>
                    <circle cx="29.8" cy="449.4" r="5"></circle>
                    <circle cx="5.1" cy="301.4" r="5"></circle>
                    <circle cx="5.1" cy="326.1" r="5"></circle>
                    <circle cx="5.1" cy="350.7" r="5"></circle>
                    <circle cx="5.1" cy="375.4" r="5"></circle>
                    <circle cx="5.1" cy="400.1" r="5"></circle>
                    <circle cx="5.1" cy="424.7" r="5"></circle>
                </g>
                <g transform="translate(462.000000, 3.000000)">
                    <path d="M477.2,26.5 C462.7,9.6 441.7,0.4 418.3,0.4 L223.5,0.4 C174.1,0.4 127.8,42 120.2,93.2 L37.3,652.4 C33.5,678.4 39.9,702.6 55.4,720.6 C69.9,737.5 90.9,746.7 114.3,746.7 L309.1,746.7 C358.5,746.7 404.8,705.1 412.4,653.9 L495.3,94.7 C499.1,68.7 492.7,44.5 477.2,26.5 Z" id="Path" fill="#383A48"></path>
                    <g>
                        <path d="M382.4,5.4 L187.7,5.4 C140.6,5.4 96.6,45.1 89.4,94 L6.5,653.2 C-0.8,702.1 31.5,741.8 78.6,741.8 L273.4,741.8 C320.5,741.8 364.5,702.1 371.7,653.2 L454.6,94 C461.8,45 429.5,5.4 382.4,5.4 Z" id="Path" fill="#F3F6E6"></path>
                        <path d="M273.2,746.7 L78.5,746.7 C55.1,746.7 34.1,737.4 19.6,720.6 C4.1,702.6 -2.4,678.4 1.5,652.4 L84.4,93.2 C92,42 138.3,0.4 187.7,0.4 L382.5,0.4 C405.9,0.4 426.9,9.7 441.4,26.5 C456.9,44.5 463.4,68.7 459.5,94.7 L376.6,653.9 C368.9,705.1 322.6,746.7 273.2,746.7 Z M187.7,10.4 C143.1,10.4 101.2,48.2 94.3,94.7 L11.4,653.9 C8,676.9 13.6,698.3 27.2,714.1 C39.8,728.7 58,736.8 78.5,736.8 L273.3,736.8 C317.9,736.8 359.8,699 366.7,652.5 L449.6,93.3 C453,70.3 447.4,48.9 433.8,33.1 C421.2,18.5 403,10.4 382.5,10.4 L187.7,10.4 L187.7,10.4 Z" id="Shape" fill="#383A48"></path>
                    </g>
                    <path d="M382.4,0.4 L182,0.4 C179.2,0.4 177,2.6 177,5.4 C177,8.2 179.2,10.4 182,10.4 L197.5,10.4 C200.2,10.4 202.6,11.4 204.2,13.3 C206,15.4 206.7,18.3 206.3,21.5 C205.4,27.5 207,33.4 210.7,37.7 C214.2,41.8 219.3,44.1 225,44.1 L335.2,44.1 C346.7,44.1 357.1,34.8 358.9,23 C359.9,16.2 366.2,10.4 372.7,10.4 L382.6,10.4 C385.4,10.4 387.6,8.2 387.6,5.4 C387.4,2.6 385.2,0.4 382.4,0.4 Z" id="Path" fill="#383A48"></path>
                    <g transform="translate(130.000000, 268.000000)">
                        <g transform="translate(59.000000, 0.000000)">
                            <path d="M42.8,96.7 L42.8,96.7 C18.5,96.7 1.8,76.2 5.5,50.9 L5.5,50.9 C9.3,25.6 32,5.1 56.3,5.1 L56.3,5.1 C80.6,5.1 97.3,25.6 93.6,50.9 L93.6,50.9 C89.9,76.2 67.1,96.7 42.8,96.7 Z" id="Path" fill="#F6E049"></path>
                            <path d="M42.8,101.7 C30,101.7 18.5,96.6 10.5,87.4 C2,77.5 -1.5,64.3 0.6,50.2 C4.7,22.6 29.7,0.1 56.4,0.1 C69.2,0.1 80.7,5.2 88.7,14.4 C97.2,24.3 100.7,37.5 98.6,51.6 C94.5,79.2 69.4,101.7 42.8,101.7 Z M56.4,10.1 C34.5,10.1 13.9,28.7 10.5,51.6 C8.8,62.8 11.5,73.2 18.1,80.8 C24.2,87.8 32.9,91.7 42.8,91.7 C64.7,91.7 85.3,73.1 88.7,50.2 C90.4,39 87.7,28.6 81.1,21 C75,13.9 66.2,10.1 56.4,10.1 Z" id="Shape" fill="#383A48"></path>
                        </g>
                        <g transform="translate(0.000000, 92.000000)" id="Path">
                            <path d="M165.4,114 L169.2,88.3 C176,42.5 145.8,5.3 101.7,5.3 L101.7,5.3 C57.6,5.3 16.4,42.4 9.6,88.3 L5.8,114" fill="#7FD6C2"></path>
                            <path d="M10.7,114.7 L0.8,113.2 L4.6,87.5 C11.7,39.4 55.3,0.3 101.7,0.3 C123.8,0.3 143.4,9 157.1,24.9 C171.7,41.8 177.8,64.6 174.1,89 L170.3,114.7 L160.4,113.2 L164.2,87.5 C167.4,66 162.2,46.1 149.5,31.4 C137.7,17.8 120.8,10.3 101.7,10.3 C60.1,10.3 21,45.6 14.5,89 L10.7,114.7 Z" fill="#383A48"></path>
                        </g>
                    </g>
                    <path d="M260.1,717 L100.4,717 C97.6,717 95.4,714.8 95.4,712 C95.4,709.2 97.6,707 100.4,707 L260,707 C262.8,707 265,709.2 265,712 C265,714.8 262.8,717 260.1,717 Z" id="Path" fill="#383A48"></path>
                    <g transform="translate(312.000000, 193.000000)" id="Path">
                        <polyline fill="#F3F6E6" points="5.1 5.3 64.1 5.3 55 66.6"></polyline>
                        <path d="M55,71.6 C54.8,71.6 54.5,71.6 54.3,71.5 C51.6,71.1 49.7,68.6 50.1,65.8 L58.3,10.3 L5.2,10.3 C2.4,10.3 0.2,8.1 0.2,5.3 C0.2,2.5 2.4,0.3 5.2,0.3 L64.1,0.3 C65.6,0.3 66.9,0.9 67.9,2 C68.8,3.1 69.3,4.6 69.1,6 L60,67.3 C59.6,69.8 57.4,71.6 55,71.6 Z" fill="#383A48"></path>
                    </g>
                    <g transform="translate(261.000000, 474.000000)" id="Path">
                        <polyline fill="#F3F6E6" points="5.3 67.1 64.2 67.1 73.3 5.8"></polyline>
                        <path d="M64.2,72.1 L5.3,72.1 C2.5,72.1 0.3,69.9 0.3,67.1 C0.3,64.3 2.5,62.1 5.3,62.1 L59.9,62.1 L68.4,5.1 C68.8,2.4 71.3,0.5 74.1,0.9 C76.8,1.3 78.7,3.8 78.3,6.6 L69.2,67.9 C68.8,70.3 66.7,72.1 64.2,72.1 Z" fill="#383A48"></path>
                    </g>
                    <g transform="translate(122.000000, 193.000000)" id="Path">
                        <polyline fill="#F3F6E6" points="73.7 5.3 14.8 5.3 5.7 66.6"></polyline>
                        <path d="M5.7,71.6 C5.5,71.6 5.2,71.6 5,71.5 C2.3,71.1 0.4,68.6 0.8,65.8 L9.9,4.5 C10.3,2 12.4,0.2 14.8,0.2 L73.7,0.2 C76.5,0.2 78.7,2.4 78.7,5.2 C78.7,8 76.5,10.2 73.7,10.2 L19.1,10.2 L10.6,67.2 C10.3,69.8 8.2,71.6 5.7,71.6 Z" fill="#383A48"></path>
                    </g>
                    <g transform="translate(80.000000, 474.000000)" id="Path">
                        <polyline fill="#F3F6E6" points="64.9 67.1 6 67.1 15.1 5.8"></polyline>
                        <path d="M64.9,72.1 L6,72.1 C4.5,72.1 3.2,71.5 2.2,70.4 C1.3,69.3 0.8,67.8 1,66.4 L10.1,5.1 C10.5,2.4 13,0.5 15.8,0.9 C18.5,1.3 20.4,3.8 20,6.6 L11.8,62.1 L64.9,62.1 C67.7,62.1 69.9,64.3 69.9,67.1 C69.9,69.9 67.7,72.1 64.9,72.1 Z" fill="#383A48"></path>
                    </g>
                </g>
                <path d="M1456.9,751.6 L367.4,751.6 C364.6,751.6 362.4,749.4 362.4,746.6 C362.4,743.8 364.6,741.6 367.4,741.6 L1456.9,741.6 C1459.7,741.6 1461.9,743.8 1461.9,746.6 C1461.9,749.4 1459.6,751.6 1456.9,751.6 Z" id="Path" fill="#383A48"></path>
                <g transform="translate(948.000000, 120.000000)">
                    <polygon id="Path" fill="#F3F6E6" points="329.3 363.3 471.5 557.8 385.6 626.7 242.8 431.4 156.3 560.3 63 217.7 5.4 5.8 87.7 57.6 477.5 302.6"></polygon>
                    <path d="M385.6,631.7 C385.4,631.7 385.2,631.7 384.9,631.7 C383.5,631.5 382.3,630.8 381.5,629.7 L243,440.1 L160.4,563.1 C159.3,564.7 157.4,565.6 155.4,565.2 C153.5,564.9 151.9,563.5 151.4,561.6 L58.2,219 L0.5,7.2 C4.16333634e-15,5.2 0.7,3.1 2.3,1.9 C4,0.7 6.2,0.6 7.9,1.7 L90.2,53.4 L480,298.4 C481.6,299.4 482.5,301.2 482.3,303.1 C482.1,305 480.9,306.6 479.2,307.3 L336.9,365.6 L475.3,554.9 C476.9,557.1 476.5,560.1 474.4,561.8 L388.6,630.7 C387.9,631.3 386.8,631.7 385.6,631.7 Z M242.8,426.4 C244.4,426.4 245.9,427.2 246.8,428.4 L386.5,619.5 L464.5,556.9 L325.1,366.3 C324.2,365.1 323.9,363.5 324.3,362 C324.7,360.5 325.8,359.3 327.2,358.7 L466.5,301.7 L84.9,61.9 L13.4,17 L67.7,216.5 L158.1,548.6 L238.5,428.7 C239.4,427.3 240.9,426.5 242.6,426.5 C242.8,426.4 242.8,426.4 242.8,426.4 Z" id="Shape" fill="#383A48"></path>
                    <path d="M90.4,53.4 L8.1,1.7 C6.4,0.6 4.1,0.7 2.5,1.9 C0.8,3.1 0.1,5.2 0.7,7.2 L58.4,219 C59,221.2 61,222.7 63.2,222.7 C63.3,222.7 63.4,222.7 63.5,222.7 C65.9,222.6 67.8,220.8 68.2,218.5 L92.9,58.4 C93,56.4 92.1,54.4 90.4,53.4 Z" id="Path" fill="#383A48"></path>
                </g>
                <path d="M458.8,5.5 C457.9,4.2 456.3,3.4 454.7,3.4 L5.1,3.4 C2.3,3.4 0.1,5.6 0.1,8.4 L0.1,176.6 L5.1,176.6 L130.5,250 L130.5,250 L132.7,254.5 C156.5,242.9 181.8,232.8 208.7,222.1 C258.3,202.3 309.7,181.9 354.4,150.1 C405.5,113.9 439.8,68 459.5,10 C460,8.5 459.8,6.8 458.8,5.5 Z" id="Path" fill="#F3F6E6"></path>
                <g transform="translate(0.000000, 190.000000)">
                    <g>
                        <circle id="Oval" fill="#F6E049" cx="174.3" cy="174.6" r="169.2"></circle>
                        <path d="M174.3,348.8 C78.2,348.8 0.1,270.7 0.1,174.6 C0.1,78.5 78.2,0.4 174.3,0.4 C270.4,0.4 348.5,78.5 348.5,174.6 C348.5,270.7 270.4,348.8 174.3,348.8 Z M174.3,10.4 C83.8,10.4 10.1,84.1 10.1,174.6 C10.1,265.1 83.8,338.8 174.3,338.8 C264.8,338.8 338.5,265.1 338.5,174.6 C338.5,84.1 264.9,10.4 174.3,10.4 Z" id="Shape" fill="#383A48"></path>
                    </g>
                    <circle id="Oval" fill="#383A48" cx="120.3" cy="149.9" r="18.1"></circle>
                    <circle id="Oval" fill="#383A48" cx="228.4" cy="149.9" r="18.1"></circle>
                    <path d="M174.3,248.8 C149,248.8 125.8,233.9 115.3,210.9 C114.1,208.4 115.3,205.4 117.8,204.3 C120.3,203.1 123.3,204.3 124.4,206.8 C133.3,226.3 152.9,238.8 174.3,238.8 C195.7,238.8 215.3,226.2 224.2,206.8 C225.4,204.3 228.3,203.2 230.8,204.3 C233.3,205.5 234.4,208.4 233.3,210.9 C222.8,233.9 199.6,248.8 174.3,248.8 Z" id="Path" fill="#383A48"></path>
                </g>
                <g transform="translate(0.000000, 96.000000)">
                    <g>
                        <circle id="Oval" fill="#F6E049" cx="174.3" cy="174.6" r="169.2"></circle>
                        <path d="M174.3,348.8 C78.2,348.8 0.1,270.7 0.1,174.6 C0.1,78.5 78.2,0.4 174.3,0.4 C270.4,0.4 348.5,78.5 348.5,174.6 C348.5,270.7 270.4,348.8 174.3,348.8 Z M174.3,10.4 C83.8,10.4 10.1,84.1 10.1,174.6 C10.1,265.1 83.8,338.8 174.3,338.8 C264.8,338.8 338.5,265.1 338.5,174.6 C338.5,84.1 264.9,10.4 174.3,10.4 Z" id="Shape" fill="#383A48"></path>
                    </g>
                    <circle id="Oval" fill="#383A48" cx="120.3" cy="149.9" r="18.1"></circle>
                    <circle id="Oval" fill="#383A48" cx="228.4" cy="149.9" r="18.1"></circle>
                    <path d="M174.3,248.8 C149,248.8 125.8,233.9 115.3,210.9 C114.1,208.4 115.3,205.4 117.8,204.3 C120.3,203.1 123.3,204.3 124.4,206.8 C133.3,226.3 152.9,238.8 174.3,238.8 C195.7,238.8 215.3,226.2 224.2,206.8 C225.4,204.3 228.3,203.2 230.8,204.3 C233.3,205.5 234.4,208.4 233.3,210.9 C222.8,233.9 199.6,248.8 174.3,248.8 Z" id="Path" fill="#383A48"></path>
                </g>
                <g transform="translate(0.000000, 2.000000)">
                    <g>
                        <circle id="Oval" fill="#F6E049" cx="174.3" cy="174.6" r="169.2"></circle>
                        <path d="M174.3,348.8 C78.2,348.8 0.1,270.7 0.1,174.6 C0.1,78.5 78.2,0.4 174.3,0.4 C270.4,0.4 348.5,78.5 348.5,174.6 C348.5,270.7 270.4,348.8 174.3,348.8 Z M174.3,10.4 C83.8,10.4 10.1,84.1 10.1,174.6 C10.1,265.1 83.8,338.8 174.3,338.8 C264.8,338.8 338.500102,265.1 338.500102,174.6 C338.6,84.1 264.9,10.4 174.3,10.4 Z" id="Shape" fill="#383A48"></path>
                    </g>
                    <circle id="Oval" fill="#383A48" cx="120.3" cy="149.9" r="18.1"></circle>
                    <circle id="Oval" fill="#383A48" cx="228.4" cy="149.9" r="18.1"></circle>
                    <path d="M174.3,248.8 C149,248.8 125.8,233.9 115.3,210.9 C114.1,208.4 115.3,205.4 117.8,204.3 C120.3,203.1 123.3,204.3 124.4,206.8 C133.3,226.3 152.9,238.8 174.3,238.8 C195.7,238.8 215.3,226.2 224.2,206.8 C225.4,204.3 228.3,203.2 230.8,204.3 C233.3,205.5 234.4,208.4 233.3,210.9 C222.8,233.9 199.6,248.8 174.3,248.8 Z" id="Path" fill="#383A48"></path>
                </g>
                <g transform="translate(1058.000000, 0.000000)" fill="#383A48">
                    <path d="M79.7,145.5 C78.8,145.5 77.9,145.3 77,144.7 C67.2,138.6 60.4,128.9 56.9,116.7 C44.4,118.9 32.7,116.9 22.9,110.8 C8.8,102 0.8,85.6 0.3,64.8 C-0.2,44.7 6.5,22.7 19,2.7 C20.5,0.4 23.6,-0.3 25.9,1.1 C28.2,2.6 28.9,5.7 27.5,8 C16,26.3 9.9,46.4 10.3,64.5 C10.7,81.9 17.1,95.3 28.2,102.3 C35.7,107 44.9,108.5 54.9,106.9 C54.6,104.3 54.4,101.7 54.3,98.9 C53.8,78.9 60.3,56.9 72.8,37 C80.3,25.1 89.7,15.5 99.4,10.1 C109.2,4.6 118.6,3.8 125.1,7.8 C131.6,11.9 135,20.7 134.3,32 C133.6,43.1 129.2,55.7 121.7,67.7 C109.2,87.6 92.3,103.1 74.1,111.3 C71.6,112.4 69.1,113.4 66.6,114.2 C69.4,123.7 74.6,131.4 82.3,136.2 C84.6,137.7 85.3,140.8 83.9,143.1 C83,144.7 81.4,145.5 79.7,145.5 Z M115.7,15.3 C112.5,15.3 108.6,16.5 104.4,18.9 C96.2,23.5 88,31.8 81.4,42.4 C68.2,63.4 62.7,86 64.7,104.4 C66.5,103.8 68.2,103.1 70,102.3 C86.4,94.9 101.8,80.7 113.3,62.5 C119.9,52 123.8,41 124.4,31.6 C124.8,24.3 123.1,18.5 119.9,16.5 C118.8,15.6 117.3,15.3 115.7,15.3 Z" id="Shape"></path>
                    <path d="M187.9,213.3 C187,213.3 186.1,213.1 185.2,212.5 C175.4,206.4 168.6,196.7 165.1,184.5 C152.6,186.7 140.9,184.7 131.1,178.6 C128.8,177.1 128.1,174 129.5,171.7 C131,169.4 134.1,168.7 136.4,170.1 C143.9,174.8 153.1,176.3 163.1,174.7 C162.8,172.1 162.6,169.5 162.5,166.7 C162,146.7 168.5,124.7 181,104.8 C198.5,77 221.3,68.1 233.4,75.7 C245.4,83.2 247.4,107.6 229.9,135.5 C217.4,155.4 200.5,170.9 182.3,179.1 C179.8,180.2 177.3,181.2 174.8,182 C177.6,191.7 183,199.3 190.5,204 C192.8,205.5 193.5,208.6 192.1,210.9 C191.2,212.5 189.6,213.3 187.9,213.3 Z M223.8,83.1 C215.4,83.1 201.2,91.7 189.6,110.1 C178.1,128.4 172.1,148.4 172.6,166.4 C172.7,168.4 172.8,170.3 173,172.1 C174.8,171.5 176.5,170.8 178.3,170 C194.7,162.6 210.1,148.4 221.6,130.2 C235.6,107.9 234.9,88.4 228.2,84.2 C227,83.5 225.5,83.1 223.8,83.1 Z" id="Shape"></path>
                    <path d="M133.8,179.4 C132.9,179.4 132,179.2 131.1,178.6 C121.3,172.5 114.5,162.8 111,150.6 C98.5,152.8 86.8,150.8 77,144.7 C74.7,143.2 74,140.1 75.4,137.8 C76.9,135.5 80,134.8 82.3,136.2 C90,141 99.2,142.4 109,140.8 C108.7,138.2 108.5,135.5 108.4,132.8 C107.9,112.8 114.4,90.8 126.9,70.9 C144.4,43.1 167.2,34.2 179.2,41.7 C191.2,49.2 193.2,73.7 175.8,101.5 C163.3,121.4 146.4,136.9 128.2,145.1 C125.7,146.2 123.2,147.2 120.7,148 C123.5,157.7 128.9,165.3 136.4,170 C138.7,171.5 139.4,174.6 138,176.9 C137.1,178.6 135.5,179.4 133.8,179.4 Z M169.7,49.2 C161.4,49.2 147.1,57.8 135.5,76.3 C124,94.6 118,114.6 118.5,132.6 C118.6,134.6 118.7,136.5 118.9,138.3 C136.3,132.1 154.3,117.3 167.5,96.3 C181.5,74 180.8,54.5 174.1,50.3 C172.8,49.5 171.4,49.2 169.7,49.2 Z" id="Shape"></path>
                    <path d="M242.1,247.3 C241.2,247.3 240.3,247.1 239.4,246.5 C229.6,240.4 222.8,230.7 219.3,218.5 C206.8,220.7 195.1,218.7 185.3,212.6 C183,211.1 182.3,208 183.7,205.7 C185.2,203.4 188.3,202.7 190.6,204.1 C198.3,208.9 207.5,210.3 217.3,208.7 C217,206.1 216.8,203.4 216.7,200.7 C216.2,180.7 222.7,158.7 235.2,138.8 C252.7,111 275.5,102.1 287.5,109.6 C294,113.7 297.4,122.5 296.7,133.8 C296,144.9 291.6,157.5 284.1,169.5 C271.6,189.4 254.7,204.9 236.5,213.1 C234,214.2 231.5,215.2 229,216 C231.8,225.7 237.2,233.3 244.7,238 C247,239.5 247.7,242.6 246.3,244.9 C245.4,246.5 243.7,247.3 242.1,247.3 Z M277.9,117.1 C269.6,117.1 255.3,125.7 243.7,144.2 C232.2,162.5 226.2,182.5 226.7,200.5 C226.8,202.5 226.9,204.4 227.1,206.2 C244.5,200 262.5,185.2 275.7,164.2 C282.3,153.7 286.2,142.7 286.8,133.3 C287.2,126 285.5,120.2 282.3,118.2 C281.1,117.4 279.6,117.1 277.9,117.1 Z" id="Shape"></path>
                    <path d="M263.7,253.3 C254.8,253.3 246.6,251 239.4,246.5 C237.1,245 236.4,241.9 237.8,239.6 C239.3,237.3 242.4,236.6 244.7,238 C268.4,252.9 306.5,234.9 329.7,198 C331.2,195.7 334.3,195 336.6,196.4 C338.9,197.9 339.6,201 338.2,203.3 C325.7,223.2 308.8,238.7 290.6,246.9 C281.3,251.2 272.2,253.3 263.7,253.3 Z" id="Path"></path>
                </g>
                <g transform="translate(402.000000, 236.000000)" fill="#383A48" id="Path">
                    <path d="M46.3,28.7 C43.5,28.7 41.3,26.5 41.3,23.7 L41.3,5.7 C41.3,2.9 43.5,0.7 46.3,0.7 C49.1,0.7 51.3,2.9 51.3,5.7 L51.3,23.7 C51.3,26.5 49,28.7 46.3,28.7 Z"></path>
                    <path d="M46.3,93.4 C43.5,93.4 41.3,91.2 41.3,88.4 L41.3,70.4 C41.3,67.6 43.5,65.4 46.3,65.4 C49.1,65.4 51.3,67.6 51.3,70.4 L51.3,88.4 C51.3,91.1 49,93.4 46.3,93.4 Z"></path>
                    <path d="M23,52 L5,52 C2.2,52 0,49.8 0,47 C0,44.2 2.2,42 5,42 L23,42 C25.8,42 28,44.2 28,47 C28,49.8 25.7,52 23,52 Z"></path>
                    <path d="M87.6,52 L69.6,52 C66.8,52 64.6,49.8 64.6,47 C64.6,44.2 66.8,42 69.6,42 L87.6,42 C90.4,42 92.6,44.2 92.6,47 C92.6,49.8 90.4,52 87.6,52 Z"></path>
                    <path d="M29.8,35.6 C28.5,35.6 27.2,35.1 26.3,34.1 L13.6,21.4 C11.6,19.4 11.6,16.3 13.6,14.3 C15.6,12.3 18.7,12.3 20.7,14.3 L33.4,27 C35.4,29 35.4,32.1 33.4,34.1 C32.4,35.1 31.1,35.6 29.8,35.6 Z"></path>
                    <path d="M75.5,81.3 C74.2,81.3 72.9,80.8 72,79.8 L59.3,67.1 C57.3,65.1 57.3,62 59.3,60 C61.3,58 64.4,58 66.4,60 L79.1,72.7 C81.1,74.7 81.1,77.8 79.1,79.8 C78.1,80.8 76.8,81.3 75.5,81.3 Z"></path>
                    <path d="M17,81.3 C15.7,81.3 14.4,80.8 13.5,79.8 C11.5,77.8 11.5,74.7 13.5,72.7 L26.2,60 C28.2,58 31.3,58 33.3,60 C35.3,62 35.3,65.1 33.3,67.1 L20.6,79.8 C19.6,80.8 18.3,81.3 17,81.3 Z"></path>
                    <path d="M62.8,35.6 C61.5,35.6 60.2,35.1 59.3,34.1 C57.3,32.1 57.3,29 59.3,27 L72,14.3 C74,12.3 77.1,12.3 79.1,14.3 C81.1,16.3 81.1,19.4 79.1,21.4 L66.4,34.1 C65.3,35.1 64,35.6 62.8,35.6 Z"></path>
                </g>
                <path d="M989.9,583.6 C977.9,583.6 976.6,572.2 976.6,567.3 C976.6,564.5 974.4,562.3 971.6,562.3 C968.8,562.3 966.6,564.5 966.6,567.3 C966.6,572.2 965.3,583.6 953.3,583.6 C950.5,583.6 948.3,585.8 948.3,588.6 C948.3,591.4 950.5,593.6 953.3,593.6 C965.3,593.6 966.6,605 966.6,609.9 C966.6,612.7 968.8,614.9 971.6,614.9 C974.4,614.9 976.6,612.7 976.6,609.9 C976.6,605 977.9,593.6 989.9,593.6 C992.7,593.6 994.9,591.4 994.9,588.6 C994.9,585.8 992.6,583.6 989.9,583.6 Z" id="Path" fill="#383A48"></path>
                <path d="M509.7,107.1 C497.7,107.1 496.4,95.7 496.4,90.8 C496.4,88 494.2,85.8 491.4,85.8 C488.6,85.8 486.4,88 486.4,90.8 C486.4,95.7 485.1,107.1 473.1,107.1 C470.3,107.1 468.1,109.3 468.1,112.1 C468.1,114.9 470.3,117.1 473.1,117.1 C485.1,117.1 486.4,128.5 486.4,133.4 C486.4,136.2 488.6,138.4 491.4,138.4 C494.2,138.4 496.4,136.2 496.4,133.4 C496.4,128.5 497.7,117.1 509.7,117.1 C512.5,117.1 514.7,114.9 514.7,112.1 C514.7,109.3 512.4,107.1 509.7,107.1 Z" id="Path" fill="#383A48"></path>
                <path d="M174.9,623 C162.9,623 161.6,611.6 161.6,606.7 C161.6,603.9 159.4,601.7 156.6,601.7 C153.8,601.7 151.6,603.9 151.6,606.7 C151.6,611.6 150.3,623 138.3,623 C135.5,623 133.3,625.2 133.3,628 C133.3,630.8 135.5,633 138.3,633 C150.3,633 151.6,644.4 151.6,649.3 C151.6,652.1 153.8,654.3 156.6,654.3 C159.4,654.3 161.6,652.1 161.6,649.3 C161.6,644.4 162.9,633 174.9,633 C177.7,633 179.9,630.8 179.9,628 C179.9,625.2 177.7,623 174.9,623 Z" id="Path" fill="#383A48"></path>
            </g>
        </g>
    </g>
</svg>