<?xml version="1.0" encoding="utf-8"?>
<!-- Generator: Adobe Illustrator 22.0.1, SVG Export Plug-In . SVG Version: 6.00 Build 0)  -->
<svg version="1.1" id="Layer_1" xmlns="http://www.w3.org/2000/svg" xmlns:xlink="http://www.w3.org/1999/xlink" x="0px" y="0px" viewBox="0 0 1920 1080" style="enable-background:new 0 0 1920 1080;" xml:space="preserve">

<rect y="0" width="1920" height="1080" style="fill:#F6E049;"/>
<g>
	<path d="M1029.5,915.5c-1.2-0.6-120.8-60.3-241.4-133.5c-158.5-96.2-246.5-171.6-254.5-217.8
		c-24.1-138.4-78.2-166.7-130.6-194c-54.4-28.4-105.8-55.3-119.8-210.6c-0.2-2.6-2.4-4.6-5-4.6h-89.1c-2.8,0-5,2.2-5,5v615.2
		c0,82.6,67.2,149.8,149.8,149.8h693.3c2.3,0,4.3-1.6,4.9-3.9S1031.6,916.6,1029.5,915.5z" style="fill:#F3F6E6;"/>
	<path d="M1730.8,155H1135c-1.7,0-3.2,0.8-4.1,2.2s-1.1,3.1-0.5,4.7c35.5,88.5,80.5,154.7,137.5,202.5
		c50.5,42.3,104.3,65.6,156.3,88.1c66.9,29,130.2,56.3,183.2,121.2c28.5,34.9,51.6,77.5,70.5,130.4c21.3,59.4,37,130.2,48,216.5
		c0.3,2.5,2.5,4.4,5,4.4c0.1,0,0.2,0,0.3,0c2.6-0.2,4.7-2.4,4.7-5V160C1735.8,157.2,1733.6,155,1730.8,155z" style="fill:#F3F6E6;"/>
	<g>
		<g>
			<path d="M1730.8,925H323.7c-2.8,0-5-2.2-5-5s2.2-5,5-5h1407.1c2.8,0,5,2.2,5,5S1733.6,925,1730.8,925z" style="fill:#383A48;"/>
		</g>
		<g>
			<g>
				<path d="M727.7,920H419.8v-13.4c0-52.2,42.3-94.6,94.6-94.6h194.5" style="fill:#F6E049;"/>
				<path d="M727.7,925H419.8c-2.8,0-5-2.2-5-5v-13.4c0-54.9,44.7-99.6,99.6-99.6h194.5c2.8,0,5,2.2,5,5s-2.2,5-5,5
					H514.4c-49.4,0-89.6,40.2-89.6,89.6v8.4h302.9c2.8,0,5,2.2,5,5S730.4,925,727.7,925z" style="fill:#383A48;"/>
			</g>
			<g>
				<path d="M514.4,817.3h16.1c13.8,0,25,11.2,25,25v47.6c0,13.8-11.2,25-25,25H424.7v-7.8
					C424.7,857.4,464.9,817.3,514.4,817.3z" style="fill:#F3F6E6;"/>
			</g>
			<g>
				<path d="M458.5,925c-2.8,0-5-2.2-5-5v-13.4c0-15.5,3.5-30.4,10.3-44.2c1.2-2.5,4.2-3.5,6.7-2.3s3.5,4.2,2.3,6.7
					c-6.2,12.4-9.3,25.8-9.3,39.8V920C463.5,922.8,461.2,925,458.5,925z" style="fill:#383A48;"/>
			</g>
			<g>
				<path d="M493.1,925c-2.8,0-5-2.2-5-5v-13.4c0-15.5,3.5-30.4,10.3-44.2c1.2-2.5,4.2-3.5,6.7-2.3s3.5,4.2,2.3,6.7
					c-6.2,12.4-9.3,25.8-9.3,39.8V920C498.1,922.8,495.9,925,493.1,925z" style="fill:#383A48;"/>
			</g>
		</g>
		<g>
			<path d="M1578.2,766c-0.8,85.3-70.3,154-155.6,154H812.3V548.1c71.2,30.9,112.3,15.1,155.5-21.2
				c7.1-5.9,14.2-12.4,21.5-19.3c13.6-12.9,27.9-27.3,43.8-42.4c5.4-5.2,10.9-10.1,16.5-14.8c17.1-14.4,35.1-27,53.7-37.6l0,0
				c29.5-16.9,60.5-29.2,92-37.1l0,0c23.3-5.9,46.7-9.3,69.9-10.5c41.6-2.1,82.2,3.1,119.3,15.2c1.5,0.5,3,1,4.5,1.5l0,0
				c62.8,21.5,114.6,62.9,141.2,120.9C1573.9,598.1,1579.2,668.4,1578.2,766z" style="fill:#F6E049;"/>
			<path d="M1422.6,925H812.3c-2.8,0-5-2.2-5-5V548.1c0-1.7,0.8-3.3,2.3-4.2c1.4-0.9,3.2-1.1,4.7-0.4
				c33.3,14.4,60.4,19,85.3,14.3c21.1-4,41.1-14.7,65-34.7c6.4-5.4,13.2-11.5,21.3-19.1c7.1-6.7,14.4-13.8,22.1-21.3
				c7-6.8,14.2-13.9,21.7-21.1c5.4-5.2,11.1-10.2,16.7-15c16.9-14.3,35.3-27.2,54.4-38.2c0.1,0,0.1-0.1,0.2-0.1
				c29.1-16.7,60.4-29.3,93-37.5h0.1c23.2-5.8,47-9.4,70.7-10.6c41.7-2.1,83.5,3.2,121.1,15.4c1.5,0.5,2.9,1,4.4,1.5
				c0.1,0,0.1,0,0.2,0.1c66.9,22.9,118.1,66.8,144.1,123.6c21,45.8,34.1,87.8,41.2,132.1c7.2,44.8,7.8,90.5,7.4,133.3l0,0
				c-0.4,42.6-17.3,82.5-47.6,112.5C1505.3,908.5,1465.2,925,1422.6,925z M817.3,915h605.3c39.9,0,77.6-15.5,106-43.6
				s44.3-65.6,44.6-105.5c0.5-48.9-0.6-90-7.2-131.6c-7-43.4-19.8-84.6-40.4-129.5c-24.8-54.2-73.9-96.2-138.1-118.2
				c-0.1,0-0.1,0-0.2-0.1c-1.5-0.5-2.9-1-4.4-1.5c-36.4-11.8-77-17-117.5-14.9c-23.1,1.2-46.3,4.7-68.9,10.4c-0.1,0-0.1,0-0.2,0
				c-31.7,8-62.2,20.3-90.5,36.6c-0.1,0-0.1,0.1-0.2,0.1c-18.6,10.7-36.3,23.1-52.8,37c-5.5,4.7-11,9.6-16.3,14.6
				c-7.5,7.2-14.7,14.2-21.6,21c-7.7,7.5-15,14.7-22.2,21.5c-8.3,7.8-15.2,14-21.7,19.5c-25.2,21.2-46.7,32.6-69.6,36.9
				c-25.2,4.7-52.1,0.9-84.2-12L817.3,915L817.3,915z M1578.2,766L1578.2,766L1578.2,766z" style="fill:#383A48;"/>
		</g>
		<g>
			<g>
				<path d="M1165.1,636.8c-4,1.4-8,2.1-12,2.1c-14.3,0-27.7-8.8-32.9-23.1c-15.4-42.3-41.3-72.8-77.1-90.6
					c-25.4-12.7-46.6-14.1-46.8-14.1c-0.9,0-1.8-0.1-2.7-0.2c13.6-12.9,27.9-27.3,43.8-42.5c5.4-5.2,10.9-10.1,16.5-14.8
					c6.5,2.5,13.4,5.4,20.4,8.9c36.1,18,84.7,55,111.7,129.4C1192.6,610.1,1183.3,630.2,1165.1,636.8z" style="fill:#F3F6E6;"/>
			</g>
		</g>
		<g>
			<g>
				<path d="M1273.5,563.7c-3.3,0.9-6.5,1.4-9.7,1.3c-15.2-0.1-29.1-10.1-33.5-25.4c-14.2-50.1-41.6-86.2-81.5-107.4
					c-16.4-8.7-31.9-13.2-42.8-15.4c29.6-16.8,60.7-28.9,92.1-36.7l0,0c36.9,23.9,78.4,66.3,99.5,140.4
					C1302.8,539,1292,558.4,1273.5,563.7z" style="fill:#F3F6E6;"/>
			</g>
		</g>
		<g>
			<g>
				<path d="M1397,504.2c-3,0.7-6,1.1-9,1c-15.5-0.2-29.5-10.8-33.5-26.5c-10.9-43.6-33.6-76.6-67.4-98.1
					c-6.7-4.3-13.2-7.6-19-10.2c43.3-1.6,85.5,4.7,123.5,18.4l0,0c12.6,19.8,23.5,43.9,30.7,72.9
					C1427.2,480.5,1415.8,499.5,1397,504.2z" style="fill:#F3F6E6;"/>
			</g>
		</g>
		<g>
			<path d="M723.4,546.5c-0.7-2-2.6-3.4-4.7-3.4c-31.6,0-50.4-21.2-68.6-41.7c-18.2-20.6-37.1-41.9-68.1-40.1
				c-16.5,0.9-29.6,6-40.1,15.6c-9.6,8.8-17,21.6-22.6,39c-10.3,32.4-13.8,78.9-18.2,137.8c-1.4,18.2-2.8,37-4.5,57.3
				c-0.2,2,0.8,3.8,2.6,4.8c0.8,0.4,1.6,0.6,2.4,0.6c1.1,0,2.1-0.3,3-1l217.2-163.3C723.4,550.8,724.1,548.6,723.4,546.5z" style="fill:#383A48;"/>
			<path d="M1405.7,494.5l-72.6-85.3l53.4-24.3c1.9-0.9,3-2.8,2.9-4.8c-0.1-2.1-1.5-3.8-3.4-4.5
				c-37.5-12.2-79.4-17.5-121.1-15.4c-23.8,1.2-47.6,4.8-70.7,10.6h-0.1c-32.6,8.2-63.9,20.8-93,37.5c-0.1,0-0.1,0.1-0.2,0.1
				c-19.2,11-37.5,23.8-54.4,38.2c-5.7,4.8-11.3,9.9-16.7,15c-7.6,7.2-14.8,14.3-21.7,21.1c-7.7,7.5-14.9,14.6-22.1,21.3
				c-8.1,7.7-14.9,13.8-21.3,19.1c-1.7,1.4-2.2,3.7-1.4,5.7c0.8,1.9,2.6,3.1,4.6,3.1c0.1,0,0.2,0,0.3,0l434.1-29.2
				c1.9-0.1,3.5-1.3,4.3-3C1407.2,497.9,1406.9,495.9,1405.7,494.5z" style="fill:#383A48;"/>
			<g>
				<polygon points="1400.2,435.3 964.1,527.1 1216.7,160 1251.5,277.9 1415.8,168.1 1464.8,241.7 1301.2,351 				" style="fill:#F3F6E6;"/>
				<path d="M964.1,532.1c-1.6,0-3.2-0.8-4.2-2.2c-1.1-1.7-1.1-3.9,0-5.6l252.7-367.1c1.1-1.6,3-2.4,4.9-2.1
					c1.9,0.3,3.5,1.7,4,3.5l32.8,111.4L1413,164c1.1-0.7,2.5-1,3.8-0.7s2.4,1,3.2,2.1l49,73.6c1.5,2.3,0.9,5.4-1.4,6.9l-158.2,105.7
					l94,80c1.5,1.2,2.1,3.2,1.6,5s-1.9,3.3-3.8,3.7L965.1,532C964.8,532.1,964.4,532.1,964.1,532.1z M1214.9,171.5L975.3,519.7
					l413.9-87.2l-91.3-77.7c-1.2-1-1.8-2.5-1.8-4.1c0.1-1.6,0.9-3,2.2-3.9l159.5-106.6l-43.5-65.2l-160.2,107
					c-1.3,0.9-3,1.1-4.5,0.5c-1.5-0.5-2.6-1.8-3.1-3.3L1214.9,171.5z" style="fill:#383A48;"/>
			</g>
			<path d="M988.7,711c-1.7-20.2-3.2-39.1-4.5-57.3c-4.4-58.9-7.9-105.4-18.2-137.8c-5.6-17.4-12.9-30.2-22.6-39
				c-10.4-9.6-23.6-14.7-40.1-15.6c-31-1.7-49.9,19.6-68.1,40.1c-18.2,20.5-37,41.7-68.6,41.7c-2.2,0-4.1,1.4-4.7,3.4
				c-0.7,2,0,4.3,1.7,5.6l217.2,163.3c0.9,0.7,1.9,1,3,1c0.8,0,1.7-0.2,2.4-0.6C987.8,714.8,988.8,712.9,988.7,711z" style="fill:#383A48;"/>
			<g>
				<path d="M812.3,548.1H672.9c-53.5,0-102.5,29.9-127.1,77.4l-44.3,85.9c-20.1,39-21.2,85-3.1,124.9l0,0
					c23.2,51,74.1,83.7,130.1,83.7h228c56,0,106.9-32.7,130.1-83.7l0,0c18.2-39.9,17.1-85.9-3.1-124.9l-44.3-85.9
					C914.8,578,865.8,548.1,812.3,548.1z" style="fill:#F6E049;"/>
				<path d="M856.6,925h-228c-57.8,0-110.7-34-134.7-86.6c-18.9-41.6-17.8-88.7,3.2-129.3l44.3-85.9
					c25.5-49.4,75.9-80.1,131.5-80.1h139.4c55.6,0,106,30.7,131.5,80.1l44.3,85.9c21,40.6,22.1,87.7,3.2,129.3
					C967.3,891,914.4,925,856.6,925z M672.9,553.1c-51.9,0-98.8,28.6-122.6,74.7L506,713.7c-19.5,37.8-20.6,81.8-2.9,120.5
					c22.4,49.1,71.7,80.8,125.6,80.8h228c53.9,0,103.2-31.7,125.6-80.8c17.7-38.8,16.6-82.7-2.9-120.5l-44.3-85.9
					c-23.8-46.1-70.8-74.7-122.6-74.7H672.9z" style="fill:#383A48;"/>
			</g>
			<g>
				<path d="M756.4,841.3h-16.2c-21.9,0-39.6-17.7-39.6-39.6v-4.2c0-21.9,17.7-39.6,39.6-39.6h16.2
					c21.9,0,39.6,17.7,39.6,39.6v4.2C796,823.6,778.3,841.3,756.4,841.3z" style="fill:#F3F6E6;"/>
				<path d="M756.4,846.3h-16.2c-24.6,0-44.6-20-44.6-44.6v-4.2c0-24.6,20-44.6,44.6-44.6h16.2
					c24.6,0,44.6,20,44.6,44.6v4.2C801,826.3,781,846.3,756.4,846.3z M740.2,762.9c-19.1,0-34.6,15.5-34.6,34.6v4.2
					c0,19.1,15.5,34.6,34.6,34.6h16.2c19.1,0,34.6-15.5,34.6-34.6v-4.2c0-19.1-15.5-34.6-34.6-34.6H740.2z" style="fill:#F3F6E6;"/>
			</g>
			<g>
				<path d="M644.9,841.3h16.2c21.9,0,39.6-17.7,39.6-39.6v-4.2c0-21.9-17.7-39.6-39.6-39.6h-16.2
					c-21.9,0-39.6,17.7-39.6,39.6v4.2C605.3,823.6,623.1,841.3,644.9,841.3z" style="fill:#F3F6E6;"/>
				<path d="M661.1,846.3h-16.2c-24.6,0-44.6-20-44.6-44.6v-4.2c0-24.6,20-44.6,44.6-44.6h16.2
					c24.6,0,44.6,20,44.6,44.6v4.2C705.7,826.3,685.7,846.3,661.1,846.3z M644.9,762.9c-19.1,0-34.6,15.5-34.6,34.6v4.2
					c0,19.1,15.5,34.6,34.6,34.6h16.2c19.1,0,34.6-15.5,34.6-34.6v-4.2c0-19.1-15.5-34.6-34.6-34.6H644.9z" style="fill:#F3F6E6;"/>
			</g>
			<g>
				<path d="M564.2,753.1c-4.5,0-9.1-0.4-13.7-1.3c-26.6-5.1-47.3-24.1-53.9-49.6c-0.7-2.7,0.9-5.4,3.6-6.1
					c2.7-0.7,5.4,0.9,6.1,3.6c5.6,21.7,23.3,37.9,46.1,42.3c24.3,4.6,48.8-5.4,63.9-26.1c1.6-2.2,4.8-2.7,7-1.1
					c2.2,1.6,2.7,4.8,1.1,7C609.9,741.8,587.6,753.1,564.2,753.1z" style="fill:#383A48;"/>
			</g>
			<g>
				<path d="M851.2,753c-25.6,0-49.4-13.4-63.4-36.3c-1.4-2.4-0.7-5.4,1.7-6.9c2.4-1.4,5.4-0.7,6.9,1.7
					c13.4,21.9,37,33.8,61.6,31.2c23.1-2.5,42-17.2,49.4-38.4c0.9-2.6,3.8-4,6.4-3.1c2.6,0.9,4,3.8,3.1,6.4
					c-8.7,24.9-30.8,42.2-57.7,45C856.5,752.8,853.8,753,851.2,753z" style="fill:#383A48;"/>
			</g>
			<g>
				<path d="M693.2,761.9l-16.8-18.1c-6.1-6.5-1.4-17.2,7.5-17.2h33.5c8.9,0,13.6,10.6,7.5,17.2l-16.8,18.1
					C704.1,766.3,697.2,766.3,693.2,761.9z" style="fill:#383A48;"/>
				<path d="M700.7,770.2c-4.2,0-8.3-1.8-11.2-4.9l0,0l-16.8-18.1c-4.2-4.5-5.2-10.8-2.8-16.4c2.5-5.6,7.8-9.1,14-9.1
					h33.5c6.1,0,11.5,3.5,14,9.1s1.4,11.9-2.8,16.4l-16.8,18.1C709,768.4,704.9,770.2,700.7,770.2z M696.8,758.5
					c1,1.1,2.4,1.7,3.8,1.7s2.8-0.6,3.8-1.7l16.8-18.1c2.2-2.3,1.3-4.9,1-5.6s-1.6-3.1-4.8-3.1h-33.5c-3.2,0-4.5,2.4-4.8,3.1
					c-0.3,0.7-1.2,3.3,1,5.6L696.8,758.5L696.8,758.5z" style="fill:#383A48;"/>
			</g>
			<g>
				<path d="M700.7,838c-2.8,0-5-2.2-5-5v-80.4c0-2.8,2.2-5,5-5s5,2.2,5,5V833C705.7,835.8,703.4,838,700.7,838z" style="fill:#383A48;"/>
			</g>
			<g>
				<path d="M768.7,665.3h-100c-29.1,0-52.7-23.6-52.7-52.7l0,0c0-29.1,23.6-52.7,52.7-52.7h100
					c29.1,0,52.7,23.6,52.7,52.7l0,0C821.3,641.7,797.7,665.3,768.7,665.3z" style="fill:#F3F6E6;"/>
				<path d="M768.7,670.3h-100c-31.8,0-57.7-25.9-57.7-57.7s25.9-57.7,57.7-57.7h100c31.8,0,57.7,25.9,57.7,57.7
					C826.3,644.5,800.5,670.3,768.7,670.3z M668.7,565c-26.3,0-47.7,21.4-47.7,47.7s21.4,47.7,47.7,47.7h100
					c26.3,0,47.7-21.4,47.7-47.7S795,565,768.7,565H668.7z" style="fill:#F3F6E6;"/>
			</g>
			<g>
				<line x1="687.3" y1="548.1" x2="678.9" y2="591.3" style="fill:none;"/>
				<path d="M678.9,596.3c-0.3,0-0.6,0-1-0.1c-2.7-0.5-4.5-3.2-4-5.9l8.4-43.2c0.5-2.7,3.1-4.5,5.9-4
					c2.7,0.5,4.5,3.2,4,5.9l-8.4,43.2C683.4,594.7,681.3,596.3,678.9,596.3z" style="fill:#383A48;"/>
			</g>
			<g>
				<line x1="718.7" y1="548.1" x2="710.2" y2="591.3" style="fill:none;"/>
				<path d="M710.3,596.3c-0.3,0-0.6,0-1-0.1c-2.7-0.5-4.5-3.2-4-5.9l8.4-43.2c0.5-2.7,3.2-4.5,5.9-4s4.5,3.2,4,5.9
					l-8.4,43.2C714.7,594.7,712.6,596.3,710.3,596.3z" style="fill:#383A48;"/>
			</g>
			<g>
				<line x1="750" y1="548.1" x2="741.6" y2="591.3" style="fill:none;"/>
				<path d="M741.6,596.3c-0.3,0-0.6,0-1-0.1c-2.7-0.5-4.5-3.2-4-5.9l8.4-43.2c0.5-2.7,3.2-4.5,5.9-4s4.5,3.2,4,5.9
					l-8.4,43.2C746,594.7,743.9,596.3,741.6,596.3z" style="fill:#383A48;"/>
			</g>
			<g>
				<circle cx="911.2" cy="786.1" r="6.8" style="fill:#383A48;"/>
				<path d="M911.2,797.8c-6.5,0-11.8-5.3-11.8-11.8s5.3-11.8,11.8-11.8S923,779.5,923,786S917.7,797.8,911.2,797.8z
					 M911.2,784.3c-1,0-1.8,0.8-1.8,1.8s0.8,1.8,1.8,1.8s1.8-0.8,1.8-1.8S912.2,784.3,911.2,784.3z" style="fill:#383A48;"/>
			</g>
			<g>
				<circle cx="956.6" cy="818.3" r="6.8" style="fill:#383A48;"/>
				<path d="M956.6,830c-6.5,0-11.8-5.3-11.8-11.8s5.3-11.8,11.8-11.8s11.8,5.3,11.8,11.8S963,830,956.6,830z
					 M956.6,816.5c-1,0-1.8,0.8-1.8,1.8s0.8,1.8,1.8,1.8s1.8-0.8,1.8-1.8S957.5,816.5,956.6,816.5z" style="fill:#383A48;"/>
			</g>
			<g>
				<circle cx="956.6" cy="748.1" r="6.8" style="fill:#383A48;"/>
				<path d="M956.6,759.9c-6.5,0-11.8-5.3-11.8-11.8s5.3-11.8,11.8-11.8s11.8,5.3,11.8,11.8S963,759.9,956.6,759.9z
					 M956.6,746.3c-1,0-1.8,0.8-1.8,1.8s0.8,1.8,1.8,1.8s1.8-0.8,1.8-1.8C958.3,747.1,957.5,746.3,956.6,746.3z" style="fill:#383A48;"/>
			</g>
			<g>
				<circle cx="535.4" cy="795.7" r="6.8" style="fill:#383A48;"/>
				<path d="M535.4,807.5c-6.5,0-11.8-5.3-11.8-11.8s5.3-11.8,11.8-11.8s11.8,5.3,11.8,11.8S541.9,807.5,535.4,807.5z
					 M535.4,794c-1,0-1.8,0.8-1.8,1.8s0.8,1.8,1.8,1.8s1.8-0.8,1.8-1.8S536.4,794,535.4,794z" style="fill:#383A48;"/>
			</g>
			<g>
				<path d="M490.1,751c-0.5,0-1,0.1-1.5,0.2c0.3,1.2,0.4,2.5,0.5,3.7c0.1,3.2-0.6,6.2-2,8.9c0.9,0.5,1.9,0.8,3.1,0.8
					c3.7,0,6.8-3,6.8-6.8C496.9,754,493.8,751,490.1,751z" style="fill:#383A48;"/>
				<path d="M490.1,769.5c-1.8,0-3.6-0.4-5.3-1.3c-1.2-0.6-2.1-1.7-2.5-2.9c-0.4-1.3-0.3-2.6,0.3-3.8
					c1.1-2.1,1.5-4.2,1.5-6.3c0-0.9-0.2-1.9-0.4-2.9c-0.6-2.6,1.1-5.3,3.7-5.9c0.9-0.2,1.8-0.3,2.7-0.3c6.5,0,11.8,5.3,11.8,11.8
					S496.6,769.5,490.1,769.5z" style="fill:#383A48;"/>
			</g>
		</g>
		<g>
			<g>
				<path d="M1129.2,920H821.3v-13.4c0-52.2,42.3-94.6,94.6-94.6h194.5" style="fill:#F6E049;"/>
				<path d="M1129.2,925H821.3c-2.8,0-5-2.2-5-5v-13.4c0-54.9,44.7-99.6,99.6-99.6h194.5c2.8,0,5,2.2,5,5s-2.2,5-5,5
					H915.9c-49.4,0-89.6,40.2-89.6,89.6v8.4h302.9c2.8,0,5,2.2,5,5S1131.9,925,1129.2,925z" style="fill:#383A48;"/>
			</g>
			<g>
				<path d="M915.5,817.3h16.1c13.8,0,25,11.2,25,25v47.6c0,13.8-11.2,25-25,25H825.8v-7.8
					C825.8,857.4,865.9,817.3,915.5,817.3z" style="fill:#F3F6E6;"/>
			</g>
			<g>
				<path d="M860,925c-2.8,0-5-2.2-5-5v-13.4c0-15.5,3.5-30.4,10.3-44.2c1.2-2.5,4.2-3.5,6.7-2.3s3.5,4.2,2.3,6.7
					c-6.2,12.4-9.3,25.8-9.3,39.8V920C865,922.8,862.8,925,860,925z" style="fill:#383A48;"/>
			</g>
			<g>
				<path d="M894.6,925c-2.8,0-5-2.2-5-5v-13.4c0-15.5,3.5-30.4,10.3-44.2c1.2-2.5,4.2-3.5,6.7-2.3s3.5,4.2,2.3,6.7
					c-6.2,12.4-9.3,25.8-9.3,39.8V920C899.6,922.8,897.4,925,894.6,925z" style="fill:#383A48;"/>
			</g>
		</g>
		<g>
			<path d="M1424.7,520.4l-28.6,19.9c-68.1,47.6-87,140.1-43.1,210.6l37.7,60.6h-119.5c-51.2,0-92.8,41.5-92.8,92.8V920
				h120.5" style="fill:#F6E049;"/>
			<path d="M1298.9,925h-120.5c-2.8,0-5-2.2-5-5v-15.7c0-53.9,43.9-97.8,97.8-97.8h110.5l-32.9-52.9
				c-45.3-72.8-25.8-168.3,44.5-217.4l28.6-19.9c2.3-1.6,5.4-1,7,1.2c1.6,2.3,1,5.4-1.2,7l-28.6,19.9
				c-65.9,46.1-84.3,135.6-41.8,203.9l37.7,60.6c1,1.5,1,3.5,0.1,5.1s-2.6,2.6-4.4,2.6h-119.5c-48.4,0-87.8,39.4-87.8,87.8V915
				h115.5c2.8,0,5,2.2,5,5S1301.7,925,1298.9,925z" style="fill:#383A48;"/>
		</g>
		<g>
			<path d="M1273.4,817.3h16.1c13.8,0,25,11.2,25,25v47.6c0,13.8-11.2,25-25,25h-105.8v-7.8
				C1183.7,857.4,1223.9,817.3,1273.4,817.3z" style="fill:#F3F6E6;"/>
		</g>
		<g>
			<path d="M1628.2,811.5h-194.7c-30,0-54.2,24.3-54.2,54.2l0,0c0,30,24.3,54.2,54.2,54.2h194.7
				c30,0,54.2-24.3,54.2-54.2l0,0C1682.4,835.8,1658.2,811.5,1628.2,811.5z" style="fill:#F6E049;"/>
			<path d="M1628.2,925h-194.7c-32.7,0-59.2-26.6-59.2-59.2s26.6-59.2,59.2-59.2h194.7c32.7,0,59.2,26.6,59.2,59.2
				S1660.9,925,1628.2,925z M1433.5,816.5c-27.2,0-49.2,22.1-49.2,49.2s22.1,49.2,49.2,49.2h194.7c27.2,0,49.2-22.1,49.2-49.2
				s-22.1-49.2-49.2-49.2H1433.5z" style="fill:#383A48;"/>
		</g>
		<g>
			<rect x="1471.7" y="816.5" width="49" height="98.5" style="fill:#F3F6E6;"/>
		</g>
		<g>
			<rect x="1574.5" y="816.5" width="49" height="98.5" style="fill:#F3F6E6;"/>
		</g>
		<g>
			<g>
				<path d="M1214.5,925c-2.8,0-5-2.2-5-5v-13.4c0-15.5,3.5-30.4,10.3-44.2c1.2-2.5,4.2-3.5,6.7-2.3s3.5,4.2,2.3,6.7
					c-6.2,12.4-9.3,25.8-9.3,39.8V920C1219.5,922.8,1217.2,925,1214.5,925z" style="fill:#383A48;"/>
			</g>
			<g>
				<path d="M1249.1,925c-2.8,0-5-2.2-5-5v-13.4c0-15.5,3.5-30.4,10.3-44.2c1.2-2.5,4.2-3.5,6.7-2.3s3.5,4.2,2.3,6.7
					c-6.2,12.4-9.3,25.8-9.3,39.8V920C1254.1,922.8,1251.9,925,1249.1,925z" style="fill:#383A48;"/>
			</g>
		</g>
		<g>
			<path d="M461.4,651.9c-0.1,0-0.3,0-0.4,0c-2.8-0.2-4.8-2.6-4.6-5.4c0.3-4,0.6-8,0.9-12c0.2-2.8,2.6-4.8,5.4-4.6
				s4.8,2.6,4.6,5.4c-0.3,3.9-0.6,7.9-0.9,12C466.2,649.9,464,651.9,461.4,651.9z M464.7,610.1c-0.1,0-0.3,0-0.4,0
				c-2.8-0.2-4.8-2.7-4.6-5.4c0.4-4.1,0.7-8.1,1.1-12c0.3-2.8,2.7-4.8,5.4-4.5c2.8,0.3,4.8,2.7,4.5,5.4c-0.4,3.9-0.7,7.9-1.1,11.9
				C469.5,608.1,467.3,610.1,464.7,610.1z M469.1,568.3c-0.2,0-0.4,0-0.6,0c-2.7-0.4-4.7-2.9-4.3-5.6c0.5-4.2,1.1-8.2,1.7-12
				c0.4-2.7,2.9-4.6,5.7-4.2c2.7,0.4,4.6,3,4.2,5.7c-0.6,3.7-1.1,7.7-1.6,11.8C473.7,566.5,471.6,568.3,469.1,568.3z M476.2,526.9
				c-0.4,0-0.8,0-1.1-0.1c-2.7-0.6-4.4-3.3-3.7-6c1-4.1,2-8.1,3-11.9c0.8-2.7,3.5-4.2,6.2-3.4c2.7,0.8,4.2,3.5,3.4,6.2
				c-1,3.6-2,7.4-2.9,11.4C480.5,525.4,478.5,526.9,476.2,526.9z M742.2,508.1h-12c-2.8,0-5-2.2-5-5s2.2-5,5-5h12c2.8,0,5,2.2,5,5
				S745,508.1,742.2,508.1z M772.2,507.6c-2.3,0-4.4-1.6-4.9-3.9c-0.6-2.7,1.1-5.4,3.8-6c2.9-0.6,5.6-2,8.8-4.3c2.2-1.6,5.3-1.2,7,1
				c1.6,2.2,1.2,5.3-1,7c-4.3,3.2-8.3,5.1-12.6,6.1C772.9,507.5,772.5,507.6,772.2,507.6z M701.7,501.9c-1.1,0-2.1-0.3-3-1
				c-2.8-2.2-5.8-4.9-9.4-8.5c-1.9-2-1.9-5.1,0-7.1c2-1.9,5.1-1.9,7.1,0c3.2,3.3,6,5.8,8.4,7.6c2.2,1.7,2.6,4.8,0.9,7
				C704.7,501.2,703.2,501.9,701.7,501.9z M489.6,487.2c-0.7,0-1.5-0.2-2.2-0.5c-2.5-1.2-3.5-4.2-2.3-6.7c1.8-3.8,3.8-7.5,5.9-11
				c1.4-2.4,4.5-3.1,6.9-1.7s3.1,4.5,1.7,6.9c-1.9,3.2-3.7,6.6-5.4,10.2C493.3,486.2,491.5,487.2,489.6,487.2z M804,481.2
				c-1.2,0-2.4-0.4-3.3-1.3c-2.1-1.8-2.3-5-0.4-7.1l1.4-1.5c2.2-2.4,4.4-4.9,6.7-7.5c1.9-2,5-2.2,7.1-0.3s2.2,5,0.3,7.1
				c-2.3,2.5-4.5,5-6.6,7.4l-1.4,1.5C806.8,480.6,805.4,481.2,804,481.2z M672.7,471.7c-1.4,0-2.7-0.5-3.7-1.6
				c-2.9-3.2-5.6-6-8.1-8.6c-1.9-2-1.9-5.1,0-7.1c2-1.9,5.1-1.9,7.1,0c2.6,2.6,5.4,5.5,8.4,8.9c1.9,2,1.7,5.2-0.3,7.1
				C675.1,471.2,673.9,471.7,672.7,471.7z M513.9,453.3c-1.3,0-2.7-0.5-3.6-1.6c-1.9-2-1.8-5.2,0.2-7.1c0.3-0.3,0.7-0.6,1-1
				c2.8-2.5,5.7-4.9,8.7-7.1c2.2-1.6,5.4-1.1,7,1.1s1.1,5.4-1.1,7c-2.7,2-5.3,4.1-7.8,6.4c-0.3,0.3-0.6,0.6-0.9,0.9
				C516.3,452.8,515.1,453.3,513.9,453.3z M833.5,451.3c-1.4,0-2.9-0.6-3.9-1.8c-1.8-2.1-1.5-5.3,0.7-7c2.5-2.1,5.1-4.1,7.7-5.9
				c0.8-0.5,1.5-1.1,2.3-1.6c2.3-1.6,5.4-1,6.9,1.3c1.6,2.3,1,5.4-1.3,6.9c-0.7,0.5-1.4,1-2.1,1.5c-2.4,1.7-4.8,3.5-7.1,5.5
				C835.7,450.9,834.6,451.3,833.5,451.3z M961.5,445.1c-1,0-2-0.3-2.9-0.9c-3.1-2.2-6.3-4.2-9.6-6c-2.4-1.3-3.3-4.4-2-6.8
				s4.4-3.3,6.8-2c3.7,2,7.3,4.3,10.7,6.7c2.2,1.6,2.8,4.7,1.1,7C964.6,444.4,963,445.1,961.5,445.1z M641.5,443.7
				c-1,0-1.9-0.3-2.8-0.8c-3.2-2.2-6.5-4.1-9.8-5.9c-2.4-1.3-3.4-4.3-2.1-6.7c1.3-2.4,4.3-3.4,6.7-2.1c3.6,1.9,7.3,4.1,10.8,6.4
				c2.3,1.5,2.9,4.6,1.4,6.9C644.7,442.9,643.1,443.7,641.5,443.7z M549.7,431.9c-2.1,0-4-1.3-4.7-3.4c-0.9-2.6,0.5-5.5,3.2-6.3
				c3.9-1.3,8-2.4,12.1-3.3c2.7-0.6,5.4,1.1,5.9,3.8c0.6,2.7-1.1,5.4-3.8,5.9c-3.8,0.8-7.5,1.8-11,3
				C550.7,431.8,550.2,431.9,549.7,431.9z M869.9,430.9c-2.1,0-4.1-1.4-4.8-3.5c-0.8-2.6,0.6-5.4,3.2-6.3c4-1.3,8.1-2.3,12.2-3.1
				c2.7-0.5,5.3,1.3,5.8,4s-1.3,5.3-4,5.8c-3.7,0.7-7.4,1.6-11,2.8C870.9,430.8,870.4,430.9,869.9,430.9z M923.2,428.6
				c-0.3,0-0.7,0-1-0.1c-3.7-0.8-7.5-1.3-11.4-1.7c-2.7-0.3-4.7-2.7-4.5-5.5c0.3-2.7,2.7-4.7,5.5-4.5c4.2,0.4,8.4,1.1,12.4,1.9
				c2.7,0.6,4.4,3.2,3.9,5.9C927.6,427,925.5,428.6,923.2,428.6z M603,427.8c-0.3,0-0.6,0-0.9-0.1c-3.7-0.7-7.5-1.1-11.3-1.3
				c-2.8-0.2-4.9-2.5-4.7-5.3s2.5-4.9,5.3-4.7c4.2,0.2,8.4,0.7,12.5,1.5c2.7,0.5,4.5,3.1,4,5.8C607.5,426.1,605.3,427.8,603,427.8z" style="fill:#383A48;"/>
		</g>
	</g>
	<path d="M1734.4,156.5c-0.9-0.9-2.2-1.5-3.5-1.5h-191.7c-2.8,0-5,2.2-5,5c0,108.5,88.2,196.7,196.7,196.7
		c2.8,0,5-2.2,5-5V160C1735.8,158.7,1735.3,157.4,1734.4,156.5z" style="fill:#AAC6FC;"/>
	<g>
		<path d="M833.5,155H651.6c-28.8,0-52.3,23.5-52.3,52.3V301c0,28.8,23.5,52.3,52.3,52.3h41.1l46,57.5
			c0.9,1.2,2.4,1.9,3.9,1.9s3-0.7,3.9-1.9l46-57.5h41.1c28.8,0,52.3-23.5,52.3-52.3v-93.6C885.9,178.5,862.4,155,833.5,155z" style="fill:#E0719E;"/>
		<path d="M802.6,242.7c-0.8-8.8-5-16.7-11.8-22.4c-14-11.6-34.8-9.7-46.4,4.3l-1.7,2l-2-2.3
			c-11.6-13.8-32.4-15.6-46.3-4.1c-6.8,5.7-11,13.6-11.8,22.5c-0.8,8.8,1.9,17.4,7.6,24.2c0.1,0.2,0.3,0.3,0.4,0.5l48.9,44.9
			c1,0.9,2.2,1.3,3.4,1.3s2.4-0.4,3.4-1.3l48.3-44.9c0.2-0.1,0.3-0.3,0.4-0.5C800.8,260,803.4,251.5,802.6,242.7z" style="fill:#F3F6E6;"/>
	</g>
</g>
</svg>
