<svg xmlns="http://www.w3.org/2000/svg" xmlns:xlink="http://www.w3.org/1999/xlink" width="1552" height="770" version="1.1" viewBox="0 0 1552 770"><title>petting-animal</title><desc>Created with Sketch.</desc><g id="Page-1" fill="none" fill-rule="evenodd" stroke="none" stroke-width="1"><g id="petting-animal" transform="translate(-184.000000, -155.000000)"><g id="Group" transform="translate(184.000000, 155.000000)"><path id="Path" fill="#F3F6E6" fill-rule="nonzero" d="M845.5,760.5 C844.3,759.9 724.7,700.2 604.1,627 C445.6,530.8 357.6,455.4 349.6,409.2 C325.5,270.8 271.4,242.5 219,215.2 C164.6,186.8 113.2,159.9 99.2,4.6 C99,2 96.8,5.68434189e-14 94.2,5.68434189e-14 L5.1,5.68434189e-14 C2.3,5.68434189e-14 0.1,2.2 0.1,5 L0.1,620.2 C0.1,702.8 67.3,770 149.9,770 L843.2,770 C845.5,770 847.5,768.4 848.1,766.1 C848.7,763.8 847.6,761.6 845.5,760.5 Z"/><path id="Path" fill="#F3F6E6" fill-rule="nonzero" d="M1546.8,0 L951,0 C949.3,0 947.8,0.8 946.9,2.2 C946,3.6 945.8,5.3 946.4,6.9 C981.9,95.4 1026.9,161.6 1083.9,209.4 C1134.4,251.7 1188.2,275 1240.2,297.5 C1307.1,326.5 1370.4,353.8 1423.4,418.7 C1451.9,453.6 1475,496.2 1493.9,549.1 C1515.2,608.5 1530.9,679.3 1541.9,765.6 C1542.2,768.1 1544.4,770 1546.9,770 C1547,770 1547.1,770 1547.2,770 C1549.8,769.8 1551.9,767.6 1551.9,765 L1551.9,5 C1551.8,2.2 1549.6,0 1546.8,0 Z"/><g transform="translate(134.000000, 0.000000)"><path id="Path" fill="#383A48" fill-rule="nonzero" d="M1412.8,770 L5.7,770 C2.9,770 0.7,767.8 0.7,765 C0.7,762.2 2.9,760 5.7,760 L1412.8,760 C1415.6,760 1417.8,762.2 1417.8,765 C1417.8,767.8 1415.6,770 1412.8,770 Z"/><g id="Path" fill-rule="nonzero"><g><path fill="#F6E049" d="M313.7,113 L5.8,113 L5.8,99.6 C5.8,47.4 48.1,5 100.4,5 L294.9,5" transform="translate(96.000000, 652.000000)"/><path fill="#383A48" d="M313.7,118 L5.8,118 C3,118 0.8,115.8 0.8,113 L0.8,99.6 C0.8,44.7 45.5,0 100.4,0 L294.9,0 C297.7,0 299.9,2.2 299.9,5 C299.9,7.8 297.7,10 294.9,10 L100.4,10 C51,10 10.8,50.2 10.8,99.6 L10.8,108 L313.7,108 C316.5,108 318.7,110.2 318.7,113 C318.7,115.8 316.4,118 313.7,118 Z" transform="translate(96.000000, 652.000000)"/></g><path fill="#F3F6E6" d="M100.4,10.3 L116.5,10.3 C130.3,10.3 141.5,21.5 141.5,35.3 L141.5,82.9 C141.5,96.7 130.3,107.9 116.5,107.9 L10.7,107.9 L10.7,100.1 C10.7,50.4 50.9,10.3 100.4,10.3 Z" transform="translate(96.000000, 652.000000)"/><path fill="#383A48" d="M44.5,118 C41.7,118 39.5,115.8 39.5,113 L39.5,99.6 C39.5,84.1 43,69.2 49.8,55.4 C51,52.9 54,51.9 56.5,53.1 C59,54.3 60,57.3 58.8,59.8 C52.6,72.2 49.5,85.6 49.5,99.6 L49.5,113 C49.5,115.8 47.2,118 44.5,118 Z" transform="translate(96.000000, 652.000000)"/><path fill="#383A48" d="M79.1,118 C76.3,118 74.1,115.8 74.1,113 L74.1,99.6 C74.1,84.1 77.6,69.2 84.4,55.4 C85.6,52.9 88.6,51.9 91.1,53.1 C93.6,54.3 94.6,57.3 93.4,59.8 C87.2,72.2 84.1,85.6 84.1,99.6 L84.1,113 C84.1,115.8 81.9,118 79.1,118 Z" transform="translate(96.000000, 652.000000)"/></g><g fill-rule="nonzero" transform="translate(489.000000, 204.000000)"><path id="Path" fill="#F6E049" d="M771.2,407 C770.4,492.3 700.9,561 615.6,561 L5.3,561 L5.3,189.1 C76.5,220 117.6,204.2 160.8,167.9 C167.9,162 175,155.5 182.3,148.6 C195.9,135.7 210.2,121.3 226.1,106.2 C231.5,101 237,96.1 242.6,91.4 C259.7,77 277.7,64.4 296.3,53.8 L296.3,53.8 C325.8,36.9 356.8,24.6 388.3,16.7 L388.3,16.7 C411.6,10.8 435,7.4 458.2,6.2 C499.8,4.1 540.4,9.3 577.5,21.4 C579,21.9 580.5,22.4 582,22.9 L582,22.9 C644.8,44.4 696.6,85.8 723.2,143.8 C766.9,239.1 772.2,309.4 771.2,407 Z"/><path id="Shape" fill="#383A48" d="M615.6,566 L5.3,566 C2.5,566 0.3,563.8 0.3,561 L0.3,189.1 C0.3,187.4 1.1,185.8 2.6,184.9 C4,184 5.8,183.8 7.3,184.5 C40.6,198.9 67.7,203.5 92.6,198.8 C113.7,194.8 133.7,184.1 157.6,164.1 C164,158.7 170.8,152.6 178.9,145 C186,138.3 193.3,131.2 201,123.7 C208,116.9 215.2,109.8 222.7,102.6 C228.1,97.4 233.8,92.4 239.4,87.6 C256.3,73.3 274.7,60.4 293.8,49.4 C293.9,49.4 293.9,49.3 294,49.3 C323.1,32.6 354.4,20 387,11.8 L387.1,11.8 C410.3,6 434.1,2.4 457.8,1.2 C499.5,-0.9 541.3,4.4 578.9,16.6 C580.4,17.1 581.8,17.6 583.3,18.1 C583.4,18.1 583.4,18.1 583.5,18.2 C650.4,41.1 701.6,85 727.6,141.8 C748.6,187.6 761.7,229.6 768.8,273.9 C776,318.7 776.6,364.4 776.2,407.2 L776.2,407.2 C775.8,449.8 758.9,489.7 728.6,519.7 C698.3,549.5 658.2,566 615.6,566 Z M10.3,556 L615.6,556 C655.5,556 693.2,540.5 721.6,512.4 C750,484.3 765.9,446.8 766.2,406.9 C766.7,358 765.6,316.9 759,275.3 C752,231.9 739.2,190.7 718.6,145.8 C693.8,91.6 644.7,49.6 580.5,27.6 C580.4,27.6 580.4,27.6 580.3,27.5 C578.8,27 577.4,26.5 575.9,26 C539.5,14.2 498.9,9 458.4,11.1 C435.3,12.3 412.1,15.8 389.5,21.5 C389.4,21.5 389.4,21.5 389.3,21.5 C357.6,29.5 327.1,41.8 298.8,58.1 C298.7,58.1 298.7,58.2 298.6,58.2 C280,68.9 262.3,81.3 245.8,95.2 C240.3,99.9 234.8,104.8 229.5,109.8 C222,117 214.8,124 207.9,130.8 C200.2,138.3 192.9,145.5 185.7,152.3 C177.4,160.1 170.5,166.3 164,171.8 C138.8,193 117.3,204.4 94.4,208.7 C69.2,213.4 42.3,209.6 10.2,196.7 L10.3,556 L10.3,556 Z"/></g><path id="Path" fill="#F3F6E6" fill-rule="nonzero" d="M847.1,481.8 C843.1,483.2 839.1,483.9 835.1,483.9 C820.8,483.9 807.4,475.1 802.2,460.8 C786.8,418.5 760.9,388 725.1,370.2 C699.7,357.5 678.5,356.1 678.3,356.1 C677.4,356.1 676.5,356 675.6,355.9 C689.2,343 703.5,328.6 719.4,313.4 C724.8,308.2 730.3,303.3 735.9,298.6 C742.4,301.1 749.3,304 756.3,307.5 C792.4,325.5 841,362.5 868,436.9 C874.6,455.1 865.3,475.2 847.1,481.8 Z"/><path id="Path" fill="#F3F6E6" fill-rule="nonzero" d="M955.5,408.7 C952.2,409.6 949,410.1 945.8,410 C930.6,409.9 916.7,399.9 912.3,384.6 C898.1,334.5 870.7,298.4 830.8,277.2 C814.4,268.5 798.9,264 788,261.8 C817.6,245 848.7,232.9 880.1,225.1 L880.1,225.1 C917,249 958.5,291.4 979.6,365.5 C984.8,384 974,403.4 955.5,408.7 Z"/><path id="Path" fill="#F3F6E6" fill-rule="nonzero" d="M1079,349.2 C1076,349.9 1073,350.3 1070,350.2 C1054.5,350 1040.5,339.4 1036.5,323.7 C1025.6,280.1 1002.9,247.1 969.1,225.6 C962.4,221.3 955.9,218 950.1,215.4 C993.4,213.8 1035.6,220.1 1073.6,233.8 L1073.6,233.8 C1086.2,253.6 1097.1,277.7 1104.3,306.7 C1109.2,325.5 1097.8,344.5 1079,349.2 Z"/><g transform="translate(162.000000, 0.000000)"><path id="Path" fill="#383A48" fill-rule="nonzero" d="M243.4,391.5 C242.7,389.5 240.8,388.1 238.7,388.1 C207.1,388.1 188.3,366.9 170.1,346.4 C151.9,325.8 133,304.5 102,306.3 C85.5,307.2 72.4,312.3 61.9,321.9 C52.3,330.7 44.9,343.5 39.3,360.9 C29,393.3 25.5,439.8 21.1,498.7 C19.7,516.9 18.3,535.7 16.6,556 C16.4,558 17.4,559.8 19.2,560.8 C20,561.2 20.8,561.4 21.6,561.4 C22.7,561.4 23.7,561.1 24.6,560.4 L241.8,397.1 C243.4,395.8 244.1,393.6 243.4,391.5 Z"/><path id="Path" fill="#383A48" fill-rule="nonzero" d="M925.7,339.5 L853.1,254.2 L906.5,229.9 C908.4,229 909.5,227.1 909.4,225.1 C909.3,223 907.9,221.3 906,220.6 C868.5,208.4 826.6,203.1 784.9,205.2 C761.1,206.4 737.3,210 714.2,215.8 L714.1,215.8 C681.5,224 650.2,236.6 621.1,253.3 C621,253.3 621,253.4 620.9,253.4 C601.7,264.4 583.4,277.2 566.5,291.6 C560.8,296.4 555.2,301.5 549.8,306.6 C542.2,313.8 535,320.9 528.1,327.7 C520.4,335.2 513.2,342.3 506,349 C497.9,356.7 491.1,362.8 484.7,368.1 C483,369.5 482.5,371.8 483.3,373.8 C484.1,375.7 485.9,376.9 487.9,376.9 C488,376.9 488.1,376.9 488.2,376.9 L922.3,347.7 C924.2,347.6 925.8,346.4 926.6,344.7 C927.2,342.9 926.9,340.9 925.7,339.5 Z"/><g fill-rule="nonzero" transform="translate(479.000000, 0.000000)"><polygon id="Path" fill="#F3F6E6" points="441.2 280.3 5.1 372.1 257.7 5 292.5 122.9 456.8 13.1 505.8 86.7 342.2 196"/><path id="Shape" fill="#383A48" d="M5.1,377.1 C3.5,377.1 1.9,376.3 0.9,374.9 C-0.2,373.2 -0.2,371 0.9,369.3 L253.6,2.2 C254.7,0.6 256.6,-0.2 258.5,0.1 C260.4,0.4 262,1.8 262.5,3.6 L295.3,115 L454,9 C455.1,8.3 456.5,8 457.8,8.3 C459.1,8.6 460.2,9.3 461,10.4 L510,84 C511.5,86.3 510.9,89.4 508.6,90.9 L350.4,196.6 L444.4,276.6 C445.9,277.8 446.5,279.8 446,281.6 C445.5,283.4 444.1,284.9 442.2,285.3 L6.1,377 C5.8,377.1 5.4,377.1 5.1,377.1 Z M255.9,16.5 L16.3,364.7 L430.2,277.5 L338.9,199.8 C337.7,198.8 337.1,197.3 337.1,195.7 C337.2,194.1 338,192.7 339.3,191.8 L498.8,85.2 L455.3,20 L295.1,127 C293.8,127.9 292.1,128.1 290.6,127.5 C289.1,127 288,125.7 287.5,124.2 L255.9,16.5 Z"/></g><path id="Path" fill="#383A48" fill-rule="nonzero" d="M508.7,556 C507,535.8 505.5,516.9 504.2,498.7 C499.8,439.8 496.3,393.3 486,360.9 C480.4,343.5 473.1,330.7 463.4,321.9 C453,312.3 439.8,307.2 423.3,306.3 C392.3,304.6 373.4,325.9 355.2,346.4 C337,366.9 318.2,388.1 286.6,388.1 C284.4,388.1 282.5,389.5 281.9,391.5 C281.2,393.5 281.9,395.8 283.6,397.1 L500.8,560.4 C501.7,561.1 502.7,561.4 503.8,561.4 C504.6,561.4 505.5,561.2 506.2,560.8 C507.8,559.8 508.8,557.9 508.7,556 Z"/><g fill-rule="nonzero" transform="translate(0.000000, 388.000000)"><path id="Path" fill="#F6E049" d="M332.3,5.1 L192.9,5.1 C139.4,5.1 90.4,35 65.8,82.5 L21.5,168.4 C1.4,207.4 0.3,253.4 18.4,293.3 L18.4,293.3 C41.6,344.3 92.5,377 148.5,377 L376.5,377 C432.5,377 483.4,344.3 506.6,293.3 L506.6,293.3 C524.8,253.4 523.7,207.4 503.5,168.4 L459.2,82.5 C434.8,35 385.8,5.1 332.3,5.1 Z"/><path id="Shape" fill="#383A48" d="M376.6,382 L148.6,382 C90.8,382 37.9,348 13.9,295.4 C-5,253.8 -3.9,206.7 17.1,166.1 L61.4,80.2 C86.9,30.8 137.3,0.1 192.9,0.1 L332.3,0.1 C387.9,0.1 438.3,30.8 463.8,80.2 L508.1,166.1 C529.1,206.7 530.2,253.8 511.3,295.4 C487.3,348 434.4,382 376.6,382 Z M192.9,10.1 C141,10.1 94.1,38.7 70.3,84.8 L26,170.7 C6.5,208.5 5.4,252.5 23.1,291.2 C45.5,340.3 94.8,372 148.7,372 L376.7,372 C430.6,372 479.9,340.3 502.3,291.2 C520,252.4 518.9,208.5 499.4,170.7 L455.1,84.8 C431.3,38.7 384.3,10.1 332.5,10.1 L192.9,10.1 Z"/></g><g fill="#F3F6E6" fill-rule="nonzero" transform="translate(215.000000, 597.000000)"><path id="Path" d="M61.4,89.3 L45.2,89.3 C23.3,89.3 5.6,71.6 5.6,49.7 L5.6,45.5 C5.6,23.6 23.3,5.9 45.2,5.9 L61.4,5.9 C83.3,5.9 101,23.6 101,45.5 L101,49.7 C101,71.6 83.3,89.3 61.4,89.3 Z"/><path id="Shape" d="M61.4,94.3 L45.2,94.3 C20.6,94.3 0.6,74.3 0.6,49.7 L0.6,45.5 C0.6,20.9 20.6,0.9 45.2,0.9 L61.4,0.9 C86,0.9 106,20.9 106,45.5 L106,49.7 C106,74.3 86,94.3 61.4,94.3 Z M45.2,10.9 C26.1,10.9 10.6,26.4 10.6,45.5 L10.6,49.7 C10.6,68.8 26.1,84.3 45.2,84.3 L61.4,84.3 C80.5,84.3 96,68.8 96,49.7 L96,45.5 C96,26.4 80.5,10.9 61.4,10.9 L45.2,10.9 Z"/></g><g fill="#F3F6E6" fill-rule="nonzero" transform="translate(120.000000, 597.000000)"><path id="Path" d="M44.9,89.3 L61.1,89.3 C83,89.3 100.7,71.6 100.7,49.7 L100.7,45.5 C100.7,23.6 83,5.9 61.1,5.9 L44.9,5.9 C23,5.9 5.3,23.6 5.3,45.5 L5.3,49.7 C5.3,71.6 23.1,89.3 44.9,89.3 Z"/><path id="Shape" d="M61.1,94.3 L44.9,94.3 C20.3,94.3 0.3,74.3 0.3,49.7 L0.3,45.5 C0.3,20.9 20.3,0.9 44.9,0.9 L61.1,0.9 C85.7,0.9 105.7,20.9 105.7,45.5 L105.7,49.7 C105.7,74.3 85.7,94.3 61.1,94.3 Z M44.9,10.9 C25.8,10.9 10.3,26.4 10.3,45.5 L10.3,49.7 C10.3,68.8 25.8,84.3 44.9,84.3 L61.1,84.3 C80.2,84.3 95.7,68.8 95.7,49.7 L95.7,45.5 C95.7,26.4 80.2,10.9 61.1,10.9 L44.9,10.9 Z"/></g><path id="Path" fill="#383A48" fill-rule="nonzero" d="M84.2,598.1 C79.7,598.1 75.1,597.7 70.5,596.8 C43.9,591.7 23.2,572.7 16.6,547.2 C15.9,544.5 17.5,541.8 20.2,541.1 C22.9,540.4 25.6,542 26.3,544.7 C31.9,566.4 49.6,582.6 72.4,587 C96.7,591.6 121.2,581.6 136.3,560.9 C137.9,558.7 141.1,558.2 143.3,559.8 C145.5,561.4 146,564.6 144.4,566.8 C129.9,586.8 107.6,598.1 84.2,598.1 Z"/><path id="Path" fill="#383A48" fill-rule="nonzero" d="M371.2,598 C345.6,598 321.8,584.6 307.8,561.7 C306.4,559.3 307.1,556.3 309.5,554.8 C311.9,553.4 314.9,554.1 316.4,556.5 C329.8,578.4 353.4,590.3 378,587.7 C401.1,585.2 420,570.5 427.4,549.3 C428.3,546.7 431.2,545.3 433.8,546.2 C436.4,547.1 437.8,550 436.9,552.6 C428.2,577.5 406.1,594.8 379.2,597.6 C376.5,597.8 373.8,598 371.2,598 Z"/><g fill="#383A48" fill-rule="nonzero" transform="translate(188.000000, 566.000000)"><path id="Path" d="M25.2,40.9 L8.4,22.8 C2.3,16.3 7,5.6 15.9,5.6 L49.4,5.6 C58.3,5.6 63,16.2 56.9,22.8 L40.1,40.9 C36.1,45.3 29.2,45.3 25.2,40.9 Z"/><path id="Shape" d="M32.7,49.2 C28.5,49.2 24.4,47.4 21.5,44.3 L21.5,44.3 L4.7,26.2 C0.5,21.7 -0.5,15.4 1.9,9.8 C4.4,4.2 9.7,0.7 15.9,0.7 L49.4,0.7 C55.5,0.7 60.9,4.2 63.4,9.8 C65.9,15.4 64.8,21.7 60.6,26.2 L43.8,44.3 C41,47.4 36.9,49.2 32.7,49.2 Z M28.8,37.5 C29.8,38.6 31.2,39.2 32.6,39.2 C34,39.2 35.4,38.6 36.4,37.5 L53.2,19.4 C55.4,17.1 54.5,14.5 54.2,13.8 C53.9,13.1 52.6,10.7 49.4,10.7 L15.9,10.7 C12.7,10.7 11.4,13.1 11.1,13.8 C10.8,14.5 9.9,17.1 12.1,19.4 L28.8,37.5 L28.8,37.5 Z"/></g><path id="Path" fill="#383A48" fill-rule="nonzero" d="M220.7,683 C217.9,683 215.7,680.8 215.7,678 L215.7,597.6 C215.7,594.8 217.9,592.6 220.7,592.6 C223.5,592.6 225.7,594.8 225.7,597.6 L225.7,678 C225.7,680.8 223.4,683 220.7,683 Z"/><g fill="#F3F6E6" fill-rule="nonzero" transform="translate(131.000000, 399.000000)"><path id="Path" d="M157.7,111.3 L57.7,111.3 C28.6,111.3 5,87.7 5,58.6 L5,58.6 C5,29.5 28.6,5.9 57.7,5.9 L157.7,5.9 C186.8,5.9 210.4,29.5 210.4,58.6 L210.4,58.6 C210.3,87.7 186.7,111.3 157.7,111.3 Z"/><path id="Shape" d="M157.7,116.3 L57.7,116.3 C25.9,116.3 0,90.4 0,58.6 C0,26.8 25.9,0.9 57.7,0.9 L157.7,0.9 C189.5,0.9 215.4,26.8 215.4,58.6 C215.3,90.5 189.5,116.3 157.7,116.3 Z M57.7,11 C31.4,11 10,32.4 10,58.7 C10,85 31.4,106.4 57.7,106.4 L157.7,106.4 C184,106.4 205.4,85 205.4,58.7 C205.4,32.4 184,11 157.7,11 L57.7,11 Z"/></g><g id="Path" transform="translate(193.000000, 388.000000)"><line x1="14.3" x2="5.9" y1="5.1" y2="48.3"/><path fill="#383A48" fill-rule="nonzero" d="M5.9,53.3 C5.6,53.3 5.3,53.3 4.9,53.2 C2.2,52.7 0.4,50 0.9,47.3 L9.3,4.1 C9.8,1.4 12.4,-0.4 15.2,0.1 C17.9,0.6 19.7,3.3 19.2,6 L10.8,49.2 C10.4,51.7 8.3,53.3 5.9,53.3 Z"/></g><g id="Path" transform="translate(225.000000, 388.000000)"><line x1="13.7" x2="5.2" y1="5.1" y2="48.3"/><path fill="#383A48" fill-rule="nonzero" d="M5.3,53.3 C5,53.3 4.7,53.3 4.3,53.2 C1.6,52.7 -0.2,50 0.3,47.3 L8.7,4.1 C9.2,1.4 11.9,-0.4 14.6,0.1 C17.3,0.6 19.1,3.3 18.6,6 L10.2,49.2 C9.7,51.7 7.6,53.3 5.3,53.3 Z"/></g><g id="Path" transform="translate(256.000000, 388.000000)"><line x1="14" x2="5.6" y1="5.1" y2="48.3"/><path fill="#383A48" fill-rule="nonzero" d="M5.6,53.3 C5.3,53.3 5,53.3 4.6,53.2 C1.9,52.7 0.1,50 0.6,47.3 L9,4.1 C9.5,1.4 12.2,-0.4 14.9,0.1 C17.6,0.6 19.4,3.3 18.9,6 L10.5,49.2 C10,51.7 7.9,53.3 5.6,53.3 Z"/></g><g fill="#383A48" fill-rule="nonzero" transform="translate(419.000000, 619.000000)"><circle id="Oval" cx="12.2" cy="12.1" r="6.8"/><path id="Shape" d="M12.2,23.8 C5.7,23.8 0.4,18.5 0.4,12 C0.4,5.5 5.7,0.2 12.2,0.2 C18.7,0.2 24,5.5 24,12 C24,18.5 18.7,23.8 12.2,23.8 Z M12.2,10.3 C11.2,10.3 10.4,11.1 10.4,12.1 C10.4,13.1 11.2,13.9 12.2,13.9 C13.2,13.9 14,13.1 14,12.1 C14,11.1 13.2,10.3 12.2,10.3 Z"/></g><g fill="#383A48" fill-rule="nonzero" transform="translate(464.000000, 651.000000)"><circle id="Oval" cx="12.6" cy="12.3" r="6.8"/><path id="Shape" d="M12.6,24 C6.1,24 0.8,18.7 0.8,12.2 C0.8,5.7 6.1,0.4 12.6,0.4 C19.1,0.4 24.4,5.7 24.4,12.2 C24.4,18.7 19,24 12.6,24 Z M12.6,10.5 C11.6,10.5 10.8,11.3 10.8,12.3 C10.8,13.3 11.6,14.1 12.6,14.1 C13.6,14.1 14.4,13.3 14.4,12.3 C14.4,11.3 13.5,10.5 12.6,10.5 Z"/></g><g fill="#383A48" fill-rule="nonzero" transform="translate(464.000000, 581.000000)"><circle id="Oval" cx="12.6" cy="12.1" r="6.8"/><path id="Shape" d="M12.6,23.9 C6.1,23.9 0.8,18.6 0.8,12.1 C0.8,5.6 6.1,0.3 12.6,0.3 C19.1,0.3 24.4,5.6 24.4,12.1 C24.4,18.6 19,23.9 12.6,23.9 Z M12.6,10.3 C11.6,10.3 10.8,11.1 10.8,12.1 C10.8,13.1 11.6,13.9 12.6,13.9 C13.6,13.9 14.4,13.1 14.4,12.1 C14.3,11.1 13.5,10.3 12.6,10.3 Z"/></g><g fill="#383A48" fill-rule="nonzero" transform="translate(43.000000, 628.000000)"><circle id="Oval" cx="12.4" cy="12.7" r="6.8"/><path id="Shape" d="M12.4,24.5 C5.9,24.5 0.6,19.2 0.6,12.7 C0.6,6.2 5.9,0.9 12.4,0.9 C18.9,0.9 24.2,6.2 24.2,12.7 C24.2,19.2 18.9,24.5 12.4,24.5 Z M12.4,11 C11.4,11 10.6,11.8 10.6,12.8 C10.6,13.8 11.4,14.6 12.4,14.6 C13.4,14.6 14.2,13.8 14.2,12.8 C14.2,11.8 13.4,11 12.4,11 Z"/></g><g id="Path" fill="#383A48" fill-rule="nonzero"><path d="M8.1,5 C7.6,5 7.1,5.1 6.6,5.2 C6.9,6.4 7,7.7 7.1,8.9 C7.2,12.1 6.5,15.1 5.1,17.8 C6,18.3 7,18.6 8.2,18.6 C11.9,18.6 15,15.6 15,11.8 C14.9,8 11.8,5 8.1,5 Z" transform="translate(2.000000, 591.000000)"/><path d="M8.1,23.5 C6.3,23.5 4.5,23.1 2.8,22.2 C1.6,21.6 0.7,20.5 0.3,19.3 C-0.1,18 6.9388939e-18,16.7 0.6,15.5 C1.7,13.4 2.1,11.3 2.1,9.2 C2.1,8.3 1.9,7.3 1.7,6.3 C1.1,3.7 2.8,1 5.4,0.4 C6.3,0.2 7.2,0.1 8.1,0.1 C14.6,0.1 19.9,5.4 19.9,11.9 C19.9,18.4 14.6,23.5 8.1,23.5 Z" transform="translate(2.000000, 591.000000)"/></g></g><g id="Path" fill-rule="nonzero"><g><path fill="#F6E049" d="M313.2,113 L5.3,113 L5.3,99.6 C5.3,47.4 47.6,5 99.9,5 L294.4,5" transform="translate(498.000000, 652.000000)"/><path fill="#383A48" d="M313.2,118 L5.3,118 C2.5,118 0.3,115.8 0.3,113 L0.3,99.6 C0.3,44.7 45,0 99.9,0 L294.4,0 C297.2,0 299.4,2.2 299.4,5 C299.4,7.8 297.2,10 294.4,10 L99.9,10 C50.5,10 10.3,50.2 10.3,99.6 L10.3,108 L313.2,108 C316,108 318.2,110.2 318.2,113 C318.2,115.8 315.9,118 313.2,118 Z" transform="translate(498.000000, 652.000000)"/></g><path fill="#F3F6E6" d="M99.5,10.3 L115.6,10.3 C129.4,10.3 140.6,21.5 140.6,35.3 L140.6,82.9 C140.6,96.7 129.4,107.9 115.6,107.9 L9.8,107.9 L9.8,100.1 C9.8,50.4 49.9,10.3 99.5,10.3 Z" transform="translate(498.000000, 652.000000)"/><path fill="#383A48" d="M44,118 C41.2,118 39,115.8 39,113 L39,99.6 C39,84.1 42.5,69.2 49.3,55.4 C50.5,52.9 53.5,51.9 56,53.1 C58.5,54.3 59.5,57.3 58.3,59.8 C52.1,72.2 49,85.6 49,99.6 L49,113 C49,115.8 46.8,118 44,118 Z" transform="translate(498.000000, 652.000000)"/><path fill="#383A48" d="M78.6,118 C75.8,118 73.6,115.8 73.6,113 L73.6,99.6 C73.6,84.1 77.1,69.2 83.9,55.4 C85.1,52.9 88.1,51.9 90.6,53.1 C93.1,54.3 94.1,57.3 92.9,59.8 C86.7,72.2 83.6,85.6 83.6,99.6 L83.6,113 C83.6,115.8 81.4,118 78.6,118 Z" transform="translate(498.000000, 652.000000)"/></g><g id="Path" fill-rule="nonzero"><path fill="#F6E049" d="M251.7,5.4 L223.1,25.3 C155,72.9 136.1,165.4 180,235.9 L217.7,296.5 L98.2,296.5 C47,296.5 5.4,338 5.4,389.3 L5.4,405 L125.9,405" transform="translate(855.000000, 360.000000)"/><path fill="#383A48" d="M125.9,410 L5.4,410 C2.6,410 0.4,407.8 0.4,405 L0.4,389.3 C0.4,335.4 44.3,291.5 98.2,291.5 L208.7,291.5 L175.8,238.6 C130.5,165.8 150,70.3 220.3,21.2 L248.9,1.3 C251.2,-0.3 254.3,0.3 255.9,2.5 C257.5,4.8 256.9,7.9 254.7,9.5 L226.1,29.4 C160.2,75.5 141.8,165 184.3,233.3 L222,293.9 C223,295.4 223,297.4 222.1,299 C221.2,300.6 219.5,301.6 217.7,301.6 L98.2,301.6 C49.8,301.6 10.4,341 10.4,389.4 L10.4,400 L125.9,400 C128.7,400 130.9,402.2 130.9,405 C130.9,407.8 128.7,410 125.9,410 Z" transform="translate(855.000000, 360.000000)"/></g><path id="Path" fill="#F3F6E6" fill-rule="nonzero" d="M955.4,662.3 L971.5,662.3 C985.3,662.3 996.5,673.5 996.5,687.3 L996.5,734.9 C996.5,748.7 985.3,759.9 971.5,759.9 L865.7,759.9 L865.7,752.1 C865.7,702.4 905.9,662.3 955.4,662.3 Z"/><g fill-rule="nonzero" transform="translate(1056.000000, 651.000000)"><path id="Path" fill="#F6E049" d="M254.2,5.5 L59.5,5.5 C29.5,5.5 5.3,29.8 5.3,59.7 L5.3,59.7 C5.3,89.7 29.6,113.9 59.5,113.9 L254.2,113.9 C284.2,113.9 308.4,89.6 308.4,59.7 L308.4,59.7 C308.4,29.8 284.2,5.5 254.2,5.5 Z"/><path id="Shape" fill="#383A48" d="M254.2,119 L59.5,119 C26.8,119 0.3,92.4 0.3,59.8 C0.3,27.2 26.9,0.6 59.5,0.6 L254.2,0.6 C286.9,0.6 313.4,27.2 313.4,59.8 C313.4,92.4 286.9,119 254.2,119 Z M59.5,10.5 C32.3,10.5 10.3,32.6 10.3,59.7 C10.3,86.8 32.4,108.9 59.5,108.9 L254.2,108.9 C281.4,108.9 303.4,86.8 303.4,59.7 C303.4,32.6 281.3,10.5 254.2,10.5 L59.5,10.5 Z"/></g><rect id="Rectangle" width="49" height="98.5" x="1153.7" y="661.5" fill="#F3F6E6" fill-rule="nonzero"/><rect id="Rectangle" width="49" height="98.5" x="1256.5" y="661.5" fill="#F3F6E6" fill-rule="nonzero"/><g id="Path" fill="#383A48" fill-rule="nonzero"><path d="M5.5,66 C2.7,66 0.5,63.8 0.5,61 L0.5,47.6 C0.5,32.1 4,17.2 10.8,3.4 C12,0.9 15,-0.1 17.5,1.1 C20,2.3 21,5.3 19.8,7.8 C13.6,20.2 10.5,33.6 10.5,47.6 L10.5,61 C10.5,63.8 8.2,66 5.5,66 Z" transform="translate(891.000000, 704.000000)"/><path d="M40.1,66 C37.3,66 35.1,63.8 35.1,61 L35.1,47.6 C35.1,32.1 38.6,17.2 45.4,3.4 C46.6,0.9 49.6,-0.1 52.1,1.1 C54.6,2.3 55.6,5.3 54.4,7.8 C48.2,20.2 45.1,33.6 45.1,47.6 L45.1,61 C45.1,63.8 42.9,66 40.1,66 Z" transform="translate(891.000000, 704.000000)"/></g><path id="Shape" fill="#383A48" fill-rule="nonzero" d="M143.4,496.9 C143.3,496.9 143.1,496.9 143,496.9 C140.2,496.7 138.2,494.3 138.4,491.5 C138.7,487.5 139,483.5 139.3,479.5 C139.5,476.7 141.9,474.7 144.7,474.9 C147.5,475.1 149.5,477.5 149.3,480.3 C149,484.2 148.7,488.2 148.4,492.3 C148.2,494.9 146,496.9 143.4,496.9 Z M146.7,455.1 C146.6,455.1 146.4,455.1 146.3,455.1 C143.5,454.9 141.5,452.4 141.7,449.7 C142.1,445.6 142.4,441.6 142.8,437.7 C143.1,434.9 145.5,432.9 148.2,433.2 C151,433.5 153,435.9 152.7,438.6 C152.3,442.5 152,446.5 151.6,450.5 C151.5,453.1 149.3,455.1 146.7,455.1 Z M151.1,413.3 C150.9,413.3 150.7,413.3 150.5,413.3 C147.8,412.9 145.8,410.4 146.2,407.7 C146.7,403.5 147.3,399.5 147.9,395.7 C148.3,393 150.8,391.1 153.6,391.5 C156.3,391.9 158.2,394.5 157.8,397.2 C157.2,400.9 156.7,404.9 156.2,409 C155.7,411.5 153.6,413.3 151.1,413.3 Z M158.2,371.9 C157.8,371.9 157.4,371.9 157.1,371.8 C154.4,371.2 152.7,368.5 153.4,365.8 C154.4,361.7 155.4,357.7 156.4,353.9 C157.2,351.2 159.9,349.7 162.6,350.5 C165.3,351.3 166.8,354 166,356.7 C165,360.3 164,364.1 163.1,368.1 C162.5,370.4 160.5,371.9 158.2,371.9 Z M424.2,353.1 L412.2,353.1 C409.4,353.1 407.2,350.9 407.2,348.1 C407.2,345.3 409.4,343.1 412.2,343.1 L424.2,343.1 C427,343.1 429.2,345.3 429.2,348.1 C429.2,350.9 427,353.1 424.2,353.1 Z M454.2,352.6 C451.9,352.6 449.8,351 449.3,348.7 C448.7,346 450.4,343.3 453.1,342.7 C456,342.1 458.7,340.7 461.9,338.4 C464.1,336.8 467.2,337.2 468.9,339.4 C470.5,341.6 470.1,344.7 467.9,346.4 C463.6,349.6 459.6,351.5 455.3,352.5 C454.9,352.5 454.5,352.6 454.2,352.6 Z M383.7,346.9 C382.6,346.9 381.6,346.6 380.7,345.9 C377.9,343.7 374.9,341 371.3,337.4 C369.4,335.4 369.4,332.3 371.3,330.3 C373.3,328.4 376.4,328.4 378.4,330.3 C381.6,333.6 384.4,336.1 386.8,337.9 C389,339.6 389.4,342.7 387.7,344.9 C386.7,346.2 385.2,346.9 383.7,346.9 Z M171.6,332.2 C170.9,332.2 170.1,332 169.4,331.7 C166.9,330.5 165.9,327.5 167.1,325 C168.9,321.2 170.9,317.5 173,314 C174.4,311.6 177.5,310.9 179.9,312.3 C182.3,313.7 183,316.8 181.6,319.2 C179.7,322.4 177.9,325.8 176.2,329.4 C175.3,331.2 173.5,332.2 171.6,332.2 Z M486,326.2 C484.8,326.2 483.6,325.8 482.7,324.9 C480.6,323.1 480.4,319.9 482.3,317.8 L483.7,316.3 C485.9,313.9 488.1,311.4 490.4,308.8 C492.3,306.8 495.4,306.6 497.5,308.5 C499.6,310.4 499.7,313.5 497.8,315.6 C495.5,318.1 493.3,320.6 491.2,323 L489.8,324.5 C488.8,325.6 487.4,326.2 486,326.2 Z M354.7,316.7 C353.3,316.7 352,316.2 351,315.1 C348.1,311.9 345.4,309.1 342.9,306.5 C341,304.5 341,301.4 342.9,299.4 C344.9,297.5 348,297.5 350,299.4 C352.6,302 355.4,304.9 358.4,308.3 C360.3,310.3 360.1,313.5 358.1,315.4 C357.1,316.2 355.9,316.7 354.7,316.7 Z M195.9,298.3 C194.6,298.3 193.2,297.8 192.3,296.7 C190.4,294.7 190.5,291.5 192.5,289.6 C192.8,289.3 193.2,289 193.5,288.6 C196.3,286.1 199.2,283.7 202.2,281.5 C204.4,279.9 207.6,280.4 209.2,282.6 C210.8,284.8 210.3,288 208.1,289.6 C205.4,291.6 202.8,293.7 200.3,296 C200,296.3 199.7,296.6 199.4,296.9 C198.3,297.8 197.1,298.3 195.9,298.3 Z M515.5,296.3 C514.1,296.3 512.6,295.7 511.6,294.5 C509.8,292.4 510.1,289.2 512.3,287.5 C514.8,285.4 517.4,283.4 520,281.6 C520.8,281.1 521.5,280.5 522.3,280 C524.6,278.4 527.7,279 529.2,281.3 C530.8,283.6 530.2,286.7 527.9,288.2 C527.2,288.7 526.5,289.2 525.8,289.7 C523.4,291.4 521,293.2 518.7,295.2 C517.7,295.9 516.6,296.3 515.5,296.3 Z M643.5,290.1 C642.5,290.1 641.5,289.8 640.6,289.2 C637.5,287 634.3,285 631,283.2 C628.6,281.9 627.7,278.8 629,276.4 C630.3,274 633.4,273.1 635.8,274.4 C639.5,276.4 643.1,278.7 646.5,281.1 C648.7,282.7 649.3,285.8 647.6,288.1 C646.6,289.4 645,290.1 643.5,290.1 Z M323.5,288.7 C322.5,288.7 321.6,288.4 320.7,287.9 C317.5,285.7 314.2,283.8 310.9,282 C308.5,280.7 307.5,277.7 308.8,275.3 C310.1,272.9 313.1,271.9 315.5,273.2 C319.1,275.1 322.8,277.3 326.3,279.6 C328.6,281.1 329.2,284.2 327.7,286.5 C326.7,287.9 325.1,288.7 323.5,288.7 Z M231.7,276.9 C229.6,276.9 227.7,275.6 227,273.5 C226.1,270.9 227.5,268 230.2,267.2 C234.1,265.9 238.2,264.8 242.3,263.9 C245,263.3 247.7,265 248.2,267.7 C248.8,270.4 247.1,273.1 244.4,273.6 C240.6,274.4 236.9,275.4 233.4,276.6 C232.7,276.8 232.2,276.9 231.7,276.9 Z M551.9,275.9 C549.8,275.9 547.8,274.5 547.1,272.4 C546.3,269.8 547.7,267 550.3,266.1 C554.3,264.8 558.4,263.8 562.5,263 C565.2,262.5 567.8,264.3 568.3,267 C568.8,269.7 567,272.3 564.3,272.8 C560.6,273.5 556.9,274.4 553.3,275.6 C552.9,275.8 552.4,275.9 551.9,275.9 Z M605.2,273.6 C604.9,273.6 604.5,273.6 604.2,273.5 C600.5,272.7 596.7,272.2 592.8,271.8 C590.1,271.5 588.1,269.1 588.3,266.3 C588.6,263.6 591,261.6 593.8,261.8 C598,262.2 602.2,262.9 606.2,263.7 C608.9,264.3 610.6,266.9 610.1,269.6 C609.6,272 607.5,273.6 605.2,273.6 Z M285,272.8 C284.7,272.8 284.4,272.8 284.1,272.7 C280.4,272 276.6,271.6 272.8,271.4 C270,271.2 267.9,268.9 268.1,266.1 C268.3,263.3 270.6,261.2 273.4,261.4 C277.6,261.6 281.8,262.1 285.9,262.9 C288.6,263.4 290.4,266 289.9,268.7 C289.5,271.1 287.3,272.8 285,272.8 Z"/></g><path id="Path" fill="#AAC6FC" fill-rule="nonzero" d="M1550.4,1.5 C1549.5,0.6 1548.2,0 1546.9,0 L1355.2,0 C1352.4,0 1350.2,2.2 1350.2,5 C1350.2,113.5 1438.4,201.7 1546.9,201.7 C1549.7,201.7 1551.9,199.5 1551.9,196.7 L1551.9,5 C1551.8,3.7 1551.3,2.4 1550.4,1.5 Z"/><g id="Path" fill-rule="nonzero"><path fill="#E0719E" d="M234.5,0 L52.6,0 C23.8,0 0.3,23.5 0.3,52.3 L0.3,146 C0.3,174.8 23.8,198.3 52.6,198.3 L93.7,198.3 L139.7,255.8 C140.6,257 142.1,257.7 143.6,257.7 C145.1,257.7 146.6,257 147.5,255.8 L193.5,198.3 L234.6,198.3 C263.4,198.3 286.9,174.8 286.9,146 L286.9,52.4 C286.9,23.5 263.4,0 234.5,0 Z" transform="translate(415.000000, 0.000000)"/><path fill="#F3F6E6" d="M203.6,87.7 C202.8,78.9 198.6,71 191.8,65.3 C177.8,53.7 157,55.6 145.4,69.6 L143.7,71.6 L141.7,69.3 C130.1,55.5 109.3,53.7 95.4,65.2 C88.6,70.9 84.4,78.8 83.6,87.7 C82.8,96.5 85.5,105.1 91.2,111.9 C91.3,112.1 91.5,112.2 91.6,112.4 L140.5,157.3 C141.5,158.2 142.7,158.6 143.9,158.6 C145.1,158.6 146.3,158.2 147.3,157.3 L195.6,112.4 C195.8,112.3 195.9,112.1 196,111.9 C201.8,105 204.4,96.5 203.6,87.7 Z" transform="translate(415.000000, 0.000000)"/></g></g></g></g></svg>