<?xml version="1.0" encoding="utf-8"?>
<!-- Generator: Adobe Illustrator 22.0.1, SVG Export Plug-In . SVG Version: 6.00 Build 0)  -->
<svg version="1.1" id="Layer_1" xmlns="http://www.w3.org/2000/svg" xmlns:xlink="http://www.w3.org/1999/xlink" x="0px" y="0px" viewBox="0 0 1920 1080" style="enable-background:new 0 0 1920 1080;" xml:space="preserve">

<rect y="0" width="1920" height="1080" style="fill:#7FD6C2;"/>
<g>
	<path d="M704.4,134.7H185.7c-2.8,0-5,2.2-5,5v753.5c0,2.6,2,4.8,4.6,5c0.1,0,0.3,0,0.4,0c2.4,0,4.6-1.8,4.9-4.2
		c10.8-70,20.7-118.7,39.5-159.9c19.5-42.6,48.7-78.2,97.8-119.1c50.1-41.7,89.3-88.6,119.8-143.2c26.6-47.6,43-94.7,57.5-136.3
		l3.5-10.1C525,279,539.3,241,563.8,210.8c27-33.3,63.6-53.2,115.3-62.5c8.1-1.5,16.8-2.7,25.8-3.6c2.6-0.3,4.6-2.6,4.5-5.2
		C709.3,136.8,707.1,134.7,704.4,134.7z" style="fill:#F3F6E6;"/>
	<path d="M704.4,134.7H523.5c-28.8,0-52.3,23.5-52.3,52.3v93.6c0,20.5,12.1,39.2,30.7,47.7c0.7,0.3,1.4,0.4,2.1,0.4
		s1.3-0.1,2-0.4c1.3-0.6,2.3-1.6,2.8-2.9c16.3-46.4,30.6-84.4,55.1-114.6c27-33.3,63.6-53.2,115.3-62.5c8.1-1.5,16.8-2.7,25.8-3.6
		c2.6-0.3,4.6-2.6,4.5-5.2C709.3,136.8,707.1,134.7,704.4,134.7z" style="fill:#383A48;"/>
	<path d="M1734.3,134.7c-2.8,0-5,2.2-5,5c0,54.7-9.3,94.1-29.1,124.2c-20.9,31.6-51.3,49.6-86.4,70.4
		c-43.8,25.9-93.4,55.3-137.8,119c-8.4,12-16.4,25.1-23.9,38.8c-80.8,148.5-109.4,161.8-156.7,183.7
		c-51.1,23.6-121.1,56-291.6,261.3c-1.2,1.5-1.5,3.6-0.7,5.3c0.8,1.8,2.6,2.9,4.5,2.9h726.8c2.8,0,5-2.2,5-5V139.7
		C1739.3,137,1737.1,134.7,1734.3,134.7z" style="fill:#F3F6E6;"/>
	<g>
		<g>
			<path d="M703.6,913.2l5.1,18.4l154.8-103.5c34-22.7,43.1-68.7,20.4-102.7l-3.5-5.2l-139.8,93.5
				C708.1,835.5,693.2,875.6,703.6,913.2z" style="fill:#E0719E;"/>
			<path d="M708.7,936.7c-0.6,0-1.2-0.1-1.7-0.3c-1.5-0.6-2.6-1.8-3.1-3.4l-5.1-18.4c-11-39.8,4.7-81.9,39-104.9
				l139.8-93.5c1.1-0.7,2.5-1,3.8-0.7s2.4,1,3.2,2.1l3.5,5.2c11.7,17.5,15.9,38.6,11.8,59.3c-4.1,20.7-16,38.6-33.6,50.3
				L711.5,935.8C710.6,936.4,709.7,936.7,708.7,936.7z M879,727.3L743.3,818c-30.7,20.5-44.8,58.3-34.9,93.9l0,0l3.2,11.8l149-99.6
				c15.3-10.2,25.7-25.8,29.3-43.9c3.6-18.1-0.1-36.5-10.3-51.8L879,727.3z" style="fill:#383A48;"/>
		</g>
		<g>
			<path d="M460,548.8L444.9,537l154.8-103.5c34-22.7,79.9-13.6,102.7,20.4l3.5,5.2L566,552.6
				C533.5,574.3,490.8,572.8,460,548.8z" style="fill:#E0719E;"/>
			<path d="M515.6,572.9c-20.8,0-41.5-6.8-58.7-20.2l0,0L441.8,541c-1.3-1-2-2.5-1.9-4.1s0.9-3.1,2.2-4l154.8-103.5
				c17.5-11.7,38.6-15.9,59.3-11.8s38.6,16,50.3,33.6l3.5,5.2c0.7,1.1,1,2.5,0.7,3.8s-1,2.4-2.1,3.2l-139.8,93.5
				C552.6,567.6,534.1,572.9,515.6,572.9z M463.1,544.8c29.2,22.7,69.4,24.2,100.1,3.6l135.7-90.7l-0.7-1
				c-10.2-15.3-25.8-25.7-43.9-29.3c-18.1-3.6-36.5,0.1-51.8,10.3l-149,99.6L463.1,544.8z" style="fill:#383A48;"/>
		</g>
		<g>
			
				<rect x="647.7" y="495.3" transform="matrix(0.8314 -0.5557 0.5557 0.8314 -244.5875 498.6531)" width="103.5" height="314.2" style="fill:#F3F6E6;"/>
			<path d="M743.7,816.6c-0.3,0-0.6,0-0.9-0.1c-1.3-0.2-2.4-1-3.1-2L565.1,553.2c-1.5-2.2-0.9-5.2,1.3-6.7l86-57.5
				c1.1-0.7,2.4-1,3.6-0.7c1.3,0.2,2.4,1,3.1,2l174.6,261.2c1.5,2.2,0.9,5.2-1.3,6.7l-86,57.5C745.6,816.3,744.6,816.6,743.7,816.6z
				 M575.8,551.8L745,805.1l78-52.2L653.8,499.7L575.8,551.8z" style="fill:#383A48;"/>
		</g>
		<g>
			<path d="M829.7,754.2L655.1,493l140.3-93.8c114-76.2,218.4-94.7,351.7-89.3l55.9,2.2l-17.6,50.6
				c-45,129.5-103.5,223-220.8,301.4L829.7,754.2z" style="fill:#F6E049;"/>
			<path d="M829.7,759.2c-1.6,0-3.2-0.8-4.2-2.2L651,495.8c-0.7-1.1-1-2.5-0.7-3.8s1-2.4,2.1-3.2L792.7,395
				c55.6-37.2,111.3-62,170.2-75.9c53.3-12.6,111.9-17.1,184.5-14.2l55.9,2.2c1.6,0.1,3,0.9,3.9,2.2c0.9,1.3,1.1,3,0.6,4.5
				l-17.6,50.6c-24.4,70.3-51.1,124.7-83.9,171.1c-36.1,51.1-81.5,94.5-138.8,132.8l-135,90.2C831.7,759,830.7,759.2,829.7,759.2z
				 M662.1,494.4l169.1,252.9L962,659.9c56.3-37.6,100.8-80.2,136.2-130.2c32.3-45.6,58.6-99.2,82.6-168.6l15.3-44.2l-49.2-2
				c-71.6-2.9-129.4,1.6-181.8,14c-57.8,13.7-112.4,38-167,74.5L662.1,494.4z" style="fill:#383A48;"/>
		</g>
		<g>
			<g>
				<g>
					<g>
						<circle cx="1078.7" cy="568" r="3.9" style="fill:#383A48;"/>
					</g>
				</g>
				<g>
					<g>
						<circle cx="1062.6" cy="578.8" r="3.9" style="fill:#383A48;"/>
					</g>
				</g>
				<g>
					<g>
						<circle cx="1046.5" cy="589.5" r="3.9" style="fill:#383A48;"/>
					</g>
				</g>
				<g>
					<g>
						<circle cx="1030.4" cy="600.3" r="3.9" style="fill:#383A48;"/>
					</g>
				</g>
				<g>
					<g>
						<circle cx="1014.2" cy="611.1" r="3.9" style="fill:#383A48;"/>
					</g>
				</g>
				<g>
					<g>
						<circle cx="998.1" cy="621.9" r="3.9" style="fill:#383A48;"/>
					</g>
				</g>
				<g>
					<g>
						<circle cx="982" cy="632.7" r="3.9" style="fill:#383A48;"/>
					</g>
				</g>
				<g>
					<g>
						<circle cx="965.9" cy="643.4" r="3.9" style="fill:#383A48;"/>
					</g>
				</g>
				<g>
					<g>
						<circle cx="949.7" cy="654.2" r="3.9" style="fill:#383A48;"/>
					</g>
				</g>
				<g>
					<g>
						<circle cx="933.6" cy="665" r="3.9" style="fill:#383A48;"/>
					</g>
				</g>
				<g>
					<g>
						<circle cx="917.5" cy="675.8" r="3.9" style="fill:#383A48;"/>
					</g>
				</g>
				<g>
					<g>
						<circle cx="901.4" cy="686.6" r="3.9" style="fill:#383A48;"/>
					</g>
				</g>
				<g>
					<g>
						<circle cx="885.2" cy="697.3" r="3.9" style="fill:#383A48;"/>
					</g>
				</g>
				<g>
					<g>
						<circle cx="869.1" cy="708.1" r="3.9" style="fill:#383A48;"/>
					</g>
				</g>
				<g>
					<g>
						<circle cx="853" cy="718.9" r="3.9" style="fill:#383A48;"/>
					</g>
				</g>
				<g>
					<g>
						<circle cx="836.9" cy="729.7" r="3.9" style="fill:#383A48;"/>
					</g>
				</g>
				<g>
					<g>
						<circle cx="820.7" cy="740.4" r="3.9" style="fill:#383A48;"/>
					</g>
				</g>
				<g>
					<g>
						<circle cx="804.6" cy="751.2" r="3.9" style="fill:#383A48;"/>
					</g>
				</g>
				<g>
					<g>
						<circle cx="788.5" cy="762" r="3.9" style="fill:#383A48;"/>
					</g>
				</g>
				<g>
					<g>
						<circle cx="772.4" cy="772.8" r="3.9" style="fill:#383A48;"/>
					</g>
				</g>
				<g>
					<g>
						<circle cx="756.2" cy="783.6" r="3.9" style="fill:#383A48;"/>
					</g>
				</g>
				<g>
					<g>
						<circle cx="740.1" cy="794.3" r="3.9" style="fill:#383A48;"/>
					</g>
				</g>
				<g>
					<g>
						<circle cx="1100.2" cy="530.3" r="3.9" style="fill:#383A48;"/>
					</g>
				</g>
				<g>
					<g>
						<circle cx="1084.1" cy="541.1" r="3.9" style="fill:#383A48;"/>
					</g>
				</g>
				<g>
					<g>
						<circle cx="1067.9" cy="551.9" r="3.9" style="fill:#383A48;"/>
					</g>
				</g>
				<g>
					<g>
						<circle cx="1051.8" cy="562.6" r="3.9" style="fill:#383A48;"/>
					</g>
				</g>
				<g>
					<g>
						<circle cx="1035.7" cy="573.4" r="3.9" style="fill:#383A48;"/>
					</g>
				</g>
				<g>
					<g>
						<circle cx="1019.6" cy="584.2" r="3.9" style="fill:#383A48;"/>
					</g>
				</g>
				<g>
					<g>
						<circle cx="1003.4" cy="595" r="3.9" style="fill:#383A48;"/>
					</g>
				</g>
				<g>
					<g>
						<circle cx="987.3" cy="605.8" r="3.9" style="fill:#383A48;"/>
					</g>
				</g>
				<g>
					<g>
						<circle cx="971.2" cy="616.5" r="3.9" style="fill:#383A48;"/>
					</g>
				</g>
				<g>
					<g>
						<circle cx="955.1" cy="627.3" r="3.9" style="fill:#383A48;"/>
					</g>
				</g>
				<g>
					<g>
						<circle cx="938.9" cy="638.1" r="3.9" style="fill:#383A48;"/>
					</g>
				</g>
				<g>
					<g>
						<circle cx="922.8" cy="648.9" r="3.9" style="fill:#383A48;"/>
					</g>
				</g>
				<g>
					<g>
						<circle cx="906.7" cy="659.6" r="3.9" style="fill:#383A48;"/>
					</g>
				</g>
				<g>
					<g>
						<circle cx="890.6" cy="670.4" r="3.9" style="fill:#383A48;"/>
					</g>
				</g>
				<g>
					<g>
						<circle cx="874.4" cy="681.2" r="3.9" style="fill:#383A48;"/>
					</g>
				</g>
				<g>
					<g>
						<circle cx="858.3" cy="692" r="3.9" style="fill:#383A48;"/>
					</g>
				</g>
				<g>
					<g>
						<circle cx="842.2" cy="702.8" r="3.9" style="fill:#383A48;"/>
					</g>
				</g>
				<g>
					<g>
						<circle cx="826.1" cy="713.5" r="3.9" style="fill:#383A48;"/>
					</g>
				</g>
				<g>
					<g>
						<circle cx="809.9" cy="724.3" r="3.9" style="fill:#383A48;"/>
					</g>
				</g>
				<g>
					<g>
						<circle cx="793.8" cy="735.1" r="3.9" style="fill:#383A48;"/>
					</g>
				</g>
				<g>
					<g>
						<circle cx="777.7" cy="745.9" r="3.9" style="fill:#383A48;"/>
					</g>
				</g>
				<g>
					<g>
						<circle cx="761.6" cy="756.7" r="3.9" style="fill:#383A48;"/>
					</g>
				</g>
				<g>
					<g>
						<circle cx="745.4" cy="767.4" r="3.9" style="fill:#383A48;"/>
					</g>
				</g>
				<g>
					<g>
						<circle cx="729.3" cy="778.2" r="3.9" style="fill:#383A48;"/>
					</g>
				</g>
				<g>
					<g>
						<circle cx="1121.7" cy="492.6" r="3.9" style="fill:#383A48;"/>
					</g>
				</g>
				<g>
					<g>
						<circle cx="1105.5" cy="503.4" r="3.9" style="fill:#383A48;"/>
					</g>
				</g>
				<g>
					<g>
						<circle cx="1089.4" cy="514.2" r="3.9" style="fill:#383A48;"/>
					</g>
				</g>
				<g>
					<g>
						<circle cx="1073.3" cy="525" r="3.9" style="fill:#383A48;"/>
					</g>
				</g>
				<g>
					<g>
						<circle cx="1057.2" cy="535.7" r="3.9" style="fill:#383A48;"/>
					</g>
				</g>
				<g>
					<g>
						<circle cx="1041" cy="546.5" r="3.9" style="fill:#383A48;"/>
					</g>
				</g>
				<g>
					<g>
						<circle cx="1024.9" cy="557.3" r="3.9" style="fill:#383A48;"/>
					</g>
				</g>
				<g>
					<g>
						<circle cx="1008.8" cy="568.1" r="3.9" style="fill:#383A48;"/>
					</g>
				</g>
				<g>
					<g>
						<circle cx="992.7" cy="578.9" r="3.9" style="fill:#383A48;"/>
					</g>
				</g>
				<g>
					<g>
						<circle cx="976.5" cy="589.6" r="3.9" style="fill:#383A48;"/>
					</g>
				</g>
				<g>
					<g>
						<circle cx="960.4" cy="600.4" r="3.9" style="fill:#383A48;"/>
					</g>
				</g>
				<g>
					<g>
						<circle cx="944.3" cy="611.2" r="3.9" style="fill:#383A48;"/>
					</g>
				</g>
				<g>
					<g>
						<circle cx="928.2" cy="622" r="3.9" style="fill:#383A48;"/>
					</g>
				</g>
				<g>
					<g>
						<circle cx="912" cy="632.7" r="3.9" style="fill:#383A48;"/>
					</g>
				</g>
				<g>
					<g>
						<circle cx="895.9" cy="643.5" r="3.9" style="fill:#383A48;"/>
					</g>
				</g>
				<g>
					<g>
						<circle cx="879.8" cy="654.3" r="3.9" style="fill:#383A48;"/>
					</g>
				</g>
				<g>
					<g>
						<circle cx="863.7" cy="665.1" r="3.9" style="fill:#383A48;"/>
					</g>
				</g>
				<g>
					<g>
						<circle cx="847.5" cy="675.9" r="3.9" style="fill:#383A48;"/>
					</g>
				</g>
				<g>
					<g>
						<circle cx="831.4" cy="686.6" r="3.9" style="fill:#383A48;"/>
					</g>
				</g>
				<g>
					<g>
						<circle cx="815.3" cy="697.4" r="3.9" style="fill:#383A48;"/>
					</g>
				</g>
				<g>
					<g>
						<circle cx="799.2" cy="708.2" r="3.9" style="fill:#383A48;"/>
					</g>
				</g>
				<g>
					<g>
						<circle cx="783" cy="719" r="3.9" style="fill:#383A48;"/>
					</g>
				</g>
				<g>
					<g>
						<circle cx="766.9" cy="729.7" r="3.9" style="fill:#383A48;"/>
					</g>
				</g>
				<g>
					<g>
						<circle cx="750.8" cy="740.5" r="3.9" style="fill:#383A48;"/>
					</g>
				</g>
				<g>
					<g>
						<circle cx="734.7" cy="751.3" r="3.9" style="fill:#383A48;"/>
					</g>
				</g>
				<g>
					<g>
						<circle cx="718.5" cy="762.1" r="3.9" style="fill:#383A48;"/>
					</g>
				</g>
				<g>
					<g>
						<circle cx="1143.1" cy="454.9" r="3.9" style="fill:#383A48;"/>
					</g>
				</g>
				<g>
					<g>
						<circle cx="1127" cy="465.7" r="3.9" style="fill:#383A48;"/>
					</g>
				</g>
				<g>
					<g>
						<circle cx="1110.9" cy="476.5" r="3.9" style="fill:#383A48;"/>
					</g>
				</g>
				<g>
					<g>
						<circle cx="1094.8" cy="487.3" r="3.9" style="fill:#383A48;"/>
					</g>
				</g>
				<g>
					<g>
						<circle cx="1078.6" cy="498.1" r="3.9" style="fill:#383A48;"/>
					</g>
				</g>
				<g>
					<g>
						<circle cx="1062.5" cy="508.8" r="3.9" style="fill:#383A48;"/>
					</g>
				</g>
				<g>
					<g>
						<circle cx="1046.4" cy="519.6" r="3.9" style="fill:#383A48;"/>
					</g>
				</g>
				<g>
					<g>
						<circle cx="1030.3" cy="530.4" r="3.9" style="fill:#383A48;"/>
					</g>
				</g>
				<g>
					<g>
						<circle cx="1014.1" cy="541.2" r="3.9" style="fill:#383A48;"/>
					</g>
				</g>
				<g>
					<g>
						<circle cx="998" cy="552" r="3.9" style="fill:#383A48;"/>
					</g>
				</g>
				<g>
					<g>
						<circle cx="981.9" cy="562.7" r="3.9" style="fill:#383A48;"/>
					</g>
				</g>
				<g>
					<g>
						<circle cx="965.8" cy="573.5" r="3.9" style="fill:#383A48;"/>
					</g>
				</g>
				<g>
					<g>
						<circle cx="949.6" cy="584.3" r="3.9" style="fill:#383A48;"/>
					</g>
				</g>
				<g>
					<g>
						<circle cx="933.5" cy="595.1" r="3.9" style="fill:#383A48;"/>
					</g>
				</g>
				<g>
					<g>
						<circle cx="917.4" cy="605.8" r="3.9" style="fill:#383A48;"/>
					</g>
				</g>
				<g>
					<g>
						<circle cx="901.3" cy="616.6" r="3.9" style="fill:#383A48;"/>
					</g>
				</g>
				<g>
					<g>
						<circle cx="885.1" cy="627.4" r="3.9" style="fill:#383A48;"/>
					</g>
				</g>
				<g>
					<g>
						<circle cx="869" cy="638.2" r="3.9" style="fill:#383A48;"/>
					</g>
				</g>
				<g>
					<g>
						<circle cx="852.9" cy="649" r="3.9" style="fill:#383A48;"/>
					</g>
				</g>
				<g>
					<g>
						<circle cx="836.8" cy="659.7" r="3.9" style="fill:#383A48;"/>
					</g>
				</g>
				<g>
					<g>
						<circle cx="820.6" cy="670.5" r="3.9" style="fill:#383A48;"/>
					</g>
				</g>
				<g>
					<g>
						<circle cx="804.5" cy="681.3" r="3.9" style="fill:#383A48;"/>
					</g>
				</g>
				<g>
					<g>
						<circle cx="788.4" cy="692.1" r="3.9" style="fill:#383A48;"/>
					</g>
				</g>
				<g>
					<g>
						<circle cx="772.3" cy="702.8" r="3.9" style="fill:#383A48;"/>
					</g>
				</g>
				<g>
					<g>
						<circle cx="756.1" cy="713.6" r="3.9" style="fill:#383A48;"/>
					</g>
				</g>
				<g>
					<g>
						<circle cx="740" cy="724.4" r="3.9" style="fill:#383A48;"/>
					</g>
				</g>
				<g>
					<g>
						<circle cx="723.9" cy="735.2" r="3.9" style="fill:#383A48;"/>
					</g>
				</g>
				<g>
					<g>
						<circle cx="707.8" cy="746" r="3.9" style="fill:#383A48;"/>
					</g>
				</g>
				<g>
					<g>
						<circle cx="1164.6" cy="417.3" r="3.9" style="fill:#383A48;"/>
					</g>
				</g>
				<g>
					<g>
						<circle cx="1148.5" cy="428" r="3.9" style="fill:#383A48;"/>
					</g>
				</g>
				<g>
					<g>
						<circle cx="1132.4" cy="438.8" r="3.9" style="fill:#383A48;"/>
					</g>
				</g>
				<g>
					<g>
						<circle cx="1116.2" cy="449.6" r="3.9" style="fill:#383A48;"/>
					</g>
				</g>
				<g>
					<g>
						<circle cx="1100.1" cy="460.4" r="3.9" style="fill:#383A48;"/>
					</g>
				</g>
				<g>
					<g>
						<circle cx="777.6" cy="675.9" r="3.9" style="fill:#383A48;"/>
					</g>
				</g>
				<g>
					<g>
						<circle cx="761.5" cy="686.7" r="3.9" style="fill:#383A48;"/>
					</g>
				</g>
				<g>
					<g>
						<circle cx="745.4" cy="697.5" r="3.9" style="fill:#383A48;"/>
					</g>
				</g>
				<g>
					<g>
						<circle cx="729.2" cy="708.3" r="3.9" style="fill:#383A48;"/>
					</g>
				</g>
				<g>
					<g>
						<circle cx="713.1" cy="719.1" r="3.9" style="fill:#383A48;"/>
					</g>
				</g>
				<g>
					<g>
						<circle cx="697" cy="729.8" r="3.9" style="fill:#383A48;"/>
					</g>
				</g>
				<g>
					<g>
						<circle cx="1170" cy="390.4" r="3.9" style="fill:#383A48;"/>
					</g>
				</g>
				<g>
					<g>
						<circle cx="1153.8" cy="401.1" r="3.9" style="fill:#383A48;"/>
					</g>
				</g>
				<g>
					<g>
						<circle cx="766.8" cy="659.8" r="3.9" style="fill:#383A48;"/>
					</g>
				</g>
				<g>
					<g>
						<circle cx="750.7" cy="670.6" r="3.9" style="fill:#383A48;"/>
					</g>
				</g>
				<g>
					<g>
						<circle cx="734.6" cy="681.4" r="3.9" style="fill:#383A48;"/>
					</g>
				</g>
				<g>
					<g>
						<circle cx="718.5" cy="692.2" r="3.9" style="fill:#383A48;"/>
					</g>
				</g>
				<g>
					<g>
						<circle cx="702.3" cy="702.9" r="3.9" style="fill:#383A48;"/>
					</g>
				</g>
				<g>
					<g>
						<circle cx="686.2" cy="713.7" r="3.9" style="fill:#383A48;"/>
					</g>
				</g>
				<g>
					<g>
						<circle cx="1175.3" cy="363.5" r="3.9" style="fill:#383A48;"/>
					</g>
				</g>
				<g>
					<g>
						<circle cx="756.1" cy="643.7" r="3.9" style="fill:#383A48;"/>
					</g>
				</g>
				<g>
					<g>
						<circle cx="739.9" cy="654.5" r="3.9" style="fill:#383A48;"/>
					</g>
				</g>
				<g>
					<g>
						<circle cx="723.8" cy="665.2" r="3.9" style="fill:#383A48;"/>
					</g>
				</g>
				<g>
					<g>
						<circle cx="707.7" cy="676" r="3.9" style="fill:#383A48;"/>
					</g>
				</g>
				<g>
					<g>
						<circle cx="691.6" cy="686.8" r="3.9" style="fill:#383A48;"/>
					</g>
				</g>
				<g>
					<g>
						<circle cx="675.4" cy="697.6" r="3.9" style="fill:#383A48;"/>
					</g>
				</g>
				<g>
					<g>
						<circle cx="745.3" cy="627.6" r="3.9" style="fill:#383A48;"/>
					</g>
				</g>
				<g>
					<g>
						<circle cx="729.2" cy="638.3" r="3.9" style="fill:#383A48;"/>
					</g>
				</g>
				<g>
					<g>
						<circle cx="713" cy="649.1" r="3.9" style="fill:#383A48;"/>
					</g>
				</g>
				<g>
					<g>
						<circle cx="696.9" cy="659.9" r="3.9" style="fill:#383A48;"/>
					</g>
				</g>
				<g>
					<g>
						<circle cx="680.8" cy="670.7" r="3.9" style="fill:#383A48;"/>
					</g>
				</g>
				<g>
					<g>
						<circle cx="664.7" cy="681.5" r="3.9" style="fill:#383A48;"/>
					</g>
				</g>
				<g>
					<g>
						<circle cx="734.5" cy="611.4" r="3.9" style="fill:#383A48;"/>
					</g>
				</g>
				<g>
					<g>
						<circle cx="718.4" cy="622.2" r="3.9" style="fill:#383A48;"/>
					</g>
				</g>
				<g>
					<g>
						<circle cx="702.3" cy="633" r="3.9" style="fill:#383A48;"/>
					</g>
				</g>
				<g>
					<g>
						<circle cx="686.1" cy="643.8" r="3.9" style="fill:#383A48;"/>
					</g>
				</g>
				<g>
					<g>
						<circle cx="670" cy="654.6" r="3.9" style="fill:#383A48;"/>
					</g>
				</g>
				<g>
					<g>
						<circle cx="653.9" cy="665.3" r="3.9" style="fill:#383A48;"/>
					</g>
				</g>
				<g>
					<g>
						<circle cx="723.7" cy="595.3" r="3.9" style="fill:#383A48;"/>
					</g>
				</g>
				<g>
					<g>
						<circle cx="707.6" cy="606.1" r="3.9" style="fill:#383A48;"/>
					</g>
				</g>
				<g>
					<g>
						<circle cx="691.5" cy="616.9" r="3.9" style="fill:#383A48;"/>
					</g>
				</g>
				<g>
					<g>
						<circle cx="675.3" cy="627.7" r="3.9" style="fill:#383A48;"/>
					</g>
				</g>
				<g>
					<g>
						<circle cx="659.2" cy="638.4" r="3.9" style="fill:#383A48;"/>
					</g>
				</g>
				<g>
					<g>
						<circle cx="643.1" cy="649.2" r="3.9" style="fill:#383A48;"/>
					</g>
				</g>
				<g>
					<g>
						<circle cx="712.9" cy="579.2" r="3.9" style="fill:#383A48;"/>
					</g>
				</g>
				<g>
					<g>
						<circle cx="696.8" cy="590" r="3.9" style="fill:#383A48;"/>
					</g>
				</g>
				<g>
					<g>
						<circle cx="680.7" cy="600.7" r="3.9" style="fill:#383A48;"/>
					</g>
				</g>
				<g>
					<g>
						<circle cx="664.6" cy="611.5" r="3.9" style="fill:#383A48;"/>
					</g>
				</g>
				<g>
					<g>
						<circle cx="648.4" cy="622.3" r="3.9" style="fill:#383A48;"/>
					</g>
				</g>
				<g>
					<g>
						<circle cx="632.3" cy="633.1" r="3.9" style="fill:#383A48;"/>
					</g>
				</g>
				<g>
					<g>
						<circle cx="702.2" cy="563.1" r="3.9" style="fill:#383A48;"/>
					</g>
				</g>
				<g>
					<g>
						<circle cx="686" cy="573.8" r="3.9" style="fill:#383A48;"/>
					</g>
				</g>
				<g>
					<g>
						<circle cx="669.9" cy="584.6" r="3.9" style="fill:#383A48;"/>
					</g>
				</g>
				<g>
					<g>
						<circle cx="653.8" cy="595.4" r="3.9" style="fill:#383A48;"/>
					</g>
				</g>
				<g>
					<g>
						<circle cx="637.7" cy="606.2" r="3.9" style="fill:#383A48;"/>
					</g>
				</g>
				<g>
					<g>
						<circle cx="621.5" cy="617" r="3.9" style="fill:#383A48;"/>
					</g>
				</g>
				<g>
					<g>
						<circle cx="691.4" cy="546.9" r="3.9" style="fill:#383A48;"/>
					</g>
				</g>
				<g>
					<g>
						<circle cx="675.3" cy="557.7" r="3.9" style="fill:#383A48;"/>
					</g>
				</g>
				<g>
					<g>
						<circle cx="659.1" cy="568.5" r="3.9" style="fill:#383A48;"/>
					</g>
				</g>
				<g>
					<g>
						<circle cx="643" cy="579.3" r="3.9" style="fill:#383A48;"/>
					</g>
				</g>
				<g>
					<g>
						<circle cx="626.9" cy="590.1" r="3.9" style="fill:#383A48;"/>
					</g>
				</g>
				<g>
					<g>
						<circle cx="610.8" cy="600.8" r="3.9" style="fill:#383A48;"/>
					</g>
				</g>
				<g>
					<g>
						<circle cx="680.6" cy="530.8" r="3.9" style="fill:#383A48;"/>
					</g>
				</g>
				<g>
					<g>
						<circle cx="664.5" cy="541.6" r="3.9" style="fill:#383A48;"/>
					</g>
				</g>
				<g>
					<g>
						<circle cx="648.4" cy="552.4" r="3.9" style="fill:#383A48;"/>
					</g>
				</g>
				<g>
					<g>
						<circle cx="632.2" cy="563.2" r="3.9" style="fill:#383A48;"/>
					</g>
				</g>
				<g>
					<g>
						<circle cx="616.1" cy="573.9" r="3.9" style="fill:#383A48;"/>
					</g>
				</g>
				<g>
					<g>
						<circle cx="600" cy="584.7" r="3.9" style="fill:#383A48;"/>
					</g>
				</g>
				<g>
					<g>
						<circle cx="669.8" cy="514.7" r="3.9" style="fill:#383A48;"/>
					</g>
				</g>
				<g>
					<g>
						<circle cx="653.7" cy="525.5" r="3.9" style="fill:#383A48;"/>
					</g>
				</g>
				<g>
					<g>
						<circle cx="637.6" cy="536.2" r="3.9" style="fill:#383A48;"/>
					</g>
				</g>
				<g>
					<g>
						<circle cx="621.5" cy="547" r="3.9" style="fill:#383A48;"/>
					</g>
				</g>
				<g>
					<g>
						<circle cx="605.3" cy="557.8" r="3.9" style="fill:#383A48;"/>
					</g>
				</g>
				<g>
					<g>
						<circle cx="589.2" cy="568.6" r="3.9" style="fill:#383A48;"/>
					</g>
				</g>
				<g>
					<g>
						<circle cx="659.1" cy="498.6" r="3.9" style="fill:#383A48;"/>
					</g>
				</g>
				<g>
					<g>
						<circle cx="642.9" cy="509.3" r="3.9" style="fill:#383A48;"/>
					</g>
				</g>
				<g>
					<g>
						<circle cx="626.8" cy="520.1" r="3.9" style="fill:#383A48;"/>
					</g>
				</g>
				<g>
					<g>
						<circle cx="610.7" cy="530.9" r="3.9" style="fill:#383A48;"/>
					</g>
				</g>
				<g>
					<g>
						<circle cx="594.6" cy="541.7" r="3.9" style="fill:#383A48;"/>
					</g>
				</g>
				<g>
					<g>
						<circle cx="578.4" cy="552.5" r="3.9" style="fill:#383A48;"/>
					</g>
				</g>
			</g>
		</g>
		<g>
			<circle cx="938.9" cy="492.3" r="57.6" style="fill:#AAC6FC;"/>
			<path d="M939,554.9c-20.2,0-40.1-9.8-52.2-27.8c-19.2-28.7-11.4-67.7,17.3-86.9c28.7-19.2,67.7-11.4,86.9,17.3
				c19.2,28.7,11.4,67.7-17.3,86.9l0,0C963.1,551.5,951,554.9,939,554.9z M938.9,439.6c-10.1,0-20.2,2.9-29.2,8.9
				c-24.1,16.1-30.6,48.9-14.5,73c16.1,24.1,48.9,30.6,73,14.5l0,0c24.1-16.1,30.6-48.9,14.5-73
				C972.6,447.9,955.9,439.6,938.9,439.6z M971,540.2L971,540.2L971,540.2z" style="fill:#383A48;"/>
		</g>
		<g>
			<path d="M900.6,493.7c-0.2,0-0.3,0-0.5,0c-2.7-0.3-4.8-2.7-4.5-5.5c0.6-6.7,2.9-13.3,6.4-19c1.5-2.3,4.6-3,6.9-1.6
				c2.3,1.5,3,4.6,1.6,6.9c-2.8,4.4-4.5,9.5-5,14.7C905.4,491.7,903.2,493.7,900.6,493.7z" style="fill:#F3F6E6;"/>
		</g>
		<g>
			
				<rect x="554.7" y="626.1" transform="matrix(0.8314 -0.5557 0.5557 0.8314 -252.3355 492.1221)" width="260.2" height="71.6" style="fill:#E0719E;"/>
			<path d="M596.6,768.9c-1.6,0-3.2-0.8-4.2-2.2l-39.8-59.5c-0.7-1.1-1-2.5-0.7-3.8s1-2.4,2.1-3.2l216.3-144.6
				c1.1-0.7,2.5-1,3.8-0.7s2.4,1,3.2,2.1l39.8,59.5c1.5,2.3,0.9,5.4-1.4,6.9L599.4,768.1C598.5,768.7,597.5,768.9,596.6,768.9z
				 M563.7,705.8L598,757l208-139l-34.2-51.2L563.7,705.8z" style="fill:#383A48;"/>
		</g>
	</g>
	<g>
		<path d="M1495.2,727.3c11-10.5,15.1-23.5,12-37.5c-3.5-15.6-16.7-23.2-28.3-23.8c-4.6-0.2-9.1-0.2-13.6-0.2
			c-1.5,0-2.9,0-4.4,0c-10.6,0-59.2,0-137,0.2c0.1-0.2,0.1-0.5,0.2-0.7c0.1-0.7,0.3-1.4,0.4-2.1c4.8-21.4,8.3-39.1,11-55.8
			c1.4-8.7,2.6-17.3,3.4-25.4c0.4-3.9,0.6-7.8,0.9-11.6l0.2-3.3c0.4-5.3,0.2-9.9-0.4-14.2c-0.8-5.5-2.1-11.4-4-18
			c-5.3-18.8-12.6-37.9-23-60.1c-0.7-1.4-1.7-2.6-3.1-3.5c-3.9-2.6-7.6-4.3-11.3-5.4c-4.2-1.2-9.7-2.4-15.7-1.6c-0.6,0-2.1,0-4.2,0
			c-41.6-0.3-42.4-0.1-43.5,0.2c-3,0.8-4.3,3.2-4.2,5.3c0.2,4.3,4.4,5.2,7.8,5.8c2.3,0.5,5.4,1,8.6,1.5c2.8,0.5,6.8,1.1,9.8,1.7
			c0,0.2,0,0.3,0,0.5c0,17.5,0,35,0,52.5c0,9.3,0,18.6,0,27.8c0,0.3,0,0.5-0.2,0.7c-5.7,11-11,21-16.3,30.6
			c-22.8,41.3-46.1,76.7-71.4,108.3c-0.3,0.3-0.5,0.6-0.8,0.8c-3.8,2.7-7.7,5.4-11.5,8l-3.7,2.6l-0.1,0.1c-0.4,0.2-0.8,0.4-1.3,0.7
			c-1.5,1-3,2-4.5,3.1c-3.3,2.3-6.7,4.6-10.1,6.8c-2.3,1.6-3.5,3.8-3.5,6.7c0,5,0,10.1,0,15.1v25.7c0,50.1,0,100.2,0,150.3
			c0,0.2,0,0.5,0,0.7c0,1.2-0.1,3.2,1.6,4.9s3.7,1.7,4.9,1.6c0.2,0,0.4,0,0.7,0c5,0,10,0,15,0h4.8c0.6,0.4,1.1,0.7,1.7,1.1l3.6,2.2
			c7.5,4.5,15.2,9.1,23.1,13.1c1.6,0.8,3.6,1.7,6,1.7c1.5,0,3.1,0.1,4.6,0.1c2.1,0.1,4.1,0.1,6.2,0.2l4.9,0.1
			c8.2,0.1,16.6,0.2,24.9,0.2c47.2,0,158.7,0.3,173.5,0.4h0.1c3.1,0,6.1-0.6,9.1-1.9c5.4-2.3,10.7-5.6,16-10.2
			c7.6-6.4,12.9-13.1,16.2-20.6c2.5-5.6,3.4-11.3,2.7-16.9c-1-7.4-4.8-14-11.3-19.7c-0.8-0.7-1-1.2-0.9-2.3c0.1-0.8,0.2-1.1,0.2-1.1
			c0.1,0,0.3-0.3,1.3-0.6c1.4-0.4,3.1-1.1,4.8-2c11.7-6.6,19.5-16.5,23.2-29.4c3.5-12.3,0.1-23.5-9.9-32.3c-0.9-0.8-0.8-1.7-0.8-2.1
			c0.1-0.5,0.3-1.3,1.4-1.8c6.9-3,12.8-7.1,17.4-12c10.1-10.7,13.3-22.9,9.5-36.2c-2.1-7.5-5.5-13.2-10.4-17.7
			c-0.2-0.2-0.2-1.1,0-1.5C1484.4,735.4,1490.2,732,1495.2,727.3z" style="fill:#383A48;"/>
		<g id="_x35_Gmsrj.tif_2_">
			<g>
				<g>
					<g>
						<path d="M1431.8,671c-5.9-0.3-11.8-0.2-17.7-0.2c-17.7,0-86,0.1-114,0.1c-9.3,0-18.5,0-27.8,0
							c-0.1,0-0.3,0-0.4-0.1c-0.7-0.2-1-0.5-0.7-1.6c0.7-2.4,1.1-4.8,1.7-7.2c4.1-18.4,7.9-36.9,11-55.5c1.4-8.3,2.5-16.6,3.3-25
							c0.5-4.9,0.8-9.9,1.1-14.8c0.3-4.4,0.3-8.8-0.4-13.1c-0.9-5.9-2.2-11.7-3.8-17.4c-5.7-20.5-13.7-40.1-22.7-59.3
							c-0.3-0.7-0.8-1.1-1.3-1.5c-3.1-2-6.4-3.7-9.9-4.7c-4.6-1.3-9.2-2.1-14-1.4l0,0c-7.2,0.2-13.5,2.7-19.4,6.8
							c-1.2,0.8-1.6,1.8-1.6,3.3c0,26.8,0,53.6,0,80.4c0,1.1-0.2,2-0.7,3c-5.3,10.3-10.7,20.5-16.3,30.7
							c-21.1,38.2-44.6,74.9-71.9,109c-0.5,0.7-1.1,1.2-1.8,1.7c-5.1,3.6-10.3,7.2-15.4,10.8c-0.4,0.2-0.8,0.4-1.2,0.7
							c-4.9,3.3-9.7,6.7-14.7,9.9c-1,0.6-1.3,1.3-1.2,2.4c0.1,6.4,0,12.9,0,19.3c0,57.3,0,114.5,0,171.8c0,2.5-0.3,2.1,2.2,2.1
							c7.1,0,14.1,0,21.2,0l0,0l0,0c0.9,0.6,1.9,1.2,2.8,1.8c8.7,5.2,17.4,10.5,26.5,15.1c1.2,0.6,2.5,1.1,3.9,1.2
							c3.6,0.1,7.2,0.2,10.7,0.3c9.9,0.1,19.8,0.3,29.7,0.3c47,0,158.6,0.3,173.6,0.4c2.5,0,4.9-0.5,7.2-1.5
							c5.4-2.3,10.3-5.6,14.8-9.4c6.2-5.3,11.5-11.3,14.9-18.8c2-4.5,2.9-9.2,2.3-14.2c-0.9-6.8-4.5-12.2-9.6-16.6
							c-2.1-1.8-2.8-3.9-2.6-6.4c0.3-3.4,1.6-5,4.9-6c1.3-0.4,2.7-0.9,3.9-1.6c10.5-6,17.6-14.9,20.9-26.5
							c3.1-10.7-0.1-19.8-8.4-27.2c-4-3.5-3-10.1,1.9-12.2c6-2.6,11.3-6.1,15.8-10.8c8.4-8.9,11.8-19.4,8.4-31.4
							c-1.6-5.8-4.3-11.1-8.9-15.3c-3.1-2.8-2-8.9,1.7-9.9c5.9-1.6,11-4.6,15.3-8.8c9.4-9,13.5-19.9,10.6-32.8
							C1452.5,677.8,1441.7,671.5,1431.8,671z" style="fill:#F3F6E6;"/>
						<path d="M1362.6,945.3L1362.6,945.3c-15-0.1-126.5-0.3-173.6-0.4c-8.3,0-16.7-0.1-24.9-0.2l-4.9-0.1
							c-2.1,0-4.1-0.1-6.2-0.2c-1.5,0-3.1-0.1-4.6-0.1c-2.5-0.1-4.4-0.9-6-1.7c-8-4-15.7-8.7-23.1-13.1l-3.6-2.2
							c-0.6-0.3-1.1-0.7-1.7-1.1h-4.8c-5,0-10,0-15,0c-0.3,0-0.5,0-0.7,0c-1.2,0-3.2,0.1-4.9-1.6c-1.7-1.7-1.6-3.7-1.6-4.9
							c0-0.2,0-0.4,0-0.7c0-41.6,0-83.3,0-124.9V743c0-4.9,0-10,0-15c0-2.9,1.1-5.1,3.5-6.7c3.4-2.2,6.8-4.6,10.1-6.8
							c1.5-1,3-2,4.5-3c0.5-0.3,0.9-0.6,1.3-0.7l0.1-0.1l3.4-2.4c3.9-2.7,7.8-5.5,11.8-8.2c0.3-0.2,0.5-0.4,0.8-0.7
							c25.2-31.6,48.6-67,71.4-108.3c5.3-9.6,10.6-19.6,16.3-30.6c0.1-0.3,0.2-0.4,0.2-0.7c0-9.5,0-19.1,0-28.6
							c0-17.2,0-34.5,0-51.7c0-3.2,1.3-5.6,3.8-7.4c7-4.8,14.1-7.3,21.8-7.7c6-0.9,11.6,0.4,15.8,1.6c3.7,1,7.4,2.8,11.3,5.4
							c1.4,0.9,2.4,2.1,3.1,3.6c10.4,22.2,17.8,41.2,23,60.1c1.8,6.6,3.1,12.4,4,18c0.6,4.3,0.8,8.9,0.4,14.2l-0.2,3.3
							c-0.3,3.8-0.5,7.8-0.9,11.7c-0.8,8.1-1.9,16.7-3.4,25.4c-2.8,16.7-6.3,34.4-11,55.8c-0.2,0.7-0.3,1.4-0.4,2.1
							c-0.1,0.2-0.1,0.5-0.2,0.7h3.9c6.4,0,12.7,0,19.1,0c13.1,0,35.1,0,56.6-0.1c24.6,0,47.9-0.1,57.3-0.1c1.5,0,2.9,0,4.4,0
							c4.4,0,9,0,13.6,0.2l0,0c11.5,0.6,24.8,8.2,28.3,23.8c3.2,14-1,27-12,37.5c-5,4.8-10.7,8.1-17.2,9.9c-0.2,0.4-0.2,1.2,0,1.5
							c4.9,4.4,8.3,10.2,10.4,17.7c3.7,13.3,0.5,25.5-9.5,36.2c-4.6,4.9-10.5,9-17.4,12c-1,0.4-1.3,1.3-1.4,1.8
							c-0.1,0.4-0.1,1.4,0.8,2.1c10,8.8,13.5,20,9.9,32.3c-3.7,12.9-11.5,22.8-23.2,29.4c-1.7,1-3.5,1.6-4.8,2
							c-0.9,0.3-1.2,0.5-1.3,0.6c0,0-0.1,0.3-0.2,1.1c-0.1,1.1,0.1,1.6,0.9,2.3c6.5,5.6,10.3,12.3,11.3,19.7
							c0.7,5.6-0.2,11.2-2.7,16.9c-3.3,7.4-8.6,14.2-16.2,20.6c-5.4,4.6-10.6,7.9-16,10.2C1368.7,944.7,1365.7,945.3,1362.6,945.3z
							 M1096.9,916.3c4.1,0,8.1,0,12.2,0h6.2c0.9,0,1.9,0.3,2.7,0.8l0.9,0.6c0.6,0.4,1.2,0.8,1.8,1.1l3.6,2.2
							c7.3,4.4,14.9,8.9,22.5,12.8c0.9,0.4,1.4,0.6,1.7,0.6c1.6,0,3.2,0.1,4.7,0.1c2,0.1,4,0.1,6,0.2l4.9,0.1
							c8.1,0.1,16.5,0.2,24.8,0.2c47.2,0,158.7,0.3,173.6,0.4c0,0,0,0,0.1,0c1.8,0,3.5-0.3,5.2-1.1c4.5-1.9,8.9-4.7,13.5-8.6
							c6.5-5.5,10.8-10.9,13.5-17c1.8-4,2.4-7.7,1.9-11.5c-0.7-5-3.2-9.4-7.9-13.4c-3.2-2.8-4.6-6.3-4.3-10.6
							c0.4-5.4,3.1-8.7,8.3-10.4c0.9-0.3,2.1-0.7,3-1.2c9.3-5.3,15.6-13.2,18.5-23.5c2.5-8.6,0.2-15.8-6.9-22c-3.2-2.8-4.7-7-4-11.2
							s3.4-7.7,7.2-9.4c5.8-2.5,10.4-5.7,14.1-9.7c7.6-8.1,10-16.8,7.2-26.6c-1.6-5.6-4-9.8-7.5-13c-2.9-2.6-4.1-6.8-3.1-10.9
							c0.9-3.8,3.5-6.6,6.9-7.6c4.9-1.4,9.4-3.9,13.2-7.6c8.6-8.2,11.5-17.4,9.1-28.1c-2.5-11.2-11.8-15.6-19-16
							c-4.3-0.2-8.7-0.2-13-0.2c-1.5,0-3,0-4.5,0c-9.4,0-32.6,0-57.3,0.1c-21.5,0-43.6,0.1-56.7,0.1c-6.4,0-12.7,0-19.1,0h-8.7
							c-0.2,0-0.4,0-0.6,0s-0.4-0.1-0.5-0.1s-0.2,0-0.3-0.1c-2.2-0.5-3.4-1.8-4-2.7c-0.9-1.5-1.1-3.2-0.5-5.2c0.4-1.5,0.8-3,1.1-4.7
							c0.2-0.7,0.3-1.5,0.5-2.2c4.7-21.2,8.2-38.7,10.9-55.2c1.4-8.5,2.5-16.8,3.3-24.7c0.4-3.8,0.6-7.6,0.9-11.4l0.2-3.3
							c0.3-4.5,0.2-8.5-0.3-12c-0.8-5.1-2-10.6-3.7-16.8c-5.1-18.2-12.2-36.6-22.3-58.1c-3-1.9-5.6-3.2-8.3-3.9
							c-5-1.4-8.5-1.8-11.8-1.3c0,0,0,0-0.1,0c-0.2,0-0.4,0-0.6,0c-5.6,0.2-10.9,2-16.2,5.5c0,17.1,0,34.1,0,51.2
							c0,9.5,0,19.1,0,28.6c0,1.9-0.4,3.6-1.3,5.3c-5.7,11.1-11.1,21.2-16.4,30.8c-23.1,41.8-46.7,77.7-72.3,109.7
							c-0.9,1.1-1.8,2-2.9,2.7c-3.9,2.7-7.8,5.5-11.7,8.2l-3.7,2.6c-0.1,0.1-0.3,0.2-0.4,0.3c-0.2,0.1-0.3,0.2-0.5,0.3
							c-0.1,0.1-0.3,0.1-0.4,0.2c-1.5,1-3,2-4.5,3c-3,2.1-6.1,4.2-9.2,6.3c0,4.7,0,9.4,0,14v51.1
							C1096.9,834.9,1096.9,875.6,1096.9,916.3z" style="fill:#383A48;"/>
					</g>
				</g>
				<g>
					<path d="M1091.8,938.2c0,2.1,0,2.1-2,2.1c-48.5,0-97,0-145.6,0c-1.4,0-2.1-0.1-2.2-1.9c-2-33-5.5-80.3-8.9-124.5
						c-4.9-62.4-9.6-118.6-9.7-119.6c-0.1-0.9,0.3-1.3,1.2-1.2c0.4,0,0.8,0,1.3,0h163.4c2.2,0,2.2,0,2.2,2.1v0.9
						C1091.5,739.8,1091.6,899.9,1091.8,938.2z" style="fill:#AAC6FC;"/>
					<path d="M944.1,945.3c-6,0-7-4.6-7.1-6.6c-1.7-28.1-4.6-68.7-8.9-124.4c-1.9-24.8-5.1-65.1-9.4-116.5
						c-0.2-1.9-0.2-3-0.3-3.1c-0.2-2.6,1-4.2,1.7-4.9s2.3-1.8,4.8-1.7c0.1,0,0.2,0,0.4,0s0.4,0,0.5,0h163.4c4.9,0,7.2,2.3,7.2,7.1
						v0.9c0,40.8,0.1,203,0.3,242.1l0,0c0,1.5,0,3.6-1.7,5.3s-3.8,1.7-5.3,1.7h-30.2C1021.1,945.2,982.7,945.2,944.1,945.3
						C944.2,945.3,944.2,945.3,944.1,945.3z M928.8,698.1c4.2,50.9,7.4,90.8,9.3,115.4c4.2,53.9,7.1,93.7,8.8,121.7
						c37.6,0,75.1,0,112.7,0h27.2c-0.2-43-0.3-194.4-0.3-237.1H928.8z M928.5,693.9L928.5,693.9L928.5,693.9z" style="fill:#383A48;"/>
				</g>
				<path d="M1089.4,688.1H925.9c-0.2,0-0.4,0-0.5,0s-0.2,0-0.4,0c-2.5-0.2-4.1,0.9-4.8,1.7c-0.7,0.7-1.9,2.3-1.7,4.9
					c0,0.1,0.1,1.2,0.3,3.1c4.3,51.4,7.5,91.7,9.4,116.5c0.1,1.8,1.2,3.3,2.8,4.1c0.7,0.3,1.4,0.5,2.2,0.5c1,0,1.9-0.3,2.8-0.8
					l74.6-49.8c32.1-21.5,59.8-43.9,84.6-68.6c0.9-0.9,1.5-2.2,1.5-3.5v-0.9C1096.5,690.4,1094.2,688.1,1089.4,688.1z" style="fill:#383A48;"/>
			</g>
		</g>
	</g>
	<g>
		<path d="M746.1,139.7H564.2c-26.1,0-47.3,21.2-47.3,47.3v93.6c0,26.1,21.2,47.3,47.3,47.3h43.5l47.5,59.4l47.5-59.4
			h43.5c26.1,0,47.3-21.2,47.3-47.3V187C793.4,160.9,772.2,139.7,746.1,139.7z" style="fill:#F3F6E6;"/>
		<path d="M655.1,392.4c-1.5,0-3-0.7-3.9-1.9l-46-57.5h-41.1c-28.8,0-52.3-23.5-52.3-52.3v-93.6
			c0-28.8,23.5-52.3,52.3-52.3H746c28.8,0,52.3,23.5,52.3,52.3v93.6c0,28.8-23.5,52.3-52.3,52.3h-41l-46,57.5
			C658.1,391.7,656.6,392.4,655.1,392.4z M564.2,144.7c-23.3,0-42.3,19-42.3,42.3v93.6c0,23.3,19,42.3,42.3,42.3h43.5
			c1.5,0,3,0.7,3.9,1.9l43.6,54.5l43.6-54.5c0.9-1.2,2.4-1.9,3.9-1.9h43.5c23.3,0,42.3-19,42.3-42.3V187c0-23.3-19-42.3-42.3-42.3
			H564.2z" style="fill:#383A48;"/>
		<g>
			<path d="M660.7,207.6l-5.5,6.6l-5.8-6.9c-9.9-11.7-27.4-13.3-39.3-3.5l0,0c-12,9.9-13.6,27.7-3.6,39.6l48.9,44.9
				l48.3-44.9c9.9-11.9,8.2-29.6-3.7-39.5l0,0C688.2,194,670.6,195.7,660.7,207.6z" style="fill:#E0719E;"/>
			<path d="M655.5,293.2c-1.2,0-2.4-0.4-3.4-1.3L603.2,247c-0.2-0.1-0.3-0.3-0.4-0.5c-5.7-6.8-8.4-15.4-7.6-24.2
				s5-16.8,11.8-22.5c0,0,0.1,0,0.1-0.1c13.8-11.5,34.6-9.6,46.2,4.2l2,2.3l1.7-2l0,0c11.6-14,32.5-15.9,46.4-4.3
				c6.8,5.6,11,13.6,11.8,22.4c0.8,8.8-1.8,17.4-7.5,24.2c-0.1,0.2-0.3,0.3-0.4,0.5L659,291.9C657.9,292.8,656.7,293.2,655.5,293.2z
				 M610.2,239.9l45.3,41.5l44.7-41.5c3.8-4.7,5.6-10.6,5-16.6c-0.6-6.1-3.5-11.7-8.2-15.6c-9.8-8.1-24.3-6.7-32.4,3l0,0l-5.5,6.6
				c-0.9,1.1-2.3,1.8-3.8,1.8l0,0c-1.5,0-2.9-0.6-3.8-1.8l-5.8-6.9c-8.1-9.6-22.6-10.9-32.3-2.9c0,0-0.1,0-0.1,0.1
				c-4.7,3.9-7.6,9.5-8.2,15.6C604.5,229.3,606.3,235.2,610.2,239.9z" style="fill:#383A48;"/>
		</g>
	</g>
	<g>
		<path d="M944.2,945.3H394.9c-2.8,0-5-2.2-5-5s2.2-5,5-5h549.3c2.8,0,5,2.2,5,5S947,945.3,944.2,945.3z" style="fill:#383A48;"/>
	</g>
	<g>
		<g>
			<path d="M482.3,795.9v-46.5v-1.8c0-19.5-15.8-35.4-35.4-35.4H311.1c-19.5,0-35.4,15.8-35.4,35.4v70
				c0,19.5,15.8,35.4,35.4,35.4h32.5h70.9H447h84.3L482.3,795.9z" style="fill:#F3F6E6;"/>
			<path d="M531.3,858H311.1c-22.2,0-40.4-18.1-40.4-40.4v-70c0-22.2,18.1-40.4,40.4-40.4H447
				c22.2,0,40.4,18.1,40.4,40.4V794l47.8,55.7c1.3,1.5,1.6,3.6,0.7,5.3C535.1,856.9,533.3,858,531.3,858z M311.1,717.4
				c-16.7,0-30.4,13.6-30.4,30.4v70c0,16.7,13.6,30.4,30.4,30.4h209.4l-41.9-48.8c-0.8-0.9-1.2-2.1-1.2-3.3v-48.2
				c0-16.7-13.6-30.4-30.4-30.4H311.1V717.4z" style="fill:#383A48;"/>
		</g>
		<g>
			<rect x="329.8" y="760.7" width="94" height="10" style="fill:#383A48;"/>
		</g>
		<g>
			<rect x="329.8" y="794.7" width="94" height="10" style="fill:#383A48;"/>
		</g>
	</g>
	<g>
		<path d="M1075.5,247.7c-1.6,0-3.2-0.8-4.2-2.2c-1.5-2.3-0.9-5.4,1.4-6.9l67.9-45.4c2.3-1.5,5.4-0.9,6.9,1.4
			c1.5,2.3,0.9,5.4-1.4,6.9l-67.9,45.4C1077.5,247.4,1076.5,247.7,1075.5,247.7z" style="fill:#F3F6E6;"/>
	</g>
	<g>
		<path d="M1255.4,339.4c-1.6,0-3.2-0.8-4.2-2.2c-1.5-2.3-0.9-5.4,1.4-6.9l116.6-77.9c2.3-1.5,5.4-0.9,6.9,1.4
			c1.5,2.3,0.9,5.4-1.4,6.9l-116.6,77.9C1257.3,339.2,1256.4,339.4,1255.4,339.4z" style="fill:#F3F6E6;"/>
	</g>
	<g>
		<path d="M1227.4,261.5c-1.6,0-3.2-0.8-4.2-2.2c-1.5-2.3-0.9-5.4,1.4-6.9l54.5-36.4c2.3-1.5,5.4-0.9,6.9,1.4
			c1.5,2.3,0.9,5.4-1.4,6.9l-54.5,36.4C1229.3,261.2,1228.4,261.5,1227.4,261.5z" style="fill:#F3F6E6;"/>
	</g>
	<g>
		<path d="M1169.1,244.4c-1.6,0-3.2-0.8-4.2-2.2c-1.5-2.3-0.9-5.4,1.4-6.9l120.3-80.4c2.3-1.5,5.4-0.9,6.9,1.4
			c1.5,2.3,0.9,5.4-1.4,6.9l-120.3,80.4C1171,244.1,1170.1,244.4,1169.1,244.4z" style="fill:#F3F6E6;"/>
	</g>
	<g>
		<path d="M1708.3,263.6c-29-38.2-73-60.1-120.9-60.1c-83.7,0-151.9,68.3-151.9,152.2c0,38.6,14.5,75.5,40.7,103.8
			c1,1,2.3,1.6,3.7,1.6c0.1,0,0.2,0,0.3,0c1.5-0.1,2.9-0.9,3.8-2.1c43.2-62,91.8-90.7,134.7-116.1c34.7-20.5,67.5-40,89.7-73.5
			C1709.7,267.6,1709.6,265.3,1708.3,263.6z" style="fill:#4053FA;"/>
		<path d="M1708.3,263.6c-1-1.3-2.5-2-4.1-2c-1.6,0.1-3.1,0.9-4,2.2c-20.9,31.6-51.3,49.6-86.4,70.4
			c-43.8,25.9-93.4,55.3-137.8,119c-1.3,1.9-1.2,4.5,0.4,6.3c28.6,30.8,69.1,48.5,111.1,48.5c83.7,0,151.9-68.3,151.9-152.2
			C1739.3,322.1,1728.6,290.3,1708.3,263.6z" style="fill:#E0719E;"/>
	</g>
	<g>
		<path d="M1586.6,790.6c-0.5,0-0.9,0-1.4,0c-7.7-0.4-14.1-4.4-17.3-10.7c-2.3-4.6-4.7-14.6,5-29.1
			c8.3-12.3,21.4-25.2,37-36.4c-3.2-17.1-10.2-33.7-20.2-47.6c-35.1-49-88.9-44.2-117.9-37c-2.7,0.7-5.4-1-6.1-3.7s1-5.4,3.7-6.1
			c73.2-18.1,111.8,17.9,128.4,40.9c10.1,14.1,17.2,30.7,20.9,47.4c16.2-10.3,34.3-18.8,53-24.6c2.6-0.8,5.4,0.6,6.3,3.3
			c0.8,2.6-0.6,5.4-3.3,6.3c-21.1,6.6-39.2,15.8-54,25.8c3,21.5,0.2,42.2-9,56.5C1605.7,785,1596.4,790.6,1586.6,790.6z
			 M1611.5,725.6c-13.9,10.6-24.1,21.6-30.2,30.7c-5.1,7.6-6.7,14.5-4.4,19.1c1.5,3.1,4.8,4.9,8.8,5.2c2.5,0.1,11.1-0.2,17.7-10.5
			C1610.2,759.5,1613.1,743.4,1611.5,725.6z" style="fill:#383A48;"/>
	</g>
	<path d="M360.5,416.1c-11.4,0-12.6-10.9-12.6-15.5c0-2.8-2.2-5-5-5s-5,2.2-5,5c0,4.7-1.2,15.5-12.6,15.5
		c-2.8,0-5,2.2-5,5s2.2,5,5,5c11.4,0,12.6,10.9,12.6,15.5c0,2.8,2.2,5,5,5s5-2.2,5-5c0-4.7,1.2-15.5,12.6-15.5c2.8,0,5-2.2,5-5
		S363.3,416.1,360.5,416.1z" style="fill:#383A48;"/>
	<path d="M907.6,226.8c-11.4,0-12.6-10.9-12.6-15.5c0-2.8-2.2-5-5-5s-5,2.2-5,5c0,4.7-1.2,15.5-12.6,15.5
		c-2.8,0-5,2.2-5,5s2.2,5,5,5c11.4,0,12.6,10.9,12.6,15.5c0,2.8,2.2,5,5,5s5-2.2,5-5c0-4.7,1.2-15.5,12.6-15.5c2.8,0,5-2.2,5-5
		S910.3,226.8,907.6,226.8z" style="fill:#383A48;"/>
	<path d="M1372,416.1c-11.4,0-12.6-10.9-12.6-15.5c0-2.8-2.2-5-5-5s-5,2.2-5,5c0,4.7-1.2,15.5-12.6,15.5
		c-2.8,0-5,2.2-5,5s2.2,5,5,5c11.4,0,12.6,10.9,12.6,15.5c0,2.8,2.2,5,5,5s5-2.2,5-5c0-4.7,1.2-15.5,12.6-15.5c2.8,0,5-2.2,5-5
		S1374.8,416.1,1372,416.1z" style="fill:#383A48;"/>
</g>
</svg>
