<svg xmlns="http://www.w3.org/2000/svg" xmlns:xlink="http://www.w3.org/1999/xlink" width="1470" height="812" version="1.1" viewBox="0 0 1470 812"><title>popularity</title><desc>Created with Sketch.</desc><g id="Page-1" fill="none" fill-rule="evenodd" stroke="none" stroke-width="1"><g id="popularity" fill-rule="nonzero" transform="translate(-270.000000, -134.000000)"><g id="Group" transform="translate(180.000000, 134.000000)"><path id="Path" d="M524.4,0.7 L5.7,0.7 C2.9,0.7 0.7,2.9 0.7,5.7 L0.7,759.2 C0.7,761.8 2.7,764 5.3,764.2 C5.4,764.2 5.6,764.2 5.7,764.2 C8.1,764.2 10.3,762.4 10.6,760 C21.4,690 31.3,641.3 50.1,600.1 C69.6,557.5 98.8,521.9 147.9,481 C198,439.3 237.2,392.4 267.7,337.8 C294.3,290.2 310.7,243.1 325.2,201.5 L328.7,191.4 C345,145 359.3,107 383.8,76.8 C410.8,43.5 447.4,23.6 499.1,14.3 C507.2,12.8 515.9,11.6 524.9,10.7 C527.5,10.4 529.5,8.1 529.403592,5.5 C529.3,2.8 527.1,0.7 524.4,0.7 Z"/><path id="Path" fill="#383A48" d="M524.4,0.7 L343.5,0.7 C314.7,0.7 291.2,24.2 291.2,53 L291.2,146.6 C291.2,167.1 303.3,185.8 321.9,194.3 C322.6,194.6 323.3,194.7 324,194.7 C324.7,194.7 325.3,194.6 326,194.3 C327.3,193.7 328.3,192.7 328.8,191.4 C345.1,145 359.4,107 383.9,76.8 C410.9,43.5 447.5,23.6 499.2,14.3 C507.3,12.8 516,11.6 525,10.7 C527.6,10.4 529.6,8.1 529.5,5.5 C529.3,2.8 527.1,0.7 524.4,0.7 Z"/><path id="Path" d="M1554.3,0.7 C1551.5,0.7 1549.3,2.9 1549.3,5.7 C1549.3,60.4 1540,99.8 1520.2,129.9 C1499.3,161.5 1468.9,179.5 1433.8,200.3 C1390,226.2 1340.4,255.6 1296,319.3 C1287.6,331.3 1279.6,344.4 1272.1,358.1 C1191.3,506.6 1162.7,519.9 1115.4,541.8 C1064.3,565.4 994.3,597.8 823.8,803.1 C822.6,804.6 822.3,806.7 823.1,808.4 C823.9,810.2 825.7,811.3 827.6,811.3 L1554.4,811.3 C1557.2,811.3 1559.4,809.1 1559.4,806.3 L1559.4,5.7 C1559.3,3 1557.1,0.7 1554.3,0.7 Z"/><g transform="translate(259.000000, 170.000000)"><g transform="translate(256.000000, 411.000000)"><path id="Path" fill="#E0719E" d="M8.6,198.2 L13.7,216.6 L168.5,113.1 C202.5,90.4 211.6,44.4 188.9,10.4 L185.4,5.2 L45.6,98.7 C13.1,120.5 -1.8,160.6 8.6,198.2 Z"/><path id="Shape" fill="#383A48" d="M13.7,221.7 C13.1,221.7 12.5,221.6 12,221.4 C10.5,220.8 9.4,219.6 8.9,218 L3.8,199.6 C-7.2,159.8 8.5,117.7 42.8,94.7 L182.6,1.2 C183.7,0.5 185.1,0.2 186.4,0.5 C187.7,0.8 188.8,1.5 189.6,2.6 L193.1,7.8 C204.8,25.3 209,46.4 204.9,67.1 C200.8,87.8 188.9,105.7 171.3,117.4 L16.5,220.8 C15.6,221.4 14.7,221.7 13.7,221.7 Z M184,12.3 L48.3,103 C17.6,123.5 3.5,161.3 13.4,196.9 L13.4,196.9 L16.6,208.7 L165.6,109.1 C180.9,98.9 191.3,83.3 194.9,65.2 C198.5,47.1 194.8,28.7 184.6,13.4 L184,12.3 Z"/></g><g transform="translate(0.000000, 112.000000)"><path id="Path" fill="#E0719E" d="M21,132.8 L5.9,121 L160.7,17.5 C194.7,-5.2 240.6,3.9 263.4,37.9 L266.9,43.1 L127,136.6 C94.5,158.3 51.8,156.8 21,132.8 Z"/><path id="Shape" fill="#383A48" d="M76.6,156.9 C55.8,156.9 35.1,150.1 17.9,136.7 L17.9,136.7 L2.8,125 C1.5,124 0.8,122.5 0.9,120.9 C1,119.3 1.8,117.8 3.1,116.9 L157.9,13.4 C175.4,1.7 196.5,-2.5 217.2,1.6 C237.9,5.7 255.8,17.6 267.5,35.2 L271,40.4 C271.7,41.5 272,42.9 271.7,44.2 C271.4,45.5 270.7,46.6 269.6,47.4 L129.8,140.9 C113.6,151.6 95.1,156.9 76.6,156.9 Z M24.1,128.8 C53.3,151.5 93.5,153 124.2,132.4 L259.9,41.7 L259.2,40.7 C249,25.4 233.4,15 215.3,11.4 C197.2,7.8 178.8,11.5 163.5,21.7 L14.5,121.3 L24.1,128.8 Z"/></g><g transform="translate(125.000000, 184.000000)"><rect id="Rectangle" width="103.501" height="314.204" x="83.723" y="7.272" fill="#F3F6E6" transform="translate(135.473910, 164.374095) rotate(-33.758398) translate(-135.473910, -164.374095)"/><path id="Shape" fill="#383A48" d="M179.7,328.6 C179.4,328.6 179.1,328.6 178.8,328.5 C177.5,328.3 176.4,327.5 175.7,326.5 L1.1,65.2 C-0.4,63 0.2,60 2.4,58.5 L88.4,1 C89.5,0.3 90.8,-9.18709553e-15 92,0.3 C93.3,0.5 94.4,1.3 95.1,2.3 L269.7,263.5 C271.2,265.7 270.6,268.7 268.4,270.2 L182.4,327.7 C181.6,328.3 180.6,328.6 179.7,328.6 Z M11.8,63.8 L181,317.1 L259,264.9 L89.8,11.7 L11.8,63.8 Z"/></g><g transform="translate(211.000000, 0.000000)"><path id="Path" fill="#F6E049" d="M179.7,450.2 L5.1,189 L145.4,95.2 C259.4,19 363.8,0.5 497.1,5.9 L553,8.1 L535.4,58.7 C490.4,188.2 431.9,281.7 314.6,360.1 L179.7,450.2 Z"/><path id="Shape" fill="#383A48" d="M179.7,455.2 C178.1,455.2 176.5,454.4 175.5,453 L1,191.8 C0.3,190.7 2.23709939e-14,189.3 0.3,188 C0.6,186.7 1.3,185.6 2.4,184.8 L142.7,91 C198.3,53.8 254,29 312.9,15.1 C366.2,2.5 424.8,-2 497.4,0.9 L553.3,3.1 C554.9,3.2 556.3,4 557.2,5.3 C558.1,6.6 558.3,8.3 557.8,9.8 L540.2,60.4 C515.8,130.7 489.1,185.1 456.3,231.5 C420.2,282.6 374.8,326 317.5,364.3 L182.5,454.5 C181.7,455 180.7,455.2 179.7,455.2 Z M12.1,190.4 L181.2,443.3 L312,355.9 C368.3,318.3 412.8,275.7 448.2,225.7 C480.5,180.1 506.8,126.5 530.8,57.1 L546.1,12.9 L496.9,10.9 C425.3,8 367.5,12.5 315.1,24.9 C257.3,38.6 202.7,62.9 148.1,99.4 L12.1,190.4 Z"/></g><g id="Oval" fill="#383A48" transform="translate(135.000000, 55.000000)"><circle cx="504.7" cy="209" r="3.9"/><circle cx="488.6" cy="219.8" r="3.9"/><circle cx="472.5" cy="230.5" r="3.9"/><circle cx="456.4" cy="241.3" r="3.9"/><circle cx="440.2" cy="252.1" r="3.9"/><circle cx="424.1" cy="262.9" r="3.9"/><circle cx="408" cy="273.7" r="3.9"/><circle cx="391.9" cy="284.4" r="3.9"/><circle cx="375.7" cy="295.2" r="3.9"/><circle cx="359.6" cy="306" r="3.9"/><circle cx="343.5" cy="316.8" r="3.9"/><circle cx="327.4" cy="327.6" r="3.9"/><circle cx="311.2" cy="338.3" r="3.9"/><circle cx="295.1" cy="349.1" r="3.9"/><circle cx="279" cy="359.9" r="3.9"/><circle cx="262.9" cy="370.7" r="3.9"/><circle cx="246.7" cy="381.4" r="3.9"/><circle cx="230.6" cy="392.2" r="3.9"/><circle cx="214.5" cy="403" r="3.9"/><circle cx="198.4" cy="413.8" r="3.9"/><circle cx="182.2" cy="424.6" r="3.9"/><circle cx="166.1" cy="435.3" r="3.9"/><circle cx="526.2" cy="171.3" r="3.9"/><circle cx="510.1" cy="182.1" r="3.9"/><circle cx="493.9" cy="192.9" r="3.9"/><circle cx="477.8" cy="203.6" r="3.9"/><circle cx="461.7" cy="214.4" r="3.9"/><circle cx="445.6" cy="225.2" r="3.9"/><circle cx="429.4" cy="236" r="3.9"/><circle cx="413.3" cy="246.8" r="3.9"/><circle cx="397.2" cy="257.5" r="3.9"/><circle cx="381.1" cy="268.3" r="3.9"/><circle cx="364.9" cy="279.1" r="3.9"/><circle cx="348.8" cy="289.9" r="3.9"/><circle cx="332.7" cy="300.6" r="3.9"/><circle cx="316.6" cy="311.4" r="3.9"/><circle cx="300.4" cy="322.2" r="3.9"/><circle cx="284.3" cy="333" r="3.9"/><circle cx="268.2" cy="343.8" r="3.9"/><circle cx="252.1" cy="354.5" r="3.9"/><circle cx="235.9" cy="365.3" r="3.9"/><circle cx="219.8" cy="376.1" r="3.9"/><circle cx="203.7" cy="386.9" r="3.9"/><circle cx="187.6" cy="397.7" r="3.9"/><circle cx="171.4" cy="408.4" r="3.9"/><circle cx="155.3" cy="419.2" r="3.9"/><circle cx="547.7" cy="133.6" r="3.9"/><circle cx="531.5" cy="144.4" r="3.9"/><circle cx="515.4" cy="155.2" r="3.9"/><circle cx="499.3" cy="166" r="3.9"/><circle cx="483.2" cy="176.7" r="3.9"/><circle cx="467" cy="187.5" r="3.9"/><circle cx="450.9" cy="198.3" r="3.9"/><circle cx="434.8" cy="209.1" r="3.9"/><circle cx="418.7" cy="219.9" r="3.9"/><circle cx="402.5" cy="230.6" r="3.9"/><circle cx="386.4" cy="241.4" r="3.9"/><circle cx="370.3" cy="252.2" r="3.9"/><circle cx="354.2" cy="263" r="3.9"/><circle cx="338" cy="273.7" r="3.9"/><circle cx="321.9" cy="284.5" r="3.9"/><circle cx="305.8" cy="295.3" r="3.9"/><circle cx="289.7" cy="306.1" r="3.9"/><circle cx="273.5" cy="316.9" r="3.9"/><circle cx="257.4" cy="327.6" r="3.9"/><circle cx="241.3" cy="338.4" r="3.9"/><circle cx="225.2" cy="349.2" r="3.9"/><circle cx="209" cy="360" r="3.9"/><circle cx="192.9" cy="370.7" r="3.9"/><circle cx="176.8" cy="381.5" r="3.9"/><circle cx="160.7" cy="392.3" r="3.9"/><circle cx="144.5" cy="403.1" r="3.9"/><circle cx="569.1" cy="95.9" r="3.9"/><circle cx="553" cy="106.7" r="3.9"/><circle cx="536.9" cy="117.5" r="3.9"/><circle cx="520.8" cy="128.3" r="3.9"/><circle cx="504.6" cy="139.1" r="3.9"/><circle cx="488.5" cy="149.8" r="3.9"/><circle cx="472.4" cy="160.6" r="3.9"/><circle cx="456.3" cy="171.4" r="3.9"/><circle cx="440.1" cy="182.2" r="3.9"/><circle cx="424" cy="193" r="3.9"/><circle cx="407.9" cy="203.7" r="3.9"/><circle cx="391.8" cy="214.5" r="3.9"/><circle cx="375.6" cy="225.3" r="3.9"/><circle cx="359.5" cy="236.1" r="3.9"/><circle cx="343.4" cy="246.8" r="3.9"/><circle cx="327.3" cy="257.6" r="3.9"/><circle cx="311.1" cy="268.4" r="3.9"/><circle cx="295" cy="279.2" r="3.9"/><circle cx="278.9" cy="290" r="3.9"/><circle cx="262.8" cy="300.7" r="3.9"/><circle cx="246.6" cy="311.5" r="3.9"/><circle cx="230.5" cy="322.3" r="3.9"/><circle cx="214.4" cy="333.1" r="3.9"/><circle cx="198.3" cy="343.8" r="3.9"/><circle cx="182.1" cy="354.6" r="3.9"/><circle cx="166" cy="365.4" r="3.9"/><circle cx="149.9" cy="376.2" r="3.9"/><circle cx="133.8" cy="387" r="3.9"/><circle cx="590.6" cy="58.3" r="3.9"/><circle cx="574.5" cy="69" r="3.9"/><circle cx="558.4" cy="79.8" r="3.9"/><circle cx="542.2" cy="90.6" r="3.9"/><circle cx="526.1" cy="101.4" r="3.9"/><circle cx="203.6" cy="316.9" r="3.9"/><circle cx="187.5" cy="327.7" r="3.9"/><circle cx="171.4" cy="338.5" r="3.9"/><circle cx="155.2" cy="349.3" r="3.9"/><circle cx="139.1" cy="360.1" r="3.9"/><circle cx="123" cy="370.8" r="3.9"/><circle cx="596" cy="31.4" r="3.9"/><circle cx="579.8" cy="42.1" r="3.9"/><circle cx="192.8" cy="300.8" r="3.9"/><circle cx="176.7" cy="311.6" r="3.9"/><circle cx="160.6" cy="322.4" r="3.9"/><circle cx="144.5" cy="333.2" r="3.9"/><circle cx="128.3" cy="343.9" r="3.9"/><circle cx="112.2" cy="354.7" r="3.9"/><circle cx="601.3" cy="4.5" r="3.9"/><circle cx="182.1" cy="284.7" r="3.9"/><circle cx="165.9" cy="295.5" r="3.9"/><circle cx="149.8" cy="306.2" r="3.9"/><circle cx="133.7" cy="317" r="3.9"/><circle cx="117.6" cy="327.8" r="3.9"/><circle cx="101.4" cy="338.6" r="3.9"/><circle cx="171.3" cy="268.6" r="3.9"/><circle cx="155.2" cy="279.3" r="3.9"/><circle cx="139" cy="290.1" r="3.9"/><circle cx="122.9" cy="300.9" r="3.9"/><circle cx="106.8" cy="311.7" r="3.9"/><circle cx="90.7" cy="322.5" r="3.9"/><circle cx="160.5" cy="252.4" r="3.9"/><circle cx="144.4" cy="263.2" r="3.9"/><circle cx="128.3" cy="274" r="3.9"/><circle cx="112.1" cy="284.8" r="3.9"/><circle cx="96" cy="295.6" r="3.9"/><circle cx="79.9" cy="306.3" r="3.9"/><circle cx="149.7" cy="236.3" r="3.9"/><circle cx="133.6" cy="247.1" r="3.9"/><circle cx="117.5" cy="257.9" r="3.9"/><circle cx="101.3" cy="268.7" r="3.9"/><circle cx="85.2" cy="279.4" r="3.9"/><circle cx="69.1" cy="290.2" r="3.9"/><circle cx="138.9" cy="220.2" r="3.9"/><circle cx="122.8" cy="231" r="3.9"/><circle cx="106.7" cy="241.7" r="3.9"/><circle cx="90.6" cy="252.5" r="3.9"/><circle cx="74.4" cy="263.3" r="3.9"/><circle cx="58.3" cy="274.1" r="3.9"/><circle cx="128.2" cy="204.1" r="3.9"/><circle cx="112" cy="214.8" r="3.9"/><circle cx="95.9" cy="225.6" r="3.9"/><circle cx="79.8" cy="236.4" r="3.9"/><circle cx="63.7" cy="247.2" r="3.9"/><circle cx="47.5" cy="258" r="3.9"/><circle cx="117.4" cy="187.9" r="3.9"/><circle cx="101.3" cy="198.7" r="3.9"/><circle cx="85.1" cy="209.5" r="3.9"/><circle cx="69" cy="220.3" r="3.9"/><circle cx="52.9" cy="231.1" r="3.9"/><circle cx="36.8" cy="241.8" r="3.9"/><circle cx="106.6" cy="171.8" r="3.9"/><circle cx="90.5" cy="182.6" r="3.9"/><circle cx="74.4" cy="193.4" r="3.9"/><circle cx="58.2" cy="204.2" r="3.9"/><circle cx="42.1" cy="214.9" r="3.9"/><circle cx="26" cy="225.7" r="3.9"/><circle cx="95.8" cy="155.7" r="3.9"/><circle cx="79.7" cy="166.5" r="3.9"/><circle cx="63.6" cy="177.2" r="3.9"/><circle cx="47.5" cy="188" r="3.9"/><circle cx="31.3" cy="198.8" r="3.9"/><circle cx="15.2" cy="209.6" r="3.9"/><circle cx="85.1" cy="139.6" r="3.9"/><circle cx="68.9" cy="150.3" r="3.9"/><circle cx="52.8" cy="161.1" r="3.9"/><circle cx="36.7" cy="171.9" r="3.9"/><circle cx="20.6" cy="182.7" r="3.9"/><circle cx="4.4" cy="193.5" r="3.9"/></g><g transform="translate(437.000000, 125.000000)"><circle id="Oval" cx="62.9" cy="63.3" r="57.6" fill="#AAC6FC"/><path id="Shape" fill="#383A48" d="M63,125.9 C42.8,125.9 22.9,116.1 10.8,98.1 C-8.4,69.4 -0.6,30.4 28.1,11.2 C56.8,-8 95.8,-0.2 115,28.5 C134.2,57.2 126.4,96.2 97.7,115.4 L97.7,115.4 C87.1,122.5 75,125.9 63,125.9 Z M62.9,10.6 C52.8,10.6 42.7,13.5 33.7,19.5 C9.6,35.6 3.1,68.4 19.2,92.5 C35.3,116.6 68.1,123.1 92.2,107 L92.2,107 C116.3,90.9 122.8,58.1 106.7,34 C96.6,18.9 79.9,10.6 62.9,10.6 Z"/></g><path id="Path" fill="#F3F6E6" d="M461.6,189.7 C461.4,189.7 461.3,189.7 461.1,189.7 C458.4,189.4 456.3,187 456.6,184.2 C457.2,177.5 459.5,170.9 463,165.2 C464.5,162.9 467.6,162.2 469.9,163.6 C472.2,165.1 472.9,168.2 471.5,170.5 C468.7,174.9 467,180 466.5,185.2 C466.4,187.7 464.2,189.7 461.6,189.7 Z"/><g transform="translate(112.000000, 250.000000)"><rect id="Rectangle" width="260.204" height="71.601" x="3.723" y="72.082" fill="#E0719E" transform="translate(133.825050, 107.882400) rotate(-33.758398) translate(-133.825050, -107.882400)"/><path id="Shape" fill="#383A48" d="M45.6,214.9 C44,214.9 42.4,214.1 41.4,212.7 L1.6,153.2 C0.9,152.1 0.6,150.7 0.9,149.4 C1.2,148.1 1.9,147 3,146.2 L219.3,1.6 C220.4,0.9 221.8,0.6 223.1,0.9 C224.4,1.2 225.5,1.9 226.3,3 L266.1,62.5 C267.6,64.8 267,67.9 264.7,69.4 L48.4,214.1 C47.5,214.7 46.5,214.9 45.6,214.9 Z M12.7,151.8 L47,203 L255,64 L220.8,12.8 L12.7,151.8 Z"/></g></g><g transform="translate(738.000000, 330.000000)"><path id="Path" fill="#383A48" d="M577.2,263.3 C588.2,252.8 592.3,239.8 589.2,225.8 C585.7,210.2 572.5,202.6 560.9,202 C556.3,201.8 551.8,201.8 547.3,201.8 C545.8,201.8 544.4,201.8 542.9,201.8 C532.3,201.8 483.7,201.8 405.9,202 C406,201.8 406,201.5 406.1,201.3 C406.2,200.6 406.4,199.9 406.5,199.2 C411.3,177.8 414.8,160.1 417.5,143.4 C418.9,134.7 420.1,126.1 420.9,118 C421.3,114.1 421.5,110.2 421.8,106.4 L422,103.1 C422.4,97.8 422.2,93.2 421.6,88.9 C420.8,83.4 419.5,77.5 417.6,70.9 C412.3,52.1 405,33 394.6,10.8 C393.9,9.4 392.9,8.2 391.5,7.3 C387.6,4.7 383.9,3 380.2,1.9 C376,0.7 370.5,-0.5 364.5,0.3 C363.9,0.3 362.4,0.3 360.3,0.3 C318.7,-5.683648e-14 317.9,0.2 316.8,0.5 C313.8,1.3 312.5,3.7 312.6,5.8 C312.8,10.1 317,11 320.4,11.6 C322.7,12.1 325.8,12.6 329,13.1 C331.8,13.6 335.8,14.2 338.8,14.8 C338.8,15 338.8,15.1 338.8,15.3 C338.8,32.8 338.8,50.3 338.8,67.8 C338.8,77.1 338.8,86.4 338.8,95.6 C338.8,95.9 338.8,96.1 338.6,96.3 C332.9,107.3 327.6,117.3 322.3,126.9 C299.5,168.2 276.2,203.6 250.9,235.2 C250.6,235.5 250.4,235.8 250.1,236 C246.3,238.7 242.4,241.4 238.6,244 L234.9,246.6 L234.8,246.7 C234.4,246.9 234,247.1 233.5,247.4 C232,248.4 230.5,249.4 229,250.5 C225.7,252.8 222.3,255.1 218.9,257.3 C216.6,258.9 215.398892,261.1 215.398892,264 C215.398892,269 215.398892,274.1 215.398892,279.1 L215.398892,304.8 C215.398892,354.9 215.398892,405 215.398892,455.1 C215.398892,455.3 215.398892,455.6 215.398892,455.8 C215.398892,457 215.3,459 217,460.7 C218.7,462.4 220.7,462.4 221.9,462.3 C222.1,462.3 222.3,462.3 222.6,462.3 C227.6,462.3 232.6,462.3 237.6,462.3 L242.4,462.3 C243,462.7 243.5,463 244.1,463.4 L247.7,465.6 C255.2,470.1 262.9,474.7 270.8,478.7 C272.4,479.5 274.4,480.4 276.8,480.4 C278.3,480.4 279.9,480.5 281.4,480.5 C283.5,480.6 285.5,480.6 287.6,480.7 L292.5,480.8 C300.7,480.9 309.1,481 317.4,481 C364.6,481 476.1,481.3 490.9,481.4 L491,481.4 C494.1,481.4 497.1,480.8 500.1,479.5 C505.5,477.2 510.8,473.9 516.1,469.3 C523.7,462.9 529,456.2 532.3,448.7 C534.8,443.1 535.7,437.4 535,431.8 C534,424.4 530.2,417.8 523.7,412.1 C522.9,411.4 522.7,410.9 522.8,409.8 C522.9,409 523,408.7 523,408.7 C523.1,408.7 523.3,408.4 524.3,408.1 C525.7,407.7 527.4,407 529.1,406.1 C540.8,399.5 548.6,389.6 552.3,376.7 C555.8,364.4 552.4,353.2 542.4,344.4 C541.5,343.6 541.6,342.7 541.6,342.3 C541.7,341.8 541.9,341 543,340.5 C549.9,337.5 555.8,333.4 560.4,328.5 C570.5,317.8 573.7,305.6 569.9,292.3 C567.8,284.8 564.4,279.1 559.5,274.6 C559.3,274.4 559.3,273.5 559.5,273.1 C566.4,271.4 572.2,268 577.2,263.3 Z"/><g id="_x35_Gmsrj.tif_2_"><g id="Group"><g transform="translate(169.000000, 0.000000)"><path id="Path" fill="#FFF" d="M344.8,207 C338.9,206.7 333,206.8 327.1,206.8 C309.4,206.8 241.1,206.9 213.1,206.9 C203.8,206.9 194.6,206.9 185.3,206.9 C185.2,206.9 185,206.9 184.9,206.8 C184.2,206.6 183.9,206.3 184.2,205.2 C184.9,202.8 185.3,200.4 185.9,198 C190,179.6 193.8,161.1 196.9,142.5 C198.3,134.2 199.4,125.9 200.2,117.5 C200.7,112.6 201,107.6 201.3,102.7 C201.6,98.3 201.6,93.9 200.9,89.6 C200,83.7 198.7,77.9 197.1,72.2 C191.4,51.7 183.4,32.1 174.4,12.9 C174.1,12.2 173.6,11.8 173.1,11.4 C170,9.4 166.7,7.7 163.2,6.7 C158.6,5.4 154,4.6 149.2,5.3 L149.2,5.3 C142,5.5 135.7,8 129.8,12.1 C128.6,12.9 128.2,13.9 128.2,15.4 C128.2,42.2 128.2,69 128.2,95.8 C128.2,96.9 128,97.8 127.5,98.8 C122.2,109.1 116.8,119.3 111.2,129.5 C90.1,167.7 66.6,204.4 39.3,238.5 C38.8,239.2 38.2,239.7 37.5,240.2 C32.4,243.8 27.2,247.4 22.1,251 C21.7,251.2 21.3,251.4 20.9,251.7 C16,255 11.2,258.4 6.2,261.6 C5.2,262.2 4.9,262.9 5,264 C5.1,270.4 5,276.9 5,283.3 C5,340.6 5,397.8 5,455.1 C5,457.6 4.7,457.2 7.2,457.2 C14.3,457.2 21.3,457.2 28.4,457.2 L28.4,457.2 L28.4,457.2 C29.3,457.8 30.3,458.4 31.2,459 C39.9,464.2 48.6,469.5 57.7,474.1 C58.9,474.7 60.2,475.2 61.6,475.3 C65.2,475.4 68.8,475.5 72.3,475.6 C82.2,475.7 92.1,475.9 102,475.9 C149,475.9 260.6,476.2 275.6,476.3 C278.1,476.3 280.5,475.8 282.8,474.8 C288.2,472.5 293.1,469.2 297.6,465.4 C303.8,460.1 309.1,454.1 312.5,446.6 C314.5,442.1 315.4,437.4 314.8,432.4 C313.9,425.6 310.3,420.2 305.2,415.8 C303.1,414 302.4,411.9 302.6,409.4 C302.9,406 304.2,404.4 307.5,403.4 C308.8,403 310.2,402.5 311.4,401.8 C321.9,395.8 329,386.9 332.3,375.3 C335.4,364.6 332.2,355.5 323.9,348.1 C319.9,344.6 320.9,338 325.8,335.9 C331.8,333.3 337.1,329.8 341.6,325.1 C350,316.2 353.4,305.7 350,293.7 C348.4,287.9 345.7,282.6 341.1,278.4 C338,275.6 339.1,269.5 342.8,268.5 C348.7,266.9 353.8,263.9 358.1,259.7 C367.5,250.7 371.6,239.8 368.7,226.9 C365.5,213.8 354.7,207.5 344.8,207 Z"/><path id="Shape" fill="#383A48" d="M275.6,481.3 L275.6,481.3 C260.6,481.2 149.1,481 102,480.9 C93.7,480.9 85.3,480.8 77.1,480.7 L72.2,480.6 C70.1,480.6 68.1,480.5 66,480.4 C64.5,480.4 62.9,480.3 61.4,480.3 C58.9,480.2 57,479.4 55.4,478.6 C47.4,474.6 39.7,469.9 32.3,465.5 L28.7,463.3 C28.1,463 27.6,462.6 27,462.2 L22.2,462.2 C17.2,462.2 12.2,462.2 7.2,462.2 C6.9,462.2 6.7,462.2 6.5,462.2 C5.3,462.2 3.3,462.3 1.6,460.6 C-0.1,458.9 -0.00110803324,456.9 -0.00110803324,455.7 C-0.00110803324,455.5 -0.00110803324,455.3 -0.00110803324,455 C-0.00110803324,413.4 -0.00110803324,371.7 -0.00110803324,330.1 L-0.00110803324,279 C-0.00110803324,274.1 -0.00110803324,269 -0.00110803324,264 C-0.00110803324,261.1 1.1,258.9 3.5,257.3 C6.9,255.1 10.3,252.7 13.6,250.5 C15.1,249.5 16.6,248.5 18.1,247.5 C18.6,247.2 19,246.9 19.4,246.8 L19.5,246.7 L22.9,244.3 C26.8,241.6 30.7,238.8 34.7,236.1 C35,235.9 35.2,235.7 35.5,235.4 C60.7,203.8 84.1,168.4 106.9,127.1 C112.2,117.5 117.5,107.5 123.2,96.5 C123.3,96.2 123.4,96.1 123.4,95.8 C123.4,86.3 123.4,76.7 123.4,67.2 C123.4,50 123.4,32.7 123.4,15.5 C123.4,12.3 124.7,9.9 127.2,8.1 C134.2,3.3 141.3,0.8 149,0.4 C155,-0.5 160.6,0.8 164.8,2 C168.5,3 172.2,4.8 176.1,7.4 C177.5,8.3 178.5,9.5 179.2,11 C189.6,33.2 197,52.2 202.2,71.1 C204,77.7 205.3,83.5 206.2,89.1 C206.8,93.4 207,98 206.6,103.3 L206.4,106.6 C206.1,110.4 205.9,114.4 205.5,118.3 C204.7,126.4 203.6,135 202.1,143.7 C199.3,160.4 195.8,178.1 191.1,199.5 C190.9,200.2 190.8,200.9 190.7,201.6 C190.6,201.8 190.6,202.1 190.5,202.3 L194.4,202.3 C200.8,202.3 207.1,202.3 213.5,202.3 C226.6,202.3 248.6,202.3 270.1,202.2 C294.7,202.2 318,202.1 327.4,202.1 C328.9,202.1 330.3,202.1 331.8,202.1 C336.2,202.1 340.8,202.1 345.4,202.3 L345.4,202.3 C356.9,202.9 370.2,210.5 373.7,226.1 C376.9,240.1 372.7,253.1 361.7,263.6 C356.7,268.4 351,271.7 344.5,273.5 C344.3,273.9 344.3,274.7 344.5,275 C349.4,279.4 352.8,285.2 354.9,292.7 C358.6,306 355.4,318.2 345.4,328.9 C340.8,333.8 334.9,337.9 328,340.9 C327,341.3 326.7,342.2 326.6,342.7 C326.5,343.1 326.5,344.1 327.4,344.8 C337.4,353.6 340.9,364.8 337.3,377.1 C333.6,390 325.8,399.9 314.1,406.5 C312.4,407.5 310.6,408.1 309.3,408.5 C308.4,408.8 308.1,409 308,409.1 C308,409.1 307.9,409.4 307.8,410.2 C307.7,411.3 307.9,411.8 308.7,412.5 C315.2,418.1 319,424.8 320,432.2 C320.7,437.8 319.8,443.4 317.3,449.1 C314,456.5 308.7,463.3 301.1,469.7 C295.7,474.3 290.5,477.6 285.1,479.9 C281.7,480.7 278.7,481.3 275.6,481.3 Z M9.9,452.3 C14,452.3 18,452.3 22.1,452.3 L28.3,452.3 C29.2,452.3 30.2,452.6 31,453.1 L31.9,453.7 C32.5,454.1 33.1,454.5 33.7,454.8 L37.3,457 C44.6,461.4 52.2,465.9 59.8,469.8 C60.7,470.2 61.2,470.4 61.5,470.4 C63.1,470.4 64.7,470.5 66.2,470.5 C68.2,470.6 70.2,470.6 72.2,470.7 L77.1,470.8 C85.2,470.9 93.6,471 101.9,471 C149.1,471 260.6,471.3 275.5,471.4 C275.5,471.4 275.5,471.4 275.6,471.4 C277.4,471.4 279.1,471.1 280.8,470.3 C285.3,468.4 289.7,465.6 294.3,461.7 C300.8,456.2 305.1,450.8 307.8,444.7 C309.6,440.7 310.2,437 309.7,433.2 C309,428.2 306.5,423.8 301.8,419.8 C298.6,417 297.2,413.5 297.5,409.2 C297.9,403.8 300.6,400.5 305.8,398.8 C306.7,398.5 307.9,398.1 308.8,397.6 C318.1,392.3 324.4,384.4 327.3,374.1 C329.8,365.5 327.5,358.3 320.4,352.1 C317.2,349.3 315.7,345.1 316.4,340.9 C317.1,336.7 319.8,333.2 323.6,331.5 C329.4,329 334,325.8 337.7,321.8 C345.3,313.7 347.7,305 344.9,295.2 C343.3,289.6 340.9,285.4 337.4,282.2 C334.5,279.6 333.3,275.4 334.3,271.3 C335.2,267.5 337.8,264.7 341.2,263.7 C346.1,262.3 350.6,259.8 354.4,256.1 C363,247.9 365.9,238.7 363.5,228 C361,216.8 351.7,212.4 344.5,212 C340.2,211.8 335.8,211.8 331.5,211.8 C330,211.8 328.5,211.8 327,211.8 C317.6,211.8 294.4,211.8 269.7,211.9 C248.2,211.9 226.1,212 213,212 C206.6,212 200.3,212 193.9,212 L185.2,212 C185,212 184.8,212 184.6,212 C184.4,212 184.2,211.9 184.1,211.9 C184,211.9 183.9,211.9 183.8,211.8 C181.6,211.3 180.4,210 179.8,209.1 C178.9,207.6 178.7,205.9 179.3,203.9 C179.7,202.4 180.1,200.9 180.4,199.2 C180.6,198.5 180.7,197.7 180.9,197 C185.6,175.8 189.1,158.3 191.8,141.8 C193.2,133.3 194.3,125 195.1,117.1 C195.5,113.3 195.7,109.5 196,105.7 L196.2,102.4 C196.5,97.9 196.4,93.9 195.9,90.4 C195.1,85.3 193.9,79.8 192.2,73.6 C187.1,55.4 180,37 169.9,15.5 C166.9,13.6 164.3,12.3 161.6,11.6 C156.6,10.2 153.1,9.8 149.8,10.3 C149.8,10.3 149.8,10.3 149.7,10.3 C149.5,10.3 149.3,10.3 149.1,10.3 C143.5,10.5 138.2,12.3 132.9,15.8 C132.9,32.9 132.9,49.9 132.9,67 C132.9,76.5 132.9,86.1 132.9,95.6 C132.9,97.5 132.5,99.2 131.6,100.9 C125.9,112 120.5,122.1 115.2,131.7 C92.1,173.5 68.5,209.4 42.9,241.4 C42,242.5 41.1,243.4 40,244.1 C36.1,246.8 32.2,249.6 28.3,252.3 L24.6,254.9 C24.5,255 24.3,255.1 24.2,255.2 C24,255.3 23.9,255.4 23.7,255.5 C23.6,255.6 23.4,255.6 23.3,255.7 C21.8,256.7 20.3,257.7 18.8,258.7 C15.8,260.8 12.7,262.9 9.6,265 C9.6,269.7 9.6,274.4 9.6,279 L9.6,330.1 C9.9,370.9 9.9,411.6 9.9,452.3 Z"/></g><g transform="translate(0.000000, 224.000000)"><path id="Path" fill="#AAC6FC" d="M173.8,250.2 C173.8,252.3 173.8,252.3 171.8,252.3 C123.3,252.3 74.8,252.3 26.2,252.3 C24.8,252.3 24.1,252.2 24,250.4 C22,217.4 18.5,170.1 15.1,125.9 C10.2,63.5 5.5,7.3 5.4,6.3 C5.3,5.4 5.7,5 6.6,5.1 C7,5.1 7.4,5.1 7.9,5.1 L171.3,5.1 C173.5,5.1 173.5,5.1 173.5,7.2 L173.5,8.1 C173.5,51.8 173.6,211.9 173.8,250.2 Z"/><path id="Shape" fill="#383A48" d="M26.1,257.3 C20.1,257.3 19.1,252.7 19,250.7 C17.3,222.6 14.4,182 10.1,126.3 C8.2,101.5 5,61.2 0.7,9.8 C0.5,7.9 0.5,6.8 0.4,6.7 C0.2,4.1 1.4,2.5 2.1,1.8 C2.8,1.1 4.4,-9.1038288e-15 6.9,0.1 C7,0.1 7.1,0.1 7.3,0.1 C7.5,0.1 7.7,0.1 7.8,0.1 L171.2,0.1 C176.1,0.1 178.4,2.4 178.4,7.2 L178.4,8.1 C178.4,48.9 178.5,211.1 178.7,250.2 L178.7,250.2 C178.7,251.7 178.7,253.8 177,255.5 C175.3,257.2 173.2,257.2 171.7,257.2 L141.5,257.2 C103.1,257.2 64.7,257.2 26.1,257.3 C26.2,257.3 26.2,257.3 26.1,257.3 Z M10.8,10.1 C15,61 18.2,100.9 20.1,125.5 C24.3,179.4 27.2,219.2 28.9,247.2 C66.5,247.2 104,247.2 141.6,247.2 L168.8,247.2 C168.6,204.2 168.5,52.8 168.5,10.1 L10.8,10.1 Z"/></g><path id="Path" fill="#383A48" d="M171.4,224.1 L7.9,224.1 C7.7,224.1 7.5,224.1 7.4,224.1 C7.3,224.1 7.2,224.1 7,224.1 C4.5,223.9 2.9,225 2.2,225.8 C1.5,226.5 0.3,228.1 0.5,230.7 C0.5,230.8 0.6,231.9 0.8,233.8 C5.1,285.2 8.3,325.5 10.2,350.3 C10.3,352.1 11.4,353.6 13,354.4 C13.7,354.7 14.4,354.9 15.2,354.9 C16.2,354.9 17.1,354.6 18,354.1 L92.6,304.3 C124.7,282.8 152.4,260.4 177.2,235.7 C178.1,234.8 178.7,233.5 178.7,232.2 L178.7,231.3 C178.5,226.4 176.2,224.1 171.4,224.1 Z"/></g></g></g><g transform="translate(331.000000, 0.000000)"><path id="Path" fill="#FFF" d="M235.1,5.7 L53.2,5.7 C27.1,5.7 5.9,26.9 5.9,53 L5.9,146.6 C5.9,172.7 27.1,193.9 53.2,193.9 L96.7,193.9 L144.2,253.3 L191.7,193.9 L235.2,193.9 C261.3,193.9 282.5,172.7 282.5,146.6 L282.5,53 C282.4,26.9 261.2,5.7 235.1,5.7 Z"/><path id="Shape" fill="#383A48" d="M144.1,258.4 C142.6,258.4 141.1,257.7 140.2,256.5 L94.2,199 L53.1,199 C24.3,199 0.8,175.5 0.8,146.7 L0.8,53.1 C0.8,24.3 24.3,0.8 53.1,0.8 L235,0.8 C263.8,0.8 287.3,24.3 287.3,53.1 L287.3,146.7 C287.3,175.5 263.8,199 235,199 L194,199 L148,256.5 C147.1,257.7 145.6,258.4 144.1,258.4 Z M53.2,10.7 C29.9,10.7 10.9,29.7 10.9,53 L10.9,146.6 C10.9,169.9 29.9,188.9 53.2,188.9 L96.7,188.9 C98.2,188.9 99.7,189.6 100.6,190.8 L144.2,245.3 L187.8,190.8 C188.7,189.6 190.2,188.9 191.7,188.9 L235.2,188.9 C258.5,188.9 277.5,169.9 277.5,146.6 L277.5,53 C277.5,29.7 258.5,10.7 235.2,10.7 L53.2,10.7 Z"/><g transform="translate(84.000000, 58.000000)"><path id="Path" fill="#E0719E" d="M65.7,15.6 L60.2,22.2 L54.4,15.3 C44.5,3.6 27,2 15.1,11.8 L15.1,11.8 C3.1,21.7 1.5,39.5 11.5,51.4 L60.4,96.3 L108.7,51.4 C118.6,39.5 116.9,21.8 105,11.9 L105,11.9 C93.2,2 75.6,3.7 65.7,15.6 Z"/><path id="Shape" fill="#383A48" d="M60.5,101.2 C59.3,101.2 58.1,100.8 57.1,99.9 L8.2,55 C8,54.9 7.9,54.7 7.8,54.5 C2.1,47.7 -0.6,39.1 0.2,30.3 C1,21.5 5.2,13.5 12,7.8 C12,7.8 12.1,7.8 12.1,7.7 C25.9,-3.8 46.7,-1.9 58.3,11.9 L60.3,14.2 L62,12.2 L62,12.2 C73.6,-1.8 94.5,-3.7 108.4,7.9 C115.2,13.5 119.4,21.5 120.2,30.3 C121,39.1 118.4,47.7 112.7,54.5 C112.6,54.7 112.4,54.8 112.3,55 L64,99.9 C62.9,100.8 61.7,101.2 60.5,101.2 Z M15.2,47.9 L60.5,89.4 L105.2,47.9 C109,43.2 110.8,37.3 110.2,31.3 C109.6,25.2 106.7,19.6 102,15.7 C92.2,7.6 77.7,9 69.6,18.7 L69.6,18.7 L64.1,25.3 C63.2,26.4 61.8,27.1 60.3,27.1 L60.3,27.1 C58.8,27.1 57.4,26.5 56.5,25.3 L50.7,18.4 C42.6,8.8 28.1,7.5 18.4,15.5 C18.4,15.5 18.3,15.5 18.3,15.6 C13.6,19.5 10.7,25.1 10.1,31.2 C9.5,37.3 11.3,43.2 15.2,47.9 Z"/></g></g><path id="Path" fill="#383A48" d="M764.2,811.3 L214.9,811.3 C212.1,811.3 209.9,809.1 209.9,806.3 C209.9,803.5 212.1,801.3 214.9,801.3 L764.2,801.3 C767,801.3 769.2,803.5 769.2,806.3 C769.2,809.1 767,811.3 764.2,811.3 Z"/><g transform="translate(90.000000, 573.000000)"><g><path id="Path" fill="#FFF" d="M212.3,88.9 L212.3,42.4 L212.3,40.6 C212.3,21.1 196.5,5.2 176.9,5.2 L41.1,5.2 C21.6,5.2 5.7,21 5.7,40.6 L5.7,110.6 C5.7,130.1 21.5,146 41.1,146 L73.6,146 L144.5,146 L177,146 L261.3,146 L212.3,88.9 Z"/><path id="Shape" fill="#383A48" d="M261.3,151 L41.1,151 C18.9,151 0.7,132.9 0.7,110.6 L0.7,40.6 C0.7,18.4 18.8,0.2 41.1,0.2 L177,0.2 C199.2,0.2 217.4,18.3 217.4,40.6 L217.4,87 L265.2,142.7 C266.5,144.2 266.8,146.3 265.9,148 C265.1,149.9 263.3,151 261.3,151 Z M41.1,10.4 C24.4,10.4 10.7,24 10.7,40.8 L10.7,110.8 C10.7,127.5 24.3,141.2 41.1,141.2 L250.5,141.2 L208.6,92.4 C207.8,91.5 207.4,90.3 207.4,89.1 L207.4,40.9 C207.4,24.2 193.8,10.5 177,10.5 L41.1,10.5 L41.1,10.4 Z"/></g><rect id="Rectangle" width="94" height="10" x="59.8" y="53.7" fill="#383A48"/><rect id="Rectangle" width="94" height="10" x="59.8" y="87.7" fill="#383A48"/></g><path id="Path" fill="#383A48" d="M895.5,113.7 C893.9,113.7 892.3,112.9 891.3,111.5 C889.8,109.2 890.4,106.1 892.7,104.6 L960.6,59.2 C962.9,57.7 966,58.3 967.5,60.6 C969,62.9 968.4,66 966.1,67.5 L898.2,112.9 C897.5,113.4 896.5,113.7 895.5,113.7 Z"/><path id="Path" fill="#383A48" d="M1075.4,205.4 C1073.8,205.4 1072.2,204.6 1071.2,203.2 C1069.7,200.9 1070.3,197.8 1072.6,196.3 L1189.2,118.4 C1191.5,116.9 1194.6,117.5 1196.1,119.8 C1197.6,122.1 1197,125.2 1194.7,126.7 L1078.1,204.6 C1077.3,205.2 1076.4,205.4 1075.4,205.4 Z"/><path id="Path" fill="#383A48" d="M1047.4,127.5 C1045.8,127.5 1044.2,126.7 1043.2,125.3 C1041.7,123 1042.3,119.9 1044.6,118.4 L1099.1,82 C1101.4,80.5 1104.5,81.1 1106,83.4 C1107.5,85.7 1106.9,88.8 1104.6,90.3 L1050.1,126.7 C1049.3,127.2 1048.4,127.5 1047.4,127.5 Z"/><path id="Path" fill="#383A48" d="M989.1,110.4 C987.5,110.4 985.9,109.6 984.9,108.2 C983.4,105.9 984,102.8 986.3,101.3 L1106.6,20.9 C1108.9,19.4 1112,20 1113.5,22.3 C1115,24.6 1114.4,27.7 1112.1,29.2 L991.8,109.6 C991,110.1 990.1,110.4 989.1,110.4 Z"/><g id="Path"><path fill="#4053FA" d="M273.3,60.6 C244.3,22.4 200.3,0.5 152.4,0.5 C68.7,0.5 0.5,68.8 0.5,152.7 C0.5,191.3 15,228.2 41.2,256.5 C42.2,257.5 43.5,258.1 44.9,258.1 C45,258.1 45.1,258.1 45.2,258.1 C46.7,258 48.1,257.2 49,256 C92.2,194 140.8,165.3 183.7,139.9 C218.4,119.4 251.2,99.9 273.4,66.4 C274.7,64.6 274.6,62.3 273.3,60.6 Z" transform="translate(1255.000000, 69.000000)"/><path fill="#E0719E" d="M273.3,60.6 C272.3,59.3 270.8,58.6 269.2,58.6 C267.6,58.7 266.1,59.5 265.2,60.8 C244.3,92.4 213.9,110.4 178.8,131.2 C135,157.1 85.4,186.5 41,250.2 C39.7,252.1 39.8,254.7 41.4,256.5 C70,287.3 110.5,305 152.5,305 C236.2,305 304.4,236.7 304.4,152.8 C304.3,119.1 293.6,87.3 273.3,60.6 Z" transform="translate(1255.000000, 69.000000)"/></g><path id="Shape" fill="#383A48" d="M1406.6,656.6 C1406.1,656.6 1405.7,656.6 1405.2,656.6 C1397.5,656.2 1391.1,652.2 1387.9,645.9 C1385.6,641.3 1383.2,631.3 1392.9,616.8 C1401.2,604.5 1414.3,591.6 1429.9,580.4 C1426.7,563.3 1419.7,546.7 1409.7,532.8 C1374.6,483.8 1320.8,488.6 1291.8,495.8 C1289.1,496.5 1286.4,494.8 1285.7,492.1 C1285,489.4 1286.7,486.7 1289.4,486 C1362.6,467.9 1401.2,503.9 1417.8,526.9 C1427.9,541 1435,557.6 1438.7,574.3 C1454.9,564 1473,555.5 1491.7,549.7 C1494.3,548.9 1497.1,550.3 1498,553 C1498.8,555.6 1497.4,558.4 1494.7,559.3 C1473.6,565.9 1455.5,575.1 1440.7,585.1 C1443.7,606.6 1440.9,627.3 1431.7,641.6 C1425.7,651 1416.4,656.6 1406.6,656.6 Z M1431.5,591.6 C1417.6,602.2 1407.4,613.2 1401.3,622.3 C1396.2,629.9 1394.6,636.8 1396.9,641.4 C1398.4,644.5 1401.7,646.3 1405.7,646.6 C1408.2,646.7 1416.8,646.4 1423.4,636.1 C1430.2,625.5 1433.1,609.4 1431.5,591.6 Z"/><path id="Path" fill="#383A48" d="M180.5,282.1 C169.1,282.1 167.9,271.2 167.9,266.6 C167.9,263.8 165.7,261.6 162.9,261.6 C160.1,261.6 157.9,263.8 157.9,266.6 C157.9,271.3 156.7,282.1 145.3,282.1 C142.5,282.1 140.3,284.3 140.3,287.1 C140.3,289.9 142.5,292.1 145.3,292.1 C156.7,292.1 157.9,303 157.9,307.6 C157.9,310.4 160.1,312.6 162.9,312.6 C165.7,312.6 167.9,310.4 167.9,307.6 C167.9,302.9 169.1,292.1 180.5,292.1 C183.3,292.1 185.5,289.9 185.5,287.1 C185.5,284.3 183.3,282.1 180.5,282.1 Z"/><path id="Path" fill="#383A48" d="M727.6,92.8 C716.2,92.8 715,81.9 715,77.3 C715,74.5 712.8,72.3 710,72.3 C707.2,72.3 705,74.5 705,77.3 C705,82 703.8,92.8 692.4,92.8 C689.6,92.8 687.4,95 687.4,97.8 C687.4,100.6 689.6,102.8 692.4,102.8 C703.8,102.8 705,113.7 705,118.3 C705,121.1 707.2,123.3 710,123.3 C712.8,123.3 715,121.1 715,118.3 C715,113.6 716.2,102.8 727.6,102.8 C730.4,102.8 732.6,100.6 732.6,97.8 C732.6,95 730.3,92.8 727.6,92.8 Z"/><path id="Path" fill="#383A48" d="M1192,282.1 C1180.6,282.1 1179.4,271.2 1179.4,266.6 C1179.4,263.8 1177.2,261.6 1174.4,261.6 C1171.6,261.6 1169.4,263.8 1169.4,266.6 C1169.4,271.3 1168.2,282.1 1156.8,282.1 C1154,282.1 1151.8,284.3 1151.8,287.1 C1151.8,289.9 1154,292.1 1156.8,292.1 C1168.2,292.1 1169.4,303 1169.4,307.6 C1169.4,310.4 1171.6,312.6 1174.4,312.6 C1177.2,312.6 1179.4,310.4 1179.4,307.6 C1179.4,302.9 1180.6,292.1 1192,292.1 C1194.8,292.1 1197,289.9 1197,287.1 C1197,284.3 1194.8,282.1 1192,282.1 Z"/></g></g></g></svg>