<svg xmlns="http://www.w3.org/2000/svg" xmlns:xlink="http://www.w3.org/1999/xlink" width="1486" height="746" version="1.1" viewBox="0 0 1486 746"><title>present</title><desc>Created with Sketch.</desc><g id="Page-1" fill="none" fill-rule="evenodd" stroke="none" stroke-width="1"><g id="present" fill-rule="nonzero" transform="translate(-217.000000, -167.000000)"><g id="Group" transform="translate(217.000000, 167.000000)"><g transform="translate(1164.000000, 21.000000)"><path id="Path" fill="#AAC6FC" d="M160.9,40.4 L21.7,142.5 C11.2,128.2 5,110.6 5,91.5 C5,43.8 43.6,5.19946399 91.3,5.19946399 C119.9,5.1 145.2,19 160.9,40.4 Z"/><path id="Shape" fill="#383A48" d="M21.7,147.5 C20.2,147.5 18.6,146.8 17.7,145.5 C6.1,129.8 0,111.1 0,91.5 C0,41.2 41,0.2 91.3,0.2 C120.3,0.2 147.8,14.2 164.9,37.5 C165.7,38.6 166,39.9 165.8,41.2 C165.6,42.5 164.9,43.7 163.8,44.5 L24.6,146.6 C23.8,147.2 22.7,147.5 21.7,147.5 Z M91.3,10.1 C46.5,10.1 10,46.6 10,91.4 C10,107.2 14.4,122.3 22.9,135.4 L153.8,39.4 C138.4,21 115.4,10.1 91.3,10.1 Z"/></g><path id="Path" fill="#F3F6E6" d="M1482.7,223.1 C1481.1,222.2 1479.1,222.3 1477.6,223.3 C1416.2,263.7 1375.2,324.3 1335.5,383 C1310,420.8 1283.6,459.8 1252.3,492.2 C1217.1,528.6 1180.6,551.9 1137.5,565.5 C1083.5,582.5 1004,581 911.9,579.1 C713.1,575.2 440.7,569.9 162.8,736.6 C160.9,737.8 160,740.1 160.6,742.2 C161.2,744.3 163.2,745.9 165.4,745.9 L1480.3,745.9 C1483.1,745.9 1485.3,743.7 1485.3,740.9 L1485.3,227.5 C1485.3,225.7 1484.3,224 1482.7,223.1 Z"/><path id="Path" fill="#383A48" d="M1184.1,738.4 L1089,575.7 C1087.9,573.8 1085.6,572.8 1083.4,573.4 C1081.2,574 1079.7,576 1079.7,578.2 L1079.7,740.8 C1079.7,743.6 1081.9,745.8 1084.7,745.8 L1179.9,745.8 C1181.7,745.8 1183.3,744.8 1184.2,743.3 C1185.1,741.8 1185,739.9 1184.1,738.4 Z"/><path id="Path" fill="#F3F6E6" d="M1480.3,11.4 L1386.3,11.4 C1385.2,11.4 1384.2,11.7 1383.3,12.4 L1182.7,159.5 L1095.3,223.6 C1093.6,224.9 1092.8,227.1 1093.5,229.2 C1094.2,231.3 1096.1,232.6 1098.3,232.6 L1480.3,232.6 C1483.1,232.6 1485.3,230.4 1485.3,227.6 L1485.3,16.4 C1485.3,13.6 1483.1,11.4 1480.3,11.4 Z"/><g transform="translate(0.000000, 442.000000)"><path id="Path" fill="#E0719E" d="M142.3,12.6 L173.2,75.1 L242.2,85.1 C253.6,86.8 258.1,100.7 249.9,108.7 L200,157.4 L211.8,226.1 C213.7,237.4 201.9,246 191.7,240.7 L130,208.3 L68.3,240.7 C58.1,246 46.3,237.4 48.2,226.1 L60,157.4 L10.1,108.7 C1.9,100.7 6.4,86.7 17.8,85.1 L86.8,75.1 L117.7,12.6 C122.5,2.3 137.2,2.3 142.3,12.6 Z"/><path id="Shape" fill="#383A48" d="M61.6,247.4 C57.7,247.4 53.8,246.2 50.5,243.8 C44.7,239.6 41.8,232.5 43,225.4 L54.3,159.3 L6.3,112.5 C1.1,107.5 -0.7,100 1.5,93.2 C3.7,86.3 9.6,81.4 16.7,80.4 L83.1,70.8 L112.8,10.6 C116,4.1 122.5,0.1 129.7,0.1 C136.9,0.1 143.4,4.1 146.6,10.6 L146.6,10.6 L176.3,70.8 L242.7,80.4 C249.9,81.4 255.7,86.4 257.9,93.2 C260.1,100.1 258.3,107.5 253.1,112.5 L205.1,159.3 L216.4,225.4 C217.6,232.5 214.7,239.6 208.9,243.8 C203,248.1 195.4,248.6 189,245.2 L129.8,214 L70.4,245.2 C67.7,246.7 64.6,247.4 61.6,247.4 Z M129.8,202.7 L193.8,236.4 C196.9,238 200.3,237.8 203.1,235.7 C205.9,233.7 207.2,230.4 206.6,227 L194.4,155.7 L246.2,105.2 C248.7,102.8 249.5,99.4 248.4,96.1 C247.3,92.8 244.7,90.6 241.3,90.1 L169.7,79.7 L137.7,14.8 L137.7,14.8 C136.2,11.7 133.2,9.9 129.8,9.9 C126.4,9.9 123.4,11.7 121.9,14.8 L89.9,79.7 L18.3,90.1 C14.9,90.6 12.2,92.8 11.2,96.1 C10.1,99.4 11,102.8 13.4,105.2 L65.2,155.7 L52.9,227 C52.3,230.4 53.6,233.6 56.4,235.7 C59.2,237.7 62.7,238 65.7,236.4 L129.8,202.7 Z"/><g id="Oval" fill="#383A48" transform="translate(25.000000, 66.000000)"><circle cx="227.3" cy="30.4" r="5"/><circle cx="202.7" cy="30.4" r="5"/><circle cx="202.7" cy="55.1" r="5"/><circle cx="178" cy="5.7" r="5"/><circle cx="178" cy="30.4" r="5"/><circle cx="178" cy="55.1" r="5"/><circle cx="178" cy="79.7" r="5"/><circle cx="178" cy="104.4" r="5"/><circle cx="178" cy="129.1" r="5"/><circle cx="178" cy="153.7" r="5"/><circle cx="153.3" cy="5.7" r="5"/><circle cx="153.3" cy="30.4" r="5"/><circle cx="153.3" cy="55.1" r="5"/><circle cx="153.3" cy="79.7" r="5"/><circle cx="153.3" cy="104.4" r="5"/><circle cx="153.3" cy="129.1" r="5"/><circle cx="153.3" cy="153.7" r="5"/><circle cx="128.7" cy="5.7" r="5"/><circle cx="128.7" cy="30.4" r="5"/><circle cx="128.7" cy="55.1" r="5"/><circle cx="128.7" cy="79.7" r="5"/><circle cx="128.7" cy="104.4" r="5"/><circle cx="128.7" cy="129.1" r="5"/><circle cx="104" cy="5.7" r="5"/><circle cx="104" cy="30.4" r="5"/><circle cx="104" cy="55.1" r="5"/><circle cx="104" cy="79.7" r="5"/><circle cx="104" cy="104.4" r="5"/><circle cx="104" cy="129.1" r="5"/><circle cx="79.3" cy="5.7" r="5"/><circle cx="79.3" cy="30.4" r="5"/><circle cx="79.3" cy="55.1" r="5"/><circle cx="79.3" cy="79.7" r="5"/><circle cx="79.3" cy="104.4" r="5"/><circle cx="79.3" cy="129.1" r="5"/><circle cx="54.7" cy="5.7" r="5"/><circle cx="54.7" cy="30.4" r="5"/><circle cx="54.7" cy="55.1" r="5"/><circle cx="54.7" cy="79.7" r="5"/><circle cx="54.7" cy="104.4" r="5"/><circle cx="54.7" cy="129.1" r="5"/><circle cx="54.7" cy="153.7" r="5"/><circle cx="30" cy="30.4" r="5"/><circle cx="30" cy="55.1" r="5"/><circle cx="30" cy="79.7" r="5"/><circle cx="30" cy="104.4" r="5"/><circle cx="30" cy="129.1" r="5"/><circle cx="30" cy="153.7" r="5"/><circle cx="5.3" cy="30.4" r="5"/><circle cx="5.3" cy="55.1" r="5"/></g></g><g transform="translate(0.000000, 369.000000)"><path id="Path" fill="#E48490" d="M142.3,13.4 L173.2,75.9 L242.2,85.9 C253.6,87.6 258.1,101.5 249.9,109.5 L200,158.2 L211.8,226.9 C213.7,238.2 201.9,246.8 191.7,241.5 L130,209.1 L68.3,241.5 C58.1,246.8 46.3,238.2 48.2,226.9 L60,158.2 L10.1,109.5 C1.9,101.5 6.4,87.5 17.8,85.9 L86.8,75.9 L117.7,13.4 C122.5,3.1 137.2,3.1 142.3,13.4 Z"/><path id="Shape" fill="#383A48" d="M61.6,248.2 C57.7,248.2 53.8,247 50.5,244.6 C44.7,240.4 41.8,233.3 43,226.2 L54.3,160.1 L6.3,113.3 C1.1,108.3 -0.7,100.8 1.5,94 C3.7,87.1 9.6,82.2 16.7,81.2 L83.1,71.6 L112.8,11.4 C116,4.9 122.5,0.9 129.7,0.9 C136.9,0.9 143.4,4.9 146.6,11.4 L146.6,11.4 L176.3,71.6 L242.7,81.2 C249.9,82.2 255.7,87.2 257.9,94 C260.1,100.9 258.3,108.3 253.1,113.3 L205.1,160.1 L216.4,226.2 C217.6,233.3 214.7,240.4 208.9,244.6 C203.1,248.9 195.4,249.4 189,246 L129.6,214.8 L70.4,246 C67.7,247.5 64.6,248.2 61.6,248.2 Z M129.8,10.7 C126.4,10.7 123.4,12.5 121.9,15.6 L89.9,80.5 L18.3,90.9 C14.9,91.4 12.2,93.6 11.2,96.9 C10.1,100.2 11,103.6 13.4,106 L65.2,156.5 L53,227.8 C52.4,231.2 53.7,234.4 56.5,236.5 C59.3,238.5 62.8,238.8 65.8,237.2 L129.8,203.5 L193.8,237.2 C196.9,238.8 200.3,238.6 203.1,236.5 C205.9,234.5 207.2,231.2 206.6,227.8 L194.4,156.5 L246.2,106 C248.7,103.6 249.5,100.2 248.4,96.9 C247.3,93.6 244.7,91.4 241.3,90.9 L169.7,80.5 L137.7,15.6 C136.2,12.5 133.3,10.7 129.8,10.7 Z"/><g id="Oval" fill="#383A48" transform="translate(25.000000, 65.000000)"><circle cx="202.7" cy="30.4" r="5"/><circle cx="202.7" cy="55.1" r="5"/><circle cx="178" cy="5.7" r="5"/><circle cx="178" cy="30.4" r="5"/><circle cx="178" cy="55.1" r="5"/><circle cx="178" cy="79.7" r="5"/><circle cx="178" cy="104.4" r="5"/><circle cx="178" cy="129.1" r="5"/><circle cx="178" cy="153.7" r="5"/><circle cx="153.3" cy="5.7" r="5"/><circle cx="153.3" cy="30.4" r="5"/><circle cx="153.3" cy="55.1" r="5"/><circle cx="153.3" cy="79.7" r="5"/><circle cx="153.3" cy="104.4" r="5"/><circle cx="153.3" cy="129.1" r="5"/><circle cx="153.3" cy="153.7" r="5"/><circle cx="128.7" cy="5.7" r="5"/><circle cx="128.7" cy="30.4" r="5"/><circle cx="128.7" cy="55.1" r="5"/><circle cx="128.7" cy="79.7" r="5"/><circle cx="128.7" cy="104.4" r="5"/><circle cx="128.7" cy="129.1" r="5"/><circle cx="104" cy="5.7" r="5"/><circle cx="104" cy="30.4" r="5"/><circle cx="104" cy="55.1" r="5"/><circle cx="104" cy="79.7" r="5"/><circle cx="104" cy="104.4" r="5"/><circle cx="104" cy="129.1" r="5"/><circle cx="79.3" cy="5.7" r="5"/><circle cx="79.3" cy="30.4" r="5"/><circle cx="79.3" cy="55.1" r="5"/><circle cx="79.3" cy="79.7" r="5"/><circle cx="79.3" cy="104.4" r="5"/><circle cx="79.3" cy="129.1" r="5"/><circle cx="54.7" cy="5.7" r="5"/><circle cx="54.7" cy="30.4" r="5"/><circle cx="54.7" cy="55.1" r="5"/><circle cx="54.7" cy="79.7" r="5"/><circle cx="54.7" cy="104.4" r="5"/><circle cx="54.7" cy="129.1" r="5"/><circle cx="54.7" cy="153.7" r="5"/><circle cx="30" cy="5.7" r="5"/><circle cx="30" cy="30.4" r="5"/><circle cx="30" cy="55.1" r="5"/><circle cx="30" cy="79.7" r="5"/><circle cx="30" cy="104.4" r="5"/><circle cx="30" cy="129.1" r="5"/><circle cx="30" cy="153.7" r="5"/><circle cx="5.3" cy="30.4" r="5"/><circle cx="5.3" cy="55.1" r="5"/></g></g><g transform="translate(0.000000, 297.000000)"><path id="Path" fill="#E79682" d="M142.3,13.2 L173.2,75.7 L242.2,85.7 C253.6,87.4 258.1,101.3 249.9,109.3 L200,158 L211.8,226.7 C213.7,238 201.9,246.6 191.7,241.3 L130,208.9 L68.3,241.3 C58.1,246.6 46.3,238 48.2,226.7 L60,158 L10.1,109.3 C1.9,101.3 6.4,87.3 17.8,85.7 L86.8,75.7 L117.7,13.2 C122.5,2.9 137.2,2.9 142.3,13.2 Z"/><path id="Shape" fill="#383A48" d="M61.6,248 C57.7,248 53.8,246.8 50.5,244.4 C44.7,240.2 41.8,233.1 43,226 L54.3,159.9 L6.3,113.1 C1.1,108.1 -0.7,100.6 1.5,93.8 C3.7,86.9 9.6,82 16.7,81 L83.1,71.4 L112.8,11.2 C116,4.7 122.5,0.7 129.7,0.7 C136.9,0.7 143.4,4.7 146.6,11.2 L146.6,11.2 L176.3,71.4 L242.7,81 C249.9,82 255.7,87 257.9,93.8 C260.1,100.7 258.3,108.1 253.1,113.1 L205.1,159.9 L216.4,226 C217.6,233.1 214.7,240.2 208.9,244.4 C203.1,248.6 195.4,249.2 189,245.8 L129.6,214.6 L70.2,245.8 C67.7,247.3 64.6,248 61.6,248 Z M129.8,203.3 L193.8,237 C196.9,238.6 200.3,238.4 203.1,236.3 C205.9,234.3 207.2,231 206.6,227.6 L194.4,156.3 L246.2,105.8 C248.7,103.4 249.5,100 248.4,96.7 C247.3,93.4 244.7,91.2 241.3,90.7 L169.7,80.3 L137.7,15.4 C136.2,12.3 133.2,10.5 129.8,10.5 C126.4,10.5 123.4,12.3 121.9,15.4 L89.9,80.3 L18.3,90.7 C14.9,91.2 12.2,93.4 11.2,96.7 C10.1,100 11,103.4 13.4,105.8 L65.2,156.3 L53,227.6 C52.4,231 53.7,234.2 56.5,236.3 C59.3,238.3 62.8,238.6 65.8,237 L129.8,203.3 Z"/><g id="Oval" fill="#383A48" transform="translate(80.000000, 164.000000)"><circle cx="93.3" cy="5.4" r="5"/><circle cx="93.3" cy="49.4" r="5"/><circle cx="49.3" cy="5.4" r="5"/><circle cx="5.3" cy="5.4" r="5"/><circle cx="5.3" cy="49.4" r="5"/></g></g><g transform="translate(0.000000, 225.000000)"><path id="Path" fill="#EBA974" d="M142.3,13 L173.2,75.5 L242.2,85.5 C253.6,87.2 258.1,101.1 249.9,109.1 L200,157.8 L211.8,226.5 C213.7,237.8 201.9,246.4 191.7,241.1 L130,208.7 L68.3,241.1 C58.1,246.4 46.3,237.8 48.2,226.5 L60,157.8 L10.1,109.1 C1.9,101.1 6.4,87.1 17.8,85.5 L86.8,75.5 L117.7,13 C122.5,2.7 137.2,2.7 142.3,13 Z"/><path id="Shape" fill="#383A48" d="M61.6,247.8 C57.7,247.8 53.8,246.6 50.5,244.2 C44.7,240 41.8,232.9 43,225.8 L54.3,159.7 L6.3,112.9 C1.1,107.9 -0.7,100.4 1.5,93.6 C3.7,86.7 9.6,81.8 16.7,80.8 L83.1,71.2 L112.8,11 C116,4.5 122.5,0.5 129.7,0.5 C136.9,0.5 143.4,4.5 146.6,11 L146.6,11 L176.3,71.2 L242.7,80.8 C249.9,81.8 255.7,86.8 257.9,93.6 C260.1,100.5 258.3,107.9 253.1,112.9 L205.1,159.7 L216.4,225.8 C217.6,232.9 214.7,240 208.9,244.2 C203,248.5 195.4,249 189,245.6 L129.6,214.4 L70.2,245.6 C67.7,247.1 64.6,247.8 61.6,247.8 Z M129.8,203.1 L193.8,236.8 C196.9,238.4 200.3,238.2 203.1,236.1 C205.9,234.1 207.2,230.8 206.6,227.4 L194.4,156.1 L246.2,105.6 C248.7,103.2 249.5,99.8 248.4,96.5 C247.3,93.2 244.7,91 241.3,90.5 L169.7,80.1 L137.7,15.2 L137.7,15.2 C136.2,12.1 133.2,10.3 129.8,10.3 C126.4,10.3 123.4,12.1 121.9,15.2 L89.9,80.1 L18.3,90.5 C14.9,91 12.2,93.2 11.2,96.5 C10.1,99.8 11,103.2 13.4,105.6 L65.2,156.1 L53,227.4 C52.4,230.8 53.7,234 56.5,236.1 C59.3,238.1 62.8,238.4 65.8,236.8 L129.8,203.1 Z"/><g id="Oval" fill="#383A48" transform="translate(96.000000, 192.000000)"><circle cx="56.6" cy="5.1" r="5"/><circle cx="5.1" cy="5.1" r="5"/></g></g><g transform="translate(0.000000, 153.000000)"><path id="Path" fill="#EFBB65" d="M142.3,12.8 L173.2,75.3 L242.2,85.3 C253.6,87 258.1,100.9 249.9,108.9 L200,157.6 L211.8,226.3 C213.7,237.6 201.9,246.2 191.7,240.9 L130,208.5 L68.1,241 C57.9,246.3 46.1,237.7 48,226.4 L59.8,157.7 L9.9,109 C1.7,101 6.2,87 17.6,85.4 L86.6,75.4 L117.5,12.9 C122.5,2.5 137.2,2.5 142.3,12.8 Z"/><path id="Shape" fill="#383A48" d="M61.6,247.6 C57.7,247.6 53.8,246.4 50.5,244 C44.7,239.8 41.8,232.7 43,225.6 L54.3,159.5 L6.3,112.7 C1.1,107.7 -0.7,100.2 1.5,93.4 C3.7,86.5 9.6,81.6 16.7,80.6 L83.1,71 L112.8,10.8 C116,4.3 122.5,0.3 129.7,0.3 C136.9,0.3 143.4,4.3 146.6,10.8 L146.6,10.8 L176.3,71 L242.7,80.6 C249.9,81.6 255.7,86.6 257.9,93.4 C260.1,100.3 258.3,107.7 253.1,112.7 L205.1,159.5 L216.4,225.6 C217.6,232.7 214.7,239.8 208.9,244 C203.1,248.3 195.4,248.8 189,245.4 L129.6,214.2 L70.2,245.4 C67.7,246.9 64.6,247.6 61.6,247.6 Z M129.8,10.1 C126.4,10.1 123.4,11.9 121.9,15 L89.9,79.9 L18.3,90.3 C14.9,90.8 12.2,93 11.2,96.3 C10.1,99.6 11,103 13.4,105.4 L65.2,155.9 L53,227.2 C52.4,230.6 53.7,233.8 56.5,235.9 C59.3,237.9 62.8,238.2 65.8,236.6 L129.8,202.9 L193.8,236.6 C196.9,238.2 200.3,238 203.1,235.9 C205.9,233.9 207.2,230.6 206.6,227.2 L194.4,155.9 L246.2,105.4 C248.7,103 249.5,99.6 248.4,96.3 C247.3,93 244.7,90.8 241.3,90.3 L169.7,79.9 L137.7,15 C136.2,11.9 133.3,10.1 129.8,10.1 Z"/></g><g transform="translate(0.000000, 81.000000)"><path id="Path" fill="#F2CD57" d="M142.3,12.6 L173.2,75.1 L242.2,85.1 C253.6,86.8 258.1,100.7 249.9,108.7 L200,157.4 L211.8,226.1 C213.7,237.4 201.9,246 191.7,240.7 L130,208.3 L68.3,240.7 C58.1,246 46.3,237.4 48.2,226.1 L60,157.4 L10.1,108.7 C1.9,100.7 6.4,86.7 17.8,85.1 L86.8,75.1 L117.7,12.6 C122.5,2.3 137.2,2.3 142.3,12.6 Z"/><path id="Shape" fill="#383A48" d="M61.6,247.4 C57.7,247.4 53.8,246.2 50.5,243.8 C44.7,239.6 41.8,232.5 43,225.4 L54.3,159.3 L6.3,112.5 C1.1,107.5 -0.7,100 1.5,93.2 C3.7,86.3 9.6,81.4 16.7,80.4 L83.1,70.8 L112.8,10.6 C116,4.1 122.5,0.1 129.7,0.1 C136.9,0.1 143.4,4.1 146.6,10.6 L146.6,10.6 L176.3,70.8 L242.7,80.4 C249.9,81.4 255.7,86.4 257.9,93.2 C260.1,100.1 258.3,107.5 253.1,112.5 L205.1,159.3 L216.4,225.4 C217.6,232.5 214.7,239.6 208.9,243.8 C203.1,248 195.4,248.6 189,245.2 L129.8,214 L70.4,245.2 C67.7,246.6 64.6,247.4 61.6,247.4 Z M129.8,202.7 L193.8,236.4 C196.9,238 200.3,237.8 203.1,235.7 C205.9,233.7 207.2,230.4 206.6,227 L194.4,155.7 L246.2,105.2 C248.7,102.8 249.5,99.4 248.4,96.1 C247.3,92.8 244.7,90.6 241.3,90.1 L169.7,79.7 L137.7,14.8 C136.2,11.7 133.2,9.9 129.8,9.9 C126.4,9.9 123.4,11.7 121.9,14.8 L89.9,79.7 L18.3,90.1 C14.9,90.6 12.2,92.8 11.2,96.1 C10.1,99.4 11,102.8 13.4,105.2 L65.2,155.7 L52.9,227 C52.3,230.4 53.6,233.6 56.4,235.7 C59.2,237.7 62.7,238 65.7,236.4 L129.8,202.7 Z"/><circle id="Oval" cx="134.8" cy="155.9" r="5" fill="#383A48"/></g><g transform="translate(0.000000, 8.000000)"><path id="Path" fill="#F6E049" d="M142.3,13.4 L173.2,75.9 L242.2,85.9 C253.6,87.6 258.1,101.5 249.9,109.5 L200,158.2 L211.8,226.9 C213.7,238.2 201.9,246.8 191.7,241.5 L130,209.1 L68.3,241.5 C58.1,246.8 46.3,238.2 48.2,226.9 L60,158.2 L10.1,109.5 C1.9,101.5 6.4,87.5 17.8,85.9 L86.8,75.9 L117.7,13.4 C122.5,3.1 137.2,3.1 142.3,13.4 Z"/><path id="Shape" fill="#383A48" d="M61.6,248.2 C57.7,248.2 53.8,247 50.5,244.6 C44.7,240.4 41.8,233.3 43,226.2 L54.3,160.1 L6.3,113.3 C1.1,108.3 -0.7,100.8 1.5,94 C3.7,87.1 9.6,82.2 16.7,81.2 L83.1,71.6 L112.8,11.4 C116,4.9 122.5,0.9 129.7,0.9 C136.9,0.9 143.4,4.9 146.6,11.4 L146.6,11.4 L176.3,71.6 L242.7,81.2 C249.9,82.2 255.7,87.2 257.9,94 C260.1,100.9 258.3,108.3 253.1,113.3 L205.1,160.1 L216.4,226.2 C217.6,233.3 214.7,240.4 208.9,244.6 C203,248.9 195.4,249.4 189,246 L129.6,214.8 L70.4,246 C67.7,247.4 64.6,248.2 61.6,248.2 Z M129.8,203.5 L193.8,237.2 C196.9,238.8 200.3,238.6 203.1,236.5 C205.9,234.5 207.2,231.2 206.6,227.8 L194.4,156.5 L246.2,106 C248.7,103.6 249.5,100.2 248.4,96.9 C247.3,93.6 244.7,91.4 241.3,90.9 L169.7,80.5 L137.7,15.6 C136.2,12.5 133.2,10.7 129.8,10.7 C126.4,10.7 123.4,12.5 121.9,15.6 L89.9,80.5 L18.3,90.9 C14.9,91.4 12.2,93.6 11.2,96.9 C10.2,100.2 11,103.6 13.4,106 L65.2,156.5 L53,227.8 C52.4,231.2 53.7,234.4 56.5,236.5 C59.3,238.5 62.8,238.8 65.8,237.2 L129.8,203.5 Z"/></g><path id="Path" fill="#F6E049" d="M1245.8,321.1 C1219.8,321.1 1217.8,295.5 1217.8,287.6 C1217.8,284.8 1215.6,282.6 1212.8,282.6 C1210,282.6 1207.8,284.8 1207.8,287.6 C1207.8,295.5 1205.8,321.1 1179.8,321.1 C1177,321.1 1174.8,323.3 1174.8,326.1 C1174.8,328.9 1177,331.1 1179.8,331.1 C1205.8,331.1 1207.8,356.7 1207.8,364.6 C1207.8,367.4 1210,369.6 1212.8,369.6 C1215.6,369.6 1217.8,367.4 1217.8,364.6 C1217.8,356.7 1219.8,331.1 1245.8,331.1 C1248.6,331.1 1250.8,328.9 1250.8,326.1 C1250.8,323.3 1248.6,321.1 1245.8,321.1 Z"/><path id="Path" fill="#F6E049" d="M1046.9,78.5 C1020.9,78.5 1018.9,52.9 1018.9,45 C1018.9,42.2 1016.7,40 1013.9,40 C1011.1,40 1008.9,42.2 1008.9,45 C1008.9,52.9 1006.9,78.5 980.9,78.5 C978.1,78.5 975.9,80.7 975.9,83.5 C975.9,86.3 978.1,88.5 980.9,88.5 C1006.9,88.5 1008.9,114.1 1008.9,122 C1008.9,124.8 1011.1,127 1013.9,127 C1016.7,127 1018.9,124.8 1018.9,122 C1018.9,114.1 1020.9,88.5 1046.9,88.5 C1049.7,88.5 1051.9,86.3 1051.9,83.5 C1051.9,80.7 1049.7,78.5 1046.9,78.5 Z"/><g transform="translate(345.000000, 15.000000)"><path id="Shape" fill="#F3F6E6" stroke="#383A48" stroke-linejoin="round" stroke-width="10" d="M401.2,223.3 L394.5,209.5 L368.3,155.5 L351.4,120.6 L322,59.8 C320.8,57.3 319.5,54.9 318.1,52.6 C304.7,30 282.8,14 256.9,8.1 C228.3,1.6 198.8,8.4 175.8,26.7 C149.5,47.7 136.3,80.2 140.5,113.6 C144.7,147 165.5,175.2 196.3,189.1 L241.7,209.6 L318.1,244.1 L361.9,263.8 C365.9,265.6 370.1,266.4 374.2,266.4 C382.1,266.4 389.9,263.3 395.7,257.3 C404.5,248.3 406.7,234.7 401.2,223.3 Z M267.8,155.5 L220.9,134.4 C209.2,129.1 201.6,118.8 200,106.1 C198.4,93.4 203.2,81.5 213.2,73.5 C219.7,68.4 227.5,65.6 235.5,65.6 C238.2,65.6 240.9,65.9 243.5,66.5 C254.2,68.9 263.1,76 267.9,85.9 L284.7,120.5 L311.1,175 L267.8,155.5 Z"/><path id="Path" fill="#383A48" d="M399,207.4 L372.8,153.4 C371.6,151 368.7,149.9 366.2,151 L335.4,164.9 L355.8,122.8 C356.5,121.4 356.5,119.8 355.8,118.4 L326.4,57.6 C325.1,55 323.8,52.5 322.3,50 C321.4,48.5 319.8,47.6 318,47.6 C316.2,47.6 314.6,48.5 313.7,50 C312.2,52.5 310.9,55 309.6,57.6 L280.1,118.4 C279.4,119.8 279.4,121.4 280.1,122.8 L300.5,164.9 L269.9,151 C267.4,149.9 264.5,150.9 263.3,153.4 L237.1,207.4 C236.5,208.6 236.4,210 236.9,211.3 C237.4,212.6 238.3,213.6 239.5,214.2 L315.9,248.7 C316.6,249 317.3,249.1 318,249.1 C318.7,249.1 319.4,249 320.1,248.7 L396.6,214.2 C397.8,213.6 398.8,212.6 399.2,211.3 C399.6,210 399.6,208.6 399,207.4 Z"/><g id="Shape"><path fill="#F3F6E6" d="M14.1,257.3 C5.3,248.3 3.1,234.7 8.6,223.3 L87.8,59.8 C100.6,33.4 124.3,14.6 152.9,8.1 C181.5,1.6 211,8.4 233.9,26.7 C260.2,47.7 273.4,80.2 269.2,113.6 C265,147 244.2,175.2 213.4,189.1 L48,263.7 C44,265.5 39.8,266.4 35.7,266.4 C27.7,266.4 19.9,263.2 14.1,257.3 Z M166.2,66.6 C155.5,69 146.6,76.1 141.8,86 L98.6,175.1 L188.9,134.4 C200.6,129.1 208.2,118.8 209.8,106.1 C211.4,93.4 206.6,81.5 196.6,73.5 C190.2,68.4 182.3,65.6 174.3,65.6 C171.6,65.7 168.9,66 166.2,66.6 Z" transform="translate(289.000000, 0.000000)"/><path fill="#383A48" d="M35.6,271.4 C26.2,271.4 17.1,267.5 10.5,260.8 C0.3,250.3 -2.3,234.3 4.1,221.1 L83.3,57.6 C96.8,29.8 121.7,10 151.8,3.2 C181.9,-3.6 213,3.5 237.1,22.7 C264.8,44.8 278.7,79 274.3,114.2 C269.9,149.4 247.9,179.1 215.6,193.6 L50,268.3 C45.5,270.4 40.6,271.4 35.6,271.4 Z M174.4,10.7 C167.7,10.7 160.9,11.5 154.1,13 C127,19.1 104.5,37 92.4,62 L13.2,225.5 C8.6,234.9 10.5,246.3 17.8,253.8 L17.8,253.8 C22.5,258.6 29,261.4 35.7,261.4 C39.3,261.4 42.7,260.7 46,259.2 L211.6,184.5 C240.7,171.4 260.5,144.6 264.5,112.9 C268.5,81.2 256,50.4 231,30.5 C214.6,17.6 194.7,10.7 174.4,10.7 Z M98.7,180.1 C97.4,180.1 96.1,179.6 95.1,178.6 C93.6,177.1 93.3,174.8 94.2,172.9 L137.4,83.8 C142.9,72.5 153,64.5 165.2,61.7 L165.2,61.7 C168.2,61 171.3,60.7 174.3,60.7 C183.5,60.7 192.5,63.9 199.8,69.6 C211.2,78.7 216.7,92.2 214.9,106.7 C213.1,121.2 204.4,132.9 191.1,138.9 L100.8,179.6 C100.1,179.9 99.4,180.1 98.7,180.1 Z M174.3,70.7 C172,70.7 169.7,71 167.4,71.5 L167.4,71.5 C158.2,73.6 150.5,79.7 146.4,88.2 L109.2,164.9 L186.9,129.9 C196.9,125.4 203.5,116.5 204.9,105.6 C206.3,94.7 202.1,84.4 193.5,77.6 C187.9,73 181.3,70.7 174.3,70.7 Z" transform="translate(289.000000, 0.000000)"/></g><g transform="translate(245.000000, 231.000000)"><rect id="Rectangle" width="489.5" height="489.5" x="5.1" y="5.4" fill="#AAC6FC"/><path id="Shape" fill="#383A48" d="M494.6,499.9 L5.1,499.9 C2.3,499.9 0.1,497.7 0.1,494.9 L0.1,5.4 C0.1,2.6 2.3,0.4 5.1,0.4 L494.6,0.4 C497.4,0.4 499.6,2.6 499.6,5.4 L499.6,494.9 C499.6,497.7 497.4,499.9 494.6,499.9 Z M10.1,489.9 L489.6,489.9 L489.6,10.4 L10.1,10.4 L10.1,489.9 Z"/></g><g transform="translate(0.000000, 231.000000)"><rect id="Rectangle" width="489.5" height="489.5" x="5.4" y="5.4" fill="#AAC6FC"/><path id="Shape" fill="#383A48" d="M494.9,499.9 L5.4,499.9 C2.6,499.9 0.4,497.7 0.4,494.9 L0.4,5.4 C0.4,2.6 2.6,0.4 5.4,0.4 L494.9,0.4 C497.7,0.4 499.9,2.6 499.9,5.4 L499.9,494.9 C499.9,497.7 497.6,499.9 494.9,499.9 Z M10.4,489.9 L489.9,489.9 L489.9,10.4 L10.4,10.4 L10.4,489.9 Z"/></g><g transform="translate(186.000000, 231.000000)"><rect id="Rectangle" width="118" height="489.5" x="5.1" y="5.4" fill="#F3F6E6"/><path id="Shape" fill="#383A48" d="M123.1,499.9 L5.1,499.9 C2.3,499.9 0.1,497.7 0.1,494.9 L0.1,5.4 C0.1,2.6 2.3,0.4 5.1,0.4 L123.1,0.4 C125.9,0.4 128.1,2.6 128.1,5.4 L128.1,494.9 C128.1,497.7 125.9,499.9 123.1,499.9 Z M10.1,489.9 L118.1,489.9 L118.1,10.4 L10.1,10.4 L10.1,489.9 Z"/></g><g transform="translate(574.000000, 231.000000)"><rect id="Rectangle" width="79.3" height="489.5" x="5" y="5.4" fill="#F3F6E6"/><path id="Shape" fill="#383A48" d="M84.2,499.9 L5,499.9 C2.2,499.9 0,497.7 0,494.9 L0,5.4 C0,2.6 2.2,0.4 5,0.4 L84.3,0.4 C87.1,0.4 89.3,2.6 89.3,5.4 L89.3,494.9 C89.2,497.7 87,499.9 84.2,499.9 Z M10,489.9 L79.3,489.9 L79.3,10.4 L10,10.4 L10,489.9 Z"/></g><g id="Oval" fill="#383A48" transform="translate(507.000000, 243.000000)"><circle cx="214.7" cy="5.1" r="5"/><circle cx="214.7" cy="29.7" r="5"/><circle cx="214.7" cy="54.4" r="5"/><circle cx="214.7" cy="79.1" r="5"/><circle cx="214.7" cy="103.7" r="5"/><circle cx="214.7" cy="128.4" r="5"/><circle cx="214.7" cy="153.1" r="5"/><circle cx="214.7" cy="177.7" r="5"/><circle cx="214.7" cy="202.4" r="5"/><circle cx="214.7" cy="227.1" r="5"/><circle cx="214.7" cy="251.7" r="5"/><circle cx="214.7" cy="276.4" r="5"/><circle cx="214.7" cy="301.1" r="5"/><circle cx="214.7" cy="325.7" r="5"/><circle cx="214.7" cy="350.4" r="5"/><circle cx="214.7" cy="375.1" r="5"/><circle cx="214.7" cy="399.7" r="5"/><circle cx="214.7" cy="424.4" r="5"/><circle cx="214.7" cy="449.1" r="5"/><circle cx="214.7" cy="473.7" r="5"/><circle cx="190.1" cy="5.1" r="5"/><circle cx="190.1" cy="29.7" r="5"/><circle cx="190.1" cy="54.4" r="5"/><circle cx="190.1" cy="79.1" r="5"/><circle cx="190.1" cy="103.7" r="5"/><circle cx="190.1" cy="128.4" r="5"/><circle cx="190.1" cy="153.1" r="5"/><circle cx="190.1" cy="177.7" r="5"/><circle cx="190.1" cy="202.4" r="5"/><circle cx="190.1" cy="227.1" r="5"/><circle cx="190.1" cy="251.7" r="5"/><circle cx="190.1" cy="276.4" r="5"/><circle cx="190.1" cy="301.1" r="5"/><circle cx="190.1" cy="325.7" r="5"/><circle cx="190.1" cy="350.4" r="5"/><circle cx="190.1" cy="375.1" r="5"/><circle cx="190.1" cy="399.7" r="5"/><circle cx="190.1" cy="424.4" r="5"/><circle cx="190.1" cy="449.1" r="5"/><circle cx="190.1" cy="473.7" r="5"/><circle cx="165.4" cy="5.1" r="5"/><circle cx="165.4" cy="29.7" r="5"/><circle cx="165.4" cy="54.4" r="5"/><circle cx="165.4" cy="79.1" r="5"/><circle cx="165.4" cy="103.7" r="5"/><circle cx="165.4" cy="128.4" r="5"/><circle cx="165.4" cy="153.1" r="5"/><circle cx="165.4" cy="177.7" r="5"/><circle cx="165.4" cy="202.4" r="5"/><circle cx="165.4" cy="227.1" r="5"/><circle cx="165.4" cy="251.7" r="5"/><circle cx="165.4" cy="276.4" r="5"/><circle cx="165.4" cy="301.1" r="5"/><circle cx="165.4" cy="325.7" r="5"/><circle cx="165.4" cy="350.4" r="5"/><circle cx="165.4" cy="375.1" r="5"/><circle cx="165.4" cy="399.7" r="5"/><circle cx="165.4" cy="424.4" r="5"/><circle cx="165.4" cy="449.1" r="5"/><circle cx="165.4" cy="473.7" r="5"/><circle cx="135.7" cy="5.1" r="5"/><circle cx="135.7" cy="29.7" r="5"/><circle cx="135.7" cy="54.4" r="5"/><circle cx="135.7" cy="79.1" r="5"/><circle cx="135.7" cy="103.7" r="5"/><circle cx="135.7" cy="128.4" r="5"/><circle cx="135.7" cy="153.1" r="5"/><circle cx="135.7" cy="177.7" r="5"/><circle cx="135.7" cy="202.4" r="5"/><circle cx="135.7" cy="227.1" r="5"/><circle cx="135.7" cy="251.7" r="5"/><circle cx="135.7" cy="276.4" r="5"/><circle cx="135.7" cy="301.1" r="5"/><circle cx="135.7" cy="325.7" r="5"/><circle cx="135.7" cy="350.4" r="5"/><circle cx="135.7" cy="375.1" r="5"/><circle cx="135.7" cy="399.7" r="5"/><circle cx="135.7" cy="424.4" r="5"/><circle cx="135.7" cy="449.1" r="5"/><circle cx="135.7" cy="473.7" r="5"/><circle cx="111.1" cy="5.1" r="5"/><circle cx="111.1" cy="29.7" r="5"/><circle cx="111.1" cy="54.4" r="5"/><circle cx="111.1" cy="79.1" r="5"/><circle cx="111.1" cy="103.7" r="5"/><circle cx="111.1" cy="128.4" r="5"/><circle cx="111.1" cy="153.1" r="5"/><circle cx="111.1" cy="177.7" r="5"/><circle cx="111.1" cy="202.4" r="5"/><circle cx="111.1" cy="227.1" r="5"/><circle cx="111.1" cy="251.7" r="5"/><circle cx="111.1" cy="276.4" r="5"/><circle cx="111.1" cy="301.1" r="5"/><circle cx="111.1" cy="325.7" r="5"/><circle cx="111.1" cy="350.4" r="5"/><circle cx="111.1" cy="375.1" r="5"/><circle cx="111.1" cy="399.7" r="5"/><circle cx="111.1" cy="424.4" r="5"/><circle cx="111.1" cy="449.1" r="5"/><circle cx="111.1" cy="473.7" r="5"/><circle cx="86.4" cy="5.1" r="5"/><circle cx="86.4" cy="29.7" r="5"/><circle cx="86.4" cy="54.4" r="5"/><circle cx="86.4" cy="79.1" r="5"/><circle cx="86.4" cy="103.7" r="5"/><circle cx="86.4" cy="128.4" r="5"/><circle cx="86.4" cy="153.1" r="5"/><circle cx="86.4" cy="177.7" r="5"/><circle cx="86.4" cy="202.4" r="5"/><circle cx="86.4" cy="227.1" r="5"/><circle cx="86.4" cy="251.7" r="5"/><circle cx="86.4" cy="276.4" r="5"/><circle cx="86.4" cy="301.1" r="5"/><circle cx="86.4" cy="325.7" r="5"/><circle cx="86.4" cy="350.4" r="5"/><circle cx="86.4" cy="375.1" r="5"/><circle cx="86.4" cy="399.7" r="5"/><circle cx="86.4" cy="424.4" r="5"/><circle cx="86.4" cy="449.1" r="5"/><circle cx="86.4" cy="473.7" r="5"/><circle cx="54.7" cy="5.1" r="5"/><circle cx="54.7" cy="29.7" r="5"/><circle cx="54.7" cy="54.4" r="5"/><circle cx="54.7" cy="79.1" r="5"/><circle cx="54.7" cy="103.7" r="5"/><circle cx="54.7" cy="128.4" r="5"/><circle cx="54.7" cy="153.1" r="5"/><circle cx="54.7" cy="177.7" r="5"/><circle cx="54.7" cy="202.4" r="5"/><circle cx="54.7" cy="227.1" r="5"/><circle cx="54.7" cy="251.7" r="5"/><circle cx="54.7" cy="276.4" r="5"/><circle cx="54.7" cy="301.1" r="5"/><circle cx="54.7" cy="325.7" r="5"/><circle cx="54.7" cy="350.4" r="5"/><circle cx="54.7" cy="375.1" r="5"/><circle cx="54.7" cy="399.7" r="5"/><circle cx="54.7" cy="424.4" r="5"/><circle cx="54.7" cy="449.1" r="5"/><circle cx="54.7" cy="473.7" r="5"/><circle cx="30.1" cy="5.1" r="5"/><circle cx="30.1" cy="29.7" r="5"/><circle cx="30.1" cy="54.4" r="5"/><circle cx="30.1" cy="79.1" r="5"/><circle cx="30.1" cy="103.7" r="5"/><circle cx="30.1" cy="128.4" r="5"/><circle cx="30.1" cy="153.1" r="5"/><circle cx="30.1" cy="177.7" r="5"/><circle cx="30.1" cy="202.4" r="5"/><circle cx="30.1" cy="227.1" r="5"/><circle cx="30.1" cy="251.7" r="5"/><circle cx="30.1" cy="276.4" r="5"/><circle cx="30.1" cy="301.1" r="5"/><circle cx="30.1" cy="325.7" r="5"/><circle cx="30.1" cy="350.4" r="5"/><circle cx="30.1" cy="375.1" r="5"/><circle cx="30.1" cy="399.7" r="5"/><circle cx="30.1" cy="424.4" r="5"/><circle cx="30.1" cy="449.1" r="5"/><circle cx="30.1" cy="473.7" r="5"/><circle cx="5.4" cy="5.1" r="5"/><circle cx="5.4" cy="29.7" r="5"/><circle cx="5.4" cy="54.4" r="5"/><circle cx="5.4" cy="79.1" r="5"/><circle cx="5.4" cy="103.7" r="5"/><circle cx="5.4" cy="128.4" r="5"/><circle cx="5.4" cy="153.1" r="5"/><circle cx="5.4" cy="177.7" r="5"/><circle cx="5.4" cy="202.4" r="5"/><circle cx="5.4" cy="227.1" r="5"/><circle cx="5.4" cy="251.7" r="5"/><circle cx="5.4" cy="276.4" r="5"/><circle cx="5.4" cy="301.1" r="5"/><circle cx="5.4" cy="325.7" r="5"/><circle cx="5.4" cy="350.4" r="5"/><circle cx="5.4" cy="375.1" r="5"/><circle cx="5.4" cy="399.7" r="5"/><circle cx="5.4" cy="424.4" r="5"/><circle cx="5.4" cy="449.1" r="5"/><circle cx="5.4" cy="473.7" r="5"/></g></g><g transform="translate(300.000000, 0.000000)"><circle id="Oval" cx="50.4" cy="49.6" r="44.5" fill="#AAC6FC"/><path id="Shape" fill="#383A48" d="M50.4,99.1 C23.1,99.1 0.9,76.9 0.9,49.6 C0.9,22.3 23.1,0.1 50.4,0.1 C77.7,0.1 99.9,22.3 99.9,49.6 C99.9,76.9 77.7,99.1 50.4,99.1 Z M50.4,10.1 C28.6,10.1 10.9,27.8 10.9,49.6 C10.9,71.4 28.6,89.1 50.4,89.1 C72.2,89.1 89.9,71.4 89.9,49.6 C89.9,27.8 72.2,10.1 50.4,10.1 Z"/></g><polygon id="Path" fill="#F6E049" points="1309.2 745.9 1485.3 745.9 1485.3 589.6"/><g id="Path" fill="#383A48"><path d="M48.6,28.9 C45.8,28.9 43.6,26.7 43.6,23.9 L43.6,5.1 C43.6,2.3 45.8,0.1 48.6,0.1 C51.4,0.1 53.6,2.3 53.6,5.1 L53.6,23.9 C53.6,26.7 51.4,28.9 48.6,28.9 Z" transform="translate(1293.000000, 487.000000)"/><path d="M48.6,96.3 C45.8,96.3 43.6,94.1 43.6,91.3 L43.6,72.5 C43.6,69.7 45.8,67.5 48.6,67.5 C51.4,67.5 53.6,69.7 53.6,72.5 L53.6,91.3 C53.6,94 51.4,96.3 48.6,96.3 Z" transform="translate(1293.000000, 487.000000)"/><path d="M24.3,53.2 L5.5,53.2 C2.7,53.2 0.5,51 0.5,48.2 C0.5,45.4 2.7,43.2 5.5,43.2 L24.3,43.2 C27.1,43.2 29.3,45.4 29.3,48.2 C29.3,51 27.1,53.2 24.3,53.2 Z" transform="translate(1293.000000, 487.000000)"/><path d="M91.7,53.2 L72.9,53.2 C70.1,53.2 67.9,51 67.9,48.2 C67.9,45.4 70.1,43.2 72.9,43.2 L91.7,43.2 C94.5,43.2 96.7,45.4 96.7,48.2 C96.7,51 94.4,53.2 91.7,53.2 Z" transform="translate(1293.000000, 487.000000)"/><path d="M31.4,36 C30.1,36 28.8,35.5 27.9,34.5 L14.6,21.2 C12.6,19.2 12.6,16.1 14.6,14.1 C16.6,12.1 19.7,12.1 21.7,14.1 L35,27.4 C37,29.4 37,32.5 35,34.5 C34,35.6 32.7,36 31.4,36 Z" transform="translate(1293.000000, 487.000000)"/><path d="M79.1,83.7 C77.8,83.7 76.5,83.2 75.6,82.2 L62.3,68.9 C60.3,66.9 60.3,63.8 62.3,61.8 C64.3,59.8 67.4,59.8 69.4,61.8 L82.7,75.1 C84.7,77.1 84.7,80.2 82.7,82.2 C81.6,83.2 80.3,83.7 79.1,83.7 Z" transform="translate(1293.000000, 487.000000)"/><path d="M18.2,83.7 C16.9,83.7 15.6,83.2 14.7,82.2 C12.7,80.2 12.7,77.1 14.7,75.1 L28,61.8 C30,59.8 33.1,59.8 35.1,61.8 C37.1,63.8 37.1,66.9 35.1,68.9 L21.8,82.2 C20.7,83.2 19.5,83.7 18.2,83.7 Z" transform="translate(1293.000000, 487.000000)"/><path d="M65.8,36 C64.5,36 63.2,35.5 62.3,34.5 C60.3,32.5 60.3,29.4 62.3,27.4 L75.6,14.1 C77.6,12.1 80.7,12.1 82.7,14.1 C84.7,16.1 84.7,19.2 82.7,21.2 L69.4,34.5 C68.3,35.6 67.1,36 65.8,36 Z" transform="translate(1293.000000, 487.000000)"/></g><path id="Path" fill="#383A48" d="M1255.3,203.8 C1226.4,203.8 1198.8,189.8 1181.7,166.5 C1181.6,166.4 1181.6,166.4 1181.6,166.3 L1176.7,158.8 C1175.2,156.5 1175.8,153.4 1178.1,151.9 C1180.4,150.4 1183.5,151 1185,153.3 L1189.8,160.7 C1205.1,181.5 1229.6,193.8 1255.3,193.8 C1300.1,193.8 1336.6,157.3 1336.6,112.5 C1336.6,95.1 1331.2,78.5 1321,64.6 L1313.2,55.4 C1311.4,53.3 1311.7,50.1 1313.8,48.4 C1315.9,46.6 1319.1,46.9 1320.8,49 L1328.7,58.3 C1328.8,58.4 1328.8,58.5 1328.9,58.6 C1340.5,74.3 1346.6,93 1346.6,112.6 C1346.6,162.8 1305.7,203.8 1255.3,203.8 Z"/><path id="Path" fill="#383A48" d="M276.7,507.4 C274.9,507.4 273.2,506.4 272.3,504.7 C271,502.3 271.9,499.2 274.4,497.9 L496,380.2 C498.4,378.9 501.5,379.8 502.8,382.3 C504.1,384.7 503.2,387.8 500.7,389.1 L279,506.8 C278.3,507.2 277.5,507.4 276.7,507.4 Z"/><path id="Path" fill="#F6E049" d="M460.9,576.1 C434.9,576.1 432.9,550.5 432.9,542.6 C432.9,539.8 430.7,537.6 427.9,537.6 C425.1,537.6 422.9,539.8 422.9,542.6 C422.9,550.5 420.9,576.1 394.9,576.1 C392.1,576.1 389.9,578.3 389.9,581.1 C389.9,583.9 392.1,586.1 394.9,586.1 C420.9,586.1 422.9,611.7 422.9,619.6 C422.9,622.4 425.1,624.6 427.9,624.6 C430.7,624.6 432.9,622.4 432.9,619.6 C432.9,611.7 434.9,586.1 460.9,586.1 C463.7,586.1 465.9,583.9 465.9,581.1 C465.9,578.3 463.6,576.1 460.9,576.1 Z"/></g></g></g></svg>