<?xml version="1.0" encoding="utf-8"?>
<!-- Generator: Adobe Illustrator 22.0.1, SVG Export Plug-In . SVG Version: 6.00 Build 0)  -->
<svg version="1.1" id="Layer_1" xmlns="http://www.w3.org/2000/svg" xmlns:xlink="http://www.w3.org/1999/xlink" x="0px" y="0px" viewBox="0 0 1920 1080" style="enable-background:new 0 0 1920 1080;" xml:space="preserve">

<rect width="1920" height="1080" style="fill:#F6E049;"/>
<g>
	<path d="M1677,147.6c-2.8,0-5,2.2-5,5c0,77.4-32.5,150.8-99.2,224.5c-58.6,64.6-135.6,120.8-203.6,170.3
		c-73.8,53.8-137.5,100.2-167.4,147.4c-41.1,65-137.4,74.5-249,85.6c-66,6.5-140.7,13.9-211.3,34.3
		c-81.1,23.4-145.1,60.6-195.8,113.7c-1.4,1.4-1.8,3.6-1,5.4c0.8,1.8,2.6,3,4.6,3l1127.7,3.3c0,0,0,0,0,0c1.3,0,2.6-0.5,3.5-1.5
		c0.9-0.9,1.5-2.2,1.5-3.5V152.6C1682,149.8,1679.8,147.6,1677,147.6z" style="fill:#F3F6E6;"/>
	<path d="M1148.8,150.3c-0.9-1.7-2.6-2.7-4.4-2.7H230.2c-2.8,0-5,2.2-5,5v613.2c0,2.8,2.2,5,5,5s5-2.2,5-5
		c0-110.2,64.8-136.3,139.8-166.4c71-28.6,151.6-60.9,185.6-173.4c14.1-46.6,37.6-74.1,74-86.6c33.7-11.5,74.8-9.8,122.3-7.8
		c57.5,2.4,122.7,5.2,189.8-16.1c77.6-24.6,143.5-76.9,201.6-160C1149.5,153.9,1149.7,151.9,1148.8,150.3z" style="fill:#F3F6E6;"/>
	<g id="XMLID_2_">
		<g>
			<polygon points="1022.1,386 933.5,543.8 864.3,666.9 714.5,933.3 650,756.9 432.7,935.2 353.1,837.9 569.5,660.3 
				417.6,554.8 711.8,472.7 847.8,434.7 			" style="fill:#E0719E;"/>
		</g>
		<g>
			<path d="M1014.8,392.7L862.7,659.2c-70.1-39.5-121.3-104.3-143.3-183.5l129.4-36.7L1014.8,392.7z" style="fill:#F6E049;"/>
		</g>
		<g>
			<path d="M1014.8,392.7l-81.7,143.1c-37.4-21.1-65.3-56.6-77-98.8L1014.8,392.7z" style="fill:#F3F6E6;"/>
		</g>
		<g>
			<path d="M432.7,940.2c-0.2,0-0.3,0-0.5,0c-1.3-0.1-2.5-0.8-3.4-1.8l-79.6-97.3c-1.7-2.1-1.4-5.3,0.7-7l211.4-173.4
				L414.8,558.9c-1.6-1.1-2.4-3-2.1-4.9c0.3-1.9,1.7-3.5,3.6-4l430.2-120.1l174.3-48.7c1.9-0.5,4,0.1,5.3,1.7
				c1.2,1.6,1.4,3.8,0.4,5.5L718.9,935.7c-1,1.7-2.8,2.7-4.8,2.5c-1.9-0.2-3.6-1.4-4.3-3.3l-62.1-169.8L435.9,939.1
				C435,939.8,433.9,940.2,432.7,940.2z M360.1,838.6l73.3,89.5L646.9,753c1.3-1,2.9-1.4,4.5-1c1.6,0.4,2.8,1.6,3.4,3.1l60.8,166.2
				l296.4-527.3l-298.7,83.4l-284,79.3l143.2,99.4c1.3,0.9,2.1,2.3,2.1,3.9c0.1,1.6-0.6,3.1-1.8,4.1L360.1,838.6z" style="fill:#383A48;"/>
		</g>
	</g>
	<g>
		<g>
			<rect x="1201" y="536.2" width="149.3" height="196.3" style="fill:#383A48;"/>
			<g>
				<path d="M1410.4,634.3H1141c-62.2,0-112.7-50.5-112.7-112.7V370.2c0-62.2,50.5-112.7,112.7-112.7h269.4
					c62.2,0,112.7,50.5,112.7,112.7v151.5C1523.1,583.9,1472.6,634.3,1410.4,634.3z" style="fill:#F3F6E6;"/>
				<path d="M1410.4,639.3H1141c-64.9,0-117.7-52.8-117.7-117.7V370.2c0-64.9,52.8-117.7,117.7-117.7h269.4
					c64.9,0,117.7,52.8,117.7,117.7v151.5C1528.1,586.5,1475.3,639.3,1410.4,639.3z M1141,262.5c-59.4,0-107.7,48.3-107.7,107.7
					v151.5c0,59.4,48.3,107.7,107.7,107.7h269.4c59.4,0,107.7-48.3,107.7-107.7V370.2c0-59.4-48.3-107.7-107.7-107.7H1141z" style="fill:#383A48;"/>
			</g>
			<path d="M1372.3,340H1179c-41.3,0-74.9,33.6-74.9,74.9v61.9c0,41.3,33.6,74.9,74.9,74.9h193.3
				c41.3,0,74.9-33.6,74.9-74.9V415C1447.3,373.6,1413.7,340,1372.3,340z" style="fill:#383A48;"/>
			<g>
				<path d="M1182,402.4h-0.9c-12.8,0-23.2,10.4-23.2,23.2v40.5c0,12.8,10.4,23.2,23.2,23.2h0.9
					c12.8,0,23.2-10.4,23.2-23.2v-40.5C1205.3,412.8,1194.8,402.4,1182,402.4z" style="fill:#F6E049;"/>
				<path d="M1370.3,402.4h-0.9c-12.8,0-23.2,10.4-23.2,23.2v40.5c0,12.8,10.4,23.2,23.2,23.2h0.9
					c12.8,0,23.2-10.4,23.2-23.2v-40.5C1393.5,412.8,1383.1,402.4,1370.3,402.4z" style="fill:#F6E049;"/>
			</g>
			<g>
				<path d="M1275.7,478.1c-17.7,0-32.2-14.4-32.2-32.2c0-2.8,2.2-5,5-5s5,2.2,5,5c0,12.2,9.9,22.2,22.2,22.2
					s22.2-9.9,22.2-22.2c0-2.8,2.2-5,5-5s5,2.2,5,5C1307.9,463.6,1293.4,478.1,1275.7,478.1z" style="fill:#F6E049;"/>
			</g>
			<g>
				<path d="M1275.7,792.4L1275.7,792.4c-38.5,0-69.6-31.2-69.6-69.6v-25.2h139.3v25.2
					C1345.3,761.2,1314.2,792.4,1275.7,792.4z" style="fill:#AAC6FC;"/>
				<path d="M1275.7,797.4c-41.2,0-74.6-33.5-74.6-74.6v-25.2c0-2.8,2.2-5,5-5h139.3c2.8,0,5,2.2,5,5v25.2
					C1350.3,763.9,1316.8,797.4,1275.7,797.4z M1211,702.5v20.2c0,35.6,29,64.6,64.6,64.6s64.6-29,64.6-64.6v-20.2H1211z" style="fill:#383A48;"/>
			</g>
		</g>
		<g>
			<path d="M1494.4,703h-69.9v139.8h69.9c38.6,0,69.9-31.3,69.9-69.9v0C1564.3,734.3,1533,703,1494.4,703z" style="fill:#AAC6FC;"/>
			<path d="M1494.4,847.8h-69.9c-2.8,0-5-2.2-5-5V703c0-2.8,2.2-5,5-5h69.9c41.3,0,74.9,33.6,74.9,74.9
				S1535.7,847.8,1494.4,847.8z M1429.4,837.8h64.9c35.8,0,64.9-29.1,64.9-64.9c0-35.8-29.1-64.9-64.9-64.9h-64.9V837.8z" style="fill:#383A48;"/>
		</g>
		<g>
			<path d="M1057,703h69.9v139.8H1057c-38.6,0-69.9-31.3-69.9-69.9v0C987.1,734.3,1018.4,703,1057,703z" style="fill:#AAC6FC;"/>
			<path d="M1126.9,847.8H1057c-41.3,0-74.9-33.6-74.9-74.9c0-41.3,33.6-74.9,74.9-74.9h69.9c2.8,0,5,2.2,5,5v139.8
				C1131.9,845.6,1129.7,847.8,1126.9,847.8z M1057,708c-35.8,0-64.9,29.1-64.9,64.9s29.1,64.9,64.9,64.9h64.9V708H1057z" style="fill:#383A48;"/>
		</g>
		<g>
			<path d="M1428.4,935.2H1123c-41.6,0-75.3-33.7-75.3-75.3v-74.7c0-45.4,36.8-82.2,82.2-82.2h291.8
				c45.4,0,82.2,36.8,82.2,82.2v74.7C1503.7,901.5,1470,935.2,1428.4,935.2z" style="fill:#F6E049;"/>
			<path d="M1428.4,940.2H1123c-44.3,0-80.3-36-80.3-80.3v-74.7c0-48.1,39.1-87.2,87.2-87.2h291.8
				c48.1,0,87.2,39.1,87.2,87.2v74.7C1508.7,904.2,1472.7,940.2,1428.4,940.2z M1129.8,708c-42.6,0-77.2,34.6-77.2,77.2v74.7
				c0,38.8,31.5,70.3,70.3,70.3h305.4c38.8,0,70.3-31.5,70.3-70.3v-74.7c0-42.6-34.6-77.2-77.2-77.2H1129.8z" style="fill:#383A48;"/>
		</g>
		<g>
			<path d="M1380.8,935.2h-210.3v-63.1c0-25.8,20.9-46.8,46.8-46.8H1334c25.8,0,46.8,20.9,46.8,46.8V935.2z" style="fill:#F3F6E6;"/>
			<path d="M1385.8,940.2h-220.3v-68.1c0-28.6,23.2-51.8,51.8-51.8H1334c28.6,0,51.8,23.2,51.8,51.8V940.2z
				 M1175.6,930.2h200.3v-58.1c0-23-18.7-41.8-41.8-41.8h-116.7c-23,0-41.8,18.7-41.8,41.8V930.2z" style="fill:#383A48;"/>
		</g>
	</g>
	<g>
		<path d="M1677,940.2H281.2c-2.8,0-5-2.2-5-5s2.2-5,5-5H1677c2.8,0,5,2.2,5,5S1679.8,940.2,1677,940.2z" style="fill:#383A48;"/>
	</g>
	<g>
		<path d="M971,269c-1.6,0-3.1-0.7-4.1-2.1l-20-28.1c-1.6-2.2-1.1-5.4,1.2-7c2.2-1.6,5.4-1.1,7,1.2l20,28.1
			c1.6,2.2,1.1,5.4-1.2,7C973,268.7,972,269,971,269z" style="fill:#383A48;"/>
	</g>
	<g>
		<path d="M1025,253.3c-2.5,0-4.6-1.9-5-4.4l-4.3-34.3c-0.3-2.7,1.6-5.2,4.3-5.6c2.7-0.3,5.2,1.6,5.6,4.3l4.3,34.3
			c0.3,2.7-1.6,5.2-4.3,5.6C1025.4,253.3,1025.2,253.3,1025,253.3z" style="fill:#383A48;"/>
	</g>
	<g>
		<path d="M929.7,306.1c-0.6,0-1.1-0.1-1.7-0.3L895.6,294c-2.6-0.9-3.9-3.8-3-6.4c0.9-2.6,3.8-3.9,6.4-3l32.5,11.7
			c2.6,0.9,3.9,3.8,3,6.4C933.7,304.8,931.8,306.1,929.7,306.1z" style="fill:#383A48;"/>
	</g>
	<g>
		<g>
			<g>
				<path d="M239.9,229.9l11-51.6l14.3-11.7h34.2l9.2,11.7l-11,51.6l-14.2,11.7h-34.3L239.9,229.9z M257.7,224.6
					l2.7,3.4h16.5l5.3-4.4l5.9-27.6L257.7,224.6z M290.7,183.6l-2.6-3.4h-16.5l-5.4,4.4l-5.8,27.5L290.7,183.6z" style="fill:#AAC6FC;"/>
			</g>
			<g>
				<path d="M309.2,241.1l2.9-13.6h10.5l9.9-46.7h-10.7l2.9-13.6h27.4l-12.8,60.3H350l-2.9,13.6H309.2z" style="fill:#AAC6FC;"/>
			</g>
			<g>
				<path d="M356.8,241.1l2.9-13.6h10.5l9.9-46.7h-10.7l2.9-13.6h27.4l-12.8,60.3h10.5l-2.9,13.6H356.8z" style="fill:#AAC6FC;"/>
			</g>
			<g>
				<path d="M404.3,241.1l2.9-13.6h10.5l9.9-46.7h-10.7l2.9-13.6h27.4l-12.8,60.3H445l-2.9,13.6H404.3z" style="fill:#AAC6FC;"/>
			</g>
			<g>
				<path d="M455.1,229.9l11-51.6l14.3-11.7h34.2l9.2,11.7l-11,51.6l-14.2,11.7h-34.3L455.1,229.9z M473,224.6l2.7,3.4
					h16.5l5.3-4.4l5.9-27.6L473,224.6z M506,183.6l-2.6-3.4h-16.5l-5.4,4.4l-5.8,27.5L506,183.6z" style="fill:#AAC6FC;"/>
			</g>
			<g>
				<path d="M527.7,229.9l11-51.6l14.3-11.7h34.2l9.2,11.7l-11,51.6l-14.2,11.7H537L527.7,229.9z M545.6,224.6l2.7,3.4
					h16.5l5.3-4.4L576,196L545.6,224.6z M578.6,183.6l-2.6-3.4h-16.5l-5.4,4.4l-5.8,27.5L578.6,183.6z" style="fill:#AAC6FC;"/>
			</g>
			<g>
				<path d="M597.1,241.1l2.9-13.6h10.5l9.9-46.7h-10.7l2.9-13.6h27.4l-12.8,60.3h10.5l-2.9,13.6H597.1z" style="fill:#AAC6FC;"/>
			</g>
			<g>
				<path d="M644.6,241.1l2.9-13.6H658l9.9-46.7h-10.7l2.9-13.6h27.4l-12.8,60.3h10.5l-2.9,13.6H644.6z" style="fill:#AAC6FC;"/>
			</g>
			<g>
				<path d="M695.4,229.9l11-51.6l14.3-11.7h34.2l9.2,11.7l-11,51.6L739,241.6h-34.3L695.4,229.9z M713.3,224.6l2.7,3.4
					h16.5l5.3-4.4l5.9-27.6L713.3,224.6z M746.3,183.6l-2.6-3.4h-16.5l-5.4,4.4l-5.8,27.5L746.3,183.6z" style="fill:#AAC6FC;"/>
			</g>
		</g>
		<g>
			<g>
				<path d="M236.6,340.6l2.9-13.6H250l9.9-46.7h-10.7l2.9-13.6h27.4l-12.8,60.3h10.5l-2.9,13.6H236.6z" style="fill:#AAC6FC;"/>
			</g>
			<g>
				<path d="M287.4,329.4l11-51.6l14.3-11.7h34.2l9.2,11.7l-11,51.6l-14.2,11.7h-34.3L287.4,329.4z M305.3,324.1
					l2.7,3.4h16.5l5.3-4.4l5.9-27.6L305.3,324.1z M338.3,283.1l-2.6-3.4h-16.5l-5.4,4.4l-5.8,27.5L338.3,283.1z" style="fill:#AAC6FC;"/>
			</g>
			<g>
				<path d="M356.8,340.6l2.9-13.6h10.5l9.9-46.7h-10.7l2.9-13.6h27.4l-12.8,60.3h10.5l-2.9,13.6H356.8z" style="fill:#AAC6FC;"/>
			</g>
			<g>
				<path d="M407.6,329.4l11-51.6l14.3-11.7h34.2l9.2,11.7l-11,51.6l-14.2,11.7h-34.3L407.6,329.4z M425.4,324.1
					l2.7,3.4h16.5l5.3-4.4l5.9-27.6L425.4,324.1z M458.4,283.1l-2.6-3.4h-16.5l-5.4,4.4l-5.8,27.5L458.4,283.1z" style="fill:#AAC6FC;"/>
			</g>
			<g>
				<path d="M480.2,329.4l11-51.6l14.3-11.7h34.2l9.2,11.7l-11,51.6l-14.2,11.7h-34.3L480.2,329.4z M498.1,324.1
					l2.7,3.4h16.5l5.3-4.4l5.9-27.6L498.1,324.1z M531.1,283.1l-2.6-3.4h-16.5l-5.4,4.4l-5.8,27.5L531.1,283.1z" style="fill:#AAC6FC;"/>
			</g>
		</g>
		<g>
			<g>
				<path d="M239.9,435.2l11-51.6l14.3-11.7h34.2l9.2,11.7l-11,51.6l-14.2,11.7h-34.3L239.9,435.2z M257.7,429.9
					l2.7,3.4h16.5l5.3-4.4l5.9-27.6L257.7,429.9z M290.7,388.9l-2.6-3.4h-16.5l-5.4,4.4l-5.8,27.5L290.7,388.9z" style="fill:#AAC6FC;"/>
			</g>
			<g>
				<path d="M309.2,446.3l2.9-13.6h10.5l9.9-46.7h-10.7l2.9-13.6h27.4l-12.8,60.3H350l-2.9,13.6H309.2z" style="fill:#AAC6FC;"/>
			</g>
			<g>
				<path d="M356.8,446.3l2.9-13.6h10.5L380,386h-10.7l2.9-13.6h27.4l-12.8,60.3h10.5l-2.9,13.6H356.8z" style="fill:#AAC6FC;"/>
			</g>
		</g>
	</g>
	<g>
		<g>
			<circle cx="1624.3" cy="297.9" r="52.7" style="fill:#F6E049;"/>
			<path d="M1624.3,355.6c-31.8,0-57.7-25.9-57.7-57.7c0-31.8,25.9-57.7,57.7-57.7c31.8,0,57.7,25.9,57.7,57.7
				C1682,329.8,1656.1,355.6,1624.3,355.6z M1624.3,250.2c-26.3,0-47.7,21.4-47.7,47.7c0,26.3,21.4,47.7,47.7,47.7
				c26.3,0,47.7-21.4,47.7-47.7C1672,271.6,1650.6,250.2,1624.3,250.2z" style="fill:#383A48;"/>
		</g>
		<g>
			<circle cx="1577.3" cy="245.2" r="52.7" style="fill:#E0719E;"/>
			<path d="M1577.3,302.9c-31.8,0-57.7-25.9-57.7-57.7c0-31.8,25.9-57.7,57.7-57.7c31.8,0,57.7,25.9,57.7,57.7
				C1635,277,1609.1,302.9,1577.3,302.9z M1577.3,197.5c-26.3,0-47.7,21.4-47.7,47.7s21.4,47.7,47.7,47.7
				c26.3,0,47.7-21.4,47.7-47.7S1603.6,197.5,1577.3,197.5z" style="fill:#383A48;"/>
		</g>
		<g>
			<circle cx="1530.3" cy="192.5" r="52.7" style="fill:#AAC6FC;"/>
			<path d="M1530.3,250.2c-31.8,0-57.7-25.9-57.7-57.7c0-31.8,25.9-57.7,57.7-57.7c31.8,0,57.7,25.9,57.7,57.7
				C1588,224.3,1562.1,250.2,1530.3,250.2z M1530.3,144.8c-26.3,0-47.7,21.4-47.7,47.7s21.4,47.7,47.7,47.7
				c26.3,0,47.7-21.4,47.7-47.7S1556.6,144.8,1530.3,144.8z" style="fill:#383A48;"/>
		</g>
	</g>
	<path d="M1678.9,814.5c-1.9-0.8-4-0.3-5.4,1.1l-116.1,116.1c-1.4,1.4-1.9,3.6-1.1,5.4c0.8,1.9,2.6,3.1,4.6,3.1H1677
		c2.8,0,5-2.2,5-5V819.1C1682,817.1,1680.8,815.2,1678.9,814.5z" style="fill:#383A48;"/>
	<g>
		<path d="M223,816.3c-0.3,0-0.7,0-1-0.1c-2.7-0.6-4.4-3.2-3.9-5.9l4.6-22c3.7-17.7,21-29.1,38.7-25.4l20,4.2
			c5.9,1.2,12,0.1,17.1-3.3c5.1-3.3,8.5-8.4,9.8-14.4l4.2-20c3.7-17.7,21-29.1,38.7-25.4l20,4.2c12.3,2.5,24.3-5.4,26.9-17.6l4.2-20
			c1.8-8.6,6.8-15.9,14.1-20.7c7.3-4.8,16-6.5,24.6-4.7l20.1,4.2c2.7,0.6,4.4,3.2,3.9,5.9c-0.6,2.7-3.2,4.4-5.9,3.9l-20.1-4.2
			c-5.9-1.2-12-0.1-17.1,3.3c-5.1,3.3-8.5,8.4-9.8,14.4l-4.2,20c-3.7,17.7-21,29.1-38.7,25.4l-20-4.2c-12.3-2.5-24.3,5.4-26.9,17.6
			l-4.2,20c-1.8,8.6-6.8,15.9-14.1,20.7c-7.3,4.8-16,6.5-24.6,4.7l-20-4.2c-12.3-2.5-24.3,5.4-26.9,17.6l-4.6,22
			C227.4,814.7,225.3,816.3,223,816.3z" style="fill:#383A48;"/>
	</g>
	<g>
		<g>
			<line x1="1579.9" y1="631.2" x2="1603.2" y2="654.5" style="fill:#383A48;"/>
			
				<rect x="1586.5" y="626.4" transform="matrix(0.7071 -0.7071 0.7071 0.7071 11.5574 1313.6724)" width="10" height="33" style="fill:#383A48;"/>
		</g>
		<g>
			<line x1="1579.9" y1="654.5" x2="1603.2" y2="631.2" style="fill:#383A48;"/>
			
				<rect x="1575.1" y="637.9" transform="matrix(0.7071 -0.7071 0.7071 0.7071 11.5742 1313.7122)" width="33" height="10" style="fill:#383A48;"/>
		</g>
	</g>
	<g>
		<g>
			<line x1="696" y1="389.7" x2="719.3" y2="413" style="fill:#383A48;"/>
			
				<rect x="702.7" y="384.9" transform="matrix(0.7071 -0.7071 0.7071 0.7071 -76.5169 617.9608)" width="10" height="33" style="fill:#383A48;"/>
		</g>
		<g>
			<line x1="696" y1="413" x2="719.3" y2="389.7" style="fill:#383A48;"/>
			
				<rect x="691.2" y="396.3" transform="matrix(0.7071 -0.7071 0.7071 0.7071 -76.5126 617.9764)" width="33" height="10" style="fill:#383A48;"/>
		</g>
	</g>
	<g>
		<g>
			<line x1="1275.7" y1="180.9" x2="1299" y2="204.2" style="fill:#383A48;"/>
			
				<rect x="1282.3" y="176" transform="matrix(0.7071 -0.7071 0.7071 0.7071 240.9331 966.6738)" width="10" height="33" style="fill:#383A48;"/>
		</g>
		<g>
			<line x1="1275.7" y1="204.2" x2="1299" y2="180.9" style="fill:#383A48;"/>
			
				<rect x="1270.9" y="187.5" transform="matrix(0.7071 -0.7071 0.7071 0.7071 240.9444 966.6891)" width="33" height="10" style="fill:#383A48;"/>
		</g>
	</g>
</g>
</svg>
