<?xml version="1.0" encoding="UTF-8"?>
<svg width="1464px" height="807px" viewBox="0 0 1464 807" version="1.1" xmlns="http://www.w3.org/2000/svg" xmlns:xlink="http://www.w3.org/1999/xlink">
    <!-- Generator: Sketch 59.1 (86144) - https://sketch.com -->
    <title>robots</title>
    <desc>Created with Sketch.</desc>
    <g id="Page-1" stroke="none" stroke-width="1" fill="none" fill-rule="evenodd">
        <g id="robots" transform="translate(-218.000000, -134.000000)" fill-rule="nonzero">
            <g id="Group" transform="translate(218.000000, 134.000000)">
                <path d="M1459,13.6 C1456.2,13.6 1454,15.8 1454,18.6 C1454,96 1421.5,169.4 1354.8,243.1 C1296.2,307.7 1219.2,363.9 1151.2,413.4 C1077.4,467.2 1013.7,513.6 983.8,560.8 C942.7,625.8 846.4,635.3 734.8,646.4 C668.8,652.9 594.1,660.3 523.5,680.7 C442.4,704.1 378.4,741.3 327.7,794.4 C326.290467,795.8 325.9,798 326.7,799.8 C327.5,801.6 329.3,802.8 331.3,802.8 L1459,806.1 C1460.3,806.1 1461.6,805.6 1462.5,804.6 C1463.4,803.7 1464,802.4 1464,801.1 L1464,18.6 C1464,15.8 1461.8,13.6 1459,13.6 Z" id="Path"></path>
                <path d="M930.8,16.3 C929.9,14.6 928.2,13.6 926.4,13.6 L12.2,13.6 C9.4,13.6 7.2,15.8 7.2,18.6 L7.2,631.8 C7.2,634.6 9.4,636.8 12.2,636.8 C15,636.8 17.2,634.6 17.2,631.8 C17.2,521.6 82,495.5 157,465.4 C228,436.8 308.6,404.5 342.6,292 C356.7,245.4 380.2,217.9 416.6,205.4 C450.3,193.9 491.4,195.6 538.9,197.6 C596.4,200 661.6,202.8 728.7,181.5 C806.3,156.9 872.2,104.6 930.3,21.5 C931.5,19.9 931.7,17.9 930.8,16.3 Z" id="Path"></path>
                <g id="XMLID_2_" transform="translate(130.000000, 247.000000)">
                    <polygon id="Path" fill="#E0719E" points="674.1 5 585.5 162.8 516.3 285.9 366.5 552.3 302 375.9 84.7 554.2 5.1 456.9 221.5 279.3 69.6 173.8 363.8 91.7 499.8 53.7"></polygon>
                    <path d="M666.8,11.7 L514.7,278.2 C444.6,238.7 393.4,173.9 371.4,94.7 L500.8,58 L666.8,11.7 Z" id="Path" fill="#F6E049"></path>
                    <path d="M666.8,11.7 L585.1,154.8 C547.7,133.7 519.8,98.2 508.1,56 L666.8,11.7 Z" id="Path" fill="#F3F6E6"></path>
                    <path d="M84.7,559.2 C84.5,559.2 84.4,559.2 84.2,559.2 C82.9,559.1 81.7,558.4 80.8,557.4 L1.2,460.1 C-0.5,458 -0.2,454.8 1.9,453.1 L213.3,279.7 L66.8,177.9 C65.2,176.8 64.4,174.9 64.7,173 C65,171.1 66.4,169.5 68.3,169 L498.5,48.9 L672.8,0.2 C674.7,-0.3 676.8,0.3 678.1,1.9 C679.3,3.5 679.5,5.7 678.5,7.4 L370.9,554.7 C369.9,556.4 368.1,557.4 366.1,557.2 C364.2,557 362.5,555.8 361.8,553.9 L299.7,384.1 L87.9,558.1 C87,558.8 85.9,559.2 84.7,559.2 Z M12.1,457.6 L85.4,547.1 L298.9,372 C300.2,371 301.8,370.6 303.4,371 C305,371.4 306.2,372.6 306.8,374.1 L367.6,540.3 L664,13 L365.3,96.4 L81.3,175.7 L224.5,275.1 C225.8,276 226.6,277.4 226.6,279 C226.7,280.6 226,282.1 224.8,283.1 L12.1,457.6 Z" id="Shape" fill="#383A48"></path>
                </g>
                <g transform="translate(764.000000, 118.000000)">
                    <g transform="translate(41.000000, 0.000000)">
                        <rect id="Rectangle" fill="#383A48" x="178" y="284.2" width="149.3" height="196.3"></rect>
                        <g>
                            <path d="M387.4,382.3 L118,382.3 C55.8,382.3 5.3,331.8 5.3,269.6 L5.3,118.2 C5.3,56 55.8,5.5 118,5.5 L387.4,5.5 C449.6,5.5 500.1,56 500.1,118.2 L500.1,269.7 C500.1,331.9 449.6,382.3 387.4,382.3 Z" id="Path" fill="#F3F6E6"></path>
                            <path d="M387.4,387.3 L118,387.3 C53.1,387.3 0.3,334.5 0.3,269.6 L0.3,118.2 C0.3,53.3 53.1,0.5 118,0.5 L387.4,0.5 C452.3,0.5 505.1,53.3 505.1,118.2 L505.1,269.7 C505.1,334.5 452.3,387.3 387.4,387.3 Z M118,10.5 C58.6,10.5 10.3,58.8 10.3,118.2 L10.3,269.7 C10.3,329.1 58.6,377.4 118,377.4 L387.4,377.4 C446.8,377.4 495.1,329.1 495.1,269.7 L495.1,118.2 C495.1,58.8 446.8,10.5 387.4,10.5 L118,10.5 Z" id="Shape" fill="#383A48"></path>
                        </g>
                        <path d="M349.3,88 L156,88 C114.7,88 81.1,121.6 81.1,162.9 L81.1,224.8 C81.1,266.1 114.7,299.7 156,299.7 L349.3,299.7 C390.6,299.7 424.200223,266.1 424.200223,224.8 L424.200223,163 C424.3,121.6 390.7,88 349.3,88 Z" id="Path" fill="#383A48"></path>
                        <g transform="translate(134.000000, 150.000000)" fill="#F6E049" id="Path">
                            <path d="M25,0.4 L24.1,0.4 C11.3,0.4 0.9,10.8 0.9,23.6 L0.9,64.1 C0.9,76.9 11.3,87.3 24.1,87.3 L25,87.3 C37.8,87.3 48.2,76.9 48.2,64.1 L48.2,23.6 C48.3,10.8 37.8,0.4 25,0.4 Z"></path>
                            <path d="M213.3,0.4 L212.4,0.4 C199.6,0.4 189.2,10.8 189.2,23.6 L189.2,64.1 C189.2,76.9 199.6,87.3 212.4,87.3 L213.3,87.3 C226.1,87.3 236.5,76.9 236.5,64.1 L236.5,23.6 C236.5,10.8 226.1,0.4 213.3,0.4 Z"></path>
                        </g>
                        <path d="M252.7,226.1 C235,226.1 220.5,211.7 220.5,193.9 C220.5,191.1 222.7,188.9 225.5,188.9 C228.3,188.9 230.5,191.1 230.5,193.9 C230.5,206.1 240.4,216.1 252.7,216.1 C265,216.1 274.9,206.2 274.9,193.9 C274.9,191.1 277.1,188.9 279.9,188.9 C282.7,188.9 284.9,191.1 284.9,193.9 C284.9,211.6 270.4,226.1 252.7,226.1 Z" id="Path" fill="#F6E049"></path>
                        <g transform="translate(178.000000, 440.000000)">
                            <path d="M74.7,100.4 L74.7,100.4 C36.2,100.4 5.1,69.2 5.1,30.8 L5.1,5.6 L144.4,5.6 L144.4,30.8 C144.3,69.2 113.2,100.4 74.7,100.4 Z" id="Path" fill="#AAC6FC"></path>
                            <path d="M74.7,105.4 C33.5,105.4 0.1,71.9 0.1,30.8 L0.1,5.6 C0.1,2.8 2.3,0.6 5.1,0.6 L144.4,0.6 C147.2,0.6 149.4,2.8 149.4,5.6 L149.4,30.8 C149.3,71.9 115.8,105.4 74.7,105.4 Z M10,10.5 L10,30.7 C10,66.3 39,95.3 74.6,95.3 C110.2,95.3 139.2,66.3 139.2,30.7 L139.2,10.5 L10,10.5 Z" id="Shape" fill="#383A48"></path>
                        </g>
                    </g>
                    <g transform="translate(437.000000, 446.000000)">
                        <path d="M75.4,5 L5.5,5 L5.5,144.8 L75.4,144.8 C114,144.8 145.3,113.5 145.3,74.9 L145.3,74.9 C145.3,36.3 114,5 75.4,5 Z" id="Path" fill="#AAC6FC"></path>
                        <path d="M75.4,149.8 L5.5,149.8 C2.7,149.8 0.5,147.6 0.5,144.8 L0.5,5 C0.5,2.2 2.7,0 5.5,0 L75.4,0 C116.7,0 150.3,33.6 150.3,74.9 C150.3,116.2 116.7,149.8 75.4,149.8 Z M10.4,139.8 L75.3,139.8 C111.1,139.8 140.2,110.7 140.2,74.9 C140.2,39.1 111.1,10 75.3,10 L10.4,10 L10.4,139.8 Z" id="Shape" fill="#383A48"></path>
                    </g>
                    <g transform="translate(0.000000, 446.000000)">
                        <path d="M75,5 L144.9,5 L144.9,144.8 L75,144.8 C36.4,144.8 5.1,113.5 5.1,74.9 L5.1,74.9 C5.1,36.3 36.4,5 75,5 Z" id="Path" fill="#AAC6FC"></path>
                        <path d="M144.9,149.8 L75,149.8 C33.7,149.8 0.1,116.2 0.1,74.9 C0.1,33.6 33.7,0 75,0 L144.9,0 C147.7,0 149.9,2.2 149.9,5 L149.9,144.8 C149.9,147.6 147.7,149.8 144.9,149.8 Z M75,10 C39.2,10 10.1,39.1 10.1,74.9 C10.1,110.7 39.2,139.8 75,139.8 L139.9,139.8 L139.9,10 L75,10 Z" id="Shape" fill="#383A48"></path>
                    </g>
                    <g transform="translate(60.000000, 446.000000)">
                        <path d="M386.4,237.2 L81,237.2 C39.4,237.2 5.7,203.5 5.7,161.9 L5.7,87.2 C5.7,41.8 42.5,5 87.9,5 L379.7,5 C425.1,5 461.9,41.8 461.9,87.2 L461.9,161.9 C461.7,203.5 428,237.2 386.4,237.2 Z" id="Path" fill="#F6E049"></path>
                        <path d="M386.4,242.2 L81,242.2 C36.7,242.2 0.7,206.2 0.7,161.9 L0.7,87.2 C0.7,39.1 39.8,0 87.9,0 L379.7,0 C427.8,0 466.9,39.1 466.9,87.2 L466.9,161.9 C466.7,206.2 430.7,242.2 386.4,242.2 Z M87.8,10 C45.2,10 10.6,44.6 10.6,87.2 L10.6,161.9 C10.6,200.7 42.1,232.2 80.9,232.2 L386.3,232.2 C425.1,232.2 456.6,200.7 456.6,161.9 L456.6,87.2 C456.6,44.6 422,10 379.4,10 L87.8,10 Z" id="Shape" fill="#383A48"></path>
                    </g>
                    <g transform="translate(183.000000, 568.000000)">
                        <path d="M215.8,115.2 L5.5,115.2 L5.5,52.1 C5.5,26.3 26.4,5.3 52.3,5.3 L169,5.3 C194.8,5.3 215.8,26.2 215.8,52.1 L215.8,115.2 Z" id="Path" fill="#F3F6E6"></path>
                        <path d="M220.8,120.2 L0.5,120.2 L0.5,52.1 C0.5,23.5 23.7,0.3 52.3,0.3 L169,0.3 C197.6,0.3 220.8,23.5 220.8,52.1 L220.8,120.2 Z M10.6,110.2 L210.9,110.2 L210.9,52.1 C210.9,29.1 192.2,10.3 169.1,10.3 L52.4,10.3 C29.4,10.3 10.6,29 10.6,52.1 L10.6,110.2 Z" id="Shape" fill="#383A48"></path>
                    </g>
                </g>
                <path d="M1459,806.2 L63.2,806.2 C60.4,806.2 58.2,804 58.2,801.2 C58.2,798.4 60.4,796.2 63.2,796.2 L1459,796.2 C1461.8,796.2 1464,798.4 1464,801.2 C1464,804 1461.8,806.2 1459,806.2 Z" id="Path" fill="#383A48"></path>
                <path d="M753,135 C751.4,135 749.9,134.3 748.9,132.9 L728.9,104.8 C727.3,102.6 727.8,99.4 730.1,97.8 C732.3,96.2 735.5,96.7 737.1,99 L757.1,127.1 C758.7,129.3 758.2,132.5 755.9,134.1 C755,134.7 754,135 753,135 Z" id="Path" fill="#383A48"></path>
                <path d="M807,119.3 C804.5,119.3 802.4,117.4 802,114.9 L797.7,80.6 C797.4,77.9 799.3,75.4 802,75 C804.7,74.7 807.2,76.6 807.6,79.3 L811.9,113.6 C812.2,116.3 810.3,118.8 807.6,119.2 C807.4,119.3 807.2,119.3 807,119.3 Z" id="Path" fill="#383A48"></path>
                <path d="M711.7,172.1 C711.1,172.1 710.6,172 710,171.8 L677.6,160 C675,159.1 673.7,156.2 674.6,153.6 C675.5,151 678.4,149.7 681,150.6 L713.5,162.3 C716.1,163.2 717.4,166.1 716.5,168.7 C715.7,170.8 713.8,172.1 711.7,172.1 Z" id="Path" fill="#383A48"></path>
                <g transform="translate(18.000000, 32.000000)" fill="#AAC6FC">
                    <g transform="translate(3.000000, 0.000000)">
                        <path d="M0.9,63.9 L11.9,12.3 L26.2,0.6 L60.4,0.6 L69.6,12.3 L58.6,63.9 L44.4,75.6 L10.1,75.6 L0.9,63.9 Z M18.7,58.6 L21.4,62 L37.9,62 L43.2,57.6 L49.1,30 L18.7,58.6 Z M51.7,17.6 L49.1,14.2 L32.6,14.2 L27.2,18.6 L21.4,46.1 L51.7,17.6 Z" id="Shape"></path>
                        <polygon id="Path" points="70.2 75.1 73.1 61.5 83.6 61.5 93.5 14.8 82.8 14.8 85.7 1.2 113.1 1.2 100.3 61.5 111 61.5 108.1 75.1"></polygon>
                        <polygon id="Path" points="117.8 75.1 120.7 61.5 131.2 61.5 141.1 14.8 130.4 14.8 133.3 1.2 160.7 1.2 147.9 61.5 158.4 61.5 155.5 75.1"></polygon>
                        <polygon id="Path" points="165.3 75.1 168.2 61.5 178.7 61.5 188.6 14.8 177.9 14.8 180.8 1.2 208.2 1.2 195.4 61.5 206 61.5 203.1 75.1"></polygon>
                        <path d="M216.1,63.9 L227.1,12.3 L241.4,0.6 L275.6,0.6 L284.8,12.3 L273.8,63.9 L259.6,75.6 L225.3,75.6 L216.1,63.9 Z M234,58.6 L236.7,62 L253.2,62 L258.5,57.6 L264.4,30 L234,58.6 Z M267,17.6 L264.4,14.2 L247.9,14.2 L242.5,18.6 L236.7,46.1 L267,17.6 Z" id="Shape"></path>
                        <path d="M288.7,63.9 L299.7,12.3 L314,0.6 L348.2,0.6 L357.4,12.3 L346.4,63.9 L332.2,75.6 L298,75.6 L288.7,63.9 Z M306.6,58.6 L309.3,62 L325.8,62 L331.1,57.6 L337,30 L306.6,58.6 Z M339.6,17.6 L337,14.2 L320.5,14.2 L315.1,18.6 L309.3,46.1 L339.6,17.6 Z" id="Shape"></path>
                        <polygon id="Path" points="358.1 75.1 361 61.5 371.5 61.5 381.4 14.8 370.7 14.8 373.6 1.2 401 1.2 388.2 61.5 398.7 61.5 395.8 75.1"></polygon>
                        <polygon id="Path" points="405.6 75.1 408.5 61.5 419 61.5 428.9 14.8 418.2 14.8 421.1 1.2 448.5 1.2 435.7 61.5 446.2 61.5 443.3 75.1"></polygon>
                        <path d="M456.4,63.9 L467.4,12.3 L481.7,0.6 L515.9,0.6 L525.1,12.3 L514.1,63.9 L500,75.6 L465.7,75.6 L456.4,63.9 Z M474.3,58.6 L477,62 L493.5,62 L498.8,57.6 L504.7,30 L474.3,58.6 Z M507.3,17.6 L504.7,14.2 L488.2,14.2 L482.8,18.6 L477,46.1 L507.3,17.6 Z" id="Shape"></path>
                    </g>
                    <g transform="translate(0.000000, 100.000000)">
                        <polygon id="Path" points="0.6 74.6 3.5 61 14 61 23.9 14.3 13.2 14.3 16.1 0.7 43.5 0.7 30.7 61 41.2 61 38.3 74.6"></polygon>
                        <path d="M51.4,63.4 L62.4,11.8 L76.7,0.1 L110.9,0.1 L120.1,11.8 L109.1,63.4 L94.9,75.1 L60.6,75.1 L51.4,63.4 Z M69.3,58.1 L72,61.5 L88.5,61.5 L93.8,57.1 L99.7,29.5 L69.3,58.1 Z M102.3,17.1 L99.7,13.7 L83.2,13.7 L77.8,18.1 L72,45.6 L102.3,17.1 Z" id="Shape"></path>
                        <polygon id="Path" points="120.8 74.6 123.7 61 134.2 61 144.1 14.3 133.4 14.3 136.3 0.7 163.7 0.7 150.9 61 161.4 61 158.5 74.6"></polygon>
                        <path d="M171.6,63.4 L182.6,11.8 L196.9,0.1 L231.1,0.1 L240.3,11.8 L229.3,63.4 L215.1,75.1 L180.8,75.1 L171.6,63.4 Z M189.4,58.1 L192.1,61.5 L208.6,61.5 L213.9,57.1 L219.8,29.5 L189.4,58.1 Z M222.4,17.1 L219.8,13.7 L203.3,13.7 L197.9,18.1 L192.1,45.6 L222.4,17.1 Z" id="Shape"></path>
                        <path d="M244.2,63.4 L255.2,11.8 L269.5,0.1 L303.7,0.1 L312.9,11.8 L301.9,63.4 L287.7,75.1 L253.4,75.1 L244.2,63.4 Z M262.1,58.1 L264.8,61.5 L281.3,61.5 L286.6,57.1 L292.5,29.5 L262.1,58.1 Z M295.1,17.1 L292.5,13.7 L276,13.7 L270.6,18.1 L264.8,45.6 L295.1,17.1 Z" id="Shape"></path>
                    </g>
                    <g transform="translate(3.000000, 205.000000)">
                        <path d="M0.9,64.2 L11.9,12.6 L26.2,0.9 L60.4,0.9 L69.6,12.6 L58.6,64.2 L44.4,75.9 L10.1,75.9 L0.9,64.2 Z M18.7,58.9 L21.4,62.3 L37.9,62.3 L43.2,57.9 L49.1,30.3 L18.7,58.9 Z M51.7,17.9 L49.1,14.5 L32.6,14.5 L27.2,18.9 L21.4,46.4 L51.7,17.9 Z" id="Shape"></path>
                        <polygon id="Path" points="70.2 75.3 73.1 61.7 83.6 61.7 93.5 15 82.8 15 85.7 1.4 113.1 1.4 100.3 61.7 111 61.7 108.1 75.3"></polygon>
                        <polygon id="Path" points="117.8 75.3 120.7 61.7 131.2 61.7 141 15 130.3 15 133.2 1.4 160.6 1.4 147.8 61.7 158.3 61.7 155.4 75.3"></polygon>
                    </g>
                </g>
                <g transform="translate(1254.000000, 0.000000)">
                    <g transform="translate(94.000000, 106.000000)">
                        <circle id="Oval" fill="#F6E049" cx="58.3" cy="57.9" r="52.7"></circle>
                        <path d="M58.3,115.6 C26.5,115.6 0.6,89.7 0.6,57.9 C0.6,26.1 26.5,0.2 58.3,0.2 C90.1,0.2 116,26.1 116,57.9 C116,89.8 90.1,115.6 58.3,115.6 Z M58.3,10.2 C32,10.2 10.6,31.6 10.6,57.9 C10.6,84.2 32,105.6 58.3,105.6 C84.6,105.6 106,84.2 106,57.9 C106,31.6 84.6,10.2 58.3,10.2 Z" id="Shape" fill="#383A48"></path>
                    </g>
                    <g transform="translate(47.000000, 53.000000)">
                        <circle id="Oval" fill="#E0719E" cx="58.3" cy="58.2" r="52.7"></circle>
                        <path d="M58.3,115.9 C26.5,115.9 0.6,90 0.6,58.2 C0.6,26.4 26.5,0.5 58.3,0.5 C90.1,0.5 116,26.4 116,58.2 C116,90 90.1,115.9 58.3,115.9 Z M58.3,10.5 C32,10.5 10.6,31.9 10.6,58.2 C10.6,84.5 32,105.9 58.3,105.9 C84.6,105.9 106,84.5 106,58.2 C106,31.9 84.6,10.5 58.3,10.5 Z" id="Shape" fill="#383A48"></path>
                    </g>
                    <g>
                        <circle id="Oval" fill="#AAC6FC" cx="58.3" cy="58.5" r="52.7"></circle>
                        <path d="M58.3,116.2 C26.5,116.2 0.6,90.3 0.6,58.5 C0.6,26.7 26.5,0.8 58.3,0.8 C90.1,0.8 116,26.7 116,58.5 C116,90.3 90.1,116.2 58.3,116.2 Z M58.3,10.8 C32,10.8 10.6,32.2 10.6,58.5 C10.6,84.8 32,106.2 58.3,106.2 C84.6,106.2 106,84.8 106,58.5 C106,32.2 84.6,10.8 58.3,10.8 Z" id="Shape" fill="#383A48"></path>
                    </g>
                </g>
                <path d="M1460.9,680.5 C1459,679.7 1456.9,680.2 1455.5,681.6 L1339.4,797.7 C1338,799.1 1337.5,801.3 1338.3,803.1 C1339.1,805 1340.9,806.2 1342.9,806.2 L1459,806.2 C1461.8,806.2 1464,804 1464,801.2 L1464,685.1 C1464,683.1 1462.8,681.2 1460.9,680.5 Z" id="Path" fill="#383A48"></path>
                <path d="M5,682.3 C4.7,682.3 4.3,682.3 4,682.2 C1.3,681.6 -0.4,679 0.1,676.3 L4.7,654.3 C8.4,636.6 25.7,625.2 43.4,628.9 L63.4,633.1 C69.3,634.3 75.4,633.2 80.5,629.8 C85.6,626.5 89,621.4 90.3,615.4 L94.5,595.4 C98.2,577.7 115.5,566.3 133.2,570 L153.2,574.2 C165.5,576.7 177.5,568.8 180.1,556.6 L184.3,536.6 C186.1,528 191.1,520.7 198.4,515.9 C205.7,511.1 214.4,509.4 223,511.2 L243.1,515.4 C245.8,516 247.5,518.6 247,521.3 C246.4,524 243.8,525.7 241.1,525.2 L221,521 C215.1,519.8 209,520.9 203.9,524.3 C198.8,527.6 195.4,532.7 194.1,538.7 L189.9,558.7 C186.2,576.4 168.9,587.8 151.2,584.1 L131.2,579.9 C118.9,577.4 106.9,585.3 104.3,597.5 L100.1,617.5 C98.3,626.1 93.3,633.4 86,638.2 C78.7,643 70,644.7 61.4,642.9 L41.4,638.7 C29.1,636.2 17.1,644.1 14.5,656.3 L9.9,678.3 C9.4,680.7 7.3,682.3 5,682.3 Z" id="Path" fill="#383A48"></path>
                <g transform="translate(1358.000000, 493.000000)" fill="#383A48">
                    <g>
                        <line x1="3.9" y1="4.2" x2="27.2" y2="27.5" id="Path"></line>
                        <rect id="Rectangle" transform="translate(15.501640, 15.917340) rotate(-45.000000) translate(-15.501640, -15.917340) " x="10.501688" y="-0.582501764" width="9.9999041" height="32.9996835"></rect>
                    </g>
                    <g>
                        <line x1="3.9" y1="27.5" x2="27.2" y2="4.2" id="Path"></line>
                        <rect id="Rectangle" transform="translate(15.589150, 15.886430) rotate(-45.000000) translate(-15.589150, -15.886430) " x="-0.910691764" y="10.886478" width="32.9996835" height="9.9999041"></rect>
                    </g>
                </g>
                <g transform="translate(474.000000, 252.000000)" fill="#383A48">
                    <g>
                        <line x1="4" y1="3.7" x2="27.3" y2="27" id="Path"></line>
                        <rect id="Rectangle" transform="translate(15.727710, 15.376070) rotate(-45.000000) translate(-15.727710, -15.376070) " x="10.727758" y="-1.12377176" width="9.9999041" height="32.9996835"></rect>
                    </g>
                    <g>
                        <line x1="4" y1="27" x2="27.3" y2="3.7" id="Path"></line>
                        <rect id="Rectangle" transform="translate(15.661300, 15.320960) rotate(-45.000000) translate(-15.661300, -15.320960) " x="-0.838541764" y="10.321008" width="32.9996835" height="9.9999041"></rect>
                    </g>
                </g>
                <g transform="translate(1054.000000, 43.000000)" fill="#383A48">
                    <g>
                        <line x1="3.7" y1="3.9" x2="27" y2="27.2" id="Path"></line>
                        <rect id="Rectangle" transform="translate(15.299680, 15.540720) rotate(-45.000000) translate(-15.299680, -15.540720) " x="10.299728" y="-0.959121764" width="9.9999041" height="32.9996835"></rect>
                    </g>
                    <g>
                        <line x1="3.7" y1="27.2" x2="27" y2="3.9" id="Path"></line>
                        <rect id="Rectangle" transform="translate(15.381690, 15.485310) rotate(-45.000000) translate(-15.381690, -15.485310) " x="-1.11815176" y="10.485358" width="32.9996835" height="9.9999041"></rect>
                    </g>
                </g>
            </g>
        </g>
    </g>
</svg>