<?xml version="1.0" encoding="utf-8"?>
<!-- Generator: Adobe Illustrator 22.0.1, SVG Export Plug-In . SVG Version: 6.00 Build 0)  -->
<svg version="1.1" id="Layer_1" xmlns="http://www.w3.org/2000/svg" xmlns:xlink="http://www.w3.org/1999/xlink" x="0px" y="0px" viewBox="0 0 1920 1080" style="enable-background:new 0 0 1920 1080;" xml:space="preserve">

<rect y="0" width="1920" height="1080" style="fill:#EEBED3;"/>
<g>
	<path d="M1208.4,181.8c-0.7-2-2.6-3.4-4.7-3.4H679.3c-2.8,0-5,2.2-5,5c0,50.7,52.2,76.1,98.2,98.6
		c19.9,9.7,38.7,18.8,52.9,29.4c50.7,37.7,56.4,112.8,56.5,113.6c0.1,1.8,1.2,3.5,2.9,4.2c0.7,0.3,1.4,0.4,2.1,0.4
		c1.1,0,2.1-0.3,3-1l316.7-241.2C1208.4,186.1,1209.1,183.9,1208.4,181.8z" style="fill:#F3F6E6;"/>
	<path d="M853.1,920.6h-38c-12.7-1-27.8-3.2-43.7-7.5c-25.4-6.9-48-17.8-67.1-32.5c-23.8-18.3-42.4-42.6-55.1-72.1
		c-40.2-93.3-91.4-121.8-141-149.3c-46.3-25.8-90.1-50.1-119.1-129c-26.3-71.8-63.8-102.3-96.9-129.2c-21.4-17.4-41.5-33.8-56-59.3
		c-16.2-28.6-23.8-65.8-23.8-117c0-2.8-2.2-5-5-5s-5,2.2-5,5v701.1c0,2.8,2.2,5,5,5H814c7.8,0.6,14.8,0.9,20.6,0.9
		c11.3,0,18.4-0.8,19-0.9c2.6-0.3,4.6-2.6,4.4-5.3C857.9,922.7,855.8,920.6,853.1,920.6z" style="fill:#F3F6E6;"/>
	<g>
		<g>
			<g>
				<circle cx="837.3" cy="622.1" r="5" style="fill:#383A48;"/>
			</g>
		</g>
		<g>
			<g>
				<circle cx="837.3" cy="646.8" r="5" style="fill:#383A48;"/>
			</g>
		</g>
		<g>
			<g>
				<circle cx="837.3" cy="671.5" r="5" style="fill:#383A48;"/>
			</g>
		</g>
		<g>
			<g>
				<circle cx="837.3" cy="696.1" r="5" style="fill:#383A48;"/>
			</g>
		</g>
		<g>
			<g>
				<circle cx="837.3" cy="720.8" r="5" style="fill:#383A48;"/>
			</g>
		</g>
		<g>
			<g>
				<circle cx="837.3" cy="745.5" r="5" style="fill:#383A48;"/>
			</g>
		</g>
		<g>
			<g>
				<circle cx="837.3" cy="770.1" r="5" style="fill:#383A48;"/>
			</g>
		</g>
		<g>
			<g>
				<circle cx="837.3" cy="794.8" r="5" style="fill:#383A48;"/>
			</g>
		</g>
		<g>
			<g>
				<circle cx="837.3" cy="819.5" r="5" style="fill:#383A48;"/>
			</g>
		</g>
		<g>
			<g>
				<circle cx="837.3" cy="844.1" r="5" style="fill:#383A48;"/>
			</g>
		</g>
		<g>
			<g>
				<circle cx="837.3" cy="868.8" r="5" style="fill:#383A48;"/>
			</g>
		</g>
		<g>
			<g>
				<circle cx="837.3" cy="893.5" r="5" style="fill:#383A48;"/>
			</g>
		</g>
		<g>
			<g>
				<circle cx="837.3" cy="918.1" r="5" style="fill:#383A48;"/>
			</g>
		</g>
		<g>
			<g>
				<circle cx="812.6" cy="622.1" r="5" style="fill:#383A48;"/>
			</g>
		</g>
		<g>
			<g>
				<circle cx="812.6" cy="646.8" r="5" style="fill:#383A48;"/>
			</g>
		</g>
		<g>
			<g>
				<circle cx="812.6" cy="671.5" r="5" style="fill:#383A48;"/>
			</g>
		</g>
		<g>
			<g>
				<circle cx="812.6" cy="696.1" r="5" style="fill:#383A48;"/>
			</g>
		</g>
		<g>
			<g>
				<circle cx="812.6" cy="720.8" r="5" style="fill:#383A48;"/>
			</g>
		</g>
		<g>
			<g>
				<circle cx="812.6" cy="745.5" r="5" style="fill:#383A48;"/>
			</g>
		</g>
		<g>
			<g>
				<circle cx="812.6" cy="770.1" r="5" style="fill:#383A48;"/>
			</g>
		</g>
		<g>
			<g>
				<circle cx="812.6" cy="794.8" r="5" style="fill:#383A48;"/>
			</g>
		</g>
		<g>
			<g>
				<circle cx="812.6" cy="819.5" r="5" style="fill:#383A48;"/>
			</g>
		</g>
		<g>
			<g>
				<circle cx="812.6" cy="844.1" r="5" style="fill:#383A48;"/>
			</g>
		</g>
		<g>
			<g>
				<circle cx="812.6" cy="868.8" r="5" style="fill:#383A48;"/>
			</g>
		</g>
		<g>
			<g>
				<circle cx="812.6" cy="893.5" r="5" style="fill:#383A48;"/>
			</g>
		</g>
		<g>
			<g>
				<circle cx="812.6" cy="918.1" r="5" style="fill:#383A48;"/>
			</g>
		</g>
		<g>
			<g>
				<circle cx="788" cy="622.1" r="5" style="fill:#383A48;"/>
			</g>
		</g>
		<g>
			<g>
				<circle cx="788" cy="646.8" r="5" style="fill:#383A48;"/>
			</g>
		</g>
		<g>
			<g>
				<circle cx="788" cy="671.5" r="5" style="fill:#383A48;"/>
			</g>
		</g>
		<g>
			<g>
				<circle cx="788" cy="696.1" r="5" style="fill:#383A48;"/>
			</g>
		</g>
		<g>
			<g>
				<circle cx="788" cy="720.8" r="5" style="fill:#383A48;"/>
			</g>
		</g>
		<g>
			<g>
				<circle cx="788" cy="745.5" r="5" style="fill:#383A48;"/>
			</g>
		</g>
		<g>
			<g>
				<circle cx="788" cy="770.1" r="5" style="fill:#383A48;"/>
			</g>
		</g>
		<g>
			<g>
				<circle cx="788" cy="794.8" r="5" style="fill:#383A48;"/>
			</g>
		</g>
		<g>
			<g>
				<circle cx="788" cy="819.5" r="5" style="fill:#383A48;"/>
			</g>
		</g>
		<g>
			<g>
				<circle cx="788" cy="844.1" r="5" style="fill:#383A48;"/>
			</g>
		</g>
		<g>
			<g>
				<circle cx="788" cy="868.8" r="5" style="fill:#383A48;"/>
			</g>
		</g>
		<g>
			<g>
				<circle cx="788" cy="893.5" r="5" style="fill:#383A48;"/>
			</g>
		</g>
		<g>
			<g>
				<circle cx="788" cy="918.1" r="5" style="fill:#383A48;"/>
			</g>
		</g>
		<g>
			<g>
				<circle cx="763.3" cy="622.1" r="5" style="fill:#383A48;"/>
			</g>
		</g>
		<g>
			<g>
				<circle cx="763.3" cy="646.8" r="5" style="fill:#383A48;"/>
			</g>
		</g>
		<g>
			<g>
				<circle cx="763.3" cy="671.5" r="5" style="fill:#383A48;"/>
			</g>
		</g>
		<g>
			<g>
				<circle cx="763.3" cy="696.1" r="5" style="fill:#383A48;"/>
			</g>
		</g>
		<g>
			<g>
				<circle cx="763.3" cy="720.8" r="5" style="fill:#383A48;"/>
			</g>
		</g>
		<g>
			<g>
				<circle cx="763.3" cy="745.5" r="5" style="fill:#383A48;"/>
			</g>
		</g>
		<g>
			<g>
				<circle cx="763.3" cy="770.1" r="5" style="fill:#383A48;"/>
			</g>
		</g>
		<g>
			<g>
				<circle cx="763.3" cy="794.8" r="5" style="fill:#383A48;"/>
			</g>
		</g>
		<g>
			<g>
				<circle cx="763.3" cy="819.5" r="5" style="fill:#383A48;"/>
			</g>
		</g>
		<g>
			<g>
				<circle cx="763.3" cy="844.1" r="5" style="fill:#383A48;"/>
			</g>
		</g>
		<g>
			<g>
				<circle cx="763.3" cy="868.8" r="5" style="fill:#383A48;"/>
			</g>
		</g>
		<g>
			<g>
				<circle cx="763.3" cy="893.5" r="5" style="fill:#383A48;"/>
			</g>
		</g>
		<g>
			<g>
				<circle cx="763.3" cy="918.1" r="5" style="fill:#383A48;"/>
			</g>
		</g>
		<g>
			<g>
				<circle cx="738.6" cy="622.1" r="5" style="fill:#383A48;"/>
			</g>
		</g>
		<g>
			<g>
				<circle cx="738.6" cy="646.8" r="5" style="fill:#383A48;"/>
			</g>
		</g>
		<g>
			<g>
				<circle cx="738.6" cy="671.5" r="5" style="fill:#383A48;"/>
			</g>
		</g>
		<g>
			<g>
				<circle cx="738.6" cy="696.1" r="5" style="fill:#383A48;"/>
			</g>
		</g>
		<g>
			<g>
				<circle cx="738.6" cy="720.8" r="5" style="fill:#383A48;"/>
			</g>
		</g>
		<g>
			<g>
				<circle cx="738.6" cy="745.5" r="5" style="fill:#383A48;"/>
			</g>
		</g>
		<g>
			<g>
				<circle cx="738.6" cy="770.1" r="5" style="fill:#383A48;"/>
			</g>
		</g>
		<g>
			<g>
				<circle cx="738.6" cy="794.8" r="5" style="fill:#383A48;"/>
			</g>
		</g>
		<g>
			<g>
				<circle cx="738.6" cy="819.5" r="5" style="fill:#383A48;"/>
			</g>
		</g>
		<g>
			<g>
				<circle cx="738.6" cy="844.1" r="5" style="fill:#383A48;"/>
			</g>
		</g>
		<g>
			<g>
				<circle cx="738.6" cy="868.8" r="5" style="fill:#383A48;"/>
			</g>
		</g>
		<g>
			<g>
				<circle cx="738.6" cy="893.5" r="5" style="fill:#383A48;"/>
			</g>
		</g>
		<g>
			<g>
				<circle cx="738.6" cy="918.1" r="5" style="fill:#383A48;"/>
			</g>
		</g>
		<g>
			<g>
				<circle cx="714" cy="622.1" r="5" style="fill:#383A48;"/>
			</g>
		</g>
		<g>
			<g>
				<circle cx="714" cy="646.8" r="5" style="fill:#383A48;"/>
			</g>
		</g>
		<g>
			<g>
				<circle cx="714" cy="671.5" r="5" style="fill:#383A48;"/>
			</g>
		</g>
		<g>
			<g>
				<circle cx="714" cy="696.1" r="5" style="fill:#383A48;"/>
			</g>
		</g>
		<g>
			<g>
				<circle cx="714" cy="720.8" r="5" style="fill:#383A48;"/>
			</g>
		</g>
		<g>
			<g>
				<circle cx="714" cy="745.5" r="5" style="fill:#383A48;"/>
			</g>
		</g>
		<g>
			<g>
				<circle cx="714" cy="770.1" r="5" style="fill:#383A48;"/>
			</g>
		</g>
		<g>
			<g>
				<circle cx="714" cy="794.8" r="5" style="fill:#383A48;"/>
			</g>
		</g>
		<g>
			<g>
				<circle cx="714" cy="819.5" r="5" style="fill:#383A48;"/>
			</g>
		</g>
		<g>
			<g>
				<circle cx="714" cy="844.1" r="5" style="fill:#383A48;"/>
			</g>
		</g>
		<g>
			<g>
				<circle cx="714" cy="868.8" r="5" style="fill:#383A48;"/>
			</g>
		</g>
		<g>
			<g>
				<circle cx="714" cy="893.5" r="5" style="fill:#383A48;"/>
			</g>
		</g>
		<g>
			<g>
				<circle cx="714" cy="918.1" r="5" style="fill:#383A48;"/>
			</g>
		</g>
		<g>
			<g>
				<circle cx="689.3" cy="622.1" r="5" style="fill:#383A48;"/>
			</g>
		</g>
		<g>
			<g>
				<circle cx="689.3" cy="646.8" r="5" style="fill:#383A48;"/>
			</g>
		</g>
		<g>
			<g>
				<circle cx="689.3" cy="671.5" r="5" style="fill:#383A48;"/>
			</g>
		</g>
		<g>
			<g>
				<circle cx="689.3" cy="696.1" r="5" style="fill:#383A48;"/>
			</g>
		</g>
		<g>
			<g>
				<circle cx="689.3" cy="720.8" r="5" style="fill:#383A48;"/>
			</g>
		</g>
		<g>
			<g>
				<circle cx="689.3" cy="745.5" r="5" style="fill:#383A48;"/>
			</g>
		</g>
		<g>
			<g>
				<circle cx="689.3" cy="770.1" r="5" style="fill:#383A48;"/>
			</g>
		</g>
		<g>
			<g>
				<circle cx="689.3" cy="794.8" r="5" style="fill:#383A48;"/>
			</g>
		</g>
		<g>
			<g>
				<circle cx="689.3" cy="819.5" r="5" style="fill:#383A48;"/>
			</g>
		</g>
		<g>
			<g>
				<circle cx="689.3" cy="844.1" r="5" style="fill:#383A48;"/>
			</g>
		</g>
		<g>
			<g>
				<circle cx="689.3" cy="868.8" r="5" style="fill:#383A48;"/>
			</g>
		</g>
		<g>
			<g>
				<circle cx="689.3" cy="893.5" r="5" style="fill:#383A48;"/>
			</g>
		</g>
		<g>
			<g>
				<circle cx="689.3" cy="918.1" r="5" style="fill:#383A48;"/>
			</g>
		</g>
		<g>
			<g>
				<circle cx="664.6" cy="622.1" r="5" style="fill:#383A48;"/>
			</g>
		</g>
		<g>
			<g>
				<circle cx="664.6" cy="646.8" r="5" style="fill:#383A48;"/>
			</g>
		</g>
		<g>
			<g>
				<circle cx="664.6" cy="671.5" r="5" style="fill:#383A48;"/>
			</g>
		</g>
		<g>
			<g>
				<circle cx="664.6" cy="696.1" r="5" style="fill:#383A48;"/>
			</g>
		</g>
		<g>
			<g>
				<circle cx="664.6" cy="720.8" r="5" style="fill:#383A48;"/>
			</g>
		</g>
		<g>
			<g>
				<circle cx="664.6" cy="745.5" r="5" style="fill:#383A48;"/>
			</g>
		</g>
		<g>
			<g>
				<circle cx="664.6" cy="770.1" r="5" style="fill:#383A48;"/>
			</g>
		</g>
		<g>
			<g>
				<circle cx="664.6" cy="794.8" r="5" style="fill:#383A48;"/>
			</g>
		</g>
		<g>
			<g>
				<circle cx="664.6" cy="819.5" r="5" style="fill:#383A48;"/>
			</g>
		</g>
		<g>
			<g>
				<circle cx="664.6" cy="844.1" r="5" style="fill:#383A48;"/>
			</g>
		</g>
		<g>
			<g>
				<circle cx="664.6" cy="868.8" r="5" style="fill:#383A48;"/>
			</g>
		</g>
		<g>
			<g>
				<circle cx="664.6" cy="893.5" r="5" style="fill:#383A48;"/>
			</g>
		</g>
		<g>
			<g>
				<circle cx="664.6" cy="918.1" r="5" style="fill:#383A48;"/>
			</g>
		</g>
		<g>
			<g>
				<circle cx="640" cy="622.1" r="5" style="fill:#383A48;"/>
			</g>
		</g>
		<g>
			<g>
				<circle cx="640" cy="646.8" r="5" style="fill:#383A48;"/>
			</g>
		</g>
		<g>
			<g>
				<circle cx="640" cy="671.5" r="5" style="fill:#383A48;"/>
			</g>
		</g>
		<g>
			<g>
				<circle cx="640" cy="696.1" r="5" style="fill:#383A48;"/>
			</g>
		</g>
		<g>
			<g>
				<circle cx="640" cy="720.8" r="5" style="fill:#383A48;"/>
			</g>
		</g>
		<g>
			<g>
				<circle cx="640" cy="745.5" r="5" style="fill:#383A48;"/>
			</g>
		</g>
		<g>
			<g>
				<circle cx="640" cy="770.1" r="5" style="fill:#383A48;"/>
			</g>
		</g>
		<g>
			<g>
				<circle cx="640" cy="794.8" r="5" style="fill:#383A48;"/>
			</g>
		</g>
		<g>
			<g>
				<circle cx="640" cy="819.5" r="5" style="fill:#383A48;"/>
			</g>
		</g>
		<g>
			<g>
				<circle cx="640" cy="844.1" r="5" style="fill:#383A48;"/>
			</g>
		</g>
		<g>
			<g>
				<circle cx="640" cy="868.8" r="5" style="fill:#383A48;"/>
			</g>
		</g>
		<g>
			<g>
				<circle cx="640" cy="893.5" r="5" style="fill:#383A48;"/>
			</g>
		</g>
		<g>
			<g>
				<circle cx="640" cy="918.1" r="5" style="fill:#383A48;"/>
			</g>
		</g>
		<g>
			<g>
				<circle cx="615.3" cy="622.1" r="5" style="fill:#383A48;"/>
			</g>
		</g>
		<g>
			<g>
				<circle cx="615.3" cy="646.8" r="5" style="fill:#383A48;"/>
			</g>
		</g>
		<g>
			<g>
				<circle cx="615.3" cy="671.5" r="5" style="fill:#383A48;"/>
			</g>
		</g>
		<g>
			<g>
				<circle cx="615.3" cy="696.1" r="5" style="fill:#383A48;"/>
			</g>
		</g>
		<g>
			<g>
				<circle cx="615.3" cy="720.8" r="5" style="fill:#383A48;"/>
			</g>
		</g>
		<g>
			<g>
				<circle cx="615.3" cy="745.5" r="5" style="fill:#383A48;"/>
			</g>
		</g>
		<g>
			<g>
				<circle cx="615.3" cy="770.1" r="5" style="fill:#383A48;"/>
			</g>
		</g>
		<g>
			<g>
				<circle cx="615.3" cy="794.8" r="5" style="fill:#383A48;"/>
			</g>
		</g>
		<g>
			<g>
				<circle cx="615.3" cy="819.5" r="5" style="fill:#383A48;"/>
			</g>
		</g>
		<g>
			<g>
				<circle cx="615.3" cy="844.1" r="5" style="fill:#383A48;"/>
			</g>
		</g>
		<g>
			<g>
				<circle cx="615.3" cy="868.8" r="5" style="fill:#383A48;"/>
			</g>
		</g>
		<g>
			<g>
				<circle cx="615.3" cy="893.5" r="5" style="fill:#383A48;"/>
			</g>
		</g>
		<g>
			<g>
				<circle cx="615.3" cy="918.1" r="5" style="fill:#383A48;"/>
			</g>
		</g>
		<g>
			<g>
				<circle cx="590.6" cy="622.1" r="5" style="fill:#383A48;"/>
			</g>
		</g>
		<g>
			<g>
				<circle cx="590.6" cy="646.8" r="5" style="fill:#383A48;"/>
			</g>
		</g>
		<g>
			<g>
				<circle cx="590.6" cy="671.5" r="5" style="fill:#383A48;"/>
			</g>
		</g>
		<g>
			<g>
				<circle cx="590.6" cy="696.1" r="5" style="fill:#383A48;"/>
			</g>
		</g>
		<g>
			<g>
				<circle cx="590.6" cy="720.8" r="5" style="fill:#383A48;"/>
			</g>
		</g>
		<g>
			<g>
				<circle cx="590.6" cy="745.5" r="5" style="fill:#383A48;"/>
			</g>
		</g>
		<g>
			<g>
				<circle cx="590.6" cy="770.1" r="5" style="fill:#383A48;"/>
			</g>
		</g>
		<g>
			<g>
				<circle cx="590.6" cy="794.8" r="5" style="fill:#383A48;"/>
			</g>
		</g>
		<g>
			<g>
				<circle cx="590.6" cy="819.5" r="5" style="fill:#383A48;"/>
			</g>
		</g>
		<g>
			<g>
				<circle cx="590.6" cy="844.1" r="5" style="fill:#383A48;"/>
			</g>
		</g>
		<g>
			<g>
				<circle cx="590.6" cy="868.8" r="5" style="fill:#383A48;"/>
			</g>
		</g>
		<g>
			<g>
				<circle cx="590.6" cy="893.5" r="5" style="fill:#383A48;"/>
			</g>
		</g>
		<g>
			<g>
				<circle cx="590.6" cy="918.1" r="5" style="fill:#383A48;"/>
			</g>
		</g>
		<g>
			<g>
				<circle cx="566" cy="622.1" r="5" style="fill:#383A48;"/>
			</g>
		</g>
		<g>
			<g>
				<circle cx="566" cy="646.8" r="5" style="fill:#383A48;"/>
			</g>
		</g>
		<g>
			<g>
				<circle cx="566" cy="671.5" r="5" style="fill:#383A48;"/>
			</g>
		</g>
		<g>
			<g>
				<circle cx="566" cy="696.1" r="5" style="fill:#383A48;"/>
			</g>
		</g>
		<g>
			<g>
				<circle cx="566" cy="720.8" r="5" style="fill:#383A48;"/>
			</g>
		</g>
		<g>
			<g>
				<circle cx="566" cy="745.5" r="5" style="fill:#383A48;"/>
			</g>
		</g>
		<g>
			<g>
				<circle cx="566" cy="770.1" r="5" style="fill:#383A48;"/>
			</g>
		</g>
		<g>
			<g>
				<circle cx="566" cy="794.8" r="5" style="fill:#383A48;"/>
			</g>
		</g>
		<g>
			<g>
				<circle cx="566" cy="819.5" r="5" style="fill:#383A48;"/>
			</g>
		</g>
		<g>
			<g>
				<circle cx="566" cy="844.1" r="5" style="fill:#383A48;"/>
			</g>
		</g>
		<g>
			<g>
				<circle cx="566" cy="868.8" r="5" style="fill:#383A48;"/>
			</g>
		</g>
		<g>
			<g>
				<circle cx="566" cy="893.5" r="5" style="fill:#383A48;"/>
			</g>
		</g>
		<g>
			<g>
				<circle cx="566" cy="918.1" r="5" style="fill:#383A48;"/>
			</g>
		</g>
		<g>
			<g>
				<circle cx="541.3" cy="622.1" r="5" style="fill:#383A48;"/>
			</g>
		</g>
		<g>
			<g>
				<circle cx="541.3" cy="646.8" r="5" style="fill:#383A48;"/>
			</g>
		</g>
		<g>
			<g>
				<circle cx="541.3" cy="671.5" r="5" style="fill:#383A48;"/>
			</g>
		</g>
		<g>
			<g>
				<circle cx="541.3" cy="696.1" r="5" style="fill:#383A48;"/>
			</g>
		</g>
		<g>
			<g>
				<circle cx="541.3" cy="720.8" r="5" style="fill:#383A48;"/>
			</g>
		</g>
		<g>
			<g>
				<circle cx="541.3" cy="745.5" r="5" style="fill:#383A48;"/>
			</g>
		</g>
		<g>
			<g>
				<circle cx="541.3" cy="770.1" r="5" style="fill:#383A48;"/>
			</g>
		</g>
		<g>
			<g>
				<circle cx="541.3" cy="794.8" r="5" style="fill:#383A48;"/>
			</g>
		</g>
		<g>
			<g>
				<circle cx="541.3" cy="819.5" r="5" style="fill:#383A48;"/>
			</g>
		</g>
		<g>
			<g>
				<circle cx="541.3" cy="844.1" r="5" style="fill:#383A48;"/>
			</g>
		</g>
		<g>
			<g>
				<circle cx="541.3" cy="868.8" r="5" style="fill:#383A48;"/>
			</g>
		</g>
		<g>
			<g>
				<circle cx="541.3" cy="893.5" r="5" style="fill:#383A48;"/>
			</g>
		</g>
		<g>
			<g>
				<circle cx="541.3" cy="918.1" r="5" style="fill:#383A48;"/>
			</g>
		</g>
		<g>
			<g>
				<circle cx="516.6" cy="622.1" r="5" style="fill:#383A48;"/>
			</g>
		</g>
		<g>
			<g>
				<circle cx="516.6" cy="646.8" r="5" style="fill:#383A48;"/>
			</g>
		</g>
		<g>
			<g>
				<circle cx="516.6" cy="671.5" r="5" style="fill:#383A48;"/>
			</g>
		</g>
		<g>
			<g>
				<circle cx="516.6" cy="696.1" r="5" style="fill:#383A48;"/>
			</g>
		</g>
		<g>
			<g>
				<circle cx="516.6" cy="720.8" r="5" style="fill:#383A48;"/>
			</g>
		</g>
		<g>
			<g>
				<circle cx="516.6" cy="745.5" r="5" style="fill:#383A48;"/>
			</g>
		</g>
		<g>
			<g>
				<circle cx="516.6" cy="770.1" r="5" style="fill:#383A48;"/>
			</g>
		</g>
		<g>
			<g>
				<circle cx="516.6" cy="794.8" r="5" style="fill:#383A48;"/>
			</g>
		</g>
		<g>
			<g>
				<circle cx="516.6" cy="819.5" r="5" style="fill:#383A48;"/>
			</g>
		</g>
		<g>
			<g>
				<circle cx="516.6" cy="844.1" r="5" style="fill:#383A48;"/>
			</g>
		</g>
		<g>
			<g>
				<circle cx="516.6" cy="868.8" r="5" style="fill:#383A48;"/>
			</g>
		</g>
		<g>
			<g>
				<circle cx="516.6" cy="893.5" r="5" style="fill:#383A48;"/>
			</g>
		</g>
		<g>
			<g>
				<circle cx="516.6" cy="918.1" r="5" style="fill:#383A48;"/>
			</g>
		</g>
		<g>
			<g>
				<circle cx="492" cy="622.1" r="5" style="fill:#383A48;"/>
			</g>
		</g>
		<g>
			<g>
				<circle cx="492" cy="646.8" r="5" style="fill:#383A48;"/>
			</g>
		</g>
		<g>
			<g>
				<circle cx="492" cy="671.5" r="5" style="fill:#383A48;"/>
			</g>
		</g>
		<g>
			<g>
				<circle cx="492" cy="696.1" r="5" style="fill:#383A48;"/>
			</g>
		</g>
		<g>
			<g>
				<circle cx="492" cy="720.8" r="5" style="fill:#383A48;"/>
			</g>
		</g>
		<g>
			<g>
				<circle cx="492" cy="745.5" r="5" style="fill:#383A48;"/>
			</g>
		</g>
		<g>
			<g>
				<circle cx="492" cy="770.1" r="5" style="fill:#383A48;"/>
			</g>
		</g>
		<g>
			<g>
				<circle cx="492" cy="794.8" r="5" style="fill:#383A48;"/>
			</g>
		</g>
		<g>
			<g>
				<circle cx="492" cy="819.5" r="5" style="fill:#383A48;"/>
			</g>
		</g>
		<g>
			<g>
				<circle cx="492" cy="844.1" r="5" style="fill:#383A48;"/>
			</g>
		</g>
		<g>
			<g>
				<circle cx="492" cy="868.8" r="5" style="fill:#383A48;"/>
			</g>
		</g>
		<g>
			<g>
				<circle cx="492" cy="893.5" r="5" style="fill:#383A48;"/>
			</g>
		</g>
		<g>
			<g>
				<circle cx="492" cy="918.1" r="5" style="fill:#383A48;"/>
			</g>
		</g>
		<g>
			<g>
				<circle cx="467.3" cy="622.1" r="5" style="fill:#383A48;"/>
			</g>
		</g>
		<g>
			<g>
				<circle cx="467.3" cy="646.8" r="5" style="fill:#383A48;"/>
			</g>
		</g>
		<g>
			<g>
				<circle cx="467.3" cy="671.5" r="5" style="fill:#383A48;"/>
			</g>
		</g>
		<g>
			<g>
				<circle cx="467.3" cy="696.1" r="5" style="fill:#383A48;"/>
			</g>
		</g>
		<g>
			<g>
				<circle cx="467.3" cy="720.8" r="5" style="fill:#383A48;"/>
			</g>
		</g>
		<g>
			<g>
				<circle cx="467.3" cy="745.5" r="5" style="fill:#383A48;"/>
			</g>
		</g>
		<g>
			<g>
				<circle cx="467.3" cy="770.1" r="5" style="fill:#383A48;"/>
			</g>
		</g>
		<g>
			<g>
				<circle cx="467.3" cy="794.8" r="5" style="fill:#383A48;"/>
			</g>
		</g>
		<g>
			<g>
				<circle cx="467.3" cy="819.5" r="5" style="fill:#383A48;"/>
			</g>
		</g>
		<g>
			<g>
				<circle cx="467.3" cy="844.1" r="5" style="fill:#383A48;"/>
			</g>
		</g>
		<g>
			<g>
				<circle cx="467.3" cy="868.8" r="5" style="fill:#383A48;"/>
			</g>
		</g>
		<g>
			<g>
				<circle cx="467.3" cy="893.5" r="5" style="fill:#383A48;"/>
			</g>
		</g>
		<g>
			<g>
				<circle cx="467.3" cy="918.1" r="5" style="fill:#383A48;"/>
			</g>
		</g>
		<g>
			<g>
				<circle cx="442.6" cy="622.1" r="5" style="fill:#383A48;"/>
			</g>
		</g>
		<g>
			<g>
				<circle cx="442.6" cy="646.8" r="5" style="fill:#383A48;"/>
			</g>
		</g>
		<g>
			<g>
				<circle cx="442.6" cy="671.5" r="5" style="fill:#383A48;"/>
			</g>
		</g>
		<g>
			<g>
				<circle cx="442.6" cy="696.1" r="5" style="fill:#383A48;"/>
			</g>
		</g>
		<g>
			<g>
				<circle cx="442.6" cy="720.8" r="5" style="fill:#383A48;"/>
			</g>
		</g>
		<g>
			<g>
				<circle cx="442.6" cy="745.5" r="5" style="fill:#383A48;"/>
			</g>
		</g>
		<g>
			<g>
				<circle cx="442.6" cy="770.1" r="5" style="fill:#383A48;"/>
			</g>
		</g>
		<g>
			<g>
				<circle cx="442.6" cy="794.8" r="5" style="fill:#383A48;"/>
			</g>
		</g>
		<g>
			<g>
				<circle cx="442.6" cy="819.5" r="5" style="fill:#383A48;"/>
			</g>
		</g>
		<g>
			<g>
				<circle cx="442.6" cy="844.1" r="5" style="fill:#383A48;"/>
			</g>
		</g>
		<g>
			<g>
				<circle cx="442.6" cy="868.8" r="5" style="fill:#383A48;"/>
			</g>
		</g>
		<g>
			<g>
				<circle cx="442.6" cy="893.5" r="5" style="fill:#383A48;"/>
			</g>
		</g>
		<g>
			<g>
				<circle cx="442.6" cy="918.1" r="5" style="fill:#383A48;"/>
			</g>
		</g>
	</g>
	<g>
		<g>
			<path d="M1725.9,183.4h-466.8c-165.1,0-299,133.9-299,299V807h765.8L1725.9,183.4L1725.9,183.4z" style="fill:#F3F6E6;"/>
			<path d="M1725.9,812H960.2c-2.8,0-5-2.2-5-5V482.4c0-81.2,31.6-157.5,89-215c57.4-57.4,133.8-89,215-89H1726
				c2.8,0,5,2.2,5,5V807C1730.9,809.7,1728.7,812,1725.9,812z M965.2,802H1721V188.4h-461.8c-78.5,0-152.4,30.6-207.9,86.1
				s-86.1,129.4-86.1,207.9L965.2,802L965.2,802z" style="fill:#383A48;"/>
		</g>
		<g>
			<polygon points="960.2,380.3 1725.9,380.3 1725.9,183.4 1162.7,183.4 			" style="fill:#E0719E;"/>
			<path d="M1725.9,385.3H960.2c-2,0-3.9-1.2-4.6-3.1s-0.3-4,1.1-5.5l202.6-196.9c0.9-0.9,2.2-1.4,3.5-1.4H1726
				c2.8,0,5,2.2,5,5v196.9C1730.9,383.1,1728.7,385.3,1725.9,385.3z M972.5,375.3H1721V188.4h-556.2L972.5,375.3z" style="fill:#383A48;"/>
		</g>
	</g>
	<g>
		<g>
			<path d="M1674.4,234.9h-499c-147.3,0-266.7,119.4-266.7,266.7v356.8h765.8L1674.4,234.9L1674.4,234.9z" style="fill:#F3F6E6;"/>
			<path d="M1674.4,863.5H908.6c-2.8,0-5-2.2-5-5V501.7c0-72.6,28.3-140.8,79.6-192.1c51.3-51.3,119.6-79.6,192.1-79.6
				h499c2.8,0,5,2.2,5,5v623.5C1679.4,861.2,1677.2,863.5,1674.4,863.5z M913.6,853.5h755.8V239.9h-494
				c-69.9,0-135.6,27.2-185.1,76.7c-49.4,49.4-76.7,115.2-76.7,185.1L913.6,853.5L913.6,853.5z" style="fill:#383A48;"/>
		</g>
		<g>
			<polygon points="908.6,431.8 1674.4,431.8 1674.4,234.9 1080.3,234.9 			" style="fill:#F6E049;"/>
			<path d="M1674.4,436.8H908.6c-2,0-3.7-1.1-4.6-2.9c-0.8-1.8-0.5-3.9,0.8-5.4l171.7-196.9c0.9-1.1,2.3-1.7,3.8-1.7
				h594.1c2.8,0,5,2.2,5,5v196.9C1679.4,434.6,1677.2,436.8,1674.4,436.8z M919.6,426.8h749.8V239.9h-586.8L919.6,426.8z" style="fill:#383A48;"/>
		</g>
	</g>
	<g>
		<g>
			<path d="M1618.9,302.1h-580.1c-102.6,0-185.7,83.1-185.7,185.7v437.8h765.8V302.1z" style="fill:#F3F6E6;"/>
			<path d="M1618.9,930.6H853.1c-2.8,0-5-2.2-5-5V487.8c0-105.2,85.6-190.7,190.7-190.7h580.1c2.8,0,5,2.2,5,5v623.5
				C1623.9,928.4,1621.6,930.6,1618.9,930.6z M858.1,920.6h755.8V307.1h-575.1c-99.6,0-180.7,81.1-180.7,180.7L858.1,920.6
				L858.1,920.6z" style="fill:#383A48;"/>
		</g>
		<g>
			<polygon points="853.1,499 1618.9,499 1618.9,302.1 969.2,302.1 			" style="fill:#AAC6FC;"/>
			<path d="M1618.9,504H853.1c-1.8,0-3.5-1-4.3-2.5c-0.9-1.6-0.9-3.5,0-5l116.1-196.9c0.9-1.5,2.5-2.5,4.3-2.5h649.7
				c2.8,0,5,2.2,5,5V499C1623.9,501.7,1621.6,504,1618.9,504z M861.9,494h752V307.1H972.1L861.9,494z" style="fill:#383A48;"/>
		</g>
		<g>
			<g>
				<g>
					
						<rect x="1529.3" y="378.6" transform="matrix(0.7071 -0.7071 0.7071 0.7071 166.1662 1202.1986)" width="10" height="43.8" style="fill:#383A48;"/>
				</g>
				<g>
					
						<rect x="1512.4" y="395.5" transform="matrix(0.7071 -0.7071 0.7071 0.7071 166.1662 1202.1986)" width="43.8" height="10" style="fill:#383A48;"/>
				</g>
			</g>
			<g>
				<path d="M1490.9,422.4H1447v-43.8h43.8L1490.9,422.4L1490.9,422.4z M1457,412.4h23.8v-23.8H1457V412.4z" style="fill:#383A48;"/>
			</g>
			<g>
				<rect x="1384.7" y="412.4" width="33.8" height="10" style="fill:#383A48;"/>
			</g>
		</g>
		<g>
			<g>
				<path d="M1035.7,698.5c0,19.6-9.6,36.9-24.3,47.6c-9.7,7.1-21.7,11.2-34.6,11.2s-24.9-4.2-34.6-11.2
					c-14.7-10.7-24.3-28.1-24.3-47.6c0-32.5,26.4-58.9,58.9-58.9S1035.7,666,1035.7,698.5z" style="fill:#EEBED3;"/>
				<path d="M976.9,762.4c-13.6,0-26.6-4.2-37.5-12.2c-16.5-12-26.3-31.3-26.3-51.7c0-35.2,28.7-63.9,63.9-63.9
					s63.9,28.7,63.9,63.9c0,20.4-9.8,39.7-26.3,51.7C1003.5,758.2,990.5,762.4,976.9,762.4z M976.9,644.6
					c-29.7,0-53.9,24.2-53.9,53.9c0,17.2,8.3,33.5,22.2,43.6c9.2,6.7,20.2,10.3,31.6,10.3c11.5,0,22.4-3.6,31.7-10.3
					c13.9-10.1,22.2-26.4,22.2-43.6C1030.7,668.8,1006.6,644.6,976.9,644.6z" style="fill:#383A48;"/>
			</g>
			<g>
				<circle cx="976.9" cy="691.7" r="25.9" style="fill:#EEBED3;"/>
				<path d="M976.9,722.6c-17,0-30.9-13.9-30.9-30.9s13.9-30.9,30.9-30.9s30.9,13.9,30.9,30.9S993.9,722.6,976.9,722.6z
					 M976.9,670.8c-11.5,0-20.9,9.4-20.9,20.9s9.4,20.9,20.9,20.9s20.9-9.4,20.9-20.9S988.4,670.8,976.9,670.8z" style="fill:#383A48;"/>
			</g>
			<g>
				<path d="M1011.5,746.2c-9.7,7.1-21.7,11.2-34.6,11.2s-24.9-4.2-34.6-11.2c1.5-16.4,15.3-29.2,32.1-29.2h4.9
					C996.1,716.9,1009.9,729.8,1011.5,746.2z" style="fill:#F3F6E6;"/>
				<path d="M976.9,762.4c-13.6,0-26.6-4.2-37.5-12.2c-1.4-1-2.2-2.8-2-4.5c1.8-19.3,17.8-33.8,37.1-33.8h4.9
					c19.4,0,35.3,14.5,37.1,33.8c0.2,1.8-0.6,3.5-2,4.5C1003.5,758.2,990.5,762.4,976.9,762.4z M947.7,743.8
					c8.7,5.6,18.7,8.6,29.2,8.6s20.5-3,29.2-8.6c-2.5-12.7-13.6-21.9-26.8-21.9h-4.9C961.2,721.9,950.2,731.1,947.7,743.8z" style="fill:#383A48;"/>
			</g>
		</g>
		<g>
			<path d="M1298.8,548.4h-170.6c-29.7,0-53.8,24.1-53.8,53.8v91.3c0,1.7,0.9,3.3,2.4,4.2c0.8,0.5,1.7,0.8,2.6,0.8
				c0.8,0,1.5-0.2,2.2-0.5l33.7-16.6c9.3-3.7,19-5.6,29-5.6h154.5c29.7,0,53.8-24.1,53.8-53.8v-19.8
				C1352.6,572.5,1328.4,548.4,1298.8,548.4z" style="fill:#7FD6C2;"/>
			<g>
				<path d="M1221,591.7l-3.8,4.5l-4-4.7c-6.8-8.1-18.8-9.1-27-2.4l0,0c-8.2,6.8-9.3,19-2.4,27.2l33.6,30.8l33.2-30.8
					c6.8-8.2,5.7-20.3-2.5-27.1l0,0C1239.9,582.4,1227.8,583.5,1221,591.7z" style="fill:#E0719E;"/>
				<path d="M1217.4,652.1c-1.2,0-2.4-0.4-3.4-1.3l-33.6-30.8c-0.2-0.1-0.3-0.3-0.4-0.5c-4.2-5-6.2-11.3-5.6-17.8
					s3.7-12.3,8.7-16.5c10.2-8.5,25.5-7.1,34,3l0.2,0.2c8.5-10.2,23.8-11.6,34.1-3.1c5,4.1,8.1,10,8.7,16.4
					c0.6,6.5-1.3,12.8-5.5,17.7c-0.1,0.2-0.3,0.3-0.4,0.5l-33.2,30.8C1219.8,651.7,1218.6,652.1,1217.4,652.1z M1187.4,612.9
					l30,27.5l29.5-27.5c2.3-2.9,3.4-6.5,3-10.2c-0.4-3.8-2.2-7.2-5.1-9.6c-6-5-15-4.2-20,1.9l0,0l-3.8,4.5c-0.9,1.1-2.3,1.8-3.8,1.8
					l0,0c-1.5,0-2.9-0.6-3.8-1.8l-4-4.7c-5-5.9-14-6.7-20-1.8c-3,2.4-4.8,5.9-5.1,9.7C1184,606.4,1185.1,610,1187.4,612.9z
					 M1221,591.7L1221,591.7L1221,591.7z" style="fill:#383A48;"/>
			</g>
		</g>
		<g>
			<g>
				<path d="M1284.8,717.6h199.9c27,0,48.8,21.9,48.8,48.8v19.8v71.5l-33.9-16.7c-9.9-4-20.4-6-31-6h-30.8h-153.1
					c-27,0-48.8-21.9-48.8-48.8v-19.8C1235.9,739.5,1257.8,717.6,1284.8,717.6z" style="fill:#F3F6E6;"/>
				<path d="M1533.5,862.7c-0.8,0-1.5-0.2-2.2-0.5l-33.7-16.6c-9.3-3.7-19-5.6-29-5.6h-183.8
					c-29.7,0-53.8-24.1-53.8-53.8v-19.8c0-29.7,24.1-53.8,53.8-53.8h199.9c29.7,0,53.8,24.1,53.8,53.8v91.3c0,1.7-0.9,3.3-2.4,4.2
					C1535.3,862.4,1534.4,862.7,1533.5,862.7z M1284.8,722.6c-24.2,0-43.8,19.7-43.8,43.8v19.8c0,24.2,19.7,43.8,43.8,43.8h183.8
					c11.3,0,22.4,2.1,32.9,6.4c0.1,0,0.2,0.1,0.3,0.2l26.7,13.1v-83.2c0-24.2-19.7-43.8-43.8-43.8L1284.8,722.6L1284.8,722.6z" style="fill:#383A48;"/>
			</g>
			<g>
				<path d="M1388.6,755.1l-3.8,4.5l-4-4.7c-6.8-8.1-18.8-9.1-27-2.4l0,0c-8.2,6.8-9.3,19-2.4,27.2l33.6,30.8l33.2-30.8
					c6.8-8.2,5.7-20.3-2.5-27.1l0,0C1407.4,745.8,1395.3,746.9,1388.6,755.1z" style="fill:#E0719E;"/>
				<path d="M1385,815.5c-1.2,0-2.4-0.4-3.4-1.3l-33.6-30.8c-0.2-0.1-0.3-0.3-0.4-0.5c-4.2-5-6.2-11.3-5.6-17.8
					s3.6-12.3,8.6-16.5c0,0,0,0,0.1,0c10.2-8.4,25.4-7.1,34,3l0.2,0.2c8.5-10.2,23.8-11.6,34.1-3.1c5,4.1,8.1,10,8.7,16.4
					c0.6,6.5-1.3,12.7-5.5,17.7c-0.1,0.2-0.3,0.3-0.4,0.5l-33.2,30.8C1387.4,815,1386.2,815.5,1385,815.5z M1355,776.2l30,27.5
					l29.5-27.4c2.3-2.9,3.4-6.5,3-10.2c-0.4-3.8-2.2-7.2-5.1-9.6c-6-5-15-4.2-20,1.9l0,0l-3.8,4.5c-0.9,1.1-2.3,1.8-3.8,1.8l0,0
					c-1.5,0-2.9-0.6-3.8-1.8l-4-4.7c-5-5.9-13.9-6.7-19.9-1.8l0,0c-2.9,2.4-4.8,5.9-5.1,9.7C1351.6,769.7,1352.7,773.3,1355,776.2z" style="fill:#383A48;"/>
			</g>
		</g>
	</g>
	<g>
		<path d="M808.8,526.7l-48.5-80.3c-48.7-80.6-154-106.6-234.6-57.9l0,0c-29.9,18.1-53.3,44.5-67.5,76.3
			c-6.4,14.2-16.8,26-30.1,34.1s-28.6,11.8-44.1,10.8c-34.8-2.2-69,6.2-98.9,24.3c-39.1,23.6-66.6,61-77.5,105.3
			s-3.9,90.2,19.7,129.3l48.5,80.3c23.6,39.1,61,66.6,105.3,77.5c13.7,3.4,27.5,5,41.2,5c30.8,0,61.1-8.4,88.1-24.7
			c29.9-18.1,53.3-44.5,67.5-76.3c6.4-14.2,16.8-26,30.1-34.1c13.3-8,28.6-11.8,44.1-10.8c34.8,2.2,69-6.2,98.9-24.3
			c39.1-23.6,66.6-61,77.5-105.3C839.4,611.7,832.4,565.7,808.8,526.7z" style="fill:#383A48;"/>
		<g>
			<g>
				<path d="M571.9,366.4L571.9,366.4c-30,18.1-52.2,44.3-65.5,74c-13.8,30.9-45.3,49.9-79.1,47.8
					c-32.5-2-66,5.5-96,23.6l0,0c-78.4,47.4-103.6,149.3-56.2,227.8l48.5,80.3C371,898.3,473,923.4,551.4,876l0,0
					c30-18.1,52.2-44.3,65.5-74c13.8-30.9,45.3-49.9,79.1-47.8c32.5,2,66-5.5,96-23.6l0,0c78.4-47.4,103.6-149.3,56.2-227.8
					l-48.5-80.3C752.3,344.1,650.3,319,571.9,366.4z" style="fill:#F6E049;"/>
				<path d="M637.5,575.4c-11.6-19.1-29.9-32.6-51.6-38c-21.7-5.3-44.2-1.9-63.3,9.6c-39.5,23.9-52.2,75.4-28.3,114.9
					c11.6,19.1,29.9,32.6,51.6,38c6.7,1.7,13.5,2.5,20.2,2.5c15.1,0,29.9-4.1,43.1-12.1c19.1-11.6,32.6-29.9,38-51.6
					S649.1,594.5,637.5,575.4z" style="fill:#383A48;"/>
				<path d="M465.9,904.9c-57.9,0-114.5-29.4-146.5-82.5l-48.5-80.3c-48.7-80.6-22.8-185.9,57.9-234.6
					c29.9-18.1,64.2-26.5,98.9-24.3c15.6,1,30.8-2.8,44.1-10.8c13.3-8,23.7-19.8,30.1-34.1c14.2-31.8,37.6-58.2,67.5-76.3l0,0
					c39.1-23.6,85-30.6,129.3-19.7s81.7,38.5,105.3,77.5l48.5,80.3c48.7,80.6,22.8,185.9-57.9,234.6c-29.9,18.1-64.1,26.5-98.9,24.3
					c-15.6-1-30.8,2.8-44.1,10.8s-23.7,19.8-30.1,34.1c-14.2,31.8-37.6,58.2-67.5,76.3C526.4,897,495.9,904.9,465.9,904.9z
					 M416.8,492.9c-29.2,0-57.7,7.9-83,23.2c-36.8,22.2-62.7,57.4-73,99.2c-10.3,41.7-3.7,85,18.5,121.7l48.5,80.3
					c45.9,75.9,145,100.4,220.9,54.5c28.2-17,50.2-41.9,63.6-71.8c7.2-16.1,19-29.4,34-38.5c15.1-9.1,32.3-13.3,49.9-12.2
					c32.7,2.1,64.9-5.9,93.1-22.9c75.9-45.9,100.4-145,54.5-220.9l-48.5-80.3c-22.2-36.8-57.4-62.7-99.2-73
					c-41.7-10.3-85-3.7-121.7,18.5l0,0c-28.2,17-50.2,41.9-63.6,71.8c-7.2,16.1-19,29.4-34,38.5c-15.1,9.1-32.3,13.3-49.9,12.2
					C423.6,493,420.2,492.9,416.8,492.9z M571.9,366.4L571.9,366.4L571.9,366.4z" style="fill:#383A48;"/>
			</g>
			<g>
				
					<rect x="590.5" y="362.3" transform="matrix(0.8559 -0.5172 0.5172 0.8559 -91.7733 519.9183)" width="592.9" height="124.6" style="fill:#EEBED3;"/>
				<path d="M665.5,636.3c-1.7,0-3.3-0.9-4.3-2.4l-64.5-106.7c-0.7-1.1-0.9-2.5-0.6-3.8s1.1-2.4,2.3-3.1l507.4-306.6
					c2.4-1.4,5.4-0.7,6.9,1.7l64.5,106.7c0.7,1.1,0.9,2.5,0.6,3.8s-1.1,2.4-2.3,3.1L668,635.6C667.2,636.1,666.3,636.3,665.5,636.3z
					 M607.8,526.3l59.3,98.1L1166,323l-59.3-98.1L607.8,526.3z" style="fill:#383A48;"/>
			</g>
			<g>
				<polygon points="1250.7,303.3 1084.1,378.3 1019.6,271.6 1163.5,159 				" style="fill:#EEBED3;"/>
				<path d="M1084.1,383.3c-1.7,0-3.4-0.9-4.3-2.4l-64.5-106.7c-1.3-2.2-0.8-5,1.2-6.5l143.9-112.6c1.1-0.9,2.6-1.2,4-1
					c1.4,0.3,2.6,1.1,3.4,2.3l87.2,144.3c0.7,1.2,0.9,2.7,0.5,4.1s-1.4,2.5-2.7,3.1l-166.6,75
					C1085.5,383.2,1084.8,383.3,1084.1,383.3z M1026.2,272.8l59.9,99.1l157.4-70.9l-81.4-134.6L1026.2,272.8z" style="fill:#383A48;"/>
			</g>
			<g>
				
					<rect x="417.7" y="632.4" transform="matrix(0.8559 -0.5172 0.5172 0.8559 -295.8974 327.697)" width="44.6" height="124.6" style="fill:#F6E049;"/>
				<path d="M453.2,764.6c-0.4,0-0.8,0-1.2-0.1c-1.3-0.3-2.4-1.1-3.1-2.3l-64.5-106.7c-1.4-2.4-0.7-5.4,1.7-6.9l38.1-23
					c1.1-0.7,2.5-0.9,3.8-0.6c1.3,0.3,2.4,1.1,3.1,2.3L495.6,734c1.4,2.4,0.7,5.4-1.7,6.9l-38.1,23
					C455,764.3,454.1,764.6,453.2,764.6z M395.6,654.6l59.3,98.1l29.6-17.9l-59.3-98.1L395.6,654.6z" style="fill:#383A48;"/>
			</g>
			<g>
				<line x1="1035.1" y1="297.2" x2="442.3" y2="655.4" style="fill:none;"/>
				<path d="M442.3,660.4c-1.7,0-3.3-0.9-4.3-2.4c-1.4-2.4-0.7-5.4,1.7-6.9l592.8-358.2c2.4-1.4,5.4-0.7,6.9,1.7
					s0.7,5.4-1.7,6.9L444.9,659.7C444.1,660.2,443.2,660.4,442.3,660.4z" style="fill:#383A48;"/>
			</g>
			<g>
				<line x1="1051.8" y1="325" x2="459.1" y2="683.2" style="fill:none;"/>
				<path d="M459.1,688.2c-1.7,0-3.3-0.9-4.3-2.4c-1.4-2.4-0.7-5.4,1.7-6.9l592.8-358.2c2.4-1.4,5.4-0.7,6.9,1.7
					c1.4,2.4,0.7,5.4-1.7,6.9L461.7,687.5C460.9,688,460,688.2,459.1,688.2z" style="fill:#383A48;"/>
			</g>
			<g>
				<line x1="1068.6" y1="352.8" x2="475.9" y2="711" style="fill:none;"/>
				<path d="M475.9,716c-1.7,0-3.3-0.9-4.3-2.4c-1.4-2.4-0.7-5.4,1.7-6.9l592.8-358.2c2.4-1.4,5.4-0.7,6.9,1.7
					s0.7,5.4-1.7,6.9L478.5,715.3C477.7,715.7,476.8,716,475.9,716z" style="fill:#383A48;"/>
			</g>
			<g>
				<g>
					<line x1="1105.1" y1="176.1" x2="1118.7" y2="194.1" style="fill:none;"/>
					
						<rect x="1106.9" y="173.8" transform="matrix(0.7979 -0.6028 0.6028 0.7979 113.1726 707.6443)" width="10" height="22.5" style="fill:#383A48;"/>
				</g>
				<g>
					<line x1="1044.2" y1="224.6" x2="1057.8" y2="242.6" style="fill:none;"/>
					
						<rect x="1046" y="222.3" transform="matrix(0.7979 -0.6028 0.6028 0.7979 71.6369 680.7325)" width="10" height="22.5" style="fill:#383A48;"/>
				</g>
				<g>
					
						<rect x="1082.8" y="164.4" transform="matrix(0.7931 -0.6091 0.6091 0.7931 122.4641 708.3318)" width="42" height="19" style="fill:#F3F6E6;"/>
					<path d="M1092.9,199.2c-0.2,0-0.4,0-0.7,0c-1.3-0.2-2.5-0.9-3.3-1.9l-11.6-15c-1.7-2.2-1.3-5.3,0.9-7l33.3-25.6
						c1.1-0.8,2.4-1.2,3.7-1c1.3,0.2,2.5,0.9,3.3,1.9l11.6,15c1.7,2.2,1.3,5.3-0.9,7l-33.3,25.6
						C1095.1,198.8,1094,199.2,1092.9,199.2z M1088.4,180l5.5,7.1l25.4-19.5l-5.5-7.1L1088.4,180z" style="fill:#383A48;"/>
				</g>
				<g>
					
						<rect x="1020.8" y="212" transform="matrix(0.7931 -0.6091 0.6091 0.7931 80.6446 680.3857)" width="42" height="19" style="fill:#F3F6E6;"/>
					<path d="M1030.9,246.8c-0.2,0-0.4,0-0.7,0c-1.3-0.2-2.5-0.9-3.3-1.9l-11.6-15c-1.7-2.2-1.3-5.3,0.9-7l33.3-25.6
						c1.1-0.8,2.4-1.2,3.7-1c1.3,0.2,2.5,0.9,3.3,1.9l11.6,15c1.7,2.2,1.3,5.3-0.9,7l-33.3,25.6
						C1033.1,246.5,1032,246.8,1030.9,246.8z M1026.3,227.7l5.5,7.1l25.4-19.5l-5.5-7.1L1026.3,227.7z" style="fill:#383A48;"/>
				</g>
			</g>
			<g>
				<g>
					<line x1="1208.5" y1="347" x2="1198.9" y2="326.6" style="fill:none;"/>
					
						<rect x="1198.7" y="325.6" transform="matrix(0.9047 -0.4261 0.4261 0.9047 -28.803 545.0148)" width="10" height="22.5" style="fill:#383A48;"/>
				</g>
				<g>
					<line x1="1137.2" y1="378.4" x2="1127.6" y2="358" style="fill:none;"/>
					
						<rect x="1127.4" y="356.9" transform="matrix(0.9047 -0.4261 0.4261 0.9047 -48.93 517.5974)" width="10" height="22.5" style="fill:#383A48;"/>
				</g>
				<g>
					
						<rect x="1188.8" y="339.8" transform="matrix(0.908 -0.4189 0.4189 0.908 -35.0555 538.9197)" width="42" height="19" style="fill:#F3F6E6;"/>
					<path d="M1194.7,371.7c-1.9,0-3.7-1.1-4.5-2.9l-8-17.2c-0.6-1.2-0.6-2.6-0.2-3.8s1.4-2.3,2.6-2.8l38.1-17.6
						c1.2-0.6,2.6-0.6,3.8-0.2c1.2,0.5,2.3,1.4,2.8,2.6l7.9,17.2c1.2,2.5,0.1,5.5-2.4,6.6l-38.1,17.6
						C1196.1,371.5,1195.4,371.7,1194.7,371.7z M1193.4,351.9l3.8,8.2l29-13.4l-3.8-8.2L1193.4,351.9z" style="fill:#383A48;"/>
				</g>
				<g>
					
						<rect x="1117.8" y="372.5" transform="matrix(0.908 -0.4189 0.4189 0.908 -55.2822 512.1696)" width="42" height="19" style="fill:#F3F6E6;"/>
					<path d="M1123.7,404.4c-0.6,0-1.2-0.1-1.7-0.3c-1.2-0.5-2.3-1.4-2.8-2.6l-7.9-17.2c-0.6-1.2-0.6-2.6-0.2-3.8
						s1.4-2.3,2.6-2.8l38.1-17.6c2.5-1.2,5.5-0.1,6.6,2.4l7.9,17.2c0.6,1.2,0.6,2.6,0.2,3.8s-1.4,2.3-2.6,2.8l-38.1,17.6
						C1125.1,404.3,1124.4,404.4,1123.7,404.4z M1122.4,384.6l3.8,8.2l29-13.4l-3.8-8.2L1122.4,384.6z" style="fill:#383A48;"/>
				</g>
			</g>
			<g>
				<path d="M1155.6,249.6L1092,288c-8.1,4.9-18.7,2.3-23.6-5.8l0,0c-4.9-8.1-2.3-18.7,5.8-23.6l63.6-38.4
					c8.1-4.9,18.7-2.3,23.6,5.8l0,0C1166.4,234.1,1163.8,244.7,1155.6,249.6z" style="fill:#EEBED3;"/>
				<path d="M1083.2,295.5c-1.8,0-3.6-0.2-5.4-0.7c-5.8-1.4-10.6-5-13.7-10.1c-6.3-10.5-3-24.2,7.5-30.5l63.6-38.4
					c5.1-3.1,11-4,16.8-2.6s10.6,5,13.7,10.1s4,11,2.6,16.8s-5,10.6-10.1,13.7l-63.6,38.4C1091.1,294.4,1087.2,295.5,1083.2,295.5z
					 M1146.7,222.6c-2.2,0-4.4,0.6-6.3,1.8l-63.6,38.4c-5.8,3.5-7.6,11-4.1,16.8c1.7,2.8,4.4,4.8,7.5,5.5c3.2,0.8,6.4,0.3,9.2-1.4
					l63.6-38.4l0,0c2.8-1.7,4.8-4.4,5.5-7.5s0.3-6.4-1.4-9.2c-1.7-2.8-4.4-4.8-7.5-5.5C1148.7,222.7,1147.7,222.6,1146.7,222.6z" style="fill:#383A48;"/>
			</g>
			<g>
				<path d="M1166.8,268.2l-63.6,38.4c-8.1,4.9-10.7,15.5-5.8,23.6l0,0c4.9,8.1,15.5,10.7,23.6,5.8l63.6-38.4
					c8.1-4.9,10.7-15.5,5.8-23.6l0,0C1185.6,265.9,1175,263.2,1166.8,268.2z" style="fill:#EEBED3;"/>
				<path d="M1112.2,343.5c-7.5,0-14.9-3.8-19-10.7c-3.1-5.1-4-11-2.6-16.8s5-10.6,10.1-13.7l63.6-38.4
					c5.1-3.1,11-4,16.8-2.6s10.6,5,13.7,10.1s4,11,2.6,16.8s-5,10.6-10.1,13.7l-63.6,38.4C1120.1,342.5,1116.1,343.5,1112.2,343.5z
					 M1175.7,270.7c-2.2,0-4.4,0.6-6.3,1.8l0,0l-63.6,38.4c-5.8,3.5-7.6,11-4.1,16.8s11,7.6,16.8,4.1l63.6-38.4
					c2.8-1.7,4.8-4.4,5.5-7.5c0.8-3.2,0.3-6.4-1.4-9.2s-4.4-4.8-7.5-5.5C1177.7,270.8,1176.7,270.7,1175.7,270.7z M1166.8,268.2
					L1166.8,268.2L1166.8,268.2z" style="fill:#383A48;"/>
			</g>
		</g>
	</g>
	<g>
		<path d="M1461.8,592.8c-2.8,0-5-2.2-5-5c0-4.7-1.2-15.5-12.6-15.5c-2.8,0-5-2.2-5-5s2.2-5,5-5
			c11.4,0,12.6-10.9,12.6-15.5c0-2.8,2.2-5,5-5s5,2.2,5,5c0,4.7,1.2,15.5,12.6,15.5c2.8,0,5,2.2,5,5s-2.2,5-5,5
			c-11.4,0-12.6,10.9-12.6,15.5C1466.8,590.5,1464.6,592.8,1461.8,592.8z" style="fill:#AAC6FC;"/>
	</g>
	<g>
		<path d="M621.6,293.2c-2.8,0-5-2.2-5-5c0-4.7-1.2-15.5-12.6-15.5c-2.8,0-5-2.2-5-5s2.2-5,5-5
			c11.4,0,12.6-10.9,12.6-15.5c0-2.8,2.2-5,5-5s5,2.2,5,5c0,4.7,1.2,15.5,12.6,15.5c2.8,0,5,2.2,5,5s-2.2,5-5,5
			c-11.4,0-12.6,10.9-12.6,15.5C626.6,291,624.3,293.2,621.6,293.2z" style="fill:#383A48;"/>
	</g>
	<g>
		<path d="M1068.6,848.3c-2.8,0-5-2.2-5-5c0-4.7-1.2-15.5-12.6-15.5c-2.8,0-5-2.2-5-5s2.2-5,5-5
			c11.4,0,12.6-10.9,12.6-15.5c0-2.8,2.2-5,5-5s5,2.2,5,5c0,4.7,1.2,15.5,12.6,15.5c2.8,0,5,2.2,5,5s-2.2,5-5,5
			c-11.4,0-12.6,10.9-12.6,15.5C1073.6,846.1,1071.4,848.3,1068.6,848.3z" style="fill:#AAC6FC;"/>
	</g>
	<g>
		<path d="M417,237.1l-8.6,10.4l-9.2-10.9c-15.6-18.5-43.1-20.9-61.7-5.5l0,0c-18.8,15.6-21.3,43.5-5.6,62.2l76.9,89.8
			l75.9-89.8c15.5-18.7,13-46.5-5.8-62l0,0C460.2,215.8,432.5,218.4,417,237.1z" style="fill:#E0719E;"/>
		<path d="M408.8,388.2c-1.5,0-2.8-0.6-3.8-1.7l-76.9-89.8c-8.5-10.1-12.5-22.9-11.4-36c1.2-13.1,7.4-24.9,17.5-33.3
			c0,0,0,0,0.1,0c20.6-17.1,51.4-14.3,68.7,6.1l5.3,6.3l4.8-5.8l0,0c17.2-20.7,48.2-23.6,69-6.4c10.1,8.4,16.3,20.1,17.5,33.2
			c1.2,13-2.7,25.8-11.1,35.9l-75.9,89.9C411.6,387.5,410.3,388.2,408.8,388.2L408.8,388.2z M340.7,235L340.7,235
			c-8.1,6.7-13.1,16.2-14,26.6s2.3,20.6,9,28.6l73.1,85.3l72.1-85.3c6.6-8,9.8-18.1,8.8-28.5c-1-10.4-5.9-19.8-14-26.4
			c-16.5-13.7-41.2-11.4-54.9,5.1l-8.6,10.4c-0.9,1.1-2.3,1.8-3.8,1.8l0,0c-1.5,0-2.9-0.6-3.8-1.8l-9.2-10.9
			C381.6,223.6,357.1,221.4,340.7,235z" style="fill:#383A48;"/>
	</g>
	<g>
		<line x1="1582.9" y1="663.1" x2="1787.6" y2="858.9" style="fill:none;"/>
		<path d="M1787.6,863.9c-1.2,0-2.5-0.5-3.5-1.4l-204.7-195.7c-2-1.9-2.1-5.1-0.2-7.1s5.1-2.1,7.1-0.2L1791,855.2
			c2,1.9,2.1,5.1,0.2,7.1C1790.2,863.3,1788.9,863.9,1787.6,863.9z" style="fill:#383A48;"/>
	</g>
</g>
</svg>
