<?xml version="1.0" encoding="UTF-8"?>
<svg width="1591px" height="784px" viewBox="0 0 1591 784" version="1.1" xmlns="http://www.w3.org/2000/svg" xmlns:xlink="http://www.w3.org/1999/xlink">
    <!-- Generator: Sketch 59.1 (86144) - https://sketch.com -->
    <title>romantic-relationships</title>
    <desc>Created with Sketch.</desc>
    <g id="Page-1" stroke="none" stroke-width="1" fill="none" fill-rule="evenodd">
        <g id="romantic-relationships" transform="translate(-202.000000, -148.000000)">
            <g id="Group" transform="translate(202.000000, 148.000000)">
                <path d="M1006.4,33.8 C1005.7,31.8 1003.8,30.4 1001.7,30.4 L477.3,30.4 C474.5,30.4 472.3,32.6 472.3,35.4 C472.3,86.1 524.5,111.5 570.5,134 C590.4,143.7 609.2,152.8 623.4,163.4 C674.1,201.1 679.8,276.2 679.9,277 C680,278.8 681.1,280.5 682.8,281.2 C683.5,281.5 684.2,281.6 684.9,281.6 C686,281.6 687,281.3 687.9,280.6 L1004.6,39.4 C1006.4,38.1 1007.1,35.9 1006.4,33.8 Z" id="Path" fill="#F3F6E6" fill-rule="nonzero"></path>
                <path d="M651.1,772.6 L613.1,772.6 C600.4,771.6 585.3,769.4 569.4,765.1 C544,758.2 521.4,747.3 502.3,732.6 C478.5,714.3 459.9,690 447.2,660.5 C407,567.2 355.8,538.7 306.2,511.2 C259.9,485.4 216.1,461.1 187.1,382.2 C160.8,310.4 123.3,279.9 90.2,253 C68.8,235.6 48.7,219.2 34.2,193.7 C18,165.1 10.4,127.9 10.4,76.7 C10.4,73.9 8.2,71.7 5.4,71.7 C2.6,71.7 0.4,73.9 0.4,76.7 L0.4,777.8 C0.4,780.6 2.6,782.8 5.4,782.8 L612,782.8 C619.8,783.4 626.8,783.7 632.6,783.7 C643.9,783.7 651,782.9 651.6,782.8 C654.2,782.5 656.2,780.2 656,777.5 C655.9,774.7 653.8,772.6 651.1,772.6 Z" id="Path" fill="#F3F6E6" fill-rule="nonzero"></path>
                <g transform="translate(235.000000, 469.000000)" fill="#383A48" fill-rule="nonzero" id="Oval">
                    <circle cx="400.3" cy="5.1" r="5"></circle>
                    <circle cx="400.3" cy="29.8" r="5"></circle>
                    <circle cx="400.3" cy="54.5" r="5"></circle>
                    <circle cx="400.3" cy="79.1" r="5"></circle>
                    <circle cx="400.3" cy="103.8" r="5"></circle>
                    <circle cx="400.3" cy="128.5" r="5"></circle>
                    <circle cx="400.3" cy="153.1" r="5"></circle>
                    <circle cx="400.3" cy="177.8" r="5"></circle>
                    <circle cx="400.3" cy="202.5" r="5"></circle>
                    <circle cx="400.3" cy="227.1" r="5"></circle>
                    <circle cx="400.3" cy="251.8" r="5"></circle>
                    <circle cx="400.3" cy="276.5" r="5"></circle>
                    <circle cx="400.3" cy="301.1" r="5"></circle>
                    <circle cx="375.6" cy="5.1" r="5"></circle>
                    <circle cx="375.6" cy="29.8" r="5"></circle>
                    <circle cx="375.6" cy="54.5" r="5"></circle>
                    <circle cx="375.6" cy="79.1" r="5"></circle>
                    <circle cx="375.6" cy="103.8" r="5"></circle>
                    <circle cx="375.6" cy="128.5" r="5"></circle>
                    <circle cx="375.6" cy="153.1" r="5"></circle>
                    <circle cx="375.6" cy="177.8" r="5"></circle>
                    <circle cx="375.6" cy="202.5" r="5"></circle>
                    <circle cx="375.6" cy="227.1" r="5"></circle>
                    <circle cx="375.6" cy="251.8" r="5"></circle>
                    <circle cx="375.6" cy="276.5" r="5"></circle>
                    <circle cx="375.6" cy="301.1" r="5"></circle>
                    <circle cx="351" cy="5.1" r="5"></circle>
                    <circle cx="351" cy="29.8" r="5"></circle>
                    <circle cx="351" cy="54.5" r="5"></circle>
                    <circle cx="351" cy="79.1" r="5"></circle>
                    <circle cx="351" cy="103.8" r="5"></circle>
                    <circle cx="351" cy="128.5" r="5"></circle>
                    <circle cx="351" cy="153.1" r="5"></circle>
                    <circle cx="351" cy="177.8" r="5"></circle>
                    <circle cx="351" cy="202.5" r="5"></circle>
                    <circle cx="351" cy="227.1" r="5"></circle>
                    <circle cx="351" cy="251.8" r="5"></circle>
                    <circle cx="351" cy="276.5" r="5"></circle>
                    <circle cx="351" cy="301.1" r="5"></circle>
                    <circle cx="326.3" cy="5.1" r="5"></circle>
                    <circle cx="326.3" cy="29.8" r="5"></circle>
                    <circle cx="326.3" cy="54.5" r="5"></circle>
                    <circle cx="326.3" cy="79.1" r="5"></circle>
                    <circle cx="326.3" cy="103.8" r="5"></circle>
                    <circle cx="326.3" cy="128.5" r="5"></circle>
                    <circle cx="326.3" cy="153.1" r="5"></circle>
                    <circle cx="326.3" cy="177.8" r="5"></circle>
                    <circle cx="326.3" cy="202.5" r="5"></circle>
                    <circle cx="326.3" cy="227.1" r="5"></circle>
                    <circle cx="326.3" cy="251.8" r="5"></circle>
                    <circle cx="326.3" cy="276.5" r="5"></circle>
                    <circle cx="326.3" cy="301.1" r="5"></circle>
                    <circle cx="301.6" cy="5.1" r="5"></circle>
                    <circle cx="301.6" cy="29.8" r="5"></circle>
                    <circle cx="301.6" cy="54.5" r="5"></circle>
                    <circle cx="301.6" cy="79.1" r="5"></circle>
                    <circle cx="301.6" cy="103.8" r="5"></circle>
                    <circle cx="301.6" cy="128.5" r="5"></circle>
                    <circle cx="301.6" cy="153.1" r="5"></circle>
                    <circle cx="301.6" cy="177.8" r="5"></circle>
                    <circle cx="301.6" cy="202.5" r="5"></circle>
                    <circle cx="301.6" cy="227.1" r="5"></circle>
                    <circle cx="301.6" cy="251.8" r="5"></circle>
                    <circle cx="301.6" cy="276.5" r="5"></circle>
                    <circle cx="301.6" cy="301.1" r="5"></circle>
                    <circle cx="277" cy="5.1" r="5"></circle>
                    <circle cx="277" cy="29.8" r="5"></circle>
                    <circle cx="277" cy="54.5" r="5"></circle>
                    <circle cx="277" cy="79.1" r="5"></circle>
                    <circle cx="277" cy="103.8" r="5"></circle>
                    <circle cx="277" cy="128.5" r="5"></circle>
                    <circle cx="277" cy="153.1" r="5"></circle>
                    <circle cx="277" cy="177.8" r="5"></circle>
                    <circle cx="277" cy="202.5" r="5"></circle>
                    <circle cx="277" cy="227.1" r="5"></circle>
                    <circle cx="277" cy="251.8" r="5"></circle>
                    <circle cx="277" cy="276.5" r="5"></circle>
                    <circle cx="277" cy="301.1" r="5"></circle>
                    <circle cx="252.3" cy="5.1" r="5"></circle>
                    <circle cx="252.3" cy="29.8" r="5"></circle>
                    <circle cx="252.3" cy="54.5" r="5"></circle>
                    <circle cx="252.3" cy="79.1" r="5"></circle>
                    <circle cx="252.3" cy="103.8" r="5"></circle>
                    <circle cx="252.3" cy="128.5" r="5"></circle>
                    <circle cx="252.3" cy="153.1" r="5"></circle>
                    <circle cx="252.3" cy="177.8" r="5"></circle>
                    <circle cx="252.3" cy="202.5" r="5"></circle>
                    <circle cx="252.3" cy="227.1" r="5"></circle>
                    <circle cx="252.3" cy="251.8" r="5"></circle>
                    <circle cx="252.3" cy="276.5" r="5"></circle>
                    <circle cx="252.3" cy="301.1" r="5"></circle>
                    <circle cx="227.6" cy="5.1" r="5"></circle>
                    <circle cx="227.6" cy="29.8" r="5"></circle>
                    <circle cx="227.6" cy="54.5" r="5"></circle>
                    <circle cx="227.6" cy="79.1" r="5"></circle>
                    <circle cx="227.6" cy="103.8" r="5"></circle>
                    <circle cx="227.6" cy="128.5" r="5"></circle>
                    <circle cx="227.6" cy="153.1" r="5"></circle>
                    <circle cx="227.6" cy="177.8" r="5"></circle>
                    <circle cx="227.6" cy="202.5" r="5"></circle>
                    <circle cx="227.6" cy="227.1" r="5"></circle>
                    <circle cx="227.6" cy="251.8" r="5"></circle>
                    <circle cx="227.6" cy="276.5" r="5"></circle>
                    <circle cx="227.6" cy="301.1" r="5"></circle>
                    <circle cx="203" cy="5.1" r="5"></circle>
                    <circle cx="203" cy="29.8" r="5"></circle>
                    <circle cx="203" cy="54.5" r="5"></circle>
                    <circle cx="203" cy="79.1" r="5"></circle>
                    <circle cx="203" cy="103.8" r="5"></circle>
                    <circle cx="203" cy="128.5" r="5"></circle>
                    <circle cx="203" cy="153.1" r="5"></circle>
                    <circle cx="203" cy="177.8" r="5"></circle>
                    <circle cx="203" cy="202.5" r="5"></circle>
                    <circle cx="203" cy="227.1" r="5"></circle>
                    <circle cx="203" cy="251.8" r="5"></circle>
                    <circle cx="203" cy="276.5" r="5"></circle>
                    <circle cx="203" cy="301.1" r="5"></circle>
                    <circle cx="178.3" cy="5.1" r="5"></circle>
                    <circle cx="178.3" cy="29.8" r="5"></circle>
                    <circle cx="178.3" cy="54.5" r="5"></circle>
                    <circle cx="178.3" cy="79.1" r="5"></circle>
                    <circle cx="178.3" cy="103.8" r="5"></circle>
                    <circle cx="178.3" cy="128.5" r="5"></circle>
                    <circle cx="178.3" cy="153.1" r="5"></circle>
                    <circle cx="178.3" cy="177.8" r="5"></circle>
                    <circle cx="178.3" cy="202.5" r="5"></circle>
                    <circle cx="178.3" cy="227.1" r="5"></circle>
                    <circle cx="178.3" cy="251.8" r="5"></circle>
                    <circle cx="178.3" cy="276.5" r="5"></circle>
                    <circle cx="178.3" cy="301.1" r="5"></circle>
                    <circle cx="153.6" cy="5.1" r="5"></circle>
                    <circle cx="153.6" cy="29.8" r="5"></circle>
                    <circle cx="153.6" cy="54.5" r="5"></circle>
                    <circle cx="153.6" cy="79.1" r="5"></circle>
                    <circle cx="153.6" cy="103.8" r="5"></circle>
                    <circle cx="153.6" cy="128.5" r="5"></circle>
                    <circle cx="153.6" cy="153.1" r="5"></circle>
                    <circle cx="153.6" cy="177.8" r="5"></circle>
                    <circle cx="153.6" cy="202.5" r="5"></circle>
                    <circle cx="153.6" cy="227.1" r="5"></circle>
                    <circle cx="153.6" cy="251.8" r="5"></circle>
                    <circle cx="153.6" cy="276.5" r="5"></circle>
                    <circle cx="153.6" cy="301.1" r="5"></circle>
                    <circle cx="129" cy="5.1" r="5"></circle>
                    <circle cx="129" cy="29.8" r="5"></circle>
                    <circle cx="129" cy="54.5" r="5"></circle>
                    <circle cx="129" cy="79.1" r="5"></circle>
                    <circle cx="129" cy="103.8" r="5"></circle>
                    <circle cx="129" cy="128.5" r="5"></circle>
                    <circle cx="129" cy="153.1" r="5"></circle>
                    <circle cx="129" cy="177.8" r="5"></circle>
                    <circle cx="129" cy="202.5" r="5"></circle>
                    <circle cx="129" cy="227.1" r="5"></circle>
                    <circle cx="129" cy="251.8" r="5"></circle>
                    <circle cx="129" cy="276.5" r="5"></circle>
                    <circle cx="129" cy="301.1" r="5"></circle>
                    <circle cx="104.3" cy="5.1" r="5"></circle>
                    <circle cx="104.3" cy="29.8" r="5"></circle>
                    <circle cx="104.3" cy="54.5" r="5"></circle>
                    <circle cx="104.3" cy="79.1" r="5"></circle>
                    <circle cx="104.3" cy="103.8" r="5"></circle>
                    <circle cx="104.3" cy="128.5" r="5"></circle>
                    <circle cx="104.3" cy="153.1" r="5"></circle>
                    <circle cx="104.3" cy="177.8" r="5"></circle>
                    <circle cx="104.3" cy="202.5" r="5"></circle>
                    <circle cx="104.3" cy="227.1" r="5"></circle>
                    <circle cx="104.3" cy="251.8" r="5"></circle>
                    <circle cx="104.3" cy="276.5" r="5"></circle>
                    <circle cx="104.3" cy="301.1" r="5"></circle>
                    <circle cx="79.6" cy="5.1" r="5"></circle>
                    <circle cx="79.6" cy="29.8" r="5"></circle>
                    <circle cx="79.6" cy="54.5" r="5"></circle>
                    <circle cx="79.6" cy="79.1" r="5"></circle>
                    <circle cx="79.6" cy="103.8" r="5"></circle>
                    <circle cx="79.6" cy="128.5" r="5"></circle>
                    <circle cx="79.6" cy="153.1" r="5"></circle>
                    <circle cx="79.6" cy="177.8" r="5"></circle>
                    <circle cx="79.6" cy="202.5" r="5"></circle>
                    <circle cx="79.6" cy="227.1" r="5"></circle>
                    <circle cx="79.6" cy="251.8" r="5"></circle>
                    <circle cx="79.6" cy="276.5" r="5"></circle>
                    <circle cx="79.6" cy="301.1" r="5"></circle>
                    <circle cx="55" cy="5.1" r="5"></circle>
                    <circle cx="55" cy="29.8" r="5"></circle>
                    <circle cx="55" cy="54.5" r="5"></circle>
                    <circle cx="55" cy="79.1" r="5"></circle>
                    <circle cx="55" cy="103.8" r="5"></circle>
                    <circle cx="55" cy="128.5" r="5"></circle>
                    <circle cx="55" cy="153.1" r="5"></circle>
                    <circle cx="55" cy="177.8" r="5"></circle>
                    <circle cx="55" cy="202.5" r="5"></circle>
                    <circle cx="55" cy="227.1" r="5"></circle>
                    <circle cx="55" cy="251.8" r="5"></circle>
                    <circle cx="55" cy="276.5" r="5"></circle>
                    <circle cx="55" cy="301.1" r="5"></circle>
                    <circle cx="30.3" cy="5.1" r="5"></circle>
                    <circle cx="30.3" cy="29.8" r="5"></circle>
                    <circle cx="30.3" cy="54.5" r="5"></circle>
                    <circle cx="30.3" cy="79.1" r="5"></circle>
                    <circle cx="30.3" cy="103.8" r="5"></circle>
                    <circle cx="30.3" cy="128.5" r="5"></circle>
                    <circle cx="30.3" cy="153.1" r="5"></circle>
                    <circle cx="30.3" cy="177.8" r="5"></circle>
                    <circle cx="30.3" cy="202.5" r="5"></circle>
                    <circle cx="30.3" cy="227.1" r="5"></circle>
                    <circle cx="30.3" cy="251.8" r="5"></circle>
                    <circle cx="30.3" cy="276.5" r="5"></circle>
                    <circle cx="30.3" cy="301.1" r="5"></circle>
                    <circle cx="5.6" cy="5.1" r="5"></circle>
                    <circle cx="5.6" cy="29.8" r="5"></circle>
                    <circle cx="5.6" cy="54.5" r="5"></circle>
                    <circle cx="5.6" cy="79.1" r="5"></circle>
                    <circle cx="5.6" cy="103.8" r="5"></circle>
                    <circle cx="5.6" cy="128.5" r="5"></circle>
                    <circle cx="5.6" cy="153.1" r="5"></circle>
                    <circle cx="5.6" cy="177.8" r="5"></circle>
                    <circle cx="5.6" cy="202.5" r="5"></circle>
                    <circle cx="5.6" cy="227.1" r="5"></circle>
                    <circle cx="5.6" cy="251.8" r="5"></circle>
                    <circle cx="5.6" cy="276.5" r="5"></circle>
                    <circle cx="5.6" cy="301.1" r="5"></circle>
                </g>
                <g transform="translate(753.000000, 30.000000)" fill-rule="nonzero">
                    <g>
                        <path d="M770.9,5.4 L304.1,5.4 C139,5.4 5.1,139.3 5.1,304.4 L5.1,629 L770.9,629 L770.9,5.4 L770.9,5.4 Z" id="Path" fill="#F3F6E6"></path>
                        <path d="M770.9,634 L5.2,634 C2.4,634 0.2,631.8 0.2,629 L0.2,304.4 C0.2,223.2 31.8,146.9 89.2,89.4 C146.6,32 223,0.4 304.2,0.4 L771,0.4 C773.8,0.4 776,2.6 776,5.4 L776,629 C775.9,631.7 773.7,634 770.9,634 Z M10.2,624 L766,624 L766,10.4 L304.2,10.4 C225.7,10.4 151.8,41 96.3,96.5 C40.8,152 10.2,225.9 10.2,304.4 L10.2,624 L10.2,624 Z" id="Shape" fill="#383A48"></path>
                    </g>
                    <g>
                        <polygon id="Path" fill="#E0719E" points="5.2 202.3 770.9 202.3 770.9 5.4 207.7 5.4"></polygon>
                        <path d="M770.9,207.3 L5.2,207.3 C3.2,207.3 1.3,206.1 0.6,204.2 C-0.1,202.3 0.3,200.2 1.7,198.7 L204.3,1.8 C205.2,0.9 206.5,0.4 207.8,0.4 L771,0.4 C773.8,0.4 776,2.6 776,5.4 L776,202.3 C775.9,205.1 773.7,207.3 770.9,207.3 Z M17.5,197.3 L766,197.3 L766,10.4 L209.8,10.4 L17.5,197.3 Z" id="Shape" fill="#383A48"></path>
                    </g>
                </g>
                <g transform="translate(701.000000, 81.000000)" fill-rule="nonzero">
                    <g transform="translate(0.000000, 1.000000)">
                        <path d="M771.4,4.9 L272.4,4.9 C125.1,4.9 5.7,124.3 5.7,271.6 L5.7,628.4 L771.5,628.4 L771.4,4.9 L771.4,4.9 Z" id="Path" fill="#F3F6E6"></path>
                        <path d="M771.4,633.5 L5.6,633.5 C2.8,633.5 0.6,631.3 0.6,628.5 L0.6,271.7 C0.6,199.1 28.9,130.9 80.2,79.6 C131.5,28.3 199.8,2.84217094e-14 272.3,2.84217094e-14 L771.3,2.84217094e-14 C774.1,2.84217094e-14 776.303279,2.2 776.303279,5 L776.303279,628.5 C776.4,631.2 774.2,633.5 771.4,633.5 Z M10.6,623.5 L766.4,623.5 L766.4,9.9 L272.4,9.9 C202.5,9.9 136.8,37.1 87.3,86.6 C37.9,136 10.6,201.8 10.6,271.7 L10.6,623.5 L10.6,623.5 Z" id="Shape" fill="#383A48"></path>
                    </g>
                    <g>
                        <polygon id="Path" fill="#F6E049" points="5.6 202.8 771.4 202.8 771.4 5.9 177.3 5.9"></polygon>
                        <path d="M771.4,207.8 L5.6,207.8 C3.6,207.8 1.9,206.7 1,204.9 C0.2,203.1 0.5,201 1.8,199.5 L173.5,2.6 C174.4,1.5 175.8,0.9 177.3,0.9 L771.4,0.9 C774.2,0.9 776.4,3.1 776.4,5.9 L776.4,202.8 C776.4,205.6 774.2,207.8 771.4,207.8 Z M16.6,197.8 L766.4,197.8 L766.4,10.9 L179.6,10.9 L16.6,197.8 Z" id="Shape" fill="#383A48"></path>
                    </g>
                </g>
                <g transform="translate(646.000000, 149.000000)" fill-rule="nonzero">
                    <g>
                        <path d="M770.9,5.1 L190.8,5.1 C88.2,5.1 5.1,88.2 5.1,190.8 L5.1,628.6 L770.9,628.6 L770.9,5.1 Z" id="Path" fill="#F3F6E6"></path>
                        <path d="M770.9,633.6 L5.1,633.6 C2.3,633.6 0.1,631.4 0.1,628.6 L0.1,190.8 C0.1,85.6 85.7,0.1 190.8,0.1 L770.9,0.1 C773.7,0.1 775.9,2.3 775.9,5.1 L775.9,628.6 C775.9,631.4 773.6,633.6 770.9,633.6 Z M10.1,623.6 L765.9,623.6 L765.9,10.1 L190.8,10.1 C91.2,10.1 10.1,91.2 10.1,190.8 L10.1,623.6 L10.1,623.6 Z" id="Shape" fill="#383A48"></path>
                    </g>
                    <g>
                        <polygon id="Path" fill="#AAC6FC" points="5.1 202 770.9 202 770.9 5.1 121.2 5.1"></polygon>
                        <path d="M770.9,207 L5.1,207 C3.3,207 1.6,206 0.8,204.5 C-0.1,202.9 -0.1,201 0.8,199.5 L116.9,2.6 C117.8,1.1 119.4,0.1 121.2,0.1 L770.9,0.1 C773.7,0.1 775.9,2.3 775.9,5.1 L775.9,202 C775.9,204.7 773.6,207 770.9,207 Z M13.9,197 L765.9,197 L765.9,10.1 L124.1,10.1 L13.9,197 Z" id="Shape" fill="#383A48"></path>
                    </g>
                    <g transform="translate(536.000000, 81.000000)" fill="#383A48">
                        <g transform="translate(131.000000, 3.000000)" id="Rectangle">
                            <rect transform="translate(19.263280, 19.488620) rotate(-45.000000) translate(-19.263280, -19.488620) " x="14.263328" y="-2.41116998" width="9.9999041" height="43.79958"></rect>
                            <rect transform="translate(19.263280, 19.488620) rotate(-45.000000) translate(-19.263280, -19.488620) " x="-2.63650998" y="14.488668" width="43.79958" height="9.9999041"></rect>
                        </g>
                        <path d="M106.9,44.4 L63,44.4 L63,0.6 L106.8,0.6 L106.9,44.4 L106.9,44.4 Z M73,34.4 L96.8,34.4 L96.8,10.6 L73,10.6 L73,34.4 Z" id="Shape"></path>
                        <rect id="Rectangle" x="0.7" y="34.4" width="33.8" height="10"></rect>
                    </g>
                    <g transform="translate(65.000000, 337.000000)">
                        <g>
                            <path d="M122.7,64.5 C122.7,84.1 113.1,101.4 98.4,112.1 C88.7,119.2 76.7,123.3 63.8,123.3 C50.9,123.3 38.9,119.1 29.2,112.1 C14.5,101.4 4.9,84 4.9,64.5 C4.9,32 31.3,5.6 63.8,5.6 C96.3,5.6 122.7,32 122.7,64.5 Z" id="Path" fill="#EEBED3"></path>
                            <path d="M63.9,128.4 C50.3,128.4 37.3,124.2 26.4,116.2 C9.9,104.2 0.1,84.9 0.1,64.5 C0.1,29.3 28.8,0.6 64,0.6 C99.2,0.6 127.9,29.3 127.9,64.5 C127.9,84.9 118.1,104.2 101.6,116.2 C90.5,124.2 77.5,128.4 63.9,128.4 Z M63.9,10.6 C34.2,10.6 10,34.8 10,64.5 C10,81.7 18.3,98 32.2,108.1 C41.4,114.8 52.4,118.4 63.8,118.4 C75.3,118.4 86.2,114.8 95.5,108.1 C109.4,98 117.7,81.7 117.7,64.5 C117.7,34.8 93.6,10.6 63.9,10.6 Z" id="Shape" fill="#383A48"></path>
                        </g>
                        <g transform="translate(33.000000, 26.000000)">
                            <circle id="Oval" fill="#EEBED3" cx="30.9" cy="31.7" r="25.9"></circle>
                            <path d="M30.9,62.6 C13.9,62.6 0,48.7 0,31.7 C0,14.7 13.9,0.8 30.9,0.8 C47.9,0.8 61.8,14.7 61.8,31.7 C61.8,48.7 47.9,62.6 30.9,62.6 Z M30.9,10.8 C19.4,10.8 10,20.2 10,31.7 C10,43.2 19.4,52.6 30.9,52.6 C42.4,52.6 51.8,43.2 51.8,31.7 C51.8,20.2 42.4,10.8 30.9,10.8 Z" id="Shape" fill="#383A48"></path>
                        </g>
                        <g transform="translate(24.000000, 77.000000)">
                            <path d="M74.5,35.2 C64.8,42.3 52.8,46.4 39.9,46.4 C27,46.4 15,42.2 5.3,35.2 C6.8,18.8 20.6,6 37.4,6 L42.3,6 C59.1,5.9 72.9,18.8 74.5,35.2 Z" id="Path" fill="#F3F6E6"></path>
                            <path d="M39.9,51.4 C26.3,51.4 13.3,47.2 2.4,39.2 C1,38.2 0.2,36.4 0.4,34.7 C2.2,15.4 18.2,0.9 37.5,0.9 L42.4,0.9 C61.8,0.9 77.7,15.4 79.5,34.7 C79.7,36.5 78.9,38.2 77.5,39.2 C66.5,47.2 53.5,51.4 39.9,51.4 Z M10.7,32.8 C19.4,38.4 29.4,41.4 39.9,41.4 C50.4,41.4 60.4,38.4 69.1,32.8 C66.6,20.1 55.5,10.9 42.3,10.9 L37.4,10.9 C24.2,10.9 13.2,20.1 10.7,32.8 Z" id="Shape" fill="#383A48"></path>
                        </g>
                    </g>
                    <g transform="translate(226.000000, 251.000000)">
                        <path d="M224.8,0.4 L54.2,0.4 C24.5,0.4 0.4,24.5 0.4,54.2 L0.4,145.5 C0.4,147.2 1.3,148.8 2.8,149.7 C3.6,150.2 4.5,150.5 5.4,150.5 C6.2,150.5 6.9,150.3 7.6,150 L41.3,133.4 C50.6,129.7 60.3,127.8 70.3,127.8 L224.8,127.8 C254.5,127.8 278.6,103.7 278.6,74 L278.6,54.2 C278.6,24.5 254.4,0.4 224.8,0.4 Z" id="Path" fill="#7FD6C2"></path>
                        <g transform="translate(100.000000, 31.000000)">
                            <path d="M47,12.7 L43.2,17.2 L39.2,12.5 C32.4,4.4 20.4,3.4 12.2,10.1 L12.2,10.1 C4,16.9 2.9,29.1 9.8,37.3 L43.4,68.1 L76.6,37.3 C83.4,29.1 82.3,17 74.1,10.2 L74.1,10.2 C65.9,3.4 53.8,4.5 47,12.7 Z" id="Path" fill="#E0719E"></path>
                            <path d="M43.4,73.1 C42.2,73.1 41,72.7 40,71.8 L6.4,41 C6.2,40.9 6.1,40.7 6,40.5 C1.8,35.5 -0.2,29.2 0.4,22.7 C1,16.2 4.1,10.4 9.1,6.2 C19.3,-2.3 34.6,-0.9 43.1,9.2 L43.3,9.4 C51.8,-0.8 67.1,-2.2 77.4,6.3 C82.4,10.4 85.5,16.3 86.1,22.7 C86.7,29.2 84.8,35.5 80.6,40.4 C80.5,40.6 80.3,40.7 80.2,40.9 L47,71.7 C45.8,72.7 44.6,73.1 43.4,73.1 Z M13.4,33.9 L43.4,61.4 L72.9,33.9 C75.2,31 76.3,27.4 75.9,23.7 C75.5,19.9 73.7,16.5 70.8,14.1 C64.8,9.1 55.8,9.9 50.8,16 L50.8,16 L47,20.5 C46.1,21.6 44.7,22.3 43.2,22.3 L43.2,22.3 C41.7,22.3 40.3,21.7 39.4,20.5 L35.4,15.8 C30.4,9.9 21.4,9.1 15.4,14 C12.4,16.4 10.6,19.9 10.3,23.7 C10,27.4 11.1,31 13.4,33.9 Z" id="Shape" fill="#383A48"></path>
                        </g>
                    </g>
                    <g transform="translate(383.000000, 415.000000)">
                        <g>
                            <path d="M53.8,5.6 L253.7,5.6 C280.7,5.6 302.5,27.5 302.5,54.4 L302.5,74.2 L302.5,145.7 L268.6,129 C258.7,125 248.2,123 237.6,123 L206.8,123 L53.7,123 C26.7,123 4.9,101.1 4.9,74.2 L4.9,54.4 C4.9,27.5 26.8,5.6 53.8,5.6 Z" id="Path" fill="#F3F6E6"></path>
                            <path d="M302.5,150.7 C301.7,150.7 301,150.5 300.3,150.2 L266.6,133.6 C257.3,129.9 247.6,128 237.6,128 L53.8,128 C24.1,128 0,103.9 0,74.2 L0,54.4 C0,24.7 24.1,0.6 53.8,0.6 L253.7,0.6 C283.4,0.6 307.5,24.7 307.5,54.4 L307.5,145.7 C307.5,147.4 306.6,149 305.1,149.9 C304.3,150.4 303.4,150.7 302.5,150.7 Z M53.8,10.6 C29.6,10.6 10,30.3 10,54.4 L10,74.2 C10,98.4 29.7,118 53.8,118 L237.6,118 C248.9,118 260,120.1 270.5,124.4 C270.6,124.4 270.7,124.5 270.8,124.6 L297.5,137.7 L297.5,54.5 C297.5,30.3 277.8,10.7 253.7,10.7 L53.8,10.6 L53.8,10.6 Z" id="Shape" fill="#383A48"></path>
                        </g>
                        <g transform="translate(110.000000, 31.000000)">
                            <path d="M47.6,12.1 L43.8,16.6 L39.8,11.9 C33,3.8 21,2.8 12.8,9.5 L12.8,9.5 C4.6,16.3 3.5,28.5 10.4,36.7 L44,67.5 L77.2,36.7 C84,28.5 82.9,16.4 74.7,9.6 L74.7,9.6 C66.4,2.8 54.3,3.9 47.6,12.1 Z" id="Path" fill="#E0719E"></path>
                            <path d="M44,72.5 C42.8,72.5 41.6,72.1 40.6,71.2 L7,40.4 C6.8,40.3 6.7,40.1 6.6,39.9 C2.4,34.9 0.4,28.6 1,22.1 C1.6,15.6 4.6,9.8 9.6,5.6 C9.6,5.6 9.6,5.6 9.7,5.6 C19.9,-2.8 35.1,-1.5 43.7,8.6 L43.9,8.8 C52.4,-1.4 67.7,-2.8 78,5.7 C83,9.8 86.1,15.7 86.7,22.1 C87.3,28.6 85.4,34.8 81.2,39.8 C81.1,40 80.9,40.1 80.8,40.3 L47.6,71.1 C46.4,72 45.2,72.5 44,72.5 Z M14,33.2 L44,60.7 L73.5,33.3 C75.8,30.4 76.9,26.8 76.5,23.1 C76.1,19.3 74.3,15.9 71.4,13.5 C65.4,8.5 56.4,9.3 51.4,15.4 L51.4,15.4 L47.6,19.9 C46.7,21 45.3,21.7 43.8,21.7 L43.8,21.7 C42.3,21.7 40.9,21.1 40,19.9 L36,15.2 C31,9.3 22.1,8.5 16.1,13.4 L16.1,13.4 C13.2,15.8 11.3,19.3 11,23.1 C10.6,26.7 11.7,30.3 14,33.2 Z" id="Shape" fill="#383A48"></path>
                        </g>
                    </g>
                </g>
                <g>
                    <path d="M606.8,378.7 L558.3,298.4 C509.6,217.8 404.3,191.8 323.7,240.5 L323.7,240.5 C293.8,258.6 270.4,285 256.2,316.8 C249.8,331 239.4,342.8 226.1,350.9 C212.8,359 197.5,362.7 182,361.7 C147.2,359.5 113,367.9 83.1,386 C44,409.6 16.5,447 5.6,491.3 C-5.3,535.6 1.7,581.5 25.3,620.6 L73.8,700.9 C97.4,740 134.8,767.5 179.1,778.4 C192.8,781.8 206.6,783.4 220.3,783.4 C251.1,783.4 281.4,775 308.4,758.7 C338.3,740.6 361.7,714.2 375.9,682.4 C382.3,668.2 392.7,656.4 406,648.3 C419.3,640.3 434.6,636.5 450.1,637.5 C484.9,639.7 519.1,631.3 549,613.2 C588.1,589.6 615.6,552.2 626.5,507.9 C637.4,463.7 630.4,417.7 606.8,378.7 Z" id="Path" fill="#383A48" fill-rule="nonzero"></path>
                    <g transform="translate(44.000000, 0.000000)">
                        <g transform="translate(0.000000, 189.000000)" fill-rule="nonzero">
                            <path d="M325.9,29.4 L325.9,29.4 C295.9,47.5 273.7,73.7 260.4,103.4 C246.6,134.3 215.1,153.3 181.3,151.2 C148.8,149.2 115.3,156.7 85.3,174.8 L85.3,174.8 C6.9,222.2 -18.3,324.1 29.1,402.6 L77.6,482.9 C125,561.3 227,586.4 305.4,539 L305.4,539 C335.4,520.9 357.6,494.7 370.9,465 C384.7,434.1 416.2,415.1 450,417.2 C482.5,419.2 516,411.7 546,393.6 L546,393.6 C624.4,346.2 649.6,244.3 602.2,165.8 L553.7,85.5 C506.3,7.1 404.3,-18 325.9,29.4 Z" id="Path" fill="#F6E049"></path>
                            <path d="M391.5,238.4 C379.9,219.3 361.6,205.8 339.9,200.4 C318.2,195.1 295.7,198.5 276.6,210 C237.1,233.9 224.4,285.4 248.3,324.9 C259.9,344 278.2,357.5 299.9,362.9 C306.6,364.6 313.4,365.4 320.1,365.4 C335.2,365.4 350,361.3 363.2,353.3 C382.3,341.7 395.8,323.4 401.2,301.7 C406.6,280 403.1,257.5 391.5,238.4 Z" id="Path" fill="#383A48"></path>
                            <path d="M219.9,567.9 C162,567.9 105.4,538.5 73.4,485.4 L24.9,405.1 C-23.8,324.5 2.1,219.2 82.8,170.5 C112.7,152.4 147,144 181.7,146.2 C197.3,147.2 212.5,143.4 225.8,135.4 C239.1,127.4 249.5,115.6 255.9,101.3 C270.1,69.5 293.5,43.1 323.4,25 L323.4,25 C362.5,1.4 408.4,-5.6 452.7,5.3 C497,16.2 534.4,43.8 558,82.8 L606.5,163.1 C655.2,243.7 629.3,349 548.6,397.7 C518.7,415.8 484.5,424.2 449.7,422 C434.1,421 418.9,424.8 405.6,432.8 C392.3,440.8 381.9,452.6 375.5,466.9 C361.3,498.7 337.9,525.1 308,543.2 C280.4,560 249.9,567.9 219.9,567.9 Z M170.8,155.9 C141.6,155.9 113.1,163.8 87.8,179.1 C51,201.3 25.1,236.5 14.8,278.3 C4.5,320 11.1,363.3 33.3,400 L81.8,480.3 C127.7,556.2 226.8,580.7 302.7,534.8 C330.9,517.8 352.9,492.9 366.3,463 C373.5,446.9 385.3,433.6 400.3,424.5 C415.4,415.4 432.6,411.2 450.2,412.3 C482.9,414.4 515.1,406.4 543.3,389.4 C619.2,343.5 643.7,244.4 597.8,168.5 L549.3,88.2 C527.1,51.4 491.9,25.5 450.1,15.2 C408.4,4.9 365.1,11.5 328.4,33.7 L328.4,33.7 C300.2,50.7 278.2,75.6 264.8,105.5 C257.6,121.6 245.8,134.9 230.8,144 C215.7,153.1 198.5,157.3 180.9,156.2 C177.6,156 174.2,155.9 170.8,155.9 Z" id="Shape" fill="#383A48"></path>
                        </g>
                        <g transform="translate(349.000000, 64.000000)" fill-rule="nonzero">
                            <rect id="Rectangle" fill="#EEBED3" transform="translate(291.970325, 212.602900) rotate(-31.143570) translate(-291.970325, -212.602900) " x="-4.48866471" y="150.301011" width="592.917979" height="124.603778"></rect>
                            <path d="M70.5,424.3 C68.8,424.3 67.2,423.4 66.2,421.9 L1.7,315.2 C1,314.1 0.8,312.7 1.1,311.4 C1.4,310.1 2.2,309 3.4,308.3 L510.8,1.7 C513.2,0.3 516.2,1 517.7,3.4 L582.2,110.1 C582.9,111.2 583.1,112.6 582.8,113.9 C582.5,115.2 581.7,116.3 580.5,117 L73,423.6 C72.2,424.1 71.3,424.3 70.5,424.3 Z M12.8,314.3 L72.1,412.4 L571,111 L511.7,12.9 L12.8,314.3 Z" id="Shape" fill="#383A48"></path>
                        </g>
                        <g transform="translate(768.000000, 6.000000)" fill-rule="nonzero">
                            <polygon id="Path" fill="#EEBED3" points="236.7 149.3 70.1 224.3 5.6 117.6 149.5 5"></polygon>
                            <path d="M70.1,229.3 C68.4,229.3 66.7,228.4 65.8,226.9 L1.3,120.2 C3.33066907e-16,118 0.5,115.2 2.5,113.7 L146.4,1.1 C147.5,0.2 149,-0.1 150.4,0.1 C151.8,0.4 153,1.2 153.8,2.4 L241,146.7 C241.7,147.9 241.9,149.4 241.5,150.8 C241.1,152.2 240.1,153.3 238.8,153.9 L72.2,228.9 C71.5,229.2 70.8,229.3 70.1,229.3 Z M12.2,118.8 L72.1,217.9 L229.5,147 L148.1,12.4 L12.2,118.8 Z" id="Shape" fill="#383A48"></path>
                        </g>
                        <g transform="translate(137.000000, 476.000000)" fill-rule="nonzero">
                            <rect id="Rectangle" fill="#F6E049" transform="translate(56.997440, 70.722730) rotate(-31.143570) translate(-56.997440, -70.722730) " x="34.6967638" y="8.42084078" width="44.6013525" height="124.603778"></rect>
                            <path d="M70.2,140.6 C69.8,140.6 69.4,140.6 69,140.5 C67.7,140.2 66.6,139.4 65.9,138.2 L1.4,31.5 C1.66533454e-15,29.1 0.7,26.1 3.1,24.6 L41.2,1.6 C42.3,0.9 43.7,0.7 45,1 C46.3,1.3 47.4,2.1 48.1,3.3 L112.6,110 C114,112.4 113.3,115.4 110.9,116.9 L72.8,139.9 C72,140.3 71.1,140.6 70.2,140.6 Z M12.6,30.6 L71.9,128.7 L101.5,110.8 L42.2,12.7 L12.6,30.6 Z" id="Shape" fill="#383A48"></path>
                        </g>
                        <g transform="translate(191.000000, 144.000000)" id="Path">
                            <line x1="598.1" y1="5.2" x2="5.3" y2="363.4"></line>
                            <path d="M5.3,368.4 C3.6,368.4 2,367.5 1,366 C-0.4,363.6 0.3,360.6 2.7,359.1 L595.5,0.9 C597.9,-0.5 600.9,0.2 602.4,2.6 C603.9,5 603.1,8 600.7,9.5 L7.9,367.7 C7.1,368.2 6.2,368.4 5.3,368.4 Z" fill="#383A48" fill-rule="nonzero"></path>
                        </g>
                        <g transform="translate(208.000000, 171.000000)" id="Path">
                            <line x1="597.8" y1="6" x2="5.1" y2="364.2"></line>
                            <path d="M5.1,369.2 C3.4,369.2 1.8,368.3 0.8,366.8 C-0.6,364.4 0.1,361.4 2.5,359.9 L595.3,1.7 C597.7,0.3 600.7,1 602.2,3.4 C603.6,5.8 602.9,8.8 600.5,10.3 L7.7,368.5 C6.9,369 6,369.2 5.1,369.2 Z" fill="#383A48" fill-rule="nonzero"></path>
                        </g>
                        <g transform="translate(224.000000, 199.000000)" id="Path">
                            <line x1="598.6" y1="5.8" x2="5.9" y2="364"></line>
                            <path d="M5.9,369 C4.2,369 2.6,368.1 1.6,366.6 C0.2,364.2 0.9,361.2 3.3,359.7 L596.1,1.5 C598.5,0.1 601.5,0.8 603,3.2 C604.5,5.6 603.7,8.6 601.3,10.1 L8.5,368.3 C7.7,368.7 6.8,369 5.9,369 Z" fill="#383A48" fill-rule="nonzero"></path>
                        </g>
                        <g transform="translate(768.000000, 0.000000)">
                            <g transform="translate(87.000000, 25.000000)">
                                <line x1="4.1" y1="3.1" x2="17.7" y2="21.1" id="Path"></line>
                                <rect id="Rectangle" fill="#383A48" fill-rule="nonzero" transform="translate(10.905750, 12.042375) rotate(-37.070432) translate(-10.905750, -12.042375) " x="5.90571938" y="0.792306094" width="10.0000612" height="22.5001378"></rect>
                            </g>
                            <g transform="translate(26.000000, 73.000000)">
                                <line x1="4.2" y1="3.6" x2="17.8" y2="21.6" id="Path"></line>
                                <rect id="Rectangle" fill="#383A48" fill-rule="nonzero" transform="translate(11.013740, 12.539245) rotate(-37.070432) translate(-11.013740, -12.539245) " x="6.01370938" y="1.28917609" width="10.0000612" height="22.5001378"></rect>
                            </g>
                            <g transform="translate(62.000000, 0.000000)" fill-rule="nonzero">
                                <rect id="Rectangle" fill="#F3F6E6" transform="translate(27.810370, 25.927310) rotate(-37.524226) translate(-27.810370, -25.927310) " x="6.81026059" y="16.4272605" width="42.0002188" height="19.000099"></rect>
                                <path d="M16.9,51.2 C16.7,51.2 16.5,51.2 16.2,51.2 C14.9,51 13.7,50.3 12.9,49.3 L1.3,34.3 C-0.4,32.1 2.28872477e-13,29 2.2,27.3 L35.5,1.7 C36.6,0.9 37.9,0.5 39.2,0.7 C40.5,0.9 41.7,1.6 42.5,2.6 L54.1,17.6 C55.8,19.8 55.4,22.9 53.2,24.6 L19.9,50.2 C19.1,50.8 18,51.2 16.9,51.2 Z M12.4,32 L17.9,39.1 L43.3,19.6 L37.8,12.5 L12.4,32 Z" id="Shape" fill="#383A48"></path>
                            </g>
                            <g transform="translate(0.000000, 48.000000)" fill-rule="nonzero">
                                <rect id="Rectangle" fill="#F3F6E6" transform="translate(27.811830, 25.496970) rotate(-37.524226) translate(-27.811830, -25.496970) " x="6.81172059" y="15.9969205" width="42.0002188" height="19.000099"></rect>
                                <path d="M16.9,50.8 C16.7,50.8 16.5,50.8 16.2,50.8 C14.9,50.6 13.7,49.9 12.9,48.9 L1.3,33.9 C-0.4,31.7 1.13020704e-13,28.6 2.2,26.9 L35.5,1.3 C36.6,0.5 37.9,0.1 39.2,0.3 C40.5,0.5 41.7,1.2 42.5,2.2 L54.1,17.2 C55.8,19.4 55.4,22.5 53.2,24.2 L19.9,49.8 C19.1,50.5 18,50.8 16.9,50.8 Z M12.3,31.7 L17.8,38.8 L43.2,19.3 L37.7,12.2 L12.3,31.7 Z" id="Shape" fill="#383A48"></path>
                            </g>
                        </g>
                        <g transform="translate(864.000000, 176.000000)">
                            <g transform="translate(84.000000, 0.000000)">
                                <line x1="14.5" y1="23" x2="4.9" y2="2.6" id="Path"></line>
                                <rect id="Rectangle" fill="#383A48" fill-rule="nonzero" transform="translate(9.716175, 12.866425) rotate(-25.219725) translate(-9.716175, -12.866425) " x="4.71606675" y="1.61618144" width="10.0002165" height="22.5004871"></rect>
                            </g>
                            <g transform="translate(13.000000, 31.000000)">
                                <line x1="14.2" y1="23.4" x2="4.6" y2="3" id="Path"></line>
                                <rect id="Rectangle" fill="#383A48" fill-rule="nonzero" transform="translate(9.420995, 13.147065) rotate(-25.219725) translate(-9.420995, -13.147065) " x="4.42088675" y="1.89682144" width="10.0002165" height="22.5004871"></rect>
                            </g>
                            <g transform="translate(71.000000, 2.000000)" fill-rule="nonzero">
                                <rect id="Rectangle" fill="#F3F6E6" transform="translate(28.764670, 23.298880) rotate(-24.765936) translate(-28.764670, -23.298880) " x="7.7652873" y="13.7991593" width="41.9987654" height="18.9994415"></rect>
                                <path d="M13.7,45.7 C11.8,45.7 10,44.6 9.2,42.8 L1.2,25.6 C0.6,24.4 0.6,23 1,21.8 C1.4,20.6 2.4,19.5 3.6,19 L41.7,1.4 C42.9,0.8 44.3,0.8 45.5,1.2 C46.7,1.7 47.8,2.6 48.3,3.8 L56.2,21 C57.4,23.5 56.3,26.5 53.8,27.6 L15.7,45.2 C15.1,45.5 14.4,45.7 13.7,45.7 Z M12.4,25.9 L16.2,34.1 L45.2,20.7 L41.4,12.5 L12.4,25.9 Z" id="Shape" fill="#383A48"></path>
                            </g>
                            <g transform="translate(0.000000, 35.000000)" fill-rule="nonzero">
                                <rect id="Rectangle" fill="#F3F6E6" transform="translate(28.768000, 22.982280) rotate(-24.765936) translate(-28.768000, -22.982280) " x="7.7686173" y="13.4825593" width="41.9987654" height="18.9994415"></rect>
                                <path d="M13.7,45.4 C13.1,45.4 12.5,45.3 12,45.1 C10.8,44.6 9.7,43.7 9.2,42.5 L1.3,25.3 C0.7,24.1 0.7,22.7 1.1,21.5 C1.5,20.3 2.5,19.2 3.7,18.7 L41.8,1.1 C44.3,-0.1 47.3,1 48.4,3.5 L56.3,20.7 C56.9,21.9 56.9,23.3 56.5,24.5 C56.1,25.7 55.1,26.8 53.9,27.3 L15.8,44.9 C15.1,45.3 14.4,45.4 13.7,45.4 Z M12.4,25.6 L16.2,33.8 L45.2,20.4 L41.4,12.2 L12.4,25.6 Z" id="Shape" fill="#383A48"></path>
                            </g>
                        </g>
                        <g transform="translate(814.000000, 64.000000)" fill-rule="nonzero">
                            <path d="M95.6,37.6 L32,76 C23.9,80.9 13.3,78.3 8.4,70.2 L8.4,70.2 C3.5,62.1 6.1,51.5 14.2,46.6 L77.8,8.2 C85.9,3.3 96.5,5.9 101.4,14 L101.4,14 C106.4,22.1 103.8,32.7 95.6,37.6 Z" id="Path" fill="#EEBED3"></path>
                            <path d="M23.2,83.5 C21.4,83.5 19.6,83.3 17.8,82.8 C12,81.4 7.2,77.8 4.1,72.7 C-2.2,62.2 1.1,48.5 11.6,42.2 L75.2,3.8 C80.3,0.7 86.2,-0.2 92,1.2 C97.8,2.6 102.6,6.2 105.7,11.3 C108.8,16.4 109.7,22.3 108.3,28.1 C106.9,33.9 103.3,38.7 98.2,41.8 L34.6,80.2 C31.1,82.4 27.2,83.5 23.2,83.5 Z M86.7,10.6 C84.5,10.6 82.3,11.2 80.4,12.4 L16.8,50.8 C11,54.3 9.2,61.8 12.7,67.6 C14.4,70.4 17.1,72.4 20.2,73.1 C23.4,73.9 26.6,73.4 29.4,71.7 L93,33.3 L93,33.3 C95.8,31.6 97.8,28.9 98.5,25.8 C99.2,22.7 98.8,19.4 97.1,16.6 C95.4,13.8 92.7,11.8 89.6,11.1 C88.7,10.7 87.7,10.6 86.7,10.6 Z" id="Shape" fill="#383A48"></path>
                        </g>
                        <g transform="translate(843.000000, 112.000000)" fill-rule="nonzero">
                            <path d="M77.8,8.2 L14.2,46.6 C6.1,51.5 3.5,62.1 8.4,70.2 L8.4,70.2 C13.3,78.3 23.9,80.9 32,76 L95.6,37.6 C103.7,32.7 106.3,22.1 101.4,14 L101.4,14 C96.6,5.9 86,3.2 77.8,8.2 Z" id="Path" fill="#EEBED3"></path>
                            <path d="M23.2,83.5 C15.7,83.5 8.3,79.7 4.2,72.8 C1.1,67.7 0.2,61.8 1.6,56 C3,50.2 6.6,45.4 11.7,42.3 L75.3,3.9 C80.4,0.8 86.3,-0.1 92.1,1.3 C97.9,2.7 102.7,6.3 105.8,11.4 C108.9,16.5 109.8,22.4 108.4,28.2 C107,34 103.4,38.8 98.3,41.9 L34.7,80.3 C31.1,82.5 27.1,83.5 23.2,83.5 Z M86.7,10.7 C84.5,10.7 82.3,11.3 80.4,12.5 L80.4,12.5 L16.8,50.9 C11,54.4 9.2,61.9 12.7,67.7 C16.2,73.5 23.7,75.3 29.5,71.8 L93.1,33.4 C95.9,31.7 97.9,29 98.6,25.9 C99.4,22.7 98.9,19.5 97.2,16.7 C95.5,13.9 92.8,11.9 89.7,11.2 C88.7,10.8 87.7,10.7 86.7,10.7 Z" id="Shape" fill="#383A48"></path>
                        </g>
                    </g>
                </g>
                <path d="M1259.8,444.8 C1257,444.8 1254.8,442.6 1254.8,439.8 C1254.8,435.1 1253.6,424.3 1242.2,424.3 C1239.4,424.3 1237.2,422.1 1237.2,419.3 C1237.2,416.5 1239.4,414.3 1242.2,414.3 C1253.6,414.3 1254.8,403.4 1254.8,398.8 C1254.8,396 1257,393.8 1259.8,393.8 C1262.6,393.8 1264.8,396 1264.8,398.8 C1264.8,403.5 1266,414.3 1277.4,414.3 C1280.2,414.3 1282.4,416.5 1282.4,419.3 C1282.4,422.1 1280.2,424.3 1277.4,424.3 C1266,424.3 1264.8,435.2 1264.8,439.8 C1264.8,442.5 1262.6,444.8 1259.8,444.8 Z" id="Path" fill="#AAC6FC" fill-rule="nonzero"></path>
                <path d="M419.6,145.2 C416.8,145.2 414.6,143 414.6,140.2 C414.6,135.5 413.4,124.7 402,124.7 C399.2,124.7 397,122.5 397,119.7 C397,116.9 399.2,114.7 402,114.7 C413.4,114.7 414.6,103.8 414.6,99.2 C414.6,96.4 416.8,94.2 419.6,94.2 C422.4,94.2 424.6,96.4 424.6,99.2 C424.6,103.9 425.8,114.7 437.2,114.7 C440,114.7 442.2,116.9 442.2,119.7 C442.2,122.5 440,124.7 437.2,124.7 C425.8,124.7 424.6,135.6 424.6,140.2 C424.6,143 422.3,145.2 419.6,145.2 Z" id="Path" fill="#383A48" fill-rule="nonzero"></path>
                <path d="M866.6,700.3 C863.8,700.3 861.6,698.1 861.6,695.3 C861.6,690.6 860.4,679.8 849,679.8 C846.2,679.8 844,677.6 844,674.8 C844,672 846.2,669.8 849,669.8 C860.4,669.8 861.6,658.9 861.6,654.3 C861.6,651.5 863.8,649.3 866.6,649.3 C869.4,649.3 871.6,651.5 871.6,654.3 C871.6,659 872.8,669.8 884.2,669.8 C887,669.8 889.2,672 889.2,674.8 C889.2,677.6 887,679.8 884.2,679.8 C872.8,679.8 871.6,690.7 871.6,695.3 C871.6,698.1 869.4,700.3 866.6,700.3 Z" id="Path" fill="#AAC6FC" fill-rule="nonzero"></path>
                <g transform="translate(114.000000, 68.000000)" fill-rule="nonzero">
                    <path d="M101,21.1 L92.4,31.5 L83.2,20.6 C67.6,2.1 40.1,-0.3 21.5,15.1 L21.5,15.1 C2.7,30.7 0.2,58.6 15.9,77.3 L92.8,167.1 L168.7,77.3 C184.2,58.6 181.7,30.8 162.9,15.3 L162.9,15.3 C144.2,-0.2 116.5,2.4 101,21.1 Z" id="Path" fill="#E0719E"></path>
                    <path d="M92.8,172.2 C91.3,172.2 90,171.6 89,170.5 L12.1,80.7 C3.6,70.6 -0.4,57.8 0.7,44.7 C1.9,31.6 8.1,19.8 18.2,11.4 C18.2,11.4 18.2,11.4 18.3,11.4 C38.9,-5.7 69.7,-2.9 87,17.5 L92.3,23.8 L97.1,18 L97.1,18 C114.3,-2.7 145.3,-5.6 166.1,11.6 C176.2,20 182.4,31.7 183.6,44.8 C184.8,57.8 180.9,70.6 172.5,80.7 L96.6,170.6 C95.6,171.5 94.3,172.2 92.8,172.2 L92.8,172.2 Z M24.7,19 L24.7,19 C16.6,25.7 11.6,35.2 10.7,45.6 C9.8,56 13,66.2 19.7,74.2 L92.8,159.5 L164.9,74.2 C171.5,66.2 174.7,56.1 173.7,45.7 C172.7,35.3 167.8,25.9 159.7,19.3 C143.2,5.6 118.5,7.9 104.8,24.4 L96.2,34.8 C95.3,35.9 93.9,36.6 92.4,36.6 L92.4,36.6 C90.9,36.6 89.5,36 88.6,34.8 L79.4,23.9 C65.6,7.6 41.1,5.4 24.7,19 Z" id="Shape" fill="#383A48"></path>
                </g>
                <g transform="translate(1375.000000, 510.000000)" id="Path">
                    <line x1="5.9" y1="5.1" x2="210.6" y2="200.9"></line>
                    <path d="M210.6,205.9 C209.4,205.9 208.1,205.4 207.1,204.5 L2.4,8.8 C0.4,6.9 0.3,3.7 2.2,1.7 C4.1,-0.3 7.3,-0.4 9.3,1.5 L214,197.2 C216,199.1 216.1,202.3 214.2,204.3 C213.2,205.3 211.9,205.9 210.6,205.9 Z" fill="#383A48" fill-rule="nonzero"></path>
                </g>
            </g>
        </g>
    </g>
</svg>