<?xml version="1.0" encoding="utf-8"?>
<!-- Generator: Adobe Illustrator 22.0.1, SVG Export Plug-In . SVG Version: 6.00 Build 0)  -->
<svg version="1.1" id="Layer_1" xmlns="http://www.w3.org/2000/svg" xmlns:xlink="http://www.w3.org/1999/xlink" x="0px" y="0px" viewBox="0 0 1920 1080" style="enable-background:new 0 0 1920 1080;" xml:space="preserve">

<rect y="0" width="1920" height="1080" style="fill:#AAC6FC;"/>
<g>
	<path d="M1752.6,780.4c-1.6-0.9-3.6-0.7-5.2,0.3L1602,836.2l-79.1,99.1c-1.8,1.2-2.6,3.5-1.9,5.6s2.6,3.5,4.8,3.5
		h224.6c2.8,0,5-2.2,5-5V784.8C1755.3,782.9,1754.2,781.2,1752.6,780.4z" style="fill:#F3F6E6;"/>
	<path d="M1625.2,135.6h-514.1c-2.7,0-4.8,2.1-5,4.7s1.8,5,4.4,5.2c94.7,10.7,165.2,30,215.5,59.1
		c30.4,17.6,53.4,39,68.3,63.7c16.5,27.3,23.6,59.5,21.2,95.7c-3.3,49.8,13.7,88.7,51.8,118.8c33.3,26.3,78.7,43,122.5,59.2
		c79.9,29.5,155.3,57.3,155.3,137.7c0,2.8,2.2,5,5,5s5-2.2,5-5v-414C1755.3,194,1696.9,135.6,1625.2,135.6z" style="fill:#F3F6E6;"/>
	<path d="M1167.2,934.4c-190.6,0-279.9-73.4-358.6-138.2c-43.3-35.6-84.1-69.2-136.8-86.2c-3.3-1.1-6.8-2.1-10.4-3.1
		c-84.8-23.2-124.7-110-163.4-194c-24.9-54-48.4-105.1-82.9-139.5c-8.8-8.7-18.1-16.2-27.6-22c-28.9-17.8-57.3-30.8-82.2-42.3
		c-36.7-16.9-68.5-31.4-91.3-55.5c-24.7-26-37.2-62-39.2-113.1c-0.1-2.7-2.3-4.8-5-4.8h-0.1c-2.7,0.1-4.9,2.3-4.9,5v798.8
		c0,2.8,2.2,5,5,5h997.5c2.8,0,5-2.2,5-5S1170,934.4,1167.2,934.4z" style="fill:#F3F6E6;"/>
	<path d="M675.2,714c-0.3-1.9-1.6-3.5-3.4-4c-3.3-1.1-6.8-2.1-10.4-3.1c-84.8-23.2-124.7-110-163.4-194
		c-24.9-54-48.4-105.1-82.9-139.5c-1.8-1.8-4.8-2-6.8-0.3c-12.7,10.8-24.1,23.1-34,36.5c-13.5,18.4-24.1,38.8-31.3,60.5
		c-9.7,29.2-13.1,59.4-10.1,89.9c2.2,23.2,8.2,45.8,17.7,67.2c2.3,5.1,4.7,10.1,7.3,14.8c7.8,14.5,17.2,28.1,27.9,40.4
		c31.9,36.6,75.9,61.8,123.9,70.8c13.3,2.5,26.7,3.8,40.2,3.8c35.8,0,71.4-8.8,103.3-25.9c6.8-3.6,13.5-7.7,19.9-12.1
		C674.6,717.8,675.4,715.9,675.2,714z" style="fill:#383A48;"/>
	<g>
		<g>
			<path d="M822.4,542.7c-1.4,3.4-2.9,6.8-4.5,10.1c-15.1,31.8-37.3,60.7-66.1,84l0,0c-0.7,0.6-1.4,1.1-2.1,1.7
				c-4.1,3.3-8.4,6.5-12.8,9.5c-14.9,10.3-30.5,18.8-46.6,25.3c-12,4.9-24.2,8.8-36.6,11.7c-61.2,14.3-125.9,4.1-179.7-27.9
				c-29.1-17.3-55-40.9-75.5-70.5c-3.7-5.4-7.2-10.8-10.4-16.3c-54.7-93.9-39.7-211.7,33.2-289c11.4-12.1,24.3-23.2,38.5-33.1
				c3.9-2.7,7.9-5.3,11.9-7.8c68.9-42.1,151.4-45.9,221.5-16.3c3,1.3,6,2.6,8.9,4c24.2,11.4,46.7,26.9,66.4,46.2
				c10.8,10.6,20.7,22.3,29.7,35.2c7.1,10.2,13.3,20.8,18.6,31.6c3.5,7.1,6.6,14.4,9.4,21.7c6.1,16.2,10.3,32.9,12.8,49.7l0,0
				C845.4,456.8,839.6,501.9,822.4,542.7z" style="fill:#AAC6FC;"/>
			<path d="M598.6,696.5c-12.8,0-25.6-1-38.4-3c-31.6-4.9-61.5-15.7-88.9-31.9c-30.6-18.2-56.6-42.4-77-71.9
				c-3.7-5.4-7.3-11-10.6-16.7c-27.2-46.8-38.3-99.9-31.9-153.8c6.2-52.7,29.6-102.8,65.8-141.1c11.8-12.5,25-23.9,39.3-33.8
				c3.9-2.7,8-5.4,12.2-7.9c68-41.5,152.5-47.7,226-16.6c3,1.3,6.1,2.6,9.1,4c25.2,11.9,48,27.7,67.8,47.2
				c11.1,10.9,21.3,23,30.3,35.9c7.1,10.3,13.5,21.1,19,32.3c3.5,7.2,6.8,14.6,9.6,22.2c6.1,16.3,10.5,33.4,13,50.7v0.1
				c6.6,44.9,0.7,90.7-16.9,132.6c-1.4,3.4-3,6.9-4.6,10.4c-15.9,33.5-38.6,62.3-67.4,85.7l-0.1,0.1c-0.7,0.6-1.5,1.2-2.2,1.7
				c-4,3.2-8.4,6.5-13,9.7c-14.9,10.3-30.9,19-47.6,25.9c-12,4.9-24.6,8.9-37.3,11.9C636.2,694.3,617.5,696.5,598.6,696.5z
				 M598.3,210.1c-43.2,0-86.3,11.7-124,34.7c-4,2.5-8,5-11.7,7.6c-13.7,9.5-26.4,20.4-37.8,32.4c-34.7,36.8-57.1,84.9-63.1,135.4
				c-6.1,51.7,4.5,102.7,30.6,147.6c3.2,5.4,6.6,10.8,10.2,16c19.6,28.4,44.5,51.6,73.9,69c26.3,15.6,55,25.9,85.3,30.6
				c30.4,4.7,60.9,3.6,90.7-3.3c12.2-2.9,24.3-6.7,35.8-11.4c16-6.5,31.4-14.9,45.7-24.8c4.4-3.1,8.6-6.2,12.5-9.3
				c0.7-0.5,1.3-1.1,2-1.6l0.1-0.1c27.7-22.4,49.5-50.1,64.8-82.3c1.6-3.3,3.1-6.6,4.4-9.9l0,0c16.9-40.2,22.5-84.3,16.2-127.3v-0.1
				c-2.4-16.6-6.6-32.9-12.5-48.5c-2.7-7.2-5.8-14.4-9.2-21.3c-5.2-10.7-11.4-21.1-18.2-31c-8.6-12.4-18.4-24-29.1-34.5
				c-19-18.7-40.9-33.9-65-45.3c-2.9-1.4-5.8-2.7-8.7-3.9C661.5,216.3,629.8,210.1,598.3,210.1z" style="fill:#383A48;"/>
		</g>
		<g>
			<path d="M822.4,542.7l-7.5-2.8c-22.1-8.4-46.4,5.1-51.1,28.3l-14.2,70.4c-4.1,3.3-8.4,6.5-12.8,9.5
				c-14.9,10.3-30.5,18.8-46.6,25.3l-37.1-67.8c-9-16.4-13-35-11.7-53.6l1.8-25.8c2.6-36.2,25-68,58.3-82.5l127.3-55.5l10.2,24.5
				l0,0C845.4,456.8,839.6,501.9,822.4,542.7z" style="fill:#E0719E;"/>
			<path d="M690.2,678.4c-1.8,0-3.5-1-4.4-2.6L648.7,608c-9.4-17.3-13.7-36.8-12.3-56.4l1.8-25.8
				c2.7-38.2,26.2-71.4,61.2-86.7l127.3-55.5c1.2-0.5,2.6-0.6,3.9-0.1c1.2,0.5,2.2,1.5,2.8,2.7l10.2,24.5c0.2,0.4,0.3,0.9,0.3,1.3
				c6.6,44.9,0.7,90.7-16.9,132.6c-1,2.5-3.9,3.7-6.4,2.7l-7.5-2.8c-9.2-3.5-19.3-2.7-27.9,2c-8.6,4.7-14.6,13-16.5,22.6l-14.2,70.4
				c-0.2,1.2-0.9,2.2-1.8,2.9c-4.1,3.3-8.5,6.5-13.1,9.7c-14.9,10.3-30.9,19-47.6,25.9C691.5,678.3,690.8,678.4,690.2,678.4z
				 M826.1,394.8l-122.6,53.5c-31.7,13.8-52.8,43.8-55.3,78.3l-1.8,25.8c-1.2,17.7,2.6,35.3,11.1,50.9l34.9,63.8
				c14.5-6.3,28.5-14,41.6-23.1c3.9-2.7,7.6-5.4,11.1-8.2l13.8-68.6c2.5-12.5,10.3-23.2,21.5-29.3c11.1-6.2,24.4-7.1,36.3-2.6l3,1.1
				c15.4-38.8,20.4-81,14.5-122.3L826.1,394.8z" style="fill:#383A48;"/>
		</g>
		<g>
			<path d="M470.6,527.5l-26.8,18L388,570.4c-54.7-93.9-39.7-211.7,33.2-289l50.5,87.4l26.5,75.8
				C508.9,475.3,497.6,509.3,470.6,527.5z" style="fill:#E0719E;"/>
			<path d="M388,575.4c-1.7,0-3.4-0.9-4.3-2.5c-27.2-46.8-38.3-99.9-31.9-153.8c6.2-52.7,29.6-102.8,65.8-141.1
				c1.1-1.1,2.6-1.7,4.2-1.5s3,1.1,3.7,2.5l50.5,87.4c0.2,0.3,0.3,0.6,0.4,0.9l26.5,75.8c11.4,32.8-0.7,69.3-29.5,88.7l0,0l-26.8,18
				c-0.2,0.2-0.5,0.3-0.8,0.4L390,575C389.4,575.3,388.7,575.4,388,575.4z M420.3,289.8c-32.1,36.1-52.8,82.2-58.6,130.4
				c-5.9,50.2,3.9,99.8,28.4,143.7l51.3-22.9l26.4-17.8c25-16.9,35.6-48.6,25.6-77.1l-26.3-75.4L420.3,289.8z M470.6,527.5
				L470.6,527.5L470.6,527.5z" style="fill:#383A48;"/>
		</g>
		<g>
			<path d="M745.4,268.6c-9.9,38-66.4,56.1-126.1,40.5c-58-15.2-97.7-56.6-90.8-93.8c77.3-23.2,158.1-6.1,218.4,40.4
				C747,260,746.5,264.3,745.4,268.6z" style="fill:#F3F6E6;"/>
			<path d="M661.8,319.7c-14.2,0-29-1.9-43.8-5.8c-60.4-15.8-101.8-59.5-94.5-99.5c0.3-1.8,1.7-3.3,3.5-3.9
				c76.3-22.9,159.6-7.5,222.9,41.2c1.2,0.9,1.9,2.3,1.9,3.8c0.1,4.9-0.4,9.7-1.6,14.3c-5.3,20.1-22.2,35.6-47.7,43.8
				C690,317.7,676.2,319.7,661.8,319.7z M532.9,219.2c-1.7,15.6,5.4,32.4,20.2,47.8c16.4,16.9,40.3,30.2,67.4,37.3
				c28,7.3,56,7.3,78.9,0c22.1-7.1,36.7-20.2,41.1-36.8l0,0c0.8-3,1.2-6.1,1.3-9.2C682.2,213.1,604.5,198.7,532.9,219.2z" style="fill:#383A48;"/>
		</g>
		<g>
			<g>
				<g>
					<g>
						<g>
							<circle cx="788.1" cy="581.2" r="4.1" style="fill:#383A48;"/>
						</g>
					</g>
				</g>
				<g>
					<g>
						<g>
							<circle cx="767.7" cy="581.2" r="4.1" style="fill:#383A48;"/>
						</g>
					</g>
				</g>
				<g>
					<g>
						<g>
							<circle cx="767.7" cy="601.6" r="4.1" style="fill:#383A48;"/>
						</g>
					</g>
				</g>
				<g>
					<g>
						<g>
							<circle cx="747.3" cy="601.6" r="4.1" style="fill:#383A48;"/>
						</g>
					</g>
				</g>
				<g>
					<g>
						<g>
							<circle cx="747.3" cy="622" r="4.1" style="fill:#383A48;"/>
						</g>
					</g>
				</g>
				<g>
					<g>
						<g>
							<circle cx="726.9" cy="601.6" r="4.1" style="fill:#383A48;"/>
						</g>
					</g>
				</g>
				<g>
					<g>
						<g>
							<circle cx="726.9" cy="622" r="4.1" style="fill:#383A48;"/>
						</g>
					</g>
				</g>
				<g>
					<g>
						<g>
							<circle cx="726.9" cy="642.4" r="4.1" style="fill:#383A48;"/>
						</g>
					</g>
				</g>
				<g>
					<g>
						<g>
							<circle cx="706.4" cy="601.6" r="4.1" style="fill:#383A48;"/>
						</g>
					</g>
				</g>
				<g>
					<g>
						<g>
							<circle cx="706.4" cy="622" r="4.1" style="fill:#383A48;"/>
						</g>
					</g>
				</g>
				<g>
					<g>
						<g>
							<circle cx="706.4" cy="642.4" r="4.1" style="fill:#383A48;"/>
						</g>
					</g>
				</g>
				<g>
					<g>
						<g>
							<circle cx="686" cy="601.6" r="4.1" style="fill:#383A48;"/>
						</g>
					</g>
				</g>
				<g>
					<g>
						<g>
							<circle cx="686" cy="622" r="4.1" style="fill:#383A48;"/>
						</g>
					</g>
				</g>
				<g>
					<g>
						<g>
							<circle cx="686" cy="642.4" r="4.1" style="fill:#383A48;"/>
						</g>
					</g>
				</g>
				<g>
					<g>
						<g>
							<circle cx="686" cy="662.9" r="4.1" style="fill:#383A48;"/>
						</g>
					</g>
				</g>
				<g>
					<g>
						<g>
							<circle cx="665.6" cy="601.6" r="4.1" style="fill:#383A48;"/>
						</g>
					</g>
				</g>
				<g>
					<g>
						<g>
							<circle cx="665.6" cy="622" r="4.1" style="fill:#383A48;"/>
						</g>
					</g>
				</g>
				<g>
					<g>
						<g>
							<circle cx="665.6" cy="642.4" r="4.1" style="fill:#383A48;"/>
						</g>
					</g>
				</g>
				<g>
					<g>
						<g>
							<circle cx="665.6" cy="662.9" r="4.1" style="fill:#383A48;"/>
						</g>
					</g>
				</g>
				<g>
					<g>
						<g>
							<circle cx="645.2" cy="601.6" r="4.1" style="fill:#383A48;"/>
						</g>
					</g>
				</g>
				<g>
					<g>
						<g>
							<circle cx="645.2" cy="622" r="4.1" style="fill:#383A48;"/>
						</g>
					</g>
				</g>
				<g>
					<g>
						<g>
							<circle cx="645.2" cy="642.4" r="4.1" style="fill:#383A48;"/>
						</g>
					</g>
				</g>
				<g>
					<g>
						<g>
							<circle cx="645.2" cy="662.9" r="4.1" style="fill:#383A48;"/>
						</g>
					</g>
				</g>
				<g>
					<g>
						<g>
							<circle cx="624.7" cy="601.6" r="4.1" style="fill:#383A48;"/>
						</g>
					</g>
				</g>
				<g>
					<g>
						<g>
							<circle cx="624.7" cy="622" r="4.1" style="fill:#383A48;"/>
						</g>
					</g>
				</g>
				<g>
					<g>
						<g>
							<circle cx="624.7" cy="642.4" r="4.1" style="fill:#383A48;"/>
						</g>
					</g>
				</g>
				<g>
					<g>
						<g>
							<circle cx="624.7" cy="662.9" r="4.1" style="fill:#383A48;"/>
						</g>
					</g>
				</g>
				<g>
					<g>
						<g>
							<circle cx="604.3" cy="581.2" r="4.1" style="fill:#383A48;"/>
						</g>
					</g>
				</g>
				<g>
					<g>
						<g>
							<circle cx="604.3" cy="601.6" r="4.1" style="fill:#383A48;"/>
						</g>
					</g>
				</g>
				<g>
					<g>
						<g>
							<circle cx="604.3" cy="622" r="4.1" style="fill:#383A48;"/>
						</g>
					</g>
				</g>
				<g>
					<g>
						<g>
							<circle cx="604.3" cy="642.4" r="4.1" style="fill:#383A48;"/>
						</g>
					</g>
				</g>
				<g>
					<g>
						<g>
							<circle cx="604.3" cy="662.9" r="4.1" style="fill:#383A48;"/>
						</g>
					</g>
				</g>
				<g>
					<g>
						<g>
							<circle cx="604.3" cy="683.3" r="4.1" style="fill:#383A48;"/>
						</g>
					</g>
				</g>
				<g>
					<g>
						<g>
							<circle cx="583.9" cy="581.2" r="4.1" style="fill:#383A48;"/>
						</g>
					</g>
				</g>
				<g>
					<g>
						<g>
							<circle cx="583.9" cy="601.6" r="4.1" style="fill:#383A48;"/>
						</g>
					</g>
				</g>
				<g>
					<g>
						<g>
							<circle cx="583.9" cy="622" r="4.1" style="fill:#383A48;"/>
						</g>
					</g>
				</g>
				<g>
					<g>
						<g>
							<circle cx="583.9" cy="642.4" r="4.1" style="fill:#383A48;"/>
						</g>
					</g>
				</g>
				<g>
					<g>
						<g>
							<circle cx="583.9" cy="662.9" r="4.1" style="fill:#383A48;"/>
						</g>
					</g>
				</g>
				<g>
					<g>
						<g>
							<circle cx="583.9" cy="683.3" r="4.1" style="fill:#383A48;"/>
						</g>
					</g>
				</g>
				<g>
					<g>
						<g>
							<circle cx="563.5" cy="581.2" r="4.1" style="fill:#383A48;"/>
						</g>
					</g>
				</g>
				<g>
					<g>
						<g>
							<circle cx="563.5" cy="601.6" r="4.1" style="fill:#383A48;"/>
						</g>
					</g>
				</g>
				<g>
					<g>
						<g>
							<circle cx="563.5" cy="622" r="4.1" style="fill:#383A48;"/>
						</g>
					</g>
				</g>
				<g>
					<g>
						<g>
							<circle cx="563.5" cy="642.4" r="4.1" style="fill:#383A48;"/>
						</g>
					</g>
				</g>
				<g>
					<g>
						<g>
							<circle cx="563.5" cy="662.9" r="4.1" style="fill:#383A48;"/>
						</g>
					</g>
				</g>
				<g>
					<g>
						<g>
							<circle cx="563.5" cy="683.3" r="4.1" style="fill:#383A48;"/>
						</g>
					</g>
				</g>
				<g>
					<g>
						<g>
							<circle cx="543" cy="560.7" r="4.1" style="fill:#383A48;"/>
						</g>
					</g>
				</g>
				<g>
					<g>
						<g>
							<circle cx="543" cy="581.2" r="4.1" style="fill:#383A48;"/>
						</g>
					</g>
				</g>
				<g>
					<g>
						<g>
							<circle cx="543" cy="601.6" r="4.1" style="fill:#383A48;"/>
						</g>
					</g>
				</g>
				<g>
					<g>
						<g>
							<circle cx="543" cy="622" r="4.1" style="fill:#383A48;"/>
						</g>
					</g>
				</g>
				<g>
					<g>
						<g>
							<circle cx="543" cy="642.4" r="4.1" style="fill:#383A48;"/>
						</g>
					</g>
				</g>
				<g>
					<g>
						<g>
							<circle cx="543" cy="662.9" r="4.1" style="fill:#383A48;"/>
						</g>
					</g>
				</g>
				<g>
					<g>
						<g>
							<circle cx="522.6" cy="540.3" r="4.1" style="fill:#383A48;"/>
						</g>
					</g>
				</g>
				<g>
					<g>
						<g>
							<circle cx="522.6" cy="560.7" r="4.1" style="fill:#383A48;"/>
						</g>
					</g>
				</g>
				<g>
					<g>
						<g>
							<circle cx="522.6" cy="581.2" r="4.1" style="fill:#383A48;"/>
						</g>
					</g>
				</g>
				<g>
					<g>
						<g>
							<circle cx="522.6" cy="601.6" r="4.1" style="fill:#383A48;"/>
						</g>
					</g>
				</g>
				<g>
					<g>
						<g>
							<circle cx="522.6" cy="622" r="4.1" style="fill:#383A48;"/>
						</g>
					</g>
				</g>
				<g>
					<g>
						<g>
							<circle cx="522.6" cy="642.4" r="4.1" style="fill:#383A48;"/>
						</g>
					</g>
				</g>
				<g>
					<g>
						<g>
							<circle cx="522.6" cy="662.9" r="4.1" style="fill:#383A48;"/>
						</g>
					</g>
				</g>
				<g>
					<g>
						<g>
							<circle cx="502.2" cy="519.9" r="4.1" style="fill:#383A48;"/>
						</g>
					</g>
				</g>
				<g>
					<g>
						<g>
							<circle cx="502.2" cy="540.3" r="4.1" style="fill:#383A48;"/>
						</g>
					</g>
				</g>
				<g>
					<g>
						<g>
							<circle cx="502.2" cy="560.7" r="4.1" style="fill:#383A48;"/>
						</g>
					</g>
				</g>
				<g>
					<g>
						<g>
							<circle cx="502.2" cy="581.2" r="4.1" style="fill:#383A48;"/>
						</g>
					</g>
				</g>
				<g>
					<g>
						<g>
							<circle cx="502.2" cy="601.6" r="4.1" style="fill:#383A48;"/>
						</g>
					</g>
				</g>
				<g>
					<g>
						<g>
							<circle cx="502.2" cy="622" r="4.1" style="fill:#383A48;"/>
						</g>
					</g>
				</g>
				<g>
					<g>
						<g>
							<circle cx="502.2" cy="642.4" r="4.1" style="fill:#383A48;"/>
						</g>
					</g>
				</g>
				<g>
					<g>
						<g>
							<circle cx="502.2" cy="662.9" r="4.1" style="fill:#383A48;"/>
						</g>
					</g>
				</g>
				<g>
					<g>
						<g>
							<circle cx="481.8" cy="499.5" r="4.1" style="fill:#383A48;"/>
						</g>
					</g>
				</g>
				<g>
					<g>
						<g>
							<circle cx="481.8" cy="519.9" r="4.1" style="fill:#383A48;"/>
						</g>
					</g>
				</g>
				<g>
					<g>
						<g>
							<circle cx="481.8" cy="540.3" r="4.1" style="fill:#383A48;"/>
						</g>
					</g>
				</g>
				<g>
					<g>
						<g>
							<circle cx="481.8" cy="560.7" r="4.1" style="fill:#383A48;"/>
						</g>
					</g>
				</g>
				<g>
					<g>
						<g>
							<circle cx="481.8" cy="581.2" r="4.1" style="fill:#383A48;"/>
						</g>
					</g>
				</g>
				<g>
					<g>
						<g>
							<circle cx="481.8" cy="601.6" r="4.1" style="fill:#383A48;"/>
						</g>
					</g>
				</g>
				<g>
					<g>
						<g>
							<circle cx="481.8" cy="622" r="4.1" style="fill:#383A48;"/>
						</g>
					</g>
				</g>
				<g>
					<g>
						<g>
							<circle cx="481.8" cy="642.4" r="4.1" style="fill:#383A48;"/>
						</g>
					</g>
				</g>
				<g>
					<g>
						<g>
							<circle cx="461.3" cy="254.4" r="4.1" style="fill:#383A48;"/>
						</g>
					</g>
				</g>
				<g>
					<g>
						<g>
							<circle cx="461.3" cy="458.6" r="4.1" style="fill:#383A48;"/>
						</g>
					</g>
				</g>
				<g>
					<g>
						<g>
							<circle cx="461.3" cy="479" r="4.1" style="fill:#383A48;"/>
						</g>
					</g>
				</g>
				<g>
					<g>
						<g>
							<circle cx="461.3" cy="499.5" r="4.1" style="fill:#383A48;"/>
						</g>
					</g>
				</g>
				<g>
					<g>
						<g>
							<circle cx="461.3" cy="519.9" r="4.1" style="fill:#383A48;"/>
						</g>
					</g>
				</g>
				<g>
					<g>
						<g>
							<circle cx="461.3" cy="540.3" r="4.1" style="fill:#383A48;"/>
						</g>
					</g>
				</g>
				<g>
					<g>
						<g>
							<circle cx="461.3" cy="560.7" r="4.1" style="fill:#383A48;"/>
						</g>
					</g>
				</g>
				<g>
					<g>
						<g>
							<circle cx="461.3" cy="581.2" r="4.1" style="fill:#383A48;"/>
						</g>
					</g>
				</g>
				<g>
					<g>
						<g>
							<circle cx="461.3" cy="601.6" r="4.1" style="fill:#383A48;"/>
						</g>
					</g>
				</g>
				<g>
					<g>
						<g>
							<circle cx="461.3" cy="622" r="4.1" style="fill:#383A48;"/>
						</g>
					</g>
				</g>
				<g>
					<g>
						<g>
							<circle cx="461.3" cy="642.4" r="4.1" style="fill:#383A48;"/>
						</g>
					</g>
				</g>
				<g>
					<g>
						<g>
							<circle cx="440.9" cy="274.8" r="4.1" style="fill:#383A48;"/>
						</g>
					</g>
				</g>
				<g>
					<g>
						<g>
							<circle cx="440.9" cy="295.2" r="4.1" style="fill:#383A48;"/>
						</g>
					</g>
				</g>
				<g>
					<g>
						<g>
							<circle cx="440.9" cy="315.7" r="4.1" style="fill:#383A48;"/>
						</g>
					</g>
				</g>
				<g>
					<g>
						<g>
							<circle cx="440.9" cy="336.1" r="4.1" style="fill:#383A48;"/>
						</g>
					</g>
				</g>
				<g>
					<g>
						<g>
							<circle cx="440.9" cy="356.5" r="4.1" style="fill:#383A48;"/>
						</g>
					</g>
				</g>
				<g>
					<g>
						<g>
							<circle cx="440.9" cy="376.9" r="4.1" style="fill:#383A48;"/>
						</g>
					</g>
				</g>
				<g>
					<g>
						<g>
							<circle cx="440.9" cy="397.3" r="4.1" style="fill:#383A48;"/>
						</g>
					</g>
				</g>
				<g>
					<g>
						<g>
							<circle cx="440.9" cy="417.8" r="4.1" style="fill:#383A48;"/>
						</g>
					</g>
				</g>
				<g>
					<g>
						<g>
							<circle cx="440.9" cy="438.2" r="4.1" style="fill:#383A48;"/>
						</g>
					</g>
				</g>
				<g>
					<g>
						<g>
							<circle cx="440.9" cy="458.6" r="4.1" style="fill:#383A48;"/>
						</g>
					</g>
				</g>
				<g>
					<g>
						<g>
							<circle cx="440.9" cy="479" r="4.1" style="fill:#383A48;"/>
						</g>
					</g>
				</g>
				<g>
					<g>
						<g>
							<circle cx="440.9" cy="499.5" r="4.1" style="fill:#383A48;"/>
						</g>
					</g>
				</g>
				<g>
					<g>
						<g>
							<circle cx="440.9" cy="519.9" r="4.1" style="fill:#383A48;"/>
						</g>
					</g>
				</g>
				<g>
					<g>
						<g>
							<circle cx="440.9" cy="540.3" r="4.1" style="fill:#383A48;"/>
						</g>
					</g>
				</g>
				<g>
					<g>
						<g>
							<circle cx="440.9" cy="560.7" r="4.1" style="fill:#383A48;"/>
						</g>
					</g>
				</g>
				<g>
					<g>
						<g>
							<circle cx="440.9" cy="581.2" r="4.1" style="fill:#383A48;"/>
						</g>
					</g>
				</g>
				<g>
					<g>
						<g>
							<circle cx="440.9" cy="601.6" r="4.1" style="fill:#383A48;"/>
						</g>
					</g>
				</g>
				<g>
					<g>
						<g>
							<circle cx="440.9" cy="622" r="4.1" style="fill:#383A48;"/>
						</g>
					</g>
				</g>
				<g>
					<g>
						<g>
							<circle cx="420.5" cy="295.2" r="4.1" style="fill:#383A48;"/>
						</g>
					</g>
				</g>
				<g>
					<g>
						<g>
							<circle cx="420.5" cy="315.7" r="4.1" style="fill:#383A48;"/>
						</g>
					</g>
				</g>
				<g>
					<g>
						<g>
							<circle cx="420.5" cy="336.1" r="4.1" style="fill:#383A48;"/>
						</g>
					</g>
				</g>
				<g>
					<g>
						<g>
							<circle cx="420.5" cy="356.5" r="4.1" style="fill:#383A48;"/>
						</g>
					</g>
				</g>
				<g>
					<g>
						<g>
							<circle cx="420.5" cy="376.9" r="4.1" style="fill:#383A48;"/>
						</g>
					</g>
				</g>
				<g>
					<g>
						<g>
							<circle cx="420.5" cy="397.3" r="4.1" style="fill:#383A48;"/>
						</g>
					</g>
				</g>
				<g>
					<g>
						<g>
							<circle cx="420.5" cy="417.8" r="4.1" style="fill:#383A48;"/>
						</g>
					</g>
				</g>
				<g>
					<g>
						<g>
							<circle cx="420.5" cy="438.2" r="4.1" style="fill:#383A48;"/>
						</g>
					</g>
				</g>
				<g>
					<g>
						<g>
							<circle cx="420.5" cy="458.6" r="4.1" style="fill:#383A48;"/>
						</g>
					</g>
				</g>
				<g>
					<g>
						<g>
							<circle cx="420.5" cy="479" r="4.1" style="fill:#383A48;"/>
						</g>
					</g>
				</g>
				<g>
					<g>
						<g>
							<circle cx="420.5" cy="499.5" r="4.1" style="fill:#383A48;"/>
						</g>
					</g>
				</g>
				<g>
					<g>
						<g>
							<circle cx="420.5" cy="519.9" r="4.1" style="fill:#383A48;"/>
						</g>
					</g>
				</g>
				<g>
					<g>
						<g>
							<circle cx="420.5" cy="540.3" r="4.1" style="fill:#383A48;"/>
						</g>
					</g>
				</g>
				<g>
					<g>
						<g>
							<circle cx="420.5" cy="560.7" r="4.1" style="fill:#383A48;"/>
						</g>
					</g>
				</g>
				<g>
					<g>
						<g>
							<circle cx="420.5" cy="581.2" r="4.1" style="fill:#383A48;"/>
						</g>
					</g>
				</g>
				<g>
					<g>
						<g>
							<circle cx="420.5" cy="601.6" r="4.1" style="fill:#383A48;"/>
						</g>
					</g>
				</g>
				<g>
					<g>
						<g>
							<circle cx="400.1" cy="315.7" r="4.1" style="fill:#383A48;"/>
						</g>
					</g>
				</g>
				<g>
					<g>
						<g>
							<circle cx="400.1" cy="336.1" r="4.1" style="fill:#383A48;"/>
						</g>
					</g>
				</g>
				<g>
					<g>
						<g>
							<circle cx="400.1" cy="356.5" r="4.1" style="fill:#383A48;"/>
						</g>
					</g>
				</g>
				<g>
					<g>
						<g>
							<circle cx="400.1" cy="376.9" r="4.1" style="fill:#383A48;"/>
						</g>
					</g>
				</g>
				<g>
					<g>
						<g>
							<circle cx="400.1" cy="397.3" r="4.1" style="fill:#383A48;"/>
						</g>
					</g>
				</g>
				<g>
					<g>
						<g>
							<circle cx="400.1" cy="417.8" r="4.1" style="fill:#383A48;"/>
						</g>
					</g>
				</g>
				<g>
					<g>
						<g>
							<circle cx="400.1" cy="438.2" r="4.1" style="fill:#383A48;"/>
						</g>
					</g>
				</g>
				<g>
					<g>
						<g>
							<circle cx="400.1" cy="458.6" r="4.1" style="fill:#383A48;"/>
						</g>
					</g>
				</g>
				<g>
					<g>
						<g>
							<circle cx="400.1" cy="479" r="4.1" style="fill:#383A48;"/>
						</g>
					</g>
				</g>
				<g>
					<g>
						<g>
							<circle cx="400.1" cy="499.5" r="4.1" style="fill:#383A48;"/>
						</g>
					</g>
				</g>
				<g>
					<g>
						<g>
							<circle cx="400.1" cy="519.9" r="4.1" style="fill:#383A48;"/>
						</g>
					</g>
				</g>
				<g>
					<g>
						<g>
							<circle cx="400.1" cy="540.3" r="4.1" style="fill:#383A48;"/>
						</g>
					</g>
				</g>
				<g>
					<g>
						<g>
							<circle cx="400.1" cy="560.7" r="4.1" style="fill:#383A48;"/>
						</g>
					</g>
				</g>
				<g>
					<g>
						<g>
							<circle cx="400.1" cy="581.2" r="4.1" style="fill:#383A48;"/>
						</g>
					</g>
				</g>
				<g>
					<g>
						<g>
							<circle cx="379.6" cy="356.5" r="4.1" style="fill:#383A48;"/>
						</g>
					</g>
				</g>
				<g>
					<g>
						<g>
							<circle cx="379.6" cy="376.9" r="4.1" style="fill:#383A48;"/>
						</g>
					</g>
				</g>
				<g>
					<g>
						<g>
							<circle cx="379.6" cy="397.3" r="4.1" style="fill:#383A48;"/>
						</g>
					</g>
				</g>
				<g>
					<g>
						<g>
							<circle cx="379.6" cy="417.8" r="4.1" style="fill:#383A48;"/>
						</g>
					</g>
				</g>
				<g>
					<g>
						<g>
							<circle cx="379.6" cy="438.2" r="4.1" style="fill:#383A48;"/>
						</g>
					</g>
				</g>
				<g>
					<g>
						<g>
							<circle cx="379.6" cy="458.6" r="4.1" style="fill:#383A48;"/>
						</g>
					</g>
				</g>
				<g>
					<g>
						<g>
							<circle cx="379.6" cy="479" r="4.1" style="fill:#383A48;"/>
						</g>
					</g>
				</g>
				<g>
					<g>
						<g>
							<circle cx="379.6" cy="499.5" r="4.1" style="fill:#383A48;"/>
						</g>
					</g>
				</g>
				<g>
					<g>
						<g>
							<circle cx="379.6" cy="519.9" r="4.1" style="fill:#383A48;"/>
						</g>
					</g>
				</g>
				<g>
					<g>
						<g>
							<circle cx="379.6" cy="540.3" r="4.1" style="fill:#383A48;"/>
						</g>
					</g>
				</g>
				<g>
					<g>
						<g>
							<circle cx="359.2" cy="417.8" r="4.1" style="fill:#383A48;"/>
						</g>
					</g>
				</g>
				<g>
					<g>
						<g>
							<circle cx="359.2" cy="438.2" r="4.1" style="fill:#383A48;"/>
						</g>
					</g>
				</g>
				<g>
					<g>
						<g>
							<circle cx="359.2" cy="458.6" r="4.1" style="fill:#383A48;"/>
						</g>
					</g>
				</g>
				<g>
					<g>
						<g>
							<circle cx="359.2" cy="479" r="4.1" style="fill:#383A48;"/>
						</g>
					</g>
				</g>
			</g>
		</g>
	</g>
	<g>
		<g>
			<g>
				<g>
					
						<rect x="1156.5" y="601" transform="matrix(0.7071 -0.7071 0.7071 0.7071 -106.1215 1041.7864)" width="96" height="96" style="fill:#F3F6E6;"/>
					<path d="M1204.5,721.9c-1.3,0-2.6-0.5-3.5-1.5l-67.9-67.9c-2-2-2-5.1,0-7.1l67.9-67.9c2-2,5.1-2,7.1,0l67.9,67.9
						c2,2,2,5.1,0,7.1l-67.9,67.9C1207,721.4,1205.8,721.9,1204.5,721.9z M1143.7,649l60.8,60.8l60.8-60.8l-60.8-60.8L1143.7,649z" style="fill:#383A48;"/>
				</g>
				<g>
					
						<rect x="1224.4" y="668.9" transform="matrix(0.7071 -0.7071 0.7071 0.7071 -134.2496 1109.6825)" width="96" height="96" style="fill:#F3F6E6;"/>
					<path d="M1272.4,789.8c-1.3,0-2.6-0.5-3.5-1.5l-67.9-67.9c-2-2-2-5.1,0-7.1l67.9-67.9c2-2,5.1-2,7.1,0l67.9,67.9
						c0.9,0.9,1.5,2.2,1.5,3.5s-0.5,2.6-1.5,3.5l-67.9,67.9C1274.9,789.3,1273.7,789.8,1272.4,789.8z M1211.6,716.9l60.8,60.8
						l60.8-60.8l-60.8-60.8L1211.6,716.9z" style="fill:#383A48;"/>
				</g>
				<g>
					
						<rect x="1292.3" y="736.8" transform="matrix(0.7071 -0.7071 0.7071 0.7071 -162.3778 1177.5785)" width="96" height="96" style="fill:#F3F6E6;"/>
					<path d="M1340.3,857.7c-1.3,0-2.6-0.5-3.5-1.5l-67.9-67.9c-0.9-0.9-1.5-2.2-1.5-3.5s0.5-2.6,1.5-3.5l67.9-67.9
						c2-2,5.1-2,7.1,0l67.9,67.9c2,2,2,5.1,0,7.1l-67.9,67.9C1342.8,857.2,1341.6,857.7,1340.3,857.7z M1279.5,784.8l60.8,60.8
						l60.8-60.8l-60.8-60.8L1279.5,784.8z" style="fill:#383A48;"/>
				</g>
				<g>
					
						<rect x="1088" y="669.5" transform="matrix(0.7071 -0.7071 0.7071 0.7071 -174.6335 1013.4258)" width="96" height="96" style="fill:#F3F6E6;"/>
					<path d="M1136,790.4c-1.3,0-2.6-0.5-3.5-1.5l-67.9-67.9c-2-2-2-5.1,0-7.1l67.9-67.9c2-2,5.1-2,7.1,0l67.9,67.9
						c2,2,2,5.1,0,7.1l-67.9,67.9C1138.5,789.9,1137.2,790.4,1136,790.4z M1075.1,717.5l60.8,60.8l60.8-60.8l-60.8-60.8
						L1075.1,717.5z" style="fill:#383A48;"/>
				</g>
				<g>
					
						<rect x="1155.9" y="737.4" transform="matrix(0.7071 -0.7071 0.7071 0.7071 -202.7617 1081.3218)" width="96" height="96" style="fill:#F3F6E6;"/>
					<path d="M1203.9,858.3c-1.3,0-2.6-0.5-3.5-1.5l-67.9-67.9c-2-2-2-5.1,0-7.1l67.9-67.9c2-2,5.1-2,7.1,0l67.9,67.9
						c2,2,2,5.1,0,7.1l-67.9,67.9C1206.4,857.8,1205.1,858.3,1203.9,858.3z M1143,785.4l60.8,60.8l60.8-60.8l-60.8-60.8L1143,785.4z
						" style="fill:#383A48;"/>
				</g>
				<g>
					
						<rect x="1223.7" y="805.2" transform="matrix(0.7071 -0.7071 0.7071 0.7071 -230.8605 1149.147)" width="96" height="96" style="fill:#F3F6E6;"/>
					<path d="M1271.8,926.2c-1.3,0-2.6-0.5-3.5-1.5l-67.9-67.9c-2-2-2-5.1,0-7.1l67.9-67.9c2-2,5.1-2,7.1,0l67.9,67.9
						c2,2,2,5.1,0,7.1l-67.9,67.9C1274.3,925.7,1273,926.2,1271.8,926.2z M1210.9,853.3l60.8,60.8l60.8-60.8l-60.8-60.8
						L1210.9,853.3z" style="fill:#383A48;"/>
				</g>
			</g>
			<g>
				<line x1="1136" y1="649.6" x2="1086.3" y2="599.9" style="fill:none;"/>
				<path d="M1136,654.6c-1.3,0-2.6-0.5-3.5-1.5l-49.7-49.7c-2-2-2-5.1,0-7.1s5.1-2,7.1,0l49.7,49.7c2,2,2,5.1,0,7.1
					C1138.5,654.1,1137.2,654.6,1136,654.6z" style="fill:#383A48;"/>
			</g>
		</g>
		<g>
			<g>
				<g>
					
						<rect x="954.1" y="398.5" transform="matrix(0.7071 -0.7071 0.7071 0.7071 -22.2473 839.3547)" width="96" height="96" style="fill:#F3F6E6;"/>
					<path d="M1002.1,519.5c-1.3,0-2.6-0.5-3.5-1.5l-67.9-67.9c-2-2-2-5.1,0-7.1l67.9-67.9c2-2,5.1-2,7.1,0l67.9,67.9
						c2,2,2,5.1,0,7.1l-67.9,67.9C1004.6,519,1003.3,519.5,1002.1,519.5z M941.2,446.6l60.8,60.8l60.8-60.8l-60.8-60.8L941.2,446.6z
						" style="fill:#383A48;"/>
				</g>
				<g>
					
						<rect x="886.2" y="330.6" transform="matrix(0.7071 -0.7071 0.7071 0.7071 5.8694 771.4634)" width="96" height="96" style="fill:#F3F6E6;"/>
					<path d="M934.2,451.6c-1.3,0-2.6-0.5-3.5-1.5l-67.9-67.9c-0.9-0.9-1.5-2.2-1.5-3.5s0.5-2.6,1.5-3.5l67.9-67.9
						c2-2,5.1-2,7.1,0l67.9,67.9c2,2,2,5.1,0,7.1l-67.9,67.9C936.7,451.1,935.5,451.6,934.2,451.6z M873.3,378.7l60.8,60.8
						l60.8-60.8l-60.8-60.8L873.3,378.7z" style="fill:#383A48;"/>
				</g>
				<g>
					
						<rect x="818.3" y="262.8" transform="matrix(0.7071 -0.7071 0.7071 0.7071 33.9861 703.5721)" width="96" height="96" style="fill:#F3F6E6;"/>
					<path d="M866.3,383.7c-1.3,0-2.6-0.5-3.5-1.5l-67.9-67.9c-2-2-2-5.1,0-7.1l67.9-67.9c2-2,5.1-2,7.1,0l67.9,67.9
						c0.9,0.9,1.5,2.2,1.5,3.5s-0.5,2.6-1.5,3.5l-67.9,67.9C868.8,383.2,867.6,383.7,866.3,383.7z M805.5,310.8l60.8,60.8l60.8-60.8
						L866.3,250L805.5,310.8z" style="fill:#383A48;"/>
				</g>
				<g>
					
						<rect x="885.6" y="467.1" transform="matrix(0.7071 -0.7071 0.7071 0.7071 -90.8066 811.0213)" width="96" height="96" style="fill:#F3F6E6;"/>
					<path d="M933.5,588c-1.3,0-2.6-0.5-3.5-1.5l-67.9-67.9c-2-2-2-5.1,0-7.1l67.9-67.9c2-2,5.1-2,7.1,0l67.9,67.9
						c2,2,2,5.1,0,7.1l-67.9,67.9C936.1,587.5,934.8,588,933.5,588z M872.7,515.1l60.8,60.8l60.8-60.8l-60.8-60.8L872.7,515.1z" style="fill:#383A48;"/>
				</g>
				<path d="M1108.8,478.3l-67.9-67.9c-2-2-5.1-2-7.1,0l-67.9,67.9c-0.1,0.1-0.2,0.2-0.3,0.3c-0.1,0.1-0.2,0.2-0.3,0.3
					l-67.9,67.9c-2,2-2,5.1,0,7.1l67.9,67.9c1,1,2.3,1.5,3.5,1.5s2.6-0.5,3.5-1.5l67.9-67.9c0.1-0.1,0.2-0.2,0.3-0.3
					c0.1-0.1,0.2-0.2,0.3-0.3l67.9-67.9C1110.7,483.4,1110.7,480.3,1108.8,478.3z" style="fill:#383A48;"/>
				<path d="M1244.5,614.1l-67.9-67.9c-2-2-5.1-2-7.1,0l-67.9,67.9c-0.1,0.1-0.2,0.2-0.3,0.3c-0.1,0.1-0.2,0.2-0.3,0.3
					l-67.9,67.9c-0.9,0.9-1.5,2.2-1.5,3.5s0.5,2.6,1.5,3.5l67.9,67.9c1,1,2.3,1.5,3.5,1.5s2.6-0.5,3.5-1.5l67.9-67.9
					c0.1-0.1,0.2-0.2,0.3-0.3c0.1-0.1,0.2-0.2,0.3-0.3l67.9-67.9C1246.5,619.2,1246.5,616,1244.5,614.1z" style="fill:#383A48;"/>
				<g>
					
						<rect x="817.7" y="399.2" transform="matrix(0.7071 -0.7071 0.7071 0.7071 -62.6898 743.1301)" width="96" height="96" style="fill:#F3F6E6;"/>
					<path d="M865.7,520.1c-1.3,0-2.6-0.5-3.5-1.5l-67.9-67.9c-2-2-2-5.1,0-7.1l67.9-67.9c2-2,5.1-2,7.1,0l67.9,67.9
						c2,2,2,5.1,0,7.1l-67.9,67.9C868.2,519.6,866.9,520.1,865.7,520.1z M804.8,447.2l60.8,60.8l60.8-60.8l-60.8-60.8L804.8,447.2z" style="fill:#383A48;"/>
				</g>
				<g>
					
						<rect x="749.8" y="331.4" transform="matrix(0.7071 -0.7071 0.7071 0.7071 -34.5731 675.2388)" width="96" height="96" style="fill:#F3F6E6;"/>
					<path d="M797.8,452.2c-1.3,0-2.6-0.5-3.5-1.5l-67.9-67.9c-2-2-2-5.1,0-7.1l67.9-67.9c2-2,5.1-2,7.1,0l67.9,67.9
						c2,2,2,5.1,0,7.1l-67.9,67.9C800.3,451.7,799,452.2,797.8,452.2z M736.9,379.3l60.8,60.8l60.8-60.8l-60.8-60.8L736.9,379.3z" style="fill:#383A48;"/>
				</g>
			</g>
			<g>
				<line x1="1001.4" y1="515.1" x2="1051.1" y2="564.8" style="fill:none;"/>
				<path d="M1051.1,569.8c-1.3,0-2.6-0.5-3.5-1.5l-49.7-49.7c-2-2-2-5.1,0-7.1c2-2,5.1-2,7.1,0l49.7,49.7
					c2,2,2,5.1,0,7.1C1053.7,569.3,1052.4,569.8,1051.1,569.8z" style="fill:#383A48;"/>
			</g>
		</g>
		<g>
			
				<rect x="858.9" y="665.3" transform="matrix(0.7071 -0.7071 0.7071 0.7071 -275.9038 854.1663)" width="68.4" height="189.7" style="fill:#F3F6E6;"/>
			<path d="M936.1,856.4c-1.3,0-2.6-0.5-3.5-1.5L798.4,720.7c-2-2-2-5.1,0-7.1l48.3-48.3c0.9-0.9,2.2-1.5,3.5-1.5
				s2.6,0.5,3.5,1.5L988,799.5c2,2,2,5.1,0,7.1l-48.3,48.3C938.7,855.9,937.5,856.4,936.1,856.4z M809,717.2l127.1,127.1l41.3-41.3
				L850.3,676L809,717.2z" style="fill:#383A48;"/>
		</g>
		<g>
			
				<rect x="881.7" y="606.2" transform="matrix(0.7071 -0.7071 0.7071 0.7071 -216.8251 878.6265)" width="141" height="189.7" style="fill:#F6E049;"/>
			<path d="M969.5,823.1c-1.3,0-2.6-0.5-3.5-1.5L831.8,687.4c-2-2-2-5.1,0-7.1l99.7-99.7c0.9-0.9,2.2-1.5,3.5-1.5
				s2.6,0.5,3.5,1.5l134.2,134.2c0.9,0.9,1.5,2.2,1.5,3.5s-0.5,2.6-1.5,3.5L973,821.6C972,822.6,970.7,823.1,969.5,823.1z
				 M842.4,683.9L969.5,811l92.6-92.6L935,591.3L842.4,683.9z" style="fill:#383A48;"/>
		</g>
		<g>
			<path d="M1273.1,514.4L1069,718.5L934.9,584.3L1139,380.2c13.2-13.2,30.3-20.2,47.6-21c19.4-0.9,39.1,6.1,54,21
				l32.6,32.6c14.8,14.8,21.8,34.5,21,54C1293.3,484.1,1286.3,501.2,1273.1,514.4z" style="fill:#AAC6FC;"/>
			<path d="M1069,723.5c-1.3,0-2.6-0.5-3.5-1.5L931.3,587.8c-2-2-2-5.1,0-7.1l204.1-204.1
				c13.6-13.6,31.7-21.6,50.9-22.4c21.5-1,42.5,7.2,57.7,22.4l32.6,32.6c15.2,15.2,23.4,36.2,22.4,57.7
				c-0.9,19.2-8.8,37.3-22.4,50.9l-3.5-3.5l3.5,3.5l-204,204.2C1071.6,723,1070.4,723.5,1069,723.5z M941.9,584.3L1069,711.4
				l200.6-200.6c11.8-11.8,18.8-27.6,19.5-44.3c0.8-18.7-6.3-37-19.5-50.2l-32.6-32.6c-13.2-13.2-31.5-20.3-50.2-19.5
				c-16.7,0.7-32.4,7.7-44.3,19.5L941.9,584.3z" style="fill:#383A48;"/>
		</g>
		<path d="M1276.7,409.3l-32.6-32.6c-15.2-15.2-36.2-23.4-57.7-22.4c-1.7,0.1-3.2,1-4,2.4c-0.9,1.4-1,3.2-0.3,4.7
			c10.6,23.9,25.8,45.8,45.1,65c19.2,19.2,41.1,34.4,65,45.1c0.6,0.3,1.3,0.4,2,0.4c0.9,0,1.8-0.3,2.6-0.7c1.4-0.9,2.3-2.4,2.4-4
			C1300,445.5,1291.9,424.5,1276.7,409.3z" style="fill:#383A48;"/>
		<g>
			<path d="M1337.7,390.3c-0.9,0-1.8-0.2-2.6-0.7c-2.4-1.4-3.1-4.5-1.7-6.9l95.7-158.5l-158.5,95.7
				c-2.4,1.4-5.4,0.7-6.9-1.7c-1.4-2.4-0.7-5.4,1.7-6.9l175.8-106.2c2-1.2,4.5-0.9,6.1,0.7c1.6,1.6,1.9,4.2,0.7,6.1l-106,175.9
				C1341.1,389.4,1339.4,390.3,1337.7,390.3z" style="fill:#383A48;"/>
		</g>
		<g>
			<circle cx="1443.9" cy="209.4" r="24.6" style="fill:#F3F6E6;"/>
			<path d="M1443.9,239c-7.6,0-15.1-2.9-20.9-8.6c-11.5-11.5-11.5-30.3,0-41.8s30.3-11.5,41.8,0s11.5,30.3,0,41.8
				C1459.1,236.1,1451.5,239,1443.9,239z M1443.9,189.9c-5,0-10,1.9-13.8,5.7c-7.6,7.6-7.6,20,0,27.7c7.6,7.6,20,7.6,27.7,0
				s7.6-20,0-27.7C1454,191.8,1448.9,189.9,1443.9,189.9z" style="fill:#383A48;"/>
		</g>
		<g>
			<path d="M1439.2,448c-56.2,19.2-128.2,0.4-181.2-52.7c-53.1-53.1-71.8-125.1-52.7-181.2L1439.2,448z" style="fill:#F3F6E6;"/>
			<path d="M1393.6,460.4c-15.5,0-31.5-2.3-47.5-6.8c-33.7-9.5-65.3-28.4-91.6-54.7c-26.3-26.3-45.2-58-54.7-91.6
				c-9.3-33.1-9-65.8,0.8-94.8c0.6-1.6,1.9-2.9,3.6-3.3c1.7-0.4,3.4,0.1,4.7,1.3l233.9,233.9c1.2,1.2,1.7,3,1.3,4.7
				c-0.4,1.7-1.6,3-3.3,3.6C1425.9,457.9,1410,460.4,1393.6,460.4z M1207.6,223.6c-6.8,25-6.2,52.9,1.7,81c9,32,27.1,62.2,52.1,87.3
				s55.3,43.1,87.3,52.1c28.1,7.9,56,8.5,81,1.7L1207.6,223.6z" style="fill:#383A48;"/>
		</g>
		<g>
			<path d="M1046.1,607.2L1046.1,607.2c-15.6-15.6-15.6-40.8,0-56.3L1088,509c15.6-15.6,40.8-15.6,56.3,0l0,0
				c15.6,15.6,15.6,40.8,0,56.3l-41.9,41.9C1086.9,622.8,1061.7,622.8,1046.1,607.2z" style="fill:#E0719E;"/>
			<path d="M1074.3,623.9c-11.5,0-23-4.4-31.7-13.1c-17.5-17.5-17.5-45.9,0-63.4l41.9-41.9c17.5-17.5,45.9-17.5,63.4,0
				s17.5,45.9,0,63.4l-41.9,41.9C1097.2,619.5,1085.8,623.9,1074.3,623.9z M1116.1,502.4c-8.9,0-17.8,3.4-24.6,10.2l-41.9,41.9
				c-13.6,13.6-13.6,35.7,0,49.3s35.7,13.6,49.3,0l41.9-41.9c13.6-13.6,13.6-35.7,0-49.3C1134,505.8,1125.1,502.4,1116.1,502.4z" style="fill:#383A48;"/>
		</g>
	</g>
	<g>
		<g>
			<g>
				<polygon points="1570.3,630.2 1481,630.2 1436.4,707.5 1481,784.8 1570.3,784.8 1614.9,707.5 				" style="fill:#7FD6C2;"/>
			</g>
			<g>
				<path d="M1570.3,789.8H1481c-1.8,0-3.4-1-4.3-2.5l-44.6-77.3c-0.9-1.5-0.9-3.5,0-5l44.6-77.3
					c0.9-1.5,2.5-2.5,4.3-2.5h89.3c1.8,0,3.4,1,4.3,2.5l44.6,77.3c0.9,1.5,0.9,3.5,0,5l-44.6,77.3
					C1573.7,788.8,1572.1,789.8,1570.3,789.8z M1483.9,779.8h83.5l41.7-72.3l-41.7-72.3h-83.5l-41.7,72.3L1483.9,779.8z" style="fill:#383A48;"/>
			</g>
		</g>
		<g>
			<polygon points="1705.6,707.5 1616.4,707.5 1571.8,784.8 1616.4,862.1 1705.6,862.1 1750.3,784.8 			" style="fill:#E0719E;"/>
			<path d="M1705.6,867.1h-89.3c-1.8,0-3.4-1-4.3-2.5l-44.6-77.3c-0.9-1.5-0.9-3.5,0-5L1612,705
				c0.9-1.5,2.5-2.5,4.3-2.5h89.3c1.8,0,3.4,1,4.3,2.5l44.6,77.3c0.9,1.5,0.9,3.5,0,5l-44.6,77.3
				C1709.1,866.1,1707.4,867.1,1705.6,867.1z M1619.3,857.1h83.5l41.7-72.3l-41.7-72.3h-83.5l-41.7,72.3L1619.3,857.1z" style="fill:#383A48;"/>
		</g>
		<g>
			<polygon points="1572.3,784.8 1483,784.8 1438.4,862.1 1483,939.4 1572.3,939.4 1616.9,862.1 			" style="fill:#4053FA;"/>
			<path d="M1572.3,944.4H1483c-1.8,0-3.4-1-4.3-2.5l-44.6-77.3c-0.9-1.5-0.9-3.5,0-5l44.6-77.3
				c0.9-1.5,2.5-2.5,4.3-2.5h89.3c1.8,0,3.4,1,4.3,2.5l44.6,77.3c0.9,1.5,0.9,3.5,0,5l-44.6,77.3
				C1575.7,943.4,1574,944.4,1572.3,944.4z M1485.9,934.4h83.5l41.7-72.3l-41.7-72.3h-83.5l-41.7,72.3L1485.9,934.4z" style="fill:#383A48;"/>
		</g>
	</g>
	<path d="M1063.1,246.5c-11.4,0-12.6-10.9-12.6-15.5c0-2.8-2.2-5-5-5s-5,2.2-5,5c0,4.7-1.2,15.5-12.6,15.5
		c-2.8,0-5,2.2-5,5s2.2,5,5,5c11.4,0,12.6,10.9,12.6,15.5c0,2.8,2.2,5,5,5s5-2.2,5-5c0-4.7,1.2-15.5,12.6-15.5c2.8,0,5-2.2,5-5
		S1065.9,246.5,1063.1,246.5z" style="fill:#F3F6E6;"/>
	<g>
		<path d="M1606.9,309.6c-11.4,0-12.6-10.9-12.6-15.5c0-2.8-2.2-5-5-5s-5,2.2-5,5c0,4.7-1.2,15.5-12.6,15.5
			c-2.8,0-5,2.2-5,5s2.2,5,5,5c11.4,0,12.6,10.9,12.6,15.5c0,2.8,2.2,5,5,5s5-2.2,5-5c0-4.7,1.2-15.5,12.6-15.5c2.8,0,5-2.2,5-5
			S1609.7,309.6,1606.9,309.6z" style="fill:#383A48;"/>
		<path d="M1660.5,363.2c-11.4,0-12.6-10.9-12.6-15.5c0-2.8-2.2-5-5-5s-5,2.2-5,5c0,4.7-1.2,15.5-12.6,15.5
			c-2.8,0-5,2.2-5,5s2.2,5,5,5c11.4,0,12.6,10.9,12.6,15.5c0,2.8,2.2,5,5,5s5-2.2,5-5c0-4.7,1.2-15.5,12.6-15.5c2.8,0,5-2.2,5-5
			S1663.2,363.2,1660.5,363.2z" style="fill:#383A48;"/>
		<path d="M1597,394.2c-11.4,0-12.6-10.9-12.6-15.5c0-2.8-2.2-5-5-5s-5,2.2-5,5c0,4.7-1.2,15.5-12.6,15.5
			c-2.8,0-5,2.2-5,5s2.2,5,5,5c11.4,0,12.6,10.9,12.6,15.5c0,2.8,2.2,5,5,5s5-2.2,5-5c0-4.7,1.2-15.5,12.6-15.5c2.8,0,5-2.2,5-5
			S1599.7,394.2,1597,394.2z" style="fill:#383A48;"/>
		<path d="M254.8,523.5c-11.4,0-12.6-10.9-12.6-15.5c0-2.8-2.2-5-5-5s-5,2.2-5,5c0,4.7-1.2,15.5-12.6,15.5
			c-2.8,0-5,2.2-5,5s2.2,5,5,5c11.4,0,12.6,10.9,12.6,15.5c0,2.8,2.2,5,5,5s5-2.2,5-5c0-4.7,1.2-15.5,12.6-15.5c2.8,0,5-2.2,5-5
			S257.5,523.5,254.8,523.5z" style="fill:#383A48;"/>
	</g>
	<g>
		<g>
			
				<ellipse transform="matrix(0.1602 -0.9871 0.9871 0.1602 0.5721 453.6723)" cx="266.9" cy="226.5" rx="19.7" ry="19.7" style="fill:#F6E049;"/>
			<path d="M266.9,251.2c-13.6,0-24.7-11.1-24.7-24.7s11.1-24.7,24.7-24.7c13.6,0,24.7,11.1,24.7,24.7
				S280.5,251.2,266.9,251.2z M266.9,211.8c-8.1,0-14.7,6.6-14.7,14.7c0,8.1,6.6,14.7,14.7,14.7s14.7-6.6,14.7-14.7
				C281.6,218.4,275,211.8,266.9,211.8z" style="fill:#383A48;"/>
		</g>
		<g>
			<path d="M327.6,312.5c-7.7,0-16.6-1.7-26.4-5c-21.9-7.5-46.3-22.6-68.7-42.5s-40.1-42.5-50-63.5
				c-10.5-22.3-11-40.6-1.3-51.4s27.9-12.5,51.2-4.5c21.9,7.5,46.3,22.6,68.7,42.5c22.4,20,40.1,42.5,50,63.5
				c10.5,22.3,11,40.6,1.3,51.4C346.9,309.3,338.4,312.5,327.6,312.5z M206.3,150.6c-7.8,0-13.9,2.1-17.6,6.2
				c-13.3,15,3.8,59,50.5,100.8c34,30.3,67.4,45,88.3,45c7.8,0,13.9-2.1,17.6-6.2c6.8-7.6,5.7-22.3-2.9-40.5
				c-9.3-19.8-26.3-41.2-47.7-60.3C260.5,165.2,227.1,150.6,206.3,150.6z" style="fill:#383A48;"/>
		</g>
		<g>
			<path d="M206.1,312.5c-10.7,0-19.2-3.2-24.9-9.5c-9.7-10.9-9.2-29.1,1.3-51.4c9.9-21,27.7-43.5,50-63.5
				s46.8-35.1,68.7-42.5c23.3-7.9,41.5-6.3,51.2,4.5c9.7,10.9,9.2,29.1-1.3,51.4c-9.9,21-27.7,43.5-50,63.5
				c-22.4,20-46.8,35.1-68.7,42.5C222.7,310.8,213.8,312.5,206.1,312.5z M327.5,150.6c-20.9,0-54.3,14.6-88.3,45
				c-46.8,41.7-63.9,85.8-50.5,100.8c13.4,15,59.1,2.9,105.8-38.8c21.4-19.1,38.3-40.5,47.7-60.3c8.6-18.2,9.6-32.9,2.9-40.5
				C341.4,152.7,335.3,150.6,327.5,150.6z" style="fill:#383A48;"/>
		</g>
	</g>
	<g>
		<g>
			<path d="M528,939.9c-11.5,0-22.5-4.5-31.9-13c-9.5,8.5-20.4,13-31.9,13c-16.6,0-32.1-9.6-43.6-27
				c-11.1-16.8-17.2-39-17.2-62.5c0-2.8,2.2-5,5-5s5,2.2,5,5c0,43.9,22.8,79.5,50.8,79.5c9.1,0,17.6-3.7,25-10.3
				c-1.7-2-3.3-4.2-4.8-6.5c-11.1-16.6-17.2-38.8-17.2-62.3c0-32.9,14.7-52.5,28.8-52.5c14.2,0,28.9,19.6,28.9,52.5
				c0,23.5-6.1,45.6-17.2,62.3c-1.5,2.3-3.1,4.4-4.8,6.5c7.4,6.5,15.9,10.3,25,10.3c2.8,0,5,2.2,5,5S530.7,939.9,528,939.9z
				 M496,808.3c-7.9,0-18.8,16.2-18.8,42.5c0,24.8,7.4,46.9,18.9,61.4c11.5-14.5,18.9-36.6,18.9-61.4
				C514.9,824.5,503.9,808.3,496,808.3z" style="fill:#383A48;"/>
		</g>
		<g>
			<path d="M655.7,939.9c-11.5,0-22.5-4.5-31.9-13c-9.5,8.5-20.4,13-31.9,13c-2.8,0-5-2.2-5-5s2.2-5,5-5
				c9.1,0,17.6-3.7,25-10.3c-1.7-2-3.3-4.2-4.8-6.5c-11.1-16.6-17.2-38.8-17.2-62.3c0-32.9,14.7-52.5,28.9-52.5s28.8,19.6,28.8,52.5
				c0,23.5-6.1,45.6-17.2,62.3c-1.5,2.3-3.1,4.4-4.8,6.5c7.4,6.5,15.9,10.3,25,10.3c2.8,0,5,2.2,5,5S658.4,939.9,655.7,939.9z
				 M623.8,808.3c-7.9,0-18.9,16.2-18.9,42.5c0,24.8,7.4,46.9,18.9,61.4c11.5-14.5,18.9-36.6,18.9-61.4
				C642.6,824.5,631.6,808.3,623.8,808.3z" style="fill:#383A48;"/>
		</g>
		<g>
			<path d="M591.8,939.9c-11.5,0-22.5-4.5-31.9-13c-9.5,8.5-20.4,13-31.9,13c-2.8,0-5-2.2-5-5s2.2-5,5-5
				c9.1,0,17.6-3.7,25-10.3c-1.7-2-3.3-4.2-4.8-6.5c-11.1-16.6-17.2-38.8-17.2-62.3c0-32.9,14.7-52.5,28.8-52.5
				c14.2,0,28.9,19.6,28.9,52.5c0,23.5-6.1,45.6-17.2,62.3c-1.5,2.3-3.1,4.4-4.8,6.5c7.4,6.5,15.9,10.3,25,10.3c2.8,0,5,2.2,5,5
				S594.6,939.9,591.8,939.9z M559.9,808.3c-7.9,0-18.8,16.2-18.8,42.5c0,24.8,7.4,46.9,18.9,61.4c11.5-14.5,18.9-36.6,18.9-61.4
				C578.7,824.5,567.7,808.3,559.9,808.3z" style="fill:#383A48;"/>
		</g>
		<g>
			<path d="M719.6,939.9c-11.5,0-22.5-4.5-31.9-13c-9.5,8.5-20.4,13-31.9,13c-2.8,0-5-2.2-5-5s2.2-5,5-5
				c9.1,0,17.6-3.7,25-10.3c-1.7-2-3.3-4.2-4.8-6.5c-11.1-16.6-17.2-38.8-17.2-62.3c0-32.9,14.7-52.5,28.8-52.5
				c14.2,0,28.9,19.6,28.9,52.5c0,23.5-6.1,45.6-17.2,62.3c-1.5,2.3-3.1,4.4-4.8,6.5c7.4,6.5,15.9,10.3,25,10.3c2.8,0,5,2.2,5,5
				S722.4,939.9,719.6,939.9z M687.6,808.3c-7.9,0-18.8,16.2-18.8,42.5c0,24.8,7.4,46.9,18.9,61.4c11.5-14.5,18.9-36.6,18.9-61.4
				C706.5,824.5,695.5,808.3,687.6,808.3z" style="fill:#383A48;"/>
		</g>
		<g>
			<path d="M719.6,939.9c-2.8,0-5-2.2-5-5s2.2-5,5-5c28,0,50.8-35.4,50.8-79c0-2.8,2.2-5,5-5s5,2.2,5,5
				c0,23.5-6.1,45.6-17.2,62.3C751.7,930.4,736.2,939.9,719.6,939.9z" style="fill:#383A48;"/>
		</g>
	</g>
	<path d="M169.7,796.9c-2.8,0-5,2.2-5,5v137.4c0,2.8,2.2,5,5,5h137.4c2.8,0,5-2.2,5-5
		C312.2,860.8,248.3,796.9,169.7,796.9z" style="fill:#F6E049;"/>
</g>
</svg>
