<?xml version="1.0" encoding="UTF-8"?>
<svg width="1592px" height="810px" viewBox="0 0 1592 810" version="1.1" xmlns="http://www.w3.org/2000/svg" xmlns:xlink="http://www.w3.org/1999/xlink">
    <!-- Generator: Sketch 59.1 (86144) - https://sketch.com -->
    <title>science</title>
    <desc>Created with Sketch.</desc>
    <g id="Page-1" stroke="none" stroke-width="1" fill="none" fill-rule="evenodd">
        <g id="science" transform="translate(-164.000000, -135.000000)">
            <g id="Group" transform="translate(164.000000, 135.000000)">
                <path d="M1588.6,645.4 C1587,644.5 1585,644.7 1583.4,645.7 L1438,701.2 L1358.9,800.3 C1357.1,801.5 1356.3,803.8 1357,805.9 C1357.7,808 1359.6,809.4 1361.8,809.4 L1586.4,809.4 C1589.2,809.4 1591.4,807.2 1591.4,804.4 L1591.4,649.8 C1591.3,647.9 1590.2,646.2 1588.6,645.4 Z" id="Path" fill="#F3F6E6" fill-rule="nonzero"></path>
                <path d="M1461.2,0.6 L947.1,0.6 C944.4,0.6 942.3,2.7 942.1,5.3 C941.9,7.9 943.9,10.3 946.5,10.5 C1041.2,21.2 1111.7,40.5 1162,69.6 C1192.4,87.2 1215.4,108.6 1230.3,133.3 C1246.8,160.6 1253.9,192.8 1251.5,229 C1248.2,278.8 1265.2,317.7 1303.3,347.8 C1336.6,374.1 1382,390.8 1425.8,407 C1505.7,436.5 1581.1,464.3 1581.1,544.7 C1581.1,547.5 1583.3,549.7 1586.1,549.7 C1588.9,549.7 1591.10051,547.5 1591.10051,544.7 L1591.10051,130.7 C1591.3,59 1532.9,0.6 1461.2,0.6 Z" id="Path" fill="#F3F6E6" fill-rule="nonzero"></path>
                <path d="M1003.2,799.4 C812.6,799.4 723.3,726 644.6,661.2 C601.3,625.6 560.5,592 507.8,575 C504.5,573.9 501,572.9 497.4,571.9 C412.6,548.7 372.7,461.9 334,377.9 C309.1,323.9 285.6,272.8 251.1,238.4 C242.3,229.7 233,222.2 223.5,216.4 C194.6,198.6 166.2,185.6 141.3,174.1 C104.6,157.2 72.8,142.7 50,118.6 C25.3,92.6 12.8,56.6 10.8,5.5 C10.7,2.8 8.5,0.7 5.8,0.7 L5.7,0.7 C3,0.8 0.8,3 0.8,5.7 L0.8,804.5 C0.8,807.3 3,809.5 5.8,809.5 L1003.3,809.5 C1006.1,809.5 1008.3,807.3 1008.3,804.5 C1008.3,801.7 1006,799.4 1003.2,799.4 Z" id="Path" fill="#F3F6E6" fill-rule="nonzero"></path>
                <path d="M511.2,579 C510.9,577.1 509.6,575.5 507.8,575 C504.5,573.9 501,572.9 497.4,571.9 C412.6,548.7 372.7,461.9 334,377.9 C309.1,323.9 285.6,272.8 251.1,238.4 C249.3,236.6 246.3,236.4 244.3,238.1 C231.6,248.9 220.2,261.2 210.3,274.6 C196.8,293 186.2,313.4 179,335.1 C169.3,364.3 165.9,394.5 168.9,425 C171.1,448.2 177.1,470.8 186.6,492.2 C188.9,497.3 191.3,502.3 193.9,507 C201.7,521.5 211.1,535.1 221.8,547.4 C253.7,584 297.7,609.2 345.7,618.2 C359,620.7 372.4,622 385.9,622 C421.7,622 457.3,613.2 489.2,596.1 C496,592.5 502.7,588.4 509.1,584 C510.6,582.8 511.4,580.9 511.2,579 Z" id="Path" fill="#383A48" fill-rule="nonzero"></path>
                <g transform="translate(186.000000, 65.000000)" fill-rule="nonzero">
                    <g>
                        <path d="M472.4,342.7 C471,346.1 469.5,349.5 467.9,352.8 C452.8,384.6 430.6,413.5 401.8,436.8 L401.8,436.8 C401.1,437.4 400.4,437.9 399.7,438.5 C395.6,441.8 391.3,445 386.9,448 C372,458.3 356.4,466.8 340.3,473.3 C328.3,478.2 316.1,482.1 303.7,485 C242.5,499.3 177.8,489.1 124,457.1 C94.9,439.8 69,416.2 48.5,386.6 C44.8,381.2 41.3,375.8 38.1,370.3 C-16.6,276.4 -1.6,158.6 71.3,81.3 C82.7,69.2 95.6,58.1 109.8,48.2 C113.7,45.5 117.7,42.9 121.7,40.4 C190.6,-1.7 273.1,-5.5 343.2,24.1 C346.2,25.4 349.2,26.7 352.1,28.1 C376.3,39.5 398.8,55 418.5,74.3 C429.3,84.9 439.2,96.6 448.2,109.5 C455.3,119.7 461.5,130.3 466.8,141.1 C470.3,148.2 473.4,155.5 476.2,162.8 C482.3,179 486.5,195.7 489,212.5 L489,212.5 C495.4,256.8 489.6,301.9 472.4,342.7 Z" id="Path" fill="#AAC6FC"></path>
                        <path d="M248.6,496.5 C235.8,496.5 223,495.5 210.2,493.5 C178.6,488.6 148.7,477.8 121.3,461.6 C90.7,443.4 64.7,419.2 44.3,389.7 C40.6,384.3 37,378.7 33.7,373 C6.5,326.2 -4.6,273.1 1.8,219.2 C8,166.5 31.4,116.4 67.6,78.1 C79.4,65.6 92.6,54.2 106.9,44.3 C110.8,41.6 114.9,38.9 119.1,36.4 C187.1,-5.1 271.6,-11.3 345.1,19.8 C348.1,21.1 351.2,22.4 354.2,23.8 C379.4,35.7 402.2,51.5 422,71 C433.1,81.9 443.3,94 452.3,106.9 C459.4,117.2 465.8,128 471.3,139.2 C474.8,146.4 478.1,153.8 480.9,161.4 C487,177.7 491.4,194.8 493.9,212.1 L493.9,212.2 C500.5,257.1 494.6,302.9 477,344.8 C475.6,348.2 474,351.7 472.4,355.2 C456.5,388.7 433.8,417.5 405,440.9 L404.9,441 C404.2,441.6 403.4,442.2 402.7,442.7 C398.7,445.9 394.3,449.2 389.7,452.4 C374.8,462.7 358.8,471.4 342.1,478.3 C330.1,483.2 317.5,487.2 304.8,490.2 C286.2,494.3 267.5,496.5 248.6,496.5 Z M248.3,10.1 C205.1,10.1 162,21.8 124.3,44.8 C120.3,47.3 116.3,49.8 112.6,52.4 C98.9,61.9 86.2,72.8 74.8,84.8 C40.1,121.6 17.7,169.7 11.7,220.2 C5.6,271.9 16.2,322.9 42.3,367.8 C45.5,373.2 48.9,378.6 52.5,383.8 C72.1,412.2 97,435.4 126.4,452.8 C152.7,468.4 181.4,478.7 211.7,483.4 C242.1,488.1 272.6,487 302.4,480.1 C314.6,477.2 326.7,473.4 338.2,468.7 C354.2,462.2 369.6,453.8 383.9,443.9 C388.3,440.8 392.5,437.7 396.4,434.6 C397.1,434.1 397.7,433.5 398.4,433 L398.5,432.9 C426.2,410.5 448,382.8 463.3,350.6 C464.9,347.3 466.4,344 467.7,340.7 L467.7,340.7 C484.6,300.5 490.2,256.4 483.9,213.4 L483.9,213.3 C481.5,196.7 477.3,180.4 471.4,164.8 C468.7,157.6 465.6,150.4 462.2,143.5 C457,132.8 450.8,122.4 444,112.5 C435.4,100.1 425.6,88.5 414.9,78 C395.9,59.3 374,44.1 349.9,32.7 C347,31.3 344.1,30 341.2,28.8 C311.5,16.3 279.8,10.1 248.3,10.1 Z" id="Shape" fill="#383A48"></path>
                    </g>
                    <g transform="translate(286.000000, 183.000000)">
                        <path d="M186.4,159.7 L178.9,156.9 C156.8,148.5 132.5,162 127.8,185.2 L113.6,255.6 C109.5,258.9 105.2,262.1 100.8,265.1 C85.9,275.4 70.3,283.9 54.2,290.4 L17.1,222.6 C8.1,206.2 4.1,187.6 5.4,169 L7.2,143.2 C9.8,107 32.2,75.2 65.5,60.7 L192.8,5.2 L203,29.7 L203,29.7 C209.4,73.8 203.6,118.9 186.4,159.7 Z" id="Path" fill="#E0719E"></path>
                        <path d="M54.2,295.4 C52.4,295.4 50.7,294.4 49.8,292.8 L12.7,225 C3.3,207.7 -1,188.2 0.4,168.6 L2.2,142.8 C4.9,104.6 28.4,71.4 63.4,56.1 L190.7,0.6 C191.9,0.1 193.3,5.30964162e-14 194.6,0.5 C195.8,1 196.8,2 197.4,3.2 L207.6,27.7 C207.8,28.1 207.9,28.6 207.9,29 C214.5,73.9 208.6,119.7 191,161.6 C190,164.1 187.1,165.3 184.6,164.3 L177.1,161.5 C167.9,158 157.8,158.8 149.2,163.5 C140.6,168.2 134.6,176.5 132.7,186.1 L118.5,256.5 C118.3,257.7 117.6,258.7 116.7,259.4 C112.6,262.7 108.2,265.9 103.6,269.1 C88.7,279.4 72.7,288.1 56,295 C55.5,295.3 54.8,295.4 54.2,295.4 Z M190.1,11.8 L67.5,65.3 C35.8,79.1 14.7,109.1 12.2,143.6 L10.4,169.4 C9.2,187.1 13,204.7 21.5,220.3 L56.4,284.1 C70.9,277.8 84.9,270.1 98,261 C101.9,258.3 105.6,255.6 109.1,252.8 L122.9,184.2 C125.4,171.7 133.2,161 144.4,154.9 C155.5,148.7 168.8,147.8 180.7,152.3 L183.7,153.4 C199.1,114.6 204.1,72.4 198.2,31.1 L190.1,11.8 Z" id="Shape" fill="#383A48"></path>
                    </g>
                    <g transform="translate(0.000000, 76.000000)">
                        <path d="M120.6,251.5 L93.8,269.5 L38,294.4 C-16.7,200.5 -1.7,82.7 71.2,5.4 L121.7,92.8 L148.2,168.6 C158.9,199.3 147.6,233.3 120.6,251.5 Z" id="Path" fill="#E0719E"></path>
                        <path d="M38,299.4 C36.3,299.4 34.6,298.5 33.7,296.9 C6.5,250.1 -4.6,197 1.8,143.1 C8,90.4 31.4,40.3 67.6,2 C68.7,0.9 70.2,0.3 71.8,0.5 C73.4,0.7 74.8,1.6 75.5,3 L126,90.4 C126.2,90.7 126.3,91 126.4,91.3 L152.9,167.1 C164.3,199.9 152.2,236.4 123.4,255.8 L123.4,255.8 L96.6,273.8 C96.4,274 96.1,274.1 95.8,274.2 L40,299 C39.4,299.3 38.7,299.4 38,299.4 Z M70.3,13.8 C38.2,49.9 17.5,96 11.7,144.2 C5.8,194.4 15.6,244 40.1,287.9 L91.4,265 L117.8,247.2 C142.8,230.3 153.4,198.6 143.4,170.1 L117.1,94.7 L70.3,13.8 Z" id="Shape" fill="#383A48"></path>
                    </g>
                    <g transform="translate(172.000000, 0.000000)">
                        <path d="M223.4,68.6 C213.5,106.6 157,124.7 97.3,109.1 C39.3,93.9 -0.4,52.5 6.5,15.3 C83.8,-7.9 164.6,9.2 224.9,55.7 C225,60 224.5,64.3 223.4,68.6 Z" id="Path" fill="#F3F6E6"></path>
                        <path d="M139.8,119.7 C125.6,119.7 110.8,117.8 96,113.9 C35.6,98.1 -5.8,54.4 1.5,14.4 C1.8,12.6 3.2,11.1 5,10.5 C81.3,-12.4 164.6,3 227.9,51.7 C229.1,52.6 229.8,54 229.8,55.5 C229.9,60.4 229.4,65.2 228.2,69.8 C222.9,89.9 206,105.4 180.5,113.6 C168,117.7 154.2,119.7 139.8,119.7 Z M10.9,19.2 C9.2,34.8 16.3,51.6 31.1,67 C47.5,83.9 71.4,97.2 98.5,104.3 C126.5,111.6 154.5,111.6 177.4,104.3 C199.5,97.2 214.1,84.1 218.5,67.5 L218.5,67.5 C219.3,64.5 219.7,61.4 219.8,58.3 C160.2,13.1 82.5,-1.3 10.9,19.2 Z" id="Shape" fill="#383A48"></path>
                    </g>
                    <g transform="translate(5.000000, 50.000000)" fill="#383A48" id="Oval">
                        <circle cx="433.1" cy="331.2" r="4.1"></circle>
                        <circle cx="412.7" cy="331.2" r="4.1"></circle>
                        <circle cx="412.7" cy="351.6" r="4.1"></circle>
                        <circle cx="392.3" cy="351.6" r="4.1"></circle>
                        <circle cx="392.3" cy="372" r="4.1"></circle>
                        <circle cx="371.9" cy="351.6" r="4.1"></circle>
                        <circle cx="371.9" cy="372" r="4.1"></circle>
                        <circle cx="371.9" cy="392.4" r="4.1"></circle>
                        <circle cx="351.4" cy="351.6" r="4.1"></circle>
                        <circle cx="351.4" cy="372" r="4.1"></circle>
                        <circle cx="351.4" cy="392.4" r="4.1"></circle>
                        <circle cx="331" cy="351.6" r="4.1"></circle>
                        <circle cx="331" cy="372" r="4.1"></circle>
                        <circle cx="331" cy="392.4" r="4.1"></circle>
                        <circle cx="331" cy="412.9" r="4.1"></circle>
                        <circle cx="310.6" cy="351.6" r="4.1"></circle>
                        <circle cx="310.6" cy="372" r="4.1"></circle>
                        <circle cx="310.6" cy="392.4" r="4.1"></circle>
                        <circle cx="310.6" cy="412.9" r="4.1"></circle>
                        <circle cx="290.2" cy="351.6" r="4.1"></circle>
                        <circle cx="290.2" cy="372" r="4.1"></circle>
                        <circle cx="290.2" cy="392.4" r="4.1"></circle>
                        <circle cx="290.2" cy="412.9" r="4.1"></circle>
                        <circle cx="269.7" cy="351.6" r="4.1"></circle>
                        <circle cx="269.7" cy="372" r="4.1"></circle>
                        <circle cx="269.7" cy="392.4" r="4.1"></circle>
                        <circle cx="269.7" cy="412.9" r="4.1"></circle>
                        <circle cx="249.3" cy="331.2" r="4.1"></circle>
                        <circle cx="249.3" cy="351.6" r="4.1"></circle>
                        <circle cx="249.3" cy="372" r="4.1"></circle>
                        <circle cx="249.3" cy="392.4" r="4.1"></circle>
                        <circle cx="249.3" cy="412.9" r="4.1"></circle>
                        <circle cx="249.3" cy="433.3" r="4.1"></circle>
                        <circle cx="228.9" cy="331.2" r="4.1"></circle>
                        <circle cx="228.9" cy="351.6" r="4.1"></circle>
                        <circle cx="228.9" cy="372" r="4.1"></circle>
                        <circle cx="228.9" cy="392.4" r="4.1"></circle>
                        <circle cx="228.9" cy="412.9" r="4.1"></circle>
                        <circle cx="228.9" cy="433.3" r="4.1"></circle>
                        <circle cx="208.5" cy="331.2" r="4.1"></circle>
                        <circle cx="208.5" cy="351.6" r="4.1"></circle>
                        <circle cx="208.5" cy="372" r="4.1"></circle>
                        <circle cx="208.5" cy="392.4" r="4.1"></circle>
                        <circle cx="208.5" cy="412.9" r="4.1"></circle>
                        <circle cx="208.5" cy="433.3" r="4.1"></circle>
                        <circle cx="188" cy="310.7" r="4.1"></circle>
                        <circle cx="188" cy="331.2" r="4.1"></circle>
                        <circle cx="188" cy="351.6" r="4.1"></circle>
                        <circle cx="188" cy="372" r="4.1"></circle>
                        <circle cx="188" cy="392.4" r="4.1"></circle>
                        <circle cx="188" cy="412.9" r="4.1"></circle>
                        <circle cx="167.6" cy="290.3" r="4.1"></circle>
                        <circle cx="167.6" cy="310.7" r="4.1"></circle>
                        <circle cx="167.6" cy="331.2" r="4.1"></circle>
                        <circle cx="167.6" cy="351.6" r="4.1"></circle>
                        <circle cx="167.6" cy="372" r="4.1"></circle>
                        <circle cx="167.6" cy="392.4" r="4.1"></circle>
                        <circle cx="167.6" cy="412.9" r="4.1"></circle>
                        <circle cx="147.2" cy="269.9" r="4.1"></circle>
                        <circle cx="147.2" cy="290.3" r="4.1"></circle>
                        <circle cx="147.2" cy="310.7" r="4.1"></circle>
                        <circle cx="147.2" cy="331.2" r="4.1"></circle>
                        <circle cx="147.2" cy="351.6" r="4.1"></circle>
                        <circle cx="147.2" cy="372" r="4.1"></circle>
                        <circle cx="147.2" cy="392.4" r="4.1"></circle>
                        <circle cx="147.2" cy="412.9" r="4.1"></circle>
                        <circle cx="126.8" cy="249.5" r="4.1"></circle>
                        <circle cx="126.8" cy="269.9" r="4.1"></circle>
                        <circle cx="126.8" cy="290.3" r="4.1"></circle>
                        <circle cx="126.8" cy="310.7" r="4.1"></circle>
                        <circle cx="126.8" cy="331.2" r="4.1"></circle>
                        <circle cx="126.8" cy="351.6" r="4.1"></circle>
                        <circle cx="126.8" cy="372" r="4.1"></circle>
                        <circle cx="126.8" cy="392.4" r="4.1"></circle>
                        <circle cx="106.3" cy="4.4" r="4.1"></circle>
                        <circle cx="106.3" cy="208.6" r="4.1"></circle>
                        <circle cx="106.3" cy="229" r="4.1"></circle>
                        <circle cx="106.3" cy="249.5" r="4.1"></circle>
                        <circle cx="106.3" cy="269.9" r="4.1"></circle>
                        <circle cx="106.3" cy="290.3" r="4.1"></circle>
                        <circle cx="106.3" cy="310.7" r="4.1"></circle>
                        <circle cx="106.3" cy="331.2" r="4.1"></circle>
                        <circle cx="106.3" cy="351.6" r="4.1"></circle>
                        <circle cx="106.3" cy="372" r="4.1"></circle>
                        <circle cx="106.3" cy="392.4" r="4.1"></circle>
                        <circle cx="85.9" cy="24.8" r="4.1"></circle>
                        <circle cx="85.9" cy="45.2" r="4.1"></circle>
                        <circle cx="85.9" cy="65.7" r="4.1"></circle>
                        <circle cx="85.9" cy="86.1" r="4.1"></circle>
                        <circle cx="85.9" cy="106.5" r="4.1"></circle>
                        <circle cx="85.9" cy="126.9" r="4.1"></circle>
                        <circle cx="85.9" cy="147.3" r="4.1"></circle>
                        <circle cx="85.9" cy="167.8" r="4.1"></circle>
                        <circle cx="85.9" cy="188.2" r="4.1"></circle>
                        <circle cx="85.9" cy="208.6" r="4.1"></circle>
                        <circle cx="85.9" cy="229" r="4.1"></circle>
                        <circle cx="85.9" cy="249.5" r="4.1"></circle>
                        <circle cx="85.9" cy="269.9" r="4.1"></circle>
                        <circle cx="85.9" cy="290.3" r="4.1"></circle>
                        <circle cx="85.9" cy="310.7" r="4.1"></circle>
                        <circle cx="85.9" cy="331.2" r="4.1"></circle>
                        <circle cx="85.9" cy="351.6" r="4.1"></circle>
                        <circle cx="85.9" cy="372" r="4.1"></circle>
                        <circle cx="65.5" cy="45.2" r="4.1"></circle>
                        <circle cx="65.5" cy="65.7" r="4.1"></circle>
                        <circle cx="65.5" cy="86.1" r="4.1"></circle>
                        <circle cx="65.5" cy="106.5" r="4.1"></circle>
                        <circle cx="65.5" cy="126.9" r="4.1"></circle>
                        <circle cx="65.5" cy="147.3" r="4.1"></circle>
                        <circle cx="65.5" cy="167.8" r="4.1"></circle>
                        <circle cx="65.5" cy="188.2" r="4.1"></circle>
                        <circle cx="65.5" cy="208.6" r="4.1"></circle>
                        <circle cx="65.5" cy="229" r="4.1"></circle>
                        <circle cx="65.5" cy="249.5" r="4.1"></circle>
                        <circle cx="65.5" cy="269.9" r="4.1"></circle>
                        <circle cx="65.5" cy="290.3" r="4.1"></circle>
                        <circle cx="65.5" cy="310.7" r="4.1"></circle>
                        <circle cx="65.5" cy="331.2" r="4.1"></circle>
                        <circle cx="65.5" cy="351.6" r="4.1"></circle>
                        <circle cx="45.1" cy="65.7" r="4.1"></circle>
                        <circle cx="45.1" cy="86.1" r="4.1"></circle>
                        <circle cx="45.1" cy="106.5" r="4.1"></circle>
                        <circle cx="45.1" cy="126.9" r="4.1"></circle>
                        <circle cx="45.1" cy="147.3" r="4.1"></circle>
                        <circle cx="45.1" cy="167.8" r="4.1"></circle>
                        <circle cx="45.1" cy="188.2" r="4.1"></circle>
                        <circle cx="45.1" cy="208.6" r="4.1"></circle>
                        <circle cx="45.1" cy="229" r="4.1"></circle>
                        <circle cx="45.1" cy="249.5" r="4.1"></circle>
                        <circle cx="45.1" cy="269.9" r="4.1"></circle>
                        <circle cx="45.1" cy="290.3" r="4.1"></circle>
                        <circle cx="45.1" cy="310.7" r="4.1"></circle>
                        <circle cx="45.1" cy="331.2" r="4.1"></circle>
                        <circle cx="24.6" cy="106.5" r="4.1"></circle>
                        <circle cx="24.6" cy="126.9" r="4.1"></circle>
                        <circle cx="24.6" cy="147.3" r="4.1"></circle>
                        <circle cx="24.6" cy="167.8" r="4.1"></circle>
                        <circle cx="24.6" cy="188.2" r="4.1"></circle>
                        <circle cx="24.6" cy="208.6" r="4.1"></circle>
                        <circle cx="24.6" cy="229" r="4.1"></circle>
                        <circle cx="24.6" cy="249.5" r="4.1"></circle>
                        <circle cx="24.6" cy="269.9" r="4.1"></circle>
                        <circle cx="24.6" cy="290.3" r="4.1"></circle>
                        <circle cx="4.2" cy="167.8" r="4.1"></circle>
                        <circle cx="4.2" cy="188.2" r="4.1"></circle>
                        <circle cx="4.2" cy="208.6" r="4.1"></circle>
                        <circle cx="4.2" cy="229" r="4.1"></circle>
                    </g>
                </g>
                <g transform="translate(560.000000, 44.000000)">
                    <g transform="translate(339.000000, 397.000000)">
                        <g fill-rule="nonzero">
                            <g transform="translate(68.000000, 0.000000)">
                                <rect id="Rectangle" fill="#F3F6E6" transform="translate(73.488350, 72.992350) rotate(-45.000000) translate(-73.488350, -72.992350) " x="25.4888103" y="24.9928103" width="95.9990794" height="95.9990794"></rect>
                                <path d="M73.5,145.9 C72.2,145.9 70.9,145.4 70,144.4 L2.1,76.5 C0.1,74.5 0.1,71.4 2.1,69.4 L70,1.5 C72,-0.5 75.1,-0.5 77.1,1.5 L145,69.4 C147,71.4 147,74.5 145,76.5 L77.1,144.4 C76,145.4 74.8,145.9 73.5,145.9 Z M12.7,73 L73.5,133.8 L134.3,73 L73.5,12.2 L12.7,73 Z" id="Shape" fill="#383A48"></path>
                            </g>
                            <g transform="translate(136.000000, 67.000000)">
                                <rect id="Rectangle" fill="#F3F6E6" transform="translate(73.384430, 73.888450) rotate(-45.000000) translate(-73.384430, -73.888450) " x="25.3848903" y="25.8889103" width="95.9990794" height="95.9990794"></rect>
                                <path d="M73.4,146.8 C72.1,146.8 70.8,146.3 69.9,145.3 L2,77.4 C0,75.4 0,72.3 2,70.3 L69.9,2.4 C71.9,0.4 75,0.4 77,2.4 L144.9,70.3 C145.8,71.2 146.4,72.5 146.4,73.8 C146.4,75.1 145.9,76.4 144.9,77.3 L77,145.2 C75.9,146.3 74.7,146.8 73.4,146.8 Z M12.6,73.9 L73.4,134.7 L134.2,73.9 L73.4,13.1 L12.6,73.9 Z" id="Shape" fill="#383A48"></path>
                            </g>
                            <g transform="translate(204.000000, 135.000000)">
                                <rect id="Rectangle" fill="#F3F6E6" transform="translate(73.280410, 73.784450) rotate(-45.000000) translate(-73.280410, -73.784450) " x="25.2808703" y="25.7849103" width="95.9990794" height="95.9990794"></rect>
                                <path d="M73.3,146.7 C72,146.7 70.7,146.2 69.8,145.2 L1.9,77.3 C1,76.4 0.4,75.1 0.4,73.8 C0.4,72.5 0.9,71.2 1.9,70.3 L69.8,2.4 C71.8,0.4 74.9,0.4 76.9,2.4 L144.8,70.3 C146.8,72.3 146.8,75.4 144.8,77.4 L76.9,145.3 C75.8,146.2 74.6,146.7 73.3,146.7 Z M12.5,73.8 L73.3,134.6 L134.1,73.8 L73.3,13 L12.5,73.8 Z" id="Shape" fill="#383A48"></path>
                            </g>
                            <g transform="translate(0.000000, 68.000000)">
                                <rect id="Rectangle" fill="#F3F6E6" transform="translate(72.976350, 73.504450) rotate(-45.000000) translate(-72.976350, -73.504450) " x="24.9768103" y="25.5049103" width="95.9990794" height="95.9990794"></rect>
                                <path d="M73,146.4 C71.7,146.4 70.4,145.9 69.5,144.9 L1.6,77 C-0.4,75 -0.4,71.9 1.6,69.9 L69.5,2 C71.5,0 74.6,0 76.6,2 L144.5,69.9 C146.5,71.9 146.5,75 144.5,77 L76.6,144.9 C75.5,145.9 74.2,146.4 73,146.4 Z M12.1,73.5 L72.9,134.3 L133.7,73.5 L72.9,12.7 L12.1,73.5 Z" id="Shape" fill="#383A48"></path>
                            </g>
                            <g transform="translate(68.000000, 136.000000)">
                                <rect id="Rectangle" fill="#F3F6E6" transform="translate(72.872330, 73.400450) rotate(-45.000000) translate(-72.872330, -73.400450) " x="24.8727903" y="25.4009103" width="95.9990794" height="95.9990794"></rect>
                                <path d="M72.9,146.3 C71.6,146.3 70.3,145.8 69.4,144.8 L1.5,76.9 C-0.5,74.9 -0.5,71.8 1.5,69.8 L69.4,1.9 C71.4,-0.1 74.5,-0.1 76.5,1.9 L144.4,69.8 C146.4,71.8 146.4,74.9 144.4,76.9 L76.5,144.8 C75.4,145.8 74.1,146.3 72.9,146.3 Z M12,73.4 L72.8,134.2 L133.6,73.4 L72.8,12.6 L12,73.4 Z" id="Shape" fill="#383A48"></path>
                            </g>
                            <g transform="translate(135.000000, 204.000000)">
                                <rect id="Rectangle" fill="#F3F6E6" transform="translate(73.656290, 73.225650) rotate(-45.000000) translate(-73.656290, -73.225650) " x="25.6567503" y="25.2261103" width="95.9990794" height="95.9990794"></rect>
                                <path d="M73.8,146.2 C72.5,146.2 71.2,145.7 70.3,144.7 L2.4,76.8 C0.4,74.8 0.4,71.7 2.4,69.7 L70.3,1.8 C72.3,-0.2 75.4,-0.2 77.4,1.8 L145.3,69.7 C147.3,71.7 147.3,74.8 145.3,76.8 L77.4,144.7 C76.3,145.7 75,146.2 73.8,146.2 Z M12.9,73.3 L73.7,134.1 L134.5,73.3 L73.7,12.5 L12.9,73.3 Z" id="Shape" fill="#383A48"></path>
                            </g>
                        </g>
                        <g transform="translate(18.000000, 18.000000)" id="Path">
                            <line x1="55" y1="55.6" x2="5.3" y2="5.9"></line>
                            <path d="M55,60.6 C53.7,60.6 52.4,60.1 51.5,59.1 L1.8,9.4 C-0.2,7.4 -0.2,4.3 1.8,2.3 C3.8,0.3 6.9,0.3 8.9,2.3 L58.6,52 C60.6,54 60.6,57.1 58.6,59.1 C57.5,60.1 56.2,60.6 55,60.6 Z" fill="#383A48" fill-rule="nonzero"></path>
                        </g>
                    </g>
                    <g transform="translate(0.000000, 58.000000)">
                        <g fill-rule="nonzero">
                            <g transform="translate(205.000000, 136.000000)">
                                <rect id="Rectangle" fill="#F3F6E6" transform="translate(73.057760, 73.489940) rotate(-45.000000) translate(-73.057760, -73.489940) " x="25.0582203" y="25.4904003" width="95.9990794" height="95.9990794"></rect>
                                <path d="M73.1,146.5 C71.8,146.5 70.5,146 69.6,145 L1.7,77.1 C-0.3,75.1 -0.3,72 1.7,70 L69.6,2.1 C71.6,0.1 74.7,0.1 76.7,2.1 L144.6,70 C146.6,72 146.6,75.1 144.6,77.1 L76.7,145 C75.6,146 74.3,146.5 73.1,146.5 Z M12.2,73.6 L73,134.4 L133.8,73.6 L73,12.8 L12.2,73.6 Z" id="Shape" fill="#383A48"></path>
                            </g>
                            <g transform="translate(137.000000, 68.000000)">
                                <rect id="Rectangle" fill="#F3F6E6" transform="translate(73.150280, 73.598640) rotate(-45.000000) translate(-73.150280, -73.598640) " x="25.1507403" y="25.5991003" width="95.9990794" height="95.9990794"></rect>
                                <path d="M73.2,146.6 C71.9,146.6 70.6,146.1 69.7,145.1 L1.8,77.2 C0.9,76.3 0.3,75 0.3,73.7 C0.3,72.4 0.8,71.1 1.8,70.2 L69.7,2.3 C71.7,0.3 74.8,0.3 76.8,2.3 L144.7,70.2 C146.7,72.2 146.7,75.3 144.7,77.3 L76.8,145.2 C75.7,146.1 74.5,146.6 73.2,146.6 Z M12.3,73.7 L73.1,134.5 L133.9,73.7 L73.1,12.9 L12.3,73.7 Z" id="Shape" fill="#383A48"></path>
                            </g>
                            <g transform="translate(69.000000, 0.000000)">
                                <rect id="Rectangle" fill="#F3F6E6" transform="translate(73.313510, 73.778050) rotate(-45.000000) translate(-73.313510, -73.778050) " x="25.3139703" y="25.7785103" width="95.9990794" height="95.9990794"></rect>
                                <path d="M73.3,146.7 C72,146.7 70.7,146.2 69.8,145.2 L1.9,77.3 C-0.1,75.3 -0.1,72.2 1.9,70.2 L69.8,2.3 C71.8,0.3 74.9,0.3 76.9,2.3 L144.8,70.2 C145.7,71.1 146.3,72.4 146.3,73.7 C146.3,75 145.8,76.3 144.8,77.2 L76.9,145.1 C75.8,146.2 74.6,146.7 73.3,146.7 Z M12.5,73.8 L73.3,134.6 L134.1,73.8 L73.3,13 L12.5,73.8 Z" id="Shape" fill="#383A48"></path>
                            </g>
                            <g transform="translate(136.000000, 205.000000)">
                                <rect id="Rectangle" fill="#F3F6E6" transform="translate(73.569170, 73.099950) rotate(-45.000000) translate(-73.569170, -73.099950) " x="25.5696303" y="25.1004103" width="95.9990794" height="95.9990794"></rect>
                                <path d="M73.5,146 C72.2,146 70.9,145.5 70,144.5 L2.1,76.6 C0.1,74.6 0.1,71.5 2.1,69.5 L70,1.6 C72,-0.4 75.1,-0.4 77.1,1.6 L145,69.5 C147,71.5 147,74.6 145,76.6 L77.1,144.5 C76.1,145.5 74.8,146 73.5,146 Z M12.7,73.1 L73.5,133.9 L134.3,73.1 L73.5,12.3 L12.7,73.1 Z" id="Shape" fill="#383A48"></path>
                            </g>
                            <path d="M384.8,241.3 L316.9,173.4 C314.9,171.4 311.8,171.4 309.8,173.4 L241.9,241.3 C241.8,241.4 241.7,241.5 241.6,241.6 C241.5,241.7 241.4,241.8 241.3,241.9 L173.4,309.8 C171.4,311.8 171.4,314.9 173.4,316.9 L241.3,384.8 C242.3,385.8 243.6,386.3 244.8,386.3 C246,386.3 247.4,385.8 248.3,384.8 L316.2,316.9 C316.3,316.8 316.4,316.7 316.5,316.6 C316.6,316.5 316.7,316.4 316.8,316.3 L384.7,248.4 C386.7,246.4 386.7,243.3 384.8,241.3 Z" id="Path" fill="#383A48"></path>
                            <path d="M520.5,377.1 L452.6,309.2 C450.6,307.2 447.5,307.2 445.5,309.2 L377.6,377.1 C377.5,377.2 377.4,377.3 377.3,377.4 C377.2,377.5 377.1,377.6 377,377.7 L309.1,445.6 C308.2,446.5 307.6,447.8 307.6,449.1 C307.6,450.4 308.1,451.7 309.1,452.6 L377,520.5 C378,521.5 379.3,522 380.5,522 C381.7,522 383.1,521.5 384,520.5 L451.9,452.6 C452,452.5 452.1,452.4 452.2,452.3 C452.3,452.2 452.4,452.1 452.5,452 L520.4,384.1 C522.5,382.2 522.5,379 520.5,377.1 Z" id="Path" fill="#383A48"></path>
                            <g transform="translate(68.000000, 137.000000)">
                                <rect id="Rectangle" fill="#F3F6E6" transform="translate(73.661790, 73.208750) rotate(-45.000000) translate(-73.661790, -73.208750) " x="25.6622503" y="25.2092103" width="95.9990794" height="95.9990794"></rect>
                                <path d="M73.7,146.1 C72.4,146.1 71.1,145.6 70.2,144.6 L2.3,76.7 C0.3,74.7 0.3,71.6 2.3,69.6 L70.2,1.7 C72.2,-0.3 75.3,-0.3 77.3,1.7 L145.2,69.6 C147.2,71.6 147.2,74.7 145.2,76.7 L77.3,144.6 C76.2,145.6 74.9,146.1 73.7,146.1 Z M12.8,73.2 L73.6,134 L134.4,73.2 L73.6,12.4 L12.8,73.2 Z" id="Shape" fill="#383A48"></path>
                            </g>
                            <g transform="translate(0.000000, 69.000000)">
                                <rect id="Rectangle" fill="#F3F6E6" transform="translate(73.825020, 73.388160) rotate(-45.000000) translate(-73.825020, -73.388160) " x="25.8254803" y="25.3886203" width="95.9990794" height="95.9990794"></rect>
                                <path d="M73.8,146.2 C72.5,146.2 71.2,145.7 70.3,144.7 L2.4,76.8 C0.4,74.8 0.4,71.7 2.4,69.7 L70.3,1.8 C72.3,-0.2 75.4,-0.2 77.4,1.8 L145.3,69.7 C147.3,71.7 147.3,74.8 145.3,76.8 L77.4,144.7 C76.3,145.7 75,146.2 73.8,146.2 Z M12.9,73.3 L73.7,134.1 L134.5,73.3 L73.7,12.5 L12.9,73.3 Z" id="Shape" fill="#383A48"></path>
                            </g>
                        </g>
                        <g transform="translate(272.000000, 273.000000)" id="Path">
                            <line x1="5.4" y1="5.1" x2="55.1" y2="54.8"></line>
                            <path d="M55.1,59.8 C53.8,59.8 52.5,59.3 51.6,58.3 L1.9,8.6 C-0.1,6.6 -0.1,3.5 1.9,1.5 C3.9,-0.5 7,-0.5 9,1.5 L58.7,51.2 C60.7,53.2 60.7,56.3 58.7,58.3 C57.7,59.3 56.4,59.8 55.1,59.8 Z" fill="#383A48" fill-rule="nonzero"></path>
                        </g>
                    </g>
                    <g transform="translate(72.000000, 484.000000)" fill-rule="nonzero">
                        <rect id="Rectangle" fill="#F3F6E6" transform="translate(97.109275, 97.157355) rotate(-45.000000) translate(-97.109275, -97.157355) " x="62.909603" y="2.30826462" width="68.399344" height="189.698181"></rect>
                        <path d="M140.1,193.4 C138.8,193.4 137.5,192.9 136.6,191.9 L2.4,57.7 C0.4,55.7 0.4,52.6 2.4,50.6 L50.7,2.3 C51.6,1.4 52.9,0.8 54.2,0.8 C55.5,0.8 56.8,1.3 57.7,2.3 L192,136.5 C194,138.5 194,141.6 192,143.6 L143.7,191.9 C142.7,192.9 141.5,193.4 140.1,193.4 Z M13,54.2 L140.1,181.3 L181.4,140 L54.3,13 L13,54.2 Z" id="Shape" fill="#383A48"></path>
                    </g>
                    <g transform="translate(106.000000, 400.000000)" fill-rule="nonzero">
                        <rect id="Rectangle" fill="#F6E049" transform="translate(122.187975, 122.038335) rotate(-45.000000) translate(-122.187975, -122.038335) " x="51.6886511" y="27.1892446" width="140.998648" height="189.698181"></rect>
                        <path d="M139.5,244.1 C138.2,244.1 136.9,243.6 136,242.6 L1.8,108.4 C-0.2,106.4 -0.2,103.3 1.8,101.3 L101.5,1.6 C102.4,0.7 103.7,0.1 105,0.1 C106.3,0.1 107.6,0.6 108.5,1.6 L242.7,135.8 C243.6,136.7 244.2,138 244.2,139.3 C244.2,140.6 243.7,141.9 242.7,142.8 L143,242.6 C142,243.6 140.7,244.1 139.5,244.1 Z M12.4,104.9 L139.5,232 L232.1,139.4 L105,12.3 L12.4,104.9 Z" id="Shape" fill="#383A48"></path>
                    </g>
                    <g transform="translate(205.000000, 175.000000)" fill-rule="nonzero">
                        <path d="M344.1,160.4 L140,364.5 L5.9,230.3 L210,26.2 C223.2,13 240.3,6 257.6,5.2 C277,4.3 296.7,11.3 311.6,26.2 L344.2,58.8 C359,73.6 366,93.3 365.2,112.8 C364.3,130.1 357.3,147.2 344.1,160.4 Z" id="Path" fill="#AAC6FC"></path>
                        <path d="M140,369.5 C138.7,369.5 137.4,369 136.5,368 L2.3,233.8 C0.3,231.8 0.3,228.7 2.3,226.7 L206.4,22.6 C220,9 238.1,1 257.3,0.2 C278.8,-0.8 299.8,7.4 315,22.6 L347.6,55.2 C362.8,70.4 371,91.4 370,112.9 C369.1,132.1 361.2,150.2 347.6,163.8 L344.1,160.3 L347.6,163.8 L143.6,368 C142.6,369 141.4,369.5 140,369.5 Z M12.9,230.3 L140,357.4 L340.6,156.8 C352.4,145 359.4,129.2 360.1,112.5 C360.9,93.8 353.8,75.5 340.6,62.3 L308,29.7 C294.8,16.5 276.5,9.4 257.8,10.2 C241.1,10.9 225.4,17.9 213.5,29.7 L12.9,230.3 Z" id="Shape" fill="#383A48"></path>
                    </g>
                    <path d="M552.7,230.3 L520.1,197.7 C504.9,182.5 483.9,174.3 462.4,175.3 C460.7,175.4 459.2,176.3 458.4,177.7 C457.5,179.1 457.4,180.9 458.1,182.4 C468.7,206.3 483.9,228.2 503.2,247.4 C522.4,266.6 544.3,281.8 568.2,292.5 C568.8,292.8 569.5,292.9 570.2,292.9 C571.1,292.9 572,292.6 572.8,292.2 C574.2,291.3 575.1,289.8 575.2,288.2 C576,266.5 567.9,245.5 552.7,230.3 Z" id="Path" fill="#383A48" fill-rule="nonzero"></path>
                    <path d="M613.7,211.3 C612.8,211.3 611.9,211.1 611.1,210.6 C608.7,209.2 608,206.1 609.4,203.7 L705.1,45.2 L546.6,140.9 C544.2,142.3 541.2,141.6 539.7,139.2 C538.3,136.8 539,133.8 541.4,132.3 L717.2,26.1 C719.2,24.9 721.7,25.2 723.3,26.8 C724.9,28.4 725.2,31 724,32.9 L618,208.8 C617.1,210.4 615.4,211.3 613.7,211.3 Z" id="Path" fill="#383A48" fill-rule="nonzero"></path>
                    <g transform="translate(690.000000, 0.000000)" fill-rule="nonzero">
                        <circle id="Oval" fill="#F3F6E6" cx="29.9" cy="30.4" r="24.6"></circle>
                        <path d="M29.9,60 C22.3,60 14.8,57.1 9,51.4 C-2.5,39.9 -2.5,21.1 9,9.6 C20.5,-1.9 39.3,-1.9 50.8,9.6 C62.3,21.1 62.3,39.9 50.8,51.4 C45.1,57.1 37.5,60 29.9,60 Z M29.9,10.9 C24.9,10.9 19.9,12.8 16.1,16.6 C8.5,24.2 8.5,36.6 16.1,44.3 C23.7,51.9 36.1,51.9 43.8,44.3 C51.5,36.7 51.4,24.3 43.8,16.6 C40,12.8 34.9,10.9 29.9,10.9 Z" id="Shape" fill="#383A48"></path>
                    </g>
                    <g transform="translate(469.000000, 30.000000)" fill-rule="nonzero">
                        <path d="M246.2,239 C190,258.2 118,239.4 65,186.3 C11.9,133.2 -6.8,61.2 12.3,5.1 L246.2,239 Z" id="Path" fill="#F3F6E6"></path>
                        <path d="M200.6,251.4 C185.1,251.4 169.1,249.1 153.1,244.6 C119.4,235.1 87.8,216.2 61.5,189.9 C35.2,163.6 16.3,131.9 6.8,98.3 C-2.5,65.2 -2.2,32.5 7.6,3.5 C8.2,1.9 9.5,0.6 11.2,0.2 C12.9,-0.2 14.6,0.3 15.9,1.5 L249.8,235.4 C251,236.6 251.5,238.4 251.1,240.1 C250.7,241.8 249.5,243.1 247.8,243.7 C232.9,248.9 217,251.4 200.6,251.4 Z M14.6,14.6 C7.8,39.6 8.4,67.5 16.3,95.6 C25.3,127.6 43.4,157.8 68.4,182.9 C93.4,208 123.7,226 155.7,235 C183.8,242.9 211.7,243.5 236.7,236.7 L14.6,14.6 Z" id="Shape" fill="#383A48"></path>
                    </g>
                    <g transform="translate(305.000000, 313.000000)" fill-rule="nonzero">
                        <path d="M17.1,115.2 L17.1,115.2 C1.5,99.6 1.5,74.4 17.1,58.9 L59,17 C74.6,1.4 99.8,1.4 115.3,17 L115.3,17 C130.9,32.6 130.9,57.8 115.3,73.3 L73.4,115.2 C57.9,130.8 32.7,130.8 17.1,115.2 Z" id="Path" fill="#E0719E"></path>
                        <path d="M45.3,131.9 C33.8,131.9 22.3,127.5 13.6,118.8 C-3.9,101.3 -3.9,72.9 13.6,55.4 L55.5,13.5 C73,-4 101.4,-4 118.9,13.5 C136.4,31 136.4,59.4 118.9,76.9 L77,118.8 C68.2,127.5 56.8,131.9 45.3,131.9 Z M87.1,10.4 C78.2,10.4 69.3,13.8 62.5,20.6 L20.6,62.5 C7,76.1 7,98.2 20.6,111.8 C34.2,125.4 56.3,125.4 69.9,111.8 L111.8,69.9 C125.4,56.3 125.4,34.2 111.8,20.6 C105,13.8 96.1,10.4 87.1,10.4 Z" id="Shape" fill="#383A48"></path>
                    </g>
                </g>
                <g transform="translate(1267.000000, 490.000000)" fill-rule="nonzero">
                    <g>
                        <polygon id="Path" fill="#7FD6C2" points="139.3 5.2 50 5.2 5.4 82.5 50 159.8 139.3 159.8 183.9 82.5"></polygon>
                        <path d="M139.3,164.8 L50,164.8 C48.2,164.8 46.6,163.8 45.7,162.3 L1.1,85 C0.2,83.5 0.2,81.5 1.1,80 L45.7,2.7 C46.6,1.2 48.2,0.2 50,0.2 L139.3,0.2 C141.1,0.2 142.7,1.2 143.6,2.7 L188.2,80 C189.1,81.5 189.1,83.5 188.2,85 L143.6,162.3 C142.7,163.8 141.1,164.8 139.3,164.8 Z M52.9,154.8 L136.4,154.8 L178.1,82.5 L136.4,10.2 L52.9,10.2 L11.2,82.5 L52.9,154.8 Z" id="Shape" fill="#383A48"></path>
                    </g>
                    <g transform="translate(135.000000, 77.000000)">
                        <polygon id="Path" fill="#E0719E" points="139.6 5.5 50.4 5.5 5.8 82.8 50.4 160.1 139.6 160.1 184.3 82.8"></polygon>
                        <path d="M139.6,165.1 L50.3,165.1 C48.5,165.1 46.9,164.1 46,162.6 L1.4,85.3 C0.5,83.8 0.5,81.8 1.4,80.3 L46,3 C46.9,1.5 48.5,0.5 50.3,0.5 L139.6,0.5 C141.4,0.5 143,1.5 143.9,3 L188.5,80.3 C189.4,81.8 189.4,83.8 188.5,85.3 L143.9,162.6 C143.1,164.1 141.4,165.1 139.6,165.1 Z M53.3,155.1 L136.8,155.1 L178.5,82.8 L136.8,10.5 L53.3,10.5 L11.6,82.8 L53.3,155.1 Z" id="Shape" fill="#383A48"></path>
                    </g>
                    <g transform="translate(2.000000, 154.000000)">
                        <polygon id="Path" fill="#4053FA" points="139.3 5.8 50 5.8 5.4 83.1 50 160.4 139.3 160.4 183.9 83.1"></polygon>
                        <path d="M139.3,165.4 L50,165.4 C48.2,165.4 46.6,164.4 45.7,162.9 L1.1,85.6 C0.2,84.1 0.2,82.1 1.1,80.6 L45.7,3.3 C46.6,1.8 48.2,0.8 50,0.8 L139.3,0.8 C141.1,0.8 142.7,1.8 143.6,3.3 L188.2,80.6 C189.1,82.1 189.1,84.1 188.2,85.6 L143.6,162.9 C142.7,164.4 141,165.4 139.3,165.4 Z M52.9,155.4 L136.4,155.4 L178.1,83.1 L136.4,10.8 L52.9,10.8 L11.2,83.1 L52.9,155.4 Z" id="Shape" fill="#383A48"></path>
                    </g>
                </g>
                <path d="M899.1,111.5 C887.7,111.5 886.5,100.6 886.5,96 C886.5,93.2 884.3,91 881.5,91 C878.7,91 876.5,93.2 876.5,96 C876.5,100.7 875.3,111.5 863.9,111.5 C861.1,111.5 858.9,113.7 858.9,116.5 C858.9,119.3 861.1,121.5 863.9,121.5 C875.3,121.5 876.5,132.4 876.5,137 C876.5,139.8 878.7,142 881.5,142 C884.3,142 886.5,139.8 886.5,137 C886.5,132.3 887.7,121.5 899.1,121.5 C901.9,121.5 904.1,119.3 904.1,116.5 C904.1,113.7 901.9,111.5 899.1,111.5 Z" id="Path" fill="#F3F6E6" fill-rule="nonzero"></path>
                <g transform="translate(50.000000, 154.000000)" fill="#383A48" fill-rule="nonzero" id="Path">
                    <path d="M1392.9,20.6 C1381.5,20.6 1380.3,9.7 1380.3,5.1 C1380.3,2.3 1378.1,0.1 1375.3,0.1 C1372.5,0.1 1370.3,2.3 1370.3,5.1 C1370.3,9.8 1369.1,20.6 1357.7,20.6 C1354.9,20.6 1352.7,22.8 1352.7,25.6 C1352.7,28.4 1354.9,30.6 1357.7,30.6 C1369.1,30.6 1370.3,41.5 1370.3,46.1 C1370.3,48.9 1372.5,51.1 1375.3,51.1 C1378.1,51.1 1380.3,48.9 1380.3,46.1 C1380.3,41.4 1381.5,30.6 1392.9,30.6 C1395.7,30.6 1397.9,28.4 1397.9,25.6 C1397.9,22.8 1395.7,20.6 1392.9,20.6 Z"></path>
                    <path d="M1446.5,74.2 C1435.1,74.2 1433.9,63.3 1433.9,58.7 C1433.9,55.9 1431.7,53.7 1428.9,53.7 C1426.1,53.7 1423.9,55.9 1423.9,58.7 C1423.9,63.4 1422.7,74.2 1411.3,74.2 C1408.5,74.2 1406.3,76.4 1406.3,79.2 C1406.3,82 1408.5,84.2 1411.3,84.2 C1422.7,84.2 1423.9,95.1 1423.9,99.7 C1423.9,102.5 1426.1,104.7 1428.9,104.7 C1431.7,104.7 1433.9,102.5 1433.9,99.7 C1433.9,95 1435.1,84.2 1446.5,84.2 C1449.3,84.2 1451.5,82 1451.5,79.2 C1451.5,76.4 1449.2,74.2 1446.5,74.2 Z"></path>
                    <path d="M1383,105.2 C1371.6,105.2 1370.4,94.3 1370.4,89.7 C1370.4,86.9 1368.2,84.7 1365.4,84.7 C1362.6,84.7 1360.4,86.9 1360.4,89.7 C1360.4,94.4 1359.2,105.2 1347.8,105.2 C1345,105.2 1342.8,107.4 1342.8,110.2 C1342.8,113 1345,115.2 1347.8,115.2 C1359.2,115.2 1360.4,126.1 1360.4,130.7 C1360.4,133.5 1362.6,135.7 1365.4,135.7 C1368.2,135.7 1370.4,133.5 1370.4,130.7 C1370.4,126 1371.6,115.2 1383,115.2 C1385.8,115.2 1388,113 1388,110.2 C1388,107.4 1385.7,105.2 1383,105.2 Z"></path>
                    <path d="M40.8,234.5 C29.4,234.5 28.2,223.6 28.2,219 C28.2,216.2 26,214 23.2,214 C20.4,214 18.2,216.2 18.2,219 C18.2,223.7 17,234.5 5.6,234.5 C2.8,234.5 0.6,236.7 0.6,239.5 C0.6,242.3 2.8,244.5 5.6,244.5 C17,244.5 18.2,255.4 18.2,260 C18.2,262.8 20.4,265 23.2,265 C26,265 28.2,262.8 28.2,260 C28.2,255.3 29.4,244.5 40.8,244.5 C43.6,244.5 45.8,242.3 45.8,239.5 C45.8,236.7 43.5,234.5 40.8,234.5 Z"></path>
                </g>
                <g transform="translate(10.000000, 5.000000)" fill-rule="nonzero">
                    <g transform="translate(68.000000, 61.000000)">
                        <circle id="Oval" fill="#F6E049" transform="translate(24.907630, 25.500610) rotate(-80.781636) translate(-24.907630, -25.500610) " cx="24.90763" cy="25.50061" r="19.7002999"></circle>
                        <path d="M24.9,50.2 C11.3,50.2 0.2,39.1 0.2,25.5 C0.2,11.9 11.3,0.8 24.9,0.8 C38.5,0.8 49.6,11.9 49.6,25.5 C49.6,39.1 38.5,50.2 24.9,50.2 Z M24.9,10.8 C16.8,10.8 10.2,17.4 10.2,25.5 C10.2,33.6 16.8,40.2 24.9,40.2 C33,40.2 39.6,33.6 39.6,25.5 C39.6,17.4 33,10.8 24.9,10.8 Z" id="Shape" fill="#383A48"></path>
                    </g>
                    <path d="M153.6,172.5 C145.9,172.5 137,170.8 127.2,167.5 C105.3,160 80.9,144.9 58.5,125 C36.1,105.1 18.4,82.5 8.5,61.5 C-2,39.2 -2.5,20.9 7.2,10.1 C16.9,-0.7 35.1,-2.4 58.4,5.6 C80.3,13.1 104.7,28.2 127.1,48.1 C149.5,68.1 167.2,90.6 177.1,111.6 C187.6,133.9 188.1,152.2 178.4,163 C172.9,169.3 164.4,172.5 153.6,172.5 Z M32.3,10.6 C24.5,10.6 18.4,12.7 14.7,16.8 C1.4,31.8 18.5,75.8 65.2,117.6 C99.2,147.9 132.6,162.6 153.5,162.6 C161.3,162.6 167.4,160.5 171.1,156.4 C177.9,148.8 176.8,134.1 168.2,115.9 C158.9,96.1 141.9,74.7 120.5,55.6 C86.5,25.2 53.1,10.6 32.3,10.6 Z" id="Shape" fill="#383A48"></path>
                    <path d="M32.1,172.5 C21.4,172.5 12.9,169.3 7.2,163 C-2.5,152.1 -2,133.9 8.5,111.6 C18.4,90.6 36.2,68.1 58.5,48.1 C80.8,28.1 105.3,13 127.2,5.6 C150.5,-2.3 168.7,-0.7 178.4,10.1 C188.1,21 187.6,39.2 177.1,61.5 C167.2,82.5 149.4,105 127.1,125 C104.7,145 80.3,160.1 58.4,167.5 C48.7,170.8 39.8,172.5 32.1,172.5 Z M153.5,10.6 C132.6,10.6 99.2,25.2 65.2,55.6 C18.4,97.3 1.3,141.4 14.7,156.4 C28.1,171.4 73.8,159.3 120.5,117.6 C141.9,98.5 158.8,77.1 168.2,57.3 C176.8,39.1 177.8,24.4 171.1,16.8 C167.4,12.7 161.3,10.6 153.5,10.6 Z" id="Shape" fill="#383A48"></path>
                </g>
                <g transform="translate(239.000000, 663.000000)" fill="#383A48" fill-rule="nonzero">
                    <path d="M125,141.9 C113.5,141.9 102.5,137.4 93.1,128.9 C83.6,137.4 72.7,141.9 61.2,141.9 C44.6,141.9 29.1,132.3 17.6,114.9 C6.5,98.1 0.4,75.9 0.4,52.4 C0.4,49.6 2.6,47.4 5.4,47.4 C8.2,47.4 10.4,49.6 10.4,52.4 C10.4,96.3 33.2,131.9 61.2,131.9 C70.3,131.9 78.8,128.2 86.2,121.6 C84.5,119.6 82.9,117.4 81.4,115.1 C70.3,98.5 64.2,76.3 64.2,52.8 C64.2,19.9 78.9,0.3 93,0.3 C107.2,0.3 121.9,19.9 121.9,52.8 C121.9,76.3 115.8,98.4 104.7,115.1 C103.2,117.4 101.6,119.5 99.9,121.6 C107.3,128.1 115.8,131.9 124.9,131.9 C127.7,131.9 129.9,134.1 129.9,136.9 C129.9,139.7 127.7,141.9 125,141.9 Z M93,10.3 C85.1,10.3 74.2,26.5 74.2,52.8 C74.2,77.6 81.6,99.7 93.1,114.2 C104.6,99.7 112,77.6 112,52.8 C111.9,26.5 100.9,10.3 93,10.3 Z" id="Shape"></path>
                    <path d="M252.7,141.9 C241.2,141.9 230.2,137.4 220.8,128.9 C211.3,137.4 200.4,141.9 188.9,141.9 C186.1,141.9 183.9,139.7 183.9,136.9 C183.9,134.1 186.1,131.9 188.9,131.9 C198,131.9 206.5,128.2 213.9,121.6 C212.2,119.6 210.6,117.4 209.1,115.1 C198,98.5 191.9,76.3 191.9,52.8 C191.9,19.9 206.6,0.3 220.8,0.3 C235,0.3 249.6,19.9 249.6,52.8 C249.6,76.3 243.5,98.4 232.4,115.1 C230.9,117.4 229.3,119.5 227.6,121.6 C235,128.1 243.5,131.9 252.6,131.9 C255.4,131.9 257.6,134.1 257.6,136.9 C257.6,139.7 255.4,141.9 252.7,141.9 Z M220.8,10.3 C212.9,10.3 201.9,26.5 201.9,52.8 C201.9,77.6 209.3,99.7 220.8,114.2 C232.3,99.7 239.7,77.6 239.7,52.8 C239.6,26.5 228.6,10.3 220.8,10.3 Z" id="Shape"></path>
                    <path d="M188.8,141.9 C177.3,141.9 166.3,137.4 156.9,128.9 C147.4,137.4 136.5,141.9 125,141.9 C122.2,141.9 120,139.7 120,136.9 C120,134.1 122.2,131.9 125,131.9 C134.1,131.9 142.6,128.2 150,121.6 C148.3,119.6 146.7,117.4 145.2,115.1 C134.1,98.5 128,76.3 128,52.8 C128,19.9 142.7,0.3 156.8,0.3 C171,0.3 185.7,19.9 185.7,52.8 C185.7,76.3 179.6,98.4 168.5,115.1 C167,117.4 165.4,119.5 163.7,121.6 C171.1,128.1 179.6,131.9 188.7,131.9 C191.5,131.9 193.7,134.1 193.7,136.9 C193.7,139.7 191.6,141.9 188.8,141.9 Z M156.9,10.3 C149,10.3 138.1,26.5 138.1,52.8 C138.1,77.6 145.5,99.7 157,114.2 C168.5,99.7 175.9,77.6 175.9,52.8 C175.7,26.5 164.7,10.3 156.9,10.3 Z" id="Shape"></path>
                    <path d="M316.6,141.9 C305.1,141.9 294.1,137.4 284.7,128.9 C275.2,137.4 264.3,141.9 252.8,141.9 C250,141.9 247.8,139.7 247.8,136.9 C247.8,134.1 250,131.9 252.8,131.9 C261.9,131.9 270.4,128.2 277.8,121.6 C276.1,119.6 274.5,117.4 273,115.1 C261.9,98.5 255.8,76.3 255.8,52.8 C255.8,19.9 270.5,0.3 284.6,0.3 C298.8,0.3 313.5,19.9 313.5,52.8 C313.5,76.3 307.4,98.4 296.3,115.1 C294.8,117.4 293.2,119.5 291.5,121.6 C298.9,128.1 307.4,131.9 316.5,131.9 C319.3,131.9 321.5,134.1 321.5,136.9 C321.5,139.7 319.4,141.9 316.6,141.9 Z M284.6,10.3 C276.7,10.3 265.8,26.5 265.8,52.8 C265.8,77.6 273.2,99.7 284.7,114.2 C296.2,99.7 303.6,77.6 303.6,52.8 C303.5,26.5 292.5,10.3 284.6,10.3 Z" id="Shape"></path>
                    <path d="M316.6,141.9 C313.8,141.9 311.6,139.7 311.6,136.9 C311.6,134.1 313.8,131.9 316.6,131.9 C344.6,131.9 367.4,96.5 367.4,52.9 C367.4,50.1 369.6,47.9 372.4,47.9 C375.2,47.9 377.4,50.1 377.4,52.9 C377.4,76.4 371.3,98.5 360.2,115.2 C348.7,132.4 333.2,141.9 316.6,141.9 Z" id="Path"></path>
                </g>
                <path d="M5.7,661.9 C2.9,661.9 0.7,664.1 0.7,666.9 L0.7,804.3 C0.7,807.1 2.9,809.3 5.7,809.3 L143.1,809.3 C145.9,809.3 148.100117,807.1 148.100117,804.3 C148.2,725.8 84.3,661.9 5.7,661.9 Z" id="Path" fill="#F6E049" fill-rule="nonzero"></path>
            </g>
        </g>
    </g>
</svg>