<svg xmlns="http://www.w3.org/2000/svg" xmlns:xlink="http://www.w3.org/1999/xlink" width="1486" height="812" version="1.1" viewBox="0 0 1486 812"><title>seasons</title><desc>Created with Sketch.</desc><g id="Page-1" fill="none" fill-rule="evenodd" stroke="none" stroke-width="1"><g id="seasons" transform="translate(-217.000000, -134.000000)"><g id="Group" transform="translate(217.000000, 134.000000)"><path id="Path" fill="#F3F6E6" fill-rule="nonzero" d="M815.4,4.7 C814.9,2.4 812.9,0.7 810.5,0.7 L5,0.7 C2.2,0.7 0,2.9 0,5.7 L0,806.3 C0,809.1 2.2,811.3 5,811.3 C7.8,811.3 10,809.1 10,806.3 C10,674.1 27.3,581.4 62.8,522.8 C92.4,474.1 129.8,455.2 172.2,437.2 C180.4,433.7 194.7,430.2 212.7,425.8 C232,421.1 255.9,415.2 282.5,406.9 L283.3,406.6 C284.8,406.1 286.4,405.6 288,405.1 C340.6,388.1 385.8,366.8 426,340 C479.2,304.5 523.3,259.2 557,205.3 C558.3,203.2 559.6,201.2 560.9,199.2 C562.4,197 564,194.7 565.6,192.3 C605.7,136 670.6,89.5 718,60.5 C769.5,28.9 812.1,10.5 812.5,10.3 C814.7,9.4 815.9,7 815.4,4.7 Z"/><g id="Oval" fill="#383A48" fill-rule="nonzero" transform="translate(246.000000, 133.000000)"><circle cx="153.7" cy="5.1" r="5"/><circle cx="153.7" cy="177.8" r="5"/><circle cx="153.7" cy="202.5" r="5"/><circle cx="129" cy="5.1" r="5"/><circle cx="129" cy="29.8" r="5"/><circle cx="129" cy="54.5" r="5"/><circle cx="129" cy="79.1" r="5"/><circle cx="129" cy="103.8" r="5"/><circle cx="129" cy="128.5" r="5"/><circle cx="129" cy="153.1" r="5"/><circle cx="129" cy="177.8" r="5"/><circle cx="129" cy="202.5" r="5"/><circle cx="104.4" cy="29.8" r="5"/><circle cx="104.4" cy="54.5" r="5"/><circle cx="104.4" cy="79.1" r="5"/><circle cx="104.4" cy="103.8" r="5"/><circle cx="104.4" cy="128.5" r="5"/><circle cx="104.4" cy="153.1" r="5"/><circle cx="104.4" cy="177.8" r="5"/><circle cx="104.4" cy="202.5" r="5"/><circle cx="104.4" cy="227.1" r="5"/><circle cx="79.7" cy="29.8" r="5"/><circle cx="79.7" cy="54.5" r="5"/><circle cx="79.7" cy="79.1" r="5"/><circle cx="79.7" cy="103.8" r="5"/><circle cx="79.7" cy="128.5" r="5"/><circle cx="79.7" cy="153.1" r="5"/><circle cx="79.7" cy="177.8" r="5"/><circle cx="79.7" cy="202.5" r="5"/><circle cx="79.7" cy="227.1" r="5"/><circle cx="55" cy="54.5" r="5"/><circle cx="55" cy="79.1" r="5"/><circle cx="55" cy="103.8" r="5"/><circle cx="55" cy="128.5" r="5"/><circle cx="55" cy="153.1" r="5"/><circle cx="55" cy="177.8" r="5"/><circle cx="55" cy="202.5" r="5"/><circle cx="55" cy="227.1" r="5"/><circle cx="55" cy="251.8" r="5"/><circle cx="30.4" cy="79.1" r="5"/><circle cx="30.4" cy="103.8" r="5"/><circle cx="30.4" cy="128.5" r="5"/><circle cx="30.4" cy="153.1" r="5"/><circle cx="30.4" cy="177.8" r="5"/><circle cx="30.4" cy="202.5" r="5"/><circle cx="30.4" cy="227.1" r="5"/><circle cx="30.4" cy="251.8" r="5"/><circle cx="5.7" cy="153.1" r="5"/><circle cx="5.7" cy="177.8" r="5"/><circle cx="5.7" cy="202.5" r="5"/></g><path id="Path" fill="#F3F6E6" fill-rule="nonzero" d="M1481,10.1 C1478.2,10.1 1476,12.3 1476,15.1 C1476,178.3 1396.3,206.6 1311.9,236.6 C1251.5,258 1189,280.2 1154.3,352.7 C1110.7,443.5 1060.6,507.2 1000.9,547.4 C947.9,583.1 892.8,597.1 839.5,610.7 C792.5,622.7 743.9,635.1 698,662.3 C646.6,692.7 604,739 567.6,803.8 C566.7,805.3 566.7,807.2 567.6,808.8 C568.5,810.3 570.1,811.3 571.9,811.3 L1481,811.3 C1483.8,811.3 1486,809.1 1486,806.3 L1486,15.1 C1486,12.4 1483.7,10.1 1481,10.1 Z"/><g fill-rule="nonzero" transform="translate(511.000000, 102.000000)"><path id="Path" fill="#383A48" d="M62.2,542.6 C60.4,542.6 58.6,542.5 56.7,542.3 C41.6,540.9 28,533.6 18.3,522 C8.6,510.3 4.1,495.6 5.6,480.5 C7,465.4 14.2,451.8 25.9,442.1 L444,98.7 C446.1,96.9 449.3,97.3 451,99.4 C452.8,101.5 452.4,104.7 450.3,106.4 L32.3,449.9 C22.7,457.8 16.7,469.1 15.6,481.5 C14.4,493.9 18.2,506.1 26.1,515.7 C34.1,525.3 45.3,531.3 57.7,532.4 C70.1,533.6 82.3,529.8 91.9,521.9 L133.8,487.2 C135.9,485.4 139.1,485.7 140.8,487.9 C142.6,490 142.3,493.2 140.1,494.9 L98.2,529.6 C88,538.1 75.4,542.6 62.2,542.6 Z"/><g><path id="Path" fill="#F6E049" d="M497.2,355.1 C491,420.4 464.8,483.9 419.5,535.4 C415.8,539.6 409,535.7 410.8,530.3 C419.2,504.7 415.4,476.5 397.9,455.3 C379.5,433.1 350.7,424.2 322.7,429.1 C307.8,431.7 301.8,425.9 307.2,412.3 C317.9,385.4 314.8,354.8 296.1,332.2 C277.7,310 248.8,301 220.8,306 C206,308.7 201.7,300.4 206.9,285.3 C213.4,266.4 213.2,246 205.8,228 C203,221.3 199.2,214.9 194.4,209.1 C175.3,186 144.9,177.3 115.9,183.6 C102.2,186.6 97.7,180.6 103.2,167.5 C114.6,140.3 111.7,109 92.7,86 C74.5,64 46.2,55.1 18.4,59.7 C3.2,62.2 1.4,59.5 14.7,51.4 C57.3,25.6 104.3,10.9 151.8,6.8 C252.7,-1.9 356,37.5 425.5,121.5 C481.6,189.5 504.9,273.7 497.2,355.1 Z"/><path id="Shape" fill="#383A48" d="M415.6,542.2 C413.9,542.2 412.1,541.8 410.5,540.8 C406.2,538.4 404.4,533.4 405.9,528.8 C414.1,503.9 409.6,477.6 393.9,458.6 C377.2,438.4 350.9,429.3 323.4,434.2 C313.7,435.9 306.8,434.4 303,429.7 C299.4,425.2 299.2,418.8 302.5,410.6 C312.9,384.6 309,355.8 292.2,335.6 C275.5,315.4 249.1,306.3 221.6,311.2 C213.2,312.7 206.9,311.2 203.1,306.8 C198.9,301.9 198.5,294.2 202,284 C208.2,265.9 207.9,246.8 201,230.2 C198.3,223.8 194.8,217.9 190.4,212.6 C173.2,191.8 145,182.7 116.8,188.8 C108.1,190.7 102,189.5 98.4,185.2 C94.8,180.9 94.8,174.4 98.4,165.9 C109.5,139.5 105.8,110.2 88.7,89.5 C72.3,69.6 46.2,60.4 19.1,64.9 C11.1,66.2 3.1,67.1 1,61.4 C-1.1,55.8 5.3,51.4 12,47.4 C54.1,22 102.2,6.3 151.3,2.1 C257.5,-7 361.4,36.5 429.2,118.6 C484.4,185.3 510.2,269.6 502.1,355.8 L502.1,355.8 C495.6,424.3 468.3,487.6 423.1,539 C421.2,541 418.4,542.2 415.6,542.2 Z M337.9,422.8 C362.9,422.8 386,433.2 401.6,452.2 C419.5,473.9 424.7,503.7 415.4,531.9 C415.4,532 415.4,532.1 415.4,532.1 C415.4,532.1 415.5,532.2 415.6,532.2 C415.6,532.2 415.6,532.2 415.7,532.1 C459.5,482.3 485.9,420.9 492.2,354.6 L492.2,354.6 C500.1,271.1 475.1,189.4 421.6,124.7 C355.9,45.2 255.2,3 152.2,11.8 C105.4,15.8 59.5,30.6 19.2,54.5 C49.3,50.1 78.1,60.6 96.5,82.9 C116,106.5 120.3,139.6 107.7,169.5 C105.3,175.2 105.7,177.9 106.2,178.6 C106.7,179.2 109.1,180 114.7,178.8 C146.6,171.9 178.5,182.3 198.2,206 C203.2,212.1 207.3,218.8 210.3,226.1 C218.1,245 218.6,266.6 211.5,287 C209.3,293.2 209,298.1 210.7,300.1 C212,301.6 215.3,302 219.8,301.2 C250.9,295.7 280.8,306.1 299.9,329.1 C319,352.2 323.5,384.8 311.8,414.2 C309.8,419.3 309.9,422.2 310.8,423.3 C311.8,424.5 315.2,425.4 321.7,424.2 C327.2,423.3 332.6,422.8 337.9,422.8 Z"/></g><path id="Path" fill="#383A48" d="M209.1,304.6 C207.7,304.6 206.2,304 205.2,302.8 C203.4,300.7 203.8,297.5 205.9,295.8 L415.3,123.5 L407.4,120.9 C358.9,104.9 306.7,101.5 256.6,110.9 C206.4,120.4 159.1,142.5 119.7,175.1 L106,186.3 C103.9,188.1 100.7,187.8 99,185.6 C97.2,183.5 97.5,180.3 99.7,178.6 L113.3,167.4 C154,133.8 202.8,110.9 254.7,101.1 C306.5,91.3 360.4,94.9 410.5,111.4 L427.1,116.9 C428.8,117.5 430.1,118.9 430.4,120.7 C430.7,122.5 430.1,124.3 428.7,125.5 L212.3,303.5 C211.3,304.3 210.2,304.6 209.1,304.6 Z"/><path id="Path" fill="#383A48" d="M306.2,430.4 C304.7,430.4 303.2,429.7 302.2,428.4 C300.5,426.2 300.9,423.1 303.1,421.4 L311.3,415.1 L315.3,411.8 C354.7,379.3 385.4,337 404.1,289.5 C422.8,242 429.2,190.1 422.7,139.5 L420.5,122.2 C420.1,119.5 422.1,117 424.8,116.6 C427.5,116.3 430,118.2 430.4,120.9 L432.6,138.2 C439.4,190.5 432.8,244.1 413.4,293.2 C394.1,342.3 362.3,386 321.7,419.6 L317.7,422.9 C317.7,422.9 317.6,423 317.5,423 L309.2,429.4 C308.3,430.1 307.3,430.4 306.2,430.4 Z"/></g><path id="Path" fill="#383A48" fill-rule="nonzero" d="M740.4,235.5 C740.2,232.9 739.9,230.5 739.7,228.4 L739.6,227.9 L739.6,227.8 C733.3,178.5 706.4,133.7 665.6,104.9 C664.6,104.2 663.5,103.9 662.3,104 C613.2,108.2 565.1,123.9 523,149.3 C516.3,153.3 509.9,157.8 512,163.3 C514.1,168.9 521.7,168.2 530.1,166.8 C557.2,162.3 583.2,171.5 599.7,191.4 C616.8,212.1 620.5,241.3 609.4,267.8 C605.8,276.3 605.8,282.8 609.4,287.1 C612.9,291.3 619.1,292.5 627.8,290.7 C656,284.6 684.2,293.7 701.4,314.5 C705.8,319.8 709.4,325.7 712,332.1 C712.7,333.9 714.4,335.1 716.3,335.2 C716.4,335.2 716.5,335.2 716.6,335.2 C718.4,335.2 720.1,334.2 721,332.6 C721.1,332.4 721.2,332.2 721.3,332 L721.5,331.6 C721.5,331.5 721.6,331.5 721.6,331.4 L721.8,330.9 C721.8,330.9 721.8,330.8 721.9,330.8 L722.6,329.4 C722.7,329.2 722.8,329.1 722.8,328.9 L723.6,327.3 C723.7,327 723.9,326.7 724,326.4 L724.1,326.1 C724.2,325.9 724.3,325.7 724.4,325.5 L724.8,324.8 C725.1,324.3 725.3,323.7 725.5,323.2 C725.7,322.7 725.9,322.2 726.1,321.7 C726.1,321.7 726.1,321.6 726.2,321.6 L726.4,321.1 C726.5,320.9 726.6,320.8 726.6,320.6 C726.8,320.2 726.9,319.9 727.1,319.5 L728,317.3 C728.1,317.1 728.2,316.9 728.2,316.7 C728.2,316.6 728.3,316.5 728.3,316.5 L728.3,316.4 C728.4,316 728.6,315.7 728.7,315.3 L728.9,314.7 C729.1,314.1 729.3,313.6 729.5,313 C729.8,312.1 730.2,311.2 730.5,310.3 L730.5,310.2 C730.7,309.7 730.9,309.2 731,308.7 C731.3,307.7 731.7,306.8 731.9,305.9 L732.4,304.4 C732.4,304.3 732.5,304.2 732.5,304.2 C732.6,303.9 732.7,303.7 732.7,303.4 L732.7,303.3 L733.3,301.2 C733.4,300.7 733.6,300.3 733.7,299.8 L734.5,296.8 C734.6,296.3 734.8,295.8 734.9,295.3 L734.9,295.2 L734.9,295.1 C734.9,295 735,294.8 735,294.7 L735,294.6 C735.1,294.1 735.3,293.6 735.4,293 C735.6,292.3 735.8,291.5 735.9,290.8 C736,290.5 736,290.2 736.1,289.9 C736.2,289.4 736.3,288.8 736.4,288.3 L736.6,287.6 C736.7,287.1 736.8,286.6 736.9,286.1 L737.1,285.2 C737.2,284.7 737.3,284.3 737.4,283.8 L738.2,279.1 C738.3,278.4 738.4,277.6 738.5,276.8 C738.6,276.4 738.6,276 738.7,275.6 C738.7,275.6 738.7,275.5 738.7,275.4 L738.8,274.3 C738.9,273.5 739,272.7 739.1,271.9 L739.2,270.6 C739.2,270.4 739.2,270.2 739.3,270 C739.3,269.9 739.3,269.8 739.3,269.7 C739.3,269.6 739.3,269.6 739.3,269.5 C739.4,268.7 739.5,267.9 739.5,267 C739.5,266.8 739.5,266.6 739.6,266.4 C739.6,266.1 739.7,265.8 739.7,265.6 C739.7,265.4 739.7,265.3 739.7,265.1 L739.7,264.9 C739.8,264 739.8,263.1 739.9,262.2 C739.9,262 739.9,261.8 739.9,261.5 C739.9,261.2 739.9,260.9 740,260.6 C740,260.5 740,260.4 740,260.4 L740,260.1 C740.1,259.1 740.1,258.1 740.1,257.1 L740.1,256.6 C740.1,256.2 740.1,255.9 740.1,255.5 L740.1,255.4 L740.1,255.2 C740.1,253.7 740.2,252.1 740.2,250.6 L740.2,250.5 C741.1,245.6 740.9,240.6 740.4,235.5 Z"/><path id="Path" fill="#4053FA" fill-rule="nonzero" d="M1057.5,80.5 C1046.3,60.6 1034.9,43.5 1034.8,43.4 C1033.9,42 1032.3,41.2 1030.6,41.2 C1028.9,41.2 1027.4,42 1026.4,43.4 C1026.3,43.6 1014.9,60.6 1003.7,80.5 C988.3,107.7 980.6,127.2 980.6,138.4 C980.6,166 1003,188.4 1030.6,188.4 C1058.2,188.4 1080.60095,166 1080.60095,138.4 C1080.7,127.2 1072.9,107.7 1057.5,80.5 Z"/><path id="Path" fill="#4053FA" fill-rule="nonzero" d="M1111.8,186.8 C1110.9,185.4 1109.3,184.6 1107.6,184.6 C1105.9,184.6 1104.4,185.4 1103.4,186.8 C1100.5,191.1 1075.3,229.4 1075.3,245.6 C1075.3,263.4 1089.8,277.9 1107.6,277.9 C1125.4,277.9 1139.9,263.4 1139.9,245.6 C1139.9,229.4 1114.7,191.1 1111.8,186.8 Z"/><g fill-rule="nonzero"><g><g transform="translate(314.000000, 72.000000)"><path id="Path" fill="#F3F6E6" d="M352.3,178.4 C352.3,274.1 274.7,351.7 179,351.7 C83.3,351.7 5.7,274.1 5.7,178.4 C5.7,145 15.2,113.8 31.5,87.3 C42,70.3 55.4,55.2 71,42.8 C100.6,19.2 138.2,5 179,5 C274.7,5.1 352.3,82.7 352.3,178.4 Z"/><path id="Shape" fill="#383A48" d="M178.9,356.7 C80.6,356.7 0.6,276.7 0.6,178.4 C0.6,145.2 9.8,112.8 27.2,84.7 C38,67.2 51.7,51.8 67.8,39 C99.7,13.6 138.1,0.1 178.9,0.1 C277.2,0.1 357.200094,80.1 357.200094,178.4 C357.3,276.7 277.3,356.7 178.9,356.7 Z M178.9,10.1 C140.3,10.1 104.1,22.8 74,46.8 C58.8,58.9 45.9,73.5 35.7,90 C19.3,116.5 10.6,147.1 10.6,178.4 C10.6,271.2 86.1,346.7 178.9,346.7 C271.7,346.7 347.2,271.2 347.2,178.4 C347.2,85.6 271.8,10.1 178.9,10.1 Z"/></g><g transform="translate(314.000000, 72.000000) translate(47.000000, 0.000000)"><path id="Path" fill="#F3F6E6" d="M131.9,5.1 C91,5.1 53.5,19.2 23.9,42.9 C17.6,47.9 11.7,53.4 6.1,59.2 C14.1,62.4 20.8,69.4 23.2,77.8 C26.9,90.7 29.3,104 32.3,117.1 C40.9,118.3 49.2,121.6 56.7,126.2 C83.4,142.5 103.1,169.4 121.8,193.8 C133.4,208.9 144.6,224.4 155.8,239.9 C188,251.7 222.2,262.8 240.6,293.8 C243.2,298.2 245.4,303.2 246.7,308.3 C282.6,276.5 305.200097,230.2 305.200097,178.5 C305.3,82.7 227.7,5.1 131.9,5.1 Z"/><path id="Shape" fill="#383A48" d="M246.8,313.3 C246.3,313.3 245.8,313.2 245.3,313.1 C243.6,312.6 242.4,311.2 241.9,309.6 C240.8,305.2 238.8,300.6 236.3,296.4 C219.8,268.6 189,257.4 159.3,246.6 C157.5,246 155.8,245.3 154,244.7 C153.1,244.4 152.3,243.7 151.7,242.9 L146.1,235.2 C136.9,222.6 127.4,209.5 117.7,196.9 L114.4,192.6 C96.6,169.4 78.3,145.4 53.9,130.5 C46.7,126.1 38.9,123.2 31.4,122.1 C29.3,121.8 27.7,120.3 27.2,118.3 C26.2,114.1 25.3,109.9 24.5,105.7 C22.6,96.9 20.7,87.9 18.2,79.2 C16.3,72.5 10.9,66.7 4.1,63.9 C2.6,63.3 1.4,61.9 1.1,60.3 C0.7,58.7 1.2,57 2.4,55.8 C8.1,49.8 14.3,44.1 20.7,39 C52.6,13.6 91,0.1 131.8,0.1 C230.1,0.1 310.1,80.1 310.1,178.4 C310.1,229.4 288.2,278.1 249.9,312 C249.1,312.8 248,313.3 246.8,313.3 Z M158.9,235.7 C160.2,236.2 161.4,236.6 162.7,237.1 C194.1,248.5 226.6,260.4 244.9,291.2 C246.5,293.9 247.9,296.6 249,299.4 C281.7,267.8 300.2,224.1 300.2,178.5 C300.2,85.7 224.7,10.2 131.9,10.2 C93.3,10.2 57.1,22.9 27,46.9 C22.6,50.4 18.4,54.1 14.3,58.1 C20.9,62.5 25.9,69.2 27.9,76.6 C30.4,85.6 32.4,94.8 34.3,103.7 C34.9,106.7 35.6,109.8 36.3,112.9 C44,114.4 51.9,117.6 59.2,122.1 C85.1,138 104.1,162.7 122.4,186.7 L125.7,191 C135.4,203.7 145,216.8 154.2,229.5 L158.9,235.7 Z"/></g><g transform="translate(314.000000, 72.000000) translate(0.000000, 26.000000)"><path id="Path" fill="#AAC6FC" d="M178.9,325.7 C83.2,325.7 5.6,248.1 5.6,152.4 C5.6,90.4 38.1,36.1 87,5.4 C61.6,35.5 46.3,74.4 46.3,116.9 C46.3,212.6 123.9,290.2 219.6,290.2 C253.3,290.2 284.8,280.6 311.5,263.9 C279.8,301.7 232.2,325.7 178.9,325.7 Z"/><path id="Shape" fill="#383A48" d="M178.9,330.7 C80.6,330.7 0.6,250.7 0.6,152.4 C0.6,121.6 8.6,91.3 23.6,64.7 C38.2,38.9 59.2,16.9 84.4,1.2 C86.5,-0.1 89.2,0.3 90.8,2.2 C92.4,4.1 92.4,6.8 90.8,8.7 C65.3,38.9 51.3,77.4 51.3,117 C51.3,209.8 126.8,285.3 219.6,285.3 C251.3,285.3 282.1,276.5 308.8,259.7 C310.9,258.4 313.6,258.8 315.2,260.7 C316.8,262.6 316.8,265.3 315.3,267.2 C281.4,307.6 231.7,330.7 178.9,330.7 Z M64.8,28.6 C30.4,60.2 10.6,104.6 10.6,152.4 C10.6,245.2 86.1,320.7 178.9,320.7 C218.1,320.7 255.6,307.1 285.4,282.7 C264.6,290.9 242.3,295.2 219.7,295.2 C121.4,295.2 41.4,215.2 41.4,116.9 C41.4,85.8 49.6,55.4 64.8,28.6 Z"/></g><g transform="translate(314.000000, 72.000000) translate(26.000000, 0.000000)"><path id="Path" fill="#7FD6C2" d="M326.3,178.4 C326.3,82.7 248.7,5.1 153,5.1 C91,5.1 36.7,37.6 6,86.5 C36.1,61.1 75,45.8 117.5,45.8 C213.2,45.8 290.8,123.4 290.8,219.1 C290.8,252.8 281.2,284.3 264.5,311 C302.3,279.3 326.3,231.7 326.3,178.4 Z"/><path id="Shape" fill="#383A48" d="M264.5,316.1 C263.3,316.1 262.2,315.7 261.2,314.9 C259.3,313.3 258.9,310.6 260.2,308.5 C276.9,281.8 285.8,250.9 285.8,219.3 C285.8,126.5 210.3,51 117.5,51 C77.9,51 39.4,65 9.2,90.5 C7.3,92.1 4.6,92.1 2.7,90.5 C0.8,88.9 0.4,86.2 1.7,84.1 C17.5,59 39.4,37.9 65.2,23.3 C91.8,8.2 122.1,0.3 152.9,0.3 C251.2,0.3 331.2,80.3 331.2,178.6 C331.2,231.3 308,281.1 267.6,315.1 C266.8,315.7 265.6,316.1 264.5,316.1 Z M117.5,40.9 C215.8,40.9 295.8,120.9 295.8,219.2 C295.8,241.9 291.5,264.1 283.3,284.9 C307.7,255.1 321.3,217.6 321.3,178.4 C321.3,85.6 245.8,10.1 153,10.1 C105.2,10.1 60.8,29.9 29.2,64.3 C55.9,49.1 86.4,40.9 117.5,40.9 Z"/></g></g><g transform="translate(314.000000, 72.000000) translate(58.000000, 63.000000)"><path id="Path" fill="#F6E049" d="M5.3,5.2 C5.3,5.2 10.1,161.2 240.1,234.6 C240.1,234.6 219.3,67.5 5.3,5.2 Z"/><path id="Shape" fill="#383A48" d="M240.1,239.6 C239.6,239.6 239.1,239.5 238.6,239.4 C185.6,222.5 140.1,199.8 103.4,171.8 C73.9,149.4 50,123.5 32.3,95 C2,46.2 0.5,7 0.4,5.3 C0.4,3.7 1.1,2.2 2.3,1.2 C3.6,0.2 5.2,-0.1 6.8,0.4 C56.2,14.8 99.5,35.9 135.4,63.3 C164.2,85.3 188.4,111.2 207.2,140.5 C224,166.6 233.4,190.5 238.3,206 C243.7,222.9 245,233.5 245.1,234 C245.3,235.7 244.6,237.4 243.3,238.5 C242.4,239.2 241.3,239.6 240.1,239.6 Z M11.1,12.1 C13,25.3 19.4,55.5 41.1,90.3 C58.2,117.7 81.3,142.5 109.8,164.1 C143.7,189.8 185.3,211 233.6,227.2 C230.5,212.9 221.5,181.1 198.4,145.5 C180.1,117.3 156.8,92.3 128.9,71.1 C95.8,45.9 56.2,26.1 11.1,12.1 Z"/></g><g transform="translate(314.000000, 72.000000) translate(26.000000, 37.000000)"><path id="Path" fill="#E0719E" d="M45.7,13.5 C45.7,33.9 29.1,50.5 8.7,50.5 C7.6,50.5 6.5,50.5 5.5,50.4 C16,33.4 29.4,18.3 45,5.9 C45.4,8.3 45.7,10.9 45.7,13.5 Z"/><path id="Shape" fill="#383A48" d="M8.7,55.5 C7.5,55.5 6.2,55.4 5,55.3 C3.3,55.1 1.7,54.1 1,52.6 C0.2,51 0.3,49.2 1.2,47.7 C12,30.2 25.7,14.8 41.8,2 C43.2,0.9 45,0.6 46.6,1.2 C48.2,1.8 49.4,3.2 49.8,4.9 C50.4,7.7 50.7,10.6 50.7,13.5 C50.7,36.6 31.9,55.5 8.7,55.5 Z M40.6,16.1 C31,24.7 22.5,34.3 15.1,44.9 C28.8,42.1 39.4,30.4 40.6,16.1 Z"/></g><g transform="translate(314.000000, 72.000000) translate(274.000000, 270.000000)"><path id="Path" fill="#E0719E" d="M39.5,5.8 C19.1,7.2 3.7,24.9 5.1,45.3 C5.2,46.4 5.3,47.5 5.5,48.5 C21.7,36.8 35.8,22.5 47.1,6.1 C44.6,5.8 42.1,5.7 39.5,5.8 Z"/><path id="Shape" fill="#383A48" d="M5.5,53.5 C4.8,53.5 4.2,53.4 3.6,53.1 C2,52.4 0.9,51 0.6,49.3 C0.4,48.1 0.3,46.9 0.2,45.7 C-1.4,22.6 16.1,2.5 39.2,0.9 C42.1,0.7 45,0.8 47.9,1.2 C49.6,1.4 51.1,2.6 51.8,4.1 C52.5,5.7 52.3,7.5 51.3,9 C39.6,26 25.2,40.6 8.5,52.6 C7.5,53.2 6.5,53.5 5.5,53.5 Z M37.2,11.1 C23,13.2 12.1,24.6 10.3,38.6 C20.3,30.5 29.3,21.3 37.2,11.1 Z"/></g></g><g fill-rule="nonzero" transform="translate(226.000000, 418.000000)"><g transform="translate(19.000000, 0.000000)"><g><path id="Path" fill="#F3F6E6" d="M246.2,263.5 L136.7,304.5 L79.3,326 C73,328.4 66.5,329.5 60.2,329.5 C38.1,329.5 17.3,316 9.1,294.1 C-1.5,265.9 12.8,234.5 41,223.9 L71.2,212.6 C86.2,207 93.8,190.3 88.2,175.3 L47.3,66 L132.4,34.1 L210.1,5 L234,68.8 L261.2,141.4 L279.5,190.2 C290.6,219.6 275.6,252.5 246.2,263.5 Z"/><path id="Shape" fill="#383A48" d="M60.2,334.5 C35.5,334.5 13.1,319 4.4,295.8 C-1.2,280.9 -0.6,264.7 6,250.3 C12.6,235.8 24.4,224.8 39.3,219.2 L69.5,207.9 C75.5,205.7 80.3,201.2 82.9,195.4 C85.6,189.6 85.8,183.1 83.5,177.1 L42.6,67.8 C42.1,66.6 42.2,65.2 42.7,64 C43.2,62.8 44.3,61.9 45.5,61.4 L208.3,0.4 C209.5,-0.1 210.9,1.09967591e-13 212.1,0.5 C213.3,1 214.2,2.1 214.7,3.3 L284.1,188.4 C296.1,220.4 279.8,256.2 247.8,268.2 L247.8,268.2 L81,330.7 C74.4,333.2 67.3,334.5 60.2,334.5 Z M53.8,69 L93,173.5 C96.2,182 95.9,191.2 92.1,199.5 C88.3,207.8 81.6,214.1 73.1,217.2 L42.9,228.5 C30.5,233.1 20.7,242.3 15.2,254.4 C9.7,266.4 9.3,279.9 13.9,292.3 C21.1,311.5 39.7,324.5 60.3,324.5 C66.2,324.5 72.1,323.4 77.7,321.3 L244.5,258.8 C271.3,248.7 285,218.7 274.9,191.9 L207.3,11.4 L53.8,69 Z"/></g><path id="Path" fill="#383A48" d="M238.8,67.1 L214.9,3.3 C214.4,2.1 213.5,1.1 212.3,0.5 C211.1,1.13686838e-13 209.7,-0.1 208.5,0.4 L130.8,29.5 C129.1,30.1 127.9,31.7 127.6,33.5 C127.3,35.3 128.1,37.1 129.5,38.2 C159.8,61 196,73.3 234,73.8 C234,73.8 234,73.8 234.1,73.8 C235.7,73.8 237.3,73 238.2,71.7 C239.1,70.4 239.3,68.6 238.8,67.1 Z"/><circle id="Oval" cx="87.6" cy="90.7" r="9.5" fill="#383A48"/><circle id="Oval" cx="98.8" cy="120.5" r="9.5" fill="#383A48"/><circle id="Oval" cx="110" cy="150.4" r="9.5" fill="#383A48"/></g><path id="Path" fill="#383A48" d="M44.7,393.3 C35.8,393.3 27,391 19,386.6 C12,382.7 6.1,377.3 1.6,370.7 C0,368.4 0.6,365.3 2.9,363.7 C5.2,362.1 8.3,362.7 9.9,365 C13.6,370.3 18.3,374.6 24,377.8 C34.9,383.9 47.9,384.9 59.7,380.5 L344.1,272.4 C346.7,271.4 349.6,272.7 350.6,275.3 C351.6,277.9 350.3,280.8 347.7,281.8 L63.2,389.9 C57.2,392.2 51,393.3 44.7,393.3 Z"/><rect id="Rectangle" width="10" height="42.499" x="262.905" y="263.89" fill="#383A48" transform="translate(267.904595, 285.139450) rotate(-20.542633) translate(-267.904595, -285.139450)"/><rect id="Rectangle" width="10" height="42.499" x="128.799" y="314.199" fill="#383A48" transform="translate(133.798625, 335.448360) rotate(-20.542633) translate(-133.798625, -335.448360)"/></g><g id="Path" fill-rule="nonzero"><path fill="#383A48" d="M505.7,0.7 L73,0.7 C72.8,0.7 72.6,0.7 72.4,0.8 L5.6,0.7 L5.6,0.7 C4,0.7 2.6,1.4 1.6,2.7 C0.7,3.9 0.3,5.6 0.8,7.1 L34.9,127.8 C42.6,155.2 67.9,174.4 96.4,174.4 L128,174.4 C157,174.4 182.4,154.8 189.8,126.9 L220.6,10.9 L244.5,10.9 L275.3,126.9 C282.7,154.9 308.1,174.4 337.1,174.4 L368.8,174.4 C397.3,174.4 422.6,155.3 430.3,127.8 L463.3,10.8 L505.6,10.8 C558.5,10.8 601.5,53.8 601.5,106.7 L601.5,169.4 C601.5,172.2 603.7,174.4 606.5,174.4 C609.3,174.4 611.500158,172.2 611.500158,169.4 L611.500158,106.7 C611.6,48.2 564.1,0.7 505.7,0.7 Z" transform="translate(526.000000, 637.000000)"/><path fill="#F3F6E6" d="M134.4,166.8 C132.3,166.8 130.3,165.4 129.6,163.3 L84,13.6 C83.2,11 84.7,8.2 87.3,7.4 C89.9,6.6 92.7,8.1 93.5,10.7 L139.1,160.4 C139.9,163 138.4,165.8 135.8,166.6 C135.4,166.8 134.9,166.8 134.4,166.8 Z" transform="translate(526.000000, 637.000000)"/><path fill="#F3F6E6" d="M105.7,166.8 C103.6,166.8 101.6,165.4 100.9,163.3 L55.3,13.6 C54.5,11 56,8.2 58.6,7.4 C61.2,6.6 64,8.1 64.8,10.7 L110.4,160.4 C111.2,163 109.7,165.8 107.1,166.6 C106.6,166.8 106.2,166.8 105.7,166.8 Z" transform="translate(526.000000, 637.000000)"/><path fill="#F3F6E6" d="M380.9,166.8 C378.8,166.8 376.8,165.4 376.1,163.3 L330.5,13.6 C329.7,11 331.2,8.2 333.8,7.4 C336.4,6.6 339.2,8.1 340,10.7 L385.6,160.4 C386.4,163 384.9,165.8 382.3,166.6 C381.9,166.8 381.4,166.8 380.9,166.8 Z" transform="translate(526.000000, 637.000000)"/><path fill="#F3F6E6" d="M352.1,166.8 C350,166.8 348,165.4 347.3,163.3 L301.7,13.6 C300.9,11 302.4,8.2 305,7.4 C307.6,6.6 310.4,8.1 311.2,10.7 L356.8,160.4 C357.6,163 356.1,165.8 353.5,166.6 C353.1,166.8 352.6,166.8 352.1,166.8 Z" transform="translate(526.000000, 637.000000)"/></g><path id="Path" fill="#383A48" fill-rule="nonzero" d="M1132.6,811.3 L266.8,811.3 C264,811.3 261.8,809.1 261.8,806.3 C261.8,803.5 264,801.3 266.8,801.3 L1132.6,801.3 C1135.4,801.3 1137.6,803.5 1137.6,806.3 C1137.6,809.1 1135.4,811.3 1132.6,811.3 Z"/><g id="Path" fill="#F3F6E6" fill-rule="nonzero"><path d="M68.5,136.9 C65.7,136.9 63.5,134.7 63.5,131.9 L63.5,5.9 C63.5,3.1 65.7,0.9 68.5,0.9 C71.3,0.9 73.5,3.1 73.5,5.9 L73.5,131.9 C73.5,134.7 71.3,136.9 68.5,136.9 Z" transform="translate(113.000000, 490.000000)"/><path d="M131.5,73.9 L5.5,73.9 C2.7,73.9 0.5,71.7 0.5,68.9 C0.5,66.1 2.7,63.9 5.5,63.9 L131.5,63.9 C134.3,63.9 136.5,66.1 136.5,68.9 C136.5,71.7 134.3,73.9 131.5,73.9 Z" transform="translate(113.000000, 490.000000)"/><path d="M24,118.4 C22.7,118.4 21.4,117.9 20.5,116.9 C18.5,114.9 18.5,111.8 20.5,109.8 L109.6,20.7 C111.6,18.7 114.7,18.7 116.7,20.7 C118.7,22.7 118.7,25.8 116.7,27.8 L27.5,117 C26.5,118 25.3,118.4 24,118.4 Z" transform="translate(113.000000, 490.000000)"/><path d="M113.1,118.4 C111.8,118.4 110.5,117.9 109.6,116.9 L20.5,27.8 C18.5,25.8 18.5,22.7 20.5,20.7 C22.5,18.7 25.6,18.7 27.6,20.7 L116.7,109.8 C118.7,111.8 118.7,114.9 116.7,116.9 C115.6,118 114.3,118.4 113.1,118.4 Z" transform="translate(113.000000, 490.000000)"/></g><g id="Path" fill="#F3F6E6" fill-rule="nonzero"><path d="M49.1,97.7 C46.3,97.7 44.1,95.5 44.1,92.7 L44.1,5.3 C44.1,2.5 46.3,0.3 49.1,0.3 C51.9,0.3 54.1,2.5 54.1,5.3 L54.1,92.7 C54.1,95.5 51.9,97.7 49.1,97.7 Z" transform="translate(652.000000, 480.000000)"/><path d="M92.9,54 L5.5,54 C2.7,54 0.5,51.8 0.5,49 C0.5,46.2 2.7,44 5.5,44 L92.9,44 C95.7,44 97.9,46.2 97.9,49 C97.9,51.8 95.6,54 92.9,54 Z" transform="translate(652.000000, 480.000000)"/><path d="M18.2,84.9 C16.9,84.9 15.6,84.4 14.7,83.4 C12.7,81.4 12.7,78.3 14.7,76.3 L76.5,14.5 C78.5,12.5 81.6,12.5 83.6,14.5 C85.6,16.5 85.6,19.6 83.6,21.6 L21.8,83.4 C20.8,84.4 19.5,84.9 18.2,84.9 Z" transform="translate(652.000000, 480.000000)"/><path d="M80.1,84.9 C78.8,84.9 77.5,84.4 76.6,83.4 L14.8,21.6 C12.8,19.6 12.8,16.5 14.8,14.5 C16.8,12.5 19.9,12.5 21.9,14.5 L83.7,76.3 C85.7,78.3 85.7,81.4 83.7,83.4 C82.6,84.4 81.3,84.9 80.1,84.9 Z" transform="translate(652.000000, 480.000000)"/></g><path id="Path" fill="#383A48" fill-rule="nonzero" d="M1061.4,811.3 C1058.6,811.3 1056.4,809.1 1056.4,806.3 L1056.4,495.9 C1056.4,493.1 1058.6,490.9 1061.4,490.9 C1064.2,490.9 1066.4,493.1 1066.4,495.9 L1066.4,806.3 C1066.4,809.1 1064.2,811.3 1061.4,811.3 Z"/><g fill-rule="nonzero"><g transform="translate(959.000000, 393.000000)"><circle id="Oval" cx="54.3" cy="54.8" r="49.2" fill="#F3F6E6"/><path id="Shape" fill="#383A48" d="M54.3,109 C39.8,109 26.2,103.4 16,93.1 C-5.1,72 -5.1,37.6 16,16.5 C37.1,-4.6 71.5,-4.6 92.6,16.5 L92.6,16.5 C113.7,37.6 113.7,72 92.6,93.1 C82.4,103.3 68.8,109 54.3,109 Z M54.3,10.6 C43,10.6 31.7,14.9 23,23.5 C5.8,40.7 5.8,68.8 23,86 C31.3,94.3 42.4,98.9 54.3,98.9 C66.1,98.9 77.2,94.3 85.6,86 C102.8,68.8 102.8,40.7 85.6,23.5 C76.9,14.9 65.6,10.6 54.3,10.6 Z"/></g><g transform="translate(959.000000, 393.000000) translate(96.000000, 0.000000)"><circle id="Oval" cx="54.5" cy="54.8" r="49.2" fill="#F3F6E6"/><path id="Shape" fill="#383A48" d="M54.5,109 C40.6,109 26.7,103.7 16.2,93.2 C-4.9,72.1 -4.9,37.7 16.2,16.6 C37.3,-4.5 71.7,-4.5 92.8,16.6 C113.9,37.7 113.9,72.1 92.8,93.2 L92.8,93.2 C82.3,103.7 68.4,109 54.5,109 Z M54.5,10.6 C43.2,10.6 31.9,14.9 23.2,23.5 C6,40.7 6,68.8 23.2,86 C40.4,103.2 68.5,103.2 85.7,86 C102.9,68.8 102.9,40.7 85.7,23.5 C77.2,14.9 65.8,10.6 54.5,10.6 Z"/></g><g transform="translate(959.000000, 393.000000) translate(96.000000, 96.000000)"><circle id="Oval" cx="54.5" cy="55" r="49.2" fill="#F3F6E6"/><path id="Shape" fill="#383A48" d="M54.5,109.2 C40.6,109.2 26.7,103.9 16.2,93.4 C-4.9,72.3 -4.9,37.9 16.2,16.8 C37.3,-4.3 71.7,-4.3 92.8,16.8 C113.9,37.9 113.9,72.3 92.8,93.4 C82.3,103.9 68.4,109.2 54.5,109.2 Z M54.5,10.8 C43.2,10.8 31.9,15.1 23.2,23.7 C6,40.9 6,69 23.2,86.2 C40.4,103.4 68.5,103.4 85.7,86.2 C102.9,69 102.9,40.9 85.7,23.7 C77.2,15.1 65.8,10.8 54.5,10.8 Z"/></g><g transform="translate(959.000000, 393.000000) translate(0.000000, 96.000000)"><circle id="Oval" cx="54.3" cy="55" r="49.2" fill="#F3F6E6"/><path id="Shape" fill="#383A48" d="M54.3,109.2 C39.8,109.2 26.2,103.6 16,93.3 C5.8,83.1 0.1,69.5 0.1,55 C0.1,40.5 5.7,26.9 16,16.7 C37.1,-4.4 71.5,-4.4 92.6,16.7 C113.7,37.8 113.7,72.2 92.6,93.3 C82.4,103.6 68.8,109.2 54.3,109.2 Z M54.3,10.8 C43,10.8 31.7,15.1 23,23.7 C14.7,32 10.1,43.1 10.1,55 C10.1,66.8 14.7,77.9 23,86.3 C31.3,94.6 42.4,99.2 54.3,99.2 C66.1,99.2 77.2,94.6 85.6,86.3 C102.8,69.1 102.8,41 85.6,23.8 C76.9,15.1 65.6,10.8 54.3,10.8 Z"/></g><g transform="translate(959.000000, 393.000000) translate(61.000000, 61.000000)"><circle id="Oval" cx="41.4" cy="41.9" r="36.1" fill="#F6E049"/><path id="Shape" fill="#383A48" d="M41.4,83 C18.7,83 0.3,64.6 0.3,41.9 C0.3,19.2 18.7,0.8 41.4,0.8 C64.1,0.8 82.5,19.2 82.5,41.9 C82.5,64.6 64.1,83 41.4,83 Z M41.4,10.8 C24.2,10.8 10.3,24.8 10.3,41.9 C10.3,59 24.3,73 41.4,73 C58.5,73 72.5,59 72.5,41.9 C72.5,24.8 58.6,10.8 41.4,10.8 Z"/></g></g><path id="Path" fill="#383A48" fill-rule="nonzero" d="M1066.4,798.8 L1056.4,798.8 C1056.4,738.3 1091.4,696.3 1160.4,674.2 L1163.5,683.7 C1134.8,692.9 1112.3,705.7 1096.4,721.7 C1076.5,741.8 1066.4,767.7 1066.4,798.8 Z"/><g fill-rule="nonzero" transform="translate(1116.000000, 637.000000)"><path id="Path" fill="#7FD6C2" d="M65.5,59.2 C41.2,72.1 5.1,61 5.1,61 C5.1,61 16.2,24.9 40.5,12 C64.8,-0.9 100.9,10.2 100.9,10.2 C100.9,10.2 89.8,46.3 65.5,59.2 Z"/><path id="Shape" fill="#383A48" d="M36.2,70.4 C19.1,70.4 4.5,66 3.6,65.7 C1,64.9 -0.5,62.1 0.3,59.5 C0.8,57.9 12.3,21.2 38.1,7.5 C64,-6.2 100.8,4.9 102.4,5.3 C105,6.1 106.5,8.9 105.7,11.5 C105.2,13.1 93.7,49.8 67.9,63.5 L67.9,63.5 C58,68.8 46.7,70.4 36.2,70.4 Z M11.6,57.5 C22,59.9 46.1,63.8 63.1,54.8 L63.1,54.8 C80.2,45.7 90.4,23.6 94.3,13.7 C83.9,11.3 59.8,7.4 42.8,16.4 C25.7,25.4 15.5,47.6 11.6,57.5 Z"/></g><path id="Path" fill="#F6E049" fill-rule="nonzero" d="M0,0.7 L0,198 L5,198 C111,198 197.3,111.7 197.3,5.7 L197.3,0.7 L0,0.7 Z"/><g fill-rule="nonzero"><g transform="translate(1224.000000, 328.000000)"><circle id="Oval" cx="50.8" cy="51.4" r="45.6" fill="#E0719E"/><path id="Shape" fill="#383A48" d="M50.8,102 C37.3,102 24.6,96.7 15.1,87.2 C-4.6,67.5 -4.6,35.4 15.1,15.7 C34.8,-4 66.9,-4 86.6,15.7 C106.3,35.4 106.3,67.5 86.6,87.2 C77,96.7 64.3,102 50.8,102 Z M50.8,10.9 C40.4,10.9 30,14.9 22.1,22.8 C14.4,30.5 10.2,40.6 10.2,51.5 C10.2,62.4 14.4,72.5 22.1,80.2 C29.8,87.9 39.9,92.1 50.8,92.1 C61.6,92.1 71.8,87.9 79.5,80.2 C95.3,64.4 95.3,38.7 79.5,22.8 C71.6,14.9 61.2,10.9 50.8,10.9 Z"/></g><g transform="translate(1224.000000, 328.000000) translate(45.000000, 46.000000)"><circle id="Oval" cx="51.4" cy="51" r="45.6" fill="#F6E049"/><path id="Shape" fill="#383A48" d="M51.4,101.5 C38.5,101.5 25.5,96.6 15.7,86.7 C-4,67 -4,34.9 15.7,15.2 C35.4,-4.5 67.5,-4.5 87.2,15.2 C106.9,34.9 106.9,67 87.2,86.7 C77.3,96.6 64.3,101.5 51.4,101.5 Z M51.4,10.5 C41,10.5 30.6,14.5 22.7,22.4 C6.9,38.2 6.9,63.9 22.7,79.8 C38.5,95.6 64.2,95.6 80.1,79.8 C95.9,64 95.9,38.3 80.1,22.4 C72.1,14.4 61.8,10.5 51.4,10.5 Z"/></g><g transform="translate(1224.000000, 328.000000) translate(91.000000, 92.000000)"><circle id="Oval" cx="50.9" cy="50.6" r="45.6" fill="#F3F6E6"/><path id="Shape" fill="#383A48" d="M50.9,101.1 C38,101.1 25,96.2 15.2,86.3 C5.7,76.8 0.4,64.1 0.4,50.6 C0.4,37.1 5.7,24.4 15.2,14.9 C34.9,-4.8 67,-4.8 86.7,14.9 C106.4,34.6 106.4,66.7 86.7,86.4 C76.8,96.2 63.9,101.1 50.9,101.1 Z M50.9,10 C40.5,10 30.1,14 22.2,21.9 C14.5,29.6 10.3,39.7 10.3,50.6 C10.3,61.4 14.5,71.6 22.2,79.3 C38,95.1 63.7,95.1 79.6,79.3 C95.4,63.5 95.4,37.8 79.6,21.9 C71.7,14 61.3,10 50.9,10 Z"/></g><g transform="translate(1224.000000, 328.000000) translate(137.000000, 137.000000)"><circle id="Oval" cx="50.5" cy="51.1" r="45.6" fill="#7FD6C2"/><path id="Shape" fill="#383A48" d="M50.5,101.7 C37,101.7 24.3,96.4 14.8,86.9 C-4.9,67.2 -4.9,35.1 14.8,15.4 C34.5,-4.3 66.6,-4.3 86.3,15.4 C106,35.1 106,67.2 86.3,86.9 C76.7,96.4 64,101.7 50.5,101.7 Z M50.5,10.6 C40.1,10.6 29.7,14.6 21.8,22.5 C14.1,30.2 9.9,40.3 9.9,51.2 C9.9,62.1 14.1,72.2 21.8,79.9 C29.5,87.6 39.6,91.8 50.5,91.8 C61.3,91.8 71.5,87.6 79.2,79.9 C95,64.1 95,38.4 79.2,22.5 C71.2,14.5 60.9,10.6 50.5,10.6 Z"/></g></g><path id="Path" fill="#4053FA" fill-rule="nonzero" d="M1481,663.5 L1343.2,663.5 C1341.2,663.5 1339.4,664.7 1338.6,666.6 C1337.8,668.5 1338.3,670.6 1339.7,672 L1477.5,809.8 C1478.5,810.8 1479.7,811.3 1481,811.3 C1481.6,811.3 1482.3,811.2 1482.9,810.9 C1484.8,810.1 1486,808.3 1486,806.3 L1486,668.5 C1486,665.7 1483.7,663.5 1481,663.5 Z"/><path id="Path" fill="#383A48" fill-rule="nonzero" d="M122.1,139.2 C114.7,139.2 107.7,136.3 102.4,131.1 L90.5,119.2 C83.5,112.3 72.2,112.3 65.3,119.2 L52.2,132.3 C50.2,134.3 47.1,134.3 45.1,132.3 C43.1,130.3 43.1,127.2 45.1,125.2 L58.2,112.1 C63.5,106.8 70.4,103.9 77.9,103.9 L77.9,103.9 C85.3,103.9 92.3,106.8 97.6,112 L109.5,123.9 C112.9,127.3 117.3,129.1 122.1,129.1 L122.1,129.1 C126.9,129.1 131.3,127.2 134.7,123.9 L146.6,112 C157.4,101.1 175.1,101.1 185.9,112 L197.8,123.9 C201.2,127.3 205.6,129.1 210.4,129.1 L210.4,129.1 C215.2,129.1 219.6,127.2 223,123.9 L234.9,112 C240.2,106.7 247.1,103.8 254.6,103.8 L254.6,103.8 C262,103.8 269,106.7 274.3,111.9 L286.3,123.9 C288.3,125.9 288.3,129 286.3,131 C284.3,133 281.2,133 279.2,131 L267.2,119 C260.2,112.1 248.9,112.1 242,119 L230.1,131 C224.8,136.3 217.9,139.2 210.4,139.2 L210.4,139.2 C203,139.2 196,136.3 190.7,131.1 L178.8,119.2 C171.8,112.3 160.5,112.3 153.6,119.2 L141.8,131 C136.5,136.3 129.5,139.2 122.1,139.2 L122.1,139.2 Z"/><g><g transform="translate(1288.000000, 67.000000)"><line id="Path" x1="4.5" x2="26.9" y1="3.9" y2="26.3"/><rect id="Rectangle" width="10" height="31.7" x="10.697" y="-.689" fill="#383A48" fill-rule="nonzero" transform="translate(15.697335, 15.160395) rotate(-45.000000) translate(-15.697335, -15.160395)"/></g><g transform="translate(1288.000000, 67.000000)"><line id="Path" x1="4.5" x2="26.9" y1="26.3" y2="3.9"/><rect id="Rectangle" width="31.7" height="10" x="-.244" y="10.11" fill="#383A48" fill-rule="nonzero" transform="translate(15.606025, 15.110395) rotate(-45.000000) translate(-15.606025, -15.110395)"/></g></g><g><g transform="translate(138.000000, 709.000000)"><line id="Path" x1="3.9" x2="26.3" y1="3.8" y2="26.2"/><rect id="Rectangle" width="10" height="31.7" x="10.088" y="-.93" fill="#383A48" fill-rule="nonzero" transform="translate(15.088255, 14.919435) rotate(-45.000000) translate(-15.088255, -14.919435)"/></g><g transform="translate(138.000000, 709.000000)"><line id="Path" x1="3.9" x2="26.3" y1="26.2" y2="3.8"/><rect id="Rectangle" width="31.7" height="10" x="-.812" y="10.011" fill="#383A48" fill-rule="nonzero" transform="translate(15.038255, 15.010845) rotate(-45.000000) translate(-15.038255, -15.010845)"/></g></g></g></g></g></svg>