<?xml version="1.0" encoding="utf-8"?>
<!-- Generator: Adobe Illustrator 22.0.1, SVG Export Plug-In . SVG Version: 6.00 Build 0)  -->
<svg version="1.1" id="Layer_1" xmlns="http://www.w3.org/2000/svg" xmlns:xlink="http://www.w3.org/1999/xlink" x="0px" y="0px" viewBox="0 0 1920 1080" style="enable-background:new 0 0 1920 1080;" xml:space="preserve">

<rect y="0" width="1920" height="1080" style="fill:#AAC6FC;"/>
<g>
	<path d="M1032.4,138.7c-0.5-2.3-2.5-4-4.9-4H222c-2.8,0-5,2.2-5,5v800.6c0,2.8,2.2,5,5,5s5-2.2,5-5
		c0-132.2,17.3-224.9,52.8-283.5c29.6-48.7,67-67.6,109.4-85.6c8.2-3.5,22.5-7,40.5-11.4c19.3-4.7,43.2-10.6,69.8-18.9l0.8-0.3
		c1.5-0.5,3.1-1,4.7-1.5c52.6-17,97.8-38.3,138-65.1c53.2-35.5,97.3-80.8,131-134.7c1.3-2.1,2.6-4.1,3.9-6.1
		c1.5-2.2,3.1-4.5,4.7-6.9c40.1-56.3,105-102.8,152.4-131.8c51.5-31.6,94.1-50,94.5-50.2C1031.7,143.4,1032.9,141,1032.4,138.7z" style="fill:#F3F6E6;"/>
	<g>
		<g>
			<g>
				<g>
					<circle cx="616.7" cy="272.1" r="5" style="fill:#383A48;"/>
				</g>
			</g>
			<g>
				<g>
					<circle cx="616.7" cy="444.8" r="5" style="fill:#383A48;"/>
				</g>
			</g>
			<g>
				<g>
					<circle cx="616.7" cy="469.5" r="5" style="fill:#383A48;"/>
				</g>
			</g>
			<g>
				<g>
					<circle cx="592" cy="272.1" r="5" style="fill:#383A48;"/>
				</g>
			</g>
			<g>
				<g>
					<circle cx="592" cy="296.8" r="5" style="fill:#383A48;"/>
				</g>
			</g>
			<g>
				<g>
					<circle cx="592" cy="321.5" r="5" style="fill:#383A48;"/>
				</g>
			</g>
			<g>
				<g>
					<circle cx="592" cy="346.1" r="5" style="fill:#383A48;"/>
				</g>
			</g>
			<g>
				<g>
					<circle cx="592" cy="370.8" r="5" style="fill:#383A48;"/>
				</g>
			</g>
			<g>
				<g>
					<circle cx="592" cy="395.5" r="5" style="fill:#383A48;"/>
				</g>
			</g>
			<g>
				<g>
					<circle cx="592" cy="420.1" r="5" style="fill:#383A48;"/>
				</g>
			</g>
			<g>
				<g>
					<circle cx="592" cy="444.8" r="5" style="fill:#383A48;"/>
				</g>
			</g>
			<g>
				<g>
					<circle cx="592" cy="469.5" r="5" style="fill:#383A48;"/>
				</g>
			</g>
			<g>
				<g>
					<circle cx="567.4" cy="296.8" r="5" style="fill:#383A48;"/>
				</g>
			</g>
			<g>
				<g>
					<circle cx="567.4" cy="321.5" r="5" style="fill:#383A48;"/>
				</g>
			</g>
			<g>
				<g>
					<circle cx="567.4" cy="346.1" r="5" style="fill:#383A48;"/>
				</g>
			</g>
			<g>
				<g>
					<circle cx="567.4" cy="370.8" r="5" style="fill:#383A48;"/>
				</g>
			</g>
			<g>
				<g>
					<circle cx="567.4" cy="395.5" r="5" style="fill:#383A48;"/>
				</g>
			</g>
			<g>
				<g>
					<circle cx="567.4" cy="420.1" r="5" style="fill:#383A48;"/>
				</g>
			</g>
			<g>
				<g>
					<circle cx="567.4" cy="444.8" r="5" style="fill:#383A48;"/>
				</g>
			</g>
			<g>
				<g>
					<circle cx="567.4" cy="469.5" r="5" style="fill:#383A48;"/>
				</g>
			</g>
			<g>
				<g>
					<circle cx="567.4" cy="494.1" r="5" style="fill:#383A48;"/>
				</g>
			</g>
			<g>
				<g>
					<circle cx="542.7" cy="296.8" r="5" style="fill:#383A48;"/>
				</g>
			</g>
			<g>
				<g>
					<circle cx="542.7" cy="321.5" r="5" style="fill:#383A48;"/>
				</g>
			</g>
			<g>
				<g>
					<circle cx="542.7" cy="346.1" r="5" style="fill:#383A48;"/>
				</g>
			</g>
			<g>
				<g>
					<circle cx="542.7" cy="370.8" r="5" style="fill:#383A48;"/>
				</g>
			</g>
			<g>
				<g>
					<circle cx="542.7" cy="395.5" r="5" style="fill:#383A48;"/>
				</g>
			</g>
			<g>
				<g>
					<circle cx="542.7" cy="420.1" r="5" style="fill:#383A48;"/>
				</g>
			</g>
			<g>
				<g>
					<circle cx="542.7" cy="444.8" r="5" style="fill:#383A48;"/>
				</g>
			</g>
			<g>
				<g>
					<circle cx="542.7" cy="469.5" r="5" style="fill:#383A48;"/>
				</g>
			</g>
			<g>
				<g>
					<circle cx="542.7" cy="494.1" r="5" style="fill:#383A48;"/>
				</g>
			</g>
			<g>
				<g>
					<circle cx="518" cy="321.5" r="5" style="fill:#383A48;"/>
				</g>
			</g>
			<g>
				<g>
					<circle cx="518" cy="346.1" r="5" style="fill:#383A48;"/>
				</g>
			</g>
			<g>
				<g>
					<circle cx="518" cy="370.8" r="5" style="fill:#383A48;"/>
				</g>
			</g>
			<g>
				<g>
					<circle cx="518" cy="395.5" r="5" style="fill:#383A48;"/>
				</g>
			</g>
			<g>
				<g>
					<circle cx="518" cy="420.1" r="5" style="fill:#383A48;"/>
				</g>
			</g>
			<g>
				<g>
					<circle cx="518" cy="444.8" r="5" style="fill:#383A48;"/>
				</g>
			</g>
			<g>
				<g>
					<circle cx="518" cy="469.5" r="5" style="fill:#383A48;"/>
				</g>
			</g>
			<g>
				<g>
					<circle cx="518" cy="494.1" r="5" style="fill:#383A48;"/>
				</g>
			</g>
			<g>
				<g>
					<circle cx="518" cy="518.8" r="5" style="fill:#383A48;"/>
				</g>
			</g>
			<g>
				<g>
					<circle cx="493.4" cy="346.1" r="5" style="fill:#383A48;"/>
				</g>
			</g>
			<g>
				<g>
					<circle cx="493.4" cy="370.8" r="5" style="fill:#383A48;"/>
				</g>
			</g>
			<g>
				<g>
					<circle cx="493.4" cy="395.5" r="5" style="fill:#383A48;"/>
				</g>
			</g>
			<g>
				<g>
					<circle cx="493.4" cy="420.1" r="5" style="fill:#383A48;"/>
				</g>
			</g>
			<g>
				<g>
					<circle cx="493.4" cy="444.8" r="5" style="fill:#383A48;"/>
				</g>
			</g>
			<g>
				<g>
					<circle cx="493.4" cy="469.5" r="5" style="fill:#383A48;"/>
				</g>
			</g>
			<g>
				<g>
					<circle cx="493.4" cy="494.1" r="5" style="fill:#383A48;"/>
				</g>
			</g>
			<g>
				<g>
					<circle cx="493.4" cy="518.8" r="5" style="fill:#383A48;"/>
				</g>
			</g>
			<g>
				<g>
					<circle cx="468.7" cy="420.1" r="5" style="fill:#383A48;"/>
				</g>
			</g>
			<g>
				<g>
					<circle cx="468.7" cy="444.8" r="5" style="fill:#383A48;"/>
				</g>
			</g>
			<g>
				<g>
					<circle cx="468.7" cy="469.5" r="5" style="fill:#383A48;"/>
				</g>
			</g>
		</g>
	</g>
	<path d="M1698,144.1c-2.8,0-5,2.2-5,5c0,163.2-79.7,191.5-164.1,221.5c-60.4,21.4-122.9,43.6-157.6,116.1
		c-43.6,90.8-93.7,154.5-153.4,194.7c-53,35.7-108.1,49.7-161.4,63.3c-47,12-95.6,24.4-141.5,51.6c-51.4,30.4-94,76.7-130.4,141.5
		c-0.9,1.5-0.9,3.4,0,5c0.9,1.5,2.5,2.5,4.3,2.5H1698c2.8,0,5-2.2,5-5V149.1C1703,146.4,1700.7,144.1,1698,144.1z" style="fill:#F3F6E6;"/>
	<g>
		<g>
			<path d="M790.2,778.6c-1.8,0-3.6-0.1-5.5-0.3c-15.1-1.4-28.7-8.7-38.4-20.3c-9.7-11.7-14.2-26.4-12.7-41.5
				c1.4-15.1,8.6-28.7,20.3-38.4L1172,334.7c2.1-1.8,5.3-1.4,7,0.7c1.8,2.1,1.4,5.3-0.7,7l-418,343.5c-9.6,7.9-15.6,19.2-16.7,31.6
				c-1.2,12.4,2.6,24.6,10.5,34.2c8,9.6,19.2,15.6,31.6,16.7c12.4,1.2,24.6-2.6,34.2-10.5l41.9-34.7c2.1-1.8,5.3-1.5,7,0.7
				c1.8,2.1,1.5,5.3-0.7,7l-41.9,34.7C816,774.1,803.4,778.6,790.2,778.6z" style="fill:#383A48;"/>
		</g>
		<g>
			<path d="M1225.2,591.1c-6.2,65.3-32.4,128.8-77.7,180.3c-3.7,4.2-10.5,0.3-8.7-5.1c8.4-25.6,4.6-53.8-12.9-75
				c-18.4-22.2-47.2-31.1-75.2-26.2c-14.9,2.6-20.9-3.2-15.5-16.8c10.7-26.9,7.6-57.5-11.1-80.1c-18.4-22.2-47.3-31.2-75.3-26.2
				c-14.8,2.7-19.1-5.6-13.9-20.7c6.5-18.9,6.3-39.3-1.1-57.3c-2.8-6.7-6.6-13.1-11.4-18.9c-19.1-23.1-49.5-31.8-78.5-25.5
				c-13.7,3-18.2-3-12.7-16.1c11.4-27.2,8.5-58.5-10.5-81.5c-18.2-22-46.5-30.9-74.3-26.3c-15.2,2.5-17-0.2-3.7-8.3
				c42.6-25.8,89.6-40.5,137.1-44.6c100.9-8.7,204.2,30.7,273.7,114.7C1209.6,425.5,1232.9,509.7,1225.2,591.1z" style="fill:#F6E049;"/>
			<path d="M1143.6,778.2c-1.7,0-3.5-0.4-5.1-1.4c-4.3-2.4-6.1-7.4-4.6-12c8.2-24.9,3.7-51.2-12-70.2
				c-16.7-20.2-43-29.3-70.5-24.4c-9.7,1.7-16.6,0.2-20.4-4.5c-3.6-4.5-3.8-10.9-0.5-19.1c10.4-26,6.5-54.8-10.3-75
				c-16.7-20.2-43.1-29.3-70.6-24.4c-8.4,1.5-14.7,0-18.5-4.4c-4.2-4.9-4.6-12.6-1.1-22.8c6.2-18.1,5.9-37.2-1-53.8
				c-2.7-6.4-6.2-12.3-10.6-17.6c-17.2-20.8-45.4-29.9-73.6-23.8c-8.7,1.9-14.8,0.7-18.4-3.6c-3.6-4.3-3.6-10.8,0-19.3
				c11.1-26.4,7.4-55.7-9.7-76.4c-16.4-19.9-42.5-29.1-69.6-24.6c-8,1.3-16,2.2-18.1-3.5c-2.1-5.6,4.3-10,11-14
				c42.1-25.4,90.2-41.1,139.3-45.3c106.2-9.1,210.1,34.4,277.9,116.5c55.2,66.7,81,151,72.9,237.2l0,0
				c-6.5,68.5-33.8,131.8-79,183.2C1149.2,777,1146.4,778.2,1143.6,778.2z M1065.9,658.8c25,0,48.1,10.4,63.7,29.4
				c17.9,21.7,23.1,51.5,13.8,79.7c0,0.1,0,0.2,0,0.2s0.1,0.1,0.2,0.1c0,0,0,0,0.1-0.1c43.8-49.8,70.2-111.2,76.5-177.5l0,0
				c7.9-83.5-17.1-165.2-70.6-229.9c-65.7-79.5-166.4-121.7-269.4-112.9c-46.8,4-92.7,18.8-133,42.7c30.1-4.4,58.9,6.1,77.3,28.4
				c19.5,23.6,23.8,56.7,11.2,86.6c-2.4,5.7-2,8.4-1.5,9.1c0.5,0.6,2.9,1.4,8.5,0.2c31.9-6.9,63.8,3.5,83.5,27.2
				c5,6.1,9.1,12.8,12.1,20.1c7.8,18.9,8.3,40.5,1.2,60.9c-2.2,6.2-2.5,11.1-0.8,13.1c1.3,1.5,4.6,1.9,9.1,1.1
				c31.1-5.5,61,4.9,80.1,27.9c19.1,23.1,23.6,55.7,11.9,85.1c-2,5.1-1.9,8-1,9.1c1,1.2,4.4,2.1,10.9,0.9
				C1055.2,659.3,1060.6,658.8,1065.9,658.8z M1225.2,591.1L1225.2,591.1L1225.2,591.1z" style="fill:#383A48;"/>
		</g>
		<g>
			<path d="M937.1,540.6c-1.4,0-2.9-0.6-3.9-1.8c-1.8-2.1-1.4-5.3,0.7-7l209.4-172.3l-7.9-2.6
				c-48.5-16-100.7-19.4-150.8-10c-50.2,9.5-97.5,31.6-136.9,64.2L834,422.3c-2.1,1.8-5.3,1.5-7-0.7c-1.8-2.1-1.5-5.3,0.7-7
				l13.6-11.2c40.7-33.6,89.5-56.5,141.4-66.3c51.8-9.8,105.7-6.2,155.8,10.3l16.6,5.5c1.7,0.6,3,2,3.3,3.8s-0.3,3.6-1.7,4.8
				l-216.4,178C939.3,540.3,938.2,540.6,937.1,540.6z" style="fill:#383A48;"/>
		</g>
		<g>
			<path d="M1034.2,666.4c-1.5,0-3-0.7-4-2c-1.7-2.2-1.3-5.3,0.9-7l8.2-6.3l4-3.3c39.4-32.5,70.1-74.8,88.8-122.3
				s25.1-99.4,18.6-150l-2.2-17.3c-0.4-2.7,1.6-5.2,4.3-5.6c2.7-0.3,5.2,1.6,5.6,4.3l2.2,17.3c6.8,52.3,0.2,105.9-19.2,155
				c-19.3,49.1-51.1,92.8-91.7,126.4l-4,3.3c0,0-0.1,0.1-0.2,0.1l-8.3,6.4C1036.3,666.1,1035.3,666.4,1034.2,666.4z" style="fill:#383A48;"/>
		</g>
	</g>
	<path d="M957.4,369.5c-0.2-2.6-0.5-5-0.7-7.1l-0.1-0.5v-0.1c-6.3-49.3-33.2-94.1-74-122.9c-1-0.7-2.1-1-3.3-0.9
		c-49.1,4.2-97.2,19.9-139.3,45.3c-6.7,4-13.1,8.5-11,14c2.1,5.6,9.7,4.9,18.1,3.5c27.1-4.5,53.1,4.7,69.6,24.6
		c17.1,20.7,20.8,49.9,9.7,76.4c-3.6,8.5-3.6,15,0,19.3c3.5,4.2,9.7,5.4,18.4,3.6c28.2-6.1,56.4,3,73.6,23.8
		c4.4,5.3,8,11.2,10.6,17.6c0.7,1.8,2.4,3,4.3,3.1c0.1,0,0.2,0,0.3,0c1.8,0,3.5-1,4.4-2.6c0.1-0.2,0.2-0.4,0.3-0.6l0.2-0.4
		c0-0.1,0.1-0.1,0.1-0.2l0.2-0.5c0,0,0-0.1,0.1-0.1l0.7-1.4c0.1-0.2,0.2-0.3,0.2-0.5l0.8-1.6c0.1-0.3,0.3-0.6,0.4-0.9l0.1-0.3
		c0.1-0.2,0.2-0.4,0.3-0.6l0.4-0.7c0.3-0.5,0.5-1.1,0.7-1.6s0.4-1,0.6-1.5c0,0,0-0.1,0.1-0.1l0.2-0.5c0.1-0.2,0.2-0.3,0.2-0.5
		c0.2-0.4,0.3-0.7,0.5-1.1l0.9-2.2c0.1-0.2,0.2-0.4,0.2-0.6c0-0.1,0.1-0.2,0.1-0.2v-0.1c0.1-0.4,0.3-0.7,0.4-1.1l0.2-0.6
		c0.2-0.6,0.4-1.1,0.6-1.7c0.3-0.9,0.7-1.8,1-2.7v-0.1c0.2-0.5,0.4-1,0.5-1.5c0.3-1,0.7-1.9,0.9-2.8l0.5-1.5c0-0.1,0.1-0.2,0.1-0.2
		c0.1-0.3,0.2-0.5,0.2-0.8v-0.1l0.6-2.1c0.1-0.5,0.3-0.9,0.4-1.4l0.8-3c0.1-0.5,0.3-1,0.4-1.5v-0.1v-0.1c0-0.1,0.1-0.3,0.1-0.4v-0.1
		c0.1-0.5,0.3-1,0.4-1.6c0.2-0.7,0.4-1.5,0.5-2.2c0.1-0.3,0.1-0.6,0.2-0.9c0.1-0.5,0.2-1.1,0.3-1.6l0.2-0.7c0.1-0.5,0.2-1,0.3-1.5
		l0.2-0.9c0.1-0.5,0.2-0.9,0.3-1.4l0.8-4.7c0.1-0.7,0.2-1.5,0.3-2.3c0.1-0.4,0.1-0.8,0.2-1.2c0,0,0-0.1,0-0.2l0.1-1.1
		c0.1-0.8,0.2-1.6,0.3-2.4l0.1-1.3c0-0.2,0-0.4,0.1-0.6c0-0.1,0-0.2,0-0.3c0-0.1,0-0.1,0-0.2c0.1-0.8,0.2-1.6,0.2-2.5
		c0-0.2,0-0.4,0.1-0.6c0-0.3,0.1-0.6,0.1-0.8c0-0.2,0-0.3,0-0.5v-0.2c0.1-0.9,0.1-1.8,0.2-2.7c0-0.2,0-0.4,0-0.7
		c0-0.3,0-0.6,0.1-0.9c0-0.1,0-0.2,0-0.2v-0.3c0.1-1,0.1-2,0.1-3v-0.5c0-0.4,0-0.7,0-1.1v-0.1v-0.2c0-1.5,0.1-3.1,0.1-4.6v-0.1
		C958.1,379.6,957.9,374.6,957.4,369.5z" style="fill:#383A48;"/>
	<path d="M1274.5,214.5c-11.2-19.9-22.6-37-22.7-37.1c-0.9-1.4-2.5-2.2-4.2-2.2s-3.2,0.8-4.2,2.2
		c-0.1,0.2-11.5,17.2-22.7,37.1c-15.4,27.2-23.1,46.7-23.1,57.9c0,27.6,22.4,50,50,50s50-22.4,50-50
		C1297.7,261.2,1289.9,241.7,1274.5,214.5z" style="fill:#4053FA;"/>
	<path d="M1328.8,320.8c-0.9-1.4-2.5-2.2-4.2-2.2s-3.2,0.8-4.2,2.2c-2.9,4.3-28.1,42.6-28.1,58.8
		c0,17.8,14.5,32.3,32.3,32.3s32.3-14.5,32.3-32.3C1356.9,363.4,1331.7,325.1,1328.8,320.8z" style="fill:#4053FA;"/>
	<g>
		<g>
			<g>
				<path d="M883.3,384.4c0,95.7-77.6,173.3-173.3,173.3s-173.3-77.6-173.3-173.3c0-33.4,9.5-64.6,25.8-91.1
					c10.5-17,23.9-32.1,39.5-44.5c29.6-23.6,67.2-37.8,108-37.8C805.7,211.1,883.3,288.7,883.3,384.4z" style="fill:#F3F6E6;"/>
				<path d="M709.9,562.7c-98.3,0-178.3-80-178.3-178.3c0-33.2,9.2-65.6,26.6-93.7c10.8-17.5,24.5-32.9,40.6-45.7
					c31.9-25.4,70.3-38.9,111.1-38.9c98.3,0,178.3,80,178.3,178.3C888.3,482.7,808.3,562.7,709.9,562.7z M709.9,216.1
					c-38.6,0-74.8,12.7-104.9,36.7c-15.2,12.1-28.1,26.7-38.3,43.2c-16.4,26.5-25.1,57.1-25.1,88.4c0,92.8,75.5,168.3,168.3,168.3
					s168.3-75.5,168.3-168.3S802.8,216.1,709.9,216.1z" style="fill:#383A48;"/>
			</g>
			<g>
				<path d="M709.9,211.1c-40.9,0-78.4,14.1-108,37.8c-6.3,5-12.2,10.5-17.8,16.3c8,3.2,14.7,10.2,17.1,18.6
					c3.7,12.9,6.1,26.2,9.1,39.3c8.6,1.2,16.9,4.5,24.4,9.1c26.7,16.3,46.4,43.2,65.1,67.6c11.6,15.1,22.8,30.6,34,46.1
					c32.2,11.8,66.4,22.9,84.8,53.9c2.6,4.4,4.8,9.4,6.1,14.5c35.9-31.8,58.5-78.1,58.5-129.8C883.3,288.7,805.7,211.1,709.9,211.1z
					" style="fill:#F3F6E6;"/>
				<path d="M824.8,519.3c-0.5,0-1-0.1-1.5-0.2c-1.7-0.5-2.9-1.9-3.4-3.5c-1.1-4.4-3.1-9-5.6-13.2
					c-16.5-27.8-47.3-39-77-49.8c-1.8-0.6-3.5-1.3-5.3-1.9c-0.9-0.3-1.7-1-2.3-1.8l-5.6-7.7c-9.2-12.6-18.7-25.7-28.4-38.3l-3.3-4.3
					c-17.8-23.2-36.1-47.2-60.5-62.1c-7.2-4.4-15-7.3-22.5-8.4c-2.1-0.3-3.7-1.8-4.2-3.8c-1-4.2-1.9-8.4-2.7-12.6
					c-1.9-8.8-3.8-17.8-6.3-26.5c-1.9-6.7-7.3-12.5-14.1-15.3c-1.5-0.6-2.7-2-3-3.6c-0.4-1.6,0.1-3.3,1.3-4.5
					c5.7-6,11.9-11.7,18.3-16.8c31.9-25.4,70.3-38.9,111.1-38.9c98.3,0,178.3,80,178.3,178.3c0,51-21.9,99.7-60.2,133.6
					C827.1,518.8,826,519.3,824.8,519.3z M736.9,441.7c1.3,0.5,2.5,0.9,3.8,1.4c31.4,11.4,63.9,23.3,82.2,54.1
					c1.6,2.7,3,5.4,4.1,8.2c32.7-31.6,51.2-75.3,51.2-120.9c0-92.8-75.5-168.3-168.3-168.3c-38.6,0-74.8,12.7-104.9,36.7
					c-4.4,3.5-8.6,7.2-12.7,11.2c6.6,4.4,11.6,11.1,13.6,18.5c2.5,9,4.5,18.2,6.4,27.1c0.6,3,1.3,6.1,2,9.2
					c7.7,1.5,15.6,4.7,22.9,9.2c25.9,15.9,44.9,40.6,63.2,64.6l3.3,4.3c9.7,12.7,19.3,25.8,28.5,38.5L736.9,441.7z" style="fill:#383A48;"/>
			</g>
			<g>
				<path d="M709.9,557.7c-95.7,0-173.3-77.6-173.3-173.3c0-62,32.5-116.3,81.4-147c-25.4,30.1-40.7,69-40.7,111.5
					c0,95.7,77.6,173.3,173.3,173.3c33.7,0,65.2-9.6,91.9-26.3C810.8,533.7,763.2,557.7,709.9,557.7z" style="fill:#AAC6FC;"/>
				<path d="M709.9,562.7c-98.3,0-178.3-80-178.3-178.3c0-30.8,8-61.1,23-87.7c14.6-25.8,35.6-47.8,60.8-63.5
					c2.1-1.3,4.8-0.9,6.4,1c1.6,1.9,1.6,4.6,0,6.5c-25.5,30.2-39.5,68.7-39.5,108.3c0,92.8,75.5,168.3,168.3,168.3
					c31.7,0,62.5-8.8,89.2-25.6c2.1-1.3,4.8-0.9,6.4,1c1.6,1.9,1.6,4.6,0.1,6.5C812.4,539.6,762.7,562.7,709.9,562.7z M595.8,260.6
					c-34.4,31.6-54.2,76-54.2,123.8c0,92.8,75.5,168.3,168.3,168.3c39.2,0,76.7-13.6,106.5-38c-20.8,8.2-43.1,12.5-65.7,12.5
					c-98.3,0-178.3-80-178.3-178.3C572.4,317.8,580.6,287.4,595.8,260.6z" style="fill:#383A48;"/>
			</g>
			<g>
				<g>
					<path d="M883.3,384.4c0-95.7-77.6-173.3-173.3-173.3c-62,0-116.3,32.5-147,81.4c30.1-25.4,69-40.7,111.5-40.7
						c95.7,0,173.3,77.6,173.3,173.3c0,33.7-9.6,65.2-26.3,91.9C859.3,485.3,883.3,437.7,883.3,384.4z" style="fill:#7FD6C2;"/>
				</g>
				<g>
					<path d="M821.5,522.1c-1.2,0-2.3-0.4-3.3-1.2c-1.9-1.6-2.3-4.3-1-6.4c16.7-26.7,25.6-57.6,25.6-89.2
						c0-92.8-75.5-168.3-168.3-168.3c-39.6,0-78.1,14-108.3,39.5c-1.9,1.6-4.6,1.6-6.5,0s-2.3-4.3-1-6.4
						c15.8-25.1,37.7-46.2,63.5-60.8c26.6-15.1,56.9-23,87.7-23c98.3,0,178.3,80,178.3,178.3c0,52.7-23.2,102.5-63.6,136.5
						C823.8,521.7,822.6,522.1,821.5,522.1z M674.5,246.9c98.3,0,178.3,80,178.3,178.3c0,22.7-4.3,44.9-12.5,65.7
						c24.4-29.8,38-67.3,38-106.5c0-92.8-75.5-168.3-168.3-168.3c-47.8,0-92.2,19.8-123.8,54.2C612.9,255.1,643.4,246.9,674.5,246.9
						z" style="fill:#383A48;"/>
				</g>
			</g>
		</g>
		<g>
			<path d="M594.3,274.2c0,0,4.8,156,234.8,229.4C829.1,503.6,808.3,336.5,594.3,274.2z" style="fill:#F6E049;"/>
			<path d="M829.1,508.6c-0.5,0-1-0.1-1.5-0.2c-53-16.9-98.5-39.6-135.2-67.6c-29.5-22.4-53.4-48.3-71.1-76.8
				c-30.3-48.8-31.8-88-31.9-89.7c0-1.6,0.7-3.1,1.9-4.1c1.3-1,2.9-1.3,4.5-0.8c49.4,14.4,92.7,35.5,128.6,62.9
				c28.8,22,53,47.9,71.8,77.2c16.8,26.1,26.2,50,31.1,65.5c5.4,16.9,6.7,27.5,6.8,28c0.2,1.7-0.5,3.4-1.8,4.5
				C831.4,508.2,830.3,508.6,829.1,508.6z M600.1,281.1c1.9,13.2,8.3,43.4,30,78.2c17.1,27.4,40.2,52.2,68.7,73.8
				c33.9,25.7,75.5,46.9,123.8,63.1c-3.1-14.3-12.1-46.1-35.2-81.7c-18.3-28.2-41.6-53.2-69.5-74.4
				C684.8,314.9,645.2,295.1,600.1,281.1z" style="fill:#383A48;"/>
		</g>
		<g>
			<path d="M602.7,256.5c0,20.4-16.6,37-37,37c-1.1,0-2.2,0-3.2-0.1c10.5-17,23.9-32.1,39.5-44.5
				C602.4,251.3,602.7,253.9,602.7,256.5z" style="fill:#E0719E;"/>
			<path d="M565.7,298.5c-1.2,0-2.5-0.1-3.7-0.2c-1.7-0.2-3.3-1.2-4-2.7c-0.8-1.6-0.7-3.4,0.2-4.9
				c10.8-17.5,24.5-32.9,40.6-45.7c1.4-1.1,3.2-1.4,4.8-0.8c1.6,0.6,2.8,2,3.2,3.7c0.6,2.8,0.9,5.7,0.9,8.6
				C607.7,279.6,588.9,298.5,565.7,298.5z M597.6,259.1c-9.6,8.6-18.1,18.2-25.5,28.8C585.8,285.1,596.4,273.4,597.6,259.1z" style="fill:#383A48;"/>
		</g>
		<g>
			<path d="M844.5,481.8c-20.4,1.4-35.8,19.1-34.4,39.5c0.1,1.1,0.2,2.2,0.4,3.2c16.2-11.7,30.3-26,41.6-42.4
				C849.6,481.8,847.1,481.7,844.5,481.8z" style="fill:#E0719E;"/>
			<path d="M810.5,529.5c-0.7,0-1.3-0.1-1.9-0.4c-1.6-0.7-2.7-2.1-3-3.8c-0.2-1.2-0.3-2.4-0.4-3.6
				c-1.6-23.1,15.9-43.2,39-44.8c2.9-0.2,5.8-0.1,8.7,0.3c1.7,0.2,3.2,1.4,3.9,2.9c0.7,1.6,0.5,3.4-0.5,4.9
				c-11.7,17-26.1,31.6-42.8,43.6C812.5,529.2,811.5,529.5,810.5,529.5z M842.2,487.1c-14.2,2.1-25.1,13.5-26.9,27.5
				C825.3,506.5,834.3,497.3,842.2,487.1z M844.5,481.8L844.5,481.8L844.5,481.8z" style="fill:#383A48;"/>
		</g>
	</g>
	<g>
		<g>
			<g>
				<path d="M708.2,815.5l-109.5,41L541.3,878c-6.3,2.4-12.8,3.5-19.1,3.5c-22.1,0-42.9-13.5-51.1-35.4
					c-10.6-28.2,3.7-59.6,31.9-70.2l30.2-11.3c15-5.6,22.6-22.3,17-37.3L509.3,618l85.1-31.9l77.7-29.1l23.9,63.8l27.2,72.6
					l18.3,48.8C752.6,771.6,737.6,804.5,708.2,815.5z" style="fill:#F3F6E6;"/>
				<path d="M522.2,886.5c-24.7,0-47.1-15.5-55.8-38.7c-5.6-14.9-5-31.1,1.6-45.5c6.6-14.5,18.4-25.5,33.3-31.1
					l30.2-11.3c6-2.2,10.8-6.7,13.4-12.5c2.7-5.8,2.9-12.3,0.6-18.3l-40.9-109.3c-0.5-1.2-0.4-2.6,0.1-3.8s1.6-2.1,2.8-2.6l162.8-61
					c1.2-0.5,2.6-0.4,3.8,0.1s2.1,1.6,2.6,2.8l69.4,185.1c12,32-4.3,67.8-36.3,79.8l0,0L543,882.7
					C536.4,885.2,529.3,886.5,522.2,886.5z M515.8,621L555,725.5c3.2,8.5,2.9,17.7-0.9,26c-3.8,8.3-10.5,14.6-19,17.7l-30.2,11.3
					c-12.4,4.6-22.2,13.8-27.7,25.9c-5.5,12-5.9,25.5-1.3,37.9c7.2,19.2,25.8,32.2,46.4,32.2c5.9,0,11.8-1.1,17.4-3.2l166.8-62.5
					c26.8-10.1,40.5-40.1,30.4-66.9l-67.6-180.5L515.8,621z" style="fill:#383A48;"/>
			</g>
			<path d="M700.8,619.1l-23.9-63.8c-0.5-1.2-1.4-2.2-2.6-2.8c-1.2-0.5-2.6-0.6-3.8-0.1l-77.7,29.1
				c-1.7,0.6-2.9,2.2-3.2,4s0.5,3.6,1.9,4.7C621.8,613,658,625.3,696,625.8c0,0,0,0,0.1,0c1.6,0,3.2-0.8,4.1-2.1
				C701.1,622.4,701.3,620.6,700.8,619.1z" style="fill:#383A48;"/>
			<g>
				<circle cx="549.6" cy="642.7" r="9.5" style="fill:#383A48;"/>
			</g>
			<g>
				<circle cx="560.8" cy="672.5" r="9.5" style="fill:#383A48;"/>
			</g>
			<g>
				<circle cx="572" cy="702.4" r="9.5" style="fill:#383A48;"/>
			</g>
		</g>
		<g>
			<path d="M487.7,945.3c-8.9,0-17.7-2.3-25.7-6.7c-7-3.9-12.9-9.3-17.4-15.9c-1.6-2.3-1-5.4,1.3-7s5.4-1,7,1.3
				c3.7,5.3,8.4,9.6,14.1,12.8c10.9,6.1,23.9,7.1,35.7,2.7l284.4-108.1c2.6-1,5.5,0.3,6.5,2.9c1,2.6-0.3,5.5-2.9,6.5L506.2,941.9
				C500.2,944.2,494,945.3,487.7,945.3z" style="fill:#383A48;"/>
		</g>
		<g>
			
				<rect x="705.9" y="815.9" transform="matrix(0.9364 -0.3509 0.3509 0.9364 -248.5381 302.687)" width="10" height="42.5" style="fill:#383A48;"/>
		</g>
		<g>
			
				<rect x="571.8" y="866.2" transform="matrix(0.9364 -0.3509 0.3509 0.9364 -274.7231 258.8393)" width="10" height="42.5" style="fill:#383A48;"/>
		</g>
	</g>
	<g>
		<path d="M1248.7,771.7H816c-0.2,0-0.4,0-0.6,0.1l-66.8-0.1l0,0c-1.6,0-3,0.7-4,2c-0.9,1.2-1.3,2.9-0.8,4.4l34.1,120.7
			c7.7,27.4,33,46.6,61.5,46.6H871c29,0,54.4-19.6,61.8-47.5l30.8-116h23.9l30.8,116c7.4,28,32.8,47.5,61.8,47.5h31.7
			c28.5,0,53.8-19.1,61.5-46.6l33-117h42.3c52.9,0,95.9,43,95.9,95.9v62.7c0,2.8,2.2,5,5,5s5-2.2,5-5v-62.7
			C1354.6,819.2,1307.1,771.7,1248.7,771.7z" style="fill:#383A48;"/>
		<g>
			<path d="M877.4,937.8c-2.1,0-4.1-1.4-4.8-3.5L827,784.6c-0.8-2.6,0.7-5.4,3.3-6.2s5.4,0.7,6.2,3.3l45.6,149.7
				c0.8,2.6-0.7,5.4-3.3,6.2C878.4,937.8,877.9,937.8,877.4,937.8z" style="fill:#F3F6E6;"/>
		</g>
		<g>
			<path d="M848.7,937.8c-2.1,0-4.1-1.4-4.8-3.5l-45.6-149.7c-0.8-2.6,0.7-5.4,3.3-6.2s5.4,0.7,6.2,3.3l45.6,149.7
				c0.8,2.6-0.7,5.4-3.3,6.2C849.6,937.8,849.2,937.8,848.7,937.8z" style="fill:#F3F6E6;"/>
		</g>
		<g>
			<path d="M1123.9,937.8c-2.1,0-4.1-1.4-4.8-3.5l-45.6-149.7c-0.8-2.6,0.7-5.4,3.3-6.2c2.6-0.8,5.4,0.7,6.2,3.3
				l45.6,149.7c0.8,2.6-0.7,5.4-3.3,6.2C1124.9,937.8,1124.4,937.8,1123.9,937.8z" style="fill:#F3F6E6;"/>
		</g>
		<g>
			<path d="M1095.1,937.8c-2.1,0-4.1-1.4-4.8-3.5l-45.6-149.7c-0.8-2.6,0.7-5.4,3.3-6.2c2.6-0.8,5.4,0.7,6.2,3.3
				l45.6,149.7c0.8,2.6-0.7,5.4-3.3,6.2C1096.1,937.8,1095.6,937.8,1095.1,937.8z" style="fill:#F3F6E6;"/>
		</g>
	</g>
	<g>
		<path d="M1349.6,945.3H483.8c-2.8,0-5-2.2-5-5s2.2-5,5-5h865.8c2.8,0,5,2.2,5,5S1352.4,945.3,1349.6,945.3z" style="fill:#383A48;"/>
	</g>
	<g>
		<g>
			<path d="M398.5,760.9c-2.8,0-5-2.2-5-5v-126c0-2.8,2.2-5,5-5s5,2.2,5,5v126C403.5,758.7,401.3,760.9,398.5,760.9z" style="fill:#F3F6E6;"/>
		</g>
		<g>
			<path d="M461.5,697.9h-126c-2.8,0-5-2.2-5-5s2.2-5,5-5h126c2.8,0,5,2.2,5,5S464.3,697.9,461.5,697.9z" style="fill:#F3F6E6;"/>
		</g>
		<g>
			<path d="M354,742.4c-1.3,0-2.6-0.5-3.5-1.5c-2-2-2-5.1,0-7.1l89.1-89.1c2-2,5.1-2,7.1,0s2,5.1,0,7.1L357.5,741
				C356.5,742,355.3,742.4,354,742.4z" style="fill:#F3F6E6;"/>
		</g>
		<g>
			<path d="M443.1,742.4c-1.3,0-2.6-0.5-3.5-1.5l-89.1-89.1c-2-2-2-5.1,0-7.1s5.1-2,7.1,0l89.1,89.1c2,2,2,5.1,0,7.1
				C445.6,742,444.3,742.4,443.1,742.4z" style="fill:#F3F6E6;"/>
		</g>
	</g>
	<g>
		<g>
			<path d="M918.1,711.7c-2.8,0-5-2.2-5-5v-87.4c0-2.8,2.2-5,5-5s5,2.2,5,5v87.4C923.1,709.5,920.9,711.7,918.1,711.7z" style="fill:#F3F6E6;"/>
		</g>
		<g>
			<path d="M961.9,668h-87.4c-2.8,0-5-2.2-5-5s2.2-5,5-5h87.4c2.8,0,5,2.2,5,5S964.6,668,961.9,668z" style="fill:#F3F6E6;"/>
		</g>
		<g>
			<path d="M887.2,698.9c-1.3,0-2.6-0.5-3.5-1.5c-2-2-2-5.1,0-7.1l61.8-61.8c2-2,5.1-2,7.1,0s2,5.1,0,7.1l-61.8,61.8
				C889.8,698.4,888.5,698.9,887.2,698.9z" style="fill:#F3F6E6;"/>
		</g>
		<g>
			<path d="M949.1,698.9c-1.3,0-2.6-0.5-3.5-1.5l-61.8-61.8c-2-2-2-5.1,0-7.1s5.1-2,7.1,0l61.8,61.8c2,2,2,5.1,0,7.1
				C951.6,698.4,950.3,698.9,949.1,698.9z" style="fill:#F3F6E6;"/>
		</g>
	</g>
	<g>
		<path d="M1278.4,945.3c-2.8,0-5-2.2-5-5V629.9c0-2.8,2.2-5,5-5s5,2.2,5,5v310.4
			C1283.4,943.1,1281.2,945.3,1278.4,945.3z" style="fill:#383A48;"/>
	</g>
	<g>
		<g>
			<circle cx="1230.3" cy="581.8" r="49.2" style="fill:#F3F6E6;"/>
			<path d="M1230.3,636c-14.5,0-28.1-5.6-38.3-15.9c-21.1-21.1-21.1-55.5,0-76.6s55.5-21.1,76.6,0l0,0
				c21.1,21.1,21.1,55.5,0,76.6C1258.4,630.3,1244.8,636,1230.3,636z M1230.3,537.6c-11.3,0-22.6,4.3-31.3,12.9
				c-17.2,17.2-17.2,45.3,0,62.5c8.3,8.3,19.4,12.9,31.3,12.9c11.8,0,22.9-4.6,31.3-12.9c17.2-17.2,17.2-45.3,0-62.5
				C1252.9,541.9,1241.6,537.6,1230.3,537.6z" style="fill:#383A48;"/>
		</g>
		<g>
			<circle cx="1326.5" cy="581.8" r="49.2" style="fill:#F3F6E6;"/>
			<path d="M1326.5,636c-13.9,0-27.8-5.3-38.3-15.8c-21.1-21.1-21.1-55.5,0-76.6s55.5-21.1,76.6,0s21.1,55.5,0,76.6l0,0
				C1354.3,630.7,1340.4,636,1326.5,636z M1326.5,537.6c-11.3,0-22.6,4.3-31.3,12.9c-17.2,17.2-17.2,45.3,0,62.5s45.3,17.2,62.5,0
				s17.2-45.3,0-62.5C1349.2,541.9,1337.8,537.6,1326.5,537.6z" style="fill:#383A48;"/>
		</g>
		<g>
			<circle cx="1326.5" cy="678" r="49.2" style="fill:#F3F6E6;"/>
			<path d="M1326.5,732.2c-13.9,0-27.8-5.3-38.3-15.8c-21.1-21.1-21.1-55.5,0-76.6s55.5-21.1,76.6,0s21.1,55.5,0,76.6
				C1354.3,726.9,1340.4,732.2,1326.5,732.2z M1326.5,633.8c-11.3,0-22.6,4.3-31.3,12.9c-17.2,17.2-17.2,45.3,0,62.5
				s45.3,17.2,62.5,0s17.2-45.3,0-62.5C1349.2,638.1,1337.8,633.8,1326.5,633.8z" style="fill:#383A48;"/>
		</g>
		<g>
			<circle cx="1230.3" cy="678" r="49.2" style="fill:#F3F6E6;"/>
			<path d="M1230.3,732.2c-14.5,0-28.1-5.6-38.3-15.9c-10.2-10.2-15.9-23.8-15.9-38.3s5.6-28.1,15.9-38.3
				c21.1-21.1,55.5-21.1,76.6,0s21.1,55.5,0,76.6C1258.4,726.6,1244.8,732.2,1230.3,732.2z M1230.3,633.8
				c-11.3,0-22.6,4.3-31.3,12.9c-8.3,8.3-12.9,19.4-12.9,31.3c0,11.8,4.6,22.9,12.9,31.3c8.3,8.3,19.4,12.9,31.3,12.9
				c11.8,0,22.9-4.6,31.3-12.9c17.2-17.2,17.2-45.3,0-62.5C1252.9,638.1,1241.6,633.8,1230.3,633.8z" style="fill:#383A48;"/>
		</g>
		<g>
			<circle cx="1278.4" cy="629.9" r="36.1" style="fill:#F6E049;"/>
			<path d="M1278.4,671c-22.7,0-41.1-18.4-41.1-41.1s18.4-41.1,41.1-41.1s41.1,18.4,41.1,41.1S1301.1,671,1278.4,671z
				 M1278.4,598.8c-17.2,0-31.1,14-31.1,31.1s14,31.1,31.1,31.1s31.1-14,31.1-31.1S1295.6,598.8,1278.4,598.8z" style="fill:#383A48;"/>
		</g>
	</g>
	<g>
		<path d="M1283.4,932.8h-10c0-60.5,35-102.5,104-124.6l3.1,9.5c-28.7,9.2-51.2,22-67.1,38
			C1293.5,875.8,1283.4,901.7,1283.4,932.8z" style="fill:#383A48;"/>
	</g>
	<g>
		<g>
			<path d="M1398.5,830.2c-24.3,12.9-60.4,1.8-60.4,1.8s11.1-36.1,35.4-49s60.4-1.8,60.4-1.8S1422.8,817.3,1398.5,830.2
				z" style="fill:#7FD6C2;"/>
		</g>
		<g>
			<path d="M1369.2,841.4c-17.1,0-31.7-4.4-32.6-4.7c-2.6-0.8-4.1-3.6-3.3-6.2c0.5-1.6,12-38.3,37.8-52
				c25.9-13.7,62.7-2.6,64.3-2.2c2.6,0.8,4.1,3.6,3.3,6.2c-0.5,1.6-12,38.3-37.8,52l0,0C1391,839.8,1379.7,841.4,1369.2,841.4z
				 M1344.6,828.5c10.4,2.4,34.5,6.3,51.5-2.7l0,0c17.1-9.1,27.3-31.2,31.2-41.1c-10.4-2.4-34.5-6.3-51.5,2.7
				C1358.7,796.4,1348.5,818.6,1344.6,828.5z" style="fill:#383A48;"/>
		</g>
	</g>
	<path d="M217,134.7V332h5c106,0,192.3-86.3,192.3-192.3v-5H217z" style="fill:#F6E049;"/>
	<g>
		<g>
			<g>
				<circle cx="1491.8" cy="513.4" r="45.6" style="fill:#E0719E;"/>
				<path d="M1491.8,564c-13.5,0-26.2-5.3-35.7-14.8c-19.7-19.7-19.7-51.8,0-71.5s51.8-19.7,71.5,0s19.7,51.8,0,71.5
					C1518,558.7,1505.3,564,1491.8,564z M1491.8,472.9c-10.4,0-20.8,4-28.7,11.9c-7.7,7.7-11.9,17.8-11.9,28.7
					c0,10.9,4.2,21,11.9,28.7c7.7,7.7,17.8,11.9,28.7,11.9c10.8,0,21-4.2,28.7-11.9c15.8-15.8,15.8-41.5,0-57.4
					C1512.6,476.9,1502.2,472.9,1491.8,472.9z" style="fill:#383A48;"/>
			</g>
		</g>
		<g>
			<g>
				<circle cx="1537.4" cy="559" r="45.6" style="fill:#F6E049;"/>
				<path d="M1537.4,609.5c-12.9,0-25.9-4.9-35.7-14.8c-19.7-19.7-19.7-51.8,0-71.5c19.7-19.7,51.8-19.7,71.5,0
					c19.7,19.7,19.7,51.8,0,71.5C1563.3,604.6,1550.3,609.5,1537.4,609.5z M1537.4,518.5c-10.4,0-20.8,4-28.7,11.9
					c-15.8,15.8-15.8,41.5,0,57.4c15.8,15.8,41.5,15.8,57.4,0c15.8-15.8,15.8-41.5,0-57.4C1558.1,522.4,1547.8,518.5,1537.4,518.5z" style="fill:#383A48;"/>
			</g>
		</g>
		<g>
			<g>
				<circle cx="1582.9" cy="604.6" r="45.6" style="fill:#F3F6E6;"/>
				<path d="M1582.9,655.1c-12.9,0-25.9-4.9-35.7-14.8c-9.5-9.5-14.8-22.2-14.8-35.7s5.3-26.2,14.8-35.7
					c19.7-19.7,51.8-19.7,71.5,0s19.7,51.8,0,71.5C1608.8,650.2,1595.9,655.1,1582.9,655.1z M1582.9,564c-10.4,0-20.8,4-28.7,11.9
					c-7.7,7.7-11.9,17.8-11.9,28.7c0,10.8,4.2,21,11.9,28.7c15.8,15.8,41.5,15.8,57.4,0c15.8-15.8,15.8-41.5,0-57.4
					C1603.7,568,1593.3,564,1582.9,564z" style="fill:#383A48;"/>
			</g>
		</g>
		<g>
			<g>
				<circle cx="1628.5" cy="650.1" r="45.6" style="fill:#7FD6C2;"/>
				<path d="M1628.5,700.7c-13.5,0-26.2-5.3-35.7-14.8c-19.7-19.7-19.7-51.8,0-71.5s51.8-19.7,71.5,0s19.7,51.8,0,71.5
					C1654.7,695.4,1642,700.7,1628.5,700.7z M1628.5,609.6c-10.4,0-20.8,4-28.7,11.9c-7.7,7.7-11.9,17.8-11.9,28.7s4.2,21,11.9,28.7
					c7.7,7.7,17.8,11.9,28.7,11.9c10.8,0,21-4.2,28.7-11.9c15.8-15.8,15.8-41.5,0-57.4C1649.2,613.5,1638.9,609.6,1628.5,609.6z" style="fill:#383A48;"/>
			</g>
		</g>
	</g>
	<path d="M1698,797.5h-137.8c-2,0-3.8,1.2-4.6,3.1c-0.8,1.9-0.3,4,1.1,5.4l137.8,137.8c1,1,2.2,1.5,3.5,1.5
		c0.6,0,1.3-0.1,1.9-0.4c1.9-0.8,3.1-2.6,3.1-4.6V802.5C1703,799.7,1700.7,797.5,1698,797.5z" style="fill:#4053FA;"/>
	<g>
		<path d="M339.1,273.2c-7.4,0-14.4-2.9-19.7-8.1l-11.9-11.9c-7-6.9-18.3-6.9-25.2,0l-13.1,13.1c-2,2-5.1,2-7.1,0
			s-2-5.1,0-7.1l13.1-13.1c5.3-5.3,12.2-8.2,19.7-8.2l0,0c7.4,0,14.4,2.9,19.7,8.1l11.9,11.9c3.4,3.4,7.8,5.2,12.6,5.2l0,0
			c4.8,0,9.2-1.9,12.6-5.2l11.9-11.9c10.8-10.9,28.5-10.9,39.3,0l11.9,11.9c3.4,3.4,7.8,5.2,12.6,5.2l0,0c4.8,0,9.2-1.9,12.6-5.2
			l11.9-11.9c5.3-5.3,12.2-8.2,19.7-8.2l0,0c7.4,0,14.4,2.9,19.7,8.1l12,12c2,2,2,5.1,0,7.1s-5.1,2-7.1,0l-12-12
			c-7-6.9-18.3-6.9-25.2,0l-11.9,12c-5.3,5.3-12.2,8.2-19.7,8.2l0,0c-7.4,0-14.4-2.9-19.7-8.1l-11.9-11.9c-7-6.9-18.3-6.9-25.2,0
			L358.8,265C353.5,270.3,346.5,273.2,339.1,273.2L339.1,273.2z" style="fill:#383A48;"/>
	</g>
	<g>
		<g>
			<line x1="1509.5" y1="204.9" x2="1531.9" y2="227.3" style="fill:none;"/>
			
				<rect x="1515.7" y="200.3" transform="matrix(0.7071 -0.7071 0.7071 0.7071 292.5707 1138.6077)" width="10" height="31.7" style="fill:#383A48;"/>
		</g>
		<g>
			<line x1="1509.5" y1="227.3" x2="1531.9" y2="204.9" style="fill:none;"/>
			
				<rect x="1504.8" y="211.1" transform="matrix(0.7071 -0.7071 0.7071 0.7071 292.5501 1138.5577)" width="31.7" height="10" style="fill:#383A48;"/>
		</g>
	</g>
	<g>
		<g>
			<line x1="358.9" y1="846.8" x2="381.3" y2="869.2" style="fill:none;"/>
			
				<rect x="365.1" y="842.1" transform="matrix(0.7071 -0.7071 0.7071 0.7071 -498.2659 512.9607)" width="10" height="31.7" style="fill:#383A48;"/>
		</g>
		<g>
			<line x1="358.9" y1="869.2" x2="381.3" y2="846.8" style="fill:none;"/>
			
				<rect x="354.2" y="853" transform="matrix(0.7071 -0.7071 0.7071 0.7071 -498.3159 512.9814)" width="31.7" height="10" style="fill:#383A48;"/>
		</g>
	</g>
</g>
</svg>
