<?xml version="1.0" encoding="utf-8"?>
<!-- Generator: Adobe Illustrator 22.0.1, SVG Export Plug-In . SVG Version: 6.00 Build 0)  -->
<svg version="1.1" id="Layer_1" xmlns="http://www.w3.org/2000/svg" xmlns:xlink="http://www.w3.org/1999/xlink" x="0px" y="0px" viewBox="0 0 1920 1080" style="enable-background:new 0 0 1920 1080;" xml:space="preserve">

<rect y="0" width="1920" height="1080" style="fill:#AAC6FC;"/>
<g>
	<path d="M1494.5,144.5H1383h-111.5H1160h-111.5H936.7H825.2H713.6H602.1H490.6H379c-2.8,0-5,2.2-5,5V261v111.5V484
		v111.5V707v111.5V930c0,2.8,2.2,5,5,5h111.5H602h111.5H825h111.5H1048h111.5H1271h111.5H1494c2.8,0,5-2.2,5-5V818.7V707.2V595.6
		V484.1V372.6V261V149.5C1499.5,146.7,1497.2,144.5,1494.5,144.5z M1489.5,367.6H1388V266h101.5V367.6z M1489.5,479.1H1388V377.6
		h101.5V479.1z M1489.5,590.6H1388V489.1h101.5V590.6z M1489.5,702.2H1388V600.6h101.5V702.2z M384,600.6h101.5v101.5H384V600.6z
		 M384,489.1h101.5v101.5H384V489.1z M384,377.6h101.5v101.5H384V377.6z M495.6,489.1h101.5v101.5H495.6V489.1z M607.1,489.1h101.5
		v101.5H607.1V489.1z M718.6,489.1h101.5v101.5H718.6V489.1z M830.2,489.1h101.5v101.5H830.2V489.1z M941.7,489.1h101.5v101.5H941.7
		V489.1z M1053.3,489.1h101.5v101.5h-101.5V489.1z M1164.8,489.1h101.5v101.5h-101.5V489.1z M1276.4,489.1h101.5v101.5h-101.5V489.1
		z M1377.9,479.1h-101.5V377.6h101.5V479.1z M1266.4,479.1h-101.5V377.6h101.5V479.1z M1154.8,479.1h-101.5V377.6h101.5V479.1z
		 M1043.3,479.1H941.7V377.6h101.5v101.5H1043.3z M931.7,479.1H830.2V377.6h101.5V479.1z M820.2,479.1H718.6V377.6h101.5v101.5
		H820.2z M708.6,479.1H607.1V377.6h101.5V479.1z M597.1,479.1H495.6V377.6h101.5V479.1z M495.6,600.6h101.5v101.5H495.6V600.6z
		 M607.1,600.6h101.5v101.5H607.1V600.6z M718.6,600.6h101.5v101.5H718.6V600.6z M830.2,600.6h101.5v101.5H830.2V600.6z
		 M941.7,600.6h101.5v101.5H941.7V600.6z M1053.3,600.6h101.5v101.5h-101.5V600.6z M1164.8,600.6h101.5v101.5h-101.5V600.6z
		 M1276.4,600.6h101.5v101.5h-101.5V600.6z M1377.9,367.6h-101.5V266h101.5V367.6z M1266.4,367.6h-101.5V266h101.5V367.6z
		 M1154.8,367.6h-101.5V266h101.5V367.6z M1043.3,367.6H941.7V266h101.5v101.6H1043.3z M931.7,367.6H830.2V266h101.5V367.6z
		 M820.2,367.6H718.6V266h101.5v101.6H820.2z M708.6,367.6H607.1V266h101.5V367.6z M597.1,367.6H495.6V266h101.5V367.6z
		 M485.6,367.6H384V266h101.5v101.6H485.6z M384,712.2h101.5v101.5H384V712.2z M495.6,712.2h101.5v101.5H495.6V712.2z M607.1,712.2
		h101.5v101.5H607.1V712.2z M718.6,712.2h101.5v101.5H718.6V712.2z M830.2,712.2h101.5v101.5H830.2V712.2z M941.7,712.2h101.5v101.5
		H941.7V712.2z M1053.3,712.2h101.5v101.5h-101.5V712.2z M1164.8,712.2h101.5v101.5h-101.5V712.2z M1276.4,712.2h101.5v101.5h-101.5
		V712.2z M1387.9,712.2h101.5v101.5h-101.5V712.2z M1489.5,256H1388V154.5h101.5V256z M1377.9,256h-101.5V154.5h101.5V256z
		 M1266.4,256h-101.5V154.5h101.5V256z M1154.8,256h-101.5V154.5h101.5V256z M1043.3,256H941.7V154.5h101.5V256H1043.3z M931.7,256
		H830.2V154.5h101.5V256z M820.2,256H718.6V154.5h101.5V256H820.2z M708.6,256H607.1V154.5h101.5V256z M597.1,256H495.6V154.5h101.5
		V256z M384,154.5h101.5V256H384V154.5z M384,823.7h101.5v101.5H384V823.7z M495.6,823.7h101.5v101.5H495.6V823.7z M607.1,823.7
		h101.5v101.5H607.1V823.7z M718.6,823.7h101.5v101.5H718.6V823.7z M830.2,823.7h101.5v101.5H830.2V823.7z M941.7,823.7h101.5v101.5
		H941.7V823.7z M1053.3,823.7h101.5v101.5h-101.5V823.7z M1164.8,823.7h101.5v101.5h-101.5V823.7z M1276.4,823.7h101.5v101.5h-101.5
		V823.7z M1489.5,925.3H1388V823.7h101.5V925.3z" style="fill:#F3F6E6;"/>
	<path d="M1655,145h-606.7c-2.5,0-4.6,1.9-5,4.4c-0.3,2.5,1.3,4.8,3.7,5.5c45,11.8,73.7,47.7,107,89.4
		c38.4,48,81.8,102.4,161.1,130.9c109.2,39.3,129.8,119.3,151.5,204.1c6.7,26,13.6,52.9,23.2,78.9c16.6,44.8,46.2,70.1,74.8,94.6
		c21.1,18.1,42.9,36.7,58.9,63.1c17.9,29.6,26.5,66.3,26.5,112.4c0,2.8,2.2,5,5,5s5-2.2,5-5V150C1660,147.3,1657.7,145,1655,145z" style="fill:#F3F6E6;"/>
	<g>
		<g>
			<rect x="265" y="559.8" width="448.6" height="370.7" style="fill:#F3F6E6;"/>
			<path d="M713.6,935.5H265c-2.8,0-5-2.2-5-5V559.8c0-2.8,2.2-5,5-5h448.6c2.8,0,5,2.2,5,5v370.7
				C718.6,933.3,716.4,935.5,713.6,935.5z M270,925.5h438.6V564.8H270V925.5z" style="fill:#383A48;"/>
		</g>
		<g>
			<rect x="265" y="559.8" width="446.9" height="96.6" style="fill:#E0719E;"/>
			<path d="M711.9,661.4H265c-2.8,0-5-2.2-5-5v-96.6c0-2.8,2.2-5,5-5h446.9c2.8,0,5,2.2,5,5v96.6
				C716.9,659.2,714.7,661.4,711.9,661.4z M270,651.4h436.9v-86.6H270V651.4z" style="fill:#383A48;"/>
		</g>
		<g>
			<g>
				<circle cx="316.6" cy="608.3" r="14.8" style="fill:#E0719E;"/>
				<path d="M316.6,628.1c-10.9,0-19.8-8.9-19.8-19.8s8.9-19.8,19.8-19.8s19.8,8.9,19.8,19.8S327.5,628.1,316.6,628.1z
					 M316.6,598.6c-5.4,0-9.8,4.4-9.8,9.8s4.4,9.8,9.8,9.8s9.8-4.4,9.8-9.8S322,598.6,316.6,598.6z" style="fill:#383A48;"/>
			</g>
			<g>
				<circle cx="361.8" cy="608.3" r="14.8" style="fill:#F6E049;"/>
				<path d="M361.8,628.1c-10.9,0-19.8-8.9-19.8-19.8s8.9-19.8,19.8-19.8s19.8,8.9,19.8,19.8S372.7,628.1,361.8,628.1z
					 M361.8,598.6c-5.4,0-9.8,4.4-9.8,9.8s4.4,9.8,9.8,9.8s9.8-4.4,9.8-9.8S367.1,598.6,361.8,598.6z" style="fill:#383A48;"/>
			</g>
			<g>
				<circle cx="406.9" cy="608.3" r="14.8" style="fill:#7FD6C2;"/>
				<path d="M406.9,628.1c-10.9,0-19.8-8.9-19.8-19.8s8.9-19.8,19.8-19.8s19.8,8.9,19.8,19.8S417.8,628.1,406.9,628.1z
					 M406.9,598.6c-5.4,0-9.8,4.4-9.8,9.8s4.4,9.8,9.8,9.8s9.8-4.4,9.8-9.8S412.3,598.6,406.9,598.6z" style="fill:#383A48;"/>
			</g>
		</g>
		<g>
			<g>
				<circle cx="385.8" cy="795.5" r="93" style="fill:#AAC6FC;"/>
			</g>
			<g>
				<path d="M330.3,844.3c0-31.2,25.3-56.4,56.4-56.4s56.4,25.3,56.4,56.4" style="fill:#F3F6E6;"/>
				<path d="M448.1,844.3h-10c0-28.4-23.1-51.4-51.4-51.4s-51.4,23.1-51.4,51.4h-10c0-33.9,27.6-61.4,61.4-61.4
					S448.1,810.5,448.1,844.3z" style="fill:#383A48;"/>
			</g>
			<g>
				<path d="M386.7,787.9L386.7,787.9c-15.3,0-27.6-12.4-27.6-27.6V751c0-15.3,12.4-27.6,27.6-27.6l0,0
					c15.3,0,27.6,12.4,27.6,27.6v9.3C414.3,775.5,401.9,787.9,386.7,787.9z" style="fill:#F6E049;"/>
				<path d="M386.7,792.9c-18,0-32.6-14.6-32.6-32.6V751c0-18,14.6-32.6,32.6-32.6s32.6,14.6,32.6,32.6v9.3
					C419.3,778.3,404.7,792.9,386.7,792.9z M386.7,728.4c-12.5,0-22.6,10.1-22.6,22.6v9.3c0,12.5,10.1,22.6,22.6,22.6
					s22.6-10.1,22.6-22.6V751C409.3,738.5,399.2,728.4,386.7,728.4z" style="fill:#383A48;"/>
			</g>
		</g>
		<g>
			<g>
				<circle cx="602.1" cy="795.5" r="93" style="fill:#AAC6FC;"/>
			</g>
			<g>
				<path d="M546.5,844.3c0-31.2,25.3-56.4,56.4-56.4c31.2,0,56.4,25.3,56.4,56.4" style="fill:#E0719E;"/>
				<path d="M659.4,849.3c-2.8,0-5-2.2-5-5c0-28.4-23.1-51.4-51.4-51.4s-51.4,23.1-51.4,51.4c0,2.8-2.2,5-5,5
					s-5-2.2-5-5c0-33.9,27.6-61.4,61.4-61.4s61.4,27.6,61.4,61.4C664.4,847.1,662.1,849.3,659.4,849.3z" style="fill:#383A48;"/>
			</g>
			<g>
				<path d="M603,787.9L603,787.9c-15.3,0-27.6-12.4-27.6-27.6V751c0-15.3,12.4-27.6,27.6-27.6l0,0
					c15.3,0,27.6,12.4,27.6,27.6v9.3C630.6,775.5,618.2,787.9,603,787.9z" style="fill:#F6E049;"/>
				<path d="M603,792.9c-18,0-32.6-14.6-32.6-32.6V751c0-18,14.6-32.6,32.6-32.6s32.6,14.6,32.6,32.6v9.3
					C635.6,778.3,620.9,792.9,603,792.9z M603,728.4c-12.5,0-22.6,10.1-22.6,22.6v9.3c0,12.5,10.1,22.6,22.6,22.6
					s22.6-10.1,22.6-22.6V751C625.6,738.5,615.4,728.4,603,728.4z" style="fill:#383A48;"/>
			</g>
		</g>
	</g>
	<path d="M713.6,554.8H532.5c-1.9,0-3.6,1-4.4,2.7s-0.7,3.7,0.4,5.2c7.2,10.1,15.7,19.3,25.2,27.4l155.8,131.2
		c0.9,0.8,2,1.2,3.2,1.2c0.2,0,0.4,0,0.7,0c1.4-0.2,2.6-1,3.4-2.1l0.9-1.3c0.6-0.8,0.9-1.8,0.9-2.8V559.8
		C718.6,557.1,716.4,554.8,713.6,554.8z" style="fill:#383A48;"/>
	<g>
		<g>
			<g>
				<path d="M1196,671.5l155-134.3c58.8-49.6,67.4-137,19.4-197.1l0,0c-48.9-61.2-138.2-71.1-199.4-22.2l-162.1,131.9
					L1196,671.5z" style="fill:#AAC6FC;"/>
				<path d="M1196,676.5c-0.1,0-0.3,0-0.4,0c-1.3-0.1-2.6-0.7-3.4-1.8L1005,453.1c-0.9-1-1.3-2.4-1.2-3.7
					c0.1-1.3,0.8-2.6,1.8-3.4l162.1-131.9c63.3-50.6,155.9-40.3,206.5,22.9c24.1,30.1,35.2,67.8,31.5,106.1s-22.1,73.1-51.5,98
					l-154.9,134.2C1198.4,676.1,1197.2,676.5,1196,676.5z M1015.9,450.5l180.7,213.9l151.1-131c27.5-23.2,44.6-55.6,48.1-91.3
					s-6.9-70.8-29.3-98.9c-22.8-28.6-55.4-46.5-91.8-50.5c-36.3-4-72.1,6.3-100.6,29.2L1015.9,450.5z" style="fill:#383A48;"/>
			</g>
			<g>
				<g>
					<g>
						<g>
							<circle cx="1381.6" cy="368.7" r="5" style="fill:#383A48;"/>
						</g>
					</g>
					<g>
						<g>
							<circle cx="1381.6" cy="393.4" r="5" style="fill:#383A48;"/>
						</g>
					</g>
					<g>
						<g>
							<circle cx="1381.6" cy="418.1" r="5" style="fill:#383A48;"/>
						</g>
					</g>
					<g>
						<g>
							<circle cx="1381.6" cy="442.7" r="5" style="fill:#383A48;"/>
						</g>
					</g>
					<g>
						<g>
							<circle cx="1381.6" cy="467.4" r="5" style="fill:#383A48;"/>
						</g>
					</g>
					<g>
						<g>
							<circle cx="1381.6" cy="492.1" r="5" style="fill:#383A48;"/>
						</g>
					</g>
					<g>
						<g>
							<circle cx="1356.9" cy="344.1" r="5" style="fill:#383A48;"/>
						</g>
					</g>
					<g>
						<g>
							<circle cx="1356.9" cy="368.7" r="5" style="fill:#383A48;"/>
						</g>
					</g>
					<g>
						<g>
							<circle cx="1356.9" cy="393.4" r="5" style="fill:#383A48;"/>
						</g>
					</g>
					<g>
						<g>
							<circle cx="1356.9" cy="418.1" r="5" style="fill:#383A48;"/>
						</g>
					</g>
					<g>
						<g>
							<circle cx="1356.9" cy="442.7" r="5" style="fill:#383A48;"/>
						</g>
					</g>
					<g>
						<g>
							<circle cx="1356.9" cy="467.4" r="5" style="fill:#383A48;"/>
						</g>
					</g>
					<g>
						<g>
							<circle cx="1356.9" cy="492.1" r="5" style="fill:#383A48;"/>
						</g>
					</g>
					<g>
						<g>
							<circle cx="1356.9" cy="516.7" r="5" style="fill:#383A48;"/>
						</g>
					</g>
					<g>
						<g>
							<circle cx="1332.3" cy="319.4" r="5" style="fill:#383A48;"/>
						</g>
					</g>
					<g>
						<g>
							<circle cx="1332.3" cy="344.1" r="5" style="fill:#383A48;"/>
						</g>
					</g>
					<g>
						<g>
							<circle cx="1332.3" cy="368.7" r="5" style="fill:#383A48;"/>
						</g>
					</g>
					<g>
						<g>
							<circle cx="1332.3" cy="393.4" r="5" style="fill:#383A48;"/>
						</g>
					</g>
					<g>
						<g>
							<circle cx="1332.3" cy="418.1" r="5" style="fill:#383A48;"/>
						</g>
					</g>
					<g>
						<g>
							<circle cx="1332.3" cy="442.7" r="5" style="fill:#383A48;"/>
						</g>
					</g>
					<g>
						<g>
							<circle cx="1332.3" cy="467.4" r="5" style="fill:#383A48;"/>
						</g>
					</g>
					<g>
						<g>
							<circle cx="1332.3" cy="492.1" r="5" style="fill:#383A48;"/>
						</g>
					</g>
					<g>
						<g>
							<circle cx="1332.3" cy="516.7" r="5" style="fill:#383A48;"/>
						</g>
					</g>
					<g>
						<g>
							<circle cx="1332.3" cy="541.4" r="5" style="fill:#383A48;"/>
						</g>
					</g>
					<g>
						<g>
							<circle cx="1307.6" cy="319.4" r="5" style="fill:#383A48;"/>
						</g>
					</g>
					<g>
						<g>
							<circle cx="1307.6" cy="344.1" r="5" style="fill:#383A48;"/>
						</g>
					</g>
					<g>
						<g>
							<circle cx="1307.6" cy="368.7" r="5" style="fill:#383A48;"/>
						</g>
					</g>
					<g>
						<g>
							<circle cx="1307.6" cy="393.4" r="5" style="fill:#383A48;"/>
						</g>
					</g>
					<g>
						<g>
							<circle cx="1307.6" cy="418.1" r="5" style="fill:#383A48;"/>
						</g>
					</g>
					<g>
						<g>
							<circle cx="1307.6" cy="442.7" r="5" style="fill:#383A48;"/>
						</g>
					</g>
					<g>
						<g>
							<circle cx="1307.6" cy="467.4" r="5" style="fill:#383A48;"/>
						</g>
					</g>
					<g>
						<g>
							<circle cx="1307.6" cy="492.1" r="5" style="fill:#383A48;"/>
						</g>
					</g>
					<g>
						<g>
							<circle cx="1307.6" cy="516.7" r="5" style="fill:#383A48;"/>
						</g>
					</g>
					<g>
						<g>
							<circle cx="1307.6" cy="541.4" r="5" style="fill:#383A48;"/>
						</g>
					</g>
					<g>
						<g>
							<circle cx="1282.9" cy="294.7" r="5" style="fill:#383A48;"/>
						</g>
					</g>
					<g>
						<g>
							<circle cx="1282.9" cy="319.4" r="5" style="fill:#383A48;"/>
						</g>
					</g>
					<g>
						<g>
							<circle cx="1282.9" cy="344.1" r="5" style="fill:#383A48;"/>
						</g>
					</g>
					<g>
						<g>
							<circle cx="1282.9" cy="368.7" r="5" style="fill:#383A48;"/>
						</g>
					</g>
					<g>
						<g>
							<circle cx="1282.9" cy="393.4" r="5" style="fill:#383A48;"/>
						</g>
					</g>
					<g>
						<g>
							<circle cx="1282.9" cy="418.1" r="5" style="fill:#383A48;"/>
						</g>
					</g>
					<g>
						<g>
							<circle cx="1282.9" cy="442.7" r="5" style="fill:#383A48;"/>
						</g>
					</g>
					<g>
						<g>
							<circle cx="1282.9" cy="467.4" r="5" style="fill:#383A48;"/>
						</g>
					</g>
					<g>
						<g>
							<circle cx="1282.9" cy="492.1" r="5" style="fill:#383A48;"/>
						</g>
					</g>
					<g>
						<g>
							<circle cx="1282.9" cy="516.7" r="5" style="fill:#383A48;"/>
						</g>
					</g>
					<g>
						<g>
							<circle cx="1282.9" cy="541.4" r="5" style="fill:#383A48;"/>
						</g>
					</g>
					<g>
						<g>
							<circle cx="1282.9" cy="566.1" r="5" style="fill:#383A48;"/>
						</g>
					</g>
					<g>
						<g>
							<circle cx="1258.3" cy="294.7" r="5" style="fill:#383A48;"/>
						</g>
					</g>
					<g>
						<g>
							<circle cx="1258.3" cy="319.4" r="5" style="fill:#383A48;"/>
						</g>
					</g>
					<g>
						<g>
							<circle cx="1258.3" cy="344.1" r="5" style="fill:#383A48;"/>
						</g>
					</g>
					<g>
						<g>
							<circle cx="1258.3" cy="368.7" r="5" style="fill:#383A48;"/>
						</g>
					</g>
					<g>
						<g>
							<circle cx="1258.3" cy="393.4" r="5" style="fill:#383A48;"/>
						</g>
					</g>
					<g>
						<g>
							<circle cx="1258.3" cy="418.1" r="5" style="fill:#383A48;"/>
						</g>
					</g>
					<g>
						<g>
							<circle cx="1258.3" cy="442.7" r="5" style="fill:#383A48;"/>
						</g>
					</g>
					<g>
						<g>
							<circle cx="1258.3" cy="467.4" r="5" style="fill:#383A48;"/>
						</g>
					</g>
					<g>
						<g>
							<circle cx="1258.3" cy="492.1" r="5" style="fill:#383A48;"/>
						</g>
					</g>
					<g>
						<g>
							<circle cx="1258.3" cy="516.7" r="5" style="fill:#383A48;"/>
						</g>
					</g>
					<g>
						<g>
							<circle cx="1258.3" cy="541.4" r="5" style="fill:#383A48;"/>
						</g>
					</g>
					<g>
						<g>
							<circle cx="1258.3" cy="566.1" r="5" style="fill:#383A48;"/>
						</g>
					</g>
					<g>
						<g>
							<circle cx="1258.3" cy="590.7" r="5" style="fill:#383A48;"/>
						</g>
					</g>
					<g>
						<g>
							<circle cx="1233.6" cy="294.7" r="5" style="fill:#383A48;"/>
						</g>
					</g>
					<g>
						<g>
							<circle cx="1233.6" cy="319.4" r="5" style="fill:#383A48;"/>
						</g>
					</g>
					<g>
						<g>
							<circle cx="1233.6" cy="344.1" r="5" style="fill:#383A48;"/>
						</g>
					</g>
					<g>
						<g>
							<circle cx="1233.6" cy="368.7" r="5" style="fill:#383A48;"/>
						</g>
					</g>
					<g>
						<g>
							<circle cx="1233.6" cy="393.4" r="5" style="fill:#383A48;"/>
						</g>
					</g>
					<g>
						<g>
							<circle cx="1233.6" cy="418.1" r="5" style="fill:#383A48;"/>
						</g>
					</g>
					<g>
						<g>
							<circle cx="1233.6" cy="442.7" r="5" style="fill:#383A48;"/>
						</g>
					</g>
					<g>
						<g>
							<circle cx="1233.6" cy="467.4" r="5" style="fill:#383A48;"/>
						</g>
					</g>
					<g>
						<g>
							<circle cx="1233.6" cy="492.1" r="5" style="fill:#383A48;"/>
						</g>
					</g>
					<g>
						<g>
							<circle cx="1233.6" cy="516.7" r="5" style="fill:#383A48;"/>
						</g>
					</g>
					<g>
						<g>
							<circle cx="1233.6" cy="541.4" r="5" style="fill:#383A48;"/>
						</g>
					</g>
					<g>
						<g>
							<circle cx="1233.6" cy="566.1" r="5" style="fill:#383A48;"/>
						</g>
					</g>
					<g>
						<g>
							<circle cx="1233.6" cy="590.7" r="5" style="fill:#383A48;"/>
						</g>
					</g>
					<g>
						<g>
							<circle cx="1233.6" cy="615.4" r="5" style="fill:#383A48;"/>
						</g>
					</g>
					<g>
						<g>
							<circle cx="1208.9" cy="319.4" r="5" style="fill:#383A48;"/>
						</g>
					</g>
					<g>
						<g>
							<circle cx="1208.9" cy="344.1" r="5" style="fill:#383A48;"/>
						</g>
					</g>
					<g>
						<g>
							<circle cx="1208.9" cy="368.7" r="5" style="fill:#383A48;"/>
						</g>
					</g>
					<g>
						<g>
							<circle cx="1208.9" cy="393.4" r="5" style="fill:#383A48;"/>
						</g>
					</g>
					<g>
						<g>
							<circle cx="1208.9" cy="418.1" r="5" style="fill:#383A48;"/>
						</g>
					</g>
					<g>
						<g>
							<circle cx="1208.9" cy="442.7" r="5" style="fill:#383A48;"/>
						</g>
					</g>
					<g>
						<g>
							<circle cx="1208.9" cy="467.4" r="5" style="fill:#383A48;"/>
						</g>
					</g>
					<g>
						<g>
							<circle cx="1208.9" cy="492.1" r="5" style="fill:#383A48;"/>
						</g>
					</g>
					<g>
						<g>
							<circle cx="1208.9" cy="516.7" r="5" style="fill:#383A48;"/>
						</g>
					</g>
					<g>
						<g>
							<circle cx="1208.9" cy="541.4" r="5" style="fill:#383A48;"/>
						</g>
					</g>
					<g>
						<g>
							<circle cx="1208.9" cy="566.1" r="5" style="fill:#383A48;"/>
						</g>
					</g>
					<g>
						<g>
							<circle cx="1208.9" cy="590.7" r="5" style="fill:#383A48;"/>
						</g>
					</g>
					<g>
						<g>
							<circle cx="1208.9" cy="615.4" r="5" style="fill:#383A48;"/>
						</g>
					</g>
					<g>
						<g>
							<circle cx="1208.9" cy="640.1" r="5" style="fill:#383A48;"/>
						</g>
					</g>
					<g>
						<g>
							<circle cx="1184.3" cy="319.4" r="5" style="fill:#383A48;"/>
						</g>
					</g>
					<g>
						<g>
							<circle cx="1184.3" cy="344.1" r="5" style="fill:#383A48;"/>
						</g>
					</g>
					<g>
						<g>
							<circle cx="1184.3" cy="368.7" r="5" style="fill:#383A48;"/>
						</g>
					</g>
					<g>
						<g>
							<circle cx="1184.3" cy="393.4" r="5" style="fill:#383A48;"/>
						</g>
					</g>
					<g>
						<g>
							<circle cx="1184.3" cy="418.1" r="5" style="fill:#383A48;"/>
						</g>
					</g>
					<g>
						<g>
							<circle cx="1184.3" cy="442.7" r="5" style="fill:#383A48;"/>
						</g>
					</g>
					<g>
						<g>
							<circle cx="1184.3" cy="467.4" r="5" style="fill:#383A48;"/>
						</g>
					</g>
					<g>
						<g>
							<circle cx="1184.3" cy="492.1" r="5" style="fill:#383A48;"/>
						</g>
					</g>
					<g>
						<g>
							<circle cx="1184.3" cy="516.7" r="5" style="fill:#383A48;"/>
						</g>
					</g>
					<g>
						<g>
							<circle cx="1184.3" cy="541.4" r="5" style="fill:#383A48;"/>
						</g>
					</g>
					<g>
						<g>
							<circle cx="1184.3" cy="566.1" r="5" style="fill:#383A48;"/>
						</g>
					</g>
					<g>
						<g>
							<circle cx="1184.3" cy="590.7" r="5" style="fill:#383A48;"/>
						</g>
					</g>
					<g>
						<g>
							<circle cx="1184.3" cy="615.4" r="5" style="fill:#383A48;"/>
						</g>
					</g>
					<g>
						<g>
							<circle cx="1184.3" cy="640.1" r="5" style="fill:#383A48;"/>
						</g>
					</g>
					<g>
						<g>
							<circle cx="1184.3" cy="664.7" r="5" style="fill:#383A48;"/>
						</g>
					</g>
					<g>
						<g>
							<circle cx="1159.6" cy="344.1" r="5" style="fill:#383A48;"/>
						</g>
					</g>
					<g>
						<g>
							<circle cx="1159.6" cy="368.7" r="5" style="fill:#383A48;"/>
						</g>
					</g>
					<g>
						<g>
							<circle cx="1159.6" cy="393.4" r="5" style="fill:#383A48;"/>
						</g>
					</g>
					<g>
						<g>
							<circle cx="1159.6" cy="418.1" r="5" style="fill:#383A48;"/>
						</g>
					</g>
					<g>
						<g>
							<circle cx="1159.6" cy="442.7" r="5" style="fill:#383A48;"/>
						</g>
					</g>
					<g>
						<g>
							<circle cx="1159.6" cy="467.4" r="5" style="fill:#383A48;"/>
						</g>
					</g>
					<g>
						<g>
							<circle cx="1159.6" cy="492.1" r="5" style="fill:#383A48;"/>
						</g>
					</g>
					<g>
						<g>
							<circle cx="1159.6" cy="516.7" r="5" style="fill:#383A48;"/>
						</g>
					</g>
					<g>
						<g>
							<circle cx="1159.6" cy="541.4" r="5" style="fill:#383A48;"/>
						</g>
					</g>
					<g>
						<g>
							<circle cx="1159.6" cy="566.1" r="5" style="fill:#383A48;"/>
						</g>
					</g>
					<g>
						<g>
							<circle cx="1159.6" cy="590.7" r="5" style="fill:#383A48;"/>
						</g>
					</g>
					<g>
						<g>
							<circle cx="1159.6" cy="615.4" r="5" style="fill:#383A48;"/>
						</g>
					</g>
					<g>
						<g>
							<circle cx="1159.6" cy="640.1" r="5" style="fill:#383A48;"/>
						</g>
					</g>
					<g>
						<g>
							<circle cx="1159.6" cy="664.7" r="5" style="fill:#383A48;"/>
						</g>
					</g>
					<g>
						<g>
							<circle cx="1134.9" cy="368.7" r="5" style="fill:#383A48;"/>
						</g>
					</g>
					<g>
						<g>
							<circle cx="1134.9" cy="393.4" r="5" style="fill:#383A48;"/>
						</g>
					</g>
					<g>
						<g>
							<circle cx="1134.9" cy="418.1" r="5" style="fill:#383A48;"/>
						</g>
					</g>
					<g>
						<g>
							<circle cx="1134.9" cy="442.7" r="5" style="fill:#383A48;"/>
						</g>
					</g>
					<g>
						<g>
							<circle cx="1134.9" cy="467.4" r="5" style="fill:#383A48;"/>
						</g>
					</g>
					<g>
						<g>
							<circle cx="1134.9" cy="492.1" r="5" style="fill:#383A48;"/>
						</g>
					</g>
					<g>
						<g>
							<circle cx="1134.9" cy="516.7" r="5" style="fill:#383A48;"/>
						</g>
					</g>
					<g>
						<g>
							<circle cx="1134.9" cy="541.4" r="5" style="fill:#383A48;"/>
						</g>
					</g>
					<g>
						<g>
							<circle cx="1134.9" cy="566.1" r="5" style="fill:#383A48;"/>
						</g>
					</g>
					<g>
						<g>
							<circle cx="1134.9" cy="590.7" r="5" style="fill:#383A48;"/>
						</g>
					</g>
					<g>
						<g>
							<circle cx="1134.9" cy="615.4" r="5" style="fill:#383A48;"/>
						</g>
					</g>
					<g>
						<g>
							<circle cx="1134.9" cy="640.1" r="5" style="fill:#383A48;"/>
						</g>
					</g>
					<g>
						<g>
							<circle cx="1134.9" cy="664.7" r="5" style="fill:#383A48;"/>
						</g>
					</g>
					<g>
						<g>
							<circle cx="1110.3" cy="393.4" r="5" style="fill:#383A48;"/>
						</g>
					</g>
					<g>
						<g>
							<circle cx="1110.3" cy="418.1" r="5" style="fill:#383A48;"/>
						</g>
					</g>
					<g>
						<g>
							<circle cx="1110.3" cy="442.7" r="5" style="fill:#383A48;"/>
						</g>
					</g>
					<g>
						<g>
							<circle cx="1110.3" cy="467.4" r="5" style="fill:#383A48;"/>
						</g>
					</g>
					<g>
						<g>
							<circle cx="1110.3" cy="492.1" r="5" style="fill:#383A48;"/>
						</g>
					</g>
					<g>
						<g>
							<circle cx="1110.3" cy="516.7" r="5" style="fill:#383A48;"/>
						</g>
					</g>
					<g>
						<g>
							<circle cx="1110.3" cy="541.4" r="5" style="fill:#383A48;"/>
						</g>
					</g>
					<g>
						<g>
							<circle cx="1110.3" cy="566.1" r="5" style="fill:#383A48;"/>
						</g>
					</g>
					<g>
						<g>
							<circle cx="1110.3" cy="590.7" r="5" style="fill:#383A48;"/>
						</g>
					</g>
					<g>
						<g>
							<circle cx="1110.3" cy="615.4" r="5" style="fill:#383A48;"/>
						</g>
					</g>
					<g>
						<g>
							<circle cx="1110.3" cy="640.1" r="5" style="fill:#383A48;"/>
						</g>
					</g>
					<g>
						<g>
							<circle cx="1110.3" cy="664.7" r="5" style="fill:#383A48;"/>
						</g>
					</g>
					<g>
						<g>
							<circle cx="1085.6" cy="393.4" r="5" style="fill:#383A48;"/>
						</g>
					</g>
					<g>
						<g>
							<circle cx="1085.6" cy="418.1" r="5" style="fill:#383A48;"/>
						</g>
					</g>
					<g>
						<g>
							<circle cx="1085.6" cy="442.7" r="5" style="fill:#383A48;"/>
						</g>
					</g>
					<g>
						<g>
							<circle cx="1085.6" cy="467.4" r="5" style="fill:#383A48;"/>
						</g>
					</g>
					<g>
						<g>
							<circle cx="1085.6" cy="492.1" r="5" style="fill:#383A48;"/>
						</g>
					</g>
					<g>
						<g>
							<circle cx="1085.6" cy="516.7" r="5" style="fill:#383A48;"/>
						</g>
					</g>
					<g>
						<g>
							<circle cx="1085.6" cy="541.4" r="5" style="fill:#383A48;"/>
						</g>
					</g>
					<g>
						<g>
							<circle cx="1085.6" cy="566.1" r="5" style="fill:#383A48;"/>
						</g>
					</g>
					<g>
						<g>
							<circle cx="1085.6" cy="590.7" r="5" style="fill:#383A48;"/>
						</g>
					</g>
					<g>
						<g>
							<circle cx="1085.6" cy="615.4" r="5" style="fill:#383A48;"/>
						</g>
					</g>
					<g>
						<g>
							<circle cx="1085.6" cy="640.1" r="5" style="fill:#383A48;"/>
						</g>
					</g>
					<g>
						<g>
							<circle cx="1085.6" cy="664.7" r="5" style="fill:#383A48;"/>
						</g>
					</g>
				</g>
			</g>
			<g>
				<path d="M1109.7,745l154.9-134.3c58.8-49.6,64.9-139,16.8-199l0,0c-48.9-61.2-138.2-71.1-199.4-22.2l-162.2,132
					L1109.7,745z" style="fill:#F6E049;"/>
				<path d="M1109.7,750c-0.1,0-0.3,0-0.4,0c-1.3-0.1-2.6-0.7-3.4-1.7L916,524.7c-0.9-1-1.3-2.4-1.2-3.7
					s0.8-2.6,1.8-3.4l162.1-131.9c63.3-50.6,155.9-40.3,206.5,22.9c50.4,63,42.6,155.4-17.5,206l-154.9,134.2
					C1112,749.6,1110.9,750,1109.7,750z M927,522.1l183.2,215.8l151.1-131c56-47.2,63.2-133.3,16.2-192.1
					c-47.1-58.9-133.5-68.5-192.4-21.4L927,522.1z" style="fill:#383A48;"/>
			</g>
			<g>
				<g>
					<g>
						<path d="M928.6,505l-14,12.8c-32.5,29.5-34.9,80-5.3,112.4l96.8,106.5c29.5,32.5,80,34.9,112.4,5.3l94.6-86.1" style="fill:#F6E049;"/>
						<path d="M1065,767.7c-23,0-46-9.3-62.6-27.6l-96.8-106.5c-15.2-16.7-23-38.3-21.9-60.9
							c1.1-22.6,10.9-43.4,27.5-58.6l14-12.8c2-1.9,5.2-1.7,7.1,0.3c1.9,2,1.7,5.2-0.3,7.1l-14,12.8c-30.4,27.7-32.7,75-5,105.4
							l96.8,106.5c27.7,30.4,75,32.7,105.4,5l94.6-86.1c2-1.9,5.2-1.7,7.1,0.3s1.7,5.2-0.3,7.1l-94.6,86.1
							C1105.7,760.4,1085.3,767.7,1065,767.7z" style="fill:#383A48;"/>
					</g>
				</g>
				<g>
					<g>
						<path d="M1064.4,635c-14.9-16.3-39.6-18-55.2-3.8L841.9,783.3c-15.7,14.2-16.3,39-1.4,55.4
							c14.9,16.3,39.6,18,55.2,3.8L1063,690.4C1078.6,676.1,1079.3,651.3,1064.4,635z" style="fill:#F6E049;"/>
						<path d="M870.5,857.1c-12.3,0-24.7-5.1-33.7-15.1c-16.7-18.3-15.9-46.3,1.8-62.4l167.2-152.1
							c8.6-7.8,19.8-11.7,31.6-10.9c11.7,0.8,22.6,6.1,30.7,15l0,0c16.7,18.3,15.9,46.3-1.8,62.4L899.1,846.2
							C891,853.5,880.8,857.1,870.5,857.1z M1034.4,626.6c-8.2,0-15.9,2.9-21.8,8.4L845.3,787c-13.6,12.4-14.1,34-1.1,48.3
							s34.6,15.8,48.2,3.5l167.2-152.1c13.6-12.4,14.1-34,1.1-48.3l0,0c-6.3-6.9-14.8-11.1-24-11.7
							C1036,626.6,1035.2,626.6,1034.4,626.6z" style="fill:#383A48;"/>
					</g>
				</g>
				<g>
					<g>
						<path d="M1013.3,578.8c-14.9-16.3-39-18.6-53.8-5.1L776.3,740.4c-14.9,13.5-14.9,37.7,0,54.1s39,18.6,53.8,5.1
							L1013.3,633C1028.1,619.4,1028.2,595.1,1013.3,578.8z" style="fill:#F6E049;"/>
						<path d="M806.8,813.4c-1.4,0-2.7-0.1-4.1-0.2c-11.4-1.1-22.1-6.5-30.1-15.3c-16.7-18.3-16.5-45.8,0.4-61.1
							L956.1,570c8.2-7.5,19.2-11,30.8-9.9c11.4,1.1,22.1,6.5,30.1,15.3l0,0c8,8.8,12.4,20,12.4,31.5c0,11.6-4.6,22.2-12.8,29.7
							L833.5,803.2C826.2,809.8,816.8,813.4,806.8,813.4z M982.8,569.9c-7.6,0-14.6,2.6-20,7.5L779.7,744.1
							c-12.8,11.7-12.7,32.7,0.3,47c6.3,7,14.8,11.3,23.7,12.1c8.7,0.8,17-1.8,23.1-7.4L1010,629.2c6.1-5.6,9.5-13.5,9.5-22.3
							c0-9-3.5-17.7-9.8-24.7l0,0c-6.3-7-14.8-11.3-23.7-12.1C984.9,570,983.8,569.9,982.8,569.9z" style="fill:#383A48;"/>
					</g>
				</g>
				<g>
					<g>
						<path d="M973.8,517.5c-14.9-16.3-40.1-17.5-56.5-2.7L742.8,673.6c-16.3,14.9-17.5,40.1-2.7,56.5
							s40.1,17.5,56.5,2.7L971.1,574C987.4,559.1,988.6,533.8,973.8,517.5z" style="fill:#F6E049;"/>
						<path d="M769.7,748.1c-12.2,0-24.4-4.9-33.3-14.7c-16.7-18.3-15.3-46.8,3-63.5l174.5-158.7
							c18.3-16.7,46.8-15.3,63.5,3c8.1,8.9,12.2,20.4,11.7,32.4c-0.6,12-5.8,23.1-14.7,31.1L800,736.4
							C791.4,744.2,780.5,748.1,769.7,748.1z M944.2,509.5c-8.4,0-16.8,3-23.5,9.1L746.2,677.3c-14.3,13-15.3,35.1-2.3,49.4
							c13,14.3,35.1,15.3,49.4,2.3l174.5-158.7c6.9-6.3,11-14.9,11.4-24.2s-2.8-18.3-9.1-25.2C963.2,513.3,953.7,509.5,944.2,509.5z
							" style="fill:#383A48;"/>
					</g>
				</g>
				<g>
					<path d="M922.7,621.3l93.6,102.9c28.6,31.4,77.6,33.4,109.3,4.6l63.3-57.6c60.4-55,65.3-148.3,11-208.1
						s-147.7-63.7-208.2-8.7L928.5,512C896.7,540.9,894.1,589.9,922.7,621.3z" style="fill:#F6E049;"/>
				</g>
			</g>
		</g>
		<g>
			<g>
				<g>
					<path d="M996.5,505.5l14,12.8c32.5,29.5,34.9,80,5.3,112.4L919,737.2c-29.5,32.5-80,34.9-112.4,5.3L712,656.4" style="fill:#F6E049;"/>
					<path d="M860,768.2c-21.1,0-41.1-7.7-56.8-22l-94.6-86.1c-2-1.9-2.2-5-0.3-7.1c1.9-2,5-2.2,7.1-0.3l94.6,86.1
						c14.7,13.4,33.8,20.2,53.7,19.3s38.3-9.6,51.7-24.3l96.8-106.5c27.7-30.4,25.4-77.7-5-105.4l-14-12.8c-2-1.9-2.2-5-0.3-7.1
						c1.9-2,5-2.2,7.1-0.3l14,12.8c34.5,31.4,37,85,5.7,119.5l-96.8,106.5c-15.2,16.7-36,26.5-58.6,27.5
						C862.8,768.1,861.4,768.2,860,768.2z" style="fill:#383A48;"/>
				</g>
			</g>
			<g>
				<g>
					<g>
						<path d="M775.7,663.5c14.1-15.5,37.5-17.2,52.2-3.9l157.2,143c14.7,13.4,15.2,36.8,1.1,52.3
							c-14.1,15.5-37.5,17.2-52.2,3.9l-157.2-143C762.1,702.5,761.6,679.1,775.7,663.5z" style="fill:#F6E049;"/>
					</g>
					<g>
						<path d="M988.5,799l-77.2-70.2c-1.9-1.8-4.9-1.7-6.8,0.1l0,0c-2.1,2-2,5.4,0.1,7.3l77.2,70.2
							c6.1,5.5,9.5,13.3,9.7,21.8c0.2,8.6-3,16.9-9,23.5s-14,10.5-22.5,11.1s-16.5-2.1-22.6-7.6l-157.2-143c-1.1-1-2.1-2.1-3-3.2
							l-16.5-15c1,9.6,5.3,18.8,12.8,25.6l157.2,143c7.4,6.7,16.8,10.3,26.9,10.3c1,0,2.1,0,3.1-0.1c11.1-0.8,21.5-5.9,29.2-14.4
							s11.8-19.3,11.6-30.4C1001.3,816.7,996.6,806.4,988.5,799z" style="fill:#383A48;"/>
					</g>
				</g>
			</g>
			<g>
				<g>
					<g>
						<path d="M859.3,636.9c14.1-15.5,37.5-17.2,52.3-3.8l157.6,143.4c14.8,13.4,15.3,36.9,1.2,52.4
							c-14.1,15.5-37.5,17.2-52.3,3.8L860.5,689.3C845.7,675.9,845.2,652.5,859.3,636.9z" style="fill:#F6E049;"/>
					</g>
					<g>
						<path d="M1085.4,798c-1.1-9.8-5.6-18.6-12.8-25.1l-109.9-100c-2-1.9-5.2-1.7-7.1,0.3l0,0c-1.9,2-1.7,5.2,0.3,7.1
							L1066,780.4c6,5.5,9.4,13.2,9.6,21.7c0.2,8.6-3,17-8.9,23.5c-12.2,13.5-32.5,15-45.2,3.5L911.3,728.8
							c-1.9-1.8-4.9-1.7-6.8,0.1l0,0c-2.1,2-2,5.4,0.1,7.3l110.2,100.2c7.6,6.9,17.3,10.3,27,10.3c11.7,0,23.6-4.9,32.3-14.5
							c7.7-8.5,11.8-19.3,11.5-30.5C1085.6,800.5,1085.5,799.3,1085.4,798z" style="fill:#383A48;"/>
					</g>
				</g>
			</g>
			<g>
				<g>
					<g>
						<path d="M911.6,579.5c14.7-16.2,38.7-18.5,53.4-5l181.7,165.3c14.8,13.4,14.8,37.4,0,53.6
							c-14.7,16.2-38.7,18.5-53.4,5L911.6,633.2C896.9,619.7,896.8,595.7,911.6,579.5z" style="fill:#F6E049;"/>
					</g>
					<g>
						<path d="M1157,744.5c-1.9-3.1-4.2-5.9-6.9-8.4l-11.4-10.4l-122.6-111.5c-2-1.9-5.2-1.7-7.1,0.3l0,0
							c-1.9,2-1.7,5.2,0.3,7.1l122.6,111.5l11.4,10.4c6.1,5.5,9.4,13.4,9.4,22.1c0,8.9-3.5,17.6-9.7,24.5
							c-12.9,14.1-33.7,16.2-46.4,4.7l-134-121.9c-2-1.9-5.2-1.7-7.1,0.3l0,0c-1.9,2-1.7,5.2,0.3,7.1L1066,780.4l19.4,17.6l4.6,4.2
							c7.4,6.8,16.9,10,26.5,10c12.2,0,24.7-5.2,34-15.4c8-8.8,12.4-19.9,12.4-31.2C1162.8,757.8,1160.8,750.6,1157,744.5z" style="fill:#383A48;"/>
					</g>
				</g>
			</g>
			<g>
				<g>
					<g>
						<path d="M1198.9,715.9c-12.2,26.2-44.2,31.2-63.6,13.5L1009,614.5l-8.5-7.7l-39.7-36.2
							c-12.2-11.1-16-28.1-10.8-42.8c3-8.6,9.1-16.4,18.3-21.8c3.6-2.1,7.7-3.5,12-4.2c2.3-0.4,4.6-0.5,6.9-0.5
							c9.9,0.1,20.1,3.5,27,9.8l86.8,79l88.4,80.4C1201.1,681.2,1205.5,701.6,1198.9,715.9z" style="fill:#F6E049;"/>
					</g>
					<g>
						<path d="M1192.9,666.9l-175.3-159.4c-7.5-6.8-18.8-11-30.3-11.1c-2.6,0-5.2,0.2-7.8,0.6c-1,0.2-2.1,0.4-3,0.6
							c2.6,2.9,5.2,5.8,7.7,8.9c0.9-0.1,1.8-0.1,2.6-0.1h0.4c9,0.1,17.9,3.2,23.6,8.5l175.3,159.5c10.1,9.2,13.9,27.3,8.3,39.4
							c-5,10.7-14.2,18.1-25.3,20.4c-10.9,2.2-22.3-0.9-30.5-8.4L1016,614.3c-2-1.9-5.2-1.7-7.1,0.3l0,0c-1.9,2-1.7,5.2,0.3,7.1
							l122.6,111.5c7,6.4,15.8,10.3,25.1,11.4c1.7,0.2,3.5,0.3,5.2,0.3c2.9,0,5.9-0.3,8.8-0.9c14.2-2.9,26-12.3,32.4-25.9l0,0
							C1210.9,701.9,1206.2,679,1192.9,666.9z" style="fill:#383A48;"/>
					</g>
				</g>
			</g>
			<g>
				<path d="M1016,606.9L906.8,725.8c-28,30.8-75.6,32.4-107.3,3.5l-63.3-57.6c-60.4-55-66.2-147.3-12.9-206
					c53.3-58.6,87.5-77.5,159.9-31.4l74.4,44.1C989.3,507.2,1044,576.1,1016,606.9z" style="fill:#F6E049;"/>
			</g>
			<g>
				<path d="M680.8,631.3l-107.5-90.5c-58.8-49.6-67.4-137-19.4-197.1l0,0c48.9-61.2,138.2-71.1,199.4-22.2l101.9,80.8" style="fill:#F3F6E6;"/>
				<path d="M680.8,636.3c-1.1,0-2.3-0.4-3.2-1.2L570,544.7c-29.5-24.8-47.8-59.6-51.5-98c-3.8-38.3,7.4-76,31.5-106.1
					c50.6-63.2,143.2-73.5,206.4-22.9l101.9,80.8c2.2,1.7,2.5,4.9,0.8,7s-4.9,2.5-7,0.8l-101.9-80.8
					c-28.6-22.9-64.3-33.2-100.6-29.2s-68.9,22-91.8,50.5c-22.4,28-32.8,63.2-29.3,98.9s20.6,68.2,48,91.3L684,627.5
					c2.1,1.8,2.4,4.9,0.6,7C683.6,635.7,682.2,636.3,680.8,636.3z" style="fill:#383A48;"/>
			</g>
			<g>
				<g>
					<g>
						<g>
							<circle cx="789.6" cy="368.7" r="5" style="fill:#383A48;"/>
						</g>
					</g>
					<g>
						<g>
							<path d="M787,389.9c0.9-0.5,1.8-1,2.7-1.4c0,0,0,0-0.1,0c-1.9,0-3.5,1.1-4.4,2.6
								C785.8,390.6,786.4,390.2,787,389.9z" style="fill:#383A48;"/>
						</g>
					</g>
					<g>
						<g>
							<circle cx="764.9" cy="344.1" r="5" style="fill:#383A48;"/>
						</g>
					</g>
					<g>
						<g>
							<circle cx="764.9" cy="368.7" r="5" style="fill:#383A48;"/>
						</g>
					</g>
					<g>
						<g>
							<circle cx="764.9" cy="393.4" r="5" style="fill:#383A48;"/>
						</g>
					</g>
					<g>
						<g>
							<circle cx="740.3" cy="319.4" r="5" style="fill:#383A48;"/>
						</g>
					</g>
					<g>
						<g>
							<circle cx="740.3" cy="344.1" r="5" style="fill:#383A48;"/>
						</g>
					</g>
					<g>
						<g>
							<circle cx="740.3" cy="368.7" r="5" style="fill:#383A48;"/>
						</g>
					</g>
					<g>
						<g>
							<circle cx="740.3" cy="393.4" r="5" style="fill:#383A48;"/>
						</g>
					</g>
					<g>
						<g>
							<circle cx="740.3" cy="418.1" r="5" style="fill:#383A48;"/>
						</g>
					</g>
					<g>
						<g>
							<path d="M740.3,447.7c1.9,0,3.5-1.1,4.4-2.6c0.2-0.5,0.4-1,0.6-1.6c0-0.3,0.1-0.5,0.1-0.8c0-2.8-2.2-5-5-5
								s-5,2.2-5,5S737.5,447.7,740.3,447.7z" style="fill:#383A48;"/>
						</g>
					</g>
					<g>
						<g>
							<circle cx="715.6" cy="319.4" r="5" style="fill:#383A48;"/>
						</g>
					</g>
					<g>
						<g>
							<circle cx="715.6" cy="344.1" r="5" style="fill:#383A48;"/>
						</g>
					</g>
					<g>
						<g>
							<circle cx="715.6" cy="368.7" r="5" style="fill:#383A48;"/>
						</g>
					</g>
					<g>
						<g>
							<circle cx="715.6" cy="393.4" r="5" style="fill:#383A48;"/>
						</g>
					</g>
					<g>
						<g>
							<circle cx="715.6" cy="418.1" r="5" style="fill:#383A48;"/>
						</g>
					</g>
					<g>
						<g>
							<circle cx="715.6" cy="442.7" r="5" style="fill:#383A48;"/>
						</g>
					</g>
					<g>
						<g>
							<circle cx="715.6" cy="467.4" r="5" style="fill:#383A48;"/>
						</g>
					</g>
					<g>
						<g>
							<circle cx="690.9" cy="294.7" r="5" style="fill:#383A48;"/>
						</g>
					</g>
					<g>
						<g>
							<circle cx="690.9" cy="319.4" r="5" style="fill:#383A48;"/>
						</g>
					</g>
					<g>
						<g>
							<circle cx="690.9" cy="344.1" r="5" style="fill:#383A48;"/>
						</g>
					</g>
					<g>
						<g>
							<circle cx="690.9" cy="368.7" r="5" style="fill:#383A48;"/>
						</g>
					</g>
					<g>
						<g>
							<circle cx="690.9" cy="393.4" r="5" style="fill:#383A48;"/>
						</g>
					</g>
					<g>
						<g>
							<circle cx="690.9" cy="418.1" r="5" style="fill:#383A48;"/>
						</g>
					</g>
					<g>
						<g>
							<circle cx="690.9" cy="442.7" r="5" style="fill:#383A48;"/>
						</g>
					</g>
					<g>
						<g>
							<circle cx="690.9" cy="467.4" r="5" style="fill:#383A48;"/>
						</g>
					</g>
					<g>
						<g>
							<circle cx="690.9" cy="492.1" r="5" style="fill:#383A48;"/>
						</g>
					</g>
					<g>
						<g>
							<path d="M691.8,521.7c0.9-2.7,2-5.3,3.2-7.8c-0.9-1.3-2.4-2.1-4.1-2.1c-2.8,0-5,2.2-5,5s2.2,5,5,5
								C691.2,521.7,691.5,521.7,691.8,521.7z" style="fill:#383A48;"/>
						</g>
					</g>
					<g>
						<g>
							<path d="M688.1,537.3c-1.3,0.9-2.1,2.4-2.1,4.1c0,1.4,0.6,2.7,1.5,3.6C687.5,542.4,687.7,539.9,688.1,537.3z" style="fill:#383A48;"/>
						</g>
					</g>
					<g>
						<g>
							<path d="M689.8,564.7c-0.3-1.1-0.6-2.2-0.8-3.2c-1.8,0.7-3.1,2.5-3.1,4.6c0,2.8,2.2,5,5,5c0.3,0,0.7,0,1-0.1
								C691.1,568.9,690.4,566.8,689.8,564.7z" style="fill:#383A48;"/>
						</g>
					</g>
					<g>
						<g>
							<circle cx="690.9" cy="590.7" r="5" style="fill:#383A48;"/>
						</g>
					</g>
					<g>
						<g>
							<circle cx="690.9" cy="615.4" r="5" style="fill:#383A48;"/>
						</g>
					</g>
					<g>
						<g>
							<circle cx="666.3" cy="294.7" r="5" style="fill:#383A48;"/>
						</g>
					</g>
					<g>
						<g>
							<circle cx="666.3" cy="319.4" r="5" style="fill:#383A48;"/>
						</g>
					</g>
					<g>
						<g>
							<circle cx="666.3" cy="344.1" r="5" style="fill:#383A48;"/>
						</g>
					</g>
					<g>
						<g>
							<circle cx="666.3" cy="368.7" r="5" style="fill:#383A48;"/>
						</g>
					</g>
					<g>
						<g>
							<circle cx="666.3" cy="393.4" r="5" style="fill:#383A48;"/>
						</g>
					</g>
					<g>
						<g>
							<circle cx="666.3" cy="418.1" r="5" style="fill:#383A48;"/>
						</g>
					</g>
					<g>
						<g>
							<circle cx="666.3" cy="442.7" r="5" style="fill:#383A48;"/>
						</g>
					</g>
					<g>
						<g>
							<circle cx="666.3" cy="467.4" r="5" style="fill:#383A48;"/>
						</g>
					</g>
					<g>
						<g>
							<circle cx="666.3" cy="492.1" r="5" style="fill:#383A48;"/>
						</g>
					</g>
					<g>
						<g>
							<circle cx="666.3" cy="516.7" r="5" style="fill:#383A48;"/>
						</g>
					</g>
					<g>
						<g>
							<circle cx="666.3" cy="541.4" r="5" style="fill:#383A48;"/>
						</g>
					</g>
					<g>
						<g>
							<circle cx="666.3" cy="566.1" r="5" style="fill:#383A48;"/>
						</g>
					</g>
					<g>
						<g>
							<circle cx="666.3" cy="590.7" r="5" style="fill:#383A48;"/>
						</g>
					</g>
					<g>
						<g>
							<circle cx="666.3" cy="615.4" r="5" style="fill:#383A48;"/>
						</g>
					</g>
					<g>
						<g>
							<circle cx="641.6" cy="294.7" r="5" style="fill:#383A48;"/>
						</g>
					</g>
					<g>
						<g>
							<circle cx="641.6" cy="319.4" r="5" style="fill:#383A48;"/>
						</g>
					</g>
					<g>
						<g>
							<circle cx="641.6" cy="344.1" r="5" style="fill:#383A48;"/>
						</g>
					</g>
					<g>
						<g>
							<circle cx="641.6" cy="368.7" r="5" style="fill:#383A48;"/>
						</g>
					</g>
					<g>
						<g>
							<circle cx="641.6" cy="393.4" r="5" style="fill:#383A48;"/>
						</g>
					</g>
					<g>
						<g>
							<circle cx="641.6" cy="418.1" r="5" style="fill:#383A48;"/>
						</g>
					</g>
					<g>
						<g>
							<circle cx="641.6" cy="442.7" r="5" style="fill:#383A48;"/>
						</g>
					</g>
					<g>
						<g>
							<circle cx="641.6" cy="467.4" r="5" style="fill:#383A48;"/>
						</g>
					</g>
					<g>
						<g>
							<circle cx="641.6" cy="492.1" r="5" style="fill:#383A48;"/>
						</g>
					</g>
					<g>
						<g>
							<circle cx="641.6" cy="516.7" r="5" style="fill:#383A48;"/>
						</g>
					</g>
					<g>
						<g>
							<circle cx="641.6" cy="541.4" r="5" style="fill:#383A48;"/>
						</g>
					</g>
					<g>
						<g>
							<circle cx="641.6" cy="566.1" r="5" style="fill:#383A48;"/>
						</g>
					</g>
					<g>
						<g>
							<circle cx="641.6" cy="590.7" r="5" style="fill:#383A48;"/>
						</g>
					</g>
					<g>
						<g>
							<circle cx="616.9" cy="319.4" r="5" style="fill:#383A48;"/>
						</g>
					</g>
					<g>
						<g>
							<circle cx="616.9" cy="344.1" r="5" style="fill:#383A48;"/>
						</g>
					</g>
					<g>
						<g>
							<circle cx="616.9" cy="368.7" r="5" style="fill:#383A48;"/>
						</g>
					</g>
					<g>
						<g>
							<circle cx="616.9" cy="393.4" r="5" style="fill:#383A48;"/>
						</g>
					</g>
					<g>
						<g>
							<circle cx="616.9" cy="418.1" r="5" style="fill:#383A48;"/>
						</g>
					</g>
					<g>
						<g>
							<circle cx="616.9" cy="442.7" r="5" style="fill:#383A48;"/>
						</g>
					</g>
					<g>
						<g>
							<circle cx="616.9" cy="467.4" r="5" style="fill:#383A48;"/>
						</g>
					</g>
					<g>
						<g>
							<circle cx="616.9" cy="492.1" r="5" style="fill:#383A48;"/>
						</g>
					</g>
					<g>
						<g>
							<circle cx="616.9" cy="516.7" r="5" style="fill:#383A48;"/>
						</g>
					</g>
					<g>
						<g>
							<circle cx="616.9" cy="541.4" r="5" style="fill:#383A48;"/>
						</g>
					</g>
					<g>
						<g>
							<circle cx="616.9" cy="566.1" r="5" style="fill:#383A48;"/>
						</g>
					</g>
					<g>
						<g>
							<circle cx="592.3" cy="319.4" r="5" style="fill:#383A48;"/>
						</g>
					</g>
					<g>
						<g>
							<circle cx="592.3" cy="344.1" r="5" style="fill:#383A48;"/>
						</g>
					</g>
					<g>
						<g>
							<circle cx="592.3" cy="368.7" r="5" style="fill:#383A48;"/>
						</g>
					</g>
					<g>
						<g>
							<circle cx="592.3" cy="393.4" r="5" style="fill:#383A48;"/>
						</g>
					</g>
					<g>
						<g>
							<circle cx="592.3" cy="418.1" r="5" style="fill:#383A48;"/>
						</g>
					</g>
					<g>
						<g>
							<circle cx="592.3" cy="442.7" r="5" style="fill:#383A48;"/>
						</g>
					</g>
					<g>
						<g>
							<circle cx="592.3" cy="467.4" r="5" style="fill:#383A48;"/>
						</g>
					</g>
					<g>
						<g>
							<circle cx="592.3" cy="492.1" r="5" style="fill:#383A48;"/>
						</g>
					</g>
					<g>
						<g>
							<circle cx="592.3" cy="516.7" r="5" style="fill:#383A48;"/>
						</g>
					</g>
					<g>
						<g>
							<circle cx="592.3" cy="541.4" r="5" style="fill:#383A48;"/>
						</g>
					</g>
					<g>
						<g>
							<circle cx="567.6" cy="344.1" r="5" style="fill:#383A48;"/>
						</g>
					</g>
					<g>
						<g>
							<circle cx="567.6" cy="368.7" r="5" style="fill:#383A48;"/>
						</g>
					</g>
					<g>
						<g>
							<circle cx="567.6" cy="393.4" r="5" style="fill:#383A48;"/>
						</g>
					</g>
					<g>
						<g>
							<circle cx="567.6" cy="418.1" r="5" style="fill:#383A48;"/>
						</g>
					</g>
					<g>
						<g>
							<circle cx="567.6" cy="442.7" r="5" style="fill:#383A48;"/>
						</g>
					</g>
					<g>
						<g>
							<circle cx="567.6" cy="467.4" r="5" style="fill:#383A48;"/>
						</g>
					</g>
					<g>
						<g>
							<circle cx="567.6" cy="492.1" r="5" style="fill:#383A48;"/>
						</g>
					</g>
					<g>
						<g>
							<circle cx="567.6" cy="516.7" r="5" style="fill:#383A48;"/>
						</g>
					</g>
					<g>
						<g>
							<circle cx="542.9" cy="368.7" r="5" style="fill:#383A48;"/>
						</g>
					</g>
					<g>
						<g>
							<circle cx="542.9" cy="393.4" r="5" style="fill:#383A48;"/>
						</g>
					</g>
					<g>
						<g>
							<circle cx="542.9" cy="418.1" r="5" style="fill:#383A48;"/>
						</g>
					</g>
					<g>
						<g>
							<circle cx="542.9" cy="442.7" r="5" style="fill:#383A48;"/>
						</g>
					</g>
					<g>
						<g>
							<circle cx="542.9" cy="467.4" r="5" style="fill:#383A48;"/>
						</g>
					</g>
					<g>
						<g>
							<circle cx="542.9" cy="492.1" r="5" style="fill:#383A48;"/>
						</g>
					</g>
				</g>
			</g>
			<g>
				<path d="M806.6,742.5L651.2,610.9c-58.8-49.6-59.9-139.1-11.9-199.2l0,0c48.9-61.2,138.2-71.1,199.4-22.2l42.8,33.2
					c7.2,5.6,15.4,9.8,24.2,12.5l159.7,47.7c24.4,7-5.3,18.5-12.2,42.9c-6.9,24.4,11.5,52.5-12.9,45.5l-86-25.6
					c-36.1-11-105.8,71.9-164.2-14.1" style="fill:#F6E049;"/>
				<path d="M806.6,747.5c-1.1,0-2.3-0.4-3.2-1.2L648,614.7c-29-24.5-46-59.7-47.8-99.2c-1.7-38.4,10.8-76.3,35.2-106.9
					c50.6-63.2,143.2-73.5,206.4-22.9l42.7,33.2c6.8,5.3,14.4,9.2,22.6,11.6l159.7,47.7c5,1.4,10.9,3.8,12.6,9.2
					c1.9,6.1-2.8,11.6-8.1,18.1c-4.8,5.8-10.9,13.1-13.4,21.8c-2.4,8.6-1.4,17.9-0.4,26.1c1.1,9.2,2,17.2-3.2,21.6
					c-4.5,3.8-11,2.6-15.5,1.3l-86-25.6c-10.1-3.1-24.5,3-41.2,10c-17.1,7.1-37.2,15.6-58.1,15.6c-22.6,0-46-9.8-67.6-41.6
					c-1.6-2.3-1-5.4,1.3-6.9s5.4-1,6.9,1.3c37,54.5,77.7,37.4,113.5,22.4c18.5-7.7,34.5-14.4,48-10.3l85.9,25.6
					c4.9,1.4,6.2,0.7,6.2,0.7c1.1-1.3,0.2-8.5-0.3-12.8c-1-8.7-2.3-19.5,0.7-30c3.1-10.8,9.9-18.9,15.3-25.5c2.5-3,5.9-7.1,6.2-8.7
					c-0.4-0.4-1.7-1.4-5.8-2.6L904.3,440c-9.4-2.8-18.1-7.3-25.8-13.3l-42.8-33.2c-28.6-22.9-64.3-33.2-100.7-29.2
					c-36.3,4-68.9,22-91.8,50.5c-22.9,28.7-34.7,64.2-33.1,100.2c1.6,36.7,17.4,69.4,44.3,92l155.4,131.6c2.1,1.8,2.4,4.9,0.6,7
					C809.4,746.9,808,747.5,806.6,747.5z" style="fill:#383A48;"/>
			</g>
		</g>
		<path d="M1094.9,577.3l-86.8-79c-7.5-6.8-18.9-11-30.3-11.1c-1,0-2,0.3-2.9,0.9c-1.6,1.1-3.1,2.2-4.6,3.2
			c-10.4,7.3-21.1,14.9-32.7,23.3c-32.1,23.3-55.4,41.3-57.2,42.7c-11.1,7.7-18.6,19.3-21.1,32.7c-2.4,13.4,0.5,26.9,8.2,38.1
			c7.7,11.2,19.4,18.7,32.8,21.2c3.1,0.6,6.2,0.8,9.3,0.8c10.3,0,20.3-3.1,28.9-9.1l73.2-51.9c1.2-0.8,2.5-1.6,4-2.2
			c9-3.7,23.2-2.7,38.2-1.6c11.8,0.8,25.2,1.7,38.2,0.6c2-0.2,3.7-1.5,4.3-3.4C1096.9,580.7,1096.4,578.7,1094.9,577.3z" style="fill:#383A48;"/>
		<g>
			<path d="M1130.7,538.4c-38.9,36.5-102.5,4.7-126.8,22.1l-73.2,51.9c-20.9,14.4-49.5,9.2-64-11.7
				c-14.4-20.9-9.2-49.5,11.7-64c0,0,93.6-72.6,173.6-121.1" style="fill:#F6E049;"/>
			<path d="M904.7,625.6c-3.1,0-6.2-0.3-9.3-0.8c-13.4-2.4-25-10-32.8-21.2c-15.9-23.1-10.2-54.8,12.8-70.8
				c3.7-2.9,95.9-74,174-121.4c2.4-1.4,5.4-0.7,6.9,1.7c1.4,2.4,0.7,5.4-1.7,6.9c-78.8,47.7-172.2,120-173.1,120.7
				c-0.1,0.1-0.1,0.1-0.2,0.2c-18.6,12.8-23.3,38.4-10.4,57c6.2,9,15.6,15,26.3,17c10.8,2,21.7-0.4,30.7-6.6l73.1-51.8
				c11.5-8.2,28.7-7,48.7-5.6c26.4,1.8,56.2,3.9,77.6-16.1c2-1.9,5.2-1.8,7.1,0.2s1.8,5.2-0.2,7.1c-24.5,23-58.1,20.6-85.1,18.8
				c-18.1-1.3-33.7-2.3-42.2,3.8l-73.2,51.9C924.9,622.5,914.9,625.6,904.7,625.6z" style="fill:#383A48;"/>
		</g>
		<g>
			<g>
				<path d="M985.3,807.1c-13.7-15-37.5-15.6-53.1-1.3L916,820.9c-15.7,14.3-17.3,38-3.7,53c13.7,15,37.5,15.6,53.1,1.3
					l16.1-15.1C997.3,845.9,998.9,822.1,985.3,807.1z" style="fill:#F6E049;"/>
				<path d="M939,890.6c-11.3,0-22.4-4.5-30.4-13.3c-15.5-17-13.7-44,4-60.1l16.1-15.1c17.8-16.2,44.8-15.4,60.3,1.6
					l0,0c15.5,17,13.7,44-4,60.1l-16.1,15.1C960.3,886.7,949.6,890.6,939,890.6z M958.5,800.5c-8.1,0-16.4,3-23,9l-16.1,15.1
					c-13.7,12.4-15.2,33.1-3.4,46s32.5,13.4,46.1,1l16.1-15.1c13.7-12.4,15.2-33.1,3.4-46C975.5,803.8,967.1,800.5,958.5,800.5z" style="fill:#383A48;"/>
			</g>
		</g>
		<g>
			<g>
				<path d="M923.8,763c-14.4-15.8-39.2-16.5-55.6-1.7l-25.1,23c-16.3,14.9-17.9,39.7-3.6,55.5
					c14.4,15.8,39.2,16.5,55.6,1.7l25.1-23C936.6,803.6,938.2,778.8,923.8,763z" style="fill:#F6E049;"/>
				<path d="M867.8,857.1c-11.8,0-23.5-4.7-31.9-14c-16.2-17.8-14.4-45.9,3.9-62.5l25.1-23c8.9-8.1,20.2-12.3,32.1-12
					c11.9,0.4,22.7,5.3,30.6,14c7.9,8.6,11.8,19.9,11,31.8c-0.8,11.8-6.1,22.7-14.9,30.8l-25.1,23
					C889.7,853.2,878.7,857.1,867.8,857.1z M895.6,755.6c-8.8,0-17.3,3.3-23.9,9.4l-25.1,23c-14.3,13-15.7,34.7-3.3,48.4
					c12.5,13.7,34.2,14.3,48.5,1.3l25.1-23c6.9-6.3,11.1-14.8,11.7-24c0.6-9.1-2.4-17.8-8.4-24.4l0,0c-6-6.6-14.4-10.4-23.5-10.7
					C896.3,755.6,895.9,755.6,895.6,755.6z" style="fill:#383A48;"/>
			</g>
		</g>
		<g>
			<g>
				<path d="M822,640.6c-14.9-16.3-40.1-17.5-56.5-2.7l-34.1,32.3c-16.3,14.9-17.5,40.1-2.7,56.5
					c14.9,16.3,40.1,17.5,56.5,2.7l34.1-32.3C835.7,682.2,836.9,656.9,822,640.6z" style="fill:#F6E049;"/>
				<path d="M758.4,744.8c-12.2,0-24.4-4.9-33.3-14.7c-8.1-8.9-12.2-20.4-11.7-32.4c0.6-12,5.8-23,14.6-31.1l34-32.3
					c0,0,0.1,0,0.1-0.1c18.3-16.7,46.8-15.3,63.5,3l0,0c16.7,18.3,15.3,46.8-3,63.5l-34,32.3c0,0-0.1,0-0.1,0.1
					C780,740.9,769.2,744.8,758.4,744.8z M768.9,641.6l-34,32.3c0,0-0.1,0-0.1,0.1c-6.9,6.3-11,14.9-11.4,24.2s2.8,18.3,9.1,25.2
					c13,14.3,35.1,15.3,49.4,2.4l34-32.3c0,0,0.1,0,0.1-0.1c14.3-13,15.3-35.1,2.3-49.4l0,0C805.3,629.7,783.2,628.6,768.9,641.6z" style="fill:#383A48;"/>
			</g>
		</g>
		<g>
			<g>
				<path d="M867.1,706.7c-14.9-16.3-40.1-17.5-56.5-2.7l-34.1,32.3c-16.3,14.9-17.5,40.1-2.7,56.5
					c14.9,16.3,40.1,17.5,56.5,2.7l34.1-32.3C880.8,748.3,882,723,867.1,706.7z" style="fill:#F6E049;"/>
				<path d="M803.5,810.9c-12.2,0-24.4-4.9-33.3-14.7c-8.1-8.9-12.2-20.4-11.7-32.4c0.6-12,5.8-23,14.6-31.1l34-32.3
					c0,0,0.1,0,0.1-0.1c18.3-16.7,46.8-15.3,63.5,3c8.1,8.9,12.2,20.4,11.7,32.4c-0.6,12-5.8,23-14.6,31.1l-34,32.3
					c0,0-0.1,0-0.1,0.1C825.2,807,814.3,810.9,803.5,810.9z M814.1,707.7L780,740c0,0-0.1,0-0.1,0.1c-6.9,6.3-11,14.9-11.4,24.2
					s2.8,18.3,9.1,25.2c13,14.3,35.1,15.3,49.4,2.4l34-32.3c0,0,0.1,0,0.1-0.1c6.9-6.3,11-14.9,11.4-24.2s-2.8-18.3-9.1-25.2l0,0
					C850.5,695.8,828.3,694.7,814.1,707.7z M830.4,795.5L830.4,795.5L830.4,795.5z" style="fill:#383A48;"/>
			</g>
		</g>
	</g>
	<g>
		<path d="M1237.7,935.5H686.8c-2.8,0-5-2.2-5-5s2.2-5,5-5h550.9c2.8,0,5,2.2,5,5S1240.5,935.5,1237.7,935.5z" style="fill:#383A48;"/>
	</g>
	<g>
		<path d="M1312.5,803.6c-1.3,0-2.6-0.5-3.5-1.5c-2-2-2-5.1,0-7.1c47.8-47.8,94.5-104.4,112.2-143.8
			c-1.6,0.1-3.1,0-4.7,0c-13.4-0.7-24.4-6.8-31-17.3c-7.3-11.5-7.7-23.3-1.2-32.5c6.6-9.3,19.3-13.9,30.9-11.2
			c12.2,2.9,20.6,12.9,23,27.5c1,6.2,0.3,13.2-1.8,20.8c56.5-16.6,134.4-106.7,178.7-163c1.7-2.2,4.9-2.5,7-0.8
			c2.2,1.7,2.5,4.9,0.8,7c-56.6,71.9-133.2,155.9-190.3,168.1c-22.1,55.7-98.7,134.3-116.6,152.3
			C1315,803.1,1313.8,803.6,1312.5,803.6z M1408.5,599.5c-6.3,0-12.6,2.9-16.1,7.8c-4.1,5.8-3.6,13.3,1.5,21.3
			c3.4,5.4,10.2,12,23.1,12.7c2.7,0.1,5.5,0,8.3-0.3c2.8-8.4,4-15.7,3-21.6c-1.7-10.6-7.2-17.4-15.4-19.4
			C1411.5,599.7,1410,599.5,1408.5,599.5z" style="fill:#383A48;"/>
	</g>
	<g>
		<g>
			<g>
				<circle cx="1460.6" cy="863.8" r="45.6" style="fill:#F6E049;"/>
				<path d="M1460.6,914.3c-12.9,0-25.9-4.9-35.7-14.8c-19.7-19.7-19.7-51.8,0-71.5s51.8-19.7,71.5,0s19.7,51.8,0,71.5
					C1486.5,909.4,1473.6,914.3,1460.6,914.3z M1460.6,823.2c-10.4,0-20.8,4-28.7,11.9c-15.8,15.8-15.8,41.5,0,57.4
					c15.8,15.8,41.5,15.8,57.4,0c15.8-15.8,15.8-41.5,0-57.4C1481.4,827.2,1471,823.2,1460.6,823.2z" style="fill:#383A48;"/>
			</g>
		</g>
		<g>
			<g>
				<circle cx="1506.2" cy="818.2" r="45.6" style="fill:#F6E049;"/>
				<path d="M1506.2,868.8c-13.5,0-26.2-5.3-35.7-14.8l0,0l0,0c-9.5-9.5-14.8-22.2-14.8-35.7s5.3-26.2,14.8-35.7
					s22.2-14.8,35.7-14.8s26.2,5.3,35.7,14.8s14.8,22.2,14.8,35.7s-5.3,26.2-14.8,35.7C1532.4,863.5,1519.7,868.8,1506.2,868.8z
					 M1506.2,777.7c-10.8,0-21,4.2-28.7,11.9s-11.9,17.8-11.9,28.7c0,10.8,4.2,21,11.9,28.7l0,0c7.7,7.7,17.8,11.9,28.7,11.9
					c10.8,0,21-4.2,28.7-11.9s11.9-17.8,11.9-28.7c0-10.8-4.2-21-11.9-28.7C1527.2,781.9,1517,777.7,1506.2,777.7z" style="fill:#383A48;"/>
			</g>
		</g>
		<g>
			<g>
				<circle cx="1551.7" cy="772.7" r="45.6" style="fill:#F6E049;"/>
				<path d="M1551.7,823.2c-12.9,0-25.9-4.9-35.7-14.8l0,0c-19.7-19.7-19.7-51.8,0-71.5s51.8-19.7,71.5,0
					s19.7,51.8,0,71.5C1577.6,818.3,1564.7,823.2,1551.7,823.2z M1523.1,801.4c15.8,15.8,41.5,15.8,57.4,0
					c7.7-7.7,11.9-17.8,11.9-28.7s-4.2-21-11.9-28.7c-15.8-15.8-41.5-15.8-57.4,0S1507.2,785.5,1523.1,801.4L1523.1,801.4z" style="fill:#383A48;"/>
			</g>
		</g>
		<g>
			<g>
				<circle cx="1597.3" cy="727.1" r="45.6" style="fill:#AAC6FC;"/>
				<path d="M1597.3,777.7c-12.9,0-25.9-4.9-35.7-14.8c-19.7-19.7-19.7-51.8,0-71.5s51.8-19.7,71.5,0s19.7,51.8,0,71.5
					C1623.2,772.7,1610.2,777.7,1597.3,777.7z M1597.3,686.6c-10.4,0-20.8,4-28.7,11.9c-15.8,15.8-15.8,41.5,0,57.4
					c15.8,15.8,41.5,15.8,57.4,0c15.8-15.8,15.8-41.5,0-57.4C1618.1,690.5,1607.7,686.6,1597.3,686.6z" style="fill:#383A48;"/>
			</g>
		</g>
	</g>
	<g>
		<g>
			<path d="M990.1,298.6c-2.8,0-5-2.2-5-5v-18.8c0-2.8,2.2-5,5-5s5,2.2,5,5v18.8C995.1,296.4,992.9,298.6,990.1,298.6z" style="fill:#383A48;"/>
		</g>
		<g>
			<path d="M990.1,365.9c-2.8,0-5-2.2-5-5v-18.8c0-2.8,2.2-5,5-5s5,2.2,5,5v18.8C995.1,363.7,992.9,365.9,990.1,365.9z" style="fill:#383A48;"/>
		</g>
		<g>
			<path d="M965.8,322.9H947c-2.8,0-5-2.2-5-5s2.2-5,5-5h18.8c2.8,0,5,2.2,5,5S968.6,322.9,965.8,322.9z" style="fill:#383A48;"/>
		</g>
		<g>
			<path d="M1033.2,322.9h-18.8c-2.8,0-5-2.2-5-5s2.2-5,5-5h18.8c2.8,0,5,2.2,5,5S1035.9,322.9,1033.2,322.9z" style="fill:#383A48;"/>
		</g>
		<g>
			<path d="M972.9,305.7c-1.3,0-2.6-0.5-3.5-1.5L956.1,291c-2-2-2-5.1,0-7.1s5.1-2,7.1,0l13.3,13.3c2,2,2,5.1,0,7.1
				C975.5,305.2,974.2,305.7,972.9,305.7z" style="fill:#383A48;"/>
		</g>
		<g>
			<path d="M1020.5,353.3c-1.3,0-2.6-0.5-3.5-1.5l-13.3-13.3c-2-2-2-5.1,0-7.1s5.1-2,7.1,0l13.3,13.3c2,2,2,5.1,0,7.1
				C1023.1,352.8,1021.8,353.3,1020.5,353.3z" style="fill:#383A48;"/>
		</g>
		<g>
			<path d="M959.7,353.3c-1.3,0-2.6-0.5-3.5-1.5c-2-2-2-5.1,0-7.1l13.3-13.3c2-2,5.1-2,7.1,0s2,5.1,0,7.1l-13.3,13.3
				C962.2,352.8,960.9,353.3,959.7,353.3z" style="fill:#383A48;"/>
		</g>
		<g>
			<path d="M1007.3,305.7c-1.3,0-2.6-0.5-3.5-1.5c-2-2-2-5.1,0-7.1l13.3-13.3c2-2,5.1-2,7.1,0s2,5.1,0,7.1l-13.3,13.3
				C1009.8,305.2,1008.6,305.7,1007.3,305.7z" style="fill:#383A48;"/>
		</g>
	</g>
	<g>
		<polygon points="1501.6,303.4 1655,303.4 1655,150 		" style="fill:#E0719E;"/>
		<path d="M1655,308.4h-153.3c-2,0-3.8-1.2-4.6-3.1c-0.8-1.9-0.3-4,1.1-5.4l153.3-153.3c1.4-1.4,3.6-1.9,5.4-1.1
			c1.9,0.8,3.1,2.6,3.1,4.6v153.3C1660,306.1,1657.7,308.4,1655,308.4z M1513.7,298.4H1650V162.1L1513.7,298.4z" style="fill:#383A48;"/>
	</g>
	<g>
		<path d="M309.3,495.4c-1.3,0-2.6-0.5-3.5-1.5c-2-2-2-5.1,0-7.1l14.5-14.6c8.9-8.9,8.8-23.3,0-32.1l-14.5-14.4
			c-12.8-12.8-12.8-33.5,0-46.3l14.4-14.5c4.3-4.3,6.7-10,6.6-16.1c0-6.1-2.4-11.8-6.7-16.1l-14.5-14.4c-6.2-6.2-9.6-14.4-9.6-23.1
			s3.4-17,9.6-23.1l14.4-14.5c8.9-8.9,8.8-23.3,0-32.1l-15.9-15.9c-2-2-2-5.1,0-7.1s5.1-2,7.1,0l15.9,15.9
			c12.8,12.8,12.8,33.5,0,46.3l-14.4,14.5c-4.3,4.3-6.7,10-6.6,16.1c0,6.1,2.4,11.8,6.7,16.1l14.5,14.4c6.2,6.2,9.6,14.4,9.6,23.1
			s-3.4,17-9.6,23.1l-14.4,14.5c-8.9,8.9-8.8,23.3,0,32.1l14.5,14.4c12.8,12.8,12.8,33.5,0,46.3L312.8,494
			C311.9,495,310.6,495.4,309.3,495.4z" style="fill:#383A48;"/>
	</g>
	<g>
		<g>
			<rect x="429.8" y="410.4" width="10" height="31.7" style="fill:#383A48;"/>
		</g>
		<g>
			<line x1="418.9" y1="426.3" x2="450.6" y2="426.3" style="fill:none;"/>
			<rect x="418.9" y="421.3" width="31.7" height="10" style="fill:#383A48;"/>
		</g>
	</g>
	<g>
		<g>
			<rect x="652.9" y="187.3" width="10" height="31.7" style="fill:#383A48;"/>
		</g>
		<g>
			<line x1="642" y1="203.2" x2="673.7" y2="203.2" style="fill:none;"/>
			<rect x="642" y="198.2" width="31.7" height="10" style="fill:#383A48;"/>
		</g>
	</g>
</g>
</svg>
