<svg xmlns="http://www.w3.org/2000/svg" xmlns:xlink="http://www.w3.org/1999/xlink" width="1400" height="792" version="1.1" viewBox="0 0 1400 792"><title>shaking-hands</title><desc>Created with Sketch.</desc><g id="Page-1" fill="none" fill-rule="evenodd" stroke="none" stroke-width="1"><g id="shaking-hands" transform="translate(-260.000000, -144.000000)"><g id="Group" transform="translate(260.000000, 144.000000)"><path id="Shape" fill="#F3F6E6" fill-rule="nonzero" d="M1234.5,0.5 L1123,0.5 L1011.5,0.5 L900,0.5 L788.5,0.5 L676.7,0.5 L565.2,0.5 L453.6,0.5 L342.1,0.5 L230.6,0.5 L119,0.5 C116.2,0.5 114,2.7 114,5.5 L114,117 L114,228.5 L114,340 L114,451.5 L114,563 L114,674.5 L114,786 C114,788.8 116.2,791 119,791 L230.5,791 L342,791 L453.5,791 L565,791 L676.5,791 L788,791 L899.5,791 L1011,791 L1122.5,791 L1234,791 C1236.8,791 1239,788.8 1239,786 L1239,674.7 L1239,563.2 L1239,451.6 L1239,340.1 L1239,228.6 L1239,117 L1239,5.5 C1239.5,2.7 1237.2,0.5 1234.5,0.5 Z M1229.5,223.6 L1128,223.6 L1128,122 L1229.5,122 L1229.5,223.6 Z M1229.5,335.1 L1128,335.1 L1128,233.6 L1229.5,233.6 L1229.5,335.1 Z M1229.5,446.6 L1128,446.6 L1128,345.1 L1229.5,345.1 L1229.5,446.6 Z M1229.5,558.2 L1128,558.2 L1128,456.6 L1229.5,456.6 L1229.5,558.2 Z M124,456.6 L225.5,456.6 L225.5,558.1 L124,558.1 L124,456.6 Z M124,345.1 L225.5,345.1 L225.5,446.6 L124,446.6 L124,345.1 Z M124,233.6 L225.5,233.6 L225.5,335.1 L124,335.1 L124,233.6 Z M235.6,345.1 L337.1,345.1 L337.1,446.6 L235.6,446.6 L235.6,345.1 Z M347.1,345.1 L448.6,345.1 L448.6,446.6 L347.1,446.6 L347.1,345.1 Z M458.6,345.1 L560.1,345.1 L560.1,446.6 L458.6,446.6 L458.6,345.1 Z M570.2,345.1 L671.7,345.1 L671.7,446.6 L570.2,446.6 L570.2,345.1 Z M681.7,345.1 L783.2,345.1 L783.2,446.6 L681.7,446.6 L681.7,345.1 Z M793.3,345.1 L894.8,345.1 L894.8,446.6 L793.3,446.6 L793.3,345.1 Z M904.8,345.1 L1006.3,345.1 L1006.3,446.6 L904.8,446.6 L904.8,345.1 Z M1016.4,345.1 L1117.9,345.1 L1117.9,446.6 L1016.4,446.6 L1016.4,345.1 Z M1117.9,335.1 L1016.4,335.1 L1016.4,233.6 L1117.9,233.6 L1117.9,335.1 Z M1006.4,335.1 L904.9,335.1 L904.9,233.6 L1006.4,233.6 L1006.4,335.1 Z M894.8,335.1 L793.3,335.1 L793.3,233.6 L894.8,233.6 L894.8,335.1 Z M783.3,335.1 L681.7,335.1 L681.7,233.6 L783.2,233.6 L783.2,335.1 L783.3,335.1 Z M671.7,335.1 L570.2,335.1 L570.2,233.6 L671.7,233.6 L671.7,335.1 Z M560.2,335.1 L458.6,335.1 L458.6,233.6 L560.1,233.6 L560.1,335.1 L560.2,335.1 Z M448.6,335.1 L347.1,335.1 L347.1,233.6 L448.6,233.6 L448.6,335.1 Z M337.1,335.1 L235.6,335.1 L235.6,233.6 L337.1,233.6 L337.1,335.1 Z M235.6,456.6 L337.1,456.6 L337.1,558.1 L235.6,558.1 L235.6,456.6 Z M347.1,456.6 L448.6,456.6 L448.6,558.1 L347.1,558.1 L347.1,456.6 Z M458.6,456.6 L560.1,456.6 L560.1,558.1 L458.6,558.1 L458.6,456.6 Z M570.2,456.6 L671.7,456.6 L671.7,558.1 L570.2,558.1 L570.2,456.6 Z M681.7,456.6 L783.2,456.6 L783.2,558.1 L681.7,558.1 L681.7,456.6 Z M793.3,456.6 L894.8,456.6 L894.8,558.1 L793.3,558.1 L793.3,456.6 Z M904.8,456.6 L1006.3,456.6 L1006.3,558.1 L904.8,558.1 L904.8,456.6 Z M1016.4,456.6 L1117.9,456.6 L1117.9,558.1 L1016.4,558.1 L1016.4,456.6 Z M1117.9,223.6 L1016.4,223.6 L1016.4,122 L1117.9,122 L1117.9,223.6 Z M1006.4,223.6 L904.9,223.6 L904.9,122 L1006.4,122 L1006.4,223.6 Z M894.8,223.6 L793.3,223.6 L793.3,122 L894.8,122 L894.8,223.6 Z M783.3,223.6 L681.7,223.6 L681.7,122 L783.2,122 L783.2,223.6 L783.3,223.6 Z M671.7,223.6 L570.2,223.6 L570.2,122 L671.7,122 L671.7,223.6 Z M560.2,223.6 L458.6,223.6 L458.6,122 L560.1,122 L560.1,223.6 L560.2,223.6 Z M448.6,223.6 L347.1,223.6 L347.1,122 L448.6,122 L448.6,223.6 Z M337.1,223.6 L235.6,223.6 L235.6,122 L337.1,122 L337.1,223.6 Z M225.6,223.6 L124,223.6 L124,122 L225.5,122 L225.5,223.6 L225.6,223.6 Z M124,568.2 L225.5,568.2 L225.5,669.7 L124,669.7 L124,568.2 Z M235.6,568.2 L337.1,568.2 L337.1,669.7 L235.6,669.7 L235.6,568.2 Z M347.1,568.2 L448.6,568.2 L448.6,669.7 L347.1,669.7 L347.1,568.2 Z M458.6,568.2 L560.1,568.2 L560.1,669.7 L458.6,669.7 L458.6,568.2 Z M570.2,568.2 L671.7,568.2 L671.7,669.7 L570.2,669.7 L570.2,568.2 Z M681.7,568.2 L783.2,568.2 L783.2,669.7 L681.7,669.7 L681.7,568.2 Z M793.3,568.2 L894.8,568.2 L894.8,669.7 L793.3,669.7 L793.3,568.2 Z M904.8,568.2 L1006.3,568.2 L1006.3,669.7 L904.8,669.7 L904.8,568.2 Z M1016.4,568.2 L1117.9,568.2 L1117.9,669.7 L1016.4,669.7 L1016.4,568.2 Z M1127.9,568.2 L1229.4,568.2 L1229.4,669.7 L1127.9,669.7 L1127.9,568.2 Z M1229.5,112 L1128,112 L1128,10.5 L1229.5,10.5 L1229.5,112 Z M1117.9,112 L1016.4,112 L1016.4,10.5 L1117.9,10.5 L1117.9,112 Z M1006.4,112 L904.9,112 L904.9,10.5 L1006.4,10.5 L1006.4,112 Z M894.8,112 L793.3,112 L793.3,10.5 L894.8,10.5 L894.8,112 Z M783.3,112 L681.7,112 L681.7,10.5 L783.2,10.5 L783.2,112 L783.3,112 Z M671.7,112 L570.2,112 L570.2,10.5 L671.7,10.5 L671.7,112 Z M560.2,112 L458.6,112 L458.6,10.5 L560.1,10.5 L560.1,112 L560.2,112 Z M448.6,112 L347.1,112 L347.1,10.5 L448.6,10.5 L448.6,112 Z M337.1,112 L235.6,112 L235.6,10.5 L337.1,10.5 L337.1,112 Z M124,10.5 L225.5,10.5 L225.5,112 L124,112 L124,10.5 Z M124,679.7 L225.5,679.7 L225.5,781.2 L124,781.2 L124,679.7 Z M235.6,679.7 L337.1,679.7 L337.1,781.2 L235.6,781.2 L235.6,679.7 Z M347.1,679.7 L448.6,679.7 L448.6,781.2 L347.1,781.2 L347.1,679.7 Z M458.6,679.7 L560.1,679.7 L560.1,781.2 L458.6,781.2 L458.6,679.7 Z M570.2,679.7 L671.7,679.7 L671.7,781.2 L570.2,781.2 L570.2,679.7 Z M681.7,679.7 L783.2,679.7 L783.2,781.2 L681.7,781.2 L681.7,679.7 Z M793.3,679.7 L894.8,679.7 L894.8,781.2 L793.3,781.2 L793.3,679.7 Z M904.8,679.7 L1006.3,679.7 L1006.3,781.2 L904.8,781.2 L904.8,679.7 Z M1016.4,679.7 L1117.9,679.7 L1117.9,781.2 L1016.4,781.2 L1016.4,679.7 Z M1229.5,781.3 L1128,781.3 L1128,679.7 L1229.5,679.7 L1229.5,781.3 Z"/><path id="Path" fill="#F3F6E6" fill-rule="nonzero" d="M1395,1 L788.3,1 C785.8,1 783.7,2.9 783.3,5.4 C783,7.9 784.6,10.2 787,10.9 C832,22.7 860.7,58.6 894,100.3 C932.4,148.3 975.8,202.7 1055.1,231.2 C1164.3,270.5 1184.9,350.5 1206.6,435.3 C1213.3,461.3 1220.2,488.2 1229.8,514.2 C1246.4,559 1276,584.3 1304.6,608.8 C1325.7,626.9 1347.5,645.5 1363.5,671.9 C1381.4,701.5 1390,738.2 1390,784.3 C1390,787.1 1392.2,789.3 1395,789.3 C1397.8,789.3 1400,787.1 1400,784.3 L1400,6 C1400,3.3 1397.7,1 1395,1 Z"/><g fill-rule="nonzero"><g transform="translate(0.000000, 410.000000)"><rect id="Rectangle" width="448.6" height="370.7" x="5" y="5.8" fill="#F3F6E6"/><path id="Shape" fill="#383A48" d="M453.6,381.5 L5,381.5 C2.2,381.5 0,379.3 0,376.5 L0,5.8 C0,3 2.2,0.8 5,0.8 L453.6,0.8 C456.4,0.8 458.6,3 458.6,5.8 L458.6,376.5 C458.6,379.3 456.4,381.5 453.6,381.5 Z M10,371.5 L448.6,371.5 L448.6,10.8 L10,10.8 L10,371.5 Z"/></g><g transform="translate(0.000000, 410.000000)"><rect id="Rectangle" width="446.9" height="96.6" x="5" y="5.8" fill="#E0719E"/><path id="Shape" fill="#383A48" d="M451.9,107.4 L5,107.4 C2.2,107.4 0,105.2 0,102.4 L0,5.8 C0,3 2.2,0.8 5,0.8 L451.9,0.8 C454.7,0.8 456.9,3 456.9,5.8 L456.9,102.4 C456.9,105.2 454.7,107.4 451.9,107.4 Z M10,97.4 L446.9,97.4 L446.9,10.8 L10,10.8 L10,97.4 Z"/></g><g><g transform="translate(0.000000, 410.000000) translate(36.000000, 34.000000)"><circle id="Oval" cx="20.6" cy="20.3" r="14.8" fill="#E0719E"/><path id="Shape" fill="#383A48" d="M20.6,40.1 C9.7,40.1 0.8,31.2 0.8,20.3 C0.8,9.4 9.7,0.5 20.6,0.5 C31.5,0.5 40.4,9.4 40.4,20.3 C40.4,31.2 31.5,40.1 20.6,40.1 Z M20.6,10.6 C15.2,10.6 10.8,15 10.8,20.4 C10.8,25.8 15.2,30.2 20.6,30.2 C26,30.2 30.4,25.8 30.4,20.4 C30.4,15 26,10.6 20.6,10.6 Z"/></g><g transform="translate(0.000000, 410.000000) translate(36.000000, 34.000000) translate(46.000000, 0.000000)"><circle id="Oval" cx="19.8" cy="20.3" r="14.8" fill="#F6E049"/><path id="Shape" fill="#383A48" d="M19.8,40.1 C8.9,40.1 0,31.2 0,20.3 C0,9.4 8.9,0.5 19.8,0.5 C30.7,0.5 39.6,9.4 39.6,20.3 C39.6,31.2 30.7,40.1 19.8,40.1 Z M19.8,10.6 C14.4,10.6 10,15 10,20.4 C10,25.8 14.4,30.2 19.8,30.2 C25.2,30.2 29.6,25.8 29.6,20.4 C29.6,15 25.1,10.6 19.8,10.6 Z"/></g><g transform="translate(0.000000, 410.000000) translate(36.000000, 34.000000) translate(91.000000, 0.000000)"><circle id="Oval" cx="19.9" cy="20.3" r="14.8" fill="#7FD6C2"/><path id="Shape" fill="#383A48" d="M19.9,40.1 C9,40.1 0.1,31.2 0.1,20.3 C0.1,9.4 9,0.5 19.9,0.5 C30.8,0.5 39.7,9.4 39.7,20.3 C39.7,31.2 30.8,40.1 19.9,40.1 Z M19.9,10.6 C14.5,10.6 10.1,15 10.1,20.4 C10.1,25.8 14.5,30.2 19.9,30.2 C25.3,30.2 29.7,25.8 29.7,20.4 C29.7,15 25.3,10.6 19.9,10.6 Z"/></g></g><g transform="translate(0.000000, 410.000000) translate(32.000000, 148.000000)"><circle id="Oval" cx="93.8" cy="93.5" r="93" fill="#AAC6FC"/><g id="Path"><path fill="#F3F6E6" d="M5.3,62.3 C5.3,31.1 30.6,5.9 61.7,5.9 C92.8,5.9 118.1,31.2 118.1,62.3" transform="translate(33.000000, 80.000000)"/><path fill="#383A48" d="M123.1,62.3 L113.1,62.3 C113.1,33.9 90,10.9 61.7,10.9 C33.4,10.9 10.3,34 10.3,62.3 L0.3,62.3 C0.3,28.4 27.9,0.9 61.7,0.9 C95.5,0.9 123.1,28.5 123.1,62.3 Z" transform="translate(33.000000, 80.000000)"/></g><g transform="translate(62.000000, 16.000000)"><path id="Path" fill="#F6E049" d="M32.7,69.9 L32.7,69.9 C17.4,69.9 5.1,57.5 5.1,42.3 L5.1,33 C5.1,17.7 17.5,5.4 32.7,5.4 L32.7,5.4 C48,5.4 60.3,17.8 60.3,33 L60.3,42.3 C60.3,57.5 47.9,69.9 32.7,69.9 Z"/><path id="Shape" fill="#383A48" d="M32.7,74.9 C14.7,74.9 0.1,60.3 0.1,42.3 L0.1,33 C0.1,15 14.7,0.4 32.7,0.4 C50.7,0.4 65.3,15 65.3,33 L65.3,42.3 C65.3,60.3 50.7,74.9 32.7,74.9 Z M32.7,10.4 C20.2,10.4 10.1,20.5 10.1,33 L10.1,42.3 C10.1,54.8 20.2,64.9 32.7,64.9 C45.2,64.9 55.3,54.8 55.3,42.3 L55.3,33 C55.3,20.5 45.2,10.4 32.7,10.4 Z"/></g></g><g transform="translate(0.000000, 410.000000) translate(249.000000, 148.000000)"><circle id="Oval" cx="93.1" cy="93.5" r="93" fill="#AAC6FC"/><g id="Path"><path fill="#E0719E" d="M5.5,62.3 C5.5,31.1 30.8,5.9 61.9,5.9 C93.1,5.9 118.3,31.2 118.3,62.3" transform="translate(32.000000, 80.000000)"/><path fill="#383A48" d="M118.4,67.3 C115.6,67.3 113.4,65.1 113.4,62.3 C113.4,33.9 90.3,10.9 62,10.9 C33.7,10.9 10.6,34 10.6,62.3 C10.6,65.1 8.4,67.3 5.6,67.3 C2.8,67.3 0.6,65.1 0.6,62.3 C0.6,28.4 28.2,0.9 62,0.9 C95.8,0.9 123.4,28.5 123.4,62.3 C123.4,65.1 121.1,67.3 118.4,67.3 Z" transform="translate(32.000000, 80.000000)"/></g><g transform="translate(61.000000, 16.000000)"><path id="Path" fill="#F6E049" d="M33,69.9 L33,69.9 C17.7,69.9 5.4,57.5 5.4,42.3 L5.4,33 C5.4,17.7 17.8,5.4 33,5.4 L33,5.4 C48.3,5.4 60.6,17.8 60.6,33 L60.6,42.3 C60.6,57.5 48.2,69.9 33,69.9 Z"/><path id="Shape" fill="#383A48" d="M33,74.9 C15,74.9 0.4,60.3 0.4,42.3 L0.4,33 C0.4,15 15,0.4 33,0.4 C51,0.4 65.6,15 65.6,33 L65.6,42.3 C65.6,60.3 50.9,74.9 33,74.9 Z M33,10.4 C20.5,10.4 10.4,20.5 10.4,33 L10.4,42.3 C10.4,54.8 20.5,64.9 33,64.9 C45.5,64.9 55.6,54.8 55.6,42.3 L55.6,33 C55.6,20.5 45.4,10.4 33,10.4 Z"/></g></g></g><path id="Path" fill="#383A48" fill-rule="nonzero" d="M453.6,410.8 L272.5,410.8 C270.6,410.8 268.9,411.8 268.1,413.5 C267.3,415.2 267.4,417.2 268.5,418.7 C275.7,428.8 284.2,438 293.7,446.1 L449.5,577.3 C450.4,578.1 451.5,578.5 452.7,578.5 C452.9,578.5 453.1,578.5 453.4,578.5 C454.8,578.3 456,577.5 456.8,576.4 L457.7,575.1 C458.3,574.3 458.6,573.3 458.6,572.3 L458.6,415.8 C458.6,413.1 456.4,410.8 453.6,410.8 Z"/><g fill-rule="nonzero" transform="translate(257.000000, 137.000000)"><g transform="translate(207.000000, 0.000000)"><g transform="translate(279.000000, 0.000000)"><path id="Path" fill="#AAC6FC" d="M193,390.5 L348,256.2 C406.8,206.6 415.4,119.2 367.4,59.1 L367.4,59.1 C318.5,-2.1 229.2,-12 168,36.9 L5.9,168.8 L193,390.5 Z"/><path id="Shape" fill="#383A48" d="M193,395.5 C192.9,395.5 192.7,395.5 192.6,395.5 C191.3,395.4 190,394.8 189.2,393.7 L2,172.1 C1.1,171.1 0.7,169.7 0.8,168.4 C0.9,167.1 1.6,165.8 2.6,165 L164.7,33.1 C228,-17.5 320.6,-7.2 371.2,56 C395.3,86.1 406.4,123.8 402.7,162.1 C399,200.4 380.6,235.2 351.2,260.1 L196.3,394.3 C195.4,395.1 194.2,395.5 193,395.5 Z M12.9,169.5 L193.6,383.4 L344.7,252.4 C372.2,229.2 389.3,196.8 392.8,161.1 C396.3,125.4 385.9,90.3 363.5,62.2 C340.7,33.6 308.1,15.7 271.7,11.7 C235.4,7.7 199.6,18 171.1,40.9 L12.9,169.5 Z"/></g><g id="Oval" fill="#383A48" transform="translate(356.000000, 8.000000)"><circle cx="301.6" cy="79.7" r="5"/><circle cx="301.6" cy="104.4" r="5"/><circle cx="301.6" cy="129.1" r="5"/><circle cx="301.6" cy="153.7" r="5"/><circle cx="301.6" cy="178.4" r="5"/><circle cx="301.6" cy="203.1" r="5"/><circle cx="276.9" cy="55.1" r="5"/><circle cx="276.9" cy="79.7" r="5"/><circle cx="276.9" cy="104.4" r="5"/><circle cx="276.9" cy="129.1" r="5"/><circle cx="276.9" cy="153.7" r="5"/><circle cx="276.9" cy="178.4" r="5"/><circle cx="276.9" cy="203.1" r="5"/><circle cx="276.9" cy="227.7" r="5"/><circle cx="252.3" cy="30.4" r="5"/><circle cx="252.3" cy="55.1" r="5"/><circle cx="252.3" cy="79.7" r="5"/><circle cx="252.3" cy="104.4" r="5"/><circle cx="252.3" cy="129.1" r="5"/><circle cx="252.3" cy="153.7" r="5"/><circle cx="252.3" cy="178.4" r="5"/><circle cx="252.3" cy="203.1" r="5"/><circle cx="252.3" cy="227.7" r="5"/><circle cx="252.3" cy="252.4" r="5"/><circle cx="227.6" cy="30.4" r="5"/><circle cx="227.6" cy="55.1" r="5"/><circle cx="227.6" cy="79.7" r="5"/><circle cx="227.6" cy="104.4" r="5"/><circle cx="227.6" cy="129.1" r="5"/><circle cx="227.6" cy="153.7" r="5"/><circle cx="227.6" cy="178.4" r="5"/><circle cx="227.6" cy="203.1" r="5"/><circle cx="227.6" cy="227.7" r="5"/><circle cx="227.6" cy="252.4" r="5"/><circle cx="202.9" cy="5.7" r="5"/><circle cx="202.9" cy="30.4" r="5"/><circle cx="202.9" cy="55.1" r="5"/><circle cx="202.9" cy="79.7" r="5"/><circle cx="202.9" cy="104.4" r="5"/><circle cx="202.9" cy="129.1" r="5"/><circle cx="202.9" cy="153.7" r="5"/><circle cx="202.9" cy="178.4" r="5"/><circle cx="202.9" cy="203.1" r="5"/><circle cx="202.9" cy="227.7" r="5"/><circle cx="202.9" cy="252.4" r="5"/><circle cx="202.9" cy="277.1" r="5"/><circle cx="178.3" cy="5.7" r="5"/><circle cx="178.3" cy="30.4" r="5"/><circle cx="178.3" cy="55.1" r="5"/><circle cx="178.3" cy="79.7" r="5"/><circle cx="178.3" cy="104.4" r="5"/><circle cx="178.3" cy="129.1" r="5"/><circle cx="178.3" cy="153.7" r="5"/><circle cx="178.3" cy="178.4" r="5"/><circle cx="178.3" cy="203.1" r="5"/><circle cx="178.3" cy="227.7" r="5"/><circle cx="178.3" cy="252.4" r="5"/><circle cx="178.3" cy="277.1" r="5"/><circle cx="178.3" cy="301.7" r="5"/><circle cx="153.6" cy="5.7" r="5"/><circle cx="153.6" cy="30.4" r="5"/><circle cx="153.6" cy="55.1" r="5"/><circle cx="153.6" cy="79.7" r="5"/><circle cx="153.6" cy="104.4" r="5"/><circle cx="153.6" cy="129.1" r="5"/><circle cx="153.6" cy="153.7" r="5"/><circle cx="153.6" cy="178.4" r="5"/><circle cx="153.6" cy="203.1" r="5"/><circle cx="153.6" cy="227.7" r="5"/><circle cx="153.6" cy="252.4" r="5"/><circle cx="153.6" cy="277.1" r="5"/><circle cx="153.6" cy="301.7" r="5"/><circle cx="153.6" cy="326.4" r="5"/><circle cx="128.9" cy="30.4" r="5"/><circle cx="128.9" cy="55.1" r="5"/><circle cx="128.9" cy="79.7" r="5"/><circle cx="128.9" cy="104.4" r="5"/><circle cx="128.9" cy="129.1" r="5"/><circle cx="128.9" cy="153.7" r="5"/><circle cx="128.9" cy="178.4" r="5"/><circle cx="128.9" cy="203.1" r="5"/><circle cx="128.9" cy="227.7" r="5"/><circle cx="128.9" cy="252.4" r="5"/><circle cx="128.9" cy="277.1" r="5"/><circle cx="128.9" cy="301.7" r="5"/><circle cx="128.9" cy="326.4" r="5"/><circle cx="128.9" cy="351.1" r="5"/><circle cx="104.3" cy="30.4" r="5"/><circle cx="104.3" cy="55.1" r="5"/><circle cx="104.3" cy="79.7" r="5"/><circle cx="104.3" cy="104.4" r="5"/><circle cx="104.3" cy="129.1" r="5"/><circle cx="104.3" cy="153.7" r="5"/><circle cx="104.3" cy="178.4" r="5"/><circle cx="104.3" cy="203.1" r="5"/><circle cx="104.3" cy="227.7" r="5"/><circle cx="104.3" cy="252.4" r="5"/><circle cx="104.3" cy="277.1" r="5"/><circle cx="104.3" cy="301.7" r="5"/><circle cx="104.3" cy="326.4" r="5"/><circle cx="104.3" cy="351.1" r="5"/><circle cx="104.3" cy="375.7" r="5"/><circle cx="79.6" cy="55.1" r="5"/><circle cx="79.6" cy="79.7" r="5"/><circle cx="79.6" cy="104.4" r="5"/><circle cx="79.6" cy="129.1" r="5"/><circle cx="79.6" cy="153.7" r="5"/><circle cx="79.6" cy="178.4" r="5"/><circle cx="79.6" cy="203.1" r="5"/><circle cx="79.6" cy="227.7" r="5"/><circle cx="79.6" cy="252.4" r="5"/><circle cx="79.6" cy="277.1" r="5"/><circle cx="79.6" cy="301.7" r="5"/><circle cx="79.6" cy="326.4" r="5"/><circle cx="79.6" cy="351.1" r="5"/><circle cx="79.6" cy="375.7" r="5"/><circle cx="54.9" cy="79.7" r="5"/><circle cx="54.9" cy="104.4" r="5"/><circle cx="54.9" cy="129.1" r="5"/><circle cx="54.9" cy="153.7" r="5"/><circle cx="54.9" cy="178.4" r="5"/><circle cx="54.9" cy="203.1" r="5"/><circle cx="54.9" cy="227.7" r="5"/><circle cx="54.9" cy="252.4" r="5"/><circle cx="54.9" cy="277.1" r="5"/><circle cx="54.9" cy="301.7" r="5"/><circle cx="54.9" cy="326.4" r="5"/><circle cx="54.9" cy="351.1" r="5"/><circle cx="54.9" cy="375.7" r="5"/><circle cx="30.3" cy="104.4" r="5"/><circle cx="30.3" cy="129.1" r="5"/><circle cx="30.3" cy="153.7" r="5"/><circle cx="30.3" cy="178.4" r="5"/><circle cx="30.3" cy="203.1" r="5"/><circle cx="30.3" cy="227.7" r="5"/><circle cx="30.3" cy="252.4" r="5"/><circle cx="30.3" cy="277.1" r="5"/><circle cx="30.3" cy="301.7" r="5"/><circle cx="30.3" cy="326.4" r="5"/><circle cx="30.3" cy="351.1" r="5"/><circle cx="30.3" cy="375.7" r="5"/><circle cx="5.6" cy="104.4" r="5"/><circle cx="5.6" cy="129.1" r="5"/><circle cx="5.6" cy="153.7" r="5"/><circle cx="5.6" cy="178.4" r="5"/><circle cx="5.6" cy="203.1" r="5"/><circle cx="5.6" cy="227.7" r="5"/><circle cx="5.6" cy="252.4" r="5"/><circle cx="5.6" cy="277.1" r="5"/><circle cx="5.6" cy="301.7" r="5"/><circle cx="5.6" cy="326.4" r="5"/><circle cx="5.6" cy="351.1" r="5"/><circle cx="5.6" cy="375.7" r="5"/></g><g transform="translate(190.000000, 72.000000)"><path id="Path" fill="#F6E049" d="M195.7,392 L350.6,257.7 C409.4,208.1 415.5,118.7 367.4,58.7 L367.4,58.7 C318.5,-2.5 229.2,-12.4 168,36.5 L5.8,168.5 L195.7,392 Z"/><path id="Shape" fill="#383A48" d="M195.7,397 C195.6,397 195.4,397 195.3,397 C194,396.9 192.7,396.3 191.9,395.3 L2,171.7 C1.1,170.7 0.7,169.3 0.8,168 C0.9,166.7 1.6,165.4 2.6,164.6 L164.7,32.7 C228,-17.9 320.6,-7.6 371.2,55.6 C421.6,118.6 413.8,211 353.7,261.6 L198.8,395.8 C198,396.6 196.9,397 195.7,397 Z M13,169.1 L196.2,384.9 L347.3,253.9 C403.3,206.7 410.5,120.6 363.5,61.8 C316.4,2.9 230,-6.7 171.1,40.4 L13,169.1 Z"/></g><g transform="translate(0.000000, 134.000000)"><g id="Path"><path fill="#F6E049" d="M45.6,6 L31.6,18.8 C-0.9,48.3 -3.3,98.8 26.3,131.2 L123.1,237.7 C152.6,270.2 203.1,272.6 235.5,243 L330.1,156.9" transform="translate(159.000000, 84.000000)"/><path fill="#383A48" d="M182,268.7 C159,268.7 136,259.4 119.4,241.1 L22.6,134.6 C7.4,117.9 -0.4,96.3 0.7,73.7 C1.8,51.1 11.6,30.3 28.2,15.1 L42.2,2.3 C44.2,0.4 47.4,0.6 49.3,2.6 C51.2,4.6 51,7.8 49,9.7 L35,22.5 C4.6,50.2 2.3,97.5 30,127.9 L126.8,234.4 C154.5,264.8 201.8,267.1 232.2,239.4 L326.8,153.3 C328.8,151.4 332,151.6 333.9,153.6 C335.8,155.6 335.6,158.8 333.6,160.7 L239,246.8 C222.7,261.4 202.3,268.7 182,268.7 Z" transform="translate(159.000000, 84.000000)"/></g><g transform="translate(100.000000, 201.000000)"><path id="Path" fill="#F6E049" d="M240.4,19 C225.5,2.7 200.8,1 185.2,15.2 L17.9,167.3 C2.2,181.5 1.6,206.3 16.5,222.7 C31.4,239 56.1,240.7 71.7,226.5 L239,74.4 C254.6,60.1 255.3,35.3 240.4,19 Z"/><path id="Shape" fill="#383A48" d="M46.5,241.1 C34.2,241.1 21.8,236 12.8,226 C-3.9,207.7 -3.1,179.7 14.6,163.6 L181.8,11.5 C190.4,3.7 201.6,-0.2 213.4,0.6 C225.1,1.4 236,6.7 244.1,15.6 L244.1,15.6 C260.8,33.9 260,61.9 242.3,78 L75.1,230.2 C67,237.5 56.8,241.1 46.5,241.1 Z M210.4,10.6 C202.2,10.6 194.5,13.5 188.6,19 L21.3,171 C7.7,183.4 7.2,205 20.2,219.3 C33.2,233.6 54.8,235.1 68.4,222.8 L235.6,70.7 C249.2,58.3 249.7,36.7 236.7,22.4 L236.7,22.4 C230.4,15.5 221.9,11.3 212.7,10.7 C212,10.6 211.2,10.6 210.4,10.6 Z"/></g><g transform="translate(36.000000, 144.000000)"><path id="Path" fill="#F6E049" d="M253.3,19.8 C238.4,3.5 214.3,1.2 199.5,14.7 L16.3,181.4 C1.4,194.9 1.4,219.1 16.3,235.5 C31.2,251.9 55.3,254.1 70.1,240.6 L253.3,74 C268.1,60.4 268.2,36.1 253.3,19.8 Z"/><path id="Shape" fill="#383A48" d="M46.8,254.4 C45.4,254.4 44.1,254.3 42.7,254.2 C31.3,253.1 20.6,247.7 12.6,238.9 C-4.1,220.6 -3.9,193.1 13,177.8 L196.1,11 C204.3,3.5 215.3,0 226.9,1.1 C238.3,2.2 249,7.6 257,16.4 L257,16.4 C265,25.2 269.4,36.4 269.4,47.9 C269.4,59.5 264.8,70.1 256.6,77.6 L73.5,244.2 C66.2,250.8 56.8,254.4 46.8,254.4 Z M222.8,10.9 C215.2,10.9 208.2,13.5 202.8,18.4 L19.7,185.1 C6.9,196.8 7,217.8 20,232.1 C26.3,239.1 34.8,243.4 43.7,244.2 C52.4,245 60.7,242.4 66.8,236.8 L250,70.2 C256.1,64.6 259.5,56.7 259.5,47.9 C259.5,38.9 256,30.2 249.7,23.2 L249.7,23.2 C243.4,16.2 234.9,11.9 226,11.1 C224.9,11 223.8,10.9 222.8,10.9 Z"/></g><g transform="translate(0.000000, 84.000000)"><path id="Path" fill="#F6E049" d="M249.8,18.5 C234.9,2.2 209.7,1 193.3,15.8 L18.8,174.6 C2.5,189.5 1.3,214.7 16.1,231.1 C30.9,247.5 56.2,248.6 72.6,233.8 L247.1,75 C263.4,60.1 264.6,34.8 249.8,18.5 Z"/><path id="Shape" fill="#383A48" d="M45.7,249.1 C33.5,249.1 21.3,244.2 12.4,234.4 C-4.3,216.1 -2.9,187.6 15.4,170.9 L189.9,12.2 C208.2,-4.5 236.7,-3.1 253.4,15.2 C261.5,24.1 265.6,35.6 265.1,47.6 C264.5,59.6 259.3,70.7 250.4,78.7 L76,237.4 C67.4,245.2 56.5,249.1 45.7,249.1 Z M220.2,10.5 C211.8,10.5 203.4,13.5 196.7,19.6 L22.2,178.3 C7.9,191.3 6.9,213.4 19.9,227.7 C32.9,242 55,243 69.3,230 L243.8,71.3 C250.7,65 254.8,56.4 255.2,47.1 C255.6,37.8 252.4,28.8 246.1,21.9 C239.2,14.3 229.7,10.5 220.2,10.5 Z"/></g><path id="Path" fill="#F6E049" d="M198.7,206.3 L292.3,309.2 C320.9,340.6 369.9,342.6 401.6,313.8 L464.9,256.2 C525.3,201.2 530.2,107.9 475.9,48.1 C421.6,-11.7 328.2,-15.6 267.7,39.4 L204.5,97 C172.7,125.9 170.1,174.9 198.7,206.3 Z"/></g></g><g transform="translate(0.000000, 4.000000)"><g id="Path"><path fill="#F6E049" d="M290.5,5.5 L304.5,18.3 C337,47.8 339.4,98.3 309.8,130.7 L213,237.2 C183.5,269.7 133,272.1 100.6,242.5 L6,156.4" transform="translate(189.000000, 215.000000)"/><path fill="#383A48" d="M154,268.2 C132.9,268.2 112.9,260.5 97.2,246.2 L2.6,160.1 C0.6,158.2 0.4,155.1 2.3,153 C4.2,151 7.3,150.8 9.4,152.7 L104,238.8 C118.7,252.2 137.8,259 157.7,258.1 C177.6,257.2 196,248.5 209.4,233.8 L306.2,127.3 C333.9,96.9 331.6,49.6 301.2,21.9 L287.2,9.1 C285.2,7.2 285,4.1 286.9,2 C288.8,5.68434189e-14 291.9,-0.2 294,1.7 L308,14.5 C342.5,45.9 345,99.5 313.7,134 L216.9,240.5 C201.7,257.2 180.9,267 158.3,268 C156.8,268.1 155.4,268.2 154,268.2 Z" transform="translate(189.000000, 215.000000)"/></g><g id="Path"><path fill="#F6E049" d="M15.7,13.5 C29.8,-2 53.2,-3.7 67.9,9.6 L225.1,152.6 C239.8,166 240.3,189.4 226.2,204.9 C212.1,220.4 188.7,222.1 174,208.8 L16.8,65.8 C2.1,52.5 1.6,29.1 15.7,13.5 Z" transform="translate(243.000000, 365.000000)"/><path fill="#383A48" d="M228.5,149 L151.3,78.8 C149.4,77 146.4,77.1 144.5,78.9 L144.5,78.9 C142.4,80.9 142.5,84.3 144.6,86.2 L221.8,156.4 C227.9,161.9 231.3,169.7 231.5,178.2 C231.7,186.8 228.5,195.1 222.5,201.7 C216.5,208.3 208.5,212.2 200,212.8 C191.5,213.4 183.5,210.7 177.4,205.2 L20.2,62.2 C19.1,61.2 18.1,60.1 17.2,59 L0.7,44 C1.7,53.6 6,62.8 13.5,69.6 L170.7,212.6 C178.1,219.3 187.5,222.9 197.6,222.9 C198.6,222.9 199.7,222.9 200.7,222.8 C211.8,222 222.2,216.9 229.9,208.4 C237.6,199.9 241.7,189.1 241.5,178 C241.3,166.7 236.6,156.4 228.5,149 Z" transform="translate(243.000000, 365.000000)"/></g><g id="Path"><path fill="#F6E049" d="M10.3,12.9 C24.4,-2.6 47.8,-4.3 62.6,9.1 L220.2,152.5 C235,165.9 235.5,189.4 221.4,204.9 C207.3,220.4 183.9,222.1 169.1,208.7 L11.5,65.3 C-3.3,51.9 -3.8,28.5 10.3,12.9 Z" transform="translate(332.000000, 339.000000)"/><path fill="#383A48" d="M236.4,174 C235.3,164.2 230.8,155.4 223.6,148.9 L113.7,48.9 C111.7,47 108.5,47.2 106.6,49.2 L106.6,49.2 C104.7,51.2 104.9,54.4 106.9,56.3 L217,156.4 C223,161.9 226.4,169.6 226.6,178.1 C226.8,186.7 223.6,195.1 217.7,201.6 C205.5,215.1 185.2,216.6 172.5,205.1 L62.3,104.8 C60.4,103 57.4,103.1 55.5,104.9 L55.5,104.9 C53.4,106.9 53.5,110.3 55.6,112.2 L165.8,212.4 C173.4,219.3 183.1,222.7 192.8,222.7 C204.5,222.7 216.4,217.8 225.1,208.2 C232.8,199.7 236.9,188.9 236.6,177.7 C236.6,176.5 236.5,175.3 236.4,174 Z" transform="translate(332.000000, 339.000000)"/></g><g id="Path"><path fill="#F6E049" d="M11.6,14.5 C26.3,-1.7 50.3,-4 65,9.5 L246.7,174.8 C261.5,188.2 261.5,212.2 246.7,228.4 C232,244.6 208,246.9 193.3,233.4 L11.6,68.2 C-3.1,54.7 -3.2,30.7 11.6,14.5 Z" transform="translate(383.000000, 280.000000)"/><path fill="#383A48" d="M257,179.5 C255.1,176.4 252.8,173.6 250.1,171.1 L238.7,160.7 L116.1,49.2 C114.1,47.3 110.9,47.5 109,49.5 L109,49.5 C107.1,51.5 107.3,54.7 109.3,56.6 L231.9,168.1 L243.3,178.5 C249.4,184 252.7,191.9 252.7,200.6 C252.7,209.5 249.2,218.2 243,225.1 C230.1,239.2 209.3,241.3 196.6,229.8 L62.6,107.9 C60.6,106 57.4,106.2 55.5,108.2 L55.5,108.2 C53.6,110.2 53.8,113.4 55.8,115.3 L166,215.4 L185.4,233 L190,237.2 C197.4,244 206.9,247.2 216.5,247.2 C228.7,247.2 241.2,242 250.5,231.8 C258.5,223 262.9,211.9 262.9,200.6 C262.8,192.8 260.8,185.6 257,179.5 Z" transform="translate(383.000000, 280.000000)"/></g><g id="Path"><path fill="#F6E049" d="M251.9,219.9 C239.7,246.1 207.7,251.1 188.3,233.4 L62,118.5 L53.5,110.8 L13.8,74.6 C1.6,63.5 -2.2,46.5 3,31.8 C6,23.2 12.1,15.4 21.3,10 C24.9,7.9 29,6.5 33.3,5.8 C35.6,5.4 37.9,5.3 40.2,5.3 C50.1,5.4 60.3,8.8 67.2,15.1 L154,94.1 L242.4,174.5 C254.1,185.2 258.5,205.6 251.9,219.9 Z" transform="translate(430.000000, 211.000000)"/><path fill="#383A48" d="M245.9,170.9 L70.6,11.5 C63.1,4.7 51.8,0.5 40.3,0.4 C37.7,0.4 35.1,0.6 32.5,1 C31.5,1.2 30.4,1.4 29.5,1.6 C32.1,4.5 34.7,7.4 37.2,10.5 C38.1,10.4 39,10.4 39.8,10.4 L40.2,10.4 C49.2,10.5 58.1,13.6 63.8,18.9 L239.1,178.4 C249.2,187.6 253,205.7 247.4,217.8 C242.4,228.5 233.2,235.9 222.1,238.2 C211.2,240.4 199.8,237.3 191.6,229.8 L69,118.3 C67,116.4 63.8,116.6 61.9,118.6 L61.9,118.6 C60,120.6 60.2,123.8 62.2,125.7 L184.8,237.2 C191.8,243.6 200.6,247.5 209.9,248.6 C211.6,248.8 213.4,248.9 215.1,248.9 C218,248.9 221,248.6 223.9,248 C238.1,245.1 249.9,235.7 256.3,222.1 L256.3,222.1 C263.9,205.9 259.2,183 245.9,170.9 Z" transform="translate(430.000000, 211.000000)"/></g><path id="Path" fill="#F6E049" d="M499,321.9 L389.8,440.8 C361.8,471.6 314.2,473.2 282.5,444.3 L219.2,386.7 C158.8,331.7 153,239.4 206.3,180.7 C259.6,122.1 293.8,103.2 366.2,149.3 L440.6,193.4 C472.3,222.2 527,291.1 499,321.9 Z"/><g id="Path"><path fill="#F3F6E6" d="M163.8,346.3 L56.3,255.8 C-2.5,206.2 -11.1,118.8 36.9,58.7 L36.9,58.7 C85.8,-2.5 175.1,-12.4 236.3,36.5 L338.2,117.3"/><path fill="#383A48" d="M163.8,351.3 C162.7,351.3 161.5,350.9 160.6,350.1 L53,259.7 C23.5,234.9 5.2,200.1 1.5,161.7 C-2.3,123.4 8.9,85.7 33,55.6 C83.6,-7.6 176.2,-17.9 239.4,32.7 L341.3,113.5 C343.5,115.2 343.8,118.4 342.1,120.5 C340.4,122.6 337.2,123 335.1,121.3 L233.2,40.5 C204.6,17.6 168.9,7.3 132.6,11.3 C96.3,15.3 63.7,33.3 40.8,61.8 C18.4,89.8 8,125 11.5,160.7 C15,196.4 32.1,228.9 59.5,252 L167,342.5 C169.1,344.3 169.4,347.4 167.6,349.5 C166.6,350.7 165.2,351.3 163.8,351.3 Z"/></g><g fill="#383A48" transform="translate(20.000000, 4.000000)"><circle id="Oval" cx="252.6" cy="79.7" r="5"/><path id="Path" d="M250,100.9 C250.9,100.4 251.8,99.9 252.7,99.5 C252.7,99.5 252.7,99.5 252.6,99.5 C250.7,99.5 249.1,100.6 248.2,102.1 C248.8,101.6 249.4,101.2 250,100.9 Z"/><circle id="Oval" cx="227.9" cy="55.1" r="5"/><circle id="Oval" cx="227.9" cy="79.7" r="5"/><circle id="Oval" cx="227.9" cy="104.4" r="5"/><circle id="Oval" cx="203.3" cy="30.4" r="5"/><circle id="Oval" cx="203.3" cy="55.1" r="5"/><circle id="Oval" cx="203.3" cy="79.7" r="5"/><circle id="Oval" cx="203.3" cy="104.4" r="5"/><circle id="Oval" cx="203.3" cy="129.1" r="5"/><path id="Path" d="M203.3,158.7 C205.2,158.7 206.8,157.6 207.7,156.1 C207.9,155.6 208.1,155.1 208.3,154.5 C208.3,154.2 208.4,154 208.4,153.7 C208.4,150.9 206.2,148.7 203.4,148.7 C200.6,148.7 198.4,150.9 198.4,153.7 C198.4,156.5 200.5,158.7 203.3,158.7 Z"/><circle id="Oval" cx="178.6" cy="30.4" r="5"/><circle id="Oval" cx="178.6" cy="55.1" r="5"/><circle id="Oval" cx="178.6" cy="79.7" r="5"/><circle id="Oval" cx="178.6" cy="104.4" r="5"/><circle id="Oval" cx="178.6" cy="129.1" r="5"/><circle id="Oval" cx="178.6" cy="153.7" r="5"/><circle id="Oval" cx="178.6" cy="178.4" r="5"/><circle id="Oval" cx="153.9" cy="5.7" r="5"/><circle id="Oval" cx="153.9" cy="30.4" r="5"/><circle id="Oval" cx="153.9" cy="55.1" r="5"/><circle id="Oval" cx="153.9" cy="79.7" r="5"/><circle id="Oval" cx="153.9" cy="104.4" r="5"/><circle id="Oval" cx="153.9" cy="129.1" r="5"/><circle id="Oval" cx="153.9" cy="153.7" r="5"/><circle id="Oval" cx="153.9" cy="178.4" r="5"/><circle id="Oval" cx="153.9" cy="203.1" r="5"/><path id="Path" d="M154.8,232.7 C155.7,230 156.8,227.4 158,224.9 C157.1,223.6 155.6,222.8 153.9,222.8 C151.1,222.8 148.9,225 148.9,227.8 C148.9,230.6 151.1,232.8 153.9,232.8 C154.2,232.7 154.5,232.7 154.8,232.7 Z"/><path id="Path" d="M151.1,248.3 C149.8,249.2 149,250.7 149,252.4 C149,253.8 149.6,255.1 150.5,256 C150.5,253.4 150.7,250.9 151.1,248.3 Z"/><path id="Path" d="M152.8,275.7 C152.5,274.6 152.2,273.5 152,272.5 C150.2,273.2 148.9,275 148.9,277.1 C148.9,279.9 151.1,282.1 153.9,282.1 C154.2,282.1 154.6,282.1 154.9,282 C154.1,279.9 153.4,277.8 152.8,275.7 Z"/><circle id="Oval" cx="153.9" cy="301.7" r="5"/><circle id="Oval" cx="153.9" cy="326.4" r="5"/><circle id="Oval" cx="129.3" cy="5.7" r="5"/><circle id="Oval" cx="129.3" cy="30.4" r="5"/><circle id="Oval" cx="129.3" cy="55.1" r="5"/><circle id="Oval" cx="129.3" cy="79.7" r="5"/><circle id="Oval" cx="129.3" cy="104.4" r="5"/><circle id="Oval" cx="129.3" cy="129.1" r="5"/><circle id="Oval" cx="129.3" cy="153.7" r="5"/><circle id="Oval" cx="129.3" cy="178.4" r="5"/><circle id="Oval" cx="129.3" cy="203.1" r="5"/><circle id="Oval" cx="129.3" cy="227.7" r="5"/><circle id="Oval" cx="129.3" cy="252.4" r="5"/><circle id="Oval" cx="129.3" cy="277.1" r="5"/><circle id="Oval" cx="129.3" cy="301.7" r="5"/><circle id="Oval" cx="129.3" cy="326.4" r="5"/><circle id="Oval" cx="104.6" cy="5.7" r="5"/><circle id="Oval" cx="104.6" cy="30.4" r="5"/><circle id="Oval" cx="104.6" cy="55.1" r="5"/><circle id="Oval" cx="104.6" cy="79.7" r="5"/><circle id="Oval" cx="104.6" cy="104.4" r="5"/><circle id="Oval" cx="104.6" cy="129.1" r="5"/><circle id="Oval" cx="104.6" cy="153.7" r="5"/><circle id="Oval" cx="104.6" cy="178.4" r="5"/><circle id="Oval" cx="104.6" cy="203.1" r="5"/><circle id="Oval" cx="104.6" cy="227.7" r="5"/><circle id="Oval" cx="104.6" cy="252.4" r="5"/><circle id="Oval" cx="104.6" cy="277.1" r="5"/><circle id="Oval" cx="104.6" cy="301.7" r="5"/><circle id="Oval" cx="79.9" cy="30.4" r="5"/><circle id="Oval" cx="79.9" cy="55.1" r="5"/><circle id="Oval" cx="79.9" cy="79.7" r="5"/><circle id="Oval" cx="79.9" cy="104.4" r="5"/><circle id="Oval" cx="79.9" cy="129.1" r="5"/><circle id="Oval" cx="79.9" cy="153.7" r="5"/><circle id="Oval" cx="79.9" cy="178.4" r="5"/><circle id="Oval" cx="79.9" cy="203.1" r="5"/><circle id="Oval" cx="79.9" cy="227.7" r="5"/><circle id="Oval" cx="79.9" cy="252.4" r="5"/><circle id="Oval" cx="79.9" cy="277.1" r="5"/><circle id="Oval" cx="55.3" cy="30.4" r="5"/><circle id="Oval" cx="55.3" cy="55.1" r="5"/><circle id="Oval" cx="55.3" cy="79.7" r="5"/><circle id="Oval" cx="55.3" cy="104.4" r="5"/><circle id="Oval" cx="55.3" cy="129.1" r="5"/><circle id="Oval" cx="55.3" cy="153.7" r="5"/><circle id="Oval" cx="55.3" cy="178.4" r="5"/><circle id="Oval" cx="55.3" cy="203.1" r="5"/><circle id="Oval" cx="55.3" cy="227.7" r="5"/><circle id="Oval" cx="55.3" cy="252.4" r="5"/><circle id="Oval" cx="30.6" cy="55.1" r="5"/><circle id="Oval" cx="30.6" cy="79.7" r="5"/><circle id="Oval" cx="30.6" cy="104.4" r="5"/><circle id="Oval" cx="30.6" cy="129.1" r="5"/><circle id="Oval" cx="30.6" cy="153.7" r="5"/><circle id="Oval" cx="30.6" cy="178.4" r="5"/><circle id="Oval" cx="30.6" cy="203.1" r="5"/><circle id="Oval" cx="30.6" cy="227.7" r="5"/><circle id="Oval" cx="5.9" cy="79.7" r="5"/><circle id="Oval" cx="5.9" cy="104.4" r="5"/><circle id="Oval" cx="5.9" cy="129.1" r="5"/><circle id="Oval" cx="5.9" cy="153.7" r="5"/><circle id="Oval" cx="5.9" cy="178.4" r="5"/><circle id="Oval" cx="5.9" cy="203.1" r="5"/></g><g id="Path"><path fill="#F6E049" d="M206.6,389.5 L51.2,257.9 C-7.6,208.3 -8.7,118.8 39.3,58.7 L39.3,58.7 C88.2,-2.5 177.5,-12.4 238.7,36.5 L281.5,69.7 C288.7,75.3 296.9,79.5 305.7,82.2 L465.4,129.9 C489.8,136.9 460.1,148.4 453.2,172.8 C446.3,197.2 464.7,225.3 440.3,218.3 L354.3,192.7 C318.2,181.7 248.5,264.6 190.1,178.6" transform="translate(83.000000, 68.000000)"/><path fill="#383A48" d="M206.6,394.5 C205.5,394.5 204.3,394.1 203.4,393.3 L48,261.7 C19,237.2 2,202 0.2,162.5 C-1.5,124.1 11,86.2 35.4,55.6 C86,-7.6 178.6,-17.9 241.8,32.7 L284.5,65.9 C291.3,71.2 298.9,75.1 307.1,77.5 L466.8,125.2 C471.8,126.6 477.7,129 479.4,134.4 C481.3,140.5 476.6,146 471.3,152.5 C466.5,158.3 460.4,165.6 457.9,174.3 C455.5,182.9 456.5,192.2 457.5,200.4 C458.6,209.6 459.5,217.6 454.3,222 C449.8,225.8 443.3,224.6 438.8,223.3 L352.8,197.7 C342.7,194.6 328.3,200.7 311.6,207.7 C294.5,214.8 274.4,223.3 253.5,223.3 C230.9,223.3 207.5,213.5 185.9,181.7 C184.3,179.4 184.9,176.3 187.2,174.8 C189.5,173.3 192.6,173.8 194.1,176.1 C231.1,230.6 271.8,213.5 307.6,198.5 C326.1,190.8 342.1,184.1 355.6,188.2 L441.5,213.8 C446.4,215.2 447.7,214.5 447.7,214.5 C448.8,213.2 447.9,206 447.4,201.7 C446.4,193 445.1,182.2 448.1,171.7 C451.2,160.9 458,152.8 463.4,146.2 C465.9,143.2 469.3,139.1 469.6,137.5 C469.2,137.1 467.9,136.1 463.8,134.9 L304.3,87 C294.9,84.2 286.2,79.7 278.5,73.7 L235.7,40.5 C207.1,17.6 171.4,7.3 135,11.3 C98.7,15.3 66.1,33.3 43.2,61.8 C20.3,90.5 8.5,126 10.1,162 C11.7,198.7 27.5,231.4 54.4,254 L209.8,385.6 C211.9,387.4 212.2,390.5 210.4,392.6 C209.4,393.9 208,394.5 206.6,394.5 Z" transform="translate(83.000000, 68.000000)"/></g></g><path id="Path" fill="#383A48" d="M577.9,296.3 L491.1,217.3 C483.6,210.5 472.2,206.3 460.8,206.2 C459.8,206.2 458.8,206.5 457.9,207.1 C456.3,208.2 454.8,209.3 453.3,210.3 C442.9,217.6 432.2,225.2 420.6,233.6 C388.5,256.9 365.2,274.9 363.4,276.3 C352.3,284 344.8,295.6 342.3,309 C339.9,322.4 342.8,335.9 350.5,347.1 C358.2,358.3 369.9,365.8 383.3,368.3 C386.4,368.9 389.5,369.1 392.6,369.1 C402.9,369.1 412.9,366 421.5,360 L494.7,308.1 C495.9,307.3 497.2,306.5 498.7,305.9 C507.7,302.2 521.9,303.2 536.9,304.3 C548.7,305.1 562.1,306 575.1,304.9 C577.1,304.7 578.8,303.4 579.4,301.5 C579.9,299.7 579.4,297.7 577.9,296.3 Z"/><g id="Path"><path fill="#F6E049" d="M277.7,128.4 C238.8,164.9 175.2,133.1 150.9,150.5 L77.7,202.4 C56.8,216.8 28.2,211.6 13.7,190.7 C-0.7,169.8 4.5,141.2 25.4,126.7 C25.4,126.7 119,54.1 199,5.6" transform="translate(336.000000, 129.000000)"/><path fill="#383A48" d="M51.7,215.6 C48.6,215.6 45.5,215.3 42.4,214.8 C29,212.4 17.4,204.8 9.6,193.6 C-6.3,170.5 -0.6,138.8 22.4,122.8 C26.1,119.9 118.3,48.8 196.4,1.4 C198.8,1.13575815e-13 201.8,0.7 203.3,3.1 C204.7,5.5 204,8.5 201.6,10 C122.8,57.7 29.4,130 28.5,130.7 C28.4,130.8 28.4,130.8 28.3,130.9 C9.7,143.7 5,169.3 17.9,187.9 C24.1,196.9 33.5,202.9 44.2,204.9 C55,206.9 65.9,204.5 74.9,198.3 L148,146.5 C159.5,138.3 176.7,139.5 196.7,140.9 C223.1,142.7 252.9,144.8 274.3,124.8 C276.3,122.9 279.5,123 281.4,125 C283.3,127 283.2,130.2 281.2,132.1 C256.7,155.1 223.1,152.7 196.1,150.9 C178,149.6 162.4,148.6 153.9,154.7 L80.7,206.6 C71.9,212.5 61.9,215.6 51.7,215.6 Z" transform="translate(336.000000, 129.000000)"/></g><g transform="translate(381.000000, 509.000000)"><path id="Path" fill="#F6E049" d="M87.3,17.1 C73.6,2.1 49.8,1.5 34.2,15.8 L18,30.9 C2.3,45.2 0.7,68.9 14.3,83.9 C28,98.9 51.8,99.5 67.4,85.2 L83.5,70.1 C99.3,55.9 100.9,32.1 87.3,17.1 Z"/><path id="Shape" fill="#383A48" d="M41,100.6 C29.7,100.6 18.6,96.1 10.6,87.3 C-4.9,70.3 -3.1,43.3 14.6,27.2 L30.7,12.1 C48.5,-4.1 75.5,-3.3 91,13.7 L91,13.7 C106.5,30.7 104.7,57.7 87,73.8 L70.9,88.9 C62.3,96.7 51.6,100.6 41,100.6 Z M60.5,10.5 C52.4,10.5 44.1,13.5 37.5,19.5 L21.4,34.6 C7.7,47 6.2,67.7 18,80.6 C29.8,93.5 50.5,94 64.1,81.6 L80.2,66.5 C93.9,54.1 95.4,33.4 83.6,20.5 C77.5,13.8 69.1,10.5 60.5,10.5 Z"/></g><g transform="translate(307.000000, 464.000000)"><path id="Path" fill="#F6E049" d="M99.8,18 C85.4,2.2 60.6,1.5 44.2,16.3 L19.1,39.3 C2.8,54.2 1.2,79 15.5,94.8 C29.9,110.6 54.7,111.3 71.1,96.5 L96.2,73.5 C112.6,58.6 114.2,33.8 99.8,18 Z"/><path id="Shape" fill="#383A48" d="M43.8,112.1 C32,112.1 20.3,107.4 11.9,98.1 C-4.3,80.3 -2.5,52.2 15.8,35.6 L40.9,12.6 C49.8,4.5 61.1,0.3 73,0.6 C84.9,1 95.7,5.9 103.6,14.6 C111.5,23.2 115.4,34.5 114.6,46.4 C113.8,58.2 108.5,69.1 99.7,77.2 L74.6,100.2 C65.7,108.2 54.7,112.1 43.8,112.1 Z M71.6,10.6 C62.8,10.6 54.3,13.9 47.7,20 L22.6,43 C8.3,56 6.9,77.7 19.3,91.4 C31.8,105.1 53.5,105.7 67.8,92.7 L92.9,69.7 C99.8,63.4 104,54.9 104.6,45.7 C105.2,36.6 102.2,27.9 96.2,21.3 L96.2,21.3 C90.2,14.7 81.8,10.9 72.7,10.6 C72.3,10.6 71.9,10.6 71.6,10.6 Z"/></g><g transform="translate(196.000000, 341.000000)"><path id="Path" fill="#F6E049" d="M109,18.6 C94.1,2.3 68.9,1.1 52.5,15.9 L18.4,48.2 C2.1,63.1 0.9,88.3 15.7,104.7 C30.6,121 55.8,122.2 72.2,107.4 L106.3,75.1 C122.7,60.2 123.9,34.9 109,18.6 Z"/><path id="Shape" fill="#383A48" d="M45.4,122.8 C33.2,122.8 21,117.9 12.1,108.1 C4,99.2 -0.1,87.7 0.4,75.7 C1,63.7 6.2,52.7 15,44.6 L49,12.3 C49,12.3 49.1,12.3 49.1,12.2 C67.4,-4.5 95.9,-3.1 112.6,15.2 L112.6,15.2 C129.3,33.5 127.9,62 109.6,78.7 L75.6,111 C75.6,111 75.5,111 75.5,111.1 C67,118.9 56.2,122.8 45.4,122.8 Z M55.9,19.6 L21.9,51.9 C21.9,51.9 21.8,51.9 21.8,52 C14.9,58.3 10.8,66.9 10.4,76.2 C10,85.5 13.2,94.5 19.5,101.4 C32.5,115.7 54.6,116.7 68.9,103.8 L102.9,71.5 C102.9,71.5 103,71.5 103,71.4 C117.3,58.4 118.3,36.3 105.3,22 L105.3,22 C92.3,7.7 70.2,6.6 55.9,19.6 Z"/></g><g transform="translate(241.000000, 407.000000)"><path id="Path" fill="#F6E049" d="M109.1,18.7 C94.2,2.4 69,1.2 52.6,16 L18.5,48.3 C2.2,63.2 1,88.4 15.8,104.8 C30.7,121.1 55.9,122.3 72.3,107.5 L106.4,75.2 C122.8,60.3 124,35 109.1,18.7 Z"/><path id="Shape" fill="#383A48" d="M45.5,122.9 C33.3,122.9 21.1,118 12.2,108.2 C4.1,99.3 0,87.8 0.5,75.8 C1.1,63.8 6.3,52.8 15.1,44.7 L49.1,12.4 C49.1,12.4 49.2,12.4 49.2,12.3 C67.5,-4.4 96,-3 112.7,15.3 C120.8,24.2 124.9,35.7 124.4,47.7 C123.8,59.7 118.6,70.7 109.8,78.8 L75.8,111.1 C75.8,111.1 75.7,111.1 75.7,111.2 C67.2,119 56.3,122.9 45.5,122.9 Z M56.1,19.7 L22,52 C22,52 21.9,52 21.9,52.1 C15,58.4 10.9,67 10.5,76.3 C10.1,85.6 13.3,94.6 19.6,101.5 C32.6,115.8 54.7,116.8 69,103.9 L103,71.6 C103,71.6 103.1,71.6 103.1,71.5 C110,65.2 114.1,56.6 114.5,47.3 C114.9,38 111.7,29 105.4,22.1 L105.4,22.1 C92.5,7.8 70.3,6.7 56.1,19.7 Z"/></g></g><path id="Path" fill="#383A48" fill-rule="nonzero" d="M977.7,791.5 L426.8,791.5 C424,791.5 421.8,789.3 421.8,786.5 C421.8,783.7 424,781.5 426.8,781.5 L977.7,781.5 C980.5,781.5 982.7,783.7 982.7,786.5 C982.7,789.3 980.5,791.5 977.7,791.5 Z"/><path id="Shape" fill="#383A48" fill-rule="nonzero" d="M1052.5,659.6 C1051.2,659.6 1049.9,659.1 1049,658.1 C1047,656.1 1047,653 1049,651 C1096.8,603.2 1143.5,546.6 1161.2,507.2 C1159.6,507.3 1158.1,507.2 1156.5,507.2 C1143.1,506.5 1132.1,500.4 1125.5,489.9 C1118.2,478.4 1117.8,466.6 1124.3,457.4 C1130.9,448.1 1143.6,443.5 1155.2,446.2 C1167.4,449.1 1175.8,459.1 1178.2,473.7 C1179.2,479.9 1178.5,486.9 1176.4,494.5 C1232.9,477.9 1310.8,387.8 1355.1,331.5 C1356.8,329.3 1360,329 1362.1,330.7 C1364.3,332.4 1364.6,335.6 1362.9,337.7 C1306.3,409.6 1229.7,493.6 1172.6,505.8 C1150.5,561.5 1073.9,640.1 1056,658.1 C1055,659.1 1053.8,659.6 1052.5,659.6 Z M1148.5,455.5 C1142.2,455.5 1135.9,458.4 1132.4,463.3 C1128.3,469.1 1128.8,476.6 1133.9,484.6 C1137.3,490 1144.1,496.6 1157,497.3 C1159.7,497.4 1162.5,497.3 1165.3,497 C1168.1,488.6 1169.3,481.3 1168.3,475.4 C1166.6,464.8 1161.1,458 1152.9,456 C1151.5,455.7 1150,455.5 1148.5,455.5 Z"/><g fill-rule="nonzero"><g transform="translate(1150.000000, 532.000000) translate(0.000000, 137.000000)"><circle id="Oval" cx="50.6" cy="50.8" r="45.6" fill="#F6E049"/><path id="Shape" fill="#383A48" d="M50.6,101.3 C37.7,101.3 24.7,96.4 14.9,86.5 C-4.8,66.8 -4.8,34.7 14.9,15 C34.6,-4.7 66.7,-4.7 86.4,15 C106.1,34.7 106.1,66.8 86.4,86.5 C76.5,96.4 63.6,101.3 50.6,101.3 Z M50.6,10.2 C40.2,10.2 29.8,14.2 21.9,22.1 C6.1,37.9 6.1,63.6 21.9,79.5 C37.7,95.3 63.4,95.3 79.3,79.5 C95.1,63.7 95.1,38 79.3,22.1 C71.4,14.2 61,10.2 50.6,10.2 Z"/></g><g transform="translate(1150.000000, 532.000000) translate(45.000000, 91.000000)"><circle id="Oval" cx="51.2" cy="51.2" r="45.6" fill="#F6E049"/><path id="Shape" fill="#383A48" d="M51.2,101.8 C37.7,101.8 25,96.5 15.5,87 L15.5,87 L15.5,87 C6,77.5 0.7,64.8 0.7,51.3 C0.7,37.8 6,25.1 15.5,15.6 C25,6.1 37.7,0.8 51.2,0.8 C64.7,0.8 77.4,6.1 86.9,15.6 C96.4,25.1 101.7,37.8 101.7,51.3 C101.7,64.8 96.4,77.5 86.9,87 C77.4,96.5 64.7,101.8 51.2,101.8 Z M51.2,10.7 C40.4,10.7 30.2,14.9 22.5,22.6 C14.8,30.3 10.6,40.4 10.6,51.3 C10.6,62.1 14.8,72.3 22.5,80 L22.5,80 C30.2,87.7 40.3,91.9 51.2,91.9 C62,91.9 72.2,87.7 79.9,80 C87.6,72.3 91.8,62.2 91.8,51.3 C91.8,40.5 87.6,30.3 79.9,22.6 C72.2,14.9 62,10.7 51.2,10.7 Z"/></g><g transform="translate(1150.000000, 532.000000) translate(91.000000, 46.000000)"><circle id="Oval" cx="50.7" cy="50.7" r="45.6" fill="#F6E049"/><path id="Shape" fill="#383A48" d="M50.7,101.2 C37.8,101.2 24.8,96.3 15,86.4 L15,86.4 C-4.7,66.7 -4.7,34.6 15,14.9 C34.7,-4.8 66.8,-4.8 86.5,14.9 C106.2,34.6 106.2,66.7 86.5,86.4 C76.6,96.3 63.7,101.2 50.7,101.2 Z M22.1,79.4 C37.9,95.2 63.6,95.2 79.5,79.4 C87.2,71.7 91.4,61.6 91.4,50.7 C91.4,39.8 87.2,29.7 79.5,22 C63.7,6.2 38,6.2 22.1,22 C6.2,37.8 6.2,63.5 22.1,79.4 L22.1,79.4 Z"/></g><g transform="translate(1150.000000, 532.000000) translate(136.000000, 0.000000)"><circle id="Oval" cx="51.3" cy="51.1" r="45.6" fill="#AAC6FC"/><path id="Shape" fill="#383A48" d="M51.3,101.7 C38.4,101.7 25.4,96.8 15.6,86.9 C-4.1,67.2 -4.1,35.1 15.6,15.4 C35.3,-4.3 67.4,-4.3 87.1,15.4 C106.8,35.1 106.8,67.2 87.1,86.9 C77.2,96.7 64.2,101.7 51.3,101.7 Z M51.3,10.6 C40.9,10.6 30.5,14.6 22.6,22.5 C6.8,38.3 6.8,64 22.6,79.9 C38.4,95.7 64.1,95.7 80,79.9 C95.8,64.1 95.8,38.4 80,22.5 C72.1,14.5 61.7,10.6 51.3,10.6 Z"/></g></g><g id="Path" fill="#383A48" fill-rule="nonzero"><path d="M48.1,29.6 C45.3,29.6 43.1,27.4 43.1,24.6 L43.1,5.8 C43.1,3 45.3,0.8 48.1,0.8 C50.9,0.8 53.1,3 53.1,5.8 L53.1,24.6 C53.1,27.4 50.9,29.6 48.1,29.6 Z" transform="translate(682.000000, 125.000000)"/><path d="M48.1,96.9 C45.3,96.9 43.1,94.7 43.1,91.9 L43.1,73.1 C43.1,70.3 45.3,68.1 48.1,68.1 C50.9,68.1 53.1,70.3 53.1,73.1 L53.1,91.9 C53.1,94.7 50.9,96.9 48.1,96.9 Z" transform="translate(682.000000, 125.000000)"/><path d="M23.8,53.9 L5,53.9 C2.2,53.9 0,51.7 0,48.9 C0,46.1 2.2,43.9 5,43.9 L23.8,43.9 C26.6,43.9 28.8,46.1 28.8,48.9 C28.8,51.7 26.6,53.9 23.8,53.9 Z" transform="translate(682.000000, 125.000000)"/><path d="M91.2,53.9 L72.4,53.9 C69.6,53.9 67.4,51.7 67.4,48.9 C67.4,46.1 69.6,43.9 72.4,43.9 L91.2,43.9 C94,43.9 96.2,46.1 96.2,48.9 C96.2,51.7 93.9,53.9 91.2,53.9 Z" transform="translate(682.000000, 125.000000)"/><path d="M30.9,36.7 C29.6,36.7 28.3,36.2 27.4,35.2 L14.1,22 C12.1,20 12.1,16.9 14.1,14.9 C16.1,12.9 19.2,12.9 21.2,14.9 L34.5,28.2 C36.5,30.2 36.5,33.3 34.5,35.3 C33.5,36.2 32.2,36.7 30.9,36.7 Z" transform="translate(682.000000, 125.000000)"/><path d="M78.5,84.3 C77.2,84.3 75.9,83.8 75,82.8 L61.7,69.5 C59.7,67.5 59.7,64.4 61.7,62.4 C63.7,60.4 66.8,60.4 68.8,62.4 L82.1,75.7 C84.1,77.7 84.1,80.8 82.1,82.8 C81.1,83.8 79.8,84.3 78.5,84.3 Z" transform="translate(682.000000, 125.000000)"/><path d="M17.7,84.3 C16.4,84.3 15.1,83.8 14.2,82.8 C12.2,80.8 12.2,77.7 14.2,75.7 L27.5,62.4 C29.5,60.4 32.6,60.4 34.6,62.4 C36.6,64.4 36.6,67.5 34.6,69.5 L21.3,82.8 C20.2,83.8 18.9,84.3 17.7,84.3 Z" transform="translate(682.000000, 125.000000)"/><path d="M65.3,36.7 C64,36.7 62.7,36.2 61.8,35.2 C59.8,33.2 59.8,30.1 61.8,28.1 L75.1,14.8 C77.1,12.8 80.2,12.8 82.2,14.8 C84.2,16.8 84.2,19.9 82.2,21.9 L68.9,35.2 C67.8,36.2 66.6,36.7 65.3,36.7 Z" transform="translate(682.000000, 125.000000)"/></g><g fill-rule="nonzero" transform="translate(1236.000000, 1.000000)"><polygon id="Path" fill="#E0719E" points="5.6 158.4 159 158.4 159 5"/><path id="Shape" fill="#383A48" d="M159,163.4 L5.7,163.4 C3.7,163.4 1.9,162.2 1.1,160.3 C0.3,158.4 0.8,156.3 2.2,154.9 L155.5,1.6 C156.9,0.2 159.1,-0.3 160.9,0.5 C162.8,1.3 164,3.1 164,5.1 L164,158.4 C164,161.1 161.7,163.4 159,163.4 Z M17.7,153.4 L154,153.4 L154,17.1 L17.7,153.4 Z"/></g><path id="Path" fill="#383A48" fill-rule="nonzero" d="M49.3,351.4 C48,351.4 46.7,350.9 45.8,349.9 C43.8,347.9 43.8,344.8 45.8,342.8 L60.3,328.2 C69.2,319.3 69.1,304.9 60.3,296.1 L45.8,281.7 C33,268.9 33,248.2 45.8,235.4 L60.2,220.9 C64.5,216.6 66.9,210.9 66.8,204.8 C66.8,198.7 64.4,193 60.1,188.7 L45.6,174.3 C39.4,168.1 36,159.9 36,151.2 C36,142.5 39.4,134.2 45.6,128.1 L60,113.6 C68.9,104.7 68.8,90.3 60,81.5 L44.1,65.6 C42.1,63.6 42.1,60.5 44.1,58.5 C46.1,56.5 49.2,56.5 51.2,58.5 L67.1,74.4 C79.9,87.2 79.9,107.9 67.1,120.7 L52.7,135.2 C48.4,139.5 46,145.2 46.1,151.3 C46.1,157.4 48.5,163.1 52.8,167.4 L67.3,181.8 C73.5,188 76.9,196.2 76.9,204.9 C76.9,213.6 73.5,221.9 67.3,228 L52.9,242.5 C44,251.4 44.1,265.8 52.9,274.6 L67.4,289 C80.2,301.8 80.2,322.5 67.4,335.3 L52.8,350 C51.9,351 50.6,351.4 49.3,351.4 Z"/><g transform="translate(158.000000, 266.000000)"><rect id="Rectangle" width="10" height="31.7" x="11.8" y=".4" fill="#383A48" fill-rule="nonzero"/><g transform="translate(0.000000, 11.000000)"><line id="Path" x1=".9" x2="32.6" y1="5.3" y2="5.3"/><rect id="Rectangle" width="31.7" height="10" x=".9" y=".3" fill="#383A48" fill-rule="nonzero"/></g></g><g transform="translate(382.000000, 43.000000)"><rect id="Rectangle" width="10" height="31.7" x="10.9" y=".3" fill="#383A48" fill-rule="nonzero"/><g transform="translate(0.000000, 11.000000)"><line id="Path" x1="0" x2="31.7" y1="5.2" y2="5.2"/><rect id="Rectangle" width="31.7" height="10" x="0" y=".2" fill="#383A48" fill-rule="nonzero"/></g></g></g></g></g></svg>