<?xml version="1.0" encoding="UTF-8"?>
<svg width="1368px" height="750px" viewBox="0 0 1368 750" version="1.1" xmlns="http://www.w3.org/2000/svg" xmlns:xlink="http://www.w3.org/1999/xlink">
    <!-- Generator: Sketch 59.1 (86144) - https://sketch.com -->
    <title>team-sport</title>
    <desc>Created with Sketch.</desc>
    <g id="Page-1" stroke="none" stroke-width="1" fill="none" fill-rule="evenodd">
        <g id="team-sport" transform="translate(-276.000000, -165.000000)" fill-rule="nonzero">
            <g id="Group" transform="translate(276.000000, 165.000000)">
                <path d="M903.7,65.5 L791.4,65.5 L679.2,65.5 L567,65.5 L454.7,65.5 L342.4,65.5 L230.2,65.5 L117.9,65.5 L5.6,65.5 C2.8,65.5 0.6,67.7 0.6,70.5 L0.6,182.8 L0.6,295 L0.6,407.3 L0.6,519.6 L0.6,631.9 L0.6,744.2 C0.6,747 2.8,749.2 5.6,749.2 L117.9,749.2 L230.2,749.2 L342.5,749.2 L454.8,749.2 L567,749.2 L679.3,749.2 L791.6,749.2 L903.9,749.2 C906.7,749.2 908.9,747 908.9,744.2 L908.9,631.8 L908.9,519.5 L908.9,407.3 L908.9,295 L908.9,182.8 L908.9,70.5 C908.7,67.7 906.5,65.5 903.7,65.5 Z M898.7,290 L796.4,290 L796.4,187.8 L898.7,187.8 L898.7,290 Z M898.7,402.3 L796.4,402.3 L796.4,300 L898.7,300 L898.7,402.3 Z M898.7,514.5 L796.4,514.5 L796.4,412.3 L898.7,412.3 L898.7,514.5 Z M10.6,412.3 L112.9,412.3 L112.9,514.6 L10.6,514.6 L10.6,412.3 Z M10.6,300 L112.9,300 L112.9,402.3 L10.6,402.3 L10.6,300 Z M786.5,402.3 L684.2,402.3 L684.2,300 L786.5,300 L786.5,402.3 Z M674.2,402.3 L572,402.3 L572,300 L674.3,300 L674.3,402.3 L674.2,402.3 Z M562,402.3 L459.7,402.3 L459.7,300 L562,300 L562,402.3 Z M449.7,402.3 L347.4,402.3 L347.4,300 L449.7,300 L449.7,402.3 L449.7,402.3 Z M337.4,402.3 L235.2,402.3 L235.2,300 L337.5,300 L337.5,402.3 L337.4,402.3 Z M225.2,402.3 L122.9,402.3 L122.9,300 L225.2,300 L225.2,402.3 Z M122.9,412.3 L225.2,412.3 L225.2,514.6 L122.9,514.6 L122.9,412.3 Z M235.2,412.3 L337.5,412.3 L337.5,514.6 L235.2,514.6 L235.2,412.3 Z M347.4,412.3 L449.7,412.3 L449.7,514.6 L347.4,514.6 L347.4,412.3 Z M459.7,412.3 L562,412.3 L562,514.6 L459.7,514.6 L459.7,412.3 Z M572,412.3 L674.3,412.3 L674.3,514.6 L572,514.6 L572,412.3 Z M684.2,412.3 L786.5,412.3 L786.5,514.6 L684.2,514.6 L684.2,412.3 Z M786.5,290 L684.2,290 L684.2,187.8 L786.5,187.8 L786.5,290 Z M674.2,290 L572,290 L572,187.8 L674.3,187.8 L674.3,290 L674.2,290 Z M562,290 L459.7,290 L459.7,187.8 L562,187.8 L562,290 Z M449.7,290 L347.4,290 L347.4,187.8 L449.7,187.8 L449.7,290 L449.7,290 Z M337.4,290 L235.2,290 L235.2,187.8 L337.5,187.8 L337.5,290 L337.4,290 Z M225.2,290 L122.9,290 L122.9,187.8 L225.2,187.8 L225.2,290 Z M112.9,290 L10.6,290 L10.6,187.8 L112.9,187.8 L112.9,290 L112.9,290 Z M10.6,524.5 L112.9,524.5 L112.9,626.8 L10.6,626.8 L10.6,524.5 Z M122.9,524.5 L225.2,524.5 L225.2,626.8 L122.9,626.8 L122.9,524.5 Z M235.2,524.5 L337.5,524.5 L337.5,626.8 L235.2,626.8 L235.2,524.5 Z M347.4,524.5 L449.7,524.5 L449.7,626.8 L347.4,626.8 L347.4,524.5 Z M459.7,524.5 L562,524.5 L562,626.8 L459.7,626.8 L459.7,524.5 Z M572,524.5 L674.3,524.5 L674.3,626.8 L572,626.8 L572,524.5 Z M684.2,524.5 L786.5,524.5 L786.5,626.8 L684.2,626.8 L684.2,524.5 Z M796.5,524.5 L898.8,524.5 L898.8,626.8 L796.5,626.8 L796.5,524.5 Z M898.7,177.8 L796.4,177.8 L796.4,75.5 L898.7,75.5 L898.7,177.8 Z M786.5,177.8 L684.2,177.8 L684.2,75.5 L786.5,75.5 L786.5,177.8 Z M674.2,177.8 L572,177.8 L572,75.5 L674.3,75.5 L674.3,177.8 L674.2,177.8 Z M562,177.8 L459.7,177.8 L459.7,75.5 L562,75.5 L562,177.8 Z M449.7,177.8 L347.4,177.8 L347.4,75.5 L449.7,75.5 L449.7,177.8 L449.7,177.8 Z M337.4,177.8 L235.2,177.8 L235.2,75.5 L337.5,75.5 L337.5,177.8 L337.4,177.8 Z M225.2,177.8 L122.9,177.8 L122.9,75.5 L225.2,75.5 L225.2,177.8 Z M10.6,75.5 L112.9,75.5 L112.9,177.8 L10.6,177.8 L10.6,75.5 Z M10.6,636.8 L112.9,636.8 L112.9,739.1 L10.6,739.1 L10.6,636.8 Z M122.9,636.8 L225.2,636.8 L225.2,739.1 L122.9,739.1 L122.9,636.8 Z M235.2,636.8 L337.5,636.8 L337.5,739.1 L235.2,739.1 L235.2,636.8 Z M347.4,636.8 L449.7,636.8 L449.7,739.1 L347.4,739.1 L347.4,636.8 Z M459.7,636.8 L562,636.8 L562,739.1 L459.7,739.1 L459.7,636.8 Z M572,636.8 L674.3,636.8 L674.3,739.1 L572,739.1 L572,636.8 Z M684.2,636.8 L786.5,636.8 L786.5,739.1 L684.2,739.1 L684.2,636.8 Z M898.7,739.1 L796.4,739.1 L796.4,636.8 L898.7,636.8 L898.7,739.1 Z" id="Shape" fill="#E498B9"></path>
                <path d="M567,0.9 L5.6,0.9 C2.8,0.9 0.6,3.1 0.6,5.9 L0.6,407.2 C0.6,410 2.8,412.2 5.6,412.2 C8.4,412.2 10.6,410 10.6,407.2 C10.6,358.6 23.8,325.7 52,303.6 C77.7,283.5 113.7,274.1 151.7,264.1 C201.1,251.1 257.2,236.3 301.2,194.6 C337.5,160.1 355.1,128.7 370.6,101 C386.2,73.1 398.5,51.1 424.9,35.6 C454.1,18.5 497.9,10.9 566.9,10.9 C569.7,10.9 571.9,8.7 571.9,5.9 C571.9,3.1 569.7,0.9 567,0.9 Z" id="Path" fill="#F3F6E6"></path>
                <rect id="Rectangle" fill="#383A48" x="272.9" y="295" width="10" height="212.9"></rect>
                <path d="M1362.4,0.9 C1359.6,0.9 1357.4,3.1 1357.4,5.9 C1357.4,129.5 1230.4,168.1 1083.3,212.8 C1023.1,231.1 960.9,250 902.9,276.2 C836.7,306 786.5,340.8 749.5,382.6 C718.7,417.3 694.3,452 670.8,485.5 C631.4,541.4 594.2,594.3 533.3,638.2 C465.1,687.4 375.6,719.5 251.5,739.1 C248.9,739.5 247.1,741.8 247.3,744.4 C247.5,747 249.7,749 252.3,749 L1362.5,749 C1365.3,749 1367.5,746.8 1367.5,744 L1367.5,5.9 C1367.4,3.2 1365.1,0.9 1362.4,0.9 Z" id="Path" fill="#F3F6E6"></path>
                <path d="M1362.4,265.7 L881.1,265.7 C878.3,265.7 876.1,267.9 876.1,270.7 L876.1,744 C876.1,746.8 878.3,749 881.1,749 L1362.4,749 C1365.2,749 1367.4,746.8 1367.4,744 L1367.4,270.7 C1367.4,268 1365.1,265.7 1362.4,265.7 Z" id="Path" fill="#F6E049"></path>
                <g transform="translate(646.000000, 161.000000)">
                    <g>
                        <path d="M695.6,64.1 C726,108.6 719.3,181.1 681.3,258.2 C666.9,287.5 647.9,317.6 624.7,347 C588.2,393.3 541.3,438.1 485.3,476.3 C429.3,514.6 370.5,541.9 314.1,559 C278.3,569.9 243.4,576.6 210.8,579.4 C125.2,586.7 55.2,566.5 24.8,522 C-5.6,477.5 1.1,405 39.1,327.9 C53.5,298.6 72.5,268.5 95.7,239.1 C132.2,192.8 179.1,148 235.1,109.8 C291.1,71.5 349.9,44.2 406.3,27.1 C442.1,16.2 477,9.5 509.6,6.7 C595.3,-0.6 665.2,19.5 695.6,64.1 Z" id="Path" fill="#E0719E"></path>
                        <path d="M177.6,585.8 C147.4,585.8 119.5,582.1 95.6,574.9 C62,564.7 36.1,547.4 20.7,524.8 C5.3,502.2 -1.4,471.8 1.4,436.7 C4.1,402.8 15.6,364.4 34.7,325.6 C49.6,295.3 68.9,265.1 91.9,235.9 C130.3,187.2 178.9,142.1 232.4,105.6 C285.9,69.1 345.6,40.2 405,22.2 C440.6,11.4 475.7,4.5 509.3,1.6 C552.4,-2.1 592.4,1.2 624.9,11.1 C658.5,21.3 684.4,38.6 699.9,61.2 C715.3,83.8 722,114.2 719.2,149.3 C716.5,183.2 705,221.6 685.9,260.4 C671,290.7 651.8,320.8 628.7,350 C590.3,398.7 541.7,443.8 488.2,480.3 C434.7,516.8 375,545.6 315.6,563.7 C280,574.5 244.9,581.4 211.3,584.3 C199.7,585.3 188.5,585.8 177.6,585.8 Z M542.8,10.2 C532.2,10.2 521.2,10.7 510,11.6 C477.1,14.4 442.7,21.2 407.7,31.8 C349.3,49.5 290.5,77.9 237.8,113.9 C185.1,149.9 137.3,194.2 99.5,242.2 C76.9,270.8 58.1,300.4 43.4,330.1 C24.8,367.8 13.7,404.9 11.1,437.6 C8.5,470.3 14.6,498.5 28.7,519.2 C42.8,539.9 66.9,555.8 98.3,565.4 C129.6,574.9 168.3,578 210.1,574.5 C243.1,571.7 277.5,564.9 312.4,554.3 C370.8,536.6 429.6,508.2 482.2,472.3 C534.9,436.3 582.7,392 620.5,344 C643.1,315.3 662,285.8 676.6,256.1 C695.2,218.4 706.3,181.3 708.9,148.6 C711.5,115.9 705.4,87.7 691.3,67 C677.2,46.3 653.1,30.3 621.7,20.8 C598.9,13.7 572,10.2 542.8,10.2 Z" id="Shape" fill="#383A48"></path>
                    </g>
                    <g transform="translate(398.000000, 1.000000)">
                        <path d="M111.6,5.6 L283.3,257.1 C268.9,286.4 249.9,316.5 226.7,345.9 L8.3,26 C44.2,15.1 79,8.4 111.6,5.6 Z" id="Path" fill="#F3F6E6"></path>
                        <path d="M226.4,354.4 L0.4,23.2 L6.9,21.2 C42.5,10.4 77.6,3.5 111.2,0.6 L114.1,0.4 L289.1,256.8 L287.8,259.4 C272.9,289.7 253.7,319.8 230.6,349 L226.4,354.4 Z M16.3,28.9 L226.9,337.5 C247,311.4 264,284.5 277.5,257.6 L109.1,10.9 C79.2,13.6 48,19.7 16.3,28.9 Z" id="Shape" fill="#383A48"></path>
                    </g>
                    <g transform="translate(33.000000, 230.000000)">
                        <path d="M62.7,9 L281,328.9 C245.2,339.8 210.3,346.5 177.7,349.3 L6.1,97.8 C20.5,68.5 39.5,38.4 62.7,9 Z" id="Path" fill="#F3F6E6"></path>
                        <path d="M175.3,354.5 L0.3,98.2 L1.6,95.6 C16.5,65.3 35.8,35.1 58.8,5.9 L63,0.6 L289,331.8 L282.5,333.8 C246.9,344.6 211.8,351.5 178.2,354.4 L175.3,354.5 Z M11.9,97.4 L180.3,344.1 C210.3,341.4 241.5,335.3 273.1,326.1 L62.5,17.5 C42.3,43.6 25.4,70.5 11.9,97.4 Z" id="Shape" fill="#383A48"></path>
                    </g>
                    <g transform="translate(199.000000, 133.000000)" fill="#F3F6E6">
                        <path d="M211.7,85.4 L73.3,179.9 C53.5,193.4 26.4,188.3 12.9,168.5 L12.9,168.5 C-0.6,148.7 4.5,121.6 24.3,108.1 L162.7,13.6 C182.5,0.1 209.6,5.2 223.1,25 L223.1,25 C236.6,44.8 231.5,71.8 211.7,85.4 Z" id="Path"></path>
                        <path d="M48.9,192.4 C45.9,192.4 42.8,192.1 39.8,191.5 C27.1,189.1 16.1,181.9 8.8,171.2 C-6.3,149.1 -0.6,118.9 21.5,103.9 L159.9,9.4 C170.6,2.1 183.5,-0.6 196.2,1.8 C208.9,4.2 219.9,11.4 227.2,22.1 C234.5,32.8 237.2,45.7 234.8,58.4 C232.4,71.1 225.2,82.1 214.5,89.4 L76.1,184 C68,189.5 58.5,192.4 48.9,192.4 Z M187.1,11 C179.4,11 172,13.3 165.5,17.7 L27.1,112.2 C9.6,124.2 5.1,148.1 17,165.6 C22.8,174.1 31.5,179.8 41.6,181.7 C51.7,183.6 61.9,181.5 70.4,175.7 L208.8,81.2 C217.3,75.4 223,66.7 224.9,56.6 C226.8,46.5 224.7,36.3 218.9,27.8 C213.1,19.3 204.4,13.6 194.3,11.7 C191.9,11.2 189.5,11 187.1,11 Z" id="Shape"></path>
                    </g>
                    <g transform="translate(230.000000, 169.000000)" id="Path">
                        <line x1="5.6" y1="116.3" x2="168" y2="5.4" fill="#F3F6E6"></line>
                        <path d="M5.6,121.3 C4,121.3 2.4,120.5 1.5,119.1 C-0.1,116.8 0.5,113.7 2.8,112.2 L165.2,1.3 C167.5,-0.3 170.6,0.3 172.1,2.6 C173.7,4.9 173.1,8 170.8,9.5 L8.4,120.4 C7.5,121 6.5,121.3 5.6,121.3 Z" fill="#383A48"></path>
                    </g>
                    <g transform="translate(235.000000, 157.000000)" id="Path">
                        <g transform="translate(0.000000, 78.000000)">
                            <line x1="5.5" y1="5.1" x2="44.2" y2="61.7" fill="#F3F6E6"></line>
                            <path d="M44.2,66.7 C42.6,66.7 41,65.9 40.1,64.5 L1.4,7.8 C-0.2,5.5 0.4,2.4 2.7,0.9 C5,-0.7 8.1,-0.1 9.6,2.2 L48.3,58.9 C49.9,61.2 49.3,64.3 47,65.8 C46.1,66.4 45.1,66.7 44.2,66.7 Z" fill="#383A48"></path>
                        </g>
                        <g transform="translate(38.000000, 52.000000)">
                            <line x1="5.5" y1="5.1" x2="44.2" y2="61.8" fill="#F3F6E6"></line>
                            <path d="M44.2,66.8 C42.6,66.8 41,66 40.1,64.6 L1.4,7.9 C-0.2,5.6 0.4,2.5 2.7,1 C5,-0.6 8.1,-1.13659082e-13 9.6,2.3 L48.3,59 C49.9,61.3 49.3,64.4 47,65.9 C46.1,66.5 45.1,66.8 44.2,66.8 Z" fill="#383A48"></path>
                        </g>
                        <g transform="translate(76.000000, 26.000000)">
                            <line x1="5.5" y1="5.2" x2="44.2" y2="61.8" fill="#F3F6E6"></line>
                            <path d="M44.2,66.8 C42.6,66.8 41,66 40.1,64.6 L1.4,7.9 C-0.2,5.6 0.4,2.5 2.7,1 C5,-0.6 8.1,-1.13659082e-13 9.6,2.3 L48.3,59 C49.9,61.3 49.3,64.4 47,65.9 C46.1,66.5 45.2,66.8 44.2,66.8 Z" fill="#383A48"></path>
                        </g>
                        <g transform="translate(114.000000, 0.000000)">
                            <line x1="5.5" y1="5.2" x2="44.2" y2="61.9" fill="#F3F6E6"></line>
                            <path d="M44.2,66.9 C42.6,66.9 41,66.1 40.1,64.7 L1.4,8 C-0.2,5.7 0.4,2.6 2.7,1.1 C5,-0.5 8.1,0.1 9.6,2.4 L48.3,59.1 C49.9,61.4 49.3,64.5 47,66 C46.1,66.6 45.2,66.9 44.2,66.9 Z" fill="#383A48"></path>
                        </g>
                    </g>
                    <g transform="translate(32.000000, 57.000000)" fill="#383A48" id="Oval">
                        <circle cx="635.2" cy="5.7" r="5.7"></circle>
                        <circle cx="651.1" cy="29" r="5.7"></circle>
                        <circle cx="667" cy="52.3" r="5.7"></circle>
                        <circle cx="627.8" cy="44.9" r="5.7"></circle>
                        <circle cx="643.7" cy="68.2" r="5.7"></circle>
                        <circle cx="659.6" cy="91.5" r="5.7"></circle>
                        <circle cx="675.5" cy="114.8" r="5.7"></circle>
                        <circle cx="620.4" cy="84.1" r="5.7"></circle>
                        <circle cx="636.3" cy="107.4" r="5.7"></circle>
                        <circle cx="652.2" cy="130.7" r="5.7"></circle>
                        <circle cx="613" cy="123.3" r="5.7"></circle>
                        <circle cx="628.9" cy="146.6" r="5.7"></circle>
                        <circle cx="644.8" cy="169.9" r="5.7"></circle>
                        <circle cx="589.7" cy="139.2" r="5.7"></circle>
                        <circle cx="605.6" cy="162.5" r="5.7"></circle>
                        <circle cx="621.5" cy="185.8" r="5.7"></circle>
                        <circle cx="637.4" cy="209.1" r="5.7"></circle>
                        <circle cx="582.3" cy="178.4" r="5.7"></circle>
                        <circle cx="598.2" cy="201.7" r="5.7"></circle>
                        <circle cx="614.1" cy="225" r="5.7"></circle>
                        <circle cx="559" cy="194.3" r="5.7"></circle>
                        <circle cx="574.9" cy="217.6" r="5.7"></circle>
                        <circle cx="590.8" cy="240.9" r="5.7"></circle>
                        <circle cx="606.7" cy="264.2" r="5.7"></circle>
                        <circle cx="535.7" cy="210.2" r="5.7"></circle>
                        <circle cx="551.6" cy="233.5" r="5.7"></circle>
                        <circle cx="567.5" cy="256.8" r="5.7"></circle>
                        <circle cx="583.4" cy="280.1" r="5.7"></circle>
                        <circle cx="528.3" cy="249.4" r="5.7"></circle>
                        <circle cx="544.2" cy="272.7" r="5.7"></circle>
                        <circle cx="560.1" cy="296" r="5.7"></circle>
                        <circle cx="505" cy="265.3" r="5.7"></circle>
                        <circle cx="520.9" cy="288.6" r="5.7"></circle>
                        <circle cx="536.8" cy="311.9" r="5.7"></circle>
                        <circle cx="552.7" cy="335.2" r="5.7"></circle>
                        <circle cx="481.7" cy="281.2" r="5.7"></circle>
                        <circle cx="497.6" cy="304.5" r="5.7"></circle>
                        <circle cx="513.5" cy="327.8" r="5.7"></circle>
                        <circle cx="529.4" cy="351.1" r="5.7"></circle>
                        <circle cx="458.4" cy="297.1" r="5.7"></circle>
                        <circle cx="474.3" cy="320.4" r="5.7"></circle>
                        <circle cx="490.2" cy="343.7" r="5.7"></circle>
                        <circle cx="506.1" cy="367" r="5.7"></circle>
                        <circle cx="435.1" cy="313" r="5.7"></circle>
                        <circle cx="451" cy="336.3" r="5.7"></circle>
                        <circle cx="466.9" cy="359.6" r="5.7"></circle>
                        <circle cx="482.8" cy="382.9" r="5.7"></circle>
                        <circle cx="411.8" cy="328.9" r="5.7"></circle>
                        <circle cx="427.7" cy="352.2" r="5.7"></circle>
                        <circle cx="443.6" cy="375.5" r="5.7"></circle>
                        <circle cx="459.5" cy="398.8" r="5.7"></circle>
                        <circle cx="388.5" cy="344.8" r="5.7"></circle>
                        <circle cx="404.4" cy="368.1" r="5.7"></circle>
                        <circle cx="420.3" cy="391.4" r="5.7"></circle>
                        <circle cx="436.2" cy="414.7" r="5.7"></circle>
                        <circle cx="365.2" cy="360.7" r="5.7"></circle>
                        <circle cx="381.1" cy="384" r="5.7"></circle>
                        <circle cx="397" cy="407.3" r="5.7"></circle>
                        <circle cx="412.9" cy="430.6" r="5.7"></circle>
                        <circle cx="341.9" cy="376.6" r="5.7"></circle>
                        <circle cx="357.8" cy="399.9" r="5.7"></circle>
                        <circle cx="373.7" cy="423.2" r="5.7"></circle>
                        <circle cx="389.6" cy="446.5" r="5.7"></circle>
                        <circle cx="318.6" cy="392.5" r="5.7"></circle>
                        <circle cx="334.5" cy="415.8" r="5.7"></circle>
                        <circle cx="350.4" cy="439.1" r="5.7"></circle>
                        <circle cx="366.3" cy="462.4" r="5.7"></circle>
                        <circle cx="279.4" cy="385.1" r="5.7"></circle>
                        <circle cx="295.3" cy="408.4" r="5.7"></circle>
                        <circle cx="311.2" cy="431.7" r="5.7"></circle>
                        <circle cx="327.1" cy="455" r="5.7"></circle>
                        <circle cx="343" cy="478.3" r="5.7"></circle>
                        <circle cx="256.1" cy="401" r="5.7"></circle>
                        <circle cx="272" cy="424.3" r="5.7"></circle>
                        <circle cx="287.9" cy="447.6" r="5.7"></circle>
                        <circle cx="303.8" cy="470.9" r="5.7"></circle>
                        <circle cx="232.8" cy="416.9" r="5.7"></circle>
                        <circle cx="248.7" cy="440.2" r="5.7"></circle>
                        <circle cx="264.6" cy="463.5" r="5.7"></circle>
                        <circle cx="280.5" cy="486.8" r="5.7"></circle>
                        <circle cx="209.5" cy="432.8" r="5.7"></circle>
                        <circle cx="225.4" cy="456.1" r="5.7"></circle>
                        <circle cx="241.3" cy="479.4" r="5.7"></circle>
                        <circle cx="257.3" cy="502.7" r="5.7"></circle>
                        <circle cx="186.3" cy="448.7" r="5.7"></circle>
                        <circle cx="202.2" cy="472" r="5.7"></circle>
                        <circle cx="218.1" cy="495.3" r="5.7"></circle>
                        <circle cx="147.1" cy="441.3" r="5.7"></circle>
                        <circle cx="163" cy="464.6" r="5.7"></circle>
                        <circle cx="178.9" cy="487.9" r="5.7"></circle>
                        <circle cx="194.8" cy="511.2" r="5.7"></circle>
                        <circle cx="107.9" cy="433.9" r="5.7"></circle>
                        <circle cx="123.8" cy="457.2" r="5.7"></circle>
                        <circle cx="139.7" cy="480.5" r="5.7"></circle>
                        <circle cx="155.6" cy="503.8" r="5.7"></circle>
                        <circle cx="84.6" cy="449.8" r="5.7"></circle>
                        <circle cx="100.5" cy="473.1" r="5.7"></circle>
                        <circle cx="116.4" cy="496.4" r="5.7"></circle>
                        <circle cx="132.3" cy="519.7" r="5.7"></circle>
                        <circle cx="45.4" cy="442.4" r="5.7"></circle>
                        <circle cx="61.3" cy="465.7" r="5.7"></circle>
                        <circle cx="77.2" cy="489" r="5.7"></circle>
                        <circle cx="93.1" cy="512.3" r="5.7"></circle>
                        <circle cx="6.2" cy="435" r="5.7"></circle>
                        <circle cx="22.1" cy="458.3" r="5.7"></circle>
                        <circle cx="38" cy="481.6" r="5.7"></circle>
                        <circle cx="53.9" cy="504.9" r="5.7"></circle>
                    </g>
                </g>
                <path d="M1362.4,749.1 L653.1,749.1 C650.3,749.1 648.1,746.9 648.1,744.1 C648.1,741.3 650.3,739.1 653.1,739.1 L1362.3,739.1 C1365.1,739.1 1367.3,741.3 1367.3,744.1 C1367.3,746.9 1365.1,749.1 1362.4,749.1 Z" id="Path" fill="#383A48"></path>
                <g transform="translate(1.000000, 444.000000)">
                    <g transform="translate(0.000000, 188.000000)">
                        <path d="M27.8,112.1 L558.8,112.1 C568.7,112.1 576.9,104.2 577.2,94.3 L579.5,21.7 L5.5,5.2 L5.5,89.7 C5.5,102 15.5,112.1 27.8,112.1 Z" id="Path" fill="#F3F6E6"></path>
                        <path d="M558.8,117.1 L27.8,117.1 C12.7,117.1 0.4,104.8 0.4,89.7 L0.4,0 L584.6,16.8 L582.2,94.4 C581.8,107.1 571.5,117.1 558.8,117.1 Z M10.5,10.3 L10.5,89.7 C10.5,99.3 18.3,107.1 27.9,107.1 L558.9,107.1 C566.2,107.1 572.1,101.4 572.3,94.1 L574.4,26.5 L10.5,10.3 Z" id="Shape" fill="#383A48"></path>
                    </g>
                    <g>
                        <path d="M573.6,253.5 L45.8,253.5 C23.5,253.5 5.4,235.4 5.4,213.1 L5.4,72.8 C5.4,65.2 7.1,58 10,51.7 C20.3,29.5 46.2,16.7 71.5,25.1 C90.3,31.4 112.5,35.9 137.4,35.9 C179.2,35.9 213.6,23.1 236.7,10.8 C256.6,0.3 280.9,4.3 296.5,20.5 C297,21 297.5,21.5 297.9,22 C320.6,45.3 356,76.5 401.5,100.1 C426.1,112.8 540.9,130.8 568.5,162.9 C610.3,211.2 573.6,253.5 573.6,253.5 Z" id="Path" fill="#AAC6FC"></path>
                        <path d="M573.6,258.5 L45.8,258.5 C20.8,258.5 0.4,238.1 0.4,213.1 L0.4,72.8 C0.4,64.7 2.1,56.8 5.5,49.6 C17.3,24.1 46.4,11.5 73.1,20.4 C94.1,27.4 115.8,31 137.5,31 C179.3,31 213.3,17.7 234.5,6.5 C256.2,-4.9 283.2,-0.5 300.2,17.1 C300.7,17.6 301.1,18 301.5,18.5 L301.6,18.6 C323.2,40.8 358.5,72.2 403.9,95.7 C411.6,99.7 429.9,104.6 451.1,110.2 C496.5,122.2 553,137.2 572.4,159.7 C595.3,186.2 595.5,211.2 591.6,227.5 C587.4,245.1 577.8,256.3 577.4,256.8 C576.4,257.8 575,258.5 573.6,258.5 Z M55.7,27.6 C38.5,27.6 22.2,37.5 14.7,53.8 C12,59.7 10.6,66.1 10.6,72.8 L10.6,213.1 C10.6,232.6 26.5,248.5 46,248.5 L571.3,248.5 C577.3,240.4 599.1,205.8 565,166.2 C547.6,146 490.4,130.9 448.7,119.8 C426,113.8 408.1,109.1 399.4,104.5 C352.8,80.4 316.6,48.2 294.5,25.5 L294.4,25.4 C293.9,24.9 293.4,24.4 293,23.9 C279.1,9.4 256.9,5.9 239.2,15.2 C217,27 181.4,41 137.5,41 C114.8,41 92,37.3 70,29.9 C65.2,28.3 60.4,27.6 55.7,27.6 Z" id="Shape" fill="#383A48"></path>
                    </g>
                    <g transform="translate(5.000000, 0.000000)" fill="#383A48">
                        <path d="M293,22.1 C199.2,111.6 76.3,89.6 5,51.7 C15.3,29.5 41.2,16.7 66.5,25.1 C85.3,31.4 107.5,35.9 132.4,35.9 C174.2,35.9 208.6,23.1 231.7,10.8 C251.6,0.3 275.9,4.3 291.5,20.5 C292,21.1 292.5,21.6 293,22.1 Z" id="Path"></path>
                        <path d="M135.6,89.7 C86.4,89.7 39.5,75.7 2.7,56.1 C0.4,54.9 -0.6,52 0.5,49.6 C12.3,24.1 41.4,11.5 68.1,20.4 C89.1,27.4 110.8,31 132.5,31 C174.3,31 208.3,17.7 229.5,6.5 C251.2,-4.9 278.2,-0.5 295.2,17.1 C295.7,17.6 296.1,18 296.5,18.5 L296.6,18.6 C297.5,19.6 298,20.8 298,22.2 C298,23.5 297.4,24.8 296.5,25.7 C247.7,72.3 190.3,89.7 135.6,89.7 Z M11.8,49.6 C36.8,62.3 83.4,80.7 140.5,79.7 C196.3,78.7 245.1,59.3 285.8,22 C271.8,9.3 251,6.5 234.1,15.4 C212,27 176.4,41 132.5,41 C109.8,41 87,37.3 65,29.9 C44.6,23.1 22.6,31.5 11.8,49.6 Z" id="Shape"></path>
                    </g>
                    <g transform="translate(0.000000, 109.000000)">
                        <path d="M531.8,141.7 L531.8,144.5 L45.8,144.5 C23.5,144.5 5.4,126.4 5.4,104.1 L5.4,5.5 C60.6,17.9 154.1,32.4 233.9,12.6 C266.9,4.4 301.7,11.3 328.9,31.7 C355.6,51.7 432.7,73 474.6,77.5 L474.6,77.5 C507.2,81.3 531.8,108.9 531.8,141.7 Z" id="Path" fill="#AAC6FC"></path>
                        <path d="M531.8,149.5 L45.8,149.5 C20.8,149.5 0.4,129.1 0.4,104.1 L0.4,5.5 C0.4,4 1.1,2.5 2.3,1.6 C3.5,0.7 5,0.3 6.5,0.6 C56.5,11.8 152.3,27.7 232.7,7.7 C267.4,-0.9 303.6,6.4 331.9,27.6 C352.4,43 422.5,66.7 475.2,72.5 C510.3,76.6 536.8,106.3 536.8,141.6 L536.8,144.4 C536.8,147.2 534.6,149.5 531.8,149.5 Z M10.5,11.7 L10.5,104.1 C10.5,123.6 26.4,139.5 45.9,139.5 L526.8,139.5 C525.7,110.2 503.4,85.9 474.1,82.5 C434.1,78.1 354.6,57.2 325.9,35.7 C300,16.2 266.9,9.6 235.1,17.5 C199.3,26.4 157.2,29.3 110.1,26.1 C78.2,24 44.7,19.1 10.5,11.7 Z" id="Shape" fill="#383A48"></path>
                    </g>
                    <g transform="translate(168.000000, 159.000000)" fill="#F3F6E6">
                        <g transform="translate(39.000000, 0.000000)">
                            <polygon id="Path" points="38.1 5.3 54.5 5.3 21.8 63 5.4 63"></polygon>
                            <path d="M21.8,68 L5.5,68 C3.7,68 2.1,67.1 1.2,65.5 C0.3,63.9 0.3,62.1 1.2,60.5 L33.9,2.8 C34.8,1.2 36.4,0.3 38.3,0.3 L54.6,0.3 C56.4,0.3 58,1.2 58.9,2.8 C59.8,4.4 59.8,6.2 58.9,7.8 L26.2,65.5 C25.2,67 23.6,68 21.8,68 Z M14,58 L18.8,58 L45.8,10.3 L41,10.3 L14,58 Z" id="Shape"></path>
                        </g>
                        <g>
                            <polygon id="Path" points="37.6 5.3 54 5.3 21.3 63 4.9 63"></polygon>
                            <path d="M21.3,68 L5,68 C3.2,68 1.6,67.1 0.7,65.5 C-0.2,63.9 -0.2,62.1 0.7,60.5 L33.4,2.8 C34.3,1.2 35.9,0.3 37.8,0.3 L54,0.3 C55.8,0.3 57.4,1.2 58.3,2.8 C59.2,4.4 59.2,6.2 58.3,7.8 L25.6,65.5 C24.7,67 23.1,68 21.3,68 Z M13.5,58 L18.3,58 L45.3,10.3 L40.5,10.3 L13.5,58 Z" id="Shape"></path>
                        </g>
                        <g transform="translate(78.000000, 0.000000)">
                            <polygon id="Path" points="38.4 5.3 54.7 5.3 22.1 63 5.7 63"></polygon>
                            <path d="M22.1,68 L5.8,68 C4,68 2.4,67.1 1.5,65.5 C0.6,63.9 0.6,62.1 1.5,60.5 L34.2,2.8 C35.1,1.2 36.7,0.3 38.6,0.3 L54.9,0.3 C56.7,0.3 58.3,1.2 59.2,2.8 C60.1,4.4 60.1,6.2 59.2,7.8 L26.5,65.5 C25.5,67 23.9,68 22.1,68 Z M14.3,58 L19.1,58 L46.1,10.3 L41.3,10.3 L14.3,58 Z" id="Shape"></path>
                        </g>
                    </g>
                    <g transform="translate(1.000000, 152.000000)">
                        <path d="M89,101.5 L5.5,101.5 L5.5,5.5 L5.5,5.5 C51.6,5.5 89,42.9 89,89 L89,101.5 Z" id="Path" fill="#F3F6E6"></path>
                        <path d="M94,106.5 L0.5,106.5 L0.5,0.5 L5.5,0.5 C54.3,0.5 94,40.2 94,89 L94,106.5 Z M10.5,96.5 L84,96.5 L84,89 C84,47.4 51.5,13.2 10.5,10.6 L10.5,96.5 Z" id="Shape" fill="#383A48"></path>
                    </g>
                </g>
                <path d="M357.9,300 L214.7,300 C158.6,300 112.9,254.3 112.9,198.2 L112.9,70.5 L122.9,70.5 L122.9,198.2 C122.9,248.8 164.1,290 214.7,290 L357.9,290 C408.5,290 449.7,248.8 449.7,198.2 L449.7,70.5 L459.7,70.5 L459.7,198.2 C459.7,254.3 414,300 357.9,300 Z" id="Path" fill="#383A48"></path>
                <g transform="translate(495.000000, 42.000000)">
                    <g transform="translate(0.000000, 233.000000)">
                        <circle id="Oval" fill="#F6E049" cx="84.5" cy="84.6" r="78.8"></circle>
                        <path d="M84.6,168.4 C82.6,168.4 80.5,168.3 78.5,168.2 C56.2,166.6 35.8,156.4 21.2,139.5 C6.6,122.6 -0.6,101 1,78.6 C2.6,56.3 12.8,35.9 29.7,21.3 C46.6,6.6 68.2,-0.5 90.6,1.1 C112.9,2.7 133.3,12.9 147.9,29.8 C162.6,46.7 169.7,68.3 168.1,90.7 L168.1,90.7 C166.5,113 156.3,133.4 139.4,148 C124,161.2 104.8,168.4 84.6,168.4 Z M84.4,10.8 C66.7,10.8 49.7,17.1 36.2,28.8 C21.3,41.7 12.3,59.6 10.9,79.3 C9.5,99 15.8,118 28.7,132.9 C41.6,147.8 59.5,156.8 79.2,158.2 C98.9,159.6 117.9,153.3 132.8,140.4 C147.7,127.5 156.7,109.6 158.1,89.9 L158.1,89.9 C159.5,70.2 153.2,51.2 140.3,36.3 C127.4,21.4 109.5,12.4 89.8,11 C88,10.8 86.2,10.8 84.4,10.8 Z" id="Shape" fill="#383A48"></path>
                    </g>
                    <g transform="translate(74.000000, 144.000000)">
                        <circle id="Oval" fill="#F6E049" cx="84.1" cy="84.7" r="78.8"></circle>
                        <path d="M84.2,168.5 C82.2,168.5 80.2,168.4 78.2,168.3 C55.9,166.7 35.5,156.5 20.9,139.6 C6.2,122.7 -0.9,101.1 0.7,78.7 C4,32.6 44.2,-2.2 90.3,1.1 C136.4,4.4 171.2,44.6 167.9,90.7 L167.9,90.7 C164.5,134.8 127.7,168.5 84.2,168.5 Z M84.1,10.9 C45.8,10.9 13.3,40.6 10.5,79.4 C9.1,99.1 15.4,118.1 28.3,133 C41.2,147.9 59.1,156.9 78.8,158.3 C119.4,161.2 154.8,130.5 157.7,90 C160.6,49.5 129.9,14 89.4,11.1 C87.6,11 85.8,10.9 84.1,10.9 Z" id="Shape" fill="#383A48"></path>
                    </g>
                    <g transform="translate(168.000000, 65.000000)">
                        <circle id="Oval" fill="#F6E049" cx="84.6" cy="84.1" r="78.8"></circle>
                        <path d="M84.8,167.9 C82.8,167.9 80.7,167.8 78.7,167.7 C56.4,166.1 36,155.9 21.4,139 C6.7,122.1 -0.4,100.5 1.2,78.1 C2.8,55.8 13,35.4 29.9,20.7 C46.8,6 68.4,-1.1 90.8,0.5 C113.1,2.1 133.5,12.3 148.1,29.2 C162.7,46.1 169.9,67.7 168.3,90.1 C166.7,112.4 156.5,132.8 139.6,147.5 C124.1,160.7 104.9,167.9 84.8,167.9 Z M84.5,10.3 C66.8,10.3 49.8,16.6 36.3,28.3 C21.4,41.2 12.4,59.1 11,78.8 C9.6,98.5 15.9,117.5 28.8,132.4 C41.7,147.3 59.6,156.3 79.3,157.7 C99,159.1 118,152.8 132.9,139.9 C147.8,127 156.8,109.1 158.2,89.4 L158.2,89.4 C159.6,69.7 153.3,50.7 140.4,35.8 C127.5,20.9 109.6,11.9 89.9,10.5 C88.1,10.3 86.3,10.3 84.5,10.3 Z" id="Shape" fill="#383A48"></path>
                    </g>
                    <g transform="translate(268.000000, 0.000000)">
                        <circle id="Oval" fill="#F3F6E6" cx="84.6" cy="84.6" r="78.8"></circle>
                        <path d="M84.7,168.4 C82.7,168.4 80.6,168.3 78.6,168.2 C32.5,164.9 -2.3,124.7 1,78.6 C2.6,56.3 12.8,35.9 29.7,21.3 C46.6,6.6 68.2,-0.5 90.6,1.1 C112.9,2.7 133.3,12.9 147.9,29.8 C162.6,46.7 169.7,68.3 168.1,90.7 C166.5,113.1 156.3,133.4 139.4,148 C124.1,161.3 104.9,168.4 84.7,168.4 Z M84.5,10.8 C66.8,10.8 49.8,17.1 36.3,28.8 C21.4,41.7 12.4,59.6 11,79.3 C8.1,119.9 38.8,155.3 79.3,158.2 C99,159.6 118,153.3 132.9,140.4 C147.8,127.5 156.8,109.6 158.2,89.9 C159.6,70.2 153.3,51.2 140.4,36.3 C127.5,21.4 109.6,12.4 89.9,11 C88.1,10.9 86.3,10.8 84.5,10.8 Z" id="Shape" fill="#383A48"></path>
                    </g>
                </g>
                <g transform="translate(984.000000, 36.000000)" fill="#383A48">
                    <g transform="translate(0.000000, 12.000000)">
                        <line x1="0" y1="5.4" x2="33" y2="5.4" id="Path"></line>
                        <rect id="Rectangle" x="0" y="0.4" width="33" height="10"></rect>
                    </g>
                    <g transform="translate(11.000000, 0.000000)">
                        <line x1="5.5" y1="33.9" x2="5.5" y2="0.9" id="Path"></line>
                        <rect id="Rectangle" x="0.5" y="0.9" width="10" height="33"></rect>
                    </g>
                </g>
                <g transform="translate(494.000000, 449.000000)" fill="#383A48">
                    <g transform="translate(0.000000, 12.000000)">
                        <line x1="0.3" y1="5.4" x2="33.3" y2="5.4" id="Path"></line>
                        <rect id="Rectangle" x="0.3" y="0.4" width="33" height="10"></rect>
                    </g>
                    <g transform="translate(11.000000, 0.000000)">
                        <line x1="5.8" y1="33.9" x2="5.8" y2="0.9" id="Path"></line>
                        <rect id="Rectangle" x="0.8" y="0.9" width="10" height="33"></rect>
                    </g>
                </g>
                <g transform="translate(150.000000, 349.000000)" fill="#383A48">
                    <g transform="translate(0.000000, 11.000000)">
                        <line x1="0.6" y1="5.6" x2="33.5" y2="5.6" id="Path"></line>
                        <rect id="Rectangle" x="0.6" y="0.6" width="33" height="10"></rect>
                    </g>
                    <g transform="translate(12.000000, 0.000000)">
                        <line x1="5.1" y1="33.1" x2="5.1" y2="0.2" id="Path"></line>
                        <rect id="Rectangle" x="0.1" y="0.2" width="10" height="33"></rect>
                    </g>
                </g>
                <path d="M1000.5,145.2 C998.5,145.2 996.7,144 995.9,142.1 C994.9,139.5 996.1,136.6 998.7,135.6 C1020,127 1041.7,119.3 1063.2,112.8 C1108.1,99.2 1152.5,90.4 1194.9,86.8 C1210.6,85.5 1226.2,84.8 1241.1,85 C1243.9,85 1246.1,87.3 1246.1,90 C1246.1,92.8 1243.8,95 1241.1,95 C1226.5,94.9 1211.3,95.5 1195.9,96.8 C1154.2,100.3 1110.5,108.9 1066.3,122.4 C1045.1,128.8 1023.7,136.4 1002.7,144.9 C1001.8,145 1001.1,145.2 1000.5,145.2 Z" id="Path" fill="#4053FA"></path>
                <path d="M1364.3,627.2 C1362.4,626.4 1360.3,626.8 1358.9,628.3 L1249,736.8 C1247.6,738.2 1247.1,740.3 1247.9,742.2 C1248.7,744.1 1250.4,745.3 1252.4,745.4 L1362.3,749.1 C1362.4,749.1 1362.4,749.1 1362.5,749.1 C1363.8,749.1 1365,748.6 1366,747.7 C1367,746.8 1367.5,745.5 1367.5,744.1 L1367.5,631.8 C1367.4,629.8 1366.1,628 1364.3,627.2 Z" id="Path" fill="#383A48"></path>
            </g>
        </g>
    </g>
</svg>