<?xml version="1.0" encoding="utf-8"?>
<!-- Generator: Adobe Illustrator 22.0.1, SVG Export Plug-In . SVG Version: 6.00 Build 0)  -->
<svg version="1.1" id="Layer_1" xmlns="http://www.w3.org/2000/svg" xmlns:xlink="http://www.w3.org/1999/xlink" x="0px" y="0px" viewBox="0 0 1920 1080" style="enable-background:new 0 0 1920 1080;" xml:space="preserve">

<rect width="1920" height="1080" style="fill:#AAC6FC;"/>
<g>
	<path d="M901.9,932.9c-14.8-0.4-28.1-0.7-39.9-1c-50.6-1.1-76-1.6-89.9-11c-13.5-9.1-17.7-28.3-26.2-66.7
		c-8.4-38-21.1-95.4-51.3-180.1c-21.2-59.3-55.1-104.3-103.6-137.6c-42.6-29.2-90.7-45.9-137.2-62C401,456.3,351.2,439,314.5,405.3
		c-41-37.7-60.1-91-60.1-167.8c0-2.8-2.2-5-5-5s-5,2.2-5,5v705.4c0,1.3,0.5,2.6,1.5,3.5c0.9,0.9,2.2,1.5,3.5,1.5c0,0,0,0,0,0
		l652.3-5c2.7,0,4.9-2.2,5-4.9C906.8,935.2,904.6,933,901.9,932.9z" style="fill:#F3F6E6;"/>
	<path d="M1670.6,132.1H816.8c-2.7,0-4.9,2.1-5,4.8c-0.1,2.7,1.9,5,4.6,5.2c98.2,7.2,163.6,28.2,199.9,64.1
		c31.9,31.6,38.9,72,45.6,111.1c11.7,67.8,23.8,138,163.3,162.5c53,9.3,109.2,34.3,166.8,74.3c46.3,32.1,93.7,74,140.9,124.3
		c80.4,85.9,132.9,167.8,133.4,168.6c0.9,1.5,2.5,2.3,4.2,2.3c0.5,0,0.9-0.1,1.4-0.2c2.1-0.6,3.6-2.6,3.6-4.8V137.1
		C1675.6,134.4,1673.3,132.1,1670.6,132.1z" style="fill:#F3F6E6;"/>
	<g>
		<g>
			<path d="M1226.1,474.9H847.4c-60.8,0-110.1,49.3-110.1,110.1v74.2h488.9V474.9z" style="fill:#F3F6E6;"/>
			<path d="M1231.1,664.3H732.2V585c0-63.5,51.7-115.1,115.1-115.1h383.7V664.3z M742.2,654.3h478.9V479.9H847.4
				c-58,0-105.1,47.2-105.1,105.1V654.3z" style="fill:#383A48;"/>
		</g>
		<g>
			<polygon points="668.8,659.3 1021.9,659.3 1021.9,597.9 737.2,597.9 			" style="fill:#AAC6FC;"/>
			<path d="M1026.9,664.3H655.8l79.6-71.4h291.6V664.3z M681.9,654.3h335v-51.4H739.1L681.9,654.3z" style="fill:#383A48;"/>
		</g>
		<g>
			<path d="M485.3,610.7H249.4v48.6h284.4v0C533.8,632.4,512.1,610.7,485.3,610.7z" style="fill:#F6E049;"/>
			<path d="M538.8,664.3H244.4v-58.6h240.8c29.5,0,53.6,24,53.6,53.6V664.3z M254.4,654.3h274.1
				c-2.5-21.7-21-38.6-43.3-38.6H254.4V654.3z" style="fill:#383A48;"/>
		</g>
		<g>
			<path d="M1164.1,659.3v283.2H496.9c0-78-84.7-119-154.9-164.6c-49.9-32.3-92.5-66.9-92.5-118.7H1164.1z" style="fill:#F3F6E6;"/>
			<path d="M1169.1,947.5H491.9v-5c0-29.4-12.2-55-38.3-80.6c-23.5-23-55.3-42.8-86.2-62c-9.3-5.8-18.9-11.8-28.2-17.8
				c-45.9-29.7-94.8-66.2-94.8-122.8v-5h924.7V947.5z M501.8,937.5h657.3V664.3H254.6c2.5,43.8,37.9,75.6,90.1,109.5
				c9.2,5.9,18.7,11.9,28,17.7C434.7,830,498.8,870,501.8,937.5z" style="fill:#383A48;"/>
		</g>
		<g>
			<path d="M1172.1,659.3l-8,118.7H342c-49.9-32.3-91.5-66-92.5-118.7H1172.1z" style="fill:#E0719E;"/>
			<path d="M1164.1,782.9H342c-1,0-1.9-0.3-2.7-0.8c-22.2-14.4-47.4-31.9-65.6-52.6c-19.1-21.7-28.7-44.7-29.2-70.1
				c0-1.3,0.5-2.6,1.4-3.6c0.9-1,2.2-1.5,3.6-1.5h922.7c1.4,0,2.7,0.6,3.7,1.6s1.4,2.4,1.3,3.8l-8,118.7
				C1168.9,780.9,1166.8,782.9,1164.1,782.9z M343.4,772.9h816l7.3-108.7H254.7C257.9,708.4,291.1,738.9,343.4,772.9z" style="fill:#383A48;"/>
		</g>
		<g>
			<circle cx="816.8" cy="543.1" r="22" style="fill:#AAC6FC;"/>
			<path d="M816.8,570.1c-14.9,0-27-12.1-27-27s12.1-27,27-27s27,12.1,27,27S831.7,570.1,816.8,570.1z M816.8,526.1
				c-9.4,0-17,7.6-17,17s7.6,17,17,17s17-7.6,17-17S826.2,526.1,816.8,526.1z" style="fill:#383A48;"/>
		</g>
		<g>
			<circle cx="895.3" cy="543.1" r="22" style="fill:#AAC6FC;"/>
			<path d="M895.3,570.1c-14.9,0-27-12.1-27-27s12.1-27,27-27s27,12.1,27,27S910.2,570.1,895.3,570.1z M895.3,526.1
				c-9.4,0-17,7.6-17,17s7.6,17,17,17s17-7.6,17-17S904.7,526.1,895.3,526.1z" style="fill:#383A48;"/>
		</g>
		<g>
			<circle cx="973.8" cy="543.1" r="22" style="fill:#AAC6FC;"/>
			<path d="M973.8,570.1c-14.9,0-27-12.1-27-27s12.1-27,27-27s27,12.1,27,27S988.6,570.1,973.8,570.1z M973.8,526.1
				c-9.4,0-17,7.6-17,17s7.6,17,17,17s17-7.6,17-17S983.1,526.1,973.8,526.1z" style="fill:#383A48;"/>
		</g>
		<g>
			<circle cx="556" cy="862.9" r="26" style="fill:#383A48;"/>
			<path d="M556,893.9c-17.1,0-31-13.9-31-31s13.9-31,31-31s31,13.9,31,31S573.1,893.9,556,893.9z M556,841.9
				c-11.6,0-21,9.4-21,21s9.4,21,21,21s21-9.4,21-21S567.5,841.9,556,841.9z" style="fill:#383A48;"/>
		</g>
	</g>
	<g>
		<g>
			<path d="M1466.4,618h-240.3c-22.1,0-40-17.9-40-40V379.3c0-45,36.6-81.5,81.5-81.5h157.2c45,0,81.5,36.6,81.5,81.5
				V578C1506.4,600.1,1488.4,618,1466.4,618z M1266.1,538h160.3V379.3c0-0.8-0.7-1.5-1.5-1.5h-157.2c-0.8,0-1.5,0.7-1.5,1.5V538z" style="fill:#383A48;"/>
		</g>
		<path d="M1090.3,654.3H962.4v206.6c0,47.8,38.9,86.6,86.6,86.6h160.6V845.2L1090.3,654.3z" style="fill:#383A48;"/>
		<g>
			<path d="M1120,474.9h452.5c54.2,0,98.1,43.9,98.1,98.1v271.4c0,54.2-43.9,98.1-98.1,98.1H1120
				c-54.2,0-98.1-43.9-98.1-98.1V573C1021.9,518.8,1065.8,474.9,1120,474.9z" style="fill:#F6E049;"/>
			<path d="M1572.5,947.5H1120c-56.9,0-103.1-46.3-103.1-103.1V573c0-56.9,46.3-103.1,103.1-103.1h452.5
				c56.9,0,103.1,46.3,103.1,103.1v271.4C1675.6,901.2,1629.3,947.5,1572.5,947.5z M1120,479.9c-51.3,0-93.1,41.8-93.1,93.1v271.4
				c0,51.3,41.8,93.1,93.1,93.1h452.5c51.3,0,93.1-41.8,93.1-93.1V573c0-51.3-41.8-93.1-93.1-93.1H1120z" style="fill:#383A48;"/>
		</g>
		<g>
			<rect x="1140.4" y="474.9" width="85.7" height="467.6" style="fill:#F3F6E6;"/>
			<path d="M1231.1,947.5h-95.7V469.9h95.7V947.5z M1145.4,937.5h75.7V479.9h-75.7V937.5z" style="fill:#383A48;"/>
		</g>
		<g>
			
				<rect x="1466.4" y="474.9" transform="matrix(-1 4.481914e-11 -4.481914e-11 -1 3018.3904 1417.3822)" width="85.7" height="467.6" style="fill:#F3F6E6;"/>
			<path d="M1557,947.5h-95.7V469.9h95.7V947.5z M1471.4,937.5h75.7V479.9h-75.7V937.5z" style="fill:#383A48;"/>
		</g>
		<g>
			<g>
				<g>
					<g>
						<circle cx="1654" cy="861.2" r="5" style="fill:#383A48;"/>
					</g>
				</g>
				<g>
					<g>
						<circle cx="1654" cy="885.9" r="5" style="fill:#383A48;"/>
					</g>
				</g>
				<g>
					<g>
						<circle cx="1629.4" cy="861.2" r="5" style="fill:#383A48;"/>
					</g>
				</g>
				<g>
					<g>
						<circle cx="1629.4" cy="885.9" r="5" style="fill:#383A48;"/>
					</g>
				</g>
				<g>
					<g>
						<circle cx="1629.4" cy="910.6" r="5" style="fill:#383A48;"/>
					</g>
				</g>
				<g>
					<g>
						<circle cx="1604.7" cy="861.2" r="5" style="fill:#383A48;"/>
					</g>
				</g>
				<g>
					<g>
						<circle cx="1604.7" cy="885.9" r="5" style="fill:#383A48;"/>
					</g>
				</g>
				<g>
					<g>
						<circle cx="1604.7" cy="910.6" r="5" style="fill:#383A48;"/>
					</g>
				</g>
				<g>
					<g>
						<circle cx="1604.7" cy="935.2" r="5" style="fill:#383A48;"/>
					</g>
				</g>
				<g>
					<g>
						<circle cx="1580" cy="861.2" r="5" style="fill:#383A48;"/>
					</g>
				</g>
				<g>
					<g>
						<circle cx="1580" cy="885.9" r="5" style="fill:#383A48;"/>
					</g>
				</g>
				<g>
					<g>
						<circle cx="1580" cy="910.6" r="5" style="fill:#383A48;"/>
					</g>
				</g>
				<g>
					<g>
						<circle cx="1580" cy="935.2" r="5" style="fill:#383A48;"/>
					</g>
				</g>
				<g>
					<g>
						<circle cx="1555.4" cy="861.2" r="5" style="fill:#383A48;"/>
					</g>
				</g>
				<g>
					<g>
						<circle cx="1555.4" cy="885.9" r="5" style="fill:#383A48;"/>
					</g>
				</g>
				<g>
					<g>
						<circle cx="1555.4" cy="910.6" r="5" style="fill:#383A48;"/>
					</g>
				</g>
				<g>
					<g>
						<circle cx="1555.4" cy="935.2" r="5" style="fill:#383A48;"/>
					</g>
				</g>
				<g>
					<g>
						<circle cx="1530.7" cy="861.2" r="5" style="fill:#383A48;"/>
					</g>
				</g>
				<g>
					<g>
						<circle cx="1530.7" cy="885.9" r="5" style="fill:#383A48;"/>
					</g>
				</g>
				<g>
					<g>
						<circle cx="1530.7" cy="910.6" r="5" style="fill:#383A48;"/>
					</g>
				</g>
				<g>
					<g>
						<circle cx="1530.7" cy="935.2" r="5" style="fill:#383A48;"/>
					</g>
				</g>
				<g>
					<g>
						<circle cx="1506" cy="861.2" r="5" style="fill:#383A48;"/>
					</g>
				</g>
				<g>
					<g>
						<circle cx="1506" cy="885.9" r="5" style="fill:#383A48;"/>
					</g>
				</g>
				<g>
					<g>
						<circle cx="1506" cy="910.6" r="5" style="fill:#383A48;"/>
					</g>
				</g>
				<g>
					<g>
						<circle cx="1506" cy="935.2" r="5" style="fill:#383A48;"/>
					</g>
				</g>
				<g>
					<g>
						<circle cx="1481.4" cy="861.2" r="5" style="fill:#383A48;"/>
					</g>
				</g>
				<g>
					<g>
						<circle cx="1481.4" cy="885.9" r="5" style="fill:#383A48;"/>
					</g>
				</g>
				<g>
					<g>
						<circle cx="1481.4" cy="910.6" r="5" style="fill:#383A48;"/>
					</g>
				</g>
				<g>
					<g>
						<circle cx="1481.4" cy="935.2" r="5" style="fill:#383A48;"/>
					</g>
				</g>
				<g>
					<g>
						<circle cx="1456.7" cy="861.2" r="5" style="fill:#383A48;"/>
					</g>
				</g>
				<g>
					<g>
						<circle cx="1456.7" cy="885.9" r="5" style="fill:#383A48;"/>
					</g>
				</g>
				<g>
					<g>
						<circle cx="1456.7" cy="910.6" r="5" style="fill:#383A48;"/>
					</g>
				</g>
				<g>
					<g>
						<circle cx="1456.7" cy="935.2" r="5" style="fill:#383A48;"/>
					</g>
				</g>
				<g>
					<g>
						<circle cx="1432" cy="861.2" r="5" style="fill:#383A48;"/>
					</g>
				</g>
				<g>
					<g>
						<circle cx="1432" cy="885.9" r="5" style="fill:#383A48;"/>
					</g>
				</g>
				<g>
					<g>
						<circle cx="1432" cy="910.6" r="5" style="fill:#383A48;"/>
					</g>
				</g>
				<g>
					<g>
						<circle cx="1432" cy="935.2" r="5" style="fill:#383A48;"/>
					</g>
				</g>
				<g>
					<g>
						<circle cx="1407.4" cy="861.2" r="5" style="fill:#383A48;"/>
					</g>
				</g>
				<g>
					<g>
						<circle cx="1407.4" cy="885.9" r="5" style="fill:#383A48;"/>
					</g>
				</g>
				<g>
					<g>
						<circle cx="1407.4" cy="910.6" r="5" style="fill:#383A48;"/>
					</g>
				</g>
				<g>
					<g>
						<circle cx="1407.4" cy="935.2" r="5" style="fill:#383A48;"/>
					</g>
				</g>
				<g>
					<g>
						<circle cx="1382.7" cy="861.2" r="5" style="fill:#383A48;"/>
					</g>
				</g>
				<g>
					<g>
						<circle cx="1382.7" cy="885.9" r="5" style="fill:#383A48;"/>
					</g>
				</g>
				<g>
					<g>
						<circle cx="1382.7" cy="910.6" r="5" style="fill:#383A48;"/>
					</g>
				</g>
				<g>
					<g>
						<circle cx="1382.7" cy="935.2" r="5" style="fill:#383A48;"/>
					</g>
				</g>
				<g>
					<g>
						<circle cx="1358" cy="861.2" r="5" style="fill:#383A48;"/>
					</g>
				</g>
				<g>
					<g>
						<circle cx="1358" cy="885.9" r="5" style="fill:#383A48;"/>
					</g>
				</g>
				<g>
					<g>
						<circle cx="1358" cy="910.6" r="5" style="fill:#383A48;"/>
					</g>
				</g>
				<g>
					<g>
						<circle cx="1358" cy="935.2" r="5" style="fill:#383A48;"/>
					</g>
				</g>
				<g>
					<g>
						<circle cx="1333.4" cy="861.2" r="5" style="fill:#383A48;"/>
					</g>
				</g>
				<g>
					<g>
						<circle cx="1333.4" cy="885.9" r="5" style="fill:#383A48;"/>
					</g>
				</g>
				<g>
					<g>
						<circle cx="1333.4" cy="910.6" r="5" style="fill:#383A48;"/>
					</g>
				</g>
				<g>
					<g>
						<circle cx="1333.4" cy="935.2" r="5" style="fill:#383A48;"/>
					</g>
				</g>
				<g>
					<g>
						<circle cx="1308.7" cy="861.2" r="5" style="fill:#383A48;"/>
					</g>
				</g>
				<g>
					<g>
						<circle cx="1308.7" cy="885.9" r="5" style="fill:#383A48;"/>
					</g>
				</g>
				<g>
					<g>
						<circle cx="1308.7" cy="910.6" r="5" style="fill:#383A48;"/>
					</g>
				</g>
				<g>
					<g>
						<circle cx="1308.7" cy="935.2" r="5" style="fill:#383A48;"/>
					</g>
				</g>
				<g>
					<g>
						<circle cx="1284" cy="861.2" r="5" style="fill:#383A48;"/>
					</g>
				</g>
				<g>
					<g>
						<circle cx="1284" cy="885.9" r="5" style="fill:#383A48;"/>
					</g>
				</g>
				<g>
					<g>
						<circle cx="1284" cy="910.6" r="5" style="fill:#383A48;"/>
					</g>
				</g>
				<g>
					<g>
						<circle cx="1284" cy="935.2" r="5" style="fill:#383A48;"/>
					</g>
				</g>
				<g>
					<g>
						<circle cx="1259.4" cy="861.2" r="5" style="fill:#383A48;"/>
					</g>
				</g>
				<g>
					<g>
						<circle cx="1259.4" cy="885.9" r="5" style="fill:#383A48;"/>
					</g>
				</g>
				<g>
					<g>
						<circle cx="1259.4" cy="910.6" r="5" style="fill:#383A48;"/>
					</g>
				</g>
				<g>
					<g>
						<circle cx="1259.4" cy="935.2" r="5" style="fill:#383A48;"/>
					</g>
				</g>
				<g>
					<g>
						<circle cx="1234.7" cy="861.2" r="5" style="fill:#383A48;"/>
					</g>
				</g>
				<g>
					<g>
						<circle cx="1234.7" cy="885.9" r="5" style="fill:#383A48;"/>
					</g>
				</g>
				<g>
					<g>
						<circle cx="1234.7" cy="910.6" r="5" style="fill:#383A48;"/>
					</g>
				</g>
				<g>
					<g>
						<circle cx="1234.7" cy="935.2" r="5" style="fill:#383A48;"/>
					</g>
				</g>
				<g>
					<g>
						<circle cx="1210" cy="861.2" r="5" style="fill:#383A48;"/>
					</g>
				</g>
				<g>
					<g>
						<circle cx="1210" cy="885.9" r="5" style="fill:#383A48;"/>
					</g>
				</g>
				<g>
					<g>
						<circle cx="1210" cy="910.6" r="5" style="fill:#383A48;"/>
					</g>
				</g>
				<g>
					<g>
						<circle cx="1210" cy="935.2" r="5" style="fill:#383A48;"/>
					</g>
				</g>
				<g>
					<g>
						<circle cx="1185.4" cy="836.6" r="5" style="fill:#383A48;"/>
					</g>
				</g>
				<g>
					<g>
						<circle cx="1185.4" cy="861.2" r="5" style="fill:#383A48;"/>
					</g>
				</g>
				<g>
					<g>
						<circle cx="1185.4" cy="885.9" r="5" style="fill:#383A48;"/>
					</g>
				</g>
				<g>
					<g>
						<circle cx="1185.4" cy="910.6" r="5" style="fill:#383A48;"/>
					</g>
				</g>
				<g>
					<g>
						<circle cx="1185.4" cy="935.2" r="5" style="fill:#383A48;"/>
					</g>
				</g>
				<g>
					<g>
						<circle cx="1160.7" cy="811.9" r="5" style="fill:#383A48;"/>
					</g>
				</g>
				<g>
					<g>
						<circle cx="1160.7" cy="836.6" r="5" style="fill:#383A48;"/>
					</g>
				</g>
				<g>
					<g>
						<circle cx="1160.7" cy="861.2" r="5" style="fill:#383A48;"/>
					</g>
				</g>
				<g>
					<g>
						<circle cx="1160.7" cy="885.9" r="5" style="fill:#383A48;"/>
					</g>
				</g>
				<g>
					<g>
						<circle cx="1160.7" cy="910.6" r="5" style="fill:#383A48;"/>
					</g>
				</g>
				<g>
					<g>
						<circle cx="1160.7" cy="935.2" r="5" style="fill:#383A48;"/>
					</g>
				</g>
				<g>
					<g>
						<circle cx="1136" cy="491.2" r="5" style="fill:#383A48;"/>
					</g>
				</g>
				<g>
					<g>
						<circle cx="1136" cy="515.9" r="5" style="fill:#383A48;"/>
					</g>
				</g>
				<g>
					<g>
						<circle cx="1136" cy="540.6" r="5" style="fill:#383A48;"/>
					</g>
				</g>
				<g>
					<g>
						<circle cx="1136" cy="565.2" r="5" style="fill:#383A48;"/>
					</g>
				</g>
				<g>
					<g>
						<circle cx="1136" cy="589.9" r="5" style="fill:#383A48;"/>
					</g>
				</g>
				<g>
					<g>
						<circle cx="1136" cy="614.6" r="5" style="fill:#383A48;"/>
					</g>
				</g>
				<g>
					<g>
						<circle cx="1136" cy="639.2" r="5" style="fill:#383A48;"/>
					</g>
				</g>
				<g>
					<g>
						<circle cx="1136" cy="663.9" r="5" style="fill:#383A48;"/>
					</g>
				</g>
				<g>
					<g>
						<circle cx="1136" cy="688.6" r="5" style="fill:#383A48;"/>
					</g>
				</g>
				<g>
					<g>
						<circle cx="1136" cy="713.2" r="5" style="fill:#383A48;"/>
					</g>
				</g>
				<g>
					<g>
						<circle cx="1136" cy="737.9" r="5" style="fill:#383A48;"/>
					</g>
				</g>
				<g>
					<g>
						<circle cx="1136" cy="762.6" r="5" style="fill:#383A48;"/>
					</g>
				</g>
				<g>
					<g>
						<circle cx="1136" cy="787.2" r="5" style="fill:#383A48;"/>
					</g>
				</g>
				<g>
					<g>
						<circle cx="1136" cy="811.9" r="5" style="fill:#383A48;"/>
					</g>
				</g>
				<g>
					<g>
						<circle cx="1136" cy="836.6" r="5" style="fill:#383A48;"/>
					</g>
				</g>
				<g>
					<g>
						<circle cx="1136" cy="861.2" r="5" style="fill:#383A48;"/>
					</g>
				</g>
				<g>
					<g>
						<circle cx="1136" cy="885.9" r="5" style="fill:#383A48;"/>
					</g>
				</g>
				<g>
					<g>
						<circle cx="1136" cy="910.6" r="5" style="fill:#383A48;"/>
					</g>
				</g>
				<g>
					<g>
						<circle cx="1136" cy="935.2" r="5" style="fill:#383A48;"/>
					</g>
				</g>
				<g>
					<g>
						<circle cx="1111.4" cy="491.2" r="5" style="fill:#383A48;"/>
					</g>
				</g>
				<g>
					<g>
						<circle cx="1111.4" cy="515.9" r="5" style="fill:#383A48;"/>
					</g>
				</g>
				<g>
					<g>
						<circle cx="1111.4" cy="540.6" r="5" style="fill:#383A48;"/>
					</g>
				</g>
				<g>
					<g>
						<circle cx="1111.4" cy="565.2" r="5" style="fill:#383A48;"/>
					</g>
				</g>
				<g>
					<g>
						<circle cx="1111.4" cy="589.9" r="5" style="fill:#383A48;"/>
					</g>
				</g>
				<g>
					<g>
						<circle cx="1111.4" cy="614.6" r="5" style="fill:#383A48;"/>
					</g>
				</g>
				<g>
					<g>
						<circle cx="1111.4" cy="639.2" r="5" style="fill:#383A48;"/>
					</g>
				</g>
				<g>
					<g>
						<circle cx="1111.4" cy="663.9" r="5" style="fill:#383A48;"/>
					</g>
				</g>
				<g>
					<g>
						<circle cx="1111.4" cy="688.6" r="5" style="fill:#383A48;"/>
					</g>
				</g>
				<g>
					<g>
						<circle cx="1111.4" cy="713.2" r="5" style="fill:#383A48;"/>
					</g>
				</g>
				<g>
					<g>
						<circle cx="1111.4" cy="737.9" r="5" style="fill:#383A48;"/>
					</g>
				</g>
				<g>
					<g>
						<circle cx="1111.4" cy="762.6" r="5" style="fill:#383A48;"/>
					</g>
				</g>
				<g>
					<g>
						<circle cx="1111.4" cy="787.2" r="5" style="fill:#383A48;"/>
					</g>
				</g>
				<g>
					<g>
						<circle cx="1111.4" cy="811.9" r="5" style="fill:#383A48;"/>
					</g>
				</g>
				<g>
					<g>
						<circle cx="1111.4" cy="836.6" r="5" style="fill:#383A48;"/>
					</g>
				</g>
				<g>
					<g>
						<circle cx="1111.4" cy="861.2" r="5" style="fill:#383A48;"/>
					</g>
				</g>
				<g>
					<g>
						<circle cx="1111.4" cy="885.9" r="5" style="fill:#383A48;"/>
					</g>
				</g>
				<g>
					<g>
						<circle cx="1111.4" cy="910.6" r="5" style="fill:#383A48;"/>
					</g>
				</g>
				<g>
					<g>
						<circle cx="1111.4" cy="935.2" r="5" style="fill:#383A48;"/>
					</g>
				</g>
				<g>
					<g>
						<circle cx="1086.7" cy="491.2" r="5" style="fill:#383A48;"/>
					</g>
				</g>
				<g>
					<g>
						<circle cx="1086.7" cy="515.9" r="5" style="fill:#383A48;"/>
					</g>
				</g>
				<g>
					<g>
						<circle cx="1086.7" cy="540.6" r="5" style="fill:#383A48;"/>
					</g>
				</g>
				<g>
					<g>
						<circle cx="1086.7" cy="565.2" r="5" style="fill:#383A48;"/>
					</g>
				</g>
				<g>
					<g>
						<circle cx="1086.7" cy="589.9" r="5" style="fill:#383A48;"/>
					</g>
				</g>
				<g>
					<g>
						<circle cx="1086.7" cy="614.6" r="5" style="fill:#383A48;"/>
					</g>
				</g>
				<g>
					<g>
						<circle cx="1086.7" cy="639.2" r="5" style="fill:#383A48;"/>
					</g>
				</g>
				<g>
					<g>
						<circle cx="1086.7" cy="663.9" r="5" style="fill:#383A48;"/>
					</g>
				</g>
				<g>
					<g>
						<circle cx="1086.7" cy="688.6" r="5" style="fill:#383A48;"/>
					</g>
				</g>
				<g>
					<g>
						<circle cx="1086.7" cy="713.2" r="5" style="fill:#383A48;"/>
					</g>
				</g>
				<g>
					<g>
						<circle cx="1086.7" cy="737.9" r="5" style="fill:#383A48;"/>
					</g>
				</g>
				<g>
					<g>
						<circle cx="1086.7" cy="762.6" r="5" style="fill:#383A48;"/>
					</g>
				</g>
				<g>
					<g>
						<circle cx="1086.7" cy="787.2" r="5" style="fill:#383A48;"/>
					</g>
				</g>
				<g>
					<g>
						<circle cx="1086.7" cy="811.9" r="5" style="fill:#383A48;"/>
					</g>
				</g>
				<g>
					<g>
						<circle cx="1086.7" cy="836.6" r="5" style="fill:#383A48;"/>
					</g>
				</g>
				<g>
					<g>
						<circle cx="1086.7" cy="861.2" r="5" style="fill:#383A48;"/>
					</g>
				</g>
				<g>
					<g>
						<circle cx="1086.7" cy="885.9" r="5" style="fill:#383A48;"/>
					</g>
				</g>
				<g>
					<g>
						<circle cx="1086.7" cy="910.6" r="5" style="fill:#383A48;"/>
					</g>
				</g>
				<g>
					<g>
						<circle cx="1086.7" cy="935.2" r="5" style="fill:#383A48;"/>
					</g>
				</g>
				<g>
					<g>
						<circle cx="1062" cy="515.9" r="5" style="fill:#383A48;"/>
					</g>
				</g>
				<g>
					<g>
						<circle cx="1062" cy="540.6" r="5" style="fill:#383A48;"/>
					</g>
				</g>
				<g>
					<g>
						<circle cx="1062" cy="565.2" r="5" style="fill:#383A48;"/>
					</g>
				</g>
				<g>
					<g>
						<circle cx="1062" cy="589.9" r="5" style="fill:#383A48;"/>
					</g>
				</g>
				<g>
					<g>
						<circle cx="1062" cy="614.6" r="5" style="fill:#383A48;"/>
					</g>
				</g>
				<g>
					<g>
						<circle cx="1062" cy="639.2" r="5" style="fill:#383A48;"/>
					</g>
				</g>
				<g>
					<g>
						<circle cx="1062" cy="663.9" r="5" style="fill:#383A48;"/>
					</g>
				</g>
				<g>
					<g>
						<circle cx="1062" cy="688.6" r="5" style="fill:#383A48;"/>
					</g>
				</g>
				<g>
					<g>
						<circle cx="1062" cy="713.2" r="5" style="fill:#383A48;"/>
					</g>
				</g>
				<g>
					<g>
						<circle cx="1062" cy="737.9" r="5" style="fill:#383A48;"/>
					</g>
				</g>
				<g>
					<g>
						<circle cx="1062" cy="762.6" r="5" style="fill:#383A48;"/>
					</g>
				</g>
				<g>
					<g>
						<circle cx="1062" cy="787.2" r="5" style="fill:#383A48;"/>
					</g>
				</g>
				<g>
					<g>
						<circle cx="1062" cy="811.9" r="5" style="fill:#383A48;"/>
					</g>
				</g>
				<g>
					<g>
						<circle cx="1062" cy="836.6" r="5" style="fill:#383A48;"/>
					</g>
				</g>
				<g>
					<g>
						<circle cx="1062" cy="861.2" r="5" style="fill:#383A48;"/>
					</g>
				</g>
				<g>
					<g>
						<circle cx="1062" cy="885.9" r="5" style="fill:#383A48;"/>
					</g>
				</g>
				<g>
					<g>
						<circle cx="1062" cy="910.6" r="5" style="fill:#383A48;"/>
					</g>
				</g>
				<g>
					<g>
						<circle cx="1037.4" cy="540.6" r="5" style="fill:#383A48;"/>
					</g>
				</g>
				<g>
					<g>
						<circle cx="1037.4" cy="565.2" r="5" style="fill:#383A48;"/>
					</g>
				</g>
				<g>
					<g>
						<circle cx="1037.4" cy="589.9" r="5" style="fill:#383A48;"/>
					</g>
				</g>
				<g>
					<g>
						<circle cx="1037.4" cy="614.6" r="5" style="fill:#383A48;"/>
					</g>
				</g>
				<g>
					<g>
						<circle cx="1037.4" cy="639.2" r="5" style="fill:#383A48;"/>
					</g>
				</g>
				<g>
					<g>
						<circle cx="1037.4" cy="663.9" r="5" style="fill:#383A48;"/>
					</g>
				</g>
				<g>
					<g>
						<circle cx="1037.4" cy="688.6" r="5" style="fill:#383A48;"/>
					</g>
				</g>
				<g>
					<g>
						<circle cx="1037.4" cy="713.2" r="5" style="fill:#383A48;"/>
					</g>
				</g>
				<g>
					<g>
						<circle cx="1037.4" cy="737.9" r="5" style="fill:#383A48;"/>
					</g>
				</g>
				<g>
					<g>
						<circle cx="1037.4" cy="762.6" r="5" style="fill:#383A48;"/>
					</g>
				</g>
				<g>
					<g>
						<circle cx="1037.4" cy="787.2" r="5" style="fill:#383A48;"/>
					</g>
				</g>
				<g>
					<g>
						<circle cx="1037.4" cy="811.9" r="5" style="fill:#383A48;"/>
					</g>
				</g>
				<g>
					<g>
						<circle cx="1037.4" cy="836.6" r="5" style="fill:#383A48;"/>
					</g>
				</g>
				<g>
					<g>
						<circle cx="1037.4" cy="861.2" r="5" style="fill:#383A48;"/>
					</g>
				</g>
				<g>
					<g>
						<circle cx="1037.4" cy="885.9" r="5" style="fill:#383A48;"/>
					</g>
				</g>
			</g>
		</g>
	</g>
	<g>
		<path d="M515.7,947.5H249.4c-2.8,0-5-2.2-5-5s2.2-5,5-5h266.2c2.8,0,5,2.2,5,5S518.4,947.5,515.7,947.5z" style="fill:#383A48;"/>
	</g>
	<g>
		<g>
			<circle cx="435.2" cy="257.9" r="120.7" style="fill:#F6E049;"/>
			<path d="M435.2,383.6c-69.3,0-125.7-56.4-125.7-125.7s56.4-125.7,125.7-125.7c69.3,0,125.7,56.4,125.7,125.7
				S504.5,383.6,435.2,383.6z M435.2,142.1c-63.8,0-115.7,51.9-115.7,115.7c0,63.8,51.9,115.7,115.7,115.7S551,321.7,551,257.9
				C551,194,499,142.1,435.2,142.1z" style="fill:#383A48;"/>
		</g>
		<g>
			<ellipse cx="435.2" cy="257.9" rx="56" ry="120.7" style="fill:#F3F6E6;"/>
			<path d="M435.2,383.6c-34.2,0-61-55.2-61-125.7c0-70.5,26.8-125.7,61-125.7c34.2,0,61,55.2,61,125.7
				C496.2,328.4,469.4,383.6,435.2,383.6z M435.2,142.1c-27.6,0-51,53-51,115.7c0,62.7,23.3,115.7,51,115.7c27.6,0,51-53,51-115.7
				C486.2,195.1,462.8,142.1,435.2,142.1z" style="fill:#383A48;"/>
		</g>
		<g>
			<path d="M460.5,500.2h-50.6c-9.8,0-17.7-7.9-17.7-17.7v-50.6c0-9.8,7.9-17.7,17.7-17.7h50.6
				c9.8,0,17.7,7.9,17.7,17.7v50.6C478.2,492.3,470.3,500.2,460.5,500.2z" style="fill:#E0719E;"/>
			<path d="M460.5,505.2h-50.6c-12.5,0-22.7-10.2-22.7-22.7v-50.6c0-12.5,10.2-22.7,22.7-22.7h50.6
				c12.5,0,22.7,10.2,22.7,22.7v50.6C483.2,495,473,505.2,460.5,505.2z M409.9,419.3c-7,0-12.7,5.7-12.7,12.7v50.6
				c0,7,5.7,12.7,12.7,12.7h50.6c7,0,12.7-5.7,12.7-12.7v-50.6c0-7-5.7-12.7-12.7-12.7H409.9z" style="fill:#383A48;"/>
		</g>
		<g>
			
				<rect x="452.7" y="383.5" transform="matrix(0.4614 -0.8872 0.8872 0.4614 -83.6136 639.3188)" width="64.1" height="10" style="fill:#383A48;"/>
		</g>
		<g>
			
				<rect x="380.7" y="356.5" transform="matrix(0.8872 -0.4614 0.4614 0.8872 -135.752 221.7838)" width="10" height="64.1" style="fill:#383A48;"/>
		</g>
		<g>
			<rect x="430.2" y="378.3" width="10" height="36" style="fill:#383A48;"/>
		</g>
	</g>
	<g>
		<path d="M838.8,393.5c-1.8,0-3.5-1-4.4-2.6c-1.3-2.4-0.4-5.5,2.1-6.8l355-189.5c2.4-1.3,5.5-0.4,6.8,2.1
			c1.3,2.4,0.4,5.5-2.1,6.8l-355,189.5C840.4,393.3,839.6,393.5,838.8,393.5z" style="fill:#383A48;"/>
	</g>
	<path d="M1674.1,133.6c-0.9-0.9-2.2-1.5-3.5-1.5h-156.6c-2.8,0-5,2.2-5,5c0,89.1,72.5,161.6,161.6,161.6
		c2.8,0,5-2.2,5-5V137.1C1675.6,135.8,1675,134.5,1674.1,133.6z" style="fill:#E0719E;"/>
	<g>
		<circle cx="802.6" cy="195.6" r="58.5" style="fill:#4053FA;"/>
		<path d="M802.6,259c-35,0-63.5-28.5-63.5-63.5s28.5-63.5,63.5-63.5s63.5,28.5,63.5,63.5S837.6,259,802.6,259z
			 M802.6,142.1c-29.5,0-53.5,24-53.5,53.5s24,53.5,53.5,53.5c29.5,0,53.5-24,53.5-53.5S832,142.1,802.6,142.1z" style="fill:#383A48;"/>
	</g>
	<g>
		<circle cx="686.6" cy="195.6" r="58.5" style="fill:#E0719E;"/>
		<path d="M686.6,259c-35,0-63.5-28.5-63.5-63.5s28.5-63.5,63.5-63.5s63.5,28.5,63.5,63.5S721.6,259,686.6,259z
			 M686.6,142.1c-29.5,0-53.5,24-53.5,53.5s24,53.5,53.5,53.5c29.5,0,53.5-24,53.5-53.5S716,142.1,686.6,142.1z" style="fill:#383A48;"/>
	</g>
	<g>
		<g>
			<line x1="1373.1" y1="205.6" x2="1396.4" y2="228.9" style="fill:#383A48;"/>
			
				<rect x="1379.8" y="200.8" transform="matrix(0.7071 -0.7071 0.7071 0.7071 251.9668 1042.8224)" width="10" height="33" style="fill:#383A48;"/>
		</g>
		<g>
			<line x1="1373.1" y1="228.9" x2="1396.4" y2="205.6" style="fill:#383A48;"/>
			
				<rect x="1368.3" y="212.3" transform="matrix(0.7071 -0.7071 0.7071 0.7071 251.9788 1042.839)" width="33" height="10" style="fill:#383A48;"/>
		</g>
	</g>
	<g>
		<g>
			<line x1="660.7" y1="417.1" x2="684" y2="440.4" style="fill:#383A48;"/>
			
				<rect x="667.3" y="412.3" transform="matrix(0.7071 -0.7071 0.7071 0.7071 -106.2579 600.9708)" width="10" height="33" style="fill:#383A48;"/>
		</g>
		<g>
			<line x1="660.7" y1="440.4" x2="684" y2="417.1" style="fill:#383A48;"/>
			
				<rect x="655.8" y="423.8" transform="matrix(0.7071 -0.7071 0.7071 0.7071 -106.2511 601.0017)" width="33" height="10" style="fill:#383A48;"/>
		</g>
	</g>
</g>
</svg>
