<svg xmlns="http://www.w3.org/2000/svg" xmlns:xlink="http://www.w3.org/1999/xlink" width="1412" height="754" version="1.1" viewBox="0 0 1412 754"><title>upgrade-5</title><desc>Created with Sketch.</desc><g id="Page-1" fill="none" fill-rule="evenodd" stroke="none" stroke-width="1"><g id="upgrade-5" transform="translate(-287.000000, -163.000000)"><g id="Group" transform="translate(221.000000, 163.000000)"><g id="Oval" fill="#383A48" fill-rule="nonzero" transform="translate(720.000000, 482.000000)"><circle cx="350.8" cy="5.3" r="5"/><circle cx="350.8" cy="30" r="5"/><circle cx="350.8" cy="54.7" r="5"/><circle cx="350.8" cy="79.3" r="5"/><circle cx="350.8" cy="104" r="5"/><circle cx="350.8" cy="128.7" r="5"/><circle cx="350.8" cy="153.3" r="5"/><circle cx="350.8" cy="178" r="5"/><circle cx="350.8" cy="202.7" r="5"/><circle cx="350.8" cy="227.3" r="5"/><circle cx="350.8" cy="252" r="5"/><circle cx="326.1" cy="5.3" r="5"/><circle cx="326.1" cy="30" r="5"/><circle cx="326.1" cy="54.7" r="5"/><circle cx="326.1" cy="79.3" r="5"/><circle cx="326.1" cy="104" r="5"/><circle cx="326.1" cy="128.7" r="5"/><circle cx="326.1" cy="153.3" r="5"/><circle cx="326.1" cy="178" r="5"/><circle cx="326.1" cy="202.7" r="5"/><circle cx="326.1" cy="227.3" r="5"/><circle cx="326.1" cy="252" r="5"/><circle cx="301.5" cy="5.3" r="5"/><circle cx="301.5" cy="30" r="5"/><circle cx="301.5" cy="54.7" r="5"/><circle cx="301.5" cy="79.3" r="5"/><circle cx="301.5" cy="104" r="5"/><circle cx="301.5" cy="128.7" r="5"/><circle cx="301.5" cy="153.3" r="5"/><circle cx="301.5" cy="178" r="5"/><circle cx="301.5" cy="202.7" r="5"/><circle cx="301.5" cy="227.3" r="5"/><circle cx="301.5" cy="252" r="5"/><circle cx="276.8" cy="5.3" r="5"/><circle cx="276.8" cy="30" r="5"/><circle cx="276.8" cy="54.7" r="5"/><circle cx="276.8" cy="79.3" r="5"/><circle cx="276.8" cy="104" r="5"/><circle cx="276.8" cy="128.7" r="5"/><circle cx="276.8" cy="153.3" r="5"/><circle cx="276.8" cy="178" r="5"/><circle cx="276.8" cy="202.7" r="5"/><circle cx="276.8" cy="227.3" r="5"/><circle cx="276.8" cy="252" r="5"/><circle cx="252.1" cy="5.3" r="5"/><circle cx="252.1" cy="30" r="5"/><circle cx="252.1" cy="54.7" r="5"/><circle cx="252.1" cy="79.3" r="5"/><circle cx="252.1" cy="104" r="5"/><circle cx="252.1" cy="128.7" r="5"/><circle cx="252.1" cy="153.3" r="5"/><circle cx="252.1" cy="178" r="5"/><circle cx="252.1" cy="202.7" r="5"/><circle cx="252.1" cy="227.3" r="5"/><circle cx="252.1" cy="252" r="5"/><circle cx="227.5" cy="5.3" r="5"/><circle cx="227.5" cy="30" r="5"/><circle cx="227.5" cy="54.7" r="5"/><circle cx="227.5" cy="79.3" r="5"/><circle cx="227.5" cy="104" r="5"/><circle cx="227.5" cy="128.7" r="5"/><circle cx="227.5" cy="153.3" r="5"/><circle cx="227.5" cy="178" r="5"/><circle cx="227.5" cy="202.7" r="5"/><circle cx="227.5" cy="227.3" r="5"/><circle cx="227.5" cy="252" r="5"/><circle cx="202.8" cy="5.3" r="5"/><circle cx="202.8" cy="30" r="5"/><circle cx="202.8" cy="54.7" r="5"/><circle cx="202.8" cy="79.3" r="5"/><circle cx="202.8" cy="104" r="5"/><circle cx="202.8" cy="128.7" r="5"/><circle cx="202.8" cy="153.3" r="5"/><circle cx="202.8" cy="178" r="5"/><circle cx="202.8" cy="202.7" r="5"/><circle cx="202.8" cy="227.3" r="5"/><circle cx="202.8" cy="252" r="5"/><circle cx="178.1" cy="5.3" r="5"/><circle cx="178.1" cy="30" r="5"/><circle cx="178.1" cy="54.7" r="5"/><circle cx="178.1" cy="79.3" r="5"/><circle cx="178.1" cy="104" r="5"/><circle cx="178.1" cy="128.7" r="5"/><circle cx="178.1" cy="153.3" r="5"/><circle cx="178.1" cy="178" r="5"/><circle cx="178.1" cy="202.7" r="5"/><circle cx="178.1" cy="227.3" r="5"/><circle cx="178.1" cy="252" r="5"/><circle cx="153.5" cy="5.3" r="5"/><circle cx="153.5" cy="30" r="5"/><circle cx="153.5" cy="54.7" r="5"/><circle cx="153.5" cy="79.3" r="5"/><circle cx="153.5" cy="104" r="5"/><circle cx="153.5" cy="128.7" r="5"/><circle cx="153.5" cy="153.3" r="5"/><circle cx="153.5" cy="178" r="5"/><circle cx="153.5" cy="202.7" r="5"/><circle cx="153.5" cy="227.3" r="5"/><circle cx="153.5" cy="252" r="5"/><circle cx="128.8" cy="5.3" r="5"/><circle cx="128.8" cy="30" r="5"/><circle cx="128.8" cy="54.7" r="5"/><circle cx="128.8" cy="79.3" r="5"/><circle cx="128.8" cy="104" r="5"/><circle cx="128.8" cy="128.7" r="5"/><circle cx="128.8" cy="153.3" r="5"/><circle cx="128.8" cy="178" r="5"/><circle cx="128.8" cy="202.7" r="5"/><circle cx="128.8" cy="227.3" r="5"/><circle cx="128.8" cy="252" r="5"/><circle cx="104.1" cy="5.3" r="5"/><circle cx="104.1" cy="30" r="5"/><circle cx="104.1" cy="54.7" r="5"/><circle cx="104.1" cy="79.3" r="5"/><circle cx="104.1" cy="104" r="5"/><circle cx="104.1" cy="128.7" r="5"/><circle cx="104.1" cy="153.3" r="5"/><circle cx="104.1" cy="178" r="5"/><circle cx="104.1" cy="202.7" r="5"/><circle cx="104.1" cy="227.3" r="5"/><circle cx="104.1" cy="252" r="5"/><circle cx="79.5" cy="5.3" r="5"/><circle cx="79.5" cy="30" r="5"/><circle cx="79.5" cy="54.7" r="5"/><circle cx="79.5" cy="79.3" r="5"/><circle cx="79.5" cy="104" r="5"/><circle cx="79.5" cy="128.7" r="5"/><circle cx="79.5" cy="153.3" r="5"/><circle cx="79.5" cy="178" r="5"/><circle cx="79.5" cy="202.7" r="5"/><circle cx="79.5" cy="227.3" r="5"/><circle cx="79.5" cy="252" r="5"/><circle cx="54.8" cy="5.3" r="5"/><circle cx="54.8" cy="30" r="5"/><circle cx="54.8" cy="54.7" r="5"/><circle cx="54.8" cy="79.3" r="5"/><circle cx="54.8" cy="104" r="5"/><circle cx="54.8" cy="128.7" r="5"/><circle cx="54.8" cy="153.3" r="5"/><circle cx="54.8" cy="178" r="5"/><circle cx="54.8" cy="202.7" r="5"/><circle cx="54.8" cy="227.3" r="5"/><circle cx="54.8" cy="252" r="5"/><circle cx="30.1" cy="5.3" r="5"/><circle cx="30.1" cy="30" r="5"/><circle cx="30.1" cy="54.7" r="5"/><circle cx="30.1" cy="79.3" r="5"/><circle cx="30.1" cy="104" r="5"/><circle cx="30.1" cy="128.7" r="5"/><circle cx="30.1" cy="153.3" r="5"/><circle cx="30.1" cy="178" r="5"/><circle cx="30.1" cy="202.7" r="5"/><circle cx="30.1" cy="227.3" r="5"/><circle cx="5.5" cy="5.3" r="5"/><circle cx="5.5" cy="30" r="5"/><circle cx="5.5" cy="54.7" r="5"/><circle cx="5.5" cy="79.3" r="5"/><circle cx="5.5" cy="104" r="5"/><circle cx="5.5" cy="128.7" r="5"/><circle cx="5.5" cy="153.3" r="5"/><circle cx="5.5" cy="178" r="5"/></g><g transform="translate(117.000000, 599.000000)"><rect id="Rectangle" width="10" height="33" x="11.7" y=".4" fill="#383A48" fill-rule="nonzero"/><g transform="translate(0.000000, 11.000000)"><line id="Path" x1=".3" x2="33.2" y1="5.9" y2="5.9"/><rect id="Rectangle" width="33" height="10" x=".3" y=".9" fill="#383A48" fill-rule="nonzero"/></g></g><g transform="translate(639.000000, 244.000000)"><rect id="Rectangle" width="10" height="33" x="12" y=".2" fill="#383A48" fill-rule="nonzero"/><g transform="translate(0.000000, 11.000000)"><line id="Path" x1=".5" x2="33.5" y1="5.7" y2="5.7"/><rect id="Rectangle" width="33" height="10" x=".5" y=".7" fill="#383A48" fill-rule="nonzero"/></g></g><g fill-rule="nonzero"><g transform="translate(128.000000, 0.000000) translate(0.000000, 190.000000)"><polygon id="Path" fill="#7FD6C2" points="273.1 92.5 242.9 142.8 221.5 178.3 149.9 297.3 108.8 202.5 5.7 210.6 77.4 91.5 129 5.8 242.9 74.3"/><path id="Shape" fill="#383A48" d="M149.9,302.3 C149.8,302.3 149.7,302.3 149.6,302.3 C147.7,302.2 146.1,301 145.3,299.3 L105.6,207.8 L6.1,215.6 C4.2,215.7 2.4,214.8 1.5,213.2 C0.5,211.6 0.5,209.6 1.5,208 L124.8,3.2 C125.5,2.1 126.6,1.2 127.9,0.9 C129.2,0.6 130.5,0.8 131.7,1.5 L275.8,88.3 C278.2,89.7 278.9,92.8 277.5,95.2 L154.2,299.9 C153.3,301.4 151.6,302.3 149.9,302.3 Z M108.8,197.5 C110.8,197.5 112.6,198.7 113.4,200.5 L150.7,286.4 L266.4,94.2 L130.8,12.6 L15,204.8 L108.3,197.5 C108.5,197.5 108.6,197.5 108.8,197.5 Z"/></g><g transform="translate(128.000000, 0.000000) translate(207.000000, 190.000000)"><polygon id="Path" fill="#7FD6C2" points="273.1 210.6 170.1 202.5 129 297.3 57.3 178.3 35.9 142.8 5.7 92.5 35.9 74.3 149.8 5.8 201.4 91.5"/><path id="Shape" fill="#383A48" d="M129,302.3 C127.3,302.3 125.6,301.4 124.7,299.9 L1.4,95.1 C-8.65973959e-15,92.7 0.7,89.7 3.1,88.2 L147.2,1.4 C148.3,0.7 149.7,0.5 151,0.8 C152.3,1.1 153.4,1.9 154.1,3.1 L277.4,208 C278.4,209.6 278.4,211.6 277.4,213.2 C276.4,214.8 274.6,215.7 272.8,215.6 L173.3,207.8 L133.6,299.3 C132.9,301 131.2,302.2 129.3,302.3 C129.2,302.3 129.1,302.3 129,302.3 Z M12.5,94.2 L128.2,286.4 L165.4,200.5 C166.2,198.5 168.2,197.3 170.4,197.5 L263.7,204.8 L148.1,12.6 L12.5,94.2 Z"/></g><g fill="#383A48" transform="translate(128.000000, 0.000000) translate(71.000000, 189.000000)"><path id="Path" d="M337.4,92.5 C305.3,140 253.2,172.9 193.3,179.3 L171.9,143.8 L150.5,179.3 C90.5,172.9 38.5,140 6.4,92.5 L58,6.8 L171.9,75.4 L285.8,6.8 L337.4,92.5 Z"/><path id="Shape" d="M153.2,184.6 L150,184.3 C90,177.9 36.2,145.5 2.2,95.4 L0.4,92.8 L56.2,0 L171.8,69.6 L287.4,0 L343.2,92.8 L341.4,95.4 C307.5,145.5 253.6,177.9 193.6,184.3 L190.4,184.6 L171.7,153.5 L153.2,184.6 Z M171.9,134.1 L195.9,174 C250.6,167.3 299.7,137.7 331.5,92.4 L284.1,13.7 L171.9,81.2 L59.7,13.7 L12.3,92.4 C44.1,137.7 93.2,167.3 147.9,174 L171.9,134.1 Z"/></g><g transform="translate(128.000000, 0.000000) translate(73.000000, 0.000000)"><circle id="Oval" cx="169.9" cy="169.7" r="164" fill="#F6E049"/><path id="Shape" fill="#383A48" d="M169.9,338.7 C76.7,338.7 0.9,262.9 0.9,169.7 C0.9,76.5 76.7,0.7 169.9,0.7 C263.1,0.7 338.9,76.5 338.9,169.7 C338.9,262.9 263.1,338.7 169.9,338.7 Z M169.9,10.7 C82.2,10.7 10.9,82 10.9,169.7 C10.9,257.4 82.2,328.7 169.9,328.7 C257.6,328.7 328.9,257.4 328.9,169.7 C328.9,82 257.6,10.7 169.9,10.7 Z"/></g><g transform="translate(128.000000, 0.000000) translate(153.000000, 75.000000)"><polygon id="Path" fill="#F3F6E6" points="89.9 5.4 115.9 58.2 174.2 66.6 132 107.7 142 165.6 89.9 138.3 37.9 165.6 47.8 107.7 5.7 66.6 63.9 58.2"/><path id="Shape" fill="#383A48" d="M142,170.6 C141.2,170.6 140.4,170.4 139.7,170 L90,143.9 L40.3,170 C38.6,170.9 36.6,170.7 35,169.6 C33.5,168.5 32.7,166.6 33,164.7 L42.5,109.3 L2.3,70.1 C0.9,68.8 0.4,66.8 1,65 C1.6,63.2 3.2,61.9 5,61.6 L60.6,53.5 L85.5,3.1 C86.3,1.4 88.1,0.3 90,0.3 C91.9,0.3 93.6,1.4 94.5,3.1 L119.4,53.5 L175,61.6 C176.9,61.9 178.4,63.2 179,65 C179.6,66.8 179.1,68.8 177.7,70.1 L137.5,109.3 L147,164.7 C147.3,166.6 146.6,168.5 145,169.6 C144,170.3 143,170.6 142,170.6 Z M16.4,70.1 L51.3,104.1 C52.5,105.2 53,106.9 52.7,108.5 L44.5,156.5 L87.6,133.8 C89.1,133 90.8,133 92.3,133.8 L135.4,156.5 L127.2,108.5 C126.9,106.9 127.5,105.2 128.6,104.1 L163.5,70.1 L115.3,63.1 C113.7,62.9 112.3,61.8 111.5,60.4 L90,16.7 L68.5,60.4 C67.8,61.9 66.4,62.9 64.7,63.1 L16.4,70.1 Z"/></g></g><g fill-rule="nonzero"><g transform="translate(717.000000, 4.000000)"><rect id="Rectangle" width="474" height="474" x="5.1" y="5.5" fill="#F3F6E6"/><path id="Shape" fill="#383A48" d="M479.1,484.5 L5.1,484.5 C2.3,484.5 0.1,482.3 0.1,479.5 L0.1,5.5 C0.1,2.7 2.3,0.5 5.1,0.5 L479.1,0.5 C481.9,0.5 484.1,2.7 484.1,5.5 L484.1,479.5 C484.1,482.3 481.9,484.5 479.1,484.5 Z M10.1,474.5 L474.1,474.5 L474.1,10.5 L10.1,10.5 L10.1,474.5 L10.1,474.5 Z"/></g><g transform="translate(717.000000, 4.000000)"><rect id="Rectangle" width="474" height="144" x="5.1" y="5.5" fill="#E0719E"/><path id="Shape" fill="#383A48" d="M479.1,154.5 L5.1,154.5 C2.3,154.5 0.1,152.3 0.1,149.5 L0.1,5.5 C0.1,2.7 2.3,0.5 5.1,0.5 L479.1,0.5 C481.9,0.5 484.1,2.7 484.1,5.5 L484.1,149.5 C484.1,152.2 481.9,154.5 479.1,154.5 Z M10.1,144.5 L474.1,144.5 L474.1,10.5 L10.1,10.5 L10.1,144.5 L10.1,144.5 Z"/></g></g><g fill-rule="nonzero"><g transform="translate(763.000000, 48.000000)"><rect id="Rectangle" width="474" height="474" x="5.1" y="5.6" fill="#F3F6E6"/><path id="Shape" fill="#383A48" d="M479.1,484.6 L5.1,484.6 C2.3,484.6 0.1,482.4 0.1,479.6 L0.1,5.6 C0.1,2.8 2.3,0.6 5.1,0.6 L479.1,0.6 C481.9,0.6 484.1,2.8 484.1,5.6 L484.1,479.6 C484.1,482.4 481.9,484.6 479.1,484.6 Z M10.1,474.6 L474.1,474.6 L474.1,10.6 L10.1,10.6 L10.1,474.6 L10.1,474.6 Z"/></g><g transform="translate(763.000000, 48.000000)"><rect id="Rectangle" width="474" height="144" x="5.1" y="5.6" fill="#E0719E"/><path id="Shape" fill="#383A48" d="M479.1,154.6 L5.1,154.6 C2.3,154.6 0.1,152.4 0.1,149.6 L0.1,5.6 C0.1,2.8 2.3,0.6 5.1,0.6 L479.1,0.6 C481.9,0.6 484.1,2.8 484.1,5.6 L484.1,149.6 C484.1,152.4 481.9,154.6 479.1,154.6 Z M10.1,144.6 L474.1,144.6 L474.1,10.6 L10.1,10.6 L10.1,144.6 L10.1,144.6 Z"/></g></g><g fill-rule="nonzero"><g transform="translate(809.000000, 92.000000)"><rect id="Rectangle" width="474" height="474" x="5.1" y="5.7" fill="#F3F6E6"/><path id="Shape" fill="#383A48" d="M479.1,484.8 L5.1,484.8 C2.3,484.8 0.1,482.6 0.1,479.8 L0.1,5.8 C0.1,3 2.3,0.8 5.1,0.8 L479.1,0.8 C481.9,0.8 484.1,3 484.1,5.8 L484.1,479.8 C484.1,482.5 481.9,484.8 479.1,484.8 Z M10.1,474.8 L474.1,474.8 L474.1,10.8 L10.1,10.8 L10.1,474.8 Z"/></g><g transform="translate(809.000000, 92.000000)"><rect id="Rectangle" width="474" height="144" x="5.1" y="5.7" fill="#E0719E"/><path id="Shape" fill="#383A48" d="M479.1,154.7 L5.1,154.7 C2.3,154.7 0.1,152.5 0.1,149.7 L0.1,5.7 C0.1,2.9 2.3,0.7 5.1,0.7 L479.1,0.7 C481.9,0.7 484.1,2.9 484.1,5.7 L484.1,149.7 C484.1,152.5 481.9,154.7 479.1,154.7 Z M10.1,144.7 L474.1,144.7 L474.1,10.7 L10.1,10.7 L10.1,144.7 Z"/></g></g><g fill-rule="nonzero"><g transform="translate(855.000000, 136.000000)"><rect id="Rectangle" width="474" height="474" x="5.1" y="5.8" fill="#F3F6E6"/><path id="Shape" fill="#383A48" d="M479.1,484.9 L5.1,484.9 C2.3,484.9 0.1,482.7 0.1,479.9 L0.1,5.9 C0.1,3.1 2.3,0.9 5.1,0.9 L479.1,0.9 C481.9,0.9 484.1,3.1 484.1,5.9 L484.1,479.9 C484.1,482.6 481.9,484.9 479.1,484.9 Z M10.1,474.9 L474.1,474.9 L474.1,10.9 L10.1,10.9 L10.1,474.9 Z"/></g><g transform="translate(855.000000, 136.000000)"><rect id="Rectangle" width="474" height="144" x="5.1" y="5.8" fill="#E0719E"/><path id="Shape" fill="#383A48" d="M479.1,154.8 L5.1,154.8 C2.3,154.8 0.1,152.6 0.1,149.8 L0.1,5.8 C0.1,3 2.3,0.8 5.1,0.8 L479.1,0.8 C481.9,0.8 484.1,3 484.1,5.8 L484.1,149.8 C484.1,152.6 481.9,154.8 479.1,154.8 Z M10.1,144.8 L474.1,144.8 L474.1,10.8 L10.1,10.8 L10.1,144.8 Z"/></g></g><g fill-rule="nonzero"><g transform="translate(901.000000, 181.000000)"><rect id="Rectangle" width="474" height="474" x="5.1" y="4.9" fill="#F3F6E6"/><path id="Shape" fill="#383A48" d="M479.1,484 L5.1,484 C2.3,484 0.1,481.8 0.1,479 L0.1,5 C0.1,2.2 2.3,0 5.1,0 L479.1,0 C481.9,0 484.1,2.2 484.1,5 L484.1,479 C484.1,481.8 481.9,484 479.1,484 Z M10.1,474 L474.1,474 L474.1,10 L10.1,10 L10.1,474 Z"/></g><g transform="translate(901.000000, 181.000000)"><rect id="Rectangle" width="474" height="144" x="5.1" y="4.9" fill="#E0719E"/><path id="Shape" fill="#383A48" d="M479.1,154 L5.1,154 C2.3,154 0.1,151.8 0.1,149 L0.1,5 C0.1,2.2 2.3,0 5.1,0 L479.1,0 C481.9,0 484.1,2.2 484.1,5 L484.1,149 C484.1,151.7 481.9,154 479.1,154 Z M10.1,144 L474.1,144 L474.1,10 L10.1,10 L10.1,144 Z"/></g></g><g fill-rule="nonzero"><g transform="translate(947.000000, 225.000000)"><rect id="Rectangle" width="474" height="474" x="5.1" y="5.1" fill="#F3F6E6"/><path id="Shape" fill="#383A48" d="M479.1,484.1 L5.1,484.1 C2.3,484.1 0.1,481.9 0.1,479.1 L0.1,5.1 C0.1,2.3 2.3,0.1 5.1,0.1 L479.1,0.1 C481.9,0.1 484.1,2.3 484.1,5.1 L484.1,479.1 C484.1,481.9 481.9,484.1 479.1,484.1 Z M10.1,474.1 L474.1,474.1 L474.1,10.1 L10.1,10.1 L10.1,474.1 Z"/></g><g transform="translate(947.000000, 225.000000)"><rect id="Rectangle" width="474" height="144" x="5.1" y="5.1" fill="#E0719E"/><path id="Shape" fill="#383A48" d="M479.1,154.1 L5.1,154.1 C2.3,154.1 0.1,151.9 0.1,149.1 L0.1,5.1 C0.1,2.3 2.3,0.1 5.1,0.1 L479.1,0.1 C481.9,0.1 484.1,2.3 484.1,5.1 L484.1,149.1 C484.1,151.8 481.9,154.1 479.1,154.1 Z M10.1,144.1 L474.1,144.1 L474.1,10.1 L10.1,10.1 L10.1,144.1 Z"/></g></g><g id="Path" fill="#F3F6E6" fill-rule="nonzero"><path d="M512.1,46.4 L516,48 C522.9,50.8 528.5,56.4 531.3,63.3 L532.9,67.2 C534.4,71 538.1,73.5 542.2,73.5 C546.3,73.5 550,71 551.5,67.2 L553.1,63.3 C555.9,56.4 561.5,50.8 568.4,48 L572.3,46.4 C576.1,44.9 578.6,41.2 578.6,37.1 C578.6,33 576.1,29.3 572.3,27.8 L568.4,26.2 C561.5,23.4 555.9,17.8 553.1,10.9 L551.5,7 L551.5,7 C550,3.2 546.3,0.7 542.2,0.7 C538.1,0.7 534.4,3.2 532.9,7 L531.3,10.9 C528.5,17.8 522.9,23.4 516,26.2 L512.1,27.8 C508.3,29.3 505.8,33 505.8,37.1 C505.8,41.2 508.3,44.9 512.1,46.4 Z" transform="translate(66.000000, 29.000000)"/><path d="M572.3,489.3 L568.4,487.7 C561.5,484.9 555.9,479.3 553.1,472.4 L551.5,468.5 L551.5,468.5 C550,464.7 546.3,462.2 542.2,462.2 C538.1,462.2 534.4,464.7 532.9,468.5 L531.3,472.4 C528.5,479.3 522.9,484.9 516,487.7 L512.1,489.3 C508.3,490.8 505.8,494.5 505.8,498.6 C505.8,502.7 508.3,506.4 512.1,507.9 L516,509.5 C522.9,512.3 528.5,517.9 531.3,524.8 L532.9,528.7 C534.4,532.5 538.1,535 542.2,535 C546.3,535 550,532.5 551.5,528.7 L553.1,524.8 C555.9,517.9 561.5,512.3 568.4,509.5 L572.3,507.9 C576.1,506.4 578.6,502.7 578.6,498.6 C578.5,494.5 576.1,490.9 572.3,489.3 Z" transform="translate(66.000000, 29.000000)"/><path d="M66.5,175.5 L62.6,173.9 C55.7,171.1 50.1,165.5 47.3,158.6 L45.7,154.7 C44.2,150.9 40.5,148.4 36.4,148.4 C32.3,148.4 28.6,150.9 27.1,154.7 L25.5,158.6 C22.7,165.5 17.1,171.1 10.2,173.9 L6.3,175.5 C2.5,177 -5.68434189e-14,180.7 -5.68434189e-14,184.8 C-5.68434189e-14,188.9 2.5,192.6 6.3,194.1 L10.2,195.7 C17.1,198.5 22.7,204.1 25.5,211 L27.1,214.9 C28.6,218.7 32.3,221.2 36.4,221.2 C40.5,221.2 44.2,218.7 45.7,214.9 L47.3,211 C50.1,204.1 55.7,198.5 62.6,195.7 L66.5,194.1 C70.3,192.6 72.8,188.9 72.8,184.8 C72.7,180.7 70.3,177.1 66.5,175.5 Z" transform="translate(66.000000, 29.000000)"/></g><g fill-rule="nonzero"><g><g transform="translate(993.000000, 269.000000)"><rect id="Rectangle" width="474" height="474" x="5.1" y="5.3" fill="#F3F6E6"/><path id="Shape" fill="#383A48" d="M479.1,484.3 L5.1,484.3 C2.3,484.3 0.1,482.1 0.1,479.3 L0.1,5.3 C0.1,2.5 2.3,0.3 5.1,0.3 L479.1,0.3 C481.9,0.3 484.1,2.5 484.1,5.3 L484.1,479.3 C484.1,482.1 481.9,484.3 479.1,484.3 Z M10.1,474.3 L474.1,474.3 L474.1,10.3 L10.1,10.3 L10.1,474.3 Z"/></g><g transform="translate(993.000000, 269.000000)"><rect id="Rectangle" width="474" height="144" x="5.1" y="5.3" fill="#E0719E"/><path id="Shape" fill="#383A48" d="M479.1,154.3 L5.1,154.3 C2.3,154.3 0.1,152.1 0.1,149.3 L0.1,5.3 C0.1,2.5 2.3,0.3 5.1,0.3 L479.1,0.3 C481.9,0.3 484.1,2.5 484.1,5.3 L484.1,149.3 C484.1,152.1 481.9,154.3 479.1,154.3 Z M10.1,144.3 L474.1,144.3 L474.1,10.3 L10.1,10.3 L10.1,144.3 Z"/></g><g transform="translate(993.000000, 269.000000) translate(32.000000, 57.000000)"><circle id="Oval" cx="21.1" cy="20.3" r="15.2" fill="#E0719E"/><path id="Shape" fill="#383A48" d="M21.1,40.5 C10,40.5 0.9,31.5 0.9,20.3 C0.9,9.2 9.9,0.1 21.1,0.1 C32.3,0.1 41.3,9.1 41.3,20.3 C41.2,31.4 32.2,40.5 21.1,40.5 Z M21.1,10.1 C15.5,10.1 10.9,14.7 10.9,20.3 C10.9,25.9 15.5,30.5 21.1,30.5 C26.7,30.5 31.3,25.9 31.3,20.3 C31.2,14.7 26.7,10.1 21.1,10.1 Z"/></g><g transform="translate(993.000000, 269.000000) translate(83.000000, 57.000000)"><circle id="Oval" cx="20.4" cy="20.3" r="15.2" fill="#E0719E"/><path id="Shape" fill="#383A48" d="M20.4,40.5 C9.3,40.5 0.2,31.5 0.2,20.3 C0.2,9.2 9.2,0.1 20.4,0.1 C31.6,0.1 40.6,9.1 40.6,20.3 C40.6,31.4 31.6,40.5 20.4,40.5 Z M20.4,10.1 C14.8,10.1 10.2,14.7 10.2,20.3 C10.2,25.9 14.8,30.5 20.4,30.5 C26,30.5 30.6,25.9 30.6,20.3 C30.6,14.7 26,10.1 20.4,10.1 Z"/></g><g transform="translate(993.000000, 269.000000) translate(133.000000, 57.000000)"><circle id="Oval" cx="20.8" cy="20.3" r="15.2" fill="#E0719E"/><path id="Shape" fill="#383A48" d="M20.8,40.5 C9.7,40.5 0.6,31.5 0.6,20.3 C0.6,9.2 9.6,0.1 20.8,0.1 C32,0.1 41,9.1 41,20.3 C41,31.4 31.9,40.5 20.8,40.5 Z M20.8,10.1 C15.2,10.1 10.6,14.7 10.6,20.3 C10.6,25.9 15.2,30.5 20.8,30.5 C26.4,30.5 31,25.9 31,20.3 C31,14.7 26.4,10.1 20.8,10.1 Z"/></g></g><g transform="translate(993.000000, 269.000000) translate(134.000000, 209.000000)"><polygon id="Path" fill="#F6E049" points="210.8 190.3 5.4 190.3 5.4 5.4 58.8 76 108.1 5.4 157 76 210.8 5.4"/><path id="Shape" fill="#383A48" d="M210.8,195.3 L5.4,195.3 C2.6,195.3 0.4,193.1 0.4,190.3 L0.4,5.4 C0.4,3.3 1.8,1.3 3.8,0.7 C5.8,-1.12077014e-13 8.1,0.7 9.4,2.4 L58.7,67.5 L104,2.6 C104.9,1.3 106.5,0.5 108.1,0.5 L108.1,0.5 C109.7,0.5 111.3,1.3 112.2,2.7 L157.2,67.6 L206.8,2.5 C208.1,0.8 210.3,0.1 212.4,0.8 C214.4,1.5 215.8,3.4 215.8,5.5 L215.8,190.4 C215.8,193.1 213.6,195.3 210.8,195.3 Z M10.4,185.3 L205.8,185.3 L205.8,20.2 L161,79 C160,80.3 158.5,81 156.9,81 C155.3,81 153.8,80.2 152.9,78.9 L108.1,14.2 L63,78.9 C62.1,80.2 60.6,81 59,81 C57.4,81 55.9,80.3 54.9,79 L10.4,20.3 L10.4,185.3 L10.4,185.3 Z"/></g></g><rect id="Rectangle" width="231.598" height="10" x="352.158" y="573.117" fill="#4053FA" fill-rule="nonzero" transform="translate(467.956410, 578.117110) rotate(-45.000000) translate(-467.956410, -578.117110)"/></g></g></g></svg>