<?xml version="1.0" encoding="UTF-8"?>
<svg width="1528px" height="869px" viewBox="0 0 1528 869" version="1.1" xmlns="http://www.w3.org/2000/svg" xmlns:xlink="http://www.w3.org/1999/xlink">
    <!-- Generator: Sketch 59.1 (86144) - https://sketch.com -->
    <title>workshop</title>
    <desc>Created with Sketch.</desc>
    <g id="Page-1" stroke="none" stroke-width="1" fill="none" fill-rule="evenodd">
        <g id="workshop" transform="translate(-198.000000, -108.000000)">
            <g id="Group" transform="translate(198.412500, 108.000000)">
                <path d="M1125.84063,12.9 C1125.33958,10.6 1123.33542,8.9 1120.93042,8.9 L902.376042,8.9 C899.570208,8.9 897.365625,11.1 897.365625,13.9 L897.365625,366.1 C897.365625,367.9 898.367708,369.6 899.870833,370.5 C900.6725,370.9 901.474167,371.1 902.376042,371.1 C903.277917,371.1 904.179792,370.9 904.981458,370.4 C905.983542,369.8 931.035625,354.4 956.388333,323.5 C979.837083,294.9 1007.79521,247.2 1008.09583,181.9 C1008.29625,131 1022.22521,90.9 1049.58208,62.6 C1072.63,38.8 1100.08708,27.7 1120.12875,19.7 L1122.83437,18.6 C1124.93875,17.6 1126.24146,15.3 1125.84063,12.9 Z" id="Path" fill="#F3F6E6" fill-rule="nonzero"></path>
                <path d="M902.376042,8.9 L160.132917,8.9 C157.327083,8.9 155.1225,11.1 155.1225,13.9 L155.1225,540 C155.1225,542.8 157.327083,545 160.132917,545 L902.275833,545 C905.081667,545 907.2894,542.8 907.2894,540 L907.2894,13.9 C907.386458,11.1 905.081667,8.9 902.376042,8.9 Z" id="Path" fill="#383A48" fill-rule="nonzero"></path>
                <g transform="translate(104.216667, 51.000000)" fill-rule="nonzero">
                    <g>
                        <rect id="Rectangle" fill="#AAC6FC" x="5.51145833" y="5.1" width="742.142917" height="526.1"></rect>
                        <path d="M747.754583,536.2 L5.51145833,536.2 C2.705625,536.2 0.501041667,534 0.501041667,531.2 L0.501041667,5.1 C0.501041667,2.3 2.705625,0.1 5.51145833,0.1 L747.654375,0.1 C750.460208,0.1 752.667942,2.3 752.667942,5.1 L752.667942,531.2 C752.765,533.9 750.460208,536.2 747.754583,536.2 Z M10.521875,526.2 L742.643958,526.2 L742.643958,10.1 L10.521875,10.1 L10.521875,526.2 Z" id="Shape" fill="#383A48"></path>
                    </g>
                    <g transform="translate(6.012500, 15.000000)" fill="#383A48" id="Oval">
                        <ellipse cx="722.301667" cy="5" rx="5.01041667" ry="5"></ellipse>
                        <ellipse cx="722.301667" cy="29.7" rx="5.01041667" ry="5"></ellipse>
                        <ellipse cx="722.301667" cy="54.3" rx="5.01041667" ry="5"></ellipse>
                        <ellipse cx="722.301667" cy="79" rx="5.01041667" ry="5"></ellipse>
                        <ellipse cx="722.301667" cy="103.7" rx="5.01041667" ry="5"></ellipse>
                        <ellipse cx="722.301667" cy="128.3" rx="5.01041667" ry="5"></ellipse>
                        <ellipse cx="722.301667" cy="153" rx="5.01041667" ry="5"></ellipse>
                        <ellipse cx="722.301667" cy="177.7" rx="5.01041667" ry="5"></ellipse>
                        <ellipse cx="722.301667" cy="202.3" rx="5.01041667" ry="5"></ellipse>
                        <ellipse cx="722.301667" cy="227" rx="5.01041667" ry="5"></ellipse>
                        <ellipse cx="722.301667" cy="251.7" rx="5.01041667" ry="5"></ellipse>
                        <ellipse cx="722.301667" cy="276.3" rx="5.01041667" ry="5"></ellipse>
                        <ellipse cx="722.301667" cy="301" rx="5.01041667" ry="5"></ellipse>
                        <ellipse cx="722.301667" cy="325.7" rx="5.01041667" ry="5"></ellipse>
                        <ellipse cx="722.301667" cy="350.3" rx="5.01041667" ry="5"></ellipse>
                        <ellipse cx="722.301667" cy="375" rx="5.01041667" ry="5"></ellipse>
                        <ellipse cx="722.301667" cy="399.7" rx="5.01041667" ry="5"></ellipse>
                        <ellipse cx="722.301667" cy="424.3" rx="5.01041667" ry="5"></ellipse>
                        <ellipse cx="722.301667" cy="449" rx="5.01041667" ry="5"></ellipse>
                        <ellipse cx="722.301667" cy="473.7" rx="5.01041667" ry="5"></ellipse>
                        <ellipse cx="722.301667" cy="498.3" rx="5.01041667" ry="5"></ellipse>
                        <ellipse cx="697.550208" cy="5" rx="5.01041667" ry="5"></ellipse>
                        <ellipse cx="697.550208" cy="29.7" rx="5.01041667" ry="5"></ellipse>
                        <ellipse cx="697.550208" cy="54.3" rx="5.01041667" ry="5"></ellipse>
                        <ellipse cx="697.550208" cy="79" rx="5.01041667" ry="5"></ellipse>
                        <ellipse cx="697.550208" cy="103.7" rx="5.01041667" ry="5"></ellipse>
                        <ellipse cx="697.550208" cy="128.3" rx="5.01041667" ry="5"></ellipse>
                        <ellipse cx="697.550208" cy="153" rx="5.01041667" ry="5"></ellipse>
                        <ellipse cx="697.550208" cy="177.7" rx="5.01041667" ry="5"></ellipse>
                        <ellipse cx="697.550208" cy="202.3" rx="5.01041667" ry="5"></ellipse>
                        <ellipse cx="697.550208" cy="227" rx="5.01041667" ry="5"></ellipse>
                        <ellipse cx="697.550208" cy="251.7" rx="5.01041667" ry="5"></ellipse>
                        <ellipse cx="697.550208" cy="276.3" rx="5.01041667" ry="5"></ellipse>
                        <ellipse cx="697.550208" cy="301" rx="5.01041667" ry="5"></ellipse>
                        <ellipse cx="697.550208" cy="325.7" rx="5.01041667" ry="5"></ellipse>
                        <ellipse cx="697.550208" cy="350.3" rx="5.01041667" ry="5"></ellipse>
                        <ellipse cx="697.550208" cy="375" rx="5.01041667" ry="5"></ellipse>
                        <ellipse cx="697.550208" cy="399.7" rx="5.01041667" ry="5"></ellipse>
                        <ellipse cx="697.550208" cy="424.3" rx="5.01041667" ry="5"></ellipse>
                        <ellipse cx="697.550208" cy="449" rx="5.01041667" ry="5"></ellipse>
                        <ellipse cx="697.550208" cy="473.7" rx="5.01041667" ry="5"></ellipse>
                        <ellipse cx="697.550208" cy="498.3" rx="5.01041667" ry="5"></ellipse>
                        <ellipse cx="672.898958" cy="5" rx="5.01041667" ry="5"></ellipse>
                        <ellipse cx="672.898958" cy="29.7" rx="5.01041667" ry="5"></ellipse>
                        <ellipse cx="672.898958" cy="54.3" rx="5.01041667" ry="5"></ellipse>
                        <ellipse cx="672.898958" cy="79" rx="5.01041667" ry="5"></ellipse>
                        <ellipse cx="672.898958" cy="103.7" rx="5.01041667" ry="5"></ellipse>
                        <ellipse cx="672.898958" cy="128.3" rx="5.01041667" ry="5"></ellipse>
                        <ellipse cx="672.898958" cy="153" rx="5.01041667" ry="5"></ellipse>
                        <ellipse cx="672.898958" cy="177.7" rx="5.01041667" ry="5"></ellipse>
                        <ellipse cx="672.898958" cy="202.3" rx="5.01041667" ry="5"></ellipse>
                        <ellipse cx="672.898958" cy="227" rx="5.01041667" ry="5"></ellipse>
                        <ellipse cx="672.898958" cy="251.7" rx="5.01041667" ry="5"></ellipse>
                        <ellipse cx="672.898958" cy="276.3" rx="5.01041667" ry="5"></ellipse>
                        <ellipse cx="672.898958" cy="301" rx="5.01041667" ry="5"></ellipse>
                        <ellipse cx="672.898958" cy="325.7" rx="5.01041667" ry="5"></ellipse>
                        <ellipse cx="672.898958" cy="350.3" rx="5.01041667" ry="5"></ellipse>
                        <ellipse cx="672.898958" cy="375" rx="5.01041667" ry="5"></ellipse>
                        <ellipse cx="672.898958" cy="399.7" rx="5.01041667" ry="5"></ellipse>
                        <ellipse cx="672.898958" cy="424.3" rx="5.01041667" ry="5"></ellipse>
                        <ellipse cx="672.898958" cy="449" rx="5.01041667" ry="5"></ellipse>
                        <ellipse cx="672.898958" cy="473.7" rx="5.01041667" ry="5"></ellipse>
                        <ellipse cx="672.898958" cy="498.3" rx="5.01041667" ry="5"></ellipse>
                        <ellipse cx="648.1475" cy="5" rx="5.01041667" ry="5"></ellipse>
                        <ellipse cx="648.1475" cy="29.7" rx="5.01041667" ry="5"></ellipse>
                        <ellipse cx="648.1475" cy="54.3" rx="5.01041667" ry="5"></ellipse>
                        <ellipse cx="648.1475" cy="79" rx="5.01041667" ry="5"></ellipse>
                        <ellipse cx="648.1475" cy="103.7" rx="5.01041667" ry="5"></ellipse>
                        <ellipse cx="648.1475" cy="128.3" rx="5.01041667" ry="5"></ellipse>
                        <ellipse cx="648.1475" cy="153" rx="5.01041667" ry="5"></ellipse>
                        <ellipse cx="648.1475" cy="177.7" rx="5.01041667" ry="5"></ellipse>
                        <ellipse cx="648.1475" cy="202.3" rx="5.01041667" ry="5"></ellipse>
                        <ellipse cx="648.1475" cy="227" rx="5.01041667" ry="5"></ellipse>
                        <ellipse cx="648.1475" cy="251.7" rx="5.01041667" ry="5"></ellipse>
                        <ellipse cx="648.1475" cy="276.3" rx="5.01041667" ry="5"></ellipse>
                        <ellipse cx="648.1475" cy="301" rx="5.01041667" ry="5"></ellipse>
                        <ellipse cx="648.1475" cy="325.7" rx="5.01041667" ry="5"></ellipse>
                        <ellipse cx="648.1475" cy="350.3" rx="5.01041667" ry="5"></ellipse>
                        <ellipse cx="648.1475" cy="375" rx="5.01041667" ry="5"></ellipse>
                        <ellipse cx="648.1475" cy="399.7" rx="5.01041667" ry="5"></ellipse>
                        <ellipse cx="648.1475" cy="424.3" rx="5.01041667" ry="5"></ellipse>
                        <ellipse cx="648.1475" cy="449" rx="5.01041667" ry="5"></ellipse>
                        <ellipse cx="648.1475" cy="473.7" rx="5.01041667" ry="5"></ellipse>
                        <ellipse cx="648.1475" cy="498.3" rx="5.01041667" ry="5"></ellipse>
                        <ellipse cx="623.396042" cy="5" rx="5.01041667" ry="5"></ellipse>
                        <ellipse cx="623.396042" cy="29.7" rx="5.01041667" ry="5"></ellipse>
                        <ellipse cx="623.396042" cy="54.3" rx="5.01041667" ry="5"></ellipse>
                        <ellipse cx="623.396042" cy="79" rx="5.01041667" ry="5"></ellipse>
                        <ellipse cx="623.396042" cy="103.7" rx="5.01041667" ry="5"></ellipse>
                        <ellipse cx="623.396042" cy="128.3" rx="5.01041667" ry="5"></ellipse>
                        <ellipse cx="623.396042" cy="153" rx="5.01041667" ry="5"></ellipse>
                        <ellipse cx="623.396042" cy="177.7" rx="5.01041667" ry="5"></ellipse>
                        <ellipse cx="623.396042" cy="202.3" rx="5.01041667" ry="5"></ellipse>
                        <ellipse cx="623.396042" cy="227" rx="5.01041667" ry="5"></ellipse>
                        <ellipse cx="623.396042" cy="251.7" rx="5.01041667" ry="5"></ellipse>
                        <ellipse cx="623.396042" cy="276.3" rx="5.01041667" ry="5"></ellipse>
                        <ellipse cx="623.396042" cy="301" rx="5.01041667" ry="5"></ellipse>
                        <ellipse cx="623.396042" cy="325.7" rx="5.01041667" ry="5"></ellipse>
                        <ellipse cx="623.396042" cy="350.3" rx="5.01041667" ry="5"></ellipse>
                        <ellipse cx="623.396042" cy="375" rx="5.01041667" ry="5"></ellipse>
                        <ellipse cx="623.396042" cy="399.7" rx="5.01041667" ry="5"></ellipse>
                        <ellipse cx="623.396042" cy="424.3" rx="5.01041667" ry="5"></ellipse>
                        <ellipse cx="623.396042" cy="449" rx="5.01041667" ry="5"></ellipse>
                        <ellipse cx="623.396042" cy="473.7" rx="5.01041667" ry="5"></ellipse>
                        <ellipse cx="623.396042" cy="498.3" rx="5.01041667" ry="5"></ellipse>
                        <ellipse cx="598.744792" cy="5" rx="5.01041667" ry="5"></ellipse>
                        <ellipse cx="598.744792" cy="29.7" rx="5.01041667" ry="5"></ellipse>
                        <ellipse cx="598.744792" cy="54.3" rx="5.01041667" ry="5"></ellipse>
                        <ellipse cx="598.744792" cy="79" rx="5.01041667" ry="5"></ellipse>
                        <ellipse cx="598.744792" cy="103.7" rx="5.01041667" ry="5"></ellipse>
                        <ellipse cx="598.744792" cy="128.3" rx="5.01041667" ry="5"></ellipse>
                        <ellipse cx="598.744792" cy="153" rx="5.01041667" ry="5"></ellipse>
                        <ellipse cx="598.744792" cy="177.7" rx="5.01041667" ry="5"></ellipse>
                        <ellipse cx="598.744792" cy="202.3" rx="5.01041667" ry="5"></ellipse>
                        <ellipse cx="598.744792" cy="227" rx="5.01041667" ry="5"></ellipse>
                        <ellipse cx="598.744792" cy="251.7" rx="5.01041667" ry="5"></ellipse>
                        <ellipse cx="598.744792" cy="276.3" rx="5.01041667" ry="5"></ellipse>
                        <ellipse cx="598.744792" cy="301" rx="5.01041667" ry="5"></ellipse>
                        <ellipse cx="598.744792" cy="325.7" rx="5.01041667" ry="5"></ellipse>
                        <ellipse cx="598.744792" cy="350.3" rx="5.01041667" ry="5"></ellipse>
                        <ellipse cx="598.744792" cy="375" rx="5.01041667" ry="5"></ellipse>
                        <ellipse cx="598.744792" cy="399.7" rx="5.01041667" ry="5"></ellipse>
                        <ellipse cx="598.744792" cy="424.3" rx="5.01041667" ry="5"></ellipse>
                        <ellipse cx="598.744792" cy="449" rx="5.01041667" ry="5"></ellipse>
                        <ellipse cx="598.744792" cy="473.7" rx="5.01041667" ry="5"></ellipse>
                        <ellipse cx="598.744792" cy="498.3" rx="5.01041667" ry="5"></ellipse>
                        <ellipse cx="573.993333" cy="5" rx="5.01041667" ry="5"></ellipse>
                        <ellipse cx="573.993333" cy="29.7" rx="5.01041667" ry="5"></ellipse>
                        <ellipse cx="573.993333" cy="54.3" rx="5.01041667" ry="5"></ellipse>
                        <ellipse cx="573.993333" cy="79" rx="5.01041667" ry="5"></ellipse>
                        <ellipse cx="573.993333" cy="103.7" rx="5.01041667" ry="5"></ellipse>
                        <ellipse cx="573.993333" cy="128.3" rx="5.01041667" ry="5"></ellipse>
                        <ellipse cx="573.993333" cy="153" rx="5.01041667" ry="5"></ellipse>
                        <ellipse cx="573.993333" cy="177.7" rx="5.01041667" ry="5"></ellipse>
                        <ellipse cx="573.993333" cy="202.3" rx="5.01041667" ry="5"></ellipse>
                        <ellipse cx="573.993333" cy="227" rx="5.01041667" ry="5"></ellipse>
                        <ellipse cx="573.993333" cy="251.7" rx="5.01041667" ry="5"></ellipse>
                        <ellipse cx="573.993333" cy="276.3" rx="5.01041667" ry="5"></ellipse>
                        <ellipse cx="573.993333" cy="301" rx="5.01041667" ry="5"></ellipse>
                        <ellipse cx="573.993333" cy="325.7" rx="5.01041667" ry="5"></ellipse>
                        <ellipse cx="573.993333" cy="350.3" rx="5.01041667" ry="5"></ellipse>
                        <ellipse cx="573.993333" cy="375" rx="5.01041667" ry="5"></ellipse>
                        <ellipse cx="573.993333" cy="399.7" rx="5.01041667" ry="5"></ellipse>
                        <ellipse cx="573.993333" cy="424.3" rx="5.01041667" ry="5"></ellipse>
                        <ellipse cx="573.993333" cy="449" rx="5.01041667" ry="5"></ellipse>
                        <ellipse cx="573.993333" cy="473.7" rx="5.01041667" ry="5"></ellipse>
                        <ellipse cx="573.993333" cy="498.3" rx="5.01041667" ry="5"></ellipse>
                        <ellipse cx="549.241875" cy="5" rx="5.01041667" ry="5"></ellipse>
                        <ellipse cx="549.241875" cy="29.7" rx="5.01041667" ry="5"></ellipse>
                        <ellipse cx="549.241875" cy="54.3" rx="5.01041667" ry="5"></ellipse>
                        <ellipse cx="549.241875" cy="79" rx="5.01041667" ry="5"></ellipse>
                        <ellipse cx="549.241875" cy="103.7" rx="5.01041667" ry="5"></ellipse>
                        <ellipse cx="549.241875" cy="128.3" rx="5.01041667" ry="5"></ellipse>
                        <ellipse cx="549.241875" cy="153" rx="5.01041667" ry="5"></ellipse>
                        <ellipse cx="549.241875" cy="177.7" rx="5.01041667" ry="5"></ellipse>
                        <ellipse cx="549.241875" cy="202.3" rx="5.01041667" ry="5"></ellipse>
                        <ellipse cx="549.241875" cy="227" rx="5.01041667" ry="5"></ellipse>
                        <ellipse cx="549.241875" cy="251.7" rx="5.01041667" ry="5"></ellipse>
                        <ellipse cx="549.241875" cy="276.3" rx="5.01041667" ry="5"></ellipse>
                        <ellipse cx="549.241875" cy="301" rx="5.01041667" ry="5"></ellipse>
                        <ellipse cx="549.241875" cy="325.7" rx="5.01041667" ry="5"></ellipse>
                        <ellipse cx="549.241875" cy="350.3" rx="5.01041667" ry="5"></ellipse>
                        <ellipse cx="549.241875" cy="375" rx="5.01041667" ry="5"></ellipse>
                        <ellipse cx="549.241875" cy="399.7" rx="5.01041667" ry="5"></ellipse>
                        <ellipse cx="549.241875" cy="424.3" rx="5.01041667" ry="5"></ellipse>
                        <ellipse cx="549.241875" cy="449" rx="5.01041667" ry="5"></ellipse>
                        <ellipse cx="549.241875" cy="473.7" rx="5.01041667" ry="5"></ellipse>
                        <ellipse cx="549.241875" cy="498.3" rx="5.01041667" ry="5"></ellipse>
                        <ellipse cx="524.590625" cy="5" rx="5.01041667" ry="5"></ellipse>
                        <ellipse cx="524.590625" cy="29.7" rx="5.01041667" ry="5"></ellipse>
                        <ellipse cx="524.590625" cy="54.3" rx="5.01041667" ry="5"></ellipse>
                        <ellipse cx="524.590625" cy="79" rx="5.01041667" ry="5"></ellipse>
                        <ellipse cx="524.590625" cy="103.7" rx="5.01041667" ry="5"></ellipse>
                        <ellipse cx="524.590625" cy="128.3" rx="5.01041667" ry="5"></ellipse>
                        <ellipse cx="524.590625" cy="153" rx="5.01041667" ry="5"></ellipse>
                        <ellipse cx="524.590625" cy="177.7" rx="5.01041667" ry="5"></ellipse>
                        <ellipse cx="524.590625" cy="202.3" rx="5.01041667" ry="5"></ellipse>
                        <ellipse cx="524.590625" cy="227" rx="5.01041667" ry="5"></ellipse>
                        <ellipse cx="524.590625" cy="251.7" rx="5.01041667" ry="5"></ellipse>
                        <ellipse cx="524.590625" cy="276.3" rx="5.01041667" ry="5"></ellipse>
                        <ellipse cx="524.590625" cy="301" rx="5.01041667" ry="5"></ellipse>
                        <ellipse cx="524.590625" cy="325.7" rx="5.01041667" ry="5"></ellipse>
                        <ellipse cx="524.590625" cy="350.3" rx="5.01041667" ry="5"></ellipse>
                        <ellipse cx="524.590625" cy="375" rx="5.01041667" ry="5"></ellipse>
                        <ellipse cx="524.590625" cy="399.7" rx="5.01041667" ry="5"></ellipse>
                        <ellipse cx="524.590625" cy="424.3" rx="5.01041667" ry="5"></ellipse>
                        <ellipse cx="524.590625" cy="449" rx="5.01041667" ry="5"></ellipse>
                        <ellipse cx="524.590625" cy="473.7" rx="5.01041667" ry="5"></ellipse>
                        <ellipse cx="524.590625" cy="498.3" rx="5.01041667" ry="5"></ellipse>
                        <ellipse cx="499.839167" cy="5" rx="5.01041667" ry="5"></ellipse>
                        <ellipse cx="499.839167" cy="29.7" rx="5.01041667" ry="5"></ellipse>
                        <ellipse cx="499.839167" cy="54.3" rx="5.01041667" ry="5"></ellipse>
                        <ellipse cx="499.839167" cy="79" rx="5.01041667" ry="5"></ellipse>
                        <ellipse cx="499.839167" cy="103.7" rx="5.01041667" ry="5"></ellipse>
                        <ellipse cx="499.839167" cy="128.3" rx="5.01041667" ry="5"></ellipse>
                        <ellipse cx="499.839167" cy="153" rx="5.01041667" ry="5"></ellipse>
                        <ellipse cx="499.839167" cy="177.7" rx="5.01041667" ry="5"></ellipse>
                        <ellipse cx="499.839167" cy="202.3" rx="5.01041667" ry="5"></ellipse>
                        <ellipse cx="499.839167" cy="227" rx="5.01041667" ry="5"></ellipse>
                        <ellipse cx="499.839167" cy="251.7" rx="5.01041667" ry="5"></ellipse>
                        <ellipse cx="499.839167" cy="276.3" rx="5.01041667" ry="5"></ellipse>
                        <ellipse cx="499.839167" cy="301" rx="5.01041667" ry="5"></ellipse>
                        <ellipse cx="499.839167" cy="325.7" rx="5.01041667" ry="5"></ellipse>
                        <ellipse cx="499.839167" cy="350.3" rx="5.01041667" ry="5"></ellipse>
                        <ellipse cx="499.839167" cy="375" rx="5.01041667" ry="5"></ellipse>
                        <ellipse cx="499.839167" cy="399.7" rx="5.01041667" ry="5"></ellipse>
                        <ellipse cx="499.839167" cy="424.3" rx="5.01041667" ry="5"></ellipse>
                        <ellipse cx="499.839167" cy="449" rx="5.01041667" ry="5"></ellipse>
                        <ellipse cx="499.839167" cy="473.7" rx="5.01041667" ry="5"></ellipse>
                        <ellipse cx="499.839167" cy="498.3" rx="5.01041667" ry="5"></ellipse>
                        <ellipse cx="475.087708" cy="5" rx="5.01041667" ry="5"></ellipse>
                        <ellipse cx="475.087708" cy="29.7" rx="5.01041667" ry="5"></ellipse>
                        <ellipse cx="475.087708" cy="54.3" rx="5.01041667" ry="5"></ellipse>
                        <ellipse cx="475.087708" cy="79" rx="5.01041667" ry="5"></ellipse>
                        <ellipse cx="475.087708" cy="103.7" rx="5.01041667" ry="5"></ellipse>
                        <ellipse cx="475.087708" cy="128.3" rx="5.01041667" ry="5"></ellipse>
                        <ellipse cx="475.087708" cy="153" rx="5.01041667" ry="5"></ellipse>
                        <ellipse cx="475.087708" cy="177.7" rx="5.01041667" ry="5"></ellipse>
                        <ellipse cx="475.087708" cy="202.3" rx="5.01041667" ry="5"></ellipse>
                        <ellipse cx="475.087708" cy="227" rx="5.01041667" ry="5"></ellipse>
                        <ellipse cx="475.087708" cy="251.7" rx="5.01041667" ry="5"></ellipse>
                        <ellipse cx="475.087708" cy="276.3" rx="5.01041667" ry="5"></ellipse>
                        <ellipse cx="475.087708" cy="301" rx="5.01041667" ry="5"></ellipse>
                        <ellipse cx="475.087708" cy="325.7" rx="5.01041667" ry="5"></ellipse>
                        <ellipse cx="475.087708" cy="350.3" rx="5.01041667" ry="5"></ellipse>
                        <ellipse cx="475.087708" cy="375" rx="5.01041667" ry="5"></ellipse>
                        <ellipse cx="475.087708" cy="399.7" rx="5.01041667" ry="5"></ellipse>
                        <ellipse cx="475.087708" cy="424.3" rx="5.01041667" ry="5"></ellipse>
                        <ellipse cx="475.087708" cy="449" rx="5.01041667" ry="5"></ellipse>
                        <ellipse cx="475.087708" cy="473.7" rx="5.01041667" ry="5"></ellipse>
                        <ellipse cx="475.087708" cy="498.3" rx="5.01041667" ry="5"></ellipse>
                        <ellipse cx="450.436458" cy="5" rx="5.01041667" ry="5"></ellipse>
                        <ellipse cx="450.436458" cy="29.7" rx="5.01041667" ry="5"></ellipse>
                        <ellipse cx="450.436458" cy="54.3" rx="5.01041667" ry="5"></ellipse>
                        <ellipse cx="450.436458" cy="79" rx="5.01041667" ry="5"></ellipse>
                        <ellipse cx="450.436458" cy="103.7" rx="5.01041667" ry="5"></ellipse>
                        <ellipse cx="450.436458" cy="128.3" rx="5.01041667" ry="5"></ellipse>
                        <ellipse cx="450.436458" cy="153" rx="5.01041667" ry="5"></ellipse>
                        <ellipse cx="450.436458" cy="177.7" rx="5.01041667" ry="5"></ellipse>
                        <ellipse cx="450.436458" cy="202.3" rx="5.01041667" ry="5"></ellipse>
                        <ellipse cx="450.436458" cy="227" rx="5.01041667" ry="5"></ellipse>
                        <ellipse cx="450.436458" cy="251.7" rx="5.01041667" ry="5"></ellipse>
                        <ellipse cx="450.436458" cy="276.3" rx="5.01041667" ry="5"></ellipse>
                        <ellipse cx="450.436458" cy="301" rx="5.01041667" ry="5"></ellipse>
                        <ellipse cx="450.436458" cy="325.7" rx="5.01041667" ry="5"></ellipse>
                        <ellipse cx="450.436458" cy="350.3" rx="5.01041667" ry="5"></ellipse>
                        <ellipse cx="450.436458" cy="375" rx="5.01041667" ry="5"></ellipse>
                        <ellipse cx="450.436458" cy="399.7" rx="5.01041667" ry="5"></ellipse>
                        <ellipse cx="450.436458" cy="424.3" rx="5.01041667" ry="5"></ellipse>
                        <ellipse cx="450.436458" cy="449" rx="5.01041667" ry="5"></ellipse>
                        <ellipse cx="450.436458" cy="473.7" rx="5.01041667" ry="5"></ellipse>
                        <ellipse cx="450.436458" cy="498.3" rx="5.01041667" ry="5"></ellipse>
                        <ellipse cx="425.685" cy="5" rx="5.01041667" ry="5"></ellipse>
                        <ellipse cx="425.685" cy="29.7" rx="5.01041667" ry="5"></ellipse>
                        <ellipse cx="425.685" cy="54.3" rx="5.01041667" ry="5"></ellipse>
                        <ellipse cx="425.685" cy="79" rx="5.01041667" ry="5"></ellipse>
                        <ellipse cx="425.685" cy="103.7" rx="5.01041667" ry="5"></ellipse>
                        <ellipse cx="425.685" cy="128.3" rx="5.01041667" ry="5"></ellipse>
                        <ellipse cx="425.685" cy="153" rx="5.01041667" ry="5"></ellipse>
                        <ellipse cx="425.685" cy="177.7" rx="5.01041667" ry="5"></ellipse>
                        <ellipse cx="425.685" cy="202.3" rx="5.01041667" ry="5"></ellipse>
                        <ellipse cx="425.685" cy="227" rx="5.01041667" ry="5"></ellipse>
                        <ellipse cx="425.685" cy="251.7" rx="5.01041667" ry="5"></ellipse>
                        <ellipse cx="425.685" cy="276.3" rx="5.01041667" ry="5"></ellipse>
                        <ellipse cx="425.685" cy="301" rx="5.01041667" ry="5"></ellipse>
                        <ellipse cx="425.685" cy="325.7" rx="5.01041667" ry="5"></ellipse>
                        <ellipse cx="425.685" cy="350.3" rx="5.01041667" ry="5"></ellipse>
                        <ellipse cx="425.685" cy="375" rx="5.01041667" ry="5"></ellipse>
                        <ellipse cx="425.685" cy="399.7" rx="5.01041667" ry="5"></ellipse>
                        <ellipse cx="425.685" cy="424.3" rx="5.01041667" ry="5"></ellipse>
                        <ellipse cx="425.685" cy="449" rx="5.01041667" ry="5"></ellipse>
                        <ellipse cx="425.685" cy="473.7" rx="5.01041667" ry="5"></ellipse>
                        <ellipse cx="425.685" cy="498.3" rx="5.01041667" ry="5"></ellipse>
                        <ellipse cx="400.933542" cy="5" rx="5.01041667" ry="5"></ellipse>
                        <ellipse cx="400.933542" cy="29.7" rx="5.01041667" ry="5"></ellipse>
                        <ellipse cx="400.933542" cy="54.3" rx="5.01041667" ry="5"></ellipse>
                        <ellipse cx="400.933542" cy="79" rx="5.01041667" ry="5"></ellipse>
                        <ellipse cx="400.933542" cy="103.7" rx="5.01041667" ry="5"></ellipse>
                        <ellipse cx="400.933542" cy="128.3" rx="5.01041667" ry="5"></ellipse>
                        <ellipse cx="400.933542" cy="153" rx="5.01041667" ry="5"></ellipse>
                        <ellipse cx="400.933542" cy="177.7" rx="5.01041667" ry="5"></ellipse>
                        <ellipse cx="400.933542" cy="202.3" rx="5.01041667" ry="5"></ellipse>
                        <ellipse cx="400.933542" cy="227" rx="5.01041667" ry="5"></ellipse>
                        <ellipse cx="400.933542" cy="251.7" rx="5.01041667" ry="5"></ellipse>
                        <ellipse cx="400.933542" cy="276.3" rx="5.01041667" ry="5"></ellipse>
                        <ellipse cx="400.933542" cy="301" rx="5.01041667" ry="5"></ellipse>
                        <ellipse cx="400.933542" cy="325.7" rx="5.01041667" ry="5"></ellipse>
                        <ellipse cx="400.933542" cy="350.3" rx="5.01041667" ry="5"></ellipse>
                        <ellipse cx="400.933542" cy="375" rx="5.01041667" ry="5"></ellipse>
                        <ellipse cx="400.933542" cy="399.7" rx="5.01041667" ry="5"></ellipse>
                        <ellipse cx="400.933542" cy="424.3" rx="5.01041667" ry="5"></ellipse>
                        <ellipse cx="400.933542" cy="449" rx="5.01041667" ry="5"></ellipse>
                        <ellipse cx="400.933542" cy="473.7" rx="5.01041667" ry="5"></ellipse>
                        <ellipse cx="400.933542" cy="498.3" rx="5.01041667" ry="5"></ellipse>
                        <ellipse cx="376.282292" cy="5" rx="5.01041667" ry="5"></ellipse>
                        <ellipse cx="376.282292" cy="29.7" rx="5.01041667" ry="5"></ellipse>
                        <ellipse cx="376.282292" cy="54.3" rx="5.01041667" ry="5"></ellipse>
                        <ellipse cx="376.282292" cy="79" rx="5.01041667" ry="5"></ellipse>
                        <ellipse cx="376.282292" cy="103.7" rx="5.01041667" ry="5"></ellipse>
                        <ellipse cx="376.282292" cy="128.3" rx="5.01041667" ry="5"></ellipse>
                        <ellipse cx="376.282292" cy="153" rx="5.01041667" ry="5"></ellipse>
                        <ellipse cx="376.282292" cy="177.7" rx="5.01041667" ry="5"></ellipse>
                        <ellipse cx="376.282292" cy="202.3" rx="5.01041667" ry="5"></ellipse>
                        <ellipse cx="376.282292" cy="227" rx="5.01041667" ry="5"></ellipse>
                        <ellipse cx="376.282292" cy="251.7" rx="5.01041667" ry="5"></ellipse>
                        <ellipse cx="376.282292" cy="276.3" rx="5.01041667" ry="5"></ellipse>
                        <ellipse cx="376.282292" cy="301" rx="5.01041667" ry="5"></ellipse>
                        <ellipse cx="376.282292" cy="325.7" rx="5.01041667" ry="5"></ellipse>
                        <ellipse cx="376.282292" cy="350.3" rx="5.01041667" ry="5"></ellipse>
                        <ellipse cx="376.282292" cy="375" rx="5.01041667" ry="5"></ellipse>
                        <ellipse cx="376.282292" cy="399.7" rx="5.01041667" ry="5"></ellipse>
                        <ellipse cx="376.282292" cy="424.3" rx="5.01041667" ry="5"></ellipse>
                        <ellipse cx="376.282292" cy="449" rx="5.01041667" ry="5"></ellipse>
                        <ellipse cx="376.282292" cy="473.7" rx="5.01041667" ry="5"></ellipse>
                        <ellipse cx="376.282292" cy="498.3" rx="5.01041667" ry="5"></ellipse>
                        <ellipse cx="351.530833" cy="5" rx="5.01041667" ry="5"></ellipse>
                        <ellipse cx="351.530833" cy="29.7" rx="5.01041667" ry="5"></ellipse>
                        <ellipse cx="351.530833" cy="54.3" rx="5.01041667" ry="5"></ellipse>
                        <ellipse cx="351.530833" cy="79" rx="5.01041667" ry="5"></ellipse>
                        <ellipse cx="351.530833" cy="103.7" rx="5.01041667" ry="5"></ellipse>
                        <ellipse cx="351.530833" cy="128.3" rx="5.01041667" ry="5"></ellipse>
                        <ellipse cx="351.530833" cy="153" rx="5.01041667" ry="5"></ellipse>
                        <ellipse cx="351.530833" cy="177.7" rx="5.01041667" ry="5"></ellipse>
                        <ellipse cx="351.530833" cy="202.3" rx="5.01041667" ry="5"></ellipse>
                        <ellipse cx="351.530833" cy="227" rx="5.01041667" ry="5"></ellipse>
                        <ellipse cx="351.530833" cy="251.7" rx="5.01041667" ry="5"></ellipse>
                        <ellipse cx="351.530833" cy="276.3" rx="5.01041667" ry="5"></ellipse>
                        <ellipse cx="351.530833" cy="301" rx="5.01041667" ry="5"></ellipse>
                        <ellipse cx="351.530833" cy="325.7" rx="5.01041667" ry="5"></ellipse>
                        <ellipse cx="351.530833" cy="350.3" rx="5.01041667" ry="5"></ellipse>
                        <ellipse cx="351.530833" cy="375" rx="5.01041667" ry="5"></ellipse>
                        <ellipse cx="351.530833" cy="399.7" rx="5.01041667" ry="5"></ellipse>
                        <ellipse cx="351.530833" cy="424.3" rx="5.01041667" ry="5"></ellipse>
                        <ellipse cx="351.530833" cy="449" rx="5.01041667" ry="5"></ellipse>
                        <ellipse cx="351.530833" cy="473.7" rx="5.01041667" ry="5"></ellipse>
                        <ellipse cx="351.530833" cy="498.3" rx="5.01041667" ry="5"></ellipse>
                        <ellipse cx="326.779375" cy="5" rx="5.01041667" ry="5"></ellipse>
                        <ellipse cx="326.779375" cy="29.7" rx="5.01041667" ry="5"></ellipse>
                        <ellipse cx="326.779375" cy="54.3" rx="5.01041667" ry="5"></ellipse>
                        <ellipse cx="326.779375" cy="79" rx="5.01041667" ry="5"></ellipse>
                        <ellipse cx="326.779375" cy="103.7" rx="5.01041667" ry="5"></ellipse>
                        <ellipse cx="326.779375" cy="128.3" rx="5.01041667" ry="5"></ellipse>
                        <ellipse cx="326.779375" cy="153" rx="5.01041667" ry="5"></ellipse>
                        <ellipse cx="326.779375" cy="177.7" rx="5.01041667" ry="5"></ellipse>
                        <ellipse cx="326.779375" cy="202.3" rx="5.01041667" ry="5"></ellipse>
                        <ellipse cx="326.779375" cy="227" rx="5.01041667" ry="5"></ellipse>
                        <ellipse cx="326.779375" cy="251.7" rx="5.01041667" ry="5"></ellipse>
                        <ellipse cx="326.779375" cy="276.3" rx="5.01041667" ry="5"></ellipse>
                        <ellipse cx="326.779375" cy="301" rx="5.01041667" ry="5"></ellipse>
                        <ellipse cx="326.779375" cy="325.7" rx="5.01041667" ry="5"></ellipse>
                        <ellipse cx="326.779375" cy="350.3" rx="5.01041667" ry="5"></ellipse>
                        <ellipse cx="326.779375" cy="375" rx="5.01041667" ry="5"></ellipse>
                        <ellipse cx="326.779375" cy="399.7" rx="5.01041667" ry="5"></ellipse>
                        <ellipse cx="326.779375" cy="424.3" rx="5.01041667" ry="5"></ellipse>
                        <ellipse cx="326.779375" cy="449" rx="5.01041667" ry="5"></ellipse>
                        <ellipse cx="326.779375" cy="473.7" rx="5.01041667" ry="5"></ellipse>
                        <ellipse cx="326.779375" cy="498.3" rx="5.01041667" ry="5"></ellipse>
                        <ellipse cx="302.128125" cy="5" rx="5.01041667" ry="5"></ellipse>
                        <ellipse cx="302.128125" cy="29.7" rx="5.01041667" ry="5"></ellipse>
                        <ellipse cx="302.128125" cy="54.3" rx="5.01041667" ry="5"></ellipse>
                        <ellipse cx="302.128125" cy="79" rx="5.01041667" ry="5"></ellipse>
                        <ellipse cx="302.128125" cy="103.7" rx="5.01041667" ry="5"></ellipse>
                        <ellipse cx="302.128125" cy="128.3" rx="5.01041667" ry="5"></ellipse>
                        <ellipse cx="302.128125" cy="153" rx="5.01041667" ry="5"></ellipse>
                        <ellipse cx="302.128125" cy="177.7" rx="5.01041667" ry="5"></ellipse>
                        <ellipse cx="302.128125" cy="202.3" rx="5.01041667" ry="5"></ellipse>
                        <ellipse cx="302.128125" cy="227" rx="5.01041667" ry="5"></ellipse>
                        <ellipse cx="302.128125" cy="251.7" rx="5.01041667" ry="5"></ellipse>
                        <ellipse cx="302.128125" cy="276.3" rx="5.01041667" ry="5"></ellipse>
                        <ellipse cx="302.128125" cy="301" rx="5.01041667" ry="5"></ellipse>
                        <ellipse cx="302.128125" cy="325.7" rx="5.01041667" ry="5"></ellipse>
                        <ellipse cx="302.128125" cy="350.3" rx="5.01041667" ry="5"></ellipse>
                        <ellipse cx="302.128125" cy="375" rx="5.01041667" ry="5"></ellipse>
                        <ellipse cx="302.128125" cy="399.7" rx="5.01041667" ry="5"></ellipse>
                        <ellipse cx="302.128125" cy="424.3" rx="5.01041667" ry="5"></ellipse>
                        <ellipse cx="302.128125" cy="449" rx="5.01041667" ry="5"></ellipse>
                        <ellipse cx="302.128125" cy="473.7" rx="5.01041667" ry="5"></ellipse>
                        <ellipse cx="302.128125" cy="498.3" rx="5.01041667" ry="5"></ellipse>
                        <ellipse cx="277.376667" cy="5" rx="5.01041667" ry="5"></ellipse>
                        <ellipse cx="277.376667" cy="29.7" rx="5.01041667" ry="5"></ellipse>
                        <ellipse cx="277.376667" cy="54.3" rx="5.01041667" ry="5"></ellipse>
                        <ellipse cx="277.376667" cy="79" rx="5.01041667" ry="5"></ellipse>
                        <ellipse cx="277.376667" cy="103.7" rx="5.01041667" ry="5"></ellipse>
                        <ellipse cx="277.376667" cy="128.3" rx="5.01041667" ry="5"></ellipse>
                        <ellipse cx="277.376667" cy="153" rx="5.01041667" ry="5"></ellipse>
                        <ellipse cx="277.376667" cy="177.7" rx="5.01041667" ry="5"></ellipse>
                        <ellipse cx="277.376667" cy="202.3" rx="5.01041667" ry="5"></ellipse>
                        <ellipse cx="277.376667" cy="227" rx="5.01041667" ry="5"></ellipse>
                        <ellipse cx="277.376667" cy="251.7" rx="5.01041667" ry="5"></ellipse>
                        <ellipse cx="277.376667" cy="276.3" rx="5.01041667" ry="5"></ellipse>
                        <ellipse cx="277.376667" cy="301" rx="5.01041667" ry="5"></ellipse>
                        <ellipse cx="277.376667" cy="325.7" rx="5.01041667" ry="5"></ellipse>
                        <ellipse cx="277.376667" cy="350.3" rx="5.01041667" ry="5"></ellipse>
                        <ellipse cx="277.376667" cy="375" rx="5.01041667" ry="5"></ellipse>
                        <ellipse cx="277.376667" cy="399.7" rx="5.01041667" ry="5"></ellipse>
                        <ellipse cx="277.376667" cy="424.3" rx="5.01041667" ry="5"></ellipse>
                        <ellipse cx="277.376667" cy="449" rx="5.01041667" ry="5"></ellipse>
                        <ellipse cx="277.376667" cy="473.7" rx="5.01041667" ry="5"></ellipse>
                        <ellipse cx="277.376667" cy="498.3" rx="5.01041667" ry="5"></ellipse>
                        <ellipse cx="252.625208" cy="5" rx="5.01041667" ry="5"></ellipse>
                        <ellipse cx="252.625208" cy="29.7" rx="5.01041667" ry="5"></ellipse>
                        <ellipse cx="252.625208" cy="54.3" rx="5.01041667" ry="5"></ellipse>
                        <ellipse cx="252.625208" cy="79" rx="5.01041667" ry="5"></ellipse>
                        <ellipse cx="252.625208" cy="103.7" rx="5.01041667" ry="5"></ellipse>
                        <ellipse cx="252.625208" cy="128.3" rx="5.01041667" ry="5"></ellipse>
                        <ellipse cx="252.625208" cy="153" rx="5.01041667" ry="5"></ellipse>
                        <ellipse cx="252.625208" cy="177.7" rx="5.01041667" ry="5"></ellipse>
                        <ellipse cx="252.625208" cy="202.3" rx="5.01041667" ry="5"></ellipse>
                        <ellipse cx="252.625208" cy="227" rx="5.01041667" ry="5"></ellipse>
                        <ellipse cx="252.625208" cy="251.7" rx="5.01041667" ry="5"></ellipse>
                        <ellipse cx="252.625208" cy="276.3" rx="5.01041667" ry="5"></ellipse>
                        <ellipse cx="252.625208" cy="301" rx="5.01041667" ry="5"></ellipse>
                        <ellipse cx="252.625208" cy="325.7" rx="5.01041667" ry="5"></ellipse>
                        <ellipse cx="252.625208" cy="350.3" rx="5.01041667" ry="5"></ellipse>
                        <ellipse cx="252.625208" cy="375" rx="5.01041667" ry="5"></ellipse>
                        <ellipse cx="252.625208" cy="399.7" rx="5.01041667" ry="5"></ellipse>
                        <ellipse cx="252.625208" cy="424.3" rx="5.01041667" ry="5"></ellipse>
                        <ellipse cx="252.625208" cy="449" rx="5.01041667" ry="5"></ellipse>
                        <ellipse cx="252.625208" cy="473.7" rx="5.01041667" ry="5"></ellipse>
                        <ellipse cx="252.625208" cy="498.3" rx="5.01041667" ry="5"></ellipse>
                        <ellipse cx="227.973958" cy="5" rx="5.01041667" ry="5"></ellipse>
                        <ellipse cx="227.973958" cy="29.7" rx="5.01041667" ry="5"></ellipse>
                        <ellipse cx="227.973958" cy="54.3" rx="5.01041667" ry="5"></ellipse>
                        <ellipse cx="227.973958" cy="79" rx="5.01041667" ry="5"></ellipse>
                        <ellipse cx="227.973958" cy="103.7" rx="5.01041667" ry="5"></ellipse>
                        <ellipse cx="227.973958" cy="128.3" rx="5.01041667" ry="5"></ellipse>
                        <ellipse cx="227.973958" cy="153" rx="5.01041667" ry="5"></ellipse>
                        <ellipse cx="227.973958" cy="177.7" rx="5.01041667" ry="5"></ellipse>
                        <ellipse cx="227.973958" cy="202.3" rx="5.01041667" ry="5"></ellipse>
                        <ellipse cx="227.973958" cy="227" rx="5.01041667" ry="5"></ellipse>
                        <ellipse cx="227.973958" cy="251.7" rx="5.01041667" ry="5"></ellipse>
                        <ellipse cx="227.973958" cy="276.3" rx="5.01041667" ry="5"></ellipse>
                        <ellipse cx="227.973958" cy="301" rx="5.01041667" ry="5"></ellipse>
                        <ellipse cx="227.973958" cy="325.7" rx="5.01041667" ry="5"></ellipse>
                        <ellipse cx="227.973958" cy="350.3" rx="5.01041667" ry="5"></ellipse>
                        <ellipse cx="227.973958" cy="375" rx="5.01041667" ry="5"></ellipse>
                        <ellipse cx="227.973958" cy="399.7" rx="5.01041667" ry="5"></ellipse>
                        <ellipse cx="227.973958" cy="424.3" rx="5.01041667" ry="5"></ellipse>
                        <ellipse cx="227.973958" cy="449" rx="5.01041667" ry="5"></ellipse>
                        <ellipse cx="227.973958" cy="473.7" rx="5.01041667" ry="5"></ellipse>
                        <ellipse cx="227.973958" cy="498.3" rx="5.01041667" ry="5"></ellipse>
                        <ellipse cx="203.2225" cy="5" rx="5.01041667" ry="5"></ellipse>
                        <ellipse cx="203.2225" cy="29.7" rx="5.01041667" ry="5"></ellipse>
                        <ellipse cx="203.2225" cy="54.3" rx="5.01041667" ry="5"></ellipse>
                        <ellipse cx="203.2225" cy="79" rx="5.01041667" ry="5"></ellipse>
                        <ellipse cx="203.2225" cy="103.7" rx="5.01041667" ry="5"></ellipse>
                        <ellipse cx="203.2225" cy="128.3" rx="5.01041667" ry="5"></ellipse>
                        <ellipse cx="203.2225" cy="153" rx="5.01041667" ry="5"></ellipse>
                        <ellipse cx="203.2225" cy="177.7" rx="5.01041667" ry="5"></ellipse>
                        <ellipse cx="203.2225" cy="202.3" rx="5.01041667" ry="5"></ellipse>
                        <ellipse cx="203.2225" cy="227" rx="5.01041667" ry="5"></ellipse>
                        <ellipse cx="203.2225" cy="251.7" rx="5.01041667" ry="5"></ellipse>
                        <ellipse cx="203.2225" cy="276.3" rx="5.01041667" ry="5"></ellipse>
                        <ellipse cx="203.2225" cy="301" rx="5.01041667" ry="5"></ellipse>
                        <ellipse cx="203.2225" cy="325.7" rx="5.01041667" ry="5"></ellipse>
                        <ellipse cx="203.2225" cy="350.3" rx="5.01041667" ry="5"></ellipse>
                        <ellipse cx="203.2225" cy="375" rx="5.01041667" ry="5"></ellipse>
                        <ellipse cx="203.2225" cy="399.7" rx="5.01041667" ry="5"></ellipse>
                        <ellipse cx="203.2225" cy="424.3" rx="5.01041667" ry="5"></ellipse>
                        <ellipse cx="203.2225" cy="449" rx="5.01041667" ry="5"></ellipse>
                        <ellipse cx="203.2225" cy="473.7" rx="5.01041667" ry="5"></ellipse>
                        <ellipse cx="203.2225" cy="498.3" rx="5.01041667" ry="5"></ellipse>
                        <ellipse cx="178.471042" cy="5" rx="5.01041667" ry="5"></ellipse>
                        <ellipse cx="178.471042" cy="29.7" rx="5.01041667" ry="5"></ellipse>
                        <ellipse cx="178.471042" cy="54.3" rx="5.01041667" ry="5"></ellipse>
                        <ellipse cx="178.471042" cy="79" rx="5.01041667" ry="5"></ellipse>
                        <ellipse cx="178.471042" cy="103.7" rx="5.01041667" ry="5"></ellipse>
                        <ellipse cx="178.471042" cy="128.3" rx="5.01041667" ry="5"></ellipse>
                        <ellipse cx="178.471042" cy="153" rx="5.01041667" ry="5"></ellipse>
                        <ellipse cx="178.471042" cy="177.7" rx="5.01041667" ry="5"></ellipse>
                        <ellipse cx="178.471042" cy="202.3" rx="5.01041667" ry="5"></ellipse>
                        <ellipse cx="178.471042" cy="227" rx="5.01041667" ry="5"></ellipse>
                        <ellipse cx="178.471042" cy="251.7" rx="5.01041667" ry="5"></ellipse>
                        <ellipse cx="178.471042" cy="276.3" rx="5.01041667" ry="5"></ellipse>
                        <ellipse cx="178.471042" cy="301" rx="5.01041667" ry="5"></ellipse>
                        <ellipse cx="178.471042" cy="325.7" rx="5.01041667" ry="5"></ellipse>
                        <ellipse cx="178.471042" cy="350.3" rx="5.01041667" ry="5"></ellipse>
                        <ellipse cx="178.471042" cy="375" rx="5.01041667" ry="5"></ellipse>
                        <ellipse cx="178.471042" cy="399.7" rx="5.01041667" ry="5"></ellipse>
                        <ellipse cx="178.471042" cy="424.3" rx="5.01041667" ry="5"></ellipse>
                        <ellipse cx="178.471042" cy="449" rx="5.01041667" ry="5"></ellipse>
                        <ellipse cx="178.471042" cy="473.7" rx="5.01041667" ry="5"></ellipse>
                        <ellipse cx="178.471042" cy="498.3" rx="5.01041667" ry="5"></ellipse>
                        <ellipse cx="153.819792" cy="5" rx="5.01041667" ry="5"></ellipse>
                        <ellipse cx="153.819792" cy="29.7" rx="5.01041667" ry="5"></ellipse>
                        <ellipse cx="153.819792" cy="54.3" rx="5.01041667" ry="5"></ellipse>
                        <ellipse cx="153.819792" cy="79" rx="5.01041667" ry="5"></ellipse>
                        <ellipse cx="153.819792" cy="103.7" rx="5.01041667" ry="5"></ellipse>
                        <ellipse cx="153.819792" cy="128.3" rx="5.01041667" ry="5"></ellipse>
                        <ellipse cx="153.819792" cy="153" rx="5.01041667" ry="5"></ellipse>
                        <ellipse cx="153.819792" cy="177.7" rx="5.01041667" ry="5"></ellipse>
                        <ellipse cx="153.819792" cy="202.3" rx="5.01041667" ry="5"></ellipse>
                        <ellipse cx="153.819792" cy="227" rx="5.01041667" ry="5"></ellipse>
                        <ellipse cx="153.819792" cy="251.7" rx="5.01041667" ry="5"></ellipse>
                        <ellipse cx="153.819792" cy="276.3" rx="5.01041667" ry="5"></ellipse>
                        <ellipse cx="153.819792" cy="301" rx="5.01041667" ry="5"></ellipse>
                        <ellipse cx="153.819792" cy="325.7" rx="5.01041667" ry="5"></ellipse>
                        <ellipse cx="153.819792" cy="350.3" rx="5.01041667" ry="5"></ellipse>
                        <ellipse cx="153.819792" cy="375" rx="5.01041667" ry="5"></ellipse>
                        <ellipse cx="153.819792" cy="399.7" rx="5.01041667" ry="5"></ellipse>
                        <ellipse cx="153.819792" cy="424.3" rx="5.01041667" ry="5"></ellipse>
                        <ellipse cx="153.819792" cy="449" rx="5.01041667" ry="5"></ellipse>
                        <ellipse cx="153.819792" cy="473.7" rx="5.01041667" ry="5"></ellipse>
                        <ellipse cx="153.819792" cy="498.3" rx="5.01041667" ry="5"></ellipse>
                        <ellipse cx="129.068333" cy="5" rx="5.01041667" ry="5"></ellipse>
                        <ellipse cx="129.068333" cy="29.7" rx="5.01041667" ry="5"></ellipse>
                        <ellipse cx="129.068333" cy="54.3" rx="5.01041667" ry="5"></ellipse>
                        <ellipse cx="129.068333" cy="79" rx="5.01041667" ry="5"></ellipse>
                        <ellipse cx="129.068333" cy="103.7" rx="5.01041667" ry="5"></ellipse>
                        <ellipse cx="129.068333" cy="128.3" rx="5.01041667" ry="5"></ellipse>
                        <ellipse cx="129.068333" cy="153" rx="5.01041667" ry="5"></ellipse>
                        <ellipse cx="129.068333" cy="177.7" rx="5.01041667" ry="5"></ellipse>
                        <ellipse cx="129.068333" cy="202.3" rx="5.01041667" ry="5"></ellipse>
                        <ellipse cx="129.068333" cy="227" rx="5.01041667" ry="5"></ellipse>
                        <ellipse cx="129.068333" cy="251.7" rx="5.01041667" ry="5"></ellipse>
                        <ellipse cx="129.068333" cy="276.3" rx="5.01041667" ry="5"></ellipse>
                        <ellipse cx="129.068333" cy="301" rx="5.01041667" ry="5"></ellipse>
                        <ellipse cx="129.068333" cy="325.7" rx="5.01041667" ry="5"></ellipse>
                        <ellipse cx="129.068333" cy="350.3" rx="5.01041667" ry="5"></ellipse>
                        <ellipse cx="129.068333" cy="375" rx="5.01041667" ry="5"></ellipse>
                        <ellipse cx="129.068333" cy="399.7" rx="5.01041667" ry="5"></ellipse>
                        <ellipse cx="129.068333" cy="424.3" rx="5.01041667" ry="5"></ellipse>
                        <ellipse cx="129.068333" cy="449" rx="5.01041667" ry="5"></ellipse>
                        <ellipse cx="129.068333" cy="473.7" rx="5.01041667" ry="5"></ellipse>
                        <ellipse cx="129.068333" cy="498.3" rx="5.01041667" ry="5"></ellipse>
                        <ellipse cx="104.316875" cy="5" rx="5.01041667" ry="5"></ellipse>
                        <ellipse cx="104.316875" cy="29.7" rx="5.01041667" ry="5"></ellipse>
                        <ellipse cx="104.316875" cy="54.3" rx="5.01041667" ry="5"></ellipse>
                        <ellipse cx="104.316875" cy="79" rx="5.01041667" ry="5"></ellipse>
                        <ellipse cx="104.316875" cy="103.7" rx="5.01041667" ry="5"></ellipse>
                        <ellipse cx="104.316875" cy="128.3" rx="5.01041667" ry="5"></ellipse>
                        <ellipse cx="104.316875" cy="153" rx="5.01041667" ry="5"></ellipse>
                        <ellipse cx="104.316875" cy="177.7" rx="5.01041667" ry="5"></ellipse>
                        <ellipse cx="104.316875" cy="202.3" rx="5.01041667" ry="5"></ellipse>
                        <ellipse cx="104.316875" cy="227" rx="5.01041667" ry="5"></ellipse>
                        <ellipse cx="104.316875" cy="251.7" rx="5.01041667" ry="5"></ellipse>
                        <ellipse cx="104.316875" cy="276.3" rx="5.01041667" ry="5"></ellipse>
                        <ellipse cx="104.316875" cy="301" rx="5.01041667" ry="5"></ellipse>
                        <ellipse cx="104.316875" cy="325.7" rx="5.01041667" ry="5"></ellipse>
                        <ellipse cx="104.316875" cy="350.3" rx="5.01041667" ry="5"></ellipse>
                        <ellipse cx="104.316875" cy="375" rx="5.01041667" ry="5"></ellipse>
                        <ellipse cx="104.316875" cy="399.7" rx="5.01041667" ry="5"></ellipse>
                        <ellipse cx="104.316875" cy="424.3" rx="5.01041667" ry="5"></ellipse>
                        <ellipse cx="104.316875" cy="449" rx="5.01041667" ry="5"></ellipse>
                        <ellipse cx="104.316875" cy="473.7" rx="5.01041667" ry="5"></ellipse>
                        <ellipse cx="104.316875" cy="498.3" rx="5.01041667" ry="5"></ellipse>
                        <ellipse cx="79.665625" cy="5" rx="5.01041667" ry="5"></ellipse>
                        <ellipse cx="79.665625" cy="29.7" rx="5.01041667" ry="5"></ellipse>
                        <ellipse cx="79.665625" cy="54.3" rx="5.01041667" ry="5"></ellipse>
                        <ellipse cx="79.665625" cy="79" rx="5.01041667" ry="5"></ellipse>
                        <ellipse cx="79.665625" cy="103.7" rx="5.01041667" ry="5"></ellipse>
                        <ellipse cx="79.665625" cy="128.3" rx="5.01041667" ry="5"></ellipse>
                        <ellipse cx="79.665625" cy="153" rx="5.01041667" ry="5"></ellipse>
                        <ellipse cx="79.665625" cy="177.7" rx="5.01041667" ry="5"></ellipse>
                        <ellipse cx="79.665625" cy="202.3" rx="5.01041667" ry="5"></ellipse>
                        <ellipse cx="79.665625" cy="227" rx="5.01041667" ry="5"></ellipse>
                        <ellipse cx="79.665625" cy="251.7" rx="5.01041667" ry="5"></ellipse>
                        <ellipse cx="79.665625" cy="276.3" rx="5.01041667" ry="5"></ellipse>
                        <ellipse cx="79.665625" cy="301" rx="5.01041667" ry="5"></ellipse>
                        <ellipse cx="79.665625" cy="325.7" rx="5.01041667" ry="5"></ellipse>
                        <ellipse cx="79.665625" cy="350.3" rx="5.01041667" ry="5"></ellipse>
                        <ellipse cx="79.665625" cy="375" rx="5.01041667" ry="5"></ellipse>
                        <ellipse cx="79.665625" cy="399.7" rx="5.01041667" ry="5"></ellipse>
                        <ellipse cx="79.665625" cy="424.3" rx="5.01041667" ry="5"></ellipse>
                        <ellipse cx="79.665625" cy="449" rx="5.01041667" ry="5"></ellipse>
                        <ellipse cx="79.665625" cy="473.7" rx="5.01041667" ry="5"></ellipse>
                        <ellipse cx="79.665625" cy="498.3" rx="5.01041667" ry="5"></ellipse>
                        <ellipse cx="54.9141667" cy="5" rx="5.01041667" ry="5"></ellipse>
                        <ellipse cx="54.9141667" cy="29.7" rx="5.01041667" ry="5"></ellipse>
                        <ellipse cx="54.9141667" cy="54.3" rx="5.01041667" ry="5"></ellipse>
                        <ellipse cx="54.9141667" cy="79" rx="5.01041667" ry="5"></ellipse>
                        <ellipse cx="54.9141667" cy="103.7" rx="5.01041667" ry="5"></ellipse>
                        <ellipse cx="54.9141667" cy="128.3" rx="5.01041667" ry="5"></ellipse>
                        <ellipse cx="54.9141667" cy="153" rx="5.01041667" ry="5"></ellipse>
                        <ellipse cx="54.9141667" cy="177.7" rx="5.01041667" ry="5"></ellipse>
                        <ellipse cx="54.9141667" cy="202.3" rx="5.01041667" ry="5"></ellipse>
                        <ellipse cx="54.9141667" cy="227" rx="5.01041667" ry="5"></ellipse>
                        <ellipse cx="54.9141667" cy="251.7" rx="5.01041667" ry="5"></ellipse>
                        <ellipse cx="54.9141667" cy="276.3" rx="5.01041667" ry="5"></ellipse>
                        <ellipse cx="54.9141667" cy="301" rx="5.01041667" ry="5"></ellipse>
                        <ellipse cx="54.9141667" cy="325.7" rx="5.01041667" ry="5"></ellipse>
                        <ellipse cx="54.9141667" cy="350.3" rx="5.01041667" ry="5"></ellipse>
                        <ellipse cx="54.9141667" cy="375" rx="5.01041667" ry="5"></ellipse>
                        <ellipse cx="54.9141667" cy="399.7" rx="5.01041667" ry="5"></ellipse>
                        <ellipse cx="54.9141667" cy="424.3" rx="5.01041667" ry="5"></ellipse>
                        <ellipse cx="54.9141667" cy="449" rx="5.01041667" ry="5"></ellipse>
                        <ellipse cx="54.9141667" cy="473.7" rx="5.01041667" ry="5"></ellipse>
                        <ellipse cx="54.9141667" cy="498.3" rx="5.01041667" ry="5"></ellipse>
                        <ellipse cx="30.1627083" cy="5" rx="5.01041667" ry="5"></ellipse>
                        <ellipse cx="30.1627083" cy="29.7" rx="5.01041667" ry="5"></ellipse>
                        <ellipse cx="30.1627083" cy="54.3" rx="5.01041667" ry="5"></ellipse>
                        <ellipse cx="30.1627083" cy="79" rx="5.01041667" ry="5"></ellipse>
                        <ellipse cx="30.1627083" cy="103.7" rx="5.01041667" ry="5"></ellipse>
                        <ellipse cx="30.1627083" cy="128.3" rx="5.01041667" ry="5"></ellipse>
                        <ellipse cx="30.1627083" cy="153" rx="5.01041667" ry="5"></ellipse>
                        <ellipse cx="30.1627083" cy="177.7" rx="5.01041667" ry="5"></ellipse>
                        <ellipse cx="30.1627083" cy="202.3" rx="5.01041667" ry="5"></ellipse>
                        <ellipse cx="30.1627083" cy="227" rx="5.01041667" ry="5"></ellipse>
                        <ellipse cx="30.1627083" cy="251.7" rx="5.01041667" ry="5"></ellipse>
                        <ellipse cx="30.1627083" cy="276.3" rx="5.01041667" ry="5"></ellipse>
                        <ellipse cx="30.1627083" cy="301" rx="5.01041667" ry="5"></ellipse>
                        <ellipse cx="30.1627083" cy="325.7" rx="5.01041667" ry="5"></ellipse>
                        <ellipse cx="30.1627083" cy="350.3" rx="5.01041667" ry="5"></ellipse>
                        <ellipse cx="30.1627083" cy="375" rx="5.01041667" ry="5"></ellipse>
                        <ellipse cx="30.1627083" cy="399.7" rx="5.01041667" ry="5"></ellipse>
                        <ellipse cx="30.1627083" cy="424.3" rx="5.01041667" ry="5"></ellipse>
                        <ellipse cx="30.1627083" cy="449" rx="5.01041667" ry="5"></ellipse>
                        <ellipse cx="30.1627083" cy="473.7" rx="5.01041667" ry="5"></ellipse>
                        <ellipse cx="30.1627083" cy="498.3" rx="5.01041667" ry="5"></ellipse>
                        <ellipse cx="5.51145833" cy="5" rx="5.01041667" ry="5"></ellipse>
                        <ellipse cx="5.51145833" cy="29.7" rx="5.01041667" ry="5"></ellipse>
                        <ellipse cx="5.51145833" cy="54.3" rx="5.01041667" ry="5"></ellipse>
                        <ellipse cx="5.51145833" cy="79" rx="5.01041667" ry="5"></ellipse>
                        <ellipse cx="5.51145833" cy="103.7" rx="5.01041667" ry="5"></ellipse>
                        <ellipse cx="5.51145833" cy="128.3" rx="5.01041667" ry="5"></ellipse>
                        <ellipse cx="5.51145833" cy="153" rx="5.01041667" ry="5"></ellipse>
                        <ellipse cx="5.51145833" cy="177.7" rx="5.01041667" ry="5"></ellipse>
                        <ellipse cx="5.51145833" cy="202.3" rx="5.01041667" ry="5"></ellipse>
                        <ellipse cx="5.51145833" cy="227" rx="5.01041667" ry="5"></ellipse>
                        <ellipse cx="5.51145833" cy="251.7" rx="5.01041667" ry="5"></ellipse>
                        <ellipse cx="5.51145833" cy="276.3" rx="5.01041667" ry="5"></ellipse>
                        <ellipse cx="5.51145833" cy="301" rx="5.01041667" ry="5"></ellipse>
                        <ellipse cx="5.51145833" cy="325.7" rx="5.01041667" ry="5"></ellipse>
                        <ellipse cx="5.51145833" cy="350.3" rx="5.01041667" ry="5"></ellipse>
                        <ellipse cx="5.51145833" cy="375" rx="5.01041667" ry="5"></ellipse>
                        <ellipse cx="5.51145833" cy="399.7" rx="5.01041667" ry="5"></ellipse>
                        <ellipse cx="5.51145833" cy="424.3" rx="5.01041667" ry="5"></ellipse>
                        <ellipse cx="5.51145833" cy="449" rx="5.01041667" ry="5"></ellipse>
                        <ellipse cx="5.51145833" cy="473.7" rx="5.01041667" ry="5"></ellipse>
                        <ellipse cx="5.51145833" cy="498.3" rx="5.01041667" ry="5"></ellipse>
                    </g>
                </g>
                <path d="M1519.25854,8.9 C1516.45271,8.9 1514.24813,11.1 1514.24813,13.9 C1514.24813,106.5 1461.63875,168.1 1406.02312,233.4 C1377.76437,266.5 1348.50354,300.8 1324.15292,341 C1296.39521,386.7 1279.25958,433.4 1271.64375,484 C1254.40792,598.1 1189.17229,627.9 1106.50042,665.7 C1069.32312,682.7 1027.13542,702 986.150208,731.4 C939.252708,765.1 900.572292,807.3 868.004583,860.5 C867.102708,862 867.0025,864 867.904375,865.6 C868.80625,867.2 870.509792,868.2 872.313542,868.2 L1519.25854,868.2 C1522.06437,868.2 1524.26896,866 1524.26896,863.2 L1524.26896,13.9 C1524.26896,11.1 1522.06438,8.9 1519.25854,8.9 Z" id="Path" fill="#F3F6E6" fill-rule="nonzero"></path>
                <g transform="translate(47.097917, 98.000000)" fill-rule="nonzero">
                    <g>
                        <rect id="Rectangle" fill="#7FD6C2" x="5.61166667" y="5.1" width="742.142917" height="526.1"></rect>
                        <path d="M747.754583,536.2 L5.61166667,536.2 C2.80583333,536.2 0.60125,534 0.60125,531.2 L0.60125,5.1 C0.60125,2.3 2.80583333,0.1 5.61166667,0.1 L747.754583,0.1 C750.560417,0.1 752.765,2.3 752.765,5.1 L752.765,531.2 C752.765,533.9 750.560417,536.2 747.754583,536.2 Z M10.6220833,526.2 L742.744167,526.2 L742.744167,10.1 L10.6220833,10.1 L10.6220833,526.2 Z" id="Shape" fill="#383A48"></path>
                    </g>
                    <g transform="translate(39.081250, 35.000000)">
                        <rect id="Rectangle" fill="#F3F6E6" x="5.01041667" y="5.5" width="665.283125" height="455.3"></rect>
                        <path d="M670.193333,465.7 L5.01041667,465.7 C2.20458333,465.7 0,463.5 0,460.7 L0,5.5 C0,2.7 2.20458333,0.5 5.01041667,0.5 L670.293542,0.5 C673.099375,0.5 675.303958,2.7 675.303958,5.5 L675.303958,460.8 C675.20375,463.5 672.999167,465.7 670.193333,465.7 Z M10.0208333,455.7 L665.283125,455.7 L665.283125,10.5 L10.0208333,10.5 L10.0208333,455.7 Z" id="Shape" fill="#383A48"></path>
                    </g>
                    <path d="M558.060208,323.9 C556.657292,323.9 555.354583,323.7 553.951667,323.3 C512.86625,311.7 479.897708,293.8 456.248542,270.1 C449.735,263.6 444.32375,257.1 439.914583,250.7 C413.559792,274.5 382.795833,294.6 354.036042,306.6 C331.789792,315.9 313.351458,319.5 298.22,319.5 C275.472708,319.5 259.940417,311.5 249.919583,302.7 C237.193125,291.6 228.875833,278.5 223.765208,264.8 C213.143125,269.9 202.02,274 191.097292,276.7 C158.930417,284.7 131.0725,280.6 110.429583,265 C103.815833,260 102.513125,250.6 107.523542,244 C112.533958,237.4 121.953542,236.1 128.567292,241.1 C137.786458,248.1 154.821875,254.8 183.882292,247.6 C195.105625,244.8 206.729792,240.1 217.6525,234.2 C216.850833,219.6 218.955208,205.5 222.562708,193.8 C230.178542,169.3 244.207708,153.6 260.040625,151.8 C276.174167,150 285.493542,162.8 288.800417,168.4 C300.324375,188.2 291.005,214.5 263.648125,238.6 C259.439375,242.3 254.93,245.9 250.220208,249.2 C253.226458,259.8 258.938333,270.8 269.660625,280.1 C289.501875,297.3 323.773125,286.8 342.512083,279 C370.169583,267.4 400.232083,247.3 425.284167,223.5 C422.177708,215.4 420.373958,208 419.271667,201.7 C414.26125,172.2 422.478333,145.1 440.215208,132.8 C451.939583,124.7 466.068958,124.2 479.096042,131.6 C491.321458,138.6 497.634583,150.5 496.732708,165.1 C495.329792,187.3 477.693125,211.6 461.76,229.2 C465.768333,235.6 470.979167,242.3 477.693125,249 C497.734792,269 526.193958,284.3 562.369167,294.5 C570.385833,296.8 574.995417,305 572.790833,313 C570.686458,319.6 564.673958,323.9 558.060208,323.9 Z M262.145,182.5 C258.5375,185.7 252.224375,195.3 249.117917,210.8 C261.243125,198.5 265.351667,187.8 262.74625,183.4 C262.545833,183.1 262.345417,182.8 262.145,182.5 Z M460.056458,156.4 C458.853958,156.4 458.052292,156.9 457.250625,157.4 C452.039792,161 445.125417,174.9 448.732917,196.7 C448.732917,197 448.833125,197.3 448.833125,197.5 C460.858125,182 465.96875,170 466.369583,163.2 C466.57,159.2 465.3675,158.4 463.864375,157.6 C462.36125,156.7 461.058542,156.4 460.056458,156.4 Z" id="Shape" fill="#E0719E"></path>
                    <path d="M608.765625,184.8 C605.959792,184.8 603.755208,182.6 603.755208,179.8 C603.755208,140.5 576.498542,137.5 568.081042,137.5 C565.275208,137.5 563.070625,135.3 563.070625,132.5 C563.070625,129.7 565.275208,127.5 568.081042,127.5 C576.398333,127.5 603.755208,124.4 603.755208,85.2 C603.755208,82.4 605.959792,80.2 608.765625,80.2 C611.571458,80.2 613.776042,82.4 613.776042,85.2 C613.776042,124.5 641.032708,127.5 649.450208,127.5 C652.256042,127.5 654.460625,129.7 654.460625,132.5 C654.460625,135.3 652.256042,137.5 649.450208,137.5 C641.132917,137.5 613.776042,140.6 613.776042,179.8 C613.776042,182.5 611.47125,184.8 608.765625,184.8 Z" id="Path" fill="#F6E049"></path>
                    <path d="M161.636042,412.2 C158.830208,412.2 156.625625,410 156.625625,407.2 C156.625625,402.5 155.423125,391.7 143.999375,391.7 C141.193542,391.7 138.988958,389.5 138.988958,386.7 C138.988958,383.9 141.193542,381.7 143.999375,381.7 C155.423125,381.7 156.625625,370.8 156.625625,366.2 C156.625625,363.4 158.830208,361.2 161.636042,361.2 C164.441875,361.2 166.646458,363.4 166.646458,366.2 C166.646458,370.9 167.848958,381.7 179.272708,381.7 C182.078542,381.7 184.283125,383.9 184.283125,386.7 C184.283125,389.5 182.078542,391.7 179.272708,391.7 C167.848958,391.7 166.646458,402.6 166.646458,407.2 C166.646458,410 164.341667,412.2 161.636042,412.2 Z" id="Path" fill="#F6E049"></path>
                </g>
                <g transform="translate(451.939583, 515.000000)" fill="#383A48" fill-rule="nonzero">
                    <polygon id="Path" points="135.28125 5.2 103.314792 114.2 5.711875 114.2"></polygon>
                    <path d="M103.314792,119.2 L5.711875,119.2 C3.6075,119.2 1.70354167,117.9 1.00208333,115.9 C0.300625,113.9 0.901875,111.7 2.50520833,110.4 L131.974375,1.4 C133.677917,1.1379786e-13 136.082917,-0.2 137.986875,1 C139.790625,2.2 140.6925,4.5 140.09125,6.6 L108.225,115.6 C107.523542,117.7 105.519375,119.2 103.314792,119.2 Z M19.4404167,109.2 L99.6070833,109.2 L125.761458,19.8 L19.4404167,109.2 Z" id="Shape"></path>
                </g>
                <g transform="translate(143.297917, 384.000000)" fill-rule="nonzero">
                    <g transform="translate(19.039583, 73.000000)">
                        <polygon id="Rectangle" fill="#F6E049" transform="translate(196.510155, 196.009690) rotate(-45.000000) translate(-196.510155, -196.009690) " points="-5.76832177 128.52992 398.648633 128.95075 398.788632 263.48946 -5.62832311 263.06863"></polygon>
                        <path d="M101.01,391.4 C99.7072917,391.4 98.4045833,390.9 97.5027083,389.9 L2.30479167,294.9 C1.40291667,294 0.801666667,292.7 0.801666667,291.4 C0.801666667,290.1 1.30270833,288.8 2.30479167,287.9 L288.6,2.2 C290.604167,0.2 293.710625,0.2 295.714792,2.2 L390.912708,97.2 C391.814583,98.1 392.415833,99.4 392.415833,100.7 C392.415833,102 391.914792,103.3 390.912708,104.2 L104.517292,389.9 C103.515208,390.9 102.312708,391.4 101.01,391.4 Z M12.8266667,291.3 L101.01,379.3 L380.190417,100.7 L292.007083,12.7 L12.8266667,291.3 Z" id="Shape" fill="#383A48"></path>
                    </g>
                    <g transform="translate(0.000000, 339.000000)">
                        <ellipse id="Oval" fill="#E0719E" cx="72.450625" cy="72.9" rx="67.34" ry="67.2"></ellipse>
                        <path d="M72.450625,145.1 C53.1104167,145.1 34.9727083,137.6 21.2441667,124 C7.61583333,110.4 0.100208333,92.2 0.100208333,72.9 C0.100208333,53.6 7.61583333,35.5 21.2441667,21.8 C49.5029167,-6.3 95.3983333,-6.4 123.556875,21.8 C137.185208,35.4 144.700833,53.6 144.700833,72.9 C144.700833,92.2 137.185208,110.3 123.556875,124 C109.928542,137.6 91.690625,145.1 72.450625,145.1 Z M72.450625,10.7 C56.5175,10.7 40.4841667,16.8 28.3589583,28.9 C4.00833333,53.2 4.00833333,92.6 28.3589583,116.9 C52.7095833,141.2 92.1916667,141.2 116.542292,116.9 C140.892917,92.6 140.892917,53.2 116.542292,28.9 C104.316875,16.8 88.38375,10.7 72.450625,10.7 Z" id="Shape" fill="#383A48"></path>
                    </g>
                    <g transform="translate(305.635417, 36.000000)">
                        <polygon id="Rectangle" fill="#E0719E" transform="translate(71.843974, 71.416670) rotate(-45.000000) translate(-71.843974, -71.416670) " points="45.2466247 4.11971122 98.3013242 4.17491902 98.4413229 138.713629 45.3866233 138.658421"></polygon>
                        <path d="M100.709375,142.7 C99.4066667,142.7 98.1039583,142.2 97.2020833,141.2 L2.00416667,46.2 C-1.11022302e-16,44.2 -1.11022302e-16,41.1 2.00416667,39.1 L39.5822917,1.6 C40.4841667,0.7 41.786875,0.1 43.0895833,0.1 C44.3922917,0.1 45.695,0.6 46.596875,1.6 L141.794792,96.6 C143.798958,98.6 143.798958,101.7 141.794792,103.7 L104.216667,141.2 C103.214583,142.2 101.911875,142.7 100.709375,142.7 Z M12.5260417,42.7 L100.709375,130.7 L131.172708,100.3 L42.989375,12.3 L12.5260417,42.7 Z" id="Shape" fill="#383A48"></path>
                    </g>
                    <g transform="translate(350.729167, 0.000000)">
                        <polygon id="Path" fill="#E0719E" points="85.7783333 128.9 5.31104167 48.5 111.632083 5.2 129.26875 22.7"></polygon>
                        <path d="M85.7783333,133.9 C84.475625,133.9 83.1729167,133.4 82.2710417,132.4 L1.70354167,52 C0.501041667,50.8 7.02216063e-15,49.1 0.300625,47.5 C0.60125,45.9 1.80375,44.5 3.306875,43.9 L109.627917,0.6 C111.531875,-0.2 113.63625,0.3 115.039167,1.7 L132.675833,19.3 C134.07875,20.7 134.579792,22.9 133.778125,24.7 L90.3879167,130.8 C89.7866667,132.3 88.38375,133.5 86.7804167,133.8 C86.4797917,133.8 86.0789583,133.9 85.7783333,133.9 Z M14.129375,50.3 L83.9745833,120 L123.25625,23.9 L110.329375,11 L14.129375,50.3 Z" id="Shape" fill="#383A48"></path>
                    </g>
                    <g transform="translate(242.504167, 99.000000)">
                        <polygon id="Rectangle" fill="#F6E049" transform="translate(71.867668, 71.301705) rotate(-45.000000) translate(-71.867668, -71.301705) " points="45.8208866 4.00531913 97.7744508 4.05938111 97.9144495 138.598091 45.9608852 138.544029"></polygon>
                        <path d="M101.110208,142.3 C99.8075,142.3 98.5047917,141.8 97.6029167,140.8 L2.405,45.8 C0.400833333,43.8 0.400833333,40.7 2.405,38.7 L39.08125,2 C41.0854167,0 44.191875,0 46.1960417,2 L141.393958,97 C142.295833,97.9 142.897083,99.2 142.897083,100.5 C142.897083,101.8 142.396042,103.1 141.393958,104 L104.6175,140.7 C103.715625,141.8 102.412917,142.3 101.110208,142.3 Z M12.926875,42.2 L101.110208,130.2 L130.872083,100.5 L42.68875,12.5 L12.926875,42.2 Z" id="Shape" fill="#383A48"></path>
                    </g>
                    <path d="M252.124167,273.5 L194.704792,330.8 C182.579583,342.9 162.838542,342.9 150.613125,330.8 L150.613125,330.8 C138.487917,318.7 138.487917,299 150.613125,286.8 L208.0325,229.5 C220.157708,217.4 239.89875,217.4 252.124167,229.5 L252.124167,229.5 C264.349583,241.7 264.349583,261.4 252.124167,273.5 Z" id="Path" fill="#E0719E"></path>
                </g>
                <g transform="translate(901.875000, 98.000000)" fill-rule="nonzero">
                    <g transform="translate(133.277083, 0.000000)" id="Shape">
                        <path d="M82.7720833,169.5 C102.913958,188 129.068333,196.1 154.320833,194.1 L10.6220833,484.3 C-0.60125,507.4 8.718125,535.2 31.565625,546.9 L231.982292,141 C232.182708,140.7 232.282917,140.3 232.483333,140 L232.583542,139.9 L232.583542,139.9 C249.618958,103.6 242.003125,59 210.838333,30.4 C172.358333,-4.9 112.43375,-2.3 77.1604167,36.1 C41.8870833,74.5 44.2920833,134.2 82.7720833,169.5 Z M180.575417,63.2 C200.917708,81.9 202.320625,113.4 183.581667,133.7 C164.842708,154 133.277083,155.3 112.934792,136.7 C92.5925,118.1 91.2897917,86.5 109.928542,66.2 C128.567292,45.9 160.233125,44.5 180.575417,63.2 Z" fill="#AAC6FC"></path>
                        <path d="M31.565625,551.9 C30.7639583,551.9 29.9622917,551.7 29.2608333,551.3 C17.0354167,545 7.91645833,534.4 3.6075,521.4 C-0.701458333,508.4 0.200416667,494.4 6.11270833,482.1 L146.10375,199.4 C121.4525,199.2 97.6029167,189.9 79.365,173.2 C59.7241667,155.2 48.3004167,130.7 47.198125,104.2 C46.0958333,77.7 55.4152083,52.3 73.3525,32.7 C110.529792,-7.7 173.661042,-10.4 214.145208,26.7 C246.211875,56.1 255.53125,102.4 237.193125,141.8 C237.193125,141.9 237.092917,142 237.092917,142 L236.992708,142.1 C236.8925,142.3 236.792292,142.5 236.692083,142.8 L236.491667,143.1 L35.9747917,549.1 C35.3735417,550.3 34.3714583,551.2 33.06875,551.6 C32.6679167,551.8 32.0666667,551.9 31.565625,551.9 Z M154.320833,189.1 C155.924167,189.1 157.5275,189.9 158.429375,191.3 C159.431458,192.8 159.531667,194.7 158.73,196.3 L15.03125,486.5 C5.711875,505.7 12.025,528.2 29.3610417,539.9 L227.573125,138.4 C227.673333,138.2 227.773542,138.1 227.87375,137.9 C227.87375,137.9 227.87375,137.8 227.973958,137.7 C244.608542,102.2 236.29125,60.5 207.331042,34 C170.955417,0.6 114.137292,3.1 80.6677083,39.4 C64.4339583,57 56.1166667,79.8 57.11875,103.7 C58.1208333,127.6 68.4422917,149.6 86.0789583,165.8 L86.0789583,165.8 C104.417083,182.6 129.068333,191 153.819792,189.1 C154.020208,189.1 154.220625,189.1 154.320833,189.1 Z M146.705,154.9 C132.87625,154.9 119.748958,149.8 109.527708,140.4 C87.18125,119.9 85.678125,85.1 106.220833,62.8 C126.763542,40.5 161.636042,39 183.9825,59.5 L183.9825,59.5 C206.328958,80 207.832083,114.8 187.289375,137.1 C177.36875,147.9 163.740417,154.2 149.11,154.8 C148.308333,154.8 147.506667,154.9 146.705,154.9 Z M146.805208,55 C146.10375,55 145.5025,55 144.801042,55 C132.776042,55.5 121.652917,60.7 113.536042,69.5 C96.7010417,87.7 98.00375,116.2 116.241667,133 C125.06,141.1 136.583958,145.3 148.608958,144.8 C160.633958,144.3 171.757083,139.1 179.873958,130.3 C196.708958,112.1 195.40625,83.6 177.168333,66.8 C168.851042,59.2 158.12875,55 146.805208,55 Z" fill="#383A48"></path>
                    </g>
                    <g transform="translate(191.397917, 297.000000)" fill="#383A48">
                        <polygon id="Path" points="25.9539583 39 94.1958333 5.3 72.9516667 48.3 5.01041667 81.3"></polygon>
                        <path d="M5.01041667,86.3 C3.70770833,86.3 2.405,85.8 1.503125,84.8 C-4.99600361e-16,83.3 -0.400833333,81 0.60125,79.1 L21.5447917,36.8 C22.0458333,35.8 22.8475,35 23.8495833,34.5 L92.1916667,0.8 C94.095625,-0.1 96.4004167,0.2 97.9035417,1.7 C99.4066667,3.2 99.8075,5.5 98.905625,7.4 L77.6614583,50.4 C77.1604167,51.4 76.35875,52.2 75.3566667,52.7 L7.31520833,85.6 C6.51354167,86.1 5.711875,86.3 5.01041667,86.3 Z M29.6616667,42.7 L15.933125,70.4 L69.2439583,44.6 L83.1729167,16.3 L29.6616667,42.7 Z" id="Shape"></path>
                    </g>
                    <g transform="translate(0.000000, 173.000000)" id="Shape">
                        <path d="M517.876667,170 C556.356667,134.7 558.962083,75 523.588542,36.6 C494.928958,5.5 450.236042,-2.1 413.860417,14.9 L413.860417,14.9 L413.760208,15 C413.459583,15.2 413.05875,15.3 412.758125,15.5 L6.0125,215.5 C17.8370833,238.3 45.695,247.6 68.7429167,236.4 L359.5475,93 C357.543333,118.3 365.660208,144.3 384.19875,164.4 C419.472083,202.7 479.396667,205.2 517.876667,170 Z M487.713958,137.2 C467.371667,155.8 435.705833,154.5 417.067083,134.2 C398.328125,113.9 399.731042,82.3 420.073333,63.7 C440.415625,45.1 472.081458,46.4 490.720208,66.7 C509.358958,86.9 508.05625,118.5 487.713958,137.2 Z" fill="#AAC6FC"></path>
                        <path d="M48.1,246 C42.4883333,246 36.976875,245.1 31.4654167,243.3 C18.4383333,239 7.81625,229.9 1.503125,217.7 C0.901875,216.5 0.801666667,215.1 1.2025,213.8 C1.60333333,212.5 2.50520833,211.5 3.70770833,210.9 L410.854167,10.7 C411.154792,10.6 411.355208,10.5 411.655833,10.3 L411.756042,10.3 C411.85625,10.3 411.956458,10.2 412.056667,10.2 C451.53875,-8.1 497.835,1.1 527.396458,33.2 C545.433958,52.8 554.653125,78.1 553.550833,104.7 C552.448542,131.3 541.024792,155.8 521.383958,173.7 C480.899792,210.8 417.768542,208.1 380.59125,167.7 C363.856458,149.5 354.537083,125.6 354.336667,101.1 L71.0477083,240.8 C63.7325,244.2 55.91625,246 48.1,246 Z M13.0270833,217.5 C24.7514583,234.8 47.2983333,241.1 66.5383333,231.8 L357.342917,88.4 C358.94625,87.6 360.850208,87.7 362.353333,88.7 C363.856458,89.7 364.658125,91.4 364.557917,93.2 C362.55375,117.9 371.071458,142.6 387.906458,160.8 C405.543125,180 429.693333,189.7 453.94375,189.7 C475.58875,189.7 497.333958,181.9 514.569792,166.2 C532.206458,150 542.527917,128 543.53,104.1 C544.532083,80.2 536.214792,57.4 519.981042,39.8 C493.425833,10.9 451.638958,2.7 416.065,19.2 C415.964792,19.2 415.964792,19.2 415.864583,19.3 C415.664167,19.4 415.46375,19.5 415.363542,19.6 L414.962708,19.8 L13.0270833,217.5 Z M453.94375,155.3 C453.142083,155.3 452.340417,155.3 451.53875,155.2 C436.808125,154.6 423.28,148.3 413.359375,137.5 C403.43875,126.7 398.227917,112.7 398.929375,98 C399.630833,83.3 405.84375,69.8 416.66625,59.9 C427.48875,50 441.517917,44.9 456.248542,45.5 C470.979167,46.1 484.507292,52.4 494.427917,63.2 C514.970625,85.5 513.4675,120.3 491.121042,140.8 L491.121042,140.8 C480.899792,150.2 467.7725,155.3 453.94375,155.3 Z M453.843542,55.5 C442.52,55.5 431.797708,59.7 423.480417,67.3 C414.662083,75.4 409.45125,86.5 408.950208,98.5 C408.449167,110.5 412.657917,122 420.774792,130.8 C428.891667,139.6 440.014792,144.8 452.039792,145.3 C464.064792,145.8 475.58875,141.6 484.407083,133.5 C502.645,116.7 503.947708,88.3 487.112708,70 C478.995833,61.2 467.872708,56 455.847708,55.5 C455.14625,55.5 454.444792,55.5 453.843542,55.5 Z" fill="#383A48"></path>
                    </g>
                    <ellipse id="Oval" fill="#383A48" transform="translate(267.235623, 285.481520) rotate(-23.260283) translate(-267.235623, -285.481520) " cx="267.235623" cy="285.48152" rx="15.326569" ry="15.3046365"></ellipse>
                </g>
                <path d="M675.905208,865.7 C674.6025,865.7 673.299792,865.2 672.297708,864.2 C670.39375,862.2 670.39375,859.1 672.397917,857.1 L681.015833,848.8 C683.02,846.9 686.126458,846.9 688.130625,848.9 C690.034583,850.9 690.034583,854 688.030417,856 L679.4125,864.3 C678.410417,865.2 677.207917,865.7 675.905208,865.7 Z M706.168125,836.5 C704.865417,836.5 703.562708,836 702.560625,835 C700.656667,833 700.656667,829.9 702.660833,827.9 L711.27875,819.6 C713.282917,817.7 716.389375,817.7 718.393542,819.7 C720.2975,821.7 720.2975,824.8 718.293333,826.8 L709.675417,835.1 C708.673333,836 707.470833,836.5 706.168125,836.5 Z M736.431042,807.3 C735.128333,807.3 733.825625,806.8 732.823542,805.8 C730.919583,803.8 730.919583,800.7 732.92375,798.7 L741.541667,790.4 C743.545833,788.5 746.652292,788.5 748.656458,790.5 C750.560417,792.5 750.560417,795.6 748.55625,797.6 L739.938333,805.9 C738.93625,806.8 737.633542,807.3 736.431042,807.3 Z M766.693958,778 C765.39125,778 764.088542,777.5 763.086458,776.5 C761.1825,774.5 761.1825,771.4 763.186667,769.4 L771.804583,761.1 C773.80875,759.2 776.915208,759.2 778.919375,761.2 C780.823333,763.2 780.823333,766.3 778.819167,768.3 L770.20125,776.6 C769.199167,777.6 767.896458,778 766.693958,778 Z M796.856667,748.8 C795.553958,748.8 794.25125,748.3 793.249167,747.3 C791.345208,745.3 791.345208,742.2 793.349375,740.2 L801.967292,731.9 C803.971458,730 807.077917,730 809.082083,732 C810.986042,734 810.986042,737.1 808.981875,739.1 L800.363958,747.4 C799.361875,748.4 798.159375,748.8 796.856667,748.8 Z M827.119583,719.6 C825.816875,719.6 824.514167,719.1 823.512083,718.1 C821.608125,716.1 821.608125,713 823.612292,711 L832.230208,702.7 C834.234375,700.8 837.340833,700.8 839.345,702.8 C841.248958,704.8 841.248958,707.9 839.244792,709.9 L830.626875,718.2 C829.624792,719.1 828.422292,719.6 827.119583,719.6 Z M857.3825,690.4 C856.079792,690.4 854.777083,689.9 853.775,688.9 C851.871042,686.9 851.871042,683.8 853.875208,681.8 L862.493125,673.5 C864.497292,671.6 867.703958,671.6 869.607917,673.6 C871.511875,675.6 871.511875,678.7 869.507708,680.7 L860.889792,689 C859.887708,689.9 858.585,690.4 857.3825,690.4 Z M887.645417,661.2 C886.342708,661.2 885.04,660.7 884.037917,659.7 C882.133958,657.7 882.133958,654.6 884.138125,652.6 L892.756042,644.3 C894.760208,642.4 897.866667,642.4 899.870833,644.4 C901.774792,646.4 901.774792,649.5 899.770625,651.5 L891.152708,659.8 C890.150625,660.7 888.847917,661.2 887.645417,661.2 Z M917.808125,632 C916.505417,632 915.202708,631.5 914.200625,630.5 C912.296667,628.5 912.296667,625.4 914.300833,623.4 L922.91875,615.1 C924.922917,613.2 928.029375,613.2 930.033542,615.2 C931.9375,617.2 931.9375,620.3 929.933333,622.3 L921.315417,630.6 C920.313333,631.5 919.110833,632 917.808125,632 Z M948.071042,602.8 C946.768333,602.8 945.465625,602.3 944.463542,601.3 C942.559583,599.3 942.559583,596.2 944.56375,594.2 L953.181667,585.9 C955.185833,584 958.292292,584 960.296458,586 C962.200417,588 962.200417,591.1 960.19625,593.1 L951.578333,601.4 C950.57625,602.3 949.37375,602.8 948.071042,602.8 Z M978.333958,573.5 C977.03125,573.5 975.728542,573 974.726458,572 C972.8225,570 972.8225,566.9 974.826667,564.9 L983.444583,556.6 C985.44875,554.7 988.555208,554.7 990.559375,556.7 C992.463333,558.7 992.463333,561.8 990.459167,563.8 L981.84125,572.1 C980.839167,573.1 979.536458,573.5 978.333958,573.5 Z M1008.59688,544.3 C1007.29417,544.3 1005.99146,543.8 1004.98938,542.8 C1003.08542,540.8 1003.08542,537.7 1005.08958,535.7 L1013.7075,527.4 C1015.71167,525.5 1018.81812,525.5 1020.82229,527.5 C1022.72625,529.5 1022.72625,532.6 1020.72208,534.6 L1012.10417,542.9 C1011.10208,543.9 1009.79938,544.3 1008.59688,544.3 Z M1038.75958,515.1 C1037.45688,515.1 1036.15417,514.6 1035.15208,513.6 C1033.24813,511.6 1033.24813,508.5 1035.25229,506.5 L1043.87021,498.2 C1045.87437,496.3 1048.98083,496.3 1050.985,498.3 C1052.88896,500.3 1052.88896,503.4 1050.88479,505.4 L1042.26688,513.7 C1041.26479,514.6 1040.06229,515.1 1038.75958,515.1 Z M1069.0225,485.9 C1067.71979,485.9 1066.41708,485.4 1065.415,484.4 C1063.51104,482.4 1063.51104,479.3 1065.51521,477.3 L1074.13312,469 C1076.13729,467.1 1079.24375,467.1 1081.24792,469.1 C1083.15187,471.1 1083.15187,474.2 1081.14771,476.2 L1072.52979,484.5 C1071.52771,485.4 1070.32521,485.9 1069.0225,485.9 Z M1099.28542,456.7 C1097.98271,456.7 1096.68,456.2 1095.67792,455.2 C1093.77396,453.2 1093.77396,450.1 1095.77813,448.1 L1104.39604,439.8 C1106.40021,437.9 1109.50667,437.9 1111.51083,439.9 C1113.41479,441.9 1113.41479,445 1111.41062,447 L1102.79271,455.3 C1101.79063,456.2 1100.48792,456.7 1099.28542,456.7 Z" id="Shape" fill="#383A48" fill-rule="nonzero"></path>
                <g transform="translate(1151.393750, 460.000000)" fill-rule="nonzero" id="Shape">
                    <g transform="translate(25.052083, 0.000000)" fill="#383A48">
                        <path d="M246.211875,403.1 L235.389375,320.6 L126.162292,320.6 L92.3920833,403.1 L5.81208333,403.1 L175.865625,5.2 L280.883958,5.2 L345.418125,403.1 L246.211875,403.1 Z M150.613125,249.6 L231.581458,249.6 L214.846667,94.4 L210.337292,94.4 L150.613125,249.6 Z"></path>
                        <path d="M345.317917,408.1 L246.111667,408.1 C243.606458,408.1 241.502083,406.2 241.10125,403.7 L230.88,325.6 L129.368958,325.6 L96.9014583,405 C96.0997917,406.9 94.2960417,408.1 92.291875,408.1 L5.711875,408.1 C4.00833333,408.1 2.50520833,407.3 1.503125,405.9 C0.60125,404.5 0.400833333,402.7 1.10229167,401.2 L171.155833,3.3 C171.9575,1.5 173.76125,0.3 175.765417,0.3 L280.78375,0.3 C283.288958,0.3 285.293125,2.1 285.693958,4.5 L350.228125,402.4 C350.428542,403.8 350.027708,405.3 349.125833,406.4 C348.223958,407.5 346.821042,408.1 345.317917,408.1 Z M250.621042,398.1 L339.505833,398.1 L276.575,10.2 L179.072292,10.2 L13.3277083,398.1 L88.985,398.1 L121.4525,318.7 C122.254167,316.8 124.057917,315.6 126.062083,315.6 L235.289167,315.6 C237.794375,315.6 239.89875,317.5 240.299583,320 L250.621042,398.1 Z M231.581458,254.6 L150.613125,254.6 C149.009792,254.6 147.406458,253.8 146.504583,252.4 C145.602708,251 145.402292,249.3 146.003542,247.8 L205.727708,92.6 C206.429167,90.7 208.333125,89.4 210.4375,89.4 L214.946875,89.4 C217.552292,89.4 219.656667,91.3 219.957292,93.9 L236.491667,249 C236.692083,250.4 236.191042,251.8 235.188958,252.9 C234.186875,254 232.984375,254.6 231.581458,254.6 Z M157.828125,244.6 L225.969792,244.6 L211.03875,106.4 L157.828125,244.6 Z"></path>
                    </g>
                    <g>
                        <path d="M246.211875,403.1 L235.389375,320.6 L126.162292,320.6 L92.3920833,403.1 L5.81208333,403.1 L175.865625,5.2 L280.883958,5.2 L345.418125,403.1 L246.211875,403.1 Z M150.613125,249.6 L231.581458,249.6 L214.846667,94.4 L210.337292,94.4 L150.613125,249.6 Z" fill="#F6E049"></path>
                        <path d="M345.418125,408.1 L246.211875,408.1 C243.706667,408.1 241.602292,406.2 241.201458,403.7 L230.980208,325.6 L129.469167,325.6 L97.0016667,405 C96.2,406.9 94.39625,408.1 92.3920833,408.1 L5.81208333,408.1 C4.10854167,408.1 2.60541667,407.3 1.60333333,405.9 C0.701458333,404.5 0.501041667,402.7 1.2025,401.2 L171.256042,3.3 C172.057708,1.5 173.861458,0.3 175.865625,0.3 L280.883958,0.3 C283.389167,0.3 285.393333,2.1 285.794167,4.5 L350.328333,402.4 C350.52875,403.8 350.127917,405.3 349.226042,406.4 C348.324167,407.5 346.92125,408.1 345.418125,408.1 Z M250.621042,398.1 L339.505833,398.1 L276.675208,10.2 L179.1725,10.2 L13.4279167,398.1 L89.0852083,398.1 L121.552708,318.7 C122.354375,316.8 124.158125,315.6 126.162292,315.6 L235.389375,315.6 C237.894583,315.6 239.998958,317.5 240.399792,320 L250.621042,398.1 Z M231.581458,254.6 L150.613125,254.6 C149.009792,254.6 147.406458,253.8 146.504583,252.4 C145.602708,251 145.402292,249.3 146.003542,247.8 L205.727708,92.6 C206.429167,90.7 208.333125,89.4 210.4375,89.4 L214.946875,89.4 C217.552292,89.4 219.656667,91.3 219.957292,93.9 L236.692083,249.1 C236.8925,250.5 236.391458,251.9 235.389375,253 C234.387292,254.1 232.984375,254.6 231.581458,254.6 Z M157.928333,244.6 L226.07,244.6 L211.138958,106.4 L157.928333,244.6 Z" fill="#383A48"></path>
                    </g>
                </g>
                <g transform="translate(1276.654167, 9.000000)" fill-rule="nonzero">
                    <polygon id="Path" fill="#E0719E" points="5.81208333 4.9 188.291458 4.9 96.3002083 141.4"></polygon>
                    <path d="M96.3002083,146.4 L96.3002083,146.4 C94.5966667,146.4 93.0935417,145.6 92.0914583,144.2 L1.60333333,7.7 C0.60125,6.2 0.501041667,4.2 1.40291667,2.6 C2.30479167,1 4.00833333,0 5.81208333,0 L188.291458,0 C190.095208,0 191.79875,1 192.700625,2.7 C193.6025,4.3 193.502292,6.3 192.4,7.8 L100.40875,144.3 C99.506875,145.5 98.00375,146.4 96.3002083,146.4 Z M15.1314583,9.9 L96.3002083,132.4 L178.871875,9.9 C178.871875,9.9 15.1314583,9.9 15.1314583,9.9 Z" id="Shape" fill="#383A48"></path>
                </g>
                <path d="M611.070417,868.1 L52.7095833,868.1 C49.90375,868.1 47.6991667,865.9 47.6991667,863.1 C47.6991667,860.3 49.90375,858.1 52.7095833,858.1 L611.070417,858.1 C613.87625,858.1 616.080833,860.3 616.080833,863.1 C616.080833,865.9 613.776042,868.1 611.070417,868.1 Z" id="Path" fill="#383A48" fill-rule="nonzero"></path>
                <path d="M5.41125,365.8 C4.10854167,365.8 2.80583333,365.3 1.90395833,364.3 C-0.100208333,362.3 -0.100208333,359.2 1.90395833,357.2 L175.665208,183.8 C177.669375,181.8 180.775833,181.8 182.78,183.8 C184.784167,185.8 184.784167,188.9 182.78,190.9 L8.91854167,364.4 C7.91645833,365.3 6.61375,365.8 5.41125,365.8 Z" id="Path" fill="#383A48" fill-rule="nonzero"></path>
                <g transform="translate(606.260417, 739.000000)">
                    <g transform="translate(0.000000, 11.000000)">
                        <line x1="0.501041667" y1="5.5" x2="33.4695833" y2="5.5" id="Path"></line>
                        <rect id="Rectangle" fill="#383A48" fill-rule="nonzero" x="0.501041667" y="0.5" width="33.06875" height="10"></rect>
                    </g>
                    <g transform="translate(12.025000, 0.000000)">
                        <line x1="5.01041667" y1="33" x2="5.01041667" y2="0" id="Path"></line>
                        <rect id="Rectangle" fill="#383A48" fill-rule="nonzero" x="0" y="0" width="10.0208333" height="33"></rect>
                    </g>
                </g>
                <g transform="translate(59.122917, 0.000000)">
                    <g transform="translate(0.000000, 12.000000)">
                        <line x1="0.100208333" y1="5.4" x2="33.1689583" y2="5.4" id="Path"></line>
                        <rect id="Rectangle" fill="#383A48" fill-rule="nonzero" x="0.100208333" y="0.4" width="33.06875" height="10"></rect>
                    </g>
                    <g transform="translate(11.022917, 0.000000)">
                        <line x1="5.61166667" y1="33.9" x2="5.61166667" y2="0.9" id="Path"></line>
                        <rect id="Rectangle" fill="#383A48" fill-rule="nonzero" x="0.60125" y="0.9" width="10.0208333" height="33"></rect>
                    </g>
                </g>
                <g transform="translate(1198.491667, 39.000000)">
                    <g transform="translate(0.000000, 12.000000)">
                        <line x1="0.400833333" y1="5.1" x2="33.4695833" y2="5.1" id="Path"></line>
                        <rect id="Rectangle" fill="#383A48" fill-rule="nonzero" x="0.400833333" y="0.1" width="33.06875" height="10"></rect>
                    </g>
                    <g transform="translate(11.022917, 0.000000)">
                        <line x1="5.91229167" y1="33.6" x2="5.91229167" y2="0.6" id="Path"></line>
                        <rect id="Rectangle" fill="#383A48" fill-rule="nonzero" x="0.901875" y="0.6" width="10.0208333" height="33"></rect>
                    </g>
                </g>
                <path d="M1187.46875,598.9 C1186.16604,598.9 1184.86333,598.4 1183.86125,597.4 L1161.31438,573.9 C1159.41042,571.9 1159.51063,568.7 1161.41458,566.8 C1163.41875,564.9 1166.62542,565 1168.52938,566.9 L1191.07625,590.4 C1192.98021,592.4 1192.88,595.6 1190.97604,597.5 C1189.97396,598.5 1188.77146,598.9 1187.46875,598.9 Z" id="Path" fill="#383A48" fill-rule="nonzero"></path>
                <path d="M1152.59625,640.6 C1151.995,640.6 1151.39375,640.5 1150.7925,640.3 L1120.42938,628.4 C1117.82396,627.4 1116.62146,624.5 1117.62354,621.9 C1118.62563,619.3 1121.53167,618.1 1124.13708,619.1 L1154.50021,631 C1157.10563,632 1158.30813,634.9 1157.30604,637.5 C1156.50437,639.4 1154.60042,640.6 1152.59625,640.6 Z" id="Path" fill="#383A48" fill-rule="nonzero"></path>
                <path d="M1105.69875,700.2 C1103.09333,700.2 1100.98896,698.2 1100.68833,695.6 C1100.48792,692.8 1102.49208,690.4 1105.19771,690.2 L1137.66521,687.3 C1140.37083,687.1 1142.87604,689.1 1143.07646,691.8 C1143.27688,694.6 1141.27271,697 1138.56708,697.2 L1106.09958,700.1 C1105.99938,700.2 1105.79896,700.2 1105.69875,700.2 Z" id="Path" fill="#383A48" fill-rule="nonzero"></path>
            </g>
        </g>
    </g>
</svg>