<?xml version="1.0" encoding="UTF-8"?>
<svg width="16px" height="12px" viewBox="0 0 16 12" version="1.1" xmlns="http://www.w3.org/2000/svg" xmlns:xlink="http://www.w3.org/1999/xlink">
    <title>flags/S/AD - Andorra</title>
    <defs>
        <rect id="path-1" x="0" y="0" width="16" height="12"></rect>
        <path d="M3.82288596,0.0441164302 L3.82288596,3.55902659 C3.82244097,3.76584661 3.71288924,3.91446969 3.49423076,4.00489584 C3.27557229,4.095322 3.03764858,4.1243527 2.78045964,4.09198794 C2.53437181,4.03907671 2.34636434,4.03907671 2.21643722,4.09198794 C2.11238541,4.13436176 2.02705911,4.16274958 1.9604583,4.17715139 C1.95435807,4.1843948 1.94710926,4.18328157 1.93958313,4.18196122 L1.91424597,4.1853009 L1.91424597,4.1853009 C1.84851644,4.16274958 1.76319013,4.13436176 1.65913833,4.09198794 C1.5292112,4.03907671 1.34120373,4.03907671 1.09511591,4.09198794 C0.837926965,4.1243527 0.600003257,4.095322 0.381344783,4.00489584 C0.162686309,3.91446969 0.0531345756,3.76584661 0.0526895828,3.55902659 L0.0526895828,3.55902659 L0.0526895828,0.0441164302 L3.82288596,0.0441164302 Z" id="path-3"></path>
    </defs>
    <g id="Symbols" stroke="none" stroke-width="1" fill="none" fill-rule="evenodd">
        <g id="flag">
            <mask id="mask-2" fill="white">
                <use xlink:href="#path-1"></use>
            </mask>
            <g id="mask"></g>
            <g id="contents" mask="url(#mask-2)">
                <polygon id="middle" fill="#FFD018" points="4 0 12 0 12 12 4 12"></polygon>
                <rect id="left" fill="#2E42A5" x="0" y="0" width="4" height="12"></rect>
                <polygon id="right" fill="#E31D1C" points="12 0 16 0 16 12 12 12"></polygon>
                <g id="mark" transform="translate(3.900000, 2.600000)">
                    <path d="M2.00709474,0.00714525452 L6.40172273,0.0383247794 C6.95122499,0.0422234528 7.39462799,0.488783522 7.39462799,1.03829961 L7.39462799,5.04536936 L7.39462799,5.04536936 C7.09855371,6.37870269 6.04999817,7.04536936 4.24896136,7.04536936 C2.44792455,7.04536936 1.36493743,6.36357957 1,5 L1,1.00712009 C1,0.454835337 1.44771525,0.00712008654 2,0.00712008654 C2.00236494,0.00712008654 2.00472986,0.00712847592 2.00709474,0.00714525452 Z" id="Rectangle" fill="#BF9937"></path>
                    <path d="M1.25,1.6 C1.66421356,1.6 2,1.26421356 2,0.85 C2,0.435786438 1.66421356,0.1 1.25,0.1 C0.835786438,0.1 0.5,0.435786438 0.5,0.85 C0.5,1.26421356 0.835786438,1.6 1.25,1.6 Z" id="Oval-11" fill="#BF9937"></path>
                    <path d="M1.25,3.8 C1.66421356,3.8 2,3.46421356 2,3.05 C2,2.63578644 1.66421356,2.3 1.25,2.3 C0.835786438,2.3 0.5,2.63578644 0.5,3.05 C0.5,3.46421356 0.835786438,3.8 1.25,3.8 Z" id="Oval-11" fill="#BF9937"></path>
                    <path d="M1.25,5.6 C1.66421356,5.6 2,5.26421356 2,4.85 C2,4.43578644 1.66421356,4.1 1.25,4.1 C0.835786438,4.1 0.5,4.43578644 0.5,4.85 C0.5,5.26421356 0.835786438,5.6 1.25,5.6 Z" id="Oval-11" fill="#BF9937"></path>
                    <path d="M6.95,1.6 C7.36421356,1.6 7.7,1.26421356 7.7,0.85 C7.7,0.435786438 7.36421356,0.1 6.95,0.1 C6.53578644,0.1 6.2,0.435786438 6.2,0.85 C6.2,1.26421356 6.53578644,1.6 6.95,1.6 Z" id="Oval-11" fill="#BF9937"></path>
                    <path d="M6.95,3.8 C7.36421356,3.8 7.7,3.46421356 7.7,3.05 C7.7,2.63578644 7.36421356,2.3 6.95,2.3 C6.53578644,2.3 6.2,2.63578644 6.2,3.05 C6.2,3.46421356 6.53578644,3.8 6.95,3.8 Z" id="Oval-11" fill="#BF9937"></path>
                    <path d="M6.95,5.6 C7.36421356,5.6 7.7,5.26421356 7.7,4.85 C7.7,4.43578644 7.36421356,4.1 6.95,4.1 C6.53578644,4.1 6.2,4.43578644 6.2,4.85 C6.2,5.26421356 6.53578644,5.6 6.95,5.6 Z" id="Oval-11" fill="#BF9937"></path>
                    <path d="M2.15507449,5.79890919 L2.20762364,5.67185348 C2.8114717,5.93068932 3.49864019,6.0602888 4.26956962,6.0602888 C5.0401118,6.0602888 5.70879352,5.93082245 6.27604988,5.67246176 L6.33135148,5.79830092 C5.74566421,6.06505609 5.05825856,6.19814767 4.26956962,6.19814767 C3.48126794,6.19814767 2.7762894,6.06518923 2.15507449,5.79890919 Z" id="txt" fill="#805440" fill-rule="nonzero"></path>
                    <g id="masked" transform="translate(2.286458, 1.372222)">
                        <mask id="mask-4" fill="white">
                            <use xlink:href="#path-3"></use>
                        </mask>
                        <use id="mask" fill="#BF9937" xlink:href="#path-3"></use>
                        <g id="squares" mask="url(#mask-4)">
                            <rect id="Rectangle-74" fill="#D00F3A" x="0" y="0" width="1.828125" height="1.95"></rect>
                            <polygon id="Rectangle-74" fill="#FEDF00" points="2.03125 0 3.92708333 0 3.92708333 1.95 2.03125 1.95"></polygon>
                            <polygon id="Rectangle-74" fill="#FEDF00" points="2.03125 2.16666667 3.859375 2.16666667 3.859375 4.18888889 2.03125 4.18888889"></polygon>
                            <rect id="Rectangle-74" fill="#FEDF00" x="0" y="2.16666667" width="1.828125" height="2.02222222"></rect>
                            <circle id="Oval" fill="#D00F3A" cx="2.99999967" cy="2.99999978" r="1"></circle>
                            <path d="M0.950357251,0.34332095 L0.950357251,1.45671919 C0.940039526,1.46068047 0.872618673,1.46898424 0.865613643,1.48205158 C0.854904056,1.5020295 0.850801089,1.53241035 0.850801089,1.57659373 C0.850801089,1.63120268 0.817387963,1.68202575 0.737228954,1.76330165 C0.758302862,1.72447879 0.779910762,1.67422569 0.807270579,1.60444676 C0.853184585,1.48734691 0.821980165,1.42159405 0.732865051,1.45262638 L0.732865051,1.45262638 L0.491082609,0.871710834 L0.950357251,0.34332095 Z M0.952794116,0.339228137 L1.42350314,0.871710834 L1.1817207,1.45262638 C1.09260558,1.42159405 1.06140116,1.48734691 1.10731517,1.60444676 C1.13467499,1.67422569 1.15628289,1.72447879 1.1773568,1.76330165 C1.09719779,1.68202575 1.06378466,1.63120268 1.06378466,1.57659373 C1.06378466,1.53241035 1.05968169,1.5020295 1.04897211,1.48205158 C1.04196708,1.46898424 0.963111841,1.45658766 0.952794116,1.45262638 L0.952794116,1.45262638 L0.952794116,0.339228137 Z" id="Combined-Shape" fill="#FEDF00" fill-rule="nonzero"></path>
                        </g>
                        <rect id="Rectangle-2" fill="#D00F3A" mask="url(#mask-4)" x="2.44234545" y="0.524546576" width="1" height="1"></rect>
                        <polygon id="Rectangle-2" fill="#D00F3A" mask="url(#mask-4)" points="0.5 2.61523208 1.5 2.61523208 1.5 3.61523208 0.5 3.61523208"></polygon>
                    </g>
                </g>
            </g>
        </g>
    </g>
</svg>