<?xml version="1.0" encoding="UTF-8"?>
<svg width="16px" height="12px" viewBox="0 0 16 12" version="1.1" xmlns="http://www.w3.org/2000/svg" xmlns:xlink="http://www.w3.org/1999/xlink">
    <title>flags/S/AI - Anguilla</title>
    <defs>
        <rect id="path-1" x="0" y="0" width="16" height="12"></rect>
        <rect id="path-3" x="0" y="0" width="16" height="12"></rect>
        <rect id="path-5" x="0" y="0" width="9" height="7"></rect>
    </defs>
    <g id="Symbols" stroke="none" stroke-width="1" fill="none" fill-rule="evenodd">
        <g id="flag">
            <mask id="mask-2" fill="white">
                <use xlink:href="#path-1"></use>
            </mask>
            <g id="mask"></g>
            <g id="contents" mask="url(#mask-2)">
                <mask id="mask-4" fill="white">
                    <use xlink:href="#path-3"></use>
                </mask>
                <use id="background" fill="#2E42A5" xlink:href="#path-3"></use>
                <g id="mark-2" mask="url(#mask-4)">
                    <g transform="translate(10.000000, 5.000000)">
                        <path d="M4.52790198,0.269069698 C4.61286455,1.80223128 4.63845318,3.31470452 4.21107822,4.3489611 C4.05130823,4.73560789 3.82658473,5.05217064 3.50599282,5.26381933 C3.21111781,5.45849022 2.83755274,5.56232662 2.37013578,5.56232662 C1.9476443,5.56232662 1.60761075,5.49506037 1.33568841,5.3597258 C1.06385097,5.2244335 0.864231843,5.02050726 0.716302819,4.75807101 C0.321212951,4.05715445 0.273471554,2.97503355 0.268601842,1.64121078 C0.269123813,1.44506916 0.269590798,1.27566935 0.270006036,1.12829186 L0.270768474,0.861501564 C0.270884367,0.821464236 0.270994751,0.783524237 0.271099744,0.74750677 L0.271902396,0.470538416 C0.271976129,0.44448297 0.272044832,0.419825665 0.272108625,0.396391704 L0.272433419,0.269069698 Z" id="Path-2" stroke="#E6E617" stroke-width="0.5" fill="#FFFFFF" fill-rule="evenodd"></path>
                        <path d="M0.241813162,3.96726329 C0.241813162,4.99832384 1.09519345,6.01644079 2.35806406,6.01644079 C3.62093467,6.01644079 4.58987875,5.07798812 4.70531936,3.93219019 L0.241813162,3.96726329 Z" id="Path-2" stroke="none" fill="#82E5FF" fill-rule="evenodd"></path>
                        <path d="M2.31304348,2.91666667 C2.78027641,2.91666667 3.15904353,2.55103255 3.15904353,2.1 C3.15904353,1.64896745 2.78027641,1.28333333 2.31304348,1.28333333 C1.84581055,1.28333333 1.46704343,1.64896745 1.46704343,2.1 C1.46704343,2.55103255 1.84581055,2.91666667 2.31304348,2.91666667 Z M2.31304348,3.5 C1.51539191,3.5 0.867043427,2.87413172 0.867043427,2.1 C0.867043427,1.32586828 1.51539191,0.7 2.31304348,0.7 C3.11069505,0.7 3.75904353,1.32586828 3.75904353,2.1 C3.75904353,2.87413172 3.11069505,3.5 2.31304348,3.5 Z" id="Oval" stroke="none" fill="#E18600" fill-rule="nonzero"></path>
                        <path d="M2.06897366,0.50497357 C1.71815133,0.659670799 1.58080975,0.882430839 1.65694893,1.17325369 C1.73308811,1.46407654 1.81417517,1.63020539 1.90021012,1.67164024 C2.02412838,1.04203824 2.33625244,0.727237247 2.83658232,0.727237247 L2.06897366,0.50497357 Z" id="Path-3" stroke="none" fill="#E18600" fill-rule="evenodd"></path>
                        <path d="M1.41667804,1.88023649 C1.06585571,2.03493372 0.928514141,2.25769376 1.00465332,2.54851661 C1.0807925,2.83933946 1.16187956,3.00546831 1.2479145,3.04690316 C1.37183276,2.41730117 1.68395683,2.10250017 2.1842867,2.10250017 L1.41667804,1.88023649 Z" id="Path-3" stroke="none" fill="#E18600" fill-rule="evenodd" transform="translate(1.584287, 2.463570) rotate(-115.000000) translate(-1.584287, -2.463570) "></path>
                        <path d="M2.96391368,2.1160539 C2.61309135,2.27075113 2.47574978,2.49351116 2.55188896,2.78433401 C2.62802814,3.07515686 2.7091152,3.24128571 2.79515014,3.28272056 C2.9190684,2.65311857 3.23119247,2.33831757 3.73152234,2.33831757 L2.96391368,2.1160539 Z" id="Path-3" stroke="none" fill="#E18600" fill-rule="evenodd" transform="translate(3.131522, 2.699387) rotate(-244.000000) translate(-3.131522, -2.699387) "></path>
                    </g>
                </g>
                <g id="gb---small" mask="url(#mask-4)">
                    <g id="flag">
                        <mask id="mask-6" fill="white">
                            <use xlink:href="#path-5"></use>
                        </mask>
                        <g id="mask"></g>
                        <g id="contents" mask="url(#mask-6)">
                            <g transform="translate(-2.000000, -1.000000)">
                                <g id="stripe">
                                    <polygon id="white" fill="#F7FCFF" fill-rule="nonzero" transform="translate(6.543731, 4.365902) scale(1, -1) translate(-6.543731, -4.365902) " points="0.997866872 1.23189449 2.97834209 0.363294267 11.0449402 6.78743314 12.0895956 8.07819892 9.9717623 8.36851072 6.68158973 5.60016547 4.033339 3.73494762"></polygon>
                                    <polygon id="red" fill="#F50100" fill-rule="nonzero" transform="translate(6.491732, 4.573107) scale(1, -1) translate(-6.491732, -4.573107) " points="1.26899691 1.0377417 2.27795758 0.533678352 11.7144671 8.61253609 10.2977689 8.61253609"></polygon>
                                </g>
                                <g id="stripe" transform="translate(6.500000, 4.500000) scale(-1, 1) translate(-6.500000, -4.500000) ">
                                    <polygon id="white" fill="#F7FCFF" fill-rule="nonzero" transform="translate(6.543731, 4.365902) scale(1, -1) translate(-6.543731, -4.365902) " points="0.997866872 1.23189449 2.97834209 0.363294267 11.0449402 6.78743314 12.0895956 8.07819892 9.9717623 8.36851072 6.68158973 5.60016547 4.033339 3.73494762"></polygon>
                                    <polygon id="red" fill="#F50100" fill-rule="nonzero" transform="translate(6.627779, 4.549380) scale(1, -1) translate(-6.627779, -4.549380) " points="1.06544306 1.16208955 2.07440374 0.658026209 6.09256727 4.11700491 7.28386651 4.5034683 12.1901144 8.44073422 10.7734162 8.44073422 5.86992481 4.59692228 4.567449 4.13351128"></polygon>
                                </g>
                                <g id="cross" transform="translate(2.000000, 1.000000)">
                                    <path d="M5.36728773,-0.375 L5.36703197,2.625 L9.375,2.625 L9.375,4.375 L5.36703197,4.375 L5.36728773,7.375 L3.61728773,7.375 L3.61703197,4.375 L-0.375,4.375 L-0.375,2.625 L3.61703197,2.625 L3.61728773,-0.375 L5.36728773,-0.375 Z" id="red" stroke="#F7FCFF" stroke-width="0.75" fill="#F50100"></path>
                                </g>
                            </g>
                        </g>
                    </g>
                </g>
            </g>
        </g>
    </g>
</svg>