<?xml version="1.0" encoding="UTF-8"?>
<svg width="16px" height="12px" viewBox="0 0 16 12" version="1.1" xmlns="http://www.w3.org/2000/svg" xmlns:xlink="http://www.w3.org/1999/xlink">
    <title>flags/S/AL - Albania</title>
    <defs>
        <rect id="path-1" x="0" y="0" width="16" height="12" rx="-1"></rect>
    </defs>
    <g id="Symbols" stroke="none" stroke-width="1" fill="none" fill-rule="evenodd">
        <g id="flag">
            <mask id="mask-2" fill="white">
                <use xlink:href="#path-1"></use>
            </mask>
            <g id="mask"></g>
            <g id="contents" mask="url(#mask-2)">
                <polygon id="middle" fill="#F50100" points="0 0 16 0 16 12 0 12"></polygon>
                <g id="mark" transform="translate(4.500000, 1.000000)" fill="#1A1A1A">
                    <path d="M4.94626725,0.658247489 C5.21775112,0.607738862 5.47877761,0.786874689 5.52928623,1.05835856 C5.57979486,1.32984242 5.40065903,1.59086891 5.12917517,1.64137754 C4.96421372,1.67206804 4.78980707,2.04578358 4.68633211,2.7898919 C4.7762804,2.82851928 4.85880355,2.87973243 4.93223717,2.94121313 C4.96902957,2.89619114 5.00709224,2.83727781 5.04466396,2.76569957 C5.28995802,2.29838753 5.67595299,2.09949642 6.17802994,1.86837689 C6.6801069,1.63725737 7.34690687,0.864222986 7.34690687,1.36629994 C7.34690687,1.86837689 7.02051955,2.31181603 6.47853009,2.5387578 C5.93654063,2.76569957 5.5782233,2.91460679 5.31144363,3.33014447 L5.24665787,3.41359545 C5.25577547,3.44313175 5.26355474,3.47322787 5.26992843,3.50380853 C5.49389356,3.40531461 5.80955931,3.31325665 6.11367449,3.17326425 C6.61575145,2.94214473 7.28255142,2.16911035 7.28255142,2.6711873 C7.28255142,3.17326425 6.9561641,3.61670339 6.41417464,3.84364516 C5.87218518,4.07058693 5.61159754,3.93456474 5.23694692,4.28415354 L5.189,4.32272349 L5.16774947,4.44268479 C5.50199173,4.38891006 5.75496885,4.34366558 5.92668081,4.30695136 C6.36444552,4.21335163 7.06125587,3.5960952 7.06125587,4.09817215 C7.06125587,4.60024911 6.76917042,4.7503905 6.22718096,4.97733226 C5.6851915,5.20427403 5.41504085,5.1132754 5.07032743,5.13699805 L5.028,5.14072349 L5.006,5.25572349 L5.07032735,5.26242018 C5.37673927,5.28350698 5.62423741,5.21394981 6.05611065,5.35762078 L6.22718087,5.42208597 C6.76917033,5.64902774 7.06125578,5.79916913 7.06125578,6.30124608 C7.06125578,6.80332303 6.36444544,6.1860666 5.92668073,6.09246688 C5.75933717,6.05668667 5.51481068,6.01280472 5.19310128,5.96082101 C5.63235504,6.26004651 6.04927133,6.4659629 6.44069322,6.58085254 C6.70565761,6.65862455 6.85740702,6.93646729 6.77963502,7.20143167 C6.70186302,7.46639606 6.42402028,7.61814547 6.15905589,7.54037347 C5.52564137,7.35445447 4.87089571,6.99676617 4.19135884,6.47054821 C4.16328571,6.47825462 4.13439275,6.48448127 4.10510493,6.48942854 C4.1652731,6.8410889 4.52554104,7.17302155 5.1843814,7.48274232 C4.37072108,9.04844204 3.89934688,9.8312919 3.77025881,9.8312919 C3.64117073,9.8312919 3.14391291,9.04844204 2.27848535,7.48274232 C2.87229991,7.26209507 3.27947146,6.89333599 3.5,6.37646508 L3.44520246,6.49149773 C3.39693031,6.48398617 3.34970707,6.47300619 3.30382068,6.4587994 C2.61836721,6.99076921 1.95796391,7.35289904 1.31925015,7.54037347 C1.05428577,7.61814547 0.776443025,7.46639606 0.698671023,7.20143167 C0.62089902,6.93646729 0.772648431,6.65862455 1.03761282,6.58085254 C1.43197332,6.46510036 1.85221245,6.25694955 2.29671942,5.95489194 C1.95285615,6.00908942 1.69462636,6.05517787 1.52022614,6.09246688 C1.08246143,6.1860666 0.385651086,6.80332303 0.385651086,6.30124608 C0.385651086,5.79916913 0.677736536,5.64902774 1.219726,5.42208597 C1.76171546,5.1951442 2.03186611,5.28614283 2.37657952,5.26242018 C2.42748656,5.25891684 2.48117234,5.25359189 2.53763684,5.24644534 L2.52126006,5.15094175 L2.52126006,5.15094175 L2.37657944,5.13699805 C2.03186602,5.1132754 1.76171537,5.20427403 1.21972591,4.97733226 C0.677736451,4.7503905 0.385651,4.60024911 0.385651,4.09817215 C0.385651,3.5960952 1.08246135,4.21335163 1.52022605,4.30695136 C1.7120999,4.34797645 2.00544306,4.39965259 2.40025554,4.46197978 L2.39241905,4.42220517 C2.3254162,4.38115245 2.2645965,4.33513524 2.20995995,4.28415354 C1.83530933,3.93456474 1.57472169,4.07058693 1.03273223,3.84364516 C0.49074277,3.61670339 0.164355449,3.17326425 0.164355449,2.6711873 C0.164355449,2.16911035 0.831155421,2.94214473 1.33323237,3.17326425 C1.68584044,3.33557923 2.05397637,3.43345415 2.27928057,3.55176787 L2.28659111,3.49511828 C2.22597329,3.44764886 2.17559733,3.39265759 2.13546324,3.33014447 C1.86868357,2.91460679 1.51036624,2.76569957 0.968376781,2.5387578 C0.426387321,2.31181603 0.1,1.86837689 0.1,1.36629994 C0.1,0.864222986 0.766799971,1.63725737 1.26887692,1.86837689 C1.77095388,2.09949642 2.15694885,2.29838753 2.40224291,2.76569957 C2.44843765,2.8537056 2.49537455,2.92256622 2.54305361,2.97228143 C2.60349041,2.90252586 2.67524233,2.8437545 2.75480835,2.79553682 C2.65178447,2.04820716 2.47678246,1.67216741 2.31128691,1.64137754 C2.03980304,1.59086891 1.86066722,1.32984242 1.91117584,1.05835856 C1.96168447,0.786874689 2.22271096,0.607738862 2.49419483,0.658247489 C3.16281453,0.782641853 3.54226823,1.40346993 3.72058345,2.49075896 C3.89819385,1.40346993 4.27764754,0.782641853 4.94626725,0.658247489 Z" id="Combined-Shape"></path>
                </g>
            </g>
        </g>
    </g>
</svg>