<?xml version="1.0" encoding="UTF-8"?>
<svg width="16px" height="12px" viewBox="0 0 16 12" version="1.1" xmlns="http://www.w3.org/2000/svg" xmlns:xlink="http://www.w3.org/1999/xlink">
    <title>flags/S/AS - American Samoa</title>
    <defs>
        <rect id="path-1" x="0" y="0" width="16" height="12"></rect>
    </defs>
    <g id="Symbols" stroke="none" stroke-width="1" fill="none" fill-rule="evenodd">
        <g id="flag">
            <mask id="mask-2" fill="white">
                <use xlink:href="#path-1"></use>
            </mask>
            <g id="mask"></g>
            <g id="contents" mask="url(#mask-2)">
                <polygon id="middle" fill="#F7FCFF" points="0 0 16 0 16 12 0 12"></polygon>
                <path d="M-0.5,5.27849977 L18.757334,12.5 L-0.5,12.5 L-0.5,5.27849977 Z M18.757334,-0.5 L-0.5,6.72150023 L-0.5,-0.5 L18.757334,-0.5 Z" id="blue" stroke="#E31D1C" fill="#3547A0"></path>
                <g id="mark" transform="translate(8.500000, 3.000000)">
                    <path d="M5.54477814,0.0136226378 C2.8570226,0.711482711 1.51314483,1.11410317 1.51314483,1.22148402 C1.51314483,1.3825553 1.15041379,1.89289891 1.22469403,2.02612245 C1.29897428,2.159346 1.49188283,2.33590061 1.65029233,2.2476233 C1.80870184,2.159346 2.18500006,1.8046216 2.05872364,2.02612245 C1.93244723,2.2476233 2.73770012,2.50515912 2.39821188,2.99433236 C2.67008535,2.83760621 2.74021529,3.20488108 2.6086017,4.09615699 L3.57943287,4.37285073 C4.30227463,4.18333332 4.49872001,3.81739342 4.16876899,3.27503101 L4.743478,3.27503101 C4.58472593,2.57219573 4.62265766,2.15589288 4.8572732,2.02612245 C5.09188873,1.89635203 4.97232267,1.78214761 4.498575,1.68350922 C5.50016618,1.11333621 5.84890056,0.556707352 5.54477814,0.0136226378 Z" id="Path-2" fill="#C44800"></path>
                    <polygon id="Path-3" fill="#FFC221" points="4.87736758 4.48523469 2.44372102 4.07393967 2.12491311 3.6472774 0.743245506 3.92547623 1.9561594 4.61259114 2.36387542 4.39315102 4.87736758 4.79444423"></polygon>
                    <path d="M5.25120747,4.85940827 L5.25120747,4.61830262 L2.52253637,4.45227444 C2.41285838,4.35076018 2.22273763,4.30000305 1.95217412,4.30000305 C1.68161062,4.30000305 1.53088591,4.40610291 1.5,4.61830262 C1.6551265,4.92756095 1.88310266,5.08219012 2.18392849,5.08219012 C2.63516723,5.08219012 3.33686796,5.19057348 3.52691535,5.4136895 C3.6536136,5.56243352 3.97947463,5.52422643 4.50449841,5.29906824 C4.28015373,4.91319702 4.02406111,4.78058286 3.73622057,4.90122576 C3.30445976,5.08219012 2.52253637,4.8135709 2.52253637,4.71593676 C2.52253637,4.65084733 3.4320934,4.69867117 5.25120747,4.85940827 Z" id="Path-4" fill="#FFC221"></path>
                    <path d="M0.642716149,2.90710918 C0.466373003,3.28506372 0.410213559,3.54549811 0.474237818,3.68841234 C0.755901281,3.98254484 1.15273858,3.89533482 1.6647497,3.4267823 L0.642716149,2.90710918 Z" id="Path-6" fill="#FFC221"></path>
                    <path d="M4.78239314,1.86548534 C2.66148011,1.84602062 1.45481215,2.05810673 1.16238926,2.50174365 C0.869966374,2.94538058 0.890077614,3.24406352 1.22272298,3.39779247 C2.35368075,2.80770022 3.51258896,2.66017715 4.69944761,2.95522328 C4.89158535,2.85639702 4.98765421,2.67699059 4.98765421,2.417004 C4.98765421,2.1570174 4.91923386,1.99419465 4.78239314,1.92853573 L4.78239314,1.86548534 Z M5.23765421,2.417004 C5.23765421,2.76578826 5.09447528,3.03317167 4.81379612,3.17753931 L4.63913478,3.19783895 C3.51222586,2.91769597 2.4158178,3.05726309 1.33836869,3.61943649 L1.11784579,3.62473029 C0.61938132,3.39436959 0.587424915,2.91976766 0.953655297,2.36415684 C1.31580309,1.81473975 2.56529218,1.59512732 4.78468743,1.61549586 L5.03239314,1.61776919 L5.03239314,1.80080929 C5.17376083,1.93639313 5.23765421,2.14850946 5.23765421,2.417004 Z" id="Path-5" fill="#979797" fill-rule="nonzero"></path>
                    <path d="M4.78239314,1.86548534 C2.66148011,1.84602062 1.45481215,2.05810673 1.16238926,2.50174365 C0.869966374,2.94538058 0.890077614,3.24406352 1.22272298,3.39779247 C2.35368075,2.80770022 3.51258896,2.66017715 4.69944761,2.95522328 C4.89158535,2.85639702 4.98765421,2.67699059 4.98765421,2.417004 C4.98765421,2.1570174 4.91923386,1.99419465 4.78239314,1.92853573 L4.78239314,1.86548534 Z" id="Path-5" fill="#F7FCFF" fill-rule="nonzero"></path>
                </g>
            </g>
        </g>
    </g>
</svg>