<?xml version="1.0" encoding="UTF-8"?>
<svg width="16px" height="12px" viewBox="0 0 16 12" version="1.1" xmlns="http://www.w3.org/2000/svg" xmlns:xlink="http://www.w3.org/1999/xlink">
    <title>flags/S/BA - Bosnia and Herzegovina</title>
    <defs>
        <rect id="path-1" x="0" y="0" width="17" height="12"></rect>
    </defs>
    <g id="Symbols" stroke="none" stroke-width="1" fill="none" fill-rule="evenodd">
        <g id="flag">
            <mask id="mask-2" fill="white">
                <use xlink:href="#path-1"></use>
            </mask>
            <g id="mask"></g>
            <g id="contents" mask="url(#mask-2)">
                <g transform="translate(0.000000, -1.000000)">
                    <polygon id="background" fill="#2E42A5" points="0 1 16 1 16 13 0 13"></polygon>
                    <polygon id="middle" fill="#FECA00" points="5 1 15 1 15 13"></polygon>
                    <g id="mark" stroke-width="1" fill="none" transform="translate(2.000000, 0.000000)">
                        <polygon id="Star-3" fill="#F7FCFF" points="1.55401656 2.39688966 0.966231312 2.70590665 1.07848831 2.05139816 0.602960048 1.58787267 1.26012394 1.49238116 1.55401656 0.89688966 1.84790919 1.49238116 2.50507308 1.58787267 2.02954482 2.05139816 2.14180182 2.70590665"></polygon>
                        <polygon id="Star-3" fill="#F7FCFF" points="3.29736001 4.53695808 2.70957476 4.84597508 2.82183176 4.19146658 2.3463035 3.72794109 3.00346739 3.63244958 3.29736001 3.03695808 3.59125264 3.63244958 4.24841653 3.72794109 3.77288827 4.19146658 3.88514527 4.84597508"></polygon>
                        <polygon id="Star-3" fill="#F7FCFF" points="4.93170718 6.6192237 4.34392193 6.9282407 4.45617892 6.2737322 3.98065066 5.81020671 4.63781455 5.7147152 4.93170718 5.1192237 5.22559981 5.7147152 5.8827637 5.81020671 5.40723544 6.2737322 5.51949243 6.9282407"></polygon>
                        <polygon id="Star-3" fill="#F7FCFF" points="6.5326842 8.61462456 5.94489895 8.92364155 6.05715594 8.26913306 5.58162768 7.80560756 6.23879157 7.71011606 6.5326842 7.11462456 6.82657683 7.71011606 7.48374072 7.80560756 7.00821246 8.26913306 7.12046945 8.92364155"></polygon>
                        <polygon id="Star-3" fill="#F7FCFF" points="8.25721471 10.6683902 7.66942946 10.9774072 7.78168645 10.3228987 7.30615819 9.85937319 7.96332208 9.76388169 8.25721471 9.16839019 8.55110734 9.76388169 9.20827123 9.85937319 8.73274297 10.3228987 8.84499996 10.9774072"></polygon>
                        <polygon id="Star-3" fill="#F7FCFF" points="10.1634226 12.655522 9.57563738 12.964539 9.68789437 12.3100305 9.21236612 11.846505 9.86953001 11.7510135 10.1634226 11.155522 10.4573153 11.7510135 11.1144791 11.846505 10.6389509 12.3100305 10.7512079 12.964539"></polygon>
                    </g>
                </g>
            </g>
        </g>
    </g>
</svg>