<?xml version="1.0" encoding="UTF-8"?>
<svg width="16px" height="12px" viewBox="0 0 16 12" version="1.1" xmlns="http://www.w3.org/2000/svg" xmlns:xlink="http://www.w3.org/1999/xlink">
    <title>flags/S/BN - Brunei Darussalam</title>
    <defs>
        <rect id="path-1" x="0" y="0" width="16" height="12"></rect>
        <rect id="path-3" x="0" y="0" width="16" height="12"></rect>
    </defs>
    <g id="Symbols" stroke="none" stroke-width="1" fill="none" fill-rule="evenodd">
        <g id="flag">
            <mask id="mask-2" fill="white">
                <use xlink:href="#path-1"></use>
            </mask>
            <g id="mask"></g>
            <g id="contents" mask="url(#mask-2)">
                <mask id="mask-4" fill="white">
                    <use xlink:href="#path-3"></use>
                </mask>
                <use id="background" fill="#FFD221" xlink:href="#path-3"></use>
                <polygon id="Path-10" fill="#313131" fill-rule="nonzero" mask="url(#mask-4)" points="-1.53349166 5.30761186 -0.52949662 3.01807174 16.8838335 10.6540581 15.8798384 12.9435982"></polygon>
                <polygon id="Path-10" fill="#FAF9F9" fill-rule="nonzero" mask="url(#mask-4)" points="-1.50862301 2.7847549 -0.505048862 0.495030258 17.774248 8.50674901 16.7706739 10.7964736"></polygon>
                <g id="mark" mask="url(#mask-4)" fill="#CF1225" fill-rule="nonzero">
                    <g transform="translate(2.000000, 1.000000)" id="Combined-Shape">
                        <path d="M3.69701841,7.6566779 C4.16001333,8.33622002 4.90793782,8.67745676 6,8.67745676 C7.09920365,8.67745676 7.7928254,8.41179181 8.13314253,7.91879103 L8.95610824,8.48688207 C8.39938839,9.2933749 7.39659321,9.67745676 6,9.67745676 C4.59626532,9.67745676 3.53339753,9.19252874 2.87060474,8.21974135 L3.69701841,7.6566779 Z M6,0.443670013 C6.27614237,0.443670013 6.5,0.667527639 6.5,0.943670013 L6.49962668,2.70086739 C6.6677451,2.63362246 6.84589131,2.6 7.0340653,2.6 C7.39995918,2.6 7.78860408,2.85599276 8.2,3.36797829 C7.52602605,3.38630317 6.9593103,3.61451334 6.49985275,4.0526088 L6.50053716,6.95449086 C7.41270059,6.74282739 7.83106349,5.85314193 7.78354485,4.0194289 L9.28304146,3.9805711 C9.35760951,6.85810293 8.25564158,8.50510947 6.02085007,8.50510947 C3.77448249,8.50510947 2.70946113,6.84297754 2.86584079,3.95938652 L4.3636399,4.04061348 C4.26623952,5.83664551 4.63694637,6.71538545 5.50000483,6.9435637 L5.50068569,4.15363229 C5.02422899,3.64954802 4.42400043,3.38766335 3.7,3.36797829 C4.11139592,2.85599276 4.50004082,2.6 4.8659347,2.6 C5.09192798,2.6 5.30345764,2.64849549 5.50052368,2.74548647 L5.5,0.943670013 C5.5,0.667527639 5.72385763,0.443670013 6,0.443670013 Z M1.08999083,3.50816502 C2.08895946,3.69094586 2.63202366,4.38590998 2.63202366,5.44866083 L2.63202366,7.47401009 C2.63202366,7.75015247 2.40816603,7.97401009 2.13202366,7.97401009 C1.85588128,7.97401009 1.63202366,7.75015247 1.63202366,7.47401009 L1.63202366,5.44866083 C1.63202366,4.85603172 1.42040542,4.58522195 0.910009174,4.49183498 C0.638376213,4.44213442 0.458464456,4.18164214 0.508165016,3.91000917 C0.557865577,3.63837621 0.818357865,3.45846446 1.08999083,3.50816502 Z M10.9419455,3.50816502 C11.2135785,3.45846446 11.4740708,3.63837621 11.5237713,3.91000917 C11.5734719,4.18164214 11.3935601,4.44213442 11.1219272,4.49183498 C10.6115309,4.58522195 10.3999127,4.85603172 10.3999127,5.44866083 L10.3999127,5.44866083 L10.3999127,7.47401009 C10.3999127,7.75015247 10.176055,7.97401009 9.89991267,7.97401009 C9.6237703,7.97401009 9.39991267,7.75015247 9.39991267,7.47401009 L9.39991267,7.47401009 L9.39991267,5.44866083 C9.39991267,4.38590998 9.94297687,3.69094586 10.9419455,3.50816502 Z"></path>
                    </g>
                </g>
            </g>
        </g>
    </g>
</svg>