<?xml version="1.0" encoding="UTF-8"?>
<svg width="16px" height="12px" viewBox="0 0 16 12" version="1.1" xmlns="http://www.w3.org/2000/svg" xmlns:xlink="http://www.w3.org/1999/xlink">
    <title>flags/S/CC - Cocos (Keeling) Islands</title>
    <defs>
        <rect id="path-1" x="0" y="0" width="16" height="12"></rect>
    </defs>
    <g id="Symbols" stroke="none" stroke-width="1" fill="none" fill-rule="evenodd">
        <g id="flag">
            <mask id="mask-2" fill="white">
                <use xlink:href="#path-1"></use>
            </mask>
            <g id="mask"></g>
            <g id="contents" mask="url(#mask-2)">
                <polygon id="green" fill="#5EAA22" points="0 0 16 0 16 12 0 12"></polygon>
                <g id="mark-3" transform="translate(10.000000, 2.000000)" fill="#FECA00">
                    <polygon id="Star-7" points="2 1.5 1.5 1.8660254 1.5669873 1.25 1 1 1.5669873 0.75 1.5 0.133974596 2 0.5 2.5 0.133974596 2.4330127 0.75 3 1 2.4330127 1.25 2.5 1.8660254"></polygon>
                    <polygon id="Star-7" points="1.48139546 4.83933351 0.981395459 5.20535892 1.04838276 4.58933351 0.481395459 4.33933351 1.04838276 4.08933351 0.981395459 3.47330811 1.48139546 3.83933351 1.98139546 3.47330811 1.91440816 4.08933351 2.48139546 4.33933351 1.91440816 4.58933351 1.98139546 5.20535892"></polygon>
                    <polygon id="Star-7" points="3 7.5 2.5 7.8660254 2.5669873 7.25 2 7 2.5669873 6.75 2.5 6.1339746 3 6.5 3.5 6.1339746 3.4330127 6.75 4 7 3.4330127 7.25 3.5 7.8660254"></polygon>
                    <polygon id="Star-7" points="3.5 2.75 3.25 2.9330127 3.28349365 2.625 3 2.5 3.28349365 2.375 3.25 2.0669873 3.5 2.25 3.75 2.0669873 3.71650635 2.375 4 2.5 3.71650635 2.625 3.75 2.9330127"></polygon>
                </g>
                <g id="mark-2" transform="translate(1.000000, 2.000000)">
                    <circle id="Oval-13" fill="#FECA00" cx="2.5" cy="2.5" r="2.5"></circle>
                    <path d="M2.24473202,3.99372809 L2.06532244,3.86733377 C2.46218989,3.34740329 2.35725013,2.62080758 2.24473202,2.14330457 L2.9747388,1.97128683 C3.14232681,2.68249481 2.7702713,3.30522646 2.24473202,3.99372809 Z" id="Path-13" fill="#915E2B" fill-rule="nonzero"></path>
                </g>
                <g id="mark-1" transform="translate(6.000000, 4.000000)" fill="#FECA00">
                    <path d="M2.39679404,0.5 C3.19553963,0.5 3.83295555,0.779279105 4.12578388,1.53981407 C3.89366624,1.31114329 3.53546031,1.15410019 3,1.17403892 C2.17157288,1.17403892 1.6326716,1.8194286 1.6326716,2.37171335 C1.6326716,2.9239981 2.17157288,3.67474202 3,3.67474202 C3.41731712,3.66849542 3.72541213,3.59207944 3.94991156,3.47192587 C3.61964743,4.03731592 3.09671754,4.29358807 2.39679404,4.29358807 C1.34922362,4.29358807 0.5,3.44436445 0.5,2.39679404 C0.5,1.34922362 1.34922362,0.5 2.39679404,0.5 Z" id="Oval-13"></path>
                </g>
                <path d="M3.5,4.36976489 C4.32842712,4.36976489 4.85650328,4.14590727 4.85650328,3.86976489 C4.85650328,3.59362252 4.32842712,3.36976489 3.5,3.36976489 C2.67157288,3.36976489 2.24217941,3.59362252 2.24217941,3.86976489 C2.24217941,4.14590727 2.67157288,4.36976489 3.5,4.36976489 Z" id="Oval-14" fill="#5EAA22"></path>
            </g>
        </g>
    </g>
</svg>