<?xml version="1.0" encoding="UTF-8"?>
<svg width="16px" height="12px" viewBox="0 0 16 12" version="1.1" xmlns="http://www.w3.org/2000/svg" xmlns:xlink="http://www.w3.org/1999/xlink">
    <title>flags/S/CN - China</title>
    <defs>
        <rect id="path-1" x="0" y="0" width="16" height="12"></rect>
    </defs>
    <g id="Symbols" stroke="none" stroke-width="1" fill="none" fill-rule="evenodd">
        <g id="flag">
            <mask id="mask-2" fill="white">
                <use xlink:href="#path-1"></use>
            </mask>
            <g id="mask"></g>
            <g id="contents" mask="url(#mask-2)">
                <polygon id="background" fill="#E31D1C" points="0 0 16 0 16 12 0 12"></polygon>
                <g id="mark" transform="translate(1.000000, 0.000000)" fill="#FECA00">
                    <polygon id="Star-5" points="2.55695728 4.87764143 0.610307025 6.4033588 1.35363805 4.09605308 0.0554619438 2.89628875 1.8132651 2.83141656 2.55695728 0.974204128 3.30064946 2.83141656 5.05546194 2.83141656 3.7602765 4.09605308 4.35029334 6.4033588"></polygon>
                    <polygon id="Star-5" points="6.50815689 3.08593553 5.69129709 3.57907261 5.87761764 2.61676485 5.19737339 1.89657213 6.1184622 1.85763075 6.50815689 0.959072726 6.89785157 1.85763075 7.81737327 1.85763075 7.13869613 2.61676485 7.34301817 3.57907261"></polygon>
                    <polygon id="Star-5" points="7.50815689 5.08593553 6.69129709 5.57907261 6.87761764 4.61676485 6.19737339 3.89657213 7.1184622 3.85763075 7.50815689 2.95907273 7.89785157 3.85763075 8.81737327 3.85763075 8.13869613 4.61676485 8.34301817 5.57907261"></polygon>
                    <polygon id="Star-5" points="6.50815689 7.08593553 5.69129709 7.57907261 5.87761764 6.61676485 5.19737339 5.89657213 6.1184622 5.85763075 6.50815689 4.95907273 6.89785157 5.85763075 7.81737327 5.85763075 7.13869613 6.61676485 7.34301817 7.57907261"></polygon>
                    <polygon id="Star-5" points="4.50815689 8.08593553 3.69129709 8.57907261 3.87761764 7.61676485 3.19737339 6.89657213 4.1184622 6.85763075 4.50815689 5.95907273 4.89785157 6.85763075 5.81737327 6.85763075 5.13869613 7.61676485 5.34301817 8.57907261"></polygon>
                </g>
            </g>
        </g>
    </g>
</svg>