<?xml version="1.0" encoding="UTF-8"?>
<svg width="16px" height="12px" viewBox="0 0 16 12" version="1.1" xmlns="http://www.w3.org/2000/svg" xmlns:xlink="http://www.w3.org/1999/xlink">
    <title>flags/S/CX - Christmas Island</title>
    <defs>
        <rect id="path-1" x="0" y="0" width="16" height="12"></rect>
    </defs>
    <g id="Symbols" stroke="none" stroke-width="1" fill="none" fill-rule="evenodd">
        <g id="flag">
            <mask id="mask-2" fill="white">
                <use xlink:href="#path-1"></use>
            </mask>
            <g id="mask"></g>
            <g id="contents" mask="url(#mask-2)">
                <polygon id="green" fill="#5EAA22" points="0 0 16 0 16 12 0 12"></polygon>
                <polygon id="blue" fill="#4141DB" points="0 0 16 12 0 12"></polygon>
                <g id="mark-3" transform="translate(1.000000, 3.000000)" fill="#FFFFFF">
                    <polygon id="Star-7" points="2 1.5 1.5 1.8660254 1.5669873 1.25 1 1 1.5669873 0.75 1.5 0.133974596 2 0.5 2.5 0.133974596 2.4330127 0.75 3 1 2.4330127 1.25 2.5 1.8660254"></polygon>
                    <polygon id="Star-7" points="1 4.5 0.5 4.8660254 0.566987298 4.25 0 4 0.566987298 3.75 0.5 3.1339746 1 3.5 1.5 3.1339746 1.4330127 3.75 2 4 1.4330127 4.25 1.5 4.8660254"></polygon>
                    <polygon id="Star-7" points="3 7.5 2.5 7.8660254 2.5669873 7.25 2 7 2.5669873 6.75 2.5 6.1339746 3 6.5 3.5 6.1339746 3.4330127 6.75 4 7 3.4330127 7.25 3.5 7.8660254"></polygon>
                    <polygon id="Star-7" points="3.5 2.75 3.25 2.9330127 3.28349365 2.625 3 2.5 3.28349365 2.375 3.25 2.0669873 3.5 2.25 3.75 2.0669873 3.71650635 2.375 4 2.5 3.71650635 2.625 3.75 2.9330127"></polygon>
                </g>
                <g id="mark-2" transform="translate(10.000000, 1.000000)" fill="#FECA00">
                    <path d="M0.780542451,5.11196078 C0.593637187,4.9169728 2.27565187,4.45882049 2.45000384,3.86805288 C2.68103696,3.35370931 2.5266907,2.93693401 1.65361658,2.57090838 C0.780542451,2.20488275 -0.101821556,1.49714408 0.912805523,1.49714408 C1.9274326,1.49714408 1.9274326,1.64181087 2.20001167,2.06856073 C2.47259074,2.4953106 3.06174169,2.58672551 3.07423408,2.06856073 C3.07423408,1.18566254 3.15756567,1.06691594 2.4448235,0.29933113 C1.73208132,-0.468253681 4.2320638,0.614546276 4.02544154,1.93044275 C3.81881928,3.24633923 3.57003266,2.82172942 3.72795354,3.04262428 C3.88587442,3.26351915 4.83610208,2.57781748 4.71744887,3.49122359 C4.3850152,4.01654695 3.72570001,4.79817261 0.780542451,5.11196078 Z" id="Path-12"></path>
                </g>
                <g id="mark-1" transform="translate(5.000000, 3.000000)">
                    <circle id="Oval-13" fill="#FECA00" cx="3" cy="3" r="2.5"></circle>
                    <path d="M1.47648364,2.0810194 C1.76005563,2.01779286 2.14782002,2.77714401 2.8476816,2.49234155 C3.54754317,2.20753908 3.69370052,1.6638041 4.02623162,1.86280624 C4.35876273,2.06180839 4.40240765,2.54095174 4.18089167,2.78177197 C3.9593757,3.0225922 3.58347395,3.07955935 3.58347395,3.38393907 C3.58347395,3.68831879 3.509761,4.77375778 3.36610647,4.45918989 C2.93531429,4.10966263 3.1981438,3.55294273 2.66751344,3.38393907 C2.13688307,3.21493541 1.81460321,3.2205955 1.42317032,3.29191265 C1.03173743,3.36322979 1.68613697,3.09600691 1.82492302,2.84230165 C2.10750075,2.57045081 1.34681742,2.17141439 1.47648364,2.0810194 Z" id="Path-11" fill="#548650"></path>
                </g>
            </g>
        </g>
    </g>
</svg>