<?xml version="1.0" encoding="UTF-8"?>
<svg width="16px" height="12px" viewBox="0 0 16 12" version="1.1" xmlns="http://www.w3.org/2000/svg" xmlns:xlink="http://www.w3.org/1999/xlink">
    <title>flags/S/CY - Cyprus</title>
    <defs>
        <rect id="path-1" x="0" y="0" width="16" height="12"></rect>
        <rect id="path-3" x="0" y="0" width="16" height="12"></rect>
        <linearGradient x1="50%" y1="100%" x2="50%" y2="0%" id="linearGradient-5">
            <stop stop-color="#EA5113" offset="0%"></stop>
            <stop stop-color="#FC9B58" offset="100%"></stop>
        </linearGradient>
        <path d="M10.28365,1.3796 C10.28365,1.3796 7.642596,2.838616 7.310121,2.930936 C6.977711,3.023224 7.199491,3.07868 6.626828,3.041776 C6.05436,3.004832 4.92778,3.247752 4.669249,3.081536 C4.410653,2.915208 4.318301,2.619768 4.299958,3.11852 C4.281433,3.617048 4.687917,4.041832 4.170608,4.078816 C3.653676,4.115688 3.59814,3.6354 3.247387,3.931072 C2.896439,4.22644 2.60091,4.891376 2.379195,4.72516 C2.15761,4.558832 1.843738,4.115688 1.93609,4.540472 C2.028247,4.965184 2.305316,6.034984 3.191838,6.053496 C4.078438,6.07204 4.26296,5.758016 4.299958,6.016624 C4.336774,6.275088 4.72472,6.311992 4.816955,5.979568 C4.909437,5.647144 5.666609,6.350312 6.072898,5.999408 C6.479122,5.648584 6.811532,5.353032 6.94096,5.149872 C7.070128,4.946712 7.513428,4.983736 7.93819,4.983736 C8.362952,4.983736 8.990696,5.168344 8.658286,4.762144 C8.326071,4.355672 7.753421,4.171104 8.086013,3.764784 C8.418241,3.358512 11.239514,2.007552 11.368877,1.859768 C11.498045,1.712032 10.671414,1.158008 10.28365,1.3796 Z" id="path-6"></path>
        <linearGradient x1="50%" y1="100%" x2="50%" y2="0%" id="linearGradient-7">
            <stop stop-color="#008057" offset="0%"></stop>
            <stop stop-color="#00B77C" offset="100%"></stop>
        </linearGradient>
        <path d="M8.6243,7.05207 C9.93553,7.05207 7.67953,9.175975 6.2206,9.175975 C6.2206,9.175975 6.07057097,9.16231023 5.94633672,9.09984417 C5.82227903,9.16231023 5.67225,9.175975 5.67225,9.175975 C4.21325,9.175975 2.14472,7.05207 3.45608,7.05207 C4.76718,7.05207 5.89383,8.51112 5.89383,8.51112 C5.91395161,8.53123855 5.93244603,8.55075786 5.94940075,8.56969541 L5.99902,8.51112 L5.99902,8.51112 L6.0279637,8.47994116 C6.22753864,8.26840469 7.42714478,7.05207 8.6243,7.05207 Z" id="path-8"></path>
    </defs>
    <g id="Symbols" stroke="none" stroke-width="1" fill="none" fill-rule="evenodd">
        <g id="flag">
            <mask id="mask-2" fill="white">
                <use xlink:href="#path-1"></use>
            </mask>
            <g id="mask"></g>
            <g id="contents" mask="url(#mask-2)">
                <mask id="mask-4" fill="white">
                    <use xlink:href="#path-3"></use>
                </mask>
                <use id="background" fill="#F7FCFF" xlink:href="#path-3"></use>
                <g id="mark" mask="url(#mask-4)">
                    <g transform="translate(2.000000, 1.000000)">
                        <g id="fish/guitar">
                            <use fill="#F57A01" xlink:href="#path-6"></use>
                            <use fill="url(#linearGradient-5)" xlink:href="#path-6"></use>
                        </g>
                        <g id="Combined-shape-1267">
                            <use fill="#006B49" xlink:href="#path-8"></use>
                            <use fill="url(#linearGradient-7)" xlink:href="#path-8"></use>
                        </g>
                    </g>
                </g>
            </g>
        </g>
    </g>
</svg>