<?xml version="1.0" encoding="UTF-8"?>
<svg width="16px" height="12px" viewBox="0 0 16 12" version="1.1" xmlns="http://www.w3.org/2000/svg" xmlns:xlink="http://www.w3.org/1999/xlink">
    <title>flags/S/DM - Dominica</title>
    <defs>
        <rect id="path-1" x="0" y="0" width="16" height="12"></rect>
        <rect id="path-3" x="0" y="0" width="16" height="12"></rect>
    </defs>
    <g id="Symbols" stroke="none" stroke-width="1" fill="none" fill-rule="evenodd">
        <g id="flag">
            <mask id="mask-2" fill="white">
                <use xlink:href="#path-1"></use>
            </mask>
            <g id="mask"></g>
            <g id="contents" mask="url(#mask-2)">
                <mask id="mask-4" fill="white">
                    <use xlink:href="#path-3"></use>
                </mask>
                <use id="background" fill="#279E19" xlink:href="#path-3"></use>
                <g id="mark" mask="url(#mask-4)">
                    <polygon id="cross-white" fill="#F7FCFF" points="8 0 9 0 9 7 16 7 16 8 9 8 9 12 8 12 8 8 0 8 0 7 8 7"></polygon>
                    <polygon id="cross-black" fill="#272727" points="7 0 8 0 8 6 16 6 16 7 8 7 8 12 7 12 7 7 0 7 0 6 7 6"></polygon>
                    <polygon id="cross-yellow" fill="#FECA00" points="6 0 7 0 7 5 16 5 16 6 7 6 7 12 6 12 6 6 0 6 0 5 6 5"></polygon>
                    <circle id="Oval-16" fill="#C51918" cx="8" cy="6" r="4"></circle>
                    <g id="mark-3" transform="translate(3.599976, 1.800003)">
                        <path d="M3.76298145,2.40647436 C3.8896274,1.99549793 4.10005481,1.89616778 4.39426368,2.10848389 C5.08629739,2.44933255 5.31455506,2.84091774 5.58172545,3.28437395 C5.84889584,3.72783016 4.92667584,3.40305332 4.75463172,3.15346739 C4.5825876,2.90388146 3.62826178,2.82295512 3.76298145,2.61471474 C3.85279457,2.47588782 3.85279457,2.40647436 3.76298145,2.40647436 Z" id="Path-16" fill="#804BFF"></path>
                        <path d="M3.60657263,5.56272139 C3.29334229,5.99121925 3.29334229,6.20546818 3.60657263,6.20546818 C4.07641813,6.20546818 5.98126928,6.06718749 5.75295488,5.88409479 C5.60074528,5.76203298 4.96053847,5.76203298 3.83233444,5.88409479 L3.60657263,5.56272139 Z" id="Path-20" fill="#A95601"></path>
                        <path d="M4.30904356,5.5424898 C4.26031758,5.48753048 3.40423785,3.54492001 3.80227068,3.14117065 C4.20030351,2.7374213 4.43355291,2.97466949 4.43355291,3.58008894 C4.43355291,4.18550838 4.45747724,5.69208376 4.30904356,5.5424898 Z" id="Path-17" fill="#804BFF"></path>
                        <path d="M4.25867258,5.22723 C4.22573481,5.54202761 4.29021117,5.88317039 4.45210168,6.25065836 C4.69493744,6.80189031 5.18543051,6.79126813 5.18543051,6.34009332 C5.18543051,5.88891851 5.54341615,6.31232708 5.68085858,6.61344033 C5.81830101,6.91455357 5.46235744,3.93959351 4.95722956,3.27403104 C4.45210168,2.60846857 3.96472843,2.56573643 4.11170051,2.99583097 C4.20968189,3.28256066 4.25867258,4.02636034 4.25867258,5.22723 Z" id="Path-18" fill="#279E19"></path>
                        <path d="M3.96367959,2 C3.82122653,2.09134677 3.75,2.26282154 3.75,2.51442433 C3.75,2.76602711 3.91864067,2.72707658 4.25592202,2.39757273 L3.96367959,2 Z" id="Path-19" fill="#FECA00"></path>
                        <path d="M4.45001221,6.3999939 L4.67043168,6.84661252 L5.16330459,6.91823115 L4.8066584,7.26587527 L4.89085115,7.75675664 L4.45001221,7.5249939 L4.00917327,7.75675664 L4.09336601,7.26587527 L3.73671982,6.91823115 L4.22959274,6.84661252 L4.45001221,6.3999939 Z M2.80932093,5.65832865 L2.81164792,6.15637235 L3.22324362,6.43680401 L2.750295,6.59292107 L2.61077871,7.07103 L2.31615339,6.66947195 L1.81833188,6.68452786 L2.10919205,6.28023427 L1.94103772,5.81143041 L2.41542451,5.96312128 L2.80932093,5.65832865 Z M6.93709556,5.51731513 L6.93942254,6.01535883 L7.35101825,6.29579049 L6.87806962,6.45190755 L6.73855333,6.93001648 L6.44392802,6.52845843 L5.9461065,6.54351434 L6.23696667,6.13922075 L6.06881235,5.67041689 L6.54319913,5.82210776 L6.93709556,5.51731513 Z M7.25,3.59999084 L7.47041947,4.04660947 L7.96329239,4.1182281 L7.60664619,4.46587222 L7.69083894,4.95675359 L7.25,4.72499084 L6.80916106,4.95675359 L6.89335381,4.46587222 L6.53670761,4.1182281 L7.02958053,4.04660947 L7.25,3.59999084 Z M1.55004883,3.59999084 L1.7704683,4.04660947 L2.26334122,4.1182281 L1.90669502,4.46587222 L1.99088777,4.95675359 L1.55004883,4.72499084 L1.10920989,4.95675359 L1.19340263,4.46587222 L0.836756441,4.1182281 L1.32962936,4.04660947 L1.55004883,3.59999084 Z M2.69299513,1.61639882 L2.69532211,2.11444252 L3.10691782,2.39487418 L2.63396919,2.55099124 L2.4944529,3.02910017 L2.19982759,2.62754212 L1.70200607,2.64259803 L1.99286624,2.23830444 L1.82471192,1.76950058 L2.2990987,1.92119145 L2.69299513,1.61639882 Z M6.86797688,1.55812691 L6.87030387,2.05617061 L7.28189957,2.33660227 L6.80895094,2.49271934 L6.66943465,2.97082826 L6.37480934,2.56927021 L5.87698782,2.58432612 L6.16784799,2.18003253 L5.99969367,1.71122867 L6.47408045,1.86291954 L6.86797688,1.55812691 Z M4.45001221,0.5 L4.67043168,0.946618627 L5.16330459,1.01823725 L4.8066584,1.36588137 L4.89085115,1.85676275 L4.45001221,1.625 L4.00917327,1.85676275 L4.09336601,1.36588137 L3.73671982,1.01823725 L4.22959274,0.946618627 L4.45001221,0.5 Z" id="Combined-Shape" fill="#FECA00"></path>
                    </g>
                </g>
            </g>
        </g>
    </g>
</svg>