<?xml version="1.0" encoding="UTF-8"?>
<svg width="16px" height="12px" viewBox="0 0 16 12" version="1.1" xmlns="http://www.w3.org/2000/svg" xmlns:xlink="http://www.w3.org/1999/xlink">
    <title>flags/S/EC - Ecuador</title>
    <defs>
        <rect id="path-1" x="0" y="0" width="16" height="12"></rect>
        <rect id="path-3" x="0" y="0" width="16" height="12"></rect>
        <ellipse id="path-5" cx="1.62037037" cy="2.25" rx="1.62037037" ry="2.25"></ellipse>
    </defs>
    <g id="Symbols" stroke="none" stroke-width="1" fill="none" fill-rule="evenodd">
        <g id="flag">
            <mask id="mask-2" fill="white">
                <use xlink:href="#path-1"></use>
            </mask>
            <g id="mask"></g>
            <g id="contents" mask="url(#mask-2)">
                <mask id="mask-4" fill="white">
                    <use xlink:href="#path-3"></use>
                </mask>
                <use id="background" fill="#2E42A5" xlink:href="#path-3"></use>
                <rect id="top" fill="#FECA00" mask="url(#mask-4)" x="0" y="0" width="16" height="6"></rect>
                <rect id="bottom" fill="#E31D1C" mask="url(#mask-4)" x="0" y="9" width="16" height="3"></rect>
                <g id="mark" mask="url(#mask-4)">
                    <g transform="translate(3.599976, 2.000000)">
                        <path d="M1.00639313,0.895966963 C0.946186023,0.760167899 3.26169486,0.0729718166 3.43519501,0.0729718166 C3.60869516,0.0729718166 3.82815149,0.48446939 3.82815149,0.48446939 C3.82815149,0.48446939 4.29754833,0.522438456 5.23634199,0.598376588 C5.12543655,0.248106741 5.12543655,0.0729718166 5.23634199,0.0729718166 C5.34724743,0.0729718166 6.25251547,0.368165548 7.95214611,0.95855301 C5.82745358,1.21466631 4.76510732,1.37155698 4.76510732,1.42922501 C4.76510732,1.48689303 4.83469789,1.67401899 4.97387904,1.99060286 L4.38449356,2.18373262 C4.40756607,1.80221002 4.38707013,1.61144873 4.32300575,1.61144873 C4.25894137,1.61144873 4.13181307,1.83961061 3.94162083,2.29593439 L3.6618614,1.42922501 C1.9316873,1.16425235 1.04653121,0.986499673 1.00639313,0.895966963 Z" id="bird" fill="#7B2900"></path>
                        <g id="ribbons" stroke-width="1" fill="none" transform="translate(0.129630, 1.382353)">
                            <path d="M0.886707203,1.62662639 L1.51708298,1.77736592 C0.857533783,4.53552643 1.46715764,5.85826582 3.3443028,5.9811856 L3.30195128,6.62794859 C0.949553612,6.47390819 0.145022836,4.72826696 0.886707203,1.62662639 Z" id="Path-24" fill="#FECA00" fill-rule="nonzero"></path>
                            <path d="M1.27060655,1.25483324 L1.91096141,1.35504143 C1.45927967,4.24139832 1.82100305,5.54650859 2.83483645,5.51080257 L2.85764932,6.15854912 C1.23788673,6.21559526 0.762637503,4.50087986 1.27060655,1.25483324 Z" id="Path-24" fill="#07138E" fill-rule="nonzero"></path>
                            <path d="M1.9187547,0.990127357 L2.55910955,1.09033554 C2.10742782,3.97669244 2.4691512,5.28180271 3.4829846,5.24609668 L3.50579747,5.89384324 C1.88603488,5.95088938 1.41078565,4.23617398 1.9187547,0.990127357 Z" id="Path-24" fill="#E10001" fill-rule="nonzero"></path>
                            <path d="M3.12145472,6.25436093 L3.76656042,6.191634 C3.81967125,6.73784448 3.77944734,7.20881235 3.64106587,7.60428033 L3.02929023,7.39020886 C3.13373925,7.09171338 3.16606835,6.71318316 3.12145472,6.25436093 Z" id="Path-25" fill="#07138E" fill-rule="nonzero"></path>
                        </g>
                        <g id="ribbons" stroke-width="1" fill="none" transform="translate(6.351852, 5.382353) scale(-1, 1) translate(-6.351852, -5.382353) translate(4.351852, 1.382353)">
                            <path d="M1.20189509,1.70199616 C0.513200756,4.79958851 1.22994067,6.32157893 3.35211484,6.26796742" id="Path-24" stroke="#FECA00" stroke-width="0.648148148"></path>
                            <path d="M1.27060655,1.25483324 L1.91096141,1.35504143 C1.45927967,4.24139832 1.82100305,5.54650859 2.83483645,5.51080257 L2.85764932,6.15854912 C1.23788673,6.21559526 0.762637503,4.50087986 1.27060655,1.25483324 Z" id="Path-24" fill="#07138E" fill-rule="nonzero"></path>
                            <path d="M1.9187547,0.990127357 L2.55910955,1.09033554 C2.10742782,3.97669244 2.4691512,5.28180271 3.4829846,5.24609668 L3.50579747,5.89384324 C1.88603488,5.95088938 1.41078565,4.23617398 1.9187547,0.990127357 Z" id="Path-24" fill="#E10001" fill-rule="nonzero"></path>
                            <path d="M3.24753284,6.25795603 L3.8918989,6.1880389 C3.94602026,6.68682897 3.90484029,7.11890996 3.76276276,7.48276717 L3.15900994,7.24701614 C3.2597629,6.98899017 3.29113595,6.65980837 3.24753284,6.25795603 Z" id="Path-25" fill="#07138E" fill-rule="nonzero"></path>
                        </g>
                        <polygon id="bottom" fill="#908F89" points="3.33333333 6.75 5.27777778 6.75 5.27777778 7.67647059 3.33333333 7.67647059"></polygon>
                        <g id="center" stroke-width="1" fill="none" transform="translate(2.685185, 2.250000)">
                            <mask id="mask-6" fill="white">
                                <use xlink:href="#path-5"></use>
                            </mask>
                            <ellipse stroke="#FEE901" stroke-width="0.5" cx="1.62037037" cy="2.25" rx="1.87037037" ry="2.5"></ellipse>
                            <path d="M2.79388087,3.45250808 C2.26872074,3.16673713 1.93077873,2.972918 1.78005485,2.87105068 C1.55396904,2.71824971 1.68448607,2.37736548 1.29509066,2.46847247 C0.905695237,2.55957947 0.59285936,2.71824971 0.59285936,3.15324227 C0.59285936,3.58823482 0.287143782,3.84648248 0.182952255,3.54928425 C0.0787607281,3.25208602 -0.411168082,1.86233749 0.182952255,1.86233749 C0.777072593,1.86233749 2.16579214,2.17400879 2.57458874,2.17400879 C2.98338534,2.17400879 3.22136009,2.38611911 3.22136009,2.76968069 C3.22136009,3.1136237 3.07886702,3.34123283 2.79388087,3.45250808 Z" id="Path-27" fill="#8DDD61" mask="url(#mask-6)"></path>
                            <ellipse id="Oval-18" fill="#FEE901" mask="url(#mask-6)" cx="1.62037037" cy="0.860294118" rx="1" ry="1"></ellipse>
                            <path d="M0.549549653,1.22025326 C0.800872246,1.1594708 1.10016431,1.24608692 1.44742585,1.48010162 C1.96831816,1.83112367 3.23122399,2.03101216 3.23122399,1.75555689 C3.23122399,1.57192004 3.23122399,1.75077699 3.23122399,2.29212774 C1.36304922,2.17580959 0.378989103,2.17580959 0.279043626,2.29212774 C0.12912541,2.46660498 0.11416625,1.31776309 0.279043626,1.22025326 C0.388961876,1.1552467 0.479130552,1.1552467 0.549549653,1.22025326 Z" id="Path-26" fill="#F7FCFF" mask="url(#mask-6)"></path>
                        </g>
                    </g>
                </g>
            </g>
        </g>
    </g>
</svg>