<?xml version="1.0" encoding="UTF-8"?>
<svg width="16px" height="12px" viewBox="0 0 16 12" version="1.1" xmlns="http://www.w3.org/2000/svg" xmlns:xlink="http://www.w3.org/1999/xlink">
    <title>flags/S/EG - Egypt</title>
    <defs>
        <rect id="path-1" x="0" y="0" width="16" height="12"></rect>
        <rect id="path-3" x="0" y="0" width="16" height="12"></rect>
    </defs>
    <g id="Symbols" stroke="none" stroke-width="1" fill="none" fill-rule="evenodd">
        <g id="flag">
            <mask id="mask-2" fill="white">
                <use xlink:href="#path-1"></use>
            </mask>
            <g id="mask"></g>
            <g id="contents" mask="url(#mask-2)">
                <mask id="mask-4" fill="white">
                    <use xlink:href="#path-3"></use>
                </mask>
                <use id="background" fill="#F7FCFF" xlink:href="#path-3"></use>
                <rect id="top" fill="#BF2714" mask="url(#mask-4)" x="0" y="0" width="16" height="4"></rect>
                <rect id="bottom" fill="#272727" mask="url(#mask-4)" x="0" y="8" width="16" height="4"></rect>
                <g id="mark" mask="url(#mask-4)">
                    <g transform="translate(6.000000, 3.000000)">
                        <g id="wing" stroke-width="1" fill="none" fill-rule="evenodd" transform="translate(0.000000, 2.034483)">
                            <polygon id="Path-23" fill="#C09302" fill-rule="nonzero" points="0.13016353 0.0756334329 0.629638961 0.0985308965 0.504262797 2.83343267 0.00478736628 2.8105352"></polygon>
                            <polygon id="Path-23" fill="#C09302" fill-rule="nonzero" points="0.652038952 0.245384659 1.1512418 0.273607257 1.02586564 2.49126765 0.526662787 2.46304505"></polygon>
                            <polygon id="Path-23" fill="#C09302" fill-rule="nonzero" points="1.17421685 0.411465411 1.67254216 0.452354091 1.547166 1.98035931 1.04884069 1.93947063"></polygon>
                        </g>
                        <g id="wing" stroke-width="1" fill="none" fill-rule="evenodd" transform="translate(3.130435, 3.500000) scale(-1, 1) translate(-3.130435, -3.500000) translate(2.260870, 2.034483)">
                            <polygon id="Path-23" fill="#C09302" fill-rule="nonzero" points="0.13016353 0.0756334329 0.629638961 0.0985308965 0.504262797 2.83343267 0.00478736628 2.8105352"></polygon>
                            <polygon id="Path-23" fill="#C09302" fill-rule="nonzero" points="0.652038952 0.245384659 1.1512418 0.273607257 1.02586564 2.49126765 0.526662787 2.46304505"></polygon>
                            <polygon id="Path-23" fill="#C09302" fill-rule="nonzero" points="1.17421685 0.411465411 1.67254216 0.452354091 1.547166 1.98035931 1.04884069 1.93947063"></polygon>
                        </g>
                        <g id="feathers" stroke-width="1" fill="none" fill-rule="evenodd" transform="translate(1.739130, 3.630005)">
                            <polygon id="Path-30" fill="#C09302" fill-rule="nonzero" points="0.247540516 1.03334132 -0.239830789 0.921675702 -0.033543419 0.0213220881 0.453827886 0.132987708"></polygon>
                            <polygon id="Path-30" fill="#C09302" fill-rule="nonzero" transform="translate(0.607995, 0.527332) scale(-1, 1) translate(-0.607995, -0.527332) " points="0.595366603 1.03334132 0.107995298 0.921675702 0.314282668 0.0213220881 0.801653973 0.132987708"></polygon>
                            <polygon id="Path-31" fill="#C09302" fill-rule="nonzero" points="0.496956533 1.02508853 -0.00304346694 1.02508853 -0.00304346694 0.141124245 0.496956533 0.141124245"></polygon>
                        </g>
                        <g id="center" stroke-width="1" fill="none" fill-rule="evenodd" transform="translate(0.391304, 2.379310)">
                            <polygon id="Path-23" fill="#C09302" fill-rule="nonzero" points="0.926071292 0.0773148857 1.42592092 0.0895767359 1.39671789 1.28002707 0.896868262 1.26776522"></polygon>
                            <polygon id="Path-23" fill="#C09302" fill-rule="nonzero" points="1.79563651 0.0773148857 2.29548613 0.0895767359 2.2662831 1.28002707 1.76643348 1.26776522"></polygon>
                        </g>
                        <g id="bottom" stroke-width="1" fill="none" fill-rule="evenodd" transform="translate(0.347826, 3.965517)">
                            <path d="M0.32116063,0.995906035 L0.451012714,0.513061924 C0.981534859,0.655736142 1.38889195,0.726295036 1.66666665,0.726295036 C1.94444136,0.726295036 2.35179845,0.655736142 2.88232059,0.513061924 L3.01217268,0.995906035 C2.44298035,1.14897989 1.99661745,1.22629504 1.66666665,1.22629504 C1.33671586,1.22629504 0.89035296,1.14897989 0.32116063,0.995906035 Z" id="Path-28" fill="#C09302" fill-rule="nonzero"></path>
                        </g>
                        <path d="M0.141152178,2.11135466 C0.107820633,1.78105444 0.30114115,1.55746379 0.628771757,1.58598149 C0.736500259,1.59535841 0.857497236,1.62722835 1.01865406,1.68190386 C1.06573829,1.69805728 1.06573829,1.69805728 1.11150133,1.71425753 C1.33304668,1.79305571 1.393203,1.81331103 1.40568878,1.81597827 C1.35660006,1.80486037 1.50118522,1.54347527 1.53435103,1.49941917 C1.53827236,1.52739547 1.52162835,1.5234139 1.48166212,1.51541524 L1.03064304,1.42515035 L1.35170024,1.09577482 C1.46392301,0.980644445 1.61336996,0.923551945 1.78391192,0.923551945 C1.80159247,0.923551945 1.81808767,0.922730328 1.87226806,0.919397182 C1.91233642,0.916961119 1.91233642,0.916961119 1.9573867,0.915096725 C2.26936539,0.904987314 2.49310186,0.993208261 2.49310186,1.31403504 C2.49310186,1.428814 2.50759818,1.61338811 2.53152458,1.75341313 C2.53957326,1.80051659 2.55512303,1.84460645 2.5092636,1.86397177 C2.51115785,1.8472614 2.62043289,1.80413914 2.79035442,1.73307549 L2.81075637,1.72455082 C3.30447171,1.51847931 3.36215383,1.49936109 3.52130406,1.59608203 C3.62736279,1.66053748 3.72834468,1.77647432 3.84149737,1.94932996 L3.42315861,2.22317788 C3.35017532,2.11168629 3.2920541,2.04403632 3.26437827,2.02514068 C3.32727995,2.06884068 3.11542864,2.13918961 3.00334815,2.18597081 L2.98327032,2.19436006 C2.59887625,2.35511924 2.54820314,2.37429665 2.4382904,2.37429665 C2.13919344,2.37429665 2.03179626,2.06791778 2.00239624,1.62914131 C1.910115,1.93292766 1.63477918,2.31630238 1.4078943,2.31630238 C1.30857085,2.31630238 1.35632221,2.33201889 0.943946475,2.18534709 C0.900741431,2.17005381 0.900741431,2.17005381 0.858013005,2.15539562 C0.733081503,2.11301024 0.642955368,2.08923376 0.586095201,2.0841581 C0.58844477,2.08147756 0.596816554,2.07247147 0.606210338,2.0644243 L0.141152178,2.11135466 Z" id="Path-32" fill="#C09302" fill-rule="nonzero"></path>
                    </g>
                </g>
            </g>
        </g>
    </g>
</svg>