<?xml version="1.0" encoding="UTF-8"?>
<svg width="16px" height="12px" viewBox="0 0 16 12" version="1.1" xmlns="http://www.w3.org/2000/svg" xmlns:xlink="http://www.w3.org/1999/xlink">
    <title>flags/S/ER - Eritrea</title>
    <defs>
        <rect id="path-1" x="0" y="0" width="17" height="12"></rect>
    </defs>
    <g id="Symbols" stroke="none" stroke-width="1" fill="none" fill-rule="evenodd">
        <g id="flag">
            <mask id="mask-2" fill="white">
                <use xlink:href="#path-1"></use>
            </mask>
            <g id="mask"></g>
            <g id="contents" mask="url(#mask-2)">
                <rect id="top" fill="#43B764" x="0" y="0" width="16" height="6"></rect>
                <rect id="bottom" fill="#B4D7F4" x="0" y="6" width="16" height="6"></rect>
                <polygon id="blue" fill="#BE0027" points="0 0 16.5 6 0 12"></polygon>
                <path d="M4.89498442,8.29218052 L4.84973695,8.06135881 C4.70079709,7.75373707 4.6291714,7.43852664 4.6291714,7.1075788 C4.6291714,7.0571542 4.63043499,7.0064851 4.6329708,6.95556605 L4.22312821,4.86482922 C3.82715701,5.63100414 3.6291714,6.37858733 3.6291714,7.1075788 C3.6291714,7.83657026 3.59665636,8.06450968 4.07949538,8.69483027 L4.96989473,8.6743217 L4.35342993,9.14654688 L4.75545011,8.23091608 L4.89498442,8.29218052 Z M4.84973695,8.06135881 C4.70079709,7.75373707 4.6291714,7.43852664 4.6291714,7.1075788 C4.6291714,7.0571542 4.63043499,7.0064851 4.6329708,6.95556605 L4.22312821,4.86482922 C3.82715701,5.63100414 3.6291714,6.37858733 3.6291714,7.1075788 C3.6291714,7.83657026 3.87059091,8.51622629 4.35342993,9.14654688 L4.96989473,8.6743217 L4.35342993,9.14654688 L4.75545011,8.23091608 L4.89498442,8.29218052 L4.84973695,8.06135881 Z" id="Path-2" fill="#F3E294" fill-rule="nonzero"></path>
                <path d="M4.25,8.5 C5.49264069,8.5 6.5,7.49264069 6.5,6.25 C6.5,5.00735931 5.49264069,4 4.25,4 C3.00735931,4 2,5.00735931 2,6.25 C2,7.49264069 3.00735931,8.5 4.25,8.5 Z M4.25,9.5 C2.45507456,9.5 1,8.04492544 1,6.25 C1,4.45507456 2.45507456,3 4.25,3 C6.04492544,3 7.5,4.45507456 7.5,6.25 C7.5,8.04492544 6.04492544,9.5 4.25,9.5 Z" id="Oval-74" fill="#F3E294" fill-rule="nonzero"></path>
            </g>
        </g>
    </g>
</svg>