<?xml version="1.0" encoding="UTF-8"?>
<svg width="16px" height="12px" viewBox="0 0 16 12" version="1.1" xmlns="http://www.w3.org/2000/svg" xmlns:xlink="http://www.w3.org/1999/xlink">
    <title>flags/S/ES - Spain</title>
    <defs>
        <rect id="path-1" x="0" y="0" width="16" height="12"></rect>
        <rect id="path-3" x="0" y="0" width="16" height="12"></rect>
        <path d="M0,0 L1.008,0 L1.008,0.448 C0.924,0.410666667 0.84,0.392 0.756,0.392 C0.672,0.392 0.588,0.410666667 0.504,0.448 C0.42,0.410666667 0.336,0.392 0.252,0.392 C0.168,0.392 0.084,0.410666667 0,0.448 L0,0 Z" id="path-5"></path>
        <path d="M0,0 L1.008,0 L1.008,0.448 C0.924,0.410666667 0.84,0.392 0.756,0.392 C0.672,0.392 0.588,0.410666667 0.504,0.448 C0.42,0.410666667 0.336,0.392 0.252,0.392 C0.168,0.392 0.084,0.410666667 0,0.448 L0,0 Z" id="path-7"></path>
        <path d="M0,0 L3.64,0 L3.64,3.27041559 C3.4597416,4.00213853 2.85307493,4.368 1.82,4.368 C0.786925066,4.368 0.1802584,3.99249174 0,3.24147523 L0,0 Z" id="path-9"></path>
    </defs>
    <g id="Symbols" stroke="none" stroke-width="1" fill="none" fill-rule="evenodd">
        <g id="flag">
            <mask id="mask-2" fill="white">
                <use xlink:href="#path-1"></use>
            </mask>
            <g id="mask"></g>
            <g id="contents" mask="url(#mask-2)">
                <mask id="mask-4" fill="white">
                    <use xlink:href="#path-3"></use>
                </mask>
                <use id="background" fill="#FFB400" xlink:href="#path-3"></use>
                <rect id="top" fill="#C51918" mask="url(#mask-4)" x="0" y="0" width="16" height="3"></rect>
                <rect id="bottom" fill="#C51918" mask="url(#mask-4)" x="0" y="9" width="16" height="3"></rect>
                <g id="mark" mask="url(#mask-4)">
                    <g transform="translate(2.000000, 2.000000)">
                        <g id="pillars" stroke-width="1" fill="none" fill-rule="evenodd" transform="translate(0.000000, 2.072000)">
                            <rect id="Rectangle-76" fill="#F1F9FF" x="0.504" y="1.064" width="1" height="2.912"></rect>
                            <path d="M1.288,0.56 L1.288,0.84 L1.12,0.84 L1.12,1.064 L0.448,1.064 L0.448,0.84 L0.28,0.84 L0.28,0.56 L1.288,0.56 Z" id="Combined-Shape" fill="#C88A02"></path>
                            <polygon id="Combined-Shape" fill="#C88A02" points="1.12 4.144 1.288 4.144 1.288 4.424 0.28 4.424 0.28 4.144 0.448 4.144 0.448 3.92 1.12 3.92"></polygon>
                            <path d="M0.784,0.616 C0.905866165,0.616 0.918252748,0.570111882 0.990149887,0.501574984 C1.04597824,0.448355869 1.176,0.382351716 1.176,0.308 C1.176,0.137896297 1.00049562,0 0.784,0 C0.567504378,0 0.392,0.137896297 0.392,0.308 C0.392,0.390833739 0.481539628,0.446220161 0.549241793,0.501574984 C0.620569799,0.559894376 0.672929137,0.616 0.784,0.616 Z" id="Oval-56" fill="#AD1619"></path>
                            <g id="water" transform="translate(0.280000, 4.424000)">
                                <mask id="mask-6" fill="white">
                                    <use xlink:href="#path-5"></use>
                                </mask>
                                <use id="Rectangle-76" fill="#005BBF" xlink:href="#path-5"></use>
                            </g>
                            <rect id="Rectangle-76" fill="#F1F9FF" x="5.992" y="1.064" width="1" height="2.912"></rect>
                            <path d="M6.776,0.56 L6.776,0.84 L6.608,0.84 L6.608,1.064 L5.936,1.064 L5.936,0.84 L5.768,0.84 L5.768,0.56 L6.776,0.56 Z" id="Combined-Shape" fill="#C88A02"></path>
                            <polygon id="Combined-Shape" fill="#C88A02" points="6.608 4.144 6.776 4.144 6.776 4.424 5.768 4.424 5.768 4.144 5.936 4.144 5.936 3.92 6.608 3.92"></polygon>
                            <path d="M6.272,0.616 C6.39386616,0.616 6.40625275,0.570111882 6.47814989,0.501574984 C6.53397824,0.448355869 6.664,0.382351716 6.664,0.308 C6.664,0.137896297 6.48849562,0 6.272,0 C6.05550438,0 5.88,0.137896297 5.88,0.308 C5.88,0.390833739 5.96953963,0.446220161 6.03724179,0.501574984 C6.1085698,0.559894376 6.16092914,0.616 6.272,0.616 Z" id="Oval-56" fill="#AD1619"></path>
                            <g id="water" transform="translate(5.768000, 4.424000)">
                                <mask id="mask-8" fill="white">
                                    <use xlink:href="#path-7"></use>
                                </mask>
                                <use id="Rectangle-76" fill="#005BBF" xlink:href="#path-7"></use>
                            </g>
                            <path d="M0.651401388,3.41592855 C0.651401388,3.53420325 0.594942592,3.6455551 0.493979983,3.76796391 L0.150113991,3.48434373 L0.117283414,3.47425544 L0.0989802597,3.33095019 C0.0651679571,3.06621547 0.178317949,2.91956764 0.41145958,2.81355612 C0.417399602,2.81085514 0.522685462,2.76496018 0.552736931,2.75055098 C0.601961535,2.72694857 0.642543922,2.70355401 0.680423053,2.67600674 C0.717771914,2.6488451 0.757858537,2.62322222 0.806209319,2.59517415 C0.517684174,2.54881853 0.361770537,2.51462605 0.242169002,2.46309691 C-0.0440574188,2.33977909 -0.080972854,2.05339617 0.194125941,1.8639431 C0.569191909,1.60564535 1.57325701,1.58241187 2.01392982,1.80993526 L1.80840119,2.2080081 C1.59215254,2.09635695 1.10053274,2.07530285 0.75625031,2.13259181 C0.808604485,2.14173584 0.867321073,2.15138096 0.933126946,2.16171283 C0.974046469,2.16813742 1.11821872,2.19039482 1.12980543,2.19219622 C1.26732013,2.21357579 1.36113175,2.24073583 1.43065211,2.28806797 C1.57254892,2.38467677 1.59357307,2.55873772 1.4923133,2.68714371 C1.44956152,2.7413566 1.39366415,2.78190742 1.30908047,2.8309713 C1.28193524,2.84671725 1.2527168,2.86276128 1.21348052,2.88369564 C1.20545805,2.887976 1.13703009,2.92423968 1.11713358,2.93492366 C1.03640194,2.97827477 0.983442259,3.00958117 0.943916545,3.0383259 C0.882004517,3.08335089 0.818507462,3.11995509 0.746431029,3.15451458 C0.707658998,3.17310515 0.596294695,3.22164976 0.596898456,3.22137523 C0.594624467,3.22240923 0.592435653,3.22339281 0.59032906,3.22432929 C0.629209947,3.27694645 0.651401388,3.34135929 0.651401388,3.41592855 Z M4.99044838,1.80993526 C5.43112119,1.58241187 6.4351863,1.60564535 6.81025227,1.8639431 C7.08535106,2.05339617 7.04843563,2.33977909 6.7622092,2.46309691 C6.64260767,2.51462605 6.48669403,2.54881853 6.19816889,2.59517415 C6.24651967,2.62322222 6.28660629,2.6488451 6.32395515,2.67600674 C6.36183428,2.70355401 6.40241667,2.72694857 6.45164128,2.75055098 C6.48169275,2.76496018 6.58697861,2.81085514 6.59291863,2.81355612 C6.82606026,2.91956764 6.93921025,3.06621547 6.90539795,3.33095019 L6.90539795,3.33095019 L6.88709479,3.47425544 L6.85426422,3.48434373 L6.51039822,3.76796391 C6.40943561,3.6455551 6.35297682,3.53420325 6.35297682,3.41592855 C6.35297682,3.34135929 6.37516826,3.27694645 6.41404915,3.22432929 C6.41194255,3.22339281 6.40975374,3.22240923 6.40747975,3.22137523 C6.40808351,3.22164976 6.29671921,3.17310515 6.25794718,3.15451458 C6.18587075,3.11995509 6.12237369,3.08335089 6.06046166,3.0383259 C6.02093595,3.00958117 5.96797627,2.97827477 5.88724462,2.93492366 C5.86734812,2.92423968 5.79892016,2.887976 5.79089769,2.88369564 C5.75166141,2.86276128 5.72244296,2.84671725 5.69529774,2.8309713 C5.61071405,2.78190742 5.55481669,2.7413566 5.5120649,2.68714371 C5.41080514,2.55873772 5.43182929,2.38467677 5.57372609,2.28806797 C5.64324646,2.24073583 5.73705807,2.21357579 5.87457277,2.19219622 C5.88615949,2.19039482 6.03033174,2.16813742 6.07125126,2.16171283 C6.13705713,2.15138096 6.19577372,2.14173584 6.2481279,2.13259181 C5.90384547,2.07530285 5.41222567,2.09635695 5.19597702,2.2080081 L5.19597702,2.2080081 Z" id="ribbons" fill="#AD1619" fill-rule="nonzero"></path>
                            <path d="M0.961678429,2.128 L1.1269698,2.1621948 L1.1269698,2.40856395 C1.00960514,2.5022097 0.801948541,2.62794918 0.504,2.78578239 L0.504,2.128 L0.961678429,2.128 Z" id="Path-329" fill="#F1F9FF" fill-rule="nonzero"></path>
                            <path d="M6.44967843,2.128 L6.6149698,2.1621948 L6.6149698,2.40856395 C6.49760514,2.5022097 6.28994854,2.62794918 5.992,2.78578239 L5.992,2.128 L6.44967843,2.128 Z" id="Path-329" fill="#F1F9FF" fill-rule="nonzero" transform="translate(6.303485, 2.456891) scale(-1, 1) translate(-6.303485, -2.456891) "></path>
                        </g>
                        <g id="crown" stroke-width="1" fill="none" fill-rule="evenodd" transform="translate(0.568000, 0.000000)">
                            <path d="M2.99751945,1.05373223 L2.99700132,1.05537605 L3.18096967,1.04702999 C3.42804478,1.04904421 3.6727494,1.10367169 3.91508356,1.21091246 C4.23031894,1.21091246 4.53195674,1.31427363 4.81999696,1.52099599 L4.81999696,1.60298835 L4.25518265,2.17025222 C4.14226394,2.48330025 3.94098398,2.49981408 3.78419257,2.55196238 C3.73239345,2.5691906 2.99521887,2.58931198 2.99521887,2.58931198 L2.99500132,2.58737605 L2.83156249,2.60355808 C2.19036892,2.65114867 1.82078664,2.50671338 1.72281564,2.17025222 L1.15800132,1.60298835 L1.15800132,1.52099599 C1.44604154,1.31427363 1.74767934,1.21091246 2.06291473,1.21091246 C2.37565911,1.07576011 2.68719402,1.0233667 2.99751945,1.05373223 Z" id="Combined-Shape" fill="#AD1619"></path>
                            <path d="M4.79369947,1.65843156 L4.83207237,1.69921784 L4.31842133,2.18247541 C4.24348043,2.320489 4.20574194,2.41158432 4.20574194,2.44942467 C4.20574194,2.50715518 4.05554797,2.54141963 3.76241766,2.57661486 C3.51296767,2.60656554 3.21469911,2.62581948 2.98386706,2.62581948 L3.03986706,2.62443156 L3.04007237,2.62581948 L3.01186706,2.62443156 L2.98386706,2.62581948 L2.98386706,2.62443156 L2.85612047,2.62234307 C2.66315719,2.61552396 2.44860926,2.59907787 2.26152176,2.57661486 C1.96839145,2.54141963 1.81819748,2.50715518 1.81819748,2.44942467 L1.81472726,2.4352487 C1.78520196,2.40472865 1.76174162,2.34565214 1.74434624,2.25801919 C1.73295214,2.23379665 1.71992232,2.2090027 1.70551809,2.18247541 L1.19186706,1.69921784 L1.23023995,1.65843156 L1.74286706,2.14043156 L1.97169153,2.08336213 C2.28752499,2.01302862 2.61655019,1.97638012 2.95876712,1.97341663 C2.96650477,1.9732211 2.97391084,1.97323679 2.98131077,1.97326818 L3.00400429,1.9732211 L3.00400429,1.9732211 C3.43597194,1.97716862 3.84647354,2.03446807 4.23600429,2.14531645 C4.23139391,2.18481698 4.22599301,2.22059539 4.21980158,2.25265169 L4.22938729,2.23140171 L4.22938729,2.23140171 L4.27137683,2.15176542 L4.27678034,2.14476384 L4.79369947,1.65843156 Z M2.98086706,2.32943156 L3.00400429,2.32888381 C2.36074912,2.36800902 1.99427833,2.40855473 1.90459194,2.45052092 L1.89786706,2.45143156 L1.92365663,2.46123876 C1.93758627,2.46531851 1.95379118,2.46947396 1.97211497,2.47365425 C2.04414798,2.49008747 2.1466818,2.50642418 2.26819756,2.5210142 C2.50605216,2.54957265 2.78898855,2.56834195 3.01356035,2.56973607 C3.23507453,2.56833375 3.51793924,2.54956641 3.75574186,2.5210142 C3.87725762,2.50642418 3.97979144,2.49008747 4.05182445,2.47365425 C4.08847203,2.46529366 4.11664409,2.45703247 4.13508955,2.44927745 C4.14169799,2.44649907 4.14673514,2.44391088 4.15001754,2.44175986 C4.15027531,2.43802936 4.15071394,2.43409294 4.15133358,2.42994865 C4.12598102,2.4609772 4.0947329,2.46747278 4.0585049,2.45052092 C3.9688185,2.40855473 3.60234772,2.36800902 2.95909254,2.32888381 L2.98086706,2.32943156 Z" id="Combined-Shape" fill="#C88A02" fill-rule="nonzero"></path>
                            <path d="M2.98811643,0.673535199 C3.08090027,0.673535199 3.15611643,0.598319037 3.15611643,0.505535199 C3.15611643,0.412751361 3.08090027,0.337535199 2.98811643,0.337535199 C2.89533259,0.337535199 2.82011643,0.412751361 2.82011643,0.505535199 C2.82011643,0.598319037 2.89533259,0.673535199 2.98811643,0.673535199 Z" id="Oval-55" fill="#005BBF"></path>
                            <path d="" id="Combined-Shape" fill="#C88A02" fill-rule="nonzero"></path>
                            <rect id="Rectangle-77" fill="#C88A02" x="2.904" y="0.672" width="1" height="1"></rect>
                            <path d="M1.28587346,1.64843504 L0.978259,1.63686689 C1.12339516,0.798069902 1.83817982,0.387087363 2.9803909,0.387087363 C4.12408069,0.387087363 4.83634409,0.799849428 4.97056433,1.64176482 L4.55452446,1.68540463 C4.48920826,1.27569955 3.80297723,0.904927639 2.98640362,0.904927639 C2.1683513,0.904927639 1.35730388,1.23561156 1.28587346,1.64843504 Z" id="Path-2" fill="#C88A02" fill-rule="nonzero"></path>
                        </g>
                        <g id="shield" stroke-width="1" fill="none" fill-rule="evenodd" transform="translate(1.736000, 2.632000)">
                            <mask id="mask-10" fill="white">
                                <use xlink:href="#path-9"></use>
                            </mask>
                            <use id="Rectangle-78" fill="#E1E5E8" opacity="0.300000012" xlink:href="#path-9"></use>
                            <rect id="Rectangle-79" fill="#FFC034" fill-rule="nonzero" mask="url(#mask-10)" x="0" y="2.016" width="1.848" height="2.184"></rect>
                            <rect id="Rectangle-79" fill="#AD1619" fill-rule="nonzero" mask="url(#mask-10)" x="0" y="-0.056" width="1.848" height="2.128"></rect>
                            <rect id="Rectangle-79" fill="#AD1619" fill-rule="nonzero" mask="url(#mask-10)" x="1.792" y="1.96" width="1.848" height="2.128"></rect>
                            <rect id="Rectangle-79" fill="#F1F9FF" mask="url(#mask-10)" x="1.792" y="0" width="1.96" height="2.072"></rect>
                            <path d="M3.00535909,4.08934923 C2.21462642,4.15151619 1.81926009,3.92760679 1.81926009,3.41762105 C1.81171982,3.86543984 1.39511629,4.08934923 0.569449481,4.08934923 L0.569449481,4.69325891 L3.00535909,4.69325891 L3.00535909,4.08934923 Z" id="Path-330" fill="#F1F9FF" mask="url(#mask-10)"></path>
                            <ellipse id="Oval-57" stroke="#AD1619" stroke-width="0.583333333" fill="#005BBF" mask="url(#mask-10)" cx="1.82" cy="2.016" rx="1" ry="1"></ellipse>
                        </g>
                        <circle id="Oval-75" fill="#C88A02" fill-rule="evenodd" cx="2.5" cy="3.5" r="1"></circle>
                        <circle id="Oval-75" fill="#C37C9C" fill-rule="evenodd" cx="4.5" cy="3.5" r="1"></circle>
                        <circle id="Oval-75" fill="#FFC034" fill-rule="evenodd" cx="4.5" cy="5.5" r="1"></circle>
                        <circle id="Oval-75" fill="#AD1619" fill-rule="nonzero" cx="2.5" cy="5.5" r="1"></circle>
                    </g>
                </g>
            </g>
        </g>
    </g>
</svg>