<?xml version="1.0" encoding="UTF-8"?>
<svg width="16px" height="12px" viewBox="0 0 16 12" version="1.1" xmlns="http://www.w3.org/2000/svg" xmlns:xlink="http://www.w3.org/1999/xlink">
    <title>flags/S/FJ - Fiji</title>
    <defs>
        <rect id="path-1" x="0" y="0" width="16" height="12"></rect>
        <rect id="path-3" x="0" y="0" width="16" height="12"></rect>
        <rect id="path-5" x="0" y="0" width="9" height="7"></rect>
        <path d="M0,0 L4.82758621,0 L4.82758621,4.16666667 C4.55770018,5.38888889 3.75310248,6 2.4137931,6 C1.07448373,6 0.269886027,5.38888889 0,4.16666667 L0,0 Z" id="path-7"></path>
    </defs>
    <g id="Symbols" stroke="none" stroke-width="1" fill="none" fill-rule="evenodd">
        <g id="flag">
            <mask id="mask-2" fill="white">
                <use xlink:href="#path-1"></use>
            </mask>
            <g id="mask"></g>
            <g id="contents" mask="url(#mask-2)">
                <mask id="mask-4" fill="white">
                    <use xlink:href="#path-3"></use>
                </mask>
                <use id="background" fill="#67BFE5" xlink:href="#path-3"></use>
                <g id="gb---small" mask="url(#mask-4)">
                    <g id="flag">
                        <mask id="mask-6" fill="white">
                            <use xlink:href="#path-5"></use>
                        </mask>
                        <g id="mask"></g>
                        <g id="contents" mask="url(#mask-6)">
                            <g transform="translate(-2.000000, -1.000000)">
                                <g id="stripe">
                                    <polygon id="white" fill="#F7FCFF" fill-rule="nonzero" transform="translate(6.543731, 4.365902) scale(1, -1) translate(-6.543731, -4.365902) " points="0.997866872 1.23189449 2.97834209 0.363294267 11.0449402 6.78743314 12.0895956 8.07819892 9.9717623 8.36851072 6.68158973 5.60016547 4.033339 3.73494762"></polygon>
                                    <polygon id="red" fill="#F50100" fill-rule="nonzero" transform="translate(6.491732, 4.573107) scale(1, -1) translate(-6.491732, -4.573107) " points="1.26899691 1.0377417 2.27795758 0.533678352 11.7144671 8.61253609 10.2977689 8.61253609"></polygon>
                                </g>
                                <g id="stripe" transform="translate(6.500000, 4.500000) scale(-1, 1) translate(-6.500000, -4.500000) ">
                                    <polygon id="white" fill="#F7FCFF" fill-rule="nonzero" transform="translate(6.543731, 4.365902) scale(1, -1) translate(-6.543731, -4.365902) " points="0.997866872 1.23189449 2.97834209 0.363294267 11.0449402 6.78743314 12.0895956 8.07819892 9.9717623 8.36851072 6.68158973 5.60016547 4.033339 3.73494762"></polygon>
                                    <polygon id="red" fill="#F50100" fill-rule="nonzero" transform="translate(6.627779, 4.549380) scale(1, -1) translate(-6.627779, -4.549380) " points="1.06544306 1.16208955 2.07440374 0.658026209 6.09256727 4.11700491 7.28386651 4.5034683 12.1901144 8.44073422 10.7734162 8.44073422 5.86992481 4.59692228 4.567449 4.13351128"></polygon>
                                </g>
                                <g id="cross" transform="translate(2.000000, 1.000000)">
                                    <path d="M5.36728773,-0.375 L5.36703197,2.625 L9.375,2.625 L9.375,4.375 L5.36703197,4.375 L5.36728773,7.375 L3.61728773,7.375 L3.61703197,4.375 L-0.375,4.375 L-0.375,2.625 L3.61703197,2.625 L3.61728773,-0.375 L5.36728773,-0.375 Z" id="red" stroke="#F7FCFF" stroke-width="0.75" fill="#F50100"></path>
                                </g>
                            </g>
                        </g>
                    </g>
                </g>
                <g id="mark" mask="url(#mask-4)">
                    <g transform="translate(10.000000, 5.000000)">
                        <mask id="mask-8" fill="white">
                            <use xlink:href="#path-7"></use>
                        </mask>
                        <use id="Rectangle-17" stroke="none" fill="#F7FCFF" fill-rule="evenodd" xlink:href="#path-7"></use>
                        <g id="red" stroke="none" stroke-width="1" fill="none" fill-rule="evenodd" mask="url(#mask-8)">
                            <rect id="Rectangle-18" fill="#C3352C" x="0" y="0" width="4.82758621" height="1.5"></rect>
                            <rect id="Rectangle-19" fill="#C3352C" x="2.06896552" y="1.33333333" width="1" height="4.66666667"></rect>
                            <polygon id="Rectangle-20" fill="#C3352C" points="0 3.16666667 4.82758621 3.16666667 4.82758621 3.83333333 0 3.83333333"></polygon>
                        </g>
                        <g id="dove" stroke="none" stroke-width="1" fill="none" fill-rule="evenodd" mask="url(#mask-8)">
                            <g transform="translate(0.344828, 4.166667)" fill="#979797" fill-rule="nonzero" id="Path-48">
                                <path d="M1.6194658,1.53054251 C1.45226096,1.77236004 1.21571171,1.61219277 0.925433708,1.20187073 C0.76984281,0.9946124 0.629640102,0.882483518 0.512513577,0.858907463 C0.278662911,0.811836346 -0.161828738,0.420041143 -0.087430652,0.206301386 C-0.0385272247,0.0658057477 0.0370653592,0.0646212517 0.338830577,0.102527834 L0.359421659,0.105131799 C0.464382585,0.118464074 0.502220737,0.122392983 0.53717973,0.122392983 C0.566954366,0.122392983 0.434961351,0.17483201 0.746491022,0.0432927718 C0.912139578,-0.0266501159 1.0635665,-0.0608102448 1.25737833,-0.0548854559 L1.35015782,0.122925643 C1.36825488,0.128364861 1.39695361,0.134654354 1.43644558,0.140995526 C1.45658462,0.144166451 1.45658462,0.144166451 1.47744166,0.147365021 C1.61089876,0.167972241 1.65320536,0.179383348 1.70026925,0.236316672 C1.78982822,0.344656423 1.72921261,0.443008324 1.5925697,0.547473577 C1.44171103,0.662806965 1.41845017,0.70500203 1.42195967,0.736065806 C1.43122514,0.758761471 1.42947569,0.8196292 1.38251988,0.865286243 C1.38062431,0.867129382 1.37874657,0.868893819 1.37688227,0.870582829 C1.41602784,0.93772036 1.48458515,1.03398368 1.58169156,1.15739372 C1.74909836,1.19066052 1.73697145,1.36060169 1.6194658,1.53054251 Z M1.32308874,0.90125485 C1.30382279,0.906465134 1.28193298,0.90762637 1.25355889,0.90762637 C1.2896228,0.90762637 1.31323245,0.899117082 1.32893154,0.888431426 L1.32308874,0.90125485 Z M0.152228993,0.317408666 C0.146041934,0.310168119 0.144383705,0.300813395 0.148675093,0.288484579 C0.147790354,0.291026362 0.150611536,0.296507968 0.156485837,0.304297015 L0.152228993,0.317408666 Z M0.156485837,0.304297015 C0.205475232,0.369254659 0.466806435,0.594692931 0.561845883,0.613823143 C0.751154447,0.651928511 0.936431672,0.800106304 1.12743858,1.05462384 C1.32146358,1.32883026 1.41241495,1.39041335 1.41383528,1.3883592 C1.45143234,1.33398502 1.45143234,1.4015471 1.51665054,1.4015471 L1.41899382,1.35457379 C1.28298741,1.18435076 1.19160298,1.05567888 1.14323393,0.96487221 C1.07385273,0.834617944 1.06331731,0.704293681 1.17893994,0.667718022 C1.19931655,0.581409957 1.26386088,0.492902705 1.39242428,0.387125019 C1.28899698,0.370310641 1.22884281,0.352950478 1.17562378,0.311656134 C1.13593052,0.28085687 1.11159638,0.242998869 1.10178017,0.201127559 C1.01307369,0.212017406 0.932253984,0.236228796 0.843736848,0.273603973 C0.402370834,0.459964871 0.622795929,0.372392983 0.53717973,0.372392983 C0.487013187,0.372392983 0.445852065,0.368119034 0.327919449,0.353139079 L0.307671416,0.350578447 C0.24054058,0.34214573 0.172375373,0.340985425 0.152228993,0.317408666 L0.156485837,0.304297015 Z M1.17154206,0.763629704 C1.1733172,0.762159152 1.17311336,0.760188525 1.17292876,0.758219488 L1.17154206,0.763629704 Z M1.24398393,0.657757248 C1.24712108,0.657670244 1.25031256,0.65762637 1.25355889,0.65762637 C1.25150667,0.65762637 1.24955087,0.657681751 1.24748392,0.658019508 L1.24398393,0.657757248 Z"></path>
                            </g>
                        </g>
                        <g id="tree" stroke="none" stroke-width="1" fill="none" fill-rule="evenodd" mask="url(#mask-8)">
                            <g transform="translate(0.000000, 1.833333)" stroke-width="0.5">
                                <path d="M0.827524915,1.22175863 C0.668497936,1.00175269 0.588984446,0.85253416 0.588984446,0.77410304" id="Path-50" stroke="#964C36"></path>
                                <path d="M0.679384312,0.938081932 C0.476054073,0.851243502 0.374388953,0.851243502 0.374388953,0.938081932" id="Path-49" stroke="#2A8E51"></path>
                                <path d="M0.674417805,0.801103289 C0.531399603,0.619164445 0.406129358,0.528195023 0.298607068,0.528195023 C0.191084778,0.528195023 0.138607908,0.573679734 0.141176456,0.664649156" id="Path-51" stroke="#2A8E51"></path>
                                <path d="M0.551983665,0.527649008 C0.488162372,0.230061404 0.405148315,0.0812676022 0.302941493,0.0812676022 C0.200734672,0.0812676022 0.149631261,0.155664503 0.149631261,0.304458305" id="Path-52" stroke="#2A8E51"></path>
                                <path d="M0.590725936,0.526773402 C0.562257858,0.271737952 0.613825035,0.144220226 0.745427465,0.144220226" id="Path-53" stroke="#2A8E51"></path>
                            </g>
                        </g>
                        <g id="tree" stroke="none" stroke-width="1" fill="none" fill-rule="evenodd" mask="url(#mask-8)">
                            <g transform="translate(0.947817, 2.333333) rotate(20.000000) translate(-0.947817, -2.333333) translate(0.516783, 1.666667)" stroke-width="0.5">
                                <path d="M0.827524915,1.22175863 C0.668497936,1.00175269 0.588984446,0.85253416 0.588984446,0.77410304" id="Path-50" stroke="#964C36"></path>
                                <path d="M0.679384312,0.938081932 C0.476054073,0.851243502 0.374388953,0.851243502 0.374388953,0.938081932" id="Path-49" stroke="#2A8E51"></path>
                                <path d="M0.674417805,0.801103289 C0.531399603,0.619164445 0.406129358,0.528195023 0.298607068,0.528195023 C0.191084778,0.528195023 0.138607908,0.573679734 0.141176456,0.664649156" id="Path-51" stroke="#2A8E51"></path>
                                <path d="M0.551983665,0.527649008 C0.488162372,0.230061404 0.405148315,0.0812676022 0.302941493,0.0812676022 C0.200734672,0.0812676022 0.149631261,0.155664503 0.149631261,0.304458305" id="Path-52" stroke="#2A8E51"></path>
                                <path d="M0.590725936,0.526773402 C0.562257858,0.271737952 0.613825035,0.144220226 0.745427465,0.144220226" id="Path-53" stroke="#2A8E51"></path>
                            </g>
                        </g>
                        <g id="tree" stroke="none" stroke-width="1" fill="none" fill-rule="evenodd" mask="url(#mask-8)">
                            <g transform="translate(1.645258, 2.840304) scale(-1, 1) rotate(13.000000) translate(-1.645258, -2.840304) translate(1.145258, 1.840304)" stroke-width="0.35">
                                <path d="M0.827524915,1.22175863 C0.668497936,1.00175269 0.588984446,0.85253416 0.588984446,0.77410304" id="Path-50" stroke="#964C36"></path>
                                <path d="M0.679384312,0.938081932 C0.476054073,0.851243502 0.374388953,0.851243502 0.374388953,0.938081932" id="Path-49" stroke="#2A8E51"></path>
                                <path d="M0.674417805,0.801103289 C0.531399603,0.619164445 0.406129358,0.528195023 0.298607068,0.528195023 C0.191084778,0.528195023 0.138607908,0.573679734 0.141176456,0.664649156" id="Path-51" stroke="#2A8E51"></path>
                                <path d="M0.551983665,0.527649008 C0.488162372,0.230061404 0.405148315,0.0812676022 0.302941493,0.0812676022 C0.200734672,0.0812676022 0.149631261,0.155664503 0.149631261,0.304458305" id="Path-52" stroke="#2A8E51"></path>
                                <path d="M0.590725936,0.526773402 C0.562257858,0.271737952 0.613825035,0.144220226 0.745427465,0.144220226" id="Path-53" stroke="#2A8E51"></path>
                            </g>
                        </g>
                        <g id="tree" stroke="none" stroke-width="1" fill="none" fill-rule="evenodd" mask="url(#mask-8)">
                            <g transform="translate(2.931034, 1.833333)">
                                <g id="Group-3" stroke="none" stroke-width="1" fill-rule="evenodd">
                                    <path d="M0.417967241,1.06758555 C0.498622468,0.696433435 0.653726542,0.510857376 0.883279463,0.510857376 C1.11283238,0.510857376 1.27896386,0.706925864 1.3816739,1.09906284" id="Path-46" stroke="#2A8E51" stroke-width="0.35"></path>
                                    <path d="M0.133609773,0.687496626 C0.257224783,0.468264581 0.523004673,0.36761179 0.930949445,0.385538252 C1.33889422,0.403464715 1.58004254,0.504117506 1.65439441,0.687496626" id="Path-47" stroke="#2A8E51" stroke-width="0.35"></path>
                                    <path d="M0.00996705557,0.269333624 C0.234061688,-0.00823561741 0.503138717,-0.0293830244 0.817198145,0.205891403 L0.976790762,0.269333624 C1.08347676,-0.0452245311 1.3945369,-0.0452245311 1.90997118,0.269333624" id="Path-58" stroke="#2A8E51" stroke-width="0.35"></path>
                                </g>
                                <path d="M1.11095971,1.16751322 C0.951932726,0.859310975 0.872419236,0.650273504 0.872419236,0.540400802" id="Path-50" stroke="#964C36" stroke-width="0.5" transform="translate(0.991689, 0.853957) rotate(30.000000) translate(-0.991689, -0.853957) "></path>
                            </g>
                        </g>
                        <g id="thingy" stroke="none" stroke-width="1" fill="none" fill-rule="evenodd" mask="url(#mask-8)">
                            <g transform="translate(2.931034, 4.000000)">
                                <path d="M1.61835966,0.156945484 C1.412305,0.0600422389 1.27845509,0.0600422389 1.21680993,0.156945484 C1.15516477,0.253848728 0.753026408,0.747486271 0.0103948537,1.63785811" id="Path-55" stroke="#964C36" stroke-width="0.5" fill="none"></path>
                                <path d="M0.551127802,0.297593129 L1.24153221,0.78021267 C1.4533661,0.629098784 1.50632457,0.510883723 1.40040763,0.425567485 C1.24153221,0.297593129 0.808624778,0.0719568549 0.808624778,0.0719568549 C0.808624778,0.0719568549 0.722792453,0.147168946 0.551127802,0.297593129 Z" id="Path-54" stroke="none" fill="#FFF203" fill-rule="evenodd"></path>
                                <path d="M0.527261706,0.322267247 C0.420631274,0.433895647 0.367316057,0.532367965 0.367316057,0.617684203 C0.367316057,0.745658559 0.218500785,1.08871674 0.218500785,1.08871674 C0.218500785,1.08871674 0.634712647,1.34492409 0.721133599,1.18172316 C0.80755455,1.01852223 1.36883589,1.11623588 1.26983975,0.866960041 C1.20384233,0.700776149 0.956316311,0.519211884 0.527261706,0.322267247 Z" id="Path-56" stroke="none" fill="#00A651" fill-rule="evenodd"></path>
                            </g>
                        </g>
                        <path d="M0.528162082,0.591147457 C0.773924998,0.465035299 0.957634766,0.465035299 1.07929139,0.591147457 C1.26177632,0.780315695 1.41128607,0.575473961 1.41128607,0.461362631 C1.41128607,0.347251302 1.7010477,-0.0444826515 1.7010477,0.273332403 C1.7010477,0.591147457 1.6108551,0.770590886 1.86554183,0.770590886 C2.12022857,0.770590886 3.26710627,0.331577805 3.54212213,0.461362631 C3.81713799,0.591147457 4.0275874,0.558869366 3.9576762,0.372649607 C3.887765,0.186429849 3.70809561,0.0700424999 3.36211869,0.171687451 C3.01614177,0.273332403 3.09779232,0.372649607 2.79877282,0.372649607 C2.49975332,0.372649607 2.16694738,0.273332403 2.16694738,0.273332403 C2.16694738,0.273332403 2.26044196,0.106332821 2.60181564,0.225121835 C2.94318933,0.343910849 3.41405779,0.0780094074 3.54212213,0.0780094074 C3.67018647,0.0780094074 4.0226368,0.0700424999 4.05757083,0.171687451 C4.09250487,0.273332403 4.30531846,0.366604313 4.14310241,0.461362631 C3.98088637,0.556120949 3.71339959,0.615476973 3.89744231,0.736882824 C4.08148503,0.858288675 4.50471228,0.834891072 4.52510466,0.961176555 C4.54549705,1.08746204 4.74608373,1.27604364 4.66557925,1.27604364 C4.58507476,1.27604364 4.43958728,1.45389621 4.30411139,1.39974307 C4.1686355,1.34558993 4.15270217,1.29804046 4.28261134,1.25416996 C4.41252051,1.21029945 4.41125663,1.02581243 4.30411139,1.02581243 C4.19696615,1.02581243 4.2492536,1.09044831 4.00529759,1.02581243 C3.76134158,0.961176555 3.43845737,0.889321285 3.4578699,1.02581243 C3.47728243,1.16230358 3.63611869,1.37181988 3.34307042,1.39974307 C3.05002215,1.42766626 2.91285045,1.53977464 2.85581164,1.44949376 C2.79877282,1.35921288 2.59489984,1.23891534 2.75521298,1.20034008 C2.91552611,1.16176482 3.06872464,1.33145901 3.1264652,1.30375133 C3.18420576,1.27604364 3.31508059,1.26061969 3.2054644,1.14321606 C3.09584822,1.02581243 2.91512849,0.956693263 3.08266985,0.868817596 C3.25021121,0.78094193 3.11799912,0.779137048 2.79877282,0.961176555 C2.47954652,1.14321606 2.30199358,1.29791732 2.02174026,1.27604364 C1.74148693,1.25416996 1.63651442,1.28367864 1.54643857,1.25416996 C1.45636273,1.22466127 1.01765657,1.58021247 0.891326017,1.48997777 C0.764995459,1.39974307 0.357161905,1.36512385 0.430580181,1.25416996 C0.503998457,1.14321606 0.602566398,1.08609205 0.712352993,1.14321606 C0.822139587,1.20034008 0.93122712,1.25746409 1.00525925,1.20034008 C1.07929139,1.14321606 1.29309582,0.947199566 1.23931729,0.908008581 C1.18553875,0.868817596 1.23755638,0.736882824 0.933062248,0.736882824 C0.628568113,0.736882824 0.521522278,0.883921736 0.449240068,0.791276279 C0.401051928,0.729512641 0.427359266,0.662803034 0.528162082,0.591147457 Z" id="lion" stroke="none" fill="#FFD100" fill-rule="evenodd" mask="url(#mask-8)"></path>
                    </g>
                </g>
            </g>
        </g>
    </g>
</svg>