<?xml version="1.0" encoding="UTF-8"?>
<svg width="16px" height="12px" viewBox="0 0 16 12" version="1.1" xmlns="http://www.w3.org/2000/svg" xmlns:xlink="http://www.w3.org/1999/xlink">
    <title>flags/S/GD - Grenada</title>
    <defs>
        <rect id="path-1" x="0" y="0" width="16" height="12"></rect>
        <polygon id="path-3" points="0 0 10 0 10 6 0 6"></polygon>
        <polygon id="path-5" points="0 0 5 3 0 6"></polygon>
        <polygon id="path-7" points="5 0 10 3 5 6"></polygon>
    </defs>
    <g id="Symbols" stroke="none" stroke-width="1" fill="none" fill-rule="evenodd">
        <g id="flag">
            <mask id="mask-2" fill="white">
                <use xlink:href="#path-1"></use>
            </mask>
            <g id="mask"></g>
            <g id="contents" mask="url(#mask-2)">
                <path d="M0,0 L16,0 L16,11 C16,11.5522847 15.5522847,12 15,12 L1,12 C0.44771525,12 6.76353751e-17,11.5522847 0,11 L0,0 L0,0 Z" id="background" fill="#C51918"></path>
                <g id="top" transform="translate(3.000000, 3.000000)">
                    <mask id="mask-4" fill="white">
                        <use xlink:href="#path-3"></use>
                    </mask>
                    <use fill="#FECA00" xlink:href="#path-3"></use>
                    <g id="triangles" mask="url(#mask-4)">
                        <mask id="mask-6" fill="white">
                            <use xlink:href="#path-5"></use>
                        </mask>
                        <use id="right" fill="#23875F" xlink:href="#path-5"></use>
                        <mask id="mask-8" fill="white">
                            <use xlink:href="#path-7"></use>
                        </mask>
                        <use id="left" fill="#23875F" transform="translate(7.500000, 3.000000) scale(-1, 1) translate(-7.500000, -3.000000) " xlink:href="#path-7"></use>
                    </g>
                    <circle id="Oval-22" fill="#C51918" mask="url(#mask-4)" cx="5" cy="3" r="2"></circle>
                    <polygon id="Star-5" fill="#FECA00" mask="url(#mask-4)" points="4.96472911 3.65664058 3.92926786 4.37485629 4.26013587 3.14472363 3.5 2.35891394 4.52926654 2.3164246 4.96472911 1.1000061 5.40019168 2.3164246 6.42770706 2.3164246 5.66932235 3.14472363 6.04913347 4.30225082"></polygon>
                </g>
                <g id="stars" transform="translate(4.000000, 0.000000)" fill="#FECA00">
                    <path d="M0.953765265,9.48358115 L1.19174677,10.0778891 L1.75328677,10.0778891 L1.33882742,10.4825728 L1.54639526,11.0481082 L0.953765265,10.7326811 L0.387882821,11.0835812 L0.568703107,10.4825728 L0.153286746,10.0986482 L0.715783763,10.0778891 L0.953765265,9.48358115 Z M3.95376526,9.48358115 L4.19174677,10.0778891 L4.75328677,10.0778891 L4.33882742,10.4825728 L4.54639526,11.0481082 L3.95376526,10.7326811 L3.38788282,11.0835812 L3.56870311,10.4825728 L3.15328675,10.0986482 L3.71578376,10.0778891 L3.95376526,9.48358115 Z M6.95376526,9.48358115 L7.19174677,10.0778891 L7.75328677,10.0778891 L7.33882742,10.4825728 L7.54639526,11.0481082 L6.95376526,10.7326811 L6.38788282,11.0835812 L6.56870311,10.4825728 L6.15328675,10.0986482 L6.71578376,10.0778891 L6.95376526,9.48358115 Z M0.954243772,0.621017224 L1.19222527,1.21532521 L1.75376528,1.21532521 L1.33930593,1.6200089 L1.54687376,2.18554425 L0.954243772,1.87011718 L0.388361328,2.22101725 L0.569181613,1.6200089 L0.153765253,1.23608431 L0.71626227,1.21532521 L0.954243772,0.621017224 Z M3.95424377,0.621017224 L4.19222527,1.21532521 L4.75376528,1.21532521 L4.33930593,1.6200089 L4.54687376,2.18554425 L3.95424377,1.87011718 L3.38836133,2.22101725 L3.56918161,1.6200089 L3.15376525,1.23608431 L3.71626227,1.21532521 L3.95424377,0.621017224 Z M6.95424377,0.621017224 L7.19222527,1.21532521 L7.75376528,1.21532521 L7.33930593,1.6200089 L7.54687376,2.18554425 L6.95424377,1.87011718 L6.38836133,2.22101725 L6.56918161,1.6200089 L6.15376525,1.23608431 L6.71626227,1.21532521 L6.95424377,0.621017224 Z" id="Combined-Shape"></path>
                </g>
                <g id="flame" transform="translate(3.000000, 5.000000)">
                    <path d="M1.3173608,1.38600327 C1.49688181,1.54581881 1.6355287,1.65293324 1.73330148,1.70734656 C1.76701447,1.57956958 1.74626063,1.37094166 1.67103997,1.08146281 C1.64993416,1.01226357 1.52363205,0.915632775 1.29213366,0.791570409 C1.2271118,1.01002248 1.23552085,1.20816676 1.3173608,1.38600327 Z" id="Path-71" fill="#C51918"></path>
                    <path d="M1.59787386,1.96509537 C1.1367953,1.74973664 0.882828751,1.48975802 0.835974219,1.18515952 C0.789119688,0.880561012 0.815376114,0.485467539 0.914743498,-0.000120904931 C1.66347864,0.170267985 2.06331643,0.43799678 2.11425688,0.803065481 C2.16519733,1.16813418 2.10611099,1.46534 1.93699787,1.69468294 C1.76381427,1.24965455 1.59550921,1.00245847 1.4320827,0.953094706 C1.4320827,1.3941473 1.48734642,1.73148086 1.59787386,1.96509537 Z" id="Path-70" fill="#FECA00"></path>
                </g>
            </g>
        </g>
    </g>
</svg>