<?xml version="1.0" encoding="UTF-8"?>
<svg width="16px" height="12px" viewBox="0 0 16 12" version="1.1" xmlns="http://www.w3.org/2000/svg" xmlns:xlink="http://www.w3.org/1999/xlink">
    <title>flags/S/GE - Georgia</title>
    <defs>
        <rect id="path-1" x="0" y="0" width="16" height="12"></rect>
        <rect id="path-3" x="0" y="0" width="16" height="12"></rect>
    </defs>
    <g id="Symbols" stroke="none" stroke-width="1" fill="none" fill-rule="evenodd">
        <g id="flag">
            <mask id="mask-2" fill="white">
                <use xlink:href="#path-1"></use>
            </mask>
            <g id="mask"></g>
            <g id="contents" mask="url(#mask-2)">
                <mask id="mask-4" fill="white">
                    <use xlink:href="#path-3"></use>
                </mask>
                <use id="background" fill="#F7FCFF" xlink:href="#path-3"></use>
                <g id="mark-1" mask="url(#mask-4)" fill="#E31D1C">
                    <polygon id="cross" points="7 0 9 0 9 5 16 5 16 7 9 7 9 12 7 12 7 7 0 7 0 5 7 5"></polygon>
                </g>
                <g id="mark-2" mask="url(#mask-4)" fill="#E31D1C">
                    <g transform="translate(3.000000, 1.000000)" id="Combined-Shape">
                        <path d="M1.99934141,7.61097545 L3.09999847,7.5 L3.09999847,8.5 C2.3662271,8.45405471 1.99934141,8.43771438 1.99934141,8.450979 C1.99934141,8.46424363 2.03289377,8.8139173 2.09999847,9.5 L1.09999847,9.5 L1.18010828,8.5 L0.0999984741,8.5 L0.0999984741,7.5 L1.18010828,7.61097545 L1.09999847,6.5 L2.09999847,6.5 L1.99934141,7.61097545 Z"></path>
                        <path d="M1.99934141,1.61097545 L3.09999847,1.5 L3.09999847,2.5 C2.3662271,2.45405471 1.99934141,2.43771438 1.99934141,2.450979 C1.99934141,2.46424363 2.03289377,2.8139173 2.09999847,3.5 L1.09999847,3.5 L1.18010828,2.5 L0.0999984741,2.5 L0.0999984741,1.5 L1.18010828,1.61097545 L1.09999847,0.5 L2.09999847,0.5 L1.99934141,1.61097545 Z"></path>
                        <path d="M8.99934141,1.61097545 L10.0999985,1.5 L10.0999985,2.5 C9.3662271,2.45405471 8.99934141,2.43771438 8.99934141,2.450979 C8.99934141,2.46424363 9.03289377,2.8139173 9.09999847,3.5 L8.09999847,3.5 L8.18010828,2.5 L7.09999847,2.5 L7.09999847,1.5 L8.18010828,1.61097545 L8.09999847,0.5 L9.09999847,0.5 L8.99934141,1.61097545 Z"></path>
                        <path d="M8.99934141,7.61097545 L10.0999985,7.5 L10.0999985,8.5 C9.3662271,8.45405471 8.99934141,8.43771438 8.99934141,8.450979 C8.99934141,8.46424363 9.03289377,8.8139173 9.09999847,9.5 L8.09999847,9.5 L8.18010828,8.5 L7.09999847,8.5 L7.09999847,7.5 L8.18010828,7.61097545 L8.09999847,6.5 L9.09999847,6.5 L8.99934141,7.61097545 Z"></path>
                    </g>
                </g>
            </g>
        </g>
    </g>
</svg>