<?xml version="1.0" encoding="UTF-8"?>
<svg width="16px" height="12px" viewBox="0 0 16 12" version="1.1" xmlns="http://www.w3.org/2000/svg" xmlns:xlink="http://www.w3.org/1999/xlink">
    <title>flags/S/GG - Guernsey</title>
    <defs>
        <rect id="path-1" x="0" y="0" width="16" height="12"></rect>
        <rect id="path-3" x="0" y="0" width="16" height="12"></rect>
    </defs>
    <g id="Symbols" stroke="none" stroke-width="1" fill="none" fill-rule="evenodd">
        <g id="flag">
            <mask id="mask-2" fill="white">
                <use xlink:href="#path-1"></use>
            </mask>
            <g id="mask"></g>
            <g id="contents" mask="url(#mask-2)">
                <mask id="mask-4" fill="white">
                    <use xlink:href="#path-3"></use>
                </mask>
                <use id="background" fill="#F7FCFF" xlink:href="#path-3"></use>
                <g id="mark-1" mask="url(#mask-4)">
                    <polygon id="cross" fill="#E31D1C" points="6 0 10 0 10 4 16 4 16 8 10 8 10 12 6 12 6 8 0 8 0 4 6 4"></polygon>
                    <path d="M9.48284814,1.52297524 L9.00427498,2.40260354 L8.99998645,2.40197524 L9,5 L12.5529865,4.99997524 L12.5529865,4.9714192 L13.4326148,4.47274186 L13.4326148,7.45283692 L12.6009865,6.99997524 L9,7 L8.99998645,9.52297524 L9.00427498,9.52297524 L9.48284814,10.4026035 L6.50275308,10.4026035 L6.99998645,9.52297524 L7,7 L3.38398645,6.99997524 L2.55298645,7.45283692 L2.55298645,4.47274186 L3.43261476,4.9714192 L3.43198645,4.99997524 L7,5 L6.99998645,2.39997524 L6.50275308,1.52297524 L9.48284814,1.52297524 Z" id="cross---yellow" fill="#FECA00"></path>
                </g>
            </g>
        </g>
    </g>
</svg>