<?xml version="1.0" encoding="UTF-8"?>
<svg width="16px" height="12px" viewBox="0 0 16 12" version="1.1" xmlns="http://www.w3.org/2000/svg" xmlns:xlink="http://www.w3.org/1999/xlink">
    <title>flags/S/GI - Gibraltar</title>
    <defs>
        <rect id="path-1" x="0" y="0" width="16" height="12"></rect>
    </defs>
    <g id="Symbols" stroke="none" stroke-width="1" fill="none" fill-rule="evenodd">
        <g id="flag">
            <mask id="mask-2" fill="white">
                <use xlink:href="#path-1"></use>
            </mask>
            <g id="mask"></g>
            <rect id="background" fill="#F7FCFF" mask="url(#mask-2)" x="0" y="0" width="16" height="12"></rect>
            <g id="contents" mask="url(#mask-2)">
                <polygon id="bottom" fill="#C51918" points="0 8 16 8 16 12 0 12"></polygon>
                <g id="mark" transform="translate(3.000000, 0.000000)">
                    <g id="castle">
                        <path d="M5.22898781,0.633333333 L5.22827079,1.05633333 L5.70227079,1.05633333 L5.70267202,0.633333333 L6.65004044,0.633333333 L6.65004044,1.48095238 L6.17027079,1.48033333 L6.13627079,3.81133333 L7.56427079,3.81133333 L7.58827079,2.75233333 L7.12372465,2.75238095 L7.12372465,1.9047619 L8.07109307,1.9047619 L8.07027079,2.32833333 L8.54427079,2.32833333 L8.54477729,1.9047619 L9.49214571,1.9047619 L9.49214571,2.75238095 L9.00927079,2.75233333 L8.98527079,3.81133333 L9.91427079,3.81190476 L9.91427079,4.65952381 L8.96690237,4.65952381 L8.96627079,7.20233333 L9.91427079,7.20238095 L9.91427079,8.05 L0.914270792,8.05 L0.914270792,7.20238095 L1.38727079,7.20233333 L1.387955,4.65952381 L0.914270792,4.65952381 L0.914270792,3.81190476 L1.91227079,3.81133333 L1.91227079,2.75233333 L1.43951413,2.75238095 L1.43951413,1.9047619 L2.38688255,1.9047619 L2.38627079,2.32833333 L2.86027079,2.32833333 L2.86056676,1.9047619 L3.80793518,1.9047619 L3.80793518,2.75238095 L3.33327079,2.75233333 L3.33327079,3.81133333 L4.71527079,3.81133333 L4.74927079,1.48033333 L4.28161939,1.48095238 L4.28161939,0.633333333 L5.22898781,0.633333333 Z" id="Combined-Shape" fill="#DB000B"></path>
                        <path d="M3.36056216,6.29252496 C3.66577216,6.29252496 3.91319374,6.53994654 3.91319374,6.84515654 L3.91319374,7.75919162 L3.91319374,7.75919162 L2.80793058,7.75919162 L2.80793058,6.84515654 C2.80793058,6.53994654 3.05535217,6.29252496 3.36056216,6.29252496 Z" id="Rectangle-24" fill="#272727"></path>
                        <path d="M7.41319374,6.29252496 C7.71840374,6.29252496 7.96582532,6.53994654 7.96582532,6.84515654 L7.96582532,7.75919162 L7.96582532,7.75919162 L6.86056216,7.75919162 L6.86056216,6.84515654 C6.86056216,6.53994654 7.10798375,6.29252496 7.41319374,6.29252496 Z" id="Rectangle-24" fill="#272727"></path>
                        <path d="M5.38687795,5.92585829 C5.79382461,5.92585829 6.12372006,6.25575374 6.12372006,6.6627004 L6.12372006,8.12585829 L6.12372006,8.12585829 L4.65003585,8.12585829 L4.65003585,6.6627004 C4.65003585,6.25575374 4.9799313,5.92585829 5.38687795,5.92585829 Z" id="Rectangle-24" fill="#272727"></path>
                    </g>
                    <g id="key" transform="translate(4.210526, 7.700000)" fill="#E8AA00">
                        <path d="M1.26452121,0.366623746 L0.820780409,0.664011976 L1.3117285,0.897654543 L1.73331462,0.621969936 L1.26452121,0.366623746 Z M1.3602377,0.064617263 L1.45064272,-0.101358496 L2.70675389,0.582830306 L1.35039029,1.46978685 L-0.187552746,0.737878599 L1.19187897,-0.186595225 L1.3602377,0.064617263 Z" id="Path-69" fill-rule="nonzero"></path>
                        <polygon id="Rectangle-25" points="0.368421053 2.56666667 1.10526316 2.56666667 1.10526316 3.3 0.368421053 3.3"></polygon>
                        <polygon id="Rectangle-26" points="0.789473684 1.3 1.66387878 1.3 1.66387878 3.3 0.789473684 3.3"></polygon>
                    </g>
                </g>
            </g>
        </g>
    </g>
</svg>