<?xml version="1.0" encoding="UTF-8"?>
<svg width="16px" height="12px" viewBox="0 0 16 12" version="1.1" xmlns="http://www.w3.org/2000/svg" xmlns:xlink="http://www.w3.org/1999/xlink">
    <title>flags/S/GP - Guadeloupe</title>
    <g id="Symbols" stroke="none" stroke-width="1" fill="none" fill-rule="evenodd">
        <g id="flags/S/GP---Guadeloupe" fill-rule="nonzero">
            <g id="flag">
                <polygon id="bg-blue" fill="#002488" points="-2.86481628e-11 4.21714475e-11 -2.86481628e-11 3.99999976 15.999999 3.99999976 15.999999 4.21717929e-11"></polygon>
                <polygon id="bg-red" fill="#DA121A" points="0.000349651734 3.99999976 0.000349651734 11.9999993 16.0003487 11.9999993 16.0003487 3.99999976"></polygon>
                <g id="deco" transform="translate(1.752000, 0.320000)" fill="#FCDD09">
                    <path d="M1.0221826,0.246709415 C0.829559317,0.564361619 0.806578236,0.818451159 0.938043657,1.25720167 C1.00134182,1.46195191 1.07087349,1.7677112 1.10008803,1.9334614 C1.13904075,2.16746167 1.13496074,2.189707 1.14043151,2.24058676 C1.1891224,2.24058676 1.29977417,2.24077201 1.35093983,2.24046488 C1.35829693,2.15945126 1.3642452,2.0659426 1.38151878,1.93735706 C1.40165904,1.78743192 1.4613926,1.47386584 1.52563858,1.25607433 C1.65402386,0.820854683 1.64542607,0.553834776 1.4457934,0.251584421 C1.37275705,0.139459289 1.27537526,0.04683418 1.23155345,0.04683418 C1.18773165,0.04683418 1.08859752,0.132441391 1.0221826,0.246709415 Z" id="path1350"></path>
                    <path d="M1.44190075,2.03271598 C1.42535671,2.11653073 1.42132237,2.14611792 1.41302632,2.24058369 C1.47204534,2.24082256 1.49524217,2.24122621 1.55277324,2.24088106 C1.56536723,2.17733161 1.57443635,2.1437826 1.60219279,2.05358178 C1.71222896,1.70472423 2.03631766,1.56471513 2.02171039,1.89134052 C2.0168413,1.98152812 1.97882476,2.03188537 1.93650756,2.08023378 C1.98881696,2.06717564 2.09991007,2.01526472 2.18998822,1.96407716 C2.69150446,1.66182681 2.49401209,0.921214378 1.96815041,1.14546464 C1.69548139,1.26246507 1.53148412,1.58635836 1.44190075,2.03271598 Z" id="path1354"></path>
                    <path d="M0.8539574,2.39154974 C1.07401664,2.393136 1.45434138,2.39598335 1.63701277,2.39439709 C1.63722701,2.31815066 1.63790868,2.35706178 1.63835713,2.29544841 C1.50387487,2.29362797 0.988899838,2.29663276 0.854999872,2.29663276 C0.855306625,2.33649485 0.85469312,2.35579555 0.8539574,2.39154958 L0.8539574,2.39154974 Z" id="path1356"></path>
                    <path d="M0.715429949,2.76203755 C0.715429949,2.76203755 0.825049956,2.774378 0.927278976,2.76691256 C1.02950805,2.75944712 1.08623124,2.74667446 1.14664987,2.71728851 C1.13024464,2.83925589 1.12930257,2.95703778 1.12930257,2.95703778 C1.1441717,3.11399932 1.16099528,3.15416966 1.1949916,3.23056251 C1.24111703,3.29428717 1.26794065,3.29463675 1.30184972,3.22734793 C1.33849882,3.15200379 1.36262433,3.07451406 1.37027888,2.95630443 C1.36761744,2.86770891 1.36266971,2.82711196 1.34171179,2.71881068 C1.41244695,2.74945667 1.45712367,2.75739952 1.56265155,2.76691246 C1.67063749,2.77664697 1.76989339,2.77187487 1.76989339,2.77187487 C1.76989339,2.77187487 1.62402701,2.69858253 1.55982421,2.60869327 C1.49644902,2.51996281 1.50996449,2.53504861 1.4638827,2.42074094 C1.40788817,2.41808747 1.12398742,2.42069964 1.03390926,2.42069964 C0.984573311,2.52491011 0.97961312,2.54667213 0.918675587,2.61243211 C0.839347891,2.69803775 0.715429949,2.76203755 0.715429949,2.76203755 Z" id="path1358"></path>
                    <path d="M0.517820429,1.14530479 C0.79048945,1.26230493 0.954486719,1.58619821 1.04407008,2.03255583 C1.06061413,2.11637059 1.06464846,2.14595778 1.07294451,2.24042354 C1.0139255,2.24066242 0.990728668,2.24106607 0.933197598,2.24072092 C0.9206036,2.17717146 0.911534483,2.14362245 0.883778042,2.05342164 C0.773741875,1.70456408 0.449653174,1.56455499 0.464260443,1.89118037 C0.469129533,1.98136798 0.50714607,2.03172523 0.54946328,2.08007363 C0.49715387,2.06701549 0.38606077,2.01510458 0.295982611,1.96391702 C-0.205533623,1.66166666 -0.00804125286,0.921054234 0.517820429,1.1453045 L0.517820429,1.14530479 Z" id="path1317"></path>
                </g>
                <g id="deco" transform="translate(6.792000, 0.320000)" fill="#FCDD09">
                    <path d="M1.0221826,0.246709415 C0.829559317,0.564361619 0.806578236,0.818451159 0.938043657,1.25720167 C1.00134182,1.46195191 1.07087349,1.7677112 1.10008803,1.9334614 C1.13904075,2.16746167 1.13496074,2.189707 1.14043151,2.24058676 C1.1891224,2.24058676 1.29977417,2.24077201 1.35093983,2.24046488 C1.35829693,2.15945126 1.3642452,2.0659426 1.38151878,1.93735706 C1.40165904,1.78743192 1.4613926,1.47386584 1.52563858,1.25607433 C1.65402386,0.820854683 1.64542607,0.553834776 1.4457934,0.251584421 C1.37275705,0.139459289 1.27537526,0.04683418 1.23155345,0.04683418 C1.18773165,0.04683418 1.08859752,0.132441391 1.0221826,0.246709415 Z" id="path1328"></path>
                    <path d="M1.96815041,1.14546493 C1.69548139,1.26246507 1.53148412,1.58635836 1.44190075,2.03271598 C1.42535671,2.11653073 1.42132237,2.14611792 1.41302632,2.24058369 C1.47204534,2.24082256 1.49524217,2.24122621 1.55277324,2.24088106 C1.56536723,2.17733161 1.57443635,2.1437826 1.60219279,2.05358178 C1.71222896,1.70472423 2.03631766,1.56471513 2.02171039,1.89134052 C2.0168413,1.98152812 1.97882476,2.03188537 1.93650756,2.08023378 C1.98881696,2.06717564 2.09991007,2.01526472 2.18998822,1.96407716 C2.69150446,1.66182681 2.49401209,0.921214378 1.96815041,1.14546464 L1.96815041,1.14546493 Z" id="path1330"></path>
                    <path d="M0.8539574,2.39154974 C1.07401664,2.393136 1.45434138,2.39598335 1.63701277,2.39439709 C1.63722701,2.31815066 1.63790868,2.35706178 1.63835713,2.29544841 C1.50387487,2.29362797 0.988899838,2.29663276 0.854999872,2.29663276 C0.855306625,2.33649485 0.85469312,2.35579555 0.8539574,2.39154958 L0.8539574,2.39154974 Z" id="path1332"></path>
                    <path d="M0.918675587,2.61243221 C0.839347891,2.69803775 0.715429949,2.76203755 0.715429949,2.76203755 C0.715429949,2.76203755 0.825049956,2.774378 0.927278976,2.76691256 C1.02950805,2.75944712 1.08623124,2.74667446 1.14664987,2.71728851 C1.13024464,2.83925589 1.12930257,2.95703778 1.12930257,2.95703778 C1.1441717,3.11399932 1.16099528,3.15416966 1.1949916,3.23056251 C1.24111703,3.29428717 1.26794065,3.29463675 1.30184972,3.22734793 C1.33849882,3.15200379 1.36262433,3.07451406 1.37027888,2.95630443 C1.36761744,2.86770891 1.36266971,2.82711196 1.34171179,2.71881068 C1.41244695,2.74945667 1.45712367,2.75739952 1.56265155,2.76691246 C1.67063749,2.77664697 1.76989339,2.77187487 1.76989339,2.77187487 C1.76989339,2.77187487 1.62402701,2.69858253 1.55982421,2.60869327 C1.49644902,2.51996281 1.50996449,2.53504861 1.4638827,2.42074094 C1.40788817,2.41808747 1.12398742,2.42069964 1.03390926,2.42069964 C0.984573311,2.52491011 0.97961312,2.54667213 0.918675587,2.61243211 L0.918675587,2.61243221 Z" id="path1334"></path>
                    <path d="M0.517820429,1.14530479 C0.79048945,1.26230493 0.954486719,1.58619821 1.04407008,2.03255583 C1.06061413,2.11637059 1.06464846,2.14595778 1.07294451,2.24042354 C1.0139255,2.24066242 0.990728668,2.24106607 0.933197598,2.24072092 C0.9206036,2.17717146 0.911534483,2.14362245 0.883778042,2.05342164 C0.773741875,1.70456408 0.449653174,1.56455499 0.464260443,1.89118037 C0.469129533,1.98136798 0.50714607,2.03172523 0.54946328,2.08007363 C0.49715387,2.06701549 0.38606077,2.01510458 0.295982611,1.96391702 C-0.205533623,1.66166666 -0.00804125286,0.921054234 0.517820429,1.1453045 L0.517820429,1.14530479 Z" id="path1336"></path>
                </g>
                <g id="deco" transform="translate(11.831999, 0.320000)" fill="#FCDD09">
                    <path d="M1.0221826,0.246709415 C0.829559317,0.564361619 0.806578236,0.818451159 0.938043657,1.25720167 C1.00134182,1.46195191 1.07087349,1.7677112 1.10008803,1.9334614 C1.13904075,2.16746167 1.13496074,2.189707 1.14043151,2.24058676 C1.1891224,2.24058676 1.29977417,2.24077201 1.35093983,2.24046488 C1.35829693,2.15945126 1.3642452,2.0659426 1.38151878,1.93735706 C1.40165904,1.78743192 1.4613926,1.47386584 1.52563858,1.25607433 C1.65402386,0.820854683 1.64542607,0.553834776 1.4457934,0.251584421 C1.37275705,0.139459289 1.27537526,0.04683418 1.23155345,0.04683418 C1.18773165,0.04683418 1.08859752,0.132441391 1.0221826,0.246709415 Z" id="path1340"></path>
                    <path d="M1.96815041,1.14546493 C1.69548139,1.26246507 1.53148412,1.58635836 1.44190075,2.03271598 C1.42535671,2.11653073 1.42132237,2.14611792 1.41302632,2.24058369 C1.47204534,2.24082256 1.49524217,2.24122621 1.55277324,2.24088106 C1.56536723,2.17733161 1.57443635,2.1437826 1.60219279,2.05358178 C1.71222896,1.70472423 2.03631766,1.56471513 2.02171039,1.89134052 C2.0168413,1.98152812 1.97882476,2.03188537 1.93650756,2.08023378 C1.98881696,2.06717564 2.09991007,2.01526472 2.18998822,1.96407716 C2.69150446,1.66182681 2.49401209,0.921214378 1.96815041,1.14546464 L1.96815041,1.14546493 Z" id="path1342"></path>
                    <path d="M0.8539574,2.39154974 C1.07401664,2.393136 1.45434138,2.39598335 1.63701277,2.39439709 C1.63722701,2.31815066 1.63790868,2.35706178 1.63835713,2.29544841 C1.50387487,2.29362797 0.988899838,2.29663276 0.854999872,2.29663276 C0.855306625,2.33649485 0.85469312,2.35579555 0.8539574,2.39154958 L0.8539574,2.39154974 Z" id="path1344"></path>
                    <path d="M0.918675587,2.61243221 C0.839347891,2.69803775 0.715429949,2.76203755 0.715429949,2.76203755 C0.715429949,2.76203755 0.825049956,2.774378 0.927278976,2.76691256 C1.02950805,2.75944712 1.08623124,2.74667446 1.14664987,2.71728851 C1.13024464,2.83925589 1.12930257,2.95703778 1.12930257,2.95703778 C1.1441717,3.11399932 1.16099528,3.15416966 1.1949916,3.23056251 C1.24111703,3.29428717 1.26794065,3.29463675 1.30184972,3.22734793 C1.33849882,3.15200379 1.36262433,3.07451406 1.37027888,2.95630443 C1.36761744,2.86770891 1.36266971,2.82711196 1.34171179,2.71881068 C1.41244695,2.74945667 1.45712367,2.75739952 1.56265155,2.76691246 C1.67063749,2.77664697 1.76989339,2.77187487 1.76989339,2.77187487 C1.76989339,2.77187487 1.62402701,2.69858253 1.55982421,2.60869327 C1.49644902,2.51996281 1.50996449,2.53504861 1.4638827,2.42074094 C1.40788817,2.41808747 1.12398742,2.42069964 1.03390926,2.42069964 C0.984573311,2.52491011 0.97961312,2.54667213 0.918675587,2.61243211 L0.918675587,2.61243221 Z" id="path1346"></path>
                    <path d="M0.517820429,1.14530479 C0.79048945,1.26230493 0.954486719,1.58619821 1.04407008,2.03255583 C1.06061413,2.11637059 1.06464846,2.14595778 1.07294451,2.24042354 C1.0139255,2.24066242 0.990728668,2.24106607 0.933197598,2.24072092 C0.9206036,2.17717146 0.911534483,2.14362245 0.883778042,2.05342164 C0.773741875,1.70456408 0.449653174,1.56455499 0.464260443,1.89118037 C0.469129533,1.98136798 0.50714607,2.03172523 0.54946328,2.08007363 C0.49715387,2.06701549 0.38606077,2.01510458 0.295982611,1.96391702 C-0.205533623,1.66166666 -0.00804125286,0.921054234 0.517820429,1.1453045 L0.517820429,1.14530479 Z" id="path1348"></path>
                </g>
                <g id="grass" transform="translate(1.972037, 4.916457)" fill="#008000">
                    <path d="M3.72254231,1.70025422 C3.8282595,1.74960147 3.96324624,1.78848939 4.03132098,1.79078454 C4.11177368,1.79349577 4.09041688,1.77369984 3.94026292,1.71522463 C3.82272602,1.66929452 3.6821571,1.59206687 3.61976045,1.54418018 C3.50790285,1.4526595 3.50790285,1.4526595 3.51962494,1.53317461 C3.52632359,1.57918272 3.61063553,1.65069979 3.72254231,1.70025422 L3.72254231,1.70025422 Z" id="path1415"></path>
                    <path d="M1.2849582,1.55765762 C1.20218367,1.6210327 1.20705276,1.6259077 1.38720908,1.59665767 C1.49432905,1.58203265 1.65013992,1.55278262 1.72804536,1.53328259 C1.85464169,1.49915755 1.84490351,1.49428255 1.62579447,1.48940754 C1.47972178,1.48453254 1.34338727,1.51378257 1.2849582,1.55765762 Z" id="path2241"></path>
                    <path d="M0.0753193981,1.04509464 C0.878719093,1.19134482 2.49038777,1.73247045 2.39300597,1.82509556 C2.36866053,1.84947059 1.91583519,1.73734546 1.85253702,1.69347041 C1.82819157,1.66909538 1.58960618,1.67884539 1.32667534,1.71297043 C0.834897286,1.76659549 0.752122762,1.81047054 0.761860941,2.01034578 C0.766730031,2.10784589 0.766730031,2.10784589 0.791075479,2.01034578 C0.834897286,1.82997057 0.907933631,1.79097052 1.18547174,1.79097052 C1.4873553,1.79097052 2.31510054,1.91284566 2.68028226,2.01034578 C3.16719123,2.14684594 3.1817985,2.14684594 3.02111854,2.05909584 C2.81174768,1.9420957 2.49525686,1.72759545 2.43682778,1.66422037 C2.32970781,1.54234523 0.386941136,1.0060946 0.104533936,1.01584461 C-0.0269314845,1.02559462 -0.0318005742,1.02559462 0.0753193981,1.04509464 Z" id="path2231"></path>
                    <path d="M2.92653404,1.60570763 C2.96548675,1.67395771 3.34527575,1.86408293 3.37449029,1.8348329 C3.38909755,1.82020788 3.34527575,1.78120783 3.28684667,1.74708279 C3.22354851,1.71295775 3.14077398,1.65933269 3.10669035,1.62033265 C3.02878492,1.54720756 2.88271223,1.53258254 2.92653404,1.60570763 L2.92653404,1.60570763 Z" id="path2243"></path>
                    <path d="M2.95582892,2.06887412 C2.99478163,2.1371242 3.37457063,2.32724943 3.40378516,2.29799939 C3.41839243,2.28337437 3.37457063,2.24437433 3.31614155,2.21024929 C3.25284338,2.17612425 3.17006886,2.12249919 3.13598523,2.08349914 C3.0580798,2.01037405 2.91200711,1.99574904 2.95582892,2.06887412 L2.95582892,2.06887412 Z" id="path1533"></path>
                    <path d="M2.41147638,1.48842352 C2.41848202,1.48165116 2.52803825,1.51804333 2.65801056,1.56858251 C2.78798312,1.61912169 2.95587882,1.6668753 3.02811079,1.6715848 C3.15542166,1.67725687 3.60621903,1.89199575 3.60187458,1.94363401 C3.60103466,1.99188754 2.91941275,1.78345692 2.68048579,1.66206221 C2.39372124,1.5191424 2.38695637,1.51213043 2.41147638,1.48842352 Z" id="path3304"></path>
                    <path d="M3.21796512,1.84470527 C3.12713104,1.8798526 3.03578302,1.9434217 3.00740061,1.98889819 C2.97385769,2.04264318 3.00224449,2.04315725 3.11939868,1.98423695 C3.21126452,1.93823737 3.3439051,1.90050288 3.41667705,1.8942948 C3.55293244,1.88756437 3.55293244,1.88756437 3.46621931,1.8333136 C3.41666853,1.8023132 3.31137958,1.80542369 3.21796512,1.84470527 L3.21796512,1.84470527 Z" id="path3302"></path>
                    <path d="M0.939252589,0.201724991 C1.09019437,0.489350329 1.70369966,1.15235111 2.04453594,1.40585141 C2.13704864,1.47410149 2.30259769,1.54235157 2.40484857,1.55697658 L2.59474307,1.58622662 L2.45353947,1.43022643 C2.22469226,1.18160114 1.8741178,0.703850581 1.76212874,0.494225335 C1.6404015,0.265100066 1.62579423,0.323600135 1.72804511,0.616100478 C1.76699783,0.733100616 1.9228087,0.96710089 2.07375048,1.13285109 C2.22469226,1.30347629 2.32207405,1.44485145 2.2977286,1.44485145 C2.23443044,1.44485145 1.82542691,0.962225885 1.53328153,0.542975392 C1.2167907,0.0847248539 1.20218343,0.0700998367 1.28982704,0.323600135 C1.33364885,0.445475278 1.43103064,0.62585049 1.51380517,0.723350604 C1.5917106,0.825725724 1.6404015,0.908600822 1.61605605,0.908600822 C1.56736515,0.908600822 1.35312521,0.664850535 1.08532528,0.313850123 C1.01228893,0.211475003 0.910038051,0.0798498482 0.866216244,0.0213497795 C0.817525348,-0.042025295 0.851608975,0.0408498024 0.939252589,0.201724991 L0.939252589,0.201724991 Z" id="path2215"></path>
                    <path d="M8.30209325,3.96642525 C8.46020695,4.03502463 9.28051782,4.24215143 9.86092718,4.41233033 C10.4413365,4.58250897 11.1199484,4.7784279 11.2701564,4.79953545 C11.4848572,4.33100182 11.0941291,5.2073643 11.317118,4.67622389 C11.0272426,4.60234781 9.88465913,4.33318753 9.42612916,4.20126598 C9.03084454,4.09045173 8.47008365,3.91759427 8.32646377,3.88593306 C8.18284388,3.85427184 8.18087263,3.91365673 8.30209325,3.96642525 Z" id="path2267"></path>
                    <path d="M8.40239479,3.84479556 C8.56280354,3.90782866 9.38983424,4.08616587 9.97582236,4.23596042 C10.5618098,4.38575472 11.2468374,4.55784242 11.3976895,4.57368863 C11.5959282,4.09793852 11.2359854,4.98741988 11.4403245,4.44881121 C11.1480503,4.38510878 9.99678063,4.15603665 9.53393178,4.04021724 C9.13502528,3.94328262 8.56858096,3.79012457 8.42394489,3.76350094 C8.27930883,3.73687732 8.27940864,3.79629486 8.40239479,3.84479556 L8.40239479,3.84479556 Z" id="path2162"></path>
                    <path d="M8.17528779,4.05480959 C8.32959873,4.1316002 9.13795842,4.38142693 9.70867684,4.58178577 C10.279395,4.78214412 10.9468357,5.01335369 11.0957346,5.04230318 C11.3346324,4.58566188 10.89863,5.44034911 11.1490777,4.9216212 C10.8634611,4.83265722 9.73651318,4.50399506 9.28550766,4.34822741 C8.89655724,4.2168521 8.34560027,4.01484795 8.20383234,3.97570482 C8.06206417,3.93656121 8.05699179,3.99576157 8.17528779,4.05480959 Z" id="path2183"></path>
                    <path d="M8.07682189,4.15463679 C8.22690744,4.23940802 9.02110027,4.53125 9.5805633,4.7612396 C10.1400261,4.99122848 10.7944661,5.25709496 10.9416477,5.29380692 C11.2040877,4.85030961 10.7240064,5.68097939 11.0012261,5.17608553 C10.7206511,5.07227716 9.61242759,4.68501401 9.17018255,4.50582733 C8.7886324,4.35425146 8.24898998,4.12365418 8.10946232,4.0771359 C7.96993466,4.03061762 7.96177455,4.08947088 8.07682189,4.15463679 L8.07682189,4.15463679 Z" id="path2185"></path>
                    <path d="M7.98408862,4.28038976 C8.13112758,4.3703536 8.91466416,4.68976836 9.46576964,4.93916683 C10.0168749,5.18856432 10.6616485,5.4771359 10.8074612,5.51896833 C11.0852004,5.08491171 10.5764565,5.89830008 10.8711065,5.40340071 C10.5943209,5.28985159 9.50027128,4.86410101 9.0645418,4.66957048 C8.68850736,4.50475458 8.15723174,4.25544167 8.01941046,4.20407642 C7.88158917,4.15271116 7.87138283,4.21124341 7.98408862,4.28038976 L7.98408862,4.28038976 Z" id="path2187"></path>
                </g>
                <g id="sun" transform="translate(4.573818, 4.682866)" fill="#FCDD09">
                    <path d="M3.73977976,5.77766625 C3.96585899,5.93534238 4.21373861,5.9001427 4.11784761,5.68445627 L4.06190351,5.55869043 L4.23956132,5.63612972 C4.49342837,5.74332735 4.72862692,5.65734176 4.58999488,5.46634122 L4.50914921,5.35490119 L4.69902752,5.39366695 C4.96959797,5.44568255 5.18176794,5.31263083 5.00653581,5.15464729 L4.90431962,5.06248254 L5.09809744,5.06091469 C5.37354994,5.05547334 5.5534799,4.88122724 5.34926247,4.76317766 L5.23012795,4.69428466 L5.41936146,4.65244469 C5.68765975,4.58970011 5.82742787,4.38176069 5.60316022,4.30880974 L5.47232719,4.26632419 L5.6487261,4.18596439 C5.89811026,4.06877559 5.9916984,3.83627325 5.75717536,3.8116181 L5.6204163,3.79726155 L5.77627372,3.68191727 C5.99587425,3.51541817 6.03913727,3.26846706 5.80461423,3.29318369 L5.66785518,3.30754024 L5.79632394,3.16228392 C5.97656095,2.95369891 5.96759515,2.70321246 5.7433275,2.77616341 L5.61249447,2.8186797 L5.70798631,2.64990569 C5.84096868,2.40833444 5.78017323,2.16522608 5.57595579,2.28321418 L5.45682128,2.35207643 L5.51522176,2.16707061 C5.59514628,1.90311912 5.48519249,1.67790265 5.30996036,1.83588619 L5.20774418,1.92805094 L5.22644338,1.73495995 C5.24977901,1.46006428 5.09548753,1.26270014 4.95688619,1.45370067 L4.87604053,1.56514071 L4.85424014,1.37235713 C4.82000432,1.09869115 4.62806879,0.937694882 4.53214709,1.15338131 L4.47620299,1.27923938 L4.41482416,1.09518655 C4.32449072,0.834616692 4.10335495,0.717089726 4.05431943,0.94802422 L4.02573329,1.08276675 L3.92747802,0.915560585 C3.78500788,0.679399937 3.54428248,0.610599165 3.54428248,0.846667587 L3.54428248,0.984361357 L3.41344944,0.841256981 C3.22510638,0.640019335 2.97529236,0.622711544 3.02432788,0.853707523 L3.05288331,0.988388569 L2.89521431,0.875626625 C2.66913508,0.717950504 2.42125546,0.753057958 2.51711576,0.968744381 L2.57305985,1.09460245 L2.39540204,1.01713241 C2.14153499,0.909965527 1.90633644,0.995951121 2.04499919,1.18695166 L2.12581415,1.29833021 L1.93596655,1.2595337 C1.6653961,1.20754885 1.45322613,1.34060056 1.62845826,1.49855336 L1.73067444,1.59071812 L1.53689663,1.59228596 C1.26144413,1.59775805 1.08151417,1.77206564 1.2857316,1.89011522 L1.40483541,1.95897748 L1.21563261,2.00081744 C0.947334314,2.06350054 0.807566194,2.27143996 1.03183385,2.34439092 L1.16266688,2.38696869 L0.986267964,2.46729775 C0.736853106,2.58451729 0.643264962,2.81692741 0.877788007,2.84161329 L1.01457776,2.85603133 L0.858720344,2.97131412 C0.639089113,3.13787471 0.59582609,3.38476434 0.830349135,3.36007845 L0.967138892,3.3457219 L0.838639423,3.49091674 C0.658402415,3.69956322 0.667398913,3.95004968 0.891666564,3.87709873 L1.02249959,3.83455169 L0.926977051,4.00338719 C0.793994686,4.2449277 0.854790133,4.48803606 1.05900757,4.37001722 L1.17814208,4.30112422 L1.11977231,4.48613005 C1.03984779,4.75014302 1.14980158,4.975298 1.32503371,4.81731446 L1.42724989,4.72514971 L1.40855069,4.91833293 C1.38521506,5.19313637 1.53950654,5.39050052 1.67810788,5.19949998 L1.75895354,5.08812143 L1.78078463,5.28093575 C1.81502045,5.55460173 2.00692527,5.71550577 2.10284698,5.49985009 L2.15876037,5.3740535 L2.22013921,5.5580141 C2.31047264,5.81867619 2.53160841,5.93611093 2.58064393,5.70517643 L2.60923007,5.57049539 L2.70748534,5.73773229 C2.84995548,5.97383146 3.09068089,6.04269371 3.09068089,5.80659455 L3.09068089,5.66887004 L3.22151392,5.81200516 C3.40985699,6.01327354 3.6596403,6.03055059 3.61063549,5.79958536 L3.58204934,5.66490431 L3.73977976,5.77766625 Z"></path>
                </g>
            </g>
        </g>
    </g>
</svg>