<?xml version="1.0" encoding="UTF-8"?>
<svg width="16px" height="12px" viewBox="0 0 16 12" version="1.1" xmlns="http://www.w3.org/2000/svg" xmlns:xlink="http://www.w3.org/1999/xlink">
    <title>flags/S/GT - Guatemala</title>
    <defs>
        <rect id="path-1" x="0" y="0" width="16" height="12"></rect>
    </defs>
    <g id="Symbols" stroke="none" stroke-width="1" fill="none" fill-rule="evenodd">
        <g id="flag">
            <mask id="mask-2" fill="white">
                <use xlink:href="#path-1"></use>
            </mask>
            <g id="mask"></g>
            <g id="contents" mask="url(#mask-2)">
                <polygon id="bottom" fill="#58A5FF" points="11 0 16 0 16 12 11 12"></polygon>
                <polygon id="left" fill="#58A5FF" points="0 0 6 0 6 12 0 12"></polygon>
                <polygon id="middle" fill="#FFFFFF" points="5 0 11 0 11 12 5 12"></polygon>
                <g id="mark" transform="translate(4.300000, 3.800000)">
                    <polygon id="Path-401" fill="#C6C6C6" fill-rule="nonzero" points="2.08226982 4.71870134 1.71900675 4.37513192 5.56273701 0.311076234 5.92600008 0.654645651"></polygon>
                    <path d="M2.19238928,0.252717995 C1.37209046,0.747775638 0.961941042,1.61583389 0.961941042,2.85689275 C0.961941042,4.09795161 1.96049049,4.8024312 3.95758938,4.97033151 C2.76246305,4.24137575 2.0866904,3.61596491 1.93027143,3.09409896 C1.77385246,2.57223302 1.86122508,1.62510603 2.19238928,0.252717995 Z" id="Path-73" fill="#5AB92D"></path>
                    <path d="M4.69238928,0.252717995 C3.87209046,0.747775638 3.46194104,1.61583389 3.46194104,2.85689275 C3.46194104,4.09795161 4.46049049,4.8024312 6.45758938,4.97033151 C5.2016539,4.2500601 4.48567765,3.54558051 4.30966061,2.85689275 C4.13364358,2.16820499 4.2612198,1.30014674 4.69238928,0.252717995 Z" id="Path-73" fill="#5AB92D" transform="translate(4.959765, 2.611525) scale(-1, 1) translate(-4.959765, -2.611525) "></path>
                    <path d="M3.10383152,-0.000219161605 L3.60178464,0.0449770022 C3.58540928,0.225394104 3.6839654,0.409022953 3.92764752,0.606113489 C4.71198056,1.24048346 5.13354988,2.03179975 4.80317562,2.93102815 C4.56344601,3.58353563 4.23783427,4.1344813 3.82584301,4.58196438 L3.4580032,4.24329954 C3.8238358,3.84595155 4.11595001,3.3516848 4.33384842,2.75859851 C4.5711346,2.11274169 4.24995778,1.50986942 3.61321801,0.994873157 C3.25042248,0.701443483 3.07056214,0.366329396 3.10383152,-0.000219161605 Z" id="Path-75" fill="#5AB92D" fill-rule="nonzero"></path>
                    <path d="M2.7869209,1.10446595 L3.3115524,2.587547 L2.92590765,2.587547 C2.83324982,2.89957005 2.87435949,3.05558157 3.04923665,3.05558157 C3.22411382,3.05558157 3.76215384,3.05558157 4.66335671,3.05558157 C4.78051912,2.97734447 4.80980973,2.82133295 4.75122852,2.587547 C4.69264731,2.35376105 4.5153598,1.91418055 4.21936597,1.26880549 C4.34584587,1.16169793 4.40908581,1.06844727 4.40908581,0.989053511 C4.40908581,0.909659747 4.34584587,0.865590657 4.21936597,0.856846239 L3.02180839,0.856846239 C2.91990378,0.874461986 2.84160795,0.95700189 2.7869209,1.10446595 Z" id="Path-74" fill="#EFE298"></path>
                </g>
            </g>
        </g>
    </g>
</svg>