<?xml version="1.0" encoding="UTF-8"?>
<svg width="16px" height="12px" viewBox="0 0 16 12" version="1.1" xmlns="http://www.w3.org/2000/svg" xmlns:xlink="http://www.w3.org/1999/xlink">
    <title>flags/S/HK - Hong Kong</title>
    <defs>
        <rect id="path-1" x="0" y="0" width="16" height="12"></rect>
        <rect id="path-3" x="0" y="0" width="16" height="12"></rect>
    </defs>
    <g id="Symbols" stroke="none" stroke-width="1" fill="none" fill-rule="evenodd">
        <g id="flag">
            <mask id="mask-2" fill="white">
                <use xlink:href="#path-1"></use>
            </mask>
            <g id="mask"></g>
            <g id="contents" mask="url(#mask-2)">
                <mask id="mask-4" fill="white">
                    <use xlink:href="#path-3"></use>
                </mask>
                <use id="background" fill="#EA1A1A" xlink:href="#path-3"></use>
                <path d="M9.119072,5.913528 C9.119072,5.913528 12.835028,7.025988 10.343012,9.851808 C10.343012,9.851808 8.963348,9.273216 9.119072,7.827 C9.274916,6.38082 9.563972,6.069228 9.119072,5.913528 Z M8.142368,6.780852 C8.142368,6.780852 8.808536,10.602012 5.166836,9.636348 C5.166836,9.636348 5.16620148,9.62679477 5.16573194,9.60895712 L5.16561774,9.53185973 C5.17254685,9.18391413 5.28580976,8.0624976 6.430928,7.636416 C7.794248,7.129056 8.20208,7.248456 8.142368,6.780852 Z M5.87906,4.761156 C6.6161612,5.9299752 6.62297384,6.37089927 7.00364945,6.27981096 L7.059,6.263 L7.04879165,6.26803089 C6.77333619,6.37160746 3.47184,7.5394085 3.662372,3.933756 C3.662372,3.933756 5.103092,3.530676 5.87906,4.761156 Z M12.73934,5.137656 C12.73934,5.137656 11.899688,6.375684 10.512716,5.937336 C9.18871945,5.51891291 8.90239226,5.18533676 8.66986973,5.50853866 L8.64,5.552 L8.6455827,5.54344133 C8.78361162,5.29570395 10.5527058,2.25660768 12.73934,5.137656 Z M8.49434,1.701564 C8.49434,1.701564 8.50076947,1.70865717 8.51221381,1.72234565 L8.56017693,1.78269917 C8.77080203,2.05970221 9.37836032,3.00894912 8.745296,4.054104 C8.02735314,5.23901829 7.63587559,5.44022645 7.89151641,5.74133328 L7.931,5.784 L7.92195782,5.77569403 C7.71747377,5.58656003 5.17537976,3.14676424 8.49434,1.701564 Z" id="Combined-shape-1061" fill="#FFFFFF" mask="url(#mask-4)"></path>
                <path d="M5.08062126,5.10403922 C5.56589054,5.86775826 6.20587367,6.24961778 7.00057064,6.24961778" id="Path-76" stroke="#EA1A1A" stroke-width="0.5" mask="url(#mask-4)"></path>
                <path d="M6.90861199,4.08265738 C7.41353299,4.84435288 8.06334197,5.22520063 8.85803894,5.22520063" id="Path-76" stroke="#EA1A1A" stroke-width="0.5" mask="url(#mask-4)" transform="translate(7.883325, 4.653929) rotate(62.000000) translate(-7.883325, -4.653929) "></path>
                <path d="M8.87325565,4.56408386 C9.4390353,5.42279824 10.1192736,5.85215543 10.9139706,5.85215543" id="Path-76" stroke="#EA1A1A" stroke-width="0.5" mask="url(#mask-4)" transform="translate(9.893613, 5.208120) rotate(132.000000) translate(-9.893613, -5.208120) "></path>
                <path d="M8.43902316,6.04906645 C9.00480282,6.90778083 9.68504113,7.33713802 10.4797381,7.33713802" id="Path-76" stroke="#EA1A1A" stroke-width="0.5" mask="url(#mask-4)" transform="translate(9.459381, 6.693102) rotate(202.000000) translate(-9.459381, -6.693102) "></path>
                <path d="M6.62552153,6.85203082 C7.19130119,7.7107452 7.8715395,8.14010239 8.66623647,8.14010239" id="Path-76" stroke="#EA1A1A" stroke-width="0.5" mask="url(#mask-4)" transform="translate(7.645879, 7.496067) rotate(272.000000) translate(-7.645879, -7.496067) "></path>
            </g>
        </g>
    </g>
</svg>