<?xml version="1.0" encoding="UTF-8"?>
<svg width="16px" height="12px" viewBox="0 0 16 12" version="1.1" xmlns="http://www.w3.org/2000/svg" xmlns:xlink="http://www.w3.org/1999/xlink">
    <title>flags/S/HM - Heard and McDonald Islands</title>
    <defs>
        <rect id="path-1" x="0" y="0" width="16" height="12"></rect>
        <rect id="path-3" x="0" y="0" width="9" height="7"></rect>
    </defs>
    <g id="Symbols" stroke="none" stroke-width="1" fill="none" fill-rule="evenodd">
        <g id="flag">
            <mask id="mask-2" fill="white">
                <use xlink:href="#path-1"></use>
            </mask>
            <g id="mask"></g>
            <g id="contents" mask="url(#mask-2)">
                <polygon id="left" fill="#2E42A5" points="0 0 16 0 16 12 0 12"></polygon>
                <g id="flag">
                    <mask id="mask-4" fill="white">
                        <use xlink:href="#path-3"></use>
                    </mask>
                    <g id="mask"></g>
                    <g id="contents" mask="url(#mask-4)">
                        <g transform="translate(-2.000000, -1.000000)">
                            <g id="stripe">
                                <polygon id="white" fill="#F7FCFF" fill-rule="nonzero" transform="translate(6.543731, 4.365902) scale(1, -1) translate(-6.543731, -4.365902) " points="0.997866872 1.23189449 2.97834209 0.363294267 11.0449402 6.78743314 12.0895956 8.07819892 9.9717623 8.36851072 6.68158973 5.60016547 4.033339 3.73494762"></polygon>
                                <polygon id="red" fill="#F50100" fill-rule="nonzero" transform="translate(6.491732, 4.573107) scale(1, -1) translate(-6.491732, -4.573107) " points="1.26899691 1.0377417 2.27795758 0.533678352 11.7144671 8.61253609 10.2977689 8.61253609"></polygon>
                            </g>
                            <g id="stripe" transform="translate(6.500000, 4.500000) scale(-1, 1) translate(-6.500000, -4.500000) ">
                                <polygon id="white" fill="#F7FCFF" fill-rule="nonzero" transform="translate(6.543731, 4.365902) scale(1, -1) translate(-6.543731, -4.365902) " points="0.997866872 1.23189449 2.97834209 0.363294267 11.0449402 6.78743314 12.0895956 8.07819892 9.9717623 8.36851072 6.68158973 5.60016547 4.033339 3.73494762"></polygon>
                                <polygon id="red" fill="#F50100" fill-rule="nonzero" transform="translate(6.627779, 4.549380) scale(1, -1) translate(-6.627779, -4.549380) " points="1.06544306 1.16208955 2.07440374 0.658026209 6.09256727 4.11700491 7.28386651 4.5034683 12.1901144 8.44073422 10.7734162 8.44073422 5.86992481 4.59692228 4.567449 4.13351128"></polygon>
                            </g>
                            <g id="cross" transform="translate(2.000000, 1.000000)">
                                <path d="M5.36728773,-0.375 L5.36703197,2.625 L9.375,2.625 L9.375,4.375 L5.36703197,4.375 L5.36728773,7.375 L3.61728773,7.375 L3.61703197,4.375 L-0.375,4.375 L-0.375,2.625 L3.61703197,2.625 L3.61728773,-0.375 L5.36728773,-0.375 Z" id="red" stroke="#F7FCFF" stroke-width="0.75" fill="#F50100"></path>
                            </g>
                        </g>
                    </g>
                </g>
                <g id="stars" transform="translate(3.000000, 1.000000)" fill="#F7FCFF" fill-rule="nonzero">
                    <polygon id="Star" points="1.408 8.83424615 0.817571008 9.37988459 0.876041859 8.57806862 0.0813180971 8.45665264 0.744659049 8.00244291 0.344083719 7.30540123 1.1127855 7.54082694 1.408 6.79304615 1.7032145 7.54082694 2.47191628 7.30540123 2.07134095 8.00244291 2.7346819 8.45665264 1.93995814 8.57806862 1.99842899 9.37988459"></polygon>
                    <polygon id="Star" points="7.776 5.06898462 7.38238067 5.43274357 7.42136124 4.89819959 6.8915454 4.81725561 7.3337727 4.51444912 7.06672248 4.04975467 7.57919034 4.20670514 7.776 3.70818462 7.97280966 4.20670514 8.48527752 4.04975467 8.2182273 4.51444912 8.6604546 4.81725561 8.13063876 4.89819959 8.16961933 5.43274357"></polygon>
                    <polygon id="Star" points="8.71466667 1.37667692 8.32104734 1.74043588 8.36002791 1.2058919 7.83021206 1.12494791 8.27243937 0.822141427 8.00538915 0.357446975 8.517857 0.514397445 8.71466667 0.0158769231 8.91147633 0.514397445 9.42394419 0.357446975 9.15689397 0.822141427 9.59912127 1.12494791 9.06930543 1.2058919 9.10828599 1.74043588"></polygon>
                    <polygon id="Star" points="11.0613333 3.22283077 10.667714 3.58658973 10.7066946 3.05204574 10.1768787 2.97110176 10.619106 2.66829527 10.3520558 2.20360082 10.8645237 2.36055129 11.0613333 1.86203077 11.258143 2.36055129 11.7706109 2.20360082 11.5035606 2.66829527 11.9457879 2.97110176 11.4159721 3.05204574 11.4549527 3.58658973"></polygon>
                    <polygon id="Star" points="9.184 8.53052308 8.79038067 8.89428203 8.82936124 8.35973805 8.2995454 8.27879407 8.7417727 7.97598758 8.47472248 7.51129313 8.98719034 7.6682436 9.184 7.16972308 9.38080966 7.6682436 9.89327752 7.51129313 9.6262273 7.97598758 10.0684546 8.27879407 9.53863876 8.35973805 9.57761933 8.89428203"></polygon>
                    <polygon id="Star" points="10.8266667 5.64789231 10.4267376 5.85814747 10.5031172 5.41281989 10.1795678 5.09743714 10.6267021 5.03246473 10.8266667 4.62729231 11.0266312 5.03246473 11.4737655 5.09743714 11.1502161 5.41281989 11.2265958 5.85814747"></polygon>
                </g>
            </g>
        </g>
    </g>
</svg>