<?xml version="1.0" encoding="UTF-8"?>
<svg width="16px" height="12px" viewBox="0 0 16 12" version="1.1" xmlns="http://www.w3.org/2000/svg" xmlns:xlink="http://www.w3.org/1999/xlink">
    <title>flags/S/HN - Honduras</title>
    <defs>
        <rect id="path-1" x="0" y="0" width="16" height="12"></rect>
        <rect id="path-3" x="0" y="0" width="16" height="12"></rect>
    </defs>
    <g id="Symbols" stroke="none" stroke-width="1" fill="none" fill-rule="evenodd">
        <g id="flag">
            <mask id="mask-2" fill="white">
                <use xlink:href="#path-1"></use>
            </mask>
            <g id="mask"></g>
            <g id="contents" mask="url(#mask-2)">
                <mask id="mask-4" fill="white">
                    <use xlink:href="#path-3"></use>
                </mask>
                <use id="background" fill="#F7FCFF" xlink:href="#path-3"></use>
                <rect id="top" fill="#4564F9" mask="url(#mask-4)" x="0" y="0" width="16" height="4"></rect>
                <rect id="bottom" fill="#4564F9" mask="url(#mask-4)" x="0" y="8" width="16" height="4"></rect>
                <g id="mark" mask="url(#mask-4)" fill="#4564F9">
                    <g transform="translate(4.000000, 4.000000)" id="Star-10">
                        <polygon points="4.40903762 2.56595049 3.82125237 2.87496749 3.93350936 2.22045899 3.4579811 1.70918775 4.11514499 1.70918775 4.40903762 1.06595049 4.70293025 1.70918775 5.36009414 1.70918775 4.88456588 2.22045899 4.99682287 2.87496749"></polygon>
                        <polygon points="1.40903762 1.56595049 0.821252367 1.87496749 0.933509361 1.22045899 0.457981103 0.709187747 1.11514499 0.709187747 1.40903762 0.0659504927 1.70293025 0.709187747 2.36009414 0.709187747 1.88456588 1.22045899 1.99682287 1.87496749"></polygon>
                        <polygon points="1.40903762 3.56595049 0.821252367 3.87496749 0.933509361 3.22045899 0.457981103 2.70918775 1.11514499 2.70918775 1.40903762 2.06595049 1.70293025 2.70918775 2.36009414 2.70918775 1.88456588 3.22045899 1.99682287 3.87496749"></polygon>
                        <polygon points="7.40903762 1.56595049 6.82125237 1.87496749 6.93350936 1.22045899 6.4579811 0.709187747 7.11514499 0.709187747 7.40903762 0.0659504927 7.70293025 0.709187747 8.36009414 0.709187747 7.88456588 1.22045899 7.99682287 1.87496749"></polygon>
                        <polygon points="7.40903762 3.56595049 6.82125237 3.87496749 6.93350936 3.22045899 6.4579811 2.70918775 7.11514499 2.70918775 7.40903762 2.06595049 7.70293025 2.70918775 8.36009414 2.70918775 7.88456588 3.22045899 7.99682287 3.87496749"></polygon>
                    </g>
                </g>
            </g>
        </g>
    </g>
</svg>