<?xml version="1.0" encoding="UTF-8"?>
<svg width="16px" height="12px" viewBox="0 0 16 12" version="1.1" xmlns="http://www.w3.org/2000/svg" xmlns:xlink="http://www.w3.org/1999/xlink">
    <title>flags/S/HR - Croatia (Hrvatska)</title>
    <defs>
        <rect id="path-1" x="0" y="0" width="16" height="12"></rect>
        <rect id="path-3" x="0" y="0" width="16" height="12"></rect>
        <path d="M0.00515315728,0 C0.00515315728,0.346111441 0.0176480336,1.54090539 0.0426377861,3.58438186 C0.168748663,5.12161234 1.08340992,5.89022758 2.78662156,5.89022758 C4.4898332,5.89022758 5.44097342,5.12323204 5.64004224,3.58924097 C5.65161392,1.52974699 5.64600359,0.333333333 5.62321127,0 L0.00515315728,0 Z" id="path-5"></path>
        <path d="M0.529629122,2.12349795 C0.744823215,2.0554202 0.917210234,2.01237872 1.04679018,1.99437353 C1.17637012,1.97636833 1.33513617,1.96350477 1.52308831,1.95578286 L1.39694987,0.493575264 L0.715588482,0.00967158856 L0.0963497483,0.65162888 L0.529629122,2.12349795 Z" id="path-7"></path>
        <path d="M0.494237725,2.12349795 C0.709431818,2.0554202 0.881818837,2.01237872 1.01139878,1.99437353 C1.14097873,1.97636833 1.29974477,1.96350477 1.48769692,1.95578286 L1.36155847,0.493575264 L0.680197085,0.00967158856 L0.0963497483,0.64920388 L0.494237725,2.12349795 Z" id="path-9"></path>
        <path d="M0.715588482,2.20064121 C0.933066566,2.08447669 1.13455266,1.99646125 1.32004676,1.93659489 C1.50554085,1.87672853 1.67159403,1.83044113 1.81820627,1.79773269 L1.39520905,0.309788578 L0.566049452,0 L0.0964412556,0.774050199 L0.715588482,2.20064121 Z" id="path-11"></path>
    </defs>
    <g id="Symbols" stroke="none" stroke-width="1" fill="none" fill-rule="evenodd">
        <g id="flag">
            <mask id="mask-2" fill="white">
                <use xlink:href="#path-1"></use>
            </mask>
            <g id="mask"></g>
            <g id="contents" mask="url(#mask-2)">
                <mask id="mask-4" fill="white">
                    <use xlink:href="#path-3"></use>
                </mask>
                <use id="background" fill="#F7FCFF" xlink:href="#path-3"></use>
                <rect id="top" fill="#E31D1C" mask="url(#mask-4)" x="0" y="0" width="16" height="4"></rect>
                <rect id="bottom" fill="#3D58DB" mask="url(#mask-4)" x="0" y="8" width="16" height="4"></rect>
                <g id="mark" mask="url(#mask-4)">
                    <g transform="translate(4.600000, 1.200000)">
                        <rect id="Rectangle-90" fill="#E31D1C" x="0.43828125" y="1.99866131" width="5.7" height="2"></rect>
                        <g id="shield" stroke-width="1" fill="none" transform="translate(0.438281, 2.998661)">
                            <mask id="mask-6" fill="white">
                                <use xlink:href="#path-5"></use>
                            </mask>
                            <path stroke="#E31D1C" stroke-width="0.5625" d="M0.289664647,0.493170612 C2.57474198,0.487324657 3.87245134,0.563264056 4.60922524,0.709621089 C4.95547813,0.778402769 5.16118401,0.852957626 5.27431686,0.956668366 L5.27431686,0.956668366 L5.36424984,2.2059331 C5.36351384,2.60791676 5.36172917,3.06256499 5.35889414,3.56999646 C5.26851081,4.24366974 5.02215267,4.75629947 4.60083748,5.09604629 C4.1674426,5.44553412 3.55954245,5.60897758 2.78662156,5.60897758 C2.01724004,5.60897758 1.41934099,5.44733785 1.00415603,5.09844641 C0.599856738,4.7587025 0.380700147,4.24505649 0.323742463,3.57077733 C0.305876952,2.10945774 0.294420094,1.08356178 0.289664647,0.493170612 Z"></path>
                            <path d="M5.484375,4.60508701 L5.484375,5.67603748 L4.4296875,5.67603748 L4.4296875,4.60508701 L5.484375,4.60508701 Z M3.375,4.60508701 L3.375,5.67603748 L2.3203125,5.67603748 L2.3203125,4.60508701 L3.375,4.60508701 Z M1.265625,4.60508701 L1.265625,5.67603748 L0.2109375,5.67603748 L0.2109375,4.60508701 L1.265625,4.60508701 Z M2.3203125,3.53413655 L2.3203125,4.60508701 L1.265625,4.60508701 L1.265625,3.53413655 L2.3203125,3.53413655 Z M4.4296875,3.53413655 L4.4296875,4.60508701 L3.375,4.60508701 L3.375,3.53413655 L4.4296875,3.53413655 Z M1.265625,2.46318608 L1.265625,3.53413655 L0.2109375,3.53413655 L0.2109375,2.46318608 L1.265625,2.46318608 Z M3.375,2.46318608 L3.375,3.53413655 L2.3203125,3.53413655 L2.3203125,2.46318608 L3.375,2.46318608 Z M5.484375,2.46318608 L5.484375,3.53413655 L4.4296875,3.53413655 L4.4296875,2.46318608 L5.484375,2.46318608 Z M2.3203125,1.39223561 L2.3203125,2.46318608 L1.265625,2.46318608 L1.265625,1.39223561 L2.3203125,1.39223561 Z M4.4296875,1.39223561 L4.4296875,2.46318608 L3.375,2.46318608 L3.375,1.39223561 L4.4296875,1.39223561 Z M1.265625,0.321285141 L1.265625,1.39223561 L0.2109375,1.39223561 L0.2109375,0.321285141 L1.265625,0.321285141 Z M3.375,0.321285141 L3.375,1.39223561 L2.3203125,1.39223561 L2.3203125,0.321285141 L3.375,0.321285141 Z M5.484375,0.321285141 L5.484375,1.39223561 L4.4296875,1.39223561 L4.4296875,0.321285141 L5.484375,0.321285141 Z" id="Combined-Shape" fill="#F50100" mask="url(#mask-6)"></path>
                        </g>
                        <g id="top" stroke-width="1" fill="none" transform="translate(0.016406, 0.000000)">
                            <g id="Group-11" transform="translate(0.000000, 0.642570)" fill="#56C6F5" stroke="#FFFFFF" stroke-width="0.15">
                                <path d="M0.610119732,2.23874407 C0.827597816,2.12257955 1.02908391,2.03456411 1.21457801,1.97469776 C1.4000721,1.9148314 1.56612528,1.868544 1.71273752,1.83583556 L1.29876779,0.309788578 L0.469608196,0 L0,0.774050199 L0.610119732,2.23874407 Z" id="Path-333"></path>
                            </g>
                            <g id="Group-12" transform="translate(2.109375, 0.000000)" fill="#56C6F5" stroke="#FFFFFF" stroke-width="0.15">
                                <path d="M0.884872482,2.47702831 C1.05484612,2.40099555 1.23257999,2.33304599 1.41807409,2.27317963 C1.60356819,2.21331328 1.77447992,2.15719795 1.93080927,2.10483366 L1.57591513,0.635590003 L0.799693113,0.304575848 L0.330084917,1.07862605 L0.884872482,2.47702831 Z" id="Path-333" transform="translate(1.130447, 1.390802) rotate(19.000000) translate(-1.130447, -1.390802) "></path>
                            </g>
                            <g id="Group-8" transform="translate(1.160156, 0.321285)">
                                <mask id="mask-8" fill="white">
                                    <use xlink:href="#path-7"></use>
                                </mask>
                                <path stroke="#FFFFFF" stroke-width="0.15" d="M0.706406928,-0.0888392148 L1.46868793,0.452533671 L1.60422211,2.02365737 C0.877204813,2.08914903 0.740692508,2.13419793 0.479369382,2.21835139 L0.479369382,2.21835139 L0.0120827668,0.630958229 L0.706406928,-0.0888392148 Z"></path>
                            </g>
                            <g id="Group-10" transform="translate(3.691406, 0.321285)">
                                <mask id="mask-10" fill="white">
                                    <use xlink:href="#path-9"></use>
                                </mask>
                                <path stroke="#FFFFFF" stroke-width="0.15" d="M0.669536177,-0.0898898535 L1.43329653,0.452533671 L1.56883071,2.02365737 C0.840258552,2.08928909 0.704719897,2.13439052 0.442299598,2.21889186 L0.442299598,2.21889186 L0.0132199083,0.62902316 L0.669536177,-0.0898898535 Z"></path>
                            </g>
                            <g id="Group-9" transform="translate(4.746094, 0.642570)">
                                <mask id="mask-12" fill="white">
                                    <use xlink:href="#path-11"></use>
                                </mask>
                                <path stroke="#FFFFFF" stroke-width="0.15" d="M0.534134052,-0.0919878417 L1.45698106,0.252803996 L1.91231846,1.85450864 C1.74943806,1.88685866 1.55970454,1.93805705 1.34308226,2.00796971 C1.14117792,2.07313231 0.920006831,2.17249192 0.679421736,2.30569122 L0.679421736,2.30569122 L0.0121949021,0.768318912 L0.534134052,-0.0919878417 Z"></path>
                            </g>
                        </g>
                    </g>
                </g>
            </g>
        </g>
    </g>
</svg>