<?xml version="1.0" encoding="UTF-8"?>
<svg width="16px" height="12px" viewBox="0 0 16 12" version="1.1" xmlns="http://www.w3.org/2000/svg" xmlns:xlink="http://www.w3.org/1999/xlink">
    <title>flags/S/HT - Haiti</title>
    <defs>
        <rect id="path-1" x="0" y="0" width="16" height="12"></rect>
        <rect id="path-3" x="0" y="0" width="16" height="12"></rect>
        <rect id="path-5" x="0" y="0" width="10" height="8"></rect>
    </defs>
    <g id="Symbols" stroke="none" stroke-width="1" fill="none" fill-rule="evenodd">
        <g id="flag">
            <mask id="mask-2" fill="white">
                <use xlink:href="#path-1"></use>
            </mask>
            <g id="mask"></g>
            <g id="contents" mask="url(#mask-2)">
                <mask id="mask-4" fill="white">
                    <use xlink:href="#path-3"></use>
                </mask>
                <use id="background" fill="#2E42A5" xlink:href="#path-3"></use>
                <rect id="bottom" fill="#E31D1C" mask="url(#mask-4)" x="0" y="6" width="16" height="6"></rect>
                <g id="mark" mask="url(#mask-4)">
                    <g transform="translate(3.000000, 2.000000)">
                        <mask id="mask-6" fill="white">
                            <use xlink:href="#path-5"></use>
                        </mask>
                        <use id="bg" stroke="none" fill="#FFFFFF" fill-rule="evenodd" xlink:href="#path-5"></use>
                        <path d="M0,6.38490481 C1.60018939,5.67579314 3.26685606,5.34287464 5,5.38614932 C6.73314394,5.429424 8.39981061,5.84557212 10,6.63459369 L10,8 L0,8 L0,6.38490481 Z" id="grass" stroke="none" fill="#279E19" fill-rule="evenodd" mask="url(#mask-6)"></path>
                        <g id="tree" stroke="none" stroke-width="1" fill="none" fill-rule="evenodd" mask="url(#mask-6)">
                            <g transform="translate(2.000000, 1.000000)" fill="#026A16" id="Path-104">
                                <path d="M0.715648027,0.627154668 C1.20261811,1.46108897 1.87229242,1.87805612 2.72467095,1.87805612 C3.56592061,1.87805612 4.28433292,1.47190596 4.8799079,0.659605635 L4.87998767,0.659664122 C4.91768584,0.608247866 4.90656514,0.536006351 4.85514888,0.498308181 C4.85345628,0.497067173 4.85173015,0.495872556 4.84997241,0.494725661 C4.5488406,0.298241887 4.21893497,0.2 3.86025552,0.2 C3.46200403,0.2 3.08347584,0.285047992 2.72467095,0.455143976 C2.19082879,0.285047992 1.75390464,0.2 1.4138985,0.2 C1.10529571,0.2 0.875042084,0.299775677 0.723137626,0.499327031 L0.723448457,0.499563645 C0.695260049,0.536593729 0.692180448,0.586966533 0.715648027,0.627154668 Z"></path>
                            </g>
                        </g>
                        <g id="left" stroke="none" stroke-width="1" fill="none" fill-rule="evenodd" mask="url(#mask-6)">
                            <g transform="translate(0.000000, 3.000000)">
                                <path d="M4.89464429,2.40698289 L3.99853553,1.84024906 C3.47495735,2.08251041 3.21316827,2.56223424 3.21316827,3.27942055 L3.90712057,4.41874007 L5.32444103,4.41874007 L6.02377932,4.41874007 L6.5246828,3.27942055 C6.65473153,2.29727463 6.4877637,1.72697763 6.02377932,1.56852955 L4.89464429,2.40698289 Z" id="red" fill="#C51918" fill-rule="evenodd"></path>
                                <path d="M2.93406017,0.816005185 C2.03229446,1.12906712 1.5814116,1.86303786 1.5814116,3.01791739 L3.38557553,3.37473613 C3.37148366,2.71306254 3.54420148,2.22703938 3.90372898,1.91666667 L2.93406017,0.816005185 Z" id="blue" fill="#0A328C" fill-rule="evenodd"></path>
                                <polygon id="spear" fill="#FFD018" fill-rule="nonzero" points="2.26796555 0.263801868 2.48330801 0.0462265926 5 2.52332457 4.78465753 2.74089984"></polygon>
                                <polygon id="spear" fill="#FFD018" fill-rule="nonzero" points="1.48125501 0.845431925 1.65822284 0.59309393 4.89459204 3.05588336 4.7176242 3.30822135"></polygon>
                                <polygon id="spear" fill="#FFD018" fill-rule="nonzero" points="0.943098407 1.81094779 1.08215728 1.53404734 4.75903538 3.53765101 4.6199765 3.81455146"></polygon>
                                <path d="M1.59073592,3.0043554 L4.01126131,3.32149752 L3.87498805,3.71736879 L3.49124032,3.71736879 L3.75259767,3.94103744 L4.341964,4.10266865 L4.341964,3.71736879 L4.85811712,3.71736879 L4.85811712,4.53595712 L3.75259767,4.53595712 L3.32858267,3.94103744 C3.09116927,4.2152912 2.85661073,4.35241807 2.62490704,4.35241807 C2.2773515,4.35241807 1.93469987,4.218815 1.93469987,3.77015626 C1.93469987,3.47105043 1.93469987,3.36700556 1.93469987,3.45802164 L1.59073592,3.32149752 L1.59073592,3.0043554 Z" id="canon" fill="#FECA00" fill-rule="evenodd"></path>
                            </g>
                        </g>
                        <g id="right" stroke="none" stroke-width="1" fill="none" fill-rule="evenodd" mask="url(#mask-6)">
                            <g transform="translate(7.000000, 5.500000) scale(-1, 1) translate(-7.000000, -5.500000) translate(4.000000, 3.000000)">
                                <path d="M3.19178483,0.722687928 C2.134353,1.09796137 1.60563708,1.86303786 1.60563708,3.01791739 L3.4258061,3.37430055 C3.48098018,2.52033614 3.69582113,1.93816758 4.07032895,1.62779486 L3.19178483,0.722687928 Z" id="blue" fill="#0A328C" fill-rule="evenodd"></path>
                                <polygon id="spear" fill="#FFD018" fill-rule="nonzero" points="2.32079744 0.263801868 2.54511251 0.0462265926 5.2566501 2.32270734 5.03233503 2.54028261"></polygon>
                                <polygon id="spear" fill="#FFD018" fill-rule="nonzero" points="1.5013073 0.845431925 1.68564879 0.59309393 5.0568667 3.05588336 5.0568667 3.51756272"></polygon>
                                <polygon id="spear" fill="#FFD018" fill-rule="nonzero" points="0.941669295 1.8114364 1.08463872 1.53355874 5.14296942 3.50531306 5 3.78319072"></polygon>
                                <path d="M1.61534992,3.0043554 L4.13673054,3.32149752 L3.99477922,3.71736879 L3.595042,3.71736879 L3.86728923,3.94103744 L4.4812125,4.10266865 L4.4812125,3.71736879 L5.018872,3.71736879 L5.018872,4.53595712 L3.86728923,4.53595712 L3.42560695,3.94103744 C3.17830133,4.2152912 2.93396951,4.35241807 2.6926115,4.35241807 C2.33057448,4.35241807 1.97364569,4.218815 1.97364569,3.77015626 C1.97364569,3.47105043 1.97364569,3.36700556 1.97364569,3.45802164 L1.61534992,3.32149752 L1.61534992,3.0043554 Z" id="canon" fill="#FECA00" fill-rule="evenodd"></path>
                            </g>
                        </g>
                        <path d="M4.69151699,2.67870831 C4.58257968,3.48115578 4.52811103,4.04566876 4.52811103,4.37224725 C4.52811103,4.69882575 4.58257968,5.73009495 4.69151699,7.46605487 L5.11176255,7.46605487 C5.11176255,5.67614741 5.11176255,4.6448782 5.11176255,4.37224725 C5.11176255,4.09961631 5.02956558,3.53510332 4.86517164,2.67870831 L4.69151699,2.67870831 Z" id="base" stroke="none" fill="#FECA00" fill-rule="evenodd" mask="url(#mask-6)"></path>
                    </g>
                </g>
            </g>
        </g>
    </g>
</svg>