<?xml version="1.0" encoding="UTF-8"?>
<svg width="16px" height="12px" viewBox="0 0 16 12" version="1.1" xmlns="http://www.w3.org/2000/svg" xmlns:xlink="http://www.w3.org/1999/xlink">
    <title>flags/S/IN - India</title>
    <defs>
        <rect id="path-1" x="0" y="0" width="16" height="12"></rect>
        <rect id="path-3" x="0" y="0" width="16" height="12"></rect>
    </defs>
    <g id="Symbols" stroke="none" stroke-width="1" fill="none" fill-rule="evenodd">
        <g id="flag">
            <mask id="mask-2" fill="white">
                <use xlink:href="#path-1"></use>
            </mask>
            <g id="mask"></g>
            <g id="contents" mask="url(#mask-2)">
                <mask id="mask-4" fill="white">
                    <use xlink:href="#path-3"></use>
                </mask>
                <use id="background" fill="#F7FCFF" xlink:href="#path-3"></use>
                <rect id="top" fill="#FF8C1A" mask="url(#mask-4)" x="0" y="0" width="16" height="4"></rect>
                <rect id="bottom" fill="#5EAA22" mask="url(#mask-4)" x="0" y="8" width="16" height="4"></rect>
                <g id="mark" mask="url(#mask-4)" fill="#3D58DB">
                    <g transform="translate(6.000000, 4.000000)">
                        <path d="M2,3.5 C2.82842712,3.5 3.5,2.82842712 3.5,2 C3.5,1.17157288 2.82842712,0.5 2,0.5 C1.17157288,0.5 0.5,1.17157288 0.5,2 C0.5,2.82842712 1.17157288,3.5 2,3.5 Z M2,4 C0.8954305,4 0,3.1045695 0,2 C0,0.8954305 0.8954305,0 2,0 C3.1045695,0 4,0.8954305 4,2 C4,3.1045695 3.1045695,4 2,4 Z" id="Oval-23" fill-rule="nonzero"></path>
                        <polygon id="Star-12" fill-rule="evenodd" points="1.99724586 2.4303542 1.58027409 3.9672214 1.82445163 2.39362565 0.818428753 3.628026 1.68153509 2.28979071 0.260411605 3.00828518 1.59320781 2.13680337 0.00270887738 2.21515773 1.57474238 1.96111654 0.0898797144 1.38578262 1.62933164 1.79310808 0.506851486 0.663566328 1.74753661 1.66182815 1.18152598 0.173386612 1.90891858 1.58997627 1.99724586 0 2.08557314 1.58997627 2.81296574 0.173386612 2.24695511 1.66182815 3.48764023 0.663566328 2.36516008 1.79310808 3.90461201 1.38578262 2.41974934 1.96111654 3.99178284 2.21515773 2.40128391 2.13680337 3.73408012 3.00828518 2.31295663 2.28979071 3.17606297 3.628026 2.17004009 2.39362565 2.41421763 3.9672214"></polygon>
                    </g>
                </g>
            </g>
        </g>
    </g>
</svg>