<?xml version="1.0" encoding="UTF-8"?>
<svg width="16px" height="12px" viewBox="0 0 16 12" version="1.1" xmlns="http://www.w3.org/2000/svg" xmlns:xlink="http://www.w3.org/1999/xlink">
    <title>flags/S/IO - British Indian Ocean Territory</title>
    <defs>
        <rect id="path-1" x="0" y="0" width="16" height="12"></rect>
        <rect id="path-3" x="0" y="0" width="16" height="12"></rect>
        <rect id="path-5" x="0" y="0" width="7" height="5"></rect>
    </defs>
    <g id="Symbols" stroke="none" stroke-width="1" fill="none" fill-rule="evenodd">
        <g id="flag">
            <mask id="mask-2" fill="white">
                <use xlink:href="#path-1"></use>
            </mask>
            <g id="mask"></g>
            <g id="contents" mask="url(#mask-2)">
                <mask id="mask-4" fill="white">
                    <use xlink:href="#path-3"></use>
                </mask>
                <use id="background" fill="#F7FCFF" xlink:href="#path-3"></use>
                <g id="mark-2" mask="url(#mask-4)" fill="#2E42A5" fill-rule="nonzero">
                    <g transform="translate(-1.000000, 0.000000)" id="Combined-Shape">
                        <path d="M4.16433479,11.1457438 C4.47112144,11.4357478 4.58440566,11.5 4.85041909,11.5 C5.11643252,11.5 5.22971674,11.4357478 5.53650339,11.1457438 C6.02311959,10.6857478 6.35061474,10.5 6.96616004,10.5 C7.58170535,10.5 7.9092005,10.6857478 8.3958167,11.1457438 C8.70260335,11.4357478 8.81588757,11.5 9.081901,11.5 C9.34791443,11.5 9.46119865,11.4357478 9.7679853,11.1457438 C10.2546015,10.6857478 10.5820967,10.5 11.197642,10.5 C11.8131873,10.5 12.1406824,10.6857478 12.6272986,11.1457438 C12.9340853,11.4357478 13.0473695,11.5 13.3133829,11.5 C13.5793963,11.5 13.6926806,11.4357478 13.9994672,11.1457438 C14.4860834,10.6857478 14.8135786,10.5 15.4291239,10.5 C16.2890347,10.5 17.1201702,10.8928343 17.916651,11.6457438 L17.1730786,12.3542562 C16.5590654,11.7738324 15.979707,11.5 15.4291239,11.5 C15.1631104,11.5 15.0498262,11.5642522 14.7430396,11.8542562 C14.305085,12.2682526 13.9960185,12.460108 13.4898522,12.4943391 L13.3133829,12.5 L13.3133829,12.5 C12.6978376,12.5 12.3703425,12.3142522 11.8837263,11.8542562 C11.5769396,11.5642522 11.4636554,11.5 11.197642,11.5 C10.9316285,11.5 10.8183443,11.5642522 10.5115577,11.8542562 C10.0736031,12.2682526 9.76453654,12.460108 9.25837026,12.4943391 L9.081901,12.5 L9.081901,12.5 C8.4663557,12.5 8.13886055,12.3142522 7.65224434,11.8542562 C7.34545769,11.5642522 7.23217347,11.5 6.96616004,11.5 C6.70014662,11.5 6.5868624,11.5642522 6.28007575,11.8542562 C5.84212116,12.2682526 5.53305463,12.460108 5.02688835,12.4943391 L4.85041909,12.5 L4.85041909,12.5 C4.23487379,12.5 3.90737864,12.3142522 3.42076243,11.8542562 C3.11397578,11.5642522 3.00069156,11.5 2.73467813,11.5 C2.23414802,11.5 1.70983664,11.7263078 1.15732671,12.2035356 L0.990723358,12.3542562 L0.990723358,12.3542562 L0.247151,11.6457438 C1.04363177,10.8928343 1.87476729,10.5 2.73467813,10.5 C3.35022344,10.5 3.67771859,10.6857478 4.16433479,11.1457438 Z M15.4291239,8.5 C16.2890347,8.5 17.1201702,8.89283425 17.916651,9.64574379 L17.1730786,10.3542562 C16.5590654,9.77383241 15.979707,9.5 15.4291239,9.5 C15.1631104,9.5 15.0498262,9.56425222 14.7430396,9.85425621 C14.305085,10.2682526 13.9960185,10.460108 13.4898522,10.4943391 L13.3133829,10.5 L13.3133829,10.5 C12.6978376,10.5 12.3703425,10.3142522 11.8837263,9.85425621 C11.5769396,9.56425222 11.4636554,9.5 11.197642,9.5 C10.9316285,9.5 10.8183443,9.56425222 10.5115577,9.85425621 C10.0736031,10.2682526 9.76453654,10.460108 9.25837026,10.4943391 L9.081901,10.5 L9.081901,10.5 C8.4663557,10.5 8.13886055,10.3142522 7.65224434,9.85425621 C7.34545769,9.56425222 7.23217347,9.5 6.96616004,9.5 C6.70014662,9.5 6.5868624,9.56425222 6.28007575,9.85425621 C5.84212116,10.2682526 5.53305463,10.460108 5.02688835,10.4943391 L4.85041909,10.5 L4.85041909,10.5 C4.23487379,10.5 3.90737864,10.3142522 3.42076243,9.85425621 C3.11397578,9.56425222 3.00069156,9.5 2.73467813,9.5 C2.23414802,9.5 1.70983664,9.72630778 1.15732671,10.2035356 L0.990723358,10.3542562 L0.990723358,10.3542562 L0.247151,9.64574379 C1.04363177,8.89283425 1.87476729,8.5 2.73467813,8.5 C3.35022344,8.5 3.67771859,8.68574778 4.16433479,9.14574379 C4.47112144,9.43574778 4.58440566,9.5 4.85041909,9.5 C5.11643252,9.5 5.22971674,9.43574778 5.53650339,9.14574379 C6.02311959,8.68574778 6.35061474,8.5 6.96616004,8.5 C7.58170535,8.5 7.9092005,8.68574778 8.3958167,9.14574379 C8.70260335,9.43574778 8.81588757,9.5 9.081901,9.5 C9.34791443,9.5 9.46119865,9.43574778 9.7679853,9.14574379 C10.2546015,8.68574778 10.5820967,8.5 11.197642,8.5 C11.8131873,8.5 12.1406824,8.68574778 12.6272986,9.14574379 C12.9340853,9.43574778 13.0473695,9.5 13.3133829,9.5 C13.5793963,9.5 13.6926806,9.43574778 13.9994672,9.14574379 C14.4860834,8.68574778 14.8135786,8.5 15.4291239,8.5 Z M15.4291239,6.5 C16.2890347,6.5 17.1201702,6.89283425 17.916651,7.64574379 L17.1730786,8.35425621 C16.5590654,7.77383241 15.979707,7.5 15.4291239,7.5 C15.1631104,7.5 15.0498262,7.56425222 14.7430396,7.85425621 C14.305085,8.26825262 13.9960185,8.46010796 13.4898522,8.49433907 L13.3133829,8.5 L13.3133829,8.5 C12.6978376,8.5 12.3703425,8.31425222 11.8837263,7.85425621 C11.5769396,7.56425222 11.4636554,7.5 11.197642,7.5 C10.9316285,7.5 10.8183443,7.56425222 10.5115577,7.85425621 C10.0736031,8.26825262 9.76453654,8.46010796 9.25837026,8.49433907 L9.081901,8.5 L9.081901,8.5 C8.4663557,8.5 8.13886055,8.31425222 7.65224434,7.85425621 C7.34545769,7.56425222 7.23217347,7.5 6.96616004,7.5 C6.70014662,7.5 6.5868624,7.56425222 6.28007575,7.85425621 C5.84212116,8.26825262 5.53305463,8.46010796 5.02688835,8.49433907 L4.85041909,8.5 L4.85041909,8.5 C4.23487379,8.5 3.90737864,8.31425222 3.42076243,7.85425621 C3.11397578,7.56425222 3.00069156,7.5 2.73467813,7.5 C2.23414802,7.5 1.70983664,7.72630778 1.15732671,8.20353564 L0.990723358,8.35425621 L0.990723358,8.35425621 L0.247151,7.64574379 C1.04363177,6.89283425 1.87476729,6.5 2.73467813,6.5 C3.35022344,6.5 3.67771859,6.68574778 4.16433479,7.14574379 C4.47112144,7.43574778 4.58440566,7.5 4.85041909,7.5 C5.11643252,7.5 5.22971674,7.43574778 5.53650339,7.14574379 C6.02311959,6.68574778 6.35061474,6.5 6.96616004,6.5 C7.58170535,6.5 7.9092005,6.68574778 8.3958167,7.14574379 C8.70260335,7.43574778 8.81588757,7.5 9.081901,7.5 C9.34791443,7.5 9.46119865,7.43574778 9.7679853,7.14574379 C10.2546015,6.68574778 10.5820967,6.5 11.197642,6.5 C11.8131873,6.5 12.1406824,6.68574778 12.6272986,7.14574379 C12.9340853,7.43574778 13.0473695,7.5 13.3133829,7.5 C13.5793963,7.5 13.6926806,7.43574778 13.9994672,7.14574379 C14.4860834,6.68574778 14.8135786,6.5 15.4291239,6.5 Z M15.4291239,4.5 C16.2890347,4.5 17.1201702,4.89283425 17.916651,5.64574379 L17.1730786,6.35425621 C16.5590654,5.77383241 15.979707,5.5 15.4291239,5.5 C15.1631104,5.5 15.0498262,5.56425222 14.7430396,5.85425621 C14.305085,6.26825262 13.9960185,6.46010796 13.4898522,6.49433907 L13.3133829,6.5 L13.3133829,6.5 C12.6978376,6.5 12.3703425,6.31425222 11.8837263,5.85425621 C11.5769396,5.56425222 11.4636554,5.5 11.197642,5.5 C10.9316285,5.5 10.8183443,5.56425222 10.5115577,5.85425621 C10.0736031,6.26825262 9.76453654,6.46010796 9.25837026,6.49433907 L9.081901,6.5 L9.081901,6.5 C8.4663557,6.5 8.13886055,6.31425222 7.65224434,5.85425621 C7.34545769,5.56425222 7.23217347,5.5 6.96616004,5.5 C6.70014662,5.5 6.5868624,5.56425222 6.28007575,5.85425621 C5.84212116,6.26825262 5.53305463,6.46010796 5.02688835,6.49433907 L4.85041909,6.5 L4.85041909,6.5 C4.23487379,6.5 3.90737864,6.31425222 3.42076243,5.85425621 C3.11397578,5.56425222 3.00069156,5.5 2.73467813,5.5 C2.23414802,5.5 1.70983664,5.72630778 1.15732671,6.20353564 L0.990723358,6.35425621 L0.990723358,6.35425621 L0.247151,5.64574379 C1.04363177,4.89283425 1.87476729,4.5 2.73467813,4.5 C3.35022344,4.5 3.67771859,4.68574778 4.16433479,5.14574379 C4.47112144,5.43574778 4.58440566,5.5 4.85041909,5.5 C5.11643252,5.5 5.22971674,5.43574778 5.53650339,5.14574379 C6.02311959,4.68574778 6.35061474,4.5 6.96616004,4.5 C7.58170535,4.5 7.9092005,4.68574778 8.3958167,5.14574379 C8.70260335,5.43574778 8.81588757,5.5 9.081901,5.5 C9.34791443,5.5 9.46119865,5.43574778 9.7679853,5.14574379 C10.2546015,4.68574778 10.5820967,4.5 11.197642,4.5 C11.8131873,4.5 12.1406824,4.68574778 12.6272986,5.14574379 C12.9340853,5.43574778 13.0473695,5.5 13.3133829,5.5 C13.5793963,5.5 13.6926806,5.43574778 13.9994672,5.14574379 C14.4860834,4.68574778 14.8135786,4.5 15.4291239,4.5 Z M15.4291239,2.5 C16.2890347,2.5 17.1201702,2.89283425 17.916651,3.64574379 L17.1730786,4.35425621 C16.5590654,3.77383241 15.979707,3.5 15.4291239,3.5 C15.1631104,3.5 15.0498262,3.56425222 14.7430396,3.85425621 C14.305085,4.26825262 13.9960185,4.46010796 13.4898522,4.49433907 L13.3133829,4.5 L13.3133829,4.5 C12.6978376,4.5 12.3703425,4.31425222 11.8837263,3.85425621 C11.5769396,3.56425222 11.4636554,3.5 11.197642,3.5 C10.9316285,3.5 10.8183443,3.56425222 10.5115577,3.85425621 C10.0736031,4.26825262 9.76453654,4.46010796 9.25837026,4.49433907 L9.081901,4.5 L9.081901,4.5 C8.4663557,4.5 8.13886055,4.31425222 7.65224434,3.85425621 C7.34545769,3.56425222 7.23217347,3.5 6.96616004,3.5 C6.70014662,3.5 6.5868624,3.56425222 6.28007575,3.85425621 C5.84212116,4.26825262 5.53305463,4.46010796 5.02688835,4.49433907 L4.85041909,4.5 L4.85041909,4.5 C4.23487379,4.5 3.90737864,4.31425222 3.42076243,3.85425621 C3.11397578,3.56425222 3.00069156,3.5 2.73467813,3.5 C2.23414802,3.5 1.70983664,3.72630778 1.15732671,4.20353564 L0.990723358,4.35425621 L0.990723358,4.35425621 L0.247151,3.64574379 C1.04363177,2.89283425 1.87476729,2.5 2.73467813,2.5 C3.35022344,2.5 3.67771859,2.68574778 4.16433479,3.14574379 C4.47112144,3.43574778 4.58440566,3.5 4.85041909,3.5 C5.11643252,3.5 5.22971674,3.43574778 5.53650339,3.14574379 C6.02311959,2.68574778 6.35061474,2.5 6.96616004,2.5 C7.58170535,2.5 7.9092005,2.68574778 8.3958167,3.14574379 C8.70260335,3.43574778 8.81588757,3.5 9.081901,3.5 C9.34791443,3.5 9.46119865,3.43574778 9.7679853,3.14574379 C10.2546015,2.68574778 10.5820967,2.5 11.197642,2.5 C11.8131873,2.5 12.1406824,2.68574778 12.6272986,3.14574379 C12.9340853,3.43574778 13.0473695,3.5 13.3133829,3.5 C13.5793963,3.5 13.6926806,3.43574778 13.9994672,3.14574379 C14.4860834,2.68574778 14.8135786,2.5 15.4291239,2.5 Z M15.4291239,0.5 C16.2890347,0.5 17.1201702,0.892834254 17.916651,1.64574379 L17.1730786,2.35425621 C16.5590654,1.77383241 15.979707,1.5 15.4291239,1.5 C15.1631104,1.5 15.0498262,1.56425222 14.7430396,1.85425621 C14.305085,2.26825262 13.9960185,2.46010796 13.4898522,2.49433907 L13.3133829,2.5 L13.3133829,2.5 C12.6978376,2.5 12.3703425,2.31425222 11.8837263,1.85425621 C11.5769396,1.56425222 11.4636554,1.5 11.197642,1.5 C10.9316285,1.5 10.8183443,1.56425222 10.5115577,1.85425621 C10.0736031,2.26825262 9.76453654,2.46010796 9.25837026,2.49433907 L9.081901,2.5 L9.081901,2.5 C8.4663557,2.5 8.13886055,2.31425222 7.65224434,1.85425621 C7.34545769,1.56425222 7.23217347,1.5 6.96616004,1.5 C6.70014662,1.5 6.5868624,1.56425222 6.28007575,1.85425621 C5.84212116,2.26825262 5.53305463,2.46010796 5.02688835,2.49433907 L4.85041909,2.5 L4.85041909,2.5 C4.23487379,2.5 3.90737864,2.31425222 3.42076243,1.85425621 C3.11397578,1.56425222 3.00069156,1.5 2.73467813,1.5 C2.23414802,1.5 1.70983664,1.72630778 1.15732671,2.20353564 L0.990723358,2.35425621 L0.990723358,2.35425621 L0.247151,1.64574379 C1.04363177,0.892834254 1.87476729,0.5 2.73467813,0.5 C3.35022344,0.5 3.67771859,0.685747777 4.16433479,1.14574379 C4.47112144,1.43574778 4.58440566,1.5 4.85041909,1.5 C5.11643252,1.5 5.22971674,1.43574778 5.53650339,1.14574379 C6.02311959,0.685747777 6.35061474,0.5 6.96616004,0.5 C7.58170535,0.5 7.9092005,0.685747777 8.3958167,1.14574379 C8.70260335,1.43574778 8.81588757,1.5 9.081901,1.5 C9.34791443,1.5 9.46119865,1.43574778 9.7679853,1.14574379 C10.2546015,0.685747777 10.5820967,0.5 11.197642,0.5 C11.8131873,0.5 12.1406824,0.685747777 12.6272986,1.14574379 C12.9340853,1.43574778 13.0473695,1.5 13.3133829,1.5 C13.5793963,1.5 13.6926806,1.43574778 13.9994672,1.14574379 C14.4860834,0.685747777 14.8135786,0.5 15.4291239,0.5 Z"></path>
                    </g>
                </g>
                <g id="mark-1" mask="url(#mask-4)">
                    <mask id="mask-6" fill="white">
                        <use xlink:href="#path-5"></use>
                    </mask>
                    <g id="mask"></g>
                    <rect id="Rectangle-4" fill="#2E42A5" mask="url(#mask-6)" x="0" y="0" width="7" height="6"></rect>
                    <g id="contents" mask="url(#mask-6)">
                        <g transform="translate(-2.000000, -1.000000)">
                            <g id="stripe">
                                <polygon id="white" fill="#FFFFFF" fill-rule="nonzero" transform="translate(6.040367, 3.880802) scale(1, -1) translate(-6.040367, -3.880802) " points="0.921107881 1.09501732 2.74923885 0.322928237 10.1953294 6.0332739 11.1596267 7.18062126 9.20470366 7.43867619 6.16762129 4.97792486 3.72308215 3.31995344"></polygon>
                                <polygon id="red" fill="#F50100" fill-rule="nonzero" transform="translate(5.992368, 4.064984) scale(1, -1) translate(-5.992368, -4.064984) " points="1.17138176 0.922437063 2.10273008 0.474380757 10.8133542 7.65558763 9.50563279 7.65558763"></polygon>
                            </g>
                            <g id="stripe" transform="translate(6.000000, 4.000000) scale(-1, 1) translate(-6.000000, -4.000000) ">
                                <polygon id="white" fill="#FFFFFF" fill-rule="nonzero" transform="translate(6.040367, 3.880802) scale(1, -1) translate(-6.040367, -3.880802) " points="0.921107881 1.09501732 2.74923885 0.322928237 10.1953294 6.0332739 11.1596267 7.18062126 9.20470366 7.43867619 6.16762129 4.97792486 3.72308215 3.31995344"></polygon>
                                <polygon id="red" fill="#F50100" fill-rule="nonzero" transform="translate(6.117950, 4.043894) scale(1, -1) translate(-6.117950, -4.043894) " points="0.983485904 1.03296849 1.91483422 0.584912186 5.62390825 3.65955992 6.72356909 4.00308293 11.2524133 7.50287486 9.94469186 7.50287486 5.41839213 4.08615314 4.21610677 3.67423224"></polygon>
                            </g>
                            <g id="cross" transform="translate(2.000000, 1.000000)">
                                <path d="M4.25003197,-0.25 L4.24977621,1.75 L7.25774424,1.75 L7.25774424,3.25 L4.24977621,3.25 L4.25003197,5.25 L2.75003197,5.25 L2.74977621,3.25 L-0.24225576,3.25 L-0.24225576,1.75 L2.74977621,1.75 L2.75003197,-0.25 L4.25003197,-0.25 Z" id="red" stroke="#F7FCFF" stroke-width="0.5" fill="#F50100"></path>
                            </g>
                        </g>
                    </g>
                </g>
                <g id="mark" mask="url(#mask-4)">
                    <g transform="translate(8.000000, 1.000000)">
                        <rect id="Rectangle-6" fill="#D86D00" x="2.2" y="3.68932039" width="1" height="6.31067961" rx="0.25"></rect>
                        <g id="Group-20" stroke-width="1" fill="none">
                            <path d="M2.20213993,0.0287595319 C2.71300478,0.729365401 2.77774272,1.67016913 2.71300478,2.51303944 L2.31411229,2.48416062 C2.35528325,1.94812587 2.31795913,1.12965885 2.20213993,0.0287595319 Z" id="Path-420" fill="#449A01" fill-rule="nonzero"></path>
                            <path d="M2.85355679,2.6920589 L2.48563156,2.5396873 C2.72208717,1.79151828 3.43013001,1.0989121 4.60976007,0.461868748 C3.81718107,0.8405734 3.54769582,1.86738035 2.85355679,2.6920589 Z" id="Path-421" fill="#449A01" fill-rule="nonzero"></path>
                            <path d="M2.68822284,2.92519957 L2.49497649,2.58517766 C3.12553978,2.14674798 3.95020219,1.88023467 4.96896372,1.78563772 C4.1806138,2.00933923 3.38441845,2.55224044 2.68822284,2.92519957 Z" id="Path-422" fill="#449A01" fill-rule="nonzero"></path>
                            <path d="M2.44212159,3.09062256 L2.60877145,2.73758233 C3.84222103,3.1204658 4.54935579,3.63201548 4.73017572,4.27223139 C4.48741824,4.05793533 3.71578027,3.65733061 2.44212159,3.09062256 Z" id="Path-423" fill="#449A01" fill-rule="nonzero"></path>
                            <path d="M2.24761846,3.06486547 L2.64047911,2.99182048 C2.77647513,3.68126589 3.12709182,4.09901929 3.31255335,4.54157843 C2.62033139,4.23240011 2.2653531,3.74016246 2.24761846,3.06486547 Z" id="Path-424" fill="#449A01" fill-rule="nonzero"></path>
                            <path d="M2.21770677,2.7415463 L2.64136049,2.84807209 C1.94632326,3.69773637 0.913570441,4.14407239 0.505208217,4.28998056 C1.10341647,3.75043138 1.67424932,3.23428662 2.21770677,2.7415463 Z" id="Path-425" fill="#449A01" fill-rule="nonzero"></path>
                            <path d="M2.40576739,2.55763741 L2.34144589,2.95243197 C1.78971294,2.78415656 1.01729206,2.73526927 0.0241832394,2.80577008 C0.649513282,2.65767417 1.51384647,2.41232212 2.40576739,2.55763741 Z" id="Path-426" fill="#449A01" fill-rule="nonzero"></path>
                            <path d="M2.47734771,2.35561852 L2.31462035,2.71037932 C1.49998733,2.35816054 0.874978726,1.85287406 0.439594527,1.1945199 C0.481057319,1.37617121 1.39834262,1.88909451 2.47734771,2.35561852 Z" id="Path-427" fill="#449A01" fill-rule="nonzero"></path>
                        </g>
                        <circle id="Oval" fill="#449A01" cx="2.5" cy="2.5" r="1"></circle>
                        <g id="crown" stroke-width="1" fill="none" transform="translate(0.900000, 5.631068)">
                            <path d="M1.59801556,0.539207661 L1.59740106,0.539852054 L1.74477574,0.533307956 C1.94243582,0.535080984 2.13819952,0.583167316 2.33206684,0.677566951 C2.58425515,0.677566951 2.82556539,0.768551549 3.05599757,0.950520744 L3.05599757,1.02269524 L2.60414612,1.52203431 C2.51381115,1.79759763 2.35278718,1.81213408 2.22735405,1.85803808 C2.18591476,1.87320337 1.5961751,1.8909154 1.5961751,1.8909154 L1.59540106,1.88885205 L1.44208351,1.90524343 C0.943385448,1.94145615 0.655441781,1.81371978 0.578252508,1.52203431 L0.126401057,1.02269524 L0.126401057,0.950520744 C0.356833233,0.768551549 0.598143475,0.677566951 0.850331783,0.677566951 C1.10052729,0.558597896 1.34975521,0.512478132 1.59801556,0.539207661 Z" id="Combined-Shape" fill="#F50100"></path>
                            <path d="M3.03495957,1.07149963 L3.06565789,1.10740211 L2.65473706,1.53279389 C2.59478434,1.65428158 2.56459356,1.73446904 2.56459356,1.76777835 C2.56459356,1.81859615 2.44443838,1.84875773 2.20993413,1.87973865 C2.01037414,1.906103 1.77175929,1.92305145 1.58709365,1.92305145 L1.63164119,1.92127284 L1.63205789,1.92305145 L1.60964119,1.92127284 L1.58709365,1.92305145 L1.58664119,1.92127284 L1.43285378,1.91768095 C1.29265511,1.91070627 1.14225741,1.89731488 1.00921741,1.87973865 C0.774713161,1.84875773 0.654557983,1.81859615 0.654557983,1.76777835 L0.651645682,1.75514466 C0.62805799,1.72819837 0.609316553,1.67614461 0.59542137,1.59898339 C0.586249821,1.57773561 0.575876024,1.55601948 0.564414474,1.53279389 L0.153493645,1.10740211 L0.184191964,1.07149963 L0.594641192,1.49627284 L0.777353221,1.44554854 C1.02998869,1.38364452 1.29317492,1.35138467 1.56691193,1.34876901 C1.57333289,1.34859592 1.5793866,1.34861034 1.58543519,1.34863919 L1.60320343,1.34859592 L1.60320343,1.34859592 C1.94875596,1.35206744 2.27716859,1.4025059 2.58880343,1.50008439 C2.58552954,1.53094826 2.58175737,1.55923061 2.57748691,1.58493146 L2.57622285,1.59185238 L2.61710147,1.50576115 L2.62142428,1.49959795 L3.03495957,1.07149963 Z M1.58464119,1.66227284 L1.60320343,1.66167118 C1.0885993,1.6961115 0.795422668,1.73180222 0.723673551,1.76874333 L0.717641192,1.77027284 L0.738925303,1.77817781 C0.750069018,1.78176905 0.763032945,1.78542691 0.777691975,1.78910665 C0.835318387,1.80357214 0.91734544,1.81795268 1.01455805,1.83079567 C1.20504479,1.85596133 1.43167398,1.8724916 1.61142328,1.87368741 C1.78827404,1.87243347 2.01444152,1.8559171 2.20459349,1.83079567 C2.3018061,1.81795268 2.38383315,1.80357214 2.44145956,1.78910665 C2.47077762,1.78174717 2.49331527,1.77447518 2.50807164,1.76764876 C2.51335839,1.76520306 2.51738811,1.76292479 2.52001404,1.76103134 C2.52020618,1.75797156 2.52052394,1.75475441 2.52096743,1.7513785 C2.5015262,1.77777324 2.4762166,1.7838869 2.44680392,1.76874333 C2.3750548,1.73180222 2.08187817,1.6961115 1.56727403,1.66167118 L1.58464119,1.66227284 Z M1.7024,0.844012945 L1.5232,0.844012945 L1.52264119,0.774272839 L1.48743193,0.774549926 L1.48743193,0.341363648 C1.42057606,0.277467482 1.32454332,0.244861836 1.19731697,0.244861836 C0.992459751,0.244861836 0.908334477,0.299760948 0.860273973,0.461854692 C0.82964597,0.565153808 0.859350888,0.653318943 0.955666288,0.735616008 L0.900711461,0.813483844 C0.781003442,0.711198865 0.735696516,0.586846965 0.770344669,0.448626028 L0.787087487,0.449269378 C0.546753758,0.438552899 0.367952833,0.465370561 0.251642207,0.527842777 C0.153143028,0.580748192 0.135126201,0.714982231 0.209661095,0.948492283 L0.125123493,0.981161962 C0.0374112974,0.706368798 0.0624594965,0.51974765 0.212337458,0.439245905 C0.344403973,0.368310961 0.536877488,0.3394426 0.790715499,0.350761234 L0.788641192,0.392272839 L0.805130042,0.350445691 C0.873140767,0.203894875 0.990923348,0.146272839 1.19731697,0.146272839 C1.33202779,0.146272839 1.441327,0.179512858 1.52368413,0.246990928 L1.5232,0.203184466 L1.7024,0.203184466 L1.70123612,0.228977215 C1.77870056,0.17870447 1.87612256,0.153889968 1.99251496,0.153889968 C2.23330752,0.153889968 2.35349061,0.232319961 2.41473941,0.438893898 L2.40364119,0.409272839 L2.40424119,0.400055733 C2.6073116,0.391000825 2.77110873,0.407665595 2.89612282,0.45101239 L2.98261923,0.488540404 C3.13249719,0.569042148 3.15754539,0.755663297 3.0698332,1.03045646 L3.0698332,1.03045646 L2.9852956,0.997786782 C3.05983049,0.76427673 3.04181366,0.63004269 2.94331448,0.577137275 C2.82700386,0.514665059 2.64820293,0.487847397 2.4078692,0.498563876 L2.42778439,0.499473616 C2.44375902,0.620430415 2.3962122,0.729596028 2.28912047,0.821100972 L2.28912047,0.821100972 L2.23416564,0.743233136 C2.33048104,0.660936072 2.36018596,0.572770937 2.32955796,0.46947182 C2.28149746,0.307378076 2.19737218,0.252478964 1.99251496,0.252478964 C1.86528861,0.252478964 1.76925587,0.28508461 1.7024,0.348980777 L1.7024,0.348980777 L1.7024,0.844012945 Z" id="Combined-Shape" fill="#FECA00" fill-rule="nonzero"></path>
                            <g id="top" transform="translate(0.000000, 0.055301)" fill="#FFFFFF" fill-rule="nonzero">
                                <path d="M0.801833257,0.255203631 L0.80105124,0.304490618 C0.403810765,0.29685968 0.175949442,0.360646238 0.118107943,0.48777758 C0.0583085077,0.619212324 0.0694282249,0.77898799 0.153219703,0.96878418 L0.112922657,0.990323225 C0.0235214988,0.78782054 0.0113122535,0.612389793 0.0780475292,0.465710585 C0.146740742,0.314727976 0.387789094,0.247249895 0.801833257,0.255203631 Z" id="Path-311"></path>
                                <path d="M0.878692159,0.692315467 L0.85572508,0.734639373 C0.769216677,0.677803938 0.725919846,0.580810303 0.725919846,0.447142583 C0.725919846,0.255034738 0.815857254,0.142381386 1.01479868,0.0652888517 C1.14176723,0.0160867949 1.31521111,0.0362600696 1.53561822,0.124188283 L1.5203481,0.170530899 C1.30876178,0.0861216085 1.14504327,0.0670794931 1.02968048,0.111784161 C0.847205858,0.182495581 0.770719846,0.27830005 0.770719846,0.447142583 C0.770719846,0.564442487 0.806682198,0.64500541 0.878692159,0.692315467 Z" id="Path-312"></path>
                                <path d="M3.13143326,0.304498129 L3.13065124,0.353785117 C2.73341076,0.346154178 2.50554944,0.409940736 2.44770794,0.537072079 C2.38790851,0.668506822 2.39902822,0.828282488 2.4828197,1.01807868 L2.44252266,1.03961772 C2.3531215,0.837115039 2.34091225,0.661684291 2.40764753,0.515005083 C2.47634074,0.364022474 2.71738909,0.296544394 3.13143326,0.304498129 Z" id="Path-311" transform="translate(2.748318, 0.671744) scale(-1, 1) translate(-2.748318, -0.671744) "></path>
                                <path d="M1.72077231,0.702564965 L1.69780523,0.744888871 C1.61129683,0.688053435 1.568,0.5910598 1.568,0.457392081 C1.568,0.265284236 1.65793741,0.152630884 1.85687884,0.0755383495 C1.98384739,0.0263362927 2.15729127,0.0465095674 2.37769837,0.134437781 L2.36242825,0.180780397 C2.15084193,0.0963711063 1.98712343,0.0773289909 1.87176063,0.122033658 C1.68928601,0.192745079 1.6128,0.288549548 1.6128,0.457392081 C1.6128,0.574691985 1.64876235,0.655254908 1.72077231,0.702564965 Z" id="Path-312" transform="translate(1.972849, 0.397092) scale(-1, 1) translate(-1.972849, -0.397092) "></path>
                            </g>
                        </g>
                    </g>
                </g>
            </g>
        </g>
    </g>
</svg>