<?xml version="1.0" encoding="UTF-8"?>
<svg width="16px" height="12px" viewBox="0 0 16 12" version="1.1" xmlns="http://www.w3.org/2000/svg" xmlns:xlink="http://www.w3.org/1999/xlink">
    <title>flags/S/IQ - Iraq</title>
    <defs>
        <rect id="path-1" x="0" y="0" width="16" height="12"></rect>
        <rect id="path-3" x="0" y="0" width="16" height="12"></rect>
    </defs>
    <g id="Symbols" stroke="none" stroke-width="1" fill="none" fill-rule="evenodd">
        <g id="flag">
            <mask id="mask-2" fill="white">
                <use xlink:href="#path-1"></use>
            </mask>
            <g id="mask"></g>
            <g id="contents" mask="url(#mask-2)">
                <mask id="mask-4" fill="white">
                    <use xlink:href="#path-3"></use>
                </mask>
                <use id="background" fill="#F7FCFF" xlink:href="#path-3"></use>
                <rect id="top" fill="#BF2714" mask="url(#mask-4)" x="0" y="0" width="16" height="4"></rect>
                <rect id="bottom" fill="#272727" mask="url(#mask-4)" x="0" y="8" width="16" height="4"></rect>
                <g id="mark" mask="url(#mask-4)" fill="#009C4E" stroke="#009C4E" stroke-width="0.5">
                    <g transform="translate(2.000000, 4.000000)" id="Combined-Shape">
                        <path d="M4.38939029,0.5 L4.68440923,0.760433821 L3.16705799,2.09990573 L4.73529899,2.09990573 C4.79493682,1.7916308 4.9570968,1.63749334 5.22177893,1.63749334 C5.48646106,1.63749334 5.64988702,1.7916308 5.71205682,2.09990573 L5.71205682,3.06281804 L1.25337223,3.06281804 C1.11428772,3.35427268 0.863163646,3.5 0.5,3.5 C0.91540902,3.20553368 0.971513111,2.84073461 0.668312275,2.40560278 L1.04474547,2.11755708 C1.05468375,2.30958755 1.14387843,2.40560278 1.31232951,2.40560278 C1.48078058,2.40560278 1.69828457,2.44179842 1.96484147,2.51418969 L1.96484147,2.11755708 L2.29130565,1.9718433 L2.29130565,2.51418969 L5.30635231,2.51418969 L5.30635231,2.11755708 C5.3244927,2.0458916 5.29630157,2.01005886 5.22177893,2.01005886 C5.14725628,2.01005886 5.10551684,2.0458916 5.0965606,2.11755708 L5.0965606,2.30325562 L2.70400577,2.30325562 L2.70400577,1.98780663 L4.38939029,0.5 Z M10.5270201,0.607187713 L10.9374323,0.738565372 L10.9374323,2.44265197 L11.255485,2.44265197 L11.5,3.05153265 L10.5270201,3.05153265 L10.5270201,0.607187713 Z M5.99482452,0.607187713 L6.40523664,0.738565372 L6.40523664,2.44265197 L6.72328938,2.44265197 L6.96780439,3.05153265 L5.99482452,3.05153265 L5.99482452,0.607187713 Z M10.0507431,0.632482258 L10.0482299,3.03141579 L7.88267108,3.03141579 C7.88267108,2.44512982 8.0900147,2.13769204 8.50470195,2.10910245 L8.50470195,2.10910245 L8.50470195,1.90788216 L8.82808471,1.69975113 L8.82808471,2.44096521 L9.11357431,2.44096521 L9.11357431,1.37340226 L9.53897713,1.12814436 L9.53897713,2.44096521 L9.79723362,2.44096521 L9.79723362,0.804074567 L10.0507431,0.632482258 Z"></path>
                    </g>
                </g>
            </g>
        </g>
    </g>
</svg>