<?xml version="1.0" encoding="UTF-8"?>
<svg width="16px" height="12px" viewBox="0 0 16 12" version="1.1" xmlns="http://www.w3.org/2000/svg" xmlns:xlink="http://www.w3.org/1999/xlink">
    <title>flags/S/IR - Iran</title>
    <defs>
        <rect id="path-1" x="0" y="0" width="16" height="12"></rect>
        <rect id="path-3" x="0" y="0" width="16" height="12"></rect>
    </defs>
    <g id="Symbols" stroke="none" stroke-width="1" fill="none" fill-rule="evenodd">
        <g id="flag">
            <mask id="mask-2" fill="white">
                <use xlink:href="#path-1"></use>
            </mask>
            <g id="mask"></g>
            <g id="contents" mask="url(#mask-2)">
                <mask id="mask-4" fill="white">
                    <use xlink:href="#path-3"></use>
                </mask>
                <use id="background" fill="#F7FCFF" xlink:href="#path-3"></use>
                <rect id="top" fill="#5EAA22" mask="url(#mask-4)" x="0" y="0" width="16" height="4"></rect>
                <rect id="bottom" fill="#E31D1C" mask="url(#mask-4)" x="0" y="8" width="16" height="4"></rect>
                <g id="mark" mask="url(#mask-4)">
                    <g transform="translate(-2.000000, 2.000000)">
                        <g id="bottom" stroke-width="1" fill="none" transform="translate(0.000000, 6.600006)">
                            <g id="pattern" stroke="#F7FCFF" stroke-width="0.5">
                                <line x1="2.18631822" y1="0.0834652938" x2="1.04929314" y2="0.0834652938" id="Path-80"></line>
                            </g>
                            <g id="pattern" transform="translate(1.951220, 0.000000)" stroke="#F7FCFF" stroke-width="0.5">
                                <polyline id="Path-78" points="0.217920075 0.523045219 0.0294514974 0.523045219 0.0294514974 0.27813249 0.426266487 0.27813249 0.426266487 0.0774998643 0.426266487 0.523045219 0.605834542 0.523045219 0.605834542 0.0774998643"></polyline>
                                <path d="M0.807855769,0.104002285 C0.807855769,0.120418805 0.807855769,0.260725663 0.807855769,0.524922858 L0.62146398,0.524922858" id="Path-79"></path>
                                <line x1="2.18631822" y1="0.0834652938" x2="1.04929314" y2="0.0834652938" id="Path-80"></line>
                                <polyline id="Path-82" points="1.03757358 0.533640107 1.03757358 0.272637814 1.40770679 0.272637814 1.40770679 0.524876574 1.78172094 0.524876574 1.78172094 0.272917583 1.587677 0.272917583"></polyline>
                            </g>
                            <g id="pattern" transform="translate(3.937282, 0.000000)" stroke="#F7FCFF" stroke-width="0.5">
                                <polyline id="Path-78" points="0.217920075 0.523045219 0.0294514974 0.523045219 0.0294514974 0.27813249 0.426266487 0.27813249 0.426266487 0.0774998643 0.426266487 0.523045219 0.605834542 0.523045219 0.605834542 0.0774998643"></polyline>
                                <path d="M0.807855769,0.104002285 C0.807855769,0.120418805 0.807855769,0.260725663 0.807855769,0.524922858 L0.62146398,0.524922858" id="Path-79"></path>
                                <line x1="2.18631822" y1="0.0834652938" x2="1.04929314" y2="0.0834652938" id="Path-80"></line>
                                <polyline id="Path-82" points="1.03757358 0.533640107 1.03757358 0.272637814 1.40770679 0.272637814 1.40770679 0.524876574 1.78172094 0.524876574 1.78172094 0.272917583 1.587677 0.272917583"></polyline>
                            </g>
                            <g id="pattern" transform="translate(5.888502, 0.000000)" stroke="#F7FCFF" stroke-width="0.5">
                                <polyline id="Path-78" points="0.217920075 0.523045219 0.0294514974 0.523045219 0.0294514974 0.27813249 0.426266487 0.27813249 0.426266487 0.0774998643 0.426266487 0.523045219 0.605834542 0.523045219 0.605834542 0.0774998643"></polyline>
                                <path d="M0.807855769,0.104002285 C0.807855769,0.120418805 0.807855769,0.260725663 0.807855769,0.524922858 L0.62146398,0.524922858" id="Path-79"></path>
                                <line x1="2.18631822" y1="0.0834652938" x2="1.04929314" y2="0.0834652938" id="Path-80"></line>
                                <polyline id="Path-82" points="1.03757358 0.533640107 1.03757358 0.272637814 1.40770679 0.272637814 1.40770679 0.524876574 1.78172094 0.524876574 1.78172094 0.272917583 1.587677 0.272917583"></polyline>
                            </g>
                            <g id="pattern" transform="translate(7.839721, 0.000000)" stroke="#F7FCFF" stroke-width="0.5">
                                <polyline id="Path-78" points="0.217920075 0.523045219 0.0294514974 0.523045219 0.0294514974 0.27813249 0.426266487 0.27813249 0.426266487 0.0774998643 0.426266487 0.523045219 0.605834542 0.523045219 0.605834542 0.0774998643"></polyline>
                                <path d="M0.807855769,0.104002285 C0.807855769,0.120418805 0.807855769,0.260725663 0.807855769,0.524922858 L0.62146398,0.524922858" id="Path-79"></path>
                                <line x1="2.18631822" y1="0.0834652938" x2="1.04929314" y2="0.0834652938" id="Path-80"></line>
                                <polyline id="Path-82" points="1.03757358 0.533640107 1.03757358 0.272637814 1.40770679 0.272637814 1.40770679 0.524876574 1.78172094 0.524876574 1.78172094 0.272917583 1.587677 0.272917583"></polyline>
                            </g>
                            <g id="pattern" transform="translate(9.825784, 0.000000)" stroke="#F7FCFF" stroke-width="0.5">
                                <polyline id="Path-78" points="0.217920075 0.523045219 0.0294514974 0.523045219 0.0294514974 0.27813249 0.426266487 0.27813249 0.426266487 0.0774998643 0.426266487 0.523045219 0.605834542 0.523045219 0.605834542 0.0774998643"></polyline>
                                <path d="M0.807855769,0.104002285 C0.807855769,0.120418805 0.807855769,0.260725663 0.807855769,0.524922858 L0.62146398,0.524922858" id="Path-79"></path>
                                <line x1="2.18631822" y1="0.0834652938" x2="1.04929314" y2="0.0834652938" id="Path-80"></line>
                                <polyline id="Path-82" points="1.03757358 0.533640107 1.03757358 0.272637814 1.40770679 0.272637814 1.40770679 0.524876574 1.78172094 0.524876574 1.78172094 0.272917583 1.587677 0.272917583"></polyline>
                            </g>
                            <g id="pattern" transform="translate(11.811847, 0.000000)" stroke="#F7FCFF" stroke-width="0.5">
                                <polyline id="Path-78" points="0.217920075 0.523045219 0.0294514974 0.523045219 0.0294514974 0.27813249 0.426266487 0.27813249 0.426266487 0.0774998643 0.426266487 0.523045219 0.605834542 0.523045219 0.605834542 0.0774998643"></polyline>
                                <path d="M0.807855769,0.104002285 C0.807855769,0.120418805 0.807855769,0.260725663 0.807855769,0.524922858 L0.62146398,0.524922858" id="Path-79"></path>
                                <line x1="2.18631822" y1="0.0834652938" x2="1.04929314" y2="0.0834652938" id="Path-80"></line>
                                <polyline id="Path-82" points="1.03757358 0.533640107 1.03757358 0.272637814 1.40770679 0.272637814 1.40770679 0.524876574 1.78172094 0.524876574 1.78172094 0.272917583 1.587677 0.272917583"></polyline>
                            </g>
                            <g id="pattern" transform="translate(13.797909, 0.000000)" stroke="#F7FCFF" stroke-width="0.5">
                                <polyline id="Path-78" points="0.217920075 0.523045219 0.0294514974 0.523045219 0.0294514974 0.27813249 0.426266487 0.27813249 0.426266487 0.0774998643 0.426266487 0.523045219 0.605834542 0.523045219 0.605834542 0.0774998643"></polyline>
                                <path d="M0.807855769,0.104002285 C0.807855769,0.120418805 0.807855769,0.260725663 0.807855769,0.524922858 L0.62146398,0.524922858" id="Path-79"></path>
                                <line x1="2.18631822" y1="0.0834652938" x2="1.04929314" y2="0.0834652938" id="Path-80"></line>
                                <polyline id="Path-82" points="1.03757358 0.533640107 1.03757358 0.272637814 1.40770679 0.272637814 1.40770679 0.524876574 1.78172094 0.524876574 1.78172094 0.272917583 1.587677 0.272917583"></polyline>
                            </g>
                            <g id="pattern" transform="translate(15.749129, 0.000000)" stroke="#F7FCFF" stroke-width="0.5">
                                <polyline id="Path-78" points="0.217920075 0.523045219 0.0294514974 0.523045219 0.0294514974 0.27813249 0.426266487 0.27813249 0.426266487 0.0774998643 0.426266487 0.523045219 0.605834542 0.523045219 0.605834542 0.0774998643"></polyline>
                                <path d="M0.807855769,0.104002285 C0.807855769,0.120418805 0.807855769,0.260725663 0.807855769,0.524922858 L0.62146398,0.524922858" id="Path-79"></path>
                                <line x1="2.18631822" y1="0.0834652938" x2="1.04929314" y2="0.0834652938" id="Path-80"></line>
                                <polyline id="Path-82" points="1.03757358 0.533640107 1.03757358 0.272637814 1.40770679 0.272637814 1.40770679 0.524876574 1.78172094 0.524876574 1.78172094 0.272917583 1.587677 0.272917583"></polyline>
                            </g>
                            <g id="pattern" transform="translate(17.804878, 0.000000)" stroke="#F7FCFF" stroke-width="0.5">
                                <polyline id="Path-78" points="0.217920075 0.523045219 0.0294514974 0.523045219 0.0294514974 0.27813249 0.426266487 0.27813249 0.426266487 0.0774998643 0.426266487 0.523045219 0.605834542 0.523045219 0.605834542 0.0774998643"></polyline>
                            </g>
                        </g>
                        <g id="top" stroke-width="1" fill="none" transform="translate(0.000000, 0.500000)">
                            <g id="pattern" stroke="#F7FCFF" stroke-width="0.5">
                                <line x1="2.18631822" y1="0.0834652938" x2="1.04929314" y2="0.0834652938" id="Path-80"></line>
                            </g>
                            <g id="pattern" transform="translate(1.951220, 0.000000)" stroke="#F7FCFF" stroke-width="0.5">
                                <polyline id="Path-78" points="0.217920075 0.523045219 0.0294514974 0.523045219 0.0294514974 0.27813249 0.426266487 0.27813249 0.426266487 0.0774998643 0.426266487 0.523045219 0.605834542 0.523045219 0.605834542 0.0774998643"></polyline>
                                <path d="M0.807855769,0.104002285 C0.807855769,0.120418805 0.807855769,0.260725663 0.807855769,0.524922858 L0.62146398,0.524922858" id="Path-79"></path>
                                <line x1="2.18631822" y1="0.0834652938" x2="1.04929314" y2="0.0834652938" id="Path-80"></line>
                                <polyline id="Path-82" points="1.03757358 0.533640107 1.03757358 0.272637814 1.40770679 0.272637814 1.40770679 0.524876574 1.78172094 0.524876574 1.78172094 0.272917583 1.587677 0.272917583"></polyline>
                            </g>
                            <g id="pattern" transform="translate(3.937282, 0.000000)" stroke="#F7FCFF" stroke-width="0.5">
                                <polyline id="Path-78" points="0.217920075 0.523045219 0.0294514974 0.523045219 0.0294514974 0.27813249 0.426266487 0.27813249 0.426266487 0.0774998643 0.426266487 0.523045219 0.605834542 0.523045219 0.605834542 0.0774998643"></polyline>
                                <path d="M0.807855769,0.104002285 C0.807855769,0.120418805 0.807855769,0.260725663 0.807855769,0.524922858 L0.62146398,0.524922858" id="Path-79"></path>
                                <line x1="2.18631822" y1="0.0834652938" x2="1.04929314" y2="0.0834652938" id="Path-80"></line>
                                <polyline id="Path-82" points="1.03757358 0.533640107 1.03757358 0.272637814 1.40770679 0.272637814 1.40770679 0.524876574 1.78172094 0.524876574 1.78172094 0.272917583 1.587677 0.272917583"></polyline>
                            </g>
                            <g id="pattern" transform="translate(5.888502, 0.000000)" stroke="#F7FCFF" stroke-width="0.5">
                                <polyline id="Path-78" points="0.217920075 0.523045219 0.0294514974 0.523045219 0.0294514974 0.27813249 0.426266487 0.27813249 0.426266487 0.0774998643 0.426266487 0.523045219 0.605834542 0.523045219 0.605834542 0.0774998643"></polyline>
                                <path d="M0.807855769,0.104002285 C0.807855769,0.120418805 0.807855769,0.260725663 0.807855769,0.524922858 L0.62146398,0.524922858" id="Path-79"></path>
                                <line x1="2.18631822" y1="0.0834652938" x2="1.04929314" y2="0.0834652938" id="Path-80"></line>
                                <polyline id="Path-82" points="1.03757358 0.533640107 1.03757358 0.272637814 1.40770679 0.272637814 1.40770679 0.524876574 1.78172094 0.524876574 1.78172094 0.272917583 1.587677 0.272917583"></polyline>
                            </g>
                            <g id="pattern" transform="translate(7.839721, 0.000000)" stroke="#F7FCFF" stroke-width="0.5">
                                <polyline id="Path-78" points="0.217920075 0.523045219 0.0294514974 0.523045219 0.0294514974 0.27813249 0.426266487 0.27813249 0.426266487 0.0774998643 0.426266487 0.523045219 0.605834542 0.523045219 0.605834542 0.0774998643"></polyline>
                                <path d="M0.807855769,0.104002285 C0.807855769,0.120418805 0.807855769,0.260725663 0.807855769,0.524922858 L0.62146398,0.524922858" id="Path-79"></path>
                                <line x1="2.18631822" y1="0.0834652938" x2="1.04929314" y2="0.0834652938" id="Path-80"></line>
                                <polyline id="Path-82" points="1.03757358 0.533640107 1.03757358 0.272637814 1.40770679 0.272637814 1.40770679 0.524876574 1.78172094 0.524876574 1.78172094 0.272917583 1.587677 0.272917583"></polyline>
                            </g>
                            <g id="pattern" transform="translate(9.825784, 0.000000)" stroke="#F7FCFF" stroke-width="0.5">
                                <polyline id="Path-78" points="0.217920075 0.523045219 0.0294514974 0.523045219 0.0294514974 0.27813249 0.426266487 0.27813249 0.426266487 0.0774998643 0.426266487 0.523045219 0.605834542 0.523045219 0.605834542 0.0774998643"></polyline>
                                <path d="M0.807855769,0.104002285 C0.807855769,0.120418805 0.807855769,0.260725663 0.807855769,0.524922858 L0.62146398,0.524922858" id="Path-79"></path>
                                <line x1="2.18631822" y1="0.0834652938" x2="1.04929314" y2="0.0834652938" id="Path-80"></line>
                                <polyline id="Path-82" points="1.03757358 0.533640107 1.03757358 0.272637814 1.40770679 0.272637814 1.40770679 0.524876574 1.78172094 0.524876574 1.78172094 0.272917583 1.587677 0.272917583"></polyline>
                            </g>
                            <g id="pattern" transform="translate(11.811847, 0.000000)" stroke="#F7FCFF" stroke-width="0.5">
                                <polyline id="Path-78" points="0.217920075 0.523045219 0.0294514974 0.523045219 0.0294514974 0.27813249 0.426266487 0.27813249 0.426266487 0.0774998643 0.426266487 0.523045219 0.605834542 0.523045219 0.605834542 0.0774998643"></polyline>
                                <path d="M0.807855769,0.104002285 C0.807855769,0.120418805 0.807855769,0.260725663 0.807855769,0.524922858 L0.62146398,0.524922858" id="Path-79"></path>
                                <line x1="2.18631822" y1="0.0834652938" x2="1.04929314" y2="0.0834652938" id="Path-80"></line>
                                <polyline id="Path-82" points="1.03757358 0.533640107 1.03757358 0.272637814 1.40770679 0.272637814 1.40770679 0.524876574 1.78172094 0.524876574 1.78172094 0.272917583 1.587677 0.272917583"></polyline>
                            </g>
                            <g id="pattern" transform="translate(13.797909, 0.000000)" stroke="#F7FCFF" stroke-width="0.5">
                                <polyline id="Path-78" points="0.217920075 0.523045219 0.0294514974 0.523045219 0.0294514974 0.27813249 0.426266487 0.27813249 0.426266487 0.0774998643 0.426266487 0.523045219 0.605834542 0.523045219 0.605834542 0.0774998643"></polyline>
                                <path d="M0.807855769,0.104002285 C0.807855769,0.120418805 0.807855769,0.260725663 0.807855769,0.524922858 L0.62146398,0.524922858" id="Path-79"></path>
                                <line x1="2.18631822" y1="0.0834652938" x2="1.04929314" y2="0.0834652938" id="Path-80"></line>
                                <polyline id="Path-82" points="1.03757358 0.533640107 1.03757358 0.272637814 1.40770679 0.272637814 1.40770679 0.524876574 1.78172094 0.524876574 1.78172094 0.272917583 1.587677 0.272917583"></polyline>
                            </g>
                            <g id="pattern" transform="translate(15.749129, 0.000000)" stroke="#F7FCFF" stroke-width="0.5">
                                <polyline id="Path-78" points="0.217920075 0.523045219 0.0294514974 0.523045219 0.0294514974 0.27813249 0.426266487 0.27813249 0.426266487 0.0774998643 0.426266487 0.523045219 0.605834542 0.523045219 0.605834542 0.0774998643"></polyline>
                                <path d="M0.807855769,0.104002285 C0.807855769,0.120418805 0.807855769,0.260725663 0.807855769,0.524922858 L0.62146398,0.524922858" id="Path-79"></path>
                                <line x1="2.18631822" y1="0.0834652938" x2="1.04929314" y2="0.0834652938" id="Path-80"></line>
                                <polyline id="Path-82" points="1.03757358 0.533640107 1.03757358 0.272637814 1.40770679 0.272637814 1.40770679 0.524876574 1.78172094 0.524876574 1.78172094 0.272917583 1.587677 0.272917583"></polyline>
                            </g>
                            <g id="pattern" transform="translate(17.804878, 0.000000)" stroke="#F7FCFF" stroke-width="0.5">
                                <polyline id="Path-78" points="0.217920075 0.523045219 0.0294514974 0.523045219 0.0294514974 0.27813249 0.426266487 0.27813249 0.426266487 0.0774998643 0.426266487 0.523045219 0.605834542 0.523045219 0.605834542 0.0774998643"></polyline>
                            </g>
                        </g>
                        <path d="M10.2678691,2.40526061 C10.7602261,2.93576136 10.9908957,3.49693902 10.9598779,4.08879362 C10.9353544,4.55672865 10.6881148,5.04254885 10.218159,5.54625421 C10.3708938,5.58021688 10.5783427,5.62224327 10.8604185,5.67793457 C10.8740325,5.7485103 10.5455821,5.65694167 9.94964035,5.74369738 L10.0343084,5.73325124 C9.95998441,5.80520685 9.88119396,5.87752113 9.79793708,5.9501941 L9.76019129,5.902 L9.72368616,5.9501941 C9.64055909,5.87763444 9.56188454,5.80543235 9.48766252,5.73358782 L9.57198289,5.74369738 C8.97604119,5.65694167 8.64759071,5.7485103 8.66120479,5.67793457 C8.94328053,5.62224327 9.15072944,5.58021688 9.30688765,5.54563618 C8.83350844,5.04254885 8.58626881,4.55672865 8.56174537,4.08879362 C8.53072759,3.49693902 8.76139718,2.93576136 9.25375416,2.40526061 C9.07454949,2.64903539 9.00335096,3.12208822 9.04015856,3.82441911 C9.05909624,4.18577152 9.20130108,4.72321436 9.38055075,5.04062361 L9.38109756,2.4625 L10.1310976,2.4625 L10.1308485,5.06437032 C10.3107173,4.76805016 10.4493285,4.26244727 10.4685698,3.89530103 C10.5053774,3.19297013 10.4384772,2.69628999 10.2678691,2.40526061 Z M8.94918597,2.425 C8.4787097,2.67706841 8.24347157,3.15474999 8.24347157,3.85804472 C8.24347157,4.56133946 8.36558911,5.06526879 8.6098242,5.36983273 C8.02206892,4.97947841 7.72819129,4.48796785 7.72819129,3.89530103 C7.72819129,3.3026342 8.13518951,2.81253386 8.94918597,2.425 Z M10.6271777,2.425 C11.4404109,2.77982617 11.8470275,3.25357267 11.8470275,3.84623949 C11.8470275,4.43890631 11.5535315,4.94677072 10.9665395,5.36983273 C11.2107746,5.06526879 11.3328921,4.56133946 11.3328921,3.85804472 C11.3328921,3.15474999 11.097654,2.67706841 10.6271777,2.425 Z M10.174216,2.125 L10.174216,2.275 C10.0140752,2.35 9.86308801,2.3875 9.72125436,2.3875 C9.5794207,2.3875 9.44004788,2.35 9.30313589,2.275 L9.30313589,2.125 C9.44557895,2.2 9.58969668,2.2375 9.73548907,2.2375 C9.88128147,2.2375 10.0275238,2.2 10.174216,2.125 Z" id="Combined-Shape" fill="#E31D1C"></path>
                    </g>
                </g>
            </g>
        </g>
    </g>
</svg>