<?xml version="1.0" encoding="UTF-8"?>
<svg width="16px" height="12px" viewBox="0 0 16 12" version="1.1" xmlns="http://www.w3.org/2000/svg" xmlns:xlink="http://www.w3.org/1999/xlink">
    <title>flags/S/KM - Comors</title>
    <defs>
        <rect id="path-1" x="0" y="0" width="16" height="12"></rect>
        <rect id="path-3" x="0" y="0" width="16" height="12"></rect>
    </defs>
    <g id="Symbols" stroke="none" stroke-width="1" fill="none" fill-rule="evenodd">
        <g id="flags/S/KM---Comors">
            <g id="flag">
                <mask id="mask-2" fill="white">
                    <use xlink:href="#path-1"></use>
                </mask>
                <g id="mask"></g>
            </g>
            <g id="contents">
                <mask id="mask-4" fill="white">
                    <use xlink:href="#path-3"></use>
                </mask>
                <use id="background" fill="#5196ED" xlink:href="#path-3"></use>
                <rect id="3" fill="#AF0100" mask="url(#mask-4)" x="0" y="6" width="16" height="3"></rect>
                <rect id="2" fill="#F7FCFF" mask="url(#mask-4)" x="0" y="3" width="16" height="3"></rect>
                <rect id="1" fill="#FBCD17" mask="url(#mask-4)" x="0" y="0" width="16" height="3"></rect>
                <polygon id="triangle" fill="#5EAA22" mask="url(#mask-4)" points="0 0 8 6 0 12"></polygon>
                <path d="M3.31171338,3.47463843 C3.31171338,3.47463843 1.4873719,3.88386312 1.42400114,5.97229905 C1.36532451,7.90603603 2.89705472,8.62126549 3.12429967,8.71661506 L3.15231016,8.72790376 L3.15231016,8.72790376 C2.47106166,8.91914739 0.240308036,8.3834674 0.313471674,5.97229905 C0.386635313,3.56113071 2.67280742,2.97130289 3.31171338,3.47463843 Z M3.6,7.0572949 L3.77633558,7.4145898 L4.17063391,7.47188471 L3.88531695,7.75 L3.95267115,8.1427051 L3.6,7.9572949 L3.24732885,8.1427051 L3.31468305,7.75 L3.02936609,7.47188471 L3.42366442,7.4145898 L3.6,7.0572949 Z M3.6,6.0572949 L3.77633558,6.4145898 L4.17063391,6.47188471 L3.88531695,6.75 L3.95267115,7.1427051 L3.6,6.9572949 L3.24732885,7.1427051 L3.31468305,6.75 L3.02936609,6.47188471 L3.42366442,6.4145898 L3.6,6.0572949 Z M3.6,5.0572949 L3.77633558,5.4145898 L4.17063391,5.47188471 L3.88531695,5.75 L3.95267115,6.1427051 L3.6,5.9572949 L3.24732885,6.1427051 L3.31468305,5.75 L3.02936609,5.47188471 L3.42366442,5.4145898 L3.6,5.0572949 Z M3.6,4.0572949 L3.77633558,4.4145898 L4.17063391,4.47188471 L3.88531695,4.75 L3.95267115,5.1427051 L3.6,4.9572949 L3.24732885,5.1427051 L3.31468305,4.75 L3.02936609,4.47188471 L3.42366442,4.4145898 L3.6,4.0572949 Z" id="Combined-Shape" fill="#F7FCFF" mask="url(#mask-4)"></path>
            </g>
        </g>
    </g>
</svg>