<?xml version="1.0" encoding="UTF-8"?>
<svg width="16px" height="12px" viewBox="0 0 16 12" version="1.1" xmlns="http://www.w3.org/2000/svg" xmlns:xlink="http://www.w3.org/1999/xlink">
    <title>flags/S/KY - Cayman Islands</title>
    <defs>
        <rect id="path-1" x="0" y="0" width="16" height="12"></rect>
        <path d="M0.00301190491,0 C0.00301190491,0.507141707 0.00301190491,1.10041872 0.00301190491,1.48878286 C0.00301190491,3.38181818 1.58343011,4 1.64,4 C1.69985188,4 3.16384831,3.38181818 3.16384831,1.48878286 C3.16384831,1.13740134 3.16384831,0.42546524 3.16384831,0 L0.00301190491,0 Z" id="path-3"></path>
        <rect id="path-5" x="0" y="0" width="9" height="7"></rect>
    </defs>
    <g id="Symbols" stroke="none" stroke-width="1" fill="none" fill-rule="evenodd">
        <g id="flags/S/KY---Cayman-Islands">
            <g id="flag">
                <mask id="mask-2" fill="white">
                    <use xlink:href="#path-1"></use>
                </mask>
                <g id="mask"></g>
                <g id="contents" mask="url(#mask-2)">
                    <polygon id="left" fill="#2E42A5" points="0 0 16 0 16 12 0 12"></polygon>
                    <g id="weapon" transform="translate(10.000000, 3.000000)">
                        <g id="Group-2" transform="translate(1.284293, 3.356375)">
                            <mask id="mask-4" fill="white">
                                <use xlink:href="#path-3"></use>
                            </mask>
                            <path stroke="#F7FCFF" stroke-width="0.25" d="M3.28884831,-0.125 L3.28884831,1.48878286 C3.28884831,2.16429305 3.10906109,2.68372093 2.87148413,3.07523452 C2.39168793,3.86591194 1.68231854,4.125 1.64,4.125 C1.60010755,4.125 0.840002593,3.86263406 0.326651211,3.07512877 C0.0711375149,2.68315868 -0.121988095,2.16369066 -0.121988095,1.48878286 L-0.121988095,1.48878286 L-0.121988095,-0.125 L3.28884831,-0.125 Z"></path>
                            <rect id="Rectangle" fill="#F50100" fill-rule="nonzero" mask="url(#mask-4)" x="-0.2" y="-0.25" width="3.6" height="1.7"></rect>
                            <path d="M1.40479825,1.8 C1.5199984,1.8 1.7503989,1.64327062 1.80799868,1.60710246 C2.01919919,1.45037308 2.17279792,1.59504624 2.29759877,1.66738307 C2.43199892,1.73971964 2.68159861,1.82411219 2.83519935,1.66738307 C2.98879949,1.51065369 3.07519975,1.52270966 3.18080001,1.52270966 C3.2,1.34186809 3.2,1.16102552 3.2,0.956071754 L3.2,0.8113986 C3.06560006,0.775230185 2.99840079,0.82345457 2.85439934,0.980183947 C2.7103993,1.13691332 2.54719987,1.10074491 2.33599936,1.00429614 C2.13440014,0.895791147 1.93279893,0.702893105 1.73119971,1.00429614 C1.67359954,1.08868894 1.53919959,1.2092499 1.40479965,1.2092499 C1.26079961,1.2092499 1.13599936,1.08868894 1.07839958,1.00429614 C0.867199071,0.702893105 0.675199151,0.895791147 0.473599936,1.00429614 C0.262399423,1.10074491 0.0896000962,1.13691332 -0.054399343,0.980183947 C-0.188799287,0.82345457 -0.255998558,0.775230185 -0.4,0.8113986 L-0.4,0.956071754 C-0.4,1.16102552 -0.390400104,1.34186633 -0.371200112,1.52270966 C-0.265600056,1.52270966 -0.188799888,1.51065369 -0.0352007532,1.66738307 C0.118399383,1.82411219 0.377598974,1.73971964 0.502399824,1.66738307 C0.636799968,1.59504624 0.790400705,1.45037308 1.00159921,1.60710246 C1.05919919,1.64327062 1.2799988,1.8 1.40479965,1.8 L1.40479825,1.8 Z" id="Path" fill="#F50100" fill-rule="nonzero" mask="url(#mask-4)"></path>
                            <path d="M0.433477862,0.524433125 C0.491326142,0.527784452 0.554497749,0.573653355 0.622992681,0.662039834 C0.725735081,0.794619553 1.10381005,0.710235869 1.10381005,0.630260244 C1.10381005,0.55028462 0.874392496,0.502507122 0.962534857,0.365757522 C1.05067722,0.229007921 1.20000014,0.228761661 1.32000014,0.300000149 C1.35441199,0.300000149 1.35060309,0.767782631 1.42914678,0.74210471 C1.67789269,0.660783373 2.0791154,0.499646558 2.19679581,0.568778147 C2.35163484,0.659738638 2.47012176,0.637116339 2.43076046,0.50660308 C2.39139916,0.376089821 2.29024196,0.294519034 2.09545054,0.365757522 C1.90065912,0.436996009 1.94662989,0.50660308 1.77827637,0.50660308 C1.60992285,0.50660308 1.3210723,0.620451066 1.44935511,0.365757522 C1.56430908,0.137527137 1.70142242,0.133063208 1.75375137,0.229007921 C1.7805222,0.278092019 1.56213157,0.386484425 1.56213157,0.436996009 C1.56213157,0.50660308 2.12469322,0.30010269 2.19679581,0.30010269 C2.26889841,0.30010269 2.46733448,0.294519034 2.48700299,0.365757522 C2.5066715,0.436996009 2.6264895,0.502366199 2.53515886,0.568778147 C2.44382822,0.635190095 2.2932282,0.676790128 2.39684766,0.761878162 C2.50046713,0.846966197 2.76304146,0.88566039 2.77452276,0.974168344 C2.78600405,1.0626763 2.89893807,1.19484487 2.85361255,1.19484487 C2.80828703,1.19484487 2.72637488,1.31949393 2.65009945,1.28154037 C2.57382401,1.24358682 2.56485325,1.21026148 2.63799452,1.17951457 C2.71113579,1.14876765 2.7104242,1.0194688 2.65009945,1.0194688 C2.58977469,1.0194688 2.59492394,1.0096767 2.45757219,0.964376249 C2.32022043,0.919075798 2.13843063,0.868715592 2.14936025,0.964376249 C2.16028986,1.06003691 2.2532892,1.26535593 2.08829759,1.28492607 C1.92330598,1.30449621 1.84607577,1.38306806 1.81396186,1.31979415 C1.78184795,1.25652024 1.66706368,1.17220897 1.75732295,1.14517326 C1.84758222,1.11813756 1.93383583,1.23706877 1.96634484,1.21764967 C1.99885384,1.19823057 2.06896722,1.12894236 2.00725127,1.0466593 C1.94553533,0.964376249 1.82567124,0.961588348 1.92000014,0.900000149 C2.01432903,0.838411949 1.95800669,0.791492294 1.77827637,0.919075798 C1.59854604,1.0466593 1.49858045,1.15508263 1.34079263,1.13975232 C1.18300481,1.12442202 1.1122033,1.19457727 1.06148892,1.17389592 C1.01077455,1.15321458 0.763774854,1.40240482 0.692648407,1.33916328 C0.621521961,1.27592173 0.391904108,1.25165864 0.433239959,1.17389592 C0.47457581,1.09613321 0.530071388,1.05609749 0.591883276,1.09613321 C0.653695165,1.13616892 0.715113468,1.17620464 0.756794932,1.13616892 C0.798476395,1.09613321 0.930552299,0.90927994 0.900273988,0.881812698 C0.869995677,0.854345456 0.76331912,0.807315037 0.591883276,0.807315037 C0.420447432,0.807315037 0.416486337,0.664931285 0.375790113,0.600000149 C0.348659296,0.556712724 0.367888546,0.531523717 0.433477862,0.524433125 Z" id="lion" fill="#FFD100" mask="url(#mask-4)"></path>
                            <g id="Group" mask="url(#mask-4)" fill="#0B50A0" fill-rule="nonzero">
                                <g transform="translate(-0.400000, 2.000000)" id="Path">
                                    <path d="M1.80479825,1 C1.9199984,1 2.1503989,0.843270623 2.20799868,0.80710246 C2.41919919,0.650373083 2.57279792,0.795046238 2.69759877,0.867383067 C2.83199892,0.939719645 3.08159861,1.02411219 3.23519935,0.867383067 C3.38879949,0.71065369 3.47519975,0.722709661 3.58080001,0.722709661 C3.6,0.541868092 3.6,0.361025516 3.6,0.156071754 L3.6,0.0113985996 C3.46560006,-0.0247698149 3.39840079,0.02345457 3.25439934,0.180183947 C3.1103993,0.336913324 2.94719987,0.300744909 2.73599936,0.204296139 C2.53440014,0.0957911474 2.33279893,-0.0971068954 2.13119971,0.204296139 C2.07359954,0.288688939 1.93919959,0.409249901 1.80479965,0.409249901 C1.66079961,0.409249901 1.53599936,0.288688939 1.47839958,0.204296139 C1.26719907,-0.0971068954 1.07519915,0.0957911474 0.873599936,0.204296139 C0.662399423,0.300744909 0.489600096,0.336913324 0.345600657,0.180183947 C0.211200713,0.02345457 0.144001442,-0.0247698149 0,0.0113985996 L0,0.156071754 C0,0.361025516 0.00959989583,0.541866331 0.0287998878,0.722709661 C0.134399944,0.722709661 0.211200112,0.71065369 0.364799247,0.867383067 C0.518399383,1.02411219 0.777598974,0.939719645 0.902399824,0.867383067 C1.03679997,0.795046238 1.19040071,0.650373083 1.40159921,0.80710246 C1.45919919,0.843270623 1.6799988,1 1.80479965,1 L1.80479825,1 Z"></path>
                                    <path d="M1.80479825,2.15 C1.9199984,2.15 2.1503989,1.99327062 2.20799868,1.95710246 C2.41919919,1.80037308 2.57279792,1.94504624 2.69759877,2.01738307 C2.83199892,2.08971964 3.08159861,2.17411219 3.23519935,2.01738307 C3.38879949,1.86065369 3.47519975,1.87270966 3.58080001,1.87270966 C3.6,1.69186809 3.6,1.51102552 3.6,1.30607175 L3.6,1.1613986 C3.46560006,1.12523019 3.39840079,1.17345457 3.25439934,1.33018395 C3.1103993,1.48691332 2.94719987,1.45074491 2.73599936,1.35429614 C2.53440014,1.24579115 2.33279893,1.0528931 2.13119971,1.35429614 C2.07359954,1.43868894 1.93919959,1.5592499 1.80479965,1.5592499 C1.66079961,1.5592499 1.53599936,1.43868894 1.47839958,1.35429614 C1.26719907,1.0528931 1.07519915,1.24579115 0.873599936,1.35429614 C0.662399423,1.45074491 0.489600096,1.48691332 0.345600657,1.33018395 C0.211200713,1.17345457 0.144001442,1.12523019 0,1.1613986 L0,1.30607175 C0,1.51102552 0.00959989583,1.69186633 0.0287998878,1.87270966 C0.134399944,1.87270966 0.211200112,1.86065369 0.364799247,2.01738307 C0.518399383,2.17411219 0.777598974,2.08971964 0.902399824,2.01738307 C1.03679997,1.94504624 1.19040071,1.80037308 1.40159921,1.95710246 C1.45919919,1.99327062 1.6799988,2.15 1.80479965,2.15 L1.80479825,2.15 Z"></path>
                                </g>
                            </g>
                            <path d="M1.40479825,5.3 C1.5199984,5.3 1.7503989,5.14327062 1.80799868,5.10710246 C2.01919919,4.95037308 2.17279792,5.09504624 2.29759877,5.16738307 C2.43199892,5.23971964 2.68159861,5.32411219 2.83519935,5.16738307 C2.98879949,5.01065369 3.07519975,5.02270966 3.18080001,5.02270966 C3.2,4.84186809 3.2,4.66102552 3.2,4.45607175 L3.2,4.3113986 C3.06560006,4.27523019 2.99840079,4.32345457 2.85439934,4.48018395 C2.7103993,4.63691332 2.54719987,4.60074491 2.33599936,4.50429614 C2.13440014,4.39579115 1.93279893,4.2028931 1.73119971,4.50429614 C1.67359954,4.58868894 1.53919959,4.7092499 1.40479965,4.7092499 C1.26079961,4.7092499 1.13599936,4.58868894 1.07839958,4.50429614 C0.867199071,4.2028931 0.675199151,4.39579115 0.473599936,4.50429614 C0.262399423,4.60074491 0.0896000962,4.63691332 -0.054399343,4.48018395 C-0.188799287,4.32345457 -0.255998558,4.27523019 -0.4,4.3113986 L-0.4,4.45607175 C-0.4,4.66102552 -0.390400104,4.84186633 -0.371200112,5.02270966 C-0.265600056,5.02270966 -0.188799888,5.01065369 -0.0352007532,5.16738307 C0.118399383,5.32411219 0.377598974,5.23971964 0.502399824,5.16738307 C0.636799968,5.09504624 0.790400705,4.95037308 1.00159921,5.10710246 C1.05919919,5.14327062 1.2799988,5.3 1.40479965,5.3 L1.40479825,5.3 Z" id="Path" fill="#0B50A0" fill-rule="nonzero" mask="url(#mask-4)"></path>
                            <path d="" id="Star-21" stroke="#FFD100" stroke-width="0.55" fill="#059334" mask="url(#mask-4)"></path>
                            <path d="" id="Star-21" stroke="#FFD100" stroke-width="0.55" fill="#059334" mask="url(#mask-4)"></path>
                            <path d="" id="Star-21" stroke="#FFD100" stroke-width="0.55" fill="#059334" mask="url(#mask-4)"></path>
                        </g>
                        <g id="line" transform="translate(0.500000, 6.100000)" fill-rule="nonzero">
                            <path d="M0.0238259385,1.28957985 C0.0697580471,1.42065267 0.398945747,1.59268583 0.781722105,1.37150036 C1.04200964,1.2158513 1.21043137,0.994666174 1.37119655,0.601447371 C1.41712849,0.503142756 1.44009447,0.380261046 1.33291779,0.306532841 C1.24870709,0.240996431 1.11090821,0.167267713 1.0496638,0.101731132 C1.01904255,0.0689629266 0.988419069,0.0443866873 0.965453095,0.019810448 C0.980763798,0.0361947215 0.996074501,0.0525788241 1.0113852,0.0771548924 C1.16449591,0.273763439 1.00372977,0.560486516 0.835308526,0.732518995 C0.712821146,0.855399679 0.490810124,1.15850532 0.169279772,0.871783781 C0.100379772,0.806247371 -0.0603863618,1.07658549 0.023824341,1.28957865 L0.0238259385,1.28957985 Z" id="Path" fill="#FFD100"></path>
                            <path d="M4.67834671,1.28957985 C4.62475725,1.42065267 4.29557035,1.59268583 3.92045054,1.37150036 C3.660163,1.2158513 3.49174127,0.994666174 3.32331955,0.601447371 C3.28504079,0.503142756 3.26207482,0.380261046 3.3692515,0.306532841 C3.4534622,0.240996431 3.59126268,0.167267713 3.65250549,0.101731132 C3.68312881,0.0689629266 3.70609479,0.0443866873 3.73671619,0.019810448 C3.72140549,0.0361947215 3.70609479,0.0525788241 3.69078409,0.0771548924 C3.53767338,0.273763439 3.69843952,0.560486516 3.85920581,0.732518995 C3.98169287,0.855399679 4.21135917,1.15850532 4.53289111,0.871783781 C4.60179207,0.806247371 4.7549007,1.07658549 4.67834639,1.28957865 L4.67834671,1.28957985 Z" id="Path" fill="#FFD100"></path>
                            <path d="M2.35111028,1.99410976 C2.96355118,1.99410976 3.90518057,1.69919523 4.41043936,0.666996944 C4.49465022,0.494964465 4.41043936,0.404851645 4.31091859,0.347506345 C4.20374127,0.298354038 4.07359591,0.183665149 4.00469814,0.109937115 C4.12718536,0.241010277 4.10422051,0.331123439 4.02000964,0.47857985 C3.62957674,1.17490464 3.09369175,1.52716276 2.35111188,1.52716276 C1.60852562,1.52716276 1.07264063,1.17490464 0.682214117,0.47857985 C0.598003415,0.331122585 0.575035363,0.241010619 0.689869389,0.109937115 C0.628624661,0.183665662 0.490824661,0.298354209 0.383647344,0.347506345 C0.284125938,0.40485079 0.199915715,0.494963269 0.284125938,0.666996944 C0.789389517,1.69919694 1.73867386,1.99410976 2.35112274,1.99410976 L2.35111028,1.99410976 Z" id="Path" fill="#FFD100"></path>
                            <path d="M0.934832328,0.609648226 C0.919521306,0.527727713 0.819999581,0.560495918 0.789377536,0.658800533 C0.75110006,0.60145626 0.712822424,0.544111816 0.682200379,0.478574892 C0.590334085,0.331117969 0.575023063,0.232812499 0.705166833,0.093547542 C0.766411082,0.0280111318 0.888898462,-0.0457174153 0.973109325,0.0362032685 C1.149186,0.191852328 1.05732003,0.445806687 0.934831689,0.609647713 L0.934832328,0.609648226 Z" id="Path" fill="#F50100"></path>
                            <path d="M3.75972051,0.609648226 C3.77503153,0.527727713 3.88220869,0.560495918 3.91283073,0.658800533 C3.95110805,0.60145626 3.989386,0.544111816 4.02000741,0.478574892 C4.11187482,0.331117969 4.12718472,0.232812499 3.989386,0.093547542 C3.93579734,0.0280111318 3.81330933,-0.0457174153 3.72144351,0.0362032685 C3.55302179,0.191852328 3.63723281,0.445806687 3.75972115,0.609647713 L3.75972051,0.609648226 Z" id="Path" fill="#F50100"></path>
                        </g>
                        <g id="Group-3" transform="translate(1.400000, 0.100000)" fill-rule="nonzero">
                            <path d="M2.74591135,0.00251226673 C2.75746192,0.0372236976 2.29121969,0.411620978 2.10719201,0.846744798 L2.07866667,0.925 L2.11873722,0.888757806 C2.60205783,0.462158278 3.09333333,0.293695846 3.09333333,0.353526694 C3.09333333,0.422218551 2.46445786,0.756712744 2.1304709,1.39972626 L2.13280138,1.47086578 C2.36216933,1.21553025 2.60573292,1.11413439 2.60573292,1.14823206 C2.60573292,1.18852929 2.27536866,1.39598382 2.13485884,1.79939372 C2.13073194,1.81124224 2.11866902,1.8104638 2.10354598,1.8031365 C2.03190893,2.19387479 1.83347422,2.47516603 1.6,2.47516603 C1.32810597,2.47516603 1.10373228,2.09368085 1.07082209,1.6006039 L1.06795658,1.49754806 C0.921009101,1.28985733 0.754267079,1.17686073 0.754267079,1.14823206 C0.754267079,1.12178054 0.900843604,1.17686899 1.07366156,1.32210902 C1.07692645,1.27222148 1.08314451,1.22236631 1.09126299,1.17409242 C0.748667038,0.677525716 0.266666667,0.413664366 0.266666667,0.353526694 C0.266666667,0.295893375 0.722516756,0.450091325 1.18799962,0.842795256 C1.19705744,0.819346546 1.20760857,0.797243779 1.21865778,0.776058055 C1.02016032,0.372452195 0.603157338,0.0353627118 0.614088654,0.00251226673 C0.624192101,-0.0278502913 1.00729108,0.219755328 1.34627195,0.59597635 C1.37900721,0.562345718 1.41396185,0.535056062 1.45062053,0.514979563 L1.22666667,0.141832696 L2.02666667,0.141832696 L1.78777691,0.538907344 C1.83991383,0.575686726 1.88816635,0.627337512 1.93106408,0.691102734 C2.28653006,0.262782502 2.73496913,-0.0303709287 2.74591135,0.00251226673 Z" id="pineapple" fill="#FFD100"></path>
                            <path d="M0.492816589,2.05142041 C0.428647433,1.94190036 0.254474556,1.89322484 0.181138105,1.99057588 C0.153636983,2.01491364 0.116968949,2.01491364 0.0894680184,2.02708265 C0.0436328797,2.02708265 -0.0148831419,2.05772544 0.00345087536,2.1794145 C0.0527999839,2.1794145 0.0527999839,2.20961599 0.0803009142,2.20961599 C0.0986349314,2.19744698 0.146313317,2.42066812 0.237982638,2.40849936 C0.338819828,2.40849936 0.428646668,2.46516261 0.446980876,2.48950037 C0.474481806,2.52600714 0.511149841,2.62335818 0.465314894,2.67203371 C0.401145738,2.74504699 0.355310599,2.91541157 0.465314894,3.04926939 C0.584486101,3.1709582 0.886997099,3.35349204 1.22617651,3.00059361 C1.55618959,2.65986445 2.06954092,2.85456704 2.10621011,2.97625585 C2.15204524,3.09794491 2.17037926,3.1709582 2.17954637,3.231804 C2.18871328,3.28047952 2.4362228,3.3534928 2.47289083,3.38999957 C2.51872578,3.42650609 2.58289494,3.41433733 2.56456092,3.30481728 C2.52789288,2.96408811 2.37205441,2.91541361 2.35371982,2.75721701 C2.4453899,2.76938577 2.50955906,2.76938577 2.54622633,2.72071025 C2.57372745,2.67203472 2.61039548,2.58685243 2.64706352,2.56251467 C2.67456464,2.53817691 2.67456464,2.51383915 2.63789641,2.52600816 C2.59206147,2.53817691 2.56456035,2.56251467 2.48205717,2.55034592 C2.2868773,2.52218341 2.33515126,1.59909693 1.68968087,1.41953085 C1.29080751,1.30856662 0.793431057,2.06951085 0.657034788,2.14484573 C0.654068765,2.14648394 0.651273439,2.14779793 0.648653536,2.14877171 C0.584486866,2.14877146 0.529484623,2.11226469 0.492816589,2.05142041 Z" id="turtle" fill="#059334"></path>
                        </g>
                    </g>
                </g>
            </g>
            <g id="flag">
                <mask id="mask-6" fill="white">
                    <use xlink:href="#path-5"></use>
                </mask>
                <g id="mask"></g>
                <g id="contents" mask="url(#mask-6)">
                    <g transform="translate(-2.000000, -1.000000)">
                        <g id="stripe">
                            <polygon id="white" fill="#F7FCFF" fill-rule="nonzero" transform="translate(6.543731, 4.365902) scale(1, -1) translate(-6.543731, -4.365902) " points="0.997866872 1.23189449 2.97834209 0.363294267 11.0449402 6.78743314 12.0895956 8.07819892 9.9717623 8.36851072 6.68158973 5.60016547 4.033339 3.73494762"></polygon>
                            <polygon id="red" fill="#F50100" fill-rule="nonzero" transform="translate(6.491732, 4.573107) scale(1, -1) translate(-6.491732, -4.573107) " points="1.26899691 1.0377417 2.27795758 0.533678352 11.7144671 8.61253609 10.2977689 8.61253609"></polygon>
                        </g>
                        <g id="stripe" transform="translate(6.500000, 4.500000) scale(-1, 1) translate(-6.500000, -4.500000) ">
                            <polygon id="white" fill="#F7FCFF" fill-rule="nonzero" transform="translate(6.543731, 4.365902) scale(1, -1) translate(-6.543731, -4.365902) " points="0.997866872 1.23189449 2.97834209 0.363294267 11.0449402 6.78743314 12.0895956 8.07819892 9.9717623 8.36851072 6.68158973 5.60016547 4.033339 3.73494762"></polygon>
                            <polygon id="red" fill="#F50100" fill-rule="nonzero" transform="translate(6.627779, 4.549380) scale(1, -1) translate(-6.627779, -4.549380) " points="1.06544306 1.16208955 2.07440374 0.658026209 6.09256727 4.11700491 7.28386651 4.5034683 12.1901144 8.44073422 10.7734162 8.44073422 5.86992481 4.59692228 4.567449 4.13351128"></polygon>
                        </g>
                        <g id="cross" transform="translate(2.000000, 1.000000)">
                            <path d="M5.36728773,-0.375 L5.36703197,2.625 L9.375,2.625 L9.375,4.375 L5.36703197,4.375 L5.36728773,7.375 L3.61728773,7.375 L3.61703197,4.375 L-0.375,4.375 L-0.375,2.625 L3.61703197,2.625 L3.61728773,-0.375 L5.36728773,-0.375 Z" id="red" stroke="#F7FCFF" stroke-width="0.75" fill="#F50100"></path>
                        </g>
                    </g>
                </g>
            </g>
        </g>
    </g>
</svg>