<?xml version="1.0" encoding="UTF-8"?>
<svg width="16px" height="12px" viewBox="0 0 16 12" version="1.1" xmlns="http://www.w3.org/2000/svg" xmlns:xlink="http://www.w3.org/1999/xlink">
    <title>flags/S/LI - Liechtenstein</title>
    <defs>
        <rect id="path-1" x="0" y="0" width="16" height="12"></rect>
        <rect id="path-3" x="0" y="0" width="16" height="12"></rect>
    </defs>
    <g id="Symbols" stroke="none" stroke-width="1" fill="none" fill-rule="evenodd">
        <g id="flag">
            <mask id="mask-2" fill="white">
                <use xlink:href="#path-1"></use>
            </mask>
            <g id="mask"></g>
            <g id="contents" mask="url(#mask-2)">
                <mask id="mask-4" fill="white">
                    <use xlink:href="#path-3"></use>
                </mask>
                <use id="background" fill="#E31D1C" xlink:href="#path-3"></use>
                <rect id="top" fill="#2E42A5" mask="url(#mask-4)" x="0" y="0" width="16" height="6"></rect>
                <g id="mark" mask="url(#mask-4)">
                    <g transform="translate(2.000000, 0.000000)">
                        <path d="M0.399226428,5.5265867 C0.801447574,5.77695152 1.4685868,5.90213393 2.4006441,5.90213393 C3.33270141,5.90213393 4.0460965,5.77695152 4.54082937,5.5265867 C3.80988363,5.10167732 3.11763033,4.88922263 2.46406949,4.88922263 C1.81050865,4.88922263 1.12222763,5.10167732 0.399226428,5.5265867 Z" id="Path-131" stroke="none" fill="#000000"></path>
                        <path d="M2.32705928,1.26526279 C2.85954029,1.26526279 3.89968318,1.29926447 4.46165385,1.7877947 C4.66442638,1.96406814 4.78709888,2.1915491 4.82808657,2.47112315 C4.86982381,2.75580985 4.82520916,3.09754928 4.68832031,3.49610228 L4.68832031,3.49610228 L0.364295722,3.49610228 C0.11537365,3.08766992 0.0130599591,2.74111355 0.0418390424,2.45853908 C0.0710393382,2.17182884 0.228728542,1.94136292 0.525365365,1.77336423 C1.31818855,1.32435303 1.79903881,1.26526279 2.32705928,1.26526279 Z" id="Path-130" stroke="#000000" stroke-width="0.25" fill="#FFD83D"></path>
                        <path d="M2.48759468,3.00878985 C3.69640129,3.00878985 4.57557645,3.1782797 5.12847296,3.5069291 L5.12847296,3.5069291 L4.45678753,5.30298385 C3.8198982,5.09357503 3.16665726,4.98887602 2.49706633,4.98887602 C1.82822611,4.98887602 1.16286798,5.09333293 0.500962591,5.30204161 L0.500962591,5.30204161 L-0.152455477,3.50643711 C0.40049061,3.17811055 1.27939141,3.00878985 2.48759468,3.00878985 Z" id="Path-129" stroke="#000000" stroke-width="0.25" fill="#FFD83D"></path>
                        <path d="M2.94012605,0.278643801 L2.94012605,0.883893766 L2.65841042,0.843362669 L2.69457214,1.55141509 L2.17942285,1.55141509 L2.21531485,0.843854615 L1.93382353,0.883421816 L1.93382353,0.279623363 L2.52265733,0.337906052 L2.94012605,0.278643801 Z" id="Combined-Shape" stroke="#000000" stroke-width="0.25" fill="#FFD83D"></path>
                    </g>
                </g>
            </g>
        </g>
    </g>
</svg>