<?xml version="1.0" encoding="UTF-8"?>
<svg width="16px" height="12px" viewBox="0 0 16 12" version="1.1" xmlns="http://www.w3.org/2000/svg" xmlns:xlink="http://www.w3.org/1999/xlink">
    <title>flags/S/LR - Liberia</title>
    <defs>
        <rect id="path-1" x="0" y="0" width="16" height="12"></rect>
    </defs>
    <g id="Symbols" stroke="none" stroke-width="1" fill="none" fill-rule="evenodd">
        <g id="flag">
            <mask id="mask-2" fill="white">
                <use xlink:href="#path-1"></use>
            </mask>
            <g id="mask"></g>
            <g id="contents" mask="url(#mask-2)">
                <g transform="translate(-1.000000, 0.000000)">
                    <polygon id="background" fill="#F7FCFF" points="1 0 17 0 17 12 1 12"></polygon>
                    <g id="mark" stroke-width="1" fill="none">
                        <rect id="lines" fill="#E31D1C" x="1.01357922" y="2.75" width="16" height="1.5"></rect>
                        <rect id="lines" fill="#E31D1C" x="1" y="0" width="16" height="1.5"></rect>
                        <rect id="lines" fill="#E31D1C" x="0.970564347" y="5.5" width="16" height="1.5"></rect>
                        <rect id="lines" fill="#E31D1C" x="1.05583211" y="8.19999695" width="16" height="1.5"></rect>
                        <rect id="lines" fill="#E31D1C" x="1.05073627" y="10.75" width="16" height="1.5"></rect>
                        <polygon id="square" fill="#3D58DB" points="1 0 9 0 9 7 1 7"></polygon>
                        <polygon id="Star-5" fill="#F7FCFF" points="5.0662352 4.60654276 3.60555113 5.61970115 4.07229349 3.88440184 3 2.77589131 4.45194544 2.71595328 5.0662352 1 5.68052496 2.71595328 7.13000011 2.71595328 6.06017691 3.88440184 6.59596139 5.5172795"></polygon>
                    </g>
                </g>
            </g>
        </g>
    </g>
</svg>