<?xml version="1.0" encoding="UTF-8"?>
<svg width="16px" height="12px" viewBox="0 0 16 12" version="1.1" xmlns="http://www.w3.org/2000/svg" xmlns:xlink="http://www.w3.org/1999/xlink">
    <title>flags/S/LS - Lesotho</title>
    <defs>
        <rect id="path-1" x="0" y="0" width="16" height="12"></rect>
    </defs>
    <g id="Symbols" stroke="none" stroke-width="1" fill="none" fill-rule="evenodd">
        <g id="flag">
            <mask id="mask-2" fill="white">
                <use xlink:href="#path-1"></use>
            </mask>
            <g id="mask"></g>
            <g id="contents" mask="url(#mask-2)">
                <polygon id="bottom" fill="#55BA07" points="0 8 16 8 16 12 0 12"></polygon>
                <polygon id="middle" fill="#F7FCFF" points="0 4 16 4 16 8 0 8"></polygon>
                <polygon id="top" fill="#3D58DB" points="0 0 16 0 16 4 0 4"></polygon>
                <g id="mark" transform="translate(5.500000, 3.000000)" fill="#1D1D1D">
                    <path d="M2.43749619,0.66666921 C2.56987763,0.66666921 2.68303332,0.748984397 2.7285716,0.865223087 C3.13767381,0.956594944 3.43427659,1.2353628 3.43427659,1.68849819 C3.43427659,2.01800197 3.27744265,2.41861037 3.0343252,2.6933493 L4.25159547,3.88639055 L4.55175724,3.78755771 L5,4.46738976 C4.24469213,4.82246325 3.4002631,5 2.46671289,5 C1.53316268,5 0.710925047,4.82246325 0,4.46738976 L0.381579649,3.88639055 L0.689740992,3.98741083 L1.81846329,2.71329679 C1.56510986,2.43826661 1.40050341,2.02606816 1.40050341,1.68849819 C1.40050341,1.21968716 1.71798233,0.937516377 2.14974572,0.857190002 C2.1971568,0.745253887 2.30814928,0.66666921 2.43749619,0.66666921 Z M1.72565923,1.69048108 C1.72565923,2.05558115 1.90487671,2.39827534 2.12481746,2.57509711 L2.12366634,1.120505 C1.86319454,1.1909294 1.72565923,1.37146799 1.72565923,1.69048108 Z M2.75032385,1.12673729 L2.75015656,2.56532846 C2.96400323,2.38607632 3.13587701,2.04975489 3.13587701,1.69141858 C3.13587701,1.38118187 3.00012208,1.2014072 2.75032385,1.12673729 Z" id="Path-114"></path>
                </g>
            </g>
        </g>
    </g>
</svg>