<?xml version="1.0" encoding="UTF-8"?>
<svg width="16px" height="12px" viewBox="0 0 16 12" version="1.1" xmlns="http://www.w3.org/2000/svg" xmlns:xlink="http://www.w3.org/1999/xlink">
    <title>flags/S/MA - Morocco</title>
    <defs>
        <rect id="path-1" x="0" y="0" width="16" height="12"></rect>
    </defs>
    <g id="Symbols" stroke="none" stroke-width="1" fill="none" fill-rule="evenodd">
        <g id="flag">
            <mask id="mask-2" fill="white">
                <use xlink:href="#path-1"></use>
            </mask>
            <g id="mask"></g>
            <g id="contents" mask="url(#mask-2)">
                <path d="M0,0 L16,0 L16,11 C16,11.5522847 15.5522847,12 15,12 L1,12 C0.44771525,12 6.76353751e-17,11.5522847 0,11 L0,0 L0,0 Z" id="background" fill="#C51918"></path>
                <polygon id="background" fill="#E31D1C" points="0 0 16 0 16 12 0 12"></polygon>
                <g id="mark" transform="translate(3.000000, 1.250000)" fill="#579D20" fill-rule="nonzero">
                    <path d="M5.08289928,0.100295658 L8.24095169,8.56307707 L5.06325952,6.66049839 L1.89757173,8.56307707 L4.94586388,0.100295658 L5.08289928,0.100295658 Z M5.07185232,1.54182932 L4.73329382,2.86100693 L3.71836397,5.69897788 L3.14066114,7.09629981 L4.39033273,6.18989852 L5.06252941,5.78590825 L5.74573861,6.19496589 L7.02513742,7.09629981 L6.43251024,5.72702984 L5.42318458,2.89879196 L5.07185232,1.54182932 Z" id="Rectangle-43"></path>
                    <path d="M9.80820147,2.86821821 L6.7103226,5.48656312 L5.0792454,6.64852742 L3.33127168,5.48656312 L0.192632221,2.86821821 L9.80820147,2.86821821 Z M7.79034876,3.75956659 L2.17874257,3.75956659 L3.36754625,4.48704732 L5.07164358,5.69441851 L6.7698637,4.40593715 L7.79034876,3.75956659 Z" id="Rectangle-43"></path>
                </g>
            </g>
        </g>
    </g>
</svg>