<?xml version="1.0" encoding="UTF-8"?>
<svg width="16px" height="12px" viewBox="0 0 16 12" version="1.1" xmlns="http://www.w3.org/2000/svg" xmlns:xlink="http://www.w3.org/1999/xlink">
    <title>flags/S/MD - Moldova</title>
    <defs>
        <rect id="path-1" x="0" y="0" width="16" height="12"></rect>
        <path d="M0,0 L5.28,0 L5.28,3.81944444 C4.38430376,4.08922768 3.50430376,4.44547636 2.64,4.88819049 C2.00198934,4.41488843 1.12198934,4.05863975 0,3.81944444 L0,0 Z" id="path-3"></path>
    </defs>
    <g id="Symbols" stroke="none" stroke-width="1" fill="none" fill-rule="evenodd">
        <g id="flag">
            <mask id="mask-2" fill="white">
                <use xlink:href="#path-1"></use>
            </mask>
            <g id="mask"></g>
            <g id="contents" mask="url(#mask-2)">
                <polygon id="bottom" fill="#D9071E" points="11 0 16 0 16 12 11 12"></polygon>
                <polygon id="left" fill="#3D58DB" points="0 0 6 0 6 12 0 12"></polygon>
                <polygon id="middle" fill="#FBCD17" points="5 0 11 0 11 12 5 12"></polygon>
                <g id="mark" transform="translate(2.000000, 1.000000)">
                    <g id="pins" transform="translate(2.520000, 5.416667)" fill="#FD1900" fill-rule="nonzero">
                        <path d="M2.48200967,0.272828066 L3.00854725,0.560505267 L1.26326879,3.75490058 L0.736731208,3.46722338 L2.48200967,0.272828066 Z M4.59392053,0.196018439 L6.33919899,3.39041375 L5.81266141,3.67809096 L4.06738295,0.483695641 L4.59392053,0.196018439 Z" id="Combined-Shape"></path>
                    </g>
                    <path d="M5.90696293,6.98507068 L6.16961802,7.0460864 C6.43697615,7.74330235 6.96371034,8.36663624 7.7498206,8.91608807 C6.91188806,9.13970988 6.38515387,9.47603729 6.16961802,9.92507032 C6.16961802,9.5658439 5.63811123,9.22951648 4.57509764,8.91608807 C4.93562637,8.68134631 5.37958146,8.03767385 5.90696293,6.98507068 L5.90696293,6.98507068 Z M6.06085881,0.425439888 C6.88816589,0.425439888 6.98460918,0.816349035 6.98460918,1.12796281 C6.98460918,1.43957658 6.50808258,2.11075851 6.50808258,2.36750311 C6.50808258,2.62424772 6.70153815,3.12175212 6.98460918,3.12175212 C7.15164355,3.12175212 7.72026242,2.92478358 8.69046579,2.5308465 L8.6907644,1.70415914 L8.6907644,1.70415914 C8.78061946,1.04134029 9.04685052,0.666148874 9.4894576,0.578584884 C10.0225102,0.77044445 10.2890366,1.14563587 10.2890366,1.70415914 L10.2890366,9.17311663 L10.2890366,9.17311663 C9.93449485,8.71651924 9.66796852,8.38857213 9.4894576,8.18927528 C9.22169121,7.89033 8.6907644,7.08676779 8.6907644,6.47017219 L8.6907644,3.69443989 L3.6887644,3.69443989 L3.68903656,6.47017219 C3.68903656,7.03933736 3.23664922,7.76781136 2.95644565,8.111645 L2.89034336,8.18927528 C2.71183244,8.38857213 2.44530611,8.71651924 2.0907644,9.17311663 L2.0907644,9.17311663 L2.0907644,1.70415914 C2.0907644,1.14563587 2.35729072,0.77044445 2.89034336,0.578584884 C3.33295044,0.666148874 3.5991815,1.04134029 3.68903656,1.70415914 L3.68903656,1.70415914 L3.6887644,2.67343989 L3.77132695,2.74171403 C4.28478985,3.14708799 4.70233915,3.27376736 5.02397485,3.12175212 C5.37485016,2.95591732 5.61088493,2.63517366 5.73207916,2.15952113 C5.69926757,1.67955809 5.61085332,1.43957658 5.46683639,1.43957658 C5.250811,1.43957658 5.23355172,0.425439888 6.06085881,0.425439888 Z M4.48800537,6.66666667 C4.85251331,6.66666667 5.14800537,6.9464887 5.14800537,7.29166667 C5.14800537,7.63684464 4.85251331,7.91666667 4.48800537,7.91666667 C4.12349744,7.91666667 3.82800537,7.63684464 3.82800537,7.29166667 C3.82800537,6.9464887 4.12349744,6.66666667 4.48800537,6.66666667 Z M7.7,6.66666667 C8.06450793,6.66666667 8.36,6.9464887 8.36,7.29166667 C8.36,7.63684464 8.06450793,7.91666667 7.7,7.91666667 C7.33549207,7.91666667 7.04,7.63684464 7.04,7.29166667 C7.04,6.9464887 7.33549207,6.66666667 7.7,6.66666667 Z" id="Combined-Shape" fill="#A77B3B"></path>
                    <polygon id="Path-148" fill="#FDFF00" fill-rule="nonzero" points="10.5699957 4.20382306 11.0289589 4.4021985 9.15917278 8.72815197 8.70020962 8.52977653"></polygon>
                    <g id="shield" transform="translate(3.520000, 2.916667)">
                        <mask id="mask-4" fill="white">
                            <use xlink:href="#path-3"></use>
                        </mask>
                        <use fill="#E1E5E8" opacity="0.300000012" xlink:href="#path-3"></use>
                        <rect id="Rectangle-37" fill="#3D58DB" mask="url(#mask-4)" x="0" y="2.5" width="5.28" height="2.5"></rect>
                        <rect id="Rectangle-37" fill="#FD1900" mask="url(#mask-4)" x="0" y="0" width="5.28" height="2.5"></rect>
                        <polygon id="Star-18" fill="#FDFF00" mask="url(#mask-4)" transform="translate(2.529582, 0.853766) rotate(-330.000000) translate(-2.529582, -0.853766) " points="2.52958214 1.16626588 2.19958214 1.39503175 2.24379375 1.01001588 1.86958214 0.853765877 2.24379375 0.697515877 2.19958214 0.3125 2.52958214 0.541265877 2.85958214 0.3125 2.81537052 0.697515877 3.18958214 0.853765877 2.81537052 1.01001588 2.85958214 1.39503175"></polygon>
                        <path d="M1.65500854,0.419175713 C0.938370831,0.855174586 0.699491595,1.22966312 0.938370831,1.54264133 C1.17725007,1.85561953 1.44703699,2.03214063 1.7477316,2.07220461 C1.01466466,3.17197243 1.29324534,4.03600357 2.58347364,4.664298 C3.96480951,4.05776743 4.29225116,3.1937363 3.56579858,2.07220461 C3.99100789,1.97813507 4.24617919,1.76189637 4.3313125,1.42348851 C4.4164458,1.08508064 4.13855095,0.72180598 3.49762793,0.333664514 C3.89750756,0.913264472 4.05180215,1.27653914 3.96051169,1.42348851 C3.82357601,1.64391257 3.09002137,1.86831993 2.58347364,1.86831993 C2.0769259,1.86831993 1.29472366,1.72608991 1.16848679,1.34092149 C1.08432888,1.08414255 1.24650279,0.776893954 1.65500854,0.419175713 Z" id="Path-145" fill="#FDFF00" mask="url(#mask-4)"></path>
                    </g>
                    <path d="M2.77880573,6.07675808 C2.85125853,6.58234412 2.7432196,6.88791206 2.45468895,6.9934619 C2.16615831,7.09901175 1.80776249,6.96503172 1.37950151,6.59152183 L1.37950151,6.59152183 L1.8328653,6.59152183 L1.8328653,6.41782206 L2.08281554,6.59152183 L2.08281554,6.41782206 L2.40284552,6.41782206 Z M2.12409017,5.20726054 C2.19654297,5.71284658 2.08850404,6.01841452 1.79997339,6.12396436 C1.51144275,6.22951421 1.15304693,6.09553418 0.724785955,5.72202429 L0.724785955,5.72202429 L1.17814974,5.72202429 L1.17814974,5.54832452 L1.42809998,5.72202429 L1.42809998,5.54832452 L1.74812996,5.54832452 Z M1.76762752,4.24972581 C1.8478423,4.7366682 1.72252223,5.04804894 1.39166731,5.18386803 C1.06081239,5.31968712 0.71969772,5.1798943 0.368323308,4.76448956 L0.368323308,4.76448956 L0.821687094,4.76448956 L0.821687094,4.59078979 L1.07163734,4.76448956 L1.07163734,4.59078979 L1.39166731,4.59078979 Z" id="Combined-Shape" fill="#048F02"></path>
                    <g id="cross" transform="translate(3.960000, 0.000000)" fill="#FDFF00" fill-rule="nonzero">
                        <path d="M1.02967102,0.124243177 L1.02933262,0.421243177 L1.31575159,0.422036837 L1.31575159,0.922036837 L1.02933262,0.921243177 L1.02967102,1.79435236 L0.529671019,1.79435236 L0.529332615,0.921243177 L0.294332615,0.922036837 L0.294332615,0.422036837 L0.529332615,0.421243177 L0.529671019,0.124243177 L1.02967102,0.124243177 Z" id="Combined-Shape"></path>
                    </g>
                    <polygon id="beak" fill="#DB4400" points="5.57905385 0.692275044 4.42098196 0.990601011 5.57905385 1.35653982"></polygon>
                </g>
            </g>
        </g>
    </g>
</svg>