<?xml version="1.0" encoding="UTF-8"?>
<svg width="16px" height="12px" viewBox="0 0 16 12" version="1.1" xmlns="http://www.w3.org/2000/svg" xmlns:xlink="http://www.w3.org/1999/xlink">
    <title>flags/S/MH - Marshall Islands</title>
    <defs>
        <rect id="path-1" x="0" y="0" width="16" height="12" rx="-1"></rect>
        <rect id="path-3" x="0" y="0" width="16" height="12"></rect>
    </defs>
    <g id="Symbols" stroke="none" stroke-width="1" fill="none" fill-rule="evenodd">
        <g id="flag">
            <mask id="mask-2" fill="white">
                <use xlink:href="#path-1"></use>
            </mask>
            <g id="mask"></g>
            <g id="contents" mask="url(#mask-2)">
                <mask id="mask-4" fill="white">
                    <use xlink:href="#path-3"></use>
                </mask>
                <use id="background" fill="#3D58DB" xlink:href="#path-3"></use>
                <polygon id="Star-16" fill="#F7FCFF" mask="url(#mask-4)" points="4 5.5 3.59150005 6.97205784 3.59530484 5.44437593 2.80479673 6.7516339 3.22062407 5.28162911 2.10673617 6.32713387 2.90374605 5.02382971 1.54909032 5.73004097 2.66817217 4.69009756 1.17321723 5.00463884 2.53137387 4.30518402 1.00699369 4.20472724 2.50349685 3.89763638 1.06274774 3.38963196 2.58660862 3.49768058 1.33634434 2.61980489 2.77454516 3.13497952 1.80749211 1.95234057 3.05336808 2.83643306 2.44124815 1.43674179 3.40239837 2.62418305 3.19060969 1.11124814 3.79575003 2.51397108 4 1 4.20424997 2.51397108 4.80939031 1.11124814 4.59760163 2.62418305 5.55875185 1.43674179 4.94663192 2.83643306 6.19250789 1.95234057 5.22545484 3.13497952 6.66365566 2.61980489 5.41339138 3.49768058 6.93725226 3.38963196 5.49650315 3.89763638 6.99300631 4.20472724 5.46862613 4.30518402 6.82678277 5.00463884 5.33182783 4.69009756 6.45090968 5.73004097 5.09625395 5.02382971 5.89326383 6.32713387 4.77937593 5.28162911 5.19520327 6.7516339 4.40469516 5.44437593 4.40849995 6.97205784"></polygon>
                <polygon id="white" fill="#FFFFFF" fill-rule="nonzero" mask="url(#mask-4)" points="-0.390997552 12.3726332 16.6291317 0.607418944 16.6291317 4.44280283"></polygon>
                <polygon id="gold" fill="#E2AE57" fill-rule="nonzero" mask="url(#mask-4)" points="-0.390997552 12.3726332 16.6291317 -2.39258106 16.6291317 1.44280283"></polygon>
            </g>
        </g>
    </g>
</svg>