<?xml version="1.0" encoding="UTF-8"?>
<svg width="16px" height="12px" viewBox="0 0 16 12" version="1.1" xmlns="http://www.w3.org/2000/svg" xmlns:xlink="http://www.w3.org/1999/xlink">
    <title>flags/S/MK - Former Yugoslav Republic of Macedonia</title>
    <defs>
        <rect id="path-1" x="0" y="0" width="16" height="12"></rect>
        <rect id="path-3" x="0" y="0" width="16" height="12"></rect>
    </defs>
    <g id="Symbols" stroke="none" stroke-width="1" fill="none" fill-rule="evenodd">
        <g id="flag">
            <mask id="mask-2" fill="white">
                <use xlink:href="#path-1"></use>
            </mask>
            <g id="mask"></g>
            <g id="contents" mask="url(#mask-2)">
                <mask id="mask-4" fill="white">
                    <use xlink:href="#path-3"></use>
                </mask>
                <use id="background" fill="#F50100" xlink:href="#path-3"></use>
                <path d="M9,7.01218836 L16,9.98781164 L16,12.0297718 L14.3723835,12.0297718 L9,7.01218836 Z M7,7 L1.62761654,12.0175834 L-1.24344979e-13,12.0175834 L-6.3504757e-14,9.97562327 L7,7 Z M8,6 L9.5,12 L6.5,12 L8,6 Z M16,4.5 L16,7.5 L10,6 L16,4.5 Z M-5.22206867e-15,4.5 L6,6 L-5.77315973e-15,7.5 L-5.22206867e-15,4.5 Z M9.5,9.95731275e-16 L8,6 L6.5,9.95731275e-16 L9.5,9.95731275e-16 Z M16,-0.00879171764 L16,2.03316845 L9,5.00879172 L14.3723835,-0.00879171764 L16,-0.00879171764 Z M1.62761654,-0.0209800813 L7,4.99660335 L-6.3504757e-14,2.02098008 L-1.24344979e-13,-0.0209800813 L1.62761654,-0.0209800813 Z" id="Combined-Shape" fill="#FFD018" mask="url(#mask-4)"></path>
                <circle id="Oval-2" stroke="#F50100" fill="#FFD018" mask="url(#mask-4)" cx="8" cy="6" r="2.5"></circle>
            </g>
        </g>
    </g>
</svg>