<?xml version="1.0" encoding="UTF-8"?>
<svg width="16px" height="12px" viewBox="0 0 16 12" version="1.1" xmlns="http://www.w3.org/2000/svg" xmlns:xlink="http://www.w3.org/1999/xlink">
    <title>flags/S/MO - Macao</title>
    <defs>
        <rect id="path-1" x="0" y="0" width="16" height="12"></rect>
        <rect id="path-3" x="0" y="0" width="16" height="12"></rect>
        <circle id="path-5" cx="4" cy="4" r="4"></circle>
    </defs>
    <g id="Symbols" stroke="none" stroke-width="1" fill="none" fill-rule="evenodd">
        <g id="flag">
            <mask id="mask-2" fill="white">
                <use xlink:href="#path-1"></use>
            </mask>
            <g id="mask"></g>
            <g id="contents" mask="url(#mask-2)">
                <mask id="mask-4" fill="white">
                    <use xlink:href="#path-3"></use>
                </mask>
                <use id="background" fill="#1C9975" xlink:href="#path-3"></use>
                <g id="mark-2" mask="url(#mask-4)" fill="#FECA00">
                    <g transform="translate(3.000000, 1.000000)" id="Star-5">
                        <polygon points="5.0107957 2.42686586 4.19393591 2.92000294 4.38025646 1.95769518 3.70001221 1.23750245 4.62110102 1.19856107 5.0107957 0.300003052 5.40049039 1.19856107 6.32001209 1.19856107 5.64133495 1.95769518 5.84565699 2.92000294"></polygon>
                        <polygon points="2.69130904 2.79223672 2.1862278 3.09715353 2.30143363 2.50213882 1.88082461 2.05682883 2.45035279 2.03275057 2.69130904 1.47715364 2.93226529 2.03275057 3.50082449 2.03275057 3.08118444 2.50213882 3.20752096 3.09715353"></polygon>
                        <polygon points="7.29049542 2.79223672 6.78541418 3.09715353 6.90062002 2.50213882 6.48001099 2.05682883 7.04953917 2.03275057 7.29049542 1.47715364 7.53145167 2.03275057 8.10001087 2.03275057 7.68037082 2.50213882 7.80670734 3.09715353"></polygon>
                        <polygon points="1.38324735 3.80531361 0.977935235 4.04999995 1.07038436 3.572519 0.732858589 3.21517146 1.18988739 3.1958494 1.38324735 2.75 1.57660731 3.1958494 2.03285854 3.1958494 1.69611034 3.572519 1.7974915 4.04999995"></polygon>
                        <polygon points="8.78039365 3.80531361 8.37508153 4.04999995 8.46753066 3.572519 8.13000488 3.21517146 8.58703369 3.1958494 8.78039365 2.75 8.97375361 3.1958494 9.43000484 3.1958494 9.09325663 3.572519 9.1946378 4.04999995"></polygon>
                    </g>
                </g>
                <g id="mark" mask="url(#mask-4)">
                    <g transform="translate(4.000000, 3.000000)">
                        <g id="stripes" stroke-width="1" fill="none">
                            <mask id="mask-6" fill="white">
                                <use xlink:href="#path-5"></use>
                            </mask>
                            <g id="Oval-29"></g>
                            <path d="M2.31013655,8.63917141 L0.357781086,8.63917141 L0.357781086,6.0102931 L2.30662122,6.01031781 C2.99697375,6.00060958 3.50143128,5.80343217 3.8380156,5.4240764 L4.00573258,5.23504679 L4.19294456,5.40479029 C4.64247565,5.81237631 5.09149261,6.0102931 5.54573274,6.0102931 L7.69786056,6.0102931 L7.69786056,8.63917141 L5.54573274,8.63917141 C5.02388584,8.63917141 4.52008185,8.44287063 4.03833799,8.0584981 C3.61170473,8.43666469 3.0323998,8.62903605 2.31013655,8.63917141 Z" id="Path-132" fill="#F7FCFF" fill-rule="nonzero" mask="url(#mask-6)"></path>
                        </g>
                        <path d="M4.01734976,0.803896775 C4.6108975,1.32470768 4.90767137,1.99213791 4.90767137,2.80618745 C4.90767137,2.96806415 4.89593611,3.1243429 4.8724656,3.27502372 C5.05954363,2.72899715 5.04850779,2.1425899 4.8402579,1.51001956 L5.16361146,1.40356761 C5.4294109,2.21094783 5.40413053,2.96520684 5.08730692,3.65752921 C5.62328816,3.23589404 6.26534499,2.98475544 7.00779317,2.90268364 L7.04519669,3.24104811 C6.87959696,3.25935386 6.71979347,3.28666789 6.56573594,3.32300438 C7.01813623,3.32441514 7.46332793,3.44367685 7.90196247,3.6803519 C7.57744508,4.4002348 7.02594667,4.87917878 6.24746721,5.11718383 C5.96495451,5.20355663 5.68884403,5.24710148 5.41913578,5.24781837 C5.59406728,5.29847474 5.77230963,5.3240837 5.95375215,5.3240837 C6.51895208,5.3240837 7.04455744,5.09300448 7.53674384,4.62352636 L7.77171136,4.86985907 C7.21887811,5.39718595 6.61083317,5.66450923 5.95375215,5.66450923 C5.43176038,5.66450923 4.77485872,5.36418259 4.24218371,4.95978012 C4.180992,4.92726464 4.11923218,4.89275656 4.05786681,4.85560989 C4.06358133,4.84493439 4.06933599,4.83431354 4.0751308,4.82374734 L4.07395367,4.82509165 L4.05445419,4.80663994 C3.9936432,4.85297498 3.93192892,4.89632412 3.86931137,4.93668735 L3.942886,4.8701244 C3.38772456,5.39727976 2.77862162,5.66450923 2.12164877,5.66450923 C1.46456774,5.66450923 0.856522806,5.39718595 0.303689551,4.86985907 L0.538657075,4.62352636 C1.03084347,5.09300448 1.55644884,5.3240837 2.12164877,5.3240837 L2.12891216,5.32389677 L1.9554032,5.30028295 C1.22155576,5.17493817 0.652512259,4.71313573 0.248272699,3.91487564 L0.15791216,3.72468915 C0.865255092,3.46376763 1.57941857,3.42531304 2.3004026,3.60932538 C2.41208444,3.63782925 2.52049581,3.67149419 2.62563671,3.71032018 C2.18949987,3.46420104 1.69566966,3.29696004 1.18987215,3.24104811 L1.22727568,2.90268364 C1.81448413,2.96759491 2.38655183,3.16915305 2.88352045,3.46912702 C2.64076775,2.82956595 2.64150533,2.13857933 2.88348018,1.40356761 L3.20683374,1.51001956 C2.98109598,2.19571024 2.98708525,2.82715916 3.22441323,3.41175259 C3.1838709,3.21723063 3.16297232,3.01536751 3.16297232,2.80618745 C3.16297232,2.03399394 3.4477648,1.36656371 4.01734976,0.803896775 Z" id="peddles" fill="#F7FCFF"></path>
                    </g>
                </g>
            </g>
        </g>
    </g>
</svg>