<?xml version="1.0" encoding="UTF-8"?>
<svg width="16px" height="12px" viewBox="0 0 16 12" version="1.1" xmlns="http://www.w3.org/2000/svg" xmlns:xlink="http://www.w3.org/1999/xlink">
    <title>flags/S/MS - Montserrat</title>
    <defs>
        <rect id="path-1" x="0" y="0" width="16" height="12"></rect>
        <rect id="path-3" x="0" y="0" width="16" height="12"></rect>
        <rect id="path-5" x="0" y="0" width="9" height="7"></rect>
        <path d="M0.523340035,0.0166178797 C0.523340035,3.61169437 0.298239261,6.08169415 2.96432399,6.08169415 C5.63040873,6.08169415 5.63040873,3.04915601 5.45368177,0.0166178797 L0.523340035,0.0166178797 Z" id="path-7"></path>
    </defs>
    <g id="Symbols" stroke="none" stroke-width="1" fill="none" fill-rule="evenodd">
        <g id="flag">
            <mask id="mask-2" fill="white">
                <use xlink:href="#path-1"></use>
            </mask>
            <g id="mask"></g>
            <g id="contents" mask="url(#mask-2)">
                <mask id="mask-4" fill="white">
                    <use xlink:href="#path-3"></use>
                </mask>
                <use id="background" fill="#2E42A5" xlink:href="#path-3"></use>
                <g id="gb---small" mask="url(#mask-4)">
                    <g id="flag">
                        <mask id="mask-6" fill="white">
                            <use xlink:href="#path-5"></use>
                        </mask>
                        <g id="mask"></g>
                        <g id="contents" mask="url(#mask-6)">
                            <g transform="translate(-2.000000, -1.000000)">
                                <g id="stripe">
                                    <polygon id="white" fill="#F7FCFF" fill-rule="nonzero" transform="translate(6.543731, 4.365902) scale(1, -1) translate(-6.543731, -4.365902) " points="0.997866872 1.23189449 2.97834209 0.363294267 11.0449402 6.78743314 12.0895956 8.07819892 9.9717623 8.36851072 6.68158973 5.60016547 4.033339 3.73494762"></polygon>
                                    <polygon id="red" fill="#F50100" fill-rule="nonzero" transform="translate(6.491732, 4.573107) scale(1, -1) translate(-6.491732, -4.573107) " points="1.26899691 1.0377417 2.27795758 0.533678352 11.7144671 8.61253609 10.2977689 8.61253609"></polygon>
                                </g>
                                <g id="stripe" transform="translate(6.500000, 4.500000) scale(-1, 1) translate(-6.500000, -4.500000) ">
                                    <polygon id="white" fill="#F7FCFF" fill-rule="nonzero" transform="translate(6.543731, 4.365902) scale(1, -1) translate(-6.543731, -4.365902) " points="0.997866872 1.23189449 2.97834209 0.363294267 11.0449402 6.78743314 12.0895956 8.07819892 9.9717623 8.36851072 6.68158973 5.60016547 4.033339 3.73494762"></polygon>
                                    <polygon id="red" fill="#F50100" fill-rule="nonzero" transform="translate(6.627779, 4.549380) scale(1, -1) translate(-6.627779, -4.549380) " points="1.06544306 1.16208955 2.07440374 0.658026209 6.09256727 4.11700491 7.28386651 4.5034683 12.1901144 8.44073422 10.7734162 8.44073422 5.86992481 4.59692228 4.567449 4.13351128"></polygon>
                                </g>
                                <g id="cross" transform="translate(2.000000, 1.000000)">
                                    <path d="M5.36728773,-0.375 L5.36703197,2.625 L9.375,2.625 L9.375,4.375 L5.36703197,4.375 L5.36728773,7.375 L3.61728773,7.375 L3.61703197,4.375 L-0.375,4.375 L-0.375,2.625 L3.61703197,2.625 L3.61728773,-0.375 L5.36728773,-0.375 Z" id="red" stroke="#F7FCFF" stroke-width="0.75" fill="#F50100"></path>
                                </g>
                            </g>
                        </g>
                    </g>
                </g>
                <g id="masked" mask="url(#mask-4)">
                    <g transform="translate(9.500000, 5.000000)">
                        <mask id="mask-8" fill="white">
                            <use xlink:href="#path-7"></use>
                        </mask>
                        <path stroke="#F7FCFF" stroke-width="0.25" d="M5.33447829,0.14161788 C5.43364401,2.26451584 5.40985539,3.73472951 4.94641222,4.73243811 C4.76468813,5.1236569 4.51448531,5.44036101 4.17083262,5.65300166 C3.85286497,5.84974928 3.45605615,5.95669415 2.96432399,5.95669415 C2.46358271,5.95669415 2.06918916,5.86746163 1.75984333,5.69383386 C1.43746666,5.51289222 1.20998257,5.24029621 1.048021,4.88998391 C0.624561738,3.97406918 0.637587853,2.54700379 0.645898569,0.797321314 C0.646914527,0.583428306 0.647952892,0.364751083 0.648253654,0.14161788 L0.648253654,0.14161788 Z"></path>
                        <g id="mark" stroke="none" stroke-width="1" fill="none" fill-rule="evenodd" mask="url(#mask-8)">
                            <g transform="translate(0.400024, 0.000000)">
                                <rect id="bg" fill="#2EBED7" x="0.0662500024" y="0" width="5.03500018" height="4.05567568"></rect>
                                <rect id="bg" fill="#A95601" x="0" y="4.0227027" width="5.30000019" height="2.0772973"></rect>
                                <g id="inside" stroke-width="1" fill="none" transform="translate(1.225625, 0.164865)">
                                    <path d="M1.74721839,1.59590952 C1.12487746,1.73942536 0.843791409,1.73942536 0.903960247,1.59590952 C0.964129086,1.45239368 1.07469339,1.12188314 1.23565317,0.604377909" id="Path-170" stroke="#FFC6B5" stroke-width="0.5"></path>
                                    <path d="M2.02801707,1.74940981 C1.91447587,1.67867464 1.85770527,1.57889589 1.85770527,1.45007356 C1.85770527,1.25684006 1.44236942,1.18454341 1.73519324,0.88263071 C2.02801707,0.58071801 2.15438521,0.713678271 2.15438521,0.88263071 C2.15438521,1.05158315 2.38976897,1.45007356 2.38976897,1.45007356 C2.38976897,1.45007356 2.269185,1.54985231 2.02801707,1.74940981 Z" id="Path-171" fill="#FFC6B5"></path>
                                    <path d="M1.55687506,0 L1.55662501,0.461 L2.48437509,0.461621622 L2.48437509,0.923243243 L1.55662501,0.923 L1.55687506,4.94594595 L1.09312504,4.94594595 L1.09262501,0.923 L0.165625006,0.923243243 L0.165625006,0.461621622 L1.09262501,0.461 L1.09312504,0 L1.55687506,0 Z" id="Combined-Shape" fill="#272727"></path>
                                    <path d="M2.55539973,5.08176132 C2.44293279,4.55256891 2.38669931,4.10685397 2.38669931,3.7446165 C2.38669931,3.20126028 2.10398708,2.81262146 2.18477594,2.52528223 C2.26556481,2.23794299 2.46009202,1.92020416 2.36282841,1.72352951 C2.26556481,1.52685486 2.45773107,1.4310913 2.18477594,1.52685486 C1.91182082,1.62261842 1.83844736,1.4310913 1.57490785,1.52685486 C1.31136833,1.62261842 1.27799902,2.07472731 1.27799902,2.20370703 C1.27799902,2.33268675 1.3951819,3.20228008 1.3951819,3.47344829 C1.3951819,3.7446165 1.29863531,5.41207761 1.57490785,5.41207761 C1.85118039,5.41207761 2.15239711,4.97813077 2.25761276,4.97813077 C2.32775653,4.97813077 2.42701885,5.01267429 2.55539973,5.08176132 Z" id="Path-169" fill="#0C7C38"></path>
                                    <path d="M0.889275798,2.95699522 C0.720868097,2.95699522 0.875762202,3.35471507 0.447229976,3.52909993 C0.018697749,3.70348479 -0.0654085304,3.94906101 0.0695810724,3.94906101 C0.159574141,3.94906101 0.560363654,4.3554734 1.27194961,5.16829816 L1.53368406,4.75693249 L1.53368406,3.45786 C1.21635035,3.12395015 1.0015476,2.95699522 0.889275798,2.95699522 Z" id="Path-172" stroke="#FF9A06" stroke-width="0.5"></path>
                                    <path d="M2.1459438,4.99867235 C2.27927713,5.28478882 2.27927713,5.42784705 2.1459438,5.42784705" id="Path-173" stroke="#979797" stroke-width="0.5"></path>
                                    <path d="M2.08159452,1.76184465 C2.02301934,2.08814651 1.93796987,2.28545246 1.82644612,2.35376251 C1.65916048,2.45622757 0.971918511,2.65460188 0.971918511,2.82398489 C0.971918511,2.93690689 0.949184447,3.01355335 0.90371632,3.05392426" id="Path-174" stroke="#FFC6B5" stroke-width="0.5"></path>
                                    <path d="M1.74829167,0.751422561 C1.86040086,0.886877168 1.94784081,1.06624769 2.01061155,1.28953412 C2.10476765,1.62446376 2.37752763,1.73853506 2.37752763,1.58177808 C2.37752763,1.4250211 2.57915829,0.751422561 2.37752763,0.751422561 C2.24310719,0.751422561 2.03336187,0.751422561 1.74829167,0.751422561 Z" id="Path-175" fill="#FF9A06"></path>
                                </g>
                            </g>
                        </g>
                    </g>
                </g>
            </g>
        </g>
    </g>
</svg>