<?xml version="1.0" encoding="UTF-8"?>
<svg width="16px" height="12px" viewBox="0 0 16 12" version="1.1" xmlns="http://www.w3.org/2000/svg" xmlns:xlink="http://www.w3.org/1999/xlink">
    <title>flags/S/MW - Malawi</title>
    <defs>
        <rect id="path-1" x="0" y="0" width="16" height="12"></rect>
        <rect id="path-3" x="0" y="0" width="16" height="12"></rect>
    </defs>
    <g id="Symbols" stroke="none" stroke-width="1" fill="none" fill-rule="evenodd">
        <g id="flag">
            <mask id="mask-2" fill="white">
                <use xlink:href="#path-1"></use>
            </mask>
            <g id="mask"></g>
            <g id="contents" mask="url(#mask-2)">
                <mask id="mask-4" fill="white">
                    <use xlink:href="#path-3"></use>
                </mask>
                <use id="background" fill="#E11C1B" xlink:href="#path-3"></use>
                <rect id="top" fill="#272727" mask="url(#mask-4)" x="0" y="0" width="16" height="5"></rect>
                <rect id="bottom" fill="#5EAA22" mask="url(#mask-4)" x="0" y="8" width="16" height="4"></rect>
                <g id="mark" mask="url(#mask-4)" fill="#E11C1B">
                    <g transform="translate(1.000000, 1.000000)">
                        <path d="M7.07045899,0.300003052 L7.29411946,1.67222331 C7.41844016,1.67736849 7.54149392,1.68668799 7.66309695,1.70002309 L8.15616257,0.38724857 L8.10246472,1.76668808 C8.22475628,1.79048718 8.34524147,1.81840615 8.46371454,1.8502673 L9.20697074,0.646180984 L8.87985875,1.98121577 C8.99859156,2.02419658 9.11484727,2.07126856 9.22838952,2.12222757 L10.1891097,1.06847799 L9.60941946,2.31338959 C9.72064586,2.3753956 9.82864499,2.44134923 9.93315122,2.51102107 L11.0710126,1.64056662 L10.2652247,2.75431931 C10.3652915,2.83477148 10.4612875,2.91895065 10.5529165,3.00660098 L11.8243345,2.34405947 L10.827056,3.29422438 C10.9121045,3.39226507 10.9921349,3.49374038 11.0668183,3.59836608 L12.4248628,3.1563457 L11.2734365,3.91956624 C11.3007088,3.96690542 11.3269418,4.01476988 11.3521096,4.06313734 L10.36935,4.06279297 C9.69220508,3.1246303 8.45497553,2.49659009 7.04091396,2.49659009 C5.62685239,2.49659009 4.38962284,3.1246303 3.7124779,4.06279297 L2.7789508,4.06313734 C2.80499283,4.01308984 2.83217528,3.96358089 2.8604696,3.91463518 L1.71605514,3.1563457 L3.06635507,3.59540881 C3.14193859,3.48972476 3.22298096,3.38726156 3.30914242,3.28831262 L2.31658352,2.34405947 L3.58119269,3.00368742 C3.67381279,2.91526023 3.77088214,2.83037509 3.87209576,2.74929543 L3.06990536,1.64056662 L4.20297785,2.50764664 C4.30842883,2.43754195 4.41742411,2.37121859 4.5296917,2.30891151 L3.95180829,1.06847799 L4.90952345,2.11915826 C5.0234506,2.06823233 5.14009962,2.02121645 5.25923243,1.97831626 L4.93394723,0.646180984 L5.67537289,1.84811543 C5.79480352,1.81620074 5.91627108,1.78829015 6.03956529,1.76456527 L5.9847554,0.38724857 L6.4779338,1.69893909 C6.67042397,1.67819146 6.86653195,1.66750346 7.0655302,1.66750346 L6.84714663,1.67200305 L7.07045899,0.300003052 Z M7.06100549,2.97553237 C8.19340163,2.97553237 9.20048965,3.40171205 9.84194858,4.06317034 L4.28006239,4.06317034 C4.92152132,3.40171205 5.92860934,2.97553237 7.06100549,2.97553237 Z"></path>
                    </g>
                </g>
            </g>
        </g>
    </g>
</svg>