<?xml version="1.0" encoding="UTF-8"?>
<svg width="16px" height="12px" viewBox="0 0 16 12" version="1.1" xmlns="http://www.w3.org/2000/svg" xmlns:xlink="http://www.w3.org/1999/xlink">
    <title>flags/S/MY - Malaysia</title>
    <defs>
        <rect id="path-1" x="0" y="0" width="16" height="12"></rect>
    </defs>
    <g id="Symbols" stroke="none" stroke-width="1" fill="none" fill-rule="evenodd">
        <g id="flag">
            <mask id="mask-2" fill="white">
                <use xlink:href="#path-1"></use>
            </mask>
            <g id="mask"></g>
            <g id="contents" mask="url(#mask-2)">
                <polygon id="background" fill="#F7FCFF" points="0 0 16 0 16 12 0 12"></polygon>
                <g id="mark">
                    <rect id="lines" fill="#E31D1C" x="0.0135792153" y="2.5" width="16" height="1.45000005"></rect>
                    <rect id="lines" fill="#E31D1C" x="0.0135792153" y="5.1000061" width="16" height="1.45000005"></rect>
                    <rect id="lines" fill="#E31D1C" x="0.0558321126" y="7.6000061" width="16" height="1.25"></rect>
                    <rect id="lines" fill="#E31D1C" x="0.0558321126" y="10.1000061" width="16" height="1.35000002"></rect>
                    <rect id="lines" fill="#E31D1C" x="0" y="0" width="16" height="1.25"></rect>
                    <polygon id="square" fill="#3D58DB" points="0 0 8 0 8 6 0 6"></polygon>
                    <path d="M1.79677346,3.1011106 C1.79677346,3.78922188 2.12088503,4.43992813 2.78025765,4.43992813 C3.76954932,4.43992813 3.96201489,4.22901787 4.42363959,3.93802989 C4.53277903,4.18316736 4.16465001,5.23221886 2.76675798,5.23221886 C1.64862948,5.20970859 0.745015178,4.31143935 0.745015178,3.10111004 C0.745015178,1.71185333 1.76680284,0.961579923 2.73869833,0.97007367 C3.59671222,0.97007367 4.50672732,1.45695094 4.47883991,2.07806389 C4.07456738,1.68314183 3.63559508,1.68314183 2.9048514,1.68314183 C2.17410771,1.68314183 1.79677346,2.41291272 1.79677346,3.1011106 Z" id="Shape-sp-1695-0" fill="#FECA00"></path>
                    <polygon id="Star-15" fill="#FECA00" points="5.5 3.6499939 5.03647451 4.32657867 5.05916106 3.50675664 4.28647451 3.78167177 4.78670761 3.13175664 4 2.8999939 4.78670761 2.66823115 4.28647451 2.01831602 5.05916106 2.29323115 5.03647451 1.47340912 5.5 2.1499939 5.96352549 1.47340912 5.94083894 2.29323115 6.71352549 2.01831602 6.21329239 2.66823115 7 2.8999939 6.21329239 3.13175664 6.71352549 3.78167177 5.94083894 3.50675664 5.96352549 4.32657867"></polygon>
                </g>
            </g>
        </g>
    </g>
</svg>