<?xml version="1.0" encoding="UTF-8"?>
<svg width="16px" height="12px" viewBox="0 0 16 12" version="1.1" xmlns="http://www.w3.org/2000/svg" xmlns:xlink="http://www.w3.org/1999/xlink">
    <title>flags/S/MZ - Mozambique</title>
    <defs>
        <rect id="path-1" x="0" y="0" width="16" height="12"></rect>
        <rect id="path-3" x="0" y="0" width="16" height="12"></rect>
        <polygon id="path-5" points="0 0 0 12 9 6"></polygon>
    </defs>
    <g id="Symbols" stroke="none" stroke-width="1" fill="none" fill-rule="evenodd">
        <g id="flag">
            <mask id="mask-2" fill="white">
                <use xlink:href="#path-1"></use>
            </mask>
            <g id="mask"></g>
            <g id="contents" mask="url(#mask-2)">
                <mask id="mask-4" fill="white">
                    <use xlink:href="#path-3"></use>
                </mask>
                <use id="background" fill="#F7FCFF" xlink:href="#path-3"></use>
                <rect id="top" fill="#FECA00" mask="url(#mask-4)" x="0" y="0" width="16" height="4"></rect>
                <rect id="bottom" fill="#009933" mask="url(#mask-4)" x="0" y="8" width="16" height="4"></rect>
                <rect id="middle" stroke="#FFFFFF" fill="#272727" mask="url(#mask-4)" x="-0.5" y="3.5" width="17" height="5"></rect>
                <mask id="mask-6" fill="white">
                    <use xlink:href="#path-5"></use>
                </mask>
                <use id="triangle" fill="#F50100" xlink:href="#path-5"></use>
                <polygon id="Star-5" fill="#FECA00" mask="url(#mask-6)" points="4.03438975 7.17661061 2.14492264 8.7018375 3.01160913 6.66353473 1.52240023 5.22942154 3.28020338 5.22942154 4.00149533 3.5 4.76758775 5.22942154 6.52240023 5.22942154 4.95452517 6.66353473 5.73920226 8.7018375"></polygon>
                <g id="mark" mask="url(#mask-6)">
                    <g transform="translate(2.000000, 4.000000)">
                        <path d="M1.07799871,1.99210726 L0.757548185,3.06233096 C1.47876058,3.0551955 1.88267865,3.08806299 1.96930241,3.16093342 C2.23029989,2.99818575 2.62945791,2.96531827 3.16677648,3.06233096 L2.73809211,1.91696309 C2.37574165,1.75277354 2.11947841,1.71569133 1.96930241,1.80571645 C1.60120618,1.72256799 1.30410495,1.78469826 1.07799871,1.99210726 Z" id="Path-178" stroke="none" fill="#F7FCFF" fill-rule="evenodd"></path>
                        <path d="M3.7819009,3.60813881 C3.86495529,3.71843668 3.84287008,3.87517966 3.73257221,3.95823406 C3.62227434,4.04128845 3.46553136,4.01920324 3.38247697,3.90890537 L1.29243243,1.13328493 C1.20937804,1.02298706 1.23146325,0.86624408 1.34176112,0.783189688 C1.45205899,0.700135296 1.60880197,0.722220502 1.69185636,0.832518375 L3.7819009,3.60813881 Z" id="Path-176" stroke="none" fill="#000000" fill-rule="nonzero"></path>
                        <line x1="1.48701619" y1="0.919871351" x2="1.28701619" y2="0.679871351" id="Path-176" stroke="#000000" stroke-width="0.5" fill="none" stroke-linecap="round" stroke-linejoin="round"></line>
                        <polygon id="Path-177" stroke="none" fill="#000000" fill-rule="evenodd" points="0.802345237 0.681271293 0.198090556 1.64893964 0.500217896 2.1722869 1.1913075 1.14516869 1.31561212 0.827566732 1.1913075 0.681271293"></polygon>
                        <polygon id="Path-179" stroke="none" fill="#000000" fill-rule="evenodd" points="0.0194935759 3.55427414 0.483894495 4.0935271 3.99808621 0.0214999382 2.40070844 1.01734042"></polygon>
                    </g>
                </g>
            </g>
        </g>
    </g>
</svg>