<?xml version="1.0" encoding="UTF-8"?>
<svg width="16px" height="12px" viewBox="0 0 16 12" version="1.1" xmlns="http://www.w3.org/2000/svg" xmlns:xlink="http://www.w3.org/1999/xlink">
    <title>flags/S/NA - Namibia</title>
    <defs>
        <rect id="path-1" x="0" y="0" width="16" height="12"></rect>
        <rect id="path-3" x="0" y="0" width="16" height="12"></rect>
    </defs>
    <g id="Symbols" stroke="none" stroke-width="1" fill="none" fill-rule="evenodd">
        <g id="flag">
            <mask id="mask-2" fill="white">
                <use xlink:href="#path-1"></use>
            </mask>
            <g id="mask"></g>
            <g id="contents" mask="url(#mask-2)">
                <mask id="mask-4" fill="white">
                    <use xlink:href="#path-3"></use>
                </mask>
                <use id="background" fill="#009933" xlink:href="#path-3"></use>
                <polygon id="background" fill="#3195F9" mask="url(#mask-4)" points="0 0 0 12 16 0"></polygon>
                <g id="marks" mask="url(#mask-4)">
                    <g transform="translate(-2.000000, -2.000000)">
                        <path d="M18.3843187,0.191647191 L19.9798443,3.62488267 L1.7590495,16.0274089 L-0.161342715,12.5480863 L18.3843187,0.191647191 Z" id="Path-14" stroke="#F7FCFF" stroke-width="1" fill="#E31D1C" fill-rule="nonzero"></path>
                        <path d="M5.76187439,2.6000061 L5.91860746,3.62263167 L6.88259373,3.24705372 L6.50701577,4.21103998 L7.52964134,4.36777306 L6.72238816,5.01482067 L7.52964134,5.66186828 L6.50701577,5.81860136 L6.88259373,6.78258762 L5.91860746,6.40700967 L5.76187439,7.42963523 L5.11482677,6.62238205 L4.46777916,7.42963523 L4.31104608,6.40700967 L3.34705982,6.78258762 L3.72263778,5.81860136 L2.70001221,5.66186828 L3.50726539,5.01482067 L2.70001221,4.36777306 L3.72263778,4.21103998 L3.34705982,3.24705372 L4.31104608,3.62263167 L4.46777916,2.6000061 L5.11482677,3.40725929 L5.76187439,2.6000061 Z M5.11482677,3.76482067 C4.42447084,3.76482067 3.86482677,4.32446473 3.86482677,5.01482067 C3.86482677,5.70517661 4.42447084,6.26482067 5.11482677,6.26482067 C5.80518271,6.26482067 6.36482677,5.70517661 6.36482677,5.01482067 C6.36482677,4.32446473 5.80518271,3.76482067 5.11482677,3.76482067 Z M5.11482677,4.01482067 C5.66711152,4.01482067 6.11482677,4.46253592 6.11482677,5.01482067 C6.11482677,5.56710542 5.66711152,6.01482067 5.11482677,6.01482067 C4.56254202,6.01482067 4.11482677,5.56710542 4.11482677,5.01482067 C4.11482677,4.46253592 4.56254202,4.01482067 5.11482677,4.01482067 Z" id="Star-19" stroke="none" fill="#FECA00" fill-rule="evenodd"></path>
                    </g>
                </g>
            </g>
        </g>
    </g>
</svg>