<?xml version="1.0" encoding="UTF-8"?>
<svg width="16px" height="12px" viewBox="0 0 16 12" version="1.1" xmlns="http://www.w3.org/2000/svg" xmlns:xlink="http://www.w3.org/1999/xlink">
    <title>flags/S/NF - Norfolk Island</title>
    <defs>
        <rect id="path-1" x="0" y="0" width="16" height="12"></rect>
    </defs>
    <g id="Symbols" stroke="none" stroke-width="1" fill="none" fill-rule="evenodd">
        <g id="flag">
            <mask id="mask-2" fill="white">
                <use xlink:href="#path-1"></use>
            </mask>
            <g id="mask"></g>
            <g id="contents" mask="url(#mask-2)">
                <polygon id="bottom" fill="#409100" points="11 0 16 0 16 12 11 12"></polygon>
                <polygon id="left" fill="#409100" points="0 0 6 0 6 12 0 12"></polygon>
                <polygon id="middle" fill="#FFFFFF" points="5 0 11 0 11 12 5 12"></polygon>
                <g id="mark" transform="translate(5.000000, 0.300003)" fill="#409100">
                    <path d="M2.99585497,0.599990845 C3.10682257,1.01925095 3.16230637,1.25707145 3.16230637,1.31345234 L3.16230637,1.31345234 L3.16230637,1.7560903 C3.16230637,1.99361965 2.78382646,2.06930226 3.16230637,2.06930226 C3.54078627,2.06930226 3.52468614,2.19025058 3.29429009,2.19025058 C3.06389404,2.19025058 3.36044994,2.34243789 3.77412794,2.34243789 C4.18780594,2.34243789 3.42722332,2.52139413 3.16230637,2.52139413 C2.89738941,2.52139413 3.42722332,2.60416717 3.77412794,2.60416717 C4.12103256,2.60416717 3.42722332,2.78173616 3.29429009,2.85356528 C3.23058706,2.88798656 3.32022144,2.89766527 3.56319323,2.88260141 C3.47257297,2.90969777 3.3835925,2.93675894 3.31538151,2.95761313 C3.05461921,3.03733617 3.31538151,2.95761313 3.34457546,3.05310223 C3.36984484,3.13575465 3.63133676,2.97395712 3.83807589,2.86075782 L3.9187184,2.85356528 C4.0330069,2.98544039 4.09015114,3.09164267 4.09015114,3.17217213 C4.09015114,3.24511926 3.84838766,3.26479492 3.59851672,3.28789059 C3.60925603,3.27262081 3.56124611,3.28027785 3.49062632,3.29754999 C3.36296532,3.31133547 3.24380274,3.3272737 3.16230637,3.35374875 C3.08538233,3.37873841 3.0980825,3.38921556 3.16031067,3.3915012 L3.14384385,3.39672749 C2.96397244,3.4517197 3.14384385,3.39672749 3.1730378,3.49221658 C3.1955315,3.56579015 3.33530194,3.46703777 3.46326425,3.37937618 C3.63624545,3.36842872 3.8265033,3.35374875 3.9187184,3.35374875 C4.14199511,3.35374875 3.69544169,3.46138967 3.52468614,3.46138967 L3.50069506,3.46295695 C3.46364248,3.47531058 4.10059702,3.55846213 4.22594756,3.63263892 C4.36174397,3.71299711 3.71896065,3.63263892 3.52468614,3.63263892 C3.33041163,3.63263892 3.29429009,3.79140286 3.42722332,3.79140286 L3.42722332,3.79140286 L3.9187184,3.79140286 C4.10462042,3.79140286 4.29814053,4.07579068 4.22594756,4.07579068 C4.15375458,4.07579068 3.80940638,4.23547946 3.42722332,4.23547946 L3.42722332,4.23547946 L4.1579539,4.23561718 C4.36423284,4.23732787 4.75067594,4.25467271 4.75067594,4.40493042 C4.75067594,4.57397034 4.51139612,4.53096535 4.29814053,4.64657016 C4.14581511,4.72914502 4.5364917,4.80631975 4.77217019,4.84367879 L4.88939352,4.861041 C4.91854537,4.86505223 4.93591329,4.86719551 4.93591329,4.86719551 C4.93591329,4.86719551 4.59908092,4.97195915 4.43516402,4.97195915 C4.27124711,4.97195915 4.51139612,5.12681822 4.93591329,5.12681822 C5.36043047,5.12681822 5.07513529,5.42497586 5.07513529,5.49223217 C5.07513529,5.55948848 4.75067594,5.60567902 4.51139612,5.81453837 C4.27211629,6.02339773 4.85201197,5.81453837 5.07513529,5.81453837 C5.29825861,5.81453837 5.39330588,5.82383814 5.32065275,5.93204424 C5.24799963,6.04025034 4.59908092,6.21144821 4.43516402,6.21144821 L4.43516402,6.21144821 L5.32065275,6.21144821 C5.56617021,6.21144821 5.25188537,6.40540739 4.93591329,6.40540739 C4.61994122,6.40540739 4.51139612,6.58277086 4.43516402,6.58277086 L4.43516402,6.58277086 L5.07513529,6.58277086 C5.13642878,6.58277086 5.20910426,6.39869306 5.25188537,6.40540739 C5.54137663,6.45084194 5.41149102,6.81521359 5.25188537,6.81521359 C5.06869314,6.81521359 4.51139612,6.93806296 4.59908092,7.0620427 C4.68676573,7.18602243 4.87629785,6.93806296 5.32065275,6.93806296 C5.76500766,6.93806296 5.3633959,7.0620427 5.25188537,7.0620427 C5.14037483,7.0620427 4.66861523,7.15211169 4.51139612,7.22995226 C4.354177,7.30779283 5.25188537,7.22995226 5.61765628,7.22995226 C5.98342719,7.22995226 4.75067594,7.5411604 4.29814053,7.5411604 C3.84560512,7.5411604 4.59908092,7.66067008 4.75067594,7.66067008 C4.90227096,7.66067008 5.42546549,7.76394371 5.81690275,7.76394371 C6.20834,7.76394371 5.42546549,8.0218195 5.07513529,8.0218195 L5.07513529,8.0218195 L4.90684645,8.02141037 C4.6408569,8.02191227 4.4624835,8.03766164 4.59908092,8.20858549 C4.76299783,8.41369411 5.67062506,8.11014158 5.96287366,8.28015771 C6.14745173,8.38753633 5.60920384,8.41070084 5.11193625,8.41319449 L4.87025362,8.41301293 C4.67759084,8.41191645 4.51414358,8.40906992 4.43516402,8.40906992 C4.13504168,8.40906992 4.73528636,8.52041019 5.25188537,8.52041019 L5.25188537,8.52041019 L5.49596117,8.52072859 C5.80801785,8.5232467 5.88807315,8.54198042 5.88807315,8.67187818 C5.88807315,8.83064212 4.4647161,8.75167119 4.29814053,8.75167119 C4.13156496,8.75167119 4.11014226,8.96022226 3.9187184,8.96022226 C3.72729454,8.96022226 3.77412794,8.67270026 3.54373189,8.83213213 C3.39013452,8.93842005 3.46693321,9.52770629 3.77412794,10.5999908 L3.77412794,10.5999908 L2.53028188,10.5999908 L2.53028188,9.08522959 C2.26042741,9.00086377 1.86622924,9.00086377 1.34768737,9.08522959 C0.829145492,9.16959541 0.488120615,9.08522959 0.324612735,8.83213213 C0.324612735,8.83213213 0.357266592,8.80531182 0.422574304,8.75167119 C0.520535873,8.67121024 0.96397047,8.75167119 1.21736167,8.75167119 C1.47075287,8.75167119 1.80390401,8.67187818 2.10346394,8.67187818 C2.40302387,8.67187818 1.21736167,8.28015771 0.96397047,8.52041019 C0.710579272,8.76066267 0,8.40906992 0,8.20858549 C0,8.00810106 0.561898561,8.20858549 0.789827932,8.20858549 C1.0177573,8.20858549 0.561898561,7.76394371 0.324612735,7.76394371 C0.0873269101,7.76394371 0.561898561,7.66067008 0.789827932,7.66067008 C1.0177573,7.66067008 1.21736167,7.76394371 1.34768737,7.76394371 C1.47801307,7.76394371 0.693246823,7.42663457 0.561898561,7.42663457 L0.561898561,7.42663457 L1.21736167,7.42663457 C1.6448954,7.42663457 1.4572039,7.5411604 1.80390401,7.5411604 C2.15060411,7.5411604 1.96076522,7.35151714 1.96076522,7.35151714 C1.96076522,7.35151714 0.789827932,7.22995226 0.561898561,7.0620427 C0.42782246,6.96327237 0.72338219,6.98070243 1.05989753,7.01180312 L1.26361196,7.03128377 C1.43228715,7.04751765 1.59176722,7.0620427 1.69346716,7.0620427 C2.03924696,7.0620427 0.96397047,6.81521359 0.789827932,6.81521359 L0.789827932,6.81521359 L1.5822634,6.81521359 C1.94716513,6.81521359 2.38717414,7.0620427 2.83152904,7.0620427 C3.27588395,7.0620427 1.34768737,6.58277086 1.05717712,6.40540739 C0.766666872,6.22804393 1.5822634,6.58277086 1.96076522,6.58277086 C2.33926705,6.58277086 1.4572039,6.21144821 1.21736167,6.21144821 C0.977519435,6.21144821 0.747902834,6.10349901 0.96397047,6.00371922 C1.18003811,5.90393942 1.96076522,6.21144821 2.19385854,6.21144821 C2.42695186,6.21144821 2.53028188,6.40540739 2.83152904,6.40540739 C3.13277621,6.40540739 2.19385854,6.00371922 1.80390401,6.00371922 C1.41394947,6.00371922 1.34768737,5.81453837 1.5822634,5.81453837 C1.81683943,5.81453837 1.05717712,5.49223217 1.05717712,5.49223217 C1.05717712,5.49223217 0.947047047,5.26364293 1.21736167,5.26364293 L1.21736167,5.26364293 L1.5822634,5.26364293 C1.7073229,5.26364293 1.4572039,4.86719551 1.21736167,4.86719551 C0.977519435,4.86719551 1.18668477,4.74742893 1.5822634,4.74742893 C1.97784203,4.74742893 2.10346394,4.97195915 2.53028188,5.12681822 C2.95709982,5.28167728 2.63514575,4.86719551 2.53028188,4.86719551 C2.42541801,4.86719551 1.34768737,4.52937257 1.34768737,4.52937257 C1.34768737,4.52937257 1.4572039,4.40493042 1.34768737,4.23547946 C1.23817083,4.0660285 1.87773308,4.23547946 1.96076522,4.23547946 C2.04379737,4.23547946 2.38717414,4.33474545 2.70738985,4.40493042 C3.02760557,4.47511538 1.61963809,3.88789434 1.4572039,3.88789434 C1.29476971,3.88789434 1.80390401,3.79140286 2.10346394,3.79140286 C2.40302387,3.79140286 2.38717414,3.88789434 2.70738985,3.88789434 C3.02760557,3.88789434 2.10346394,3.54467651 1.80390401,3.54467651 C1.50434407,3.54467651 1.68145204,3.24913924 1.80390401,3.24913924 C1.92635597,3.24913924 2.53028188,3.35374875 2.83152904,3.35374875 C3.13277621,3.35374875 2.19385854,3.17217213 2.10346394,3.0220914 C2.04058074,2.91768741 2.20248364,2.95854114 2.45644928,2.99307932 C2.58720421,3.06090603 2.69532562,3.10477382 2.71112321,3.05310223 C2.71586722,3.03758525 2.72672609,3.02669497 2.74046828,3.01899536 L2.83152904,3.0220914 C3.01000493,3.0220914 2.92765613,2.99490408 2.75596522,2.96236911 L2.74031715,2.95761313 L2.74031715,2.95761313 C2.47955485,2.8778901 1.91525913,2.70745587 2.12634951,2.81262971 C2.16768805,2.83322625 2.21414252,2.85864017 2.26234309,2.88547762 L2.26235676,2.88548929 L2.17940652,2.87483332 C2.07503731,2.86188755 1.99247605,2.85356528 1.96076522,2.85356528 C1.81806651,2.85356528 1.67495877,2.74330398 1.96076522,2.74330398 L1.96076522,2.74330398 L2.46109269,2.74303223 C2.29464814,2.74112997 2.10346394,2.72591188 2.10346394,2.60416717 C2.10346394,2.46503036 2.53028188,2.60416717 2.70738985,2.60416717 C2.88449783,2.60416717 2.92857031,2.60416717 2.83152904,2.52139413 C2.73448778,2.43862109 2.38717414,2.4434508 2.19385854,2.4434508 C2.00054294,2.4434508 2.60375306,2.34243789 2.83152904,2.34243789 C3.05930503,2.34243789 2.53028188,2.34243789 2.19385854,2.19025058 C1.8574352,2.03806327 2.53028188,2.19025058 2.83152904,2.19025058 C3.13277621,2.19025058 2.70738985,1.98765958 2.38717414,1.98765958 C2.06695843,1.98765958 2.33579033,1.87868278 2.53028188,1.7560903 C2.72477343,1.63349783 2.83152904,2.06930226 2.83152904,1.87868278 C2.83152904,1.80720047 2.81407197,1.76044314 2.79879703,1.73428695 L2.793,1.727 L2.79588752,1.7297599 L2.83152904,1.7560903 C2.91428851,1.81130658 2.91428851,1.73887803 2.83152904,1.53880464 C2.74876958,1.48355411 2.74876958,1.45592884 2.83152904,1.45592884 C2.95566824,1.45592884 2.79159795,1.31345234 2.70738985,1.31345234 C2.65125113,1.31345234 2.72497794,1.26801537 2.92857031,1.17714142 L2.92857031,1.17714142 Z M2.93178923,7.63421781 L2.75397383,7.6345394 C2.73166887,7.63475025 2.7086561,7.63504403 2.68537349,7.63545095 L2.5459436,7.63949194 C2.36506317,7.6473348 2.22297406,7.66628639 2.34391971,7.7118169 C2.38322705,7.72661431 2.4280869,7.74758965 2.47470597,7.77015899 L2.61604754,7.83806515 C2.75508016,7.90158553 2.87580604,7.9381968 2.87580604,7.82413339 C2.87580604,7.65303827 3.06241669,7.63592876 2.93178923,7.63421781 Z M3.36206085,7.50882198 L3.24859891,7.50891438 C3.11797146,7.51062533 3.30458211,7.52773484 3.30458211,7.69882996 C3.30458211,7.88893564 3.63993176,7.66050054 3.83646844,7.58651346 C4.03300511,7.51252638 3.53496563,7.50872427 3.30458211,7.50872427 Z M3.36206085,7.13291168 L3.30458211,7.13281397 C3.07419859,7.13281397 3.30458211,7.13281397 3.30458211,7.32291965 C3.30458211,7.51302534 3.63993176,7.28459024 3.83646844,7.21060316 C4.03300511,7.13661608 3.53496563,7.13281397 3.30458211,7.13281397 Z M2.75111656,7.13281397 C2.52073303,7.13281397 2.02269355,7.13661608 2.21923023,7.21060316 C2.41576691,7.28459024 2.75111656,7.51302534 2.75111656,7.32291965 C2.75111656,7.13281397 2.98150008,7.13281397 2.75111656,7.13281397 Z M3.93364782,5.63940804 C3.54448578,5.63940804 3.4712958,5.76698437 3.36494922,5.76698437 L3.25860263,5.76698437 C3.12089743,5.87580703 3.12089743,5.93021836 3.25860263,5.93021836 C3.46516042,5.93021836 4.32280987,5.63940804 3.93364782,5.63940804 Z" id="Path-191"></path>
                </g>
            </g>
        </g>
    </g>
</svg>