<?xml version="1.0" encoding="UTF-8"?>
<svg width="16px" height="12px" viewBox="0 0 16 12" version="1.1" xmlns="http://www.w3.org/2000/svg" xmlns:xlink="http://www.w3.org/1999/xlink">
    <title>flags/S/NU - Niue</title>
    <defs>
        <rect id="path-1" x="0" y="0" width="16" height="12"></rect>
        <rect id="path-3" x="0" y="0" width="16" height="12"></rect>
        <rect id="path-5" x="0" y="0" width="16" height="8"></rect>
    </defs>
    <g id="Symbols" stroke="none" stroke-width="1" fill="none" fill-rule="evenodd">
        <g id="flag">
            <mask id="mask-2" fill="white">
                <use xlink:href="#path-1"></use>
            </mask>
            <g id="mask"></g>
            <g id="contents" mask="url(#mask-2)">
                <mask id="mask-4" fill="white">
                    <use xlink:href="#path-3"></use>
                </mask>
                <use id="background" fill="#2E42A5" xlink:href="#path-3"></use>
                <rect id="bottom" fill="#FECA00" mask="url(#mask-4)" x="0" y="8" width="16" height="4"></rect>
                <g id="mark-1" mask="url(#mask-4)">
                    <mask id="mask-6" fill="white">
                        <use xlink:href="#path-5"></use>
                    </mask>
                    <g id="mask"></g>
                    <g id="contents" mask="url(#mask-6)">
                        <g transform="translate(-3.000000, -1.000000)">
                            <g id="stripe" transform="translate(1.000000, 0.000000)">
                                <polygon id="white" fill="#FFFFFF" fill-rule="nonzero" transform="translate(10.164114, 4.851822) scale(1, -1) translate(-10.164114, -4.851822) " points="0.868911597 1.13895366 4.04027123 0.405299683 10.8008096 4.14076216 11.5161831 4.55907409 17.9379674 7.91690154 19.4593157 8.97741596 15.9794782 9.29834524 10.3686788 6.13334194 6.31398937 4.14076216"></polygon>
                                <polygon id="red" fill="#F50100" fill-rule="nonzero" transform="translate(9.986008, 5.081230) scale(1, -1) translate(-9.986008, -5.081230) " points="1.14753323 1.15304633 2.85500514 0.592975947 18.8244827 9.56948454 16.4269934 9.56948454"></polygon>
                            </g>
                            <g id="stripe" transform="translate(10.500000, 5.000000) scale(-1, 1) translate(-10.500000, -5.000000) ">
                                <polygon id="white" fill="#FFFFFF" fill-rule="nonzero" transform="translate(10.364451, 4.851003) scale(1, -1) translate(-10.364451, -4.851003) " points="0.81461747 1.33660573 0.688697783 0.581598075 4.04027123 0.403660296 9.44332915 3.56833305 9.95275748 3.39428825 20.0402046 8.49667666 15.87529 9.29834524 10.3073057 6.22240608 5.9515703 4.11777588"></polygon>
                                <polygon id="red" fill="#F50100" fill-rule="nonzero" transform="translate(10.216241, 5.054867) scale(1, -1) translate(-10.216241, -5.054867) " points="0.80305749 1.29121061 2.51052941 0.731140232 9.31049845 4.5744499 11.3265433 5.00385366 19.6294244 9.37859358 17.2319351 9.37859358 8.93371891 5.10769142 6.72952908 4.59279031"></polygon>
                            </g>
                            <g id="cross" transform="translate(2.384615, 0.333333)">
                                <path d="M9.42915916,0.666666667 L9.42838462,3.66666667 L16.6153846,3.66666667 L16.6153846,5.66666667 L9.42838462,5.66666667 L9.42915916,9.66666667 L7.83488623,9.66666667 L7.83438462,5.66666667 L0.615384615,5.66666667 L0.615384615,3.66666667 L7.83438462,3.66666667 L7.83488623,0.666666667 L9.42915916,0.666666667 Z" id="white" stroke="#FFFFFF" stroke-width="1.25"></path>
                                <path d="M9.46153846,0 L9.46138462,3.666 L17.6153846,3.66666667 L17.6153846,5.66666667 L9.46138462,5.666 L9.46153846,10.3333333 L7.76923077,10.3333333 L7.76838462,5.666 L0.615384615,5.66666667 L0.615384615,3.66666667 L7.76838462,3.666 L7.76923077,0 L9.46153846,0 Z" id="red" fill="#F50100"></path>
                            </g>
                        </g>
                    </g>
                </g>
                <g id="mark-2" mask="url(#mask-4)">
                    <g transform="translate(2.000000, 0.000000)">
                        <circle id="Oval-37" fill="#2E42A5" cx="6.02502441" cy="3.92500305" r="1.375"></circle>
                        <g id="stars" stroke-width="1" fill="none" transform="translate(0.000000, 0.600006)">
                            <polygon id="Star-10" fill="#FECA00" points="6.04999995 3.74564635 5.40106429 4.19721554 5.62999997 3.4404985 5 2.96286657 5.79042568 2.9467589 6.04999995 2.19999695 6.30957422 2.9467589 7.0999999 2.96286657 6.46999994 3.4404985 6.69893561 4.19721554"></polygon>
                            <polygon id="Star-10" fill="#FECA00" points="1.54999995 3.68803513 1.00922021 4.0643428 1.19999995 3.43374524 0.674999952 3.03571861 1.33368805 3.02229556 1.54999995 2.3999939 1.76631185 3.02229556 2.42499995 3.03571861 1.89999996 3.43374524 2.09077969 4.0643428"></polygon>
                            <polygon id="Star-10" fill="#FECA00" points="10.55 3.68803513 10.0092202 4.0643428 10.1999999 3.43374524 9.67499995 3.03571861 10.3336881 3.02229556 10.55 2.3999939 10.7663119 3.02229556 11.425 3.03571861 10.9 3.43374524 11.0907797 4.0643428"></polygon>
                            <polygon id="Star-10" fill="#FECA00" points="6.04999995 1.28804123 5.50922021 1.6643489 5.69999995 1.03375134 5.17499995 0.635724712 5.83368805 0.622301659 6.04999995 0 6.26631185 0.622301659 6.92499995 0.635724712 6.39999996 1.03375134 6.59077969 1.6643489"></polygon>
                            <polygon id="Star-10" fill="#FECA00" points="6.04999995 6.58804428 5.50922021 6.96435196 5.69999995 6.33375439 5.17499995 5.93572776 5.83368805 5.92230471 6.04999995 5.30000305 6.26631185 5.92230471 6.92499995 5.93572776 6.39999996 6.33375439 6.59077969 6.96435196"></polygon>
                        </g>
                    </g>
                </g>
            </g>
        </g>
    </g>
</svg>