<?xml version="1.0" encoding="UTF-8"?>
<svg width="16px" height="12px" viewBox="0 0 16 12" version="1.1" xmlns="http://www.w3.org/2000/svg" xmlns:xlink="http://www.w3.org/1999/xlink">
    <title>flags/S/OM - Oman</title>
    <defs>
        <rect id="path-1" x="0" y="0" width="16" height="12"></rect>
        <rect id="path-3" x="0" y="0" width="16" height="12"></rect>
    </defs>
    <g id="Symbols" stroke="none" stroke-width="1" fill="none" fill-rule="evenodd">
        <g id="flag">
            <mask id="mask-2" fill="white">
                <use xlink:href="#path-1"></use>
            </mask>
            <g id="mask"></g>
            <g id="contents" mask="url(#mask-2)">
                <mask id="mask-4" fill="white">
                    <use xlink:href="#path-3"></use>
                </mask>
                <use id="background" fill="#F50101" xlink:href="#path-3"></use>
                <rect id="top" fill="#F7FCFF" mask="url(#mask-4)" x="0" y="0" width="16" height="4"></rect>
                <rect id="bottom" fill="#5EAA22" mask="url(#mask-4)" x="0" y="8" width="16" height="4"></rect>
                <rect id="left" fill="#F50101" mask="url(#mask-4)" x="0" y="0" width="6" height="12"></rect>
                <g id="mark" mask="url(#mask-4)" fill="#F7FCFF">
                    <path d="M5.34974801,0.974241226 C5.37364464,0.975833709 5.39172572,0.996496719 5.39013324,1.02039335 L5.39013324,1.02039335 L5.36625048,1.28180629 C5.29422497,1.89593212 5.11378471,2.48159492 4.82492972,3.0387947 L5.87443786,3.03848642 C5.89845024,3.03848642 5.91791613,3.0579523 5.91791613,3.08196469 L5.91791613,3.08196469 L5.91791613,3.74500816 C5.91791613,3.76902054 5.89845024,3.78848642 5.87443786,3.78848642 L5.87443786,3.78848642 L4.82009004,3.78848642 C4.79607766,3.78848642 4.77661178,3.76902054 4.77661178,3.74500816 L4.77661178,3.74500816 L4.77661178,3.39690936 L4.64379485,3.3969865 C4.62213158,3.44689785 4.58697931,3.48972401 4.54287619,3.52097564 C4.40331277,3.73579609 4.24534848,3.94715718 4.07009004,4.15397789 C4.0617008,4.16387794 4.05328509,4.17374212 4.0448429,4.18357044 C4.58240199,4.76277624 5.14354861,5.26446336 5.72787524,5.68911426 L6.06735452,5.92443228 C6.08771914,5.93799481 6.09323332,5.9654982 6.07967079,5.98586281 C6.06938058,6.00131393 6.05054837,6.00871083 6.03249337,6.00439312 C5.12424736,5.78719334 4.33367029,5.3921516 3.66076215,4.81926791 C3.52973187,4.96614805 3.34700528,5.0412101 3.11423611,5.04497126 C2.47155469,5.51421964 1.72346373,5.84074562 0.870241021,6.02485098 C0.855386638,6.0280562 0.839952233,6.02307386 0.829775546,6.01178842 C0.814080385,5.99438327 0.815466608,5.96755016 0.832871762,5.951855 L0.832871762,5.951855 C1.24898817,5.57521687 1.6169745,5.24290373 1.93613267,4.95414145 C1.47401682,4.86499581 1.10635657,4.69134814 1.10635657,4.36319809 C1.10635657,3.9701615 1.68580478,3.8372649 2.8447012,3.96450831 L2.99880286,4.15397789 C2.83822215,3.96447821 2.69115441,3.77116682 2.55759964,3.5740437 L2.57552482,3.57612083 C2.45228156,3.57612083 2.34645878,3.50233683 2.30073306,3.3969865 L2.16791613,3.39690936 L2.16791613,3.74500816 C2.16791613,3.76902054 2.14845024,3.78848642 2.12443786,3.78848642 L1.07009004,3.78848642 C1.04607766,3.78848642 1.02661178,3.76902054 1.02661178,3.74500816 L1.02661178,3.08196469 C1.02661178,3.0579523 1.04607766,3.03848642 1.07009004,3.03848642 L2.12443786,3.03848642 C2.14845024,3.03848642 2.16791613,3.0579523 2.16791613,3.08196469 L2.16791613,3.09822358 L2.26606269,3.09915937 C1.90891891,2.45238396 1.68874112,1.7669734 1.60552933,1.04292768 L1.60619925,1.04285069 C1.60350016,1.01936532 1.62035078,0.998138621 1.64383615,0.995439537 C1.66094134,0.993473703 1.67755939,1.00194818 1.68601291,1.01694785 C2.00908351,1.59019439 2.44763081,2.23205833 3.00165483,2.94253967 L3.05186567,2.5342283 C3.23399706,2.48976261 3.32506276,2.39429639 3.32506276,2.24782965 L3.32506276,1.78967007 L3.32506276,1.78967007 L2.87443786,1.41697529 L3.47061021,1 L4.03624455,1.41697529 L3.62440134,1.78967007 L3.62440134,2.24782965 C3.7761725,2.38702346 3.87586103,2.48248968 3.92346695,2.5342283 L3.92456822,2.99481394 C4.51580395,2.24557853 4.97733886,1.57932926 5.30917295,0.996066134 C5.31739524,0.981613862 5.33315729,0.973135613 5.34974801,0.974241226 Z M2.57552482,3.03848642 C2.44045518,3.03848642 2.3309596,3.14680463 2.3309596,3.28042191 C2.3309596,3.41403919 2.44045518,3.52235739 2.57552482,3.52235739 C2.71059446,3.52235739 2.82009004,3.41403919 2.82009004,3.28042191 C2.82009004,3.14680463 2.71059446,3.03848642 2.57552482,3.03848642 Z M4.36900308,3.03848642 C4.23393344,3.03848642 4.12443786,3.14680463 4.12443786,3.28042191 C4.12443786,3.41403919 4.23393344,3.52235739 4.36900308,3.52235739 C4.50407272,3.52235739 4.6135683,3.41403919 4.6135683,3.28042191 C4.6135683,3.14680463 4.50407272,3.03848642 4.36900308,3.03848642 Z" id="Combined-Shape"></path>
                </g>
            </g>
        </g>
    </g>
</svg>