<?xml version="1.0" encoding="UTF-8"?>
<svg width="16px" height="12px" viewBox="0 0 16 12" version="1.1" xmlns="http://www.w3.org/2000/svg" xmlns:xlink="http://www.w3.org/1999/xlink">
    <title>flags/S/PG - Papua New Guinea</title>
    <defs>
        <rect id="path-1" x="0" y="0" width="16" height="12"></rect>
    </defs>
    <g id="Symbols" stroke="none" stroke-width="1" fill="none" fill-rule="evenodd">
        <g id="flag">
            <mask id="mask-2" fill="white">
                <use xlink:href="#path-1"></use>
            </mask>
            <g id="mask"></g>
            <g id="contents" mask="url(#mask-2)">
                <rect id="background" fill="#E11C1B" x="0" y="0" width="16" height="12"></rect>
                <polygon id="left" fill="#1D1D1D" points="0 0 16 12 0 12"></polygon>
                <g id="mark" transform="translate(1.000000, 1.000000)">
                    <polygon id="stars" fill="#EEEEF6" points="2.54169257 8.13422905 3.20760257 8.13422905 3.52429509 7.38758345 3.89653757 8.12919805 4.57879757 8.16651208 3.99573014 8.80113643 4.29511187 9.56567143 3.55397687 9.14009043 2.86958687 9.56948043 3.12775278 8.8271611"></polygon>
                    <polygon id="stars" fill="#EEEEF6" points="0.54169257 6.13422905 1.20760257 6.13422905 1.52429509 5.38758345 1.89653757 6.12919805 2.57879757 6.16651208 1.99573014 6.80113643 2.29511187 7.56567143 1.55397687 7.14009043 0.869586872 7.56948043 1.12775278 6.8271611"></polygon>
                    <polygon id="stars" fill="#EEEEF6" points="2.54169257 5.13422905 3.20760257 5.13422905 3.52429509 4.38758345 3.89653757 5.12919805 4.57879757 5.16651208 3.99573014 5.80113643 4.29511187 6.56567143 3.55397687 6.14009043 2.86958687 6.56948043 3.12775278 5.8271611"></polygon>
                    <polygon id="stars" fill="#EEEEF6" points="3.85561353 7.28210652 4.3133504 7.2668902 4.47858469 6.79478512 4.66409223 7.26436657 5.08529184 7.30485617 4.70600299 7.57302933 5.01190427 8.04791154 4.48117894 7.84940091 4.02119703 8.05429741 4.26410939 7.58608372"></polygon>
                    <polygon id="stars" fill="#EEEEF6" points="4.85561353 6.28210652 5.3133504 6.2668902 5.47858469 5.79478512 5.66409223 6.26436657 6.08529184 6.30485617 5.70600299 6.57302933 6.01190427 7.04791154 5.48117894 6.84940091 5.02119703 7.05429741 5.26410939 6.58608372"></polygon>
                    <path d="M9.54194911,0 C8.5123532,0.205398824 8.14203668,1.02370638 8.43099955,2.45492267 L8.21067364,2.45492267 C8.22268615,2.38023992 8.15808097,2.32100388 8.0168581,2.27721456 C7.80502379,2.21153059 7.84744036,2.23618865 7.73812657,2.27721456 C7.66525071,2.30456517 7.40711993,2.30456517 6.96373425,2.27721456 L6.96373425,2.35939393 L7.43437589,2.56265289 C7.42664371,2.67548478 7.48836313,2.76316262 7.61953415,2.82568639 C7.75070518,2.88821017 7.86391268,2.93453615 7.95915665,2.96466434 C7.97856996,3.08917338 7.92681954,3.1514279 7.80390539,3.1514279 C7.61953415,3.1514279 6.87798982,2.91105513 6.61425321,3.50161531 C6.4384288,3.8953221 6.23367773,4.23660938 6,4.52547716 L6.39545994,4.52547716 L6.28933567,4.65735528 L6.73462679,4.65735528 L6.61425321,4.72567512 C6.98150447,4.72159379 7.17944845,4.69882051 7.20808516,4.65735528 C7.23672187,4.61589006 7.23672187,4.67209343 7.20808516,4.82596541 C7.5638486,4.66350563 7.7514784,4.56334288 7.77097455,4.52547716 L8.02004762,4.69634053 L8.09100425,4.40720349 L8.35826176,4.52547716 L8.43099955,4.24998709 C8.93502767,5.09292436 9.37817863,5.49020259 9.76045243,5.44182177 L9.76045243,5.23197316 L10.283742,5.44182177 L10.3501836,5.34850376 C10.7716154,5.52034495 11.047185,5.61422981 11.1768924,5.63015835 L11.0380858,5.34850376 L11.1768924,5.34850376 L11.0380858,4.82596541 L11.1768924,4.82596541 C10.991817,4.5467908 10.8992793,4.40720349 10.8992793,4.40720349 C10.9511402,4.33161378 10.9770706,4.29381892 10.9770706,4.29381892 C10.9427452,4.19447811 10.9255825,4.1448077 10.9255825,4.1448077 C11.6040819,4.36094837 11.9280329,4.64095909 11.8974356,4.98483986 C11.8668382,5.32872063 11.7004443,5.5700437 11.3982539,5.70880907 C11.1084902,5.79757809 10.8327411,5.83241115 10.5710065,5.81330824 C10.7787814,6.05872681 11.1024701,6.13985751 11.5420725,6.05670032 C11.981675,5.97354313 12.2743244,5.71884235 12.4200209,5.29259798 C12.6215825,5.71127487 12.6393941,6.03068181 12.4734559,6.25081879 C12.3075176,6.47095576 11.8551295,6.65830035 11.1162914,6.81285255 C11.3836041,6.96958713 11.6439855,7.02787369 11.8974356,6.98771222 C12.2776106,6.92747003 12.868833,6.59658434 12.9834488,6.05670032 C13.0980647,5.51681629 12.5880303,4.52058806 12.356976,4.40720349 L12.2657224,4.06156548 C12.4042114,4.11706029 12.4734559,4.1448077 12.4734559,4.1448077 C12.1893256,3.44998885 12.0472605,3.10257943 12.0472605,3.10257943 C12.1850315,3.1327643 12.253917,3.14785673 12.253917,3.14785673 C11.8519261,2.64780823 11.6509307,2.39778399 11.6509307,2.39778399 C11.7616114,2.36368784 11.8169518,2.34663976 11.8169518,2.34663976 C11.2615875,1.94743424 10.9839053,1.74783148 10.9839053,1.74783148 L11.2331855,1.68197744 C10.8226892,1.47394276 10.3833077,1.4958941 9.91504093,1.74783148 C9.91945933,1.66079135 9.92166852,1.61727129 9.92166852,1.61727129 C9.79861629,1.63807476 9.73709018,1.64847649 9.73709018,1.64847649 C9.74438052,1.55273519 9.7480257,1.50486453 9.7480257,1.50486453 C9.87033232,1.31956061 9.93148564,1.22690865 9.93148564,1.22690865 C9.74787381,1.15616552 9.6560679,1.12079396 9.6560679,1.12079396 C9.80449828,0.897822721 9.86757083,0.787867603 9.84528556,0.790928604 C9.67987199,0.83840246 9.60185975,0.852191135 9.61124883,0.832294629 C9.69470122,0.617401034 9.72545047,0.51283101 9.70349658,0.518584558 C9.51165551,0.583829224 9.42992905,0.600126219 9.45831722,0.567475543 L9.56891511,0.370551156 L9.54194911,0 Z" id="Path-197" fill="#FBCD17"></path>
                </g>
            </g>
        </g>
    </g>
</svg>