<?xml version="1.0" encoding="UTF-8"?>
<svg width="16px" height="12px" viewBox="0 0 16 12" version="1.1" xmlns="http://www.w3.org/2000/svg" xmlns:xlink="http://www.w3.org/1999/xlink">
    <title>flags/S/PH - Philippines</title>
    <defs>
        <rect id="path-1" x="0" y="0" width="16" height="12"></rect>
        <rect id="path-3" x="0" y="0" width="16" height="12"></rect>
        <polygon id="path-5" points="0 0 0 12 9 6"></polygon>
    </defs>
    <g id="Symbols" stroke="none" stroke-width="1" fill="none" fill-rule="evenodd">
        <g id="flag">
            <mask id="mask-2" fill="white">
                <use xlink:href="#path-1"></use>
            </mask>
            <g id="mask"></g>
            <g id="contents" mask="url(#mask-2)">
                <mask id="mask-4" fill="white">
                    <use xlink:href="#path-3"></use>
                </mask>
                <use id="background" fill="#BF2714" xlink:href="#path-3"></use>
                <rect id="top" fill="#3D58DB" mask="url(#mask-4)" x="0" y="-1" width="16" height="7"></rect>
                <mask id="mask-6" fill="white">
                    <use xlink:href="#path-5"></use>
                </mask>
                <use id="triangle" fill="#F7FCFF" xlink:href="#path-5"></use>
                <polygon id="Shape-sp-1695-0" fill="#FECA00" mask="url(#mask-6)" points="6.67356891 5.74031714 7.35717901 5.75330565 7.56107492 5.20376263 7.7748518 5.76167436 8.39188993 5.74031714 7.88290564 6.14880848 8.10892792 6.65072084 7.58261397 6.39479026 7.02301124 6.72797481 7.2123272 6.14366263"></polygon>
                <polygon id="Shape-sp-1695-0" fill="#FECA00" mask="url(#mask-6)" points="0.673568909 8.74031714 1.31325993 8.78337955 1.56107492 8.20376263 1.73093271 8.79174825 2.39188993 8.74031714 1.83898655 9.17888237 2.10892792 9.65072084 1.53993951 9.450456 1.02301124 9.72797481 1.16840812 9.17373652"></polygon>
                <polygon id="Shape-sp-1695-0" fill="#FECA00" mask="url(#mask-6)" points="0.673568909 2.74031714 1.36509533 2.7430783 1.56107492 2.20376263 1.78276812 2.751447 2.39188993 2.74031714 1.89082196 3.13858112 2.10892792 3.65072084 1.59177491 3.41015475 1.02301124 3.72797481 1.22024352 3.13343528"></polygon>
                <path d="M4.0607502,7.2664177 C4.75110613,7.2664177 5.3107502,6.70677363 5.3107502,6.0164177 C5.3107502,5.32606176 4.75110613,4.7664177 4.0607502,4.7664177 C3.37039426,4.7664177 2.8107502,5.32606176 2.8107502,6.0164177 C2.8107502,6.70677363 3.37039426,7.2664177 4.0607502,7.2664177 Z" id="Oval-43" fill="#FECA00" mask="url(#mask-6)"></path>
                <path d="M3.90713993,4.93372182 L3.78411836,4.13736381 C3.76311986,4.03417921 3.82974486,3.93350891 3.93292946,3.91251041 C3.94217585,3.91062873 3.95154917,3.90943606 3.96097215,3.90894222 C4.0661274,3.90343127 4.1558401,3.98420894 4.16135105,4.0893642 C4.16184489,4.09878717 4.16163852,4.10823381 4.16073366,4.11762624 L4.12812165,4.92214065 C4.12219673,4.98364119 4.0675376,5.02869412 4.00603707,5.0227692 C3.95708132,5.01805283 3.91694773,4.98191638 3.90713993,4.93372182 Z M3.73056723,4.8803074 L3.60264531,4.53908324 C3.59011375,4.50565604 3.60705301,4.46839912 3.6404802,4.45586756 C3.64307165,4.45489605 3.64572281,4.45409197 3.64841732,4.4534603 C3.68875238,4.44400455 3.72953891,4.46732101 3.74185578,4.50687633 L3.84895417,4.85082004 C3.85812544,4.88027334 3.84168361,4.91158475 3.8122303,4.92075602 C3.77614669,4.9297542 3.74244197,4.91198257 3.73056723,4.8803074 Z M4.19734401,6.88408117 C4.24629975,6.88879754 4.28643335,6.92493398 4.29624114,6.97312855 L4.40436929,7.81013736 C4.42536779,7.91332196 4.35874279,8.01399226 4.25555819,8.03499076 C4.2463118,8.03687244 4.23693848,8.03806511 4.22751551,8.03855895 C4.12236025,8.0440699 4.03264756,7.96329223 4.0271366,7.85813697 C4.02664277,7.848714 4.02684913,7.83926736 4.02775399,7.82987493 L4.07525942,6.98470971 C4.08118434,6.92320918 4.13584347,6.87815625 4.19734401,6.88408117 Z M3.5112546,6.67913556 C3.54253656,6.71708747 3.54536297,6.77101854 3.51821942,6.8120324 L3.01565963,7.51894876 C2.95754528,7.60675948 2.83924965,7.63083314 2.75143893,7.57271879 L2.72908667,7.55541271 L2.72908667,7.55541271 C2.65083384,7.48495354 2.64451583,7.36439865 2.71497499,7.28614583 L2.73539583,7.2665981 L2.73539583,7.2665981 L3.35377263,6.66396385 C3.40144963,6.62466596 3.4719567,6.63145856 3.5112546,6.67913556 Z M4.96029776,6.5368963 L5.64613819,7.05452011 C5.7339489,7.11263446 5.75802256,7.23093009 5.69990821,7.31874081 C5.69470058,7.32660954 5.68891599,7.33408082 5.68260213,7.34109307 C5.61214297,7.4193459 5.49158808,7.42566391 5.41333525,7.35520475 C5.406323,7.34889089 5.39978914,7.34206519 5.39378753,7.33478391 L4.8122292,6.70134309 C4.77293131,6.65366609 4.77972392,6.58315902 4.82740091,6.54386113 C4.86535283,6.51257916 4.91928389,6.50975275 4.96029776,6.5368963 Z M2.22951726,5.89894682 L3.07040601,5.92699407 C3.13190654,5.93291899 3.17695947,5.98757812 3.17103455,6.04907865 C3.16631819,6.0980344 3.13018174,6.13816799 3.08198717,6.14797579 L2.24925483,6.27556212 C2.14607023,6.29656062 2.04539994,6.22993562 2.02440144,6.12675102 C2.02251976,6.11750463 2.02132708,6.10813131 2.02083325,6.09870834 C2.01532229,5.99355308 2.09609996,5.90384039 2.20125522,5.89832943 C2.2106782,5.8978356 2.22012484,5.89804196 2.22951726,5.89894682 Z M6.17418689,5.78504937 L6.17775508,5.81309205 L6.17775508,5.81309205 C6.18326603,5.91824731 6.10248836,6.00796 5.99733311,6.01347096 C5.98791013,6.01396479 5.97846349,6.01375843 5.96907107,6.01285357 L5.13297507,5.9798563 C5.07147454,5.97393138 5.0264216,5.91927225 5.03234652,5.85777172 C5.03706289,5.80881597 5.07319934,5.76868238 5.12139391,5.75887458 L5.94933349,5.63623827 C6.0525181,5.61523977 6.15318839,5.68186477 6.17418689,5.78504937 Z M2.72709472,4.56963784 C2.73410697,4.57595169 2.74064083,4.58277739 2.74664245,4.59005867 L3.39115187,5.20550728 C3.43044976,5.25318427 3.42365716,5.32369135 3.37598016,5.36298924 C3.33802825,5.39427121 3.28409718,5.39709762 3.24308332,5.36995407 L2.49429178,4.87032248 C2.40648107,4.81220813 2.38240741,4.69391249 2.44052176,4.60610178 C2.4457294,4.59823305 2.45151398,4.59076176 2.45782784,4.58374951 C2.528287,4.50549669 2.64884189,4.49917867 2.72709472,4.56963784 Z M5.46382891,4.38646424 L5.48618117,4.40377032 L5.48618117,4.40377032 C5.564434,4.47422948 5.57075201,4.59478437 5.50029285,4.6730372 C5.49397899,4.68004945 5.48715329,4.68658331 5.47987201,4.69258492 L4.84960844,5.24288652 C4.80193145,5.28218441 4.73142437,5.2753918 4.69212648,5.22771481 C4.66084451,5.18976289 4.65801811,5.13583183 4.68516165,5.09481796 L5.19960821,4.44023426 C5.25772256,4.35242355 5.37601819,4.32834989 5.46382891,4.38646424 Z" id="Combined-Shape" fill="#FECA00" mask="url(#mask-6)" transform="translate(4.099294, 5.973751) rotate(4.000000) translate(-4.099294, -5.973751) "></path>
            </g>
        </g>
    </g>
</svg>