<?xml version="1.0" encoding="UTF-8"?>
<svg width="16px" height="12px" viewBox="0 0 16 12" version="1.1" xmlns="http://www.w3.org/2000/svg" xmlns:xlink="http://www.w3.org/1999/xlink">
    <title>flags/S/PN - Pitcairn Islands</title>
    <defs>
        <rect id="path-1" x="0" y="0" width="16" height="12"></rect>
        <rect id="path-3" x="0" y="0" width="16" height="12"></rect>
        <path d="M0.072271143,0.0716197969 L2.66460143,0.0716197969 L2.66460143,1.57625204 C2.52371036,2.39587706 2.0769528,3.00758431 1.32432875,3.41137377 C0.59531458,3.00201965 0.177962044,2.3903124 0.072271143,1.57625204 L0.072271143,0.0716197969 Z" id="path-5"></path>
        <rect id="path-7" x="0" y="0" width="9" height="7"></rect>
    </defs>
    <g id="Symbols" stroke="none" stroke-width="1" fill="none" fill-rule="evenodd">
        <g id="flags/S/PN---Pitcairn-Islands">
            <g id="flag">
                <mask id="mask-2" fill="white">
                    <use xlink:href="#path-1"></use>
                </mask>
                <g id="mask"></g>
                <g id="contents" mask="url(#mask-2)">
                    <mask id="mask-4" fill="white">
                        <use xlink:href="#path-3"></use>
                    </mask>
                    <use id="background" fill="#2E42A5" xlink:href="#path-3"></use>
                    <g id="mark" mask="url(#mask-4)">
                        <g transform="translate(9.500000, 5.000000)">
                            <path d="M0.808036339,0.834524035 C0.840954604,1.18117449 0.821332426,1.45271272 0.749169806,1.64913874 C0.640925876,1.94377776 0.585922776,2.11481103 0.585922776,1.92647615 C0.585922776,1.73814128 0.509908019,1.58888693 0.448770871,1.58888693 C0.387633723,1.58888693 0.435892758,1.77565474 0.374450602,1.77565474 C0.313008447,1.77565474 0.101332934,1.80776346 0.101332934,1.69832519 C0.101332934,1.58888693 0.0734755415,1.99190885 0.210830785,2.0279512 C0.348186029,2.06399355 0.144135715,2.17583038 0.0530400093,2.14119518 C0.302852812,2.21833285 0.476741229,2.28976727 0.574705262,2.35549846 C0.868371429,2.70379059 1.15254846,2.85669075 1.42723635,2.81419894 C1.05320624,2.69154195 0.899143341,2.51303583 0.96504765,2.2786806 C1.06390411,1.92714775 1.42723635,1.87629829 1.42723635,1.87629829 C1.54090265,1.91241526 1.59603001,1.97777334 1.59261844,2.07237252 C1.58750108,2.21427129 1.71729891,2.0279512 1.71729891,2.0279512 C1.7312389,1.90842833 1.73052722,1.83408365 1.71516385,1.80491717 C1.69211881,1.76116745 2.10567569,1.67648231 2.13177081,1.49185721 C1.85005644,1.50409519 1.69952937,1.49440501 1.68018961,1.46278667 C1.65117996,1.41535916 1.81097024,1.34100382 1.76098282,1.24854735 C1.72765788,1.18690971 1.46234616,1.36261217 0.96504765,1.77565474 C1.13677842,1.49452227 1.2226438,1.27847071 1.2226438,1.12750006 C1.2226438,0.901044079 1.15720265,0.746289033 0.96504765,0.746289033 C0.836944314,0.746289033 0.78460721,0.7757007 0.808036339,0.834524035 Z" id="Path-226" fill="#5EAA22" fill-rule="evenodd"></path>
                            <path d="M5.03534477,0.901683695 C5.03534477,0.901683695 5.03534477,0.901683695 5.03534477,0.901683695 C5.13974786,0.987775984 5.1134381,1.07277027 4.95641549,1.15666654 C5.02982073,1.22429525 5.10849019,1.25810961 5.19242386,1.25810961 C5.27635752,1.25810961 5.32861555,1.22429525 5.34919794,1.15666654 C5.3556144,1.30716814 5.49569213,1.41091383 5.76943111,1.46790359 C5.86710143,1.33468261 5.86710143,1.23160594 5.76943111,1.15867358 C5.88481448,1.13592974 5.93831513,1.08016849 5.92993306,0.991389813 C5.83508689,1.02209137 5.75384181,1.00216734 5.68619783,0.931617715 C5.58473185,0.825793279 5.38698504,0.776990592 5.24322462,0.801391935 C5.19096202,0.783486014 5.14178562,0.771270632 5.09569544,0.76474579 L5.09569581,0.764743154 C5.05318814,0.758725476 5.01385056,0.788306465 5.00783288,0.830814143 C5.0040386,0.857616186 5.01446029,0.884462057 5.03534477,0.901683695 Z" id="Path-229" fill="#5EAA22" fill-rule="evenodd"></path>
                            <path d="M2.20185486,2.09712565 C2.48492483,2.60295516 2.53799621,2.90827577 2.36106901,3.01308748 C2.09567821,3.17030505 3.62295465,3.05846822 3.76685062,3.01308748 C3.91074659,2.96770674 3.73780709,2.72848045 3.57822015,2.66206632 C3.41863322,2.59565219 2.76252724,2.37468693 2.58799492,2.20803503 C2.41346259,2.04138313 2.52004593,1.98225065 2.6606207,1.81774146 C2.80119547,1.65323228 3.3216068,1.58744779 3.3216068,1.43368415 C3.3216068,1.27992051 3.65169318,0.645773408 3.88241474,0.597930145 C4.1131363,0.550086882 3.98848972,0.474740139 3.93545223,0.474740139 C3.88241474,0.474740139 3.56344421,0.787064541 3.44252551,0.730714388 C3.3216068,0.674364235 3.30683086,0.678329853 3.44252551,0.542123665 C3.57822015,0.405917478 3.68036392,0.249147642 3.50098536,0.36194389 C3.3216068,0.474740139 3.02585077,0.653256913 2.88368317,0.653256913 C2.74151558,0.653256913 2.23540573,0.592365487 2.29823737,0.730714388 C2.36106901,0.869063289 2.38770637,1.10920705 2.6606207,1.2714456 C2.93353503,1.43368415 2.81492083,1.5524065 2.58799492,1.70873977 C2.43671098,1.81296194 2.30799763,1.94242391 2.20185486,2.09712565 Z" id="Path-244" fill="#96877D" fill-rule="evenodd"></path>
                            <path d="M5.0193149,1.09376032 L4.2102305,2.6352984 C4.19450565,2.92559869 4.37945343,2.97402827 4.76507384,2.78058713 C5.34350446,2.49042542 5.32073053,2.28462903 5.4875021,2.28462903 C5.65427366,2.28462903 5.70724338,2.19664987 5.70724338,2.19664987 C5.63318293,2.1413231 5.59615271,2.11365972 5.59615271,2.11365972 C5.58758989,2.01274967 5.6067602,1.95096278 5.65366365,1.92829906 C5.56164162,1.88013599 5.50905599,1.87615971 5.49590676,1.91637022 C5.47618291,1.97668599 5.37885149,1.790206 5.43392237,1.790206 C5.35279026,1.91501637 5.30366138,2.00176959 5.28653575,2.05046568 C5.16911899,2.00511692 5.11322346,1.87738564 5.11884916,1.66727184 C5.12447487,1.45715805 5.09129678,1.26598754 5.0193149,1.09376032 Z" id="Path-235" fill="#FFD018" fill-rule="nonzero"></path>
                            <path d="M1.16818294,0.849650949 C1.16818294,0.849650949 0.756184988,0.940764221 0.800614479,1.03558727 C0.845043969,1.13041031 0.910519008,1.0330288 0.708807088,1.14729617 C0.472572787,1.32082394 0.328710707,1.39818547 0.277220848,1.37938077 C0.199986059,1.35117371 0.331918939,1.44494139 0.331918939,1.14729617 C0.331918939,0.849650949 0.126140246,1.09193742 0.331918939,0.893240766 C0.537697632,0.694544114 0.609848955,0.849650949 0.708807088,0.735319622 C0.807765221,0.620988295 0.71880457,0.681783778 0.987245451,0.681783778 C1.25568633,0.681783778 1.16818294,0.849650949 1.16818294,0.849650949 Z" id="Path-236" fill="#FFD018" fill-rule="nonzero"></path>
                            <path d="M2.42532401,2.38169073 C1.65629732,2.95580988 1.19493327,3.26429659 1.04123186,3.30715085 C0.810679741,3.37143224 1.51541754,3.28946547 1.68757758,3.17577376 C1.80235094,3.09997929 2.04826642,2.83528494 2.42532401,2.38169073 Z" id="Path-237" fill="#FFD018" fill-rule="nonzero"></path>
                            <path d="M4.71227357,3.8924313 C4.7860855,4.3447676 4.72664284,4.54867712 4.5339456,4.50415986 C4.34124836,4.4596426 4.20490981,4.42587089 4.12492994,4.40284472 C4.19562401,4.61353417 4.2814668,4.71887889 4.38245832,4.71887889 C4.55452799,5.03745021 4.60746381,5.24703099 4.54126579,5.34762124 C4.83766573,5.11917179 4.96190563,4.91413228 4.91398549,4.73250271 C4.84210529,4.46005835 5.02890571,4.77733978 5.02890571,4.77733978 C5.13798559,4.82737905 5.23195063,4.82445814 5.31080083,4.76857704 C5.42907613,4.68475539 5.30930968,4.72201301 5.19103438,4.56242886 C5.07275907,4.40284472 5.10195657,3.95466592 4.74220744,3.72238943 C4.50237469,3.56753845 4.35454444,3.49258613 4.29871669,3.4975325 C4.1220832,3.22317995 4.08667969,3.09507557 4.19250615,3.11321933 C4.95089146,3.36019632 5.33993474,3.51533514 5.35963599,3.57863578 C5.38918787,3.67358675 5.69087462,3.6561892 5.54003124,3.38470427 C5.38918787,3.11321933 4.57603669,2.94960561 4.47924751,2.8730436 C4.38245832,2.79648158 4.47250344,2.506096 4.29871669,2.442838 C4.12492994,2.37957999 3.65013425,1.93069762 3.65043925,1.71437955 C3.65074426,1.49806148 3.42727511,1.39623464 3.23301894,1.39623464 C3.03876277,1.39623464 2.67299046,1.34292266 2.51845311,1.34292266 C2.36391575,1.34292266 2.21988422,1.58850316 2.36916866,1.58850316 C2.51845311,1.58850316 2.3909259,2.04829098 2.14095494,2.14877463 C1.89098399,2.24925827 1.69774451,2.39368352 1.41229096,2.39368352 C1.12683742,2.39368352 1.81635871,2.62749508 1.92626324,2.53516654 C2.03616777,2.442838 2.00010905,2.30525664 2.36916866,2.14877463 C2.73822827,1.99229262 3.09047856,1.89964427 3.04587962,2.02420945 C3.00128068,2.14877463 3.11505645,2.35712948 3.28893706,2.28171878 C3.46281767,2.20630807 3.51857415,2.01583048 3.51857415,2.14877463 C3.51857415,2.28171878 3.7851511,2.96454064 3.98882862,3.23103657 C4.12461364,3.40870052 4.36576196,3.62916543 4.71227357,3.8924313 Z" id="Path-243" fill="#5EAA22" fill-rule="evenodd"></path>
                            <path d="M2.2855626,1.39911291 C2.19539321,1.53558778 2.19539321,1.60382521 2.2855626,1.60382521 C2.42081667,1.60382521 2.63833686,1.60382521 2.50581222,1.50146906 C2.41746246,1.43323163 2.34404592,1.39911291 2.2855626,1.39911291 Z" id="Path-238" fill="#FFD018" fill-rule="nonzero"></path>
                            <path d="M2.7374827,1.39419375 C2.73791197,1.48493098 2.76937297,1.53029959 2.83186571,1.53029959 C2.92560482,1.53029959 3.00900755,1.66640543 3.00900755,1.53029959 C3.00900755,1.39419375 3.13927983,1.43933041 2.93838127,1.39419375 C2.80444889,1.36410265 2.7374827,1.36410265 2.7374827,1.39419375 Z" id="Path-239" fill="#FFD018" fill-rule="nonzero"></path>
                            <path d="M3.31479496,1.42536914 C3.25456154,1.46845793 3.23950318,1.52843257 3.26961989,1.60529307 C3.31479496,1.72058382 3.41700651,1.94873478 3.26961989,1.94873478 C3.12223328,1.94873478 3.00096766,2.03098938 3.11609923,2.03098938 C3.2312308,2.03098938 3.43605256,2.11324397 3.43605256,2.03098938 C3.43605256,1.94873478 3.51938751,2.16661991 3.51938751,2.03098938 C3.51938751,1.89535884 3.51938751,1.83054957 3.51938751,1.75100545 C3.51938751,1.67146133 3.60272246,1.64859506 3.51938751,1.5369821 C3.46383088,1.46257346 3.39563336,1.42536914 3.31479496,1.42536914 Z" id="Path-240" fill="#FFD018" fill-rule="nonzero"></path>
                            <path d="M3.52358984,2.21906841 C3.64914015,2.59445893 3.7460536,2.80635299 3.81433019,2.85475058 C3.91674508,2.92734698 3.96269961,3.53885168 4.00763745,3.60533974 C4.05257528,3.6718278 4.66496345,4.00740224 4.66496345,4.18748607 C4.66496345,4.36756991 4.85352614,4.04910519 4.7592448,3.8707803 C4.66496345,3.69245541 4.36812159,3.31278396 4.15461671,3.22998344 C3.94111182,3.14718293 3.96818975,2.94669536 3.92331969,2.80578799 C3.87844964,2.66488063 4.18894772,2.91963961 3.92331969,2.60002359 C3.65769167,2.28040756 3.66474074,2.45192054 3.73953546,2.45192054 C3.81433019,2.45192054 3.88912491,2.41415123 3.81433019,2.36448506 C3.76446704,2.33137428 3.66755359,2.28290206 3.52358984,2.21906841 Z" id="Path-241" fill="#FFD018" fill-rule="nonzero"></path>
                            <path d="M1.52704173,3.38029092 C1.11923481,4.06448795 0.878945037,4.42426119 0.806172401,4.45961062 C0.697013447,4.51263477 0.615644106,4.5234123 0.559861542,4.45961062 C0.504078978,4.39580894 0.498351607,4.63083578 0.559861542,4.69518113 C0.621371477,4.75952648 0.806172401,4.75952648 0.90872285,4.64525911 C0.919544984,4.83774083 0.978208178,5.00653544 1.08471243,5.15164295 C1.24446882,5.36930421 1.31102833,5.30921231 1.31102833,5.43230637 C1.31102833,5.55540043 1.34878153,5.71837454 1.39754891,5.71837454 C1.4463163,5.71837454 1.4840695,6.10582182 1.39754891,6.10582182 C1.31102833,6.10582182 1.5980408,6.13761073 1.72316184,6.04070893 C1.84828288,5.94380714 1.90176093,5.86999547 1.8750219,5.86999547 C1.84828288,5.86999547 1.52704173,5.70935596 1.52704173,5.59569623 C1.52704173,5.4820365 1.31102833,5.39303396 1.31102833,5.22430331 C1.31102833,5.05557266 1.19879878,4.85495716 1.19879878,4.77506914 C1.19879878,4.69518113 1.29476124,4.80589901 1.39754891,4.73024825 C1.46607403,4.67981442 1.5092383,4.58960188 1.52704173,4.45961062 C1.41911411,4.52839064 1.34710964,4.54558565 1.31102833,4.51119564 C1.25690636,4.45961062 1.08656924,4.35778378 1.19879878,4.18307272 C1.27361848,4.06659869 1.3830328,3.79900475 1.52704173,3.38029092 Z" id="Path-242" fill="#FFD018" fill-rule="nonzero"></path>
                            <path d="M2.58711378,0.143547071 C2.44108276,0.205248676 2.39240575,0.281938612 2.44108276,0.373616879 C2.51409827,0.511134279 2.5403459,0.572025705 2.58711378,0.541579992 C2.63388167,0.511134279 2.96203633,0.453568856 2.88852941,0.298557963 C2.8150225,0.143547071 2.66102178,0.143547071 2.66102178,0.143547071 C2.66102178,0.143547071 2.63638578,0.143547071 2.58711378,0.143547071 Z" id="Path-245" fill="#5EAA22" fill-rule="evenodd"></path>
                            <path d="M3.34695635,0.0691898055 C3.15408966,-0.0118895901 3.08980076,-0.0118895901 3.15408966,0.0691898055 C3.25052301,0.190808899 3.37389872,0.254923828 3.46265603,0.254923828 C3.55141334,0.254923828 3.73584148,0.229785525 3.64362741,0.180718784 C3.58215136,0.148007624 3.48326101,0.110831297 3.34695635,0.0691898055 Z" id="Path-246" fill="#FFD018" fill-rule="nonzero"></path>
                            <path d="M0.313042336,3.61778027 C0.313042336,3.61778027 0.313042336,3.61778027 0.313042336,3.61778027 C0.374032628,3.74365666 0.435022921,3.8284484 0.496013213,3.87215548 C0.533156402,4.06487172 0.590113811,4.18745409 0.666885441,4.23990259 C0.770000719,4.23489227 0.824111387,4.15738149 0.829217446,4.00737026 C1.00433719,3.95856757 1.1176307,3.98610304 1.16909796,4.08997664 C1.13514041,4.10166029 1.11816164,4.15163561 1.11816164,4.23990259 C1.11816164,4.32816957 1.15777878,4.42011435 1.23701307,4.51573691 C1.27329772,4.2113011 1.37296753,3.96094481 1.53602252,3.76466804 C1.69907751,3.56839127 1.80393246,3.45088318 1.85058738,3.41214378 L1.85058738,3.08085477 C1.513226,3.34200991 1.30870123,3.58115693 1.23701307,3.79829584 C1.06711235,3.80367927 0.947650901,3.79247001 0.878628733,3.76466804 C0.775095481,3.72296509 1.0079521,3.65455818 0.878628733,3.50632721 C0.749305365,3.35809625 0.808578575,3.71503385 0.666885441,3.61778027 C0.592796368,3.5982071 0.53980676,3.56256263 0.507916617,3.51084686 L0.507958668,3.51082093 C0.475692073,3.45849467 0.407116013,3.44223309 0.354789751,3.47449969 C0.306176226,3.50447685 0.288138859,3.56638258 0.313042336,3.61778027 Z" id="Path-228" fill="#5EAA22" fill-rule="evenodd"></path>
                            <g id="shield" stroke-width="1" fill="none" fill-rule="evenodd" transform="translate(1.521127, 2.870886)">
                                <mask id="mask-6" fill="white">
                                    <use xlink:href="#path-5"></use>
                                </mask>
                                <use id="Path-227" fill="#5EAA22" xlink:href="#path-5"></use>
                                <g id="contents" mask="url(#mask-6)">
                                    <g transform="translate(-0.830986, -0.079747)">
                                        <polygon id="Path-230" fill="#58A5FF" fill-rule="evenodd" points="2.13569249 0.0700714624 1.00309633 2.30290631 2.53908244 0.977814226 3.59620608 2.64235042 3.59620608 0.0700714624 2.53908244 0.893320977"></polygon>
                                        <path d="M2.18449376,1.60006447 C2.23116571,1.60006447 2.2690008,1.63789956 2.2690008,1.68457151 L2.2690008,3.10983183 C2.2690008,3.15650378 2.23116571,3.19433887 2.18449376,3.19433887 C2.13782181,3.19433887 2.09998672,3.15650378 2.09998672,3.10983183 L2.09998672,1.68457151 C2.09998672,1.63789956 2.13782181,1.60006447 2.18449376,1.60006447 Z" id="Path-231" fill="#FFD018" fill-rule="nonzero"></path>
                                        <path d="M1.72308452,1.95497717 C1.72308452,1.91141668 1.75839727,1.87610393 1.80195776,1.87610393 L2.57387549,1.87610393 C2.61743598,1.87610393 2.65274873,1.91141668 2.65274873,1.95497717 C2.65274873,1.99853766 2.61743598,2.03385041 2.57387549,2.03385041 L1.80195776,2.03385041 C1.75839727,2.03385041 1.72308452,1.99853766 1.72308452,1.95497717 Z" id="Path-232" fill="#FFD018" fill-rule="nonzero"></path>
                                        <g id="Group-5" stroke-width="1" fill="none" fill-rule="evenodd" transform="translate(0.507042, 1.472152)">
                                            <g id="Group" transform="translate(0.930472, 0.623835)" fill="#FFD018">
                                                <path d="M0.904104126,0.908050265 L0.818092475,0.978389976 C0.691338727,0.82339504 0.575759717,0.748845515 0.473615205,0.748845515 C0.323198391,0.748845515 0.200887851,0.622530356 0.101146993,0.382946313 L0.203724137,0.340242583 C0.288100131,0.542919221 0.379909351,0.637734404 0.473615205,0.637734404 C0.615593361,0.637734404 0.758336414,0.729804986 0.904104126,0.908050265 Z" id="Path-233" fill-rule="nonzero"></path>
                                                <path d="M2.0852764e-13,0.00180272555 L2.0852764e-13,0.542926509 C2.08554364e-13,0.543362114 0.000353127521,0.543715241 0.000788732395,0.543715241 C0.000892363098,0.543715241 0.000994978008,0.543694819 0.00109071239,0.543655142 L0.405371465,0.376102196 C0.405773879,0.375935417 0.405964898,0.375473996 0.405798119,0.375071583 C0.405754468,0.37496626 0.405688503,0.374871652 0.405604767,0.374794277 L0.00132401446,0.00122343987 C0.00100408381,0.000927811744 0.000505074836,0.000947512834 0.000209446714,0.00126744348 C7.47862923e-05,0.00141317385 2.08508208e-13,0.00160430486 2.0852764e-13,0.00180272555 Z" id="Path-234"></path>
                                                <path d="M1.42945912,0.908050265 L1.34344747,0.978389976 C1.21669372,0.82339504 1.10111471,0.748845515 0.998970196,0.748845515 C0.848553383,0.748845515 0.726242842,0.622530356 0.626501984,0.382946313 L0.729079128,0.340242583 C0.813455122,0.542919221 0.905264342,0.637734404 0.998970196,0.637734404 C1.14094835,0.637734404 1.28369141,0.729804986 1.42945912,0.908050265 Z" id="Path-233" fill-rule="nonzero" transform="translate(1.027981, 0.659316) scale(-1, 1) translate(-1.027981, -0.659316) "></path>
                                                <path d="M1.12409642,0.00180272555 L1.12409642,0.542926509 C1.12409642,0.543362114 1.12444955,0.543715241 1.12488515,0.543715241 C1.12498878,0.543715241 1.1250914,0.543694819 1.12518713,0.543655142 L1.52946788,0.376102196 C1.5298703,0.375935417 1.53006132,0.375473996 1.52989454,0.375071583 C1.52985089,0.37496626 1.52978492,0.374871652 1.52970119,0.374794277 L1.12542043,0.00122343987 C1.1251005,0.000927811744 1.12460149,0.000947512834 1.12430586,0.00126744348 C1.1241712,0.00141317385 1.12409642,0.00160430486 1.12409642,0.00180272555 Z" id="Path-234" transform="translate(1.327351, 0.272054) scale(-1, 1) translate(-1.327351, -0.272054) "></path>
                                            </g>
                                        </g>
                                        <g id="Group-4" stroke-width="1" fill="none" fill-rule="evenodd" transform="translate(2.598592, 2.472152) scale(-1, 1) translate(-2.598592, -2.472152) translate(2.098592, 1.472152)"></g>
                                        <rect id="Rectangle-64" fill="#FFFFFF" fill-rule="evenodd" x="2.01408451" y="1.03670886" width="1" height="1"></rect>
                                    </g>
                                </g>
                            </g>
                        </g>
                    </g>
                </g>
            </g>
            <g id="flag">
                <mask id="mask-8" fill="white">
                    <use xlink:href="#path-7"></use>
                </mask>
                <g id="mask"></g>
                <g id="contents" mask="url(#mask-8)">
                    <g transform="translate(-2.000000, -1.000000)">
                        <g id="stripe">
                            <polygon id="white" fill="#F7FCFF" fill-rule="nonzero" transform="translate(6.543731, 4.365902) scale(1, -1) translate(-6.543731, -4.365902) " points="0.997866872 1.23189449 2.97834209 0.363294267 11.0449402 6.78743314 12.0895956 8.07819892 9.9717623 8.36851072 6.68158973 5.60016547 4.033339 3.73494762"></polygon>
                            <polygon id="red" fill="#F50100" fill-rule="nonzero" transform="translate(6.491732, 4.573107) scale(1, -1) translate(-6.491732, -4.573107) " points="1.26899691 1.0377417 2.27795758 0.533678352 11.7144671 8.61253609 10.2977689 8.61253609"></polygon>
                        </g>
                        <g id="stripe" transform="translate(6.500000, 4.500000) scale(-1, 1) translate(-6.500000, -4.500000) ">
                            <polygon id="white" fill="#F7FCFF" fill-rule="nonzero" transform="translate(6.543731, 4.365902) scale(1, -1) translate(-6.543731, -4.365902) " points="0.997866872 1.23189449 2.97834209 0.363294267 11.0449402 6.78743314 12.0895956 8.07819892 9.9717623 8.36851072 6.68158973 5.60016547 4.033339 3.73494762"></polygon>
                            <polygon id="red" fill="#F50100" fill-rule="nonzero" transform="translate(6.627779, 4.549380) scale(1, -1) translate(-6.627779, -4.549380) " points="1.06544306 1.16208955 2.07440374 0.658026209 6.09256727 4.11700491 7.28386651 4.5034683 12.1901144 8.44073422 10.7734162 8.44073422 5.86992481 4.59692228 4.567449 4.13351128"></polygon>
                        </g>
                        <g id="cross" transform="translate(2.000000, 1.000000)">
                            <path d="M5.36728773,-0.375 L5.36703197,2.625 L9.375,2.625 L9.375,4.375 L5.36703197,4.375 L5.36728773,7.375 L3.61728773,7.375 L3.61703197,4.375 L-0.375,4.375 L-0.375,2.625 L3.61703197,2.625 L3.61728773,-0.375 L5.36728773,-0.375 Z" id="red" stroke="#F7FCFF" stroke-width="0.75" fill="#F50100"></path>
                        </g>
                    </g>
                </g>
            </g>
        </g>
    </g>
</svg>