<?xml version="1.0" encoding="UTF-8"?>
<svg width="16px" height="12px" viewBox="0 0 16 12" version="1.1" xmlns="http://www.w3.org/2000/svg" xmlns:xlink="http://www.w3.org/1999/xlink">
    <title>flags/S/PT - Portugal</title>
    <defs>
        <rect id="path-1" x="0" y="0" width="16" height="12"></rect>
        <path d="M3.95238095,7.90361446 C1.82213977,7.90361446 0.0952380952,6.15590673 0.0952380952,4 C0.0952380952,1.84409327 1.82213977,0.0963855422 3.95238095,0.0963855422 C6.08262213,0.0963855422 7.80952381,1.84409327 7.80952381,4 C7.80952381,6.15590673 6.08262213,7.90361446 3.95238095,7.90361446 Z" id="path-3"></path>
    </defs>
    <g id="Symbols" stroke="none" stroke-width="1" fill="none" fill-rule="evenodd">
        <g id="flag">
            <mask id="mask-2" fill="white">
                <use xlink:href="#path-1"></use>
            </mask>
            <g id="mask"></g>
            <g id="contents" mask="url(#mask-2)">
                <polygon id="right" fill="#EF0000" points="4 0 16 0 16 12 4 12"></polygon>
                <polygon id="left" fill="#2F8D00" points="0 0 6 0 6 12 0 12"></polygon>
                <g id="mark" transform="translate(2.000000, 2.000000)">
                    <g id="stripes">
                        <mask id="mask-4" fill="white">
                            <use xlink:href="#path-3"></use>
                        </mask>
                        <g id="Path"></g>
                        <polygon id="Rectangle-53" fill="#FFE017" mask="url(#mask-4)" points="3.71428571 0 4.21428571 0 4.21428571 1.34939759 3.71428571 1.34939759"></polygon>
                        <polygon id="Rectangle-53" fill="#FFE017" mask="url(#mask-4)" points="3.71428571 6.74698795 4.21428571 6.74698795 4.21428571 8 3.71428571 8"></polygon>
                        <path d="M0.157226941,4.2018886 L0.0174354352,3.84324201 C1.56002823,3.22740219 2.72430815,2.83024759 3.51430362,2.65126065 C4.67336417,2.38865572 5.94689985,2.19436322 7.33499889,2.0682355 L7.36906451,2.45223311 C5.99689166,2.57691372 4.73968321,2.76871531 3.59752737,3.02749019 C2.83105039,3.20114862 1.68294077,3.59278727 0.157226941,4.2018886 Z" id="Path-194" fill="#FFE017" fill-rule="nonzero" mask="url(#mask-4)"></path>
                        <path d="M7.57042384,1.83194566 L7.45698152,2.19999679 C6.29112568,1.83194055 5.34141496,1.67373154 4.61139948,1.72273506 L4.58618724,1.33803816 C5.3699829,1.28542457 6.36354506,1.45093864 7.57042384,1.83194566 Z" id="Path-204" fill="#FFE017" fill-rule="nonzero" mask="url(#mask-4)"></path>
                        <path d="M7.97382419,3.88988677 L7.75832021,4.20780967 C7.16398604,3.7951742 6.43176366,3.58790804 5.55666468,3.58790804 L5.55666468,3.20236587 C6.50535631,3.20236587 7.31273895,3.43090723 7.97382419,3.88988677 Z" id="Path-207" fill="#FFE017" fill-rule="nonzero" mask="url(#mask-4)"></path>
                        <path d="M7.65100252,4.00527743 L7.74949553,4.37771095 C6.46817883,4.72477971 5.26520672,4.92168992 4.14048252,4.96806008 C3.00800351,5.01474995 1.68807228,4.81713303 0.179559832,4.37671222 L0.285151536,4.00627617 C1.75700194,4.43599324 3.0373199,4.62767935 4.12497644,4.58283742 C5.22038778,4.53767578 6.39576203,4.34528296 7.65100252,4.00527743 Z" id="Path-208" fill="#FFE017" fill-rule="nonzero" mask="url(#mask-4)"></path>
                        <path d="M7.50586363,5.81794245 L6.90369661,6.43528251 C5.75934632,5.29199918 4.75188276,4.47451453 3.88749925,3.98332979 C3.00834575,3.48375203 1.86185024,2.97646474 0.44979057,2.46351457 L0.739363828,1.64704743 C2.19306671,2.17512506 3.38173484,2.70107238 4.30714607,3.22693604 C5.2473273,3.76119272 6.31150205,4.62469445 7.50586363,5.81794245 Z" id="Path-209" fill="#FFE017" fill-rule="nonzero" mask="url(#mask-4)"></path>
                        <path d="M0.729151876,6.16765094 L0.501222394,5.85873101 C0.533052026,5.83467694 0.58984561,5.79456369 0.668096208,5.74372743 C0.797295148,5.65979209 0.940764294,5.57599388 1.09512618,5.49768909 C1.52027853,5.28201756 1.94674693,5.14736224 2.35350631,5.13499339 C2.37339884,5.1343885 2.3932081,5.13408419 2.41293222,5.13408419 L2.41293222,5.51962636 C2.39704285,5.51962636 2.38104726,5.51987208 2.36494734,5.52036165 C2.02216355,5.53078511 1.64572905,5.64964247 1.26583143,5.84235716 C1.124231,5.91418831 0.992295271,5.99125002 0.873887746,6.06817461 C0.832672779,6.09495032 0.796206474,6.11971014 0.764958279,6.14178071 C0.746739597,6.15464854 0.73464936,6.16349642 0.729151876,6.16765094 Z" id="Path-210" fill="#FFE017" fill-rule="nonzero" mask="url(#mask-4)"></path>
                        <path d="M0.90607559,6.30129005 L1.00201076,5.92817331 C2.27207049,6.26264521 3.25121293,6.42932031 3.93455701,6.42932031 C4.61534756,6.42932031 5.62864437,6.23271989 6.96786148,5.83815064 L7.07434364,6.20832553 C5.70345062,6.61222735 4.65905039,6.81486247 3.93455701,6.81486247 C3.21261717,6.81486247 2.20475038,6.64329776 0.90607559,6.30129005 Z" id="Path-211" fill="#FFE017" fill-rule="nonzero" mask="url(#mask-4)"></path>
                        <polygon id="Path-212" fill="#FFE017" fill-rule="nonzero" mask="url(#mask-4)" points="0.411220824 2.84720643 1.0147591 2.23123943 1.89841955 3.11805881 1.29488127 3.73402581"></polygon>
                        <polygon id="Path-213" fill="#FFE017" fill-rule="nonzero" mask="url(#mask-4)" points="5.41796659 5.9238755 5.86688575 5.18489633 7.26870114 6.05712258 6.81978197 6.79610175"></polygon>
                    </g>
                    <path d="M3.95238095,0.0963855422 C6.08262213,0.0963855422 7.80952381,1.84409327 7.80952381,4 C7.80952381,6.15590673 6.08262213,7.90361446 3.95238095,7.90361446 C1.82213977,7.90361446 0.0952380952,6.15590673 0.0952380952,4 C0.0952380952,1.84409327 1.82213977,0.0963855422 3.95238095,0.0963855422 Z M4,0.674698795 C2.15905083,0.674698795 0.666666667,2.18506349 0.666666667,4.04819277 C0.666666667,5.91132205 2.15905083,7.42168675 4,7.42168675 C5.84094917,7.42168675 7.33333333,5.91132205 7.33333333,4.04819277 C7.33333333,2.18506349 5.84094917,0.674698795 4,0.674698795 Z" id="outer" fill="#F9E813" fill-rule="nonzero"></path>
                    <g id="center" transform="translate(0.523810, 0.253012)">
                        <path d="M1.30453728,1.33961958 L1.30453728,4.46997464 C1.51060448,5.70901356 2.20483573,6.32853302 3.38723103,6.32853302 C4.56962632,6.32853302 5.26385757,5.70901356 5.46992478,4.46997464 L5.46992478,1.33961958 L1.30453728,1.33961958 Z" id="Path" fill="#FFFFFF" fill-rule="nonzero"></path>
                        <path d="M0.518823476,0.746987952 L6.05563948,0.746987952 L6.05563948,4.45836177 L6.05100697,4.48404387 C5.78354362,5.96683207 4.83536137,6.74698795 3.28723148,6.74698795 C1.73910158,6.74698795 0.790919334,5.96683207 0.52345598,4.48404387 L0.518823476,4.45836177 L0.518823476,0.746987952 Z" id="Path-214" fill="#C51918" fill-rule="nonzero"></path>
                        <path d="M2.00000048,1.69999995 L2.00000048,2.59999995 L1.10000048,2.59999995 L1.10000048,1.69999995 L2.00000048,1.69999995 Z M5.50000095,1.69999995 L5.50000095,2.59999995 L4.60000095,2.59999995 L4.60000095,1.69999995 L5.50000095,1.69999995 Z" id="Combined-Shape" fill="#F9E813"></path>
                        <path d="M4.66340793,5.17162457 L4.66340793,6.07162457 L3.76340793,6.07162457 L3.76340793,5.17162457 L4.66340793,5.17162457 Z M5.54979528,3.71416272 L5.54979528,4.61416272 L4.64979528,4.61416272 L4.64979528,3.71416272 L5.54979528,3.71416272 Z M2.00000048,3.69999995 L2.00000048,4.59999995 L1.10000048,4.59999995 L1.10000048,3.69999995 L2.00000048,3.69999995 Z" id="Combined-Shape" fill="#F9E813"></path>
                        <polygon id="Rectangle-110" fill="#F9E813" points="1.80045583 5.16761251 2.70045583 5.16761251 2.70045583 6.06761251 1.80045583 6.06761251"></polygon>
                        <path d="M1.90229948,2.10233437 L4.87216148,2.10233437 L4.87216148,4.32278334 C4.72523849,5.08721623 4.23026149,5.46943268 3.38723048,5.46943268 C2.54419946,5.46943268 2.04922246,5.08721623 1.90229948,4.32278334 L1.90229948,2.10233437 Z" id="Path-214" fill="#F7FCFF" fill-rule="nonzero"></path>
                        <path d="M3.0952381,2.34939759 L3.75540425,2.34939759 L3.75540425,2.83013412 C3.72274496,2.99563705 3.61271727,3.07838852 3.42532118,3.07838852 C3.23792508,3.07838852 3.12789739,2.99563705 3.0952381,2.83013412 L3.0952381,2.34939759 Z" id="Path-214" fill="#013399" fill-rule="nonzero"></path>
                        <path d="M3.0952381,3.40963855 L3.75540425,3.40963855 L3.75540425,3.89037508 C3.72274496,4.05587802 3.61271727,4.13862948 3.42532118,4.13862948 C3.23792508,4.13862948 3.12789739,4.05587802 3.0952381,3.89037508 L3.0952381,3.40963855 Z" id="Path-214" fill="#013399" fill-rule="nonzero"></path>
                        <path d="M3.95238095,3.40963855 L4.61254711,3.40963855 L4.61254711,3.89037508 C4.57988782,4.05587802 4.46986013,4.13862948 4.28246403,4.13862948 C4.09506794,4.13862948 3.98504024,4.05587802 3.95238095,3.89037508 L3.95238095,3.40963855 Z" id="Path-214" fill="#013399" fill-rule="nonzero"></path>
                        <path d="M2.23809524,3.40963855 L2.8982614,3.40963855 L2.8982614,3.89037508 C2.86560211,4.05587802 2.75557441,4.13862948 2.56817832,4.13862948 C2.38078222,4.13862948 2.27075453,4.05587802 2.23809524,3.89037508 L2.23809524,3.40963855 Z" id="Path-214" fill="#013399" fill-rule="nonzero"></path>
                        <path d="M3.0952381,4.46987952 L3.75540425,4.46987952 L3.75540425,4.95061605 C3.72274496,5.11611898 3.61271727,5.19887045 3.42532118,5.19887045 C3.23792508,5.19887045 3.12789739,5.11611898 3.0952381,4.95061605 L3.0952381,4.46987952 Z" id="Path-214" fill="#013399" fill-rule="nonzero"></path>
                    </g>
                </g>
            </g>
        </g>
    </g>
</svg>