<?xml version="1.0" encoding="UTF-8"?>
<svg width="16px" height="12px" viewBox="0 0 16 12" version="1.1" xmlns="http://www.w3.org/2000/svg" xmlns:xlink="http://www.w3.org/1999/xlink">
    <title>flags/S/RS - Serbia</title>
    <defs>
        <rect id="path-1" x="0" y="0" width="16" height="12"></rect>
        <rect id="path-3" x="0" y="0" width="16" height="12"></rect>
    </defs>
    <g id="Symbols" stroke="none" stroke-width="1" fill="none" fill-rule="evenodd">
        <g id="flag">
            <mask id="mask-2" fill="white">
                <use xlink:href="#path-1"></use>
            </mask>
            <g id="mask"></g>
            <g id="contents" mask="url(#mask-2)">
                <mask id="mask-4" fill="white">
                    <use xlink:href="#path-3"></use>
                </mask>
                <use id="background" fill="#4857A1" xlink:href="#path-3"></use>
                <rect id="top" fill="#C51918" mask="url(#mask-4)" x="0" y="0" width="16" height="4"></rect>
                <rect id="bottom" fill="#F7FCFF" mask="url(#mask-4)" x="0" y="8" width="16" height="4"></rect>
                <g id="mark" mask="url(#mask-4)">
                    <g transform="translate(1.000000, -0.700000)">
                        <g id="crown" transform="translate(0.331263, 0.000000)">
                            <path d="M3.86454176,1.80370283 C3.91727871,1.81896421 3.97435684,1.83460874 4.03452945,1.85067556 C4.78809883,1.91151857 5.95584408,2.28791689 6.17560745,2.68056879 C6.27324214,2.855013 6.14978527,2.9984477 6.02051276,3.20700972 C5.76786129,3.61462536 5.62573928,3.93906882 5.36519611,4.08126011 L5.36995695,4.7202964 L2.00107972,4.69299926 L1.99612566,4.04827604 C1.76906503,3.89244445 1.62979066,3.58580369 1.39533011,3.20753637 C1.26605759,2.99897436 1.14260072,2.85553965 1.24023541,2.68109544 C1.40612715,2.38469616 2.15224806,2.09238016 2.83246618,1.93685482 C2.96037976,1.89436663 3.09429839,1.85429615 3.22711069,1.81586202 L3.28202862,1.85306994 C3.34088364,1.84486861 3.39778553,1.83819334 3.45217092,1.83315985 L3.53211751,2.00370283 L3.79593529,2.00424388 C3.90635627,2.31315758 3.96156676,2.55339291 3.96156676,2.72494986 C3.96156676,2.89650681 3.90635627,3.05321967 3.79593529,3.19508844 L3.79352203,3.37141332 C3.82256296,3.37338963 3.85314721,3.37586799 3.88527478,3.37884839 L3.89115515,3.33184903 C3.90612333,3.24696029 3.954772,3.18458287 3.99981501,3.19252517 C4.04485801,3.20046746 4.06923848,3.27572189 4.05427031,3.36061063 C4.05202508,3.37334395 4.04902204,3.38557075 4.04538703,3.3971297 C4.20259758,3.41552191 4.39167232,3.44457706 4.6098669,3.48310498 C4.86939947,3.01387568 5.32641951,2.56536976 5.08146809,2.33347042 C5.04748634,2.30129937 4.98566397,2.27139998 4.90591824,2.24373725 C4.64544711,2.18084901 4.36230189,2.13173976 4.0873305,2.10629055 L4.0873305,2.10629055 L4.08063697,2.07055429 C4.02762679,2.06245172 3.97672525,2.0548937 3.92920169,2.04787576 L3.92920169,2.04787576 Z M5.5107086,2.43271811 L5.53452116,2.48182696 C5.64671902,2.78903154 5.2716351,3.10115898 4.9869174,3.55291696 C5.01301853,3.55853085 5.04058029,3.56395574 5.06848877,3.56949342 L5.06937534,3.53828717 L5.06937534,3.53828717 L5.07806527,3.48954336 C5.10037503,3.4062822 5.15427513,3.34838216 5.19845452,3.36021999 C5.2426339,3.37205782 5.26036274,3.44915078 5.23805298,3.53241194 C5.23136005,3.55739028 5.22182399,3.58008613 5.2105602,3.5993013 C5.25914637,3.6079305 5.31064364,3.61853225 5.36318692,3.62947427 L5.36531702,3.72710722 C5.69862224,3.48788519 5.93194109,2.94920946 5.951969,2.7727118 C5.96391412,2.66744445 5.78748006,2.544873 5.5107086,2.43271811 Z M1.99244116,2.41812547 L1.90605232,2.45099508 C1.63122237,2.56210626 1.45307528,2.67807504 1.46387386,2.77323845 C1.48275257,2.93960864 1.6911471,3.42778563 1.99415947,3.68362118 L1.99430968,3.68021503 C2.10189498,3.65176178 2.2049802,3.62523836 2.30356533,3.60064474 C2.28876948,3.5837253 2.27841968,3.56209485 2.27064464,3.53816572 C2.2440079,3.45618627 2.25767771,3.37827111 2.301177,3.36413734 C2.3446763,3.35000356 2.40153279,3.40500334 2.42816953,3.48698278 C2.43349687,3.50337867 2.43721196,3.51961199 2.4393986,3.535205 L2.44083417,3.56694587 C2.46435658,3.56126885 2.48759908,3.55571186 2.51056166,3.55027491 C2.20403769,3.06901052 1.79775779,2.74607106 1.99244116,2.41812547 Z M3.38496589,2.08342795 L3.24948657,2.10105625 C3.09578395,2.12434317 2.93831396,2.15412965 2.78364116,2.18858977 C2.61164829,2.23044101 2.47293565,2.27865862 2.41503885,2.33347042 C2.17252129,2.56306558 2.61809475,3.00498424 2.87726554,3.46901398 C3.01124493,3.44119135 3.13165975,3.41928049 3.23935702,3.40282342 C3.23239351,3.38857581 3.22926034,3.37143957 3.22768625,3.3534477 C3.22017358,3.26757742 3.25102012,3.19473426 3.29658394,3.19074794 C3.34214777,3.18676162 3.38517477,3.25314169 3.39268744,3.33901197 C3.39403666,3.35443357 3.39414867,3.369435 3.39316041,3.38369288 C3.42713785,3.37810827 3.45894558,3.37494094 3.48917488,3.37245052 L3.48790391,3.17609294 C3.39230216,3.07540656 3.33709167,2.92021674 3.32227244,2.7105235 C3.30896617,2.52223872 3.32986399,2.31320688 3.38496589,2.08342795 Z" id="Combined-Shape" fill="#F6C540" fill-rule="nonzero"></path>
                            <g id="gems" transform="translate(0.000000, 1.545151)" fill="#FFFFFF" fill-rule="nonzero">
                                <path d="M1.47412008,1.74102564 C1.48829882,1.74102564 1.49979296,1.73019463 1.49979296,1.71683389 C1.49979296,1.70347316 1.48829882,1.69264214 1.47412008,1.69264214 C1.45994134,1.69264214 1.4484472,1.70347316 1.4484472,1.71683389 C1.4484472,1.73019463 1.45994134,1.74102564 1.47412008,1.74102564 Z M1.47412008,1.84871795 C1.39682309,1.84871795 1.33416149,1.78967144 1.33416149,1.71683389 C1.33416149,1.64399634 1.39682309,1.58494983 1.47412008,1.58494983 C1.55141708,1.58494983 1.61407867,1.64399634 1.61407867,1.71683389 C1.61407867,1.78967144 1.55141708,1.84871795 1.47412008,1.84871795 Z M1.39130435,1.50691193 C1.40548309,1.50691193 1.41697723,1.49608091 1.41697723,1.48272018 C1.41697723,1.46935944 1.40548309,1.45852843 1.39130435,1.45852843 C1.37712561,1.45852843 1.36563147,1.46935944 1.36563147,1.48272018 C1.36563147,1.49608091 1.37712561,1.50691193 1.39130435,1.50691193 Z M1.39130435,1.61460424 C1.31400735,1.61460424 1.25134576,1.55555773 1.25134576,1.48272018 C1.25134576,1.40988262 1.31400735,1.35083612 1.39130435,1.35083612 C1.46860134,1.35083612 1.53126294,1.40988262 1.53126294,1.48272018 C1.53126294,1.55555773 1.46860134,1.61460424 1.39130435,1.61460424 Z M1.30848861,1.35083612 C1.32266735,1.35083612 1.33416149,1.3400051 1.33416149,1.32664437 C1.33416149,1.31328364 1.32266735,1.30245262 1.30848861,1.30245262 C1.29430987,1.30245262 1.28281573,1.31328364 1.28281573,1.32664437 C1.28281573,1.3400051 1.29430987,1.35083612 1.30848861,1.35083612 Z M1.30848861,1.45852843 C1.23119162,1.45852843 1.16853002,1.39948192 1.16853002,1.32664437 C1.16853002,1.25380682 1.23119162,1.19476031 1.30848861,1.19476031 C1.38578561,1.19476031 1.4484472,1.25380682 1.4484472,1.32664437 C1.4484472,1.39948192 1.38578561,1.45852843 1.30848861,1.45852843 Z M1.22567288,1.19476031 C1.23985162,1.19476031 1.25134576,1.1839293 1.25134576,1.17056856 C1.25134576,1.15720783 1.23985162,1.14637681 1.22567288,1.14637681 C1.21149414,1.14637681 1.2,1.15720783 1.2,1.17056856 C1.2,1.1839293 1.21149414,1.19476031 1.22567288,1.19476031 Z M1.22567288,1.30245262 C1.14837588,1.30245262 1.08571429,1.24340612 1.08571429,1.17056856 C1.08571429,1.09773101 1.14837588,1.0386845 1.22567288,1.0386845 C1.30296987,1.0386845 1.36563147,1.09773101 1.36563147,1.17056856 C1.36563147,1.24340612 1.30296987,1.30245262 1.22567288,1.30245262 Z M1.39130435,1.0386845 C1.40548309,1.0386845 1.41697723,1.02785349 1.41697723,1.01449275 C1.41697723,1.00113202 1.40548309,0.990301003 1.39130435,0.990301003 C1.37712561,0.990301003 1.36563147,1.00113202 1.36563147,1.01449275 C1.36563147,1.02785349 1.37712561,1.0386845 1.39130435,1.0386845 Z M1.39130435,1.14637681 C1.31400735,1.14637681 1.25134576,1.08733031 1.25134576,1.01449275 C1.25134576,0.9416552 1.31400735,0.882608696 1.39130435,0.882608696 C1.46860134,0.882608696 1.53126294,0.9416552 1.53126294,1.01449275 C1.53126294,1.08733031 1.46860134,1.14637681 1.39130435,1.14637681 Z M1.55693582,0.911098149 C1.57111456,0.911098149 1.5826087,0.900267133 1.5826087,0.886906399 C1.5826087,0.873545664 1.57111456,0.862714648 1.55693582,0.862714648 C1.54275708,0.862714648 1.53126294,0.873545664 1.53126294,0.886906399 C1.53126294,0.900267133 1.54275708,0.911098149 1.55693582,0.911098149 Z M1.55693582,1.01879046 C1.47963882,1.01879046 1.41697723,0.959743953 1.41697723,0.886906399 C1.41697723,0.814068845 1.47963882,0.755022341 1.55693582,0.755022341 C1.63423281,0.755022341 1.69689441,0.814068845 1.69689441,0.886906399 C1.69689441,0.959743953 1.63423281,1.01879046 1.55693582,1.01879046 Z M1.72256729,0.804570792 C1.73674603,0.804570792 1.74824017,0.793739776 1.74824017,0.780379041 C1.74824017,0.767018307 1.73674603,0.756187291 1.72256729,0.756187291 C1.70838855,0.756187291 1.69689441,0.767018307 1.69689441,0.780379041 C1.69689441,0.793739776 1.70838855,0.804570792 1.72256729,0.804570792 Z M1.72256729,0.912263099 C1.64527029,0.912263099 1.5826087,0.853216595 1.5826087,0.780379041 C1.5826087,0.707541487 1.64527029,0.648494983 1.72256729,0.648494983 C1.79986428,0.648494983 1.86252588,0.707541487 1.86252588,0.780379041 C1.86252588,0.853216595 1.79986428,0.912263099 1.72256729,0.912263099 Z M1.91814075,0.727790626 C1.93231949,0.727790626 1.94381363,0.716959611 1.94381363,0.703598876 C1.94381363,0.690238141 1.93231949,0.679407126 1.91814075,0.679407126 C1.90396201,0.679407126 1.89246787,0.690238141 1.89246787,0.703598876 C1.89246787,0.716959611 1.90396201,0.727790626 1.91814075,0.727790626 Z M1.91814075,0.835482934 C1.84084376,0.835482934 1.77818216,0.77643643 1.77818216,0.703598876 C1.77818216,0.630761322 1.84084376,0.571714818 1.91814075,0.571714818 C1.99543775,0.571714818 2.05809934,0.630761322 2.05809934,0.703598876 C2.05809934,0.77643643 1.99543775,0.835482934 1.91814075,0.835482934 Z M2.13664596,0.648494983 C2.1508247,0.648494983 2.16231884,0.637663968 2.16231884,0.624303233 C2.16231884,0.610942498 2.1508247,0.600111483 2.13664596,0.600111483 C2.12246722,0.600111483 2.11097308,0.610942498 2.11097308,0.624303233 C2.11097308,0.637663968 2.12246722,0.648494983 2.13664596,0.648494983 Z M2.13664596,0.756187291 C2.05934897,0.756187291 1.99668737,0.697140787 1.99668737,0.624303233 C1.99668737,0.551465679 2.05934897,0.492419175 2.13664596,0.492419175 C2.21394296,0.492419175 2.27660455,0.551465679 2.27660455,0.624303233 C2.27660455,0.697140787 2.21394296,0.756187291 2.13664596,0.756187291 Z M2.38509317,0.587122502 C2.39927191,0.587122502 2.41076605,0.576291487 2.41076605,0.562930752 C2.41076605,0.549570017 2.39927191,0.538739002 2.38509317,0.538739002 C2.37091443,0.538739002 2.35942029,0.549570017 2.35942029,0.562930752 C2.35942029,0.576291487 2.37091443,0.587122502 2.38509317,0.587122502 Z M2.38509317,0.69481481 C2.30779617,0.69481481 2.24513458,0.635768306 2.24513458,0.562930752 C2.24513458,0.490093198 2.30779617,0.431046694 2.38509317,0.431046694 C2.46239016,0.431046694 2.52505176,0.490093198 2.52505176,0.562930752 C2.52505176,0.635768306 2.46239016,0.69481481 2.38509317,0.69481481 Z M2.63354037,0.492419175 C2.64771911,0.492419175 2.65921325,0.481588159 2.65921325,0.468227425 C2.65921325,0.45486669 2.64771911,0.444035674 2.63354037,0.444035674 C2.61936163,0.444035674 2.60786749,0.45486669 2.60786749,0.468227425 C2.60786749,0.481588159 2.61936163,0.492419175 2.63354037,0.492419175 Z M2.63354037,0.600111483 C2.55624338,0.600111483 2.49358178,0.541064979 2.49358178,0.468227425 C2.49358178,0.395389871 2.55624338,0.336343367 2.63354037,0.336343367 C2.71083737,0.336343367 2.77349896,0.395389871 2.77349896,0.468227425 C2.77349896,0.541064979 2.71083737,0.600111483 2.63354037,0.600111483 Z M2.84009207,0.462136789 C2.85427081,0.462136789 2.86576495,0.451305773 2.86576495,0.437945038 C2.86576495,0.424584304 2.85427081,0.413753288 2.84009207,0.413753288 C2.82591333,0.413753288 2.81441919,0.424584304 2.81441919,0.437945038 C2.81441919,0.451305773 2.82591333,0.462136789 2.84009207,0.462136789 Z M2.84009207,0.569829096 C2.76279507,0.569829096 2.70013348,0.510782592 2.70013348,0.437945038 C2.70013348,0.365107484 2.76279507,0.30606098 2.84009207,0.30606098 C2.91738906,0.30606098 2.98005066,0.365107484 2.98005066,0.437945038 C2.98005066,0.510782592 2.91738906,0.569829096 2.84009207,0.569829096 Z M3.04761905,0.414381271 C3.06179779,0.414381271 3.07329193,0.403550255 3.07329193,0.390189521 C3.07329193,0.376828786 3.06179779,0.36599777 3.04761905,0.36599777 C3.03344031,0.36599777 3.02194617,0.376828786 3.02194617,0.390189521 C3.02194617,0.403550255 3.03344031,0.414381271 3.04761905,0.414381271 Z M3.04761905,0.522073579 C2.97032205,0.522073579 2.90766046,0.463027075 2.90766046,0.390189521 C2.90766046,0.317351967 2.97032205,0.258305463 3.04761905,0.258305463 C3.12491604,0.258305463 3.18757764,0.317351967 3.18757764,0.390189521 C3.18757764,0.463027075 3.12491604,0.522073579 3.04761905,0.522073579 Z M2.13664596,0.804570792 C2.1508247,0.804570792 2.16231884,0.793739776 2.16231884,0.780379041 C2.16231884,0.767018307 2.1508247,0.756187291 2.13664596,0.756187291 C2.12246722,0.756187291 2.11097308,0.767018307 2.11097308,0.780379041 C2.11097308,0.793739776 2.12246722,0.804570792 2.13664596,0.804570792 Z M2.13664596,0.912263099 C2.05934897,0.912263099 1.99668737,0.853216595 1.99668737,0.780379041 C1.99668737,0.707541487 2.05934897,0.648494983 2.13664596,0.648494983 C2.21394296,0.648494983 2.27660455,0.707541487 2.27660455,0.780379041 C2.27660455,0.853216595 2.21394296,0.912263099 2.13664596,0.912263099 Z M2.13664596,0.9606466 C2.1508247,0.9606466 2.16231884,0.949815584 2.16231884,0.936454849 C2.16231884,0.923094115 2.1508247,0.912263099 2.13664596,0.912263099 C2.12246722,0.912263099 2.11097308,0.923094115 2.11097308,0.936454849 C2.11097308,0.949815584 2.12246722,0.9606466 2.13664596,0.9606466 Z M2.13664596,1.06833891 C2.05934897,1.06833891 1.99668737,1.0092924 1.99668737,0.936454849 C1.99668737,0.863617296 2.05934897,0.804570792 2.13664596,0.804570792 C2.21394296,0.804570792 2.27660455,0.863617296 2.27660455,0.936454849 C2.27660455,1.0092924 2.21394296,1.06833891 2.13664596,1.06833891 Z M2.2194617,1.19476031 C2.23364044,1.19476031 2.24513458,1.1839293 2.24513458,1.17056856 C2.24513458,1.15720783 2.23364044,1.14637681 2.2194617,1.14637681 C2.20528296,1.14637681 2.19378882,1.15720783 2.19378882,1.17056856 C2.19378882,1.1839293 2.20528296,1.19476031 2.2194617,1.19476031 Z M2.2194617,1.30245262 C2.1421647,1.30245262 2.07950311,1.24340612 2.07950311,1.17056856 C2.07950311,1.09773101 2.1421647,1.0386845 2.2194617,1.0386845 C2.29675869,1.0386845 2.35942029,1.09773101 2.35942029,1.17056856 C2.35942029,1.24340612 2.29675869,1.30245262 2.2194617,1.30245262 Z M2.30227743,1.35083612 C2.31645617,1.35083612 2.32795031,1.3400051 2.32795031,1.32664437 C2.32795031,1.31328364 2.31645617,1.30245262 2.30227743,1.30245262 C2.28809869,1.30245262 2.27660455,1.31328364 2.27660455,1.32664437 C2.27660455,1.3400051 2.28809869,1.35083612 2.30227743,1.35083612 Z M2.30227743,1.45852843 C2.22498044,1.45852843 2.16231884,1.39948192 2.16231884,1.32664437 C2.16231884,1.25380682 2.22498044,1.19476031 2.30227743,1.19476031 C2.37957443,1.19476031 2.44223602,1.25380682 2.44223602,1.32664437 C2.44223602,1.39948192 2.37957443,1.45852843 2.30227743,1.45852843 Z M2.38509317,1.50691193 C2.39927191,1.50691193 2.41076605,1.49608091 2.41076605,1.48272018 C2.41076605,1.46935944 2.39927191,1.45852843 2.38509317,1.45852843 C2.37091443,1.45852843 2.35942029,1.46935944 2.35942029,1.48272018 C2.35942029,1.49608091 2.37091443,1.50691193 2.38509317,1.50691193 Z M2.38509317,1.61460424 C2.30779617,1.61460424 2.24513458,1.55555773 2.24513458,1.48272018 C2.24513458,1.40988262 2.30779617,1.35083612 2.38509317,1.35083612 C2.46239016,1.35083612 2.52505176,1.40988262 2.52505176,1.48272018 C2.52505176,1.55555773 2.46239016,1.61460424 2.38509317,1.61460424 Z M6.02898551,1.74102564 C6.04316425,1.74102564 6.05465839,1.73019463 6.05465839,1.71683389 C6.05465839,1.70347316 6.04316425,1.69264214 6.02898551,1.69264214 C6.01480677,1.69264214 6.00331263,1.70347316 6.00331263,1.71683389 C6.00331263,1.73019463 6.01480677,1.74102564 6.02898551,1.74102564 Z M6.02898551,1.84871795 C5.95168851,1.84871795 5.88902692,1.78967144 5.88902692,1.71683389 C5.88902692,1.64399634 5.95168851,1.58494983 6.02898551,1.58494983 C6.1062825,1.58494983 6.1689441,1.64399634 6.1689441,1.71683389 C6.1689441,1.78967144 6.1062825,1.84871795 6.02898551,1.84871795 Z M6.11180124,1.50691193 C6.12597998,1.50691193 6.13747412,1.49608091 6.13747412,1.48272018 C6.13747412,1.46935944 6.12597998,1.45852843 6.11180124,1.45852843 C6.0976225,1.45852843 6.08612836,1.46935944 6.08612836,1.48272018 C6.08612836,1.49608091 6.0976225,1.50691193 6.11180124,1.50691193 Z M6.11180124,1.61460424 C6.03450425,1.61460424 5.97184265,1.55555773 5.97184265,1.48272018 C5.97184265,1.40988262 6.03450425,1.35083612 6.11180124,1.35083612 C6.18909824,1.35083612 6.25175983,1.40988262 6.25175983,1.48272018 C6.25175983,1.55555773 6.18909824,1.61460424 6.11180124,1.61460424 Z M6.19461698,1.35083612 C6.20879572,1.35083612 6.22028986,1.3400051 6.22028986,1.32664437 C6.22028986,1.31328364 6.20879572,1.30245262 6.19461698,1.30245262 C6.18043824,1.30245262 6.1689441,1.31328364 6.1689441,1.32664437 C6.1689441,1.3400051 6.18043824,1.35083612 6.19461698,1.35083612 Z M6.19461698,1.45852843 C6.11731998,1.45852843 6.05465839,1.39948192 6.05465839,1.32664437 C6.05465839,1.25380682 6.11731998,1.19476031 6.19461698,1.19476031 C6.27191397,1.19476031 6.33457557,1.25380682 6.33457557,1.32664437 C6.33457557,1.39948192 6.27191397,1.45852843 6.19461698,1.45852843 Z M6.27743271,1.19476031 C6.29161145,1.19476031 6.30310559,1.1839293 6.30310559,1.17056856 C6.30310559,1.15720783 6.29161145,1.14637681 6.27743271,1.14637681 C6.26325397,1.14637681 6.25175983,1.15720783 6.25175983,1.17056856 C6.25175983,1.1839293 6.26325397,1.19476031 6.27743271,1.19476031 Z M6.27743271,1.30245262 C6.20013572,1.30245262 6.13747412,1.24340612 6.13747412,1.17056856 C6.13747412,1.09773101 6.20013572,1.0386845 6.27743271,1.0386845 C6.35472971,1.0386845 6.4173913,1.09773101 6.4173913,1.17056856 C6.4173913,1.24340612 6.35472971,1.30245262 6.27743271,1.30245262 Z M6.11180124,1.0386845 C6.12597998,1.0386845 6.13747412,1.02785349 6.13747412,1.01449275 C6.13747412,1.00113202 6.12597998,0.990301003 6.11180124,0.990301003 C6.0976225,0.990301003 6.08612836,1.00113202 6.08612836,1.01449275 C6.08612836,1.02785349 6.0976225,1.0386845 6.11180124,1.0386845 Z M6.11180124,1.14637681 C6.03450425,1.14637681 5.97184265,1.08733031 5.97184265,1.01449275 C5.97184265,0.9416552 6.03450425,0.882608696 6.11180124,0.882608696 C6.18909824,0.882608696 6.25175983,0.9416552 6.25175983,1.01449275 C6.25175983,1.08733031 6.18909824,1.14637681 6.11180124,1.14637681 Z M5.94616977,0.911098149 C5.96034851,0.911098149 5.97184265,0.900267133 5.97184265,0.886906399 C5.97184265,0.873545664 5.96034851,0.862714648 5.94616977,0.862714648 C5.93199103,0.862714648 5.92049689,0.873545664 5.92049689,0.886906399 C5.92049689,0.900267133 5.93199103,0.911098149 5.94616977,0.911098149 Z M5.94616977,1.01879046 C5.86887278,1.01879046 5.80621118,0.959743953 5.80621118,0.886906399 C5.80621118,0.814068845 5.86887278,0.755022341 5.94616977,0.755022341 C6.02346677,0.755022341 6.08612836,0.814068845 6.08612836,0.886906399 C6.08612836,0.959743953 6.02346677,1.01879046 5.94616977,1.01879046 Z M5.7805383,0.804570792 C5.79471704,0.804570792 5.80621118,0.793739776 5.80621118,0.780379041 C5.80621118,0.767018307 5.79471704,0.756187291 5.7805383,0.756187291 C5.76635956,0.756187291 5.75486542,0.767018307 5.75486542,0.780379041 C5.75486542,0.793739776 5.76635956,0.804570792 5.7805383,0.804570792 Z M5.7805383,0.912263099 C5.70324131,0.912263099 5.64057971,0.853216595 5.64057971,0.780379041 C5.64057971,0.707541487 5.70324131,0.648494983 5.7805383,0.648494983 C5.8578353,0.648494983 5.92049689,0.707541487 5.92049689,0.780379041 C5.92049689,0.853216595 5.8578353,0.912263099 5.7805383,0.912263099 Z M5.58496484,0.727790626 C5.59914358,0.727790626 5.61063772,0.716959611 5.61063772,0.703598876 C5.61063772,0.690238141 5.59914358,0.679407126 5.58496484,0.679407126 C5.5707861,0.679407126 5.55929196,0.690238141 5.55929196,0.703598876 C5.55929196,0.716959611 5.5707861,0.727790626 5.58496484,0.727790626 Z M5.58496484,0.835482934 C5.50766784,0.835482934 5.44500625,0.77643643 5.44500625,0.703598876 C5.44500625,0.630761322 5.50766784,0.571714818 5.58496484,0.571714818 C5.66226183,0.571714818 5.72492343,0.630761322 5.72492343,0.703598876 C5.72492343,0.77643643 5.66226183,0.835482934 5.58496484,0.835482934 Z M5.36645963,0.648494983 C5.38063837,0.648494983 5.39213251,0.637663968 5.39213251,0.624303233 C5.39213251,0.610942498 5.38063837,0.600111483 5.36645963,0.600111483 C5.35228089,0.600111483 5.34078675,0.610942498 5.34078675,0.624303233 C5.34078675,0.637663968 5.35228089,0.648494983 5.36645963,0.648494983 Z M5.36645963,0.756187291 C5.28916263,0.756187291 5.22650104,0.697140787 5.22650104,0.624303233 C5.22650104,0.551465679 5.28916263,0.492419175 5.36645963,0.492419175 C5.44375662,0.492419175 5.50641822,0.551465679 5.50641822,0.624303233 C5.50641822,0.697140787 5.44375662,0.756187291 5.36645963,0.756187291 Z M5.11801242,0.587122502 C5.13219116,0.587122502 5.1436853,0.576291487 5.1436853,0.562930752 C5.1436853,0.549570017 5.13219116,0.538739002 5.11801242,0.538739002 C5.10383368,0.538739002 5.09233954,0.549570017 5.09233954,0.562930752 C5.09233954,0.576291487 5.10383368,0.587122502 5.11801242,0.587122502 Z M5.11801242,0.69481481 C5.04071543,0.69481481 4.97805383,0.635768306 4.97805383,0.562930752 C4.97805383,0.490093198 5.04071543,0.431046694 5.11801242,0.431046694 C5.19530942,0.431046694 5.25797101,0.490093198 5.25797101,0.562930752 C5.25797101,0.635768306 5.19530942,0.69481481 5.11801242,0.69481481 Z M4.86956522,0.492419175 C4.88374396,0.492419175 4.8952381,0.481588159 4.8952381,0.468227425 C4.8952381,0.45486669 4.88374396,0.444035674 4.86956522,0.444035674 C4.85538648,0.444035674 4.84389234,0.45486669 4.84389234,0.468227425 C4.84389234,0.481588159 4.85538648,0.492419175 4.86956522,0.492419175 Z M4.86956522,0.600111483 C4.79226822,0.600111483 4.72960663,0.541064979 4.72960663,0.468227425 C4.72960663,0.395389871 4.79226822,0.336343367 4.86956522,0.336343367 C4.94686221,0.336343367 5.00952381,0.395389871 5.00952381,0.468227425 C5.00952381,0.541064979 4.94686221,0.600111483 4.86956522,0.600111483 Z M4.66301352,0.462136789 C4.67719226,0.462136789 4.6886864,0.451305773 4.6886864,0.437945038 C4.6886864,0.424584304 4.67719226,0.413753288 4.66301352,0.413753288 C4.64883478,0.413753288 4.63734065,0.424584304 4.63734065,0.437945038 C4.63734065,0.451305773 4.64883478,0.462136789 4.66301352,0.462136789 Z M4.66301352,0.569829096 C4.58571653,0.569829096 4.52305493,0.510782592 4.52305493,0.437945038 C4.52305493,0.365107484 4.58571653,0.30606098 4.66301352,0.30606098 C4.74031052,0.30606098 4.80297212,0.365107484 4.80297212,0.437945038 C4.80297212,0.510782592 4.74031052,0.569829096 4.66301352,0.569829096 Z M4.45548654,0.414381271 C4.46966528,0.414381271 4.48115942,0.403550255 4.48115942,0.390189521 C4.48115942,0.376828786 4.46966528,0.36599777 4.45548654,0.36599777 C4.4413078,0.36599777 4.42981366,0.376828786 4.42981366,0.390189521 C4.42981366,0.403550255 4.4413078,0.414381271 4.45548654,0.414381271 Z M4.45548654,0.522073579 C4.37818955,0.522073579 4.31552795,0.463027075 4.31552795,0.390189521 C4.31552795,0.317351967 4.37818955,0.258305463 4.45548654,0.258305463 C4.53278354,0.258305463 4.59544513,0.317351967 4.59544513,0.390189521 C4.59544513,0.463027075 4.53278354,0.522073579 4.45548654,0.522073579 Z M5.36645963,0.804570792 C5.38063837,0.804570792 5.39213251,0.793739776 5.39213251,0.780379041 C5.39213251,0.767018307 5.38063837,0.756187291 5.36645963,0.756187291 C5.35228089,0.756187291 5.34078675,0.767018307 5.34078675,0.780379041 C5.34078675,0.793739776 5.35228089,0.804570792 5.36645963,0.804570792 Z M5.36645963,0.912263099 C5.28916263,0.912263099 5.22650104,0.853216595 5.22650104,0.780379041 C5.22650104,0.707541487 5.28916263,0.648494983 5.36645963,0.648494983 C5.44375662,0.648494983 5.50641822,0.707541487 5.50641822,0.780379041 C5.50641822,0.853216595 5.44375662,0.912263099 5.36645963,0.912263099 Z M5.36645963,0.9606466 C5.38063837,0.9606466 5.39213251,0.949815584 5.39213251,0.936454849 C5.39213251,0.923094115 5.38063837,0.912263099 5.36645963,0.912263099 C5.35228089,0.912263099 5.34078675,0.923094115 5.34078675,0.936454849 C5.34078675,0.949815584 5.35228089,0.9606466 5.36645963,0.9606466 Z M5.36645963,1.06833891 C5.28916263,1.06833891 5.22650104,1.0092924 5.22650104,0.936454849 C5.22650104,0.863617296 5.28916263,0.804570792 5.36645963,0.804570792 C5.44375662,0.804570792 5.50641822,0.863617296 5.50641822,0.936454849 C5.50641822,1.0092924 5.44375662,1.06833891 5.36645963,1.06833891 Z M5.28364389,1.19476031 C5.29782263,1.19476031 5.30931677,1.1839293 5.30931677,1.17056856 C5.30931677,1.15720783 5.29782263,1.14637681 5.28364389,1.14637681 C5.26946515,1.14637681 5.25797101,1.15720783 5.25797101,1.17056856 C5.25797101,1.1839293 5.26946515,1.19476031 5.28364389,1.19476031 Z M5.28364389,1.30245262 C5.2063469,1.30245262 5.1436853,1.24340612 5.1436853,1.17056856 C5.1436853,1.09773101 5.2063469,1.0386845 5.28364389,1.0386845 C5.36094089,1.0386845 5.42360248,1.09773101 5.42360248,1.17056856 C5.42360248,1.24340612 5.36094089,1.30245262 5.28364389,1.30245262 Z M5.20082816,1.35083612 C5.2150069,1.35083612 5.22650104,1.3400051 5.22650104,1.32664437 C5.22650104,1.31328364 5.2150069,1.30245262 5.20082816,1.30245262 C5.18664942,1.30245262 5.17515528,1.31328364 5.17515528,1.32664437 C5.17515528,1.3400051 5.18664942,1.35083612 5.20082816,1.35083612 Z M5.20082816,1.45852843 C5.12353116,1.45852843 5.06086957,1.39948192 5.06086957,1.32664437 C5.06086957,1.25380682 5.12353116,1.19476031 5.20082816,1.19476031 C5.27812515,1.19476031 5.34078675,1.25380682 5.34078675,1.32664437 C5.34078675,1.39948192 5.27812515,1.45852843 5.20082816,1.45852843 Z M5.11801242,1.50691193 C5.13219116,1.50691193 5.1436853,1.49608091 5.1436853,1.48272018 C5.1436853,1.46935944 5.13219116,1.45852843 5.11801242,1.45852843 C5.10383368,1.45852843 5.09233954,1.46935944 5.09233954,1.48272018 C5.09233954,1.49608091 5.10383368,1.50691193 5.11801242,1.50691193 Z M5.11801242,1.61460424 C5.04071543,1.61460424 4.97805383,1.55555773 4.97805383,1.48272018 C4.97805383,1.40988262 5.04071543,1.35083612 5.11801242,1.35083612 C5.19530942,1.35083612 5.25797101,1.40988262 5.25797101,1.48272018 C5.25797101,1.55555773 5.19530942,1.61460424 5.11801242,1.61460424 Z" id="Combined-Shape"></path>
                            </g>
                            <path d="M3.678751,1.15496098 L3.8926701,1.20172927 L3.80431054,1.53496098 L4.18716311,1.62523888 L4.13884195,1.82666992 L3.75131054,1.73496098 L3.65384311,2.10837453 L3.43992402,2.06160624 L3.53831054,1.68496098 L3.15031054,1.59386248 L3.1986317,1.39243144 L3.59131054,1.48496098 L3.678751,1.15496098 Z" id="Combined-Shape" fill="#F6C540" fill-rule="nonzero" transform="translate(3.668737, 1.643478) rotate(-14.000000) translate(-3.668737, -1.643478) "></path>
                        </g>
                        <g id="bird" transform="translate(0.000000, 4.666667)">
                            <path d="M1.019856,0.0363304684 L6.96271314,0.0363304684 L6.96271314,4.7928066 C6.84290196,6.37233814 5.85242577,7.16210392 3.99128457,7.16210392 C2.13014338,7.16210392 1.13966718,6.37233814 1.019856,4.7928066 L1.019856,0.0363304684 Z" id="Path-216" fill="#C51918"></path>
                            <g id="left" transform="translate(2.385093, 0.156076)"></g>
                            <g id="right" transform="translate(1.142857, 0.156076)">
                                <g id="beak" transform="translate(1.242236, 0.000000)" fill="#E8AA00">
                                    <path d="M0.428391571,0.0448528862 C0.373897492,0.0448528862 0.290010937,0.0817337595 0.178816044,0.1234955 C0.0676211516,0.165257241 -0.0491518752,0.255423322 0.0648320845,0.345733808 C0.178816044,0.436044294 0.341991791,0.634253717 0.341991791,0.5601454 C0.341991791,0.486037083 0.536919993,0.414181474 0.536919993,0.450109279 C0.536919993,0.486037083 0.476571938,0.5601454 0.63487448,0.5601454 C0.793177021,0.5601454 0.874734246,0.604217611 0.705827119,0.604217611 C0.536919993,0.604217611 0.518566697,0.677026288 0.408794233,0.677026288 C0.299021769,0.677026288 0.0648320845,0.603668874 0.0648320845,0.5601454 C0.0648320845,0.516621926 0.200454301,0.774123779 0.341991791,0.774123779 C0.483529281,0.774123779 0.56392184,0.899409001 0.63487448,0.83676639 C0.705827119,0.774123779 0.697429269,0.774123779 0.81205686,0.774123779 C0.888475254,0.774123779 0.912739115,0.689791634 0.884848445,0.521127342 C0.616873248,0.203611038 0.464720957,0.0448528862 0.428391571,0.0448528862 Z" id="Path-220"></path>
                                    <path d="M2.66441642,0.0448528862 C2.60992234,0.0448528862 2.52603578,0.0817337595 2.41484089,0.1234955 C2.303646,0.165257241 2.18687297,0.255423322 2.30085693,0.345733808 C2.41484089,0.436044294 2.57801664,0.634253717 2.57801664,0.5601454 C2.57801664,0.486037083 2.77294484,0.414181474 2.77294484,0.450109279 C2.77294484,0.486037083 2.71259678,0.5601454 2.87089932,0.5601454 C3.02920187,0.5601454 3.11075909,0.604217611 2.94185196,0.604217611 C2.77294484,0.604217611 2.75459154,0.677026288 2.64481908,0.677026288 C2.53504661,0.677026288 2.30085693,0.603668874 2.30085693,0.5601454 C2.30085693,0.516621926 2.43647915,0.774123779 2.57801664,0.774123779 C2.71955413,0.774123779 2.79994668,0.899409001 2.87089932,0.83676639 C2.94185196,0.774123779 2.93345411,0.774123779 3.0480817,0.774123779 C3.1245001,0.774123779 3.14876396,0.689791634 3.12087329,0.521127342 C2.85289809,0.203611038 2.7007458,0.0448528862 2.66441642,0.0448528862 Z" id="Path-220" transform="translate(2.693103, 0.449580) scale(-1, 1) translate(-2.693103, -0.449580) "></path>
                                </g>
                                <path d="M1.7680285,0.0317987322 C1.91939574,0.0317987322 2.20854785,0.0986472483 2.29497828,0.176722947 C2.38140871,0.254798645 2.47203806,0.271452206 2.60520835,0.271452206 C2.73837864,0.271452206 2.65623908,0.355957637 2.53496064,0.413026239 C2.64902633,0.433576049 2.72223757,0.558045037 2.75459435,0.786433201 C2.81373892,0.558045037 2.90098235,0.433576049 3.01504804,0.413026239 C2.8937696,0.355957637 2.81163004,0.271452206 2.94480033,0.271452206 C3.07797062,0.271452206 3.16859998,0.254798645 3.2550304,0.176722947 C3.34146083,0.0986472483 3.63061294,0.0317987322 3.78198018,0.0317987322 L3.88901823,0.0313939427 C3.95862628,0.0326732305 3.97758542,0.0428788923 3.93334742,0.0986472483 C3.87141422,0.176722947 3.61206164,0.401601772 3.55373642,0.561956634 C3.4954112,0.722311495 3.53464204,0.697704992 3.47735889,0.833907184 C3.42007575,0.970109375 3.24338375,1.11226103 3.42007575,1.29198669 C3.59676774,1.47171236 3.76634915,1.74226836 3.83558544,1.74226836 L3.93334742,1.74226836 L3.93334742,1.74226836 C4.51541301,1.12228778 4.76847217,0.728850533 4.6925249,0.561956634 C4.578604,0.311615785 4.28402897,0.0986472483 4.48827693,0.0986472483 C4.6925249,0.0986472483 5.50673357,0.585142965 5.50673357,1.68211272 C5.50673357,2.77908248 5.43152427,3.40296764 5.25694255,3.84005084 C5.08236083,4.27713404 5.39793627,4.6957397 5.39793627,4.89076714 C5.39793627,5.08579459 5.07736374,4.91490715 5.07736374,4.79277658 C5.07736374,4.67064601 4.88329971,5.18771908 4.88329971,5.03924311 C4.88329971,4.89076714 4.7200405,4.72738994 4.7200405,4.63535987 C4.7200405,4.54332981 4.48827693,4.66796379 4.48827693,4.51948782 C4.48827693,4.37101186 4.32628281,4.53730971 4.32628281,4.13354568 C4.32628281,3.77580931 4.18032077,4.34844808 4.12747471,4.13354568 C4.12180857,4.11050392 3.99077538,3.91249746 3.94725504,3.81776221 L3.93334742,3.7755395 C3.98846309,4.00213882 4.13839297,4.24375619 4.23233789,4.3566804 C4.29496783,4.4319632 4.38028085,4.55131822 4.48827693,4.71474545 C4.38755969,4.76766916 4.30224667,4.76766916 4.23233789,4.71474545 C4.12747471,4.63535987 4.19767912,4.8318285 4.12747471,4.8318285 C4.09939294,4.8318285 4.07368262,4.83806518 4.05293966,4.84055519 L4.03927511,4.84023861 L4.0486172,4.86133212 C4.0797704,4.94458635 4.09924116,5.05312529 4.00188739,4.97013899 C3.83963112,4.8318285 3.78198018,4.87080772 3.78198018,4.79277658 C3.78198018,4.71474545 3.72466639,4.8318285 3.65644152,4.8318285 C3.58821664,4.8318285 3.61022269,4.68229525 3.55373642,4.51948782 C3.49725015,4.3566804 3.47726694,4.26104789 3.42007575,4.44820388 C3.36288455,4.63535987 3.20225267,4.69351801 3.2550304,4.8318285 C3.30780813,4.97013899 3.42007575,5.18807405 3.42007575,5.34966253 C3.42007575,5.51125101 3.75914661,5.80023301 3.65644152,5.87734494 C3.55373642,5.95445687 3.67801847,6.21415367 3.78198018,6.34738113 C3.78198018,6.68100491 2.9821952,6.76522492 2.75368521,6.78247913 L2.69338396,6.78637038 L2.69338396,6.78637038 L2.69327511,6.78123861 C2.54582319,6.78637038 1.78481276,6.52272883 1.76005502,6.37839639 L1.7680285,6.34738113 C1.87199021,6.21415367 1.99627226,5.95445687 1.89356717,5.87734494 C1.79086207,5.80023301 2.12993294,5.51125101 2.12993294,5.34966253 C2.12993294,5.18807405 2.24220055,4.97013899 2.29497828,4.8318285 C2.34775601,4.69351801 2.18712414,4.63535987 2.12993294,4.44820388 C2.07274174,4.26104789 2.05275853,4.3566804 1.99627226,4.51948782 C1.93978599,4.68229525 1.96179204,4.8318285 1.89356717,4.8318285 C1.8253423,4.8318285 1.7680285,4.71474545 1.7680285,4.79277658 C1.7680285,4.87080772 1.71037757,4.8318285 1.54812129,4.97013899 C1.45076753,5.05312529 1.47023828,4.94458635 1.50139148,4.86133212 L1.51027511,4.83923861 L1.49706902,4.84055519 C1.48669754,4.83931018 1.47508422,4.83712851 1.46255355,4.83525809 L1.42253398,4.8318285 C1.35232956,4.8318285 1.42253398,4.63535987 1.3176708,4.71474545 C1.24776201,4.76766916 1.16244899,4.76766916 1.06173175,4.71474545 C1.16972783,4.55131822 1.25504085,4.4319632 1.3176708,4.3566804 C1.41161572,4.24375619 1.56154559,4.00213882 1.61666126,3.7755395 L1.61327511,3.78523861 L1.60275364,3.81776221 C1.56793737,3.89355041 1.47711287,4.03543218 1.43927467,4.10095075 L1.42253398,4.13354568 C1.36968791,4.34844808 1.22372588,3.77580931 1.22372588,4.13354568 C1.22372588,4.53730971 1.06173175,4.37101186 1.06173175,4.51948782 C1.06173175,4.66796379 0.829968185,4.54332981 0.829968185,4.63535987 C0.829968185,4.72738994 0.666708972,4.89076714 0.666708972,5.03924311 C0.666708972,5.18771908 0.47264494,4.67064601 0.47264494,4.79277658 C0.47264494,4.91490715 0.152072414,5.08579459 0.152072414,4.89076714 C0.152072414,4.6957397 0.467647855,4.27713404 0.293066132,3.84005084 C0.118484409,3.40296764 0.0432751083,2.77908248 0.0432751083,1.68211272 C0.0432751083,0.585142965 0.857483782,0.0986472483 1.06173175,0.0986472483 C1.26597971,0.0986472483 0.971404682,0.311615785 0.857483782,0.561956634 C0.781536516,0.728850533 1.03459568,1.12228778 1.61666126,1.74226836 L1.61666126,1.74226836 L1.71442325,1.74226836 C1.78365954,1.74226836 1.95324094,1.47171236 2.12993294,1.29198669 C2.30662493,1.11226103 2.12993294,0.970109375 2.07264979,0.833907184 C2.01536664,0.697704992 2.05459748,0.722311495 1.99627226,0.561956634 C1.93794705,0.401601772 1.67859446,0.176722947 1.61666126,0.0986472483 C1.57242326,0.0428788923 1.5913824,0.0326732305 1.66099045,0.0313939427 Z" id="Combined-Shape" fill="#F7FCFF"></path>
                            </g>
                            <g id="small-shield" transform="translate(2.881988, 1.950948)">
                                <path d="M0.00200689589,0.0239536582 L2.21658653,0.0239536582 L2.21658653,1.67330655 C2.05809399,2.22102399 1.68899738,2.49488271 1.10929671,2.49488271 C0.529596044,2.49488271 0.160499438,2.22102399 0.00200689589,1.67330655 L0.00200689589,0.0239536582 Z" id="small" fill="#C51918"></path>
                                <path d="M1.40786749,0 L1.407,0.946 L2.23602484,0.946859903 L2.23602484,1.28502415 L1.407,1.285 L1.40786749,2.50241546 L0.82815735,2.50241546 L0.828,1.285 L0,1.28502415 L0,0.946859903 L0.828,0.946 L0.82815735,0 L1.40786749,0 Z" id="Combined-Shape" fill="#F7FCFF"></path>
                            </g>
                            <path d="M2.31877321,5.7135016 C2.72904188,5.7135016 3.10236245,5.72323119 3.10236245,5.42584709 C3.10236245,5.12846299 2.79892869,5.03719644 2.38866002,5.03719644 C1.97839135,5.03719644 1.61664816,5.12846299 1.61664816,5.42584709 C1.61664816,5.72323119 1.90850454,5.7135016 2.31877321,5.7135016 Z" id="Oval" fill="#E8AA00" transform="translate(2.359505, 5.575658) rotate(-49.000000) translate(-2.359505, -5.575658) "></path>
                            <path d="M5.40448751,5.7135016 C5.81475619,5.7135016 6.18807675,5.72323119 6.18807675,5.42584709 C6.18807675,5.12846299 5.884643,5.03719644 5.47437432,5.03719644 C5.06410565,5.03719644 4.70236247,5.12846299 4.70236247,5.42584709 C4.70236247,5.72323119 4.99421884,5.7135016 5.40448751,5.7135016 Z" id="Oval" fill="#E8AA00" transform="translate(5.445220, 5.575658) scale(-1, 1) rotate(-49.000000) translate(-5.445220, -5.575658) "></path>
                        </g>
                    </g>
                </g>
            </g>
        </g>
    </g>
</svg>