<?xml version="1.0" encoding="UTF-8"?>
<svg width="16px" height="12px" viewBox="0 0 16 12" version="1.1" xmlns="http://www.w3.org/2000/svg" xmlns:xlink="http://www.w3.org/1999/xlink">
    <title>flags/S/RW - Rwanda</title>
    <defs>
        <rect id="path-1" x="0" y="0" width="16" height="12"></rect>
        <rect id="path-3" x="0" y="0" width="16" height="12"></rect>
    </defs>
    <g id="Symbols" stroke="none" stroke-width="1" fill="none" fill-rule="evenodd">
        <g id="flag">
            <mask id="mask-2" fill="white">
                <use xlink:href="#path-1"></use>
            </mask>
            <g id="mask"></g>
            <g id="contents" mask="url(#mask-2)">
                <mask id="mask-4" fill="white">
                    <use xlink:href="#path-3"></use>
                </mask>
                <use id="background" fill="#FECA00" xlink:href="#path-3"></use>
                <rect id="top" fill="#3CA5D9" mask="url(#mask-4)" x="0" y="0" width="16" height="7"></rect>
                <rect id="bottom" fill="#5A962A" mask="url(#mask-4)" x="0" y="9" width="16" height="3"></rect>
                <g id="mark" mask="url(#mask-4)" fill="#FFDC17">
                    <g transform="translate(8.000000, 1.000000)" id="sun">
                        <path d="M3.99461332,2.84217094e-14 L4.1788066,1.00863408 C4.21055277,1.01156782 4.24208238,1.01523781 4.27337776,1.0196266 L4.68704009,0.0800562819 L4.63030006,1.10357406 C4.66044181,1.1136622 4.69025959,1.124444 4.71973392,1.13590021 L5.34213796,0.315909273 L5.04844799,1.29999902 C5.07521522,1.31660429 5.10155411,1.3338213 5.12744455,1.3516302 L5.92459042,0.694844076 L5.40865739,1.58577353 C5.43077566,1.60792698 5.45236571,1.63059635 5.47340734,1.65376171 L6.40299732,1.19643222 L5.69312493,1.94584216 C5.70951871,1.97245572 5.72529081,1.99948413 5.7404213,2.02690769 L6.75156761,1.79363296 L5.88591417,2.36132921 C5.89561358,2.39097481 5.90461979,2.42092828 5.91291394,2.45117097 L6.95150979,2.45425104 L5.97577175,2.80976518 C5.97990984,2.86153907 5.98201818,2.913877 5.98201818,2.96670135 L5.97918173,2.901 L6.99204491,3.14267238 L5.95919484,3.26544956 C5.95444598,3.29623054 5.94897475,3.32677692 5.94279876,3.35707128 L6.87098772,3.821784 L5.83653269,3.70606568 C5.82490999,3.7343449 5.81264048,3.76229655 5.79974229,3.78990271 L6.59486444,4.45497482 L5.61403971,4.10609953 C5.59626358,4.13076198 5.57792575,4.15500198 5.55904465,4.17880131 L6.17856094,5.00810936 L5.305545,4.4438418 C5.28249369,4.46387351 5.25896968,4.48338705 5.23499162,4.50236398 L5.64452027,5.45136799 L4.92585086,4.7035741 C4.89880128,4.71780937 4.87137994,4.73144613 4.84360494,4.74446647 L5.02153269,5.76085452 L4.4972606,4.86926227 C4.46733801,4.87700999 4.4371406,4.88408716 4.4066858,4.89047657 L4.34318361,5.91988446 L4.04018173,4.931 L3.99100909,4.93340271 C3.97682501,4.93340271 3.96267557,4.9332562 3.94856224,4.93296462 L3.64604303,5.91988446 L3.58228848,4.89192307 C3.55167539,4.88561385 3.52132036,4.87861015 3.49124104,4.87092941 L2.96769395,5.76085452 L3.14451587,4.74731469 C3.11601051,4.73406928 3.08787488,4.72017565 3.06012845,4.70565303 L2.34470637,5.45136799 L2.75306797,4.50712643 C2.72809292,4.48751648 2.70360566,4.46732638 2.67962708,4.44657677 L1.8106657,5.00810936 L2.42699266,4.18385043 C2.40720075,4.15906941 2.38799952,4.13380668 2.36940997,4.10808298 L1.39436221,4.45497482 L2.18458582,3.79482871 C2.17099509,3.76595112 2.15809316,3.73669319 2.14590086,3.70707551 L1.11823892,3.821784 L2.03983253,3.3600666 C2.03333658,3.32845799 2.02760807,3.29657409 2.02266704,3.26443471 L0.997181732,3.14267238 L2.00100979,2.90346247 C2.00204758,2.87101063 2.00388126,2.8387571 2.00649219,2.8067203 L1.03771685,2.45425104 L2.06910424,2.45117097 C2.07777347,2.41956064 2.08722062,2.38826629 2.09742414,2.3573092 L1.23765903,1.79363296 L2.24214216,2.02592005 C2.25804604,1.99713403 2.27465709,1.96878397 2.29195225,1.94089266 L1.58622932,1.19643222 L2.51046888,1.65171899 C2.53247248,1.62756211 2.55507331,1.60394659 2.57824838,1.58089512 L2.06463622,0.694844076 L2.8581361,1.34918541 C2.88471633,1.33098664 2.91176675,1.3134107 2.93926571,1.29647897 L2.64708868,0.315909273 L3.26734787,1.13394001 C3.29763881,1.12226133 3.32829036,1.11129423 3.35928145,1.1010595 L3.30218655,0.0800562819 L3.71556215,1.01866816 C3.74689196,1.01438539 3.77845469,1.01082271 3.81023267,1.00799757 L3.99461332,2.84217094e-14 Z M3.97300819,1.70826927 C3.27270778,1.70826927 2.70500214,2.26772265 2.70500214,2.95784338 C2.70500214,3.6479641 3.27270778,4.20741749 3.97300819,4.20741749 C4.67330859,4.20741749 5.24101424,3.6479641 5.24101424,2.95784338 C5.24101424,2.26772265 4.67330859,1.70826927 3.97300819,1.70826927 Z M3.98770034,2.27980794 C4.38237187,2.27980794 4.70231636,2.59975243 4.70231636,2.99442396 C4.70231636,3.38909549 4.38237187,3.70903998 3.98770034,3.70903998 C3.59302881,3.70903998 3.27308432,3.38909549 3.27308432,2.99442396 C3.27308432,2.59975243 3.59302881,2.27980794 3.98770034,2.27980794 Z"></path>
                    </g>
                </g>
            </g>
        </g>
    </g>
</svg>