<?xml version="1.0" encoding="UTF-8"?>
<svg width="16px" height="12px" viewBox="0 0 16 12" version="1.1" xmlns="http://www.w3.org/2000/svg" xmlns:xlink="http://www.w3.org/1999/xlink">
    <title>flags/S/SB - Solomon Islands</title>
    <defs>
        <rect id="path-1" x="0" y="0" width="16" height="12"></rect>
        <rect id="path-3" x="0" y="0" width="16" height="12"></rect>
    </defs>
    <g id="Symbols" stroke="none" stroke-width="1" fill="none" fill-rule="evenodd">
        <g id="flag">
            <mask id="mask-2" fill="white">
                <use xlink:href="#path-1"></use>
            </mask>
            <g id="mask"></g>
            <g id="contents" mask="url(#mask-2)">
                <mask id="mask-4" fill="white">
                    <use xlink:href="#path-3"></use>
                </mask>
                <use id="background" fill="#3D58DB" xlink:href="#path-3"></use>
                <polygon id="green" fill="#579D20" mask="url(#mask-4)" points="0 12 16 12 16 0"></polygon>
                <polygon id="Path-14" fill="#FECA00" fill-rule="nonzero" mask="url(#mask-4)" points="-0.390997552 12.3726332 -1.29287187 11.1245889 16.8375952 -0.977150057 17.7394695 0.270894196"></polygon>
                <g id="mark" mask="url(#mask-4)" fill="#F7FCFF">
                    <g transform="translate(1.000000, 1.000000)" id="Combined-Shape">
                        <path d="M1.50842509,0.117008432 L1.79514922,0.917941885 L2.4717021,0.917941885 L1.97235448,1.4633236 L2.22243571,2.22548091 L1.50842509,1.80038803 L0.826640358,2.27328695 L1.04449569,1.4633236 L0.543995044,0.945918387 L1.22170095,0.917941885 L1.50842509,0.117008432 Z M4.33751467,0.117008432 L4.6242388,0.917941885 L5.30079168,0.917941885 L4.80144406,1.4633236 L5.05152529,2.22548091 L4.33751467,1.80038803 L3.65572994,2.27328695 L3.87358527,1.4633236 L3.37308463,0.945918387 L4.05079053,0.917941885 L4.33751467,0.117008432 Z"></path>
                        <path d="M1.50842509,3.11700843 L1.79514922,3.91794189 L2.4717021,3.91794189 L1.97235448,4.4633236 L2.22243571,5.22548091 L1.50842509,4.80038803 L0.826640358,5.27328695 L1.04449569,4.4633236 L0.543995044,3.94591839 L1.22170095,3.91794189 L1.50842509,3.11700843 Z M4.33751467,3.11700843 L4.6242388,3.91794189 L5.30079168,3.91794189 L4.80144406,4.4633236 L5.05152529,5.22548091 L4.33751467,4.80038803 L3.65572994,5.27328695 L3.87358527,4.4633236 L3.37308463,3.94591839 L4.05079053,3.91794189 L4.33751467,3.11700843 Z M3.00577786,1.57099308 L3.292502,2.37192653 L3.96905488,2.37192653 L3.46970726,2.91730824 L3.71978849,3.67946556 L3.00577786,3.25437268 L2.32399314,3.72727159 L2.54184847,2.91730824 L2.04134782,2.39990303 L2.71905373,2.37192653 L3.00577786,1.57099308 Z"></path>
                    </g>
                </g>
            </g>
        </g>
    </g>
</svg>