<?xml version="1.0" encoding="UTF-8"?>
<svg width="16px" height="12px" viewBox="0 0 16 12" version="1.1" xmlns="http://www.w3.org/2000/svg" xmlns:xlink="http://www.w3.org/1999/xlink">
    <title>flags/S/SG - Singapore</title>
    <defs>
        <rect id="path-1" x="0" y="0" width="16" height="12"></rect>
        <rect id="path-3" x="0" y="0" width="16" height="12"></rect>
    </defs>
    <g id="Symbols" stroke="none" stroke-width="1" fill="none" fill-rule="evenodd">
        <g id="flag">
            <mask id="mask-2" fill="white">
                <use xlink:href="#path-1"></use>
            </mask>
            <g id="mask"></g>
            <g id="contents" mask="url(#mask-2)">
                <mask id="mask-4" fill="white">
                    <use xlink:href="#path-3"></use>
                </mask>
                <use id="background" fill="#F7FCFF" xlink:href="#path-3"></use>
                <rect id="top" fill="#E31D1C" mask="url(#mask-4)" x="0" y="0" width="16" height="6"></rect>
                <path d="M4.43420315,1.09758915 C4.43420315,1.09758915 3.02135811,1.64747723 3.02135811,3.18701447 C3.02135811,4.44663584 3.96714694,5.05605171 4.31107015,5.2360171 L4.40129691,5.28040281 C4.42252674,5.29009807 4.43420315,5.29479429 4.43420315,5.29479429 C3.72000303,5.69229732 1.92547899,5.29479429 1.92547899,3.18701447 C1.92547899,1.07923465 3.74753478,0.923754939 4.43420315,1.09758915 Z M5.20150151,3.74032213 L5.39486147,4.18617153 L5.8511127,4.18617153 L5.5143645,4.56284113 L5.61574566,5.04032208 L5.20150151,4.79563574 L4.7961894,5.04032208 L4.88863853,4.56284113 L4.55111275,4.20549359 L5.00814155,4.18617153 L5.20150151,3.74032213 Z M6.67465105,3.71299901 L6.86801101,4.15884842 L7.32426224,4.15884842 L6.98751404,4.53551801 L7.0888952,5.01299897 L6.67465105,4.76831262 L6.26933893,5.01299897 L6.36178806,4.53551801 L6.02426229,4.17817047 L6.48129109,4.15884842 L6.67465105,3.71299901 Z M4.68489495,2.5560251 L4.87825491,3.0018745 L5.33450614,3.0018745 L4.99775793,3.37854409 L5.0991391,3.85602505 L4.68489495,3.61133871 L4.27958283,3.85602505 L4.37203196,3.37854409 L4.03450618,3.02119656 L4.49153499,3.0018745 L4.68489495,2.5560251 Z M7.36410147,2.53409763 L7.55746143,2.97994704 L8.01371266,2.97994704 L7.67696446,3.35661663 L7.77834562,3.83409759 L7.36410147,3.58941125 L6.95878935,3.83409759 L7.05123848,3.35661663 L6.71371271,2.9992691 L7.17074151,2.97994704 L7.36410147,2.53409763 Z M6.04889058,1.58494387 L6.24225054,2.03079327 L6.69850176,2.03079327 L6.36175356,2.40746287 L6.46313473,2.88494382 L6.04889058,2.64025748 L5.64357846,2.88494382 L5.73602759,2.40746287 L5.39850181,2.05011533 L5.85553062,2.03079327 L6.04889058,1.58494387 Z" id="mark" fill="#F1F9FF" mask="url(#mask-4)"></path>
            </g>
        </g>
    </g>
</svg>