<?xml version="1.0" encoding="UTF-8"?>
<svg width="16px" height="12px" viewBox="0 0 16 12" version="1.1" xmlns="http://www.w3.org/2000/svg" xmlns:xlink="http://www.w3.org/1999/xlink">
    <title>flags/S/ST - Sao Tome and Principe</title>
    <defs>
        <rect id="path-1" x="0" y="0" width="16" height="12"></rect>
    </defs>
    <g id="Symbols" stroke="none" stroke-width="1" fill="none" fill-rule="evenodd">
        <g id="flag">
            <mask id="mask-2" fill="white">
                <use xlink:href="#path-1"></use>
            </mask>
            <g id="mask"></g>
            <g id="contents" mask="url(#mask-2)">
                <rect id="background" fill="#FBCD17" x="0" y="0" width="16" height="12"></rect>
                <rect id="top" fill="#73BE4A" x="0" y="0" width="16" height="4"></rect>
                <rect id="bottom" fill="#73BE4A" x="0" y="8" width="16" height="4"></rect>
                <polygon id="triangle" fill="#C51918" points="0 0 0 12 5 6"></polygon>
                <polygon id="Star-5" fill="#272727" points="8.5008972 6.93533919 7.56556151 7.5 7.77890566 6.39812084 7 5.57347264 8.05468189 5.52888328 8.5008972 4.5 8.94711251 5.52888328 10 5.52888328 9.22288874 6.39812084 9.45684528 7.5"></polygon>
                <polygon id="Star-5" fill="#272727" points="12.5008972 6.93533919 11.5655615 7.5 11.7789057 6.39812084 11 5.57347264 12.0546819 5.52888328 12.5008972 4.5 12.9471125 5.52888328 14 5.52888328 13.2228887 6.39812084 13.4568453 7.5"></polygon>
            </g>
        </g>
    </g>
</svg>