<?xml version="1.0" encoding="UTF-8"?>
<svg width="16px" height="12px" viewBox="0 0 16 12" version="1.1" xmlns="http://www.w3.org/2000/svg" xmlns:xlink="http://www.w3.org/1999/xlink">
    <title>flags/S/SY - Syria</title>
    <defs>
        <rect id="path-1" x="0" y="0" width="16" height="12"></rect>
    </defs>
    <g id="Symbols" stroke="none" stroke-width="1" fill="none" fill-rule="evenodd">
        <g id="flag">
            <mask id="mask-2" fill="white">
                <use xlink:href="#path-1"></use>
            </mask>
            <g id="mask"></g>
            <g id="contents" mask="url(#mask-2)">
                <polygon id="middle" fill="#F7FCFF" points="0 0 16 0 16 12 0 12"></polygon>
                <polygon id="Star-5" fill="#409100" points="4.5008972 6.93533919 3.56556151 7.5 3.77890566 6.39812084 3 5.57347264 4.05468189 5.52888328 4.5008972 4.5 4.94711251 5.52888328 6 5.52888328 5.22288874 6.39812084 5.45684528 7.5"></polygon>
                <polygon id="Star-5" fill="#409100" points="11.5008972 6.93533919 10.5655615 7.5 10.7789057 6.39812084 10 5.57347264 11.0546819 5.52888328 11.5008972 4.5 11.9471125 5.52888328 13 5.52888328 12.2228887 6.39812084 12.4568453 7.5"></polygon>
                <rect id="top" fill="#E31D1C" x="0" y="0" width="16" height="4"></rect>
                <rect id="bottom" fill="#272727" x="0" y="8" width="16" height="4"></rect>
            </g>
        </g>
    </g>
</svg>