<?xml version="1.0" encoding="UTF-8"?>
<svg width="16px" height="12px" viewBox="0 0 16 12" version="1.1" xmlns="http://www.w3.org/2000/svg" xmlns:xlink="http://www.w3.org/1999/xlink">
    <title>flags/S/TC - Turks and Caicos Islands</title>
    <defs>
        <rect id="path-1" x="0" y="0" width="16" height="12"></rect>
        <rect id="path-3" x="0" y="0" width="16" height="12"></rect>
        <rect id="path-5" x="0" y="0" width="9" height="7"></rect>
    </defs>
    <g id="Symbols" stroke="none" stroke-width="1" fill="none" fill-rule="evenodd">
        <g id="flag">
            <mask id="mask-2" fill="white">
                <use xlink:href="#path-1"></use>
            </mask>
            <g id="mask"></g>
            <g id="contents" mask="url(#mask-2)">
                <mask id="mask-4" fill="white">
                    <use xlink:href="#path-3"></use>
                </mask>
                <use id="background" fill="#2E42A5" xlink:href="#path-3"></use>
                <g id="masked" mask="url(#mask-4)">
                    <g transform="translate(10.000000, 5.000000)">
                        <path d="M0.523340195,0.0163454555 C0.818691669,3.99344465 1.63235299,5.98199424 2.96432415,5.98199424 C4.29629532,5.98199424 5.12608124,3.99344465 5.45368193,0.0163454555 L0.523340195,0.0163454555 Z" id="Path-2" stroke="#F7FCFF" stroke-width="0.25" fill="#FECA00"></path>
                        <g id="mark" stroke="none" stroke-width="1" fill="none" transform="translate(0.400024, 0.000000)">
                            <path d="M3.82316992,0 L3.94392839,0.0140680158 L3.88413365,0.389481097 C3.89195684,0.386954313 3.89970274,0.384524934 3.90737098,0.382192902 L4.14699224,0.0932104185 L4.25006609,0.148112661 L4.12353475,0.340826483 C4.2489266,0.334832139 4.33848993,0.371247918 4.38869967,0.449529051 L4.73551288,0.228278526 L4.80873022,0.310913286 L4.42791632,0.552665923 C4.43319775,0.580284642 4.43586717,0.61058074 4.43586717,0.643545344 L4.43586717,0.643545344 L4.43528812,0.699 L4.96125095,0.584643075 L5,0.682361883 L4.43528812,0.882 L4.43528812,0.95 L4.97070816,0.907166756 L4.98681163,1.00954641 L4.43528812,1.089 L4.43528812,1.207 L4.98815836,1.29887075 L4.96592129,1.40049044 L4.43528812,1.321 L4.43586717,2.47031654 L4.35460528,2.47031654 L4.35428812,1.309 L3.99771825,1.25599369 C3.94060213,1.64896917 3.91489182,1.90332868 3.9205873,2.01907222 C3.93164949,2.24387785 4.22142921,2.24028736 4.13632498,2.32361826 C4.05122076,2.40694917 3.8385306,2.48677736 3.62574687,2.48677736 C3.41296314,2.48677736 3.20312382,2.40694917 3.15762642,2.32361826 C3.11212901,2.24028736 3.3545726,2.66183127 3.37038698,2.01907222 C3.37701154,1.74982378 3.35147333,1.49882655 3.29377234,1.26608054 L3.00928812,1.308 L3.00968284,2.47031654 L2.92842095,2.47031654 L2.92828812,1.321 L2.39836683,1.40049044 L2.37612976,1.29887075 L2.92828812,1.207 L2.92828812,1.089 L2.37747649,1.00954641 L2.39357996,0.907166756 L2.92828812,0.95 L2.92828812,0.882 L2.36428812,0.682361883 L2.40303718,0.584643075 L2.92828812,0.7 L2.92842095,0.643545344 C2.92842095,0.61058074 2.93109038,0.580284642 2.9363718,0.552665923 L2.5555579,0.310913286 L2.62877524,0.228278526 L2.97558845,0.449529051 C3.02569819,0.371403833 3.11500491,0.334977365 3.24000456,0.340791171 L3.11422203,0.148112661 L3.21729589,0.0932104185 L3.45744031,0.382352119 C3.46504169,0.384667142 3.47271932,0.387077735 3.48047281,0.389583956 L3.42035973,0.0140680158 L3.54111821,0 L3.62101179,0.486856028 C3.62259958,0.486803585 3.62417794,0.486777363 3.62574687,0.486777363 C3.65983048,0.486777363 3.69716337,0.499152381 3.73774556,0.523902417 L3.82316992,0 Z" id="Combined-Shape" fill="#CF6900"></path>
                            <path d="M2.03898511,2.92139352 C1.60108099,3.65476483 1.38212893,4.24370821 1.38212893,4.68822366 C1.68052111,4.92488019 2.08633171,5.04320846 2.59956073,5.04320846 C3.11278975,5.04320846 3.5014466,4.92488019 3.76553129,4.68822366 C3.62102634,4.16128691 3.42579872,3.57234353 3.17984844,2.92139352 L2.03898511,2.92139352 Z" id="Path-340" fill="#00A727"></path>
                            <path d="M2.61947831,2.06904625 C2.92241628,2.06904625 3.16799603,2.314626 3.16799603,2.61756397 L3.16799603,2.9928065 L3.16799603,2.9928065 L2.07096058,2.9928065 L2.07096058,2.61756397 C2.07096058,2.314626 2.31654033,2.06904625 2.61947831,2.06904625 Z" id="Rectangle-86" fill="#E31D1C"></path>
                            <path d="M0.359555037,1.41674122 C0.93751715,1.5358092 1.22649821,1.68921665 1.22649821,1.87696356 C1.22649821,2.15858394 1.57558244,2.26013328 1.6613334,2.18399882 C1.74708437,2.10786436 2.35118607,2.05461064 2.35118607,1.68752722 C2.35118607,1.3204438 2.4016173,1.22051044 2.25488389,0.987406038 C2.10815048,0.75430164 1.80216528,-0.0336698197 1.73174934,0.282032938 C1.6613334,0.597735696 1.55533794,0.831611354 1.35955504,0.643423717 C1.16377213,0.45523608 0.912286635,0.0568247818 0.82403199,0.282032938 C0.735777345,0.507241094 1.10377328,0.733293964 0.82403199,0.733293964 C0.544290697,0.733293964 0.741455329,0.7480581 0.741455329,0.938743153 C0.741455329,1.12942821 0.774629061,1.3091687 0.567092049,1.3091687 C0.428734041,1.3091687 0.359555037,1.34502621 0.359555037,1.41674122 Z" id="Path-343" fill="#FF927F"></path>
                        </g>
                    </g>
                </g>
                <g id="gb---small" mask="url(#mask-4)">
                    <g id="flag">
                        <mask id="mask-6" fill="white">
                            <use xlink:href="#path-5"></use>
                        </mask>
                        <g id="mask"></g>
                        <g id="contents" mask="url(#mask-6)">
                            <g transform="translate(-2.000000, -1.000000)">
                                <g id="stripe">
                                    <polygon id="white" fill="#F7FCFF" fill-rule="nonzero" transform="translate(6.543731, 4.365902) scale(1, -1) translate(-6.543731, -4.365902) " points="0.997866872 1.23189449 2.97834209 0.363294267 11.0449402 6.78743314 12.0895956 8.07819892 9.9717623 8.36851072 6.68158973 5.60016547 4.033339 3.73494762"></polygon>
                                    <polygon id="red" fill="#F50100" fill-rule="nonzero" transform="translate(6.491732, 4.573107) scale(1, -1) translate(-6.491732, -4.573107) " points="1.26899691 1.0377417 2.27795758 0.533678352 11.7144671 8.61253609 10.2977689 8.61253609"></polygon>
                                </g>
                                <g id="stripe" transform="translate(6.500000, 4.500000) scale(-1, 1) translate(-6.500000, -4.500000) ">
                                    <polygon id="white" fill="#F7FCFF" fill-rule="nonzero" transform="translate(6.543731, 4.365902) scale(1, -1) translate(-6.543731, -4.365902) " points="0.997866872 1.23189449 2.97834209 0.363294267 11.0449402 6.78743314 12.0895956 8.07819892 9.9717623 8.36851072 6.68158973 5.60016547 4.033339 3.73494762"></polygon>
                                    <polygon id="red" fill="#F50100" fill-rule="nonzero" transform="translate(6.627779, 4.549380) scale(1, -1) translate(-6.627779, -4.549380) " points="1.06544306 1.16208955 2.07440374 0.658026209 6.09256727 4.11700491 7.28386651 4.5034683 12.1901144 8.44073422 10.7734162 8.44073422 5.86992481 4.59692228 4.567449 4.13351128"></polygon>
                                </g>
                                <g id="cross" transform="translate(2.000000, 1.000000)">
                                    <path d="M5.36728773,-0.375 L5.36703197,2.625 L9.375,2.625 L9.375,4.375 L5.36703197,4.375 L5.36728773,7.375 L3.61728773,7.375 L3.61703197,4.375 L-0.375,4.375 L-0.375,2.625 L3.61703197,2.625 L3.61728773,-0.375 L5.36728773,-0.375 Z" id="red" stroke="#F7FCFF" stroke-width="0.75" fill="#F50100"></path>
                                </g>
                            </g>
                        </g>
                    </g>
                </g>
            </g>
        </g>
    </g>
</svg>