<?xml version="1.0" encoding="UTF-8"?>
<svg width="16px" height="12px" viewBox="0 0 16 12" version="1.1" xmlns="http://www.w3.org/2000/svg" xmlns:xlink="http://www.w3.org/1999/xlink">
    <title>flags/S/TF - French Southern and Antarctic Lands</title>
    <defs>
        <rect id="path-1" x="0" y="0" width="16" height="12"></rect>
        <rect id="path-3" x="0" y="0" width="16" height="12"></rect>
        <rect id="path-5" x="0" y="0" width="6" height="5"></rect>
    </defs>
    <g id="Symbols" stroke="none" stroke-width="1" fill="none" fill-rule="evenodd">
        <g id="flag">
            <mask id="mask-2" fill="white">
                <use xlink:href="#path-1"></use>
            </mask>
            <g id="mask"></g>
            <g id="contents" mask="url(#mask-2)">
                <mask id="mask-4" fill="white">
                    <use xlink:href="#path-3"></use>
                </mask>
                <use id="background" fill="#2E42A5" xlink:href="#path-3"></use>
                <g id="mark-2" mask="url(#mask-4)" fill="#F7FCFF">
                    <g transform="translate(7.000000, 3.000000)" id="Combined-Shape">
                        <path d="M4.4,5.74510837 L4.56620682,6.25170366 L5.0723207,6.26263092 L4.66892828,6.58665129 L4.81551705,7.1 L4.4,6.79366031 L3.98448295,7.1 L4.13107172,6.58665129 L3.7276793,6.26263092 L4.23379318,6.25170366 L4.4,5.74510837 Z M5.95522361,4.5467633 L6.12143043,5.05335859 L6.62754432,5.06428585 L6.22415189,5.38830622 L6.37074066,5.90165492 L5.95522361,5.59531524 L5.53970657,5.90165492 L5.68629533,5.38830622 L5.28290291,5.06428585 L5.78901679,5.05335859 L5.95522361,4.5467633 Z M2.84477639,4.5467633 L3.01098321,5.05335859 L3.51709709,5.06428585 L3.11370467,5.38830622 L3.26029343,5.90165492 L2.84477639,5.59531524 L2.42925934,5.90165492 L2.57584811,5.38830622 L2.17245568,5.06428585 L2.67856957,5.05335859 L2.84477639,4.5467633 Z M6.41856746,0.1 L6.02648778,0.852011466 L4.80564379,0.852011466 L4.80564379,1.25594569 L5.74158487,1.25594569 L5.36032693,1.95555448 L4.80564379,1.95555448 L4.80564379,3.35469857 L5.71924771,1.91505817 L6.90159131,3.96236382 L6.41856746,3.96236382 L6.24985943,3.7382009 L5.17968725,3.7382009 L4.427,5.128 L4.42737192,5.20547581 L4.406,5.166 L4.38560797,5.20547581 L4.385,5.128 L3.63329265,3.7382009 L2.56312046,3.7382009 L2.39441244,3.96236382 L1.91138859,3.96236382 L3.09373219,1.91505817 L4.0073361,3.35469857 L4.0073361,0.852011466 L2.78649211,0.852011466 L2.39441244,0.1 L6.41856746,0.1 Z M5.74278435,2.75475041 C5.56772706,3.0239909 5.48019842,3.15861114 5.48019842,3.15861114 L5.97730827,3.15861114 L5.74278435,2.75475041 Z M3.07019555,2.75475041 L2.83567162,3.15861114 L3.33278147,3.15861114 C3.33278147,3.15861114 3.24525283,3.0239909 3.07019555,2.75475041 L3.07019555,2.75475041 Z M1.5723207,0.95172807 L1.73852752,1.45832336 L2.24464141,1.46925062 L1.84124899,1.79327099 L1.98783775,2.3066197 L1.5723207,2.00028001 L1.15680366,2.3066197 L1.30339242,1.79327099 L0.9,1.46925062 L1.40611389,1.45832336 L1.5723207,0.95172807 Z M7.2276793,0.95172807 L7.39388611,1.45832336 L7.9,1.46925062 L7.49660758,1.79327099 L7.64319634,2.3066197 L7.2276793,2.00028001 L6.81216225,2.3066197 L6.95875101,1.79327099 L6.55535859,1.46925062 L7.06147248,1.45832336 L7.2276793,0.95172807 Z"></path>
                    </g>
                </g>
                <g id="mark-1" mask="url(#mask-4)">
                    <mask id="mask-6" fill="white">
                        <use xlink:href="#path-5"></use>
                    </mask>
                    <rect stroke="#FFFFFF" stroke-width="0.5" x="-0.25" y="-0.25" width="6.5" height="5.5"></rect>
                    <polygon id="bottom" fill="#F50100" mask="url(#mask-6)" points="4 0 6 0 6 5 4 5"></polygon>
                    <polygon id="left" fill="#2E42A5" mask="url(#mask-6)" points="0 0 2 0 2 5 0 5"></polygon>
                    <polygon id="middle" fill="#F7FCFF" mask="url(#mask-6)" points="2 0 4 0 4 5 2 5"></polygon>
                </g>
            </g>
        </g>
    </g>
</svg>