<?xml version="1.0" encoding="UTF-8"?>
<svg width="16px" height="12px" viewBox="0 0 16 12" version="1.1" xmlns="http://www.w3.org/2000/svg" xmlns:xlink="http://www.w3.org/1999/xlink">
    <title>flags/S/TJ - Tajikistan</title>
    <defs>
        <rect id="path-1" x="0" y="0" width="16" height="12"></rect>
    </defs>
    <g id="Symbols" stroke="none" stroke-width="1" fill="none" fill-rule="evenodd">
        <g id="flag">
            <mask id="mask-2" fill="white">
                <use xlink:href="#path-1"></use>
            </mask>
            <g id="mask"></g>
            <g id="contents" mask="url(#mask-2)">
                <polygon id="middle" fill="#F7FCFF" points="0 0 16 0 16 12 0 12"></polygon>
                <rect id="top" fill="#C51918" x="0" y="0" width="16" height="4"></rect>
                <rect id="bottom" fill="#409100" x="0" y="8" width="16" height="4"></rect>
                <g id="mark" transform="translate(4.000000, 2.600000)" fill="#FFBB00">
                    <path d="M3.99822895,5.24244973 C4.6593892,5.24244973 5.24492445,5.31108534 5.75494891,5.44908865 L5.66278046,5.77727293 C5.18472006,5.64791852 4.62983148,5.58287527 3.99822895,5.58287527 C3.36662642,5.58287527 2.81173784,5.64791852 2.33367745,5.77727293 L2.24150899,5.44908865 C2.75153345,5.31108534 3.3370687,5.24244973 3.99822895,5.24244973 Z M5.09014696,4.81276596 C5.14642308,4.87061069 5.1724322,4.94618575 5.1681743,5.03949112 L5.37005967,5.12289875 C5.25911041,5.25403254 5.1358065,5.3080782 5.00014793,5.28503574 C4.86448936,5.26199328 4.77966163,5.17233658 4.74566474,5.01606564 L4.92867412,5.01606564 C4.99079822,4.90149621 5.0446225,4.83372964 5.09014696,4.81276596 Z M2.87528844,4.7787234 C2.9208129,4.79968709 2.97463718,4.86745365 3.03676128,4.98202309 L3.03676128,4.98202309 L3.21977065,4.98202309 C3.18577376,5.13829403 3.10094603,5.22795073 2.96528746,5.25099319 C2.8296289,5.27403565 2.70632498,5.21998999 2.59537572,5.0888562 L2.59537572,5.0888562 L2.79726109,5.00544857 C2.7930032,4.91214319 2.81901231,4.83656814 2.87528844,4.7787234 Z M3.94928815,4.70846831 C3.99145199,4.73556376 4.03532117,4.81016172 4.0808957,4.93226218 L4.0808957,4.93226218 L4.26212404,4.95773216 C4.20670929,5.10775083 4.1102293,5.18472925 3.97268406,5.18866744 C3.83513882,5.19260563 3.7205566,5.12192535 3.62893738,4.9766266 L3.62893738,4.9766266 L3.84046612,4.9221277 C3.84923526,4.82913778 3.88550927,4.75791799 3.94928815,4.70846831 Z" id="Combined-Shape"></path>
                    <path d="M4.00639735,2.58110854 C4.38337578,2.6049834 4.5507761,2.82627959 4.50960348,3.24641985 C4.48040379,3.17277533 4.41348472,3.13595307 4.30884628,3.13595307 C4.20420783,3.13595307 4.12173053,3.18789396 4.06141438,3.29177574 L4.06141438,3.29177574 L4.06141438,3.89269086 C4.06141438,4.09363118 4.25543175,4.30303794 4.60612675,4.47438241 C4.83992342,4.58861205 5.04419056,4.53149723 5.21892817,4.30303794 C5.3121282,4.5221756 5.47678409,4.6614136 5.71289582,4.72075192 C5.94900754,4.78009025 6.1431805,4.74167366 6.29541469,4.60550216 C6.14143798,4.97569172 5.91824581,5.11445936 5.62583817,5.02180507 C5.33343054,4.92915078 5.17916133,4.76263816 5.16303056,4.52226723 C5.03797971,4.75341427 4.85234511,4.85515196 4.60612675,4.82748028 C4.35990839,4.79980861 4.15863466,4.60709038 4.00230554,4.24932558 L4.00230554,4.24932558 L3.99116087,3.53910854 L3.97927002,4.24932558 C3.8229409,4.60709038 3.62166717,4.79980861 3.37544881,4.82748028 C3.12923045,4.85515196 2.94359585,4.75341427 2.81854501,4.52226723 C2.80241423,4.76263816 2.64814502,4.92915078 2.35573739,5.02180507 C2.06332975,5.11445936 1.84013758,4.97569172 1.68616087,4.60550216 C1.83839506,4.74167366 2.03256802,4.78009025 2.26867975,4.72075192 C2.50479147,4.6614136 2.66944736,4.5221756 2.76264739,4.30303794 C2.93738501,4.53149723 3.14165215,4.58861205 3.37544881,4.47438241 C3.72614381,4.30303794 3.92016118,4.09363118 3.92016118,3.89269086 L3.92016118,3.29177574 L3.92016118,3.29177574 C3.85984503,3.18789396 3.77736773,3.13595307 3.67272928,3.13595307 C3.56809084,3.13595307 3.50117177,3.17277533 3.47197208,3.24641985 C3.43078832,2.82616595 3.59829036,2.60486369 3.97447819,2.58251309 C3.98045554,2.58126187 3.98569423,2.58145205 3.99089427,2.58167906 L4.00639735,2.58110854 L4.00639735,2.58110854 Z M3.97407495,2.75095101 C3.8004654,2.75095101 3.69607902,2.82443618 3.6609158,2.97140651 C3.81378361,2.97140651 3.91816999,3.00472236 3.97407495,3.07135407 C4.08725607,3.00472236 4.20082335,2.97140651 4.31477678,2.97140651 C4.26125177,2.82443618 4.14768449,2.75095101 3.97407495,2.75095101 Z" id="Combined-Shape"></path>
                    <path d="M1.95027969,3.89923543 L0.9539247,3.98453922 C0.881002325,3.13280016 1.23156772,2.32701667 1.96831028,1.58866492 C3.05209108,0.502516935 5.24677904,0.608318993 6.18096996,1.5987583 C6.71470818,2.16463333 6.98808709,2.94873701 7.01438121,3.92847318 L6.01474115,3.95530148 C5.99459951,3.20481063 5.80309701,2.65554436 5.45350819,2.28490652 C4.89621951,1.69406304 3.35018439,1.6195314 2.67618803,2.2949999 C2.13414304,2.83822882 1.90461046,3.36581528 1.95027969,3.89923543 Z" id="Path-2" fill-rule="nonzero"></path>
                </g>
            </g>
        </g>
    </g>
</svg>