<?xml version="1.0" encoding="UTF-8"?>
<svg width="16px" height="12px" viewBox="0 0 16 12" version="1.1" xmlns="http://www.w3.org/2000/svg" xmlns:xlink="http://www.w3.org/1999/xlink">
    <title>flags/S/TM - Turkmenistan</title>
    <defs>
        <rect id="path-1" x="0" y="0" width="16" height="12"></rect>
        <rect id="path-3" x="0" y="0" width="16" height="12"></rect>
        <rect id="path-5" x="1.66255898e-14" y="0.838541667" width="5" height="13.1614583"></rect>
        <polygon id="path-7" points="0.908508481 0.0254448785 0.0227230826 0.524895562 0.0227230826 1.3527086 0.908508481 1.8723348 1.86790192 1.8723348 2.77475111 1.3527086 2.77475111 0.524895562 1.86790192 0.0254448785"></polygon>
    </defs>
    <g id="Symbols" stroke="none" stroke-width="1" fill="none" fill-rule="evenodd">
        <g id="flag">
            <mask id="mask-2" fill="white">
                <use xlink:href="#path-1"></use>
            </mask>
            <g id="mask"></g>
            <g id="contents" mask="url(#mask-2)">
                <mask id="mask-4" fill="white">
                    <use xlink:href="#path-3"></use>
                </mask>
                <use id="background" fill="#29C470" xlink:href="#path-3"></use>
                <g id="mark" mask="url(#mask-4)">
                    <g transform="translate(1.000000, -1.000000)">
                        <mask id="mask-6" fill="white">
                            <use xlink:href="#path-5"></use>
                        </mask>
                        <use id="Rectangle-91" stroke="none" fill="#C51918" fill-rule="evenodd" xlink:href="#path-5"></use>
                        <path d="M0.08399929,9.1963282 L0.303173694,9.51620513 L0.246318094,9.57881711 L0.380780154,9.71578219 L0.318872596,9.80555176 L0.277642267,9.77735967 L0.356302749,9.90895696 L0.488901768,9.80705332 L0.657829611,10.0904516 L0.488436196,10.386723 L0.390008987,10.2978811 L0.390008987,10.2339034 L0.291202588,10.3877856 L0.333077008,10.4611756 L0.297676781,10.5701793 L0.297676781,10.6491412 L0.0246326184,11 L0,10.9756452 L0.264910405,10.6352382 L0.264910405,10.5669056 L0.265908788,10.5605577 L0.296709784,10.4657159 L0.277858856,10.4326773 L0.121631435,10.5888841 L0.422775364,10.1198792 L0.422775364,10.280141 L0.480568076,10.3323056 L0.618606472,10.0908746 L0.480102504,9.85851627 L0.380144182,9.93533522 L0.420680036,10.0167687 L0.392805097,10.036123 L0.167153974,9.65861357 L0.310914196,9.75691259 L0.33623837,9.72019106 L0.198478146,9.57986642 L0.259413491,9.51276164 L0.0580665567,9.21890324 L0.08399929,9.1963282 Z M4.91600071,9.1963282 L4.94193344,9.21890324 L4.74058651,9.51276164 L4.80152185,9.57986642 L4.66376163,9.72019106 L4.6890858,9.75691259 L4.83284603,9.65861357 L4.6071949,10.036123 L4.57931996,10.0167687 L4.61985582,9.93533522 L4.5198975,9.85851627 L4.38139353,10.0908746 L4.51943192,10.3323056 L4.57722464,10.280141 L4.57722464,10.1198792 L4.87836856,10.5888841 L4.72214114,10.4326773 L4.70329022,10.4657159 L4.73409121,10.5605577 L4.7350896,10.5669056 L4.7350896,10.6352382 L5,10.9756452 L4.97536738,11 L4.70232322,10.6491412 L4.70232322,10.5701793 L4.66692299,10.4611756 L4.70879741,10.3877856 L4.60999101,10.2339034 L4.60999101,10.2978811 L4.5115638,10.386723 L4.34217039,10.0904516 L4.51109823,9.80705332 L4.64369725,9.90895696 L4.72235773,9.77735967 L4.6811274,9.80555176 L4.61921985,9.71578219 L4.75368191,9.57881711 L4.69682631,9.51620513 L4.91600071,9.1963282 Z M4.91600071,7.12807768 L4.94193344,7.15065272 L4.74058651,7.44451113 L4.80152185,7.5116159 L4.66376163,7.65194054 L4.6890858,7.68866207 L4.83284603,7.59036305 L4.6071949,7.96787251 L4.57931996,7.94851817 L4.61985582,7.8670847 L4.5198975,7.79026575 L4.38139353,8.02262405 L4.51943192,8.26405508 L4.57722464,8.2118905 L4.57722464,8.05162866 L4.87836856,8.52063362 L4.72214114,8.36442682 L4.70329022,8.39746534 L4.73409121,8.49230715 L4.7350896,8.49865505 L4.7350896,8.56698765 L5,8.90739469 L4.97536738,8.93174948 L4.70232322,8.58089065 L4.70232322,8.50192875 L4.66692299,8.39292508 L4.70879741,8.31953512 L4.60999101,8.16565292 L4.60999101,8.22963056 L4.5115638,8.31847246 L4.34217039,8.02220107 L4.51109823,7.7388028 L4.64369725,7.84070644 L4.72235773,7.70910916 L4.6811274,7.73730125 L4.61921985,7.64753167 L4.75368191,7.51056659 L4.69682631,7.44795461 L4.91600071,7.12807768 Z M0.08399929,7.12807768 L0.303173694,7.44795461 L0.246318094,7.51056659 L0.380780154,7.64753167 L0.318872596,7.73730125 L0.277642267,7.70910916 L0.356302749,7.84070644 L0.488901768,7.7388028 L0.657829611,8.02220107 L0.488436196,8.31847246 L0.390008987,8.22963056 L0.390008987,8.16565292 L0.291202588,8.31953512 L0.333077008,8.39292508 L0.297676781,8.50192875 L0.297676781,8.58089065 L0.0246326184,8.93174948 L0,8.90739469 L0.264910405,8.56698765 L0.264910405,8.49865505 L0.265908788,8.49230715 L0.296709784,8.39746534 L0.277858856,8.36442682 L0.121631435,8.52063362 L0.422775364,8.05162866 L0.422775364,8.2118905 L0.480568076,8.26405508 L0.618606472,8.02262405 L0.480102504,7.79026575 L0.380144182,7.8670847 L0.420680036,7.94851817 L0.392805097,7.96787251 L0.167153974,7.59036305 L0.310914196,7.68866207 L0.33623837,7.65194054 L0.198478146,7.5116159 L0.259413491,7.44451113 L0.0580665567,7.15065272 L0.08399929,7.12807768 Z M4.91600071,4.80129585 L4.94193344,4.82387089 L4.74058651,5.11772929 L4.80152185,5.18483407 L4.66376163,5.32515871 L4.6890858,5.36188024 L4.83284603,5.26358122 L4.6071949,5.64109067 L4.57931996,5.62173633 L4.61985582,5.54030287 L4.5198975,5.46348392 L4.38139353,5.69584221 L4.51943192,5.93727325 L4.57722464,5.88510867 L4.57722464,5.72484683 L4.87836856,6.19385179 L4.72214114,6.03764499 L4.70329022,6.07068351 L4.73409121,6.16552532 L4.7350896,6.17187322 L4.7350896,6.24020582 L5,6.58061285 L4.97536738,6.60496765 L4.70232322,6.25410882 L4.70232322,6.17514692 L4.66692299,6.06614325 L4.70879741,5.99275329 L4.60999101,5.83887108 L4.60999101,5.90284873 L4.5115638,5.99169063 L4.34217039,5.69541924 L4.51109823,5.41202096 L4.64369725,5.51392461 L4.72235773,5.38232732 L4.6811274,5.41051941 L4.61921985,5.32074983 L4.75368191,5.18378476 L4.69682631,5.12117278 L4.91600071,4.80129585 Z M0.08399929,4.80129585 L0.303173694,5.12117278 L0.246318094,5.18378476 L0.380780154,5.32074983 L0.318872596,5.41051941 L0.277642267,5.38232732 L0.356302749,5.51392461 L0.488901768,5.41202096 L0.657829611,5.69541924 L0.488436196,5.99169063 L0.390008987,5.90284873 L0.390008987,5.83887108 L0.291202588,5.99275329 L0.333077008,6.06614325 L0.297676781,6.17514692 L0.297676781,6.25410882 L0.0246326184,6.60496765 L0,6.58061285 L0.264910405,6.24020582 L0.264910405,6.17187322 L0.265908788,6.16552532 L0.296709784,6.07068351 L0.277858856,6.03764499 L0.121631435,6.19385179 L0.422775364,5.72484683 L0.422775364,5.88510867 L0.480568076,5.93727325 L0.618606472,5.69584221 L0.480102504,5.46348392 L0.380144182,5.54030287 L0.420680036,5.62173633 L0.392805097,5.64109067 L0.167153974,5.26358122 L0.310914196,5.36188024 L0.33623837,5.32515871 L0.198478146,5.18483407 L0.259413491,5.11772929 L0.0580665567,4.82387089 L0.08399929,4.80129585 Z M4.91600071,2.51144706 L4.94193344,2.5340221 L4.74058651,2.8278805 L4.80152185,2.89498528 L4.66376163,3.03530992 L4.6890858,3.07203145 L4.83284603,2.97373243 L4.6071949,3.35124189 L4.57931996,3.33188755 L4.61985582,3.25045408 L4.5198975,3.17363513 L4.38139353,3.40599342 L4.51943192,3.64742446 L4.57722464,3.59525988 L4.57722464,3.43499804 L4.87836856,3.904003 L4.72214114,3.7477962 L4.70329022,3.78083472 L4.73409121,3.87567653 L4.7350896,3.88202443 L4.7350896,3.95035703 L5,4.29076407 L4.97536738,4.31511886 L4.70232322,3.96426003 L4.70232322,3.88529813 L4.66692299,3.77629446 L4.70879741,3.7029045 L4.60999101,3.54902229 L4.60999101,3.61299994 L4.5115638,3.70184184 L4.34217039,3.40557045 L4.51109823,3.12217218 L4.64369725,3.22407582 L4.72235773,3.09247853 L4.6811274,3.12067062 L4.61921985,3.03090105 L4.75368191,2.89393597 L4.69682631,2.83132399 L4.91600071,2.51144706 Z M0.08399929,2.51144706 L0.303173694,2.83132399 L0.246318094,2.89393597 L0.380780154,3.03090105 L0.318872596,3.12067062 L0.277642267,3.09247853 L0.356302749,3.22407582 L0.488901768,3.12217218 L0.657829611,3.40557045 L0.488436196,3.70184184 L0.390008987,3.61299994 L0.390008987,3.54902229 L0.291202588,3.7029045 L0.333077008,3.77629446 L0.297676781,3.88529813 L0.297676781,3.96426003 L0.0246326184,4.31511886 L0,4.29076407 L0.264910405,3.95035703 L0.264910405,3.88202443 L0.265908788,3.87567653 L0.296709784,3.78083472 L0.277858856,3.7477962 L0.121631435,3.904003 L0.422775364,3.43499804 L0.422775364,3.59525988 L0.480568076,3.64742446 L0.618606472,3.40599342 L0.480102504,3.17363513 L0.380144182,3.25045408 L0.420680036,3.33188755 L0.392805097,3.35124189 L0.167153974,2.97373243 L0.310914196,3.07203145 L0.33623837,3.03530992 L0.198478146,2.89498528 L0.259413491,2.8278805 L0.0580665567,2.5340221 L0.08399929,2.51144706 Z M0.08399929,0 L0.303173694,0.319876935 L0.246318094,0.38248891 L0.380780154,0.519453987 L0.318872596,0.609223566 L0.277642267,0.581031476 L0.356302749,0.712628763 L0.488901768,0.610725118 L0.657829611,0.894123391 L0.488436196,1.19039478 L0.390008987,1.10155288 L0.390008987,1.03757524 L0.291202588,1.19145744 L0.333077008,1.2648474 L0.297676781,1.37385107 L0.297676781,1.45281297 L0.0246326184,1.8036718 L0,1.77931701 L0.264910405,1.43890997 L0.264910405,1.37057737 L0.265908788,1.36422947 L0.296709784,1.26938766 L0.277858856,1.23634914 L0.121631435,1.39255594 L0.422775364,0.923550983 L0.422775364,1.08381282 L0.480568076,1.1359774 L0.618606472,0.894546367 L0.480102504,0.662188074 L0.380144182,0.739007023 L0.420680036,0.820440487 L0.392805097,0.839794827 L0.167153974,0.462285371 L0.310914196,0.560584393 L0.33623837,0.52386286 L0.198478146,0.383538222 L0.259413491,0.316433446 L0.0580665567,0.0225750438 L0.08399929,0 Z M4.91600071,0 L4.94193344,0.0225750438 L4.74058651,0.316433446 L4.80152185,0.383538222 L4.66376163,0.52386286 L4.6890858,0.560584393 L4.83284603,0.462285371 L4.6071949,0.839794827 L4.57931996,0.820440487 L4.61985582,0.739007023 L4.5198975,0.662188074 L4.38139353,0.894546367 L4.51943192,1.1359774 L4.57722464,1.08381282 L4.57722464,0.923550983 L4.87836856,1.39255594 L4.72214114,1.23634914 L4.70329022,1.26938766 L4.73409121,1.36422947 L4.7350896,1.37057737 L4.7350896,1.43890997 L5,1.77931701 L4.97536738,1.8036718 L4.70232322,1.45281297 L4.70232322,1.37385107 L4.66692299,1.2648474 L4.70879741,1.19145744 L4.60999101,1.03757524 L4.60999101,1.10155288 L4.5115638,1.19039478 L4.34217039,0.894123391 L4.51109823,0.610725118 L4.64369725,0.712628763 L4.72235773,0.581031476 L4.6811274,0.609223566 L4.61921985,0.519453987 L4.75368191,0.38248891 L4.69682631,0.319876935 L4.91600071,0 Z" id="Combined-Shape" stroke="none" fill="#E8AA00" fill-rule="evenodd" mask="url(#mask-6)"></path>
                        <g id="Group-19" stroke="none" stroke-width="1" fill="none" fill-rule="evenodd" mask="url(#mask-6)">
                            <g transform="translate(1.200000, 8.100000)" id="Combined-Shape">
                                <path d="M1.26490279,0.0148229303 C1.26490279,0.0148229303 1.3271622,0.0701548628 1.45168101,0.180818728 L2.2300885,0.182291667 L2.23,0.36382293 L2.40707965,0.364583333 L2.407,0.50982293 L2.61946903,0.510416667 L2.61946903,0.984375 L2.407,0.98382293 L2.40707965,1.13020833 L2.23,1.12982293 L2.2300885,1.27604167 L1.47180495,1.27804872 C1.33387018,1.40063578 1.26490279,1.46192931 1.26490279,1.46192931 C1.26490279,1.46192931 1.18669737,1.39275496 1.03028653,1.25440626 L1.055,1.27582293 L0.353982301,1.27604167 L0.353,1.12982293 L0.17699115,1.13020833 L0.176,0.98382293 L0,0.984375 L0,0.510416667 L0.176,0.50982293 L0.17699115,0.364583333 L0.353,0.36382293 L0.353982301,0.182291667 L1.075,0.18182293 L1.10197483,0.158936159 C1.21059347,0.0628606731 1.26490279,0.0148229303 1.26490279,0.0148229303 Z" stroke="#E8AA00" stroke-width="0.15" fill="#389F5D"></path>
                                <path d="" stroke="none" fill="#C51918"></path>
                                <path d="" stroke="none" fill="#E8AA00"></path>
                                <path d="" stroke="none" fill="#AF0100"></path>
                                <path d="" stroke="none" fill="#AF0100"></path>
                                <path d="" stroke="none" fill="#E8AA00"></path>
                            </g>
                        </g>
                        <g id="Group-16" stroke="none" stroke-width="1" fill="none" fill-rule="evenodd" mask="url(#mask-6)">
                            <g transform="translate(1.200000, 9.600000)">
                                <g id="Group-13" stroke-width="1" fill="none" fill-rule="evenodd">
                                    <mask id="mask-8" fill="white">
                                        <use xlink:href="#path-7"></use>
                                    </mask>
                                    <g id="Path-353"></g>
                                    <polygon id="Rectangle-92" fill="#E8AA00" fill-rule="nonzero" mask="url(#mask-8)" points="0.0353982301 0.947916667 1.4159292 0.947916667 1.4159292 1.859375 0.0353982301 1.859375"></polygon>
                                    <g id="Group-18" mask="url(#mask-8)">
                                        <g transform="translate(-0.106195, 0.036458)">
                                            <rect id="Rectangle-93" fill="#F9E8E7" fill-rule="evenodd" x="0" y="0" width="1.52212389" height="1"></rect>
                                            <polygon id="Path-354" fill="#E8AA00" fill-rule="nonzero" points="0.353982301 0.531160884 0.812240756 0.255208333 0.812240756 0.531160884"></polygon>
                                        </g>
                                    </g>
                                    <g id="Group-18" mask="url(#mask-8)">
                                        <g transform="translate(2.176991, 0.492188) scale(-1, 1) translate(-2.176991, -0.492188) translate(1.415929, 0.036458)">
                                            <rect id="Rectangle-93" fill="#E8AA00" fill-rule="evenodd" x="0" y="0" width="1.52212389" height="1"></rect>
                                            <polygon id="Path-354" fill="#F9E8E7" fill-rule="nonzero" points="0.460176991 0.531160884 0.918435446 0.255208333 0.918435446 0.531160884"></polygon>
                                        </g>
                                    </g>
                                    <g id="Group-18" mask="url(#mask-8)">
                                        <g transform="translate(2.106195, 1.403646) scale(-1, -1) translate(-2.106195, -1.403646) translate(1.415929, 0.947917)">
                                            <rect id="Rectangle-93" fill="#F9E8E7" fill-rule="evenodd" x="0" y="0" width="1.38053097" height="1"></rect>
                                            <polygon id="Path-354" fill="#E8AA00" fill-rule="nonzero" points="0.353982301 0.531160884 0.812240756 0.255208333 0.812240756 0.531160884"></polygon>
                                        </g>
                                    </g>
                                    <polygon id="Path-354" fill="#FCFCFC" fill-rule="nonzero" mask="url(#mask-8)" transform="translate(0.465892, 1.411313) scale(1, -1) translate(-0.465892, -1.411313) " points="0.247787611 1.55199422 0.706046066 1.27604167 0.706046066 1.55199422"></polygon>
                                </g>
                                <polygon id="Rectangle-94" fill="#C51918" fill-rule="evenodd" points="0.920353982 0.583333333 1.15044248 0.583333333 1.38053097 0.510416667 1.61061947 0.583333333 1.84070796 0.583333333 1.84070796 1.27604167 1.61061947 1.27604167 1.38053097 1.38541667 1.15044248 1.27604167 0.920353982 1.27604167"></polygon>
                                <path d="" id="Combined-Shape" fill="#C9343F" fill-rule="nonzero"></path>
                                <path d="M1.34795057,0.634001491 L1.34795057,0.733132463 L1.31255234,0.733132463 L1.31255234,0.670459824 L1.20648667,0.670459824 L1.20634099,0.758001491 L1.38934099,0.917001491 L1.57434099,0.757001491 L1.57448319,0.670459824 L1.46841751,0.670459824 L1.46841751,0.733132463 L1.43301928,0.733132463 L1.43301928,0.634001491 L1.60988142,0.634001491 L1.60988142,0.747343983 L1.75562887,0.747343983 L1.75562887,0.909787438 L1.62010563,0.909787438 L1.62010563,0.873329105 L1.72023064,0.873329105 L1.72023064,0.783802316 L1.60034099,0.783001491 L1.41834099,0.940001491 L1.59934099,1.09600149 L1.72023064,1.09694509 L1.72023064,1.0074183 L1.62010563,1.0074183 L1.62010563,0.970959964 L1.75562887,0.970959964 L1.75562887,1.13340342 L1.60988142,1.13340342 L1.60988142,1.24674591 L1.43301928,1.24674591 L1.43301928,1.14761494 L1.46841751,1.14761494 L1.46841751,1.21028758 L1.57448319,1.21028758 L1.57434099,1.12300149 L1.38934099,0.963001491 L1.20634099,1.12200149 L1.20648667,1.21028758 L1.31255234,1.21028758 L1.31255234,1.14761494 L1.34795057,1.14761494 L1.34795057,1.24674591 L1.17108844,1.24674591 L1.17108844,1.13340342 L1.02534099,1.13340342 L1.02534099,0.970959964 L1.16086422,0.970959964 L1.16086422,1.0074183 L1.06073922,1.0074183 L1.06073922,1.09694509 L1.18034099,1.09600149 L1.36134099,0.940001491 L1.17934099,0.783001491 L1.06073922,0.783802316 L1.06073922,0.873329105 L1.16086422,0.873329105 L1.16086422,0.909787438 L1.02534099,0.909787438 L1.02534099,0.747343983 L1.17108844,0.747343983 L1.17108844,0.634001491 L1.34795057,0.634001491 Z" id="Combined-Shape" fill="#FFFFFF" fill-rule="nonzero"></path>
                            </g>
                        </g>
                        <g id="Group-14" stroke="none" stroke-width="1" fill="none" fill-rule="evenodd" mask="url(#mask-6)">
                            <g transform="translate(1.000000, 3.400000)" id="Combined-Shape">
                                <path d="M1.79220779,0 L1.79220779,2 L1.16883117,2 L1.16883117,0 L1.79220779,0 Z M0.779220779,0.423076923 L0.779220779,1.5 L0.38961039,1.5 L0.38961039,0.423076923 L0.779220779,0.423076923 Z M2.61038961,0.423076923 L2.61038961,1.5 L2.22077922,1.5 L2.22077922,0.423076923 L2.61038961,0.423076923 Z" fill="#E8AA00" fill-rule="nonzero"></path>
                                <path d="M1.16883117,0.153846154 L1.16883117,1.69230769 L0.779220779,1.69230769 L0.779220779,0.153846154 L1.16883117,0.153846154 Z M2.18181818,0.153846154 L2.18181818,1.69230769 L1.79220779,1.69230769 L1.79220779,0.153846154 L2.18181818,0.153846154 Z M0.38961039,0.576923077 L0.38961039,1.30769231 L0,1.30769231 L0,0.576923077 L0.38961039,0.576923077 Z M3,0.576923077 L3,1.30769231 L2.61038961,1.30769231 L2.61038961,0.576923077 L3,0.576923077 Z" fill="#389F5D" fill-rule="evenodd"></path>
                                <path d="" fill="#E1E5E8" fill-rule="evenodd"></path>
                                <path d="" fill="#C51918" fill-rule="evenodd"></path>
                                <path d="M1.79838709,0.453172795 L2.22884416,0.845172795 L2.80519481,0.846153846 L2.80519481,1 L2.24584416,0.999172795 L2.24618402,1.00802964 L1.79838709,1.46346213 L1.18254858,1.46346213 L0.80326254,1.05241818 L0.802844156,0.999172795 L0.155844156,1 L0.155844156,0.846153846 L0.802844156,0.845172795 L0.80326254,0.795714416 L1.18254858,0.453172795 L1.79838709,0.453172795 Z" fill="#C51918" fill-rule="evenodd"></path>
                                <path d="M1.69842734,0.441472812 L1.74029065,0.481728428 L1.71467038,0.506472812 L1.79767038,0.590472812 L1.85529752,0.54556056 L2.01301792,0.698609065 L1.77265305,0.926295896 L2.01147798,1.16833134 L1.86592947,1.32183227 L1.80420257,1.32183227 L1.68092876,1.39938523 L1.49567038,1.22747281 L1.31175954,1.39938523 L1.18848573,1.32183227 L1.12675884,1.32183227 L0.981210327,1.16833134 L1.22003526,0.926295896 L0.979670383,0.698609065 L1.13739079,0.54556056 L1.19367038,0.590472812 L1.27667038,0.506472812 L1.25239766,0.481728428 L1.29426096,0.441472812 L1.49567038,0.645472812 L1.69842734,0.441472812 Z" fill="#E8AA00" fill-rule="nonzero"></path>
                            </g>
                        </g>
                        <path d="M3.96945046,11.5000153 C4.02778182,11.5042841 4.08248698,12.1218919 3.32427748,12.5917877 C3.29530543,12.6078976 3.26868221,12.617752 3.24440782,12.621351 C3.37937461,12.6230171 3.55821039,12.599757 3.72035483,12.5518441 C3.41809745,12.6732376 3.17721251,12.7070384 2.99770001,12.6532463 C2.97158903,12.6419854 2.94404975,12.6331851 2.91507212,12.6266092 C2.83159366,12.6076657 2.74591536,12.6074883 2.63985035,12.6191062 L2.66506029,12.6163044 C2.70487175,12.6348419 2.75118743,12.6560734 2.80508818,12.6779487 L2.80508818,12.7 C2.69874712,12.656842 2.57407784,12.6365005 2.52147433,12.6302729 C2.47108523,12.6362858 2.34565883,12.6566137 2.23875512,12.7 L2.23875512,12.7 L2.23875512,12.6779487 C2.29235978,12.6561936 2.33846247,12.6350751 2.37812634,12.6166102 L2.40399295,12.6191062 C2.29792794,12.6074883 2.21224964,12.6076657 2.12877118,12.6266092 C2.09979355,12.6331851 2.07225428,12.6419854 2.0461433,12.6532463 C1.8666308,12.7070384 1.62574586,12.6732376 1.32348848,12.5518441 C1.47060489,12.5953163 1.63146203,12.6184937 1.76125537,12.6203894 C1.73567834,12.6193297 1.70707584,12.6092217 1.67572252,12.5917877 C0.917513025,12.1218919 0.972218184,11.5042841 1.03054954,11.5000153 C1.07661766,11.4966439 1.44204892,12.0519522 1.85282627,12.4380014 C1.89628249,12.4990371 1.89628249,12.5502992 1.85282627,12.5917877 C1.83575419,12.6080867 1.81627779,12.6179826 1.79439708,12.6214752 C1.86998982,12.619249 1.93212905,12.6102896 1.97153639,12.5932944 C2.00673103,12.5781159 2.04409934,12.5661747 2.08336378,12.5572645 C2.19312824,12.5323559 2.30012008,12.5321344 2.42708623,12.5460417 C2.44009555,12.5474667 2.47614237,12.5517241 2.47719958,12.5518441 C2.48915547,12.5532012 2.49605858,12.5537889 2.49737657,12.5537889 L2.521,12.558 L2.54646674,12.5537889 C2.54712573,12.5537889 2.54918101,12.553642 2.55256602,12.5533254 L2.56664372,12.5518441 C2.56770093,12.5517241 2.60374776,12.5474667 2.61675708,12.5460417 C2.74372322,12.5321344 2.85071507,12.5323559 2.96047953,12.5572645 C2.99974396,12.5661747 3.03711227,12.5781159 3.07230692,12.5932944 C3.10030686,12.6053699 3.13978296,12.6133886 3.18717904,12.6174287 L3.18268683,12.615125 L3.14717373,12.5917877 C3.10371751,12.5502992 3.10371751,12.4990371 3.14717373,12.4380014 C3.55795108,12.0519522 3.92338234,11.4966439 3.96945046,11.5000153 Z" id="Combined-Shape" stroke="none" fill="#E8AA00" fill-rule="nonzero" mask="url(#mask-6)"></path>
                        <g id="Group-15" stroke="none" stroke-width="1" fill="none" fill-rule="evenodd" mask="url(#mask-6)">
                            <g transform="translate(1.000000, 5.800000)">
                                <polygon id="Path-357" fill="#389F5D" fill-rule="evenodd" points="0.881996481 0.188698443 0.256031968 0.74032893 0.256031968 1.26571837 0.803271306 1.81561462 1.92066089 1.81561462 2.53674335 1.22887288 2.53674335 0.781581099 1.92066089 0.188698443"></polygon>
                                <path d="" id="Combined-Shape" fill="#C51918" fill-rule="evenodd"></path>
                                <path d="" id="Combined-Shape" fill="#E8AA00" fill-rule="nonzero"></path>
                                <path d="M0.456859197,0.120961498 L2.34687471,0.120961498 L2.34687471,0.41302458 L2.6174994,0.41302458 L2.6174994,1.6204294 L2.34687471,1.6204294 L2.34687471,1.87001782 L0.456859197,1.87001782 L0.456859197,1.6204294 L0.162992362,1.6204294 L0.162992362,0.41302458 L0.456859197,0.41302458 L0.456859197,0.120961498 Z M0.563053887,0.52239958 L0.269187053,0.52239958 L0.269187053,1.5110544 L0.563053887,1.5110544 L0.563053887,1.76064282 L2.24068002,1.76064282 L2.24068002,1.5110544 L2.51130471,1.5110544 L2.51130471,0.52239958 L2.24068002,0.52239958 L2.24068002,0.230336498 L0.563053887,0.230336498 L0.563053887,0.52239958 Z" id="Path-358" fill="#750100" fill-rule="evenodd"></path>
                                <path d="" id="Combined-Shape" fill="#389F5D" fill-rule="evenodd"></path>
                                <polygon id="Path-360" fill="#C51918" fill-rule="evenodd" points="0.889182552 0.342308543 0.583919096 0.607818496 0.583919096 1.46695354 0.837261125 1.64622522 1.93557812 1.64622522 2.18855016 1.46695354 2.18855016 0.607818496 1.90304398 0.342308543"></polygon>
                                <polygon id="Path-361" fill="#E1E5E8" fill-rule="evenodd" points="1.40163504 0.698427573 1.03329116 1.01314597 1.40163504 1.01314597"></polygon>
                                <polygon id="Path-361" fill="#E8AA00" fill-rule="nonzero" transform="translate(1.208602, 1.144368) scale(1, -1) translate(-1.208602, -1.144368) " points="1.40163504 0.99009424 1.03329116 1.30481264 1.40163504 1.30481264"></polygon>
                                <polygon id="Path-361" fill="#E8AA00" fill-rule="evenodd" transform="translate(1.562584, 0.852701) scale(-1, 1) translate(-1.562584, -0.852701) " points="1.75561734 0.698427573 1.38727347 1.01314597 1.75561734 1.01314597"></polygon>
                                <ellipse id="Oval-65" fill="#29AE66" fill-rule="evenodd" cx="1.38053097" cy="0.984375" rx="1" ry="1"></ellipse>
                                <polygon id="Path-361" fill="#E1E5E8" fill-rule="nonzero" transform="translate(1.562584, 1.144368) scale(-1, -1) translate(-1.562584, -1.144368) " points="1.75561734 0.99009424 1.38727347 1.30481264 1.75561734 1.30481264"></polygon>
                                <path d="" id="Combined-Shape" fill="#C51918" fill-rule="evenodd"></path>
                                <path d="" id="Combined-Shape" fill="#E8AA00" fill-rule="nonzero"></path>
                            </g>
                        </g>
                        <g id="Group-17" stroke="none" stroke-width="1" fill="none" fill-rule="evenodd" mask="url(#mask-6)">
                            <g transform="translate(1.000000, 1.000000)" id="Combined-Shape">
                                <path d="M1.95228208,0.0619140195 C2.00626758,0.0619140195 2.10727007,0.11374644 2.25528955,0.217411282 L2.25528955,0.217411282 L2.63196546,0.217411282 L2.80585875,0.395063512 L2.80585875,0.573567344 L2.99249237,0.795170237 L2.99141664,0.997758447 L1.51178565,0.996914019 L1.51089716,1.91775845 L1.51089716,1.91775845 L1.04699595,1.91775845 C0.993010443,1.91775845 0.892007953,1.86592603 0.743988477,1.76226118 L0.743988477,1.76226118 L0.367312567,1.76226118 L0.193419277,1.58460896 L0.193419277,1.40610512 L0.0067856498,1.18450223 L0.00786138529,0.981914019 L1.48678565,0.981914019 L1.48838087,0.0619140195 L1.48838087,0.0619140195 Z" fill="#E8AA00" fill-rule="nonzero"></path>
                                <path d="M1.95228208,0.0619140195 C2.00626758,0.0619140195 2.10727007,0.11374644 2.25528955,0.217411282 L2.25528955,0.217411282 L2.63196546,0.217411282 L2.80585875,0.395063512 L2.80585875,0.573567344 L2.99249237,0.795170237 L2.99141664,0.997758447 L1.51178565,0.996914019 L1.51089716,1.91775845 L1.51089716,1.91775845 L1.04699595,1.91775845 C0.993010443,1.91775845 0.892007953,1.86592603 0.743988477,1.76226118 L0.743988477,1.76226118 L0.367312567,1.76226118 L0.193419277,1.58460896 L0.193419277,1.40610512 L0.0067856498,1.18450223 L0.00786138529,0.981914019 L1.48678565,0.981914019 L1.48838087,0.0619140195 L1.48838087,0.0619140195 Z" fill="#E1E5E8" fill-rule="evenodd" transform="translate(1.499639, 0.989836) scale(-1, 1) translate(-1.499639, -0.989836) "></path>
                                <path d="M1.67861364,1.59903899 C1.70248569,1.66671845 1.7241957,1.7131598 1.74113803,1.73645338 L1.74113803,1.73645338 L2.01101035,1.68070645 L2.02721101,1.75895345 L1.8034361,1.81020776 L1.7994361,1.81320776 L1.80347137,1.82998016 L1.75898605,1.85952476 L1.7184361,1.82920776 L1.70807977,1.83233956 C1.6793466,1.84621397 1.63476404,1.87932698 1.57563415,1.93114504 L1.51170338,1.98917836 L1.4864361,1.96020776 L1.46143583,1.98917836 C1.39483371,1.92689587 1.34150251,1.88203474 1.30262946,1.85508146 L1.29792207,1.85952476 L1.2544361,1.83020776 L0.945928197,1.75895345 L0.962128857,1.68070645 L1.23200118,1.73645338 C1.2489435,1.7131598 1.27065351,1.66671845 1.29452557,1.59903899 L1.36925449,1.62104126 L1.3394361,1.76020776 L1.35500641,1.76388371 C1.36073412,1.76571186 1.36659836,1.76767976 1.37259998,1.76978768 L1.39101792,1.77653169 C1.38457844,1.78412378 1.37814347,1.79132979 1.37170689,1.7981529 L1.4854361,1.90320776 L1.63414267,1.7659836 L1.60388471,1.62104126 Z M1.50039686,0.0342077636 L1.5424361,0.0822077636 L1.55066442,0.0742077636 C1.64224233,0.159846191 1.70872992,0.212547359 1.74704081,0.231046572 L2.06617205,0.304432674 L2.04997139,0.38267968 L1.8724361,0.345207764 L1.88992421,0.361260827 C1.88384295,0.364904185 1.87749481,0.369381293 1.87089509,0.374684158 L1.85035649,0.393062031 L1.77563704,0.382059466 L1.7824361,0.356207764 L1.7634361,0.353207764 C1.74844317,0.383547019 1.73348938,0.419227497 1.71757468,0.464347135 L1.64284575,0.442344872 L1.67310371,0.297402526 L1.5034361,0.139207764 L1.38554348,0.249669573 C1.40038125,0.263085474 1.41516815,0.278504919 1.42997896,0.295966714 C1.41742438,0.300743083 1.40542287,0.304958399 1.39396745,0.308614692 L1.3884361,0.309207764 L1.40821553,0.402344872 L1.3334866,0.424347135 C1.32345342,0.395902146 1.31380215,0.371208732 1.30472624,0.350408669 L1.29932493,0.353062031 C1.28514976,0.339169258 1.27191973,0.328547544 1.2597572,0.321260827 L1.2804361,0.303207764 L1.27096222,0.286932748 L1.0010899,0.34267968 L0.984889236,0.264432674 L1.30402047,0.191046572 C1.34233137,0.172547359 1.40881895,0.119846191 1.50039686,0.0342077636 L1.50039686,0.0342077636 Z" fill="#C51918" fill-rule="evenodd"></path>
                                <path d="M1.54506908,0.342473722 L1.54443979,0.982473722 L2.63597817,0.982473722 L2.37603616,1.16968894 L2.37603616,1.41463031 L1.96461796,1.41463031 L1.52334888,1.64863471 L1.52243979,1.00847372 L0.43243979,1.00863471 L0.692381802,0.821419492 L0.692381802,0.576478121 L1.1038,0.576478121 L1.54506908,0.342473722 Z" fill="#C51918" fill-rule="evenodd"></path>
                                <path d="M1.54506908,0.342473722 L1.54443979,0.982473722 L2.63597817,0.982473722 L2.37603616,1.16968894 L2.37603616,1.41463031 L1.96461796,1.41463031 L1.52334888,1.64863471 L1.52243979,1.00847372 L0.43243979,1.00863471 L0.692381802,0.821419492 L0.692381802,0.576478121 L1.1038,0.576478121 L1.54506908,0.342473722 Z" fill="#29AE66" fill-rule="nonzero" transform="translate(1.534209, 0.995554) scale(-1, 1) translate(-1.534209, -0.995554) "></path>
                                <path d="M0.961446537,0.600452381 L1.14344243,0.698452381 L1.19507945,0.62334074 L1.32334842,0.714213624 L1.28244243,0.772452381 L1.82544243,1.06245238 L1.85946924,1.01316171 L1.98773821,1.10403459 L1.96444243,1.13745238 L2.02388759,1.168707 L1.95188348,1.31060559 L1.87644243,1.26945238 L1.81463552,1.36157776 L1.68636655,1.27070488 L1.73644243,1.19545238 L1.19444243,0.904452381 L1.15024573,0.971756797 L1.02197676,0.880883913 L1.05544243,0.830452381 L0.889442427,0.74235097 L0.961446537,0.600452381 Z" fill="#29AE66" fill-rule="nonzero"></path>
                                <path d="M1.00040758,0.600452381 L1.18240347,0.698452381 L1.23404049,0.62334074 L1.36230946,0.714213624 L1.32140347,0.772452381 L1.86440347,1.06245238 L1.89843028,1.01316171 L2.02669925,1.10403459 L2.00340347,1.13745238 L2.06284863,1.168707 L1.99084452,1.31060559 L1.91540347,1.26945238 L1.85359656,1.36157776 L1.72532759,1.27070488 L1.77540347,1.19545238 L1.23340347,0.904452381 L1.18920677,0.971756797 L1.0609378,0.880883913 L1.09440347,0.830452381 L0.928403466,0.74235097 L1.00040758,0.600452381 Z" fill="#C51918" fill-rule="evenodd" transform="translate(1.495626, 0.981015) scale(-1, 1) rotate(4.000000) translate(-1.495626, -0.981015) "></path>
                            </g>
                        </g>
                    </g>
                </g>
                <g id="mark-2" mask="url(#mask-4)" fill="#F7FCFF">
                    <g transform="translate(6.000000, 1.000000)">
                        <path d="M3.53668798,0 C4.31342005,1.84053327 4.35674216,3.1516198 3.66665433,3.93325956 C2.97656649,4.71489933 1.75434838,5.03036907 0,4.87966878 C2.2521333,5.89688769 3.8688242,5.70517499 4.85007267,4.30453069 C5.83132115,2.90388639 5.39352625,1.46904282 3.53668798,0 Z" id="Path-376"></path>
                        <path d="M1.48177301,2.9359283 L1.6050824,3.29475874 L1.98056998,3.30249872 L1.68129179,3.5320081 L1.79004649,3.89562211 L1.48177301,3.67863627 L1.17349953,3.89562211 L1.28225422,3.5320081 L0.982976039,3.30249872 L1.35846362,3.29475874 L1.48177301,2.9359283 Z M0.544615973,1.96163446 L0.667925365,2.32046491 L1.04341294,2.32820488 L0.744134761,2.55771427 L0.852889453,2.92132828 L0.544615973,2.70434243 L0.236342493,2.92132828 L0.345097186,2.55771427 L0.0458190048,2.32820488 L0.421306581,2.32046491 L0.544615973,1.96163446 Z M1.48177301,1.88419486 L1.6050824,2.2430253 L1.98056998,2.25076528 L1.68129179,2.48027466 L1.79004649,2.84388867 L1.48177301,2.62690283 L1.17349953,2.84388867 L1.28225422,2.48027466 L0.982976039,2.25076528 L1.35846362,2.2430253 L1.48177301,1.88419486 Z M2.50057437,1.57775694 L2.62388376,1.93658738 L2.99937134,1.94432736 L2.70009315,2.17383674 L2.80884785,2.53745075 L2.50057437,2.32046491 L2.19230089,2.53745075 L2.30105558,2.17383674 L2.0017774,1.94432736 L2.37726497,1.93658738 L2.50057437,1.57775694 Z M1.42213958,0.881527872 L1.54544897,1.24035832 L1.92093655,1.24809829 L1.62165837,1.47760768 L1.73041306,1.84122169 L1.42213958,1.62423584 L1.1138661,1.84122169 L1.22262079,1.47760768 L0.923342609,1.24809829 L1.29883019,1.24035832 L1.42213958,0.881527872 Z" id="Combined-Shape"></path>
                    </g>
                </g>
            </g>
        </g>
    </g>
</svg>