<?xml version="1.0" encoding="UTF-8"?>
<svg width="16px" height="12px" viewBox="0 0 16 12" version="1.1" xmlns="http://www.w3.org/2000/svg" xmlns:xlink="http://www.w3.org/1999/xlink">
    <title>flags/S/TN - Tunisia</title>
    <defs>
        <rect id="path-1" x="0" y="0" width="16" height="12"></rect>
        <rect id="path-3" x="0" y="0" width="16" height="12"></rect>
    </defs>
    <g id="Symbols" stroke="none" stroke-width="1" fill="none" fill-rule="evenodd">
        <g id="flag">
            <mask id="mask-2" fill="white">
                <use xlink:href="#path-1"></use>
            </mask>
            <g id="mask"></g>
            <g id="contents" mask="url(#mask-2)">
                <mask id="mask-4" fill="white">
                    <use xlink:href="#path-3"></use>
                </mask>
                <use id="background" fill="#E31D1C" xlink:href="#path-3"></use>
                <circle id="Oval-59" fill="#F7FCFF" mask="url(#mask-4)" cx="8" cy="6" r="4"></circle>
                <path d="M8.75136613,3.11335907 C8.75136613,3.11335907 6.63259803,3.70094005 6.59309471,5.96408404 C6.55359138,8.22722803 8.65142281,8.83910812 8.65142281,8.83910812 C7.8447344,9.18172721 5.23129471,8.64839371 5.27855002,5.94113858 C5.32580534,3.23388344 7.88563399,2.7607989 8.75136613,3.11335907 Z M8.59806398,4.46954765 L9.24591099,5.3089382 L10.207502,5.00385314 L9.70139492,5.95271358 L10.502436,6.62987256 L9.37596615,6.53012723 L8.67766486,7.33570183 L8.6581882,6.28273456 L7.54107175,5.87022885 L8.59350931,5.50638139 L8.59806398,4.46954765 Z" id="Combined-shape-1695" fill="#E31D1C" mask="url(#mask-4)" transform="translate(7.890177, 5.971468) rotate(-1.000000) translate(-7.890177, -5.971468) "></path>
            </g>
        </g>
    </g>
</svg>