<?xml version="1.0" encoding="UTF-8"?>
<svg width="16px" height="12px" viewBox="0 0 16 12" version="1.1" xmlns="http://www.w3.org/2000/svg" xmlns:xlink="http://www.w3.org/1999/xlink">
    <title>flags/S/TV - Tuvalu</title>
    <defs>
        <rect id="path-1" x="0" y="0" width="16" height="12"></rect>
        <rect id="path-3" x="0" y="0" width="16" height="12"></rect>
        <rect id="path-5" x="0" y="0" width="9" height="7"></rect>
    </defs>
    <g id="Symbols" stroke="none" stroke-width="1" fill="none" fill-rule="evenodd">
        <g id="flag">
            <mask id="mask-2" fill="white">
                <use xlink:href="#path-1"></use>
            </mask>
            <g id="mask"></g>
            <g id="contents" mask="url(#mask-2)">
                <mask id="mask-4" fill="white">
                    <use xlink:href="#path-3"></use>
                </mask>
                <use id="background" fill="#00B4FF" xlink:href="#path-3"></use>
                <rect id="Rectangle" fill="#2E42A5" mask="url(#mask-4)" x="0" y="0" width="9" height="7"></rect>
                <g id="gb---small" mask="url(#mask-4)">
                    <g id="flag">
                        <mask id="mask-6" fill="white">
                            <use xlink:href="#path-5"></use>
                        </mask>
                        <g id="mask"></g>
                        <g id="contents" mask="url(#mask-6)">
                            <g transform="translate(-2.000000, -1.000000)">
                                <g id="stripe">
                                    <polygon id="white" fill="#F7FCFF" fill-rule="nonzero" transform="translate(6.543731, 4.365902) scale(1, -1) translate(-6.543731, -4.365902) " points="0.997866872 1.23189449 2.97834209 0.363294267 11.0449402 6.78743314 12.0895956 8.07819892 9.9717623 8.36851072 6.68158973 5.60016547 4.033339 3.73494762"></polygon>
                                    <polygon id="red" fill="#F50100" fill-rule="nonzero" transform="translate(6.491732, 4.573107) scale(1, -1) translate(-6.491732, -4.573107) " points="1.26899691 1.0377417 2.27795758 0.533678352 11.7144671 8.61253609 10.2977689 8.61253609"></polygon>
                                </g>
                                <g id="stripe" transform="translate(6.500000, 4.500000) scale(-1, 1) translate(-6.500000, -4.500000) ">
                                    <polygon id="white" fill="#F7FCFF" fill-rule="nonzero" transform="translate(6.543731, 4.365902) scale(1, -1) translate(-6.543731, -4.365902) " points="0.997866872 1.23189449 2.97834209 0.363294267 11.0449402 6.78743314 12.0895956 8.07819892 9.9717623 8.36851072 6.68158973 5.60016547 4.033339 3.73494762"></polygon>
                                    <polygon id="red" fill="#F50100" fill-rule="nonzero" transform="translate(6.627779, 4.549380) scale(1, -1) translate(-6.627779, -4.549380) " points="1.06544306 1.16208955 2.07440374 0.658026209 6.09256727 4.11700491 7.28386651 4.5034683 12.1901144 8.44073422 10.7734162 8.44073422 5.86992481 4.59692228 4.567449 4.13351128"></polygon>
                                </g>
                                <g id="cross" transform="translate(2.000000, 1.000000)">
                                    <path d="M5.36728773,-0.375 L5.36703197,2.625 L9.375,2.625 L9.375,4.375 L5.36703197,4.375 L5.36728773,7.375 L3.61728773,7.375 L3.61703197,4.375 L-0.375,4.375 L-0.375,2.625 L3.61703197,2.625 L3.61728773,-0.375 L5.36728773,-0.375 Z" id="red" stroke="#F7FCFF" stroke-width="0.75" fill="#F50100"></path>
                                </g>
                            </g>
                        </g>
                    </g>
                </g>
                <g id="mark-2" mask="url(#mask-4)" fill="#FFD018">
                    <g transform="translate(5.000000, 3.000000)" id="Combined-Shape">
                        <path d="M3.05352847,6.67410264 L3.61555074,7.01492991 L4.06010676,6.74781371 L3.88231324,7.32911425 L4.39800566,7.7598083 L3.73195561,7.77970648 L3.42835806,8.34243135 L3.25806206,7.7042022 L2.6043964,7.62249274 L3.10793948,7.31993353 L3.05352847,6.67410264 Z M1.47497519,6.57070208 L1.78118328,7.15231094 L2.29981717,7.15231094 L1.84802648,7.55901233 L2.06823732,8.19379041 L1.48707268,7.86780535 L0.937014052,8.19379041 L1.1197542,7.55901233 L0.601536855,7.15231094 L1.18898703,7.15231094 L1.47497519,6.57070208 Z M5.05352847,5.67410264 L5.61555074,6.01492991 L6.06010676,5.74781371 L5.88231324,6.32911425 L6.39800566,6.7598083 L5.73195561,6.77970648 L5.42835806,7.34243135 L5.25806206,6.7042022 L4.6043964,6.62249274 L5.10793948,6.31993353 L5.05352847,5.67410264 Z M3.05352847,4.67410264 L3.61555074,5.01492991 L4.06010676,4.74781371 L3.88231324,5.32911425 L4.39800566,5.7598083 L3.73195561,5.77970648 L3.42835806,6.34243135 L3.25806206,5.7042022 L2.6043964,5.62249274 L3.10793948,5.31993353 L3.05352847,4.67410264 Z M7.05352847,4.67410264 L7.61555074,5.01492991 L8.06010676,4.74781371 L7.88231324,5.32911425 L8.39800566,5.7598083 L7.73195561,5.77970648 L7.42835806,6.34243135 L7.25806206,5.7042022 L6.6043964,5.62249274 L7.10793948,5.31993353 L7.05352847,4.67410264 Z M8.05352847,3.67410264 L8.61555074,4.01492991 L9.06010676,3.74781371 L8.88231324,4.32911425 L9.39800566,4.7598083 L8.73195561,4.77970648 L8.42835806,5.34243135 L8.25806206,4.7042022 L7.6043964,4.62249274 L8.10793948,4.31993353 L8.05352847,3.67410264 Z M5.05352847,2.67410264 L5.61555074,3.01492991 L6.06010676,2.74781371 L5.88231324,3.32911425 L6.39800566,3.7598083 L5.73195561,3.77970648 L5.42835806,4.34243135 L5.25806206,3.7042022 L4.6043964,3.62249274 L5.10793948,3.31993353 L5.05352847,2.67410264 Z M6.05352847,1.67410264 L6.61555074,2.01492991 L7.06010676,1.74781371 L6.88231324,2.32911425 L7.39800566,2.7598083 L6.73195561,2.77970648 L6.42835806,3.34243135 L6.25806206,2.7042022 L5.6043964,2.62249274 L6.10793948,2.31993353 L6.05352847,1.67410264 Z M8.05352847,0.674102639 L8.61555074,1.01492991 L9.06010676,0.74781371 L8.88231324,1.32911425 L9.39800566,1.7598083 L8.73195561,1.77970648 L8.42835806,2.34243135 L8.25806206,1.7042022 L7.6043964,1.62249274 L8.10793948,1.31993353 L8.05352847,0.674102639 Z"></path>
                    </g>
                </g>
            </g>
        </g>
    </g>
</svg>