<?xml version="1.0" encoding="UTF-8"?>
<svg width="16px" height="12px" viewBox="0 0 16 12" version="1.1" xmlns="http://www.w3.org/2000/svg" xmlns:xlink="http://www.w3.org/1999/xlink">
    <title>flags/S/VA - Vatican City State</title>
    <defs>
        <rect id="path-1" x="0" y="0" width="16" height="12"></rect>
    </defs>
    <g id="Symbols" stroke="none" stroke-width="1" fill="none" fill-rule="evenodd">
        <g id="flag">
            <mask id="mask-2" fill="white">
                <use xlink:href="#path-1"></use>
            </mask>
            <g id="mask"></g>
            <g id="contents" mask="url(#mask-2)">
                <rect id="base" fill="#F7FCFF" x="0" y="0" width="16" height="12"></rect>
                <rect id="left" fill="#FFDC17" x="0" y="0" width="7" height="12"></rect>
                <g id="mark" transform="translate(6.000000, 2.000000)">
                    <path d="M6.58076953,4.37557365 L6.75335209,4.38681733 C6.71213182,4.97970279 6.58475956,5.4376877 6.36860184,5.76088809 C6.02000835,6.28210728 5.55997134,6.68510174 5.25213964,6.68510174 C5.18221984,6.68510174 5.16595865,6.71107005 5.18901746,6.77517386 C5.22180478,6.86632309 5.32550623,6.95597174 5.45891868,6.99037591 C5.68081185,7.04759734 6.18545907,7.07721657 6.9643018,7.07721657 L6.9643018,7.24465843 C6.16987126,7.24465843 5.65608755,7.21450295 5.41439213,7.15217496 C5.22668343,7.10376897 5.07774127,6.97501026 5.02566441,6.83023584 C4.9654393,6.66280917 5.05633086,6.51765988 5.25213964,6.51765988 C5.48076551,6.51765988 5.90490089,6.14611541 6.22340267,5.66988952 C6.42135906,5.37390387 6.54135917,4.94242657 6.58076953,4.37557365 Z" id="Path-286" fill="#AF0100" fill-rule="nonzero" transform="translate(5.985791, 5.810116) scale(-1, 1) translate(-5.985791, -5.810116) "></path>
                    <path d="M4.57348977,4.37557365 L4.74607233,4.38681733 C4.70485206,4.97970279 4.5774798,5.4376877 4.36132208,5.76088809 C4.0127286,6.28210728 3.55269158,6.68510174 3.24485988,6.68510174 C3.17494008,6.68510174 3.1586789,6.71107005 3.1817377,6.77517386 C3.21452502,6.86632309 3.31822648,6.95597174 3.45163893,6.99037591 C3.67353209,7.04759734 4.17817932,7.07721657 4.95702204,7.07721657 L4.95702204,7.24465843 C4.1625915,7.24465843 3.64880779,7.21450295 3.40711237,7.15217496 C3.21940368,7.10376897 3.07046151,6.97501026 3.01838465,6.83023584 C2.95815955,6.66280917 3.0490511,6.51765988 3.24485988,6.51765988 C3.47348575,6.51765988 3.89762113,6.14611541 4.21612291,5.66988952 C4.4140793,5.37390387 4.53407941,4.94242657 4.57348977,4.37557365 Z" id="Path-286" fill="#AF0100" fill-rule="nonzero"></path>
                    <g id="left" transform="translate(1.562162, 0.469767)" fill="#F4B300" fill-rule="nonzero">
                        <path d="M6.47125563,0.929300166 L6.8296572,1.36815352 L6.37662162,1.75130017 L6.47842672,1.8563155 L6.41862162,1.90930017 L6.85462162,2.24330017 L7.05276669,2.09175294 L7.40297655,2.51744038 L7.30662162,2.59130017 L7.3173215,2.5989608 L7.25062162,2.63430017 L6.64278511,3.10348689 L6.29257525,2.67779945 L6.45962162,2.54830017 L6.06162162,2.23330017 L5.93546501,2.34877553 L5.81762162,2.22730017 L5.59562162,2.41530017 L5.74329158,2.56794341 L5.68862162,2.61630017 L6.14862162,2.93330017 L6.31763156,2.80338084 L6.66784142,3.22906829 L6.62362162,3.26230017 L6.62612474,3.26426227 L6.61562162,3.26830017 L5.90764997,3.8151148 L5.55744012,3.38942735 L5.72862162,3.25630017 L5.31862162,2.95230017 L5.20032987,3.06040344 L5.03562162,2.89030017 L2.58003903,4.97615232 C2.68559277,5.13032783 2.74594595,5.30830645 2.74594595,5.5 C2.74594595,5.96908053 2.38455279,6.35603644 1.88379408,6.51304793 C1.76133862,6.47487428 1.66838265,6.39079885 1.63766611,6.30540642 C1.6146073,6.2413026 1.63086849,6.2153343 1.70078829,6.2153343 C2.00861999,6.2153343 2.36458392,5.60685314 2.20617415,5.75434185 C2.19302332,5.76658603 2.17991373,5.7785179 2.16686098,5.79012362 C2.23366892,5.70150553 2.27027027,5.60257464 2.27027027,5.5 C2.27027027,5.16682523 1.8841156,4.87209302 1.38378378,4.87209302 C0.883451966,4.87209302 0.497297297,5.16682523 0.497297297,5.5 C0.497297297,5.83317477 0.883451966,6.12790698 1.38378378,6.12790698 C1.42690355,6.12790698 1.46917527,6.12571788 1.51042487,6.12150375 C1.45461581,6.17767323 1.44014689,6.26548596 1.47431306,6.3604684 C1.50228026,6.43821762 1.55818427,6.51134778 1.63302638,6.56989394 C1.55304209,6.5820854 1.46921566,6.58837209 1.38378378,6.58837209 C0.642221245,6.58837209 0.0216216216,6.11469999 0.0216216216,5.5 C0.0216216216,4.88530001 0.642221245,4.41162791 1.38378378,4.41162791 C1.56581048,4.41162791 1.74054886,4.4401678 1.90060941,4.49232786 L6.47125563,0.929300166 Z" id="Combined-Shape"></path>
                    </g>
                    <g id="right" transform="translate(4.437838, 4.469767) scale(-1, 1) translate(-4.437838, -4.469767) translate(0.437838, 1.469767)" fill="#BFBFBF" fill-rule="nonzero">
                        <path d="M6.53250496,0.00859066945 L6.8296572,0.368153517 L6.35862162,0.732590669 L6.47842672,0.856315504 L6.41862162,0.908590669 L6.85462162,1.24359067 L7.05276669,1.09175294 L7.40297655,1.51744038 L7.30662162,1.59059067 L7.3173215,1.5989608 L7.22662162,1.65259067 L6.64278511,2.10348689 L6.29257525,1.67779945 L6.44962162,1.55559067 L6.05662162,1.23759067 L5.93546501,1.34877553 L5.77562162,1.18359067 L5.54462162,1.36259067 L5.74329158,1.56794341 L5.68862162,1.61559067 L6.14762162,1.93359067 L6.31763156,1.80338084 L6.66784142,2.22906829 L6.62362162,2.26259067 L6.62612474,2.26426227 L6.60862162,2.27359067 L5.90764997,2.8151148 L5.55744012,2.38942735 L5.71062162,2.26959067 L5.30862162,1.96059067 L5.20032987,2.06040344 L4.99336382,1.8465733 L5.06862162,1.77659067 L5.03962162,1.75359067 L2.41504555,3.78667928 C2.62051242,3.97579799 2.74594595,4.22364695 2.74594595,4.5 C2.74594595,4.96908053 2.38455279,5.35603644 1.88379408,5.51304793 C1.76133862,5.47487428 1.66838265,5.39079885 1.63766611,5.30540642 C1.6146073,5.2413026 1.63086849,5.2153343 1.70078829,5.2153343 C2.00861999,5.2153343 2.36458392,4.60685314 2.20617415,4.75434185 C2.19369772,4.76595812 2.18125841,4.7772933 2.16886954,4.78833556 C2.23421725,4.70001765 2.27027027,4.6018034 2.27027027,4.5 C2.27027027,4.16682523 1.8841156,3.87209302 1.38378378,3.87209302 C0.883451966,3.87209302 0.497297297,4.16682523 0.497297297,4.5 C0.497297297,4.83317477 0.883451966,5.12790698 1.38378378,5.12790698 C1.42690355,5.12790698 1.46917527,5.12571788 1.51042487,5.12150375 C1.45453872,5.17814329 1.44023833,5.26574015 1.47431306,5.3604684 C1.50240081,5.43855275 1.55866672,5.51197812 1.63399522,5.57065019 C1.55372082,5.58203439 1.46956154,5.58837209 1.38378378,5.58837209 C0.642221245,5.58837209 0.0216216216,5.11469999 0.0216216216,4.5 C0.0216216216,3.88530001 0.642221245,3.41162791 1.38378378,3.41162791 C1.60111146,3.41162791 1.80804983,3.45231085 1.99202249,3.52530371 L6.53250496,0.00859066945 Z" id="Combined-Shape"></path>
                    </g>
                    <path d="M5,3.89767442 C5.03582388,3.89767442 5.06486486,3.92671541 5.06486486,3.96253928 L5.0647027,4.23167442 L5.4345066,4.23255814 C5.46918494,4.23255814 5.4972973,4.26067049 5.4972973,4.29534884 C5.4972973,4.33002718 5.46918494,4.35813953 5.4345066,4.35813953 L5.0647027,4.35767442 L5.06486486,7.93513514 C5.06486486,7.97095901 5.03582388,8 5,8 L4.87027027,8 C4.83444639,8 4.80540541,7.97095901 4.80540541,7.93513514 L4.8047027,4.35767442 L4.5654934,4.35813953 C4.53081506,4.35813953 4.5027027,4.33002718 4.5027027,4.29534884 C4.5027027,4.26067049 4.53081506,4.23255814 4.5654934,4.23255814 L4.8047027,4.23167442 L4.80540541,3.96253928 C4.80540541,3.92671541 4.83444639,3.89767442 4.87027027,3.89767442 L5,3.89767442 Z" id="Combined-Shape" fill="#AF0100"></path>
                    <ellipse id="Oval-69" fill="#AF0100" cx="4.93513514" cy="7.8744186" rx="1" ry="1"></ellipse>
                    <path d="M4.9,0 C5.39705627,-9.13077564e-17 5.8,0.402943725 5.8,0.9 L5.8,2.52174439 L5.8,2.52174439 L4,2.52174439 L4,0.9 C4,0.402943725 4.40294373,9.13077564e-17 4.9,0 Z" id="Rectangle-111" fill="#F4B300"></path>
                    <ellipse id="Oval-70" fill="#AF0100" cx="4.89189189" cy="2.45348837" rx="1" ry="1"></ellipse>
                </g>
            </g>
        </g>
    </g>
</svg>