<?xml version="1.0" encoding="UTF-8"?>
<svg width="16px" height="12px" viewBox="0 0 16 12" version="1.1" xmlns="http://www.w3.org/2000/svg" xmlns:xlink="http://www.w3.org/1999/xlink">
    <title>flags/S/VC - Saint Vincent and the Grenadines</title>
    <defs>
        <rect id="path-1" x="0" y="0" width="16" height="12"></rect>
    </defs>
    <g id="Symbols" stroke="none" stroke-width="1" fill="none" fill-rule="evenodd">
        <g id="flag">
            <mask id="mask-2" fill="white">
                <use xlink:href="#path-1"></use>
            </mask>
            <g id="mask"></g>
            <g id="contents" mask="url(#mask-2)">
                <rect id="middle" fill="#FFDC17" x="4" y="0" width="8" height="12"></rect>
                <rect id="right" fill="#5FBF2B" x="12" y="0" width="4" height="12"></rect>
                <rect id="left" fill="#2E42A5" x="0" y="0" width="4" height="12"></rect>
                <g id="mark" transform="translate(4.500000, 2.500000)" fill="#5FBF2B">
                    <path d="M3.56018349,2.50238573 C3.56018349,2.50238573 4.02735009,3.2330574 4.96168329,4.69440076 L4.96168329,4.69440076 L3.56018349,6.95056676 L1.92156863,4.69440076 C3.01397853,3.2330574 3.56018349,2.50238573 3.56018349,2.50238573 Z M5.36319458,0 C5.36319458,0 5.86988036,0.743812598 6.88325191,2.2314378 L6.88325191,2.2314378 L5.36319458,4.38394934 L3.84313725,2.2314378 C4.85650881,0.743812598 5.36319458,0 5.36319458,0 Z M1.63861486,0.0394227637 C1.63861486,0.0394227637 2.10578146,0.770094441 3.04011466,2.2314378 L3.04011466,2.2314378 L1.52005733,4.34461284 L0,2.2314378 C1.09240991,0.770094441 1.63861486,0.0394227637 1.63861486,0.0394227637 Z" id="Combined-Shape"></path>
                </g>
            </g>
        </g>
    </g>
</svg>