<?xml version="1.0" encoding="UTF-8"?>
<svg width="16px" height="12px" viewBox="0 0 16 12" version="1.1" xmlns="http://www.w3.org/2000/svg" xmlns:xlink="http://www.w3.org/1999/xlink">
    <title>flags/S/VU - Vanuatu</title>
    <defs>
        <rect id="path-1" x="0" y="0" width="16" height="12"></rect>
    </defs>
    <g id="Symbols" stroke="none" stroke-width="1" fill="none" fill-rule="evenodd">
        <g id="flag">
            <mask id="mask-2" fill="white">
                <use xlink:href="#path-1"></use>
            </mask>
            <g id="mask"></g>
            <g id="contents" mask="url(#mask-2)">
                <g transform="translate(0.000000, -36.000000)">
                    <polygon id="middle" stroke="none" fill="#F7FCFF" points="0 36 16 36 16 48 0 48"></polygon>
                    <rect id="top" stroke="none" fill="#C51918" x="0" y="36" width="16" height="4"></rect>
                    <rect id="bottom" stroke="none" fill="#5EAA22" x="0" y="44" width="16" height="4"></rect>
                    <polygon id="triangle" stroke="none" fill="#272727" points="0 35 8.3347945 42 0 49"></polygon>
                    <path d="M-0.5,33.3087233 L8.87272038,40.4995373 L16.5,40.5000325 L16.5,43.5000319 L8.74999363,43.4995368 L-0.5,50.4027999 L-0.5,46.9177957 L6.16167382,41.9975829 L-0.5,37.017746 L-0.5,33.3087233 Z" id="Combined-Shape" stroke="#272727" stroke-width="1" fill="#FFD018"></path>
                    <g id="mark" stroke="none" stroke-width="1" fill="none" transform="translate(0.000000, 39.000000)">
                        <path d="M2.4368436,5.38403337 L2.4378427,4.5938559 C3.14200657,4.43851168 3.60848108,4.23644503 3.8355399,3.99344622 C4.39465898,3.30436818 4.02297768,1.68992964 2.87429309,1.70048561 C2.30520174,1.70048561 1.71670635,1.97167684 1.71670635,2.6099455 C1.71670635,3.40266682 1.87983777,3.74153816 2.4378427,3.74153816 C2.99236851,3.74153816 3.19567413,3.77118093 3.56094561,3.27332529 L3.95733803,3.39580354 C3.56591519,3.92930282 3.03828994,4.35073495 2.4368436,4.35073495 C1.4460707,4.35073495 0.906893001,3.60370767 0.906893001,2.73974736 C0.906893001,1.67319287 1.77273288,0.92622165 2.81670421,0.92622165 C3.59565971,0.92622165 4.82773158,1.88032327 4.82773158,2.73974736 C4.82773158,3.59917145 4.82773158,3.99344622 4.15214943,4.5938559 C3.88003466,4.83569229 3.2058078,5.26758539 2.4368436,5.38403337 Z" id="Path-290" fill="#FFD018" fill-rule="nonzero"></path>
                        <path d="M2.49571023,1.9399181 C2.53385183,1.94998957 2.55660717,1.98907399 2.5465357,2.0272156 L2.49063267,2.23653345 C2.54221263,2.3035952 2.58693695,2.36212901 2.629404,2.41800005 L2.69815323,2.26515652 C2.71446626,2.22923854 2.75680786,2.21334558 2.79272585,2.2296586 C2.82864383,2.24597163 2.84453679,2.28831323 2.82822377,2.32423122 L2.72744463,2.54758898 C2.7524429,2.58080178 2.77651965,2.61293474 2.79968488,2.64400537 L2.84101038,2.55087081 C2.8573234,2.51495282 2.899665,2.49905986 2.93558299,2.51537289 C2.97150098,2.53168591 2.98739394,2.57402752 2.97108091,2.6099455 L2.89649758,2.77492132 C2.95729423,2.85789884 3.01019671,2.93175317 3.05546551,2.99694214 L3.12672466,2.83658509 C3.14303769,2.80066711 3.18537929,2.78477415 3.22129728,2.80108717 C3.25721526,2.8174002 3.27310822,2.8597418 3.2567952,2.89565979 L3.15109855,3.12838244 C3.22665541,3.25653633 3.2641689,3.33243297 3.2641689,3.3685405 C3.2641689,3.40798941 3.23218924,3.43996907 3.19274033,3.43996907 C3.15329142,3.43996907 3.12131176,3.40798941 3.12131176,3.3685405 C3.12131176,3.354389 3.09030942,3.30079661 3.03042151,3.21148351 L2.88427612,3.28824701 C2.84951924,3.30690648 2.80621673,3.29385695 2.78755726,3.25910006 C2.7688978,3.22434318 2.78194733,3.18104067 2.81670421,3.16238121 L2.94832849,3.09237284 C2.90749706,3.03435289 2.85968243,2.96780312 2.80514725,2.89318516 L2.59856183,3.00253273 C2.56380495,3.02119219 2.52050244,3.00814266 2.50184298,2.97338578 C2.48318351,2.9386289 2.49623304,2.89532639 2.53098993,2.87666692 L2.71967993,2.77707725 C2.68615334,2.73182752 2.65064181,2.68421653 2.61318875,2.63432057 L2.45570469,2.71681844 C2.42094781,2.73547791 2.3776453,2.72242837 2.35898583,2.68767149 C2.34032637,2.65291461 2.3533759,2.6096121 2.38813278,2.59095264 L2.52643183,2.5192486 C2.48637383,2.46633806 2.444431,2.41122778 2.40064591,2.35399259 L2.32751915,2.42064893 C2.29853653,2.44741129 2.25334629,2.44561143 2.22658392,2.41662881 C2.19982155,2.38764619 2.20162142,2.34245595 2.23060404,2.31569358 L2.31338744,2.24029033 C2.29712821,2.21916843 2.28064374,2.1977888 2.26393589,2.17615469 C2.23982345,2.14493279 2.24558681,2.10007545 2.2768087,2.07596302 C2.3080306,2.05185058 2.35288794,2.05761393 2.37700038,2.08883583 L2.38063267,2.09353345 L2.40841273,1.99074357 C2.4184842,1.95260196 2.45756863,1.92984663 2.49571023,1.9399181 Z" id="Combined-Shape" fill="#FFD018" fill-rule="nonzero"></path>
                        <path d="M2.49571023,1.9399181 C2.53385183,1.94998957 2.55660717,1.98907399 2.5465357,2.0272156 L2.49063267,2.23653345 C2.54221263,2.3035952 2.58693695,2.36212901 2.629404,2.41800005 L2.69815323,2.26515652 C2.71446626,2.22923854 2.75680786,2.21334558 2.79272585,2.2296586 C2.82864383,2.24597163 2.84453679,2.28831323 2.82822377,2.32423122 L2.72744463,2.54758898 C2.7524429,2.58080178 2.77651965,2.61293474 2.79968488,2.64400537 L2.84101038,2.55087081 C2.8573234,2.51495282 2.899665,2.49905986 2.93558299,2.51537289 C2.97150098,2.53168591 2.98739394,2.57402752 2.97108091,2.6099455 L2.89649758,2.77492132 C2.95729423,2.85789884 3.01019671,2.93175317 3.05546551,2.99694214 L3.12672466,2.83658509 C3.14303769,2.80066711 3.18537929,2.78477415 3.22129728,2.80108717 C3.25721526,2.8174002 3.27310822,2.8597418 3.2567952,2.89565979 L3.15109855,3.12838244 C3.22665541,3.25653633 3.2641689,3.33243297 3.2641689,3.3685405 C3.2641689,3.40798941 3.23218924,3.43996907 3.19274033,3.43996907 C3.15329142,3.43996907 3.12131176,3.40798941 3.12131176,3.3685405 C3.12131176,3.354389 3.09030942,3.30079661 3.03042151,3.21148351 L2.88427612,3.28824701 C2.84951924,3.30690648 2.80621673,3.29385695 2.78755726,3.25910006 C2.7688978,3.22434318 2.78194733,3.18104067 2.81670421,3.16238121 L2.94832849,3.09237284 C2.90749706,3.03435289 2.85968243,2.96780312 2.80514725,2.89318516 L2.59856183,3.00253273 C2.56380495,3.02119219 2.52050244,3.00814266 2.50184298,2.97338578 C2.48318351,2.9386289 2.49623304,2.89532639 2.53098993,2.87666692 L2.71967993,2.77707725 C2.68615334,2.73182752 2.65064181,2.68421653 2.61318875,2.63432057 L2.45570469,2.71681844 C2.42094781,2.73547791 2.3776453,2.72242837 2.35898583,2.68767149 C2.34032637,2.65291461 2.3533759,2.6096121 2.38813278,2.59095264 L2.52643183,2.5192486 C2.48637383,2.46633806 2.444431,2.41122778 2.40064591,2.35399259 L2.32751915,2.42064893 C2.29853653,2.44741129 2.25334629,2.44561143 2.22658392,2.41662881 C2.19982155,2.38764619 2.20162142,2.34245595 2.23060404,2.31569358 L2.31338744,2.24029033 C2.29712821,2.21916843 2.28064374,2.1977888 2.26393589,2.17615469 C2.23982345,2.14493279 2.24558681,2.10007545 2.2768087,2.07596302 C2.3080306,2.05185058 2.35288794,2.05761393 2.37700038,2.08883583 L2.38063267,2.09353345 L2.40841273,1.99074357 C2.4184842,1.95260196 2.45756863,1.92984663 2.49571023,1.9399181 Z" id="Combined-Shape" fill="#FFD018" fill-rule="nonzero" transform="translate(2.735901, 2.688751) scale(-1, 1) translate(-2.735901, -2.688751) "></path>
                    </g>
                </g>
            </g>
        </g>
    </g>
</svg>