<?xml version="1.0" encoding="UTF-8"?>
<svg width="16px" height="12px" viewBox="0 0 16 12" version="1.1" xmlns="http://www.w3.org/2000/svg" xmlns:xlink="http://www.w3.org/1999/xlink">
    <title>flags/S/ZW - Zimbabwe</title>
    <defs>
        <rect id="path-1" x="0" y="0" width="16" height="12"></rect>
        <rect id="path-3" x="0" y="0" width="16" height="12"></rect>
        <polygon id="path-5" points="0 0 0 12 8.16564574 6.07597688"></polygon>
    </defs>
    <g id="Symbols" stroke="none" stroke-width="1" fill="none" fill-rule="evenodd">
        <g id="flag">
            <mask id="mask-2" fill="white">
                <use xlink:href="#path-1"></use>
            </mask>
            <g id="mask"></g>
            <g id="contents" mask="url(#mask-2)">
                <mask id="mask-4" fill="white">
                    <use xlink:href="#path-3"></use>
                </mask>
                <use id="background" fill="#F7FCFF" xlink:href="#path-3"></use>
                <rect id="yellow" fill="#FECA00" mask="url(#mask-4)" x="0" y="1" width="16" height="10"></rect>
                <rect id="middle" stroke="#E31D1C" stroke-width="1.75" fill="#272727" mask="url(#mask-4)" x="-0.875" y="4.125" width="17.75" height="3.75"></rect>
                <path d="M16,10 L16,12 L0,12 L0,10 L16,10 Z M16,0 L16,2 L0,2 L0,0 L16,0 Z" id="top-n-bottom" fill="#5EAA22" mask="url(#mask-4)"></path>
                <mask id="mask-6" fill="white">
                    <use xlink:href="#path-5"></use>
                </mask>
                <path stroke="#272727" d="M-0.5,-0.995276634 L9.01007815,6.08107921 L-0.5,12.9804629 L-0.5,-0.995276634 Z"></path>
                <g id="mark" mask="url(#mask-6)">
                    <g transform="translate(1.000000, 3.000000)">
                        <polygon id="Star-5" fill="#E31D1C" points="2.739221 4.13913122 0.849753888 5.66435811 1.71644038 3.62605533 0.227231485 2.19194214 1.98503464 2.19194214 2.70632659 0.462520607 3.472419 2.19194214 5.22723148 2.19194214 3.65935642 3.62605533 4.44403352 5.66435811"></polygon>
                        <path d="M1.50880492,1.21074909 C1.49051861,1.16666433 1.53534572,1.12513195 1.64328626,1.08615194 C1.80519705,1.02768193 1.85458658,0.903788566 1.9815097,0.994970254 C2.10843281,1.08615194 2.18783534,0.902831426 2.22425222,1.16576349 C2.24853013,1.34105154 2.29412681,1.56689911 2.36104224,1.84330621 L4.00483125,3.07863651 L3.69598867,3.07863651 C3.37537359,3.54969967 3.24153356,3.9918891 3.29446858,4.40520479 C3.07325553,4.37155474 2.81273059,4.35472972 2.51289374,4.35472972 C2.21305689,4.35472972 1.96494575,4.39066002 1.7685603,4.46252061 L1.50880492,3.50067907 C1.57150608,3.39295387 1.61633319,3.29568214 1.64328626,3.20886389 C1.68371586,3.07863651 1.85112354,3.0545954 1.85112354,2.95099904 C1.85112354,2.84740267 1.68599707,2.76055627 1.7685603,2.49238808 C1.82360246,2.31360929 1.85112354,1.95682117 1.85112354,1.42202373 C1.6771654,1.34552758 1.60788631,1.3072795 1.64328626,1.3072795 C1.69638618,1.3072795 1.81742763,1.21074909 1.73035694,1.21074909 C1.67230982,1.21074909 1.59845914,1.21074909 1.50880492,1.21074909 Z" id="Path-293" fill="#FECA00"></path>
                    </g>
                </g>
            </g>
        </g>
    </g>
</svg>