<?xml version="1.0" encoding="UTF-8"?>
<svg width="20px" height="15px" viewBox="0 0 20 15" version="1.1" xmlns="http://www.w3.org/2000/svg" xmlns:xlink="http://www.w3.org/1999/xlink">
    <title>flags/M/AD - Andorra</title>
    <defs>
        <rect id="path-1" x="0" y="0" width="20" height="15"></rect>
        <path d="M4.77860745,0.0551455378 L4.77860745,4.44878324 C4.77805121,4.70730826 4.64111154,4.89308711 4.36778845,5.0061198 C4.09446536,5.1191525 3.79706072,5.15544087 3.47557454,5.11498493 C3.16796477,5.04884589 2.93295543,5.04884589 2.77054652,5.11498493 C2.64050966,5.16794084 2.53386964,5.20342175 2.45062645,5.22142765 L2.45166197,5.23162613 C2.44290151,5.23048751 2.43379073,5.22908724 2.42432964,5.22742533 L2.39280746,5.23162613 L2.39280746,5.23162613 L2.39384298,5.22142765 C2.31059979,5.20342175 2.20395977,5.16794084 2.07392291,5.11498493 C1.911514,5.04884589 1.67650466,5.04884589 1.36889489,5.11498493 C1.04740871,5.15544087 0.750004071,5.1191525 0.476680979,5.0061198 C0.203357886,4.89308711 0.0664182195,4.70730826 0.0658619785,4.44878324 L0.0658619785,4.44878324 L0.0658619785,0.0551455378 L4.77860745,0.0551455378 Z" id="path-3"></path>
    </defs>
    <g id="Symbols" stroke="none" stroke-width="1" fill="none" fill-rule="evenodd">
        <g id="flag">
            <mask id="mask-2" fill="white">
                <use xlink:href="#path-1"></use>
            </mask>
            <g id="mask"></g>
            <g id="contents" mask="url(#mask-2)">
                <polygon id="middle" fill="#FFD018" points="5 0 15 0 15 15 5 15"></polygon>
                <rect id="left" fill="#2E42A5" x="0" y="0" width="5" height="15"></rect>
                <polygon id="right" fill="#E31D1C" points="15 0 20 0 20 15 15 15"></polygon>
                <g id="mark" transform="translate(6.125000, 2.750000)">
                    <path d="M5.18104378,0.199779287 C5.33391633,0.441437543 5.14911134,0.690779849 5.10305816,0.775711725 C5.05700497,0.860643601 4.95825825,1.17225591 5.18104378,1.27472314 C5.40382931,1.37719037 5.73065906,1.32056024 5.89964698,1.17225591 C5.76152109,1.10978954 5.71030038,1.02808225 5.74598487,0.927134041 C5.7995116,0.775711725 6.16407407,0.348387397 6.83184527,0.66634228 C7.49961646,0.984297164 7.6143707,1.27560257 7.43159712,1.51139713 C7.24882354,1.74719168 6.7593317,2.15170406 6.87726724,2.42464798 C6.93394161,2.32483681 7.00052179,2.29988402 7.07700779,2.3497896 C7.15349378,2.39969519 7.18350578,2.46843307 7.16704378,2.55600324 C7.70991928,2.52604923 8.01111654,2.77441345 8.07063557,3.30109591 C8.1301546,3.82777836 7.95407186,4.16118105 7.54238735,4.30130399 C7.67233274,4.44332793 7.69454297,4.56068333 7.60901803,4.6533702 C7.52349309,4.74605708 7.43170653,4.76431197 7.33365835,4.70813488 C7.15473095,4.87727021 7.1099991,5.05817573 7.1994628,5.25085143 C7.2889265,5.44352713 7.36630461,5.56819338 7.43159712,5.62485016 C7.44420452,5.56545736 7.50334482,5.53576096 7.60901803,5.53576096 C7.76752784,5.53576096 8.06242982,6.01723703 7.87950475,6.16687383 C7.7575547,6.26663169 7.66739246,6.30727214 7.60901803,6.28879517 C7.87262875,6.50748076 7.96279099,6.790436 7.87950475,7.13766089 C7.75457538,7.65849823 7.42066454,7.90932309 7.07700779,8.05517566 C6.73335104,8.20102824 6.32346758,8.20102824 5.79681001,8.20102824 C5.44570497,8.20102824 5.16618772,8.31025555 4.95825825,8.52871018 C5.13614205,8.59719933 5.19539176,8.71132126 5.13600739,8.87107598 C5.07662302,9.0308307 4.97923131,9.11070806 4.84383225,9.11070806 C4.74467314,9.25337158 4.6474245,9.30078988 4.55208632,9.25296296 C4.45674815,9.20513603 4.37900815,9.15771773 4.31886633,9.11070806 C4.23645752,9.27733759 4.15082227,9.37072636 4.06196056,9.39087437 C4.05579754,9.39503131 4.04968693,9.39469012 4.04359136,9.39400774 L4.0251096,9.39503131 L4.0251096,9.39503131 C3.93573938,9.37021199 3.85034856,9.2768792 3.76816645,9.11070806 C3.70802463,9.15771773 3.63028463,9.20513603 3.53494645,9.25296296 C3.43960828,9.30078988 3.34235964,9.25337158 3.24320053,9.11070806 C3.10780147,9.11070806 3.01040975,9.0308307 2.95102538,8.87107598 C2.89164101,8.71132126 2.95089073,8.59719933 3.12877452,8.52871018 C2.92084506,8.31025555 2.64132781,8.20102824 2.29022276,8.20102824 C1.76356519,8.20102824 1.35368174,8.20102824 1.01002499,8.05517566 C0.66636824,7.90932309 0.332457394,7.65849823 0.207528028,7.13766089 C0.124241784,6.790436 0.214404024,6.50748076 0.478014749,6.28879517 C0.419640316,6.30727214 0.329478076,6.26663169 0.207528028,6.16687383 C0.0246029555,6.01723703 0.319504935,5.53576096 0.478014749,5.53576096 C0.583687959,5.53576096 0.642828262,5.56545736 0.655435658,5.62485016 C0.720728168,5.56819338 0.798106273,5.44352713 0.887569973,5.25085143 C0.977033673,5.05817573 0.932301823,4.87727021 0.753374423,4.70813488 C0.655326248,4.76431197 0.56353969,4.74605708 0.478014749,4.6533702 C0.392489809,4.56068333 0.414700035,4.44332793 0.544645428,4.30130399 C0.132960917,4.16118105 -0.0431218228,3.82777836 0.0163972069,3.30109591 C0.0759162366,2.77441345 0.377113498,2.52604923 0.919988992,2.55600324 C0.903526998,2.46843307 0.933538997,2.39969519 1.01002499,2.3497896 C1.08651098,2.29988402 1.15309116,2.32483681 1.20976553,2.42464798 C1.32770108,2.15170406 0.838209239,1.74719168 0.655435658,1.51139713 C0.472662076,1.27560257 0.587416314,0.984297164 1.25518751,0.66634228 C1.9229587,0.348387397 2.28752118,0.775711725 2.34104791,0.927134041 C2.37673239,1.02808225 2.32551169,1.10978954 2.1873858,1.17225591 C2.35637372,1.32056024 2.68320347,1.37719037 2.905989,1.27472314 C3.12877452,1.17225591 3.03002781,0.860643601 2.98397462,0.775711725 C2.93792143,0.690779849 2.75311645,0.441437543 2.905989,0.199779287 C3.05886154,-0.0418789681 3.32352657,-0.0418789681 3.53494645,0.0953506335 C3.67589304,0.186837035 3.85155195,0.253217116 4.06192318,0.294490879 L4.04312019,0.289748478 L4.17637946,0.258828122 C4.32114076,0.218457931 4.44637638,0.163965434 4.55208632,0.0953506335 C4.76350621,-0.0418789681 5.02817123,-0.0418789681 5.18104378,0.199779287 Z" id="bg" fill="#BF9937"></path>
                    <path d="M1.44384311,7.24863649 L1.50952955,7.08981686 C2.26433962,7.41336165 3.12330024,7.575361 4.08696203,7.575361 C5.05013975,7.575361 5.8859919,7.41352806 6.59506235,7.0905772 L6.66418935,7.24787615 C5.93208027,7.58132012 5.0728232,7.74768459 4.08696203,7.74768459 C3.10158492,7.74768459 2.22036175,7.58148653 1.44384311,7.24863649 Z" id="txt" fill="#805440" fill-rule="nonzero"></path>
                    <g id="masked" transform="translate(1.608073, 1.715278)">
                        <mask id="mask-4" fill="white">
                            <use xlink:href="#path-3"></use>
                        </mask>
                        <use id="mask" fill="#BF9937" xlink:href="#path-3"></use>
                        <g id="squares" mask="url(#mask-4)">
                            <rect id="Rectangle-74" fill="#D00F3A" x="0" y="0" width="2.28515625" height="2.4375"></rect>
                            <polygon id="Rectangle-74" fill="#FEDF00" points="2.5390625 0 4.90885417 0 4.90885417 2.4375 2.5390625 2.4375"></polygon>
                            <polygon id="Rectangle-74" fill="#FEDF00" points="2.5390625 2.70833333 4.82421875 2.70833333 4.82421875 5.23611111 2.5390625 5.23611111"></polygon>
                            <rect id="Rectangle-74" fill="#FEDF00" x="0" y="2.70833333" width="2.28515625" height="2.52777778"></rect>
                            <path d="M4.23174716,3.84631492 C4.30255142,3.7744836 4.33795355,3.65377647 4.33795355,3.48419355 C4.33795355,3.22981916 4.42743564,3.06154073 4.23174716,3.06154073 C4.03605867,3.06154073 3.77032829,3.06154073 3.58321636,3.06154073 C3.39610444,3.06154073 3.49220954,3.17462424 3.30404937,3.06154073 C3.1158892,2.94845721 2.9642747,2.98444064 2.9642747,3.06154073 C2.9642747,3.13864081 3.15415018,3.1047054 3.15415018,3.26133008 C3.15415018,3.41795476 3.22600269,3.28176135 3.22600269,3.56403813 C3.22600269,3.84631492 3.26568893,3.79892582 3.28486915,3.79892582 C3.30404937,3.79892582 3.30404937,3.74793685 3.30404937,3.67373005 C3.30404937,3.59952325 3.29451421,3.30019758 3.34670953,3.39219557 C3.39890485,3.48419355 3.42470383,3.44074195 3.45046547,3.54529521 C3.47622711,3.64984847 3.54552219,3.75153671 3.49799383,3.79892582 C3.45046547,3.84631492 3.35450025,3.88701818 3.42624704,3.88701818 C3.49799383,3.88701818 3.60226002,3.76663869 3.55012693,3.56403813 C3.51537153,3.4289711 3.53694742,3.42272345 3.6148546,3.54529521 C3.79910219,3.58617728 3.89714576,3.57856632 3.90898533,3.52246235 C3.92674468,3.43830639 3.95210808,3.60294818 4.02700351,3.60294818 C4.10189895,3.60294818 3.95473402,3.7723627 3.89289364,3.79892582 C3.85166672,3.81663456 3.85166672,3.83243093 3.89289364,3.84631492 C3.93134113,3.87790766 3.96330464,3.87790766 3.98878419,3.84631492 C4.02700351,3.79892582 4.16373933,3.64388272 4.16373933,3.56403813 C4.16373933,3.48419355 4.25140358,3.53216631 4.25140358,3.60294818 C4.25140358,3.67373005 4.17005446,3.92772144 4.20090081,3.88701818 C4.22146504,3.85988268 4.23174716,3.84631492 4.23174716,3.84631492 Z" id="Path-306" fill="#D00F3A"></path>
                            <path d="M4.23174716,4.83937048 C4.30255142,4.76753915 4.33795355,4.64683203 4.33795355,4.4772491 C4.33795355,4.22287472 4.42743564,4.05459628 4.23174716,4.05459628 C4.03605867,4.05459628 3.77032829,4.05459628 3.58321636,4.05459628 C3.39610444,4.05459628 3.49220954,4.1676798 3.30404937,4.05459628 C3.1158892,3.94151276 2.9642747,3.97749619 2.9642747,4.05459628 C2.9642747,4.13169637 3.15415018,4.09776095 3.15415018,4.25438563 C3.15415018,4.41101031 3.22600269,4.2748169 3.22600269,4.55709369 C3.22600269,4.83937048 3.26568893,4.79198137 3.28486915,4.79198137 C3.30404937,4.79198137 3.30404937,4.74099241 3.30404937,4.66678561 C3.30404937,4.59257881 3.29451421,4.29325314 3.34670953,4.38525112 C3.39890485,4.4772491 3.42470383,4.4337975 3.45046547,4.53835077 C3.47622711,4.64290403 3.54552219,4.74459227 3.49799383,4.79198137 C3.45046547,4.83937048 3.35450025,4.88007374 3.42624704,4.88007374 C3.49799383,4.88007374 3.60226002,4.75969425 3.55012693,4.55709369 C3.51537153,4.42202665 3.53694742,4.41577901 3.6148546,4.53835077 C3.79910219,4.57923283 3.89714576,4.57162188 3.90898533,4.5155179 C3.92674468,4.43136194 3.95210808,4.59600374 4.02700351,4.59600374 C4.10189895,4.59600374 3.95473402,4.76541826 3.89289364,4.79198137 C3.85166672,4.80969012 3.85166672,4.82548648 3.89289364,4.83937048 C3.93134113,4.87096321 3.96330464,4.87096321 3.98878419,4.83937048 C4.02700351,4.79198137 4.16373933,4.63693828 4.16373933,4.55709369 C4.16373933,4.4772491 4.25140358,4.52522187 4.25140358,4.59600374 C4.25140358,4.66678561 4.17005446,4.920777 4.20090081,4.88007374 C4.22146504,4.85293823 4.23174716,4.83937048 4.23174716,4.83937048 Z" id="Path-306" fill="#D00F3A"></path>
                            <path d="M1.15470311,1.89948883 C1.15514873,1.89881186 1.15556883,1.89810834 1.15596072,1.89737729 C1.15583009,1.89762097 1.15569972,1.89787803 1.15556966,1.89814841 L1.15470311,1.89948883 Z M1.14813678,1.97074216 C1.14813678,2.07391548 1.09566762,2.15270889 0.976071525,2.27337858 C0.970019349,2.27948509 0.937233367,2.31227569 0.928263201,2.32137372 C0.910897304,2.33898716 0.897629972,2.35297962 0.8860135,2.36609778 C0.783838301,2.4814814 0.605119121,2.38200839 0.559354801,2.27000293 C0.552028278,2.25207169 0.516146295,2.18767723 0.457835719,2.08684196 C0.456233128,2.08407099 0.456233128,2.08407099 0.454629957,2.08130039 C0.444328517,2.06349952 0.433710425,2.04520958 0.420226891,2.02202561 C0.40380237,1.99379554 0.40380237,1.99379554 0.388945775,1.96824728 C0.366026499,1.92880528 0.354007616,1.90789145 0.348017659,1.89686794 C0.343882457,1.88925779 0.320232856,1.89810606 0.278747539,1.95105288 C0.262934921,1.97123418 0.295349615,2.0402339 0.398575814,2.15064067 L0.340059999,2.21583167 C0.196416374,2.07576774 0.126953125,1.98502448 0.126953125,1.92210603 C0.126953125,1.81710473 0.211343574,1.76074799 0.368612153,1.76074799 C0.467525717,1.76074799 0.520326477,1.83040992 0.599514544,2.00572436 C0.603291771,2.01408677 0.616870573,2.04435821 0.619710637,2.05065652 C0.658754306,2.13724222 0.683804387,2.18441992 0.714224608,2.22284589 C0.750354224,2.26848382 0.772020853,2.26633895 0.809320183,2.21929283 C0.846033147,2.17298631 0.880012753,2.10078095 0.931006695,1.97072515 C0.968356673,1.87546714 0.973335542,1.88293544 0.91280126,1.91472855 L0.87329751,1.93547625 L0.514519057,1.07346172 L1.19987285,0.241339329 L1.19987285,1.97166835 L1.14988313,1.92646932 C1.14880642,1.93822468 1.14813678,1.95310115 1.14813678,1.97074216 Z M1.19335934,1.97166835 L1.19335934,0.241339329 L1.87871313,1.07346172 L1.51993468,1.93547625 L1.48043093,1.91472855 C1.41989665,1.88293544 1.42487551,1.87546714 1.46222549,1.97072515 C1.51321943,2.10078095 1.54719904,2.17298631 1.583912,2.21929283 C1.62121133,2.26633895 1.64287796,2.26848382 1.67900758,2.22284589 C1.7094278,2.18441992 1.73447788,2.13724222 1.77352155,2.05065652 C1.77636161,2.04435821 1.78994042,2.01408677 1.79371764,2.00572436 C1.87290571,1.83040992 1.92570647,1.76074799 2.02462003,1.76074799 C2.18188861,1.76074799 2.26627906,1.81710473 2.26627906,1.92210603 C2.26627906,1.98502448 2.19681581,2.07576774 2.05317219,2.21583167 L1.99465637,2.15064067 C2.09788257,2.0402339 2.13029727,1.97123418 2.11448465,1.95105288 C2.07299933,1.89810606 2.04934973,1.88925779 2.04521453,1.89686794 C2.03922457,1.90789145 2.02720569,1.92880528 2.00428641,1.96824728 C1.98942982,1.99379554 1.98942982,1.99379554 1.9730053,2.02202561 C1.95952176,2.04520958 1.94890367,2.06349952 1.93860223,2.08130039 C1.93699906,2.08407099 1.93699906,2.08407099 1.93539647,2.08684196 C1.87708589,2.18767723 1.84120391,2.25207169 1.83387739,2.27000293 C1.78811307,2.38200839 1.60939389,2.4814814 1.50721869,2.36609778 C1.49560221,2.35297962 1.48233488,2.33898716 1.46496899,2.32137372 C1.45599882,2.31227569 1.42321284,2.27948509 1.41716066,2.27337858 C1.29756456,2.15270889 1.24509541,2.07391548 1.24509541,1.97074216 C1.24509541,1.95310115 1.24442576,1.93822468 1.24334906,1.92646932 L1.19335934,1.97166835 Z" id="Combined-Shape" fill="#FFFFFF" fill-rule="nonzero"></path>
                            <path d="M1.18794656,0.429151187 L1.18794656,1.82089899 C1.17504941,1.82585059 1.09077334,1.83623029 1.08201705,1.85256448 C1.06863007,1.87753688 1.06350136,1.91551293 1.06350136,1.97074216 C1.06350136,2.03900335 1.02173495,2.10253218 0.921536192,2.20412706 C0.947878578,2.15559849 0.974888453,2.09278211 1.00908822,2.00555844 C1.06648073,1.85918364 1.02747521,1.77699256 0.916081314,1.81578297 L0.916081314,1.81578297 L0.613853261,1.08963854 L1.18794656,0.429151187 Z M1.19099265,0.424035172 L1.77937893,1.08963854 L1.47715087,1.81578297 C1.36575698,1.77699256 1.32675146,1.85918364 1.38414396,2.00555844 C1.41834373,2.09278211 1.44535361,2.15559849 1.47169599,2.20412706 C1.37149723,2.10253218 1.32973083,2.03900335 1.32973083,1.97074216 C1.32973083,1.91551293 1.32460212,1.87753688 1.31121513,1.85256448 C1.30245885,1.83623029 1.2038898,1.82073457 1.19099265,1.81578297 L1.19099265,1.81578297 L1.19099265,0.424035172 Z" id="Combined-Shape" fill="#FEDF00" fill-rule="nonzero"></path>
                        </g>
                        <path d="M0.5078125,2.70833333 L0.5078125,5.23611111 L0.25390625,5.23611111 L0.25390625,2.70833333 L0.5078125,2.70833333 Z M1.015625,2.70833333 L1.015625,5.23611111 L0.76171875,5.23611111 L0.76171875,2.70833333 L1.015625,2.70833333 Z M1.5234375,2.70833333 L1.5234375,5.23611111 L1.26953125,5.23611111 L1.26953125,2.70833333 L1.5234375,2.70833333 Z M2.03125,2.70833333 L2.03125,5.23611111 L1.77734375,5.23611111 L1.77734375,2.70833333 L2.03125,2.70833333 Z" id="red" fill="#D00F3A" mask="url(#mask-4)"></path>
                        <path d="M3.13151042,0 L3.13151042,2.52777778 L2.87760417,2.52777778 L2.87760417,0 L3.13151042,0 Z M3.63932292,0 L3.63932292,2.52777778 L3.38541667,2.52777778 L3.38541667,0 L3.63932292,0 Z M4.14713542,0 L4.14713542,2.52777778 L3.89322917,2.52777778 L3.89322917,0 L4.14713542,0 Z M4.65494792,0 L4.65494792,2.52777778 L4.40104167,2.52777778 L4.40104167,0 L4.65494792,0 Z" id="red" fill="#D00F3A" mask="url(#mask-4)"></path>
                    </g>
                </g>
            </g>
        </g>
    </g>
</svg>