<?xml version="1.0" encoding="UTF-8"?>
<svg width="20px" height="15px" viewBox="0 0 20 15" version="1.1" xmlns="http://www.w3.org/2000/svg" xmlns:xlink="http://www.w3.org/1999/xlink">
    <title>flags/M/AF - Afghanistan</title>
    <defs>
        <rect id="path-1" x="0" y="0" width="20" height="15"></rect>
    </defs>
    <g id="Symbols" stroke="none" stroke-width="1" fill="none" fill-rule="evenodd">
        <g id="flag">
            <mask id="mask-2" fill="white">
                <use xlink:href="#path-1"></use>
            </mask>
            <g id="mask"></g>
            <g id="contents" mask="url(#mask-2)">
                <rect id="bottom" fill="#67BD38" x="14" y="0" width="6" height="15"></rect>
                <rect id="middle" fill="#D51700" x="6" y="0" width="8" height="15"></rect>
                <rect id="middle" fill="#272727" x="0" y="0" width="6" height="15"></rect>
                <g id="mark" transform="translate(6.150000, 3.750000)">
                    <path d="M1.55483057,1.23553347 L1.77107837,1.37125266 C1.41032071,1.97844238 1.16811522,2.53478341 1.04304667,3.04043435 C1.09685922,3.08828807 1.12982936,3.13091435 1.16350354,3.18923974 C1.26127977,3.35859313 1.34351534,3.52298936 1.41015945,3.682503 L1.12275133,3.80486563 C1.07801514,3.69778893 1.02537052,3.58771492 0.964798017,3.47467215 C0.933874564,3.72081952 0.936110426,3.95360824 0.96944727,4.17283936 C1.02272658,4.17614573 1.066408,4.18715198 1.11683999,4.20550772 C1.30059919,4.2723906 1.46926715,4.34546541 1.6228529,4.42482194 L1.48133869,4.70329954 C1.3509731,4.63594068 1.20784028,4.57303863 1.05194725,4.51466291 L1.0530009,4.52334882 C1.18668086,4.92732399 1.39129612,5.29896529 1.6674271,5.63845619 C1.71180853,5.62836221 1.75122709,5.625 1.79712308,5.625 C1.99267554,5.625 2.17616464,5.63598002 2.34762956,5.65802134 L2.30989465,5.9681054 C2.19447766,5.95326887 2.0724745,5.94381218 1.94390029,5.9397667 C2.18832281,6.18835335 2.47897341,6.41675883 2.81286892,6.62601094 L2.6809574,6.84835316 C2.26642485,6.58856586 1.9136093,6.29893512 1.62295115,5.97960015 C1.58638509,5.99341221 1.53965485,6.01325415 1.47990562,6.03936899 L1.45744023,6.04853231 C1.71129087,6.31476313 2.01143293,6.55959126 2.35815427,6.78312955 L2.22350988,7.00373455 C1.8226172,6.7452709 1.47950848,6.45814362 1.19456444,6.14250192 C1.05946289,6.17839435 0.944869811,6.17764137 0.810810811,6.13831041 L0.894271089,5.83781369 L0.953859937,5.85076998 C0.689491522,5.49893398 0.490285312,5.11526578 0.356691422,4.6999418 C0.332926083,4.62605881 0.312593326,4.55082712 0.295687153,4.4742473 C0.192045078,4.45592514 0.10489286,4.4170859 0.0144471259,4.35052307 L0.195650065,4.09669361 L0.243256958,4.12698595 C0.210830481,3.74411786 0.255617868,3.33081182 0.376974965,2.88712953 C0.300774795,2.7999738 0.254391792,2.7094353 0.225807543,2.59172346 L0.491258228,2.52322497 C0.63434206,2.11800663 0.836713073,1.68922786 1.0979309,1.23693085 L1.31581588,1.36985528 C1.03097604,1.86305367 0.819939621,2.32379776 0.682055617,2.75214989 C0.720262285,2.78681568 0.76761341,2.82446699 0.82564403,2.86751264 C0.964324272,2.36393209 1.20767948,1.81982204 1.55483057,1.23553347 Z M0.677030543,4.48639244 L0.560769877,4.49183347 C0.571724059,4.53449764 0.583889245,4.57661977 0.597264019,4.6182 C0.735575925,5.0481916 0.94963823,5.44251502 1.24006252,5.80140998 C1.27559302,5.78815038 1.31598873,5.77142909 1.36091582,5.75179262 L1.41257048,5.72931018 C1.14715075,5.38640451 0.94717467,5.01231794 0.813116708,4.60720049 L0.778604142,4.48067511 C0.749142678,4.48203233 0.71561382,4.48395898 0.677030543,4.48639244 Z M0.496648747,4.11378957 L0.501686404,4.1809181 C0.517341475,4.18106181 0.533699656,4.18093538 0.550835303,4.18055897 L0.713132576,4.17250978 C0.671871956,3.868854 0.683802776,3.54490177 0.748533798,3.20069693 C0.72301509,3.17887011 0.688420058,3.15294043 0.646040738,3.12170585 L0.589342159,3.07964632 C0.499278576,3.45066232 0.468539804,3.7953615 0.496648747,4.11378957 Z" id="Combined-Shape" fill="#F7FCFF" fill-rule="nonzero"></path>
                    <path d="M6.21699274,1.23553347 L6.43324053,1.37125266 C6.07248287,1.97844238 5.83027738,2.53478341 5.70520883,3.04043435 C5.75902138,3.08828807 5.79199152,3.13091435 5.8256657,3.18923974 C5.92344193,3.35859313 6.0056775,3.52298936 6.07232162,3.682503 L5.78491349,3.80486563 C5.7401773,3.69778893 5.68753268,3.58771492 5.62696018,3.47467215 C5.59603673,3.72081952 5.59827259,3.95360824 5.63160943,4.17283936 C5.68488874,4.17614573 5.72857016,4.18715198 5.77900215,4.20550772 C5.96276136,4.2723906 6.13142932,4.34546541 6.28501506,4.42482194 L6.14350085,4.70329954 C6.01313526,4.63594068 5.87000245,4.57303863 5.71410941,4.51466291 L5.71516306,4.52334882 C5.84884303,4.92732399 6.05345828,5.29896529 6.32958926,5.63845619 C6.37397069,5.62836221 6.41338926,5.625 6.45928525,5.625 C6.65483771,5.625 6.8383268,5.63598002 7.00979172,5.65802134 L6.97205681,5.9681054 C6.85663982,5.95326887 6.73463666,5.94381218 6.60606245,5.9397667 C6.85048497,6.18835335 7.14113557,6.41675883 7.47503109,6.62601094 L7.34311956,6.84835316 C6.92858701,6.58856586 6.57577146,6.29893512 6.28511331,5.97960015 C6.24854726,5.99341221 6.20181701,6.01325415 6.14206778,6.03936899 L6.11960239,6.04853231 C6.37345303,6.31476313 6.6735951,6.55959126 7.02031643,6.78312955 L6.88567205,7.00373455 C6.48477936,6.7452709 6.14167064,6.45814362 5.8567266,6.14250192 C5.72162505,6.17839435 5.60703197,6.17764137 5.47297297,6.13831041 L5.55643325,5.83781369 L5.6160221,5.85076998 C5.35165368,5.49893398 5.15244747,5.11526578 5.01885358,4.6999418 C4.99508825,4.62605881 4.97475549,4.55082712 4.95784932,4.4742473 C4.85420724,4.45592514 4.76705502,4.4170859 4.67660929,4.35052307 L4.85781223,4.09669361 L4.90541912,4.12698595 C4.87299264,3.74411786 4.91778003,3.33081182 5.03913713,2.88712953 C4.96293696,2.7999738 4.91655395,2.7094353 4.88796971,2.59172346 L5.15342039,2.52322497 C5.29650422,2.11800663 5.49887524,1.68922786 5.76009306,1.23693085 L5.97797804,1.36985528 C5.6931382,1.86305367 5.48210178,2.32379776 5.34421778,2.75214989 C5.38242445,2.78681568 5.42977557,2.82446699 5.48780619,2.86751264 C5.62648643,2.36393209 5.86984164,1.81982204 6.21699274,1.23553347 Z M5.3391927,4.48639244 L5.22293204,4.49183347 C5.23388622,4.53449764 5.24605141,4.57661977 5.25942618,4.6182 C5.39773809,5.0481916 5.61180039,5.44251502 5.90222468,5.80140998 C5.93775518,5.78815038 5.97815089,5.77142909 6.02307798,5.75179262 L6.07473264,5.72931018 C5.80931292,5.38640451 5.60933683,5.01231794 5.47527887,4.60720049 L5.4407663,4.48067511 C5.41130484,4.48203233 5.37777598,4.48395898 5.3391927,4.48639244 Z M5.15881091,4.11378957 L5.16384857,4.1809181 C5.17950364,4.18106181 5.19586182,4.18093538 5.21299746,4.18055897 L5.37529474,4.17250978 C5.33403412,3.868854 5.34596494,3.54490177 5.41069596,3.20069693 C5.38517725,3.17887011 5.35058222,3.15294043 5.3082029,3.12170585 L5.25150432,3.07964632 C5.16144074,3.45066232 5.13070197,3.7953615 5.15881091,4.11378957 Z" id="Combined-Shape" fill="#F7FCFF" fill-rule="nonzero" transform="translate(6.076936, 4.119634) scale(-1, 1) translate(-6.076936, -4.119634) "></path>
                    <path d="M2.65815617,6.41506243 L1.96045502,7.10543677 C2.36155781,7.35108178 2.94008815,7.47390428 3.69604604,7.47390428 C4.45200394,7.47390428 5.05008095,7.35108178 5.49027708,7.10543677 L4.95991076,6.41506243 C4.47811727,6.60177784 4.06660237,6.69513555 3.72536605,6.69513555 C3.38412973,6.69513555 3.02839311,6.60177784 2.65815617,6.41506243 Z" id="Path-403" fill="#F7FCFF"></path>
                    <path d="M2.67272036,6.85561627 C3.0665155,6.94853748 3.41435681,6.99499808 3.71624427,6.99499808 C4.01813174,6.99499808 4.36597304,6.94853748 4.75976818,6.85561627" id="Path-404" stroke="#C00001" stroke-width="0.5"></path>
                    <path d="M2.95237222,1.79250284 L2.9513967,2.78266667 L2.98459196,2.78293919 L3.14987821,2.65625 L4.31203428,2.65625 L4.50795962,2.78293919 L4.6053967,2.78266667 L4.60619769,1.79250284 L4.91025174,1.79250284 L4.9093967,2.78266667 L5.01689189,2.78293919 L5.01689189,2.95185811 L4.9093967,2.95166667 L4.91025174,4.74777886 C4.91025174,4.85324676 5.02296895,5.03445148 5.25877434,5.27006961 L5.52726925,5.53835129 L1.7913967,5.53835129 L2.41212597,5.24051966 C2.52892867,5.18447664 2.61226008,5.02316548 2.64831817,4.73786841 L2.6473967,2.95166667 L2.38175676,2.95185811 L2.38175676,2.78293919 L2.6473967,2.78266667 L2.64831817,1.79250284 L2.95237222,1.79250284 Z M4.6053967,2.95166667 L2.9513967,2.95166667 L2.95237222,4.75750271 C2.92908094,4.94908672 2.88816123,5.10265705 2.82695704,5.22585129 L4.80844287,5.22585129 C4.67467552,5.04979519 4.60619769,4.89262284 4.60619769,4.74777886 L4.6053967,2.95166667 Z M3.80067568,3.75 L4.45945946,5.05208333 L3.14189189,5.05208333 L3.14189189,3.75 L3.80067568,3.75 Z M3.75,1.66666667 C4.05786143,1.66666667 4.30743243,1.88819244 4.30743243,2.16145833 C4.30743243,2.43472423 4.05786143,2.65625 3.75,2.65625 C3.44213857,2.65625 3.19256757,2.43472423 3.19256757,2.16145833 C3.19256757,1.88819244 3.44213857,1.66666667 3.75,1.66666667 Z" id="Combined-Shape" fill="#F7FCFF" fill-rule="nonzero"></path>
                    <path d="M4.05091452,0.246592267 C4.05027726,0.244437323 4.04972683,0.242873881 4.04929254,0.241923884 C4.04946548,0.242302178 4.04964277,0.242682282 4.04982443,0.24306412 L4.05091452,0.246592267 Z M3.90169756,0.447672242 C3.68009456,0.686145585 3.44846843,0.686145585 3.25942638,0.537349168 C3.21339784,0.501119757 3.18045116,0.464668373 3.1610337,0.437719948 L3.15726288,0.432111832 C3.15118833,0.422413655 3.13749465,0.404400295 3.11936708,0.386764194 C3.07141494,0.340112112 3.04749382,0.337012327 3.00683473,0.388010746 C2.99785547,0.399273374 2.98867555,0.412882127 2.97939192,0.428939297 C2.87487338,0.609717037 2.79114325,0.712377516 2.69206685,0.756000914 C2.55746735,0.815265152 2.43090287,0.751329098 2.31794745,0.587371567 C2.2609163,0.504589475 2.18534516,0.485199607 2.14543168,0.518385736 C2.09031193,0.564215125 2.08664648,0.698241968 2.18464474,0.900405982 C2.2930133,1.12396327 2.31361696,1.27720486 2.19245916,1.35774939 C2.0922663,1.42435663 1.93985389,1.38663702 1.70631801,1.26810004 L1.79607511,1.08130429 C1.89008034,1.129019 1.96582477,1.15975834 2.02174492,1.17359768 C2.04361154,1.17900931 2.05970096,1.18125706 2.06978766,1.18218465 C2.06958848,1.18005122 2.06932543,1.17772438 2.06898686,1.17520625 C2.06351963,1.13454327 2.04179253,1.07289706 2.00321231,0.993308573 C1.86764965,0.713651623 1.87414981,0.475973942 2.01794329,0.356416639 C2.15745145,0.240422377 2.36376368,0.293357492 2.48337852,0.466981337 C2.54733783,0.559819826 2.58251567,0.577590468 2.61224524,0.564500521 C2.65856369,0.544106478 2.72195161,0.466387332 2.80513305,0.322514761 C2.8194434,0.297763244 2.83439391,0.275599889 2.85004576,0.255967878 C2.97843265,0.0949331042 3.13513837,0.1152396 3.2587147,0.235465575 C3.28858791,0.264528878 3.31087087,0.293256769 3.32518898,0.315394881 C3.32731977,0.318123157 3.33138324,0.323035007 3.33722103,0.329493796 C3.35024633,0.343904661 3.36553789,0.358461104 3.38267272,0.371948059 C3.49443425,0.459916397 3.61002068,0.459916397 3.75510981,0.303781816 C3.94462119,0.0998431853 4.0552784,0.0243486845 4.16106376,0.0765832058 C4.21926506,0.105321744 4.24357501,0.158498271 4.25358384,0.229838192 C4.25885887,0.26743697 4.25977796,0.299027827 4.25977796,0.375727029 C4.25977796,0.432024563 4.24385788,0.492439471 4.21348866,0.573242978 C4.21569431,0.572527411 4.2184261,0.570464672 4.22118841,0.568371859 C4.37369369,0.452829042 4.40261884,0.358432837 4.36785312,0.276126922 C4.34071713,0.249837156 4.32219953,0.228852939 4.31080112,0.210736805 C4.30575864,0.202722503 4.3015376,0.194580914 4.29809125,0.184897435 C4.28823635,0.157207404 4.28600962,0.128353903 4.30545164,0.0940116125 C4.33278808,0.0457246808 4.37801081,0.0352481583 4.41723734,0.0443348875 C4.43062807,0.047436816 4.44102256,0.0522996073 4.45102569,0.0585000495 C4.48018369,0.0765736382 4.51166783,0.113006797 4.53586115,0.156424169 C4.58469332,0.217215132 4.61243127,0.292608881 4.6262275,0.382120796 C4.6303641,0.408959676 4.6328454,0.431119929 4.63476094,0.459623554 C4.64680599,0.426009409 4.65704353,0.386723617 4.66518862,0.343397791 C4.66828002,0.32695384 4.67020775,0.315249111 4.67380118,0.292133279 C4.67538854,0.281922096 4.67606674,0.277697443 4.67691743,0.272992354 C4.67780989,0.268149133 4.67780989,0.268149133 4.67931124,0.26155393 C4.68247,0.248711339 4.6854372,0.239969145 4.69445966,0.226256923 C4.70261541,0.214391565 4.70261541,0.214391565 4.7224855,0.197658896 C4.75428497,0.180294387 4.75428497,0.180294387 4.80154722,0.182849903 C4.86377778,0.219777288 4.86377778,0.219777288 4.87182945,0.242661339 C4.87698577,0.254646059 4.87868946,0.262671751 4.88014418,0.273328493 C4.88103762,0.279873405 4.88158047,0.286809481 4.88215915,0.297000163 C4.88257061,0.304246246 4.88299867,0.313235939 4.88361148,0.327190029 C4.88386065,0.332863876 4.88511254,0.36195589 4.88551022,0.371050102 C4.88627574,0.388556112 4.88657187,0.406433697 4.88643121,0.424790383 C4.88612229,0.465106527 4.88412284,0.502459389 4.87990995,0.549993874 C4.93116515,0.499958673 5.00865227,0.512447677 5.09592256,0.560324451 C5.18208122,0.607591385 5.23535954,0.675711245 5.25852328,0.758739713 C5.26521647,0.782730857 5.2691089,0.804538934 5.27098933,0.827874524 C5.30350494,0.791745051 5.33530359,0.732823275 5.36370224,0.655659918 C5.39166113,0.579691407 5.44351428,0.378071304 5.44005203,0.388386117 C5.44482839,0.374156264 5.44933744,0.363720511 5.45865959,0.350956622 C5.47575155,0.327554304 5.49919203,0.309725481 5.53737196,0.30820417 C5.58347818,0.30636703 5.61386663,0.331084725 5.63096773,0.3622742 C5.64413231,0.386284132 5.64577847,0.39971754 5.64759597,0.438526702 C5.6491678,0.47209004 5.64952893,0.521704581 5.64952893,0.652219309 C5.64952893,0.910143062 5.68750452,1.09728734 5.7367575,1.17466006 C5.73676346,1.17466943 5.77686568,1.17468346 5.85706416,1.17470217 C5.85706416,1.37915857 5.68282187,1.47045836 5.56713289,1.28871967 C5.51677648,1.20961354 5.47969671,1.08212851 5.46083966,0.917328042 C5.42606615,0.968320037 5.38628003,1.00851783 5.33974227,1.03664719 C5.2418061,1.09584388 5.18921313,1.1141362 5.12645448,1.07380999 C5.08636233,1.04804836 5.0714538,1.01082039 5.06784625,0.967604531 C5.06637728,0.950007326 5.06663437,0.94092264 5.06847153,0.905331123 C5.07075611,0.861071624 5.069836,0.838255135 5.06367242,0.816162282 C5.06056009,0.805006418 5.0560516,0.794824828 5.0495452,0.785346022 C5.05713907,0.842830289 5.05743304,0.883810439 5.04564666,0.92548921 C5.02355403,1.00361275 4.96041688,1.05102394 4.8752166,1.05102394 C4.75737249,1.05102394 4.68237031,0.981595811 4.66253769,0.869010847 C4.6561926,0.83299137 4.65425167,0.803493499 4.65677708,0.756503648 C4.58410336,0.797513742 4.50928785,0.792917756 4.46478532,0.71180084 C4.45323735,0.690751792 4.44686455,0.672527495 4.44290498,0.646311056 C4.41382841,0.676819617 4.38006928,0.706818599 4.34146455,0.736066759 C4.25927132,0.798338946 4.19849766,0.838733509 4.15305399,0.86080137 C4.07362342,0.899373574 4.00145929,0.903212166 3.95774571,0.821402933 C3.93189494,0.773023651 3.93792598,0.731019074 3.95973695,0.665235281 C3.96551447,0.647809797 3.97257306,0.628885599 3.98212986,0.604716914 C3.98720701,0.591877048 4.00534787,0.546933198 4.00715382,0.542418557 C4.01396906,0.525381281 4.01942848,0.511408717 4.02440267,0.498173884 C4.04625865,0.440021569 4.05707525,0.398973768 4.05707525,0.375727029 C4.05707525,0.341436665 4.05686293,0.317768424 4.05618327,0.299585609 C4.01737029,0.329604814 3.96595539,0.378522543 3.90169756,0.447672242 Z M5.03488161,0.67685148 C5.03507912,0.675548487 5.03521901,0.674356931 5.03531174,0.673273798 C5.03527528,0.673699717 5.0352423,0.67416343 5.03521308,0.674664459 L5.03488161,0.67685148 Z M5.63134386,0.459178752 C5.63167219,0.458234489 5.63199546,0.45728552 5.63231686,0.456327984 C5.63218781,0.456712443 5.63203859,0.457180617 5.63186997,0.457729275 L5.63134386,0.459178752 Z M5.44486943,0.441927805 C5.44466135,0.439500282 5.44446614,0.437556005 5.44429012,0.436119558 C5.44435495,0.436648602 5.44442043,0.437175207 5.44448674,0.437699669 L5.44486943,0.441927805 Z M4.87400273,0.84272207 C4.8751581,0.84270155 4.87635527,0.842690611 4.87759578,0.842690611 C4.87708324,0.842690611 4.87649498,0.842764525 4.87583785,0.842908876 L4.87400273,0.84272207 Z M4.48219175,0.0995004357 C4.48179962,0.0988624136 4.48140737,0.0982319142 4.48101498,0.0976082665 C4.48115307,0.0978277292 4.48144998,0.0982221547 4.48190241,0.098784424 L4.48219175,0.0995004357 Z" id="Path-407" fill="#F7FCFF" fill-rule="nonzero"></path>
                    <path d="M1.87055132,2.91756027 L2.82901922,4.32445127 L2.70448499,4.41407115 L2.14487598,3.59216553 C2.06627673,3.62458754 2.00468665,3.69258369 1.96010574,3.796154 C1.89520948,3.9469209 1.85032709,4.15485496 1.82545859,4.41995617 L1.82545859,4.41995617 L1.46781926,4.19027553 C1.54764579,4.00406452 1.58755905,3.79730723 1.58755905,3.57000365 C1.58755905,3.37149186 1.68227422,3.24524921 1.87170455,3.19127571 L1.74601709,3.00718014 L1.87055132,2.91756027 Z" id="Combined-Shape" fill="#F7FCFF" fill-rule="nonzero"></path>
                    <path d="M5.11379457,2.91756027 L6.07226246,4.32445127 L5.94772823,4.41407115 L5.38811922,3.59216553 C5.30951998,3.62458754 5.2479299,3.69258369 5.20334898,3.796154 C5.13845272,3.9469209 5.09357034,4.15485496 5.06870183,4.41995617 L5.06870183,4.41995617 L4.71106251,4.19027553 C4.79088903,4.00406452 4.8308023,3.79730723 4.8308023,3.57000365 C4.8308023,3.37149186 4.92551746,3.24524921 5.11494779,3.19127571 L4.98926033,3.00718014 L5.11379457,2.91756027 Z" id="Combined-Shape" fill="#F7FCFF" fill-rule="nonzero" transform="translate(5.391662, 3.668758) scale(-1, 1) translate(-5.391662, -3.668758) "></path>
                </g>
            </g>
        </g>
    </g>
</svg>