<?xml version="1.0" encoding="UTF-8"?>
<svg width="20px" height="15px" viewBox="0 0 20 15" version="1.1" xmlns="http://www.w3.org/2000/svg" xmlns:xlink="http://www.w3.org/1999/xlink">
    <title>flags/M/AI - Anguilla</title>
    <defs>
        <rect id="path-1" x="0" y="0" width="20" height="15"></rect>
        <rect id="path-3" x="0" y="0" width="20" height="15"></rect>
        <rect id="path-5" x="0" y="0" width="11" height="9"></rect>
    </defs>
    <g id="Symbols" stroke="none" stroke-width="1" fill="none" fill-rule="evenodd">
        <g id="flag">
            <mask id="mask-2" fill="white">
                <use xlink:href="#path-1"></use>
            </mask>
            <g id="mask"></g>
            <g id="contents" mask="url(#mask-2)">
                <mask id="mask-4" fill="white">
                    <use xlink:href="#path-3"></use>
                </mask>
                <use id="background" fill="#2E42A5" xlink:href="#path-3"></use>
                <g id="mark-2" mask="url(#mask-4)">
                    <g transform="translate(13.750000, 7.500000)">
                        <path d="M4.72604912,0.270431819 C4.81541325,1.92285344 4.84296412,3.55423644 4.39523831,4.66869982 C4.22750513,5.08621537 3.99167592,5.42797719 3.65510958,5.65652032 C3.34716053,5.86563107 2.95705437,5.97749281 2.46889143,5.97749281 C2.02502017,5.97749281 1.66834163,5.90415557 1.3836217,5.75694133 C1.09661567,5.60854507 0.886899224,5.38463487 0.731781527,5.09690503 C0.318214103,4.32977344 0.272403428,3.14503105 0.269163659,1.68419984 C0.269955561,1.4155561 0.270628922,1.19588293 0.271195188,1.01339589 L0.271965696,0.766081881 C0.272081204,0.729020128 0.272190376,0.693914245 0.272293391,0.6605801 L0.272839028,0.480363034 C0.272918131,0.453379315 0.272991434,0.42779907 0.273059116,0.403438168 L0.273399195,0.270431819 Z" id="Path-2" stroke="#E6E617" stroke-width="0.5" fill="#FFFFFF" fill-rule="evenodd"></path>
                        <path d="M0.495811526,5.19618656 C0.869371218,6.02951989 1.52287295,6.44618656 2.45631673,6.44618656 C3.38350342,6.44618656 4.03910978,6.0350872 4.42313581,5.21288847 L0.495811526,5.19618656 Z" id="Path-2" stroke="none" fill="#82E5FF" fill-rule="evenodd"></path>
                        <path d="M2.40942029,3.125 C2.89612126,3.125 3.29067034,2.73324916 3.29067034,2.25 C3.29067034,1.76675084 2.89612126,1.375 2.40942029,1.375 C1.92271932,1.375 1.52817024,1.76675084 1.52817024,2.25 C1.52817024,2.73324916 1.92271932,3.125 2.40942029,3.125 Z M2.40942029,3.75 C1.57853324,3.75 0.903170236,3.07942685 0.903170236,2.25 C0.903170236,1.42057315 1.57853324,0.75 2.40942029,0.75 C3.24030734,0.75 3.91567034,1.42057315 3.91567034,2.25 C3.91567034,3.07942685 3.24030734,3.75 2.40942029,3.75 Z" id="Oval" stroke="none" fill="#E18600" fill-rule="nonzero"></path>
                        <path d="M2.15518089,0.541043111 C1.78974097,0.706790142 1.64667683,0.945461613 1.72598847,1.25705752 C1.80530012,1.56865343 1.88976581,1.74664863 1.97938554,1.79104311 C2.10846706,1.11646955 2.4335963,0.779182764 2.95477325,0.779182764 L2.15518089,0.541043111 Z" id="Path-3" stroke="none" fill="#E18600" fill-rule="evenodd"></path>
                        <path d="M1.47570629,2.0145391 C1.11026637,2.18028613 0.96720223,2.4189576 1.04651387,2.73055351 C1.12582552,3.04214942 1.21029121,3.22014462 1.29991094,3.2645391 C1.42899246,2.58996553 1.7541217,2.25267875 2.27529865,2.25267875 L1.47570629,2.0145391 Z" id="Path-3" stroke="none" fill="#E18600" fill-rule="evenodd" transform="translate(1.650299, 2.639539) rotate(-115.000000) translate(-1.650299, -2.639539) "></path>
                        <path d="M3.08741008,2.2672006 C2.72197016,2.43294763 2.57890602,2.6716191 2.65821766,2.98321502 C2.73752931,3.29481093 2.821995,3.47280612 2.91161473,3.5172006 C3.04069625,2.84262704 3.36582549,2.50534026 3.88700244,2.50534026 L3.08741008,2.2672006 Z" id="Path-3" stroke="none" fill="#E18600" fill-rule="evenodd" transform="translate(3.262002, 2.892201) rotate(-244.000000) translate(-3.262002, -2.892201) "></path>
                    </g>
                </g>
                <g id="gb---medium" mask="url(#mask-4)">
                    <g id="flag">
                        <mask id="mask-6" fill="white">
                            <use xlink:href="#path-5"></use>
                        </mask>
                        <use id="mask" fill="#2E42A5" xlink:href="#path-5"></use>
                        <g id="contents" mask="url(#mask-6)">
                            <g transform="translate(-2.500000, -1.250000)">
                                <g id="stripe" transform="translate(1.000000, 0.000000)">
                                    <polygon id="white" fill="#F7FCFF" fill-rule="nonzero" transform="translate(7.179664, 5.457378) scale(1, -1) translate(-7.179664, -5.457378) " points="0.247333589 1.53986811 2.72292762 0.454117833 12.8061752 8.48429142 14.1119945 10.0977486 11.4647029 10.4606384 7.35198716 7.00020684 4.04167375 4.66868453"></polygon>
                                    <polygon id="red" fill="#F50100" fill-rule="nonzero" transform="translate(7.114665, 5.716384) scale(1, -1) translate(-7.114665, -5.716384) " points="0.586246133 1.29717712 1.84744698 0.66709794 13.6430838 10.7656701 11.8722111 10.7656701"></polygon>
                                </g>
                                <g id="stripe" transform="translate(7.750000, 5.500000) scale(-1, 1) translate(-7.750000, -5.500000) translate(0.250000, 0.000000)">
                                    <polygon id="white" fill="#F7FCFF" fill-rule="nonzero" transform="translate(7.179664, 5.612355) scale(1, -1) translate(-7.179664, -5.612355) " points="0.247333589 1.84982105 2.4444201 0.454117833 12.8061752 8.79424437 14.1119945 10.4077016 11.4647029 10.7705913 7.35198716 7.31015978 4.04167375 4.97863747"></polygon>
                                    <polygon id="red" fill="#F50100" fill-rule="nonzero" transform="translate(7.284723, 5.686725) scale(1, -1) translate(-7.284723, -5.686725) " points="0.331803828 1.45261194 1.59300468 0.822532761 6.61570908 5.14625614 8.10483314 5.62933537 14.237643 10.5509178 12.4667702 10.5509178 6.33740601 5.74615285 4.70931125 5.16688909"></polygon>
                                </g>
                                <g id="cross" transform="translate(2.500000, 1.250000)">
                                    <path d="M6.46875,-0.46875 L6.46875,3.53125 L11.46875,3.53125 L11.46875,5.46875 L6.46875,5.46875 L6.46875,9.46875 L4.53125,9.46875 L4.53125,5.46875 L-0.46875,5.46875 L-0.46875,3.53125 L4.53125,3.53125 L4.53125,-0.46875 L6.46875,-0.46875 Z" id="red" stroke="#F7FCFF" stroke-width="0.9375" fill="#F50100"></path>
                                </g>
                            </g>
                        </g>
                    </g>
                </g>
            </g>
        </g>
    </g>
</svg>