<?xml version="1.0" encoding="UTF-8"?>
<svg width="20px" height="15px" viewBox="0 0 20 15" version="1.1" xmlns="http://www.w3.org/2000/svg" xmlns:xlink="http://www.w3.org/1999/xlink">
    <title>flags/M/AO - Angola</title>
    <defs>
        <rect id="path-1" x="0" y="0" width="20" height="15"></rect>
        <rect id="path-3" x="0" y="0" width="20" height="15"></rect>
        <path d="M3.3937875,0.0168125 C5.6015375,0.0168125 8.0604625,1.8065875 8.0604625,4.0143125 C8.0604625,4.94919854 7.73954253,5.81662699 7.20186358,6.50610013 C8.18673508,6.99710976 9.018625,7.3797125 9.018625,7.3797125 C9.327525,7.5822875 9.4138625,8.1225125 9.21135,8.4315875 C9.0086875,8.7404875 8.593825,8.82675 8.2850125,8.6243125 C8.2850125,8.6243125 7.93387361,8.41665139 7.55714028,8.18468472 L7.3306333,8.0440549 C7.2184485,7.9737485 7.10982,7.904555 7.0135375,7.841425 C6.79279607,7.6967249 6.53753405,7.53987727 6.2658618,7.37919102 C5.63427442,7.80470281 4.87698824,8.0537625 4.062875,8.0537625 C4.062875,8.0537625 1.1271875,7.694175 1.2112,6.188775 C1.2112,6.188775 1.9219,6.732425 4.0126,6.732425 C4.34475713,6.732425 4.63680551,6.68598575 4.89310583,6.6043417 C3.98706233,6.10888939 3.2208625,5.7181125 3.2208625,5.7181125 C2.9117375,5.515575 2.1078875,4.48865 2.310475,4.1795625 C2.5131375,3.870625 3.73835,4.21985 4.0472375,4.422325 C4.0472375,4.422325 4.4768625,5.01235 5.083175,5.3730875 C5.35074809,5.53226133 5.65277355,5.70064859 5.96757254,5.86949671 C6.45331228,5.27095185 6.605,4.49719469 6.605,4.0143125 C6.605,1.85568347 4.34612419,0.506003447 3.61745458,0.126778597 L3.47818814,0.0565656973 C3.42386129,0.0301462669 3.3937875,0.0168125 3.3937875,0.0168125 Z M4.48773379,3.62653972 L3.85658842,4.04708276 L4.05826261,3.32679258 L3.5949365,2.86667066 L4.22230601,2.84179151 L4.48773379,2.12953151 L4.75316158,2.84179151 L5.37946369,2.84179151 L4.91720497,3.32679258 L5.14871149,4.00456945 L4.48773379,3.62653972 Z" id="path-5"></path>
        <filter x="0.0%" y="-0.0%" width="100.0%" height="100.0%" filterUnits="objectBoundingBox" id="filter-6">
            <feOffset dx="0" dy="0" in="SourceAlpha" result="shadowOffsetOuter1"></feOffset>
            <feColorMatrix values="0 0 0 0 0   0 0 0 0 0   0 0 0 0 0  0 0 0 0.2 0" type="matrix" in="shadowOffsetOuter1"></feColorMatrix>
        </filter>
    </defs>
    <g id="Symbols" stroke="none" stroke-width="1" fill="none" fill-rule="evenodd">
        <g id="flag">
            <mask id="mask-2" fill="white">
                <use xlink:href="#path-1"></use>
            </mask>
            <g id="mask"></g>
            <g id="contents" mask="url(#mask-2)">
                <mask id="mask-4" fill="white">
                    <use xlink:href="#path-3"></use>
                </mask>
                <use id="background" fill="#1D1D1D" xlink:href="#path-3"></use>
                <rect id="top" fill="#F50100" mask="url(#mask-4)" x="0" y="0" width="20" height="7.5"></rect>
                <g id="mark" mask="url(#mask-4)">
                    <g transform="translate(3.750000, 2.500000)" id="Combined-shape-1566">
                        <use fill="black" fill-opacity="1" filter="url(#filter-6)" xlink:href="#path-5"></use>
                        <use fill="#FCFF01" fill-rule="evenodd" xlink:href="#path-5"></use>
                        <use fill="#FFEA42" fill-rule="evenodd" xlink:href="#path-5"></use>
                    </g>
                </g>
            </g>
        </g>
    </g>
</svg>