<?xml version="1.0" encoding="UTF-8"?>
<svg width="20px" height="15px" viewBox="0 0 20 15" version="1.1" xmlns="http://www.w3.org/2000/svg" xmlns:xlink="http://www.w3.org/1999/xlink">
    <title>flags/M/AR - Argentina</title>
    <defs>
        <rect id="path-1" x="0" y="0" width="20" height="15"></rect>
        <rect id="path-3" x="0" y="0" width="20" height="15"></rect>
    </defs>
    <g id="Symbols" stroke="none" stroke-width="1" fill="none" fill-rule="evenodd">
        <g id="flag">
            <mask id="mask-2" fill="white">
                <use xlink:href="#path-1"></use>
            </mask>
            <g id="mask"></g>
            <g id="contents" mask="url(#mask-2)">
                <mask id="mask-4" fill="white">
                    <use xlink:href="#path-3"></use>
                </mask>
                <use id="background" fill="#F7FCFF" xlink:href="#path-3"></use>
                <rect id="top" fill="#58A5FF" mask="url(#mask-4)" x="0" y="0" width="20" height="5"></rect>
                <rect id="bottom" fill="#58A5FF" mask="url(#mask-4)" x="0" y="10" width="20" height="5"></rect>
                <g id="mark" mask="url(#mask-4)" fill="#FFD018" stroke="#F19900" stroke-opacity="0.98" stroke-width="0.5">
                    <g transform="translate(6.250000, 3.750000)">
                        <path d="M4.09541307,5.30448103 C3.66962381,6.18727679 3.26961591,6.71917241 2.89538937,6.9001679 C3.05691831,6.49526637 3.16741141,5.8797453 3.22686866,5.05360469 C2.25523728,5.43882904 1.59890537,5.59633696 1.25787293,5.52612846 C1.6679511,5.23957154 2.15759034,4.83091363 2.72679067,4.30015473 C1.46919564,3.88901468 0.855824777,3.59595574 0.886678091,3.4209779 C1.45437686,3.5228125 2.12858413,3.51822396 2.90929993,3.40721227 C2.02705146,2.34919712 1.63066246,1.78085056 1.72013293,1.70217258 C1.85461228,1.8328866 2.45050927,2.17439367 3.5078239,2.72669377 C3.58453164,1.7853602 3.73665778,1.1560051 3.96420232,0.83862846 C3.99149648,1.06265983 4.16483095,1.6818354 4.48420572,2.69615516 C5.12623915,2.05374973 5.62543053,1.73254701 5.98177987,1.73254701 C5.82525595,1.92661531 5.56168255,2.44988732 5.19105967,3.30236304 C6.11472682,3.2878271 6.75213005,3.36699763 7.10326936,3.53987463 C6.67789996,3.60037812 6.09259845,3.81769483 5.34736483,4.19182475 C6.31796881,4.92808665 6.75902444,5.37285455 6.67053171,5.52612846 C6.14941093,5.27120472 5.58761286,5.10105447 4.98513748,5.0156777 C5.15166596,6.04028646 5.16762522,6.66844986 5.03301527,6.9001679 C4.90173132,6.55908003 4.58919725,6.02718441 4.09541307,5.30448103 Z" id="Star-2"></path>
                        <path d="M4.01167809,4.58862846 C4.35685606,4.58862846 4.63667809,4.30880643 4.63667809,3.96362846 C4.63667809,3.61845049 4.35685606,3.33862846 4.01167809,3.33862846 C3.66650012,3.33862846 3.38667809,3.61845049 3.38667809,3.96362846 C3.38667809,4.30880643 3.66650012,4.58862846 4.01167809,4.58862846 Z" id="Oval-61"></path>
                    </g>
                </g>
            </g>
        </g>
    </g>
</svg>