<?xml version="1.0" encoding="UTF-8"?>
<svg width="20px" height="15px" viewBox="0 0 20 15" version="1.1" xmlns="http://www.w3.org/2000/svg" xmlns:xlink="http://www.w3.org/1999/xlink">
    <title>flags/M/AS - American Samoa</title>
    <defs>
        <rect id="path-1" x="0" y="0" width="20" height="15"></rect>
    </defs>
    <g id="Symbols" stroke="none" stroke-width="1" fill="none" fill-rule="evenodd">
        <g id="flag">
            <mask id="mask-2" fill="white">
                <use xlink:href="#path-1"></use>
            </mask>
            <g id="mask"></g>
            <g id="contents" mask="url(#mask-2)">
                <polygon id="middle" fill="#F7FCFF" points="0 0 20 0 20 15 0 15"></polygon>
                <path d="M-0.625,6.59812471 L23.4466674,15.625 L-0.625,15.625 L-0.625,6.59812471 Z M23.4466674,-0.625 L-0.625,8.40187529 L-0.625,-0.625 L23.4466674,-0.625 Z" id="blue" stroke="#E31D1C" stroke-width="1.25" fill="#3547A0"></path>
                <g id="mark" transform="translate(10.625000, 3.750000)">
                    <path d="M6.93097268,0.0170282973 C3.57127825,0.889353389 1.89143103,1.39262897 1.89143103,1.52685503 C1.89143103,1.72819412 1.43801723,2.36612363 1.53086754,2.53265306 C1.62371785,2.69918249 1.86485354,2.91987576 2.06286542,2.80952913 C2.2608773,2.69918249 2.73125008,2.255777 2.57340456,2.53265306 C2.41555903,2.80952913 3.42212515,3.1314489 2.99776485,3.74291545 C3.33760669,3.54700776 3.42526911,4.00610135 3.26075212,5.12019624 L4.47429108,5.46606341 C5.37784329,5.22916666 5.62340001,4.77174177 5.21096123,4.09378876 L5.92934751,4.09378876 C5.73090741,3.21524466 5.77832208,2.6948661 6.0715915,2.53265306 C6.36486091,2.37044003 6.21540333,2.22768452 5.62321875,2.10438652 C6.87520772,1.39167027 7.3111257,0.69588419 6.93097268,0.0170282973 Z" id="Path-2" fill="#C44800"></path>
                    <polygon id="Path-3" fill="#FFC221" points="6.09670948 5.60654337 3.05465127 5.09242458 2.65614139 4.55909675 0.929056882 4.90684529 2.44519925 5.76573893 2.95484427 5.49143878 6.09670948 5.99305529"></polygon>
                    <path d="M6.56400933,6.07426034 L6.56400933,5.77287827 L3.15317046,5.56534306 C3.01607297,5.43845023 2.77842203,5.37500381 2.44021765,5.37500381 C2.10201327,5.37500381 1.91360739,5.50762863 1.875,5.77287827 C2.06890812,6.15945119 2.35387833,6.35273765 2.72991061,6.35273765 C3.29395904,6.35273765 4.17108495,6.48821686 4.40864418,6.76711188 C4.56701701,6.9530419 4.97434328,6.90528304 5.63062302,6.6238353 C5.35019216,6.14149627 5.03007639,5.97572857 4.67027572,6.1265322 C4.13057471,6.35273765 3.15317046,6.01696363 3.15317046,5.89492095 C3.15317046,5.81355916 4.29011675,5.87333896 6.56400933,6.07426034 Z" id="Path-4" fill="#FFC221"></path>
                    <path d="M0.803395187,3.63388648 C0.582966254,4.10632965 0.512766949,4.43187264 0.592797272,4.61051543 C0.944876601,4.97818105 1.44092322,4.86916853 2.08093713,4.28347787 L0.803395187,3.63388648 Z" id="Path-6" fill="#FFC221"></path>
                    <path d="M5.97799143,2.33185667 C3.32685014,2.30752577 1.81851519,2.57263341 1.45298658,3.12717957 C1.08745797,3.68172573 1.11259702,4.0550794 1.52840373,4.24724059 C2.94210094,3.50962527 4.3907362,3.32522144 5.87430952,3.6940291 C6.11448168,3.57049627 6.23456777,3.34623824 6.23456777,3.021255 C6.23456777,2.69627175 6.14904232,2.49274331 5.97799143,2.41066967 L5.97799143,2.33185667 Z M6.54706777,3.021255 C6.54706777,3.45723532 6.3680941,3.79146459 6.01724515,3.97192414 L5.79891847,3.99729868 C4.39028232,3.64711996 3.01977225,3.82157886 1.67296087,4.52429561 L1.39730723,4.53091287 C0.77422665,4.24296199 0.734281144,3.64970958 1.19206912,2.95519605 C1.64475386,2.26842468 3.20661522,1.99390916 5.98085928,2.01936983 L6.29049143,2.02221148 L6.29049143,2.25101162 C6.46720104,2.42049142 6.54706777,2.68563682 6.54706777,3.021255 Z" id="Path-5" fill="#979797" fill-rule="nonzero"></path>
                    <path d="M5.97799143,2.33185667 C3.32685014,2.30752577 1.81851519,2.57263341 1.45298658,3.12717957 C1.08745797,3.68172573 1.11259702,4.0550794 1.52840373,4.24724059 C2.94210094,3.50962527 4.3907362,3.32522144 5.87430952,3.6940291 C6.11448168,3.57049627 6.23456777,3.34623824 6.23456777,3.021255 C6.23456777,2.69627175 6.14904232,2.49274331 5.97799143,2.41066967 L5.97799143,2.33185667 Z" id="Path-5" fill="#F7FCFF" fill-rule="nonzero"></path>
                </g>
            </g>
        </g>
    </g>
</svg>