<?xml version="1.0" encoding="UTF-8"?>
<svg width="20px" height="15px" viewBox="0 0 20 15" version="1.1" xmlns="http://www.w3.org/2000/svg" xmlns:xlink="http://www.w3.org/1999/xlink">
    <title>flags/M/BA - Bosnia and Herzegovina</title>
    <defs>
        <rect id="path-1" x="0" y="0" width="21.25" height="15"></rect>
    </defs>
    <g id="Symbols" stroke="none" stroke-width="1" fill="none" fill-rule="evenodd">
        <g id="flag">
            <mask id="mask-2" fill="white">
                <use xlink:href="#path-1"></use>
            </mask>
            <g id="mask"></g>
            <g id="contents" mask="url(#mask-2)">
                <g transform="translate(0.000000, -1.250000)">
                    <polygon id="background" fill="#2E42A5" points="0 1.25 20.25 1.25 20.25 16.25 0 16.25"></polygon>
                    <polygon id="middle" fill="#FECA00" points="6.25 1.25 19 1.25 19 16.25"></polygon>
                    <g id="mark" stroke-width="1" fill="none" transform="translate(2.500000, 0.000000)">
                        <polygon id="Star-3" fill="#F7FCFF" points="1.94252071 2.99611207 1.20778914 3.38238332 1.34811038 2.5642477 0.75370006 1.98484083 1.57515492 1.86547645 1.94252071 1.12111207 2.30988649 1.86547645 3.13134135 1.98484083 2.53693103 2.5642477 2.67725227 3.38238332"></polygon>
                        <polygon id="Star-3" fill="#F7FCFF" points="4.12170002 5.6711976 3.38696845 6.05746884 3.5272897 5.23933322 2.93287937 4.65992636 3.75433424 4.54056198 4.12170002 3.7961976 4.4890658 4.54056198 5.31052066 4.65992636 4.71611034 5.23933322 4.85643158 6.05746884"></polygon>
                        <polygon id="Star-3" fill="#F7FCFF" points="6.16463397 8.27402963 5.42990241 8.66030087 5.57022365 7.84216525 4.97581333 7.26275838 5.79726819 7.14339401 6.16463397 6.39902963 6.53199976 7.14339401 7.35345462 7.26275838 6.7590443 7.84216525 6.89936554 8.66030087"></polygon>
                        <polygon id="Star-3" fill="#F7FCFF" points="8.16585525 10.7682807 7.43112369 11.1545519 7.57144493 10.3364163 6.97703461 9.75700945 7.79848947 9.63764508 8.16585525 8.8932807 8.53322103 9.63764508 9.3546759 9.75700945 8.76026557 10.3364163 8.90058682 11.1545519"></polygon>
                        <polygon id="Star-3" fill="#F7FCFF" points="10.3215184 13.3354877 9.58678682 13.721759 9.72710806 12.9036234 9.13269774 12.3242165 9.9541526 12.2048521 10.3215184 11.4604877 10.6888842 12.2048521 11.510339 12.3242165 10.9159287 12.9036234 11.05625 13.721759"></polygon>
                        <polygon id="Star-3" fill="#F7FCFF" points="12.7042783 15.8194025 11.9695467 16.2056738 12.109868 15.3875382 11.5154576 14.8081313 12.3369125 14.6887669 12.7042783 13.9444025 13.0716441 14.6887669 13.8930989 14.8081313 13.2986886 15.3875382 13.4390099 16.2056738"></polygon>
                    </g>
                </g>
            </g>
        </g>
    </g>
</svg>