<?xml version="1.0" encoding="UTF-8"?>
<svg width="20px" height="15px" viewBox="0 0 20 15" version="1.1" xmlns="http://www.w3.org/2000/svg" xmlns:xlink="http://www.w3.org/1999/xlink">
    <title>flags/M/BB - Barbados</title>
    <defs>
        <rect id="path-1" x="0" y="0" width="20" height="15"></rect>
    </defs>
    <g id="Symbols" stroke="none" stroke-width="1" fill="none" fill-rule="evenodd">
        <g id="flag">
            <mask id="mask-2" fill="white">
                <use xlink:href="#path-1"></use>
            </mask>
            <g id="mask"></g>
            <g id="contents" mask="url(#mask-2)">
                <rect id="right" fill="#2E42A5" x="14" y="0" width="6" height="15"></rect>
                <rect id="middle" fill="#FECA00" x="6" y="0" width="8" height="15"></rect>
                <rect id="left" fill="#2E42A5" x="0" y="0" width="6" height="15"></rect>
                <path d="M11.5214219,9.5456594 C11.9169208,8.72752251 12.3731602,7.23459239 12.3731602,7.23459239 L12.7193171,6.20671104 L11.3473717,6.70351019 L11.6720439,6.89207182 C11.6720439,6.89207182 11.1061947,8.02318964 10.8212,8.5757515 C10.5362052,9.12831336 10.50799,8.76325515 10.50799,8.76325515 L10.5567557,4.90781644 L10.8716404,4.82243961 L10.0868848,3.31499556 L9.08568113,4.84333263 L9.52684257,4.85522889 C9.52684257,4.85522889 9.49017144,8.92311353 9.42885,8.76325515 C9.39463026,8.67245825 9.30357492,8.95308215 9.25920679,8.84438845 C8.98107024,8.16300542 8.60066817,6.84242143 8.60066817,6.84242143 L8.82325089,6.63418735 L7.33058057,6.32708627 L7.77621687,7.24475226 C7.77621687,7.24475226 8.1691948,8.87999254 8.60066817,9.67861 C8.69782817,9.93128 9.16729817,10.03906 9.16729817,10.03906 C9.16729817,10.03906 9.39651481,9.80638914 9.4533,10.03906 C9.51008519,10.2717309 9.4533,11.21092 9.4533,11.21092 L10.50799,11.21092 C10.50799,11.21092 10.4337297,10.3249073 10.50799,10.03906 C10.5822503,9.7532127 10.8124275,10.03906 10.8124275,10.03906 C10.8124275,10.03906 11.4244219,9.7983294 11.5214219,9.5456594 Z" id="mark" fill="#000000"></path>
            </g>
        </g>
    </g>
</svg>