<?xml version="1.0" encoding="UTF-8"?>
<svg width="20px" height="15px" viewBox="0 0 20 15" version="1.1" xmlns="http://www.w3.org/2000/svg" xmlns:xlink="http://www.w3.org/1999/xlink">
    <title>flags/M/BN - Brunei Darussalam</title>
    <defs>
        <rect id="path-1" x="0" y="0" width="20" height="15"></rect>
        <rect id="path-3" x="0" y="0" width="20" height="15"></rect>
    </defs>
    <g id="Symbols" stroke="none" stroke-width="1" fill="none" fill-rule="evenodd">
        <g id="flag">
            <mask id="mask-2" fill="white">
                <use xlink:href="#path-1"></use>
            </mask>
            <g id="mask"></g>
            <g id="contents" mask="url(#mask-2)">
                <mask id="mask-4" fill="white">
                    <use xlink:href="#path-3"></use>
                </mask>
                <use id="background" fill="#FFD221" xlink:href="#path-3"></use>
                <polygon id="Path-10" fill="#313131" fill-rule="nonzero" mask="url(#mask-4)" points="-1.91686458 6.63451482 -0.661870775 3.77258967 21.1047918 13.3175726 19.849798 16.1794977"></polygon>
                <polygon id="Path-10" fill="#FAF9F9" fill-rule="nonzero" mask="url(#mask-4)" points="-1.88577877 3.48094362 -0.631311078 0.618787823 22.21781 10.6334363 20.9633423 13.4955921"></polygon>
                <g id="mark" mask="url(#mask-4)">
                    <g transform="translate(3.750000, 1.750000)">
                        <path d="M0.0933938873,4.17444297 C0.698294957,4.19654957 0.997372332,4.40263551 0.990626012,4.79270077 C0.990626012,5.22700834 1.99500556,5.62056412 1.99500556,5.86926345 C1.99500556,6.035063 2.05742319,6.95376705 2.18225844,8.6253756 C2.09506652,8.77756213 1.84264646,8.8536554 1.42499827,8.8536554 C1.00735008,8.8536554 0.809609226,8.73337801 0.831775703,8.49282322 C1.08497966,8.18234174 1.08497966,7.35084244 0.831775703,5.99832531 C0.240707423,5.2729959 -0.00541984874,4.66503512 0.0933938873,4.17444297 Z M12.40693,4.17444297 C12.5057438,4.66503512 12.2596165,5.2729959 11.6685482,5.99832531 C11.4153443,7.35084244 11.4153443,8.18234174 11.6685482,8.49282322 C11.6907147,8.73337801 11.4929738,8.8536554 11.0753256,8.8536554 C10.6576775,8.8536554 10.4052574,8.77756213 10.3180655,8.6253756 C10.4429007,6.95376705 10.5053184,6.035063 10.5053184,5.86926345 C10.5053184,5.62056412 11.5096979,5.22700834 11.5096979,4.79270077 C11.5029516,4.40263551 11.802029,4.19654957 12.40693,4.17444297 Z" id="Combined-Shape" fill="#CF1225" fill-rule="evenodd"></path>
                        <path d="M6.41796354,2.29667893 L6.41796354,2.87315252 C6.57333633,2.70628825 6.82583361,2.58821279 7.17545537,2.51892612 C7.69988801,2.41499612 8.29278267,3.02987421 8.7531629,3.21963421 C9.06008305,3.34614088 9.28508622,3.34614088 9.42817241,3.21963421 C9.42817241,3.32672745 9.3140913,3.46273898 9.08592908,3.6276688 C8.98452364,3.70097093 8.8756673,3.73402312 8.75936006,3.72682536 L8.68913988,3.7167322 L8.71792858,3.74628416 C8.76279588,3.80528759 8.7455973,3.85903415 8.66633284,3.90752383 L8.61132627,3.93598681 C8.36150834,4.04731545 8.02653865,3.94454278 7.6064172,3.6276688 C8.1375119,4.01812809 8.29001634,4.21335774 8.06393053,4.21335774 C7.83784471,4.21335774 7.54168632,4.06523645 7.17545537,3.76899386 C7.61984605,4.19537606 7.722501,4.44177966 7.48342021,4.50820467 C7.2682475,4.56798718 7.01371921,4.2758466 6.87793776,4.07708032 L6.85313988,4.0397322 C6.84550084,4.1239904 6.70672332,4.14392559 6.66725449,4.24000966 L6.65685678,4.2950338 C6.65685678,4.48296155 6.57383381,4.39370042 6.57383381,4.50820467 L6.57383381,4.50820467 L6.57383381,4.6540201 L6.65685678,4.77647351 C6.65685678,4.90345773 6.62918246,5.01741586 6.57383381,5.11834789 C6.49081084,5.26974593 6.57383381,5.38934735 6.65685678,5.67751942 C6.71220543,5.86963413 6.6845311,6.12975154 6.57383381,6.45787166 L6.57383381,6.45787166 L6.65685678,6.45787166 C6.60150814,6.49828492 6.57383381,6.59939899 6.57383381,6.76121387 C6.57383381,7.00393618 6.65685678,7.11783363 6.81154915,7.44587283 C6.9146774,7.66456564 6.86311327,7.91293125 6.65685678,8.19096966 C7.00258917,8.03922776 7.1408031,8.03922776 7.07149856,8.19096966 C7.00219402,8.34271156 6.73033129,8.49176328 6.25591038,8.63812484 L6.35413988,8.6057322 L6.35440192,8.63812484 L6.30513988,8.6217322 L6.25591038,8.63812484 L6.25513988,8.6057322 L6.20376377,8.58923802 C5.82206778,8.45860747 5.60041777,8.32585135 5.53881373,8.19096966 C5.4695092,8.03922776 5.60772312,8.03922776 5.95345551,8.19096966 C5.74719902,7.91293125 5.6956349,7.66456564 5.79876314,7.44587283 C5.95345551,7.11783363 6.03647848,7.00393618 6.03647848,6.76121387 C6.03647848,6.59939899 6.00880416,6.49828492 5.95345551,6.45787166 L6.03647848,6.45787166 C5.92578119,6.12975154 5.89810687,5.86963413 5.95345551,5.67751942 C6.03647848,5.38934735 6.11950145,5.26974593 6.03647848,5.11834789 C5.98112983,5.01741586 5.95345551,4.90345773 5.95345551,4.77647351 L6.03647848,4.6540201 L6.03647848,4.50820467 L6.03647848,4.50820467 C6.03647848,4.39370042 5.95345551,4.48296155 5.95345551,4.2950338 C5.95345551,4.14886777 5.76629684,4.13753024 5.75589914,4.04275134 L5.75613988,4.0397322 L5.73237453,4.07708032 C5.59659309,4.2758466 5.34206479,4.56798718 5.12689208,4.50820467 C4.8878113,4.44177966 4.99046624,4.19537606 5.43485693,3.76899386 C5.06862597,4.06523645 4.77246758,4.21335774 4.54638177,4.21335774 C4.32029595,4.21335774 4.4728004,4.01812809 5.00389509,3.6276688 C4.58377364,3.94454278 4.24880395,4.04731545 3.99898603,3.93598681 C3.87407707,3.8803225 3.83854296,3.81708828 3.89238371,3.74628416 L3.92013988,3.7167322 L3.85095223,3.72682536 C3.73464499,3.73402312 3.62578865,3.70097093 3.52438322,3.6276688 C3.29622099,3.46273898 3.18213988,3.32672745 3.18213988,3.21963421 C3.32522607,3.34614088 3.55022924,3.34614088 3.85714939,3.21963421 C4.31752963,3.02987421 4.91042429,2.41499612 5.43485693,2.51892612 C5.78447869,2.58821279 6.03697596,2.70628825 6.19234876,2.87315252 L6.19234876,2.29667893 L6.41796354,2.29667893 Z M6.28736541,0.0467321996 L6.99164713,0.549453897 L6.53014787,0.672756406 L6.99164713,1.07163523 L6.41704781,0.926080671 L6.41704781,1.32906085 L6.99164713,1.32906085 L7.18374716,2.27368198 L6.96141768,2.11597171 L6.73905834,2.27368198 L6.51671929,2.11597171 L6.29436952,2.27368198 L6.06532862,2.11597171 L5.83629877,2.27368198 L5.60724801,2.11597171 L5.37822801,2.27368198 L5.66671866,1.32906085 L6.19835931,1.32906085 L6.19835931,0.0467321996 L6.28736541,0.0467321996 Z" id="Combined-Shape" fill="#CF1225" fill-rule="evenodd"></path>
                        <path d="M3.2682897,4.236295 C2.77094033,4.91280254 2.54993997,5.61246984 2.60528861,6.33529689 C2.68831158,7.41953746 3.57294378,9.94215047 6.19733293,9.94215047 C6.21988806,9.94215047 6.24231828,9.9415388 6.26464166,9.9415388 C9.04548199,9.9415388 9.83485065,7.1601346 9.83485065,6.15993002 C9.83485065,5.48734648 9.62512502,4.84613481 9.20567374,4.236295 C9.25467492,5.1387981 9.25467492,5.78000977 9.20567374,6.15993002 C8.98395324,7.87899304 7.90094502,8.67301617 6.24599587,8.67301617 C4.58080599,8.67301617 3.55039663,7.84898031 3.2682897,6.15993002 C3.20748291,5.79586335 3.20748291,5.15465168 3.2682897,4.236295 Z" id="Path-414" fill="#CF1225" fill-rule="evenodd"></path>
                        <path d="M1.91597327,10.5945274 C2.0062499,10.3359877 2.10687485,10.2067178 2.21784809,10.2067178 C2.38430796,10.2067178 1.89935685,9.87018331 2.21784809,9.77497548 C2.53633934,9.67976765 3.02643504,10.1543505 3.02643504,9.67976765 C3.02643504,9.20518485 2.61197066,8.94626082 2.91650648,8.94626082 C3.11953036,8.94626082 3.3269498,8.91596098 3.53876481,8.85536131 C4.40258213,9.75626563 5.26689223,10.2067178 6.13169511,10.2067178 C6.99649799,10.2067178 7.94887709,9.78656547 8.98883241,8.94626082 C9.37213361,8.84876735 9.56378421,8.87603316 9.56378421,9.02805824 C9.56378421,9.18008331 9.52174053,9.37084283 9.43765316,9.60033677 C9.70623601,9.54738285 9.90884596,9.54738285 10.045483,9.60033677 C10.18212,9.65329069 10.18212,9.80642824 10.045483,10.0597494 L10.045483,10.2067178 C10.4009916,10.1284398 10.5787459,10.1593465 10.5787459,10.2994377 C10.5787459,10.5095746 10.3213392,10.3895484 9.79966642,10.4495615 C9.27799361,10.5095746 9.08001576,10.9174087 8.75229974,10.9174087 C8.53382239,10.9174087 8.40104872,10.8097816 8.35397872,10.5945274 C7.67694336,10.9615235 6.93618216,11.1450216 6.13169511,11.1450216 C5.32720807,11.1450216 4.68198635,10.9615235 4.19602998,10.5945274 C4.27191754,10.9712729 4.18134524,11.1192728 3.92431307,11.0385272 C3.53876481,10.9174087 3.14434658,10.149314 2.68109733,10.2994377 C2.37226451,10.3995202 2.11722315,10.4978834 1.91597327,10.5945274 Z" id="Path-415" fill="#CF1225" fill-rule="evenodd"></path>
                        <path d="M4.000789,8.1410933 C4.00154031,8.14118434 4.00207326,8.1411807 4.00230611,8.14107675 C4.00225184,8.14110098 4.00174614,8.14110649 4.000789,8.1410933 Z M3.86443688,8.27551699 C3.8343898,8.30813344 3.81147672,8.33176507 3.78865693,8.35302114 C3.75606663,8.3833782 3.72640788,8.40605233 3.6974259,8.42134229 C3.59478885,8.47549029 3.52388365,8.41508687 3.49493481,8.29029767 C3.4761284,8.20922922 3.47052023,8.10494938 3.47058169,7.9314116 C3.47058859,7.91192985 3.47063913,7.8959377 3.47078002,7.86180003 C3.47093027,7.82539542 3.47097801,7.81018544 3.47097801,7.79096328 C3.47097801,7.72449543 3.46560274,7.71324543 3.46557547,7.71324543 C3.45129138,7.71324543 3.44642324,7.71572371 3.34824702,7.77176078 C3.26340102,7.82018921 3.20349814,7.84353338 3.13701406,7.84353338 C3.03182038,7.84353338 2.99350949,7.76824041 3.04296518,7.67104441 C3.07872438,7.60076633 3.16260229,7.50185842 3.29613039,7.37064604 L3.36699399,7.44658388 C3.24112458,7.57027039 3.16287906,7.66253664 3.13378888,7.719708 C3.1183952,7.74996143 3.112509,7.73839319 3.13701406,7.73839319 C3.18106229,7.73839319 3.22790951,7.72013682 3.29844272,7.67987785 C3.30738231,7.6747753 3.33712299,7.65747533 3.33956232,7.65606878 C3.3559225,7.64663538 3.36812329,7.6398834 3.37979918,7.63393943 C3.41307912,7.61699729 3.43938051,7.60810525 3.46557547,7.60810525 C3.54206652,7.60810525 3.57343703,7.67376108 3.57343703,7.79096328 C3.57343703,7.81038578 3.573389,7.82568888 3.57323812,7.86224532 C3.57309778,7.89624893 3.57304754,7.91214765 3.5730407,7.93144981 C3.57298223,8.09655939 3.57831461,8.19571125 3.59460854,8.26594919 C3.61031688,8.33366284 3.6214908,8.34318179 3.65057883,8.32783589 C3.67031633,8.31742302 3.69327441,8.29987155 3.71979243,8.27517067 C3.74027977,8.25608722 3.7615769,8.23412221 3.7899808,8.20328945 C3.91720819,8.06518267 3.91880731,8.06357236 3.96115805,8.04466538 C4.05481009,8.00285555 4.09836066,8.07955335 4.09836066,8.22452602 C4.09836066,8.45330313 4.10650017,8.62642613 4.12782311,8.74140557 C4.1372164,8.7920569 4.14909525,8.82643694 4.15783388,8.83993007 C4.16693163,8.83286061 4.17932958,8.81860512 4.1938128,8.79683598 C4.36429442,8.54059193 4.74167191,8.50333818 4.74167191,8.71652415 C4.74167191,8.75726581 4.73765601,8.76832657 4.68062108,8.90799464 C4.67302089,8.92660609 4.66708767,8.94152408 4.66166665,8.95579221 C4.63557035,9.02447767 4.62432711,9.07252285 4.62826361,9.10260455 C4.63132929,9.12603164 4.64388537,9.13562419 4.6904424,9.13562419 C4.74686072,9.13562419 4.79389761,9.08931478 4.85329063,8.98505241 C4.86210453,8.96957992 4.89089302,8.91704792 4.89270652,8.91379471 C4.90852521,8.88541786 4.92055199,8.86556477 4.93286766,8.84839767 C5.02198383,8.72417653 5.11716103,8.77097745 5.20523657,8.97914852 C5.23476095,9.04893092 5.31880969,9.25441221 5.33344371,9.28880203 C5.37074037,9.37644888 5.39633208,9.42705729 5.41939075,9.45735116 C5.44899336,9.49624228 5.46504986,9.49609904 5.52234501,9.44709003 C5.54476442,9.42791296 5.56928119,9.40939991 5.59713333,9.39022398 C5.62492066,9.37109267 5.71864917,9.31189597 5.73491539,9.30053436 C5.75969571,9.28322582 5.77153516,9.27141554 5.77421032,9.2708736 C5.77047978,9.27197882 5.74829013,9.25723063 5.69557064,9.23761634 C5.53868726,9.17924786 5.51368546,9.0732143 5.6398379,9.01050999 C5.71672701,8.97229211 5.85451983,8.9475144 5.97865847,8.9475144 C6.05693543,8.9475144 6.09573779,9.00099971 6.09397058,9.08026349 C6.09295111,9.12598936 6.08536023,9.1598767 6.05531855,9.2726414 C6.05152142,9.28689432 6.04880384,9.29721768 6.0461911,9.30737689 C6.02078141,9.40617795 6.01381208,9.46511444 6.0257353,9.50024057 C6.03682064,9.5328983 6.07298146,9.54592332 6.16557624,9.52760079 C6.31372088,9.49828613 6.36975987,9.45254853 6.38369881,9.3858871 C6.38761891,9.36713963 6.38850944,9.35071226 6.38855899,9.31386429 C6.38872505,9.19037594 6.42314862,9.13562419 6.55355114,9.13562419 C6.6891157,9.13562419 6.75588588,9.19544681 6.80774575,9.31670622 C6.81128406,9.32497953 6.81487842,9.3336718 6.82141784,9.34955966 C6.84181583,9.398758 6.85506556,9.42120525 6.87412115,9.43002258 C6.87153833,9.42496135 6.86921018,9.42035868 6.86777349,9.41741922 C6.78839036,9.25500095 6.82568461,9.10810509 7.06407275,8.95548308 C7.1558575,8.8967202 7.41530916,8.70729713 7.45278028,8.69749393 C7.51406998,8.68145931 7.54816416,8.72111012 7.55854464,8.78852491 C7.56178485,8.80956806 7.56376636,8.83553615 7.56550174,8.87481659 C7.56639187,8.89496458 7.56941146,8.98071517 7.57008818,8.99797056 C7.57744532,9.18556638 7.61671382,9.35842562 7.66144735,9.41322352 C7.70356257,9.37936689 7.735136,9.30009149 7.76551778,9.1754389 C7.83538758,8.88877196 7.935291,8.6179173 8.03533373,8.44898824 C8.09139952,8.35431729 8.14692155,8.29161201 8.2037771,8.2659883 C8.27814782,8.23247084 8.34730686,8.26409729 8.39390861,8.34872687 C8.46809225,8.48344562 8.58340896,8.6097029 8.66674141,8.64180721 C8.74347666,8.67136991 8.78947432,8.60847565 8.78947432,8.37458909 C8.78947432,8.11192427 8.83273349,7.89951353 8.90533031,7.73325591 C8.9498988,7.63118737 8.99557654,7.56647097 9.02807428,7.53461892 L9.09884266,7.6106502 C9.09408203,7.61531624 9.08394901,7.62714428 9.07014312,7.64670453 C9.04607753,7.68080076 9.02174248,7.72377992 8.99883199,7.77624839 C8.93220715,7.92882929 8.89193333,8.12658133 8.89193333,8.37458909 C8.89193333,8.67037967 8.79465471,8.80339225 8.63072937,8.74023906 C8.52025135,8.69767676 8.38961296,8.55464419 8.30470578,8.40045131 C8.28212422,8.3594428 8.26678179,8.3524267 8.24497748,8.36225348 C8.21211767,8.37706277 8.16895739,8.42580697 8.1228922,8.50359123 C8.02891396,8.66227998 7.93248784,8.92370709 7.86491506,9.20094967 C7.79428339,9.49074245 7.69043509,9.61246274 7.58290503,9.48074004 C7.51943108,9.40298541 7.47591817,9.21144234 7.46771204,9.00219843 C7.4670184,8.98451159 7.46401241,8.89914747 7.46314785,8.87957827 C7.46176319,8.84823641 7.46024662,8.82677548 7.45820725,8.81106262 C7.39659242,8.85126828 7.21298534,8.98407051 7.11830705,9.04468591 C6.9255421,9.16809882 6.90332017,9.25562734 6.95935887,9.3702828 C6.96328038,9.37830622 6.97713071,9.40497691 6.97953927,9.40985349 C6.9885949,9.42818828 6.99362834,9.44133108 6.99551922,9.45620955 C7.00295021,9.51468085 6.96098008,9.54004099 6.90066284,9.54004099 C6.81036091,9.54004099 6.77028321,9.4947866 6.72713715,9.39072168 C6.72047037,9.37452934 6.71716815,9.36654357 6.71392438,9.35895896 C6.67677301,9.27209114 6.64180808,9.24076438 6.55355114,9.24076438 C6.49151263,9.24076438 6.49111556,9.24139594 6.49101791,9.31400937 C6.49095862,9.35810017 6.4897891,9.37967409 6.48387759,9.4079452 C6.46031967,9.52060833 6.37015871,9.59419542 6.18497628,9.63083907 C6.04810906,9.65792217 5.95998786,9.62618117 5.928978,9.53482527 C5.90781255,9.47247123 5.91636462,9.40015013 5.94712396,9.28054789 C5.94982874,9.27003082 5.95261632,9.25944157 5.95648624,9.2449154 C5.98362114,9.14306162 5.99079908,9.11101773 5.99153837,9.07785865 C5.99210906,9.05226163 5.99239415,9.05265458 5.97865847,9.05265458 C5.86870154,9.05265458 5.74552161,9.07480463 5.68450283,9.10513413 C5.67267527,9.11101304 5.66784138,9.11401971 5.66518165,9.11216745 C5.67111594,9.11179895 5.69227635,9.12455338 5.73049392,9.13877223 C5.82776197,9.17496082 5.87655199,9.21161197 5.87725933,9.27009225 C5.87781831,9.3163071 5.84953659,9.34765904 5.79256777,9.38745058 C5.77379588,9.40056236 5.67967726,9.46000544 5.65421843,9.4775336 C5.62911977,9.49481378 5.60738549,9.51122573 5.58794843,9.52785176 C5.48975252,9.61184637 5.40753589,9.61257983 5.33864407,9.52207158 C5.30865212,9.48266895 5.28017749,9.42635948 5.23954649,9.33087696 C5.2245347,9.29559936 5.14043011,9.08998154 5.11125322,9.02102046 C5.04938593,8.87479394 5.04330491,8.87180375 5.01537926,8.91072998 C5.00592986,8.92390173 4.99566316,8.94084938 4.98164252,8.96600075 C4.98020788,8.96857433 4.95107702,9.02173105 4.94174544,9.03811231 C4.86517031,9.17253727 4.79587142,9.24076438 4.6904424,9.24076438 C4.59565623,9.24076438 4.53711163,9.19603766 4.52671608,9.11659768 C4.51975104,9.06337276 4.5340707,9.0021813 4.56620641,8.9176001 C4.57198633,8.90238733 4.57822032,8.88671312 4.58612356,8.86735954 C4.63188982,8.75528641 4.63921289,8.73511685 4.63921289,8.71652415 C4.63921289,8.64469983 4.40361738,8.66795723 4.27843173,8.85611873 C4.22371305,8.93836418 4.16473829,8.97288943 4.10621663,8.93323375 C4.06617774,8.90610244 4.04349712,8.84909935 4.02717046,8.7610613 C4.0042558,8.63749886 3.99590164,8.45981036 3.99590164,8.22452602 C3.99590164,8.18906163 3.99351587,8.16324997 3.99001068,8.14745634 C3.97259226,8.15865561 3.94954858,8.18312727 3.86443688,8.27551699 Z M5.66501505,9.10767224 C5.66317866,9.10641938 5.66226581,9.1056899 5.66224036,9.10558195 C5.66326225,9.10991584 5.66421917,9.11249534 5.66582874,9.11361626 L5.66501505,9.10767224 Z M7.47715291,8.79960414 C7.47755986,8.79954489 7.47794277,8.79946838 7.47829908,8.79937516 C7.4781796,8.79940642 7.47804991,8.79944548 7.47791013,8.79949225 L7.47715291,8.79960414 Z" id="Path-416" fill="#F6E017" fill-rule="nonzero"></path>
                        <path d="M4.90395323,10.5008407 L4.90333442,10.4967305 C4.8936186,10.4322209 4.88365483,10.3827846 4.87085043,10.3454553 C4.92148892,10.4094701 4.9391587,10.4800593 4.91376917,10.5602052 C4.91034083,10.541485 4.90709458,10.5217088 4.90395323,10.5008407 Z M4.89538306,10.5939197 C4.84993665,10.7165328 4.77824007,10.7571562 4.69722599,10.6958487 C4.67261791,10.6772265 4.6487024,10.6507125 4.61535985,10.6078525 C4.6126302,10.6043437 4.54980136,10.5214237 4.5296966,10.4964052 C4.4599092,10.4095612 4.39980074,10.3551827 4.33450408,10.3273563 C4.22298758,10.2798332 4.22784391,10.2819384 4.1967186,10.2667459 C4.10093496,10.2199931 4.04628457,10.1715778 3.99367068,10.080972 C3.95251834,10.010104 3.91266941,9.91415183 3.84515517,9.72855308 L3.9411446,9.69178416 C4.00652182,9.8715082 4.04472543,9.96349856 4.08168793,10.0271513 C4.1233987,10.098981 4.16248475,10.1336077 4.24072922,10.1717994 C4.26945742,10.1858219 4.26515982,10.1839589 4.37380006,10.2302563 C4.45803217,10.2661521 4.5292254,10.3305587 4.60874534,10.4295139 C4.62997205,10.4559286 4.69352353,10.5398023 4.6954333,10.5422572 C4.72346243,10.5782871 4.74272363,10.5996411 4.75803728,10.6112297 C4.76635235,10.6175221 4.76683254,10.6179601 4.76575366,10.6186163 C4.77288442,10.6142802 4.78552265,10.5945687 4.79961713,10.5565422 C4.83103633,10.471774 4.80345946,10.4061029 4.7270742,10.337711 C4.71615624,10.3279355 4.63098279,10.2626136 4.61875304,10.2444245 C4.58962561,10.2011039 4.61457138,10.157151 4.65953706,10.1452 C4.67978661,10.1398181 4.70972138,10.137819 4.75749941,10.137819 C4.92294001,10.137819 4.9684446,10.2350081 4.99912329,10.4835168 L4.99963134,10.4876337 C5.02379893,10.6835003 5.04826383,10.7372881 5.1318715,10.7372881 C5.22619623,10.7372881 5.28364118,10.6997456 5.38391938,10.5926532 C5.39483381,10.580973 5.39483381,10.580973 5.40588911,10.5691684 C5.5336785,10.4331524 5.623173,10.3874038 5.773506,10.4290252 C5.89359237,10.4622724 5.94491456,10.5213212 5.95698676,10.6128666 C5.95833325,10.6230772 5.95899059,10.6304367 5.96031203,10.647854 C5.96616818,10.7250412 5.97978763,10.7372881 6.12921152,10.7372881 C6.24253581,10.7372881 6.34799659,10.7433287 6.48557805,10.7554976 C6.49274765,10.7561318 6.59731743,10.7656903 6.62362177,10.7678577 C6.66840419,10.7715475 6.70016726,10.7733188 6.725287,10.7733188 C6.74316434,10.7733188 6.75695585,10.7723574 6.76638881,10.7707424 C6.77026481,10.7406284 6.78800662,10.7194416 6.8598033,10.6381368 C6.86811159,10.6287283 6.87450443,10.6213791 6.88046503,10.6143431 C6.91399993,10.5747582 6.92881735,10.548256 6.92789538,10.543989 C6.92772346,10.5431933 6.89769911,10.5323505 6.8166346,10.5323505 C6.74217184,10.5323505 6.70491867,10.5230894 6.69819659,10.4705642 C6.69257299,10.4266225 6.71794469,10.4053886 6.77422275,10.375456 C6.83868535,10.3411702 6.95616748,10.2966039 7.09713349,10.2517196 C7.23282798,10.2085138 7.37604474,10.16965 7.48503237,10.1467995 C7.54393918,10.1344489 7.59189827,10.1269315 7.62683283,10.1249486 C7.69343413,10.1211684 7.7330415,10.1304458 7.7330415,10.1903891 C7.7330415,10.2154097 7.80337139,10.3013341 7.873504,10.3403413 C7.95724642,10.3869182 8.01671913,10.3692354 8.05775441,10.2599108 C8.11765786,10.1003185 8.24252198,9.92794445 8.36420428,9.82925312 C8.42950006,9.77629449 8.48959711,9.74778904 8.54158644,9.75248084 C8.61176349,9.75881399 8.64842295,9.81904026 8.64842295,9.91005045 L8.54596393,9.91005045 C8.54596393,9.86736538 8.54020364,9.85790203 8.53261042,9.85721678 C8.51328889,9.8554731 8.47432371,9.87395521 8.42773703,9.91173968 C8.32033591,9.99884816 8.20661443,10.1558399 8.15336614,10.2977018 C8.08879269,10.4697358 7.95998681,10.5080332 7.82468066,10.432777 C7.74173239,10.3866418 7.66243907,10.299037 7.63814726,10.2296689 C7.60353071,10.2315721 7.55997017,10.2384001 7.50554263,10.2498115 C7.40015604,10.2719071 7.26014875,10.3098999 7.12749697,10.3521369 C7.03966742,10.3801023 6.9613693,10.4079196 6.90142779,10.4323872 C6.97457228,10.4428673 7.01687015,10.4700653 7.02792514,10.5212298 C7.03897306,10.5723617 7.0140912,10.616865 6.95779007,10.6833234 C6.95129117,10.6909947 6.94446774,10.6988389 6.93572732,10.7087369 C6.88615086,10.7648788 6.86786411,10.7889036 6.86786411,10.7898582 C6.86786411,10.8593323 6.81508066,10.878459 6.725287,10.878459 C6.6968166,10.878459 6.66271382,10.8765572 6.61542139,10.8726606 C6.58858947,10.8704498 6.48355245,10.8608485 6.47677937,10.8602494 C6.34187271,10.8483171 6.23906238,10.8424282 6.12921152,10.8424282 C5.92745107,10.8424282 5.8682675,10.7892091 5.85816213,10.656015 C5.85699411,10.6406199 5.85644914,10.6345185 5.85545317,10.6269658 C5.84895221,10.577668 5.82737121,10.552838 5.74681683,10.5305356 C5.64173422,10.5014424 5.58421704,10.5308445 5.4796504,10.6421428 C5.46884071,10.6536852 5.46884071,10.6536852 5.45779976,10.6655006 C5.33976092,10.7915605 5.26192654,10.8424282 5.1318715,10.8424282 C4.98476975,10.8424282 4.93658001,10.7637226 4.90602973,10.5602052 C4.90315945,10.571259 4.89961779,10.5824945 4.89538306,10.5939197 Z M6.7813797,10.4254758 C6.78029893,10.4250472 6.77924919,10.4247157 6.77824819,10.4244668 C6.7786436,10.4245651 6.77905862,10.4246619 6.77949311,10.424757 L6.7813797,10.4254758 Z M7.63058248,10.1903891 C7.63058248,10.1906203 7.63058248,10.1908505 7.63058248,10.1910798 C7.63058248,10.1908973 7.63058248,10.190643 7.63058248,10.1903891 Z M6.77367508,10.7692781 C6.77460986,10.7690062 6.7754759,10.7687257 6.77627272,10.7684369 C6.77600464,10.7685341 6.77570383,10.7686855 6.77537685,10.7688886 L6.77367508,10.7692781 Z" id="Path-417" fill="#F6E017" fill-rule="nonzero"></path>
                    </g>
                </g>
            </g>
        </g>
    </g>
</svg>