<?xml version="1.0" encoding="UTF-8"?>
<svg width="20px" height="15px" viewBox="0 0 20 15" version="1.1" xmlns="http://www.w3.org/2000/svg" xmlns:xlink="http://www.w3.org/1999/xlink">
    <title>flags/M/CC - Cocos (Keeling) Islands</title>
    <defs>
        <rect id="path-1" x="0" y="0" width="20" height="15"></rect>
    </defs>
    <g id="Symbols" stroke="none" stroke-width="1" fill="none" fill-rule="evenodd">
        <g id="flag">
            <mask id="mask-2" fill="white">
                <use xlink:href="#path-1"></use>
            </mask>
            <g id="mask"></g>
            <g id="contents" mask="url(#mask-2)">
                <polygon id="green" fill="#5EAA22" points="0 0 20 0 20 15 0 15"></polygon>
                <g id="mark-3" transform="translate(12.500000, 2.500000)" fill="#FECA00">
                    <polygon id="Star-7" points="2.5 1.875 1.875 2.33253175 1.95873412 1.5625 1.25 1.25 1.95873412 0.9375 1.875 0.167468245 2.5 0.625 3.125 0.167468245 3.04126588 0.9375 3.75 1.25 3.04126588 1.5625 3.125 2.33253175"></polygon>
                    <polygon id="Star-7" points="1.85174432 6.04916689 1.22674432 6.50669865 1.31047845 5.73666689 0.601744324 5.42416689 1.31047845 5.11166689 1.22674432 4.34163514 1.85174432 4.79916689 2.47674432 4.34163514 2.3930102 5.11166689 3.10174432 5.42416689 2.3930102 5.73666689 2.47674432 6.50669865"></polygon>
                    <polygon id="Star-7" points="3.75 9.375 3.125 9.83253175 3.20873412 9.0625 2.5 8.75 3.20873412 8.4375 3.125 7.66746825 3.75 8.125 4.375 7.66746825 4.29126588 8.4375 5 8.75 4.29126588 9.0625 4.375 9.83253175"></polygon>
                    <polygon id="Star-7" points="4.375 3.4375 4.0625 3.66626588 4.10436706 3.28125 3.75 3.125 4.10436706 2.96875 4.0625 2.58373412 4.375 2.8125 4.6875 2.58373412 4.64563294 2.96875 5 3.125 4.64563294 3.28125 4.6875 3.66626588"></polygon>
                </g>
                <g id="mark-2" transform="translate(1.250000, 2.500000)">
                    <circle id="Oval-13" fill="#FECA00" cx="3.125" cy="3.125" r="3.125"></circle>
                    <path d="M2.80591502,4.99216011 L2.58165305,4.83416721 C3.07773737,4.18425412 2.94656267,3.27600948 2.80591502,2.67913071 L3.71842349,2.46410854 C3.92790851,3.35311851 3.46283913,4.13153307 2.80591502,4.99216011 Z" id="Path-13" fill="#915E2B" fill-rule="nonzero"></path>
                </g>
                <g id="mark-1" transform="translate(7.500000, 5.000000)" fill="#FECA00">
                    <path d="M2.99599254,0.625 C3.99526589,0.625 4.79253713,0.974687481 5.15815427,1.92717217 C4.86897746,1.63976119 4.42074224,1.44257248 3.75,1.46754865 C2.71446609,1.46754865 2.0408395,2.27428575 2.0408395,2.96464169 C2.0408395,3.65499763 2.71446609,4.59342752 3.75,4.59342752 C4.27032189,4.5856391 4.65480857,4.49058381 4.93524983,4.34105034 C4.5239209,5.04695766 3.87046973,5.36698509 2.99599254,5.36698509 C1.68652952,5.36698509 0.625,4.30545557 0.625,2.99599254 C0.625,1.68652952 1.68652952,0.625 2.99599254,0.625 Z" id="Oval-13"></path>
                </g>
                <path d="M4.375,5.46220612 C5.41053391,5.46220612 6.0706291,5.18238409 6.0706291,4.83720612 C6.0706291,4.49202815 5.41053391,4.21220612 4.375,4.21220612 C3.33946609,4.21220612 2.80272426,4.49202815 2.80272426,4.83720612 C2.80272426,5.18238409 3.33946609,5.46220612 4.375,5.46220612 Z" id="Oval-14" fill="#5EAA22"></path>
            </g>
        </g>
    </g>
</svg>