<?xml version="1.0" encoding="UTF-8"?>
<svg width="20px" height="15px" viewBox="0 0 20 15" version="1.1" xmlns="http://www.w3.org/2000/svg" xmlns:xlink="http://www.w3.org/1999/xlink">
    <title>flags/M/CK - Cook Islands</title>
    <defs>
        <rect id="path-1" x="0" y="0" width="20" height="15"></rect>
        <rect id="path-3" x="0" y="0" width="20" height="15"></rect>
        <rect id="path-5" x="0" y="0" width="11" height="9"></rect>
    </defs>
    <g id="Symbols" stroke="none" stroke-width="1" fill="none" fill-rule="evenodd">
        <g id="flag">
            <mask id="mask-2" fill="white">
                <use xlink:href="#path-1"></use>
            </mask>
            <g id="mask"></g>
            <g id="contents" mask="url(#mask-2)">
                <mask id="mask-4" fill="white">
                    <use xlink:href="#path-3"></use>
                </mask>
                <use id="background" fill="#2E42A5" xlink:href="#path-3"></use>
                <g id="gb---medium" mask="url(#mask-4)">
                    <g id="flag">
                        <mask id="mask-6" fill="white">
                            <use xlink:href="#path-5"></use>
                        </mask>
                        <use id="mask" fill="#2E42A5" xlink:href="#path-5"></use>
                        <g id="contents" mask="url(#mask-6)">
                            <g transform="translate(-2.500000, -1.250000)">
                                <g id="stripe" transform="translate(1.000000, 0.000000)">
                                    <polygon id="white" fill="#F7FCFF" fill-rule="nonzero" transform="translate(7.179664, 5.457378) scale(1, -1) translate(-7.179664, -5.457378) " points="0.247333589 1.53986811 2.72292762 0.454117833 12.8061752 8.48429142 14.1119945 10.0977486 11.4647029 10.4606384 7.35198716 7.00020684 4.04167375 4.66868453"></polygon>
                                    <polygon id="red" fill="#F50100" fill-rule="nonzero" transform="translate(7.114665, 5.716384) scale(1, -1) translate(-7.114665, -5.716384) " points="0.586246133 1.29717712 1.84744698 0.66709794 13.6430838 10.7656701 11.8722111 10.7656701"></polygon>
                                </g>
                                <g id="stripe" transform="translate(7.750000, 5.500000) scale(-1, 1) translate(-7.750000, -5.500000) translate(0.250000, 0.000000)">
                                    <polygon id="white" fill="#F7FCFF" fill-rule="nonzero" transform="translate(7.179664, 5.612355) scale(1, -1) translate(-7.179664, -5.612355) " points="0.247333589 1.84982105 2.4444201 0.454117833 12.8061752 8.79424437 14.1119945 10.4077016 11.4647029 10.7705913 7.35198716 7.31015978 4.04167375 4.97863747"></polygon>
                                    <polygon id="red" fill="#F50100" fill-rule="nonzero" transform="translate(7.284723, 5.686725) scale(1, -1) translate(-7.284723, -5.686725) " points="0.331803828 1.45261194 1.59300468 0.822532761 6.61570908 5.14625614 8.10483314 5.62933537 14.237643 10.5509178 12.4667702 10.5509178 6.33740601 5.74615285 4.70931125 5.16688909"></polygon>
                                </g>
                                <g id="cross" transform="translate(2.500000, 1.250000)">
                                    <path d="M6.46875,-0.46875 L6.46875,3.53125 L11.46875,3.53125 L11.46875,5.46875 L6.46875,5.46875 L6.46875,9.46875 L4.53125,9.46875 L4.53125,5.46875 L-0.46875,5.46875 L-0.46875,3.53125 L4.53125,3.53125 L4.53125,-0.46875 L6.46875,-0.46875 Z" id="red" stroke="#F7FCFF" stroke-width="0.9375" fill="#F50100"></path>
                                </g>
                            </g>
                        </g>
                    </g>
                </g>
                <g id="mark-2" mask="url(#mask-4)" fill="#FFFFFF">
                    <g transform="translate(11.250000, 6.250000)" id="Combined-Shape">
                        <path d="M2.68073741,1.83828142 L2.98294727,2.50840163 L3.63802615,2.50840163 L3.12331538,3.02877365 L3.3225809,3.84989971 L2.68166316,3.38848595 L2.27382112,3.67180196 L2.41220722,3.97773637 L3.06728611,3.97773637 L2.55257533,4.49810839 L2.72382112,5.20380196 L2.90147338,4.74380801 L3.20368324,5.41392822 L3.85876213,5.41392822 L3.34405135,5.93430024 L3.40082112,6.16780196 L4.12732042,6.16809141 L4.3850509,5.4979712 L4.68726076,6.16809141 L5.34233964,6.16809141 L4.82762886,6.68846343 L5.02689439,7.50958949 L4.38597665,7.04817572 L3.72357619,7.50958949 L3.9472099,6.68846343 L3.41182112,6.21480196 L3.54331687,6.7554263 L2.90239913,6.29401254 L2.23999867,6.7554263 L2.46363239,5.93430024 L1.87529713,5.41392822 L2.6437429,5.41392822 L2.69482112,5.27780196 L2.11092312,4.85782069 L1.44852266,5.31923445 L1.67215637,4.49810839 L1.08382112,3.97773637 L1.85226689,3.97773637 L2.10999737,3.30761616 L2.14582112,3.38580196 L2.24289642,3.02877365 L1.65456116,2.50840163 L2.42300693,2.50840163 L2.68073741,1.83828142 Z M6.07625887,1.80925432 L6.37846872,2.47937453 L7.03354761,2.47937453 L6.51883683,2.99974655 L6.59482112,3.31080196 L6.60067227,3.29731394 L6.90288212,3.96743415 L7.55796101,3.96743415 L7.04325023,4.48780617 L7.24251575,5.30893223 L6.60159802,4.84751846 L6.17082112,5.14680196 L6.27991308,5.38927491 L6.93499197,5.38927491 L6.42028119,5.90964693 L6.61954671,6.73077299 L5.97862898,6.26935923 L5.31622852,6.73077299 L5.53986223,5.90964693 L4.95152698,5.38927491 L5.71997274,5.38927491 L5.97770323,4.7191547 L6.05382112,4.88880196 L6.16283127,4.48780617 L5.57449602,3.96743415 L6.34294179,3.96743415 L6.46782112,3.64080196 L6.07718462,3.35945884 L5.41478416,3.82087261 L5.63841787,2.99974655 L5.05008262,2.47937453 L5.81852838,2.47937453 L6.07625887,1.80925432 Z M4.31828497,1.02280196 L4.62049483,1.69292217 L5.27557372,1.69292217 L4.76086294,2.21329419 L4.96012846,3.03442025 L4.31921072,2.57300648 L3.65681026,3.03442025 L3.88044398,2.21329419 L3.29210872,1.69292217 L4.06055449,1.69292217 L4.31828497,1.02280196 Z"></path>
                    </g>
                </g>
            </g>
        </g>
    </g>
</svg>