<?xml version="1.0" encoding="UTF-8"?>
<svg width="20px" height="15px" viewBox="0 0 20 15" version="1.1" xmlns="http://www.w3.org/2000/svg" xmlns:xlink="http://www.w3.org/1999/xlink">
    <title>flags/M/CN - China</title>
    <defs>
        <rect id="path-1" x="0" y="0" width="20" height="15"></rect>
    </defs>
    <g id="Symbols" stroke="none" stroke-width="1" fill="none" fill-rule="evenodd">
        <g id="flag">
            <mask id="mask-2" fill="white">
                <use xlink:href="#path-1"></use>
            </mask>
            <g id="mask"></g>
            <g id="contents" mask="url(#mask-2)">
                <polygon id="background" fill="#E31D1C" points="0 0 20 0 20 15 0 15"></polygon>
                <g id="mark" transform="translate(1.250000, 0.000000)" fill="#FECA00">
                    <polygon id="Star-5" points="3.1961966 6.09705179 0.762883781 8.0041985 1.69204756 5.12006635 0.0693274297 3.62036094 2.26658137 3.5392707 3.1961966 1.21775516 4.12581182 3.5392707 6.31932743 3.5392707 4.70034563 5.12006635 5.43786667 8.0041985"></polygon>
                    <polygon id="Star-5" points="8.13519611 3.85741941 7.11412136 4.47384076 7.34702205 3.27095606 6.49671674 2.37071516 7.64807775 2.32203843 8.13519611 1.19884091 8.62231447 2.32203843 9.77171659 2.32203843 8.92337017 3.27095606 9.17877271 4.47384076"></polygon>
                    <polygon id="Star-5" points="9.38519611 6.35741941 8.36412136 6.97384076 8.59702205 5.77095606 7.74671674 4.87071516 8.89807775 4.82203843 9.38519611 3.69884091 9.87231447 4.82203843 11.0217166 4.82203843 10.1733702 5.77095606 10.4287727 6.97384076"></polygon>
                    <polygon id="Star-5" points="8.13519611 8.85741941 7.11412136 9.47384076 7.34702205 8.27095606 6.49671674 7.37071516 7.64807775 7.32203843 8.13519611 6.19884091 8.62231447 7.32203843 9.77171659 7.32203843 8.92337017 8.27095606 9.17877271 9.47384076"></polygon>
                    <polygon id="Star-5" points="5.63519611 10.1074194 4.61412136 10.7238408 4.84702205 9.52095606 3.99671674 8.62071516 5.14807775 8.57203843 5.63519611 7.44884091 6.12231447 8.57203843 7.27171659 8.57203843 6.42337017 9.52095606 6.67877271 10.7238408"></polygon>
                </g>
            </g>
        </g>
    </g>
</svg>