<?xml version="1.0" encoding="UTF-8"?>
<svg width="20px" height="15px" viewBox="0 0 20 15" version="1.1" xmlns="http://www.w3.org/2000/svg" xmlns:xlink="http://www.w3.org/1999/xlink">
    <title>flags/M/CV - Cabo Verde</title>
    <defs>
        <rect id="path-1" x="0" y="0" width="20" height="15"></rect>
        <rect id="path-3" x="0" y="0" width="20" height="15"></rect>
        <path d="M8.14880303,4.40053702 L8.45101288,5.07065722 L9.10609177,5.07065722 L8.59138099,5.59102925 L8.76862678,6.32053702 L9.14107254,6.32065722 L9.39880303,5.65053702 L9.70101288,6.32065722 L10.3560918,6.32065722 L9.84138099,6.84102925 L10.0186268,7.57053702 L10.3910725,7.57065722 L10.648803,6.90053702 L10.9510129,7.57065722 L11.6060918,7.57065722 L11.091381,8.09102925 L11.2686268,8.82053702 L11.6060918,8.82065722 L11.091381,9.34102925 L11.2686268,10.070537 L11.6060918,10.0706572 L11.091381,10.5910292 L11.2906465,11.4121553 L10.6497288,10.9507415 L10.1176268,11.320537 L10.3560918,11.3206572 L9.84138099,11.8410292 L10.0406465,12.6621553 L9.39972878,12.2007415 L8.86762678,12.570537 L9.10609177,12.5706572 L8.59138099,13.0910292 L8.79064651,13.9121553 L8.14972878,13.4507415 L7.53262678,13.879537 L7.54064651,13.9121553 L7.51362678,13.892537 L7.48732831,13.9121553 L7.49562678,13.879537 L6.89972878,13.4507415 L6.28262678,13.879537 L6.29064651,13.9121553 L6.26362678,13.892537 L6.23732831,13.9121553 L6.24562678,13.879537 L5.64972878,13.4507415 L4.98732831,13.9121553 L5.21096203,13.0910292 L4.62262678,12.5706572 L4.91362678,12.570537 L4.39972878,12.2007415 L3.73732831,12.6621553 L3.96096203,11.8410292 L3.37262678,11.3206572 L3.66362678,11.320537 L3.14972878,10.9507415 L2.48732831,11.4121553 L2.71096203,10.5910292 L2.12262678,10.0706572 L2.51162678,10.070537 L2.71096203,9.34102925 L2.12262678,8.82065722 L2.51162678,8.82053702 L2.71096203,8.09102925 L2.12262678,7.57065722 L2.89107254,7.57065722 L3.14880303,6.90053702 L3.45101288,7.57065722 L3.76162678,7.57053702 L3.96096203,6.84102925 L3.37262678,6.32065722 L4.14107254,6.32065722 L4.39880303,5.65053702 L4.70101288,6.32065722 L5.01162678,6.32053702 L5.21096203,5.59102925 L4.62262678,5.07065722 L5.39107254,5.07065722 L5.64880303,4.40053702 L5.95101288,5.07065722 L6.64107254,5.07065722 L6.89880303,4.40053702 L7.20101288,5.07065722 L7.89107254,5.07065722 L8.14880303,4.40053702 Z M7.51362678,12.916537 L7.34138099,13.0910292 L7.51562678,13.806537 L7.71096203,13.0910292 L7.51362678,12.916537 Z M6.26362678,12.916537 L6.09138099,13.0910292 L6.26562678,13.806537 L6.46096203,13.0910292 L6.26362678,12.916537 Z M8.14972878,5.95074154 L7.53262678,6.37953702 L7.54064651,6.4121553 L7.51362678,6.39253702 L7.48732831,6.4121553 L7.49562678,6.37953702 L6.89972878,5.95074154 L6.28262678,6.37953702 L6.29064651,6.4121553 L6.26362678,6.39253702 L6.23732831,6.4121553 L6.24562678,6.37953702 L5.64972878,5.95074154 L5.11762678,6.32053702 L5.35609177,6.32065722 L4.84138099,6.84102925 L5.04064651,7.6621553 L4.39972878,7.20074154 L3.86762678,7.57053702 L4.10609177,7.57065722 L3.59138099,8.09102925 L3.76862678,8.82053702 L4.10609177,8.82065722 L3.59138099,9.34102925 L3.76862678,10.070537 L4.10609177,10.0706572 L3.59138099,10.5910292 L3.76862678,11.320537 L4.14107254,11.3206572 L4.39880303,10.650537 L4.70101288,11.3206572 L5.35609177,11.3206572 L4.84138099,11.8410292 L5.01862678,12.570537 L5.39107254,12.5706572 L5.64880303,11.900537 L5.95101288,12.5706572 L6.64107254,12.5706572 L6.89880303,11.900537 L7.20101288,12.5706572 L7.89107254,12.5706572 L8.14880303,11.900537 L8.45101288,12.5706572 L8.76162678,12.570537 L8.96096203,11.8410292 L8.37262678,11.3206572 L9.14107254,11.3206572 L9.39880303,10.650537 L9.70101288,11.3206572 L10.0116268,11.320537 L10.210962,10.5910292 L9.62262678,10.0706572 L10.0116268,10.070537 L10.210962,9.34102925 L9.62262678,8.82065722 L10.0116268,8.82053702 L10.210962,8.09102925 L9.62262678,7.57065722 L9.91362678,7.57053702 L9.39972878,7.20074154 L8.73732831,7.6621553 L8.96096203,6.84102925 L8.37262678,6.32065722 L8.66362678,6.32053702 L8.14972878,5.95074154 Z M7.51362678,5.41653702 L7.34138099,5.59102925 L7.51562678,6.30653702 L7.71096203,5.59102925 L7.51362678,5.41653702 Z M6.26362678,5.41653702 L6.09138099,5.59102925 L6.26562678,6.30653702 L6.46096203,5.59102925 L6.26362678,5.41653702 Z" id="path-5"></path>
        <filter x="-47.5%" y="-47.3%" width="194.9%" height="194.6%" filterUnits="objectBoundingBox" id="filter-6">
            <feOffset dx="0" dy="0" in="SourceAlpha" result="shadowOffsetOuter1"></feOffset>
            <feGaussianBlur stdDeviation="1.5" in="shadowOffsetOuter1" result="shadowBlurOuter1"></feGaussianBlur>
            <feColorMatrix values="0 0 0 0 0   0 0 0 0 0   0 0 0 0 0  0 0 0 0.24 0" type="matrix" in="shadowBlurOuter1"></feColorMatrix>
        </filter>
    </defs>
    <g id="Symbols" stroke="none" stroke-width="1" fill="none" fill-rule="evenodd">
        <g id="flag">
            <mask id="mask-2" fill="white">
                <use xlink:href="#path-1"></use>
            </mask>
            <g id="mask"></g>
            <g id="contents" mask="url(#mask-2)">
                <mask id="mask-4" fill="white">
                    <use xlink:href="#path-3"></use>
                </mask>
                <use id="background" fill="#4141DB" xlink:href="#path-3"></use>
                <rect id="bottom" stroke="#F7FCFF" stroke-width="1.25" fill="#F90000" mask="url(#mask-4)" x="-0.625" y="8.125" width="21.25" height="2.5"></rect>
                <g id="Combined-shape-1335" mask="url(#mask-4)">
                    <use fill="black" fill-opacity="1" filter="url(#filter-6)" xlink:href="#path-5"></use>
                    <use fill="#FFDE00" fill-rule="evenodd" xlink:href="#path-5"></use>
                </g>
            </g>
        </g>
    </g>
</svg>