<?xml version="1.0" encoding="UTF-8"?>
<svg width="20px" height="15px" viewBox="0 0 20 15" version="1.1" xmlns="http://www.w3.org/2000/svg" xmlns:xlink="http://www.w3.org/1999/xlink">
    <title>flags/M/CX - Christmas Island</title>
    <defs>
        <rect id="path-1" x="0" y="0" width="20" height="15"></rect>
    </defs>
    <g id="Symbols" stroke="none" stroke-width="1" fill="none" fill-rule="evenodd">
        <g id="flag">
            <mask id="mask-2" fill="white">
                <use xlink:href="#path-1"></use>
            </mask>
            <g id="mask"></g>
            <g id="contents" mask="url(#mask-2)">
                <polygon id="green" fill="#5EAA22" points="0 0 20 0 20 15 0 15"></polygon>
                <polygon id="blue" fill="#4141DB" points="0 0 20 15 0 15"></polygon>
                <g id="mark-3" transform="translate(1.250000, 3.750000)" fill="#FFFFFF">
                    <polygon id="Star-7" points="2.5 1.875 1.875 2.33253175 1.95873412 1.5625 1.25 1.25 1.95873412 0.9375 1.875 0.167468245 2.5 0.625 3.125 0.167468245 3.04126588 0.9375 3.75 1.25 3.04126588 1.5625 3.125 2.33253175"></polygon>
                    <polygon id="Star-7" points="1.25 5.625 0.625 6.08253175 0.708734123 5.3125 0 5 0.708734123 4.6875 0.625 3.91746825 1.25 4.375 1.875 3.91746825 1.79126588 4.6875 2.5 5 1.79126588 5.3125 1.875 6.08253175"></polygon>
                    <polygon id="Star-7" points="3.75 9.375 3.125 9.83253175 3.20873412 9.0625 2.5 8.75 3.20873412 8.4375 3.125 7.66746825 3.75 8.125 4.375 7.66746825 4.29126588 8.4375 5 8.75 4.29126588 9.0625 4.375 9.83253175"></polygon>
                    <polygon id="Star-7" points="4.375 3.4375 4.0625 3.66626588 4.10436706 3.28125 3.75 3.125 4.10436706 2.96875 4.0625 2.58373412 4.375 2.8125 4.6875 2.58373412 4.64563294 2.96875 5 3.125 4.64563294 3.28125 4.6875 3.66626588"></polygon>
                </g>
                <g id="mark-2" transform="translate(12.500000, 1.250000)" fill="#FECA00">
                    <path d="M0.975678064,6.38995097 C0.742046483,6.146216 2.84456484,5.57352561 3.06250479,4.8350661 C3.3512962,4.19213664 3.15836338,3.67116752 2.06702072,3.21363548 C0.975678064,2.75610344 -0.127276945,1.8714301 1.1410069,1.8714301 C2.40929075,1.8714301 2.40929075,2.05226358 2.75001459,2.58570092 C3.09073842,3.11913825 3.82717711,3.23340688 3.8427926,2.58570092 C3.8427926,1.48207818 3.94695709,1.33364493 3.05602937,0.374163912 C2.16510165,-0.585317102 5.29007975,0.768182846 5.03180192,2.41305344 C4.7735241,4.05792404 4.46254082,3.52716178 4.65994192,3.80328036 C4.85734302,4.07939893 6.0451276,3.22227184 5.89681108,4.36402948 C5.481269,5.02068369 4.65712501,5.99771576 0.975678064,6.38995097 Z" id="Path-12"></path>
                </g>
                <g id="mark-1" transform="translate(6.250000, 3.750000)">
                    <circle id="Oval-13" fill="#FECA00" cx="3.75" cy="3.75" r="3.125"></circle>
                    <path d="M1.84560455,2.60127425 C2.20006954,2.52224107 2.68477502,3.47143002 3.559602,3.11542694 C4.43442897,2.75942386 4.61712565,2.07975513 5.03278953,2.32850781 C5.44845341,2.57726048 5.50300956,3.17618968 5.22611459,3.47721496 C4.94921962,3.77824025 4.47934244,3.84944918 4.47934244,4.22992384 C4.47934244,4.61039849 4.38720125,5.96719722 4.20763309,5.57398737 C3.66914286,5.13707828 3.99767975,4.44117841 3.3343918,4.22992384 C2.67110384,4.01866926 2.26825402,4.02574437 1.7789629,4.11489081 C1.28967178,4.20403724 2.10767122,3.87000863 2.28115378,3.55287706 C2.63437594,3.21306351 1.68352178,2.71426798 1.84560455,2.60127425 Z" id="Path-11" fill="#548650"></path>
                </g>
            </g>
        </g>
    </g>
</svg>