<?xml version="1.0" encoding="UTF-8"?>
<svg width="20px" height="15px" viewBox="0 0 20 15" version="1.1" xmlns="http://www.w3.org/2000/svg" xmlns:xlink="http://www.w3.org/1999/xlink">
    <title>flags/M/CY - Cyprus</title>
    <defs>
        <rect id="path-1" x="0" y="0" width="20" height="15"></rect>
        <rect id="path-3" x="0" y="0" width="20" height="15"></rect>
        <linearGradient x1="50%" y1="100%" x2="50%" y2="0%" id="linearGradient-5">
            <stop stop-color="#EA5113" offset="0%"></stop>
            <stop stop-color="#FC9B58" offset="100%"></stop>
        </linearGradient>
        <path d="M12.8545625,1.7245 C12.8545625,1.7245 9.553245,3.54827 9.13765125,3.66367 C8.72213875,3.77903 8.99936375,3.84835 8.283535,3.80222 C7.56795,3.75604 6.159725,4.05969 5.83656125,3.85192 C5.51331625,3.64401 5.39787625,3.27471 5.3749475,3.89815 C5.35179125,4.52131 5.85989625,5.05229 5.21326,5.09852 C4.567095,5.14461 4.497675,4.54425 4.05923375,4.91384 C3.62054875,5.28305 3.2511375,6.11422 2.97399375,5.90645 C2.6970125,5.69854 2.3046725,5.14461 2.4201125,5.67559 C2.53530875,6.20648 2.881645,7.54373 3.9897975,7.56687 C5.0980475,7.59005 5.3287,7.19752 5.3749475,7.52078 C5.4209675,7.84386 5.9059,7.88999 6.02119375,7.47446 C6.13679625,7.05893 7.08326125,7.93789 7.5911225,7.49926 C8.0989025,7.06073 8.514415,6.69129 8.6762,6.43734 C8.83766,6.18339 9.391785,6.22967 9.9227375,6.22967 C10.45369,6.22967 11.23837,6.46043 10.8228575,5.95268 C10.4075888,5.44459 9.69177625,5.21388 10.1075162,4.70598 C10.5228013,4.19814 14.0493925,2.50944 14.2110963,2.32471 C14.3725562,2.14004 13.3392675,1.44751 12.8545625,1.7245 Z" id="path-6"></path>
        <linearGradient x1="50%" y1="100%" x2="50%" y2="0%" id="linearGradient-7">
            <stop stop-color="#008057" offset="0%"></stop>
            <stop stop-color="#00B77C" offset="100%"></stop>
        </linearGradient>
        <path d="M10.780375,8.8150875 C12.4194125,8.8150875 9.5994125,11.4699687 7.77575,11.4699687 C7.77575,11.4699687 7.58758341,11.4528304 7.43213894,11.3744114 C7.2776689,11.4529042 7.0903125,11.4699687 7.0903125,11.4699687 C5.2665625,11.4699687 2.6809,8.8150875 4.3201,8.8150875 C5.958975,8.8150875 7.3672875,10.6389 7.3672875,10.6389 C7.39186385,10.6634726 7.41449825,10.6873301 7.43529271,10.7104927 L7.498775,10.6389 L7.498775,10.6389 C7.498775,10.6389 9.1414125,8.8150875 10.780375,8.8150875 Z" id="path-8"></path>
    </defs>
    <g id="Symbols" stroke="none" stroke-width="1" fill="none" fill-rule="evenodd">
        <g id="flag">
            <mask id="mask-2" fill="white">
                <use xlink:href="#path-1"></use>
            </mask>
            <g id="mask"></g>
            <g id="contents" mask="url(#mask-2)">
                <mask id="mask-4" fill="white">
                    <use xlink:href="#path-3"></use>
                </mask>
                <use id="background" fill="#F7FCFF" xlink:href="#path-3"></use>
                <g id="mark" mask="url(#mask-4)">
                    <g transform="translate(2.500000, 1.250000)">
                        <g id="fish/guitar">
                            <use fill="#F57A01" xlink:href="#path-6"></use>
                            <use fill="url(#linearGradient-5)" xlink:href="#path-6"></use>
                        </g>
                        <g id="Combined-shape-1267">
                            <use fill="#006B49" xlink:href="#path-8"></use>
                            <use fill="url(#linearGradient-7)" xlink:href="#path-8"></use>
                        </g>
                    </g>
                </g>
            </g>
        </g>
    </g>
</svg>