<?xml version="1.0" encoding="UTF-8"?>
<svg width="20px" height="15px" viewBox="0 0 20 15" version="1.1" xmlns="http://www.w3.org/2000/svg" xmlns:xlink="http://www.w3.org/1999/xlink">
    <title>flags/M/DM - Dominica</title>
    <defs>
        <rect id="path-1" x="0" y="0" width="20" height="15"></rect>
        <rect id="path-3" x="0" y="0" width="20" height="15"></rect>
    </defs>
    <g id="Symbols" stroke="none" stroke-width="1" fill="none" fill-rule="evenodd">
        <g id="flag">
            <mask id="mask-2" fill="white">
                <use xlink:href="#path-1"></use>
            </mask>
            <g id="mask"></g>
            <g id="contents" mask="url(#mask-2)">
                <mask id="mask-4" fill="white">
                    <use xlink:href="#path-3"></use>
                </mask>
                <use id="background" fill="#279E19" xlink:href="#path-3"></use>
                <g id="mark" mask="url(#mask-4)">
                    <polygon id="cross-white" fill="#F7FCFF" points="10 0 11.25 0 11.25 8.75 20 8.75 20 10 11.25 10 11.25 15 10 15 10 10 0 10 0 8.75 10 8.75"></polygon>
                    <polygon id="cross-black" fill="#272727" points="8.75 0 10 0 10 7.5 20 7.5 20 8.75 10 8.75 10 15 8.75 15 8.75 8.75 0 8.75 0 7.5 8.75 7.5"></polygon>
                    <polygon id="cross-yellow" fill="#FECA00" points="7.5 0 8.75 0 8.75 6.25 20 6.25 20 7.5 8.75 7.5 8.75 15 7.5 15 7.5 7.5 0 7.5 0 6.25 7.5 6.25"></polygon>
                    <circle id="Oval-16" fill="#C51918" cx="10" cy="7.5" r="5"></circle>
                    <g id="mark-3" transform="translate(4.499969, 2.250004)">
                        <path d="M4.70372682,3.00809295 C4.86203425,2.49437242 5.12506851,2.37020972 5.4928296,2.63560486 C6.35787173,3.06166568 6.64319383,3.55114717 6.97715681,4.10546743 C7.3111198,4.6597877 6.1583448,4.25381665 5.94328965,3.94183424 C5.72823451,3.62985183 4.53532722,3.52869389 4.70372682,3.26839342 C4.81599321,3.09485977 4.81599321,3.00809295 4.70372682,3.00809295 Z" id="Path-16" fill="#804BFF"></path>
                        <path d="M4.50821578,6.95340174 C4.11667786,7.48902406 4.11667786,7.75683523 4.50821578,7.75683523 C5.09552267,7.75683523 7.4765866,7.58398437 7.1911936,7.35511848 C7.0009316,7.20254123 6.20067308,7.20254123 4.79041805,7.35511848 L4.50821578,6.95340174 Z" id="Path-20" fill="#A95601"></path>
                        <path d="M5.38630445,6.92811226 C5.32539698,6.8594131 4.25529731,4.43115001 4.75283835,3.92646332 C5.25037939,3.42177662 5.54194113,3.71833686 5.54194113,4.47511117 C5.54194113,5.23188548 5.57184655,7.11510471 5.38630445,6.92811226 Z" id="Path-17" fill="#804BFF"></path>
                        <path d="M5.32334073,6.5340375 C5.28216851,6.92753451 5.36276396,7.35396299 5.5651271,7.81332295 C5.8686718,8.50236289 6.48178814,8.48908516 6.48178814,7.92511665 C6.48178814,7.36114813 6.92927018,7.89040885 7.10107322,8.26680041 C7.27287626,8.64319197 6.8279468,4.92449189 6.19653695,4.0925388 C5.5651271,3.26058571 4.95591054,3.20717054 5.13962563,3.74478871 C5.26210237,4.10320083 5.32334073,5.03295042 5.32334073,6.5340375 Z" id="Path-18" fill="#279E19"></path>
                        <path d="M4.95459949,2.5 C4.77653316,2.61418346 4.6875,2.82852693 4.6875,3.14303041 C4.6875,3.45753389 4.89830084,3.40884573 5.31990252,2.99696592 L4.95459949,2.5 Z" id="Path-19" fill="#FECA00"></path>
                        <path d="M5.56251526,7.99999237 L5.8380396,8.55826565 L6.45413074,8.64778894 L6.008323,9.08234409 L6.11356393,9.6959458 L5.56251526,9.40624237 L5.01146658,9.6959458 L5.11670752,9.08234409 L4.67089977,8.64778894 L5.28699092,8.55826565 L5.56251526,7.99999237 Z M3.51165117,7.07291081 L3.5145599,7.69546544 L4.02905453,8.04600501 L3.43786875,8.24115134 L3.26347338,8.8387875 L2.89519174,8.33683994 L2.27291485,8.35565982 L2.63649006,7.85029284 L2.42629715,7.26428801 L3.01928063,7.4539016 L3.51165117,7.07291081 Z M8.67136945,6.89664391 L8.67427818,7.51919853 L9.18877281,7.86973811 L8.59758703,8.06488444 L8.42319166,8.6625206 L8.05491002,8.16057304 L7.43263313,8.17939292 L7.79620834,7.67402594 L7.58601543,7.08802111 L8.17899891,7.2776347 L8.67136945,6.89664391 Z M9.0625,4.49998856 L9.33802434,5.05826184 L9.95411548,5.14778512 L9.50830774,5.58234027 L9.61354867,6.19594199 L9.0625,5.90623856 L8.51145133,6.19594199 L8.61669226,5.58234027 L8.17088452,5.14778512 L8.78697566,5.05826184 L9.0625,4.49998856 Z M1.93756104,4.49998856 L2.21308537,5.05826184 L2.82917652,5.14778512 L2.38336878,5.58234027 L2.48860971,6.19594199 L1.93756104,5.90623856 L1.38651236,6.19594199 L1.49175329,5.58234027 L1.04594555,5.14778512 L1.6620367,5.05826184 L1.93756104,4.49998856 Z M3.36624391,2.02049853 L3.36915264,2.64305315 L3.88364727,2.99359273 L3.29246149,3.18873906 L3.11806612,3.78637521 L2.74978448,3.28442765 L2.12750759,3.30324753 L2.4910828,2.79788055 L2.28088989,2.21187572 L2.87387337,2.40148931 L3.36624391,2.02049853 Z M8.5849711,1.94765864 L8.58787983,2.57021326 L9.10237446,2.92075284 L8.51118868,3.11589917 L8.33679332,3.71353533 L7.96851167,3.21158777 L7.34623478,3.23040765 L7.70980999,2.72504067 L7.49961709,2.13903584 L8.09260057,2.32864942 L8.5849711,1.94765864 Z M5.56251526,0.625 L5.8380396,1.18327328 L6.45413074,1.27279657 L6.008323,1.70735172 L6.11356393,2.32095343 L5.56251526,2.03125 L5.01146658,2.32095343 L5.11670752,1.70735172 L4.67089977,1.27279657 L5.28699092,1.18327328 L5.56251526,0.625 Z" id="Combined-Shape" fill="#FECA00"></path>
                    </g>
                </g>
            </g>
        </g>
    </g>
</svg>