<?xml version="1.0" encoding="UTF-8"?>
<svg width="20px" height="15px" viewBox="0 0 20 15" version="1.1" xmlns="http://www.w3.org/2000/svg" xmlns:xlink="http://www.w3.org/1999/xlink">
    <title>flags/M/DO - Dominican Republic</title>
    <defs>
        <rect id="path-1" x="0" y="0" width="20" height="15"></rect>
        <rect id="path-3" x="0" y="0" width="20" height="15"></rect>
    </defs>
    <g id="Symbols" stroke="none" stroke-width="1" fill="none" fill-rule="evenodd">
        <g id="flag">
            <mask id="mask-2" fill="white">
                <use xlink:href="#path-1"></use>
            </mask>
            <g id="mask"></g>
            <g id="contents" mask="url(#mask-2)">
                <mask id="mask-4" fill="white">
                    <use xlink:href="#path-3"></use>
                </mask>
                <use id="background" fill="#C51918" xlink:href="#path-3"></use>
                <g id="mark" mask="url(#mask-4)" fill="#F7FCFF">
                    <polygon id="cross" points="8.75 0 11.25 0 11.25 6.25 20 6.25 20 8.75 11.25 8.75 11.25 15 8.75 15 8.75 8.75 0 8.75 0 6.25 8.75 6.25"></polygon>
                </g>
                <rect id="blue" fill="#4257BF" mask="url(#mask-4)" x="0" y="0" width="8.75" height="6.25"></rect>
                <rect id="blue" fill="#4257BF" mask="url(#mask-4)" x="11.25" y="8.75" width="8.75" height="6.25"></rect>
                <g id="mark" mask="url(#mask-4)">
                    <g transform="translate(7.500000, 5.874996)">
                        <path d="M1.02307082,1.06920229 L1.64522756,1.12875049 C1.53874037,2.24132351 1.67712375,2.71011382 1.90199251,2.71011382 L1.90199251,3.33511382 C1.12424854,3.33511382 0.884069705,2.52147918 1.02307082,1.06920229 Z" id="Path-21" fill="#309404" fill-rule="nonzero"></path>
                        <path d="M2.84125264,1.06920229 L3.46340938,1.12875049 C3.35692219,2.24132351 3.49530557,2.71011382 3.72017432,2.71011382 L3.72017432,3.33511382 C2.94243036,3.33511382 2.70225152,2.52147918 2.84125264,1.06920229 Z" id="Path-21" fill="#309404" fill-rule="nonzero" transform="translate(3.428959, 2.202158) scale(-1, 1) translate(-3.428959, -2.202158) "></path>
                        <rect id="Rectangle-16" fill="#003994" fill-rule="evenodd" x="1.70454545" y="0.807692308" width="1" height="1"></rect>
                        <path d="M2.61363636,1.90384615 L3.20454545,1.90384615 L3.20454545,2.37237762 C3.20454545,2.62341615 3.00103852,2.82692308 2.75,2.82692308 L2.61363636,2.82692308 L2.61363636,2.82692308 L2.61363636,1.90384615 Z" id="Rectangle-16" fill="#003994" fill-rule="evenodd"></path>
                        <rect id="Rectangle-16" fill="#DE2110" fill-rule="evenodd" x="2.56818182" y="0.75" width="1" height="1"></rect>
                        <path d="M1.70454545,1.90384615 L2.29545455,1.90384615 L2.29545455,2.82692308 L2.15909091,2.82692308 C1.90805239,2.82692308 1.70454545,2.62341615 1.70454545,2.37237762 L1.70454545,1.90384615 L1.70454545,1.90384615 Z" id="Rectangle-16" fill="#DE2110" fill-rule="evenodd"></path>
                        <path d="M1.45902331,0.755852212 L1.04097669,0.291242664 C1.48244378,-0.105980813 1.94253861,-0.3125 2.41638783,-0.3125 C2.89023706,-0.3125 3.35033189,-0.105980813 3.79179897,0.291242664 L3.37375236,0.755852212 C3.0394044,0.455012438 2.72190734,0.3125 2.41638783,0.3125 C2.11086833,0.3125 1.79337126,0.455012438 1.45902331,0.755852212 Z" id="Path-22" fill="#00319C" fill-rule="nonzero"></path>
                        <path d="M1.50447785,3.87123683 L1.08643124,3.40662728 C1.52789833,3.0094038 1.98799315,2.80288462 2.46184238,2.80288462 C2.9356916,2.80288462 3.39578643,3.0094038 3.83725352,3.40662728 L3.41920691,3.87123683 C3.08485895,3.57039705 2.76736189,3.42788462 2.46184238,3.42788462 C2.15632287,3.42788462 1.83882581,3.57039705 1.50447785,3.87123683 Z" id="Path-22" fill="#DE2110" fill-rule="nonzero"></path>
                    </g>
                </g>
            </g>
        </g>
    </g>
</svg>