<?xml version="1.0" encoding="UTF-8"?>
<svg width="20px" height="15px" viewBox="0 0 20 15" version="1.1" xmlns="http://www.w3.org/2000/svg" xmlns:xlink="http://www.w3.org/1999/xlink">
    <title>flags/M/EG - Egypt</title>
    <defs>
        <rect id="path-1" x="0" y="0" width="20" height="15"></rect>
        <rect id="path-3" x="0" y="0" width="20" height="15"></rect>
    </defs>
    <g id="Symbols" stroke="none" stroke-width="1" fill="none" fill-rule="evenodd">
        <g id="flag">
            <mask id="mask-2" fill="white">
                <use xlink:href="#path-1"></use>
            </mask>
            <g id="mask"></g>
            <g id="contents" mask="url(#mask-2)">
                <mask id="mask-4" fill="white">
                    <use xlink:href="#path-3"></use>
                </mask>
                <use id="background" fill="#F7FCFF" xlink:href="#path-3"></use>
                <rect id="top" fill="#BF2714" mask="url(#mask-4)" x="0" y="0" width="20" height="5"></rect>
                <rect id="bottom" fill="#272727" mask="url(#mask-4)" x="0" y="10" width="20" height="5"></rect>
                <g id="mark" mask="url(#mask-4)">
                    <g transform="translate(7.500000, 3.750000)">
                        <g id="wing" stroke-width="1" fill="none" fill-rule="evenodd" transform="translate(0.000000, 2.543103)">
                            <polygon id="Path-23" fill="#C09302" fill-rule="nonzero" points="0.162704413 0.0945417912 0.787048702 0.123163621 0.630328497 3.54179083 0.00598420785 3.513169"></polygon>
                            <polygon id="Path-23" fill="#C09302" fill-rule="nonzero" points="0.81504869 0.306730823 1.43905225 0.342009071 1.28233205 3.11408456 0.658328484 3.07880631"></polygon>
                            <polygon id="Path-23" fill="#C09302" fill-rule="nonzero" points="1.46777106 0.514331764 2.0906777 0.565442614 1.9339575 2.47544913 1.31105086 2.42433829"></polygon>
                        </g>
                        <g id="wing" stroke-width="1" fill="none" fill-rule="evenodd" transform="translate(3.913043, 4.375000) scale(-1, 1) translate(-3.913043, -4.375000) translate(2.826087, 2.543103)">
                            <polygon id="Path-23" fill="#C09302" fill-rule="nonzero" points="0.162704413 0.0945417912 0.787048702 0.123163621 0.630328497 3.54179083 0.00598420785 3.513169"></polygon>
                            <polygon id="Path-23" fill="#C09302" fill-rule="nonzero" points="0.81504869 0.306730823 1.43905225 0.342009071 1.28233205 3.11408456 0.658328484 3.07880631"></polygon>
                            <polygon id="Path-23" fill="#C09302" fill-rule="nonzero" points="1.46777106 0.514331764 2.0906777 0.565442614 1.9339575 2.47544913 1.31105086 2.42433829"></polygon>
                        </g>
                        <g id="feathers" stroke-width="1" fill="none" fill-rule="evenodd" transform="translate(2.173913, 4.537506)">
                            <polygon id="Path-30" fill="#C09302" fill-rule="nonzero" points="0.309425645 1.29167665 -0.299788486 1.15209463 -0.0419292738 0.0266526102 0.567284858 0.166234636"></polygon>
                            <polygon id="Path-30" fill="#C09302" fill-rule="nonzero" transform="translate(0.759994, 0.659165) scale(-1, 1) translate(-0.759994, -0.659165) " points="0.744208254 1.29167665 0.134994122 1.15209463 0.392853335 0.0266526102 1.00206747 0.166234636"></polygon>
                            <polygon id="Path-31" fill="#C09302" fill-rule="nonzero" points="0.621195666 1.28136066 -0.00380433367 1.28136066 -0.00380433367 0.176405307 0.621195666 0.176405307"></polygon>
                        </g>
                        <g id="center" stroke-width="1" fill="none" fill-rule="evenodd" transform="translate(0.489130, 2.974138)">
                            <polygon id="Path-23" fill="#C09302" fill-rule="nonzero" points="1.15758912 0.0966436071 1.78240115 0.11197092 1.74589736 1.60003384 1.12108533 1.58470653"></polygon>
                            <polygon id="Path-23" fill="#C09302" fill-rule="nonzero" points="2.24454564 0.0966436071 2.86935767 0.11197092 2.83285388 1.60003384 2.20804185 1.58470653"></polygon>
                        </g>
                        <g id="bottom" stroke-width="1" fill="none" fill-rule="evenodd" transform="translate(0.434783, 4.956897)">
                            <path d="M0.401450787,1.24488254 L0.563765893,0.641327404 C1.22691857,0.819670178 1.73611494,0.907868796 2.08333332,0.907868796 C2.4305517,0.907868796 2.93974806,0.819670178 3.60290074,0.641327404 L3.76521585,1.24488254 C3.05372544,1.43622487 2.49577182,1.5328688 2.08333332,1.5328688 C1.67089482,1.5328688 1.1129412,1.43622487 0.401450787,1.24488254 Z" id="Path-28" fill="#C09302" fill-rule="nonzero"></path>
                        </g>
                        <path d="M0.176440223,2.63919332 C0.134775791,2.22631805 0.376426438,1.94682974 0.785964696,1.98247686 C0.920625323,1.99419802 1.07187154,2.03403544 1.27331757,2.10237982 C1.33217286,2.1225716 1.33217286,2.1225716 1.38937666,2.14282192 C1.66630835,2.24131964 1.74150375,2.26663879 1.75711098,2.26997283 C1.69575008,2.25607547 1.87648153,1.92934409 1.91793879,1.87427396 C1.92284045,1.90924434 1.90203544,1.90426738 1.85207765,1.89426905 L1.2883038,1.78143794 L1.68962529,1.36971853 C1.82990376,1.22580556 2.01671245,1.15443993 2.2298899,1.15443993 C2.25199059,1.15443993 2.27260958,1.15341291 2.34033507,1.14924648 C2.39042052,1.1462014 2.39042052,1.1462014 2.44673338,1.14387091 C2.83670674,1.13123414 3.11637732,1.24151033 3.11637732,1.6425438 C3.11637732,1.78601751 3.13449772,2.01673513 3.16440572,2.19176641 C3.17446657,2.25064574 3.19390379,2.30575806 3.1365795,2.32996472 C3.13894731,2.30907675 3.27554112,2.25517392 3.48794302,2.16634437 L3.51344547,2.15568853 C4.13058964,1.89809914 4.20269229,1.87420136 4.40163008,1.99510254 C4.53420349,2.07567185 4.66043085,2.2205929 4.80187171,2.43666245 L4.27894826,2.77897234 C4.18771915,2.63960786 4.11506762,2.5550454 4.08047284,2.53142585 C4.15909994,2.58605084 3.89428581,2.67398701 3.75418519,2.73246352 L3.7290879,2.74295008 C3.24859531,2.94389905 3.18525392,2.96787081 3.04786299,2.96787081 C2.6739918,2.96787081 2.53974533,2.58489722 2.50299531,2.03642664 C2.38764375,2.41615958 2.04347397,2.89537797 1.75986787,2.89537797 C1.63571357,2.89537797 1.69540276,2.91502362 1.17993309,2.73168387 C1.12592679,2.71256726 1.12592679,2.71256726 1.07251626,2.69424453 C0.916351878,2.6412628 0.80369421,2.61154219 0.732619002,2.60519762 C0.735555963,2.60184695 0.746020692,2.59058933 0.757762923,2.58053037 L0.176440223,2.63919332 Z" id="Path-32" fill="#C09302" fill-rule="nonzero"></path>
                    </g>
                </g>
            </g>
        </g>
    </g>
</svg>