<?xml version="1.0" encoding="UTF-8"?>
<svg width="20px" height="15px" viewBox="0 0 20 15" version="1.1" xmlns="http://www.w3.org/2000/svg" xmlns:xlink="http://www.w3.org/1999/xlink">
    <title>flags/M/ER - Eritrea</title>
    <defs>
        <rect id="path-1" x="0" y="0" width="21.25" height="15"></rect>
    </defs>
    <g id="Symbols" stroke="none" stroke-width="1" fill="none" fill-rule="evenodd">
        <g id="flag">
            <mask id="mask-2" fill="white">
                <use xlink:href="#path-1"></use>
            </mask>
            <g id="mask"></g>
            <g id="contents" mask="url(#mask-2)">
                <rect id="top" fill="#43B764" x="0" y="0" width="20.25" height="7.5"></rect>
                <rect id="bottom" fill="#B4D7F4" x="0" y="7.5" width="20.25" height="7.5"></rect>
                <polygon id="blue" fill="#BE0027" points="0 0 20.875 7.5 0 15"></polygon>
                <path d="M5.80823999,3.75 C6.29474126,3.86981929 6.73241264,4.01710445 7.12079506,4.19179837 C7.05245813,4.089333 6.97959485,3.97693658 6.91905625,3.87129862 C6.71132578,3.50881546 7.35975763,4.07175072 7.61648571,4.44445076 L7.61648571,4.44445076 L7.79607664,4.55461816 C8.13515775,4.77216026 8.42063227,5.01929926 8.65198406,5.29597097 L8.65009276,4.56014607 C8.89275446,4.64325882 9.03079785,5.42779659 9.10328184,6.01816562 C9.15670995,6.13712782 9.20245349,6.26043142 9.24077456,6.38773033 C9.3322786,6.13534306 9.51146606,5.86427466 9.67255842,6.09689818 C9.82679579,6.31962283 9.72227823,7.17352323 9.35900573,8.65859939 L9.40022603,8.49560397 C9.39529165,8.54555506 9.38970371,8.59518885 9.38346205,8.64450492 C9.93408752,8.29448284 9.99083236,7.08777391 9.99083236,7.98913034 C9.99083236,8.47758703 9.73271334,8.96280439 9.21647528,9.44478242 C9.16926979,9.60395683 9.11412295,9.75908761 9.05105695,9.91033145 C9.7035719,9.70373574 10.0997874,9.06818638 9.99083236,9.80220104 C9.92609047,10.2383581 9.49650048,10.4978013 8.70206237,10.5805309 L8.60709334,10.728263 L8.58742951,10.7521245 C8.51508238,10.8253268 8.44197882,10.8951511 8.36812449,10.9615904 L8.32622238,10.9784053 C8.58639485,10.872831 8.78558712,10.7427457 9.06079846,10.7427457 C9.3360098,10.7427457 8.18980527,11.056303 7.97945513,11.2834725 C7.79126998,11.4867048 7.8578704,11.5372197 7.54355091,11.5456089 C7.18403807,11.7368965 6.81034491,11.8572259 6.42218855,11.9069173 L6.45336654,12.0046278 L4.8083422,12.0046278 C4.8195757,11.9626046 4.83219558,11.9225667 4.84620182,11.8845142 C4.50718528,11.8285875 4.17933086,11.715564 3.86311891,11.548176 L3.83440551,11.5470007 C3.37290622,11.5470007 3.48089502,11.5106421 3.27054487,11.2834725 C3.06019473,11.056303 1.9139902,10.7427457 2.18920154,10.7427457 C2.46441288,10.7427457 2.66360515,10.872831 2.92377762,10.9784053 C2.98398461,11.0028365 3.05986677,11.0310397 3.15142409,11.0630151 C3.03888942,10.9685109 2.9262657,10.8642827 2.81541775,10.7521245 L2.79575391,10.728263 L2.70764052,10.5938044 C1.8165753,10.5290854 1.33667826,10.2652177 1.26794941,9.80220104 C1.15685582,9.05377907 1.57095841,9.72921263 2.24673735,9.92105482 C2.29294446,9.93417223 2.3352066,9.94552752 2.37352379,9.95512067 C2.32369783,9.84560666 2.28073742,9.73371926 2.24199278,9.61976752 C1.59242938,9.08037562 1.26794941,8.53678905 1.26794941,7.98913034 C1.26794941,7.07503193 1.32630993,8.32902127 1.89977604,8.65859939 C1.53650355,7.17352323 1.43198598,6.31962283 1.58622335,6.09689818 C1.8175794,5.7628112 2.08625815,6.46763159 2.08625815,6.66606918 C2.08625815,6.86450677 2.19667246,4.70126364 2.60868901,4.56014607 L2.60868901,5.36766282 L2.60868901,5.36766282 C2.60868901,5.40615331 2.62624504,5.42063094 2.65695094,5.41617935 C2.88201216,5.117231 3.16566073,4.85272702 3.5074029,4.62025977 C3.56140203,4.55575128 3.60681628,4.49595786 3.64229606,4.44445076 C3.89902414,4.07175072 4.54745599,3.50881546 4.33972552,3.87129862 C4.25932039,4.01160305 4.1571743,4.16382955 4.07541688,4.29101947 C4.51219694,4.07181879 5.01925486,3.89170223 5.59460727,3.75 L5.67817589,4.08171892 C5.17510825,4.2056183 4.73014737,4.35841787 4.3426846,4.54019334 C4.5703376,4.5737708 4.82640657,4.66097174 4.96411579,4.66097174 C5.18111215,4.66097174 4.55370015,4.94502961 4.23623444,4.94502961 C3.91876872,4.94502961 3.66073081,5.07861643 3.50612151,5.07861643 C3.35151221,5.07861643 4.08581096,5.30409626 3.79596624,5.51895932 C3.55672534,5.69630955 3.18781086,5.49079204 2.87103452,5.70688719 C2.75793536,5.86811477 2.66459838,6.03801277 2.58969793,6.21748569 C2.66405562,6.3185357 2.96110772,6.20322763 3.02914674,6.09689818 C3.12939089,5.94023945 3.71718586,6.09444626 3.26891313,6.54374887 C2.97764737,6.8356838 2.57550552,7.01472537 2.36711719,7.14369848 L2.3980647,6.91452955 C2.3773195,7.05362444 2.36073044,7.19054458 2.3482946,7.32529749 C2.40798601,7.26142752 2.4575949,7.11393838 2.60868901,7.19601997 C2.66879275,7.22867122 2.70182264,7.23097804 2.71794402,7.22744626 L2.724,7.225 L2.71899477,7.23469658 C2.70359496,7.26493968 2.67874105,7.35096855 2.67874105,7.57549035 C2.67874105,7.76259184 2.63766451,7.9443584 2.58546696,8.0950764 L2.574,8.123 L2.61117449,8.09165312 C2.72423041,7.99906789 2.83407803,7.98557136 2.83407803,8.19334963 C2.83407803,8.32321105 2.81681836,8.42222713 2.79380548,8.51107512 L2.7190136,8.76779212 C2.69600071,8.85698121 2.67874105,8.95667947 2.67874105,9.08756418 C2.67874105,9.4802183 2.83407803,10.0399086 2.83407803,9.92105482 C2.83407803,9.80220104 3.02276044,9.03874577 3.12939089,9.38336871 C3.23602133,9.72799166 3.24167994,10.3562313 3.441988,10.6052736 C3.58747803,10.7861608 4.10419617,11.208484 4.43528791,11.4260897 C4.63010343,11.496153 4.83112762,11.5437978 5.03636083,11.5692724 C5.12553627,11.4721636 5.2355096,11.4069672 5.36584168,11.3709256 L5.36569897,11.4392446 C5.37480292,11.0192696 5.37066501,10.5548484 5.34400321,10.1159061 L5.32011704,10.091055 C5.28124369,10.059491 5.22610875,10.0437091 5.15471223,10.0437091 C4.90482441,10.0437091 4.35595413,9.83011406 4.35595413,9.52264852 C4.62889445,9.64595451 4.80345272,9.67678101 4.87962897,9.61512801 C4.99389334,9.52264852 4.14055869,8.97429499 4.24825641,8.71047901 C4.51586919,8.94740175 4.67824049,9.06586313 4.7353703,9.06586313 C4.82106501,9.06586313 4.59111162,8.51333651 4.7353703,8.61190776 C4.87962897,8.71047901 5.28031106,9.39041798 5.28031106,9.61512801 C5.28031106,9.70501203 5.29333957,9.82332803 5.3193966,9.97007601 L5.3423553,10.0892656 C5.34206566,10.0846667 5.34177351,10.0800708 5.34147885,10.0754779 C5.32487068,9.81660777 5.30092902,9.58409752 5.26906785,9.38508732 C5.08885664,8.25945796 5.08253825,7.1056488 5.3335675,6.49228891 C5.20775199,6.41567302 5.11712116,6.3172286 5.11712116,6.20484129 C5.39006147,6.31575926 5.56461975,6.34348875 5.64079599,6.28802976 C5.75506036,6.20484129 4.90172572,5.71157849 5.00942344,5.47426696 C5.27703622,5.6873871 5.43940751,5.79394716 5.49653732,5.79394716 C5.58223204,5.79394716 5.35227865,5.29693053 5.49653732,5.38559874 C5.64079599,5.47426696 6.04147809,6.08589538 6.04147809,6.28802976 C6.19655738,6.10057579 6.3776444,5.92088363 6.47284823,5.87588432 C6.66044118,5.7872161 6.36141144,6.28423273 6.47284823,6.28423273 C6.54713943,6.28423273 6.7582859,6.17767267 7.10628764,5.96455253 C7.24633699,6.20186406 6.13666671,6.69512686 6.28525528,6.77831533 C6.38431433,6.83377432 6.61130867,6.80604483 6.9662383,6.69512686 C6.9662383,6.97170266 6.25249131,7.1638387 5.92753897,7.1638387 C5.83469545,7.1638387 5.76299837,7.17803512 5.71244774,7.20642797 L5.69126248,7.22093565 C5.66850734,7.41576026 5.65800649,7.63746638 5.65909598,7.8754548 C5.82195394,7.66786133 6.02445092,7.46275139 6.1271023,7.41423189 C6.31469525,7.32556368 6.01566551,7.82258031 6.1271023,7.82258031 C6.2013935,7.82258031 6.41253997,7.71602024 6.76054172,7.50290011 C6.90059106,7.74021164 5.79092078,8.23347443 5.93950935,8.31666291 C6.0385684,8.3721219 6.26556274,8.3443924 6.62049237,8.23347443 C6.62049237,8.47952514 6.05560068,8.65874641 5.70211151,8.69530979 C5.7225196,8.89675979 5.74880188,9.10187127 5.78130864,9.30491392 C5.81597397,9.52143936 5.84149787,9.76931558 5.85905744,10.0430151 C5.86668274,10.1618701 5.87268086,10.2824014 5.87722747,10.4034052 C5.89568943,10.291677 5.90419077,10.2005176 5.90419077,10.1279105 C5.90419077,9.9032005 6.30487286,9.22326153 6.44913153,9.12469029 C6.59339021,9.02611904 6.36343682,9.57864565 6.44913153,9.57864565 C6.50626134,9.57864565 6.66863264,9.46018428 6.93624541,9.22326153 C7.04394313,9.48707752 6.19060849,10.035431 6.30487286,10.1279105 C6.3810491,10.1895635 6.55560738,10.158737 6.82854769,10.035431 C6.82854769,10.3428966 6.27967741,10.5564916 6.02978959,10.5564916 C5.96812896,10.5564916 5.91859732,10.5682629 5.88119467,10.5918054 C5.88989686,10.8568927 5.8901509,11.1204253 5.88575803,11.3707332 C6.0276751,11.4056346 6.14537111,11.4766322 6.23950873,11.5813666 C6.39209756,11.5700894 6.54235199,11.5459878 6.69035072,11.5098027 C6.99178985,11.3401547 7.64955299,10.8132034 7.81679377,10.6052736 C8.01710183,10.3562313 8.02276044,9.72799166 8.12939089,9.38336871 C8.23602133,9.03874577 8.42470375,9.80220104 8.42470375,9.92105482 C8.42470375,10.0399086 8.58004073,9.4802183 8.58004073,9.08756418 C8.58004073,8.69491006 8.42470375,8.5829339 8.42470375,8.19334963 C8.42470375,7.98557136 8.53455137,7.99906789 8.64760729,8.09165312 L8.684,8.124 L8.67331481,8.0950764 C8.63155677,7.974502 8.59691618,7.83405652 8.58473027,7.68690534 L8.58004073,7.57549035 C8.58004073,7.35096855 8.55518681,7.26493968 8.53978701,7.23469658 L8.534,7.225 C8.55292879,7.23009509 8.57453086,7.22945971 8.60993247,7.21520173 L8.65009276,7.19601997 C8.87548177,7.07357781 8.87504516,7.46197803 9.01204443,7.31846213 C9.14904369,7.17494624 8.43814137,6.99305148 7.98986864,6.54374887 C7.54159591,6.09444626 8.12939089,5.94023945 8.22963504,6.09689818 C8.32987918,6.25355691 8.9272446,6.42970562 8.58004073,5.90821336 C8.23283686,5.3867211 7.75266026,5.73382238 7.46281554,5.51895932 C7.17297081,5.30409626 7.90726956,5.07861643 7.75266026,5.07861643 C7.59805097,5.07861643 7.34001305,4.94502961 7.02254734,4.94502961 C6.70508162,4.94502961 6.07766963,4.66097174 6.29466598,4.66097174 C6.4567873,4.66097174 6.78295179,4.54011376 7.03285606,4.52723545 C6.65230685,4.35144048 6.21622814,4.20278331 5.72467137,4.08171892 L5.72467137,4.08171892 Z" id="Combined-Shape" fill="#F3E294" fill-rule="nonzero"></path>
            </g>
        </g>
    </g>
</svg>