<?xml version="1.0" encoding="UTF-8"?>
<svg width="20px" height="15px" viewBox="0 0 20 15" version="1.1" xmlns="http://www.w3.org/2000/svg" xmlns:xlink="http://www.w3.org/1999/xlink">
    <title>flags/M/ES - Spain</title>
    <defs>
        <rect id="path-1" x="0" y="0" width="20" height="15"></rect>
        <rect id="path-3" x="0" y="0" width="20" height="15"></rect>
        <path d="M0,0 L1.26,0 L1.26,0.56 C1.155,0.513333333 1.05,0.49 0.945,0.49 C0.84,0.49 0.735,0.513333333 0.63,0.56 C0.525,0.513333333 0.42,0.49 0.315,0.49 C0.21,0.49 0.105,0.513333333 0,0.56 L0,0 Z" id="path-5"></path>
        <path d="M0,0 L1.26,0 L1.26,0.56 C1.155,0.513333333 1.05,0.49 0.945,0.49 C0.84,0.49 0.735,0.513333333 0.63,0.56 C0.525,0.513333333 0.42,0.49 0.315,0.49 C0.21,0.49 0.105,0.513333333 0,0.56 L0,0 Z" id="path-7"></path>
        <path d="M0,0 L4.55,0 L4.55,4.08801949 C4.324677,5.00267316 3.56634367,5.46 2.275,5.46 C0.983656333,5.46 0.225323,4.99061468 0,4.05184404 L0,0 Z" id="path-9"></path>
    </defs>
    <g id="Symbols" stroke="none" stroke-width="1" fill="none" fill-rule="evenodd">
        <g id="flag">
            <mask id="mask-2" fill="white">
                <use xlink:href="#path-1"></use>
            </mask>
            <g id="mask"></g>
            <g id="contents" mask="url(#mask-2)">
                <mask id="mask-4" fill="white">
                    <use xlink:href="#path-3"></use>
                </mask>
                <use id="background" fill="#FFB400" xlink:href="#path-3"></use>
                <rect id="top" fill="#C51918" mask="url(#mask-4)" x="0" y="0" width="20" height="3.75"></rect>
                <rect id="bottom" fill="#C51918" mask="url(#mask-4)" x="0" y="11.25" width="20" height="3.75"></rect>
                <g id="mark" mask="url(#mask-4)">
                    <g transform="translate(2.500000, 2.500000)">
                        <g id="pillars" transform="translate(0.000000, 2.590000)">
                            <rect id="Rectangle-76" fill="#F1F9FF" x="0.63" y="1.33" width="1" height="3.64"></rect>
                            <path d="M1.61,0.7 L1.61,1.05 L1.4,1.05 L1.4,1.33 L0.56,1.33 L0.56,1.05 L0.35,1.05 L0.35,0.7 L1.61,0.7 Z" id="Combined-Shape" fill="#C88A02"></path>
                            <polygon id="Combined-Shape" fill="#C88A02" points="1.4 5.18 1.61 5.18 1.61 5.53 0.35 5.53 0.35 5.18 0.56 5.18 0.56 4.9 1.4 4.9"></polygon>
                            <path d="M0.98,0.77 C1.13233271,0.77 1.14781594,0.712639852 1.23768736,0.62696873 C1.3074728,0.560444836 1.47,0.477939645 1.47,0.385 C1.47,0.172370371 1.25061953,0 0.98,0 C0.709380473,0 0.49,0.172370371 0.49,0.385 C0.49,0.488542174 0.601924535,0.557775201 0.686552241,0.62696873 C0.775712248,0.69986797 0.841161422,0.77 0.98,0.77 Z" id="Oval-56" fill="#AD1619"></path>
                            <g id="water" transform="translate(0.350000, 5.530000)">
                                <mask id="mask-6" fill="white">
                                    <use xlink:href="#path-5"></use>
                                </mask>
                                <use id="Rectangle-76" fill="#005BBF" xlink:href="#path-5"></use>
                                <path d="M-0.011392436,0.449952978 L-0.0388940375,0.38289956 C0.0745924988,0.332394029 0.188483476,0.307051269 0.302546023,0.307051269 C0.376238771,0.307051269 0.414721205,0.317326897 0.480141454,0.346441226 C0.537604677,0.372014397 0.567390839,0.379967936 0.630235283,0.379967936 C0.693079728,0.379967936 0.722865889,0.372014397 0.780329113,0.346441226 C0.845749362,0.317326897 0.884231796,0.307051269 0.957924543,0.307051269 C1.07198709,0.307051269 1.18587807,0.332394029 1.2993646,0.38289956 L1.271863,0.449952978 C1.16689003,0.403236286 1.0623215,0.379967936 0.957924543,0.379967936 C0.895080099,0.379967936 0.865293938,0.387921474 0.807830714,0.413494645 C0.742410465,0.442608974 0.703928031,0.452884602 0.630235283,0.452884602 C0.556542536,0.452884602 0.518060102,0.442608974 0.452639853,0.413494645 C0.395176629,0.387921474 0.365390468,0.379967936 0.302546023,0.379967936 C0.198149064,0.379967936 0.0935805345,0.403236286 -0.011392436,0.449952978 Z" id="Path-308" fill="#FFFFFF" fill-rule="nonzero" mask="url(#mask-6)"></path>
                                <path d="M-0.011392436,0.239952978 L-0.0388940375,0.17289956 C0.0745924988,0.122394029 0.188483476,0.0970512688 0.302546023,0.0970512688 C0.376238771,0.0970512688 0.414721205,0.107326897 0.480141454,0.136441226 C0.537604677,0.162014397 0.567390839,0.169967936 0.630235283,0.169967936 C0.693079728,0.169967936 0.722865889,0.162014397 0.780329113,0.136441226 C0.845749362,0.107326897 0.884231796,0.0970512688 0.957924543,0.0970512688 C1.07198709,0.0970512688 1.18587807,0.122394029 1.2993646,0.17289956 L1.271863,0.239952978 C1.16689003,0.193236286 1.0623215,0.169967936 0.957924543,0.169967936 C0.895080099,0.169967936 0.865293938,0.177921474 0.807830714,0.203494645 C0.742410465,0.232608974 0.703928031,0.242884602 0.630235283,0.242884602 C0.556542536,0.242884602 0.518060102,0.232608974 0.452639853,0.203494645 C0.395176629,0.177921474 0.365390468,0.169967936 0.302546023,0.169967936 C0.198149064,0.169967936 0.0935805345,0.193236286 -0.011392436,0.239952978 Z" id="Path-308" fill="#FFFFFF" fill-rule="nonzero" mask="url(#mask-6)"></path>
                            </g>
                            <rect id="Rectangle-76" fill="#F1F9FF" x="7.49" y="1.33" width="1" height="3.64"></rect>
                            <path d="M8.47,0.7 L8.47,1.05 L8.26,1.05 L8.26,1.33 L7.42,1.33 L7.42,1.05 L7.21,1.05 L7.21,0.7 L8.47,0.7 Z" id="Combined-Shape" fill="#C88A02"></path>
                            <polygon id="Combined-Shape" fill="#C88A02" points="8.26 5.18 8.47 5.18 8.47 5.53 7.21 5.53 7.21 5.18 7.42 5.18 7.42 4.9 8.26 4.9"></polygon>
                            <path d="M7.84,0.77 C7.99233271,0.77 8.00781594,0.712639852 8.09768736,0.62696873 C8.1674728,0.560444836 8.33,0.477939645 8.33,0.385 C8.33,0.172370371 8.11061953,0 7.84,0 C7.56938047,0 7.35,0.172370371 7.35,0.385 C7.35,0.488542174 7.46192453,0.557775201 7.54655224,0.62696873 C7.63571225,0.69986797 7.70116142,0.77 7.84,0.77 Z" id="Oval-56" fill="#AD1619"></path>
                            <g id="water" transform="translate(7.210000, 5.530000)">
                                <mask id="mask-8" fill="white">
                                    <use xlink:href="#path-7"></use>
                                </mask>
                                <use id="Rectangle-76" fill="#005BBF" xlink:href="#path-7"></use>
                                <path d="M-0.011392436,0.449952978 L-0.0388940375,0.38289956 C0.0745924988,0.332394029 0.188483476,0.307051269 0.302546023,0.307051269 C0.376238771,0.307051269 0.414721205,0.317326897 0.480141454,0.346441226 C0.537604677,0.372014397 0.567390839,0.379967936 0.630235283,0.379967936 C0.693079728,0.379967936 0.722865889,0.372014397 0.780329113,0.346441226 C0.845749362,0.317326897 0.884231796,0.307051269 0.957924543,0.307051269 C1.07198709,0.307051269 1.18587807,0.332394029 1.2993646,0.38289956 L1.271863,0.449952978 C1.16689003,0.403236286 1.0623215,0.379967936 0.957924543,0.379967936 C0.895080099,0.379967936 0.865293938,0.387921474 0.807830714,0.413494645 C0.742410465,0.442608974 0.703928031,0.452884602 0.630235283,0.452884602 C0.556542536,0.452884602 0.518060102,0.442608974 0.452639853,0.413494645 C0.395176629,0.387921474 0.365390468,0.379967936 0.302546023,0.379967936 C0.198149064,0.379967936 0.0935805345,0.403236286 -0.011392436,0.449952978 Z" id="Path-308" fill="#FFFFFF" fill-rule="nonzero" mask="url(#mask-8)"></path>
                                <path d="M-0.011392436,0.239952978 L-0.0388940375,0.17289956 C0.0745924988,0.122394029 0.188483476,0.0970512688 0.302546023,0.0970512688 C0.376238771,0.0970512688 0.414721205,0.107326897 0.480141454,0.136441226 C0.537604677,0.162014397 0.567390839,0.169967936 0.630235283,0.169967936 C0.693079728,0.169967936 0.722865889,0.162014397 0.780329113,0.136441226 C0.845749362,0.107326897 0.884231796,0.0970512688 0.957924543,0.0970512688 C1.07198709,0.0970512688 1.18587807,0.122394029 1.2993646,0.17289956 L1.271863,0.239952978 C1.16689003,0.193236286 1.0623215,0.169967936 0.957924543,0.169967936 C0.895080099,0.169967936 0.865293938,0.177921474 0.807830714,0.203494645 C0.742410465,0.232608974 0.703928031,0.242884602 0.630235283,0.242884602 C0.556542536,0.242884602 0.518060102,0.232608974 0.452639853,0.203494645 C0.395176629,0.177921474 0.365390468,0.169967936 0.302546023,0.169967936 C0.198149064,0.169967936 0.0935805345,0.193236286 -0.011392436,0.239952978 Z" id="Path-308" fill="#FFFFFF" fill-rule="nonzero" mask="url(#mask-8)"></path>
                            </g>
                            <path d="M0.814251735,4.26991069 C0.814251735,4.41775407 0.74367824,4.55694387 0.617474979,4.70995488 L0.187642488,4.35542966 L0.146604268,4.34281931 L0.123725325,4.16368774 C0.0814599464,3.83276934 0.222897437,3.64945955 0.514324475,3.51694515 C0.521749502,3.51356893 0.653356827,3.45620022 0.690921164,3.43818872 C0.752451918,3.40868571 0.803179903,3.37944251 0.850528816,3.34500842 C0.897214893,3.31105637 0.947323172,3.27902778 1.00776165,3.24396769 C0.647105218,3.18602316 0.452213171,3.14328256 0.302711253,3.07887114 C-0.0550717735,2.92472386 -0.101216067,2.56674521 0.242657426,2.32992887 C0.711489886,2.00705669 1.96657127,1.97801484 2.51741228,2.26241908 L2.26050149,2.76001012 C1.99019068,2.62044618 1.37566592,2.59412856 0.945312888,2.66573976 C1.01075561,2.67716979 1.08415134,2.68922621 1.16640868,2.70214104 C1.21755809,2.71017177 1.3977734,2.73799352 1.41225679,2.74024527 C1.58415017,2.76696974 1.70141468,2.80091978 1.78831514,2.86008496 C1.96568615,2.98084596 1.99196634,3.19842215 1.86539163,3.35892963 C1.81195189,3.42669575 1.74208019,3.47738427 1.63635059,3.53871413 C1.60241905,3.55839656 1.565896,3.57845159 1.51685064,3.60461955 C1.50682256,3.60997 1.42128761,3.6552996 1.39641698,3.66865458 C1.29550242,3.72284347 1.22930282,3.76197646 1.17989568,3.79790738 C1.10250565,3.85418862 1.02313433,3.89994386 0.933038786,3.94314323 C0.884573747,3.96638144 0.745368369,4.0270622 0.746123069,4.02671903 C0.743280583,4.02801154 0.740544566,4.02924101 0.737911325,4.03041161 C0.786512434,4.09618306 0.814251735,4.17669911 0.814251735,4.26991069 Z M6.23806048,2.26241908 C6.78890149,1.97801484 8.04398287,2.00705669 8.51281533,2.32992887 C8.85668883,2.56674521 8.81054453,2.92472386 8.45276151,3.07887114 C8.30325959,3.14328256 8.10836754,3.18602316 7.74771111,3.24396769 C7.80814959,3.27902778 7.85825787,3.31105637 7.90494394,3.34500842 C7.95229286,3.37944251 8.00302084,3.40868571 8.06455159,3.43818872 C8.10211593,3.45620022 8.23372326,3.51356893 8.24114828,3.51694515 C8.53257532,3.64945955 8.67401281,3.83276934 8.63174743,4.16368774 L8.63174743,4.16368774 L8.60886849,4.34281931 L8.56783027,4.35542966 L8.13799778,4.70995488 C8.01179452,4.55694387 7.94122102,4.41775407 7.94122102,4.26991069 C7.94122102,4.17669911 7.96896032,4.09618306 8.01756143,4.03041161 L8.01756143,4.03041161 C8.01010439,4.0270622 7.87089901,3.96638144 7.82243397,3.94314323 C7.73233843,3.89994386 7.65296711,3.85418862 7.57557708,3.79790738 C7.52616994,3.76197646 7.45997033,3.72284347 7.35905578,3.66865458 C7.33418515,3.6552996 7.2486502,3.60997 7.23862211,3.60461955 C7.18957676,3.57845159 7.1530537,3.55839656 7.11912217,3.53871413 C7.01339257,3.47738427 6.94352086,3.42669575 6.89008113,3.35892963 C6.76350642,3.19842215 6.78978661,2.98084596 6.96715762,2.86008496 C7.05405807,2.80091978 7.17132259,2.76696974 7.34321597,2.74024527 L7.34321597,2.74024527 L7.4212803,2.72817268 C7.48122106,2.71890268 7.55837443,2.70695948 7.58906408,2.70214104 C7.67132142,2.68922621 7.74471715,2.67716979 7.81015987,2.66573976 C7.37980684,2.59412856 6.76528208,2.62044618 6.49497127,2.76001012 L6.49497127,2.76001012 Z" id="ribbons" fill="#AD1619" fill-rule="nonzero"></path>
                            <path d="M1.20209804,2.66 L1.40871225,2.7027435 L1.40871225,3.01070494 C1.26200642,3.12776213 1.00243568,3.28493648 0.63,3.48222799 L0.63,2.66 L1.20209804,2.66 Z" id="Path-329" fill="#F1F9FF" fill-rule="nonzero"></path>
                            <path d="M8.06209804,2.66 L8.26871225,2.7027435 L8.26871225,3.01070494 C8.12200642,3.12776213 7.86243568,3.28493648 7.49,3.48222799 L7.49,2.66 L8.06209804,2.66 Z" id="Path-329" fill="#F1F9FF" fill-rule="nonzero" transform="translate(7.879356, 3.071114) scale(-1, 1) translate(-7.879356, -3.071114) "></path>
                        </g>
                        <g id="crown" transform="translate(1.960000, 0.000000)">
                            <path d="M2.49689931,1.31716529 L2.49650165,1.31872006 L2.68759117,1.30881531 C3.00956076,1.30572907 3.32831519,1.37400416 3.64385444,1.51364057 C4.03789867,1.51364057 4.41494593,1.64284204 4.7749962,1.90124499 L4.7749962,2.00373543 L4.06897831,2.71281527 C3.92782992,3.10412532 3.67622997,3.1247676 3.48024071,3.18995298 C3.41549181,3.21148824 2.49402359,3.23663998 2.49402359,3.23663998 L2.49350165,3.23372006 L2.31629526,3.25237576 C1.49826924,3.3179183 1.027344,3.1380648 0.903519544,2.71281527 L0.197501651,2.00373543 L0.197501651,1.90124499 C0.557551927,1.64284204 0.93459918,1.51364057 1.32864341,1.51364057 C1.71957389,1.34470014 2.10899252,1.27920838 2.49689931,1.31716529 Z" id="Combined-Shape" fill="#AD1619"></path>
                            <path d="M2.55606004,2.09993978 C2.55606004,2.25809305 2.63682456,2.35889112 2.75772861,2.35889112 C2.84226425,2.35889112 2.90171745,2.32025804 2.9448277,2.23511176 L2.9448277,2.23511176 L3.06449317,1.99876261 L3.07719868,2.26337424 C3.08167856,2.35667473 3.12226215,2.39368925 3.22322833,2.39368925 C3.32660345,2.39368925 3.39921705,2.32644675 3.44681503,2.17390991 L3.44681503,2.17390991 L3.55200177,1.83681881 L3.58336076,2.18854494 C3.59889458,2.36277421 3.64639881,2.44453556 3.71680067,2.45599173 C3.81265227,2.47158921 3.88542991,2.46419387 3.93624792,2.43669259 L3.93624792,2.43669259 L4.03956419,2.38078073 L4.03956419,2.47590381 C4.07204832,2.47935504 4.12778026,2.47326024 4.2040298,2.45668118 L4.2040298,2.45668118 L4.22583382,2.55881881 L4.74212433,2.07303945 L4.79009046,2.1240223 L4.14802666,2.72809427 C4.05435054,2.90061125 4.00717743,3.0144804 4.00717743,3.06178084 C4.00717743,3.13394398 3.81943496,3.17677453 3.45302207,3.22076858 C3.14120959,3.25820692 2.76837389,3.28227435 2.47983382,3.28227435 L2.54983382,3.28081881 L2.55009046,3.28227435 L2.51483382,3.28081881 L2.47983382,3.28227435 L2.47983382,3.28081881 L2.32015058,3.27792884 C2.07894649,3.26940495 1.81076157,3.24884733 1.5769022,3.22076858 C1.21048931,3.17677453 1.02274685,3.13394398 1.02274685,3.06178084 L1.02071292,3.04638628 C0.983023954,3.00925414 0.953108105,2.93552281 0.930965375,2.82519228 C0.917156179,2.79408495 0.900437682,2.76223825 0.881897616,2.72809427 L0.739259235,2.59417726 C0.738195103,2.59394793 0.737128703,2.59371708 0.736060039,2.59348472 L0.735833821,2.59081881 L0.239833821,2.1240223 L0.287799944,2.07303945 L0.752833821,2.51081881 L0.765805464,2.45668118 C0.842055002,2.47326024 0.897786945,2.47935504 0.930271074,2.47590381 L0.930271074,2.38078073 L1.03358734,2.43669259 C1.08440536,2.46419387 1.15718299,2.47158921 1.2530346,2.45599173 C1.32343645,2.44453556 1.37094068,2.36277421 1.38647451,2.18854494 L1.41783349,1.83681881 L1.52302024,2.17390991 C1.57061821,2.32644675 1.64323182,2.39368925 1.74660693,2.39368925 C1.84757311,2.39368925 1.8881567,2.35667473 1.89263659,2.26337424 L1.9053421,1.99876261 L2.02500757,2.23511176 C2.06811781,2.32025804 2.12757101,2.35889112 2.21210666,2.35889112 C2.3330107,2.35889112 2.41377523,2.25809305 2.41377523,2.09993978 Z M2.47683382,2.91281881 L2.50500536,2.91110476 C1.7009364,2.96001128 1.24284792,3.01069341 1.13073992,3.06315115 L1.12183382,3.06481881 L1.138114,3.07148266 C1.15877304,3.07818872 1.18460406,3.08510066 1.21514371,3.09206781 C1.30518498,3.11260934 1.43335225,3.13303023 1.58524695,3.15126775 C1.8825263,3.18696114 2.23614315,3.2104213 2.51684026,3.2121694 C2.79390547,3.21041305 3.14745024,3.18695487 3.44467733,3.15126775 C3.59657203,3.13303023 3.7247393,3.11260934 3.81478057,3.09206781 C3.86059004,3.08161708 3.89580511,3.07129059 3.91886194,3.06159681 L3.8991148,3.06918698 C3.87610727,3.07810031 3.85077938,3.07608836 3.82313112,3.06315115 C3.71102312,3.01069341 3.25293464,2.96001128 2.44886568,2.91110476 L2.47683382,2.91281881 Z" id="Combined-Shape" fill="#C88A02" fill-rule="nonzero"></path>
                            <path d="M2.48514553,0.841918999 C2.60112533,0.841918999 2.69514553,0.747898796 2.69514553,0.631918999 C2.69514553,0.515939201 2.60112533,0.421918999 2.48514553,0.421918999 C2.36916574,0.421918999 2.27514553,0.515939201 2.27514553,0.631918999 C2.27514553,0.747898796 2.36916574,0.841918999 2.48514553,0.841918999 Z" id="Oval-55" fill="#005BBF"></path>
                            <path d="M0.55730301,2.17709065 C0.564423945,2.20038217 0.568350228,2.2234352 0.569352295,2.24516216 C0.586981313,2.22199873 0.613131968,2.20093606 0.644422105,2.1842988 C0.729758841,2.13892445 0.821007839,2.14364873 0.848232448,2.19485077 C0.875457056,2.24605282 0.828347869,2.32434345 0.743011133,2.36971779 C0.657674397,2.41509214 0.566425399,2.41036786 0.53920079,2.35916582 C0.530116313,2.36469885 0.519840463,2.37154015 0.508056059,2.37514301 C0.452600043,2.39209761 0.384736687,2.3309154 0.356479011,2.2384887 C0.328221336,2.14606201 0.350269947,2.05739095 0.405725963,2.04043634 C0.461181979,2.02348174 0.529045334,2.08466395 0.55730301,2.17709065 Z M4.48065588,2.01782172 L4.51500227,2.0189932 C4.57045829,2.03594781 4.5925069,2.12461887 4.56424922,2.21704556 C4.53599155,2.30947226 4.46812819,2.37065447 4.41267217,2.35369987 C4.40088777,2.35009701 4.39061192,2.34325571 4.38200678,2.3338281 C4.35430283,2.38892472 4.26305384,2.393649 4.1777171,2.34827465 C4.09238036,2.30290031 4.04527118,2.22460967 4.07249579,2.17340763 C4.09972039,2.12220559 4.19096939,2.11748131 4.27630613,2.16285566 C4.30807036,2.179745 4.33453818,2.20119487 4.35384757,2.22411075 L4.35237218,2.21010916 L4.35237218,2.21010916 L4.36342522,2.1556475 C4.3916829,2.06322081 4.45954625,2.0020386 4.51500227,2.0189932 Z M3.52762041,1.72545653 C3.58553083,1.72242157 3.63657704,1.79820405 3.6416353,1.89472142 C3.64349,1.93011113 3.63890435,1.96337469 3.62949715,1.99146295 L3.64359687,1.98859521 L3.64359687,1.98859521 L3.69911709,1.99099249 C3.79482633,2.00444355 3.86587146,2.06190039 3.85780082,2.11932593 C3.84973019,2.17675148 3.76559998,2.21239984 3.66989074,2.19894879 C3.57418149,2.18549773 3.50313637,2.12804089 3.511207,2.07061535 L3.511207,2.07061535 C3.51161377,2.06745549 3.51090172,2.06709463 3.51019237,2.06672196 C3.50313637,2.12804089 3.41900615,2.16368926 3.32329691,2.1502382 C3.22758767,2.13678715 3.15654254,2.07933031 3.16461318,2.02190476 C3.17268381,1.96447922 3.25681402,1.92883085 3.35252326,1.94228191 C3.38782934,1.94724385 3.41977915,1.95819406 3.44563932,1.97292196 L3.44016362,1.96066955 L3.44016362,1.96066955 L3.4319231,1.90571197 C3.42686484,1.8091946 3.46970998,1.72849149 3.52762041,1.72545653 Z M1.36821685,1.7511808 C1.42514131,1.7401158 1.48623762,1.80805651 1.50467928,1.90293061 C1.51139204,1.93746478 1.51152795,1.97080735 1.50624016,1.99978382 L1.51968646,1.99561783 L1.51968646,1.99561783 L1.575,1.99026486 C1.67164983,1.99026486 1.75,2.03727496 1.75,2.09526486 C1.75,2.15325476 1.67164983,2.20026486 1.575,2.20026486 C1.47835017,2.20026486 1.4,2.15325476 1.4,2.09526486 L1.4,2.09526486 C1.4000318,2.09210151 1.39934504,2.09186774 1.39865914,2.09162399 C1.4,2.15325476 1.32164983,2.20026486 1.225,2.20026486 C1.12835017,2.20026486 1.05,2.15325476 1.05,2.09526486 C1.05,2.03727496 1.12835017,1.99026486 1.225,1.99026486 C1.26043827,1.99026486 1.29341625,1.9965851 1.32097368,2.00744944 L1.31434651,1.99627637 L1.31434651,1.99627637 L1.29853757,1.9430005 C1.28009591,1.8481264 1.31129239,1.76224579 1.36821685,1.7511808 Z M2.41821685,1.6811808 C2.47514131,1.6701158 2.53623762,1.73805651 2.55467928,1.83293061 C2.56139204,1.86746478 2.56152795,1.90080735 2.55624016,1.92978382 L2.56968646,1.92561783 L2.56968646,1.92561783 L2.625,1.92026486 C2.72164983,1.92026486 2.8,1.96727496 2.8,2.02526486 C2.8,2.08325476 2.72164983,2.13026486 2.625,2.13026486 C2.52835017,2.13026486 2.45,2.08325476 2.45,2.02526486 L2.45,2.02526486 C2.4500318,2.02210151 2.44934504,2.02186774 2.44865914,2.02162399 C2.45,2.08325476 2.37164983,2.13026486 2.275,2.13026486 C2.17835017,2.13026486 2.1,2.08325476 2.1,2.02526486 C2.1,1.96727496 2.17835017,1.92026486 2.275,1.92026486 C2.31043827,1.92026486 2.34341625,1.9265851 2.37097368,1.93744944 L2.36434651,1.92627637 L2.36434651,1.92627637 L2.34853757,1.8730005 C2.33009591,1.7781264 2.36129239,1.69224579 2.41821685,1.6811808 Z" id="Combined-Shape" fill="#C88A02" fill-rule="nonzero"></path>
                            <path d="M2.55260261,0.0478732324 L2.552,0.139873232 L2.6478873,0.14 L2.6478873,0.285833333 L2.552,0.284873232 L2.552,0.576873232 L2.6478873,0.5775 L2.6478873,0.723333333 L2.31,0.723333333 L2.31,0.5775 L2.406,0.576873232 L2.406,0.284873232 L2.31,0.285833333 L2.31,0.14 L2.406,0.139873232 L2.40676928,0.0478732324 L2.55260261,0.0478732324 Z" id="Combined-Shape" fill="#C88A02" fill-rule="nonzero"></path>
                            <rect id="Rectangle-77" fill="#C88A02" x="2.38" y="0.84" width="1" height="1"></rect>
                            <g id="top" transform="translate(0.000000, 0.630000)" fill-rule="nonzero">
                                <path d="M1.25286446,0.362398538 L1.25164256,0.432387873 C0.63095432,0.421551659 0.274921003,0.512130917 0.184543661,0.692662097 C0.0911070433,0.879304265 0.108481601,1.10619158 0.239405786,1.37570915 L0.176441652,1.40629539 C0.0367523418,1.11873413 0.0176753961,0.86961602 0.121949264,0.661326152 C0.229282409,0.446925296 0.605920459,0.351103941 1.25286446,0.362398538 Z" id="Path-311" fill="#FFFFFF"></path>
                                <path d="M1.3729565,0.983113416 L1.33707044,1.04321492 C1.20190106,0.962506511 1.13424976,0.824771983 1.13424976,0.634958907 C1.13424976,0.362158704 1.27477696,0.202186803 1.58562294,0.0927125697 C1.7840113,0.0228438402 2.05501736,0.0514906319 2.39940346,0.176351928 L2.37554391,0.242160146 C2.04494028,0.12229585 1.78913012,0.0952553464 1.60887575,0.158737618 C1.32375915,0.259150435 1.20424976,0.395196303 1.20424976,0.634958907 C1.20424976,0.801529083 1.26044093,0.915931396 1.3729565,0.983113416 Z" id="Path-312" fill="#FFFFFF"></path>
                                <path d="M0.32759546,1.2683645 L0.195505457,1.31475665 C0.0584551522,0.924540251 0.0975929633,0.65953136 0.331777278,0.545215922 C0.538131208,0.444485693 0.838871075,0.403491559 1.23549297,0.419564437 L1.2298242,0.559449622 C0.854302748,0.544231828 0.574926302,0.582313894 0.393190949,0.671026737 C0.239285981,0.746154372 0.211134689,0.936771643 0.32759546,1.2683645 Z" id="Path-309" fill="#C88A02"></path>
                                <path d="M1.87080777,0.269183398 C1.55071836,0.269183398 1.41927262,0.347142155 1.34417808,0.577321231 C1.29632183,0.724009774 1.34273576,0.849207507 1.49322858,0.966072364 L1.40736166,1.07664755 C1.21252439,0.925347106 1.14382829,0.740045096 1.21108207,0.533899457 C1.30678332,0.240556872 1.49456939,0.129183398 1.87080777,0.129183398 C2.11740183,0.129183398 2.30949892,0.193969389 2.44325379,0.325820268 L2.4641124,0.346381957 L2.4641124,1.02135996 L2.3241124,1.02135996 L2.3241124,0.406219519 C2.2196501,0.315484614 2.06959893,0.269183398 1.87080777,0.269183398 Z" id="Path-310" fill="#C88A02"></path>
                                <path d="M4.89286446,0.432398538 L4.89164256,0.502387873 C4.27095432,0.491551659 3.914921,0.582130917 3.82454366,0.762662097 C3.73110704,0.949304265 3.7484816,1.17619158 3.87940579,1.44570915 L3.81644165,1.47629539 C3.67675234,1.18873413 3.6576754,0.93961602 3.76194926,0.731326152 C3.86928241,0.516925296 4.24592046,0.421103941 4.89286446,0.432398538 Z" id="Path-311" fill="#FFFFFF" transform="translate(4.294248, 0.953901) scale(-1, 1) translate(-4.294248, -0.953901) "></path>
                                <path d="M2.68870674,0.99766808 L2.65282068,1.05776958 C2.5176513,0.977061174 2.45,0.839326647 2.45,0.649513571 C2.45,0.376713368 2.5905272,0.216741467 2.90137318,0.107267233 C3.09976154,0.0373985039 3.37076761,0.0660452957 3.7151537,0.190906592 L3.69129415,0.25671481 C3.36069052,0.136850514 3.10488036,0.10981001 2.92462599,0.173292282 C2.63950939,0.273705099 2.52,0.409750966 2.52,0.649513571 C2.52,0.816083747 2.57619117,0.930486059 2.68870674,0.99766808 Z" id="Path-312" fill="#FFFFFF" transform="translate(3.082577, 0.563885) scale(-1, 1) translate(-3.082577, -0.563885) "></path>
                                <path d="M3.96759546,1.3383645 L3.83550546,1.38475665 C3.69845515,0.994540251 3.73759296,0.72953136 3.97177728,0.615215922 C4.17813121,0.514485693 4.47887108,0.473491559 4.87549297,0.489564437 L4.8698242,0.629449622 C4.49430275,0.614231828 4.2149263,0.652313894 4.03319095,0.741026737 C3.87928598,0.816154372 3.85113469,1.00677164 3.96759546,1.3383645 Z" id="Path-309" fill="#C88A02" transform="translate(4.316060, 0.935467) scale(-1, 1) translate(-4.316060, -0.935467) "></path>
                                <path d="M3.20482876,0.28 C2.88473935,0.28 2.75329361,0.357958757 2.67819907,0.588137833 C2.63034282,0.734826376 2.67675675,0.860024109 2.82724957,0.976888966 L2.74138265,1.08746416 C2.54654538,0.936163708 2.47784928,0.750861698 2.54510306,0.544716059 C2.64080431,0.251373474 2.82859038,0.14 3.20482876,0.14 C3.45142282,0.14 3.64351991,0.204785992 3.77727478,0.33663687 L3.79813339,0.357198559 L3.79813339,1.03217656 L3.65813339,1.03217656 L3.65813339,0.417036121 C3.55367109,0.326301216 3.40361992,0.28 3.20482876,0.28 Z" id="Path-310" fill="#C88A02" transform="translate(3.159067, 0.613732) scale(-1, 1) translate(-3.159067, -0.613732) "></path>
                            </g>
                        </g>
                        <g id="shield" transform="translate(2.170000, 3.290000)">
                            <mask id="mask-10" fill="white">
                                <use xlink:href="#path-9"></use>
                            </mask>
                            <use id="Rectangle-78" fill="#E1E5E8" opacity="0.300000012" xlink:href="#path-9"></use>
                            <rect id="Rectangle-79" fill="#FFC034" fill-rule="nonzero" mask="url(#mask-10)" x="0" y="2.52" width="2.31" height="2.73"></rect>
                            <rect id="Rectangle-80" fill="#AD1619" fill-rule="nonzero" mask="url(#mask-10)" x="0.28" y="2.66" width="1" height="2.59"></rect>
                            <rect id="Rectangle-80" fill="#AD1619" fill-rule="nonzero" mask="url(#mask-10)" x="1.26" y="2.66" width="1" height="2.59"></rect>
                            <rect id="Rectangle-80" fill="#AD1619" fill-rule="nonzero" mask="url(#mask-10)" x="0.77" y="2.66" width="1" height="2.59"></rect>
                            <rect id="Rectangle-80" fill="#AD1619" fill-rule="nonzero" mask="url(#mask-10)" x="1.75" y="2.66" width="1" height="2.59"></rect>
                            <rect id="Rectangle-79" fill="#AD1619" fill-rule="nonzero" mask="url(#mask-10)" x="0" y="-0.07" width="2.31" height="2.66"></rect>
                            <rect id="Rectangle-79" fill="#AD1619" fill-rule="nonzero" mask="url(#mask-10)" x="2.24" y="2.45" width="2.31" height="2.66"></rect>
                            <rect id="Rectangle-79" fill="#F1F9FF" mask="url(#mask-10)" x="2.24" y="0" width="2.45" height="2.59"></rect>
                            <path d="M1.19,0.21 L1.19,0.79 L1.33,0.79 L1.33,0.50037037 L1.54,0.50037037 L1.54,0.79 L1.75,0.790740741 L1.75,1.1537037 L1.54,1.153 L1.54,1.807 L1.75,1.80703704 L1.75,2.17 L0.49,2.17 L0.49,1.80703704 L0.7,1.807 L0.7,1.153 L0.49,1.1537037 L0.49,0.790740741 L0.63,0.79 L0.63,0.50037037 L0.84,0.50037037 L0.84,0.79 L0.98,0.79 L0.98,0.21 L1.19,0.21 Z" id="castle" fill="#C88A02" mask="url(#mask-10)"></path>
                            <path d="M3.78494741,2.15107641 C3.78848312,2.14833647 3.79470349,2.1424529 3.80275872,2.13355907 L3.81198749,2.14191767 C3.79962564,2.14390488 3.79149258,2.14715925 3.78639411,2.15021258 L3.78494741,2.15107641 Z M3.74670451,0.576360043 C3.8407389,0.710515115 3.8407389,0.858507964 3.74906022,0.975698186 C3.70271788,1.03493627 3.63919773,1.08000796 3.56132851,1.11656931 C3.62022277,1.19957761 3.65625864,1.24535026 3.71638733,1.31341524 C3.7456478,1.34653776 3.77179281,1.37770844 3.79485036,1.40706713 C3.81437118,1.39351716 3.84176152,1.38295383 3.87593617,1.37267682 C3.88146262,1.3710149 3.88722823,1.36935238 3.89325943,1.36767982 C3.91502664,1.36164338 3.93062255,1.35700825 3.94347296,1.35269413 C3.993095,1.33603508 3.99835757,1.33867491 3.99870581,1.23371463 L3.99862992,1.14489455 L3.99862992,1.14489455 C3.99862992,1.10270253 3.99750185,1.06720404 3.99406233,0.984701378 L3.99371754,0.976423537 C3.98112735,0.673640147 3.99241716,0.557889704 4.08513717,0.474832146 L4.17854937,0.579111395 C4.13347943,0.619484546 4.12332535,0.723590727 4.13359667,0.970607149 L4.13394083,0.978869868 C4.13746356,1.06336851 4.13862992,1.10007201 4.13862992,1.14489455 L4.13865288,1.17149198 L4.13865288,1.17149198 C4.13895277,1.39442529 4.12224169,1.44035702 3.98802967,1.48541451 C3.97236202,1.49067443 3.95463484,1.49594297 3.93067202,1.5025883 C3.92558731,1.50399839 3.92078733,1.50538246 3.91625348,1.50674588 C3.89654186,1.51267357 3.88266678,1.51606353 3.87300739,1.52027407 C3.88693186,1.54278142 3.8973428,1.56335173 3.90535332,1.58273885 C3.94288609,1.67357592 3.9318007,1.76087338 3.8628624,1.81001802 L3.86122524,1.80945672 L3.86484995,1.82472515 L3.86484995,1.82472515 C3.87309371,1.85791617 3.8715942,1.89097116 3.85642488,2.02561194 C3.84787368,2.10151128 3.84787368,2.15109975 3.85273794,2.16463101 C3.84760324,2.15034745 3.82764555,2.13360626 3.79960417,2.13732554 L3.79792665,2.1375712 L3.89726284,2.22754107 C3.83835042,2.29258658 3.75398704,2.30377616 3.720992,2.21199143 C3.70635131,2.17126433 3.70635131,2.10716196 3.71730505,2.00993799 C3.73024374,1.89509599 3.73145311,1.86843675 3.72897815,1.85847207 C3.72755399,1.85312373 3.72613226,1.84757305 3.72487839,1.84163808 C3.71996589,1.81838557 3.71740791,1.78760114 3.71694284,1.73692276 L3.66169627,1.85443327 C3.59938984,1.8256084 3.56751969,1.79972862 3.55946528,1.75402738 C3.55660041,1.73777189 3.55805149,1.72294257 3.56226591,1.70784511 C3.56421857,1.70085002 3.56678878,1.693794 3.56990441,1.68565448 C3.57723326,1.66555432 3.5755324,1.65365151 3.54374831,1.61025834 L3.51966753,1.57609534 C3.51702424,1.57530832 3.51441859,1.57453837 3.51183951,1.5737823 C3.47888284,1.56412098 3.45064862,1.5570094 3.42771448,1.55247 C3.43526037,1.57227619 3.44421347,1.59378056 3.45498377,1.61829256 C3.45356655,1.61506713 3.49306502,1.70307714 3.50245952,1.72587196 C3.52113971,1.7711976 3.53133699,1.80469799 3.53328121,1.83834377 C3.54157742,1.98191452 3.42551301,2.01642746 3.28085031,1.97393166 C3.17310488,1.9422806 3.11839852,1.92959992 3.10309356,1.9300337 C3.15084517,1.92868029 3.17686676,1.87644912 3.17380453,1.85692159 L2.96633995,1.88945536 C2.95233944,1.80017555 2.99072142,1.72313431 3.09714396,1.720118 C3.13742546,1.71897631 3.1889004,1.72939671 3.28656089,1.75699921 C3.27989311,1.74182615 3.27202036,1.72392597 3.2627243,1.70276917 C3.23949158,1.64989407 3.22295239,1.6075172 3.20995602,1.56462504 C3.17355,1.44447354 3.23434939,1.34997942 3.35069203,1.33794396 L3.36773803,1.33733558 C3.34286369,1.29566404 3.31653992,1.25064764 3.28875799,1.20227569 L3.24616546,1.21029636 L3.24616546,1.21029636 L3.23743065,1.15796198 L3.21602107,1.18343789 C3.16512535,1.23826628 3.11326389,1.28778261 3.06313795,1.32728548 C2.92374742,1.4371353 2.79429342,1.47358764 2.69666999,1.36416908 L2.8533679,1.22436292 C2.84816212,1.21852816 2.83948221,1.21675804 2.84446536,1.21535485 C2.86517968,1.20952201 2.89630936,1.19138484 2.93315508,1.16234775 C2.97269206,1.13118975 3.01554867,1.09034767 3.05844912,1.04443446 C2.99921415,1.00604113 2.94102778,0.951562629 2.88452473,0.882882965 C2.84224721,0.831494482 2.80539648,0.79729969 2.77058996,0.773346215 C2.75325463,0.761416226 2.70188333,0.733458729 2.69462316,0.728581468 C2.60796276,0.670364464 2.61292905,0.615222246 2.66535985,0.483246976 L2.86052264,0.560780745 C2.85804204,0.567024729 2.85581873,0.572709688 2.85383698,0.577851395 C2.86637557,0.585272706 2.87946063,0.593346406 2.88964197,0.600353099 C2.94092885,0.63564818 2.99219872,0.683222888 3.04669573,0.749464199 C3.100919,0.815372786 3.15079759,0.859369194 3.19727321,0.884116348 L3.19383454,0.864230651 C3.20309518,0.862830288 3.22211767,0.859341216 3.24738498,0.853621868 C3.28962044,0.844061715 3.33166532,0.832017405 3.36958215,0.817736877 C3.40889983,0.802928753 3.43949164,0.787015085 3.45776188,0.773934736 C3.41069326,0.707499109 3.37282054,0.675721994 3.34679992,0.666351369 C3.34302426,0.664991666 3.34643936,0.664823994 3.35117748,0.662931483 C3.35615729,0.660942432 3.3622417,0.65743933 3.37016913,0.651582275 L3.16218635,0.370080651 C3.17716256,0.359015731 3.19681497,0.34770083 3.22135251,0.33789998 C3.38792144,0.271368566 3.58188559,0.341219536 3.74670451,0.576360043 Z" id="Combined-Shape" fill="#C37C9C" fill-rule="nonzero" mask="url(#mask-10)"></path>
                            <polygon id="Path-326" fill="#C88A02" fill-rule="nonzero" mask="url(#mask-10)" points="3.44176624 0.331888173 3.58511939 0.178428492 3.88608046 0.459568895 3.74272731 0.613028577"></polygon>
                            <path d="M2.765,4.25995212 C2.8321342,4.52475127 3.04330932,4.655 3.43,4.655 C3.81684233,4.655 4.02803926,4.52826962 4.095,4.27212416 L4.095,2.975 L2.765,2.975 L2.765,4.25995212 Z M4.305,2.765 L4.305,4.29755124 L4.3020804,4.30967213 C4.21312997,4.67895488 3.9114879,4.865 3.43,4.865 C2.9480505,4.865 2.64636398,4.67402123 2.55777734,4.29655157 L2.555,4.28471725 L2.555,2.765 L4.305,2.765 Z" id="Rectangle-78" fill="#FFC034" fill-rule="nonzero" mask="url(#mask-10)"></path>
                            <path d="M3.50225193,2.89309042 L3.50147048,3.51509042 L4.0099443,2.96262165 L4.11300334,3.05737835 L3.59347048,3.62209042 L4.17474456,3.62283666 L4.17474456,3.83283666 L3.58147048,3.83209042 L4.11300334,4.41075567 L4.0099443,4.50551238 L3.50147048,3.95209042 L3.50225193,4.69240547 L3.35641859,4.69240547 L3.35547048,3.88109042 L2.78152952,4.50551238 L2.67847048,4.41075567 L3.21047048,3.83209042 L2.72731484,3.83283666 L2.72731484,3.62283666 L3.19747048,3.62209042 L2.67847048,3.05737835 L2.78152952,2.96262165 L3.35547048,3.58609042 L3.35641859,2.89309042 L3.50225193,2.89309042 Z" id="Combined-Shape" fill="#FFC034" fill-rule="nonzero" mask="url(#mask-10)"></path>
                            <path d="M3.75669886,5.11168654 C2.76828303,5.18939524 2.27407511,4.90950849 2.27407511,4.27202631 C2.26464978,4.8317998 1.74389536,5.11168654 0.711811851,5.11168654 L0.711811851,5.86657364 L3.75669886,5.86657364 L3.75669886,5.11168654 Z" id="Path-330" fill="#F1F9FF" mask="url(#mask-10)"></path>
                            <ellipse id="Oval-57" stroke="#AD1619" stroke-width="0.729166667" fill="#005BBF" mask="url(#mask-10)" cx="2.275" cy="2.52" rx="1" ry="1"></ellipse>
                        </g>
                    </g>
                </g>
            </g>
        </g>
    </g>
</svg>