<?xml version="1.0" encoding="UTF-8"?>
<svg width="20px" height="15px" viewBox="0 0 20 15" version="1.1" xmlns="http://www.w3.org/2000/svg" xmlns:xlink="http://www.w3.org/1999/xlink">
    <title>flags/M/FK - Falkland Islands</title>
    <defs>
        <rect id="path-1" x="0" y="0" width="20" height="15"></rect>
        <rect id="path-3" x="0" y="0" width="20" height="15"></rect>
        <rect id="path-5" x="0" y="0" width="11" height="9"></rect>
        <path d="M0.0237164238,0.0204318193 C0.0237164238,3.69966981 -0.201770837,6.22749281 2.46889143,6.22749281 C5.1395537,6.22749281 5.1395537,3.12396231 4.96252331,0.0204318193 L0.0237164238,0.0204318193 Z" id="path-7"></path>
    </defs>
    <g id="Symbols" stroke="none" stroke-width="1" fill="none" fill-rule="evenodd">
        <g id="flag">
            <mask id="mask-2" fill="white">
                <use xlink:href="#path-1"></use>
            </mask>
            <g id="mask"></g>
            <g id="contents" mask="url(#mask-2)">
                <mask id="mask-4" fill="white">
                    <use xlink:href="#path-3"></use>
                </mask>
                <use id="background" fill="#2E42A5" xlink:href="#path-3"></use>
                <g id="gb---medium" mask="url(#mask-4)">
                    <g id="flag">
                        <mask id="mask-6" fill="white">
                            <use xlink:href="#path-5"></use>
                        </mask>
                        <use id="mask" fill="#2E42A5" xlink:href="#path-5"></use>
                        <g id="contents" mask="url(#mask-6)">
                            <g transform="translate(-2.500000, -1.250000)">
                                <g id="stripe" transform="translate(1.000000, 0.000000)">
                                    <polygon id="white" fill="#F7FCFF" fill-rule="nonzero" transform="translate(7.179664, 5.457378) scale(1, -1) translate(-7.179664, -5.457378) " points="0.247333589 1.53986811 2.72292762 0.454117833 12.8061752 8.48429142 14.1119945 10.0977486 11.4647029 10.4606384 7.35198716 7.00020684 4.04167375 4.66868453"></polygon>
                                    <polygon id="red" fill="#F50100" fill-rule="nonzero" transform="translate(7.114665, 5.716384) scale(1, -1) translate(-7.114665, -5.716384) " points="0.586246133 1.29717712 1.84744698 0.66709794 13.6430838 10.7656701 11.8722111 10.7656701"></polygon>
                                </g>
                                <g id="stripe" transform="translate(7.750000, 5.500000) scale(-1, 1) translate(-7.750000, -5.500000) translate(0.250000, 0.000000)">
                                    <polygon id="white" fill="#F7FCFF" fill-rule="nonzero" transform="translate(7.179664, 5.612355) scale(1, -1) translate(-7.179664, -5.612355) " points="0.247333589 1.84982105 2.4444201 0.454117833 12.8061752 8.79424437 14.1119945 10.4077016 11.4647029 10.7705913 7.35198716 7.31015978 4.04167375 4.97863747"></polygon>
                                    <polygon id="red" fill="#F50100" fill-rule="nonzero" transform="translate(7.284723, 5.686725) scale(1, -1) translate(-7.284723, -5.686725) " points="0.331803828 1.45261194 1.59300468 0.822532761 6.61570908 5.14625614 8.10483314 5.62933537 14.237643 10.5509178 12.4667702 10.5509178 6.33740601 5.74615285 4.70931125 5.16688909"></polygon>
                                </g>
                                <g id="cross" transform="translate(2.500000, 1.250000)">
                                    <path d="M6.46875,-0.46875 L6.46875,3.53125 L11.46875,3.53125 L11.46875,5.46875 L6.46875,5.46875 L6.46875,9.46875 L4.53125,9.46875 L4.53125,5.46875 L-0.46875,5.46875 L-0.46875,3.53125 L4.53125,3.53125 L4.53125,-0.46875 L6.46875,-0.46875 Z" id="red" stroke="#F7FCFF" stroke-width="0.9375" fill="#F50100"></path>
                                </g>
                            </g>
                        </g>
                    </g>
                </g>
                <g id="masked" mask="url(#mask-4)">
                    <g transform="translate(13.750000, 6.250000)">
                        <mask id="mask-8" fill="white">
                            <use xlink:href="#path-7"></use>
                        </mask>
                        <path stroke="#F7FCFF" stroke-width="0.5" d="M4.72604912,0.270431819 C4.81541325,1.92285344 4.84296412,3.55423644 4.39523831,4.66869982 C4.22750513,5.08621537 3.99167592,5.42797719 3.65510958,5.65652032 C3.34716053,5.86563107 2.95705437,5.97749281 2.46889143,5.97749281 C2.02502017,5.97749281 1.66834163,5.90415557 1.3836217,5.75694133 C1.09661567,5.60854507 0.886899224,5.38463487 0.731781527,5.09690503 C0.318214103,4.32977344 0.272403428,3.14503105 0.269163659,1.68419984 C0.269955561,1.4155561 0.270628922,1.19588293 0.271195188,1.01339589 L0.271965696,0.766081881 C0.272081204,0.729020128 0.272190376,0.693914245 0.272293391,0.6605801 L0.272839028,0.480363034 C0.272918131,0.453379315 0.272991434,0.42779907 0.273059116,0.403438168 L0.273399195,0.270431819 Z"></path>
                        <g id="mark" stroke="none" stroke-width="1" fill="none" fill-rule="evenodd" mask="url(#mask-8)">
                            <g transform="translate(-1.250000, 0.000000)">
                                <path d="M2.82617823,2.24186467 C2.66172774,2.12024232 2.54424485,1.96090762 2.47372955,1.76386056 C2.36795661,1.46828997 2.15866324,0.681457023 2.15866324,0.613132841 C2.15866324,0.544808659 1.88016457,0.613132841 1.88016457,0.613132841 C1.88016457,0.613132841 1.88404658,0.280394958 1.98914856,0.280394958 C2.09425054,0.280394958 2.09818048,-0.0281245223 2.3531714,0.0495688233 C2.60816231,0.127262169 2.80868519,0.412181964 3.06854061,0.412181964 C3.32839603,0.412181964 4.41464151,0.495046027 4.58923636,0.495046027 C4.76383121,0.495046027 5.22411366,0.863585251 5.22411366,1.13944321 C5.22411366,1.41530117 5.09859516,1.82630692 4.99986735,1.82630692 C4.90113955,1.82630692 4.77691505,2.06544156 4.58923636,1.98651078 C4.40155768,1.90757999 3.9534964,1.74503385 3.55213911,1.82630692 C3.15078183,1.90757999 3.06854061,1.85649154 3.06854061,1.98651078 C3.06854061,2.07319027 2.98775315,2.15830823 2.82617823,2.24186467 Z" id="sheep" stroke="none" fill="#E1E5E8" fill-rule="evenodd"></path>
                                <polygon id="grass" stroke="none" fill="#49801E" fill-rule="evenodd" points="2.25 2.04918033 5.47222222 2.04918033 4.91724272 2.76639344 2.64051244 2.76639344"></polygon>
                                <path d="M2.20807507,5.18476131 C2.57932838,5.31755451 2.84253862,5.3758806 2.99770581,5.35973957 C3.25545162,5.33292796 3.48364077,5.03911383 3.65590059,5.03911383 C3.82784657,5.03911383 4.15891061,5.33302556 4.41603137,5.35973957 C4.57141766,5.3758837 4.80064924,5.31755761 5.10372612,5.18476131" id="Path-45" stroke="#FFFFFF" stroke-width="0.666666667" fill="none"></path>
                                <path d="M1.59648987,4.33514941 C1.72486797,4.2264434 1.9287297,4.16811731 2.20807507,4.16017115 C2.57932838,4.29296435 2.84253862,4.35129043 2.99770581,4.33514941 C3.25545162,4.30833779 3.48364077,4.01452367 3.65590059,4.01452367 C3.82784657,4.01452367 4.15891061,4.3084354 4.41603137,4.33514941 C4.57141766,4.35129353 4.80064924,4.29296745 5.10372612,4.16017115 C5.27309511,3.96972775 5.46412766,3.9750537 5.67682378,4.17614897" id="Path-45" stroke="#FFFFFF" stroke-width="0.666666667" fill="none"></path>
                                <path d="M1.53797581,3.45609413 L1.11650606,2.93955982 C1.28176438,2.80471615 1.55925344,2.67182357 1.96432087,2.52493542 L2.16092053,2.51545789 C2.58088105,2.62338004 2.86164868,2.67015142 2.96445947,2.65984578 C2.99838819,2.65644481 3.05508107,2.62889036 3.15864429,2.56019689 C3.4527437,2.36512078 3.48128892,2.34922312 3.65590059,2.34922312 C3.81548429,2.34922312 3.84840103,2.36452747 4.18197274,2.54467595 C4.24390919,2.5778676 4.26716207,2.58994246 4.3006728,2.60602951 C4.37109707,2.63983713 4.42155506,2.65707028 4.4492376,2.65984177 C4.52938181,2.66786554 4.69061731,2.63046294 4.91628695,2.53965445 C5.20975455,2.27291275 5.58151932,2.30054464 5.90131355,2.59189635 C6.11464901,2.78625774 6.28588518,2.94327315 6.4151511,3.06306486 L5.96200665,3.55204805 C5.83432467,3.43372418 5.66439078,3.2779029 5.45233401,3.08470647 C5.36801928,3.0078907 5.38614999,3.00837779 5.34867993,3.04897732 L5.23338263,3.12998844 C4.88323006,3.27782952 4.60677116,3.34561296 4.38282514,3.32319222 C4.2626037,3.31115605 4.14634956,3.27145124 4.01215783,3.20703163 C3.96722136,3.18545959 3.93514691,3.16880383 3.86517988,3.13126502 C3.70419265,3.04432237 3.64303955,3.01588979 3.65590059,3.01588979 C3.68395252,3.01588979 3.64504126,3.03756059 3.52714849,3.11575886 C3.33748329,3.24156377 3.20555155,3.30568657 3.03095214,3.32318821 C2.83793505,3.34253601 2.53689053,3.29598693 2.09662875,3.18681875 C1.81063032,3.29496534 1.62064008,3.38864365 1.53797581,3.45609413 Z" id="Path-45" stroke="none" fill="#FFFFFF" fill-rule="nonzero"></path>
                            </g>
                        </g>
                    </g>
                </g>
                <g id="bottom" mask="url(#mask-4)" stroke-width="0.625">
                    <g transform="translate(13.750000, 10.499992)">
                        <path d="M0.602039886,0.996073512 C1.01201817,1.38876653 1.09322737,1.7181503 0.845667512,1.98422482 C0.598107651,2.25029934 0.360830218,2.30606373 0.133835215,2.15151799" id="Path-43" stroke="#B85F3C"></path>
                        <path d="M4.49092877,0.996073512 C4.90090705,1.38876653 4.98211626,1.7181503 4.7345564,1.98422482 C4.48699654,2.25029934 4.24971911,2.30606373 4.0227241,2.15151799" id="Path-43" stroke="#B85F3C" transform="translate(4.448544, 1.616384) scale(-1, 1) translate(-4.448544, -1.616384) "></path>
                        <path d="M0.200438978,1.47072397 C0.906775915,2.14570733 1.69410225,2.48319901 2.56241797,2.48319901 C3.4307337,2.48319901 4.21424992,2.22536753 4.91296662,1.70970456" id="Path-44" stroke="#CB8B73"></path>
                    </g>
                </g>
            </g>
        </g>
    </g>
</svg>