<?xml version="1.0" encoding="UTF-8"?>
<svg width="20px" height="15px" viewBox="0 0 20 15" version="1.1" xmlns="http://www.w3.org/2000/svg" xmlns:xlink="http://www.w3.org/1999/xlink">
    <title>flags/M/GD - Grenada</title>
    <defs>
        <rect id="path-1" x="0" y="0" width="20" height="15"></rect>
        <polygon id="path-3" points="0 0 12.5 0 12.5 7.5 0 7.5"></polygon>
        <polygon id="path-5" points="0 0 6.25 3.75 0 7.5"></polygon>
        <polygon id="path-7" points="6.25 0 12.5 3.75 6.25 7.5"></polygon>
    </defs>
    <g id="Symbols" stroke="none" stroke-width="1" fill="none" fill-rule="evenodd">
        <g id="flag">
            <mask id="mask-2" fill="white">
                <use xlink:href="#path-1"></use>
            </mask>
            <g id="mask"></g>
            <g id="contents" mask="url(#mask-2)">
                <path d="M0,0 L20,0 L20,13.75 C20,14.4403559 19.4403559,15 18.75,15 L1.25,15 C0.559644063,15 8.45442189e-17,14.4403559 0,13.75 L0,0 L0,0 Z" id="background" fill="#C51918"></path>
                <g id="top" transform="translate(3.750000, 3.750000)">
                    <mask id="mask-4" fill="white">
                        <use xlink:href="#path-3"></use>
                    </mask>
                    <use fill="#FECA00" xlink:href="#path-3"></use>
                    <g id="triangles" mask="url(#mask-4)">
                        <mask id="mask-6" fill="white">
                            <use xlink:href="#path-5"></use>
                        </mask>
                        <use id="right" fill="#23875F" xlink:href="#path-5"></use>
                        <mask id="mask-8" fill="white">
                            <use xlink:href="#path-7"></use>
                        </mask>
                        <use id="left" fill="#23875F" transform="translate(9.375000, 3.750000) scale(-1, 1) translate(-9.375000, -3.750000) " xlink:href="#path-7"></use>
                    </g>
                    <circle id="Oval-22" fill="#C51918" mask="url(#mask-4)" cx="6.25" cy="3.75" r="2.5"></circle>
                    <polygon id="Star-5" fill="#FECA00" mask="url(#mask-4)" points="6.20591139 4.57080073 4.91158482 5.46857037 5.32516984 3.93090454 4.375 2.94864243 5.66158317 2.89553075 6.20591139 1.37500763 6.7502396 2.89553075 8.03463382 2.89553075 7.08665293 3.93090454 7.56141684 5.37781353"></polygon>
                </g>
                <g id="stars" transform="translate(5.000000, 0.000000)" fill="#FECA00">
                    <path d="M1.19220658,11.8544764 L1.48968346,12.5973614 L2.19160843,12.5973614 L1.67353428,13.103216 L1.93299407,13.8101352 L1.19220658,13.4158514 L0.484853526,13.8544764 L0.710878883,13.103216 L0.191608433,12.6233103 L0.894729704,12.5973614 L1.19220658,11.8544764 Z M4.94220658,11.8544764 L5.23968346,12.5973614 L5.94160843,12.5973614 L5.42353428,13.103216 L5.68299407,13.8101352 L4.94220658,13.4158514 L4.23485353,13.8544764 L4.46087888,13.103216 L3.94160843,12.6233103 L4.6447297,12.5973614 L4.94220658,11.8544764 Z M8.69220658,11.8544764 L8.98968346,12.5973614 L9.69160843,12.5973614 L9.17353428,13.103216 L9.43299407,13.8101352 L8.69220658,13.4158514 L7.98485353,13.8544764 L8.21087888,13.103216 L7.69160843,12.6233103 L8.3947297,12.5973614 L8.69220658,11.8544764 Z M1.19280471,0.77627153 L1.49028159,1.51915652 L2.19220657,1.51915652 L1.67413241,2.02501113 L1.93359221,2.73193031 L1.19280471,2.33764648 L0.48545166,2.77627153 L0.711477017,2.02501113 L0.192206566,1.54510539 L0.895327838,1.51915652 L1.19280471,0.77627153 Z M4.94280471,0.77627153 L5.24028159,1.51915652 L5.94220657,1.51915652 L5.42413241,2.02501113 L5.68359221,2.73193031 L4.94280471,2.33764648 L4.23545166,2.77627153 L4.46147702,2.02501113 L3.94220657,1.54510539 L4.64532784,1.51915652 L4.94280471,0.77627153 Z M8.69280471,0.77627153 L8.99028159,1.51915652 L9.69220657,1.51915652 L9.17413241,2.02501113 L9.43359221,2.73193031 L8.69280471,2.33764648 L7.98545166,2.77627153 L8.21147702,2.02501113 L7.69220657,1.54510539 L8.39532784,1.51915652 L8.69280471,0.77627153 Z" id="Combined-Shape"></path>
                </g>
                <g id="flame" transform="translate(3.750000, 6.250000)">
                    <path d="M1.646701,1.73250409 C1.87110226,1.93227352 2.04441088,2.06616656 2.16662685,2.1341832 C2.20876809,1.97446198 2.18282579,1.71367708 2.08879997,1.35182851 C2.0624177,1.26532947 1.90454007,1.14454097 1.61516707,0.989463011 C1.53388975,1.2625281 1.54440106,1.51020845 1.646701,1.73250409 Z" id="Path-71" fill="#C51918"></path>
                    <path d="M1.99734233,2.45636922 C1.42099412,2.1871708 1.10353594,1.86219752 1.04496777,1.48144939 C0.98639961,1.10070127 1.01922014,0.606834424 1.14342937,-0.000151131163 C2.0793483,0.212834981 2.57914554,0.547495975 2.6428211,1.00383185 C2.70649666,1.46016773 2.63263874,1.831675 2.42124734,2.11835368 C2.20476784,1.56206819 1.99438652,1.25307309 1.79010337,1.19136838 C1.79010337,1.74268413 1.85918302,2.16435107 1.99734233,2.45636922 Z" id="Path-70" fill="#FECA00"></path>
                </g>
            </g>
        </g>
    </g>
</svg>