<?xml version="1.0" encoding="UTF-8"?>
<svg width="20px" height="15px" viewBox="0 0 20 15" version="1.1" xmlns="http://www.w3.org/2000/svg" xmlns:xlink="http://www.w3.org/1999/xlink">
    <title>flags/M/GE - Georgia</title>
    <defs>
        <rect id="path-1" x="0" y="0" width="20" height="15"></rect>
        <rect id="path-3" x="0" y="0" width="20" height="15"></rect>
    </defs>
    <g id="Symbols" stroke="none" stroke-width="1" fill="none" fill-rule="evenodd">
        <g id="flag">
            <mask id="mask-2" fill="white">
                <use xlink:href="#path-1"></use>
            </mask>
            <g id="mask"></g>
            <g id="contents" mask="url(#mask-2)">
                <mask id="mask-4" fill="white">
                    <use xlink:href="#path-3"></use>
                </mask>
                <use id="background" fill="#F7FCFF" xlink:href="#path-3"></use>
                <g id="mark-1" mask="url(#mask-4)" fill="#E31D1C">
                    <polygon id="cross" points="8.75 0 11.25 0 11.25 6.25 20 6.25 20 8.75 11.25 8.75 11.25 15 8.75 15 8.75 8.75 0 8.75 0 6.25 8.75 6.25"></polygon>
                </g>
                <g id="mark-2" mask="url(#mask-4)" fill="#E31D1C">
                    <g transform="translate(3.750000, 1.250000)" id="Combined-Shape">
                        <path d="M2.49917677,9.51371932 L3.87499809,9.375 L3.87499809,10.625 C2.95778388,10.5675684 2.49917677,10.547143 2.49917677,10.5637238 C2.49917677,10.5803045 2.54111721,11.0173966 2.62499809,11.875 L1.37499809,11.875 L1.47513535,10.625 L0.124998093,10.625 L0.124998093,9.375 L1.47513535,9.51371932 L1.37499809,8.125 L2.62499809,8.125 L2.49917677,9.51371932 Z"></path>
                        <path d="M2.49917677,2.01371932 L3.87499809,1.875 L3.87499809,3.125 C2.95778388,3.06756838 2.49917677,3.04714297 2.49917677,3.06372376 C2.49917677,3.08030454 2.54111721,3.51739662 2.62499809,4.375 L1.37499809,4.375 L1.47513535,3.125 L0.124998093,3.125 L0.124998093,1.875 L1.47513535,2.01371932 L1.37499809,0.625 L2.62499809,0.625 L2.49917677,2.01371932 Z"></path>
                        <path d="M11.2491768,2.01371932 L12.6249981,1.875 L12.6249981,3.125 C11.7077839,3.06756838 11.2491768,3.04714297 11.2491768,3.06372376 C11.2491768,3.08030454 11.2911172,3.51739662 11.3749981,4.375 L10.1249981,4.375 L10.2251353,3.125 L8.87499809,3.125 L8.87499809,1.875 L10.2251353,2.01371932 L10.1249981,0.625 L11.3749981,0.625 L11.2491768,2.01371932 Z"></path>
                        <path d="M11.2491768,9.51371932 L12.6249981,9.375 L12.6249981,10.625 C11.7077839,10.5675684 11.2491768,10.547143 11.2491768,10.5637238 C11.2491768,10.5803045 11.2911172,11.0173966 11.3749981,11.875 L10.1249981,11.875 L10.2251353,10.625 L8.87499809,10.625 L8.87499809,9.375 L10.2251353,9.51371932 L10.1249981,8.125 L11.3749981,8.125 L11.2491768,9.51371932 Z"></path>
                    </g>
                </g>
            </g>
        </g>
    </g>
</svg>