<?xml version="1.0" encoding="UTF-8"?>
<svg width="20px" height="15px" viewBox="0 0 20 15" version="1.1" xmlns="http://www.w3.org/2000/svg" xmlns:xlink="http://www.w3.org/1999/xlink">
    <title>flags/M/GG - Guernsey</title>
    <defs>
        <rect id="path-1" x="0" y="0" width="20" height="15"></rect>
        <rect id="path-3" x="0" y="0" width="20" height="15"></rect>
    </defs>
    <g id="Symbols" stroke="none" stroke-width="1" fill="none" fill-rule="evenodd">
        <g id="flag">
            <mask id="mask-2" fill="white">
                <use xlink:href="#path-1"></use>
            </mask>
            <g id="mask"></g>
            <g id="contents" mask="url(#mask-2)">
                <mask id="mask-4" fill="white">
                    <use xlink:href="#path-3"></use>
                </mask>
                <use id="background" fill="#F7FCFF" xlink:href="#path-3"></use>
                <g id="mark-1" mask="url(#mask-4)">
                    <polygon id="cross" fill="#E31D1C" points="7.5 0 12.5 0 12.5 5 20 5 20 10 12.5 10 12.5 15 7.5 15 7.5 10 0 10 0 5 7.5 5"></polygon>
                    <path d="M11.8535602,1.90371904 L11.2553437,3.00325443 L11.2492331,3.00271904 L11.25,6.25 L15.6912331,6.24971904 L15.6912331,6.214274 L16.7907685,5.59092732 L16.7907685,9.31604615 L15.7502331,8.74971904 L11.25,8.75 L11.2492331,11.903719 L11.2553437,11.903719 L11.8535602,13.0032544 L8.12844135,13.0032544 L8.74923306,11.906719 L8.75,8.75 L4.23123306,8.74971904 L3.19123306,9.31604615 L3.19123306,5.59092732 L4.29076845,6.214274 L4.29023306,6.24971904 L8.75,6.25 L8.74923306,2.99871904 L8.12844135,1.90371904 L11.8535602,1.90371904 Z" id="cross---yellow" fill="#FECA00"></path>
                </g>
            </g>
        </g>
    </g>
</svg>