<?xml version="1.0" encoding="UTF-8"?>
<svg width="20px" height="15px" viewBox="0 0 20 15" version="1.1" xmlns="http://www.w3.org/2000/svg" xmlns:xlink="http://www.w3.org/1999/xlink">
    <title>flags/M/GI - Gibraltar</title>
    <defs>
        <rect id="path-1" x="0" y="0" width="20" height="15"></rect>
    </defs>
    <g id="Symbols" stroke="none" stroke-width="1" fill="none" fill-rule="evenodd">
        <g id="flag">
            <mask id="mask-2" fill="white">
                <use xlink:href="#path-1"></use>
            </mask>
            <g id="mask"></g>
            <rect id="background" fill="#F7FCFF" mask="url(#mask-2)" x="0" y="0" width="20" height="15"></rect>
            <g id="contents" mask="url(#mask-2)">
                <g transform="translate(0.000000, 1.250000)">
                    <polygon id="bottom" fill="#C51918" points="0 8.75 20 8.75 20 13.75 0 13.75"></polygon>
                    <g id="mark" stroke-width="1" fill="none" transform="translate(5.500000, 0.000000)">
                        <g id="castle">
                            <path d="M4.33770226,0.791666667 L4.33683849,1.24966667 L4.79783849,1.24966667 L4.79822857,0.791666667 L5.71928121,0.791666667 L5.71928121,1.70833333 L5.25183849,1.70766667 L5.21983849,4.22866667 L6.60783849,4.22866667 L6.63083849,3.08266667 L6.17980752,3.08333333 L6.17980752,2.16666667 L7.10086015,2.16666667 L7.10083849,2.62466667 L7.56083849,2.62466667 L7.56138647,2.16666667 L8.4824391,2.16666667 L8.4824391,3.08333333 L8.01283849,3.08266667 L7.98983849,4.22866667 L8.89283849,4.22916667 L8.89283849,5.14583333 L7.97178586,5.14583333 L7.97083849,7.89566667 L8.89283849,7.89583333 L8.89283849,8.8125 L0.142838491,8.8125 L0.142838491,7.89583333 L0.602838491,7.89566667 L0.603364806,5.14583333 L0.142838491,5.14583333 L0.142838491,4.22916667 L1.11383849,4.22866667 L1.11383849,3.08266667 L0.653491733,3.08333333 L0.653491733,2.16666667 L1.57454436,2.16666667 L1.57383849,2.62466667 L2.03483849,2.62466667 L2.03507068,2.16666667 L2.95612331,2.16666667 L2.95612331,3.08333333 L2.49483849,3.08266667 L2.49483849,4.22866667 L3.83883849,4.22866667 L3.87083849,1.70766667 L3.41664963,1.70833333 L3.41664963,0.791666667 L4.33770226,0.791666667 Z" id="Combined-Shape" fill="#DB000B"></path>
                            <path d="M1.86184211,4 C1.98901294,4 2.09210526,4.10309233 2.09210526,4.23026316 L2.09210526,5.375 L2.09210526,5.375 L1.63157895,5.375 L1.63157895,4.23026316 C1.63157895,4.10309233 1.73467127,4 1.86184211,4 Z" id="Rectangle-24" fill="#272727"></path>
                            <path d="M1.9507027,6.6156562 C2.3322152,6.6156562 2.64149218,6.92493318 2.64149218,7.30644567 L2.64149218,8.44898953 L2.64149218,8.44898953 L1.25991323,8.44898953 L1.25991323,7.30644567 C1.25991323,6.92493318 1.56919021,6.6156562 1.9507027,6.6156562 Z" id="Rectangle-24" fill="#272727"></path>
                            <path d="M7.01649218,6.6156562 C7.39800467,6.6156562 7.70728165,6.92493318 7.70728165,7.30644567 L7.70728165,8.44898953 L7.70728165,8.44898953 L6.3257027,8.44898953 L6.3257027,7.30644567 C6.3257027,6.92493318 6.63497969,6.6156562 7.01649218,6.6156562 Z" id="Rectangle-24" fill="#272727"></path>
                            <path d="M4.48359744,6.15732286 C4.99228076,6.15732286 5.40465007,6.56969217 5.40465007,7.07837549 L5.40465007,8.90732286 L5.40465007,8.90732286 L3.56254481,8.90732286 L3.56254481,7.07837549 C3.56254481,6.56969217 3.97491412,6.15732286 4.48359744,6.15732286 Z" id="Rectangle-24" fill="#272727"></path>
                            <path d="M4.625,4 C4.75217083,4 4.85526316,4.10309233 4.85526316,4.23026316 L4.85526316,5.375 L4.85526316,5.375 L4.39473684,5.375 L4.39473684,4.23026316 C4.39473684,4.10309233 4.49782917,4 4.625,4 Z" id="Rectangle-24" fill="#272727"></path>
                            <path d="M7.38815789,4 C7.51532873,4 7.61842105,4.10309233 7.61842105,4.23026316 L7.61842105,5.375 L7.61842105,5.375 L7.15789474,5.375 L7.15789474,4.23026316 C7.15789474,4.10309233 7.26098706,4 7.38815789,4 Z" id="Rectangle-24" fill="#272727"></path>
                        </g>
                        <g id="key" transform="translate(2.013158, 7.375000)" fill="#E8AA00">
                            <path d="M2.58065151,1.45827968 L2.02597551,1.83001497 L2.63966063,2.12206818 L3.16664328,1.77746242 L2.58065151,1.45827968 Z M2.70029713,1.08077158 L2.8133034,0.87330188 L4.38344237,1.72853788 L2.68798786,2.83723356 L0.765559068,1.92234825 L2.48984872,0.766755969 L2.70029713,1.08077158 Z" id="Path-69" fill-rule="nonzero"></path>
                            <polygon id="Rectangle-25" points="1.46052632 4.20833333 2.38157895 4.20833333 2.38157895 5.125 1.46052632 5.125"></polygon>
                            <polygon id="Rectangle-26" points="1.98684211 2.625 3.07984847 2.625 3.07984847 5.125 1.98684211 5.125"></polygon>
                        </g>
                    </g>
                </g>
            </g>
        </g>
    </g>
</svg>