<?xml version="1.0" encoding="UTF-8"?>
<svg width="20px" height="15px" viewBox="0 0 20 15" version="1.1" xmlns="http://www.w3.org/2000/svg" xmlns:xlink="http://www.w3.org/1999/xlink">
    <title>flags/M/GM - Gambia</title>
    <defs>
        <rect id="path-1" x="0" y="0" width="20" height="15"></rect>
    </defs>
    <g id="Symbols" stroke="none" stroke-width="1" fill="none" fill-rule="evenodd">
        <g id="flag">
            <mask id="mask-2" fill="white">
                <use xlink:href="#path-1"></use>
            </mask>
            <g id="mask"></g>
            <g id="contents" mask="url(#mask-2)">
                <path d="M0,10 L20,10 L20,13.75 C20,14.4403559 19.4403559,15 18.75,15 L1.25,15 C0.559644063,15 8.45442189e-17,14.4403559 0,13.75 L0,10 L0,10 Z" id="bottom" fill="#5EAA22"></path>
                <path d="M1.25,0 L18.75,0 C19.4403559,-1.26816328e-16 20,0.559644063 20,1.25 L20,5 L20,5 L0,5 L0,1.25 C-8.45442189e-17,0.559644063 0.559644063,1.26816328e-16 1.25,0 Z" id="top" fill="#E31D1C"></path>
                <rect id="middle" stroke="#FFFFFF" stroke-width="1.5" fill="#3D58DB" x="-0.75" y="5.25" width="21.5" height="4.5"></rect>
            </g>
        </g>
    </g>
</svg>