<?xml version="1.0" encoding="UTF-8"?>
<svg width="20px" height="15px" viewBox="0 0 20 15" version="1.1" xmlns="http://www.w3.org/2000/svg" xmlns:xlink="http://www.w3.org/1999/xlink">
    <title>flags/M/GP - Guadeloupe</title>
    <g id="Symbols" stroke="none" stroke-width="1" fill="none" fill-rule="evenodd">
        <g id="flags/M/GP---Guadeloupe" fill-rule="nonzero">
            <g id="flag">
                <polygon id="bg-blue" fill="#002488" points="-3.58102057e-11 5.27143125e-11 -3.58102057e-11 5 20 5 20 5.27147443e-11"></polygon>
                <polygon id="bg-red" fill="#DA121A" points="0.000437064693 5 0.000437064693 15 20.0004371 15 20.0004371 5"></polygon>
                <g id="deco" transform="translate(2.190000, 0.400000)" fill="#FCDD09">
                    <path d="M1.27772832,0.308386787 C1.03694921,0.705452066 1.00822286,1.02306401 1.17255464,1.57150219 C1.25167735,1.82744 1.33859195,2.20963913 1.37511012,2.41682689 C1.42380102,2.70932725 1.41870101,2.73713392 1.42553947,2.80073361 C1.48640309,2.80073361 1.62471781,2.80096518 1.68867489,2.80058127 C1.69787126,2.69931423 1.7053066,2.58242841 1.72689858,2.42169647 C1.75207391,2.23429003 1.82674085,1.84233241 1.90704834,1.57009301 C2.06752995,1.02606841 2.05678271,0.692293511 1.80724185,0.314480544 C1.71594642,0.174324121 1.59421917,0.0585427285 1.53944191,0.0585427285 C1.48466465,0.0585427285 1.36074698,0.165551749 1.27772832,0.308386787 Z" id="path1350"></path>
                    <path d="M1.80237605,2.54089512 C1.78169599,2.64566357 1.77665307,2.68264756 1.76628301,2.80072977 C1.84005678,2.80102837 1.86905282,2.80153293 1.94096666,2.80110149 C1.95670916,2.72166467 1.96804556,2.67972841 2.00274111,2.56697738 C2.14028633,2.13090541 2.54539723,1.95589403 2.52713814,2.36417579 C2.52105178,2.4769103 2.4735311,2.53985687 2.42063459,2.60029238 C2.48602135,2.5839697 2.62488774,2.51908105 2.73748544,2.4550966 C3.36438077,2.07728363 3.1175153,1.15151804 2.46018815,1.43183089 C2.11935186,1.57808143 1.91435526,1.98294806 1.80237605,2.54089512 Z" id="path1354"></path>
                    <path d="M1.06744681,2.96526559 C1.34252088,2.96685185 1.81792683,2.96969921 2.04626609,2.96811295 C2.04653389,2.89186652 2.04738598,2.93077764 2.04794653,2.86916427 C1.8798437,2.86734383 1.23612487,2.87034862 1.0687499,2.87034862 C1.06913334,2.91021071 1.06836646,2.9295114 1.06744681,2.96526544 L1.06744681,2.96526559 Z" id="path1356"></path>
                    <path d="M0.89428749,3.45254715 C0.89428749,3.45254715 1.03131251,3.4679727 1.15909879,3.4586409 C1.28688513,3.44930911 1.35778913,3.43334328 1.43331242,3.39661084 C1.41280589,3.54907007 1.4116283,3.69629745 1.4116283,3.69629745 C1.43021471,3.89249938 1.45124419,3.9427123 1.49373959,4.03820337 C1.55139637,4.1178592 1.5849259,4.11829619 1.62731224,4.03418515 C1.67312362,3.94000497 1.70328051,3.8431428 1.7128487,3.69538076 C1.7095219,3.58463635 1.70333724,3.53389016 1.67713983,3.39851355 C1.76555879,3.43682105 1.8214047,3.44674961 1.95331455,3.45864078 C2.08829698,3.47080892 2.21236687,3.4648438 2.21236687,3.4648438 C2.21236687,3.4648438 2.03003388,3.37322836 1.94978038,3.26086678 C1.87056139,3.14995369 1.88745573,3.16881095 1.82985348,3.02592635 C1.75986031,3.02260952 1.40498436,3.02587474 1.29238666,3.02587474 C1.23071671,3.15613782 1.22451647,3.18334036 1.14834455,3.26554033 C1.04918493,3.37254738 0.89428749,3.45254715 0.89428749,3.45254715 Z" id="path1358"></path>
                    <path d="M0.647275575,1.43163107 C0.988111871,1.57788125 1.19310847,1.98274788 1.30508768,2.54069494 C1.32576774,2.64546339 1.33081065,2.68244738 1.34118072,2.80052959 C1.26740695,2.80082819 1.23841091,2.80133275 1.16649707,2.80090131 C1.15075457,2.72146449 1.13941817,2.67952823 1.10472262,2.5667772 C0.967177401,2.13070523 0.562066501,1.95569385 0.580325588,2.36397561 C0.586411951,2.47671012 0.633932625,2.53965669 0.68682914,2.6000922 C0.621442375,2.58376952 0.482575991,2.51888087 0.369978286,2.45489642 C-0.256917044,2.07708345 -0.0100515667,1.15131786 0.647275575,1.43163071 L0.647275575,1.43163107 Z" id="path1317"></path>
                </g>
                <g id="deco" transform="translate(8.490000, 0.400000)" fill="#FCDD09">
                    <path d="M1.27772832,0.308386787 C1.03694921,0.705452066 1.00822286,1.02306401 1.17255464,1.57150219 C1.25167735,1.82744 1.33859195,2.20963913 1.37511012,2.41682689 C1.42380102,2.70932725 1.41870101,2.73713392 1.42553947,2.80073361 C1.48640309,2.80073361 1.62471781,2.80096518 1.68867489,2.80058127 C1.69787126,2.69931423 1.7053066,2.58242841 1.72689858,2.42169647 C1.75207391,2.23429003 1.82674085,1.84233241 1.90704834,1.57009301 C2.06752995,1.02606841 2.05678271,0.692293511 1.80724185,0.314480544 C1.71594642,0.174324121 1.59421917,0.0585427285 1.53944191,0.0585427285 C1.48466465,0.0585427285 1.36074698,0.165551749 1.27772832,0.308386787 Z" id="path1328"></path>
                    <path d="M2.46018815,1.43183125 C2.11935186,1.57808143 1.91435526,1.98294806 1.80237605,2.54089512 C1.78169599,2.64566357 1.77665307,2.68264756 1.76628301,2.80072977 C1.84005678,2.80102837 1.86905282,2.80153293 1.94096666,2.80110149 C1.95670916,2.72166467 1.96804556,2.67972841 2.00274111,2.56697738 C2.14028633,2.13090541 2.54539723,1.95589403 2.52713814,2.36417579 C2.52105178,2.4769103 2.4735311,2.53985687 2.42063459,2.60029238 C2.48602135,2.5839697 2.62488774,2.51908105 2.73748544,2.4550966 C3.36438077,2.07728363 3.1175153,1.15151804 2.46018815,1.43183089 L2.46018815,1.43183125 Z" id="path1330"></path>
                    <path d="M1.06744681,2.96526559 C1.34252088,2.96685185 1.81792683,2.96969921 2.04626609,2.96811295 C2.04653389,2.89186652 2.04738598,2.93077764 2.04794653,2.86916427 C1.8798437,2.86734383 1.23612487,2.87034862 1.0687499,2.87034862 C1.06913334,2.91021071 1.06836646,2.9295114 1.06744681,2.96526544 L1.06744681,2.96526559 Z" id="path1332"></path>
                    <path d="M1.14834455,3.26554045 C1.04918493,3.37254738 0.89428749,3.45254715 0.89428749,3.45254715 C0.89428749,3.45254715 1.03131251,3.4679727 1.15909879,3.4586409 C1.28688513,3.44930911 1.35778913,3.43334328 1.43331242,3.39661084 C1.41280589,3.54907007 1.4116283,3.69629745 1.4116283,3.69629745 C1.43021471,3.89249938 1.45124419,3.9427123 1.49373959,4.03820337 C1.55139637,4.1178592 1.5849259,4.11829619 1.62731224,4.03418515 C1.67312362,3.94000497 1.70328051,3.8431428 1.7128487,3.69538076 C1.7095219,3.58463635 1.70333724,3.53389016 1.67713983,3.39851355 C1.76555879,3.43682105 1.8214047,3.44674961 1.95331455,3.45864078 C2.08829698,3.47080892 2.21236687,3.4648438 2.21236687,3.4648438 C2.21236687,3.4648438 2.03003388,3.37322836 1.94978038,3.26086678 C1.87056139,3.14995369 1.88745573,3.16881095 1.82985348,3.02592635 C1.75986031,3.02260952 1.40498436,3.02587474 1.29238666,3.02587474 C1.23071671,3.15613782 1.22451647,3.18334036 1.14834455,3.26554033 L1.14834455,3.26554045 Z" id="path1334"></path>
                    <path d="M0.647275575,1.43163107 C0.988111871,1.57788125 1.19310847,1.98274788 1.30508768,2.54069494 C1.32576774,2.64546339 1.33081065,2.68244738 1.34118072,2.80052959 C1.26740695,2.80082819 1.23841091,2.80133275 1.16649707,2.80090131 C1.15075457,2.72146449 1.13941817,2.67952823 1.10472262,2.5667772 C0.967177401,2.13070523 0.562066501,1.95569385 0.580325588,2.36397561 C0.586411951,2.47671012 0.633932625,2.53965669 0.68682914,2.6000922 C0.621442375,2.58376952 0.482575991,2.51888087 0.369978286,2.45489642 C-0.256917044,2.07708345 -0.0100515667,1.15131786 0.647275575,1.43163071 L0.647275575,1.43163107 Z" id="path1336"></path>
                </g>
                <g id="deco" transform="translate(14.790000, 0.400000)" fill="#FCDD09">
                    <path d="M1.27772832,0.308386787 C1.03694921,0.705452066 1.00822286,1.02306401 1.17255464,1.57150219 C1.25167735,1.82744 1.33859195,2.20963913 1.37511012,2.41682689 C1.42380102,2.70932725 1.41870101,2.73713392 1.42553947,2.80073361 C1.48640309,2.80073361 1.62471781,2.80096518 1.68867489,2.80058127 C1.69787126,2.69931423 1.7053066,2.58242841 1.72689858,2.42169647 C1.75207391,2.23429003 1.82674085,1.84233241 1.90704834,1.57009301 C2.06752995,1.02606841 2.05678271,0.692293511 1.80724185,0.314480544 C1.71594642,0.174324121 1.59421917,0.0585427285 1.53944191,0.0585427285 C1.48466465,0.0585427285 1.36074698,0.165551749 1.27772832,0.308386787 Z" id="path1340"></path>
                    <path d="M2.46018815,1.43183125 C2.11935186,1.57808143 1.91435526,1.98294806 1.80237605,2.54089512 C1.78169599,2.64566357 1.77665307,2.68264756 1.76628301,2.80072977 C1.84005678,2.80102837 1.86905282,2.80153293 1.94096666,2.80110149 C1.95670916,2.72166467 1.96804556,2.67972841 2.00274111,2.56697738 C2.14028633,2.13090541 2.54539723,1.95589403 2.52713814,2.36417579 C2.52105178,2.4769103 2.4735311,2.53985687 2.42063459,2.60029238 C2.48602135,2.5839697 2.62488774,2.51908105 2.73748544,2.4550966 C3.36438077,2.07728363 3.1175153,1.15151804 2.46018815,1.43183089 L2.46018815,1.43183125 Z" id="path1342"></path>
                    <path d="M1.06744681,2.96526559 C1.34252088,2.96685185 1.81792683,2.96969921 2.04626609,2.96811295 C2.04653389,2.89186652 2.04738598,2.93077764 2.04794653,2.86916427 C1.8798437,2.86734383 1.23612487,2.87034862 1.0687499,2.87034862 C1.06913334,2.91021071 1.06836646,2.9295114 1.06744681,2.96526544 L1.06744681,2.96526559 Z" id="path1344"></path>
                    <path d="M1.14834455,3.26554045 C1.04918493,3.37254738 0.89428749,3.45254715 0.89428749,3.45254715 C0.89428749,3.45254715 1.03131251,3.4679727 1.15909879,3.4586409 C1.28688513,3.44930911 1.35778913,3.43334328 1.43331242,3.39661084 C1.41280589,3.54907007 1.4116283,3.69629745 1.4116283,3.69629745 C1.43021471,3.89249938 1.45124419,3.9427123 1.49373959,4.03820337 C1.55139637,4.1178592 1.5849259,4.11829619 1.62731224,4.03418515 C1.67312362,3.94000497 1.70328051,3.8431428 1.7128487,3.69538076 C1.7095219,3.58463635 1.70333724,3.53389016 1.67713983,3.39851355 C1.76555879,3.43682105 1.8214047,3.44674961 1.95331455,3.45864078 C2.08829698,3.47080892 2.21236687,3.4648438 2.21236687,3.4648438 C2.21236687,3.4648438 2.03003388,3.37322836 1.94978038,3.26086678 C1.87056139,3.14995369 1.88745573,3.16881095 1.82985348,3.02592635 C1.75986031,3.02260952 1.40498436,3.02587474 1.29238666,3.02587474 C1.23071671,3.15613782 1.22451647,3.18334036 1.14834455,3.26554033 L1.14834455,3.26554045 Z" id="path1346"></path>
                    <path d="M0.647275575,1.43163107 C0.988111871,1.57788125 1.19310847,1.98274788 1.30508768,2.54069494 C1.32576774,2.64546339 1.33081065,2.68244738 1.34118072,2.80052959 C1.26740695,2.80082819 1.23841091,2.80133275 1.16649707,2.80090131 C1.15075457,2.72146449 1.13941817,2.67952823 1.10472262,2.5667772 C0.967177401,2.13070523 0.562066501,1.95569385 0.580325588,2.36397561 C0.586411951,2.47671012 0.633932625,2.53965669 0.68682914,2.6000922 C0.621442375,2.58376952 0.482575991,2.51888087 0.369978286,2.45489642 C-0.256917044,2.07708345 -0.0100515667,1.15131786 0.647275575,1.43163071 L0.647275575,1.43163107 Z" id="path1348"></path>
                </g>
                <g id="grass" transform="translate(2.465047, 6.145572)" fill="#008000">
                    <path d="M4.65317816,2.1253179 C4.78532465,2.18700196 4.9540581,2.23561187 5.03915153,2.23848081 C5.13971741,2.24186985 5.11302141,2.21712493 4.92532895,2.14403092 C4.77840781,2.08661828 4.60269666,1.99008371 4.52470083,1.93022534 C4.38487883,1.81582449 4.38487883,1.81582449 4.39953144,1.91646838 C4.40790476,1.97397852 4.51329469,2.06337486 4.65317816,2.1253179 L4.65317816,2.1253179 Z" id="path1415"></path>
                    <path d="M3.83117566,0.936399607 C3.91638473,1.27764972 4.26939375,1.90530675 4.391121,1.92968178 C4.50067553,1.94796305 4.50067553,1.94186929 4.40938009,1.83827542 C4.25722103,1.66155645 3.92855746,1.01561845 3.92855746,0.893743304 C3.92855746,0.826711971 3.89812565,0.777961911 3.86160747,0.777961911 C3.81900294,0.777961911 3.80683021,0.838899486 3.83117566,0.936399607 L3.83117566,0.936399607 Z" id="path2221"></path>
                    <path d="M1.60619784,1.94707214 C1.50272968,2.02629099 1.50881604,2.03238475 1.73401145,1.9958222 C1.86791143,1.97754093 2.06267502,1.94097839 2.16005682,1.91660336 C2.31830225,1.87394705 2.30612952,1.8678533 2.03224321,1.86175954 C1.84965234,1.85566578 1.67923419,1.89222833 1.60619784,1.94707214 Z" id="path2241"></path>
                    <path d="M0.0941492533,1.30636838 C1.09839893,1.48918111 3.11298489,2.16558819 2.99125765,2.28136959 C2.96082583,2.31183837 2.39479413,2.17168195 2.31567142,2.11683813 C2.2852396,2.08636935 1.98700785,2.09855686 1.65834427,2.14121316 C1.04362167,2.2082445 0.940153508,2.26308831 0.952326233,2.51293237 C0.958412596,2.63480752 0.958412596,2.63480752 0.988844408,2.51293237 C1.04362167,2.28746334 1.13491711,2.23871328 1.48183976,2.23871328 C1.85919423,2.23871328 2.89387585,2.39105722 3.35035303,2.51293237 C3.95898927,2.68355758 3.97724836,2.68355758 3.7763984,2.57386995 C3.51468481,2.42761977 3.11907126,2.15949444 3.04603491,2.08027559 C2.91213493,1.92793165 0.483676448,1.25761832 0.130667428,1.26980584 C-0.0336643576,1.28199335 -0.0397507201,1.28199335 0.0941492533,1.30636838 Z" id="path2231"></path>
                    <path d="M3.65816776,2.00713465 C3.70685866,2.09244726 4.18159493,2.3301038 4.21811311,2.29354126 C4.2363722,2.27525999 4.18159493,2.22650993 4.10855858,2.18385362 C4.02943587,2.14119732 3.92596771,2.07416599 3.88336317,2.02541593 C3.78598138,1.93400956 3.6033905,1.91572829 3.65816776,2.00713465 L3.65816776,2.00713465 Z" id="path2243"></path>
                    <path d="M3.69478636,2.58609281 C3.74347726,2.67140541 4.21821353,2.90906196 4.25473171,2.87249941 C4.27299079,2.85421814 4.21821353,2.80546808 4.14517718,2.76281178 C4.06605447,2.72015547 3.96258631,2.65312414 3.91998177,2.60437408 C3.82259998,2.51296772 3.6400091,2.49468644 3.69478636,2.58609281 L3.69478636,2.58609281 Z" id="path1533"></path>
                    <path d="M3.01434565,1.86052951 C3.02310271,1.85206406 3.160048,1.89755427 3.3225134,1.96072825 C3.4849791,2.02390224 3.69484875,2.08359425 3.78513872,2.08948112 C3.94427732,2.09657121 4.50777405,2.36499483 4.50234349,2.42954265 C4.5012936,2.48985958 3.64926616,2.22932128 3.35060744,2.07757788 C2.99215173,1.89892811 2.98369564,1.89016315 3.01434565,1.86052951 Z" id="path3304"></path>
                    <path d="M4.02245664,2.30588173 C3.90891403,2.34981589 3.794729,2.42927727 3.75925098,2.48612289 C3.71732234,2.55330413 3.75280583,2.55394671 3.89924858,2.48029634 C4.01408089,2.42279686 4.17988162,2.37562874 4.27084657,2.36786865 C4.44116581,2.35945561 4.44116581,2.35945561 4.33277439,2.29164214 C4.27083592,2.25289163 4.13922472,2.25677975 4.02245664,2.30588173 L4.02245664,2.30588173 Z" id="path3302"></path>
                    <path d="M1.17406581,0.252156254 C1.36274304,0.611687948 2.12962471,1.44043897 2.55567008,1.75731436 C2.67131096,1.84262697 2.87824729,1.92793957 3.0060609,1.94622085 L3.24342903,1.98278339 L3.06692452,1.78778315 C2.78086549,1.47700152 2.34264739,0.879813279 2.20266106,0.617781706 C2.050502,0.331375102 2.03224291,0.404500192 2.16005652,0.770125644 C2.20874742,0.916375824 2.40351102,1.20887619 2.59218825,1.41606394 C2.78086549,1.62934545 2.90259273,1.80606442 2.87216092,1.80606442 C2.79303821,1.80606442 2.28178377,1.20278243 1.91660202,0.678719281 C1.52098846,0.105906074 1.50272938,0.0876248011 1.6122839,0.404500192 C1.66706116,0.55684413 1.78878841,0.782313159 1.89225657,0.904188309 C1.98963837,1.03215722 2.050502,1.13575109 2.02007018,1.13575109 C1.95920656,1.13575109 1.69140661,0.831063219 1.35665668,0.392312677 C1.26536124,0.264343769 1.13754763,0.0998123162 1.08277037,0.0266872259 C1.02190675,-0.0525316219 1.06451128,0.051062256 1.17406581,0.252156254 L1.17406581,0.252156254 Z" id="path2215"></path>
                    <path d="M3.75308154,3.31383492 C3.29436671,3.23191441 3.07620896,3.3050983 2.89066225,3.59141563 L2.73234196,3.83731703 L2.93595574,3.64405473 C3.2125657,3.37513294 3.41358668,3.34917933 3.91078802,3.49384269 C4.14337197,3.56270794 4.34063311,3.60771948 4.34743979,3.59761542 C4.3848767,3.54204401 3.99258995,3.35062568 3.75308154,3.31383492 Z" id="path3298"></path>
                    <path d="M3.87812647,3.44179286 C3.4520811,3.63069935 3.31209476,3.81351207 3.31818113,4.15476249 L3.32426749,4.44726285 L3.38513111,4.17304377 C3.46425382,3.7952308 3.61641288,3.66116813 4.10940824,3.50273044 C4.34069001,3.42960535 4.52936725,3.35648026 4.52936725,3.34429274 C4.52936725,3.27726141 4.09723552,3.33819899 3.87812647,3.44179286 Z" id="path2257"></path>
                    <path d="M3.79726367,3.96496449 C3.72422732,4.06246461 3.66945005,4.19043352 3.66945005,4.25746485 C3.66945005,4.3366837 3.69988187,4.31840243 3.78509094,4.17824601 C3.85204093,4.06855837 3.96768181,3.94058946 4.04071816,3.88574565 C4.1807045,3.78824553 4.1807045,3.78824553 4.05289089,3.78824553 C3.97985454,3.78824553 3.87030001,3.86137062 3.79726367,3.96496449 L3.79726367,3.96496449 Z" id="path2263"></path>
                    <path d="M10.3776172,4.95803186 C10.5752593,5.04378108 11.600648,5.30268961 12.3261597,5.51541324 C13.0516715,5.72813656 13.8999363,5.97303523 14.0876963,5.99941968 C14.3560724,5.4137526 13.8676622,6.50920576 14.1463984,5.84528021 C13.7840541,5.75293511 12.3558246,5.41648474 11.7826622,5.25158278 C11.2885563,5.11306497 10.5876052,4.89699313 10.4080803,4.85741661 C10.2285555,4.81784009 10.2260914,4.8920712 10.3776172,4.95803186 Z" id="path2267"></path>
                    <path d="M10.5029941,4.80599474 C10.7035051,4.88478611 11.7372935,5.10770765 12.4697787,5.29495084 C13.202263,5.48219373 14.0585475,5.69730337 14.2471128,5.71711112 C14.4949111,5.12242346 14.0449825,6.23427522 14.3004065,5.56101435 C13.9350638,5.4813863 12.4959765,5.19504612 11.9174154,5.05027185 C11.4187823,4.92910357 10.7107268,4.73765599 10.5299317,4.70437646 C10.3491367,4.67109693 10.3492614,4.74536886 10.5029941,4.80599474 L10.5029941,4.80599474 Z" id="path2162"></path>
                    <path d="M10.2191103,5.06851229 C10.411999,5.16450055 11.4224487,5.47678399 12.1358468,5.72723255 C12.8492445,5.9776805 13.6835454,6.26669249 13.8696691,6.30287936 C14.1682913,5.7320777 13.6232883,6.80043679 13.936348,6.15202686 C13.5793271,6.04082188 12.1706422,5.62999416 11.6068853,5.43528459 C11.1206972,5.27106544 10.432001,5.01856024 10.254791,4.96963133 C10.0775808,4.92070181 10.0712403,4.99470226 10.2191103,5.06851229 Z" id="path2183"></path>
                    <path d="M10.096028,5.1932963 C10.2836349,5.29926034 11.276376,5.66406283 11.9757048,5.95154986 C12.6750334,6.23903597 13.4930834,6.57136909 13.6770604,6.61725905 C14.0051105,6.06288738 13.4050088,7.10122466 13.7515335,6.4701073 C13.4008147,6.34034682 12.0155352,5.85626787 11.4627289,5.6322845 C10.9857912,5.44281465 10.3112381,5.15456803 10.1368285,5.09642018 C9.96241892,5.03827233 9.95221879,5.11183891 10.096028,5.1932963 L10.096028,5.1932963 Z" id="path2185"></path>
                    <path d="M9.98011137,5.35048752 C10.1639101,5.46294233 11.1433309,5.8622108 11.8322128,6.17395891 C12.5210943,6.48570579 13.3270614,6.84642028 13.5093273,6.89871082 C13.8565013,6.35614001 13.2205714,7.37287554 13.5888839,6.75425129 C13.2429019,6.61231488 11.8753398,6.08012662 11.3306779,5.83696345 C10.8606349,5.63094357 10.1965403,5.31930241 10.0242637,5.25509584 C9.85198705,5.19088926 9.83922912,5.26405457 9.98011137,5.35048752 L9.98011137,5.35048752 Z" id="path2187"></path>
                </g>
                <g id="sun" transform="translate(5.717273, 5.853583)" fill="#FCDD09">
                    <path d="M4.67472497,7.22208325 C4.95732403,7.41917841 5.11272856,7.69312878 5.0973378,7.97584063 L5.08689817,8.20932673 L5.17966497,7.97960654 C5.28114425,7.73920347 5.26717357,7.37517881 5.14730982,7.10557076 L5.07737969,6.94836345 L5.29945197,7.04516258 C5.6167858,7.17915962 5.82573178,7.41472081 5.86937094,7.6945506 L5.90763676,7.9251162 L5.95066183,7.68102408 C5.99998137,7.42471199 5.910784,7.07167762 5.73749394,6.83292694 L5.63643685,6.69362689 L5.87378475,6.74208409 C6.21199783,6.80710359 6.46527383,6.99405387 6.56610063,7.25870475 L6.65142152,7.47628183 L6.6427858,7.22853909 C6.63783465,6.96757725 6.47721031,6.64078893 6.25817013,6.4433095 L6.13039989,6.32810355 L6.37262218,6.32614374 C6.71693783,6.31934206 7.0035285,6.44945791 7.15709075,6.68740161 L7.28566699,6.88238326 L7.22583106,6.64190334 C7.16680114,6.38778161 6.94185029,6.10153442 6.68657848,5.95397243 L6.53766033,5.86785618 L6.77420223,5.81555621 C7.10957512,5.73712548 7.4169299,5.80483491 7.61651092,6.00554227 L7.78277727,6.16951284 L7.67427428,5.94674804 C7.56377547,5.7104183 7.28428528,5.47720119 7.0039507,5.38601249 L6.8404094,5.33290555 L7.06090805,5.2324558 C7.37263826,5.08596979 7.68732381,5.08819859 7.92424951,5.24290811 L8.12099035,5.3687585 L7.96861791,5.17339258 C7.81140947,4.96519184 7.48962345,4.79534185 7.19646962,4.76452291 L7.0255208,4.74657722 L7.22034258,4.60239686 C7.49484326,4.39427298 7.80311918,4.33082901 8.06698833,4.43293114 L8.28556793,4.5150125 L8.09596596,4.35569167 C7.89895646,4.18480413 7.54892204,4.08558406 7.25576822,4.11647985 L7.08481939,4.13442554 L7.24540536,3.95285513 C7.47070163,3.69212386 7.75909621,3.56596605 8.03839451,3.61092634 L8.26921764,3.64566489 L8.05063804,3.52934455 C7.82246319,3.40318673 7.45949439,3.37901577 7.17915981,3.47020447 L7.01561851,3.52334984 L7.13498332,3.31238231 C7.30121128,3.01041823 7.55709719,2.82700329 7.83961948,2.81274665 L8.07263033,2.798759 L7.83466834,2.73047316 C7.58526882,2.65457865 7.22521697,2.70653276 6.96994516,2.85401789 L6.82102701,2.94009572 L6.89402761,2.70883842 C6.99393326,2.37889904 7.20610325,2.14625835 7.47952925,2.0735149 L7.70455686,2.01130061 L7.45761372,1.99404662 C7.19788972,1.97168176 6.85649102,2.09737844 6.63745084,2.29485788 L6.50968061,2.41006382 L6.53305462,2.16870007 C6.56222415,1.82508046 6.72146678,1.55339732 6.97382164,1.4252797 L7.18100209,1.317644 L6.93586286,1.35211355 C6.67717515,1.38431588 6.36935979,1.57837527 6.19610811,1.81712595 L6.09505102,1.956426 L6.06780054,1.71544652 C6.02500576,1.37336402 6.12429732,1.07432043 6.34452731,0.896592776 L6.52480271,0.748146955 L6.29217567,0.832879814 C6.04584663,0.918227515 5.78508634,1.17211867 5.6651842,1.44172672 L5.59525408,1.59904931 L5.51853052,1.36898327 C5.40561372,1.04327093 5.44069392,0.730124411 5.6192038,0.510433818 L5.76474443,0.327711346 L5.55480054,0.458979261 C5.33157684,0.593744856 5.129194,0.896362211 5.0678996,1.18503035 L5.03216692,1.35345852 L4.90934782,1.1444508 C4.73126014,0.849249972 4.70055536,0.535757607 4.82951541,0.283633351 L4.93391164,0.0746271688 L4.75582396,0.246704427 C4.56545436,0.42504769 4.43035336,0.763249002 4.43035336,1.05833455 L4.43035336,1.23045177 L4.26681206,1.05157129 C4.03138321,0.800024216 3.93623679,0.499635662 4.01000501,0.226224053 L4.06865113,0 L3.93021098,0.205511576 C3.78102417,0.419475688 3.71911567,0.778389477 3.78041007,1.06713447 L3.81610437,1.23548579 L3.61901811,1.09453335 C3.33641905,0.897438183 3.18101451,0.623487819 3.19640528,0.340660295 L3.20680652,0.107174578 L3.11403973,0.337010825 C3.01259883,0.577413126 3.0265695,0.941322503 3.14639488,1.21093055 L3.216325,1.36825315 L2.99425273,1.27141559 C2.6769189,1.13745698 2.46797292,0.901857357 2.42433376,0.622065998 L2.38606793,0.391500394 L2.34308125,0.635554086 C2.29376171,0.891789326 2.38292069,1.24493898 2.55624914,1.48368966 L2.65726784,1.62291285 L2.41995833,1.57441722 C2.08174525,1.50943615 1.82846925,1.3225243 1.72764245,1.05783499 L1.64232156,0.840296341 L1.65095728,1.08800065 C1.65590842,1.34896249 1.81653277,1.67575081 2.03557295,1.87319182 L2.16334318,1.98839776 L1.9211209,1.99035757 C1.57680525,1.99719768 1.29021457,1.8670434 1.13665233,1.62921498 L1.00803771,1.43415648 L1.06791202,1.67459798 C1.12694194,1.92883498 1.35189279,2.21508218 1.6071646,2.36264417 L1.75604437,2.44872199 L1.51954085,2.50102195 C1.18416796,2.57937583 0.876813183,2.51178168 0.677232156,2.31107433 L0.510927428,2.14706533 L0.61943042,2.36983013 C0.729967604,2.6061983 1.0094578,2.83930012 1.28979238,2.93048882 L1.45333368,2.98371105 L1.23283503,3.08412237 C0.921066437,3.23064681 0.606380892,3.22837958 0.369455185,3.07363163 L0.17271435,2.94781967 L0.325086787,3.14310873 C0.482295227,3.35130947 0.804081251,3.52115947 1.09723507,3.55201683 L1.26822228,3.57003937 L1.07340049,3.71414288 C0.798861439,3.92234362 0.490585515,3.9856723 0.22671637,3.8836086 L0.00813676493,3.80156567 L0.19773874,3.96084807 C0.394748242,4.13181247 0.744782657,4.23095568 1.03793648,4.20009831 L1.20892369,4.18215262 L1.04829934,4.36364618 C0.823003067,4.62445431 0.534608484,4.75053526 0.25531019,4.70565183 L0.0244870567,4.67083642 L0.243066662,4.78723362 C0.471279889,4.91342986 0.834248691,4.9375624 1.11458327,4.8463737 L1.27812457,4.7931899 L1.15872138,5.00423428 C0.992493416,5.30615994 0.736607512,5.48961331 0.454085216,5.50379309 L0.221074368,5.51774231 L0.459036361,5.58610501 C0.708435882,5.66199952 1.06848773,5.61004541 1.32375954,5.46252185 L1.47267769,5.37640559 L1.39971547,5.60766289 C1.29980982,5.93767913 1.08763983,6.17035825 0.814213826,6.24306327 L0.589186219,6.30527755 L0.836129358,6.32256997 C1.09585336,6.34485798 1.43725206,6.21912287 1.65629223,6.02164343 L1.78406247,5.90643749 L1.76068846,6.14791653 C1.73151893,6.49142085 1.5722763,6.76318084 1.31992144,6.89122161 L1.11274098,6.99893417 L1.35788022,6.96450304 C1.61656793,6.93230071 1.92438329,6.73812605 2.09763497,6.49937536 L2.19869205,6.36015217 L2.22598092,6.60117008 C2.2687757,6.94325258 2.16944576,7.24218088 1.94921577,7.41998539 L1.76890199,7.56843121 L2.00152903,7.48369835 C2.24785807,7.39838908 2.50865674,7.14438264 2.62855888,6.87481302 L2.69845062,6.71756728 L2.77517417,6.94751804 C2.88809098,7.27334567 2.85301077,7.5863769 2.6745009,7.80614435 L2.52896027,7.98890602 L2.73890416,7.85756048 C2.96212786,7.72283331 3.1645107,7.4201391 3.2258051,7.13147097 L3.26153778,6.96311965 L3.38435688,7.1721658 C3.56244456,7.46728977 3.59314933,7.78085899 3.46418929,8.03294405 L3.35979306,8.24199019 L3.53788074,8.06979612 C3.72825034,7.89156891 3.86335134,7.55336759 3.86335134,7.25824362 L3.86335134,7.08608797 L4.02689264,7.26500688 C4.26232149,7.51659238 4.3574679,7.81694251 4.28373807,8.09035488 L4.22501519,8.31657817 L4.36345533,8.11106736 C4.51264215,7.89702562 4.57455065,7.53818869 4.51329463,7.24948213 L4.47756195,7.08113081 L4.67472497,7.22208325 Z"></path>
                </g>
            </g>
        </g>
    </g>
</svg>