<?xml version="1.0" encoding="UTF-8"?>
<svg width="20px" height="15px" viewBox="0 0 20 15" version="1.1" xmlns="http://www.w3.org/2000/svg" xmlns:xlink="http://www.w3.org/1999/xlink">
    <title>flags/M/GS -  S. Georgia and S. Sandwich Islands</title>
    <defs>
        <rect id="path-1" x="0" y="0" width="20" height="15"></rect>
        <path d="M3.08675083,2.41631893 C3.09488771,2.43679604 3.27366653,2.40048735 3.31167462,2.5075902 C3.50412831,2.22342374 3.72996478,2.49442343 3.72996478,2.49442343 L3.92000526,2.26940918 C3.92000526,2.26940918 4.13458006,2.47260982 4.13458006,2.47260982 L4.33145798,2.45728134 C4.33145798,2.45728134 4.53718434,2.94012849 4.53718434,2.94012849 L2.91369567,2.90966805 C3.0236412,2.56711723 3.08132625,2.40266752 3.08675083,2.41631893 Z" id="path-3"></path>
        <filter x="-7.7%" y="-18.6%" width="115.4%" height="174.5%" filterUnits="objectBoundingBox" id="filter-4">
            <feOffset dx="0" dy="0.25" in="SourceAlpha" result="shadowOffsetOuter1"></feOffset>
            <feColorMatrix values="0 0 0 0 1   0 0 0 0 1   0 0 0 0 1  0 0 0 1 0" type="matrix" in="shadowOffsetOuter1"></feColorMatrix>
        </filter>
        <linearGradient x1="50.7173017%" y1="29.7324006%" x2="54.7558258%" y2="27.3854172%" id="linearGradient-5">
            <stop stop-color="#D5DFFF" offset="0%"></stop>
            <stop stop-color="#FFFFFF" offset="100%"></stop>
        </linearGradient>
        <rect id="path-6" x="0" y="0" width="11.25" height="8.75"></rect>
    </defs>
    <g id="Symbols" stroke="none" stroke-width="1" fill="none" fill-rule="evenodd">
        <g id="flag">
            <mask id="mask-2" fill="white">
                <use xlink:href="#path-1"></use>
            </mask>
            <g id="mask"></g>
            <g id="contents" mask="url(#mask-2)">
                <polygon id="bg" fill="#2B409A" points="0 0 20 0 20 15 0 15"></polygon>
                <g id="mark" transform="translate(11.875000, 3.750000)">
                    <path d="M3.32374069,7.84465286 C3.28533039,7.84465286 3.14596737,7.7695826 3.14596737,7.7695826 C3.14596737,7.7695826 3.04501465,7.92935254 2.99212508,7.93858893 C2.9392355,7.94802184 2.66533589,7.84013292 2.66533589,7.84013292 C2.66533589,7.84013292 2.47312352,7.99027343 2.42986669,7.98084051 C2.4010288,7.97468292 2.23923631,7.9402921 1.94448923,7.87766805 L1.7041936,7.72733102 C1.7041936,7.72733102 1.5696369,7.94330539 1.56483058,7.93858893 C1.56162637,7.93544463 1.42706967,7.90884906 1.16116047,7.85880222 C1.16116047,7.85880222 1.28129823,7.69451235 1.28129823,7.68979589 C1.28129823,7.68507944 1.22362245,7.66621362 1.22362245,7.66621362 L1.1371289,7.73676393 L0.781501825,7.7695826 L0.868015491,7.5253095 L1.00737851,7.31876805 L2.71339904,5.69846899 L3.55440357,7.21539906 L3.42951983,7.67093007 C3.42951983,7.67093007 3.36215098,7.84465286 3.32374069,7.84465286 Z" id="Path" fill="#6A4C2D" fill-rule="nonzero"></path>
                    <path d="M1.6940122,7.53804721 C1.75342313,7.60990749 2.53622903,8.41008237 2.66312378,8.78864822 C2.74772028,9.04102545 2.40458829,9.00602809 1.6337278,8.68365614 C2.60437925,8.05317506 3.33214854,7.73793453 3.81703565,7.73793453 C4.30192277,7.73793453 5.02086093,8.05317506 5.97385014,8.68365614 C5.33435094,9.13401971 5.01788494,9.21721401 5.02445215,8.93323904 C5.03430296,8.5072766 5.47471295,7.66817636 6.00034351,7.53804721" id="Path-453" stroke="#FFBB00" stroke-width="0.5" stroke-linecap="round" stroke-linejoin="round" fill-rule="nonzero"></path>
                    <path d="M6.58861601,7.59998672 L6.34950688,7.51096362 L6.13774749,7.23053102 L5.26094697,7.16607279 C5.26094697,7.16607279 4.99448809,7.09336077 4.46157035,6.94793672 L4.12452501,7.17275444 L4.30601098,7.40975634 L4.74952501,7.57293672 L6.58861601,7.59998672 Z" id="Path" fill="#F7FCFF" fill-rule="nonzero"></path>
                    <g id="Path" fill-rule="nonzero">
                        <use fill="black" fill-opacity="1" filter="url(#filter-4)" xlink:href="#path-3"></use>
                        <use fill="#656263" xlink:href="#path-3"></use>
                    </g>
                    <path d="M4.76965714,4.47120792 C4.75658557,4.31831615 4.62104347,4.30043292 4.54542948,4.30554241 C4.46961439,4.31065191 4.40184334,4.37432406 4.40184334,4.37432406 L4.15147255,4.21887754 C4.15147255,4.21887754 4.2767585,3.44655792 4.40968628,3.39821425 C4.53597773,3.30919115 4.55829995,3.27067343 4.55829995,3.25043197 C4.55829995,3.22999399 4.51144341,3.14725349 4.51144341,3.14725349 L3.6949732,3.05292437 L2.92294632,3.14214399 C2.92294632,3.14214399 2.86301821,3.26300918 2.87086115,3.29877564 C2.87870409,3.33434558 2.88131841,3.37266678 3.01947482,3.47721488 C3.17251271,3.59217849 3.27768855,4.25208925 3.27768855,4.25208925 C3.27768855,4.25208925 3.06130383,4.35644083 3.04823227,4.3436671 C3.0351607,4.33108988 2.97000396,4.31831615 2.93601789,4.32342564 C2.90223291,4.32853513 2.79001854,4.38454305 2.79001854,4.52977058 C2.79001854,4.67519463 2.90223291,4.75930475 2.90223291,4.75930475 C2.90223291,4.75930475 3.64027372,5.30019463 3.74987378,5.49887532 C3.85685953,5.25931868 4.55829995,4.7184288 4.64175688,4.67755286 C4.67574295,4.6573114 4.7827287,4.62409969 4.76965714,4.47120792 Z" id="Path" fill="#656263" fill-rule="nonzero"></path>
                    <path d="M5.50629023,3.75096583 C5.56762605,3.71107248 5.97606225,3.69102754 6.07419956,3.75096583 C6.17213576,3.81090412 6.20893725,4.10627216 6.20893725,4.10627216 C6.20893725,4.10627216 6.27027307,4.21003418 6.27429509,4.28589051 C6.27831711,4.36174684 6.28656225,4.41362786 6.28656225,4.41362786 C6.28656225,4.41362786 6.61335144,4.82887248 6.61737346,5.20402722 C6.65417495,5.45950191 6.6459298,6.14201235 6.54397158,6.40141741 C6.53974846,6.72488767 6.40098874,6.9363421 6.40098874,6.9363421 C6.40098874,6.9363421 6.43356711,6.99215349 6.42954509,7.05209178 C6.42532197,7.11203007 6.3927436,7.16784146 6.3927436,7.16784146 C6.18855901,7.25561994 6.08646672,7.29950918 6.08646672,7.29950918 L5.74741037,7.24369779 L5.3633074,6.12196741 L5.45319956,4.22595222 L5.47773388,4.13024748 L5.43691037,3.87477279 C5.43691037,3.87477279 5.44515552,3.79085918 5.50629023,3.75096583 Z" id="Path" fill="#000000" fill-rule="nonzero"></path>
                    <path d="M3.28874911,4.7463345 C3.28874911,4.7463345 3.70201173,4.7463345 3.74665616,4.87741267 C3.82488447,4.70270729 4.18224101,4.71371235 4.18224101,4.71371235 C4.39822352,4.70644115 4.61420604,4.69916994 4.82998745,4.69189874 C4.83380837,5.20127596 4.83742819,5.71065317 4.84124911,6.22003039 C4.71475655,6.81292817 4.27535079,7.23151362 3.79130059,7.40975634 C3.21414062,7.22777975 2.84934334,6.75122121 2.73029153,6.20902532 C2.70776821,5.72519558 2.685446,5.24116931 2.66312378,4.75733956 C2.87166556,4.7536057 3.08020733,4.75006836 3.28874911,4.7463345 Z" id="Path" fill="#F7FCFF" fill-rule="nonzero"></path>
                    <path d="M2.88594373,4.75164051 L3.79713252,7.12441077 L4.62023907,4.69995602 C4.36484075,4.71607058 3.81704153,4.66065222 3.74906938,4.88822121 C3.64369243,4.68462754 3.06733686,4.76677248 2.88594373,4.75164051 L2.88594373,4.75164051 Z" id="Path" fill="#006B00" fill-rule="nonzero"></path>
                    <path d="M2.99270607,5.66554848 C3.13684053,5.61030693 3.2445822,5.61030693 3.31593109,5.66554848 C3.42295442,5.74841081 3.51063855,5.65868294 3.51063855,5.60869818 C3.51063855,5.55871341 3.68057727,5.3871202 3.68057727,5.52633434 C3.68057727,5.66554848 3.62768132,5.744151 3.7770494,5.744151 C3.92641748,5.744151 4.85766601,5.43728623 4.65475828,5.48181029 C4.45185054,5.52633434 4.49973677,5.56983876 4.32436852,5.56983876 C4.14900026,5.56983876 3.95381702,5.52633434 3.95381702,5.52633434 C3.95381702,5.52633434 4.0086495,5.45318266 4.20885753,5.50521642 C4.40906557,5.55725018 4.69952921,5.79615908 4.71091422,5.85594699 C4.72229924,5.9157349 4.81545315,6.00751039 4.64358689,6.01974173 C4.47172063,6.03197306 4.3912725,6.08108047 4.35782051,6.04153428 C4.32436852,6.00198808 4.20480157,5.94929354 4.29882164,5.93239622 C4.39284171,5.91549891 4.48268922,5.98983091 4.51655277,5.97769398 C4.55041632,5.96555704 4.62717148,5.95880081 4.56288404,5.9073739 C4.4985966,5.85594699 4.39260852,5.82567037 4.49086778,5.78717774 C4.58912704,5.74868512 4.5115876,5.74789452 4.32436852,5.82763421 C4.13714943,5.9073739 4.0330186,5.97513848 3.86865629,5.96555704 C3.70429398,5.9559756 3.64272994,5.96890144 3.58990247,5.9559756 C3.537075,5.94304976 3.27978365,6.09879366 3.2056936,6.05926769 C3.13160355,6.01974173 2.89241829,6.0045773 2.93547647,5.9559756 C2.97853464,5.9073739 3.03634254,5.88235158 3.10072992,5.9073739 C3.16511731,5.93239622 3.22909471,5.95741854 3.2725129,5.93239622 C3.31593109,5.9073739 3.44132261,5.8215118 3.4097827,5.80434477 C3.37824279,5.78717774 3.40874997,5.72938569 3.23017097,5.72938569 C3.05159196,5.72938569 2.98881197,5.79379389 2.94642007,5.75321193 C2.91815881,5.72615729 2.93358747,5.69693614 2.99270607,5.66554848 Z" id="lion" fill="#FFD100" transform="translate(3.838314, 5.769356) rotate(-270.000000) translate(-3.838314, -5.769356) "></path>
                    <g id="Group" transform="translate(2.081159, 4.683056)" fill="#1E5AA6" fill-rule="nonzero">
                        <path d="M2.54430829,0.0172936709 L2.66718102,0.0143458861 L2.44777979,0.285935127 L2.71102105,0.586216139 L2.19318588,1.22372373 L2.6818614,1.79834525 C2.62816742,1.92706519 2.5658261,2.04419051 2.48277137,2.15011424 L2.20203433,1.84688544 L2.71102105,1.22667152 L2.29273089,0.763476266 L2.54430829,0.0172936709 L2.54430829,0.0172936709 Z" id="Path"></path>
                        <path d="M0.657176166,0.0744806962 L0.902921632,0.334475316 L0.642696891,0.651853481 L1.18385978,1.22667152 L0.736208873,1.81269114 C0.78990285,1.94141108 0.866924547,2.08428038 0.949778174,2.19000759 L1.21603595,1.86123133 L0.669041127,1.26656487 L1.06983549,0.769175316 L0.788897345,0.0715329114 L0.657176166,0.0744806962 Z" id="Path"></path>
                        <path d="M1.39742908,1.61538608 L1.20437209,1.86693038 L1.89475194,2.6475038 C2.01661917,2.58736899 2.11234326,2.51878386 2.2167147,2.43604937 L1.85674385,2.03004114 L2.0031454,1.60968703 L2.21369819,1.84688544 L1.55549449,2.66754873 C1.44529113,2.62175981 1.3234239,2.5502269 1.21322053,2.46159684 L1.56132642,2.03004114 L1.39742908,1.61538608 L1.39742908,1.61538608 Z" id="Path"></path>
                    </g>
                    <path d="M5.86585888,4.28196013 C5.86585888,4.32185349 5.90932663,6.67700839 5.95703163,6.65453042 C6.07548014,6.59852251 6.10275591,6.72076077 6.10275591,6.72076077 C6.10275591,6.72076077 6.14357942,7.10809969 6.04142009,7.1599807 C5.91888252,7.22378387 5.83081845,7.26272055 5.77722786,7.27679076 L5.60040552,7.14799305 C5.60040552,7.14799305 5.42062119,6.89644874 5.37979768,6.78462944 C5.33897417,6.67300665 5.28990552,6.17404494 5.3061947,6.06615602 C5.32248388,5.95846362 5.33475105,5.32763767 5.32670701,5.29580159 C5.31846186,5.26376899 5.2858835,4.73690159 5.3061947,4.65711488 C5.32670701,4.57732817 5.45319956,4.22595222 5.44917754,4.22595222 C5.44917754,4.22595222 5.86585888,4.24206678 5.86585888,4.28196013 Z" id="Path" fill="url(#linearGradient-5)" fill-rule="nonzero"></path>
                    <path d="M5.45742268,3.87870317 C5.54309172,3.87870317 5.60844956,3.95062912 5.62896186,4.01449779 C5.63298388,4.04240349 5.62071672,4.06244843 5.62473874,4.11432944 C5.62896186,4.16621045 5.00393984,4.12612058 4.99991782,4.1221902 C4.99991782,4.1221902 5.28990552,3.8468671 5.45742268,3.87870317 Z" id="Path" fill="#FF7000" fill-rule="nonzero"></path>
                    <path d="M5.85556804,4.05647082 C5.85556804,4.08408547 5.83318195,4.10647117 5.80556804,4.10647117 C5.77795412,4.10647117 5.75556804,4.08408547 5.75556804,4.05647082 C5.75556804,4.02885687 5.77795412,4.00647117 5.80556804,4.00647117 C5.83318195,4.00647117 5.85556804,4.02885687 5.85556804,4.05647082 Z" id="Path" fill="#000000" fill-rule="nonzero"></path>
                    <path d="M4.26288252,3.69299273 C4.26288252,3.69299273 4.588264,4.03709748 4.79881679,4.03336362 C4.83702598,4.13437437 4.70309269,4.22831045 4.64959982,4.27311678 C4.54241297,4.23951203 4.44548227,4.27920887 4.19672028,3.98010697 C4.21220506,3.78928703 4.26670344,3.70046045 4.26288252,3.69299273 Z" id="Path" fill="#F7FCFF" fill-rule="nonzero"></path>
                    <path d="M5.55656549,1.96126741 C5.58713285,2.18195824 6.10560488,2.4527614 6.25482185,2.26940918 C6.23953817,2.35175064 6.26747443,2.6085027 5.47895727,2.60476884 C5.77759231,2.88166409 5.18151206,3.18066773 5.01298939,3.11326172 C5.32308719,2.88136931 4.92510824,2.74301994 4.70309269,2.89257089 C4.74512281,2.76542311 5.05522061,2.12595032 5.55656549,1.96126741 Z" id="Path" fill="#F7FCFF" fill-rule="nonzero"></path>
                    <path d="M4.71455545,2.88510317 C4.71455545,2.88510317 4.90198162,2.76542311 5.07432521,2.88136931 C4.94369415,2.98809025 4.97220619,3.26713451 5.03130925,3.51011915 C5.06085603,3.42357269 5.20027306,3.07125045 5.51815519,3.06472153 C5.52871943,3.54227391 5.17799854,3.77139929 5.11177545,3.8103569 C5.05939981,4.35672569 4.6455778,4.27272374 4.6455778,4.27272374 C4.63411504,4.2764576 4.83702598,4.13810824 4.81027955,4.04829906 C4.74512281,3.68552501 4.48489807,3.7527345 4.46579347,3.82387437 C4.42963036,3.79026963 4.22467333,3.3455757 4.71455545,3.47272348 C4.50782359,3.09874785 4.70309269,2.9112402 4.71455545,2.88510317 Z" id="Combined-Shape" fill="#0000FF" fill-rule="nonzero"></path>
                    <path d="M3.17975234,3.79026963 C3.17975234,3.79026963 2.86221381,4.05950064 2.68222838,3.97342532 C2.54829509,4.05203292 2.39139606,3.91368355 2.39139606,3.91368355 C2.39139606,3.91368355 2.57504153,4.5755595 3.23344632,4.09683925 C3.22198356,3.95102216 3.18739418,3.80147121 3.17975234,3.79026963 L3.17975234,3.79026963 Z" id="Path" fill="#F7FCFF" fill-rule="nonzero"></path>
                    <path d="M2.67840746,3.96222374 C2.7051539,3.82387437 2.81616167,3.75646836 2.90424392,3.88735001 C3.02289354,3.90994969 3.14154315,3.4349633 2.72043758,3.51337437 C2.83908719,2.89257089 2.4832389,2.66067849 2.4832389,2.66067849 C2.4832389,2.66067849 2.35694745,3.34888798 2.41434169,3.47603577 C2.47175604,3.60318355 2.3301608,3.2404095 1.87470717,3.13939874 C1.86704522,3.65938798 2.38373411,3.90248197 2.38373411,3.90248197 C2.38373411,3.90248197 2.52919049,4.03336362 2.67840746,3.96222374 L2.67840746,3.96222374 Z" id="Path" fill="#0000FF" fill-rule="nonzero"></path>
                    <path d="M2.24783325,3.21178248 C2.11387985,3.25285494 1.78814048,3.05646773 1.99481201,2.80197564 C1.31738306,2.7870402 0.948565015,2.21472168 1.17434692,2.32385254 C1.40012883,2.4329834 1.56145639,2.20043862 1.7298584,2.32385254 C1.52318686,2.13696298 1.80198903,1.98740444 1.80198903,1.98740444 C1.80198903,1.98740444 2.37991319,2.15582121 2.4832389,2.65694463 C2.4487903,2.75422153 2.43348651,2.92617564 2.42582456,2.91870792 C2.42582456,2.91497406 2.06796849,2.91248406 2.24783325,3.21178248 Z" id="Path" fill="#F7FCFF" fill-rule="nonzero"></path>
                    <path d="M3.54716394,0.92158371 C3.48321381,1.10841431 3.25255092,1.03752991 3.25255092,1.03752991 C3.25255092,1.03752991 3.26019276,1.13103365 3.23726724,1.17589893 C3.25615574,1.1898191 3.39250682,1.29471733 3.53570118,1.32177498 C3.74162958,1.36068669 4.16333751,1.25423439 4.30491264,1.4115252 C4.39929606,1.51638574 4.44400752,1.61113409 4.43904703,1.69577026 C4.31622435,1.70979726 4.271879,1.73843534 4.30601098,1.78168448 C4.33925534,1.82380892 4.43092764,1.85511208 4.43904703,1.89864996 C4.46489106,2.03723103 4.35261821,2.2865772 4.3929949,2.38024589 C4.32924587,2.38594494 4.32421834,2.45118925 4.32421834,2.45118925 C4.32180513,2.50058102 4.25926271,2.51060349 4.13659107,2.48125665 C4.21314354,2.2891921 4.25396705,2.17075665 4.25906161,2.12595032 C4.26670344,2.05854431 4.17862119,1.93886425 4.10984464,1.93886425 C4.04086698,1.93886425 3.99119502,2.15208735 3.99119502,2.15208735 C3.99119502,2.15208735 3.95680675,2.31283988 3.96826951,2.32777532 C3.97973227,2.34271077 3.92221737,2.27550127 3.92221737,2.27550127 C3.92221737,2.27550127 3.90415006,2.34079706 3.87453383,2.38024589 C3.84122211,2.42461712 3.79592592,2.44372153 3.79592592,2.44372153 C3.79592592,2.44372153 3.76153764,2.34644463 3.7730004,2.30910602 C3.78446316,2.27176741 3.96062767,2.12595032 3.94534399,2.0212057 C3.93851008,1.97497872 3.93244848,1.89429191 3.87453383,1.86751873 C3.80122107,1.83362721 3.66680258,1.85834754 3.58557423,1.84162665 C3.5409298,1.9176402 3.5204175,2.33524305 3.55098486,2.36157659 C3.58175331,2.38771362 3.47456646,2.44372153 3.47456646,2.44372153 L3.34827501,2.44745539 C3.346264,2.39085792 3.4226824,2.23619748 3.4226824,2.10531583 C3.4226824,1.97443418 3.43233524,1.83415893 3.43233524,1.83415893 C3.43233524,1.83415893 3.34744802,1.85552638 3.30222287,1.93886425 C3.26430186,2.00874255 3.26434933,2.14082288 3.2678346,2.15955507 C3.27547644,2.20062754 3.31368563,2.31657374 3.30222287,2.35037501 C3.29076012,2.38397975 3.09187119,2.42878608 3.09187119,2.42878608 L3.08402825,2.3203076 C3.08402825,2.3203076 3.16828958,2.26803355 3.16828958,2.13715191 C3.16828958,2.00627026 3.17593142,1.81918418 3.1721105,1.8079826 C3.16981831,1.80125091 3.10318555,1.51483667 3.01550188,1.32177498 C2.95702337,1.19301714 2.86679998,1.13401925 2.86221381,1.12354627 C2.85075105,1.09736994 2.85075105,1.0674401 2.85075105,1.0674401 C2.85075105,1.0674401 2.7242585,1.15720998 2.57504153,0.966468647 C2.71179023,0.852428678 2.85839289,0.936538805 2.85839289,0.936538805 C2.85839289,0.936538805 2.89660208,0.831813837 3.07256549,0.83930121 C3.24873,0.846788583 3.28311828,0.944026178 3.27547644,0.932804944 C3.27547644,0.932804944 3.40558881,0.820592602 3.54716394,0.92158371 Z" id="Path" fill="#923F00" fill-rule="nonzero"></path>
                    <path d="M2.89237896,3.3522288 L3.69758751,3.86710855 L4.42275785,3.39055001 C4.42275785,3.39055001 4.57398583,3.30899463 4.56091426,3.25043197 C4.54804379,3.19167279 4.49575752,3.21466551 4.46961439,3.2248845 C4.44367236,3.23510349 3.71065908,3.74231899 3.71065908,3.74231899 L2.93078926,3.26045444 C2.93078926,3.26045444 2.87347547,3.24276773 2.86301821,3.27833767 C2.85256096,3.31410412 2.88453602,3.33434558 2.89237896,3.3522288 L2.89237896,3.3522288 Z" id="Path" fill="#B4B6B9" fill-rule="nonzero"></path>
                    <path d="M5.59175817,7.14209748 C5.59175817,7.14209748 5.29205237,7.12200552 5.33787731,7.20876654 C5.3548307,7.24086464 5.49556484,7.25506314 5.76007974,7.25136203 L5.59175817,7.14209748 Z" id="Path" fill="#FF7000" fill-rule="nonzero"></path>
                    <path d="M5.73433881,7.25843672 L5.4218278,7.26728007 C5.4218278,7.26728007 5.34319729,7.33704431 5.33816977,7.35374843 C5.33334334,7.37064906 5.38985273,7.37536551 5.38985273,7.37536551 C5.60476271,7.42999779 5.79352955,7.43962722 5.95615325,7.4042538 C6.07922708,7.36219874 6.1007449,7.31169336 6.01447255,7.2810364 C5.92840131,7.25037944 5.73675202,7.25961583 5.73433881,7.25843672 Z" id="Path" fill="#FF7000" fill-rule="nonzero"></path>
                    <path d="M2.11916559,4.36862501 C2.11916559,4.36862501 2.07846274,4.49361108 2.11916559,4.55610412 C2.15984833,4.61859716 2.41564885,5.12424051 2.41564885,5.12424051 C2.41564885,5.12424051 2.59012411,4.9139652 2.65407423,4.90826615 C2.71802436,4.90276362 2.68886471,5.45380286 2.68886471,5.45380286 C2.68886471,5.45380286 2.58429218,5.55029368 2.52034205,5.54459463 C2.4563517,5.53889558 2.67720085,5.76056899 2.67136892,5.94804811 C2.66553699,6.13552722 2.38077793,7.06722374 2.27612495,7.08412437 C2.17149208,7.10122153 2.08115926,6.90869119 2.08115926,6.7422832 C2.08115926,6.5758752 2.18892754,6.31160824 2.18311572,6.2377171 C2.1773039,6.16382596 1.66308815,7.02956548 1.63196662,7.16473626 C1.62606662,7.19036183 1.65989104,7.28300159 1.65989104,7.28300159 C1.65989104,7.28300159 1.4583878,7.29950918 1.50293168,7.55576994 C0.909945057,7.35119368 0.619273619,6.99903165 0.625085439,6.64117058 C0.627314508,6.50398335 0.496513725,6.18125752 0.625085439,5.82494871 C0.832084892,5.25129433 1.33656304,4.59654099 1.3401605,4.53350444 C1.34597232,4.43111805 1.38665506,4.38572216 1.39246688,4.32892817 C1.3982787,4.27213418 1.37503142,3.98226868 1.43316973,3.93117374 C1.49130804,3.8800788 1.79360312,3.75509273 1.86917689,3.76079178 C1.94475066,3.76649083 2.00870079,3.81758577 2.00870079,3.81758577 C2.00870079,3.81758577 2.29358052,3.81758577 2.31101598,3.92547469 C2.32845144,4.03356013 2.25287767,4.07325697 2.25287767,4.07325697 C2.25287767,4.07325697 2.29358052,4.2267383 2.11916559,4.36862501 Z" id="Path" fill="#8A9396" fill-rule="nonzero"></path>
                    <path d="M2.42029428,5.13819336 C2.42029428,5.13819336 2.61144081,4.90374621 2.65588414,4.91239305 C2.70032747,4.92103988 2.6868537,5.45517849 2.6868537,5.45517849 C2.6868537,5.45517849 2.54467527,5.55933355 2.51370571,5.55501013 C2.48251494,5.55068672 2.67358104,5.80694748 2.66915681,5.9024557 C2.66473259,5.99796393 2.66030837,5.99796393 2.66030837,5.99796393 C2.66030837,5.99796393 2.66030837,5.94156298 2.61586504,5.85037817 C2.57142171,5.75919336 2.59796705,5.65484178 2.30920607,5.42471805 C2.23809674,5.2814557 2.45140461,5.51157944 2.49580772,5.47679558 C2.54025105,5.44220824 2.41584995,5.14251678 2.42029428,5.13819336 L2.42029428,5.13819336 Z" id="Path" fill-rule="nonzero"></path>
                    <path d="M2.30699396,3.92822596 C2.30699396,3.92822596 2.08425445,3.86396425 2.00757462,3.9710671 C1.9308948,4.07797343 1.94915477,4.13869779 1.98931465,4.14930982" id="Path"></path>
                    <path d="M2.28871387,7.59094684 C2.35275785,7.63522912 2.45872469,7.67047153 2.60661439,7.69667406 C2.24330526,7.79454051 1.87708686,7.74848956 1.50795921,7.55852121 C1.45730186,7.33665127 1.62672948,7.28712849 1.66865905,7.28535982 C1.76645448,7.25981235 2.19264791,7.52432691 2.28871387,7.59094684 Z" id="Path" fill="#2B2B2B" fill-rule="nonzero"></path>
                    <path d="M2.955787,7.56743834 C3.55207805,7.88260273 3.61587613,7.67043594 4.02670838,7.37086729 C4.05522161,7.35007616 4.19080509,7.85199783 4.76652527,7.56743834 C5.58123714,7.16475313 4.06809983,6.49360653 3.85423452,6.50814894 C3.64036921,6.52308438 2.35949595,7.25227394 2.955787,7.56743834 Z" id="Path" fill="#00713D" fill-rule="nonzero"></path>
                    <path d="M2.93972454,0.890133977 C2.75532403,0.647622085 2.66312378,0.498693061 2.66312378,0.443346905" id="Path-2" stroke="#CDAD56" stroke-width="0.25" stroke-linecap="round" fill-rule="nonzero"></path>
                    <path d="M3.43972438,0.890133977 C3.25532387,0.647622085 3.16312362,0.498693061 3.16312362,0.443346905" id="Path-2" stroke="#CDAD56" stroke-width="0.25" stroke-linecap="round" fill-rule="nonzero" transform="translate(3.301424, 0.666740) scale(-1, 1) translate(-3.301424, -0.666740) "></path>
                </g>
                <g id="flag">
                    <mask id="mask-7" fill="white">
                        <use xlink:href="#path-6"></use>
                    </mask>
                    <use id="mask" fill="#2B409A" xlink:href="#path-6"></use>
                    <g id="contents" mask="url(#mask-7)">
                        <g transform="translate(-1.875000, -1.250000)">
                            <g id="stripe">
                                <polygon id="white" fill="#F7FCFF" fill-rule="nonzero" transform="translate(7.554664, 5.457378) scale(1, -1) translate(-7.554664, -5.457378) " points="0.622333589 1.53986811 3.09792762 0.454117833 13.1811752 8.48429142 14.4869945 10.0977486 11.8397029 10.4606384 7.72698716 7.00020684 4.41667375 4.66868453"></polygon>
                                <polygon id="red" fill="#F50100" fill-rule="nonzero" transform="translate(7.489665, 5.716384) scale(1, -1) translate(-7.489665, -5.716384) " points="0.961246133 1.29717712 2.22244698 0.66709794 14.0180838 10.7656701 12.2472111 10.7656701"></polygon>
                            </g>
                            <g id="stripe" transform="translate(7.500000, 5.500000) scale(-1, 1) translate(-7.500000, -5.500000) ">
                                <polygon id="white" fill="#F7FCFF" fill-rule="nonzero" transform="translate(7.554664, 5.457378) scale(1, -1) translate(-7.554664, -5.457378) " points="0.622333589 1.53986811 3.09792762 0.454117833 13.1811752 8.48429142 14.4869945 10.0977486 11.8397029 10.4606384 7.72698716 7.00020684 4.41667375 4.66868453"></polygon>
                                <polygon id="red" fill="#F50100" fill-rule="nonzero" transform="translate(7.659723, 5.686725) scale(1, -1) translate(-7.659723, -5.686725) " points="0.706803828 1.45261194 1.96800468 0.822532761 6.99070908 5.14625614 8.47983314 5.62933537 14.612643 10.5509178 12.8417702 10.5509178 6.71240601 5.74615285 5.08431125 5.16688909"></polygon>
                            </g>
                            <g id="cross" transform="translate(1.875000, 1.250000)">
                                <path d="M6.70910966,-0.46875 L6.70878996,3.28125 L11.71875,3.28125 L11.71875,5.46875 L6.70878996,5.46875 L6.70910966,9.21875 L4.52160966,9.21875 L4.52128996,5.46875 L-0.46875,5.46875 L-0.46875,3.28125 L4.52128996,3.28125 L4.52160966,-0.46875 L6.70910966,-0.46875 Z" id="red" stroke="#F7FCFF" stroke-width="0.9375" fill="#F50100"></path>
                            </g>
                        </g>
                    </g>
                </g>
            </g>
        </g>
    </g>
</svg>