<?xml version="1.0" encoding="UTF-8"?>
<svg width="20px" height="15px" viewBox="0 0 20 15" version="1.1" xmlns="http://www.w3.org/2000/svg" xmlns:xlink="http://www.w3.org/1999/xlink">
    <title>flags/M/GU - Guam</title>
    <defs>
        <rect id="path-1" x="0" y="0" width="20" height="15"></rect>
        <rect id="path-3" x="2" y="2" width="16" height="11"></rect>
        <path d="M2.5,0.022992364 C4.16666667,0.91886579 5,2.11279401 5,3.60477702 C5,5.09676003 4.16666667,6.37802921 2.5,7.44858455 C0.833333333,6.33608159 0,5.05481241 0,3.60477702 C0,2.15474163 0.833333333,0.96081341 2.5,0.022992364 Z" id="path-5"></path>
    </defs>
    <g id="Symbols" stroke="none" stroke-width="1" fill="none" fill-rule="evenodd">
        <g id="flag">
            <mask id="mask-2" fill="white">
                <use xlink:href="#path-1"></use>
            </mask>
            <g id="mask"></g>
            <g id="contents" mask="url(#mask-2)">
                <path d="M0,0 L20,0 L20,13.75 C20,14.4403559 19.4403559,15 18.75,15 L1.25,15 C0.559644063,15 8.45442189e-17,14.4403559 0,13.75 L0,0 L0,0 Z" id="background" fill="#C51918"></path>
                <mask id="mask-4" fill="white">
                    <use xlink:href="#path-3"></use>
                </mask>
                <rect stroke-opacity="0.3" stroke="#CBDAFF" stroke-width="1.25" x="2.625" y="2.625" width="14.75" height="9.75"></rect>
                <g id="mark" mask="url(#mask-4)">
                    <g transform="translate(7.750015, 3.750000)">
                        <mask id="mask-6" fill="white">
                            <use xlink:href="#path-5"></use>
                        </mask>
                        <g id="base" stroke="none" fill="none">
                            <path stroke-opacity="0.748216712" stroke="#C1C9F1" stroke-width="1.8125" d="M2.05558519,-0.76680795 C3.90692009,-0.249630255 4.63027403,0.372688315 5.11813484,1.07165326 C5.64208774,1.82232784 5.90625,2.66623802 5.90625,3.60477702 C5.90625,5.36886874 4.98706373,6.92816181 2.98977885,8.21108421 C2.82167242,8.31906456 2.65496136,8.41928498 2.48938759,8.51153513 C2.32663831,8.41590488 2.16246443,8.31287589 1.99686725,8.20233948 C0.00337406443,6.87167924 -0.90625,5.3142202 -0.90625,3.60477702 C-0.90625,2.69019177 -0.643789884,1.85622724 -0.118134842,1.10311397 C0.366299124,0.409058713 1.08478937,-0.220548304 2.05558519,-0.76680795 Z" fill="#CCE0E5" fill-rule="evenodd"></path>
                            <path stroke="#C51918" stroke-width="1.25" d="M2.19350702,-0.521697508 C3.7289104,-0.0260083936 4.42174071,0.56531661 4.88750679,1.23262612 C5.37816396,1.93559745 5.625,2.72599414 5.625,3.60477702 C5.625,5.28442121 4.73245775,6.757431 2.83777852,7.97444639 C0.260947631,6.70545928 -0.625,5.23371433 -0.625,3.60477702 C-0.625,2.74902308 -0.379337851,1.96874002 0.112493213,1.26408684 C0.575895948,0.600163314 1.26537198,0.000557238118 2.19350702,-0.521697508 Z"></path>
                        </g>
                        <rect id="Rectangle-5" stroke="none" fill="#91CBCB" fill-rule="evenodd" mask="url(#mask-6)" x="0.333333333" y="5" width="4.66666667" height="1"></rect>
                        <path d="M0.751080726,5.74871281 C2.95693471,5.74949898 4.16123095,5.71183235 4.36396944,5.63571292 C4.66807718,5.52153379 3.79304601,7.82793848 2.67502462,7.82793848 C1.92967703,7.82793848 1.28836239,7.13486326 0.751080726,5.74871281 Z" id="sand" stroke="none" fill="#FDF9A1" fill-rule="evenodd" mask="url(#mask-6)"></path>
                        <path d="M3.87100369,5.47195066 L3.27661085,5.92933141 C2.33981453,4.71191018 1.94684955,3.45250068 2.114571,2.16715855 L2.85826625,2.26420169 C2.71778574,3.34078149 3.04974652,4.40467927 3.87100369,5.47195066 Z" id="Path-72" stroke="none" fill="#A68861" fill-rule="nonzero" mask="url(#mask-6)"></path>
                        <path d="M2.49600436,2.2729626 L1.92893627,2.93742821 C1.91773253,2.95055626 1.89800771,2.95211623 1.88487966,2.94091249 C1.87597535,2.93331338 1.8720648,2.92137503 1.8747475,2.90998046 L2.06980114,2.0815042 L2.06980114,2.0815042 L1.18272515,2.0815042 C1.16546625,2.0815042 1.15147515,2.0675131 1.15147515,2.0502542 C1.15147515,2.03784722 1.15881494,2.02661531 1.17017792,2.02163377 L1.92818215,1.68932386 L1.92818215,1.68932386 L1.39016951,0.980017685 C1.37973947,0.966266908 1.38243146,0.946664484 1.39618224,0.936234444 C1.40484152,0.929666331 1.41629147,0.928069039 1.4264177,0.932016532 L2.27245138,1.26182454 L2.27245138,1.26182454 L2.4655981,0.484677103 C2.46976087,0.467927747 2.48671349,0.457724299 2.50346285,0.461887066 C2.51470642,0.464681463 2.52348128,0.473466985 2.52626202,0.484713937 L2.7183979,1.26182454 L2.7183979,1.26182454 L3.55709792,0.935274278 C3.57318078,0.929012374 3.59129478,0.936973824 3.59755668,0.953056676 C3.60166152,0.963599393 3.59974751,0.975537425 3.59255254,0.984268458 L3.01153844,1.68932386 L3.01153844,1.68932386 L3.81324241,2.02138274 C3.82918767,2.02798713 3.83675995,2.04626725 3.83015556,2.06221251 C3.82531879,2.07389013 3.81392376,2.0815042 3.8012841,2.0815042 L3.01153844,2.0815042 L3.01153844,2.0815042 L3.13173153,2.9290984 C3.13415469,2.94618635 3.12226653,2.96200322 3.10517858,2.96442637 C3.09458773,2.96592821 3.08396454,2.96190865 3.07702063,2.95377208 L2.49600436,2.2729626 L2.49600436,2.2729626 Z" id="Star-11" stroke="none" fill="#239E46" fill-rule="evenodd" mask="url(#mask-6)"></path>
                        <polygon id="Rectangle-27" stroke="none" fill="#239E46" fill-rule="evenodd" mask="url(#mask-6)" points="2 4.375 5 4.375 5 5.03125 2 5.03125"></polygon>
                        <path d="M1.545,3.995375 L1.542,3.995375 C1.53333329,4.02753141 1.51216683,4.05427333 1.4785,4.07560156 C1.44483316,4.09692979 1.4013336,4.10759375 1.348,4.10759375 C1.30533312,4.10759375 1.26616685,4.09988289 1.2305,4.08446094 C1.19483315,4.06903899 1.16433346,4.04639859 1.139,4.01653906 C1.11366654,3.98667954 1.09383341,3.94960178 1.0795,3.90530469 C1.06516659,3.86100759 1.058,3.80998466 1.058,3.75223437 C1.058,3.69514034 1.06499993,3.64444553 1.079,3.60014844 C1.09300007,3.55585134 1.11299987,3.51877359 1.139,3.48891406 C1.16500013,3.45905454 1.19633315,3.43625008 1.233,3.4205 C1.26966685,3.40474992 1.31033311,3.396875 1.355,3.396875 C1.41766698,3.396875 1.46999979,3.41065611 1.512,3.43821875 C1.55400021,3.46578139 1.58633322,3.5022029 1.609,3.54748437 L1.54,3.58882812 C1.52399992,3.55207794 1.50016682,3.52320323 1.4685,3.50220312 C1.43683317,3.48120302 1.39900022,3.47070312 1.355,3.47070312 C1.32433318,3.47070312 1.29633346,3.47611713 1.271,3.48694531 C1.24566654,3.49777349 1.22383343,3.51303115 1.2055,3.53271875 C1.18716658,3.55240635 1.17300005,3.57603111 1.163,3.60359375 C1.15299995,3.63115639 1.148,3.66199983 1.148,3.696125 L1.148,3.80735937 C1.148,3.84148455 1.15299995,3.87249205 1.163,3.90038281 C1.17300005,3.92827358 1.18716658,3.9520624 1.2055,3.97175 C1.22383343,3.9914376 1.2463332,4.00669526 1.273,4.01752344 C1.2996668,4.02835162 1.3296665,4.03376562 1.363,4.03376562 C1.38700012,4.03376562 1.40983322,4.03064847 1.4315,4.02441406 C1.45316677,4.01817966 1.47216659,4.00882819 1.4885,3.99635937 C1.50483341,3.98389056 1.51766662,3.96830478 1.527,3.94960156 C1.53633338,3.93089834 1.541,3.90875013 1.541,3.88315625 L1.541,3.81523437 L1.387,3.81523437 L1.387,3.74239062 L1.623,3.74239062 L1.623,4.09578125 L1.545,4.09578125 L1.545,3.995375 Z M2.06700001,3.4086875 L2.06700001,3.8339375 C2.06700001,3.89956283 2.07933322,3.94927327 2.10400001,3.98307031 C2.1286668,4.01686736 2.1719997,4.03376562 2.23400001,4.03376562 C2.29600032,4.03376562 2.33933322,4.01686736 2.36400001,3.98307031 C2.3886668,3.94927327 2.40100001,3.89956283 2.40100001,3.8339375 L2.40100001,3.4086875 L2.48500001,3.4086875 L2.48500001,3.81425 C2.48500001,3.86412525 2.48050005,3.90743732 2.47150001,3.9441875 C2.46249996,3.98093768 2.44800011,4.011453 2.42800001,4.03573437 C2.40799991,4.06001575 2.3818335,4.07806244 2.34950001,4.089875 C2.31716651,4.10168756 2.27766691,4.10759375 2.23100001,4.10759375 C2.18433311,4.10759375 2.14516683,4.10168756 2.11350001,4.089875 C2.08183318,4.07806244 2.05633344,4.06001575 2.03700001,4.03573437 C2.01766658,4.011453 2.00383338,3.98093768 1.99550001,3.9441875 C1.98716663,3.90743732 1.98300001,3.86412525 1.98300001,3.81425 L1.98300001,3.4086875 L2.06700001,3.4086875 Z M3.29000002,4.09578125 L3.22000002,3.893 L2.93800002,3.893 L2.86800002,4.09578125 L2.78300002,4.09578125 L3.02700002,3.4086875 L3.13400002,3.4086875 L3.37800002,4.09578125 L3.29000002,4.09578125 Z M3.08100002,3.48546875 L3.07600002,3.48546875 L2.95800002,3.82015625 L3.19900002,3.82015625 L3.08100002,3.48546875 Z M4.23800002,3.51696875 L4.23300002,3.51696875 L4.17400002,3.63214062 L4.00700002,3.93139062 L3.84000002,3.63214062 L3.78100002,3.51696875 L3.77600002,3.51696875 L3.77600002,4.09578125 L3.69400002,4.09578125 L3.69400002,3.4086875 L3.80600002,3.4086875 L4.00600002,3.7788125 L4.01100002,3.7788125 L4.21200002,3.4086875 L4.32000002,3.4086875 L4.32000002,4.09578125 L4.23800002,4.09578125 L4.23800002,3.51696875 Z" id="GUAM" stroke="none" fill="#C51918" fill-rule="evenodd" mask="url(#mask-6)"></path>
                    </g>
                </g>
            </g>
        </g>
    </g>
</svg>