<?xml version="1.0" encoding="UTF-8"?>
<svg width="20px" height="15px" viewBox="0 0 20 15" version="1.1" xmlns="http://www.w3.org/2000/svg" xmlns:xlink="http://www.w3.org/1999/xlink">
    <title>flags/M/HM - Heard and McDonald Islands</title>
    <defs>
        <rect id="path-1" x="0" y="0" width="20" height="15"></rect>
        <rect id="path-3" x="0" y="0" width="11" height="9"></rect>
    </defs>
    <g id="Symbols" stroke="none" stroke-width="1" fill="none" fill-rule="evenodd">
        <g id="flag">
            <mask id="mask-2" fill="white">
                <use xlink:href="#path-1"></use>
            </mask>
            <g id="mask"></g>
            <g id="contents" mask="url(#mask-2)" fill="#2E42A5">
                <rect id="left" x="0" y="0" width="20" height="15"></rect>
            </g>
            <g id="gb---medium" mask="url(#mask-2)">
                <g id="flag">
                    <mask id="mask-4" fill="white">
                        <use xlink:href="#path-3"></use>
                    </mask>
                    <use id="mask" fill="#2E42A5" xlink:href="#path-3"></use>
                    <g id="contents" mask="url(#mask-4)">
                        <g transform="translate(-2.500000, -1.250000)">
                            <g id="stripe" transform="translate(1.000000, 0.000000)">
                                <polygon id="white" fill="#F7FCFF" fill-rule="nonzero" transform="translate(7.179664, 5.457378) scale(1, -1) translate(-7.179664, -5.457378) " points="0.247333589 1.53986811 2.72292762 0.454117833 12.8061752 8.48429142 14.1119945 10.0977486 11.4647029 10.4606384 7.35198716 7.00020684 4.04167375 4.66868453"></polygon>
                                <polygon id="red" fill="#F50100" fill-rule="nonzero" transform="translate(7.114665, 5.716384) scale(1, -1) translate(-7.114665, -5.716384) " points="0.586246133 1.29717712 1.84744698 0.66709794 13.6430838 10.7656701 11.8722111 10.7656701"></polygon>
                            </g>
                            <g id="stripe" transform="translate(7.750000, 5.500000) scale(-1, 1) translate(-7.750000, -5.500000) translate(0.250000, 0.000000)">
                                <polygon id="white" fill="#F7FCFF" fill-rule="nonzero" transform="translate(7.179664, 5.612355) scale(1, -1) translate(-7.179664, -5.612355) " points="0.247333589 1.84982105 2.4444201 0.454117833 12.8061752 8.79424437 14.1119945 10.4077016 11.4647029 10.7705913 7.35198716 7.31015978 4.04167375 4.97863747"></polygon>
                                <polygon id="red" fill="#F50100" fill-rule="nonzero" transform="translate(7.284723, 5.686725) scale(1, -1) translate(-7.284723, -5.686725) " points="0.331803828 1.45261194 1.59300468 0.822532761 6.61570908 5.14625614 8.10483314 5.62933537 14.237643 10.5509178 12.4667702 10.5509178 6.33740601 5.74615285 4.70931125 5.16688909"></polygon>
                            </g>
                            <g id="cross" transform="translate(2.500000, 1.250000)">
                                <path d="M6.46875,-0.46875 L6.46875,3.53125 L11.46875,3.53125 L11.46875,5.46875 L6.46875,5.46875 L6.46875,9.46875 L4.53125,9.46875 L4.53125,5.46875 L-0.46875,5.46875 L-0.46875,3.53125 L4.53125,3.53125 L4.53125,-0.46875 L6.46875,-0.46875 Z" id="red" stroke="#F7FCFF" stroke-width="0.9375" fill="#F50100"></path>
                            </g>
                        </g>
                    </g>
                </g>
            </g>
            <g id="stars" mask="url(#mask-2)" fill="#F7FCFF" fill-rule="nonzero">
                <g transform="translate(4.000000, 1.000000)" id="Star">
                    <polygon points="1.92 11.2783333 1.09995973 12.0361645 1.18116925 10.9225312 0.077386246 10.7538979 0.998693123 10.1230511 0.442338498 9.15493761 1.50997987 9.48191775 1.92 8.44333333 2.33002013 9.48191775 3.3976615 9.15493761 2.84130688 10.1230511 3.76261375 10.7538979 2.65883075 10.9225312 2.74004027 12.0361645"></polygon>
                    <polygon points="9.24 7.29666667 8.69330649 7.80188744 8.74744617 7.05946524 8.01159083 6.94704304 8.62579542 6.52647848 8.25489233 5.88106952 8.96665324 6.09905628 9.24 5.40666667 9.51334676 6.09905628 10.2251077 5.88106952 9.85420458 6.52647848 10.4684092 6.94704304 9.73255383 7.05946524 9.78669351 7.80188744"></polygon>
                    <polygon points="10.52 1.96333333 9.97330649 2.46855411 10.0274462 1.72613191 9.29159083 1.61370971 9.90579542 1.19314514 9.53489233 0.547736183 10.2466532 0.765722947 10.52 0.0733333333 10.7933468 0.765722947 11.5051077 0.547736183 11.1342046 1.19314514 11.7484092 1.61370971 11.0125538 1.72613191 11.0666935 2.46855411"></polygon>
                    <polygon points="13.72 4.63 13.1733065 5.13522077 13.2274462 4.39279858 12.4915908 4.28037638 13.1057954 3.85981181 12.7348923 3.21440285 13.4466532 3.43238961 13.72 2.74 13.9933468 3.43238961 14.7051077 3.21440285 14.3342046 3.85981181 14.9484092 4.28037638 14.2125538 4.39279858 14.2666935 5.13522077"></polygon>
                    <polygon points="11.16 12.2966667 10.6133065 12.8018874 10.6674462 12.0594652 9.93159083 11.947043 10.5457954 11.5264785 10.1748923 10.8810695 10.8866532 11.0990563 11.16 10.4066667 11.4333468 11.0990563 12.1451077 10.8810695 11.7742046 11.5264785 12.3884092 11.947043 11.6525538 12.0594652 11.7066935 12.8018874"></polygon>
                    <polygon points="13.4 8.13916667 12.8445429 8.43118773 12.9506258 7.8126772 12.5012516 7.37464561 13.1222715 7.28440614 13.4 6.72166667 13.6777285 7.28440614 14.2987484 7.37464561 13.8493742 7.8126772 13.9554571 8.43118773"></polygon>
                </g>
            </g>
        </g>
    </g>
</svg>