<?xml version="1.0" encoding="UTF-8"?>
<svg width="20px" height="15px" viewBox="0 0 20 15" version="1.1" xmlns="http://www.w3.org/2000/svg" xmlns:xlink="http://www.w3.org/1999/xlink">
    <title>flags/M/HN - Honduras</title>
    <defs>
        <rect id="path-1" x="0" y="0" width="20" height="15"></rect>
        <rect id="path-3" x="0" y="0" width="20" height="15"></rect>
    </defs>
    <g id="Symbols" stroke="none" stroke-width="1" fill="none" fill-rule="evenodd">
        <g id="flag">
            <mask id="mask-2" fill="white">
                <use xlink:href="#path-1"></use>
            </mask>
            <g id="mask"></g>
            <g id="contents" mask="url(#mask-2)">
                <mask id="mask-4" fill="white">
                    <use xlink:href="#path-3"></use>
                </mask>
                <use id="background" fill="#F7FCFF" xlink:href="#path-3"></use>
                <rect id="top" fill="#4564F9" mask="url(#mask-4)" x="0" y="0" width="20" height="5"></rect>
                <rect id="bottom" fill="#4564F9" mask="url(#mask-4)" x="0" y="10" width="20" height="5"></rect>
                <g id="mark" mask="url(#mask-4)" fill="#4564F9">
                    <g transform="translate(5.000000, 5.000000)" id="Star-10">
                        <polygon points="5.51129702 3.20743812 4.77656546 3.59370936 4.9168867 2.77557374 4.32247638 2.13648468 5.14393124 2.13648468 5.51129702 1.33243812 5.87866281 2.13648468 6.70011767 2.13648468 6.10570735 2.77557374 6.24602859 3.59370936"></polygon>
                        <polygon points="1.76129702 1.95743812 1.02656546 2.34370936 1.1668867 1.52557374 0.572476379 0.886484684 1.39393124 0.886484684 1.76129702 0.0824381159 2.12866281 0.886484684 2.95011767 0.886484684 2.35570735 1.52557374 2.49602859 2.34370936"></polygon>
                        <polygon points="1.76129702 4.45743812 1.02656546 4.84370936 1.1668867 4.02557374 0.572476379 3.38648468 1.39393124 3.38648468 1.76129702 2.58243812 2.12866281 3.38648468 2.95011767 3.38648468 2.35570735 4.02557374 2.49602859 4.84370936"></polygon>
                        <polygon points="9.26129702 1.95743812 8.52656546 2.34370936 8.6668867 1.52557374 8.07247638 0.886484684 8.89393124 0.886484684 9.26129702 0.0824381159 9.62866281 0.886484684 10.4501177 0.886484684 9.85570735 1.52557374 9.99602859 2.34370936"></polygon>
                        <polygon points="9.26129702 4.45743812 8.52656546 4.84370936 8.6668867 4.02557374 8.07247638 3.38648468 8.89393124 3.38648468 9.26129702 2.58243812 9.62866281 3.38648468 10.4501177 3.38648468 9.85570735 4.02557374 9.99602859 4.84370936"></polygon>
                    </g>
                </g>
            </g>
        </g>
    </g>
</svg>