<?xml version="1.0" encoding="UTF-8"?>
<svg width="20px" height="15px" viewBox="0 0 20 15" version="1.1" xmlns="http://www.w3.org/2000/svg" xmlns:xlink="http://www.w3.org/1999/xlink">
    <title>flags/M/HR - Croatia (Hrvatska)</title>
    <defs>
        <rect id="path-1" x="0" y="0" width="20" height="15"></rect>
        <rect id="path-3" x="0" y="0" width="20" height="15"></rect>
        <path d="M0.00644144659,0 C0.00644144659,0.432639301 0.022060042,1.92613174 0.0532972327,4.48047733 C0.210935828,6.40201542 1.3542624,7.36278447 3.48327695,7.36278447 C5.6122915,7.36278447 6.80121678,6.40404005 7.0500528,4.48655122 C7.0645174,1.91218364 7.05750449,0.416666569 7.02901409,0 L0.00644144659,0 Z" id="path-5"></path>
        <path d="M0.662036403,2.65437244 C0.931029019,2.56927525 1.14651279,2.5154734 1.30848772,2.49296691 C1.47046266,2.47046041 1.66892021,2.45438097 1.90386039,2.44472857 L1.74618733,0.61696908 L0.894485602,0.0120894857 L0.120437185,0.814536099 L0.662036403,2.65437244 Z" id="path-7"></path>
        <path d="M0.617797156,2.65437244 C0.886789772,2.56927525 1.10227355,2.5154734 1.26424848,2.49296691 C1.42622341,2.47046041 1.62468097,2.45438097 1.85962115,2.44472857 L1.70194808,0.61696908 L0.850246356,0.0120894857 L0.120437185,0.81150485 L0.617797156,2.65437244 Z" id="path-9"></path>
        <path d="M0.894485602,2.75080151 C1.16633321,2.60559586 1.41819082,2.49557656 1.65005844,2.42074361 C1.88192607,2.34591066 2.08949253,2.28805141 2.27275784,2.24716586 L1.74401131,0.387235722 L0.707561815,0 L0.120551569,0.967562749 L0.894485602,2.75080151 Z" id="path-11"></path>
    </defs>
    <g id="Symbols" stroke="none" stroke-width="1" fill="none" fill-rule="evenodd">
        <g id="flag">
            <mask id="mask-2" fill="white">
                <use xlink:href="#path-1"></use>
            </mask>
            <g id="mask"></g>
            <g id="contents" mask="url(#mask-2)">
                <mask id="mask-4" fill="white">
                    <use xlink:href="#path-3"></use>
                </mask>
                <use id="background" fill="#F7FCFF" xlink:href="#path-3"></use>
                <rect id="top" fill="#E31D1C" mask="url(#mask-4)" x="0" y="0" width="20" height="5"></rect>
                <rect id="bottom" fill="#3D58DB" mask="url(#mask-4)" x="0" y="10" width="20" height="5"></rect>
                <g id="mark" mask="url(#mask-4)">
                    <g transform="translate(5.750000, 1.500000)">
                        <rect id="Rectangle-90" fill="#E31D1C" x="0.547851562" y="2.49832664" width="7.125" height="2.5"></rect>
                        <g id="shield" stroke-width="1" fill="none" transform="translate(0.547852, 3.748327)">
                            <mask id="mask-6" fill="white">
                                <use xlink:href="#path-5"></use>
                            </mask>
                            <path stroke="#E31D1C" stroke-width="0.703125" d="M0.360950848,0.489034118 C3.21052326,0.551402178 4.82776852,0.707613318 5.74472491,0.956704403 C6.17149761,1.07263715 6.42703397,1.1970137 6.56632479,1.36001234 C6.73306043,1.55512703 6.70546635,1.79243198 6.70570221,2.04532275 L6.70570221,2.04532275 L6.70504539,2.67637302 C6.70397499,3.36113414 6.70183848,3.88593453 6.69861768,4.46249557 C6.58563852,5.30458717 6.27769084,5.94537434 5.75104685,6.37005787 C5.20930326,6.80691765 4.44942806,7.01122197 3.48327695,7.01122197 C2.52155004,7.01122197 1.77417624,6.80917232 1.25519504,6.37305802 C0.749820923,5.94837812 0.475875184,5.30632061 0.404676389,4.46333346 C0.380997706,2.52651688 0.36632488,1.20171822 0.360950848,0.489034118 Z"></path>
                            <path d="M6.85546875,5.75635877 L6.85546875,7.09504685 L5.53710938,7.09504685 L5.53710938,5.75635877 L6.85546875,5.75635877 Z M4.21875,5.75635877 L4.21875,7.09504685 L2.90039062,7.09504685 L2.90039062,5.75635877 L4.21875,5.75635877 Z M1.58203125,5.75635877 L1.58203125,7.09504685 L0.263671875,7.09504685 L0.263671875,5.75635877 L1.58203125,5.75635877 Z M2.90039062,4.41767068 L2.90039062,5.75635877 L1.58203125,5.75635877 L1.58203125,4.41767068 L2.90039062,4.41767068 Z M5.53710938,4.41767068 L5.53710938,5.75635877 L4.21875,5.75635877 L4.21875,4.41767068 L5.53710938,4.41767068 Z M1.58203125,3.0789826 L1.58203125,4.41767068 L0.263671875,4.41767068 L0.263671875,3.0789826 L1.58203125,3.0789826 Z M4.21875,3.0789826 L4.21875,4.41767068 L2.90039062,4.41767068 L2.90039062,3.0789826 L4.21875,3.0789826 Z M6.85546875,3.0789826 L6.85546875,4.41767068 L5.53710938,4.41767068 L5.53710938,3.0789826 L6.85546875,3.0789826 Z M2.90039062,1.74029451 L2.90039062,3.0789826 L1.58203125,3.0789826 L1.58203125,1.74029451 L2.90039062,1.74029451 Z M5.53710938,1.74029451 L5.53710938,3.0789826 L4.21875,3.0789826 L4.21875,1.74029451 L5.53710938,1.74029451 Z M1.58203125,0.401606426 L1.58203125,1.74029451 L0.263671875,1.74029451 L0.263671875,0.401606426 L1.58203125,0.401606426 Z M4.21875,0.401606426 L4.21875,1.74029451 L2.90039062,1.74029451 L2.90039062,0.401606426 L4.21875,0.401606426 Z M6.85546875,0.401606426 L6.85546875,1.74029451 L5.53710938,1.74029451 L5.53710938,0.401606426 L6.85546875,0.401606426 Z" id="Combined-Shape" fill="#F50100" mask="url(#mask-6)"></path>
                        </g>
                        <g id="top" stroke-width="1" fill="none" transform="translate(0.020508, 0.000000)">
                            <g id="Group-11" transform="translate(0.000000, 0.803213)">
                                <path d="M0.762649665,2.79843009 C1.03449727,2.65322444 1.28635488,2.54320514 1.51822251,2.46837219 C1.75009013,2.39353925 1.95765659,2.33568 2.1409219,2.29479445 L1.62345974,0.387235722 L0.587010245,0 L0,0.967562749 L0.762649665,2.79843009 Z" id="Path-333" stroke="#FFFFFF" stroke-width="0.5" fill="#56C6F5"></path>
                                <path d="M0.592656599,1.75352184 L0.711754471,1.69611325 C0.834741892,1.95918787 0.99685805,2.04044421 1.21907077,1.95751539 C1.44605135,1.87280723 1.53859358,1.71262185 1.50593833,1.45867687 L1.63666456,1.44134413 C1.67720033,1.75657238 1.55008183,1.97660733 1.2645499,2.08316661 C0.974250109,2.19150522 0.743296401,2.07574593 0.592656599,1.75352184 Z" id="Path-347" fill="#FFFFFF" fill-rule="nonzero"></path>
                                <path d="M0.889822123,1.16029484 L0.782405096,1.23892956 C0.767304425,1.24998402 0.746101503,1.24670391 0.735047045,1.23160324 C0.730051102,1.22477866 0.727787948,1.21633245 0.728702269,1.20792422 L0.743093422,1.07558098 L0.743093422,1.07558098 L0.621285241,1.02187247 C0.604161464,1.01432213 0.596400656,0.994319813 0.603950992,0.977196035 C0.607363284,0.96945713 0.613546336,0.963274077 0.621285241,0.959861785 L0.743093422,0.906153272 L0.743093422,0.906153272 L0.728702269,0.773810036 C0.726679163,0.755205242 0.740121276,0.738483025 0.75872607,0.736459919 C0.767134305,0.735545598 0.775580512,0.737808752 0.782405096,0.742804695 L0.889822123,0.821439416 L0.889822123,0.821439416 L0.997239151,0.742804695 C1.01233982,0.731750236 1.03354274,0.73503034 1.0445972,0.750131011 C1.04959314,0.756955595 1.0518563,0.765401802 1.05094198,0.773810036 L1.03655083,0.906153272 L1.03655083,0.906153272 L1.15835901,0.959861785 C1.17548278,0.967412121 1.18324359,0.987414442 1.17569326,1.00453822 C1.17228096,1.01227712 1.16609791,1.01846018 1.15835901,1.02187247 L1.03655083,1.07558098 L1.03655083,1.07558098 L1.05094198,1.20792422 C1.05296508,1.22652901 1.03952297,1.24325123 1.02091818,1.24527434 C1.01250994,1.24618866 1.00406373,1.2439255 0.997239151,1.23892956 L0.889822123,1.16029484 L0.889822123,1.16029484 Z" id="Star-22" fill="#FECA00" transform="translate(0.880557, 0.987244) rotate(5.000000) translate(-0.880557, -0.987244) "></path>
                            </g>
                            <g id="Group-12" transform="translate(2.636719, 0.000000)">
                                <path d="M1.1060906,3.09628539 C1.31855766,3.00124444 1.54072499,2.91630749 1.77259262,2.84147454 C2.00446024,2.7666416 2.21809989,2.69649744 2.41351158,2.63104207 L1.96989392,0.794487504 L0.999616392,0.38071981 L0.412606147,1.34828256 L1.1060906,3.09628539 Z" id="Path-333" stroke="#FFFFFF" stroke-width="0.5" fill="#56C6F5" transform="translate(1.413059, 1.738503) rotate(19.000000) translate(-1.413059, -1.738503) "></path>
                                <path d="M1.43666088,2.61551236 C1.7381257,2.61551236 1.76700061,2.28991141 1.76700061,2.06811031 C1.68991715,1.94508999 1.70544586,1.85705483 1.45835773,1.85705483 C1.21126959,1.85705483 1.18306316,1.93171909 1.11097031,2.06811031 C1.11097031,2.28991141 1.13519606,2.61551236 1.43666088,2.61551236 Z" id="Oval-62" fill="#FECA00"></path>
                                <path d="M1.77588588,1.69553919 C2.0773507,1.69553919 2.10622561,1.36993824 2.10622561,1.14813714 C2.02914215,1.02511682 2.04467087,0.93708166 1.79758273,0.93708166 C1.55049459,0.93708166 1.52228816,1.01174592 1.45019531,1.14813714 C1.45019531,1.36993824 1.47442106,1.69553919 1.77588588,1.69553919 Z" id="Oval-62" fill="#FECA00"></path>
                                <path d="M1.11670619,1.69553919 C1.41817101,1.69553919 1.44704593,1.36993824 1.44704593,1.14813714 C1.36996246,1.02511682 1.38549118,0.93708166 1.13840304,0.93708166 C0.891314905,0.93708166 0.863108477,1.01174592 0.791015625,1.14813714 C0.791015625,1.36993824 0.815241376,1.69553919 1.11670619,1.69553919 Z" id="Oval-62" fill="#FECA00"></path>
                            </g>
                            <g id="Group-8" transform="translate(1.450195, 0.401606)">
                                <mask id="mask-8" fill="white">
                                    <use xlink:href="#path-7"></use>
                                </mask>
                                <path stroke="#FFFFFF" stroke-width="0.5" d="M0.863880424,-0.316279859 L1.98531422,0.480163771 L2.17566469,2.68672261 C1.83280119,2.6934945 1.55517589,2.71109133 1.34289478,2.7405879 C1.14524584,2.76805131 0.862941807,2.84680819 0.495149393,2.97274323 L0.495149393,2.97274323 L-0.160452753,0.745633933 L0.863880424,-0.316279859 Z"></path>
                                <path d="M0.552071809,2.24704033 L0.395507813,1.87824003 C0.731762541,1.73105617 1.29978419,1.64074393 1.89751399,1.60543196 L1.92048567,2.00636042 C1.36481811,2.03918748 0.839193199,2.12136289 0.552071809,2.24704033 Z" id="Path-344" fill="#C51918" fill-rule="nonzero" mask="url(#mask-8)"></path>
                                <path d="M0.287852418,1.35493837 L0.131288421,0.986138067 C0.46754315,0.838954202 1.19029823,0.719798847 1.78802804,0.684486884 L1.81099971,1.08541534 C1.25533215,1.1182424 0.574973808,1.22926092 0.287852418,1.35493837 Z" id="Path-344" fill="#C51918" fill-rule="nonzero" mask="url(#mask-8)"></path>
                            </g>
                            <g id="Group-10" transform="translate(4.614258, 0.401606)">
                                <mask id="mask-10" fill="white">
                                    <use xlink:href="#path-9"></use>
                                </mask>
                                <path stroke="#FFFFFF" stroke-width="0.5" d="M0.814709999,-0.319781988 L1.94107497,0.480163771 L2.13142544,2.68672261 C1.78856194,2.6934945 1.51093665,2.71109133 1.29865553,2.7405879 C1.10000192,2.76819091 0.815830389,2.84761018 0.445294893,2.97466732 L0.445294893,2.97466732 L-0.156662281,0.744235782 L0.814709999,-0.319781988 Z"></path>
                                <path d="M1.11386548,2.13994877 C1.23635148,2.07177159 1.306424,1.98020739 1.32408302,1.86525617 C1.35057156,1.69282934 1.63476915,1.48045763 1.49267036,1.50573316 C1.35057156,1.53100869 1.43182187,1.55075222 1.22605665,1.50573316 C1.02029143,1.4607141 0.753978299,1.43093666 0.753978299,1.30444453 C0.753978299,1.1779524 0.886345844,1.07755608 0.778137349,1.07755608 C0.669928853,1.07755608 0.439065276,0.957835886 0.485429611,1.04934286 C0.531793945,1.14084983 0.378761583,1.03738228 0.455277764,1.22735892 C0.531793945,1.41733556 0.439065276,1.60872381 0.485429611,1.65908412 C0.531793945,1.70944443 0.455277764,1.95643885 0.455277764,1.95643885 C0.455277764,1.95643885 0.483381915,2.04817473 0.532545393,1.91077121 C0.581708871,1.77336768 0.689278636,1.67705359 0.635493754,1.7939124 C0.581708871,1.91077121 0.513082893,2.18872578 0.574288323,2.13994877 C0.635493754,2.09117176 0.696342246,1.95628625 0.696342246,1.91077121 C0.696342246,1.86525617 0.850783573,1.68659153 0.850783573,1.82151519 C0.850783573,1.95643885 0.705491124,2.06269148 0.778137349,2.06269148 C0.850783573,2.06269148 0.89150595,2.09136252 0.937181294,1.95643885 C0.982856637,1.82151519 1.09378303,1.73225917 1.1392832,1.82151519 C1.18478337,1.91077121 1.17471397,1.90600224 1.11386548,2.0229755 C1.07329982,2.10095768 1.07329982,2.13994877 1.11386548,2.13994877 Z" id="Path-345" fill="#FECA00" mask="url(#mask-10)"></path>
                                <path d="" id="Path-346" fill="#C51918" fill-rule="nonzero" mask="url(#mask-10)"></path>
                            </g>
                            <g id="Group-9" transform="translate(5.932617, 0.803213)">
                                <mask id="mask-12" fill="white">
                                    <use xlink:href="#path-11"></use>
                                </mask>
                                <path stroke="#FFFFFF" stroke-width="0.5" d="M0.601177148,-0.306626139 L1.949918,0.197287115 L2.5881853,2.44246988 C2.35578684,2.47592545 2.06875834,2.5483101 1.72684347,2.65865969 C1.44156979,2.7507289 1.12463666,2.89982103 0.775256601,3.10402538 L0.775256601,3.10402538 L-0.160269609,0.948458458 L0.601177148,-0.306626139 Z"></path>
                                <path d="M1.46582014,0.882903436 L1.35840311,0.961538158 C1.34330244,0.972592616 1.32209952,0.969312513 1.31104506,0.954211842 C1.30604912,0.947387258 1.30378597,0.93894105 1.30470029,0.930532816 L1.31909144,0.798189581 L1.31909144,0.798189581 L1.19728326,0.744481067 C1.18015948,0.736930731 1.17239867,0.716928411 1.17994901,0.699804633 C1.1833613,0.692065728 1.18954435,0.685882676 1.19728326,0.682470384 L1.31909144,0.62876187 L1.31909144,0.62876187 L1.30470029,0.496418635 C1.30267718,0.477813841 1.31611929,0.461091623 1.33472409,0.459068517 C1.34313232,0.458154196 1.35157853,0.460417351 1.35840311,0.465413293 L1.46582014,0.544048014 L1.46582014,0.544048014 L1.57323717,0.465413293 C1.58833784,0.454358834 1.60954076,0.457638938 1.62059522,0.472739609 C1.62559116,0.479564193 1.62785432,0.4880104 1.62694,0.496418635 L1.61254884,0.62876187 L1.61254884,0.62876187 L1.73435702,0.682470384 C1.7514808,0.690020719 1.75924161,0.71002304 1.75169127,0.727146817 C1.74827898,0.734885722 1.74209593,0.741068775 1.73435702,0.744481067 L1.61254884,0.798189581 L1.61254884,0.798189581 L1.62694,0.930532816 C1.6289631,0.94913761 1.61552099,0.965859827 1.59691619,0.967882934 C1.58850796,0.968797255 1.58006175,0.9665341 1.57323717,0.961538158 L1.46582014,0.882903436 L1.46582014,0.882903436 Z" id="Star-22" fill="#FECA00" mask="url(#mask-12)" transform="translate(1.457924, 0.710332) rotate(-12.000000) translate(-1.457924, -0.710332) "></path>
                                <path d="M0.168834028,1.75154901 L0.30159764,1.23332147 C0.889567627,1.38863344 1.50249666,1.5876871 1.95215091,1.7801707 L1.74729806,2.27359231 C1.32251745,2.09175638 0.733434809,1.90068801 0.168834028,1.75154901 Z" id="Path-348" fill="#E31D1C" fill-rule="nonzero" mask="url(#mask-12)"></path>
                                <path d="M0.348834296,1.27301565 L0.380133017,1.1429741 C0.943823589,1.28286079 1.54296009,1.50606227 1.97833676,1.71395207 L1.92223513,1.83509518 C1.49522516,1.63120043 0.904350206,1.41087369 0.348834296,1.27301565 Z" id="Path-349" fill="#FFFFFF" fill-rule="nonzero" mask="url(#mask-12)"></path>
                                <path d="M0.181768187,1.80711218 L0.213066907,1.67707063 C0.77675748,1.81695732 1.29776264,2.00676583 1.73313932,2.21465563 L1.67703768,2.33579874 C1.25002772,2.13190399 0.737284097,1.94497023 0.181768187,1.80711218 Z" id="Path-349" fill="#FFFFFF" fill-rule="nonzero" mask="url(#mask-12)"></path>
                                <path d="M0.436197193,1.55615398 L0.556904053,1.50164881 C0.607716574,1.62059383 0.670478248,1.64679828 0.775409013,1.59581693 C1.02324339,1.47540484 1.63799717,1.64367719 1.63799717,1.87057178 C1.63799717,1.95908979 1.58668595,2.01275644 1.50835142,2.00964746 C1.46414038,2.0078928 1.41695335,1.99042368 1.34772291,1.95620071 C1.3393249,1.95204928 1.33380986,1.94927008 1.32019521,1.94234598 C1.24364374,1.9033051 1.23783648,1.9004573 1.21747045,1.89311548 L1.26109298,1.76520826 C1.28931421,1.77538181 1.29375474,1.77755939 1.37878053,1.82092214 C1.3918901,1.82758901 1.39700642,1.83016729 1.40485131,1.83404529 C1.45792065,1.86027927 1.49339048,1.87341057 1.51343692,1.87420618 C1.51530536,1.87428033 1.50616123,1.88384422 1.50616123,1.87057178 C1.50616123,1.77073975 1.00582052,1.63378491 0.831737872,1.7183642 C0.658131954,1.80271186 0.516211749,1.74345688 0.436197193,1.55615398 Z" id="Path-350" fill="#272727" fill-rule="nonzero" mask="url(#mask-12)"></path>
                            </g>
                        </g>
                    </g>
                </g>
            </g>
        </g>
    </g>
</svg>