<?xml version="1.0" encoding="UTF-8"?>
<svg width="20px" height="15px" viewBox="0 0 20 15" version="1.1" xmlns="http://www.w3.org/2000/svg" xmlns:xlink="http://www.w3.org/1999/xlink">
    <title>flags/M/HT - Haiti</title>
    <defs>
        <rect id="path-1" x="0" y="0" width="20" height="15"></rect>
        <rect id="path-3" x="0" y="0" width="20" height="15"></rect>
        <rect id="path-5" x="0" y="0" width="7.5" height="5"></rect>
    </defs>
    <g id="Symbols" stroke="none" stroke-width="1" fill="none" fill-rule="evenodd">
        <g id="flag">
            <mask id="mask-2" fill="white">
                <use xlink:href="#path-1"></use>
            </mask>
            <g id="mask"></g>
            <g id="contents" mask="url(#mask-2)">
                <mask id="mask-4" fill="white">
                    <use xlink:href="#path-3"></use>
                </mask>
                <use id="background" fill="#2E42A5" xlink:href="#path-3"></use>
                <rect id="bottom" fill="#E31D1C" mask="url(#mask-4)" x="0" y="7.5" width="20" height="7.5"></rect>
                <g id="mark" mask="url(#mask-4)">
                    <g transform="translate(6.250000, 5.000000)">
                        <mask id="mask-6" fill="white">
                            <use xlink:href="#path-5"></use>
                        </mask>
                        <use id="bg" stroke="none" fill="#FFFFFF" fill-rule="evenodd" xlink:href="#path-5"></use>
                        <path d="M0,4.11111111 C1.20014204,3.79555766 2.45014204,3.64740951 3.75,3.66666667 C5.04985796,3.68592382 6.29985796,3.87110901 7.5,4.22222222 L7.5,5 L0,5 L0,4.11111111 Z" id="grass" stroke="none" fill="#279E19" fill-rule="evenodd" mask="url(#mask-6)"></path>
                        <g id="tree" stroke="none" stroke-width="1" fill="none" fill-rule="evenodd" mask="url(#mask-6)">
                            <g transform="translate(2.068966, 0.222222)">
                                <g id="left" stroke-width="1" fill="none">
                                    <path d="M1.72704014,0.341002005 C1.33910222,0.166260867 1.00972912,0.0788902985 0.738920823,0.0788902985 C0.468112529,0.0788902985 0.257487854,0.212246955 0.107046796,0.478960268" id="Path-81" stroke="#026A16" stroke-width="0.5"></path>
                                    <path d="M1.85635048,0.603735698 C1.49937836,0.476060987 1.19629632,0.412223632 0.947104362,0.412223632 C0.6979124,0.412223632 0.504100108,0.509660748 0.365667485,0.704534981" id="Path-81" stroke="#026A16" stroke-width="0.5"></path>
                                    <path d="M1.85635048,0.82595792 C1.59227576,0.698283209 1.36806691,0.634445854 1.18372394,0.634445854 C0.999380978,0.634445854 0.856005837,0.73188297 0.75359852,0.926757203" id="Path-81" stroke="#026A16" stroke-width="0.5"></path>
                                    <path d="M1.69351116,1.04818014 C1.53036297,0.920505432 1.39184435,0.856668076 1.27795529,0.856668076 C1.16406624,0.856668076 1.07548754,0.954105193 1.01221921,1.14897943" id="Path-81" stroke="#026A16" stroke-width="0.5"></path>
                                    <path d="M1.67255849,1.19980272 C1.6073252,1.11919444 1.55193982,1.0788903 1.50640234,1.0788903 C1.46086487,1.0788903 1.4254475,1.14040787 1.40015024,1.26344303" id="Path-81" stroke="#026A16" stroke-width="0.5"></path>
                                </g>
                                <g id="right" stroke-width="1" fill="none" transform="translate(1.862069, 1.250000) scale(-1, 1) translate(-1.862069, -1.250000) translate(0.362069, 0.000000)">
                                    <path d="M1.72704014,0.341002005 C1.33910222,0.166260867 1.00972912,0.0788902985 0.738920823,0.0788902985 C0.468112529,0.0788902985 0.257487854,0.212246955 0.107046796,0.478960268" id="Path-81" stroke="#026A16" stroke-width="0.5"></path>
                                    <path d="M1.85635048,0.603735698 C1.49937836,0.476060987 1.19629632,0.412223632 0.947104362,0.412223632 C0.6979124,0.412223632 0.504100108,0.509660748 0.365667485,0.704534981" id="Path-81" stroke="#026A16" stroke-width="0.5"></path>
                                    <path d="M1.85635048,0.82595792 C1.59227576,0.698283209 1.36806691,0.634445854 1.18372394,0.634445854 C0.999380978,0.634445854 0.856005837,0.73188297 0.75359852,0.926757203" id="Path-81" stroke="#026A16" stroke-width="0.5"></path>
                                    <path d="M1.69351116,1.04818014 C1.53036297,0.920505432 1.39184435,0.856668076 1.27795529,0.856668076 C1.16406624,0.856668076 1.07548754,0.954105193 1.01221921,1.14897943" id="Path-81" stroke="#026A16" stroke-width="0.5"></path>
                                    <path d="M1.67255849,1.19980272 C1.6073252,1.11919444 1.55193982,1.0788903 1.50640234,1.0788903 C1.46086487,1.0788903 1.4254475,1.14040787 1.40015024,1.26344303" id="Path-81" stroke="#026A16" stroke-width="0.5"></path>
                                </g>
                                <path d="M1.61077388,1.27665821 C1.56316898,1.8339134 1.53936654,2.2259363 1.53936654,2.45272692 C1.53936654,2.67951754 1.56316898,3.03758522 1.61077388,3.52692996 L1.79441845,3.52692996 C1.79441845,3.00012165 1.79441845,2.64205397 1.79441845,2.45272692 C1.79441845,2.26339987 1.75849891,1.87137697 1.68665983,1.27665821 L1.61077388,1.27665821 Z" id="base" fill="#FECA00"></path>
                            </g>
                        </g>
                        <g id="left" stroke="none" stroke-width="1" fill="none" fill-rule="evenodd" mask="url(#mask-6)">
                            <g transform="translate(0.775862, 1.222222)">
                                <path d="M2.18165593,1.22683271 C1.87991045,1.38834027 1.72903771,1.70815616 1.72903771,2.18628037 L2.18165593,3.05225456 L2.99847768,3.05225456 L2.99847768,1.6261742 L2.18165593,1.22683271 Z" id="red" stroke="none" fill="#C51918" fill-rule="evenodd"></path>
                                <path d="M1.51098451,0.544003457 C0.806480044,0.752711413 0.454227811,1.24202524 0.454227811,2.01194493 L1.82336015,2.1287404 C1.77350092,1.681434 1.88901174,1.35432322 2.1698926,1.14740808 L1.51098451,0.544003457 Z" id="blue" stroke="none" fill="#0A328C" fill-rule="evenodd"></path>
                                <line x1="1.07471623" y1="0.10334282" x2="2.8875094" y2="1.76462971" id="spear" stroke="#FFD018" stroke-width="0.5" fill="none"></line>
                                <line x1="0.445108536" y1="0.479508618" x2="2.97352197" y2="2.12136824" id="spear" stroke="#FFD018" stroke-width="0.5" fill="none"></line>
                                <line x1="0.00986550388" y1="1.11499838" x2="2.85961197" y2="2.41829487" id="spear" stroke="#FFD018" stroke-width="0.5" fill="none"></line>
                                <path d="M0.461512439,2.0029036 L2.3525479,2.21433168 L2.24608441,2.47824586 L1.9462815,2.47824586 L2.15046693,2.6273583 L2.61090937,2.73511243 L2.61090937,2.47824586 L3.014154,2.47824586 L3.014154,3.02397141 L2.15046693,3.02397141 L1.81920521,2.6273583 C1.63372599,2.81019413 1.45047713,2.90161205 1.26945862,2.90161205 C0.997930859,2.90161205 0.730234271,2.81254333 0.730234271,2.51343751 C0.730234271,2.31403362 0.730234271,2.24467037 0.730234271,2.30534776 L0.461512439,2.21433168 L0.461512439,2.0029036 Z" id="canon" stroke="none" fill="#FECA00" fill-rule="evenodd"></path>
                            </g>
                        </g>
                        <g id="right" stroke="none" stroke-width="1" fill="none" fill-rule="evenodd" mask="url(#mask-6)">
                            <g transform="translate(4.215517, 3.097222) scale(-1, 1) translate(-4.215517, -3.097222) translate(1.965517, 1.222222)">
                                <path d="M2.18165593,1.22683271 C1.87991045,1.38834027 1.72903771,1.70815616 1.72903771,2.18628037 L2.18165593,3.05225456 L2.99847768,3.05225456 L2.99847768,1.6261742 L2.18165593,1.22683271 Z" id="red" stroke="none" fill="#C51918" fill-rule="evenodd"></path>
                                <path d="M1.51098451,0.544003457 C0.806480044,0.752711413 0.454227811,1.24202524 0.454227811,2.01194493 L1.82336015,2.1287404 C1.77350092,1.681434 1.88901174,1.35432322 2.1698926,1.14740808 L1.51098451,0.544003457 Z" id="blue" stroke="none" fill="#0A328C" fill-rule="evenodd"></path>
                                <line x1="1.07471623" y1="0.10334282" x2="2.8875094" y2="1.76462971" id="spear" stroke="#FFD018" stroke-width="0.5" fill="none"></line>
                                <line x1="0.445108536" y1="0.479508618" x2="2.97352197" y2="2.12136824" id="spear" stroke="#FFD018" stroke-width="0.5" fill="none"></line>
                                <line x1="0.00986550388" y1="1.11499838" x2="2.85961197" y2="2.41829487" id="spear" stroke="#FFD018" stroke-width="0.5" fill="none"></line>
                                <path d="M0.461512439,2.0029036 L2.3525479,2.21433168 L2.24608441,2.47824586 L1.9462815,2.47824586 L2.15046693,2.6273583 L2.61090937,2.73511243 L2.61090937,2.47824586 L3.014154,2.47824586 L3.014154,3.02397141 L2.15046693,3.02397141 L1.81920521,2.6273583 C1.63372599,2.81019413 1.45047713,2.90161205 1.26945862,2.90161205 C0.997930859,2.90161205 0.730234271,2.81254333 0.730234271,2.51343751 C0.730234271,2.31403362 0.730234271,2.24467037 0.730234271,2.30534776 L0.461512439,2.21433168 L0.461512439,2.0029036 Z" id="canon" stroke="none" fill="#FECA00" fill-rule="evenodd"></path>
                            </g>
                        </g>
                    </g>
                </g>
            </g>
        </g>
    </g>
</svg>