<?xml version="1.0" encoding="UTF-8"?>
<svg width="20px" height="15px" viewBox="0 0 20 15" version="1.1" xmlns="http://www.w3.org/2000/svg" xmlns:xlink="http://www.w3.org/1999/xlink">
    <title>flags/M/IM - Isle of Man</title>
    <defs>
        <rect id="path-1" x="0" y="0" width="20" height="15"></rect>
        <rect id="path-3" x="0" y="0" width="20" height="15"></rect>
    </defs>
    <g id="Symbols" stroke="none" stroke-width="1" fill="none" fill-rule="evenodd">
        <g id="flag">
            <mask id="mask-2" fill="white">
                <use xlink:href="#path-1"></use>
            </mask>
            <g id="mask"></g>
            <g id="contents" mask="url(#mask-2)">
                <mask id="mask-4" fill="white">
                    <use xlink:href="#path-3"></use>
                </mask>
                <use id="background" fill="#E31D1C" xlink:href="#path-3"></use>
                <g id="mark" mask="url(#mask-4)">
                    <g transform="translate(3.750000, -0.249996)">
                        <g id="leg" stroke-width="1" fill="none" fill-rule="evenodd" transform="translate(0.000000, 2.317073)">
                            <path d="M0.133112105,0.448361346 C0.776839523,1.18297348 1.27035034,1.55027955 1.61364457,1.55027955 C2.15052488,1.55027955 4.25901949,-0.226372643 4.88224065,0.0630472416 C5.29772142,0.255993831 5.92606577,1.36114044 6.7672737,3.37848708 L5.94500149,4.40990237 L4.88224065,3.83013646 L4.68138141,1.55027955 C3.31760796,2.25172951 2.29502902,2.47514856 1.61364457,2.22053671 L1.03909372,2.70332837 C0.670223947,1.97290976 0.413160287,1.49599725 0.267902744,1.27259082 C0.137170956,1.07152504 0.0652684725,0.802985067 0.0521952932,0.466970898 L0.090116549,0.46549551 C0.0895894276,0.45194714 0.100145235,0.4405367 0.113693605,0.440009578 C0.121094903,0.439721619 0.128230586,0.442790628 0.133112105,0.448361346 Z" id="Path-87" fill="#F7FCFF"></path>
                            <polygon id="Star-13" fill="#FECA00" points="1.41369048 3.01067073 1.0638183 3.22264885 1.13063794 2.77367199 0.847585407 2.45570481 1.23875439 2.39019996 1.41369048 1.98170732 1.58862656 2.39019996 1.97979555 2.45570481 1.69674301 2.77367199 1.76356265 3.22264885"></polygon>
                            <path d="M4.60961392,0.0762195122 C4.73481445,0.0762195122 4.83630952,0.177714589 4.83630952,0.302915112 L4.83630952,1.37391416 C4.83630952,1.49911468 4.73481445,1.60060976 4.60961392,1.60060976 C4.4844134,1.60060976 4.38291832,1.49911468 4.38291832,1.37391416 L4.38291832,0.302915112 C4.38291832,0.177714589 4.4844134,0.0762195122 4.60961392,0.0762195122 Z" id="Rectangle-30" fill="#FECA00"></path>
                        </g>
                        <g id="leg" stroke-width="1" fill="none" fill-rule="evenodd" transform="translate(8.378141, 5.521555) rotate(122.000000) translate(-8.378141, -5.521555) translate(4.628141, 3.021555)">
                            <path d="M0.133112105,0.448361346 C0.776839523,1.18297348 1.27035034,1.55027955 1.61364457,1.55027955 C2.15052488,1.55027955 4.25901949,-0.226372643 4.88224065,0.0630472416 C5.29772142,0.255993831 5.92606577,1.36114044 6.7672737,3.37848708 L5.94500149,4.40990237 L4.88224065,3.83013646 L4.68138141,1.55027955 C3.31760796,2.25172951 2.29502902,2.47514856 1.61364457,2.22053671 L1.03909372,2.70332837 C0.670223947,1.97290976 0.413160287,1.49599725 0.267902744,1.27259082 C0.137170956,1.07152504 0.0652684725,0.802985067 0.0521952932,0.466970898 L0.090116549,0.46549551 C0.0895894276,0.45194714 0.100145235,0.4405367 0.113693605,0.440009578 C0.121094903,0.439721619 0.128230586,0.442790628 0.133112105,0.448361346 Z" id="Path-87" fill="#F7FCFF"></path>
                            <polygon id="Star-13" fill="#FECA00" points="1.41369048 3.01067073 1.0638183 3.22264885 1.13063794 2.77367199 0.847585407 2.45570481 1.23875439 2.39019996 1.41369048 1.98170732 1.58862656 2.39019996 1.97979555 2.45570481 1.69674301 2.77367199 1.76356265 3.22264885"></polygon>
                            <path d="M4.63574042,0.00650704271 C4.76447942,0.00180041857 4.87265848,0.102348526 4.8773651,0.231087526 C4.87755514,0.236285651 4.87757125,0.241488679 4.87741341,0.246687881 L4.84318896,1.3740078 C4.83915697,1.5068176 4.74438447,1.61944752 4.6142185,1.64612182 C4.51380414,1.66669925 4.41572092,1.60197864 4.39514348,1.50156429 C4.39267282,1.4895079 4.39140749,1.47723566 4.39136616,1.4649288 L4.38733667,0.26502557 C4.38686968,0.125963552 4.49677046,0.0115877049 4.63574042,0.00650704271 Z" id="Rectangle-30" fill="#FECA00"></path>
                        </g>
                        <g id="leg" stroke-width="1" fill="none" fill-rule="evenodd" transform="translate(5.001478, 9.469683) rotate(242.000000) translate(-5.001478, -9.469683) translate(1.251478, 6.344683)">
                            <path d="M0.133112105,1.69836135 C0.776839523,2.43297348 1.27035034,2.80027955 1.61364457,2.80027955 C2.15052488,2.80027955 4.25901949,1.02362736 4.88224065,1.31304724 C5.29772142,1.50599383 5.92606577,2.61114044 6.7672737,4.62848708 L5.94500149,5.65990237 L4.88224065,5.08013646 L4.68138141,2.80027955 C3.31760796,3.50172951 2.29502902,3.72514856 1.61364457,3.47053671 L1.03909372,3.95332837 C0.670223947,3.22290976 0.413160287,2.74599725 0.267902744,2.52259082 C0.137170956,2.32152504 0.0652684725,2.05298507 0.0521952932,1.7169709 L0.090116549,1.71549551 C0.0895894276,1.70194714 0.100145235,1.6905367 0.113693605,1.69000958 C0.121094903,1.68972162 0.128230586,1.69279063 0.133112105,1.69836135 Z" id="Path-87" fill="#F7FCFF"></path>
                            <polygon id="Star-13" fill="#FECA00" points="1.41369048 4.26067073 1.0638183 4.47264885 1.13063794 4.02367199 0.847585407 3.70570481 1.23875439 3.64019996 1.41369048 3.23170732 1.58862656 3.64019996 1.97979555 3.70570481 1.69674301 4.02367199 1.76356265 4.47264885"></polygon>
                            <path d="M4.76992276,1.24303952 C4.91084594,1.27354588 5.00556256,1.40608258 4.98878314,1.54929023 L4.86701244,2.58856897 C4.84921461,2.74046849 4.72566817,2.85810169 4.57307895,2.86843407 C4.45320097,2.87655146 4.34944022,2.78595159 4.34132284,2.6660736 C4.34038302,2.65219442 4.34077657,2.63825709 4.34249807,2.62445305 L4.49002384,1.44150046 C4.50591398,1.31408355 4.62208729,1.22367324 4.7495042,1.23956338 C4.75635864,1.2404182 4.76317159,1.24157806 4.76992276,1.24303952 Z" id="Rectangle-30" fill="#FECA00"></path>
                        </g>
                        <path d="M4.7891171,6.35308151 C4.71133279,6.32590111 4.66978559,6.23927243 4.69631884,6.15959094 C4.72285209,6.07990945 4.84746878,5.94681234 4.92525309,5.97399274 L6.01012152,6.35308151 C6.06609531,6.37264059 6.10545002,6.42429769 6.11037208,6.48467067 L6.20738248,7.67457965 C6.21422246,7.75847731 6.09202163,7.82634631 6.01012152,7.83335311 C5.92822142,7.84035991 5.85628337,7.77802755 5.8494434,7.69412988 L5.75961479,6.67084529 L4.7891171,6.35308151 Z" id="Path-88" fill="#FECA00" fill-rule="nonzero"></path>
                        <path d="M6.67535318,5.72971424 C6.74019841,5.67799006 6.85598596,5.73793978 6.90647862,5.8043666 C6.95697128,5.87079341 6.94533622,5.96657373 6.88049099,6.01829791 L6.12898228,6.78855918 C6.06413705,6.84028337 5.91829981,6.73938989 5.86780715,6.67296307 C5.81731449,6.60653625 5.80296192,6.42558237 5.86780715,6.37385819 L6.67535318,5.72971424 Z" id="Path-89" fill="#FECA00" fill-rule="nonzero"></path>
                    </g>
                </g>
            </g>
        </g>
    </g>
</svg>