<?xml version="1.0" encoding="UTF-8"?>
<svg width="20px" height="15px" viewBox="0 0 20 15" version="1.1" xmlns="http://www.w3.org/2000/svg" xmlns:xlink="http://www.w3.org/1999/xlink">
    <title>flags/M/IO - British Indian Ocean Territory</title>
    <defs>
        <rect id="path-1" x="0" y="0" width="20" height="15"></rect>
        <rect id="path-3" x="0" y="0" width="20" height="15"></rect>
        <rect id="path-5" x="0" y="0" width="9" height="7"></rect>
    </defs>
    <g id="Symbols" stroke="none" stroke-width="1" fill="none" fill-rule="evenodd">
        <g id="flag">
            <mask id="mask-2" fill="white">
                <use xlink:href="#path-1"></use>
            </mask>
            <g id="mask"></g>
            <g id="contents" mask="url(#mask-2)">
                <mask id="mask-4" fill="white">
                    <use xlink:href="#path-3"></use>
                </mask>
                <use id="background" fill="#F7FCFF" xlink:href="#path-3"></use>
                <g id="mark-2" mask="url(#mask-4)" fill="#2E42A5" fill-rule="nonzero">
                    <g transform="translate(-1.250000, -0.400000)" id="Combined-Shape">
                        <path d="M5.20541849,13.9321797 C5.5889018,14.2946847 5.73050708,14.375 6.06302386,14.375 C6.39554065,14.375 6.53714592,14.2946847 6.92062924,13.9321797 C7.52889949,13.3571847 7.93826843,13.125 8.70770006,13.125 C9.47713168,13.125 9.88650062,13.3571847 10.4947709,13.9321797 C10.8782542,14.2946847 11.0198595,14.375 11.3523763,14.375 C11.684893,14.375 11.8264983,14.2946847 12.2099816,13.9321797 C12.8182519,13.3571847 13.2276208,13.125 13.9970524,13.125 C14.7664841,13.125 15.175853,13.3571847 15.7841233,13.9321797 C16.1676066,14.2946847 16.3092119,14.375 16.6417286,14.375 C16.9742454,14.375 17.1158507,14.2946847 17.499334,13.9321797 C18.1076043,13.3571847 18.5169732,13.125 19.2864048,13.125 C20.3612934,13.125 21.4002128,13.6160428 22.3958138,14.5571797 L21.4663483,15.4428203 C20.6988318,14.7172905 19.9746337,14.375 19.2864048,14.375 C18.953888,14.375 18.8122828,14.4553153 18.4287995,14.8178203 C17.8712184,15.344899 17.4807697,15.5839219 16.8269087,15.6200988 L16.6417286,15.625 L16.6417286,15.625 C15.872297,15.625 15.4629281,15.3928153 14.8546578,14.8178203 C14.4711745,14.4553153 14.3295692,14.375 13.9970524,14.375 C13.6645357,14.375 13.5229304,14.4553153 13.1394471,14.8178203 C12.581866,15.344899 12.1914173,15.5839219 11.5375563,15.6200988 L11.3523763,15.625 L11.3523763,15.625 C10.5829446,15.625 10.1735757,15.3928153 9.56530543,14.8178203 C9.18182211,14.4553153 9.04021684,14.375 8.70770006,14.375 C8.37518327,14.375 8.233578,14.4553153 7.85009468,14.8178203 C7.29251361,15.344899 6.9020649,15.5839219 6.24820394,15.6200988 L6.06302386,15.625 L6.06302386,15.625 C5.29359223,15.625 4.8842233,15.3928153 4.27595304,14.8178203 C3.89246973,14.4553153 3.75086445,14.375 3.41834767,14.375 C2.78747117,14.375 2.12637058,14.6626191 1.42938511,15.2693983 L1.2384042,15.4428203 L1.2384042,15.4428203 L0.30893875,14.5571797 C1.30453972,13.6160428 2.34345912,13.125 3.41834767,13.125 C4.1877793,13.125 4.59714823,13.3571847 5.20541849,13.9321797 Z M19.2864048,10.625 C20.3612934,10.625 21.4002128,11.1160428 22.3958138,12.0571797 L21.4663483,12.9428203 C20.6988318,12.2172905 19.9746337,11.875 19.2864048,11.875 C18.953888,11.875 18.8122828,11.9553153 18.4287995,12.3178203 C17.8712184,12.844899 17.4807697,13.0839219 16.8269087,13.1200988 L16.6417286,13.125 L16.6417286,13.125 C15.872297,13.125 15.4629281,12.8928153 14.8546578,12.3178203 C14.4711745,11.9553153 14.3295692,11.875 13.9970524,11.875 C13.6645357,11.875 13.5229304,11.9553153 13.1394471,12.3178203 C12.581866,12.844899 12.1914173,13.0839219 11.5375563,13.1200988 L11.3523763,13.125 L11.3523763,13.125 C10.5829446,13.125 10.1735757,12.8928153 9.56530543,12.3178203 C9.18182211,11.9553153 9.04021684,11.875 8.70770006,11.875 C8.37518327,11.875 8.233578,11.9553153 7.85009468,12.3178203 C7.29251361,12.844899 6.9020649,13.0839219 6.24820394,13.1200988 L6.06302386,13.125 L6.06302386,13.125 C5.29359223,13.125 4.8842233,12.8928153 4.27595304,12.3178203 C3.89246973,11.9553153 3.75086445,11.875 3.41834767,11.875 C2.78747117,11.875 2.12637058,12.1626191 1.42938511,12.7693983 L1.2384042,12.9428203 L1.2384042,12.9428203 L0.30893875,12.0571797 C1.30453972,11.1160428 2.34345912,10.625 3.41834767,10.625 C4.1877793,10.625 4.59714823,10.8571847 5.20541849,11.4321797 C5.5889018,11.7946847 5.73050708,11.875 6.06302386,11.875 C6.39554065,11.875 6.53714592,11.7946847 6.92062924,11.4321797 C7.52889949,10.8571847 7.93826843,10.625 8.70770006,10.625 C9.47713168,10.625 9.88650062,10.8571847 10.4947709,11.4321797 C10.8782542,11.7946847 11.0198595,11.875 11.3523763,11.875 C11.684893,11.875 11.8264983,11.7946847 12.2099816,11.4321797 C12.8182519,10.8571847 13.2276208,10.625 13.9970524,10.625 C14.7664841,10.625 15.175853,10.8571847 15.7841233,11.4321797 C16.1676066,11.7946847 16.3092119,11.875 16.6417286,11.875 C16.9742454,11.875 17.1158507,11.7946847 17.499334,11.4321797 C18.1076043,10.8571847 18.5169732,10.625 19.2864048,10.625 Z M19.2864048,8.125 C20.3612934,8.125 21.4002128,8.61604282 22.3958138,9.55717974 L21.4663483,10.4428203 C20.6988318,9.71729052 19.9746337,9.375 19.2864048,9.375 C18.953888,9.375 18.8122828,9.45531528 18.4287995,9.81782026 C17.8712184,10.344899 17.4807697,10.5839219 16.8269087,10.6200988 L16.6417286,10.625 L16.6417286,10.625 C15.872297,10.625 15.4629281,10.3928153 14.8546578,9.81782026 C14.4711745,9.45531528 14.3295692,9.375 13.9970524,9.375 C13.6645357,9.375 13.5229304,9.45531528 13.1394471,9.81782026 C12.581866,10.344899 12.1914173,10.5839219 11.5375563,10.6200988 L11.3523763,10.625 L11.3523763,10.625 C10.5829446,10.625 10.1735757,10.3928153 9.56530543,9.81782026 C9.18182211,9.45531528 9.04021684,9.375 8.70770006,9.375 C8.37518327,9.375 8.233578,9.45531528 7.85009468,9.81782026 C7.29251361,10.344899 6.9020649,10.5839219 6.24820394,10.6200988 L6.06302386,10.625 L6.06302386,10.625 C5.29359223,10.625 4.8842233,10.3928153 4.27595304,9.81782026 C3.89246973,9.45531528 3.75086445,9.375 3.41834767,9.375 C2.78747117,9.375 2.12637058,9.66261911 1.42938511,10.2693983 L1.2384042,10.4428203 L1.2384042,10.4428203 L0.30893875,9.55717974 C1.30453972,8.61604282 2.34345912,8.125 3.41834767,8.125 C4.1877793,8.125 4.59714823,8.35718472 5.20541849,8.93217974 C5.5889018,9.29468472 5.73050708,9.375 6.06302386,9.375 C6.39554065,9.375 6.53714592,9.29468472 6.92062924,8.93217974 C7.52889949,8.35718472 7.93826843,8.125 8.70770006,8.125 C9.47713168,8.125 9.88650062,8.35718472 10.4947709,8.93217974 C10.8782542,9.29468472 11.0198595,9.375 11.3523763,9.375 C11.684893,9.375 11.8264983,9.29468472 12.2099816,8.93217974 C12.8182519,8.35718472 13.2276208,8.125 13.9970524,8.125 C14.7664841,8.125 15.175853,8.35718472 15.7841233,8.93217974 C16.1676066,9.29468472 16.3092119,9.375 16.6417286,9.375 C16.9742454,9.375 17.1158507,9.29468472 17.499334,8.93217974 C18.1076043,8.35718472 18.5169732,8.125 19.2864048,8.125 Z M19.2864048,5.625 C20.3612934,5.625 21.4002128,6.11604282 22.3958138,7.05717974 L21.4663483,7.94282026 C20.6988318,7.21729052 19.9746337,6.875 19.2864048,6.875 C18.953888,6.875 18.8122828,6.95531528 18.4287995,7.31782026 C17.8712184,7.84489903 17.4807697,8.08392192 16.8269087,8.1200988 L16.6417286,8.125 L16.6417286,8.125 C15.872297,8.125 15.4629281,7.89281528 14.8546578,7.31782026 C14.4711745,6.95531528 14.3295692,6.875 13.9970524,6.875 C13.6645357,6.875 13.5229304,6.95531528 13.1394471,7.31782026 C12.581866,7.84489903 12.1914173,8.08392192 11.5375563,8.1200988 L11.3523763,8.125 L11.3523763,8.125 C10.5829446,8.125 10.1735757,7.89281528 9.56530543,7.31782026 C9.18182211,6.95531528 9.04021684,6.875 8.70770006,6.875 C8.37518327,6.875 8.233578,6.95531528 7.85009468,7.31782026 C7.29251361,7.84489903 6.9020649,8.08392192 6.24820394,8.1200988 L6.06302386,8.125 L6.06302386,8.125 C5.29359223,8.125 4.8842233,7.89281528 4.27595304,7.31782026 C3.89246973,6.95531528 3.75086445,6.875 3.41834767,6.875 C2.78747117,6.875 2.12637058,7.16261911 1.42938511,7.76939828 L1.2384042,7.94282026 L1.2384042,7.94282026 L0.30893875,7.05717974 C1.30453972,6.11604282 2.34345912,5.625 3.41834767,5.625 C4.1877793,5.625 4.59714823,5.85718472 5.20541849,6.43217974 C5.5889018,6.79468472 5.73050708,6.875 6.06302386,6.875 C6.39554065,6.875 6.53714592,6.79468472 6.92062924,6.43217974 C7.52889949,5.85718472 7.93826843,5.625 8.70770006,5.625 C9.47713168,5.625 9.88650062,5.85718472 10.4947709,6.43217974 C10.8782542,6.79468472 11.0198595,6.875 11.3523763,6.875 C11.684893,6.875 11.8264983,6.79468472 12.2099816,6.43217974 C12.8182519,5.85718472 13.2276208,5.625 13.9970524,5.625 C14.7664841,5.625 15.175853,5.85718472 15.7841233,6.43217974 C16.1676066,6.79468472 16.3092119,6.875 16.6417286,6.875 C16.9742454,6.875 17.1158507,6.79468472 17.499334,6.43217974 C18.1076043,5.85718472 18.5169732,5.625 19.2864048,5.625 Z M19.2864048,3.125 C20.3612934,3.125 21.4002128,3.61604282 22.3958138,4.55717974 L21.4663483,5.44282026 C20.6988318,4.71729052 19.9746337,4.375 19.2864048,4.375 C18.953888,4.375 18.8122828,4.45531528 18.4287995,4.81782026 C17.8712184,5.34489903 17.4807697,5.58392192 16.8269087,5.6200988 L16.6417286,5.625 L16.6417286,5.625 C15.872297,5.625 15.4629281,5.39281528 14.8546578,4.81782026 C14.4711745,4.45531528 14.3295692,4.375 13.9970524,4.375 C13.6645357,4.375 13.5229304,4.45531528 13.1394471,4.81782026 C12.581866,5.34489903 12.1914173,5.58392192 11.5375563,5.6200988 L11.3523763,5.625 L11.3523763,5.625 C10.5829446,5.625 10.1735757,5.39281528 9.56530543,4.81782026 C9.18182211,4.45531528 9.04021684,4.375 8.70770006,4.375 C8.37518327,4.375 8.233578,4.45531528 7.85009468,4.81782026 C7.29251361,5.34489903 6.9020649,5.58392192 6.24820394,5.6200988 L6.06302386,5.625 L6.06302386,5.625 C5.29359223,5.625 4.8842233,5.39281528 4.27595304,4.81782026 C3.89246973,4.45531528 3.75086445,4.375 3.41834767,4.375 C2.78747117,4.375 2.12637058,4.66261911 1.42938511,5.26939828 L1.2384042,5.44282026 L1.2384042,5.44282026 L0.30893875,4.55717974 C1.30453972,3.61604282 2.34345912,3.125 3.41834767,3.125 C4.1877793,3.125 4.59714823,3.35718472 5.20541849,3.93217974 C5.5889018,4.29468472 5.73050708,4.375 6.06302386,4.375 C6.39554065,4.375 6.53714592,4.29468472 6.92062924,3.93217974 C7.52889949,3.35718472 7.93826843,3.125 8.70770006,3.125 C9.47713168,3.125 9.88650062,3.35718472 10.4947709,3.93217974 C10.8782542,4.29468472 11.0198595,4.375 11.3523763,4.375 C11.684893,4.375 11.8264983,4.29468472 12.2099816,3.93217974 C12.8182519,3.35718472 13.2276208,3.125 13.9970524,3.125 C14.7664841,3.125 15.175853,3.35718472 15.7841233,3.93217974 C16.1676066,4.29468472 16.3092119,4.375 16.6417286,4.375 C16.9742454,4.375 17.1158507,4.29468472 17.499334,3.93217974 C18.1076043,3.35718472 18.5169732,3.125 19.2864048,3.125 Z M19.2864048,0.625 C20.3612934,0.625 21.4002128,1.11604282 22.3958138,2.05717974 L21.4663483,2.94282026 C20.6988318,2.21729052 19.9746337,1.875 19.2864048,1.875 C18.953888,1.875 18.8122828,1.95531528 18.4287995,2.31782026 C17.8712184,2.84489903 17.4807697,3.08392192 16.8269087,3.1200988 L16.6417286,3.125 L16.6417286,3.125 C15.872297,3.125 15.4629281,2.89281528 14.8546578,2.31782026 C14.4711745,1.95531528 14.3295692,1.875 13.9970524,1.875 C13.6645357,1.875 13.5229304,1.95531528 13.1394471,2.31782026 C12.581866,2.84489903 12.1914173,3.08392192 11.5375563,3.1200988 L11.3523763,3.125 L11.3523763,3.125 C10.5829446,3.125 10.1735757,2.89281528 9.56530543,2.31782026 C9.18182211,1.95531528 9.04021684,1.875 8.70770006,1.875 C8.37518327,1.875 8.233578,1.95531528 7.85009468,2.31782026 C7.29251361,2.84489903 6.9020649,3.08392192 6.24820394,3.1200988 L6.06302386,3.125 L6.06302386,3.125 C5.29359223,3.125 4.8842233,2.89281528 4.27595304,2.31782026 C3.89246973,1.95531528 3.75086445,1.875 3.41834767,1.875 C2.78747117,1.875 2.12637058,2.16261911 1.42938511,2.76939828 L1.2384042,2.94282026 L1.2384042,2.94282026 L0.30893875,2.05717974 C1.30453972,1.11604282 2.34345912,0.625 3.41834767,0.625 C4.1877793,0.625 4.59714823,0.857184721 5.20541849,1.43217974 C5.5889018,1.79468472 5.73050708,1.875 6.06302386,1.875 C6.39554065,1.875 6.53714592,1.79468472 6.92062924,1.43217974 C7.52889949,0.857184721 7.93826843,0.625 8.70770006,0.625 C9.47713168,0.625 9.88650062,0.857184721 10.4947709,1.43217974 C10.8782542,1.79468472 11.0198595,1.875 11.3523763,1.875 C11.684893,1.875 11.8264983,1.79468472 12.2099816,1.43217974 C12.8182519,0.857184721 13.2276208,0.625 13.9970524,0.625 C14.7664841,0.625 15.175853,0.857184721 15.7841233,1.43217974 C16.1676066,1.79468472 16.3092119,1.875 16.6417286,1.875 C16.9742454,1.875 17.1158507,1.79468472 17.499334,1.43217974 C18.1076043,0.857184721 18.5169732,0.625 19.2864048,0.625 Z"></path>
                    </g>
                </g>
                <g id="mark-1" mask="url(#mask-4)">
                    <mask id="mask-6" fill="white">
                        <use xlink:href="#path-5"></use>
                    </mask>
                    <g id="mask"></g>
                    <rect id="Rectangle-4" fill="#2E42A5" mask="url(#mask-6)" x="0" y="0" width="10" height="8"></rect>
                    <g id="contents" mask="url(#mask-6)">
                        <g transform="translate(-3.500000, -1.250000)">
                            <g id="stripe" transform="translate(0.800000, 0.000000)">
                                <polygon id="white" fill="#FFFFFF" fill-rule="nonzero" transform="translate(7.550459, 4.851003) scale(1, -1) translate(-7.550459, -4.851003) " points="1.15138485 1.36877165 3.43654857 0.403660296 12.7441617 7.54159238 13.9495334 8.97577658 11.5058796 9.29834524 7.70952661 6.22240608 4.65385269 4.1499418"></polygon>
                                <polygon id="red" fill="#F50100" fill-rule="nonzero" transform="translate(7.490460, 5.081230) scale(1, -1) translate(-7.490460, -5.081230) " points="1.4642272 1.15304633 2.6284126 0.592975947 13.5166928 9.56948454 11.882041 9.56948454"></polygon>
                            </g>
                            <g id="stripe" transform="translate(8.300000, 5.000000) scale(-1, 1) translate(-8.300000, -5.000000) translate(0.800000, 0.000000)">
                                <polygon id="white" fill="#FFFFFF" fill-rule="nonzero" transform="translate(7.550459, 4.851003) scale(1, -1) translate(-7.550459, -4.851003) " points="1.15138485 1.36877165 3.43654857 0.403660296 12.7441617 7.54159238 13.9495334 8.97577658 11.5058796 9.29834524 7.70952661 6.22240608 4.65385269 4.1499418"></polygon>
                                <polygon id="red" fill="#F50100" fill-rule="nonzero" transform="translate(7.647437, 5.054867) scale(1, -1) translate(-7.647437, -5.054867) " points="1.22935738 1.29121061 2.39354278 0.731140232 7.02988531 4.5744499 8.40446136 5.00385366 14.0655166 9.37859358 12.4308648 9.37859358 6.77299017 5.10769142 5.27013346 4.59279031"></polygon>
                            </g>
                            <g id="cross" transform="translate(3.500000, 1.250000)">
                                <path d="M5.25,-0.25 L5.25,2.75 L11.25,2.75 L11.25,4.25 L5.25,4.25 L5.25,8.25 L3.75,8.25 L3.75,4.25 L-0.25,4.25 L-0.25,2.75 L3.75,2.75 L3.75,-0.25 L5.25,-0.25 Z" id="red" stroke="#F7FCFF" stroke-width="0.5" fill="#F50100"></path>
                            </g>
                        </g>
                    </g>
                </g>
                <g id="mark" mask="url(#mask-4)">
                    <g transform="translate(10.000000, 1.250000)">
                        <rect id="Rectangle-6" fill="#D86D00" x="2.75" y="4.61165049" width="1" height="7.88834951" rx="0.3125"></rect>
                        <g id="Group-20" stroke-width="1" fill="none">
                            <path d="M2.75267491,0.0359494148 C3.39125598,0.911706751 3.4721784,2.08771141 3.39125598,3.1412993 L2.89264036,3.10520077 C2.94410407,2.43515734 2.89744892,1.41207356 2.75267491,0.0359494148 Z" id="Path-420" stroke="#FFFFFF" stroke-width="0.15" fill="#449A01" fill-rule="nonzero"></path>
                            <path d="M3.56694599,3.36507362 L3.10703945,3.17460912 C3.40260896,2.23939786 4.28766251,1.37364013 5.76220009,0.577335935 C4.77147633,1.05071675 4.43461977,2.33422543 3.56694599,3.36507362 Z" id="Path-421" stroke="#FFFFFF" stroke-width="0.15" fill="#449A01" fill-rule="nonzero"></path>
                            <path d="M3.36027855,3.65649946 L3.11872061,3.23147207 C3.90692472,2.68343498 4.93775274,2.35029334 6.21120465,2.23204714 C5.22576725,2.51167403 4.23052306,3.19030055 3.36027855,3.65649946 Z" id="Path-422" stroke="#FFFFFF" stroke-width="0.15" fill="#449A01" fill-rule="nonzero"></path>
                            <path d="M3.05265199,3.8632782 L3.26096432,3.42197791 C4.80277629,3.90058225 5.68669473,4.54001936 5.91271965,5.34028923 C5.6092728,5.07241916 4.64472534,4.57166326 3.05265199,3.8632782 Z" id="Path-423" stroke="#FFFFFF" stroke-width="0.15" fill="#449A01" fill-rule="nonzero"></path>
                            <path d="M2.80952307,3.83108184 L3.30059889,3.7397756 C3.47059392,4.60158236 3.90886477,5.12377411 4.14069169,5.67697304 C3.27541424,5.29050014 2.83169137,4.67520307 2.80952307,3.83108184 Z" id="Path-424" stroke="#FFFFFF" stroke-width="0.15" fill="#449A01" fill-rule="nonzero"></path>
                            <path d="M2.77213347,3.42693287 L3.30170061,3.56009011 C2.43290408,4.62217047 1.14196305,5.18009048 0.631510271,5.3624757 C1.37927059,4.68803922 2.09281165,4.04285828 2.77213347,3.42693287 Z" id="Path-425" stroke="#FFFFFF" stroke-width="0.15" fill="#449A01" fill-rule="nonzero"></path>
                            <path d="M3.00720924,3.19704676 L2.92680737,3.69053997 C2.23714118,3.4801957 1.27161508,3.41908658 0.0302290493,3.50721261 C0.811891603,3.32209271 1.89230809,3.01540265 3.00720924,3.19704676 Z" id="Path-426" stroke="#FFFFFF" stroke-width="0.15" fill="#449A01" fill-rule="nonzero"></path>
                            <path d="M3.09668463,2.94452315 L2.89327543,3.38797415 C1.87498417,2.94770067 1.09372341,2.31609258 0.549493159,1.49314988 C0.601321649,1.72021401 1.74792827,2.36136814 3.09668463,2.94452315 Z" id="Path-427" stroke="#FFFFFF" stroke-width="0.15" fill="#449A01" fill-rule="nonzero"></path>
                        </g>
                        <g id="crown" stroke-width="1" fill="none" transform="translate(1.125000, 7.038835)">
                            <path d="M1.99751945,0.674009576 L1.99700132,0.675815067 L2.15007293,0.666659428 C2.40764861,0.663942744 2.66265215,0.724042497 2.91508356,0.846958689 C3.23031894,0.846958689 3.53195674,0.960689436 3.81999696,1.18815093 L3.81999696,1.27836906 L3.25518265,1.90254289 C3.14226394,2.24699704 2.94098398,2.26516759 2.78419257,2.3225476 C2.73239345,2.34150421 1.99521887,2.36364425 1.99521887,2.36364425 L1.99500132,2.36181507 L1.83156249,2.37931957 C1.19036892,2.43168462 0.820786636,2.27275906 0.722815635,1.90254289 L0.158001321,1.27836906 L0.158001321,1.18815093 C0.446041541,0.960689436 0.747679344,0.846958689 1.06291473,0.846958689 C1.37565911,0.698247369 1.68719402,0.640597665 1.99751945,0.674009576 Z" id="Combined-Shape" fill="#F50100"></path>
                            <path d="M2.128,1.05501618 L2.0219855,1.05476512 C2.03583753,1.07470615 2.04653597,1.09982543 2.05201578,1.12801659 C2.05784334,1.1579968 2.05689721,1.18696678 2.05053119,1.21164721 L2.05574917,1.20960534 L2.1,1.20489334 C2.17731986,1.20489334 2.24,1.2462744 2.24,1.29732052 C2.24,1.34836665 2.17731986,1.38974771 2.1,1.38974771 C2.08046656,1.38974771 2.06186747,1.38710665 2.04497731,1.38233593 C2.05121974,1.51070435 2.11417181,1.59099801 2.20618288,1.59099801 C2.2738114,1.59099801 2.32137396,1.5569909 2.35586216,1.48204012 L2.35586216,1.48204012 L2.45159454,1.27399168 L2.46175894,1.50691842 C2.46534285,1.58904701 2.49780972,1.62162937 2.57858267,1.62162937 C2.66128276,1.62162937 2.71937364,1.56243856 2.75745202,1.42816665 L2.75745202,1.42816665 L2.76929651,1.38895509 C2.74100105,1.40579431 2.70062086,1.41339462 2.65746469,1.40732942 C2.5808973,1.39656858 2.52458629,1.34686684 2.53169054,1.2963175 C2.53879479,1.24576815 2.60662405,1.2135132 2.68319145,1.22427404 C2.70743779,1.22768164 2.72965286,1.23499415 2.74846618,1.24500192 L2.7441443,1.23602661 L2.7441443,1.23602661 L2.73712284,1.19208303 C2.73307624,1.11486913 2.77112016,1.05010918 2.82209633,1.04743763 C2.87307249,1.04476608 2.91767727,1.1051946 2.92172388,1.1824085 C2.92336863,1.21379222 2.9180599,1.2431185 2.90775558,1.26705456 L2.91599054,1.26565959 L2.96046651,1.26715197 C3.0370339,1.27791281 3.09334491,1.32761455 3.08624066,1.37816389 C3.07913641,1.42871324 3.01130714,1.46096819 2.93473975,1.45020735 C2.90836654,1.44650083 2.88439658,1.4381743 2.8645936,1.42678444 L2.8666886,1.44104927 C2.87911567,1.59441613 2.91711905,1.66638729 2.97344053,1.67647168 C3.05012182,1.69020151 3.10834393,1.68369169 3.14899834,1.65948344 L3.14899834,1.65948344 L3.23165135,1.61026653 L3.23165135,1.69399947 C3.25763866,1.69703745 3.30222421,1.69167245 3.36322384,1.67707858 L3.36322384,1.67707858 L3.38030149,1.76584105 L3.5702865,1.57224135 C3.56691954,1.57330427 3.56354036,1.57413168 3.5601621,1.57471273 L3.53013774,1.57299677 C3.52112562,1.57024148 3.51305312,1.56553954 3.5060227,1.55923836 C3.48125725,1.61084148 3.40648675,1.61795225 3.33821736,1.58165277 C3.26994797,1.54535329 3.23403192,1.47938944 3.25799663,1.43431839 C3.28196133,1.38924734 3.35673184,1.38213657 3.42500123,1.41843605 C3.44206857,1.42751092 3.45711384,1.43843981 3.4697069,1.45043277 L3.47424964,1.45578594 L3.48268122,1.41209101 C3.50528736,1.33814965 3.56318617,1.29030699 3.61200182,1.30523143 C3.66081747,1.32015588 3.68206447,1.39219584 3.65945833,1.46613719 C3.65714258,1.47371167 3.65445648,1.48101228 3.65144773,1.4879996 L3.79369947,1.33937453 L3.83207237,1.38425264 L3.31842133,1.91599237 C3.24348043,2.06785198 3.20574194,2.1680863 3.20574194,2.20972294 C3.20574194,2.27324518 3.05554797,2.31094716 2.76241766,2.34967331 C2.51296767,2.38262875 2.21469911,2.40381431 1.98386706,2.40381431 L2.03930149,2.40184105 L2.04007237,2.40381431 L1.98386706,2.40381431 L1.98330149,2.40184105 L1.85612047,2.39998914 C1.66315719,2.39248591 1.44860926,2.37438989 1.26152176,2.34967331 C0.968391451,2.31094716 0.818197478,2.27324518 0.818197478,2.20972294 L0.81585583,2.19538985 C0.785859409,2.1622564 0.762058185,2.09702688 0.744452158,1.9997013 C0.733051555,1.97267049 0.719977278,1.94529234 0.705518093,1.91599237 L0.592085388,1.79827131 C0.591009175,1.79801672 0.589930053,1.79775998 0.588848031,1.79750111 L0.58830149,1.79484105 L0.39230149,1.59184105 L0.376420485,1.59358824 C0.335881381,1.58661571 0.295209165,1.54416579 0.277124253,1.48501271 L0.27330149,1.46884105 L0.191867057,1.38425264 L0.230239955,1.33937453 L0.273477986,1.38449606 C0.281836829,1.35434129 0.299598642,1.33174475 0.32458077,1.32410695 C0.373396422,1.30918251 0.431295224,1.35702517 0.453901365,1.43096652 L0.462332948,1.47466146 L0.462332948,1.47466146 C0.47946875,1.45731533 0.494514013,1.44638643 0.51158136,1.43731157 C0.579850749,1.40101209 0.654621254,1.40812285 0.678585958,1.45319391 C0.702550662,1.49826496 0.666634618,1.56422881 0.59836523,1.60052829 C0.566320415,1.61756682 0.532843242,1.62504099 0.503860267,1.62351443 L0.60230149,1.72484105 L0.612644372,1.67707858 C0.673644002,1.69167245 0.718229556,1.69703745 0.744216859,1.69399947 L0.744216859,1.61026653 L0.826869873,1.65948344 C0.867524286,1.68369169 0.925746394,1.69020151 1.00242768,1.67647168 C1.05874916,1.66638729 1.09675255,1.59441613 1.10917961,1.44104927 L1.11465643,1.38431733 C1.09795097,1.42302398 1.04398885,1.45136583 0.98,1.45136583 C0.902680135,1.45136583 0.84,1.40998477 0.84,1.35893864 C0.84,1.30789252 0.902680135,1.26651146 0.98,1.26651146 C1.00656631,1.26651146 1.03140435,1.27139666 1.05256549,1.27988058 L1.04362659,1.26744531 L1.04362659,1.26744531 L1.0305577,1.22490659 C1.01580438,1.14900731 1.04446522,1.0795829 1.09457348,1.06984284 C1.14468174,1.06010278 1.19726245,1.11373543 1.21201578,1.18963471 C1.21784334,1.21961493 1.21689721,1.2485849 1.21053119,1.27326534 L1.21574917,1.27122346 L1.26,1.26651146 C1.33731986,1.26651146 1.4,1.30789252 1.4,1.35893864 C1.4,1.40998477 1.33731986,1.45136583 1.26,1.45136583 C1.24805057,1.45136583 1.23645079,1.45037747 1.22537801,1.44851783 L1.21841619,1.42816665 C1.25649457,1.56243856 1.31458545,1.62162937 1.39728554,1.62162937 C1.47805849,1.62162937 1.51052536,1.58904701 1.51410927,1.50691842 L1.52427368,1.27399168 L1.62000605,1.48204012 C1.65449425,1.5569909 1.70205681,1.59099801 1.76968533,1.59099801 C1.86640856,1.59099801 1.93102018,1.50226961 1.93102018,1.36305379 L2.00248693,1.3636404 C1.97628249,1.34684393 1.96,1.32333758 1.96,1.29732052 C1.96,1.29168785 1.96076319,1.28617285 1.96222503,1.28081815 C1.96124068,1.28254658 1.95856964,1.2818719 1.95591638,1.28103927 L1.96,1.29732052 C1.96,1.34836665 1.89731986,1.38974771 1.82,1.38974771 C1.74268014,1.38974771 1.68,1.34836665 1.68,1.29732052 C1.68,1.2462744 1.74268014,1.20489334 1.82,1.20489334 C1.8461698,1.20489334 1.87066253,1.20963379 1.89161552,1.21788499 L1.88362659,1.20582719 L1.88362659,1.20582719 L1.8705577,1.16328846 C1.85922715,1.10499782 1.87350331,1.05052621 1.90343559,1.02397672 L1.90330149,0.967841049 L1.85928992,0.968187407 L1.85928992,0.42670456 C1.77572008,0.346834353 1.65567915,0.306077295 1.49664621,0.306077295 C1.24057469,0.306077295 1.1354181,0.374701185 1.07534247,0.577318365 C1.03705746,0.70644226 1.07418861,0.816648679 1.19458286,0.91952001 L1.12588933,1.0168548 C0.976441113,0.889158203 0.919762197,0.733946778 0.962769093,0.561429556 L0.983859359,0.561586722 C0.683442198,0.548191124 0.459941042,0.581713201 0.314552759,0.659803471 C0.191428785,0.72593524 0.168907751,0.893727789 0.262076368,1.18561535 L0.156404366,1.22645245 C0.0467641218,0.882960998 0.0780743706,0.649684562 0.265421823,0.549057381 C0.430504966,0.460388701 0.67109686,0.42430325 0.988394374,0.438451543 L0.98630149,0.488841049 L1.00117978,0.449651491 C1.08533952,0.257901004 1.23327935,0.182841049 1.49664621,0.182841049 C1.66517564,0.182841049 1.80188738,0.224460642 1.90486354,0.308950501 L1.904,0.253980583 L2.128,0.253980583 L2.12654515,0.286221519 C2.2233757,0.223380588 2.3451532,0.19236246 2.4906437,0.19236246 C2.7916344,0.19236246 2.94186326,0.290399951 3.01842426,0.548617372 L3.00530149,0.513841049 L3.00530149,0.500069666 C3.26971608,0.488279421 3.48086289,0.511373722 3.63943453,0.570712223 L3.72827404,0.610675504 C3.91562149,0.711302685 3.94693174,0.944579121 3.8372915,1.28807058 L3.8372915,1.28807058 L3.7316195,1.24723348 C3.82478811,0.955345912 3.80226708,0.787553363 3.67914311,0.721421594 C3.53375482,0.643331324 3.31025367,0.609809247 3.0098365,0.623204845 L3.03467961,0.623958006 C3.05479934,0.775306969 2.99537858,0.911898206 2.86140059,1.02637622 L2.86140059,1.02637622 L2.79270706,0.92904142 C2.91310131,0.826170089 2.95023245,0.715963671 2.91194745,0.586839775 C2.85187182,0.384222595 2.74671523,0.315598706 2.4906437,0.315598706 C2.33161077,0.315598706 2.21156984,0.356355763 2.128,0.436225971 L2.128,0.436225971 L2.128,1.05501618 Z M1.98130149,2.07884105 L2.00400429,2.07708898 C1.36074912,2.12013938 0.994278335,2.16475277 0.904591938,2.21092917 L0.89830149,2.21284105 L0.923656629,2.22272226 C0.937586273,2.22721131 0.953791181,2.23178364 0.972114969,2.23638331 C1.04414798,2.25446518 1.1466818,2.27244085 1.26819756,2.28849459 C1.50600018,2.31991126 1.78886489,2.34056141 2.01341311,2.3421034 C2.23507453,2.34056141 2.51793924,2.31991126 2.75574186,2.28849459 C2.87725762,2.27244085 2.97979144,2.25446518 3.05182445,2.23638331 C3.08847203,2.22718397 3.11664409,2.21809398 3.13508955,2.20956095 L3.1142115,2.21814836 C3.09717589,2.22368545 3.07860702,2.22127905 3.0585049,2.21092917 C2.9688185,2.16475277 2.60234772,2.12013938 1.95909254,2.07708898 L1.98130149,2.07884105 Z" id="Combined-Shape" fill="#FECA00" fill-rule="nonzero"></path>
                            <g id="top" transform="translate(0.000000, 0.069126)" fill="#FFFFFF" fill-rule="nonzero">
                                <path d="M1.00229157,0.319004538 L1.00131405,0.380613273 C0.504763456,0.3710746 0.219936802,0.450807797 0.147634929,0.609721976 C0.0728856346,0.774015405 0.0867852811,0.973734987 0.191524628,1.21098022 L0.141153321,1.23790403 C0.0294018735,0.984775675 0.0141403169,0.765487241 0.0975594115,0.582138231 C0.183425927,0.39340997 0.484736367,0.309062369 1.00229157,0.319004538 Z" id="Path-311"></path>
                                <path d="M1.0983652,0.865394334 L1.06965635,0.918299217 C0.961520846,0.847254922 0.907399808,0.726012878 0.907399808,0.558928229 C0.907399808,0.318793423 1.01982157,0.177976733 1.26849835,0.0816110646 C1.42720904,0.0201084936 1.64401389,0.045325087 1.91952277,0.155235354 L1.90043513,0.213163624 C1.63595223,0.107652011 1.43130409,0.0838493664 1.2871006,0.139730201 C1.05900732,0.228119477 0.963399808,0.347875063 0.963399808,0.558928229 C0.963399808,0.705553109 1.00835275,0.806256763 1.0983652,0.865394334 Z" id="Path-312"></path>
                                <path d="M3.91429157,0.380622661 L3.91331405,0.442231396 C3.41676346,0.432692722 3.1319368,0.51242592 3.05963493,0.671340099 C2.98488563,0.835633528 2.99878528,1.03535311 3.10352463,1.27259835 L3.05315332,1.29952215 C2.94140187,1.0463938 2.92614032,0.827105364 3.00955941,0.643756354 C3.09542593,0.455028093 3.39673637,0.370680492 3.91429157,0.380622661 Z" id="Path-311" transform="translate(3.435398, 0.839680) scale(-1, 1) translate(-3.435398, -0.839680) "></path>
                                <path d="M2.15096539,0.878206206 L2.12225654,0.931111089 C2.01412104,0.860066794 1.96,0.738824751 1.96,0.571740101 C1.96,0.331605295 2.07242176,0.190788605 2.32109855,0.0944229369 C2.47980923,0.0329203659 2.69661408,0.0581369593 2.97212296,0.168047226 L2.95303532,0.225975496 C2.68855242,0.120463883 2.48390429,0.0966612387 2.33970079,0.152542073 C2.11160751,0.240931349 2.016,0.360686935 2.016,0.571740101 C2.016,0.718364981 2.06095294,0.819068635 2.15096539,0.878206206 Z" id="Path-312" transform="translate(2.466061, 0.496365) scale(-1, 1) translate(-2.466061, -0.496365) "></path>
                            </g>
                        </g>
                    </g>
                </g>
            </g>
        </g>
    </g>
</svg>