<?xml version="1.0" encoding="UTF-8"?>
<svg width="20px" height="15px" viewBox="0 0 20 15" version="1.1" xmlns="http://www.w3.org/2000/svg" xmlns:xlink="http://www.w3.org/1999/xlink">
    <title>flags/M/IQ - Iraq</title>
    <defs>
        <rect id="path-1" x="0" y="0" width="20" height="15"></rect>
        <rect id="path-3" x="0" y="0" width="20" height="15"></rect>
    </defs>
    <g id="Symbols" stroke="none" stroke-width="1" fill="none" fill-rule="evenodd">
        <g id="flag">
            <mask id="mask-2" fill="white">
                <use xlink:href="#path-1"></use>
            </mask>
            <g id="mask"></g>
            <g id="contents" mask="url(#mask-2)">
                <mask id="mask-4" fill="white">
                    <use xlink:href="#path-3"></use>
                </mask>
                <use id="background" fill="#F7FCFF" xlink:href="#path-3"></use>
                <rect id="top" fill="#BF2714" mask="url(#mask-4)" x="0" y="0" width="20" height="5"></rect>
                <rect id="bottom" fill="#272727" mask="url(#mask-4)" x="0" y="10" width="20" height="5"></rect>
                <g id="mark" mask="url(#mask-4)" fill="#009C4E">
                    <g transform="translate(2.500000, 5.000000)" id="Combined-Shape">
                        <path d="M5.48673786,0.625 L5.85551153,0.950542277 L3.95882249,2.62488217 L5.91912374,2.62488217 C5.99367102,2.23953851 6.19637099,2.04686668 6.52722366,2.04686668 C6.85807632,2.04686668 7.06235878,2.23953851 7.14007103,2.62488217 L7.14007103,3.82852254 L1.56671529,3.82852254 C1.39285965,4.19284085 1.07895456,4.375 0.625,4.375 C1.14426127,4.0069171 1.21439139,3.55091826 0.835390344,3.00700348 L1.30593184,2.64694635 C1.31835469,2.88698444 1.42984804,3.00700348 1.64041188,3.00700348 C1.85097573,3.00700348 2.12285571,3.05224802 2.45605184,3.14273711 L2.45605184,2.64694635 L2.86413207,2.46480413 L2.86413207,3.14273711 L6.63294039,3.14273711 L6.63294039,2.64694635 C6.65561588,2.5573645 6.62037697,2.51257358 6.52722366,2.51257358 C6.43407035,2.51257358 6.38189605,2.5573645 6.37070076,2.64694635 L6.37070076,2.87906953 L3.38000721,2.87906953 L3.38000721,2.48475828 L5.48673786,0.625 Z M13.1587752,0.758984641 L13.6717903,0.923206715 L13.6717903,3.05331496 L14.0693562,3.05331496 L14.375,3.81441581 L13.1587752,3.81441581 L13.1587752,0.758984641 Z M7.49353065,0.758984641 L8.0065458,0.923206715 L8.0065458,3.05331496 L8.40411172,3.05331496 L8.70975549,3.81441581 L7.49353065,3.81441581 L7.49353065,0.758984641 Z M12.5634288,0.790602823 L12.5602874,3.78926974 L9.85333885,3.78926974 C9.85333885,3.05641227 10.1125184,2.67211504 10.6308774,2.63637806 L10.6308774,2.63637806 L10.6308774,2.3848527 L11.0351059,2.12468891 L11.0351059,3.05120651 L11.3919679,3.05120651 L11.3919679,1.71675283 L11.9237214,1.41018045 L11.9237214,3.05120651 L12.246542,3.05120651 L12.246542,1.00509321 L12.5634288,0.790602823 Z M11.8248456,0.888995751 C11.7434053,1.04798918 11.5339811,1.09366999 11.196573,1.02603816 C11.1049472,1.1468372 10.9200791,1.1468372 10.6419687,1.02603816 L10.6419687,1.02603816 Z"></path>
                    </g>
                </g>
            </g>
        </g>
    </g>
</svg>