<?xml version="1.0" encoding="UTF-8"?>
<svg width="20px" height="15px" viewBox="0 0 20 15" version="1.1" xmlns="http://www.w3.org/2000/svg" xmlns:xlink="http://www.w3.org/1999/xlink">
    <title>flags/M/IR - Iran</title>
    <defs>
        <rect id="path-1" x="0" y="0" width="20" height="15"></rect>
        <rect id="path-3" x="0" y="0" width="20" height="15"></rect>
    </defs>
    <g id="Symbols" stroke="none" stroke-width="1" fill="none" fill-rule="evenodd">
        <g id="flag">
            <mask id="mask-2" fill="white">
                <use xlink:href="#path-1"></use>
            </mask>
            <g id="mask"></g>
            <g id="contents" mask="url(#mask-2)">
                <mask id="mask-4" fill="white">
                    <use xlink:href="#path-3"></use>
                </mask>
                <use id="background" fill="#F7FCFF" xlink:href="#path-3"></use>
                <rect id="top" fill="#5EAA22" mask="url(#mask-4)" x="0" y="0" width="20" height="5"></rect>
                <rect id="bottom" fill="#E31D1C" mask="url(#mask-4)" x="0" y="10" width="20" height="5"></rect>
                <g id="mark" mask="url(#mask-4)">
                    <g transform="translate(-2.500000, 2.500000)">
                        <g id="bottom" stroke-width="1" fill="none" transform="translate(0.000000, 8.250008)">
                            <g id="pattern" stroke="#F7FCFF" stroke-width="0.625">
                                <line x1="2.73289778" y1="0.104331617" x2="1.31161642" y2="0.104331617" id="Path-80"></line>
                            </g>
                            <g id="pattern" transform="translate(2.439024, 0.000000)" stroke="#F7FCFF" stroke-width="0.625">
                                <polyline id="Path-78" points="0.272400094 0.653806523 0.0368143717 0.653806523 0.0368143717 0.347665613 0.532833109 0.347665613 0.532833109 0.0968748304 0.532833109 0.653806523 0.757293177 0.653806523 0.757293177 0.0968748304"></polyline>
                                <path d="M1.00981971,0.130002856 C1.00981971,0.150523506 1.00981971,0.325907079 1.00981971,0.656153573 L0.776829975,0.656153573" id="Path-79"></path>
                                <line x1="2.73289778" y1="0.104331617" x2="1.31161642" y2="0.104331617" id="Path-80"></line>
                                <polyline id="Path-82" points="1.29696697 0.667050134 1.29696697 0.340797268 1.75963349 0.340797268 1.75963349 0.656095717 2.22715117 0.656095717 2.22715117 0.341146979 1.98459625 0.341146979"></polyline>
                            </g>
                            <g id="pattern" transform="translate(4.921603, 0.000000)" stroke="#F7FCFF" stroke-width="0.625">
                                <polyline id="Path-78" points="0.272400094 0.653806523 0.0368143717 0.653806523 0.0368143717 0.347665613 0.532833109 0.347665613 0.532833109 0.0968748304 0.532833109 0.653806523 0.757293177 0.653806523 0.757293177 0.0968748304"></polyline>
                                <path d="M1.00981971,0.130002856 C1.00981971,0.150523506 1.00981971,0.325907079 1.00981971,0.656153573 L0.776829975,0.656153573" id="Path-79"></path>
                                <line x1="2.73289778" y1="0.104331617" x2="1.31161642" y2="0.104331617" id="Path-80"></line>
                                <polyline id="Path-82" points="1.29696697 0.667050134 1.29696697 0.340797268 1.75963349 0.340797268 1.75963349 0.656095717 2.22715117 0.656095717 2.22715117 0.341146979 1.98459625 0.341146979"></polyline>
                            </g>
                            <g id="pattern" transform="translate(7.360627, 0.000000)" stroke="#F7FCFF" stroke-width="0.625">
                                <polyline id="Path-78" points="0.272400094 0.653806523 0.0368143717 0.653806523 0.0368143717 0.347665613 0.532833109 0.347665613 0.532833109 0.0968748304 0.532833109 0.653806523 0.757293177 0.653806523 0.757293177 0.0968748304"></polyline>
                                <path d="M1.00981971,0.130002856 C1.00981971,0.150523506 1.00981971,0.325907079 1.00981971,0.656153573 L0.776829975,0.656153573" id="Path-79"></path>
                                <line x1="2.73289778" y1="0.104331617" x2="1.31161642" y2="0.104331617" id="Path-80"></line>
                                <polyline id="Path-82" points="1.29696697 0.667050134 1.29696697 0.340797268 1.75963349 0.340797268 1.75963349 0.656095717 2.22715117 0.656095717 2.22715117 0.341146979 1.98459625 0.341146979"></polyline>
                            </g>
                            <g id="pattern" transform="translate(9.799652, 0.000000)" stroke="#F7FCFF" stroke-width="0.625">
                                <polyline id="Path-78" points="0.272400094 0.653806523 0.0368143717 0.653806523 0.0368143717 0.347665613 0.532833109 0.347665613 0.532833109 0.0968748304 0.532833109 0.653806523 0.757293177 0.653806523 0.757293177 0.0968748304"></polyline>
                                <path d="M1.00981971,0.130002856 C1.00981971,0.150523506 1.00981971,0.325907079 1.00981971,0.656153573 L0.776829975,0.656153573" id="Path-79"></path>
                                <line x1="2.73289778" y1="0.104331617" x2="1.31161642" y2="0.104331617" id="Path-80"></line>
                                <polyline id="Path-82" points="1.29696697 0.667050134 1.29696697 0.340797268 1.75963349 0.340797268 1.75963349 0.656095717 2.22715117 0.656095717 2.22715117 0.341146979 1.98459625 0.341146979"></polyline>
                            </g>
                            <g id="pattern" transform="translate(12.282230, 0.000000)" stroke="#F7FCFF" stroke-width="0.625">
                                <polyline id="Path-78" points="0.272400094 0.653806523 0.0368143717 0.653806523 0.0368143717 0.347665613 0.532833109 0.347665613 0.532833109 0.0968748304 0.532833109 0.653806523 0.757293177 0.653806523 0.757293177 0.0968748304"></polyline>
                                <path d="M1.00981971,0.130002856 C1.00981971,0.150523506 1.00981971,0.325907079 1.00981971,0.656153573 L0.776829975,0.656153573" id="Path-79"></path>
                                <line x1="2.73289778" y1="0.104331617" x2="1.31161642" y2="0.104331617" id="Path-80"></line>
                                <polyline id="Path-82" points="1.29696697 0.667050134 1.29696697 0.340797268 1.75963349 0.340797268 1.75963349 0.656095717 2.22715117 0.656095717 2.22715117 0.341146979 1.98459625 0.341146979"></polyline>
                            </g>
                            <g id="pattern" transform="translate(14.764808, 0.000000)" stroke="#F7FCFF" stroke-width="0.625">
                                <polyline id="Path-78" points="0.272400094 0.653806523 0.0368143717 0.653806523 0.0368143717 0.347665613 0.532833109 0.347665613 0.532833109 0.0968748304 0.532833109 0.653806523 0.757293177 0.653806523 0.757293177 0.0968748304"></polyline>
                                <path d="M1.00981971,0.130002856 C1.00981971,0.150523506 1.00981971,0.325907079 1.00981971,0.656153573 L0.776829975,0.656153573" id="Path-79"></path>
                                <line x1="2.73289778" y1="0.104331617" x2="1.31161642" y2="0.104331617" id="Path-80"></line>
                                <polyline id="Path-82" points="1.29696697 0.667050134 1.29696697 0.340797268 1.75963349 0.340797268 1.75963349 0.656095717 2.22715117 0.656095717 2.22715117 0.341146979 1.98459625 0.341146979"></polyline>
                            </g>
                            <g id="pattern" transform="translate(17.247387, 0.000000)" stroke="#F7FCFF" stroke-width="0.625">
                                <polyline id="Path-78" points="0.272400094 0.653806523 0.0368143717 0.653806523 0.0368143717 0.347665613 0.532833109 0.347665613 0.532833109 0.0968748304 0.532833109 0.653806523 0.757293177 0.653806523 0.757293177 0.0968748304"></polyline>
                                <path d="M1.00981971,0.130002856 C1.00981971,0.150523506 1.00981971,0.325907079 1.00981971,0.656153573 L0.776829975,0.656153573" id="Path-79"></path>
                                <line x1="2.73289778" y1="0.104331617" x2="1.31161642" y2="0.104331617" id="Path-80"></line>
                                <polyline id="Path-82" points="1.29696697 0.667050134 1.29696697 0.340797268 1.75963349 0.340797268 1.75963349 0.656095717 2.22715117 0.656095717 2.22715117 0.341146979 1.98459625 0.341146979"></polyline>
                            </g>
                            <g id="pattern" transform="translate(19.686411, 0.000000)" stroke="#F7FCFF" stroke-width="0.625">
                                <polyline id="Path-78" points="0.272400094 0.653806523 0.0368143717 0.653806523 0.0368143717 0.347665613 0.532833109 0.347665613 0.532833109 0.0968748304 0.532833109 0.653806523 0.757293177 0.653806523 0.757293177 0.0968748304"></polyline>
                                <path d="M1.00981971,0.130002856 C1.00981971,0.150523506 1.00981971,0.325907079 1.00981971,0.656153573 L0.776829975,0.656153573" id="Path-79"></path>
                                <line x1="2.73289778" y1="0.104331617" x2="1.31161642" y2="0.104331617" id="Path-80"></line>
                                <polyline id="Path-82" points="1.29696697 0.667050134 1.29696697 0.340797268 1.75963349 0.340797268 1.75963349 0.656095717 2.22715117 0.656095717 2.22715117 0.341146979 1.98459625 0.341146979"></polyline>
                            </g>
                            <g id="pattern" transform="translate(22.256098, 0.000000)" stroke="#F7FCFF" stroke-width="0.625">
                                <polyline id="Path-78" points="0.272400094 0.653806523 0.0368143717 0.653806523 0.0368143717 0.347665613 0.532833109 0.347665613 0.532833109 0.0968748304 0.532833109 0.653806523 0.757293177 0.653806523 0.757293177 0.0968748304"></polyline>
                            </g>
                        </g>
                        <g id="top" stroke-width="1" fill="none" transform="translate(0.000000, 0.625000)">
                            <g id="pattern" stroke="#F7FCFF" stroke-width="0.625">
                                <line x1="2.73289778" y1="0.104331617" x2="1.31161642" y2="0.104331617" id="Path-80"></line>
                            </g>
                            <g id="pattern" transform="translate(2.439024, 0.000000)" stroke="#F7FCFF" stroke-width="0.625">
                                <polyline id="Path-78" points="0.272400094 0.653806523 0.0368143717 0.653806523 0.0368143717 0.347665613 0.532833109 0.347665613 0.532833109 0.0968748304 0.532833109 0.653806523 0.757293177 0.653806523 0.757293177 0.0968748304"></polyline>
                                <path d="M1.00981971,0.130002856 C1.00981971,0.150523506 1.00981971,0.325907079 1.00981971,0.656153573 L0.776829975,0.656153573" id="Path-79"></path>
                                <line x1="2.73289778" y1="0.104331617" x2="1.31161642" y2="0.104331617" id="Path-80"></line>
                                <polyline id="Path-82" points="1.29696697 0.667050134 1.29696697 0.340797268 1.75963349 0.340797268 1.75963349 0.656095717 2.22715117 0.656095717 2.22715117 0.341146979 1.98459625 0.341146979"></polyline>
                            </g>
                            <g id="pattern" transform="translate(4.921603, 0.000000)" stroke="#F7FCFF" stroke-width="0.625">
                                <polyline id="Path-78" points="0.272400094 0.653806523 0.0368143717 0.653806523 0.0368143717 0.347665613 0.532833109 0.347665613 0.532833109 0.0968748304 0.532833109 0.653806523 0.757293177 0.653806523 0.757293177 0.0968748304"></polyline>
                                <path d="M1.00981971,0.130002856 C1.00981971,0.150523506 1.00981971,0.325907079 1.00981971,0.656153573 L0.776829975,0.656153573" id="Path-79"></path>
                                <line x1="2.73289778" y1="0.104331617" x2="1.31161642" y2="0.104331617" id="Path-80"></line>
                                <polyline id="Path-82" points="1.29696697 0.667050134 1.29696697 0.340797268 1.75963349 0.340797268 1.75963349 0.656095717 2.22715117 0.656095717 2.22715117 0.341146979 1.98459625 0.341146979"></polyline>
                            </g>
                            <g id="pattern" transform="translate(7.360627, 0.000000)" stroke="#F7FCFF" stroke-width="0.625">
                                <polyline id="Path-78" points="0.272400094 0.653806523 0.0368143717 0.653806523 0.0368143717 0.347665613 0.532833109 0.347665613 0.532833109 0.0968748304 0.532833109 0.653806523 0.757293177 0.653806523 0.757293177 0.0968748304"></polyline>
                                <path d="M1.00981971,0.130002856 C1.00981971,0.150523506 1.00981971,0.325907079 1.00981971,0.656153573 L0.776829975,0.656153573" id="Path-79"></path>
                                <line x1="2.73289778" y1="0.104331617" x2="1.31161642" y2="0.104331617" id="Path-80"></line>
                                <polyline id="Path-82" points="1.29696697 0.667050134 1.29696697 0.340797268 1.75963349 0.340797268 1.75963349 0.656095717 2.22715117 0.656095717 2.22715117 0.341146979 1.98459625 0.341146979"></polyline>
                            </g>
                            <g id="pattern" transform="translate(9.799652, 0.000000)" stroke="#F7FCFF" stroke-width="0.625">
                                <polyline id="Path-78" points="0.272400094 0.653806523 0.0368143717 0.653806523 0.0368143717 0.347665613 0.532833109 0.347665613 0.532833109 0.0968748304 0.532833109 0.653806523 0.757293177 0.653806523 0.757293177 0.0968748304"></polyline>
                                <path d="M1.00981971,0.130002856 C1.00981971,0.150523506 1.00981971,0.325907079 1.00981971,0.656153573 L0.776829975,0.656153573" id="Path-79"></path>
                                <line x1="2.73289778" y1="0.104331617" x2="1.31161642" y2="0.104331617" id="Path-80"></line>
                                <polyline id="Path-82" points="1.29696697 0.667050134 1.29696697 0.340797268 1.75963349 0.340797268 1.75963349 0.656095717 2.22715117 0.656095717 2.22715117 0.341146979 1.98459625 0.341146979"></polyline>
                            </g>
                            <g id="pattern" transform="translate(12.282230, 0.000000)" stroke="#F7FCFF" stroke-width="0.625">
                                <polyline id="Path-78" points="0.272400094 0.653806523 0.0368143717 0.653806523 0.0368143717 0.347665613 0.532833109 0.347665613 0.532833109 0.0968748304 0.532833109 0.653806523 0.757293177 0.653806523 0.757293177 0.0968748304"></polyline>
                                <path d="M1.00981971,0.130002856 C1.00981971,0.150523506 1.00981971,0.325907079 1.00981971,0.656153573 L0.776829975,0.656153573" id="Path-79"></path>
                                <line x1="2.73289778" y1="0.104331617" x2="1.31161642" y2="0.104331617" id="Path-80"></line>
                                <polyline id="Path-82" points="1.29696697 0.667050134 1.29696697 0.340797268 1.75963349 0.340797268 1.75963349 0.656095717 2.22715117 0.656095717 2.22715117 0.341146979 1.98459625 0.341146979"></polyline>
                            </g>
                            <g id="pattern" transform="translate(14.764808, 0.000000)" stroke="#F7FCFF" stroke-width="0.625">
                                <polyline id="Path-78" points="0.272400094 0.653806523 0.0368143717 0.653806523 0.0368143717 0.347665613 0.532833109 0.347665613 0.532833109 0.0968748304 0.532833109 0.653806523 0.757293177 0.653806523 0.757293177 0.0968748304"></polyline>
                                <path d="M1.00981971,0.130002856 C1.00981971,0.150523506 1.00981971,0.325907079 1.00981971,0.656153573 L0.776829975,0.656153573" id="Path-79"></path>
                                <line x1="2.73289778" y1="0.104331617" x2="1.31161642" y2="0.104331617" id="Path-80"></line>
                                <polyline id="Path-82" points="1.29696697 0.667050134 1.29696697 0.340797268 1.75963349 0.340797268 1.75963349 0.656095717 2.22715117 0.656095717 2.22715117 0.341146979 1.98459625 0.341146979"></polyline>
                            </g>
                            <g id="pattern" transform="translate(17.247387, 0.000000)" stroke="#F7FCFF" stroke-width="0.625">
                                <polyline id="Path-78" points="0.272400094 0.653806523 0.0368143717 0.653806523 0.0368143717 0.347665613 0.532833109 0.347665613 0.532833109 0.0968748304 0.532833109 0.653806523 0.757293177 0.653806523 0.757293177 0.0968748304"></polyline>
                                <path d="M1.00981971,0.130002856 C1.00981971,0.150523506 1.00981971,0.325907079 1.00981971,0.656153573 L0.776829975,0.656153573" id="Path-79"></path>
                                <line x1="2.73289778" y1="0.104331617" x2="1.31161642" y2="0.104331617" id="Path-80"></line>
                                <polyline id="Path-82" points="1.29696697 0.667050134 1.29696697 0.340797268 1.75963349 0.340797268 1.75963349 0.656095717 2.22715117 0.656095717 2.22715117 0.341146979 1.98459625 0.341146979"></polyline>
                            </g>
                            <g id="pattern" transform="translate(19.686411, 0.000000)" stroke="#F7FCFF" stroke-width="0.625">
                                <polyline id="Path-78" points="0.272400094 0.653806523 0.0368143717 0.653806523 0.0368143717 0.347665613 0.532833109 0.347665613 0.532833109 0.0968748304 0.532833109 0.653806523 0.757293177 0.653806523 0.757293177 0.0968748304"></polyline>
                                <path d="M1.00981971,0.130002856 C1.00981971,0.150523506 1.00981971,0.325907079 1.00981971,0.656153573 L0.776829975,0.656153573" id="Path-79"></path>
                                <line x1="2.73289778" y1="0.104331617" x2="1.31161642" y2="0.104331617" id="Path-80"></line>
                                <polyline id="Path-82" points="1.29696697 0.667050134 1.29696697 0.340797268 1.75963349 0.340797268 1.75963349 0.656095717 2.22715117 0.656095717 2.22715117 0.341146979 1.98459625 0.341146979"></polyline>
                            </g>
                            <g id="pattern" transform="translate(22.256098, 0.000000)" stroke="#F7FCFF" stroke-width="0.625">
                                <polyline id="Path-78" points="0.272400094 0.653806523 0.0368143717 0.653806523 0.0368143717 0.347665613 0.532833109 0.347665613 0.532833109 0.0968748304 0.532833109 0.653806523 0.757293177 0.653806523 0.757293177 0.0968748304"></polyline>
                            </g>
                        </g>
                        <path d="M12.8348364,3.00657577 C13.4502826,3.66970169 13.7386196,4.37117378 13.6998473,5.11099202 C13.6691891,5.69598614 13.3600639,6.30334248 12.7724717,6.93306102 C12.9661578,6.97578574 13.2246541,7.0281448 13.5755231,7.09741821 C13.5925407,7.18563787 13.1819776,7.07117709 12.4370504,7.17962172 L12.5433029,7.1661599 C12.4502755,7.25623778 12.3516483,7.34676536 12.2474214,7.43774262 L12.2012391,7.37825 L12.1546077,7.43774262 C12.0507516,7.34708912 11.9524556,7.25688211 11.8597195,7.1671216 L11.9649786,7.17962172 C11.2200515,7.07117709 10.8094884,7.18563787 10.826506,7.09741821 L11.1971566,7.02351499 C11.3696424,6.98864586 11.5120024,6.95894537 11.6307389,6.93268058 C11.0419652,6.30334248 10.73284,5.69598614 10.7021817,5.11099202 C10.6634095,4.37117378 10.9517465,3.66970169 11.5671927,3.00657577 C11.3431869,3.31129423 11.2541887,3.90261027 11.3001982,4.78052389 C11.3239056,5.23288879 11.5021575,5.90602448 11.7266923,6.30255479 L11.726372,3.078125 L12.663872,3.078125 L12.6637409,6.33016581 C12.8884892,5.95972483 13.061667,5.32793641 13.0857122,4.86912628 C13.1317217,3.99121267 13.0480965,3.37036249 12.8348364,3.00657577 Z M11.1864825,3.03125 C10.5983871,3.34633552 10.3043395,3.94343748 10.3043395,4.8225559 C10.3043395,5.70167432 10.4569864,6.33158599 10.7622802,6.71229091 C10.0275862,6.22434802 9.66023911,5.60995981 9.66023911,4.86912628 C9.66023911,4.12829275 10.1689869,3.51566733 11.1864825,3.03125 Z M13.2839721,3.03125 C14.3005136,3.47478271 14.8087843,4.06696583 14.8087843,4.80779936 C14.8087843,5.54863289 14.4419143,6.1834634 13.7081743,6.71229091 C14.0134682,6.33158599 14.1661151,5.70167432 14.1661151,4.8225559 C14.1661151,3.94343748 13.8720675,3.34633552 13.2839721,3.03125 Z M12.71777,2.65625 L12.71777,2.84375 C12.517594,2.9375 12.32886,2.984375 12.1515679,2.984375 C11.9742759,2.984375 11.8000599,2.9375 11.6289199,2.84375 L11.6289199,2.65625 C11.8069737,2.75 11.9871208,2.796875 12.1693613,2.796875 C12.3516018,2.796875 12.5344047,2.75 12.71777,2.65625 Z" id="Combined-Shape" fill="#E31D1C"></path>
                    </g>
                </g>
            </g>
        </g>
    </g>
</svg>