<?xml version="1.0" encoding="UTF-8"?>
<svg width="20px" height="15px" viewBox="0 0 20 15" version="1.1" xmlns="http://www.w3.org/2000/svg" xmlns:xlink="http://www.w3.org/1999/xlink">
    <title>flags/M/KG - Kyrgyzstan</title>
    <defs>
        <rect id="path-1" x="0" y="0" width="20" height="15"></rect>
        <rect id="path-3" x="0" y="0" width="20" height="15"></rect>
    </defs>
    <g id="Symbols" stroke="none" stroke-width="1" fill="none" fill-rule="evenodd">
        <g id="flag">
            <mask id="mask-2" fill="white">
                <use xlink:href="#path-1"></use>
            </mask>
            <g id="mask"></g>
            <g id="contents" mask="url(#mask-2)">
                <mask id="mask-4" fill="white">
                    <use xlink:href="#path-3"></use>
                </mask>
                <use id="background" fill="#C51918" xlink:href="#path-3"></use>
                <g id="mark" mask="url(#mask-4)" fill="#FFDC17">
                    <g transform="translate(5.000000, 2.500000)" id="sun">
                        <path d="M4.99326665,2.84217094e-14 L5.23153632,1.25769288 C5.36421681,1.26612767 5.49501435,1.28142702 5.62357174,1.30323666 L6.14706995,0.133764264 L6.08698534,1.41256333 C6.21318327,1.45097094 6.33653806,1.49582465 6.45665928,1.54673721 L7.23867142,0.52784579 L6.88147785,1.75961605 C6.99469072,1.82566238 7.10408825,1.89745294 7.20926332,1.97458392 L8.20922254,1.16099954 L7.57436887,2.27976631 C7.66866626,2.36934043 7.75824254,2.46376502 7.8426903,2.56263596 L9.00640064,1.99909204 L8.12765302,2.94289519 C8.19874515,3.05159765 8.26425362,3.1642255 8.32377545,3.28037907 L9.58722965,2.99694149 L8.51235263,3.71546019 C8.55581012,3.83665776 8.59309194,3.96075914 8.62382254,4.08739182 L9.92039693,4.10075358 L8.70556225,4.55410752 C8.72007567,4.68688695 8.72752273,4.82176921 8.72752273,4.95837669 L8.727,4.94 L9.98794133,5.25102151 L8.69945433,5.4150521 C8.68351783,5.5437688 8.66093188,5.67044539 8.63204774,5.79473349 L9.78622154,6.38573404 L8.49448389,6.25003631 C8.44896993,6.37151922 8.39722113,6.48999534 8.33962318,6.60508212 L9.3261123,7.44371852 L8.09958645,7.01613898 C8.02740508,7.12327955 7.94974711,7.22648188 7.86700956,7.32535217 L8.63241823,8.36793874 L7.53786039,7.67120632 C7.44340282,7.75856433 7.3443779,7.84112663 7.24117985,7.91850222 L7.74253656,9.10856975 L6.84116208,8.18032231 C6.72841844,8.24423052 6.61199724,8.30248458 6.49229115,8.35469499 L6.70444104,9.62568393 L6.04321719,8.51721858 C5.91930108,8.55328108 5.79271472,8.58314944 5.66382207,8.60646266 L5.57409566,9.89140352 L5.18832943,8.66156071 C5.12224688,8.66500804 5.05570962,8.66675339 4.98876136,8.66675339 C4.9248442,8.66675339 4.86130165,8.6651625 4.79817176,8.66201847 L4.41243764,9.89140352 L4.32215679,8.60798215 C4.19295423,8.58491834 4.06605748,8.55527019 3.94183226,8.51940047 L3.28209226,9.62568393 L3.49328591,8.35819665 C3.37289768,8.30602549 3.25581484,8.24774778 3.14243536,8.18375825 L2.24399674,9.10856975 L2.7439457,7.92418763 C2.63916459,7.84603861 2.5386587,7.76255381 2.44283821,7.67414009 L1.35411507,8.36793874 L2.11468558,7.33032935 C2.03090217,7.23056228 1.95229935,7.12636446 1.87928687,7.01814229 L0.660421002,7.44371852 L1.64087641,6.61101684 C1.58224062,6.4943823 1.52961774,6.3742528 1.48341044,6.25102775 L0.200311766,6.38573404 L1.34641301,5.79875946 C1.31700398,5.67285815 1.29405919,5.54450003 1.27794419,5.4140477 L-0.00140803268,5.25102151 L1.25003445,4.94228714 C1.25060182,4.80980125 1.25817355,4.67895527 1.27240132,4.55009468 L0.0661363741,4.10075358 L1.35370019,4.08739182 C1.38485254,3.95902123 1.42273715,3.8332519 1.46696282,3.71047187 L0.399303649,2.99694149 L1.65478761,3.27835045 C1.71495633,3.16111335 1.78122581,3.04747296 1.85318126,2.93784071 L0.980132659,1.99909204 L2.13652022,2.5606613 C2.22230369,2.46036778 2.31336787,2.36465774 2.40928673,2.27395377 L1.77731076,1.16099954 L2.7727219,1.97131637 C2.87901777,1.89360426 2.98961094,1.82134044 3.10408256,1.75494039 L2.74786188,0.52784579 L3.52700164,1.54414204 C3.6481203,1.49306163 3.7725137,1.44813654 3.8997827,1.40976265 L3.83946335,0.133764264 L4.36322943,1.30167454 C4.491719,1.28020751 4.62243403,1.26524155 4.75501882,1.25712946 L4.99326665,2.84217094e-14 Z M4.96626023,2.13533658 C3.40052879,2.13533658 2.13125267,3.39429738 2.13125267,4.94730422 C2.13125267,6.50031107 3.40052879,7.75927186 4.96626023,7.75927186 C6.53199168,7.75927186 7.8012678,6.50031107 7.8012678,4.94730422 C7.8012678,3.39429738 6.53199168,2.13533658 4.96626023,2.13533658 Z M5.70145665,7.01194052 L5.57800094,7.0530994 C5.38956685,7.10727692 5.19048549,7.13629997 4.98462543,7.13629997 C4.66758522,7.13629997 4.36662296,7.06746208 4.09586985,6.94391748 C4.10373697,6.20443266 4.35324686,5.54445311 4.84361148,4.96035182 C5.25470388,5.48913274 5.53846945,6.22345303 5.70145665,7.01194052 Z M6.16653035,6.77958959 L6.10749276,6.81897201 C6.08659408,6.8318511 6.06545757,6.84438144 6.04409135,6.85655492 L6.0629421,6.94868083 C5.90004665,6.07542394 5.5744287,5.39202992 5.11453906,4.84990658 L5.22212619,4.76897834 C5.23612426,4.75842339 5.25037875,4.74788006 5.26488897,4.73735879 C5.83328184,5.38946566 6.19071671,5.94883834 6.16653035,6.77958959 Z M4.572,4.706 L4.6199954,4.74669289 C4.09797823,5.3408847 3.81232102,6.01082021 3.76352263,6.75398544 C3.70038896,6.71088136 3.6385667,6.66279701 3.57957409,6.61154073 C3.79424816,5.75105533 4.16404438,5.05652596 4.70594405,4.58004685 L4.572,4.706 Z M5.58484329,4.60183942 L5.48956377,4.55760716 C6.2481766,4.86482662 6.6770673,5.71456585 6.70295746,6.27543715 C6.64148492,6.35645789 6.57509325,6.43326633 6.50364839,6.50504046 C6.46269488,5.76836259 6.14829504,5.20693205 5.58484329,4.60183942 Z M4.312,4.597 L4.2148368,4.69366149 C3.79566789,5.12473281 3.47929797,5.61882156 3.28054641,6.29093673 C3.26347761,6.27074609 3.24746154,6.24892238 3.23185406,6.22678988 C3.26980517,5.6682598 3.63473689,4.86855795 4.37445188,4.56899165 L4.312,4.597 Z M6.95280526,4.14319611 C7.06546364,4.4037555 7.12789545,4.69110186 7.12789545,4.99302995 C7.12789545,5.30340358 7.0619221,5.59836831 6.94323378,5.86466577 L6.97185959,5.97299666 C6.84097704,5.40968453 6.51045983,4.81964091 5.71334318,4.47030712 C6.07110576,4.29324574 6.52213251,4.15768024 7.05863082,4.13518323 Z M3.01272632,4.15586703 C3.50367153,4.21132105 3.89121822,4.33083714 4.18158473,4.46911835 C3.43985764,4.78416274 3.14844748,5.29063623 3.00180111,5.80723429 C2.89839118,5.55687915 2.8413554,5.28161526 2.8413554,4.99302995 C2.8413554,4.73570487 2.88670392,4.48897151 2.96984514,4.26038569 Z M4.98462543,2.84975993 C5.58284254,2.84975993 6.123817,3.09484482 6.51261691,3.49008272 C5.89982646,3.560833 5.38142116,3.71417166 4.96045096,3.95263861 C4.5851784,3.737325 4.07798735,3.59172923 3.44008283,3.508759 C3.82885866,3.10241782 4.37723634,2.84975993 4.98462543,2.84975993 Z"></path>
                    </g>
                </g>
            </g>
        </g>
    </g>
</svg>