<?xml version="1.0" encoding="UTF-8"?>
<svg width="20px" height="15px" viewBox="0 0 20 15" version="1.1" xmlns="http://www.w3.org/2000/svg" xmlns:xlink="http://www.w3.org/1999/xlink">
    <title>flags/M/KI -  Kiribati</title>
    <defs>
        <rect id="path-1" x="0" y="0" width="20" height="15"></rect>
        <rect id="path-3" x="0" y="0" width="20" height="15"></rect>
        <path d="M0.129978954,1.55368597 L1.76425813,0.890441413 C2.00247666,0.79376445 2.26921209,0.794941771 2.50656793,0.893717834 L4.77578637,1.83805718 C5.03253361,1.94490301 5.32265894,1.93719993 5.57337475,1.81688052 L7.40375548,0.938474271 C7.66628109,0.812487298 7.97133835,0.810248487 8.23568481,0.932368753 L10.1528384,1.81803715 C10.4111161,1.93735387 10.70859,1.93808338 10.9674499,1.82003486 L12.9291623,0.925430275 C13.1879403,0.807419094 13.4853124,0.808109122 13.7435399,0.927319972 L15.6803304,1.82144006 C15.9345115,1.93878283 16.2268339,1.94137292 16.4830542,1.82855251 L18.5993645,0.896686667 C18.8284889,0.795797299 19.087613,0.786773559 19.3232006,0.871479793 L21.2205735,1.55368597 L21.2205735,1.55368597 L21.2205735,7.81221489 L0.0743723692,7.81221489 L0.129978954,1.55368597 Z" id="path-5"></path>
    </defs>
    <g id="Symbols" stroke="none" stroke-width="1" fill="none" fill-rule="evenodd">
        <g id="flag">
            <mask id="mask-2" fill="white">
                <use xlink:href="#path-1"></use>
            </mask>
            <g id="mask"></g>
            <g id="contents" mask="url(#mask-2)">
                <mask id="mask-4" fill="white">
                    <use xlink:href="#path-3"></use>
                </mask>
                <use id="background" fill="#E31D1C" xlink:href="#path-3"></use>
                <g id="mark" mask="url(#mask-4)">
                    <g transform="translate(-0.625000, 1.250000)">
                        <path d="M10.4881974,3.16611842 L10.7171047,3.80953876 L11.0581618,3.21699925 L11.1675619,3.89062035 L11.609807,3.36800637 L11.5961838,4.0501775 L12.1254027,3.6142863 L11.9891941,4.28308192 L12.5883774,3.9479234 L12.3339612,4.58184787 L12.9838505,4.3581943 L12.6194038,4.93687276 L13.2991113,4.83191254 L12.8363478,5.33674579 L13.524027,5.35385244 L12.9778202,5.76861473 L13.6513686,5.90723843 L13.0392742,6.21859895 L13.6770433,6.47428421 L13.0187344,6.67223558 L13.6002259,7.03676447 L12.9168611,7.11494437 L13.4233853,7.57660063 L12.7369285,7.5324963 L13.1522054,8.07644192 L12.4847199,7.9114709 L12.7954021,8.52022303 L12.1683414,8.23968762 L12.3644433,8.89368045 L11.7979617,8.50659731 L11.8731804,9.18481097 L11.3854851,8.70362125 L11.337403,9.38425741 L10.9441689,8.82442696 L10.7743315,9.4856094 L10.4881974,8.86513162 L10.2020634,9.4856094 L10.0322259,8.82442696 L9.63899183,9.38425741 L9.59090977,8.70362125 L9.10321446,9.18481097 L9.17843316,8.50659731 L8.61195158,8.89368045 L8.80805344,8.23968762 L8.18099279,8.52022303 L8.49167494,7.9114709 L7.82418945,8.07644192 L8.23946631,7.5324963 L7.55300952,7.57660063 L8.05953375,7.11494437 L7.37616895,7.03676447 L7.95766044,6.67223558 L7.29935153,6.47428421 L7.93712067,6.21859895 L7.32502624,5.90723843 L7.99857461,5.76861473 L7.45236788,5.35385244 L8.14004707,5.33674579 L7.67728358,4.83191254 L8.35699102,4.93687276 L7.99254436,4.3581943 L8.64243369,4.58184787 L8.38801748,3.9479234 L8.98720073,4.28308192 L8.85099211,3.6142863 L9.38021104,4.0501775 L9.36658787,3.36800637 L9.80883294,3.89062035 L9.91823309,3.21699925 L10.2592902,3.80953876 L10.4881974,3.16611842 Z" id="sun" fill="#FFC84A"></path>
                        <g id="waves" stroke-width="1" fill="none" transform="translate(0.000000, 5.896382)">
                            <mask id="mask-6" fill="white">
                                <use xlink:href="#path-5"></use>
                            </mask>
                            <use id="white" fill="#F7FCFF" xlink:href="#path-5"></use>
                            <path d="M0.129978954,3.00720647 L1.76425813,2.34396191 C2.00247666,2.24728495 2.26921209,2.24846227 2.50656793,2.34723833 L4.77578637,3.29157768 C5.03253361,3.39842351 5.32265894,3.39072043 5.57337475,3.27040102 L7.40375548,2.39199477 C7.66628109,2.26600779 7.97133835,2.26376898 8.23568481,2.38588925 L10.1528384,3.27155765 C10.4111161,3.39087436 10.70859,3.39160387 10.9674499,3.27355536 L12.9291623,2.37895077 C13.1879403,2.26093959 13.4853124,2.26162962 13.7435399,2.38084047 L15.6803304,3.27496056 C15.9345115,3.39230333 16.2268339,3.39489342 16.4830542,3.28207301 L18.5993645,2.35020716 C18.8284889,2.2493178 19.087613,2.24029406 19.3232006,2.32500029 L21.2205735,3.00720647 L21.2205735,3.00720647" id="wave" stroke="#015989" stroke-width="1.25" mask="url(#mask-6)"></path>
                            <path d="M0.129978954,5.08779858 L1.76425813,4.42455402 C2.00247666,4.32787705 2.26921209,4.32905437 2.50656793,4.42783044 L4.77578637,5.37216979 C5.03253361,5.47901561 5.32265894,5.47131254 5.57337475,5.35099313 L7.40375548,4.47258687 C7.66628109,4.3465999 7.97133835,4.34436109 8.23568481,4.46648136 L10.1528384,5.35214976 C10.4111161,5.47146647 10.70859,5.47219598 10.9674499,5.35414747 L12.9291623,4.45954288 C13.1879403,4.3415317 13.4853124,4.34222172 13.7435399,4.46143257 L15.6803304,5.35555267 C15.9345115,5.47289543 16.2268339,5.47548552 16.4830542,5.36266511 L18.5993645,4.43079927 C18.8284889,4.3299099 19.087613,4.32088616 19.3232006,4.4055924 L21.2205735,5.08779858 L21.2205735,5.08779858" id="wave" stroke="#015989" stroke-width="1.25" mask="url(#mask-6)"></path>
                            <path d="M0.129978954,6.74568691 L0.812269645,6.46879077 C1.66039705,6.12459261 2.61005289,6.12878422 3.45510885,6.48045579 L4.77578637,7.03005812 C5.03253361,7.13690395 5.32265894,7.12920087 5.57337475,7.00888146 L6.4988015,6.56476586 C7.33444666,6.16373676 8.30547435,6.1566104 9.14691548,6.54533139 L10.1528384,7.01003809 C10.4111161,7.12935481 10.70859,7.13008431 10.9674499,7.0120358 L11.9622087,6.55839346 C12.8348547,6.16043853 13.8376469,6.16276542 14.7084366,6.56476586 L15.6803304,7.013441 C15.9345115,7.13078377 16.2268339,7.13337386 16.4830542,7.02055345 L17.6856362,6.4910257 C18.5013858,6.13183015 19.4239431,6.09970301 20.2627036,6.40128188 L21.2205735,6.74568691 L21.2205735,6.74568691 L21.2205735,8.81748208 L0.2447396,8.81748208 L0.129978954,6.74568691 Z" id="wave" fill="#015989" mask="url(#mask-6)"></path>
                        </g>
                        <path d="M6.73751831,0.88650689 C7.31748873,0.88650689 7.70510095,0.88650689 7.90035497,0.88650689 C8.193236,0.88650689 8.85398072,0.438677973 9.23615735,0.587954278 C9.49094177,0.687471815 9.83279059,0.897878305 10.2617038,1.21917375 C10.9698023,0.660208672 11.5350325,0.380726135 11.9573945,0.380726135 C12.3797565,0.380726135 12.9718562,0.349648976 13.7336934,0.287494659 C13.5549598,0.751438967 13.2142265,1.02270489 12.7114937,1.10129243 C12.2087609,1.17987997 11.6566568,1.4116167 11.0551814,1.79650259 C11.7477089,1.79650259 12.1562564,1.79650259 12.280824,1.79650259 C12.4053916,1.79650259 12.5489482,1.89041683 12.7114937,2.07824529 C12.3761486,2.30609736 12.1247822,2.4200234 11.9573945,2.4200234 C11.7900068,2.4200234 11.6138604,2.4200234 11.4289554,2.4200234 C11.0730547,2.72542711 10.6752716,2.84563921 10.2356058,2.7806597 C9.79594013,2.71568019 9.39972353,2.48154205 9.04695606,2.07824529 C8.66228713,2.02310688 8.46995267,1.96236516 8.46995267,1.89602013 C8.23292293,1.77453669 8.07873255,1.77453669 8.00738151,1.89602013 C7.93603048,2.01750357 8.09022087,1.93616146 8.46995267,1.65199381 C8.62219668,1.50918014 8.75642492,1.4377733 8.87263738,1.4377733 C9.04695606,1.4377733 9.62908648,1.79650259 9.62908648,1.79650259 C9.62908648,1.79650259 9.67541955,1.748333 9.76808569,1.65199381 L9.04695606,1.10129243 C8.06636598,1.2040354 7.2965534,1.13244022 6.73751831,0.88650689 Z" id="bird" fill="#FFC84A"></path>
                    </g>
                </g>
            </g>
        </g>
    </g>
</svg>