<?xml version="1.0" encoding="UTF-8"?>
<svg width="20px" height="15px" viewBox="0 0 20 15" version="1.1" xmlns="http://www.w3.org/2000/svg" xmlns:xlink="http://www.w3.org/1999/xlink">
    <title>flags/M/KN - Kenia</title>
    <defs>
        <rect id="path-1" x="0" y="0" width="20" height="15"></rect>
        <path d="M3,11.3684211 C3.59803072,11.3684211 6,9.10628084 6,6.31578947 C6,3.52529811 3.59803072,1.26315789 3,1.26315789 C2.40196928,1.26315789 0,3.52529811 0,6.31578947 C0,9.10628084 2.40196928,11.3684211 3,11.3684211 Z" id="path-3"></path>
    </defs>
    <g id="Symbols" stroke="none" stroke-width="1" fill="none" fill-rule="evenodd">
        <g id="flags/M/KN---Kenia">
            <g id="flag">
                <mask id="mask-2" fill="white">
                    <use xlink:href="#path-1"></use>
                </mask>
                <g id="mask"></g>
                <g id="contents" mask="url(#mask-2)">
                    <g transform="translate(0.000000, -0.100000)">
                        <rect id="top" stroke="none" fill="#272727" fill-rule="evenodd" x="0" y="0.1" width="20" height="5"></rect>
                        <rect id="bottom" stroke="none" fill="#4E8B1D" fill-rule="evenodd" x="0" y="10.1" width="20" height="5"></rect>
                        <rect id="bottom" stroke="#F7FCFF" stroke-width="1.25" fill="#E31D1C" fill-rule="nonzero" x="-0.625" y="4.475" width="21.25" height="6.25"></rect>
                    </g>
                </g>
            </g>
            <g id="Oval" transform="translate(7.000000, 1.200000)">
                <path d="M4.81173646,1.21829843 C4.92592305,0.971859284 5.23290973,0.702749021 5.73269652,0.410967643 C5.74987103,0.400940962 5.77061305,0.400366619 5.7882646,0.409428972 C5.81813655,0.424765315 5.83054162,0.462688409 5.81581178,0.494050266 L0.637038943,11.6709533 L0.367400729,11.5325203 L4.93244972,1.68016502 C4.72572856,1.64471918 4.68549081,1.49076365 4.81173646,1.21829843 Z" id="Path" fill="#FFFFFF" fill-rule="nonzero"></path>
                <path d="M1.18276207,1.21829843 C1.30900773,1.49076365 1.26876998,1.64471918 1.06204882,1.68016502 L5.62709781,11.5325203 L5.35745959,11.6709533 L0.178686757,0.494050266 C0.163956913,0.462688409 0.176361983,0.424765315 0.206233938,0.409428972 C0.223885486,0.400366619 0.244627503,0.400940962 0.261802014,0.410967643 C0.761588801,0.702749021 1.06857549,0.971859284 1.18276207,1.21829843 Z" id="Path" fill="#FFFFFF" fill-rule="nonzero"></path>
                <mask id="mask-4" fill="white">
                    <use xlink:href="#path-3"></use>
                </mask>
                <use id="Mask" fill="#E31D1C" xlink:href="#path-3"></use>
                <ellipse fill="#272727" fill-rule="nonzero" mask="url(#mask-4)" cx="-2.7" cy="6.31578947" rx="4.2" ry="4.42105263"></ellipse>
                <ellipse fill="#272727" fill-rule="nonzero" mask="url(#mask-4)" cx="8.7" cy="6.31578947" rx="4.2" ry="4.42105263"></ellipse>
                <path d="M3.6,9.15789474 C3.6,10.2261297 3.39433081,11.1173877 3.12092093,11.323511 L3.12092093,6.99227846 C3.39433081,7.19840178 3.6,8.08965976 3.6,9.15789474 Z M2.82032642,7.04818948 L2.82032642,11.2676 C2.57673145,10.9862922 2.4,10.1481316 2.4,9.15789474 C2.4,8.16765787 2.57673145,7.32949726 2.82032642,7.04818948 Z M3.6,3.47368421 C3.6,4.54191919 3.39433081,5.43317717 3.12092093,5.63930049 L3.12092093,1.30806793 C3.39433081,1.51419126 3.6,2.40544923 3.6,3.47368421 Z M2.82032642,1.36397896 L2.81998712,5.58299722 C2.57656735,5.30130324 2.4,4.46346125 2.4,3.47368421 C2.4,2.48344734 2.57673145,1.64528674 2.82032642,1.36397896 Z" id="Combined-Shape" fill="#F7FCFF" fill-rule="nonzero" mask="url(#mask-4)"></path>
                <ellipse fill="#F7FCFF" fill-rule="nonzero" mask="url(#mask-4)" transform="translate(3.000000, 6.315789) scale(1, -1) translate(-3.000000, -6.315789) " cx="3" cy="6.31578947" rx="1" ry="1"></ellipse>
            </g>
        </g>
    </g>
</svg>