<?xml version="1.0" encoding="UTF-8"?>
<svg width="20px" height="15px" viewBox="0 0 20 15" version="1.1" xmlns="http://www.w3.org/2000/svg" xmlns:xlink="http://www.w3.org/1999/xlink">
    <title>flags/M/LI - Liechtenstein</title>
    <defs>
        <rect id="path-1" x="0" y="0" width="20" height="15"></rect>
        <rect id="path-3" x="0" y="0" width="20" height="15"></rect>
    </defs>
    <g id="Symbols" stroke="none" stroke-width="1" fill="none" fill-rule="evenodd">
        <g id="flag">
            <mask id="mask-2" fill="white">
                <use xlink:href="#path-1"></use>
            </mask>
            <g id="mask"></g>
            <g id="contents" mask="url(#mask-2)">
                <mask id="mask-4" fill="white">
                    <use xlink:href="#path-3"></use>
                </mask>
                <use id="background" fill="#E31D1C" xlink:href="#path-3"></use>
                <rect id="top" fill="#2E42A5" mask="url(#mask-4)" x="0" y="0" width="20" height="7.5"></rect>
                <g id="mark" mask="url(#mask-4)">
                    <g transform="translate(2.500000, 0.000000)">
                        <path d="M0.499033035,6.90823337 C1.00180947,7.2211894 1.8357335,7.37766741 3.00080513,7.37766741 C4.16587676,7.37766741 5.05762062,7.2211894 5.67603672,6.90823337 C4.76235454,6.37709664 3.89703792,6.11152828 3.08008686,6.11152828 C2.26313581,6.11152828 1.40278453,6.37709664 0.499033035,6.90823337 Z" id="Path-131" stroke="none" fill="#000000"></path>
                        <path d="M3.76321989,2.0870507 C4.41549384,1.88609139 5.1258449,1.71826663 5.63857404,2.16399038 C5.909024,2.39909692 6.07317807,2.70227803 6.12786665,3.07530484 C6.18401574,3.45829372 6.12143794,3.9213305 5.92682695,4.46387785 L5.92682695,4.46387785 L0.403095389,4.46387785 C0.0572736903,3.9107815 -0.0795533875,3.44252781 -0.040968731,3.06367493 C-0.00152385023,2.67637572 0.208662138,2.36271195 0.610506661,2.13512944 C1.32487467,1.73055091 1.94207457,1.91653439 2.48922459,2.09883878 C2.70236957,2.16985635 2.90069375,2.24139864 3.08816972,2.24139864 C3.27948335,2.24139864 3.51324344,2.16406604 3.76321989,2.0870507 Z" id="Path-130" stroke="#000000" stroke-width="0.5" fill="#FFD83D"></path>
                        <path d="M3.10949335,3.66723731 C4.69363189,3.66723731 5.82979448,3.90054526 6.52538762,4.34434099 L6.52538762,4.34434099 L5.62707174,6.74639473 C4.81350949,6.46868691 3.978262,6.32984503 3.12133292,6.32984503 C2.26593719,6.32984503 1.41516517,6.46817434 0.568951784,6.74437826 L0.568951784,6.74437826 L-0.304791828,4.34331524 C0.390943792,3.90018578 1.52657572,3.66723731 3.10949335,3.66723731 Z" id="Path-129" stroke="#000000" stroke-width="0.5" fill="#FFD83D"></path>
                        <ellipse id="Oval-28" stroke="#000000" stroke-width="0.5" fill="#FFD83D" cx="3.04621849" cy="1.98113208" rx="1" ry="1"></ellipse>
                        <path d="M2.57279272,-1.2482743 L3.41165382,0.518719544 L3.5189186,3.72721835 L2.6864234,0.916641053 L2.57279272,-1.2482743 Z" id="Combined-Shape" stroke="#000000" stroke-width="0.5" fill="#FFD83D"></path>
                    </g>
                </g>
            </g>
        </g>
    </g>
</svg>