<?xml version="1.0" encoding="UTF-8"?>
<svg width="20px" height="15px" viewBox="0 0 20 15" version="1.1" xmlns="http://www.w3.org/2000/svg" xmlns:xlink="http://www.w3.org/1999/xlink">
    <title>flags/M/LK - Sri Lanka</title>
    <defs>
        <rect id="path-1" x="0" y="0" width="20" height="15"></rect>
    </defs>
    <g id="Symbols" stroke="none" stroke-width="1" fill="none" fill-rule="evenodd">
        <g id="flag">
            <mask id="mask-2" fill="white">
                <use xlink:href="#path-1"></use>
            </mask>
            <g id="mask"></g>
            <g id="contents" mask="url(#mask-2)">
                <path d="M0,0 L20,0 L20,13.75 C20,14.4403559 19.4403559,15 18.75,15 L1.25,15 C0.559644063,15 8.45442189e-17,14.4403559 0,13.75 L0,0 L0,0 Z" id="background" fill="#FECA00"></path>
                <rect id="Rectangle-63" fill="#1F8A6E" x="1.25" y="1.25" width="3.75" height="12.5"></rect>
                <rect id="Rectangle-63" fill="#F56800" x="5" y="1.25" width="3.75" height="12.5"></rect>
                <rect id="Rectangle-65" fill="#B01D00" x="8.75" y="1.25" width="10" height="12.5"></rect>
                <rect id="divider" fill="#E8AA00" x="7.5" y="1.25" width="1.25" height="12.5"></rect>
                <g id="mark" transform="translate(8.750000, 1.250000)" fill="#FECA00">
                    <path d="M1.93778805,2.6084225 C1.90371336,2.81659192 1.85359695,3.07785655 1.78743884,3.39221639 C1.72128072,3.70657622 1.68420919,4.58412169 1.67622426,6.0248528 C1.9048174,6.11105546 2.01911396,6.21204584 2.01911396,6.32782395 C2.01911396,6.44360205 1.97496798,6.53599403 1.88667601,6.60499988 L1.88667601,6.60499988 L2.4419099,7.21290212 C2.37044562,7.14850244 2.39910808,6.8981045 2.52789729,6.46170832 C2.7210811,5.80711404 3.25148425,5.82310074 3.46878883,5.61060895 C3.68609341,5.39811716 3.35874278,5.67410287 3.17784016,5.67410287 C2.99693754,5.67410287 3.17784016,5.59756598 3.06038856,5.51133742 C3.03428821,5.49217552 3.02558809,5.47724498 3.024959,5.4665637 L3.02476163,5.4654225 L2.98532585,5.48564509 L2.98532585,5.48564509 L2.91497336,5.51133742 C2.65210657,5.59810943 2.85204016,5.42456541 2.7993834,5.33303815 C2.74672665,5.24151089 2.63041437,5.42456541 2.4419099,5.51133742 C2.25340544,5.59810943 2.4498799,5.42456541 2.52789729,5.33303815 C2.60591468,5.24151089 2.4498799,5.33303815 2.27148485,5.33303815 C2.0930898,5.33303815 2.27148485,5.01842168 2.33471348,4.84012241 C2.3979421,4.66182314 2.27148485,4.78450862 2.27148485,4.5271816 C2.27148485,4.26985458 2.63041437,4.5271816 2.52789729,4.44706694 C2.42538021,4.36695228 2.27148485,3.99224352 2.27148485,3.8608577 C2.27148485,3.72947188 2.40910009,3.58527958 2.52789729,3.58527958 C2.60709542,3.58527958 2.69759079,3.64721861 2.7993834,3.77109668 C2.9307279,3.77109668 3.08142818,3.76009167 3.25148425,3.73808165 C3.50656835,3.70506662 3.46878883,3.58527958 3.46878883,3.39221639 C3.46878883,3.19915319 3.60639751,3.39221639 3.82296943,3.39221639 C3.9673507,3.39221639 4.10508111,3.42444642 4.23616065,3.48890649 C4.23616065,3.34268629 4.28826722,3.2695762 4.39248038,3.2695762 C4.49669353,3.2695762 4.57847583,3.34268629 4.63782727,3.48890649 L4.63782727,3.48890649 L4.87297966,3.2695762 C5.11904586,3.41579639 5.28638623,3.48890649 5.37500076,3.48890649 C5.4636153,3.48890649 5.55544735,3.41579639 5.65049691,3.2695762 L5.65049691,3.2695762 L5.65049691,3.58527958 C5.84785759,3.33251157 6.22935467,3.17345974 6.79498814,3.1081241 C7.64343835,3.01012064 8.45673202,3.95093574 8.7580421,4.05917432 C8.95891548,4.13133336 8.99600548,4.13133336 8.86931208,4.05917432 C8.79513209,3.9522642 8.82301231,3.89880913 8.95295275,3.89880913 C9.08289318,3.89880913 9.17894637,3.9522642 9.24111233,4.05917432 C9.25566495,4.27697991 9.13173153,4.40627745 8.86931208,4.44706694 C8.60689263,4.48785643 8.33696072,4.33624862 8.05951635,3.99224352 C8.19317611,4.18791498 8.19317611,4.24719544 8.05951635,4.17008489 C7.92585658,4.09297434 7.81449805,4.05600415 7.72544074,4.05917432 C7.75053146,3.83246206 7.72845163,3.8101518 7.65920123,3.99224352 C7.58995083,4.17433525 7.43915558,4.27217098 7.20681548,4.28575071 C7.29123838,4.14176473 7.35290253,4.0127842 7.39180791,3.89880913 C7.42098694,3.81332784 7.32735058,3.75903872 7.23399648,3.71407329 L7.20776163,3.7014225 L7.21488059,3.72777944 C7.22312499,3.77103238 7.22613333,3.82014854 7.22099553,3.87185128 L7.20681548,3.95093574 C7.16478113,4.11134621 7.02750536,4.18439593 6.79498814,4.17008489 C6.79498814,4.17008489 6.70426304,4.08725294 6.84767866,3.8608577 C6.94328908,3.70992754 6.82192377,3.58594381 6.48358274,3.48890649 C6.48358274,3.48890649 6.49987695,3.59945476 6.48358274,3.73808165 C6.47271993,3.83049958 6.39986828,3.84150459 6.26502778,3.77109668 C6.26502778,3.77109668 6.08725262,3.60325896 5.94653793,3.77109668 C5.85272815,3.88298849 5.88109542,4.01598456 6.03163977,4.17008489 C6.05519553,4.09614451 6.13299153,4.03686405 6.26502778,3.99224352 C6.39706402,3.947623 6.50220891,3.96993326 6.58046245,4.05917432 C6.54037633,4.10171494 6.47592269,4.17724041 6.38710153,4.28575071 C6.29828036,4.39426101 6.31919422,4.47473797 6.4498431,4.5271816 C6.61653406,4.32244917 6.69987954,4.27534954 6.69987954,4.38588271 C6.69987954,4.55168246 6.79498814,4.5271816 7.13849491,4.6273136 C7.36749942,4.69406827 7.74133645,4.66069094 8.26000599,4.5271816 C8.78218823,4.56341208 9.04327935,4.747629 9.04327935,5.07983235 C9.04327935,5.57813738 8.69228964,5.82310074 8.69228964,5.82310074 C8.69228964,5.82310074 8.95295275,6.32782395 8.95295275,6.76921238 C8.95295275,7.2106008 8.7580421,7.53861418 8.69228964,8.09245626 C8.64845467,8.46168431 8.72586202,8.56728825 8.81770718,8.63780668 L8.88762933,8.68768788 C8.91072653,8.70450272 8.93305728,8.72269563 8.95295275,8.74583752 C9.07232555,8.88468888 8.83357994,9.0485048 8.69228964,9.204298 C8.55099935,9.3600912 8.67922771,9.42835157 8.7580421,9.5892094 C8.83685649,9.75006722 8.88104568,9.93415658 8.7580421,9.93415658 C8.67603971,9.93415658 8.57560302,9.90016832 8.45673202,9.83219181 C8.40826265,9.90016832 8.3426873,9.93415658 8.26000599,9.93415658 C8.17732467,9.93415658 8.11049479,9.90016832 8.05951635,9.83219181 C8.05727294,9.90016832 8.00841983,9.93415658 7.912957,9.93415658 C7.81749418,9.93415658 7.75498876,9.90016832 7.72544074,9.83219181 C7.53675849,9.90016832 7.39645707,9.93415658 7.30453647,9.93415658 C7.21261586,9.93415658 7.15726868,9.90016832 7.13849491,9.83219181 C7.13923287,9.90016832 7.08745743,9.93415658 6.98316857,9.93415658 C6.87887972,9.93415658 6.81615291,9.90016832 6.79498814,9.83219181 C6.73158241,9.90016832 6.66007384,9.93415658 6.58046245,9.93415658 C6.50085106,9.93415658 6.43639742,9.90016832 6.38710153,9.83219181 C6.38878408,9.90016832 6.34809283,9.93415658 6.26502778,9.93415658 C6.14043019,9.93415658 6.12971498,9.85560262 6.12971498,9.67548815 C6.12971498,9.55541184 6.3514727,9.47303298 6.79498814,9.42835157 C6.93089131,9.04749387 6.89918844,8.7737054 6.69987954,8.60698616 L6.62472809,8.53080178 C6.39464814,8.25263341 6.36026519,7.75609112 6.26502778,7.75609112 C6.16026662,7.75609112 5.73759124,7.84880155 5.48325986,7.94055859 C5.3137056,8.00172994 5.03189474,8.12770122 4.63782727,8.31847243 C4.50097326,8.42092656 4.41919096,8.55188285 4.39248038,8.71134131 C4.36576979,8.87079976 4.48198956,8.95244627 4.74113968,8.95628085 C4.67239133,9.18914397 4.50406499,9.32500736 4.23616065,9.363871 C4.35732231,9.46126416 4.23144272,9.89600009 4.06485456,9.93415658 C3.95379578,9.95959423 3.87316741,9.93340958 3.82296943,9.85560262 C3.74668407,9.90797192 3.67449344,9.93415658 3.60639751,9.93415658 C3.53830159,9.93415658 3.45575001,9.90016832 3.35874278,9.83219181 C3.33170111,9.90016832 3.27140024,9.93415658 3.17784016,9.93415658 C3.08428008,9.93415658 3.04512955,9.90016832 3.06038856,9.83219181 C3.03764124,9.86170308 2.96819177,9.89569133 2.85204016,9.93415658 C2.67781275,9.99185444 2.77601286,9.70602442 2.7993834,9.5892094 C2.82275395,9.47239438 3.12955077,9.38647505 3.31818028,9.42835157 C3.50680978,9.47022809 3.66708789,9.31932024 3.7085414,9.0485048 C3.73617707,8.86796118 3.65625954,8.64638265 3.46878883,8.38376922 L3.46878883,8.38376922 L3.0846209,8.16800729 C2.90624522,8.37077152 2.75484304,8.47215363 2.63041437,8.47215363 C2.5059857,8.47215363 2.30221889,8.34558784 2.01911396,8.09245626 C1.96489669,8.14282362 1.9207507,8.16800729 1.88667601,8.16800729 C1.83556397,8.16800729 1.74116516,8.06850761 1.78743884,7.84880155 C1.81828796,7.70233084 1.78121643,7.57265948 1.67622426,7.45978746 C1.81362845,7.61881346 1.75121449,7.75609112 1.64246843,7.75609112 C1.53372237,7.75609112 1.55821762,7.82568954 1.51260124,7.94055859 C1.48219031,8.01713795 1.51555177,8.14310923 1.61268559,8.31847243 C1.77186821,8.31847243 1.85145952,8.35818084 1.85145952,8.43759766 C1.85145952,8.55672289 1.72501027,8.56476602 1.67622426,8.60698616 C1.62743825,8.64920629 1.65413909,8.68609289 1.67622426,8.71134131 C1.6909477,8.72817359 1.76109829,8.77674816 1.88667601,8.85706502 L1.88667601,8.85706502 L1.51260124,8.85706502 L1.33150873,9.204298 L1.1417183,8.85706502 L0.762761634,8.85706502 C0.762761634,8.83290223 0.81445292,8.7958264 0.91783549,8.74583752 C1.02121806,8.69584864 1.04607139,8.65925088 0.992395467,8.63604425 C0.898645077,8.60932176 0.851769882,8.5431729 0.851769882,8.43759766 C0.851769882,8.27923479 0.992395467,8.31847243 0.992395467,8.31847243 C0.992395467,8.31847243 1.1417183,8.20965884 1.1417183,7.94055859 C1.1417183,7.67145833 1.1417183,7.75609112 0.992395467,7.75609112 C0.843072634,7.75609112 0.992395467,7.45978746 1.1417183,7.45978746 C1.29104113,7.45978746 1.1417183,6.76921238 0.992395467,6.76921238 C0.843072634,6.76921238 0.762761634,6.56323111 0.762761634,6.32782395 C0.762761634,6.17088584 0.889080523,6.06989546 1.1417183,6.0248528 L1.1417183,6.0248528 L1.1417183,3.99224352 C1.1417183,3.06815781 1.40707488,2.60688413 1.93778805,2.6084225 Z M7.57575328,8.37851752 C7.40078162,8.55013295 7.36884459,8.65480067 7.47994221,8.6925207 C7.64658863,8.74910073 7.93221072,8.72314344 7.78939968,8.86264959 C7.64658863,9.00215573 7.52573476,9.19062625 7.52573476,9.36228742 C7.52573476,9.53394859 7.52981606,9.67885203 7.57575328,9.60640031 C7.62169051,9.53394859 7.92794003,9.45527627 8.06864927,9.36228742 C8.20935851,9.26929857 8.18263873,9.16743621 8.18263873,8.95685054 C8.18263873,8.81646009 7.98034358,8.62368242 7.57575328,8.37851752 Z M5.60446001,4.28227398 C5.60185138,4.68234407 5.58015508,4.89858622 5.53937109,4.93100044 C5.4781951,4.97962176 5.44492395,5.0622277 5.49214752,5.12086602 C5.53937109,5.17950434 5.56121646,5.3305369 5.49214752,5.3305369 C5.42307858,5.3305369 5.31649016,5.41490381 5.40431884,5.54393556 C5.49214752,5.67296731 5.48941964,5.73723162 5.6517283,5.73723162 C5.81403695,5.73723162 6.71316294,5.76071897 6.97600056,5.66727272 C7.23883817,5.57382647 7.49098787,5.66919379 7.85352714,5.62151013 C8.2160664,5.57382647 8.71864411,5.3107316 8.65228069,5.12086602 C8.58591727,4.93100044 8.50092826,4.68983856 7.85352714,4.85045279 C7.20612601,5.01106702 6.96660951,5.09923113 6.72181613,4.97484196 C6.47702275,4.85045279 6.15180173,4.77672036 6.10820042,4.77672036 C6.06459912,4.77672036 6.0794012,5.09113361 5.95378472,5.01106702 C5.82816824,4.93100044 5.67567547,4.84802859 5.72643187,4.70927714 C5.77718826,4.5705257 5.81906787,4.54120654 5.81906787,4.44746298 C5.81906787,4.38496728 5.74753192,4.32990428 5.60446001,4.28227398 Z" id="Path-223"></path>
                    <path d="M0.926490446,11.8867442 C0.926490446,12.1080189 0.678628417,12.5392118 0.502993567,12.4177166 C0.385903667,12.3367198 0.253906483,12.3367198 0.107002015,12.4177166 L0.107002015,12.192068 L0.107002015,12.192068 C0.107002015,12.0762 -0.101481023,11.7845603 0.245733701,11.7177508 C0.592948426,11.6509412 0.848720516,11.4991105 0.926490446,11.3557718 C1.00426038,11.212433 0.926490446,11.6654695 0.926490446,11.8867442 Z M9.07778436,11.8867442 C9.07778436,11.6654695 9.00001443,11.212433 9.07778436,11.3557718 C9.15555429,11.4991105 9.41132638,11.6509412 9.7585411,11.7177508 C10.1057558,11.7845603 9.89727279,12.0762 9.89727279,12.192068 L9.89727279,12.192068 L9.89727279,12.4177166 C9.75036832,12.3367198 9.61837114,12.3367198 9.50128124,12.4177166 C9.32564639,12.5392118 9.07778436,12.1080189 9.07778436,11.8867442 Z M0.502993567,0.0764523488 C0.678628417,-0.0450428559 0.926490446,0.38615002 0.926490446,0.60742476 C0.926490446,0.8286995 1.00426038,1.28173593 0.926490446,1.13839717 C0.848720516,0.995058407 0.592948426,0.843227769 0.245733701,0.776418195 C-0.101481023,0.709608621 0.107002015,0.417968974 0.107002015,0.302100916 L0.107002015,0.302100916 L0.107002015,0.0764523488 C0.253906483,0.157449152 0.385903667,0.157449152 0.502993567,0.0764523488 Z M9.50128124,0.0764523488 C9.61837114,0.157449152 9.75036832,0.157449152 9.89727279,0.0764523488 L9.89727279,0.302100916 L9.89727279,0.302100916 C9.89727279,0.417968974 10.1057558,0.709608621 9.7585411,0.776418195 C9.41132638,0.843227769 9.15555429,0.995058407 9.07778436,1.13839717 C9.00001443,1.28173593 9.07778436,0.8286995 9.07778436,0.60742476 C9.07778436,0.38615002 9.32564639,-0.0450428559 9.50128124,0.0764523488 Z" id="Combined-Shape"></path>
                </g>
            </g>
        </g>
    </g>
</svg>