<?xml version="1.0" encoding="UTF-8"?>
<svg width="20px" height="15px" viewBox="0 0 20 15" version="1.1" xmlns="http://www.w3.org/2000/svg" xmlns:xlink="http://www.w3.org/1999/xlink">
    <title>flags/M/LS - Lesotho</title>
    <defs>
        <rect id="path-1" x="0" y="0" width="20" height="15"></rect>
    </defs>
    <g id="Symbols" stroke="none" stroke-width="1" fill="none" fill-rule="evenodd">
        <g id="flag">
            <mask id="mask-2" fill="white">
                <use xlink:href="#path-1"></use>
            </mask>
            <g id="mask"></g>
            <g id="contents" mask="url(#mask-2)">
                <polygon id="bottom" fill="#55BA07" points="0 10 20 10 20 15 0 15"></polygon>
                <polygon id="middle" fill="#F7FCFF" points="0 5 20 5 20 10 0 10"></polygon>
                <polygon id="top" fill="#3D58DB" points="0 0 20 0 20 5 0 5"></polygon>
                <g id="mark" transform="translate(6.875000, 3.750000)" fill="#1D1D1D">
                    <path d="M3.04687023,0.833336512 C3.21273593,0.833336512 3.35445636,0.936714699 3.41111443,1.08255398 C3.92248215,1.19611028 4.29284574,1.5445014 4.29284574,2.11062274 C4.29284574,2.52226439 4.09702988,3.0226841 3.79343336,3.36609096 L5.31449434,4.85798818 L5.68969655,4.73444713 L6.25,5.58423721 C5.30586517,6.02807907 4.25032887,6.25 3.08339111,6.25 C1.91645334,6.25 0.888656309,6.02807907 0,5.58423721 L0.476974561,4.85798818 L0.862176239,4.98426354 L2.27426106,3.39290271 C1.95689937,3.04911484 1.75062926,2.53310991 1.75062926,2.11062274 C1.75062926,1.52510436 2.14680721,1.172492 2.68581366,1.0717427 C2.7456088,0.932161159 2.88469865,0.833336512 3.04687023,0.833336512 Z M3.30424302,5.6582698 L2.82866656,5.81398518 L2.90734921,5.93561569 L3.55656891,5.93561569 L3.30424302,5.6582698 Z M4.1864871,5.62444713 L3.76776044,5.76195333 L3.84922053,5.89945952 L4.40288195,5.83789702 L4.1864871,5.62444713 Z M3.16406979,5.44193581 L2.52138939,5.44193581 L2.72980347,5.68530172 L3.22499786,5.55436342 L3.16406979,5.44193581 Z M2.15707404,2.11310135 C2.15707404,2.56976853 2.38138273,2.9983925 2.65654976,3.21929552 L2.65569941,1.40033008 C2.32938621,1.48814635 2.15707404,1.71387943 2.15707404,2.11310135 Z M3.43901704,1.40875481 L3.43779673,3.20657588 C3.70505816,2.98248947 3.91984626,2.56213718 3.91984626,2.11427323 C3.91984626,1.72693803 3.75055554,1.50229315 3.43901704,1.40875481 Z" id="Path-114"></path>
                </g>
            </g>
        </g>
    </g>
</svg>