<?xml version="1.0" encoding="UTF-8"?>
<svg width="20px" height="15px" viewBox="0 0 20 15" version="1.1" xmlns="http://www.w3.org/2000/svg" xmlns:xlink="http://www.w3.org/1999/xlink">
    <title>flags/M/MD - Moldova</title>
    <defs>
        <rect id="path-1" x="0" y="0" width="20" height="15"></rect>
        <path d="M0,0 L6.6,0 L6.6,4.77430556 C5.48037969,5.1115346 4.38037969,5.55684545 3.3,6.11023811 C2.50248667,5.51861054 1.40248667,5.07329968 0,4.77430556 L0,0 Z" id="path-3"></path>
    </defs>
    <g id="Symbols" stroke="none" stroke-width="1" fill="none" fill-rule="evenodd">
        <g id="flag">
            <mask id="mask-2" fill="white">
                <use xlink:href="#path-1"></use>
            </mask>
            <g id="mask"></g>
            <g id="contents" mask="url(#mask-2)">
                <rect id="bottom" fill="#D9071E" x="13" y="0" width="7" height="15"></rect>
                <rect id="left" fill="#3D58DB" x="0" y="0" width="7" height="15"></rect>
                <rect id="middle" fill="#FBCD17" x="6" y="0" width="8" height="15"></rect>
                <g id="mark" transform="translate(2.500000, 1.250000)">
                    <g id="pins" transform="translate(3.150000, 6.770833)" fill="#FD1900" fill-rule="nonzero">
                        <path d="M3.10251209,0.341035082 L3.76068407,0.700631584 L1.57908599,4.69362573 L0.92091401,4.33402923 L3.10251209,0.341035082 Z M5.74240066,0.245023049 L7.92399874,4.23801719 L7.26582676,4.59761369 L5.08422868,0.604619551 L5.74240066,0.245023049 Z" id="Combined-Shape"></path>
                    </g>
                    <path d="M7.38370366,8.73133835 L7.71202252,8.807608 C8.04622019,9.67912793 8.70463793,10.4582953 9.68727575,11.1451101 C8.63986008,11.4246373 7.98144234,11.8450466 7.71202252,12.4063379 C7.71202252,11.9573049 7.04763903,11.5368956 5.71887206,11.1451101 C6.16953296,10.8516829 6.72447683,10.0470923 7.38370366,8.73133835 L7.38370366,8.73133835 Z M7.57607351,0.53179986 C8.61020736,0.53179986 8.73076148,1.02043629 8.73076148,1.40995351 C8.73076148,1.79947072 8.13510322,2.63844814 8.13510322,2.95937889 C8.13510322,3.28030965 8.37692269,3.90219015 8.73076148,3.90219015 C8.93956614,3.90219015 9.65040769,3.65595188 10.8632861,3.16347534 L10.8634555,2.13019892 L10.8634555,2.13019892 C10.9757743,1.30167536 11.3085632,0.832686092 11.861822,0.723231105 C12.5281378,0.963055562 12.8612957,1.43204483 12.8612957,2.13019892 L12.8612957,11.4663958 L12.8612957,11.4663958 C12.4181186,10.8956491 12.0849607,10.4857152 11.861822,10.2365941 C11.527114,9.8629125 10.8634555,8.85845974 10.8634555,8.08771524 L10.8634555,4.61779986 L4.6104555,4.61779986 L4.6112957,8.08771524 C4.6112957,8.80707677 4.0331754,9.73002417 3.6839627,10.1537036 L3.6129292,10.2365941 C3.38979054,10.4857152 3.05663264,10.8956491 2.6134555,11.4663958 L2.6134555,11.4663958 L2.6134555,2.13019892 C2.6134555,1.43204483 2.9466134,0.963055562 3.6129292,0.723231105 C4.16618805,0.832686092 4.49897688,1.30167536 4.6112957,2.13019892 L4.6112957,2.13019892 L4.6104555,3.34179986 L4.68909171,3.40722403 C5.3424103,3.92968827 5.87270258,4.09467698 6.27996856,3.90219015 C6.7185627,3.69489665 7.01360616,3.29396707 7.16509895,2.69940141 C7.12408447,2.09944762 7.01356665,1.79947072 6.83354549,1.79947072 C6.56351375,1.79947072 6.54193966,0.53179986 7.57607351,0.53179986 Z M5.61000671,8.33333333 C6.06564163,8.33333333 6.43500671,8.68311087 6.43500671,9.11458333 C6.43500671,9.54605579 6.06564163,9.89583333 5.61000671,9.89583333 C5.1543718,9.89583333 4.78500671,9.54605579 4.78500671,9.11458333 C4.78500671,8.68311087 5.1543718,8.33333333 5.61000671,8.33333333 Z M9.625,8.33333333 C10.0806349,8.33333333 10.45,8.68311087 10.45,9.11458333 C10.45,9.54605579 10.0806349,9.89583333 9.625,9.89583333 C9.16936508,9.89583333 8.8,9.54605579 8.8,9.11458333 C8.8,8.68311087 9.16936508,8.33333333 9.625,8.33333333 Z" id="Combined-Shape" fill="#A77B3B"></path>
                    <polygon id="Path-148" fill="#FDFF00" fill-rule="nonzero" points="13.2124946 5.25477882 13.7861986 5.50274812 11.448966 10.91019 10.875262 10.6622207"></polygon>
                    <g id="shield" transform="translate(4.400000, 3.645833)">
                        <mask id="mask-4" fill="white">
                            <use xlink:href="#path-3"></use>
                        </mask>
                        <use fill="#E1E5E8" opacity="0.300000012" xlink:href="#path-3"></use>
                        <rect id="Rectangle-37" fill="#3D58DB" mask="url(#mask-4)" x="0" y="3.125" width="6.6" height="3.125"></rect>
                        <rect id="Rectangle-37" fill="#FD1900" mask="url(#mask-4)" x="0" y="0" width="6.6" height="3.125"></rect>
                        <polygon id="Star-18" fill="#FDFF00" mask="url(#mask-4)" transform="translate(3.161978, 1.067207) rotate(-330.000000) translate(-3.161978, -1.067207) " points="3.16197767 1.45783235 2.74947767 1.74378969 2.80474219 1.26251985 2.33697767 1.06720735 2.80474219 0.871894847 2.74947767 0.390625 3.16197767 0.676582347 3.57447767 0.390625 3.51921315 0.871894847 3.98697767 1.06720735 3.51921315 1.26251985 3.57447767 1.74378969"></polygon>
                        <path d="M2.06876067,0.523969641 C1.17296354,1.06896823 0.874364494,1.5370789 1.17296354,1.92830166 C1.47156258,2.31952442 1.80879624,2.54017578 2.1846645,2.59025576 C1.26833082,3.96496554 1.61655667,5.04500446 3.22934205,5.8303725 C4.95601189,5.07220929 5.36531395,3.99217037 4.45724823,2.59025576 C4.98875986,2.47266884 5.30772399,2.20237046 5.41414062,1.77936064 C5.52055725,1.35635081 5.17318868,0.902257475 4.37203491,0.417080643 C4.87188445,1.14158059 5.06475269,1.59567392 4.95063962,1.77936064 C4.77947001,2.05489071 3.86252671,2.33539991 3.22934205,2.33539991 C2.59615738,2.33539991 1.61840458,2.15761239 1.46060849,1.67615187 C1.3554111,1.35517818 1.55812849,0.971117442 2.06876067,0.523969641 Z" id="Path-145" fill="#FDFF00" mask="url(#mask-4)"></path>
                        <polygon id="Rectangle-39" fill="#FDFF00" mask="url(#mask-4)" points="0.825 2.60416667 1.65 3.125 0.825 3.64583333 0 3.125"></polygon>
                        <polygon id="Rectangle-39" fill="#FDFF00" mask="url(#mask-4)" points="5.775 2.60416667 6.6 3.125 5.775 3.64583333 4.95 3.125"></polygon>
                        <circle id="Oval-30" fill="#FDFF00" mask="url(#mask-4)" cx="1.175" cy="4.79166667" r="1"></circle>
                        <path d="M6.39197748,4.51621363 C6.39197748,4.24007125 6.14573409,4.01621363 5.84197748,4.01621363 C5.53822086,4.01621363 5.29197748,4.24007125 5.29197748,4.51621363 C5.29197748,4.66629979 5.54531059,4.38282754 5.84197748,4.36976702 C6.09114571,4.35879759 6.39197748,4.64226984 6.39197748,4.51621363 Z" id="Oval-30" fill="#FDFF00" mask="url(#mask-4)" transform="translate(5.916977, 4.641214) rotate(-51.000000) translate(-5.916977, -4.641214) "></path>
                    </g>
                    <path d="M3.47350716,7.5959476 C3.56407316,8.22793014 3.4290245,8.60989007 3.06836119,8.74182738 C2.70769788,8.87376468 2.25970312,8.70628965 1.72437689,8.23940229 L1.72437689,8.23940229 L2.29108163,8.23940229 L2.29108163,8.02227758 L2.60351943,8.23940229 L2.60351943,8.02227758 L3.0035569,8.02227758 Z M2.65511271,6.50907567 C2.74567871,7.14105822 2.61063005,7.52301815 2.24996674,7.65495545 C1.88930343,7.78689276 1.44130867,7.61941773 0.905982444,7.15253036 L0.905982444,7.15253036 L1.47268718,7.15253036 L1.47268718,6.93540565 L1.78512498,7.15253036 L1.78512498,6.93540565 L2.18516245,6.93540565 Z M2.2095344,5.31215726 C2.30980288,5.92083525 2.15315279,6.31006117 1.73958414,6.47983504 C1.32601548,6.6496089 0.899622151,6.47486787 0.460404134,5.95561195 L0.460404134,5.95561195 L1.02710887,5.95561195 L1.02710887,5.73848724 L1.33954667,5.95561195 L1.33954667,5.73848724 L1.73958414,5.73848724 Z" id="Combined-Shape" fill="#048F02"></path>
                    <g id="cross" transform="translate(4.950000, 0.000000)" fill="#FDFF00" fill-rule="nonzero">
                        <path d="M1.28708877,0.155303972 L1.28691577,0.527303972 L1.64468949,0.527546046 L1.64468949,1.15254605 L1.28691577,1.15230397 L1.28708877,2.24294046 L0.662088774,2.24294046 L0.661915769,1.15230397 L0.367915769,1.15254605 L0.367915769,0.527546046 L0.661915769,0.527303972 L0.662088774,0.155303972 L1.28708877,0.155303972 Z" id="Combined-Shape"></path>
                    </g>
                    <polygon id="beak" fill="#DB4400" points="6.97381731 0.865343805 5.52622745 1.23825126 6.97381731 1.69567477"></polygon>
                </g>
            </g>
        </g>
    </g>
</svg>