<?xml version="1.0" encoding="UTF-8"?>
<svg width="20px" height="15px" viewBox="0 0 20 15" version="1.1" xmlns="http://www.w3.org/2000/svg" xmlns:xlink="http://www.w3.org/1999/xlink">
    <title>flags/M/ME - Montenegro</title>
    <defs>
        <rect id="path-1" x="0" y="0" width="20" height="15"></rect>
        <rect id="path-3" x="2" y="2" width="16" height="11"></rect>
        <path d="M0.115384615,0.177364865 C0.589422685,0.0879082653 0.9548073,0.0431799655 1.21153846,0.0431799655 C1.44198679,0.0431799655 1.8073714,0.0879082653 2.30769231,0.177364865 C2.30769231,1.02739786 2.5468977,1.54780342 2.30769231,2.12837838 C2.06848692,2.70895334 1.48391991,2.42987645 1.21933938,2.98544964 C0.88120682,2.45847597 0.424556213,2.74854697 0.115384615,1.99815716 C-0.193786982,1.24776734 0.303344964,0.902151694 0.115384615,0.177364865 Z" id="path-5"></path>
    </defs>
    <g id="Symbols" stroke="none" stroke-width="1" fill="none" fill-rule="evenodd">
        <g id="flag">
            <mask id="mask-2" fill="white">
                <use xlink:href="#path-1"></use>
            </mask>
            <g id="mask"></g>
            <g id="contents" mask="url(#mask-2)">
                <path d="M0,0 L20,0 L20,13.75 C20,14.4403559 19.4403559,15 18.75,15 L1.25,15 C0.559644063,15 8.45442189e-17,14.4403559 0,13.75 L0,0 L0,0 Z" id="background" fill="#E8AA00"></path>
                <mask id="mask-4" fill="white">
                    <use xlink:href="#path-3"></use>
                </mask>
                <use id="top" fill="#C51918" xlink:href="#path-3"></use>
                <g id="mark" mask="url(#mask-4)">
                    <g transform="translate(6.124992, 2.749996)">
                        <ellipse id="Oval-32" fill="#1E5E91" fill-rule="evenodd" cx="6.51923077" cy="6.62162162" rx="1" ry="1"></ellipse>
                        <path d="M6.42376752,1.10826324 C7.58064161,2.73625436 7.7554875,4.01930168 6.94830516,4.9574052 C6.14112283,5.89550872 5.441095,6.22312073 4.84822169,5.94024124 L5.34467205,6.38542052 L5.20411481,6.50705252 L5.61775297,6.50705252 L5.4656588,6.60875296 L5.57763013,6.65779639 L5.69615576,6.70971061 C5.48313533,6.86635694 5.48313533,6.9446801 5.69615576,6.9446801 C5.80190472,6.9446801 5.92082578,6.93815122 6.03959358,6.938381 C6.07285395,6.93844534 5.89238019,6.57480945 5.92532387,6.57622573 C5.98737247,6.57889325 6.15707549,6.84132698 6.24234072,6.89835846 C6.25732133,6.90837856 6.29908249,6.89973227 6.34952514,6.88446673 L6.50879855,6.8308595 C6.55850515,6.8144026 6.59879419,6.80337359 6.61156662,6.80981959 C6.70496963,6.85695833 6.65093778,6.96476582 6.6366151,7.04976721 C6.63115428,7.08217573 7.03686873,6.78866811 7.05332504,6.80981959 C7.08683107,6.85288525 7.17598967,6.91082322 6.72731438,7.25664481 C6.72731438,7.52179687 6.76700037,7.58149942 6.64792219,7.58149942 C6.50374078,7.58149942 6.15449197,7.83633857 5.92532387,7.58149942 C5.77254513,7.41160666 5.57899453,7.19933355 5.34467205,6.9446801 L5.34467205,7.13242048 L4.92819496,6.70971061 L4.84822169,6.9446801 L4.2878048,6.30098997 L4.13643547,6.38542052 C4.48032856,7.33445958 4.74424839,7.8122804 4.92819496,7.81888298 C5.20411481,7.82878686 4.08165015,8.35759201 3.82397194,8.71314121 C3.78780658,8.76304286 3.75742114,8.7243839 3.73281563,8.59716434 C3.7081241,8.7243839 3.67773867,8.76304286 3.6415733,8.71314121 C3.38389509,8.35759201 2.26143044,7.82878686 2.53735029,7.81888298 C2.72129685,7.8122804 2.98521668,7.33445958 3.32910978,6.38542052 L3.32910978,6.38542052 L3.17774044,6.30098997 L2.61732355,6.9446801 L2.53735029,6.70971061 L2.12087319,7.13242048 L2.12087319,6.9446801 C1.88655072,7.19933355 1.69300011,7.41160666 1.54022138,7.58149942 C1.31105327,7.83633857 0.961804463,7.58149942 0.817623054,7.58149942 C0.673441644,7.58149942 0.625179832,7.37976982 0.817623054,7.13242048 C1.01006628,6.88507114 1.44985884,6.9446801 1.76938948,6.9446801 C1.98240991,6.9446801 1.98240991,6.86635694 1.76938948,6.70971061 L1.76938948,6.70971061 L1.88791512,6.65779639 L1.99988645,6.60875296 L1.84779228,6.50705252 L2.26143044,6.50705252 L2.12087319,6.38542052 L2.61732355,5.94024124 C2.02445024,6.22312073 1.32442242,5.89550872 0.517240084,4.9574052 C-0.28994225,4.01930168 -0.115096369,2.73625436 1.04177773,1.10826324 C1.21473099,2.08057641 1.62128189,2.89387044 2.26143044,3.54814534 C2.26143044,3.66649668 1.99988645,3.88042043 1.91546493,4.03386863 C1.83104341,4.18731683 2.12087319,4.27478045 2.26143044,4.27478045 C2.40198768,4.27478045 2.4024105,4.72893513 2.53735029,4.52677223 C2.62731014,4.39199697 2.58233021,4.17654637 2.4024105,3.88042043 L2.4024105,3.88042043 L2.82963928,3.42979401 L2.97412271,3.13849621 L2.82963928,3.13849621 L2.82963928,2.83859443 L2.72840424,2.9217251 C2.65435045,2.74296011 2.54568587,2.65357762 2.4024105,2.65357762 C2.25913513,2.65357762 2.16528936,2.61270349 2.12087319,2.53095523 L2.12087319,2.53095523 L2.4024105,2.53095523 C2.54339056,2.53095523 2.37988027,2.34414335 2.26143044,2.24683775 C2.14298061,2.14953215 1.88791512,2.34414335 1.88791512,2.16321189 C1.88791512,1.98228042 2.12087319,2.06089245 2.26143044,1.9596872 C2.40198768,1.85848196 2.61732355,1.9596872 2.82963928,1.9596872 L2.82963928,1.9596872 L3.17774044,1.9596872 C3.26153922,1.9596872 3.19366664,2.02752876 2.97412271,2.16321189 L2.97412271,2.16321189 L3.17774044,2.34414335 L3.48053952,2.65357762 L3.32910978,2.7434553 L3.6415733,3.04645205 C3.57086179,3.16141956 3.57086179,3.21890332 3.6415733,3.21890332 C3.68130644,3.21890332 3.71177723,3.24109865 3.73298569,3.2854893 C3.75376801,3.24109865 3.78423881,3.21890332 3.82397194,3.21890332 C3.89468345,3.21890332 3.89468345,3.16141956 3.82397194,3.04645205 L4.13643547,2.7434553 L3.98500572,2.65357762 L4.2878048,2.34414335 L4.49142254,2.16321189 C4.27187861,2.02752876 4.20400603,1.9596872 4.2878048,1.9596872 L4.63590596,1.9596872 L4.63590596,1.9596872 C4.84822169,1.9596872 5.06355756,1.85848196 5.20411481,1.9596872 C5.34467205,2.06089245 5.57763013,1.98228042 5.57763013,2.16321189 C5.57763013,2.34414335 5.32256464,2.14953215 5.20411481,2.24683775 C5.08566498,2.34414335 4.92215468,2.53095523 5.06313475,2.53095523 L5.34467205,2.53095523 L5.34467205,2.53095523 C5.30025588,2.61270349 5.20641011,2.65357762 5.06313475,2.65357762 C4.91985938,2.65357762 4.8111948,2.74296011 4.737141,2.9217251 L4.63590596,2.83859443 L4.63590596,3.13849621 L4.49142254,3.13849621 L4.63590596,3.42979401 L5.06313475,3.88042043 C4.88321503,4.17654637 4.8382351,4.39199697 4.92819496,4.52677223 C5.06313475,4.72893513 5.06355756,4.27478045 5.20411481,4.27478045 C5.34467205,4.27478045 5.63450183,4.18731683 5.55008032,4.03386863 C5.4656588,3.88042043 5.20411481,3.66649668 5.20411481,3.54814534 C5.84426335,2.89387044 6.25081426,2.08057641 6.42376752,1.10826324 Z" id="Combined-Shape" fill="#F6C540" fill-rule="evenodd"></path>
                        <path d="M1.64568461,7.89396675 L1.09873754,6.93508572 C0.62199862,5.83587913 0.383629159,5.21954846 0.383629159,5.08609371 C0.383629159,4.88591158 0.0957495632,4.29310262 0.0957495632,4.46518249 C0.0957495632,4.57990241 0.0957495632,4.78687281 0.0957495632,5.08609371 L1.30229487,7.80421286 L1.30229487,8.01838421 L1.46477832,8.01838421 L1.64568461,7.89396675 Z" id="Path-155" fill="#F6C540" fill-rule="evenodd"></path>
                        <polygon id="Path-156" fill="#F6C540" fill-rule="nonzero" points="6.02616854 6.60308246 6.10938016 6.32688346 7.12555221 6.63302982 7.04234059 6.90922882"></polygon>
                        <polygon id="Path-157" fill="#F6C540" fill-rule="nonzero" points="6.56742826 6.10021739 6.84221077 6.19016804 6.5737419 7.05143063 6.29895939 6.96147998"></polygon>
                        <path d="" id="Combined-Shape" fill="#F6C540" fill-rule="nonzero"></path>
                        <path d="M3.83366376,0.514018986 C3.90926573,0.536776358 3.97780897,0.562692437 4.03918387,0.59164131 L4.04003484,0.568359222 C4.52242605,0.61242178 4.77275311,0.814346208 4.74592227,1.16936803 C4.72373962,1.46288553 4.57531804,1.6168271 4.32783093,1.61327577 L4.32692308,1.83277027 C4.05769231,1.93612096 3.85576923,1.9877963 3.72115385,1.9877963 C3.58653846,1.9877963 3.38461538,1.93612096 3.11538462,1.83277027 L3.11337088,1.60929392 C2.91034694,1.58329882 2.78912375,1.43236077 2.76924803,1.16936803 C2.74241718,0.814346208 2.99274425,0.61242178 3.47513545,0.568359222 L3.47558813,0.59301484 C3.53770213,0.563511627 3.60721442,0.537135685 3.68401011,0.514018986 L3.71341714,0.617018986 L3.80341714,0.617018986 Z M3.83141714,0.700018986 L3.83066227,1.31885622 C3.93379843,1.33095867 4.06255115,1.35849327 4.21692042,1.40146003 L4.17051537,1.37549775 C4.34985736,1.03418486 4.23525317,0.819761951 3.78488526,0.684194183 L3.83141714,0.700018986 Z M3.65841714,0.708018986 L3.7327886,0.684194183 C3.28468158,0.81908139 3.16897561,1.03203401 3.34447979,1.37036709 C3.47200414,1.3387752 3.57665618,1.32031041 3.66096797,1.31409917 L3.65841714,0.708018986 Z" id="Combined-Shape" fill="#F6C540" fill-rule="nonzero"></path>
                        <ellipse id="Oval-33" fill="#3D58DB" fill-rule="evenodd" cx="3.72115385" cy="0.502533784" rx="1" ry="1"></ellipse>
                        <path d="" id="Combined-Shape" fill="#F6C540" fill-rule="nonzero" transform="translate(3.720057, 0.199746) rotate(-14.000000) translate(-3.720057, -0.199746) "></path>
                        <g id="shield" stroke-width="1" fill="none" fill-rule="evenodd" transform="translate(2.480769, 3.547297)">
                            <mask id="mask-6" fill="white">
                                <use xlink:href="#path-5"></use>
                            </mask>
                            <use fill="#1E5E91" xlink:href="#path-5"></use>
                            <rect id="Rectangle-44" fill="#5EAA22" mask="url(#mask-6)" x="0.115384615" y="1.95101351" width="2.19230769" height="1.06418919"></rect>
                            <path d="M1.20376333,0.39751233 C1.27909067,0.530009894 1.27909067,0.690526864 1.20376333,0.87906324 C1.09077232,1.1618678 1.39227093,1.02112908 1.67361574,1.02112908 C1.95496055,1.02112908 1.9173163,0.971754614 2.18037704,1.37413076 C2.25012799,1.4808214 2.24726179,1.55117525 2.20538366,1.59333705 C2.20916373,1.7021474 2.09063593,1.79259987 1.87135663,1.85045788 L1.84258617,1.73594935 C1.95988494,1.70499945 2.031124,1.67541436 2.0634943,1.64262195 C1.89709355,1.65391951 1.67361574,1.57238376 1.67361574,1.4676448 C1.67361574,1.41767361 1.6186764,1.38721418 1.53357467,1.36953723 L1.53198071,1.39432687 C1.53346723,1.39432687 1.5450081,1.38299212 1.54725367,1.37581994 C1.54775455,1.38015072 1.54932399,1.3900598 1.55269448,1.4048783 C1.55503864,1.41518447 1.56587534,1.45819346 1.56693697,1.46255474 C1.58202416,1.52453434 1.58967302,1.57322764 1.58967302,1.62665348 C1.58967302,1.77588809 1.4625829,1.86359305 1.23267196,1.89738131 L1.21629229,1.78033554 C1.39637947,1.7538695 1.47428841,1.7001045 1.47428841,1.62665348 C1.47428841,1.58470605 1.46798901,1.54460355 1.45498305,1.49117383 C1.45421418,1.48801528 1.44303441,1.44364467 1.44032206,1.43171976 C1.43497095,1.40819338 1.43224699,1.39052366 1.43224699,1.37365163 L1.43625468,1.35557778 C1.28843641,1.3416529 1.09592355,1.34934114 0.932180508,1.35868997 C0.901303449,1.63869572 0.756872558,1.81709587 0.504087997,1.88436392 L0.475087335,1.7699164 C0.672968626,1.71725855 0.785730064,1.58618044 0.816619786,1.36702578 C0.739190869,1.37043302 0.677108081,1.37413076 0.638015741,1.37413076 C0.523384068,1.37413076 0.534357205,1.28724702 0.589993168,1.17221294 L0.613334337,1.17376831 C0.379255244,1.17376831 0.318627842,0.935089669 0.404527591,0.503347722 L0.517586147,0.526970335 C0.444453121,0.894545274 0.485344031,1.05552507 0.613334337,1.05552507 L0.61223442,1.12890238 C0.655299433,1.04912915 0.713470746,0.960244121 0.763573891,0.87906324 C0.89898196,0.659664909 0.847354803,0.774295026 0.763573891,0.596258676 C0.70771995,0.477567776 0.854449763,0.411318994 1.20376333,0.39751233 Z M2.02051342,0.568695643 L2.00285267,0.685545617 C1.74926064,0.645294967 1.64175305,0.674726424 1.64175305,0.744187217 C1.64175305,0.820537329 1.75502576,0.868588571 2.01121718,0.866468522 L2.02002196,0.86639566 L2.02844709,0.869017595 C2.22516135,0.930235816 2.22516135,1.05492185 2.03083219,1.12499383 L1.99253389,1.01345403 C2.00904222,1.00750139 2.02311122,1.00172794 2.03463118,0.996272755 C2.02561818,0.992534004 2.01508633,0.988674954 2.00309126,0.98476205 C1.69487446,0.985889151 1.52636843,0.912779127 1.52636843,0.744187217 C1.52636843,0.567061767 1.70394237,0.518448833 2.02051342,0.568695643 Z" id="lion" fill="#F6C540" fill-rule="nonzero" mask="url(#mask-6)"></path>
                        </g>
                    </g>
                </g>
            </g>
        </g>
    </g>
</svg>