<?xml version="1.0" encoding="UTF-8"?>
<svg width="20px" height="15px" viewBox="0 0 20 15" version="1.1" xmlns="http://www.w3.org/2000/svg" xmlns:xlink="http://www.w3.org/1999/xlink">
    <title>flags/M/MH - Marshall Islands</title>
    <defs>
        <rect id="path-1" x="0" y="0" width="20" height="15"></rect>
        <rect id="path-3" x="0" y="0" width="20" height="15"></rect>
    </defs>
    <g id="Symbols" stroke="none" stroke-width="1" fill="none" fill-rule="evenodd">
        <g id="flag">
            <mask id="mask-2" fill="white">
                <use xlink:href="#path-1"></use>
            </mask>
            <g id="mask"></g>
            <g id="contents" mask="url(#mask-2)">
                <mask id="mask-4" fill="white">
                    <use xlink:href="#path-3"></use>
                </mask>
                <use id="background" fill="#3D58DB" xlink:href="#path-3"></use>
                <polygon id="Star-16" fill="#F7FCFF" mask="url(#mask-4)" points="5 6.875 4.48937507 8.7150723 4.49413105 6.80546991 3.50599591 8.43954238 4.02578009 6.60203638 2.63342021 7.90891734 3.62968257 6.27978714 1.9363629 7.16255121 3.33521522 5.86262195 1.46652154 6.25579855 3.16421734 5.38148002 1.25874212 5.25590905 3.12937106 4.87204547 1.32843467 4.23703995 3.23326077 4.37210073 1.67043043 3.27475611 3.46818145 3.9187244 2.25936513 2.44042571 3.8167101 3.54554133 3.05156019 1.79592723 4.25299796 3.28022881 3.98826211 1.38906017 4.74468753 3.14246385 5 1.25 5.25531247 3.14246385 6.01173789 1.38906017 5.74700204 3.28022881 6.94843981 1.79592723 6.1832899 3.54554133 7.74063487 2.44042571 6.53181855 3.9187244 8.32956957 3.27475611 6.76673923 4.37210073 8.67156533 4.23703995 6.87062894 4.87204547 8.74125788 5.25590905 6.83578266 5.38148002 8.53347846 6.25579855 6.66478478 5.86262195 8.0636371 7.16255121 6.37031743 6.27978714 7.36657979 7.90891734 5.97421991 6.60203638 6.49400409 8.43954238 5.50586895 6.80546991 5.51062493 8.7150723"></polygon>
                <polygon id="white" fill="#FFFFFF" fill-rule="nonzero" mask="url(#mask-4)" points="-0.48874694 15.4657915 20.7864146 0.75927368 20.7864146 5.55350354"></polygon>
                <polygon id="gold" fill="#E2AE57" fill-rule="nonzero" mask="url(#mask-4)" points="-0.48874694 15.4657915 20.7864146 -2.99072632 20.7864146 1.80350354"></polygon>
            </g>
        </g>
    </g>
</svg>