<?xml version="1.0" encoding="UTF-8"?>
<svg width="20px" height="15px" viewBox="0 0 20 15" version="1.1" xmlns="http://www.w3.org/2000/svg" xmlns:xlink="http://www.w3.org/1999/xlink">
    <title>flags/M/MO - Macao</title>
    <defs>
        <rect id="path-1" x="0" y="0" width="20" height="15"></rect>
        <rect id="path-3" x="0" y="0" width="20" height="15"></rect>
        <circle id="path-5" cx="5" cy="5" r="5"></circle>
    </defs>
    <g id="Symbols" stroke="none" stroke-width="1" fill="none" fill-rule="evenodd">
        <g id="flag">
            <mask id="mask-2" fill="white">
                <use xlink:href="#path-1"></use>
            </mask>
            <g id="mask"></g>
            <g id="contents" mask="url(#mask-2)">
                <mask id="mask-4" fill="white">
                    <use xlink:href="#path-3"></use>
                </mask>
                <use id="background" fill="#1C9975" xlink:href="#path-3"></use>
                <g id="mark-2" mask="url(#mask-4)" fill="#FECA00">
                    <g transform="translate(3.750000, 1.250000)" id="Star-5">
                        <polygon points="6.26349463 3.03358232 5.24241988 3.65000367 5.47532057 2.44711897 4.62501526 1.54687807 5.77637627 1.49820134 6.26349463 0.375003815 6.75061299 1.49820134 7.90001512 1.49820134 7.05166869 2.44711897 7.30707123 3.65000367"></polygon>
                        <polygon points="3.3641363 3.4902959 2.73278475 3.87144191 2.87679204 3.12767353 2.35103076 2.57103604 3.06294098 2.54093822 3.3641363 1.84644206 3.66533161 2.54093822 4.37603061 2.54093822 3.85148055 3.12767353 4.0094012 3.87144191"></polygon>
                        <polygon points="9.11311927 3.4902959 8.48176773 3.87144191 8.62577502 3.12767353 8.10001373 2.57103604 8.81192396 2.54093822 9.11311927 1.84644206 9.41431458 2.54093822 10.1250136 2.54093822 9.60046352 3.12767353 9.75838418 3.87144191"></polygon>
                        <polygon points="1.72905919 4.75664202 1.22241904 5.06249994 1.33798046 4.46564875 0.916073236 4.01896433 1.48735924 3.99481175 1.72905919 3.4375 1.97075914 3.99481175 2.54107318 3.99481175 2.12013792 4.46564875 2.24686438 5.06249994"></polygon>
                        <polygon points="10.9754921 4.75664202 10.4688519 5.06249994 10.5844133 4.46564875 10.1625061 4.01896433 10.7337921 3.99481175 10.9754921 3.4375 11.217192 3.99481175 11.787506 3.99481175 11.3665708 4.46564875 11.4932972 5.06249994"></polygon>
                    </g>
                </g>
                <g id="mark" mask="url(#mask-4)">
                    <g transform="translate(5.000000, 3.750000)">
                        <g id="stripes" stroke-width="1" fill="none">
                            <mask id="mask-6" fill="white">
                                <use xlink:href="#path-5"></use>
                            </mask>
                            <g id="Oval-29"></g>
                            <polygon id="Rectangle-35" fill="#F7FCFF" mask="url(#mask-6)" points="2.92553191 9.41489362 7.07446809 9.41489362 7.07446809 10.0851064 2.92553191 10.0851064"></polygon>
                            <polygon id="Rectangle-35" fill="#F7FCFF" mask="url(#mask-6)" points="1.22340426 8.41249466 9.20212766 8.41249466 9.20212766 9.02685637 1.22340426 9.02685637"></polygon>
                            <path d="M2.88767069,8.13786637 L0.447226357,8.13786637 L0.447226357,7.51286637 L2.88327652,7.51289727 C3.74621718,7.50076198 4.3767891,7.25429021 4.7975195,6.7800955 L5.00716573,6.54380848 L5.2411807,6.75598787 C5.80309456,7.26547039 6.36436576,7.51286637 6.93216592,7.51286637 L9.6223257,7.51286637 L9.6223257,8.13786637 L6.93216592,8.13786637 C6.2798573,8.13786637 5.65010231,7.89249039 5.04792249,7.41202473 C4.51463091,7.88473297 3.79049975,8.12519718 2.88767069,8.13786637 Z" id="Path-132" fill="#F7FCFF" fill-rule="nonzero" mask="url(#mask-6)"></path>
                        </g>
                        <path d="M5.0216872,1.00487097 C5.76362188,1.6558846 6.13458921,2.49017239 6.13458921,3.50773432 C6.13458921,3.71551619 6.11912138,3.91591963 6.08818573,4.10894461 C6.32461407,3.42171748 6.31249454,2.68388664 6.05032237,1.88752445 L6.45451432,1.75445952 C6.78617394,2.7618936 6.75527419,3.70316166 6.36123884,4.56730299 C7.03140369,4.04397098 7.83300714,3.73079773 8.75974146,3.62835454 L8.80649587,4.05131014 C8.60194887,4.0739212 8.40447649,4.10752735 8.2140181,4.15214571 C8.77691293,4.15665765 9.33125005,4.30572384 9.87745308,4.60043988 C9.47180635,5.5002935 8.78243333,6.09897347 7.80933402,6.39647979 C7.45745123,6.50406115 7.11351431,6.55848834 6.77752325,6.55976134 C6.99528074,6.62347967 7.2167595,6.65510462 7.44219018,6.65510462 C8.1486901,6.65510462 8.8056968,6.3662556 9.4209298,5.77940795 L9.7146392,6.08732384 C9.02359764,6.74648244 8.26354146,7.08063654 7.44219018,7.08063654 C6.78703437,7.08063654 5.96186025,6.7021541 5.29457542,6.19352212 C5.22017529,6.15568664 5.14602686,6.11412161 5.07233351,6.06951236 C5.079298,6.05650176 5.08631018,6.0435561 5.09337006,6.03067537 L5.09323134,6.03203103 L5.06806774,6.00829993 C4.99429597,6.06451046 4.91946072,6.11720553 4.84356199,6.16638513 L4.9286075,6.0876555 C4.2346557,6.7465997 3.47327703,7.08063654 2.65206096,7.08063654 C1.83070968,7.08063654 1.07065351,6.74648244 0.379611939,6.08732384 L0.673321344,5.77940795 C1.28855434,6.3662556 1.94556105,6.65510462 2.65206096,6.65510462 L2.6543902,6.65487097 L2.444254,6.62535369 C1.52224055,6.46786922 0.808350312,5.88548806 0.302583289,4.87821021 L0.1973902,4.65586144 C1.08156887,4.32970954 1.97427321,4.2816413 2.87550325,4.51165672 C3.0136942,4.54692635 3.1478793,4.58851753 3.27805856,4.63643025 C2.73386142,4.32923163 2.1180439,4.12102947 1.48734018,4.05131014 L1.53409459,3.62835454 C2.26824959,3.7095096 2.98347119,3.96154047 3.60476724,4.33663014 C3.30095904,3.5376 3.30176915,2.67356591 3.60435022,1.75445952 L4.00854217,1.88752445 C3.72471344,2.74966962 3.73395444,3.54321417 4.0357712,4.27755449 C3.98078107,4.03055804 3.95371539,3.77388426 3.95371539,3.50773432 C3.95371539,2.54249242 4.309706,1.70820464 5.0216872,1.00487097 Z" id="peddles" fill="#F7FCFF"></path>
                    </g>
                </g>
            </g>
        </g>
    </g>
</svg>