<?xml version="1.0" encoding="UTF-8"?>
<svg width="20px" height="15px" viewBox="0 0 20 15" version="1.1" xmlns="http://www.w3.org/2000/svg" xmlns:xlink="http://www.w3.org/1999/xlink">
    <title>flags/M/MR - Mauritania</title>
    <defs>
        <rect id="path-1" x="0" y="0" width="20" height="15"></rect>
        <rect id="path-3" x="0" y="0" width="20" height="15"></rect>
    </defs>
    <g id="Symbols" stroke="none" stroke-width="1" fill="none" fill-rule="evenodd">
        <g id="flag">
            <mask id="mask-2" fill="white">
                <use xlink:href="#path-1"></use>
            </mask>
            <g id="mask"></g>
            <g id="contents" mask="url(#mask-2)">
                <mask id="mask-4" fill="white">
                    <use xlink:href="#path-3"></use>
                </mask>
                <use id="background" fill="#1C7B4D" xlink:href="#path-3"></use>
                <rect id="top" fill="#E31D1C" mask="url(#mask-4)" x="0" y="0" width="20" height="3.75"></rect>
                <rect id="bottom" fill="#E31D1C" mask="url(#mask-4)" x="0" y="11.25" width="20" height="3.75"></rect>
                <g id="mark" mask="url(#mask-4)" fill="#FECA00">
                    <g transform="translate(10.000000, 6.875000) rotate(-90.000000) translate(-10.000000, -6.875000) translate(6.250000, 2.500000)">
                        <path d="M1.63841133,4.52624785 C1.62044645,7.76705104 4.33431941,8.6797766 4.33431941,8.6797766 C2.01254827,8.49620513 0.438056194,7.21205684 0.438056194,4.52624785 C0.438056194,1.84043886 2.47754044,0.854208888 4.51202501,0.372719097 C4.51202501,0.372719097 1.65637621,1.28544467 1.63841133,4.52624785 Z" id="Shape-sp-1695-0"></path>
                        <polygon id="Star-17" transform="translate(4.840756, 4.323147) rotate(18.000000) translate(-4.840756, -4.323147) " points="4.840756 5.45352551 3.73865866 6.03293237 3.94914052 4.80572894 3.05752504 3.93661865 4.28970733 3.75757208 4.92589771 2.61336129 5.30666298 3.78523629 6.62398697 3.93661865 5.64722979 4.83339316 6.02799505 6.00526816"></polygon>
                    </g>
                </g>
            </g>
        </g>
    </g>
</svg>