<?xml version="1.0" encoding="UTF-8"?>
<svg width="20px" height="15px" viewBox="0 0 20 15" version="1.1" xmlns="http://www.w3.org/2000/svg" xmlns:xlink="http://www.w3.org/1999/xlink">
    <title>flags/M/MS - Montserrat</title>
    <defs>
        <rect id="path-1" x="0" y="0" width="20" height="15"></rect>
        <rect id="path-3" x="0" y="0" width="20" height="15"></rect>
        <rect id="path-5" x="0" y="0" width="11" height="9"></rect>
        <path d="M0.654175243,0.0204318193 C0.654175243,4.44060783 0.372799276,7.47749281 3.70540519,7.47749281 C7.03801111,7.47749281 7.03801111,3.74896231 6.81710241,0.0204318193 L0.654175243,0.0204318193 Z" id="path-7"></path>
    </defs>
    <g id="Symbols" stroke="none" stroke-width="1" fill="none" fill-rule="evenodd">
        <g id="flag">
            <mask id="mask-2" fill="white">
                <use xlink:href="#path-1"></use>
            </mask>
            <g id="mask"></g>
            <g id="contents" mask="url(#mask-2)">
                <mask id="mask-4" fill="white">
                    <use xlink:href="#path-3"></use>
                </mask>
                <use id="background" fill="#2E42A5" xlink:href="#path-3"></use>
                <g id="gb---medium" mask="url(#mask-4)">
                    <g id="flag">
                        <mask id="mask-6" fill="white">
                            <use xlink:href="#path-5"></use>
                        </mask>
                        <use id="mask" fill="#2E42A5" xlink:href="#path-5"></use>
                        <g id="contents" mask="url(#mask-6)">
                            <g transform="translate(-2.500000, -1.250000)">
                                <g id="stripe" transform="translate(1.000000, 0.000000)">
                                    <polygon id="white" fill="#F7FCFF" fill-rule="nonzero" transform="translate(7.179664, 5.457378) scale(1, -1) translate(-7.179664, -5.457378) " points="0.247333589 1.53986811 2.72292762 0.454117833 12.8061752 8.48429142 14.1119945 10.0977486 11.4647029 10.4606384 7.35198716 7.00020684 4.04167375 4.66868453"></polygon>
                                    <polygon id="red" fill="#F50100" fill-rule="nonzero" transform="translate(7.114665, 5.716384) scale(1, -1) translate(-7.114665, -5.716384) " points="0.586246133 1.29717712 1.84744698 0.66709794 13.6430838 10.7656701 11.8722111 10.7656701"></polygon>
                                </g>
                                <g id="stripe" transform="translate(7.750000, 5.500000) scale(-1, 1) translate(-7.750000, -5.500000) translate(0.250000, 0.000000)">
                                    <polygon id="white" fill="#F7FCFF" fill-rule="nonzero" transform="translate(7.179664, 5.612355) scale(1, -1) translate(-7.179664, -5.612355) " points="0.247333589 1.84982105 2.4444201 0.454117833 12.8061752 8.79424437 14.1119945 10.4077016 11.4647029 10.7705913 7.35198716 7.31015978 4.04167375 4.97863747"></polygon>
                                    <polygon id="red" fill="#F50100" fill-rule="nonzero" transform="translate(7.284723, 5.686725) scale(1, -1) translate(-7.284723, -5.686725) " points="0.331803828 1.45261194 1.59300468 0.822532761 6.61570908 5.14625614 8.10483314 5.62933537 14.237643 10.5509178 12.4667702 10.5509178 6.33740601 5.74615285 4.70931125 5.16688909"></polygon>
                                </g>
                                <g id="cross" transform="translate(2.500000, 1.250000)">
                                    <path d="M6.46875,-0.46875 L6.46875,3.53125 L11.46875,3.53125 L11.46875,5.46875 L6.46875,5.46875 L6.46875,9.46875 L4.53125,9.46875 L4.53125,5.46875 L-0.46875,5.46875 L-0.46875,3.53125 L4.53125,3.53125 L4.53125,-0.46875 L6.46875,-0.46875 Z" id="red" stroke="#F7FCFF" stroke-width="0.9375" fill="#F50100"></path>
                                </g>
                            </g>
                        </g>
                    </g>
                </g>
                <g id="masked" mask="url(#mask-4)">
                    <g transform="translate(12.500000, 6.250000)">
                        <mask id="mask-8" fill="white">
                            <use xlink:href="#path-7"></use>
                        </mask>
                        <path stroke="#F7FCFF" stroke-width="0.5" d="M6.57911175,0.270431819 C6.69764137,2.7435332 6.6753394,4.53638765 6.10772755,5.75721736 C5.88956149,6.22645282 5.58900385,6.60760429 5.17326654,6.86297116 C4.78715226,7.10014207 4.3041373,7.22749281 3.70540519,7.22749281 C3.14027808,7.22749281 2.68624795,7.13685509 2.3232454,6.95714306 C1.95557488,6.77512005 1.68552567,6.50113801 1.48597817,6.14797859 C0.967736066,5.23079303 0.90395182,3.81521011 0.898626778,2.06780372 L0.898626778,2.06780372 L0.898965761,1.73972931 C0.89902829,1.69208127 0.899093637,1.6477043 0.899161505,1.60623171 L0.899832358,1.30149632 C0.899912677,1.2741499 0.899994627,1.24860781 0.900077909,1.22450339 L0.900855414,1.03647997 L0.900855414,1.03647997 L0.901122258,0.98079034 C0.902243997,0.748498645 0.903387374,0.511619857 0.903898637,0.270431819 L0.903898637,0.270431819 Z"></path>
                        <g id="mark" stroke="none" stroke-width="1" fill="none" fill-rule="evenodd" mask="url(#mask-8)">
                            <g transform="translate(0.500031, 0.000000)">
                                <rect id="bg" fill="#2EBED7" x="0.082812503" y="0" width="6.29375023" height="4.98648649"></rect>
                                <rect id="bg" fill="#A95601" x="0" y="4.94594595" width="6.62500024" height="2.55405405"></rect>
                                <g id="inside" stroke-width="1" fill="none" transform="translate(1.532031, 0.202703)">
                                    <path d="M2.18402299,1.96218383 C1.40609682,2.13863774 1.05473926,2.13863774 1.12995031,1.96218383 C1.20516136,1.78572993 1.34336674,1.37936452 1.54456646,0.743087593" id="Path-170" stroke="#FFC6B5" stroke-width="0.625"></path>
                                    <path d="M2.53502133,2.1509137 C2.39309483,2.06394423 2.32213159,1.94126544 2.32213159,1.78287733 C2.32213159,1.54529516 1.80296178,1.45640583 2.16899155,1.08520169 C2.53502133,0.713997553 2.69298151,0.877473284 2.69298151,1.08520169 C2.69298151,1.2929301 2.98721121,1.78287733 2.98721121,1.78287733 C2.98721121,1.78287733 2.83648125,1.90555612 2.53502133,2.1509137 Z" id="Path-171" fill="#FFC6B5"></path>
                                    <path d="M1.94609382,0 L1.94603126,0.567 L3.10546886,0.567567568 L3.10546886,1.13513514 L1.94603126,1.135 L1.94609382,6.08108108 L1.3664063,6.08108108 L1.36603126,1.135 L0.207031257,1.13513514 L0.207031257,0.567567568 L1.36603126,0.567 L1.3664063,0 L1.94609382,0 Z" id="Combined-Shape" fill="#272727"></path>
                                    <path d="M3.19424966,6.24806719 C3.05366598,5.5974208 2.98337414,5.04941062 2.98337414,4.60403668 C2.98337414,3.93597576 2.62998385,3.45814114 2.73096993,3.1048552 C2.83195601,2.75156925 3.07511503,2.36090676 2.95353552,2.11909366 C2.83195601,1.87728057 3.07216383,1.75953849 2.73096993,1.87728057 C2.38977602,1.99502265 2.2980592,1.75953849 1.96863481,1.87728057 C1.63921042,1.99502265 1.59749878,2.55089423 1.59749878,2.70947586 C1.59749878,2.86805748 1.74397737,3.93722961 1.74397737,4.27063314 C1.74397737,4.60403668 1.62329413,6.65419378 1.96863481,6.65419378 C2.31397548,6.65419378 2.69049639,6.12065259 2.82201595,6.12065259 C2.90969566,6.12065259 3.03377356,6.16312412 3.19424966,6.24806719 Z" id="Path-169" fill="#0C7C38"></path>
                                    <path d="M1.11159475,3.63564987 C0.901085121,3.63564987 1.09470275,4.12464968 0.55903747,4.33905729 C0.0233721863,4.5534649 -0.0817606631,4.85540288 0.0869763405,4.85540288 C0.199467676,4.85540288 0.700454568,5.35509024 1.58993702,6.35446495 L1.91710508,5.84868749 L1.91710508,4.25146722 C1.52043794,3.84092232 1.2519345,3.63564987 1.11159475,3.63564987 Z" id="Path-172" stroke="#FF9A06" stroke-width="0.625"></path>
                                    <path d="M2.68242975,6.14590862 C2.84909642,6.50355421 2.84909642,6.68237701 2.68242975,6.68237701" id="Path-173" stroke="#979797" stroke-width="0.625"></path>
                                    <path d="M2.60199315,2.16620244 C2.52877417,2.56739325 2.42246234,2.80998254 2.28305765,2.89397029 C2.0739506,3.01995193 1.21489814,3.26385477 1.21489814,3.47211257 C1.21489814,3.6109511 1.18648056,3.70518855 1.1296454,3.75482491" id="Path-174" stroke="#FFC6B5" stroke-width="0.625"></path>
                                    <path d="M2.18536459,0.923880198 C2.32550107,1.09042275 2.43480102,1.31096027 2.51326444,1.58549277 C2.63095956,1.99729151 2.97190954,2.13754311 2.97190954,1.94480912 C2.97190954,1.75207512 3.22394786,0.923880198 2.97190954,0.923880198 C2.80388399,0.923880198 2.54170234,0.923880198 2.18536459,0.923880198 Z" id="Path-175" fill="#FF9A06"></path>
                                </g>
                            </g>
                        </g>
                    </g>
                </g>
            </g>
        </g>
    </g>
</svg>