<?xml version="1.0" encoding="UTF-8"?>
<svg width="20px" height="15px" viewBox="0 0 20 15" version="1.1" xmlns="http://www.w3.org/2000/svg" xmlns:xlink="http://www.w3.org/1999/xlink">
    <title>flags/M/MW - Malawi</title>
    <defs>
        <rect id="path-1" x="0" y="0" width="20" height="15"></rect>
        <rect id="path-3" x="0" y="0" width="20" height="15"></rect>
    </defs>
    <g id="Symbols" stroke="none" stroke-width="1" fill="none" fill-rule="evenodd">
        <g id="flag">
            <mask id="mask-2" fill="white">
                <use xlink:href="#path-1"></use>
            </mask>
            <g id="mask"></g>
            <g id="contents" mask="url(#mask-2)">
                <mask id="mask-4" fill="white">
                    <use xlink:href="#path-3"></use>
                </mask>
                <use id="background" fill="#E11C1B" xlink:href="#path-3"></use>
                <rect id="top" fill="#272727" mask="url(#mask-4)" x="0" y="0" width="20" height="6"></rect>
                <rect id="bottom" fill="#5EAA22" mask="url(#mask-4)" x="0" y="10" width="20" height="5"></rect>
                <g id="mark" mask="url(#mask-4)" fill="#E11C1B">
                    <g transform="translate(2.250000, 1.000000)">
                        <path d="M7.83807373,0.575004 L8.11821992,2.29030296 C8.27354263,2.29674412 8.42728288,2.30839797 8.57921128,2.32506636 L9.19520321,0.684060898 L9.1279566,2.40833609 C9.28112763,2.4381416 9.43203173,2.4731176 9.58041018,2.51304063 L10.5087134,1.00772642 L10.1010582,2.67696702 C10.2493773,2.73069252 10.3946026,2.78952581 10.5364391,2.85321209 L11.7363871,1.53559767 L11.0121617,3.09195316 C11.1510576,3.16939756 11.2859266,3.25176702 11.4164376,3.33877556 L12.8387658,2.25070846 L11.8313039,3.64271688 C11.9566729,3.743501 12.0769309,3.8489649 12.191705,3.95878662 L13.7804181,3.13007452 L12.5338577,4.31782408 C12.6401711,4.44038096 12.7402115,4.56723142 12.8335674,4.69802013 L14.5310785,4.14543231 L13.0910222,5.09811602 C13.1254323,5.15780047 13.1585204,5.21815333 13.1902536,5.27914601 L11.9624628,5.27956586 C11.1162009,4.10626761 9.56925919,3.32073779 7.80114245,3.32073779 C6.03302571,3.32073779 4.48608401,4.10626761 3.63982212,5.27956586 L2.47357187,5.27914601 C2.50618495,5.21646211 2.54022922,5.15445401 2.57566875,5.09315274 L1.14506892,4.14543231 L2.8331245,4.6940086 C2.92743263,4.5621603 3.02853806,4.43432295 3.13601855,4.31086127 L1.8957294,3.13007452 L3.4762046,3.95488279 C3.59202636,3.84428821 3.71341536,3.7381252 3.83998982,3.63672352 L2.8373817,2.25070846 L4.25448753,3.33404985 C4.38621101,3.24650864 4.52235701,3.16368697 4.66258634,3.0858778 L3.93976037,1.53559767 L5.13643293,2.84915874 C5.2792062,2.78532429 5.42539994,2.72640268 5.57471419,2.67265297 L5.16743403,1.00772642 L6.09437932,2.51010086 C6.24329219,2.47031196 6.39473828,2.43550299 6.54845671,2.40589926 L6.48094425,0.684060898 L7.09749406,2.32366576 C7.2494802,2.30728564 7.40327065,2.29592272 7.55863623,2.28977496 L7.83807373,0.575004 Z M7.82625686,3.91941565 C9.24177769,3.91941565 10.5006577,4.45215955 11.3024793,5.27900807 L4.35003439,5.27900807 C5.15185602,4.45215955 6.41073602,3.91941565 7.82625686,3.91941565 Z"></path>
                    </g>
                </g>
            </g>
        </g>
    </g>
</svg>