<?xml version="1.0" encoding="UTF-8"?>
<svg width="20px" height="15px" viewBox="0 0 20 15" version="1.1" xmlns="http://www.w3.org/2000/svg" xmlns:xlink="http://www.w3.org/1999/xlink">
    <title>flags/M/MY - Malaysia</title>
    <defs>
        <rect id="path-1" x="0" y="0" width="20" height="15"></rect>
    </defs>
    <g id="Symbols" stroke="none" stroke-width="1" fill="none" fill-rule="evenodd">
        <g id="flag">
            <mask id="mask-2" fill="white">
                <use xlink:href="#path-1"></use>
            </mask>
            <g id="mask"></g>
            <g id="contents" mask="url(#mask-2)">
                <polygon id="background" fill="#F7FCFF" points="0 0 20 0 20 15 0 15"></polygon>
                <g id="mark">
                    <rect id="lines" fill="#E31D1C" x="0.0169740192" y="3.125" width="20" height="1.81250006"></rect>
                    <rect id="lines" fill="#E31D1C" x="0.0169740192" y="6.37500763" width="20" height="1.81250006"></rect>
                    <rect id="lines" fill="#E31D1C" x="0.0697901408" y="9.50000763" width="20" height="1.5625"></rect>
                    <rect id="lines" fill="#E31D1C" x="0.0697901408" y="12.6250076" width="20" height="1.68750003"></rect>
                    <rect id="lines" fill="#E31D1C" x="0" y="0" width="20" height="1.5625"></rect>
                    <polygon id="square" fill="#3D58DB" points="0 0 10 0 10 8.5 0 8.5"></polygon>
                    <path d="M2.24596682,3.87638825 C2.24596682,4.73652735 2.65110629,5.54991016 3.47532206,5.54991016 C4.71193665,5.54991016 4.95251861,5.28627234 5.52954949,4.92253736 C5.66597379,5.22895921 5.20581251,6.54027358 3.45844748,6.54027358 C2.06078685,6.51213574 0.931268972,5.38929919 0.931268972,3.87638755 C0.931268972,2.13981666 2.20850355,1.2019749 3.42337291,1.21259209 C4.49589027,1.21259209 5.63340915,1.82118868 5.59854988,2.59757986 C5.09320922,2.10392729 4.54449385,2.10392729 3.63106425,2.10392729 C2.71763464,2.10392729 2.24596682,3.0161409 2.24596682,3.87638825 Z" id="Shape-sp-1695-0" fill="#FECA00"></path>
                    <polygon id="Star-15" fill="#FECA00" points="6.875 4.56249237 6.29559314 5.40822334 6.32395133 4.3834458 5.35809314 4.72708972 5.98338452 3.9146958 5 3.62499237 5.98338452 3.33528894 5.35809314 2.52289502 6.32395133 2.86653894 6.29559314 1.8417614 6.875 2.68749237 7.45440686 1.8417614 7.42604867 2.86653894 8.39190686 2.52289502 7.76661548 3.33528894 8.75 3.62499237 7.76661548 3.9146958 8.39190686 4.72708972 7.42604867 4.3834458 7.45440686 5.40822334"></polygon>
                </g>
            </g>
        </g>
    </g>
</svg>