<?xml version="1.0" encoding="UTF-8"?>
<svg width="20px" height="15px" viewBox="0 0 20 15" version="1.1" xmlns="http://www.w3.org/2000/svg" xmlns:xlink="http://www.w3.org/1999/xlink">
    <title>flags/M/MZ - Mozambique</title>
    <defs>
        <rect id="path-1" x="0" y="0" width="20" height="15"></rect>
        <rect id="path-3" x="0" y="0" width="20" height="15"></rect>
        <polygon id="path-5" points="0 0 0 15 11.25 7.5"></polygon>
    </defs>
    <g id="Symbols" stroke="none" stroke-width="1" fill="none" fill-rule="evenodd">
        <g id="flag">
            <mask id="mask-2" fill="white">
                <use xlink:href="#path-1"></use>
            </mask>
            <g id="mask"></g>
            <g id="contents" mask="url(#mask-2)">
                <mask id="mask-4" fill="white">
                    <use xlink:href="#path-3"></use>
                </mask>
                <use id="background" fill="#F7FCFF" xlink:href="#path-3"></use>
                <rect id="top" fill="#FECA00" mask="url(#mask-4)" x="0" y="0" width="20" height="5"></rect>
                <rect id="bottom" fill="#009933" mask="url(#mask-4)" x="0" y="10" width="20" height="5"></rect>
                <rect id="middle" stroke="#FFFFFF" stroke-width="1.25" fill="#272727" mask="url(#mask-4)" x="-0.625" y="4.375" width="21.25" height="6.25"></rect>
                <mask id="mask-6" fill="white">
                    <use xlink:href="#path-5"></use>
                </mask>
                <use id="triangle" fill="#F50100" xlink:href="#path-5"></use>
                <polygon id="Star-5" fill="#FECA00" mask="url(#mask-6)" points="5.04298719 8.97076326 2.68115329 10.8772969 3.76451141 8.32941841 1.90300029 6.53677692 4.10025423 6.53677692 5.00186917 4.375 5.95948468 6.53677692 8.15300029 6.53677692 6.19315646 8.32941841 7.17400283 10.8772969"></polygon>
                <g id="mark" mask="url(#mask-6)">
                    <g transform="translate(2.500000, 5.000000)">
                        <path d="M1.34749839,2.49013408 L0.946935231,3.8279137 C1.84845072,3.81899437 2.35334831,3.86007873 2.46162801,3.95116678 C2.78787486,3.74773219 3.28682239,3.70664783 3.95847059,3.8279137 L3.42261513,2.39620387 C2.96967706,2.19096693 2.64934802,2.14461416 2.46162801,2.25714556 C2.00150773,2.15320999 1.63013119,2.23087283 1.34749839,2.49013408 Z" id="Path-178" stroke="none" fill="#F7FCFF" fill-rule="evenodd"></path>
                        <path d="M4.72737612,4.51017351 C4.83119411,4.64804585 4.80358761,4.84397458 4.66571526,4.94779257 C4.52784292,5.05161056 4.3319142,5.02400405 4.22809621,4.88613171 L1.61554054,1.41660617 C1.51172255,1.27873382 1.53932906,1.0828051 1.6772014,0.97898711 C1.81507374,0.87516912 2.01100247,0.902775627 2.11482046,1.04064797 L4.72737612,4.51017351 Z" id="Path-176" stroke="none" fill="#000000" fill-rule="nonzero"></path>
                        <line x1="1.85877024" y1="1.14983919" x2="1.60877024" y2="0.849839189" id="Path-176" stroke="#000000" stroke-width="0.625" fill="none" stroke-linecap="round" stroke-linejoin="round"></line>
                        <polygon id="Path-177" stroke="none" fill="#000000" fill-rule="evenodd" points="1.00293155 0.851589117 0.247613195 2.06117456 0.62527237 2.71535862 1.48913437 1.43146087 1.64451515 1.03445842 1.48913437 0.851589117"></polygon>
                        <polygon id="Path-179" stroke="none" fill="#000000" fill-rule="evenodd" points="0.0243669698 4.44284267 0.388505847 4.95644337 3.1982643 1.63200707 3.31481455 1.76226159 3.96249842 1.15292833 4.99760776 0.0268749227 3.96249842 0.872870722 3.6277464 0.780049649 3.31481455 1.27167553 3.00088555 1.27167553 0.705836924 3.82643865"></polygon>
                    </g>
                </g>
            </g>
        </g>
    </g>
</svg>