<?xml version="1.0" encoding="UTF-8"?>
<svg width="20px" height="15px" viewBox="0 0 20 15" version="1.1" xmlns="http://www.w3.org/2000/svg" xmlns:xlink="http://www.w3.org/1999/xlink">
    <title>flags/M/NA - Namibia</title>
    <defs>
        <rect id="path-1" x="0" y="0" width="20" height="15"></rect>
        <rect id="path-3" x="0" y="0" width="20" height="15"></rect>
    </defs>
    <g id="Symbols" stroke="none" stroke-width="1" fill="none" fill-rule="evenodd">
        <g id="flag">
            <mask id="mask-2" fill="white">
                <use xlink:href="#path-1"></use>
            </mask>
            <g id="mask"></g>
            <g id="contents" mask="url(#mask-2)">
                <mask id="mask-4" fill="white">
                    <use xlink:href="#path-3"></use>
                </mask>
                <use id="background" fill="#009933" xlink:href="#path-3"></use>
                <polygon id="background" fill="#3195F9" mask="url(#mask-4)" points="0 0 0 15 20 0"></polygon>
                <g id="marks" mask="url(#mask-4)">
                    <g transform="translate(-2.500000, -2.500000)">
                        <path d="M22.9803983,0.239558989 L24.9748053,4.53110334 L2.19881187,20.0342611 L-0.201678394,15.6851078 L22.9803983,0.239558989 Z" id="Path-14" stroke="#F7FCFF" stroke-width="1.25" fill="#E31D1C" fill-rule="nonzero"></path>
                        <path d="M7.20234298,3.25000763 L7.39825933,4.52828959 L8.60324216,4.05881715 L8.13376971,5.26379997 L9.41205167,5.45971632 L8.4029852,6.26852584 L9.41205167,7.07733535 L8.13376971,7.2732517 L8.60324216,8.47823453 L7.39825933,8.00876208 L7.20234298,9.28704404 L6.39353347,8.27797757 L5.58472395,9.28704404 L5.3888076,8.00876208 L4.18382477,8.47823453 L4.65329722,7.2732517 L3.37501526,7.07733535 L4.38408174,6.26852584 L3.37501526,5.45971632 L4.65329722,5.26379997 L4.18382477,4.05881715 L5.3888076,4.52828959 L5.58472395,3.25000763 L6.39353347,4.25907411 L7.20234298,3.25000763 Z M6.39353347,4.70602584 C5.53058854,4.70602584 4.83103347,5.40558091 4.83103347,6.26852584 C4.83103347,7.13147076 5.53058854,7.83102584 6.39353347,7.83102584 C7.25647839,7.83102584 7.95603347,7.13147076 7.95603347,6.26852584 C7.95603347,5.40558091 7.25647839,4.70602584 6.39353347,4.70602584 Z M6.39353347,5.01852584 C7.0838894,5.01852584 7.64353347,5.5781699 7.64353347,6.26852584 C7.64353347,6.95888177 7.0838894,7.51852584 6.39353347,7.51852584 C5.70317753,7.51852584 5.14353347,6.95888177 5.14353347,6.26852584 C5.14353347,5.5781699 5.70317753,5.01852584 6.39353347,5.01852584 Z" id="Star-19" stroke="none" fill="#FECA00" fill-rule="evenodd"></path>
                    </g>
                </g>
            </g>
        </g>
    </g>
</svg>