<?xml version="1.0" encoding="UTF-8"?>
<svg width="20px" height="15px" viewBox="0 0 20 15" version="1.1" xmlns="http://www.w3.org/2000/svg" xmlns:xlink="http://www.w3.org/1999/xlink">
    <title>flags/M/NF - Norfolk Island</title>
    <defs>
        <rect id="path-1" x="0" y="0" width="20" height="15"></rect>
    </defs>
    <g id="Symbols" stroke="none" stroke-width="1" fill="none" fill-rule="evenodd">
        <g id="flag">
            <mask id="mask-2" fill="white">
                <use xlink:href="#path-1"></use>
            </mask>
            <g id="mask"></g>
            <g id="contents" mask="url(#mask-2)">
                <rect id="bottom" fill="#409100" x="14" y="0" width="6" height="15"></rect>
                <rect id="left" fill="#409100" x="0" y="0" width="6" height="15"></rect>
                <rect id="middle" fill="#FFFFFF" x="6" y="0" width="8" height="15"></rect>
                <g id="mark" transform="translate(6.250000, 0.375004)" fill="#409100">
                    <path d="M3.74481872,0.749988556 C3.88352821,1.27406368 3.95288296,1.57133931 3.95288296,1.64181542 L3.95288296,1.64181542 L3.95288296,2.19511288 C3.95288296,2.31387755 3.87718698,2.40027288 3.81663019,2.46119199 L3.76448407,2.51387432 C3.71738435,2.56602534 3.73210302,2.58662783 3.95288296,2.58662783 C4.42598284,2.58662783 4.40585768,2.73781323 4.11786261,2.73781323 C3.82986755,2.73781323 4.20056242,2.92804736 4.71765993,2.92804736 C5.23475743,2.92804736 4.28402916,3.15174266 3.95288296,3.15174266 C3.62173676,3.15174266 4.28402916,3.25520896 4.71765993,3.25520896 C5.1512907,3.25520896 4.28402916,3.4771702 4.11786261,3.5669566 C4.03824383,3.60997779 4.15024864,3.62207855 4.45387702,3.60325886 C4.34174378,3.63680971 4.22988427,3.67082833 4.14422689,3.69701642 C3.81827402,3.79667021 4.14422689,3.69701642 4.18071932,3.81637778 C4.21235689,3.91985959 4.54022382,3.71679463 4.79884204,3.57526457 L4.898398,3.5669566 C5.04125862,3.73180049 5.11268893,3.86455334 5.11268893,3.96521516 C5.11268893,4.05646044 4.81007772,4.08102673 4.49751535,4.10992153 C4.51173425,4.09021302 4.44724467,4.10106655 4.35417478,4.1241827 C4.19864342,4.13985221 4.05301735,4.15965611 3.95288296,4.19218593 C3.85694796,4.22335153 3.87253105,4.23645942 3.9498553,4.23935673 L3.92980482,4.24590936 C3.70496555,4.31464962 3.92980482,4.24590936 3.96629725,4.36527073 C3.99438643,4.45714631 4.16878038,4.3340423 4.32860349,4.22454689 C4.54450513,4.21059779 4.78293493,4.19218593 4.898398,4.19218593 C5.17749388,4.19218593 4.61930211,4.32673708 4.40585768,4.32673708 C4.19241324,4.32673708 5.11268893,4.44035092 5.28243445,4.54079865 C5.45217996,4.64124638 4.64870081,4.54079865 4.40585768,4.54079865 C4.16301454,4.54079865 4.11786261,4.73925357 4.28402916,4.73925357 L4.28402916,4.73925357 L4.898398,4.73925357 C5.13077552,4.73925357 5.37267566,5.09473836 5.28243445,5.09473836 C5.19219323,5.09473836 4.76175797,5.29434932 4.28402916,5.29434932 L4.28402916,5.29434932 L5.18021907,5.29440424 C5.43308454,5.29576015 5.93834493,5.3140722 5.93834493,5.50616302 C5.93834493,5.71746292 5.63924515,5.66370668 5.37267566,5.80821269 C5.10610618,5.9527187 6.16989161,6.08399439 6.16989161,6.08399439 C6.16989161,6.08399439 5.74885115,6.21494894 5.54395502,6.21494894 C5.33905889,6.21494894 5.63924515,6.40852277 6.16989161,6.40852277 C6.70053808,6.40852277 6.34391911,6.78121983 6.34391911,6.86529021 C6.34391911,6.9493606 5.93834493,7.00709878 5.63924515,7.26817297 C5.48969526,7.39871006 5.59613771,7.39871006 5.77483065,7.36607579 L5.91952636,7.33701089 C6.07202711,7.30488652 6.23933006,7.26817297 6.34391911,7.26817297 C6.62282327,7.26817297 6.74163235,7.27979767 6.65081594,7.4150553 C6.55999953,7.55031292 5.74885115,7.76431027 5.54395502,7.76431027 L5.54395502,7.76431027 L6.65081594,7.76431027 C6.95771276,7.76431027 6.56485671,8.00675924 6.16989161,8.00675924 C5.77492652,8.00675924 5.63924515,8.22846357 5.54395502,8.22846357 L5.54395502,8.22846357 L6.34391911,8.22846357 C6.42053597,8.22846357 6.51138033,7.99836632 6.56485671,8.00675924 C6.92672078,8.06355242 6.76436377,8.51901699 6.56485671,8.51901699 C6.33586643,8.51901699 5.63924515,8.67257871 5.74885115,8.82755337 C5.85845716,8.98252804 6.09537231,8.67257871 6.65081594,8.67257871 C7.20625957,8.67257871 6.70424487,8.82755337 6.56485671,8.82755337 C6.42546854,8.82755337 5.83576904,8.94013961 5.63924515,9.03744032 C5.44272125,9.13474104 6.56485671,9.03744032 7.02207035,9.03744032 C7.3003743,9.03744032 6.8383419,9.18157264 6.30656339,9.29437184 L6.07634321,9.34028444 C5.80733298,9.39041742 5.54483587,9.4264505 5.37267566,9.4264505 C4.8070064,9.4264505 5.74885115,9.5758376 5.93834493,9.5758376 C6.1278387,9.5758376 6.78183187,9.70492964 7.27112843,9.70492964 C7.76042499,9.70492964 6.78183187,10.0272744 6.34391911,10.0272744 C5.90600636,10.0272744 5.54395502,10.0043461 5.74885115,10.2607319 C5.95374729,10.5171176 7.08828132,10.137677 7.45359208,10.3501971 C7.67595515,10.4795572 7.05907303,10.5111396 6.45764017,10.5160488 L6.08154287,10.5162299 C5.84344334,10.514834 5.641821,10.5113374 5.54395502,10.5113374 C5.16880209,10.5113374 5.91910795,10.6505127 6.56485671,10.6505127 L6.56485671,10.6505127 L6.82891973,10.6506542 C7.25306302,10.6526196 7.36009144,10.6719243 7.36009144,10.8398477 C7.36009144,11.0383026 5.58089512,10.939589 5.37267566,10.939589 C5.1644562,10.939589 5.13767782,11.2002778 4.898398,11.2002778 C4.65911817,11.2002778 4.71765993,10.8408753 4.42966486,11.0401652 C4.23766815,11.1730251 4.33366651,11.9096329 4.71765993,13.2499886 L4.71765993,13.2499886 L3.16285235,13.2499886 L3.16285235,11.356537 C2.82553427,11.2510797 2.33278655,11.2510797 1.68460921,11.356537 C1.03643187,11.4619943 0.610150769,11.356537 0.405765919,11.0401652 C0.405765919,11.0401652 0.44658324,11.0066398 0.528217881,10.939589 C0.650669842,10.8390128 1.20496309,10.939589 1.52170209,10.939589 C1.83844108,10.939589 2.25488001,10.8398477 2.62932992,10.8398477 C3.00377984,10.8398477 1.52170209,10.3501971 1.20496309,10.6505127 C0.88822409,10.9508283 0,10.5113374 0,10.2607319 C0,10.0101263 0.702373201,10.2607319 0.987284915,10.2607319 C1.27219663,10.2607319 0.702373201,9.70492964 0.405765919,9.70492964 C0.109158638,9.70492964 0.702373201,9.5758376 0.987284915,9.5758376 C1.27219663,9.5758376 1.52170209,9.70492964 1.68460921,9.70492964 C1.84751633,9.70492964 0.866558529,9.28329321 0.702373201,9.28329321 L0.702373201,9.28329321 L1.52170209,9.28329321 C2.05611926,9.28329321 1.82150488,9.4264505 2.25488001,9.4264505 C2.68825514,9.4264505 2.45095653,9.18939642 2.45095653,9.18939642 C2.45095653,9.18939642 0.987284915,9.03744032 0.702373201,8.82755337 C0.537424314,8.70603987 0.892694795,8.72522622 1.30498686,8.7629257 L1.53274442,8.78459066 C1.76058889,8.80662282 1.98034193,8.82755337 2.11683396,8.82755337 C2.5490587,8.82755337 1.20496309,8.51901699 0.987284915,8.51901699 L0.987284915,8.51901699 L1.97782925,8.51901699 C2.43395641,8.51901699 2.98396768,8.82755337 3.53941131,8.82755337 C3.8479911,8.82755337 3.24123467,8.64264911 2.57867517,8.44027462 L2.31271261,8.35878996 C1.87127278,8.22275222 1.45596688,8.08887195 1.3214714,8.00675924 C0.95833359,7.78505491 1.97782925,8.22846357 2.45095653,8.22846357 C2.92408381,8.22846357 1.82150488,7.76431027 1.52170209,7.76431027 C1.22189929,7.76431027 0.934878543,7.62937377 1.20496309,7.50464902 C1.47504763,7.37992428 2.45095653,7.76431027 2.74232317,7.76431027 C3.03368982,7.76431027 3.16285235,8.00675924 3.53941131,8.00675924 C3.91597026,8.00675924 2.74232317,7.50464902 2.25488001,7.50464902 C1.76743684,7.50464902 1.68460921,7.26817297 1.97782925,7.26817297 C2.27104929,7.26817297 1.3214714,6.86529021 1.3214714,6.86529021 C1.3214714,6.86529021 1.18380881,6.57955366 1.52170209,6.57955366 L1.52170209,6.57955366 L1.97782925,6.57955366 C2.13415362,6.57955366 1.82150488,6.08399439 1.52170209,6.08399439 C1.22189929,6.08399439 1.48335596,5.93428616 1.97782925,5.93428616 C2.47230254,5.93428616 2.62932992,6.21494894 3.16285235,6.40852277 C3.69637478,6.6020966 3.29393219,6.08399439 3.16285235,6.08399439 C3.03177251,6.08399439 1.68460921,5.66171571 1.68460921,5.66171571 C1.68460921,5.66171571 1.82150488,5.50616302 1.68460921,5.29434932 C1.54771354,5.08253563 2.34716635,5.29434932 2.45095653,5.29434932 C2.53168223,5.29434932 2.80927346,5.36941157 3.11699077,5.44405077 L3.38423732,5.50616302 C3.78450696,5.59389423 2.02454761,4.85986792 1.82150488,4.85986792 C1.61846214,4.85986792 2.25488001,4.73925357 2.62932992,4.73925357 C3.00377984,4.73925357 2.98396768,4.85986792 3.38423732,4.85986792 C3.78450696,4.85986792 2.62932992,4.43084563 2.25488001,4.43084563 C1.88043009,4.43084563 2.10181506,4.06142405 2.25488001,4.06142405 C2.40794496,4.06142405 3.16285235,4.19218593 3.53941131,4.19218593 C3.91597026,4.19218593 2.74232317,3.96521516 2.62932992,3.77761425 C2.55072227,3.64710319 2.75312337,3.69818118 3.07060589,3.74135518 C3.233567,3.82595454 3.36912502,3.88107192 3.38890401,3.81637778 C3.39485386,3.79691669 3.40849849,3.78327772 3.42575782,3.77364776 L3.53941131,3.77761425 C3.76375282,3.77761425 3.65840956,3.74324923 3.44134828,3.70227899 L3.42539644,3.69701642 L3.42539644,3.69701642 C3.09944357,3.59736262 2.39407392,3.38431984 2.65793689,3.51578713 C2.7099099,3.5416822 2.76835227,3.57366909 2.82897794,3.60743119 C2.6506021,3.58334566 2.50070944,3.5669566 2.45095653,3.5669566 C2.27258314,3.5669566 2.09369846,3.42912998 2.45095653,3.42912998 L2.45095653,3.42912998 L3.16285235,3.42912998 C2.94146739,3.42912998 2.62932992,3.42912998 2.62932992,3.25520896 C2.62932992,3.16034296 2.78806387,3.16896714 2.96829469,3.19640772 L3.15060829,3.22698437 C3.24026505,3.24227269 3.3238596,3.25520896 3.38423732,3.25520896 C3.60562228,3.25520896 3.66071288,3.25520896 3.53941131,3.15174266 C3.44843512,3.07414293 3.18148617,3.05813889 2.95175393,3.05498686 L2.74232317,3.0543135 C2.50067867,3.0543135 3.25469132,2.92804736 3.53941131,2.92804736 C3.82413129,2.92804736 3.16285235,2.92804736 2.74232317,2.73781323 C2.321794,2.54757909 3.16285235,2.73781323 3.53941131,2.73781323 C3.91597026,2.73781323 3.38423732,2.48457447 2.98396768,2.48457447 C2.58369803,2.48457447 2.91973792,2.34835347 3.16285235,2.19511288 C3.40596679,2.04187228 3.53941131,2.58662783 3.53941131,2.34835347 C3.53941131,2.26892869 3.52216975,2.21392364 3.5049282,2.17971793 L3.493,2.16 L3.49854244,2.16525632 L3.53941131,2.19511288 C3.64286063,2.26413323 3.64286063,2.17359754 3.53941131,1.9235058 C3.43596198,1.85444264 3.43596198,1.81991105 3.53941131,1.81991105 C3.69458529,1.81991105 3.48949743,1.64181542 3.38423732,1.64181542 C3.31406391,1.64181542 3.40622243,1.58501921 3.66071288,1.47142678 L3.66071288,1.47142678 Z M3.65525322,9.54267215 L3.59475755,9.54253463 C3.30677814,9.54253463 2.68422879,9.54728727 2.92989964,9.63977112 C3.17557048,9.73225497 3.59475755,10.0177988 3.59475755,9.78016674 C3.59475755,9.56233731 3.83674024,9.54418485 3.65525322,9.54267215 Z M4.13072764,9.38590534 C4.01073622,9.38590534 3.99073765,9.38590534 4.0082364,9.40309516 L4.04323389,9.43307421 C4.08073121,9.46676626 4.13072764,9.52452407 4.13072764,9.62353744 C4.13072764,9.86116955 4.5499147,9.57562567 4.79558555,9.48314183 C4.9535168,9.42368793 4.75264278,9.40049029 4.51250939,9.39150395 L4.35011094,9.38737652 C4.26951029,9.38612357 4.19243751,9.38590534 4.13072764,9.38590534 Z M4.27112458,8.91655036 L4.07023196,8.91615498 C4.00423668,8.91670506 3.9942374,8.91945543 4.0082364,8.93320729 L4.04323389,8.96318634 C4.08073121,8.99687839 4.13072764,9.05463619 4.13072764,9.15364957 C4.13072764,9.39128167 4.5499147,9.1057378 4.79558555,9.01325395 C4.9535168,8.95380005 4.75264278,8.93060241 4.51250939,8.92161608 L4.35011094,8.91748864 C4.32324405,8.917071 4.29676916,8.91676831 4.27112458,8.91655036 Z M3.49939137,8.91615498 L3.29849875,8.91655036 C3.27285418,8.91676831 3.24637928,8.917071 3.2195124,8.91748864 L3.05711394,8.92161608 C2.81698056,8.93060241 2.61610653,8.95380005 2.77403779,9.01325395 C3.01970863,9.1057378 3.43889569,9.39128167 3.43889569,9.15364957 C3.43889569,8.93582014 3.68087839,8.91766769 3.49939137,8.91615498 Z M4.91705978,7.04926005 C4.43060722,7.04926005 4.33911976,7.20873046 4.20618652,7.20873046 L4.07325328,7.20873046 C3.90112179,7.34475879 3.90112179,7.41277295 4.07325328,7.41277295 C4.33145053,7.41277295 5.40351234,7.04926005 4.91705978,7.04926005 Z M4.91168644,6.64837297 C5.08759509,6.56072811 4.83273368,6.62619883 4.54670205,6.70911135 L4.37453943,6.75986649 C4.28978471,6.78520517 4.20941747,6.80967149 4.14422689,6.82960225 C3.81827402,6.92925604 4.14422689,6.82960225 4.18071932,6.94896362 C4.20394178,7.02492085 4.38676626,6.93571727 4.58465652,6.82691876 L4.75459522,6.73225925 C4.81022391,6.70136991 4.86371135,6.67227611 4.91168644,6.64837297 Z M2.65793689,6.33511438 C2.92179986,6.46658167 3.35241157,6.7550664 3.38890401,6.63570503 C3.42539644,6.51634367 3.75134931,6.61599746 3.42539644,6.51634367 C3.09944357,6.41668987 2.39407392,6.20364709 2.65793689,6.33511438 Z M4.91168644,6.0218558 C5.17554941,5.89038851 4.47017977,6.10343129 4.14422689,6.20308508 C3.81827402,6.30273888 4.14422689,6.20308508 4.18071932,6.32244645 C4.21721176,6.44180782 4.64782347,6.15332309 4.91168644,6.0218558 Z M2.65793689,5.70859722 C2.92179986,5.8400645 3.35241157,6.12854924 3.38890401,6.00918787 C3.42539644,5.8898265 3.75134931,5.98948029 3.42539644,5.8898265 C3.09944357,5.7901727 2.39407392,5.57712993 2.65793689,5.70859722 Z M4.91168644,5.39533863 C5.08759509,5.30769377 4.83273368,5.3731645 4.54670205,5.45607702 L4.37453943,5.50683215 C4.28978471,5.53217084 4.20941747,5.55663716 4.14422689,5.57656792 C3.81827402,5.67622171 4.14422689,5.57656792 4.18071932,5.69592928 C4.20394178,5.77188652 4.38676626,5.68268294 4.58465652,5.57388442 L4.75459522,5.47922492 C4.81022391,5.44833558 4.86371135,5.41924178 4.91168644,5.39533863 Z M2.65793689,4.92545076 C2.92179986,5.05691805 3.35241157,5.34540278 3.38890401,5.22604141 C3.42539644,5.10668004 3.75134931,5.20633383 3.42539644,5.10668004 C3.09944357,5.00702625 2.39407392,4.79398347 2.65793689,4.92545076 Z" id="Path-191"></path>
                </g>
            </g>
        </g>
    </g>
</svg>