<?xml version="1.0" encoding="UTF-8"?>
<svg width="20px" height="15px" viewBox="0 0 20 15" version="1.1" xmlns="http://www.w3.org/2000/svg" xmlns:xlink="http://www.w3.org/1999/xlink">
    <title>flags/M/NP - Nepal</title>
    <defs>
        <polygon id="path-1" points="0 0.144372089 9.15933995e-16 15 13.75 15 7.5 7.61538462 14 7.61538462"></polygon>
    </defs>
    <g id="Symbols" stroke="none" stroke-width="1" fill="none" fill-rule="evenodd">
        <g id="flags/M/NP---Nepal">
            <rect id="bg" fill="#FFFFFF" x="0" y="0" width="20" height="15"></rect>
            <g id="flag" transform="translate(0.000000, -1.000000)">
                <g id="contents" transform="translate(0.000000, 1.000000)">
                    <mask id="mask-2" fill="white">
                        <use xlink:href="#path-1"></use>
                    </mask>
                    <path stroke="#4857A1" d="M0.5,0.977933688 L12.0010265,7.11538462 L6.42178182,7.11538462 L12.6717818,14.5 L0.5,14.5 L0.5,0.977933688 Z"></path>
                    <polygon id="Star-19" fill="#F7FCFF" mask="url(#mask-2)" points="3.64351821 12.5447552 2.87778881 13.523265 2.84244106 12.2884739 1.63881261 12.6369448 2.34734816 11.6175206 1.16556582 11.2028487 2.34734816 10.7881768 1.63881261 9.76875258 2.84244106 10.1172235 2.87778881 8.88243244 3.64351821 9.86094214 4.40924761 8.88243244 4.44459535 10.1172235 5.6482238 9.76875258 4.93968826 10.7881768 6.12147059 11.2028487 4.93968826 11.6175206 5.6482238 12.6369448 4.44459535 12.2884739 4.40924761 13.523265"></polygon>
                    <polygon id="Star-19" fill="#F7FCFF" mask="url(#mask-2)" points="3.62503052 5.23926389 3.2251331 5.7502845 3.20667296 5.10542255 2.57808549 5.28740932 2.94811377 4.75502138 2.33093529 4.53846154 2.94811377 4.3219017 2.57808549 3.78951376 3.20667296 3.97150053 3.2251331 3.32663858 3.62503052 3.83765919 4.02492793 3.32663858 4.04338808 3.97150053 4.67197555 3.78951376 4.30194727 4.3219017 4.91912574 4.53846154 4.30194727 4.75502138 4.67197555 5.28740932 4.04338808 5.10542255 4.02492793 5.7502845"></polygon>
                    <path d="M3.46617251,5.09604779 C3.46061424,6.46608905 4.24998477,7.19655258 4.24998477,7.19655258 C3.34925915,7.3410583 2.74998471,6.22535415 2.74998471,5.10940093 C2.74998471,3.99344771 3.5668703,3.31779347 4.24998477,2.90153621 C4.24998477,2.90153621 3.47173078,3.72600654 3.46617251,5.09604779 Z" id="Shape-sp-1695-0" fill="#F9FAFA" mask="url(#mask-2)" transform="translate(3.499985, 5.055382) rotate(-90.000000) translate(-3.499985, -5.055382) "></path>
                </g>
            </g>
        </g>
    </g>
</svg>