<?xml version="1.0" encoding="UTF-8"?>
<svg width="20px" height="15px" viewBox="0 0 20 15" version="1.1" xmlns="http://www.w3.org/2000/svg" xmlns:xlink="http://www.w3.org/1999/xlink">
    <title>flags/M/NU - Niue</title>
    <defs>
        <rect id="path-1" x="0" y="0" width="20" height="15"></rect>
        <rect id="path-3" x="0" y="0" width="20" height="15"></rect>
        <rect id="path-5" x="0" y="0" width="20" height="10"></rect>
    </defs>
    <g id="Symbols" stroke="none" stroke-width="1" fill="none" fill-rule="evenodd">
        <g id="flag">
            <mask id="mask-2" fill="white">
                <use xlink:href="#path-1"></use>
            </mask>
            <g id="mask"></g>
            <g id="contents" mask="url(#mask-2)">
                <mask id="mask-4" fill="white">
                    <use xlink:href="#path-3"></use>
                </mask>
                <use id="background" fill="#2E42A5" xlink:href="#path-3"></use>
                <rect id="bottom" fill="#FECA00" mask="url(#mask-4)" x="0" y="10" width="20" height="5"></rect>
                <g id="mark-1" mask="url(#mask-4)">
                    <mask id="mask-6" fill="white">
                        <use xlink:href="#path-5"></use>
                    </mask>
                    <g id="mask"></g>
                    <g id="contents" mask="url(#mask-6)">
                        <g transform="translate(-3.750000, -1.250000)">
                            <g id="stripe" transform="translate(1.250000, 0.000000)">
                                <polygon id="white" fill="#FFFFFF" fill-rule="nonzero" transform="translate(12.705142, 6.064778) scale(1, -1) translate(-12.705142, -6.064778) " points="1.0861395 1.42369208 5.05033904 0.506624604 13.501012 5.1759527 14.3952289 5.69884261 22.4224592 9.89612692 24.3241446 11.22177 19.9743477 11.6229315 12.9608485 7.66667742 7.89248672 5.1759527"></polygon>
                                <polygon id="red" fill="#F50100" fill-rule="nonzero" transform="translate(12.482510, 6.351538) scale(1, -1) translate(-12.482510, -6.351538) " points="1.43441653 1.44130791 3.56875643 0.741219934 23.5306034 11.9618557 20.5337418 11.9618557"></polygon>
                            </g>
                            <g id="stripe" transform="translate(13.125000, 6.250000) scale(-1, 1) translate(-13.125000, -6.250000) ">
                                <polygon id="white" fill="#FFFFFF" fill-rule="nonzero" transform="translate(12.955564, 6.063753) scale(1, -1) translate(-12.955564, -6.063753) " points="1.01827184 1.67075717 0.860872228 0.726997594 5.05033904 0.504575371 11.8041614 4.46041632 12.4409468 4.24286032 25.0502557 10.6208458 19.8441126 11.6229315 12.8841321 7.7780076 7.43946288 5.14721985"></polygon>
                                <polygon id="red" fill="#F50100" fill-rule="nonzero" transform="translate(12.770301, 6.318584) scale(1, -1) translate(-12.770301, -6.318584) " points="1.00382186 1.61401327 3.13816176 0.91392529 11.6381231 5.71806238 14.1581792 6.25481708 24.5367805 11.723242 21.5399188 11.723242 11.1671486 6.38461428 8.41191134 5.74098788"></polygon>
                            </g>
                            <g id="cross" transform="translate(2.980769, 0.416667)">
                                <path d="M11.786449,0.833333333 L11.7862308,4.58333333 L20.7692308,4.58333333 L20.7692308,7.08333333 L11.7862308,7.08333333 L11.786449,12.0833333 L9.79360778,12.0833333 L9.79323077,7.08333333 L0.769230769,7.08333333 L0.769230769,4.58333333 L9.79323077,4.58333333 L9.79360778,0.833333333 L11.786449,0.833333333 Z" id="white" stroke="#FFFFFF" stroke-width="1.5625"></path>
                                <path d="M11.8269231,0 L11.8262308,4.583 L22.0192308,4.58333333 L22.0192308,7.08333333 L11.8262308,7.083 L11.8269231,12.9166667 L9.71153846,12.9166667 L9.71123077,7.083 L0.769230769,7.08333333 L0.769230769,4.58333333 L9.71123077,4.583 L9.71153846,0 L11.8269231,0 Z" id="red" fill="#F50100"></path>
                            </g>
                        </g>
                    </g>
                </g>
                <g id="mark-2" mask="url(#mask-4)">
                    <g transform="translate(2.500000, 0.000000)">
                        <circle id="Oval-37" fill="#2E42A5" cx="7.53128052" cy="4.90625381" r="1.71875"></circle>
                        <g id="stars" stroke-width="1" fill="none" transform="translate(0.000000, 0.750008)">
                            <polygon id="Star-10" fill="#FECA00" points="7.56249994 4.68205794 6.75133037 5.24651943 7.03749996 4.30062313 6.25 3.70358321 7.23803211 3.68344863 7.56249994 2.74999619 7.88696777 3.68344863 8.87499988 3.70358321 8.08749992 4.30062313 8.37366951 5.24651943"></polygon>
                            <polygon id="Star-10" fill="#FECA00" points="1.93749994 4.61004391 1.26152527 5.0804285 1.49999993 4.29218155 0.84374994 3.79464826 1.66711007 3.77786944 1.93749994 2.99999237 2.20788981 3.77786944 3.03124994 3.79464826 2.37499995 4.29218155 2.61347462 5.0804285"></polygon>
                            <polygon id="Star-10" fill="#FECA00" points="13.1874999 4.61004391 12.5115253 5.0804285 12.7499999 4.29218155 12.0937499 3.79464826 12.9171101 3.77786944 13.1874999 2.99999237 13.4578898 3.77786944 14.2812499 3.79464826 13.6249999 4.29218155 13.8634746 5.0804285"></polygon>
                            <polygon id="Star-10" fill="#FECA00" points="7.56249994 1.61005154 6.88652527 2.08043613 7.12499993 1.29218918 6.46874994 0.79465589 7.29211007 0.777877074 7.56249994 0 7.83288981 0.777877074 8.65624994 0.79465589 7.99999995 1.29218918 8.23847462 2.08043613"></polygon>
                            <polygon id="Star-10" fill="#FECA00" points="7.56249994 8.23505535 6.88652527 8.70543994 7.12499993 7.91719299 6.46874994 7.4196597 7.29211007 7.40288089 7.56249994 6.62500381 7.83288981 7.40288089 8.65624994 7.4196597 7.99999995 7.91719299 8.23847462 8.70543994"></polygon>
                        </g>
                    </g>
                </g>
            </g>
        </g>
    </g>
</svg>