<?xml version="1.0" encoding="UTF-8"?>
<svg width="20px" height="15px" viewBox="0 0 20 15" version="1.1" xmlns="http://www.w3.org/2000/svg" xmlns:xlink="http://www.w3.org/1999/xlink">
    <title>flags/M/OM - Oman</title>
    <defs>
        <rect id="path-1" x="0" y="0" width="20" height="15"></rect>
        <rect id="path-3" x="0" y="0" width="20" height="15"></rect>
    </defs>
    <g id="Symbols" stroke="none" stroke-width="1" fill="none" fill-rule="evenodd">
        <g id="flag">
            <mask id="mask-2" fill="white">
                <use xlink:href="#path-1"></use>
            </mask>
            <g id="mask"></g>
            <g id="contents" mask="url(#mask-2)">
                <mask id="mask-4" fill="white">
                    <use xlink:href="#path-3"></use>
                </mask>
                <use id="background" fill="#F50101" xlink:href="#path-3"></use>
                <rect id="top" fill="#F7FCFF" mask="url(#mask-4)" x="0" y="0" width="20" height="5"></rect>
                <rect id="bottom" fill="#5EAA22" mask="url(#mask-4)" x="0" y="10" width="20" height="5"></rect>
                <rect id="left" fill="#F50101" mask="url(#mask-4)" x="0" y="0" width="7.5" height="15"></rect>
                <g id="mark" mask="url(#mask-4)" fill="#F7FCFF">
                    <path d="M6.68718501,1.21780153 C6.7170558,1.21979214 6.73965715,1.2456209 6.73766655,1.27549169 L6.73766655,1.27549169 L6.71049144,1.57905877 C6.62231262,2.355142 6.39588229,3.09492891 6.03120045,3.79841949 L7.34304733,3.79810803 C7.37306281,3.79810803 7.39739516,3.82244038 7.39739516,3.85245586 L7.39739516,3.85245586 L7.39739516,4.6812602 C7.39739516,4.71127568 7.37306281,4.73560803 7.34304733,4.73560803 L7.34304733,4.73560803 L6.02511255,4.73560803 C5.99509707,4.73560803 5.97076472,4.71127568 5.97076472,4.6812602 L5.97076472,4.6812602 L5.97076472,4.2461367 L5.80462584,4.24650403 C5.77791076,4.30791855 5.73485166,4.36073622 5.68086617,4.39959762 C5.5042901,4.66954555 5.30676834,4.93384884 5.08761255,5.19247236 C5.07691167,5.20510035 5.06617633,5.21768166 5.05540653,5.23021628 C5.74287943,5.96951777 6.46085265,6.60862672 7.20912761,7.14703116 L7.58639657,7.40844299 C7.61130764,7.42502339 7.61806099,7.45865887 7.6014806,7.48356994 C7.588902,7.50246855 7.5658756,7.51152185 7.54379411,7.50625058 C6.40756187,7.23501033 5.41858431,6.74121294 4.57686144,6.02485843 C4.41132307,6.20796334 4.18342649,6.30141248 3.89330668,6.30620571 C3.09068334,6.89201505 2.15634512,7.30011433 1.09076614,7.53042344 C1.07158731,7.53456866 1.05165622,7.52813855 1.03851587,7.51356661 C1.01825683,7.49110044 1.02004606,7.45646482 1.04251224,7.43620578 L1.04251224,7.43620578 C1.56266221,6.9677323 2.0217138,6.55318092 2.41995331,6.19286909 C1.84229083,6.08113601 1.38294572,5.86408243 1.38294572,5.45399761 C1.38294572,4.96276814 2.10706058,4.79662595 3.55529032,4.95557104 L3.74850358,5.19247236 C3.54792213,4.95576822 3.3642076,4.71430629 3.19735998,4.46808656 L3.21940603,4.47015104 C3.06545761,4.47015104 2.93325494,4.37804751 2.87603403,4.24650403 L2.70989516,4.2461367 L2.70989516,4.6812602 C2.70989516,4.71127568 2.68556281,4.73560803 2.65554733,4.73560803 L1.33761255,4.73560803 C1.30759707,4.73560803 1.28326472,4.71127568 1.28326472,4.6812602 L1.28326472,3.85245586 C1.28326472,3.82244038 1.30759707,3.79810803 1.33761255,3.79810803 L2.65554733,3.79810803 C2.68556281,3.79810803 2.70989516,3.82244038 2.70989516,3.85245586 L2.70989516,3.87277948 L2.83201469,3.87292823 C2.38591696,3.06475865 2.11088261,2.20833577 2.00691166,1.3036596 L2.00774906,1.30356336 C2.0043752,1.27420665 2.02543847,1.24767328 2.05479519,1.24429942 C2.07617668,1.24184213 2.09694924,1.25243523 2.10751614,1.27118482 C2.51104825,1.98719979 3.05870748,2.78885652 3.75049383,3.67615501 L3.81483209,3.16778537 C4.04249633,3.11220326 4.15632845,2.99287049 4.15632845,2.80978707 L4.15632845,2.23708758 L4.15632845,2.23708758 L3.59304733,1.77121912 L4.33826276,1.25 L5.04530569,1.77121912 L4.53050167,2.23708758 L4.53050167,2.80978707 C4.72021562,2.98377933 4.84482629,3.1031121 4.90433369,3.16778537 L4.90395069,3.74574704 C5.64383928,2.80829489 6.22134444,1.9747401 6.63646619,1.24508267 C6.64674405,1.22701733 6.66644662,1.21641952 6.68718501,1.21780153 Z M3.21940603,3.79810803 C3.05056898,3.79810803 2.9136995,3.93350579 2.9136995,4.10052739 C2.9136995,4.26754898 3.05056898,4.40294674 3.21940603,4.40294674 C3.38824308,4.40294674 3.52511255,4.26754898 3.52511255,4.10052739 C3.52511255,3.93350579 3.38824308,3.79810803 3.21940603,3.79810803 Z M5.46125385,3.79810803 C5.2924168,3.79810803 5.15554733,3.93350579 5.15554733,4.10052739 C5.15554733,4.26754898 5.2924168,4.40294674 5.46125385,4.40294674 C5.6300909,4.40294674 5.76696037,4.26754898 5.76696037,4.10052739 C5.76696037,3.93350579 5.6300909,3.79810803 5.46125385,3.79810803 Z" id="Combined-Shape"></path>
                </g>
            </g>
        </g>
    </g>
</svg>