<?xml version="1.0" encoding="UTF-8"?>
<svg width="20px" height="15px" viewBox="0 0 20 15" version="1.1" xmlns="http://www.w3.org/2000/svg" xmlns:xlink="http://www.w3.org/1999/xlink">
    <title>flags/M/PE - Peru</title>
    <defs>
        <rect id="path-1" x="0" y="0" width="20" height="15"></rect>
        <path d="M3.08473522,0.0963810978 L3.65429158,0.900591141 C3.39857462,1.43654684 3.36855015,2.03198559 3.56421814,2.68690738 C3.85772014,3.66929006 3.54867884,4.42677264 2.24348642,4.51088208 C2.05856029,4.54602123 1.93445704,4.58670379 1.87117667,4.63292975 L1.87364005,4.70957057 C1.87364005,4.69086905 1.86577095,4.67288472 1.85003274,4.65561758 C1.82966791,4.67288472 1.82179881,4.69086905 1.82179881,4.70957057 L1.82329874,4.63222978 C1.7597267,4.586293 1.6359446,4.54584376 1.45195244,4.51088208 C0.146760018,4.42677264 -0.162281282,3.66929006 0.131220714,2.68690738 C0.326888712,2.03198559 0.296864234,1.43654684 0.0411472798,0.900591141 L0.0411472798,0.900591141 L0.610703634,0.0963810978 C0.837631984,0.263973243 1.03457221,0.347769316 1.2015243,0.347769316 C1.36847639,0.347769316 1.59251498,0.263973243 1.87364005,0.0963810978 L1.82109516,0.125381098 L1.82179881,0.0963810978 L1.82179881,0.0963810978 L1.84709516,0.111381098 L1.87364005,0.0963810978 L1.87364005,0.0963810978 L1.87309516,0.125381098 L1.95760414,0.173194164 C2.17601768,0.289577599 2.35478782,0.347769316 2.49391456,0.347769316 C2.66086665,0.347769316 2.85780687,0.263973243 3.08473522,0.0963810978 Z" id="path-3"></path>
    </defs>
    <g id="Symbols" stroke="none" stroke-width="1" fill="none" fill-rule="evenodd">
        <g id="flag">
            <mask id="mask-2" fill="white">
                <use xlink:href="#path-1"></use>
            </mask>
            <g id="mask"></g>
            <g id="contents" mask="url(#mask-2)">
                <polygon id="middle" fill="#F7FCFF" points="5 0 15.625 0 15.625 15 5 15"></polygon>
                <polygon id="right" fill="#F50101" points="15 0 20 0 20 15 15 15"></polygon>
                <polygon id="left" fill="#F50101" points="0 0 5 0 5 15 0 15"></polygon>
                <g id="mark" transform="translate(6.250000, 3.750000)">
                    <g id="top" transform="translate(2.608696, 0.000000)" fill="#A2BB6A" fill-rule="nonzero">
                        <path d="M0.979645573,1.71571056 L1.00057818,1.94192723 C0.376551153,2.00503931 0.0394180058,1.70012768 0.0394180058,1.06729471 C0.0394180058,0.439348544 0.369264807,0.105566809 0.989449824,0.101617551 L0.990773931,0.328886062 C0.488294655,0.332085785 0.25680931,0.566332653 0.25680931,1.06729471 C0.25680931,1.56336996 0.481008309,1.76614113 0.979645573,1.71571056 Z" id="Path-205"></path>
                        <path d="M2.17529775,1.71571056 L2.19623036,1.94192723 C1.57220333,2.00503931 1.23507018,1.70012768 1.23507018,1.06729471 C1.23507018,0.439348544 1.56491698,0.105566809 2.185102,0.101617551 L2.1864261,0.328886062 C1.68394683,0.332085785 1.45246148,0.566332653 1.45246148,1.06729471 C1.45246148,1.56336996 1.67666048,1.76614113 2.17529775,1.71571056 Z" id="Path-205" transform="translate(1.715650, 1.025844) scale(-1, 1) translate(-1.715650, -1.025844) "></path>
                    </g>
                    <g id="twigs" transform="translate(0.000000, 0.681818)">
                        <path d="M3.71001136,5.92756644 C3.78902367,6.0814848 3.71001136,6.06393776 3.71001136,6.26994656 C3.71001136,6.47595537 3.75990883,6.77317876 3.40291687,6.77317876 C3.04592491,6.77317876 3.12000493,6.60877222 2.62284993,6.60877222 L1.8163019,6.60877222 L1.8163019,6.60877222 L1.8163019,6.26994656 C2.62733528,6.3128004 3.09266189,6.3128004 3.21228173,6.26994656 C3.39171149,6.20566581 2.87966387,6.06093399 2.87966387,5.92756644 C2.87966387,5.79419889 3.63099906,5.77364807 3.71001136,5.92756644 Z M3.80794022,5.92756644 C3.88695253,5.77364807 4.63828772,5.79419889 4.63828772,5.92756644 C4.63828772,6.06093399 4.12624009,6.20566581 4.30566986,6.26994656 C4.4252897,6.3128004 4.89061631,6.3128004 5.70164968,6.26994656 L5.70164968,6.26994656 L5.70164968,6.60877222 L5.70164968,6.60877222 L4.89510165,6.60877222 C4.39794665,6.60877222 4.47202667,6.77317876 4.11503471,6.77317876 C3.75804275,6.77317876 3.80794022,6.47595537 3.80794022,6.26994656 C3.80794022,6.06393776 3.72892792,6.0814848 3.80794022,5.92756644 Z" id="ribbon" fill="#E31D1C"></path>
                        <g id="right" transform="translate(3.913043, 0.000000)">
                            <path d="M0.0913773102,6.30236229 C0.0913773102,6.30236229 1.04072452,6.20805882 1.2554225,5.86569621 C1.47012048,5.52333361 1.82776609,4.93885184 1.95351776,4.79734406 C2.07926944,4.65583629 2.08741489,4.99946048 2.08741489,4.99946048 C2.08741489,4.99946048 2.29487247,5.29372516 2.29487247,4.91745746 C2.29487247,4.54118976 2.14729903,4.80407252 1.95351776,4.23793629 C1.7597365,3.67180007 1.65072825,3.11649245 1.70523237,3.03243935 C1.7597365,2.94838626 1.88880669,3.11649245 1.88880669,3.03243935 C1.88880669,2.97640396 1.88880669,2.89354236 1.88880669,2.78385456 L2.08741489,3.03243935 C2.22571994,2.9799434 2.29487247,2.95369543 2.29487247,2.95369543 C2.29487247,2.95369543 2.46567553,3.31944992 2.57086245,3.43267716 C2.67604938,3.54590441 2.73759278,3.28102414 2.70682108,3.03243935 C2.67604938,2.78385456 2.29487247,2.78385456 2.29487247,2.78385456 C2.29487247,2.78385456 1.80735218,2.52107694 1.80735218,2.41095109 C1.80735218,2.33753386 1.87761088,2.31175898 2.01812828,2.33362645 L1.95351776,1.99263056 C2.06966585,2.13070402 2.15559533,2.16522239 2.21130618,2.09618566 C2.29487247,1.99263056 2.08741489,1.81090977 2.08741489,1.81090977 C2.08741489,1.81090977 2.19766339,1.81090977 2.4181604,1.81090977 L2.4181604,1.65121415 L2.57086245,1.73668652 L2.4181604,1.38796343 C2.11956093,1.43292492 1.94310969,1.43292492 1.88880669,1.38796343 C1.80735218,1.32052121 1.55087106,1.05763845 1.55087106,1.05763845 C1.55087106,1.05763845 1.55087106,1.01604119 1.55087106,0.932846678 L1.40306648,0.932846678 L1.55087106,0.682527207 L1.55087106,0.283918944 L2.08741489,0.39089083 L2.08741489,0.0961530572 C2.59099144,0.341636453 2.79746017,0.563254867 2.70682108,0.761008301 C2.616182,0.958761734 2.57086245,1.16774678 2.57086245,1.38796343 L2.57086245,1.65121415 C2.58594662,1.59749166 2.63126616,1.57063041 2.70682108,1.57063041 C2.82015346,1.57063041 2.94912309,1.62918898 2.94912309,1.81090977 C2.94912309,1.99263056 3.17991085,1.73668652 3.17991085,1.73668652 C3.17991085,1.73668652 3.17991085,2.49269128 3.17991085,2.49269128 C3.17991085,2.49269128 3.23416357,2.57443147 3.35277541,2.49269128 C3.47138724,2.41095109 3.41939714,2.47471369 3.06310911,2.95369543 C2.70682108,3.43267716 2.83513706,3.43396503 2.94912309,3.31661135 C3.06310911,3.19925767 3.52563996,2.86562103 3.35277541,3.03243935 C3.17991085,3.19925767 3.16844688,3.54874297 3.35277541,3.43267716 C3.53710393,3.31661135 3.50150529,3.23403011 3.50150529,3.43267716 C3.50150529,3.63132422 3.17709514,4.30748116 3.06310911,4.41340173 C2.94912309,4.51932229 2.84277971,4.58445161 2.70682108,4.69089784 C2.57086245,4.79734406 2.4181604,4.92313459 2.4181604,4.99946048 C2.4181604,5.0503444 2.51438063,5.02301006 2.70682108,4.91745746 C2.616182,5.24101894 2.57086245,5.40279969 2.57086245,5.40279969 C2.57086245,5.40279969 2.65893723,5.40279969 2.83508678,5.40279969 C2.69488841,5.83247448 2.48696154,6.04731187 2.21130618,6.04731187 C1.79782315,6.04731187 1.48615022,6.04731187 1.40306648,6.04731187 C1.34767732,6.04731187 1.19485119,6.10632601 0.944588094,6.22435429 L0.669955688,6.30236229 C0.96183758,6.33025733 1.15699318,6.38802741 1.2554225,6.47567251 C1.40306648,6.60714017 1.2554225,6.69881534 1.2554225,6.69881534 C1.2554225,6.69881534 0.850211487,6.65860232 0.547723652,6.56713742 C0.245235817,6.47567251 0.0913773102,6.64898274 0.0913773102,6.47567251 C0.0913773102,6.30236229 0.0913773102,6.30236229 0.0913773102,6.30236229 Z" fill="#00A854"></path>
                            <path d="" id="berries" fill="#C51918"></path>
                        </g>
                        <path d="M3.55346439,6.10230192 C2.40195161,5.87472904 1.79470537,5.54068759 1.73172568,5.10017757 C1.63725614,4.43941255 1.63857851,3.73595687 1.63857851,3.73595687 C1.53180219,4.02255197 1.47841403,4.16584952 1.47841403,4.16584952 C1.47301879,3.77569825 1.57983037,3.44147247 1.79884877,3.16317218 C2.12737637,2.74572175 1.38817605,3.43977664 1.38817605,3.43977664 C1.63769693,3.04634431 1.81439975,2.83090029 1.9182845,2.79344459 C2.07411163,2.73726104 1.29217257,3.16317218 1.29217257,3.16317218 C1.44151131,2.83303851 1.57422356,2.62128108 1.6903093,2.52789989 C1.86443792,2.3878281 1.29217257,2.79344459 1.29217257,2.79344459 C1.37849636,2.46600213 1.47328326,2.26322153 1.57653328,2.1851028 C1.73140831,2.0679247 1.07043892,2.79344459 1.07043892,2.79344459 C1.30289252,2.04525221 1.48460268,1.63624405 1.61556941,1.56642014 C1.8120195,1.46168426 1.29217257,1.77218687 1.29217257,1.77218687 C1.50445574,1.45219131 1.70566633,1.21265546 1.89580435,1.05357933 C2.18101137,0.814965124 1.38029477,1.15532907 1.47841403,1.15532907 C1.67144361,0.937341307 1.82340944,0.797582876 1.93431153,0.736053776 C2.10066466,0.643760125 1.29217257,1.05357933 1.29217257,1.05357933 C1.67907804,0.626635939 1.93052076,0.38173611 2.04650072,0.318879839 C2.22047065,0.224595433 1.19246648,0.827462646 1.19246648,0.827462646 C1.23248997,0.641290113 1.26114114,0.481679424 1.27842001,0.348630578 C1.3043383,0.14905731 0.802158129,0.895590734 0.870339111,1.56642014 C0.938520093,2.23724954 0.597139134,1.05357933 0.597139134,1.05357933 C0.505561162,1.22489492 0.571009262,1.53491827 0.793483435,1.98364937 L0.431790997,1.47672553 C0.464761888,1.78341252 0.519877934,2.01953828 0.597139134,2.1851028 C0.674400334,2.35066732 0.564750082,2.21302868 0.268188377,1.77218687 C0.211450234,2.04746416 0.211450234,2.1851028 0.268188377,2.1851028 C0.606818823,2.63752049 0.782410858,2.92968233 0.794964481,3.06158834 C0.813794915,3.25944735 0.224497539,2.35514653 0.145631872,2.35514653 C0.0667662062,2.35514653 0.0230753676,2.64557568 0.145631872,2.64557568 C0.268188377,2.64557568 0.50034224,3.06158834 0.50034224,3.06158834 C0.299202173,2.9162263 0.177068824,2.83925041 0.133942193,2.83066067 C0.0692522466,2.81777605 0.184720891,2.96000449 0.268188377,3.06158834 C0.110844938,3.18988149 0.0381502937,3.30261725 0.0501044457,3.39979563 C0.0680356736,3.54556319 0.693354189,3.57641991 0.965866538,4.26842874 C0.59024522,4.06979555 0.357685833,3.97047896 0.268188377,3.97047896 C0.133942193,3.97047896 0.484368108,4.28158985 0.597139134,4.38427967 C0.70991016,4.48696949 0.423380775,4.28158985 0.345784576,4.38427967 C0.268188377,4.48696949 0.774811685,4.92554405 0.870339111,4.92554405 C0.934024062,4.92554405 0.810691772,4.92554405 0.50034224,4.92554405 C0.582822362,5.0419664 0.681029776,5.10017757 0.794964481,5.10017757 C0.965866538,5.10017757 1.57653328,5.37462538 1.57653328,5.46354581 C1.57653328,5.55246623 1.06139396,5.34974093 0.965866538,5.34974093 C0.870339111,5.34974093 1.63841982,6.07465254 2.04650072,6.10230192 C2.45458161,6.12995131 2.71244219,6.23949818 2.88836922,6.23949818 C3.00565391,6.23949818 3.10551869,6.23949818 3.18796355,6.23949818 C2.63387626,6.52181684 2.35683262,6.66297617 2.35683262,6.66297617 C2.35683262,6.66297617 2.27288908,6.66297617 2.63347074,6.66297617 C2.99405239,6.66297617 3.2698442,6.76317755 3.41165429,6.55602835 C3.55346439,6.34887915 3.55346439,6.10230192 3.55346439,6.10230192 Z" id="left" fill="#00A854"></path>
                    </g>
                    <g id="middle" transform="translate(1.956522, 1.704545)">
                        <mask id="mask-4" fill="white">
                            <use xlink:href="#path-3"></use>
                        </mask>
                        <path stroke="#E8AA00" stroke-width="0.625" d="M3.15020557,-0.351874827 L4.02062405,0.877150683 C3.71933786,1.38661223 3.67340623,1.96071614 3.86364041,2.59745035 C4.05273597,3.23037351 4.00762055,3.77546571 3.72253583,4.16917725 C3.47084042,4.51677704 3.0197249,4.7700949 2.28308194,4.82143816 C2.17426819,4.8420002 2.09475107,4.85660832 2.05551165,4.8852725 L2.05551165,4.8852725 L2.145,4.699 L1.549,4.703 L1.64027104,4.88552232 C1.61056354,4.86405586 1.55838801,4.85031957 1.48815172,4.83609638 L1.4120584,4.82140657 C0.675547322,4.77000132 0.224551946,4.51671283 -0.0270969728,4.16917725 C-0.312181695,3.77546571 -0.357297114,3.23037351 -0.168201547,2.59745035 C-0.0167709137,2.09059577 -0.0144133212,1.62360991 -0.172345677,1.19716239 L-0.172345677,1.19716239 L-0.3146835,0.862322355 L0.545233292,-0.351874827 C0.816511061,-0.133847427 1.02573086,0.0352693159 1.2015243,0.0352693159 L1.2015243,0.0352693159 L1.9033175,-0.216751756 L2.10456092,-0.102595526 C2.263126,-0.0181028301 2.39159994,0.0352693159 2.49391456,0.0352693159 C2.669708,0.0352693159 2.8789278,-0.133847427 3.15020557,-0.351874827 L3.15020557,-0.351874827 Z"></path>
                        <rect id="Rectangle-52" fill="#67BAFF" mask="url(#mask-4)" x="0.108695652" y="0" width="1.73913043" height="2.38636364"></rect>
                        <rect id="Rectangle-52" fill="#FFFFFF" mask="url(#mask-4)" x="1.84782609" y="0" width="1.73913043" height="2.38636364"></rect>
                        <rect id="Rectangle-52" fill="#C51918" mask="url(#mask-4)" x="-0.108695652" y="2.61363636" width="4.34782609" height="2.72727273"></rect>
                        <polygon id="Path-201" fill="#C9A951" fill-rule="nonzero" mask="url(#mask-4)" points="2.69021611 2.2173102 2.4728248 2.2173102 2.4728248 0.58312089 2.69021611 0.58312089"></polygon>
                        <polygon id="Path-202" fill="#C9A951" fill-rule="nonzero" mask="url(#mask-4)" points="2.60213694 1.47393365 2.49615599 1.6637415 2.12092257 1.45422647 2.22690352 1.26441863"></polygon>
                        <polygon id="Path-202" fill="#C9A951" fill-rule="nonzero" mask="url(#mask-4)" points="2.60213694 1.0193882 2.49615599 1.20919604 2.12092257 0.999681016 2.22690352 0.809873173"></polygon>
                        <polygon id="Path-202" fill="#C9A951" fill-rule="nonzero" mask="url(#mask-4)" transform="translate(2.796312, 1.473156) scale(-1, 1) translate(-2.796312, -1.473156) " points="3.03691955 1.47393365 2.9309386 1.6637415 2.55570518 1.45422647 2.66168613 1.26441863"></polygon>
                        <polygon id="Path-202" fill="#C9A951" fill-rule="nonzero" mask="url(#mask-4)" transform="translate(2.796312, 1.018610) scale(-1, 1) translate(-2.796312, -1.018610) " points="3.03691955 1.0193882 2.9309386 1.20919604 2.55570518 0.999681016 2.66168613 0.809873173"></polygon>
                        <path d="M2.87418169,3.1110513 C2.97500983,2.99577237 3.02542391,2.96695264 3.02542391,3.0245921 C3.02542391,3.1110513 3.02542391,3.25642701 2.9498028,3.25642701 C2.87418169,3.25642701 2.52194517,3.18725965 2.38776226,3.0245921 C2.25357935,2.86192456 1.96968192,2.57873185 1.60425627,2.64541416 C1.23883062,2.71209646 0.805422361,3.18581004 0.698585264,3.18581004 C0.591748167,3.18581004 0.357602804,3.55095778 0.528094034,3.83611782 C0.698585264,4.12127786 0.988593494,4.03279955 0.988593494,4.11553117 C0.988593494,4.19826278 1.06110828,4.20778883 1.33268228,4.20778883 C1.60425627,4.20778883 1.70355672,4.30356698 1.93866962,4.30356698 C2.17378253,4.30356698 1.8610625,4.30004649 2.23972821,4.20778883 C2.61839392,4.11553117 2.90519398,3.83611782 2.68454329,3.83611782 C2.46389261,3.83611782 2.39259998,3.83611782 2.23972821,3.83611782 C2.08685644,3.83611782 1.74660083,3.94628858 1.74660083,3.83611782 C1.74660083,3.72594705 1.8221571,3.49007393 2.03094265,3.60801049 C2.23972821,3.72594705 2.81984652,3.81587497 3.02542391,3.60801049 C3.23100129,3.40014601 3.302905,3.27480606 3.26695315,3.0245921 C3.24298525,2.8577828 3.13726846,2.79838309 2.9498028,2.84639297 L2.87418169,3.1110513 Z" id="Path-203" fill="#FBCD17" mask="url(#mask-4)"></path>
                        <path d="M1.40358483,0.526638925 C1.27255327,0.641253633 1.35708469,1.06010911 1.14236536,1.06010911 C0.927646025,1.06010911 0.625481226,0.746465088 0.549389982,0.953425088 C0.473298738,1.16038509 0.549389982,1.09084773 0.549389982,1.26711918 C0.549389982,1.44339062 0.367134932,1.93320597 0.458262457,2.01600999 C0.549389982,2.09881402 0.642765619,2.31699272 0.62658261,2.2148598 C0.610399601,2.11272689 0.541510452,1.96273769 0.570218666,1.79980364 C0.542464217,1.63147327 0.723791688,1.46957351 0.723791688,1.46957351 C0.723791688,1.46957351 0.704110862,1.64433351 0.689832039,1.70948877 C0.649981827,1.79716699 0.638145544,1.87012287 0.654323191,1.92835639 C0.695252471,2.09248414 0.724153076,2.18021921 0.741025006,2.19156159 C0.751982978,1.80293875 0.763693788,1.57660283 0.776157435,1.51255383 C0.794852906,1.41648032 0.928117737,1.62091855 0.972447334,1.59775282 C0.982593914,1.86348972 0.979984077,2.01219115 0.964617822,2.0438571 C0.933458703,2.10671677 0.923671812,2.14818596 0.935257149,2.16826468 C0.964157754,2.24101504 0.990937866,2.26679555 1.01559749,2.24560621 C1.01646743,2.24409331 1.02315096,2.20793239 1.03564806,2.13712343 C1.02112666,2.09435996 1.02522963,2.02429872 1.04795696,1.92693968 C1.0718972,1.71255392 1.08881932,1.62861859 1.09872332,1.6751337 C1.09427321,1.77634932 1.09775718,1.85304371 1.10917522,1.90521689 C1.12741062,2.03474035 1.13835605,2.10661183 1.14201149,2.12083134 C1.22947451,2.24540507 1.27436874,2.28138673 1.27669417,2.2287763 C1.19285314,2.12880248 1.1599123,2.04077883 1.17787166,1.96470533 C1.12987408,1.74919146 1.13937656,1.6174074 1.20637912,1.56935315 C1.38413248,1.48713186 1.47835431,1.37564952 1.48904461,1.23490612 C1.51480002,1.07451251 1.52999062,0.957551372 1.53461639,0.884022696 C1.49561939,0.862404846 1.51642281,0.832614713 1.59702664,0.794652299 C1.72677404,0.744849039 1.75122454,0.685321245 1.67037813,0.616068916" id="Path-199" fill="#D18219" mask="url(#mask-4)"></path>
                    </g>
                </g>
            </g>
        </g>
    </g>
</svg>