<?xml version="1.0" encoding="UTF-8"?>
<svg width="20px" height="15px" viewBox="0 0 20 15" version="1.1" xmlns="http://www.w3.org/2000/svg" xmlns:xlink="http://www.w3.org/1999/xlink">
    <title>flags/M/PF - French Polynesia</title>
    <defs>
        <rect id="path-1" x="0" y="0" width="20" height="15"></rect>
        <rect id="path-3" x="0" y="0" width="20" height="15"></rect>
    </defs>
    <g id="Symbols" stroke="none" stroke-width="1" fill="none" fill-rule="evenodd">
        <g id="flag">
            <mask id="mask-2" fill="white">
                <use xlink:href="#path-1"></use>
            </mask>
            <g id="mask"></g>
            <g id="contents" mask="url(#mask-2)">
                <mask id="mask-4" fill="white">
                    <use xlink:href="#path-3"></use>
                </mask>
                <use id="background" fill="#F7FCFF" xlink:href="#path-3"></use>
                <rect id="top" fill="#BF2714" mask="url(#mask-4)" x="0" y="0" width="20" height="3.75"></rect>
                <rect id="bottom" fill="#BF2714" mask="url(#mask-4)" x="0" y="11.25" width="20" height="3.75"></rect>
                <g id="mark" mask="url(#mask-4)">
                    <g transform="translate(6.250000, 3.750000)">
                        <g id="waves" stroke-width="1" fill="none" transform="translate(0.122951, 4.549180)">
                            <path d="M0.398776972,0.160061472 L0.63233712,0.295596051 C0.667174985,0.315812408 0.709705766,0.317682894 0.746183905,0.300602985 L1.32272088,0.0306550289 C1.36313412,0.0117326157 1.41062738,0.0161923563 1.44681147,0.0423074584 L2.06961588,0.491803279 L2.06961588,0.491803279 L2.93052671,0.0282887438 C2.96370426,0.0104259457 3.00324076,0.00876290929 3.0378012,0.0237764231 L3.68619528,0.30544745 C3.7189692,0.319684876 3.75631568,0.31895989 3.78851234,0.303461227 L4.37019623,0.0234532883 C4.40124234,0.00850847783 4.43713482,0.00727667346 4.46913246,0.0200578674 L5.18878442,0.30751692 C5.2212107,0.320469331 5.25761483,0.319023485 5.28891174,0.303540208 L5.84636388,0.0277562881 C5.88161439,0.0103170793 5.92308038,0.0107935768 5.95792084,0.0290382208 L6.46922699,0.296790119 C6.50622493,0.316164554 6.55052808,0.315433137 6.5868663,0.294847967 L6.85277307,0.144214981 C6.91185546,0.110745515 6.98688357,0.131508896 7.02035304,0.190591291 C7.03621093,0.218584636 7.04046451,0.251678591 7.03220108,0.282772256 L6.9766492,0.491803279 L6.9766492,0.491803279 L0.279962017,0.491803279 L0.219939984,0.303797372 C0.19928819,0.23911014 0.234985967,0.16992919 0.299673199,0.149277397 C0.332748643,0.13871786 0.368746849,0.14263504 0.398776972,0.160061472 Z" id="Path-57" fill="#5277B9"></path>
                            <path d="M0.395504983,0.901639344 L0.610955707,1.0312275 C0.64657699,1.0526528 0.690612141,1.05462859 0.728009065,1.0364795 L1.27627788,0.770399396 C1.31765502,0.750318675 1.36677984,0.755010427 1.40360794,0.782560277 L2.00107912,1.2295082 L2.00107912,1.2295082 L2.82836852,0.767841415 C2.86234298,0.748882054 2.90328632,0.74712193 2.93876253,0.763095658 L3.55735683,1.04162761 C3.59101417,1.05678237 3.62969944,1.05601388 3.66272836,1.03953439 L4.21752271,0.762724687 C4.24937677,0.746831386 4.28655575,0.745524606 4.31944707,0.759142212 L5.00705114,1.04382282 C5.04037952,1.05762138 5.07808607,1.05608808 5.11018405,1.03962902 L5.64125628,0.767308145 C5.67738324,0.748783126 5.7203262,0.749286897 5.75600863,0.768654325 L6.24202397,1.03244989 C6.27989754,1.05300661 6.32576899,1.05223479 6.36292955,1.03041558 L6.60673471,0.887262878 C6.66529086,0.85288103 6.740632,0.872478177 6.77501385,0.931034331 C6.79144958,0.959026234 6.79614893,0.992381936 6.78808679,1.02382525 L6.73534919,1.2295082 L6.73534919,1.2295082 L0.274434081,1.2295082 L0.216576756,1.04166948 C0.196803145,0.977472768 0.23281518,0.909401375 0.297011888,0.889627764 C0.330057735,0.879449116 0.365873953,0.88381703 0.395504983,0.901639344 Z" id="Path-57" fill="#5277B9"></path>
                            <path d="M0.518455803,1.39344262 L0.733906527,1.52303078 C0.769527809,1.54445608 0.813562961,1.54643187 0.850959885,1.52828278 L1.3992287,1.26220268 C1.44060584,1.24212195 1.48973066,1.24681371 1.52655876,1.27436356 L2.12402994,1.72131148 L2.12402994,1.72131148 L2.95131934,1.25964469 C2.9852938,1.24068533 3.02623714,1.23892521 3.06171335,1.25489894 L3.68030765,1.53343089 C3.71396499,1.54858565 3.75265026,1.54781716 3.78567918,1.53133767 L4.34047353,1.25452797 C4.37232759,1.23863466 4.40950657,1.23732788 4.44239789,1.25094549 L5.13000196,1.5356261 C5.16333034,1.54942466 5.20103689,1.54789135 5.23313487,1.53143229 L5.7642071,1.25911142 C5.80033406,1.2405864 5.84327702,1.24109018 5.87895945,1.2604576 L6.36497479,1.52425317 C6.40284836,1.54480988 6.44871981,1.54403807 6.48588037,1.52221886 L6.72968553,1.37906616 C6.78824168,1.34468431 6.86358282,1.36428146 6.89796467,1.42283761 C6.9144004,1.45082951 6.91909975,1.48418521 6.91103761,1.51562853 L6.85830001,1.72131148 L6.85830001,1.72131148 L0.397384901,1.72131148 L0.339527576,1.53347275 C0.319753965,1.46927605 0.355766,1.40120465 0.419962708,1.38143104 C0.453008554,1.37125239 0.488824772,1.37562031 0.518455803,1.39344262 Z" id="Path-57" fill="#5277B9"></path>
                            <path d="M1.25616072,1.8852459 L1.47161144,2.01483406 C1.50723273,2.03625935 1.55126788,2.03823514 1.5886648,2.02008606 L2.13693362,1.75400595 C2.17831076,1.73392523 2.22743558,1.73861698 2.26426368,1.76616683 L2.86173486,2.21311475 L2.86173486,2.21311475 L3.68902426,1.75144797 C3.72299872,1.73248861 3.76394206,1.73072849 3.79941826,1.74670222 L4.41801257,2.02523417 C4.45166991,2.04038893 4.49035517,2.03962044 4.5233841,2.02314095 L5.07817845,1.74633124 C5.11003251,1.73043794 5.14721149,1.72913116 5.18010281,1.74274877 L5.86770688,2.02742938 C5.90103525,2.04122794 5.93874181,2.03969463 5.97083979,2.02323557 L6.50191202,1.7509147 C6.53803897,1.73238968 6.58098194,1.73289345 6.61666437,1.75226088 L7.10267971,2.01605645 C7.14055328,2.03661316 7.18642473,2.03584135 7.22358529,2.01402214 L7.46739045,1.87086944 C7.5259466,1.83648759 7.60128774,1.85608473 7.63566958,1.91464089 C7.65210532,1.94263279 7.65680467,1.97598849 7.64874253,2.00743181 L7.59600493,2.21311475 L7.59600493,2.21311475 L1.13508982,2.21311475 L1.07723249,2.02527603 C1.05745888,1.96107933 1.09347092,1.89300793 1.15766763,1.87323432 C1.19071347,1.86305567 1.22652969,1.86742359 1.25616072,1.8852459 Z" id="Path-57" fill="#5277B9"></path>
                            <path d="M0.272554163,2.5 L0.488004887,2.62958815 C0.52362617,2.65101345 0.567661322,2.65298924 0.605058246,2.63484016 L1.15332706,2.36876005 C1.1947042,2.34867933 1.24382902,2.35337108 1.28065712,2.38092093 L1.8781283,2.82786885 L1.8781283,2.82786885 L2.7054177,2.36620207 C2.73939216,2.34724271 2.7803355,2.34548259 2.81581171,2.36145631 L3.43440601,2.63998827 C3.46806336,2.65514303 3.50674862,2.65437454 3.53977754,2.63789505 L4.09457189,2.36108534 C4.12642595,2.34519204 4.16360493,2.34388526 4.19649625,2.35750287 L4.88410032,2.64218348 C4.9174287,2.65598203 4.95513525,2.65444873 4.98723323,2.63798967 L5.51830546,2.3656688 C5.55443242,2.34714378 5.59737538,2.34764755 5.63305781,2.36701498 L6.11907315,2.63081055 C6.15694672,2.65136726 6.20281817,2.65059545 6.23997873,2.62877624 L6.48378389,2.48562353 C6.54234004,2.45124169 6.61768118,2.47083883 6.65206303,2.52939499 C6.66849876,2.55738689 6.67319811,2.59074259 6.66513597,2.6221859 L6.61239837,2.82786885 L6.61239837,2.82786885 L0.151483261,2.82786885 L0.0936259364,2.64003013 C0.0738523255,2.57583342 0.109864361,2.50776203 0.174061068,2.48798842 C0.207106915,2.47780977 0.242923133,2.48217769 0.272554163,2.5 Z" id="Path-57" fill="#5277B9"></path>
                        </g>
                        <g id="boat" stroke-width="1" fill="none" transform="translate(0.967213, 0.368852)">
                            <path d="M0.699788313,1.78479679 L1.32478831,1.78479679 L1.31030769,4.25486371 C1.41523381,4.58743499 1.56493196,4.71736788 1.79685733,4.71736788 L1.79685733,5.34236788 C1.2691556,5.34236788 0.895807735,5.01831466 0.699788313,4.34888872 L0.699788313,1.78479679 Z" id="Path-59" fill="#FF0000" fill-rule="nonzero"></path>
                            <path d="M3.82765689,1.78479679 L4.45265689,1.78479679 L4.43817626,4.25486371 C4.54310238,4.58743499 4.69280053,4.71736788 4.9247259,4.71736788 L4.9247259,5.34236788 C4.39702417,5.34236788 4.02367631,5.01831466 3.82765689,4.34888872 L3.82765689,1.78479679 Z" id="Path-59" fill="#FF0000" fill-rule="nonzero" transform="translate(4.376191, 3.563582) scale(-1, 1) translate(-4.376191, -3.563582) "></path>
                            <path d="M3.23572682,0.199044801 C2.54452741,0.0183050714 2.19892771,0.157090361 2.19892771,0.615400669 C2.19892771,1.07371098 2.19892771,1.79499172 2.19892771,2.77924289 L3.40765612,3.13820508 L3.40765612,1.36957369 C3.00474665,1.12338503 2.80329191,0.904026242 2.80329191,0.711497315 C2.80329191,0.518968387 2.94743688,0.348150883 3.23572682,0.199044801 Z" id="Path-60" fill="#FF0000"></path>
                        </g>
                        <g id="cross" stroke-width="1" fill="none" transform="translate(2.336066, 3.688525)">
                            <line x1="0.122471656" y1="0.618142635" x2="0.516653553" y2="0.114433976" id="Path-61" stroke="#000000" stroke-width="0.625"></line>
                            <line x1="0.481930315" y1="0.601535316" x2="0.10423533" y2="0.0948200391" id="Path-62" stroke="#000000" stroke-width="0.625"></line>
                        </g>
                        <g id="cross" stroke-width="1" fill="none" transform="translate(2.901640, 3.688525)">
                            <line x1="0.122471656" y1="0.618142635" x2="0.516653553" y2="0.114433976" id="Path-61" stroke="#000000" stroke-width="0.625"></line>
                            <line x1="0.481930315" y1="0.601535316" x2="0.10423533" y2="0.0948200391" id="Path-62" stroke="#000000" stroke-width="0.625"></line>
                        </g>
                        <g id="cross" stroke-width="1" fill="none" transform="translate(3.442623, 3.688525)">
                            <line x1="0.122471656" y1="0.618142635" x2="0.516653553" y2="0.114433976" id="Path-61" stroke="#000000" stroke-width="0.625"></line>
                            <line x1="0.481930315" y1="0.601535316" x2="0.10423533" y2="0.0948200391" id="Path-62" stroke="#000000" stroke-width="0.625"></line>
                        </g>
                        <g id="cross" stroke-width="1" fill="none" transform="translate(4.008197, 3.688525)">
                            <line x1="0.122471656" y1="0.618142635" x2="0.516653553" y2="0.114433976" id="Path-61" stroke="#000000" stroke-width="0.625"></line>
                            <line x1="0.481930315" y1="0.601535316" x2="0.10423533" y2="0.0948200391" id="Path-62" stroke="#000000" stroke-width="0.625"></line>
                        </g>
                        <g id="cross" stroke-width="1" fill="none" transform="translate(4.573770, 3.688525)">
                            <line x1="0.122471656" y1="0.618142635" x2="0.516653553" y2="0.114433976" id="Path-61" stroke="#000000" stroke-width="0.625"></line>
                            <line x1="0.481930315" y1="0.601535316" x2="0.10423533" y2="0.0948200391" id="Path-62" stroke="#000000" stroke-width="0.625"></line>
                        </g>
                        <path d="M0.14882175,3.69885709 L1.60632494,3.77153118 L1.60632494,4.47428893 L0.302285087,4.47428893 L0.14882175,3.69885709 Z M7.42535379,3.69885709 L7.27189045,4.47428893 L5.9678506,4.47428893 L5.9678506,3.77153118 L7.42535379,3.69885709 Z M0.337317912,2.53429642 L1.63038057,3.03167559 L1.63038057,3.57850647 L0.337317912,3.44623673 L0.337317912,2.53429642 Z M7.23685763,2.53429642 L7.23685763,3.44623673 L5.94379497,3.57850647 L5.94379497,3.03167559 L7.23685763,2.53429642 Z M2.35447683,2.76249887 L2.89956875,3.2001737 L2.84040783,3.43127442 L2.35447683,3.2001737 L2.35447683,2.76249887 Z M5.21969871,2.76249887 L5.21969871,3.2001737 L4.73376771,3.43127442 L4.67460679,3.2001737 L5.21969871,2.76249887 Z M1.78424242,0.717733946 L2.91703082,2.52857234 L2.91703082,2.98885367 L2.37233741,2.52857234 L2.37233741,1.93138404 L1.78424242,1.93138404 L1.24530932,1.3599541 L1.78424242,0.717733946 Z M5.78993312,0.717733946 L6.32886622,1.3599541 L5.78993312,1.93138404 L5.20183813,1.93138404 L5.20183813,2.52857234 L4.65714472,2.98885367 L4.65714472,2.52857234 L5.78993312,0.717733946 Z M0.839153169,1.41585446 L1.65758807,2.11517052 L1.58078395,2.84223749 L0.5977636,2.37163108 L0.839153169,1.41585446 Z M6.73502237,1.41585446 L6.97641194,2.37163108 L5.99339159,2.84223749 L5.91658747,2.11517052 L6.73502237,1.41585446 Z M2.90703179,0.396388384 L2.99912428,0.684258941 L2.90703179,2.1456748 L2.15898859,0.684258941 L2.90703179,0.396388384 Z M4.66714375,0.396388384 L5.41518695,0.684258941 L4.66714375,2.1456748 L4.57505126,0.684258941 L4.66714375,0.396388384 Z" id="Combined-Shape" fill="#FA8F21"></path>
                    </g>
                </g>
            </g>
        </g>
    </g>
</svg>