<?xml version="1.0" encoding="UTF-8"?>
<svg width="20px" height="15px" viewBox="0 0 20 15" version="1.1" xmlns="http://www.w3.org/2000/svg" xmlns:xlink="http://www.w3.org/1999/xlink">
    <title>flags/M/PG - Papua New Guinea</title>
    <defs>
        <rect id="path-1" x="0" y="0" width="20" height="15"></rect>
    </defs>
    <g id="Symbols" stroke="none" stroke-width="1" fill="none" fill-rule="evenodd">
        <g id="flag">
            <mask id="mask-2" fill="white">
                <use xlink:href="#path-1"></use>
            </mask>
            <g id="mask"></g>
            <g id="contents" mask="url(#mask-2)">
                <rect id="background" fill="#E11C1B" x="0" y="0" width="20" height="15" rx="1.25"></rect>
                <polygon id="left" fill="#1D1D1D" points="0 0 20 15 0 15"></polygon>
                <g id="mark" transform="translate(1.250000, 1.250000)">
                    <polygon id="stars" fill="#EEEEF6" points="3.17711571 10.1677863 4.00950321 10.1677863 4.40536887 9.23447931 4.87067196 10.1614976 5.72349696 10.2081401 4.99466267 11.0014205 5.36888984 11.9570893 4.44247109 11.425113 3.58698359 11.9618505 3.90969097 11.0339514"></polygon>
                    <polygon id="stars" fill="#EEEEF6" points="0.677115712 7.66778632 1.50950321 7.66778632 1.90536887 6.73447931 2.37067196 7.66149757 3.22349696 7.7081401 2.49466267 8.50142054 2.86888984 9.45708928 1.94247109 8.92511303 1.08698359 9.46185053 1.40969097 8.53395137"></polygon>
                    <polygon id="stars" fill="#EEEEF6" points="3.17711571 6.41778632 4.00950321 6.41778632 4.40536887 5.48447931 4.87067196 6.41149757 5.72349696 6.4581401 4.99466267 7.25142054 5.36888984 8.20708928 4.44247109 7.67511303 3.58698359 8.21185053 3.90969097 7.28395137"></polygon>
                    <polygon id="stars" fill="#EEEEF6" points="4.81951691 9.10263315 5.391688 9.08361275 5.59823086 8.4934814 5.83011529 9.08045821 6.3566148 9.13107021 5.88250374 9.46628666 6.26488034 10.0598894 5.60147368 9.81175114 5.02649629 10.0678718 5.33013674 9.48260465"></polygon>
                    <polygon id="stars" fill="#EEEEF6" points="6.06951691 7.85263315 6.641688 7.83361275 6.84823086 7.2434814 7.08011529 7.83045821 7.6066148 7.88107021 7.13250374 8.21628666 7.51488034 8.80988943 6.85147368 8.56175114 6.27649629 8.81787176 6.58013674 8.23260465"></polygon>
                    <path d="M11.9274364,0 C10.6404415,0.256748531 10.1775458,1.27963298 10.5387494,3.06865334 L10.2633421,3.06865334 C10.2783577,2.9752999 10.1976012,2.90125485 10.0210726,2.84651821 C9.75627974,2.76441324 9.80930045,2.79523581 9.67265821,2.84651821 C9.58156338,2.88070647 9.25889992,2.88070647 8.70466781,2.84651821 L8.70466781,2.94924242 L9.29296986,3.20331612 C9.28330463,3.34435598 9.36045391,3.45395327 9.52441769,3.53210799 C9.68838147,3.61026271 9.82989085,3.66817019 9.94894582,3.70583042 C9.97321246,3.86146672 9.90852443,3.93928487 9.75488173,3.93928487 C9.52441769,3.93928487 8.59748727,3.63881891 8.26781651,4.37701913 C8.048036,4.86915262 7.79209717,5.29576173 7.5,5.65684645 L7.99432492,5.65684645 L7.86166959,5.8216941 L8.41828349,5.8216941 L8.26781651,5.9070939 C8.72688059,5.90199223 8.97431057,5.87352563 9.01010645,5.8216941 C9.04590233,5.76986257 9.04590233,5.84011679 9.01010645,6.03245676 C9.45481075,5.82938203 9.689348,5.7041786 9.71371819,5.65684645 L10.0250595,5.87042566 L10.1137553,5.50900436 L10.4478272,5.65684645 L10.5387494,5.31248386 C11.1687846,6.36615545 11.7227233,6.86275324 12.2005655,6.80227722 L12.2005655,6.53996645 L12.8546775,6.80227722 L12.9377294,6.6856297 C13.4645192,6.90043118 13.8089812,7.01778726 13.9711155,7.03769794 L13.7976073,6.6856297 L13.9711155,6.6856297 L13.7976073,6.03245676 L13.9711155,6.03245676 C13.7397712,5.6834885 13.6240991,5.50900436 13.6240991,5.50900436 C13.6889252,5.41451722 13.7213383,5.36727365 13.7213383,5.36727365 C13.6784315,5.24309763 13.6569782,5.18100962 13.6569782,5.18100962 C14.5051024,5.45118546 14.9100412,5.80119886 14.8717945,6.23104982 C14.8335478,6.66090078 14.6255554,6.96255462 14.2478173,7.13601134 C13.8856127,7.24697262 13.5409263,7.29051394 13.2137582,7.26663529 C13.4734768,7.57340851 13.8780876,7.67482188 14.4275907,7.57087539 C14.9770937,7.46692891 15.3429056,7.14855294 15.5250262,6.61574748 C15.7769781,7.13909359 15.7992427,7.53835226 15.5918198,7.81352348 C15.384397,8.0886947 14.8189118,8.32287544 13.8953642,8.51606569 C14.2295052,8.71198391 14.5549819,8.78484211 14.8717945,8.73464028 C15.3470133,8.65933753 16.0860412,8.24573042 16.229311,7.57087539 C16.3725809,6.89602037 15.7350379,5.65073508 15.44622,5.50900436 L15.332153,5.07695685 C15.5052642,5.14632537 15.5918198,5.18100962 15.5918198,5.18100962 C15.236657,4.31248606 15.0590756,3.87822429 15.0590756,3.87822429 C15.2312894,3.91595537 15.3173962,3.93482092 15.3173962,3.93482092 C14.8149077,3.30976029 14.5636634,2.99722998 14.5636634,2.99722998 C14.7020143,2.9546098 14.7711897,2.9332997 14.7711897,2.9332997 C14.0769843,2.4342928 13.7298816,2.18478934 13.7298816,2.18478934 L14.0414819,2.10247181 C13.5283615,1.84242845 12.9791346,1.86986763 12.3938012,2.18478934 C12.3993242,2.07598919 12.4020857,2.02158911 12.4020857,2.02158911 C12.2482704,2.04759345 12.1713627,2.06059561 12.1713627,2.06059561 C12.1804757,1.94091898 12.1850321,1.88108067 12.1850321,1.88108067 C12.3379154,1.64945077 12.414357,1.53363582 12.414357,1.53363582 C12.1848423,1.4452069 12.0700849,1.40099245 12.0700849,1.40099245 C12.2556228,1.1222784 12.3344635,0.984834504 12.306607,0.988660755 C12.09984,1.04800307 12.0023247,1.06523892 12.014061,1.04036829 C12.1183765,0.771751292 12.1568131,0.641038763 12.1293707,0.648230697 C11.8895694,0.72978653 11.7874113,0.750157774 11.8228965,0.709344429 L11.9611439,0.463188946 L11.9274364,0 Z" id="Path-197" fill="#FBCD17"></path>
                </g>
            </g>
        </g>
    </g>
</svg>