<?xml version="1.0" encoding="UTF-8"?>
<svg width="20px" height="15px" viewBox="0 0 20 15" version="1.1" xmlns="http://www.w3.org/2000/svg" xmlns:xlink="http://www.w3.org/1999/xlink">
    <title>flags/M/PH - Philippines</title>
    <defs>
        <rect id="path-1" x="0" y="0" width="20" height="15"></rect>
        <rect id="path-3" x="0" y="0" width="20" height="15"></rect>
        <polygon id="path-5" points="0 0 0 15 11.25 7.5"></polygon>
    </defs>
    <g id="Symbols" stroke="none" stroke-width="1" fill="none" fill-rule="evenodd">
        <g id="flag">
            <mask id="mask-2" fill="white">
                <use xlink:href="#path-1"></use>
            </mask>
            <g id="mask"></g>
            <g id="contents" mask="url(#mask-2)">
                <mask id="mask-4" fill="white">
                    <use xlink:href="#path-3"></use>
                </mask>
                <use id="background" fill="#BF2714" xlink:href="#path-3"></use>
                <rect id="top" fill="#3D58DB" mask="url(#mask-4)" x="0" y="-1.25" width="20" height="8.75"></rect>
                <mask id="mask-6" fill="white">
                    <use xlink:href="#path-5"></use>
                </mask>
                <use id="triangle" fill="#F7FCFF" xlink:href="#path-5"></use>
                <polygon id="Shape-sp-1695-0" fill="#FECA00" mask="url(#mask-6)" points="8.34196114 7.17539642 9.19647376 7.19163206 9.45134365 6.50470329 9.71856475 7.20209295 10.4898624 7.17539642 9.85363205 7.6860106 10.1361599 8.31340105 9.47826746 7.99348782 8.77876404 8.40996851 9.015409 7.67957829"></polygon>
                <polygon id="Shape-sp-1695-0" fill="#FECA00" mask="url(#mask-6)" points="0.841961136 10.9253964 1.64157491 10.9792244 1.95134365 10.2547033 2.16366589 10.9896853 2.98986241 10.9253964 2.29873319 11.473603 2.6361599 12.0634011 1.92492439 11.81307 1.27876404 12.1599685 1.46051015 11.4671707"></polygon>
                <polygon id="Shape-sp-1695-0" fill="#FECA00" mask="url(#mask-6)" points="0.841961136 3.42539642 1.70636916 3.42884787 1.95134365 2.75470329 2.22846014 3.43930875 2.98986241 3.42539642 2.36352744 3.9232264 2.6361599 4.56340105 1.98971864 4.26269343 1.27876404 4.65996851 1.5253044 3.9167941"></polygon>
                <path d="M5.07593775,9.08302212 C5.93888267,9.08302212 6.63843775,8.38346704 6.63843775,7.52052212 C6.63843775,6.6575772 5.93888267,5.95802212 5.07593775,5.95802212 C4.21299283,5.95802212 3.51343775,6.6575772 3.51343775,7.52052212 C3.51343775,8.38346704 4.21299283,9.08302212 5.07593775,9.08302212 Z" id="Oval-43" fill="#FECA00" mask="url(#mask-6)"></path>
                <path d="M4.88392491,6.16715227 L4.73014795,5.17170476 C4.70389983,5.04272401 4.78718108,4.91688614 4.91616183,4.89063802 C4.92771981,4.88828592 4.93943646,4.88679507 4.95121518,4.88617778 C5.08265926,4.87928909 5.19480012,4.98026117 5.20168881,5.11170524 C5.20230611,5.12348397 5.20204816,5.13529227 5.20091708,5.1470328 L5.16015207,6.15267582 C5.15274591,6.22955148 5.084422,6.28586765 5.00754634,6.2784615 C4.94635165,6.27256604 4.89618466,6.22739548 4.88392491,6.16715227 Z M4.66320904,6.10038426 L4.50330664,5.67385404 C4.48764219,5.63207005 4.50881627,5.58549889 4.55060026,5.56983445 C4.55383956,5.56862006 4.55715351,5.56761497 4.56052165,5.56682538 C4.61094048,5.55500569 4.66192364,5.58415127 4.67731973,5.63359541 L4.81119271,6.06352505 C4.8226568,6.10034168 4.80210451,6.13948093 4.76528788,6.15094503 C4.72018337,6.16219275 4.67805246,6.13997822 4.66320904,6.10038426 Z M5.24668001,8.60510146 C5.30787469,8.61099692 5.35804168,8.65616748 5.37030143,8.71641069 L5.50546161,9.7626717 C5.53170974,9.89165245 5.44842849,10.0174903 5.31944774,10.0437384 C5.30788975,10.0460905 5.2961731,10.0475814 5.28439438,10.0481987 C5.15295031,10.0550874 5.04080945,9.95411529 5.03392075,9.82267122 C5.03330346,9.81089249 5.03356141,9.7990842 5.03469249,9.78734367 L5.09407428,8.73088714 C5.10148043,8.65401148 5.16980434,8.59769531 5.24668001,8.60510146 Z M4.38906824,8.34891945 C4.4281707,8.39635934 4.43170371,8.46377317 4.39777428,8.51504051 L3.76957454,9.39868595 C3.6969316,9.50844935 3.54906206,9.53854142 3.43929867,9.46589848 L3.41135834,9.44426588 L3.41135834,9.44426588 C3.3135423,9.35619193 3.30564478,9.20549832 3.39371874,9.10768228 C3.40161106,9.09891697 3.41014319,9.09074964 3.41924479,9.08324763 L4.19221579,8.32995481 C4.25181203,8.28083245 4.33994588,8.2893232 4.38906824,8.34891945 Z M6.2003722,8.17112037 L7.05767274,8.81815014 C7.16743613,8.89079307 7.1975282,9.03866262 7.12488527,9.14842601 L7.10325267,9.17636634 L7.10325267,9.17636634 C7.01517871,9.27418237 6.8644851,9.28207989 6.76666906,9.19400594 L6.74223441,9.16847989 L6.74223441,9.16847989 L6.0152865,8.37667886 C5.96616414,8.31708262 5.9746549,8.22894877 6.03425114,8.17982641 C6.08169103,8.14072395 6.14910486,8.13719094 6.2003722,8.17112037 Z M2.78689657,7.37368352 L3.83800751,7.40874259 C3.91488317,7.41614874 3.97119934,7.48447265 3.96379319,7.56134832 C3.95789773,7.622543 3.91272717,7.67270999 3.85248396,7.68496974 L2.81156854,7.84445265 C2.68258779,7.87070077 2.55674992,7.78741953 2.5305018,7.65843878 C2.5281497,7.64688079 2.52665885,7.63516414 2.52604156,7.62338542 C2.51915287,7.49194135 2.62012495,7.37980049 2.75156902,7.37291179 C2.76334775,7.3722945 2.77515605,7.37255245 2.78689657,7.37368352 Z M7.71773361,7.23131171 C7.72008571,7.2428697 7.72157655,7.25458634 7.72219385,7.26636507 C7.72908254,7.39780914 7.62811046,7.50995 7.49666638,7.51683869 C7.48488766,7.51745599 7.47307936,7.51719804 7.46133883,7.51606696 L6.41621884,7.47482037 C6.33934317,7.46741422 6.283027,7.39909031 6.29043315,7.32221464 C6.29632861,7.26101996 6.34149917,7.21085297 6.40174238,7.19859322 L7.43666687,7.04529784 C7.56564762,7.01904971 7.69148549,7.10233096 7.71773361,7.23131171 Z M3.4088684,5.71204729 C3.41763371,5.71993961 3.42580104,5.72847174 3.43330306,5.73757334 L4.23893984,6.5068841 C4.28806221,6.56648034 4.27957145,6.65461419 4.2199752,6.70373655 C4.17253531,6.74283901 4.10512148,6.74637202 4.05385415,6.71244259 L3.11786473,6.0879031 C3.00810134,6.01526016 2.97800926,5.86739061 3.0506522,5.75762722 L3.0722848,5.72968689 L3.0722848,5.72968689 C3.16035876,5.63187086 3.31105237,5.62397334 3.4088684,5.71204729 Z M6.82978613,5.4830803 C6.83962205,5.48958984 6.84896115,5.49682058 6.85772646,5.5047129 C6.9555425,5.59278685 6.96344002,5.74348046 6.87536606,5.8412965 C6.86747374,5.85006181 6.85894161,5.85822914 6.84984001,5.86573116 L6.06201055,6.55360815 C6.00241431,6.60273051 5.91428046,6.59423976 5.8651581,6.53464351 C5.82605564,6.48720362 5.82252263,6.41978979 5.85645206,6.36852245 L6.49951026,5.55029283 C6.5721532,5.44052944 6.72002274,5.41043736 6.82978613,5.4830803 Z" id="Combined-Shape" fill="#FECA00" mask="url(#mask-6)" transform="translate(5.124118, 7.467188) rotate(4.000000) translate(-5.124118, -7.467188) "></path>
            </g>
        </g>
    </g>
</svg>