<?xml version="1.0" encoding="UTF-8"?>
<svg width="20px" height="15px" viewBox="0 0 20 15" version="1.1" xmlns="http://www.w3.org/2000/svg" xmlns:xlink="http://www.w3.org/1999/xlink">
    <title>flags/M/PN - Pitcairn Islands</title>
    <defs>
        <rect id="path-1" x="0" y="0" width="20" height="15"></rect>
        <rect id="path-3" x="0" y="0" width="20" height="15"></rect>
        <path d="M0.0843163335,0.0885409577 L3.10870167,0.0885409577 L3.10870167,1.94866323 C2.94432875,2.96193593 2.4231116,3.71816741 1.54505021,4.21735768 C0.694533676,3.71128803 0.207622384,2.95505654 0.0843163335,1.94866323 L0.0843163335,0.0885409577 Z" id="path-5"></path>
        <rect id="path-7" x="0" y="0" width="11" height="9"></rect>
    </defs>
    <g id="Symbols" stroke="none" stroke-width="1" fill="none" fill-rule="evenodd">
        <g id="flag">
            <mask id="mask-2" fill="white">
                <use xlink:href="#path-1"></use>
            </mask>
            <g id="mask"></g>
            <g id="contents" mask="url(#mask-2)">
                <mask id="mask-4" fill="white">
                    <use xlink:href="#path-3"></use>
                </mask>
                <use id="background" fill="#2E42A5" xlink:href="#path-3"></use>
                <g id="mark" mask="url(#mask-4)">
                    <g transform="translate(12.000000, 6.000000)">
                        <path d="M0.942709062,1.0316918 C0.981113704,1.46024318 0.958221163,1.79593605 0.87403144,2.03877041 C0.747746855,2.40302196 0.683576572,2.61446418 0.683576572,2.38163261 C0.683576572,2.14880103 0.594892689,1.96428329 0.523566016,1.96428329 C0.452239344,1.96428329 0.508541551,2.19517757 0.436859036,2.19517757 C0.365176521,2.19517757 0.118221756,2.23487241 0.118221756,2.09957785 C0.118221756,1.96428329 0.0857214651,2.46252468 0.24596925,2.50708253 C0.406217034,2.55164038 0.168158334,2.68990019 0.0618800109,2.64708195 C0.35332828,2.74244446 0.556198101,2.83075625 0.670489472,2.91201733 C1.0131,3.34259826 1.34463987,3.53162318 1.66510908,3.4790921 C1.22874062,3.3274557 1.04900056,3.10677507 1.12588893,2.81705019 C1.24122147,2.38246288 1.66510908,2.31959954 1.66510908,2.31959954 C1.79771976,2.36424964 1.86203501,2.44504946 1.85805485,2.56199899 C1.8520846,2.7374233 2.00351539,2.50708253 2.00351539,2.50708253 C2.01977872,2.35932073 2.01894842,2.2674111 2.00102449,2.23135364 C1.97413861,2.17726745 2.45662164,2.07257429 2.48706595,1.84432896 C2.15839918,1.85945834 1.98278427,1.84747872 1.96022121,1.80839011 C1.92637662,1.7497572 2.11279861,1.65783439 2.05447996,1.54353381 C2.01560086,1.46733343 1.70607052,1.68454801 1.12588893,2.19517757 C1.32624149,1.84762369 1.42641777,1.58052698 1.42641777,1.39388743 C1.42641777,1.11392812 1.35006976,0.922610068 1.12588893,0.922610068 C0.976435033,0.922610068 0.915375078,0.958970646 0.942709062,1.0316918 Z" id="Path-226" fill="#5EAA22" fill-rule="evenodd"></path>
                        <path d="M5.87456889,1.11471885 C5.87456889,1.11471885 5.87456889,1.11471885 5.87456889,1.11471885 C5.9963725,1.22115163 5.96567778,1.32622698 5.78248474,1.4299449 C5.86812419,1.51355182 5.95990522,1.55535528 6.05782783,1.55535528 C6.15575045,1.55535528 6.21671814,1.51355182 6.24073093,1.4299449 C6.2482168,1.61600457 6.41164081,1.7442616 6.73100296,1.81471598 C6.84495167,1.65001971 6.84495167,1.52258976 6.73100296,1.43242613 C6.8656169,1.40430875 6.92803432,1.33537313 6.91825524,1.22561927 C6.80760137,1.2635745 6.71281545,1.23894314 6.63389747,1.1517252 C6.51552049,1.02089828 6.28481587,0.960565292 6.1170954,0.990731788 C6.05936456,0.96977244 6.00486157,0.955119825 5.95358643,0.946773946 L5.95358806,0.946763904 C5.90097175,0.938199727 5.85137517,0.973911037 5.84281099,1.02652735 C5.83745448,1.05943648 5.84946147,1.09277983 5.87456889,1.11471885 Z" id="Path-229" fill="#5EAA22" fill-rule="evenodd"></path>
                        <path d="M2.56883067,2.59260039 C2.89907896,3.21793907 2.96099558,3.59539587 2.75458051,3.72497078 C2.44495791,3.91933316 4.22678042,3.78107335 4.39465906,3.72497078 C4.56253769,3.66886822 4.36077493,3.37312144 4.17459018,3.29101605 C3.98840542,3.20891067 3.22294845,2.93573934 3.0193274,2.72971364 C2.81570636,2.52368794 2.94005358,2.4505846 3.10405748,2.24720785 C3.26806138,2.04383111 3.87520793,1.96250414 3.87520793,1.77241172 C3.87520793,1.58231931 4.2603087,0.798346246 4.52948386,0.739199355 C4.79865902,0.680052464 4.65323801,0.586904018 4.59136094,0.586904018 C4.52948386,0.586904018 4.15735158,0.97301935 4.01627976,0.903355699 C3.87520793,0.833692048 3.85796934,0.838594598 4.01627976,0.670207828 C4.17459018,0.501821058 4.29375791,0.308012194 4.08448292,0.447458106 C3.87520793,0.586904018 3.53015923,0.807597832 3.36429704,0.807597832 C3.19843485,0.807597832 2.60797336,0.732319971 2.68127693,0.903355699 C2.75458051,1.07439143 2.78565743,1.37127245 3.10405748,1.57184208 C3.42245753,1.77241172 3.2840743,1.91918386 3.0193274,2.11245301 C2.84282947,2.24129911 2.6926639,2.40134824 2.56883067,2.59260039 Z" id="Path-244" fill="#96877D" fill-rule="evenodd"></path>
                        <path d="M5.85586739,1.35217622 L4.91193558,3.25792384 C4.89358992,3.61681157 5.10936233,3.6766833 5.55925281,3.43753903 C6.23408854,3.07882263 6.20751895,2.82440402 6.40208578,2.82440402 C6.59665261,2.82440402 6.65845061,2.71563858 6.65845061,2.71563858 C6.57204675,2.6472401 6.52884482,2.61304086 6.52884482,2.61304086 C6.51885487,2.48828942 6.54122024,2.41190453 6.59594092,2.3838862 C6.48858189,2.32434394 6.42723199,2.31942821 6.41189122,2.36913901 C6.38888007,2.44370521 6.27532674,2.21316676 6.3395761,2.21316676 C6.24492197,2.36746529 6.18760495,2.47471516 6.16762505,2.53491636 C6.03063882,2.47885333 5.96542737,2.32094378 5.97199069,2.06118772 C5.97855401,1.80143165 5.93984624,1.56509449 5.85586739,1.35217622 Z" id="Path-235" fill="#FFD018" fill-rule="nonzero"></path>
                        <path d="M1.3628801,1.05039266 C1.3628801,1.05039266 0.88221582,1.16303269 0.934050225,1.28025898 C0.985884631,1.39748527 1.06227218,1.27709605 0.826941603,1.41836065 C0.551334919,1.63288674 0.383495825,1.72852599 0.323424322,1.70527842 C0.233317068,1.67040706 0.387238762,1.78632864 0.387238762,1.41836065 C0.387238762,1.05039266 0.147163621,1.34992263 0.387238762,1.10428117 C0.627313903,0.858639701 0.711490448,1.05039266 0.826941603,0.909048983 C0.942392757,0.76770531 0.838605332,0.842864561 1.15178636,0.842864561 C1.46496739,0.842864561 1.3628801,1.05039266 1.3628801,1.05039266 Z" id="Path-236" fill="#FFD018" fill-rule="nonzero"></path>
                        <path d="M2.82954468,2.94439788 C1.93234687,3.65416057 1.39408881,4.0355315 1.2147705,4.08851066 C0.945793031,4.16797941 1.76798713,4.06664687 1.96884051,3.92609393 C2.10274276,3.83239197 2.38964415,3.50515996 2.82954468,2.94439788 Z" id="Path-237" fill="#FFD018" fill-rule="nonzero"></path>
                        <path d="M5.4976525,4.81207166 C5.58376641,5.37127863 5.51441664,5.62336458 5.2896032,5.5683295 C5.06478975,5.51329443 4.90572811,5.47154368 4.81241827,5.44307726 C4.89489468,5.70354499 4.9950446,5.83377885 5.11286804,5.83377885 C5.31361598,6.22761702 5.37537444,6.48671414 5.29814342,6.61107021 C5.64394335,6.32864644 5.7888899,6.07516353 5.73298308,5.85062148 C5.64912284,5.5138084 5.86705666,5.90605192 5.86705666,5.90605192 C5.99431652,5.96791367 6.1039424,5.96430265 6.1959343,5.89521887 C6.33392215,5.7915932 6.19419463,5.83765345 6.05620677,5.64036535 C5.91821892,5.44307726 5.95228266,4.88901006 5.53257535,4.60185507 C5.25277048,4.41041841 5.08030185,4.31775758 5.01516948,4.32387259 C4.80909707,3.98470049 4.76779297,3.82632968 4.89125717,3.84876017 C5.77604003,4.15408886 6.22992386,4.34588135 6.25290866,4.42413764 C6.28738585,4.54152208 6.63935372,4.52001412 6.46336978,4.18438714 C6.28738585,3.84876017 5.33870948,3.64649045 5.22578876,3.55183961 C5.11286804,3.45718877 5.21792068,3.09819561 5.01516948,3.01999203 C4.81241827,2.94178846 4.25848995,2.38685145 4.2588458,2.11942527 C4.25920164,1.85199908 3.99848763,1.72611426 3.77185543,1.72611426 C3.54522323,1.72611426 3.11848888,1.66020659 2.93819529,1.66020659 C2.75790171,1.66020659 2.58986492,1.96380885 2.76403011,1.96380885 C2.93819529,1.96380885 2.78941355,2.53222786 2.49778077,2.65645215 C2.20614798,2.78067644 1.98070193,2.95922414 1.64767279,2.95922414 C1.31464366,2.95922414 2.11908516,3.24827689 2.24730711,3.13413446 C2.37552906,3.01999203 2.33346056,2.84990518 2.76403011,2.65645215 C3.19459965,2.46299912 3.60555832,2.34846132 3.55352622,2.50245674 C3.50149413,2.65645215 3.63423253,2.9140337 3.83709324,2.82080618 C4.03995395,2.72757866 4.10500318,2.49209812 4.10500318,2.65645215 C4.10500318,2.82080618 4.41600961,3.66495409 4.65363339,3.99441334 C4.81204925,4.21405284 5.09338895,4.48660561 5.4976525,4.81207166 Z" id="Path-243" fill="#5EAA22" fill-rule="evenodd"></path>
                        <path d="M2.6664897,1.72967256 C2.56129208,1.89839148 2.56129208,1.98275094 2.6664897,1.98275094 C2.82428612,1.98275094 3.07805967,1.98275094 2.92344759,1.85621175 C2.82037288,1.77185229 2.73472024,1.72967256 2.6664897,1.72967256 Z" id="Path-238" fill="#FFD018" fill-rule="nonzero"></path>
                        <path d="M3.19372982,1.72359118 C3.19423063,1.83576632 3.23093514,1.89185389 3.30384333,1.89185389 C3.41320562,1.89185389 3.51050881,2.06011661 3.51050881,1.89185389 C3.51050881,1.72359118 3.66249314,1.77939199 3.42811148,1.72359118 C3.27185704,1.68639064 3.19372982,1.68639064 3.19372982,1.72359118 Z" id="Path-239" fill="#FFD018" fill-rule="nonzero"></path>
                        <path d="M3.86726078,1.76213218 C3.79698846,1.81540128 3.77942038,1.88954576 3.81455654,1.98456561 C3.86726078,2.12709538 3.98650759,2.40915014 3.81455654,2.40915014 C3.64260549,2.40915014 3.50112893,2.51083851 3.6354491,2.51083851 C3.76976926,2.51083851 4.00872799,2.61252689 4.00872799,2.51083851 C4.00872799,2.40915014 4.10595209,2.67851362 4.10595209,2.51083851 C4.10595209,2.3431634 4.10595209,2.26304205 4.10595209,2.16470454 C4.10595209,2.06636703 4.2031762,2.03809829 4.10595209,1.90011524 C4.04113602,1.80812653 3.96157225,1.76213218 3.86726078,1.76213218 Z" id="Path-240" fill="#FFD018" fill-rule="nonzero"></path>
                        <path d="M4.11085481,2.7433538 C4.25733017,3.20743549 4.37039586,3.46939243 4.45005189,3.52922462 C4.56953593,3.61897291 4.62314954,4.374954 4.67557702,4.45715078 C4.7280045,4.53934756 5.44245736,4.95420607 5.44245736,5.17683718 C5.44245736,5.39946829 5.66244717,5.00576191 5.55245226,4.78530532 C5.44245736,4.56484873 5.09614185,4.09547467 4.84705282,3.9931114 C4.5979638,3.89074813 4.62955471,3.64289261 4.57720631,3.46869395 C4.52485791,3.29449528 4.88710568,3.60944457 4.57720631,3.21431487 C4.26730694,2.81918517 4.27553086,3.03122045 4.36279137,3.03122045 C4.45005189,3.03122045 4.5373124,2.98452762 4.45005189,2.92312714 C4.39187821,2.88219348 4.27881252,2.82226904 4.11085481,2.7433538 Z" id="Path-241" fill="#FFD018" fill-rule="nonzero"></path>
                        <path d="M1.78154869,4.17893108 C1.30577395,5.02477906 1.02543588,5.46955367 0.940534468,5.51325489 C0.813182355,5.57880673 0.718251457,5.59213059 0.653171799,5.51325489 C0.588092141,5.43437919 0.581410208,5.72493434 0.653171799,5.80448216 C0.72493339,5.88402999 0.940534468,5.88402999 1.06017666,5.74276539 C1.07280248,5.98072355 1.14124287,6.18939821 1.26549784,6.36878936 C1.45188029,6.63787609 1.52953305,6.56358664 1.52953305,6.71576337 C1.52953305,6.8679401 1.57357846,7.06941908 1.63047373,7.06941908 C1.68736901,7.06941908 1.73141442,7.5484061 1.63047373,7.5484061 C1.52953305,7.5484061 1.86438094,7.58770557 2.01035548,7.4679094 C2.15633002,7.34811322 2.21872109,7.25686254 2.18752556,7.25686254 C2.15633002,7.25686254 1.78154869,7.05826973 1.78154869,6.91775633 C1.78154869,6.77724293 1.52953305,6.66721231 1.52953305,6.45861673 C1.52953305,6.25002114 1.39859858,6.00200747 1.39859858,5.90324482 C1.39859858,5.80448216 1.51055478,5.94135866 1.63047373,5.84783438 C1.7104197,5.78548486 1.76077802,5.67395836 1.78154869,5.51325489 C1.65563312,5.59828514 1.57162791,5.6195427 1.52953305,5.57702757 C1.46639076,5.51325489 1.26766411,5.38737006 1.39859858,5.17138112 C1.48588823,5.02738848 1.61353826,4.69657181 1.78154869,4.17893108 Z" id="Path-242" fill="#FFD018" fill-rule="nonzero"></path>
                        <path d="M3.01829941,0.177462038 C2.84792988,0.253741495 2.79114004,0.348550482 2.84792988,0.461888999 C2.93311465,0.631896774 2.96373688,0.707174635 3.01829941,0.669535704 C3.07286195,0.631896774 3.45570905,0.560730728 3.36995098,0.369096383 C3.28419291,0.177462038 3.10452541,0.177462038 3.10452541,0.177462038 C3.10452541,0.177462038 3.07578341,0.177462038 3.01829941,0.177462038 Z" id="Path-245" fill="#5EAA22" fill-rule="evenodd"></path>
                        <path d="M3.90478241,0.0855368474 C3.67977127,-0.014698669 3.60476756,-0.014698669 3.67977127,0.0855368474 C3.79227684,0.235890122 3.93621517,0.315153084 4.03976537,0.315153084 C4.14331557,0.315153084 4.35848172,0.284075512 4.25089865,0.223416079 C4.17917659,0.182976458 4.06380451,0.137016714 3.90478241,0.0855368474 Z" id="Path-246" fill="#FFD018" fill-rule="nonzero"></path>
                        <path d="M0.365216059,4.47253055 C0.365216059,4.47253055 0.365216059,4.47253055 0.365216059,4.47253055 C0.4363714,4.62814697 0.507526741,4.73297192 0.578682081,4.7870054 C0.622015803,5.0252535 0.688466113,5.17679764 0.778033014,5.24163782 C0.898334172,5.23544374 0.961463285,5.13961997 0.967420354,4.95416653 C1.17172672,4.89383354 1.30390248,4.92787463 1.36394763,5.05628981 C1.32433048,5.07073388 1.30452191,5.13251655 1.30452191,5.24163782 C1.30452191,5.35075909 1.35074191,5.46442708 1.44318191,5.58264178 C1.485514,5.20627884 1.60179546,4.89677243 1.79202627,4.65412258 C1.98225709,4.41147272 2.10458787,4.26620174 2.15901861,4.21830962 L2.15901861,3.80874903 C1.76543033,4.13160566 1.5268181,4.42725445 1.44318191,4.69569541 C1.2449644,4.70235075 1.10559272,4.68849314 1.02506686,4.65412258 C0.904278061,4.60256673 1.17594412,4.51799775 1.02506686,4.33474518 C0.874189592,4.15149261 0.943341671,4.59276163 0.778033014,4.47253055 C0.694923529,4.44926455 0.634571175,4.40763055 0.596975953,4.34762857 L0.596948237,4.34764594 C0.558269393,4.2859145 0.476870776,4.26722668 0.415139336,4.30590552 C0.35904563,4.34105195 0.3376896,4.41233031 0.365216059,4.47253055 Z" id="Path-228" fill="#5EAA22" fill-rule="evenodd"></path>
                        <g id="shield" stroke-width="1" fill="none" fill-rule="evenodd" transform="translate(1.774648, 3.549172)">
                            <mask id="mask-6" fill="white">
                                <use xlink:href="#path-5"></use>
                            </mask>
                            <use id="Path-227" fill="#5EAA22" xlink:href="#path-5"></use>
                            <g id="contents" mask="url(#mask-6)">
                                <g transform="translate(0.197183, -0.098588)">
                                    <polygon id="Path-230" fill="#58A5FF" fill-rule="evenodd" points="1.32497457 0.0866268079 0.00361237958 2.84699956 1.79559618 1.20883627 3.0289071 3.266642 3.0289071 0.0866268079 1.79559618 1.10438033"></polygon>
                                    <path d="M1.38190939,1.97810168 C1.43636,1.97810168 1.48050094,2.02224262 1.48050094,2.07669323 L1.48050094,3.85045375 C1.48050094,3.90490436 1.43636,3.9490453 1.38190939,3.9490453 C1.32745878,3.9490453 1.28331784,3.90490436 1.28331784,3.85045375 L1.28331784,2.07669323 C1.28331784,2.02224262 1.32745878,1.97810168 1.38190939,1.97810168 Z" id="Path-231" fill="#FFD018" fill-rule="nonzero"></path>
                                    <path d="M0.843598608,2.41686738 C0.843598608,2.36301513 0.887254483,2.31935926 0.941106733,2.31935926 L1.83069873,2.31935926 C1.88455098,2.31935926 1.92820685,2.36301513 1.92820685,2.41686738 C1.92820685,2.47071963 1.88455098,2.51437551 1.83069873,2.51437551 L0.941106733,2.51437551 C0.887254483,2.51437551 0.843598608,2.47071963 0.843598608,2.41686738 Z" id="Path-232" fill="#FFD018" fill-rule="nonzero"></path>
                                    <g id="Group-5" stroke-width="1" fill="none" fill-rule="evenodd" transform="translate(0.591549, 3.056232)">
                                        <path d="M0.934575719,0.931884685 L0.848564068,1.0022244 C0.72181032,0.84722946 0.60623131,0.772679935 0.504086798,0.772679935 C0.353669984,0.772679935 0.231359444,0.646364776 0.131618586,0.406780733 L0.234195729,0.364077003 C0.318571724,0.566753642 0.410380944,0.661568824 0.504086798,0.661568824 C0.646064954,0.661568824 0.788808007,0.753639406 0.934575719,0.931884685 Z" id="Path-233" fill="#FFD018" fill-rule="nonzero"></path>
                                        <path d="M0.030471593,0.0259262257 L0.030471593,0.566571599 C0.030471593,0.567077056 0.030881347,0.56748681 0.0313868042,0.56748681 C0.0315070529,0.56748681 0.0316261228,0.567463114 0.0317372089,0.567417074 L0.435660536,0.400012263 C0.436127479,0.399818739 0.436349129,0.399283326 0.436155606,0.398816383 C0.436104956,0.39869417 0.436028412,0.398584391 0.435931249,0.398494609 L0.0320079226,0.0252540474 C0.0316366888,0.0249110132 0.0310576602,0.0249338735 0.030714626,0.0253051073 C0.0305583718,0.0254742066 0.030471593,0.0256959868 0.030471593,0.0259262257 Z" id="Path-234" fill="#FFD018"></path>
                                    </g>
                                    <g id="Group-4" stroke-width="1" fill="none" fill-rule="evenodd" transform="translate(1.781690, 3.556232) scale(-1, 1) translate(-1.781690, -3.556232) translate(1.281690, 3.056232)">
                                        <path d="M0.934575719,0.931884685 L0.848564068,1.0022244 C0.72181032,0.84722946 0.60623131,0.772679935 0.504086798,0.772679935 C0.353669984,0.772679935 0.231359444,0.646364776 0.131618586,0.406780733 L0.234195729,0.364077003 C0.318571724,0.566753642 0.410380944,0.661568824 0.504086798,0.661568824 C0.646064954,0.661568824 0.788808007,0.753639406 0.934575719,0.931884685 Z" id="Path-233" fill="#FFD018" fill-rule="nonzero"></path>
                                        <path d="M0.030471593,0.0259262257 L0.030471593,0.566571599 C0.030471593,0.567077056 0.030881347,0.56748681 0.0313868042,0.56748681 C0.0315070529,0.56748681 0.0316261228,0.567463114 0.0317372089,0.567417074 L0.435660536,0.400012263 C0.436127479,0.399818739 0.436349129,0.399283326 0.436155606,0.398816383 C0.436104956,0.39869417 0.436028412,0.398584391 0.435931249,0.398494609 L0.0320079226,0.0252540474 C0.0316366888,0.0249110132 0.0310576602,0.0249338735 0.030714626,0.0253051073 C0.0305583718,0.0254742066 0.030471593,0.0256959868 0.030471593,0.0259262257 Z" id="Path-234" fill="#FFD018"></path>
                                    </g>
                                    <rect id="Rectangle-64" fill="#FFFFFF" fill-rule="evenodd" x="1.18309859" y="1.28164557" width="1" height="1"></rect>
                                </g>
                            </g>
                        </g>
                    </g>
                </g>
                <g id="gb---medium" mask="url(#mask-4)">
                    <g id="flag">
                        <mask id="mask-8" fill="white">
                            <use xlink:href="#path-7"></use>
                        </mask>
                        <use id="mask" fill="#2E42A5" xlink:href="#path-7"></use>
                        <g id="contents" mask="url(#mask-8)">
                            <g transform="translate(-2.500000, -1.250000)">
                                <g id="stripe" transform="translate(1.000000, 0.000000)">
                                    <polygon id="white" fill="#F7FCFF" fill-rule="nonzero" transform="translate(7.179664, 5.457378) scale(1, -1) translate(-7.179664, -5.457378) " points="0.247333589 1.53986811 2.72292762 0.454117833 12.8061752 8.48429142 14.1119945 10.0977486 11.4647029 10.4606384 7.35198716 7.00020684 4.04167375 4.66868453"></polygon>
                                    <polygon id="red" fill="#F50100" fill-rule="nonzero" transform="translate(7.114665, 5.716384) scale(1, -1) translate(-7.114665, -5.716384) " points="0.586246133 1.29717712 1.84744698 0.66709794 13.6430838 10.7656701 11.8722111 10.7656701"></polygon>
                                </g>
                                <g id="stripe" transform="translate(7.750000, 5.500000) scale(-1, 1) translate(-7.750000, -5.500000) translate(0.250000, 0.000000)">
                                    <polygon id="white" fill="#F7FCFF" fill-rule="nonzero" transform="translate(7.179664, 5.612355) scale(1, -1) translate(-7.179664, -5.612355) " points="0.247333589 1.84982105 2.4444201 0.454117833 12.8061752 8.79424437 14.1119945 10.4077016 11.4647029 10.7705913 7.35198716 7.31015978 4.04167375 4.97863747"></polygon>
                                    <polygon id="red" fill="#F50100" fill-rule="nonzero" transform="translate(7.284723, 5.686725) scale(1, -1) translate(-7.284723, -5.686725) " points="0.331803828 1.45261194 1.59300468 0.822532761 6.61570908 5.14625614 8.10483314 5.62933537 14.237643 10.5509178 12.4667702 10.5509178 6.33740601 5.74615285 4.70931125 5.16688909"></polygon>
                                </g>
                                <g id="cross" transform="translate(2.500000, 1.250000)">
                                    <path d="M6.46875,-0.46875 L6.46875,3.53125 L11.46875,3.53125 L11.46875,5.46875 L6.46875,5.46875 L6.46875,9.46875 L4.53125,9.46875 L4.53125,5.46875 L-0.46875,5.46875 L-0.46875,3.53125 L4.53125,3.53125 L4.53125,-0.46875 L6.46875,-0.46875 Z" id="red" stroke="#F7FCFF" stroke-width="0.9375" fill="#F50100"></path>
                                </g>
                            </g>
                        </g>
                    </g>
                </g>
            </g>
        </g>
    </g>
</svg>