<?xml version="1.0" encoding="UTF-8"?>
<svg width="20px" height="15px" viewBox="0 0 20 15" version="1.1" xmlns="http://www.w3.org/2000/svg" xmlns:xlink="http://www.w3.org/1999/xlink">
    <title>flags/M/PT - Portugal</title>
    <defs>
        <rect id="path-1" x="0" y="0" width="20" height="15"></rect>
        <path d="M4.94047619,9.87951807 C2.27767472,9.87951807 0.119047619,7.69488342 0.119047619,5 C0.119047619,2.30511658 2.27767472,0.120481928 4.94047619,0.120481928 C7.60327766,0.120481928 9.76190476,2.30511658 9.76190476,5 C9.76190476,7.69488342 7.60327766,9.87951807 4.94047619,9.87951807 Z" id="path-3"></path>
    </defs>
    <g id="Symbols" stroke="none" stroke-width="1" fill="none" fill-rule="evenodd">
        <g id="flag">
            <mask id="mask-2" fill="white">
                <use xlink:href="#path-1"></use>
            </mask>
            <g id="mask"></g>
            <g id="contents" mask="url(#mask-2)">
                <polygon id="right" fill="#EF0000" points="5 0 20 0 20 15 5 15"></polygon>
                <polygon id="left" fill="#2F8D00" points="0 0 7.5 0 7.5 15 0 15"></polygon>
                <g id="mark" transform="translate(2.500000, 2.500000)">
                    <g id="stripes">
                        <mask id="mask-4" fill="white">
                            <use xlink:href="#path-3"></use>
                        </mask>
                        <g id="Path"></g>
                        <polygon id="Rectangle-53" fill="#FFE017" mask="url(#mask-4)" points="4.64285714 0 5.26785714 0 5.26785714 1.68674699 4.64285714 1.68674699"></polygon>
                        <polygon id="Rectangle-53" fill="#FFE017" mask="url(#mask-4)" points="4.64285714 8.43373494 5.26785714 8.43373494 5.26785714 10 4.64285714 10"></polygon>
                        <path d="M0.196533677,5.25236075 L0.0217942939,4.80405251 C1.95003529,4.03425274 3.40538519,3.53780949 4.39287953,3.31407581 C5.84170521,2.98581964 7.43362482,2.74295403 9.16874862,2.58529437 L9.21133064,3.06529139 C7.49611458,3.22114215 5.92460401,3.46089414 4.49690921,3.78436274 C3.53881298,4.00143578 2.10367596,4.49098409 0.196533677,5.25236075 Z" id="Path-194" fill="#FFE017" fill-rule="nonzero" mask="url(#mask-4)"></path>
                        <path d="M9.4630298,2.28993207 L9.3212269,2.74999599 C7.8639071,2.28992569 6.6767687,2.09216443 5.76424935,2.15341882 L5.73273405,1.67254771 C6.71247862,1.60678071 7.95443133,1.81367329 9.4630298,2.28993207 Z" id="Path-204" fill="#FFE017" fill-rule="nonzero" mask="url(#mask-4)"></path>
                        <path d="M9.96728023,4.86235846 L9.69790026,5.25976209 C8.95498255,4.74396775 8.03970458,4.48488505 6.94583085,4.48488505 L6.94583085,4.00295734 C8.13169539,4.00295734 9.14092368,4.28863404 9.96728023,4.86235846 Z" id="Path-207" fill="#FFE017" fill-rule="nonzero" mask="url(#mask-4)"></path>
                        <path d="M9.56375315,5.00659679 L9.68686942,5.47213869 C8.08522354,5.90597463 6.5815084,6.15211241 5.17560315,6.2100751 C3.76000439,6.26843744 2.11009035,6.02141629 0.22444979,5.47089028 L0.35643942,5.00784521 C2.19625243,5.54499154 3.79664988,5.78459919 5.15622055,5.72854678 C6.52548472,5.67209472 7.99470254,5.4316037 9.56375315,5.00659679 Z" id="Path-208" fill="#FFE017" fill-rule="nonzero" mask="url(#mask-4)"></path>
                        <path d="M9.38232954,7.27242806 L8.62962077,8.04410314 C7.1991829,6.61499898 5.93985345,5.59314316 4.85937407,4.97916224 C3.76043219,4.35469004 2.3273128,3.72058092 0.562238212,3.07939322 L0.924204785,2.05880928 C2.74133339,2.71890633 4.22716855,3.37634047 5.38393259,4.03367005 C6.55915913,4.7014909 7.88937756,5.78086806 9.38232954,7.27242806 Z" id="Path-209" fill="#FFE017" fill-rule="nonzero" mask="url(#mask-4)"></path>
                        <path d="M0.911439845,7.70956368 L0.626527992,7.32341377 C0.666315032,7.29334618 0.737307013,7.24320461 0.835120259,7.17965929 C0.996618936,7.07474012 1.17595537,6.96999235 1.36890772,6.87211137 C1.90034816,6.60252195 2.43343366,6.4342028 2.94188289,6.41874174 C2.96674854,6.41798562 2.99151012,6.41760524 3.01616528,6.41760524 L3.01616528,6.89953295 C2.99630356,6.89953295 2.97630907,6.8998401 2.95618418,6.90045206 C2.52770444,6.91348139 2.05716132,7.06205309 1.58228929,7.30294645 C1.40528875,7.39273538 1.24036909,7.48906253 1.09235968,7.58521827 C1.04084097,7.61868789 0.995258093,7.64963767 0.956197849,7.67722588 C0.933424497,7.69331068 0.918311699,7.70437053 0.911439845,7.70956368 Z" id="Path-210" fill="#FFE017" fill-rule="nonzero" mask="url(#mask-4)"></path>
                        <path d="M1.13259449,7.87661256 L1.25251344,7.41021664 C2.84008812,7.82830652 4.06401617,8.03665038 4.91819627,8.03665038 C5.76918445,8.03665038 7.03580546,7.79089986 8.70982686,7.29768829 L8.84292955,7.76040691 C7.12931327,8.26528419 5.82381299,8.51857809 4.91819627,8.51857809 C4.01577147,8.51857809 2.75593798,8.3041222 1.13259449,7.87661256 Z" id="Path-211" fill="#FFE017" fill-rule="nonzero" mask="url(#mask-4)"></path>
                        <polygon id="Path-212" fill="#FFE017" fill-rule="nonzero" mask="url(#mask-4)" points="0.51402603 3.55900804 1.26844888 2.78904928 2.37302444 3.89757351 1.61860159 4.66753227"></polygon>
                        <polygon id="Path-213" fill="#FFE017" fill-rule="nonzero" mask="url(#mask-4)" points="6.77245824 7.40484437 7.33360719 6.48112041 9.08587642 7.57140322 8.52472747 8.49512719"></polygon>
                    </g>
                    <path d="M4.94047619,0.120481928 C7.60327766,0.120481928 9.76190476,2.30511658 9.76190476,5 C9.76190476,7.69488342 7.60327766,9.87951807 4.94047619,9.87951807 C2.27767472,9.87951807 0.119047619,7.69488342 0.119047619,5 C0.119047619,2.30511658 2.27767472,0.120481928 4.94047619,0.120481928 Z M5,0.843373494 C2.69881354,0.843373494 0.833333333,2.73132937 0.833333333,5.06024096 C0.833333333,7.38915256 2.69881354,9.27710843 5,9.27710843 C7.30118646,9.27710843 9.16666667,7.38915256 9.16666667,5.06024096 C9.16666667,2.73132937 7.30118646,0.843373494 5,0.843373494 Z" id="outer" fill="#F9E813" fill-rule="nonzero"></path>
                    <g id="center" transform="translate(1.904762, 1.566265)">
                        <path d="M0.380671594,0.424524472 L0.380671594,4.3374683 C0.638255606,5.88626695 1.50604467,6.66066627 2.98403878,6.66066627 C4.46203289,6.66066627 5.32982196,5.88626695 5.58740597,4.3374683 L5.58740597,0.424524472 L0.380671594,0.424524472 Z" id="Path" fill="#FFFFFF" fill-rule="nonzero"></path>
                        <path d="M0.023528737,0.0630786891 L5.94454883,0.0630786891 L5.94454883,4.36767439 L5.93959487,4.39746149 C5.65357202,6.11725691 4.63959464,7.02211205 2.98403878,7.02211205 C1.32848292,7.02211205 0.314505544,6.11725691 0.0284826936,4.39746149 L0.023528737,4.36767439 L0.023528737,0.0630786891 Z" id="Path-214" fill="#C51918" fill-rule="nonzero"></path>
                        <path d="M1.37787494,1.37791797 L4.59020262,1.37791797 L4.59020262,4.15347917 C4.43128454,5.10902029 3.89589659,5.58679085 2.98403878,5.58679085 C2.07218097,5.58679085 1.53679302,5.10902029 1.37787494,4.15347917 L1.37787494,1.37791797 Z" id="Path-214" fill="#F7FCFF" fill-rule="nonzero"></path>
                        <g id="castles" transform="translate(0.357143, 0.361446)">
                            <g id="castle">
                                <polygon id="Rectangle-54" fill="#F9E813" points="0.238095238 0 0.689902467 0 0.689902467 0.301204819 0.238095238 0.301204819"></polygon>
                                <polygon id="Rectangle-55" fill="#060101" points="0 0.120481928 0.833333333 0.120481928 0.833333333 0.271084337 0 0.271084337"></polygon>
                                <polygon id="Rectangle-54" fill="#F9E813" points="0 0.240963855 0.451807229 0.240963855 0.451807229 0.391566265 0 0.391566265"></polygon>
                                <polygon id="Rectangle-54" fill="#F9E813" points="0.476190476 0.240963855 0.927997705 0.240963855 0.927997705 0.391566265 0.476190476 0.391566265"></polygon>
                                <polygon id="Rectangle-54" fill="#F9E813" points="0 0.602409639 0.301204819 0.602409639 0.301204819 1.05421687 0 1.05421687"></polygon>
                                <polygon id="Rectangle-54" fill="#F9E813" points="0.595238095 0.602409639 0.896442915 0.602409639 0.896442915 1.05421687 0.595238095 1.05421687"></polygon>
                                <polygon id="Rectangle-54" fill="#F9E813" points="0.357142857 0.602409639 0.507745267 0.602409639 0.507745267 1.05421687 0.357142857 1.05421687"></polygon>
                                <polygon id="Rectangle-55" fill="#060101" points="0 0.481927711 0.833333333 0.481927711 0.833333333 0.63253012 0 0.63253012"></polygon>
                                <polygon id="Rectangle-55" fill="#060101" points="0 0.843373494 0.833333333 0.843373494 0.833333333 0.993975904 0 0.993975904"></polygon>
                                <polygon id="Rectangle-54" fill="#F9E813" points="0.119047619 0.361445783 0.269650029 0.361445783 0.269650029 0.512048193 0.119047619 0.512048193"></polygon>
                                <polygon id="Rectangle-54" fill="#F9E813" points="0.595238095 0.361445783 0.745840505 0.361445783 0.745840505 0.512048193 0.595238095 0.512048193"></polygon>
                                <polygon id="Rectangle-54" fill="#F9E813" points="0.357142857 0.240963855 0.507745267 0.240963855 0.507745267 0.542168675 0.357142857 0.542168675"></polygon>
                            </g>
                            <g id="castle" transform="translate(2.261905, 0.000000)">
                                <polygon id="Rectangle-54" fill="#F9E813" points="0.238095238 0 0.689902467 0 0.689902467 0.301204819 0.238095238 0.301204819"></polygon>
                                <polygon id="Rectangle-55" fill="#060101" points="0 0.120481928 0.833333333 0.120481928 0.833333333 0.271084337 0 0.271084337"></polygon>
                                <polygon id="Rectangle-54" fill="#F9E813" points="0 0.240963855 0.451807229 0.240963855 0.451807229 0.391566265 0 0.391566265"></polygon>
                                <polygon id="Rectangle-54" fill="#F9E813" points="0.476190476 0.240963855 0.927997705 0.240963855 0.927997705 0.391566265 0.476190476 0.391566265"></polygon>
                                <polygon id="Rectangle-54" fill="#F9E813" points="0 0.602409639 0.301204819 0.602409639 0.301204819 1.05421687 0 1.05421687"></polygon>
                                <polygon id="Rectangle-54" fill="#F9E813" points="0.595238095 0.602409639 0.896442915 0.602409639 0.896442915 1.05421687 0.595238095 1.05421687"></polygon>
                                <polygon id="Rectangle-54" fill="#F9E813" points="0.357142857 0.602409639 0.507745267 0.602409639 0.507745267 1.05421687 0.357142857 1.05421687"></polygon>
                                <polygon id="Rectangle-55" fill="#060101" points="0 0.481927711 0.833333333 0.481927711 0.833333333 0.63253012 0 0.63253012"></polygon>
                                <polygon id="Rectangle-55" fill="#060101" points="0 0.843373494 0.833333333 0.843373494 0.833333333 0.993975904 0 0.993975904"></polygon>
                                <polygon id="Rectangle-54" fill="#F9E813" points="0.119047619 0.361445783 0.269650029 0.361445783 0.269650029 0.512048193 0.119047619 0.512048193"></polygon>
                                <polygon id="Rectangle-54" fill="#F9E813" points="0.595238095 0.361445783 0.745840505 0.361445783 0.745840505 0.512048193 0.595238095 0.512048193"></polygon>
                                <polygon id="Rectangle-54" fill="#F9E813" points="0.357142857 0.240963855 0.507745267 0.240963855 0.507745267 0.542168675 0.357142857 0.542168675"></polygon>
                            </g>
                            <g id="castle" transform="translate(4.404762, 0.000000)">
                                <polygon id="Rectangle-54" fill="#F9E813" points="0.238095238 0 0.689902467 0 0.689902467 0.301204819 0.238095238 0.301204819"></polygon>
                                <polygon id="Rectangle-55" fill="#060101" points="0 0.120481928 0.833333333 0.120481928 0.833333333 0.271084337 0 0.271084337"></polygon>
                                <polygon id="Rectangle-54" fill="#F9E813" points="0 0.240963855 0.451807229 0.240963855 0.451807229 0.391566265 0 0.391566265"></polygon>
                                <polygon id="Rectangle-54" fill="#F9E813" points="0.476190476 0.240963855 0.927997705 0.240963855 0.927997705 0.391566265 0.476190476 0.391566265"></polygon>
                                <polygon id="Rectangle-54" fill="#F9E813" points="0 0.602409639 0.301204819 0.602409639 0.301204819 1.05421687 0 1.05421687"></polygon>
                                <polygon id="Rectangle-54" fill="#F9E813" points="0.595238095 0.602409639 0.896442915 0.602409639 0.896442915 1.05421687 0.595238095 1.05421687"></polygon>
                                <polygon id="Rectangle-54" fill="#F9E813" points="0.357142857 0.602409639 0.507745267 0.602409639 0.507745267 1.05421687 0.357142857 1.05421687"></polygon>
                                <polygon id="Rectangle-55" fill="#060101" points="0 0.481927711 0.833333333 0.481927711 0.833333333 0.63253012 0 0.63253012"></polygon>
                                <polygon id="Rectangle-55" fill="#060101" points="0 0.843373494 0.833333333 0.843373494 0.833333333 0.993975904 0 0.993975904"></polygon>
                                <polygon id="Rectangle-54" fill="#F9E813" points="0.119047619 0.361445783 0.269650029 0.361445783 0.269650029 0.512048193 0.119047619 0.512048193"></polygon>
                                <polygon id="Rectangle-54" fill="#F9E813" points="0.595238095 0.361445783 0.745840505 0.361445783 0.745840505 0.512048193 0.595238095 0.512048193"></polygon>
                                <polygon id="Rectangle-54" fill="#F9E813" points="0.357142857 0.240963855 0.507745267 0.240963855 0.507745267 0.542168675 0.357142857 0.542168675"></polygon>
                            </g>
                            <g id="castle" transform="translate(4.404762, 2.168675)">
                                <polygon id="Rectangle-54" fill="#F9E813" points="0.238095238 0 0.689902467 0 0.689902467 0.301204819 0.238095238 0.301204819"></polygon>
                                <polygon id="Rectangle-55" fill="#060101" points="0 0.120481928 0.833333333 0.120481928 0.833333333 0.271084337 0 0.271084337"></polygon>
                                <polygon id="Rectangle-54" fill="#F9E813" points="0 0.240963855 0.451807229 0.240963855 0.451807229 0.391566265 0 0.391566265"></polygon>
                                <polygon id="Rectangle-54" fill="#F9E813" points="0.476190476 0.240963855 0.927997705 0.240963855 0.927997705 0.391566265 0.476190476 0.391566265"></polygon>
                                <polygon id="Rectangle-54" fill="#F9E813" points="0 0.602409639 0.301204819 0.602409639 0.301204819 1.05421687 0 1.05421687"></polygon>
                                <polygon id="Rectangle-54" fill="#F9E813" points="0.595238095 0.602409639 0.896442915 0.602409639 0.896442915 1.05421687 0.595238095 1.05421687"></polygon>
                                <polygon id="Rectangle-54" fill="#F9E813" points="0.357142857 0.602409639 0.507745267 0.602409639 0.507745267 1.05421687 0.357142857 1.05421687"></polygon>
                                <polygon id="Rectangle-55" fill="#060101" points="0 0.481927711 0.833333333 0.481927711 0.833333333 0.63253012 0 0.63253012"></polygon>
                                <polygon id="Rectangle-55" fill="#060101" points="0 0.843373494 0.833333333 0.843373494 0.833333333 0.993975904 0 0.993975904"></polygon>
                                <polygon id="Rectangle-54" fill="#F9E813" points="0.119047619 0.361445783 0.269650029 0.361445783 0.269650029 0.512048193 0.119047619 0.512048193"></polygon>
                                <polygon id="Rectangle-54" fill="#F9E813" points="0.595238095 0.361445783 0.745840505 0.361445783 0.745840505 0.512048193 0.595238095 0.512048193"></polygon>
                                <polygon id="Rectangle-54" fill="#F9E813" points="0.357142857 0.240963855 0.507745267 0.240963855 0.507745267 0.542168675 0.357142857 0.542168675"></polygon>
                            </g>
                            <g id="castle" transform="translate(0.000000, 2.168675)">
                                <polygon id="Rectangle-54" fill="#F9E813" points="0.238095238 0 0.689902467 0 0.689902467 0.301204819 0.238095238 0.301204819"></polygon>
                                <polygon id="Rectangle-55" fill="#060101" points="0 0.120481928 0.833333333 0.120481928 0.833333333 0.271084337 0 0.271084337"></polygon>
                                <polygon id="Rectangle-54" fill="#F9E813" points="0 0.240963855 0.451807229 0.240963855 0.451807229 0.391566265 0 0.391566265"></polygon>
                                <polygon id="Rectangle-54" fill="#F9E813" points="0.476190476 0.240963855 0.927997705 0.240963855 0.927997705 0.391566265 0.476190476 0.391566265"></polygon>
                                <polygon id="Rectangle-54" fill="#F9E813" points="0 0.602409639 0.301204819 0.602409639 0.301204819 1.05421687 0 1.05421687"></polygon>
                                <polygon id="Rectangle-54" fill="#F9E813" points="0.595238095 0.602409639 0.896442915 0.602409639 0.896442915 1.05421687 0.595238095 1.05421687"></polygon>
                                <polygon id="Rectangle-54" fill="#F9E813" points="0.357142857 0.602409639 0.507745267 0.602409639 0.507745267 1.05421687 0.357142857 1.05421687"></polygon>
                                <polygon id="Rectangle-55" fill="#060101" points="0 0.481927711 0.833333333 0.481927711 0.833333333 0.63253012 0 0.63253012"></polygon>
                                <polygon id="Rectangle-55" fill="#060101" points="0 0.843373494 0.833333333 0.843373494 0.833333333 0.993975904 0 0.993975904"></polygon>
                                <polygon id="Rectangle-54" fill="#F9E813" points="0.119047619 0.361445783 0.269650029 0.361445783 0.269650029 0.512048193 0.119047619 0.512048193"></polygon>
                                <polygon id="Rectangle-54" fill="#F9E813" points="0.595238095 0.361445783 0.745840505 0.361445783 0.745840505 0.512048193 0.595238095 0.512048193"></polygon>
                                <polygon id="Rectangle-54" fill="#F9E813" points="0.357142857 0.240963855 0.507745267 0.240963855 0.507745267 0.542168675 0.357142857 0.542168675"></polygon>
                            </g>
                            <g id="castle" transform="translate(1.011905, 5.060241) rotate(-50.000000) translate(-1.011905, -5.060241) translate(0.595238, 4.578313)">
                                <polygon id="Rectangle-54" fill="#F9E813" points="0.238095238 0 0.689902467 0 0.689902467 0.301204819 0.238095238 0.301204819"></polygon>
                                <polygon id="Rectangle-55" fill="#060101" points="0 0.120481928 0.833333333 0.120481928 0.833333333 0.271084337 0 0.271084337"></polygon>
                                <polygon id="Rectangle-54" fill="#F9E813" points="0 0.240963855 0.451807229 0.240963855 0.451807229 0.391566265 0 0.391566265"></polygon>
                                <polygon id="Rectangle-54" fill="#F9E813" points="0.476190476 0.240963855 0.927997705 0.240963855 0.927997705 0.391566265 0.476190476 0.391566265"></polygon>
                                <polygon id="Rectangle-54" fill="#F9E813" points="0 0.602409639 0.301204819 0.602409639 0.301204819 1.05421687 0 1.05421687"></polygon>
                                <polygon id="Rectangle-54" fill="#F9E813" points="0.595238095 0.602409639 0.896442915 0.602409639 0.896442915 1.05421687 0.595238095 1.05421687"></polygon>
                                <polygon id="Rectangle-54" fill="#F9E813" points="0.357142857 0.602409639 0.507745267 0.602409639 0.507745267 1.05421687 0.357142857 1.05421687"></polygon>
                                <polygon id="Rectangle-55" fill="#060101" points="0 0.481927711 0.833333333 0.481927711 0.833333333 0.63253012 0 0.63253012"></polygon>
                                <polygon id="Rectangle-55" fill="#060101" points="0 0.843373494 0.833333333 0.843373494 0.833333333 0.993975904 0 0.993975904"></polygon>
                                <polygon id="Rectangle-54" fill="#F9E813" points="0.119047619 0.361445783 0.269650029 0.361445783 0.269650029 0.512048193 0.119047619 0.512048193"></polygon>
                                <polygon id="Rectangle-54" fill="#F9E813" points="0.595238095 0.361445783 0.745840505 0.361445783 0.745840505 0.512048193 0.595238095 0.512048193"></polygon>
                                <polygon id="Rectangle-54" fill="#F9E813" points="0.357142857 0.240963855 0.507745267 0.240963855 0.507745267 0.542168675 0.357142857 0.542168675"></polygon>
                            </g>
                            <g id="castle" transform="translate(4.345238, 5.060241) rotate(50.000000) translate(-4.345238, -5.060241) translate(3.928571, 4.578313)">
                                <polygon id="Rectangle-54" fill="#F9E813" points="0.238095238 0 0.689902467 0 0.689902467 0.301204819 0.238095238 0.301204819"></polygon>
                                <polygon id="Rectangle-55" fill="#060101" points="0 0.120481928 0.833333333 0.120481928 0.833333333 0.271084337 0 0.271084337"></polygon>
                                <polygon id="Rectangle-54" fill="#F9E813" points="0 0.240963855 0.451807229 0.240963855 0.451807229 0.391566265 0 0.391566265"></polygon>
                                <polygon id="Rectangle-54" fill="#F9E813" points="0.476190476 0.240963855 0.927997705 0.240963855 0.927997705 0.391566265 0.476190476 0.391566265"></polygon>
                                <polygon id="Rectangle-54" fill="#F9E813" points="0 0.602409639 0.301204819 0.602409639 0.301204819 1.05421687 0 1.05421687"></polygon>
                                <polygon id="Rectangle-54" fill="#F9E813" points="0.595238095 0.602409639 0.896442915 0.602409639 0.896442915 1.05421687 0.595238095 1.05421687"></polygon>
                                <polygon id="Rectangle-54" fill="#F9E813" points="0.357142857 0.602409639 0.507745267 0.602409639 0.507745267 1.05421687 0.357142857 1.05421687"></polygon>
                                <polygon id="Rectangle-55" fill="#060101" points="0 0.481927711 0.833333333 0.481927711 0.833333333 0.63253012 0 0.63253012"></polygon>
                                <polygon id="Rectangle-55" fill="#060101" points="0 0.843373494 0.833333333 0.843373494 0.833333333 0.993975904 0 0.993975904"></polygon>
                                <polygon id="Rectangle-54" fill="#F9E813" points="0.119047619 0.361445783 0.269650029 0.361445783 0.269650029 0.512048193 0.119047619 0.512048193"></polygon>
                                <polygon id="Rectangle-54" fill="#F9E813" points="0.595238095 0.361445783 0.745840505 0.361445783 0.745840505 0.512048193 0.595238095 0.512048193"></polygon>
                                <polygon id="Rectangle-54" fill="#F9E813" points="0.357142857 0.240963855 0.507745267 0.240963855 0.507745267 0.542168675 0.357142857 0.542168675"></polygon>
                            </g>
                        </g>
                        <path d="M3.44425532,1.68674699 L3.44425532,2.28766765 C3.40343121,2.49454632 3.26589659,2.59798565 3.03165147,2.59798565 C2.79740635,2.59798565 2.65987173,2.49454632 2.61904762,2.28766765 L2.61904762,1.68674699 L3.44425532,1.68674699 Z" id="Path-214" fill="#013399" fill-rule="nonzero"></path>
                        <path d="M3.44425532,3.01204819 L3.44425532,3.61296885 C3.40343121,3.81984752 3.26589659,3.92328685 3.03165147,3.92328685 C2.79740635,3.92328685 2.65987173,3.81984752 2.61904762,3.61296885 L2.61904762,3.01204819 L3.44425532,3.01204819 Z" id="Path-214" fill="#013399" fill-rule="nonzero"></path>
                        <path d="M4.51568389,3.01204819 L4.51568389,3.61296885 C4.47485978,3.81984752 4.33732516,3.92328685 4.10308004,3.92328685 C3.86883492,3.92328685 3.7313003,3.81984752 3.69047619,3.61296885 L3.69047619,3.01204819 L4.51568389,3.01204819 Z" id="Path-214" fill="#013399" fill-rule="nonzero"></path>
                        <path d="M2.37282675,3.01204819 L2.37282675,3.61296885 C2.33200263,3.81984752 2.19446802,3.92328685 1.9602229,3.92328685 C1.72597778,3.92328685 1.58844316,3.81984752 1.54761905,3.61296885 L1.54761905,3.01204819 L2.37282675,3.01204819 Z" id="Path-214" fill="#013399" fill-rule="nonzero"></path>
                        <path d="M3.44425532,4.3373494 L3.44425532,4.93827006 C3.40343121,5.14514872 3.26589659,5.24858806 3.03165147,5.24858806 C2.79740635,5.24858806 2.65987173,5.14514872 2.61904762,4.93827006 L2.61904762,4.3373494 L3.44425532,4.3373494 Z" id="Path-214" fill="#013399" fill-rule="nonzero"></path>
                    </g>
                </g>
            </g>
        </g>
    </g>
</svg>