<?xml version="1.0" encoding="UTF-8"?>
<svg width="20px" height="15px" viewBox="0 0 20 15" version="1.1" xmlns="http://www.w3.org/2000/svg" xmlns:xlink="http://www.w3.org/1999/xlink">
    <title>flags/M/RS - Serbia</title>
    <defs>
        <rect id="path-1" x="0" y="0" width="20" height="15"></rect>
        <rect id="path-3" x="0" y="0" width="20" height="15"></rect>
    </defs>
    <g id="Symbols" stroke="none" stroke-width="1" fill="none" fill-rule="evenodd">
        <g id="flag">
            <mask id="mask-2" fill="white">
                <use xlink:href="#path-1"></use>
            </mask>
            <g id="mask"></g>
            <g id="contents" mask="url(#mask-2)">
                <mask id="mask-4" fill="white">
                    <use xlink:href="#path-3"></use>
                </mask>
                <use id="background" fill="#4857A1" xlink:href="#path-3"></use>
                <rect id="top" fill="#C51918" mask="url(#mask-4)" x="0" y="0" width="20" height="5"></rect>
                <rect id="bottom" fill="#F7FCFF" mask="url(#mask-4)" x="0" y="10" width="20" height="5"></rect>
                <g id="mark" mask="url(#mask-4)">
                    <g transform="translate(3.750000, 1.250000)">
                        <g id="crown" transform="translate(0.362319, 0.000000)">
                            <path d="M2.97684255,0.843583642 C3.03697979,0.862052055 3.10227818,0.881003873 3.17119242,0.900490594 C3.99608447,0.971853047 5.27141838,1.39891078 5.50882263,1.85249684 C5.61429467,2.05401239 5.4779791,2.22135645 5.33476936,2.46427705 C5.05817166,2.93345796 4.90040307,3.3075643 4.62033826,3.47748884 L4.62339042,4.22891547 L0.938680939,4.19723128 L0.933021279,3.438374 C0.687746187,3.25412564 0.53332933,2.90024695 0.276310618,2.46427705 C0.133100869,2.22135645 -0.00321469903,2.05401239 0.102257341,1.85249684 C0.280797013,1.51137782 1.08984174,1.17962389 1.83099198,1.00424703 C1.97648693,0.952449642 2.12872276,0.904048121 2.27965231,0.857696982 L2.34665059,0.906561691 C2.40538961,0.898537101 2.46229582,0.891998493 2.51689338,0.887046035 L2.60081603,1.07558364 L2.90180422,1.07635451 C3.02257716,1.43491505 3.08296364,1.71375963 3.08296364,1.91288823 C3.08296364,2.11201683 3.02257716,2.29391569 2.90180422,2.4585848 L2.89933857,2.66326017 C2.930669,2.66552448 2.96364107,2.66835552 2.9982548,2.67175329 L3.00595094,2.61828777 C3.02332472,2.51975619 3.07734676,2.44692268 3.12661255,2.45560957 C3.17587834,2.46429646 3.20173192,2.55121419 3.18435815,2.64974577 C3.1817047,2.66479423 3.1781964,2.67924327 3.17398077,2.69289401 C3.34686117,2.71448515 3.55376115,2.74823219 3.79253132,2.79298143 C4.0754544,2.24871843 4.57589224,1.72778279 4.30785572,1.45849246 C4.27057045,1.42103277 4.20264129,1.38622657 4.11501863,1.35403284 C3.83136027,1.28423343 3.5250638,1.23041587 3.22734449,1.20341022 L3.22734449,1.20341022 L3.21774893,1.15406088 C3.15813042,1.14437632 3.10090219,1.13535745 3.04756435,1.12699865 L3.04756435,1.12699865 Z M4.77441381,1.56685483 L4.80126358,1.6246825 C4.93064713,1.98302384 4.51801316,2.34625038 4.20491039,2.87313119 C4.23209206,2.88025137 4.26169772,2.88643401 4.29166937,2.892743 L4.29377427,2.85830262 L4.29377427,2.85830262 L4.30413388,2.80179816 C4.33002914,2.70515575 4.39019347,2.63730772 4.43851467,2.65025535 C4.48683588,2.66320298 4.5050157,2.75204326 4.47912045,2.84868567 C4.47123417,2.87811767 4.4601695,2.90487906 4.44722893,2.927501 C4.50058926,2.93742649 4.55769905,2.94990142 4.61598569,2.96278263 L4.617801,3.0692808 C4.98223733,2.78747884 5.23999017,2.1651767 5.26324929,1.9611684 C5.27730936,1.83784601 5.08140166,1.69563244 4.77441381,1.56685483 Z M0.933380028,1.54948103 L0.905837059,1.55976628 C0.562842623,1.6955072 0.334196674,1.84158305 0.347830679,1.9611684 C0.369868203,2.15446192 0.602414452,2.72326444 0.936758314,3.0221711 C1.04938659,2.98852887 1.16253822,2.95763629 1.27073109,2.92900042 C1.25520215,2.90982904 1.24286476,2.88385348 1.23351757,2.85508578 C1.20259993,2.75993107 1.2161053,2.67026108 1.26368266,2.65480226 C1.31126001,2.63934344 1.37489278,2.70394973 1.40581042,2.79910444 C1.41623754,2.83119583 1.42161196,2.86266339 1.42233072,2.89087078 L1.49318857,2.87110424 C1.15830806,2.30848224 0.710693834,1.93253571 0.933380028,1.54948103 Z M2.45060089,1.1758505 L2.31545776,1.19331415 C2.12583158,1.22181231 1.93067137,1.25999656 1.74033248,1.30488608 C1.57750622,1.34998602 1.44854619,1.40112792 1.39144874,1.45849246 C1.12623366,1.72494815 1.61339968,2.23777925 1.89688574,2.77629957 C2.04325399,2.74430235 2.17482788,2.71888868 2.29252458,2.69979046 C2.28572896,2.68321122 2.28213263,2.66306594 2.28028184,2.64191131 C2.27156177,2.54224045 2.30489235,2.45790675 2.35472778,2.45354672 C2.40456321,2.44918668 2.45203182,2.52645137 2.46075189,2.62612223 C2.46228173,2.64360834 2.4625173,2.6606224 2.46159655,2.67681538 C2.49933683,2.67092028 2.53389054,2.66727796 2.56673861,2.66441187 L2.56489491,2.43653645 C2.46033049,2.31966833 2.39994402,2.13953729 2.38373549,1.89614334 C2.36931985,1.6796723 2.39160832,1.43957469 2.45060089,1.1758505 Z" id="Combined-Shape" fill="#F6C540" fill-rule="nonzero"></path>
                            <g id="gems" transform="translate(0.000000, 0.543478)">
                                <path d="M2.76268116,2.98913043 C2.93777143,2.98913043 3.07971014,3.07023827 3.07971014,3.17028986 C3.07971014,3.27034144 2.93777143,3.35144928 2.76268116,3.35144928 C2.58759089,3.35144928 2.44565217,3.27034144 2.44565217,3.17028986 C2.44565217,3.07023827 2.58759089,2.98913043 2.76268116,2.98913043 Z M2.76268116,0 C2.98779723,0 3.17028986,0.178080719 3.17028986,0.397754419 C3.17028986,0.61742812 2.98779723,0.795508839 2.76268116,0.795508839 C2.53756509,0.795508839 2.35507246,0.61742812 2.35507246,0.397754419 C2.35507246,0.178080719 2.53756509,0 2.76268116,0 Z" id="blue" fill="#2E42A5"></path>
                                <path d="" id="red" fill="#C5363C"></path>
                                <path d="" id="Combined-Shape" fill="#F7FCFF"></path>
                                <path d="M0.362318841,2.02083333 C0.377826836,2.02083333 0.390398551,2.00826162 0.390398551,1.99275362 C0.390398551,1.97724563 0.377826836,1.96467391 0.362318841,1.96467391 C0.346810845,1.96467391 0.33423913,1.97724563 0.33423913,1.99275362 C0.33423913,2.00826162 0.346810845,2.02083333 0.362318841,2.02083333 Z M0.362318841,2.14583333 C0.277775251,2.14583333 0.20923913,2.07729721 0.20923913,1.99275362 C0.20923913,1.90821003 0.277775251,1.83967391 0.362318841,1.83967391 C0.44686243,1.83967391 0.515398551,1.90821003 0.515398551,1.99275362 C0.515398551,2.07729721 0.44686243,2.14583333 0.362318841,2.14583333 Z M0.27173913,1.7490942 C0.287247126,1.7490942 0.299818841,1.73652249 0.299818841,1.72101449 C0.299818841,1.7055065 0.287247126,1.69293478 0.27173913,1.69293478 C0.256231135,1.69293478 0.24365942,1.7055065 0.24365942,1.72101449 C0.24365942,1.73652249 0.256231135,1.7490942 0.27173913,1.7490942 Z M0.27173913,1.8740942 C0.187195541,1.8740942 0.11865942,1.80555808 0.11865942,1.72101449 C0.11865942,1.6364709 0.187195541,1.56793478 0.27173913,1.56793478 C0.35628272,1.56793478 0.424818841,1.6364709 0.424818841,1.72101449 C0.424818841,1.80555808 0.35628272,1.8740942 0.27173913,1.8740942 Z M0.18115942,1.56793478 C0.196667416,1.56793478 0.20923913,1.55536307 0.20923913,1.53985507 C0.20923913,1.52434708 0.196667416,1.51177536 0.18115942,1.51177536 C0.165651425,1.51177536 0.15307971,1.52434708 0.15307971,1.53985507 C0.15307971,1.55536307 0.165651425,1.56793478 0.18115942,1.56793478 Z M0.18115942,1.69293478 C0.0966158309,1.69293478 0.0280797101,1.62439866 0.0280797101,1.53985507 C0.0280797101,1.45531148 0.0966158309,1.38677536 0.18115942,1.38677536 C0.26570301,1.38677536 0.33423913,1.45531148 0.33423913,1.53985507 C0.33423913,1.62439866 0.26570301,1.69293478 0.18115942,1.69293478 Z M0.0905797101,1.38677536 C0.106087706,1.38677536 0.11865942,1.37420365 0.11865942,1.35869565 C0.11865942,1.34318766 0.106087706,1.33061594 0.0905797101,1.33061594 C0.0750717145,1.33061594 0.0625,1.34318766 0.0625,1.35869565 C0.0625,1.37420365 0.0750717145,1.38677536 0.0905797101,1.38677536 Z M0.0905797101,1.51177536 C0.00603612073,1.51177536 -0.0625,1.44323924 -0.0625,1.35869565 C-0.0625,1.27415206 0.00603612073,1.20561594 0.0905797101,1.20561594 C0.1751233,1.20561594 0.24365942,1.27415206 0.24365942,1.35869565 C0.24365942,1.44323924 0.1751233,1.51177536 0.0905797101,1.51177536 Z M0.27173913,1.20561594 C0.287247126,1.20561594 0.299818841,1.19304423 0.299818841,1.17753623 C0.299818841,1.16202824 0.287247126,1.14945652 0.27173913,1.14945652 C0.256231135,1.14945652 0.24365942,1.16202824 0.24365942,1.17753623 C0.24365942,1.19304423 0.256231135,1.20561594 0.27173913,1.20561594 Z M0.27173913,1.33061594 C0.187195541,1.33061594 0.11865942,1.26207982 0.11865942,1.17753623 C0.11865942,1.09299264 0.187195541,1.02445652 0.27173913,1.02445652 C0.35628272,1.02445652 0.424818841,1.09299264 0.424818841,1.17753623 C0.424818841,1.26207982 0.35628272,1.33061594 0.27173913,1.33061594 Z M0.452898551,1.05752464 C0.468406546,1.05752464 0.480978261,1.04495292 0.480978261,1.02944493 C0.480978261,1.01393693 0.468406546,1.00136522 0.452898551,1.00136522 C0.437390555,1.00136522 0.424818841,1.01393693 0.424818841,1.02944493 C0.424818841,1.04495292 0.437390555,1.05752464 0.452898551,1.05752464 Z M0.452898551,1.18252464 C0.368354961,1.18252464 0.299818841,1.11398852 0.299818841,1.02944493 C0.299818841,0.944901338 0.368354961,0.876365217 0.452898551,0.876365217 C0.53744214,0.876365217 0.605978261,0.944901338 0.605978261,1.02944493 C0.605978261,1.11398852 0.53744214,1.18252464 0.452898551,1.18252464 Z M0.634057971,0.933876812 C0.649565967,0.933876812 0.662137681,0.921305097 0.662137681,0.905797101 C0.662137681,0.890289106 0.649565967,0.877717391 0.634057971,0.877717391 C0.618549975,0.877717391 0.605978261,0.890289106 0.605978261,0.905797101 C0.605978261,0.921305097 0.618549975,0.933876812 0.634057971,0.933876812 Z M0.634057971,1.05887681 C0.549514382,1.05887681 0.480978261,0.990340691 0.480978261,0.905797101 C0.480978261,0.821253512 0.549514382,0.752717391 0.634057971,0.752717391 C0.71860156,0.752717391 0.787137681,0.821253512 0.787137681,0.905797101 C0.787137681,0.990340691 0.71860156,1.05887681 0.634057971,1.05887681 Z M0.847966448,0.844756977 C0.863474443,0.844756977 0.876046158,0.832185262 0.876046158,0.816677267 C0.876046158,0.801169271 0.863474443,0.788597556 0.847966448,0.788597556 C0.832458452,0.788597556 0.819886737,0.801169271 0.819886737,0.816677267 C0.819886737,0.832185262 0.832458452,0.844756977 0.847966448,0.844756977 Z M0.847966448,0.969756977 C0.763422858,0.969756977 0.694886737,0.901220856 0.694886737,0.816677267 C0.694886737,0.732133677 0.763422858,0.663597556 0.847966448,0.663597556 C0.932510037,0.663597556 1.00104616,0.732133677 1.00104616,0.816677267 C1.00104616,0.901220856 0.932510037,0.969756977 0.847966448,0.969756977 Z M1.08695652,0.752717391 C1.10246452,0.752717391 1.11503623,0.740145677 1.11503623,0.724637681 C1.11503623,0.709129685 1.10246452,0.696557971 1.08695652,0.696557971 C1.07144853,0.696557971 1.05887681,0.709129685 1.05887681,0.724637681 C1.05887681,0.740145677 1.07144853,0.752717391 1.08695652,0.752717391 Z M1.08695652,0.877717391 C1.00241293,0.877717391 0.933876812,0.809181271 0.933876812,0.724637681 C0.933876812,0.640094092 1.00241293,0.571557971 1.08695652,0.571557971 C1.17150011,0.571557971 1.24003623,0.640094092 1.24003623,0.724637681 C1.24003623,0.809181271 1.17150011,0.877717391 1.08695652,0.877717391 Z M1.35869565,0.681481476 C1.37420365,0.681481476 1.38677536,0.668909761 1.38677536,0.653401766 C1.38677536,0.63789377 1.37420365,0.625322055 1.35869565,0.625322055 C1.34318766,0.625322055 1.33061594,0.63789377 1.33061594,0.653401766 C1.33061594,0.668909761 1.34318766,0.681481476 1.35869565,0.681481476 Z M1.35869565,0.806481476 C1.27415206,0.806481476 1.20561594,0.737945355 1.20561594,0.653401766 C1.20561594,0.568858176 1.27415206,0.500322055 1.35869565,0.500322055 C1.44323924,0.500322055 1.51177536,0.568858176 1.51177536,0.653401766 C1.51177536,0.737945355 1.44323924,0.806481476 1.35869565,0.806481476 Z M1.63043478,0.571557971 C1.64594278,0.571557971 1.65851449,0.558986257 1.65851449,0.543478261 C1.65851449,0.527970265 1.64594278,0.515398551 1.63043478,0.515398551 C1.61492679,0.515398551 1.60235507,0.527970265 1.60235507,0.543478261 C1.60235507,0.558986257 1.61492679,0.571557971 1.63043478,0.571557971 Z M1.63043478,0.696557971 C1.54589119,0.696557971 1.47735507,0.62802185 1.47735507,0.543478261 C1.47735507,0.458934671 1.54589119,0.390398551 1.63043478,0.390398551 C1.71497837,0.390398551 1.78351449,0.458934671 1.78351449,0.543478261 C1.78351449,0.62802185 1.71497837,0.696557971 1.63043478,0.696557971 Z M1.8563507,0.536408772 C1.87185869,0.536408772 1.88443041,0.523837058 1.88443041,0.508329062 C1.88443041,0.492821067 1.87185869,0.480249352 1.8563507,0.480249352 C1.8408427,0.480249352 1.82827099,0.492821067 1.82827099,0.508329062 C1.82827099,0.523837058 1.8408427,0.536408772 1.8563507,0.536408772 Z M1.8563507,0.661408772 C1.77180711,0.661408772 1.70327099,0.592872652 1.70327099,0.508329062 C1.70327099,0.423785473 1.77180711,0.355249352 1.8563507,0.355249352 C1.94089429,0.355249352 2.00943041,0.423785473 2.00943041,0.508329062 C2.00943041,0.592872652 1.94089429,0.661408772 1.8563507,0.661408772 Z M2.08333333,0.480978261 C2.09884133,0.480978261 2.11141304,0.468406546 2.11141304,0.452898551 C2.11141304,0.437390555 2.09884133,0.424818841 2.08333333,0.424818841 C2.06782534,0.424818841 2.05525362,0.437390555 2.05525362,0.452898551 C2.05525362,0.468406546 2.06782534,0.480978261 2.08333333,0.480978261 Z M2.08333333,0.605978261 C1.99878974,0.605978261 1.93025362,0.53744214 1.93025362,0.452898551 C1.93025362,0.368354961 1.99878974,0.299818841 2.08333333,0.299818841 C2.16787692,0.299818841 2.23641304,0.368354961 2.23641304,0.452898551 C2.23641304,0.53744214 2.16787692,0.605978261 2.08333333,0.605978261 Z M1.08695652,0.933876812 C1.10246452,0.933876812 1.11503623,0.921305097 1.11503623,0.905797101 C1.11503623,0.890289106 1.10246452,0.877717391 1.08695652,0.877717391 C1.07144853,0.877717391 1.05887681,0.890289106 1.05887681,0.905797101 C1.05887681,0.921305097 1.07144853,0.933876812 1.08695652,0.933876812 Z M1.08695652,1.05887681 C1.00241293,1.05887681 0.933876812,0.990340691 0.933876812,0.905797101 C0.933876812,0.821253512 1.00241293,0.752717391 1.08695652,0.752717391 C1.17150011,0.752717391 1.24003623,0.821253512 1.24003623,0.905797101 C1.24003623,0.990340691 1.17150011,1.05887681 1.08695652,1.05887681 Z M1.08695652,1.11503623 C1.10246452,1.11503623 1.11503623,1.10246452 1.11503623,1.08695652 C1.11503623,1.07144853 1.10246452,1.05887681 1.08695652,1.05887681 C1.07144853,1.05887681 1.05887681,1.07144853 1.05887681,1.08695652 C1.05887681,1.10246452 1.07144853,1.11503623 1.08695652,1.11503623 Z M1.08695652,1.24003623 C1.00241293,1.24003623 0.933876812,1.17150011 0.933876812,1.08695652 C0.933876812,1.00241293 1.00241293,0.933876812 1.08695652,0.933876812 C1.17150011,0.933876812 1.24003623,1.00241293 1.24003623,1.08695652 C1.24003623,1.17150011 1.17150011,1.24003623 1.08695652,1.24003623 Z M1.17753623,1.38677536 C1.19304423,1.38677536 1.20561594,1.37420365 1.20561594,1.35869565 C1.20561594,1.34318766 1.19304423,1.33061594 1.17753623,1.33061594 C1.16202824,1.33061594 1.14945652,1.34318766 1.14945652,1.35869565 C1.14945652,1.37420365 1.16202824,1.38677536 1.17753623,1.38677536 Z M1.17753623,1.51177536 C1.09299264,1.51177536 1.02445652,1.44323924 1.02445652,1.35869565 C1.02445652,1.27415206 1.09299264,1.20561594 1.17753623,1.20561594 C1.26207982,1.20561594 1.33061594,1.27415206 1.33061594,1.35869565 C1.33061594,1.44323924 1.26207982,1.51177536 1.17753623,1.51177536 Z M1.26811594,1.56793478 C1.28362394,1.56793478 1.29619565,1.55536307 1.29619565,1.53985507 C1.29619565,1.52434708 1.28362394,1.51177536 1.26811594,1.51177536 C1.25260795,1.51177536 1.24003623,1.52434708 1.24003623,1.53985507 C1.24003623,1.55536307 1.25260795,1.56793478 1.26811594,1.56793478 Z M1.26811594,1.69293478 C1.18357235,1.69293478 1.11503623,1.62439866 1.11503623,1.53985507 C1.11503623,1.45531148 1.18357235,1.38677536 1.26811594,1.38677536 C1.35265953,1.38677536 1.42119565,1.45531148 1.42119565,1.53985507 C1.42119565,1.62439866 1.35265953,1.69293478 1.26811594,1.69293478 Z M1.35869565,1.7490942 C1.37420365,1.7490942 1.38677536,1.73652249 1.38677536,1.72101449 C1.38677536,1.7055065 1.37420365,1.69293478 1.35869565,1.69293478 C1.34318766,1.69293478 1.33061594,1.7055065 1.33061594,1.72101449 C1.33061594,1.73652249 1.34318766,1.7490942 1.35869565,1.7490942 Z M1.35869565,1.8740942 C1.27415206,1.8740942 1.20561594,1.80555808 1.20561594,1.72101449 C1.20561594,1.6364709 1.27415206,1.56793478 1.35869565,1.56793478 C1.44323924,1.56793478 1.51177536,1.6364709 1.51177536,1.72101449 C1.51177536,1.80555808 1.44323924,1.8740942 1.35869565,1.8740942 Z M5.3442029,2.02083333 C5.35971089,2.02083333 5.37228261,2.00826162 5.37228261,1.99275362 C5.37228261,1.97724563 5.35971089,1.96467391 5.3442029,1.96467391 C5.3286949,1.96467391 5.31612319,1.97724563 5.31612319,1.99275362 C5.31612319,2.00826162 5.3286949,2.02083333 5.3442029,2.02083333 Z M5.3442029,2.14583333 C5.25965931,2.14583333 5.19112319,2.07729721 5.19112319,1.99275362 C5.19112319,1.90821003 5.25965931,1.83967391 5.3442029,1.83967391 C5.42874649,1.83967391 5.49728261,1.90821003 5.49728261,1.99275362 C5.49728261,2.07729721 5.42874649,2.14583333 5.3442029,2.14583333 Z M5.43478261,1.7490942 C5.4502906,1.7490942 5.46286232,1.73652249 5.46286232,1.72101449 C5.46286232,1.7055065 5.4502906,1.69293478 5.43478261,1.69293478 C5.41927461,1.69293478 5.4067029,1.7055065 5.4067029,1.72101449 C5.4067029,1.73652249 5.41927461,1.7490942 5.43478261,1.7490942 Z M5.43478261,1.8740942 C5.35023902,1.8740942 5.2817029,1.80555808 5.2817029,1.72101449 C5.2817029,1.6364709 5.35023902,1.56793478 5.43478261,1.56793478 C5.5193262,1.56793478 5.58786232,1.6364709 5.58786232,1.72101449 C5.58786232,1.80555808 5.5193262,1.8740942 5.43478261,1.8740942 Z M5.52536232,1.56793478 C5.54087031,1.56793478 5.55344203,1.55536307 5.55344203,1.53985507 C5.55344203,1.52434708 5.54087031,1.51177536 5.52536232,1.51177536 C5.50985432,1.51177536 5.49728261,1.52434708 5.49728261,1.53985507 C5.49728261,1.55536307 5.50985432,1.56793478 5.52536232,1.56793478 Z M5.52536232,1.69293478 C5.44081873,1.69293478 5.37228261,1.62439866 5.37228261,1.53985507 C5.37228261,1.45531148 5.44081873,1.38677536 5.52536232,1.38677536 C5.60990591,1.38677536 5.67844203,1.45531148 5.67844203,1.53985507 C5.67844203,1.62439866 5.60990591,1.69293478 5.52536232,1.69293478 Z M5.61594203,1.38677536 C5.63145002,1.38677536 5.64402174,1.37420365 5.64402174,1.35869565 C5.64402174,1.34318766 5.63145002,1.33061594 5.61594203,1.33061594 C5.60043403,1.33061594 5.58786232,1.34318766 5.58786232,1.35869565 C5.58786232,1.37420365 5.60043403,1.38677536 5.61594203,1.38677536 Z M5.61594203,1.51177536 C5.53139844,1.51177536 5.46286232,1.44323924 5.46286232,1.35869565 C5.46286232,1.27415206 5.53139844,1.20561594 5.61594203,1.20561594 C5.70048562,1.20561594 5.76902174,1.27415206 5.76902174,1.35869565 C5.76902174,1.44323924 5.70048562,1.51177536 5.61594203,1.51177536 Z M5.43478261,1.20561594 C5.4502906,1.20561594 5.46286232,1.19304423 5.46286232,1.17753623 C5.46286232,1.16202824 5.4502906,1.14945652 5.43478261,1.14945652 C5.41927461,1.14945652 5.4067029,1.16202824 5.4067029,1.17753623 C5.4067029,1.19304423 5.41927461,1.20561594 5.43478261,1.20561594 Z M5.43478261,1.33061594 C5.35023902,1.33061594 5.2817029,1.26207982 5.2817029,1.17753623 C5.2817029,1.09299264 5.35023902,1.02445652 5.43478261,1.02445652 C5.5193262,1.02445652 5.58786232,1.09299264 5.58786232,1.17753623 C5.58786232,1.26207982 5.5193262,1.33061594 5.43478261,1.33061594 Z M5.25362319,1.05752464 C5.26913118,1.05752464 5.2817029,1.04495292 5.2817029,1.02944493 C5.2817029,1.01393693 5.26913118,1.00136522 5.25362319,1.00136522 C5.23811519,1.00136522 5.22554348,1.01393693 5.22554348,1.02944493 C5.22554348,1.04495292 5.23811519,1.05752464 5.25362319,1.05752464 Z M5.25362319,1.18252464 C5.1690796,1.18252464 5.10054348,1.11398852 5.10054348,1.02944493 C5.10054348,0.944901338 5.1690796,0.876365217 5.25362319,0.876365217 C5.33816678,0.876365217 5.4067029,0.944901338 5.4067029,1.02944493 C5.4067029,1.11398852 5.33816678,1.18252464 5.25362319,1.18252464 Z M5.07246377,0.933876812 C5.08797176,0.933876812 5.10054348,0.921305097 5.10054348,0.905797101 C5.10054348,0.890289106 5.08797176,0.877717391 5.07246377,0.877717391 C5.05695577,0.877717391 5.04438406,0.890289106 5.04438406,0.905797101 C5.04438406,0.921305097 5.05695577,0.933876812 5.07246377,0.933876812 Z M5.07246377,1.05887681 C4.98792018,1.05887681 4.91938406,0.990340691 4.91938406,0.905797101 C4.91938406,0.821253512 4.98792018,0.752717391 5.07246377,0.752717391 C5.15700736,0.752717391 5.22554348,0.821253512 5.22554348,0.905797101 C5.22554348,0.990340691 5.15700736,1.05887681 5.07246377,1.05887681 Z M4.85855529,0.844756977 C4.87406329,0.844756977 4.886635,0.832185262 4.886635,0.816677267 C4.886635,0.801169271 4.87406329,0.788597556 4.85855529,0.788597556 C4.8430473,0.788597556 4.83047558,0.801169271 4.83047558,0.816677267 C4.83047558,0.832185262 4.8430473,0.844756977 4.85855529,0.844756977 Z M4.85855529,0.969756977 C4.7740117,0.969756977 4.70547558,0.901220856 4.70547558,0.816677267 C4.70547558,0.732133677 4.7740117,0.663597556 4.85855529,0.663597556 C4.94309888,0.663597556 5.011635,0.732133677 5.011635,0.816677267 C5.011635,0.901220856 4.94309888,0.969756977 4.85855529,0.969756977 Z M4.61956522,0.752717391 C4.63507321,0.752717391 4.64764493,0.740145677 4.64764493,0.724637681 C4.64764493,0.709129685 4.63507321,0.696557971 4.61956522,0.696557971 C4.60405722,0.696557971 4.59148551,0.709129685 4.59148551,0.724637681 C4.59148551,0.740145677 4.60405722,0.752717391 4.61956522,0.752717391 Z M4.61956522,0.877717391 C4.53502163,0.877717391 4.46648551,0.809181271 4.46648551,0.724637681 C4.46648551,0.640094092 4.53502163,0.571557971 4.61956522,0.571557971 C4.70410881,0.571557971 4.77264493,0.640094092 4.77264493,0.724637681 C4.77264493,0.809181271 4.70410881,0.877717391 4.61956522,0.877717391 Z M4.34782609,0.681481476 C4.36333408,0.681481476 4.3759058,0.668909761 4.3759058,0.653401766 C4.3759058,0.63789377 4.36333408,0.625322055 4.34782609,0.625322055 C4.33231809,0.625322055 4.31974638,0.63789377 4.31974638,0.653401766 C4.31974638,0.668909761 4.33231809,0.681481476 4.34782609,0.681481476 Z M4.34782609,0.806481476 C4.2632825,0.806481476 4.19474638,0.737945355 4.19474638,0.653401766 C4.19474638,0.568858176 4.2632825,0.500322055 4.34782609,0.500322055 C4.43236968,0.500322055 4.5009058,0.568858176 4.5009058,0.653401766 C4.5009058,0.737945355 4.43236968,0.806481476 4.34782609,0.806481476 Z M4.07608696,0.571557971 C4.09159495,0.571557971 4.10416667,0.558986257 4.10416667,0.543478261 C4.10416667,0.527970265 4.09159495,0.515398551 4.07608696,0.515398551 C4.06057896,0.515398551 4.04800725,0.527970265 4.04800725,0.543478261 C4.04800725,0.558986257 4.06057896,0.571557971 4.07608696,0.571557971 Z M4.07608696,0.696557971 C3.99154337,0.696557971 3.92300725,0.62802185 3.92300725,0.543478261 C3.92300725,0.458934671 3.99154337,0.390398551 4.07608696,0.390398551 C4.16063055,0.390398551 4.22916667,0.458934671 4.22916667,0.543478261 C4.22916667,0.62802185 4.16063055,0.696557971 4.07608696,0.696557971 Z M3.85017104,0.536408772 C3.86567904,0.536408772 3.87825075,0.523837058 3.87825075,0.508329062 C3.87825075,0.492821067 3.86567904,0.480249352 3.85017104,0.480249352 C3.83466304,0.480249352 3.82209133,0.492821067 3.82209133,0.508329062 C3.82209133,0.523837058 3.83466304,0.536408772 3.85017104,0.536408772 Z M3.85017104,0.661408772 C3.76562745,0.661408772 3.69709133,0.592872652 3.69709133,0.508329062 C3.69709133,0.423785473 3.76562745,0.355249352 3.85017104,0.355249352 C3.93471463,0.355249352 4.00325075,0.423785473 4.00325075,0.508329062 C4.00325075,0.592872652 3.93471463,0.661408772 3.85017104,0.661408772 Z M3.62318841,0.480978261 C3.6386964,0.480978261 3.65126812,0.468406546 3.65126812,0.452898551 C3.65126812,0.437390555 3.6386964,0.424818841 3.62318841,0.424818841 C3.60768041,0.424818841 3.5951087,0.437390555 3.5951087,0.452898551 C3.5951087,0.468406546 3.60768041,0.480978261 3.62318841,0.480978261 Z M3.62318841,0.605978261 C3.53864482,0.605978261 3.4701087,0.53744214 3.4701087,0.452898551 C3.4701087,0.368354961 3.53864482,0.299818841 3.62318841,0.299818841 C3.707732,0.299818841 3.77626812,0.368354961 3.77626812,0.452898551 C3.77626812,0.53744214 3.707732,0.605978261 3.62318841,0.605978261 Z M4.61956522,0.933876812 C4.63507321,0.933876812 4.64764493,0.921305097 4.64764493,0.905797101 C4.64764493,0.890289106 4.63507321,0.877717391 4.61956522,0.877717391 C4.60405722,0.877717391 4.59148551,0.890289106 4.59148551,0.905797101 C4.59148551,0.921305097 4.60405722,0.933876812 4.61956522,0.933876812 Z M4.61956522,1.05887681 C4.53502163,1.05887681 4.46648551,0.990340691 4.46648551,0.905797101 C4.46648551,0.821253512 4.53502163,0.752717391 4.61956522,0.752717391 C4.70410881,0.752717391 4.77264493,0.821253512 4.77264493,0.905797101 C4.77264493,0.990340691 4.70410881,1.05887681 4.61956522,1.05887681 Z M4.61956522,1.11503623 C4.63507321,1.11503623 4.64764493,1.10246452 4.64764493,1.08695652 C4.64764493,1.07144853 4.63507321,1.05887681 4.61956522,1.05887681 C4.60405722,1.05887681 4.59148551,1.07144853 4.59148551,1.08695652 C4.59148551,1.10246452 4.60405722,1.11503623 4.61956522,1.11503623 Z M4.61956522,1.24003623 C4.53502163,1.24003623 4.46648551,1.17150011 4.46648551,1.08695652 C4.46648551,1.00241293 4.53502163,0.933876812 4.61956522,0.933876812 C4.70410881,0.933876812 4.77264493,1.00241293 4.77264493,1.08695652 C4.77264493,1.17150011 4.70410881,1.24003623 4.61956522,1.24003623 Z M4.52898551,1.38677536 C4.5444935,1.38677536 4.55706522,1.37420365 4.55706522,1.35869565 C4.55706522,1.34318766 4.5444935,1.33061594 4.52898551,1.33061594 C4.51347751,1.33061594 4.5009058,1.34318766 4.5009058,1.35869565 C4.5009058,1.37420365 4.51347751,1.38677536 4.52898551,1.38677536 Z M4.52898551,1.51177536 C4.44444192,1.51177536 4.3759058,1.44323924 4.3759058,1.35869565 C4.3759058,1.27415206 4.44444192,1.20561594 4.52898551,1.20561594 C4.6135291,1.20561594 4.68206522,1.27415206 4.68206522,1.35869565 C4.68206522,1.44323924 4.6135291,1.51177536 4.52898551,1.51177536 Z M4.4384058,1.56793478 C4.45391379,1.56793478 4.46648551,1.55536307 4.46648551,1.53985507 C4.46648551,1.52434708 4.45391379,1.51177536 4.4384058,1.51177536 C4.4228978,1.51177536 4.41032609,1.52434708 4.41032609,1.53985507 C4.41032609,1.55536307 4.4228978,1.56793478 4.4384058,1.56793478 Z M4.4384058,1.69293478 C4.35386221,1.69293478 4.28532609,1.62439866 4.28532609,1.53985507 C4.28532609,1.45531148 4.35386221,1.38677536 4.4384058,1.38677536 C4.52294939,1.38677536 4.59148551,1.45531148 4.59148551,1.53985507 C4.59148551,1.62439866 4.52294939,1.69293478 4.4384058,1.69293478 Z M4.34782609,1.7490942 C4.36333408,1.7490942 4.3759058,1.73652249 4.3759058,1.72101449 C4.3759058,1.7055065 4.36333408,1.69293478 4.34782609,1.69293478 C4.33231809,1.69293478 4.31974638,1.7055065 4.31974638,1.72101449 C4.31974638,1.73652249 4.33231809,1.7490942 4.34782609,1.7490942 Z M4.34782609,1.8740942 C4.2632825,1.8740942 4.19474638,1.80555808 4.19474638,1.72101449 C4.19474638,1.6364709 4.2632825,1.56793478 4.34782609,1.56793478 C4.43236968,1.56793478 4.5009058,1.6364709 4.5009058,1.72101449 C4.5009058,1.80555808 4.43236968,1.8740942 4.34782609,1.8740942 Z" id="Combined-Shape" fill="#FFFFFF" fill-rule="nonzero"></path>
                            </g>
                            <path d="M2.76880505,0.0905797101 L2.89962124,0.120930549 L2.84465217,0.33657971 L3.07971014,0.395772165 L3.0501607,0.52649324 L2.81265217,0.46657971 L2.75357333,0.709308807 L2.62275714,0.678957968 L2.68365217,0.43357971 L2.44565217,0.375410074 L2.47520162,0.244688999 L2.71565217,0.30457971 L2.76880505,0.0905797101 Z" id="Combined-Shape" fill="#F6C540" fill-rule="nonzero" transform="translate(2.762681, 0.407609) rotate(-14.000000) translate(-2.762681, -0.407609) "></path>
                        </g>
                        <g id="bird" transform="translate(0.000000, 4.166667)">
                            <path d="M-0.134532807,0.0421692937 L6.36546719,0.0421692937 L6.36546719,5.56307908 C6.23442371,7.39646392 5.15109038,8.31315633 3.11546719,8.31315633 C1.07984401,8.31315633 -0.00348932376,7.39646392 -0.134532807,5.56307908 L-0.134532807,0.0421692937 Z" id="Path-216" fill="#C51918"></path>
                            <g id="left" transform="translate(1.358696, 0.181159)"></g>
                            <g id="right" transform="translate(0.000000, 0.181159)">
                                <g id="beak" transform="translate(1.358696, 0.000000)" fill="#E8AA00">
                                    <path d="M0.468553281,0.0520613858 C0.408950382,0.0520613858 0.317199462,0.0948695423 0.195580048,0.143342991 C0.0739606345,0.19181644 -0.0537598635,0.296473499 0.0709100925,0.40129817 C0.195580048,0.506122842 0.374053521,0.73618735 0.374053521,0.650168768 C0.374053521,0.564150186 0.587256243,0.480746354 0.587256243,0.52244827 C0.587256243,0.564150186 0.521250557,0.650168768 0.694393962,0.650168768 C0.867537367,0.650168768 0.956740581,0.701324012 0.771998412,0.701324012 C0.587256243,0.701324012 0.567182324,0.785834085 0.447118692,0.785834085 C0.32705506,0.785834085 0.0709100925,0.700687086 0.0709100925,0.650168768 C0.0709100925,0.59965045 0.219246891,0.898536529 0.374053521,0.898536529 C0.528860151,0.898536529 0.616789513,1.04395688 0.694393962,0.971246703 C0.771998412,0.898536529 0.762813263,0.898536529 0.88818719,0.898536529 C0.971769809,0.898536529 0.998308407,0.800651003 0.967802986,0.604879951 C0.674705116,0.236334241 0.508288547,0.0520613858 0.468553281,0.0520613858 Z" id="Path-220"></path>
                                    <path d="M2.91420545,0.0520613858 C2.85460256,0.0520613858 2.76285164,0.0948695423 2.64123222,0.143342991 C2.51961281,0.19181644 2.39189231,0.296473499 2.51656227,0.40129817 C2.64123222,0.506122842 2.8197057,0.73618735 2.8197057,0.650168768 C2.8197057,0.564150186 3.03290842,0.480746354 3.03290842,0.52244827 C3.03290842,0.564150186 2.96690273,0.650168768 3.14004614,0.650168768 C3.31318954,0.650168768 3.40239275,0.701324012 3.21765059,0.701324012 C3.03290842,0.701324012 3.0128345,0.785834085 2.89277087,0.785834085 C2.77270723,0.785834085 2.51656227,0.700687086 2.51656227,0.650168768 C2.51656227,0.59965045 2.66489907,0.898536529 2.8197057,0.898536529 C2.97451233,0.898536529 3.06244169,1.04395688 3.14004614,0.971246703 C3.21765059,0.898536529 3.20846544,0.898536529 3.33383936,0.898536529 C3.41742198,0.898536529 3.44396058,0.800651003 3.41345516,0.604879951 C3.12035729,0.236334241 2.95394072,0.0520613858 2.91420545,0.0520613858 Z" id="Path-220" transform="translate(2.945582, 0.521833) scale(-1, 1) translate(-2.945582, -0.521833) "></path>
                                </g>
                                <path d="M2.94626954,7.36890565 C2.94236364,7.63990906 2.9400201,7.80251111 2.93923892,7.85671179 L2.93894597,7.87703705 C2.93894597,7.87703705 2.90911286,7.8403635 2.84944663,7.7670164 C2.83293124,7.8403635 2.78437958,7.87703705 2.70379163,7.87703705 C2.62320368,7.87703705 2.55865064,7.8403635 2.51013249,7.7670164 C2.46838588,7.80576834 2.4082131,7.82514431 2.32961415,7.82514431 C2.21171573,7.82514431 2.18342279,7.71093335 2.01115097,7.71093335 C1.83887914,7.71093335 1.82007305,7.52213497 1.93378117,7.36749595 C2.04748929,7.21285693 2.18342279,6.91142315 2.07108909,6.82191823 C1.95875539,6.73241332 2.32961415,6.39698778 2.32961415,6.20942972 C2.32961415,6.02187167 2.45240685,5.76891133 2.51013249,5.60837237 C2.56785813,5.4478334 2.39216702,5.38032842 2.32961415,5.16309379 C2.26706128,4.94585915 2.24520464,5.05686118 2.18342279,5.24583408 C2.12164093,5.43480699 2.14571004,5.60837237 2.07108909,5.60837237 C1.99646814,5.60837237 1.93378117,5.47247239 1.93378117,5.56304425 C1.93378117,5.65361611 1.87072546,5.60837237 1.69325766,5.76891133 C1.58032361,5.87107249 1.6111238,5.72316484 1.64845738,5.62542718 L1.65133215,5.6182591 L1.63741924,5.61850156 C1.62607544,5.61705646 1.61337337,5.61452416 1.59966795,5.61235314 L1.55589654,5.60837237 C1.47911046,5.60837237 1.55589654,5.38032842 1.44120243,5.47247239 C1.3647397,5.5339017 1.27142859,5.5339017 1.1612691,5.47247239 C1.27938982,5.28278008 1.37270093,5.144243 1.44120243,5.05686118 C1.54395469,4.92578843 1.70794049,4.6453397 1.76822325,4.38232263 L1.75633215,4.4212591 L1.72743023,4.48485442 C1.67929559,4.57922091 1.60179449,4.70825663 1.56999969,4.76783345 L1.55589654,4.79786552 C1.49809615,5.04730581 1.33845018,4.3826358 1.33845018,4.79786552 C1.33845018,5.2665202 1.1612691,5.07349591 1.1612691,5.24583408 C1.1612691,5.41817226 0.907777702,5.27350781 0.907777702,5.38032842 C0.907777702,5.48714904 0.729212938,5.67678329 0.729212938,5.84912147 C0.729212938,6.02145964 0.516955404,5.42128555 0.516955404,5.56304425 C0.516955404,5.70480295 0.166329203,5.90315443 0.166329203,5.67678329 C0.166329203,5.45041215 0.511489841,4.96453058 0.320541082,4.45720187 C0.129592322,3.94987315 0.0473321497,3.22572074 0.0473321497,1.95245227 C0.0473321497,0.679183798 0.937872887,0.11450127 1.1612691,0.11450127 C1.38466531,0.11450127 1.06247387,0.361696893 0.937872887,0.652271092 C0.854805564,0.845987225 1.13158902,1.30265545 1.76822325,2.02227578 L1.76822325,2.02227578 L1.87515042,2.02227578 C1.95087762,2.02227578 2.13635728,1.70823756 2.32961415,1.49962741 C2.52287102,1.29101726 2.32961415,1.12601981 2.26696071,0.967927981 C2.20430727,0.809836152 2.24721599,0.838397271 2.18342279,0.652271092 C2.11962958,0.466144914 1.83596269,0.205124849 1.76822325,0.11450127 C1.71983794,0.0497701428 1.7405745,0.0379242854 1.81670831,0.0364393977 L1.93378117,0.0369092427 C2.09933909,0.0369092427 2.41559921,0.11450127 2.51013249,0.205124849 C2.60466577,0.295748427 2.70379163,0.315078454 2.84944663,0.315078454 C2.99510164,0.315078454 2.9052615,0.413165114 2.7726132,0.479405457 C2.89719806,0.503224554 2.97722425,0.647326962 3.01269178,0.911712679 C3.07802284,0.646981151 3.1732735,0.50319596 3.2977088,0.479405457 C3.1650605,0.413165114 3.07522036,0.315078454 3.22087536,0.315078454 C3.36653037,0.315078454 3.46565622,0.295748427 3.5601895,0.205124849 C3.65472279,0.11450127 3.9709829,0.0369092427 4.13654082,0.0369092427 L4.25361369,0.0364393977 C4.32974749,0.0379242854 4.35048405,0.0497701428 4.30209874,0.11450127 C4.2343593,0.205124849 3.95069241,0.466144914 3.88689921,0.652271092 C3.82310601,0.838397271 3.86601473,0.809836152 3.80336129,0.967927981 C3.74070785,1.12601981 3.54745098,1.29101726 3.74070785,1.49962741 C3.93396472,1.70823756 4.11944438,2.02227578 4.19517157,2.02227578 L4.30209874,2.02227578 L4.30209874,2.02227578 C4.93873298,1.30265545 5.21551643,0.845987225 5.13244911,0.652271092 C5.00784813,0.361696893 4.68565669,0.11450127 4.9090529,0.11450127 C5.13244911,0.11450127 6.02298985,0.679183798 6.02298985,1.95245227 C6.02298985,3.22572074 5.94072967,3.94987315 5.74978091,4.45720187 C5.55883215,4.96453058 5.90399279,5.45041215 5.90399279,5.67678329 C5.90399279,5.90315443 5.55336659,5.70480295 5.55336659,5.56304425 C5.55336659,5.42128555 5.34110906,6.02145964 5.34110906,5.84912147 C5.34110906,5.67678329 5.16254429,5.48714904 5.16254429,5.38032842 C5.16254429,5.27350781 4.9090529,5.41817226 4.9090529,5.24583408 C4.9090529,5.07349591 4.73187182,5.2665202 4.73187182,4.79786552 C4.73187182,4.3826358 4.57222585,5.04730581 4.51442546,4.79786552 C4.50698865,4.76577164 4.30209874,4.44123677 4.30209874,4.38232263 C4.3623815,4.6453397 4.52636731,4.92578843 4.62911956,5.05686118 C4.69762107,5.144243 4.79093218,5.28278008 4.9090529,5.47247239 C4.79889341,5.5339017 4.7055823,5.5339017 4.62911956,5.47247239 C4.51442546,5.38032842 4.59121154,5.60837237 4.51442546,5.60837237 C4.48371103,5.60837237 4.45559036,5.61561136 4.43290276,5.61850156 L4.41833215,5.6182591 C4.45919819,5.72316484 4.48999839,5.87107249 4.37706433,5.76891133 C4.19959653,5.60837237 4.13654082,5.65361611 4.13654082,5.56304425 C4.13654082,5.47247239 4.07385386,5.60837237 3.99923291,5.60837237 C3.92461195,5.60837237 3.94868107,5.43480699 3.88689921,5.24583408 C3.82511735,5.05686118 3.80326072,4.94585915 3.74070785,5.16309379 C3.67815497,5.38032842 3.50246386,5.4478334 3.5601895,5.60837237 C3.61791515,5.76891133 3.74070785,6.02187167 3.74070785,6.20942972 C3.74070785,6.39698778 4.11156661,6.73241332 3.99923291,6.82191823 C3.88689921,6.91142315 4.02283271,7.21285693 4.13654082,7.36749595 C4.25024894,7.52213497 4.23144285,7.71093335 4.05917103,7.71093335 C3.88689921,7.71093335 3.85860627,7.82514431 3.74070785,7.82514431 C3.6621089,7.82514431 3.60193612,7.80576834 3.5601895,7.7670164 C3.51167136,7.8403635 3.44711831,7.87703705 3.36653037,7.87703705 C3.28594242,7.87703705 3.23739075,7.8403635 3.22087536,7.7670164 C3.03755093,7.8403635 2.94588871,7.87703705 2.94588871,7.87703705 Z" id="Combined-Shape" fill="#F7FCFF"></path>
                                <path d="M1.59265889,6.11181238 L1.59262836,6.12881238 L1.67365384,6.19679101 C1.77455635,6.28616234 1.8250076,6.35426901 1.8250076,6.40111104 C1.8250076,6.48893983 1.7455259,6.64579133 1.7455259,6.69496875 C1.7455259,6.74414617 1.81666051,6.49953292 1.93496121,6.59725084 C2.02960176,6.67542517 2.04353101,6.78505159 2.04531708,6.86914733 L2.04545117,6.92654177 C2.04545117,7.01125298 2.04491481,6.82684603 1.93496121,6.82684603 C1.8616588,6.82684603 1.7985137,6.86007794 1.7455259,6.92654177 L1.7455259,7.09656759 L1.7455259,7.09656759 C1.7455259,7.09656759 1.75947123,7.23695957 1.8250076,7.16676358 C1.89054397,7.09656759 1.90448931,7.25338556 1.8250076,7.25338556 C1.7455259,7.25338556 1.66159626,7.41863535 1.58851734,7.41863535 L1.58733527,7.40440414 C1.51735725,7.3973472 1.47271182,7.25338556 1.3951782,7.25338556 C1.31569649,7.25338556 1.32964183,7.09656759 1.3951782,7.16676358 C1.46071457,7.23695957 1.4746599,7.09656759 1.4746599,7.09656759 L1.4746599,7.09656759 L1.4746599,6.92654177 C1.4216721,6.86007794 1.358527,6.82684603 1.28522459,6.82684603 C1.17527099,6.82684603 1.17473463,7.01125298 1.17473463,6.92654177 L1.17486872,6.86914733 C1.1766548,6.78505159 1.19058404,6.67542517 1.28522459,6.59725084 C1.40352529,6.49953292 1.4746599,6.74414617 1.4746599,6.69496875 C1.4746599,6.64579133 1.36795245,6.49119429 1.36795245,6.40336549 C1.36795245,6.34481296 1.4428546,6.24762859 1.59265889,6.11181238 L1.59265889,6.11181238 Z" id="Combined-Shape" fill="#E8AA00"></path>
                                <path d="M4.58178933,6.11181238 L4.58175879,6.12881238 L4.66278427,6.19679101 C4.76368678,6.28616234 4.81413804,6.35426901 4.81413804,6.40111104 C4.81413804,6.48893983 4.73465633,6.64579133 4.73465633,6.69496875 C4.73465633,6.74414617 4.80579095,6.49953292 4.92409164,6.59725084 C5.0187322,6.67542517 5.03266144,6.78505159 5.03444752,6.86914733 L5.03458161,6.92654177 C5.03458161,7.01125298 5.03404525,6.82684603 4.92409164,6.82684603 C4.85078924,6.82684603 4.78764414,6.86007794 4.73465633,6.92654177 L4.73465633,7.09656759 L4.73465633,7.09656759 C4.73465633,7.09656759 4.74860167,7.23695957 4.81413804,7.16676358 C4.87967441,7.09656759 4.89361974,7.25338556 4.81413804,7.25338556 C4.73465633,7.25338556 4.6507267,7.41863535 4.57764778,7.41863535 L4.5764657,7.40440414 C4.50648768,7.3973472 4.46184226,7.25338556 4.38430863,7.25338556 C4.30482693,7.25338556 4.31877226,7.09656759 4.38430863,7.16676358 C4.449845,7.23695957 4.46379034,7.09656759 4.46379034,7.09656759 L4.46379034,7.09656759 L4.46379034,6.92654177 C4.41080254,6.86007794 4.34765743,6.82684603 4.27435503,6.82684603 C4.16440142,6.82684603 4.16386506,7.01125298 4.16386506,6.92654177 L4.16399915,6.86914733 C4.16578523,6.78505159 4.17971447,6.67542517 4.27435503,6.59725084 C4.39265572,6.49953292 4.46379034,6.74414617 4.46379034,6.69496875 C4.46379034,6.64579133 4.35708288,6.49119429 4.35708288,6.40336549 C4.35708288,6.34481296 4.43198503,6.24762859 4.58178933,6.11181238 L4.58178933,6.11181238 Z" id="Combined-Shape" fill="#E8AA00"></path>
                                <path d="M1.38495385,5.49577049 C1.49698585,5.37964876 1.55300185,5.36440722 1.55300185,5.45004588 C1.55300185,5.57850387 1.38495385,5.76954826 1.43946134,5.76954826 L1.43946134,5.76954826 L1.71682601,5.76954826 C1.9455161,5.76954826 1.67666613,5.8767195 1.55300185,5.92448898 C1.42933757,5.97225846 1.38495385,5.9697778 1.26242933,6.02287734 C1.13990481,6.07597689 1.08734163,6.42551537 1.14416216,6.5377485 C1.2009827,6.64998164 1.08734163,6.60261443 1.04037669,6.5377485 C0.99341175,6.47288258 0.969275593,6.68551542 0.883033809,6.79037362 C0.796792025,6.89523181 0.812088869,6.76999197 0.812088869,6.5377485 C0.812088869,6.30550504 0.883033809,6.42551537 0.969275593,6.35629153 C1.05551738,6.2870677 1.04037669,6.2627304 1.08734163,6.12679691 C1.13430657,5.99086341 0.883033809,6.20574225 0.812088869,6.30751638 C0.74114393,6.40929051 0.705554554,6.36215796 0.5811863,6.42551537 C0.456818046,6.48887279 0.5811863,6.25669636 0.5811863,6.12679691 C0.5811863,5.99689745 0.705554554,6.12679691 0.812088869,6.12679691 C0.918623185,6.12679691 0.970918192,6.0794297 1.04037669,6.02287734 C1.10983519,5.96632499 0.883033809,6.00856326 0.705554554,6.02287734 C0.528075298,6.03719142 0.635325041,6.00856326 0.44190056,5.92448898 L0.40130428,5.90446241 C0.30477577,5.84711032 0.578900679,5.88106218 0.705554554,5.92448898 C0.844873816,5.97225846 0.943865583,5.8767195 1.14416216,5.8767195 C1.27769322,5.8767195 1.35795712,5.7497365 1.38495385,5.49577049 Z M4.78768103,5.49577049 C4.81467777,5.7497365 4.89494167,5.8767195 5.02847272,5.8767195 C5.2287693,5.8767195 5.32776107,5.97225846 5.46708033,5.92448898 C5.6063996,5.8767195 5.92415881,5.8404147 5.73073433,5.92448898 C5.53730985,6.00856326 5.64455959,6.03719142 5.46708033,6.02287734 L5.33012271,6.00888591 C5.19471663,5.99361854 5.08016433,5.98046307 5.1322582,6.02287734 C5.20171669,6.0794297 5.2540117,6.12679691 5.36054602,6.12679691 C5.46708033,6.12679691 5.59144859,5.99689745 5.59144859,6.12679691 C5.59144859,6.25669636 5.71581684,6.48887279 5.59144859,6.42551537 C5.46708033,6.36215796 5.43149096,6.40929051 5.36054602,6.30751638 C5.28960108,6.20574225 5.03832832,5.99086341 5.08529326,6.12679691 C5.1322582,6.2627304 5.11711751,6.2870677 5.20335929,6.35629153 C5.28960108,6.42551537 5.36054602,6.30550504 5.36054602,6.5377485 C5.36054602,6.76999197 5.37584286,6.89523181 5.28960108,6.79037362 C5.20335929,6.68551542 5.17922314,6.47288258 5.1322582,6.5377485 C5.08529326,6.60261443 4.97165219,6.64998164 5.02847272,6.5377485 C5.08529326,6.42551537 5.03273007,6.07597689 4.91020555,6.02287734 C4.78768103,5.9697778 4.74329732,5.97225846 4.61963304,5.92448898 C4.49596876,5.8767195 4.22711878,5.76954826 4.45580887,5.76954826 L4.73317354,5.76954826 L4.73317354,5.76954826 C4.78768103,5.76954826 4.61963304,5.57850387 4.61963304,5.45004588 C4.61963304,5.36440722 4.67564904,5.37964876 4.78768103,5.49577049 Z" id="legs" fill="#E8AA00"></path>
                            </g>
                            <g id="small-shield" transform="translate(1.902174, 2.264493)">
                                <path d="M0.00219504237,0.0320807923 L2.42439152,0.0320807923 L2.42439152,2.24103556 C2.2510403,2.9745857 1.84734089,3.34136077 1.21329328,3.34136077 C0.579245673,3.34136077 0.175546261,2.9745857 0.00219504237,2.24103556 L0.00219504237,0.0320807923 Z" id="small" fill="#C51918"></path>
                                <path d="M1.53985507,0 L1.539,1.268 L2.44565217,1.26811594 L2.44565217,1.72101449 L1.539,1.721 L1.53985507,3.35144928 L0.905797101,3.35144928 L0.905,1.721 L0,1.72101449 L0,1.26811594 L0.905,1.268 L0.905797101,0 L1.53985507,0 Z" id="Combined-Shape" fill="#F7FCFF"></path>
                                <path d="M2.05938871,0.636867553 C1.99858896,0.636867553 1.96958505,0.585583311 2.00174238,0.540432947 C2.01864762,0.516697205 2.05367383,0.509822977 2.07997559,0.52507893 C2.08233621,0.52644817 2.08454632,0.52794914 2.0866017,0.529564323 C2.09628529,0.527140238 2.10812099,0.523848591 2.12176522,0.519673215 C2.13400839,0.515926591 2.14730373,0.516074356 2.15944093,0.520091945 C2.17414502,0.524959209 2.18248979,0.509897918 2.17539979,0.416202469 C2.16863154,0.390079091 2.13281387,0.373917462 2.04936594,0.373917462 C1.89688435,0.373917462 1.83423913,0.390232136 1.83423913,0.404570961 L1.83423913,0.628637132 L1.90823748,0.695416127 C1.94390125,0.727600506 1.91864271,0.782630788 1.86820652,0.782630788 L1.83423913,0.782630788 L1.83423913,0.954193944 C1.88076684,0.990470998 1.92235547,1.00742312 1.95878623,1.00742312 C2.09518793,1.00742312 2.17182762,0.95659728 2.17393818,0.89654909 C2.17335668,0.878943591 2.17256315,0.865958911 2.17198436,0.857126989 C2.16847111,0.858204363 2.16455195,0.859484352 2.16023222,0.860980641 C2.14775001,0.865304295 2.13397491,0.865501635 2.12134691,0.861537707 C2.10134209,0.855258196 2.10495188,0.852000582 2.1059648,0.893912978 C2.10664654,0.922122037 2.08185903,0.945488741 2.05060035,0.946103972 C2.01934166,0.946719204 1.99344883,0.924349987 1.99276708,0.896140928 C1.99037533,0.79717553 2.04588122,0.740274759 2.1380202,0.759632024 C2.19238919,0.743336484 2.23042427,0.745225946 2.26009203,0.778752969 C2.28188558,0.803381488 2.28480358,0.823598219 2.2871119,0.896568539 C2.28291798,1.02194071 2.15073538,1.10960145 1.95878623,1.10960145 C1.88479249,1.10960145 1.81148407,1.07652326 1.73855029,1.01373637 C1.72735127,1.00409541 1.72101449,0.99073702 1.72101449,0.976769618 L1.72101449,0.731541622 C1.72101449,0.715014148 1.72971094,0.700319676 1.74319964,0.690981521 L1.73759586,0.685924453 C1.72697899,0.676343376 1.72101449,0.663348646 1.72101449,0.649798957 L1.72101449,0.404570961 C1.72101449,0.299866082 1.8290166,0.27173913 2.04936594,0.27173913 C2.17922586,0.27173913 2.26418114,0.310072611 2.28697979,0.400758012 C2.2998278,0.555678418 2.25392402,0.648107669 2.14045406,0.621687518 C2.10534888,0.631758982 2.07935891,0.636867553 2.05938871,0.636867553 Z M2.04936594,1.90217391 C2.17922586,1.90217391 2.26418114,1.94050739 2.28697979,2.03119279 C2.2998278,2.1861132 2.25392402,2.27854245 2.14045406,2.2521223 C2.10534888,2.26219376 2.07935891,2.26730234 2.05938871,2.26730234 C1.99858896,2.26730234 1.96958505,2.21601809 2.00174238,2.17086773 C2.01864762,2.14713199 2.05367383,2.14025776 2.07997559,2.15551371 C2.08233621,2.15688295 2.08454632,2.15838392 2.0866017,2.15999911 C2.09628529,2.15757502 2.10812099,2.15428337 2.12176522,2.150108 C2.13400839,2.14636137 2.14730373,2.14650914 2.15944093,2.15052673 C2.17414502,2.15539399 2.18248979,2.1403327 2.17539979,2.04663725 C2.16863154,2.02051387 2.13281387,2.00435224 2.04936594,2.00435224 C1.89688435,2.00435224 1.83423913,2.02066692 1.83423913,2.03500574 L1.83423913,2.25907191 L1.90823748,2.32585091 C1.94390125,2.35803529 1.91864271,2.41306557 1.86820652,2.41306557 L1.83423913,2.41306557 L1.83423913,2.58462873 C1.88076684,2.62090578 1.92235547,2.6378579 1.95878623,2.6378579 C2.09518793,2.6378579 2.17182762,2.58703206 2.17393818,2.52698387 C2.17335668,2.50937837 2.17256315,2.49639369 2.17198436,2.48756177 C2.16847111,2.48863915 2.16455195,2.48991913 2.16023222,2.49141542 C2.14775001,2.49573908 2.13397491,2.49593642 2.12134691,2.49197249 C2.10134209,2.48569298 2.10495188,2.48243536 2.1059648,2.52434776 C2.10664654,2.55255682 2.08185903,2.57592352 2.05060035,2.57653876 C2.01934166,2.57715399 1.99344883,2.55478477 1.99276708,2.52657571 C1.99037533,2.42761031 2.04588122,2.37070954 2.1380202,2.39006681 C2.19238919,2.37377127 2.23042427,2.37566073 2.26009203,2.40918775 C2.28188558,2.43381627 2.28480358,2.454033 2.2871119,2.52700332 C2.28291798,2.6523755 2.15073538,2.74003623 1.95878623,2.74003623 C1.88479249,2.74003623 1.81148407,2.70695804 1.73855029,2.64417115 C1.72735127,2.63453019 1.72101449,2.6211718 1.72101449,2.6072044 L1.72101449,2.36197641 C1.72101449,2.34544893 1.72971094,2.33075446 1.74319964,2.3214163 L1.73759586,2.31635924 C1.72697899,2.30677816 1.72101449,2.29378343 1.72101449,2.28023374 L1.72101449,2.03500574 C1.72101449,1.93030086 1.8290166,1.90217391 2.04936594,1.90217391 Z M0.420869117,1.90217391 C0.641218458,1.90217391 0.749220567,1.93030086 0.749220567,2.03500574 L0.749220567,2.03500574 L0.749220567,2.28023374 C0.749220567,2.29378343 0.743256072,2.30677816 0.732639202,2.31635924 L0.732639202,2.31635924 C0.740524115,2.33075446 0.749220567,2.34544893 0.749220567,2.36197641 L0.749220567,2.36197641 L0.749220567,2.6072044 C0.749220567,2.6211718 0.742883792,2.63453019 0.731684766,2.64417115 C0.658750991,2.70695804 0.585442574,2.74003623 0.511448828,2.74003623 C0.319499681,2.74003623 0.187317076,2.6523755 0.183123157,2.52700332 C0.185431479,2.454033 0.188349483,2.43381627 0.210143034,2.40918775 C0.239810791,2.37566073 0.27784587,2.37377127 0.332214856,2.39006681 C0.424353842,2.37070954 0.479859725,2.42761031 0.477467977,2.52657571 C0.476786234,2.55478477 0.4508934,2.57715399 0.419634713,2.57653876 C0.388376026,2.57592352 0.363588515,2.55255682 0.364270258,2.52434776 L0.364270258,2.52434776 L0.364460854,2.49008816 C0.362989314,2.48644845 0.358890558,2.48883273 0.348888149,2.49197249 C0.336260149,2.49593642 0.32248505,2.49573908 0.310002835,2.49141542 C0.305683108,2.48991913 0.301763947,2.48863915 0.298250703,2.48756177 C0.29767191,2.49639369 0.296878382,2.50937837 0.296296884,2.52698387 C0.298407441,2.58703206 0.375047133,2.6378579 0.511448828,2.6378579 C0.54787959,2.6378579 0.589468221,2.62090578 0.635995929,2.58462873 L0.635995929,2.58462873 L0.635995929,2.41306557 L0.602028538,2.41306557 C0.551592348,2.41306557 0.526333812,2.35803529 0.561997583,2.32585091 L0.561997583,2.32585091 L0.635995929,2.25907191 L0.635995929,2.03500574 C0.635995929,2.02066692 0.573350706,2.00435224 0.420869117,2.00435224 C0.337421189,2.00435224 0.301603524,2.02051387 0.294835273,2.04663725 C0.287745268,2.1403327 0.296090037,2.15539399 0.310794125,2.15052673 C0.322931334,2.14650914 0.33622667,2.14636137 0.348469837,2.150108 C0.362114072,2.15428337 0.373949769,2.15757502 0.38363336,2.15999911 C0.38568874,2.15838392 0.387898848,2.15688295 0.390259465,2.15551371 C0.416561233,2.14025776 0.451587437,2.14713199 0.468492681,2.17086773 C0.500650005,2.21601809 0.471646099,2.26730234 0.410846351,2.26730234 C0.390876148,2.26730234 0.364886177,2.26219376 0.329781003,2.2521223 C0.216311044,2.27854245 0.170407256,2.1861132 0.183255267,2.03119279 C0.206053916,1.94050739 0.291009198,1.90217391 0.420869117,1.90217391 Z M0.420869117,0.27173913 C0.641218458,0.27173913 0.749220567,0.299866082 0.749220567,0.404570961 L0.749220567,0.404570961 L0.749220567,0.649798957 C0.749220567,0.663348646 0.743256072,0.676343376 0.732639202,0.685924453 L0.732639202,0.685924453 C0.740524115,0.700319676 0.749220567,0.715014148 0.749220567,0.731541622 L0.749220567,0.731541622 L0.749220567,0.976769618 C0.749220567,0.99073702 0.742883792,1.00409541 0.731684766,1.01373637 C0.658750991,1.07652326 0.585442574,1.10960145 0.511448828,1.10960145 C0.319499681,1.10960145 0.187317076,1.02194071 0.183123157,0.896568539 C0.185431479,0.823598219 0.188349483,0.803381488 0.210143034,0.778752969 C0.239810791,0.745225946 0.27784587,0.743336484 0.332214856,0.759632024 C0.424353842,0.740274759 0.479859725,0.79717553 0.477467977,0.896140928 C0.476786234,0.924349987 0.4508934,0.946719204 0.419634713,0.946103972 C0.388376026,0.945488741 0.363588515,0.922122037 0.364270258,0.893912978 L0.364270258,0.893912978 L0.364460854,0.859653377 C0.362989314,0.85601367 0.358890558,0.858397952 0.348888149,0.861537707 C0.336260149,0.865501635 0.32248505,0.865304295 0.310002835,0.860980641 C0.305683108,0.859484352 0.301763947,0.858204363 0.298250703,0.857126989 C0.29767191,0.865958911 0.296878382,0.878943591 0.296296884,0.89654909 C0.298407441,0.95659728 0.375047133,1.00742312 0.511448828,1.00742312 C0.54787959,1.00742312 0.589468221,0.990470998 0.635995929,0.954193944 L0.635995929,0.954193944 L0.635995929,0.782630788 L0.602028538,0.782630788 C0.551592348,0.782630788 0.526333812,0.727600506 0.561997583,0.695416127 L0.561997583,0.695416127 L0.635995929,0.628637132 L0.635995929,0.404570961 C0.635995929,0.390232136 0.573350706,0.373917462 0.420869117,0.373917462 C0.337421189,0.373917462 0.301603524,0.390079091 0.294835273,0.416202469 C0.287745268,0.509897918 0.296090037,0.524959209 0.310794125,0.520091945 C0.322931334,0.516074356 0.33622667,0.515926591 0.348469837,0.519673215 C0.362114072,0.523848591 0.373949769,0.527140238 0.38363336,0.529564323 C0.38568874,0.52794914 0.387898848,0.52644817 0.390259465,0.52507893 C0.416561233,0.509822977 0.451587437,0.516697205 0.468492681,0.540432947 C0.500650005,0.585583311 0.471646099,0.636867553 0.410846351,0.636867553 C0.390876148,0.636867553 0.364886177,0.631758982 0.329781003,0.621687518 C0.216311044,0.648107669 0.170407256,0.555678418 0.183255267,0.400758012 C0.206053916,0.310072611 0.291009198,0.27173913 0.420869117,0.27173913 Z" id="Combined-Shape" fill="#F7FCFF" fill-rule="nonzero"></path>
                            </g>
                        </g>
                    </g>
                </g>
            </g>
        </g>
    </g>
</svg>