<?xml version="1.0" encoding="UTF-8"?>
<svg width="20px" height="15px" viewBox="0 0 20 15" version="1.1" xmlns="http://www.w3.org/2000/svg" xmlns:xlink="http://www.w3.org/1999/xlink">
    <title>flags/M/RW - Rwanda</title>
    <defs>
        <rect id="path-1" x="0" y="0" width="20" height="15"></rect>
        <rect id="path-3" x="0" y="0" width="20" height="15"></rect>
    </defs>
    <g id="Symbols" stroke="none" stroke-width="1" fill="none" fill-rule="evenodd">
        <g id="flag">
            <mask id="mask-2" fill="white">
                <use xlink:href="#path-1"></use>
            </mask>
            <g id="mask"></g>
            <g id="contents" mask="url(#mask-2)">
                <mask id="mask-4" fill="white">
                    <use xlink:href="#path-3"></use>
                </mask>
                <use id="background" fill="#FECA00" xlink:href="#path-3"></use>
                <rect id="top" fill="#3CA5D9" mask="url(#mask-4)" x="0" y="0" width="20" height="8.75"></rect>
                <rect id="bottom" fill="#5A962A" mask="url(#mask-4)" x="0" y="11.25" width="20" height="3.75"></rect>
                <g id="mark" mask="url(#mask-4)" fill="#FFDC17">
                    <g transform="translate(10.000000, 1.250000)" id="sun">
                        <path d="M4.99326665,2.84217094e-14 L5.22268223,1.2607164 C5.26287037,1.264417 5.30278109,1.26906148 5.34239145,1.2746272 L5.85880012,0.100070352 L5.78749878,1.37934167 C5.82542439,1.39202827 5.86293981,1.40559336 5.90002023,1.42001243 L6.67767245,0.394886591 L6.30960753,1.6244082 C6.34346175,1.6453889 6.3767684,1.6671522 6.40950147,1.68967243 L7.40573803,0.868555096 L6.76055066,1.98194545 C6.78840114,2.00983162 6.81558192,2.03837206 6.84206721,2.06754132 L8.00374665,1.49554027 L7.11671738,2.43280807 C7.13722614,2.4661199 7.15695581,2.49995139 7.1758814,2.53427784 L8.43945952,2.2420412 L7.35723484,2.95117917 C7.36938284,2.98828237 7.38066213,3.02577154 7.39104903,3.06362327 L8.68938724,3.0678138 L7.46965976,3.51152046 C7.47486864,3.5764615 7.47752273,3.64211293 7.47752273,3.70837669 L7.47447717,3.627 L8.74005614,3.92834047 L7.44894336,4.08213718 C7.44305054,4.12029863 7.43626946,4.1581715 7.42862161,4.19573458 L8.58873464,4.77723 L7.2955342,4.63290239 C7.28091789,4.66845093 7.26548387,4.70358523 7.2492552,4.73828253 L8.24358054,5.56871852 L7.01814848,5.13179322 C6.99584889,5.16275859 6.97284113,5.19319171 6.94914855,5.22306953 L7.72320118,6.2601367 L6.6317623,5.55494905 C6.60297318,5.57996242 6.57359434,5.60432925 6.54364905,5.62802659 L7.05565034,6.81420998 L6.15790043,5.87915868 C6.1242111,5.89689968 6.09006014,5.91389784 6.05546997,5.93013103 L6.27691586,7.20106815 L5.62108089,6.08670592 C5.58413001,6.09626536 5.546844,6.10500682 5.50924388,6.11290953 L5.42897952,7.39985558 L5.04947717,6.164 L4.98876136,6.16675339 C4.97099337,6.16675339 4.95326887,6.16656946 4.9355897,6.16620344 L4.55755378,7.39985558 L4.47634081,6.11459012 C4.43835982,6.10673785 4.40069703,6.09803027 4.36337404,6.08848872 L3.70961744,7.20106815 L3.93085992,5.9342433 C3.8956408,5.91788232 3.86087311,5.90072976 3.82658035,5.88280883 L2.93088296,6.81420998 L3.44148624,5.63402681 C3.41049699,5.60969848 3.38010842,5.58465564 3.35034608,5.55892351 L2.26333212,6.2601367 L3.03314263,5.22906375 C3.00852394,5.19821472 2.98463731,5.16676908 2.96150862,5.1347524 L1.74295276,5.56871852 L2.73059131,4.74323631 C2.71351062,4.70693042 2.69730085,4.67014371 2.68198853,4.63290239 L1.39779866,4.77723 L2.5497286,4.19978116 C2.5416741,4.16056344 2.5345647,4.12100679 2.52842489,4.08113541 L1.24647717,3.92834047 L2.50126555,3.6292244 C2.50256221,3.58873099 2.50485024,3.54848464 2.50810645,3.50850824 L1.29714607,3.0678138 L2.5864737,3.06362327 C2.59732429,3.02408173 2.60914874,2.98493585 2.62192004,2.94621231 L1.54707378,2.2420412 L2.80273408,2.53229802 C2.82265104,2.4962524 2.84345508,2.46075371 2.86511722,2.42583056 L1.98278665,1.49554027 L3.13816838,2.06455841 C3.16537433,2.03469304 3.19331057,2.00548971 3.22194933,1.97697587 L2.58079527,0.868555096 L3.57341195,1.68597404 C3.60663741,1.66324304 3.64045009,1.64129037 3.67482298,1.62014273 L3.30886085,0.394886591 L4.08360182,1.41764987 C4.12164578,1.40297106 4.16014503,1.38919028 4.19907288,1.37633394 L4.12773319,0.100070352 L4.64404845,1.2733905 C4.68401917,1.26791992 4.7242933,1.26338701 4.76484735,1.25981497 L4.99326665,2.84217094e-14 Z M4.96626023,2.13533658 C4.09088473,2.13533658 3.38125267,2.83465332 3.38125267,3.69730422 C3.38125267,4.55995513 4.09088473,5.25927186 4.96626023,5.25927186 C5.84163574,5.25927186 6.5512678,4.55995513 6.5512678,3.69730422 C6.5512678,2.83465332 5.84163574,2.13533658 4.96626023,2.13533658 Z M4.98462543,2.84975993 C5.47796484,2.84975993 5.87789545,3.24969054 5.87789545,3.74302995 C5.87789545,4.23636936 5.47796484,4.63629997 4.98462543,4.63629997 C4.49128602,4.63629997 4.0913554,4.23636936 4.0913554,3.74302995 C4.0913554,3.24969054 4.49128602,2.84975993 4.98462543,2.84975993 Z"></path>
                    </g>
                </g>
            </g>
        </g>
    </g>
</svg>