<?xml version="1.0" encoding="UTF-8"?>
<svg width="20px" height="15px" viewBox="0 0 20 15" version="1.1" xmlns="http://www.w3.org/2000/svg" xmlns:xlink="http://www.w3.org/1999/xlink">
    <title>flags/M/SB - Solomon Islands</title>
    <defs>
        <rect id="path-1" x="0" y="0" width="20" height="15"></rect>
        <rect id="path-3" x="0" y="0" width="20" height="15"></rect>
    </defs>
    <g id="Symbols" stroke="none" stroke-width="1" fill="none" fill-rule="evenodd">
        <g id="flag">
            <mask id="mask-2" fill="white">
                <use xlink:href="#path-1"></use>
            </mask>
            <g id="mask"></g>
            <g id="contents" mask="url(#mask-2)">
                <mask id="mask-4" fill="white">
                    <use xlink:href="#path-3"></use>
                </mask>
                <use id="background" fill="#3D58DB" xlink:href="#path-3"></use>
                <polygon id="green" fill="#579D20" mask="url(#mask-4)" points="0 15 20 15 20 0"></polygon>
                <polygon id="Path-14" fill="#FECA00" fill-rule="nonzero" mask="url(#mask-4)" points="-0.48874694 15.4657915 -1.61608984 13.9057362 21.046994 -1.22143757 22.1743369 0.338617745"></polygon>
                <g id="mark" mask="url(#mask-4)" fill="#F7FCFF">
                    <g transform="translate(1.250000, 1.250000)" id="Combined-Shape">
                        <path d="M1.88553136,0.14626054 L2.24393652,1.14742736 L3.08962763,1.14742736 L2.4654431,1.82915449 L2.77804464,2.78185113 L1.88553136,2.25048504 L1.03330045,2.84160868 L1.30561962,1.82915449 L0.679993806,1.18239798 L1.52712619,1.14742736 L1.88553136,0.14626054 Z M5.42189333,0.14626054 L5.7802985,1.14742736 L6.6259896,1.14742736 L6.00180507,1.82915449 L6.31440662,2.78185113 L5.42189333,2.25048504 L4.56966242,2.84160868 L4.84198159,1.82915449 L4.21635578,1.18239798 L5.06348817,1.14742736 L5.42189333,0.14626054 Z"></path>
                        <path d="M1.88553136,3.89626054 L2.24393652,4.89742736 L3.08962763,4.89742736 L2.4654431,5.57915449 L2.77804464,6.53185113 L1.88553136,6.00048504 L1.03330045,6.59160868 L1.30561962,5.57915449 L0.679993806,4.93239798 L1.52712619,4.89742736 L1.88553136,3.89626054 Z M5.42189333,3.89626054 L5.7802985,4.89742736 L6.6259896,4.89742736 L6.00180507,5.57915449 L6.31440662,6.53185113 L5.42189333,6.00048504 L4.56966242,6.59160868 L4.84198159,5.57915449 L4.21635578,4.93239798 L5.06348817,4.89742736 L5.42189333,3.89626054 Z M3.75722233,1.96374135 L4.1156275,2.96490817 L4.9613186,2.96490817 L4.33713407,3.6466353 L4.64973561,4.59933194 L3.75722233,4.06796585 L2.90499142,4.65908949 L3.17731059,3.6466353 L2.55168478,2.99987879 L3.39881716,2.96490817 L3.75722233,1.96374135 Z"></path>
                    </g>
                </g>
            </g>
        </g>
    </g>
</svg>