<?xml version="1.0" encoding="UTF-8"?>
<svg width="20px" height="15px" viewBox="0 0 20 15" version="1.1" xmlns="http://www.w3.org/2000/svg" xmlns:xlink="http://www.w3.org/1999/xlink">
    <title>flags/M/SI - Slovenia</title>
    <defs>
        <rect id="path-1" x="0" y="0" width="20" height="15"></rect>
        <rect id="path-3" x="0" y="0" width="20" height="15"></rect>
    </defs>
    <g id="Symbols" stroke="none" stroke-width="1" fill="none" fill-rule="evenodd">
        <g id="flag">
            <mask id="mask-2" fill="white">
                <use xlink:href="#path-1"></use>
            </mask>
            <g id="mask"></g>
            <g id="contents" mask="url(#mask-2)">
                <mask id="mask-4" fill="white">
                    <use xlink:href="#path-3"></use>
                </mask>
                <use id="background" fill="#2E42A5" xlink:href="#path-3"></use>
                <rect id="top" fill="#F7FCFF" mask="url(#mask-4)" x="0" y="0" width="20" height="5"></rect>
                <rect id="bottom" fill="#C51918" mask="url(#mask-4)" x="0" y="10" width="20" height="5"></rect>
                <g id="mark" mask="url(#mask-4)">
                    <g transform="translate(1.250000, 2.500000)">
                        <path d="M7.33764211,0.647656509 C6.46066798,0.23351732 5.47680584,0.026447725 4.38605569,0.026447725 C3.29530554,0.026447725 2.3114434,0.23351732 1.43446927,0.647656509 C1.53206343,2.31212154 1.65798583,3.58522985 1.81223647,4.46698143 C1.91102663,5.03170116 2.38586023,5.85535222 2.81573797,6.24519505 C3.14239016,6.54142582 3.6658294,6.86501854 4.38605569,7.21597322 C4.69868532,7.00054509 5.2832239,6.90367139 6.0303724,6.24519505 C6.52847141,5.80621083 6.83942193,5.21347295 6.96322397,4.46698143 L7.33764211,0.647656509 Z" id="Path-267" fill="#2E42A5" fill-rule="evenodd"></path>
                        <path d="M7.16373311,0.566049171 L7.71155929,0.839626206 L7.33549384,4.60376418 C7.20377575,5.40043164 6.87419775,6.02867745 6.34714977,6.49317496 C6.06124145,6.74515146 5.78216148,6.93342107 5.48295252,7.08985573 C5.3140611,7.1781568 4.60759704,7.54206985 4.6137499,7.53910436 C4.54296829,7.57321898 4.48929123,7.60309595 4.44569276,7.63313896 L4.37736085,7.68022539 L4.30359142,7.64427874 C3.5718665,7.28772097 2.88917348,6.80788228 2.54991789,6.50022188 C2.08680312,6.08023741 1.59850032,5.22082616 1.49439692,4.62573405 C1.33874143,3.73595182 1.1991524,2.51038358 1.10118929,0.839626206 L1.59331467,0.58216612 C1.69053989,2.24033881 1.80790447,3.5621594 1.96075026,4.43588034 C2.05118032,4.95281082 2.50146186,5.74530477 2.91223228,6.11781977 C3.21581361,6.39312829 3.70489871,6.69840398 4.37736085,7.03040558 C4.41747548,7.00690035 4.461929,6.98363386 4.51278143,6.95912451 C4.51421581,6.95843318 4.9716601,6.75528826 5.13064005,6.67216918 C5.40948107,6.52638344 5.66866729,6.35153432 5.93551759,6.11635402 C6.4033754,5.70402194 6.69537898,5.14872172 6.81346928,4.44329241 L7.16373311,0.566049171 Z" id="Path-267" fill="#C51918" fill-rule="nonzero"></path>
                        <path d="M5.09385684,5.62600668 C5.14897669,5.62130803 5.20090772,5.6328705 5.26123379,5.66581159 C5.42660195,5.75611099 5.617275,5.81228824 5.79030464,5.82016085 L5.78394181,5.8253887 L5.66583329,5.9658441 C5.3513441,6.31886446 4.9170419,6.57921138 4.36292669,6.74688489 C3.89770532,6.56702394 3.47692996,6.29362197 3.1006006,5.92667897 C3.08859699,5.91497476 3.07667551,5.90312277 3.06483615,5.89112302 C3.2138967,5.89393536 3.32273736,5.85440468 3.39221321,5.76522347 C3.43365532,5.71202718 3.55897627,5.65945049 3.70247497,5.63732758 C3.76944844,5.62700241 3.8335118,5.62443723 3.88202566,5.62974909 C3.90333451,5.63208222 3.92015113,5.63580312 3.93086654,5.6400183 C4.05179175,5.822367 4.36182959,5.91849065 4.65383368,5.79674072 L4.65383368,5.79674072 L4.61793659,5.8039707 C4.71860521,5.76973449 4.89781514,5.68730001 4.91338149,5.68056402 C4.99172893,5.64666092 5.04511028,5.63016204 5.09385684,5.62600668 Z M5.24727654,5.1849098 C5.31546202,5.17984156 5.37979382,5.19233119 5.45277739,5.22708145 C5.65459176,5.32317297 5.88961387,5.37983624 6.09564132,5.37984675 C6.04989526,5.45310773 6.00493229,5.52174621 5.96004432,5.58692735 C5.80254067,5.62650362 5.55242,5.57827971 5.35126482,5.46843878 C5.2587228,5.41790615 5.17034821,5.3982295 5.07819636,5.40608491 C5.0053346,5.41229596 4.93467799,5.43413421 4.83923161,5.47543649 C4.82048884,5.483547 4.64287436,5.5652476 4.58203949,5.59061245 L4.58203949,5.59061245 L4.61793659,5.58338247 C4.37015723,5.67895591 4.15327236,5.60849665 4.09134973,5.50621666 C3.98084743,5.32369574 3.40171174,5.41297997 3.23877546,5.6221297 C3.1948496,5.67851421 3.06129467,5.68829519 2.84069194,5.63223139 C2.78786007,5.56494032 2.73850829,5.4949946 2.69102255,5.42169131 C2.97959938,5.47601791 3.17437901,5.45008612 3.28202654,5.32959818 C3.33212656,5.27352212 3.48077719,5.21914249 3.64990449,5.1964068 C3.72875531,5.18580693 3.80440373,5.1831657 3.86240506,5.18870325 C3.88902138,5.19124439 3.9104699,5.19539858 3.92490892,5.20039273 C3.93003095,5.20216434 3.92936524,5.20174272 3.92306576,5.19266992 L3.92377404,5.19356749 L3.9739225,5.25113932 C4.11029867,5.37928677 4.36520746,5.4464548 4.62439945,5.38940601 L4.73541088,5.35716705 L4.70362302,5.36279423 C4.8092386,5.33032602 5.01457884,5.24796515 5.03279535,5.24109162 C5.12477099,5.206387 5.18815731,5.18930414 5.24727654,5.1849098 Z M4.36292669,2.77756749 L5.08740863,3.81042867 L5.52344631,3.33725772 L6.62050622,4.39012571 C6.49132981,4.6699597 6.36275467,4.92207036 6.2347808,5.14645768 C6.04754666,5.18393298 5.76295482,5.13419792 5.5332275,5.02481599 C5.43089697,4.97609252 5.33432172,4.95734302 5.23361123,4.96482885 C5.15326608,4.97080092 5.07440162,4.99205519 4.96706486,5.03255594 C4.94593456,5.04052892 4.74205694,5.12230313 4.67183517,5.14783317 L4.67183517,5.14783317 L4.70362302,5.142206 C4.41852313,5.23992808 4.15778543,5.16606752 4.0836063,5.05923018 C3.96336934,4.88605754 3.31896746,4.97268413 3.1378532,5.17540205 C3.07096014,5.25027426 2.84943173,5.25027426 2.48524113,5.14581137 L2.53813632,5.16209173 C2.4148961,4.93197436 2.30677534,4.67465235 2.21377404,4.39012571 L2.21377404,4.39012571 L3.29130025,3.33725772 L3.75639059,3.81042867 L4.36292669,2.77756749 Z" id="Path-268" fill="#FFFFFF" fill-rule="evenodd"></path>
                        <polygon id="Star-5" fill="#FECA00" fill-rule="evenodd" points="3.21675384 1.17887222 2.77730305 1.17887222 3.11814052 0.859569969 2.77730305 0.52216126 3.21675384 0.52216126 3.40230305 0.194645385 3.58859993 0.52216126 4.02730305 0.52216126 3.70350669 0.839306064 3.99101841 1.17887222 3.58859993 1.17887222 3.40230305 1.52449455"></polygon>
                        <polygon id="Star-5" fill="#FECA00" fill-rule="evenodd" points="5.28784625 1.17887222 4.84839546 1.17887222 5.18923294 0.859569969 4.84839546 0.52216126 5.28784625 0.52216126 5.47339546 0.194645385 5.65969234 0.52216126 6.09839546 0.52216126 5.7745991 0.839306064 6.06211082 1.17887222 5.65969234 1.17887222 5.47339546 1.52449455"></polygon>
                        <polygon id="Star-5" fill="#FECA00" fill-rule="evenodd" points="4.12494136 2.22968117 3.68549058 2.22968117 4.02632805 1.91037892 3.68549058 1.57297021 4.12494136 1.57297021 4.31049058 1.24545434 4.49678745 1.57297021 4.93549058 1.57297021 4.61169422 1.89011502 4.89920593 2.22968117 4.49678745 2.22968117 4.31049058 2.57530351"></polygon>
                    </g>
                </g>
            </g>
        </g>
    </g>
</svg>