<?xml version="1.0" encoding="UTF-8"?>
<svg width="20px" height="15px" viewBox="0 0 20 15" version="1.1" xmlns="http://www.w3.org/2000/svg" xmlns:xlink="http://www.w3.org/1999/xlink">
    <title>flags/M/SK - Slovakia</title>
    <defs>
        <rect id="path-1" x="0" y="0" width="20" height="15"></rect>
        <rect id="path-3" x="0" y="0" width="20" height="15"></rect>
        <path d="M6.17091383,4.40045778 C6.28322516,3.59067856 6.22706949,2.13018288 6.00244683,0.0189707355 L0.215517926,0.0189707355 C0.062874078,2.28264987 0.0302880453,3.74314556 0.117759827,4.40045778 C0.248967501,5.38642612 0.844659481,7.5510555 3.11130632,8.53014499 C5.27455665,7.56285994 6.00244683,5.61512662 6.17091383,4.40045778 Z" id="path-5"></path>
    </defs>
    <g id="Symbols" stroke="none" stroke-width="1" fill="none" fill-rule="evenodd">
        <g id="flag">
            <mask id="mask-2" fill="white">
                <use xlink:href="#path-1"></use>
            </mask>
            <g id="mask"></g>
            <g id="contents" mask="url(#mask-2)">
                <mask id="mask-4" fill="white">
                    <use xlink:href="#path-3"></use>
                </mask>
                <use id="background" fill="#3D58DB" xlink:href="#path-3"></use>
                <rect id="top" fill="#F7FCFF" mask="url(#mask-4)" x="0" y="0" width="20" height="5"></rect>
                <rect id="bottom" fill="#E31D1C" mask="url(#mask-4)" x="0" y="10" width="20" height="5"></rect>
                <g id="mark" mask="url(#mask-4)">
                    <g transform="translate(3.750000, 3.750000)">
                        <mask id="mask-6" fill="white">
                            <use xlink:href="#path-5"></use>
                        </mask>
                        <path stroke="#FFFFFF" stroke-width="0.625" d="M6.28288394,-0.293529265 C6.53690189,2.00564204 6.59958841,3.58439168 6.48045089,4.44338864 C6.30201424,5.72993995 5.52922677,7.79130341 3.23886744,8.81542452 C0.585388855,7.77947003 -0.0527831296,5.48790465 -0.192009368,4.4416803 C-0.284418274,3.74726774 -0.248426653,2.16909152 -0.0762523797,-0.293529265 L-0.0762523797,-0.293529265 Z"></path>
                        <path d="M2.6606895,0.368603092 C2.74672534,0.499694574 2.809002,0.66546634 2.84751947,0.86591839 C2.88603694,1.06637044 2.90861603,1.34220379 2.91525676,1.69341843 L1.69095659,1.54267823 L1.69095659,2.47098313 L2.94261074,2.31158067 L2.9222667,3.1926678 C2.67263254,3.21854676 2.44544465,3.21854676 2.24070303,3.1926678 C2.03596141,3.16678883 1.73191823,3.09964221 1.3285735,2.99122792 L1.3285735,4.05396762 C1.73836515,3.92286499 2.04240832,3.84227206 2.24070303,3.81218882 C2.43899773,3.78210558 2.66618562,3.78210558 2.9222667,3.81218882 L2.9222667,5.1173867 L3.4304107,5.1173867 L3.4304107,3.81218882 C3.80072724,3.77999827 4.09633818,3.78132875 4.31724352,3.81618025 C4.53814886,3.85103175 4.75337414,3.93029421 4.96291937,4.05396762 L4.96291937,2.99122792 C4.75062964,3.09699406 4.54436995,3.16303667 4.34414033,3.18935576 C4.1439107,3.21567485 3.83933416,3.21677886 3.4304107,3.1926678 L3.45075475,2.31158067 C3.72793315,2.2828841 3.94427596,2.27909082 4.09978318,2.30020085 C4.2552904,2.32131087 4.43036095,2.3782383 4.62499485,2.47098313 L4.62499485,1.54267823 C4.43529155,1.64590416 4.26580863,1.70687964 4.11654607,1.72560465 C3.96728351,1.74432967 3.73623507,1.73360093 3.42340077,1.69341843 C3.42894618,1.33097347 3.44776633,1.06150943 3.47986121,0.885026303 C3.51195609,0.708543181 3.5734454,0.53640211 3.66432914,0.368603092 L2.6606895,0.368603092 Z" id="Path-266" stroke="none" fill="#F7FCFF" fill-rule="evenodd" mask="url(#mask-6)"></path>
                        <path d="M0.560833358,6.40330682 C0.743955179,6.01027827 0.98450258,5.77639741 1.28247556,5.70166424 C1.58044854,5.62693106 1.88566004,5.74387149 2.19811006,6.05248553 C2.38890217,5.42897308 2.71681976,5.11721685 3.18186283,5.11721685 C3.6469059,5.11721685 3.96103221,5.42897308 4.12424175,6.05248553 C4.32265336,5.81860467 4.56452147,5.70166424 4.84984609,5.70166424 C5.13517072,5.70166424 5.41000584,5.9355451 5.67435146,6.40330682 C4.82209844,7.95056659 3.96984542,8.72419647 3.11759241,8.72419647 C2.26533939,8.72419647 1.41308637,7.95056659 0.560833358,6.40330682 Z" id="Path-265" stroke="none" fill="#2E42A5" fill-rule="evenodd" mask="url(#mask-6)"></path>
                    </g>
                </g>
            </g>
        </g>
    </g>
</svg>