<?xml version="1.0" encoding="UTF-8"?>
<svg width="20px" height="15px" viewBox="0 0 20 15" version="1.1" xmlns="http://www.w3.org/2000/svg" xmlns:xlink="http://www.w3.org/1999/xlink">
    <title>flags/M/ST - Sao Tome and Principe</title>
    <defs>
        <rect id="path-1" x="0" y="0" width="20" height="15"></rect>
    </defs>
    <g id="Symbols" stroke="none" stroke-width="1" fill="none" fill-rule="evenodd">
        <g id="flag">
            <mask id="mask-2" fill="white">
                <use xlink:href="#path-1"></use>
            </mask>
            <g id="mask"></g>
            <g id="contents" mask="url(#mask-2)">
                <rect id="background" fill="#FBCD17" x="0" y="0" width="20" height="15"></rect>
                <rect id="top" fill="#73BE4A" x="0" y="0" width="20" height="5"></rect>
                <rect id="bottom" fill="#73BE4A" x="0" y="10" width="20" height="5"></rect>
                <polygon id="triangle" fill="#C51918" points="0 0 0 15 6.25 7.5"></polygon>
                <polygon id="Star-5" fill="#272727" points="10.6261215 8.66917399 9.45695189 9.375 9.72363208 7.99765105 8.75 6.9668408 10.0683524 6.91110409 10.6261215 5.625 11.1838906 6.91110409 12.5 6.91110409 11.5286109 7.99765105 11.8210566 9.375"></polygon>
                <polygon id="Star-5" fill="#272727" points="15.6261215 8.66917399 14.4569519 9.375 14.7236321 7.99765105 13.75 6.9668408 15.0683524 6.91110409 15.6261215 5.625 16.1838906 6.91110409 17.5 6.91110409 16.5286109 7.99765105 16.8210566 9.375"></polygon>
            </g>
        </g>
    </g>
</svg>