<?xml version="1.0" encoding="UTF-8"?>
<svg width="20px" height="15px" viewBox="0 0 20 15" version="1.1" xmlns="http://www.w3.org/2000/svg" xmlns:xlink="http://www.w3.org/1999/xlink">
    <title>flags/M/SX - Sint Maarten</title>
    <defs>
        <rect id="path-1" x="0" y="0" width="20" height="15"></rect>
        <rect id="path-3" x="0" y="0" width="20" height="15"></rect>
        <polygon id="path-5" points="0 -1.25 0 16.25 12.5 7.5"></polygon>
    </defs>
    <g id="Symbols" stroke="none" stroke-width="1" fill="none" fill-rule="evenodd">
        <g id="flag">
            <mask id="mask-2" fill="white">
                <use xlink:href="#path-1"></use>
            </mask>
            <g id="mask"></g>
            <g id="contents" mask="url(#mask-2)">
                <mask id="mask-4" fill="white">
                    <use xlink:href="#path-3"></use>
                </mask>
                <use id="background" fill="#E31D1C" xlink:href="#path-3"></use>
                <rect id="top" fill="#2E42A5" mask="url(#mask-4)" x="0" y="7.5" width="20" height="7.5"></rect>
                <mask id="mask-6" fill="white">
                    <use xlink:href="#path-5"></use>
                </mask>
                <use id="triangle" fill="#F7FCFF" xlink:href="#path-5"></use>
                <g id="mark" mask="url(#mask-6)">
                    <g transform="translate(1.250000, 3.750000)">
                        <g id="Group-7" stroke="none" stroke-width="1" fill="none" fill-rule="evenodd" transform="translate(1.888112, 0.000000)">
                            <ellipse id="Oval-52" fill="#FBCD17" cx="1.94055944" cy="0.996503497" rx="1.62587413" ry="1"></ellipse>
                            <path d="M1.85574584,0.455071872 C1.85574584,0.326363213 1.95005616,0.240853392 2.08278649,0.240853392 L2.61233488,0.240853392 C2.62702495,0.240838501 2.62702495,0.240838501 2.63604268,0.240875301 L2.63787469,0.553216916 L2.62320923,0.553564531 C2.58968221,0.554458889 2.58968221,0.554458889 2.5296301,0.557253171 C2.43029666,0.562549171 2.33630169,0.571652971 2.25912103,0.58506791 C2.26789303,0.591650169 2.27687061,0.598541408 2.2858995,0.605529662 C2.76514117,0.534073991 2.99110884,0.534073991 3.23474056,0.578772385 C3.26354099,0.584116664 3.26354099,0.584116664 3.2898271,0.588897885 C3.34906462,0.599430756 3.39006667,0.603821277 3.44197953,0.603821277 C3.48856777,0.603764658 3.48856777,0.603764658 3.5136454,0.60391659 C3.51921141,0.604008001 3.51921141,0.604008001 3.52893381,0.604579648 C3.53560365,0.604649492 3.53560365,0.604649492 3.58860516,0.621305869 L3.66773931,0.717002393 L3.59111692,0.898494764 C3.5936868,0.89733487 3.5936868,0.89733487 3.56501742,0.909522995 C3.52654505,0.917566761 3.52654505,0.917566761 3.51872263,0.91763991 C3.45251474,0.922498327 3.38413978,0.927811679 3.29906253,0.935553699 C3.06176332,0.957147899 2.79509671,0.988449689 2.49520637,1.03251213 C2.48618591,1.04439516 2.4753024,1.05774107 2.46258325,1.07333793 C2.4258009,1.10010792 2.40249235,1.10535361 2.31478931,1.11973038 C2.22450508,1.13453028 2.07757297,1.15242396 1.94774591,1.16470362 C1.88154592,1.17096513 1.82417349,1.17534458 1.78175205,1.17723552 C1.48288513,1.19055756 1.57215192,1.19442144 1.55287417,1.03684365 C1.53861862,0.920317617 1.48906209,0.904823397 1.59223366,0.877100431 C1.55409822,0.847313361 1.51675948,0.814559922 1.48104137,0.77838035 C1.41873399,0.715267968 1.40770543,0.709473981 1.41402353,0.708412881 C1.41026202,0.709044613 1.40577526,0.710659289 1.35448964,0.729951631 C1.23546544,0.772813581 1.11667698,0.783600406 0.945602324,0.750945945 C0.696564368,0.70340997 0.411463641,0.75209154 0.0883101649,0.901839567 L-0.0430795508,0.618302986 C0.335561447,0.442842265 0.685315958,0.383120919 1.004194,0.443987861 C1.11894581,0.465891505 1.18109512,0.460247912 1.24861085,0.43593474 C1.29095797,0.418974203 1.32622845,0.406281197 1.36226526,0.400228956 C1.48111644,0.380268372 1.57673141,0.430500897 1.70342594,0.558832283 C1.85326272,0.710604907 1.91783202,0.727070878 1.9257064,0.754122824 C1.9261901,0.747012823 1.9244762,0.734479438 1.92118513,0.719358046 C1.86767244,0.666969283 1.84217125,0.609852614 1.84401449,0.541376082 C1.8447347,0.51462038 1.84873695,0.490715337 1.85586487,0.469265766 C1.85577683,0.464814376 1.85574584,0.460123068 1.85574584,0.455071872 Z M1.8538113,1.13935032 C1.84301021,1.1415303 1.83304937,1.14360028 1.82392592,1.14555996 C1.84884317,1.14020784 1.86829803,1.13623807 1.88324492,1.13307129 L1.8538113,1.13935032 Z" id="Path-301" fill="#DA610A" fill-rule="nonzero"></path>
                        </g>
                        <path d="M3.70312708,1.61295944 C4.36743557,1.52062416 4.79082433,1.50874988 5.0703515,1.60250849 C5.31110408,1.68326138 5.6082108,1.67654889 5.96237984,1.55866569 C5.86011304,2.0139847 5.80955632,2.43861467 5.80955632,2.83240236 C5.80955632,3.29095523 5.89877698,3.65968888 5.98660316,4.0136331 C6.05648707,4.29526901 6.12645425,4.56594846 6.12645425,4.87775844 C6.12645425,5.09594898 6.06495953,5.25952953 5.92999916,5.36360532 C5.75261434,5.50039708 5.48624812,5.54403222 5.16972853,5.54403222 C4.66825632,5.54403222 4.19829468,5.67706612 3.7604397,5.94517311 C3.30780366,5.67649068 2.83834878,5.54403222 2.33764478,5.54403222 C2.02112519,5.54403222 1.75475897,5.50039708 1.57737415,5.36360532 C1.44241378,5.25952953 1.38091906,5.09594898 1.38091906,4.87775844 C1.38091906,4.56594846 1.45088624,4.29526901 1.52077015,4.0136331 C1.60859633,3.65968888 1.69781699,3.29095523 1.69781699,2.83240236 C1.69781699,2.43857936 1.6472512,2.01390854 1.54503788,1.55859836 C1.89921871,1.67655015 2.196292,1.68325374 2.43702181,1.60250849 C2.71654898,1.50874988 3.13993774,1.52062416 3.70312708,1.61295944 Z" id="shield" stroke="#E31D1C" stroke-width="0.625" fill="#56C6F5" fill-rule="evenodd"></path>
                        <path d="M3.75836663,2.21153846 L4.24050949,2.64010989 L4.06122378,2.63953846 L4.06122378,2.86453846 L4.84765235,3.3543956 L4.84722378,4.49653846 L5.02622378,4.49725275 L5.02622378,4.71153846 L2.52622378,4.71153846 L2.52622378,4.49725275 L2.66822378,4.49653846 L2.66908092,3.3543956 L3.41822378,2.88653846 L3.41822378,2.63953846 L3.27622378,2.64010989 L3.75836663,2.21153846 Z" id="Combined-Shape" stroke="none" fill="#F7FCFF" fill-rule="evenodd"></path>
                        <path d="M3.71992118,6.88774197 C4.38307261,6.88774197 4.8396028,6.81534577 5.07468773,6.69193964 C5.13631814,6.58713794 5.24440612,6.52797228 5.35942333,6.53222882 C5.87595438,6.55134213 6.27600211,6.33374161 6.59049275,5.8554781 C6.9302989,5.33871588 6.99857722,4.60467429 6.77710507,3.64117681 L7.33936531,3.51193414 C7.59312406,4.61589203 7.51025534,5.506791 7.07253651,6.17245451 C6.68030695,6.76893995 6.14551415,7.08753822 5.49284643,7.10913073 C5.15950154,7.35596308 4.57532594,7.46466505 3.71992118,7.46466505 C2.89238751,7.46466505 2.27881722,7.30398526 1.88529518,6.96258555 C0.991617433,6.75145712 0.4237044,6.39500998 0.200398453,5.86667477 C-0.037642691,5.30347653 -0.037642691,4.52161977 0.18440514,3.51445057 L0.747798574,3.63866038 C0.549121371,4.53982458 0.549121371,5.20984595 0.731805261,5.64207058 C0.859284323,5.94368224 1.2296859,6.18982357 1.85720779,6.36047448 L2.44021526,6.48513612 L2.41222644,6.63235721 C2.69664338,6.79860129 3.13132332,6.88774197 3.71992118,6.88774197 Z" id="Path-302" stroke="none" fill="#FBCD17" fill-rule="nonzero"></path>
                        <path d="M1.69625162,1.76495744 L2.01584566,1.89352975 L1.85604864,2.22574554 L2.30303759,1.99535149 L2.2683162,2.1659272 L2.17248724,2.63670598 L2.35563153,2.10061131 L2.35563153,2.57414922 L2.46753447,2.10061131 L2.79984484,2.20083171 C2.57830459,2.06384489 2.46753447,1.99535149 2.46753447,1.99535149 C2.46753447,1.99535149 2.57830459,1.96141091 2.79984484,1.89352975" id="Path-303" stroke="#73BE4A" stroke-width="0.625" fill="none" stroke-linecap="round" stroke-linejoin="round"></path>
                        <circle id="Oval-53" stroke="none" fill="#FBCD17" fill-rule="evenodd" cx="2.28146853" cy="2.12412587" r="1"></circle>
                        <path d="M5.2655633,1.73076923 C5.35059961,1.73076923 5.39591427,1.95964571 5.40150726,2.41739867 C5.51942582,2.44838367 5.63103738,2.52376921 5.73598305,2.64372944 L5.73598305,2.64372944 L4.81626986,2.64372944 C4.81626986,2.64372944 4.95434058,2.48590498 5.13806514,2.42509614 L5.13986014,2.51748252 C5.13263917,1.99300699 5.17454023,1.73076923 5.2655633,1.73076923 Z" id="Combined-Shape" stroke="none" fill="#F7FCFF" fill-rule="evenodd"></path>
                    </g>
                </g>
            </g>
        </g>
    </g>
</svg>