<?xml version="1.0" encoding="UTF-8"?>
<svg width="20px" height="15px" viewBox="0 0 20 15" version="1.1" xmlns="http://www.w3.org/2000/svg" xmlns:xlink="http://www.w3.org/1999/xlink">
    <title>flags/M/TC - Turks and Caicos Islands</title>
    <defs>
        <rect id="path-1" x="0" y="0" width="20" height="15"></rect>
        <rect id="path-3" x="0" y="0" width="20" height="15"></rect>
        <rect id="path-5" x="0" y="0" width="11" height="9"></rect>
    </defs>
    <g id="Symbols" stroke="none" stroke-width="1" fill="none" fill-rule="evenodd">
        <g id="flag">
            <mask id="mask-2" fill="white">
                <use xlink:href="#path-1"></use>
            </mask>
            <g id="mask"></g>
            <g id="contents" mask="url(#mask-2)">
                <mask id="mask-4" fill="white">
                    <use xlink:href="#path-3"></use>
                </mask>
                <use id="background" fill="#2E42A5" xlink:href="#path-3"></use>
                <g id="gb---medium" mask="url(#mask-4)">
                    <g id="flag">
                        <mask id="mask-6" fill="white">
                            <use xlink:href="#path-5"></use>
                        </mask>
                        <use id="mask" fill="#2E42A5" xlink:href="#path-5"></use>
                        <g id="contents" mask="url(#mask-6)">
                            <g transform="translate(-2.500000, -1.250000)">
                                <g id="stripe" transform="translate(1.000000, 0.000000)">
                                    <polygon id="white" fill="#F7FCFF" fill-rule="nonzero" transform="translate(7.179664, 5.457378) scale(1, -1) translate(-7.179664, -5.457378) " points="0.247333589 1.53986811 2.72292762 0.454117833 12.8061752 8.48429142 14.1119945 10.0977486 11.4647029 10.4606384 7.35198716 7.00020684 4.04167375 4.66868453"></polygon>
                                    <polygon id="red" fill="#F50100" fill-rule="nonzero" transform="translate(7.114665, 5.716384) scale(1, -1) translate(-7.114665, -5.716384) " points="0.586246133 1.29717712 1.84744698 0.66709794 13.6430838 10.7656701 11.8722111 10.7656701"></polygon>
                                </g>
                                <g id="stripe" transform="translate(7.750000, 5.500000) scale(-1, 1) translate(-7.750000, -5.500000) translate(0.250000, 0.000000)">
                                    <polygon id="white" fill="#F7FCFF" fill-rule="nonzero" transform="translate(7.179664, 5.612355) scale(1, -1) translate(-7.179664, -5.612355) " points="0.247333589 1.84982105 2.4444201 0.454117833 12.8061752 8.79424437 14.1119945 10.4077016 11.4647029 10.7705913 7.35198716 7.31015978 4.04167375 4.97863747"></polygon>
                                    <polygon id="red" fill="#F50100" fill-rule="nonzero" transform="translate(7.284723, 5.686725) scale(1, -1) translate(-7.284723, -5.686725) " points="0.331803828 1.45261194 1.59300468 0.822532761 6.61570908 5.14625614 8.10483314 5.62933537 14.237643 10.5509178 12.4667702 10.5509178 6.33740601 5.74615285 4.70931125 5.16688909"></polygon>
                                </g>
                                <g id="cross" transform="translate(2.500000, 1.250000)">
                                    <path d="M6.46875,-0.46875 L6.46875,3.53125 L11.46875,3.53125 L11.46875,5.46875 L6.46875,5.46875 L6.46875,9.46875 L4.53125,9.46875 L4.53125,5.46875 L-0.46875,5.46875 L-0.46875,3.53125 L4.53125,3.53125 L4.53125,-0.46875 L6.46875,-0.46875 Z" id="red" stroke="#F7FCFF" stroke-width="0.9375" fill="#F50100"></path>
                                </g>
                            </g>
                        </g>
                    </g>
                </g>
                <g id="masked" mask="url(#mask-4)">
                    <g transform="translate(12.500000, 6.250000)">
                        <path d="M0.654175243,0.0204318193 C1.02336459,4.99180581 2.04044124,7.47749281 3.70540519,7.47749281 C5.37036915,7.47749281 6.40760156,4.99180581 6.81710241,0.0204318193 L0.654175243,0.0204318193 Z" id="Path-2" stroke="#F7FCFF" stroke-width="0.5" fill="#FECA00"></path>
                        <g id="mark" stroke="none" stroke-width="1" fill="none" transform="translate(0.500031, 0.000000)">
                            <path d="M4.77896239,0 L4.92991049,0.0175850197 L4.85509993,0.486873057 C4.86517028,0.483620043 4.87513819,0.480496138 4.88500314,0.477501262 L5.18374029,0.116513023 L5.31258261,0.185140827 L5.15495082,0.42600785 C5.31087921,0.418668415 5.42242208,0.463861401 5.48523272,0.560915063 L5.9193911,0.285348158 L6.01091278,0.388641608 L5.53503877,0.691585367 C5.54154549,0.725906228 5.54483396,0.763525283 5.54483396,0.804431679 L5.54483396,0.804431679 L5.54436015,0.874 L6.20156368,0.730803843 L6.25,0.852952354 L5.54436015,1.102 L5.54436015,1.188 L6.2133852,1.13395844 L6.23351454,1.26193301 L5.54436015,1.362 L5.54436015,1.509 L6.23519795,1.62358844 L6.20740162,1.75061305 L5.54436015,1.651 L5.54483396,3.08789568 L5.44325661,3.08789568 L5.44236015,1.636 L4.99697913,1.57115285 C4.92570205,2.06171236 4.89362038,2.37927484 4.90073413,2.52384028 C4.91456186,2.80484731 5.27678651,2.8003592 5.17040623,2.90452283 C5.06402595,3.00868646 4.79816324,3.1084717 4.53218358,3.1084717 C4.26620392,3.1084717 4.00390478,3.00868646 3.94703302,2.90452283 C3.89016127,2.8003592 4.19321575,3.32728908 4.21298372,2.52384028 C4.22126554,2.18723426 4.18933303,1.87344843 4.1171862,1.58248277 L3.76136015,1.636 L3.76210355,3.08789568 L3.66052619,3.08789568 L3.66036015,1.651 L2.99795854,1.75061305 L2.9701622,1.62358844 L3.66036015,1.509 L3.66036015,1.362 L2.97184561,1.26193301 L2.99197495,1.13395844 L3.66036015,1.188 L3.66036015,1.102 L2.95536015,0.852952354 L3.00379647,0.730803843 L3.66036015,0.874 L3.66052619,0.804431679 C3.66052619,0.763525283 3.66381467,0.725906228 3.67032139,0.691585367 L3.19444738,0.388641608 L3.28596905,0.285348158 L3.72012743,0.560915063 C3.78302947,0.463720168 3.89480568,0.418536994 4.05109034,0.426040225 L3.89277754,0.185140827 L4.02161986,0.116513023 L4.32071499,0.477609983 C4.33066976,0.48063451 4.34072931,0.483790362 4.3508931,0.48707762 L4.27544966,0.0175850197 L4.42639776,0 L4.52546469,0.608598212 C4.52771949,0.608513873 4.52995912,0.608471704 4.53218358,0.608471704 C4.57480719,0.608471704 4.62149603,0.62395434 4.67225013,0.654919613 L4.77896239,0 Z" id="Combined-Shape" fill="#CF6900"></path>
                            <path d="M2.54873138,3.6517419 C2.00135124,4.56845604 1.72766116,5.30463527 1.72766116,5.86027958 C2.10065139,6.15610024 2.60791464,6.30401057 3.24945091,6.30401057 C3.89098718,6.30401057 4.37680825,6.15610024 4.70691411,5.86027958 C4.52628292,5.20160864 4.28224841,4.46542941 3.97481055,3.6517419 L2.54873138,3.6517419 Z" id="Path-340" fill="#00A727"></path>
                            <path d="M3.27434788,2.58630781 C3.65302035,2.58630781 3.95999504,2.8932825 3.95999504,3.27195497 L3.95999504,3.74100812 L3.95999504,3.74100812 L2.58870073,3.74100812 L2.58870073,3.27195497 C2.58870073,2.8932825 2.89567542,2.58630781 3.27434788,2.58630781 Z" id="Rectangle-86" fill="#E31D1C"></path>
                            <path d="M0.449443797,1.77092653 C1.17189644,1.9197615 1.53312276,2.11152081 1.53312276,2.34620445 C1.53312276,2.69822992 1.96947804,2.8251666 2.07666675,2.72999852 C2.18385546,2.63483045 2.93898259,2.5682633 2.93898259,2.10940902 C2.93898259,1.65055475 3.00202162,1.52563804 2.81860486,1.23425755 C2.6351881,0.94287705 2.2527066,-0.0420872747 2.16468668,0.352541172 C2.07666675,0.74716962 1.94417242,1.03951419 1.6994438,0.804279646 C1.45471517,0.569045099 1.14035829,0.0710309773 1.03003999,0.352541172 C0.919721681,0.634051368 1.3797166,0.916617456 1.03003999,0.916617456 C0.680363371,0.916617456 0.926819161,0.935072625 0.926819161,1.17342894 C0.926819161,1.41178526 0.968286326,1.63646088 0.708865061,1.63646088 C0.535917551,1.63646088 0.449443797,1.68128276 0.449443797,1.77092653 Z" id="Path-343" fill="#FF927F"></path>
                        </g>
                    </g>
                </g>
            </g>
        </g>
    </g>
</svg>