<?xml version="1.0" encoding="UTF-8"?>
<svg width="20px" height="15px" viewBox="0 0 20 15" version="1.1" xmlns="http://www.w3.org/2000/svg" xmlns:xlink="http://www.w3.org/1999/xlink">
    <title>flags/M/TF - French Southern and Antarctic Lands</title>
    <defs>
        <rect id="path-1" x="0" y="0" width="20" height="15"></rect>
        <rect id="path-3" x="0" y="0" width="20" height="15"></rect>
        <rect id="path-5" x="0" y="0" width="7.5" height="6.25"></rect>
    </defs>
    <g id="Symbols" stroke="none" stroke-width="1" fill="none" fill-rule="evenodd">
        <g id="flag">
            <mask id="mask-2" fill="white">
                <use xlink:href="#path-1"></use>
            </mask>
            <g id="mask"></g>
            <g id="contents" mask="url(#mask-2)">
                <mask id="mask-4" fill="white">
                    <use xlink:href="#path-3"></use>
                </mask>
                <use id="background" fill="#2E42A5" xlink:href="#path-3"></use>
                <g id="mark-2" mask="url(#mask-4)" fill="#F7FCFF">
                    <g transform="translate(8.750000, 3.750000)" id="Combined-Shape">
                        <path d="M5.5,7.18138546 L5.70775852,7.81462958 L6.34040088,7.82828865 L5.83616035,8.23331411 L6.01939631,8.875 L5.5,8.49207539 L4.98060369,8.875 L5.16383965,8.23331411 L4.65959912,7.82828865 L5.29224148,7.81462958 L5.5,7.18138546 Z M7.44402952,5.68345412 L7.65178804,6.31669823 L8.2844304,6.33035731 L7.78018987,6.73538277 L7.96342582,7.37706866 L7.44402952,6.99414405 L6.92463321,7.37706866 L7.10786916,6.73538277 L6.60362863,6.33035731 L7.23627099,6.31669823 L7.44402952,5.68345412 Z M3.55597048,5.68345412 L3.76372901,6.31669823 L4.39637137,6.33035731 L3.89213084,6.73538277 L4.07536679,7.37706866 L3.55597048,6.99414405 L3.03657418,7.37706866 L3.21981013,6.73538277 L2.7155696,6.33035731 L3.34821196,6.31669823 L3.55597048,5.68345412 Z M8.02320932,0.125 L7.53310973,1.06501433 L6.00705474,1.06501433 L6.00705474,1.56993212 L7.17698109,1.56993212 L6.70040866,2.44444311 L6.00705474,2.44444311 L6.00705474,4.19337321 L7.14905964,2.39382271 L8.62698913,4.95295477 L8.02320932,4.95295477 L7.81232429,4.67275112 L6.47460906,4.67275112 L5.534,6.41 L5.5342149,6.50684477 L5.508,6.458 L5.48200996,6.50684477 L5.482,6.41 L4.54161581,4.67275112 L3.20390058,4.67275112 L2.99301555,4.95295477 L2.38923573,4.95295477 L3.86716523,2.39382271 L5.00917013,4.19337321 L5.00917013,1.06501433 L3.48311514,1.06501433 L2.99301555,0.125 L8.02320932,0.125 Z M7.17848043,3.44343801 C6.95965883,3.77998862 6.85024803,3.94826392 6.85024803,3.94826392 L7.47163534,3.94826392 L7.17848043,3.44343801 Z M3.83774444,3.44343801 L3.54458953,3.94826392 L4.16597684,3.94826392 C4.16597684,3.94826392 4.05656604,3.77998862 3.83774444,3.44343801 L3.83774444,3.44343801 Z M1.96540088,1.18966009 L2.1731594,1.8229042 L2.80580176,1.83656328 L2.30156123,2.24158874 L2.48479719,2.88327462 L1.96540088,2.50035001 L1.44600457,2.88327462 L1.62924053,2.24158874 L1.125,1.83656328 L1.75764236,1.8229042 L1.96540088,1.18966009 Z M9.03459912,1.18966009 L9.24235764,1.8229042 L9.875,1.83656328 L9.37075947,2.24158874 L9.55399543,2.88327462 L9.03459912,2.50035001 L8.51520281,2.88327462 L8.69843877,2.24158874 L8.19419824,1.83656328 L8.8268406,1.8229042 L9.03459912,1.18966009 Z"></path>
                    </g>
                </g>
                <g id="mark-1" mask="url(#mask-4)">
                    <mask id="mask-6" fill="white">
                        <use xlink:href="#path-5"></use>
                    </mask>
                    <rect stroke="#FFFFFF" stroke-width="0.625" x="-0.3125" y="-0.3125" width="8.125" height="6.875"></rect>
                    <polygon id="bottom" fill="#F50100" mask="url(#mask-6)" points="5 0 7.5 0 7.5 6.25 5 6.25"></polygon>
                    <polygon id="left" fill="#2E42A5" mask="url(#mask-6)" points="0 0 2.5 0 2.5 6.25 0 6.25"></polygon>
                    <polygon id="middle" fill="#F7FCFF" mask="url(#mask-6)" points="2.5 0 5 0 5 6.25 2.5 6.25"></polygon>
                </g>
            </g>
        </g>
    </g>
</svg>