<?xml version="1.0" encoding="UTF-8"?>
<svg width="20px" height="15px" viewBox="0 0 20 15" version="1.1" xmlns="http://www.w3.org/2000/svg" xmlns:xlink="http://www.w3.org/1999/xlink">
    <title>flags/M/TM - Turkmenistan</title>
    <defs>
        <rect id="path-1" x="0" y="0" width="20" height="15"></rect>
        <rect id="path-3" x="0" y="0" width="20" height="15"></rect>
        <rect id="path-5" x="1.66255898e-14" y="1.04817708" width="6.25" height="16.4518229"></rect>
        <polygon id="path-7" points="1.1356356 0.0318060981 0.0284038532 0.656119453 0.0284038532 1.69088576 1.1356356 2.3404185 2.3348774 2.3404185 3.46843888 1.69088576 3.46843888 0.656119453 2.3348774 0.0318060981"></polygon>
    </defs>
    <g id="Symbols" stroke="none" stroke-width="1" fill="none" fill-rule="evenodd">
        <g id="flag">
            <mask id="mask-2" fill="white">
                <use xlink:href="#path-1"></use>
            </mask>
            <g id="mask"></g>
            <g id="contents" mask="url(#mask-2)">
                <mask id="mask-4" fill="white">
                    <use xlink:href="#path-3"></use>
                </mask>
                <use id="background" fill="#29C470" xlink:href="#path-3"></use>
                <g id="mark" mask="url(#mask-4)">
                    <g transform="translate(1.250000, -1.250000)">
                        <mask id="mask-6" fill="white">
                            <use xlink:href="#path-5"></use>
                        </mask>
                        <use id="Rectangle-91" stroke="none" fill="#C51918" fill-rule="evenodd" xlink:href="#path-5"></use>
                        <path d="M0.104999113,11.4954102 L0.378967118,11.8952564 L0.307897618,11.9735214 L0.475975192,12.1447277 L0.398590745,12.2569397 L0.347052834,12.2216996 L0.445378436,12.3861962 L0.61112721,12.2588166 L0.822287014,12.6130645 L0.610545245,12.9834037 L0.487511234,12.8723513 L0.487511234,12.7923793 L0.364003235,12.984732 L0.41634626,13.0764695 L0.372095976,13.2127241 L0.372095976,13.3114265 L0.030790773,13.75 L0,13.7195565 L0.331138006,13.2940477 L0.331138006,13.208632 L0.332385985,13.2006971 L0.370887229,13.0821448 L0.34732357,13.0408467 L0.152039294,13.2361052 L0.528469204,12.649849 L0.528469204,12.8501763 L0.600710095,12.915382 L0.77325809,12.6135932 L0.60012813,12.3231453 L0.475180227,12.419169 L0.525850045,12.5209609 L0.491006372,12.5451538 L0.208942467,12.073267 L0.388642745,12.1961407 L0.420297963,12.1502388 L0.248097683,11.974833 L0.324266864,11.8909521 L0.0725831959,11.5236291 L0.104999113,11.4954102 Z M6.14500089,11.4954102 L6.1774168,11.5236291 L5.92573314,11.8909521 L6.00190232,11.974833 L5.82970204,12.1502388 L5.86135726,12.1961407 L6.04105753,12.073267 L5.75899363,12.5451538 L5.72414996,12.5209609 L5.77481977,12.419169 L5.64987187,12.3231453 L5.47674191,12.6135932 L5.64928991,12.915382 L5.7215308,12.8501763 L5.7215308,12.649849 L6.09796071,13.2361052 L5.90267643,13.0408467 L5.87911277,13.0821448 L5.91761401,13.2006971 L5.91886199,13.208632 L5.91886199,13.2940477 L6.25,13.7195565 L6.21920923,13.75 L5.87790402,13.3114265 L5.87790402,13.2127241 L5.83365374,13.0764695 L5.88599677,12.984732 L5.76248877,12.7923793 L5.76248877,12.8723513 L5.63945475,12.9834037 L5.42771299,12.6130645 L5.63887279,12.2588166 L5.80462156,12.3861962 L5.90294717,12.2216996 L5.85140925,12.2569397 L5.77402481,12.1447277 L5.94210238,11.9735214 L5.87103288,11.8952564 L6.14500089,11.4954102 Z M6.14500089,8.9100971 L6.1774168,8.9383159 L5.92573314,9.30563891 L6.00190232,9.38951988 L5.82970204,9.56492567 L5.86135726,9.61082759 L6.04105753,9.48795381 L5.75899363,9.95984063 L5.72414996,9.93564771 L5.77481977,9.83385588 L5.64987187,9.73783219 L5.47674191,10.0282801 L5.64928991,10.3300689 L5.7215308,10.2648631 L5.7215308,10.0645358 L6.09796071,10.650792 L5.90267643,10.4555335 L5.87911277,10.4968317 L5.91761401,10.6153839 L5.91886199,10.6233188 L5.91886199,10.7087346 L6.25,11.1342434 L6.21920923,11.1646869 L5.87790402,10.7261133 L5.87790402,10.6274109 L5.83365374,10.4911564 L5.88599677,10.3994189 L5.76248877,10.2070661 L5.76248877,10.2870382 L5.63945475,10.3980906 L5.42771299,10.0277513 L5.63887279,9.6735035 L5.80462156,9.80088305 L5.90294717,9.63638644 L5.85140925,9.67162656 L5.77402481,9.55941458 L5.94210238,9.38820824 L5.87103288,9.30994327 L6.14500089,8.9100971 Z M0.104999113,8.9100971 L0.378967118,9.30994327 L0.307897618,9.38820824 L0.475975192,9.55941458 L0.398590745,9.67162656 L0.347052834,9.63638644 L0.445378436,9.80088305 L0.61112721,9.6735035 L0.822287014,10.0277513 L0.610545245,10.3980906 L0.487511234,10.2870382 L0.487511234,10.2070661 L0.364003235,10.3994189 L0.41634626,10.4911564 L0.372095976,10.6274109 L0.372095976,10.7261133 L0.030790773,11.1646869 L0,11.1342434 L0.331138006,10.7087346 L0.331138006,10.6233188 L0.332385985,10.6153839 L0.370887229,10.4968317 L0.34732357,10.4555335 L0.152039294,10.650792 L0.528469204,10.0645358 L0.528469204,10.2648631 L0.600710095,10.3300689 L0.77325809,10.0282801 L0.60012813,9.73783219 L0.475180227,9.83385588 L0.525850045,9.93564771 L0.491006372,9.95984063 L0.208942467,9.48795381 L0.388642745,9.61082759 L0.420297963,9.56492567 L0.248097683,9.38951988 L0.324266864,9.30563891 L0.0725831959,8.9383159 L0.104999113,8.9100971 Z M6.14500089,6.00161981 L6.1774168,6.02983861 L5.92573314,6.39716162 L6.00190232,6.48104259 L5.82970204,6.65644838 L5.86135726,6.7023503 L6.04105753,6.57947652 L5.75899363,7.05136334 L5.72414996,7.02717042 L5.77481977,6.92537859 L5.64987187,6.8293549 L5.47674191,7.11980277 L5.64928991,7.42159156 L5.7215308,7.35638583 L5.7215308,7.15605854 L6.09796071,7.74231473 L5.90267643,7.54705623 L5.87911277,7.58835438 L5.91761401,7.70690664 L5.91886199,7.71484152 L5.91886199,7.80025727 L6.25,8.22576607 L6.21920923,8.25620956 L5.87790402,7.81763603 L5.87790402,7.71893365 L5.83365374,7.58267906 L5.88599677,7.49094161 L5.76248877,7.29858885 L5.76248877,7.37856091 L5.63945475,7.48961329 L5.42771299,7.11927405 L5.63887279,6.76502621 L5.80462156,6.89240576 L5.90294717,6.72790915 L5.85140925,6.76314927 L5.77402481,6.65093729 L5.94210238,6.47973095 L5.87103288,6.40146598 L6.14500089,6.00161981 Z M0.104999113,6.00161981 L0.378967118,6.40146598 L0.307897618,6.47973095 L0.475975192,6.65093729 L0.398590745,6.76314927 L0.347052834,6.72790915 L0.445378436,6.89240576 L0.61112721,6.76502621 L0.822287014,7.11927405 L0.610545245,7.48961329 L0.487511234,7.37856091 L0.487511234,7.29858885 L0.364003235,7.49094161 L0.41634626,7.58267906 L0.372095976,7.71893365 L0.372095976,7.81763603 L0.030790773,8.25620956 L0,8.22576607 L0.331138006,7.80025727 L0.331138006,7.71484152 L0.332385985,7.70690664 L0.370887229,7.58835438 L0.34732357,7.54705623 L0.152039294,7.74231473 L0.528469204,7.15605854 L0.528469204,7.35638583 L0.600710095,7.42159156 L0.77325809,7.11980277 L0.60012813,6.8293549 L0.475180227,6.92537859 L0.525850045,7.02717042 L0.491006372,7.05136334 L0.208942467,6.57947652 L0.388642745,6.7023503 L0.420297963,6.65644838 L0.248097683,6.48104259 L0.324266864,6.39716162 L0.0725831959,6.02983861 L0.104999113,6.00161981 Z M6.14500089,3.13930882 L6.1774168,3.16752763 L5.92573314,3.53485063 L6.00190232,3.6187316 L5.82970204,3.7941374 L5.86135726,3.84003931 L6.04105753,3.71716554 L5.75899363,4.18905236 L5.72414996,4.16485943 L5.77481977,4.0630676 L5.64987187,3.96704391 L5.47674191,4.25749178 L5.64928991,4.55928058 L5.7215308,4.49407485 L5.7215308,4.29374755 L6.09796071,4.88000375 L5.90267643,4.68474525 L5.87911277,4.7260434 L5.91761401,4.84459566 L5.91886199,4.85253054 L5.91886199,4.93794629 L6.25,5.36345508 L6.21920923,5.39389857 L5.87790402,4.95532504 L5.87790402,4.85662266 L5.83365374,4.72036807 L5.88599677,4.62863062 L5.76248877,4.43627787 L5.76248877,4.51624992 L5.63945475,4.6273023 L5.42771299,4.25696306 L5.63887279,3.90271522 L5.80462156,4.03009478 L5.90294717,3.86559817 L5.85140925,3.90083828 L5.77402481,3.78862631 L5.94210238,3.61741996 L5.87103288,3.53915499 L6.14500089,3.13930882 Z M0.104999113,3.13930882 L0.378967118,3.53915499 L0.307897618,3.61741996 L0.475975192,3.78862631 L0.398590745,3.90083828 L0.347052834,3.86559817 L0.445378436,4.03009478 L0.61112721,3.90271522 L0.822287014,4.25696306 L0.610545245,4.6273023 L0.487511234,4.51624992 L0.487511234,4.43627787 L0.364003235,4.62863062 L0.41634626,4.72036807 L0.372095976,4.85662266 L0.372095976,4.95532504 L0.030790773,5.39389857 L0,5.36345508 L0.331138006,4.93794629 L0.331138006,4.85253054 L0.332385985,4.84459566 L0.370887229,4.7260434 L0.34732357,4.68474525 L0.152039294,4.88000375 L0.528469204,4.29374755 L0.528469204,4.49407485 L0.600710095,4.55928058 L0.77325809,4.25749178 L0.60012813,3.96704391 L0.475180227,4.0630676 L0.525850045,4.16485943 L0.491006372,4.18905236 L0.208942467,3.71716554 L0.388642745,3.84003931 L0.420297963,3.7941374 L0.248097683,3.6187316 L0.324266864,3.53485063 L0.0725831959,3.16752763 L0.104999113,3.13930882 Z M0.104999113,0 L0.378967118,0.399846168 L0.307897618,0.478111137 L0.475975192,0.649317484 L0.398590745,0.761529457 L0.347052834,0.726289345 L0.445378436,0.890785954 L0.61112721,0.763406398 L0.822287014,1.11765424 L0.610545245,1.48799348 L0.487511234,1.3769411 L0.487511234,1.29696905 L0.364003235,1.4893218 L0.41634626,1.58105925 L0.372095976,1.71731384 L0.372095976,1.81601622 L0.030790773,2.25458975 L0,2.22414626 L0.331138006,1.79863746 L0.331138006,1.71322172 L0.332385985,1.70528684 L0.370887229,1.58673457 L0.34732357,1.54543642 L0.152039294,1.74069492 L0.528469204,1.15443873 L0.528469204,1.35476602 L0.600710095,1.41997175 L0.77325809,1.11818296 L0.60012813,0.827735092 L0.475180227,0.923758779 L0.525850045,1.02555061 L0.491006372,1.04974353 L0.208942467,0.577856713 L0.388642745,0.700730492 L0.420297963,0.654828574 L0.248097683,0.479422778 L0.324266864,0.395541808 L0.0725831959,0.0282188048 L0.104999113,0 Z M6.14500089,0 L6.1774168,0.0282188048 L5.92573314,0.395541808 L6.00190232,0.479422778 L5.82970204,0.654828574 L5.86135726,0.700730492 L6.04105753,0.577856713 L5.75899363,1.04974353 L5.72414996,1.02555061 L5.77481977,0.923758779 L5.64987187,0.827735092 L5.47674191,1.11818296 L5.64928991,1.41997175 L5.7215308,1.35476602 L5.7215308,1.15443873 L6.09796071,1.74069492 L5.90267643,1.54543642 L5.87911277,1.58673457 L5.91761401,1.70528684 L5.91886199,1.71322172 L5.91886199,1.79863746 L6.25,2.22414626 L6.21920923,2.25458975 L5.87790402,1.81601622 L5.87790402,1.71731384 L5.83365374,1.58105925 L5.88599677,1.4893218 L5.76248877,1.29696905 L5.76248877,1.3769411 L5.63945475,1.48799348 L5.42771299,1.11765424 L5.63887279,0.763406398 L5.80462156,0.890785954 L5.90294717,0.726289345 L5.85140925,0.761529457 L5.77402481,0.649317484 L5.94210238,0.478111137 L5.87103288,0.399846168 L6.14500089,0 Z" id="Combined-Shape" stroke="none" fill="#E8AA00" fill-rule="evenodd" mask="url(#mask-6)"></path>
                        <g id="Group-19" stroke="none" stroke-width="1" fill="none" fill-rule="evenodd" mask="url(#mask-6)">
                            <g transform="translate(1.500000, 10.125000)" id="Combined-Shape">
                                <path d="M1.58112849,0.0185286629 C1.58112849,0.0185286629 1.65916838,0.0878852207 1.81524817,0.226598336 L2.78761062,0.227864583 L2.787,0.455528663 L3.00884956,0.455729167 L3.008,0.637528663 L3.27433628,0.638020833 L3.27433628,1.23046875 L3.008,1.22952866 L3.00884956,1.41276042 L2.787,1.41252866 L2.78761062,1.59505208 L1.84080619,1.59662773 C1.66768772,1.75048367 1.58112849,1.82741164 1.58112849,1.82741164 C1.58112849,1.82741164 1.48337171,1.7409437 1.28785816,1.56800783 L1.318,1.59452866 L0.442477876,1.59505208 L0.442,1.41252866 L0.221238938,1.41276042 L0.221,1.22952866 L0,1.23046875 L0,0.638020833 L0.221,0.637528663 L0.221238938,0.455729167 L0.442,0.455528663 L0.442477876,0.227864583 L1.344,0.227528663 L1.36566457,0.209111055 C1.50930718,0.0820561269 1.58112849,0.0185286629 1.58112849,0.0185286629 Z" stroke="#E8AA00" stroke-width="0.5" fill="#389F5D"></path>
                                <path d="" stroke="none" fill="#C51918"></path>
                                <path d="" stroke="none" fill="#E8AA00"></path>
                                <path d="M1.73096473,1.27294433 L1.73056906,1.36348599 L1.82393348,1.36409016 L1.82393348,1.48909016 L1.73056906,1.48848599 L1.73096473,1.58023599 L1.4065378,1.58023599 L1.40556906,1.48848599 L1.31356906,1.48909016 L1.31356906,1.36409016 L1.40556906,1.36348599 L1.4065378,1.27294433 L1.73096473,1.27294433 Z M1.73096473,0.361485994 L1.73056906,0.452485994 L1.82393348,0.452631828 L1.82393348,0.577631828 L1.73056906,0.577485994 L1.73096473,0.668777661 L1.4065378,0.668777661 L1.40556906,0.577485994 L1.31356906,0.577631828 L1.31356906,0.452631828 L1.40556906,0.452485994 L1.4065378,0.361485994 L1.73096473,0.361485994 Z" stroke="none" fill="#AF0100"></path>
                                <path d="" stroke="none" fill="#AF0100"></path>
                                <path d="M1.0914128,0.817215161 L1.09110003,0.909215161 L1.17990837,0.910183909 L1.17990837,1.03768391 L1.09110003,1.03721516 L1.0914128,1.13065266 L0.782595605,1.13065266 L0.78210003,1.03721516 L0.69410003,1.03768391 L0.69410003,0.910183909 L0.78210003,0.909215161 L0.782595605,0.817215161 L1.0914128,0.817215161 Z M2.37459864,0.817215161 L2.37410003,0.909215161 L2.46309421,0.910183909 L2.46309421,1.03768391 L2.37410003,1.03721516 L2.37459864,1.13065266 L2.06578145,1.13065266 L2.06510003,1.03721516 L1.97728587,1.03768391 L1.97728587,0.910183909 L2.06510003,0.909215161 L2.06578145,0.817215161 L2.37459864,0.817215161 Z" stroke="none" fill="#E8AA00"></path>
                            </g>
                        </g>
                        <g id="Group-16" stroke="none" stroke-width="1" fill="none" fill-rule="evenodd" mask="url(#mask-6)">
                            <g transform="translate(1.500000, 12.000000)">
                                <g id="Group-13" stroke-width="1" fill="none" fill-rule="evenodd">
                                    <mask id="mask-8" fill="white">
                                        <use xlink:href="#path-7"></use>
                                    </mask>
                                    <g id="Path-353"></g>
                                    <polygon id="Rectangle-92" fill="#E8AA00" fill-rule="nonzero" mask="url(#mask-8)" points="0.0442477876 1.18489583 1.7699115 1.18489583 1.7699115 2.32421875 0.0442477876 2.32421875"></polygon>
                                    <g id="Group-18" mask="url(#mask-8)">
                                        <g transform="translate(-0.132743, 0.045573)">
                                            <rect id="Rectangle-93" fill="#F9E8E7" fill-rule="evenodd" x="0" y="0" width="1.90265487" height="1.13932292"></rect>
                                            <polygon id="Path-354" fill="#E8AA00" fill-rule="nonzero" points="0.442477876 0.663951104 1.01530094 0.319010417 1.01530094 0.663951104"></polygon>
                                        </g>
                                    </g>
                                    <g id="Group-18" mask="url(#mask-8)">
                                        <g transform="translate(2.721239, 0.615234) scale(-1, 1) translate(-2.721239, -0.615234) translate(1.769912, 0.045573)">
                                            <rect id="Rectangle-93" fill="#E8AA00" fill-rule="evenodd" x="0" y="0" width="1.90265487" height="1.13932292"></rect>
                                            <polygon id="Path-354" fill="#F9E8E7" fill-rule="nonzero" points="0.575221239 0.663951104 1.14804431 0.319010417 1.14804431 0.663951104"></polygon>
                                        </g>
                                    </g>
                                    <g id="Group-18" mask="url(#mask-8)">
                                        <g transform="translate(2.632743, 1.754557) scale(-1, -1) translate(-2.632743, -1.754557) translate(1.769912, 1.184896)">
                                            <rect id="Rectangle-93" fill="#F9E8E7" fill-rule="evenodd" x="0" y="0" width="1.72566372" height="1.13932292"></rect>
                                            <polygon id="Path-354" fill="#E8AA00" fill-rule="nonzero" points="0.442477876 0.663951104 1.01530094 0.319010417 1.01530094 0.663951104"></polygon>
                                        </g>
                                    </g>
                                    <polygon id="Path-354" fill="#FCFCFC" fill-rule="nonzero" mask="url(#mask-8)" transform="translate(0.582365, 1.764141) scale(1, -1) translate(-0.582365, -1.764141) " points="0.309734513 1.93999277 0.882557582 1.59505208 0.882557582 1.93999277"></polygon>
                                </g>
                                <polygon id="Rectangle-94" fill="#C51918" fill-rule="evenodd" points="1.15044248 0.729166667 1.4380531 0.729166667 1.72566372 0.638020833 2.01327434 0.729166667 2.30088496 0.729166667 2.30088496 1.59505208 2.01327434 1.59505208 1.72566372 1.73177083 1.4380531 1.59505208 1.15044248 1.59505208"></polygon>
                                <path d="" id="Combined-Shape" fill="#C9343F" fill-rule="nonzero"></path>
                                <path d="M1.68493822,0.792501863 L1.68493822,0.916415579 L1.64069043,0.916415579 L1.64069043,0.83807478 L1.50810833,0.83807478 L1.50767624,0.947501863 L1.73767624,1.14650186 L1.96767624,0.947501863 L1.96810399,0.83807478 L1.83552189,0.83807478 L1.83552189,0.916415579 L1.7912741,0.916415579 L1.7912741,0.792501863 L2.01235177,0.792501863 L2.01235177,0.934179978 L2.19453608,0.934179978 L2.19453608,1.1372343 L2.02513204,1.1372343 L2.02513204,1.09166138 L2.1502883,1.09166138 L2.1502883,0.979752895 L1.99967624,0.979501863 L1.77267624,1.17550186 L1.99967624,1.37050186 L2.1502883,1.37118136 L2.1502883,1.25927287 L2.02513204,1.25927287 L2.02513204,1.21369995 L2.19453608,1.21369995 L2.19453608,1.41675427 L2.01235177,1.41675427 L2.01235177,1.55843239 L1.7912741,1.55843239 L1.7912741,1.43451867 L1.83552189,1.43451867 L1.83552189,1.51285947 L1.96810399,1.51285947 L1.96767624,1.40250186 L1.73767624,1.20350186 L1.50767624,1.40250186 L1.50810833,1.51285947 L1.64069043,1.51285947 L1.64069043,1.43451867 L1.68493822,1.43451867 L1.68493822,1.55843239 L1.46386054,1.55843239 L1.46386054,1.41675427 L1.28167624,1.41675427 L1.28167624,1.21369995 L1.45108028,1.21369995 L1.45108028,1.25927287 L1.32592402,1.25927287 L1.32592402,1.37118136 L1.47567624,1.37050186 L1.70167624,1.17450186 L1.47567624,0.979501863 L1.32592402,0.979752895 L1.32592402,1.09166138 L1.45108028,1.09166138 L1.45108028,1.1372343 L1.28167624,1.1372343 L1.28167624,0.934179978 L1.46386054,0.934179978 L1.46386054,0.792501863 L1.68493822,0.792501863 Z" id="Combined-Shape" fill="#FFFFFF" fill-rule="nonzero"></path>
                            </g>
                        </g>
                        <g id="Group-14" stroke="none" stroke-width="1" fill="none" fill-rule="evenodd" mask="url(#mask-6)">
                            <g transform="translate(1.250000, 4.250000)" id="Combined-Shape">
                                <path d="M2.24025974,0 L2.24025974,2.5 L1.46103896,2.5 L1.46103896,0 L2.24025974,0 Z M0.974025974,0.528846154 L0.974025974,1.875 L0.487012987,1.875 L0.487012987,0.528846154 L0.974025974,0.528846154 Z M3.26298701,0.528846154 L3.26298701,1.875 L2.77597403,1.875 L2.77597403,0.528846154 L3.26298701,0.528846154 Z" fill="#E8AA00" fill-rule="nonzero"></path>
                                <path d="M1.46103896,0.192307692 L1.46103896,2.11538462 L0.974025974,2.11538462 L0.974025974,0.192307692 L1.46103896,0.192307692 Z M2.72727273,0.192307692 L2.72727273,2.11538462 L2.24025974,2.11538462 L2.24025974,0.192307692 L2.72727273,0.192307692 Z M0.487012987,0.721153846 L0.487012987,1.63461538 L0,1.63461538 L0,0.721153846 L0.487012987,0.721153846 Z M3.75,0.721153846 L3.75,1.63461538 L3.26298701,1.63461538 L3.26298701,0.721153846 L3.75,0.721153846 Z" fill="#389F5D" fill-rule="evenodd"></path>
                                <path d="" fill="#E1E5E8" fill-rule="evenodd"></path>
                                <path d="" fill="#C51918" fill-rule="evenodd"></path>
                                <path d="M2.24798386,0.566465994 L2.78780519,1.05746599 L3.50649351,1.05769231 L3.50649351,1.25 L2.80680519,1.24946599 L2.80773002,1.26003705 L2.24798386,1.82932766 L1.47818572,1.82932766 L1.00407817,1.31552273 L1.00380519,1.24946599 L0.194805195,1.25 L0.194805195,1.05769231 L1.00380519,1.05746599 L1.00407817,0.99464302 L1.47818572,0.566465994 L2.24798386,0.566465994 Z" fill="#C51918" fill-rule="evenodd"></path>
                                <path d="M2.12303418,0.551841015 L2.17536331,0.602160536 L2.14358798,0.632841015 L2.24758798,0.737841015 L2.3191219,0.6819507 L2.5162724,0.873261331 L2.21581631,1.15786987 L2.51434747,1.46041417 L2.33241184,1.65229034 L2.25525322,1.65229034 L2.10116095,1.74923153 L1.87058798,1.53584102 L1.63969943,1.74923153 L1.48560716,1.65229034 L1.40844854,1.65229034 L1.22651291,1.46041417 L1.52504407,1.15786987 L1.22458798,0.873261331 L1.42173848,0.6819507 L1.49258798,0.737841015 L1.59558798,0.632841015 L1.56549707,0.602160536 L1.6178262,0.551841015 L1.86958798,0.806841015 L2.12303418,0.551841015 Z M2.16310441,1.20780148 L1.92258798,1.43384102 L1.95078433,1.46120895 L1.92358798,1.48584102 L2.10974979,1.65831358 L2.23395456,1.58017495 L2.30072958,1.58017495 L2.41334522,1.46140626 L2.16310441,1.20780148 Z M1.57775597,1.20780148 L1.32751516,1.46140626 L1.4401308,1.58017495 L1.50690582,1.58017495 L1.63111059,1.65831358 L1.84464293,1.46061149 L1.57775597,1.20780148 Z M1.86989259,0.911737684 L1.86058798,0.919841015 L1.62873043,1.15614178 L1.87058798,1.38484102 L2.11212995,1.15614178 L1.88058798,0.920841015 L1.86989259,0.911737684 Z" fill="#E8AA00" fill-rule="nonzero"></path>
                            </g>
                        </g>
                        <path d="M4.96181308,14.3750191 C5.03472727,14.3803551 5.10310872,15.1523649 4.15534684,15.7397346 C4.12184715,15.7583621 4.09085972,15.7702989 4.06238456,15.775545 C4.23005853,15.778006 4.45041219,15.7489134 4.65044354,15.6898051 C4.27262181,15.841547 3.97151563,15.883798 3.74712501,15.8165579 C3.71448628,15.8024818 3.68006219,15.7914813 3.64384015,15.7832616 C3.53949208,15.7595821 3.43239421,15.7593604 3.29981294,15.7738827 L3.33133856,15.7703867 C3.38109992,15.793557 3.43899024,15.8200942 3.50636022,15.8474359 L3.50636022,15.875 C3.37321412,15.8209633 3.21708191,15.7955416 3.15151749,15.7878026 C3.08906284,15.7953239 2.93216145,15.8207314 2.79844391,15.875 L2.79844391,15.875 L2.79844391,15.8474359 C2.86581389,15.8200942 2.92370421,15.793557 2.97346557,15.7703867 L3.00499119,15.7738827 C2.87240992,15.7593604 2.76531205,15.7595821 2.66096398,15.7832616 C2.62474194,15.7914813 2.59031785,15.8024818 2.55767912,15.8165579 C2.3332885,15.883798 2.03218232,15.841547 1.65436059,15.6898051 C1.83269476,15.742502 2.02718167,15.7713416 2.18674471,15.7751988 C2.15773046,15.7697528 2.12739149,15.7579387 2.09465316,15.7397346 C1.14689128,15.1523649 1.21527273,14.3803551 1.28818692,14.3750191 C1.34577208,14.3708049 1.80256115,15.0649402 2.31603284,15.5475017 C2.37035311,15.6237964 2.37035311,15.6878741 2.31603284,15.7397346 C2.29674914,15.7581451 2.27501137,15.7700199 2.25081951,15.7753589 C2.34184419,15.7734218 2.41655001,15.7622631 2.46442048,15.741618 C2.50841379,15.7226449 2.55512418,15.7077183 2.60420472,15.6965806 C2.7414103,15.6654448 2.8751501,15.665168 3.03385778,15.6825521 C3.05011943,15.6843333 3.09517796,15.6896551 3.09649948,15.6898051 C3.11144433,15.6915015 3.12007322,15.6922362 3.12172071,15.6922362 L3.152,15.697 L3.18308342,15.6922362 C3.18390717,15.6922362 3.18647626,15.6920525 3.19070752,15.6916568 L3.20830465,15.6898051 C3.20962617,15.6896551 3.2546847,15.6843333 3.27094635,15.6825521 C3.42965403,15.665168 3.56339383,15.6654448 3.70059941,15.6965806 C3.74967995,15.7077183 3.79639034,15.7226449 3.84038365,15.741618 C3.87669918,15.7572798 3.9284586,15.7674821 3.99069635,15.7723343 L3.96889608,15.7646277 L3.96889608,15.7646277 L3.93396716,15.7397346 C3.87964689,15.6878741 3.87964689,15.6237964 3.93396716,15.5475017 C4.44743885,15.0649402 4.90422792,14.3708049 4.96181308,14.3750191 Z" id="Combined-Shape" stroke="none" fill="#E8AA00" fill-rule="nonzero" mask="url(#mask-6)"></path>
                        <g id="Group-15" stroke="none" stroke-width="1" fill="none" fill-rule="evenodd" mask="url(#mask-6)">
                            <g transform="translate(1.250000, 7.250000)">
                                <polygon id="Path-357" fill="#389F5D" fill-rule="evenodd" points="1.1024956 0.235873054 0.320039961 0.925411162 0.320039961 1.58214797 1.00408913 2.26951828 2.40082611 2.26951828 3.17092918 1.5360911 3.17092918 0.976976373 2.40082611 0.235873054"></polygon>
                                <path d="" id="Combined-Shape" fill="#C51918" fill-rule="evenodd"></path>
                                <path d="" id="Combined-Shape" fill="#E8AA00" fill-rule="nonzero"></path>
                                <path d="M0.571073996,0.151201872 L2.93359338,0.151201872 L2.93359338,0.516280725 L3.27187424,0.516280725 L3.27187424,2.02553675 L2.93359338,2.02553675 L2.93359338,2.33752227 L0.571073996,2.33752227 L0.571073996,2.02553675 L0.203740453,2.02553675 L0.203740453,0.516280725 L0.571073996,0.516280725 L0.571073996,0.151201872 Z M0.703817359,0.652999475 L0.336483816,0.652999475 L0.336483816,1.888818 L0.703817359,1.888818 L0.703817359,2.20080352 L2.80085002,2.20080352 L2.80085002,1.888818 L3.13913088,1.888818 L3.13913088,0.652999475 L2.80085002,0.652999475 L2.80085002,0.287920622 L0.703817359,0.287920622 L0.703817359,0.652999475 Z" id="Path-358" fill="#750100" fill-rule="evenodd"></path>
                                <path d="" id="Combined-Shape" fill="#389F5D" fill-rule="evenodd"></path>
                                <polygon id="Path-360" fill="#C51918" fill-rule="evenodd" points="1.11147819 0.427885679 0.72989887 0.75977312 0.72989887 1.83369193 1.04657641 2.05778153 2.41947265 2.05778153 2.7356877 1.83369193 2.7356877 0.75977312 2.37880498 0.427885679"></polygon>
                                <polygon id="Path-361" fill="#E1E5E8" fill-rule="evenodd" points="1.7520438 0.873034467 1.29161396 1.26643246 1.7520438 1.26643246"></polygon>
                                <polygon id="Path-361" fill="#E8AA00" fill-rule="nonzero" transform="translate(1.510752, 1.430460) scale(1, -1) translate(-1.510752, -1.430460) " points="1.7520438 1.2376178 1.29161396 1.63101579 1.7520438 1.63101579"></polygon>
                                <polygon id="Path-361" fill="#E8AA00" fill-rule="evenodd" transform="translate(1.953230, 1.065877) scale(-1, 1) translate(-1.953230, -1.065877) " points="2.19452167 0.873034467 1.73409183 1.26643246 2.19452167 1.26643246"></polygon>
                                <ellipse id="Oval-65" fill="#29AE66" fill-rule="evenodd" cx="1.72566372" cy="1.23046875" rx="1" ry="1"></ellipse>
                                <polygon id="Path-361" fill="#E1E5E8" fill-rule="nonzero" transform="translate(1.953230, 1.430460) scale(-1, -1) translate(-1.953230, -1.430460) " points="2.19452167 1.2376178 1.73409183 1.63101579 2.19452167 1.63101579"></polygon>
                                <path d="" id="Combined-Shape" fill="#C51918" fill-rule="evenodd"></path>
                                <path d="" id="Combined-Shape" fill="#E8AA00" fill-rule="nonzero"></path>
                            </g>
                        </g>
                        <g id="Group-17" stroke="none" stroke-width="1" fill="none" fill-rule="evenodd" mask="url(#mask-6)">
                            <g transform="translate(1.250000, 1.250000)" id="Combined-Shape">
                                <path d="M2.44035259,0.0773925244 C2.50783448,0.0773925244 2.63408759,0.14218305 2.81911193,0.271764103 L2.81911193,0.271764103 L3.28995682,0.271764103 L3.50732343,0.49382939 L3.50732343,0.716959179 L3.74061547,0.993962796 L3.7392708,1.24719806 L1.88948206,1.24639252 L1.88862145,2.39719806 L1.88862145,2.39719806 L1.30874493,2.39719806 C1.24126305,2.39719806 1.11500994,2.33240753 0.929985597,2.20282648 L0.929985597,2.20282648 L0.459140709,2.20282648 L0.241774096,1.98076119 L0.241774096,1.7576314 L0.00848206225,1.48062779 L0.00982673162,1.22739252 L1.85848206,1.22739252 L1.86047608,0.0773925244 L1.86047608,0.0773925244 Z" fill="#E8AA00" fill-rule="nonzero"></path>
                                <path d="M2.44035259,0.0773925244 C2.50783448,0.0773925244 2.63408759,0.14218305 2.81911193,0.271764103 L2.81911193,0.271764103 L3.28995682,0.271764103 L3.50732343,0.49382939 L3.50732343,0.716959179 L3.74061547,0.993962796 L3.7392708,1.24719806 L1.88948206,1.24639252 L1.88862145,2.39719806 L1.88862145,2.39719806 L1.30874493,2.39719806 C1.24126305,2.39719806 1.11500994,2.33240753 0.929985597,2.20282648 L0.929985597,2.20282648 L0.459140709,2.20282648 L0.241774096,1.98076119 L0.241774096,1.7576314 L0.00848206225,1.48062779 L0.00982673162,1.22739252 L1.85848206,1.22739252 L1.86047608,0.0773925244 L1.86047608,0.0773925244 Z" fill="#E1E5E8" fill-rule="evenodd" transform="translate(1.874549, 1.237295) scale(-1, 1) translate(-1.874549, -1.237295) "></path>
                                <path d="M2.09826705,1.99879874 C2.12810711,2.08339806 2.15524463,2.14144975 2.17642253,2.17056673 L2.17642253,2.17056673 L2.51376293,2.10088306 L2.53401376,2.19869182 L2.25554512,2.2617597 L2.24754512,2.2677597 L2.25433921,2.2874752 L2.19873256,2.32440595 L2.14854512,2.2867597 L2.13509971,2.29042445 C2.09678882,2.30892366 2.03593657,2.35478444 1.95451824,2.42719737 L1.88962922,2.48647296 L1.85754512,2.4497597 L1.82679478,2.48647296 C1.7430345,2.40814513 1.67606577,2.35186038 1.62739998,2.31823802 L1.62240259,2.32440595 L1.56679594,2.2874752 L1.18241025,2.19869182 L1.20266107,2.10088306 L1.54000147,2.17056673 C1.56117938,2.14144975 1.58831689,2.08339806 1.61815696,1.99879874 L1.71156812,2.02630157 L1.67454512,2.1997597 L1.69375801,2.20485464 C1.70091765,2.20713983 1.70824794,2.2095997 1.71574998,2.21223459 L1.7387724,2.22066462 C1.73072305,2.23015472 1.72267934,2.23916223 1.71463361,2.24769113 L1.85754512,2.3797597 L2.04267833,2.2074795 L2.00485589,2.02630157 Z M1.87549608,0.0427597045 L1.92854512,0.101759704 L1.93833052,0.0927597045 C2.05280291,0.199807739 2.1359124,0.265684198 2.18380101,0.288808215 L2.58271506,0.380540842 L2.56246423,0.4783496 L2.34054512,0.431759704 L2.36240527,0.451576033 C2.35480369,0.456130232 2.34686851,0.461726617 2.33861886,0.468355198 L2.31294561,0.491327539 L2.2195463,0.477574333 L2.22754512,0.445759704 L2.20454512,0.441759704 C2.18555397,0.479433773 2.16686172,0.524034371 2.14696835,0.580433918 L2.05355719,0.55293109 L2.09137963,0.371753157 L1.87954512,0.172759704 L1.73144549,0.311650059 C1.75015511,0.32852183 1.7687992,0.347941347 1.7874737,0.369958393 C1.77178047,0.375928854 1.75677859,0.381197999 1.74245931,0.385768366 L1.73554512,0.386759704 L1.76026942,0.50293109 L1.66685826,0.530433918 C1.65433915,0.4949411 1.64229573,0.464121037 1.63096851,0.438150003 L1.62415616,0.441327539 C1.6064372,0.423961573 1.58989966,0.41068443 1.5746965,0.401576033 L1.60054512,0.377759704 L1.58870277,0.358665935 L1.25136237,0.4283496 L1.23111154,0.330540842 L1.63002559,0.238808215 C1.67791421,0.215684198 1.76102369,0.149807739 1.87549608,0.0427597045 L1.87549608,0.0427597045 Z" fill="#C51918" fill-rule="evenodd"></path>
                                <path d="M1.93133635,0.428092153 L1.93054974,1.22809215 L3.29497271,1.22809215 L2.9700452,1.46211117 L2.9700452,1.76828789 L2.45577246,1.76828789 L1.9041861,2.06079339 L1.90354974,1.26009215 L0.540549737,1.26079339 L0.865477253,1.02677437 L0.865477253,0.720597652 L1.37975,0.720597652 L1.93133635,0.428092153 Z" fill="#C51918" fill-rule="evenodd"></path>
                                <path d="M1.93133635,0.428092153 L1.93054974,1.22809215 L3.29497271,1.22809215 L2.9700452,1.46211117 L2.9700452,1.76828789 L2.45577246,1.76828789 L1.9041861,2.06079339 L1.90354974,1.26009215 L0.540549737,1.26079339 L0.865477253,1.02677437 L0.865477253,0.720597652 L1.37975,0.720597652 L1.93133635,0.428092153 Z" fill="#29AE66" fill-rule="nonzero" transform="translate(1.917761, 1.244443) scale(-1, 1) translate(-1.917761, -1.244443) "></path>
                                <path d="M1.20180817,0.750565476 L1.43080303,0.872565476 L1.49384931,0.779175925 L1.65418553,0.89276703 L1.60480303,0.965565476 L2.28180303,1.32756548 L2.32433655,1.26645213 L2.48467277,1.38004324 L2.45580303,1.42056548 L2.52985949,1.46088375 L2.43985435,1.63825699 L2.34480303,1.58656548 L2.2682944,1.7019722 L2.10795819,1.5883811 L2.17080303,1.49356548 L1.49380303,1.13156548 L1.43780716,1.214696 L1.27747095,1.10110489 L1.31880303,1.03856548 L1.11180303,0.927938713 L1.20180817,0.750565476 Z" fill="#29AE66" fill-rule="nonzero"></path>
                                <path d="M1.25050947,0.750565476 L1.47950433,0.872565476 L1.54255061,0.779175925 L1.70288682,0.89276703 L1.65350433,0.965565476 L2.33050433,1.32756548 L2.37303785,1.26645213 L2.53337406,1.38004324 L2.50450433,1.42056548 L2.57856079,1.46088375 L2.48855565,1.63825699 L2.39350433,1.58656548 L2.3169957,1.7019722 L2.15665949,1.5883811 L2.21950433,1.49356548 L1.54250433,1.13156548 L1.48650846,1.214696 L1.32617225,1.10110489 L1.36750433,1.03856548 L1.16050433,0.927938713 L1.25050947,0.750565476 Z" fill="#C51918" fill-rule="evenodd" transform="translate(1.869533, 1.226269) scale(-1, 1) rotate(4.000000) translate(-1.869533, -1.226269) "></path>
                            </g>
                        </g>
                    </g>
                </g>
                <g id="mark-2" mask="url(#mask-4)" fill="#F7FCFF">
                    <g transform="translate(7.500000, 1.250000)">
                        <path d="M4.42085997,0 C5.39177506,2.30066659 5.4459277,3.93952475 4.58331791,4.91657446 C3.72070811,5.89362417 2.19293548,6.28796134 0,6.09958597 C2.81516663,7.37110961 4.83603025,7.13146874 6.06259084,5.38066336 C7.28915144,3.62985798 6.74190782,1.83630353 4.42085997,0 Z" id="Path-376"></path>
                        <path d="M1.85221626,3.66991037 L2.006353,4.11844843 L2.47571247,4.1281234 L2.10161474,4.41501013 L2.23755811,4.86952764 L1.85221626,4.59829534 L1.46687441,4.86952764 L1.60281777,4.41501013 L1.22872005,4.1281234 L1.69807952,4.11844843 L1.85221626,3.66991037 Z M0.680769967,2.45204308 L0.834906707,2.90058113 L1.30426618,2.9102561 L0.930168451,3.19714283 L1.06611182,3.65166035 L0.680769967,3.38042804 L0.295428117,3.65166035 L0.431371482,3.19714283 L0.057273756,2.9102561 L0.526633227,2.90058113 L0.680769967,2.45204308 Z M1.85221626,2.35524357 L2.006353,2.80378163 L2.47571247,2.8134566 L2.10161474,3.10034333 L2.23755811,3.55486084 L1.85221626,3.28362854 L1.46687441,3.55486084 L1.60281777,3.10034333 L1.22872005,2.8134566 L1.69807952,2.80378163 L1.85221626,2.35524357 Z M3.12571796,1.97219617 L3.2798547,2.42073423 L3.74921417,2.43040919 L3.37511644,2.71729592 L3.51105981,3.17181344 L3.12571796,2.90058113 L2.74037611,3.17181344 L2.87631947,2.71729592 L2.50222175,2.43040919 L2.97158122,2.42073423 L3.12571796,1.97219617 Z M1.77767447,1.10190984 L1.93181121,1.5504479 L2.40117068,1.56012286 L2.02707296,1.84700959 L2.16301632,2.30152711 L1.77767447,2.0302948 L1.39233262,2.30152711 L1.52827599,1.84700959 L1.15417826,1.56012286 L1.62353773,1.5504479 L1.77767447,1.10190984 Z" id="Combined-Shape"></path>
                    </g>
                </g>
            </g>
        </g>
    </g>
</svg>