<?xml version="1.0" encoding="UTF-8"?>
<svg width="20px" height="15px" viewBox="0 0 20 15" version="1.1" xmlns="http://www.w3.org/2000/svg" xmlns:xlink="http://www.w3.org/1999/xlink">
    <title>flags/M/TN - Tunisia</title>
    <defs>
        <rect id="path-1" x="0" y="0" width="20" height="15"></rect>
        <rect id="path-3" x="0" y="0" width="20" height="15"></rect>
    </defs>
    <g id="Symbols" stroke="none" stroke-width="1" fill="none" fill-rule="evenodd">
        <g id="flag">
            <mask id="mask-2" fill="white">
                <use xlink:href="#path-1"></use>
            </mask>
            <g id="mask"></g>
            <g id="contents" mask="url(#mask-2)">
                <mask id="mask-4" fill="white">
                    <use xlink:href="#path-3"></use>
                </mask>
                <use id="background" fill="#E31D1C" xlink:href="#path-3"></use>
                <circle id="Oval-59" fill="#F7FCFF" mask="url(#mask-4)" cx="10" cy="7.5" r="5"></circle>
                <path d="M10.9392077,3.89169884 L10.9111917,3.90009499 C10.6277289,3.98841939 8.28775487,4.79762537 8.24136839,7.45510505 C8.19198923,10.284035 10.8142785,11.0488852 10.8142785,11.0488852 C9.805918,11.477159 6.53911839,10.8104921 6.59818753,7.42642322 C6.65725667,4.0423543 9.85704248,3.45099863 10.9392077,3.89169884 Z M10.74758,5.58693457 L11.5573887,6.63617275 L12.7593775,6.25481643 L12.1267437,7.44089197 L13.128045,8.2873407 L11.7199577,8.16265904 L10.8470811,9.16962728 L10.8227353,7.8534182 L9.42633969,7.33778606 L10.7418866,6.88297674 L10.74758,5.58693457 Z" id="Combined-shape-1695" fill="#E31D1C" mask="url(#mask-4)" transform="translate(9.862721, 7.464335) rotate(-1.000000) translate(-9.862721, -7.464335) "></path>
            </g>
        </g>
    </g>
</svg>