<?xml version="1.0" encoding="UTF-8"?>
<svg width="20px" height="15px" viewBox="0 0 20 15" version="1.1" xmlns="http://www.w3.org/2000/svg" xmlns:xlink="http://www.w3.org/1999/xlink">
    <title>flags/M/TR - Turkey</title>
    <defs>
        <rect id="path-1" x="0" y="0" width="20" height="15"></rect>
        <rect id="path-3" x="0" y="0" width="20" height="15"></rect>
    </defs>
    <g id="Symbols" stroke="none" stroke-width="1" fill="none" fill-rule="evenodd">
        <g id="flag">
            <mask id="mask-2" fill="white">
                <use xlink:href="#path-1"></use>
            </mask>
            <g id="mask"></g>
            <g id="contents" mask="url(#mask-2)">
                <mask id="mask-4" fill="white">
                    <use xlink:href="#path-3"></use>
                </mask>
                <use id="background" fill="#E31D1C" xlink:href="#path-3"></use>
                <path d="M9.92039389,2.54100435 C11.0783734,2.55927686 12.4790192,3.25817409 12.8687972,4.22500485 L12.8404297,4.20878354 C12.6443585,4.09952463 11.4583107,3.48422716 10.109624,3.78187752 C8.63249096,4.10787553 7.67929846,5.39072021 7.64108511,6.92741599 C7.6002624,8.5690436 8.62875854,9.70737202 9.96112476,10.0603755 C11.0038462,10.3366391 12.1027533,9.93168674 12.5312611,9.74256456 L12.6482707,9.68874806 C12.693364,9.66706718 12.7175926,9.65415024 12.7175926,9.65415024 C12.5368411,10.1602587 11.6862254,11.3425566 9.93690092,11.3149528 C7.75478551,11.2805198 5.30130711,9.65886368 5.37021631,6.88777783 C5.43668345,4.21489566 7.76489416,2.50699132 9.92039389,2.54100435 Z M13.0469228,5.0915515 L14.0190077,6.21093121 L15.4141192,5.76835208 L14.5415497,6.94317766 L15.8195684,8.08112287 L14.184339,7.93357032 L13.1723749,9.10584372 L13.2257004,7.52066663 L11.7306947,6.9637441 L13.0724605,6.49729742 L13.0469228,5.0915515 Z" id="Combined-shape-1695" fill="#F7FCFF" mask="url(#mask-4)" transform="translate(10.594183, 6.927967) rotate(-1.000000) translate(-10.594183, -6.927967) "></path>
            </g>
        </g>
    </g>
</svg>