<?xml version="1.0" encoding="UTF-8"?>
<svg width="20px" height="15px" viewBox="0 0 20 15" version="1.1" xmlns="http://www.w3.org/2000/svg" xmlns:xlink="http://www.w3.org/1999/xlink">
    <title>flags/M/TV - Tuvalu</title>
    <defs>
        <rect id="path-1" x="0" y="0" width="20" height="15"></rect>
        <rect id="path-3" x="0" y="0" width="20" height="15"></rect>
        <rect id="path-5" x="0" y="0" width="11" height="9"></rect>
    </defs>
    <g id="Symbols" stroke="none" stroke-width="1" fill="none" fill-rule="evenodd">
        <g id="flag">
            <mask id="mask-2" fill="white">
                <use xlink:href="#path-1"></use>
            </mask>
            <g id="mask"></g>
            <g id="contents" mask="url(#mask-2)">
                <mask id="mask-4" fill="white">
                    <use xlink:href="#path-3"></use>
                </mask>
                <use id="background" fill="#00B4FF" xlink:href="#path-3"></use>
                <g id="gb---medium" mask="url(#mask-4)">
                    <g id="flag">
                        <mask id="mask-6" fill="white">
                            <use xlink:href="#path-5"></use>
                        </mask>
                        <use id="mask" fill="#2E42A5" xlink:href="#path-5"></use>
                        <g id="contents" mask="url(#mask-6)">
                            <g transform="translate(-2.500000, -1.250000)">
                                <g id="stripe" transform="translate(1.000000, 0.000000)">
                                    <polygon id="white" fill="#F7FCFF" fill-rule="nonzero" transform="translate(7.179664, 5.457378) scale(1, -1) translate(-7.179664, -5.457378) " points="0.247333589 1.53986811 2.72292762 0.454117833 12.8061752 8.48429142 14.1119945 10.0977486 11.4647029 10.4606384 7.35198716 7.00020684 4.04167375 4.66868453"></polygon>
                                    <polygon id="red" fill="#F50100" fill-rule="nonzero" transform="translate(7.114665, 5.716384) scale(1, -1) translate(-7.114665, -5.716384) " points="0.586246133 1.29717712 1.84744698 0.66709794 13.6430838 10.7656701 11.8722111 10.7656701"></polygon>
                                </g>
                                <g id="stripe" transform="translate(7.750000, 5.500000) scale(-1, 1) translate(-7.750000, -5.500000) translate(0.250000, 0.000000)">
                                    <polygon id="white" fill="#F7FCFF" fill-rule="nonzero" transform="translate(7.179664, 5.612355) scale(1, -1) translate(-7.179664, -5.612355) " points="0.247333589 1.84982105 2.4444201 0.454117833 12.8061752 8.79424437 14.1119945 10.4077016 11.4647029 10.7705913 7.35198716 7.31015978 4.04167375 4.97863747"></polygon>
                                    <polygon id="red" fill="#F50100" fill-rule="nonzero" transform="translate(7.284723, 5.686725) scale(1, -1) translate(-7.284723, -5.686725) " points="0.331803828 1.45261194 1.59300468 0.822532761 6.61570908 5.14625614 8.10483314 5.62933537 14.237643 10.5509178 12.4667702 10.5509178 6.33740601 5.74615285 4.70931125 5.16688909"></polygon>
                                </g>
                                <g id="cross" transform="translate(2.500000, 1.250000)">
                                    <path d="M6.46875,-0.46875 L6.46875,3.53125 L11.46875,3.53125 L11.46875,5.46875 L6.46875,5.46875 L6.46875,9.46875 L4.53125,9.46875 L4.53125,5.46875 L-0.46875,5.46875 L-0.46875,3.53125 L4.53125,3.53125 L4.53125,-0.46875 L6.46875,-0.46875 Z" id="red" stroke="#F7FCFF" stroke-width="0.9375" fill="#F50100"></path>
                                </g>
                            </g>
                        </g>
                    </g>
                </g>
                <g id="mark-2" mask="url(#mask-4)" fill="#FFD018">
                    <g transform="translate(6.250000, 3.750000)" id="Combined-Shape">
                        <path d="M3.81691058,8.3426283 L4.51943842,8.76866239 L5.07513345,8.43476714 L4.85289155,9.16139281 L5.49750707,9.69976037 L4.66494451,9.7246331 L4.28544758,10.4280392 L4.07257758,9.63025275 L3.2554955,9.52811592 L3.88492435,9.14991691 L3.81691058,8.3426283 Z M1.84371898,8.2133776 L2.22647909,8.94038868 L2.87477147,8.94038868 L2.3100331,9.44876541 L2.58529665,10.242238 L1.85884085,9.83475668 L1.17126757,10.242238 L1.39969275,9.44876541 L0.751921069,8.94038868 L1.48623379,8.94038868 L1.84371898,8.2133776 Z M6.31691058,7.0926283 L7.01943842,7.51866239 L7.57513345,7.18476714 L7.35289155,7.91139281 L7.99750707,8.44976037 L7.16494451,8.4746331 L6.78544758,9.17803919 L6.57257758,8.38025275 L5.7554955,8.27811592 L6.38492435,7.89991691 L6.31691058,7.0926283 Z M3.81691058,5.8426283 L4.51943842,6.26866239 L5.07513345,5.93476714 L4.85289155,6.66139281 L5.49750707,7.19976037 L4.66494451,7.2246331 L4.28544758,7.92803919 L4.07257758,7.13025275 L3.2554955,7.02811592 L3.88492435,6.64991691 L3.81691058,5.8426283 Z M8.81691058,5.8426283 L9.51943842,6.26866239 L10.0751334,5.93476714 L9.85289155,6.66139281 L10.4975071,7.19976037 L9.66494451,7.2246331 L9.28544758,7.92803919 L9.07257758,7.13025275 L8.2554955,7.02811592 L8.88492435,6.64991691 L8.81691058,5.8426283 Z M10.0669106,4.5926283 L10.7694384,5.01866239 L11.3251334,4.68476714 L11.1028916,5.41139281 L11.7475071,5.94976037 L10.9149445,5.9746331 L10.5354476,6.67803919 L10.3225776,5.88025275 L9.5054955,5.77811592 L10.1349244,5.39991691 L10.0669106,4.5926283 Z M6.31691058,3.3426283 L7.01943842,3.76866239 L7.57513345,3.43476714 L7.35289155,4.16139281 L7.99750707,4.69976037 L7.16494451,4.7246331 L6.78544758,5.42803919 L6.57257758,4.63025275 L5.7554955,4.52811592 L6.38492435,4.14991691 L6.31691058,3.3426283 Z M7.56691058,2.0926283 L8.26943842,2.51866239 L8.82513345,2.18476714 L8.60289155,2.91139281 L9.24750707,3.44976037 L8.41494451,3.4746331 L8.03544758,4.17803919 L7.82257758,3.38025275 L7.0054955,3.27811592 L7.63492435,2.89991691 L7.56691058,2.0926283 Z M10.0669106,0.842628299 L10.7694384,1.26866239 L11.3251334,0.934767137 L11.1028916,1.66139281 L11.7475071,2.19976037 L10.9149445,2.2246331 L10.5354476,2.92803919 L10.3225776,2.13025275 L9.5054955,2.02811592 L10.1349244,1.64991691 L10.0669106,0.842628299 Z"></path>
                    </g>
                </g>
            </g>
        </g>
    </g>
</svg>