<?xml version="1.0" encoding="UTF-8"?>
<svg width="20px" height="15px" viewBox="0 0 20 15" version="1.1" xmlns="http://www.w3.org/2000/svg" xmlns:xlink="http://www.w3.org/1999/xlink">
    <title>flags/M/TW - Taiwan</title>
    <defs>
        <rect id="path-1" x="0" y="0" width="20" height="15"></rect>
        <rect id="path-3" x="0" y="0" width="20" height="15"></rect>
    </defs>
    <g id="Symbols" stroke="none" stroke-width="1" fill="none" fill-rule="evenodd">
        <g id="flag">
            <mask id="mask-2" fill="white">
                <use xlink:href="#path-1"></use>
            </mask>
            <g id="mask"></g>
            <g id="contents" mask="url(#mask-2)">
                <mask id="mask-4" fill="white">
                    <use xlink:href="#path-3"></use>
                </mask>
                <use id="background" fill="#EF0000" xlink:href="#path-3"></use>
                <g id="mark" mask="url(#mask-4)">
                    <rect id="top" fill="#2E42A5" x="0" y="0" width="11.25" height="8.75"></rect>
                    <path d="M6.38205539,1 L6.60636759,2.46355441 L7.98599898,1.92603727 L7.44848184,3.30566866 L8.91203625,3.52998086 L7.75671705,4.45601813 L8.91203625,5.38205539 L7.44848184,5.60636759 L7.98599898,6.98599898 L6.60636759,6.44848184 L6.38205539,7.91203625 L5.45601812,6.75671705 L4.52998086,7.91203625 L4.30566866,6.44848184 L2.92603727,6.98599898 L3.46355441,5.60636759 L2,5.38205539 L3.1553192,4.45601813 L2,3.52998086 L3.46355441,3.30566866 L2.92603727,1.92603727 L4.30566866,2.46355441 L4.52998086,1 L5.45601812,2.1553192 L6.38205539,1 Z M5.45601812,2.6670515 C4.46799914,2.6670515 3.6670515,3.46799914 3.6670515,4.45601813 C3.6670515,5.44403711 4.46799914,6.24498475 5.45601812,6.24498475 C6.44403711,6.24498475 7.24498475,5.44403711 7.24498475,4.45601813 C7.24498475,3.46799914 6.44403711,2.6670515 5.45601812,2.6670515 Z M5.45601812,3.02484483 C6.24643331,3.02484483 6.88719142,3.66560294 6.88719142,4.45601813 C6.88719142,5.24643331 6.24643331,5.88719142 5.45601812,5.88719142 C4.66560294,5.88719142 4.02484483,5.24643331 4.02484483,4.45601813 C4.02484483,3.66560294 4.66560294,3.02484483 5.45601812,3.02484483 Z" id="Star-19" fill="#FEFFFF"></path>
                </g>
            </g>
        </g>
    </g>
</svg>