<?xml version="1.0" encoding="UTF-8"?>
<svg width="20px" height="15px" viewBox="0 0 20 15" version="1.1" xmlns="http://www.w3.org/2000/svg" xmlns:xlink="http://www.w3.org/1999/xlink">
    <title>flags/M/UG - Uganda</title>
    <defs>
        <rect id="path-1" x="0" y="0" width="20" height="15"></rect>
        <rect id="path-3" x="0" y="0" width="20" height="15"></rect>
    </defs>
    <g id="Symbols" stroke="none" stroke-width="1" fill="none" fill-rule="evenodd">
        <g id="flag">
            <mask id="mask-2" fill="white">
                <use xlink:href="#path-1"></use>
            </mask>
            <g id="mask"></g>
            <g id="contents" mask="url(#mask-2)">
                <mask id="mask-4" fill="white">
                    <use xlink:href="#path-3"></use>
                </mask>
                <use id="background" fill="#FECA00" xlink:href="#path-3"></use>
                <rect id="Rectangle-85" fill="#272727" mask="url(#mask-4)" x="0" y="0" width="20" height="2.5"></rect>
                <rect id="Rectangle-85" fill="#D74800" mask="url(#mask-4)" x="0" y="5" width="20" height="2.5"></rect>
                <rect id="Rectangle-85" fill="#272727" mask="url(#mask-4)" x="0" y="7.5" width="20" height="2.5"></rect>
                <rect id="Rectangle-85" fill="#D74800" mask="url(#mask-4)" x="0" y="12.5" width="20" height="2.5"></rect>
                <circle id="Oval-15" fill="#F7FCFF" mask="url(#mask-4)" cx="10" cy="7.5" r="3.75"></circle>
                <g id="mark" mask="url(#mask-4)">
                    <g transform="translate(7.500000, 2.500000)">
                        <path d="M1.5140959,2.27630621 C1.79721062,2.27630621 2.02413188,2.41933703 2.19485966,2.70539867 C1.8207696,2.97650581 1.63372457,3.22289467 1.63372457,3.44456524 C1.63372457,3.77707109 1.44125498,4.23659182 2.19485966,4.53363361 C2.94846434,4.83067539 4.15842331,4.83067539 4.31388109,5.37000868 C4.46933887,5.90934197 4.02184978,6.10851756 3.40873819,6.10851756 C2.7956266,6.10851756 2.29683211,5.85100491 2.54622935,6.10851756 C2.7956266,6.36603022 3.43398141,6.97664763 2.99010538,6.97664763 C2.84183819,6.97664763 2.28428029,6.53225623 2.2628292,6.90500925 C2.24926218,7.14076163 2.51520491,7.78884253 2.2628292,8.03931725 C2.20280558,8.09888875 3.01164003,8.2208921 2.94846434,8.27542558 C2.78692764,8.41486464 2.47354206,8.27542558 2.05049944,8.27542558 C1.99687476,8.27542558 1.28533334,8.70550686 1.2131332,8.7021221 C1.14385038,8.69883469 1.69571763,8.28139479 1.63372457,8.27542558 C1.27122418,8.24052101 0.853206818,8.310774 0.837315955,8.27542558 C0.809409941,8.21335007 1.75517267,8.29271968 1.95620381,8.03931725 C2.27314489,7.6398088 1.90806522,6.86648019 1.8685497,6.86281783 C1.36784778,6.81641203 0.879999084,6.80747763 0.763499128,6.97664763 C0.542187377,7.2980152 0.0694068974,7.62079077 0.0694068974,7.45940299 C0.0694068974,7.2980152 -0.186060281,6.80152228 0.948198574,6.80152228 C1.70437114,6.80152228 2.01618594,6.76036034 1.88364298,6.67803646 L1.88364298,6.25635806 C0.741756557,5.98807607 0.170813348,5.55808918 0.170813348,4.96639738 C0.170813348,4.07885968 0.942844256,3.64868054 1.04974605,3.44456524 C1.12101391,3.30848837 1.12101391,3.15329317 1.04974605,2.97897965 L0.388512461,2.9223671 L1.04974605,2.70539867 C1.07619789,2.41933703 1.23098117,2.27630621 1.5140959,2.27630621 Z M2.20486778,6.29669678 L2.20486778,6.6103013 C2.50230323,6.68959987 2.62036617,6.6557158 2.55905662,6.50864906 C2.49774706,6.36158233 2.37968412,6.29093157 2.20486778,6.29669678 Z" id="Combined-Shape" fill="#272727"></path>
                        <polygon id="Path-339" fill="#D74800" points="0.673076923 1.6945339 1.30655463 2.44574653 1.63461538 2.36858495 1.47728412 1.61024306"></polygon>
                        <polygon id="Path-339" fill="#FFD018" transform="translate(1.887772, 2.012025) rotate(80.000000) translate(-1.887772, -2.012025) " points="1.32810236 2.31167445 2.44744164 2.46758282 2.41029362 1.91176577 1.72183485 1.55646735"></polygon>
                        <ellipse id="Oval-60" fill="#D74800" cx="1.05769231" cy="3.20529514" rx="1" ry="1"></ellipse>
                        <polygon id="Path-339" fill="#D74800" transform="translate(2.115385, 2.255859) rotate(80.000000) translate(-2.115385, -2.255859) " points="1.63461538 1.92239849 2.26809309 2.67361111 2.59615385 2.59644954 2.43882259 1.83810764"></polygon>
                        <path d="M3.82416157,7.43318635 C4.56267986,7.10327774 4.93193901,6.70763546 4.93193901,6.2462595 C4.93193901,5.78488355 4.33235256,5.30291279 3.13317966,4.80034722 C2.42779841,4.96178828 2.23407888,5.15053071 2.55202104,5.36657454 C3.02893429,5.69064027 3.66789258,5.81513932 3.66789258,6.2462595 C3.66789258,6.67737969 3.84294061,7.08847624 3.48806013,7.08847624 C3.25147315,7.08847624 3.36350696,7.20337961 3.82416157,7.43318635 Z" id="Path-338" fill="#D74800"></path>
                        <path d="M2.22594129,4.67384146 C1.96474587,4.71972271 1.84034933,4.76387672 1.85275168,4.80630349 C1.90417734,4.98222373 2.43989281,5.21135775 2.67337239,5.37000868 C3.15028564,5.69407441 3.60244717,5.65767278 3.93882816,5.44677469 C4.16308215,5.30617597 3.59211986,5.04853156 2.22594129,4.67384146 Z" id="Path-338" fill="#FFFDFF"></path>
                    </g>
                </g>
            </g>
        </g>
    </g>
</svg>