<?xml version="1.0" encoding="UTF-8"?>
<svg width="20px" height="15px" viewBox="0 0 20 15" version="1.1" xmlns="http://www.w3.org/2000/svg" xmlns:xlink="http://www.w3.org/1999/xlink">
    <title>flags/M/US - United States</title>
    <defs>
        <rect id="path-1" x="0" y="0" width="20" height="15"></rect>
    </defs>
    <g id="Symbols" stroke="none" stroke-width="1" fill="none" fill-rule="evenodd">
        <g id="flag">
            <mask id="mask-2" fill="white">
                <use xlink:href="#path-1"></use>
            </mask>
            <g id="mask"></g>
            <polygon id="middle" fill="#E31D1C" mask="url(#mask-2)" points="0 0 20 0 20 15 0 15"></polygon>
            <path d="M20,13.75 L20,15 L0,15 L0,13.75 L20,13.75 Z M20,11.25 L20,12.5 L0,12.5 L0,11.25 L20,11.25 Z M20,8.75 L20,10 L0,10 L0,8.75 L20,8.75 Z M20,6.25 L20,7.5 L0,7.5 L0,6.25 L20,6.25 Z M20,3.75 L20,5 L0,5 L0,3.75 L20,3.75 Z M20,1.25 L20,2.5 L0,2.5 L0,1.25 L20,1.25 Z" id="Combined-Shape" fill="#F7FCFF" mask="url(#mask-2)"></path>
            <rect id="Rectangle-82" fill="#2E42A5" mask="url(#mask-2)" x="0" y="0" width="11.25" height="8.75"></rect>
            <path d="M9.46149411,0.705604621 L9.76370397,1.37572483 L10.4187829,1.37572483 L9.90407208,1.89609685 L10.1033376,2.71722291 L9.46241986,2.25580914 L8.93031786,2.62560462 L9.16878286,2.62572483 L8.65407208,3.14609685 L8.83131786,3.87560462 L9.20376363,3.87572483 L9.46149411,3.20560462 L9.76370397,3.87572483 L10.4187829,3.87572483 L9.90407208,4.39609685 L10.1033376,5.21722291 L9.46241986,4.75580914 L8.93031786,5.12560462 L9.16878286,5.12572483 L8.65407208,5.64609685 L8.83131786,6.37560462 L9.20376363,6.37572483 L9.46149411,5.70560462 L9.76370397,6.37572483 L10.4187829,6.37572483 L9.90407208,6.89609685 L10.1033376,7.71722291 L9.46241986,7.25580914 L8.8000194,7.71722291 L9.02365312,6.89609685 L8.43531786,6.37572483 L8.72631786,6.37560462 L8.21241986,6.00580914 L7.68031786,6.37560462 L7.91878286,6.37572483 L7.40407208,6.89609685 L7.6033376,7.71722291 L6.96241986,7.25580914 L6.3000194,7.71722291 L6.52365312,6.89609685 L5.93531786,6.37572483 L6.22631786,6.37560462 L5.71241986,6.00580914 L5.18031786,6.37560462 L5.41878286,6.37572483 L4.90407208,6.89609685 L5.1033376,7.71722291 L4.46241986,7.25580914 L3.8000194,7.71722291 L4.02365312,6.89609685 L3.43531786,6.37572483 L3.72631786,6.37560462 L3.21241986,6.00580914 L2.68031786,6.37560462 L2.91878286,6.37572483 L2.40407208,6.89609685 L2.6033376,7.71722291 L1.96241986,7.25580914 L1.3000194,7.71722291 L1.52365312,6.89609685 L0.935317862,6.37572483 L1.70376363,6.37572483 L1.96149411,5.70560462 L2.26370397,6.37572483 L2.57431786,6.37560462 L2.77365312,5.64609685 L2.18531786,5.12572483 L2.47631786,5.12560462 L1.96241986,4.75580914 L1.3000194,5.21722291 L1.52365312,4.39609685 L0.935317862,3.87572483 L1.70376363,3.87572483 L1.96149411,3.20560462 L2.26370397,3.87572483 L2.57431786,3.87560462 L2.77365312,3.14609685 L2.18531786,2.62572483 L2.47631786,2.62560462 L1.96241986,2.25580914 L1.3000194,2.71722291 L1.52365312,1.89609685 L0.935317862,1.37572483 L1.70376363,1.37572483 L1.96149411,0.705604621 L2.26370397,1.37572483 L2.91878286,1.37572483 L2.40407208,1.89609685 L2.58131786,2.62560462 L2.95376363,2.62572483 L3.21149411,1.95560462 L3.51370397,2.62572483 L3.82431786,2.62560462 L4.02365312,1.89609685 L3.43531786,1.37572483 L4.20376363,1.37572483 L4.46149411,0.705604621 L4.76370397,1.37572483 L5.41878286,1.37572483 L4.90407208,1.89609685 L5.08131786,2.62560462 L5.45376363,2.62572483 L5.71149411,1.95560462 L6.01370397,2.62572483 L6.32431786,2.62560462 L6.52365312,1.89609685 L5.93531786,1.37572483 L6.70376363,1.37572483 L6.96149411,0.705604621 L7.26370397,1.37572483 L7.91878286,1.37572483 L7.40407208,1.89609685 L7.58131786,2.62560462 L7.95376363,2.62572483 L8.21149411,1.95560462 L8.51370397,2.62572483 L8.82431786,2.62560462 L9.02365312,1.89609685 L8.43531786,1.37572483 L9.20376363,1.37572483 L9.46149411,0.705604621 Z M7.47631786,5.12560462 L6.96241986,4.75580914 L6.43031786,5.12560462 L6.66878286,5.12572483 L6.15407208,5.64609685 L6.33131786,6.37560462 L6.70376363,6.37572483 L6.96149411,5.70560462 L7.26370397,6.37572483 L7.57431786,6.37560462 L7.77365312,5.64609685 L7.18531786,5.12572483 L7.47631786,5.12560462 Z M4.46241986,4.75580914 L3.93031786,5.12560462 L4.16878286,5.12572483 L3.65407208,5.64609685 L3.83131786,6.37560462 L4.20376363,6.37572483 L4.46149411,5.70560462 L4.76370397,6.37572483 L5.07431786,6.37560462 L5.27365312,5.64609685 L4.68531786,5.12572483 L4.97631786,5.12560462 L4.46241986,4.75580914 Z M8.72631786,3.87560462 L8.21241986,3.50580914 L7.68031786,3.87560462 L7.91878286,3.87572483 L7.40407208,4.39609685 L7.58131786,5.12560462 L7.95376363,5.12572483 L8.21149411,4.45560462 L8.51370397,5.12572483 L8.82431786,5.12560462 L9.02365312,4.39609685 L8.43531786,3.87572483 L8.72631786,3.87560462 Z M3.21241986,3.50580914 L2.68031786,3.87560462 L2.91878286,3.87572483 L2.40407208,4.39609685 L2.58131786,5.12560462 L2.95376363,5.12572483 L3.21149411,4.45560462 L3.51370397,5.12572483 L3.82431786,5.12560462 L4.02365312,4.39609685 L3.43531786,3.87572483 L3.72631786,3.87560462 L3.21241986,3.50580914 Z M5.71241986,3.50580914 L5.18031786,3.87560462 L5.41878286,3.87572483 L4.90407208,4.39609685 L5.08131786,5.12560462 L5.45376363,5.12572483 L5.71149411,4.45560462 L6.01370397,5.12572483 L6.32431786,5.12560462 L6.52365312,4.39609685 L5.93531786,3.87572483 L6.22631786,3.87560462 L5.71241986,3.50580914 Z M6.96241986,2.25580914 L6.43031786,2.62560462 L6.66878286,2.62572483 L6.15407208,3.14609685 L6.33131786,3.87560462 L6.70376363,3.87572483 L6.96149411,3.20560462 L7.26370397,3.87572483 L7.57431786,3.87560462 L7.77365312,3.14609685 L7.18531786,2.62572483 L7.47631786,2.62560462 L6.96241986,2.25580914 Z M4.46241986,2.25580914 L3.93031786,2.62560462 L4.16878286,2.62572483 L3.65407208,3.14609685 L3.83131786,3.87560462 L4.20376363,3.87572483 L4.46149411,3.20560462 L4.76370397,3.87572483 L5.07431786,3.87560462 L5.27365312,3.14609685 L4.68531786,2.62572483 L4.97631786,2.62560462 L4.46241986,2.25580914 Z" id="Combined-Shape" fill="#F7FCFF" mask="url(#mask-2)"></path>
        </g>
    </g>
</svg>