<?xml version="1.0" encoding="UTF-8"?>
<svg width="20px" height="15px" viewBox="0 0 20 15" version="1.1" xmlns="http://www.w3.org/2000/svg" xmlns:xlink="http://www.w3.org/1999/xlink">
    <title>flags/M/VA - Vatican City State</title>
    <defs>
        <rect id="path-1" x="0" y="0" width="20" height="15"></rect>
    </defs>
    <g id="Symbols" stroke="none" stroke-width="1" fill="none" fill-rule="evenodd">
        <g id="flag">
            <mask id="mask-2" fill="white">
                <use xlink:href="#path-1"></use>
            </mask>
            <g id="mask"></g>
            <g id="contents" mask="url(#mask-2)">
                <rect id="base" fill="#F7FCFF" x="0" y="0" width="20" height="15"></rect>
                <rect id="left" fill="#FFDC17" x="0" y="0" width="8.75" height="15"></rect>
                <g id="mark" transform="translate(7.500000, 1.250000)">
                    <path d="M8.22596192,6.71946707 L8.44169011,6.73352167 C8.39016478,7.47462848 8.23094945,8.04710962 7.96075229,8.45111012 C7.52501044,9.1026341 6.94996418,9.60637718 6.56517455,9.60637718 C6.4777748,9.60637718 6.45744832,9.63883756 6.48627183,9.71896733 C6.52725598,9.83290386 6.65688279,9.94496468 6.82364835,9.98796989 C7.10101481,10.0594967 7.73182384,10.0965207 8.70537725,10.0965207 L8.70537725,10.305823 C7.71233907,10.305823 7.07010943,10.2681287 6.76799016,10.1902187 C6.53335429,10.1297112 6.34717658,9.96876283 6.28208051,9.7877948 C6.20679913,9.57851147 6.32041358,9.39707485 6.56517455,9.39707485 C6.85095688,9.39707485 7.38112611,8.93264426 7.77925334,8.3373619 C8.02669883,7.96737984 8.17669896,7.42803322 8.22596192,6.71946707 Z" id="Path-286" fill="#AF0100" fill-rule="nonzero" transform="translate(7.482238, 8.512645) scale(-1, 1) translate(-7.482238, -8.512645) "></path>
                    <path d="M5.71686222,6.71946707 L5.93259041,6.73352167 C5.88106508,7.47462848 5.72184975,8.04710962 5.4516526,8.45111012 C5.01591074,9.1026341 4.44086448,9.60637718 4.05607485,9.60637718 C3.9686751,9.60637718 3.94834862,9.63883756 3.97717213,9.71896733 C4.01815628,9.83290386 4.1477831,9.94496468 4.31454866,9.98796989 C4.59191512,10.0594967 5.22272415,10.0965207 6.19627756,10.0965207 L6.19627756,10.305823 C5.20323937,10.305823 4.56100974,10.2681287 4.25889046,10.1902187 C4.0242546,10.1297112 3.83807689,9.96876283 3.77298081,9.7877948 C3.69769943,9.57851147 3.81131388,9.39707485 4.05607485,9.39707485 C4.34185719,9.39707485 4.87202641,8.93264426 5.27015364,8.3373619 C5.51759913,7.96737984 5.66759927,7.42803322 5.71686222,6.71946707 Z" id="Path-286" fill="#AF0100" fill-rule="nonzero"></path>
                    <g id="left" transform="translate(1.952703, 1.837209)">
                        <path d="M8.08906954,1.16162521 L8.5370715,1.7101919 L7.97202703,2.18962521 L8.0980334,2.32039438 L8.02302703,2.38762521 L8.56802703,2.80562521 L8.81595837,2.61469117 L9.25372069,3.14680047 L9.13302703,3.23862521 L9.14665187,3.248701 L9.05902703,3.29662521 L8.30348139,3.87935861 L7.86571906,3.34724931 L8.07402703,3.18562521 L7.57702703,2.79162521 L7.41933126,2.93596942 L7.27102703,2.78362521 L6.99402703,3.01862521 L7.17911448,3.20992926 L7.11202703,3.27062521 L7.68502703,3.66662521 L7.89703945,3.50422605 L8.33480177,4.03633536 L8.27902703,4.07762521 L8.28265593,4.08032783 L8.26702703,4.08762521 L7.38456247,4.7688935 L6.94680014,4.23678419 L7.16102703,4.07062521 L6.64802703,3.69062521 L6.50041234,3.8255043 L6.29402703,3.61262521 L3.22447881,6.21935857 C3.35677368,6.41226951 3.43243243,6.63503823 3.43243243,6.875 C3.43243243,7.46124165 2.98085895,7.9448657 2.35509171,8.14120042 C2.20167328,8.09359285 2.08547831,7.98849857 2.04708264,7.88175803 C2.01825913,7.80162826 2.03858561,7.76916788 2.12598536,7.76916788 C2.51077499,7.76916788 2.9557299,7.00856643 2.75771768,7.19292731 C2.74189124,7.20766265 2.72611256,7.22203614 2.71039907,7.23603233 C2.79272473,7.12514961 2.83783784,7.00232036 2.83783784,6.875 C2.83783784,6.45853154 2.3551445,6.09011628 1.72972973,6.09011628 C1.10431496,6.09011628 0.621621622,6.45853154 0.621621622,6.875 C0.621621622,7.29146846 1.10431496,7.65988372 1.72972973,7.65988372 C1.78319601,7.65988372 1.83561922,7.65719119 1.88678695,7.65200628 C1.81815084,7.72281744 1.80032481,7.83224998 1.84289132,7.9505855 C1.87789338,8.04789172 1.9479025,8.13940987 2.04162872,8.21263773 C1.94082474,8.22764255 1.83627607,8.23546512 1.72972973,8.23546512 C0.802776557,8.23546512 0.027027027,7.64337498 0.027027027,6.875 C0.027027027,6.10662502 0.802776557,5.51453488 1.72972973,5.51453488 C1.95669975,5.51453488 2.17460443,5.55003332 2.37427532,5.61492608 L8.08906954,1.16162521 Z" id="Combined-Shape" fill="#F4B300" fill-rule="nonzero"></path>
                        <path d="M0.459459459,7.79069767 C0.623652223,7.79069767 0.756756757,7.896119 0.756756757,8.02616279 C0.756756757,8.15620658 0.623652223,8.26162791 0.459459459,8.26162791 C0.295266696,8.26162791 0.162162162,8.15620658 0.162162162,8.02616279 C0.162162162,7.896119 0.295266696,7.79069767 0.459459459,7.79069767 Z M3.10810811,7.79069767 C3.27230087,7.79069767 3.40540541,7.896119 3.40540541,8.02616279 C3.40540541,8.15620658 3.27230087,8.26162791 3.10810811,8.26162791 C2.94391534,8.26162791 2.81081081,8.15620658 2.81081081,8.02616279 C2.81081081,7.896119 2.94391534,7.79069767 3.10810811,7.79069767 Z M0.351351351,5.64534884 C0.515544115,5.64534884 0.648648649,5.75077016 0.648648649,5.88081395 C0.648648649,6.01085775 0.515544115,6.11627907 0.351351351,6.11627907 C0.187158588,6.11627907 0.0540540541,6.01085775 0.0540540541,5.88081395 C0.0540540541,5.75077016 0.187158588,5.64534884 0.351351351,5.64534884 Z" id="Combined-Shape" fill="#BFBFBF"></path>
                    </g>
                    <g id="right" transform="translate(5.547297, 6.837209) scale(-1, 1) translate(-5.547297, -6.837209) translate(0.547297, 3.087209)">
                        <path d="M8.1656312,0.0107383368 L8.5370715,0.460191896 L7.94802703,0.915738337 L8.0980334,1.07039438 L8.02402703,1.13673834 L8.56802703,1.55473834 L8.81595837,1.36469117 L9.25372069,1.89680047 L9.13402703,1.98873834 L9.14665187,1.998701 L9.04002703,2.06073834 L8.30348139,2.62935861 L7.86571906,2.09724931 L8.06202703,1.94473834 L7.57102703,1.54773834 L7.41933126,1.68596942 L7.22002703,1.47973834 L6.93202703,1.70373834 L7.17911448,1.95992926 L7.11102703,2.02073834 L7.68502703,2.41673834 L7.89703945,2.25422605 L8.33480177,2.78633536 L8.27902703,2.82773834 L8.28265593,2.83032783 L8.25702703,2.84473834 L7.38456247,3.5188935 L6.94680014,2.98678419 L7.13802703,2.83873834 L6.63602703,2.45173834 L6.50041234,2.5755043 L6.24170478,2.30821663 L6.33702703,2.22073834 L6.30002703,2.19273834 L3.01990333,4.73435926 C3.27608668,4.97062975 3.43243243,5.28005051 3.43243243,5.625 C3.43243243,6.21124165 2.98085895,6.6948657 2.35509171,6.89120042 C2.20167328,6.84359285 2.08547831,6.73849857 2.04708264,6.63175803 C2.01825913,6.55162826 2.03858561,6.51916788 2.12598536,6.51916788 C2.51077499,6.51916788 2.9557299,5.75856643 2.75771768,5.94292731 C2.74121777,5.95828968 2.72476978,5.97325876 2.70839345,5.98781703 C2.7919671,5.8772035 2.83783784,5.75338502 2.83783784,5.625 C2.83783784,5.20853154 2.3551445,4.84011628 1.72972973,4.84011628 C1.10431496,4.84011628 0.621621622,5.20853154 0.621621622,5.625 C0.621621622,6.04146846 1.10431496,6.40988372 1.72972973,6.40988372 C1.78284426,6.40988372 1.8349294,6.4072265 1.8857769,6.40210829 C1.81799631,6.47377335 1.80051069,6.58276673 1.84289132,6.7005855 C1.87789338,6.79789172 1.9479025,6.88940987 2.04162872,6.96263773 C1.94082474,6.97764255 1.83627607,6.98546512 1.72972973,6.98546512 C0.802776557,6.98546512 0.027027027,6.39337498 0.027027027,5.625 C0.027027027,4.85662502 0.802776557,4.26453488 1.72972973,4.26453488 C2.00108141,4.26453488 2.25947587,4.31527334 2.48924602,4.40631954 L8.1656312,0.0107383368 Z" id="Combined-Shape" fill="#BFBFBF" fill-rule="nonzero"></path>
                        <path d="M0.459459459,6.54069767 C0.623652223,6.54069767 0.756756757,6.646119 0.756756757,6.77616279 C0.756756757,6.90620658 0.623652223,7.01162791 0.459459459,7.01162791 C0.295266696,7.01162791 0.162162162,6.90620658 0.162162162,6.77616279 C0.162162162,6.646119 0.295266696,6.54069767 0.459459459,6.54069767 Z M3.10810811,6.54069767 C3.27230087,6.54069767 3.40540541,6.646119 3.40540541,6.77616279 C3.40540541,6.90620658 3.27230087,7.01162791 3.10810811,7.01162791 C2.94391534,7.01162791 2.81081081,6.90620658 2.81081081,6.77616279 C2.81081081,6.646119 2.94391534,6.54069767 3.10810811,6.54069767 Z M0.351351351,4.39534884 C0.515544115,4.39534884 0.648648649,4.50077016 0.648648649,4.63081395 C0.648648649,4.76085775 0.515544115,4.86627907 0.351351351,4.86627907 C0.187158588,4.86627907 0.0540540541,4.76085775 0.0540540541,4.63081395 C0.0540540541,4.50077016 0.187158588,4.39534884 0.351351351,4.39534884 Z" id="Combined-Shape" fill="#F4B300"></path>
                    </g>
                    <path d="M6.25,6.12209302 C6.29477984,6.12209302 6.33108108,6.15839426 6.33108108,6.2031741 L6.33037838,6.54009302 L6.79313325,6.54069767 C6.83648118,6.54069767 6.87162162,6.57583812 6.87162162,6.61918605 C6.87162162,6.66253398 6.83648118,6.69767442 6.79313325,6.69767442 L6.33037838,6.69709302 L6.33108108,11.1689189 C6.33108108,11.2136988 6.29477984,11.25 6.25,11.25 L6.08783784,11.25 C6.04305799,11.25 6.00675676,11.2136988 6.00675676,11.1689189 L6.00637838,6.69709302 L5.70686675,6.69767442 C5.66351882,6.69767442 5.62837838,6.66253398 5.62837838,6.61918605 C5.62837838,6.57583812 5.66351882,6.54069767 5.70686675,6.54069767 L6.00637838,6.54009302 L6.00675676,6.2031741 C6.00675676,6.15839426 6.04305799,6.12209302 6.08783784,6.12209302 L6.25,6.12209302 Z" id="Combined-Shape" fill="#AF0100"></path>
                    <path d="M4.07386391,3.18016271 C4.64176366,3.62480659 4.68990027,4.68621091 4.06549006,5.05964173 C3.51348441,5.38977075 3.23890377,6.02162261 3.45370908,6.32912622 C3.63363851,6.58670342 4.15229674,6.47015799 4.69211463,6.06235109 C4.78936871,5.98888024 4.88224967,5.9107268 4.96982604,5.82884172 L5.09785301,5.92736668 C5.0016362,6.01836942 4.89926823,6.10497787 4.79188191,6.18610315 C4.18666415,6.64331656 3.57365109,6.78106406 3.31937651,6.41705837 C3.04381634,6.0225814 3.35879671,5.29776361 3.98025881,4.92609591 C4.50133672,4.61446335 4.45912512,3.68370424 3.97188496,3.30221375 C3.6896636,3.08124516 3.41219224,3.16581433 3.1038719,3.58683864 L2.97157855,3.49605562 C3.32827497,3.00897175 3.70756974,2.89336832 4.07386391,3.18016271 Z M5.7614963,4.49542567 L5.92180559,4.51908776 C5.86975237,4.84955218 5.71288748,5.18508381 5.48325121,5.49488539 L5.3515129,5.4031306 C5.56695611,5.11242671 5.71356855,4.79969917 5.7614963,4.49542567 Z" id="Path-391" fill="#979797" fill-rule="nonzero"></path>
                    <path d="M7.69548553,3.18016271 C8.26338529,3.62480659 8.31152189,4.68621091 7.68711169,5.05964173 C7.13510603,5.38977075 6.86052539,6.02162261 7.0753307,6.32912622 C7.25526013,6.58670342 7.77391837,6.47015799 8.31373625,6.06235109 C8.41099033,5.98888024 8.50387129,5.9107268 8.59144766,5.82884172 L8.71947463,5.92736668 C8.62325782,6.01836942 8.52088985,6.10497787 8.41350353,6.18610315 C7.80828577,6.64331656 7.19527271,6.78106406 6.94099813,6.41705837 C6.66543796,6.0225814 6.98041833,5.29776361 7.60188043,4.92609591 C8.12295835,4.61446335 8.08074674,3.68370424 7.59350658,3.30221375 C7.31128522,3.08124516 7.03381386,3.16581433 6.72549352,3.58683864 L6.59320017,3.49605562 C6.94989659,3.00897175 7.32919136,2.89336832 7.69548553,3.18016271 Z M9.38311792,4.49542567 L9.54342722,4.51908776 C9.49137399,4.84955218 9.3345091,5.18508381 9.10487284,5.49488539 L8.97313453,5.4031306 C9.18857773,5.11242671 9.33519017,4.79969917 9.38311792,4.49542567 Z" id="Path-391" fill="#979797" fill-rule="nonzero" transform="translate(8.068314, 4.825120) scale(-1, 1) translate(-8.068314, -4.825120) "></path>
                    <ellipse id="Oval-69" fill="#AF0100" cx="6.16891892" cy="11.0930233" rx="1" ry="1"></ellipse>
                    <ellipse id="Oval-70" fill="#AF0100" cx="6.11486486" cy="4.31686047" rx="1.13513514" ry="1"></ellipse>
                    <path d="M6.14611486,3.98185411 C6.63262634,3.98185411 7.02942167,4.05617718 7.3357538,4.2063107 L7.25405476,4.32401917 C6.97498899,4.18724891 6.60592472,4.11812009 6.14611486,4.11812009 C5.68490793,4.11812009 5.2895983,4.18767745 4.95941511,4.32612916 L4.88700944,4.2042007 C5.24104171,4.05574864 5.66100047,3.98185411 6.14611486,3.98185411 Z M6.14611486,3.09231922 C6.63262634,3.09231922 7.02942167,3.1666423 7.3357538,3.31677581 L7.25405476,3.43448429 C6.97498899,3.29771402 6.60592472,3.22858521 6.14611486,3.22858521 C5.69165072,3.22858521 5.30117115,3.29612359 4.97393859,3.43056602 L5.16137603,3.84621339 C5.20770501,3.83283012 5.25497828,3.8205155 5.30319449,3.80926837 C5.27084093,3.77208261 5.25,3.72012923 5.25,3.6627907 C5.25,3.54719622 5.33470289,3.45348837 5.43918919,3.45348837 C5.54367549,3.45348837 5.62837838,3.54719622 5.62837838,3.6627907 C5.62837838,3.6963131 5.62125487,3.72799483 5.60859116,3.75608425 C5.73563017,3.73699277 5.8702934,3.72633285 6.0107092,3.72219529 L6.011447,3.54398256 L5.80898086,3.54478644 L5.80898086,3.41853298 L6.011447,3.41798256 L6.01207875,3.2681686 L6.22653225,3.2681686 L6.226447,3.41798256 L6.47402872,3.41853298 L6.47402872,3.54478644 L6.226447,3.54398256 L6.226447,3.72198256 L6.34912478,3.72478093 C6.46406773,3.73008472 6.57342331,3.74002495 6.67717992,3.75462469 L6.66216343,3.71843155 L6.66216343,3.71843155 L6.65540541,3.6627907 C6.65540541,3.54719622 6.74010829,3.45348837 6.84459459,3.45348837 C6.9490809,3.45348837 7.03378378,3.54719622 7.03378378,3.6627907 C7.03378378,3.72312291 7.01070981,3.77749296 6.97379206,3.81568937 C7.03584588,3.8291198 7.0947593,3.84714904 7.1511946,3.86725052 L7.3052595,3.52644113 L7.45360874,3.58983794 L7.29989328,3.92764396 C7.31198142,3.93321078 7.32393494,3.93889036 7.3357538,3.94468279 L7.25405476,4.06239126 L7.240447,4.05598256 L7.21606651,4.11070912 L7.06771727,4.04731232 L7.09264461,3.99441212 C6.85644746,3.90952225 6.56854923,3.86358679 6.22862539,3.8572519 L6.22653225,3.91324491 L6.01207875,3.91324491 L6.011447,3.85998256 L5.92099927,3.86228556 C5.55494712,3.8815917 5.23456777,3.94912483 4.95941511,4.06450126 L4.88700944,3.94257279 L5.008447,3.89698256 L4.797447,3.43286119 L4.924447,3.37798256 L4.88700944,3.31466582 C5.24104171,3.16621376 5.66100047,3.09231922 6.14611486,3.09231922 Z M6.14611486,2.20278434 C6.63262634,2.20278434 7.02942167,2.27710741 7.3357538,2.42724093 L7.25405476,2.5449494 C6.97498899,2.40817914 6.60592472,2.33905033 6.14611486,2.33905033 C5.69165072,2.33905033 5.30117115,2.40658871 4.97393859,2.54103113 L5.1623776,2.95638938 C5.20838629,2.94311784 5.25532568,2.93089958 5.30319449,2.91973349 C5.27084869,2.88256706 5.25,2.83060501 5.25,2.77325581 C5.25,2.65766133 5.33470289,2.56395349 5.43918919,2.56395349 C5.54367549,2.56395349 5.62837838,2.65766133 5.62837838,2.77325581 C5.62837838,2.80716353 5.62109017,2.83918802 5.60815229,2.86751654 C5.73563017,2.84745789 5.8702934,2.83679797 6.0107092,2.83266041 L6.011447,2.65498256 L5.80898086,2.65525156 L5.80898086,2.52899809 L6.011447,2.52898256 L6.01207875,2.37863372 L6.22653225,2.37863372 L6.226447,2.52898256 L6.47402872,2.52899809 L6.47402872,2.65525156 L6.226447,2.65498256 L6.226447,2.83198256 L6.34912478,2.83524604 C6.46406773,2.84054984 6.57342331,2.85049006 6.67717992,2.86508981 L6.66216343,2.82889666 L6.66216343,2.82889666 L6.65540541,2.77325581 C6.65540541,2.65766133 6.74010829,2.56395349 6.84459459,2.56395349 C6.9490809,2.56395349 7.03378378,2.65766133 7.03378378,2.77325581 C7.03378378,2.83308103 7.01109598,2.88704387 6.97471982,2.92518813 C7.03612735,2.93968741 7.09437887,2.95751301 7.15020773,2.97736443 L7.3052595,2.63690625 L7.45360874,2.70030306 L7.29989328,3.03810908 C7.31198142,3.04367589 7.32393494,3.04935548 7.3357538,3.05514791 L7.25405476,3.17285638 L7.240447,3.16598256 L7.21606651,3.22117424 L7.06771727,3.15777743 L7.09264461,3.10487724 C6.85644746,3.01998736 6.56854923,2.97405191 6.22862539,2.96771702 L6.22653225,3.02371003 L6.01207875,3.02371003 L6.011447,2.96998256 L5.92099927,2.97275068 C5.55494712,2.99205682 5.23456777,3.05958994 4.95941511,3.17496637 L4.88700944,3.05303791 L5.008447,3.00798256 L4.797447,2.54332631 L4.923447,2.48798256 L4.88700944,2.42513093 C5.24104171,2.27667887 5.66100047,2.20278434 6.14611486,2.20278434 Z M6.22653225,1.48909884 L6.226447,1.63898256 L6.47402872,1.63946321 L6.47402872,1.76571668 L6.226447,1.76498256 L6.226447,1.94298256 L6.34912478,1.94571116 C6.46406773,1.95101495 6.57342331,1.96095518 6.67717992,1.97555492 L6.66216343,1.93936178 L6.66216343,1.93936178 L6.65540541,1.88372093 C6.65540541,1.76812645 6.74010829,1.6744186 6.84459459,1.6744186 C6.9490809,1.6744186 7.03378378,1.76812645 7.03378378,1.88372093 C7.03378378,1.94405314 7.01070981,1.99842319 6.97379206,2.0366196 C7.03584588,2.05005004 7.0947593,2.06807928 7.1511946,2.08818075 L7.3052595,1.74737136 L7.45360874,1.81076817 L7.29989328,2.14857419 C7.31198142,2.15414101 7.32393494,2.15982059 7.3357538,2.16561302 L7.25405476,2.2833215 L7.240447,2.27698256 L7.21606651,2.33163936 L7.06771727,2.26824255 L7.09264461,2.21534235 C6.85644746,2.13045248 6.56854923,2.08451702 6.22862539,2.07818213 L6.22653225,2.13417515 L6.01207875,2.13417515 L6.011447,2.08098256 L5.92099927,2.0832158 C5.55494712,2.10252194 5.23456777,2.17005506 4.95941511,2.28543149 L4.88700944,2.16350303 L5.008447,2.11798256 L4.797447,1.65379143 L4.94579624,1.59039462 L5.16137603,2.06714362 C5.20770501,2.05376036 5.25497828,2.04144573 5.30319449,2.03019861 C5.27084093,1.99301284 5.25,1.94105946 5.25,1.88372093 C5.25,1.76812645 5.33470289,1.6744186 5.43918919,1.6744186 C5.54367549,1.6744186 5.62837838,1.76812645 5.62837838,1.88372093 C5.62837838,1.91724333 5.62125487,1.94892506 5.60859116,1.97701448 C5.73563017,1.95792301 5.8702934,1.94726308 6.0107092,1.94312553 L6.011447,1.76498256 L5.80898086,1.76571668 L5.80898086,1.63946321 L6.011447,1.63898256 L6.01207875,1.48909884 L6.22653225,1.48909884 Z M6.17877252,0.0239825581 L6.178447,0.209982558 L6.36592061,0.2109375 L6.36592061,0.367914244 L6.178447,0.366982558 L6.17877252,0.82603561 L6.01661036,0.82603561 L6.016447,0.366982558 L5.86303491,0.367914244 L5.86303491,0.2109375 L6.016447,0.209982558 L6.01661036,0.0239825581 L6.17877252,0.0239825581 Z" id="Combined-Shape" fill="#F4B300" fill-rule="nonzero"></path>
                </g>
            </g>
        </g>
    </g>
</svg>