<?xml version="1.0" encoding="UTF-8"?>
<svg width="20px" height="15px" viewBox="0 0 20 15" version="1.1" xmlns="http://www.w3.org/2000/svg" xmlns:xlink="http://www.w3.org/1999/xlink">
    <title>flags/M/VE - Venezuela</title>
    <defs>
        <rect id="path-1" x="0" y="0" width="20" height="15" rx="1.25"></rect>
        <rect id="path-3" x="0" y="0" width="20" height="15"></rect>
    </defs>
    <g id="Symbols" stroke="none" stroke-width="1" fill="none" fill-rule="evenodd">
        <g id="flag">
            <mask id="mask-2" fill="white">
                <use xlink:href="#path-1"></use>
            </mask>
            <g id="mask"></g>
            <g id="contents" mask="url(#mask-2)">
                <mask id="mask-4" fill="white">
                    <use xlink:href="#path-3"></use>
                </mask>
                <use id="background" fill="#2E42A5" xlink:href="#path-3"></use>
                <rect id="top" fill="#FECA00" mask="url(#mask-4)" x="0" y="0" width="20" height="5"></rect>
                <rect id="bottom" fill="#E31D1C" mask="url(#mask-4)" x="0" y="10" width="20" height="5"></rect>
                <g id="mark" mask="url(#mask-4)" fill="#F7FCFF">
                    <g transform="translate(2.500000, 5.000000)">
                        <path d="M6.0737472,0.513511958 L6.37595705,1.18363217 L7.03103594,1.18363217 L6.51632516,1.70400419 L6.76381178,2.41214366 L6.07467294,2.06371648 L5.46049358,2.41214366 L5.6359062,1.70400419 L5.62857375,1.69751196 L5.11772704,2.21506848 L5.36521366,2.92320795 L4.67607483,2.57478077 L4.06189546,2.92320795 L4.06957375,2.89051196 L3.77487289,3.18939949 L4.0223595,3.89753896 L3.33322067,3.54911178 L3.19157375,3.62851196 L3.22603874,3.62867712 L2.71132796,4.14904914 L2.95881458,4.85718861 L2.26967575,4.50876144 L1.65549638,4.85718861 L1.830909,4.14904914 L1.24257375,3.62867712 L2.01101952,3.62867712 L2.26875,2.95855691 L2.57095985,3.62867712 L2.78457375,3.62851196 L2.89445393,3.18939949 L2.30611867,2.66902747 L3.07456444,2.66902747 L3.33229493,1.99890726 L3.63450478,2.66902747 L4.12457375,2.66851196 L4.23730808,2.21506848 L3.64897283,1.69469646 L4.41741859,1.69469646 L4.67514908,1.02457625 L4.97735893,1.69469646 L5.62557375,1.69451196 L5.04757095,1.18363217 L5.81601671,1.18363217 L6.0737472,0.513511958 Z" id="Combined-Shape"></path>
                        <path d="M12.77801,0.486114202 L13.0802199,1.15623441 L13.7352987,1.15623441 L13.220588,1.67660643 L13.4680746,2.3847459 L12.7789357,2.03631872 L12.1647564,2.3847459 L12.340169,1.67660643 L12.3317803,1.6681142 L11.8189333,2.18767098 L12.0664199,2.89581045 L11.3772811,2.54738327 L10.7631017,2.89581045 L10.7707803,2.8631142 L10.4760792,3.16200173 L10.7235658,3.87014121 L10.0344269,3.52171403 L9.89278035,3.6011142 L9.92724534,3.60127937 L9.41253456,4.12165139 L9.66002118,4.82979086 L8.97088234,4.48136368 L8.35670298,4.82979086 L8.5321156,4.12165139 L7.94378035,3.60127937 L8.71222611,3.60127937 L8.9699566,2.93115916 L9.27216645,3.60127937 L9.48578035,3.6011142 L9.5956602,3.16200173 L9.00732494,2.64162971 L9.77577071,2.64162971 L10.0335012,1.97150951 L10.335711,2.64162971 L10.8257803,2.6411142 L10.9385144,2.18767098 L10.3501791,1.66729896 L11.1186249,1.66729896 L11.3763553,0.99717875 L11.6785652,1.66729896 L12.3297803,1.6671142 L11.7518338,1.15623441 L12.5202795,1.15623441 L12.77801,0.486114202 Z" id="Combined-Shape" transform="translate(10.839540, 2.657953) scale(-1, 1) translate(-10.839540, -2.657953) "></path>
                        <polygon id="Star-21" points="7.39557065 1.58421023 6.78139128 1.93263741 6.9568039 1.22449794 6.36846865 0.704125918 7.13691441 0.704125918 7.3946449 0.0340057102 7.69685475 0.704125918 8.35193364 0.704125918 7.83722286 1.22449794 8.08470948 1.93263741"></polygon>
                    </g>
                </g>
            </g>
        </g>
    </g>
</svg>