<?xml version="1.0" encoding="UTF-8"?>
<svg width="20px" height="15px" viewBox="0 0 20 15" version="1.1" xmlns="http://www.w3.org/2000/svg" xmlns:xlink="http://www.w3.org/1999/xlink">
    <title>flags/M/VG - Virgin Islands (British)</title>
    <defs>
        <rect id="path-1" x="0" y="0" width="20" height="15"></rect>
        <rect id="path-3" x="0" y="0" width="20" height="15"></rect>
        <rect id="path-5" x="0" y="0" width="11" height="9"></rect>
    </defs>
    <g id="Symbols" stroke="none" stroke-width="1" fill="none" fill-rule="evenodd">
        <g id="flag">
            <mask id="mask-2" fill="white">
                <use xlink:href="#path-1"></use>
            </mask>
            <g id="mask"></g>
            <g id="contents" mask="url(#mask-2)">
                <mask id="mask-4" fill="white">
                    <use xlink:href="#path-3"></use>
                </mask>
                <use id="background" fill="#2E42A5" xlink:href="#path-3"></use>
                <g id="gb---medium" mask="url(#mask-4)">
                    <g id="flag">
                        <mask id="mask-6" fill="white">
                            <use xlink:href="#path-5"></use>
                        </mask>
                        <use id="mask" fill="#2E42A5" xlink:href="#path-5"></use>
                        <g id="contents" mask="url(#mask-6)">
                            <g transform="translate(-2.500000, -1.250000)">
                                <g id="stripe" transform="translate(1.000000, 0.000000)">
                                    <polygon id="white" fill="#F7FCFF" fill-rule="nonzero" transform="translate(7.179664, 5.457378) scale(1, -1) translate(-7.179664, -5.457378) " points="0.247333589 1.53986811 2.72292762 0.454117833 12.8061752 8.48429142 14.1119945 10.0977486 11.4647029 10.4606384 7.35198716 7.00020684 4.04167375 4.66868453"></polygon>
                                    <polygon id="red" fill="#F50100" fill-rule="nonzero" transform="translate(7.114665, 5.716384) scale(1, -1) translate(-7.114665, -5.716384) " points="0.586246133 1.29717712 1.84744698 0.66709794 13.6430838 10.7656701 11.8722111 10.7656701"></polygon>
                                </g>
                                <g id="stripe" transform="translate(7.750000, 5.500000) scale(-1, 1) translate(-7.750000, -5.500000) translate(0.250000, 0.000000)">
                                    <polygon id="white" fill="#F7FCFF" fill-rule="nonzero" transform="translate(7.179664, 5.612355) scale(1, -1) translate(-7.179664, -5.612355) " points="0.247333589 1.84982105 2.4444201 0.454117833 12.8061752 8.79424437 14.1119945 10.4077016 11.4647029 10.7705913 7.35198716 7.31015978 4.04167375 4.97863747"></polygon>
                                    <polygon id="red" fill="#F50100" fill-rule="nonzero" transform="translate(7.284723, 5.686725) scale(1, -1) translate(-7.284723, -5.686725) " points="0.331803828 1.45261194 1.59300468 0.822532761 6.61570908 5.14625614 8.10483314 5.62933537 14.237643 10.5509178 12.4667702 10.5509178 6.33740601 5.74615285 4.70931125 5.16688909"></polygon>
                                </g>
                                <g id="cross" transform="translate(2.500000, 1.250000)">
                                    <path d="M6.46875,-0.46875 L6.46875,3.53125 L11.46875,3.53125 L11.46875,5.46875 L6.46875,5.46875 L6.46875,9.46875 L4.53125,9.46875 L4.53125,5.46875 L-0.46875,5.46875 L-0.46875,3.53125 L4.53125,3.53125 L4.53125,-0.46875 L6.46875,-0.46875 Z" id="red" stroke="#F7FCFF" stroke-width="0.9375" fill="#F50100"></path>
                                </g>
                            </g>
                        </g>
                    </g>
                </g>
                <g id="masked" mask="url(#mask-4)">
                    <g transform="translate(12.000000, 6.250000)">
                        <path d="M0.654175243,0.0204318193 L0.654175243,4.10114801 C0.613863732,6.35204454 1.63094038,7.47749281 3.70540519,7.47749281 C5.77987,7.47749281 6.81710241,6.35204454 6.81710241,4.10114801 L6.81710241,0.0204318193 L0.654175243,0.0204318193 Z" id="Path-2" stroke="#F7FCFF" stroke-width="0.5" fill="#3B7E05"></path>
                        <g id="mark" stroke="none" stroke-width="1" fill="none" transform="translate(0.500000, 0.375000)">
                            <path d="M5.55404463,5.3079728 L5.83597764,5.59077543 L5.84817906,5.57309137 C6.02068837,5.71913081 6.13441914,5.85577949 6.18901848,6.01406525 C6.27795124,6.27188505 6.18295753,6.51962195 5.97449219,6.65069395 C5.92279392,6.68319909 5.8817529,6.70661628 5.84524952,6.7236096 C5.7606443,6.76299564 5.69282003,6.78012843 5.59211841,6.75173332 C5.48948461,6.72279338 5.40323138,6.64372843 5.3587078,6.5349646 C4.65606469,7.15715364 3.90135875,7.47352963 3.09995071,7.47352963 C2.30535285,7.47352963 1.55634607,7.16250899 0.857610348,6.5508641 C0.811548549,6.6580087 0.724424973,6.73467926 0.622010497,6.76163702 C0.520828661,6.78827032 0.453313727,6.76995645 0.369408767,6.72909984 C0.333207521,6.71147203 0.292581443,6.68734215 0.241458339,6.6539397 C0.0353122683,6.51924944 -0.0553433639,6.2698924 0.0380754261,6.01366396 C0.06344591,5.94407797 0.104160024,5.87950423 0.156829155,5.81674635 C0.154834846,5.81369685 0.151499382,5.80958656 0.148165228,5.80546878 L0.643899771,5.30777543 C1.41862782,6.26458963 2.23349705,6.73028638 3.09995071,6.73028638 C3.96633364,6.73028638 4.78052695,6.26466642 5.55404463,5.3079728 Z" id="Combined-Shape" stroke="#FFFFFF" stroke-width="0.5" fill="#FFD018" fill-rule="nonzero"></path>
                            <path d="" id="Combined-Shape" fill="#F50100" fill-rule="nonzero"></path>
                            <path d="M4.58313107,4.89864865 C4.61764886,4.89864865 4.64563107,4.92889968 4.64563107,4.96621622 C4.64563107,4.98383791 4.63939121,4.99988405 4.62916988,5.01191312 L4.71047558,5.09261222 L4.89182563,5.09261222 C5.06998148,4.93096447 5.1590594,4.89055253 5.1590594,4.97137641 C5.1590594,5.05220028 5.11646436,5.1350171 5.03127428,5.21982687 C4.97994443,5.25526122 4.95427951,5.25526122 4.95427951,5.21982687 C4.95427951,5.16667535 4.93673282,5.33239481 4.78772726,5.33351048 L4.78772726,5.40760221 L4.35486609,5.40760221 L4.41585561,5.33351048 C4.34455559,5.28421134 4.29498127,5.24631681 4.26713264,5.21982687 C4.17584532,5.20210969 4.11554089,5.15970481 4.08621933,5.09261222 L4.48773795,5.09261222 L4.54708688,5.0214224 C4.53108121,5.00918666 4.52063107,4.98902077 4.52063107,4.96621622 C4.52063107,4.92889968 4.54861327,4.89864865 4.58313107,4.89864865 Z M1.57949029,4.89864865 C1.61400809,4.89864865 1.64199029,4.92889968 1.64199029,4.96621622 C1.64199029,4.98383791 1.63575043,4.99988405 1.6255291,5.01191312 L1.7068348,5.09261222 L1.88818485,5.09261222 C2.0663407,4.93096447 2.15541862,4.89055253 2.15541862,4.97137641 C2.15541862,5.05220028 2.11282358,5.1350171 2.02763351,5.21982687 C1.97630366,5.25526122 1.95063873,5.25526122 1.95063873,5.21982687 C1.95063873,5.16667535 1.93309204,5.33239481 1.78408648,5.33351048 L1.78408648,5.40760221 L1.35122531,5.40760221 L1.41221483,5.33351048 C1.34091481,5.28421134 1.29134049,5.24631681 1.26349186,5.21982687 C1.17220455,5.20210969 1.11190011,5.15970481 1.08257855,5.09261222 L1.48409717,5.09261222 L1.5434461,5.0214224 C1.52744044,5.00918666 1.51699029,4.98902077 1.51699029,4.96621622 C1.51699029,4.92889968 1.54497249,4.89864865 1.57949029,4.89864865 Z M4.58313107,3.98648649 C4.61764886,3.98648649 4.64563107,4.01673752 4.64563107,4.05405405 C4.64563107,4.07167575 4.63939121,4.08772189 4.62916988,4.09975096 L4.71047558,4.18045006 L4.89182563,4.18045006 C5.06998148,4.0188023 5.1590594,3.97839037 5.1590594,4.05921424 C5.1590594,4.14003812 5.11646436,4.22285494 5.03127428,4.30766471 C4.97994443,4.34309905 4.95427951,4.34309905 4.95427951,4.30766471 C4.95427951,4.25451318 4.93673282,4.42023265 4.78772726,4.42134831 L4.78772726,4.49544005 L4.35486609,4.49544005 L4.41585561,4.42134831 C4.34455559,4.37204918 4.29498127,4.33415465 4.26713264,4.30766471 C4.17584532,4.28994753 4.11554089,4.24754265 4.08621933,4.18045006 L4.48773795,4.18045006 L4.54708688,4.10926024 C4.53108121,4.09702449 4.52063107,4.0768586 4.52063107,4.05405405 C4.52063107,4.01673752 4.54861327,3.98648649 4.58313107,3.98648649 Z M1.57949029,3.9527027 C1.61400809,3.9527027 1.64199029,3.98295373 1.64199029,4.02027027 C1.64199029,4.03789197 1.63575043,4.0539381 1.6255291,4.06596717 L1.7068348,4.14666628 L1.88818485,4.14666628 C2.0663407,3.98501852 2.15541862,3.94460658 2.15541862,4.02543046 C2.15541862,4.10625434 2.11282358,4.18907116 2.02763351,4.27388092 C1.97630366,4.30931527 1.95063873,4.30931527 1.95063873,4.27388092 C1.95063873,4.2207294 1.93309204,4.38644886 1.78408648,4.38756453 L1.78408648,4.46165626 L1.35122531,4.46165626 L1.41221483,4.38756453 C1.34091481,4.3382654 1.29134049,4.30037086 1.26349186,4.27388092 C1.17220455,4.25616375 1.11190011,4.21375887 1.08257855,4.14666628 L1.48409717,4.14666628 L1.5434461,4.07547645 C1.52744044,4.06324071 1.51699029,4.04307482 1.51699029,4.02027027 C1.51699029,3.98295373 1.54497249,3.9527027 1.57949029,3.9527027 Z M2.1559466,3.14189189 C2.1904644,3.14189189 2.2184466,3.17214292 2.2184466,3.20945946 C2.2184466,3.22687384 2.2123527,3.24274952 2.20234451,3.25473014 L2.28329111,3.33585546 L2.46464116,3.33585546 C2.64279701,3.17420771 2.73187493,3.13379577 2.73187493,3.21461965 C2.73187493,3.29544353 2.68927989,3.37826035 2.60408982,3.46307011 C2.55275997,3.49850446 2.52709504,3.49850446 2.52709504,3.46307011 C2.52709504,3.40991859 2.50954835,3.57563805 2.36054279,3.57675372 L2.36054279,3.65084545 L1.92768162,3.65084545 L1.98867114,3.57675372 C1.91737112,3.52745459 1.8677968,3.48956005 1.83994817,3.46307011 C1.74866086,3.44535294 1.68835642,3.40294806 1.65903487,3.33585546 L2.06055348,3.33585546 L2.11903491,3.26399041 C2.1035202,3.25169572 2.0934466,3.23184938 2.0934466,3.20945946 C2.0934466,3.17214292 2.12142881,3.14189189 2.1559466,3.14189189 Z M4.58313107,3.07432432 C4.61764886,3.07432432 4.64563107,3.10457535 4.64563107,3.14189189 C4.64563107,3.15951359 4.63939121,3.17555972 4.62916988,3.1875888 L4.71047558,3.2682879 L4.89182563,3.2682879 C5.06998148,3.10664014 5.1590594,3.0662282 5.1590594,3.14705208 C5.1590594,3.22787596 5.11646436,3.31069278 5.03127428,3.39550254 C4.97994443,3.43093689 4.95427951,3.43093689 4.95427951,3.39550254 C4.95427951,3.34235102 4.93673282,3.50807048 4.78772726,3.50918615 L4.78772726,3.58327788 L4.35486609,3.58327788 L4.41585561,3.50918615 C4.34455559,3.45988702 4.29498127,3.42199248 4.26713264,3.39550254 C4.17584532,3.37778537 4.11554089,3.33538049 4.08621933,3.2682879 L4.48773795,3.2682879 L4.54708688,3.19709808 C4.53108121,3.18486233 4.52063107,3.16469644 4.52063107,3.14189189 C4.52063107,3.10457535 4.54861327,3.07432432 4.58313107,3.07432432 Z M4.55279126,2.19594595 C4.58730906,2.19594595 4.61529126,2.22619698 4.61529126,2.26351351 C4.61529126,2.2809279 4.60919736,2.29680357 4.59918917,2.3087842 L4.68013577,2.38990952 L4.86148582,2.38990952 C5.03964167,2.22826176 5.12871959,2.18784983 5.12871959,2.2686737 C5.12871959,2.34949758 5.08612455,2.4323144 5.00093448,2.51712417 C4.94960463,2.55255851 4.9239397,2.55255851 4.9239397,2.51712417 C4.9239397,2.46397264 4.90639301,2.62969211 4.75738745,2.63080777 L4.75738745,2.70489951 L4.32452628,2.70489951 L4.3855158,2.63080777 C4.31421578,2.58150864 4.26464146,2.54361411 4.23679283,2.51712417 C4.14550552,2.49940699 4.08520108,2.45700211 4.05587953,2.38990952 L4.45739814,2.38990952 L4.51587957,2.31804446 C4.50036486,2.30574978 4.49029126,2.28590344 4.49029126,2.26351351 C4.49029126,2.22619698 4.51827347,2.19594595 4.55279126,2.19594595 Z M1.67050971,2.12837838 C1.70502751,2.12837838 1.73300971,2.15862941 1.73300971,2.19594595 C1.73300971,2.21356764 1.72676985,2.22961378 1.71654852,2.24164285 L1.79785422,2.32234195 L1.97920427,2.32234195 C2.15736012,2.1606942 2.24643804,2.12028226 2.24643804,2.20110613 C2.24643804,2.28193001 2.203843,2.36474683 2.11865292,2.4495566 C2.08015554,2.47613236 2.05609467,2.4827763 2.04647032,2.46948842 L2.04165815,2.4495566 C2.04165815,2.39640508 2.02411146,2.56212454 1.8751059,2.56324021 L1.8751059,2.63733194 L1.44224473,2.63733194 L1.50323425,2.56324021 C1.43193423,2.51394107 1.38235991,2.47604654 1.35451128,2.4495566 C1.26322396,2.43183942 1.20291953,2.38943454 1.17359797,2.32234195 L1.57511659,2.32234195 L1.63446552,2.25115213 C1.61845985,2.23891639 1.60800971,2.2187505 1.60800971,2.19594595 C1.60800971,2.15862941 1.63599191,2.12837838 1.67050971,2.12837838 Z M1.67050971,1.28378378 C1.70502751,1.28378378 1.73300971,1.31403481 1.73300971,1.35135135 C1.73300971,1.36897305 1.72676985,1.38501918 1.71654852,1.39704826 L1.79785422,1.47774736 L1.97920427,1.47774736 C2.15736012,1.3160996 2.24643804,1.27568766 2.24643804,1.35651154 C2.24643804,1.43733542 2.203843,1.52015224 2.11865292,1.604962 C2.06732308,1.64039635 2.04165815,1.64039635 2.04165815,1.604962 C2.04165815,1.55181048 2.02411146,1.71752994 1.8751059,1.71864561 L1.8751059,1.79273734 L1.44224473,1.79273734 L1.50323425,1.71864561 C1.43193423,1.66934648 1.38235991,1.63145194 1.35451128,1.604962 C1.26322396,1.58724483 1.20291953,1.54483995 1.17359797,1.47774736 L1.57511659,1.47774736 L1.63446552,1.40655753 C1.61845985,1.39432179 1.60800971,1.3741559 1.60800971,1.35135135 C1.60800971,1.31403481 1.63599191,1.28378378 1.67050971,1.28378378 Z M4.55279126,1.25 C4.58730906,1.25 4.61529126,1.28025103 4.61529126,1.31756757 C4.61529126,1.33498195 4.60919736,1.35085763 4.59918917,1.36283825 L4.68013577,1.44396357 L4.86148582,1.44396357 C5.03964167,1.28231582 5.12871959,1.24190388 5.12871959,1.32272776 C5.12871959,1.40355163 5.08612455,1.48636845 5.00093448,1.57117822 C4.94960463,1.60661257 4.9239397,1.60661257 4.9239397,1.57117822 C4.9239397,1.5180267 4.90639301,1.68374616 4.75738745,1.68486183 L4.75738745,1.75895356 L4.32452628,1.75895356 L4.3855158,1.68486183 C4.31421578,1.6355627 4.26464146,1.59766816 4.23679283,1.57117822 C4.14550552,1.55346105 4.08520108,1.51105616 4.05587953,1.44396357 L4.45739814,1.44396357 L4.51587957,1.37209851 C4.50036486,1.35980383 4.49029126,1.33995749 4.49029126,1.31756757 C4.49029126,1.28025103 4.51827347,1.25 4.55279126,1.25 Z M1.67050971,0.337837838 C1.70502751,0.337837838 1.73300971,0.368088868 1.73300971,0.405405405 C1.73300971,0.423027104 1.72676985,0.439073237 1.71654852,0.45110231 L1.79785422,0.53180141 L1.97920427,0.53180141 C2.15736012,0.370153656 2.24643804,0.329741717 2.24643804,0.410565594 C2.24643804,0.491389472 2.203843,0.574206292 2.11865292,0.659016057 C2.06732308,0.694450404 2.04165815,0.694450404 2.04165815,0.659016057 C2.04165815,0.605864536 2.02411146,0.771583998 1.8751059,0.772699665 L1.8751059,0.846791398 L1.44224473,0.846791398 L1.50323425,0.772699665 C1.43193423,0.723400533 1.38235991,0.685505997 1.35451128,0.659016057 C1.26322396,0.641298883 1.20291953,0.598894001 1.17359797,0.53180141 L1.57511659,0.53180141 L1.63446552,0.460611589 C1.61845985,0.448375845 1.60800971,0.428209956 1.60800971,0.405405405 C1.60800971,0.368088868 1.63599191,0.337837838 1.67050971,0.337837838 Z" id="Combined-Shape" fill="#FFD018"></path>
                            <path d="M2.89987035,1.24102176 C2.89987035,1.24102176 2.82979381,1.46882555 2.68964073,1.92443315 C2.45485188,2.2281919 2.31580475,2.4544996 2.27249933,2.60335625 C2.20754121,2.82664122 2.17194997,2.97499917 2.18974559,2.97499917 C2.20754121,2.97499917 2.35144169,2.91143028 2.35144169,2.75739327 C2.35144169,2.65470192 2.53425124,2.43824099 2.89987035,2.10801046 L3.06356812,1.24102176 C2.95443627,1.24102176 2.89987035,1.24102176 2.89987035,1.24102176 Z" id="Path-382" fill="#FFC6B5"></path>
                            <path d="M4.55279126,0.371621622 C4.58730906,0.371621622 4.61529126,0.401872652 4.61529126,0.439189189 C4.61529126,0.456810887 4.6090514,0.472857021 4.59883007,0.484886093 L4.68013577,0.565585194 L4.86148582,0.565585194 C5.03964167,0.40393744 5.12871959,0.363525501 5.12871959,0.444349378 C5.12871959,0.525173255 5.08612455,0.607990076 5.00093448,0.692799841 C4.94960463,0.728234188 4.9239397,0.728234188 4.9239397,0.692799841 C4.9239397,0.63964832 4.90639301,0.805367782 4.75738745,0.806483449 L4.75738745,0.880575182 L4.32452628,0.880575182 L4.3855158,0.806483449 C4.31421578,0.757184317 4.26464146,0.719289781 4.23679283,0.692799841 C4.14550552,0.675082667 4.08520108,0.632677785 4.05587953,0.565585194 L4.45739814,0.565585194 L4.51674707,0.494395373 C4.50074141,0.482159629 4.49029126,0.46199374 4.49029126,0.439189189 C4.49029126,0.401872652 4.51827347,0.371621622 4.55279126,0.371621622 Z" id="Combined-Shape" fill="#FFD018"></path>
                            <path d="M3.64440728,1.16789616 C3.72746265,1.16789616 3.8564192,1.84013262 3.90303331,2.10964396 C3.94964741,2.3791553 3.8564192,2.30546706 3.64440728,2.65608607 C3.43239537,3.00670507 3.59683348,3.11477746 3.50081197,3.24899881 C3.40479047,3.38322016 3.36963085,3.23678576 3.33105082,3.11477746 C3.29247079,2.99276915 3.49664057,2.59050202 3.59683348,2.37659056 C3.69702638,2.1626791 3.68759388,2.08802687 3.64440728,1.9984442 C3.61561622,1.93872241 3.5879311,1.83686563 3.56135192,1.69287384 L3.56135192,1.69287384 L3.59683348,1.30849882 C3.5731791,1.21476371 3.58903704,1.16789616 3.64440728,1.16789616 Z M2.99863741,0.34473701 C2.99863741,0.16453355 3.07615392,0.304037042 3.22032861,0.304037042 C3.36450329,0.304037042 3.28975621,0.357438575 3.38328604,0.52494047 C3.47681587,0.692442365 3.38328604,0.64569694 3.38328604,0.801779639 C3.38328604,0.957862338 3.42290803,0.963113946 3.42290803,1.00253155 C3.42290803,1.04194914 3.25586501,1.09980844 3.13538126,1.09980844 C3.01489751,1.09980844 3.06214227,1.00253155 3.13538126,0.948580424 C3.20862024,0.894629304 3.12945852,0.801779639 3.06214227,0.801779639 C2.99482602,0.801779639 2.99863741,0.701663213 2.99863741,0.627535213 Z" id="Combined-Shape" fill="#FFC6B5"></path>
                            <path d="" id="Combined-Shape" fill="#FFD018"></path>
                            <path d="M3.09441569,0.115406581 C2.97873044,0.138896335 2.9401687,0.179606481 2.97873044,0.237537019 C3.03657306,0.324432825 2.90335269,0.301960824 3.09441569,0.313196825 C3.28547868,0.324432825 3.33779615,0.393986109 3.31163741,0.44537249 C3.28547868,0.496758872 3.26494105,0.624354646 3.31163741,0.701235756 C3.35833378,0.778116867 3.37314061,0.911910761 3.45562016,0.845013814 C3.5380997,0.778116867 3.69653282,0.686213713 3.64799931,0.565793101 C3.5994658,0.44537249 3.66757724,0.305288879 3.5615987,0.237537019 C3.45562016,0.169785159 3.43194363,0.211217909 3.37130347,0.115406581 C3.31066331,0.0195952533 3.22131573,-0.0067849211 3.15786571,0.0543108301 C3.11556569,0.095041331 3.09441569,0.115406581 3.09441569,0.115406581 Z" id="Path-385" fill="#A95601"></path>
                            <path d="M3.06000351,0.985952338 C2.82748138,1.26591601 2.73025898,1.45521819 2.76833631,1.55385887 C2.8254523,1.7018199 2.91078353,1.70960571 2.86811792,1.91997539 C2.8254523,2.13034507 2.89408471,2.45557842 2.76833631,2.86932581 C2.64258791,3.2830732 2.55994384,4.25382698 2.60126587,4.25382698 C2.64258791,4.25382698 2.6999781,4.7900712 2.65062199,5.03063763 C2.60126587,5.27120406 2.257007,5.47247502 2.60126587,5.47247502 C2.94552475,5.47247502 2.98635322,5.52016695 3.12391967,5.47247502 C3.26148612,5.42478308 3.45668954,5.60968856 3.45668954,5.47247502 C3.45668954,5.33526147 3.47141411,5.30717147 3.57626843,5.30717147 C3.68112275,5.30717147 3.67583067,5.30717147 3.768675,5.30717147 C3.86151933,5.30717147 3.98320957,5.39357875 3.98320957,5.18858281 C3.98320957,4.98358688 4.00585854,4.54309292 3.88726677,4.2010361 C3.768675,3.85897928 3.80895507,4.07740956 3.69261175,3.62000054 C3.62369606,3.34905539 3.57047227,3.24151793 3.52856356,3.14687588 C3.49972208,3.08174343 3.41739615,3.19608261 3.39784609,3.09410688 C3.3912171,3.05952918 3.44754887,2.8566492 3.44814293,2.83060043 C3.45184661,2.66819843 3.57626843,2.6405589 3.57626843,2.36120213 C3.57626843,2.03703741 3.49855998,1.68090506 3.57626843,1.50271675 C3.65397689,1.32452844 3.84473826,1.43166737 3.768675,1.25836428 C3.69261175,1.08506119 3.66785144,0.985952338 3.52471871,0.985952338 C3.4292969,0.985952338 3.27439183,0.985952338 3.06000351,0.985952338 Z" id="Path-386" fill="#F7FCFF"></path>
                            <path d="M0.616741606,5.96591415 L0.675140934,5.88817486 C1.51016697,6.66595749 2.28214017,7.05352305 2.99065817,7.05352305 C3.69990585,7.05352305 4.56342769,6.64215595 5.57952789,5.81718541 L5.63315235,5.8990794 C4.60291163,6.73553061 3.7226455,7.1548744 2.99065817,7.1548744 C2.25794117,7.1548744 1.46676976,6.75767047 0.616741606,5.96591415 Z" id="Path-387" fill="#272727" fill-rule="nonzero"></path>
                        </g>
                    </g>
                </g>
            </g>
        </g>
    </g>
</svg>