<?xml version="1.0" encoding="UTF-8"?>
<svg width="20px" height="15px" viewBox="0 0 20 15" version="1.1" xmlns="http://www.w3.org/2000/svg" xmlns:xlink="http://www.w3.org/1999/xlink">
    <title>flags/M/VI - Virgin Islands (U.S.)</title>
    <defs>
        <rect id="path-1" x="0" y="0" width="20" height="15"></rect>
        <rect id="path-3" x="0" y="0" width="20" height="15"></rect>
        <path d="M0.0411764706,0 C0.428921569,0.267737617 0.816666667,0.401606426 1.20441176,0.401606426 C1.59215686,0.401606426 1.97990196,0.267737617 2.36764706,0 C2.75539216,0.267737617 3.14313725,0.401606426 3.53088235,0.401606426 C3.91862745,0.401606426 4.30637255,0.267737617 4.69411765,0 L4.69411765,1.81305132 C4.69411765,3.06280592 3.91862745,4.17197623 2.36764706,5.14056225 C0.741570639,4.2512182 -0.0339195568,3.13462782 0.0411764706,1.7907911 L0.0411764706,0 Z" id="path-5"></path>
    </defs>
    <g id="Symbols" stroke="none" stroke-width="1" fill="none" fill-rule="evenodd">
        <g id="flag">
            <mask id="mask-2" fill="white">
                <use xlink:href="#path-1"></use>
            </mask>
            <g id="mask"></g>
            <g id="contents" mask="url(#mask-2)">
                <mask id="mask-4" fill="white">
                    <use xlink:href="#path-3"></use>
                </mask>
                <use id="background" fill="#F7FCFF" xlink:href="#path-3"></use>
                <g id="mark" mask="url(#mask-4)">
                    <g transform="translate(1.250000, 3.000000)">
                        <path d="M8.77005717,5.78942179 L9.91672273,6.27332403 C10.1706833,6.38169076 10.2976636,6.50773837 10.2976636,6.65146687 C10.2976636,6.86705962 10.9430076,7.41313014 10.9430076,7.62684888 C10.9430076,7.84056762 10.3812033,8.35763171 10.148963,8.58740176 C9.91672273,8.81717181 9.61188646,9.25878658 9.36978849,9.25878658 C9.12769051,9.25878658 8.97464583,9.58217571 8.77005717,9.58217571 L8.75492487,9.57656512 L8.75492487,9.57656512 L8.7407133,9.58217571 C8.53612464,9.58217571 8.38307995,9.25878658 8.14098198,9.25878658 C7.898884,9.25878658 7.59404773,8.81717181 7.36180744,8.58740176 C7.12956715,8.35763171 6.56776284,7.84056762 6.56776284,7.62684888 C6.56776284,7.41313014 7.21310682,6.86705962 7.21310682,6.65146687 C7.21310682,6.50773837 7.34008712,6.38169076 7.59404773,6.27332403 L7.59404773,6.27332403 L8.7407133,5.78942179 L8.7407133,5.78942179 L8.75492487,6.07556151 C8.75976721,5.98205179 8.76481131,5.88667189 8.77005717,5.78942179 Z M6.77736388,5.01993656 C7.29525417,5.76285972 7.55419931,6.1343213 7.55419931,6.1343213 C7.55419931,6.1343213 6.89774455,6.09937841 6.89774455,6.58872824 C6.89774455,7.07807806 6.29567412,7.30109687 5.95884215,7.30109687 C5.62201019,7.30109687 5.43663565,7.52165982 5.43663565,7.90990602 C5.43663565,8.29815223 4.74743334,8.05958247 4.58294372,7.90990602 C4.41845411,7.76022958 4.74743334,7.11345133 4.91877321,7.11345133 C5.09011308,7.11345133 5.28559592,6.98072246 5.64949474,6.98072246 C6.01339356,6.98072246 5.68704305,6.50610879 6.06251489,5.87994467 C6.31282945,5.46250192 6.55111245,5.17583255 6.77736388,5.01993656 Z M10.8645068,5.01993656 C11.0907583,5.17583255 11.3290413,5.46250192 11.5793558,5.87994467 C11.9548277,6.50610879 11.6284771,6.98072246 11.992376,6.98072246 C12.3562748,6.98072246 12.5517576,7.11345133 12.7230975,7.11345133 C12.8944374,7.11345133 13.2234166,7.76022958 13.058927,7.90990602 C12.8944374,8.05958247 12.2052351,8.29815223 12.2052351,7.90990602 C12.2052351,7.52165982 12.0198605,7.30109687 11.6830286,7.30109687 C11.3461966,7.30109687 10.7441262,7.07807806 10.7441262,6.58872824 C10.7441262,6.09937841 10.0876714,6.1343213 10.0876714,6.1343213 C10.0876714,6.1343213 10.3466165,5.76285972 10.8645068,5.01993656 Z M5.8079695,1.45980444 C6.05708481,1.45980444 6.52574238,2.06299156 6.2914136,2.31687932 C6.05708481,2.57076708 5.97780566,2.71913987 6.13460963,2.71913987 C6.23914561,2.71913987 6.55503696,2.65072488 7.08228369,2.51389492 L7.08228369,4.87123785 C6.57698005,4.99117456 6.26108869,4.99117456 6.13460963,4.87123785 C5.94489103,4.69133279 5.54941421,4.86064562 5.54941421,4.66460777 C5.54941421,4.46856992 5.1126688,4.437751 5.1126688,4.437751 C5.1126688,4.437751 4.70850385,4.30447173 4.70850385,4.17907595 C4.70850385,4.09547876 4.62034165,3.93553599 4.44401725,3.69924764 C3.77202411,3.3187933 3.1503497,2.91981832 2.57899403,2.50232273 C1.72196051,1.87607933 0.914633101,1.42916844 0.79450305,0.889371777 C0.346897477,0.446127426 0.177004303,0.175935086 0.485753676,0.0434550703 C0.79450305,-0.0890249456 5.5588542,1.45980444 5.8079695,1.45980444 Z M17.1107223,0.0356917986 L17.156117,0.0434550703 C17.4648664,0.175935086 17.2949732,0.446127426 16.8473677,0.889371777 C16.7272376,1.42916844 15.9199102,1.87607933 15.0628767,2.50232273 C14.491521,2.91981832 13.8698466,3.3187933 13.1978535,3.69924764 C13.0215291,3.93553599 12.9333669,4.09547876 12.9333669,4.17907595 C12.9333669,4.30447173 12.5292019,4.437751 12.5292019,4.437751 C12.5292019,4.437751 12.0924565,4.46856992 12.0924565,4.66460777 C12.0924565,4.86064562 11.6969797,4.69133279 11.5072611,4.87123785 C11.380782,4.99117456 11.0648907,4.99117456 10.559587,4.87123785 L10.559587,4.87123785 L10.559587,2.51389492 C11.0868337,2.65072488 11.4027251,2.71913987 11.5072611,2.71913987 C11.664065,2.71913987 11.5847859,2.57076708 11.3504571,2.31687932 C11.1161283,2.06299156 11.5847859,1.45980444 11.8339012,1.45980444 C12.0830165,1.45980444 16.8473677,-0.0890249456 17.156117,0.0434550703 Z M8.79695581,0.00201425232 C9.28845571,0.00201425232 9.46701996,0.589050753 9.46701996,0.70436909 C9.46701996,0.781247981 9.52305247,1.02399938 9.63511748,1.43262329 C9.52305247,1.43262329 9.46701996,1.45897952 9.46701996,1.51169197 C9.46701996,1.56440442 9.64251526,1.70466114 9.99350585,1.93246212 C9.73138549,2.00962458 9.6507368,2.07689361 9.75155978,2.13426921 C9.85238276,2.1916448 9.93303145,2.29377715 9.99350585,2.44066625 L9.99350585,2.44066625 L7.43851075,2.44066625 L7.61489443,2.13426921 C7.49730531,2.08089509 7.46808571,2.05420803 7.52723562,2.05420803 C7.58638553,2.05420803 7.70032422,1.9358492 7.86905168,1.69913153 L7.86905168,1.69913153 L7.76346376,1.69913153 C7.72725019,1.64024356 7.76244616,1.61079957 7.86905168,1.61079957 C7.9756572,1.61079957 8.07153756,1.42028801 8.15669275,1.03926488 C8.22663244,0.860994077 8.17599481,0.749362146 8.00477989,0.70436909 C7.83356496,0.659376034 7.64480858,0.733891845 7.43851075,0.927916522 C7.48884148,0.617502245 7.54763604,0.428676345 7.61489443,0.361438823 C7.71578202,0.26058254 8.00477989,0.342250608 8.00477989,0.219843029 C8.00477989,0.0974354499 8.30545591,0.00201425232 8.79695581,0.00201425232 Z" id="Combined-Shape" fill="#E8AA00"></path>
                        <path d="M4.37665927,4.64885246 L4.37608677,4.74672397 C4.3758085,4.76383528 4.37557056,4.78113279 4.37557056,4.79829623 C4.37557056,4.98709409 4.02207909,5.32341328 3.91569062,5.32341328 C3.89832108,5.32341328 3.8852053,5.3166897 3.87634329,5.30324254 C4.03873137,5.62284672 4.2280858,5.9673964 4.44456001,6.33417493 C4.45312229,6.28733495 4.4687917,6.22562929 4.49216121,6.15175272 C4.54400439,6.0367019 4.63841041,5.91083666 4.77537927,5.774157 C4.98083256,5.56913752 4.95204115,5.774157 4.95204115,5.96295486 C4.95204115,6.13363576 4.66313644,6.42488422 4.52908365,6.47920872 C4.58850166,6.57525374 4.64854936,6.67378073 4.71043625,6.77381522 C4.71788663,6.74428925 4.72760174,6.71056927 4.73922004,6.67384108 C4.79106322,6.55879025 4.88546924,6.43292501 5.02243809,6.29624535 C5.22789138,6.09122587 5.19909997,6.29624535 5.19909997,6.48504322 C5.19909997,6.63446219 4.97769046,6.8762812 4.83259097,6.97065659 C4.87330639,7.03405571 4.9154998,7.10043518 4.95845795,7.16744147 C4.96655168,7.14034487 4.97561335,7.10916371 4.98627886,7.0754475 C5.03812204,6.96039668 5.13252806,6.83453144 5.26949692,6.69785178 C5.47495021,6.4928323 5.44615879,6.69785178 5.44615879,6.88664964 C5.44615879,7.03349242 5.23231828,7.2695765 5.08722147,7.36725127 L5.28378397,7.66494098 C5.49385871,7.98028176 5.71943504,8.30832849 5.96051295,8.64908116 L5.96051295,8.64908116 L5.52017533,8.64908116 C5.2995433,8.51145547 5.01182308,8.06496888 4.65701465,7.3096214 C4.61178707,7.32935506 4.54940923,7.3486066 4.48985836,7.37028134 C4.31244641,7.43485402 3.87550854,7.21770863 3.83912154,7.11773617 C3.81486354,7.05108787 3.9202091,7.01274522 4.15515821,7.00270823 C4.27226288,7.0114247 4.41077306,7.05157217 4.57068875,7.12315065 C4.53588783,7.04608712 4.49914992,6.96367501 4.46175767,6.8782505 C4.42073362,6.91111481 4.32881746,6.93736696 4.24279954,6.96867492 C4.06538758,7.03324759 3.62844972,6.8161022 3.59206272,6.71612975 C3.56780472,6.64948144 3.67315027,6.6111388 3.90809938,6.60110181 C4.03394321,6.61046876 4.18450661,6.65613295 4.35978958,6.73809438 L4.41311263,6.76627502 C4.35447245,6.63029026 4.29427043,6.48711509 4.23250656,6.33674949 C4.2106772,6.37872783 4.09896222,6.40901701 3.99574072,6.44658656 C3.81832876,6.51115924 3.38139089,6.29401385 3.34500389,6.19404139 C3.3207459,6.12739309 3.42609145,6.08905044 3.66104056,6.07901346 C3.78688438,6.08838041 3.93744778,6.1340446 4.11273076,6.21600603 C4.15575476,6.23612384 4.18631609,6.2541028 4.20656403,6.27038716 C4.07242997,5.94472769 3.93210873,5.58549193 3.78463228,5.19331499 C3.78675879,5.24652104 3.6593636,5.27966273 3.54279954,5.32208857 C3.36538758,5.38666124 2.92844972,5.16951586 2.89206272,5.0695434 C2.86780472,5.0028951 2.97315027,4.96455245 3.20809938,4.95451546 C3.33394321,4.96388242 3.48450661,5.00954661 3.65978958,5.09150804 C3.72480363,5.12190828 3.7613597,5.14742457 3.77687403,5.16958975 L3.6788518,4.90968584 L3.6788518,4.90968584 L3.63293167,4.78801525 L3.69975604,4.9350646 C3.75253824,5.04912155 3.80911158,5.16628593 3.86947607,5.28655775 C3.85199728,5.24038441 3.86741351,5.13970952 3.91569062,4.98709409 C3.9675338,4.87204326 4.06193982,4.74617802 4.19890868,4.60949837 C4.34832926,4.46039329 4.37385181,4.52816832 4.37665927,4.64885246 Z M4.70498232,5.40070587 C4.70498232,5.58950373 4.35149085,5.92582292 4.24510239,5.92582292 C4.17417675,5.92582292 4.17417675,5.81371652 4.24510239,5.58950373 C4.29694557,5.4744529 4.39135159,5.34858766 4.52832045,5.21190801 C4.73377374,5.00688852 4.70498232,5.21190801 4.70498232,5.40070587 Z M3.41398174,5.51676446 C3.53982556,5.52613141 3.69038896,5.5717956 3.86567193,5.65375704 C4.12859639,5.77669918 3.92609385,5.8197649 3.74868189,5.88433757 C3.57126994,5.94891024 3.13433207,5.73176485 3.09794507,5.6317924 C3.07368707,5.5651441 3.17903263,5.52680145 3.41398174,5.51676446 Z M3.38958656,3.65676916 C3.53421411,3.77812608 3.56462962,4.26509807 3.49624444,4.34659636 L3.4783434,4.36005161 C3.51048751,4.4493491 3.54233195,4.537267 3.57387674,4.62380531 L3.63293167,4.78801525 L3.5981924,4.70866542 C3.54638122,4.58925677 3.49904822,4.47351868 3.4561934,4.36145114 C3.40848502,4.36052632 3.33540365,4.28266716 3.23860898,4.13041455 C3.18379909,4.01674713 3.14806374,3.8635233 3.13140294,3.67074308 C3.10641173,3.38157275 3.244959,3.53541223 3.38958656,3.65676916 Z M3.10935902,4.27798873 C3.22440985,4.32983191 3.35027509,4.42423793 3.48695475,4.56120679 C3.65469796,4.72930494 3.54795228,4.74059465 3.40018424,4.73914303 L3.29815688,4.73786867 L3.29815688,4.73786867 C3.10935902,4.73786867 2.77303983,4.3843772 2.77303983,4.27798873 C2.77303983,4.20706309 2.88514623,4.20706309 3.10935902,4.27798873 Z M3.98780842,4.07578917 C4.05238109,4.25320113 3.8352357,4.690139 3.73526325,4.726526 C3.66861494,4.75078399 3.6302723,4.64543844 3.62023531,4.41048933 C3.62960226,4.28464551 3.67526645,4.13408211 3.75722788,3.95879913 C3.88017003,3.69587468 3.92323575,3.89837721 3.98780842,4.07578917 Z" id="Combined-Shape" fill="#46A000"></path>
                        <path d="M12.5142762,7.91247455 L12.6234237,8.31755422 L12.5142762,8.41298462 L12.7267783,8.5689806 L12.4110629,9.97707859 L11.9880367,9.61079121 L11.5455123,9.81426123 L11.5455123,9.61079121 L11.3192343,9.81426123 L11.1499673,9.23768245 L10.6627242,9.23768245 L11.5455123,8.21364877 L11.8572009,8.21364877 L11.8572009,7.91247455 L12.5142762,7.91247455 Z M14.5330179,3.78861472 L14.1991972,5.22267386 L14.009294,5.05541501 L14.009294,5.05541501 L13.996852,5.07863002 C13.926347,5.21018174 13.5561959,5.90082827 12.8863987,7.1505696 L12.8863987,7.1505696 L14.1397404,5.71452547 L13.8981335,5.59386657 L15.1358236,4.78351895 L14.5969812,6.10405569 L14.2963536,5.88764476 L13.0246224,7.48872644 L12.4970947,7.2858796 L13.0246224,5.41039699 L12.6665975,5.41039699 L13.3826474,4.09108905 L13.4036778,5.5589875 L13.1818898,5.48700807 C13.1818898,5.48700807 13.1294674,5.81374335 13.0246224,6.46721393 L13.0246224,6.46721393 L13.0369949,6.44348712 C13.094733,6.33276202 13.3545544,5.83449908 13.8164592,4.94869829 L13.8164592,4.94869829 L13.5528286,4.84963795 L14.5330179,3.78861472 Z M16.6822765,3.46161476 C16.4506026,3.5034617 16.3347657,3.59465349 16.3347657,3.73519012 L16.3347657,6.22527939 L16.3347657,6.22527939 C16.3766495,6.38405045 16.4924864,6.46508474 16.6822765,6.46838225 C16.7157688,6.46896416 16.7294843,6.46944338 16.7234229,6.46981991 L16.684931,6.47043606 C16.6741209,6.47051593 16.6611133,6.47058439 16.6459082,6.47064144 L16.2530254,6.47064144 C16.2158461,6.47058439 16.1764693,6.47051593 16.1348952,6.47043606 L15.8590808,6.46981991 C15.7079891,6.46944338 15.5371205,6.46896416 15.346475,6.46838225 C15.5516639,6.42724191 15.6564286,6.34620763 15.660769,6.22527939 C15.6614924,6.20512468 15.6620953,6.16527271 15.6625775,6.10572348 L15.6633813,5.96036199 C15.6634885,5.9317579 15.6635823,5.90096523 15.6636626,5.86798398 L15.6636626,5.03795422 C15.6635823,4.97870995 15.6634885,4.91727709 15.6633813,4.85365565 L15.6625775,4.44566397 C15.6620953,4.22853662 15.6614924,3.991712 15.660769,3.73519012 C15.6400277,3.55280655 15.535263,3.46161476 15.346475,3.46161476 L16.6822765,3.46161476 Z M1.44276756,3.50259492 C1.33572974,3.50259492 1.26233994,3.57071878 1.22259817,3.70696649 L1.22259817,3.70696649 L1.8699575,5.55275025 C2.28729622,4.54810414 2.49596557,3.95670303 2.49596557,3.77854691 C2.49596557,3.6003908 2.40837065,3.5084068 2.23318079,3.50259492 L2.23318079,3.50259492 L3.43809,3.50259492 L3.14699685,3.59980918 C2.5042533,5.07334074 2.18288153,5.96783338 2.18288153,6.28328712 C2.1522557,6.35320864 2.30021735,6.41142472 2.62676649,6.45793536 L2.62676649,6.45793536 L1.33289686,6.45793536 L1.6033243,6.28328712 C1.50252263,6.02303696 1.14093369,5.09613956 0.5185575,3.50259492 L0.5185575,3.50259492 Z" id="Path-397" fill="#0093E1"></path>
                        <g id="main" stroke-width="1" fill="none" transform="translate(6.423529, 2.008032)">
                            <mask id="mask-6" fill="white">
                                <use xlink:href="#path-5"></use>
                            </mask>
                            <use id="Rectangle-105" fill="#F7FCFF" xlink:href="#path-5"></use>
                            <polygon id="Rectangle-107" fill="#2E42A5" mask="url(#mask-6)" points="-0.123529412 -0.120481928 4.77647059 -0.120481928 4.77647059 1.76706827 -0.123529412 1.76706827"></polygon>
                            <path d="M0.823529412,1.76706827 L0.823529412,5.58232932 L0.411764706,5.58232932 L0.411764706,1.76706827 L0.823529412,1.76706827 Z M1.52352941,1.76706827 L1.52352941,5.58232932 L1.11176471,5.58232932 L1.11176471,1.76706827 L1.52352941,1.76706827 Z M2.22352941,1.76706827 L2.22352941,5.58232932 L1.81176471,5.58232932 L1.81176471,1.76706827 L2.22352941,1.76706827 Z M2.92352941,1.76706827 L2.92352941,5.58232932 L2.51176471,5.58232932 L2.51176471,1.76706827 L2.92352941,1.76706827 Z M3.62352941,1.76706827 L3.62352941,5.58232932 L3.21176471,5.58232932 L3.21176471,1.76706827 L3.62352941,1.76706827 Z M4.32352941,1.76706827 L4.32352941,5.58232932 L3.91176471,5.58232932 L3.91176471,1.76706827 L4.32352941,1.76706827 Z" id="Combined-Shape" fill="#AF0100" mask="url(#mask-6)"></path>
                        </g>
                    </g>
                </g>
            </g>
        </g>
    </g>
</svg>