<?xml version="1.0" encoding="UTF-8"?>
<svg width="20px" height="15px" viewBox="0 0 20 15" version="1.1" xmlns="http://www.w3.org/2000/svg" xmlns:xlink="http://www.w3.org/1999/xlink">
    <title>flags/M/VU - Vanuatu</title>
    <defs>
        <rect id="path-1" x="0" y="0" width="20" height="15"></rect>
    </defs>
    <g id="Symbols" stroke="none" stroke-width="1" fill="none" fill-rule="evenodd">
        <g id="flag">
            <mask id="mask-2" fill="white">
                <use xlink:href="#path-1"></use>
            </mask>
            <g id="mask"></g>
            <g id="contents" mask="url(#mask-2)">
                <g transform="translate(0.000000, -45.000000)">
                    <polygon id="middle" stroke="none" fill="#F7FCFF" points="0 45 20 45 20 60 0 60"></polygon>
                    <rect id="top" stroke="none" fill="#C51918" x="0" y="45" width="20" height="5"></rect>
                    <rect id="bottom" stroke="none" fill="#5EAA22" x="0" y="55" width="20" height="5"></rect>
                    <polygon id="triangle" stroke="none" fill="#272727" points="0 43.75 10.4184931 52.5 0 61.25"></polygon>
                    <path d="M-0.625,41.6359449 L11.0911491,50.6241774 L20.625,50.6250577 L20.625,54.3750568 L10.9384742,54.3741767 L-0.625,63.0034537 L-0.625,58.6472446 L7.70209227,52.4969786 L-0.625,46.2721825 L-0.625,41.6359449 Z" id="Combined-Shape" stroke="#272727" stroke-width="1.25" fill="#FFD018"></path>
                    <g id="mark" stroke="none" stroke-width="1" fill="none" transform="translate(0.000000, 48.750000)">
                        <path d="M3.0460545,6.73004171 L3.04730338,5.74231988 C3.92750822,5.54813959 4.51060134,5.29555629 4.79442487,4.99180777 C5.49332372,4.13046022 5.0287221,2.11241204 3.59286636,2.12560701 C2.88150217,2.12560701 2.14588294,2.46459604 2.14588294,3.26243188 C2.14588294,4.25333352 2.34979722,4.6769227 3.04730338,4.6769227 C3.74046064,4.6769227 3.99459267,4.71397616 4.45118201,4.09165661 L4.94667254,4.24475442 C4.45739399,4.91162853 3.79786243,5.43841868 3.0460545,5.43841868 C1.80758838,5.43841868 1.13361625,4.50463459 1.13361625,3.4246842 C1.13361625,2.09149108 2.2159161,1.15777706 3.52088027,1.15777706 C4.49457464,1.15777706 6.03466447,2.35040409 6.03466447,3.4246842 C6.03466447,4.49896431 6.03466447,4.99180777 5.19018679,5.74231988 C4.85004332,6.04461536 4.00725975,6.58448174 3.0460545,6.73004171 Z" id="Path-290" fill="#FFD018" fill-rule="nonzero"></path>
                        <path d="M3.11963779,2.42489763 C3.16731479,2.43748697 3.19575897,2.48634249 3.18316962,2.5340195 L3.11406797,2.79650109 C3.17503548,2.87591854 3.23293178,2.95168328 3.28780874,3.02388646 L3.37269154,2.83144565 C3.39308282,2.78654817 3.44600983,2.76668197 3.49090731,2.78707325 C3.53580479,2.80746454 3.55567099,2.86039154 3.53527971,2.90528902 L3.41024342,3.18573202 C3.44138868,3.22711536 3.47138804,3.26715596 3.50025387,3.30587558 L3.55126297,3.18858851 C3.57165425,3.14369103 3.62458125,3.12382483 3.66947874,3.14421611 C3.71437622,3.16460739 3.73424242,3.21753439 3.71385114,3.26243188 L3.62145048,3.4697825 C3.69668905,3.57248576 3.76223844,3.66399207 3.81841554,3.74485835 L3.90840583,3.54573137 C3.92879711,3.50083389 3.98172411,3.48096769 4.02662159,3.50135897 C4.07151908,3.52175025 4.09138528,3.57467725 4.070994,3.61957473 L3.93887319,3.91047805 C4.03298459,4.06999389 4.08021113,4.16538043 4.08021113,4.21067562 C4.08021113,4.25998676 4.04023655,4.29996134 3.99092542,4.29996134 C3.94161428,4.29996134 3.9016397,4.25998676 3.9016397,4.21067562 C3.9016397,4.19673953 3.87758712,4.15220397 3.83077576,4.07934277 L3.78765367,4.01379787 L3.78765367,4.01379787 L3.60534515,4.11030877 C3.56189905,4.1336331 3.50777091,4.11732118 3.48444658,4.07387508 C3.46112225,4.03042898 3.47743416,3.97630084 3.52088027,3.95297651 L3.68558055,3.86570754 C3.63450039,3.79312064 3.57467022,3.70984562 3.50641954,3.61646158 L3.24820229,3.75316591 C3.20475619,3.77649024 3.15062805,3.76017832 3.12730372,3.71673222 C3.10397939,3.67328612 3.12029131,3.61915799 3.16373741,3.59583365 L3.39956914,3.47130503 C3.35750138,3.41452776 3.31293368,3.3547766 3.26592092,3.29214799 L3.06963086,3.39602305 C3.02618476,3.41934738 2.97205663,3.40303547 2.94873229,3.35958937 C2.92540796,3.31614326 2.94171988,3.26201513 2.98516598,3.2386908 L3.15653084,3.14706776 C3.10695248,3.08158948 3.05506924,3.01342153 3.00093263,2.94265446 L2.90939894,3.02581116 C2.87317066,3.05926412 2.81668286,3.05701428 2.7832299,3.02078601 C2.74977694,2.98455774 2.75202678,2.92806994 2.78825505,2.89461698 L2.89188066,2.80055304 C2.87150919,2.77408884 2.85085481,2.74730091 2.82991986,2.72019337 C2.79977931,2.68116599 2.80698351,2.62509432 2.84601088,2.59495377 C2.88503825,2.56481322 2.94110993,2.57201742 2.97125048,2.61104479 L2.97554084,2.61691681 L3.01051591,2.48842946 C3.02310526,2.44075246 3.07196078,2.41230828 3.11963779,2.42489763 Z" id="Combined-Shape" fill="#FFD018" fill-rule="nonzero"></path>
                        <path d="M3.11963779,2.42489763 C3.16731479,2.43748697 3.19575897,2.48634249 3.18316962,2.5340195 L3.11406797,2.79650109 C3.17503548,2.87591854 3.23293178,2.95168328 3.28780874,3.02388646 L3.37269154,2.83144565 C3.39308282,2.78654817 3.44600983,2.76668197 3.49090731,2.78707325 C3.53580479,2.80746454 3.55567099,2.86039154 3.53527971,2.90528902 L3.41024342,3.18573202 C3.44138868,3.22711536 3.47138804,3.26715596 3.50025387,3.30587558 L3.55126297,3.18858851 C3.57165425,3.14369103 3.62458125,3.12382483 3.66947874,3.14421611 C3.71437622,3.16460739 3.73424242,3.21753439 3.71385114,3.26243188 L3.62145048,3.4697825 C3.69668905,3.57248576 3.76223844,3.66399207 3.81841554,3.74485835 L3.90840583,3.54573137 C3.92879711,3.50083389 3.98172411,3.48096769 4.02662159,3.50135897 C4.07151908,3.52175025 4.09138528,3.57467725 4.070994,3.61957473 L3.93887319,3.91047805 C4.03298459,4.06999389 4.08021113,4.16538043 4.08021113,4.21067562 C4.08021113,4.25998676 4.04023655,4.29996134 3.99092542,4.29996134 C3.94161428,4.29996134 3.9016397,4.25998676 3.9016397,4.21067562 C3.9016397,4.19673953 3.87758712,4.15220397 3.83077576,4.07934277 L3.78765367,4.01379787 L3.78765367,4.01379787 L3.60534515,4.11030877 C3.56189905,4.1336331 3.50777091,4.11732118 3.48444658,4.07387508 C3.46112225,4.03042898 3.47743416,3.97630084 3.52088027,3.95297651 L3.68558055,3.86570754 C3.63450039,3.79312064 3.57467022,3.70984562 3.50641954,3.61646158 L3.24820229,3.75316591 C3.20475619,3.77649024 3.15062805,3.76017832 3.12730372,3.71673222 C3.10397939,3.67328612 3.12029131,3.61915799 3.16373741,3.59583365 L3.39956914,3.47130503 C3.35750138,3.41452776 3.31293368,3.3547766 3.26592092,3.29214799 L3.06963086,3.39602305 C3.02618476,3.41934738 2.97205663,3.40303547 2.94873229,3.35958937 C2.92540796,3.31614326 2.94171988,3.26201513 2.98516598,3.2386908 L3.15653084,3.14706776 C3.10695248,3.08158948 3.05506924,3.01342153 3.00093263,2.94265446 L2.90939894,3.02581116 C2.87317066,3.05926412 2.81668286,3.05701428 2.7832299,3.02078601 C2.74977694,2.98455774 2.75202678,2.92806994 2.78825505,2.89461698 L2.89188066,2.80055304 C2.87150919,2.77408884 2.85085481,2.74730091 2.82991986,2.72019337 C2.79977931,2.68116599 2.80698351,2.62509432 2.84601088,2.59495377 C2.88503825,2.56481322 2.94110993,2.57201742 2.97125048,2.61104479 L2.97554084,2.61691681 L3.01051591,2.48842946 C3.02310526,2.44075246 3.07196078,2.41230828 3.11963779,2.42489763 Z" id="Combined-Shape" fill="#FFD018" fill-rule="nonzero" transform="translate(3.419876, 3.360939) scale(-1, 1) translate(-3.419876, -3.360939) "></path>
                    </g>
                </g>
            </g>
        </g>
    </g>
</svg>