<?xml version="1.0" encoding="UTF-8"?>
<svg width="20px" height="15px" viewBox="0 0 20 15" version="1.1" xmlns="http://www.w3.org/2000/svg" xmlns:xlink="http://www.w3.org/1999/xlink">
    <title>flags/M/ZM - Zambia</title>
    <defs>
        <rect id="path-1" x="0" y="0" width="20" height="15"></rect>
        <rect id="path-3" x="0" y="0" width="20" height="15"></rect>
    </defs>
    <g id="Symbols" stroke="none" stroke-width="1" fill="none" fill-rule="evenodd">
        <g id="flag">
            <mask id="mask-2" fill="white">
                <use xlink:href="#path-1"></use>
            </mask>
            <g id="mask"></g>
            <g id="contents" mask="url(#mask-2)">
                <polygon id="base" fill="#F7FCFF" points="0 0 20 0 20 15 0 15"></polygon>
                <mask id="mask-4" fill="white">
                    <use xlink:href="#path-3"></use>
                </mask>
                <use id="background" fill="#5EAA22" xlink:href="#path-3"></use>
                <g id="mark" mask="url(#mask-4)">
                    <g transform="translate(7.500000, 1.250000)">
                        <rect id="Rectangle-69" fill="#FF8126" x="8.75" y="5" width="3.75" height="8.75"></rect>
                        <rect id="Rectangle-69" fill="#272727" x="5" y="5" width="3.75" height="8.75"></rect>
                        <rect id="Rectangle-69" fill="#C51918" x="1.25" y="5" width="3.75" height="8.75"></rect>
                        <path d="M0.736949169,0.428062626 C0.550152307,0.305167196 0.592551323,-0.13480234 0.736949169,0.0408738535 C0.881347015,0.216550047 2.06318785,0.698069015 2.23284738,0.870402945 C2.36335472,1.00296751 2.27565502,0.829613849 2.16440988,0.619647053 L2.09639464,0.491427839 L2.09639464,0.491427839 L2.06318785,0.428062626 C1.92297913,0.158056237 2.99330039,0.880211607 3.42147967,1.01287089 C3.84965896,1.14553016 4.56618963,1.55470145 4.56618963,1.27950138 C4.56618963,1.00430132 4.89871724,0.573680402 5.25530058,0.428062626 C5.61188392,0.28244485 5.67116638,0.573680402 6.00953338,0.698069015 C6.23511137,0.780994757 6.23511137,0.885928714 6.00953338,1.01287089 C5.96499848,0.96111384 5.94273103,0.913624527 5.94273103,0.870402945 C5.94273103,0.805570573 5.68354222,0.870402945 5.54987725,1.1056642 C5.44051501,1.29815069 5.59958736,1.32397959 5.80300705,1.32700873 L5.94273103,1.32722909 C6.20191984,1.32722909 6.73446373,1.27950138 6.93031679,1.27950138 C7.12616986,1.27950138 7.21884232,1.27950138 7.47720626,1.1056642 C7.7355702,0.931827025 8.91076032,0.698069015 9.073762,0.625741448 C9.18242979,0.57752307 9.12809589,0.680687693 8.91076032,0.935235318 C9.74911616,0.59712019 10.2522755,0.370334097 10.4202384,0.254877038 C10.6721827,0.0816914503 10.3315827,0.428062626 10.1682941,0.698069015 C10.0050055,0.968075404 10.6032521,0.428062626 10.8802653,0.254877038 C11.1572785,0.0816914503 10.8098285,0.551458517 10.6571198,0.698069015 C10.5044111,0.844679513 11.0156876,0.698069015 11.1927121,0.551458517 C11.3697366,0.404848019 11.0864831,0.805744579 11.0156876,0.935235318 C10.9448922,1.06472606 10.9201102,1.1056642 11.0864831,1.1056642 C11.252856,1.1056642 10.6571198,1.56882286 10.6571198,1.56882286 L10.6571198,1.56882286 L10.6741555,1.56836007 C10.7139054,1.5710165 10.7990837,1.60232905 10.6571198,1.84904376 C10.4796649,2.15743714 9.13709774,2.47114954 9.073762,2.61252555 C9.01042625,2.75390156 8.17920734,2.92561435 8.24024779,2.92561435 C8.30128824,2.92561435 8.40274738,3.00283191 8.2925733,3.00283191 C8.18239923,3.00283191 7.98891319,3.06511953 7.98891319,3.06511953 C7.98891319,3.06511953 8.09073096,3.06511953 7.98891319,3.21023719 C7.88709541,3.35535486 7.62507335,3.14952695 7.76974855,3.35535486 C7.91442375,3.56118277 7.86374798,3.48844052 7.71602434,3.48844052 C7.56830071,3.48844052 7.39930975,3.35535486 7.21884232,3.35535486 C7.03837489,3.35535486 7.23462246,3.48844052 7.34135359,3.56393399 C7.42140194,3.62055409 7.40782519,3.63033468 7.30189428,3.63168621 L7.1652257,3.63165068 C6.94208017,3.63165068 6.93031679,3.58172521 6.93031679,3.63165068 C6.93031679,3.68157614 6.59046994,3.48844052 6.46189766,3.48844052 C6.3761828,3.48844052 6.46703816,3.57685861 6.73446373,3.75369478 C6.59516812,3.70864815 6.48780339,3.66796678 6.41236954,3.63165068 C6.29921875,3.57717653 6.63813314,4.07063529 6.59046994,4.07063529 C6.54280674,4.07063529 6.31991226,3.91667703 6.31991226,4.01304309 C6.31991226,4.10940914 6.41236954,4.18101422 6.52552032,4.18101422 C6.6386711,4.18101422 6.65728449,4.33152428 6.59046994,4.33152428 C6.52365539,4.33152428 6.41236954,4.24865754 6.41236954,4.33152428 C6.41236954,4.41439101 6.52552032,4.44784584 6.52552032,4.60404175 C6.52552032,4.76023766 6.35713904,4.78246752 6.41236954,4.67894829 C6.46760003,4.57542907 6.22072491,4.32554496 6.22072491,4.44784584 L6.22072491,4.44784584 L6.22072491,4.60404175 C6.22072491,4.78246752 6.16514196,4.69102553 6.09332378,4.78246752 C6.01202019,4.88598674 6.06825488,4.9006966 6.00953338,4.9006966 C5.95081188,4.9006966 5.9170883,4.67894829 5.73690778,4.60404175 C5.55672727,4.52913521 5.67332099,4.67894829 5.54987725,4.78246752 C5.42643352,4.88598674 5.54987725,4.89460723 5.54987725,4.97758402 C5.54987725,5.0605608 5.4120162,4.89460723 5.4120162,4.78246752 C5.4120162,4.67032781 5.25530058,4.52113833 5.25530058,4.60404175 C5.25530058,4.68694517 5.25530058,4.78246752 5.17474027,4.78246752 C5.09417996,4.78246752 5.17474027,4.9017604 5.07726204,4.97758402 C4.9797838,5.05340763 5.07726204,4.9017604 4.99796683,4.78246752 C4.91867162,4.66317463 5.07726204,4.43709774 4.99796683,4.52113833 C4.91867162,4.60517892 4.81728422,4.60404175 4.74975239,4.60404175 C4.68222056,4.60404175 4.63161652,4.77472742 4.63161652,4.67894829 C4.63161652,4.58316917 4.73160523,4.33152428 4.91974754,4.33152428 C5.10788986,4.33152428 5.17474027,4.23244368 5.25530058,4.18101422 C5.33586089,4.12958475 5.25530058,4.06249168 5.17474027,4.01304309 C5.13893569,3.99106594 5.15087055,3.9212941 5.1751823,3.85770875 L5.178,3.851 L5.15636941,3.86575196 C5.12008838,3.88612321 5.07940207,3.90196616 5.04456165,3.91026465 L4.99796683,3.91667703 C4.91867162,3.91667703 5.07726204,3.65204639 5.07726204,3.48844052 C5.07726204,3.32483466 5.13970119,3.21023719 5.07726204,3.26291388 C5.01482289,3.31559056 4.56618963,3.21023719 4.49913506,3.21023719 C4.47678354,3.21023719 4.48481431,3.17861243 4.50029558,3.13930599 L4.53439754,3.05754513 C4.55469538,3.00566873 4.56106016,2.968513 4.49913506,3.00283191 C4.35980359,3.08004948 4.05560552,3.06511953 3.91179105,3.06511953 C3.76797659,3.06511953 4.00518079,2.86589454 3.91179105,2.92561435 C3.81840131,2.98533416 3.72554953,3.00283191 3.620504,3.00283191 C3.51545847,3.00283191 3.5768217,2.864684 3.42147967,2.86589454 C3.26613765,2.86710508 3.23130835,2.864684 3.14577281,2.7972241 C3.06023728,2.72976419 3.23130835,2.71571463 3.08935844,2.71571463 L3.08935844,2.71571463 L2.66792146,2.71571463 C2.45797386,2.71571463 2.66856701,2.55221882 2.74423996,2.55221882 C2.81991291,2.55221882 2.90763614,2.40508359 2.74423996,2.47114954 C2.58084377,2.5372155 2.39958734,2.47114954 2.15054803,2.47114954 C1.90150872,2.47114954 1.85377379,2.3560752 2.00103119,2.3560752 C2.1482886,2.3560752 2.15696768,2.27177783 1.92808391,2.27177783 C1.69920014,2.27177783 1.53519427,2.17273392 1.45442864,2.17273392 C1.37366301,2.17273392 1.28633427,2.05927362 1.45442864,2.05927362 C1.622523,2.05927362 1.8381371,1.96470503 1.65419087,1.96470503 C1.47024464,1.96470503 1.06892697,1.79145156 0.959864681,1.79145156 C0.85080239,1.79145156 1.57902002,1.68184297 1.14520961,1.68184297 C0.711399192,1.68184297 0.248431381,1.1847526 0.0752443369,1.1056642 C-0.0979427076,1.02657581 0.0752443369,0.870402945 0.1251311,0.935235318 C0.175017863,1.00006769 0.524319373,1.09975825 0.373022765,1.01287089 C0.221726157,0.925983519 0.1251311,0.778122334 0.0752443369,0.698069015 C0.0253575738,0.618015697 0.0637678709,0.562720176 0.1251311,0.625741448 C0.166039919,0.667755629 0.280888262,0.749309461 0.469676127,0.870402945 C0.368667829,0.755513659 0.278070797,0.608066886 0.197885034,0.428062626 C0.0776063884,0.158056237 0.318163679,0.223821198 0.524319373,0.428062626 C0.730475067,0.632304054 0.923746031,0.686338131 1.02079408,0.698069015 C1.11784212,0.709799899 0.923746031,0.550958056 0.736949169,0.428062626 Z M5.68433122,3.0918247 C5.69901154,3.64930739 5.67952545,3.92804874 5.62587298,3.92804874 C5.54539426,3.92804874 5.18671883,4.20720583 5.53707382,4.20720583 C5.88742881,4.20720583 6.09888269,4.48636292 5.99315575,4.20720583 C5.88742881,3.92804874 5.92189407,4.04840543 5.92189407,3.8265104 C5.92189407,3.67858037 5.84270645,3.43368514 5.68433122,3.0918247 Z" id="Combined-Shape" fill="#FF8126"></path>
                    </g>
                </g>
            </g>
        </g>
    </g>
</svg>