<?xml version="1.0" encoding="UTF-8"?>
<svg width="20px" height="15px" viewBox="0 0 20 15" version="1.1" xmlns="http://www.w3.org/2000/svg" xmlns:xlink="http://www.w3.org/1999/xlink">
    <title>flags/M/ZW - Zimbabwe</title>
    <defs>
        <rect id="path-1" x="0" y="0" width="20" height="15"></rect>
        <rect id="path-3" x="0" y="0" width="20" height="15"></rect>
        <polygon id="path-5" points="0 0 0 15 10.2070572 7.59497109"></polygon>
    </defs>
    <g id="Symbols" stroke="none" stroke-width="1" fill="none" fill-rule="evenodd">
        <g id="flag">
            <mask id="mask-2" fill="white">
                <use xlink:href="#path-1"></use>
            </mask>
            <g id="mask"></g>
            <g id="contents" mask="url(#mask-2)">
                <mask id="mask-4" fill="white">
                    <use xlink:href="#path-3"></use>
                </mask>
                <use id="background" fill="#F7FCFF" xlink:href="#path-3"></use>
                <rect id="yellow" fill="#FECA00" mask="url(#mask-4)" x="0" y="1.25" width="20" height="12.5"></rect>
                <rect id="middle" stroke="#E31D1C" stroke-width="2.1875" fill="#272727" mask="url(#mask-4)" x="-1.09375" y="5.15625" width="22.1875" height="4.6875"></rect>
                <path d="M20,12.5 L20,15 L0,15 L0,12.5 L20,12.5 Z M20,0 L20,2.5 L0,2.5 L0,0 L20,0 Z" id="top-n-bottom" fill="#5EAA22" mask="url(#mask-4)"></path>
                <mask id="mask-6" fill="white">
                    <use xlink:href="#path-5"></use>
                </mask>
                <path stroke="#272727" stroke-width="1.25" d="M-0.625,-1.24409579 L11.2625977,7.60134901 L-0.625,16.2255786 L-0.625,-1.24409579 Z"></path>
                <g id="mark" mask="url(#mask-6)">
                    <g transform="translate(1.250000, 3.750000)">
                        <polygon id="Star-5" fill="#E31D1C" points="3.42402625 5.17391402 1.06219236 7.08044764 2.14555048 4.53256917 0.284039356 2.73992768 2.4812933 2.73992768 3.38290823 0.578150758 4.34052375 2.73992768 6.53403936 2.73992768 4.57419553 4.53256917 5.5550419 7.08044764"></polygon>
                        <path d="M1.88600615,1.51343636 C1.86314826,1.45833041 1.91918215,1.40641494 2.05410782,1.35768993 C2.25649632,1.28460241 2.31823323,1.12973571 2.47688712,1.24371282 C2.63554101,1.35768993 2.73479418,1.12853928 2.78031527,1.45720437 C2.81066266,1.67631442 2.86765851,1.95862389 2.9513028,2.30413276 L5.00603907,3.84829563 L4.61998584,3.84829563 C4.21921699,4.43712459 4.05191695,4.98986137 4.11808572,5.50650599 C3.84156942,5.46444343 3.51591323,5.44341215 3.14111717,5.44341215 C2.76632111,5.44341215 2.45618218,5.48832502 2.21070038,5.57815076 L1.88600615,4.37584884 C1.9643826,4.24119234 2.02041648,4.11960268 2.05410782,4.01107986 C2.10464482,3.84829563 2.31390443,3.81824424 2.31390443,3.68874879 C2.31390443,3.55925334 2.10749633,3.45069534 2.21070038,3.1154851 C2.27950308,2.89201161 2.31390443,2.44602647 2.31390443,1.77752966 C2.09645675,1.68190947 2.00985788,1.63409937 2.05410782,1.63409937 C2.12048273,1.63409937 2.27178453,1.51343636 2.16294618,1.51343636 C2.09038727,1.51343636 1.99807393,1.51343636 1.88600615,1.51343636 Z" id="Path-293" fill="#FECA00"></path>
                    </g>
                </g>
            </g>
        </g>
    </g>
</svg>